<svg xmlns="http://www.w3.org/2000/svg" viewBox="0 0 14.693639551439958 9.268809437520094"><path d="M14.199631461719918 1.542875076760005 L14.20469575271997 1.5488695427600376 L14.206556104719908 1.5556133167600663 L14.205419222719996 1.5628996927600625 L14.201491813719912 1.5705219677600226 L14.194670524719953 1.602302973760068 L14.178650829719999 1.6060495147600662 L14.159013785719964 1.5921227157600768 L14.140927034719965 1.5705736437600493 L14.137619742719977 1.5676280877600348 L14.133899039719921 1.5652251327600837 L14.11426199572 1.560160842760105 L14.092867952720013 1.5613235617600267 L14.051320101719995 1.5705219677600226 L14.025378531719952 1.5877818957600098 L13.941869417719971 1.63031159976007 L13.892983513719997 1.6623768257600844 L13.869005648719991 1.6694048207601 L13.803273226719995 1.662841913760026 L13.786943473719958 1.6661233667599973 L13.772577425719959 1.6750117137601208 L13.766066194719912 1.6889126737600932 L13.76120861071999 1.7232258247601138 L13.751596793719983 1.7333027287600444 L13.692582307720016 1.7489606887601 L13.663643505719989 1.7488056587600695 L13.633981234719926 1.7397106067600774 L13.604215608720011 1.7336644647600465 L13.522360140719996 1.6919615837600261 L13.491354281719936 1.6816779737600385 L13.43016938571995 1.6725312447600302 L13.369119489719964 1.6704051887600784 L13.368612402719947 1.670387529760042 L13.368405800720012 1.6703803347600754 L13.366760063719909 1.6703230217601188 L13.297360954719949 1.6679062047600794 L13.166619580719924 1.6858637647600645 L13.134166780719994 1.6816779737600385 L13.10316092171999 1.6780606227600359 L13.037015088719926 1.6852953237601085 L12.98905935971996 1.6824531197600336 L12.939139925720013 1.696560785760063 L12.924773877720014 1.698007725760057 L12.909994417720014 1.6965091097600649 L12.880745556719972 1.6902045847601315 L12.849119580719929 1.6875174097600976 L12.699774690719977 1.7002814887600906 L12.683548291719973 1.7050873977600887 L12.659570426719966 1.718419916760105 L12.64778820071993 1.7229674417600407 L12.634042269719913 1.722450678760005 L12.60313976272002 1.7123220977600582 L12.578335074720002 1.717179682760083 L12.554150504720013 1.7275666457599996 L12.525004996720014 1.734129551760084 L12.436638297719952 1.7377469027600583 L12.353129183719915 1.7278250277600549 L12.286879997719979 1.7315974067600806 L12.22249116271999 1.7439480747600342 L12.174018668719924 1.763946853760082 L12.111386832720001 1.8065799097600532 L12.090406201720015 1.8111274367600814 L12.044620882719954 1.808750320760062 L12.003486442720003 1.8196540477600323 L11.95925141671998 1.8218244577601084 L11.870884717719974 1.8381025337600434 L11.826959749719919 1.853192051760125 L11.810733350719914 1.8624421337600339 L11.806909294719986 1.8752062127600269 L11.821895459719968 1.8944815207600598 L11.828923454719956 1.9109146267600252 L11.811456819720007 1.919079503760038 L11.753372509719924 1.9256424107600267 L11.728154410719952 1.9322569937600989 L11.716372184719972 1.9374246367601202 L11.70769054372002 1.9458995707601119 L11.709447542719914 1.9541678007600538 L11.713581657719914 1.9626427357600633 L11.712238069719973 1.9716861107601247 L11.696115023719955 1.9840884557600944 L11.655083936719933 1.992098302760077 L11.634310009719997 2.0015034127600373 L11.618186963719921 2.014939285760086 L11.570747998720009 2.036953445760055 L11.557002067719992 2.04620352676006 L11.544909781720008 2.0565388137600635 L11.531990674719992 2.0654788367601 L11.515867627719928 2.0703880967600483 L11.451065380719996 2.073798741760079 L11.43049816072002 2.0844957627600778 L11.431841748719961 2.116121739760054 L11.44879161871998 2.1432518667601315 L11.451685498719968 2.156946120760047 L11.439903271719942 2.168004877760076 L11.424193636719991 2.172707432760042 L11.408277295719955 2.1734309037600283 L11.393601188719998 2.1686249947600302 L11.364145621719985 2.1430968377600905 L11.306578076719944 2.111780919760072 L11.28642426771998 2.105011306760055 L11.267717398719952 2.106613276760079 L11.25800222971995 2.1152432397600265 L11.246013297719998 2.146094069760103 L11.237641715720002 2.1622171177601004 L11.229580192719908 2.1728624627600723 L11.20446544671998 2.192912917760033 L11.199504508719968 2.2081574647600704 L11.209943148719987 2.2235570417600528 L11.21562755571992 2.23668285576003 L11.196197216719924 2.245261143760054 L11.17190929371995 2.2493435817600655 L11.153099072719925 2.2549246367600873 L11.136355908719992 2.264019688760051 L11.060029818719926 2.33316275576005 L11.039720979719931 2.3459785097601085 L10.976417350719913 2.363961908760025 L10.97124970771992 2.370524815760099 L10.966288769719966 2.3918155057600714 L10.959364127719908 2.4012206157600318 L10.94995901671993 2.406646641760098 L10.919573274719909 2.418428867760106 L10.88035086271995 2.4391511177600265 L10.874976514719975 2.446489170760124 L10.869912224719911 2.467728184760098 L10.864899609719913 2.4769265897601045 L10.832653515719954 2.5033849237600876 L10.823196728719921 2.5188361767600966 L10.827190920719914 2.533742336760106 L10.828209342719987 2.537543045760067 L10.839164746719945 2.545707920760073 L10.875131542719913 2.56183096876007 L10.889187532719944 2.5705642847600316 L10.914715690719987 2.5929918567600296 L10.941587434719992 2.602086908760107 L10.969802767719926 2.607151199760075 L10.99884492271994 2.6172797797600325 L11.013676058719938 2.6314907987601046 L11.017965202719921 2.6642536567600033 L11.028610547719921 2.6793948517600157 L11.073982454719925 2.7056981557600537 L11.088296826719926 2.7208393497600767 L11.121679801719921 2.769828608760072 L11.128191032719968 2.784608067759997 L11.129327913719948 2.794581619760102 L11.128294385720011 2.8032115827600492 L11.12839773871994 2.8122549587600147 L11.132841911719908 2.8235204217600725 L11.138629671719997 2.830445062760056 L11.15340913171994 2.8399535267600484 L11.160023714719927 2.845482904760054 L11.172632764719964 2.8630528917601126 L11.177076936719942 2.8807779077600415 L11.171289176719966 2.8989680117600827 L11.153202424719979 2.9179332627601084 L11.14059337571993 2.9379837187600586 L11.149998486719909 2.954985264760076 L11.170048941719955 2.968266107760094 L11.225136019719997 2.9903319447600794 L11.24146577271992 3.0003571717601076 L11.25076752971998 3.015188308760038 L11.250147412719997 3.034360265760064 L11.243326123719925 3.0524470167600626 L11.238985303719943 3.071412266760042 L11.245083122719933 3.0936331327600683 L11.250699477720019 3.100350294760098 L11.25800222971995 3.109084386760067 L11.271231396719912 3.1213317007600736 L11.27970633171995 3.1349226017600884 L11.278156038719914 3.154404617760072 L11.268337516719924 3.169080723760068 L11.219554964720004 3.20396231576013 L11.188859163719968 3.236621820760014 L11.18710216571995 3.263648594760049 L11.205085562719972 3.2889183707600367 L11.260482698719926 3.3411632427601106 L11.290971794719923 3.3614204047601177 L11.295209261719975 3.374856276760063 L11.286527620719909 3.3944416447601 L11.26141287471998 3.426377680760062 L11.192269808719999 3.465961826760129 L11.166224886720016 3.492523513760041 L11.164777946719909 3.536345128760054 L11.170255648719916 3.5464220327600984 L11.16860200271995 3.555827143760048 L11.16157400772002 3.563940343760045 L11.150721956719991 3.5703998977601046 L11.150618603719948 3.5703998977601046 L11.150618603719948 3.5705032497601294 L11.14266043372001 3.581045241760002 L11.133978793719933 3.6042479597601087 L11.126847445720017 3.6148416287600824 L11.11723562872001 3.621869623760098 L11.102516295719994 3.626787334760003 L10.982205110720002 3.666983148760046 L10.946755078719974 3.6895140737600585 L10.928099886719991 3.7202615507600356 L10.91290701571998 3.754316319760086 L10.860352083720016 3.8163797147600533 L10.846812858719915 3.8274901477600523 L10.808210563719939 3.8442333117600995 L10.737878939719934 3.8916205997600812 L10.727440299719973 3.9032994737600646 L10.72604503571992 3.918595697760118 L10.73353811872002 3.9409199167600732 L10.737155469719909 3.9616421667601074 L10.73384817771992 3.986033441760135 L10.723099479719991 4.006083897760085 L10.704806022720021 4.013421950760069 L10.664240023719998 4.008202631760049 L10.643104362719981 4.00835766076009 L10.640633445719999 4.009287975760067 L10.625947787719923 4.014817214760065 L10.61426891371994 4.032542230760079 L10.612925325719942 4.054530552760134 L10.618506380719992 4.076932286760048 L10.62811819672001 4.095664992760028 L10.648788770720017 4.1214773717600295 L10.677107454720016 4.15010611376011 L10.708216667719938 4.1747557727600295 L10.779323437719967 4.20772533676007 L10.783664257719948 4.232323318760059 L10.754363721720011 4.302086501760108 L10.754157015719926 4.320199091760124 L10.763820508719988 4.355158197760041 L10.766766064719974 4.375337844760118 L10.765370800719978 4.399315709760124 L10.759066276719949 4.41272574376007 L10.731161002719915 4.439287429760078 L10.720050569719973 4.4592345327600995 L10.721135775719944 4.475615961760049 L10.724546419719985 4.491532302760085 L10.719895540719932 4.510290847760082 L10.70397919972001 4.522667353760035 L10.654989941720004 4.53121980276007 L10.634422721719915 4.537136754760077 L10.623002230720004 4.550727655760063 L10.61127168071991 4.559719355760002 L10.597008984719963 4.56362092576007 L10.578508821720021 4.562303176760118 L10.551585401720018 4.555171828760059 L10.541611849719999 4.557497267760006 L10.537271028719914 4.570287184760083 L10.519494335719997 4.599768590760085 L10.44859427171994 4.610982375760052 L10.313460400720004 4.609793817760028 L10.17925670571995 4.625839350760067 L10.148767610719943 4.624935012760041 L10.066240348720015 4.610129714760099 L9.985470085719982 4.607261672760025 L9.967176627719908 4.602869175760027 L9.932863476719916 4.5883739367600995 L9.876122754719944 4.58385224876006 L9.660115267719988 4.5207553247600245 L9.626370556719934 4.518817459760079 L9.573298861719962 4.5256645857600475 L9.546530469720011 4.533338536760034 L9.529890658720007 4.547317011760136 L9.527720247719998 4.563207514760059 L9.531130892719915 4.57821951776004 L9.52927054071992 4.593024815760067 L9.511493847720004 4.608191848760079 L9.498368034720016 4.622738763760033 L9.504465853720006 4.637595738760076 L9.533766389719943 4.6619870147600935 L9.54270641271998 4.675086989760054 L9.556038932719929 4.713043329760076 L9.564823926719981 4.7289338327600845 L9.58859508471997 4.758105178760111 L9.597380078719965 4.773065505760066 L9.604511426719995 4.792573358760087 L9.614795036719983 4.81184866776011 L9.629936231719995 4.819703485760051 L9.653755641719926 4.822453087760103 L9.669106966719909 4.8242251737600625 L9.72285045672001 4.843526320760027 L9.765431836720012 4.837247634760111 L9.775405387719928 4.848022170760039 L9.783828645719922 4.887580479760096 L9.789823111719926 4.903109247760007 L9.79416393272001 4.908251052760001 L9.803258984719974 4.914658930760062 L9.819795442719993 4.921299351760048 L9.82749523171995 4.925872716760104 L9.831370964719923 4.932435623760064 L9.830750846719951 4.956671869760051 L9.810286979719962 5.019794631760028 L9.80863333371994 5.038682367760039 L9.81225068372001 5.057931838760062 L9.821035677720005 5.075889399760065 L9.83488496171995 5.0911339467601024 L9.842739778720016 5.0955781197600984 L9.870645052719993 5.103200393760069 L9.877724723719922 5.108523065760018 L9.885114453719922 5.124594436760084 L9.890282096719915 5.131932489760068 L9.94299205771992 5.1816710557600985 L9.958856722719958 5.212754429760032 L9.951725374719928 5.24559480276006 L9.782071647720016 5.365509963760054 L9.762641309719953 5.37473420676006 L9.740937207719952 5.373261428760067 L9.717062695719932 5.3664918157601065 L9.705280468719963 5.370470901760093 L9.671794140719982 5.423775140760064 L9.664146028719955 5.4327410027601175 L9.652002066719973 5.437211013760027 L9.623011588720004 5.435143956760079 L9.613089714720019 5.436849277760025 L9.538210563719957 5.475296543760074 L9.495990918719912 5.477880365760065 L9.429121614720003 5.449768386760134 L9.390260937719944 5.455246088760028 L9.343287060719916 5.483771478760083 L9.325045280719934 5.487543858760098 L9.31605358071991 5.486122756760018 L9.307475292719943 5.4826862737600734 L9.297966829719911 5.480309157760054 L9.265617383720013 5.485476800760132 L9.245050162719991 5.485011712760105 L9.204794222719983 5.48953340076006 L9.171462923719929 5.507852696760018 L9.145004590719935 5.536171381760035 L9.135402746719961 5.553194004760094 L9.125780957719911 5.5702519877600665 L9.144487825720006 5.67866914376004 L9.134565950719974 5.70771129776012 L9.12872651472 5.712310500760061 L9.102836621719945 5.728872797760069 L9.078341992719999 5.757734084760109 L9.044442252720017 5.779205642760054 L9.033590201719932 5.792667353760102 L9.03534720171993 5.812226882760122 L9.040514844719922 5.8200816997600455 L9.047697867719961 5.826644606760034 L9.056431185719958 5.831579706760074 L9.065009472719993 5.834602777760104 L9.071934114719994 5.838969436760074 L9.074517936719957 5.846540033760057 L9.076378288719951 5.8640841827601164 L9.086403515719923 5.897182936760011 L9.083302929719963 5.909456090760052 L9.071210644719969 5.9290672957600705 L9.018500684719953 5.99606578976006 L9.000827344719966 6.008493972760057 L8.95938284572 6.020767125760081 L8.939229036719922 6.031748367760066 L8.908843294719958 6.063994461760025 L8.890136425719987 6.101873285760128 L8.885278841719952 6.143240269760049 L8.89582083371991 6.18626089976005 L8.921710726719965 6.24217479876004 L8.925379752719977 6.2632071067600705 L8.92424287071995 6.284962885760059 L8.917266552719951 6.32772513376009 L8.91680146472001 6.370022292760076 L8.909153353719915 6.412293613760063 L8.908326529719915 6.43389436276005 L8.927911898719941 6.528565587760063 L8.959434521719999 6.604633295760017 L8.962070019720016 6.617604079760049 L8.958434797719946 6.62326238176005 L8.95612722972001 6.626854160760054 L8.908223177719975 6.6574982857600915 L8.881041374720013 6.682613031760106 L8.77159069071999 6.826790278760093 L8.757327995719976 6.8405362087601205 L8.742031770719933 6.848752761760046 L8.728905956719956 6.866684483760032 L8.697383333720012 6.891437494760062 L8.661313183720011 6.913451654760031 L8.634544791719946 6.923063471760038 L8.598267936719964 6.920893060760058 L8.56426484471993 6.930246494760105 L8.500806184720005 6.958048416760057 L8.461118684719992 6.96197582476001 L8.434556998720012 6.945956130760074 L8.388461621719983 6.889008701759998 L8.362726758719958 6.863273838760087 L8.355181999719917 6.848597732760005 L8.352184765720011 6.808186761760034 L8.34557018271991 6.795939448760102 L8.333064485719916 6.789841629760055 L8.276737174720012 6.78105663476007 L8.21834280671996 6.752737950760071 L8.184753125719936 6.741575840760028 L8.162377229719965 6.741885899760099 L8.138761100720018 6.748862217760099 L8.095456250719934 6.768499261760049 L8.076025911719995 6.781521722760097 L8.07948823271991 6.791391921760074 L8.09685151471993 6.797954828760062 L8.118710644719982 6.800952061760064 L8.178551953720017 6.79976350376004 L8.19787893971997 6.802037266760074 L8.207077344719977 6.811028965760109 L8.194106559719984 6.823534662760103 L8.17245413471997 6.834593419760104 L8.155297559719912 6.83929597476007 L8.118245557719973 6.834076654760061 L8.01334239971996 6.802037266760074 L7.973809928719987 6.799350091760125 L7.9342257817199595 6.800952061760064 L7.912314973719987 6.7981615347600055 L7.899912630719911 6.787619541760058 L7.889577343719935 6.774390375760056 L7.864100863719983 6.756665359760127 L7.842035026719913 6.746330072760038 L7.81640351671993 6.738630284760127 L7.795836296719955 6.739870518760064 L7.783020540719946 6.7530480087600395 L7.7617815277199895 6.795784418760071 L7.755617924719928 6.80542047376003 L7.750774446719987 6.812992670760032 L7.717753206719948 6.838985915759999 L7.712843945719982 6.847977614760033 L7.709536653719994 6.869113275760078 L7.703852246719947 6.876141270760094 L7.651348991719914 6.901100987760067 L7.634605827719923 6.912676508760121 L7.623340365719997 6.926319086760039 L7.612488314719911 6.931331700760076 L7.571973991719943 6.933192051760081 L7.541588249719979 6.928902907760126 L7.527945670719959 6.929367995760067 L7.499988721719973 6.941046869760022 L7.438442089719928 7.000371413760043 L7.405557662719929 7.020151989760059 L7.383975130719961 7.033134271760055 L7.353589388719996 7.043727940760029 L7.322738558719919 7.0464151157600625 L7.257781282719947 7.034064447760109 L7.226258658719956 7.034684565760081 L7.213391227719995 7.052357904760079 L7.220677604719953 7.0672923937600345 L7.235353711719966 7.082433588760047 L7.248376172720015 7.09974519376005 L7.254267285719919 7.138864252760079 L7.268736686720018 7.153747064760104 L7.288683789719954 7.1644440867601205 L7.308424186719918 7.169249994760044 L7.391571566719989 7.1597932077600674 L7.42764171572 7.169870111759998 L7.4323442707199945 7.2117796987600755 L7.422008984719952 7.230486566760085 L7.406712760720012 7.236532709760105 L7.366301790719916 7.235240798760067 L7.3500753907199226 7.239323236760079 L7.336226106719977 7.247953200760016 L7.323203646719918 7.258288487760133 L7.259434928719912 7.2934284617600795 L7.24093476571997 7.299319574760069 L7.18750133471994 7.307897862760093 L7.150604362719918 7.3215921177600265 L7.091176464720007 7.328465082760097 L7.0218783697199285 7.353838210760081 L7.003481559719972 7.356783767760085 L6.93945445971994 7.351771153760133 L6.887571321719946 7.35394156376001 L6.871034863719984 7.352287917760073 L6.850467643719952 7.34603506976007 L6.813984081719951 7.328620111760053 L6.794036979719948 7.323452468760031 L6.774141553719943 7.324227614760055 L6.735745963720007 7.332495844760082 L6.715488802719932 7.332185785760011 L6.692544466719966 7.328620111760053 L6.680142122720014 7.3251577907600804 L6.672545687719918 7.319886794760073 L6.671150423719979 7.311876947760091 L6.675181184719946 7.30583080576006 L6.680710563719941 7.299681309760082 L6.683242708719973 7.291516433760059 L6.681175651719997 7.269243891760006 L6.6740959807199545 7.2553946077600315 L6.659368196719953 7.248676671760116 L6.600560416719958 7.249813552760038 L6.563198356719937 7.259011957760016 L6.4957606117199305 7.287537348760061 L6.465891634720009 7.309809890760029 L6.442585563719973 7.332754226760052 L6.41679902371996 7.349755772760069 L6.378558463719941 7.35425162276011 L6.354270540719966 7.368721023760038 L6.3203708017199745 7.481427322760062 L6.301250520719947 7.5043716587600855 L6.207302766719948 7.587570714760098 L6.184771843719915 7.59620067776013 L6.04958629571999 7.619920160760081 L6.032636425719971 7.6278266547600495 L6.023541374719997 7.6416759387600806 L5.925252799719914 7.963155023760045 L5.9222038897199525 8.006718256760088 L5.939205436719959 8.046405756760073 L5.963390006719948 8.073432530760108 L5.9710381187199175 8.0862482857601 L5.976670849719966 8.10671215276006 L5.9790996427199445 8.127176019760107 L5.960289420719931 8.2592609817601 L5.962563183719936 8.319774082760041 L5.958170686719967 8.338946039760039 L5.893626823719927 8.452944248760026 L5.8790023927199115 8.490823073760119 L5.876573600719979 8.506687738760043 L5.882516389719996 8.520123611760063 L5.91770804071993 8.541414301760064 L5.958842480719937 8.57779450976006 L5.989641634719959 8.59846508276005 L5.997806511719915 8.607973546760043 L5.9940858077199834 8.612521072760082 L5.985714225719931 8.615001541760059 L5.979719759719984 8.617998773760071 L5.959049186719966 8.648849603760063 L5.93248749971994 8.679390375760057 L5.8529057947199306 8.729206455760085 L5.7677430347199845 8.750910557760086 L5.709658724720015 8.765690017760086 L5.651574413719942 8.780521152760123 L5.593386751719919 8.795248936760125 L5.535509147719921 8.810054234760067 L5.477424837720008 8.824807856760067 L5.419340527719925 8.839638991760076 L5.361307893719953 8.854392613760105 L5.30312023171993 8.869197911760104 L5.245087597719959 8.883977370760029 L5.187003287719932 8.898808506760055 L5.129022330719948 8.913587966760083 L5.070938021719968 8.928367426759998 L5.01306041771997 8.943121047760009 L4.954872754719958 8.95790050676002 L4.896788443719942 8.972705804760047 L4.838704134719961 8.987433588760048 L4.693648388719936 9.024382237760086 L4.64388398472002 9.02298697376009 L4.477589225719981 8.996657831760054 L4.341163444719911 8.995727655760085 L4.156754515719939 8.99434112276004 L4.1349744797199435 8.994177362760077 L3.865016797720017 9.064560663760098 L3.8298768237199567 9.080244460760078 L3.8070358407199762 9.106082676760089 L3.7706556327199507 9.16824942476007 L3.7433704757199564 9.177938756760092 L3.6292689127199367 9.134969802760033 L3.445197461719971 9.103963942760096 L3.22588268271997 9.067066970760074 L3.073230501719962 9.079572667760068 L3.0240862147199152 9.083603428760064 L2.975045280719911 9.087634190760078 L2.925952669719976 9.091664952760063 L2.87696341171997 9.095747390760074 L2.8279741547199535 9.09977815176007 L2.7788815437200185 9.103757237760057 L2.7298922857200125 9.107787998760053 L2.6809030277200065 9.111870437760054 L2.631810416719958 9.115901199760067 L2.582821158719952 9.119906122760035 L2.5337285487200063 9.123962722760048 L2.4847392907200003 9.12794180776013 L2.4356983567199393 9.132024245760029 L2.386657422719935 9.136055007760042 L2.337668164719929 9.140085769760027 L2.288627230719925 9.144116531760126 L2.2598586307200037 9.146474454760074 L2.134786491720007 9.15672558076006 L2.0317436847199986 9.139672357760112 L1.9367107267199515 9.113058995760078 L1.8535633467199943 9.089623733760114 L1.7702609387199288 9.066317661760088 L1.68690685272 9.042908238760113 L1.6038111497199168 9.019498814760063 L1.5205087407199187 8.996192743760027 L1.4372063317199775 8.972757481760063 L1.3539039227199225 8.949348057760098 L1.2707048667199103 8.926041986760062 L1.1875058107200118 8.902684239760113 L1.1042034027200032 8.879223138760047 L1.021004346719991 8.855917067760096 L0.937701937719936 8.832533482760063 L0.8545028817199238 8.809201573760113 L0.7713038257199116 8.78581798876008 L0.6878980627199951 8.762382725760098 L0.6046990067199829 8.739024978760064 L0.5332821777199399 8.719026198760112 L0.5016562017199533 8.706365472760076 L0.5594304527199654 8.647661046760028 L0.6353948087200081 8.570404779760032 L0.6357048667199763 8.570146397760062 L0.7903207517199178 8.410259516760028 L0.8728996917199368 8.32483837376001 L0.9294337087199835 8.2662372997601 L1.037644156720006 8.154254470760073 L1.1189828617200135 8.070021886760067 L1.2334978357199304 7.95064932776004 L1.359898389719973 7.819029454760091 L1.4424773277200131 7.733143223760045 L1.459530550720018 7.717485264760093 L1.4570500817199274 7.712162591760041 L1.4557064947199763 7.711077387760049 L1.4571534347199702 7.693042312760049 L1.4596339027199576 7.6860143177600335 L1.4656283687199618 7.683120436760056 L1.4618043137199663 7.614804194760104 L1.4574634937199846 7.603125320760121 L1.476583773719966 7.570620844760079 L1.4837151207200066 7.549588536760076 L1.4836117677199638 7.529951491760137 L1.478754182719939 7.510056065760132 L1.466558544719959 7.477396560760049 L1.4490919117199894 7.445615554760032 L1.4466114427200125 7.435228591760087 L1.44495779671999 7.405928053760057 L1.436482861719952 7.38344880676005 L1.4097144697200008 7.345414952760088 L1.3999993007199407 7.325002761760068 L1.3995858897199298 7.305107334760045 L1.4065105307199417 7.262164219760088 L1.3995858897199298 7.24366405776005 L1.3638257977200112 7.204700027760062 L1.3441887537199761 7.191367507760056 L1.3184538897200184 7.182634190760076 L1.2635361287200055 7.175802794760081 L1.1481283697200126 7.161446853760033 L0.9520679857199355 7.1369005477600425 L0.7824261477199741 7.115656926760046 L0.78081228872 7.1154548287601145 L0.6132772957199961 7.0944741977601 L0.5123015467199536 7.081813471760064 L0.47902192372001196 7.069876214760036 L0.46723969771991847 6.9761868437600825 L0.4522535327199364 6.927869378760057 L0.4498764167200022 6.904459955760082 L0.46258881871997914 6.830562656760016 L0.4487395347199765 6.73801016676007 L0.4465691247200141 6.689589349760105 L0.4540105307200122 6.627784336760108 L0.4522535327199364 6.606080235760011 L0.4483261237199656 6.595383214760012 L0.4433651867199444 6.585564692760052 L0.4412981287199784 6.575281082760064 L0.4498764167200022 6.553266921760077 L0.4439853027199945 6.547634190760029 L0.4356137207199424 6.543500076760019 L0.4322030767200147 6.537350580760041 L0.43995454171991355 6.522002680760075 L0.46610281572000645 6.493373936760101 L0.4720972817199538 6.4766824497600695 L0.48553315472000236 6.397100743760127 L0.48760021171992207 6.315658685760106 L0.4535971197200013 6.208636794760032 L0.4095687997199491 6.069963088760041 L0.36895112371999517 5.954233718760101 L0.3321575037199125 5.848942987760104 L0.2973275887199236 5.749026605760044 L0.2634278487199424 5.652184972760047 L0.2347991057199863 5.570200312760058 L0.22022635172001515 5.506276564760078 L0.21877941071991813 5.427237461760122 L0.22487722971996504 5.4132589867601055 L0.27324637171992094 5.3583527777601105 L0.32760997771995903 5.296831984760082 L0.3762891767200074 5.241512363760059 L0.4143230317199311 5.198207514760078 L0.44315847971998323 5.1767617947600755 L0.475921338719985 5.159656895760101 L0.4863599777200136 5.148262241760115 L0.49194103271995004 5.128289301760084 L0.49008068072001265 5.111081048760106 L0.4865666827199391 5.0944154007600915 L0.48946056371997315 5.080049351760074 L0.5071339037199607 5.0701791527600975 L0.5545728687199301 5.06751781776007 L0.5693523277199404 5.063021966760068 L0.5770657917199458 5.051973563760022 L0.5781373207199465 5.0504387567600375 L0.5692489747199545 5.036098546760037 L0.5524024577199782 5.023411981760098 L0.5368995287199425 5.01584138476003 L0.5033098467199295 5.008761712760027 L0.46465587572001255 5.006384596760064 L0.39117198871994674 5.009691888760081 L0.3128305177199593 5.004653437760091 L0.23211193071992398 4.976748163760028 L0.1690666837199899 4.926156936760073 L0.14415864371991916 4.853163975760033 L0.1522201667200136 4.820426956760038 L0.183122672719918 4.762394322760066 L0.1852930837199267 4.723094395760093 L0.15666433971992433 4.570287184760083 L0.14573817871999495 4.483616762760086 L0.1440552897200007 4.470267450760112 L0.15004975571994805 4.425515660760034 L0.17816173571995364 4.378412592760135 L0.2096843597199438 4.344487014760041 L0.2447209807199613 4.314282139760117 L0.29226329771998394 4.29332734676013 L0.3078695807199381 4.279193841760083 L0.30094493871993677 4.2579031527601 L0.3716382977199544 4.254414993760044 L0.47323416371992266 4.2492731877600605 L0.547751578719982 4.245629999760077 L0.5363827647200026 4.2268972927600785 L0.46217540671992197 4.147057204760081 L0.44636241871992866 4.121063959760029 L0.4366472497199254 4.109462600760061 L0.42455496471993115 4.100393386760096 L0.400060335719985 4.091091628760076 L0.39117198871994674 4.084115310760076 L0.38259370171991236 4.060266636760112 L0.3761858237199647 4.053393671760041 L0.3676075367199303 4.049414585760054 L0.3569621907199405 4.048148513760118 L0.3716382977199544 4.027116205760002 L0.39654633872001455 4.016522536760029 L0.4513233567199961 4.010424717760067 L0.4762313967199532 4.004636957760091 L0.4957650887199918 3.9936298777601067 L0.5411369957199952 3.9508417917600767 L0.5462012867199917 3.942883620760007 L0.5527125167199358 3.9362173607600894 L0.566148388719995 3.929861160760062 L0.5801010257199835 3.9280008087600677 L0.593123486719918 3.9288793077601056 L0.604802360720015 3.926553868760074 L0.61524099971993 3.9151333767600605 L0.6192717617199435 3.89079377676007 L0.6159644697200122 3.8649555617600484 L0.6172047047199669 3.8413394317601117 L0.6352914557199654 3.823924473760094 L0.666917431719952 3.803563959760062 L0.6863477707199479 3.7748318627600455 L0.6920321787199839 3.758295404760055 L0.7227279787199166 3.7498204697600457 L0.7306861497200146 3.71685090576009 L0.7350269707199857 3.681504226760076 L0.7343034997199709 3.6728225867600273 L0.7298593267199465 3.6542190697600816 L0.7288257977199635 3.6439871367599963 L0.7320297367199657 3.6314297637600887 L0.746189079719926 3.6126195417600755 L0.749289664719953 3.603059402760074 L0.7525969567199411 3.583525710760064 L0.7671697107199122 3.5460086207600696 L0.7731641767199164 3.5046674747600335 L0.7803988777199891 3.49035310376005 L0.8045834477199776 3.4624478307600626 L0.7940414547199168 3.4533527777601094 L0.7924911627199833 3.4451362257600593 L0.7951783367199425 3.4362478787600494 L0.7971420417199795 3.424879063760052 L0.7943515147199207 3.4206415957600953 L0.758798128719917 3.3813158307601228 L0.7536304857199241 3.3713422807600253 L0.7596249517199851 3.3668464297600806 L0.7696501797200028 3.3625056107600315 L0.7700635917200032 3.3528937937600247 L0.7652060067199784 3.3432819777600926 L0.7596249517199851 3.338941156760008 L0.7589014817199597 3.3292259877600614 L0.7597283047199141 3.307883620760073 L0.7656194177199893 3.2865929307601007 L0.7799854657199887 3.2768777617600406 L0.8012761557199894 3.2764643507600297 L0.8251506677199529 3.2731570587600416 L0.8443743007199771 3.264165359760092 L0.8523324717199614 3.2464403427600885 L0.8476815927199652 3.194970616760095 L0.8523324717199614 3.174455072760118 L0.858120231719937 3.1633963167600214 L0.8791008627199233 3.140296950760053 L0.8845785657199201 3.130065017760053 L0.8932602057199404 3.098697422760047 L0.9043189617199516 3.079473789760108 L0.9277800617199716 3.056116042760074 L0.9411125817199775 3.037254144760034 L0.9473137537199534 3.016480219760105 L0.9448332857199091 2.996274733760096 L0.9342912927200189 2.955347000760078 L0.9269532397200066 2.946045242760057 L0.9405958177199238 2.94191112676004 L0.9929957197199712 2.933642898760077 L1.0014706547199523 2.933642898760077 L1.008808708719954 2.936743483760047 L1.0182138187199428 2.9435130967600642 L1.0173869957199884 2.946148594759997 L1.008808708719954 2.957414056760065 L1.0212110517199164 2.966302403760075 L1.022761344719953 2.966044021760105 L1.0249317547199723 2.96656078576013 L1.040744743719955 2.9780846297600547 L1.041158154719966 2.9824254507600543 L1.0372307457199952 2.993225824760067 L1.0375408037199634 2.9972049097600646 L1.0441553877199397 3.0050080507600754 L1.0504599127199583 3.010950841760099 L1.058521435719996 3.014723220760125 L1.0698902507199648 3.0162218367600317 L1.0765865867199693 3.0186526987600715 L1.084979769719979 3.021699539760114 L1.1499887217200069 3.0703787387600485 L1.195980745719936 3.11223664876011 L1.262023226719947 3.1339407507600257 L1.3968987147199243 3.150787266760098 L1.456326611719959 3.1470665637600703 L1.5766293457199652 3.112701736760137 L1.6350237147200062 3.1136319117600024 L1.6647376627200003 3.1256208437600677 L1.6910926437199407 3.1405553327601083 L1.7936186857200198 3.2231859487600687 L1.8211622237199947 3.2383788197600794 L1.876300976719989 3.2582742467601022 L1.890977083719946 3.270779942760079 L1.9016224287199464 3.286489577760058 L1.9084953947200063 3.304162917760074 L1.9098906577200125 3.3217329047600472 L1.9082370117199332 3.3621955507600276 L1.914128125719941 3.377388422760056 L1.9329900237199524 3.4135102477600654 L1.9434803387199224 3.423897211760085 L1.9592933267199157 3.4170242457600253 L2.056600049719947 3.30860709076007 L2.0891562017199874 3.2839057567600562 L2.1161829757199655 3.28266552176013 L2.1818637207199174 3.3323782497600476 L2.192767448719934 3.337184158760131 L2.2027926757199623 3.336512364760047 L2.212714550719994 3.334135248760113 L2.2234632487199804 3.333773513760015 L2.252918815719994 3.3439537707600735 L2.261807161719929 3.3451423287600974 L2.278343620719994 3.3418350377600987 L2.3508973307200165 3.316151850760015 L2.365883496719988 3.3085037377600557 L2.378905956719933 3.2981167747600253 L2.3915150067199704 3.283802403760042 L2.4177666347199818 3.262098301760041 L2.4803409277199364 3.237030018760045 L2.4848426437199294 3.2352265577600363 L2.5754831057199397 3.1763671007600536 L2.642559114719944 3.149960443760058 L2.6628162767199512 3.14613638776013 L2.7043641277199697 3.1431908317600303 L2.7241045257199232 3.1389533637600735 L2.737488720719938 3.127481195760062 L2.7435348637199866 3.1088776797601057 L2.7477723307199255 3.0709988547600133 L2.758004264719915 3.039579583760066 L2.7544902677200014 3.0290892687601243 L2.7378504557199506 3.018030512760113 L2.734646516720005 3.0057831977600884 L2.7322177257199485 2.9547268827600206 L2.7339230477199123 2.9398440707600813 L2.760433056719961 2.9185017037600645 L2.8371725587199705 2.89808951276013 L2.8649744797200185 2.8813463487600828 L2.870865592719923 2.872251296760119 L2.8716924157199344 2.8652749777601016 L2.8666281257199273 2.860055658759997 L2.841203320719927 2.852200840760055 L2.834537061719942 2.84765331476013 L2.8205327487200123 2.832253737760034 L2.7693214037199994 2.794633295760015 L2.7629652027199825 2.781662510760107 L2.7585727057199563 2.763989170760091 L2.7485991537199936 2.751225091760041 L2.7416745117199923 2.738461013760066 L2.7459119797199207 2.7211494087600627 L2.761363232719958 2.7080752717601015 L2.7825505707200193 2.7043028917600864 L3.0002117027199517 2.7082819767600554 L3.0874931967199757 2.693502517760045 L3.1683668137199277 2.6627033637600803 L3.1831979497199825 2.651851312760108 L3.2068657557199174 2.625496331760054 L3.2207150387199306 2.613920811760103 L3.2393702307199135 2.605497552760035 L3.2595757167199224 2.60188020276005 L3.382979036719945 2.595679030760074 L3.4231833007199555 2.5872557727600807 L3.5171310547200108 2.5424523057601007 L3.547103385720021 2.53490754676006 L3.5636045597199484 2.5328117387601097 L3.579246126719994 2.530825108760048 L3.6072547527199674 2.535682693760073 L3.702391064719933 2.5658100527600496 L3.7028561527199315 2.5532526807601315 L3.693657747719982 2.5059687447600894 L3.693502718719998 2.488140375760061 L3.701925977719924 2.4722240337600354 L3.714535026719915 2.4593049267601046 L3.7806291827199914 2.418480544760037 L3.8159758637200127 2.4042695267600678 L3.853182893720003 2.39863679476003 L3.894420687719929 2.404114496760009 L3.911008821720003 2.4096955517600307 L3.923411165719955 2.412072666760089 L3.9333330407199867 2.405303054760033 L3.9491460297199694 2.3650987907601078 L3.960928255719949 2.353006504760124 L3.9762244797199457 2.3447899527601024 L3.994517936719916 2.338588780760098 L4.068156852719909 2.3246878207601256 L4.101849886719975 2.3145592397600936 L4.1349744797199435 2.2929068147601086 L4.155438346719933 2.2731147407600147 L4.233934847719951 2.1749295187600595 L4.251659863719993 2.1403579857600405 L4.263132031720005 2.103461013760132 L4.267782910719944 2.063618484760106 L4.2650440597199974 2.0428962347600716 L4.250988069719909 2.0047073517600964 L4.246285514719915 1.9842951607600483 L4.246078809719933 1.9640896757600572 L4.2492827477199455 1.9434707797600552 L4.262098502719908 1.9039899847601092 L4.278634961719916 1.8719505977600264 L4.385826127719923 1.7139745357600944 L4.422502148719985 1.6599221947601066 L4.4360413737199735 1.6260741327600172 L4.431907259719964 1.5869550727600839 L4.412890332719968 1.5109132027600438 L4.4174378587199215 1.471923334760028 L4.4360413737199735 1.446498529760028 L4.465186881719973 1.429031895760069 L4.646364453719997 1.3508712917600363 L4.720365104720003 1.331311761760027 L5.145199277719968 1.3225466147600926 L5.158684603719934 1.3222683867600793 L5.194134635719962 1.307437249760035 L5.240436718720019 1.2564842877600952 L5.268548698719968 1.2334882767600632 L5.281364453719931 1.219406447760015 L5.286738802720009 1.1991234487600266 L5.286170361719968 1.1770059357601 L5.2782638677199145 1.1341403347600547 L5.28301809972001 1.1117386017600737 L5.293043327719914 1.090447911760073 L5.30544567071999 1.0707075147600236 L5.305549023719919 1.0706041607600767 L5.305600700720021 1.0703974557600375 L5.315987662719948 1.0542744087600582 L5.3261162437200085 1.0439907987600705 L5.338311882719921 1.0381513627600683 L5.355571810719908 1.0351282907600492 L5.396706250719973 1.0354900257600619 L5.409935416720003 1.0266791937600672 L5.416136588719979 1.0004275657600274 L5.418720410719942 0.9861648707600423 L5.433809928719967 0.9916425727600497 L5.4537570317199595 0.9952082467600931 L5.461611849720015 0.9992390087601066 L5.478355013719948 1.0293663677600833 L5.486364860719931 1.0389265087600918 L5.49334117871993 1.0453860627600378 L5.512461458719912 1.05659984776009 L5.73694388072002 1.123675857760027 L5.755133984719947 1.1361298777600908 L5.7828842287200075 1.1658438257600565 L5.8001958337199255 1.1794864037600874 L5.820349641720014 1.1876512807601003 L5.831925163719944 1.1890465447600675 L5.864998079719925 1.1876512807601003 L5.875746777719968 1.1897441767600654 L5.889802767719942 1.1991234487600266 L5.89915620171999 1.201242182760076 L5.908125214719945 1.2048940607600755 L5.915020866719914 1.2077017367600504 L5.931660677719918 1.2212667997600377 L5.951711132719964 1.2333332467600044 L5.977962760719919 1.2354003047600557 L6.046899121719974 1.217365228760066 L6.070773633719938 1.214910598760106 L6.080902213720009 1.218863845760076 L6.0959400557199785 1.2366405387601063 L6.10834239971993 1.2416014757600422 L6.118729362719961 1.24010285976005 L6.127204297719942 1.2347801867599983 L6.142500521719938 1.2211376087600812 L6.160173860719937 1.2088902937600565 L6.176865348719986 1.2003636827600488 L6.196295687719925 1.1954544217600258 L6.221875520719976 1.1938524517600868 L6.245853385719926 1.1960745397600832 L6.311947542719935 1.218398757760049 L6.324298209720013 1.2202332717600441 L6.351376660719978 1.2211376087600812 L6.362022005719979 1.2180111837600478 L6.381710725720012 1.2043944447600339 L6.392252718719959 1.201242182760076 L6.523045768719925 1.1966171417600222 L6.614926464719957 1.1793313747601317 L6.663192252719995 1.1801581977600577 L6.681382356719922 1.1870570017600315 L6.721379915720007 1.2099754997600556 L6.742360547719926 1.214910598760106 L6.754659537719959 1.2239539747600716 L6.7711959967199675 1.2673621777600559 L6.780601107720003 1.282580886760094 L6.800754915719978 1.292683629760127 L6.8450932947199306 1.3063003687600272 L6.865247103720009 1.3210798287600554 L6.875272330719923 1.3382880797600265 L6.882558708719927 1.3568399197600698 L6.894030875720006 1.372136143760038 L6.916406770719988 1.3793966827600812 L6.938730989719971 1.375882684760036 L6.976868196719948 1.3561164497600728 L7.002499707719977 1.3515172467601033 L7.026787630720008 1.3498636017600703 L7.048440055719965 1.3449543407601325 L7.068542187719942 1.3366344347600787 L7.0883859377199485 1.3247746937600553 L7.121252148719947 1.2982646847600634 L7.13964895871996 1.2871800897600352 L7.16042288472002 1.282580886760094 L7.183418896719928 1.2916501007600587 L7.2022807947199965 1.333017084760094 L7.218662223719917 1.3446442817600612 L7.229462597719959 1.3413886667600607 L7.237214062719971 1.3318802027600682 L7.243311881720018 1.3219324897600657 L7.2495647297199355 1.317359125760028 L7.2600033697199535 1.316273920760132 L7.279071972719947 1.311623041760079 L7.290440788720019 1.3104861597600816 L7.301912955719928 1.3133283637600428 L7.323720410719972 1.326531691760131 L7.334779166719983 1.3310017037600588 L7.347439892720018 1.332293614760097 L7.383148307720006 1.3310017037600588 L7.403870556719966 1.3351358177600687 L7.421543896719953 1.3436624297600943 L7.433274446719935 1.3569949487600255 L7.437821973719991 1.3756759797600822 L7.4292436857199675 1.439573887760055 L7.430328890719949 1.4545600537600265 L7.442627880719982 1.4679959257600572 L7.465313835719968 1.4813026067600745 L7.490170199719984 1.4914570257600488 L7.535387077720003 1.5001128287600878 L7.549236360719959 1.5125151717600502 L7.55977835372002 1.530162673760067 L7.575694694719942 1.5507298937600424 L7.586546744719982 1.558300490759997 L7.61021455172002 1.5682998807600157 L7.619102897720012 1.5746044057600344 L7.653467724719945 1.6087625277600992 L7.6593071617199655 1.6170565947600792 L7.663337923719922 1.625867425760056 L7.668402213719929 1.6336705667600668 L7.677497266719996 1.6388640487600767 L7.682097190719929 1.6390256167600583 L7.690002962720001 1.6393032987601046 L7.701991894719953 1.635324213760022 L7.712223828719942 1.629898188760059 L7.778369661720006 1.58426789776005 L7.790668652719916 1.5780150507600652 L7.809272168720014 1.5717622017600732 L7.825240186719924 1.558455520760056 L7.843688671719946 1.546234044760105 L7.869836946719971 1.543288487760016 L7.911023063719966 1.5543214057601134 L7.935052604719971 1.554476434760069 L7.945594596719928 1.5401362257600582 L7.9388766607200125 1.4980716097600535 L7.938049837720001 1.4778919617600437 L7.945594596719928 1.4613296657600543 L7.964559847719983 1.4503225857600697 L7.983938509719934 1.4515111437600936 L8.00336884871993 1.4576348017600438 L8.023109244720018 1.4613296657600543 L8.04915416771999 1.4591075797600652 L8.068739534719981 1.45117524676008 L8.07530244171997 1.4362665967600563 L8.060988069719912 1.4129088487600043 L8.123051465719954 1.4091881457600905 L8.170593782719976 1.40055818176004 L8.181135774719934 1.3998863887600592 L8.190024121719972 1.395545567760088 L8.203821728719987 1.376321934760064 L8.208730989719953 1.3719294377600662 L8.228678093719935 1.369836541760101 L8.26609183072 1.3604572697600545 L8.284178581719942 1.3582868607600531 L8.288054313719982 1.350716262760109 L8.293687044719917 1.3346190537600435 L8.30588268272001 1.3201754917601036 L8.328516959719963 1.317359125760028 L8.32272919971993 1.3051634877601046 L8.319938671719939 1.3008226677600376 L8.314822705719934 1.2968694207600677 L8.326139843719915 1.286249913760095 L8.34422659471997 1.28552644276008 L8.383190625719948 1.2900222927600922 L8.403809521719921 1.288316970760043 L8.416883659719957 1.28929882276001 L8.428562532719951 1.2938205107600496 L8.465769563719988 1.312914952760032 L8.47765514372 1.3136384227600288 L8.481892611719928 1.303923252760093 L8.479308788719976 1.282580886760094 L8.467474886719941 1.2524535267600996 L8.471092236720011 1.2411363877600436 L8.493106396719924 1.2354003047600557 L8.514035351719912 1.239637771760023 L8.525300814719941 1.2524018497600835 L8.534292513719976 1.2684473817600477 L8.547573356719994 1.282580886760094 L8.561991080719935 1.287851882760016 L8.573101514719923 1.2854747667600819 L8.578424186719957 1.276586419760072 L8.57491018971993 1.26211701876003 L8.570259310719933 1.2577761997600376 L8.55403291071994 1.2480610297601018 L8.547573356719994 1.2416014757600422 L8.542354036719956 1.229715896760105 L8.545144564719948 1.2264086047600316 L8.550932324719923 1.2273904577601016 L8.55444632271994 1.2285790147601077 L8.622710889719912 1.2354003047600557 L8.642502962719988 1.2441852977600618 L8.662760124719995 1.2590164337600882 L8.678314730720018 1.276586419760072 L8.693042513719917 1.3129666287600585 L8.712886263719923 1.3274360297600722 L8.73567557072002 1.3393732857600256 L8.753710644719916 1.3515172467601033 L8.77159069071999 1.3870706327600786 L8.780892448719982 1.395338861760031 L8.803009961719994 1.4075861757600663 L8.808280957719916 1.4094982047600766 L8.90295218171994 1.4606578727600734 L8.923054313719916 1.4591334167600465 L8.942898063719923 1.451614496760108 L8.965894176719956 1.4476620397600257 L8.969356396719917 1.4470669707600692 L8.98119030071993 1.4435529727601093 L8.99204235071997 1.4354914497600433 L9.008113721719923 1.4204019317601322 L9.048473014719917 1.3998863887600592 L9.065009472719993 1.3870706327600786 L9.09942597771996 1.3409235787600338 L9.102474886719989 1.32813366176007 L9.084129752719974 1.3250847517601372 L9.067128206719957 1.3188835797600476 L9.075189729719938 1.2968694207600677 L9.066973177719916 1.2878002057601137 L9.06035859371994 1.2533837027600683 L9.051883658720016 1.2384750517599983 L9.046716015719909 1.2316279247600406 L9.043718783719925 1.223023798760103 L9.042168489719955 1.213644525760067 L9.041755078719945 1.2043944447600339 L9.043098665719953 1.2013972107600424 L9.045785839719969 1.2007770947600491 L9.048162955720016 1.199226801760041 L9.048473014719917 1.1938524517600868 L9.04557913471993 1.18943411676009 L9.036225700719939 1.1874187367600442 L9.034313672719946 1.1838789007600568 L9.033590201719932 1.1456900177600815 L9.035657259720011 1.1271381777600666 L9.041755078719945 1.111273513760132 L9.046922721719994 1.105744135760041 L9.061288769719994 1.0976826117600424 L9.068988558719951 1.0920240427601087 L9.072864290719934 1.0870372667600705 L9.07906546271991 1.0750483347600053 L9.08268281271998 1.0702941027601085 L9.127021192719923 1.0444042097600814 L9.148725293719934 1.0275576927601051 L9.165933544719934 0.9855705927600766 L9.185932324719971 0.9785167587600725 L9.322254753719989 0.9883869577600493 L9.344578971719926 0.9849504747601046 L9.386850293720016 0.9704552347600739 L9.411551628719934 0.9678714137600721 L9.419509798719929 0.9687499137600994 L9.441730664719927 0.9741242627600641 L9.449120393719937 0.9784392447600467 L9.459507356719968 0.9830384467599984 L9.469945996719929 0.9786976267600167 L9.480281283720018 0.9715921167600996 L9.490203157720003 0.9678714137600721 L9.51056367271994 0.9633238887600513 L9.552524934719969 0.9463740177600428 L9.576089388719964 0.9474075467600258 L9.59252249471993 0.9588797147600374 L9.601824251719933 0.9748477327600611 L9.612676302719962 0.9890587517601332 L9.633863639719976 0.9952082467600931 L9.646782747719982 0.997223627760043 L9.651950390719975 1.0022879177600217 L9.655774446720017 1.0089541777601383 L9.66146496071994 1.0131735637600983 L9.66486949971997 1.0156979517600817 L9.674171256719916 1.018565993760042 L9.705280468719963 1.0231135207600985 L9.698975944719933 1.0156979517600817 L9.72646780671991 1.019341140760055 L9.756336784719934 1.0279711047601054 L9.786412467719998 1.0322602487600605 L9.815144563719997 1.0231135207600985 L9.849974479719975 0.9885161487600911 L9.856692415720005 0.9852605327601012 L9.85922456071998 0.9765530537600355 L9.87374563872001 0.9474075467600258 L9.875709343719933 0.947097487760125 L9.894932975719911 0.9464256947600589 L9.898240267719956 0.9474075467600258 L9.90335623471995 0.9432734327601011 L9.905578320719968 0.9412063747600499 L9.911211051720016 0.9337391307601095 L9.91250296271997 0.9270728707600782 L9.911159375719961 0.9179519807601153 L9.910849316720004 0.9099679717600466 L9.914983431719946 0.9064539747600762 L9.919841015719925 0.903663446760028 L9.932398388719974 0.8890648547600577 L9.93431041671991 0.8765591577600631 L9.937824414719927 0.8684976347600823 L9.940356559720016 0.8597126407600868 L9.939168001719992 0.8449848577600747 L9.929039421719978 0.8158393497600755 L9.926869010719969 0.8019125517600756 L9.932398388719974 0.7903628697600382 L9.922838249719945 0.783334874760051 L9.913794873719922 0.7727412047600595 L9.907128613720005 0.7596670677600983 L9.904441438719942 0.7453785347600288 L9.897620150719916 0.7369811147600345 L9.864753938719986 0.7289195907600643 L9.853281771719963 0.7246304467600808 L9.836435254719987 0.7037531687601088 L9.822482617719999 0.6746334987601088 L9.817780062720004 0.6438860217600464 L9.82940725972 0.6184612167601315 L9.84950939171992 0.6316645447600209 L9.871988639719945 0.6352818957601087 L9.89539806371991 0.6321813097600639 L9.918807487719988 0.625256667760091 L9.910952669719933 0.6171434677600942 L9.907438672719962 0.6089269157600441 L9.907697054719932 0.6004003037601322 L9.911211051720016 0.5911502227601275 L9.918187370720005 0.5880754747600818 L9.929969597719918 0.5863701527600327 L9.941028353719929 0.5826752877600327 L9.94598929071995 0.5737352647600815 L9.951053581719947 0.5684384307600467 L9.955860655719931 0.5664098037600596 L9.975238151719992 0.5582323347600848 L9.983558056719943 0.5532713977601205 L10.028464876719937 0.5062458447600662 L10.072648225719973 0.4700206647600922 L10.083241895719965 0.4638970087600356 L10.117348340719929 0.452295648760078 L10.127580273719985 0.44402741976004023 L10.139879264719951 0.42718090276006393 L10.165820833720005 0.3720421497600981 L10.195224723719974 0.32648937476009365 L10.204474804719979 0.3018913927601332 L10.216670442720016 0.2963620147601276 L10.230313021719923 0.2934939727600536 L10.24033824971994 0.2894632107600401 L10.253877474719928 0.2553567647600872 L10.253980826719925 0.2469593457601107 L10.252843945719945 0.23675324976012035 L10.253050650719985 0.2263662867600047 L10.257288118719913 0.21747794076009797 L10.266589876719962 0.21334382576007016 L10.289379183719944 0.21442903076005138 L10.298629264719949 0.2103465937600575 L10.333975944719981 0.18962434376002335 L10.342037467719962 0.17789379376012704 L10.322142041719957 0.16590486176009023 L10.322142041719957 0.1591352487600446 L10.340590527719968 0.14996268176003724 L10.399088249719938 0.14510509776003033 L10.411490592719957 0.12807771276010982 L10.418363558720017 0.1210238797600951 L10.43453828171991 0.11807832376008065 L10.46616425772001 0.11818167576010552 L10.475259310719963 0.11955110176007366 L10.491382356719924 0.12394359876007144 L10.500322379719961 0.12438284776008146 L10.507091992719921 0.12172151176006452 L10.510864372719965 0.11712230876003815 L10.51660045572001 0.11288484176007074 L10.528279329719993 0.11133454876006255 L10.569517122719986 0.1268891547600859 L10.593494987719993 0.13154003376005363 L10.60403697971995 0.12130809976006418 L10.600729687719962 0.09859630776009709 L10.60801606471992 0.09149079876005572 L10.631322135719955 0.09087068075999838 L10.64408621471992 0.09363537076013273 L10.655506705719944 0.0988805287600556 L10.665841992719919 0.10596019976009785 L10.675918897719981 0.11471935576006587 L10.681861686719998 0.1226258497600341 L10.690233268719993 0.1408934677600726 L10.696744498719937 0.14921337376004118 L10.70707978571997 0.15587963276005468 L10.714417838719925 0.15551789876005984 L10.722220980719982 0.1527273707600969 L10.734261589719921 0.15236563575999895 L10.746663932719997 0.15469107576013386 L10.774672558719914 0.16590486176009023 L10.813223177720005 0.1883324327600704 L10.874976514719975 0.23871695476007204 L10.957400423719974 0.265847081760036 L10.991661897719979 0.2838821557601321 L11.015433056720013 0.31328604576001595 L11.021789258719963 0.3577277777600969 L11.016363232719954 0.380439569760064 L10.998224804719968 0.4236152287601058 L10.99181692772001 0.4528640897600624 L10.97331676472001 0.4812602897600655 L10.95967418671998 0.5222138617601004 L10.929908561719998 0.5665522407601387 L10.923190625719968 0.5920028837600526 L10.913062044719908 0.6146629997601067 L10.91182181072 0.625256667760091 L10.915542513719998 0.6380724237600717 L10.92081350971992 0.6401911567600465 L10.928461621720004 0.6383566437600408 L10.939106966720004 0.6395452017600647 L10.97703746772001 0.6639623157601093 L10.998431511719929 0.6712486927600949 L11.018275260720003 0.6625153757601154 L11.03646536471993 0.6516116487600598 L11.158473421720004 0.6183320257600045 L11.194336865719919 0.6200890247600697 L11.224619255719944 0.6364704537601327 L11.255004997719908 0.6661844017600984 L11.24756359171991 0.6731090447600891 L11.250664176719937 0.6852013297600834 L11.252317822720016 0.7070087837601093 L11.251490999719948 0.7307799427600585 L11.24756359171991 0.7488150177600588 L11.231957308719956 0.766540033760073 L11.195060335719944 0.7855052847601272 L11.186792106719992 0.8034111677600961 L11.188445752719957 0.8127904407601321 L11.197540804719921 0.8340294537600315 L11.199814567719926 0.8449848577600747 L11.19816092171996 0.8548292177600629 L11.186792106719992 0.8859642687601266 L11.18203787472001 0.9168150987600043 L11.179350700719993 0.9269178417600656 L11.174493115719969 0.9353152617600315 L11.162400830719974 0.9485444277601189 L11.158783480719961 0.9542029977600706 L11.15444265971999 0.9979987737600666 L11.168498649719908 1.0786656847600753 L11.158783480719961 1.1187665957600714 L11.147518018719921 1.1411683297600703 L11.144417431719972 1.155456863760044 L11.151962190720013 1.1938524517600868 L11.15382254271995 1.236020420760049 L11.151135368719991 1.2570010527601383 L11.145140902719987 1.2695584257600458 L11.14431407871993 1.2974895367600325 L11.107417105719918 1.3478740587601195 L11.11103445671992 1.3719294377600662 L11.10410981471992 1.3809469757600326 L11.098322054719944 1.396114008760044 L11.090467236720002 1.4371967717600924 L11.088400179719969 1.4975548457599999 L11.090467236720002 1.509802158760131 L11.09646170271995 1.5204475047601207 L11.113721631719926 1.541996576760063 L11.11723562872001 1.5538046417600881 L11.11723562872001 1.5947582147600272 L11.120336214719913 1.6164623157600104 L11.12901785471999 1.6344973907600107 L11.185758577720009 1.7083946887600874 L11.195783805719913 1.7284451447600375 L11.202605094719985 1.7745405217600663 L11.210149854719958 1.794952712760086 L11.22120861071997 1.8138662867600388 L11.234644482719915 1.8312812447600848 L11.268337516719924 1.859703282760087 L11.310298779719943 1.8775316517600302 L11.357220980719916 1.8859032337600254 L11.405796826719921 1.8859032337600254 L11.454889437719913 1.878461827759999 L11.493853467720015 1.8653876907600377 L11.783964958719963 1.691806553760081 L11.810113232719942 1.6688363797600303 L11.844116324719977 1.6531525827600788 L11.853211377719987 1.6455561467601072 L11.867680778719915 1.627934483760022 L11.877602653720004 1.6189944607600992 L11.917083447719932 1.5972386827600715 L12.018265902720003 1.5642691187600306 L12.063224397720006 1.5568793897601054 L12.13226411171999 1.5670596467600788 L12.165957145719943 1.5534687447600746 L12.314991976719938 1.5357178907600613 L12.32388032271993 1.5262094267600688 L12.32997814171992 1.5069341177600464 L12.371629346719914 1.4545600537600265 L12.418241488719985 1.3770454047600609 L12.448007112719978 1.3442825467600485 L12.487797965719977 1.3247746937600553 L12.53472016671995 1.3176691847601276 L12.559524854719967 1.3107445417601369 L12.581539013719947 1.2897122337600209 L12.652852490719937 1.255244053760073 L12.724786084719966 1.2494821317600966 L12.745043246719973 1.2384750517599983 L12.756515413719995 1.2246774447600686 L12.77367198871994 1.1954802597601102 L12.789381624719937 1.1801581977600577 L12.827518831719914 1.1562836867600836 L12.836303824719977 1.1538032167600036 L12.857904573719935 1.1603661237600775 L12.868756624719964 1.1562836867600836 L12.91753917771993 1.114503290760105 L12.933352165719924 1.1050723417600707 L12.953609326719942 1.0995946397600633 L12.978517366720013 1.0975275827601152 L13.00228852571999 1.1000597277600903 L13.019135042719967 1.1081470887600986 L13.035671501719918 1.1119969837600436 L13.097889925719954 1.0846084747600813 L13.14253836271999 1.0835749457600983 L13.262324333719931 1.1187665957600714 L13.331777457719994 1.133494379760073 L13.375082308719954 1.13271923276006 L13.410739046719954 1.1361557157600046 L13.404331168720006 1.1614254907600596 L13.403194287719913 1.1696420437600992 L13.402987581719941 1.21168082076003 L13.396372998719954 1.2262018987600598 L13.379526481719978 1.2420924017600967 L13.362266552720001 1.2535904087600116 L13.347693798719916 1.2593264917600564 L13.309246533719971 1.262478754760032 L13.288265901719996 1.268550734760062 L13.267181917719967 1.2831493267600322 L13.25457286771993 1.3027346957600585 L13.258913688720014 1.3236636507600466 L13.27493338271998 1.331363438760043 L13.317204703719966 1.3207956077600684 L13.337771923719941 1.3220875197600392 L13.345316682719982 1.327642735760044 L13.359682731719971 1.3433782087601074 L13.36650402071993 1.3475381627600385 L13.377252718719973 1.3469955587600921 L13.393479117719977 1.3368928167600487 L13.403400993719941 1.3339989367600609 L13.425931917719907 1.3356525827600265 L13.441228141720018 1.3386498157601139 L13.45549083772002 1.3360143177600108 L13.493524690719966 1.3077989857600372 L13.51367849971993 1.3029672397600294 L13.556569938719946 1.2990656677600683 L13.612897249719907 1.2777749787600854 L13.633981234719926 1.2742609807601255 L13.709428824719993 1.2522984967600692 L13.820533155719914 1.2344701287601154 L13.844924430719942 1.2261502217600437 L13.863321240720012 1.2088902937600565 L13.864974886719978 1.174628819760052 L13.881201286719971 1.1611929467600035 L13.907659619719965 1.1608570507601215 L13.936701774719978 1.1670323837600804 L13.961093050719995 1.1643710477600635 L13.972875277719908 1.1376284947601008 L13.97814627272001 1.1506509547601311 L13.98972179471994 1.1441914017600894 L14.001090608719977 1.1435454457600045 L14.01090913071991 1.148635573760096 L14.025481884719994 1.168169264760003 L14.035403760719959 1.170778924760107 L14.046669222719942 1.1711406607601091 L14.075608024719912 1.175352289760049 L14.09317801171997 1.1722000277600912 L14.112091585719924 1.1709081167601383 L14.133899039719921 1.1784528747601044 L14.169969189719922 1.1873153837600867 L14.17844412471996 1.1889431917601385 L14.187125765719912 1.1887881617601082 L14.288721631719994 1.1834654897600458 L14.317660433719965 1.1705722197600679 L14.445817985719913 1.233384922760031 L14.474136670719957 1.2576211697600925 L14.519921989720018 1.3199429477601328 L14.549584261719957 1.3334304957601049 L14.470415966719969 1.3491142937600742 L14.451295687719977 1.3506129097600663 L14.440546989719934 1.344876825760032 L14.401272900719988 1.2761471707600336 L14.394658317720001 1.268421544760038 L14.378741975719976 1.2667678977599977 L14.366649690719981 1.2737183787600728 L14.356211051719953 1.2842345327600313 L14.333576774720001 1.3008226677600376 L14.328202425719923 1.3031997837600855 L14.30825532271993 1.3049051057600494 L14.303604443719934 1.309711013760058 L14.300297151719946 1.3161705677600324 L14.28727469172 1.3262474717600483 L14.284484163719952 1.3302265577600352 L14.280556754719981 1.333740554760091 L14.272288525719915 1.336169346760137 L14.266294059719911 1.3343606717600451 L14.25378836372002 1.3237928417600884 L14.247277132719972 1.3211831817600697 L14.23322114371993 1.3223975777600927 L14.18950288071997 1.33234529076001 L14.15736014071993 1.3329137317600512 L14.144544384719921 1.3385981397601157 L14.133899039719921 1.354488641760021 L14.12490734072 1.3746166127601 L14.113951937719918 1.3872256627600237 L14.098862418720017 1.3939952747600515 L14.07757172971995 1.3964757437600284 L14.039537874719912 1.3924966577600415 L14.025585238719913 1.397483433760108 L14.023414827720018 1.4167845817600622 L14.039847932719994 1.4379719187601054 L14.071680615719941 1.4567046257601035 L14.133899039719921 1.4814059597600036 L14.151365674719983 1.4980716097600535 L14.163044548719967 1.5175019477600316 L14.176480420719912 1.5342967887600665 L14.199631461719918 1.542875076760005 Z" fill="black" stroke="black" stroke-width="0.5" vector-effect="non-scaling-stroke"/></svg>