<svg xmlns="http://www.w3.org/2000/svg" viewBox="0 0 0.27558542069991177 0.13504738698001972"><path d="M0.2582341891422999 0.0678477469899832 L0.25253855084993404 0.07736759799001902 L0.2517247488499521 0.1048741089900318 L0.272883602849916 0.12749780698999302 L0.272883602849916 0.13372339299002078 L0.18352813484996489 0.13372339299002078 L0.18352813484996489 0.12749780698999302 L0.1872716238499521 0.1085769079900274 L0.15846302984995475 0.06288192098998024 L0.15618438484996489 0.04558862699002475 L0.10003204084996753 0.03325952598999038 L0.07692006184994682 0.03130640098999038 L0.05543568684994682 0.033625735990028716 L0.0032709728499327184 0.049047285990013734 L0.0027018178499957912 0.03316233798999235 L0.009365656849936954 0.02612828499000841 L0.0212124818499575 0.02908999099001619 L0.04120400084993037 0.03131127098994568 L0.04860826684996766 0.0165027389900132 L0.061935944849963676 0.014651672989984377 L0.06526786484995739 0.01094953998999415 L0.07008063784992657 0.005766553989971612 L0.0748934108499526 0.0013239939899989395 L0.07822532984995689 0.002434633989977897 L0.08340831684996886 0.0028048469899744077 L0.08859130284993455 0.0028048469899744077 L0.09636578184996836 0.0028048469899744077 L0.10228919484997334 0.0016942069899954504 L0.10302962084996636 0.014651672989984377 L0.10821260784997833 0.02353679198999714 L0.12710311784998396 0.035665408989970615 L0.15626610285001163 0.041992379989963524 L0.1598456878499661 0.035136565989986934 L0.17235138384997128 0.03978744498995468 L0.17865590884998994 0.044541676990050405 L0.18485708084996588 0.035136565989986934 L0.19731110084997283 0.024956308990013554 L0.23012563484998338 0.028883716989994923 L0.23239939784998853 0.05616887298999984 L0.21286570684999617 0.05616887298999984 L0.2082148288499326 0.050691171990010275 L0.19663930784999195 0.05932113598997546 L0.19818959984992546 0.07337712598997825 L0.20511424184998361 0.07725285799004666 L0.21214223584998138 0.07022486299003106 L0.2333295738499288 0.0678477469899832 L0.2582341891422999 0.0678477469899832 Z" fill="black" stroke="black" stroke-width="0.5" vector-effect="non-scaling-stroke"/></svg>