<svg xmlns="http://www.w3.org/2000/svg" viewBox="0 0 1.6151660148600087 0.5878198249200182"><path d="M0.780239257929999 0.3443859864599972 L0.8002587889300017 0.3650158694600236 L0.787807616930003 0.38296020545999454 L0.7715315749299876 0.40053833045999454 L0.780239257929999 0.42006958045999454 L0.7689274089299616 0.42605102546002627 L0.7616845699300043 0.42397583045999454 L0.7549300129299823 0.41819783546003464 L0.7454899089299616 0.4126232914600223 L0.711635741930003 0.4032238774599932 L0.7045556639300017 0.39899210646001393 L0.7008935539300083 0.3824719244599919 L0.7075667309299902 0.3661958824600333 L0.7179833979300057 0.350855713460021 L0.725063475930007 0.33693969746002495 L0.7472802729300057 0.3668469244599919 L0.760708007929999 0.3785656744599919 L0.766567382929999 0.36831176845998925 L0.7559065749299876 0.3479667154600179 L0.7583479809299902 0.3411307784600126 L0.780239257929999 0.3443859864599972 Z M0.14213704392998494 0.26560994546002803 L0.14571777293000565 0.2730969244599919 L0.1631331379299823 0.2837170414600223 L0.17013183593000036 0.2897798664600373 L0.1735498039300083 0.2959647624600166 L0.17574706993000433 0.30231241946000864 L0.17696777293000565 0.3202160644599985 L0.17371256492996423 0.3284354654600179 L0.16598144493000433 0.3298596194600236 L0.156948241930003 0.3290051274599932 L0.14962402293000565 0.3307141114599972 L0.13513834592996687 0.32111124746000996 L0.11218912692996952 0.29905721046003464 L0.09428548092999023 0.2897798664600373 L0.10209798092999023 0.30666626046001966 L0.10592285093000697 0.32253540046002627 L0.10226074193000301 0.3374279784600276 L0.08744954392998494 0.3512219244599919 L0.06783691393000169 0.35659301845998925 L0.047247720929966874 0.35179158546003464 L0.029669595929966874 0.33791626046001966 L0.019252928930008295 0.31643188546001966 L0.01656738292999904 0.30743937246000996 L0.015834960930000364 0.30276001046001966 L0.020229491930003007 0.2988944504600113 L0.032924803930008295 0.2928723144599985 L0.03992350192996952 0.28542602546002627 L0.03959798092999023 0.27541626046001966 L0.03780761693000301 0.26447062246000996 L0.03976074193000301 0.2543794764600307 L0.04488769493000433 0.24957804446000864 L0.06303548092999023 0.23757446346002098 L0.07052246093000036 0.23143025746003332 L0.08150878893000169 0.22605916346003596 L0.09640136693000301 0.22605916346003596 L0.1110498039300083 0.22963989345998925 L0.13074381492996423 0.2398937994599919 L0.13709147092996687 0.2464042154600179 L0.14099772092996687 0.25490844746002495 L0.14213704392998494 0.26560994546002803 Z M0.9305485019299695 0.22085083045999454 L0.9374658199300043 0.2241467284600276 L0.9416162109300004 0.22833780946001525 L0.9434065749299876 0.2339123534600276 L0.944057616930003 0.24135864345998925 L0.8955550129299823 0.2897798664600373 L0.883510741930003 0.28766398146001393 L0.883510741930003 0.282496338460021 L0.8881494139300017 0.2757824714599906 L0.8888818359300004 0.2693127444600236 L0.8903466789300083 0.26467407246002495 L0.8901839189299849 0.2535656744599919 L0.8853011059299902 0.245834554460032 L0.8556787109300004 0.2577160644599985 L0.8480289709299669 0.24884562246000996 L0.8496565749299876 0.23366821346002098 L0.8615380859300004 0.22085083045999454 L0.8822900389300017 0.21686320046001129 L0.9136214189299849 0.22703572646003067 L0.9305485019299695 0.22085083045999454 Z M1.3214990229300057 0.2543794764600307 L1.2931787109300004 0.24782836946002362 L1.2837386059299902 0.22288533546003464 L1.2899235019299695 0.20022094746002495 L1.3078271479300057 0.20034301845998925 L1.317918293929985 0.20555135146003067 L1.348598632929999 0.21621215845999586 L1.3556787109300004 0.22085083045999454 L1.3532373039300083 0.2329357914600223 L1.3415185539300083 0.23973103846003596 L1.326625975930007 0.2420910644599985 L1.314012043929985 0.24135864345998925 L1.3214990229300057 0.2543794764600307 Z M0.711391600930007 0.26186645545999454 L0.7246565749299876 0.276636963460021 L0.7323876949300043 0.2822928874600166 L0.7215641269299695 0.2852225754600113 L0.7122867839299616 0.2856701664600223 L0.703579100930007 0.28713501046001966 L0.694301757929999 0.2928723144599985 L0.6890120439299849 0.2992199714599906 L0.680629882929999 0.3130139164600223 L0.6772119139300017 0.31643188546001966 L0.6645979809299902 0.3194022624600166 L0.6572737629299823 0.3167980964599906 L0.6504378249299876 0.31252563546001966 L0.639614257929999 0.3102062994599919 L0.598110350930007 0.3102062994599919 L0.5897281899299642 0.3043469244599919 L0.5915185539300083 0.2906750494599919 L0.5981917309299902 0.27566040046002627 L0.6049462889300017 0.26560994546002803 L0.6255354809299902 0.2557629394599985 L0.6750146479300057 0.25372843446001525 L0.6908837889300017 0.24135864345998925 L0.6503564449300043 0.24176554446000864 L0.6136539709299669 0.24709594746002495 L0.5845198559299902 0.26316853846003596 L0.567348632929999 0.29592407246002495 L0.5605126949300043 0.29592407246002495 L0.5635237629299823 0.2717948404600179 L0.5508284499299876 0.26003540046002627 L0.5345524089299616 0.25014770545999454 L0.526333007929999 0.23143025746003332 L0.5390283199300043 0.21466593446001525 L0.5597802729300057 0.19338501046001966 L0.5639306639300017 0.17649861646003728 L0.526333007929999 0.17308064846002935 L0.526333007929999 0.17991658546003464 L0.5365055339299616 0.19265258846002098 L0.5275537109300004 0.21010864345998925 L0.5059065749299876 0.21950805746001834 L0.4785628249299876 0.20782999746000996 L0.48238769493000433 0.22548950245999322 L0.49662923092999023 0.24510213246003332 L0.5155908199300043 0.2613781744599919 L0.5331689449300043 0.2693127444600236 L0.5234033199300043 0.27618937246000996 L0.5175439449300043 0.28420532246002495 L0.5158349609300004 0.29311645545999454 L0.5189274089299616 0.3028007004600113 L0.46676269493000433 0.2917329914600373 L0.4506494139300017 0.2822928874600166 L0.4565087889300017 0.2771252444600236 L0.4583805339299616 0.27370727546002627 L0.457485350930007 0.26186645545999454 L0.430385741930003 0.2637382004600113 L0.41720214793000565 0.26833618246001834 L0.41988769493000433 0.27887491946000864 L0.432338866930003 0.29018676845998925 L0.44625488292999904 0.3003186034600276 L0.46147298092999023 0.30743937246000996 L0.4899560539300083 0.31350219746002495 L0.49923339793000565 0.32054158546003464 L0.506557616930003 0.32762166346003596 L0.512661132929999 0.3307141114599972 L0.5225081379299823 0.3284354654600179 L0.5301578769299695 0.3232271324600333 L0.537563475930007 0.31655395545999454 L0.5468408199300043 0.3102062994599919 L0.535610350930007 0.3421887214599906 L0.5327620439299849 0.35756958045999454 L0.5331689449300043 0.3717297364599972 L0.5368310539300083 0.37514770545999454 L0.5435042309299902 0.3774263514600307 L0.5501774089299616 0.38112915046002627 L0.5531070959299669 0.3887382004600113 L0.5474104809299902 0.3990734864599972 L0.5342268879299823 0.3991548664600373 L0.5089990229300057 0.39215616946000864 L0.46863443992996423 0.3954113774599932 L0.451625975930007 0.4026542154600179 L0.45406738292999904 0.4164074714599906 L0.46082193992996423 0.43276489345998925 L0.45113769493000433 0.43886840845999586 L0.44039550792999904 0.4361828614599972 L0.443813475930007 0.4262951664600223 L0.4266422519299695 0.3950044764600307 L0.4129703769299695 0.3854829914600373 L0.38920735592999023 0.38532023146001393 L0.37594238292999904 0.39012166346003596 L0.37293131492996423 0.39553344746002495 L0.37097818992996423 0.4010266114599972 L0.36129394493000433 0.4057873534600276 L0.3477034499299876 0.4078625494599919 L0.3343570959299669 0.40704874746000996 L0.3258935539300083 0.4022473144599985 L0.32711425792999904 0.39215616946000864 L0.3096175129299823 0.38670369546002803 L0.29155110592999023 0.3902844244599919 L0.276088866930003 0.4000500494599919 L0.2656721999299876 0.4126232914600223 L0.25020996093000036 0.3851574714599906 L0.21293782492998758 0.3413342284600276 L0.19731282492998758 0.31643188546001966 L0.19063964793000565 0.28725708045999454 L0.18502441393000169 0.27456176845998925 L0.1735498039300083 0.2693127444600236 L0.17143391892998494 0.26186645545999454 L0.14962402293000565 0.22085083045999454 L0.1693180339299616 0.22048461946002362 L0.18551269493000433 0.2221936034600276 L0.194057616930003 0.2300061034600276 L0.1911279289300083 0.24819458045999454 L0.1989404289300083 0.23777791346003596 L0.20512532492998758 0.2264660644599985 L0.2119612629299823 0.21767700245999322 L0.22156412692996952 0.21401489345998925 L0.23474772092996687 0.212631429460032 L0.2731591789300083 0.20034301845998925 L0.26550943992996423 0.19602986646003728 L0.260463866930003 0.1910656744599919 L0.2520003249299876 0.17991658546003464 L0.27267089793000565 0.1832531744599919 L0.279995116930003 0.18675252346002935 L0.28609863292999904 0.1834973144599985 L0.28894693992996423 0.18300903345999586 L0.2992008459299669 0.18675252346002935 L0.28341308593000036 0.21560180746001834 L0.26778808593000036 0.23757446346002098 L0.27071777293000565 0.24611938546001966 L0.2790185539300083 0.253199463460021 L0.2868310539300083 0.26186645545999454 L0.2946435539300083 0.286402588460021 L0.301235350930007 0.2934826664600223 L0.316860350930007 0.29592407246002495 L0.32442871093000036 0.2905529784600276 L0.32613769493000433 0.2780611164600373 L0.3239404289300083 0.2640637214599906 L0.32027831993000433 0.2543794764600307 L0.33810058593000036 0.2601574714599906 L0.35445800792999904 0.2693127444600236 L0.36129394493000433 0.24135864345998925 L0.38237141892998494 0.22768676845998925 L0.38725423092999023 0.21401489345998925 L0.3890445959299669 0.1928967284600276 L0.39547363292999904 0.17991658546003464 L0.4007633459299669 0.19456502346002935 L0.40222818992996423 0.20192993246001834 L0.402797850930007 0.21096313546001966 L0.40816894493000433 0.2147473144599985 L0.41988769493000433 0.21360799146003728 L0.4316878249299876 0.20937622145999057 L0.4369775389300017 0.20412719746002495 L0.43412923092999023 0.18679321346002098 L0.4266422519299695 0.17226684645999057 L0.41557454392998494 0.16079223645999718 L0.402797850930007 0.15261352546002627 L0.3959619139300017 0.14695760146003067 L0.39213704392998494 0.14187133846002098 L0.3877425129299823 0.14134236646003728 L0.3786279289300083 0.14891072646003067 L0.36772298092999023 0.16689575245999322 L0.36031738292999904 0.17332478846003596 L0.3510400389300017 0.16933715845999586 L0.3359846999299876 0.15249145545999454 L0.32182454392998494 0.13971476246001657 L0.30465331993000433 0.1323498534600276 L0.279995116930003 0.13149536145999718 L0.295620116930003 0.12600219746002495 L0.3044091789300083 0.1177014164600223 L0.311000975930007 0.10797648146001393 L0.32027831993000433 0.0979667154600179 L0.34078613292999904 0.08608520545999454 L0.36227050792999904 0.08095825245999322 L0.38497558593000036 0.08095825245999322 L0.4090641269299695 0.08437622145999057 L0.41622558593000036 0.09768188546001966 L0.42110839793000565 0.11635864345998925 L0.430141600930007 0.13011189846002935 L0.47262206993000433 0.12514770545999454 L0.49825683593000036 0.13011189846002935 L0.5223453769299695 0.1402844244599919 L0.5394352209299669 0.15261352546002627 L0.5311344399299642 0.1324719244599919 L0.526333007929999 0.12526977546002627 L0.5410628249299876 0.12697876046001966 L0.574672850930007 0.1366223144599985 L0.5848453769299695 0.13523885146003067 L0.5956689449300043 0.13141398146001393 L0.6073063149299642 0.1366223144599985 L0.6287906899299642 0.15261352546002627 L0.6807112629299823 0.16355916346003596 L0.6947086589299616 0.17421997145999057 L0.684047850930007 0.20034301845998925 L0.6989404289300083 0.19627400746003332 L0.7045556639300017 0.19358846046003464 L0.7202620439299849 0.20026163746001657 L0.740688475930007 0.2049816894599985 L0.780239257929999 0.20782999746000996 L0.7454899089299616 0.24135864345998925 L0.7386539709299669 0.2543794764600307 L0.711391600930007 0.26186645545999454 Z M1.377895507929999 0.5724133304599945 L1.3705712889300017 0.5686291504600263 L1.3647119139300017 0.5583752444600236 L1.373500975930007 0.5497896324600333 L1.387172850930007 0.5467785644599985 L1.4001123039300083 0.5464123534600276 L1.4092268879299823 0.5530041504600263 L1.4154931639300017 0.5658215334599959 L1.422817382929999 0.5772961434599893 L1.415004882929999 0.5820568854600197 L1.3903466789300083 0.577418213460021 L1.377895507929999 0.5724133304599945 Z M1.4862125649299642 0.54376749746001 L1.4720524089299616 0.542709554460032 L1.4718896479300057 0.5444592284600276 L1.486782225930007 0.550277913460036 L1.4938623039300083 0.5597993984600294 L1.4853987629299823 0.5650077314600139 L1.4347802729300057 0.5506848144599985 L1.4211083979300057 0.5434826664600223 L1.4159000649299642 0.538111572460025 L1.4178531899299642 0.5371757004600113 L1.422573241930003 0.5332287604600197 L1.4373844399299642 0.5285493984600294 L1.4813297519299695 0.5344901534600126 L1.4923974609300004 0.534652913460036 L1.498500975930007 0.5366467284600276 L1.4992333979300057 0.5415295414600223 L1.4862125649299642 0.54376749746001 Z M1.1127587889300017 0.44155395545999454 L1.1152001949300043 0.443100179460032 L1.1205712889300017 0.4443208824600333 L1.117885741930003 0.44546020545999454 L1.1060042309299902 0.44676228846003596 L1.1035628249299876 0.4473319504600113 L1.110887043929985 0.45058715845999586 L1.1125146479300057 0.4566906744599919 L1.108933918929985 0.46389282246002495 L1.0990869139300017 0.4704846194600236 L1.0898095699300043 0.4784191894599985 L1.0801253249299876 0.47988403345999586 L1.0531070959299669 0.4676770024599932 L1.0487939449300043 0.4700370284600126 L1.042527668929985 0.4770357264600307 L1.0296695959299669 0.48147094746002495 L1.0145328769299695 0.480209554460032 L1.003465168929985 0.47386189846002935 L1.0081852209299669 0.46230590845999586 L1.0335758459299669 0.4381359864599972 L1.047573241930003 0.43044555746001834 L1.061000975930007 0.42894002346002935 L1.0708479809299902 0.4295910644599985 L1.078823241930003 0.4273937994599919 L1.085496418929985 0.4273937994599919 L1.0897281899299642 0.4306490074600333 L1.090541991930003 0.43459594746002495 L1.0937158199300043 0.43569458045999454 L1.1012841789300083 0.43386352546002627 L1.1076318359300004 0.4344738774599932 L1.1112939449300043 0.43894978846003596 L1.1127587889300017 0.44155395545999454 Z M0.926723632929999 0.4313000494599919 L0.9515445959299669 0.4214123534600276 L0.9652164709299669 0.41974405946001525 L0.9536604809299902 0.44643676845998925 L0.9347802729300057 0.4614514164600223 L0.904995116930003 0.4652355964599906 L0.8927880859300004 0.4583182784600126 L0.9061344399299642 0.4460298664600373 L0.926723632929999 0.4313000494599919 Z M1.0238102209299669 0.43850219746002495 L1.0220198559299902 0.44358846046003464 L1.0029768879299823 0.4501802574600333 L0.9740055339299616 0.4452160644599985 L0.9723779289300083 0.42918416346003596 L0.990688475930007 0.4241385904600179 L1.0248681639300017 0.4217785644599985 L1.028041991930003 0.42104614345998925 L1.019090168929985 0.4195812994599919 L1.021043293929985 0.41616333045999454 L1.0360172519299695 0.41290812246000996 L1.044480793929985 0.4155529784600276 L1.0384586589299616 0.4223889164600223 L1.028855793929985 0.42971313546001966 L1.0238102209299669 0.43850219746002495 Z M1.186000975930007 0.35602335646001393 L1.1891748039300083 0.3600109864599972 L1.1908837889300017 0.3695324714599906 L1.1846175129299823 0.37636840845999586 L1.1742008459299669 0.3773449714599906 L1.1584130859300004 0.3706311034600276 L1.141323241930003 0.355209554460032 L1.1381494139300017 0.34259562246000996 L1.1466943359300004 0.337183838460021 L1.1562158199300043 0.33519002346002935 L1.162563475930007 0.3368176274599932 L1.1712711589299616 0.341537679460032 L1.182094725930007 0.3502453614599972 L1.186000975930007 0.35602335646001393 Z M1.1864078769299695 0.2571464034600126 L1.208543293929985 0.2682954914600373 L1.2189599609300004 0.2772473144599985 L1.2103336589299616 0.2868908694600236 L1.1894189449300043 0.2919771324600333 L1.1733056639300017 0.28733846046003464 L1.166713866930003 0.28151977546002627 L1.1660628249299876 0.2701672364599972 L1.1711083979300057 0.2598319504600113 L1.1864078769299695 0.2571464034600126 Z M1.279995116930003 0.1600598144599985 L1.242641600930007 0.1741385904600179 L1.235317382929999 0.1721854654600179 L1.2340966789300083 0.1655529784600276 L1.2344221999299876 0.16213501046001966 L1.235317382929999 0.15379353846003596 L1.2380029289300083 0.1487479654600179 L1.2461409499299876 0.13808715845999586 L1.249558918929985 0.1346691894599985 L1.2533024089299616 0.13165812246000996 L1.2575341789300083 0.12579874746000996 L1.2598128249299876 0.12042765346001261 L1.2669742839299616 0.11867797846002759 L1.2787744139300017 0.12014282246002495 L1.290004882929999 0.12457804446000864 L1.2946435539300083 0.13377400746003332 L1.2920393879299823 0.14382446346002098 L1.2879703769299695 0.15297973645999718 L1.279995116930003 0.1600598144599985 Z M0.7839560649299884 0.5099271574600266 L0.8045487859300025 0.48756806646002815 L0.8420876789299783 0.46643355646000373 L0.8650584809299531 0.4688727904600114 L0.9010982289299605 0.4774145604600335 L0.9393867909300084 0.481553864460011 L0.949700124929997 0.49136272245999635 L0.9012162629299851 0.5051942294600167 L0.8697755489300008 0.5045494284599954 L0.8419656339299664 0.5063353674599966 L0.8274599879299913 0.5093479634600158 L0.8250066129299753 0.5238577564600178 L0.8092887839299934 0.5329189344599854 L0.7863478479299957 0.5280678244600381 L0.7839560649299884 0.5099271574600266 Z M0.5362902769299822 0.422917276459998 L0.5708340149300071 0.41388904545999594 L0.6039099279299549 0.3915686454599836 L0.6326824329299612 0.3996152324600075 L0.6659000739299827 0.3986979394600212 L0.6958313809299526 0.42097356945998854 L0.715299175929978 0.45062504646000434 L0.7251672509299638 0.47166343346003714 L0.7278590319299738 0.48106555845998855 L0.714432023929966 0.495393224460031 L0.6902815899299881 0.510176250460006 L0.6777616719299786 0.5151073584599999 L0.6866773279299778 0.4936054454599912 L0.6741358419300028 0.4877894544600281 L0.6544532739299953 0.4936204864600313 L0.6258195649299765 0.4976708644600194 L0.6078956749299564 0.4900741114599896 L0.6195101839299824 0.48110941046002154 L0.6239583419299848 0.4699160854599995 L0.606898450929954 0.4582952754599887 L0.5808979119299593 0.45831965946001674 L0.5610977349299802 0.4471469014600302 L0.5278970809299963 0.4440580444600073 L0.5362902769299822 0.422917276459998 Z M1.5912744139300017 0.006413981460013929 L1.5973779289300083 0.010971273460029352 L1.5993310539300083 0.023096924459991897 L1.5908675129299823 0.03432739345998925 L1.581020507929999 0.037582601460030673 L1.5675927729300057 0.0317639164600223 L1.5618961589299616 0.019801025460026267 L1.5669417309299902 0.012191976460030673 L1.579067382929999 0.006129150460026267 L1.5872867839299616 0.005762939459998506 L1.5912744139300017 0.006413981460013929 Z" fill="black" stroke="black" stroke-width="0.5" vector-effect="non-scaling-stroke"/></svg>