<svg xmlns="http://www.w3.org/2000/svg" viewBox="0 0 1.7999397461999607 3.0781562988600513"><path d="M1.312761215099986 0.8118098789300632 L1.287336409099968 0.8234112389300208 L1.2864001760999635 0.8401269089300172 L1.286096175100031 0.8455545899300319 L1.2940543461000154 0.8707985279300203 L1.2957502840999986 0.8849313399299774 L1.2965348150999922 0.8914690999300205 L1.290023585099906 0.9002282549299991 L1.2667691890999926 0.9173331539300591 L1.256950667100032 0.9270483239300802 L1.2488891440999375 0.9403550049300122 L1.2459952640999497 0.9508969969299699 L1.2539534350999055 1.0232440019300384 L1.2590177250999979 1.0445863689300268 L1.2802050620999559 1.090965966930014 L1.2802841310999078 1.097667072929994 L1.2803084150999702 1.099725121930021 L1.2749340661000055 1.110112084930023 L1.266459131099996 1.1166233159300134 L1.2530232590999653 1.1227211349300603 L1.2385538580999231 1.127320336930012 L1.1897713060999742 1.135330184929984 L1.1934920090999732 1.1495412029300383 L1.190598128099996 1.1765162999300571 L1.1976261231000116 1.1913991139300038 L1.2087882321000372 1.195223168930056 L1.2164363450999112 1.2012176359299929 L1.227210932099954 1.216722528929978 L1.2291487470999733 1.219511091930059 L1.2324560390999615 1.2272108809300448 L1.234523096099938 1.2435406329300633 L1.2364868000999572 1.2489666579300547 L1.243618148099987 1.2535141849299976 L1.26025795910002 1.2555295649300433 L1.2678027180999756 1.2593019449300584 L1.2796882980999875 1.272014346930007 L1.2846628000999125 1.2820476659300084 L1.2857861170999492 1.2843133389300476 L1.2855794111000058 1.2978525639300358 L1.2785514160999902 1.314544050930067 L1.2690429520999977 1.3281866289299842 L1.256020491099978 1.3405889729300497 L1.241654444099968 1.3472035559300366 L1.2272883960999685 1.3437929119300236 L1.2237222970999575 1.3634064509300572 L1.2233609861000083 1.3653936599299925 L1.2287353360999624 1.3955210209299764 L1.2456852050999636 1.449471215930032 L1.258294254099983 1.474844343930016 L1.2952945801000375 1.514376814930074 L1.3111075681000308 1.5375795329300672 L1.316171859099999 1.560162133930021 L1.3155517420999594 1.5778871509300245 L1.3225797370999466 1.591478051930011 L1.3430333100999725 1.5987189159300499 L1.350898421099945 1.6015032799300286 L1.3645409990999475 1.6025884849300382 L1.3771500490999848 1.6021233969300113 L1.3797425690999923 1.6024153469300018 L1.3886222170999964 1.6034153079299642 L1.399474267100036 1.6097198329300682 L1.4097062011000254 1.625842878930058 L1.4290331870999786 1.6911618889299973 L1.4483601730999318 1.7486777589300289 L1.462829574099974 1.7717771239300077 L1.476186596099982 1.7803804459300636 L1.486497380099994 1.787021670930045 L1.5117154790999372 1.7912591389300019 L1.5292854660999389 1.7859364669300533 L1.5625650880999764 1.76474912993001 L1.5821582211000056 1.761087785930016 L1.5830289561000122 1.760925072930064 L1.6358422690999852 1.766712833930029 L1.6855549970999881 1.7779266199299855 L1.7022981610999217 1.790225609930019 L1.7104630371000304 1.8090358319300321 L1.710876449099974 1.8355975179300401 L1.712633447099936 1.8829848069300112 L1.7065356280999744 1.904223819929996 L1.6892757000999872 1.919726749930021 L1.6990942220999479 1.925824568930068 L1.7028149250999753 1.9333693279300235 L1.7047786301000123 1.9414308519299937 L1.709119450099994 1.9489239339300468 L1.737644841100039 1.9694911539300222 L1.7642065270999616 1.994089135930011 L1.7744384601000185 2.0081451249300244 L1.780949691100009 2.025611759930058 L1.78229327809996 2.045248803930008 L1.7787792810999044 2.06359393693009 L1.7681339360999324 2.098372175930052 L1.7663769371000377 2.109896019930062 L1.765963525100009 2.1182159269300485 L1.764413233099905 2.1260190679300592 L1.759142237099983 2.1360959709300005 L1.7523209471000065 2.1417803789300365 L1.7431225420999148 2.1458111419300394 L1.7339241381000114 2.151495547929983 L1.7271028480999782 2.161727482930047 L1.7141837400999727 2.1644146569300915 L1.7035383960999617 2.170047387930026 L1.697543930099929 2.1789357339300466 L1.6982673990999366 2.1913380779299985 L1.6953735190999488 2.197125838929992 L1.6920662270999607 2.202086775930013 L1.6824544110999433 2.2124737389300435 L1.6575463700999684 2.2254445229299904 L1.6352221521000025 2.221258731930021 L1.6123811690999936 2.2129388269299852 L1.585612777100014 2.213352237929996 L1.5722802580999975 2.22017352693004 L1.5669059081000434 2.2285967849300334 L1.5629785000999767 2.2381569259300136 L1.5548136230999638 2.2483888589300136 L1.5459252770999434 2.2522129149300554 L1.5251513510999963 2.2559852949299852 L1.516263005099976 2.263013289930086 L1.5146093591000387 2.272418400930036 L1.5189501801000098 2.2996518799300247 L1.5194669440999498 2.310090518929968 L1.5160562991000326 2.3224411869300354 L1.5116121251000187 2.330709415930073 L1.5006567220999365 2.3463673749300256 L1.4851663611000028 2.3758251689300494 L1.4822599121000373 2.381352319930045 L1.4744050950999998 2.3867266679299917 L1.4634496910999282 2.391067488929991 L1.452597641099974 2.3969069249300503 L1.4447428231000323 2.4066220949300146 L1.4401952961000042 2.429411401929997 L1.4422623540999702 2.449410180930016 L1.4420556481000268 2.469925723930089 L1.4308935390999729 2.493800235929996 L1.4254158370999939 2.4971592039300106 L1.4106363770999941 2.5006215249300396 L1.4059854981000264 2.5060992269300186 L1.4054687340999727 2.5122487229299963 L1.4087760250999715 2.5233074789300076 L1.4090860841000428 2.5283717689300715 L1.413840316099968 2.5469236079300117 L1.412393376099974 2.55147113493004 L1.397407211099992 2.583975609929979 L1.39316974309995 2.5909519289299965 L1.3858316900999377 2.5948793379300525 L1.3609751380999775 2.603974201930015 L1.3234065590999684 2.6177203209300615 L1.2984985191000114 2.6195806719300663 L1.2454785001000097 2.613534529930007 L1.2272883960999685 2.6172035559300184 L1.2115787601 2.6241798749300074 L1.1784024900999874 2.6211826419300905 L1.1593855631000203 2.627797224929992 L1.1460530441000039 2.6397344809300307 L1.1346842291000065 2.655547468930024 L1.1263126471000113 2.673324161929969 L1.1220751790999692 2.6912558839300402 L1.105538721099979 2.693943058930074 L1.0556192871000043 2.695131615929995 L1.0435270021000385 2.698077172930084 L1.0485912920999318 2.7058803139300096 L1.0635774580999886 2.766600121929997 L1.0687451010999816 2.7725945889300476 L1.0925162600999592 2.7907330159300727 L1.1386116370999595 2.8495407959300394 L1.142642399099973 2.8669040779300587 L1.1345808760999638 2.886851179930062 L1.117217594099973 2.900700463930036 L1.1001643721000143 2.899201847930044 L1.0824910331000162 2.8909852949300046 L1.0451904860999868 2.8799351339299903 L1.0439404141000388 2.879564803930009 L1.0340185380999607 2.8783762449299957 L1.0256469560999655 2.881011743930003 L1.0186189620999677 2.8885048259300277 L1.0210994310999446 2.8925872639300394 L1.0269905440999345 2.8968247319299962 L1.0302978350999332 2.9046795489300337 L1.0287475431000281 2.909847192930016 L1.0224430181000095 2.921836124929996 L1.0213061360999838 2.924936710930041 L1.0237866050999607 2.928244002930029 L1.031124658099973 2.9353236729300534 L1.032881657100038 2.9383209069300733 L1.0367057130999946 2.9470542239300244 L1.0420800620999593 2.951498396930049 L1.0450772960999508 2.9567693929300845 L1.0420800620999593 2.967621443930028 L1.0283341310999994 2.9805922289300497 L1.0097306151000431 2.9889121339300004 L0.9946410970999615 3.000177596930058 L0.991643864099931 3.022088403930013 L0.9828588711000386 3.0179542889300137 L0.9741772301000005 3.015835554930021 L0.965702295099991 3.015835554930021 L0.9576407721000102 3.0179542889300137 L0.9497859540999549 3.024672224930015 L0.9486490730999471 3.032372013930029 L0.949062484099958 3.039658389929997 L0.9455484871000159 3.044929386930022 L0.9297354981000048 3.0479782959300508 L0.9093749840999727 3.04069191892998 L0.8808495930999278 3.020796492929975 L0.8349609210999667 3.0021929769300186 L0.7951700680999672 2.992271102930033 L0.7616837410999473 2.9835894609300624 L0.7454618090999681 2.9914833359300275 L0.7424507420999795 2.992419207930041 L0.7414741790999848 2.998278582930041 L0.7346382420999795 2.998278582930041 L0.7291857680999421 2.983630145930036 L0.7326037370999394 2.967028582930041 L0.7483101170999795 2.936755145930036 L0.7312202730999822 2.9312619819300068 L0.7262560800999474 2.9276812519299966 L0.7414741790999848 2.902046486930047 L0.7597847260999835 2.852038348930037 L0.7619006120999394 2.8399533879300094 L0.7553901950999808 2.81932350493004 L0.7448921480999822 2.8135861999300147 L0.7293485280999654 2.8126096379300094 L0.7072944920999795 2.80642474193003 L0.7058296480999822 2.803942645930036 L0.7055855070999861 2.7999143249300147 L0.7044461840999681 2.7956418639300438 L0.7004585540999848 2.792183205930044 L0.6867866790999848 2.785998309930008 L0.6767769140999782 2.7830686219300134 L0.6596870700999808 2.7825803409300107 L0.6520373300999474 2.778552020930036 L0.6520373300999474 2.772326434930008 L0.6668485280999654 2.758044207930041 L0.6766141530999654 2.750475848930037 L0.6867866790999848 2.744982684930008 L0.6694526950999808 2.7321653019300385 L0.6224149340999681 2.662625913930029 L0.6160672780999654 2.6502561219300134 L0.6090685800999474 2.63963600493004 L0.6008491790999848 2.6351194039300054 L0.5688667570999861 2.6343869819300068 L0.5529976170999795 2.6321083359300275 L0.5421740490999447 2.6276731139300438 L0.5501493090999681 2.6215289089300455 L0.5229683200999808 2.60720599193003 L0.5187365490999447 2.613757098930037 L0.5172717050999474 2.6166867859300424 L0.5161323820999861 2.6215289089300455 L0.5128771740999447 2.612536395930036 L0.5080757420999795 2.6081418639300438 L0.5019722260999835 2.6050901069300068 L0.4949735280999654 2.600370054930025 L0.49367144509998084 2.5963824239299953 L0.4865099870999394 2.584582293930012 L0.4782905860999769 2.574735288930029 L0.4746284760999835 2.576769793930012 L0.46470009109996013 2.568957293930012 L0.3987821220999628 2.5525998719300134 L0.34344358009994735 2.5272906269299966 L0.3113797780999654 2.5051552109300275 L0.2549019140999782 2.4905067729300328 L0.2218615490999447 2.471301043930012 L0.12672808609997688 2.3897580749300147 L0.11557899709996278 2.37596412993004 L0.11069618409996806 2.3676226589300455 L0.09718707009998084 2.3229449239299953 L0.08986285109998349 2.3106565129300094 L0.05486936209993942 2.28416725493004 L0.04249957009998084 2.2714312519299966 L0.04079058609997688 2.2674436219300134 L0.04079058609997688 2.2663042989299953 L0.03517535109998349 2.264595314930048 L0.03517535109998349 2.2577593769299966 L0.06178667909998481 2.2471799499300147 L0.07814410109998349 2.2460813179300345 L0.09376910109998349 2.2543414089300455 L0.12941363209998613 2.287585223930037 L0.13885373709993942 2.2986936219300134 L0.15211871109997688 2.3223752629300094 L0.15757118409996806 2.33690162993004 L0.15984983009994735 2.35057350493004 L0.1692085540999848 2.3549680359300424 L0.19020464809998217 2.3511838569300068 L0.21120074209997952 2.3434934269300385 L0.22055946609996013 2.3366167989299953 L0.22723264309994207 2.24587786693003 L0.22438433609997688 2.231066668930012 L0.19874957009998084 2.219673439930048 L0.16440712209996278 2.1931028019300385 L0.13698199209997952 2.1631955749300147 L0.1320177990999447 2.1417111999300147 L0.13885373709993942 2.1479367859300424 L0.1416206640999782 2.1553830749300147 L0.14422483009994735 2.1640500679300345 L0.1523628510999835 2.1622190129300094 L0.15984983009994735 2.1622190129300094 L0.17921832009998084 2.1790647159300107 L0.19166949209997952 2.173856382930026 L0.1982612890999782 2.155138934930008 L0.2002144140999782 2.1311317729300328 L0.18776324209997952 2.111926043930012 L0.1613146740999447 2.1015093769299966 L0.13722613209998613 2.106677020930036 L0.1320177990999447 2.1342649109300424 L0.12485634109996013 2.118843361930047 L0.055439023099982165 2.0406369819300068 L0.04998654909994471 2.031847918930012 L0.05495074209997952 2.0199664089300455 L0.06854123709993942 2.0101194039300054 L0.08465451809994207 2.000923439930048 L0.09718707009998084 1.990832293930012 L0.10613889309994207 1.975207293930012 L0.11012652309998217 1.9584836609300424 L0.11118446609996013 1.899035418930012 L0.11443967409994471 1.8828407579300261 L0.12339149709996278 1.8720171899300482 L0.1418648040999848 1.8679481799300248 L0.1523628510999835 1.8642453799300398 L0.1496773040999848 1.8557004579300411 L0.14235308609997688 1.846301043930012 L0.13885373709993942 1.8400754579300411 L0.14324826809994207 1.8320188179300345 L0.1504097260999835 1.8239214869300469 L0.15700152309998217 1.817899350930034 L0.15984983009994735 1.8161496769300385 L0.15187457009998084 1.8046750679300345 L0.1367378510999835 1.7897417989300521 L0.12680946609996013 1.7767209659300107 L0.13543576809994207 1.7711871119300469 L0.15057248709993942 1.7668332709300358 L0.17018511709997952 1.7453488959300358 L0.1865425390999782 1.7363563829300261 L0.17262652309998217 1.7481565129300094 L0.18100868409996806 1.7715940129300094 L0.1728706640999782 1.791613543930012 L0.1728706640999782 1.8127317079300411 L0.18035764309994207 1.8127317079300411 L0.18345009109996013 1.7984494819300068 L0.18328733009994735 1.8015419299300248 L0.1847521740999447 1.8049192079300411 L0.1865425390999782 1.8127317079300411 L0.19972613209998613 1.7991819039300054 L0.2522163670999795 1.779894793930012 L0.26906207009998084 1.7643511739300521 L0.2707710540999848 1.7397336609300424 L0.26027300709998613 1.7200803409300107 L0.2470894140999782 1.702013934930008 L0.24106727809996542 1.6823606139300438 L0.23764930909996806 1.7080360699300314 L0.22527951809994207 1.731066668930012 L0.19948199209997952 1.7610145859300275 L0.19907509109996013 1.7566200549300248 L0.1933784760999835 1.7506792989300521 L0.2041206640999782 1.7423785179300495 L0.21559527309998217 1.7282590519300385 L0.22283811209993942 1.7099891949300314 L0.22055946609996013 1.6891965519300385 L0.21559527309998217 1.6842730489300521 L0.19940061209993942 1.6791460959300508 L0.1933784760999835 1.6755246769300385 L0.18621701809994207 1.6643348979300328 L0.18686805909996806 1.6589638049300248 L0.19109983009994735 1.6542844429300345 L0.20200477809996542 1.5783160179300495 L0.19679644509998084 1.56228411693003 L0.19109983009994735 1.555529559930008 L0.1867866790999848 1.5476356799300248 L0.1875191010999835 1.5411252629300094 L0.20932899709996278 1.5336789739300372 L0.21274696609996013 1.522326434930008 L0.21274696609996013 1.5088173199300314 L0.21437457009998084 1.4974240909300107 L0.2551460540999848 1.4477007839300455 L0.26222613209998613 1.428576434930008 L0.2589709240999447 1.4083127629300094 L0.24855425709998613 1.3908567079300411 L0.2336616790999848 1.3785276069300068 L0.21754839809998217 1.373888934930008 L0.19565712209996278 1.373888934930008 L0.17726519509998084 1.3712847679300495 L0.16456988209998613 1.3624143249300147 L0.15984983009994735 1.3434934269300385 L0.15984983009994735 1.3021929709300508 L0.15643186209993942 1.2933225289300054 L0.1416206640999782 1.2829465519300385 L0.13885373709993942 1.2714719429300345 L0.15203733009994735 1.2846148459300508 L0.17433550709998613 1.2836789739300372 L0.19077430909996806 1.2698036479300328 L0.1865425390999782 1.2441281929300345 L0.2102241790999848 1.2341184269300385 L0.23488238209998613 1.2188596379300094 L0.2542508720999628 1.198107684930008 L0.26222613209998613 1.1715777369300469 L0.2597847260999835 1.1550168639300438 L0.2527860280999654 1.1487098979300328 L0.24196246109997688 1.1462278019300385 L0.22804644509998084 1.1411415389300288 L0.21364214809998217 1.1307248719300134 L0.19761024709996278 1.110217059930008 L0.1865425390999782 1.0995969429300345 L0.2737007420999795 1.1084266949300314 L0.3020210540999848 1.1019162789300054 L0.3108101170999795 1.0998817729300328 L0.3304227470999628 1.0654172549300398 L0.33725868409996806 1.0654172549300398 L0.3379097260999835 1.0764035829300411 L0.34165321609996013 1.0822629579300411 L0.3486519140999782 1.0832395209300358 L0.3585802990999447 1.0796994819300068 L0.3506050390999782 1.0528440129300094 L0.3457222260999835 1.0458860049300398 L0.33725868409996806 1.0523557319300068 L0.33270139309994207 1.0442990909300107 L0.30324175709998613 1.0244423199300314 L0.32374957009998084 0.9973427109300275 L0.32195920509994735 0.9660520209300358 L0.3167508720999628 0.9326047549300398 L0.31691363209998613 0.9145790389300288 L0.3351427990999447 0.9192990909300107 L0.3445829030999654 0.9062782579300261 L0.34539670509994735 0.8852414739300372 L0.33725868409996806 0.8661985049300398 L0.33082964809998217 0.8664426459300358 L0.21111936209993942 0.8295367209300508 L0.19679644509998084 0.8224566429300495 L0.17856727809996542 0.8163938179300345 L0.11069618409996806 0.832629168930012 L0.10983722409995167 0.8221451659299817 L0.11056069410003388 0.7959968909299846 L0.10260252309999274 0.7853515469300874 L0.09330076509994356 0.7786336099300684 L0.09092364910000938 0.7746545249299857 L0.09154376709998147 0.770520410930061 L0.09102700209993841 0.763802473930042 L0.09226723609996057 0.7588156979299754 L0.0960912930999065 0.7536222169300686 L0.09846840910003962 0.7464908689300387 L0.09206053110000667 0.723443179930058 L0.09722817410002804 0.719825829929988 L0.10539305009993782 0.718999006930062 L0.11138751609997044 0.7152783039300346 L0.11665851309999553 0.6984317869300583 L0.10932046010001173 0.6915071459299895 L0.10901040010000784 0.6913521159300444 L0.09981199609993396 0.6762884359300472 L0.09619464610003448 0.6571681559300657 L0.09733152709995707 0.637376082930075 L0.10218911209998183 0.6201936689300283 L0.12048256909995203 0.5903246909300037 L0.11810545309998943 0.5807387129299855 L0.11561183409998321 0.5784848649300329 L0.10063881809995578 0.5649515619300018 L0.043381332099986736 0.5333255859300152 L0.02767169609993303 0.5204323159300088 L0.027569634099908313 0.5202681749300098 L0.01764646810000059 0.5043092699300189 L0.020540349099977817 0.49371559993005576 L0.05020262009995591 0.4698927649300799 L0.146010726099977 0.3590984939299915 L0.1469409020999457 0.3539308509299701 L0.14632078509996305 0.3402365969300547 L0.14828448909998215 0.33297605793006824 L0.15768960009996036 0.31659462893003365 L0.16285724310003857 0.3108843829299701 L0.21401691109995014 0.2668819009300307 L0.22734943009996655 0.250500471930053 L0.24708982810003377 0.24086281693004707 L0.263419580099967 0.22696185693007465 L0.2772688641000265 0.21021869293002737 L0.28936114910002075 0.19158933892995833 L0.28936114910002075 0.19143430993003108 L0.2949422040999572 0.17639646893002237 L0.306931136099994 0.1687483559300631 L0.3212971840999934 0.16265053692998777 L0.33369952909996314 0.15213438293002923 L0.3392805830999954 0.14017128892999153 L0.3448616380999887 0.11394549993005398 L0.3506493980999643 0.10014789193002116 L0.3673925621000116 0.07999408393004614 L0.3935408370999234 0.05715309993001938 L0.40365112309996576 0.05037883693006506 L0.42165281609996796 0.03831704093002486 L0.4449072110999772 0.030178002930000503 L0.46774819409998614 0.03891131993006525 L0.48314777109996854 0.06058958392998193 L0.49162270609997805 0.08609190192998994 L0.49249861109996473 0.09606176892995677 L0.49337970409996856 0.10609068193002713 L0.49162270609997805 0.10505715393003356 L0.4869718271000103 0.11058653192995394 L0.4795304210999838 0.12239459593004653 L0.4777734211000144 0.12944842992999384 L0.4759130701000096 0.14456378593007457 L0.47653318709999226 0.1513333979300171 L0.4799438320999947 0.16060931793003874 L0.4972037600999819 0.19158933892995833 L0.5300699710999233 0.21042539792998127 L0.5470198411000275 0.21685911493003118 L0.5652099450999835 0.2185127609300821 L0.574676756099965 0.21626900393005144 L0.5811262860999911 0.2147403809299533 L0.618953434099982 0.19815224593003222 L0.6281518400999779 0.19158933892995833 L0.6283585450999318 0.19138263393000443 L0.6531632330999777 0.17859271693004075 L0.7019457851000119 0.17967792093003254 L0.7273705890999373 0.1742260579300421 L0.7633373861000088 0.1387501879300146 L0.7848347821000381 0.12722634192996907 L0.8105696450999496 0.1382334229300568 L0.8312402180999676 0.1549765869300188 L0.8811596521000276 0.1753629399299541 L0.8980061691000039 0.1912792809300754 L0.8982128750999472 0.1912792809300754 L0.8982128750999472 0.19138263393000443 L0.8983162280999899 0.19158933892995833 L0.9264282060999314 0.24189634593003007 L0.9319059091000135 0.2475549159299817 L0.9453417810999589 0.25719256992999817 L0.9503027181000085 0.26489235893006935 L0.9499926601000119 0.27316058793002185 L0.9396573731000082 0.2848911379300034 L0.938417139099986 0.29129901493004695 L0.943068018100039 0.2975518639299537 L0.9586743000999753 0.3074737389300424 L0.9644620610999688 0.31354571892998706 L0.9668391770999882 0.32127134593008577 L0.9650821781000083 0.3347847329300748 L0.9665291181000022 0.3418902429299919 L0.9752107590999834 0.35827167193005494 L0.9833756350999785 0.3650671219299966 L0.9952612140999157 0.36638487193005176 L1.0635774580999886 0.3651704759300287 L1.078977035099971 0.3671083409300593 L1.2025870610999654 0.4344944089299645 L1.2192785330999847 0.4478685389300665 L1.2272883960999685 0.45428648293002993 L1.24640867609995 0.47376849793002407 L1.2842358241000262 0.5348758789300234 L1.2949845220999556 0.561515079930075 L1.2975683431000427 0.5791884189300731 L1.2977750491000144 0.6112019689299757 L1.303872868099976 0.6298829999300324 L1.3352921391000088 0.6913521159300444 L1.3399430180999765 0.7112733809300664 L1.3449039551000261 0.7244250319300249 L1.3449039551000261 0.7371115969299922 L1.3343619630999548 0.7554050529300582 L1.3261970870999313 0.7632598719299892 L1.3189623870999618 0.767316470929984 L1.3128645681000002 0.7728200109299905 L1.3081103360999329 0.7848864589300604 L1.308317041099972 0.792146996930029 L1.3133813320999685 0.8044718259300794 L1.312761215099986 0.8118098789300632 Z" fill="black" stroke="black" stroke-width="0.5" vector-effect="non-scaling-stroke"/></svg>