<svg xmlns="http://www.w3.org/2000/svg" viewBox="0 0 21.064270848599957 18.480745868039985"><path d="M4.067284554299986 12.280058707019961 L3.893703417299916 12.173036816019973 L3.720148119299976 12.065963248019969 L3.546566983300009 11.958941357019981 L3.372934171300015 11.851867789020005 L3.25190796730004 11.780657666019962 L3.2273729262999193 11.766242195019956 L3.084269620300004 11.682162385019993 L2.9166312742999576 11.58351207701999 L2.7489929282999963 11.484913444019995 L2.5814062572999585 11.38631481002001 L2.3834855222999902 11.269939485019975 L2.185564786300004 11.153564159019979 L1.987695727300034 11.037188834020029 L1.7897749912999625 10.920761832020005 L1.5918542562999942 10.804386507019998 L1.3939851963000347 10.687959505019975 L1.1961161372999793 10.571635856020052 L0.9981437252999665 10.455208854020029 L0.800274665300007 10.338885204020002 L0.6024572822999783 10.222458203019968 L0.40448487129998334 10.10613455301997 L0.20651245929999895 9.989707552019937 L0.20651245929999895 9.89565644501998 L0.20651245929999895 9.80165701502004 L0.20651245929999895 9.707709261020014 L0.20651245929999895 9.613683992019972 L0.20651245929999895 9.553687654019981 L0.20651245929999895 9.493768831019977 L0.20651245929999895 9.433901684020029 L0.20651245929999895 9.373982861020025 L0.20651245929999895 9.314038199019947 L0.20651245929999895 9.254093537019983 L0.20651245929999895 9.194174715019997 L0.20651245929999895 9.134230053020005 L0.20651245929999895 9.074362906020028 L0.20651245929999895 9.014444083020052 L0.20651245929999895 8.954499422019964 L0.20651245929999895 8.894580599019989 L0.20651245929999895 8.834635937019996 L0.20651245929999895 8.77471711402002 L0.20651245929999895 8.714849967019958 L0.20651245929999895 8.654905305019966 L0.20651245929999895 8.609223339019948 L0.2101298092999837 8.582299918020041 L0.22129191830000927 8.563438020020001 L0.24005046330000646 8.549175325019931 L0.3680788242999977 8.488042105020028 L0.41306315930000714 8.456364452020026 L0.4584867422999519 8.434117748019972 L0.4710957922999892 8.422774772019991 L0.5054089433000097 8.369341340019972 L0.5204467852999795 8.358592642019957 L0.555638436299942 8.34474335902 L0.5721232173000299 8.336061719020037 L0.6384240802999539 8.280354524019984 L0.706585294299968 8.239581819020017 L0.8192399172999654 8.195786043020021 L0.8525712153000296 8.175270499019959 L0.9438834712999533 8.09889273301998 L1.049768480300001 8.036080028019924 L1.1109017013000066 7.985798860019955 L1.158909106299971 7.963965567020026 L1.1742311683000235 7.9532943850200155 L1.2352868732999962 7.89893077801996 L1.2694449942999864 7.885701611019968 L1.3162121652999001 7.88751028602006 L1.3603955153000111 7.8941765460199775 L1.3827714112999825 7.89490001602006 L1.4048372472999784 7.892677929020053 L1.4256111733000107 7.885985831019937 L1.5392875669432424 7.8916839284153895 L1.630142385118118 7.8078179424077945 L1.7419636997948071 7.765884949404111 L1.8188408536349794 7.758896117236802 L1.9306621683116685 7.765884949404111 L2.1053829724939686 7.828784438909693 L2.189248958501535 7.758896117236802 L2.3290256018473183 7.744918452902212 L2.475791077360496 7.7099742920657235 L2.6155677207063928 7.695996627731105 L2.7623331962195703 7.695996627731105 L2.888132175230849 7.695996627731105 L3.0069423220747336 7.67503013122932 L3.1327413010860123 7.661052466894702 L3.167685461922529 7.751907285069493 L3.2515514479300958 7.7798626137387 L3.349395098272195 7.751907285069493 L3.454227580781575 7.633097138225523 L3.5450823989563656 7.507298159214244 L3.614970720629257 7.388488012370246 L3.7128143709713566 7.2976331941954555 L3.817646853480822 7.234733704689788 L3.929468168157511 7.150867718682278 L4.013334154164992 7.094957061343976 L4.118166636674401 7.046035236172898 L4.264932112187578 6.990124578834511 L4.4047087555333615 6.892280928492411 L4.516530070210051 6.766481949481133 L4.614373720552122 6.71756012431014 L4.733183867396205 6.68960479564096 L4.886938175076578 6.682615963473651 L5.054670147091654 6.647671802637248 L5.243368615608544 6.563805816629653 L5.236379783441235 6.500906327124071 L5.229390951273954 6.438006837618374 L5.278312776445032 6.3960738446146905 L5.334223433783334 6.319196690774405 L5.280156257299948 6.244251415019974 L5.278812670299969 6.224821077019996 L5.274368497299973 6.207096061019982 L5.2647566802999375 6.188595898019955 L5.253026130299956 6.179449170019964 L5.216955981299973 6.164256298020021 L5.199179288299943 6.149528515020037 L5.171790779299981 6.111856396020002 L5.157476407300008 6.098782258019966 L5.140035612299952 6.094906527020001 L5.125178637299937 6.101676139020029 L5.095929776299981 6.1254472970199885 L5.078101408300027 6.132216910019949 L5.061435758300005 6.13128673501997 L5.049576017299982 6.122295035020031 L5.046062019299937 6.104931754020029 L5.052728279300025 6.085346386019992 L5.073915617300001 6.054598909020044 L5.07598267329996 6.031757926019949 L5.069678149299959 5.956258658020019 L5.073708910299954 5.937965201020049 L5.086395474299989 5.924477652020002 L5.14143087529993 5.889957796019999 L5.215413286939336 5.885889096402266 L5.229390951273954 5.6273023062124 L5.297519539299939 5.59684907102006 L5.340152595300024 5.605168977020028 L5.377333788299948 5.60237845001997 L5.669687377813402 5.557413984539508 L5.886341174999556 5.501503327201121 L6.061061979181828 5.480536830699307 L6.01912898617803 5.382693180357123 L5.950167040299986 5.226484082019951 L6.007708748299931 5.198837190020029 L6.193330493300037 5.185452994019997 L6.372751066299996 5.142923290020022 L6.510262051299973 5.148349316020003 L6.573720711300011 5.15082978501998 L6.6454992753000095 5.153723664019978 L6.72378907029997 5.156824251020012 L6.807039802299981 5.160183219020027 L6.893442798299985 5.163645540020056 L6.981344409299963 5.167159538020016 L7.068935961299955 5.170621858020056 L7.154563810300003 5.174032503020001 L7.236522632299993 5.177288118019973 L7.3131071043 5.180388704020018 L7.382560229299967 5.183179231019963 L7.443280037299955 5.185608023020038 L7.493509529300011 5.187571728019961 L7.53149170629993 5.189070345019971 L7.555469571299964 5.190052197020023 L7.563944506299945 5.1904139320199505 L7.639340421299947 5.193462841019979 L7.67856283329999 5.185452994019997 L7.698303231299972 5.149899609020039 L7.693290616300002 5.12907400701998 L7.67706421629998 5.116775015020025 L7.656186938300008 5.111400667019964 L7.637066658299913 5.111607372020032 L7.599911303300017 5.1242164220199555 L7.5837365802999255 5.123958040019986 L7.579344083299928 5.1076799640200505 L7.5832198162999855 5.101401277019946 L7.59970459729996 5.090265006020033 L7.605905769299964 5.084942334019971 L7.61226197129997 5.074271150019982 L7.613708911299964 5.066054597020056 L7.613398852299978 5.05760550101995 L7.615474211300009 5.045681131020004 L7.63138225129998 4.95427847501999 L7.644766446299995 4.9182083250199895 L7.654739998299929 4.900509147019974 L7.670914721299935 4.882499910019973 L7.687192797299955 4.875265210020004 L7.728637296300006 4.870175081019923 L7.7657409742999715 4.8571784580199875 L7.798917243299995 4.835681062019958 L7.8568982012999395 4.780723176020032 L7.841395271300028 4.758114737019994 L7.561877448299979 4.576213696019963 L7.498367113299933 4.556344107019967 L7.465552579300008 4.532727978019935 L7.3301086503000175 4.34147350201998 L7.372535001300035 4.315635286019969 L7.380028084299992 4.30881399702001 L7.385919197299982 4.3004940910199565 L7.390053311299992 4.291114818020006 L7.392378751299928 4.28083120801999 L7.395531013299999 4.258972078020051 L7.395841072299985 4.235640169020016 L7.389381518300011 4.214917919019982 L7.372535001300035 4.201146150020051 L7.343389493300007 4.183291943019995 L7.31749960029998 4.163138134020031 L7.29682902829998 4.138514314019929 L7.283289802300002 4.1070950430199815 L7.265306404300018 4.078517976020024 L7.214663500299961 4.037150992019988 L7.205516772299971 4.004284782019951 L7.205671802300001 3.905892854020024 L7.2160587642999285 3.88051972602004 L7.229753018299958 3.8553533030199816 L7.2485115643000295 3.799594433019948 L7.263497729300012 3.780887565020052 L7.276158455299962 3.75365408501996 L7.27155925330001 3.7206845210200044 L7.226497403299957 3.6304316320199774 L7.215645352299928 3.6186235670199807 L7.198178719299959 3.607797354019951 L7.163503833299954 3.597410392019995 L7.14815593229997 3.588522046020003 L7.142109790300024 3.572734895019991 L7.146657316299978 3.5573611560199225 L7.156320808299993 3.5472584140199928 L7.1679480052999605 3.538757641019984 L7.17807658730001 3.528060620019957 L7.185673021299975 3.5133069980199565 L7.186396492299961 3.502299918020057 L7.1758544992999 3.4731285730200483 L7.166811124299953 3.423958446019995 L7.170170092299967 3.3770362470200297 L7.216782234300011 3.215934969019955 L7.219262703299988 3.1959103510200038 L7.216812524299938 3.183102598019971 L7.214146736299908 3.1691677970200516 L7.142833259299946 2.984812125019957 L7.117563484299977 2.9404220700200057 L7.079271248299959 2.9026724360200404 L7.185931404299934 2.7954438390199954 L7.1746659422999794 2.7900694900200307 L7.138234057299995 2.7809486000199826 L7.0177762942999475 2.67847423401993 L7.025941169299982 2.661524365020014 L7.078392748300017 2.5943966790199937 L7.102784025299966 2.549283154019932 L7.11575480929997 2.541066601020006 L7.11937215930004 2.5337802240200205 L7.101182055299914 2.5184323240200257 L6.9960721922999465 2.4634485990199977 L6.962172453299955 2.43704194302002 L6.909152433299935 2.40986013902004 L6.895406501299901 2.3962692380200536 L6.890497241299981 2.382419954019994 L6.889205330299914 2.3687773760199917 L6.885277921299943 2.3569434730199674 L6.872617195299908 2.348881949019969 L6.827658699300001 2.345419629020043 L6.793965665299934 2.327436230020041 L6.762856453300001 2.3031999830199794 L6.725597745299977 2.2810824700200527 L6.69510865029997 2.2715223300199483 L6.67722860430001 2.25167858001997 L6.667771817299949 2.22516857001996 L6.666333415299958 2.185822455019988 L6.6887943532999525 2.1789865170200073 L6.692781983299936 2.1802479100200003 L6.696281332299973 2.180654811019963 L6.699455160299975 2.182119655020017 L6.702506918299944 2.1864328060199796 L6.732007243299959 2.1741443950199937 L6.7666752122999565 2.1804513610200047 L6.802808024299962 2.19314667302001 L6.8365401212999455 2.2001046810199796 L6.9011966962999605 2.1926583920200073 L6.924145915299958 2.1988839780199783 L6.9324466962999605 2.2001046810199796 L6.939079183299951 2.197988796020013 L6.956413168299944 2.1864328060199796 L7.050203858299936 2.164216009019981 L7.0761641442999785 2.148591009019981 L7.084546306299954 2.1470040950200087 L7.114656983299936 2.147777207019999 L7.1277591962999605 2.145498561019963 L7.143302816299977 2.136302598019995 L7.176099040299958 2.1045236260200113 L7.240063884299955 2.0867013610200047 L7.25121297229998 2.0805978450200087 L7.259391683299951 2.062897650019977 L7.378532308299951 1.9796456970199756 L7.398022868299959 1.9741525330200034 L7.4929935712999605 1.9657296810199796 L7.519360759299955 1.959259955020002 L7.524894613299976 1.9567778580200184 L7.529940186299937 1.95291229802001 L7.556225993299959 1.9257719990200144 L7.575106202299933 1.9213774680200117 L7.594067790299958 1.910553900019977 L7.610262452299933 1.897126166019973 L7.621167399299962 1.884797064020006 L7.6297123212999605 1.864818223019995 L7.641593832299973 1.8173735610199628 L7.651847738299976 1.7993885350200003 L7.663485108299936 1.783844916019973 L7.6985599782999525 1.7089751240200144 L7.705558676299971 1.6986398370199822 L7.717358806299954 1.694082546020013 L7.740877686299937 1.6930246030199783 L7.7460860192999785 1.688223171020013 L7.771883545299941 1.658234564020006 L7.7825443532999525 1.6518869080200034 L7.806144613299976 1.6377674420199924 L7.836824952299933 1.6141671810199796 L7.848503011299952 1.5987049420199924 L7.855949301299971 1.592520046020013 L7.892204183299951 1.585521348019995 L7.911247152299948 1.5753488220199756 L7.927360433299951 1.5638742120199822 L7.94261922229998 1.5558175720199756 L7.966219483299936 1.5499581970199756 L7.9786706552999345 1.550812689020006 L7.984204509299955 1.559235541019973 L7.98949422229998 1.5633045510199963 L8.001335043299944 1.5591541600200003 L8.03942098029995 1.54080292302001 L8.063875733299936 1.506582546020013 L8.087231853299953 1.5012114520200157 L8.095369873299942 1.5050363220199756 L8.10277547229998 1.511994330020002 L8.111727295299941 1.5187081970199756 L8.124870199299947 1.5217192640199642 L8.134879965299943 1.5228585870199822 L8.154411215299943 1.5279041600200003 L8.165763754299972 1.5291248630200016 L8.177604574299947 1.5321359310199796 L8.183016358299936 1.539460150019977 L8.187573649299962 1.5482492120199822 L8.19644409229994 1.5558175720199756 L8.20629109729998 1.5577706970199756 L8.244377035299975 1.5558175720199756 L8.262443441299977 1.5521554620199822 L8.28278849329996 1.5441802020200157 L8.299552816299977 1.5326242120199822 L8.311637777299948 1.504303900019977 L8.32384480829995 1.502676296020013 L8.337638754299972 1.5060942640199642 L8.347974040299958 1.5073556580200034 L8.358472087299956 1.502228705020002 L8.365470785299975 1.495433457019999 L8.411857504299972 1.4157622330200184 L8.412834066299977 1.405020046020013 L8.410474040299958 1.4022531190199743 L8.40856160529995 1.3960275330200034 L8.408073324299947 1.389395046020013 L8.40941609729998 1.3850818950199937 L8.415112712299956 1.3838611920199924 L8.420890707299973 1.3863839780199783 L8.426017660299975 1.3899240170200073 L8.429842530299934 1.391348171020013 L8.43993367629997 1.390778509019981 L8.460767009299955 1.3923247330200184 L8.470858155299934 1.391348171020013 L8.512768962299956 1.37478729802001 L8.540356853299953 1.3680734310199796 L8.552726644299979 1.3742990170200073 L8.55744669629996 1.3855701760199963 L8.568188884299955 1.391022650019977 L8.57970418329995 1.3939523370199822 L8.586987712299956 1.3975330670199924 L8.590405681299954 1.4079497330200184 L8.584302165299958 1.4216216080200184 L8.586987712299956 1.432282416019973 L8.603345134299955 1.446849473019995 L8.629468181299954 1.4575916600200003 L8.700838623299942 1.4698800720199756 L8.743807373299942 1.484772650019977 L8.765006918299944 1.4881906190199743 L8.775220134299955 1.4863188740200144 L8.80581909229994 1.480744330020002 L8.85041544629996 1.4618234310199796 L8.89183797229998 1.437083848019995 L8.92341349329996 1.4118559830200184 L8.958854574299947 1.35330292302001 L8.969067790299958 1.3281157490200144 L9.002921957299973 1.2649240170200073 L9.01130411829996 1.241771348019995 L9.012687582299973 1.2305408790199976 L9.016186931299954 1.2243559830200184 L9.024487712299956 1.2195138610200047 L9.03441609729998 1.2151600200199937 L9.042879639299938 1.2101144470199756 L9.09105672229998 1.168610541019973 L9.108390707299973 1.158600775019977 L9.17235555129997 1.1406971290199976 L9.183341879299972 1.134349473019995 L9.18798055129997 1.1277169860200047 L9.209953207299973 1.1162423760200113 L9.218172608299936 1.1101388610200047 L9.221671957299973 1.1013091080200184 L9.226473389299938 1.0776274680200117 L9.231193441299977 1.0691639260199963 L9.248934327299933 1.061270046020013 L9.273348389299938 1.0571603450200087 L9.317293702299933 1.0554920510199963 L9.340242920299941 1.0519113220199756 L9.357170004299972 1.0428781190199743 L9.372062582299973 1.031525580020002 L9.445548910299975 0.9910389260199963 L9.483472087299956 0.9819650330200034 L9.500724691299977 0.9696359310199796 L9.51610555129997 0.9558826760199963 L9.532951254299972 0.9462798110199628 L9.552156983299936 0.9425363220199756 L9.629305420299941 0.9373686790199827 L9.64216349329996 0.9365141860199628 L9.657625733299936 0.9304106710200131 L9.691154379299972 0.9115304620199822 L9.753654379299972 0.8977365170200073 L9.769442139299938 0.8879708920200073 L9.77977742629997 0.8787342380200016 L9.802726644299979 0.8659982360200047 L9.81403849329996 0.8569650330200034 L9.818433024299962 0.849193223019995 L9.821037191299977 0.8405669210200131 L9.825187582299973 0.8315337180200117 L9.83446492629997 0.8227853450200087 L9.851473389299938 0.8169666600200003 L9.895988363299976 0.8082589780199783 L9.933667399299962 0.7882394470199756 L10.005851644299979 0.7879953060199796 L10.027742920299941 0.781729030020017 L10.06761922229998 0.7642322850200003 L10.091545004299972 0.7607329360199628 L10.13435099329996 0.7615467380200016 L10.154370524299962 0.759797064020006 L10.177156983299936 0.7538969990200144 L10.23558797229998 0.7301339780199783 L10.256584066299977 0.727204291019973 L10.274894613299976 0.7299712180200117 L10.318433024299962 0.7429106710200131 L10.341707764299938 0.7471017510200113 L10.365226644299979 0.7461658790199976 L10.406323649299962 0.7364002540199976 L10.589836019299979 0.7279367120199822 L10.605461019299979 0.727204291019973 L10.615633545299941 0.7251290950200087 L10.639071045299941 0.7159738220199756 L10.650138754299972 0.713532416019973 L10.658927816299977 0.71463104802001 L10.680412191299977 0.7196359310199796 L10.691805420299941 0.7197580010200113 L10.746492920299941 0.707673041019973 L10.802726644299979 0.7049061130200016 L10.849357504299972 0.712922064020006 L10.861727295299941 0.713532416019973 L10.94880411829996 0.7049874940199743 L11.198722738299976 0.6446033790199976 L11.218498129299972 0.6378488220199756 L11.240470785299975 0.6367908790199976 L11.26219930129997 0.641266791019973 L11.280753988299976 0.650869655020017 L11.287101644299979 0.6598214780199783 L11.289054769299979 0.6689360610199628 L11.292961019299979 0.6759347590199809 L11.304923910299975 0.6787830670199924 L11.31566609729998 0.6798410090199809 L11.336173910299975 0.6845610610199628 L11.345939535299975 0.6856190040199976 L11.489656983299936 0.6787830670199924 L11.521883545299941 0.6699940040199976 L11.61644734729998 0.6098947200200087 L11.681877035299975 0.5821847590199809 L11.707593181299954 0.56424042302001 L11.732495524299962 0.534740098019995 L11.73876180129997 0.521068223019995 L11.764559327299933 0.5003162700199937 L11.822013754299972 0.46654348302001836 L11.865959066299977 0.45925995502000205 L11.873771566299977 0.46015513701996724 L11.903068441299977 0.46341034502000866 L11.93675984729998 0.48013397801997826 L11.962882894299979 0.5037342380200016 L11.99071492629997 0.52322479802001 L12.029045004299972 0.533478705020002 L12.062166748299942 0.5325021420200073 L12.068270264299938 0.5322986920199924 L12.099357504299972 0.5177316340199809 L12.110099691299977 0.50369354802001 L12.114982504299972 0.48892304101997297 L12.116203207299973 0.4627999940199743 L12.126701254299972 0.4620675720199756 L12.19188680129997 0.486359564020006 L12.229403077299933 0.49441620502000205 L12.349601644299979 0.500031439020006 L12.369377035299975 0.4978748630200016 L12.407951254299972 0.48851613901996416 L12.428703207299973 0.486359564020006 L12.439364014299938 0.48367401702000734 L12.447013754299972 0.4774484310199796 L12.453198649299962 0.47077525401999765 L12.45946492629997 0.46654348302001836 L12.469311931299954 0.4651600200199937 L12.49071492629997 0.46703176401996416 L12.500968832299973 0.46654348302001836 L12.538566488299976 0.4511626240200144 L12.598380941299977 0.401927598019995 L12.630770264299938 0.3839425720199756 L12.71638224329996 0.3622140560199796 L12.762768962299956 0.35790090502001703 L12.801505941299977 0.36351613901996416 L12.83715047229998 0.38182668601996284 L12.852938233299936 0.3839425720199756 L12.86376180129997 0.382843939020006 L12.885327556299954 0.37820526702000734 L12.920321045299941 0.37735077501997694 L12.928377686299937 0.37820526702000734 L12.974357504299972 0.38304738901996416 L12.99372599329996 0.3913888610200047 L13.035392660299975 0.37332245502000205 L13.04841349329996 0.3709217380200016 L13.060457764299938 0.3729562440199743 L13.085929769299979 0.3818673760200113 L13.099357504299972 0.3839425720199756 L13.111727295299941 0.38093150401999765 L13.138175863299976 0.36725962901999765 L13.15087117629997 0.36351613901996416 L13.167472738299976 0.3646554620199822 L13.19489786829996 0.37466522801997826 L13.209220785299975 0.3771066340199809 L13.329582113299976 0.36351613901996416 L13.341870524299962 0.3650623630200016 L13.35700724329996 0.3691313740200144 L13.371330160299975 0.37466522801997826 L13.380851644299979 0.38052460301997826 L13.392977295299941 0.38581431701999236 L13.425285238299976 0.3865467380200016 L13.439445394299979 0.3913888610200047 L13.470451254299972 0.38019908201999897 L13.480379639299938 0.37987356101996284 L13.511792399299962 0.3787342380200016 L13.586906332299973 0.3839425720199756 L13.657951254299972 0.3771066340199809 L13.676017660299975 0.3797108010199963 L13.838778077299933 0.43533417302001 L13.857170004299972 0.44945363901996416 L13.86254109729998 0.4562081970199756 L13.87458536829996 0.4580392510200113 L13.888420004299972 0.45799856101996284 L13.898185629299972 0.45905650401999765 L13.905347087299956 0.46414276702000734 L13.914136149299962 0.4764718690199743 L13.918042399299962 0.48013397801997826 L13.93480672229998 0.48660370502000205 L13.954500733299936 0.4916085870199822 L13.97508992629997 0.4942941340199809 L13.99372599329996 0.49380585301997826 L13.973706462299956 0.5425119080200034 L13.979077556299954 0.5583403580200184 L14.007316488299976 0.575755723019995 L14.124748129299972 0.6241769470199756 L14.157951254299972 0.6310128840199809 L14.193270264299938 0.6321115170200073 L14.26130411829996 0.6241769470199756 L14.316968181299954 0.6112374940199743 L14.32274617629997 0.6098947200200087 L14.353752035299975 0.6098947200200087 L14.358472087299956 0.6074126240200144 L14.371086019299979 0.5948800720199756 L14.378003337299956 0.5899972590199809 L14.418042399299962 0.577464707019999 L14.437899170299941 0.5654204360199628 L14.45165242629997 0.5291248630200016 L14.465080160299975 0.5137440040199976 L14.482821045299941 0.5012521420200073 L14.500887452299933 0.49380585301997826 L14.544832764299938 0.4833078060199796 L14.563468832299973 0.4754953060199796 L14.599357504299972 0.44961640001997694 L14.62263224329996 0.4427804620199822 L14.64769734729998 0.4417225200199937 L14.716707764299938 0.45335988901996416 L14.757723389299938 0.4521798760200113 L14.926017660299975 0.42154022801997826 L15.085929769299979 0.37279348302001836 L15.12458536829996 0.35391327501997694 L15.14574422229998 0.3293364520200157 L15.147453207299973 0.30834035802001836 L15.143628337299956 0.2918201760199963 L15.143302816299977 0.2761544860200047 L15.155753988299976 0.2573556580200034 L15.16332234729998 0.2508859310199796 L15.203524170299941 0.2264718690199743 L15.217765707299973 0.21320689501999368 L15.227612712299956 0.2058419860200047 L15.260490316299977 0.19164113901996416 L15.304679769299979 0.18216034502000866 L15.351310629299972 0.18118378302000337 L15.391593832299973 0.1921701110200047 L15.427482504299972 0.2147531190199743 L15.433097738299976 0.21634003302000337 L15.433586019299979 0.2265532490200144 L15.435946045299941 0.23391815802000337 L15.441154379299972 0.2384347590199809 L15.450187582299973 0.23998098302001836 L15.461662191299977 0.24734589202000734 L15.472160238299976 0.2853097590199809 L15.488354899299962 0.30203339202000734 L15.503003337299956 0.29727265001997694 L15.520500082299973 0.3027251240200144 L15.540031332299973 0.31127004602001307 L15.560050863299976 0.31570526702000734 L15.710929769299979 0.32250051401996416 L15.723706462299956 0.3259998630200016 L15.741691488299976 0.3347889260199963 L15.758537191299977 0.34593801401996416 L15.768953858299936 0.3566802020200157 L15.768546957299973 0.3730376240200144 L15.798332113299976 0.3820708270200157 L15.83747599329996 0.3850818950199937 L15.86449422229998 0.3839425720199756 L15.953361410299975 0.36180715502001703 L15.981193441299977 0.349193223019995 L15.996981202299933 0.35480845701999897 L16.02220906629998 0.35985403002001703 L16.045890707299975 0.36042369201999236 L16.056388754299974 0.3529367120199822 L16.065340577299935 0.34325246802001175 L16.107658285299976 0.3142811130200016 L16.12181844129998 0.30825897801997826 L16.127921957299975 0.3036203060199796 L16.13597859729998 0.2927967380200016 L16.143140056299956 0.2804269470199756 L16.146232504299974 0.27098684302001175 L16.14444213929994 0.2597563740200144 L16.13939656629998 0.251984564020006 L16.100008545299943 0.21808970701999897 L16.070548910299976 0.19839569701997561 L16.070548910299976 0.1921701110200047 L16.08161661829996 0.19082733701998222 L16.101066488299978 0.18582245502000205 L16.111564535299976 0.18533417302000998 L16.121655681299956 0.18789765001997694 L16.14021036829996 0.1965239520200157 L16.149406332299975 0.19839569701997561 L16.15160359729998 0.1991281190199743 L16.15534708729996 0.2004302020200157 L16.159578858299938 0.20409231101996284 L16.16364786829996 0.20580129602001307 L16.16991414429998 0.20205780601997958 L16.177156983299938 0.19485565802000337 L16.18155151429994 0.1926177020200157 L16.18659708729996 0.1921701110200047 L16.196199952299935 0.19497772801997826 L16.21475463929994 0.20392955101999632 L16.224845785299976 0.2058419860200047 L16.233309327299935 0.2036854100200003 L16.25886271229996 0.1921701110200047 L16.272371827299935 0.19212942102001307 L16.275138754299974 0.19302460301997826 L16.275789795299943 0.19701223302001836 L16.282951254299974 0.2058419860200047 L16.28710164429998 0.21711314501999368 L16.293530681299956 0.22354218101997958 L16.307121176299972 0.22630910802001836 L16.32722208729996 0.2265532490200144 L16.336011149299964 0.2285063740200144 L16.34496297229998 0.23314504602001307 L16.36132039429998 0.22508840502001703 L16.379142660299976 0.22012421201998222 L16.415031332299975 0.24197479802000998 L16.444816488299978 0.26724335301997826 L16.47777547229998 0.28750702501997694 L16.522453207299975 0.29458710301997826 L16.53230021229996 0.29247121802001175 L16.541089274299964 0.2888904880200016 L16.55077351929998 0.2866525330200034 L16.563387452299935 0.28836151702000734 L16.574699301299972 0.29271535802001836 L16.584871827299935 0.29812714202000734 L16.59374226929998 0.3045968690199743 L16.601636149299964 0.3119210870199822 L16.64965047229998 0.30825897801997826 L16.659660238299978 0.3050037700199937 L16.677970785299976 0.28856496802001175 L16.68749226929998 0.28152558002000205 L16.679923910299976 0.3019113220199756 L16.667472738299978 0.32400604802001 L16.66315958729996 0.3436593690199743 L16.680086670299943 0.3566802020200157 L16.662345785299976 0.38516327501997694 L16.662671306299956 0.3853667250199919 L16.69880411829996 0.40697317102001307 L16.755363363299978 0.4207264260199963 L16.797355551299972 0.42556854802001 L16.938875733299938 0.39753306701999236 L16.961906332299975 0.3877267510200113 L16.981925863299978 0.37332245502000205 L17.122062582299975 0.31704804101997297 L17.140047608299938 0.32644745502000205 L17.157625733299938 0.341380723019995 L17.17699422229998 0.349193223019995 L17.222160238299978 0.34732147801997826 L17.24486531629998 0.349193223019995 L17.26293172229998 0.3566802020200157 L17.277742920299943 0.3518787700199937 L17.290519613299978 0.35651744201999236 L17.303296306299956 0.36489960301997826 L17.31761922229998 0.3709217380200016 L17.352124431299956 0.37356659502000866 L17.386466879299974 0.3709217380200016 L17.490796306299956 0.3357654880200016 L17.49140810092112 0.33561253942018254 L17.494552823299955 0.36207815701995116 L17.493726001299933 0.3741446040200316 L17.497136645299975 0.38440237602002014 L17.531449796299995 0.4266220210199805 L17.530622973299955 0.43876598201997297 L17.512742927299996 0.44904959201998906 L17.443393155299958 0.47147716401998707 L17.40897665130001 0.4772132480200213 L17.371562914299943 0.47514619001997005 L17.33290894329994 0.47891857001998517 L17.30200643729995 0.49121756102003644 L17.295598559300004 0.5071339030199766 L17.330531827300007 0.521913362019987 L17.35068563629997 0.5423255530199214 L17.342107348300033 0.5774655270199816 L17.31926636529994 0.612502148019999 L17.29683879329994 0.6325009270200184 L17.175812589299966 0.6917221190200138 L17.111217048300006 0.7113591630200489 L17.082381599299964 0.7261386220200592 L17.058817146299987 0.7492896640200541 L17.056787841300036 0.7831283240199838 L17.05675008930001 0.7837578440200303 L17.097677823299932 0.7972970700200079 L17.184494229300014 0.8064437990199878 L17.203821215299968 0.8145053210199791 L17.222734790299995 0.8187427890200212 L17.238134367300006 0.8263392250199928 L17.246609301299998 0.8447360350199773 L17.24857300529993 0.8639079910199854 L17.247022713299998 0.9051974600199202 L17.244320785300005 0.9190073170200179 L17.2433020103 0.9242143880199905 L17.19596639829993 1.0314946610199485 L17.191212166300033 1.0727841310200432 L17.19596639829993 1.0926278800200322 L17.203407804299957 1.1111797200199902 L17.20599162529996 1.1292147940199726 L17.196896573299995 1.1481283690200286 L17.18563111130001 1.1647165030199318 L17.16454712730001 1.2383037430199266 L17.161343188299924 1.2933908200199795 L17.157321073299954 1.305259355020027 L17.13612508929998 1.3678048820199962 L17.130337328300016 1.4473865880199384 L17.134678149299987 1.4898129390199557 L17.146563729299913 1.5247978840200602 L17.1954496333 1.5902202470200422 L17.212502856300034 1.6229314290200278 L17.216123153299975 1.653717875020007 L17.22593872829998 1.7371880200199854 L17.225628669299994 1.7667469400200133 L17.189765225299965 1.8376470040199848 L17.178913174299993 1.8725285970199508 L17.176846118300034 1.9090638340199888 L17.183253995299992 1.9500432450200123 L17.206301684299945 1.9856483070199857 L17.24412883330001 2.0007895010200087 L17.285780037299958 2.0114348460199807 L17.320196541299993 2.0333973300199517 L17.3102746653 2.053034374019987 L17.24981324029997 2.1292054350199834 L17.202580981299946 2.1720451980200295 L17.18935181430004 2.2074435540200312 L17.17178182829997 2.2810824700200527 L17.147907316299978 2.3344642240199533 L17.137778734300014 2.3731698720199716 L17.13963908629995 2.410376904019998 L17.158242602299993 2.5112493000199976 L17.155452075299934 2.524840201019984 L17.14761213229997 2.5338253030200093 L17.146253669299938 2.5353821930199416 L17.114110929299983 2.563442496019988 L17.102328702299985 2.5783769850200287 L17.09953817530004 2.593931591020052 L17.125376391299966 2.6274695950199742 L17.117728279299968 2.638683381020016 L17.08176148230001 2.6573902500199864 L17.07545695829998 2.6655551270200277 L17.068428963299993 2.682970084019942 L17.064088142299994 2.689843050020002 L17.056129972300027 2.6965609860200317 L17.032565518300032 2.7083948890199707 L16.991380832299996 2.738768595020005 L16.982956144299976 2.7449818030199964 L16.887974861299966 2.7809486000199826 L16.846220304300004 2.805701611019984 L16.759507251299965 2.8372242350200594 L16.720439867299945 2.860737011019964 L16.700802823299995 2.8958511470199966 L16.663182381299976 3.0141643390200414 L16.65419068129995 3.030416577019949 L16.641684985299946 3.04297395001997 L16.622771410300004 3.051345532019937 L16.559209399300016 3.0598204670200317 L16.520348721299968 3.0760210280199516 L16.492960213300023 3.099637158020059 L16.468465583299974 3.1266639310199906 L16.428125891299942 3.161365464019994 L16.40635051229998 3.180097363019925 L16.392604581299963 3.2071499750199877 L16.389503995300004 3.2808664050200065 L16.36873007029996 3.3812220380199705 L16.37379436029994 3.420108553020029 L16.38743693829997 3.4751439530199804 L16.39436158030003 3.4922746900200394 L16.423093676300027 3.5388868320199975 L16.433325610300017 3.590873323020034 L16.441903897299966 3.6163756420199746 L16.505465909300028 3.709160677019966 L16.58205038129995 3.821014314019962 L16.59713990030002 3.8602625650200224 L16.59718389530002 3.864419319019973 L16.598586840300015 3.996972566019977 L16.613883064299984 4.043713899019977 L16.63961792729998 4.067459220020012 L16.676411547299978 4.0768126540199745 L16.7243672763 4.08058503401999 L16.7608508383 4.090997835020019 L16.871645109300005 4.158306388019994 L16.891075447299983 4.166755484020015 L16.911539314299972 4.172078157019953 L16.932519946299948 4.173292554019994 L16.953397224300033 4.169339306020007 L16.97572144329999 4.180837312020017 L17.0702893143 4.30530000002004 L17.17178182829997 4.438754386019994 L17.18532105329996 4.470716260019984 L17.198860278299918 4.61125031701998 L17.20847209430002 4.714525667019942 L17.220150968300004 4.7474952310199825 L17.2215249523 4.7487678960200554 L17.248883064300003 4.774108594020035 L17.371562914299943 4.840331941020011 L17.531243091299928 4.938465486019979 L17.740429288299964 5.066881421019971 L17.908791105299912 5.170260123019958 L17.922640388299982 5.184367789019987 L17.93390585130004 5.20328136301994 L17.9522014943 5.2749317900200055 L17.954886482300026 5.285446891019959 L17.983411873299985 5.395517692019965 L18.01162720529996 5.505588493019971 L18.04004924329999 5.615555940019945 L18.068367927299988 5.725626741019951 L18.096686613299966 5.8356975420199575 L18.12510865029998 5.945716666019976 L18.15332398329997 6.055787467019982 L18.181849373299997 6.165806591019972 L18.2101680582999 6.275877392019979 L18.238486742299983 6.385948193019985 L18.26680542829999 6.495967318019964 L18.2952274653 6.606038118019981 L18.323649503300032 6.716057243019961 L18.35196818830002 6.8260763660199615 L18.380286873299923 6.936147168019957 L18.408605557300007 7.046217968019974 L18.175441495299964 7.157994091019944 L18.198902595299955 7.190756949020042 L18.258384254299983 7.252329546019993 L18.3106270422999 7.306408805019984 L18.43857788829996 7.47280691701998 L18.55660686029995 7.666800244019996 L18.6358268308 7.90669516151992 L18.71504680129999 8.146590079019958 L18.737164314300003 8.299397290019968 L18.740161547300005 8.489127311020027 L18.716173476299957 8.656476640020045 L18.665850838300003 9.007545280019983 L18.67876994530002 9.065681266019979 L18.82480754330001 9.408399364019985 L18.82315389729996 9.447725130019975 L18.820171396299912 9.456481335019973 L18.7522538323 9.655877799020018 L18.735510668300037 9.675824902019954 L18.707398689299993 9.68938996601996 L18.68280070830002 9.705383821019993 L18.686004646299978 9.726209423020052 L18.70057740029995 9.748585318020034 L18.710499275300037 9.769436759019996 L18.702541104299996 9.788634554019993 L18.65944296029997 9.83090587501998 L18.645180264299995 9.852093212020051 L18.631951098299993 9.911004345019947 L18.615414640300003 9.950433463019962 L18.61076376129995 9.966659863019984 L18.610246996299992 9.983247997019973 L18.694996346299945 10.250001741020057 L18.714426684300008 10.354543164020058 L18.724038500300026 10.374128531019991 L18.734993904300012 10.383171907019957 L18.779745694299976 10.405547802020024 L18.79555868229997 10.417640087020018 L18.799486091300025 10.432006135020018 L18.7743713463 10.538511262019952 L18.77147746529991 10.573341178020016 L18.78294963329995 10.60114309801996 L18.785223397299944 10.622330436020022 L18.743468839299993 10.750746370020025 L18.72465861729998 10.77090017802 L18.371501879299956 10.922570508020002 L18.3702616443 10.942517610020033 L18.366540941300002 10.959570833019953 L18.357755948299996 10.974091910019993 L18.323649503300032 11.003134065020006 L18.305356046299977 11.04287324101999 L18.29140340929999 11.058944612020056 L18.266702075299975 11.106176871019997 L18.29005982230001 11.161729036019992 L18.430206306299993 11.338772493019988 L18.582858488299962 11.531628939019996 L18.705641691299945 11.686658235020005 L18.85839722429995 11.879721386019966 L18.89684449029997 11.943696810020057 L18.910280362299943 12.007103792019976 L18.914414477299943 12.138723665020038 L18.918858650299967 12.280058707019961 L18.920925707299915 12.41878409001994 L18.933431404299938 12.44550080501999 L19.08225952929996 12.525185863020042 L19.101069751299974 12.552264314020007 L19.118639737299958 12.645178540019955 L19.131145434300038 12.680008455020001 L19.149232185300036 12.698482779019926 L19.280697029299972 12.795143546019986 L19.299403897299953 12.801835644020017 L19.339091398299956 12.798192455020015 L19.45567342930002 12.758659985019975 L19.566260994299967 12.721272086020022 L19.58796509529995 12.718998323020017 L19.609565844299937 12.722822379019945 L19.800251879299935 12.780622469019946 L20.038893643299986 12.852788606019956 L20.356138028299938 12.948784745020006 L20.39752808429992 12.961309114019954 L20.43029094230002 12.977613028019974 L20.45602580529993 13.00828299102001 L20.525375577299968 13.137474072019998 L20.59751587729997 13.272142855019993 L20.599038116299965 13.27498598201997 L20.71120402829996 13.484481314019988 L20.781277270299995 13.61506765901997 L20.85775838929996 13.757772127019948 L20.789752205300005 13.797950553019959 L20.72164266729999 13.838077302019983 L20.65363648229993 13.878178214020053 L20.585630298300032 13.918279126019954 L20.51752075929994 13.958405875019977 L20.449411222299915 13.998532625019962 L20.381508389299967 14.038607698019959 L20.31339885229997 14.078708610019945 L20.245289314299953 14.118861197020053 L20.17738648229991 14.158962109019953 L20.109276945299996 14.199063020019949 L20.04116740629999 14.23924144601996 L19.973264575299964 14.279368197019963 L19.90515503629996 14.319469108019959 L19.837045499299933 14.359595857019983 L19.76893596130003 14.399748446019984 L19.700929776299944 14.439797680019964 L19.63282023930003 14.479924430019977 L19.56471070129996 14.520077018019961 L19.496704516299957 14.560177929019957 L19.428698331299984 14.60022716402004 L19.360588794299986 14.640379752020053 L19.292685961300037 14.680480663019964 L19.22457642430001 14.72058157501995 L19.156466885300006 14.760785840019977 L19.088460701299937 14.800886751020059 L19.020454516299964 14.84098766201997 L18.952344978299948 14.881088574019955 L18.884338794299993 14.921241161019978 L18.8163326083 14.961342073019964 L18.748223071300004 15.001442985019978 L18.680216886299917 15.041543896020059 L18.612210701299944 15.081696484019957 L18.544101163299928 15.121797395019954 L18.476094978299955 15.16189830601995 L18.407985441299957 15.20205089501998 L18.339979255299966 15.242203483019992 L18.271973071299982 15.282304394019988 L18.203863532299977 15.322405306020059 L18.13585734830002 15.362557893019968 L18.06785116330002 15.402607128020051 L17.999741625300032 15.442759716019978 L17.931735441299963 15.482860628019964 L17.863729255299972 15.523013216019976 L17.795619718299974 15.563062451020059 L17.72751018029996 15.603215038019968 L17.659503995299985 15.643315950019954 L17.591394458299987 15.683468538019966 L17.523388272299997 15.723621126019978 L17.4552787353 15.76377371401999 L17.38727255029991 15.803822949019988 L17.31916301230001 15.843975537019972 L17.25115682729995 15.884076448019968 L17.18315064229995 15.924177359019964 L17.115041104299962 15.964278271019978 L17.046931567299936 16.004379183019964 L16.979028735300005 16.044531770019987 L16.91091919729999 16.084632682019972 L16.842809659299974 16.12473359301997 L16.77490682729993 16.16488618101998 L16.706797289300027 16.205038769019993 L16.63868775130001 16.245139681019978 L16.570784919299967 16.28529226901999 L16.50267538229997 16.325393180019987 L16.37162395029995 16.40254609301995 L16.27250855329993 16.483471386019957 L16.201195076299967 16.54165904901994 L16.129778246299963 16.599950065019996 L16.058361417300034 16.65813772701999 L15.986944588299933 16.71637706702002 L15.909429939299967 16.779680696019923 L15.871706143299944 16.811513378019967 L15.814035246299964 16.86112275402003 L15.750989998299927 16.915383008019987 L15.687944750300003 16.969591585020012 L15.625002856299998 17.023800163019942 L15.561854255300032 17.078008740019968 L15.498860685300029 17.132268994019924 L15.435815437299992 17.18647757101995 L15.37266683729993 17.24073782501999 L15.30982829529995 17.294946403020006 L15.246679695300001 17.349206657019963 L15.183634447299964 17.403441072019987 L15.120589200299944 17.45764965002003 L15.05754395330001 17.511909904019987 L14.994498705299973 17.566118481020013 L14.93145345830004 17.62037873501994 L14.868304858300005 17.674587312019966 L14.805259610299968 17.728847566019923 L14.72650472729998 17.796492016019997 L14.68319987730001 17.825327465020038 L14.63824138129999 17.84142467401999 L14.50936035929996 17.86612600902002 L14.409728197299982 17.885220450020014 L14.190723478299985 17.927130037019978 L13.97171875729998 17.969117138019996 L13.872086596299935 17.98815990401998 L13.683364265299955 18.024359244020005 L13.49474528829998 18.060506909019935 L13.30612630929994 18.09670624901996 L13.117507332299992 18.132879752020003 L12.946458341299914 18.164686596019934 L12.775409350300036 18.196493441019967 L12.679188640299968 18.214353028020028 L12.604463712300001 18.228222770019997 L12.433518074299938 18.260055452019955 L12.328718270299985 18.279485790019933 L12.328614917299943 18.279485790019933 L12.247586270300017 18.298270174020033 L12.221954760299978 18.299562085019986 L12.207278653299964 18.297417513019994 L12.197253426299964 18.29343842701992 L12.173792325299983 18.279382437020004 L12.114881192299974 18.22406281701997 L12.06868246229993 18.20512340402003 L12.047495124299955 18.19357372201999 L12.027651375299966 18.17907848301995 L12.009771329300007 18.16230948002 L11.99302816529996 18.139597688020004 L11.991581225299965 18.121562613020004 L12.000676277299958 18.10378592101999 L12.015455737299957 18.081771760020004 L12.023103848300023 18.06226390702001 L12.02816813930002 18.05319469301996 L12.041604012299954 18.04492646402001 L12.063308113299966 18.023480745019967 L12.067752286299962 18.006401684019934 L12.072713223300012 17.967618521019986 L12.081808276299993 17.949325065020005 L12.100411791299932 17.934261384019933 L12.121599129299993 17.923280142019948 L12.139892586299963 17.909663403019962 L12.149711108300037 17.886796581020022 L12.147127286300018 17.86473074501994 L12.136378588300003 17.848659375019977 L12.12366618629997 17.83377656202002 L12.114881192299974 17.815431429020023 L12.11508789830003 17.805922965019974 L12.12056560030001 17.786079215019967 L12.121185718299982 17.77964549902002 L12.116948250300025 17.770963859020057 L12.111780607300032 17.76706228802 L12.106406257299964 17.763961702019955 L12.101135261299929 17.757967236019923 L12.088319506299966 17.721354484019983 L12.08718262429994 17.68272635001999 L12.105682788299985 17.481059073019978 L12.101652025299982 17.467364819019977 L12.087699389299983 17.454600741020002 L12.072093107299962 17.447391878019957 L12.035919604300004 17.437185783019984 L12.019383145300024 17.42989940501998 L11.961505541299998 17.386232820020027 L11.834898282300001 17.333471183019995 L11.560703133299993 17.278900870019967 L11.50582276129998 17.276756299019993 L11.414562182299987 17.259961458020015 L11.403710131299958 17.259186311020002 L11.384279792299962 17.255026359019965 L11.348209642299961 17.236345328019993 L11.328779304299983 17.22903311302001 L11.30459473429991 17.22383963201999 L11.28929851029997 17.21856863601998 L11.277619636299987 17.207716585019924 L11.237105313299962 17.137488314020047 L11.20537598429996 17.094958610019987 L11.16847901129992 17.057183137020004 L11.107087410300037 17.011036083019988 L11.089724128300018 17.00121756102 L11.071327319299938 16.996618359019962 L11.050243334300005 17.000184032020016 L11.02709229230001 17.014395052019992 L10.98637126430003 17.05093029002002 L10.960119637300009 17.06185985501999 L10.945236824299966 17.06007701802001 L10.882294929299972 17.03917390102002 L10.872269702299944 17.033205273020016 L10.864518236299942 17.02669404301993 L10.856043301299932 17.021707267019977 L10.844157722299995 17.020208650019967 L10.830101733299982 17.02400686802001 L10.813151863299991 17.03899303301999 L10.802299812300019 17.044031486020046 L10.780285652299964 17.043333854019963 L10.772740893300009 17.03098318602001 L10.769226895299964 17.012069612020056 L10.759511726299904 16.991579907019982 L10.743905443299978 16.98028860602001 L10.727782397299988 16.97920340102003 L10.709798998299986 16.981528840019976 L10.688094897300003 16.980236930020013 L10.667010913299974 16.97083181901995 L10.548051765299958 16.877607536020022 L10.538129891299972 16.863034782019966 L10.538956713299994 16.78810395502002 L10.532858894300032 16.75244721602003 L10.512601732300025 16.72387014901996 L10.448626309300037 16.677619742019985 L10.409248868300038 16.65813772701999 L10.372351895299998 16.652504996020056 L10.3546785563 16.64160126902 L10.336385098299955 16.63638195001998 L10.296077482299976 16.630077424019973 L10.252875984299946 16.617416698020023 L10.235822761300026 16.60599620801993 L10.22042318429993 16.587185986019918 L10.199442553299944 16.552407747019984 L10.18559326929997 16.54165904901994 L10.162235522300021 16.535716259019935 L10.141151537300003 16.536129671019964 L10.101360684299975 16.544242871020046 L10.080173347299931 16.54455292901993 L10.057435717299965 16.54165904901994 L10.043483080299948 16.536336377019992 L10.036145027299964 16.523675651019957 L10.03345785229993 16.498870963020025 L10.034181323299945 16.47923391901999 L10.056402188299982 16.389110221020005 L10.069011238299991 16.27981456702001 L10.0668408283 16.257800407020014 L10.048237312299959 16.193618278019997 L10.035421557299967 16.173412792019988 L9.918219409300006 16.096776643019965 L9.831506355299977 16.040087597019962 L9.744896655299923 15.983450228019976 L9.658286954299994 15.92681285802 L9.57157390130004 15.870227164020022 L9.484964200299997 15.81353811802002 L9.398354499299982 15.756849072020017 L9.311693123300016 15.700160026020015 L9.225057584299973 15.643522656019925 L9.138396207299932 15.586885286020035 L9.051864022300036 15.530299592020057 L8.965150968299978 15.473662222019968 L8.892632229300004 15.42622450301998 L8.878489591300022 15.416973177019955 L8.79185405229998 15.360284130019963 L8.70516683729994 15.303646760019987 L8.618505460299984 15.247009390019983 L8.53186992229996 15.190372021019996 L8.4452343822999 15.13373465202001 L8.358573006299961 15.07704560501999 L8.271963305299918 15.020356559019987 L8.185250252299964 14.963719189020011 L8.098588875300008 14.907081820020025 L8.011979174299993 14.850496126020047 L7.925317797299952 14.793858756019958 L7.838708096299994 14.737169710019955 L7.751995044300029 14.680480663019964 L7.6653853432999295 14.623843294019977 L7.578775642299972 14.56715424802006 L7.492114266299948 14.510568554019997 L7.405401212299976 14.45395702302001 L7.31884318729996 14.39724213801999 L7.232181811299908 14.340553092019988 L7.1455721102999785 14.283941560020011 L7.058859057300024 14.227304191020025 L6.972249356299981 14.17066682102002 L6.88558797929994 14.114081128019976 L6.7989782793 14.057366243020041 L6.712265225300028 14.000677197019954 L6.625707201300029 13.94401398901995 L6.5390458252999775 13.88737661902006 L6.452384447299947 13.83076508701997 L6.365671394299964 13.774127718019983 L6.279061694300024 13.717438671019991 L6.1924519933000095 13.660775464020006 L6.105790616299968 13.604138094020001 L6.019129239300012 13.547500724020026 L5.93249370029997 13.490889193020038 L5.845832324300032 13.434200146019933 L5.759248461299903 13.377511100020016 L5.679408373300019 13.325421256019965 L5.599774991299965 13.273279736020001 L5.520089933300026 13.221164054019951 L5.440353198299958 13.169100048020013 L5.360616462299985 13.117010205019952 L5.28087972830002 13.064920361019986 L5.201272184299993 13.012778841020022 L5.121561287300038 12.960688997019972 L5.041902067299985 12.908547477020008 L4.962165331299927 12.856405956020026 L4.882402758299973 12.804316113019993 L4.80274353729993 12.752226269020028 L4.723032641299964 12.700136425019977 L4.6433992592999385 12.64804658202003 L4.563662523299966 12.595905061019963 L4.4839516273 12.543815218020015 L4.37287313530001 12.471132316019961 L4.296547045299972 12.423434969019993 L4.220220955299935 12.375789298019967 L4.143972379300008 12.32806611302 L4.06767212629998 12.280368766020032 L4.067542935299967 12.280317090020006 L4.067362068300012 12.280162060019975 L4.067284554299986 12.280058707019961 Z" fill="black" stroke="black" stroke-width="0.5" vector-effect="non-scaling-stroke"/></svg>