<svg xmlns="http://www.w3.org/2000/svg" viewBox="0 0 2.9845874026199795 3.5511572258399866"><path d="M0.5247847498099816 3.248275552919985 L0.5395552578099796 3.235987141919999 L0.5485477708099893 3.2420092769199655 L0.547327067809988 3.254379068919981 L0.5316206868099869 3.2612150059199863 L0.4734745288099873 3.264144693919981 L0.45650675480999325 3.268701984920007 L0.43221476280999127 3.286280109920007 L0.39400675480999325 3.3368985999199836 L0.3671512858099959 3.3581388339199876 L0.3603153488099906 3.3505704749199836 L0.31934041380998224 3.323389484920007 L0.2929732258099875 3.310205891919999 L0.2845503748099816 3.3028816729200017 L0.32715291380998224 3.2779793289200043 L0.34322550480999325 3.2748868809199863 L0.37793416380998224 3.2755379229200017 L0.3942915858099809 3.2726896159199796 L0.41732218480998995 3.2439624019199655 L0.45435017980997827 3.2358243809199863 L0.4957320158099776 3.2380216469199823 L0.5247847498099816 3.248275552919985 Z M1.6519413248099966 3.206690266919999 L1.6717574058099842 3.2140958659199796 L1.6756636558099842 3.228744302919985 L1.6686649578099946 3.239079589920017 L1.6556441248099816 3.2338712559199863 L1.6477095548099783 3.2421720379199783 L1.6396122238099906 3.2458341469199823 L1.630823160809996 3.245427245919963 L1.6209354658099926 3.240707193919981 L1.6174361168099836 3.2494962559199863 L1.611536051809992 3.2540535479200017 L1.603275960809981 3.255192870919963 L1.5929813638099972 3.254379068919981 L1.590295817809988 3.242416177919985 L1.5865116378099913 3.2322436519199655 L1.5810184738099906 3.2245939129199783 L1.573124593809979 3.2201993809199863 L1.5882613118099869 3.209457193919981 L1.609338785809996 3.2057137039200043 L1.6519413248099966 3.206690266919999 Z M2.9542281088099855 3.5163419589199876 L2.94271280980999 3.507145995919963 L2.9522749838099855 3.503239745919963 L2.9553267418099836 3.504379068919981 L2.9542281088099855 3.5163419589199876 Z M1.4395796718099803 3.1583504229200017 L1.4476363118099869 3.152572427919985 L1.4576053878099913 3.1523282879199783 L1.4686324058099842 3.155583495919963 L1.4801883958099893 3.160466307919968 L1.4556522628099913 3.1725919589199876 L1.4460493978099862 3.1713712559199863 L1.4395796718099803 3.1583504229200017 Z M0.042973225809987525 0.0359545899200171 L0.04232218480998995 0.04555745392000432 L0.034265543809993915 0.049545083919987576 L0.029260660809995898 0.0437670899200171 L0.030155843809978933 0.03481526691999903 L0.042973225809987525 0.0359545899200171 Z" fill="black" stroke="black" stroke-width="0.5" vector-effect="non-scaling-stroke"/></svg>