<svg xmlns="http://www.w3.org/2000/svg" viewBox="0 0 0.36580712982005004 0.22509788807998632"><path d="M0.30413647540996624 0.14878704203996307 L0.29462801140997374 0.1571069470399138 L0.28346590140995875 0.16095684103995467 L0.2713736164099645 0.1610601950399868 L0.259488037409942 0.15785625604001297 L0.25690421541003605 0.15475567003996815 L0.2541136884099773 0.1539288470399569 L0.2511164554099752 0.15503989003993723 L0.24749910540999043 0.1581663140398959 L0.23664705441001832 0.18514141204001788 L0.20460766641003136 0.1951408020399512 L0.1415624194099836 0.2012127820398959 L0.1359813644099903 0.20591533803996498 L0.1316405444100086 0.21165142203994236 L0.12533601940998995 0.21733583003997836 L0.1137604984100209 0.22206422303997186 L0.10559562241002585 0.2228910460399831 L0.04503084340996555 0.2169224180399496 L0.03355867540995394 0.21061789303995937 L0.03355867540995394 0.19808635803993724 L0.004723226409997672 0.16480673603998497 L0.02167309540991358 0.15909649003994986 L0.027357503409978 0.15801128503996864 L0.047097900409942106 0.14749513203999953 L0.04368725640998594 0.13168214203999895 L0.02611726941001269 0.12010662203996247 L0.003586344410000386 0.12232870803995155 L0.006893636409988524 0.11095989403997208 L0.023430095409996632 0.08977255603999623 L0.023533447410021502 0.08592266203995536 L0.015161865409941022 0.08173687103992933 L0.016402100409981024 0.07230592203998043 L0.02198315541000273 0.06220318003993697 L0.026427327410009305 0.05618287503997266 L0.0485448414100107 0.049516615039969736 L0.06394441741000367 0.010113336039971443 L0.09557039441000814 0.011327732039994487 L0.1249226074099612 0.003033664039939765 L0.1402188324100324 0.0022068420400032096 L0.19447908640996037 0.029647027039963803 L0.2054344894100426 0.033445245040006455 L0.3191226404099483 0.04171347403995895 L0.3104410004099849 0.062022312039964334 L0.32656404640997483 0.06956707103991988 L0.34981844040996624 0.07488974403997162 L0.3582371524100312 0.08392231904002045 L0.36222078541004965 0.08819642503998892 L0.33710603841001774 0.08992758603996975 L0.31881258241003696 0.10305340004000385 L0.30775382541003626 0.12382732503996152 L0.30413647540996624 0.14878704203996307 Z" fill="black" stroke="black" stroke-width="0.5" vector-effect="non-scaling-stroke"/></svg>