<svg xmlns="http://www.w3.org/2000/svg" viewBox="0 0 12.640166575440013 13.91300502917995"><path d="M1.5282318987199766 0.3805214760900286 L1.5198603167200098 0.40915021909001315 L1.4841002257199953 0.4220693280900223 L1.287729782719932 0.46785464708996916 L1.2574473937200104 0.48501122209002734 L1.2407042297200483 0.50361473708998 L1.2293354147199658 0.5246987220900126 L1.2228241837200038 0.5471262940899964 L1.2207571267200272 0.5703806880900162 L1.2114553687200065 0.5824729740899999 L1.1664968727199856 0.608517895089979 L1.151510706720014 0.6208168870899344 L1.1428290667199654 0.6422109290899458 L1.1407620087199994 0.6580239170900244 L1.1334239557200156 0.6694960850899507 L1.1089293277199737 0.6777643150899921 L1.0703787087199963 0.6806581950899799 L1.0614903627199759 0.6874278070900219 L1.0584931287200412 0.7077883220899581 L1.042266729720037 0.7455121180900095 L1.0049563457200144 0.7693866290899978 L0.9210338197200052 0.7983254310899541 L0.9126622377200384 0.7993589600899371 L0.905220830719994 0.7983254310899541 L0.8989163067199932 0.8002891360899911 L0.8939553687199542 0.8100043050900227 L0.8934386047200142 0.8184792400899328 L0.8952989567200085 0.8292279380900469 L0.8992263647199898 0.8387364010899363 L0.9049107727200258 0.8440073970900572 L0.966509079719966 0.865711499089973 L0.9786013647199603 0.8742897860899932 L0.9852159477199471 0.9078794670899315 L0.9822187157200197 0.9846706460899854 L0.9789114237200316 1.0699367600899636 L0.9742605447199786 1.1894126710900155 L0.9695063127199681 1.3139528730899643 L0.9670258437199912 1.3788584720899921 L0.9635118467200492 1.4714626390900394 L0.8900279597199834 1.4707391680899535 L0.7989740867199338 1.469808992089999 L0.7135012677200017 1.4819012770899933 L0.6650702707199763 1.5086399600900267 L0.6648261297199802 1.5083144390899905 L0.6163235257199595 1.4264459490900139 L0.6017564687199943 1.363132147089975 L0.6247056877199917 1.2998183450899932 L0.6369127187199943 1.2884251160899725 L0.6478990467199957 1.2858209490900139 L0.6593736557199996 1.285007147089975 L0.6731269107199829 1.2793105330899879 L0.6828111557199996 1.2688938660899725 L0.6867174057199996 1.2561171730899945 L0.6867174057199996 1.2247857930900112 L0.6837877187199943 1.2120904800900165 L0.668650999719997 1.1764459490900139 L0.6509190337199549 1.141295214090012 L0.6258913547199505 1.0742865380900115 L0.6266197997200003 1.0472931850899885 L0.586877648719959 0.97772742409001 L0.5791409727199799 0.9300263480900002 L0.524266380719947 0.8649811660899944 L0.4776516507199595 0.7911920430900112 L0.4778144107199829 0.7804498550900165 L0.4896799397199594 0.783667242090023 L0.5093004947199766 0.787552112090002 L0.5223516907199688 0.7914512900899853 L0.5288750697199553 0.7973041490900004 L0.5354206437199842 0.8207074210899963 L0.5550564647199927 0.825220513090021 L0.5713442217199791 0.8148277180899912 L0.5817883217199515 0.7985646070899906 L0.5830903247199863 0.7849097090900203 L0.5922438047199954 0.7796957070900179 L0.5915831897199801 0.7601943500899937 L0.5870049977199834 0.7510975140900245 L0.5778599977199939 0.7478528600900107 L0.5674138917199762 0.7472081120899974 L0.5595794667199776 0.758265367090023 L0.5576143717199749 0.7725738180899997 L0.5582674497200024 0.7940338760900021 L0.5523880627199524 0.7992411830899799 L0.5451989477199923 0.7959958890900269 L0.5406374017200015 0.7758339430899968 L0.5341167467199703 0.7654300230900093 L0.5262807127199913 0.7628327860899775 L0.5210581547199773 0.77193854409001 L0.5112564117199518 0.7725950600900022 L0.49948930671996195 0.76609996708999 L0.48508515171999633 0.7680648020900138 L0.4641367497199518 0.7648291310899866 L0.4726008307199798 0.7537980830900084 L0.585343715719997 0.6581272710899713 L0.611698695719948 0.6157525950899485 L0.6420844377199977 0.5132265540899867 L0.6467353167199654 0.5086790280899622 L0.6586208957200164 0.5086790280899622 L0.6680260067199661 0.5143634350899946 L0.6771210587200152 0.5258356040900098 L0.6897301077199494 0.5491933510899729 L0.6986184547199876 0.5415452390899889 L0.7130878557200013 0.5359641840899672 L0.7282807267199267 0.5323468340899824 L0.7621804657199469 0.5288328360899373 L0.7764431617200067 0.523355135090033 L0.7868818017199679 0.5110561440899959 L0.8286363577199971 0.42837385208993783 L0.8333905897199791 0.40749657408996587 L0.8321503557200423 0.3646051350900068 L0.8415554667200205 0.35065249909002194 L0.8686339177199578 0.3540631420900455 L0.8836200827200251 0.35271955508998065 L0.9517296207199557 0.3304986900899438 L1.0626272437199837 0.31024152808995087 L1.0783368797200374 0.3044537670900569 L1.0893956357200487 0.2928782470900204 L1.1110997377200498 0.25257062908997785 L1.1250523737200204 0.23655093609001643 L1.1413821267199715 0.22352847508998241 L1.1594688777199984 0.2131931890899681 L1.1730081027199581 0.1970701410899851 L1.181069626720042 0.1731956290900074 L1.192438441719954 0.15014794108994511 L1.216209600720017 0.13640201008999941 L1.2299555317199484 0.14136294708996378 L1.237184742719986 0.14526905308993765 L1.2555870427200055 0.15521223109000903 L1.2693329727199476 0.15810611209000047 L1.2848359027199443 0.15490217208993773 L1.296824835719999 0.14952782408997667 L1.308813767719979 0.1482875900899403 L1.3244200497200005 0.15717593608996072 L1.3389928037199716 0.177329744090021 L1.3569762027199452 0.22538882708999086 L1.376509893719966 0.2475063390899992 L1.4160940407200222 0.27902896308996095 L1.4817231097199475 0.3573704340899484 L1.5282318987199766 0.3805214760900286 Z M12.42198556072 6.61750511808997 L12.428806849720043 6.666597729090005 L12.435111374719948 6.6835475990900095 L12.454541712719955 6.713003165090005 L12.458262416720029 6.727679273089994 L12.451854538719996 6.746902905090015 L12.448237188720011 6.764782950089985 L12.44906401172005 6.820180086089938 L12.444619837720037 6.858730704090012 L12.450304245719988 6.872579989089975 L12.46983793671998 6.875680574090016 L12.465703822720055 7.018100821090006 L12.471491583719935 7.043628980089953 L12.515623255719927 7.140160555089982 L12.516243373720012 7.152149487090033 L12.506631557719995 7.165688712090007 L12.475315639719977 7.189769930089956 L12.464463588720033 7.204652742089995 L12.462086472719985 7.215711499089996 L12.46177641372 7.22832054808993 L12.46436023571999 7.252401766089979 L12.464256882719976 7.268628165089983 L12.459916062719994 7.280410392089981 L12.43221749471996 7.322475008090014 L12.414440801720044 7.362369214089957 L12.409169805720008 7.382109611090006 L12.409169805720008 7.407431062089988 L12.416817917719978 7.4267580480899555 L12.427256556719922 7.445774975090008 L12.435834844719945 7.469959546089986 L12.440072311719998 7.544683667089989 L12.444723190719966 7.5692816490899775 L12.443069545720018 7.57941022909002 L12.421572149719989 7.628089428089955 L12.415577682719967 7.756867098089946 L12.408859747720012 7.897116935089945 L12.414130743719962 7.941868726089997 L12.435834844719945 7.97287458508993 L12.461156296720016 7.998919507089998 L12.471388229720016 8.024137606089955 L12.475522344720044 8.085219148089951 L12.485340866720005 8.13028099808999 L12.482550339720031 8.147334220089935 L12.474385463719923 8.164387443089968 L12.440589076719956 8.21285993609003 L12.395320521719949 8.27797224108993 L12.383228236719955 8.306807690089958 L12.365244837719981 8.376467521089982 L12.346227911720003 8.45026146609003 L12.326797572719922 8.495323316089983 L12.32018298972002 8.534907462090036 L12.329278041720013 8.566946850090037 L12.349638555720016 8.594955477089957 L12.40410551572003 8.649835848089968 L12.426326380719981 8.67856794508997 L12.443379603720015 8.710297274089985 L12.455161830720012 8.746677482089982 L12.42281238372001 8.746677482089982 L12.298685593719991 8.746677482089982 L12.17435209772 8.746677482089982 L12.050121953719948 8.746677482089982 L11.925788457719985 8.746677482089982 L11.801454961719994 8.746677482089982 L11.677224818720017 8.746677482089982 L11.552891322719969 8.746677482089982 L11.428557826719977 8.746677482089982 L11.30432768372 8.746677482089982 L11.17999418672002 8.746677482089982 L11.055764043719986 8.746677482089982 L10.931533900719923 8.746677482089982 L10.807303756719985 8.746677482089982 L10.683073613720008 8.746677482089982 L10.558740117720017 8.746677482089982 L10.434406621719969 8.746677482089982 L10.434509974719983 8.897365959090013 L10.434613327719997 9.04789940509001 L10.43471668072004 9.198691235089985 L10.43482003271998 9.349379711090027 L10.434882158719969 9.440020350089984 L10.434923386719984 9.500171541090001 L10.435026739720026 9.650756665090018 L10.43513009272004 9.801548494089989 L10.43523344471998 9.952133618090006 L10.435336797719994 10.102822094090048 L10.435440150719952 10.253613924090022 L10.435543503720051 10.404302400089964 L10.43564685671998 10.55499087709001 L10.435750208720005 10.70567935409004 L10.435853561719963 10.856367830089997 L10.435956914719977 11.007056307090028 L10.43606026872001 11.157744783089985 L10.43606026872001 11.197535636089984 L10.43606026872001 11.218722974089946 L10.43606026872001 11.249005363089982 L10.43606026872001 11.293033683090034 L10.435956914719977 11.395146313089985 L10.435750208720005 11.497155591089996 L10.435440150719952 11.599164868090018 L10.435336797719994 11.701277498089969 L10.43513009272004 11.746442700089933 L10.43606026872001 11.749233228089995 L10.43606026872001 11.812691886090025 L10.43606026872001 11.873360017090011 L10.43606026872001 11.889483065089994 L10.438334030720025 11.911083814089967 L10.464895716720033 11.943329907090021 L10.499725632720011 11.997486808090034 L10.474404180720025 11.998313631089975 L10.466239304720002 11.997486808090034 L10.476884648719984 12.011542798089966 L10.480501999719987 12.02415184808999 L10.482258998720052 12.036864249090033 L10.486703171719963 12.051540356090019 L10.491147344719959 12.057431469089938 L10.503136276720024 12.067560051089988 L10.50654692171997 12.072004223089994 L10.508200566720003 12.081719392090026 L10.508717331720046 12.103836906090027 L10.510370977719983 12.109831372089975 L10.543650600719953 12.117169426090047 L10.560083704719997 12.124610832089989 L10.558120001720052 12.13711652808998 L10.548818242719957 12.14993228308997 L10.540550013720004 12.167502270089944 L10.535279017719969 12.186209139090014 L10.534452194719929 12.202952303089976 L10.53910307372001 12.215354647090027 L10.556259649720058 12.243156567089986 L10.561840704719966 12.25752261509 L10.56111723371998 12.271165193090003 L10.558533412719978 12.281913891089932 L10.562667527720006 12.28914859208999 L10.581787806719998 12.291629060089964 L10.592639857719941 12.297830233089957 L10.596980677719923 12.312299634089985 L10.599667852719957 12.32924950408999 L10.606179083719919 12.342892082089993 L10.692272019720004 12.410691561090008 L10.705811244719992 12.415239087090047 L10.713562709720005 12.414412264090021 L10.728652227720001 12.408831210090003 L10.738264043720019 12.406557446089995 L10.741881393720004 12.40345686008995 L10.745292038720006 12.401596509089945 L10.750149623719945 12.404387036090004 L10.757591029720057 12.412138501090002 L10.761518437720039 12.414412264090021 L10.788183477719965 12.418856437089932 L10.79800199972004 12.42836490109001 L10.804616582720026 12.441490715089987 L10.820326218719995 12.462057935089977 L10.827147507719953 12.474046867090028 L10.832521856719918 12.480041333090046 L10.838102911720025 12.482728507089991 L10.85412260472 12.485622387089979 L10.863424362720021 12.490996737089933 L10.871175827720034 12.499678377089996 L10.943626185720003 12.610576001090013 L10.954271530720003 12.638687980089959 L10.963056524719999 12.65140038309001 L10.977422572719998 12.659875317090016 L11.009048549719974 12.669383781089994 L11.021760951719951 12.682096183089957 L11.023828008720013 12.69015770709004 L11.023724655720056 12.707624340089996 L11.027962122720023 12.71620262809002 L11.033853236719946 12.720543449090005 L11.046565639719969 12.72064680108993 L11.106200241719986 12.74390119609004 L11.120152878719974 12.753823071089943 L11.165008021719952 12.800641919089973 L11.18526518371996 12.826790193089966 L11.199321172719973 12.853455232090017 L11.210379929720002 12.900067375089979 L11.219681686720005 12.914846834089989 L11.232807500719982 12.925595532090018 L11.263916713720018 12.941615226089969 L11.303707565720028 12.976238436089975 L11.33068266371998 12.993291658090005 L11.391040736719983 13.018509757089962 L11.43868640772001 13.031015454089957 L11.453155808720052 13.038973624090023 L11.494910365719985 13.082278475089982 L11.500904831720018 13.093647289089976 L11.508656296719945 13.120519035089973 L11.527569870719983 13.150284659089966 L11.552167852720057 13.177363110089932 L11.576042364719935 13.196069978089998 L11.620277390720045 13.212606437089992 L11.630716029719988 13.22335513509002 L11.633609910719994 13.239374829089972 L11.631439499719985 13.254981111090007 L11.632059616719967 13.269243807089982 L11.644255254719976 13.281749503089987 L11.661515183719981 13.286400382089955 L11.678775111719968 13.28454003108995 L11.695828333719984 13.280302563089993 L11.712881556720017 13.278028800089974 L11.745334356720033 13.28061262208998 L11.759907109719986 13.284746737089993 L11.774686570720004 13.291568026089951 L11.795150437719965 13.305934074089965 L11.813960658719989 13.328051587089963 L11.836801641719997 13.346241691090004 L11.829670293719968 13.360607739090003 L11.830497116719979 13.373423495089998 L11.836181524720015 13.38634260209 L11.752569056720002 13.402052238089968 L11.54844714972003 13.440602856089956 L11.344325241719982 13.479256827090044 L11.14020333372002 13.518014151089975 L10.935978073720033 13.556564770090052 L10.685037318720045 13.60276350109 L10.433993210719958 13.648962231089957 L10.18305245571997 13.69505760908999 L9.932111700719982 13.741256340090036 L9.860074753719996 13.754485506090024 L9.841367884720025 13.759653149090031 L9.835683477719979 13.757792797090023 L9.819353724720028 13.737225577089948 L9.789588099720046 13.72316958809002 L9.732640671719988 13.703739249090038 L9.687268764720042 13.679658032089993 L9.671145716719959 13.67583397609005 L9.630321335719966 13.678417797089967 L9.615851934719952 13.67583397609005 L9.597661830719996 13.678934562089996 L9.580608607719963 13.686272615089994 L9.563968796719958 13.69020002409005 L9.547639044719997 13.683275382089978 L9.455241582720017 13.707253247089998 L9.440983584719984 13.710969258089978 L9.362844121719998 13.731334464089944 L9.348994838720042 13.757792797090023 L9.316128627720015 13.763993969090013 L9.28646635472003 13.774535962089974 L9.260731491719948 13.77660301908995 L9.23913074371998 13.757792797090023 L9.208951706719997 13.74311669109004 L9.192001836719978 13.738672517089942 L9.184457078719927 13.747560864090037 L9.177015671719996 13.751694978089976 L9.160685918719988 13.74900780409003 L9.14414946071997 13.742186515089987 L9.136708054719971 13.733814933090006 L9.12079171372002 13.725443351090039 L9.084618210720006 13.72213606009004 L9.045240768720017 13.723996411090045 L9.020022669720046 13.730404289089993 L9.007413620720026 13.724306470089932 L8.97847481871997 13.703739249090038 L8.94405831472002 13.687306144089977 L8.934033086720003 13.679554679089978 L8.914602748719997 13.65888410608996 L8.892071823719984 13.639660473089936 L8.867163783720027 13.629325187090021 L8.841325567719988 13.635526359090012 L8.802258184719985 13.604107088089979 L8.79068266371996 13.60007632608998 L8.757299688719964 13.605967439089984 L8.743450404720019 13.606794262089995 L8.732701706719975 13.60007632608998 L8.69797514372004 13.627981600089957 L8.674410691719967 13.618576489090007 L8.647642298719969 13.61733625508997 L8.623767787719995 13.623330721089989 L8.60909168072001 13.635526359090012 L8.601650274719983 13.627981600089957 L8.587490931720023 13.63397606608999 L8.574468471719992 13.635939770090022 L8.54707996172004 13.635526359090012 L8.488788946720003 13.641107414090019 L8.479073777719972 13.63976382609005 L8.444037155719965 13.627981600089957 L8.40652006571997 13.607517733089995 L8.248493535720026 13.607517733089995 L8.242189011719997 13.61165184709002 L8.230510137720042 13.630255363089976 L8.225549199720003 13.635526359090012 L8.209736211719981 13.634286125089975 L8.186585170720004 13.627258130090059 L8.165811244719972 13.618163077089992 L8.15671619271998 13.610928377089937 L8.14772449372003 13.592944979090039 L8.127157273720055 13.587880688089971 L8.10431629071996 13.590154451089976 L8.04736886171997 13.602453442090013 L7.875803106719953 13.604623852090004 L7.716949753719998 13.559148592089958 L7.701136764720015 13.549226717089969 L7.656384974719938 13.55232730309 L7.626619350719974 13.546436190089995 L7.615353887720001 13.54612613109001 L7.593856491719972 13.55046695108999 L7.559646693719966 13.56338605909001 L7.475104050720002 13.567520174090024 L7.344569382719921 13.544472485089972 L7.25537586071999 13.501787752089971 L7.216515182720027 13.492899406089965 L7.20276925272 13.481530590090063 L7.1828221497199785 13.456105786089967 L7.125461309719977 13.39833153508997 L7.1158494927199705 13.391923657090022 L7.097349330719961 13.383242017089959 L7.087840866720054 13.374146964089991 L7.082466517720004 13.365051913090017 L7.077402227720025 13.347378572090012 L7.074198288719966 13.340040519090014 L7.022005091719986 13.298492667090034 L7.008672572720055 13.291568026089951 L7.005468633719996 13.28050926908995 L6.9711554827199755 13.216533845089973 L6.947280970719984 13.209712557090004 L6.944387090719996 13.207645499090038 L6.942630091720016 13.197310213090038 L6.926196986719955 13.159483065089962 L6.919685755719993 13.154418774089994 L6.91317452572002 13.150491366090012 L6.909557175719922 13.141189608089991 L6.908110235719928 13.135091789089945 L6.900255417719986 13.134471671089972 L6.846821986719984 13.134471671089972 L6.59019682371996 13.134368318089944 L6.455012044720004 13.134313852089964 L6.333675013719951 13.134264965090015 L6.0771532047200445 13.13416161308999 L5.82063139471995 13.13416161308999 L5.733501092720015 13.134126522090018 L5.56400623172004 13.134058260089962 L5.307381068720016 13.133954907090018 L5.050859258720006 13.133954907090018 L4.794337448719997 13.133851554090004 L4.53791899172003 13.133851554090004 L4.281293828720006 13.133851554090004 L4.0247720197200145 13.13374820208998 L4.013643404719996 13.133743718089963 L3.768250209720005 13.13364484908995 L3.511728399720024 13.133541496090007 L3.25510323672 13.133541496090007 L2.9984780737199763 13.13343814208999 L2.7419562647199562 13.133334790089965 L2.6736408627199886 13.133334790089965 L2.673329961720011 13.133334790089965 L2.6619611467200137 13.133231437090021 L2.6610309717199776 13.138295728090004 L2.651625860720028 13.158139477089993 L2.629508346719998 13.161446769089995 L2.585273321719992 13.154418774089994 L2.57845203171993 13.156795890090027 L2.5627423967199796 13.165684236089948 L2.5517869937199826 13.168784823089997 L2.5399014137199707 13.168784823089997 L2.5236750147199665 13.163823885089943 L2.5019709127199654 13.161240064090041 L2.4836774547199774 13.15565900909002 L2.4724119927200228 13.154418774089994 L2.4634202947199775 13.156692537089999 L2.447503952719952 13.166511059089974 L2.43510160872 13.168784823089997 L2.4118472147199803 13.164340649089983 L2.397274460720009 13.15338524609 L2.351385788720048 13.094267407090033 L2.338880091720025 13.083725415089976 L2.2449323377200265 13.033289217089976 L2.148659144720053 12.981819491089997 L2.0610159157199597 12.912573071089984 L1.9758531557200136 12.867097811090023 L1.9854649717200026 12.83846906708995 L1.976783331719954 12.822139314089998 L1.9623139307200255 12.808703442090053 L1.9491881167200482 12.769222648090025 L1.9343053037200058 12.755476717089994 L1.913428024719959 12.747001782089985 L1.8896568657199815 12.744211255090026 L1.8717768207199263 12.73894025809 L1.8365334937199655 12.715582511090052 L1.8182400367199953 12.709381340089966 L1.8004755977200055 12.713909530089996 L1.7760720677199195 12.720130038089994 L1.769767543720004 12.719613273089951 L1.7629462537199707 12.715375806089998 L1.7475466777199777 12.718993156089983 L1.7220185197200202 12.73056867609002 L1.7220185197200202 12.723127270090007 L1.711683233719949 12.726847973090006 L1.699797653719994 12.726537915089938 L1.677370081719996 12.723127270090007 L1.6666213837199813 12.71795962709 L1.6600068017199838 12.708244458089968 L1.6526687477199822 12.702560050090018 L1.6394395817200085 12.709381340089966 L1.6208360647200344 12.696255526090003 L1.5990286107200085 12.697599113089968 L1.5762909807200423 12.705040519089994 L1.4688040017200272 12.723127270090007 L1.4161973937200365 12.752582837090007 L1.3849848287199755 12.759404126089965 L1.3655544897199796 12.768705884089986 L1.3416799787200056 12.77501040809 L1.3368223937199808 12.784725577090033 L1.3350653947200009 12.795991040090005 L1.330931280719991 12.80498273909004 L1.3222496397200096 12.810770500090019 L1.3044729467199794 12.816041495090037 L1.296824835719999 12.81924543409001 L1.287626429720003 12.826996899089938 L1.2794615537199796 12.84156965308998 L1.2728469707199928 12.85004458808999 L1.2388438787200435 12.860276522089965 L1.194402146719991 12.880740389090025 L1.159262172720016 12.909472485090024 L1.1404519507200312 12.91877424309006 L1.1152338517199745 12.922288240090015 L1.09073922272 12.93034976409 L1.0459874327199508 12.96776350108998 L1.021699509719948 12.979752433089931 L1.0090904597200243 12.980785962090014 L0.9737437807200102 12.973034496089998 L0.9150393527199832 12.968280266090009 L0.8962291317199593 12.962182446089958 L0.8724579727200101 12.948643221089984 L0.8621226867199958 12.949263338090038 L0.8484801087199934 12.959908683090038 L0.8340107077199512 12.965593090089985 L0.7692084607200478 12.963319327089966 L0.6971715147199937 12.970037264089985 L0.693864223719995 12.965903150089975 L0.6910736957200321 12.956498039090011 L0.6863194637200216 12.947092928089962 L0.6768110007199617 12.942855460090005 L0.6662690087199756 12.940374991089943 L0.6550035457200316 12.934483879090028 L0.6451850237200425 12.927765942090009 L0.6396039697200386 12.922288240090015 L0.6356765597199647 12.914433423089978 L0.6340229147200169 12.906785311090008 L0.6316457987199691 12.89996402208995 L0.6252379207200214 12.894382967090028 L0.6160395157200433 12.89148908709004 L0.611181931720008 12.89427961409 L0.6058075827200433 12.898827140090038 L0.5944387667199713 12.901204256089986 L0.5601256167199402 12.891282381089997 L0.5497903297200217 12.88487450308995 L0.5426589817199918 12.88435773909001 L0.5367678687200019 12.886528149090001 L0.5297398747199757 12.888181795090038 L0.48343779072001425 12.894176261089985 L0.43754911872002467 12.90709536908999 L0.3966213847200173 12.925698885090032 L0.3494924777200161 12.959805331090013 L0.30846139071996603 12.978615552090023 L0.2900645817200562 12.990604484089975 L0.2841734677200485 12.998666008089973 L0.28200305771997236 13.00528059008997 L0.2769387677199937 13.009621411089956 L0.26215930771999396 13.01106835108995 L0.2514106097199793 13.009001294089973 L0.23404732771995995 13.000112947089963 L0.22071292071995785 12.997949041089985 L0.2206529527199983 12.997897772089974 L0.2206529527199983 12.990492173089994 L0.21251493171996216 12.984388658089987 L0.2073065987199776 12.974378892089991 L0.20527209371999433 12.962090480090016 L0.20633003571998287 12.948906887090008 L0.2131659737199776 12.910414048089994 L0.213817015719993 12.778171210090026 L0.2266434597199769 12.69222383508998 L0.23454221671999775 12.614665698089997 L0.22267306971997058 12.543718692090014 L0.22267009671997684 12.513449628089976 L0.24045047371998507 12.508718409090026 L0.24539904271994928 12.55128054008998 L0.25823856771995324 12.56923159909002 L0.27500311471998984 12.526669904090003 L0.272166624719997 12.449883449090013 L0.2776190987199776 12.424167303089977 L0.26834175471998023 12.329115220089992 L0.2764797757199595 12.224297512090008 L0.23367378571998287 11.845065741089972 L0.2343248277199983 11.825453111089988 L0.23904487971998023 11.809258449090013 L0.26150581771997494 11.764011053089977 L0.23888508871999292 11.71783147808998 L0.19114742771995097 11.645401518090015 L0.19005399471995688 11.602308579089996 L0.20633003571998287 11.544284491089972 L0.21804878571998287 11.535169908089987 L0.239207640719993 11.522474595089992 L0.2594713127199917 11.514417954089996 L0.26834175471998023 11.520195949090013 L0.27289904671999565 11.53761131408999 L0.2843736557199996 11.542982408089987 L0.2987779527199983 11.538750637090008 L0.34923368171996216 11.491875637090008 L0.35785998372000094 11.476576158089987 L0.3610338127199917 11.463148423089994 L0.362010374719997 11.435235012090008 L0.36469592171999565 11.421400376089995 L0.3850409737199776 11.397637355090016 L0.4465644107199829 11.362481105090016 L0.459666624719997 11.339531887090008 L0.46300321371995423 11.310560533089987 L0.4830227447199569 11.235365220089992 L0.49490425471998023 11.208509751089995 L0.48456896871999433 11.18214256408999 L0.4879869377199917 11.152601548089994 L0.5011705307199996 11.09587954309001 L0.5109361557199996 10.978285142089991 L0.516307249719997 10.96306704309001 L0.5250963127199917 10.949883449090013 L0.559520140719993 10.917982408089987 L0.5670071197199569 10.91619204309001 L0.5823065987199776 10.924167303089977 L0.590525999719997 10.924167303089977 L0.5998033437199943 10.913832017089991 L0.6042792547199802 10.897149074090013 L0.6034654527199983 10.87940818908999 L0.5973619377199917 10.865899074090013 L0.5824693587200009 10.858574855090016 L0.5718899317199622 10.86183006408999 L0.5670071197199569 10.860365220089992 L0.5695299057199996 10.839124986089988 L0.5793769107199829 10.807386704089996 L0.6056627187199943 10.747246730090016 L0.6110338127199917 10.712253241089972 L0.6150214427199749 10.698744126089995 L0.6246243067199622 10.68767641809001 L0.6359361557199996 10.677503892089991 L0.6451321197199569 10.667249986089988 L0.6506659737199776 10.653659491089972 L0.6598619377199917 10.598809230090016 L0.6599433177199749 10.585625637090008 L0.6623033437199943 10.578464178089977 L0.6697089427199749 10.569349595089992 L0.676463499719997 10.569186835090026 L0.6830552967199957 10.571058579089996 L0.690135374719997 10.568210272089974 L0.6988430567199622 10.55518943908999 L0.7073065987199776 10.52752016809001 L0.727244749719997 10.495781887090008 L0.7268378487199776 10.478041001089995 L0.7226060777199983 10.459974595089992 L0.7208970937199943 10.441257147089974 L0.7232571197199569 10.428724595089992 L0.731150999719997 10.405938137090008 L0.7472642807199996 10.332695949090013 L0.7535305567199622 10.252780585090026 L0.7584133697199569 10.239271470089992 L0.7742011297199802 10.213880845089992 L0.785838499719997 10.178724595089992 L0.7966620677199749 10.112318345089992 L0.7999172757199595 10.048190741089972 L0.7966620677199749 10.015638658089987 L0.786082640719993 9.981947251089995 L0.7787584217199957 9.965833970089992 L0.7766425357199829 9.958265611089988 L0.7755845937199943 9.947930324090013 L0.7742011297199802 9.942640611089988 L0.7697252187199943 9.933119126089995 L0.7687486557199996 9.927422512090008 L0.7701321197199569 9.920179673089994 L0.7735500887199542 9.920586574090013 L0.7781073797199802 9.922702460090026 L0.7867336817199622 9.918633449090013 L0.7987779527199983 9.91651756408999 L0.803416624719997 9.913750637090008 L0.807567015719993 9.906100897089974 L0.8097642807199996 9.89698631408999 L0.8103339427199749 9.887546210090026 L0.8096829007199595 9.878919908089987 L0.801707640719993 9.865085272089974 L0.7895006087200009 9.851576158089987 L0.7833157137199542 9.837416001089995 L0.7992662337200009 9.812025376089995 L0.8043118067199622 9.790703762090008 L0.8244127187199943 9.767103501089995 L0.829051390719993 9.752780585090026 L0.8318183177199749 9.737643866089972 L0.8375963127199917 9.722507147089974 L0.854442015719993 9.696791001089995 L0.8573717027199983 9.686537095089992 L0.8586737857199829 9.651543605090016 L0.8617662337200009 9.635755845089992 L0.870067015719993 9.623792954089996 L0.8938300357199829 9.616468736089988 L0.8996080307199996 9.611341783089987 L0.9050605047199802 9.607679673089994 L0.9127102447199569 9.609063137090008 L0.9263821197199569 9.61964256408999 L0.9328925357199829 9.62322329309001 L0.9402167547199802 9.622328111089988 L0.9569810777199983 9.600436835090026 L0.9634914947199569 9.564792303089977 L0.9708157137199542 9.460300116089972 L0.9672349837200009 9.361992824090013 L0.9704088127199917 9.35011131408999 L0.9846503487199776 9.323906887090008 L0.9883938387199542 9.310397772089974 L0.9781399317199622 9.296400376089995 L0.9766750887199542 9.289401678089977 L0.9784654527199983 9.285169908089987 L0.9810696197199569 9.28142641809001 L0.9815579007199595 9.249688137090008 L0.9791164947199569 9.23455141809001 L0.969432249719997 9.202813137090008 L0.9672349837200009 9.187269517089991 L0.9698391507199595 9.171156236089988 L0.9766750887199542 9.155775376089995 L0.9874986557199996 9.144219387090008 L1.001740192719975 9.139824855090016 L1.0225735257199595 9.137546210090026 L1.029979124719997 9.131117173089994 L1.0353502187199943 9.120456366089972 L1.049266233720001 9.10564516809001 L1.0656236557199996 9.097181626089995 L1.0787258697199569 9.094414699090013 L1.0889797757199595 9.088555324090013 L1.0969550357199829 9.07081443908999 L1.0977688387199542 9.061537095089992 L1.0954088127199917 9.054050116089972 L1.0923977447199569 9.047214178089977 L1.090770140719993 9.039808579089996 L1.0929674057199996 9.033216783089987 L1.102244749719997 9.023288397089974 L1.1046047757199595 9.016289699090013 L1.1110338127199917 9.000827460090026 L1.139598265719993 8.986016262090008 L1.1461086817199622 8.974623033089987 L1.1486314687199943 8.963555324090013 L1.1544908437199943 8.96306704309001 L1.1613267807199996 8.966647772089974 L1.1666164947199569 8.967787095089992 L1.1851711817199622 8.955742824090013 L1.1863105047199802 8.954115220089992 L1.2042955307199996 8.946546861089988 L1.2160142807199996 8.938164699090013 L1.281688108720001 8.854994126089995 L1.3102525627199917 8.834730454089996 L1.3205064687199943 8.823906887090008 L1.337677692719975 8.797214178089977 L1.399363890719993 8.727552720089992 L1.4131985257199595 8.700697251089995 L1.4133612857199829 8.67433006408999 L1.4040025627199917 8.647311835090026 L1.389354124719997 8.618991522089974 L1.3820299057199996 8.587253241089972 L1.3939927967199957 8.561862616089972 L1.4402167547199802 8.515313137090008 L1.4641425357199829 8.501722642089991 L1.5295722237199776 8.440199204089996 L1.555613890719993 8.426608710090026 L1.5637519107199829 8.419691392089991 L1.581004515719993 8.389662095089992 L1.5873521717199957 8.381849595089992 L1.616160765719993 8.356458970089992 L1.6330878487199776 8.346937486089988 L1.6525377187199943 8.344577460090026 L1.6534329007199595 8.348809230090016 L1.675568317719975 8.352389960090026 L1.687287067719975 8.358249335090026 L1.7189439687199943 8.327813137090008 L1.731395140719993 8.323499986089988 L1.7488105047199802 8.32634829309001 L1.766063108720001 8.339694647089974 L1.7829088127199917 8.344577460090026 L1.8185533437199943 8.337904283089987 L1.847443317719975 8.315606105090016 L1.8922024317199622 8.268893866089972 L1.9142564687199943 8.25245506408999 L1.9237779527199983 8.240003892089991 L1.927521442719975 8.224297512090008 L1.929474567719975 8.182956366089972 L1.9335435777199983 8.164320298089994 L1.9411119377199917 8.146009751089995 L1.9601549057199996 8.116550116089972 L2.0231431877199917 8.056654283089987 L2.029979124719997 8.056654283089987 L2.029979124719997 8.063490220089992 L2.0194810777199983 8.067233710090026 L2.0128079007199595 8.073499986089988 L2.011343056719962 8.081800767089991 L2.016307249719997 8.091322251089995 L2.0320136297199802 8.076185533089987 L2.052033160719983 8.043958970089992 L2.0847480047199802 8.008639960090026 L2.094350869719957 7.993910142089992 L2.118113890719993 7.914808579089997 L2.1478990467199957 7.855482408089988 L2.1596177967199957 7.823255845089993 L2.169708942719975 7.753594387090009 L2.177033160719983 7.737969387090009 L2.1915188387199542 7.7229140480899945 L2.2033189687199943 7.7063938660899725 L2.2130845937199943 7.687676418090011 L2.2209784737199776 7.665703762090009 L2.237010374719997 7.566094387090009 L2.246775999719997 7.536146470089993 L2.2491360257199595 7.515394517089992 L2.232208942719975 7.334323553089978 L2.2364407137199542 7.226250637090009 L2.2405097237199776 7.203464178089978 L2.2491360257199595 7.1858046730899945 L2.241160765719993 7.176771470089993 L2.2418931877199917 7.165541001089996 L2.2463690987199776 7.153171210090027 L2.2491360257199595 7.1411269390899905 L2.248729124719997 7.086683579089997 L2.249787067719975 7.077406236089989 L2.2546698797199802 7.066582668090011 L2.2735500887199542 7.040785142089992 L2.2761542547199802 7.028822251089996 L2.276317015719993 7.001478501089996 L2.3010565987199776 6.858900376089996 L2.3019517807199996 6.800632147089975 L2.3030097237199776 6.727308579089997 L2.2979641507199595 6.690931626089996 L2.2831529527199983 6.658867824090014 L2.193797483720001 6.528578111089989 L2.185984983720001 6.509453762090009 L2.1856594637199542 6.492363918090011 L2.193960244719957 6.475436835090027 L2.2243150627199917 6.439466783089988 L2.2262681877199917 6.423109361089989 L2.2195136297199802 6.407240220089993 L2.207469358720001 6.391371079089997 L2.1659654527199983 6.357272772089975 L2.1596177967199957 6.347181626089996 L2.1553860257199595 6.336113918090011 L2.0606594637199542 6.223402329089997 L1.9968573797199802 6.171888658089988 L1.9821275627199917 6.1517063660899725 L1.9771633697199569 6.132988918090011 L1.975291624719997 6.065443345089993 L1.9718736557199996 6.043633449090014 L1.9634914947199569 6.022230454089997 L1.9096177967199957 5.946953762090009 L1.897166624719997 5.924574204089997 L1.885692015719993 5.875746079089997 L1.869822874719997 5.855238267089992 L1.8312486557199996 5.815931626089996 L1.771922483720001 5.721530585090027 L1.774363890719993 5.706800767089992 L1.783641233720001 5.6927219910899725 L1.789744749719997 5.671888658089988 L1.781688108720001 5.631198553089978 L1.7599595937199943 5.587660142089992 L1.7325344637199542 5.546888658089988 L1.6531073797199802 5.453871079089997 L1.6457017807199996 5.435235012090009 L1.6506659737199776 5.417982408089988 L1.6731269107199829 5.394382147089975 L1.6798814687199943 5.376478501089996 L1.678416624719997 5.359388658089988 L1.672313108720001 5.339369126089996 L1.6641750887199542 5.322604803089978 L1.6559556877199917 5.315687486089989 L1.656932249719997 5.304212876089996 L1.6244615467199957 5.211602199090014 L1.622833942719975 5.1925592300900165 L1.6251939687199943 5.147718736089989 L1.6210435777199983 5.132337876089996 L1.602244749719997 5.097344387090009 L1.5979315987199776 5.075453111089989 L1.575145140719993 5.058281887090009 L1.4999498277199983 4.934258449090014 L1.471385374719997 4.868014960090027 L1.4508775627199917 4.8390436050900165 L1.4468899317199622 4.783216783089988 L1.484813108720001 4.704766262090009 L1.5409654527199983 4.637546210090027 L1.5910956607199829 4.616224595089993 L1.569285765719993 4.648125637090009 L1.4973456607199829 4.707695949090014 L1.461375608720001 4.790785142089992 L1.4547024317199622 4.817233710090027 L1.4675605047199802 4.828952460090027 L1.4779771717199957 4.820163397089975 L1.534129515719993 4.725843736089989 L1.5364081607199829 4.715671210090027 L1.541453733720001 4.704929022089975 L1.553416624719997 4.7016738140899905 L1.5670071197199569 4.701348293090011 L1.5774237857199829 4.699395168090011 L1.5919908437199943 4.6860488140899905 L1.6028144107199829 4.653171210090027 L1.6149400627199917 4.633151678089978 L1.6400865467199957 4.6067844910899725 L1.6457017807199996 4.595716783089988 L1.6466783437199943 4.584730454089997 L1.6451321197199569 4.561292954089997 L1.649119749719997 4.5512831890899905 L1.678660765719993 4.519056626089996 L1.6960761297199802 4.505873033089988 L1.7140611557199996 4.500013658089988 L1.6642564687199943 4.549492824090014 L1.6525377187199943 4.568373033089988 L1.666697874719997 4.560072251089996 L1.699900999719997 4.545261053089978 L1.7182115467199957 4.5334609230899945 L1.7261868067199622 4.5317519390899905 L1.7325344637199542 4.527682928089978 L1.735057249719997 4.516859361089989 L1.7355455307199996 4.509942043090011 L1.7374986557199996 4.504652329089997 L1.7416490467199957 4.501234361089989 L1.748729124719997 4.500013658089988 L1.8106594637199542 4.508802720089993 L1.834666624719997 4.5002577980899945 L1.8478502187199943 4.4494765480899945 L1.8625800357199829 4.412123033089988 L1.8654283437199943 4.397149074090014 L1.8606269107199829 4.382337876089996 L1.8312486557199996 4.341810533089988 L1.8199368067199622 4.312025376089996 L1.8065904527199983 4.244886704089997 L1.7965806877199917 4.212660142089992 L1.8100084217199957 4.209811835090027 L1.8195299057199996 4.211113918090011 L1.827098265719993 4.209649074090014 L1.834422483720001 4.198988267089992 L1.8371080307199996 4.189222642089992 L1.8380845937199943 4.113945949090014 L1.8334459217199957 4.0922988140899905 L1.8239244377199917 4.068698553089978 L1.731395140719993 3.9240859230899945 L1.719432249719997 3.9148899600900267 L1.7053534737199776 3.8696425640899905 L1.6969713127199917 3.8523899600900267 L1.6890774317199622 3.8411594910899725 L1.6770331607199829 3.8147923030899777 L1.6700344637199542 3.8043756370900086 L1.6525377187199943 3.7667779800900165 L1.6438300357199829 3.7209609230899945 L1.5774237857199829 3.602552720089993 L1.4408372247199814 3.295859162089987 L1.3938117067199833 3.181167423090021 L1.3660016767199714 3.080308911090019 L1.3384240567199832 3.0509527660900106 L1.323583748719951 3.034184621089996 L1.3044921757199823 3.0111172760899807 L1.30972097571998 2.9764773180900237 L1.3043860917200014 2.9502509660899863 L1.287791624719997 2.750990220089993 L1.2779446197199569 2.7203912620900086 L1.275828733720001 2.704359361089989 L1.2742011297199802 2.699232408089988 L1.2711900627199917 2.6955702980899945 L1.2697252187199943 2.692152329089997 L1.272410765719993 2.687350897089975 L1.279083942719975 2.679457017089992 L1.2820136297199802 2.6743300640899905 L1.2844550357199829 2.664076158089988 L1.2873033437199943 2.6609837100900267 L1.288035765719993 2.657484361089989 L1.2833157137199542 2.6497532410899725 L1.2541002187199943 2.6684706890899905 L1.234162067719975 2.659925767089992 L1.1614081607199829 2.5594212100900267 L1.0749544177199901 2.4800210700900083 L1.005160833719966 2.377836941089986 L0.9127102447199569 2.210951158089988 L0.8764832837200025 2.1261859410900046 L0.8501046307199509 2.069651037090016 L0.8233547757199595 2.0328912620900086 L0.7990724587199871 1.9993448040900192 L0.7736783687199669 1.9653381080900134 L0.733975792719999 1.892903133089992 L0.7295894417199484 1.859967433089996 L0.744822874719997 1.8418105330899879 L0.7671838517200023 1.8357437670899843 L0.7881767517199556 1.8236345640900185 L0.7815406567199794 1.8390092650900032 L0.779309887719986 1.8675514280900005 L0.801402050719954 1.865311328090006 L0.8367357837199698 1.855365936089986 L0.8874877737199505 1.8541818620900061 L0.9514566797199642 1.8397925700899735 L0.9822973607199934 1.8200245030900009 L1.0043280597199633 1.8123217850899822 L1.035171257719977 1.807893748090014 L1.0873521717199957 1.7795546730899945 L1.100047483720001 1.7741835790899971 L1.124345669719954 1.7749079790900213 L1.1452806817199495 1.782556432090023 L1.1706240637199663 1.7902003730899922 L1.1970668007199912 1.7945545440899808 L1.2256985867199965 1.786856954090017 L1.2719599067199816 1.7769481060900079 L1.3159976077199609 1.7615452440899775 L1.3369150337200004 1.7461847600899931 L1.3820980867199602 1.726416621089986 L1.4007991647199525 1.7011889720899989 L1.4206030207199625 1.67705168209 L1.4271885777199564 1.6584126870899967 L1.440408695719949 1.6463380780899728 L1.465667904719961 1.640804027089989 L1.4843964187199923 1.6385788690900016 L1.5009011637199556 1.6308775280899726 L1.5185440897199634 1.6330366520899746 L1.555125608720001 1.6364068870900086 L1.5663560777199983 1.6354303240900139 L1.5836900627199917 1.628757147089975 L1.6242174057199996 1.6069472510899958 L1.6383775627199917 1.601657538090028 L1.6394395817200085 1.6015838940900027 L1.7238788717200428 1.6087152420899473 L1.7655300757200472 1.6191538820899796 L1.797052699720009 1.6357936930899983 L1.808111456720038 1.627835522089943 L1.8283686177200273 1.606131420089942 L1.8349832007200142 1.6015838940900027 L1.8678494117199556 1.6022040120899748 L1.9477411767200543 1.6036509520899687 L1.9771967427199648 1.6127460040900319 L1.989289027719959 1.612229239090003 L2.0075824847200145 1.6045811280900226 L2.017090948720007 1.6026174230899857 L2.0960525377199666 1.6109890050899667 L2.26167550171996 1.5976564860899503 L2.3981012837200204 1.5868044350899924 L2.43685860771998 1.5984833090899615 L2.4608364727199863 1.6121258870899782 L2.475719284720011 1.6177069420899857 L2.594678432720027 1.6087152420899473 L2.6176227687199933 1.611299064090038 L2.676740606720042 1.6321763430900136 L2.6963776507199917 1.6347601640900153 L2.8006606907200045 1.6367238690900523 L2.8911977997200005 1.638584220090057 L2.936673060719979 1.6307294030900197 L3.0002350727200415 1.6468524490900096 L3.0311375797200206 1.6498496830900153 L3.1582616027199855 1.626595288090006 L3.214180723720059 1.625667426089966 L3.2516925917199693 1.6250449950899837 L3.3429531717199517 1.6234947020899613 L3.4341103987199197 1.6219444090900383 L3.5253709777200264 1.620497469089945 L3.6166315567200193 1.618947176090022 L3.7078921367200017 1.6173968830899996 L3.7990493627199804 1.6159499420899168 L3.890309942719991 1.6143996500899833 L3.981570521719984 1.6129527100899894 L4.072831100719977 1.6114024170899812 L4.1640916807199595 1.6099554760899837 L4.255248907720041 1.608405184089965 L4.346612838719974 1.6068548910899425 L4.437770065720027 1.6053045980900196 L4.52903064572001 1.6037543050899972 L4.555384950720022 1.6033061030900386 L4.620187871719988 1.6022040120899748 L4.711551804720013 1.6007570720899809 L4.770256231720051 1.5998268960900264 L4.795784388719991 1.6049945390900335 L4.813044316719978 1.6154331790899663 L4.828857305719989 1.62804222809 L4.850664759720015 1.6393076900899546 L4.866994512720051 1.6419948650899885 L4.881980677720005 1.639824454089994 L4.91402006572002 1.6304193440900336 L4.933863815720027 1.627422111089932 L4.951847214720001 1.62804222809 L4.969623906719928 1.6322796950900385 L5.007451055720022 1.647575920089996 L5.014789109719995 1.6516066810899916 L5.05189278672 1.669900138089976 L5.048585495720001 1.6783750730899714 L5.035149622720038 1.6941880610899647 L5.035252976719956 1.7005959390900118 L5.044864792719974 1.7132049880900313 L5.049825730720013 1.7237469810899926 L5.0516860817200175 1.7330487390900275 L5.055716843719946 1.7957839280899792 L5.058817429719962 1.8070493900900333 L5.064605189720023 1.8064292720899617 L5.074010300720001 1.8017783940899976 L5.082898646720022 1.800538159090057 L5.08672270271995 1.810460034089961 L5.065638718720006 1.8349546630900067 L5.085482468720013 1.8369183680899583 L5.097574753720007 1.8459100660899894 L5.114627975720023 1.8691644610900129 L5.126306849720006 1.8753656330899888 L5.139639369720012 1.8794997480900166 L5.150388067719941 1.886114330090014 L5.15493559371998 1.8995502040899668 L5.172402227720024 1.9192906000900267 L5.181290574720034 1.934380118090023 L5.178913458719986 1.9476092850899294 L5.171782110719956 1.960321688089981 L5.169301641719979 1.9767547930899427 L5.169921758719962 2.050031974090051 L5.171472052719988 2.058506909089961 L5.174675990720029 2.067808667089982 L5.176846400719935 2.0776271890899567 L5.175502813719984 2.0875490630900417 L5.169818405720033 2.0911664140899306 L5.160620001720016 2.091889884090027 L5.15193835971996 2.0949904700899724 L5.148114304720021 2.10501569808999 L5.147494187719953 2.1435663170899675 L5.149251185720029 2.1473903720900056 L5.15493559371998 2.156485425089973 L5.161550176719995 2.160619539089997 L5.168164760719971 2.1591725990900033 L5.173435755720018 2.1605161860899686 L5.175502813719984 2.1735386470899174 L5.16971505271999 2.1865611090900403 L5.160620001720016 2.200410392090011 L5.160620001720016 2.210228914089986 L5.1823241027200275 2.2111590900900255 L5.175812871719952 2.2257318440899967 L5.176226282719963 2.2369973060900508 L5.182530808719971 2.2462990640899863 L5.192866094719985 2.255807527089961 L5.2018577947199525 2.2671763420900435 L5.201341029719995 2.276788159089965 L5.189042038720057 2.2975620850900116 L5.18532133572003 2.3150287190899563 L5.1885252747200035 2.331255119089964 L5.203201381719989 2.364741446090055 L5.207542200719981 2.382414787089961 L5.210436081719958 2.419311760089987 L5.2148802557200575 2.437191804089953 L5.222631719719967 2.4535215570899895 L5.277615443720006 2.530312736089958 L5.281439499719962 2.5449888430899437 L5.283093145720013 2.55956159709 L5.287433965719995 2.572997469090045 L5.299009486720021 2.583642814090031 L5.309861537719993 2.5873635170900444 L5.333942754720024 2.5898439860900213 L5.3453115707200105 2.5923244540899946 L5.369496140719971 2.6092743240899994 L5.381485072719951 2.6337689530899597 L5.389029831719991 2.690923087089989 L5.386652715720029 2.6950572020899175 L5.3831387187200015 2.7044623130899668 L5.383242070720026 2.7138674230900124 L5.392130417719951 2.7182082440899977 L5.4036025857199625 2.720585359090042 L5.409803757720024 2.7266831790900072 L5.413834519719924 2.7346413490899737 L5.4191055157200445 2.742392814089972 L5.427683802719994 2.7599628010900448 L5.42385974771997 2.775569083089981 L5.416831752720039 2.7926223060900144 L5.415694870719928 2.814429760089955 L5.383655482720027 2.805851473090006 L5.38158842572005 2.8308628660900057 L5.402052292720011 2.8962852290899876 L5.400191940720017 2.9498220140899365 L5.40535958372001 2.958400301090056 L5.415074753719974 2.9642914150899644 L5.427373744719997 2.9774172280900233 L5.443600143720001 3.000051505089975 L5.446183965720021 3.015761140089954 L5.446183965720021 3.031264070089965 L5.450628138720017 3.0431496500899913 L5.4773965307199965 3.0512111740899757 L5.511192917719992 3.075085685089964 L5.537031133720003 3.0874880290899442 L5.547883184719947 3.097513257089962 L5.552327357720056 3.1126027750899583 L5.552424006720056 3.123491862090053 L5.552637416719957 3.1475360430899615 L5.558528529720032 3.1612819740899925 L5.572687871720003 3.1706870850899422 L5.580749395719973 3.1566310950900247 L5.586743861720006 3.15477074409002 L5.592738327720038 3.15890485809003 L5.600696497720005 3.163245679090015 L5.621987188719995 3.1687233800900048 L5.631082240720044 3.1733742590899725 L5.634802943719958 3.180608960090031 L5.629428594719993 3.186810132090021 L5.617646368720013 3.1907375400899882 L5.606070847720044 3.1964219480900242 L5.600696497720005 3.208307528089965 L5.603073613719939 3.217815991089954 L5.60948149172 3.224327221090012 L5.6179564267199815 3.2304250400899734 L5.627361537720045 3.2390033280899972 L5.64079740971999 3.2615342530900238 L5.657437221720013 3.3094899820899615 L5.672320033719952 3.3311940840899625 L5.721102585720015 3.355585359089976 L5.740946335719993 3.37036481908999 L5.737225632719994 3.3891750410900032 L5.741979864719976 3.405401440089922 L5.741049688719951 3.4288625410899884 L5.74342680471997 3.4446755290899818 L5.758309616720023 3.4376475340899804 L5.760480026720014 3.4452956460900497 L5.762650437719994 3.4470526450899444 L5.762650437719994 3.4475694090899696 L5.758309616720023 3.4519102290899513 L5.774949427720028 3.4588348710900236 L5.7751561337199995 3.467619865090019 L5.768748256719956 3.477024976089983 L5.765130905719982 3.4860166740900143 L5.770505254720032 3.498832430089995 L5.788592005719945 3.51485212408996 L5.792416061719987 3.5238438230899947 L5.796963587720025 3.5292181720899594 L5.820011276719978 3.5325254640899617 L5.829933152719999 3.537486401089997 L5.831483444720018 3.546891512089961 L5.830656621719978 3.5592938560900267 L5.835514206720003 3.5683889080900046 L5.854531133720055 3.568595614089962 L5.854531133720055 3.5754169020900024 L5.845229375719949 3.5844086020899555 L5.852154017719922 3.5865790120899463 L5.865383184720027 3.586682365089975 L5.875098353719974 3.5890594810899232 L5.878095587719965 3.6003249430899773 L5.877578822719951 3.6131406980899685 L5.880886114720024 3.6206854570900093 L5.895458868719995 3.6163446370899424 L5.906931035720017 3.6291603920900046 L5.90321033271999 3.638048738090025 L5.8939085757199585 3.6473504960899605 L5.888637578719933 3.660993074089963 L5.892358281719961 3.6676076580899677 L5.901349981719985 3.6741188880900255 L5.922847377719929 3.6846608800899974 L5.918093145720032 3.6921022860900097 L5.917576380719989 3.694996167090001 L5.919746791719998 3.6977866940899604 L5.922847377719929 3.705124748089962 L5.925637904719988 3.7007839270899767 L5.9317357237199495 3.695719637089998 L5.9363866027200025 3.6908620520899733 L5.945481654719995 3.7226947350900206 L5.950752650720002 3.732409904089967 L5.960881231719977 3.7417116610899983 L5.982895391720032 3.752977124090042 L5.991060267720055 3.7603151770899546 L5.994574265720015 3.7772650470899594 L5.982895391720032 3.8057904370900006 L5.990747762720044 3.820600606089987 L5.991060267720055 3.821190014089983 L5.998811732719982 3.8299750080899786 L6.054725632719961 3.8437209390900096 L6.082940963720031 3.8432041740899665 L6.167793666719998 3.8135419030899174 L6.197869350720051 3.8159190180899616 L6.231769089719958 3.8285280680899847 L6.244068080720009 3.8269777750899623 L6.306286505720006 3.792974683090013 L6.322512904720011 3.789667391090025 L6.355895879720006 3.7932847410900097 L6.385351445720001 3.8073407310900267 L6.436407761719973 3.850542228089968 L6.463072800720024 3.8564333410899723 L6.552679733719966 3.854469637090024 L6.546271856720008 3.82935489109001 L6.5474087387200335 3.801552970089962 L6.556710495719951 3.778505282089985 L6.574900599719992 3.767653231089942 L6.590300176719975 3.763725822089971 L6.631124558719986 3.744398836090018 L6.647247604719947 3.7421250730899986 L6.721868372720021 3.7450189530899864 L6.770754278720002 3.746879305089995 L6.808168015719982 3.76114200008998 L6.8210871237199875 3.7619688230899913 L6.8364866997199805 3.7575246490899916 L6.85839750772001 3.745845776090012 L6.875037318720043 3.7434686600899783 L6.936325567719987 3.7425384840900096 L6.942423386719948 3.7434686600899783 L6.962163783720026 3.7427451900899813 L6.956789434719976 3.705331453089916 L6.9588564917200095 3.685901115090023 L6.971052129719933 3.6774261800899284 L7.043192429719934 3.677529533090042 L7.121430548719982 3.677529533090042 L7.19305408271995 3.677529533090042 L7.201839076720031 3.68300723508995 L7.2065933077200235 3.7111192140899805 L7.212794479720028 3.723418204090014 L7.2282974097200245 3.747189364089981 L7.2725324357200485 3.747189364089981 L7.399966518719989 3.747189364089981 L7.52760730571995 3.747189364089981 L7.655144740720001 3.747189364089981 L7.78278552871998 3.747189364089981 L7.810070684720014 3.747189364089981 L7.788573288719956 3.6694680090899725 L7.785472702720025 3.6438364990900043 L7.788366583720002 3.612520581089986 L7.803042689719998 3.5667352620899537 L7.8125511537199905 3.53676293109 L7.832291550719955 3.4752679760899996 L7.835908900720025 3.449119702089992 L7.835495489720014 3.4249351320900177 L7.827744023720012 3.398993563089978 L7.816375209720004 3.3722251710899984 L7.808210332719991 3.3454567790900187 L7.810174037720028 3.3193085040899364 L7.879213750719995 3.324889559089944 L7.898437383720019 3.320445386090033 L7.912803431720018 3.305459221090051 L7.923242071720036 3.2662884840900164 L7.936884649719953 3.248718497090043 L7.93760811971995 3.248098380089975 L7.93843494271999 3.247581616089936 L7.939261765720001 3.2471682040899355 L7.967683802720014 3.224637280089998 L7.968303920719986 3.1936314210899797 L7.941742233719989 3.1271755290900147 L7.933990769719966 3.092862378089994 L7.930890183719949 3.0611330480899754 L7.941742233719989 2.8990757570899506 L7.951560755720035 2.866933016090006 L7.963136277719993 2.848432853089979 L7.990731492719984 2.8136029380900185 L7.997139369720028 2.797479891090039 L7.99476225371998 2.786834545090035 L7.976365443719995 2.7471470460899683 L8.028558640719975 2.7471470460899683 L8.070623256720008 2.7471470460899683 L8.112584519719999 2.7471470460899683 L8.15454578172 2.7471470460899683 L8.19650704471999 2.7471470460899683 L8.238571660720023 2.7471470460899683 L8.28063627671997 2.7471470460899683 L8.32259754071995 2.7471470460899683 L8.364558803720055 2.7471470460899683 L8.406623418719985 2.7471470460899683 L8.417608226720002 2.7471470460899683 L8.448584681720003 2.7471470460899683 L8.490649297720008 2.7471470460899683 L8.532713913720041 2.7471470460899683 L8.574675176719946 2.7471470460899683 L8.616636439719965 2.7471470460899683 L8.65859770272004 2.7471470460899683 L8.700765671720003 2.7471470460899683 L8.748824753719983 2.7471470460899683 L8.748721400720026 2.7326776450900256 L8.753165573719965 2.6997080810899705 L8.757713100719993 2.6853420320899675 L8.765774622719984 2.6702525150899747 L8.774042852720012 2.6637412840899986 L8.78561837371998 2.6619842850900186 L8.838224980719954 2.6618809330899937 L8.921837448719966 2.6615708740900077 L9.008240443719952 2.66136416809005 L9.066014694719964 2.661157462089993 L9.042656947720015 2.7220323000900395 L9.015475143720007 2.7930357180899437 L8.99997221472 2.8337567460899935 L8.978991582719996 2.888327059090021 L8.97279041072002 2.93493920008999 L8.973927292720017 2.982378166089977 L8.975064174720043 3.0315741290900364 L9.021572962719969 3.0313674230899936 L9.094333379719952 3.0311607180900255 L9.167093796720021 3.031057365089997 L9.239750859720058 3.030747306090011 L9.31251127772003 3.030540601090057 L9.385271693719996 3.0304372470899397 L9.458032109719962 3.0301271890900425 L9.53079252772002 3.0299204830899997 L9.603449590720057 3.0298171300899712 L9.67631335971998 3.029610425089918 L9.748867071719982 3.0294037190899603 L9.821627487719947 3.0291970130900028 L9.894491256719956 3.0289903070899458 L9.96714832172 3.028783602089992 L10.04001209071998 3.028576896089935 L10.112772506719974 3.0283701900899773 L10.18542957171999 3.028163485089924 L10.219019252720013 3.0279567780899628 L10.239483118719985 3.028576896089935 L10.239173060720017 3.03209089408998 L10.242790410720001 3.036948478090001 L10.249301641719963 3.0392222410900205 L10.257053106719976 3.044079826090031 L10.263357630719977 3.0516245850899866 L10.285888555719989 3.0993736090899704 L10.29146961072001 3.1057814860899997 L10.29694731172 3.115083244089935 L10.294466843720013 3.123351473089987 L10.289505905719974 3.1304828200900134 L10.287438848720026 3.1359605220900066 L10.293226608720001 3.1472259840899754 L10.300254603719988 3.154253979089977 L10.306145717719996 3.1616953850900034 L10.308626185719984 3.174097730089973 L10.307489304719976 3.18019554909002 L10.302321661719954 3.1892906000899943 L10.301184779719957 3.194251538089948 L10.303458542719962 3.200039298090009 L10.313173712720012 3.20923770308993 L10.315447474720028 3.2150254640899947 L10.313587123720023 3.2278412190899717 L10.304492070719956 3.248098380089975 L10.301184779719957 3.2594671950899725 L10.300461309720045 3.271972892089967 L10.302735072719965 3.2781740640900425 L10.306042364719982 3.283651765089947 L10.308626185719984 3.293573641090025 L10.308626185719984 3.3311940840899625 L10.305318893719967 3.338842195090028 L10.290746140720014 3.3535183020900137 L10.287438848720026 3.359409415090018 L10.28557849772002 3.378012931089974 L10.281087194720012 3.3907989820899944 L10.274106328719991 3.4106724370899473 L10.262427455720026 3.4445721760899675 L10.249611700720035 3.4814691480899898 L10.241756882720008 3.5037933670899593 L10.230698125720007 3.5355226960899744 L10.225013717720056 3.5519558020899398 L10.21912260571997 3.5958807690899777 L10.225427129720057 3.6217189860899923 L10.226667364720011 3.633397859089972 L10.223360072719995 3.645076733089941 L10.208890671719981 3.664817131089994 L10.205583379719993 3.6744289470900116 L10.20847726071997 3.7425384840900096 L10.213024786720009 3.7603151770899546 L10.22273995572004 3.768376700090035 L10.254159226719988 3.7860500400900365 L10.26087716271999 3.797625562089981 L10.26304757271998 3.8219134850899836 L10.269662156719985 3.8419639400900296 L10.280514206720024 3.8596372800900314 L10.305732305719996 3.8886794350900162 L10.311830124719958 3.902115307089976 L10.314724004719945 3.918961824089952 L10.31699776771995 3.9616465580900426 L10.327746465719965 4.009292228089994 L10.335911341719989 4.0272756260899785 L10.365160202719945 4.055697664090009 L10.375082077720034 4.074197827090022 L10.367675384719941 4.078201445089992 L10.35978585371998 4.082466056089975 L10.354411504720016 4.094041577089929 L10.365987025719956 4.119466382089944 L10.390481654720016 4.15822370608996 L10.398439824719983 4.201115144090015 L10.394512416720001 4.245143465089986 L10.370741257720052 4.322037997089969 L10.37580554872002 4.323794995089959 L10.378906133719962 4.325965405090035 L10.382936894719958 4.32772240408993 L10.390481654720016 4.328342521089984 L10.372291550719975 4.360381909089985 L10.361439499719946 4.39066429909001 L10.349657273720023 4.463941479090029 L10.33932198672002 4.527503491089992 L10.332293991720004 4.534428133089979 L10.324645879720034 4.567501049089974 L10.314413946720034 4.591582267090009 L10.306249069720021 4.6710606200900076 L10.308626185719984 4.72304711109003 L10.294260137719984 4.837562085089947 L10.306455775719993 4.938124422089975 L10.306145717719996 4.978948803090053 L10.295603724719935 5.021013419089987 L10.264701217719956 5.083335197089927 L10.258293340719998 5.118165112089987 L10.24785470071998 5.138732332089977 L10.24651111372 5.151341381089996 L10.250748581719957 5.162296785089983 L10.267698451719948 5.182657299090001 L10.274416387719977 5.19288923308999 L10.286715378720029 5.233610262089958 L10.29818754672004 5.321356844089995 L10.308626185719984 5.3630080480900135 L10.333430872720012 5.402282136089984 L10.396889532719964 5.46811791208997 L10.411048874719992 5.506978588090026 L10.417250046719996 5.503671297090027 L10.432752976719993 5.497366772090008 L10.438954148719997 5.493956127089992 L10.440814499720002 5.526305574089979 L10.452906784719968 5.554314201089984 L10.510370977719983 5.620563386089988 L10.520292852719987 5.626247794089939 L10.527320847720002 5.624077384090033 L10.534452194719929 5.616842683089975 L10.545510951719958 5.622320386089972 L10.562150762719963 5.636583081090042 L10.60080473372005 5.6608710040899455 L10.614447311719967 5.676683992089939 L10.62209542472004 5.698904858089979 L10.630156947719936 5.7341481850900395 L10.65062081472001 5.788821850090007 L10.659405808719978 5.830989819089969 L10.664263392720013 5.8433921630900345 L10.657338750720012 5.875844962090047 L10.675632207719982 5.92142357608994 L10.700230190719989 5.966382072089961 L10.718006882720001 6.0134076250900295 L10.741467982719993 6.054335359089952 L10.750046270720016 6.084514396090047 L10.764619024719988 6.10218773608995 L10.767926316719976 6.11376325609 L10.766789434719978 6.125132072089987 L10.761621791719957 6.144769116090022 L10.760484910720034 6.155001050089997 L10.755627325719924 6.170090568089994 L10.73319975372004 6.206160717090005 L10.726378464719996 6.226934643089952 L10.728548874719987 6.248225333089938 L10.738574102720005 6.261661206089987 L10.750976446719957 6.274890372089975 L10.760484910720034 6.295871004089979 L10.763998906720015 6.33814232608997 L10.763102330719985 6.3577175720899435 L10.76213855572001 6.378760001089991 L10.764619024719988 6.41400332808998 L10.780948777719995 6.439841544089991 L10.775574427719956 6.445939363090038 L10.774024135720023 6.449039950089987 L10.776918014720021 6.487383862090003 L10.774024135720023 6.506504142089999 L10.764205613719977 6.5149790770900085 L10.745188685719992 6.51787295809 L10.720383997719946 6.525107658089969 L10.678526088719988 6.542264233090013 L10.660542689719986 6.555079988090005 L10.637288294719976 6.575647209089998 L10.620028366719989 6.597558016089953 L10.620235072720046 6.613991121090014 L10.62933012472001 6.629494051089925 L10.65062081472001 6.699360587090003 L10.65062081472001 6.737497795089969 L10.653824753719984 6.742562085090033 L10.668500859719952 6.753104077090005 L10.671704799720029 6.75796166209003 L10.675115443719957 6.775221590090017 L10.691858607720004 6.8045738030899985 L10.698369838719966 6.823487378090026 L10.710048712720035 6.911750724090017 L10.70653471471999 6.9538153400899505 L10.69216866671999 6.994743074089972 L10.71759347072 6.9933994870899925 L10.736300339719971 6.981927319089981 L10.78022530672001 6.93552188308998 L10.79479806071998 6.925393303090023 L10.894843633719969 6.892113680089982 L10.923885788720039 6.8676190510900215 L10.955511764720026 6.787623933089994 L10.992098679719984 6.782352938090047 L11.068166387720051 6.812738680090011 L11.105476771719989 6.827518139090022 L11.143510625720008 6.838163484090022 L11.182267949719968 6.841987540089964 L11.218751511719969 6.835683016089949 L11.239835495719998 6.823694083089994 L11.261436244719956 6.8082945060899975 L11.283760463720025 6.797339103090029 L11.30763497472 6.7982692790899835 L11.328098841719989 6.80891462408997 L11.365719284719997 6.833512605089955 L11.385666387720018 6.841987540089964 L11.424113653719953 6.84767194809 L11.468865443719917 6.84767194809 L11.569221074719987 6.8307220780899955 L11.651283249719992 6.817079500089993 L11.761043991720012 6.756928133090047 L11.827809942719963 6.720341219090007 L11.86997791172001 6.708455640089984 L11.910492233720017 6.706181877089965 L11.94935291171998 6.709489169089967 L12.011571335719989 6.726542391089997 L12.096113978720037 6.749693433089978 L12.129393601719979 6.752173901089965 L12.16866768972005 6.749073315090006 L12.206804896720026 6.753414136089991 L12.248249395719991 6.766333244089997 L12.288246954719963 6.773671297089995 L12.321939987720011 6.7615790120900146 L12.328657923719927 6.752070548090022 L12.33630603572001 6.729746329089967 L12.342300501720043 6.71961774909001 L12.351808965719922 6.71165957809004 L12.373099655720008 6.699257234089974 L12.382504766719958 6.690575594089926 L12.390669642719981 6.670421785090032 L12.395113815719977 6.646753980090016 L12.403175339719976 6.626703524089966 L12.42198556072 6.61750511808997 Z M0.18028836971995688 12.363620428089977 L0.18118775471998205 12.401825123090024 L0.1920485097199922 12.437776278089988 L0.19303574671999613 12.451020371090014 L0.17032260371996344 12.430204661089991 L0.1565021157199986 12.400871905090018 L0.12392320172000026 12.302407874090026 L0.1258989437199567 12.27494203109001 L0.135772714719959 12.262634493089994 L0.15650607771999248 12.245591707090004 L0.17427499071999009 12.251280888089983 L0.1760565987199776 12.300632147089974 L0.18028836971995688 12.322523423089994 L0.18028836971995688 12.363620428089977 Z" fill="black" stroke="black" stroke-width="0.5" vector-effect="non-scaling-stroke"/></svg>