<svg xmlns="http://www.w3.org/2000/svg" viewBox="0 0 0.5132027319437071 0.44081298791999757"><path d="M0.42645880833276806 0.33256876595997653 L0.44985561833277643 0.3291507979599686 L0.4612081573328055 0.32972045896001134 L0.4609640163328095 0.33631225596001 L0.44094448533280683 0.36870157895997124 L0.43329474533277335 0.3782230629599752 L0.422308417332772 0.38514038096001 L0.39618537033277335 0.3926273599599739 L0.33433641233278877 0.4294112139599946 L0.33148810533276674 0.42517944295995846 L0.32473354833280155 0.4205407709599598 L0.32001349533277335 0.4157393389599946 L0.2970235873327738 0.43217814095997653 L0.2833517123327738 0.4364912919599959 L0.2660177273327804 0.4362471519599893 L0.29177456333280816 0.40743855795999195 L0.29950568333276806 0.4014978029600087 L0.31106167333280155 0.3975101729599686 L0.33661505833276806 0.39311564095997653 L0.34800828733278877 0.3878666179600003 L0.3660746933327914 0.36910847995999063 L0.3787700063327861 0.35124552396000297 L0.3956563993327791 0.33785847995999063 L0.42645880833276806 0.33256876595997653 Z M0.005885891332809479 0.0127445479599686 L0.005031399332779074 0.004321695960001648 L0.010280423332801547 0.00554239896000297 L0.005885891332809479 0.0127445479599686 Z M0.47564920899043983 0.3161638082282181 L0.48317747834703084 0.3134536312598435 L0.4861887860896701 0.30833440809736246 L0.5000408017058007 0.3110445850657335 L0.5081713326109281 0.31586267745395347 L0.5018475863513885 0.31827172364806344 L0.48889896305804115 0.32188529293923196 L0.48648991686393117 0.3251977314561323 L0.47715486286175945 0.33122034694140723 L0.4738424243448591 0.3279079084245069 L0.4777571244102887 0.32308981603628695 L0.47564920899043983 0.3161638082282181 Z M0.18182290715236604 0.33261546439959133 L0.17237944607145295 0.3293391615756036 L0.171223103898285 0.32355745070973896 L0.18028111758813736 0.318739358321519 L0.18824785056352056 0.3223753234960718 L0.19781897388125458 0.32259383223209426 L0.18182290715236604 0.33261546439959133 Z M0.2493494321312184 0.3375380705854596 L0.25436024821496517 0.3390798601496918 L0.25031305060885956 0.3404289260183937 L0.24684402408934147 0.34023620232286333 L0.24414589235193773 0.3381162416720471 L0.2416404843100679 0.33676717580334525 L0.24376044496088412 0.3363817284122881 L0.247422195175929 0.3371526231944024 L0.2493494321312184 0.3375380705854596 Z M0.25956378799424584 0.3410070971049777 L0.26149102494953524 0.3410070971049777 L0.2626473671227032 0.340043478627333 L0.2647673277735265 0.34023620232286333 L0.26553822255564086 0.3437052288423814 L0.2624546434271764 0.3440906762334386 L0.25975651168977265 0.3435125051468546 L0.25956378799424584 0.3410070971049777 Z" fill="black" stroke="black" stroke-width="0.5" vector-effect="non-scaling-stroke"/></svg>