<svg xmlns="http://www.w3.org/2000/svg" viewBox="0 0 0.6942817805866639 0.811632657941562"><path d="M0.47145133346325707 0.6866274309209999 L0.4758458644632597 0.6751935109209981 L0.47226513546329585 0.6654278859209981 L0.47263134646326677 0.6568422739210078 L0.48886669746330114 0.6487856339210012 L0.4817052394632597 0.6461000869210025 L0.46091259646326677 0.6351137589210012 L0.4719396144632597 0.6251446829209968 L0.48968049946328307 0.6178204649209889 L0.5127110984632637 0.6112286679209902 L0.5046137684632654 0.5980043839210012 L0.5062820624632778 0.5861635639209695 L0.5153966454632624 0.5757875869210025 L0.529800942463261 0.5668764539209761 L0.5617019844632765 0.5707013239209928 L0.5743972964632817 0.5884828989210078 L0.5820470364632584 0.6091127819209774 L0.5986485984632637 0.6214825739209928 L0.5996251614632584 0.612612130920958 L0.6023107084632571 0.606752755920958 L0.6117508124632778 0.5941388239209928 L0.6174474274633113 0.6026837459209915 L0.6252192364632734 0.6076479389209695 L0.6349848614632734 0.6092755429209902 L0.6464594714632668 0.6078106989209928 L0.641576658463272 0.6131004119209607 L0.6387690414632985 0.6168439019209941 L0.6345372704632624 0.6195294489209928 L0.6254226874632778 0.6214825739209928 L0.6299799794632932 0.6358054909210082 L0.6402338854632958 0.6425600479209734 L0.6534174794632932 0.6421938369210025 L0.666967283463272 0.6351137589210012 L0.6744135724633011 0.6351137589210012 L0.6795405264632919 0.6400372609209981 L0.6829584944632998 0.6450014539209761 L0.6874750964632668 0.6562319229209734 L0.6806798484632637 0.6557436419209708 L0.6669265934632804 0.6567202039209761 L0.6601313464632668 0.6562319229209734 L0.6694086904632641 0.6673810109209981 L0.6779943024633113 0.6727114149210038 L0.6828771144632597 0.6780825089210012 L0.680639158463272 0.6897605689210096 L0.6693679994632831 0.7070945529209567 L0.6580561514632919 0.7078269749210122 L0.6451166974633011 0.7014793189210096 L0.6288406564632751 0.6971661679209902 L0.6210688464632668 0.7007875869210025 L0.6207026354632958 0.7098614799209955 L0.6254226874632778 0.7344789929210052 L0.6179357084632571 0.7464011939210096 L0.6015375964632668 0.7388328339209593 L0.5853022444632998 0.7246726779209567 L0.5782221664632985 0.7171043189210096 L0.5714676094632765 0.7187319229209734 L0.5510004864632734 0.7283347869209607 L0.5372065414632985 0.7306948139209695 L0.5163732084632571 0.7308168839210012 L0.5033523744632831 0.7280092669209708 L0.47141064346326544 0.7093731989209928 L0.4646967764632919 0.7002586159210082 L0.47145133346325707 0.6866274309209999 Z M0.516129067463261 0.1423159069209774 L0.5032709944632998 0.14907046492098885 L0.49777783046327073 0.13466616792099018 L0.49570263546329585 0.09385399292100516 L0.4911453434632804 0.07550275592095801 L0.48532665846327205 0.060162586921002514 L0.48121695846325707 0.04449689692101089 L0.48203076046329585 0.025006336921002514 L0.4856928694632998 0.02830223492097872 L0.4872390934632804 0.031557443921009565 L0.48886669746330114 0.039288563920969466 L0.49497021346329717 0.051414214920988854 L0.5108393544632932 0.06968407092100648 L0.516129067463261 0.08022280792099679 L0.5158442364632734 0.09422020392097608 L0.5118972964632817 0.1060610239210078 L0.5118972964632817 0.11546043892096947 L0.5236160464632817 0.12180809492097211 L0.5285802394632597 0.10317202692099414 L0.5300450834632571 0.07770002192101089 L0.5238601874632778 0.055157703920976076 L0.5058751614632584 0.0455141489210078 L0.49863232246330114 0.03456851092099811 L0.5033930654632641 0.015362781920977397 L0.5172683904632791 0.007957182920996786 L0.5372065414632985 0.032452625920974754 L0.5304926744632681 0.0362774959209915 L0.5236160464632817 0.039288563920969466 L0.5368403304632707 0.043805164921003836 L0.5577957344632765 0.0368471569209774 L0.5707758774632694 0.039288563920969466 L0.586889158463272 0.051007313920969466 L0.6008051744632681 0.06687645392097608 L0.6117915024632694 0.08429181892100956 L0.6191564114632584 0.1007306209209915 L0.6263178694632998 0.13067853692096065 L0.6272944324632945 0.1471987199209721 L0.6254226874632778 0.1628237199209721 L0.6186681304632557 0.18162254792097343 L0.6117915024632694 0.1850405169209708 L0.6014969064632751 0.18414533392095933 L0.5844070624632778 0.19008608992098885 L0.5781000964632668 0.1722231339210012 L0.5603185204632624 0.15952782092100648 L0.516129067463261 0.1423159069209774 Z M0.009477842441164341 0.7965055237465677 L0.01046195340033762 0.7952402382276276 L0.012008413479044577 0.7947481827480409 L0.012149000758924444 0.7972787537859212 L0.012008413479044577 0.8005825548631549 L0.010602540680217487 0.8031131259010351 L0.00800167600240087 0.8036754750205652 L0.006806684123397133 0.8019884276619784 L0.007790795082577517 0.798262864745098 L0.009477842441164341 0.7965055237465677 Z" fill="black" stroke="black" stroke-width="0.5" vector-effect="non-scaling-stroke"/></svg>