<svg xmlns="http://www.w3.org/2000/svg" viewBox="0 0 3.2296447272000535 2.4752861209800585"><path d="M1.5977691416000397 0.024267510990000574 L1.6347694656000016 0.08354037898999422 L1.6246925615999857 0.10462436399001263 L1.6302219395999913 0.11702670798999293 L1.647378515600039 0.12260776299001463 L1.7126975266000812 0.12265943799002343 L1.7298024256000275 0.1268452299900673 L1.7821506505999736 0.157851088989986 L1.7951214356000804 0.17206210798994448 L1.7964133466000334 0.18797844899006577 L1.7621001955999844 0.20694369899001686 L1.6631915046000216 0.20379143699005908 L1.6525461586000318 0.2359341779900035 L1.6654135906000391 0.2526256649900347 L1.6870660155999957 0.26368442298993955 L1.7063930016000626 0.26518303899004536 L1.7124908205999958 0.253297458990005 L1.7153847005999836 0.23510735498999225 L1.7319211595999917 0.2418252909899934 L1.764580664600075 0.2675601539899901 L1.7850445316000076 0.2771719709899969 L1.800547461599976 0.28983269699003245 L1.8169805666000087 0.3002713359899758 L1.8641094726000205 0.30445712699003025 L1.9079310876000335 0.3180997049900327 L1.9307203936000263 0.3208902319899778 L1.9773171446000646 0.30327177398999083 L1.9868926756000036 0.29965121899002156 L2.01448789060008 0.297377455989988 L2.020585709600013 0.3210452619900366 L2.0118007166000638 0.3533947089900096 L2.0240997065999835 0.3635232889899669 L2.038211980600053 0.36633968699004527 L2.0481809246000324 0.368329197989965 L2.074639257600026 0.38481397998995703 L2.117427343600056 0.4265685369900041 L2.133240332600039 0.43881585099001086 L2.153600845599996 0.4437767879899752 L2.1771652995999915 0.4450686999900313 L2.1945285806000783 0.45204501799003083 L2.196337255599971 0.4741625309900144 L2.1775787106000024 0.5153486469900201 L2.1512237306000515 0.5381379539900024 L2.0737043086000284 0.5665368309899748 L2.0332981125999794 0.5813394509900434 L1.9941790526000744 0.6057824039899913 L1.9690126296000443 0.6394237619900309 L1.968954383600007 0.6634215009900117 L1.968909277599991 0.682005141990004 L1.9831719726000614 0.7052078599899971 L2.002395605599972 0.7196255839900232 L2.0226010905999914 0.7317695459900335 L2.0400160476000195 0.7483576809900399 L2.0439434575999798 0.7582278799900166 L2.0462172195999955 0.7803453919900107 L2.0508164226000503 0.7910940899900254 L2.060066503600055 0.7990005839899936 L2.080788753600004 0.8094392239900117 L2.0892120115999973 0.821066420989979 L2.1215614586000555 0.8736730289899697 L2.1807826496000615 0.9159960269899727 L2.41374000659998 1.0169200989899991 L2.4145208426000266 1.0175788709900644 L2.4570448566000067 1.0534553369900266 L2.4770953125999853 1.0542821599900378 L2.4838734095999797 1.0527629309900135 L2.4980759435999715 1.0495796039899687 L2.5199867506000118 1.0485460759900036 L2.534559504599983 1.0544371889899935 L2.5489255535999717 1.06513421099001 L2.5746087406000555 1.0911274559899766 L2.576469092599993 1.096915216990027 L2.577140885599974 1.1028063289899421 L2.576469092599993 1.108749119989966 L2.5583306636000174 1.1730346009900074 L2.5461350256000372 1.197529229989982 L2.5270664226000434 1.2171662749900065 L2.5048972336000332 1.2320490869900595 L2.501176530600034 1.2396455229900027 L2.489394303600008 1.2856375469900172 L2.4825730146000495 1.2962828919900176 L2.469137141600001 1.3049645329899704 L2.3992706056000515 1.310235528990006 L2.2349395506000604 1.289306573990018 L2.171635921599986 1.320829197990065 L2.1729526386000515 1.3307369579899557 L2.1747881836000573 1.3445486799900266 L2.206517512599973 1.3555557609900006 L2.3108005536000036 1.3638239889899637 L2.338137386599996 1.3742109529899835 L2.35978981060002 1.3926594379900052 L2.4045466416000494 1.4634582119900301 L2.412189713600057 1.4755484359900208 L2.4572515625999785 1.5101716459900274 L2.4785568416000245 1.5185720129899778 L2.51151181660002 1.5315656889900424 L2.5746087406000555 1.5462417959900279 L2.601945572600002 1.5668090159900032 L2.640496191599979 1.627167087990017 L2.671915461599994 1.6465974269899846 L2.7098459635999887 1.655072361989994 L2.7270542155999777 1.6625654449900367 L2.7414719406000216 1.6762596989900374 L2.7649330395999954 1.7106245259899993 L2.7796091476000555 1.7214765769900282 L2.801830012600007 1.7267992489899768 L2.8365565756000564 1.7212181949900582 L2.9048728196000155 1.6941914209900233 L2.9390826176000786 1.6961034489900442 L2.9532419596000494 1.705043471989967 L2.9768064126000553 1.7296931299899825 L2.991792578600027 1.7380647119900345 L3.011532975599991 1.7407002099900524 L3.0746815756000245 1.7360493309899994 L3.0908046226000323 1.7387881819900315 L3.1073927576000386 1.7471597639899983 L3.119640071600074 1.7600788719900322 L3.1226373045999907 1.7765636539899958 L3.113645605600013 1.7892760569900474 L3.099072851599985 1.796252374990047 L3.0873939776000014 1.8045206039899995 L3.0870839196000333 1.8210570629899792 L3.09395688459999 1.8315990539899474 L3.0935951495999774 1.8409524889899842 L3.086773860600019 1.8482905419899964 L3.0746815756000245 1.8528380679900351 L3.074321158600057 1.8528904599899931 L3.001094335599973 1.8635350899899379 L2.9693650066000004 1.8787279599899591 L2.95623919260008 1.904462823990059 L2.9699851245999724 1.935882094989978 L3.0027479825999848 1.9555708159899439 L3.0746815756000245 1.9804788559900146 L3.090649592600002 1.9907107899899756 L3.0980393235999912 2.005231866990016 L3.1033103186000375 2.021148208989956 L3.1130254885999733 2.035875990990064 L3.1372100586000187 2.0556680649900443 L3.179894791600006 2.0789482969900632 L3.1865093746000497 2.083650852990047 L3.1932273116000687 2.089645318989966 L3.1945105796000774 2.0922327769900164 L3.1979815436000507 2.0992312969900695 L3.189196549600055 2.102590264989999 L3.1681642416000244 2.103210382989971 L3.1218104816000363 2.128893568990037 L3.1095114906000134 2.1302888329900043 L3.048740006599971 2.106310967989998 L3.013703385600067 2.1027969709899423 L2.990655696600001 2.1195401349899896 L2.9916375485999964 2.150287611990052 L3.017217383600027 2.170079685990032 L3.0504970045999897 2.1847816309900168 L3.0746815756000245 2.199948663989943 L3.087290625600062 2.2328148749899697 L3.0928716796000657 2.2611852359900695 L3.089977799600078 2.289193861989986 L3.076851985600044 2.320949029990004 L3.0761285156000184 2.324101292990065 L3.0746815756000245 2.3269693339900357 L3.071167577600008 2.339113295990046 L3.0694622566000334 2.3514898009900094 L3.070444108599972 2.3636596019900082 L3.0746815756000245 2.375338474990002 L3.1094081375999707 2.43254428499003 L3.091424739600072 2.4286427149899907 L2.9872450526000733 2.392365859990008 L2.9736024745999856 2.3900145809899698 L2.9629571295999853 2.391099786989969 L2.938720882600009 2.3972492819900424 L2.8999118816000617 2.3984636789899696 L2.886682714599985 2.4007891179900014 L2.8673040525999767 2.408153009990002 L2.8153175625999864 2.4375568999899997 L2.797850927600038 2.4441714829899865 L2.731240006600032 2.451018609990058 L2.672948990599977 2.364228041989975 L2.620859147600058 2.250953302989984 L2.6006019856000506 2.2192756499899815 L2.5746087406000555 2.1902851709900233 L2.553473079600039 2.163206720990047 L2.544378027600075 2.1369292539900187 L2.5504758466000084 2.111478610989991 L2.5746087406000555 2.0867772769899773 L2.5813783526000265 2.0800335029899486 L2.5834454105999924 2.072824639989989 L2.581171647600044 2.065279880989948 L2.5746087406000555 2.0574250639900242 L2.5541965496000074 2.042283868990012 L2.497157623600046 2.020595907990014 L2.4825730146000495 2.015050388990005 L2.4586985036000755 2.0006843409900057 L2.4396815756000336 1.9846646469900406 L2.4191143556000014 1.9716421859899924 L2.362373633600029 1.9603250479900396 L2.359739877600063 1.9555777839899804 L2.354002051600034 1.9452355289900254 L2.3603582516000614 1.925236749990006 L2.393999609600016 1.8822936349900203 L2.3984437825999834 1.8665323219900358 L2.389400407600064 1.820850355990018 L2.389400407600064 1.8207470029900037 L2.3926560226000078 1.795322198989993 L2.392449316599979 1.7783723289900024 L2.3834576176000013 1.765763279989983 L2.360823339600003 1.753154229990031 L2.3332281245999837 1.7449376779900092 L2.31002540759998 1.7452477359900058 L2.3044349336000067 1.7462977809900053 L2.1818161786000445 1.769328952990037 L2.1550477865999795 1.7779072409899754 L2.074639257600026 1.8175430649900193 L2.0639939126000257 1.8210570629899792 L2.0528318035999717 1.8254495589899875 L2.0414629876000134 1.8272065579900527 L2.0301975255999736 1.8258629699899984 L2.019448827600044 1.8210053859899915 L2.0193064755999757 1.820892941989996 L1.9877194986000148 1.7959423159899757 L1.9702528646000559 1.788862644990047 L1.9229172526000156 1.7854520009900057 L1.9083444986000444 1.7809044749899954 L1.8982675946000285 1.769639011990023 L1.8864336916000042 1.7488650859899906 L1.8615602186000473 1.7218017559900147 L1.8553244796000143 1.7150170239900717 L1.828556087600063 1.7219933419900713 L1.8001340496000324 1.7424055319900162 L1.763288752600019 1.7491751449899766 L1.7437033856000284 1.7394599749900124 L1.7397759766000576 1.7248872209900412 L1.7495944985999898 1.6888687479899716 L1.7512481446000692 1.6655110009900227 L1.7469073235999844 1.6470108379899955 L1.7366237135999967 1.6303193509899643 L1.6703682365999697 1.564899611990029 L1.662881445600064 1.5575072579899825 L1.6288783525999833 1.544329767990007 L1.591361262599989 1.5542516419899925 L1.5544642906000803 1.5762141259899636 L1.5485842496000117 1.578754531990029 L1.5225282556000224 1.590011732990007 L1.4884218096000126 1.5963162579900256 L1.4447035485999749 1.5957994939900004 L1.398298111600056 1.6023107249900477 L1.3699277506000698 1.611922540990065 L1.3544764975999755 1.5916137029900312 L1.2931365716000727 1.5294469549899645 L1.2874004886000279 1.5216954899900372 L1.2825429036000031 1.5183365219899372 L1.277788671600021 1.5175096989900112 L1.2666265626000808 1.5188532859899908 L1.2615622726000169 1.5183365219899372 L1.2430621085999718 1.5096032049900714 L1.2068886065999749 1.477408787990015 L1.1935560866000259 1.4837133119900159 L1.1898353836000268 1.477925551989955 L1.1895253256000018 1.4666600899900004 L1.1864247395999854 1.456893243990038 L1.1713352216000743 1.4483666329900302 L1.1628602865999795 1.4417003719900094 L1.1591395835999805 1.4330187319899608 L1.1544887045999843 1.4178258609900354 L1.1432232426000581 1.4032531079899684 L1.1175400555999744 1.381187270989983 L1.0597141275999746 1.3424299469899381 L0.9762947506000472 1.304916090990048 L0.9210145836000692 1.2800564919899955 L0.8844276696000151 1.2713231759900339 L0.8506312826000197 1.2713231759900339 L0.7903765625999739 1.2839322249900533 L0.7617478186000284 1.2866710759900002 L0.7412839516000389 1.2913219549900532 L0.7308453126000103 1.2924071599899492 L0.7223703776000292 1.2902367489899689 L0.7096579756000523 1.2807799629899819 L0.6998394536000632 1.278764581990032 L0.6784970866000748 1.2831054019900137 L0.6437188476000273 1.3018639469900108 L0.6278025065999913 1.3061014139900635 L0.5074997715999956 1.2903917789899992 L0.3981524416000042 1.2439863429899845 L0.3065818036000536 1.2239875629899757 L0.26079648459999305 1.2045572249899976 L0.24787737659998754 1.175721774990052 L0.261726660600047 1.165799900990038 L0.3069952146000645 1.1582551419899971 L0.31676206059999856 1.1453360329900022 L0.31030250660005265 1.1340705709900192 L0.27908994160007694 1.1046150049900234 L0.2684445966000766 1.086993340990034 L0.2867380536000468 1.076089614989968 L0.28571678759998065 1.0742766959899939 L0.2713384766000644 1.0487527819900322 L0.22684506860007048 1.004414402989994 L0.19981829460003553 0.9849323879899998 L0.18958636060004608 0.9692744289900475 L0.19640764960000467 0.9528929999900129 L0.20493426160003025 0.9417308899899695 L0.21983219859997405 0.9035823989900393 L0.22069557259997907 0.9013715959900139 L0.22069557259997907 0.8945503079900448 L0.18023292560000925 0.8681436499899746 L0.15899391260005302 0.8500052229899495 L0.15485979859998622 0.8368277319900699 L0.18906959659999245 0.8057185209900126 L0.21067034460007505 0.7942980289899992 L0.23433815159999938 0.7921276189900084 L0.2316509765999939 0.7849445949900655 L0.22999733060002825 0.7819473619899497 L0.22684506860007048 0.7778649239899664 L0.2329428876000037 0.7795702459900156 L0.23738706060002812 0.7803453919900107 L0.24183123460004197 0.7816889789899903 L0.24787737659998754 0.7853063299899645 L0.24684384760000455 0.7613284649900436 L0.26017636660002097 0.7406578919900255 L0.3025510416000401 0.7027790669900469 L0.29490292960007025 0.6801447899900097 L0.3010007486000035 0.6739436179900054 L0.32177467460006426 0.6457282859900317 L0.3247202306000503 0.6376150869899391 L0.3195009116000591 0.5683686669900112 L0.31598691459997497 0.5518322079900315 L0.30668515659998263 0.5330736629900343 L0.26513730459997475 0.4825857889900078 L0.25490537159997473 0.4627420399899336 L0.2495310216000206 0.4400044089899495 L0.2473089356000031 0.4199539529899994 L0.24301979160007647 0.40083367299001793 L0.23154762360006487 0.38119662898998286 L0.20023170660003586 0.35137932799005966 L0.16080258760000277 0.3265746399900138 L0.11775611960000276 0.3102448879899953 L0.074968034600019 0.30559400899002753 L0.0558477545999807 0.29184807798998236 L0.03993141360000152 0.2632710109900245 L0.03166318360000275 0.2314900049900075 L0.035797297600069555 0.20813225798994495 L0.045822525599973574 0.2100442849899764 L0.055692724600064025 0.21019931499000677 L0.06551124660005314 0.20854566898995586 L0.11951311860001113 0.19190585799003657 L0.16199114559996985 0.19066562298999656 L0.3250819666000524 0.20802890499001592 L0.3495249186000109 0.20647861199000772 L0.3691102865999909 0.2002257629899873 L0.41572242860000586 0.16921990398998332 L0.45861386760002176 0.15573235599001123 L0.5512180346000122 0.15423373899000126 L0.5731244876000545 0.15018254598999192 L0.573555587600012 0.15010282198997515 L0.5964865885999728 0.14586215699003446 L0.6366908526000401 0.13216790199001593 L0.6566379556000328 0.13056593299006636 L0.6990126296000625 0.1395576319900158 L0.7200966146000809 0.136663751990028 L0.7397336586000023 0.12865390499004548 L0.7554432945999991 0.11682000199002118 L0.7605592615999939 0.10705315598997345 L0.7612310545999748 0.09857822098999236 L0.7638148766000512 0.09113681498996584 L0.7757004556000737 0.08478061399003423 L0.7863458016000067 0.08467726098999151 L0.8134759285999706 0.09315219599000102 L0.8618450686000045 0.11852532399001348 L0.8803452316000033 0.12384799698995153 L0.9038580076000216 0.12090243999003292 L0.9131080886000262 0.11614820798996561 L0.9202911135999869 0.10989535999004829 L0.9284559896000104 0.10436598198995739 L0.9402898926000347 0.10147210198996959 L0.9526405605999884 0.10255730598996138 L1.005970638599976 0.12700025898999456 L1.0278297685999718 0.13304640099005383 L1.0503090175999859 0.13423495999006718 L1.074596940600017 0.12891228699001545 L1.094750748599992 0.11191073999000878 L1.1012619796000394 0.10813836098998308 L1.1120106775999687 0.10787997899001311 L1.1172816736000044 0.11542473799005393 L1.1208990236000744 0.12565667199004338 L1.1263767256000818 0.13325310698999715 L1.1468922686000695 0.13769727999002157 L1.161620052600071 0.12777540499001816 L1.1738156906000512 0.11191073999000878 L1.1867347986000567 0.09893995598997662 L1.2082321936000397 0.09160190298999282 L1.22848935559999 0.09366895999005465 L1.2702955885999785 0.1062263329899622 L1.4169016275999837 0.10850009598996735 L1.4431532546000625 0.10581292198995129 L1.453075130600027 0.09537428199001852 L1.4491896836000677 0.09120591398999522 L1.4424297855999697 0.08395378999000513 L1.4049126955999753 0.07031121199000268 L1.3966444666000228 0.05620354698996266 L1.4160748045999725 0.04137240999003211 L1.5126063805999905 0.05294793198999059 L1.5505368815999958 0.0520177559900219 L1.5627325196000328 0.04571323099000324 L1.5853667965999847 0.03026197699000477 L1.5977691416000397 0.024267510990000574 Z M1.574824804600027 0.232678562990003 L1.5593218755999914 0.2409467919899555 L1.5560662596000014 0.25479607599001497 L1.5623191076000325 0.26988559399001133 L1.574824804600027 0.2820812319900483 L1.6111016605999993 0.2914863429899981 L1.6253643556000696 0.26843865399001743 L1.6142539226000139 0.23980991099006133 L1.574824804600027 0.232678562990003 Z M1.8053016925999685 0.34672844899000665 L1.815843684599983 0.3356696929899954 L1.787214941600027 0.3169111479899982 L1.7830808266000275 0.3163427069900422 L1.7791534176000567 0.3168077949899839 L1.7756394205999726 0.31830641098997603 L1.772538834600013 0.3208902319899778 L1.7821506505999736 0.3438862449900171 L1.8053016925999685 0.34672844899000665 Z M2.1090557625999935 0.712752618990038 L2.074639257600026 0.7048978009900111 L2.0686447916000787 0.6952859839900043 L2.066681086599985 0.6848473459899651 L2.0687481446000078 0.6744087059900323 L2.074639257600026 0.6644868309899437 L2.0871449546000207 0.6576138659900721 L2.100942561599979 0.6545132799900273 L2.1155669926000513 0.6543065739899703 L2.1300363935999798 0.6558051909899802 L2.1560813156000194 0.6670706529900485 L2.142542089599985 0.6931672509900295 L2.1090557625999935 0.712752618990038 Z" fill="black" stroke="black" stroke-width="0.5" vector-effect="non-scaling-stroke"/></svg>