<svg xmlns="http://www.w3.org/2000/svg" viewBox="0 0 5.968208171639944 3.5677527717000572"><path d="M0.26340889881995366 0.8433782373500307 L0.3028380168199405 0.850509585350089 L0.31394844981999626 0.8791383283500451 L0.2996857548199259 0.9021860173500258 L0.26340889881995366 0.892780906350076 L0.25090320181995907 0.880585268350039 L0.24465035381992806 0.8654957503500427 L0.24790596981991797 0.8516464663499832 L0.26340889881995366 0.8433782373500307 Z M0.2863532358199663 0.6349671853500283 L0.3817867918198985 0.5755007493499917 L0.533573287819955 0.4809197413500712 L0.5656643518199402 0.47249648335007777 L0.5983755328199649 0.4737883933500129 L0.6170488888199301 0.48106710235008876 L0.6651931598199994 0.49983331534999564 L0.6807477668199553 0.5021587543500274 L0.7009015748199303 0.5008151673500763 L0.7339744918199003 0.49321873135001937 L0.7487539508199106 0.49523411335004397 L0.7632233518199527 0.5077398093500491 L0.7957795048199827 0.5308391753500175 L0.9395433388199521 0.5730588193499884 L1.0046556438199659 0.5830323713500078 L1.0280133918199894 0.5900603663500235 L1.0292536258199547 0.5962615383499994 L1.0149909308199412 0.6021526513500177 L0.992046594819918 0.6083021463499776 L0.9698257278199875 0.6291794253500527 L0.993700239819951 0.6577048153499945 L1.0350413858199872 0.6844215313500612 L1.0542901438199905 0.6933176553499933 L1.1047012168199544 0.7166159483500039 L1.2531159298199768 0.7571302723500182 L1.3013817178199574 0.7616261213500408 L1.325566287819946 0.7599724753500752 L1.3453066858198994 0.7544947733500109 L1.3715612828200037 0.7417605073500155 L1.3970864708199642 0.7293800273500537 L1.4193590128199034 0.7255042953500137 L1.494548221819933 0.7252459133500437 L1.5125316198199457 0.7300001453500258 L1.5283446088199284 0.7416790183500197 L1.5573867638199417 0.769119204350055 L1.6162978958199332 0.8095301743500372 L1.6370718228199834 0.8188836083499993 L1.6966030718199576 0.83355971535007 L1.7129845008199922 0.8444634423500403 L1.7409414508199106 0.87298883335 L1.7588731728199818 0.881308738350036 L1.78073230381991 0.880585268350039 L1.7895172968199162 0.8701466293500104 L1.7950983518199095 0.854436993350042 L1.8063638138199494 0.8384173003500948 L1.8274994748199092 0.8283920713500592 L1.847084842819946 0.829839012350071 L1.866101770819931 0.8337664213500418 L1.885738814819966 0.8313893053499939 L1.8994919418199387 0.8167536243500635 L1.9050657998199867 0.8108220853499901 L1.913437381819982 0.7786793443500741 L1.9187083778199039 0.7443661933500536 L1.928423546819964 0.717442772350033 L1.9343146608199149 0.7112416003500286 L1.9475438268199454 0.7018881653499918 L1.9534349408199532 0.6955319643500602 L1.955553673819928 0.6889690573500715 L1.9566388798198986 0.6714507473500291 L1.9586025838199461 0.6637509583500432 L1.9673875778199417 0.6559478173500324 L1.9756558058199616 0.6568779933499727 L1.9787563928199106 0.6556377593500358 L1.9724518678200056 0.6410650053499793 L1.9410325968199444 0.6047881493500071 L1.9217056118199238 0.5884583963499992 L1.9149876748199048 0.5798801093500501 L1.9137938238199794 0.5792831833500358 L1.906822798819995 0.5757976713500383 L1.8913198698199594 0.58039687334999 L1.8755068808199766 0.5524915993500983 L1.826414269819928 0.5304257633500171 L1.729055871819945 0.4994715803500114 L1.6822370238199582 0.46670872234999905 L1.6618765098198978 0.4629363423500692 L1.6501976368199607 0.4588539043499722 L1.5979010858199203 0.43167210135006684 L1.5806928338199313 0.4150322903500623 L1.5718044878199393 0.3932765123500346 L1.5638243498199458 0.3542479683500446 L1.5623477008199629 0.34702610535008915 L1.540126834819965 0.31509006935009864 L1.537853071819903 0.3095090153500948 L1.5240037888199467 0.309922426349992 L1.5173892048199704 0.31746718535006124 L1.512428266819903 0.32669142935005624 L1.5036432738199537 0.33211745435001916 L1.4767198528199046 0.31524509935004374 L1.46395577381994 0.27026076535002375 L1.4634906858199983 0.21954034635003694 L1.4729474738199073 0.1852788723500325 L1.492274458819928 0.1699051333500492 L1.5140819138199717 0.16809645835007103 L1.5609007618199016 0.17610630535005356 L1.5817263628199143 0.1746076883500436 L1.5976943808199948 0.16876825235004134 L1.612267134819966 0.1590014063499936 L1.655261926819911 0.11972731735001929 L1.6767076458199526 0.09373407234996733 L1.7148448528199296 0.03497796834999889 L1.7362905718199144 0.0392412743500401 L1.7632656698199511 0.038414451350028855 L1.8094644008198983 0.043117006350023246 L1.8274994748199092 0.05112685334997735 L1.8330805298199593 0.07004042835003332 L1.8282746218199222 0.11065810435004408 L1.8338039998199278 0.1276596493500719 L1.8515290168199598 0.1387442443500717 L1.8705459428199092 0.13864089135005742 L1.8879092248199285 0.13024347134997782 L1.920465376819969 0.10890110534997888 L1.9410325968199444 0.10342340334999989 L1.9814435668199266 0.09719639334999641 L1.9935082378199454 0.09035400134998639 L1.999530317819982 0.08693862135000785 L2.016376834819958 0.07401951335000234 L2.0247484168198966 0.07417454235004328 L2.0289858848199387 0.08528497535007062 L2.0379775838199166 0.1245332263500174 L2.043351932819938 0.1381241273500322 L2.0530671028199308 0.14969964834997285 L2.1187478478199395 0.19517490835001894 L2.1358527458198964 0.20308140335006186 L2.1484617958199337 0.20574273934999354 L2.1745067178199164 0.20832656135001315 L2.1861855918199 0.21266738134999486 L2.190836470819953 0.21848098035004426 L2.196210818819985 0.236800275350042 L2.199931521819927 0.24447422535001095 L2.2134707478199047 0.258194318350057 L2.263183475819993 0.28992364734997267 L2.2878848098199214 0.3199993313500258 L2.2965664518199773 0.34991998535007696 L2.310984175819975 0.36847182435001713 L2.31221565481993 0.36834489934999937 L2.3531004688199104 0.3641310033500176 L2.3722207478199024 0.3584465973500741 L2.3914443808199266 0.355501040349985 L2.409531131819982 0.359118390350055 L2.425344119819975 0.37301935035005584 L2.4326821728199306 0.39033095535005913 L2.436196170820004 0.4072808253500497 L2.443275842819922 0.4219052553500191 L2.4609491818199203 0.4319304833500368 L2.463202841819985 0.43368718235000614 L2.471026085819993 0.4397853013499784 L2.475780317819975 0.44872532335002546 L2.4790876098199632 0.4584404933499613 L2.484461958819928 0.46856907335000386 L2.5154161418199337 0.4978696103500724 L2.523012576819916 0.5097035143500008 L2.526733279819915 0.5341464663500162 L2.52487292881991 0.5864946923500369 L2.5347948038199988 0.6093873523500619 L2.5523647908199436 0.622616518350064 L2.6284324998199153 0.6571880513500545 L2.6512450018199942 0.663630120350085 L2.659541711819905 0.6659730453500501 L2.763101281819921 0.673466128349979 L2.7849087368199648 0.6790988593499989 L2.8131240678199205 0.7088644843500944 L2.831262496819953 0.7197682113500647 L2.851726363819999 0.719923240349992 L2.8871247188199263 0.7021465473500754 L2.906451704819993 0.6963587873500998 L2.926502160819915 0.6981674623499927 L2.9788421348199776 0.7182855373500487 L3.008512658819903 0.7296900863500397 L3.0276846148199397 0.7327389963500011 L3.0974443288199254 0.7280318053500636 L3.1126923458199016 0.7270029113500343 L3.1550670208199207 0.7172360663500612 L3.1785797978199284 0.7061256333500623 L3.182817264819981 0.6963587873500998 L3.1777529738199846 0.6835430323500233 L3.1732054488199637 0.6629758123500196 L3.1760993288199515 0.6421502103500742 L3.185401086819944 0.6324350403500247 L3.1987336058199034 0.6252003403500552 L3.213409712819974 0.6118678203500494 L3.2218846478198984 0.5936777163500935 L3.226638879819994 0.5780197573500558 L3.2371808718199517 0.5696481753500606 L3.2631224408200055 0.5730071433500754 L3.2856016888199164 0.563343650350042 L3.318519575819913 0.49177179135002547 L3.33748482681991 0.46412490035009313 L3.3705060668199494 0.44877700035004153 L3.4857961868200036 0.4319304833500368 L3.5153034298199017 0.41994155135 L3.567651655819951 0.3858867823500347 L3.6541063268199068 0.3452691063499955 L3.6769989868199318 0.3265363993500259 L3.6972044718199513 0.29780430334999863 L3.7393724408199986 0.2110137353500292 L3.746164236819901 0.20442718635003843 L3.814613326819959 0.13804661235001703 L3.8629027068199306 0.08013726435002155 L3.873319373819946 0.08705458235005636 L3.904081091819897 0.10101128835004403 L3.93940010281991 0.12481499935001494 L4.027616248819946 0.21648980335005064 L4.061795935819951 0.24240940035003433 L4.075793331819931 0.2579937103500427 L4.081571326819947 0.28228570235001627 L4.149849321819907 0.3400249603500427 L4.188016638819896 0.40203667835005064 L4.208280310819951 0.4076112233500524 L4.225126013819896 0.42079481635006033 L4.237821326819947 0.43633843635002023 L4.24612210781995 0.44927788935002155 L4.269315466819897 0.4749126553500176 L4.27338447781991 0.4808941003500493 L4.278430050819928 0.4850038013500537 L4.303169633819913 0.4906597253500493 L4.311551795819945 0.49419976435002155 L4.326444373819946 0.5110454673500229 L4.362577185819951 0.5678895433500273 L4.392850623819946 0.6156597253500493 L4.407336300819928 0.6317323163500603 L4.41986885281991 0.6504497643500216 L4.425890987819933 0.6722596603500577 L4.438260779819949 0.758970272350048 L4.444608435819951 0.7773215093500383 L4.455594763819896 0.785052629350055 L4.462430701819947 0.7965679283500506 L4.479439164819915 0.868141822350033 L4.527127966819897 0.9282004153500409 L4.647082393819936 1.0311870693500467 L4.657010779819949 1.042620988350059 L4.66596260281991 1.0587749603500427 L4.687121456819931 1.0726909753500493 L4.732694373819946 1.0941346603500577 L4.754992550819928 1.089658749350015 L4.773872758819913 1.102272681350037 L4.791776404819949 1.1191997643500216 L4.811795935819951 1.1276226163500453 L4.822782263819896 1.1373475513500537 L4.81830635281991 1.1592388273500163 L4.800890987819933 1.1965109623500396 L4.79495023281995 1.2158794523500163 L4.793485388819896 1.226377499350015 L4.794706091819897 1.237485897350048 L4.79885648281995 1.2438335533500506 L4.812284216819897 1.256569556350037 L4.815213904819949 1.2616965093500383 L4.815864946819907 1.2625510013500119 L4.822863643819936 1.2714214443500467 L4.840604529819949 1.2842388273500163 L4.860135779819949 1.2954692963500136 L4.873563513819896 1.300230038350044 L4.917020545819945 1.3022238533500357 L4.936551795819945 1.306211483350019 L4.9524209358198945 1.313210181350037 L4.988065466819897 1.337339413350044 L5.00775947781991 1.344663631350052 L5.0578896858198945 1.3497905853500427 L5.100695675819928 1.3600444913500453 L5.1242959358198945 1.3616314053500176 L5.14260648281995 1.3587830983500524 L5.198189164819915 1.3411235923500229 L5.222114946819907 1.3379497643500216 L5.33596585781995 1.3411235923500229 L5.344348018819936 1.347471249350015 L5.348742550819928 1.354469947350033 L5.351997758819913 1.3617127853500577 L5.356473670819945 1.3684673423500229 L5.3742959358198945 1.3851909753500493 L5.393338904819949 1.398333879350055 L5.413602576819947 1.406960181350037 L5.504015987819933 1.421771379350055 L5.52151273281995 1.429258358350019 L5.5324990608198945 1.4442323163500035 L5.544706091819897 1.4673442963500136 L5.5598428108198945 1.4888286713500136 L5.579618201819947 1.4981873943500048 L5.601346716819897 1.5042095303500176 L5.619901404819949 1.5194683193500467 L5.634549841819897 1.539528540350041 L5.64447822781991 1.5602398033500506 L5.654732133819913 1.6428000253500343 L5.661649451819947 1.6510194263500537 L5.66995023281995 1.669736874350015 L5.6750771858198945 1.690407447350033 L5.67182197781991 1.704282772350048 L5.652616248819946 1.6757183193500467 L5.631864295819945 1.6510194263500537 L5.607043331819931 1.6288433193500467 L5.557645545819945 1.5980816003500493 L5.536568071819907 1.5890890873500396 L5.513944373819946 1.5826600513500537 L5.469266638819896 1.577939999350015 L5.43166898281995 1.5684998943500048 L5.411649451819947 1.5664653893500216 L5.40041898281995 1.5674419523500163 L5.386828487819933 1.5719992433500423 L5.377551143819936 1.5739116783500506 L5.3391396858198945 1.5739116783500506 L5.3215615608198945 1.579648983350019 L5.287707393819936 1.601214738350059 L5.267687862819933 1.601214738350059 L5.260526404819949 1.5963726163500453 L5.247668331819931 1.5806255463500136 L5.239774451819947 1.5739116783500506 L5.229276404819949 1.5706971603500577 L5.203560258819913 1.5672791913500035 L5.177355831819931 1.5563742433500423 L5.1574990608198945 1.5648377853500577 L5.1242959358198945 1.5875835533500506 L5.131131873819946 1.6112651943500467 L5.102974321819907 1.6333599213500136 L5.062284216819897 1.649595272350048 L4.995877966819897 1.661069881350052 L4.937609737819933 1.6869894783500357 L4.861112341819897 1.7086773033500506 L4.843208696819907 1.7187277593500383 L4.804797237819933 1.7511984623500396 L4.787544633819913 1.760475806350037 L4.776476925819928 1.7714214443500467 L4.774361039819915 1.7930278893500216 L4.779813513819896 1.820208879350055 L4.780545935819951 1.8308696863500202 L4.72659085781995 1.8469829673500229 L4.716581091819897 1.8624452073500564 L4.719022498819946 1.882627499350015 L4.732694373819946 1.9028911713500136 L4.741646196819907 1.9103781503500343 L4.75588773281995 1.918923072350033 L4.76370023281995 1.9264507413500453 L4.767850623819946 1.9367453373500396 L4.762235388819896 1.9430929933500423 L4.752225623819946 1.9480571863500202 L4.734647498819946 1.960589738350059 L4.726834998819946 1.9635601163500453 L4.719348018819936 1.967751197350033 L4.712186560819951 1.977964413350044 L4.707629268819936 1.9899273033500506 L4.70705960781995 1.9989198163500035 L4.712186560819951 2.018980038350044 L4.723661170819945 2.0404237233500524 L4.727079138819896 2.052061092350023 L4.722440466819897 2.063657772350048 L4.713651404819949 2.0711040613500202 L4.706001664819915 2.075986874350015 L4.700467810819951 2.081683488350059 L4.698514685819951 2.091245663350044 L4.700305050819928 2.0968202073500564 L4.703641638819896 2.1021099213500136 L4.706327185819951 2.1080913663500453 L4.705350623819946 2.1151714443500467 L4.70111885281991 2.1195659753500493 L4.684842810819951 2.128802629350055 L4.678739295819945 2.1429627853500577 L4.679146196819907 2.1492290613500202 L4.684842810819951 2.156146379350055 L4.680285518819936 2.169248592350023 L4.685982133819913 2.182920467350023 L4.708768591819897 2.2073345303500176 L4.707547888819896 2.2158794523500163 L4.693794633819913 2.224058163350044 L4.66791572781991 2.235288631350052 L4.642687862819933 2.2588482023500163 L4.621203487819933 2.2789898033500506 L4.601997758819913 2.304014217350023 L4.602974321819907 2.321226131350052 L4.591336951819947 2.3378276943500467 L4.581083045819945 2.359841040350041 L4.573189164819915 2.3830344003500343 L4.568876013819896 2.4032166913500035 L4.569771196819907 2.4302349213500136 L4.579699581819931 2.4487082283500357 L4.672798539819915 2.514626197350033 L4.684842810819951 2.5260601163500453 L4.692899451819947 2.5389995693500467 L4.692004268819936 2.5433941003500493 L4.68752835781995 2.5469341393500216 L4.681262081819931 2.5802593353500427 L4.682645545819945 2.5902691003500493 L4.691027706819931 2.6017437103500427 L4.678739295819945 2.5967388273500163 L4.669543331819931 2.5904725513500537 L4.662626013819896 2.582944881350052 L4.657010779819949 2.5744406503500343 L4.650825883819913 2.5744406503500343 L4.654569373819946 2.5892518483500524 L4.663032914819915 2.605609269350005 L4.675321326819947 2.6199321863500202 L4.691027706819931 2.628477108350019 L4.691027706819931 2.635923397350048 L4.668485388819896 2.6317323163500035 L4.65432523281995 2.6195659753500493 L4.641629920819945 2.605283749350015 L4.590360388819896 2.5789165613500202 L4.557075883819913 2.588844947350033 L4.53127835781995 2.6147238533500357 L4.521024451819947 2.6464621343500383 L4.521756873819946 2.7559185143500216 L4.518257524819909 2.7690614183500273 L4.51361885281991 2.786761613350059 L4.499540076819947 2.819069556350037 L4.494738643819936 2.8346538663500453 L4.491808956819931 2.8700135663500035 L4.487251664819915 2.8912944913500453 L4.477811560819951 2.9090760663500035 L4.402779008819913 2.9500916913500035 L4.36322822781991 2.962095272350048 L4.335477576819947 2.9443950773500163 L4.338651404819949 2.9326763273500163 L4.338325883819913 2.9246196863500202 L4.33979072781991 2.9179058193500467 L4.349149451819947 2.910296769350005 L4.394071326819947 2.9034608323500564 L4.409452185819951 2.8972759363500202 L4.422635779819949 2.8819764573500564 L4.430773800819928 2.8619976163500453 L4.43166898281995 2.8419780853500427 L4.420357133819913 2.8231385663500035 L4.40033760281991 2.8151226163500453 L4.352567420819945 2.814023983350019 L4.352567420819945 2.8051128503500493 L4.346708045819945 2.7640972253500493 L4.342883175819928 2.7526226163500453 L4.325142289819915 2.7410259363500202 L4.306180701819947 2.7372010663500035 L4.263456091819897 2.7383403893500216 L4.251574581819931 2.7415955983500524 L4.245715206819931 2.749570858350019 L4.241808956819931 2.7597433843500383 L4.233508175819928 2.774147681350037 L4.232694373819946 2.7792339443500467 L4.233019893819936 2.7900982023500163 L4.230904008819913 2.7979107023500163 L4.226102576819947 2.8000265873500396 L4.221219763819896 2.799985897350048 L4.21877835781995 2.8010031503500343 L4.216906612819933 2.8477153893500216 L4.220324581819931 2.8722922123500396 L4.236600623819946 2.8937765873500396 L4.232531612819933 2.9181906503500343 L4.205676143819936 2.9899679933500423 L4.202176795819945 2.9964784103500577 L4.182645545819945 3.0323670823500564 L4.180204138819896 3.0346864183500273 L4.151883826819947 3.0615825773500163 L4.115751013819896 3.054258358350019 L4.116483435819951 3.0897808193500467 L4.118680701819947 3.1061382413500453 L4.123156612819933 3.1218853113500202 L4.147082393819936 3.1687603113500202 L4.152453487819933 3.3229351163500453 L4.15823148281995 3.491188697350033 L4.15823148281995 3.4913514573500564 L4.093666060819963 3.4807883123500503 L4.061678348819974 3.4806074443499924 L4.039302453819992 3.490193422350096 L4.019562056819915 3.505851382350066 L3.9942406048199572 3.5183054023500446 L3.9671621538199915 3.5274004543500084 L3.943080936819932 3.5327748033500583 L3.896915442819896 3.5297731153500465 L3.891817915819921 3.529441673350071 L3.85988188081992 3.5050503973500255 L3.8325967238199254 3.46916111434998 L3.8195945468199497 3.4562655123499653 L3.794769575819963 3.4316440243499855 L3.77988676381991 3.4151075673500983 L3.7630402468199335 3.4006640033499806 L3.746607140819968 3.380484357350092 L3.730587446820003 3.3690121883500623 L3.7176683388199976 3.35544712534999 L3.710692020819998 3.328962954349997 L3.6992198528199864 3.3073105283500226 L3.675707075819979 3.3073105283500226 L3.6250124958198953 3.325836529350049 L3.594265018819975 3.3252680883500076 L3.5761782678199197 3.3118580553500507 L3.5604686318199796 3.2936421123499926 L3.511996138819903 3.263230532350029 L3.510135786819909 3.2463323393500545 L3.5142699008199187 3.2267986473500443 L3.5095882888199057 3.2122263043500183 L3.5069318478199065 3.2039576643500354 L3.4943227988199155 3.19566359734997 L3.3619277788199255 3.1444780913500594 L3.2969188268198977 3.10386041535002 L3.277075077819994 3.0753350243499753 L3.274697961819946 3.034200584349996 L3.2839997198199384 3.0228317693500273 L3.336399621819986 2.9975103173500415 L3.3392935018199736 2.991050763349982 L3.339086795819945 2.9835060043500263 L3.342497440819976 2.9770464503500804 L3.5271373338199155 2.9515441303500367 L3.5683234498199212 2.9316228663500326 L3.5684268018199177 2.9314161603499755 L3.568581831820005 2.9314161603499755 L3.5776252078199136 2.920822491350002 L3.5853766718199367 2.9079550603500977 L3.585543686819925 2.907473559350045 L3.5902342568199614 2.8939507473499972 L3.5907510218200045 2.880023948350008 L3.585428348819981 2.8673890613500745 L3.5552493128199316 2.8171078923500303 L3.540211470819962 2.8056357243500187 L3.4830573368199325 2.7871872373499897 L3.426109907819942 2.744218284350005 L3.401718631819925 2.717372378350028 L3.3882827598199796 2.690578147350031 L3.390143111819917 2.6562391583500116 L3.4085399208199973 2.627817120349981 L3.4374787238199573 2.606371401350053 L3.4711717568199205 2.592832176350065 L3.5338035928199574 2.583065330350017 L3.5864102008199197 2.555521792350042 L3.612358775819949 2.549089780350066 L3.6228937628199205 2.5464784163499914 L3.60067289581999 2.5102532373500352 L3.5725609178199633 2.480384259350039 L3.5040379678199187 2.431395001350033 L3.335986210819975 2.275332175350023 L3.274697961819946 2.231148826350015 L3.255370975819993 2.2208652163500275 L3.2416614458199646 2.218163338350017 L3.241211632819919 2.218074689350054 L3.2296361118199783 2.231458884350097 L3.219197473819939 2.2389002913500278 L3.2068984828199163 2.241277407350047 L3.1308307738199446 2.2401405263500394 L3.10705961481991 2.2451014633500037 L3.0877326298199463 2.255488426350034 L3.0721654148199136 2.26776892335004 L3.0292349078199194 2.3016354803499652 L2.90893357481999 2.3540088183500174 L2.8909487758199575 2.3618385233500234 L2.8380321088199807 2.4034380513500295 L2.825113000819975 2.4102593413499775 L2.8026854288200056 2.4122230443500072 L2.732715538819967 2.430723208350024 L2.6908576298199236 2.4486032543500116 L2.658198124819954 2.469842267350053 L2.608485395819933 2.5194516423500417 L2.6083705408199407 2.5195428823500308 L2.57530912681991 2.5458066233500105 L2.5452728438200083 2.559036002350034 L2.533657921819973 2.5641517553499895 L2.434025760819928 2.5942791163500587 L2.3861733848200046 2.6170167463500533 L2.3764582158199445 2.625595034349992 L2.3730475708199705 2.6355685863500113 L2.3368740678199273 2.6804754053499877 L2.320027550819951 2.718405906349993 L2.314859907819958 2.7258214743500204 L2.3044212688199863 2.7354591293500263 L2.297581149819983 2.738463271350092 L2.2377069948199946 2.7647596663500096 L2.225563032819899 2.766516664350057 L2.210576867819917 2.763364402350014 L2.18267159381994 2.7536750713499814 L2.1669619588199325 2.75401096835008 L2.1503447688199557 2.7599748053500477 L2.1501154418198993 2.7600571103500258 L2.1349225708199455 2.7699273093500025 L2.121331669819959 2.782174624350027 L2.0956484818199996 2.8169011863500586 L2.089964074819953 2.8230248433500194 L2.082005904819958 2.828037457350085 L2.06546944581995 2.835039614349988 L2.0577179818199838 2.8400522283500536 L2.045574019819945 2.854831687350064 L2.0287791798198995 2.8851657543500195 L2.012346073819934 2.897464744350053 L1.9543651168200071 2.920512433350005 L1.9361233358199215 2.9324755273500713 L1.9227908158199156 2.9459372383500337 L1.894627160819958 2.99141249835008 L1.8831549928199465 3.0057268703500526 L1.8693057088200007 3.0177158023500326 L1.8538027788199756 3.0276893543500236 L1.837679731819911 3.035595848349992 L1.8160273078200007 3.0424171373500357 L1.7979922318198973 3.0432439593500575 L1.7632656698199511 2.98603814935003 L1.7590282028198985 2.974359276350036 L1.75804635081996 2.962189475350037 L1.7597516718199344 2.9498129703500737 L1.7632656698199511 2.9376690083500634 L1.764712609819945 2.9348009673500925 L1.7654360798199704 2.9316487043500317 L1.7785618938200045 2.899893536350014 L1.7814557738199923 2.871884910350097 L1.7758747198199885 2.8435145493499974 L1.7632656698199511 2.8106483383499707 L1.7390810988199163 2.7954813053500445 L1.7058014778199535 2.78077936035006 L1.680221642819923 2.7609872863500797 L1.6792397908199277 2.7302398093500173 L1.7022874798199936 2.71349664534997 L1.7373241008198974 2.7170106423500258 L1.79809558481994 2.740988507350032 L1.8103945758199629 2.7395932433500647 L1.856748335819951 2.713910057349999 L1.8777806438199818 2.7132899393500267 L1.8865656378199773 2.709930971350097 L1.883094673820004 2.702932451350044 L1.8818114058199953 2.7003449933499937 L1.8750934688199763 2.6943505273500747 L1.8684788858199326 2.689647971350091 L1.8257941528199453 2.666367739350072 L1.8016095828199 2.646575665350092 L1.791894412819964 2.631847883349984 L1.7866234178199178 2.6159315413500437 L1.7792336868199286 2.6014104643500033 L1.7632656698199511 2.5911785303500423 L1.6913320768199114 2.5662704903499716 L1.658569218819899 2.5465817693500057 L1.6448232868200066 2.5151624983500867 L1.657949100819927 2.489427634349987 L1.6896784298198995 2.4742347643499656 L1.7629052528199836 2.463590134350021 L1.7632656698199511 2.463537742350063 L1.7753579548199454 2.458990216350024 L1.782179243819904 2.451652163350012 L1.7825409788199167 2.442298728349975 L1.7756680138199599 2.431756737350007 L1.775978071819928 2.415220278350027 L1.7876569458199114 2.4069520493500747 L1.8022296998199394 2.399975731350075 L1.8112213988199173 2.3872633283500235 L1.8082241658200005 2.37077854635006 L1.7959768518199652 2.357859438350026 L1.779388716819959 2.349487856350059 L1.7632656698199511 2.346749005350027 L1.7001170698199175 2.35139988435008 L1.6803766728199534 2.3487643863500622 L1.665390506819982 2.34039280435001 L1.641826053819976 2.3157431463499947 L1.6276667118200052 2.306803123350072 L1.5934569138199421 2.304891095350051 L1.525140669819983 2.331917869350086 L1.4904141068199337 2.3374989233500045 L1.4681932418199821 2.332176251350056 L1.453517133819922 2.321324200350027 L1.4300560348199483 2.286959373350065 L1.4156383098199044 2.2732651193500644 L1.3984300578199154 2.265772036350022 L1.3604995558199207 2.2572971013500123 L1.3290802858199058 2.237866762350045 L1.2905296668199284 2.177508690350031 L1.2631928348199821 2.1569414703500556 L1.2000959108199467 2.14226536335007 L1.1671409358199512 2.1292716873500055 L1.145835656819905 2.120871320350055 L1.1007738078199836 2.0862481103500485 L1.093130735819976 2.074157886350058 L1.0483739048199467 2.003359112350033 L1.0267214808199228 1.9849106273500112 L0.9993846478199302 1.9745236633499914 L0.8951016068198996 1.9662554353500283 L0.8633722778199839 1.9552483543500543 L0.8615367328199781 1.9414366323499834 L0.8602200158199125 1.9315288723500927 L0.923523644819987 1.9000062483500457 L1.087854699819978 1.9209352033500338 L1.1577212358199276 1.915664207349998 L1.1711571088199761 1.9069825663500453 L1.1779783978199347 1.896337221350045 L1.1897606248199608 1.8503451973500304 L1.1934813278199599 1.8427487613500872 L1.21565051681997 1.8278659493500342 L1.2347191198199639 1.8082289043500097 L1.246914757819944 1.7837342753500351 L1.2650531868199195 1.7194487943499936 L1.2657249798199004 1.7135060033499698 L1.2650531868199195 1.7076148913500546 L1.2631928348199821 1.7018271303500043 L1.2375096478198984 1.6758338853500376 L1.2231435988199095 1.6651368633500212 L1.2085708448199384 1.6592457503500313 L1.1866600378198982 1.6602792783499964 L1.1724575038199063 1.6634626053500412 L1.165679406819912 1.6649818343500655 L1.1456289508199333 1.6641550113500543 L1.1031049368199533 1.628278545350092 L1.1023241008199065 1.6276197733500268 L0.8693667438199881 1.5266957013500004 L0.8101455528199821 1.4843727033499974 L0.7777961058199239 1.4317660953500067 L0.7693728478199304 1.4201388983500394 L0.7486505978199816 1.4097002583500213 L0.7394005168199769 1.401793764350053 L0.7348013138199221 1.3910450663500384 L0.7325275518199064 1.3689275543500443 L0.7286001418199461 1.3590573553500676 L0.711185184819918 1.3424692203500612 L0.6909796998198985 1.3303252583500509 L0.671756066819988 1.3159075343500248 L0.6574933718199176 1.2927048163500316 L0.6575384778199336 1.2741211753500394 L0.6575967238199709 1.2501234363500586 L0.682763146820001 1.216482078350019 L0.721882206819906 1.192039125350071 L0.762288402819955 1.1772365053500025 L0.8398078248199781 1.1488376283500301 L0.866162804819929 1.1260483213500478 L0.8849213498198978 1.084862205350042 L0.8831126748200049 1.0627446923500585 L0.8657493938199181 1.055768374350059 L0.8421849398199228 1.054476462350003 L0.8218244268199655 1.0495155253500386 L0.8060114378199827 1.0372682113500318 L0.7632233518199527 0.9955136543499847 L0.736765018819959 0.9790288723499927 L0.7267960748199798 0.977039361350073 L0.7126838008199101 0.9742229633499946 L0.7003848108199904 0.9640943833500373 L0.7091698038199397 0.9317449363500643 L0.7030719848200064 0.9080771303500157 L0.6754767698199302 0.9103508933500493 L0.6659012388199912 0.9139714483500185 L0.619304487819953 0.9315899063500055 L0.5965151818199601 0.9287993793500604 L0.5526935668199471 0.915156801350058 L0.5055646608199353 0.9109710103500035 L0.48913155581990253 0.9005323713500601 L0.47362862581993426 0.8878716453500246 L0.4531647588200016 0.8782598283500178 L0.4205052538199183 0.8525249653500211 L0.4039687948199102 0.84580702935002 L0.4010749148199224 0.8639971333500327 L0.3949770958199892 0.8758827133500731 L0.3756501098199223 0.8743840973499672 L0.35399768481996574 0.8633253393500624 L0.34113025281995846 0.8466338523500312 L0.35177559881994824 0.8144911113500868 L0.45068428981991104 0.8176433733500446 L0.48499744081996 0.7986781233500935 L0.48370552982000703 0.7827617823499722 L0.4707347448199002 0.7685507633500137 L0.4183865198199541 0.737544904350095 L0.40128162082000784 0.7333591123500511 L0.3359626098199655 0.7333074373500423 L0.3188060338199179 0.7277263823500206 L0.31327665581991226 0.7153240383500403 L0.3233535598199282 0.6942400533500219 L0.2863532358199663 0.6349671853500283 Z M0.7976398568199201 1.3234522933500656 L0.8311261838199115 1.3038669253500572 L0.844665409819946 1.2777703273500762 L0.8186204878199064 1.266504865350008 L0.8041510868199779 1.265006248349998 L0.7895266558199054 1.265212954350055 L0.7757290488199473 1.2683135403500998 L0.7632233518199527 1.2751865053499714 L0.7573322388199344 1.28510838035006 L0.7552651808199116 1.2955470203499928 L0.7572288858200054 1.305985658350032 L0.7632233518199527 1.3155974753500388 L0.7976398568199201 1.3234522933500656 Z M1.4198241008199588 3.0617182843500856 L1.4100055778199803 3.0627518133500686 L1.35192126882 3.051305483350056 L1.2857754348199464 3.027947736350022 L1.0750389448199584 2.9933245263500154 L1.0520273838199827 2.986289655350042 L1.000831587819924 2.9706385723500475 L0.9117414188200073 2.9699151023500505 L0.8547939898199033 2.9590372133500793 L0.8270954228200011 2.958287905349998 L0.8195181608199036 2.9569666603500124 L0.8147964318199783 2.9561433333500915 L0.7942292118199461 2.946764061350045 L0.7784822998199488 2.9435030393500696 L0.7665306438199408 2.941027976349993 L0.7437930138199462 2.9322946603500313 L0.7225539998200006 2.921184227350004 L0.7110301558199907 2.910538881350014 L0.7092214808199842 2.8997901833500848 L0.7121670368199702 2.89131524834999 L0.7162494758199713 2.882943666350023 L0.7184715618199888 2.872634218350008 L0.7136656528199055 2.8659421213500806 L0.6897911418199882 2.857544700350097 L0.680334354819955 2.8520928363500317 L0.6752700638199585 2.8436695783500383 L0.6674152468200063 2.822172182350009 L0.6632811318200069 2.8142656883500408 L0.653876020819915 2.80646254735003 L0.6445742638199121 2.8021992423500635 L0.6358926228199593 2.7971091133499826 L0.6292263628199279 2.786980532350036 L0.6378563268200068 2.7722269113500246 L0.6321719198199602 2.761504051350009 L0.6188393998198976 2.754992820350047 L0.6048867638199553 2.7528224103500563 L0.5950682418199662 2.7491275453500563 L0.595274947819938 2.740575096350021 L0.5978587688199113 2.7311699853500713 L0.5950682418199662 2.7248912983500517 L0.585663130819988 2.7240386373500414 L0.5765680788199106 2.7268033273499768 L0.5696434358199767 2.7304981913499873 L0.5670596148199465 2.73235854335001 L0.462879927819948 2.7055901513500302 L0.4366799768199243 2.711894675350031 L0.4302204228199784 2.696753481350008 L0.41978178281996037 2.646937400349991 L0.41285714081995906 2.6361370263500348 L0.4043305298199229 2.626525210350046 L0.3983030398199148 2.6160698823500397 L0.379990929819904 2.5843055643500676 L0.37192940681992326 2.5746937483500503 L0.36267932481992915 2.570662986350065 L0.35260242081997006 2.5612061993500035 L0.3444375448199466 2.5508192363500584 L0.34113025281995846 2.5436878883500285 L0.33565255081995105 2.5385719223500516 L0.2995824008199506 2.5194516423500417 L0.2960684048199127 2.5159376453500713 L0.293897993819904 2.511390118350043 L0.2903323198199459 2.507462710350005 L0.2825291788199351 2.50580906335005 L0.27167712781990616 2.506067446350009 L0.26645780881997183 2.505240623349998 L0.2409813278199735 2.490926251349997 L0.2372606248199176 2.483794903350052 L0.24558052981992518 2.4716509423500597 L0.22465157481993714 2.4573365703500585 L0.21235258381997113 2.437182762349998 L0.1823802528199039 2.3410645983500658 L0.1703913208198955 2.319463849350022 L0.14930733681992336 2.307836652350055 L0.15323474481990473 2.304891095350051 L0.15623197881992468 2.3003435693500123 L0.133184288819983 2.2998268053500723 L0.111790246819929 2.2966228663500985 L0.10790636481996074 2.294879532349988 L0.09360014282000151 2.2884579893500856 L0.09094612081994313 2.285517846350068 L0.07969918281994381 2.2730584123499895 L0.06827869081993043 2.2351795883500003 L0.058511844819996384 2.2226222153500927 L0.08688220581998252 2.2130103993500754 L0.13328764281990146 2.206499168350028 L0.1770059038199392 2.2070159323500533 L0.21111234981994897 2.2007114073500347 L0.23716834381993834 2.1894542063500566 L0.2430483848200069 2.1869138003499913 L0.2799453568199155 2.1649513163500202 L0.31746244681990987 2.1550294423500347 L0.3514655398199906 2.16820693235001 L0.3589523308198963 2.1755992863500566 L0.4252078078199233 2.241019025349992 L0.43549141781991096 2.257710512350023 L0.4398322388199958 2.2762106753500504 L0.43817859281991645 2.2995684223499993 L0.4283600708199842 2.335586895350069 L0.43228747981995497 2.35015964935004 L0.45187284681994555 2.3598748193500043 L0.48871814381995904 2.353105206350044 L0.5171401818199897 2.332693016350099 L0.543908573819941 2.3257166983500994 L0.5501443128199739 2.3325014303500424 L0.5750177858199308 2.3595647603500183 L0.5868516888199551 2.3803386863500506 L0.596928592819971 2.391604149350023 L0.6115013468199422 2.3961516753500334 L0.6588369588199825 2.399562319350075 L0.6763035928199415 2.4066419903500034 L0.7078905698199023 2.4315926163500237 L0.7080329218199708 2.431705060350019 L0.7187816198199002 2.436562644350026 L0.73004708181994 2.4379062323500804 L0.7414158978198984 2.436149233350015 L0.7525780068199523 2.431756737350007 L0.7632233518199527 2.428242739350047 L0.8436318808199061 2.388606915350003 L0.8704002728199711 2.3800286273500646 L0.9930190278199333 2.356997455350033 L0.9986095018199066 2.3559474103500335 L1.0218122188199104 2.355637352350037 L1.0494074338199297 2.3638539043500586 L1.072041711819928 2.3764629543500106 L1.0810334108199058 2.38907200335003 L1.0812401168199344 2.4060218733500207 L1.0779845018199907 2.4314466773500314 L1.0779845018199907 2.4315500303500457 L1.08702787681991 2.4772319963500635 L1.0825837038199424 2.492993309350048 L1.048942345819988 2.5359364243500337 L1.0425861458199606 2.555935203350053 L1.0483239718199897 2.566277458350008 L1.0509577278199558 2.5710247223500673 L1.107698449819928 2.58234186035002 L1.1282656698199602 2.5953643213500683 L1.147282597820002 2.6113840153500334 L1.1711571088199761 2.625750063350033 L1.1857417178199725 2.6312955823500417 L1.242780643819934 2.6529835433500395 L1.2631928348199821 2.668124738350052 L1.2697557418199708 2.6759795553499757 L1.272029504819919 2.6835243143500165 L1.269962446819953 2.6907331773499763 L1.2631928348199821 2.697476951350005 L1.239059940819935 2.7221782853500187 L1.2329621218200018 2.7476289283500464 L1.2420571738199655 2.7739063953500747 L1.2631928348199821 2.800984845350051 L1.2891860798199772 2.829975324350009 L1.3094432418199844 2.861652977350012 L1.3615330848199036 2.9749277163500025 L1.4198241008199588 3.0617182843500856 Z M0.49388578681989515 0.9574281233500344 L0.4707347448199002 0.9545859193500448 L0.46112292881993966 0.9315899063500055 L0.4642235148198992 0.9290060853500037 L0.46773751181998335 0.9275074693500116 L0.47166492081995415 0.9270423813500699 L0.47579903581995353 0.9276108223500259 L0.5044277788199096 0.9463693673500231 L0.49388578681989515 0.9574281233500344 Z M5.902860388819896 1.6254253503500493 L5.8840615608198945 1.6217225513500537 L5.871529008819913 1.624814999350015 L5.8567178108198945 1.6153748943500048 L5.8469521858198945 1.600563697350033 L5.849230831819931 1.5875835533500506 L5.862251664819915 1.5953960533500506 L5.871854529819949 1.5930767173500229 L5.880643591819897 1.5879497643500216 L5.890897498819946 1.5875835533500506 L5.905220414819915 1.5993429933500423 L5.909696326819947 1.615049374350015 L5.902860388819896 1.6254253503500493 Z M5.672391638819896 1.5237407803500176 L5.6574990608198945 1.526344947350033 L5.637642289819915 1.5255311443500048 L5.64260648281995 1.5011984623500396 L5.609973018819936 1.4673442963500136 L5.610379920819945 1.4435405853500427 L5.622586951819947 1.4485454673500229 L5.637642289819915 1.444761288350044 L5.64447822781991 1.450986874350015 L5.646756873819946 1.471860897350048 L5.656522498819946 1.4828472253500493 L5.668973670819945 1.4914328373500396 L5.679227576819947 1.5050233323500564 L5.680204138819896 1.5169048423500229 L5.672391638819896 1.5237407803500176 Z" fill="black" stroke="black" stroke-width="0.5" vector-effect="non-scaling-stroke"/></svg>