<svg xmlns="http://www.w3.org/2000/svg" viewBox="0 0 6.985148926440047 6.136333533359995"><path d="M6.663259446219996 5.536864598680001 L6.62916832322 5.5526839716800005 L6.61910660922004 5.562505449679993 L6.609785839219995 5.563668769679982 L6.607883517220017 5.553132317679985 L6.610657267220034 5.5407759446799965 L6.603522340219996 5.521530865679967 L6.590400773220011 5.5022356586799965 L6.586597223220025 5.481776577679984 L6.596647462220034 5.474424020679994 L6.620013910220024 5.467171483679994 L6.638794352220003 5.4564003676799935 L6.656269349220025 5.436487365679984 L6.6713057462200425 5.426574520679953 L6.680664470220023 5.43202699467999 L6.692804853219997 5.446686742679976 L6.7033742592199985 5.455444327679988 L6.723260039220037 5.4655165976799545 L6.7430830892199936 5.473775041679989 L6.7523932742199975 5.483722018679959 L6.748181793220027 5.503510109679969 L6.7294025942200335 5.515120337679964 L6.692065200220014 5.519144218679987 L6.674601753220003 5.534480107679958 L6.663259446219996 5.536864598680001 Z M6.523682048220024 4.625223609679967 L6.506429443220014 4.6209104586800045 L6.496826579220027 4.6143593516799974 L6.499105225220006 4.604878557679985 L6.517456462219997 4.591694963679988 L6.511719157220028 4.584614885679986 L6.511312256220009 4.579976213679988 L6.517456462219997 4.569966448679981 L6.522135824220044 4.55702699467999 L6.520386149220002 4.546284807679985 L6.520589600220006 4.537210914679992 L6.531128337219997 4.529032203679964 L6.5482588712200425 4.550028297679962 L6.556763102220003 4.55507386967999 L6.572021891220032 4.556986304679999 L6.571940511219992 4.554911109679967 L6.577718506220009 4.55039450768 L6.585775147220005 4.545715145679953 L6.59261108422001 4.543314429679999 L6.599691162220012 4.5438434016799825 L6.614583740220013 4.54844138268 L6.622925212219997 4.54954001567997 L6.64762410521999 4.558084937679968 L6.699097087219997 4.5909218516799974 L6.722900798220024 4.591694963679988 L6.71801798522003 4.586079729679984 L6.709228923220024 4.569966448679981 L6.742554118219999 4.585672828679964 L6.7591963712200425 4.589497698679981 L6.770019938220031 4.58428936467995 L6.785726318220014 4.595560523679996 L6.801147868219999 4.601704729679984 L6.819092204220027 4.60422751567997 L6.842366943220014 4.604797177680002 L6.8490401212200425 4.607564104679984 L6.8568526212200425 4.614318661680006 L6.869995524220002 4.6289670996800005 L6.879517009219995 4.635355445679995 L6.899170329220027 4.635355445679995 L6.907837321220001 4.638895484679967 L6.916667074220044 4.657287411680006 L6.911947022220005 4.67734763268 L6.899007568220014 4.693705054679999 L6.883382568220014 4.700337541679989 L6.865600993219999 4.69492575768 L6.819092204220027 4.652567359679967 L6.798828532220028 4.638651343679971 L6.782837321220001 4.630350562679968 L6.765259196220001 4.6263222426799935 L6.739909261219992 4.625223609679967 L6.728638102220003 4.626444312679968 L6.71370483422001 4.63157126567997 L6.705810954220027 4.632669898679996 L6.694010824220044 4.63047263268 L6.687500407220028 4.625589820679995 L6.682373454220027 4.62070700768 L6.674479574220044 4.618387672679962 L6.652913818220014 4.622619442679952 L6.613281657220028 4.6419472426799935 L6.58911173522003 4.646341773679996 L6.578532308219991 4.644185198679981 L6.571859131220009 4.639505836679991 L6.566894938220031 4.634867164679992 L6.561523845220023 4.632669898679996 L6.523682048220024 4.625223609679967 Z M6.1940953382200235 4.40091001667999 L6.187598646220039 4.402402130679963 L6.145392224219989 4.390370291679989 L6.126716893219992 4.385109864679993 L6.1064130182200245 4.382098434679978 L6.103978277220023 4.37684948267999 L6.121851216219994 4.374611970679968 L6.138910323220017 4.372376010679961 L6.1616455962200405 4.377642521679963 L6.184369597220012 4.387408703679984 L6.1940953382200235 4.40091001667999 Z M6.015760773220023 5.927017148679983 L6.01765810821999 5.908039736679957 L6.005900789220021 5.894589119679967 L5.994970524220008 5.883573985679977 L5.994998450220038 5.873349209680004 L6.029386685220032 5.888870333679979 L6.0497448942200265 5.881675531679964 L6.06697095621999 5.875928062679993 L6.078734526220018 5.867231611680001 L6.109944196220027 5.8583680266799725 L6.117038016219993 5.838829341679986 L6.1391331082200225 5.8203009266799945 L6.148227255220007 5.801705656680003 L6.170206034220001 5.8064863926799895 L6.190063884219995 5.795877906679966 L6.219238688220031 5.79563376567997 L6.229492595220023 5.79530824467999 L6.239624430220005 5.790669573679981 L6.249919027219988 5.783426734679967 L6.264648845220023 5.7637327246800005 L6.272949626220026 5.755269182679985 L6.27661173522003 5.7595823336800045 L6.283040772220005 5.7803749766799974 L6.298950602220003 5.798319312679968 L6.318997395220009 5.82315912467995 L6.344888089220007 5.834504628679969 L6.407679194220037 5.853512177680006 L6.42975081422 5.8406075256799745 L6.451807900220018 5.830498719679969 L6.501870395220038 5.818709336679962 L6.52509688722003 5.790901711679982 L6.545447547219993 5.7518709866799504 L6.5946455892199936 5.678690406679966 L6.609782308219991 5.6592812266799974 L6.629069417219995 5.648172828679964 L6.650635173220024 5.65655498967995 L6.658203532220028 5.67413311467995 L6.657104899220002 5.697123023679996 L6.637288818220014 5.804015927680002 L6.628901728220029 5.831840819679957 L6.565237358220003 5.907172262679996 L6.533010125219988 5.994909738679969 L6.511637777219988 6.006449195679995 L6.437267283219995 6.036109212679964 L6.393921305220005 6.029846005680003 L6.381225993219999 6.03350811467995 L6.371745199220044 6.0379840266799825 L6.35237670922001 6.050923479679984 L6.345540772220005 6.050923479679984 L6.345540772220005 6.043517880680003 L6.352173259219995 6.038065406679966 L6.337396653219997 6.027234539679984 L6.315910035220014 6.024745029679952 L6.2638741092200405 6.052810954679973 L6.2294112142199936 6.050923479679984 L6.170217340220034 6.064115032679997 L6.126021003220018 6.047336395679981 L6.062012126220026 6.042053036680006 L6.047607829220027 6.044006161680006 L6.031410698220014 6.051891080679997 L6.027213594220001 6.05930906267999 L6.021381657220019 6.068241344679979 L6.017721466220024 6.076173400679995 L6.0112194612200085 6.074791186680006 L5.999475697219992 6.067490175679968 L5.986690555220008 6.053410027679963 L5.983861170220024 6.042577373679951 L5.981397748220019 6.025330498679995 L5.980570408220018 6.002787318679982 L5.9628751222200265 5.97424446267998 L5.959623079219995 5.968806587679996 L5.962921669220037 5.961700947679976 L5.992737935219992 5.958778890679998 L6.009496333220028 5.948686269679985 L6.015760773220023 5.927017148679983 Z M5.379069417219995 4.316751929679999 L5.373901774220002 4.3448281016799974 L5.345296631220009 4.3860878676799935 L5.308105876220026 4.425272437679968 L5.277262777219988 4.447123023679996 L5.286133220220023 4.404194963679988 L5.315185954220027 4.375630510679986 L5.35083048522003 4.350239885679986 L5.379069417219995 4.316751929679999 Z M5.667114665219998 4.331034156679966 L5.660726318220014 4.32452373967995 L5.646606852220003 4.303690406679966 L5.679687907220028 4.312601539679992 L5.687581787220012 4.316751929679999 L5.690918376220026 4.305643531679966 L5.698323975220006 4.297098609679967 L5.707275798220024 4.293192359679967 L5.715495199220044 4.296284807679985 L5.721558024220002 4.2920937266799974 L5.724284261219992 4.290669573679981 L5.728516032220028 4.290099911680006 L5.728516032220028 4.282612932679985 L5.720337321220001 4.280497047679962 L5.716960042219995 4.278381161680006 L5.7142744962200425 4.274800432679985 L5.708089600220006 4.268371395679953 L5.759684652219988 4.2689003676799935 L5.78434285521999 4.26523825768 L5.811116943220014 4.255269182679985 L5.812174886219992 4.2591347426799935 L5.812622477220003 4.262349260679986 L5.814046631220009 4.2654417086800045 L5.817952881220009 4.268371395679953 L5.7943526212200425 4.307108375679963 L5.783122152219988 4.316751929679999 L5.7826338712200425 4.3067014746800005 L5.779134522220005 4.298726213679988 L5.772583415219998 4.293110979679984 L5.763306071220001 4.290099911680006 L5.76676473021999 4.303690406679966 L5.775024821220001 4.316751929679999 L5.785889079220027 4.323099586679991 L5.797445068220014 4.316751929679999 L5.804199626220026 4.3314003676799935 L5.813354899220002 4.406107398679996 L5.818848063220031 4.421447567679952 L5.831624756220009 4.447123023679996 L5.814453532220028 4.4509885836800045 L5.807251384219995 4.467915666679989 L5.803711345220023 4.48984763268 L5.797445068220014 4.50852439067997 L5.787679443220014 4.520080380680003 L5.773275147220005 4.533548804679999 L5.758057048220024 4.544819963679988 L5.745931397220005 4.54954001567997 L5.734456787220012 4.558451148679996 L5.701253662220012 4.618387672679962 L5.649048259219995 4.65850811467995 L5.63981160521999 4.66282126567997 L5.629232178220008 4.663553687679968 L5.568441162220012 4.686665666679989 L5.543457438220031 4.69171123967995 L5.52815795922001 4.70469138268 L5.50317423522003 4.741922828679964 L5.495117595220023 4.750142229679984 L5.468669027219988 4.771707984679967 L5.458577881220009 4.77610251567997 L5.435913493219999 4.7793577246800005 L5.418091227220003 4.7881874766799974 L5.385864665219998 4.817036760679986 L5.384603272220005 4.808003557679985 L5.385864665219998 4.772684547679962 L5.390381266220032 4.762837541679989 L5.400879313220031 4.76007061467995 L5.440308024220002 4.7630409926799935 L5.448730876220026 4.75937888268 L5.478922933219991 4.734476539679992 L5.47973673522003 4.728088192679952 L5.469116618219999 4.720804664679992 L5.469116618219999 4.7146604586800045 L5.488688558219991 4.703023088679988 L5.495768636219992 4.700337541679989 L5.489909261219992 4.698709937679968 L5.485351970220023 4.69687888268 L5.482340902219988 4.693257463679988 L5.481527100220006 4.686665666679989 L5.501628011219992 4.679341448679981 L5.531006266220032 4.662658505680003 L5.5541182462200425 4.659403297679962 L5.5594893392199936 4.656148088679988 L5.570434977220003 4.642069312679968 L5.583659261219992 4.633402320679995 L5.582601318220014 4.620829078679964 L5.578776449220044 4.60703513268 L5.578979899220002 4.59796123967995 L5.597412516220032 4.591043922679962 L5.624756266220032 4.588358375679963 L5.649495850220006 4.58274314067997 L5.660278727220003 4.566874000679963 L5.664429118219999 4.542704078679964 L5.675903727220003 4.5310667086800045 L5.693481852220003 4.526346656679966 L5.715495199220044 4.5228066176799935 L5.75512736022003 4.5091347426799935 L5.7826338712200425 4.485656552680002 L5.791992595220023 4.453267229679984 L5.776937256220009 4.4129840266799825 L5.749390055220005 4.394103817679952 L5.678304443220014 4.39296449467999 L5.646606852220003 4.378234677680002 L5.631592204220027 4.364888323679981 L5.633301188220031 4.3611448336800045 L5.645386149220002 4.343078427680002 L5.651977946220001 4.337300432679985 L5.659261475220006 4.333475562679968 L5.667114665219998 4.331034156679966 Z M5.375976970220023 4.255269182679985 L5.310872803220008 4.165913713679988 L5.314616292219995 4.162699195679995 L5.316243897220005 4.159403297679962 L5.316976318220014 4.155985328679964 L5.318278402219988 4.152323218679971 L5.32926473021999 4.1517128676799935 L5.345947673220024 4.146341773679996 L5.352417399220002 4.1454059016799825 L5.364380290219998 4.148579729679984 L5.392741292219995 4.165913713679988 L5.402751058219991 4.16835511967999 L5.424479574220044 4.170145484679967 L5.434326579220027 4.1727496516799825 L5.462280680220005 4.193908505680003 L5.465332438220031 4.202453427680002 L5.466471761219992 4.2200722426799935 L5.469116618219999 4.227396461679991 L5.472656657220028 4.2283323336800045 L5.484863688220031 4.22686748967995 L5.488932699220044 4.227396461679991 L5.49104858422001 4.230326148679996 L5.495768636219992 4.241678687679968 L5.515299886219992 4.247904273679996 L5.551188558219991 4.250223609679967 L5.572143962219997 4.255269182679985 L5.564697673220024 4.241678687679968 L5.586914470220023 4.246683570679995 L5.646606852220003 4.268371395679953 L5.572143962219997 4.331034156679966 L5.568725993219999 4.322896135679986 L5.568237712219997 4.32069886967999 L5.55786173522003 4.316751929679999 L5.558756917219995 4.300272437679968 L5.540405680220005 4.303364885679986 L5.514404704220027 4.310770484679967 L5.440552165219998 4.292948218679971 L5.430257568220014 4.285054338679988 L5.413900147220005 4.268371395679953 L5.408366292219995 4.280090145679953 L5.396403402219988 4.290018531679966 L5.384521891220032 4.295389625679963 L5.379069417219995 4.293192359679967 L5.384847412220012 4.2715452246800005 L5.384684652219988 4.26015199467999 L5.375976970220023 4.255269182679985 Z M5.996663818220014 3.899027320679995 L5.907593180220005 3.9155881926799516 L5.865478923220024 3.9147743906799697 L5.845866292219995 3.884745093679971 L5.920980225220006 3.8915810316799657 L5.977132568220014 3.8860878676799935 L5.996663818220014 3.8915810316799657 L5.996663818220014 3.899027320679995 Z M4.009277751220026 3.5291135836800045 L4.042847087219997 3.531473609679967 L4.085856527219988 3.5427040786799644 L4.123047282220028 3.5608925546799988 L4.138997803220008 3.5837197036799644 L4.103027751220026 3.5729775156799697 L4.060954183219991 3.5651650156799697 L4.025513102220003 3.5530800546799988 L4.009277751220026 3.5291135836800045 Z M3.8646244302200046 3.4499306406799697 L3.8802901212200425 3.481017880680003 L3.9178877772199883 3.505838843679971 L4.001790772220005 3.535949520679953 L3.9874678552199896 3.5500282976799618 L3.9646000162200323 3.5442909926799935 L3.9198409022199883 3.521626604679984 L3.8690596522199883 3.518045875679963 L3.850098063220031 3.5090126726799618 L3.858398845220023 3.488138648679996 L3.8398441572200284 3.47617575768 L3.8209232592199953 3.4600624766799974 L3.803589274220002 3.451029273679996 L3.789469808219991 3.4601845476799618 L3.754761149220002 3.4261676196799904 L3.7173669432200143 3.400532854679984 L3.675130615220013 3.387756161680006 L3.625651449220044 3.3919472426799935 L3.625651449220044 3.3851113046799988 L3.655151774220002 3.376810523679996 L3.6597904462200006 3.3745725676799516 L3.6578780112199922 3.3656207446799904 L3.651245524220002 3.3565468516799974 L3.6522627772199883 3.350972307679985 L3.6416833502200063 3.3444618906799697 L3.6333825682200143 3.3329059016799825 L3.631348063220031 3.3200478286799644 L3.6392826342199953 3.309387020679953 L3.6516117352200297 3.3116249766799974 L3.6602380372200116 3.3084104586800045 L3.666748454220027 3.304015927680002 L3.672851970220023 3.302591773679996 L3.6805830892199936 3.3058876726799618 L3.6857914232200244 3.311136695679995 L3.6945804852200297 3.323628557679985 L3.7056481932200143 3.3337197036799644 L3.7178552252200063 3.3397418386799878 L3.733520915219998 3.3427529066799657 L3.754761149220002 3.3435667086800045 L3.7513838712200425 3.347798479679984 L3.749593506220009 3.3510536876799684 L3.746948649220002 3.3539019946799904 L3.741089274220002 3.3571572036799644 L3.8065189622199966 3.421284807679985 L3.8538822432199993 3.446594052680002 L3.8646244302200046 3.4499306406799697 Z M4.803711345220023 4.008280250679963 L4.815796305220005 4.0184527766799825 L4.824381917219995 4.044168922679962 L4.829427490220013 4.074442359679967 L4.830810954220027 4.113626929679999 L4.828857829220027 4.124247047679962 L4.822876384219995 4.128641578679964 L4.810547282220028 4.124979468679971 L4.804769287220012 4.118021461679991 L4.797485759219995 4.0840452246800005 L4.79378295922001 4.086405250679963 L4.783854574220044 4.090799781679966 L4.777344157220028 4.06475811467995 L4.748779704220027 4.017720354679984 L4.738403727220003 3.9768674896799503 L4.728922933219991 3.962870093679971 L4.695190837219997 3.9247027766799825 L4.68481486022003 3.91562888268 L4.672282308219991 3.910013648679996 L4.557943115220013 3.8890175546799988 L4.533081462219997 3.8745725676799516 L4.520264079220027 3.864888323679981 L4.448852946220001 3.823099586679991 L4.433187256220009 3.8171181406799697 L4.436116943220014 3.8073525156799697 L4.440796305220005 3.798482073679981 L4.447021891220032 3.790344052680002 L4.454915772220005 3.7823281016799974 L4.461100667219995 3.7823281016799974 L4.471110433219991 3.7967730886799878 L4.49926798522003 3.8095497816799657 L4.509521891220032 3.8233437266799974 L4.483765055220005 3.819966448679981 L4.47542358422001 3.8171181406799697 L4.482259522220005 3.828714820679995 L4.492554118219999 3.8386025156799697 L4.504517009219995 3.8443805106799864 L4.516357829220027 3.8438108496800005 L4.52856486022003 3.8512978286799644 L4.547607829220027 3.8661904066799657 L4.556722412220012 3.871073218679971 L4.567993571220001 3.873596005680003 L4.584147542219995 3.8748980886799878 L4.594360759219995 3.871927711679991 L4.587728272220005 3.861185523679996 L4.530640055220005 3.802591773679996 L4.523193766220032 3.785746070679995 L4.526977946220001 3.7587685316799657 L4.535400798220024 3.739318661680006 L4.544515381220009 3.723449520679953 L4.549886475220006 3.707254859679967 L4.549072673220024 3.6834918386799878 L4.542480876220026 3.6566363696799904 L4.531169027219988 3.632791968679971 L4.516357829220027 3.6178180106799864 L4.512777100220006 3.6224159926799935 L4.502075602220003 3.6315712656799697 L4.503784587219997 3.607971005680003 L4.465942790219998 3.5784299896799503 L4.46793660521999 3.5564573336800045 L4.454468180220005 3.553324195679995 L4.442261149220002 3.548807593679971 L4.435954183219991 3.5413206146799503 L4.44059285521999 3.5291135836800045 L4.420329183219991 3.514261695679995 L4.412760824220044 3.4983925546799988 L4.406494548220024 3.4534299896799503 L4.38598673522003 3.4056191176799935 L4.376343180220005 3.400939755680003 L4.369792074220044 3.403137020679953 L4.362671305220005 3.4081012136799878 L4.351237386219992 3.411763323679981 L4.358073324220044 3.3636269296799988 L4.35237670922001 3.3491819426799516 L4.331421305220005 3.3646034926799935 L4.340820720220023 3.3513792086800045 L4.34497111022003 3.3470253676799935 L4.351237386219992 3.3435667086800045 L4.33870483422001 3.3399045996800005 L4.330485433219991 3.347066057679985 L4.322510173220024 3.3577675546799988 L4.310221761219992 3.3646034926799935 L4.310221761219992 3.3571572036799644 L4.320434977220003 3.3471474376799684 L4.328247477220003 3.3354286876799684 L4.332397868219999 3.320902320679995 L4.331421305220005 3.302591773679996 L4.337484131220009 3.3040566176799935 L4.342529704220027 3.3069456146799503 L4.347005615220013 3.311096005680003 L4.351237386219992 3.3162229586800045 L4.409912516220032 3.4056191176799935 L4.423503011219992 3.413472307679985 L4.441528727220003 3.4325152766799825 L4.45825236022003 3.455220354679984 L4.46793660521999 3.474466773679996 L4.480102946220001 3.542134416679989 L4.492106527219988 3.5594684016799825 L4.509603272220005 3.5773720476799618 L4.568766683219991 3.683247698679981 L4.567261149220002 3.693582984679967 L4.5751143392199936 3.702778948679981 L4.577718506220009 3.7245074636799878 L4.577799886219992 3.768696916679989 L4.585937907220028 3.816874000679963 L4.602864990220013 3.8469032976799618 L4.631225993219999 3.865213843679971 L4.716471761219992 3.8948362396799503 L4.75317423522003 3.9212441176799935 L4.817993571220001 3.988423479679984 L4.81372111022003 3.993550432679985 L4.808227946220001 4.003316057679985 L4.803711345220023 4.008280250679963 Z M4.762777100220006 3.282083961679991 L4.813110759219995 3.2684527766799825 L4.850464274220002 3.2689003676799935 L4.863200277219988 3.274027320679995 L4.885620524220002 3.288919898679996 L4.875570068220014 3.3045042086800045 L4.869141032220028 3.317240211679991 L4.859049886219992 3.3245237396799503 L4.837891032220028 3.323628557679985 L4.837891032220028 3.3298948336800045 L4.844116618219999 3.33750388268 L4.826090902219988 3.337748023679996 L4.802083740220013 3.330667945679995 L4.790039470220023 3.3162229586800045 L4.771973063220031 3.32383200768 L4.738932699220044 3.3241168386799878 L4.721191813220031 3.3298948336800045 L4.717448324220044 3.3069863046799988 L4.724202881220009 3.294250302680002 L4.739746501220026 3.287332984679967 L4.762777100220006 3.282083961679991 Z M3.3376468912200323 3.0145465266799825 L3.3226322432199993 3.0003863696799904 L3.3041996262200257 2.9649045996800005 L3.287842204220027 2.941996070679995 L3.275553792219995 2.9121702246800005 L3.265218506220009 2.8960569426799516 L3.2613529462200006 2.8856402766799825 L3.2613529462200006 2.871195289679992 L3.2860518392199936 2.887186500679963 L3.3438724772200032 3.008361630680003 L3.3376468912200323 3.0145465266799825 Z M5.19417358422001 2.966776343679971 L5.185913493219999 2.9785764746800005 L5.171549886219992 3.019388648679996 L5.170532634219995 3.028177711679991 L5.10473673522003 3.035013648679996 L5.10473673522003 3.028177711679991 L5.121745199220044 3.0085243906799697 L5.133179118219999 2.9775185316799657 L5.137370199220044 2.9428505626799684 L5.132690837219997 2.9121702246800005 L5.133138428220008 2.8881630626799684 L5.144124756220009 2.873636695679995 L5.1615401212200425 2.8647255626799684 L5.1810713712200425 2.857523414679992 L5.186605225220006 2.853373023679996 L5.192057699220044 2.847879859679967 L5.197998454220027 2.8446246516799825 L5.204671631220009 2.84726950768 L5.2196455892199936 2.871887020679953 L5.222046305220005 2.874328427680002 L5.2240401212200425 2.884745093679971 L5.233154704220027 2.8987831796799988 L5.235718180220005 2.905334286680006 L5.235107829220027 2.9144081796799988 L5.229614665219998 2.934142880680003 L5.228271891220032 2.9431760836800045 L5.187337647220005 3.008361630680003 L5.184326579220027 2.996887020679953 L5.186116943220014 2.9869586356799864 L5.19417358422001 2.966776343679971 Z M1.7821455892199936 2.8023069426799516 L1.7691654462200006 2.8109332446799904 L1.7182621262200257 2.8343300546799988 L1.7002771002200063 2.836405250679963 L1.693766683219991 2.8289996516799825 L1.6886397302199896 2.815734677680002 L1.6866052252200063 2.8017372816799657 L1.6894535322200284 2.792378557679985 L1.6986088052200046 2.7914019946799904 L1.7111006672199949 2.794575823679981 L1.722249756220009 2.7949827246800005 L1.726969808219991 2.7855019296799988 L1.7368981932200143 2.7821246516799825 L1.7918298342200103 2.74766013268 L1.7965498862199922 2.7458290786799644 L1.8128259282200077 2.737121395679953 L1.8231612142199936 2.73398825768 L1.864136149220002 2.73398825768 L1.8604333502200063 2.744120093679971 L1.8544112142199936 2.7491249766799974 L1.8368330892199936 2.753885718679971 L1.828613688220031 2.754007789679992 L1.8243005372200116 2.7506305106799864 L1.8192549642199936 2.748880836679991 L1.8089196782200077 2.753885718679971 L1.8020023602200297 2.763325823679981 L1.7923588052200046 2.790669573679981 L1.7821455892199936 2.8023069426799516 Z M1.741211345220023 2.726541968679971 L1.7264408372199966 2.727030250679963 L1.7202152512200257 2.7354531016799974 L1.7209476732200244 2.7481077246800005 L1.726969808219991 2.76133200768 L1.7125655112199922 2.758036109679967 L1.6872562662200323 2.7614540786799644 L1.672363688220031 2.76133200768 L1.6614994302200046 2.757140927680002 L1.6499027512200257 2.7489215266799825 L1.6459151212200425 2.7401324636799878 L1.6580814622199966 2.73398825768 L1.684082438220031 2.729349586679991 L1.709961345220023 2.7181191176799935 L1.7306319172199949 2.712870093679971 L1.741211345220023 2.726541968679971 Z M3.1998295092199953 2.7749631926799516 L3.1810306802200046 2.774800432679985 L3.1696781412200323 2.769754859679967 L3.1275638842199953 2.7201943126799684 L3.1182458502200063 2.705545875679963 L3.117920329220027 2.693013323679981 L3.133301188220031 2.701151343679971 L3.142415772220005 2.7136025156799697 L3.149414470220023 2.727681291679989 L3.158935954220027 2.740824195679995 L3.170776774220002 2.7493691176799935 L3.1815189622199966 2.7542519296799988 L3.1911625162200323 2.7609657976799618 L3.1998295092199953 2.7749631926799516 Z M2.1378584802199896 3.055521461679991 L2.146322022220005 3.069722307679985 L2.140218506220009 3.107564104679984 L2.1453454592200103 3.124409807679985 L2.128255615220013 3.160013648679996 L2.1149092612199922 3.1663206146799503 L2.0900882982200244 3.1591591566799657 L2.0933841962200006 3.171732398679996 L2.111491292219995 3.1854449636799878 L2.117350667219995 3.2001747816799657 L2.115885824220044 3.2136025156799697 L2.110229899220002 3.2283323336800045 L2.1030277512200257 3.2408648856799864 L2.0969242352200297 3.247904273679996 L2.0655114752200063 3.257954729679984 L2.0416263842199953 3.248514625679963 L2.0198571782200077 3.233703427680002 L1.9945072432199993 3.2274371516799825 L2.0117191572200284 3.246642880680003 L2.0113936362199922 3.2554319426799516 L2.0019535322200284 3.268412086679991 L1.9945072432199993 3.268412086679991 L1.9779056802200046 3.247131161680006 L1.948242595220023 3.23984763268 L1.8846439622199966 3.2417600676799516 L1.9187829592200103 3.2274371516799825 L1.9137373862199922 3.2103066176799935 L1.935140381220009 3.2108355886799878 L1.9876713052200046 3.2274371516799825 L1.9937748212200006 3.2093300546799988 L2.0039066572200284 3.1965126726799618 L2.0178226732200244 3.18711325768 L2.0715336102200297 3.16367575768 L2.086670329220027 3.1527301196799904 L2.086670329220027 3.141458961679991 L2.068766683219991 3.1351113046799988 L2.051188558219991 3.1444293386799878 L2.0342614752200063 3.158304664679992 L2.018066813220031 3.1653847426799935 L1.959717204220027 3.2001747816799657 L1.963623454220027 3.2029417086800045 L1.9665531412200323 3.206359677680002 L1.9426273602200297 3.2037555106799864 L1.9185388182200143 3.1721799896799503 L1.898275147220005 3.1653847426799935 L1.963989665219998 3.1434527766799825 L1.9972334802199896 3.125101539679992 L2.0019535322200284 3.1039019946799904 L1.987630615220013 3.1180621516799825 L1.9680179852200297 3.123880836679991 L1.915039470220023 3.124409807679985 L1.9007572432199993 3.1270139746800005 L1.8885909022199883 3.1318154066799657 L1.8769535322200284 3.134867164679992 L1.864136149220002 3.131896786680006 L1.8560388182200143 3.123880836679991 L1.8499759932199993 3.111917945679995 L1.8353682462200425 3.0446572036799644 L1.8340661622200116 3.019388648679996 L1.840251058219991 3.008361630680003 L1.8256026212200425 3.003763648679996 L1.825073649220002 2.992655250679963 L1.8293461102200297 2.978983375679963 L1.8293461102200297 2.966776343679971 L1.8179935712200006 2.955179664679992 L1.8041996262200257 2.9476113046799988 L1.7963057462200425 2.94101950768 L1.8027347822200284 2.9325966566799657 L1.8027347822200284 2.9258420996800005 L1.7832035322200284 2.914611630680003 L1.7207849122200116 2.8917031016799974 L1.7267256672199949 2.884094052680002 L1.7337650552200046 2.8773394946799904 L1.7481286622200116 2.886047177680002 L1.753743897220005 2.883280250679963 L1.7545576992200438 2.8759560316799657 L1.7542728682199993 2.871195289679992 L1.754883220220023 2.861795875679963 L1.7520349122200116 2.8572385836800045 L1.7518314622199966 2.8527626726799618 L1.760498454220027 2.843851539679992 L1.7706709802199896 2.838928036680006 L1.797729899220002 2.830627255680003 L1.8089196782200077 2.822733375679963 L1.812907308219991 2.8142698336800045 L1.8194177252200063 2.7896930106799864 L1.8231612142199936 2.781839820679995 L1.8574222822200284 2.7796425546799988 L1.8703617352200297 2.7749631926799516 L1.880452881220009 2.766987932679985 L1.8839522302199896 2.7607216566799657 L1.8861088052200046 2.752990536680006 L1.8920902512200257 2.740824195679995 L1.907104899220002 2.729308895679953 L1.9484053552199896 2.713480445679995 L1.959717204220027 2.6998492606799864 L1.9876713052200046 2.6856077246800005 L1.9969893392199936 2.699076148679996 L2.004313558219991 2.715067359679967 L2.0126143392199936 2.7284137136799878 L2.0249027512200257 2.73398825768 L2.0316166182199993 2.7394814226799618 L2.0220951342199953 2.751281552680002 L1.9603682462200425 2.7983193126799684 L1.9358728032200077 2.810770484679967 L1.9051110842200103 2.8159788176799516 L1.9051110842200103 2.822733375679963 L1.922851970220023 2.824076148679996 L1.9302982592199953 2.8315224376799684 L1.9259037272200032 2.839945289679992 L1.9082035322200284 2.843851539679992 L1.9042972822200284 2.847798479679984 L1.9147139492200438 2.8567909926799935 L1.939290772220005 2.871195289679992 L1.9551599122200116 2.86484763268 L1.9605716962200006 2.875833961679991 L1.958008220220023 2.8939003676799935 L1.9415694172199949 2.922342750679963 L1.938232829220027 2.9352822036799644 L1.9329838052200046 2.9459430106799864 L1.9187829592200103 2.953104468679971 L1.9373783372199966 2.9579059016799825 L1.9532474772200032 2.9448850676799516 L1.9842940272199883 2.886820289679992 L2.0051273602200297 2.865091773679996 L2.014974365220013 2.8506874766799974 L2.0189619962200425 2.8310341566799657 L2.0201013182200143 2.8057656016799974 L2.0236820482200244 2.782083961679991 L2.0354821782200077 2.7674762136799878 L2.0552982592199953 2.770324520679953 L2.0702315272199883 2.790344052680002 L2.0823571782200077 2.8154091566799657 L2.0935062662200323 2.833312802680002 L2.106201579220027 2.847513648679996 L2.1133630372200116 2.8626503676799935 L2.1166182462200425 2.880269182679985 L2.1185306802200046 2.9133095476799618 L2.1236576342199953 2.934427711679991 L2.124837647220005 2.9431760836800045 L2.1236576342199953 2.9546506926799516 L2.1185306802200046 2.9738564226799618 L2.117350667219995 2.9841917086800045 L2.1206058762200257 2.9897255626799684 L2.1346439622199966 3.0086871516799825 L2.1378584802199896 3.0182086356799864 L2.1346439622199966 3.0300087656799697 L2.127604574220044 3.0379840266799825 L2.1206058762200257 3.042948218679971 L2.117350667219995 3.0458779066799657 L2.1070560712200006 3.0502724376799684 L2.085286865220013 3.050760718679971 L2.065755615220013 3.05820700768 L2.0621341962200006 3.0834755626799684 L2.0970869962200425 3.0606077246800005 L2.1177982592199953 3.0519814226799618 L2.1378584802199896 3.055521461679991 Z M1.8951420092199953 2.661966773679996 L1.875976970220023 2.673970354679984 L1.8630375162200323 2.671284807679985 L1.858398845220023 2.6613564226799618 L1.864136149220002 2.6514687266799974 L1.8861494962200425 2.641418270679953 L1.904785563220031 2.6292112396799503 L1.9235843912200323 2.6214394296799988 L1.9436039232200244 2.616841448679981 L1.959717204220027 2.617980770679953 L1.9666752122199966 2.6214801196799904 L1.9747318522200032 2.627787086679991 L1.9803877772199883 2.635803036680006 L1.9802250162200323 2.644632789679992 L1.972493897220005 2.6501259536799644 L1.962239990220013 2.647074195679995 L1.951579183219991 2.641092750679963 L1.9429935712200006 2.6377968516799974 L1.9252933762200257 2.638895484679967 L1.914795329220027 2.6426389746800005 L1.8951420092199953 2.661966773679996 Z M4.348144938220031 2.7712197036799644 L4.355835368219999 2.7860309016799825 L4.372396240220013 2.843851539679992 L4.327026774220002 2.830057593679971 L4.306396891220032 2.8284299896799503 L4.282959391220032 2.830179664679992 L4.2377119962200425 2.8386025156799697 L4.22192423522003 2.846537086679991 L4.204427490220013 2.860656552680002 L4.179687907220028 2.8628538176799516 L4.152913818220014 2.846496395679953 L4.1415205892199936 2.8259885836800045 L4.163208415219998 2.8159788176799516 L4.177897542219995 2.812357398679996 L4.199219157220028 2.802957984679967 L4.218913167219995 2.789855770679953 L4.228922933219991 2.7749631926799516 L4.248169352220003 2.7754514746800005 L4.25708048522003 2.748270484679967 L4.25276733422001 2.715677711679991 L4.232096761219992 2.6998492606799864 L4.202881266220032 2.6939898856799864 L4.182251384219995 2.6791786876799684 L4.128825277219988 2.5993447036799644 L4.120931397220005 2.571105770679953 L4.101725667219995 2.545145484679967 L4.097331136219992 2.5316363696799904 L4.091309001220026 2.4998167086800045 L4.074341227220003 2.4759316176799935 L4.048462321220001 2.461974911680006 L4.015462647220005 2.4596148856799864 L4.019368897220005 2.4491168386799878 L4.020182699220044 2.4370725676799516 L4.018677165219998 2.424417945679995 L4.015462647220005 2.4124550546799988 L4.010091553220008 2.4002073336800045 L4.005005290219998 2.395650041679989 L3.9981286622200116 2.392557593679971 L3.953979899220002 2.3572385836800045 L3.9217533372199966 2.3424273856799864 L3.9130049642199936 2.336771461679991 L3.9062504072200284 2.328267229679984 L3.905273845220023 2.3206581796799988 L3.9098311362199922 2.3125608496800005 L3.930664470220023 2.2899371516799825 L3.9389652512200257 2.28672263268 L3.953979899220002 2.288390927680002 L3.9606123862199922 2.292826148679996 L3.9874678552199896 2.316263648679996 L4.013509522220005 2.325500302680002 L4.025513102220003 2.3316038176799516 L4.036499430220005 2.3435667086800045 L4.044271240220013 2.4073281016799974 L4.0502119962200425 2.4261269296799988 L4.0599776212200425 2.436665666679989 L4.076009522220005 2.450052711679991 L4.090820720220023 2.465881161680006 L4.102864990220013 2.497131161680006 L4.130615641220032 2.5436806406799697 L4.18676798522003 2.617980770679953 L4.204712321220001 2.6312457446799904 L4.243815511219992 2.6507363046799988 L4.262451579220027 2.665099911680006 L4.287231852220003 2.7126259536799644 L4.293213298220024 2.72031638268 L4.304321696220001 2.727152320679995 L4.348144938220031 2.7712197036799644 Z M2.1828617352200297 1.997212541679989 L2.1677250162200323 1.9892372816799657 L2.1483565272199883 1.9874062266799974 L2.129883220220023 1.9878538176799516 L2.117350667219995 1.9866738046799988 L2.1009525552200046 1.9697060316799657 L2.111816813220031 1.9505409926799935 L2.1356612142199936 1.9341835706799948 L2.1583256022200032 1.9252724376799684 L2.172974040219998 1.9229531016799974 L2.2067875162200323 1.9116005626799684 L2.222005615220013 1.9100543386799878 L2.264770915219998 1.9116005626799684 L2.3072106932200143 1.904520484679967 L2.3228356932200143 1.904764625679963 L2.3367517092200103 1.9092405366800058 L2.3607588712200425 1.9224648206799948 L2.3990075682200143 1.930480770679953 L2.3881026212200425 1.9424843516799974 L2.2833256022200032 1.9870400156799697 L2.2591556802200046 1.9864296646799922 L2.227213949220044 1.9736936616800058 L2.221435954220027 1.98203513268 L2.209961345220023 1.9939573336800045 L2.196045329220027 2.00156638268 L2.1828617352200297 1.997212541679989 Z M1.3092451992200438 2.3293251726799618 L1.3199873862199922 2.3232216566799657 L1.3277591962200006 2.315734677680002 L1.3295088712200425 2.3064573336800045 L1.3222660322200284 2.295145484679967 L1.3353682462200425 2.277933570679995 L1.351400147220005 2.278462541679989 L1.3649092612199922 2.2917275156799697 L1.370687256220009 2.3125608496800005 L1.3695072432199993 2.329732073679981 L1.3658044432200143 2.344787411680006 L1.3593754072200284 2.358255836679991 L1.3502201342199953 2.3709104586800045 L1.3326826992200438 2.382140927680002 L1.3297123212200006 2.3845823336800045 L1.3317061362199922 2.3944293386799878 L1.3365075682200143 2.403177711679991 L1.3438317872200116 2.406839820679995 L1.3707686362199922 2.391214820679995 L1.3855798342200103 2.387308570679995 L1.3937178552199896 2.379374000679963 L1.3911950682200143 2.3572385836800045 L1.410644938220031 2.365783505680003 L1.4108076992200438 2.3837685316799657 L1.405599365220013 2.404764625679963 L1.4085697432199993 2.422424130680003 L1.425130615220013 2.4317014746800005 L1.434570720220023 2.419087541679989 L1.4368900552200046 2.397033505680003 L1.432129313220031 2.377746395679953 L1.4417321782200077 2.381652645679953 L1.452148845220023 2.387308570679995 L1.4611006672199949 2.389790666679989 L1.4663090012200257 2.3845823336800045 L1.465698649220002 2.3702187266799974 L1.458333740220013 2.3602496516799825 L1.448242595220023 2.3522743906799697 L1.4395756022200032 2.3435667086800045 L1.4383142092200103 2.3376259536799644 L1.4405928552199896 2.322489234679967 L1.4395756022200032 2.316263648679996 L1.4334720872199966 2.308817359679967 L1.4178470872199966 2.295715145679953 L1.411702881220009 2.288390927680002 L1.4077152512200257 2.2743935316799657 L1.4049483242200438 2.258646461679991 L1.3988041182199993 2.2492470476799618 L1.384359131220009 2.2542112396799503 L1.394938558219991 2.262512020679953 L1.3986820482200244 2.2780556406799697 L1.398031006220009 2.316263648679996 L1.3885909022199883 2.3056435316799657 L1.3822025552200046 2.2893674896799503 L1.3743900552200046 2.2743935316799657 L1.360474040219998 2.2678831146799503 L1.3587650552200046 2.260355445679995 L1.3616947432199993 2.243224911680006 L1.370687256220009 2.2132363046799988 L1.3859867352200297 2.1985878676799935 L1.4078780112199922 2.182108375679963 L1.4232181802200046 2.162210914679992 L1.4191084802199896 2.137552711679991 L1.428589274220002 2.131449195679995 L1.4547123212200006 2.1267698336800045 L1.460083415219998 2.120747698679981 L1.4631351732200244 2.1081337656799697 L1.4768070482200244 2.0838010836800045 L1.4798994962200425 2.0698850676799516 L1.4888920092199953 2.068949195679995 L1.485351970220023 2.061136695679995 L1.477295329220027 2.0506793386799878 L1.473144938220031 2.0418902766799825 L1.4752201342199953 2.033996395679953 L1.4805912272200032 2.020080380680003 L1.4882816572200284 2.006896786680006 L1.4973148602200297 2.0009560316799657 L1.5051273602200297 1.9883827896799922 L1.502930095220023 1.9602659276800019 L1.4935713712200425 1.9153440526800019 L1.4827884932199993 1.8836464616799908 L1.461914470220023 1.8421425546799988 L1.4484867352200297 1.8039345476799618 L1.460083415219998 1.7818398206799948 L1.4769291182199993 1.7826943126799684 L1.513265381220009 1.789041968679971 L1.5284021002200063 1.794901343679971 L1.5406498212200006 1.8053993906799697 L1.5474857592199953 1.8165484796799838 L1.555786540219998 1.8255003026800019 L1.5723881022200032 1.8290810316799657 L1.5876468912200323 1.8232216566799657 L1.6023767092200103 1.8122353286799644 L1.617676188220031 1.805480770679953 L1.6348474122200116 1.8123167086800045 L1.647583415219998 1.820780250679963 L1.6616215012200257 1.8276161876799684 L1.6751713052200046 1.8363238696799904 L1.685954183219991 1.8501585056800032 L1.6710616052199896 1.8657835056800032 L1.6685388182200143 1.8834023206799948 L1.6764326992200438 1.899800432679985 L1.6928715012200257 1.9116005626799684 L1.6802982592199953 1.9510699636799878 L1.676269938220031 1.9756874766799974 L1.6822513842199953 1.9866738046799988 L1.7005619302200046 1.9892372816799657 L1.715576579220027 1.9974159926799935 L1.7286381022200032 2.0123492606799864 L1.789469808219991 2.15000388268 L1.8336592612199922 2.210347307679985 L1.8502608242200438 2.226664039679992 L1.8672692872200116 2.2337441176799935 L1.879313558219991 2.240335914679992 L1.9163415532200077 2.2740680106799864 L1.925618897220005 2.288390927680002 L1.9266768392199936 2.3063759536799644 L1.9250492352200297 2.330871395679953 L1.921020915219998 2.3538613046799988 L1.915039470220023 2.3674924896799503 L1.9092614752200063 2.3865354586800045 L1.9173588052200046 2.410990211679991 L1.939290772220005 2.4534706796799988 L1.944092204220027 2.488749000679963 L1.9349369302200046 2.5143837656799697 L1.9117435712200006 2.530090145679953 L1.8741052252200063 2.535379859679967 L1.858724365220013 2.5397743906799697 L1.8482670092199953 2.549865536680006 L1.8395186362199922 2.5612587656799697 L1.8293461102200297 2.569478166679989 L1.7989912922199949 2.5731402766799825 L1.7911381022200032 2.5817665786799644 L1.8027347822200284 2.603657854679984 L1.7907718912200323 2.6148069426799516 L1.7542728682199993 2.6377968516799974 L1.7362064622199966 2.642801734679967 L1.7014164232200244 2.643045875679963 L1.6894535322200284 2.64805075768 L1.6500655112199922 2.674417945679995 L1.645019938220031 2.682474586679991 L1.6470544432200143 2.6912229586800045 L1.6503910322200284 2.699320289679992 L1.651123454220027 2.706685198679981 L1.645019938220031 2.7135211356799864 L1.6353763842199953 2.7157184016799825 L1.625854899220002 2.7126259536799644 L1.6173099772200032 2.7066038176799516 L1.610921631220009 2.6998492606799864 L1.5995284022199883 2.672342750679963 L1.5931400552200046 2.6381630626799684 L1.5826826992200438 2.6091103286799644 L1.5594079592200103 2.596821916679989 L1.5286869302200046 2.5846148856799864 L1.521973063220031 2.5550738696799904 L1.5284021002200063 2.4869586356799864 L1.5103763842199953 2.4998167086800045 L1.4980472822200284 2.5131630626799684 L1.4827884932199993 2.523661109679967 L1.456380615220013 2.527933570679995 L1.436401774220002 2.523091448679981 L1.3111983242200438 2.4581093516799974 L1.2513431802200046 2.407531552680002 L1.2323002122199966 2.3867795996800005 L1.219849040219998 2.364074520679953 L1.2332360842200103 2.3610634536799644 L1.2539880372200116 2.352396461679991 L1.273031006220009 2.3418577246800005 L1.2813317872200116 2.333068661680006 L1.2844242352200297 2.319152645679953 L1.291748454220027 2.320414039679992 L1.3010257982200244 2.3271279066799657 L1.3092451992200438 2.3293251726799618 Z M3.501546631220009 1.8228554456799948 L3.5315759282200077 1.8407997816799657 L3.5445560712200006 1.854634416679989 L3.549927165219998 1.8736773856799864 L3.541504313220031 1.9584755626799684 L3.5372318522200032 1.9745074636799878 L3.536255290219998 1.9832558366799908 L3.532226970220023 1.9937131926799516 L3.5230716962200006 2.000101539679992 L3.5135502122199966 2.004048479679984 L3.5083825682200143 2.0071816176799935 L3.504883220220023 2.026428036680006 L3.5092777512200257 2.044250302680002 L3.521973063220031 2.0698850676799516 L3.525879313220031 2.086405250679963 L3.521973063220031 2.1341347426799935 L3.5166833502200063 2.1543577246800005 L3.493164470220023 2.188781552680002 L3.487874756220009 2.2026975676799516 L3.485351970220023 2.272765927680002 L3.4888513182200143 2.3112587656799697 L3.501546631220009 2.3435667086800045 L3.468343506220009 2.330179664679992 L3.4510502122199966 2.2983193126799684 L3.440185954220027 2.2616168386799878 L3.4263920092199953 2.2337441176799935 L3.4098311362199922 2.222798479679984 L3.3661299642199936 2.2065224376799684 L3.3475752772199883 2.195902320679995 L3.3264978032200077 2.1736448336800045 L3.329101970220023 2.1644081796799988 L3.3453780112199922 2.1633095476799618 L3.4434818522200032 2.178527645679953 L3.450073649220002 2.1758420996800005 L3.4547123212200006 2.1694130626799684 L3.4588627122199966 2.1616819426799516 L3.463989665219998 2.154886695679995 L3.4803877772199883 2.139790666679989 L3.4851892092200103 2.1309202246800005 L3.487874756220009 2.117044898679996 L3.487060954220027 2.0940549896799503 L3.4788822432199993 2.099263323679981 L3.4674076342199953 2.1152952246800005 L3.456868897220005 2.1244911876799684 L3.4508060712200006 2.1131793386799878 L3.451904704220027 2.087544573679981 L3.4605716962200006 2.0418902766799825 L3.4662276212200425 2.0251259536799644 L3.4689945482200244 2.021138323679981 L3.4748539232200244 2.0146279066799657 L3.5035811362199922 1.9903766046799838 L3.5083825682200143 1.9832558366799908 L3.516113688220031 1.9261269296799988 L3.515788167219995 1.904764625679963 L3.497884522220005 1.8587441176799935 L3.4664717612199922 1.8342893646799503 L3.430542399220002 1.8176064226799618 L3.399088949220044 1.794901343679971 L3.316569417219995 1.6850380626799684 L3.2912601732200244 1.6660764746800005 L3.2532963052200046 1.6533811616800058 L3.1732181802200046 1.6372678806800032 L3.1319991052199896 1.6181435316799657 L3.071614990220013 1.56601950768 L3.0323083502200063 1.5553180106799864 L3.010498454220027 1.553202125679963 L2.969157308219991 1.5438027116799908 L2.950073649220002 1.5416461356799864 L2.9285485842200103 1.5467323986799961 L2.893433024220002 1.5645139746800005 L2.8783369962200425 1.5621539486799811 L2.903320720220023 1.5385536876799684 L2.917318115220013 1.4993284276800019 L2.9329838052200046 1.424946916679989 L2.9261478682199993 1.424946916679989 L2.960531006220009 1.424621395679953 L2.9760746262200257 1.4264931406799697 L2.987630615220013 1.4317828546799838 L2.9766849772200032 1.447245093679971 L2.9718428552199896 1.4626259536799644 L2.9715173342200103 1.4797157976799618 L2.973958740220013 1.5007118906799697 L2.9896651212200425 1.4819130626799684 L3.000854899220002 1.4913124766799974 L3.0098474122200116 1.5105995866799908 L3.0189213052200046 1.5212197036799644 L3.0382491052199896 1.5261025156799697 L3.1652022302199896 1.6150917736799961 L3.201904704220027 1.6340126726799618 L3.2482914232200244 1.6441038176799516 L3.2945560712200006 1.6458534926799935 L3.311198324220044 1.6499631926799516 L3.3270674642199936 1.6614784926799935 L3.3786625162200323 1.7266640396799922 L3.4391280112199922 1.7804970476799618 L3.501546631220009 1.8228554456799948 Z M1.8436283372199966 1.2809853286799644 L1.831380615220013 1.2798866956799948 L1.818766683219991 1.2664996516799825 L1.8027347822200284 1.2400510836800045 L1.782349040219998 1.2195839616799908 L1.7755131022200032 1.2071327896799922 L1.7821455892199936 1.1990354586800045 L1.7948002122199966 1.201151343679971 L1.8045658372199966 1.2112831796799988 L1.8419600422199949 1.271952125679963 L1.8436283372199966 1.2809853286799644 Z M2.124837647220005 0.6819863046799988 L2.1205244962200425 0.6895953546799838 L2.0900882982200244 0.7198687916799891 L2.0957849122200116 0.6975706146799503 L2.0906579592200103 0.6836952896799922 L2.0834965012200257 0.6705523856799864 L2.0832523602200297 0.6509804456799948 L2.092448324220044 0.6558632576800001 L2.1192631022200032 0.6760862396799503 L2.124837647220005 0.6819863046799988 Z M1.072754313220031 0.45237204767996175 L1.0552126632200327 0.4628378596799685 L1.0338658162200147 0.4724701926799817 L1.016391096220019 0.483718880680005 L1.007061556220009 0.4907838396799953 L0.9861142252200068 0.49244080667996926 L0.9766997412200169 0.4966613566799829 L0.9358632252200039 0.4931266176799518 L0.8959922442200252 0.4804681066799681 L0.8717429462199959 0.45887254267997335 L0.8282744642200157 0.4349211386799716 L0.7232319772200242 0.3377845226799714 L0.6755375162200323 0.3023476326800001 L0.6649580892199936 0.2872516046799838 L0.6757002772199883 0.287088843679971 L0.6844486492200019 0.28916403967999216 L0.691894938220031 0.2936806406799697 L0.6984867352200297 0.30088278967999216 L0.8270267742200019 0.3740029066799657 L0.8567712402200129 0.4107460706799948 L0.8766091352200363 0.4074288026800055 L0.8924564672200006 0.4052475256799717 L0.9246764982200091 0.41776376367996093 L0.9485428122200403 0.4180523616799583 L0.9711087202200304 0.4086022706799959 L0.9915792432200021 0.39565410867995254 L1.005318769219997 0.38998376067998564 L1.0170443132199978 0.3834755176800009 L1.0248528402200066 0.3788413236799961 L1.0285801122199985 0.37075287967998705 L1.0412204562200316 0.3615587656799626 L1.043820228220028 0.3490547336799814 L1.0583969402200353 0.33803756967997245 L1.070639066220025 0.315524003679986 L1.0891983212200387 0.304413016679991 L1.0868893562200412 0.2938028016800054 L1.0628259282200077 0.28037497667999745 L1.0212406412200323 0.2735797296799838 L1.0281579592200103 0.26059958667999084 L1.055420329220027 0.23264548467996704 L1.061279704220027 0.2203163826800001 L1.0690108242200438 0.1780393646799503 L1.0880537922199949 0.19028708667999084 L1.1056319172199949 0.21002178668000582 L1.1185713712200425 0.23154685167999745 L1.1236576342199953 0.24936911767999348 L1.1425742952200437 0.2595769546799893 L1.2250151072200026 0.28875120467997206 L1.2457724982200205 0.28382328067995743 L1.291870524220002 0.29404685167999745 L1.3428478112200253 0.30204486467996006 L1.3757496712200066 0.30308025067997235 L1.38921640321999 0.2849893346799668 L1.4099019012200245 0.275629846679994 L1.4411467432200027 0.2882786216799964 L1.4601902922200054 0.29141362967995477 L1.4957806082200307 0.2781722016799968 L1.5438833832199919 0.2842440226799745 L1.5756026212200425 0.27545147468000053 L1.6074222822200284 0.26255271167999084 L1.627685954220027 0.25998923467996704 L1.6911625162200323 0.25901267267996175 L1.7065433762200257 0.25315329767996175 L1.7159834802199896 0.2420042086800045 L1.7227787272200032 0.2291054456799948 L1.7316898602200297 0.21807842768000185 L1.7474369302200046 0.21213767267996175 L1.7497562662200323 0.23069235967996704 L1.7447513842199953 0.25107810167999745 L1.742025147220005 0.2716266046799838 L1.7598881022200032 0.30698630467999877 L1.7606612142199936 0.326151343679971 L1.7522790532200077 0.3422646256799631 L1.7337650552200046 0.3493447036799644 L1.7265629072200284 0.34678122667999745 L1.7096358242200438 0.3337197036799644 L1.7002771002200063 0.3288368906799697 L1.6874190272199883 0.32680238567998643 L1.622070720220023 0.33013897468000053 L1.5625004072200284 0.3425087656799697 L1.4251253902200176 0.3672468396799964 L1.369445804220021 0.3672720506799756 L1.1594242352200297 0.41550681267996836 L1.141357829220027 0.41819235967996704 L1.1226810712200006 0.4235634536799644 L1.0923669432200143 0.4470009536799644 L1.072754313220031 0.45237204767996175 Z M1.850464274220002 0.0817665786799644 L1.8321537272200032 0.07916241168000582 L1.753052165219998 0.08453350568000317 L1.7213545742200438 0.09503155268000185 L1.7002771002200063 0.0955198336800045 L1.7032067872200116 0.0916135836800045 L1.706177165219998 0.0901487396799503 L1.713379313220031 0.08868389567995294 L1.7493900552200046 0.06760642267996175 L1.7946781412200323 0.06016013268000009 L1.8883467612199922 0.06134014567995294 L1.9804691572200284 0.08013897468000053 L2.033040772220005 0.0843707446799904 L2.055989990220013 0.0681760836800045 L2.1092533372199966 0.09055564067996968 L2.1515303552199896 0.11903871367998775 L2.3348799642199936 0.2794391046799838 L2.3557132982200244 0.2921344166799891 L2.3791507982200244 0.29888897468000053 L2.4122318522200032 0.30088278967999216 L2.4036869302200046 0.3118691176799935 L2.390218506220009 0.3155719166799891 L2.357585042219995 0.31455466467999216 L2.3722334802199896 0.3416135836800045 L2.3929447432199993 0.36350485967996704 L2.418945720220023 0.3780719166799891 L2.480062256220009 0.3882851326800001 L2.5075687662200323 0.40049216467999216 L2.5555830892199936 0.43186423467996704 L2.592285563220031 0.45005271167999084 L2.604004313220031 0.45920798467996704 L2.6130375162200323 0.4722288176799516 L2.6205244962200425 0.4905393646799503 L2.620687256220009 0.5067340266799825 L2.6074222822200284 0.5137734146799922 L2.604248454220027 0.5207314226799618 L2.604004313220031 0.5653277766799825 L2.6074222822200284 0.5816445076800001 L2.6165775552200046 0.5922646256799631 L2.629883220220023 0.5986936616800058 L2.645630290219998 0.6025999116800058 L2.6328129072200284 0.6258339616799908 L2.631266683219991 0.6332802506799631 L2.633545329220027 0.6441445076800001 L2.6384281412200323 0.6509804456799948 L2.6433923342200103 0.6558632576800001 L2.645630290219998 0.6609495206799529 L2.6467289232200244 0.6690468516799974 L2.6480716962200006 0.6729124116800058 L2.646322022220005 0.6768593516799974 L2.6381026212200425 0.6851194426799516 L2.6301273602200297 0.6911415786799644 L2.621826579220027 0.6948036876799684 L2.604004313220031 0.6981402766799825 L2.6060795092199953 0.6939085056800032 L2.6108402512200257 0.6789345476799618 L2.5783695482200244 0.6824338956799529 L2.547526449220044 0.6981402766799825 L2.520182699220044 0.7203163826800001 L2.497884522220005 0.7431435316799657 L2.488444417219995 0.7678831146799503 L2.479614665219998 0.8442991306800032 L2.481120199220044 0.863260718679971 L2.4706221522199883 0.9195758236799811 L2.4756677252200063 1.0001015396799922 L2.4720869962200425 1.072245093679971 L2.4361576342199953 1.103495093679971 L2.4097904462200006 1.090962541679989 L2.3865970872199966 1.0625608496800005 L2.370117595220023 1.0313108496800005 L2.3638513182200143 1.0106402766799825 L2.3477787272200032 0.9976194426799516 L2.2746586102200297 0.9831337656799697 L2.254557699220044 0.9588417736799961 L2.2707523602200297 0.9587197036799644 L2.288900147220005 0.953104468679971 L2.303711345220023 0.9426878026800019 L2.314941813220031 0.917948218679971 L2.3272302252200063 0.9148964616799908 L2.3417972822200284 0.9133909276800019 L2.3538822432199993 0.9079384536799644 L2.390462647220005 0.8702594166799891 L2.413900147220005 0.8525185316799657 L2.4395349122200116 0.8427529066799657 L2.4330244962200425 0.8345741956799948 L2.429036865220013 0.8263141046799838 L2.4270023602200297 0.8168740006799631 L2.426514079220027 0.804911109679967 L2.4224857592199953 0.7979937916799891 L2.4140629072200284 0.7920530366800058 L2.406413167219995 0.7846474376799684 L2.404785563220031 0.7738238696799904 L2.411011149220002 0.7625527116799908 L2.420329183219991 0.7540484796799838 L2.4289554852200297 0.7445269946799904 L2.4326989752200063 0.7298378676799935 L2.4322513842199953 0.7034706796799988 L2.4294437662200323 0.6905719166799891 L2.4124759932199993 0.6755165786799644 L2.444214274220002 0.6332802506799631 L2.442952881220009 0.6236366956799948 L2.4342045092199953 0.6116331146799503 L2.4326989752200063 0.5411171646799922 L2.4473881022200032 0.5408730236799961 L2.4582523602200297 0.5352577896799922 L2.466634522220005 0.5256956146799503 L2.473633220220023 0.5137734146799922 L2.4747318522200032 0.5087685316799657 L2.473633220220023 0.4896034926799935 L2.476400147220005 0.48264548467996704 L2.4826664232200244 0.478495093679971 L2.489827881220009 0.4757281666799891 L2.4947513842199953 0.4727984796799838 L2.504883220220023 0.45713278967999216 L2.5092777512200257 0.43910707367998114 L2.502116292219995 0.4243772556800032 L2.4666752122199966 0.41591371367998775 L2.4432784022199883 0.40614808867998775 L2.3506677252200063 0.3939003676799935 L2.3330896002200063 0.38401267267996175 L2.321859131220009 0.3670448986799961 L2.3098148602200297 0.3425087656799697 L2.3143721522199883 0.3364052506799631 L2.3155114752200063 0.3282672296799838 L2.3127445482200244 0.31955954767996175 L2.3013920092199953 0.3062538826800001 L2.2962650552200046 0.29555238567998643 L2.2927250162200323 0.29066957367998114 L2.2874759932199993 0.289041968679971 L2.282796631220009 0.29286683867998775 L2.2779138182200143 0.2982379326799851 L2.271973063220031 0.30088278967999216 L2.2515873212200006 0.29917380467999877 L2.2358402512200257 0.2934365006799631 L2.2288415532200077 0.2830605236799961 L2.2347009282200077 0.2673948336800045 L2.2181400552200046 0.23349997667999745 L2.172607829220027 0.16526267267996175 L2.1453454592200103 0.13637269867998114 L2.1284183762200257 0.1253863696799904 L2.1066084802199896 0.11802146167999084 L2.0843509932199993 0.11741110967996704 L2.0658369962200425 0.12652569267995162 L2.0485030112199922 0.13205954767996175 L2.0247806802200046 0.1286415786799644 L1.9659834802199896 0.11122621367998775 L1.9478763842199953 0.1091917086800045 L1.9082035322200284 0.1091103286799644 L1.8964034022199883 0.1057737396799503 L1.868164470220023 0.08884665667996572 L1.850464274220002 0.0817665786799644 Z M0.14880411821999928 3.4928993906799697 L0.14526407922002704 3.4945269946799904 L0.1262211102200297 3.482075823679981 L0.12443074622004247 3.4783323336800045 L0.14880411821999928 3.4928993906799697 Z M0.09948771221999664 3.441874000679963 L0.10994506822001426 3.4548134536799644 L0.10827677422000193 3.4554238046799988 L0.06848185222000325 3.413919898679996 L0.07413777721998827 3.4172157976799618 L0.09948771221999664 3.441874000679963 Z M0.394124756220009 1.450012020679953 L0.396322022220005 1.4507444426799516 L0.40071655322000765 1.4605100676799516 L0.3985192872200116 1.459777645679953 L0.394124756220009 1.450012020679953 Z M0.3739017742200019 1.4294228286799644 L0.37439005522000457 1.4255979586800045 L0.3834232592199953 1.436909807679985 L0.38293497722000325 1.4407753676799935 L0.3739017742200019 1.4294228286799644 Z M3.940755615220013 4.785990211679991 L3.944661865220013 4.7927854586800045 L3.948120524220002 4.805643531679966 L3.9409183762200257 4.81321189067997 L3.928467204220027 4.813537411680006 L3.9201664232200244 4.805318010679986 L3.9143070482200244 4.7918902766799825 L3.913086345220023 4.784037086679991 L3.917806397220005 4.78281638268 L3.9237064622199966 4.784647437679968 L3.9298099772200032 4.788797828679964 L3.928833415219998 4.782612932679985 L3.9233402512200257 4.765726539679992 L3.9265954592200103 4.763773414679992 L3.9313968912200323 4.770365211679991 L3.940755615220013 4.785990211679991 Z M3.916870524220002 4.752542945679995 L3.9131677252200063 4.7537229586800045 L3.9094242352200297 4.751200172679962 L3.9109704592200103 4.72532126567997 L3.9152836102200297 4.727111630680003 L3.9179691572200284 4.743875953679964 L3.916870524220002 4.752542945679995 Z M3.851156006220009 4.6170042086800045 L3.8549808762200257 4.622904273679996 L3.8601892092200103 4.635396135679986 L3.8573409022199883 4.640970679679999 L3.8496911622200116 4.632303687679968 L3.842651774220002 4.6172483496800005 L3.839193115220013 4.602844052680002 L3.8432621262200257 4.600158505680003 L3.849202881220009 4.6106972426799935 L3.851156006220009 4.6170042086800045 Z M6.044654524220022 4.387322684680004 L6.056848182220023 4.379078354679979 L6.069037129219993 4.386579213679983 L6.05521357822002 4.411317046680001 L6.03733358721999 4.414314407679985 L6.044654524220022 4.387322684680004 Z M4.553792725220006 3.141662411680006 L4.556763102220003 3.1462197036799644 L4.557047933219991 3.1571246516799825 L4.552124430220005 3.169901343679971 L4.545410563220031 3.17344138268 L4.539184977220003 3.1575722426799935 L4.545532634219995 3.143127255680003 L4.553792725220006 3.141662411680006 Z M1.7936201992200438 2.641743791679989 L1.8230798342200103 2.6384885836800045 L1.8299971522199883 2.6390175546799988 L1.8258060712200006 2.6463824636799878 L1.8142093912200323 2.660990211679991 L1.7955326342199953 2.669087541679989 L1.779134522220005 2.6612343516799974 L1.7792159022199883 2.6474404066799657 L1.7936201992200438 2.641743791679989 Z M2.888509522220005 2.4499306406799697 L2.889770915219998 2.4568479586800045 L2.8902591962200006 2.4694618906799697 L2.883911540219998 2.47422263268 L2.873535563220031 2.4700722426799935 L2.8677575682200143 2.457132789679992 L2.870443115220013 2.439432593679971 L2.8781742352200297 2.4356077246800005 L2.8853356932200143 2.444722307679985 L2.888509522220005 2.4499306406799697 Z M1.7987064622199966 1.5806679456799948 L1.7833256022200032 1.5807086356799864 L1.774414470220023 1.5798134536799644 L1.7561039232200244 1.579487932679985 L1.756958415219998 1.5776161876799684 L1.762817790219998 1.5730995866799908 L1.7704268392199936 1.5698850676799516 L1.7765303552199896 1.5693967866800058 L1.7880049642199936 1.570291968679971 L1.803711345220023 1.5693154066799657 L1.815552165219998 1.562723609679967 L1.823242595220023 1.5536090266799825 L1.826009522220005 1.5540566176799935 L1.8206791182199993 1.5653277766799825 L1.8107914232200244 1.5758258236799811 L1.7987064622199966 1.5806679456799948 Z M0.4127608242200438 1.2138466566799657 L0.41674845422002704 1.2247109146799922 L0.41959676121999223 1.2456663176799516 L0.41691121421999355 1.2540077896799922 L0.41479532922002704 1.24961325768 L0.40820353222002836 1.2525429456799948 L0.39587443022000457 1.256082984679967 L0.394124756220009 1.2469684016799825 L0.40112345422002704 1.2319130626799684 L0.3972985842200103 1.2269488696799904 L0.3837894702200231 1.2385862396799503 L0.3765873212200006 1.2470497816799657 L0.3712569172199949 1.2547402116799908 L0.368978272220005 1.2678831146799503 L0.3795170092199953 1.2757769946799904 L0.3946944172199949 1.281473609679967 L0.404785563220031 1.289530250679963 L0.4010013842199953 1.2948199636799878 L0.3736576342199953 1.2909137136799878 L0.3621830242200019 1.29062888268 L0.3585616052199896 1.2862343516799974 L0.3615726732200244 1.271707984679967 L0.36901896221999664 1.2525429456799948 L0.38248738621999223 1.2313434016799825 L0.40177449622004247 1.2166542736799961 L0.4127608242200438 1.2138466566799657 Z M2.4185795092199953 0.5101113046799988 L2.4252119962200425 0.5145058366799908 L2.426758220220023 0.5182086356799864 L2.426269938220031 0.5191851986799811 L2.4243981932200143 0.5184120866799908 L2.4207360842200103 0.5179644946799904 L2.4198409022199883 0.519510718679971 L2.4221195482200244 0.5212197036799644 L2.422363688220031 0.5219521256799631 L2.420329183219991 0.5223590266799825 L2.4193119302200046 0.5341591566799657 L2.4217940272199883 0.5457558366799908 L2.416178792219995 0.5499062266799974 L2.412272542219995 0.5503538176799516 L2.4082849122200116 0.5504351986799811 L2.399536540219998 0.5463661876799684 L2.395386149220002 0.5352984796799838 L2.3905033372199966 0.5278928806800032 L2.384603272220005 0.5227659276800019 L2.3861494962200425 0.5186155366800058 L2.390462647220005 0.5191038176799516 L2.395264079220027 0.5160113696799904 L2.4010013842199953 0.5107216566799657 L2.409058024220002 0.5085243906799697 L2.4185795092199953 0.5101113046799988 Z M1.809001058219991 0.38779685167999745 L1.8143721522199883 0.38303610967996704 L1.825317790219998 0.37506084968000053 L1.8282067872200116 0.37803122667999745 L1.819214274220002 0.3878375416799891 L1.815755615220013 0.3936969166799891 L1.8156742352200297 0.3980507576800001 L1.810954183219991 0.4052529066799657 L1.8072513842199953 0.4158323336800045 L1.8009037272200032 0.42445863567998643 L1.7944340012200257 0.42470277667998246 L1.792318115220013 0.421854468679971 L1.7899580892199936 0.41802959968000053 L1.776245524220002 0.40297426067998643 L1.7717289232200244 0.394510718679971 L1.7696944172199949 0.38596579767996175 L1.7750248212200006 0.3819781666799891 L1.8052575682200143 0.3768105236799961 L1.8097334802199896 0.3815712656799697 L1.8004154462200006 0.3919472426799935 L1.7983402512200257 0.3949176196799904 L1.8057458502200063 0.39072653967999216 L1.809001058219991 0.38779685167999745 Z M2.892645995364603 1.4372680213406746 L2.9043996220543704 1.4396187466786294 L2.916936823856787 1.4435366222418828 L2.9130189482935265 1.4490216480304419 L2.9020488967164226 1.448238072917789 L2.8754073428862768 1.446670922692487 L2.881675943787485 1.4404023217912787 L2.892645995364603 1.4372680213406746 Z M2.8338778619157807 1.4568573991569522 L2.8448479134928846 1.456073824044303 L2.853467239732055 1.459208124494907 L2.8519000895067563 1.4646931502834626 L2.8338778619157807 1.4717453262973237 L2.8142884840994924 1.4717453262973237 L2.801751282297076 1.4803646525364833 L2.790781230719972 1.4819318027617854 L2.7899976556073227 1.474096051635275 L2.8056691578603363 1.4646931502834626 L2.818206359662753 1.4623424249455113 L2.8338778619157807 1.4568573991569522 Z" fill="black" stroke="black" stroke-width="0.5" vector-effect="non-scaling-stroke"/></svg>