<svg xmlns="http://www.w3.org/2000/svg" viewBox="0 0 0.44813251685268085 0.7216988309897729"><path d="M0.17546958410568436 0.10027364857376142 L0.21860109410565087 0.1342091955737601 L0.22873445901958434 0.11978268118524582 L0.2437620860129286 0.10904866190428919 L0.2502024975814976 0.1240762888976299 L0.2566429091500737 0.1476911313157352 L0.2695237322872259 0.1487645332438312 L0.25937043737114607 0.16013189631755154 L0.25878971300626574 0.17881978723051262 L0.23862062610569978 0.1833628415737394 L0.24448000110569978 0.24154969057377684 L0.24228273510570375 0.3297658355737667 L0.22739015710570243 0.43995463857373807 L0.2183569541057011 0.4618052235737764 L0.18930421910565087 0.5048146645737575 L0.18914145910568436 0.5049774245737808 L0.18246828210570243 0.47474467757376715 L0.17107505310568172 0.4415822425737588 L0.15528729210566894 0.4092742995737808 L0.1352677611056663 0.3814829585737698 L0.09164796910565087 0.3369272945737407 L0.08432375110569978 0.3092173335737698 L0.10385500110569978 0.27564799757374203 L0.1093074751056804 0.26108094057377684 L0.11475994910566101 0.24651388257376539 L0.10906333410568436 0.20887553657377111 L0.09384523510570375 0.171888231573746 L0.07683677110568965 0.14495138257376539 L0.0727677611056663 0.13290711157372925 L0.07341880310568172 0.11654969057377684 L0.08505617310569846 0.06926778957375745 L0.09238039110564955 0.05763041957374071 L0.10531984410565087 0.051933804573764064 L0.10548260510566365 0.05197449457375569 L0.10645916710566894 0.05197449457375569 L0.12778078210570243 0.05250346657373939 L0.1402319541057011 0.05482280257376715 L0.15626385510566365 0.0614145985737764 L0.16928468810564823 0.06678569257377376 L0.16936606810568833 0.06674500257378213 L0.2105444541057011 0.05201518457374732 L0.21713625110569978 0.05592143457374732 L0.22128664110564955 0.06898295857376979 L0.22861086010570375 0.07801616157377111 L0.23080812610569978 0.08212586157372925 L0.23300539110564955 0.08623556257373366 L0.22739015710570243 0.09685567957376406 L0.21795005310568172 0.09921570557372661 L0.18946698010566365 0.09563497657376274 L0.17546958410568436 0.10027364857376142 Z M0.02156788689710254 0.11978268118524582 L0.03230190617806272 0.12300288696953388 L0.043035925459022906 0.12836989661001397 L0.043035925459022906 0.1455443274595467 L0.04518272931520784 0.1594985525247914 L0.047329533171399873 0.1745261795181321 L0.029081700393774668 0.17023257180574802 L0.009760465688053444 0.17130597373384404 L0.004393456047573352 0.15520494481240732 L0.006540259903765389 0.13481030817858652 L0.02156788689710254 0.11978268118524582 Z M0.22551425323529628 0.015662694159960466 L0.2566429091500737 0.00707547873519232 L0.279184349640083 0.01780949801614895 L0.280257751568179 0.032837125009489654 L0.280257751568179 0.04786475200283036 L0.29528537856152326 0.06718598670855513 L0.3081662016986684 0.07255299634903523 L0.3027991920581954 0.08650722141427991 L0.2974321824177153 0.09187423105475645 L0.281331153496275 0.08328701562999186 L0.27703754578389095 0.06933279056474717 L0.27167053614341796 0.055378565499502486 L0.2577163110781697 0.05215835971521443 L0.2448354879410246 0.050011555859022394 L0.23624827251625646 0.05323176164331045 L0.22336744937910424 0.031763723081393636 L0.22551425323529628 0.015662694159960466 Z M0.3981743657015713 0.5728665230435936 L0.4064013245397149 0.5741322090186927 L0.4146282833778514 0.5684366221307506 L0.42475377117863644 0.5633738782303581 L0.42475377117863644 0.5697023081058497 L0.4222223992284384 0.5785621099315357 L0.4146282833778514 0.5886875977323207 L0.4070341675272644 0.5975473995580067 L0.41209691142765337 0.6019773004708497 L0.41969102727824037 0.6095714163214367 L0.4158939693529504 0.6146341602218293 L0.40386995258951686 0.6121027882716348 L0.3981743657015713 0.6158998461969283 L0.38994740686343476 0.6228611190599693 L0.3861503489381448 0.6266581769852628 L0.3905802498509843 0.6399478797237919 L0.3981743657015713 0.6494405245370274 L0.4000728946642198 0.6557689544125189 L0.3931116218011823 0.6583003263627134 L0.38931456387588526 0.6646287562382049 L0.38804887790079334 0.6728557150763415 L0.3937444647887318 0.6766527730016385 L0.3981743657015713 0.682348359889577 L0.3918459358260833 0.688043946777519 L0.3861503489381448 0.696903748603205 L0.38108760503774874 0.7057635504288946 L0.3836189769879468 0.7120919803043826 L0.38045476205019924 0.7146233522545806 L0.3690635882743152 0.7095606083541881 L0.3614694724237282 0.6988022775658536 L0.36526653034902523 0.689309632752618 L0.37286064619961223 0.673488558063891 L0.3722278032120627 0.6639959132506554 L0.3722278032120627 0.6500733675245769 L0.3633680013863767 0.6412135656988909 L0.3640008443739262 0.6323537638732049 L0.36526653034902523 0.6203297471097713 L0.3690635882743152 0.6070400443712423 L0.3791890760751002 0.5924846556576142 L0.3924787788136328 0.5779292669439862 L0.3981743657015713 0.5728665230435936 Z M0.3994400516766703 0.541857216653689 L0.4070341675272644 0.538693001715945 L0.4139954403903019 0.5393258447034945 L0.4152611263654009 0.5456542745789861 L0.40450279557706637 0.5494513325042796 L0.3994400516766703 0.541857216653689 Z M0.4285508291039264 0.6152670032093788 L0.4437390608051075 0.6158998461969283 L0.44057484586735995 0.6253924910101638 L0.43234788702922344 0.6304552349105563 L0.4279179861163769 0.6247596480226143 L0.42601945715373546 0.6196969041222218 L0.4285508291039264 0.6152670032093788 Z M0.41715965532804944 0.6424792516739899 L0.4234880852035374 0.6431120946615394 L0.435512101966971 0.6450106236241844 L0.44057484586735995 0.6500733675245769 L0.43930915989226094 0.6576674833751674 L0.435512101966971 0.6627302272755564 L0.43171504404167393 0.661464541300461 L0.42665230014128497 0.6601988553253619 L0.41969102727824037 0.661464541300461 L0.4146282833778514 0.6639959132506554 L0.41019838246500484 0.6557689544125189 L0.41209691142765337 0.6507062105121264 L0.4089326964899058 0.6462763095992834 L0.41083122545255435 0.6418464086864404 L0.41715965532804944 0.6424792516739899 Z" fill="black" stroke="black" stroke-width="0.5" vector-effect="non-scaling-stroke"/></svg>