<svg xmlns="http://www.w3.org/2000/svg" viewBox="0 0 1.1898219491399544 0.841514526839859"><path d="M0.594936813069971 0.8332643844198628 L0.5353022100699647 0.8311198124199848 L0.47737293006991166 0.8248669634198791 L0.42151070606995944 0.8147125444199332 L0.3679222460700018 0.8008374224199599 L0.3169692840699483 0.78347414141993 L0.2688585250699518 0.7628035684199119 L0.22395170506995754 0.7390840864199788 L0.18250720706992496 0.7124448844199378 L0.14488676407000156 0.6831443484199724 L0.11129708306997799 0.6513891804199545 L0.08204822306992554 0.6173860874199022 L0.057501917069934905 0.5813159374199017 L0.03791654907001174 0.5433854374199143 L0.02355050107001233 0.5039046424199682 L0.014662155069906646 0.4629252324199342 L0.01166492107000039 0.42075726341988684 L0.014662155069906646 0.3785892944199247 L0.02355050107001233 0.33766156041991735 L0.03791654907001174 0.29810325141994554 L0.057501917069934905 0.26019858741994994 L0.08204822306992554 0.22412843841996732 L0.11129708306997799 0.190125345419915 L0.14488676407000156 0.15837017841988654 L0.18250720706992496 0.1290696404199423 L0.22395170506995754 0.10243044041990856 L0.2688585250699518 0.07871095841994702 L0.3169692840699483 0.05804038441993953 L0.3679222460700018 0.0406771034199096 L0.42151070606995944 0.02682782041995324 L0.47737293006991166 0.016647562419990436 L0.5353022100699647 0.010394714419902584 L0.594936813069971 0.00825014241999611 L0.6545714160699774 0.010394714419902584 L0.7125006970699062 0.016647562419990436 L0.768414596069924 0.02682782041995324 L0.8219513800699403 0.0406771034199096 L0.8729043430699832 0.05804038441993953 L0.9209634240699458 0.07871095841994702 L0.9659219210699845 0.10243044041990856 L1.0073664190700171 0.1290696404199423 L1.0449868620699405 0.15837017841988654 L1.0785765430699072 0.190125345419915 L1.107722050069917 0.22412843841996732 L1.132320033069952 0.26019858741994994 L1.1519570770699303 0.29810325141994554 L1.1663231250699297 0.33766156041991735 L1.1751081180699927 0.3785892944199247 L1.178157028069954 0.42075726341988684 L1.1751081180699927 0.4629252324199342 L1.1663231250699297 0.5039046424199682 L1.1519570770699303 0.5433854374199143 L1.132320033069952 0.5813159374199017 L1.107722050069917 0.6173860874199022 L1.0785765430699072 0.6513891804199545 L1.0449868620699405 0.6831443484199724 L1.0073664190700171 0.7124448844199378 L0.9659219210699845 0.7390840864199788 L0.9209634240699458 0.7628035684199119 L0.8729043430699832 0.78347414141993 L0.8219513800699403 0.8008374224199599 L0.768414596069924 0.8147125444199332 L0.7125006960699167 0.8248669634198791 L0.6545714160699774 0.8311198124199848 L0.594936813069971 0.8332643844198628 Z" fill="black" stroke="black" stroke-width="0.5" vector-effect="non-scaling-stroke"/></svg>