<svg xmlns="http://www.w3.org/2000/svg" viewBox="0 0 4.713482837099974 6.002525677920019"><path d="M4.600299564050076 4.704817935960037 L4.614665612050018 4.7652276859599425 L4.617456140050066 4.795458398960037 L4.599989506049994 4.948420637960012 L4.614665612050018 5.186855696959995 L4.617146081049995 5.212228825959997 L4.62768807305001 5.262303287959995 L4.663654870050024 5.363692447959963 L4.66546093005006 5.373806379960044 L4.66727222104997 5.38394960995997 L4.658177168050017 5.400176008959974 L4.63874683005001 5.419244612960043 L4.61528573004999 5.433507307960028 L4.595028568049983 5.435109277960052 L4.5831429890500175 5.422551904960031 L4.576011641049988 5.401881331960013 L4.568363529050018 5.361470360960041 L4.548933191050011 5.321266096960031 L4.523094974050011 5.315788395960041 L4.4898153520500586 5.322558007960069 L4.447544031050072 5.318733952959931 L4.424703048049977 5.31139589795994 L4.414057702049988 5.305866519959935 L4.405582768049996 5.29759829196 L4.398658125050005 5.2800799799600355 L4.396591068049972 5.263336816959978 L4.392353601049976 5.246955387960028 L4.379124434050013 5.230573957959976 L4.347085046050083 5.220497054960035 L4.308947839050049 5.263336816959978 L4.277321862050016 5.262871728960036 L4.260682052050001 5.265300520960025 L4.249519941050082 5.2849375659599644 L4.23598071604998 5.327518945960023 L4.208075443050049 5.365191064960058 L4.202701095050074 5.382657698959989 L4.202494388049999 5.402243066960025 L4.209625736049972 5.441982242960009 L4.208385501050017 5.46151593396003 L4.202804447050013 5.491126530959988 L4.199393803049972 5.506784488960037 L4.205181563050061 5.524509504960051 L4.212726322049988 5.538307112959998 L4.236187422050065 5.558874332959974 L4.242802006049985 5.573757145959931 L4.24869311905006 5.589208398960025 L4.289568356050026 5.621289691959987 L4.28297655904997 5.659863910959984 L4.281511715049973 5.701286436960004 L4.285906246049976 5.742139300959991 L4.296404293049974 5.77888246496002 L4.325050126050016 5.820020160959984 L4.32985155904997 5.83043682696001 L4.332048824049977 5.84919496496002 L4.350359371049976 5.901807269959988 L4.357683590049973 5.9146653429600065 L4.360694658050008 5.925244769959988 L4.358416012049972 5.935986956959994 L4.349952470050013 5.943677386960019 L4.343767574049977 5.940381488959986 L4.338640621049976 5.9331386499600285 L4.333513668049974 5.929151019959988 L4.325457028050025 5.920117816959987 L4.30250780904997 5.868278623960009 L4.23414843404997 5.751579404960012 L4.217302731050026 5.686719378959992 L4.21071093404997 5.676546852959973 L4.158546220050013 5.634880186960004 L4.148780595050013 5.621940732960013 L4.132504554049987 5.59248109795999 L4.12127408504999 5.57653057696001 L4.076921871049976 5.527621071960027 L4.069841793049974 5.511426410959984 L4.068376949049977 5.490348936960004 L4.076677731050026 5.425733050959991 L4.0748873660499925 5.40192933996002 L4.069679033050008 5.382845680959974 L4.014177731050026 5.2881598089600175 L4.004900387049972 5.2786383249600135 L3.993832679049987 5.2727789499600135 L3.9841484340499704 5.2584153429600065 L3.977393876050016 5.240552386960019 L3.9741386680499744 5.223991514960005 L3.9803235640500105 5.223991514960005 L3.982439449049977 5.227368792960021 L3.983253251050016 5.227979144959988 L3.98455533504999 5.228141904960012 L3.9878105430499744 5.2302577909600245 L3.995297522049995 5.212354144959988 L4.007341793049974 5.193555316959987 L4.023455074049977 5.182894508959976 L4.042335283050008 5.189282855960016 L4.029802731050026 5.17809307696001 L4.019792965049973 5.159782529960012 L4.014177731050026 5.138989886960019 L4.014421871049976 5.120394508959976 L4.022966793049974 5.109204730960016 L4.03688280904997 5.0969976999600135 L4.046567054049987 5.083040993960026 L4.042335283050008 5.066358050959991 L4.057390621049976 5.049390277960015 L4.060238929049987 5.041943988959986 L4.056169918049974 5.032259743960026 L4.062192054049987 5.022819639960005 L4.06032030904997 5.014234027960015 L4.052996090049973 5.0076015409600245 L4.047218095050013 5.005567035959984 L4.049985022049995 4.995150368960026 L4.053728512049972 4.986157855960016 L4.053728512049972 4.977490863959986 L4.049822262049972 4.969556292960021 L4.048357418049974 4.977735003959992 L4.046567054049987 4.98082745196001 L4.042335283050008 4.983838519959988 L4.049822262049972 4.983838519959988 L4.036801429049987 5.0181809679600065 L4.02516405904997 5.032585264960005 L4.008318356050026 5.032259743960026 L4.000505856050026 5.020337542960021 L4.003272783050008 5.004671852959973 L4.008643876050016 4.9888840929600065 L4.008318356050026 4.977002581959994 L4.001482418049974 4.977002581959994 L3.996355465049973 4.994173805959974 L3.9870781210499757 4.99287172295999 L3.9780449180499744 4.980990212960023 L3.9741386680499744 4.966423154960012 L3.977393876050016 4.94404359795999 L3.986345699049977 4.9385504339600175 L3.999203772049995 4.93590557696001 L4.014421871049976 4.922396462960023 L4.008318356050026 4.9155605249600285 L3.9917167930499744 4.926953753959992 L3.984718095050013 4.9185715929600065 L3.9909843710499757 4.903516253959992 L4.014421871049976 4.894483050959991 L4.014421871049976 4.887565732960013 L3.968116533050008 4.89098370196001 L3.9485039030500246 4.89716859795999 L3.9331230430499744 4.901237607960013 L3.9236829390500105 4.892896136960019 L3.9253105430499744 4.869092425959991 L3.935808590049973 4.847689430959974 L3.9537936160499925 4.839225889960005 L3.9460624960499757 4.828971982960013 L3.9499687460499757 4.819531878959992 L3.9607109340499704 4.811556618960026 L3.9741386680499744 4.805697243960026 L3.9741386680499744 4.798210264960005 L3.9636406210499757 4.799349587960023 L3.9543632780500246 4.803744118960026 L3.9465507780500246 4.810824196960027 L3.9401217410499925 4.819938779960012 L3.934750647049995 4.807487607960013 L3.930030595050013 4.786817035959984 L3.9256360640500105 4.747022113959986 L3.9226249960499757 4.737500628959992 L3.908464840049973 4.72224183996002 L3.9052910120499718 4.713208636960019 L3.9052910120499718 4.67536683996002 L3.8796562460499757 4.573193988959986 L3.8779472620499718 4.538770160959984 L3.888363929049987 4.542798480960016 L3.8916191370499718 4.544995745960023 L3.8864921840499704 4.531771462960023 L3.8777031210499757 4.533643206959994 L3.870460283050008 4.5464198999600285 L3.870460283050008 4.5655035589600175 L3.8642753870499718 4.5655035589600175 L3.853533199049977 4.548291644959988 L3.843767574049977 4.5264410589600175 L3.8374199180499744 4.502067686960004 L3.836443356050026 4.477368792960021 L3.8413261680499744 4.462110003959992 L3.8502779910499925 4.452344378959992 L3.8591484340499704 4.444776019959988 L3.8642753870499718 4.435742816959987 L3.8628105430499744 4.419304014960005 L3.8542656210499757 4.411084613959986 L3.8436048140500105 4.406568011960019 L3.836443356050026 4.4009934679600065 L3.8332695280500246 4.3760504339600175 L3.850929033050008 4.364128232960013 L3.8768079390500105 4.357048154960012 L3.898455074049977 4.34638734795999 L3.909360022049995 4.328565081959994 L3.932472001050016 4.257642230960016 L3.926287106050026 4.258333962960023 L3.912126949049977 4.257642230960016 L3.9099296840499704 4.272738258959976 L3.9001640590499704 4.311312477959973 L3.9018730430499744 4.31904359795999 L3.894874345050013 4.324292620960023 L3.8835624960499757 4.335767230960016 L3.8684257780500246 4.3474452909600245 L3.850766272049995 4.353223285959984 L3.847673824049977 4.358228167960021 L3.8230156210499757 4.370475889960005 L3.815772783050008 4.380485654960012 L3.818376949049977 4.396354795960008 L3.828956376050016 4.403923154960012 L3.8416516890500105 4.408317686960004 L3.850766272049995 4.414624652960015 L3.8503593710499757 4.433911761960019 L3.833350908050008 4.446118792960021 L3.8115410120499718 4.444450498960009 L3.796078772049995 4.422070941959987 L3.7788261680499744 4.307731748960009 L3.768083981050026 4.271314105960016 L3.7004570280500246 4.1477789499600135 L3.572527340049973 3.9820481549600117 L3.5407890590499704 3.9701666449599884 L3.523129554049987 3.9551113059599743 L3.5090507780500246 3.936882139960005 L3.5012382780500246 3.9212164499600135 L3.4934257780500246 3.9253261499600285 L3.486833981050026 3.920484027960015 L3.482439449049977 3.910108050959991 L3.480730465049973 3.897575498960009 L3.482764970050013 3.885327777960015 L3.492205074049977 3.8730800559599743 L3.498389970050013 3.844068011960019 L3.5144218710499757 3.8018316839600175 L3.5149101530500246 3.777865212960023 L3.507504554049987 3.777865212960023 L3.50408658504999 3.7965012799600117 L3.486833981050026 3.8489508249600135 L3.476905595050013 3.8597337019600104 L3.4548515590499704 3.866081357960013 L3.4411796840499704 3.88239808996002 L3.436052731050026 3.904574196960027 L3.439145179049987 3.9286627389599857 L3.424089840049973 3.918083311960004 L3.4094414030500246 3.91169496496002 L3.39275846004999 3.908399066959987 L3.3708671840499704 3.9075445749600135 L3.3708671840499704 3.9149908639599857 L3.3918632780500246 3.9207281679600214 L3.394548824049977 3.930208962960023 L3.3845390590499704 3.9389980249600285 L3.3670423140500105 3.94294496496002 L3.3152031210499757 3.9439622179600065 L3.3332695280500246 3.9492926209600228 L3.3494641890500105 3.9562506289599924 L3.3571953090499704 3.9621913839599756 L3.354347001050016 3.976677061960004 L3.341814449049977 3.9851812929600214 L3.3249687460499757 3.989128232960013 L3.308855465049973 3.9901047959600078 L3.3078789030500246 3.989046852959973 L3.2771985640500105 3.9831060979599897 L3.272804033050008 3.9841640409600245 L3.269223304049987 3.9840012799600117 L3.267839840049973 3.9801764109599844 L3.2683281210499757 3.964958311960004 L3.267839840049973 3.9621913839599756 L3.2556328090499704 3.9580816839600175 L3.240496090049973 3.9563320089599756 L3.2063164030500246 3.955925107960013 L3.2063164030500246 3.9621913839599756 L3.219011715049973 3.9727301209600228 L3.2236503870499718 3.9835943789599924 L3.2165703090499704 3.990755837960023 L3.193376949049977 3.9901047959600078 L3.193376949049977 3.9975103949599884 L3.251319658050008 4.01130433996002 L3.277849606050026 4.021680316959987 L3.2889173140500105 4.041577777960015 L3.285499345050013 4.054517230960016 L3.27752408504999 4.068555316959987 L3.2659898240499814 4.106996532960011 L3.2457856000499845 4.1251996929599954 L3.227164070050023 4.139172658959978 L3.2009867080500243 4.145972883959985 L3.151764482049984 4.155366349959991 L3.113621606049989 4.137962041960009 L3.094000695049985 4.1108354289600015 L3.0830253870499718 4.068067035959984 L3.073097001050016 4.05622621496002 L3.0623548140500105 4.038526019959988 L3.051124345050013 4.008130511960019 L3.0427421840499704 3.9993007589599756 L3.028175126050016 4.003735980960016 L3.04314908504999 4.01793682696001 L3.056658199049977 4.0455247179600065 L3.06463346004999 4.074658831959994 L3.0623548140500105 4.093783180959974 L3.0420097620499718 4.10310121496002 L3.0095390590499704 4.1080247179600065 L2.979347001050016 4.106559873960009 L2.966163408050008 4.096509417960021 L2.9599785120499718 4.08271547295999 L2.9326347620499718 4.064526995960023 L2.9264498660499925 4.0552903429600065 L2.923194658050008 4.0462164499600135 L2.908546220050013 4.027905902960015 L2.900896481050026 3.99958558996002 L2.8899101530500246 3.995231748960009 L2.8603691370499718 3.9975103949599884 L2.855730465049973 3.9918137799600117 L2.84393033504999 3.955925107960013 L2.836199215049973 3.9500250429600214 L2.827003251050016 3.9459967229599897 L2.8193535120499718 3.9410325299600117 L2.812761715049973 3.9231695749600135 L2.7986015590499704 3.9043300559599743 L2.795427731050026 3.897575498960009 L2.7939628870499718 3.887036761960019 L2.781755856050026 3.8597337019600104 L2.7744316370499718 3.8256353949599884 L2.7663749960499757 3.80817933996002 L2.7573417930499744 3.7933274519600104 L2.750017574049977 3.7766851999600135 L2.7470878870499718 3.7539394309599743 L2.741879554049987 3.74177308996002 L2.664568356050026 3.644360980960016 L2.6538261680499744 3.6179937929600214 L2.651547522049995 3.6065191839600175 L2.6516289030500246 3.5957363059599743 L2.6631035120499718 3.5344976999600135 L2.664568356050026 3.493522764960005 L2.670264970050013 3.471468727959973 L2.6814954390500105 3.452018857960013 L2.68963346004999 3.4336269309599743 L2.685564449049977 3.4147467229599897 L2.691749345050013 3.4147467229599897 L2.6753105430499744 3.3821539499600135 L2.6745781210499757 3.3688482859599844 L2.685564449049977 3.360140602959973 L2.682146481050026 3.3591640409600245 L2.6792167930499744 3.3590826609599844 L2.6775891890500105 3.357739886960019 L2.678077470050013 3.352653623960009 L2.652849606050026 3.3608730249600285 L2.6357597620499718 3.3399176209600228 L2.626156897049995 3.309929014960005 L2.623552731050026 3.291211566959987 L2.624692054049987 3.2324550559599743 L2.633155595050013 3.2096685979599897 L2.6577324180499744 3.195630511960019 L2.716000647049995 3.1959153429600065 L2.739438147049995 3.1840338319599937 L2.740251949049977 3.147249977959973 L2.7356132780500246 3.133578102959973 L2.7299980430499744 3.1278814889599857 L2.7202324180499744 3.126904925959991 L2.7026542930499744 3.1273118269600104 L2.6998873660499925 3.1314622179600065 L2.7087578090499704 3.1406581809599743 L2.726580074049977 3.1540045359599844 L2.7197441370499718 3.1745123479599897 L2.7021660120499718 3.1651129339600175 L2.6911796840499704 3.164177061960004 L2.671892574049977 3.1745123479599897 L2.646501949049977 3.1823248479599897 L2.632179033050008 3.1912766709600078 L2.627784501050016 3.187695941959987 L2.6125664030500246 3.1482265409600245 L2.6164726530500246 3.119906227959973 L2.6325859340499704 3.0966314889599857 L2.6577324180499744 3.085767230960016 L2.651547522049995 3.0789312929600214 L2.649757158050008 3.083040993960026 L2.6496757780500246 3.0840582459600228 L2.648455074049977 3.084302386960019 L2.6440605430499744 3.085767230960016 L2.636410804049987 3.076286436960004 L2.6198906210499757 3.0779954209600078 L2.583188147049995 3.091992816959987 L2.5888847620499718 3.105990212960023 L2.5838391890500105 3.1144537539599924 L2.571632158050008 3.1186041449599884 L2.5559257780500246 3.119906227959973 L2.539080074049977 3.1186041449599884 L2.5261406210499757 3.1144537539599924 L2.5007499960499757 3.099439105960016 L2.5088066370499718 3.1149420359599844 L2.522804033050008 3.125114561960004 L2.539405595050013 3.130973936960004 L2.5559257780500246 3.133578102959973 L2.593116533050008 3.134880186960004 L2.601254554049987 3.142896136960019 L2.6033704390500105 3.232536436960004 L2.6003593710499757 3.2434413839599756 L2.5925468710499757 3.2494635199599884 L2.584327470050013 3.263989886960019 L2.578142574049977 3.2816900819599937 L2.57635221004999 3.297437152960015 L2.5427421840499704 3.2841314889599857 L2.346860022049995 3.2490973089600175 L2.308855465049973 3.2361985459600078 L2.274757158050008 3.2154465929600065 L2.273780595050013 3.2270025819599937 L2.283220699049977 3.2378261499600285 L2.412940751050016 3.3100103949599884 L2.428565751050016 3.3219732859599844 L2.437843095050013 3.3344244569599937 L2.4441093710499757 3.346794248960009 L2.4528984340499704 3.3562750429600214 L2.484636715049973 3.362663389960005 L2.5123873660499925 3.375562152960015 L2.5280123660499925 3.3806484159600245 L2.5935234340499704 3.3874029729599897 L2.60174283504999 3.3939947699599884 L2.63103971004999 3.4351731549600117 L2.635271481050026 3.4516119569599937 L2.638933590049973 3.4869309679600065 L2.634783199049977 3.481234352959973 L2.62713346004999 3.4713873479599897 L2.6179374960499757 3.4625169049600117 L2.6228203090499704 3.4819667749600285 L2.627296220050013 3.5410894959600228 L2.623552731050026 3.5648932069599937 L2.5963717410499925 3.6006598089600175 L2.59002408504999 3.6065191839600175 L2.578142574049977 3.603833636960019 L2.5757011680499744 3.5954921659600245 L2.580339840049973 3.5855637799600117 L2.59002408504999 3.5785650819599937 L2.59002408504999 3.5717291449599884 L2.583188147049995 3.5717291449599884 L2.5720390590499704 3.5856451609599844 L2.561052731050026 3.5955735459600078 L2.547218095050013 3.6022467229599897 L2.5280123660499925 3.6065191839600175 L2.490496090049973 3.6055426209600228 L2.4780449180499744 3.6100592229599897 L2.4733248660499925 3.6266607859599844 L2.474545569049994 3.6330491319599787 L2.478777340049973 3.654859027960015 L2.492693356050026 3.686312477959973 L2.511410804049987 3.7162603949599884 L2.53143033504999 3.7403082459600228 L2.533708981050026 3.7453945089599756 L2.5319999960499757 3.7570318789599924 L2.534848304049987 3.764193337960023 L2.537371090049973 3.7653326609599844 L2.541277340049973 3.765576800959991 L2.545427731050026 3.766716123960009 L2.548520179049987 3.770378232960013 L2.5604016890500105 3.7790045359599844 L2.564470699049977 3.7858404729599897 L2.5593437460499757 3.795239886960019 L2.5444511680499744 3.8021978949599884 L2.529558590049973 3.800733050959991 L2.5149101530500246 3.797193011960019 L2.5007499960499757 3.7982916449599884 L2.481625647049995 3.820630511960019 L2.4725110640500105 3.8539557069599937 L2.4604667930499744 3.8817877389599857 L2.4323906210499757 3.887728493960026 L2.448422522049995 3.900708636960019 L2.4443535120499718 3.9141363709600228 L2.430844397049995 3.919304014960005 L2.4187187460499757 3.9075445749600135 L2.396990231050026 3.9209723089600175 L2.4116386680499744 3.9311041449599884 L2.4402031210499757 3.9398932069599937 L2.4596529910499925 3.9490891709600078 L2.469011715049973 3.9307379339600175 L2.4861015590499704 3.933545550959991 L2.5034355430499744 3.947380186960004 L2.5143404910499925 3.9621913839599756 L2.5173515590499704 3.972485980960016 L2.521176429049987 4.003735980960016 L2.53338346004999 4.035962542960021 L2.537126949049977 4.0709153429600065 L2.5344414030500246 4.078158180959974 L2.524594397049995 4.090039691959987 L2.51580533504999 4.094556292960021 L2.493018876050016 4.097689430959974 L2.4836601530500246 4.10310121496002 L2.477882158050008 4.118197243960026 L2.4665703090499704 4.173657855960016 L2.466488929049987 4.188753883959976 L2.4694186160499925 4.178255837960023 L2.4756035120499718 4.17223370196001 L2.482439449049977 4.1677577909600245 L2.4870781210499757 4.161410133959976 L2.487973304049987 4.150952777960015 L2.484880856050026 4.13121807696001 L2.4870781210499757 4.1204351999600135 L2.496925126050016 4.106804014960005 L2.511736324049977 4.098665993960026 L2.529558590049973 4.096143206959994 L2.548520179049987 4.099317035959984 L2.58416471004999 4.120068988959986 L2.6022311160499925 4.148714821960027 L2.614112626050016 4.181958636960019 L2.63103971004999 4.216626605960016 L2.615740231050026 4.211865863959986 L2.6106132780500246 4.209180316959987 L2.6108574180499744 4.231804014960005 L2.618018876050016 4.250073870960023 L2.637875647049995 4.28551495196001 L2.642839840049973 4.3057379339600175 L2.643735022049995 4.326489886960019 L2.637875647049995 4.367505511960019 L2.605974606050026 4.444165667960021 L2.582374345050013 4.479037087960023 L2.562761715049973 4.483512998960009 L2.5361503870499718 4.497103493960026 L2.52557096004999 4.505689105960016 L2.521176429049987 4.514600238959986 L2.5188164030500246 4.528150042960021 L2.5127128870499718 4.543775042960021 L2.484067054049987 4.5904465929600065 L2.4744641890500105 4.601595680959974 L2.46307096004999 4.606397113959986 L2.4498873660499925 4.603548805959974 L2.4328789030500246 4.596468727959973 L2.418230465049973 4.5876796659600245 L2.4118828090499704 4.579785785959984 L2.417660804049987 4.555005511960019 L2.441912106050026 4.5073573999600285 L2.4460624960499757 4.483512998960009 L2.434425126050016 4.455111305959974 L2.4323906210499757 4.441968402960015 L2.4384941370499718 4.410596331959994 L2.4353203090499704 4.398145160959984 L2.4187187460499757 4.394157529960012 L2.4231132780500246 4.414909482960013 L2.4131035120499718 4.459180316959987 L2.4153007780500246 4.473584613959986 L2.423520179049987 4.480176410959984 L2.429949215049973 4.482861956959994 L2.434913408050008 4.48668682696001 L2.438656897049995 4.496615212960023 L2.4372734340499704 4.504346331959994 L2.4326347620499718 4.511182269959988 L2.424985022049995 4.518343727959973 L2.4236015590499704 4.520052712960023 L2.421567054049987 4.521761696960027 L2.419613929049987 4.5251796659600245 L2.4170097620499718 4.539380511960019 L2.4131035120499718 4.538932920960008 L2.408220699049977 4.5366542749600285 L2.40447721004999 4.538770160959984 L2.401547522049995 4.548779925959991 L2.3982109340499704 4.579785785959984 L2.3943046840499704 4.592562477959973 L2.3901542930499744 4.601188779960012 L2.3718437460499757 4.627067686960004 L2.3591484340499704 4.640576800959991 L2.356625647049995 4.6443202909600245 L2.3523124960499757 4.6618984159600245 L2.3330253870499718 4.698356748960009 L2.3287936160499925 4.716626605960016 L2.32439908504999 4.754712542960021 L2.3151217410499925 4.7920660589600175 L2.3073092410499925 4.8115973089600175 L2.297136715049973 4.824984352959973 L2.2420423140500105 4.8689296659600245 L2.228207679049987 4.877800107960013 L2.209246090049973 4.881421527960015 L2.188819658050008 4.878125628959992 L2.151222001050016 4.863599261960019 L2.1334811160499925 4.860303363959986 L2.11736783504999 4.852124652960015 L2.112973304049987 4.835645160959984 L2.1198092410499925 4.82294984795999 L2.13689908504999 4.826123675959991 L2.129412106050026 4.812126279960012 L2.135271481050026 4.8022792749600285 L2.1452812460499757 4.793083311960004 L2.150652340049973 4.781201800959991 L2.148943356050026 4.772656878959992 L2.1462578090499704 4.767041644959988 L2.1457695280500246 4.7608160589600175 L2.150652340049973 4.750440081959994 L2.140642574049977 4.763054014960005 L2.1229016890500105 4.8037848089600175 L2.113298824049977 4.812533180959974 L2.103777340049973 4.815462868960026 L2.0913261680499744 4.828971982960013 L2.082292965049973 4.833040993960026 L2.0737480430499744 4.8313726999600135 L2.06072721004999 4.821240863959986 L2.048845699049977 4.819938779960012 L2.0556816370499718 4.793164691959987 L2.0583671840499704 4.738843402960015 L2.0693535120499718 4.716260394959988 L2.078630856050026 4.709017555959974 L2.090186845050013 4.702507139960005 L2.101580074049977 4.6944098089600175 L2.110206376050016 4.682162087960023 L2.1150078090499704 4.666943988959986 L2.1169609340499704 4.654411436960004 L2.1203789030500246 4.642285785959984 L2.130063147049995 4.628125628959992 L2.1711601530500246 4.593376279960012 L2.176042965049973 4.587516904960012 L2.183285804049987 4.575472633959976 L2.1884941370499718 4.569165667960021 L2.197283199049977 4.565381488959986 L2.206235022049995 4.567578753959992 L2.2141289030500246 4.571566383959976 L2.2194999960499757 4.5728684679600065 L2.240577470050013 4.559155902960015 L2.256121090049973 4.536735654960012 L2.2635266890500105 4.51012432696001 L2.2605156210499757 4.483512998960009 L2.242693356050026 4.5266851999600135 L2.2302421840499704 4.5494309679600065 L2.2160820280500246 4.55927797295999 L2.1892265590499704 4.562573870960023 L2.172706376050016 4.5716070749600135 L2.113298824049977 4.63121807696001 L2.1062187460499757 4.641390602959973 L2.098162106050026 4.6631598089600175 L2.0854667930499744 4.681592425959991 L2.082374345050013 4.688672503959992 L2.0768404910499925 4.693392555959974 L2.062517574049977 4.695833962960023 L2.0525891890500105 4.694287738959986 L2.0207695280500246 4.682162087960023 L2.026547522049995 4.668286761960019 L2.027605465049973 4.65302797295999 L2.035173824049977 4.641187152960015 L2.044613929049987 4.633578102959973 L2.0534029910499925 4.629427712960023 L2.0598320280500246 4.6225917749600285 L2.062517574049977 4.607048154960012 L2.059099606050026 4.5772223089600175 L2.0634941370499718 4.566113910959984 L2.0671562460499757 4.55113995196001 L2.076514970050013 4.541292946960027 L2.0876640590499704 4.5366542749600285 L2.097022783050008 4.5303473089600175 L2.1028007780500246 4.518343727959973 L2.077003251050016 4.52692933996002 L2.064470699049977 4.544304014960005 L2.048845699049977 4.593376279960012 L2.0398124960499757 4.604525368960026 L2.0129570280500246 4.629346331959994 L2.007179033050008 4.6377691839600175 L2.0096204390500105 4.682975889960005 L2.007179033050008 4.695833962960023 L1.992205074049977 4.707837542960021 L1.9741386680499744 4.701489886960019 L1.9588391890500105 4.684684873960009 L1.9526542930499744 4.6651129339600175 L1.9507011680499744 4.655225238959986 L1.941912106050026 4.632520160959984 L1.9389824180499744 4.620720029960012 L1.9367851530500246 4.546826800959991 L1.9275078090499704 4.505485654960012 L1.9253105430499744 4.480420550959991 L1.9227063760500158 4.470736305959974 L1.9099296840499704 4.4517747179600065 L1.904802731050026 4.441968402960015 L1.9010592410499925 4.428906878959992 L1.8997571580500079 4.418408831959994 L1.9012220010500158 4.407666644959988 L1.904802731050026 4.394157529960012 L1.9245781210499757 4.348462542960021 L2.007179033050008 4.237134417960021 L2.0127128870499718 4.224642555959974 L2.0163749960499757 4.212516904960012 L2.022315751050016 4.20153057696001 L2.034522783050008 4.192171852959973 L2.007179033050008 4.209180316959987 L2.003923824049977 4.212313454959997 L1.971860022049995 4.242708962960023 L1.9580253870499718 4.2588629339600175 L1.9526542930499744 4.274691383959976 L1.9448417930499744 4.2905605249600285 L1.9275078090499704 4.285962542960021 L1.8973157510500158 4.263786436960004 L1.8992688760500158 4.28474183996002 L1.9049654910499925 4.301790993960026 L1.9085462200500132 4.318880837960023 L1.904802731050026 4.340161761960019 L1.8631360640500105 4.414624652960015 L1.875261715049973 4.435864886960019 L1.8857597620499718 4.47138734795999 L1.8973157510500158 4.538770160959984 L1.898699215049973 4.5735601999600135 L1.8957695280500246 4.59052797295999 L1.8873873660499925 4.603345355960016 L1.8706230430499744 4.611768206959994 L1.855974606050026 4.6104254339600175 L1.8405937460499757 4.606397113959986 L1.8216321580500079 4.606397113959986 L1.8216321580500079 4.6138840929600065 L1.8427910120499718 4.622347633959976 L1.8603691370499718 4.632927061960004 L1.8723320280500246 4.648511370960023 L1.8768079390500105 4.671948870960023 L1.875505856050026 4.681511045960008 L1.8703789030500246 4.699496071960027 L1.8706230430499744 4.710075498960009 L1.8746920540499872 4.719271462960023 L1.8882011680499744 4.739087542960021 L1.8962578090499704 4.758130511960019 L1.9060234340499704 4.769401670960008 L1.9116386680499744 4.7823004339600175 L1.904802731050026 4.798210264960005 L1.897641272049995 4.800814430959974 L1.8753430950500132 4.804883441959987 L1.849626949049977 4.826123675959991 L1.844011715049973 4.832837542960021 L1.842058590049973 4.83747621496002 L1.8386406210499757 4.8415859159600245 L1.8291191370499718 4.846631488959986 L1.810808590049973 4.853467425959991 L1.8001477830500079 4.8548101999600135 L1.7955904910499925 4.850049456959994 L1.7903007780500246 4.835645160959984 L1.777849606050026 4.8384934679600065 L1.762875647049995 4.847974261960019 L1.750261715049973 4.853467425959991 L1.733578772049995 4.852328102959973 L1.714861324049977 4.848665993960026 L1.697771481050026 4.842318337960023 L1.6857272100499898 4.833040993960026 L1.6813326790499872 4.8252691839600175 L1.6775891890500105 4.814649066959987 L1.6770195280500246 4.803540667960021 L1.687761715049973 4.786084613959986 L1.6857272100499898 4.776563128959992 L1.6714042930499744 4.757276019959988 L1.6434095010500158 4.812533180959974 L1.654802731050026 4.830925107960013 L1.6741712200500132 4.856030902960015 L1.696469397049995 4.878125628959992 L1.7164889290499872 4.887565732960013 L1.725115231050026 4.8975348089600175 L1.7143730430499744 4.917188128959992 L1.6926445280500246 4.931511045960008 L1.667986324049977 4.925488910959984 L1.6559420540499872 4.91832745196001 L1.644792965049973 4.918042620960023 L1.6198906210499757 4.922396462960023 L1.617205074049977 4.928011696960027 L1.6281914030500246 4.954704404960012 L1.6303886680499744 4.963330706959994 L1.611345699049977 4.981559873960009 L1.590105465049973 4.969027321960027 L1.5615410120499718 4.928581357960013 L1.5633313760500158 4.910921852959973 L1.5517753870499718 4.869580706959994 L1.554705074049977 4.846631488959986 L1.562761715049973 4.8337734159600245 L1.5813164030500246 4.813591123960009 L1.5888847620499718 4.798210264960005 L1.592058590049973 4.781690081959994 L1.587908199049977 4.709261696960027 L1.595720699049977 4.651156227959973 L1.6010917930499744 4.630689105960016 L1.625017574049977 4.5911383249600135 L1.6303886680499744 4.569165667960021 L1.626970699049977 4.547884743960026 L1.6181816370499718 4.526970029960012 L1.6058118450500132 4.508333962960023 L1.592302731050026 4.4934820749600135 L1.5916516890500105 4.4795660589600175 L1.6223320280500246 4.44209047295999 L1.6303886680499744 4.425488910959984 L1.6315279910499925 4.404126605960016 L1.635027340049973 4.38349672295999 L1.6413749960499757 4.36396547295999 L1.650896481050026 4.34638734795999 L1.6399101530500246 4.3541184679600065 L1.6306328090499704 4.36677308996002 L1.6168795540499872 4.394157529960012 L1.6052421840499704 4.405143857960013 L1.601580074049977 4.413892230960016 L1.6106132780500246 4.436963519959988 L1.6047539030500246 4.445630511960019 L1.5854667930499744 4.459302386960019 L1.5735852830500079 4.477124652960015 L1.574724606050026 4.490267555959974 L1.595720699049977 4.5244879339600175 L1.600766272049995 4.5368984159600245 L1.6032076790499872 4.546501279960012 L1.603777340049973 4.569165667960021 L1.6014173140500105 4.5811285589600175 L1.5911634080500079 4.60029359795999 L1.5888847620499718 4.610181292960021 L1.5809095010500158 4.673942686960004 L1.5758639290499872 4.688346982960013 L1.5573092410499925 4.697705706959994 L1.5491712200500132 4.6822434679600065 L1.5478691370499718 4.6377691839600175 L1.5505546840499704 4.627271136960019 L1.5608899700500132 4.606559873960009 L1.5615410120499718 4.593376279960012 L1.5164563760500158 4.494011045960008 L1.5138522100499898 4.473584613959986 L1.5185722620499718 4.428825498960009 L1.5174329390500105 4.40888734795999 L1.5075859340499704 4.3873215929600065 L1.5001803350499898 4.3873215929600065 L1.4918795540499872 4.453402321960027 L1.5001803350499898 4.579785785959984 L1.5075859340499704 4.579785785959984 L1.5084811160499925 4.565707008959976 L1.5132011680499744 4.552808245960023 L1.5185722620499718 4.5455247179600065 L1.5212578090499704 4.54841371496002 L1.522641272049995 4.557080706959994 L1.5261406210499757 4.569287738959986 L1.531267574049977 4.5813726999600135 L1.537371090049973 4.589958311960004 L1.5427421840499704 4.601392230960016 L1.5418470010500158 4.61591859795999 L1.5335462200500132 4.641187152960015 L1.5285820280500246 4.645703753959992 L1.5162936160499925 4.647819639960005 L1.5138522100499898 4.651156227959973 L1.514828772049995 4.658399066959987 L1.5171074180499744 4.663200498960009 L1.5212578090499704 4.668530902960015 L1.5249199180499744 4.679802061960004 L1.537126949049977 4.704297503959992 L1.5444511680499744 4.713208636960019 L1.5462415330500079 4.720085264960005 L1.5369641890500105 4.773267230960016 L1.5267102830500079 4.784863910959984 L1.5135266890500105 4.7940191839600175 L1.5001803350499898 4.805697243960026 L1.4890312460499757 4.823193988959986 L1.4880546840499704 4.837354144959988 L1.4914726530500246 4.853792946960027 L1.4939140590499704 4.8780035589600175 L1.490251949049977 4.90107484795999 L1.4806490850499898 4.919995745960023 L1.4671399700500132 4.935742816959987 L1.430844397049995 4.965039691959987 L1.4196139290499872 4.966016253959992 L1.3940605430499744 4.939079404960012 L1.388689449049977 4.92418682696001 L1.387224606050026 4.898552061960004 L1.3903170540499872 4.853467425959991 L1.395688147049995 4.835238258959976 L1.408708981050026 4.804557920960008 L1.4113945280500246 4.781201800959991 L1.4070813760500158 4.7610601999600135 L1.3884453090499704 4.727328102959973 L1.3840507780500246 4.710075498960009 L1.3766451790499872 4.710075498960009 L1.3703789030500246 4.725374977959973 L1.3732272100499898 4.738233050959991 L1.3796562460499757 4.750765602959973 L1.3840507780500246 4.7647223089600175 L1.3840507780500246 4.780713519959988 L1.3803886680499744 4.789868792960021 L1.363542965049973 4.805697243960026 L1.3532890590499704 4.817741514960005 L1.3470227830500079 4.827751279960012 L1.330583981050026 4.8647792749600285 L1.3257011680499744 4.872998675959991 L1.3206555950500132 4.873324196960027 L1.3151217410499925 4.860303363959986 L1.3083671840499704 4.860303363959986 L1.308855465049973 4.885571917960021 L1.3191093710499757 4.924593727959973 L1.3151217410499925 4.949048480960016 L1.2981132780500246 4.983594378959992 L1.301042965049973 4.99482484795999 L1.3219576790499872 5.00426495196001 L1.3103203090499704 5.016797503959992 L1.2931490850499898 5.0283941839600175 L1.2731295540499872 5.036491514960005 L1.2536796840499704 5.038444639960005 L1.234880856050026 5.028272113959986 L1.2288587200500132 5.009717425959991 L1.232683590049973 4.99177308996002 L1.2430188760500158 4.983838519959988 L1.2451347620499718 4.972974261960019 L1.2141289030500246 4.891146462960023 L1.2126640590499704 4.882682920960008 L1.212094397049995 4.8708827909600245 L1.2077812460499757 4.86677308996002 L1.1985039030500246 4.872347633959976 L1.1889824180499744 4.882194639960005 L1.1848320280500246 4.891065081959994 L1.1789726530500246 4.895540993960026 L1.1657076790499872 4.89216371496002 L1.1438164030500246 4.881421527960015 L1.1334811160499925 4.872876605960016 L1.1290865850499898 4.8665289499600135 L1.1043470010500158 4.784985980960016 L1.1022311160499925 4.768140277960015 L1.1048352830500079 4.747510394959988 L1.115496090049973 4.705599587960023 L1.1159029910499925 4.682162087960023 L1.1086601530500246 4.6612066839600175 L1.086443356050026 4.632886370960023 L1.0818046840499704 4.617302061960004 L1.087908199049977 4.5713629339600175 L1.0848157510500158 4.5525234159600245 L1.085113611050005 4.551907372959988 L1.1025802440500314 4.531546858959942 L1.1006165410500302 4.507362288959982 L1.0951388380500333 4.487570214960002 L1.0867155790500505 4.470827050959954 L1.0430489950500572 4.417703678960024 L1.0335405310499794 4.396774722960018 L1.047958255049977 4.387576318960029 L1.0313701210500739 4.360962955960005 L1.0259440950500078 4.34871564195997 L1.014006840049987 4.295488915960007 L1.013903487050058 4.285722070959949 L1.0165906610500741 4.275438460959961 L1.0251689490499842 4.262260969959996 L1.0269259470500032 4.254406152959959 L1.02279183305005 4.231151758960024 L1.0043950240499697 4.191464258960039 L0.9954033240500024 4.154463932959985 L0.9834660680499923 4.145575586959993 L0.9524085330500469 4.1342584479599935 L0.9747327510499844 4.120409163960048 L0.9808305700499744 4.097413151959998 L0.9764380730500619 4.070489729959988 L0.9667745810500463 4.044909895960032 L0.954423913049979 4.023774234959987 L0.9503414750500809 4.00155336995995 L0.9469308300500501 3.988685937959943 L0.9349935750500293 3.959798811959999 L0.9325647820500507 3.941608707960043 L0.9393860720499987 3.9279919679599544 L0.9506515340499817 3.9153570799600317 L0.9612968790500389 3.9000608569599677 L0.9656376990500206 3.886728336960047 L0.9695651080499914 3.867297997959966 L0.9712187540500707 3.847867659959988 L0.9689449900500193 3.8343801109600264 L0.9575244990500522 3.824277368959983 L0.9295675500500096 3.8159574629600144 L0.9178886760500262 3.8027541339599367 L0.8965979850499792 3.75562522796001 L0.8861593460500075 3.7399931079599895 L0.867194095050067 3.7178239179600467 L0.8632150110500305 3.706584293960006 L0.8638351270500806 3.6870247639599967 L0.8731368850500161 3.658551049960053 L0.8757207070499788 3.6072621909600144 L0.8892082560500825 3.582121606959973 L0.9435201860500086 3.5285331459600258 L0.9702885780500168 3.508043440960037 L0.9791252480500106 3.4985866539599755 L0.9842412150500053 3.4879413089600035 L0.9843962440500462 3.479698917959965 L0.9786601600500688 3.4749705249599714 L0.9513750040500639 3.4758748619600084 L0.9424866570500257 3.4738078049600603 L0.9340633990499754 3.4699579099600015 L0.8640418330500523 3.4475820149600196 L0.8470919630500333 3.4444297529599766 L0.8339661490500561 3.4463417809599974 L0.8253878620500217 3.451638614960032 L0.8186182490500045 3.4574263759599972 L0.8106084020500219 3.460862858960027 L0.8001180870500519 3.460759505960013 L0.7344373410499969 3.441174137959976 L0.7210014690500515 3.43003786595996 L0.7110279170499751 3.41078839596004 L0.7103561240499943 3.389084293960039 L0.7194511750500254 3.3697831459599996 L0.7436874220500016 3.3341005699600004 L0.7923149450500517 3.21511558496006 L0.7945887080500569 3.1935665119600145 L0.7812561890500405 3.183592960960013 L0.7681303750500632 3.193075586959978 L0.7563481480499803 3.209767073960009 L0.7438424520499751 3.2142887619600486 L0.7290629920499754 3.187210311959987 L0.7182109410500033 3.182585269960029 L0.68891040405002 3.164085107959991 L0.6720638880499763 3.1473161049600407 L0.6486544640500114 3.1085329429599966 L0.6336682980500399 3.093598453960041 L0.6257101280499882 3.092048160960033 L0.6059697300500346 3.094063541959983 L0.5958411500500773 3.0900586189599863 L0.5861259800500278 3.080369287960039 L0.5855058630500451 3.0737805419599766 L0.5888131550500333 3.0661841069599944 L0.5907768590500808 3.0536525719600007 L0.5856608920499724 3.04990602996007 L0.5753772820499847 3.0479681639599647 L0.5659721720500528 3.043627343959983 L0.5645252320500589 3.032439396960015 L0.5856092160499742 2.9413855229600046 L0.5841622760499803 2.932109602959983 L0.5769275750500213 2.9169684079599705 L0.5771342810499931 2.9074082689600544 L0.5820952180500143 2.896711246960038 L0.5967713260500176 2.8754980719599956 L0.6019389690500105 2.863870873960039 L0.6020423210500638 2.8547758219599615 L0.5998719110500446 2.8458357989600387 L0.5987867060500633 2.836766585959978 L0.6020423210500638 2.8272322839599866 L0.6180103390499738 2.8154758959599775 L0.6375957070500107 2.814545719960037 L0.6583696330500146 2.816251041960001 L0.6775415890500511 2.8126078529599994 L0.6909257850499984 2.802892683960053 L0.7288562860500036 2.7686828859599615 L0.7385714550500069 2.757236555959949 L0.74156868904997 2.739253157959965 L0.7387781610499786 2.7179883059599916 L0.7327836950499744 2.6988421879599827 L0.726014082050014 2.687111637960001 L0.7382613970500387 2.6677071369600327 L0.7498885940500344 2.6534961189599784 L0.749423506049979 2.644013492959985 L0.7253422890500332 2.6387424969599778 L0.7222417030500168 2.6261334479600436 L0.7034314810500035 2.611173119960071 L0.69852222104997 2.599752628959962 L0.6998141310499904 2.590554223959984 L0.7062220090500517 2.56972862196001 L0.7074105670500757 2.558101424960043 L0.7027080120500813 2.5377409099600214 L0.7025013050500064 2.528103254959987 L0.7081857130499856 2.5158559419599698 L0.7182109410500033 2.507070946959985 L0.7403284540500152 2.499474511960031 L0.7558767590500537 2.492620982959963 L0.756038090050069 2.4925498699599444 L0.7592420280500249 2.4839715829599953 L0.7708175490500793 2.4683136229600535 L0.7742281940499964 2.459141055959961 L0.7719027540500036 2.455420352960047 L0.7693706090500285 2.439013085959985 L0.7674585810499792 2.4348531329600434 L0.7619292030499736 2.395294824960004 L0.738984867050064 2.366976139960016 L0.7062220090500517 2.348501814959988 L0.6845695840499815 2.3441351569600073 L0.6739242390499811 2.367027815960043 L0.658938074049999 2.388266829960017 L0.6368722370499853 2.389507063960039 L0.5875212430499772 2.3741850019599866 L0.5227706740500224 2.371420312960012 L0.49982633805005605 2.36692446296 L0.42572233505005386 2.3129742679599445 L0.1632060580500223 2.1871421549599717 L0.13437060904998077 2.1814060709599943 L0.13235522805000244 2.1744297529599947 L0.12320850005004047 2.159908674959965 L0.1144235070499775 2.1493925209600064 L0.1104444210500759 2.145671817959979 L0.10941089204997922 2.1406592049600164 L0.10941089204997922 2.088517683959978 L0.10625863005002145 2.0825232179600306 L0.09168587604999345 2.068725610959987 L0.08166064804997575 2.0482875819600252 L0.06533089604998565 2.0419572189600075 L0.046210616050004205 2.0367895759600145 L0.05158496505008259 2.00666221596002 L0.05985319305004566 1.9885754639600037 L0.07287565505008331 1.9711863449599747 L0.07762988605007592 1.9274164069599777 L0.08868864305007662 1.9232306159599517 L0.10140104604998612 1.9212152349600018 L0.10842904005004073 1.9119393149599802 L0.10977262804998134 1.8983742519599929 L0.11266650704997971 1.88625612796001 L0.11922941405002518 1.8792798099600105 L0.13220019905007518 1.8812951909599605 L0.14181201504997887 1.863130924960032 L0.1556612990499815 1.850625227960009 L0.16537646904997416 1.837809472959961 L0.16248258804999693 1.8188958989600081 L0.14935677505006595 1.7842468509600025 L0.14475757205001116 1.7756168869600373 L0.13933154605000198 1.7703717289600291 L0.13933154605000198 1.7659792319600314 L0.1889409210499906 1.7412778979600176 L0.20744108505003567 1.7354126229600269 L0.2268714230499853 1.7370921069599916 L0.24320117505003225 1.7472465259600227 L0.25725716505006346 1.7641188809600266 L0.266300541050029 1.7836267339600198 L0.2671790400499816 1.8017909989599588 L0.2792713250500327 1.8024369549600152 L0.3212325880500515 1.8126947269600038 L0.3380274290500296 1.8140899909599995 L0.347174158049981 1.8077079509599656 L0.3653125850500345 1.778252384960055 L0.400090824050082 1.7367820469599877 L0.4122864620500053 1.7136310059600106 L0.41543872505000934 1.687301863959945 L0.4385380890500272 1.660869368959979 L0.4502169630500106 1.6313362879599396 L0.45858854505006263 1.5657330569600134 L0.4559013710500466 1.5093540689600076 L0.46571989304997885 1.4926625819600616 L0.49982633805005605 1.4872882329600117 L0.5162594440500214 1.4912673179599807 L0.5475753620500399 1.5025844569599514 L0.5744471060500445 1.5092507159599649 L0.5790979850499838 1.5112660969600284 L0.5838005400499782 1.5116278319600127 L0.5951176790500625 1.5091473629600358 L0.6021456740499929 1.504909896960001 L0.6145480180500584 1.4922491709600507 L0.6235397170499795 1.4892519369600308 L0.6586796910500397 1.4901304359599834 L0.6890137570500627 1.4955047859600228 L0.7489584180499804 1.5159169759599962 L0.808644697049985 1.5214463539599734 L0.8167578980499997 1.5158136229600387 L0.8269381550500583 1.4942645509600112 L0.8335527380500451 1.487133203960056 L0.8415109090500295 1.485582910959934 L0.8480221390499736 1.487546614960067 L0.8546367230500636 1.4910606119600374 L0.923056319050076 1.5130747719600066 L0.9485844760500157 1.51452171295999 L0.9340633990499754 1.4932310229600176 L0.9523051800500042 1.4896653489599458 L0.955199060049992 1.4797434729600383 L0.9524085330500469 1.466462630960038 L0.9534937370500387 1.4529750819599911 L0.9621753780499915 1.4422263839600618 L0.9997441440499841 1.4171633139599606 L1.0067721390500282 1.4074998209600125 L1.009355961049991 1.3974229169599965 L1.007133874049984 1.3879144539599935 L0.9997441440499841 1.3797495769599806 L0.9509099160500085 1.3819199879599893 L0.927293786050015 1.3789744309599854 L0.9105506220500814 1.3633164719600046 L0.9046078320500186 1.3589239749600353 L0.8836788780500768 1.3576837409599847 L0.8734469440499737 1.3552032719600078 L0.8664189490499865 1.3495705409599879 L0.8427511430500516 1.322750471959992 L0.8384620000500007 1.3120017739599774 L0.8376868520500551 1.3023382819599618 L0.8347929720500673 1.2939666999599666 L0.8240442740500811 1.2867836749600343 L0.8237342160499992 1.280685855959959 L0.8407357620500164 1.2451841469600282 L0.8393404990500102 1.2237901049600026 L0.830245446050057 1.2107159669599667 L0.8175330440500801 1.200432356959979 L0.8053890820499845 1.187203189959959 L0.7967591190500656 1.1804335779600166 L0.766373376049998 1.1696332039600037 L0.7669934930499807 1.187203189959959 L0.7570716190500519 1.1913889809600136 L0.7475631550499742 1.1909755699600026 L0.7385714550500069 1.189580305960007 L0.7306132850500688 1.1907171879600327 L0.7200712930499975 1.1987787119600029 L0.7114930050499737 1.2084938809600345 L0.7025013050500064 1.216503727960017 L0.6907707560500711 1.2195009599599445 L0.66984180004998 1.2150567879600231 L0.6375957070500107 1.19598818396004 L0.6180103390499738 1.1873065429600018 L0.5753772820499847 1.185911279960024 L0.5547067100500698 1.1821905769599965 L0.5448881880500238 1.1730955239600434 L0.5371883990500095 1.1586777999600173 L0.5100065950500579 1.1397642259599792 L0.49982633805005605 1.119817121960054 L0.46220589605006523 1.1025571939600667 L0.44820158305002167 1.0901548509599905 L0.44386076205005054 1.0286082199599917 L0.41740242805006744 1.0016331219600403 L0.3446936890500041 0.9571397139599611 L0.2843356160500292 0.8933709969600301 L0.2518828170499745 0.8781264489600034 L0.2071310260500212 0.8899603519599992 L0.1906462440500576 0.8987453449600054 L0.17085417004999215 0.9066518399599346 L0.15214730205001104 0.9074786629599743 L0.13933154605000198 0.8951279949600206 L0.13245858105004515 0.8761110679599398 L0.12775602604999392 0.8675844569600173 L0.11199471404999883 0.8514097339600397 L0.11199471404999883 0.8424180339599872 L0.11338997804999451 0.8337363939600237 L0.1064653360499932 0.8185435219599952 L0.09881722405002336 0.7742568199599731 L0.10181445704999703 0.7696059409600053 L0.10708545304997585 0.7664536789599623 L0.11245980204999739 0.759167301960062 L0.1309599640500636 0.7024265789600435 L0.1502869500500168 0.6689919269600608 L0.17545337305004693 0.6510602049599896 L0.18232633805000376 0.6319399249600082 L0.18082772205001163 0.6209845219600112 L0.17540169605000244 0.6154034679600073 L0.1692005240500265 0.6118894699599622 L0.16558317405007017 0.6069285319600084 L0.16434294004999117 0.5970583339600211 L0.16578988004998507 0.5918906909600281 L0.1688904660500583 0.5865163409599603 L0.1800525750499986 0.5539085129600068 L0.1882174520500115 0.5419195809599415 L0.22134204504997967 0.5227476239600293 L0.23007536204998758 0.5159780109599836 L0.23637988705000623 0.5086399579599998 L0.2433045290500644 0.5022320809600416 L0.2542082560500347 0.49835634796001216 L0.27472380005001185 0.4943772629600147 L0.33311816805006345 0.4762905109599984 L0.3506881550500651 0.4664719889600377 L0.35895638405007446 0.4515891769599847 L0.3573544150499828 0.41515729195999995 L0.361023441050051 0.4005845379600288 L0.3761129600500652 0.3814125809600313 L0.3912024780499763 0.3689585619600422 L0.4382280310500022 0.3421901689599878 L0.4456177610500589 0.3336635579599516 L0.45042366905003917 0.3244651529599736 L0.45610807705007517 0.3201760089599901 L0.4664433630500042 0.32627382795995175 L0.4730579460499911 0.32896100295998565 L0.4824113800500385 0.329374414959986 L0.4923332560500029 0.328340885960003 L0.49982633805005605 0.32658388696002305 L0.5220472050499865 0.32968447296006786 L0.5198767940500346 0.30431134495997014 L0.49982633805005605 0.25036114996002823 L0.48556364304998567 0.2285020179599968 L0.45900195605007355 0.21723655696003163 L0.4013310590499799 0.2070562989600404 L0.37797331105007004 0.19780621796003572 L0.370945316050026 0.19837465895999173 L0.3674313180500093 0.2051959469599609 L0.36464079105000735 0.22824363595999841 L0.36004158904999883 0.2341864259600328 L0.3469674510500198 0.230620751959961 L0.3395260450500217 0.2173399089600565 L0.33828581104999955 0.20085512795996863 L0.3437635130500638 0.18747093096003198 L0.35678597404999834 0.16773053396006787 L0.3772498410499878 0.1037034339599785 L0.3846912470499859 0.08928570995995244 L0.3969385610500211 0.07078554696003891 L0.4097026410499751 0.05884829096000033 L0.4187976920500631 0.06437766995999539 L0.42034798504998605 0.08282615596000653 L0.4194178100500352 0.1040134929600498 L0.422311690050023 0.12370221396001568 L0.4354375040500571 0.1372931159599915 L0.47088753605002864 0.1468532549599928 L0.4868038770500078 0.1535711919600118 L0.49982633805005605 0.16742047495999657 L0.5123320350500506 0.1766188799599746 L0.52308073304998 0.18752260795996278 L0.5312456090500035 0.19475730896000698 L0.5512443880500513 0.20700462195993907 L0.5741887240500745 0.21573793996002166 L0.5824052770500288 0.21666811595996194 L0.6035926140499868 0.2163580569599759 L0.6155815460499952 0.22116396495998458 L0.6222994830500141 0.23093081095994705 L0.6279838910499933 0.24219627296001534 L0.635942061050045 0.2515497069600343 L0.6467941120500171 0.2578542319599677 L0.6574394570500743 0.2622984049599637 L0.6806938510500089 0.26725934296000275 L0.6763530310500272 0.27532086596001193 L0.6742859740499938 0.28400250695996476 L0.6766630900500417 0.29087547196003527 L0.6854997600500354 0.2935109699599394 L0.6929411660500335 0.2966632329600003 L0.6918559610500523 0.31423321995997355 L0.6977987510500583 0.32167462596000007 L0.7206914100499802 0.3321132659600181 L0.7341272830500287 0.3417767579600621 L0.7366594270500144 0.3541274259600158 L0.7274093460500097 0.37273094096006787 L0.7145419150499919 0.38254946296002856 L0.6776966180499784 0.39929262695999057 L0.6702552120499803 0.40637229896002225 L0.6878251990500388 0.41794781895997346 L0.7723678420500022 0.3898875159600408 L0.8084379920500027 0.4024448889600336 L0.8164478390499852 0.4177927899600178 L0.8229073930500448 0.4347426599600084 L0.8324158560500194 0.4489536789599953 L0.8492623730499957 0.4558266439599521 L0.8650753620500353 0.45034894295996253 L0.8800615280500637 0.41727602595996416 L0.9002153350500492 0.40502871196004264 L0.9271387570499741 0.4094728839600492 L0.971270430050069 0.4494704429600205 L0.9997441440499841 0.4580487309600443 L1.043875817050079 0.4479201499600123 L1.0641329790499725 0.43520774796003536 L1.0587586300500078 0.41660423195999385 L1.047958255049977 0.4135553229599651 L1.03602100005007 0.413193586959963 L1.0287862990499974 0.40668235695999044 L1.0324036500500569 0.38523663796006247 L1.0230502160500095 0.39086936895999713 L1.0141101930500298 0.39298810295998976 L1.0061520220500455 0.3905593109600005 L0.9997441440499841 0.38244610996001427 L0.9904423860499918 0.3539207199599588 L0.9656376990500206 0.3422935229599915 L0.9368539260500341 0.3334568529599977 L0.916286706050002 0.3136131019600015 L0.9156665890500761 0.2966115569600021 L0.9238831420499736 0.2779046879600031 L0.9363888380499787 0.2611615239600411 L0.9489978880500161 0.2502577969599855 L0.965430993049992 0.24297141995999993 L0.9745777210500677 0.2454518879599874 L0.9837244510500653 0.2538234699600679 L0.9997441440499841 0.2645204919599706 L1.0109579300500258 0.2696881349599636 L1.026202478050081 0.2852427409599869 L1.0352975290500552 0.29221905895998646 L1.046201257050015 0.2961464689599751 L1.068163741049986 0.30131411195996805 L1.077052087049978 0.30777366596002764 L1.0817029660499742 0.3197625979599792 L1.078499027049972 0.3284442389600457 L1.0796359090499976 0.3353688809600186 L1.0962757200500022 0.3417767579600621 L1.1201502320500225 0.3478745769600238 L1.1273332560500506 0.35505760196006975 L1.1279533730500333 0.36870017995998694 L1.1192200560500822 0.37288597096001297 L1.10475065505004 0.3667881519600513 L1.093278486050039 0.36813173896003093 L1.0938469270500804 0.3950034829600071 L1.1003064810500263 0.4113332359599582 L1.1203052610500635 0.44135724296002365 L1.1277983440499924 0.45722190796003304 L1.1361182490500568 0.5178900389600045 L1.1436113320499857 0.5357700849599638 L1.1560136750500618 0.5486375169600564 L1.222262861050055 0.5746824389600391 L1.2370423220499873 0.5834157549600008 L1.2474809600500265 0.5958180999599989 L1.2536821320500025 0.6151967609599609 L1.2620537140500545 0.6242918139600278 L1.2974003950500759 0.6389162439599971 L1.3213265820499913 0.6642376949599651 L1.3395683630500201 0.6756065109599803 L1.3597221710499952 0.683823062960002 L1.3758968950499906 0.6855283859600405 L1.3921749710500393 0.6769500979600167 L1.4041639030499908 0.6670798989600399 L1.4158427770499742 0.666924869959999 L1.4310356490499743 0.6873370609599618 L1.4356865270500379 0.6891974129600413 L1.4405441110500732 0.6897658539599973 L1.4456084020500128 0.6891974129600413 L1.4507760450500626 0.6874404139599761 L1.4508277210500609 0.6873370609599618 L1.5050362990499906 0.6831512699600211 L1.5100489140500457 0.6836680349600357 L1.5150615270500083 0.685063297960042 L1.519764083049992 0.6873370609599618 L1.5338717490500215 0.7097646329600451 L1.5426050660499726 0.7203066239600133 L1.5528369990499726 0.7252675629600418 L1.5661178430499803 0.7226837399600612 L1.5735075720499907 0.7135370119599855 L1.5762464230500512 0.7008762859600353 L1.5751095410500255 0.6873370609599618 L1.5835844760500066 0.6601552579600565 L1.6273027380500338 0.6271340179599889 L1.6357776730500149 0.6101841479599983 L1.6282845910500754 0.5977301269600019 L1.6152104530500395 0.5973683919600177 L1.60136116904998 0.5997455079599519 L1.591439294050062 0.5953013349600411 L1.5913359410500192 0.5834157549600008 L1.602291345050034 0.5751475269599808 L1.616967452049991 0.5684295899599618 L1.628646325049985 0.5616599779599909 L1.6101978390499738 0.5594895669600106 L1.593816410049996 0.5523065439600572 L1.5872018270500092 0.5398008459599595 L1.5978471720500096 0.5216624189599344 L1.6043584020500674 0.5162880699599697 L1.611179691050026 0.5131874839600385 L1.618414392049985 0.5126707199599849 L1.6388265820500436 0.5182000979599906 L1.6397050820499857 0.5132908369599676 L1.632883793050027 0.5017153159600269 L1.630816735050061 0.47138125095996486 L1.6377413770500624 0.46300966895999807 L1.6593421260500207 0.45655011496005216 L1.6774288780500086 0.45970237696000993 L1.682803226049984 0.4745335129600363 L1.6822496320500449 0.4952178149600144 L1.6816663450500045 0.5170115399599666 L1.6802194050500106 0.5210939779599784 L1.6825965210500584 0.5231610359600296 L1.6947921580500491 0.5282770019600349 L1.7021302120500508 0.5292588549599913 L1.7220773150499866 0.5276052089599688 L1.7309656610499786 0.5282253259600083 L1.7429029170500456 0.5368552899599734 L1.7487423540500089 0.5517381029600159 L1.7531865270500333 0.5682228849599795 L1.7611446970499713 0.581813786960069 L1.7742705110500623 0.598505273960015 L1.7755624230500047 0.6108559409599792 L1.773133630050026 0.6233616379599738 L1.7746322470500644 0.640828271960018 L1.780264978050056 0.6499750009599978 L1.8008321980499744 0.6741595709599864 L1.8083769560500258 0.6872853849599352 L1.8138546590500795 0.6944167329599651 L1.8199524780500695 0.6964321129600108 L1.8264637080500137 0.6937449379600054 L1.8332849970499723 0.6872853849599352 L1.8335950550500542 0.6872853849599352 L1.8337500850500277 0.6871820319600062 L1.8354554070499915 0.6863552089599949 L1.837109053050014 0.6860451499600089 L1.838555993050008 0.6862518559599522 L1.8396928740500442 0.6872853849599352 L1.8530770710499809 0.7029950199599995 L1.8500281610500195 0.7166892739600286 L1.8359721710499883 0.727179589959988 L1.816438480049996 0.7332774089600349 L1.8351453490500802 0.7436126949600492 L1.850854984049974 0.7449046069599916 L1.8588131540500257 0.7506406899599511 L1.8544723350500334 0.774411848960014 L1.8113741900500457 0.8432448569599984 L1.807550134050004 0.8679461909600121 L1.8259469440500737 0.957708153960013 L1.8486328970500239 1.008299381959958 L1.8588131540500257 1.0476251469600442 L1.8495113970500796 1.1179050949600224 L1.8476510450499717 1.1932493329600078 L1.8329889640499886 1.2428851859600485 L1.8251201210500625 1.2695237469599334 L1.8236550590499832 1.2794994889600417 L1.819435714050016 1.3082293949599517 L1.8229497110499864 1.342335839960029 L1.8317863800499907 1.3778892249600716 L1.843465254050031 1.3974229169599965 L1.8590198600500543 1.3999550619599717 L1.8946249220500562 1.3868292479599944 L1.9325554240500509 1.3854856609600432 L2.15450570105007 1.4708034509600196 L2.311343672049972 1.5023260749599814 L2.38906502705008 1.5324017579599598 L2.4242050010500265 1.5333836109600298 L2.525800866050062 1.5135915369600497 L2.6077596880499954 1.5203611489599922 L2.64786059905002 1.5109560389600318 L2.662019942050037 1.511317773960016 L2.6733887570500627 1.5145733889600166 L2.6949895050500317 1.5236167649600674 L2.732093184050072 1.529404524960043 L2.7407748240500354 1.5288360839600017 L2.7464592320500145 1.525787174959973 L2.7571045780500043 1.5155035649599853 L2.7623755730499937 1.5129714189599923 L2.7783952670500724 1.5148317709599866 L2.791314375050078 1.5218597659600022 L2.8038200720500726 1.530438053960026 L2.8183928260500437 1.5370009609600146 L2.846401452050017 1.5401015459599563 L2.9592424100500097 1.5260324399600194 L2.9678410690500385 1.5249603519599333 L2.999570398050068 1.5145733889600166 L3.1597673380500026 1.4911639649599664 L3.2152678260500664 1.4929209639600316 L3.2275668170500325 1.4910606119600374 L3.24937427105003 1.4807770019600213 L3.260122969050073 1.4804669439599678 L3.308388757049997 1.503411279959991 L3.4562867070500687 1.5444423669600411 L3.4954574420499824 1.5484731279600368 L3.5051726110500425 1.547129540959972 L3.525326420050007 1.5412384279600673 L3.53607511805005 1.5398948409600024 L3.5478573450500193 1.5372076659599685 L3.564600508050077 1.52475364595999 L3.573178796050044 1.5212913249599609 L3.590542077050017 1.5224282069600434 L3.597880131050019 1.5301279959600294 L3.6045980670500484 1.5414968099600372 L3.6206177610500134 1.5534857429599782 L3.6375676310500324 1.557258121960004 L3.663095788049972 1.5583433269600135 L3.6864535350500063 1.5551910649600558 L3.6966854690499957 1.545889306960035 L3.7018531120499887 1.5297662599600272 L3.7133252810499897 1.529404524960043 L3.726244388050006 1.5352439619600347 L3.735132735050044 1.5377244299599937 L3.7421607300500312 1.5325567869600007 L3.7481551960499786 1.5204645019600065 L3.7545630730499937 1.5149351239600009 L3.7697559450500506 1.5130230959600084 L3.818125085049971 1.5170538579599935 L3.9249919470500316 1.5048065439599583 L3.980699141050067 1.5126096849599975 L3.9995093620499773 1.507028629960061 L4.02617440105 1.4994321939600042 L4.058420495050072 1.5007241049599571 L4.0904598840499915 1.507855452959987 L4.117331628050053 1.5176739749600614 L4.124876387050037 1.523306705959996 L4.134798262050012 1.5375177249600398 L4.140586023049977 1.5429437499600311 L4.148544193049972 1.545424218960008 L4.163013594050071 1.5459926599600493 L4.169938236050072 1.5506952159600331 L4.175415938050023 1.5526589189599775 L4.189161869049983 1.5488348639600105 L4.197120040050024 1.55043683295996 L4.203631270050025 1.5557078289599957 L4.218514083050067 1.5732261389600382 L4.232466719050066 1.5842848969600567 L4.2445590040500605 1.592010522959967 L4.258098230050038 1.5974365479600152 L4.275978275050065 1.6015965009599569 L4.327964766049988 1.6081077319600325 L4.336543054050011 1.6137921389599654 L4.3525627480499764 1.6343851969599683 L4.380674727049993 1.6453922769600666 L4.405479415050067 1.6589573409600433 L4.409358059050007 1.6776190619600158 L4.41129694804998 1.686947841959963 L4.411347375049999 1.6871904679600647 L4.4113705280499715 1.687301863959945 L4.419121993049984 1.6891622159599677 L4.436281030049983 1.694865070960006 L4.43656052405008 1.6949579619600712 L4.436691980050043 1.6950016519600268 L4.436881345050082 1.6980314809599832 L4.436898686050014 1.6983089439600434 L4.468867297049982 1.719965100959982 L4.468938073050012 1.7200130459600445 L4.478189794050067 1.7241612349599649 L4.478446537049976 1.7242763509599826 L4.4822491520500165 1.7288346129600285 L4.4824772990499895 1.7291080969600188 L4.4744495100500075 1.7357561109600255 L4.474209070050037 1.735955224959966 L4.498693357050044 1.7456769269600017 L4.498807051050036 1.7457220699600242 L4.5082121620500715 1.754171167960024 L4.5156881720500195 1.7699680799600088 L4.515756921049999 1.7701133469599455 L4.518960860050001 1.7875283049599915 L4.515963626049981 1.798664575960018 L4.502114343050025 1.8184824879599972 L4.466457604050035 1.8269832609600059 L4.405169356049996 1.845690128959987 L4.395350833050017 1.8444757329600492 L4.388012780050005 1.8413751469600044 L4.387928433050078 1.8412722839600377 L4.383775313050066 1.8362075039600114 L4.383741601050005 1.8359639319600234 L4.382741784050083 1.828740258959968 L4.382567076049995 1.8286433989600397 L4.314838953050057 1.7910939779599602 L4.314665524049971 1.7910410119600186 L4.276598392050047 1.7794151039599768 L4.247452885050038 1.7910164639599344 L4.24207853504997 1.80781130395998 L4.246180082049975 1.8253454149600117 L4.246212650050083 1.8254846439599959 L4.2593488850500165 1.8574015879599841 L4.259441817049989 1.8576273839600361 L4.261302168049994 1.8738021079600315 L4.260888757049983 1.889356713960055 L4.258201583050024 1.9048596439599663 L4.207351973050024 2.035135929960049 L4.197843510050049 2.073996605960005 L4.193295984049982 2.1080772139599873 L4.1880249870500705 2.1231925699599827 L4.177586348050042 2.1378428389600543 L4.174400886050009 2.1402093439600236 L4.163013594050071 2.148669051959999 L4.147614017049975 2.157014794959977 L4.135315027050055 2.168099389959977 L4.1303540890499875 2.1871421549599717 L4.135625085050023 2.2480945069600153 L4.132007735050067 2.2764131919600032 L4.11268074905 2.3007527909600327 L4.08715259205006 2.3113722979600055 L4.057800378049976 2.3135427079599964 L3.9743946160500485 2.3070056399600247 L3.9732577350500122 2.318865380960048 L3.995788659050035 2.352713444959946 L3.996615483049979 2.3663301839599598 L3.977495202050065 2.3594055429600616 L3.955377689050053 2.345427066959971 L3.9462826370499755 2.3378823079600153 L3.9242684770500063 2.344341862959979 L3.9208578330500785 2.3622735839600324 L3.9312964720499934 2.402038598960033 L3.930366296050053 2.421753157959998 L3.908765547049981 2.506838402960014 L3.9015308470500116 2.524356713959989 L3.888921797050031 2.531798120960005 L3.8686646360500134 2.527069726960022 L3.8381755410500062 2.4992678059600593 L3.835798425050072 2.4903536219600397 L3.8341447790500496 2.4678485349600265 L3.8314576050499767 2.4612597909600282 L3.8210189650500723 2.4607947029600012 L3.7573536000500525 2.4481081389599666 L3.747431726050067 2.461414819959984 L3.750222253050012 2.480328393960022 L3.7564234240499985 2.5007147469599573 L3.7570435420499706 2.5180780279599873 L3.745571375050062 2.5334000899600397 L3.72810474005 2.5394462329599747 L3.7085710490500077 2.5369140869599818 L3.6905876500500057 2.5264754479600384 L3.681595951049971 2.5110241939599547 L3.6639226110499834 2.4706907389599877 L3.6534839720500116 2.467073388960003 L3.648936445050012 2.4789331299600263 L3.6381877470500825 2.54228843596006 L3.6304362830500594 2.5635274499600342 L3.6209278190499816 2.5774025719600075 L3.606251713050014 2.5862909179599995 L3.583100671050019 2.5927246349600495 L3.5419662310500115 2.5971946459599877 L3.5048625530500743 2.5943782799599973 L3.4290015500500175 2.579262923960002 L3.387453699050056 2.5825443769600014 L3.3752580600500295 2.6081500489600415 L3.373707767049993 2.6463389319599315 L3.3634758340500497 2.6871633139600277 L3.3514869020499845 2.6945272059600285 L3.3406348510500123 2.692925235959976 L3.3328536010500756 2.6898912629599607 L3.329369388049983 2.688532739959996 L3.3160368690500235 2.6875767249600386 L3.2985702350500077 2.694165470960016 L3.2853410680499877 2.7051208739599844 L3.2747990760499732 2.7183500409600043 L3.2406926310500666 2.774005558960013 L3.2363518100499817 2.7879323569599848 L3.23717863305005 2.801652449960031 L3.248444095049976 2.82490684496004 L3.2525782100500322 2.83741254095996 L3.2496843300500444 2.8562485999599545 L3.229633874050066 2.910818912959982 L3.2194019400500764 2.927226179959959 L3.201005131049996 2.935856143959981 L3.181988203050011 2.9374064369600177 L3.1661752150500178 2.942496565959985 L3.1567701040499827 2.961746036960008 L3.161007572050025 2.983501814960036 L3.1768205610500075 2.9913824709599766 L3.1933570190500262 2.9970152019599965 L3.199661544050045 3.0120788819599937 L3.1908765500500493 3.028305281960016 L3.1767172080500785 3.027297590960032 L3.1641081580499844 3.028822046959945 L3.160697513050067 3.052877425959977 L3.1652450390500775 3.0702923829600053 L3.194287194049977 3.120418521960019 L3.20193530705005 3.1381177009599384 L3.2103068890500452 3.17082888196002 L3.2195052930500054 3.187210311959987 L3.227773523050061 3.1944708499599557 L3.24524015705002 3.2044960779599734 L3.251751387050078 3.2136169679599647 L3.254128503050012 3.2212134039600215 L3.258882735049994 3.2461214439599786 L3.2723186070499963 3.2886253089599364 L3.2825505410500426 3.3087532799600154 L3.2953662960500054 3.317796654959963 L3.308388757049997 3.320948917960024 L3.311696049049985 3.326840030960014 L3.307355228050014 3.334746524959982 L3.2973300010499855 3.343893253960047 L3.2901986530500125 3.353039982960027 L3.2919556510500314 3.3608431239600662 L3.2973300010499855 3.368904646960047 L3.3016708200500346 3.3791365809600364 L3.3249252160500617 3.5400828289600526 L3.337947676050007 3.5813464599599882 L3.3618221880499704 3.611318790960027 L3.395308516050008 3.619612857960064 L3.399029219050007 3.5866691329600116 L3.380322351050026 3.5027466069600024 L3.3801156450500542 3.458253198960037 L3.385386641049976 3.434869612960071 L3.39654875005003 3.4205035649599864 L3.418769616049971 3.419728418959963 L3.4379932490499954 3.433758569959977 L3.4525660040500696 3.452878848959969 L3.4609375850500186 3.4675291179600407 L3.460627526050061 3.466676456960002 L3.464038171049978 3.459751815959933 L3.46434822905006 3.4588733149600017 L3.4708594600499936 3.46685732496006 L3.471169519050008 3.4736010989600032 L3.469825932050057 3.479363020960065 L3.4708594600499936 3.484504826959963 L3.48563892005005 3.4979665369600212 L3.4880160360499843 3.4982765959600073 L3.4948373250500566 3.5291015869599818 L3.4994882030500065 3.5393076829599437 L3.522535893050062 3.6124298339600074 L3.527703536050055 3.637983829959964 L3.53049406305 3.641213606959937 L3.5400025260500314 3.643590722959985 L3.542586348049994 3.647311425959984 L3.5438265820500163 3.6767669929599975 L3.5480640500500016 3.687179793960027 L3.560983158050007 3.7005381519600604 L3.574212324049981 3.705163191960011 L3.5875448440500435 3.707411116959932 L3.601187423050007 3.7135864499600046 L3.607491947050036 3.724593530960007 L3.6073885940499935 3.7344895669599936 L3.6104891800500667 3.7379260499600235 L3.6268189330499894 3.729425276960015 L3.6327100460500077 3.722061384960014 L3.6364307490500067 3.712552921960011 L3.6410816280500597 3.70433636896 L3.6501766800500235 3.7008482099599433 L3.6572046750500675 3.7020884449599833 L3.6643360220499943 3.704388044959998 L3.6713640170499815 3.7058091479599824 L3.6784953650500114 3.70433636896 L3.6920345900499996 3.6997630049600474 L3.719113041050079 3.6942594649599556 L3.731412032049988 3.6870247639599967 L3.738853438050043 3.6792732999599735 L3.7556999550500194 3.6650622799600256 L3.7627279500500066 3.6577242269600134 L3.779471114050054 3.6341597739600076 L3.780711348050019 3.6302323649600368 L3.779987878049994 3.6255556479599846 L3.7804012890500047 3.620853091960001 L3.785362227050072 3.616899844960031 L3.788669518050071 3.6167448169599794 L3.798177982049978 3.617494124960004 L3.800658451050012 3.6171323889600018 L3.8157479690500367 3.602017032959978 L3.8199854360499756 3.592896142960015 L3.816368086050076 3.5812431079600486 L3.8034489780500707 3.550624821960028 L3.788359460049989 3.4817659749600267 L3.7735800010499787 3.4499849689599813 L3.768102298049982 3.4100649249600252 L3.787015873050038 3.3608431239600662 L3.8160580280499943 3.3140501149600397 L3.842102950049977 3.281468123959982 L3.858225997049985 3.2684973389599605 L3.913519779050077 3.2464573399599743 L3.929539473050042 3.2357603189599757 L3.9425619340499765 3.2224536379599584 L3.9651962120500315 3.187210311959987 L3.966746504050022 3.147962060960012 L3.940391524050014 3.0322326909599866 L3.9388412310499774 2.9940696449599926 L3.940908288050011 2.972520572959965 L3.9471094600500436 2.959420597960005 L3.961062097050032 2.9588521569600204 L3.9735677940500267 2.9726239259599794 L3.986073490050032 2.9912532799600484 L4.027931401049997 3.0349715409600293 L4.043434330049976 3.04233543296003 L4.06679207705001 3.0368318929600235 L4.0840520050499975 3.0229050949599383 L4.116608158049971 2.981047183960058 L4.132834558050078 2.96414899095997 L4.175209232049994 2.9507389569599383 L4.195052982050001 2.9787475839600432 L4.205181563050061 3.017013980959959 L4.218720788049993 3.0342480719600218 L4.233810306050017 3.0207863609600594 L4.246522709049984 2.9746134689600154 L4.263162520049988 2.9655442549599655 L4.283729740050077 2.9759053799599684 L4.284157629050057 2.9797517259599857 L4.2861068560500115 2.9972735849599843 L4.274427982049971 3.0397774499600274 L4.27721850905003 3.073082909960064 L4.315459069049993 3.187106957959955 L4.321246830050072 3.235811995959992 L4.325897709050011 3.2505914559599915 L4.33116870504999 3.258523787959959 L4.344191166049981 3.2702284999600266 L4.349772221050031 3.2788843029599803 L4.351322514050068 3.2863773849600335 L4.349772221050031 3.3002266689599793 L4.3511158080499825 3.3071254729600668 L4.356076745050061 3.313740054960064 L4.369305912050024 3.32327435795996 L4.373026615050023 3.3282869719600257 L4.373956791050077 3.3374336999599876 L4.3711662630500285 3.3570965829600397 L4.371476322050043 3.366966780960027 L4.376643965050036 3.3835549159600333 L4.381294844049975 3.393270084960065 L4.381914961050072 3.4034503419600384 L4.375093673049989 3.421407902960013 L4.357110274050044 3.456134464959959 L4.352976159049987 3.4711981449600415 L4.352045983050047 3.510963159960042 L4.377470789050037 3.6524790699599947 L4.376643965050036 3.722061384960014 L4.384292077050006 3.7557802579599837 L4.403102299050019 3.7819543699599905 L4.436278568050042 3.7944600669600703 L4.450747969049971 3.8113324219599605 L4.459429610050037 3.889105451959992 L4.466457604050035 3.919465356960032 L4.478136478050018 3.934425683960015 L4.505111576050055 3.9562331389600303 L4.515963626049981 3.9713226569600266 L4.520304447050066 3.9867739099600357 L4.527332442050053 4.063771793959958 L4.52526538405003 4.121856103960042 L4.528986088050019 4.138599267959975 L4.541801843049981 4.169811832960065 L4.543352136050018 4.187020084960025 L4.601436446049988 4.513718489959999 L4.599989506049994 4.539091617960011 L4.588620691050025 4.544052555959965 L4.573737878049982 4.543897525959991 L4.5617489450500415 4.553767724959997 L4.584383223049983 4.621050438960069 L4.597509037050017 4.68698956695998 L4.5995760940499935 4.695826236959974 L4.600299564050076 4.704817935960037 Z M3.9599785120499718 4.922396462960023 L3.963152340049973 4.967562477959973 L3.9992851530500246 5.033643206959994 L4.008318356050026 5.073193988959986 L4.006121090049973 5.094312152960015 L3.9968437460499757 5.13630433996002 L3.994646481050026 5.1588059679600065 L3.985531897049995 5.176221331959994 L3.9636406210499757 5.177035133959976 L3.9384941370499718 5.1729254339600175 L3.9189628870499718 5.175610980960016 L3.9189628870499718 5.1809820749600135 L3.9236015590499704 5.1885504339600175 L3.924089840049973 5.1963629339600175 L3.912126949049977 5.202262998960009 L3.901547522049995 5.201367816959987 L3.892839840049973 5.195630511960019 L3.886980465049973 5.187451800959991 L3.8826673140500105 5.169751605960016 L3.8796562460499757 5.162915667960021 L3.8799003870499718 5.155713519959988 L3.8955253870499718 5.134717425959991 L3.898129554049987 5.124382139960005 L3.898455074049977 5.100537738959986 L3.8933281210499757 5.060173154960012 L3.8723320280500246 4.993604144959988 L3.8779472620499718 4.9565761499600285 L3.8873873660499925 4.936800758959976 L3.896746090049973 4.927564105960016 L3.9077324180499744 4.928499977959973 L3.922380856050026 4.939079404960012 L3.9272636680499744 4.952100238959986 L3.9226249960499757 4.967562477959973 L3.9153007780500246 4.983431618960026 L3.912126949049977 4.997429014960005 L3.927751949049977 4.979525368960026 L3.933936845050013 4.955599587960023 L3.932797522049995 4.930208962960023 L3.9256360640500105 4.908073545960008 L3.94353971004999 4.905550758959976 L3.9599785120499718 4.901237607960013 L3.960304033050008 4.917269508959976 L3.9599785120499718 4.922396462960023 Z M1.1401542930499744 4.901237607960013 L1.1634290330500079 4.9155605249600285 L1.169125647049995 4.943067035959984 L1.1569186160499925 4.960767230960016 L1.1267265590499704 4.945630511960019 L1.0759453090499704 4.889193337960023 L1.0758639290499872 4.885287087960023 L1.0822115850499898 4.879102191959987 L1.0886406210499757 4.860303363959986 L1.0882337200500132 4.840934873960009 L1.078142574049977 4.807650368960026 L1.0755384080500079 4.7920660589600175 L1.0691093710499757 4.774610003959992 L1.0700859340499704 4.765332660959984 L1.0818046840499704 4.7647223089600175 L1.085955074049977 4.767448545960008 L1.0893730430499744 4.77216859795999 L1.092058590049973 4.77802797295999 L1.095964840049973 4.7920660589600175 L1.105730465049973 4.859448870960023 L1.117205074049977 4.888989886960019 L1.1401542930499744 4.901237607960013 Z M3.912126949049977 4.816235980960016 L3.9088717410499925 4.832105120960023 L3.894792965049973 4.85778057696001 L3.887224606050026 4.892407855960016 L3.865496090049973 4.946973285959984 L3.8569511680499744 4.9565761499600285 L3.8484062460499757 4.939771136960019 L3.8642753870499718 4.856885394959988 L3.8569511680499744 4.805697243960026 L3.8606132780500246 4.788281878959992 L3.8678561160499925 4.775423805959974 L3.8916191370499718 4.750440081959994 L3.8955253870499718 4.753532529960012 L3.8971529910499925 4.756787738959986 L3.898455074049977 4.7647223089600175 L3.910499345050013 4.802116514960005 L3.912126949049977 4.816235980960016 Z M2.6179374960499757 4.695833962960023 L2.6179374960499757 4.716260394959988 L2.6217623660499925 4.72106182696001 L2.625261715049973 4.727816383959976 L2.63103971004999 4.743604144959988 L2.615251949049977 4.747266253959992 L2.6052421840499704 4.76988995196001 L2.5969414030500246 4.7647223089600175 L2.59002408504999 4.7647223089600175 L2.5815605430499744 4.784863910959984 L2.5652031210499757 4.806470355960016 L2.5456718710499757 4.8209153429600065 L2.5280123660499925 4.819938779960012 L2.5280123660499925 4.812533180959974 L2.535173824049977 4.810986956959994 L2.5478691370499718 4.806714495960023 L2.5559257780500246 4.805697243960026 L2.547380856050026 4.794304014960005 L2.542335283050008 4.789136370960023 L2.534848304049987 4.784538389960005 L2.541358720050013 4.777905902960015 L2.541277340049973 4.77021547295999 L2.5398124960499757 4.761100889960005 L2.5422539030500246 4.750440081959994 L2.5464042930499744 4.743604144959988 L2.550798824049977 4.738802712960023 L2.6179374960499757 4.695833962960023 Z M2.356625647049995 4.743604144959988 L2.3784355430499744 4.705640277960015 L2.395850908050008 4.687614561960004 L2.4187187460499757 4.682162087960023 L2.4150566370499718 4.704134743960026 L2.3899101530500246 4.7436855249600285 L2.3659843710499757 4.822095355960016 L2.356625647049995 4.832878232960013 L2.347348304049987 4.8384934679600065 L2.3430351530500246 4.836133441959987 L2.3430351530500246 4.789583962960023 L2.3469414030500246 4.765698870960023 L2.356625647049995 4.743604144959988 Z M2.4118828090499704 4.63435121496002 L2.4055351530500246 4.659294248960009 L2.377214840049973 4.689404925959991 L2.3703789030500246 4.710075498960009 L2.3640312460499757 4.710075498960009 L2.370297522049995 4.6887945749600135 L2.383074215049973 4.6597011499600285 L2.3982923140500105 4.636833311960004 L2.4118828090499704 4.63435121496002 Z M2.4596529910499925 4.641187152960015 L2.497738929049987 4.678744118960026 L2.510597001050016 4.705599587960023 L2.5007499960499757 4.7373785589600175 L2.4792656210499757 4.7493414499600135 L2.4563164030500246 4.774610003959992 L2.439958981050026 4.7818528429600065 L2.4267753870499718 4.775505186960004 L2.4189628870499718 4.760938128959992 L2.4187187460499757 4.743604144959988 L2.424171220050013 4.729443988959986 L2.430844397049995 4.719027321960027 L2.4362968710499757 4.7063726999600135 L2.438656897049995 4.685254535959984 L2.4362968710499757 4.653679014960005 L2.439958981050026 4.6440761499600285 L2.4528984340499704 4.63435121496002 L2.4596529910499925 4.641187152960015 Z M2.568865231050026 4.620720029960012 L2.562761715049973 4.6138840929600065 L2.519792965049973 4.63740297295999 L2.5143404910499925 4.647412738959986 L2.508074215049973 4.647412738959986 L2.510027340049973 4.624056618960026 L2.516130856050026 4.60224672295999 L2.52752408504999 4.586052061960004 L2.545264970050013 4.579785785959984 L2.5578789030500246 4.572339495960023 L2.584490231050026 4.5447109159600245 L2.5969414030500246 4.544995745960023 L2.605486324049977 4.533521136960019 L2.617205074049977 4.5229823999600285 L2.628923824049977 4.516797503959992 L2.637875647049995 4.518343727959973 L2.6179374960499757 4.579785785959984 L2.6178561160499925 4.5698573999600285 L2.6162285120499718 4.563306292960021 L2.6106132780500246 4.5518316839600175 L2.598975908050008 4.586255511960019 L2.593116533050008 4.624300758959976 L2.58416471004999 4.658643206959994 L2.562761715049973 4.682162087960023 L2.5439628870499718 4.687695941959987 L2.533464840049973 4.682975889960005 L2.5290703090499704 4.671908180959974 L2.5280123660499925 4.658276995960023 L2.53338346004999 4.649243792960021 L2.568865231050026 4.620720029960012 Z M2.966163408050008 4.477368792960021 L2.971534501050016 4.470776995960023 L2.9756035120499718 4.469922503959992 L2.978533199049977 4.474317035959984 L2.9811373660499925 4.483512998960009 L2.9811373660499925 4.537549456959994 L2.9734062460499757 4.560742816959987 L2.9537936160499925 4.5655035589600175 L2.943621090049973 4.550244769959988 L2.944679033050008 4.522331357960013 L2.9519218710499757 4.492139300959991 L2.9599785120499718 4.469922503959992 L2.966163408050008 4.477368792960021 Z M3.000831376050016 4.496615212960023 L3.0014824180499744 4.443189105960016 L3.0073417930499744 4.423210264960005 L3.0213391890500105 4.428906878959992 L3.0222343710499757 4.447298805959974 L3.019223304049987 4.468579730960016 L3.012224606050026 4.48701234795999 L3.000831376050016 4.496615212960023 Z M2.9773124960499757 4.455640277960015 L2.9616061160499925 4.449658831959994 L2.9646171840499704 4.435580055959974 L2.974952470050013 4.418775042960021 L2.9811373660499925 4.404736956959994 L2.984636715049973 4.359408180959974 L2.990577470050013 4.334994118960026 L3.000831376050016 4.31904359795999 L3.008318356050026 4.326489886960019 L3.013933590049973 4.341626605960016 L3.017921220050013 4.36005922295999 L3.0188164030500246 4.380322894959988 L3.014503251050016 4.4009934679600065 L2.9773124960499757 4.455640277960015 Z M3.1732681780500087 4.325335329960012 L3.1808713000499864 4.350313445960012 L3.195818356050026 4.362744769959988 L3.2058281210499757 4.39879620196001 L3.2063164030500246 4.422070941959987 L3.211205686049979 4.454634832959982 L3.1949973630499784 4.485221489959997 L3.1853203090499704 4.500318011960019 L3.1787285120499718 4.512728493960026 L3.165888674049981 4.536190936959997 L3.145132995049991 4.552090909959986 L3.1307949770500016 4.560734397960005 L3.118110342049974 4.563533475960014 L3.106828743050002 4.581009774960023 L3.0877146730500016 4.592544745960026 L3.063005856050026 4.591260394959988 L3.046892574049977 4.587516904960012 L3.035678193049975 4.5803016329600155 L3.0295321390499765 4.565570354960016 L3.058376107050023 4.533612415960022 L3.076677731050026 4.506950498960009 L3.0835136680499744 4.490348936960004 L3.0926949630499934 4.441659516959987 L3.0935405580499804 4.371362660960017 L3.0992216870500187 4.2938024709599745 L3.116678008050016 4.291054005960007 L3.151319817050009 4.307527479960015 L3.1732681780500087 4.325335329960012 Z M2.6440605430499744 4.257642230960016 L2.638038408050008 4.253776670960008 L2.631365231050026 4.2549566839600175 L2.625831376050016 4.253207008959976 L2.623552731050026 4.240267555959974 L2.6259941370499718 4.234082660959984 L2.632016272049995 4.232048154960012 L2.63885221004999 4.233350238959986 L2.6440605430499744 4.237134417960021 L2.657569658050008 4.250765602959973 L2.672136715049973 4.2751796659600245 L2.6831230430499744 4.302848936960004 L2.685564449049977 4.326489886960019 L2.6745781210499757 4.30622621496002 L2.671892574049977 4.2986171659600245 L2.6648124960499757 4.316358050959991 L2.6711601530500246 4.356315732960013 L2.664568356050026 4.3736497179600065 L2.6594414030500246 4.3647792749600285 L2.658464840049973 4.354037087960023 L2.658708981050026 4.3428473089600175 L2.6577324180499744 4.33271547295999 L2.664568356050026 4.33271547295999 L2.658220699049977 4.314771136960019 L2.65057096004999 4.275423805959974 L2.6440605430499744 4.257642230960016 Z M2.671892574049977 4.257642230960016 L2.67791471004999 4.198926410959984 L2.6804374960499757 4.201693337960023 L2.685564449049977 4.202344378959992 L2.689714840049973 4.21324932696001 L2.691423824049977 4.2239508249600135 L2.691749345050013 4.243360003959992 L2.6814954390500105 4.24873109795999 L2.678077470050013 4.251335264960005 L2.671892574049977 4.257642230960016 Z M3.1830396290500147 4.178969223959996 L3.22440899004998 4.167697882959999 L3.23525151005002 4.186870840960012 L3.2254382220499878 4.210196301960025 L3.2046654780499892 4.223153544959985 L3.183954265050019 4.231718050960012 L3.1585843120500243 4.23291189795998 L3.138130684049983 4.220977447960024 L3.1479831740499975 4.193246733959995 L3.1830396290500147 4.178969223959996 Z M3.4919776380499883 4.096082646959985 L3.5807816490500244 4.204182127959996 L3.5880541080500024 4.246771245960019 L3.57960010204998 4.280361053960007 L3.5319402410499805 4.285595709959978 L3.5004731890499983 4.26907504095999 L3.4709382950500043 4.229149844959977 L3.4540793100500053 4.189389396959996 L3.4482074230499933 4.157090347959979 L3.471185611050018 4.1060883149600045 L3.4919776380499883 4.096082646959985 Z M2.814973543050016 4.187059274960006 L2.8590579040500046 4.224096687960014 L2.879445115050018 4.247727157960014 L2.859443033049999 4.342776333959989 L2.8606132780500246 4.504224261960019 L2.8523124960499757 4.52998109795999 L2.799171220050013 4.606478493960026 L2.781755856050026 4.620720029960012 L2.7802910120499718 4.616406878959992 L2.7744316370499718 4.606397113959986 L2.7514824180499744 4.6286952909600245 L2.742205074049977 4.633985003959992 L2.7160820280500246 4.67536683996002 L2.707292965049973 4.67841859795999 L2.6948417930499744 4.684684873960009 L2.682146481050026 4.689526995960023 L2.671892574049977 4.688346982960013 L2.6638359340499704 4.666292946960027 L2.6756360640500105 4.6377691839600175 L2.6943535120499718 4.607455055959974 L2.706235022049995 4.579785785959984 L2.650408199049977 4.655225238959986 L2.634457679049987 4.658276995960023 L2.6279472620499718 4.638379535959984 L2.632179033050008 4.61005922295999 L2.643409501050016 4.581087868960026 L2.6577324180499744 4.55927797295999 L2.64666471004999 4.537305316959987 L2.656267574049977 4.500277321960027 L2.6979342410499925 4.415967425959991 L2.7028984340499704 4.399610003959992 L2.706235022049995 4.380485654960012 L2.7063164030500246 4.321973285959984 L2.7124199180499744 4.304761370960023 L2.7043632780500246 4.275220355960016 L2.7021660120499718 4.255689105960016 L2.706235022049995 4.243360003959992 L2.706235022049995 4.237134417960021 L2.695004554049987 4.2185390409600245 L2.6833671840499704 4.1579921659600245 L2.671892574049977 4.1341070749600135 L2.6557792930499744 4.120801410959984 L2.5993828090499704 4.0835292749600285 L2.583188147049995 4.079460264960005 L2.578386715049973 4.042595029960012 L2.5807467410499925 4.007682920960008 L2.6030449180499744 3.92536683996002 L2.609880856050026 3.914339821960027 L2.6206230430499744 3.907015602959973 L2.637875647049995 3.900708636960019 L2.655453772049995 3.896761696960027 L2.674985022049995 3.8949713319599937 L2.685040473050023 3.924587401960025 L2.695967518049983 3.9599819829600165 L2.7085162760500197 3.988019496960021 L2.725790511050022 4.020493880959975 L2.739928047049986 4.044108737960016 L2.7556926370499895 4.06186501996001 L2.771399582050023 4.085485494959983 L2.7789284090500104 4.133957943960013 L2.7913612400500227 4.164860906959973 L2.814973543050016 4.187059274960006 Z M2.6696745270499918 3.833102948960004 L2.688050616050006 3.8534742649600275 L2.7026542930499744 3.874056618960026 L2.6867851530500246 3.876904925959991 L2.6524732760499745 3.870310100960012 L2.6153766580500104 3.8684733759599794 L2.586199215049973 3.893587868960026 L2.5709811160499925 3.898714821960027 L2.5559797090499927 3.913155548959992 L2.5540982600499973 3.938029229960023 L2.5590331410499942 3.9536170069599734 L2.5454138530500217 3.970626953959993 L2.5353823170499794 3.9596684149599923 L2.522641272049995 3.9485601999600135 L2.521176429049987 3.9392421659600245 L2.517270179049987 3.9291510199599884 L2.5073417930499744 3.922640602959973 L2.480160804049987 3.9149908639599857 L2.488624345050013 3.9035162539599924 L2.4900891890500105 3.8943202909600245 L2.4870781210499757 3.866569639960005 L2.4875664030500246 3.8483404729599897 L2.490496090049973 3.830640277960015 L2.4978203090499704 3.817253232960013 L2.5112480430499744 3.8119635199599884 L2.5455904910499925 3.817741514960005 L2.5620292930499744 3.8156256289599924 L2.568865231050026 3.8017096139599857 L2.5771660120499718 3.8006516709600078 L2.6167167930499744 3.8004889109599844 L2.63103971004999 3.8051275819599937 L2.65118130004997 3.82517637095998 L2.6696745270499918 3.833102948960004 Z M2.691749345050013 3.729362607960013 L2.666033199049977 3.7300950299600117 L2.6577324180499744 3.729362607960013 L2.669125647049995 3.7364019959600228 L2.679054033050008 3.7450689889599857 L2.6867851530500246 3.7545904729599897 L2.691749345050013 3.764193337960023 L2.660662106050026 3.7610601999600135 L2.651547522049995 3.7573573999600285 L2.6440605430499744 3.7498704209600078 L2.6320976530500246 3.7298101999600135 L2.623552731050026 3.723218402960015 L2.6131360640500105 3.7203294049600117 L2.6091484340499704 3.7219976999600135 L2.60564908504999 3.7258632589599756 L2.5969414030500246 3.729362607960013 L2.58611783504999 3.7308274519600104 L2.558936845050013 3.7311529729599897 L2.548520179049987 3.729362607960013 L2.5324882780500246 3.70661683996002 L2.552426429049987 3.6747564889599857 L2.5857109340499704 3.649772764960005 L2.6106132780500246 3.647494118960026 L2.631690751050016 3.664258441959987 L2.6697766890500105 3.707552712960023 L2.691749345050013 3.723218402960015 L2.691749345050013 3.729362607960013 Z M2.534848304049987 3.6133551209600228 L2.541521481050026 3.6230800559599743 L2.5400566370499718 3.63044496496002 L2.524594397049995 3.644360980960016 L2.502214840049973 3.6699957459600228 L2.4939140590499704 3.6747564889599857 L2.4853691370499718 3.633903623960009 L2.480160804049987 3.6195807069599937 L2.5188164030500246 3.619458636960019 L2.5268730430499744 3.617505511960019 L2.534848304049987 3.6133551209600228 Z M2.548520179049987 3.360140602959973 L2.5305351530500246 3.368197243960026 L2.5114921840499704 3.3633551209600228 L2.4931816370499718 3.3507818789599924 L2.4616874960499757 3.320589821960027 L2.4510266890500105 3.3064296659600245 L2.4541191370499718 3.2972337019600104 L2.480160804049987 3.297437152960015 L2.5162936160499925 3.309359352959973 L2.563819658050008 3.3323899519600104 L2.602068356050026 3.358757139960005 L2.6106132780500246 3.3806484159600245 L2.5739921840499704 3.3561529729599897 L2.5539726530500246 3.3488287539599924 L2.548520179049987 3.360140602959973 Z" fill="black" stroke="black" stroke-width="0.5" vector-effect="non-scaling-stroke"/></svg>