<svg xmlns="http://www.w3.org/2000/svg" viewBox="0 0 0.23184082043999865 0.2992431640200195"><path d="M0.22956787121999866 0.18709716851003222 L0.22643473321998897 0.22156168651002517 L0.2007592772200013 0.2474405925100278 L0.18069905622000704 0.2609903975099961 L0.1689396162200154 0.2689249675100278 L0.14761800121998192 0.2901652015100318 L0.1397648112199903 0.29110107451003486 L0.13337646521999602 0.29101969450999476 L0.12719156922001673 0.2920776365099833 L0.12035563122002202 0.29630940751001944 L0.11050862621998192 0.2797892255099974 L0.09203531922001673 0.2694539385100221 L0.06957438122002202 0.26428629551002913 L0.05622802722000131 0.2633504235100155 L0.04833414722001805 0.2628214515100318 L0.03490641322001409 0.2535034185100322 L0.0233504232199806 0.23157145151003178 L0.010410970219979276 0.18709716851003222 L0.0022729492199999868 0.05237223351002385 L0.0042667642199916145 0.03686930350999873 L0.011346842219992936 0.02376708950998463 L0.025547689219976633 0.00952555350999873 L0.043614095219979276 0.0029337565100000518 L0.06200602222001805 0.012699381510000052 L0.07575927722000131 0.03296305350999873 L0.08056071022001277 0.04309488951002649 L0.08751871721999294 0.05782470751000446 L0.10668375622002202 0.09831136051002076 L0.11986735022001938 0.11609293651002517 L0.1384220382200141 0.1299682615099833 L0.16466715521998765 0.14954020151003178 L0.179803874219985 0.15808512351003046 L0.19937581421997663 0.16431070951000137 L0.21784912121999866 0.17261149150999344 L0.22956787121999866 0.18709716851003222 Z" fill="black" stroke="black" stroke-width="0.5" vector-effect="non-scaling-stroke"/></svg>