<svg xmlns="http://www.w3.org/2000/svg" viewBox="0 0 9.744964867500016 5.020070324459965"><path d="M0.5361321332501063 4.688623113730046 L0.5322047242500219 4.675238917730013 L0.51856214525003 4.670122951730036 L0.5026458042499939 4.666350571730021 L0.4902434612500315 4.650718450730068 L0.4970647492500859 4.651131862730068 L0.503886039250034 4.650718450730068 L0.4819752312500043 4.627205673729975 L0.4732935912500409 4.613278875730003 L0.46977959425007043 4.598912826729986 L0.475050589250003 4.571911891729968 L0.4737070022500518 4.562222560730021 L0.4623381872500545 4.554522771730035 L0.4623381872500545 4.547055527730009 L0.47132988625000394 4.546280381729986 L0.47742770525005085 4.54395494173005 L0.4902434612500315 4.534058904730074 L0.4852825232500777 4.5297180847299785 L0.4791847042500308 4.522819281730023 L0.47598076525005695 4.516385565730047 L0.47990817425002774 4.513595037729999 L0.4891065792500342 4.510856186730052 L0.48683281625000063 4.504629177729981 L0.4801148802499995 4.497601182729966 L0.47649752925008215 4.49243353873004 L0.4821819372500329 4.469385849730003 L0.48621269825002855 4.458662990729977 L0.4902434612500315 4.451479966730034 L0.5071933312500505 4.439336004730023 L0.5281739622500368 4.431351995730068 L0.5473975952500609 4.419518092730044 L0.5585597042500865 4.396263698730024 L0.5401628942499883 4.380838283730043 L0.5244532592500377 4.362725693730027 L0.5356153682500633 4.354431626730047 L0.5397494832499774 4.332753362730074 L0.5517384152500426 4.328593410730036 L0.5512216502500848 4.3239942077299816 L0.5504981812501057 4.322805649729986 L0.5487411822500405 4.322753972730055 L0.5448137732500697 4.321772120730003 L0.5513250032500423 4.310454982730022 L0.5520484742500287 4.278079697730021 L0.5585597042500865 4.259682887730008 L0.5774732782500394 4.2319326437299765 L0.5905990922500166 4.219142726730013 L0.6063087272500525 4.211933864730042 L0.5948365602500587 4.19485480373001 L0.5806772172500985 4.157079331730046 L0.5724089882500607 4.144625310730049 L0.5713754592500777 4.133101466730011 L0.567344698250082 4.121551783729984 L0.5551490602500735 4.1163066267299655 L0.54574394925001 4.113722804729974 L0.5397494832499774 4.107392442730031 L0.5346851932501124 4.0992534037300175 L0.5280706092500225 4.091501938730033 L0.5092603882500839 4.084473943730018 L0.46182142325000086 4.085378281729959 L0.4423910842500334 4.08158006373003 L0.4145891642500601 4.047396103730023 L0.41861992525005576 4.043882105729978 L0.4214104532500187 4.031919012730043 L0.41758639725000535 4.024400091730001 L0.40084323325004334 4.034399480730002 L0.39422864925003864 4.029671087730009 L0.38430677425003523 4.024555120730042 L0.3803793662500823 4.020110947730018 L0.3666334342500477 4.030342880730018 L0.35712497125007303 4.029231837730009 L0.3481332722500099 4.023521592730049 L0.33562757625003314 4.020110947730018 L0.3212615272500159 4.023521592730049 L0.3183676472500281 4.021867946729998 L0.3257057002500403 4.012643703729992 L0.3257057002500403 4.006442531730016 L0.3047250692501109 4.005073105730048 L0.2426099972500424 3.9907328967300373 L0.229484184250083 3.9825938587300413 L0.2140846072501006 3.9862887227300234 L0.14215101325004298 3.9743514677300027 L0.11962008825003068 3.965488958729992 L0.12757825925010025 3.947712265730047 L0.12437432025001272 3.9345606147299748 L0.11341891625005474 3.924716253729997 L0.10599327425009619 3.92088659472995 L0.09863945725004442 3.917093979729941 L0.0955388712499996 3.9166288917299994 L0.14194430725009965 3.8585187437300306 L0.16034111725008415 3.8409487577300467 L0.20044202924998444 3.810898910729975 L0.3221917022500804 3.6963839377300474 L0.41035169725003584 3.651606309729999 L0.49892510125008016 3.6201353617300356 L0.6660466842500057 3.5911190457299824 L0.7988551142500739 3.5359802917299987 L0.8386459672499882 3.5061629897299724 L0.8523918982500334 3.463426580729987 L0.8503195312500793 3.4333977747299684 L0.8419532592500047 3.312169663729975 L0.8393694372500988 3.304521551730005 L0.8353386752500853 3.2994830997300255 L0.8319280312500723 3.293488633729993 L0.8309978552501036 3.282765772730073 L0.8337883832500665 3.2748851177300367 L0.8448471392500778 3.2613975697299793 L0.8478443722500799 3.255222234730013 L0.847430961250069 3.2472123877300305 L0.8389560262500879 3.219358790730041 L0.8388526732500452 3.212976751730025 L0.8412297892500931 3.2009619807300567 L0.8395761432500422 3.193288030729974 L0.8281039752500305 3.17848273373005 L0.7978215862499951 3.1549957947300697 L0.7892432982499713 3.1380459247299655 L0.7905868852500362 3.1185380717300575 L0.800198702250043 3.104766302730013 L0.8122909872500372 3.0927256937300456 L0.821282686250072 3.07830796873003 L0.8235564492500771 3.0540717227300433 L0.8130144572500342 3.0420311137300757 L0.7958578812500718 3.034021266730008 L0.7779778352500273 3.0222132017299828 L0.7660922572500795 3.006736109729985 L0.7583407912500775 2.992189194730031 L0.7485222692500031 2.9780556907300024 L0.7305388712501042 2.963560450730057 L0.7128655312500314 2.935086736730028 L0.6728679722500601 2.8405447047300356 L0.6528175172500994 2.808918727730031 L0.6056886112500877 2.750317653730008 L0.5208359082500351 2.5947715927299555 L0.4969613962500432 2.5250084087300024 L0.4946876342500275 2.463616806730016 L0.49458428125009846 2.463616806730016 L0.47029635825001037 2.442429469730058 L0.4597543662500527 2.421862249729969 L0.45055596125004627 2.368687201730012 L0.4403240272500568 2.3435207777299922 L0.42709486025006527 2.3204730897300294 L0.41675957425005095 2.2960301367299962 L0.4155193402500288 2.266729600730031 L0.4500391972501063 2.2720522727300647 L0.5398528362501054 2.304195013730009 L0.5570094112500783 2.307812363729994 L0.572512341250075 2.3070372177299703 L0.6218116572500776 2.2945315207299757 L0.6843401402500717 2.2892605247300253 L0.7017034212500732 2.2817157657299845 L0.7171029982500556 2.2780984147300103 L0.7240276412500464 2.2789252387300394 L0.7420110392500305 2.285178085730024 L0.75048597425004 2.28672837973005 L0.7582374382500348 2.2859532337300266 L0.8346152052500031 2.2599599877300705 L0.8497047242500173 2.2582546657300213 L0.8653110062500389 2.2620787217299494 L0.8947665722500346 2.273292507729991 L0.91119967825 2.275617946730023 L0.9752784542500308 2.275152858729996 L1.0048373742500587 2.2702952737299995 L1.066642387250056 2.2506065527300336 L1.0995085972500647 2.247092555729978 L1.1310312212500264 2.2535521097300375 L1.1590398472500567 2.2736542417300143 L1.1762997762500333 2.302386337730013 L1.1869451212500337 2.31199815473002 L1.2062721072500722 2.314220241730027 L1.2400684932500496 2.3133417417299995 L1.2717978232499831 2.3189744727300194 L1.3077646202500546 2.3191811787300765 L1.34393812225008 2.3083291287300085 L1.4585564492500396 2.2476609967300476 L1.5089926472500395 2.2304010677300425 L1.57286471725007 2.2230113377300427 L1.5967392282500725 2.212159287730003 L1.6004599322500042 2.2117458757299744 L1.6041806352500032 2.212314316730044 L1.6077979862499774 2.2137095807300113 L1.6207170932500787 2.2331915957300055 L1.6354965532500216 2.2418215597299707 L1.653790010250077 2.242596705729966 L1.7185922572500658 2.2363438577300485 L1.7362655962500924 2.2307111267300286 L1.7489779992500303 2.2137095807300113 L1.7490813512500551 2.213606227729997 L1.7491847042500979 2.2135028747299543 L1.749288057250027 2.2134511987300414 L1.7512517622500638 2.1861143657300204 L1.742363415250054 2.1670974387300532 L1.7289275432500801 2.1499925397299933 L1.7170419632500682 2.128391790730035 L1.7123910842500152 2.11314724272998 L1.7141480832500804 2.109788275729983 L1.7204526082500706 2.1094265397299807 L1.729340954250091 2.102811956729994 L1.7480478232500047 2.0958873147299926 L1.74856458725003 2.0920632587300645 L1.7473243522500752 2.085396999730051 L1.7474277052500327 2.077800563729994 L1.751458467250103 2.0714960387299755 L1.7808777872500343 2.0610711757300066 L1.7858749712500526 2.0593004017299563 L1.8321770552500425 2.0562514917300234 L1.8781690792500285 2.060127223729978 L1.957027315250059 2.0781622987299784 L2.0018824582500656 2.0738214777300072 L2.0454973672500216 2.0572333437299903 L2.0864251022500184 2.030309922729998 L2.1029615592500193 2.0094326437300083 L2.1234254272500834 1.9623554137300232 L2.136137829250032 1.949229599730046 L2.1540178752500765 1.9474726017299702 L2.2174765332500215 1.9608051207299866 L2.2996420612500685 1.9581179467299705 L2.323929984250043 1.948867865730051 L2.364030896250057 1.9141929787300285 L2.38924899525 1.9071133077300146 L2.401961397250062 1.9088703057299767 L2.408575980250049 1.9126943627300363 L2.4133818882500577 1.918327093729971 L2.4838685422500077 1.9747577567299857 L2.4753936072500267 1.9785301367300008 L2.45203585925006 1.977393255729993 L2.4315719922500136 1.9842662207300634 L2.429194876250051 1.994188096729971 L2.4532760942500147 2.0017845317300385 L2.458857149250008 2.010362819729977 L2.451622448250049 2.017804225729975 L2.4230970572500894 2.0235919857300644 L2.415655651250063 2.0306199807299663 L2.4232004102500184 2.048500026730011 L2.4459380412500025 2.061264104729986 L2.472913139250039 2.0690672467300146 L2.5614865432499982 2.077697210730065 L2.583397350250067 2.077283799730054 L2.593835990250085 2.0736664497299557 L2.6096489782500782 2.060695664730048 L2.6205010292500504 2.05780178473006 L2.6580181192500447 2.060799016729959 L2.6699036982500672 2.059765488729994 L2.6929513872500195 2.0495852317300205 L2.700909558250004 2.033875596729956 L2.70183973325004 1.988141953730036 L2.7049403192500847 1.9835427517299706 L2.7167225462500824 1.9742409937299499 L2.7190996622500165 1.9697968197300497 L2.7165158412500148 1.9636990007299744 L2.7116582562501037 1.9615802677299996 L2.706180554250011 1.9603917097299757 L2.702149792250026 1.9570844177299875 L2.6955352082501065 1.9460256617299763 L2.6876803912500975 1.9370339617300374 L2.678792044249974 1.9296959087300536 L2.6691802282500703 1.923443059729948 L2.664632703250021 1.922822943729983 L2.65316053425002 1.9250450297299722 L2.6491297732501096 1.9244765887300161 L2.645305717250068 1.9208075627300332 L2.634660372249982 1.903030869730003 L2.631663138250076 1.8932640237300404 L2.625875378250015 1.885047470730001 L2.612232800250098 1.8803965917299479 L2.5972466352500305 1.8827220317299975 L2.537301973250038 1.9011705177300087 L2.4938937702500255 1.9028758397300578 L2.472189668250053 1.8979665797300243 L2.458547090250022 1.885047470730001 L2.4598906782501047 1.8598810487299886 L2.4787008982500254 1.8382802997300018 L2.524589570250072 1.8059308537300183 L2.542469616250031 1.7842267517300172 L2.5461903192500586 1.764951441729977 L2.545466850250051 1.744125840730021 L2.5498076692500433 1.717925888730008 L2.5607630732500013 1.6976687277299902 L2.5760592972500547 1.6856281187300226 L2.637244193250069 1.6644924577299776 L2.656364473250079 1.653071966729982 L2.670317109250078 1.637517360730044 L2.6754847532499753 1.617621934730039 L2.6698003462500424 1.5982949487300004 L2.6449956582500818 1.562793239729956 L2.638277722250052 1.5430011657299758 L2.639414604250078 1.5303921157300522 L2.6437554232500418 1.5204702407300488 L2.6490264202499816 1.5112718367300602 L2.652953829250066 1.5006781677299728 L2.654504121250085 1.4903428817300721 L2.6510934772500434 1.4392865657299865 L2.654194063250003 1.4259023707299718 L2.6648394082500033 1.4169623477300206 L2.686646862250001 1.40564520873005 L2.696465384250075 1.4027513287299769 L2.7032866742500232 1.4026479757300478 L2.708350964250002 1.400735947730027 L2.7127951372500263 1.3923126897300335 L2.7121750202500436 1.384044459729978 L2.70359673225002 1.36409735773006 L2.702149792250026 1.3551573347300234 L2.7125884312500546 1.3363471127300386 L2.732432182250051 1.3244098577299894 L2.7556865762500706 1.3140228947300443 L2.7765638542500426 1.2998118757300006 L2.7829717322500755 1.2895799417300111 L2.7847287312500555 1.2805365667299782 L2.7883460812500402 1.2730434837300209 L2.800128308250038 1.267204046729944 L2.837748750250057 1.2579539657300245 L2.8560422072500273 1.258264023730021 L2.892422416250014 1.2631216087300174 L2.911025931250066 1.2633283147299892 L3.032465548250059 1.249013942729988 L3.06853569725007 1.2370766867299494 L3.083521862250052 1.227516546730044 L3.1002184562500474 1.2127620037299778 L3.11773166025003 1.19728583372995 L3.154525280250027 1.1511387797300188 L3.1592795122500377 1.1426121687299826 L3.1611398632500425 1.130571559730015 L3.160209688250063 1.1057668727300722 L3.162896863250097 1.0943980567300002 L3.194316133250055 1.0659243427299714 L3.2393779822500903 1.0613768177300074 L3.3501722532500082 1.0779132747300082 L3.358647188250103 1.0778099227299833 L3.3684657102500637 1.0760012467299873 L3.37466688125005 1.0720738387300344 L3.380557995250058 1.0661827247300266 L3.389032930250039 1.0612734637300036 L3.403295625250024 1.060343288729939 L3.5088189002499917 1.0874734157300168 L3.5308330602500746 1.0851996527299832 L3.546232637250057 1.0706268987300405 L3.5573947462500826 1.0415847437300272 L3.5638026242500302 1.0138344987300059 L3.5710373242499998 1.0031891537300055 L3.586850313250096 0.9906834577300003 L3.615582409250095 0.97440538172998 L3.6309819862500774 0.969186061729971 L3.669795173250037 0.963245901730005 L3.6954741732500054 0.9593158627299943 L3.7195553912500543 0.9488255467300348 L3.730614148250055 0.9327025007300449 L3.721467419250075 0.9158559837299833 L3.698523083250052 0.9057790797300243 L3.5325900592500545 0.8891392677300303 L3.4722319862500512 0.898441025730051 L3.4552821162500607 0.897924260730008 L3.3956475142500437 0.8851601827300328 L3.3799378782500753 0.8789590107299716 L3.3753903522500366 0.8685203717300283 L3.3851055212500683 0.8499168557300436 L3.40898003325006 0.8246470807299886 L3.4159046752500615 0.8151902927300227 L3.429133842250053 0.7779315857300162 L3.437712130250077 0.7668728297300049 L3.47316216225002 0.7464089627300439 L3.476366101250079 0.7347817647299735 L3.457555879250066 0.7138528097299854 L3.4620000532500796 0.6897715927300396 L3.481533744250072 0.6715298117299824 L3.5060283722500287 0.6554584407300297 L3.5254587112500246 0.6379918067300707 L3.535070527250042 0.6159259707299896 L3.5375509972500083 0.5895709897300208 L3.5337269402500624 0.5627509217300428 L3.524425183250031 0.5390314387300066 L3.54550916725006 0.5180508077299919 L3.5700037962500346 0.5104543717300203 L3.5967721882500143 0.5120563417300446 L3.6499989132500446 0.5241486267300388 L3.672943249250096 0.5231667747300719 L3.752731661250067 0.4999123797299774 L3.772678764250003 0.4866832127300711 L3.8300396032500714 0.42730699273002415 L3.8877105022500587 0.38743862473000945 L3.9093197072500914 0.37973134173000744 L3.91096489625005 0.37914455772994415 L4.040672741250006 0.36973944672999437 L4.0813420932500435 0.37356350273003613 L4.103097872250061 0.3802814397300551 L4.165419649249998 0.41017625472997565 L4.19291151125006 0.4188062197300155 L4.212341849250038 0.4141553407299625 L4.259057344250039 0.3884463147299755 L4.27952121125 0.37480373772996245 L4.304480928250001 0.39118516673002546 L4.335745169250089 0.40167548172996703 L4.368714734250034 0.4072823757300057 L4.494495170250019 0.41379360572997825 L4.522607148250046 0.41177822473002834 L4.531392143250031 0.39640448573004505 L4.540022106249978 0.3750621197300461 L4.547050101250079 0.3274681257300074 L4.574903698250068 0.2831814237299852 L4.674329154250074 0.2462844507299451 L4.7068853062500295 0.21362494473007132 L4.711122774250072 0.18964708073005454 L4.74243869225009 0.17150865373002944 L4.810548229250088 0.14215643872995543 L4.822640514250082 0.128927272730067 L4.831425509250067 0.11667995873003179 L4.841347383250053 0.10577623073007203 L4.856953666250007 0.09665534072999549 L4.869562715250112 0.09296047572999555 L4.910903861250063 0.08799953773004177 L4.953691947249979 0.07637234072998922 L4.980993930250065 0.06535630773004186 L4.99813367925006 0.05844061873000328 L5.040870088250074 0.04921637572999771 L5.078800589250079 0.06360826173002465 L5.09900607425007 0.08076483773007226 L5.168355847250012 0.12339789473006135 L5.19925835425002 0.14781500872999231 L5.219722221250066 0.15941636773004575 L5.240806205250095 0.16334377673001654 L5.2633371302501075 0.15577317973006188 L5.296410046250088 0.1269118917300034 L5.319664440250023 0.11745510473005538 L5.46771741925005 0.10830837672997973 L5.524613171249996 0.11363104873001362 L5.541356335250043 0.11755845772998441 L5.550606416250076 0.12303615873005924 L5.5669878462501 0.1402960877299506 L5.601817760250071 0.16845974373001127 L5.610499402250042 0.1786399997299668 L5.619904512250088 0.20212693973005003 L5.625382214250067 0.22587225973001068 L5.636285942250055 0.24618109773001606 L5.66181409925008 0.25922939672997813 L5.738863659250029 0.2714508727299858 L5.760774466250069 0.2683502867300547 L5.76294487725005 0.24504421573001878 L5.7896099162501 0.22956712473001062 L5.852035046250052 0.21388332772994545 L5.852138399250094 0.21383165073004307 L5.852345104250048 0.21377997473001642 L5.9107394732500325 0.19248928473004412 L5.960658907249979 0.1818439387300259 L6.018536511250005 0.18279995373001157 L6.07532891025005 0.19398790073003624 L6.122819552250036 0.21388332772994545 L6.153928763250093 0.22783596372994452 L6.307304415250059 0.2519946967300086 L6.3254945192501 0.25829922073000944 L6.342961153250059 0.2680402287299728 L6.361461315250068 0.2818378357300162 L6.370969779250089 0.2910879177300103 L6.374328747250075 0.29909776472999283 L6.370453015250035 0.3054798027300194 L6.363631725250087 0.3064874937300033 L6.355466849250064 0.3060224067300794 L6.34730197325004 0.30801194873001236 L6.337690157250023 0.31214606273005074 L6.32952528025001 0.31413560573000154 L6.32187716925003 0.3176496037300467 L6.314022351250088 0.32607286173004013 L6.310611706250057 0.3347803407299921 L6.305547416250107 0.35922329273003584 L6.301826713250051 0.3696360947299695 L6.278055554250017 0.403174098729977 L6.273508027250074 0.4190387637299864 L6.280639375250104 0.4399677187299744 L6.293300101250082 0.45454047273003084 L6.342961153250059 0.47825995473007765 L6.390916882250082 0.5187226017299906 L6.4107606322500885 0.5249237727299771 L6.437994111250049 0.5205312767299688 L6.515250378250045 0.46800218372999325 L6.614055717250011 0.4354201927300494 L6.640720756250033 0.43226793072997793 L6.709760469250028 0.44221564372998046 L6.735598686250029 0.4345675307300212 L6.77466606825007 0.39345892972994534 L6.799367403250045 0.37547553072997175 L6.837711315250004 0.3628148047300215 L6.8776055212501035 0.3578280287299549 L6.918119844250015 0.35922329273003584 L7.036148816250005 0.3841054957300116 L7.0622454142501 0.37914455772994415 L7.107152234250094 0.354649928729998 L7.1301482452500125 0.34803534573001116 L7.147666556250016 0.3508775497299723 L7.18141126725007 0.36839585973001476 L7.200686576250092 0.3753721777300143 L7.398710665250093 0.4125016947300253 L7.407288952250013 0.4182894547300009 L7.407702364250071 0.4268935807300238 L7.40170789725002 0.4350584577300367 L7.399175753250034 0.44337836273001585 L7.410596243250012 0.45206000373005395 L7.4994797072500035 0.47650295573001245 L7.510021700250064 0.4812571877299945 L7.51735975325002 0.4877167417300541 L7.521493867250086 0.5003257917299777 L7.518289929250017 0.5094208437300551 L7.5136390502500205 0.5174823667300359 L7.5136390502500205 0.5268874777299857 L7.526248099250068 0.5407367617300451 L7.546505261250076 0.5485915797299867 L7.5690361852500985 0.5515371357300012 L7.609860567250081 0.5496767837299785 L7.623606498250098 0.5538625757300224 L7.633218314250001 0.5636810977299831 L7.6429334832500615 0.5793390567300492 L7.672078991250004 0.6116368267300061 L7.70060438225002 0.6144790307299957 L7.733987357250015 0.6036786557300502 L7.777550589250069 0.5949970157300015 L7.816049532250105 0.6055390077300444 L7.837015779250038 0.628252441729984 L7.84271457125007 0.6344261327299989 L7.849639213250015 0.6715298117299824 L7.829278699250011 0.7068764917299859 L7.84426486425005 0.7127159287299776 L7.849329154250057 0.7136977807299445 L7.843127982250081 0.7263068307300671 L7.817083061250088 0.7379340277300344 L7.81119194725008 0.7545738387300389 L7.8189950892500235 0.7726089127300497 L7.835169812250086 0.7851662867300604 L7.848502331250103 0.7983954527299773 L7.8481922722500315 0.8182392027299557 L7.83584160625 0.8300214297300386 L7.77553520925008 0.854877792730008 L7.741118705250045 0.8829380957300259 L7.727062715250014 0.9017483177300392 L7.724168835250026 0.9205068627300363 L7.733987357250015 0.9330642357299723 L7.751247286250106 0.9416425237299961 L7.78669731825002 0.9525462507300517 L7.7997197792500685 0.964483506730005 L7.816411267250004 1.0014838317300416 L7.830622286250076 1.013886175730022 L7.877131074250002 1.0346601017300543 L7.8896884472501085 1.043445094730032 L7.891083711250104 1.0474758557299424 L7.886742891250009 1.0565192317299932 L7.888706595250056 1.0615835227299897 L7.892117240250087 1.0631338157299979 L7.90234917325003 1.065149196730033 L7.90493299525005 1.0664927837300127 L7.909377168250074 1.0717637797300483 L7.913924694250085 1.0751227477299494 L7.915371634250079 1.0801870377300133 L7.910514050250043 1.0906773537299728 L7.902555879250002 1.0974469667300184 L7.900178764250057 1.1045783137300589 L7.9029692912500025 1.1120713967299878 L7.910514050250043 1.1197195087300713 L7.924104952250076 1.1389948187299979 L7.936300590249999 1.1635927997299973 L7.935525443250043 1.1830231377299754 L7.910514050250043 1.1873639587300318 L7.863385144250088 1.1803876407300606 L7.843127982250081 1.1814211697300436 L7.8365133992500375 1.1934617777299934 L7.84684868525008 1.2099982367300015 L7.861318086250009 1.220850286730041 L7.865968965250062 1.2327875427299944 L7.847262097250081 1.2520628527300346 L7.829382051250008 1.259659286729999 L7.768507214250093 1.266842311730045 L7.7447360552500015 1.2780044207300705 L7.747319877250021 1.2883913837299872 L7.757345105250039 1.3034809027300014 L7.756001517250098 1.3285439717299994 L7.740601940250002 1.3445119897300515 L7.717760957250022 1.3583095967300096 L7.6980205602500575 1.3760862897300115 L7.69254285825005 1.404043239730015 L7.700501029250091 1.4200112567300494 L7.715952282250015 1.426677516729967 L7.7571900752500085 1.4349974217300314 L7.910514050250043 1.5003681087299867 L7.925396862250096 1.5161810977299979 L7.928910859250067 1.534681260730025 L7.95082166725004 1.5323558207299754 L8.035054251250102 1.5377301697300538 L8.058515352250055 1.5656354437300308 L8.097841117250056 1.5844456647300262 L8.069367403250027 1.6231513127300445 L8.01944796925008 1.670125188730026 L7.99453992925001 1.7137400987299714 L8.023478731250037 1.7266075297299608 L8.097789440250068 1.7389581967300103 L8.108910859250017 1.7526695347300176 L8.109106579250039 1.7529108337299988 L8.138923880250019 1.7579751237299774 L8.155253633250055 1.7779739027300252 L8.178611380250032 1.8292369247300542 L8.191633841250024 1.8415359147300023 L8.204036185250033 1.8493907337300186 L8.214681530250033 1.8586408147300233 L8.221916231250049 1.8747638607300132 L8.229047578250032 1.9334166117300526 L8.239692924250022 1.9616836197300245 L8.254575736250075 1.9767731387300387 L8.410535209250014 2.0493785257300488 L8.43627007225004 2.062090928730015 L8.460764701250099 2.0686021587299877 L8.513009574250049 2.076508652730041 L8.596828747250044 2.104155544730048 L8.627731253250062 2.108082952730001 L8.655688203250037 2.108548040729943 L8.666643607250109 2.1118553327300447 L8.67801242325001 2.1197101497299684 L8.685660534250104 2.131078965729955 L8.692481824250052 2.145703395730038 L8.701163464250016 2.1574856217300464 L8.713410778250108 2.1602244737299827 L8.738370496250099 2.15004421573002 L8.743744844250074 2.1489590107300103 L8.752529837250023 2.152576360729995 L8.753770072250092 2.1558836527300116 L8.75346001325002 2.1605345317300646 L8.776404349250043 2.2137095807300113 L8.771340059250036 2.221461045730024 L8.769583061250074 2.2287990987300077 L8.769169649250074 2.236240504730034 L8.767826062250009 2.243888617730022 L8.756353894250111 2.265851100729975 L8.740024141250075 2.3234186457300154 L8.722454154250073 2.348585069729978 L8.683696830250057 2.386412217730026 L8.674550101250048 2.4111652287299705 L8.717183158250037 2.4116303167299975 L8.803069388250009 2.42889024473007 L9.013495821250075 2.3963857687299424 L9.035923392250055 2.3990729437299763 L9.09473117225005 2.4243427187300313 L9.220304902250035 2.445168320730005 L9.255703259250055 2.4605678977299874 L9.287277559250043 2.4863027607300694 L9.30169528325004 2.491625433730036 L9.351459688250003 2.49023016973004 L9.372026908250092 2.492090521729949 L9.391457246250042 2.4992218687299896 L9.410474174250027 2.513949652729991 L9.417708874250053 2.5213393817300016 L9.420085990250044 2.528884141730032 L9.417708874250053 2.5363772237299997 L9.410474174250027 2.5436119237299692 L9.33600843525008 2.5666079367300085 L9.328980440250092 2.5706386987299936 L9.327895235250054 2.57859686872996 L9.330995821250013 2.5961668557300186 L9.341382783250054 2.6236587177299953 L9.359314506250001 2.6444326437299424 L9.382827283250009 2.6596255147299814 L9.410474174250027 2.670374212729996 L9.460703666250055 2.6845852317299546 L9.484164766250018 2.69523057673004 L9.499771049250086 2.713420680729996 L9.499771049250086 2.713627386730053 L9.506695691250087 2.71998358773007 L9.514188774250016 2.721792262730048 L9.522405326250038 2.719570176730059 L9.530466850250008 2.713627386730053 L9.54803683625002 2.7117670357300483 L9.565606824250068 2.7133690047299694 L9.58017957725005 2.7183816177300457 L9.57749240325009 2.7267015247300037 L9.571549613250085 2.737036810730018 L9.57666558025008 2.7480438907300027 L9.588137747250101 2.7503693297300345 L9.618420137250013 2.743806422730046 L9.631132539250046 2.743909775729975 L9.649425996250017 2.766544052730012 L9.64768796025001 2.7749604307299762 L9.634336479250038 2.8396145287299817 L9.647358939250097 2.8710854757300126 L9.627825248250048 2.880128850730074 L9.611702201250097 2.879224513730037 L9.596612682250083 2.8746769877299982 L9.579766165250106 2.8723515477300623 L9.509847953250102 2.881653306729987 L9.513361950250072 2.8848055687300587 L9.521785208250066 2.8941848407299915 L9.525815971250069 2.8977505147300633 L9.499047578250071 2.9071814637300406 L9.467214896250056 2.9109538437299705 L9.435537243250025 2.9088351087300737 L9.410474174250027 2.900851100730023 L9.384739311250001 2.905579493729988 L9.377091198250042 2.9172583677299713 L9.385876192250038 2.928239609730042 L9.409027234250033 2.9311076517300307 L9.399105359250058 2.9505638287300258 L9.385566133250023 2.969348211730022 L9.353526745250036 3.0016201437300083 L9.335439994250038 3.013350693730075 L9.319006888250073 3.0183891457299694 L9.282730033250033 3.0255721707300154 L9.25017388125005 3.0432455097300135 L9.225059134250017 3.065156317730043 L9.197877331250055 3.081253525730034 L9.145580781250061 3.080504217730038 L9.140413138250068 3.084250759730054 L9.138966198250074 3.089676784730017 L9.136589083250016 3.0936300317299867 L9.136382377250044 3.0961621767300755 L9.136899141250098 3.1008647327300594 L9.135813936250003 3.105670639729965 L9.13100802825008 3.1084611667300237 L9.12728732425009 3.108280299730069 L9.118502331250085 3.1067816827299737 L9.082225476250045 3.109675563730036 L9.056438936250032 3.1217936867300295 L9.047188855250027 3.124920111730006 L9.012668998250007 3.124067449730063 L8.939805229250027 3.106058213729966 L8.910453014250066 3.107996079729986 L8.884614799250045 3.116031764729996 L8.860636934250039 3.1176854107300187 L8.837072480250043 3.114093898729948 L8.785396049250068 3.0957746037299785 L8.772528617250003 3.0938367377300438 L8.73671684925003 3.0960071477300346 L8.726174858250005 3.0936300317299867 L8.710361869250079 3.0781529407299786 L8.699613171250093 3.03676011773004 L8.686177298250044 3.019448512730037 L8.668452282250001 3.013479885730021 L8.624372285250018 3.013118149730019 L8.604838594250026 3.010792709729998 L8.543912081250056 2.9962716327300427 L8.523499889250019 2.9953414567299887 L8.503552787250015 2.9989329687299744 L8.465828992250039 3.01115444573 L8.441954480250075 3.011955429729994 L8.39389539825001 3.006038478730005 L8.346249727250068 3.006038478730005 L8.308422578250003 3.023996039730065 L8.289819063250008 3.0721843117300693 L8.291059298250076 3.084715846730063 L8.291467177250041 3.085984804729975 L8.294780001250075 3.0962913677300037 L8.296950411250037 3.107091742729949 L8.293591442250062 3.1172461607300193 L8.284031303250032 3.123912420730022 L8.259329968250057 3.126677109729968 L8.249098034250068 3.129648504729971 L8.199178600250008 3.1776042337300225 L8.176957735250056 3.1916343857300262 L8.252508679250099 3.2288930927299475 L8.269045137250004 3.2479616957300266 L8.296123588250026 3.2974677177299725 L8.317827689250038 3.3180349377300615 L8.34800672625002 3.335785792729979 L8.380872936250086 3.348808253730027 L8.410535209250014 3.3550869407300183 L8.435029838250074 3.357128159729996 L8.442677949250054 3.364982976730033 L8.445055065250102 3.3776437027300688 L8.453840059250098 3.3943610287300032 L8.468257783250095 3.40616909373 L8.480453421250019 3.4112850607299947 L8.490737031250006 3.418959010729992 L8.499418672250073 3.4385185407300014 L8.500142142250098 3.4807640237300745 L8.477817924250104 3.5003235537299986 L8.410535209250014 3.5235521097300193 L8.421593965250025 3.5389258477299848 L8.466035697250021 3.5755386007300274 L8.495801322250003 3.615872056729984 L8.508927135250048 3.628196885730034 L8.54510063825009 3.647446355730068 L8.558536510250036 3.6579625097300266 L8.554195691250044 3.667961899730045 L8.540656466249999 3.670028957730011 L8.504276256250108 3.664757960729986 L8.489186739250016 3.6654814317299724 L8.493527559250055 3.668969590730029 L8.50582655025002 3.6812944197299657 L8.488049857250104 3.6860228127300445 L8.480453421250019 3.6941360127300413 L8.482882214250054 3.7037736677300757 L8.495387910250003 3.7133854837299793 L8.517815482250086 3.723410711729997 L8.51926242225008 3.747982855729987 L8.513216279250031 3.77772264172998 L8.512751192250022 3.8032507997299945 L8.520244274250018 3.814180364729964 L8.53042453125002 3.8226294617299743 L8.53796929025006 3.833559026730029 L8.538486055250104 3.8515941017300293 L8.532646619250016 3.8651074887300183 L8.522156302250067 3.877406479730041 L8.509495576250032 3.887509222729989 L8.49724826225011 3.8946405707300187 L8.527013887250092 3.9217190207300803 L8.543550345250054 3.9330103207300624 L8.561327038250084 3.9412527117299874 L8.578586966250015 3.945025091730031 L8.613313529250007 3.9488233087300557 L8.629333223250086 3.9545593937300225 L8.618791230250025 3.9628017847299475 L8.611814912250026 3.9755658637300257 L8.609386120250036 3.990164455729996 L8.612280000250024 4.0040912537299675 L8.619411348250054 4.014452378729999 L8.628609753250004 4.020576035730045 L8.678942598250075 4.0420734307299995 L8.692481824250052 4.056181097730018 L8.69651258525002 4.07594733273001 L8.694238822250014 4.105454575730022 L8.579827201250026 4.109175278730021 L8.404747448250049 4.088246323730033 L8.312970105250002 4.088530543730002 L8.234318575250057 4.108529323729954 L8.214164766250093 4.124781561729975 L8.19876518925011 4.144780340729994 L8.182332083250031 4.161523504730042 L8.158870983250068 4.167802190729958 L8.134789766250009 4.162091945729998 L8.089107800250105 4.1379073757300375 L8.064716524250088 4.129354925730013 L8.026217582250098 4.126409368730009 L7.889223359250053 4.131344468730049 L7.864315320250029 4.136305405729985 L7.8487090372500745 4.14684739872996 L7.854600150250093 4.1637455917300485 L7.849639213250015 4.1687582057300006 L7.846745332250038 4.173667465730034 L7.84452324625002 4.178447536729948 L7.841164278250034 4.1834601507300135 L7.870413139250076 4.185940618729973 L7.880024955250093 4.199247300730008 L7.871136608250055 4.2122180847300115 L7.8450916872500045 4.213432481730052 L7.8382703972500565 4.207670558730001 L7.8326893432501095 4.206042750730035 L7.826798230250034 4.20769639673 L7.818633353250021 4.211675481729969 L7.81077853525008 4.217850815729946 L7.808918184250075 4.224000311730009 L7.809538301250058 4.229142116730031 L7.809228242250043 4.232371893730004 L7.798996309250043 4.241001857729941 L7.7879375522500425 4.2483915867299515 L7.77553520925008 4.254670273730056 L7.76127251325002 4.260122137730036 L7.732953829250022 4.266891750729968 L7.732437064250092 4.270483262729954 L7.735124239250098 4.27668443372994 L7.7404985882500625 4.280844386729967 L7.7404985882500625 4.287639837730012 L7.726959362250085 4.299292872729978 L7.718071016250093 4.305416530730042 L7.709389375250026 4.308103704729973 L7.679623751250034 4.306398382730009 L7.671562227250064 4.308103704729973 L7.667738171250022 4.314434067729991 L7.6671180542500394 4.323787501730038 L7.664430879250091 4.332288274730047 L7.643863659250002 4.339057887729979 L7.6374557822501 4.34564663273008 L7.632701550250005 4.352261215730067 L7.627223848250111 4.355284287730001 L7.624433321250052 4.35874660873003 L7.6026258672501115 4.376419948730046 L7.596217988250061 4.383628810729988 L7.5918771692500115 4.386600205729991 L7.592187227250093 4.390424261729947 L7.599525280250049 4.399958562730035 L7.600455456250046 4.415487330729945 L7.582678763250016 4.426881984730045 L7.560354545250021 4.436002874730036 L7.548055553250009 4.444684515730074 L7.568002657250105 4.4509115257299925 L7.576064180250086 4.451479966730034 L7.576064180250086 4.458947210729974 L7.564953747250087 4.466336940729974 L7.561904838250058 4.478041652730042 L7.560457898250064 4.490418157730005 L7.554876843250014 4.499926621729998 L7.543714734250017 4.50310472173004 L7.51270887425008 4.503724839730012 L7.500203178250075 4.506101955729974 L7.505887585250008 4.519615342730049 L7.4942087112500815 4.5407251647299915 L7.500203178250075 4.554522771730035 L7.493381888250013 4.558708562730061 L7.485217012250104 4.5662533217300165 L7.479842663250025 4.568837144730026 L7.482736543250013 4.572687037729963 L7.486508923250057 4.582402207730013 L7.473744844250092 4.585890366730041 L7.445012748250093 4.602349310730034 L7.445012748250093 4.6097648777300435 L7.464443086250043 4.620177678730073 L7.47302137425001 4.6234332947300345 L7.47302137425001 4.629634466730039 L7.465166557250058 4.631003892730007 L7.460980766250003 4.632709214729971 L7.457621797250027 4.634724595730006 L7.452454154250034 4.637101711729969 L7.452454154250034 4.64330288273004 L7.464029675250032 4.652759669730017 L7.497309297250098 4.6587541357300495 L7.513897432250104 4.663766750730019 L7.506300997250065 4.674903020730028 L7.501340059250111 4.679605576730012 L7.492761772250077 4.6842564557299795 L7.504957409250068 4.689966701730015 L7.515292695250054 4.696632960730028 L7.519633516250082 4.7040485287300555 L7.513897432250104 4.7121875667300515 L7.5188066932500135 4.72420233773002 L7.527178275250009 4.7317470967299755 L7.537513562250041 4.73619126973 L7.548055553250009 4.738878443730016 L7.548055553250009 4.746371526729973 L7.5347230342500495 4.744795395730023 L7.52345757225001 4.747120834730055 L7.515912813250026 4.7541746687299735 L7.513897432250104 4.7668095557300205 L7.5177731642500305 4.7786692967300155 L7.525472953250045 4.78107225173008 L7.5359115922500735 4.781459824729978 L7.548055553250009 4.78729926172997 L7.55249972725008 4.793913844729985 L7.562318249250069 4.8220516627300185 L7.567382540250065 4.8274260117300685 L7.574410534250063 4.833342962730001 L7.575444063250046 4.838562281729992 L7.562318249250069 4.841921250730024 L7.568209362250087 4.870162420729997 L7.540355766250087 4.888481715730052 L7.5098149942500925 4.90235683772994 L7.507127820250076 4.917007106730011 L7.489247774250003 4.936695826730073 L7.486508923250057 4.9387112087300125 L7.485217012250104 4.962559881729987 L7.484550736250043 4.963514877729978 L7.48056613425004 4.969226141730019 L7.46950737625005 4.970853948729967 L7.46191094225 4.961397161729991 L7.4506971562500155 4.953619858729979 L7.437984753250049 4.948348862730029 L7.424548881250047 4.946100937730023 L7.410596243250012 4.947160304730005 L7.394938285250106 4.944085556730073 L7.372665743250053 4.922975734730045 L7.357989636250039 4.914268255729979 L7.343416882250011 4.911968654729947 L7.313651257250086 4.912097845730074 L7.298355033250033 4.908351303729972 L7.285022513250027 4.90075486872999 L7.254430066250023 4.876053533729987 L7.246988659250093 4.865434027730004 L7.249779186250038 4.86442633673002 L7.2581507692500224 4.843549057729973 L7.259907768250088 4.835668401730004 L7.260011121250017 4.825307277729991 L7.258925915250046 4.817400783730051 L7.2560837112500565 4.810760361730047 L7.250089245250109 4.803939072730003 L7.237273490250033 4.796420151730047 L7.186785615250045 4.780968898729952 L7.172677949250016 4.771615464730019 L7.135264212250007 4.739524400730005 L7.107203910250092 4.72652777773007 L7.078523490250035 4.72159267773003 L6.938583711250004 4.723943954730061 L6.915639375250038 4.728155584730018 L6.854971244250095 4.748154363730038 L6.842465547250043 4.748593613729952 L6.826445853250021 4.74182400073002 L6.816162243250034 4.741229722729969 L6.803501517250055 4.746836614729972 L6.786655000250022 4.766163600730039 L6.776526420250065 4.773114080730011 L6.758543021250063 4.776059636730025 L6.6677992062500095 4.766525335730023 L6.655190157250075 4.755569932729969 L6.646405163250023 4.740351222730027 L6.629868705250004 4.722316147730027 L6.612608777250017 4.714823064729984 L6.5906979702500905 4.712885198730049 L6.567650280250092 4.71513312372997 L6.547909883250014 4.720378281730007 L6.52723931025011 4.732057155730047 L6.513079968250082 4.745208806730034 L6.4980938032501 4.756396754729991 L6.474942761250105 4.762365383730014 L6.4488978392500655 4.764225734730019 L6.435358614250077 4.7685665547300005 L6.425436738250056 4.780374619729997 L6.4107606322500885 4.804765895730014 L6.396187878250004 4.8209664567300194 L6.376292451250009 4.8211214867299645 L6.332625867250073 4.809881862730009 L6.309578177250074 4.814481065730064 L6.283154104250087 4.828967181730036 L6.270459118250045 4.835926784729992 L6.2498402222500715 4.840448472730003 L6.226895886250105 4.832309434730007 L6.21449354225004 4.814274358730017 L6.206018608250048 4.7924410657299745 L6.1947531452500755 4.773114080730011 L6.174289278250029 4.758127915730057 L6.157649466250092 4.750402288730044 L6.150931530250006 4.739059312730063 L6.160336641250041 4.713143581730037 L6.15640923225007 4.6869694687300125 L6.144730359250019 4.670562201730064 L6.111347383250035 4.639013739730075 L6.090315075250004 4.602711045730018 L6.077861055250111 4.590386216729968 L6.0537798372499765 4.580981105730018 L6.013575573250051 4.574805771730041 L5.993111706250005 4.5754258887299954 L5.973474662250055 4.579844223730021 L5.953527559250034 4.591988185730003 L5.929859753250099 4.623614162730007 L5.9107394732500325 4.636559107730022 L5.884487846250067 4.642760280730016 L5.822786186250028 4.6431478537299995 L5.793537324250082 4.647101100729998 L5.761807995250052 4.65774644572997 L5.729768608250055 4.673404405730025 L5.701759981250035 4.694746771730024 L5.68212293725 4.722316147730027 L5.679332409250037 4.739162664730003 L5.681502820250046 4.777274033729952 L5.676645234250003 4.792027654729964 L5.658661837250037 4.804765895730014 L5.648119844250061 4.7944047707300115 L5.640988497250106 4.7757754177300455 L5.633857149250076 4.763398911729979 L5.62104139325001 4.762597926730052 L5.607812227250093 4.767946437730018 L5.593446178250105 4.7720288757300295 L5.5769097212500185 4.767016261729964 L5.567194551250083 4.756396754729991 L5.560786673250021 4.742392441729976 L5.545077038250071 4.6864527037299695 L5.542596569250094 4.666092189730051 L5.533811576250088 4.652475449730048 L5.507973360250077 4.645912542729974 L5.418263073250017 4.63400112473002 L5.391132946250025 4.634362860730022 L5.365243054250101 4.639892238730027 L5.315426973250055 4.660976222730056 L5.289537080250028 4.676660020730026 L5.276773002250053 4.6808716487300615 L5.263750541250033 4.677641871729975 L5.258066133250082 4.669657863730009 L5.247317435250068 4.642062648730018 L5.240806205250095 4.631572333730048 L5.22840386125003 4.623045721730051 L5.1996200882501 4.61175442073008 L5.187682832250061 4.604261338729941 L5.179259574250068 4.5929441997299705 L5.178277722250101 4.583926662730022 L5.178794486250041 4.5754258887299954 L5.175022106250111 4.565400661729996 L5.160294323250099 4.554884507730037 L5.139933809250067 4.554057683730008 L5.117506238250002 4.56082729672994 L5.096112194250082 4.5729195817300194 L5.076578503250062 4.591626450730018 L5.044125704250064 4.630409613730052 L5.0200444862501 4.643974676730039 L5.000717500250062 4.648393011730036 L4.903049043250036 4.648212143729978 L4.884652234250012 4.645240749729993 L4.865945365250042 4.639013739730075 L4.805483939250024 4.597982651730035 L4.784089896250094 4.59069627473005 L4.761145560250071 4.593099228730011 L4.74243869225009 4.604002955730067 L4.729416231250042 4.620823635729948 L4.723111706250023 4.641003281730036 L4.723628470250077 4.653715684729974 L4.72616061625007 4.664490219729998 L4.727039115250079 4.675419785729986 L4.722439913250042 4.688726466730003 L4.717220593250033 4.695108506730037 L4.670453422250034 4.734615138729964 L4.660014782250073 4.7408679877300415 L4.644150117250064 4.742314927730035 L4.629939099250009 4.738490871730022 L4.613661023250074 4.730506861730049 L4.600225150250054 4.721205104730018 L4.59607550625006 4.715827857729977 L4.594023979250068 4.713169419730036 L4.6272002482500625 4.662836574730051 L4.635055066250089 4.6376701517300205 L4.622549369250095 4.616792872729945 L4.606736380250112 4.611211818730027 L4.550512423250041 4.610126612730028 L4.442320142250111 4.582923687730073 L4.442198620249997 4.582893133730039 L4.407161999249979 4.582350530729997 L4.388661836250066 4.588525864729974 L4.360859915250018 4.607594468730042 L4.338897432250036 4.614312404729986 L4.318278536250034 4.615294256730039 L4.258953991250024 4.609067246730035 L4.219163139250014 4.6170512557300185 L4.197355684250084 4.6185240337300115 L4.183919812250025 4.610643377729986 L4.1896042192500715 4.593719345730079 L4.204383679249986 4.5722219507300395 L4.207380912250102 4.554884507730037 L4.177821993250063 4.5503628197299975 L4.153534069250071 4.552326524730034 L4.133483614250025 4.550879583730023 L4.118910860250054 4.542249619730001 L4.110952689250013 4.522612574730061 L4.111366100250024 4.4958958597300125 L4.114053275250058 4.474579330729995 L4.107748750250039 4.458947210729974 L4.080980358250059 4.449257879730027 L4.03984591825008 4.44359930972999 L3.951479219250075 4.441480576730015 L3.8507101762500895 4.463494736729984 L3.78466769525005 4.456673447729941 L3.5956353072500917 4.404635280729991 L3.3754937052500793 4.400423650730062 L3.361437715250048 4.395798610729997 L3.3491387242500252 4.385101588730009 L3.3468649612499917 4.375386419730063 L3.3498621942501074 4.3662913677299855 L3.34965548925004 4.359160019730041 L3.337666557250003 4.355413478730014 L3.105225964250053 4.349315659729967 L3.075253633250014 4.341176620730067 L3.0106580932500435 4.305364853730026 L2.980479057250051 4.301204900729999 L2.911025931250066 4.302548488729968 L2.6978089722500442 4.277511257729969 L2.613369681249992 4.288001572730025 L2.4772903002500186 4.2865803227300034 L2.2818653692500277 4.284539251729967 L2.1131934932500087 4.256272243730081 L2.067924938250002 4.257073227730018 L2.0225530312500553 4.266271632729996 L1.932636039250042 4.29554633172998 L1.6517229532500153 4.3236841487299955 L1.6309490272500682 4.323115708730057 L1.569660778250011 4.313891465730052 L1.32068372825006 4.326009588730045 L1.2994963902500274 4.330918849730068 L1.2777922892500158 4.344871486730057 L1.2414120812500187 4.37846116773008 L1.2260125042500363 4.397891506730076 L1.2022413442500692 4.46313300173 L1.1740260132500282 4.487808497730015 L1.0606479202500054 4.536229315729969 L0.91119967825 4.6200226507300215 L0.8712021202500466 4.624105088730033 L0.842780082250016 4.607439438730012 L0.81477145525011 4.586148748730011 L0.7751873082500538 4.5762010357300085 L0.750175915250054 4.574754095730015 L0.6795859092500791 4.561550766730022 L0.6561248082500981 4.561163193730039 L0.5588697632500725 4.5769761827300215 L0.5465707722500497 4.581239487729988 L0.5363388382500602 4.587905747729991 L0.524246553250066 4.601057399729967 L0.523213024250083 4.609067246730035 L0.529000785250048 4.6170512557300185 L0.5561825892500565 4.665136175729998 L0.5585597042500865 4.674799668730003 L0.5540121782500478 4.69012173072997 L0.5453305382500844 4.692912257730029 L0.5361321332501063 4.688623113730046 Z" fill="black" stroke="black" stroke-width="0.5" vector-effect="non-scaling-stroke"/></svg>