<svg xmlns="http://www.w3.org/2000/svg" viewBox="0 0 3.9297797646434756 2.0410351061999847"><path d="M0.038527252594543704 0.42870695538121595 L0.0587301250489487 0.4193786311000025 L0.09665330204893063 0.4114440610999708 L0.23239549004892535 0.34674679509997475 L0.4403219220489474 0.2697611180999928 L0.6415751770489306 0.18659054509997475 L0.865696271048928 0.14109900909998885 L0.8661419990489732 0.14102472109999553 L0.874795806048918 0.1795352931000309 L0.8706616910490039 0.2043399810999631 L0.8699382220489111 0.227646052099999 L0.8840975650489566 0.25276079909994564 L0.9083854880489595 0.26947812409997596 L0.9155258020489283 0.271549546100033 L0.9386678770489665 0.27826311810005677 L0.9706039120489676 0.2806143951000024 L1.0179395240489226 0.2759635160999494 L1.0208334040489104 0.26650672909997297 L1.018249583048994 0.2538460031000227 L1.0201099340489987 0.24229632109998533 L1.031065337048882 0.23521665010005677 L1.0457414450489706 0.2329170480999494 L1.0617611380489178 0.2323227700999837 L1.1015519910489457 0.22671587609994504 L1.126253326048949 0.2258115390999933 L1.1517814840489065 0.22842119910001202 L1.2740479220489034 0.2539235181000379 L1.2929614970489594 0.2617266590999634 L1.2981291400489523 0.2748266351000268 L1.2964754940489867 0.28593706809994046 L1.2981291400489523 0.2963757070999691 L1.313011952048977 0.30748614109998584 L1.3254142960489572 0.3109226231000264 L1.443753326048916 0.3099924470999724 L1.4661808970489245 0.30547075909996124 L1.511759511048889 0.28301735009995355 L1.6356795960489547 0.24384661409999353 L1.685288970048954 0.21937782309996123 L1.7246664120489426 0.18565895110000952 L1.7302474660489464 0.175711238100007 L1.737688872048973 0.1524310050999702 L1.7382187800489488 0.1482472361000191 L1.7389059070489408 0.14850460809996946 L1.7577861150489253 0.15965369609999414 L1.7657613750489487 0.16958208210000691 L1.7728414540489394 0.18781124809997607 L1.7893616360489046 0.20042518109998753 L1.8075094220489474 0.21035356610001088 L1.8197164540489394 0.2201598811000025 L1.8233785630489434 0.22650753710000515 L1.8248434070489408 0.23261105310000119 L1.822157860048942 0.23965044110001088 L1.8154033020489306 0.2466491390999721 L1.8134501770489306 0.2486836441000122 L1.8250875470489474 0.24502153510000824 L1.8331441880489434 0.239406300099958 L1.847548485048942 0.2201598811000025 L1.8138570790489394 0.21108598810000956 L1.8060445790489394 0.20709835809996946 L1.8021383290489394 0.1982279150999915 L1.8028707500489487 0.17658078009996814 L1.7997783020489306 0.16616411310000956 L1.7923727040489394 0.15814816210000515 L1.7777949040489558 0.14686856409997517 L1.797851547048988 0.14730132910000293 L1.8068319390489718 0.14749590610003338 L1.8430054420489865 0.15982073509997008 L1.8623324280489397 0.16395484910000846 L1.9089445690489084 0.16584104010001965 L1.9279614960488756 0.15951067710000189 L1.932922434048943 0.14227658609999594 L1.9268246150489814 0.13245806409994998 L1.9043970440489728 0.11571490009998797 L1.8966455780489708 0.10672320109995326 L1.8973690490489572 0.09659462010000652 L1.9038802790489298 0.08879147909996732 L1.9059473360489916 0.08166013110002268 L1.8938550510489973 0.0733660640999858 L1.9461516000489167 0.05427162210000347 L1.9997917370490041 0.04192095510003924 L2.029350656048929 0.03887204510002107 L2.0419597060489663 0.04031898510001497 L2.0499178760489327 0.04866472909998265 L2.048574289048953 0.06538205509991712 L2.0400993540489436 0.07783607510000934 L2.038239003048939 0.08760292110005707 L2.0573592830489487 0.09618120909999561 L2.07058845004894 0.09695635509999079 L2.099423898048964 0.09364906310000265 L2.1313599340489544 0.09868751610005688 L2.146862864048951 0.09804156010000042 L2.160298736048925 0.094837622100016 L2.170634022048911 0.0900317131000179 L2.2479419660489226 0.030629654099982417 L2.280911529048974 0.020010148099999014 L2.2953809300489025 0.02088864709992322 L2.3135710340489437 0.02522946710001861 L2.330314198048991 0.03212827009997454 L2.34064948404892 0.04060320609997348 L2.3428198950489856 0.05569272409999826 L2.3366187230489244 0.07003293409997013 L2.332174549048996 0.08517412809999314 L2.3394092500488695 0.1025632481000116 L2.2957943410489134 0.08982500709996089 L2.284528879048959 0.09085853609994388 L2.278844471049008 0.10287330709999765 L2.3000318090488703 0.10860939109997503 L2.370001698048976 0.11010800709996715 L2.388398508048904 0.11320859310001197 L2.4270524790489914 0.12434486410003842 L2.4486532280489497 0.12062416110001095 L2.473871327048921 0.10525042310004551 L2.4969190160489587 0.08571673109995004 L2.5125252980489234 0.06954200809994404 L2.5194499410489994 0.057243017100006455 L2.522860585048927 0.0479412590999857 L2.5288550520489492 0.04192095510003924 L2.544254628048942 0.03944048609997708 L2.547045156048905 0.04181760210002494 L2.577017486048926 0.05427162210000347 L2.596654530048961 0.07770688409996751 L2.5931405330489055 0.09434669510000049 L2.581978424048965 0.11034055110002328 L2.57846442604892 0.131992976099923 L2.584872304048953 0.14170814509995466 L2.619288808048931 0.16558265709994657 L2.624559804048938 0.1742642981000131 L2.634791737048938 0.196330134100009 L2.639649322048963 0.20286720309997008 L2.6569092510489396 0.2088616691000027 L2.695563222048942 0.20674293610002792 L2.7140633840489796 0.20790565610002432 L2.7316333720489423 0.22190996910003946 L2.7321501360488822 0.25751503110001295 L2.749720123048969 0.26033139609998557 L2.7561832590489486 0.259317657099956 L2.7874439180490027 0.2544144440999787 L2.9057829480489614 0.25754086810002264 L2.9266602260489334 0.25270912210001484 L2.9686214900489416 0.23413144509996187 L2.988361887048991 0.22816281609993894 L3.0099626360489777 0.22971311009996498 L3.033423736048941 0.2390148670999963 L3.0519238980489787 0.2542077391000248 L3.0590552460489233 0.2735864000999868 L3.062259185048897 0.2963240311000561 L3.068133922048953 0.2994807050999384 L3.0851001680489913 0.3085971840999946 L3.141737538048967 0.319345882099924 L3.1552767630489553 0.3253403480999566 L3.164888580048962 0.332290828099957 L3.175740631048906 0.3371742510999809 L3.192897206048964 0.33707089810002344 L3.23475511604894 0.3316448720999574 L3.2475708720489207 0.3324975330999962 L3.2639006240489676 0.3386470290999739 L3.2847779020489396 0.356785456099999 L3.2981104230489633 0.3638392900999179 L3.328806223048896 0.3589300290999802 L3.3458594460489293 0.35978269010001895 L3.3547477920489497 0.37252093009996656 L3.3572282610489266 0.3773268390999647 L3.3431722710488954 0.38608599410005695 L3.3399683320489215 0.3975064850999672 L3.3627059630489056 0.41285438509993355 L3.353507557048995 0.4167559560999905 L3.3433789770489524 0.4193397780999817 L3.3326302790489377 0.4203733070999647 L3.3216748750489513 0.4196239990999686 L3.324155344048928 0.4268586991000234 L3.325705637048965 0.4299076090999563 L3.3284961650489278 0.43393837009995195 L3.3210547590489865 0.447658463099998 L3.3155770560489897 0.4547639731000004 L3.308032297048949 0.4612493640999844 L3.2963534230488802 0.4549448400999552 L3.2881885470489705 0.45812294010002574 L3.283124257048992 0.46781227109997303 L3.280747141048944 0.4810672760999637 L3.294286366048932 0.49269447310001624 L3.278473378048939 0.5170857490999481 L3.2390959370489396 0.5568249260999494 L3.2614201550489907 0.5530008700999929 L3.2710319720489975 0.5531558990999486 L3.280747141048944 0.5568249260999494 L3.2692749730489323 0.5690205640999579 L3.2520150440489273 0.5922749580999778 L3.2390959370489396 0.6045739490999154 L3.234341705048929 0.6070027420999793 L3.2227661840489032 0.6096382400999971 L3.211190663048934 0.612583797100001 L3.139050364048951 0.6635884350999675 L3.141220773048924 0.6859643300999494 L3.1574471740489356 0.7012088780999761 L3.1741597060489495 0.7086068570999657 L3.1799780980489585 0.7111824290999778 L3.2015788460489274 0.7177453360999664 L3.217185129048967 0.7206908930999703 L3.2154281310489763 0.7324731190999785 L3.2050928440489725 0.7554174551000017 L3.2232829480489285 0.7620320391000064 L3.234134999048986 0.7634273020999842 L3.244573638048929 0.7620837151000046 L3.2495042930489104 0.7573963500999952 L3.2602832740488976 0.7471492261000492 L3.2691716210489927 0.7428084060999822 L3.2791968480489357 0.7452371981000283 L3.299660715048897 0.7595515690999264 L3.3098926490489715 0.7640990960999545 L3.3966057020489258 0.7627038330999767 L3.408014873048951 0.7650015120999996 L3.418929921048881 0.7671996820999993 L3.491483632048893 0.7686982991000093 L3.511637441048971 0.7663211830999614 L3.5099837940489307 0.7681815340999663 L3.509363678048966 0.7699902090999728 L3.5094670300489907 0.771798884099951 L3.5109139700489846 0.7736592360999737 L3.5275537820488934 0.7791886140999793 L3.528070546048947 0.7888004310999861 L3.5243498430489195 0.7993424220999543 L3.528277251048901 0.8077140040999211 L3.5415064180489777 0.8086958570999911 L3.5810905650489486 0.8017712150999898 L3.597730377048971 0.8027530670999568 L3.61695401004891 0.8149487050999937 L3.6778288460489206 0.8740665431000423 L3.664496327048904 0.879492569100023 L3.6761752010489728 0.8938586171000225 L3.6967424210489765 0.9007315830999971 L3.7657821340489432 0.9018167880999783 L3.7680558970489484 0.907811254100011 L3.761027902048933 0.9166996001000314 L3.7496590880489533 0.9254845940999985 L3.7496590880489533 0.9291019451000011 L3.727334868048895 0.9375768801000106 L3.695812245049008 0.9542683670999281 L3.6774154350489097 0.9726651761000369 L3.694055247048932 0.9860493730999735 L3.686200428049001 0.9937491611000553 L3.68754401604897 0.9982966871000087 L3.695605539048951 1.0004670970999996 L3.707284413048934 1.0010355380999556 L3.6993262420489783 1.0096655020999776 L3.7073877660489485 1.014419734099988 L3.715966054048887 1.025840226099973 L3.7239242250489566 1.0299226640999848 L3.733846099048942 1.0302327220999814 L3.7676424860489375 1.023566463099968 L3.7698128960489283 1.0221711990999722 L3.7722933650489905 1.021654435099947 L3.7745671280489104 1.0221711990999722 L3.776840891048944 1.023566463099968 L3.7921371150489973 1.028217342100021 L3.8354419650489673 1.0345735430999525 L3.8536320690488948 1.0352453370999513 L3.8424699600489545 1.0422216550999508 L3.8399894910489776 1.0502315021000186 L3.8428833710489654 1.059223201099968 L3.848361073048973 1.0693517821 L3.8569393610489966 1.0783951570999761 L3.8640707090489412 1.0792736560999856 L3.8678947650488693 1.0826843011000165 L3.867171294048968 1.0993757880999624 L3.8600399470489277 1.1229402420999577 L3.853115305048955 1.1363244371000008 L3.8544588920489344 1.1481583411000145 L3.8891854550489553 1.1868123121000167 L3.890127009048963 1.1931678040999714 L3.891252512048932 1.2007649481000158 L3.8787468150489373 1.2092915600999277 L3.852185129048901 1.212392147099962 L3.8387492570489554 1.2108418531000495 L3.8273804410489687 1.2079996490999747 L3.816218332048943 1.207379532099992 L3.802679107048955 1.212392147099962 L3.7927572320489515 1.220143611099985 L3.7861426490489647 1.229755427099974 L3.784075592048903 1.2398323320999225 L3.7885197640489947 1.2488240310999572 L3.7701229550489144 1.2594693760999576 L3.727128163048941 1.2672208411000554 L3.7063542370488802 1.2735253660999888 L3.6965357150489195 1.2832405351000205 L3.6739014380489676 1.2935241451000081 L3.6635661520489533 1.3022057850999715 L3.6768986710489697 1.3117142491000493 L3.682479725049002 1.3230830640999613 L3.6818596090489235 1.3343485270999906 L3.6758651420489015 1.3438053130999776 L3.668423736048875 1.3469059001000119 L3.6484766330489675 1.3479394281000054 L3.6398983450489153 1.3513500721000185 L3.6380379930490063 1.3546573640999213 L3.6347307020490076 1.365871150099963 L3.6325602920489315 1.3707804111000144 L3.642688872048974 1.3760514071000216 L3.646202870048934 1.38220090210001 L3.643308990048946 1.3889188390999436 L3.634213938048897 1.3957918040999857 L3.61933112504894 1.3915026601000307 L3.617057362048935 1.3835961660999772 L3.618194244048932 1.3741393790999155 L3.613853423048961 1.3649409741000227 L3.600934316048945 1.356931127099955 L3.593182850048943 1.3576029211000105 L3.5867749730489846 1.3620470940999496 L3.578093333048936 1.3655094150999787 L3.555355702048952 1.3678348541000105 L3.5440902400489973 1.366801326100017 L3.539693931048954 1.3654274790999352 L3.53086107404891 1.3626672110999891 L3.5247632540489304 1.3553291581000053 L3.5214559630489317 1.3457690181000146 L3.5150480850488988 1.341273168099974 L3.4996485080490016 1.3491796621000276 L3.478357818048944 1.350626603100011 L3.4698828830489346 1.359876684100044 L3.4657487690489246 1.3735709390999773 L3.4577905980489403 1.3879369870999767 L3.4429077860489157 1.3979105380999783 L3.4057007540489748 1.40964108809996 L3.3891642960489845 1.4193562581000094 L3.3855469460489145 1.4257124581000369 L3.383583241048991 1.4419388581000305 L3.3811027720489006 1.4487601480999786 L3.375004953048939 1.4544445550999399 L3.3604321990489963 1.4626094311000486 L3.3544377330489636 1.4688106030999393 L3.355574615048961 1.4803861240999936 L3.355574615048961 1.4897912351000286 L3.353094146048984 1.4976977290999969 L3.3458594460489293 1.5026586660999328 L3.325602284048922 1.5084464271000115 L3.319401112048946 1.5137690990999602 L3.3182642310489383 1.5275667061000036 L3.325292226048954 1.5331477611000253 L3.3293229870489496 1.538677139100031 L3.318367583048963 1.5524230710999518 L3.3100993540489254 1.557435684100028 L3.295319895048915 1.5596577721000244 L3.2882919000489848 1.562706681099968 L3.280437082048958 1.569424617099969 L3.276716379048959 1.5746439371000065 L3.2743392640489857 1.5797082270999852 L3.2703085010488975 1.586064428100002 L3.2356852920489088 1.6248734290999494 L3.2316545300488952 1.6343818931000271 L3.2434367570489213 1.63805091910001 L3.265554270048905 1.6489546460999804 L3.274856027048936 1.6580496980999726 L3.2486044000489143 1.656292700099982 L3.2487077530489286 1.6620804591000535 L3.2472608130489347 1.6650776930999598 L3.2454004610489404 1.6674031320999916 L3.2436434620489605 1.6710204820999763 L3.2532552790489673 1.676808243100055 L3.2413696990489553 1.681975886100048 L3.2369255270489488 1.6915360260999535 L3.2383724670489427 1.703473282099992 L3.2444702850489717 1.7160306551000133 L3.255012278048947 1.7273994711 L3.26514085804899 1.7306034090999844 L3.275889556048919 1.73179196709998 L3.288601959048971 1.7368562570999586 L3.2952165420489576 1.7432124590999933 L3.3187809950489635 1.773391495099986 L3.320331288048915 1.7780940500999804 L3.322501698048991 1.7920466871000542 L3.3220882860489622 1.7943721261000007 L3.3284961650489278 1.7977310941000155 L3.3424488010488984 1.8004699451000477 L3.348443267048931 1.802640356100028 L3.3540243220489527 1.8033121491000088 L3.3604321990489963 1.8019168851000416 L3.3669434300489582 1.802226945100017 L3.372731190048934 1.8081697340999483 L3.3731300890489093 1.8104403890999663 L3.374074778048903 1.8158178461000318 L3.370354074048886 1.819951961099946 L3.3654964900489643 1.8235176341 L3.363946197048956 1.8290470120999203 L3.3634294330489025 1.835558243099996 L3.3604321990489963 1.838762182100055 L3.3589852590490024 1.8423278560999279 L3.3624992570489622 1.8496659091000254 L3.369320546048921 1.8530248770999265 L3.389371001048967 1.8545234941000217 L3.3966057020489258 1.8585025791000191 L3.4021867570489475 1.8727135980999776 L3.3966057020489258 1.8813952381000263 L3.3866838270490076 1.8873897040999736 L3.3787256560489665 1.8934875231000206 L3.3659099020489647 1.9165352130999906 L3.3579517310489235 1.9265604411000083 L3.346686269048969 1.9334850830999812 L3.36363613804897 1.9395312250999552 L3.354127675048967 1.9551375070999768 L3.331183339048944 1.9711055250999152 L3.307412180048881 1.9784952540999257 L3.2957333070489154 1.9766349030999208 L3.273822499048971 1.9678499101000284 L3.263073801048928 1.9668163810999602 L3.252325104048931 1.9705370840999592 L3.239405995048908 1.9816475170999865 L3.2270036520489453 1.9851615141000423 L3.2054029030489586 1.9827327220999678 L3.1839055070489293 1.9758080800999949 L3.1613745820490022 1.97244911209998 L3.1364665420489315 1.980717342099922 L3.124580963048909 1.9913110100999916 L3.122307200048904 1.9984940341000481 L3.1189999080488873 2.002524796099948 L3.104220449048877 2.0038167060999967 L3.0956421610489384 2.0023180901000046 L3.0643262430489484 1.9928096270999163 L3.045516021048935 1.998287328099991 L3.020401275048921 2.0111547600999984 L2.9944597060489526 2.0210249580999857 L2.9728589580488984 2.0173042550999583 L2.966657786048894 2.0084159090999663 L2.967691314048973 1.9994758871000329 L2.9708952530489467 1.9900707760999694 L2.9711019580489006 1.9796321361000366 L2.966967844048976 1.970485408099961 L2.918805409048896 1.9137963621000438 L2.907893074048924 1.907430833100051 L2.9002018940489576 1.9029443110999864 L2.8691960340489358 1.8955545810999865 L2.8578272190489384 1.8911104070999727 L2.851626047048934 1.8904386140999918 L2.847905344048935 1.8931257891000257 L2.8436678770488824 1.8986034901000153 L2.8383968800489425 1.9036677810999834 L2.8312655330489305 1.9051147210999773 L2.8146257220488975 1.902995987100013 L2.809768137048958 1.8990685781000423 L2.807391022048928 1.8898701731000358 L2.8104916070488697 1.8757108311000081 L2.8185531310489536 1.8723518630999934 L2.8231006570489923 1.8687345120999908 L2.8161760150489057 1.853748347100037 L2.7968490290489525 1.8383487701000263 L2.775971750048991 1.8249128980999956 L2.754371002048937 1.8252746330999798 L2.7092058000489443 1.8334395101000212 L2.686158111048992 1.8290470120999203 L2.667968007048951 1.8202620191000278 L2.653085195048898 1.8109085850999804 L2.6105038140489354 1.770911027100027 L2.598618234048895 1.7635212961000093 L2.562961497048998 1.7568550370999958 L2.543014393048902 1.7495169830999941 L2.505807362048979 1.725694148099933 L2.4877206110489807 1.719182917099971 L2.4850982820488765 1.7192668830999764 L2.4667399790489766 1.719854711100055 L2.423331776048964 1.7297765870999626 L2.4009042040488806 1.732102026099966 L2.3747559300489867 1.7296732341000052 L2.3657642310489235 1.7220767980999483 L2.365970936048991 1.6846630610999966 L2.363490467048929 1.6787202710999622 L2.35367194504894 1.6682299551000312 L2.351604889048981 1.6632173410999656 L2.353465240048986 1.657119522100004 L2.362353586048921 1.6504015860999743 L2.3656608780489092 1.6451822670999547 L2.371035227048959 1.6329349521000154 L2.376099517048938 1.6245633701000486 L2.3786833390489575 1.6159334060999981 L2.376926341048967 1.6029109450999783 L2.3613200580489275 1.5845141350999654 L2.3139844450489546 1.5719567620999726 L2.300651926048938 1.5579524490999574 L2.3049927470489378 1.541984431100019 L2.3434400120489682 1.480231095100038 L2.344370188048937 1.4695340731000215 L2.3428198950489856 1.4612141670999677 L2.343956776048908 1.45217079210002 L2.3627669980489214 1.425557429099996 L2.3688648170489683 1.4246272531000272 L2.3796135150488977 1.4321720120999828 L2.3818872780489313 1.4146537021000256 L2.3872616270489813 1.3939831291000075 L2.3886052140489324 1.3764648191000504 L2.3794068090489544 1.3686616771000217 L2.348090891048936 1.3728474680999625 L2.3368254280489635 1.3697985590999338 L2.3322779030489427 1.3549157470999944 L2.305302805048991 1.3628739170999609 L2.1986426490489306 1.432327042099928 L2.1928548880489656 1.4401818590999653 L2.190167714048921 1.4500520581000274 L2.192544830048969 1.4560465240999747 L2.196265533048968 1.4610591390999446 L2.197299062048951 1.4679321040999866 L2.1896509490489917 1.4998681390999877 L2.182622954048976 1.515732804099997 L2.173424550048959 1.5271532950999926 L2.16257249904893 1.5317524970999443 L2.120921294048908 1.536041641100013 L1.981498281048938 1.5806384031000107 L1.9518360080489527 1.5839973710999402 L1.9443785340489468 1.5826761650999686 L1.7943262420489772 1.5560920971000485 L1.7326802600489897 1.5618401690999235 L1.7178451230488987 1.5632234450999931 L1.7044092500489354 1.5607429761000162 L1.6483919970489138 1.541260961100022 L1.6490923030489695 1.5413018881000369 L1.6563501680488981 1.541726049100049 L1.6551099340489328 1.5270499420999784 L1.6496322320489538 1.5117537181000102 L1.6448780000489718 1.5104618080999614 L1.6490121150489712 1.498679581100049 L1.6540764050489498 1.4911864980999212 L1.6613111060489372 1.4854504140999722 L1.6796045630489926 1.4744433340999592 L1.7027556040489982 1.4637979900999767 L1.7267334690490044 1.4560982010999908 L1.7270435280489052 1.4495352941000021 L1.7201188860489038 1.4415771230999326 L1.7141244200488996 1.4321720120999828 L1.697277903048895 1.389022192099958 L1.6873560280490052 1.3857665770999859 L1.6766073300489053 1.3868517810999776 L1.6566602270489694 1.3926912190999587 L1.642500884048924 1.3880920161000176 L1.6448780000489718 1.3700052641000013 L1.6641016330488823 1.3299043531000052 L1.6694759820489606 1.3117142491000493 L1.674023508048971 1.3035493730999406 L1.6846688530489713 1.293782527099978 L1.7082333060489772 1.2819486240999822 L1.7180518280489379 1.2747139230999949 L1.7204289440489857 1.2642752850999557 L1.7143311250489388 1.2577640540999937 L1.7019287820489764 1.2507877351000047 L1.6884929100489172 1.2453617100999281 L1.6795012100489783 1.2432946520999621 L1.6669955140489732 1.246705297099993 L1.6664787490489301 1.2531131741000365 L1.6677189830489807 1.2599861411000006 L1.6603809300489685 1.264637019099979 L1.6419841200488987 1.2591076410999733 L1.6145956110489363 1.2214355221000233 L1.5939250380490035 1.209601619099999 L1.572634348048946 1.201695124099956 L1.5394580780489333 1.178130672099968 L1.5200277400489552 1.172187882099962 L1.4988404020489794 1.173634822099956 L1.4352783910489064 1.1907913981000036 L1.4126441140489545 1.1909464261000267 L1.39476406804891 1.1854687250999518 L1.377607493048937 1.1777689370999553 L1.356936920048919 1.1710510001000216 L1.3153890680489395 1.1677953851000495 L1.2717741590488982 1.1699141181000243 L1.25823493404891 1.1731180580999876 L1.2501734100489115 1.179009171100006 L1.2321900120489273 1.1985945391000143 L1.2278491920489456 1.2069144440999935 L1.2251620170489401 1.2099116770999956 L1.220614492048976 1.211927059099935 L1.2189608450489358 1.2109968830999946 L1.2175139050489419 1.2115653230999612 L1.213586497048989 1.2180248770999924 L1.1784465230489287 1.1969408930999634 L1.1696615290489332 1.1560648350999543 L1.1695581760490041 1.109401017099998 L1.1610832410489094 1.0707470460999957 L1.1448568420489051 1.0518851470999664 L1.125013091048909 1.039741186099974 L1.103102284048954 1.0327648680999744 L1.0804680060489273 1.0297159580999278 L1.015872467048946 1.0294575760999578 L1.0034701230489942 1.023566463099968 L1.0131852920489406 1.0124560291000364 L1.0147355850489488 1.004394507100045 L1.0082243540489868 0.9991751870999508 L0.9938583070489768 0.9963846590999879 L0.979595611048917 0.9971081290999848 L0.9693636770489276 1.0013972730999399 L0.9594418020489242 1.0077534740999567 L0.945902577048936 1.014419734099988 L0.9020809620489514 1.0245999910999615 L0.8777930390489486 1.0264603420999663 L0.8603264050489043 1.02330808009998 L0.8166081440489235 1.0087870030999397 L0.8034823300489462 1.0021724191000487 L0.7877726950489672 0.9893049880999456 L0.7826050510488995 0.9779361730999767 L0.7810547580489482 0.9460518141000023 L0.7545964250489545 0.8897761791000107 L0.7465349010488991 0.8608373770999549 L0.7604875380489728 0.8441458891000195 L0.7491187230489755 0.8203230541000437 L0.7411605520489344 0.8110729731000106 L0.7277246800489605 0.8082824450999624 L0.7136686900489577 0.8070422111000255 L0.705710520048906 0.8011510970999325 L0.69341152904894 0.7821341710999548 L0.6795378440489186 0.7663087641000175 L0.6629224340489612 0.7473559321000209 L0.6459725640489422 0.7371756740999444 L0.6200309960489063 0.7321630610999819 L0.5405439180489067 0.7479857230999727 L0.48815274004897 0.7584146891000216 L0.4651050510489041 0.767561417100012 L0.4469149470489766 0.7800154370999905 L0.41683926304889507 0.8131400300999871 L0.40361009704900663 0.8195995840999615 L0.3880038140489672 0.8174808500999688 L0.3834532090489189 0.816156836099978 L0.30346117104889014 0.7928828690999978 L0.2849610080489766 0.7830126700999926 L0.27969001204894095 0.7768631741000149 L0.2662541400489671 0.7566576900999564 L0.2605697320489311 0.7500431070999412 L0.22336270104892275 0.727460505099998 L0.21674811704894648 0.7199674230999733 L0.21364753204897635 0.7131978110999455 L0.208583241048923 0.7074100500999521 L0.19545742704894575 0.7030175530999827 L0.1859489640489711 0.7023457600999734 L0.16734544804890117 0.7039994050999496 L0.15918057204890612 0.7037927000999673 L0.14450446504900594 0.701828995100044 L0.1371664120489937 0.6997619370999928 L0.13189541604887278 0.6940775301000315 L0.12331712804893424 0.6814168050999854 L0.11876960204892395 0.6781611901000133 L0.10667731704892969 0.6742337800999394 L0.10347337804895584 0.6708231351000222 L0.10450690704893884 0.6662239330999853 L0.11225837104893355 0.6551135001000432 L0.11339525304895925 0.6486022700999854 L0.09365485604899515 0.6047289790999741 L0.09944261604897076 0.5955822500999659 L0.122490305048923 0.5810094961000232 L0.1283814180489129 0.5750150300999906 L0.12517747904893906 0.5551196040999855 L0.10946784404898846 0.5401334390999182 L0.07370775304897403 0.5150703690999876 L0.06378587804897062 0.49576922109994825 L0.05376065004895292 0.45163754809996703 L0.038527252594543704 0.42870695538121595 Z" fill="black" stroke="black" stroke-width="0.5" vector-effect="non-scaling-stroke"/></svg>