<svg xmlns="http://www.w3.org/2000/svg" viewBox="0 0 1.482510601319973 2.6633289053999647"><path d="M0.0579069543014441 2.1242442338912753 L0.06669391953721515 2.0209973923702904 L0.08497922809357306 1.7398607733168632 L0.10184178048061199 1.480599030366463 L0.1003187515578361 1.1958377569679186 L0.09482923026783396 0.9186264882144286 L0.09055045065997547 0.702555566699985 L0.08967195066003342 0.615429101700002 L0.0971133576599641 0.5757932776999581 L0.11848156165996215 0.5465960937000176 L0.20160310266004444 0.5176572916999618 L0.22302298465996273 0.5247886396999917 L0.2395077656600506 0.5390513346999768 L0.25446809365999457 0.555019351700011 L0.27128877165998233 0.5674216956999629 L0.2832001896600218 0.5686102536999869 L0.2945431666599916 0.5663364906999817 L0.3040257916599671 0.5684035486999477 L0.3177458846600132 0.5965155276999639 L0.3305874776600035 0.6059206376999242 L0.3707142276599882 0.6283998857000341 L0.3796800886600238 0.6259194176999614 L0.3856745546600564 0.6178578936999628 L0.3901962426599823 0.5957403806999793 L0.39464041665999616 0.5885573576999974 L0.44569673065996085 0.5518670896999396 L0.4551018416600243 0.5412734216999553 L0.4694162136599971 0.5021543616999367 L0.4741704446599897 0.493110986699989 L0.4890274196599478 0.4812254066999486 L0.5026958356600346 0.4735772956999682 L0.5146589296600155 0.4649473307000136 L0.5243999376600357 0.45014203270001474 L0.5275521996599934 0.43936749669997255 L0.53060110966004 0.4167848956999336 L0.5333399606599869 0.4068371826999311 L0.558196324660031 0.3668654626999768 L0.5615294536600288 0.3556258376999182 L0.5580929716600167 0.34169903969994664 L0.5544239446600159 0.33880515969995884 L0.5828976586600447 0.31862551269996686 L0.6120948426599853 0.3052671557000366 L0.6240062606600247 0.29655967669997096 L0.6340573266600416 0.28144431969995765 L0.6369876946600357 0.2698416477000052 L0.637881382659998 0.2663031246999452 L0.6395608666599344 0.2504901366999519 L0.6433332466600632 0.23348859069993466 L0.6529709006599944 0.21739138169995442 L0.6838734076599735 0.18336245169992083 L0.69624991366004 0.16465558270003555 L0.6997122336599944 0.15318341470002395 L0.7036396426600504 0.12781028570002206 L0.712657179659999 0.10378074570000706 L0.7180056906600498 0.07355003269996985 L0.7232250106599736 0.06272381969994001 L0.7308472836600401 0.055308252700015714 L0.7618014676600353 0.0323639166999925 L0.7718525336599953 0.03344912069998429 L0.78110261466 0.03835838270002512 L0.7914120636600046 0.041148909699970204 L0.8002228946599814 0.039986189699973806 L0.8201958356600301 0.03308738570000003 L0.8310737246599729 0.02786806669998043 L0.8378174986600015 0.02611106770000049 L0.8430626576599423 0.027919742699978656 L0.8526744736600449 0.03675641269997243 L0.8602709096600165 0.04117474769999774 L0.8661361846600073 0.04024457170002904 L0.8719756206599811 0.03716982369998334 L0.8795978946599519 0.03507692870003609 L0.9415320986599909 0.03458600269998158 L0.9472242306599696 0.035519834699982766 L0.9472242306599696 0.03910056369994663 L0.9644361446599987 0.054074521699988054 L0.944782824659967 0.07856996469996602 L0.867349556659974 0.13191469169998982 L0.8600660276599683 0.1462782976999506 L0.8714999466599807 0.1619439886999885 L0.8856601026599833 0.16279848069996206 L0.9335523556599696 0.14204652769996073 L0.9279371216599657 0.15661358469998277 L0.9186190876599767 0.1720758246999594 L0.895710558659971 0.19978578469999775 L0.8902173946599987 0.2086155376999841 L0.8930657016599639 0.2131728296999995 L0.9007968216599807 0.2126845476999506 L0.909626574659967 0.20662172269999246 L0.9264722776599683 0.18855531669998982 L0.9596347126599767 0.16572816769996734 L0.9753004026599683 0.15864808969996602 L0.9919019646599736 0.15571840269996073 L1.0142408326599934 0.15872946969994928 L1.0432935666599974 0.17223858469998277 L1.0563957806600115 0.17622621469996602 L1.0776360146599586 0.17313376669994796 L1.107909451659964 0.15311423570000215 L1.1425367306599696 0.14294170969998277 L1.1542961706599613 0.14143617569999378 L1.159504504659992 0.1451389756999788 L1.157551379659992 0.15925844169998982 L1.152017524659982 0.16849509469994928 L1.132160754659992 0.18306215269996073 L1.1093336056599696 0.1924208766999982 L1.1048983846599754 0.19665264669998805 L1.104572863659996 0.20759828469999775 L1.1117750116599723 0.20991762069996867 L1.1205233846599754 0.20641827169998805 L1.128010363659996 0.1945367616999647 L1.136189074659967 0.18904359769999246 L1.146402290659978 0.1847711366999647 L1.1560865356599948 0.18306215269996073 L1.159382433659971 0.1885146266999982 L1.1674797646599586 0.30676006869998673 L1.159504504659992 0.39847556369994663 L1.1562492956599613 0.41410056369994663 L1.142251899659982 0.4380263446999493 L1.1389966916599974 0.45369203469999775 L1.1013990356599948 0.5455296006999788 L1.0843091916599974 0.5567193786999951 L1.0841871216599657 0.5569228296999995 L1.0427239056600115 0.6348850686999867 L1.0487867306599696 0.6607232846999977 L1.0367017696599987 0.7437717876999841 L1.0122877076599934 0.8264947696999911 L1.0043531366599723 0.8432184026999607 L0.9783521606599948 0.8728814886999885 L0.9678541136599961 0.8912327256999788 L0.9633375116599723 0.9126357196999493 L0.9677320436599643 0.9366021916999898 L0.9798170046599921 0.9487685327000008 L1.0154615356599948 0.9661432066999964 L1.022907824659967 0.9812799256999938 L1.0324699986599626 0.9895807066999964 L1.074380806659974 0.9966200946999493 L1.0837395306600115 1.0048394956999687 L1.0716952596599754 1.0242486756999938 L1.0458977336600128 1.0240045346999977 L1.02026296765996 1.0203424256999938 L1.0087069776599833 1.029375628699995 L1.0061028116600141 1.0448785586999634 L0.9908169344850677 1.0938054016787007 L0.964761665659978 1.1772027776999607 L0.9550774206599613 1.2787652776999607 L0.9540601686599643 1.2996799906999854 L0.9505201296599921 1.3389459416999898 L0.9576002076599934 1.360064105699962 L0.9615064576599934 1.3791070746999594 L0.9616692176599599 1.381100889699951 L0.9624830196599987 1.389930641699948 L0.9677320436599643 1.4129205506999938 L0.9716382936599643 1.425412412699984 L0.9811190876599767 1.4305393656999854 L1.002440701659964 1.4374566836999634 L1.0145663526599833 1.4526747827000008 L1.0228671346599754 1.4720025816999964 L1.0275871866600141 1.4937310976999925 L1.0301913526599833 1.5254286886999466 L1.03596934766 1.5497613706999687 L1.0336093216599807 1.5613987406999854 L1.0273430456599613 1.5639215276999607 L1.0185539836600128 1.5637994566999964 L1.0087069776599833 1.5672174256999938 L0.9977613396599736 1.5769423607000022 L0.9840894646599736 1.5921197696999911 L0.972574165659978 1.609453753699995 L0.9677320436599643 1.6255263446999493 L0.9721672646599586 1.643918271699988 L0.9916985146599586 1.673459287699984 L0.995564074659967 1.690711891699948 L0.9973137486599626 1.690793271699988 L1.00081309766 1.693438128699995 L1.003376574659967 1.697954730699962 L1.002440701659964 1.7037327256999788 L0.9987379026599683 1.704709287699984 L0.985554308659971 1.7030003036999801 L0.9813632276599833 1.7037327256999788 L0.968667915659978 1.7134576596999977 L0.9635409626599767 1.7195204857000022 L0.9615064576599934 1.728594378699995 L0.9593091916599974 1.7334771916999898 L0.9543449986599626 1.738360003699995 L0.9494214966599657 1.7451552516999982 L0.9472242306599696 1.7555719176999673 L0.9482414836600128 1.7675348086999634 L0.9529615356599948 1.7833225686999867 L0.9540601686599643 1.7930881936999867 L0.9448235146599586 1.863970355699962 L0.9386386186599793 1.8748346136999885 L0.9298902466599657 1.8834202256999788 L0.9198804806599696 1.8961969176999673 L0.9084465616600141 1.9370497827000008 L0.9029940876599767 1.9495416446999911 L0.8995761186599793 1.9671604596999828 L0.9062086056599696 1.9923069436999867 L0.9020582146599736 2.0015435976999925 L0.8949374466599807 2.010373350699979 L0.8881828896599586 2.011024391699948 L0.8851718216599807 1.9954400816999964 L0.9165032016599639 1.8817926206999687 L0.9333489056600115 1.864621396699988 L0.9397779416599974 1.8545709416999898 L0.9134107546599921 1.867632464699966 L0.886392524659982 1.9331842226999925 L0.8646640096599754 1.9575982846999977 L0.871255806659974 1.958615537699984 L0.8851718216599807 1.9650445746999594 L0.8784172646599586 1.9683404726999925 L0.873208931659974 1.9697646266999982 L0.8670240356599948 1.9688694436999867 L0.8578687616599723 1.9650445746999594 L0.8599439576599934 1.9738336366999647 L0.862507433659971 1.9779840276999607 L0.8677564576599934 1.9790826596999977 L0.8782545046599921 1.9787164496999594 L0.8782545046599921 1.9849013446999493 L0.8676343866599723 1.9917779726999925 L0.8601067176599599 2.00182842869998 L0.8583570436599643 2.0138726996999594 L0.861001899659982 2.0192437926999673 L0.8646640096599754 2.0264866316999814 L0.845865181659974 2.040077126699998 L0.825398058659971 2.079627907700001 L0.8065992306599696 2.087969378699995 L0.8046461056599696 2.0934625426999673 L0.8028150506600014 2.1172255636999466 L0.8032219516599639 2.122108376699998 L0.7975253376599767 2.125444964699966 L0.7922356236599626 2.1255263446999493 L0.7888990356599948 2.123858050699994 L0.7888990356599948 2.122108376699998 L0.7825513796599921 2.1261773866999647 L0.780476183659971 2.1282525816999964 L0.7792554806599696 2.1308160586999634 L0.775308540659978 2.1356988706999687 L0.7624504676599599 2.1656060976999925 L0.7585035276599683 2.1704889096999977 L0.7506910276599683 2.1747613706999687 L0.7243645306600115 2.208045876699998 L0.7213941526599683 2.213335589699966 L0.7172437616599723 2.2265191836999634 L0.7144361446599987 2.2313206156999854 L0.7137851026599833 2.2342096136999885 L0.7150871866600141 2.2427545346999977 L0.7144361446599987 2.2455621526999607 L0.7116692176599599 2.2462131936999867 L0.7035311966599807 2.244951800699994 L0.7007642696599987 2.2455621526999607 L0.6963697386599961 2.2480035586999634 L0.6842847776599683 2.250607725699979 L0.6796867956599613 2.2530491316999814 L0.6775709106599948 2.2569553816999814 L0.6728508586600128 2.2729059026999607 L0.6728508586600128 2.2313206156999854 L0.6660149206599613 2.2313206156999854 L0.6591382936599643 2.2530491316999814 L0.6451002076599934 2.2562229596999828 L0.6313062616599723 2.2478814886999885 L0.6250806756600014 2.235064105699962 L0.6211744256600014 2.2293674906999854 L0.612751574659967 2.2287164496999594 L0.6044101026599833 2.2302626726999506 L0.6008293736599626 2.2313206156999854 L0.5995679806599696 2.2349013446999493 L0.6000155716599807 2.2524794696999493 L0.597126574659967 2.2592340276999607 L0.5899244256600014 2.2615126726999506 L0.5561516396599586 2.266069964699966 L0.5503736446599987 2.2698134546999995 L0.5456535926599599 2.2745335066999814 L0.5384921346599754 2.2786432066999964 L0.5251457806600115 2.28035219169999 L0.5109856236599626 2.2866998476999925 L0.5068352336600128 2.302365537699984 L0.508991808659971 2.341183896699988 L0.505329699659967 2.362017230699962 L0.4958489056600115 2.3771539496999594 L0.4817701296599921 2.3865126726999506 L0.464314074659967 2.3896051206999687 L0.45922781166001414 2.392209287699984 L0.45332774665996567 2.398516253699995 L0.44840424365997933 2.4062880636999466 L0.4440097126599767 2.4236627386999885 L0.43790619665998065 2.428749001699998 L0.4292798946599987 2.4320042096999828 L0.4196363396599736 2.43737530369998 L0.4085279416599974 2.446571266699948 L0.4035637486599626 2.4516982196999493 L0.3991285276599683 2.4578831156999854 L0.39672781166001414 2.4689508246999594 L0.3975416136599961 2.480018532700001 L0.39477468666001414 2.488604144699991 L0.3686516396599586 2.49596905369998 L0.35139903565999475 2.5060601996999594 L0.3346754026599683 2.5193658636999885 L0.32340424365997933 2.5329970476999506 L0.3199048946599987 2.5578180116999647 L0.34077891865996435 2.59948467869998 L0.3370761186599509 2.6229221786999943 L0.29916820666005606 2.637217837699964 L0.21072399366002514 2.6151520026999577 L0.17865876666002123 2.6153587076999116 L0.15013337665996573 2.6200612626999913 L0.07360058066007014 2.6165989426999516 L0.055281285659987134 2.6239369956999354 L0.0462120716600225 2.624453759699989 L0.03450735866005061 2.628226139700004 L0.02505057165998892 2.632825341699956 L0.022802647660057573 2.6360292806999297 L0.014534417660001964 2.6229551436999685 L0.015024349660052394 2.610376668699999 L0.01691153365996456 2.561925276699995 L0.04252976513870976 2.330737916933387 L0.0579069543014441 2.1242442338912753 Z M1.4127597126599767 1.1283746526999607 L1.425251574659967 1.1177138446999493 L1.436848254659992 1.1355768006999938 L1.4536939576599934 1.1836318136999466 L1.4490552856599948 1.1909967226999925 L1.4473463006600014 1.2008844176999673 L1.4474683716599657 1.2245660586999634 L1.440632433659971 1.2245660586999634 L1.4409986446599987 1.214230771699988 L1.440632433659971 1.2108941836999634 L1.4349765096599754 1.2126031676999673 L1.4311516396599586 1.2154107846999977 L1.4286288526599833 1.2193577256999788 L1.4264315876599767 1.2245660586999634 L1.4272453896599586 1.1639378036999801 L1.4238274206599613 1.138750628699995 L1.4127597126599767 1.1283746526999607 Z M1.423298449659967 0.9713108506999788 L1.4353020306600115 0.9717177516999982 L1.4495435666599974 0.975054339699966 L1.4618319776599833 0.9849013446999493 L1.467976183659971 1.0048394956999687 L1.4638664836600128 1.019976214699966 L1.4431959106599948 1.059038714699966 L1.4299309366600141 1.0761285586999634 L1.4197584106599948 1.093137021699988 L1.4052727336600128 1.102251605699962 L1.3854159626599767 1.0873590276999607 L1.375162056659974 1.1036350686999867 L1.362507433659971 1.1129937926999673 L1.3509921346599754 1.125078753699995 L1.3438306756600014 1.1494521266999982 L1.3376050896599736 1.1941705506999938 L1.335163683659971 1.2014540796999995 L1.3300367306599696 1.211626605699962 L1.325520129659992 1.2240777776999607 L1.3245435666599974 1.2382379336999634 L1.3103020306600115 1.2245660586999634 L1.3140455196599987 1.2212294696999493 L1.3153476026599833 1.2178928816999814 L1.315754504659992 1.214474912699984 L1.31713796765996 1.2108941836999634 L1.319538683659971 1.1896539496999594 L1.3287753376599767 1.154375628699995 L1.3335767696599987 1.1064019956999687 L1.3415113396599736 1.0906142357000022 L1.35432872266 1.0791803166999898 L1.3717440876599767 1.0669325946999493 L1.392251899659982 1.0464654726999925 L1.4023430456599613 1.045610980699962 L1.4172356236599626 1.0515517357000022 L1.4297681756600014 1.0532607196999493 L1.4394117306599696 1.044553037699984 L1.4471021606599948 1.0249404077000008 L1.4489739056600115 1.0039443136999466 L1.440632433659971 0.9912490016999982 L1.429605415659978 1.000689105699962 L1.4203687616599723 1.0057346786999801 L1.4127597126599767 1.0048394956999687 L1.4132479936599793 0.998491839699966 L1.423298449659967 0.9713108506999788 Z M1.1737867306599696 0.8750787536999951 L1.1874992956599613 0.8863092226999925 L1.197427681659974 0.910601214699966 L1.2072339966599657 0.9639052516999982 L1.2004387486599626 0.9639052516999982 L1.1953931756600014 0.9542210066999814 L1.186604113659996 0.9304986756999938 L1.1737867306599696 0.8750787536999951 Z M1.09057546765996 0.8341038186999867 L1.1115308716599657 0.8248264756999788 L1.1682935666599974 0.7876357196999493 L1.1799309366600141 0.782590146699988 L1.17073497266 0.8150608506999788 L1.1473788526599833 0.8350396916999898 L1.1161695436599643 0.8450494566999964 L1.0837395306600115 0.8477756936999867 L1.083658149659982 0.8430963316999964 L1.085041613659996 0.8400445746999594 L1.09057546765996 0.8341038186999867 Z M1.3376050896599736 0.49092348069996206 L1.3438306756600014 0.49092348069996206 L1.3359367956599613 0.5341363706999687 L1.3164869256600014 0.5739312926999673 L1.2852369256600014 0.6031060976999925 L1.2420240356599948 0.6143772566999814 L1.2420240356599948 0.6076226996999594 L1.2524000116599723 0.6079482196999493 L1.2556959106599948 0.6076226996999594 L1.2921542436599793 0.5825982846999977 L1.3051343866599723 0.5650608506999788 L1.3103020306600115 0.5393447046999995 L1.2945142696599987 0.5401178166999898 L1.298746040659978 0.5091119566999964 L1.31713796765996 0.44657126669994796 L1.3192945436599643 0.44217673570000215 L1.3239332146599736 0.43859600669998144 L1.3286939576599934 0.43391664469999114 L1.3307691526599683 0.4260634546999995 L1.331379504659992 0.4162978296999995 L1.346190701659964 0.36364483469998277 L1.3560377076599934 0.35477439169994796 L1.3717440876599767 0.3611627386999885 L1.393757433659971 0.34720603270000083 L1.4037265096599754 0.36087790770000083 L1.4020582146599736 0.3830947046999995 L1.388833931659974 0.3947320746999594 L1.3814283326599934 0.4060439226999506 L1.361001899659982 0.4598362406999854 L1.3512769646599736 0.4778619566999964 L1.3444003376599767 0.47334535569996206 L1.3376050896599736 0.47041566769996734 L1.335163683659971 0.480913714699966 L1.331379504659992 0.4883600036999951 L1.3256015096599754 0.49373109769999246 L1.31713796765996 0.49775941769996734 L1.31713796765996 0.5045139756999788 L1.3245435666599974 0.5188775816999964 L1.3339429806599696 0.5056939886999885 L1.3361809366600141 0.49971254269996734 L1.3376050896599736 0.49092348069996206 Z M1.1554354936599793 0.9994684026999607 L1.1740308716599657 1.0131402776999607 L1.1833489056600115 1.0263238706999687 L1.1812330196599987 1.0362115666999898 L1.1784254026599683 1.0407281676999673 L1.1781812616599723 1.0467503036999801 L1.173990181659974 1.0557835066999814 L1.167072863659996 1.0550510846999828 L1.165241808659971 1.0467503036999801 L1.1638990356599948 1.0259576596999977 L1.1625562616599723 1.021563128699995 L1.1545403116600141 1.0225803816999814 L1.1459140096599754 1.0187555116999647 L1.1401360146599586 1.011797503699995 L1.1367994256600014 1.0067926206999687 L1.1337476686599643 1.003985003699995 L1.133869738659996 0.9980849386999466 L1.1405836056599696 0.9938531676999673 L1.1554354936599793 0.9994684026999607 Z M1.28198171765996 0.4259820746999594 L1.2877597126599767 0.4236627386999885 L1.2907300896599736 0.42647035569996206 L1.288532824659967 0.43688702169998805 L1.2804354936599793 0.44372295969998277 L1.2696119256600014 0.4455947046999995 L1.266682238659996 0.4392877386999885 L1.2738843866599723 0.42940004269996734 L1.278970649659982 0.42614483469998277 L1.28198171765996 0.4259820746999594 Z M1.3115227336600128 0.3982314226999506 L1.313923449659967 0.4022190536999801 L1.3146558716599657 0.4129612406999854 L1.3087964966599657 0.42337790770000083 L1.3005364056600115 0.42927797269999246 L1.297037056659974 0.4285862406999854 L1.29573497266 0.4234592876999841 L1.294148058659971 0.41951234769999246 L1.2958163526599833 0.41605368869994663 L1.300943306659974 0.4132867616999647 L1.3062330196599987 0.40897361070000215 L1.3080233846599754 0.4033990666999898 L1.309895129659992 0.39969626669994796 L1.3115227336600128 0.3982314226999506 Z M1.3726392696599987 0.30863181369994663 L1.376301379659992 0.3103814886999885 L1.3769117306599696 0.3144098086999634 L1.376301379659992 0.3195367616999647 L1.3727613396599736 0.32954652769996073 L1.3632398556599696 0.34126527769996073 L1.3575025506600014 0.33650453469999775 L1.3602694776599833 0.3194146916999898 L1.3642164186599643 0.31343324569996867 L1.367349556659974 0.31579327169998805 L1.3678785276599683 0.31375876669994796 L1.3662102336600128 0.3094049256999938 L1.3666171346599754 0.3076959416999898 L1.3700757936599643 0.3083876726999506 L1.3726392696599987 0.30863181369994663 Z" fill="black" stroke="black" stroke-width="0.5" vector-effect="non-scaling-stroke"/></svg>