<svg xmlns="http://www.w3.org/2000/svg" viewBox="0 0 3.1390890139798984 6.309057342720042"><path d="M2.8672947514900002 0.765324776360119 L2.8452805914899457 0.7880624063600994 L2.7758274664899503 0.9045410843600497 L2.7639418874899278 0.949602933360099 L2.757637362490023 0.9648216423600378 L2.737586906489959 1.0186168083600524 L2.7393439044899495 1.0416128213600917 L2.754226717489992 1.0687946243600823 L2.933440584489979 1.3179525423600769 L2.9576251544899677 1.3406126583600457 L2.965893384489995 1.3419820833600102 L2.975298494489955 1.3403025993600597 L2.976477875489941 1.3403648443600549 L2.984600253489994 1.3407935263600894 L2.9929718354899606 1.3487516963600559 L2.982739901489971 1.3875865353600023 L2.982739901489971 1.4092389603600868 L2.9867706634899847 1.4292119013600217 L2.9942120694899828 1.4475570353600933 L3.004444002489983 1.4646360953600368 L3.004444002489983 1.4648944783600104 L3.025011222489958 1.5539588093600987 L3.0238743414899503 1.5834143753600092 L3.002170239489949 1.636072660360016 L3.000930005489927 1.6533842653601187 L3.005994295489991 1.6653215203600684 L3.0140558194899896 1.6736414263600228 L3.0228408124899673 1.6809278033600084 L3.0303855724899407 1.6895060903600427 L3.035346509489962 1.700228950360044 L3.04475162048994 1.7330434853600583 L3.0541567304899857 1.7441280803600723 L3.066972485489977 1.7479779743600279 L3.0811318284900224 1.7506134723600457 L3.093844230489971 1.7578481733600047 L3.1030426354899774 1.7771751583600537 L3.1080035734900164 1.8062689893600652 L3.108140279489966 1.8304887693601035 L3.1083136314898994 1.8612010373600771 L3.100768872489944 1.8880211053600693 L3.075240715490004 1.9379405383600403 L3.06624901548998 1.9646055783600804 L3.0652154874899864 2.0162303343601042 L3.0586009034899817 2.0347304963600426 L3.0434080334899605 2.05346320436003 L3.0278017504900063 2.0558403193600743 L2.9637229734900146 2.022715727360067 L2.9426389894899856 2.0190208613600635 L2.9230019454899505 2.025299548360069 L2.9034682534900256 2.044445666360078 L2.8968536704899535 2.053824938360025 L2.89406314348998 2.060181139360056 L2.893029614489997 2.079869860360093 L2.8891022064899303 2.091755440360034 L2.8638841074899872 2.130151029360066 L2.8433168874899835 2.175393745360056 L2.8442470624899627 2.194100613360037 L2.858509757490033 2.2169157593600364 L2.9265159434899957 2.286317208360005 L2.935507642489945 2.298900418360022 L2.9384015214899435 2.3145325393600604 L2.935724639489969 2.3324440363600463 L2.934887525489991 2.338045316360054 L2.9257924724900093 2.359981961360008 L2.913286776490004 2.3692062043600135 L2.898714022490033 2.3761050083600868 L2.883211092489951 2.3908069533600855 L2.8766998614899606 2.4069816763600773 L2.870498690489974 2.492402820360086 L2.8603701094900273 2.5122724083600776 L2.8280206634899585 2.5505388053600786 L2.8016656824899897 2.598132799360018 L2.7839923424899737 2.614488391360057 L2.7238409754900275 2.608002998360009 L2.684876945489954 2.6182607703599974 L2.6129433524899994 2.647509630360121 L2.596820304489917 2.659369371360059 L2.5880353114899393 2.6793681523600856 L2.585761548489934 2.702002428360034 L2.5892755454899614 2.7216653113600717 L2.6015745364899274 2.7524644653600507 L2.6095327074899686 2.7828760453600143 L2.6025047124899814 2.809075996360038 L2.569948560489941 2.8271369093600374 L2.55227522049001 2.826103381360058 L2.53274152849 2.8224860313600733 L2.5166184824899247 2.8273952913600073 L2.5090737224899797 2.8520449503600975 L2.5103139564899166 2.858788724360041 L2.5155849534899417 2.8715269653600917 L2.5144480714899444 2.876694608360099 L2.453469881489987 2.955759550360087 L2.4460284754899604 2.9622191033600433 L2.429905428489981 2.967619291360011 L2.4226707284900115 2.972941963360059 L2.4034470954899874 3.0038186313600495 L2.3995196864900166 3.031517199360069 L2.4062376224899324 3.059422473360046 L2.418950025489984 3.0908417443600786 L2.42236066948994 3.1075332313600246 L2.4222573164899828 3.1724646693600693 L2.416056144490007 3.193238594360013 L2.395488924489918 3.232099271360072 L2.3622093024899655 3.3346769903600393 L2.3469130784899406 3.3659412313600416 L2.322315097489941 3.382891100360043 L2.253998853489982 3.4004869253601147 L2.2423199794899986 3.4005902783600437 L2.232294751489981 3.395784370360049 L2.2225795824900345 3.3891956253600473 L2.211624178489963 3.3840279823600543 L2.2007721284900086 3.382736071360002 L2.1700763264899834 3.3837179243600577 L2.1593276284899687 3.3857333043601034 L2.148682284489958 3.3925545943600657 L2.140207348489959 3.40139126336007 L2.1305955334899593 3.4084709353600875 L2.117159660489996 3.4103312863600923 L2.0400584234899455 3.4040526003600906 L2.0432623624900046 3.4305626093600825 L2.041091951489939 3.493943754360105 L2.0356142504900347 3.5213322623600494 L2.0324103114899756 3.5274042443600155 L2.0211448494899074 3.5442249223600744 L2.0186643804899305 3.5462919803600403 L2.0204213794899957 3.554482694360063 L2.024658846489963 3.5566789433600565 L2.029619784490002 3.558435941360033 L2.0334438404899586 3.5654122593600324 L2.03303042848993 3.5806826453600724 L2.0205247314899353 3.6091563593601155 L2.0168040284900215 3.6245817743600117 L2.0180442634899762 3.6334442833600225 L2.023211906489969 3.648818021360002 L2.021971671489929 3.657680529360009 L2.0165973234899823 3.6629515263600343 L1.999750806490006 3.670625476360117 L1.9940663984899416 3.6781702353600725 L1.9937563404899734 3.688789741360056 L1.9938435074899772 3.6898798483600093 L2.0133332334899947 3.9336163433600593 L2.0156671474899284 3.962804024360098 L2.007812329489987 3.9965745723600765 L1.999854159489935 4.008356799359989 L1.9799070564899992 4.030706855360053 L1.9746360594899741 4.043212553360052 L1.974429354489935 4.052075060360055 L1.976909823489997 4.070549385360083 L1.976909823489997 4.079825305360091 L1.9692617114899988 4.121243965360053 L1.9680214774899767 4.140390083360062 L1.9716388274899614 4.164212918360038 L1.9793902914899562 4.186278755360023 L1.9990273354899912 4.227904121360043 L2.0058486254899677 4.249194811360114 L2.0053318614899993 4.271131457360072 L1.9974770434899725 4.289502429360072 L1.9870384034899544 4.306193916360103 L1.9792869394899313 4.323117948360009 L1.976599764490011 4.341411405360079 L1.974429354489935 4.4012010373600265 L1.9618203054900007 4.464530505360033 L1.9579962484899411 4.527575752360052 L1.954482251489999 4.536464098360073 L1.9442503174900096 4.555532702360056 L1.9419765544900045 4.56318081436004 L1.942589069489948 4.567663309360016 L1.9431134364900018 4.57150071936009 L1.9511749604900004 4.583748034360115 L1.962440422489955 4.612428454360101 L1.9864182864899718 4.63904181736004 L1.9953066324899922 4.6534078653600535 L1.9980971604899551 4.667773913360053 L1.9885357034900224 4.802548888360038 L1.9862115814900179 4.835308907360075 L1.9914825764899504 4.874531319360033 L2.011533032489986 4.9117383493600375 L2.041091951489939 4.946826647360071 L2.0632094654899404 4.9834652383600275 L2.0605222904899065 5.025271471360087 L2.0581451744899724 5.034211494360024 L2.0574217044899754 5.039844225360044 L2.0542177654900016 5.041859606359994 L2.032617016490015 5.037570462360025 L2.0221783784899756 5.037467109360096 L2.0145302654900163 5.041859606359994 L2.012049796489954 5.052918362360005 L2.03303042848993 5.298898180360029 L2.0319969004899647 5.312747464360088 L2.028689608489948 5.3222042513600645 L2.0207314374899923 5.332539538360068 L2.011533032489986 5.351504788360119 L2.007192212490004 5.358171048360036 L2.006158683490021 5.3650956903600235 L2.0099827394899776 5.3781181513600576 L2.0185610274900014 5.388866849360072 L2.044812654489938 5.410312569360103 L2.050600415490017 5.419769355360076 L2.0466730064899608 5.430569730360107 L2.0364410724899713 5.435995756359988 L2.0236253184899695 5.439768135360014 L2.0119464444899293 5.445297513360019 L1.9860048754899609 5.481264310360077 L1.9893121664899596 5.517541165360045 L2.0028513924900224 5.555885078360051 L2.007812329489987 5.597794665360043 L1.9971669844899864 5.639730089360045 L1.9944798104899704 5.661382515360019 L1.9995441004900343 5.68109707336008 L2.007192212490004 5.691251493360044 L2.0156671474899284 5.697323474360077 L2.025899081490003 5.700372383360106 L2.0383014244899655 5.701535103360031 L2.0441925384899733 5.706056791360057 L2.046156241490003 5.716211210360017 L2.049463533489991 5.762332425360045 L2.0438824794899872 5.773623726360016 L2.031583488489936 5.781711087360025 L2.0134967364900334 5.797756619360074 L2.002024569490011 5.819254015360018 L2.00171451048994 5.839743721360081 L2.0102927984899637 5.8819116903600435 L2.008225741489987 5.903073189360088 L1.9896977454899698 5.956800006360043 L1.9863149334899575 5.966609362360048 L1.982814999489996 5.987049951360051 L1.9751528244900172 6.031799181360059 L1.9747358538322786 6.092746113684216 L1.9741929374899385 6.0927848933600774 L1.5778713234899513 6.129609438360079 L1.497711818489968 6.147431703360086 L1.155426661489976 6.186290753360071 L0.8905340834899746 6.247203839360042 L0.8833331624899543 6.226335111360031 L0.9040037354899724 6.2154055463600475 L1.0324713464899915 6.18507148036001 L1.0532452724900239 6.18383124536007 L1.0344350504900106 6.110450711360032 L1.0150047124899473 6.035364856360035 L0.9892698494900358 5.994101225360028 L0.980691561490012 5.987693346360077 L0.9591941654899827 5.976660428359994 L0.9525795824899674 5.9712602413600155 L0.9504091724899766 5.96252692436005 L0.9528896414899535 5.941081205360108 L0.9516494064899135 5.931030138360088 L0.9453448824899979 5.922503527360066 L0.9287050704899755 5.90883511136005 L0.9261212494899738 5.90188463036006 L0.9247776624899373 5.890438301360051 L0.9175429614900352 5.887906156360062 L0.9077244384899714 5.888836332360031 L0.8983193284899258 5.8877511263600315 L0.8904645104899842 5.883100247360064 L0.8820929284900174 5.876408150360051 L0.87423811148998 5.868501656360097 L0.8682436454899474 5.860285102360068 L0.8650397054899841 5.850053169360082 L0.8656598224899668 5.840828926360077 L0.8674168214899467 5.832457343360092 L0.8672101164899644 5.824680041360084 L0.8562547124900064 5.804655423360048 L0.8433356044900009 5.794190946360006 L0.8369277274899574 5.782951321360047 L0.8451959564899951 5.760523750360052 L0.860076854489968 5.7406374583601 L0.8679335854899719 5.730138008360102 L0.8719643484899748 5.714660917360009 L0.8660732344899671 5.690528023360047 L0.8584251224899972 5.670064155360082 L0.8540843024899303 5.652830066360098 L0.8534641844899582 5.635751005360051 L0.8610089444899884 5.593763903360044 L0.8589418874899266 5.579862943360071 L0.8499501874899877 5.569062569360044 L0.8351180074899744 5.558008397360057 L0.8335170824900118 5.5568152543600196 L0.8222516194899541 5.540227120360102 L0.802821281489976 5.469172025360097 L0.8783722254900184 5.46968879036004 L0.8965623294899459 5.464314440360072 L0.8958388604899667 5.317450019360068 L0.8952187424899947 5.172290921360032 L0.8945986244900226 5.022997708360068 L0.8941459314899376 4.9247130293600225 L0.893749476490008 4.838638087360097 L0.893668449489958 4.8210462113600006 L0.8928416264899468 4.622815417360032 L0.8922215094899641 4.464530505360033 L0.894701978489941 4.3052120643600365 L0.8964589764900168 4.1906195763600085 L0.8858136314900165 4.104836697360087 L0.8807493414899525 4.095612455360085 L0.8748394374899036 4.093621571360034 L0.8719643484899748 4.089462959360107 L0.8769252854900245 4.06507168336009 L0.8769252854900245 4.047708402360074 L0.8784755784899474 4.039233467360065 L0.9113417884899562 3.9852832723600233 L0.9150624924899731 3.967609931360018 L0.9108250254899204 3.957843086360059 L0.8849868094899946 3.9253127723600176 L0.8799225184899413 3.914124825360078 L0.8784755784899474 3.9023425983600806 L0.8780985904900049 3.872480484360098 L0.8764085204899814 3.738605822360002 L0.8751682864899308 3.645872465360087 L0.8737213464899369 3.5367060013600327 L0.8720677004899997 3.411571520360029 L0.866693351490035 3.3842863643601095 L0.8587351814899833 3.3602051473600785 L0.8381679614899795 3.3243675413600347 L0.7760528894899963 3.259642809360047 L0.6961611254900006 3.1765987833600793 L0.6910405834899862 3.1687806173600723 L0.6720799074899517 3.13983100136001 L0.6576105064900233 3.09996263436007 L0.6507892174899794 2.998625150360029 L0.6393170494899678 2.970254788360025 L0.6221604744899949 2.9785488563600797 L0.6073810144899667 2.963588529360111 L0.5972524334899347 2.939145577360067 L0.5940484944899609 2.9187850623600458 L0.5981826094899887 2.9057884403600998 L0.6159593014900011 2.8787099893600487 L0.6221604744899949 2.8660234243600957 L0.623400708490017 2.8558173303600274 L0.6230906494899457 2.8357410353600745 L0.6254677654899936 2.825793322360072 L0.6269147054899875 2.8136235223600625 L0.6190598884900353 2.7669338663600787 L0.6178196534900238 2.689264188360072 L0.6159593014900011 2.579994372360078 L0.6148362574899764 2.506341366360063 L0.614719067489979 2.498655667360085 L0.6019033124899877 2.464626737360037 L0.496380037489935 2.3950444213600424 L0.3531329674899908 2.300657417360087 L0.2680004694899836 2.2445445603600565 L0.2104026614899297 2.2065804723600326 L0.11531802648998024 2.143922798360011 L0.03966372848993416 2.09400336536004 L0.03160220648994283 2.078939684360053 L0.030775382489999004 2.0559436723600033 L0.04472802049000535 1.9529525433600146 L0.059404126490001374 1.8972453483600749 L0.060127596489998325 1.858152127360059 L0.05216942649003187 1.768054267360073 L0.06653547449003128 1.734619616360094 L0.12089908149000195 1.6834082723599852 L0.13381818949000746 1.6650114623600718 L0.13691877449003442 1.6547278523599989 L0.13846906748998578 1.6318868693600752 L0.1404327724899943 1.6211898483600766 L0.15603905448995903 1.5917084423600603 L0.15459211548995455 1.5808822303600198 L0.1462205324899699 1.5605733923600997 L0.14384341749002516 1.5497988563600718 L0.14673729649002354 1.52992926836008 L0.1723688074899954 1.4683567993600537 L0.20285790248997415 1.4849966103600725 L0.21629377548993745 1.4868052853600648 L0.23417382048996416 1.4869603143600916 L0.23841128749001683 1.481611803360055 L0.24089175648999372 1.4699329303600752 L0.2399615814899576 1.45820237936009 L0.23417382048996416 1.4528280313600295 L0.22621564949000827 1.4491073283600162 L0.22270165248995255 1.4400122753600488 L0.2221848884900126 1.4287984893600925 L0.2233217694899352 1.418695747360049 L0.22683576748998036 1.4163703073600278 L0.23531070248998986 1.4036837443600678 L0.24120181548997977 1.3916172963600975 L0.24781639848999504 1.382728950360077 L0.25226057248998046 1.3809719523601007 L0.2569114514899482 1.3825997593600494 L0.27882225848990316 1.3860362423600794 L0.28554019349002857 1.3907387973600596 L0.29060448448999665 1.39541551536003 L0.29597883348996135 1.397585925360021 L0.29887271348994915 1.3997563343600081 L0.30414371048997424 1.4095231813600595 L0.30590070848996476 1.411822782360078 L0.3122052334899834 1.411512723360092 L0.32305728449001236 1.406086697360026 L0.32698469348998316 1.4050273313600474 L0.35778384648995853 1.4083604613600489 L0.36791242749001896 1.411822782360078 L0.370599601490035 1.41673204336003 L0.37773094948997965 1.4266797563601177 L0.38506900248996345 1.4334235313600505 L0.38837629448998 1.4289018433600251 L0.3895131764899773 1.4128563103600715 L0.37814436048999056 1.4013066283600342 L0.37183983648998975 1.3906871213600471 L0.3701861904900241 1.3798092323599906 L0.3699794844899671 1.3684920933601052 L0.36791242749001896 1.3566065143600827 L0.3660520754899963 1.3566581913599993 L0.35654361148991853 1.35236904736003 L0.3536497324899486 1.3504053423600926 L0.3530296144899765 1.3458061403600556 L0.35478661348995644 1.3333779583600762 L0.3536497324899486 1.3292955203600645 L0.34424462148997037 1.3271509483600727 L0.33794009648998014 1.3327578403601041 L0.33421939348995267 1.3341272663600723 L0.3331858644899697 1.3190377473600723 L0.33835350748999105 1.316815661360069 L0.3713230724899361 1.3094776083599857 L0.37711083149000757 1.305446846360086 L0.3839321214899556 1.2872309043600314 L0.38837629448998 1.2821149373600509 L0.3990216404899698 1.2822182893600758 L0.41896874248997307 1.2915975623601117 L0.42930402949000523 1.2951632363599987 L0.42413638548999444 1.2779291463600106 L0.42020897649002364 1.2438485393600462 L0.40150210848995727 1.213514473360009 L0.4064630464899963 1.2009829383601005 L0.41679833248989695 1.1912419313600555 L0.42723697148992557 1.1755581343600898 L0.4368487884899608 1.1831028923600417 L0.44439354648998375 1.1944975463600418 L0.4430499594899473 1.1996135133600365 L0.4518349534899144 1.1997427043600641 L0.45710594949003536 1.1972105583600712 L0.46227359248994304 1.1940841343600272 L0.4709552334899243 1.1921204303600934 L0.4898688074899624 1.193050606360048 L0.5060952064899666 1.1976239703600857 L0.5392714764899793 1.2132044153600265 L0.5519838784899278 1.1900016963600155 L0.5535341724899538 1.1822243933600038 L0.5512604094899487 1.1724058713600432 L0.5414418874899596 1.1628198923600355 L0.5392714764899793 1.1548875613600718 L0.5442324144900184 1.142872790360018 L0.5553945234899587 1.1483763303600103 L0.567073397489942 1.16147630536007 L0.5733779224899322 1.1722508423600875 L0.5801992114900045 1.1640084513600488 L0.5872272064899917 1.1612179243600895 L0.5943585534899469 1.1640084513600488 L0.6012831954899198 1.1722508423600875 L0.618749829489964 1.1576005733600159 L0.6167861254900302 1.1447589803600255 L0.6070709554898954 1.1310647253600923 L0.6012831954899198 1.1139339883600474 L0.6099648354899685 1.0949945753600918 L0.6299119394900075 1.0822046593600323 L0.6525462164899594 1.072411974360067 L0.6689793214899353 1.0624125853600521 L0.6594708574900281 1.0410960563600629 L0.6607110934899723 1.0326986363600685 L0.6689793214899353 1.020787219360047 L0.6820017824899551 1.0112529173600553 L0.6941100434900207 1.0073502543599933 L0.694507479490035 1.007222155360056 L0.704739412490035 1.0016927773600504 L0.71052717349 0.987326729360051 L0.7268569254899333 0.9963959433600156 L0.7461839114900002 1.0003233523599864 L0.8402350184899561 1.007790596360012 L0.8381679614899795 1.0144051793600983 L0.8358941984899744 1.02846116936003 L0.8341371994899944 1.0350757523600311 L0.8515004804899959 1.0340422243600376 L0.87248111249 1.072411974360067 L0.8920148034899356 1.0658232293600793 L0.909068025489951 1.0568832073600465 L0.9552667564900119 1.0472455523600264 L0.9743870364899934 1.0381763383600617 L0.9899933194899475 1.0333187533600512 L1.0342283454899714 1.0364193403600002 L1.0531419194898959 1.0350757523600311 L1.0924160084899555 1.0194953083600797 L1.111536287489976 1.0156195763600397 L1.1288995694899668 1.020787219360047 L1.1385113854899842 1.0144826943600282 L1.1507070234899928 1.016239692360104 L1.1766485924899612 1.0282544633600725 L1.2189199134900335 1.0443775103600519 L1.2542665944899412 1.0470905223600813 L1.281655102489971 1.0341972533600785 L1.2863232254899586 1.0295078793600414 L1.4178741784900026 0.8973580603600926 L1.4909446534899544 0.8385502803600264 L1.544481437489999 0.8090430373600999 L1.5583307214899733 0.7958138713600125 L1.561948071489958 0.7863054073600342 L1.5611212484900037 0.7753500033600478 L1.5617413664899757 0.7578833703601067 L1.5724900644899904 0.7295646843600156 L1.6109373304899535 0.6872416863601121 L1.6249933194899668 0.6612484413600459 L1.6610634684899779 0.5645618363600722 L1.6590997654899482 0.5543299023600117 L1.6474208914899648 0.5370182973600937 L1.6460773034899958 0.5260628943600256 L1.6517617104899571 0.5131954623601178 L1.6602366454899382 0.5110250523600417 L1.6696417564900017 0.5123169633600799 L1.678323396489965 0.5098881703600302 L1.685041333489984 0.5023950883599912 L1.692896151490011 0.4879256873600628 L1.6998207924899944 0.48074266336010574 L1.70984602149003 0.4798124873600518 L1.7202846604899733 0.4835848673600811 L1.727622713489957 0.4820345743600587 L1.7282428314899292 0.4648779993600005 L1.7261757734899632 0.45242397836001835 L1.7196645434899906 0.44772142236003454 L1.7101560794899981 0.44549933636003125 L1.6995107344899125 0.440745104360035 L1.689175447489994 0.43242519936007007 L1.682044100489982 0.4243119983600696 L1.6764630454899603 0.41439012436006983 L1.6427700114900077 0.3206490753600111 L1.6329514894899333 0.264941881360075 L1.6321246664900073 0.2422042513600946 L1.6409096604900029 0.22484097036007888 L1.665094230489963 0.21388556736009612 L1.6788401614900081 0.21218024436004335 L1.701784497489946 0.2131104203600831 L1.714600253490012 0.21187018636004673 L1.7169773694899746 0.20928636436005554 L1.7252455974899945 0.19807257836009917 L1.7304132414900053 0.1943518753600859 L1.7378546474899466 0.19605719836005342 L1.7435390554899826 0.2018449573600254 L1.7486033454899612 0.20349860435998046 L1.7542877524900078 0.1930599643600477 L1.7589386314899755 0.18070929736008345 L1.7659666264899627 0.17786709436001225 L1.775371737489941 0.17926235736008955 L1.7871539644900238 0.17967576936000462 L1.7899444914899973 0.18194953136002034 L1.7914947834900161 0.1874272333600988 L1.794595370489965 0.19192308336003983 L1.802140129490006 0.1914063193600004 L1.8078245364899388 0.18804735036008147 L1.8169195884900162 0.17946906236004345 L1.8214671144899697 0.17657518236005565 L1.8570205004900018 0.167066719360081 L1.8609479094899726 0.16779018936007795 L1.869526196490007 0.17275112736003173 L1.8744871344899607 0.17326789136005694 L1.8805849534900076 0.17032233436006727 L1.8925738854899876 0.1615890173600878 L1.8994985274899605 0.16029710636003536 L1.934741854490035 0.1695471883600579 L1.9438369064899987 0.16437954536005073 L1.9577895434899872 0.14267544336004967 L1.961096834489986 0.13492397836005132 L1.963060539490023 0.12706916036001026 L1.9659544194900107 0.11988613636005319 L1.9713287684899754 0.11399502336006329 L1.982180818490015 0.10986090836003548 L1.9927228114899904 0.11683722636003502 L2.0031614504899338 0.11430508236004933 L2.0123598554899402 0.10696702836004768 L2.028379549489962 0.08815680736003806 L2.0394383064899912 0.08102545936009342 L2.04905012248998 0.07916510836008861 L2.0693072844899874 0.07988857735999666 L2.0795392174899874 0.07787319736005038 L2.103310376490022 0.07704637336002129 L2.115195956489977 0.06185350336000006 L2.16315168549 0.10402147236004744 L2.1835121994899183 0.1147701703600621 L2.1935374274899644 0.1254671913600749 L2.2012888924899485 0.1377661823600267 L2.207696769489992 0.1602454293600335 L2.2158616454900155 0.16861701236000393 L2.226920402490016 0.17424974336003807 L2.238702628489939 0.1785388873600926 L2.271878898489952 0.18220791336000453 L2.280250481489908 0.1847917353600952 L2.2839711844899355 0.19001105536001894 L2.2937897064899815 0.20861457136006045 L2.3343040284899885 0.2673189973600234 L2.506283195490006 0.4215731483600269 L2.5093837814899658 0.42689582136007864 L2.522923006489954 0.43697272436010515 L2.5260235924899987 0.4423470743600735 L2.5285040614899756 0.4636894403600724 L2.5334649994899294 0.4863753943600404 L2.5408030524899985 0.5045654983600816 L2.5636440354900074 0.5424443233600744 L2.5779067304899925 0.5587223993600947 L2.5863816664899915 0.5665255403601055 L2.5986806564899396 0.5746904173600331 L2.612529940489999 0.5782044143600888 L2.6259658124899445 0.5720549183601111 L2.6400218024899758 0.5637866903600628 L2.6518040294899734 0.5660604523600785 L2.662552727489988 0.5722616253600723 L2.6737148364899284 0.575827298360041 L2.718569979489992 0.6031124553600495 L2.7551568934899606 0.6159282093600371 L2.7663190034899756 0.6235763223600248 L2.774380525489967 0.6311210813600656 L2.8078668544899656 0.6781983103600613 L2.814584790489995 0.6840377483600424 L2.820165844489999 0.6873450403600447 L2.8246100184899277 0.6914274773600528 L2.8283307214899267 0.6992822953600797 L2.8333950114899906 0.715095283360073 L2.837115714489933 0.722743395360057 L2.8390794194899414 0.731580065360065 L2.842593416489997 0.7392281783600385 L2.8509649994899817 0.7437240273600612 L2.8602667574900025 0.7595886913600669 L2.8672947514900002 0.765324776360119 Z" fill="black" stroke="black" stroke-width="0.5" vector-effect="non-scaling-stroke"/></svg>