<svg xmlns="http://www.w3.org/2000/svg" viewBox="0 0 0.2431305489964899 0.14339217467233567"><path d="M0.21228146380377666 0.0014058056340431335 L0.24074691616318944 0.021835770937052246 L0.23299526467278042 0.03075017015101622 L0.2326076820982621 0.039664569364980196 L0.22795669120401385 0.03656390876881943 L0.22098020486265568 0.03113775272553454 L0.2075968713587315 0.02833156989407115 L0.20315140643472773 0.03268808302361492 L0.1969500852424062 0.026099179256775074 L0.18028403453804742 0.03850182164141813 L0.1833846951342082 0.04702863828085668 L0.19346184207172712 0.05012929887702455 L0.21051547535061843 0.05555545492030234 L0.18997359890104804 0.06369468898522257 L0.17136963532408345 0.07454700107179235 L0.14778764880378503 0.08962195163402242 L0.13350542180381808 0.09694617063401978 L0.12447214380713945 0.1074915199059987 L0.10509301508113822 0.1226072403122842 L0.07912498258828293 0.1338471349733723 L0.054319697818996815 0.14198636903829254 L0.03920397741271131 0.14159878646377422 L0.02757650017710489 0.1412112038892559 L0.012073197196301066 0.13229680467529192 L0.005484293429461218 0.11834383199256138 L0.002383632833300453 0.1074915199059987 L0.01174357633297518 0.11115201138074582 L0.01040071823554456 0.10399010152772803 L0.013829217636271096 0.09438246131013983 L0.008584954025621983 0.08462414800931128 L0.01594902294151268 0.08694964345643541 L0.019437266112191764 0.0811359048386322 L0.024088257006425806 0.08694964345643541 L0.030289578198747336 0.0923757994997132 L0.02137517898478336 0.09896470326656015 L0.01857114777394031 0.11027895709317193 L0.016336605516031 0.11369284109832023 L0.02137517898478336 0.11718108426900642 L0.03959155998722963 0.11911899714160512 L0.03959155998722963 0.12221965773776589 L0.02524687330040365 0.1210561836090065 L0.024088257006425806 0.12764581378105078 L0.030677160773279866 0.1353974652714527 L0.04152947285983544 0.1353974652714527 L0.055482445542565983 0.13035889180268612 L0.05935827128776339 0.12338240546132795 L0.06866025307624568 0.1226072403122842 L0.08532630378061867 0.11408042367284565 L0.10746375580379208 0.10252071463403212 L0.10935642340085394 0.09896470326656015 L0.09385312042005012 0.10051503356464053 L0.08300080833349455 0.09663920781943602 L0.07441028754688261 0.08608532689518 L0.07754362310757301 0.08250437196867466 L0.10823686780378239 0.08665157363403608 L0.12654741480378107 0.07912390463402375 L0.13716753180381147 0.07643835763402507 L0.1481146808528706 0.0660201844323467 L0.15237808917260054 0.06718293215590876 L0.16981930502599596 0.06640776700686501 L0.1744702959202442 0.060594028389061805 L0.18299711255968987 0.054005124622221956 L0.17524546106928085 0.04741622085538211 L0.1637405319125378 0.05127753073725927 L0.1554787497687613 0.05633062006934608 L0.15363891529588614 0.06236150050705902 L0.14888984600190724 0.06136919353810555 L0.14671771414424484 0.05699076665298719 L0.151990506598068 0.046253473131820044 L0.16635739263651317 0.03755212822924392 L0.17524546106928085 0.02571159668224965 L0.1911226098038128 0.01654252463404049 L0.21228146380377666 0.0014058056340431335 Z M0.0729236613959614 0.10129019871367717 L0.0764119045666547 0.10012745099011511 L0.08067531288637042 0.1036156941608013 L0.08842696437677944 0.10671635475696206 L0.08571388635513699 0.10904185020407908 L0.07718706971569134 0.10787910248052412 L0.06788508792720904 0.10904185020407908 L0.05858310613872675 0.10826668505504244 L0.0558700281170843 0.10284052901175755 L0.05897068871324507 0.10090261613915885 L0.06749750535269072 0.10284052901175755 L0.0729236613959614 0.10129019871367717 Z" fill="black" stroke="black" stroke-width="0.5" vector-effect="non-scaling-stroke"/></svg>