<svg xmlns="http://www.w3.org/2000/svg" viewBox="0 0 3.4258839113400654 1.6954945275218591"><path d="M1.7787518921700496 0.3026769631540773 L1.796115174170069 0.30060990715400493 L1.813581808170028 0.3009199651540868 L1.878797465170038 0.3091881941540393 L1.9009149791700395 0.30443396215405727 L1.9254096081699856 0.30205684715399883 L1.9545551151699954 0.28802669515399515 L1.9709882211700744 0.2846935661540826 L1.9874213261700504 0.28794918115405466 L2.030416118170052 0.31332230815404927 L2.0587978611700066 0.3198482111540031 L2.092221131170021 0.3275333281540256 L2.154439556170047 0.33099564915405466 L2.213040629170024 0.34236446315406255 L2.264096945169996 0.38029496515405725 L2.2786696991700808 0.3929298531540937 L2.3123627331700334 0.40825191415404305 L2.3554608771700316 0.4122310001540299 L2.3960785531699855 0.4033426541540379 L2.42295029716999 0.38029496515405725 L2.423157004170008 0.3801399361540163 L2.4373163451699895 0.3609163031540774 L2.479380961169994 0.317533938154007 L2.4981911831700074 0.30443396215405727 L2.524132752170061 0.30014481915397795 L2.5496609101699903 0.30355546315410464 L2.573225363169996 0.3021601991540237 L2.5936892301699856 0.28360836015399826 L2.613119568170049 0.3186191431540166 L2.6449522511699968 0.34445735915402764 L2.722363546170044 0.38029496515405725 L2.740003196170079 0.385646319154084 L2.7499587611700065 0.38866654715402404 L2.7644281621700486 0.3906560901540601 L2.801015076169989 0.3909403101540576 L2.841012635170074 0.4056680931540413 L2.8821470751700247 0.41031897215400903 L2.9041612351700508 0.41574499715408564 L2.9252452191700797 0.42429744715402506 L2.941471620170063 0.4352786891540106 L2.956354432170002 0.45827470115406044 L2.9524270231700314 0.4778083931540422 L2.940644796170062 0.49778133315398776 L2.931859803170056 0.5223276391540637 L2.867874849212086 0.5236490596125876 L2.869543542167861 0.5539474756516327 L2.9088559121037036 0.5643632571572716 L2.939289936448546 0.5924966084878704 L2.9384773845907546 0.6284506099638136 L2.9302061571700904 0.6585983911540652 L2.88338730916999 0.7170444361540476 L2.876772726170003 0.7553108341540664 L2.8985801801700006 0.8286396921539776 L2.9079852911700357 0.8428765491540489 L2.9364073291700095 0.863366254154009 L2.945192323170062 0.8800577421540581 L2.9609019581700693 0.8958707301540514 L2.98374294117005 0.90217525515407 L3.008444275170035 0.9062576931540534 L3.0305617881699902 0.9150168491540498 L3.0306120461700345 0.9150798271540097 L3.0830748590722408 0.9185461603931095 L3.1197525321182553 0.9136643160772984 L3.1600979724688614 0.9087826879273884 L3.2041111801240874 0.9152915734987417 L3.2668264371700673 0.906102663154023 L3.2786086631699902 0.902588666154081 L3.3271179418067334 0.928241579041817 L3.388369406170085 1.0707954531539698 L3.3922968141700665 1.0826810321540208 L3.3853721731699977 1.0998892851539992 L3.354159608170079 1.1236087671540176 L3.34031032317003 1.1385432561540867 L3.3366929731700736 1.1475866321540522 L3.333489035170004 1.1665518821540033 L3.3305951541700836 1.1751818461540253 L3.3250141001700797 1.1831916931540079 L3.3119916391700315 1.1955423611540752 L3.3093083871700912 1.1989090831539997 L3.306513937170024 1.202415326154032 L3.299382589169994 1.2169880801540032 L3.294318299170044 1.2342480081540756 L3.291424419170056 1.2527481711541029 L3.2912177131700844 1.2709899521540748 L3.3034133511700077 1.3034944281540035 L3.353229432170025 1.3481945411540366 L3.370489360170012 1.380078900154011 L3.370489360170012 1.3801822541540432 L3.387439230170031 1.4376981231539716 L3.383891241170005 1.453450535154012 L3.3762771201699877 1.4872558211540294 L3.3393801471700897 1.520173708153969 L3.2786086631699902 1.5283902611540086 L3.2609353231700595 1.5207421491540387 L3.22920599417003 1.4963508731539932 L3.2117393601700144 1.4898396421540312 L3.1966498421699896 1.4936636991539771 L3.1990269581700375 1.5067378361540236 L3.1990269581700375 1.5215172951540339 L3.177529562170008 1.5307157011540298 L3.1894151411700307 1.5441515731540036 L3.1904486701700137 1.5605846791540543 L3.182180441170061 1.5720051701540498 L3.16657415817005 1.57024817115407 L3.15592881317005 1.5565022411540426 L3.153034933170062 1.540275840154031 L3.147453878170012 1.5256514111539659 L3.128643657170045 1.516556358154098 L3.0987746791700204 1.5215172951540339 L3.0351093141700005 1.5588276801540744 L3.00565374817009 1.5715400821540229 L2.957284608170056 1.5770694611540463 L2.941471620170063 1.5760359321540633 L2.8972365931700494 1.5642537051540373 L2.879149842170051 1.5648738231540094 L2.842872987170068 1.5761909611540759 L2.824166118169984 1.5774311961540306 L2.810936951170021 1.5669925561540978 L2.7879926151700545 1.522292442154047 L2.7785875041700194 1.5094766871539704 L2.764118103170091 1.5056526311540424 L2.7237071341699846 1.5034822211540515 L2.7098578491700493 1.5054976021540867 L2.6919778041700795 1.516556358154098 L2.6816425181700367 1.5322143181540397 L2.6735809941700666 1.5503527451540648 L2.661902121170016 1.5688529071541026 L2.6490863651700067 1.5803250761540184 L2.6335834351700953 1.5895234811540249 L2.6167369181700053 1.5963447691540793 L2.6000971071700008 1.6004272081540805 L2.5795298871700254 1.6009439721540204 L2.5654738981699836 1.5959830341540666 L2.5360183311700837 1.5798599881540767 L2.501705181170081 1.5726769641540486 L2.430598410170063 1.5741239041540425 L2.395458436170003 1.57024817115407 L2.365589458170092 1.5704548771540416 L2.3163011321700253 1.5906733401540336 L2.3109157931700395 1.5928824491540396 L2.248012905169986 1.5961518761540034 L2.020597596170063 1.607971967154036 L1.8913031631700221 1.5949495061539878 L1.7787518921700496 1.5426012801540523 L1.6861477261699918 1.4832250591540443 L1.6523513391699964 1.478367475154009 L1.6320941781700924 1.4843619411540416 L1.617728130170093 1.4946455511540293 L1.6043956101700871 1.5067378361540236 L1.5879625051699975 1.5179516221540652 L1.569514018169997 1.5234293231540548 L1.5326687221700865 1.522137413154006 L1.5144269421700471 1.523532676154069 L1.4809406141700094 1.5429630161540544 L1.4557225141699917 1.6032694121540416 L1.4307111211699919 1.6236299261539884 L1.3926772671700576 1.633293418154004 L1.2787824101700096 1.6431636171540092 L1.2156338101700328 1.6583048121540216 L1.1939297091700212 1.6601651641540158 L1.183801127170085 1.6587699001540201 L1.1634406131700814 1.6531371691540002 L1.1622209591700141 1.6529649021540465 L1.1542938841700732 1.6518452581540473 L1.150521505170076 1.6501916121539963 L1.142563335170081 1.6437837351540665 L1.1384808961700799 1.6434736761540805 L1.1332615761699856 1.6474010851540513 L1.1311945201699984 1.6525687281540442 L1.130781108169998 1.6571162541539977 L1.1302643441700582 1.6593383411540046 L1.1303160201700564 1.6615087511540807 L1.1287657271700198 1.6673481871539693 L1.1256134651700052 1.6740144471540575 L1.1208075571700817 1.6788203561539987 L1.1171902071700117 1.678872032153997 L1.107578390170005 1.6752546821540122 L1.1035993051700927 1.6745312121540152 L1.0638084521700932 1.6748412701540971 L1.058189988170085 1.6740328581539856 L1.0422593791700194 1.6717406841540523 L0.9886709201699944 1.6504499951540694 L0.9667601121700216 1.6495198191540155 L0.9318268431700574 1.6624906031540476 L0.9133266811699912 1.6628006611540158 L0.901027690170082 1.6540673451540542 L0.916995708169992 1.6264721301540632 L0.9148769741700278 1.6090571721540172 L0.889607199170058 1.590970421154104 L0.850023051169984 1.5774828721540572 L0.8089402871700315 1.571333377154069 L0.7464118051700268 1.5779996371540719 L0.71085841917008 1.5616182071540479 L0.6724148821699885 1.5376628331540232 L0.6451776741700712 1.520690473154012 L0.6036814981700616 1.5306123481540155 L0.5898838911700466 1.5300439071540595 L0.5771198121700252 1.5311291121540407 L0.5664744671700817 1.5386738711539962 L0.5561391811700389 1.5482340111540154 L0.5443569541700697 1.5552620061540026 L0.5163483281700394 1.5619799421540321 L0.4881329961700942 1.564460411154009 L0.43159898017003684 1.5615665311540212 L0.400024679170059 1.5536083601540653 L0.3859686891700278 1.5389839301539823 L0.377855490169992 1.518623416154064 L0.36421291217001794 1.493560346154048 L0.34839992417002463 1.477902387153982 L0.3250938521699993 1.4623477811540724 L0.3001341361699872 1.452270877154028 L0.27884344516999704 1.4533044051540216 L0.2693349821700224 1.4595572531539958 L0.25806952017003937 1.4623994571540706 L0.24628729317007014 1.4613142521539757 L0.2358486531700521 1.4557848741539985 L0.2288206591699975 1.4456562931540233 L0.2289240111700508 1.4359928001541036 L0.23047430517007683 1.4256058381539773 L0.22799383616998625 1.413358523154038 L0.21016546617002518 1.3939281841540705 L0.18995998217005194 1.3960469181540347 L0.17063299616998506 1.4107747011540468 L0.15523341917000266 1.4295849221540706 L0.14913560017006944 1.3801822541540432 L0.14913560017006944 1.380078900154011 L0.14913560017006944 1.3254569121540598 L0.14432969217003233 1.2997737251540045 L0.13115220217 1.2771394471540347 L0.10877630617008549 1.2619982531540401 L0.04609279416999357 1.2322843041540565 L0.03660264017000259 1.2260490391539847 L0.03358709716999897 1.2240677521540348 L0.04195867917005103 1.1952323031540786 L0.05787502117007648 1.1624177681540786 L0.07937241617000268 1.1341507591540037 L0.10469386817001691 1.1185961531540656 L0.16494858817006275 1.104643516154077 L0.1796359301700079 1.0945357471540476 L0.1881513071699885 1.0886754991540428 L0.19585109517007027 1.059478315154017 L0.2186803421548973 1.044151968880918 L0.2543284910156842 1.0467925725002303 L0.27545331997023936 1.0626361942161608 L0.3005390543537203 1.044151968880918 L0.28469543263778974 1.0203865363070506 L0.26753150911221724 0.9820977838269229 L0.2545798764802214 0.9418771657389513 L0.26106942393502663 0.9180821584045518 L0.26972215387476695 0.8969911291763069 L0.2864868181331133 0.8823896474029382 L0.28356657849283806 0.8770410455848818 L0.2787300308168881 0.8681826055665667 L0.27647574480883463 0.857362032727842 L0.28188603122814015 0.8447380310827484 L0.2963134616797163 0.8375243158569603 L0.3084866061232958 0.825351171413466 L0.30623232011518553 0.8145305985747413 L0.31975803616361986 0.7992014537199381 L0.3368906098247919 0.7960454533086292 L0.3432026106473529 0.7807163084539113 L0.35447404068767696 0.7667397352038776 L0.3675488995343983 0.7590751627764618 L0.39505118883269574 0.7491563043410778 L0.4058717616714205 0.7514105903490744 L0.40938492001785676 0.7520693075390099 L0.4130854768971801 0.7527631619539292 L0.4230043353327062 0.75682087676838 L0.42817527089701457 0.7601698370035521 L0.43087924900325447 0.7477315377151328 L0.4595414169287153 0.7093350486072936 L0.5017234753851483 0.6444395740590423 L0.5201105265071817 0.6038799024662396 L0.5284406131700337 0.5672086201540409 L0.562237000170029 0.5474682231540768 L0.6030097051700807 0.5307767361540456 L0.6395449431700229 0.5059462101540007 L0.6736513881699864 0.4656644311540603 L0.7208840031700277 0.3863673991540608 L0.7245009971699972 0.38029496515405725 L0.7247077031700258 0.38029496515405725 L0.7480654511699925 0.343837242154045 L0.7623281461700628 0.32722326915403954 L0.778864605170071 0.3136840441539661 L0.798863384170005 0.30701778415404846 L0.8185521041700383 0.293116824154076 L0.8650092161700798 0.24038102515404347 L0.8829409391700267 0.23038163515402488 L0.9013377491700396 0.22521399215403193 L1.0213304251700208 0.20593868215407696 L1.0593642791700688 0.19064245915404143 L1.077140971169996 0.16224625915400992 L1.0843756721700686 0.1462524031540724 L1.0995685431700224 0.1348319111540448 L1.1332615761699856 0.11586666115402267 L1.1421499231700807 0.10710750515402623 L1.157549500170063 0.08775468215397808 L1.1664378461699982 0.07922807015406619 L1.1771348681699862 0.07442216315404693 L1.184834656170068 0.07749691015398952 L1.2196503387087034 0.05942024908758725 L1.256044780170015 0.06677405015405924 L1.2751133841699982 0.05698136615401239 L1.2939752821700097 0.05439754515401063 L1.374380679080133 0.02979103497391833 L1.4270548375044712 0.039667439678474636 L1.4566840516181117 0.05283597928461603 L1.4797289959287525 0.049543844383030944 L1.5027739402394502 0.026498900072418508 L1.5291110194515056 0.0166224953678622 L1.5653245033682595 0.039667439678474636 L1.5653245033682595 0.07588092359520004 L1.5949905001700415 0.11367041215401485 L1.6330243531700432 0.11922562915403745 L1.6575042806108229 0.07588092359520004 L1.6904256296259916 0.07588092359520004 L1.7200548437397458 0.09234159810284126 L1.759560462557971 0.09234159810284126 L1.808942486080781 0.12526294711798158 L1.8517402398004776 0.12855508201956667 L1.8912458586188166 0.1417236216256228 L1.9011222633233444 0.17464497064076312 L1.871493049209704 0.18452137534531943 L1.8517402398004776 0.21744272436057344 L1.818818890785309 0.22073485926207326 L1.7891896766716684 0.25036407337582745 L1.7787518921700496 0.3026769631540773 Z" fill="black" stroke="black" stroke-width="0.5" vector-effect="non-scaling-stroke"/></svg>