<svg xmlns="http://www.w3.org/2000/svg" viewBox="0 0 12.444848133059935 13.481784838319975"><path d="M0.278411833029935 7.95894108715996 L0.27840703802999656 7.957794885159974 L0.2801640370299765 7.886378055159884 L0.2771151270299299 7.85103137615997 L0.26590134102997354 7.821472457159945 L0.2514061020299607 7.803489059159947 L0.2315623520299539 7.783852014159923 L0.1912288970299869 7.752846155159904 L0.17549342303001936 7.74747180615994 L0.12408486302993538 7.7409153521599485 L0.12200831503000131 7.740650517159981 L0.13908737602994847 7.715122359159938 L0.15466782102996035 7.659621870159956 L0.1657007390299725 7.637917769159959 L0.17014491302995793 7.636574182159993 L0.1873531640299575 7.633887008159963 L0.1934509830300044 7.632026656159969 L0.24750453102998904 7.584587691159886 L0.27840703802999656 7.564433882159992 L0.3056921940300015 7.554098596159893 L0.33434677602997454 7.5489309531599 L0.361063492029956 7.539215784159953 L0.38248337302997015 7.5153412721599615 L0.38723760402996277 7.499528284159968 L0.38248337302997015 7.493223758159946 L0.3751969960299846 7.490123173159919 L0.3719413800299094 7.48433541215994 L0.37491277502999765 7.474620243159993 L0.38134649102994445 7.468005660159907 L0.4241862530300011 7.443511031159947 L0.43604599403002453 7.430075159159987 L0.46255600502993843 7.3745746701599195 L0.5640485180300061 7.270601689159964 L0.5778461250299358 7.249414351159917 L0.5968372140299039 7.195360803159918 L0.6061389720300383 7.181098108159947 L0.6221328270299864 7.17148629215993 L0.6579187570299041 7.168179000159942 L0.6764447580299304 7.163838179159956 L0.7346840970299695 7.134692672159932 L0.7514272610299031 7.122600386159949 L0.7679895580299103 7.101826461159906 L0.7801593570299303 7.086530237159952 L0.7533651270300368 7.050356734159923 L0.7483783510299702 7.033716923159904 L0.7508588200299471 7.002607711159943 L0.7496185860300102 6.944213342159973 L0.7516856430299867 6.923852828159955 L0.7606256660299096 6.906489547159939 L0.7867739410300203 6.875173629159921 L0.8201310780299877 6.858740523159955 L0.9326565090299539 6.815539025159925 L0.9550065660299367 6.7813292281599225 L0.9448521470299625 6.7543541301599 L0.9218302970299987 6.739264612159989 L0.869740453029948 6.719007450159982 L0.8289935860299806 6.6757026001599264 L0.8064626610299683 6.662370080159906 L0.778350682030009 6.671465133159888 L0.7457686910299799 6.661646611159913 L0.7349424790300247 6.660716435159959 L0.7239870750299531 6.664437138159958 L0.7046084130299732 6.6789065391599 L0.6933171130300195 6.683557418159953 L0.6676856020299624 6.683557418159953 L0.6438110900299705 6.675805953159955 L0.6222361800299154 6.662783492159921 L0.6036326650299486 6.6473839151599385 L0.568854425029997 6.6051125941599516 L0.5463751770300007 6.550542281159924 L0.5039229890299737 6.447396122159905 L0.4613674460299819 6.3443533161599 L0.41888941902996635 6.241310510159995 L0.3762822010299658 6.138164352159965 L0.3641640770298977 6.108605432159937 L0.358479669029947 6.078633101159898 L0.3673163400299586 6.048764124159977 L0.43209274702994094 5.953782841159882 L0.43738958202999356 5.93424915015996 L0.43997340402998475 5.914198694159925 L0.44508937002996163 5.89456165015989 L0.4581376700300268 5.876578251159987 L0.4682404120299566 5.871203902159937 L0.4955772450299776 5.862212203159988 L0.5025794020299941 5.857768030159978 L0.503096166029934 5.849086389159925 L0.4915464830299925 5.819320764159944 L0.4973342430299681 5.803197717159964 L0.5133022610299918 5.782630497159975 L0.5326034080299564 5.765680628159959 L0.5659088690298972 5.75451851815993 L0.5793705790299555 5.715967900159956 L0.5987750800300375 5.714727665159931 L0.6223653710299573 5.716277958159939 L0.6380750070299257 5.703978968159991 L0.6404004460299575 5.6856855101599315 L0.6167326400299089 5.663154586159909 L0.5920054680299813 5.628944787159913 L0.5758307440299859 5.613648564159963 L0.516299494029937 5.570550419159947 L0.4999180650299593 5.554324019159939 L0.44240219602994557 5.468851201159925 L0.4256848700298974 5.453658329159982 L0.40418747402995336 5.43412463815989 L0.3978312730299365 5.416761356159956 L0.4022754460299325 5.398157841159918 L0.4186568750299955 5.360640751159924 L0.4207497710299606 5.352889286159911 L0.41651230303000375 5.271033818159967 L0.41795924302999765 5.253877242159906 L0.42708013402997835 5.240338017159932 L0.4494560290299603 5.22710885015994 L0.5049823550299379 5.2120193321599295 L0.5208728580299749 5.203027632159991 L0.5346704660299224 5.174192183159949 L0.5410008290299402 5.04603463115993 L0.5538424220299305 5.026604293159952 L0.5735569810299808 5.024640588159929 L0.5962687730299479 5.029291467159982 L0.6181020660299907 5.0299115851599545 L0.6239931790299806 5.018749475159925 L0.6210734600299759 4.972654097159907 L0.6242257230299515 4.955394169159906 L0.6302977040299993 4.9508466431599665 L0.6473509260299295 4.946505822159981 L0.6544822740299594 4.9430951791599576 L0.6939372300299738 4.898756799160015 L0.7133675690299697 4.884804162159927 L0.778350682030009 4.849457483159927 L0.7982461090300319 4.831370732159915 L0.793879450029948 4.8113202761599645 L0.7801851960300041 4.791373173159943 L0.7723303780299773 4.773493127159984 L0.7712710110299099 4.734839156159882 L0.7727954660300043 4.715512170159929 L0.778350682030009 4.698252242159942 L0.8035946200299691 4.680682255159969 L0.8371843010299926 4.6723106731599024 L0.9047770740299654 4.663835738159978 L0.924052383029931 4.643578576159985 L0.9196082100299918 4.608541955159968 L0.8947776840299468 4.541569300159967 L0.8885248360299727 4.507152795159914 L0.8827370760299971 4.491649865160003 L0.8723242750299676 4.477283817159989 L0.8187874900300187 4.442867314159944 L0.8055324860299038 4.424573857159974 L0.7994605040299518 4.392431116159944 L0.799305476030014 4.356050908159961 L0.7955072570299819 4.322151168159952 L0.778350682030009 4.296726363159937 L0.7654057360300044 4.258382451159921 L0.7642171780299805 4.2448432251599435 L0.7676794990300095 4.228720178159964 L0.772537084029949 4.2169379511599665 L0.772537084029949 4.205465784159944 L0.7614524890299492 4.190582971159902 L0.7074506170299628 4.147794885159971 L0.6869092350299866 4.118959436159944 L0.7009135480299733 4.096221806159878 L0.7139618480300101 4.094981571159924 L0.7444767810299311 4.100355921159892 L0.7558714340300128 4.098288863159926 L0.7646564270299905 4.087333459159954 L0.7648889710299613 4.075654586159974 L0.7629769430299405 4.063045536159951 L0.7653023830299901 4.04929960515992 L0.773105525029905 4.037827437159908 L0.7942411860299501 4.015399865159996 L0.8028453110299836 4.002584111159923 L0.8116819810299774 3.9786062461599165 L0.8177539620300251 3.95380155815997 L0.8140590970300252 3.9311672811599188 L0.8257121320299916 3.735933719159963 L0.8114752750299203 3.6572821901599077 L0.8088397770299025 3.616922896159938 L0.8163586980299442 3.498480513159951 L0.8145643390299995 3.4841124721599677 L0.8022768700299423 3.385722539159918 L0.8019151360300327 3.3428310991599552 L0.8075478670299674 3.3203001751599466 L0.839070490030025 3.296218957159997 L0.8497675110300236 3.2720343871599233 L0.8618856350299211 3.2533275191599422 L0.8838739570300049 3.2563247521599585 L0.8965088450299277 3.228109420159985 L0.9119342590299198 3.2073354941599526 L0.9322947740299412 3.1937962681599608 L1.0147703600299565 3.1717821081599773 L1.022366796029928 3.162893762159971 L1.045543675030018 3.118141972159922 L1.0355184470300003 3.107083215159907 L1.003169001029903 3.0982982221599293 L0.9938930810299951 3.0888931111599653 L0.995081639030019 3.0725633591599326 L1.0046159410300106 3.0580939581599047 L1.0183877100299412 3.0467251421600032 L1.0482308500299666 3.0309121541599104 L1.0624418690300104 3.018303105159891 L1.073965713029935 3.003523645159877 L1.0822339420300011 2.9883307741599374 L1.0882800850299361 2.9683836711599305 L1.0941195220299278 2.959185266159924 L1.1042481020299704 2.9548444461599424 L1.099037347029963 2.9457705451599487 L1.0742757710299315 2.9026512491599625 L0.9699410550299774 2.7215770311599563 L0.8656321760299477 2.5405028121599607 L0.7612199450299784 2.3594285921599614 L0.6569110660299202 2.1783543741599694 L0.552550512029967 1.9972801551599595 L0.44816411803000733 1.816102584159939 L0.3439327540299928 1.6350283651599433 L0.23954636102993732 1.454057499159962 L0.23600652502997832 1.4479596811599187 L0.23238917502999357 1.441758508159925 L0.2287718250300088 1.4354539831599205 L0.22523198902993613 1.429252812159934 L0.22166631602996745 1.4230516401599438 L0.21799728902996662 1.4169538211599821 L0.21448329102992147 1.4108560021599352 L0.21086594102993672 1.404654830159945 L0.28561590002993853 1.4076520631599614 L0.32512253302996896 1.403621301159962 L0.3925602770299861 1.3873949011599542 L0.42542648802992744 1.3924591911599329 L0.4589128160299367 1.4017609491599536 L0.4949829660299372 1.4073420041599753 L0.5516978500299388 1.4052749471599135 L0.6299876450300133 1.41447335215992 L0.6670138090299815 1.4229482871599153 L0.7016111800299711 1.4195376421598986 L0.7171916240299083 1.4223281691599432 L0.7915023340299854 1.454057499159962 L0.7959981840300259 1.454780969159959 L0.8051190740299035 1.454780969159959 L0.8095632470300131 1.454057499159962 L0.8330760240299924 1.4528172651599398 L0.8803599600299492 1.4657363731599453 L0.9044670150299794 1.4687336061599616 L0.9295817610299082 1.4628424931599575 L0.9568152410299149 1.4527139111599077 L0.9838420150299498 1.4470295051599642 L1.0139435370300305 1.455814498159942 L1.0308675680299473 1.4642894331599514 L1.0145119780299865 1.4874404741599427 L1.0028589420300307 1.511625044159917 L0.997329564030025 1.5374632611599317 L1.0014895170299667 1.5783909951599533 L1.004512588029968 1.587692753159974 L1.012574111029977 1.5929637491599102 L1.0301699360299494 1.5934805131599497 L1.1727710520299865 1.5648517701598799 L1.2004696190300024 1.5510024861599199 L1.252404434029927 1.5138988081599258 L1.295192520029957 1.4997394651599798 L1.3119356840300043 1.4971556431599744 L1.3288338770299788 1.4971556431599744 L1.3460938060299839 1.5000495241598806 L1.360304824029953 1.4960187621599665 L1.3920858300299699 1.4667699011599247 L1.4102242580300128 1.4573647901599607 L1.457353165030014 1.4528172651599398 L1.4746647690299142 1.4457892701599242 L1.4951803130299766 1.4313198691598963 L1.514145563029956 1.4124062951599576 L1.5309920800300176 1.3911156041599675 L1.5447380110299491 1.3693081501599416 L1.5709379630299622 1.3103970171599322 L1.5849422760299774 1.2912767381599402 L1.6412179100299795 1.2319521931599304 L1.676409561029942 1.16642647715992 L1.6906205800299858 1.1500967241598836 L1.7139266510299365 1.1340770301599328 L1.744725804029997 1.1192975711599225 L1.7613656150300017 1.1141299281600006 L1.7782638090299088 1.1120628701599493 L1.8066858460300352 1.116713749159917 L1.9258516990300052 1.1111326941598954 L1.9407345120299624 1.113303105159975 L1.9551522370299779 1.1173338661598855 L1.9742208400299432 1.1282892701599572 L2.0135466050300295 1.1588817181599644 L2.0327185620299417 1.1665298301599485 L2.066773330030003 1.1578481891599814 L2.083361465030009 1.1290127401599541 L2.092456517029973 1.0928392371599251 L2.1038253330299597 1.0628669071599752 L2.114677383029914 1.051704797159946 L2.1450114490299654 1.0269001091599144 L2.157672174029983 1.0119139441599323 L2.177360895029949 0.9811147901599675 L2.1885230040299746 0.9677822711599511 L2.203870906029948 0.9541396931599344 L2.223404597029969 0.9482485801599445 L2.2591646870299655 0.9308852991599288 L2.3002991280299625 0.9171393671599795 L2.320452936030023 0.9046336711599885 L2.3379712470299694 0.8883039181599521 L2.3518722070299702 0.8698037561599286 L2.356264704029968 0.8584349411599312 L2.3566264390299523 0.8502700641599183 L2.359210260029954 0.8427253051599628 L2.37016566502993 0.8338369591599566 L2.3793123930299203 0.8311497841599227 L2.423495743030003 0.8304263141599257 L2.435019587029956 0.8285659631599209 L2.445664932029956 0.8248452601599077 L2.453209691029997 0.8186440881599317 L2.454811661029936 0.8090322721599144 L2.449075576029969 0.787224817159899 L2.450677546029908 0.7784398231599035 L2.4649919180299946 0.771205123159934 L2.4878329010300035 0.7674844191599313 L2.529329076029967 0.7660374801599268 L2.5474675030299068 0.768724654159957 L2.5867415920299663 0.7791632931599857 L2.6037948150299144 0.7790599411599608 L2.6161971580299905 0.7719285931599309 L2.6236385650300065 0.7608698371599338 L2.629426325029982 0.7495010211599329 L2.636764378029966 0.74133614415992 L2.6467379300299854 0.7379255011599817 L2.6677702380299024 0.7368919721599134 L2.678467259029901 0.734928267159976 L2.724200902029935 0.7092967571599225 L2.885844782029949 0.5454824661599993 L3.017878067029926 0.444920130159975 L3.036894993029989 0.43499825415998217 L3.118492081029956 0.4038890421599355 L3.1284139560299593 0.39768787015994533 L3.133684951029977 0.3895229941599361 L3.136010391029913 0.3784642381599248 L3.139576065029985 0.36823230415994956 L3.1458805890299004 0.3602741331598942 L3.1566292870300003 0.3566567831599947 L3.274658259029991 0.3362962691599627 L3.3356364490299484 0.34105050115995894 L3.3557902570299234 0.3384666781599499 L3.3752205960299193 0.3315420371598812 L3.416768448029984 0.3082876421599572 L3.433227391029959 0.30198311715993853 L3.531180069029972 0.2872036581599282 L3.549525202029969 0.2804857211599092 L3.580531061030001 0.2604352661599485 L3.5978426660300045 0.2532005661598937 L3.653033096029901 0.247516158159943 L3.6568054760300015 0.24937651015995144 L3.660577855029942 0.2535106241599756 L3.6649186760299415 0.2574380331599464 L3.6703188630299906 0.2583682091599009 L3.675383153029969 0.2547508581599125 L3.682436986029984 0.24276192615994674 L3.6865194240299957 0.23976469415993407 L3.7015055890299777 0.23687081315995684 L3.7067765850298997 0.2380076941599647 L3.7191789300299547 0.24245186815996433 L3.745714777029974 0.25723132715997465 L3.7590214580299914 0.26064197215992024 L3.7781159000299738 0.2564045041599634 L3.822841853029928 0.22911934815994428 L3.8415487210300228 0.22374499915989432 L3.8591703840299942 0.2226081171599681 L3.87322637402994 0.22405505815996563 L3.914076594030007 0.233666874159983 L3.9260396880299595 0.23418363815992294 L3.9380802960299377 0.22767240815995038 L3.954435888029991 0.21061918515991707 L3.956838841029935 0.21764718015993267 L3.9611021470300045 0.22632882015998135 L3.9663731430299265 0.23418363815992294 L3.9719800360299473 0.23831775315995074 L3.9820827790300086 0.23676746015992833 L3.9847957910299385 0.22787911415990791 L3.9846149240299837 0.21713041615989326 L3.985855158030006 0.20968901015996622 L3.9939941970299344 0.1900519651599275 L3.999936986029951 0.18540108615995976 L4.006293187029968 0.19863025315996552 L4.008541112029974 0.20834542215991192 L4.011150772029907 0.21578682915992786 L4.016060032030026 0.2211611771599742 L4.025310115029953 0.22467517515993407 L4.063008071029998 0.20917224515992316 L4.0785368400300115 0.20834542215991192 L4.074764460029968 0.23108305215989233 L4.07119878603001 0.24358874915988693 L4.075384577029951 0.2465859821599885 L4.083446100029931 0.24565580615993454 L4.091430110030018 0.24668933515991753 L4.094143122029948 0.2460692181599491 L4.1048918200299624 0.24224516215992153 L4.109542698030026 0.24172839715987848 L4.1158730610299585 0.2449323361599376 L4.124787247029985 0.2552676221599519 L4.1300065660299765 0.25971179615995155 L4.159617162029946 0.27924548715987285 L4.174112401029987 0.2862734821599737 L4.19238002002993 0.2903042431599694 L4.204523981029951 0.2895807741599761 L4.209123184029977 0.28513660015996223 L4.2114486230299235 0.2785220181599648 L4.2166162660299165 0.27118396415997736 L4.217882339029956 0.26818673115996106 L4.218579971029953 0.2583682091599009 L4.220517837029973 0.2544408001599301 L4.225685480029995 0.25154691915993865 L4.237700251029963 0.24937651015995144 L4.241679337030035 0.247516158159943 L4.253177343029961 0.23480375515989138 L4.263073379029947 0.22023100115993444 L4.267104141029932 0.2109292441599031 L4.271367447030002 0.1955296671599207 L4.277723648029934 0.18643461515994275 L4.323276423029995 0.1488141721599341 L4.336660618030038 0.13372465415992352 L4.3460140530299896 0.1321743611600006 L4.372265680029926 0.13248442015990136 L4.3905074610299835 0.1390990031599877 L4.417999323029932 0.16297351515988012 L4.432442886029975 0.1939793741598983 L4.4347683250300065 0.19739001815992552 L4.448436742029912 0.2420384561599498 L4.458177749029971 0.2530972131599647 L4.471897842029989 0.2648794391599587 L4.4841193180299115 0.27800525315993596 L4.489390314030032 0.29361153515987226 L4.484920303029924 0.316865930159981 L4.463267878029939 0.3574836061599207 L4.455206355029958 0.3791877071599181 L4.451666519029999 0.4195986781599039 L4.455568089029953 0.4607331181599683 L4.4643530830300335 0.4987669711599132 L4.482930760029973 0.5507534621599355 L4.4870390370300015 0.5720441531599256 L4.489390314030032 0.6153490031599809 L4.491689916029969 0.6256842901598993 L4.501663467029971 0.6488353311598907 L4.503678848030006 0.659170617159905 L4.500423233030034 0.6685757281599543 L4.483137466029945 0.6945172981598979 L4.472879694029956 0.743609908159943 L4.460684056030033 0.7667609501599237 L4.423477025029939 0.7845376421599504 L4.409266006029981 0.8037612751599745 L4.398310603029984 0.8263955521599264 L4.393854389029968 0.8444229591599175 L4.3937630760299555 0.8447923621599251 L4.395416723029996 0.8525438271599377 L4.397070368029944 0.8558511181599364 L4.401230321029971 0.8590550581599139 L4.37756251502995 0.9015330851599437 L4.363118952029936 0.9154857221599322 L4.338520970029947 0.9204466591599818 L4.338520970029947 0.927267949159944 L4.350587417030027 0.9449412881599422 L4.352809503029931 0.9515558721599326 L4.3517759760299555 0.9564134561599538 L4.347021744029945 0.9657152141599745 L4.3460140530299896 0.9717096801599219 L4.34686671403 0.9801846151599172 L4.349192153029946 0.9905199011599315 L4.352602798029977 0.9993048951599128 L4.356504369030034 1.003025598159926 L4.35926905802998 1.0137742961599407 L4.352861180029947 1.0631769651598724 L4.352809503029931 1.0781631311599433 L4.369888564029964 1.0968699991599244 L4.38771693403001 1.1078254021599925 L4.401747086029928 1.1218813921599242 L4.407431493029975 1.1504067831599691 L4.406242935029951 1.1679767701599424 L4.398724014029995 1.2061139771599052 L4.383763687029955 1.251589238159955 L4.388802139029906 1.2646116981599853 L4.428205419030007 1.2749469851599038 L4.446318008030033 1.2872459751599514 L4.461381688029945 1.3028522581598914 L4.469520726029941 1.3177350711599338 L4.475721898029917 1.4033112421598908 L4.478383235029952 1.4088922971598983 L4.483990127029983 1.4143699991598915 L4.488899389029996 1.4220181111599608 L4.489390314030032 1.434420455159941 L4.485514582029992 1.4431020951599045 L4.478848323029979 1.4489932081598944 L4.4706576080299385 1.454367558159948 L4.462053482030001 1.461705611159946 L4.446524713029987 1.4851667111599234 L4.44580124402998 1.5029434041599536 L4.451459813030027 1.5200999791599124 L4.455206355029958 1.5408739061599626 L4.447454889029956 1.5589606571599752 L4.408826757029942 1.5887262811599534 L4.3937630760299555 1.6057795041599867 L4.390352432030028 1.6303774861599756 L4.403297378029947 1.6459837691599155 L4.42016973402994 1.6577659951599237 L4.428489639029976 1.6712018681598728 L4.422443496029956 1.6863947381599083 L4.409886124029953 1.6943529091599636 L4.399886734029934 1.7055150191598933 L4.401230321029971 1.729906294159921 L4.414020238029963 1.7481997511598912 L4.434587458029938 1.7629792121599088 L4.453681900030034 1.773521203159877 L4.462053482030001 1.780135787159967 L4.458436131030027 1.7928481901599191 L4.440995335029982 1.8131053501599332 L4.4347683250300065 1.8247842241599024 L4.433734797029928 1.8347060991599058 L4.4354917950300035 1.8429743281599436 L4.468952285029985 1.928757206159947 L4.496030736029951 1.957075891159949 L4.530938166029927 1.947670780159985 L4.5554586330299 1.9606932421599232 L4.565845596030016 1.9697882931598976 L4.572511856029934 1.9825006961599492 L4.572511856029934 1.992319218159924 L4.564889582029963 2.0103026161599082 L4.565096288029906 2.0234284301598855 L4.569256241029933 2.03686430315992 L4.5739587960299275 2.0398615351599325 L4.581141820029956 2.039964888159961 L4.593053237030006 2.0445124141599003 L4.614524795029951 2.058878462159914 L4.621061863029922 2.0678701621599522 L4.597574925029932 2.075518274159922 L4.595146133029971 2.0847166791599285 L4.599228572029972 2.1094180131599423 L4.597161514030006 2.119236535159903 L4.588247330029901 2.134326054159903 L4.586180272029935 2.1438345181599807 L4.586645360029962 2.180318079159907 L4.59230392903001 2.1941673621599627 L4.606049860029941 2.2090501751599056 L4.624033259030028 2.222175989159968 L4.637004043029947 2.225483280159967 L4.644962214030016 2.2161815231599498 L4.650491592029994 2.1676056761599405 L4.654522353029904 2.154996627159921 L4.660646011029968 2.1469351031599366 L4.6750895740299825 2.142904342159941 L4.678035130029997 2.1523094531598908 L4.6749345450299415 2.1749437291599385 L4.689300593029969 2.1885863081599446 L4.7074390200299945 2.195821008159914 L4.722941950029906 2.205432825159921 L4.732192031029911 2.2379889771599615 L4.745188654029931 2.260003137159945 L4.750046239029956 2.27106189415996 L4.75105393002994 2.2807770631599062 L4.74929693102996 2.3010342241599098 L4.750046239029956 2.3108527461598705 L4.754826309029966 2.332143437159946 L4.760407364029987 2.34123848815992 L4.770561783029933 2.3459927201599164 L4.773972427029975 2.3461994261599735 L4.783920140029977 2.350746952159998 L4.7903796950299125 2.3612889441598846 L4.792007502029975 2.3735879351599216 L4.787640844029966 2.3834064571598823 L4.773869074029932 2.4026300901599065 L4.772163752029968 2.4208201941599476 L4.779062556029942 2.436633182159941 L4.791051488030007 2.4486221151599104 L4.805055801029994 2.4562702271599797 L4.820894628029919 2.4603009891598795 L4.863346817029935 2.462264693159998 L4.884017389029964 2.4663988081599264 L4.904998021029968 2.4737368611599244 L4.926417902029982 2.4771475061599553 L4.948664606029922 2.4690859821599567 L4.960886082029958 2.474667037159879 L4.979205378029917 2.4781810341599346 L4.99600021902998 2.4848989701598647 L5.003312434029965 2.4997817831599924 L5.0080149890299595 2.5200389451599996 L5.019926407029999 2.538849166159924 L5.051707413029931 2.5721287881599615 L5.044317682029998 2.5859780721599215 L5.048968561029966 2.5969334751599895 L5.06010483303001 2.6022044721599293 L5.072222956030004 2.598897180159927 L5.0748584540300214 2.5908356561599426 L5.0782174220299225 2.5642739701599204 L5.0821189930299795 2.558486210159945 L5.098577936029955 2.556729211159965 L5.1020402580300015 2.5623102661599866 L5.106923680029922 2.57895007715992 L5.106923680029922 2.587218306159958 L5.099921523030019 2.599517298159899 L5.0995081120300085 2.606235233159925 L5.102557022029941 2.6115062291599607 L5.111316177030005 2.619981164159956 L5.113150690029926 2.623391809159987 L5.12364100702996 2.6333136841598908 L5.147928930029963 2.6474730261599326 L5.1950836740299735 2.6683503051599082 L5.207460179029937 2.669797245159902 L5.233608454029962 2.6701073041599734 L5.2400680080299935 2.671450891159939 L5.256397761029945 2.684576705159916 L5.277016657029947 2.6950153441599447 L5.278153539029944 2.691914758159914 L5.278256892029987 2.68964099515998 L5.279652155029964 2.6884007611599436 L5.29425074703002 2.6903644651598917 L5.2991083320299595 2.691811405159971 L5.315463923029995 2.7055573361599166 L5.319443008029964 2.7134121541599434 L5.320347345029916 2.7249876751598983 L5.319184626029994 2.7472085411599245 L5.314068659029999 2.768809290159897 L5.296059422029998 2.8089102011599927 L5.298720759030033 2.825963423159923 L5.304870254029993 2.829994186159926 L5.326858576029991 2.8376422971599915 L5.335979466029954 2.84270658715997 L5.344428563029965 2.852111698159934 L5.356133275030032 2.873299036159981 L5.363626358029961 2.8837376751599244 L5.377165583029949 2.8974836061599554 L5.392771866029989 2.9096792441598787 L5.41173711602994 2.9182575321599025 L5.435301569029946 2.921564824159905 L5.475841731029959 2.9142267691599137 L5.49080205703001 2.918050826159945 L5.500956477029973 2.9494700971598924 L5.510258234030005 2.9516405071599685 L5.519792536029911 2.949573450159921 L5.524650121030021 2.947609745159884 L5.531678116029951 2.943165572159973 L5.54278854902995 2.9317967571598906 L5.551935277029941 2.9277659951598913 L5.573277644029929 2.92611234915994 L5.590950984029945 2.93107328615989 L5.60539454602997 2.9402716921599854 L5.633248143029931 2.969313847159885 L5.643712621029977 2.9727244911599975 L5.653737848030005 2.9632160281599234 L5.66867233802995 2.942028691159866 L5.684046076029944 2.95949532515991 L5.744042414029934 2.9614590291599434 L5.765669001030005 2.9901911251599422 L5.784324193029988 2.987814010159912 L5.816053522029904 2.9762384891599574 L5.829179336029966 2.980372603159882 L5.838481094029987 2.989157597159963 L5.849436498029974 2.996495650159961 L5.867264867029917 2.9967023561599184 L5.879357152029911 2.986677128159986 L5.886023412029999 2.977788781159891 L5.891604467029936 2.9680736121599445 L5.925297500029984 2.927145878159923 L5.92560755902997 2.921564824159905 L5.9429191640299734 2.9192910611598855 L5.973511611029977 2.9095758911599496 L5.987102513029981 2.9073021281599303 L6.130762995029926 2.9277659951598913 L6.133656876029988 2.9306598751599644 L6.188072158029968 2.958461796159927 L6.229775039029931 2.992258182159919 L6.246311498029911 3.000319706159903 L6.268273982029967 3.003523645159877 L6.280986383029926 3.003937056159888 L6.292355199029998 3.005694055159953 L6.3027421620299435 3.009828170159981 L6.31230230103003 3.017166223159979 L6.319743708029961 3.028121627159951 L6.321500707029941 3.0381468541599794 L6.322120823029991 3.0476553181599577 L6.325996556029963 3.0574738401599326 L6.334264785030001 3.0643984821599197 L6.343153131029936 3.0671890091599643 L6.350336156029982 3.0715298301599496 L6.353281713029958 3.08269193915989 L6.357054092029898 3.08930652315998 L6.39519129902996 3.1169017381598856 L6.417412165029987 3.122276086159932 L6.429039363029943 3.127030318159928 L6.458081518029957 3.149354536159894 L6.470587214029933 3.1543154751599367 L6.541177221029926 3.1536953571599646 L6.552546035030019 3.15090483015992 L6.55647344402999 3.143463424159993 L6.565826879030027 3.1348851351599656 L6.586652480029983 3.1202090291598843 L6.591200007029926 3.1191755001599013 L6.6029305570299925 3.120829146159938 L6.607788141029914 3.1202090291598843 L6.612387344029969 3.115971562159931 L6.616831517029965 3.1047060991599587 L6.6214307200299345 3.0997451621599232 L6.6490259350299254 3.087962936159915 L6.651816462029984 3.086102584160006 L6.663443659030037 3.0882729941598974 L6.68328740902993 3.0975747521599324 L6.713466445030036 3.1050161581599447 L6.723750055030024 3.118555383159933 L6.730674697029997 3.1543154751599367 L6.734912165029954 3.1607233521599802 L6.741423395029926 3.1658909951599874 L6.745040746030014 3.1714720501599096 L6.737392634029931 3.1831509241598788 L6.7363074280299315 3.1888353311599253 L6.737392634029931 3.1945197391599613 L6.740596572029915 3.19906726516 L6.762817439029959 3.2180841911599636 L6.773772842029928 3.230073124159933 L6.778475397030007 3.240305058159908 L6.7814209540298975 3.2623192181598917 L6.789327448029951 3.2814394981599726 L6.800489558029966 3.296218957159997 L6.813201960029943 3.305210657159936 L6.824002335029974 3.3089313601599493 L6.833355769029993 3.3098615361599037 L6.841985733029958 3.3075877731598986 L6.850460668029967 3.3018000121599194 L6.859607396029958 3.298389368159892 L6.864723363030038 3.305210657159936 L6.868030654030036 3.3146157681599853 L6.920585586029915 3.3813817181599326 L6.92342779002999 3.3878929481600046 L6.928388727029926 3.3926471801599014 L6.939499161029943 3.39450753215991 L6.949576065029987 3.3951276491598783 L6.957069147029927 3.3972980591599544 L6.961823379029909 3.402362349159933 L6.9634253480299435 3.4110439901599854 L6.968334610029984 3.427270390159908 L6.981098689029949 3.4412230271598965 L6.998668675029933 3.4530052531599047 L7.018047337029998 3.462823775159965 L7.019856013029994 3.4429800251599723 L7.0306047110300085 3.437502323159979 L7.047192845029997 3.4377090291599366 L7.066468155029952 3.4349185011598884 L7.079335586029941 3.426960331159922 L7.089515844029904 3.419002160159952 L7.101866511029954 3.4173485151599188 L7.121038467029962 3.428717330159902 L7.130598607029981 3.4369855591599396 L7.13716151402997 3.4448403771599807 L7.140985570029898 3.4539354291599444 L7.143311009029929 3.477706588159908 L7.146825007029975 3.482357467159975 L7.233899796029931 3.5191510861598836 L7.295808161029953 3.5173940881599925 L7.316375381029957 3.520804733159924 L7.330017959029959 3.530313195159909 L7.357561498030037 3.5621458781599564 L7.359783584029941 3.5669001101599385 L7.361023819029981 3.5769253381599704 L7.364382787029996 3.578889042159904 L7.37823207102997 3.5780622191599782 L7.381797744030024 3.578889042159904 L7.398799291029945 3.5894310341599613 L7.406654108029983 3.5922215621599243 L7.453472956029998 3.59749255815996 L7.466908828029943 3.596045618159966 L7.477967585029944 3.5863304481599307 L7.498173070029935 3.594391972159915 L7.514864558029984 3.5907746221599304 L7.529333959029998 3.583126509159957 L7.566851048030003 3.573618046159968 L7.576979630029967 3.5726878711599177 L7.587573298030037 3.575064986159962 L7.614548395029971 3.5931517381598788 L7.616047012029981 3.570207402159941 L7.6261239160299965 3.5731012821599286 L7.648654841030037 3.599352910159954 L7.659351862030036 3.6032803181599355 L7.668033503029903 3.6011099081599447 L7.673821263029964 3.6025568481599386 L7.675991674029973 3.6171296021598955 L7.676043350029971 3.6841539351599017 L7.67909225903 3.70131051015996 L7.689272516029973 3.714953088159877 L7.710769912030003 3.7302493121599305 L7.754901586030002 3.777894983159971 L7.768802546029974 3.7849229781599725 L7.769836075029957 3.78916044515994 L7.785235651030035 3.81282825115996 L7.790713353029929 3.816445601159945 L7.813140924030023 3.826470830159966 L7.830142471029944 3.83783964415996 L7.878666641030009 3.8842450801599604 L7.889001927029938 3.891583134159962 L7.908587295029946 3.9015050091599512 L7.916183731030003 3.9084296511599383 L7.91990443403003 3.9162844681598763 L7.940523331029937 3.9831537711599374 L7.952150528029904 3.992972294159916 L7.974526423029971 3.9965896451599043 L7.994215144029937 3.99266223515993 L8.014265599029983 3.9857375941599464 L8.034161025029988 3.9826370081599016 L8.053384658029984 3.990388472159996 L8.072763321029953 3.978916304159984 L8.095604304029962 3.970338017159964 L8.120408991030018 3.964860315159971 L8.191386571029994 3.958452437159938 L8.195440414029946 3.9591473821599728 L8.200429946029942 3.960002730159946 L8.22763758802995 3.985014123159946 L8.237688654029967 3.990388472159996 L8.285075943029966 4.000517053159957 L8.32975021803 3.9960728801599465 L8.37302923102996 3.9804665971599213 L8.440777033029946 3.946050094159961 L8.45612493302994 3.947186975159884 L8.471369481029967 3.9532847941599307 L8.507284602029927 3.959589319159935 L8.52847193802998 3.9724050741599264 L8.539944107029896 3.976745894159908 L8.55061529003001 3.976745894159908 L8.57345627302999 3.969821252159921 L8.63939540102993 3.972198368159969 L8.649188085029976 3.9664106081599932 L8.654924169029954 3.9463601521599436 L8.66978114302998 3.9368516881599653 L8.712491715029984 3.930650517159979 L8.716315770030008 3.9267231081599085 L8.728382217030003 3.919488408159939 L8.74127548703001 3.916904586159948 L8.747244115029929 3.9269298141599656 L8.747244115029929 3.9675474901599053 L8.766493586029952 3.9875979451599513 L8.810625259029962 3.9953494101599496 L8.859201106029957 3.998553348159934 L8.891757258029998 4.005271285159953 L8.910257421030025 4.022737919159997 L8.91782801802998 4.027802210159965 L8.986531834029932 4.056534305159975 L9.062928862029992 4.115197490159989 L9.135799209029983 4.17115263215992 L9.17042241902999 4.1892393841599365 L9.193418431029954 4.193993615159929 L9.199877985029929 4.1968874961599205 L9.20362452703003 4.201435021159956 L9.20892136102998 4.213423954159996 L9.213365534029975 4.2179714801599495 L9.22243474802994 4.222312301159921 L9.29788233902994 4.240088994159951 L9.315865738029942 4.250217574159908 L9.323229629029925 4.268924442159989 L9.325374201030002 4.295796187159983 L9.331187799029976 4.323288050159963 L9.339688573030003 4.3491262651599705 L9.349946344029973 4.370727014159943 L9.358059545029988 4.379098596159924 L9.379866999029929 4.396875289159954 L9.381779027030035 4.402766402159958 L9.376895604030011 4.412894983160005 L9.38307093702997 4.419096155159895 L9.392760269029935 4.423333623159937 L9.398806411029966 4.427261031159919 L9.401312718029942 4.435632613159985 L9.400537572029947 4.441730432159947 L9.391985123029997 4.4607473601599175 L9.37909185302999 4.507669559159954 L9.369066624029983 4.529270308159926 L9.351264094029943 4.544359827159926 L9.327105361029965 4.550974410159927 L9.320232396030008 4.55603870115991 L9.314987239029989 4.569577926159884 L9.310853123029972 4.592315556159949 L9.309561213030008 4.61505318615993 L9.31281682802998 4.62838570615995 L9.326097671029913 4.650813277159944 L9.32648524403001 4.6762380821599585 L9.32286789402994 4.703419885159949 L9.324159805029979 4.730705041159954 L9.334185033029996 4.748998499159928 L9.388574478029966 4.79313017115992 L9.397152766030018 4.809459924159956 L9.411803034029901 4.872298466159936 L9.444695083029927 4.943301884159926 L9.450069433029995 4.984953088159944 L9.41929611703003 4.995185022159919 L9.435780899029908 5.02774117415996 L9.484460098029928 5.060504032159958 L9.496784927029978 5.082414839159927 L9.499678807029966 5.143082971160002 L9.503632054029936 5.225041792159974 L9.507611140030008 5.307000614159936 L9.511641901029918 5.388959436159912 L9.515595148030002 5.470918257159969 L9.518695735030036 5.535720504159986 L9.51352809102994 5.547502730159895 L9.399193985029967 5.548846318159949 L9.206260025029934 5.551223433159908 L9.259021662029966 5.596078576159886 L9.328319758030005 5.676590458159954 L9.436375178029976 5.801957483159928 L9.52804916902997 5.908410933159946 L9.542105159029944 5.930631799159929 L9.550528417029994 5.955023075159918 L9.56368006902997 6.1037478471599265 L9.58150843803 6.305389286159912 L9.59473760502999 6.453803999159934 L9.601533055029932 6.561084273159981 L9.60869024202998 6.674359012159957 L9.627810521029971 6.717147099159977 L9.658661351029963 6.725415328159929 L9.72808863802993 6.727792444159977 L9.91849045302996 6.734510380159907 L10.108943944030017 6.741124964159912 L10.29939743502996 6.7477395461599095 L10.489825088029988 6.754457483159928 L10.680252741029932 6.7610720661599295 L10.870732070029987 6.7677900031599485 L11.061056370030002 6.774507938159974 L11.251535700029962 6.781122522159965 L11.323779352029987 6.783602991159942 L11.346258601030002 6.7808124641599825 L11.366877497030003 6.770787235159961 L11.374267227030003 6.761278772159887 L11.388168187029976 6.736577437159969 L11.395557917029976 6.731719853159948 L11.438759414029931 6.732753381159927 L11.448939671029905 6.741641728159937 L11.45395228602996 6.839000126159906 L11.449663142029976 6.852849410159951 L11.42620204102991 6.871659631159961 L11.424910131029975 6.889022912159891 L11.445839086029963 6.925506474159906 L11.43240321303 6.9618866821599745 L11.332616022029981 7.0714407191599555 L11.315821182030021 7.101929814159934 L11.308224746029964 7.136036259159912 L11.311842097029938 7.179341109159967 L11.332254287029997 7.2547887011599705 L11.3355615790299 7.293649377159927 L11.333391169029994 7.300677372159942 L11.324451146029958 7.318454064159969 L11.321867324029967 7.327859175159919 L11.32222905902998 7.3396414021599305 L11.332150934029954 7.3893541301599335 L11.349307510029917 7.419636519159955 L11.356025446029946 7.437723270159967 L11.361709854029982 7.507589807159949 L11.366877497030003 7.522989384159946 L11.377522842029975 7.540559371159919 L11.38222539702997 7.562470178159959 L11.383672338029953 7.651973759159976 L11.38935674503 7.689800907159967 L11.407340143029899 7.7195665321599485 L11.44480555702998 7.739306930159916 L11.476328181029942 7.743234339159887 L11.48635340802997 7.746128218159971 L11.496223607029947 7.752019332159964 L11.514103653029906 7.766385380159964 L11.523973851029979 7.772379846159911 L11.532345433029946 7.774860315159973 L11.548571833029968 7.777547489159904 L11.556943415029934 7.782095015159943 L11.568260554029933 7.796667769159999 L11.584435277029911 7.829740686159898 L11.600093236029977 7.840902796159927 L11.613942519029933 7.844416793159969 L11.625311335030005 7.845760380159934 L11.636266739029992 7.84875761315995 L11.649134170029981 7.856922489159974 L11.676471003029917 7.88586129115993 L11.687374730029973 7.893612756159943 L11.722773086030003 7.908288863159928 L11.73481369502997 7.914696741159961 L11.778325251029997 7.949113244159921 L11.80700567102997 7.961102176159972 L11.844936172029975 7.970197229159954 L11.882814997029982 7.972677698159931 L11.911495417029982 7.964616174159932 L11.934388077029979 7.960895471159919 L11.951751358030009 7.963375940159995 L11.974075577029964 7.972057581159948 L11.987769831029993 7.985803512159894 L11.99774338202991 8.00812773015996 L12.000223851029972 8.032932418159906 L11.998931941029923 8.056496871159897 L12.000947321029969 8.07282662315993 L12.000533910029958 8.111273889159893 L12.002600967029935 8.12987740415993 L12.010559138029976 8.147860803159919 L12.020946101030006 8.161089970159924 L12.033606826029967 8.172975549159947 L12.048127904029997 8.182587366159954 L12.064044245030004 8.188995243159898 L12.055517634029911 8.220827926159945 L12.059186661029912 8.231679976159985 L12.077170059029982 8.253177372159943 L12.091691136029937 8.277465296159935 L12.089727432030003 8.29544869415992 L12.058411514029899 8.298445927159936 L12.151584121029998 8.453475224159963 L12.203002172029983 8.57512154615991 L12.237418675029943 8.635996382159949 L12.277312881029957 8.657907190159992 L12.297776748030032 8.657907190159992 L12.313951472030027 8.66038765815998 L12.322839818029934 8.670102828159916 L12.321702936029936 8.691910283159945 L12.252766576029899 8.692840458159896 L12.23462814802997 8.69687122015998 L12.22176071702998 8.708446740159932 L12.20548264102996 8.75805611515992 L12.158457087029973 8.900786422159985 L12.111483210029917 9.043413375159947 L12.064509333029946 9.186040328159908 L12.017432103029961 9.328667281159955 L12.006166641030006 9.362773726159919 L12.046267552030002 9.365977666159981 L12.056706192029935 9.374349247159959 L12.060943659029988 9.39429635015998 L12.066731420029953 9.453517541159972 L12.07267420902997 9.49692574415997 L12.01660528002995 9.501059860159987 L11.999500381029975 9.511601851159956 L11.976452693029927 9.557387170159902 L11.945395156029974 9.619192184159903 L11.876872208029965 9.755204553159945 L11.808452611029963 9.891216923159991 L11.777291722030014 9.953021936159903 L11.777291722030014 9.953125288159928 L11.777240046029988 9.953228642159946 L11.764941055029965 9.978033329159903 L11.738017634029944 10.032500289159902 L11.71104253703001 10.087070602159915 L11.69874354502997 10.11177193615993 L11.663861954029983 10.18225858915989 L11.67156174202998 10.210370569159924 L11.747371068029992 10.275792932159991 L11.82803797903 10.34545276315993 L11.92875534602996 10.43247587515997 L11.918730117030037 10.445291630159947 L11.907361303029944 10.461518030159954 L11.892891902030016 10.476504195159936 L11.870567682029957 10.486529423159954 L11.845297907029988 10.480431604159907 L11.829329890029953 10.478571252159984 L11.822146866029982 10.48342883715991 L11.819563044029906 10.492110477159972 L11.81269007802993 10.499861943159974 L11.802819880029944 10.505442997159992 L11.791399389029948 10.507613407159983 L11.766129613029989 10.51732857615993 L11.734968724029926 10.56001331015992 L11.708923802029943 10.569728479159952 L11.702257542030026 10.573242477160012 L11.690216934029962 10.590502405159913 L11.684945937029937 10.596393518159903 L11.672181859029962 10.602801395159947 L11.629703832029918 10.617477502159932 L11.628980361029932 10.591432581159953 L11.643759822030034 10.538515914159891 L11.645361791029956 10.517638636159905 L11.644018203029987 10.475470667159943 L11.646653701030004 10.453249800159913 L11.643346409029931 10.421933882159909 L11.626293187029972 10.36467639615994 L11.624277806029937 10.332637007159935 L11.627326716029955 10.299564091159954 L11.624071101029983 10.285301396159884 L11.613219050029926 10.27372587415994 L11.574048314029994 10.250678186159877 L11.480720677029922 10.196004521159924 L11.387496394029995 10.14122750215994 L11.294220433029949 10.086553837159972 L11.200996150030022 10.031776819159905 L11.107668513029978 9.977103153159934 L11.014392552029932 9.922429488159896 L10.921064916029962 9.86765247016 L10.827840632029933 9.812875451159915 L10.777404434029933 9.78331653315998 L10.748827367029975 9.763989547159941 L10.718855036030021 9.743835738159962 L10.698959610030016 9.739081506159966 L10.617775935029954 9.740115035159949 L10.429415339029987 9.742492151159897 L10.241003067029993 9.744765914159917 L10.052642471029912 9.74714303015995 L9.864178522029988 9.749416793159885 L9.782116348030002 9.75045032115995 L9.631505386029971 9.781352828159957 L9.293024755030018 9.850805953159924 L8.95456996102996 9.920259078159905 L8.616141006030006 9.989815556159986 L8.277660374030035 10.059268680159963 L8.256214655029908 10.062369267159998 L8.208956558029968 10.069190556159956 L8.16177597502994 10.076011844159911 L8.140278579029996 10.07911243115996 L8.051265925030009 10.091928186159937 L8.035297907029985 10.098232711159955 L8.027288060030003 10.110118290159978 L8.00842616302998 10.159314253159952 L7.980314184029936 10.23269478715989 L7.952202204029902 10.306178674159955 L7.924090225029971 10.37976591415995 L7.895926569030024 10.453249800159913 L7.882955785029992 10.479088017159928 L7.870088353029985 10.504926233159953 L7.863760786029928 10.517480528159883 L7.857117568029963 10.53066109615995 L7.844250137029974 10.55649931215996 L7.827558649029953 10.580373824159953 L7.81091883802992 10.604144983159916 L7.794330704029932 10.62801949415999 L7.7776908920299945 10.651894006159896 L7.732990778029944 10.712768843159925 L7.688290664030006 10.773540328159942 L7.643538874029957 10.834415165159971 L7.598838760029992 10.89518665015989 L7.577927483029953 10.923658352159936 L7.556102350029988 10.953374312159998 L7.519670466029993 11.005464156159949 L7.511195531029983 11.0321291951599 L7.512332412029991 11.123079716159996 L7.513469294029903 11.211033004160004 L7.514709528029954 11.307151167159919 L7.516614811029939 11.4527765421599 L7.516621557029964 11.45329211915993 L7.512797500030018 11.518921187159965 L7.480603083029962 11.621653935159973 L7.448098607029948 11.725213505159918 L7.413010309029914 11.836834599159946 L7.376526748029903 11.953209924159953 L7.342316950029897 12.059249963159875 L7.295704808029939 12.204150679159941 L7.2592729230299256 12.317425419159921 L7.215658015029987 12.45312773015998 L7.189096328029962 12.542217900159901 L7.160984350029935 12.636889123159921 L7.1381433660299365 12.686808557159981 L7.129513402029971 12.684018030159923 L7.126671198029925 12.676886682159893 L7.125275934029929 12.667894983159943 L7.121038467029962 12.658903283159905 L7.109204564029966 12.64712105715991 L7.066468155029952 12.618595666159951 L7.019132542029979 12.597098270160007 L7.00502487602995 12.583248987159951 L6.997583470030037 12.56557564715995 L6.997428441029996 12.533949671159949 L6.990710505029966 12.52175403315994 L6.993449356029998 12.513485803159899 L6.993501032030025 12.503563929159984 L6.98714483102998 12.465840132159943 L6.984147598029978 12.45643502115998 L6.969936579030019 12.453231083159924 L6.926476699030019 12.44558297115994 L6.778578750029936 12.453024378159956 L6.778061986029996 12.45312773015998 L6.463585057529997 12.451474084659981 L6.149108129029997 12.449820439159982 L6.110660863029949 12.456021610159969 L6.094589492029968 12.46439319215995 L6.048080704029957 12.502943811159927 L6.03671188802997 12.498086226159916 L5.995474095029948 12.46387642815991 L5.97537196303 12.455401494159918 L5.882096003029943 12.44951038015991 L5.8553276110299635 12.454161259159964 L5.840909886029948 12.45994901915994 L5.837550918029933 12.463152958159913 L5.837034154029993 12.469044071159917 L5.8274740140300025 12.49147164316 L5.8238566640299325 12.510901982159982 L5.820394343029989 12.518860152159949 L5.812694554029974 12.526198205159947 L5.805046443029994 12.529712203159907 L5.798121801029936 12.53167590715994 L5.792850804029996 12.535293258159914 L5.784117487029931 12.551623010159947 L5.768717910029949 12.607743616159912 L5.737479507029946 12.681537561159946 L5.729702204029934 12.692699670159886 L5.709625910029985 12.702931604159875 L5.702262019029973 12.710269657159959 L5.6279513090299815 12.890827112160014 L5.603792577029935 12.923589970159927 L5.5521678210299115 12.969065231159977 L5.5376725820299555 12.99304309415989 L5.494522761029941 13.143214807159982 L5.493902643029969 13.215251754159969 L5.485014297029949 13.234682092159947 L5.4615531970299855 13.311576624159944 L5.463206843029923 13.324289026159892 L5.4446033270299665 13.31602079615995 L5.4407792710300384 13.269305302159953 L5.428506119030004 13.255352665159965 L5.436180069029973 13.231478153159973 L5.432769424029971 13.204296350159982 L5.419514419029952 13.182075484159956 L5.397732803030038 13.172877080159953 L5.386777400029956 13.16471220315994 L5.360215713029959 13.111382125159938 L5.350268000029956 13.104250777159994 L5.341276301030007 13.101046838159935 L5.334790909030033 13.095259078159959 L5.332258763029955 13.080376265159916 L5.333292292029938 13.069007450159933 L5.3380465240300055 13.049473759159927 L5.3390800530299884 13.039448531159994 L5.342955784029954 13.028596480159951 L5.3512498520300085 13.01970813415993 L5.358665420029922 13.009476200159956 L5.360215713029959 12.994696741159945 L5.3047669010299785 12.943537072159945 L5.29037501502998 12.925140263159935 L5.2844580640299625 12.90229928015994 L5.280685684030033 12.896304813159905 L5.2627539620299615 12.885349410159936 L5.25717290702994 12.878011356159934 L5.257431289029938 12.867882776159977 L5.26520859202995 12.848555790159939 L5.263942519029996 12.837703740159984 L5.25061000002998 12.82664498215998 L5.229629369029965 12.813002405159882 L5.2164777170299885 12.795535771159923 L5.226425430029906 12.77217802315997 L5.239344538029911 12.757708622159942 L5.24624334202997 12.743859338159982 L5.245726578029945 12.727839645159936 L5.2366573640299805 12.707375777159971 L5.2282857820299 12.695490198159948 L5.201620743029963 12.665104456159984 L5.192293146029925 12.658903283159905 L5.1722168530299655 12.654562464159927 L5.1497892810299675 12.644020471159951 L5.130720677029899 12.63079130415996 L5.109455825029926 12.627794072159947 L5.1010584050299315 12.625210249159952 L5.093255264030006 12.626553837159921 L5.074806778029995 12.634098596159962 L5.065608373029988 12.635648889159985 L5.026179255029973 12.626760543159964 L4.956028498029923 12.589863570159938 L4.768132990029983 12.54893583615993 L4.598022366029909 12.550826848159975 L4.331157079029936 12.553793420159938 L4.2780337060300155 12.548212366159934 L4.208606419029962 12.53880725515997 L4.199976455029912 12.539634077159906 L4.195067194029974 12.543458134159938 L4.19062302102995 12.548005660159962 L4.183181615029952 12.551416304159904 L4.043887791029988 12.566402470159876 L4.013191991029942 12.557410770159922 L3.983943131030003 12.538187138160001 L3.8558114160299795 12.39690377215992 L3.8340039620299535 12.385431604159908 L3.7419682360299475 12.370342086159997 L3.7367489160299385 12.364967737159933 L3.724915013030028 12.316391890159938 L3.694012506029935 12.285282679159895 L3.6506818190299555 12.26481881115993 L3.5660358230299494 12.239290653159987 L3.5484916740299752 12.24476835515988 L3.5009493550299737 12.409306115159982 L3.4913375390299564 12.502633753159945 L3.4869967190299747 12.517309859159926 L3.4808989000299277 12.52940214415992 L3.478676813030006 12.530539026159932 L3.474439346029982 12.52816191015997 L3.4618302960299445 12.529712203159907 L3.4532520090299954 12.534673140159942 L3.4455005440300113 12.54283801715997 L3.4393252100300344 12.55255318616 L3.435268610030022 12.561958297159965 L3.411032364030035 12.579424930159906 L3.278172256029933 12.615288375159952 L3.161745254029995 12.64495064715992 L3.1579211980299817 12.649704879160002 L3.1552340240299372 12.657249638159957 L3.1521851150299085 12.663657515159986 L3.1471208240299404 12.664897749159937 L3.1306877190299645 12.65973010615993 L3.111102351029956 12.657456343159911 L3.1000435940299553 12.654045699159983 L3.0891915430299832 12.653115524159933 L3.0756523180300235 12.658799930159976 L3.0526046290299576 12.677403447159936 L3.039633844029936 12.697247196159925 L3.0323991440299665 12.720604944159962 L3.020565241029942 12.79491565315995 L3.0133305410299727 12.817549931159906 L3.000463109029994 12.832432743159945 L2.997982641029921 12.840700972159897 L3.004028783029952 12.869639774159953 L3.0034086660299977 12.879975061159971 L2.9920398500299825 12.88720976215993 L2.8798503160300015 12.919869267159914 L2.8531852770299793 12.932891728159948 L2.8329281160299615 12.953045536159923 L2.8232646220299387 12.96668811515993 L2.8103455150300363 12.974852990159949 L2.79494593802994 12.978160282159951 L2.772828424029939 12.976196578159918 L2.7557752020300086 12.97692004816 L2.7641467840299754 13.069937626159973 L2.7618730210299702 13.091745080159999 L2.7508142640299695 13.106937952159942 L2.6752633210300303 13.16243844015992 L2.6458077540299314 13.19509794515999 L2.594596410029908 13.274576298159975 L2.2782332910299488 13.338138310159952 L2.241387995029953 13.344856246159981 L2.171728164029929 13.349610477159974 L2.01706060203 13.34103219015994 L1.9849178620299597 13.331006962159922 L1.9772180740299632 13.323978967159906 L1.955462295029946 13.292456344159948 L1.9505530350300262 13.293179813159941 L1.912157445029976 13.285945113159887 L1.9014087470299614 13.271062301159933 L1.8970162500299637 13.245224085159908 L1.8971712800299088 13.168019495159928 L1.929779108029976 13.019191369159987 L1.929314020029949 12.99965767815998 L1.8988249250299702 12.943537072159945 L1.8902983140299625 12.893824345159931 L1.881564997029983 12.872430301159927 L1.843221084029949 12.806594527159934 L1.8366065010299621 12.786440718159955 L1.836296442029976 12.766493616159938 L1.8537114000299084 12.704068486159972 L1.8525228420299698 12.684638147159905 L1.843531143029935 12.66066028215997 L1.8154708400300024 12.622936487159937 L1.811905166029959 12.612187789159908 L1.8152124580299471 12.602782678159958 L1.8278731840298974 12.58603951415991 L1.8313355050299265 12.576944462159933 L1.8278731840298974 12.555240360159932 L1.8158842520300311 12.5311591431599 L1.7983142640299548 12.509971806159943 L1.7782638090299088 12.497259403159976 L1.7297396390299298 12.45312773015998 L1.7057617740300088 12.432663863159934 L1.696460016029988 12.420778284159912 L1.6922742250299336 12.40630888315997 L1.6809054110299542 12.241977828159921 L1.660131485030007 12.164669886160002 L1.5979130600300095 12.058733199159935 L1.5900582430299721 12.024213342159957 L1.594760798029938 11.780817346159925 L1.5809631900299905 11.73668567315993 L1.3721904040299648 11.412157678159947 L1.3564290920299982 11.397378218159933 L1.3345699620299456 11.392107223159915 L1.2925053460300262 11.39396757415992 L1.278294327029954 11.392520634159926 L1.256946159030008 11.380040922159939 L1.2333875070299598 11.366269006159985 L1.2165409900299835 11.324721155159896 L1.2157141670299723 11.195220016159997 L1.2234139550299403 11.171862268159959 L1.2382967680298975 11.151398401159913 L1.3068713940300256 11.095381148159976 L1.3075431870300065 11.07708769215991 L1.278294327029954 11.054246708159912 L1.2521977280299836 11.044118127159951 L1.2051721740299968 11.015386031159952 L1.1029561920299216 10.969187300159906 L1.0809420310299345 10.953270960159973 L1.0588245190300256 10.931566858159972 L1.0377922110299096 10.904178349159938 L1.0230902650299356 10.873585901160016 L1.0194729150300361 10.84289010015998 L1.0308158920299206 10.816638473159944 L1.0533468160299435 10.799895309159897 L1.1099841860299478 10.780981734159955 L1.070451716029993 10.71431913715995 L1.0590312240299795 10.68103951415991 L1.0602197820300034 10.641972132159896 L1.0652323960299839 10.613343388159908 L1.0622351630299534 10.60331816015989 L1.0294723050299694 10.596496871159932 L0.9990348860299889 10.578203414159962 L0.9959084630299344 10.558979781159938 L1.0129616850299783 10.542029911159933 L1.1356156970300049 10.5065798781599 L1.1663631740299536 10.503685998159913 L1.1807292230299424 10.505959762159936 L1.1913228910299267 10.509060347159977 L1.200159561029949 10.50792346615997 L1.2091512600299836 10.497794885159923 L1.2139571690299817 10.487562952159937 L1.2223804270299752 10.453249800159913 L1.2235689850299991 10.433716109159906 L1.2438778230300045 10.387103967159934 L1.246926732029948 10.372737919159935 L1.2455831450299684 10.366536747159945 L1.2415523840299727 10.360542281159926 L1.2369531800299285 10.346796350159895 L1.2359713280299616 10.317237430159953 L1.2349894770298988 10.31020943615994 L1.2273930410299272 10.296670210159963 L1.2176778720299808 10.289952275159937 L1.186930394029929 10.277756637159928 L1.1696187890299257 10.265767704159973 L1.13814784202998 10.23393502215993 L1.0900887600299427 10.19869169515994 L1.0830607660299165 10.18618599915995 L1.0852828520300193 10.16789254215998 L1.0982019600300248 10.147738733159901 L1.13990484102996 10.112702112159884 L1.1575265040299598 10.094305302159984 L1.2117647020299387 10.016959874159983 L1.2563835190300097 9.953331995159974 L1.2563835190300097 9.953228642159946 L1.278294327029954 9.923979781159904 L1.292143610030024 9.910750614159912 L1.3323995510299653 9.893594039159954 L1.3408744860299748 9.886979456159953 L1.3334847560299465 9.867755823159928 L1.3159147690299733 9.847808720159907 L1.2952958730299713 9.82930855715998 L1.1884290100299495 9.755721318159988 L1.1527722720299494 9.742905562159908 L1.1251770580299478 9.725955692159904 L1.090037084029916 9.667974735159948 L1.067247777030019 9.64410022415996 L0.9730933170299352 9.56565539915994 L0.9411314440299634 9.544364709159954 L0.8937183180299826 9.528861780159946 L0.8799982250299365 9.520283492159923 L0.8688102770300077 9.506124150159966 L0.8453491760299414 9.453517541159972 L0.8267973380299907 9.421788212159957 L0.8145241850299669 9.408559045159965 L0.7988920640300137 9.39884387615992 L0.8286576890299955 9.360189905159917 L0.8367192130299941 9.341689742159904 L0.8370551090299614 9.31967558215992 L0.8338511700299023 9.309340296159906 L0.778350682030009 9.197615849159948 L0.7779631090300256 9.196892378159948 L0.7778339180299838 9.196065556159926 L0.7779631090300256 9.195342086159929 L0.7853270000300085 9.18190621315998 L0.7873940580299745 9.16857369415995 L0.7850169420299267 9.155034469159975 L0.778350682030009 9.14211536115997 L0.7546570380299897 9.101807743159913 L0.745665339029955 9.05281848615991 L0.746853897029979 9.001245406159985 L0.7535976710300076 8.953393029159901 L0.754114436029937 8.93065540015991 L0.7468022200299629 8.910088179159931 L0.7106803940299358 8.851177047159926 L0.706623795029941 8.834847294159974 L0.7092076160299428 8.780380335159894 L0.7074764550299619 8.771491988159969 L0.6927486720299783 8.72911731315995 L0.6916634670299686 8.720332320159958 L0.6915601140299543 8.709893680159926 L0.6881494700299982 8.68663928615992 L0.6778400210299083 8.670309534159973 L0.6472992500299313 8.639200322159926 L0.6330623920299558 8.59258817915995 L0.6625696350299677 8.56344267215994 L0.6992857410299393 8.535434046159924 L0.7067788230299641 8.492335901159922 L0.706216498029903 8.491430557159976 L0.6964435370299782 8.475696089159985 L0.6843254140299848 8.476109501159915 L0.6686157780299027 8.482207320159961 L0.6476609850299155 8.483137496159916 L0.6307886300300254 8.478073205159948 L0.6146139070299341 8.471251917159893 L0.5843315170299093 8.453475224159963 L0.560715387030001 8.447894169159941 L0.5536873930299748 8.445310347159936 L0.5466077210299716 8.439109176159949 L0.5264539130299681 8.41637154515998 L0.5108993070299448 8.419885543159939 L0.4984711250299654 8.428980594159913 L0.48609462002991677 8.428567183159902 L0.47064336603000356 8.403969202159917 L0.46162582902996974 8.367485640159902 L0.4608506820299567 8.293898400159907 L0.454261937029969 8.258138310159982 L0.42909551502992826 8.211732873159878 L0.39372299702992564 8.173492314159976 L0.3127201890299034 8.10476265915992 L0.291377822029915 8.073756799159899 L0.282386124029955 8.03747994415993 L0.278411833029935 7.95894108715996 Z" fill="black" stroke="black" stroke-width="0.5" vector-effect="non-scaling-stroke"/></svg>