<svg xmlns="http://www.w3.org/2000/svg" viewBox="0 0 3.9808670904599364 2.779817920739987"><path d="M1.976285181729983 2.4208403508700087 L1.9757969007299803 2.420596210870002 L1.8794427337299648 2.377017108870035 L1.8969394787299816 2.377505389870038 L1.924039088729975 2.3865385938700285 L1.9408847917299763 2.389997251870028 L1.925992213729975 2.379214374870031 L1.9036126557299635 2.369692889870038 L1.9574639807299743 2.3613742108699824 L1.9856793137299373 2.3460779868700143 L1.9822686687299917 2.3183794198699985 L1.9821653167299669 2.3183277438700003 L1.9820619637300378 2.3181468758700277 L1.9819586107299383 2.318121036870039 L1.9513661617300126 2.2652043708700518 L1.9209797567299827 2.238874588870047 L1.9103350747299626 2.2296509848699912 L1.7738675267300064 2.1636253448700273 L1.765020947729985 2.1593451988699854 L1.7497247237299316 2.146064356869985 L1.7381492037299804 2.1268148848700577 L1.7297776217299 2.106351017869983 L1.723163037730009 2.09573151087001 L1.7126210447299481 2.0886776778700806 L1.6923638847300335 2.079220890870019 L1.65164285572998 2.0514189708699604 L1.612885531729935 2.008346663870057 L1.5905613117299904 1.9584530688700141 L1.6093715337299752 1.8744013518700768 L1.5934551927299676 1.848563134870048 L1.5624493337299352 1.8333702648700267 L1.4657110517299454 1.8224406988699542 L1.4075233887299614 1.7985403488700484 L1.3852683247300117 1.784029876870008 L1.3534698417299662 1.763297022870077 L1.3048939947299711 1.7220850668699796 L1.1467641117299845 1.6044695078700357 L1.0355564297299704 1.5402615408700768 L1.021190381729971 1.5236992438699843 L1.0127154467299615 1.5024602298700103 L1.0090980957299873 1.485639551870051 L1.001553337729936 1.4710926358699936 L0.9603155447300278 1.4433682298699608 L0.9277593917299978 1.4107087248700765 L0.8787701337299918 1.3743026778700056 L0.8504009297299913 1.3439177678700247 L0.8394960447299038 1.3322380618700578 L0.8239931157299818 1.3190605718700823 L0.8064231287300085 1.309242049870008 L0.7626015147299281 1.2977698818699963 L0.7544366377300005 1.2859876548699987 L0.7498891117299618 1.2712598718699866 L0.7369700037299562 1.2559636488700363 L0.7269447757299385 1.2530180918700324 L0.7008998537299558 1.2544133548700103 L0.6901511557300264 1.253638208870015 L0.680332633729952 1.2496074468700016 L0.6690671717299974 1.2433029228700008 L0.6498435387299732 1.2294019618700105 L0.6351674317299878 1.2117802978700212 L0.6129465657299615 1.1726612398700098 L0.5984771647300047 1.1544194588700378 L0.5550689617300204 1.120778101870016 L0.5387392097300019 1.1036215258700537 L0.5200323407300029 1.0606267338699666 L0.5105238767300104 1.0293624918700601 L0.5095937017299743 1.014169621870039 L0.5124875817299621 1.0032658938699939 L0.5226161627299941 0.9870911708699879 L0.5261301597299646 0.9787195888700211 L0.5288173347299985 0.9619764248700591 L0.5285978987299611 0.9612462338700283 L0.5258201007299785 0.9520028738700574 L0.5150714027299639 0.9443547608700698 L0.4942974777300062 0.9346912688700542 L0.47610737372996503 0.9313322998700215 L0.46494526472993947 0.9310222418700533 L0.4612245617299404 0.9341745038700111 L0.4617413257299656 0.9263713628700003 L0.4683559087299809 0.9221855718700311 L0.476830843729962 0.9182064868699769 L0.4828253097299946 0.9110751388700322 L0.4826186037299376 0.8956755618700498 L0.4759006677300217 0.876710311869985 L0.45130268573003285 0.8274626708700197 L0.4460316897299972 0.8078773038700007 L0.43941710673001033 0.7903073168700274 L0.427841585729956 0.779403588869954 L0.4066542477300086 0.7768714448699683 L0.3702740397300115 0.7884469648700048 L0.34960346672999343 0.78658661387 L0.3290362467299328 0.7707736258700066 L0.33689106573003436 0.7547539308700522 L0.35342752272994993 0.7395610598700131 L0.3578716967299638 0.7263835698700376 L0.36613992573000154 0.7233346598700194 L0.36769021873000973 0.7224044848699833 L0.3640728687299397 0.70896861187002 L0.35911193072998593 0.6964629158700149 L0.3512571127299591 0.6870578048700651 L0.33895812172999307 0.6828203378700124 L0.31456684572997595 0.6803398688700355 L0.3020611497299708 0.6773943118700316 L0.2919325687299388 0.6725367278700247 L0.2786000487299045 0.6585840908700362 L0.2710552907299668 0.6336760508700507 L0.26030659272995216 0.6228239998700218 L0.2527618337299966 0.622307234870064 L0.24449360373002627 0.6256662028699935 L0.2360186687299315 0.6272681728700178 L0.22837055772995107 0.6216354418700831 L0.2249599127300339 0.6129538008700166 L0.22227273773 0.6025668388700041 L0.21855203473000095 0.5932134048699567 L0.2117307457299571 0.5875289968700059 L0.19922504872993407 0.5869605558700499 L0.19219705473002158 0.5932134048699567 L0.18682270572997162 0.601791691869991 L0.1793812997299451 0.608199569870024 L0.17080301173000656 0.6102666268700006 L0.152922965729962 0.6112484788699675 L0.14331114972994463 0.6135222418699726 L0.12863504272995918 0.6151242118700253 L0.11995340272999577 0.6085096278700206 L0.11344217173003379 0.5983810468699602 L0.10579405972995026 0.5891826418699821 L0.0822296067299444 0.5776071218700309 L0.07664855172995111 0.5724911548700362 L0.05143045272997959 0.5426738538700278 L0.04026834373003929 0.5253105718700084 L0.03902810872999929 0.5085674078699611 L0.05360086372998829 0.49476979987001357 L0.07416808372996364 0.49022227487007797 L0.09163471672990475 0.48443451386999925 L0.09638894873000048 0.4667611738700117 L0.08698383772993701 0.44774424687004455 L0.0709641447299898 0.42976084787004254 L0.057218213729973044 0.4096587158699805 L0.053807568730027455 0.3845439698699664 L0.05706240572995647 0.37733682987006034 L0.06176573872999391 0.36692230686999494 L0.08657042673003978 0.33622650587004443 L0.09039448272996786 0.31855316587002847 L0.07850890372994535 0.2882191008699948 L0.07892231572994568 0.2695639088700119 L0.1023834147300331 0.2264140868700082 L0.10672423573000422 0.21085948186997427 L0.10300353273000518 0.1514832608700516 L0.10393370772995603 0.14378347187003726 L0.11530252373002803 0.12197601787001133 L0.12552277573003856 0.1153035598700427 L0.14775532272996905 0.10078868086996806 L0.20180887073003895 0.09453583287005074 L0.2975136237299605 0.09639618387005555 L0.3204579597299837 0.09324392087002309 L0.33141336272995225 0.0936056568700252 L0.3434022957300069 0.09784312387004945 L0.35218728872989935 0.10673146986998461 L0.3516705247299594 0.11551646387006542 L0.34794982172996036 0.12285451687004922 L0.3473297037299883 0.12745371987001874 L0.3560113447300264 0.13205292187005568 L0.3779221527299992 0.13536021387004382 L0.39042784873000436 0.14218150287000242 L0.40572407272994404 0.160164900870015 L0.42701476272994476 0.19923228387001757 L0.444481396729989 0.2156137128699669 L0.5359486827300284 0.280312606870055 L0.5641640137299841 0.29281830287003174 L0.6023012217299506 0.3046005298700294 L0.6391981937299729 0.31054331886996067 L0.6635894697299332 0.3058407638699947 L0.6689736487299651 0.29176692987002184 L0.6799192227299411 0.26315603086997896 L0.7002797367299731 0.23618093287005593 L0.7049306157299409 0.22806773387004853 L0.7069976727300027 0.2163371828700491 L0.7049306157299409 0.20982595286999128 L0.704723910729987 0.20419322187005662 L0.7121653167299282 0.19494314087005193 L0.7214670737299311 0.19034393786999715 L0.7477187017299709 0.18450450087000547 L0.7584673997299856 0.1789234458700122 L0.772109977729988 0.16367889887006015 L0.8048728357300003 0.11226084886997967 L0.8518983897299872 0.08952321786999562 L0.9099826997299569 0.09091848187007656 L1.1092470217299901 0.1329314208700083 L1.134671826729905 0.13055430486996045 L1.1471775227299954 0.12269948787000828 L1.1487278167300214 0.11541311087005113 L1.1480043457299498 0.10673146986998461 L1.1536887537299858 0.09479421487004913 L1.1637139817300035 0.08776621987003352 L1.1748760907299438 0.08435557487000267 L1.1846946137300076 0.07954966787001183 L1.1902756677300115 0.06838755687006426 L1.19833719173001 0.06482188387001031 L1.2087758307300387 0.05655365487005781 L1.216940706729977 0.04823374987007867 L1.219937939729979 0.04363454587003446 L1.247326449730016 0.02725311686999987 L1.2555946777299791 0.03298920086994883 L1.2636562017299493 0.05402150887006485 L1.2651031417299432 0.06192800287000466 L1.264483024729989 0.07055796787004454 L1.2702707857300393 0.07608734587005017 L1.2909413577299826 0.0744853758700259 L1.2882541827299487 0.06756073487004244 L1.2841200687299104 0.06084279887001287 L1.298899527729949 0.06461517787003856 L1.3110951657299577 0.07526052287003893 L1.3216371587299047 0.08037648987003365 L1.3312489747300074 0.0676124108699554 L1.3349696777299496 0.075312199870055 L1.3365199717299472 0.0812033128700449 L1.3354864427299642 0.08730113187000654 L1.3312489747300074 0.09562103687007095 L1.337346793729969 0.09200368686997251 L1.3531597817299623 0.08482066287002965 L1.3592576007300377 0.08130666586997393 L1.3786879397300051 0.1113306728700394 L1.4213726727299925 0.13411997987002167 L1.447582689729975 0.1427191868699964 L1.510049430730012 0.16321381087003317 L1.5207981287300267 0.1588213138700354 L1.5684437997299678 0.1563925218699893 L1.5726812667300205 0.15189667287005193 L1.5919048997299594 0.12223439987000972 L1.6307655767299902 0.14037282687003483 L1.6494724447299713 0.14585052987000324 L1.682338655729998 0.16109507686995528 L1.6915370607300044 0.16667613186997698 L1.7053863447299786 0.17215383287005182 L1.7237831547299631 0.17075856986998872 L1.7570627767299154 0.16321381087003317 L1.7591298347299666 0.1598548428700184 L1.7617136557299684 0.15365367087004245 L1.7662611817300071 0.14972626187007165 L1.7741159997299487 0.15329193587002976 L1.7799037597300096 0.15995819587003268 L1.78104064172995 0.165642602869994 L1.7779400557299905 0.17117198186998905 L1.770705355730021 0.1774765058700183 L1.7833144047299552 0.18052541587003645 L1.795303336729992 0.1790267998700159 L1.819177848729984 0.17008677687000784 L1.8099794437300059 0.190912377870049 L1.8048118007299845 0.19737193287001276 L1.812253206730011 0.19551158087001852 L1.8624826997299717 0.19080902587002413 L1.884393506730012 0.19241099487005897 L1.8953489097299805 0.19137746587007598 L1.9160194827299986 0.18217906186997368 L1.9529164557300387 0.15442881687003762 L1.974517204729997 0.14641897087007294 L2.0076934737300203 0.14781423387005077 L2.037459098730002 0.1597514898700041 L2.064330843729996 0.17851003487000128 L2.1204514497299467 0.22982473187003905 L2.1385382007299736 0.2416069588700367 L2.1586920087299486 0.24734304286998565 L2.1686138847300267 0.24651621887007025 L2.198172802729962 0.23778290286999493 L2.225561312729999 0.23401052287006507 L2.2341395997299482 0.23070323087004851 L2.250676058729928 0.2197478278699947 L2.311447542729942 0.16796804187002579 L2.3264337077300095 0.16243866387002015 L2.3420399907299636 0.16233531087000586 L2.357956331729971 0.16843312987005277 L2.4132501137300064 0.2037798108700457 L2.435367627730008 0.21116953987005616 L2.454797965729986 0.21390839087000302 L2.4666522967300093 0.21407693687000062 L2.476605420729916 0.21421844886999963 L2.497896110730002 0.21101451087001522 L2.515466097729975 0.20326304587000266 L2.522287386730019 0.19277272987004324 L2.5230108557299413 0.18016367987003434 L2.5252846197299643 0.16770966087004524 L2.536240022730018 0.15799449187001358 L2.560838004730007 0.15432546487001275 L2.5849192227299422 0.16109507686995528 L2.630394483730006 0.18424611886995024 L2.6452772957299455 0.18889699787000325 L2.715867301729949 0.19313446587004535 L2.7349875817299303 0.19933563687003186 L2.7522475107300206 0.2095675698700319 L2.77478410872998 0.2268181968700418 L2.78904112973 0.23773122586997886 L2.8046624407299614 0.24485558987001355 L2.8137424647300318 0.24899668887003656 L2.8399940917299684 0.25592132987002003 L2.864075309729989 0.25648977086997604 L2.862214958729984 0.24243378187004794 L2.8573573737299878 0.23023814287004996 L2.8577569617300096 0.22336522386997615 L2.857874137730013 0.22134979687002954 L2.8725502447299984 0.21700897687004783 L2.880611767729979 0.2173707118700321 L2.896734814729987 0.22021291587002167 L2.904796338729957 0.22041962087006084 L2.9115142747299867 0.21855926987005603 L2.9254669107299858 0.21251312687003576 L2.9320814947299905 0.21168630487001394 L2.9396262537300313 0.21411509687006003 L2.944070426729942 0.21866262286998506 L2.950891715729986 0.2317367598700315 L2.9565761237299366 0.2397982838700301 L2.9635007657299095 0.24641286687004538 L2.9716656417300182 0.24910004187005086 L2.9810707517299786 0.24548269186998084 L2.9841713387299276 0.24067678286998273 L2.9862383957299894 0.23463064087003715 L2.989028922729963 0.22879120287005605 L2.99429991872997 0.2249154718700055 L3.0011212077299287 0.2243987068700477 L3.0070123217299365 0.22698252787004947 L3.011973258729986 0.23153005387008818 L3.0492836427300087 0.2856352788700889 L3.061272575729978 0.29586721287007833 L3.0730548027299758 0.29953623886997605 L3.1009600757299633 0.30144826786998635 L3.1078847177299362 0.30330861886999116 L3.111915478729932 0.3060474698700233 L3.1147060057299907 0.31023326087007774 L3.1175998867299963 0.3163310798700394 L3.1181166507299363 0.31844981287001417 L3.1181166507299363 0.3237724858700375 L3.1187367687299936 0.3267180428699561 L3.120907177729995 0.32956024687003094 L3.125971468729963 0.3344695068700645 L3.1275217617299713 0.33793182886999773 L3.12452452772998 0.34780202686998507 L3.102820426729968 0.3595325778699845 L3.0955857257300092 0.3692994228700144 L3.106334423730024 0.3980315188700416 L3.140750928729963 0.4242314698700369 L3.1650837327299453 0.43553762187001155 L3.1816786627299987 0.44324839687000406 L3.2125811687299883 0.4505864508700057 L3.297870170782234 0.44901976200983995 L3.32792296573003 0.4484677168700415 L3.338775016729974 0.4461422778700097 L3.3707110517299466 0.43906260586997803 L3.3913816247299646 0.43694387287000325 L3.407504671729944 0.4328097578700607 L3.4972149577299287 0.38635264487005827 L3.509824007729966 0.3842339118700835 L3.5161285327299563 0.3902283778700024 L3.5198492357299838 0.3985999598700829 L3.5248101727299197 0.40340586886999574 L3.534835400729966 0.40340586886999574 L3.5525087407299534 0.3980315188700416 L3.562430615729957 0.39663625487004595 L3.606768994729995 0.40340586886999574 L3.6159673997300015 0.40237233987001275 L3.624235628729954 0.3994267828700089 L3.633123974729946 0.3994267828700089 L3.65317443073001 0.41306936087001134 L3.663096305729985 0.41554982986998823 L3.673224885729942 0.4147746828700605 L3.675912061729994 0.4136894788699834 L3.6761187667299478 0.41275930287004314 L3.67993656072999 0.4158997458699929 L3.6857305837299545 0.42066579686998296 L3.6916216967299444 0.42464488187006566 L3.695755810729983 0.43032928886999855 L3.6986496907299706 0.4386491948699671 L3.699579866729996 0.44877777587002754 L3.696065869729969 0.45151662687005967 L3.6907948737300185 0.4524984788700266 L3.6866607597300085 0.45714935786999433 L3.651314078729987 0.5778138268700701 L3.6409787927300012 0.596313989870012 L3.631366976729984 0.6066492768700158 L3.611213167729991 0.6187415618700101 L3.600567822730019 0.6269064378700051 L3.59302306372995 0.6361565198700276 L3.5786570157299504 0.666128849870077 L3.531631461729992 0.7233863368700355 L3.5270839357299533 0.7266419518700076 L3.516231884729981 0.7311894778700463 L3.51127094772996 0.7357370048699892 L3.509203889729994 0.7424549398700009 L3.510237418729977 0.7584746348699838 L3.5082737147299294 0.7655543058700829 L3.5025893077299965 0.7735124768700388 L3.496078076730006 0.7803337648700079 L3.4882232587299793 0.78508799686999 L3.4528765797299936 0.7934595788700705 L3.4502927567299846 0.8092208908700371 L3.4663124517300243 0.8535592698699901 L3.4643487467299874 0.8809477788700377 L3.4525665207300076 0.8956238858700232 L3.438717236729948 0.9081812588700444 L3.430138949729999 0.9290585378700058 L3.4318959477299895 0.9481271408699996 L3.4396474127299737 0.9680742438700207 L3.461868278729943 1.0024390708699542 L3.4799550297299415 1.0182003828700346 L3.5001088387300197 1.0248149658700214 L3.543000276729961 1.0315329028699551 L3.563670850729997 1.039077661869996 L3.5724558437299745 1.0410413658700435 L3.58661518673002 1.0416098068699995 L3.6188612797299893 1.0359770758700648 L3.630333447730001 1.037579045870089 L3.6472833177299915 1.0478109788700607 L3.6645432457299787 1.0659494068700184 L3.676945589729959 1.0874468018700583 L3.6790126467299356 1.1077556408699678 L3.685317171729954 1.1205713948700549 L3.704127392730035 1.1346790618699885 L3.74784565472992 1.1579851318700065 L3.7584909997300056 1.1656849208700208 L3.765518994729936 1.1685788018700833 L3.771410107729926 1.1673385668700433 L3.782675569729994 1.1590703378700056 L3.788670035729913 1.1589669848700765 L3.797144970730008 1.1668734788700164 L3.799315381729931 1.184753524870004 L3.8056199057300173 1.191109724870003 L3.8211228357299287 1.2015483648700496 L3.839143743730025 1.2205834358700116 L3.8449973477299206 1.2267664638699927 L3.877553499729961 1.2405123948700378 L3.893883251730008 1.2548784428700372 L3.903185009730029 1.260252791870002 L3.906802360730003 1.257462263870039 L3.9129001797299647 1.2514677978700064 L3.921891878729914 1.2491940358699907 L3.934397575729909 1.2572555588699998 L3.9418389817299353 1.276065780870013 L3.933364046729926 1.2924988848700565 L3.916310823730006 1.306193139870075 L3.8751763837299418 1.3283623298700178 L3.8515085777299785 1.3345635008700043 L3.827013948729947 1.336113794870002 L3.7700665207299746 1.3319796798700878 L3.7169431487299303 1.3347185308700347 L3.702060335729973 1.3379224698700085 L3.6875909347299594 1.3384909108700498 L3.674671826729954 1.3326514738699728 L3.648833610729943 1.3151848398700139 L3.623512158729957 1.3022657318700084 L3.6102829917299655 1.2987517338700485 L3.5957102377299943 1.2993718518700206 L3.5750396657299657 1.3042811118700541 L3.566461377729942 1.3097588138699479 L3.560983675729963 1.3192672778700256 L3.5610870277299878 1.3263986258700555 L3.56584125972997 1.3389559978700873 L3.563670850729997 1.3460356698700053 L3.5523020347299816 1.354097193870004 L3.563980908729965 1.3594198648700484 L3.5983974127299145 1.3785143078700202 L3.628886507730007 1.4070396978700757 L3.6824232917299664 1.4695681808700698 L3.784639274730031 1.549640812870038 L3.8046897297299633 1.5825586998699777 L3.828667594729998 1.6381367028699714 L3.830321240729935 1.664595036869983 L3.8046897297299633 1.6828626548700214 L3.8004522627300243 1.6947999118700778 L3.7985919107300017 1.7092176358699902 L3.7998321457299564 1.7230927578700488 L3.8046897297299633 1.7336605888700234 L3.811924430730036 1.7385956868699708 L3.814714958729999 1.7431690518700265 L3.81254454772999 1.7473290048700534 L3.8046897297299633 1.7509463548700381 L3.7668625817300008 1.7399134358700366 L3.7547702967300065 1.740636906870023 L3.7422646007300013 1.7625218748700746 L3.7336863127299775 1.7710226488699874 L3.725831494730036 1.762134302869967 L3.717563265729998 1.7453136238699898 L3.7034039227299527 1.7261933438700083 L3.6863506997300046 1.7101994878700424 L3.6695041827300283 1.7029389498699885 L3.6587554847299284 1.7052643888700203 L3.6356044437300366 1.7186227468700537 L3.623822216729925 1.7234803308700606 L3.6121433437299597 1.7238420668699774 L3.58661518673002 1.7208189948700436 L3.575659781729959 1.7231444348700649 L3.561810498729974 1.739655054870056 L3.5524053877300243 1.762030949870038 L3.540416455729959 1.7789808198700285 L3.518298942729947 1.7789808198700285 L3.470653271730006 1.7736323088700061 L3.4457452317299353 1.7758285568700813 L3.418976839729984 1.7988762458699483 L3.399339794729931 1.804534814870081 L3.3779457517300298 1.805077417870038 L3.3610992357299576 1.8007624348699807 L3.3479734217299804 1.7887476648700869 L3.3372247237299657 1.7739940438699904 L3.3231687337299345 1.7638913008700428 L3.3004311037299683 1.7655449468700084 L3.285651644729958 1.7734772798700504 L3.2618804857299804 1.7928301028700133 L3.243483675729996 1.7995738778700314 L3.2339752117300034 1.804508976870082 L3.2280840987300135 1.8127255288700184 L3.228600863729943 1.8211487878700012 L3.23821267972996 1.8263939458700378 L3.253612255729953 1.8294945318700542 L3.2608469567299974 1.8328276618700698 L3.2741794757299285 1.8479688568700823 L3.2736627117299886 1.8544800868700548 L3.269321891730007 1.8626966388699913 L3.2692185387299926 1.8678384448700882 L3.2912326997299512 1.863678491869976 L3.2982606937299774 1.8675025478699894 L3.332883903729984 1.900782169870027 L3.362546175730037 1.9610627288700044 L3.3926218597300046 2.002946476870008 L3.3854905117299747 2.007390649870004 L3.359238883729935 2.008450016869986 L3.3476633627299943 2.0130492188700515 L3.345489409729984 2.0152306168700562 L3.3401186037299535 2.0206198168699956 L3.333814079730038 2.0294564868699894 L3.3258559087299684 2.03782806887007 L3.315417269730025 2.0446751958700276 L3.3124599537300323 2.039760832870016 L3.31190327172998 2.038835758870036 L3.291542757729948 2.0195604498700135 L3.282447705729984 2.008320825870058 L3.2800705897299363 1.9999492438699775 L3.2808974127299475 1.9927920578700338 L3.2802772947299754 1.985919091870059 L3.2732493007299777 1.9787102298700034 L3.2463775557299837 1.9649384608699876 L3.222089632729981 1.959874170870009 L3.162558382729989 1.9639566088699922 L3.1441615727300043 1.9703903248700527 L3.1475722167300173 1.9743694098700217 L3.153256624729968 1.9836194918700443 L3.156460563729942 1.9876244148700408 L3.130105582729973 1.9937480718700868 L3.0024647957300115 2.062296859870017 L2.987271923729983 2.0786007738700363 L3.0113531417300035 2.087308251870027 L2.9682549977300052 2.1315949558700567 L2.952028597729983 2.1568905688700255 L2.9440820777300214 2.187198789869953 L2.943553662730002 2.18921417687001 L2.944070426729942 2.215336613870008 L2.961950471729997 2.2915335128700036 L2.9213327967299474 2.2873218838700637 L2.861904899729998 2.2878903248700198 L2.805990999730019 2.2971404058700244 L2.7757086107299838 2.3183794198699985 L2.7564849777299596 2.3575759928700535 L2.7570017427300026 2.3748875978700568 L2.766923616729903 2.394912215870008 L2.790591422730037 2.4300780278699534 L2.7962758307299875 2.449224146870037 L2.788937776729986 2.458965153870011 L2.7764320807299807 2.4661223388700506 L2.76661355873002 2.4773102868699794 L2.767543733729971 2.4946994058700085 L2.7768454917299916 2.5186255948700165 L2.79038471672998 2.5425776208700057 L2.8251112797300006 2.5843321788700706 L2.8454717937299474 2.5998867848699803 L2.862628369729995 2.6163198898700415 L2.8729636567299988 2.643708398870004 L2.8725502447299984 2.672853906870003 L2.8657865797300044 2.6853478978700167 L2.8613881347299834 2.693472802870005 L2.840200798730015 2.708794864870086 L2.8297521297299593 2.713286733870021 L2.809608349730004 2.7219465178700517 L2.8166363447300196 2.7319459078700703 L2.8188067547300104 2.740911767870003 L2.815086051729983 2.7470095868699644 L2.8047507657299686 2.7480947928700488 L2.793485303730014 2.7427204428700094 L2.7819097817299703 2.7420486498700285 L2.770644320730005 2.7455626468699705 L2.7603090337300014 2.752564803869987 L2.743979281729983 2.7481464688700754 L2.708219189730036 2.7452525888700876 L2.6934397307300255 2.738147078870057 L2.692736793729969 2.7373841138700783 L2.672562451729979 2.7154869628700027 L2.6616070477299925 2.709259952869999 L2.634528597729931 2.710551863869952 L2.580061637730031 2.696883447870036 L2.547092073729962 2.6837059568699573 L2.3723223807299885 2.597018741870002 L2.318268831729986 2.571335554870032 L2.2948077317299376 2.5568144778699917 L2.251812940730039 2.520976872870037 L2.227421663730004 2.50723094187002 L2.1923850427299865 2.4999704028699483 L2.181429638729915 2.4948027598700406 L2.15011372073001 2.458655094870025 L2.148046664729966 2.4472346028700116 L2.149183544729956 2.4231275478699814 L2.1462896647299683 2.413412378870035 L2.1347141437299424 2.4019143718700064 L2.125619092729968 2.4021469158700626 L2.1176609217299838 2.4071853688700315 L2.109702751729932 2.410389306870016 L2.088412060729942 2.4076504558700407 L2.046554150729966 2.3955323328700473 L2.0245399907299966 2.392276716870086 L2.0024224777299846 2.3961007738700317 L1.9888832527299964 2.4066169278700755 L1.976285181729983 2.4208403508700087 Z" fill="black" stroke="black" stroke-width="0.5" vector-effect="non-scaling-stroke"/></svg>