<svg xmlns="http://www.w3.org/2000/svg" viewBox="0 0 9.559162255019942 9.29218630344004"><path d="M5.375152010009998 0.10339885672003746 L5.334741040009931 0.18907838172002656 L5.334741040009931 0.21729371372000017 L5.34145897600996 0.24116822471998844 L5.370397778009902 0.3104146447200016 L5.411738924010024 0.37790406572003477 L5.4388173750099895 0.40591269171995137 L5.472820467010024 0.4251363237199719 L5.502896150010002 0.44828736571996686 L5.524186841009993 0.4852876917200071 L5.55622622800999 0.5624922817199867 L5.5885756750099915 0.6127217727199401 L5.596533846009947 0.6326688757199612 L5.605887280009995 0.6748368447199233 L5.6109515700099735 0.6881693647199434 L5.623870679009968 0.7084265257199469 L5.689809807009993 0.7749857707200256 L5.723812899009943 0.7969999307200091 L5.73745547701003 0.8104358027199545 L5.784894442009943 0.8753414017199965 L5.813626538009942 0.8995259727199603 L5.852280509010029 0.9180261357199875 L5.877291902010029 0.93962688471996 L5.888764071009945 0.9748702107200309 L5.894861890009992 1.0480440387200112 L5.930621980010017 1.1232849247199574 L6.056092358010005 1.2305651977200007 L6.082819871009974 1.309217535720041 L6.083170809009971 1.3102502567199572 L6.07976016400994 1.3309208297199753 L6.063430412010007 1.368024507719955 L6.060226473009948 1.3884883747199304 L6.063947176009947 1.412569592719965 L6.071905347009931 1.4313798137199747 L6.096503328009987 1.47106731371996 L6.126785718010012 1.5091011677199937 L6.14973005400995 1.5530261347200174 L6.245641512010025 1.8103747687199565 L6.270859611009968 1.846444918719957 L6.309823641009956 1.869492606720005 L6.354472078009991 1.8807580687199739 L6.40800886200995 1.8817915977199569 L6.418860913009979 1.886545829719953 L6.428576082010011 1.8934704717200255 L6.436430900009952 1.9013252887199634 L6.446352775009956 1.914244396719969 L6.448833244010018 1.9223059207199675 L6.441701896009988 1.9431831997199431 L6.434467195010029 1.955585542720005 L6.427852612009929 1.9588928347199932 L6.427542553010028 1.9606498327199837 L6.439738192009969 1.9684012987199857 L6.4476963620099355 1.9717085897199844 L6.478082104009985 1.9768762327199916 L6.5006130290099975 1.9883484007200032 L6.5282082440099884 2.028862723720014 L6.547225171009956 2.0458125937200187 L6.5656219810099685 2.0526338827199773 L6.605102775009982 2.061212170720001 L6.624223055009992 2.068550223719999 L6.664634025009974 2.093354910720027 L6.6816872470099895 2.110098074719989 L6.690162182009999 2.128804943719974 L6.697293530010029 2.1514392217199294 L6.710936108009946 2.1648750937199743 L6.729436271009973 2.1727299107199975 L6.774808178010005 2.1850289017200346 L6.7891742260100045 2.192677014719923 L6.792541258009976 2.1961075747200063 L6.8001296300099625 2.2038391237199626 L6.813978914010022 2.2218225217199468 L6.8292751390099795 2.2367053347199892 L6.846328361010023 2.245180268719981 L6.866172111010002 2.248900972719998 L6.889839917009965 2.2491076787199553 L6.927253654010002 2.2557222617200416 L7.040425041009968 2.310189220719952 L7.076443514009952 2.3164937457199706 L7.1096714600099915 2.3160803347199597 L7.142020906009975 2.319387626719948 L7.175507235009974 2.3368542597199884 L7.184602286010033 2.3466727817199633 L7.201862215009925 2.369823824719962 L7.212714266009982 2.3781954067199287 L7.225013257010005 2.38253622672001 L7.235141837009962 2.3831563437199783 L7.245063712009966 2.382226167720024 L7.257259351009992 2.3826395787200347 L7.278291659009994 2.3858435177200086 L7.29911726000995 2.3916312787199736 L7.317152336009968 2.402276623719974 L7.3302781500100025 2.419743257720018 L7.381386141010012 2.5434566367199416 L7.399369539009996 2.6607621377200026 L7.383763256009956 2.8050427377200045 L7.421383700009983 2.786645926720002 L7.456110262009929 2.782305106719935 L7.569281648009962 2.7826151657200064 L7.649483472009962 2.792330334719953 L7.7062241940099625 2.7826151657200064 L7.741157463009955 2.7979113897199746 L7.781361727009994 2.7984281537199998 L7.799138420009996 2.805352795719987 L7.813504468010024 2.8183752567199356 L7.820945874010022 2.8359452427200047 L7.818000317009933 2.875426037720022 L7.805753002009993 2.9107727167200217 L7.797846508009968 2.946636161719983 L7.822702872009927 3.0260111617199534 L7.824976635009932 3.066008719719921 L7.809783765009996 3.147037365719928 L7.804409415009957 3.158302828719986 L7.797174715009987 3.166881115719921 L7.791386955010012 3.175976167719984 L7.790146720009972 3.18920533471999 L7.790456779009958 3.200574149719973 L7.787976310009981 3.2230017207199673 L7.788027986009894 3.2328202427200274 L7.795727775009993 3.288940848719978 L7.794332511009998 3.310024832720007 L7.782188550010005 3.363044852719927 L7.7819818440100335 3.3805114867199713 L7.790146720009972 3.399425061719999 L7.824563224009921 3.4437634397200476 L7.83975609600995 3.458956310719973 L7.909209220009927 3.5067053337200385 L7.938974845009994 3.5410184857199773 L7.964503003009952 3.5789489867199826 L8.00036644700998 3.6194633097199933 L8.009771558009959 3.6336226527199393 L8.012045321009964 3.6416841757199343 L8.011528556009921 3.657187104720027 L8.013182202009972 3.664731864719986 L8.019590080010005 3.6740336217200174 L8.035919832009938 3.6904667277199827 L8.065582104009906 3.747620861720012 L8.068372632009954 3.757956148720016 L8.065013664009967 3.765810965720039 L8.057313875009953 3.7777998977199196 L8.055246818010005 3.7873083617199974 L8.058709139009949 3.7891687137199916 L8.065788810009963 3.7913391237199825 L8.069819571009958 3.797126883719958 L8.064651928009965 3.810045991719978 L8.068579337010021 3.819761161720013 L8.073436922009932 3.8207946897199925 L8.07906965400997 3.819761161720013 L8.085942619009955 3.8236885697199803 L8.091110262010034 3.831853446719993 L8.100101962009973 3.85221396071994 L8.105786368009944 3.8612056597199746 L8.117930330009926 3.873504651719916 L8.131934644009931 3.8821862917199788 L8.148264396009978 3.887147228720014 L8.206142000010004 3.8905578737199455 L8.28107282700995 3.9045105097199446 L8.400238680009949 3.906164156719985 L8.437290682010001 3.912778739719986 L8.477133211010027 3.925594494719963 L8.558471916009921 3.9650752897199943 L8.579969312009979 3.9696228147200294 L8.59676415200994 3.9667289347200416 L8.612680493009947 3.9608378217199522 L8.647872144010023 3.952362886720028 L8.658310782009949 3.9476086547199465 L8.669369540009967 3.94585165671997 L8.70130557400995 3.9537064737200076 L8.731071200009922 3.9563936477199384 L8.745075513010022 3.9606311157199805 L8.783781161009955 3.9892598597199687 L8.829566479009998 4.002799084720042 L8.976224194009944 4.066671154720002 L9.006403231009926 4.074215913719957 L9.067278068009983 4.077626558719974 L9.096216870009954 4.084137788719946 L9.11409691500998 4.095299898719976 L9.15409447500997 4.107185477719998 L9.17063093200997 4.119277763719996 L9.17300804800999 4.1385013957200165 L9.160812410009981 4.161859143719969 L9.144275952009991 4.185940360719915 L9.133320548010005 4.207437756719944 L9.129186434009995 4.249709078719935 L9.13693789800999 4.29208375271995 L9.155903150009948 4.330220958720009 L9.186133862009967 4.360296642719977 L9.223340893009976 4.378486746719933 L9.260237866009987 4.384584566719983 L9.354702384009954 4.381897391719949 L9.35976667500995 4.384997977719994 L9.36948184401001 4.396366792719977 L9.374959546009961 4.405358492720016 L9.382711010009984 4.42509888871999 L9.389015535010003 4.434400646719926 L9.465444978009941 4.49599895472004 L9.446893139009944 4.502096773720002 L9.418264396009931 4.499512951719996 L9.363590730010003 4.488557548719928 L9.337442456009967 4.491451427720012 L9.318167147009945 4.503750418719964 L9.301992423009949 4.516979585719955 L9.284215731010022 4.52328411071996 L9.163189526009944 4.529588635719978 L9.15409447500997 4.533205985719963 L9.13321719500999 4.559664318719957 L9.133423901009962 4.56431519772001 L9.118127677009994 4.57268678071998 L9.099110750010027 4.591290295719947 L9.075597974009952 4.619505626720002 L9.083297762010034 4.68968222271997 L9.078750236009995 4.701464448719978 L9.068828361009992 4.710042736720002 L9.045780672009926 4.750143648720002 L9.027900627009984 4.762959403719979 L8.984750806009941 4.758205171719997 L8.96196149900996 4.75923870071998 L8.952142977009999 4.772467866719968 L8.946561923009966 4.791588146719963 L8.932195874009977 4.802233491719964 L8.912145418010027 4.807504487719985 L8.890131258009944 4.810708426719959 L8.84672305500996 4.823214123720053 L8.774376050009977 4.861247977719987 L8.739236076009945 4.872100028719945 L8.71257103600999 4.871996675720002 L8.692933992009955 4.869309501719986 L8.675208976009941 4.872306734719988 L8.653866610009942 4.889566662719989 L8.637846915009987 4.894114188720014 L8.574749992009941 4.878921316719985 L8.492222730009928 4.884295666720039 L8.45393049300992 4.893907482719971 L8.41718855000994 4.913131115719981 L8.402202384009968 4.9251200487199505 L8.365925529009928 4.9649109007199606 L8.356055330009923 4.970181896719982 L8.331715731009922 4.972455659720001 L8.320863680009978 4.975246186719961 L8.311561922009957 4.980930594720011 L8.280039299009985 5.017930920719966 L8.275078361009946 5.027439384719944 L8.273114656009994 5.04035849171996 L8.275078361009946 5.052554129719969 L8.278075594010033 5.060305594719981 L8.277868888009976 5.068263765719937 L8.270324129010021 5.081286225719982 L8.261229077009972 5.089037691719984 L8.250997144009972 5.0926550417199685 L8.240971915009965 5.094825451719959 L8.232807040009959 5.098752860720015 L8.228569572010002 5.1046439737200195 L8.223091870009995 5.119940197719973 L8.21906110801001 5.126038016720035 L8.204178296009957 5.1319291297200245 L8.181130607010004 5.138130301720015 L8.162527091009963 5.146191825719914 L8.160770093009972 5.1570438757199675 L8.169348380009922 5.178437919719972 L8.165110913009954 5.200658784720009 L8.152811922010017 5.220709240719959 L8.137205639009977 5.235902112719987 L8.123666414009989 5.244066987720007 L8.10475284000995 5.253058687719946 L8.083772209009965 5.260293387720015 L8.06454857600994 5.263187267720003 L8.052869702009957 5.273109142719992 L8.053283114009957 5.295950125720001 L8.061447989009991 5.338324800720006 L8.045428296010016 5.366333427719926 L8.010908439009967 5.38876099872002 L7.969153882010005 5.404884045719914 L7.9311200270099675 5.413979097719977 L7.937631258009958 5.432272554720033 L7.921818270009936 5.4376469037199975 L7.900320874009992 5.436303316719947 L7.8895721760099775 5.434442964719938 L7.887091707010001 5.442297782719965 L7.889985587009988 5.450049246719974 L7.894429761010002 5.456973889719951 L7.896393465010021 5.461831473719972 L7.898408846009971 5.46472535371996 L7.902749666009953 5.469066174719945 L7.904661694009974 5.473096935720026 L7.899959139009923 5.474853934720006 L7.89866722800997 5.476197522719975 L7.8911224690099 5.481778576719993 L7.8895721760099775 5.482295340720032 L7.874792717009967 5.520742606719981 L7.869004956010002 5.530044363719998 L7.85453555500996 5.5368656537199605 L7.841099683009929 5.530974539719967 L7.813814526009992 5.502759208719997 L7.774127026009921 5.532731539720036 L7.762499829009954 5.5368656537199605 L7.748805574010021 5.532731539720036 L7.73454287900995 5.526323660719999 L7.723380770009925 5.526013602720003 L7.714595776009958 5.55391887571999 L7.695785555009934 5.573142508720014 L7.691444735009952 5.588438732719968 L7.690617912009941 5.594123140719919 L7.688447501009932 5.599807547719966 L7.684985181010006 5.604148368719951 L7.681264478009979 5.605802013719984 L7.678680656009988 5.608489188719933 L7.6802826250100225 5.615103771720019 L7.683124829009984 5.623061942719975 L7.684726798009933 5.629676525719976 L7.679042391009972 5.652104097719974 L7.664262931009972 5.670087496719962 L7.644212475010022 5.682386486719995 L7.622611727009939 5.688380953719932 L7.58106387500996 5.689724540719997 L7.56804141400994 5.694582124719918 L7.558532950010033 5.704400646719979 L7.550368075009914 5.715872815719994 L7.5405495520099635 5.7219706347199555 L7.52649356300995 5.715045991719979 L7.533831616009934 5.700576590719951 L7.525873445009978 5.698612886720003 L7.511197339009982 5.703367118719914 L7.499105054009988 5.708844820719992 L7.49621117401 5.714632580719968 L7.486702710009922 5.726311453720033 L7.476574129009975 5.731789156720016 L7.465360344009923 5.700783296719994 L7.450942619009993 5.71173870071998 L7.427378166009902 5.746361909719983 L7.410945060010022 5.761038016719969 L7.3934784260099775 5.772923596719995 L7.355082837009974 5.79070028971994 L7.317875805010033 5.801345633720022 L7.306868726009952 5.813127860720019 L7.321028068009923 5.832351493719944 L7.311002840009991 5.836382255719943 L7.302011141009956 5.836588960719997 L7.294052970009972 5.8328682577199835 L7.286818270010002 5.824910086720013 L7.28433780100994 5.83090455371995 L7.2768963950099135 5.839172782720002 L7.272555574010028 5.845994071719961 L7.264494051009962 5.836795666719954 L7.253021883009922 5.832661551720026 L7.24278995000995 5.834315197719977 L7.238449129009979 5.842273367719944 L7.24278995000995 5.854572359719985 L7.251058178009998 5.861186942719986 L7.256535880009977 5.86759481971993 L7.252091707009981 5.879480399719956 L7.23979271600993 5.87245240472004 L7.228733960009947 5.873589285719948 L7.21912214400993 5.881030692719978 L7.2111639730099455 5.893122977719958 L7.217881909009975 5.893122977719958 L7.19948510000998 5.905318615719967 L7.19369733900993 5.911313082720003 L7.19059675300997 5.920511486719992 L7.1837754640100115 5.916584077719936 L7.176902498009952 5.913690197719948 L7.1785044670099865 5.933533947720026 L7.184808992010005 5.951000582719988 L7.185429110009977 5.965366629719984 L7.170132885009906 5.975701916719988 L7.1529763100099615 5.9749784457200015 L7.145224846010024 5.964023042720019 L7.13964379101003 5.95182740472001 L7.129205151009984 5.9477966437200145 L7.119541659009968 5.955134696719998 L7.101919995009979 5.996269136719977 L7.082541333009999 6.027998465720007 L7.077425366010004 6.0467053347199915 L7.079913654009914 6.056432279719932 L7.081972892009958 6.0644820277200076 L7.053499178009929 6.112179374719975 L7.060372143009971 6.132539888720007 L7.056548087009958 6.159514986719945 L6.9862681400099405 6.4251318477199995 L6.984304435010017 6.469676932719924 L6.965080802009993 6.557423514719961 L6.954538811010025 6.574890148719991 L6.938622469009999 6.588119315719997 L6.917641838010013 6.598971365720036 L6.829378491009919 6.6252229937199765 L6.808294507010004 6.635868338719963 L6.799457836009992 6.650751151720005 L6.738841382009923 6.7087321087199605 L6.673729077010023 6.747489432719991 L6.646547274009947 6.767953300719956 L6.621432527010029 6.798132336719963 L6.5921836670099765 6.869239107719981 L6.584845614009993 6.880711275719992 L6.519733309009979 6.942102876719975 L6.519372381009958 6.942050377719983 L6.496995679010013 6.938795584719973 L6.478908927009996 6.937348644719979 L6.459892000010029 6.933317883719983 L6.4410817790100054 6.931664237720032 L6.3941595790099655 6.93776205571999 L6.28128190600998 6.970138504720001 L6.128956128010003 7.013829765719965 L6.096503328009987 7.035637219719991 L6.081413810009991 7.04287192071995 L6.030047437009955 7.041114920719981 L5.9970778720099815 7.051450207719984 L5.989429761010001 7.052690442719925 L5.983745353009965 7.0574446737199175 L5.982298413009971 7.081939302719963 L5.992633700009975 7.155009778719933 L5.992116935010017 7.195317394719968 L5.981574943009974 7.227460136720001 L5.952429435009947 7.288438325719969 L5.950569084009942 7.325645357719981 L5.920286694010002 7.3741178507199585 L5.898272534009948 7.440677094719948 L5.810836011009968 7.619270845719971 L5.7788999760099955 7.749288748719994 L5.7682089910099705 7.772610859720007 L5.7242263100099535 7.868557954719993 L5.702625561009967 7.928812674719968 L5.573796216009981 8.020486665719975 L5.501862622009924 8.052836112719962 L5.293193188009923 8.07257650971994 L5.2513352790099646 8.065858573719996 L5.205653312009957 8.052939464719987 L5.167102694009969 8.047151704720012 L5.128655428009921 8.052319348719937 L5.083283520009985 8.072163097720011 L5.023752271009926 8.113400890719934 L5.003908520009929 8.120945650719978 L4.944273918010026 8.135311698719978 L4.913991528010001 8.138515636719948 L4.886086255010014 8.131901053719947 L4.853323396010012 8.125183117720017 L4.780356274009989 8.132624523720043 L4.745009595009975 8.125389822719985 L4.692092928009998 8.092626965719976 L4.616222406009996 8.06714074371995 L4.572100252009903 8.052319348719937 L4.552153150009985 8.054593111719942 L4.53210269400995 8.062344575719951 L4.5046108310099555 8.068752453719984 L4.454277987009988 8.061104341720014 L4.412110018010026 8.03278565771993 L4.343070304009984 7.958268241719967 L4.29883527900995 7.935220552720001 L4.246332023009984 7.935530611719987 L4.142462394009982 7.961058768719941 L4.121068351009967 7.963952648719928 L4.119621411009973 7.959198417719936 L4.124995760009938 7.950620128719994 L4.124065585009959 7.942455253719974 L4.113626945010026 7.934600435719947 L4.103395012009969 7.928812674719968 L4.09181949101 7.926848970719934 L4.04014305800996 7.938527843719999 L4.021126131009993 7.927779145719985 L4.0060366130099965 7.908142101720049 L3.9607680580099895 7.878376476719968 L3.9228375570099843 7.832901216720007 L3.9139492100099744 7.827836926719943 L3.893692049009985 7.821842460719996 L3.8843902910099644 7.816674816719999 L3.87767235501002 7.807786470719979 L3.8674404220099348 7.786909192720007 L3.858035311009985 7.779261079719934 L3.8021214110098924 7.763654796719994 L3.789615714009898 7.751872571719989 L3.7820709550099423 7.741950695719996 L3.6764443270099605 7.666606457720025 L3.651226229009893 7.652550467720008 L3.621977368009965 7.640251476719971 L3.6119521400100325 7.633533540719942 L3.59882632600997 7.620821138719979 L3.583530102010002 7.599530448719992 L3.5746417560099815 7.591468925720012 L3.560275708009982 7.587438162720009 L3.547356599009987 7.589608573719918 L3.514593742009964 7.60066732972 L3.496817049009934 7.601907563719951 L3.4813141200099267 7.598600272719953 L3.435735506009962 7.582683931719931 L3.381061840009977 7.573278820719967 L3.3314524650099315 7.576482759719941 L3.283910148009994 7.589298514720017 L3.2087726160099805 7.621751314719948 L3.199264152009988 7.628986015720006 L3.1870685140099795 7.635290539720007 L3.1808673420100035 7.630122896720014 L3.176526522010022 7.619994315719968 L3.169911938009932 7.6118294387199406 L3.1460374270099294 7.608728853719999 L3.1223696210099945 7.620097668719982 L3.083405591009921 7.656167817719993 L3.0779278890100272 7.665056164719918 L3.0756541260099937 7.673634452719941 L3.0715200110099943 7.681385916720036 L3.060151196009997 7.688000500719941 L3.0463019120099375 7.693581554719959 L3.035863273009994 7.699782726719949 L3.0272849850099703 7.708361014719973 L3.0190167560099326 7.72066000572001 L3.0029970620099675 7.75952068271997 L2.9921450110099386 7.771302909719967 L2.966720207009928 7.780604666719999 L2.960002270009994 7.790423189719963 L2.9400551680099625 7.852331555719989 L2.932200350010021 7.867731132719971 L2.929409823009962 7.875896007719991 L2.9287897050099048 7.884370942719986 L2.9345774660099835 7.894189465719965 L2.944085929009958 7.904834809719961 L2.948736808009926 7.915376802719923 L2.939745108009987 7.925091971719954 L2.926205883009999 7.934600435719947 L2.9249656490099767 7.942558606720002 L2.9287897050099048 7.951240246719966 L2.930339999010016 7.9620922977199236 L2.9281695880099505 7.97635499271998 L2.925585767010034 7.986690278719994 L2.9197980060099553 7.996508800719969 L2.875149569010034 8.04415447172001 L2.86181704901 8.06461833871997 L2.8558225830099673 8.086322440719972 L2.8565460530099642 8.100171723719928 L2.860370109010006 8.10337566371999 L2.8662612230099285 8.105339367720024 L2.8732892170099262 8.115261242719928 L2.879490389010016 8.129627290719942 L2.880833976009967 8.135828462720017 L2.8700852780099524 8.152674979719993 L2.854892407010027 8.16776449771999 L2.8348419510099916 8.183577486719987 L2.8241966070099807 8.200320649719945 L2.8370123610099824 8.218304048720018 L2.842180005009965 8.230913098719956 L2.8425934160099757 8.253237316719922 L2.8395961830099736 8.276801769719928 L2.834738598009949 8.293544934719964 L2.8258502520099285 8.306153983719998 L2.8160317300099678 8.312561861720031 L2.787609692009937 8.322173677719949 L2.776964347009965 8.330235200720029 L2.7774811120098946 8.339123547719954 L2.781201815009922 8.349148775719971 L2.780374991009978 8.360724295720022 L2.7386204350100343 8.418601899720034 L2.7362343920099477 8.420824794720023 L2.7265281500099547 8.429867362720007 L2.7068911050100155 8.442476411719941 L2.6956256430099472 8.455808931719961 L2.679192537009982 8.490432140719964 L2.6604856690100007 8.51668376871999 L2.643329094010028 8.522988293719923 L2.5979571860099213 8.514099947719988 L2.5662278570100057 8.519370943720023 L2.5442136960099333 8.535804048719985 L2.510417309009938 8.581175955720017 L2.458224113010033 8.626651216719981 L2.434142895009927 8.638123384719993 L2.4185366130099624 8.642877615719986 L2.372647941010001 8.650215670719977 L2.3636562420099665 8.65621013672001 L2.3531142500099804 8.676053885719998 L2.3128066330099557 8.713364269720035 L2.293686353009946 8.749227714719982 L2.2615436110099267 8.82849936071992 L2.223509758009982 8.88120932171994 L2.173073560009982 8.926891288719961 L2.1143691320099265 8.959550793720016 L2.051220532009978 8.973193371719933 L1.9541721920099917 8.973813488719916 L1.9226495690099341 8.97887777871998 L1.8959845300099971 8.987456066720004 L1.8840989500099568 8.997998058719975 L1.8828587160099346 9.013604341719915 L1.8918504150099693 9.058459484719993 L1.8928839430099345 9.07778647071996 L1.8887498290100098 9.096079927720016 L1.8776910730099132 9.113753267720018 L1.8591909090099819 9.129772961719983 L1.8025535400099955 9.164499523719915 L1.7799192630099583 9.172354341719956 L1.7587319250099824 9.17204428271997 L1.699304028010033 9.157678234719956 L1.6140379150099875 9.155714530720022 L1.5648419510100098 9.135664074719973 L1.5420009680100009 9.131943371719974 L1.4962156490099687 9.133286958719939 L1.4122931230099596 9.153750825719985 L1.3982371340099462 9.154267590719943 L1.3702285070099265 9.15106365171997 L1.3559658120099698 9.151270357720012 L1.2688393470099868 9.173801281720035 L1.2378334880099544 9.174628104719961 L1.105748527009979 9.147859712719995 L1.0655442620099507 9.125328788719973 L1.0230662350099067 9.109309093720018 L0.96725568900996 9.11582032471998 L0.9414174720100164 9.128119315720017 L0.8948053310099624 9.157368176719974 L0.8303131430099313 9.184343274719996 L0.8089190990099269 9.198295910719995 L0.8061285720099534 9.20108643772004 L0.8010642820099747 9.191061209720022 L0.7908323480099284 9.159331880719922 L0.7810138260099393 9.148376477720024 L0.7659243080100282 9.138971366719975 L0.7602399010098964 9.133803723719968 L0.7540387290100057 9.126258963720023 L0.7401894450099462 9.098663748719932 L0.7300608640099995 9.062490246719992 L0.7245831620099068 9.025489921719942 L0.7242731040100239 8.995414237719974 L0.7460805580099645 8.927614758719958 L0.747734204009987 8.904567069719992 L0.743083325009934 8.890097668719964 L0.7268569250099404 8.869220389719988 L0.720655753009936 8.857024751719965 L0.7176585210099233 8.83149659471994 L0.720655753009936 8.80255779271997 L0.7335748620099594 8.749021008720025 L0.7379156810099232 8.736825369720012 L0.7674746010099511 8.717084973719953 L0.7813238850100106 8.701065279719987 L0.8108828040099638 8.651249197719967 L0.8686570560099653 8.585516776720002 L0.8916013920099886 8.549860037720013 L0.9101015540099127 8.51120606672001 L0.953303052009943 8.456118990719947 L0.9568170490099988 8.440616060719936 L0.9192999590100044 8.380568045719915 L0.9158893150099914 8.361757824720005 L0.9181630780099965 8.289824231719965 L0.9094814370099584 8.203214530719936 L0.8825063390099217 8.143683280719959 L0.88229963300995 8.139962576719942 L0.8711375240099244 8.128283703719962 L0.8653497640099488 8.127766938719933 L0.8554278890099738 8.132417817719986 L0.8418886640099856 8.136655285719943 L0.8425087810099399 8.127456880720036 L0.8531541260099402 8.108233247720012 L0.8320701420099965 8.04188070871999 L0.8222516190099611 8.02410401571996 L0.8119163330099468 8.01635255172005 L0.7863881760100071 8.00477703072001 L0.7782232990099942 7.994545096719936 L0.7781199460099515 7.984209810720021 L0.786801587010018 7.962609061719949 L0.7861814700099501 7.951550304719948 L0.7784300050100228 7.94555583871993 L0.7667511310099542 7.943902193719968 L0.7564158450099683 7.940491548720036 L0.753315258009934 7.929639497719993 L0.7586896080099734 7.922508150719953 L0.7806004150099284 7.910312512719944 L0.786801587010018 7.900493990719969 L0.7787400630099341 7.874035656719986 L0.7338849200099276 7.8377588017200175 L0.7357452720099502 7.809853528719945 L0.7422565020099228 7.794040539719948 L0.771918775009965 7.777090669719943 L0.7588963130099273 7.7666520307199995 L0.7498012610099636 7.766962088719996 L0.7410162680099859 7.772026379719964 L0.7319212160099937 7.7754370237199915 L0.7219993400100009 7.771302909719967 L0.7212758710099081 7.761070975719992 L0.7267535720099829 7.748668631720012 L0.727373690009955 7.7402970497199455 L0.7122841710099692 7.742157401719954 L0.7089768790099811 7.722520356719929 L0.7033958250100341 7.713321952720012 L0.6741469650099248 7.701333020719961 L0.6576105060100019 7.691514498719986 L0.6512026290099584 7.680455740719982 L0.6445880450099821 7.649346529720024 L0.6404539310099437 7.641491711719997 L0.630015291010011 7.628572602719988 L0.625881177010001 7.621544608719976 L0.6257778230099689 7.613999849719935 L0.6302219970099827 7.608418794720013 L0.6339427000099818 7.602320976719955 L0.6317722900099909 7.5929158657200055 L0.6252610590100289 7.586818046719944 L0.607174308010002 7.578343111719949 L0.6008697840100012 7.572451997719941 L0.5989060790099643 7.565940766719979 L0.5970457280099595 7.539792492719972 L0.5778220950099353 7.532971203720013 L0.5592185790099791 7.522635916720009 L0.5498134680100293 7.509096691719936 L0.5585984620099964 7.492353527719974 L0.5601487550099478 7.4776774207199885 L0.5492967040099757 7.45607667272002 L0.5222182540099425 7.417112642720031 L0.49090233600992406 7.355410982719977 L0.4802569910099237 7.342491874719958 L0.35106591000993603 7.2453401807199675 L0.27468814200997826 7.202965506719952 L0.26445620900997824 7.200278332720021 L0.24378563700997802 7.199038097719981 L0.23427717300998552 7.196660982719937 L0.22321841700997425 7.189632987719936 L0.1964500240100051 7.161934419720001 L0.14467023900994036 7.124520682719936 L0.12586001801003022 7.09733887971996 L0.1082900310099717 7.085143241719937 L0.1017788000099813 7.0781152467199355 L0.09681786300993167 7.061785493719984 L0.09671451001000264 6.889702974719942 L0.09650780500996348 6.717723807720009 L0.09619774500995959 6.545847993720006 L0.09609439300993472 6.373765474719949 L0.0958876870099914 6.201786307719932 L0.09585401700994112 6.173781011719928 L0.09568098100993438 6.029858817720001 L0.09547427600998049 5.857879650719983 L0.09526757000992347 5.685797131720026 L0.09522673201001908 5.617843430719947 L0.09516421700999445 5.513817964719994 L0.0949575110100227 5.341838797719976 L0.09464745300994082 5.169962984719977 L0.09454410001001179 4.997880464720016 L0.09433739400995478 4.847398693720027 L0.09423404200992991 4.696916923720028 L0.09402733500996874 4.546538505719983 L0.09382062900994015 4.396056734719995 L0.09371727701000054 4.309963798719995 L0.32781151501001204 4.309963798719995 L0.561905754010013 4.309963798719995 L0.795999992009996 4.309963798719995 L1.0300942300099223 4.309963798719995 L1.087351717009966 4.309963798719995 L1.1001674720099572 4.273273530719937 L1.1000641200100176 4.232139090719958 L1.0998574140099606 4.1744681927199885 L1.0996507070099995 4.116900647719948 L1.0994440020099603 4.059333101720004 L1.0992372960099885 4.001662202719945 L1.0990305910100346 3.9439913047199617 L1.0988238850099776 3.8863204057199887 L1.0985138270099242 3.828649507719934 L1.0984104730099773 3.771081962719979 L1.0982037680100234 3.7134110637199207 L1.0979970620099664 3.655740164720033 L1.0977903560099946 3.598172619720007 L1.0975836510099555 3.540501721720023 L1.0974802980099412 3.4829341757199934 L1.0972735920099694 3.4253666297199494 L1.0969635330099834 3.36769573171998 L1.096860180009969 3.310024832720007 L1.0968576180100058 3.3092504937199756 L1.0964467690099582 3.185071219719962 L1.0960333570099294 3.060014253719988 L1.0956199460099185 2.9350606397199392 L1.0952065350099076 2.8100036747199546 L1.0947931230099925 2.6850500607200054 L1.0947317590099885 2.6603204167199586 L1.0944830640099212 2.5600964477199604 L1.0940696530099956 2.4351428347200006 L1.0936562420099847 2.3100858687200123 L1.0933461830099986 2.185132254719978 L1.0929327720099877 2.0600752887199896 L1.0924160070099447 1.9351216757200298 L1.0921059490099765 1.8101680627199848 L1.0916925370099477 1.6851110967200107 L1.0911757730099225 1.560157482719962 L1.0909803410099244 1.4813983197199612 L1.0908657140100217 1.435203869719917 L1.0904523030100108 1.3102502567199572 L1.0904523030100108 1.2693225217199462 L1.0904523030100108 1.2284981407199531 L1.0904523030100108 1.1876737587200417 L1.0904523030100108 1.1469527307199918 L1.0904523030100108 1.106128348719995 L1.0904523030100108 1.065303967720002 L1.0904523030100108 1.0244795857200053 L1.0904523030100108 0.9836552047200122 L1.0904523030100108 0.9428308227199302 L1.0904523030100108 0.9020064407199477 L1.0904523030100108 0.861285412719969 L1.0904523030100108 0.8203576787199616 L1.0904523030100108 0.7794299437199363 L1.0904523030100108 0.7386055627199433 L1.0904523030100108 0.697884533719975 L1.0904523030100108 0.6570601517199783 L1.0904523030100108 0.6286381147199656 L1.1088077650099706 0.627903895719971 L1.1395449140099458 0.6266744097199286 L1.195975577009989 0.6245039997200372 L1.2523028890099965 0.6222302367200179 L1.308836906009958 0.6200598267199418 L1.3652675700099905 0.6177860637200077 L1.4121897710099347 0.6159257117199992 L1.4593186770099464 0.6140653607199944 L1.5062408770099864 0.6122050087200002 L1.5532664310099733 0.6103446577199954 L1.5721800040099936 0.6095178347199699 L1.5910935790099359 0.608794364719973 L1.608250154009994 0.6056937787200276 L1.6252000240099278 0.6024898397199543 L1.6423566000099754 0.5992859007199804 L1.6594098230099235 0.596081962719925 L1.7438491130099578 0.5804756797199708 L1.828081698009953 0.5648693977200345 L1.9125209880099874 0.5491597617199666 L1.9968569260099969 0.5334501267200018 L2.0813995690099603 0.5178438437199624 L2.1656321540099555 0.5021342087199834 L2.2499680900099577 0.4865279257199582 L2.33440738101001 0.47081829071997916 L2.4188466720100337 0.4551086547200107 L2.5031826090099685 0.43950237271997494 L2.5875185460099885 0.4237927367200065 L2.671854484009998 0.4080831017199422 L2.7562937740100324 0.3924768187199881 L2.8406297120099566 0.376767183719938 L2.925069002009991 0.36116090071998386 L3.009404939009926 0.34545126572001905 L3.096738111009955 0.3293282187200255 L3.2149737880099565 0.3195096967199653 L3.3011700760099814 0.3123783487199354 L3.37031314300998 0.3066939417199883 L3.4081402910099428 0.3082442347200107 L3.421059400009966 0.3147554647199833 L3.426847159009924 0.319096284719965 L3.428190747009893 0.325814221719984 L3.428087394009964 0.33925009371994364 L3.4312913330099377 0.34638144171997354 L3.43862938600995 0.3484484987199359 L3.445967439010019 0.34927532171996134 L3.4491713790099823 0.3525826137199637 L3.4479311440099707 0.37635377171992346 L3.4491713790099823 0.3832784137199958 L3.451961906009956 0.38865276371996416 L3.4634340740099674 0.4037422807199569 L3.4749062410099896 0.42844361571997425 L3.50508527801 0.462550060720023 L3.511183097009962 0.47267864171998397 L3.5116998620099764 0.4786731077199171 L3.509839510009982 0.4955196247199929 L3.511183097009962 0.5006872687199895 L3.516660799010026 0.5035811487199773 L3.5256524980099755 0.5066817347199368 L3.5342307860099993 0.5077152627200014 L3.5447727780099854 0.49779338772001225 L3.5596555910099994 0.5099890257199355 L3.5741249920099563 0.5269388957200256 L3.579499341009921 0.5347937137199672 L3.5931419190100087 0.5401680617199283 L3.606681144009997 0.5424418257199513 L3.6169130780099863 0.5467826457200182 L3.6210471930099857 0.5586682257199591 L3.6266282470099327 0.5696236287200271 L3.6370668860099613 0.5774784467199687 L3.6426479410099546 0.5869869097199434 L3.6341730060099735 0.6030066037199937 L3.666832511009943 0.6368029907199748 L3.676134269009964 0.6577836227199789 L3.6619749260100036 0.6787642537199794 L3.670863273009928 0.6924068327199855 L3.6866762610099215 0.7352982707199409 L3.694531079009977 0.777156180719917 L3.7075535400099966 0.7874914667200166 L3.725226880009899 0.7869747027199772 L3.76078026500997 0.7752958287199228 L3.765224438009966 0.7727120077200063 L3.7718390220099707 0.7675443647199991 L3.795506828009991 0.7407759727200194 L3.8162807530099485 0.7372619757199779 L3.831163566009991 0.728373628719968 L3.925214673010032 0.6310152307199992 L3.940924308009926 0.6263643517200315 L3.9526031810099767 0.615098888719988 L3.9705865800099787 0.5893640257199912 L3.9828855720099057 0.5787186807199909 L4.012341138010015 0.5594950477199809 L4.0282574790099375 0.545025646719953 L4.031358065009982 0.5105057907199644 L4.066187980009943 0.4869413367199691 L4.071975740010004 0.4859078087199755 L4.077350089009968 0.4871480427200119 L4.082104321009979 0.4899385707199748 L4.086548495009964 0.4931425087200445 L4.090269198009992 0.48632122071999007 L4.095023430009974 0.4811535767199935 L4.107115715009968 0.47267864171998397 L4.13564110500991 0.46089641571998996 L4.143495923009965 0.4551086547200107 L4.172331372009978 0.4283402637199494 L4.180496248010002 0.42451620672000345 L4.216979810010002 0.4181083297199599 L4.250466137009909 0.39475058172000743 L4.298421867009949 0.33873332871998585 L4.333665193010006 0.32188681172000955 L4.353612296009942 0.3191996377199793 L4.374592928010031 0.32188681172000955 L4.385444978009986 0.325090751719987 L4.402808260010005 0.33377239171995043 L4.411799959009954 0.3355293907199304 L4.421205070009904 0.3287081017199718 L4.44962710801002 0.28085572471997367 L4.465956860009953 0.26535279471996276 L4.480632967009967 0.26008179971993073 L4.51484276501003 0.2616320917199495 L4.536960278009957 0.2657662067199631 L4.549259269010008 0.27651490471999196 L4.5664158450099706 0.3082442347200107 L4.573857251009969 0.3150655237199693 L4.580471834009984 0.3179594037199571 L4.585122713009952 0.323747163720018 L4.586879711009914 0.33925009371994364 L4.62098615700998 0.36963583571999337 L4.633801912009972 0.36663860271997706 L4.6797939370099755 0.3620910767200378 L4.6899225180100075 0.35971396071998996 L4.693126457009981 0.35371949471997155 L4.707182446009995 0.3376998007200065 L4.7103863850099685 0.332118745719999 L4.714003735009953 0.3300516887199372 L4.764543286009996 0.27207073171998175 L4.779426098009935 0.25915162371997624 L4.813842603009988 0.23817099271997577 L4.8407143470099925 0.2052014287200059 L4.846088696009957 0.2011706667200066 L4.853530103009973 0.19693319971996814 L4.8622117430099365 0.1935225547199373 L4.871410148009943 0.1920756147199434 L4.879885082009935 0.18897502871999805 L4.886086255010014 0.17481568571995254 L4.89228742700999 0.17161174771998233 L4.912751294009951 0.1673742797200255 L4.936212394009942 0.14856405871993061 L4.9534723220099295 0.14432659071997378 L4.972799309009986 0.14287965071997988 L5.0464899010100055 0.11983196272001706 L5.053001131009978 0.1164213177199862 L5.060545890010019 0.1092899697199563 L5.063956535009936 0.10257203372002621 L5.068710766009929 0.09771444872000146 L5.07966617001 0.09595745072002515 L5.073464998010024 0.11022014571999605 L5.08400699101 0.11693808172002562 L5.090518221009972 0.12561972271999267 L5.0986830970099675 0.12975383671991736 L5.113875969009996 0.1232426067199448 L5.12245425601003 0.13502483271995303 L5.1350633050099646 0.13306112872000497 L5.1628652260100125 0.1164213177199862 L5.172373690010005 0.13698853771997577 L5.203276196009995 0.13605836171993602 L5.23624576000995 0.12282919471993026 L5.269318676009959 0.0910998657200004 L5.309522941009959 0.09161662971995455 L5.375152010009998 0.10339885672003746 Z" fill="black" stroke="black" stroke-width="0.5" vector-effect="non-scaling-stroke"/></svg>