<svg xmlns="http://www.w3.org/2000/svg" viewBox="0 0 1.2583154295600139 2.2493457037200137"><path d="M1.2188793947800605 2.178953450860016 L1.2228670247800437 2.174152018859994 L1.2261222327800283 2.1716292318600185 L1.229051920780023 2.1678857428600313 L1.231656086780049 2.159747721859995 L1.2345043947800605 2.165362955859999 L1.2359692387800578 2.1709781908599926 L1.235480956780009 2.177569986860002 L1.2319816077800283 2.185626627859998 L1.224006347780005 2.1950667318600185 L1.1954418947800605 2.220050455859999 L1.1842114257800063 2.2272932948600133 L1.178270670780023 2.199054361860002 L1.1842114257800063 2.141844075860016 L1.1773754887800578 2.1179996748599965 L1.1707836917800591 2.1123844408599926 L1.1479972327800283 2.099933268859994 L1.1395336917800591 2.0975732428600313 L1.130581868780041 2.091876627859998 L1.1090161137800578 2.0633935548599798 L1.122281086780049 2.0652652998599965 L1.1715161137800578 2.098956705859999 L1.1842114257800063 2.111163736860002 L1.1903149417800591 2.1353336588600005 L1.1842114257800063 2.2204573568600185 L1.194546711780049 2.2115055338600005 L1.2188793947800605 2.178953450860016 Z M1.235562336780049 2.0733219408599926 L1.2459790037800076 2.0912255858599824 L1.2409334307800464 2.1048974608599824 L1.2306795247800437 2.1182438158599926 L1.225145670780023 2.135089518859994 L1.2256339517800257 2.1420068358599824 L1.2266918947800605 2.1478662108599824 L1.2303540037800076 2.1569807948600133 L1.226284993780041 2.151609700860016 L1.221809081780009 2.1439599608599824 L1.2193676757800063 2.1356591798599798 L1.222053222780005 2.128253580859999 L1.2378409827800283 2.097491861860002 L1.2285636397800204 2.073484700860016 L1.208137206780009 2.0502099608599824 L1.1910473637800578 2.021808268859994 L1.2017895507800063 2.0292138678600313 L1.235562336780049 2.0733219408599926 Z M0.10169189478006047 1.4475895188599939 L0.11341064478006047 1.4479964198600133 L0.10657470678000891 1.4514143878600212 L0.1030753577800283 1.4507633468599952 L0.10169189478006047 1.4485660808599992 L0.10169189478006047 1.4475895188599939 Z M0.012743326780025654 1.1836735028599978 L0.012336425780006266 1.173094075860016 L0.013719889780020367 1.1690250658599926 L0.01868408178000891 1.1651188158599926 L0.020148925780006266 1.1731754558599992 L0.018928222780061787 1.1778141278599978 L0.01616129578002301 1.1809879558599992 L0.012743326780025654 1.1836735028599978 Z M0.08972900378000759 0.9909651698600133 L0.09363525378000759 0.9831526698600133 L0.09835530578004636 0.9772932948600133 L0.10462158178000891 0.9734684248599965 L0.11186442078002301 0.9724104818600185 L0.10803955078000627 0.9838037108599824 L0.10242431678005914 0.9953597008600159 L0.09607665978001023 0.9999169928600313 L0.08972900378000759 0.9909651698600133 Z M0.5245434567800089 0.23526855485997977 L0.5159985347800102 0.22892089885997713 L0.5137198897800204 0.2268050128600212 L0.5230786137800578 0.22843261786003133 L0.525926920780023 0.23079264385999387 L0.5255200197800605 0.23315266986001326 L0.5245434567800089 0.23526855485997977 Z M0.9727856447800605 0.1228824868600018 L0.9823071287800076 0.11433756585999255 L0.9796215817800089 0.11987141986001326 L0.9766918947800605 0.1223128258600159 L0.9742504887800578 0.12280110686001855 L0.9727856447800605 0.1228824868600018 Z M0.48841064478006047 0.0803206378600212 L0.49842040978001023 0.06502115886000048 L0.49679280578004636 0.0738102218599952 L0.4937003577800283 0.07820475285999784 L0.49028238978002037 0.07999511786003133 L0.48841064478006047 0.0803206378600212 Z M0.5116040037800076 0.03165527385997713 L0.5199047847800102 0.02921386786003133 L0.5177888997800437 0.03425944085999255 L0.5158357747800437 0.034747721859995195 L0.5140454097800102 0.033038736860001805 L0.5116040037800076 0.03165527385997713 Z M0.7174959307800464 0.029864908860000483 L0.7159497067800089 0.02742350285999784 L0.714077961780049 0.026284179859979773 L0.7130200197800605 0.02514485686001855 L0.714077961780049 0.022052408860000483 L0.7178214517800257 0.02254069085999255 L0.7183911137800578 0.024249674859996517 L0.7174959307800464 0.026772460859982417 L0.7174959307800464 0.029864908860000483 Z" fill="black" stroke="black" stroke-width="0.5" vector-effect="non-scaling-stroke"/></svg>