<svg xmlns="http://www.w3.org/2000/svg" viewBox="0 0 0.5133203131800315 0.4198120110600172"><path d="M0.14390787809000471 0.34485473602996564 L0.13536295609000604 0.3564107260299991 L0.1193439580900133 0.36728677203002036 L0.10355144608999467 0.3662533060299964 L0.08940060409000239 0.36571840302998027 L0.06490085509003052 0.3641558030299805 L0.07852036709002164 0.3522885260300157 L0.0964755310900216 0.3508099910299691 L0.1046295290900332 0.33796049202999967 L0.11338199108999447 0.3259619180299822 L0.11720780209000736 0.30994271403000795 L0.13732417309003608 0.29920066202999607 L0.15176106808999634 0.30326945002997974 L0.17539610009001194 0.298742261029993 L0.18632431109003278 0.30179621102997345 L0.21886815209003885 0.2962556040299731 L0.2518296330900114 0.3012402520299773 L0.262183815090026 0.3110680030299662 L0.25890045509001425 0.3162353380299763 L0.247437381090009 0.31468114802999736 L0.23043293809004695 0.3100878260299922 L0.21786315009003943 0.3168128700299988 L0.21263346409003248 0.32463175403001543 L0.204983724089999 0.3312235510300141 L0.1957063810900479 0.33403116802998767 L0.18785319009001 0.33256632502997974 L0.1820345060900479 0.32955525703000177 L0.17564615909000736 0.3273173010300141 L0.16563639409000075 0.32780558203001675 L0.16616536508999502 0.33085734002998635 L0.1583121750900034 0.3387919110300075 L0.14866862009003512 0.34550577802998106 L0.14390787809000471 0.34485473602996564 Z M0.3984244800900285 0.2694559730300128 L0.3900016280900047 0.2792622880300044 L0.3708365890900325 0.2936665850300031 L0.3497184250900034 0.30546671502998635 L0.3356803390900325 0.30729777003001146 L0.3605013020900003 0.2750305170299683 L0.3672965500900034 0.25899861603000573 L0.36363444009001 0.2384094240300172 L0.3680696620899937 0.2384094240300172 L0.37091796909001573 0.23987426702996828 L0.3732779950900351 0.2421529130300044 L0.3766145840899924 0.24459431903000706 L0.4321972660900144 0.24345499702997841 L0.45298990909000736 0.2384094240300172 L0.44472981808999634 0.2533020020300185 L0.425930990089995 0.26314900703000177 L0.40705078209001044 0.2684387200299696 L0.3984244800900285 0.2694559730300128 Z M0.4424918620900087 0.02608846003000309 L0.39850586009001177 0.024216715029986347 L0.38035807309003644 0.01827596003000309 L0.3704703780900047 0.005662028029981059 L0.4587272140900325 0.004115804030000447 L0.49396484409001573 0.016282145030011463 L0.5082877610900312 0.0496887200299696 L0.49949869809003644 0.0491190590299837 L0.4424918620900087 0.02608846003000309 Z M0.20958170609000604 0.39238077802998106 L0.210843099089999 0.3994608560299824 L0.21116862009003512 0.4129699700299696 L0.20811686209000868 0.41569620703001675 L0.20433268309002983 0.40735473602996564 L0.19371256509001 0.4017395020300185 L0.1782910160900144 0.3987284340299837 L0.17601237009003512 0.39474080403000045 L0.18496419308999634 0.3925435380300044 L0.19212565109003776 0.39238077802998106 L0.1961946620899937 0.3909159340299837 L0.20067057309003644 0.38977661102996564 L0.20958170609000604 0.39238077802998106 Z M0.0492220060900479 0.29692179302998767 L0.05150065109003776 0.30046183203001675 L0.05479655009000339 0.3076639810299824 L0.04869303409000736 0.3124654130300044 L0.019640300090003393 0.3085184730300128 L0.0050325520900003085 0.30807088203000177 L0.010607097090002071 0.3007059730300128 L0.0361197920900338 0.29537556903000706 L0.0492220060900479 0.29692179302998767 Z M0.24632487009003512 0.25623168902996696 L0.24949869809003644 0.2577779130300044 L0.2501090500900034 0.2685201010299991 L0.24986490909000736 0.27397257502997974 L0.24742350309000471 0.2833312990300172 L0.24250000009001837 0.2879699700299696 L0.2407910160900144 0.28520304302998767 L0.24168619809003644 0.27852986603000573 L0.2395703130900131 0.2675028480300128 L0.24131998709000868 0.2596903480300128 L0.24632487009003512 0.25623168902996696 Z" fill="black" stroke="black" stroke-width="0.5" vector-effect="non-scaling-stroke"/></svg>