<svg xmlns="http://www.w3.org/2000/svg" viewBox="0 0 1.3891901199601477 1.0613256529200363"><path d="M1.160999067980029 0.15908679345995047 L1.1616301789799905 0.18198129045994627 L1.170828583979997 0.1913088864600656 L1.1841611029801271 0.1976134114599848 L1.197080211980122 0.2063725664599776 L1.2221949579800508 0.2420034664599502 L1.28751396797999 0.4308291504599584 L1.2918547889800749 0.4545486324600052 L1.290304494979992 0.4718602374600085 L1.282242971980068 0.5113927074599491 L1.281726206980025 0.5507443114599386 L1.2873072629800646 0.5929381184599993 L1.3004330759799956 0.6322380444599833 L1.3234807649800047 0.6629080074600058 L1.358620738980008 0.6959292484599917 L1.3730901399800501 0.7173232904600031 L1.3755706089801407 0.7380455394600194 L1.3611012079800986 0.7538326894600136 L1.3391904009800584 0.7530058674599918 L1.3160393589800634 0.7429031244599589 L1.2979526079801218 0.7308366774599779 L1.2891676139800694 0.7275810624599917 L1.2699439819800347 0.7283562094599905 L1.2595053419800166 0.7239378744599936 L1.2438990589800625 0.7108378984600296 L1.2355274769800673 0.7078406654600133 L1.2056584989800427 0.7108378984600296 L1.1847812209799855 0.706342049460007 L1.1278337929800415 0.6852322254599859 L1.1146046259801352 0.6763697184599682 L1.1066464549800372 0.6621845374600088 L1.0946575229800288 0.563637581459945 L1.0829786489800455 0.5242343014600284 L1.0503191439800759 0.44635791746006426 L1.0416375029800662 0.4075747554600344 L1.0376067419799853 0.32623605146003065 L1.044607952980087 0.24696000145998376 L1.0629359169800097 0.26577624745999806 L1.0812464639800652 0.25405749745999806 L1.1010218549800044 0.2319627704600311 L1.1234014119800264 0.22012195045999938 L1.145048546979993 0.21556465845998396 L1.1456995889800652 0.20388659846003243 L1.1371546669800097 0.18822090845998396 L1.1312952919800097 0.171537965460006 L1.1334925579800625 0.16384753646002714 L1.1400029739800317 0.15994128646002714 L1.1493616979800123 0.15876127346001745 L1.160673546979993 0.15908679346000731 L1.160999067980029 0.15908679345995047 Z M0.9965296669800097 0.17853666346002406 L0.9737346709800505 0.2013082754599953 L0.9705307319800482 0.2166820144599786 L0.9697039099800264 0.23339934046001254 L0.9631926789800929 0.2486697264600526 L0.9472763379800568 0.25846241046001417 L0.9297063509800552 0.2588758214600251 L0.9113095409800991 0.2557752354599945 L0.8930160839800152 0.25479338346002756 L0.8705885119800456 0.26094287945999106 L0.8525017609799903 0.2722858554599856 L0.8202556679801347 0.30303333246003383 L0.8033057979800589 0.31370451646002273 L0.7666155309800757 0.3290782544600024 L0.7580216349799827 0.3370163014599985 L0.7567970089800298 0.33814746945997065 L0.7561768909800577 0.35465808946004707 L0.7636182979799884 0.37320992846000145 L0.7829452839799984 0.41010690046002374 L0.7887330429799846 0.4307774734600418 L0.7921436879800154 0.45294666245996673 L0.7970012729800402 0.5698129144600177 L0.8029957389800444 0.606399829460047 L0.8208757839800143 0.6342792634600318 L0.8405128279800493 0.6414106114599765 L0.8552922889799817 0.638981818460012 L0.8627336949799798 0.6438652414599506 L0.8604599319800883 0.6724939854600098 L0.8512615259800924 0.7103728104600027 L0.8438201199800375 0.7271159744599647 L0.8330714219800512 0.744143358459981 L0.808992850980033 0.7673619814599721 L0.8026856799800868 0.773443896460039 L0.7967945669800685 0.7826681394599593 L0.7974146849800405 0.8031836834600217 L0.8286272499801299 0.7904971184599834 L0.8320378939800577 0.8079379144600143 L0.8248031929799851 0.8263088864600139 L0.8019622099800614 0.8603894934599783 L0.7949342159800636 0.8798456704599591 L0.7893531609800704 0.9211351394600644 L0.7817050489800437 0.9357854084599655 L0.6897209989799791 1.0235319904600022 L0.642592092980081 1.0509204994600356 L0.6014576529800166 1.0461662674600394 L0.5964967159800523 1.03825977346 L0.5890553089801216 1.0134550864599579 L0.5841977249800863 1.0031973144599693 L0.5762395539800451 0.9955750404599986 L0.5550522169800871 0.980666389459957 L0.4922136759800111 0.9226337564599891 L0.4779509799801218 0.9034618004600663 L0.46813245798007586 0.8839022704599575 L0.44735853198012876 0.8206761554599797 L0.434749482980024 0.8074728264599873 L0.4162493199800821 0.8063876224599955 L0.3753215859800463 0.8137256754599935 L0.33160332298008655 0.8050957104600389 L0.29749687798012303 0.8026927564599919 L0.29284599898012686 0.7935460284600016 L0.2910890009800511 0.7785857014600328 L0.2942929389800639 0.7727204254600384 L0.3082455759800524 0.7605506264600326 L0.31155286798004056 0.7509388094600258 L0.30473157898008196 0.7062903724600051 L0.2910890009800511 0.6857489904600147 L0.2910890009800511 0.6578695554600404 L0.2833375359799817 0.6298609284600349 L0.2774464219800876 0.61887968645995 L0.2669044309801194 0.6072524894599969 L0.2635971389800176 0.600715421460011 L0.26266696298002046 0.5928347654599708 L0.260393199980129 0.5861685054600532 L0.2531584989800564 0.583377977460005 L0.23775892298000656 0.5829645664599941 L0.23155774997998435 0.5799414954599786 L0.22390963898000393 0.5594517904600043 L0.2121274119800347 0.5517778394600175 L0.18752943098003527 0.5423727294599718 L0.15486992498007623 0.5169479244599575 L0.13378594098004726 0.505966682459972 L0.07900892298006568 0.4975692624599919 L0.013619510980007021 0.466459840460006 L0.2665491979800123 0.4749233824600214 L0.34150036998006783 0.46072253646002714 L0.41059216698000967 0.4218634864599853 L0.5093063599799876 0.38634102546001436 L0.5441370889800652 0.37380847346003243 L0.5651331829800625 0.353178590460006 L0.5805140419800097 0.32424792646003375 L0.6166468549800044 0.2876268324600364 L0.7374964639800652 0.19155749745999806 L0.7750127399800846 0.16885241846000731 L0.9432256309800238 0.0670457784600007 L1.0726201619800264 0.013497601460018771 L1.0976852659799903 0.010405153460000705 L1.1165654739800317 0.01772937245999806 L1.118030317980029 0.03075020546003948 L1.103463260980007 0.04100411145998528 L1.072213260980007 0.05496081746002979 L1.0639124799800044 0.06842924146002538 L1.0473109169800097 0.10818347346003243 L1.0443812299800044 0.12014636446002847 L1.037626671979993 0.1338589294600201 L1.0065394329800625 0.1626268324600364 L0.9965296669800097 0.17853666346002406 Z" fill="black" stroke="black" stroke-width="0.5" vector-effect="non-scaling-stroke"/></svg>