<svg xmlns="http://www.w3.org/2000/svg" viewBox="0 0 6.383673064080035 3.0501369998399497"><path d="M4.050920398040066 2.545301445919897 L4.012473132040018 2.5480144579199404 L3.9914925010400033 2.543441093919988 L3.978573393039998 2.535276216919975 L3.9520117060400857 2.512512748919981 L3.943743477040048 2.5086628549199403 L3.9293774290400485 2.507861869919928 L3.907466622040065 2.5236490199199224 L3.8526896040399983 2.5249409309199606 L3.825921211040029 2.530444470919967 L3.7990494670400246 2.5468258999199165 L3.791608061039998 2.5492030159199643 L3.78478677104005 2.549487236919923 L3.7780688360400383 2.5510375289199416 L3.771247546040062 2.556825289919935 L3.76566649104004 2.5692534719199998 L3.765046374040086 2.583722872919928 L3.767836902040049 2.5978822159199737 L3.7725911330400415 2.6095869269199667 L3.777051381040028 2.6145610729199333 L3.7844767130400534 2.622841931919872 L3.7987394080400385 2.627880383919937 L3.8127953980400697 2.629947441919988 L3.8242675660400813 2.6340557179199138 L3.832845853040002 2.6417038299198836 L3.8386336140400807 2.650127087919877 L3.847832019040087 2.67565524591992 L3.8485554890399705 2.6832000049199607 L3.8470051960400475 2.698961315919938 L3.848762194040038 2.7056792529198717 L3.8543432490400598 2.709141573919929 L3.870052885040028 2.71131198391992 L3.8756339400400215 2.716014539919989 L3.88069823004 2.7291920299199646 L3.882041817040065 2.74061252091996 L3.880491524040057 2.7518779829199147 L3.876874174039987 2.764538708919865 L3.8651953000400034 2.7735820849199158 L3.863438302040013 2.7803000209199453 L3.8737735880400272 2.7979216849199346 L3.8780110560400693 2.8024692109199734 L3.891860339040054 2.8123394089199607 L3.8949609250399853 2.8183855519198957 L3.8932039260400906 2.8264470759198943 L3.8881396360400267 2.828772514919926 L3.881835112040026 2.8304778369199752 L3.876564115040086 2.8365239799199387 L3.8654020060400605 2.8614320199198957 L3.8500024290399644 2.8868051479199934 L3.8384269080400237 2.900551078919925 L3.832225737040037 2.903134900919916 L3.8248876830400356 2.901739636919949 L3.739414864040018 2.9166741259199043 L3.7264957560400127 2.921531710919929 L3.6998307170400757 2.935070935919917 L3.6771964390400207 2.943339164919955 L3.6661376830400094 2.94437269291992 L3.652701811040064 2.9424089889199863 L3.6387491740400755 2.9423056369199614 L3.6138411340400047 2.9520724819199344 L3.59957843804003 2.954294568919913 L3.5802514530400664 2.9482484259198927 L3.5508992390400103 2.92370212091992 L3.5285750200400265 2.917294242919972 L3.5183430860400655 2.9202914769198784 L3.4810327020400145 2.9393084029199414 L3.4463061400400683 2.941272107919893 L3.4350406780400284 2.9442176649199823 L3.422741687039977 2.951038953919941 L3.4156103390400325 2.9564133029199056 L3.4087890510400065 2.9599272999199613 L3.397523588040034 2.961167533919898 L3.3880151240400416 2.9591521539199377 L3.3671378460400696 2.949850395919917 L3.3573193240399952 2.9472665739199257 L3.269055978040033 2.9426673719198604 L3.255516752040055 2.946129692919918 L3.2477652870400426 2.9555864789198765 L3.24125405704007 2.966645235919877 L3.2324690630400745 2.9748617889199167 L3.2226505410400286 2.9777556689199045 L3.214899076040016 2.977135551919922 L3.2070442580400744 2.9752751999199276 L3.196657296040062 2.97455173091992 L3.1710257850400048 2.977910698919935 L3.0032840860400007 3.0189417859198997 L2.9798229860400376 3.0202336959199485 L2.9566719440400426 3.017443168919975 L2.9372416060400646 3.008606498919981 L2.8946602260400063 2.9644748259199716 L2.8754365930400674 2.952227510919947 L2.871409241040002 2.9508028349199478 L2.834095446040042 2.9376030809198923 L2.8301680380400605 2.9341924369199646 L2.8224165730400763 2.9242705609199717 L2.819419340040046 2.92168673991997 L2.814355050040067 2.9216350639199433 L2.7979219440400165 2.9242705609199717 L2.6345210650400226 2.871974011919967 L2.603928618040019 2.857711316919982 L2.5904927450400557 2.856471081919942 L2.5805708700400523 2.858021374919865 L2.559693591039977 2.863602429919972 L2.5208329140400316 2.865669487919938 L2.517732328039987 2.8790020069199542 L2.520419502040003 2.8964169649200002 L2.511841215040082 2.9109380419199553 L2.4919974650400754 2.9102662479199566 L2.4701900110400494 2.8955901419199606 L2.43629027104004 2.8626205779199196 L2.416756579040058 2.849391410919928 L2.3984631220400594 2.842828504919929 L2.3788260780400527 2.8406580939199486 L2.3557783900400615 2.8406580939199486 L2.361876209040023 2.830684542919947 L2.327046293039988 2.8310979549199473 L2.313403715040071 2.8285658089199543 L2.2980041380400884 2.8178171109199397 L2.2972806680399778 2.814148083919939 L2.2997611370400683 2.8030893279199276 L2.2986242550400426 2.7981283899198885 L2.294800199040001 2.7947694219199875 L2.285291735040037 2.7902218959199487 L2.281674385040052 2.787276338919945 L2.2763000370400768 2.7814885789199693 L2.271132394040084 2.7775611699199985 L2.266998279040056 2.7729102909199455 L2.264104399040068 2.7646937389199238 L2.2609004600400944 2.7369951709199754 L2.248498116040029 2.7107952199198664 L2.227724191040071 2.696687553919922 L2.19888874104004 2.7051108119199156 L2.176771228040028 2.708831514919943 L2.156410713040092 2.7306389699199585 L2.1415279010400674 2.7331194379199175 L2.1204439170400384 2.7304839409199175 L2.105044340040056 2.7316724979199236 L2.0714546590400325 2.739217256919993 L2.062566313040012 2.739940727919894 L2.035797920040043 2.7375636119199314 L2.0271162800399942 2.7385454639198983 L2.0206050500400217 2.741387667919973 L2.0136804080400204 2.743092989919937 L2.0043786500399996 2.740715873919889 L2.0026216510400197 2.7351864959198835 L2.0048954140400532 2.7267115609199877 L2.0039652380399993 2.717978243919923 L1.9844315470399785 2.7085731329199447 L1.9683085000399991 2.694878878919944 L1.950841866039955 2.696532524919995 L1.9319282920400305 2.7025786669199405 L1.9152597140400225 2.710627207919906 L1.9138415400400142 2.71131198391992 L1.8991654340400181 2.720975476919925 L1.8950313190400756 2.727331677919942 L1.890690499040094 2.7430413139199388 L1.8877966190400208 2.746762016919938 L1.8803552120400049 2.746296928919911 L1.8760143920400232 2.742007784919956 L1.8715702190400272 2.7362200249198665 L1.8638187540400146 2.7315691459198987 L1.8340531290400328 2.724954562919912 L1.7941589230400758 2.7223190639199046 L1.7649100630400234 2.7326026739198923 L1.7673905320400003 2.7646937389199238 L1.7700777060400448 2.786862927919934 L1.7695609420399911 2.7953378629199435 L1.7634631230400295 2.802882621919899 L1.7523010130400145 2.8070167369198984 L1.7404154330400878 2.8052597379199185 L1.7182979210400653 2.7942009819199356 L1.7146805700400058 2.8013323289199477 L1.7099263380400807 2.8037094449199103 L1.7044486370400058 2.804639620919964 L1.6988675820399841 2.807481823919936 L1.6822277710400648 2.8199875209199305 L1.667448311040065 2.8207626679199436 L1.6204227580400676 2.7948210979199857 L1.6123612340399838 2.793994275919964 L1.5852827840400359 2.81285617391989 L1.5691597370400565 2.8187472869199937 L1.5484891640400384 2.8227263729198953 L1.5273018270399952 2.8245350479198734 L1.5096284870400645 2.8238632539199884 L1.4946423220399971 2.829289278919866 L1.4720080440400558 2.8576596409199553 L1.4557816440400337 2.8608635789199397 L1.422915434040025 2.855179171919893 L1.3897391640400123 2.85538587791995 L1.3704121790400485 2.8607085499198988 L1.3452974330400345 2.879828828919891 L1.3424085360400149 2.881243997919931 L1.330001208040077 2.8873219119199334 L1.2965148800400677 2.8863400599199664 L1.2305757530400605 2.8606051969199697 L1.132080473039995 2.8584347869198936 L1.1130635460400278 2.8630856659199466 L1.0826778030399886 2.8797771529198926 L1.0647977580400187 2.887115206919866 L1.0436104210400607 2.889027234919972 L1.0331717810400143 2.881482475919931 L1.023766671040054 2.8699586309199034 L1.0052665080400267 2.8601401089199427 L0.9874898150399964 2.8610702849199114 L0.9641320680400476 2.8686150439199523 L0.941807849040007 2.879312064919951 L0.9273384480400502 2.8897507049198836 L0.9239278030400477 2.897398816919967 L0.9223775100400111 2.9156405979199107 L0.9171065150400786 2.925355766919971 L0.9082181680399835 2.9322804079199543 L0.8972627640400823 2.9369829639199097 L0.87473183904007 2.9419955779199753 L0.8327705770399838 2.945664604919976 L0.6345397820400116 2.922565238919894 L0.6584142940400888 2.908509249919966 L0.662031645040063 2.8899057339199246 L0.6569673540400949 2.8689251029199383 L0.654900297040033 2.8475827359199215 L0.6581042360400069 2.8414332409199616 L0.6696797560400434 2.8306328669199203 L0.6721602250400203 2.8259303109199365 L0.6709199910400834 2.8201425499199715 L0.6651322310400225 2.8099622939199023 L0.6637886440400429 2.805104707919888 L0.6611611340400749 2.735136666919935 L0.6605847050399838 2.719786918919901 L0.6654422890400191 2.7031987839198948 L0.6662691120400304 2.697359347919921 L0.6639953490400252 2.6905897349199606 L0.6544868860400221 2.6794276249199456 L0.6512829470400483 2.673743217919899 L0.6496293010399974 2.6603848599198656 L0.6505594770400513 2.6459929739199524 L0.653660062039993 2.632169527919892 L0.6584142940400888 2.6206973599199657 L0.6633752320400426 2.6172608769199357 L0.6790848670400216 2.6138502319199333 L0.6845625690400006 2.6112922489199306 L0.6876631550400454 2.606305473919967 L0.6941743860400074 2.591784396919927 L0.702996324040047 2.581140085919934 L0.7161885460400903 2.565222709919901 L0.7271439490400589 2.5419683149198917 L0.7264204790400619 2.518403862919989 L0.7087471400400638 2.4973457159199697 L0.6981017940399887 2.493599174919943 L0.6744339880400538 2.492668998919889 L0.6634785840400674 2.488999972919906 L0.6572774130399957 2.4816360809199054 L0.6358833690400765 2.4439897999199545 L0.6252380250400655 2.4097541639199775 L0.6189335000399616 2.3979202609199533 L0.6142826210399939 2.393889498919968 L0.6026037480400284 2.3891869439199738 L0.5996501010400586 2.3867195679199185 L0.5983662800400715 2.3856471079199295 L0.5957824580399951 2.378076509919957 L0.596195869040006 2.3633228889198605 L0.5946455770400725 2.35629489391993 L0.5838968790400578 2.3334539109199497 L0.5764554730400313 2.3104578989199 L0.5746984740400514 2.286454195919866 L0.5723213580400888 2.2757054979199367 L0.5644665400400619 2.264853447919897 L0.56415648203998 2.264698417919952 L0.563329659040054 2.2514692509199605 L0.5631829550400802 2.250930113919928 L0.5612626020399922 2.243872815919893 L0.5557849000400132 2.238860201919941 L0.5445194380400586 2.2332533089199202 L0.5388350300399942 2.2329690889199227 L0.5235388060400545 2.23694817391992 L0.5165108110400389 2.237103202919961 L0.5086559940400015 2.2325298389199233 L0.5052453490400843 2.2257602269198955 L0.5028682330400365 2.219197319919907 L0.49842406004001205 2.215166556919904 L0.488192126040051 2.2143397349199674 L0.4426135130400475 2.215864188919987 L0.43599893004006063 2.2138746469199404 L0.43155475704006463 2.2097146939199135 L0.42783405404003716 2.2053480349199432 L0.4232865270400943 2.202402478919929 L0.3934175490399845 2.197725761919962 L0.3447384610399844 2.1792112509198986 L0.3353332390400148 2.175634086919949 L0.24862018604006053 2.129228649919945 L0.22774290803997488 2.1135448529199934 L0.2245003300400903 2.109410566919955 L0.21223997804006345 2.0937786179199165 L0.1990108110400719 2.0650206829199007 L0.16118366303999565 2.0439108609198726 L0.06258503004000104 1.944898816919867 L0.08170531004009618 1.9373540579199116 L0.12335651404001524 1.9367856169199555 L0.14154661804005642 1.9324447959198991 L0.15601601903998485 1.9182854549199462 L0.17193236104009557 1.8815693489198608 L0.18733193704008855 1.8666348599199054 L0.20262816104005665 1.861182996919915 L0.21513385804005125 1.859141777919966 L0.2263993210400237 1.8534056929199991 L0.23704466603999563 1.8374118379199658 L0.2506872440400265 1.8007474089198965 L0.2540978880400395 1.7799476449199503 L0.25006712604005443 1.764935640919866 L0.25006712604005443 1.7647806119199387 L0.24241901404005617 1.7506729459199946 L0.2297066120400224 1.7391491009199669 L0.1990108110400719 1.722715996919895 L0.14723102604000715 1.6869300669199774 L0.14289020604002545 1.6854831269199835 L0.1464042030399959 1.6655618619199615 L0.15888001503998694 1.6254463799199286 L0.16211383804003177 1.6150481489199464 L0.1667647170399995 1.5903726529199318 L0.15963336904005487 1.5766525609199036 L0.18567829204005548 1.5400139699198618 L0.1990108110400719 1.5306605359199281 L0.20014769303998392 1.5276633019199934 L0.2004577510400658 1.5245627169199665 L0.20014769303998392 1.5215138069199199 L0.1990108110400719 1.5185165739199178 L0.18412799904001886 1.5098090949199374 L0.17069212704007342 1.4947454149199402 L0.14692096804001054 1.452215711919898 L0.14340697004005065 1.4484950079199947 L0.144957263040002 1.444722628919969 L0.14800797003997346 1.4412612499199255 L0.15436237404003705 1.4340514449198665 L0.16304401404000046 1.4281603319199618 L0.18846881904000057 1.4182126189199593 L0.1990108110400719 1.4115980359199725 L0.21461709404002605 1.3939246959199565 L0.22360879304006076 1.3882144499199214 L0.2373547240400775 1.3879819059199505 L0.2551314170400225 1.3899972869199004 L0.262056058040006 1.3869483769199675 L0.2623469580400162 1.3866314049199318 L0.2675337610400028 1.3809797499199519 L0.28117633803998743 1.3740551079199506 L0.30846149504009546 1.3714454479199603 L0.38380573303999554 1.3864057749199148 L0.4141914760400347 1.3809280729199358 L0.44457721804008443 1.3714454479199603 L0.4563594440400074 1.3609551319200008 L0.4571404140400581 1.3594802999199018 L0.46307738004000853 1.3482685679199662 L0.4807507200400245 1.2996927219199605 L0.48695189204000044 1.2870578339199241 L0.49397988704001605 1.2786087369199421 L0.5056587600400952 1.2734410939199208 L0.5333573280400152 1.268635185919912 L0.5463797890400635 1.264888644919914 L0.5464831420400778 1.264888644919914 L0.5465864950400068 1.2648369679199831 L0.5465864950400068 1.2646819379199528 L0.5598156610400942 1.250832654919968 L0.6017769240399993 1.2216871469199688 L0.6070479200400349 1.2139615199199554 L0.6142826210399939 1.1956163859198838 L0.6192435590400613 1.1885883919199713 L0.6277184940400424 1.1830590139199657 L0.6446683640400614 1.1771937379198718 L0.6528332390400671 1.172775403919978 L0.6731937540400033 1.150063610919993 L0.6915905640400162 1.1171457249199577 L0.7021325560400591 1.083711071919872 L0.7004637310400916 1.0710199239199127 L0.6989286180400178 1.059345634919957 L0.6822888060399954 1.0539196089199763 L0.6330928420400177 1.046090629919938 L0.6153161490399874 1.038003268919958 L0.6013635130399884 1.0277454959198664 L0.5749051800399947 1.0013905159200007 L0.5507206100400346 0.9836913379199004 L0.5445194380400586 0.976947563919957 L0.5414188520400138 0.9690410699199319 L0.5383182650400649 0.9507992889199599 L0.5347009150399948 0.9428411189199082 L0.5220918660400606 0.9293535689199288 L0.4505716840400318 0.876824475919868 L0.4419049280400351 0.8722777119198994 L0.4369291050400115 0.8696672899199243 L0.4204960000400355 0.8642929409199596 L0.41078083104000385 0.8634661179199199 L0.3917639040400367 0.8641895879199168 L0.3822554400400442 0.8616057659199257 L0.37648786204005447 0.8570428089199638 L0.37409056404004914 0.8551462119198661 L0.36292845404000573 0.8380413139199376 L0.35538369604006803 0.831969331919872 L0.34608193704002943 0.8300831429198681 L0.3244811890400605 0.8309358049198963 L0.31383584404006015 0.8291788049199269 L0.30432738004006765 0.8239078099198807 L0.2902713910400543 0.8101877159199589 L0.2833467490399961 0.8049942349199384 L0.25017048004005815 0.7934962289199277 L0.23642454804002355 0.7840911179199495 L0.22691608404005947 0.764996676919985 L0.20820921604007836 0.717454357919955 L0.19601357904005923 0.6991092259198908 L0.19518675504003014 0.6941741259199361 L0.19622028404001313 0.6891615119199557 L0.1990108110400719 0.6842264129199336 L0.20025104603999822 0.6816425909199424 L0.20066445704000913 0.6790587699199406 L0.20025104603999822 0.6766041389199628 L0.1990108110400719 0.6742011849200011 L0.19570351904005534 0.6707647019199712 L0.19466999003998708 0.6670439989199721 L0.19570351904005534 0.6634266489198737 L0.1990108110400719 0.6598092979198995 L0.19932087004005794 0.6593958869199739 L0.19952757604000126 0.6588791229199487 L0.19932087004005794 0.6583623579199056 L0.1990108110400719 0.6576905649199247 L0.19136269903998837 0.6453398969199711 L0.19043252404003752 0.6223955609199194 L0.18381794004003282 0.609218070919944 L0.17348265404004692 0.6019316939198731 L0.1440270870400333 0.590123629919951 L0.13152139104002813 0.5816745329199691 L0.12242633904006439 0.5711583789199253 L0.11446816803999482 0.5589369029198892 L0.10806029104006498 0.5458886029199377 L0.10361611704005114 0.5328403049199082 L0.10340941204001197 0.5245203989199396 L0.10713011504009629 0.507828910919919 L0.10609658604002803 0.5000516079199073 L0.0801550170399743 0.4774948449198675 L0.06702920304002546 0.4504163949199196 L0.07230019904003271 0.4286347779199886 L0.08511595504001335 0.4055870899199121 L0.09462441804001642 0.37481377491996426 L0.09658812204003553 0.34484144391992544 L0.09958535604005547 0.33977715291992894 L0.10950723104005888 0.32647047191994005 L0.11209105204006065 0.3220004609200018 L0.11436481504006579 0.3063941779199624 L0.11488157904000573 0.2774036989198905 L0.1171553420400393 0.265001355919928 L0.12935098004004786 0.2514104539199238 L0.15188190504006016 0.2443824589199366 L0.18344705304008713 0.24071370291994043 L0.1990108110400719 0.23890475791994703 L0.22123167804000232 0.23843966991992005 L0.2324971390399675 0.22805270691988966 L0.24014525104005102 0.21363498191987418 L0.2517207720400769 0.20118096191989565 L0.2721846400400558 0.19590996591994525 L0.2927518600400312 0.19694349491992824 L0.31052855304006144 0.19441134891993528 L0.32231077803996655 0.17896009591995465 L0.32220742604005537 0.17017510291986326 L0.31569619504006496 0.1490394419199319 L0.31466266703998613 0.13927259591996943 L0.31662637104003366 0.12800713391990115 L0.326961657040048 0.09839653791996028 L0.3255147170400541 0.09834486191993363 L0.32355101304000655 0.09519259891990117 L0.32241413104009453 0.08986992691995255 L0.32375771904006356 0.0837721079199909 L0.32613483504002616 0.08248019691992425 L0.3423612340400304 0.0689409709198614 L0.3575541060400589 0.05100924991997857 L0.3663390990400366 0.044342989919890385 L0.40920216904004647 0.02990330392000118 L0.6239977910400434 0.13544853991992767 L0.6601712930399835 0.14686903191994105 L0.7056465530400295 0.15131320491993705 L0.7258685050400437 0.15789142991993543 L0.7485379920399886 0.16526584091993612 L0.7576330440400376 0.19601331891987428 L0.7405798210400327 0.22670911991991005 L0.7056465530400295 0.24066175591990913 L0.6838390990400889 0.24278048991990175 L0.6440482460400894 0.2521855999199474 L0.6233776730400713 0.25435601091992766 L0.6034305700400502 0.2638127979199041 L0.5922684610400246 0.2862920459199003 L0.5680838910400361 0.36135206392000185 L0.5686006550400897 0.38398634091995376 L0.5810029990399563 0.40292575391989516 L0.6063244510400274 0.4188162559199142 L0.6371236040400028 0.42411309091996685 L0.7701130110400563 0.41551798691994435 L0.8494103880399884 0.4103929979199208 L0.879486071040052 0.4010137259198743 L0.9145226920400695 0.39558769991992193 L0.9520397830399681 0.3810407839199499 L1.0427125280400027 0.3717455619199299 L1.2022570680400442 0.3777334929199512 L1.310260812040017 0.4209091519198793 L1.3384153120400164 0.42432791291997063 L1.3536690150400013 0.426180147919915 L1.4383150110400074 0.4125117319199134 L1.4604325230400015 0.41563815591995734 L1.517483305040006 0.4398744029199335 L1.8671676280400824 0.5036178939199303 L1.8769445680400771 0.5054001189199298 L2.0542671830400003 0.499086917919918 L2.075795480040089 0.4983204479199159 L2.093055408039991 0.4944705529199709 L2.1487626020400263 0.46416232591993634 L2.1839025750400687 0.4559199349198977 L2.217698962040064 0.4588396529198846 L2.3793250200400315 0.5026811269199456 L2.4231644570400057 0.5145726849199477 L2.4701900110400494 0.5195336229199015 L2.6812365600400234 0.5087332489199454 L2.7991621780400386 0.5394032119198968 L2.92887002304008 0.5464570439198937 L2.969901111040034 0.5536917449199663 L3.002966571040023 0.5679465279198936 L3.0062813190400313 0.5693755419199178 L3.040594470040052 0.5886250129199411 L3.077181384039992 0.604050427919951 L3.120692940040019 0.60828789491989 L3.1436372760400424 0.6039470759199261 L3.1849784220399933 0.5905887179198928 L3.2000118310400616 0.5886230899199845 L3.206320789040067 0.5877981899199298 L3.2513826370400274 0.5896585419199241 L3.2741202680400114 0.587979057919874 L3.292620430040021 0.5809510629199721 L3.311430652040034 0.5776696089199831 L3.334064930040089 0.5705899389199587 L3.3554589720400863 0.5610556359199492 L3.371065254040051 0.5502035859199097 L3.3889453000400103 0.5409793429199041 L3.450509733040068 0.539556831919974 L3.4571581910400404 0.5394032119198968 L3.4987060420400304 0.5263290739199178 L3.5219604370400397 0.49842380091995864 L3.523820789040034 0.49467725891994263 L3.556893705040043 0.4698984099199137 L3.5868660360400817 0.45744438991990677 L3.633994942040065 0.4139586719199073 L3.6420564660400636 0.3997218149199213 L3.6515649290400383 0.38801710291993885 L3.771867664040034 0.3240158419199517 L3.779205717040046 0.3085645889199711 L3.7968790560400443 0.28928927891993084 L3.833776029040056 0.2594719779199224 L3.8682958870400377 0.24593275291993422 L3.9490144740399877 0.23084323391994843 L4.028079415040057 0.20572848791993437 L4.049897294040054 0.20341154491998026 L4.133352469040009 0.19454904891997415 L4.33173013104005 0.1734823949199651 L4.365319812040074 0.1649557829199395 L4.3853702670400345 0.16325046091989037 L4.394878731040027 0.16128675591993868 L4.414774157040032 0.15224337991997317 L4.426246326040033 0.1502279999199274 L4.471256498040052 0.1502279999199274 L4.507016589039981 0.14237318191990056 L4.6016878130400904 0.10180718291999113 L4.719096667040024 0.09322889391994948 L4.745038237040067 0.08129163891990032 L4.8177986530400325 0.1138477909199409 L4.923115222040028 0.12909233891999605 L4.944302559040015 0.13761894991991852 L4.968693835040032 0.1359653039198676 L4.970224254040094 0.13681897691989064 L4.986573881039991 0.14593885591997235 L4.981871326039997 0.16857313291992426 L5.0029036340400275 0.18588473791992755 L5.059230945040017 0.20526339991990739 L5.07111652404004 0.21306654091991817 L5.090443510040021 0.23761284691988038 L5.10139891303999 0.24324557791992873 L5.292084948039989 0.24205701991999007 L5.350996081040083 0.22856947091991486 L5.373837064040007 0.23446058391993319 L5.393680815040003 0.26479464991995627 L5.400076772040027 0.27108183291996824 L5.439259427039989 0.3095981169199362 L5.504888497040017 0.2979192429198676 L5.574031563040084 0.269703910919894 L5.62963540404002 0.265001355919928 L5.62963540404002 0.2651047089199423 L5.653406563040054 0.29394015791998385 L5.698571765040047 0.40899773391995353 L5.732368151040024 0.4282988819199076 L5.9388154990400075 0.49635674291987897 L6.152135811040072 0.5231251359199618 L6.29594155004003 0.5170594559199131 L6.293744284040034 0.5308127109199532 L6.290651836040016 0.6521912909199514 L6.293093242040019 0.665008673919921 L6.303265768040038 0.6825054189199378 L6.313438294040001 0.6946310699199572 L6.320274232039996 0.7056173979199585 L6.321088034040034 0.7201844559199131 L6.312136211040016 0.7458192209199197 L6.296022930040014 0.7775575019199223 L6.277875143040038 0.8044943509199598 L6.26273842504003 0.8158061999199404 L6.252565898040022 0.8197124499199404 L6.206179180040014 0.8518983229199435 L6.196820456040033 0.8615418769199223 L6.191449362040036 0.8740744289199043 L6.190716940040037 0.8914897939199378 L6.177045065040037 0.8776551589199144 L6.132123190040037 0.8594666819199475 L6.122520326039993 0.8536479969199391 L6.111371237040036 0.8440451329199519 L6.086224753040032 0.8365581529199417 L6.039186992040019 0.8300477369199157 L6.016726055040014 0.8333029449199572 L5.979128398040022 0.8473817209199197 L5.960736471039983 0.850555548919921 L5.89555092504003 0.8483582839199144 L5.874798971039983 0.850555548919921 L5.836387513039998 0.8667909009199448 L5.809125143040038 0.8943787909199514 L5.804567852040012 0.903086473919906 L5.748659648040022 1.0093690259199448 L5.735150534040034 1.0256043769199223 L5.717735169040001 1.0351258619199157 L5.649538555040014 1.0485535959199197 L5.638145326039993 1.0542909009199448 L5.631390768040038 1.0559998849199488 L5.621543763039998 1.0559998849199488 L5.621543763039998 1.0628358229199435 L5.656293112040036 1.0818381009199598 L5.66312905004003 1.0894878409199364 L5.661908346039983 1.1012065909199364 L5.642702617040019 1.1447450019199223 L5.628949362040036 1.1931662259199598 L5.621869284040034 1.2024842599199488 L5.613080221039983 1.2090760569199475 L5.605267721039983 1.2161968249199404 L5.601117331040033 1.2273459139199545 L5.602989076039993 1.2497254709199197 L5.617963034040034 1.2954611479199585 L5.621543763039998 1.3160503409199364 L5.616009909040034 1.3836772939199378 L5.621543763039998 1.3986512519199223 L5.601524232039996 1.4099631009199598 L5.601117331040033 1.4264019029199417 L5.609173971039983 1.4479676589199144 L5.614707826039993 1.4743348459199197 L5.614707826039993 1.5221050279199417 L5.612266419040001 1.5408631659199514 L5.609825013039998 1.547821173919921 L5.558636862040036 1.550018439919917 L5.50492592504003 1.5431825019199223 L5.460736471039983 1.5422873199199572 L5.45023842504003 1.5438335439199378 L5.443158346039983 1.5498556789199043 L5.43656655004003 1.5637716949199572 L5.433392721039983 1.5745952629199351 L5.434532044040001 1.5838319159199514 L5.441693503040032 1.5913595859199532 L5.457074362040036 1.5972596509199448 L5.430300273040022 1.6006776199199422 L5.386761862040036 1.6146343249199404 L5.36430092504003 1.61776746291995 L5.345990378040032 1.6293641429199184 L5.347943503040032 1.6556092599199488 L5.359011211040016 1.6835633619199157 L5.367718893040038 1.7002869949199422 L5.351605612040036 1.6946310699199572 L5.258425273040022 1.692840705919913 L5.229047018040038 1.7052918769199223 L5.216107565040037 1.7258810699199572 L5.209027487040036 1.75057996291995 L5.197715638039998 1.7754416169199558 L5.179811992040019 1.768768439919917 L5.170453268040038 1.7782085439199378 L5.17094155004003 1.793101121919939 L5.183229961040016 1.8027039869199157 L5.179649232039996 1.8096213039199043 L5.178672669040001 1.8147889479199435 L5.183229961040016 1.8300477369199157 L5.185996888039998 1.8225607579199519 L5.187461732039996 1.821258673919921 L5.186973451039993 1.8211366039199461 L5.183229961040016 1.81698621291995 L5.190228659040034 1.7964784009199448 L5.221478659040034 1.8210145339199144 L5.231732565040037 1.823211798919921 L5.243939596039983 1.8146668769199223 L5.251996237040036 1.8030701979199435 L5.262006003040032 1.798309455919913 L5.279584128040032 1.8101502759199448 L5.288617331040033 1.7998556789199043 L5.297162253040032 1.8011170729199435 L5.305300273040022 1.8068543769199223 L5.313112773040022 1.8101502759199448 L5.32719155004003 1.8071798979199585 L5.337038555040014 1.8024598459199197 L5.346966940040037 1.7996929189199378 L5.360882956040033 1.8027039869199157 L5.36039467504003 1.807830939919917 L5.359336732039996 1.8088075019199223 L5.357383607039996 1.8085633619199157 L5.354047018040038 1.8101502759199448 L5.359987773040022 1.8274435699199572 L5.369753398040022 1.8398133619199157 L5.385297018040038 1.8422547679199184 L5.40922280004003 1.8300477369199157 L5.411094544040001 1.8394471509199448 L5.416628398040022 1.8444520339199144 L5.425417461040016 1.8455913569199325 L5.43656655004003 1.8436382319199325 L5.43656655004003 1.8511252109199532 L5.430788555040014 1.8523866039199461 L5.415570456040033 1.8579611479199585 L5.422976055040014 1.8677267729199585 L5.427207826039993 1.8702088699199422 L5.43656655004003 1.8716330229199585 L5.427045065040037 1.8815614089199144 L5.425905742040019 1.8952332839199144 L5.431927878040032 1.909149298919921 L5.443402487040036 1.919403205919913 L5.457969544040001 1.9240418769199223 L5.469688294040001 1.9229432449199422 L5.482058086040016 1.9200135569199475 L5.498008607039996 1.919403205919913 L5.498008607039996 1.9256287909199514 L5.492149232039996 1.931121955919913 L5.491986471039983 1.9366151199199422 L5.496706523040022 1.9420269029199417 L5.505414206040033 1.9473573069199475 L5.480511862040036 1.9627381659199514 L5.468711732039996 1.9812928539199461 L5.473431784040034 1.9998475409199514 L5.498008607039996 2.014984259919949 L5.493614076039993 2.0176698069199475 L5.49320717504003 2.018687059919934 L5.49125405004003 2.022430548919921 L5.527305482039996 2.0399272939199378 L5.532839336040016 2.046356330919913 L5.537559388039998 2.053680548919921 L5.548952617040019 2.063324103919946 L5.562461732039996 2.0722352369199157 L5.573773581040033 2.0770366689199378 L5.571739076039993 2.0804139479199435 L5.568972148040022 2.0882264479199435 L5.566937643040038 2.091278205919913 L5.596641419040001 2.10409558791995 L5.604291159040034 2.1109722159199364 L5.621543763039998 2.1385194159199514 L5.675336081040033 2.1640321119199157 L5.681927878040032 2.1737163569199325 L5.690228659040034 2.182953009919949 L5.70414467504003 2.1862489089199144 L5.699994284040034 2.1972352369199157 L5.704877096039983 2.206593960919953 L5.714479961040016 2.214325080919913 L5.724571107039996 2.2204285959199197 L5.725140768040038 2.225433478919946 L5.72367592504003 2.2267762519199223 L5.720990378040032 2.226857632919952 L5.717735169040001 2.227874884919949 L5.729128398040022 2.2369487779199417 L5.736615378040032 2.2498882319199325 L5.737917461040016 2.2637635569199475 L5.731407044040001 2.275685757919952 L5.734336732039996 2.2857769029199417 L5.698571765040047 2.2798137739199476 L5.68348224704005 2.2761964239198775 L5.634596342040059 2.2804338919199196 L5.620953764040056 2.277281629919962 L5.594495430040045 2.267618135919939 L5.569794096040059 2.262889742919974 L5.560595691040053 2.262579683919988 L5.541578764040086 2.264853447919897 L5.537496325040056 2.26363905091997 L5.533517241039991 2.263199800919942 L5.529486478039988 2.26363905091997 L5.525559070040035 2.264853447919897 L5.522510160040017 2.2749045139199424 L5.522458483040001 2.288443738919902 L5.520288074040085 2.2982880989199757 L5.535842680040023 2.305471122919947 L5.532897123040019 2.3115431039199663 L5.520391427040014 2.315263806919994 L5.5073689660400795 2.315651379919892 L5.493726388039992 2.312214897919965 L5.441533191040012 2.290743339919935 L5.404636218040057 2.289735649919969 L5.326863188040054 2.3048510059199643 L5.32443439503999 2.3148245579199838 L5.32092039804002 2.3197079799199045 L5.3156494020400125 2.3197338179199036 L5.308104643040057 2.3154446739199486 L5.299939766040016 2.323454520919931 L5.289759509039957 2.3284929739199 L5.268313790040029 2.33412570491992 L5.269657377040009 2.336502820919968 L5.272447904040067 2.338001437919978 L5.2754968140400855 2.3392675089199244 L5.278235665040032 2.3406627729198917 L5.2750317260400585 2.3428331839199004 L5.268830554039969 2.3452361379199473 L5.266453438040035 2.3474582239199364 L5.280302722040009 2.3519023979199503 L5.263972969040058 2.3571733939199007 L5.250743803040056 2.3502745899198985 L5.2270243200400195 2.3251598439198844 L5.2118831260399965 2.3154963509199646 L5.138399239040044 2.284619682919974 L5.11442137404001 2.2690133999199347 L5.0924072140400405 2.249634737919955 L5.050032540040039 2.200903861919919 L5.022850736040031 2.180750053919944 L4.9909147020400475 2.1665907109198983 L4.955774727040026 2.160415377919911 L4.933967273040086 2.1627149789199436 L4.921358223039963 2.170208061919901 L4.899137357040022 2.1924547659199263 L4.89655353604002 2.196459688919923 L4.895726713040009 2.199973686919968 L4.891385893040027 2.2012655969199315 L4.867149645040033 2.196511364919921 L4.844773750040051 2.195762056919925 L4.833611641040026 2.196511364919921 L4.818212064040043 2.1872354459199173 L4.801262194040024 2.1799232309199326 L4.783072090039983 2.175634086919949 L4.765464837040046 2.1754181939199313 L4.764106840040032 2.175401542919893 L4.740180652040042 2.1844449189199437 L4.717959786040016 2.215528292919906 L4.698632800040034 2.225476005919994 L4.684731840040062 2.2298426639198894 L4.675791817040054 2.2401004369198674 L4.667626940040012 2.2521668829199584 L4.656464831039987 2.262114595919961 L4.647783191040023 2.263819918919914 L4.629024646040026 2.2615461559199943 L4.618637683040024 2.264853447919897 L4.6078889850400095 2.2729149699198885 L4.598690580040003 2.272811617919949 L4.589285470040043 2.2702019579199586 L4.578330065040067 2.2704345019199295 L4.567581368040042 2.275472953919966 L4.555460977040045 2.283118339919916 L4.545257149040058 2.289554781919911 L4.53698892004002 2.2926812069199443 L4.525981840040036 2.290459118919948 L4.507481677040008 2.2783926729199706 L4.498128243040075 2.2749045139199424 L4.486139311040009 2.2775658489199415 L4.464538562040051 2.2938439259198944 L4.454306629040051 2.2993733039198716 L4.4351346720400535 2.3010269499199225 L4.341135242040028 2.2892963989199515 L4.323255196040041 2.290924206919975 L4.307028796040047 2.299580008919939 L4.278193348040023 2.3226535369199937 L4.270855293040032 2.3267618129199192 L4.264654122040046 2.331438530919989 L4.260520007040018 2.337975598919961 L4.262277006039998 2.3419030079199317 L4.274369291039992 2.3475874159199677 L4.2773665240400796 2.3509980599198954 L4.276539701040068 2.3566049529199162 L4.272302234040016 2.3653899459199224 L4.271165353040093 2.3706351039199305 L4.270456649039975 2.3766945179199226 L4.269615059040067 2.3838901089199496 L4.265377592040043 2.402054374919878 L4.257109363039977 2.4203478319199334 L4.243673490040042 2.4340937629198933 L4.195924467040047 2.445049166919965 L4.093088367040028 2.4417160369199493 L4.051747221039992 2.4687944879200003 L4.037587878040032 2.492875704919861 L4.033867175040033 2.514579806919947 L4.040791817040091 2.534656099919907 L4.050920398040066 2.545301445919897 Z" fill="black" stroke="black" stroke-width="0.5" vector-effect="non-scaling-stroke"/></svg>