<svg xmlns="http://www.w3.org/2000/svg" viewBox="0 0 6.234639600299984 6.510064910579964"><path d="M0.6901811276499288 0.6283116737899697 L0.7089396726500397 0.6352363157899568 L0.7299719806499567 0.6348745807899583 L0.7507975836500052 0.6293452027899527 L0.7688843346500036 0.6208961057899565 L0.7875912026500131 0.6054706917899644 L0.7969963136499629 0.5994762247899423 L0.8226278236500306 0.5958847127899567 L0.8324205086499816 0.5923707147899115 L0.8411796626500561 0.5865829547899359 L0.8508431566499937 0.5786506227899828 L0.8747693446499838 0.5484715867899759 L0.8785933996500361 0.5408493117900015 L0.882107397649996 0.5300230997899611 L0.888618628649958 0.5245195597899688 L0.8960083576499684 0.5198686807899158 L0.9015894126499902 0.5119621867899617 L0.9035014406499826 0.4975702997899454 L0.9154386966499359 0.47739065378997125 L0.9022612066500457 0.46044078378996645 L0.9224150156500386 0.4562549927899262 L0.9445066896500336 0.44320669378997835 L0.9558496666500034 0.4266960737899872 L0.9438090576500358 0.4120199667899165 L0.9530591396500583 0.4074207647899506 L0.9575549886499957 0.40581879478992633 L0.9575549886499957 0.398971666789965 L0.9711975666499981 0.38783539678994217 L0.9800342366499919 0.3857683387899762 L0.9919198166500038 0.3872152787899701 L1.0008081626500243 0.3843730747899947 L1.005872452650003 0.3739085977899528 L1.0097998626499916 0.3615320917899858 L1.0154325936500115 0.35316051078992317 L1.0361548416500383 0.3498273807899075 L1.0720699626499979 0.371583158789921 L1.095427709650032 0.3737794067900104 L1.1055046146499805 0.3727717157899413 L1.1234621746500508 0.3730300987899149 L1.1324280356500012 0.3698003207899383 L1.1402311776500014 0.3626689737899973 L1.1640023356499896 0.33248993678990146 L1.178368383649989 0.3316631147899649 L1.189995581650031 0.33419525978995424 L1.199607397649963 0.3400088587899468 L1.208237361649985 0.34920726378993905 L1.2136633866500617 0.3608086227899925 L1.2144902106500055 0.3723066277899143 L1.2136633866500617 0.3828227817899723 L1.2143868576499628 0.39168529078998304 L1.2183659426500455 0.4016588427899883 L1.2351607826500057 0.4294866007899465 L1.2365560466500014 0.44033865078990075 L1.234075578650014 0.44992462978990844 L1.2354191656499935 0.45609996378998474 L1.248441625650024 0.4565650517899975 L1.257640030650002 0.45421377378996297 L1.2848218346500104 0.44408519279001624 L1.3075077886500637 0.44553213279001014 L1.3135022546499826 0.46085419478997736 L1.3071460526500616 0.5017044147899732 L1.3080245526500036 0.525785631789919 L1.3164478116499865 0.5381104607899694 L1.332880915649973 0.5423996047899386 L1.395822811649957 0.543743192789993 L1.475094457650009 0.5558096397899739 L1.5734863856500212 0.5830431197899664 L1.5903845786500241 0.5927324497899953 L1.6067143316499752 0.6117752157899794 L1.6215971436499999 0.6343319777900014 L1.639322160650032 0.6502483187899379 L1.6640751716500333 0.6494214967899161 L1.6874329186499821 0.6412049437899761 L1.708206843650025 0.6258828817900088 L1.7204541586500497 0.6047988967899762 L1.7182320726499754 0.5792707397899513 L1.7086719316499668 0.5682378217899533 L1.6955461176499895 0.5599179157899847 L1.6849524496500052 0.5509003777899473 L1.6827303636500162 0.5375420197899139 L1.7067082286500224 0.4580119917899914 L1.7185938066500555 0.44542877978998163 L1.7411247316500678 0.44196645878993834 L1.7978137786499744 0.4490461297899664 L1.8170890866500073 0.4464623087899646 L1.8759485436500185 0.4194355347899297 L1.8977559976500444 0.41726512379002045 L1.9196151286499727 0.42418976579000756 L1.957287247650008 0.4462556027899076 L1.9795081136500343 0.4486327187899555 L2.0024524496500007 0.4412688267899547 L2.0109273846499818 0.42927989478998896 L2.011573762650009 0.4244623587899987 L2.0158883216500314 0.3923054077899515 L2.0202291426500025 0.38494151578995073 L2.026792049649991 0.37724172778995424 L2.031908016649986 0.3684308957899596 L2.0320630446500374 0.357604682790015 L2.025861873650051 0.3502666297899317 L2.0152165286500505 0.3457449417899916 L2.0042094486499806 0.34243764978998925 L1.9967680426500394 0.33861359478996533 L1.9840556396499878 0.3191057417899579 L1.9822986416499973 0.30200084179000797 L1.9920654866500556 0.2698322637899686 L1.99702642365002 0.22433116479000503 L1.9942358966499611 0.2162954787899345 L1.9906185466500617 0.20937083778995103 L1.9887581946500674 0.2008700647899424 L1.9908769296499358 0.18244741678993037 L1.9956311606499284 0.16374054778994562 L1.997904923649962 0.16291372478992017 L2.0119609126500606 0.13940094878993037 L2.010669002650012 0.13614533278995467 L2.0327348386500077 0.1289623087899976 L2.045860652649985 0.13728221378996253 L2.066221166650017 0.17182790978994333 L2.0812590086499867 0.1853929727899306 L2.101774552649964 0.1991647417899749 L2.1422888756499887 0.22061046178999177 L2.1584635986499663 0.22608816378998497 L2.212878882649953 0.2367593457899808 L2.2338595136499677 0.2380512577899374 L2.2583541426500275 0.23371043678995207 L2.2770610106500087 0.22117890178995836 L2.2806266846499668 0.1978211547899953 L2.2731852786499402 0.188441882789963 L2.2607829346499884 0.18260244478996768 L2.249155737650021 0.17534190678999906 L2.2439880946499997 0.1615959757899681 L2.2458484456500045 0.12237356378999564 L2.252824763650004 0.10420929778996779 L2.270033015649993 0.09591522978992728 L2.29178879465001 0.09477834879000469 L2.3123043376499695 0.09803396378999096 L2.3381425546499983 0.09886078679001642 L2.357624568650003 0.08981741078996563 L2.3762797606500428 0.07713084679000204 L2.399844214649953 0.06702810478997279 L2.423873754649996 0.06382416578999894 L2.434002335650028 0.06956024978996211 L2.435397599650024 0.08343537178993543 L2.4303849856500435 0.1246990037899458 L2.433227189650033 0.13268301178999664 L2.4520890876500445 0.1394526247899428 L2.4629411386500166 0.14521454679000456 L2.472036189649991 0.1527593057899601 L2.475395158649995 0.16069163778992746 L2.4700724856500287 0.17255137878993665 L2.460047257650011 0.1784424927899444 L2.4491435306499554 0.1833775917899807 L2.4411853596499995 0.19231761479000298 L2.44697312065005 0.2061927367899763 L2.4498153246500394 0.21825918378995723 L2.4484717376499745 0.23006724778996457 L2.441908830649986 0.23836131578991981 L2.4236153736500157 0.2530632607899186 L2.418912817650032 0.26115062178991266 L2.4185510826499623 0.2762143027899988 L2.4238220786499696 0.27869477078997207 L2.43219366065005 0.2764726847899688 L2.4411853596499995 0.2775578897899642 L2.4463530026499924 0.282725533789975 L2.451675675650044 0.28972768978997365 L2.457411759649993 0.2956704787899902 L2.464181372650039 0.2976858597899401 L2.475653539650061 0.2959288617899638 L2.483715063649946 0.29561880278997776 L2.489554500650023 0.29915863778994733 L2.49405034964996 0.3089771597900075 L2.4923450286499857 0.3148941117899149 L2.4816480066499977 0.332903348789916 L2.479477595649989 0.34153331278995225 L2.482939917650036 0.3511451287899696 L2.499269669649969 0.3700845417900105 L2.484180151649973 0.4010904017899328 L2.481079565649928 0.4194872107899421 L2.495910701650068 0.4314503047899798 L2.4715194256500226 0.45832204978988855 L2.472036189649991 0.46178437078993184 L2.4744649826500265 0.4676754847899254 L2.4758602456500043 0.47426422879000896 L2.4736898366500313 0.4794835487899327 L2.4654732826500023 0.48250661978996234 L2.458703670649946 0.4799486367899597 L2.4539494386500493 0.4758145227899355 L2.4515206466500032 0.4742125527899965 L2.4391699786500496 0.48772593978997136 L2.4365344806500318 0.5012910027899586 L2.43984177265002 0.538368843789943 L2.4550346436499737 0.5352682577899834 L2.4658350176499866 0.5424512817899405 L2.4855237386500377 0.5661190877899749 L2.498959611650001 0.5744648317899426 L2.574510555650015 0.6010265177899647 L2.663910783650003 0.6004322387899954 L2.682721003650009 0.5821129437899266 L2.6946065836500495 0.5630185017899301 L2.7015312256500223 0.5416761357899311 L2.705096899650009 0.5166647417899419 L2.7168274496499905 0.5075696907899676 L2.763439591650034 0.5236668987899442 L2.775118465650017 0.5150110967899799 L2.7708809986499645 0.4602340777899947 L2.775015112650003 0.4420181347899508 L2.7865389566499275 0.42527497178990714 L2.801783504650068 0.41424205278991977 L2.8735620686500667 0.3768283157899397 L3.002288061650056 0.3487938517899245 L3.0580469316500043 0.34336782578995795 L3.0857971766500256 0.3363656697899451 L3.095460668649956 0.33605561078995905 L3.1081213946499915 0.3404222697899577 L3.130135554649989 0.3546591267899295 L3.1572656816500384 0.3648135457899748 L3.174732316650015 0.37473542078997824 L3.1923539796499867 0.3973696977900154 L3.2045496176499952 0.4225877967899727 L3.205686498650003 0.4399769167899912 L3.21989751764999 0.44514455978999834 L3.226822159650048 0.4463589557899361 L3.236072240650053 0.44677236678994703 L3.2420150316499914 0.4502863647899069 L3.2463558506499552 0.4584254027900023 L3.249766495649986 0.46736542578993934 L3.252867081650031 0.47343740678998714 L3.2636157796499603 0.48276500278993595 L3.277310034649979 0.4897413207899213 L3.2941048746500243 0.493823758789933 L3.3143103596500154 0.4945989047899424 L3.3190129156499992 0.49154999578991365 L3.322785294650025 0.485917264789979 L3.3265059976499387 0.4820415317900206 L3.3316736416500348 0.4843152947899547 L3.336066137650043 0.48720917578993195 L3.341337133649965 0.48808767478996984 L3.3527576256499785 0.48772593978997136 L3.3643331466500044 0.4850387657899411 L3.370637671650023 0.47881175578995183 L3.3757019616500017 0.4718871127899753 L3.3831950446500443 0.4672620727900103 L3.4000415616500206 0.46788218978997875 L3.4462919686499944 0.47462596479001107 L3.4622599856500287 0.47036265878995565 L3.5114042726499903 0.49896556378992685 L3.5203442956499984 0.4979837117899599 L3.527785701650025 0.4846770307899426 L3.5441671306499742 0.4860206177899222 L3.5599613746500367 0.4963190587899824 L3.5606519126499663 0.49676931579002215 L3.568041642649966 0.5116521277899757 L3.568041642649966 0.5665841757899024 L3.565431982650061 0.5720102017899684 L3.5616337646500185 0.5778237997899573 L3.5627706456500263 0.5822679727899676 L3.57494044664994 0.583353177789963 L3.5819942786499652 0.5810277387900165 L3.587937069649989 0.5759634487899525 L3.592510432650009 0.5694780557899897 L3.595430151650014 0.562863471789985 L3.5982465166499864 0.5834048547899648 L3.5896940676500364 0.6014916057899775 L3.589125626649995 0.6123694947899487 L3.61589401865006 0.6112584507899363 L3.6091244056500145 0.6292935267899402 L3.615118871650047 0.6394996217899127 L3.6403886476500347 0.6559585657899767 L3.6422489986500395 0.6638133827899289 L3.6188137376499796 0.6718490677899958 L3.6097445236499865 0.680143135789951 L3.618141943650066 0.6802464887899795 L3.6247048496500653 0.68226186878994 L3.6304667726500313 0.6849490437899597 L3.6369780036499932 0.6869644247900091 L3.6233612626500005 0.6931914347899983 L3.6315003006499964 0.7049478237899969 L3.642610734649928 0.7065497917899286 L3.654315445650006 0.7015630167899793 L3.6642631586500087 0.6931914347899983 L3.669327449649977 0.7112523477899124 L3.6800503096499924 0.7208383257900017 L3.6932019606500646 0.7270394977899919 L3.705320084649962 0.7347651247899911 L3.7165080326500046 0.7499838337899298 L3.7234326746499775 0.7683031287899134 L3.7196344566500485 0.7818165167899771 L3.6984471196500053 0.7825658247899874 L3.7029171316500182 0.7926944047899447 L3.7141309166499568 0.8071896447899753 L3.7250346436500124 0.8305990677899366 L3.726894994650017 0.8369294307899544 L3.7125289466500178 0.8779346797899912 L3.7137691816499725 0.8892776567899752 L3.7431730716500553 0.9163044317899285 L3.751828873649991 0.9193533407899572 L3.757487443650028 0.912842109789981 L3.7627584396499785 0.903824572789933 L3.7704582276500602 0.8992512087898952 L3.7818270426499723 0.9013957807899722 L3.7863487306499835 0.9060983357899524 L3.7897852136500134 0.9108008907899325 L3.7981051186499926 0.9128937867899971 L3.8215145426500428 0.914599108789961 L3.841384131650038 0.920851957789953 L3.8555693116499796 0.9333318157899448 L3.862287248650027 0.953847359789922 L3.8813816896499915 0.94777537778997 L3.889520727650016 0.9627873827899585 L3.894429988650039 0.9854733357900081 L3.9039384526500314 1.0022940147899853 L3.88794459664998 1.0079525837899332 L3.8794438236499715 1.0091928177899554 L3.869728654650025 1.0085210247899745 L3.869728654650025 1.0159624307899016 L3.8786170006499603 1.0238430867899417 L3.8805290286500664 1.0277704957899125 L3.883397070650055 1.0358061807898942 L3.8966520756499605 1.0319304487899394 L3.9098812426500373 1.0529369177899532 L3.9250741126500586 1.0500947137899779 L3.9193897056499267 1.0449787477899868 L3.9177102216499904 1.0403537067899329 L3.9212500566499315 1.036994738789918 L3.931197770650037 1.0358061807898942 L3.9415072186499387 1.037149767789959 L3.9465198326500044 1.0406637657900042 L3.949827123650003 1.0460639527899822 L3.955459854650023 1.0531953007899268 L3.967035376650067 1.063453071789997 L3.9707560796499806 1.0699901407899723 L3.972203018649985 1.0805321327899442 L3.9743734296499653 1.0882060827899274 L3.9797477786500153 1.0923918737899676 L3.9932353266499874 1.09789541378996 L3.998299617649984 1.103579821789996 L3.998041235650014 1.1074555547899543 L3.998764705650011 1.1082307007899637 L4.006929581650006 1.1047167027899185 L4.015016943650004 1.099445707789986 L4.021579850649992 1.0927019327899536 L4.025119685650047 1.0867591427899335 L4.024034481650055 1.0842269977899441 L4.03873642665004 1.0842786747899602 L4.051112931650032 1.0825991907899954 L4.062895157650011 1.0764496947899325 L4.075814266650035 1.0631430137899294 L4.087131405650005 1.0724706087899598 L4.1015232906500145 1.093787137789949 L4.113124650649972 1.09789541378996 L4.1276457276500125 1.0938388137899615 L4.131418107650028 1.0835035277899472 L4.131883195650055 1.0700418177899031 L4.136792455650003 1.0562958857899538 L4.13994471864995 1.049526273789926 L4.140745702650058 1.0455988647899552 L4.143897965650034 1.0436868367899343 L4.162062231649962 1.0436868367899343 L4.16989121164999 1.0452371297899568 L4.175885676650033 1.0482860387899855 L4.1782369556499575 1.0531953007899268 L4.176014867650046 1.070403552789987 L4.16619634565 1.096293444789925 L4.163922582649967 1.1146127407899975 L4.178133602650028 1.1352833127899267 L4.210638077650053 1.1385389287899166 L4.246475683649997 1.136833605789949 L4.270737768650001 1.1425696897899975 L4.279677791650009 1.1571682817899678 L4.288256078649958 1.190008654789981 L4.294974015649977 1.2008865437899523 L4.308668270649996 1.2073460977899977 L4.312027237650021 1.1983285607899496 L4.311820532650039 1.1819212927899834 L4.314817764649966 1.1661341427900034 L4.33016566664994 1.1702682577899317 L4.3572957926499996 1.1814045287899582 L4.357366772650032 1.1813216257899377 L4.363910375650015 1.173678901789959 L4.376855322650037 1.1485899947899334 L4.3793616286499955 1.1360067827900089 L4.37639023465001 1.1123906537899906 L4.376545263649938 1.103579821789996 L4.3820488046499335 1.0944589317899336 L4.412331193650054 1.0630396607899861 L4.400652319649986 1.0591639277899425 L4.39620814565 1.0582854287899899 L4.409514827650007 1.0463740107899646 L4.426748917649995 1.0402503537899896 L4.46442103665003 1.0354444457899952 L4.482869523650031 1.025341702789948 L4.511549942650014 0.9854733357900081 L4.529585018650032 0.9720116247899604 L4.546793269650003 0.9698928917899856 L4.603689021649977 0.9865068647899911 L4.614127661649995 0.9922171097899515 L4.619967098649987 0.9940257847899439 L4.626168269650059 0.9926821977899785 L4.62813197465001 0.987953804789985 L4.6284937096499945 0.9827344847899759 L4.629527237649988 0.9799956337899296 L4.644875138649944 0.9726834187899449 L4.653169205650009 0.9699962447899146 L4.685234432650013 0.9695311567899871 L4.6915906326500405 0.9555010047899692 L4.695802262649998 0.9391454147900227 L4.710659236650024 0.9313164347899949 L4.732104956650055 0.925942085789945 L4.769751237649977 0.9018091917899831 L4.788219132649992 0.8964022407899854 L4.7901375896500085 0.8958405637899638 L4.8563609376500025 0.8946003297899274 L4.875584570650027 0.8889159217899767 L4.884085343650035 0.882637235789975 L4.90010503765 0.865609850789955 L4.910233618650032 0.8589694297899406 L4.924806371650014 0.8544219027899125 L4.973382218650009 0.8484791137899954 L4.980849463650024 0.8495126427899784 L4.993897761649997 0.8568506957899622 L5.000202286649987 0.8580909307899169 L5.005524959650039 0.8550420207899698 L5.014800878649957 0.8436990437899006 L5.018185685649989 0.8413736047899683 L5.031673234650036 0.84571442478995 L5.039295508650007 0.8529232877899098 L5.045832576650007 0.8610623257900052 L5.056503759650006 0.8685554077899447 L5.073582820650039 0.8721210817900165 L5.133372452649972 0.8641629107899611 L5.2906755126500045 0.8770561807899533 L5.303284562650042 0.8818104127899495 L5.320828710649998 0.8978042677899971 L5.331499894650015 0.9033078087899931 L5.340594946650064 0.9002072227899482 L5.352325496649961 0.8929983597899884 L5.362660782649975 0.8889675987899928 L5.367104956649989 0.8957888867899477 L5.366278133649978 0.9157359907899725 L5.368035131650025 0.9361740197899202 L5.378112035649984 0.9491706417899515 L5.401986547649976 0.9468452027899197 L5.415784155650009 0.9332284627900158 L5.449606380650003 0.8855827927899789 L5.465083471650011 0.8746790647899196 L5.47727910965002 0.8820687947899195 L5.477615006650005 0.9013441037899561 L5.475444596650014 0.9249343947899611 L5.479837092650023 0.9449331747899983 L5.497277888650039 0.9551392697899708 L5.519731298650036 0.9556043577899977 L5.542908178650059 0.9607720007899054 L5.5629327966499815 0.9850082477899811 L5.575464330649986 1.0331706827899758 L5.585282853649964 1.0564509157899984 L5.602749487650009 1.070894477789924 L5.620784562650009 1.0717471397899523 L5.655201066649958 1.0616960737899355 L5.674166316650023 1.066140245789942 L5.6898501146499925 1.081875719790009 L5.702019913649984 1.105130114789933 L5.71995163564997 1.1516905807899782 L5.769690201650057 1.2475761997899362 L5.869425716649964 1.3791960737899025 L5.892240860649984 1.3965851927899173 L5.9161670486499744 1.3984197067899267 L5.934925594649961 1.3821933057900004 L5.959368546650005 1.331085315790009 L5.990632788649997 1.3015780727899973 L6.004172013649985 1.3185796177899256 L6.005257218649966 1.3328164747899827 L6.00117477965005 1.3647525107899732 L6.002466691650021 1.3725298137899848 L6.007427628649957 1.3892988167899354 L6.007427628649957 1.4162739137899685 L6.0023116616499905 1.4333012977898996 L5.990426082650053 1.4407685417899252 L5.976783504649937 1.4470472287899305 L5.966499894650035 1.4603797487899506 L5.964846248649984 1.4792416467899763 L5.972701065650021 1.4946670607899684 L5.9868604086499815 1.504976509789973 L6.004327043650015 1.5088005647899116 L6.020036678649994 1.5174046907899488 L6.0186930916500145 1.536395779790002 L6.0067558346499865 1.5554127077899729 L5.975026505649957 1.571897488789947 L5.963347631650002 1.5900359177899794 L5.945932674650059 1.6254601107899056 L5.924641984650059 1.6471642127899067 L5.920456193650033 1.6554841187899605 L5.918544164650022 1.70550690478996 L5.914410050649984 1.7211907027899152 L5.905004939650034 1.735324206789958 L5.914771785649997 1.7408277467899502 L5.92117966365003 1.7474423297899513 L5.929034481649971 1.7528941937899312 L5.942883764650013 1.7551679567899505 L5.968515274649995 1.7564081907898874 L5.993785050649954 1.7620409217900068 L6.019054825650009 1.7753992797899407 L6.025514379649984 1.7914706507899218 L6.026547908650052 1.8119086787899654 L6.042154191650006 1.858830879790009 L6.048096980650023 1.8633267287899322 L6.054814917650042 1.8643085817900023 L6.06039597264995 1.866685696789947 L6.062669734649965 1.8752898227899841 L6.063909969650005 1.8924722367899598 L6.084270483650037 1.9622354207899129 L6.0831852786499425 1.975903836790014 L6.072591610649987 1.9817432737899203 L6.065201879649969 1.9883836957900094 L6.062618058650052 2.001121935789971 L6.06746208065001 2.008981114790007 L6.067682348650031 2.0093384887899113 L6.076725724649997 2.0051526977899705 L6.081479956649979 2.020836494789936 L6.127497819649982 2.300935676789937 L6.173515682649985 2.5810348587899377 L6.16664271665001 2.5962794067899786 L6.121735896650016 2.6226085487899446 L6.108093319650003 2.627181913789972 L6.096569474649975 2.625967517789949 L6.083857071650037 2.6200247267900245 L6.075588842649999 2.6195079627899 L6.069180965650041 2.62545075278992 L6.0622046476500415 2.638809110789939 L6.057967179649999 2.65457042278992 L6.06039597264995 2.667205309789953 L6.073625138650037 2.6959890827899677 L6.080084692650011 2.7199152717899757 L6.079154516649957 2.7373560667899177 L6.06928431864997 2.75030101378994 L6.048665421650064 2.7607138147899555 L5.988979141649956 2.7805575637899587 L5.9705823326500465 2.793580025789982 L5.92495204264997 2.8459282517899176 L5.908622289650019 2.8595708287899306 L5.907227026650041 2.856366889789957 L5.902162735649959 2.85068248278991 L5.8954964766500595 2.8462899867900013 L5.88921778965004 2.8470134557899094 L5.886298071650053 2.8543515097899963 L5.881957250649968 2.9290239547899013 L5.8786499596499695 2.9400827107898984 L5.870691789650003 2.9486093217900056 L5.848445085649978 2.9619418417900256 L5.83984095965004 2.970055041789937 L5.839014135650011 2.9750676547899992 L5.841933854649987 2.9880384397899356 L5.841675471650028 2.9934644657900016 L5.837825578649976 3.000027372789976 L5.82777451164997 3.0121713337899827 L5.823898779649987 3.0187342407899713 L5.751680965649989 3.1726266567899764 L5.738322607650041 3.2131409787899834 L5.6893850266499655 3.519633898789966 L5.690315201650002 3.5313644487899474 L5.69661972665002 3.54531708578995 L5.703311824650022 3.553585314789988 L5.707755997650047 3.5616985147898994 L5.707032528650039 3.5753410927900013 L5.698144181650029 3.5947714307899794 L5.652307186649971 3.651873888789897 L5.6472428956500025 3.6619507937899307 L5.638974666649965 3.711973580789934 L5.633910375649968 3.719053250789944 L5.584378516650013 3.735124621789925 L5.58325114365001 3.735825364789992 L5.582569652650015 3.736248960789954 L5.570245011649995 3.743909614789903 L5.454903214650038 3.9409001747899346 L5.438160050649991 3.979399116789981 L5.4367647866500235 4.0155467817899115 L5.441105607649995 4.025675361789954 L5.45361130365 4.041720894789922 L5.467098852650047 4.067636624789959 L5.469424291649993 4.074302884789976 L5.449787247649958 4.129183255789986 L5.444361222649967 4.135720324789961 L5.425938574649983 4.145874743789921 L5.418729712650013 4.156365058789962 L5.417334448649932 4.17315989978994 L5.496244360649989 4.5263941527899085 L5.5081218756499695 4.5407176477899505 L5.511049658649988 4.5442483597899646 L5.540479386649984 4.57101675178993 L5.561770076649985 4.626827298789994 L5.59207830365002 4.793612983789917 L5.606599381649964 4.829347236790017 L5.64512416165001 4.899601346790011 L5.657319799650047 4.935800687789953 L5.659877783650039 4.971948351789965 L5.650085099649964 5.086049914789971 L5.715042375650022 5.080520536789965 L5.704939632649989 5.143023180789957 L5.710339819650038 5.168861397789971 L5.733981787650059 5.182013048789944 L5.753541316649994 5.179584257789987 L5.786097469650024 5.159947212789948 L5.802349706649942 5.153487658789988 L5.873585668650001 5.171806953789972 L5.886401424649982 5.182168078789989 L5.8942562416500195 5.195268053789949 L5.898028621650035 5.211416938789942 L5.900405737649997 5.263816841789964 L5.918130753650011 5.33538869978992 L5.945415910650006 5.39915741778994 L5.949705053649971 5.417140815789939 L5.947172908649996 5.4345816117899695 L5.937251033649993 5.447164823789979 L5.923970190650003 5.449593615789954 L5.89027715765004 5.4434441197899766 L5.883714250649966 5.505326647789904 L5.886556453650023 5.519201769789962 L5.9005090906500115 5.5392263877899985 L5.9049532636500075 5.5507243937900235 L5.904436498649993 5.559276843789949 L5.9001990316500255 5.580179959789934 L5.901025854650037 5.589300849789996 L5.904178117650012 5.592763171789944 L5.917355607649988 5.604002795789999 L5.922833309649995 5.610436510789956 L5.913221493649978 5.6292725707899685 L5.898958797650003 5.6394269897899285 L5.875988623650038 5.642734281789931 L5.836145069649994 5.641187033789993 L5.83366297365 5.613314312789942 L5.80045984865 5.608960471789988 L5.75944422365 5.613802593789945 L5.733158415649989 5.613232932789959 L5.741377816650008 5.633374533789993 L5.73633224364999 5.65351613578996 L5.721846566650008 5.66914113578996 L5.702071176650001 5.6753260317899965 L5.686446176650001 5.670768739789981 L5.633549040649989 5.646191916789963 L5.617028858649967 5.633659364789981 L5.597090707650004 5.639233908789993 L5.557458546649961 5.640332541789963 L5.54069422365 5.6479822817899965 L5.533003793649975 5.628980002789991 L5.517378793649975 5.606152854789958 L5.498946176650001 5.58710988578996 L5.482954965649974 5.579134625789994 L5.474776254650003 5.571647645789984 L5.485518441650008 5.55585988578996 L5.501021371649976 5.541455588789962 L5.507124887649972 5.538119000789994 L5.511885629650003 5.523999533789993 L5.514815316650008 5.494417828789995 L5.520756072649981 5.482861838789962 L5.534468637649972 5.474316916789963 L5.545088754650003 5.471712750789994 L5.551924691650008 5.465405783789993 L5.55436609865 5.445671083789978 L5.552087452649964 5.430697125789994 L5.545414275649982 5.423535666789963 L5.533776905649965 5.421460471789988 L5.517093962649987 5.421460471789988 L5.512455290649989 5.423657737789984 L5.506514535650005 5.4285405497899895 L5.499108936649968 5.433464052789976 L5.490075733649967 5.435661317789982 L5.481734262649972 5.4343999247899895 L5.468021697649981 5.428825380789977 L5.459314014649969 5.428255718789945 L5.449629770649999 5.431673687789942 L5.430424040649989 5.44493866178998 L5.417769418649975 5.449414573789955 L5.427779184649971 5.4722010317899965 L5.432906137649972 5.492708843789945 L5.425541228649983 5.506706239789981 L5.397220915649989 5.510124208789978 L5.401656137649972 5.517773948789955 L5.401656137649972 5.524854026789956 L5.397709197649981 5.531567893789987 L5.390425668649975 5.538119000789994 L5.399580941650008 5.54414113578996 L5.404056853649983 5.5455245997899745 L5.397220915649989 5.5455245997899745 L5.406783090649974 5.549146018789987 L5.417036996649976 5.551465354789958 L5.427819874649963 5.552441916789963 L5.438887582650004 5.551790875789994 L5.438887582650004 5.558626812789942 L5.429447478649983 5.562939963789962 L5.414147999649963 5.5615971907899855 L5.404056853649983 5.564811708789978 L5.395552621649976 5.571240744789964 L5.387862191650008 5.579785666789963 L5.381514535650005 5.589632671789946 L5.376794483649967 5.600171408789993 L5.366255746649976 5.593050640789944 L5.359134978649983 5.596794130789977 L5.360843962649987 5.605501812789942 L5.376794483649967 5.613232932789959 L5.370853728649983 5.626538596789988 L5.376753793649975 5.634595237789984 L5.389327035650005 5.638949078789995 L5.404056853649983 5.641187033789993 L5.367679900649982 5.670361838789962 L5.301802621649976 5.667106630789977 L5.047855681649985 5.613232932789959 L5.001306202649964 5.610466005789977 L4.969730681649985 5.604199729789958 L4.961836801650001 5.601595562789942 L4.958418832650004 5.596468609789941 L4.960209197649981 5.587191265789944 L4.96256922365 5.580111187789942 L4.96094161864999 5.573275250789994 L4.950972543649975 5.564811708789978 L4.958418832650004 5.551790875789994 L4.948164926650001 5.560254416789963 L4.940189665649989 5.573193869789964 L4.934615121649976 5.587598166789963 L4.931807504650003 5.600171408789993 L4.924320525649982 5.600171408789993 L4.912357634649986 5.5932947817899965 L4.892989145649999 5.5913416567899965 L4.85233973064998 5.592725119789964 L4.838952686649968 5.589144390789944 L4.793990121649976 5.564811708789978 L4.724043832650004 5.5557378157899855 L4.692793832650004 5.546338401789956 L4.677901254650003 5.523796083789978 L4.696455941650008 5.529980979789958 L4.717533415649989 5.527865093789945 L4.73600672365 5.518506369789964 L4.74687098064998 5.503369651789956 L4.76139734865 5.521313987789984 L4.768558806649985 5.528434755789977 L4.776940967649971 5.531323752789991 L4.783492074649978 5.528760276789956 L4.786177621649976 5.522819520789984 L4.784997608649967 5.515820823789955 L4.780318246649976 5.510124208789978 L4.780318246649976 5.503369651789956 L4.794112191650008 5.506421408789993 L4.828658090649974 5.520540875789994 L4.835534717649971 5.52070363578996 L4.84570724364999 5.517448427789976 L4.868208871649976 5.5261967997899895 L4.904463754650003 5.5455245997899745 L4.902103728649983 5.539095562789942 L4.90039474364999 5.529126487789984 L4.897627816650008 5.523796083789978 L4.913171436649968 5.5242436747899895 L4.940026905649965 5.527905783789993 L4.950972543649975 5.523796083789978 L4.964156137649972 5.508008323789955 L4.957930551650001 5.499300640789944 L4.945072478649983 5.491772971789988 L4.937992400649982 5.479769390789944 L4.926517790649989 5.44648488578996 L4.924320525649982 5.431958518789987 L4.920943246649976 5.424105328789995 L4.912601775649982 5.4187749247899895 L4.901696827649964 5.4175135317899965 L4.890873259649986 5.421460471789988 L4.884322152649979 5.417106630789977 L4.874922738650007 5.414339703789995 L4.866540577649964 5.415885927789976 L4.862878467649971 5.424837750789994 L4.865808155649965 5.4304936747899895 L4.887129770649999 5.445671083789978 L4.912439014649969 5.47968801078996 L4.927494353649983 5.49571991178998 L4.944828337649987 5.503369651789956 L4.935876514649969 5.516309104789958 L4.920414275649982 5.514925640789944 L4.903568572649981 5.5112635317899965 L4.890873259649986 5.517611187789942 L4.883345590649974 5.517611187789942 L4.870853728649983 5.502515158789993 L4.861495004650003 5.498608908789993 L4.851159717649971 5.4990971907899855 L4.835534717649971 5.4971440657899855 L4.824955290649989 5.493441265789944 L4.813155160650005 5.486686708789978 L4.803959197649981 5.476880393789987 L4.801436410650005 5.463656109789941 L4.796675668649975 5.468091330789992 L4.79069422365 5.472526552789976 L4.787845915649989 5.476676942789982 L4.783695525649982 5.468457541789963 L4.781009978649983 5.460645041789963 L4.779789275649982 5.452262880789977 L4.780318246649976 5.441927593789945 L4.773522999649963 5.441927593789945 L4.772139535650005 5.456006369789964 L4.76725672365 5.468091330789992 L4.758874561649968 5.474072776789956 L4.74687098064998 5.469841005789977 L4.739099171649961 5.475700380789977 L4.72819422365 5.4773686747899895 L4.716312712649987 5.475374859789941 L4.705245004650003 5.469841005789977 L4.681888884649986 5.4734624247899895 L4.670495655649965 5.476676942789982 L4.680220590649974 5.485669455789992 L4.695845590649974 5.489372255789977 L4.712406462649987 5.488355002789991 L4.725101775649982 5.482861838789962 L4.739302621649976 5.4971440657899855 L4.725996957650004 5.507397971789988 L4.708825733649967 5.517285666789963 L4.690759327649964 5.521191916789963 L4.674239145649999 5.513867698789955 L4.661706592649971 5.5066655497899895 L4.639815316650008 5.4968999247899895 L4.618941293649975 5.490755718789945 L4.609623259649986 5.493726096789988 L4.601322478649983 5.502515158789993 L4.582930551650001 5.497632346789988 L4.55436609865 5.482861838789962 L4.541101124649963 5.486890158789993 L4.530440316650008 5.493726096789988 L4.519698129650003 5.4968999247899895 L4.505944874649963 5.490308127789991 L4.500166879650003 5.496126812789942 L4.493656462649987 5.496208192789982 L4.486576384649986 5.491488140789944 L4.47929285564998 5.482861838789962 L4.452071176650001 5.501253765789944 L4.438806202649964 5.506380718789945 L4.424076384649986 5.503369651789956 L4.426070199649978 5.498812359789941 L4.428959197649981 5.487337750789994 L4.430912322649981 5.482861838789962 L4.405277556649985 5.477897645789984 L4.39420984865 5.479769390789944 L4.38249109865 5.490308127789991 L4.375044809649971 5.4834721907899855 L4.36601160564998 5.479077658789993 L4.358402556649985 5.4793217997899895 L4.352217660650005 5.495068869789964 L4.336348520649999 5.507682802789976 L4.328536020649999 5.517611187789942 L4.321374561649968 5.510286968789945 L4.30937098064998 5.501091005789977 L4.29655359865 5.493278505789977 L4.287439014649969 5.490308127789991 L4.276940967649971 5.495964052789976 L4.266442921649961 5.505241395789984 L4.256026254650003 5.508740744789964 L4.245935108649967 5.4971440657899855 L4.248946176650001 5.494906109789941 L4.250166879650003 5.494661968789945 L4.251143441650008 5.493929546789946 L4.253340707650004 5.490308127789991 L4.216312712649987 5.492057802789976 L4.202152556649985 5.498975119789964 L4.198164926650001 5.517611187789942 L4.207686410650005 5.512809755789977 L4.216068572649981 5.514193218789945 L4.222456918649975 5.52070363578996 L4.226119027649979 5.531323752789991 L4.207076059649971 5.526929221789988 L4.136071827649964 5.523796083789978 L4.132165577649964 5.5142745997899745 L4.127364145649999 5.505811057789959 L4.116215056649985 5.490308127789991 L4.110518441650008 5.499870302789976 L4.11015223064998 5.507764182789959 L4.114302621649976 5.513786317789982 L4.122359262649972 5.517611187789942 L4.122359262649972 5.523796083789978 L4.104333546649961 5.527295432789959 L4.090661671649961 5.533724468789945 L4.067712452649964 5.551790875789994 L4.049239145649999 5.539746604789958 L4.027876840649974 5.541130067789982 L4.009281462649987 5.549593609789941 L3.999556527649979 5.558626812789942 L3.992679900649982 5.558626812789942 L3.98600672365 5.555697125789994 L3.9773804216499613 5.55040741178998 L3.9696493016500014 5.54414113578996 L3.9653768406499736 5.538119000789994 L3.977054900649982 5.532910666789963 L3.986820525649982 5.534049989789981 L3.99772547365 5.537305198789955 L4.012536671649961 5.538119000789994 L4.010420785650005 5.528434755789977 L4.007246957650004 5.522249859789941 L4.001713103649983 5.518913270789984 L3.992679900649982 5.517611187789942 L3.992679900649982 5.510124208789978 L4.002933806649985 5.50548553678998 L4.00944422365 5.498405458789978 L4.012536671649961 5.488843283789993 L4.012536671649961 5.476676942789982 L4.006392465649974 5.476676942789982 L3.9940633636500067 5.499707541789963 L3.9773397306499803 5.511995953789995 L3.956221566650008 5.51679738578996 L3.9305868016500014 5.517611187789942 L3.9576864106500054 5.538037619789964 L3.9376668796500027 5.5557378157899855 L3.9004761246499626 5.571403505789977 L3.8760213716499763 5.585889182789959 L3.8697957856500054 5.600374859789941 L3.8712606296500027 5.609814963789962 L3.880293832650004 5.615796408789993 L3.89648849364999 5.619987489789981 L3.9143921396499692 5.620964052789976 L3.9321737156499736 5.617952984789941 L3.9423869316499847 5.61095428678998 L3.9374227386500067 5.600171408789993 L3.9374227386500067 5.592725119789964 L3.962691293649975 5.585889182789959 L3.975101775649982 5.578971864789981 L3.9795369966499763 5.583569846789988 L3.9844604996499626 5.590120953789995 L3.992679900649982 5.592725119789964 L4.005049691650008 5.589632671789946 L4.025313363650007 5.5808842997899895 L4.040450082650004 5.579134625789994 L4.071537322649981 5.579134625789994 L4.080977426650001 5.5811284407899855 L4.087325082650004 5.585522971789988 L4.091638233649967 5.590161643789987 L4.095056202649964 5.592725119789964 L4.109908090649974 5.5948003157899855 L4.120284066650008 5.593335471789988 L4.143477426650001 5.585889182789959 L4.133142139649969 5.58710988578996 L4.121016488650007 5.586133323789955 L4.111495004650003 5.5815760317899965 L4.108809457650004 5.572298687789942 L4.11491297365 5.567090354789958 L4.149703012649972 5.558626812789942 L4.149703012649972 5.572298687789942 L4.157149301650001 5.572298687789942 L4.179244027649979 5.5615971907899855 L4.238203988650007 5.5652592997899895 L4.267012582650004 5.551790875789994 L4.271773324649978 5.566683453789995 L4.279545134649986 5.560620627789991 L4.287764535650005 5.546745302789976 L4.294274952649964 5.538119000789994 L4.312585499649963 5.5386072817899965 L4.328169809649971 5.545931500789994 L4.342085824649978 5.5494308497899745 L4.35514734865 5.538119000789994 L4.374027556649985 5.5457280497899895 L4.393558806649985 5.542432151789956 L4.413578337649987 5.535270692789982 L4.454634652649979 5.5279464747899745 L4.480269418649975 5.513460796789946 L4.496016488650007 5.510124208789978 L4.619388884649986 5.506950380789977 L4.650638884649986 5.517611187789942 L4.641280160650005 5.521924338789962 L4.631270395649999 5.524121604789958 L4.620650277649979 5.52460988578996 L4.609623259649986 5.523796083789978 L4.684086150649982 5.558626812789942 L4.371708220649985 5.584098818289949 L4.059330290649989 5.609570823789955 L3.8951864106500054 5.646354677789976 L3.804488168649975 5.654085796789946 L3.7871948746499626 5.6616541567899965 L3.7763713066499847 5.655957541789963 L3.7646525566499847 5.65392303678998 L3.710738168649975 5.652905783789993 L3.6978394056499653 5.654167177789976 L3.6978394056499653 5.6479822817899965 L3.7010946136500067 5.647738140789944 L3.7076864106500054 5.648267112789984 L3.7108602386500067 5.6479822817899965 L3.7108602386500067 5.641187033789993 L3.682784066650008 5.641553244789964 L3.6760701996499776 5.6297124247899895 L3.6765584806499803 5.611523948789955 L3.66992599364999 5.592725119789964 L3.682784066650008 5.577507020789984 L3.6700887546500027 5.574251812789942 L3.6155640146499692 5.581087750789994 L3.597701059649971 5.586702984789941 L3.581140186649968 5.595532737789984 L3.567549691650008 5.607007346789988 L3.550826059649971 5.5926030497899895 L3.521976775649982 5.578076682789959 L3.4884481296500027 5.571077984789941 L3.4582560726499807 5.579134625789994 L3.4543905126499723 5.5748214747899745 L3.447513884649986 5.56953176078996 L3.445804900649982 5.567253114789981 L3.4440145356500054 5.564811708789978 L3.4377889496499776 5.564811708789978 L3.4268026216499763 5.576204937789942 L3.4089803556499803 5.5709152247899745 L3.3899373876499723 5.562573752789991 L3.375044809649971 5.564811708789978 L3.3689006036499833 5.564811708789978 L3.3583211766500014 5.5600916567899965 L3.3525838716499763 5.564242046789946 L3.3516479996499626 5.57384491178998 L3.3558797706499988 5.585889182789959 L3.3527873226499807 5.5847905497899895 L3.3415568536499833 5.579134625789994 L3.3420858246499776 5.589632671789946 L3.3415568536499833 5.592725119789964 L3.3497762546500027 5.590405783789993 L3.3513224786499833 5.593457541789963 L3.3553914886500067 5.599520367789967 L3.3558797706499988 5.600171408789993 L3.3628784676499706 5.596143088789962 L3.368330941650008 5.594515484789941 L3.38249109865 5.592725119789964 L3.38249109865 5.600171408789993 L3.3748413586499666 5.608675640789944 L3.3514038586499666 5.620231630789977 L3.3415568536499833 5.626823427789976 L3.3415568536499833 5.607007346789988 L3.327315316650008 5.648470562789942 L3.3204793796500027 5.6616541567899965 L3.2869507336499666 5.613232932789959 L3.2794637546500027 5.613232932789959 L3.2790568536499833 5.616325380789977 L3.2794637546500027 5.626823427789976 L3.2659139496499776 5.619987489789981 L3.2808472176499706 5.648307802789976 L3.32194422365 5.666781109789941 L3.3710164886500067 5.672152203789995 L3.4104451996499776 5.6616541567899965 L3.3943726086499666 5.649528505789977 L3.3774862156499736 5.649854026789956 L3.3597046396499692 5.652661643789987 L3.3415568536499833 5.6479822817899965 L3.3415568536499833 5.641187033789993 L3.3517293796500027 5.64179738578996 L3.3599080906499736 5.640495302789976 L3.3672729996499626 5.637728375789994 L3.375044809649971 5.633659364789981 L3.3803752126499873 5.629346213789962 L3.3929891456499988 5.616244000789994 L3.3967733246499776 5.613232932789959 L3.4117065926499706 5.616569520789984 L3.428226775649982 5.624870302789976 L3.4443807466499763 5.628980002789991 L3.4582560726499807 5.619987489789981 L3.470503793649975 5.627474468789945 L3.4827108246499776 5.630160015789944 L3.4929240406499886 5.6260503157899855 L3.499190316650008 5.613232932789959 L3.4808797706499988 5.615918479789958 L3.4728231296500027 5.607861838789962 L3.4660685726499807 5.59728241178998 L3.451420134649986 5.592725119789964 L3.451420134649986 5.585889182789959 L3.465092009649986 5.592725119789964 L3.4984578956499988 5.587964377789991 L3.559086150649982 5.623324078789995 L3.5848836766500014 5.616569520789984 L3.5989217626499723 5.605542502789991 L3.6121053556499803 5.603345237789984 L3.6466512546500027 5.607007346789988 L3.6507202646499692 5.614575705789992 L3.6564168796500027 5.631787619789964 L3.6649618016500014 5.650220237789984 L3.67741297365 5.6616541567899965 L3.4244832856500054 5.669263205789992 L3.3855428556499803 5.684277854789958 L3.1841675306499653 5.695020041789963 L3.1550334156499886 5.6905034407899855 L3.1293172706499988 5.6753260317899965 L3.1014038586499666 5.695752463789962 L3.122155811649968 5.701855979789958 L3.1293172706499988 5.702588401789956 L3.0496053556499803 5.727083843789945 L2.8285360206499988 5.760327658789993 L2.8211711116500098 5.762606304789973 L2.708418832650004 5.7976811747899895 L2.69141036864999 5.806429546789946 L2.6842489106500054 5.815544130789977 L2.6724080906499736 5.8150558497899745 L2.6201213066499847 5.834505718789945 L2.541263884649986 5.875073752789991 L2.267622934649971 5.96642303678998 L2.2590780126499723 5.973177593789945 L2.2532186376499723 5.988314312789942 L2.238326059649971 5.996370953789995 L2.1326538586499666 6.0222905497899895 L2.1119832856500054 6.024731955789992 L2.0959920746499776 6.0298995997899745 L2.0690959156499886 6.055534364789981 L2.0530233246499776 6.065706890789944 L1.9265177906499886 6.102979026789956 L1.82617599364999 6.109692893789987 L1.800337777649979 6.122388205789992 L1.776696827649964 6.128288270789984 L1.765669809649971 6.134595237789984 L1.737715707650004 6.168734234789941 L1.683842009649986 6.213818869789964 L1.6216268406499736 6.251294455789992 L1.5806519056499653 6.263786317789982 L1.5063924656499736 6.271517437789942 L1.4470256036499833 6.296989442789982 L1.4346151216499763 6.305371604789958 L1.4246053556499803 6.324780783789993 L1.4138224786499833 6.326693218789945 L1.4013713066499847 6.326530458789978 L1.391687061649968 6.329785666789963 L1.3738241056499803 6.344841005789977 L1.31999109865 6.37421926078996 L1.2411336766500014 6.439323427789976 L1.2230672706499988 6.446240744789964 L1.1989787286499833 6.4441655497899895 L1.1555216976499807 6.435620627789991 L1.1391776424362021 6.437457753892563 L1.1060730556500218 6.414909370789932 L1.1006470296499558 6.403152982789937 L1.1019906166500206 6.393024401789976 L1.1124292566499534 6.374369209789922 L1.1155298416500088 6.364473172789932 L1.114134578650031 6.355093900789971 L1.1070032316499905 6.334914253789993 L1.1089152596500114 6.309592801789922 L1.1071065836500154 6.299180000789978 L1.1044194096499993 6.289955757789972 L1.1029724686499875 6.280964058789937 L1.1073649656499853 6.066946113789985 L1.1029724686499875 6.015011299789979 L1.1002852946500568 6.00601960078993 L1.0942908286500241 5.998759061789958 L1.0864360116499867 5.992867948789954 L1.0788395756499298 5.985659085789909 L1.073826961650063 5.9741094037899565 L1.073847259649959 5.9729389107899244 L1.0739819906500188 5.965169380789934 L1.0796147216500387 5.944498807789916 L1.0810099856500344 5.933207507789948 L1.0738786386499939 5.902305000789955 L1.0743437266500209 5.892874051789992 L1.1048844966500084 5.86874115778993 L1.1180619876500018 5.870136421790011 L1.1263818926500377 5.876053372789929 L1.1303093026500264 5.876415107789928 L1.1302576256500103 5.861248074789902 L1.124521541650033 5.84186941378994 L1.1152197836500122 5.82871776078996 L1.1082434656500126 5.814920153789917 L1.1096387286499905 5.793422757789973 L1.1094836996500632 5.793422757789973 L1.101680558650024 5.735570991789945 L1.1040576746499866 5.718233549789947 L1.1166150476500079 5.70014679778993 L1.1329964766499572 5.692602037789971 L1.1499205076500445 5.692912097789961 L1.1640023356499896 5.698493151789979 L1.1909257566499818 5.649633084789901 L1.1968168706499895 5.632063097789928 L1.1975920166500131 5.615242419789954 L1.1893754636499736 5.568113513789957 L1.1999174566500344 5.535143948789983 L1.2041549236499733 5.526074735789937 L1.2115963296499999 5.516850491789928 L1.2374345466500287 5.502923693789942 L1.2399150146499878 5.500133166789983 L1.2513355066500012 5.502148546789929 L1.2497335366500621 5.5060501187899895 L1.2446692466499982 5.51101105578994 L1.2457544516499794 5.516230375789949 L1.2489583906499533 5.522767443789935 L1.24901006664998 5.530312202789975 L1.2513355066500012 5.534162096790016 L1.2610506756500328 5.529847114789948 L1.2660632896500132 5.52359426678996 L1.269732316650014 5.507135322789981 L1.272161108649975 5.500443224789965 L1.2842533936499407 5.483519193789963 L1.2900928306500177 5.473158068789946 L1.2910230066499864 5.4619184447899904 L1.2883875086499685 5.442617297789955 L1.2829098066499895 5.4238587527899575 L1.2754683996499736 5.4223084587899315 L1.2649780846500036 5.424323840789885 L1.2501469476499878 5.416003934789931 L1.2407418376500274 5.402490547789956 L1.2338171956499409 5.38538564878991 L1.229889787649988 5.36753144078995 L1.22963140465 5.351589261789929 L1.2436357176500152 5.358978991789929 L1.2481315676500273 5.348385322789955 L1.247459773650057 5.310739041789919 L1.254694474650016 5.296140450789952 L1.2663733486499993 5.286812853789929 L1.2716960206500332 5.278518785789959 L1.2699919066499987 5.2768853657899975 L1.2598621176500089 5.267175809789979 L1.2663733486499993 5.267485867789961 L1.2862170976499883 5.2663231487899544 L1.2727295496500162 5.248908190789923 L1.267923640650018 5.229942939789968 L1.2747449306500513 5.2179023317899045 L1.2957255616499808 5.221338813789931 L1.2831681886500448 5.205215767789955 L1.2618811456500154 5.162545650789912 L1.2488033606500082 5.13633108278994 L1.230354874649997 5.0579379357899406 L1.231285050650051 5.021247667789968 L1.237796281650013 4.979028023789898 L1.2333004306500115 4.944353137789964 L1.2012610436499855 4.930426338789989 L1.1981604576499691 4.960088610789942 L1.1931995196500154 4.976495877790004 L1.1854480556499922 4.984118151789975 L1.1759395916500281 4.978201199789968 L1.1710303306499767 4.964119372789941 L1.1642607176500448 4.95107107278999 L1.1487577876500197 4.948280545789945 L1.1520650796500362 4.931459867789972 L1.1446495126500267 4.934457100789974 L1.1322730066500455 4.944869901789918 L1.1206974856500196 4.950450956790025 L1.1135661386500644 4.946575223789967 L1.1003369716499876 4.929961250789962 L1.0926371826499732 4.9235275347899154 L1.1007503826499985 4.913114733789985 L1.0956860926500198 4.906603503790013 L1.074085343650033 4.89717255478995 L1.071346492650001 4.896604113789994 L1.050727596649999 4.885364489789939 L1.049228979649989 4.881695462789953 L1.0315039636499748 4.879008288789922 L1.016724503649975 4.867200223789997 L1.0058207766500047 4.8545653357899745 L0.9993612226500304 4.849371854789968 L0.9883024666500191 4.862575182789957 L0.9766235926500642 4.88241893278995 L0.962670955649962 4.8895502807899796 L0.9448942626500454 4.8646680777899185 L0.9326986256500263 4.852704983789966 L0.8932178306499949 4.8321377637899765 L0.8801953696499751 4.815833849789957 L0.8791618406499921 4.808573311789974 L0.8798853116500638 4.780151273789958 L0.882107397649996 4.775552070789917 L0.891254125649958 4.770513618789938 L0.8933728606500253 4.7651909457899855 L0.8910990976500202 4.758808906789955 L0.8859831306500254 4.7562250857899535 L0.880608780649986 4.754623115789929 L0.8774048426500016 4.751057442789946 L0.8741492276500296 4.728268135789964 L0.8701701416499574 4.719095568789971 L0.860454972650011 4.7102072227899505 L0.8514632726500437 4.709587104789978 L0.8389575766499533 4.712946073789897 L0.8293457606499643 4.718062039789988 L0.8289323496500387 4.722738757789958 L0.8180286216499653 4.708811958789969 L0.8153414476500345 4.688606473789978 L0.8178219156500219 4.665920520790014 L0.8224727946499897 4.6449140497899215 L0.8357019616499812 4.6063375937899345 L0.8332214926500043 4.592824205789956 L0.8177185636499971 4.5739106327899215 L0.7732768316500014 4.538305570789948 L0.7698145106500576 4.533525500789953 L0.7671790126500397 4.521872464789983 L0.7654736896500012 4.51856517278998 L0.7592983566500138 4.516498116789922 L0.7546216396500469 4.517790026789971 L0.7503324956500634 4.519547025789951 L0.744958145650024 4.518875231789966 L0.6804659586499824 4.503604846789916 L0.6641362056499744 4.492520251790001 L0.6468246016500458 4.488541166789933 L0.6197461506499948 4.489161282789983 L0.5732373626499552 4.495620836789943 L0.5615584886500002 4.500400907789942 L0.5392342686500271 4.512725736789992 L0.5254883386499998 4.516084704790007 L0.509261938650063 4.516291409789961 L0.5007870036499682 4.5134492057899855 L0.49412074365005054 4.508462430789937 L0.4832686926500216 4.502157905790018 L0.47135727564997154 4.497765408789935 L0.39386846465003345 4.480247098789963 L0.3847734136500591 4.476939806789975 L0.3832747966499639 4.472805692789951 L0.3832747966499639 4.465906888789977 L0.3821379156500413 4.4577161747899545 L0.3771253006499862 4.449654650789956 L0.36983892464999 4.445675565789973 L0.365653133649964 4.448776151789918 L0.36234584164997585 4.453323676789953 L0.35748825665003636 4.453840441789897 L0.34689458865005207 4.444331978790007 L0.33723109565001863 4.4333507367899365 L0.32689580965003273 4.429242459789922 L0.3138733486499845 4.440223701789993 L0.3032796796500108 4.43557282278994 L0.29103236464998616 4.435211088789931 L0.2787850506500362 4.439861966789994 L0.26803635265002157 4.450274767790024 L0.25615077364999905 4.438311673789972 L0.2596906086499686 4.43221385479001 L0.26886317564997597 4.427123725789944 L0.27387578965001325 4.418054511789965 L0.2716020266500081 4.410380561789982 L0.26261032664995554 4.392112943789929 L0.26080165165006264 4.3826561567899525 L0.26596929564998817 4.366119697789959 L0.2733590246499702 4.359763496789942 L0.27475428865005114 4.353975736789966 L0.2615767986499904 4.339092923789924 L0.230209204650059 4.322375598789979 L0.21863368265001526 4.307415270790006 L0.21232915864998603 4.303229479789966 L0.2074715736499897 4.311652738789963 L0.20292404765003624 4.330152900789987 L0.19506923064999881 4.348730578789944 L0.18261520965003086 4.358936673789916 L0.1642184006500358 4.352709663790012 L0.1345044516500522 4.313099678789957 L0.12334234165000879 4.303281156789982 L0.11176682165005758 4.299896350789968 L0.0877372796500353 4.300619819789961 L0.07799627364999395 4.298552763790003 L0.06112391765000069 4.297467557789918 L0.08572189964998955 4.266410021789969 L0.09047613165000001 4.264239611789979 L0.1025167406500529 4.262275906789942 L0.10711594265000457 4.259459541789983 L0.10923467564997935 4.2551703977899145 L0.11373052565001984 4.241243598789939 L0.1126453206500102 4.239693306790006 L0.11373052565001984 4.2393832477899345 L0.1303703366500244 4.230159004789929 L0.13269577665004562 4.230262357789943 L0.14628667764994674 4.213958443789924 L0.2185303306499904 4.156881823790005 L0.2381980926499736 4.134992160789924 L0.3280843666500388 4.034951281789976 L0.34234706265001336 4.013040473790017 L0.35485275865001853 3.984049995789949 L0.3632243406499853 3.9540259887898976 L0.36487798665003623 3.940021675789982 L0.36412867865004017 3.926482450790008 L0.3592452556500163 3.920643013789931 L0.35108037964999284 3.915216988789954 L0.34617111864996986 3.9077239057899114 L0.35893519665003026 3.8801286907900057 L0.35986537264999896 3.864470731789954 L0.35862513865003365 3.8480376257899884 L0.35986537264999896 3.8303126097899742 L0.365291398650065 3.821734322789954 L0.38570358865001 3.805921333789957 L0.39319667165002414 3.7965162237899968 L0.3957288166500277 3.772435005789948 L0.37862391764999614 3.6770919877899537 L0.37722865365000047 3.6527007117899224 L0.37448980364995776 3.643398953789987 L0.36834030764998005 3.6330119917899744 L0.3536125246499964 3.6182325317899604 L0.3500985266500365 3.611979683789958 L0.34927170465001467 3.605571805789925 L0.35139043764998945 3.5929110797899746 L0.3508736736499358 3.5862964967899735 L0.346842911650036 3.5784416787899467 L0.3348539796499992 3.563507189789892 L0.3301514246500048 3.5556006957899378 L0.3222966066500632 3.524594835789916 L0.31583705265003204 3.51141734678993 L0.2987838296499987 3.4872844517899786 L0.29216924664998345 3.4753471967899294 L0.28679489765001875 3.45596853378996 L0.27470261165003507 3.35902354779002 L0.25423874464998875 3.2883818647899297 L0.23620367064997794 3.253190213789967 L0.1943974366500285 3.232312935789995 L0.2398210206499627 3.1904033487899177 L0.2650391196500195 3.177380887789969 L0.2889653076500096 3.204511014789947 L0.30756882364996585 3.203012398790026 L0.3430705326500103 3.1924704057899653 L0.3766085366500178 3.200997017789991 L0.41448736165002487 3.230245877789944 L0.4508675706500114 3.2460071897899248 L0.4795996666500102 3.2139678017899236 L0.4800647546500372 3.2069398067899932 L0.4768091396500651 3.190713407789989 L0.47722255064996233 3.183116971789932 L0.48197678265005806 3.171748156789949 L0.5019755616499921 3.146426705789967 L0.506419735650006 3.1424992957899924 L0.5177368726499694 3.136143095789965 L0.521819311649999 3.132060656789964 L0.5224394286499532 3.127926541789936 L0.5196489016500081 3.118108019789961 L0.5203206956500637 3.113973905789951 L0.5524634356500187 3.077283638789968 L0.5572176676500007 3.06281423778994 L0.5608350176499854 3.0294829387899007 L0.564710750649958 3.013411567790019 L0.569361629650011 3.0078821897900134 L0.5759245366499997 3.0039547807899574 L0.5815831056500187 2.9984254027899517 L0.5835209726499713 2.9884001747900193 L0.5784050056499765 2.9774964477899637 L0.5560807856500034 2.9582728147899395 L0.5486393796500622 2.9478858517899234 L0.5509648196499981 2.907733263789911 L0.6007292236500277 2.83264740778991 L0.6109611576500171 2.7937350547899378 L0.6126148026500502 2.76955048378996 L0.6107544516500454 2.761023872789952 L0.6259989996499868 2.761540636789892 L0.6678569086499735 2.7547451857899468 L0.6776754316500373 2.75787161078998 L0.687338924649957 2.7661398397899326 L0.6994828866500526 2.77373627479 L0.7172079026499816 2.7751315387899815 L0.7142062246500345 2.7633749667899714 L0.7116268476500451 2.7532724077899395 L0.6994312096500366 2.731309924789972 L0.6827913976500142 2.7129647907899006 L0.6641362056499744 2.7018285197899594 L0.6585551516500274 2.68764333879 L0.6581417396500271 2.6725796587899175 L0.6641362056499744 2.6421422407899406 L0.6715776126499904 2.629869087790002 L0.6774170496499821 2.6159939657899436 L0.6765385506500294 2.6062529577899944 L0.6641362056499744 2.6064079877899395 L0.6038814856499854 2.626923530789913 L0.5943213466499842 2.628267117789978 L0.4969112716500135 2.5986306837899242 L0.41386724464995694 2.5443187537899696 L0.4152625086500379 2.5338025997899116 L0.431592261649989 2.5167235387899645 L0.4345378166499856 2.5052255327899395 L0.43221237765003906 2.486466988789946 L0.43221237765003906 2.4677342807899585 L0.4445630456499927 2.4107868527898866 L0.44296107564996845 2.3902196327899965 L0.4377417566500341 2.3775330687899476 L0.43076543765004516 2.366525988789963 L0.42554611865002556 2.355803129789951 L0.42544276565001127 2.3437883587899826 L0.4309721436500169 2.3367345247899642 L0.4795479896499941 2.2984681277899632 L0.4935006266499826 2.296607775789955 L0.5293123946500131 2.303816637789925 L0.549724585649976 2.3016979037899468 L0.5829525316499868 2.288597928789887 L0.6032096926500046 2.287047635789964 L0.6117363036500123 2.2898381627899234 L0.6226400306500679 2.29944997978993 L0.6291770996500574 2.3026280797899865 L0.6373678136499947 2.3031448437899407 L0.6549378016499574 2.3016979037899468 L0.6641362056499744 2.3030931677900135 L0.6939535076500576 2.295367540789929 L0.7093014086500133 2.2933521607899685 L0.7235641036499985 2.2959359817899703 L0.735966447650064 2.3056769897899336 L0.7428910896500369 2.3188803177900077 L0.7482654376500122 2.3332722047899246 L0.7560169036500142 2.3465272097900147 L0.7669723066500111 2.3561131877899335 L0.7812608396499954 2.364019681789973 L0.797513078650006 2.3688514277899806 L0.8142562416500354 2.369419868789951 L0.8312577886499568 2.361668404789942 L0.8330664636499634 2.347612414789925 L0.8304309646499561 2.3311017947899337 L0.8340999926500317 2.31598643779002 L0.8560107996499866 2.3124466017899614 L0.8774048426500016 2.3411011847899523 L0.9088241136500343 2.403784696789888 L0.9315100666500129 2.4179957147899422 L0.9591052816500039 2.4217680947899716 L1.017396296649956 2.415437731789954 L0.9966223716499982 2.3729855427900084 L0.9902661696499635 2.351643175790006 L0.9933667566499977 2.327716987789916 L1.0005497796499796 2.302576403789974 L1.0006014566499672 2.2852131227899584 L0.9881474366499887 2.2436394327899656 L0.9858736736500688 2.2225296107899375 L0.9882507896500314 2.18415985879 L0.983031469649994 2.16545298978993 L0.9759001216500494 2.156823026789983 L0.948020686650004 2.138219510789927 L0.9386414146499575 2.1273932977899825 L0.9147152266500242 2.084217638789955 L0.9077905846500514 2.0757685427899624 L0.8889286866500399 2.059361274789996 L0.8841486166500303 2.0538318967899905 L0.8761646086500647 2.04124868578997 L0.8696533776499891 2.036933702789913 L0.8637881026499983 2.0367786747899608 L0.8532719486500397 2.0420755087899956 L0.8488277756499585 2.0426439497899516 L0.7888831136500514 2.024608873789962 L0.7667139246500128 2.022076729789962 L0.7209286056499806 2.008304960789932 L0.7109033776499629 1.9774541307899405 L0.7291451576500307 1.8907669147899817 L0.7333826256499876 1.8417001427899642 L0.7382402106499839 1.8180840127899422 L0.7479553796499303 1.7938477657899519 L0.748007055649957 1.793744413789927 L0.7630965736500386 1.7779572627899434 L0.8528068606500128 1.7324820027899825 L0.8720304926499622 1.7302599157899756 L0.891770890650001 1.7302599157899756 L0.9156454016500035 1.7266942427899217 L0.9316410516500113 1.7148992307899285 L0.9330603596500211 1.7138526487899277 L0.9204513106500016 1.698633939789989 L0.8788001056499795 1.6755087367899968 L0.8564758876500136 1.6583263227899359 L0.8456238366499846 1.6473192427899512 L0.8319295816500514 1.6217394077899066 L0.823609676649987 1.6200857627899445 L0.8135327726499426 1.6242715537899848 L0.8011304286499907 1.6263902867899596 L0.7502808186499621 1.6064173457899393 L0.7491956136499809 1.5700112997899431 L0.7849040286499687 1.4831690547899434 L0.7881079676500278 1.4600696907899682 L0.8144629486499966 1.380384630790008 L0.8092436286499876 1.3717029907899594 L0.7679541586500633 1.371651314789947 L0.7468184976500183 1.3760438107900264 L0.7087846436499987 1.3973345007899276 L0.688269100650011 1.404982612789997 L0.6699756436500408 1.4066879357899644 L0.6475480716499575 1.4056544067899814 L0.6257922936499583 1.4012102337899712 L0.6094108646499805 1.392761136789975 L0.5926677006500469 1.3749069297899332 L0.5344800376500345 1.293154813789915 L0.5269869556499813 1.2771867957899765 L0.5222327236499993 1.2594359407899596 L0.5188220786499684 1.2366983117899686 L0.5182536376500124 1.2146583127899824 L0.5195509066500605 1.2054885367899608 L0.5563391686499628 0.9454499387899382 L0.5517399666500111 0.9240558957899374 L0.5329814216500139 0.9256061897899492 L0.5288473066499861 0.9241592487899517 L0.524764867649985 0.9150641967898885 L0.5277104246499889 0.9114726847900023 L0.532516333649987 0.9101807737899641 L0.5341699786499632 0.9078036577900015 L0.5326196866500297 0.9023776327899391 L0.53029424664998 0.8849626747899073 L0.5266252196500076 0.8793816197899851 L0.5208891366500197 0.8779346797899912 L0.5153080816500264 0.8776246217900088 L0.5119491136500116 0.8756092407899594 L0.5083317636500269 0.8674702027899492 L0.5051278236500352 0.8572641067898878 L0.5060063236500056 0.8484274367899793 L0.5274520436500083 0.8403142377899719 L0.5397510336499565 0.8305990677899366 L0.5435750896499982 0.8208580607899911 L0.5309660396499893 0.8164138867899773 L0.5213542236500572 0.8053809687899793 L0.5321029216499866 0.7802662227899653 L0.552308406650063 0.7531877727900032 L0.5710669516499749 0.7361087117899565 L0.6219682366500123 0.7172209757899317 L0.6449642496500516 0.7045085727899796 L0.6641362056499744 0.6799364297899082 L0.6674951746500639 0.6654411907899664 L0.6726111406499555 0.651979479790004 L0.6800008706499838 0.6396029747899412 L0.6901811276499288 0.6283116737899697 Z M5.564538624649963 5.682487489789981 L5.56022547365 5.698966981789955 L5.559615121649976 5.698804221789988 L5.516036020649999 5.688753765789944 L5.417769418649975 5.67931366178998 L5.403487191650008 5.672192893789987 L5.407515512649972 5.657910666789963 L5.42655848064998 5.640698752789991 L5.445723520649999 5.626823427789976 L5.472456918649975 5.633659364789981 L5.479536996649976 5.638501487789984 L5.48242599364999 5.644401552789976 L5.483890837649987 5.650098166789963 L5.486657764649969 5.654167177789976 L5.494877165649989 5.658032737789984 L5.516442921649961 5.664827984789941 L5.520756072649981 5.664746604789958 L5.524703012649972 5.662427268789987 L5.533492074649978 5.668734234789941 L5.548140512649972 5.682161968789945 L5.561527556649985 5.683301291789963 L5.564538624649963 5.682487489789981 Z" fill="black" stroke="black" stroke-width="0.5" vector-effect="non-scaling-stroke"/></svg>