<svg xmlns="http://www.w3.org/2000/svg" viewBox="0 0 2.747724609120006 2.440512695099983"><path d="M0.6830257165600351 2.3197029620500302 L0.6942561855600324 2.329834798050001 L0.7006038415600351 2.3443611650500316 L0.7034114585600086 2.361084798050001 L0.7041031905600157 2.378052571050034 L0.7004817705600139 2.3938810220500386 L0.6920589195600364 2.401123861049996 L0.682944336559995 2.406494954050004 L0.6768001305600073 2.416586100049983 L0.6693538415600351 2.416586100049983 L0.661907552560006 2.4064135740500205 L0.6427425135600338 2.3939217120500302 L0.635825195559999 2.381755371050019 L0.6284195965600183 2.388672689049997 L0.6326513675599976 2.379720866050036 L0.634116211559995 2.3711759440500373 L0.6326513675599976 2.3626717120500302 L0.6284195965600183 2.353882650050025 L0.6420100915600351 2.353882650050025 L0.6379410805600223 2.3350431310499857 L0.649741211559995 2.328492025050025 L0.6680110675600126 2.3260913080500245 L0.6830257165600351 2.3197029620500302 Z M1.0908219405600157 2.302979329050004 L1.0858577475600377 2.3140470380500346 L1.089153645560014 2.3250740560500276 L1.0940771485600003 2.336182454050004 L1.0945247395600113 2.347657064049997 L1.0878108725600377 2.3575040690500373 L1.0528987635600338 2.388672689049997 L1.010825195559999 2.404541829050004 L0.9723323565600417 2.3996590170499985 L0.9382747395600113 2.3824471030500263 L0.8807796225600377 2.3355721030500263 L0.866985677560006 2.3165698240500205 L0.861126302560006 2.295817871050019 L0.86674153656001 2.275269368050033 L0.8806168625600144 2.2513435870500302 L0.898439127560021 2.229981282050005 L0.9227718105600324 2.2128100580500245 L0.98392903656001 2.1824959310500276 L1.0017919925599976 2.1770027670499985 L1.0225032555600073 2.1751310220500386 L1.044109700560039 2.179810384050029 L1.05814778656001 2.1918139650500166 L1.067221679560003 2.20752034505 L1.0801204425600126 2.2410896810500276 L1.091595052560006 2.2900398760500025 L1.0908219405600157 2.302979329050004 Z M1.9305843105600324 2.1968595380500346 L1.932781575560039 2.2015795900500166 L1.9354671225600377 2.205404459049987 L1.93900716156001 2.208130696050034 L1.9442561855600324 2.2098396810500276 L1.9395361325600042 2.2247729490500205 L1.932700195559999 2.234619954050004 L1.909466145560014 2.251465657050005 L1.9169124355600324 2.25830159505 L1.9071468105600324 2.27392659505 L1.9010432945600364 2.2896736650500316 L1.8933528645600113 2.3018400060499857 L1.8790706385600338 2.3067228190500373 L1.8711360675600126 2.3076993810499857 L1.8555110675600126 2.3118904620500302 L1.8480647785600404 2.3129077150500166 L1.8400081385600338 2.312012532050005 L1.8315445965600183 2.307740071050034 L1.8241389975600377 2.3067228190500373 L1.7909358725600377 2.3059903970500386 L1.76322591156001 2.302409668050018 L1.737631836559995 2.2940275060499857 L1.7108577475600377 2.2849943030499844 L1.6722835285600404 2.252076009050029 L1.6568212895599963 2.234701334049987 L1.6566585285600404 2.2020271810500276 L1.6453059895600113 2.194173991050036 L1.6290706385600338 2.189209798050001 L1.6152766925600126 2.182536621050019 L1.614666341560035 2.178833821050034 L1.6078304035600404 2.1558846030500263 L1.6050634765600016 2.1519783530500263 L1.6010758465600183 2.148112793050018 L1.5972509765600016 2.142823079050004 L1.5947688805600073 2.134766439049997 L1.5974951175599976 2.126709798050001 L1.6117366535600404 2.102295736049996 L1.6152766925600126 2.093181152050022 L1.614422200560039 2.080078939049997 L1.6016048175600126 2.046021321050034 L1.6111669925599976 2.043295084049987 L1.6172298175600126 2.036540527050022 L1.6206070965600183 2.026774902050022 L1.6215022785600404 2.0150154620500302 L1.6236995445600364 2.004232584049987 L1.6286637375600144 1.9974373370500302 L1.6335465495600197 1.9924324540500038 L1.6357845055600073 1.9870613610499959 L1.6324072265600016 1.9702156570500051 L1.6240657555600073 1.9507657880500346 L1.6129573565600417 1.9348966470500386 L1.6016048175600126 1.9287117510500025 L1.608237304560003 1.9263924150500316 L1.6289485675600126 1.9156502280500263 L1.6143001305600073 1.9099129230500012 L1.6078304035600404 1.9088549800500232 L1.6357845055600073 1.8877775060499857 L1.6432307945600364 1.8877775060499857 L1.6438004555600223 1.8953865560500276 L1.645346679560003 1.8995776370500153 L1.6474625655600157 1.9031990560500276 L1.6494156905600157 1.9088549800500232 L1.6681331385600338 1.8976245120500153 L1.6841243495600047 1.907064616050036 L1.6895361325600042 1.924195150050025 L1.6766780605600324 1.9361580400500316 L1.6900244145599963 1.9545092770500219 L1.7056087245600047 1.9656990560500276 L1.7388118495600047 1.9833178710500192 L1.731284179560003 1.990804850049983 L1.7485774745600047 1.994263509050029 L1.7570817055600223 2.0013435870500302 L1.7722591145600113 2.025513509050029 L1.8031429035600404 2.058106282050005 L1.8199886065600417 2.0684415690500373 L1.8350032555600073 2.066529134050029 L1.8382177735600003 2.0711678060500276 L1.8398860675600126 2.074585775050025 L1.8423681645599963 2.0773933920499985 L1.8480647785600404 2.0801603190500373 L1.8465999355600324 2.081462402050022 L1.852947591560035 2.0875252280500263 L1.8601090495600197 2.0931404620500302 L1.8616552735600003 2.093181152050022 L1.864422200560039 2.0938321940500373 L1.873292643560017 2.092530111049996 L1.8759781905600157 2.093181152050022 L1.8765478515600016 2.0963142900500316 L1.8753271485600003 2.104411621050019 L1.8759781905600157 2.1075040690500373 L1.9169124355600324 2.182536621050019 L1.9208186855600324 2.186280111049996 L1.9237483725600377 2.187378743050033 L1.9266780605600324 2.189576009050029 L1.9305843105600324 2.1968595380500346 Z M2.259563802560006 1.9088549800500232 L2.2654638675599976 1.9213875320500051 L2.2668473305600223 1.937175293050018 L2.2657893885600338 1.9641121420499985 L2.27689778656001 2.0211189780500263 L2.2754329425600126 2.048584798050001 L2.259563802560006 2.073894043050018 L2.2545589195600364 2.0758064780500263 L2.2386897785600404 2.0777596030500263 L2.232220052560006 2.0801603190500373 L2.228517252560021 2.0849617510500025 L2.223715820559999 2.096802571050034 L2.218548177560006 2.1006681310499857 L2.20463216156001 2.101929525050025 L2.191407877560021 2.098470866050036 L2.1702083335600086 2.0869962560499857 L2.146730143560017 2.0704760740500205 L2.1352962245600047 2.058716634050029 L2.1291927085600086 2.046021321050034 L2.132244466560035 2.03369222005 L2.140056966560035 2.0213224280499844 L2.14408528656001 2.009196777050022 L2.136028645560014 1.9976407880500346 L2.150188802560006 1.9895027670499985 L2.156495768560017 1.9765633140499972 L2.1525081385600338 1.9656990560500276 L2.136028645560014 1.9641121420499985 L2.1416438805600073 1.9494637040500038 L2.163250325560039 1.9338387040500038 L2.1775732425599976 1.9088549800500232 L2.1728938805600073 1.9069832360499959 L2.1722021485600003 1.9060880530499844 L2.1724055995600047 1.9047045900500166 L2.1702083335600086 1.9013680010500025 L2.1840836585600236 1.8956306960500342 L2.197511393560017 1.8877775060499857 L2.1977962245600047 1.8910327150500166 L2.197511393560017 1.9013680010500025 L2.2060970055600073 1.8947762040500038 L2.208416341560035 1.8925789390499972 L2.2111018885600338 1.8877775060499857 L2.218548177560006 1.8951831050500232 L2.2111018885600338 1.9013680010500025 L2.225424804560003 1.9079597980500012 L2.247845052560006 1.9027514650500166 L2.259563802560006 1.9088549800500232 Z M2.7052425135600338 1.1069344070500051 L2.708986002560021 1.1086433920499985 L2.7165543625600144 1.1182869460500342 L2.7207861325600042 1.1290698240500205 L2.714845377560021 1.1341967770500219 L2.711752929560003 1.1385099280499844 L2.710247395560014 1.1478686520500219 L2.7075618495600047 1.1573087560499857 L2.6909195965600183 1.1676033530500263 L2.63627278656001 1.2099617510500025 L2.5997737635600338 1.2289233400500166 L2.581219075560039 1.2346199540500038 L2.523683268560017 1.2381599930500329 L2.513470052560006 1.236654459049987 L2.503704427560006 1.2318123370500302 L2.489584961559995 1.2200528970500386 L2.47806966156001 1.2167976890499972 L2.4418147785600404 1.200847168050018 L2.4296077475600377 1.1896980790500038 L2.42338216156001 1.168335775050025 L2.4241145835600086 1.1493334960500192 L2.4296077475600377 1.1315112300500232 L2.4399430335600236 1.1182869460500342 L2.4547542315600417 1.1131193030499844 L2.473797200560039 1.0949715170499985 L2.4629329425600126 1.0075691730500012 L2.471762695559999 0.9765633140499972 L2.475750325560039 0.9838061520500219 L2.4801448565600417 0.989095866050036 L2.4922705075600042 0.9976814780500263 L2.5094417315600417 1.0056160480500012 L2.5348323565600417 1.0139168290500038 L2.557944336559995 1.0165209960500192 L2.5680354815600417 1.0075691730500012 L2.5756852215600183 0.9921069330500245 L2.593548177560006 0.9891772460500192 L2.6526708985600003 1.0036629230500012 L2.663494466560035 1.0078946940500373 L2.6735042315600417 1.0147713210500342 L2.677532552560006 1.0218920900500166 L2.683595377560021 1.0409350580500245 L2.6877864585600086 1.0448413080500245 L2.704876302560006 1.0518806960500342 L2.7086604815600417 1.0687670900500166 L2.7052425135600338 1.1069344070500051 Z M1.3198258465600183 0.6066088870500153 L1.33939778656001 0.6217049150500316 L1.3499365235600003 0.6275236000499831 L1.3545345055600073 0.6236987300500232 L1.3545345055600073 0.6581225580500245 L1.3432633465600183 0.6606453450499998 L1.272625325560039 0.6612556960500342 L1.1953955075600042 0.6280525710500342 L1.1540543625600144 0.6184090170499985 L1.115032552560006 0.6333015950499998 L1.100994466560035 0.6497810870500302 L1.0720231125600144 0.7001147460500192 L1.0626643885600338 0.7378751630500346 L1.0539567055600223 0.7255867510500025 L1.039877929560003 0.6885587560499857 L1.0339778645600113 0.6800952150500166 L1.0271826175599976 0.6733406570500051 L1.021730143560017 0.6649178060500276 L1.0194514975600377 0.6513680010500025 L1.0188004555600223 0.640992025050025 L1.016440429560003 0.6333829750499831 L1.01127278656001 0.6287443030499844 L1.0022802735600003 0.6271166990500205 L0.9790869145599963 0.6203621420499985 L0.9626481125600144 0.6033943680500329 L0.9567073565600417 0.5810555010500025 L0.9647639975600377 0.5582283530500263 L1.0258805335600236 0.5389412430500329 L1.0331233725600377 0.5399178060500276 L1.0467952475600377 0.5451668290500038 L1.0586767575600042 0.5527351890499972 L1.0821956385600338 0.572632650050025 L1.0945247395600113 0.5786954750499831 L1.1049820965600183 0.5791837560499857 L1.1605647785600404 0.5709236650500316 L1.1702490235600003 0.5728361000499831 L1.2067887375600144 0.5896818030499844 L1.2148860675600126 0.5914314780500263 L1.2973649085600236 0.5980639650500166 L1.3198258465600183 0.6066088870500153 Z M2.458172200560039 0.6271166990500205 L2.4459651695600364 0.551148275050025 L2.430828450560039 0.5210782880500346 L2.4097509765600016 0.5314949540500038 L2.405600586559995 0.5170092770500219 L2.4042171225600377 0.49747802705002186 L2.407309570559999 0.4794116210500192 L2.4165462245600047 0.46948323604999587 L2.4165462245600047 0.46264729805000115 L2.4046240235600003 0.45914794905002054 L2.3981136065600417 0.44958577505002495 L2.395794270560014 0.4361987300500232 L2.3965673825600042 0.4048673500499831 L2.4172379555600223 0.3890795900500166 L2.4649267575600042 0.3602303060500276 L2.4703792315600417 0.36735107405002054 L2.4884456385600338 0.3837084960500192 L2.4922705075600042 0.39123616505003156 L2.491049804560003 0.3955086260500025 L2.484620768560017 0.4073494460500342 L2.4775813805600073 0.41715576205001526 L2.4794124355600324 0.4199226890499972 L2.4833186855600324 0.4219571940500373 L2.485515950560039 0.42541585305002627 L2.4827083335600086 0.48470133404998705 L2.485515950560039 0.5035815430500179 L2.4899918625600144 0.5102547200499998 L2.5031754555600223 0.5220955400500316 L2.5060237635600338 0.5278328450499998 L2.504965820559999 0.5389819330500245 L2.5007340495600197 0.5588387040500038 L2.4997574875600144 0.5690926110499959 L2.4978043625600144 0.5746264650500166 L2.4885677085600086 0.5810555010500025 L2.485515950560039 0.5861010740500205 L2.48588216156001 0.5914314780500263 L2.4879573565600417 0.5988777670499985 L2.4905208335600086 0.6050626630500346 L2.4922705075600042 0.6066088870500153 L2.485638020560014 0.6146248370500302 L2.478517252560021 0.6183276370500153 L2.4697281905600157 0.6213387040500038 L2.458172200560039 0.6271166990500205 Z M0.4676123045600029 0.3254402670499985 L0.4644384765600016 0.32971272805002627 L0.472902018560017 0.3391121420499985 L0.48722493556003243 0.3485115560500276 L0.5014664715600183 0.3527840170499985 L0.5062679035600404 0.35823649105003597 L0.511069336559995 0.37068766305003464 L0.5137548825600042 0.3846036780499844 L0.5122900395599963 0.3943693030499844 L0.49625813856003376 0.40657633404998705 L0.47184407556003904 0.4150398760500025 L0.44450032556003904 0.4200447590500289 L0.4192317705600139 0.42163167305000115 L0.41284342456001966 0.4238289390499972 L0.4031591795600029 0.43318766305003464 L0.39933431056003243 0.4353849280499844 L0.39213216156000996 0.43440836605003597 L0.32918457055999895 0.41088948604999587 L0.3191341145600113 0.40543701205001526 L0.3111995445600364 0.39807210305002627 L0.3062353515600016 0.3881844070500051 L0.293214518560017 0.3943693030499844 L0.29760904956001966 0.3730476890499972 L0.3091650395599963 0.3554695640499972 L0.32377278656000996 0.34350667305000115 L0.337241211559995 0.3391121420499985 L0.3685725915600351 0.33850179005003156 L0.3813899745600047 0.33284586605003597 L0.37516438856003376 0.3192553710500192 L0.4033626305600073 0.3045662430500329 L0.40926269555999895 0.2975268550500232 L0.41609863256000423 0.2975268550500232 L0.42216145856000864 0.31160563104998573 L0.4321712245600047 0.30973388705001526 L0.44962727856004037 0.2975268550500232 L0.4596370445600364 0.3027351890499972 L0.4685888675599976 0.31225667305000115 L0.472657877560021 0.32137125604998573 L0.4676123045600029 0.3254402670499985 Z M0.3403743495600047 0.1854663080500245 L0.33178873756001437 0.19572021505001658 L0.271486002560021 0.22306396505001658 L0.243938802560006 0.25048909504999983 L0.224407552560006 0.2752286780499844 L0.19950520856000864 0.29235921205003024 L0.156048177560006 0.2975268550500232 L0.11816569056001569 0.2975268550500232 L0.10652832055999895 0.2998055010500025 L0.0976985675600126 0.30334554005003156 L0.08866536456001128 0.3031420900500166 L0.07658040356004037 0.2944344070500051 L0.07397623756001437 0.28206461605003597 L0.0734879555600223 0.21557698604999587 L0.0598160805600223 0.19230224605001922 L0.05631673156004169 0.18957600905002892 L0.03906412756002098 0.1864021810500276 L0.03251302056001393 0.18204834005001658 L0.02693847656000159 0.1652840170499985 L0.031780599560004674 0.1509611000499831 L0.056438802560005996 0.12369873005002319 L0.07055826856001701 0.11442138705001526 L0.0852067055600223 0.11246826205001526 L0.0982275395599963 0.1135262040500038 L0.10758626356003376 0.11320068305002451 L0.1177587895599963 0.10620198604999587 L0.14201009156003508 0.08382242804998441 L0.16105306056003243 0.0758471680500179 L0.18465332055999895 0.06176839204999851 L0.20780598956001128 0.05615315705000512 L0.26871907556003904 0.027670084049987054 L0.2847509765600016 0.023926595049999833 L0.2963069665600351 0.027507324050020543 L0.3078629555600223 0.03515706404999719 L0.3334163415600351 0.034343262050015255 L0.34782063856003376 0.038086751050002476 L0.35717936256001437 0.045044759050028915 L0.36108561256001437 0.05281656905003729 L0.36149251356003376 0.07560302705002186 L0.3667822265600016 0.08016031905003729 L0.3903011065600417 0.08634521505001658 L0.39559082055999895 0.08960042305000115 L0.398683268560017 0.09480875604998573 L0.41239583356000864 0.10603922504998309 L0.41609863256000423 0.11320068305002451 L0.41434895856000864 0.1239021810500276 L0.40836751356003376 0.13362711605003597 L0.37223470056003904 0.17138753205000512 L0.3676774085600236 0.17150960305002627 L0.36344563856003376 0.1751310220500386 L0.34464681056003243 0.18204834005001658 L0.3403743495600047 0.1854663080500245 Z M0.7947012055236335 0.5962148271781871 L0.8178487755256079 0.600554996553555 L0.8120618830251125 0.6150222278047899 L0.7975946517738812 0.613575504679666 L0.7860208667728941 0.6106820584294184 L0.7831274205226464 0.5991082734284312 L0.7947012055236335 0.5962148271781871 Z M0.6138608148832176 0.4182678827880153 L0.6384551080103122 0.4269482215387548 L0.6514756161364232 0.4414154527899896 L0.6616026780122866 0.4631162996668401 L0.6804100786388894 0.46745646904220806 L0.6919838636398765 0.4602228534165924 L0.7035576486408637 0.46456302279196393 L0.7021109255157398 0.4775835309180714 L0.6847502480142609 0.48481714654369057 L0.6644961242625342 0.4862638696688144 L0.6471354467610553 0.4862638696688144 L0.6384551080103122 0.4775835309180714 L0.6326682155098204 0.46600974591708777 L0.6138608148832176 0.4587761302914686 L0.5993935836319828 0.44575562216536113 L0.5993935836319828 0.4312883909141263 L0.6138608148832176 0.4182678827880153 Z" fill="black" stroke="black" stroke-width="0.5" vector-effect="non-scaling-stroke"/></svg>