<svg xmlns="http://www.w3.org/2000/svg" viewBox="0 0 5.4030345468599705 4.374584144699991"><path d="M5.259939920929966 0.04288807984999998 L5.271980530929952 0.0695272818499415 L5.266812886929969 0.09464202784995557 L5.243558492930035 0.14536244584993874 L5.242111552930041 0.16086537584994964 L5.245987283929978 0.19060516284993234 L5.244798726929943 0.20644398884993898 L5.23963108392995 0.21770945084999305 L5.225265035929951 0.23794077384989798 L5.22092421492998 0.25150583784997416 L5.219994038930039 0.25861134684991605 L5.21627333593004 0.27222808784992303 L5.204284403929975 0.2984280388499325 L5.19529270492994 0.3135950718499583 L5.182683654930017 0.32380116584992713 L5.16335666892995 0.32850372184991095 L5.1568971159299934 0.3254031358499656 L5.153176411929948 0.3187368758499485 L5.147336974929985 0.3144218938498806 L5.134417866929979 0.31837514084995 L5.1264596969299845 0.32555816484999234 L5.123359110929968 0.3338522328499618 L5.121808817930045 0.3428956088499131 L5.118966613929999 0.35201649884998965 L5.09855442392994 0.3871823108499495 L5.091319722929981 0.405501605849933 L5.089459370930044 0.4259137968498816 L5.091681457929994 0.4348796578499172 L5.1004664519299325 0.45418080484995293 L5.103308655930036 0.4642318708498845 L5.103153625930005 0.47363698184993375 L5.09814101192994 0.5088544698500055 L5.064292948929946 0.603603208849945 L5.059487039930033 0.627632750849882 L5.063724507929962 0.6393891388499764 L5.073181294929938 0.6489234398499644 L5.084291727929937 0.6661575308499419 L5.086410461929958 0.685794574849977 L5.083051493930029 0.706542662849925 L5.082689758930016 0.7268514998499409 L5.09411024993004 0.7450674428498996 L5.111111796929933 0.7511910998499456 L5.14857720992994 0.7475479118499617 L5.164028462930034 0.7534131868499525 L5.170281310930008 0.7629991648499566 L5.17090142892998 0.772766010849919 L5.169661194929958 0.7823003118499923 L5.1705913699300226 0.7914728788499001 L5.184699035929938 0.8208250928499705 L5.18553511793003 0.8258341218499918 L5.18759291593004 0.838162534849884 L5.184854064929979 0.8496605418499126 L5.179376363930018 0.8610035178499782 L5.174932189930004 0.877772520849943 L5.185784240930033 0.9080807488498817 L5.184544006930011 0.9170207718499181 L5.1780844529299515 0.9385181678499475 L5.177722716929949 0.9489826448499894 L5.182787007929946 0.9639946478499706 L5.201803934929998 0.986267189849924 L5.211312398929962 1.0013825468499373 L5.213327778930008 1.0058267198499333 L5.2362721149299745 1.0304247008499186 L5.253842102930022 1.0549193308499678 L5.336472717929993 1.2124032588499585 L5.343862447929993 1.2489384948499929 L5.350063619929969 1.3470978788499632 L5.346497944930022 1.3777161648498844 L5.31445429593002 1.4538367798499774 L5.3011440699299754 1.485455606849909 L5.1999435839299935 1.7258602888498853 L5.202527404929967 1.7401488228499584 L5.218133687930035 1.751388446849914 L5.2206141569300115 1.7587006618498986 L5.22092421492998 1.7652118918498712 L5.218495422929934 1.770612079849938 L5.213327778930008 1.7745911648499213 L5.2073849899299915 1.7844355248498953 L5.20562799093004 1.7952875758499385 L5.207901753930045 1.8063721708499525 L5.219167216930018 1.8315902698499098 L5.222887919930017 1.8618984968499444 L5.226918680929984 1.876910500849915 L5.233843322929985 1.888718565849926 L5.261903625930003 1.9199828068499283 L5.275494526929933 1.9478364048498928 L5.278181701929938 1.9740363558499165 L5.277303201929996 2.000908099849907 L5.279628641929932 2.0307770778499314 L5.304640035930035 2.1410545848499805 L5.30650038693004 2.1735590608499233 L5.302986388929966 2.2038414498499446 L5.297508687930005 2.2166055288499233 L5.291307515930029 2.2274059028499504 L5.289188781929951 2.2382579538499936 L5.296216776929938 2.2512287378499263 L5.296320129929981 2.2513837678499566 L5.296216776929938 2.274793190849932 L5.266812886929969 2.3563386018499823 L5.26180027292996 2.380884906849955 L5.253842102930022 2.4036225368499355 L5.239114318930021 2.4216576118499358 L5.213327778930008 2.4320962508499644 L5.18919488592995 2.4484260038499013 L5.155398498929955 2.493384499849922 L5.132557515929975 2.494624734849948 L5.11333388292995 2.478036598849952 L5.083361551929997 2.432354633849938 L5.059745422929993 2.41824696684999 L5.015717101929951 2.422071023849936 L4.967371601929969 2.436877804849912 L4.951431620929938 2.4417597438498984 L4.892055399930015 2.4704401638498847 L4.862496480930005 2.501239317849949 L4.855778543929986 2.5153469828498896 L4.843789611930035 2.526250710849949 L4.817124572929956 2.5446991978499636 L4.785550272929967 2.583094785849992 L4.717234029929941 2.6502224718499274 L4.692946106930023 2.6663971948499334 L4.65584242793004 2.6805565378499647 L4.618842101929985 2.684742328850005 L4.542516011929976 2.6790062448499565 L4.530109154929946 2.680060827849898 L4.511510152930029 2.68164174284996 L4.488772521930045 2.695129291849936 L4.472339416930012 2.7185903918499985 L4.460660543930018 2.7510948678499414 L4.441126850929933 2.776674701849897 L4.420042866929961 2.7824107858499456 L4.370175109929946 2.7713003528499325 L4.378133280929987 2.7863381948499164 L4.291988667929999 2.7746593208499473 L4.244084615929964 2.7740908808499807 L4.213285461929999 2.7953815698499636 L4.200056294929979 2.7945547468499523 L4.194681946929947 2.787733458849898 L4.190599507929946 2.779000140849929 L4.181607808929968 2.7725922638498854 L4.1686887009299625 2.770628558849948 L4.157009826929979 2.771610410849915 L4.1335487259300265 2.7776565538499494 L4.134963417929939 2.7816622848499275 L4.143057189929934 2.8045799758499736 L4.172667785930045 2.859098611849886 L4.178300517929969 2.8837482688498834 L4.175716694930017 2.8862804148499617 L4.16093723592995 2.90989654384998 L4.159800353929981 2.916511127849885 L4.159180237929988 2.9354247018499233 L4.1578366499299335 2.9440546658499596 L4.150912007929932 2.9583173618499483 L4.142695454930035 2.9715982038499487 L4.137321105929956 2.985344135849898 L4.138406310929938 3.0011571238498913 L4.165639791929934 3.046994118849936 L4.174134683930035 3.0690415578499266 L4.174579813929981 3.0701968368499433 L4.165381408929974 3.0853897088498723 L4.15235894793004 3.085699766849954 L4.139646544930017 3.078930154849912 L4.117632384929934 3.0636339298499546 L4.103731424929933 3.0589313748499745 L4.093861225929956 3.0573294058499396 L4.083215881929945 3.0584146098499456 L4.026888570930041 3.0728840118498777 L4.013659403929964 3.0706619248498708 L4.004667704929986 3.0634789018499173 L3.9903016569299865 3.041413064849918 L3.9827568969299563 3.0328864528499064 L3.9631715299299657 3.0224994898498903 L3.894183492929969 3.0011571238498913 L3.852738993929947 3.000381977849967 L3.8007525019300346 2.984568988849885 L3.754967182929974 2.976972553849917 L3.731661112930041 3.0011571238498913 L3.73083428993003 3.015006406849947 L3.728302144929941 3.0284939558499087 L3.7226177379300083 3.0407929468499457 L3.694815816930017 3.0694733668499463 L3.6857207649299397 3.0904023218499344 L3.673628478929956 3.1046133418498965 L3.6450514129299876 3.1031664008499984 L3.597457417929988 3.0859064728499117 L3.5804041959300292 3.089317116849939 L3.560533210930018 3.1059961558499207 L3.557563212929935 3.108489072849947 L3.544437398929958 3.122545062849964 L3.5329652299299568 3.1401667268499533 L3.5299679979300294 3.1600621528499584 L3.5327264369300195 3.1645859918499877 L3.542887105930035 3.1812494908500053 L3.555082743929958 3.18770904484988 L3.5816961059299928 3.192514952849974 L3.5927548629299935 3.200602313849968 L3.5973540659299346 3.2118419378499237 L3.598387593930042 3.225148618849941 L3.5962171839300225 3.2511935408499237 L3.611720113929934 3.3040068548499715 L3.613373758930024 3.31922556384991 L3.610583231929965 3.334185891849968 L3.599524475929954 3.3681631458499037 L3.5829880169299457 3.4433781928499325 L3.583969868929998 3.4575892118499905 L3.5967339479299625 3.4675110868498944 L3.613063700929942 3.4715676868499923 L3.626292867930019 3.4795258568499587 L3.628980041930035 3.5010749288499152 L3.628980041930035 3.50122995884996 L3.639418681929996 3.528876849849963 L3.6599859019299714 3.544147235849918 L3.7135226849299983 3.557092181849937 L3.728302144929941 3.570502215849883 L3.7526934209299583 3.608200173849921 L3.7676795859299403 3.624814146849941 L3.802612853930029 3.654140521849909 L3.8160487269299637 3.6704444358499284 L3.8261773069300347 3.6911408478499492 L3.8376494759300357 3.66956593684999 L3.853049052930018 3.660548399849942 L3.870412332929945 3.6632355738499722 L3.888292378930018 3.676748960849947 L3.8998678999299585 3.693957212849922 L3.9161976519300055 3.7512663768498964 L3.9274114379299334 3.7711618028499014 L3.9203834439299357 3.777207945849936 L3.909936743929947 3.7768676618499466 L3.8886541139299737 3.776174416849953 L3.870980773929986 3.778189797849917 L3.8677251589299857 3.781755470849971 L3.8620407509299497 3.791961566849947 L3.8642111619299584 3.794287006849883 L3.8629709269300037 3.820021869849965 L3.861368957929969 3.822243955849883 L3.8664849249299635 3.838470355849976 L3.8911345829299506 3.884488218849894 L3.9168694459299758 3.980606382849997 L3.8945969039299797 3.962622983849924 L3.868396952930013 3.9561117538499513 L3.81175958292998 3.9506082148499484 L3.7852495739299883 3.94161651484991 L3.757447651929951 3.927663878849925 L3.7321261999299935 3.909654641849924 L3.7135226849299983 3.888648171849921 L3.704220926930006 3.8778736358499923 L3.6708896279299523 3.8511052438499274 L3.669391011930017 3.8674091588499504 L3.6600375779299696 3.8893199658499906 L3.6482036749299454 3.909086200849968 L3.638901916929953 3.9190855908499866 L3.618231343929935 3.919395648849884 L3.6005580039300042 3.9081560248499283 L3.587070455929947 3.8920588168499517 L3.579577372930018 3.877770282849964 L3.568105203930017 3.842966205849917 L3.5609738569299765 3.8277991728499767 L3.5269707639300094 3.7814970898500047 L3.5092457479300236 3.751007993849923 L3.492450907930035 3.7318618768499174 L3.46568251592997 3.729097186849968 L3.436847066930042 3.737236224849978 L3.4135926719300045 3.751059670849939 L3.4133342899300345 3.751214700849884 L3.394472391930023 3.763177794849936 L3.3717347619300284 3.7735130798499323 L3.356787172929941 3.77663285284987 L3.263150465930025 3.796176153849883 L3.2133981729300416 3.8065601588499174 L3.205336649929947 3.805629982849963 L3.1829090779300344 3.79449371284994 L3.154590393930036 3.786742246849938 L3.1500428679300256 3.7844684838499187 L3.1374338179299883 3.7928917428499016 L3.096816142929967 3.839503884849959 L3.067050516929939 3.8991901648499816 L3.0574387009300352 3.908621112849941 L3.042555888929982 3.903453469849948 L3.0082427369300007 3.8738170358498945 L2.9928431599300183 3.863946836850003 L2.948692227929982 3.855822678849888 L2.851301412929942 3.8379019158499386 L2.837090392929994 3.8331218448499396 L2.825618225929972 3.817954811849914 L2.823292785930036 3.8048548368499535 L2.817453348929959 3.8005656928499842 L2.7953358369299366 3.8120120228498973 L2.7823133749300126 3.8211070748499605 L2.778095249929933 3.8248874708499425 L2.7686191209299835 3.8333802278499984 L2.757405334929942 3.84787546684994 L2.750945780929996 3.863636778849921 L2.7543564249299806 3.8982599888499276 L2.770014384930036 3.935828753849945 L2.805774474929976 4.0010444128499625 L2.806291239930019 4.033523049849888 L2.7820033169299876 4.0566482538499695 L2.6838697719299347 4.10584421584994 L2.6708989869299415 4.1167737828499025 L2.659271789929946 4.129460346849951 L2.618085673929997 4.191497903850005 L2.593952778930017 4.2161475618499065 L2.558347717929948 4.230281065849949 L2.5133892219300122 4.232141416849954 L2.4639717509300425 4.226132114849944 L2.440181287929974 4.223239127849935 L2.365077860930043 4.214106342849943 L2.3220830689300413 4.215940855849949 L2.306373433929977 4.219403176849978 L2.293557677929968 4.229144184849941 L2.2838425089299648 4.243691099849896 L2.275522603930014 4.25947824984989 L2.2338197229299652 4.31973296984995 L2.2232777309300076 4.329422301849972 L2.2091183879299336 4.331696064849991 L2.1908924689299596 4.327805880849992 L2.1908924689299596 4.327643119849965 L2.1887765839299362 4.321865125849937 L2.171930880929935 4.301194552849976 L2.1615955939299596 4.295172416849963 L2.1471099169299777 4.301357312849943 L2.1118722869299376 4.265387260849961 L2.1026763229299803 4.259731336849965 L2.072077364929939 4.259731336849965 L2.0551502819299543 4.2663638238499555 L2.0457101779299336 4.268886609849941 L2.037246635929975 4.266607963849962 L2.029352755929935 4.249965711849965 L2.0258534069299543 4.206996961849965 L2.013727755929935 4.198329968849945 L2.0081125209299415 4.19540028184994 L1.996149630929935 4.181647026849957 L1.9893950729299803 4.177211804849973 L1.9822336149299389 4.178432507849974 L1.9761300999299891 4.1828270398499665 L1.9698638229299803 4.1843325738499555 L1.9622140839299362 4.177211804849973 L1.9465890839299362 4.197475476849972 L1.9207101779299336 4.197923067849926 L1.8696847869299376 4.184658093849945 L1.8526763229299803 4.186529838849962 L1.8285877819299543 4.192836804849973 L1.8113351779299336 4.19149403184994 L1.7156320529299336 4.164964083849979 L1.6987863499299891 4.163539929849973 L1.6851144749299891 4.159348849849975 L1.6575265839299362 4.136236869849965 L1.6558175999299891 4.128871961849965 L1.6338449429299402 4.0890770398499665 L1.6308338759299517 4.088344617849968 L1.6165109589299362 4.0890770398499665 L1.6129302299299724 4.087408744849965 L1.6132557509299517 4.083421114849925 L1.614232312929957 4.078701062849943 L1.613337130929935 4.074794812849943 L1.6104074429299402 4.068813367849968 L1.6086984589299362 4.0539207898499665 L1.6059315319299543 4.048102104849958 L1.5984445529299336 4.067877494849965 L1.5992583549299724 4.089361869849965 L1.6059315319299543 4.126308484849941 L1.6023508029299336 4.143642468849945 L1.593805880929935 4.160976453849939 L1.5718332249299891 4.19149403184994 L1.5601144749299891 4.203456922849936 L1.5474191619299376 4.209560437849943 L1.5305734589299362 4.2116763238499555 L1.5066476779299336 4.212001843849945 L1.4937082249299891 4.2097231988499555 L1.4877674689299596 4.204352104849958 L1.4834543179299402 4.197597547849936 L1.4756418179299402 4.19149403184994 L1.4656320529299336 4.188808484849941 L1.4488677299299724 4.1882388238499555 L1.441462130929935 4.184658093849945 L1.441462130929935 4.19149403184994 L1.4627023649299389 4.2028058808499775 L1.4815011929299402 4.2211978078499595 L1.4866281459299415 4.238491101849972 L1.4656320529299336 4.246100151849957 L1.4327544479299803 4.244065645849927 L1.3953195529299336 4.252285047849936 L1.3769276259299517 4.252936088849962 L1.363418510929975 4.246547742849968 L1.3567453339299362 4.232428276849957 L1.3549549689299596 4.218349500849937 L1.3557687709299415 4.212001843849945 L1.3526763229299803 4.209194226849972 L1.3501535369299376 4.196010632849974 L1.345840385929975 4.19149403184994 L1.337946505929935 4.190842989849925 L1.3335519749299891 4.193813367849968 L1.330215385929975 4.19735340684994 L1.3253325729299803 4.198329968849945 L1.3189849169299777 4.196620984849941 L1.3096261929299402 4.192389213849962 L1.3010812709299415 4.185146375849937 L1.293106010929975 4.161953015849944 L1.283340385929975 4.151292208849979 L1.2632394749299891 4.136236869849965 L1.2466379119299376 4.143235567849926 L1.2415109589299362 4.130336804849973 L1.2463937709299415 4.112026257849974 L1.2595773649299389 4.1027489148499665 L1.267634005929935 4.095302625849937 L1.2778879119299376 4.077968640849944 L1.2866769749299891 4.058518770849927 L1.2905832249299891 4.044399304849973 L1.3069406459299415 4.020961804849973 L1.3455148649299389 4.009934786849923 L1.423721244929979 4.006679578849939 L1.4244536669299777 4.006638888849947 L1.4282785369299376 4.006516817849926 L1.4282785369299376 4.004482312849943 L1.4282785369299376 3.999721570849969 L1.4151763229299803 3.9956932508499374 L1.4117583549299724 3.9895897348499414 L1.4176177299299724 3.9462547738499705 L1.4209543179299402 3.9382388238499555 L1.4292550999299891 3.9313215058499775 L1.4409738499299891 3.925258679849973 L1.4529367399299389 3.916917208849979 L1.4619699429299402 3.9029198128499427 L1.4639230679299402 3.8914452038499387 L1.4619699429299402 3.8526268438499454 L1.4469146049299724 3.8173485238499705 L1.418106010929975 3.7672590058499775 L1.3990630419299777 3.717698458849979 L1.414118380929935 3.683803601849972 L1.3949940319299543 3.6690330938499454 L1.3853911669299777 3.665208224849975 L1.3557687709299415 3.6620343958499273 L1.3435617399299389 3.6568260628499427 L1.3347726779299336 3.6491763238499555 L1.3230539279299336 3.61336903184994 L1.3014067919299777 3.5952212448499647 L1.2725168179299402 3.5847231988499555 L1.242243380929935 3.5813866098499414 L1.2444406459299415 3.584885958849979 L1.2447661669299777 3.585699760849961 L1.2456613499299891 3.5861066618499233 L1.2495675999299891 3.588222547849936 L1.2359771049299724 3.608648979849958 L1.228571505929935 3.608648979849958 L1.2239328339299362 3.6018130418499634 L1.220759005929935 3.599086804849973 L1.2080636929299402 3.595668836849965 L1.2080636929299402 3.6018130418499634 L1.2140044479299803 3.6137759328499595 L1.2078195529299336 3.6285057508499374 L1.187555880929935 3.6570702038499387 L1.2078195529299336 3.648159070849969 L1.2097726779299336 3.658412976849972 L1.2022856979299803 3.6766014538499387 L1.1768136929299402 3.722377820849969 L1.1703846569299543 3.7409731988499555 L1.1676177299299724 3.7631899948499647 L1.1565500209299415 3.789394422849936 L1.1541086149299389 3.801113172849936 L1.1548410369299376 3.8107160368499233 L1.1597238499299891 3.826503797849936 L1.1607817919299777 3.838344617849968 L1.155247937929957 3.853359265849944 L1.1416574429299402 3.863124890849944 L1.1255441619299376 3.8665428598499414 L1.1124419479299803 3.8625145398499665 L1.1082101779299336 3.86727528184994 L1.103571505929935 3.8705304898499246 L1.091852755929935 3.8755760628499427 L1.0836333549299724 3.852016492849968 L1.062637260929975 3.837897026849957 L1.0376535369299376 3.8274803598499414 L1.0169015839299362 3.814785047849936 L0.9758859589299362 3.839321179849973 L0.9585519749299891 3.8549868698499647 L0.9622140839299362 3.869350476849972 L0.9482980679299402 3.868902885849961 L0.9363351779299336 3.870937390849944 L0.9270578339299362 3.875657442849926 L0.9207101779299336 3.883022351849972 L0.901341687929957 3.873460177849976 L0.8782297089299362 3.871059461849965 L0.8662668179299402 3.8661766488499705 L0.8796945529299336 3.848883354849958 L0.8489328339299362 3.8251610238499705 L0.8414458549299724 3.821539604849958 L0.8350981979299803 3.813482963849962 L0.8398182509299517 3.7963117398499246 L0.8479562709299415 3.780442599849975 L0.8523508029299336 3.7765770398499665 L0.8501535369299376 3.745571179849973 L0.8403879119299376 3.694342338849962 L0.838027885929975 3.666998588849962 L0.8413644749299891 3.6575584848499414 L0.8482817919299777 3.6470604378499427 L0.8555246309299349 3.6336327038499387 L0.8585356979299803 3.6154849168499634 L0.8572336149299389 3.5983543828499744 L0.8531646049299724 3.586391492849968 L0.838027885929975 3.560878797849936 L0.8357492399299389 3.5532290578499595 L0.8346099169299777 3.5448468958499273 L0.8328195529299336 3.5366274948499647 L0.8281808809299349 3.5297915578499595 L0.8215890839299362 3.5280825738499555 L0.8018136929299402 3.527757052849976 L0.7971750209299415 3.5266991098499414 L0.7991281459299415 3.515631401849957 L0.8106027559299349 3.5088768438499454 L0.8188221569299543 3.502285047849936 L0.8108468959299415 3.491949760849961 L0.8108468959299415 3.485805554849973 L0.8184152559299349 3.4739647348499414 L0.8451893439299596 3.448411349849975 L0.8735910369299376 3.4313215058499775 L0.8865304899299389 3.444789929849973 L0.892715385929975 3.444789929849973 L0.8916574429299402 3.4293683808499775 L0.8819731979299803 3.4038963758499374 L0.8796945529299336 3.389573458849979 L0.8652902559299349 3.395188692849926 L0.8586984589299362 3.3986066618499233 L0.8523508029299336 3.4038149948499647 L0.8398182509299517 3.3914452038499387 L0.836074760929975 3.3802961148499246 L0.8355050999299891 3.3671125208499273 L0.8318429899299389 3.3485985238499705 L0.8253325729299803 3.3336652558499775 L0.8105213759299517 3.312953992849968 L0.8040109589299362 3.3002179898499246 L0.8123117399299389 3.3026593958499273 L0.8152414279299336 3.303147677849976 L0.8162179899299389 3.3056297738499705 L0.8183338759299517 3.314459526849957 L0.8245187709299415 3.314459526849957 L0.8308664279299336 3.3034731988499555 L0.8411203339299362 3.294887586849965 L0.8540597869299376 3.2892316618499233 L0.8694406459299415 3.287115776849957 L0.8828683809299349 3.2926496308499775 L0.8987375209299415 3.316371961849965 L0.9138742399299389 3.321295463849962 L0.8822987189299596 3.2624168828499744 L0.8728586149299389 3.2530174688499454 L0.8774159069299543 3.242193901849957 L0.8796945529299336 3.238735242849968 L0.8728586149299389 3.238735242849968 L0.8705799689299596 3.242397351849972 L0.8660226779299336 3.2530174688499454 L0.8701730679299402 3.2609520398499665 L0.8682199429299402 3.269985242849968 L0.8616281459299415 3.277309461849965 L0.8523508029299336 3.279710177849976 L0.8424224169299777 3.2748273648499246 L0.8306222869299376 3.2569237188499454 L0.8040109589299362 3.243862195849969 L0.7968495009299517 3.2222557508499374 L0.795872937929957 3.1971906458499273 L0.7971750209299415 3.1772524948499647 L0.7903390839299362 3.1840884328499595 L0.7935942919299777 3.1636620008499374 L0.7971750209299415 3.156215711849965 L0.7878976779299336 3.1558495008499374 L0.7828521049299724 3.1531639538499387 L0.7766672089299362 3.142543836849965 L0.7769927299299724 3.177211804849973 L0.7752023649299389 3.192836804849973 L0.7698312709299415 3.2045962448499647 L0.7629953339299362 3.2045962448499647 L0.7522531459299415 3.2010968958499273 L0.7380929899299389 3.2043114148499665 L0.7241769749299891 3.211147351849972 L0.7146554899299389 3.218227429849973 L0.6941476779299336 3.190354708849979 L0.7146554899299389 3.1772524948499647 L0.7197824429299402 3.18368153184994 L0.7350005419299777 3.1977603078499595 L0.7424875209299415 3.1977603078499595 L0.7389067919299777 3.187913302849976 L0.7280018439299596 3.1747703988499705 L0.7219797089299362 3.1636620008499374 L0.7219797089299362 3.1226463758499374 L0.733372937929957 3.111741427849976 L0.7473703339299362 3.1162987188499454 L0.7639718959299415 3.1239891488499705 L0.7828521049299724 3.1226463758499374 L0.7828521049299724 3.115200086849965 L0.7705636929299402 3.1162987188499454 L0.7605539279299336 3.113491101849972 L0.7530669479299803 3.108079317849926 L0.7486724169299777 3.101568901849957 L0.7486724169299777 3.094732963849962 L0.7563221569299543 3.094732963849962 L0.7563221569299543 3.087897026849957 L0.7457427299299724 3.092454317849926 L0.7424875209299415 3.094732963849962 L0.7350005419299777 3.094732963849962 L0.7338612189299596 3.087368054849973 L0.7288156459299415 3.074225151849957 L0.7219797089299362 3.074225151849957 L0.7219797089299362 3.094732963849962 L0.7146554899299389 3.087897026849957 L0.7146554899299389 3.1089745008499374 L0.7083078339299362 3.1089745008499374 L0.709935437929957 3.0812645398499665 L0.7153879119299376 3.0601463758499374 L0.7258859589299362 3.0446027558499775 L0.7424875209299415 3.03329090684994 L0.7524159069299543 3.0288963758499374 L0.7612049689299596 3.0269432508499374 L0.7698312709299415 3.0289777558499775 L0.7798410369299376 3.036383354849958 L0.7921294479299803 3.0419578988499705 L0.8062082249299891 3.039272351849972 L0.8183338759299517 3.031012260849961 L0.8245187709299415 3.01961903184994 L0.8183338759299517 3.01961903184994 L0.8093820529299336 3.0323143438499454 L0.7955474169299777 3.03133778184994 L0.7808989799299724 3.0227928598499414 L0.7698312709299415 3.0127830938499454 L0.7629953339299362 3.0127830938499454 L0.7219797089299362 3.03329090684994 L0.7163644749299891 3.027106010849961 L0.7092843959299415 3.0146141488499705 L0.7034250209299415 3.000331922849936 L0.7009836149299389 2.988938692849926 L0.6956125209299415 2.98055653184994 L0.6721750209299415 2.9683495008499374 L0.638809135929975 2.9172020398499665 L0.6326242399299389 2.9172020398499665 L0.647435437929957 2.9499168828499744 L0.6963449429299402 3.000657442849926 L0.7083078339299362 3.03329090684994 L0.7061105679299402 3.0500145398499665 L0.6943918179299402 3.0795962448499647 L0.6941476779299336 3.094732963849962 L0.7045643439299596 3.1375389538499387 L0.703262260929975 3.1551170788499387 L0.6941476779299336 3.1772524948499647 L0.6921945529299336 3.164516492849968 L0.6826730679299402 3.146490776849957 L0.6804758029299336 3.132289929849973 L0.6768136929299402 3.1257388238499555 L0.6592355679299402 3.109096570849969 L0.6531320529299336 3.101568901849957 L0.6683338829300141 3.078775124849967 L0.6646648559300132 3.02167266684995 L0.6533477169300426 2.9819334908499524 L0.6247189739299728 2.9397655218499903 L0.5825510059300285 2.881422829849951 L0.5366623329299358 2.79450307084994 L0.5266887819300194 2.744842018849935 L0.5106174119299425 2.7101154568499037 L0.50455963292994 2.702906068849897 L0.49077366092994623 2.686499326849896 L0.4395106409300382 2.60872629684995 L0.43175917593002566 2.568987120849867 L0.4546001589299493 2.4052761828499722 L0.459612772930015 2.386259255850005 L0.4702064409299709 2.3673973578499794 L0.4960446579299713 2.3452281678499656 L0.5046746219299365 2.3311205028499256 L0.5032981169299404 2.322208215849896 L0.501625711930032 2.3113801058499615 L0.49015354493000984 2.2984609968499523 L0.4579591269299357 2.2815628048498677 L0.4443682259299493 2.267145078849948 L0.4416810509299438 2.259341937849923 L0.44002740492997816 2.2425987738499753 L0.4363067019299791 2.23438222084995 L0.4292787069299351 2.227767637849949 L0.40437066692997803 2.213246560849994 L0.3280962519299777 2.137643939849964 L0.29817559792995496 2.116249896849949 L0.24133152292999682 2.097698057849909 L0.2354243309300017 2.093317220849995 L0.22593194593001442 2.08627756584991 L0.21880059792998452 2.0703612248499734 L0.21621677692995434 2.0490188588499745 L0.21750868793002098 2.0278315208499276 L0.22226291993000302 2.012251076849891 L0.23474335493004617 2.001439835849949 L0.234820292929939 2.001373187849934 L0.24510390293004036 1.9696955348499312 L0.24618910793002158 1.9599545278498862 L0.24386366892996136 1.9477330518499638 L0.24003961193004386 1.9409634388499182 L0.2350786739299764 1.9347881048499413 L0.22929091492993336 1.9243753038499118 L0.22288303592999625 1.90367889284998 L0.21874892193004314 1.8653608178499734 L0.21363295492999157 1.842209776849982 L0.20743178393000505 1.831125181849968 L0.20438287393004373 1.8199372338499398 L0.20582981393003763 1.8095502708499236 L0.2171469529300083 1.7975355008499445 L0.21843886392996126 1.7938406358499446 L0.2171469529300083 1.7901716098499474 L0.20862034092998272 1.7822392768499054 L0.2067599899299779 1.7780018088499485 L0.20836195992994533 1.7740744008499671 L0.21363295492999157 1.7705087268499096 L0.22091933292993815 1.7669172148499381 L0.2261903279299844 1.7626797478498855 L0.22929091492993336 1.7575121038499741 L0.22964399293003623 1.7522821308499612 L0.22970432592994428 1.751388446849914 L0.2127027789299376 1.7413373808499824 L0.20272922893001066 1.728185728850006 L0.1868128869299852 1.6966631048499448 L0.14144097993003868 1.644469907849965 L0.12159722893004243 1.6108543898499317 L0.06873403292995306 1.47484073184995 L0.06775038692994428 1.4723098738499782 L0.06661350593002169 1.4020299258499858 L0.07317641293001031 1.3412067658499591 L0.06893894492996822 1.2656041448499291 L0.06907556692998185 1.2628668308499282 L0.06966241492993674 1.2511089058499731 L0.06893894492996822 1.2431248968499187 L0.06506321192999565 1.2340298448499407 L0.05431451392995257 1.217131651849952 L0.05297092693000138 1.2064604678499489 L0.07178114893001464 1.1828701768499439 L0.11084853092994251 1.1785551948499613 L0.19177382392994957 1.1852989688499047 L0.2527520149300102 1.1803121938499412 L0.2720789999300308 1.1736459338499383 L0.3191045539300461 1.146980894849987 L0.3372946579299736 1.142019956849948 L0.3020513309299844 1.119437355849909 L0.2806056119299427 1.0988701358499195 L0.28189752193001993 1.0777603138499767 L0.31393691092993947 1.0535757438499171 L0.41449924793003845 1.0055683378499634 L0.43816705392997335 0.9856729108499547 L0.44219781492999743 0.976267800849909 L0.4435414019299486 0.9557005808499195 L0.44602187092998236 0.9455203238499461 L0.4508277799300089 0.9370712268499499 L0.46865614892998053 0.9153154488499506 L0.4767176719299613 0.8978746528499055 L0.4939259249299397 0.8433560168499934 L0.5123744099299614 0.8113941438500074 L0.5369723919300071 0.7874679558499178 L0.5945399369299906 0.7434654728499464 L0.6093193979299798 0.7268514998499409 L0.6128850709299485 0.714061582849963 L0.6124199829300068 0.6991012558499943 L0.6157789519300394 0.6761569198499569 L0.6228069459300372 0.6605247998500072 L0.6436325479299825 0.6314826448499229 L0.6508155729299432 0.6153595968499399 L0.6532443649299893 0.5956967148499057 L0.6534768349299469 0.5825233998500021 L0.6535544229300143 0.5781267288499361 L0.6581536259299554 0.5619778428499398 L0.673604878929936 0.5465007508499422 L0.690451395930026 0.5388268008499448 L0.7273483689300377 0.5284656768499314 L0.7444015919299858 0.5186988308499831 L0.7564768319299873 0.5085972038499431 L0.8245517379299798 0.4516486598499636 L0.857572977930019 0.43423370284993545 L0.8777784629300385 0.42772247184995926 L0.9381365359300133 0.4189633168498954 L0.9828248479299617 0.40553836984994796 L1.0132223919299435 0.39640655384995505 L1.0809185189300337 0.39656158384990015 L1.1024159149299493 0.39400359984999334 L1.1197791959299792 0.3864071648499401 L1.1476327929300254 0.3666667668498871 L1.1620505169299662 0.3626360058499767 L1.1657712199299652 0.364961444849909 L1.1710422169299903 0.3699482208499614 L1.1787936809300135 0.3745990998499291 L1.1892323209300315 0.3758910108498821 L1.1965703739300437 0.3730488068499067 L1.2343975219300063 0.34752064884996337 L1.2729481409299837 0.3284003688499677 L1.28979465792996 0.3256098408499195 L1.3076747029300435 0.33152679284992637 L1.321162252929966 0.34005340484993773 L1.3356833299299495 0.3431281518498803 L1.356353901930035 0.3329220568499931 L1.362451720930025 0.3249897248499547 L1.3640020149299374 0.316902362849957 L1.366999247929968 0.3096676618498986 L1.3766110639300422 0.304189960849909 L1.3867396439299995 0.3034923288499112 L1.396713195930019 0.30630869384996906 L1.4049297489299732 0.3115280138498928 L1.4110275679300202 0.31791005384992665 L1.4134046839299543 0.32814198684991247 L1.411234273929992 0.35186146884994507 L1.414438211929948 0.36098235984992577 L1.421776264930017 0.36366953384995604 L1.4560894169299416 0.36594329784997903 L1.5147938439300077 0.38049021284993323 L1.5337590949299482 0.38263478484991076 L1.5468332319299947 0.38147206484990015 L1.555049784929949 0.3795083608499663 L1.563576395930042 0.3794308458499369 L1.5779941209299722 0.38408172484990466 L1.5887944949300135 0.3903862488499197 L1.5987163699299884 0.39785349384994895 L1.6098784789300424 0.40420969484988056 L1.6247096149299836 0.4070518988499412 L1.6423312789299729 0.405036517849906 L1.647550597929964 0.3991454048499872 L1.6500827439300423 0.3912130728499488 L1.6593845019299778 0.38289316684989494 L1.7135414019299873 0.3801801548499508 L1.7409299119299675 0.40240101984997345 L1.7755014449300432 0.3948820998499354 L1.7846112359300008 0.3905016738499665 L1.7852714069299935 0.3901842318498989 L1.8132769169300076 0.3767178328499039 L1.849760477930019 0.3670285018499708 L1.855703267930025 0.3699998968499738 L1.8608192349300197 0.3759943638499106 L1.8678989059299482 0.38111032984998694 L1.880456278929941 0.38147206484990015 L1.8880010379299819 0.3778547148499154 L1.9128057259299425 0.35144805784993416 L1.9143560179299897 0.34612538584990027 L1.9165781049299966 0.34325734284992215 L1.9252080689300186 0.3434898868498788 L1.9221074829299454 0.34710723684996303 L1.9230376589299425 0.35604725984990004 L1.9287220669299785 0.365168150849966 L1.9408143519299728 0.3694831328499344 L1.958694397929989 0.3645997098499105 L1.9719235639300194 0.35434193784992196 L1.9870130819299874 0.3463837678499555 L2.010784240929965 0.3483991488499196 L2.064941141929964 0.36984486784993287 L2.178732645929969 0.3860454298499416 L2.1855539349300415 0.3887842808498885 L2.1921685179299715 0.39054127884996426 L2.1980555389299496 0.3904274418499494 L2.2015219529300083 0.39036041184991 L2.207051330930014 0.387389016849907 L2.2134592089300185 0.3817821238498862 L2.2215207319299424 0.3762527448499764 L2.2321660769299427 0.3734622178499176 L2.2503561819299733 0.37692453984996455 L2.2660658169300376 0.3839266958499632 L2.282395568929971 0.38707895784992097 L2.3023426719299636 0.37899159584992326 L2.3134014289299643 0.3669251488499423 L2.3230132449299816 0.3516547638499059 L2.3341753539300356 0.33746958284994655 L2.349988341930029 0.32850372184991095 L2.366111389930026 0.32819366384992854 L2.3909160769299405 0.338554787849942 L2.4079176229299577 0.337831317849945 L2.414273824930021 0.3328187038498793 L2.424195699929996 0.316902362849957 L2.4324122519300175 0.31349171884992977 L2.4405771289300304 0.3173932888499831 L2.4457447719299665 0.3352216578499263 L2.4524110309299516 0.34062184584990796 L2.467500549929966 0.337521258849959 L2.497472880929976 0.3144218938498806 L2.5112188109299467 0.307600604849922 L2.527806945929953 0.30925425084988767 L2.5413978479300425 0.3173932888499831 L2.554627014929949 0.3276252228499583 L2.570956767929985 0.33571258384986713 L2.5780364389299706 0.33602264284995265 L2.596898335929936 0.33333546784991874 L2.6060967409299423 0.33369720384992085 L2.6137965299300134 0.3369011428498947 L2.629764546929934 0.3472364288498948 L2.637722717930032 0.3511896758499642 L2.6551681879299593 0.3542529228499358 L2.694670145929976 0.3611890658499828 L2.7133770149299465 0.36682179684991745 L2.71828627492998 0.37896575784992415 L2.7185446579299963 0.39250498384990173 L2.713842102930002 0.4378252148499069 L2.715495747930035 0.44635182584992883 L2.747276753929995 0.5036351508499006 L2.7648984179299845 0.5230913268498778 L2.7868609019299555 0.5334007758499677 L2.8409661259300236 0.5169418328499074 L2.871765278929999 0.4667640168499627 L2.8945545859299813 0.4169996118499437 L2.923855123929954 0.4017292268499073 L2.923803446930023 0.4333035268498815 L2.9275241499299653 0.4564545678498728 L2.9369809369299418 0.47717681784990695 L2.9964605099299746 0.5650267528499722 L3.014857320929977 0.5826484158499579 L3.0217302859299338 0.5862140898499302 L3.036148009930045 0.5906324248499271 L3.043486063929933 0.5950765978499373 L3.069014221929976 0.6299065138499014 L3.0773341269300403 0.6374771108499555 L3.087411031929989 0.6414045198499263 L3.103637430929993 0.6434198998498726 L3.132007791929979 0.6437299588499581 L3.1617217409299627 0.6395958448499339 L3.1896270149299397 0.6303199248499123 L3.2133981729300416 0.614946185849929 L3.2300379849300356 0.6105536898499349 L3.244817443930046 0.6024146518499247 L3.2727227169300335 0.5831393418498987 L3.280784240929947 0.5882811468498925 L3.2884840289300286 0.5943531278499403 L3.295098612929948 0.6013811228499417 L3.300938049930025 0.6093134548499943 L3.3160792439299343 0.6034481798499183 L3.3341143189299345 0.6111221308499903 L3.349410542929988 0.6267284128499409 L3.3568002729299877 0.6444792678499578 L3.37245823192994 0.6334463488499562 L3.3826901659300432 0.6340147898499122 L3.3928187459300005 0.6404226678499594 L3.4088901169299533 0.6470630888499596 L3.423204487930022 0.648613381849982 L3.4447018839299943 0.6454611198499247 L3.4555539349300233 0.6459262078499517 L3.48356256092994 0.6605247998500072 L3.4984453739299823 0.6849935898499648 L3.509710835930022 0.7127696728499142 L3.526660705930041 0.737315977849887 L3.6125986129300003 0.8106189968499944 L3.63512782192997 0.8226710298499409 L3.639211974930035 0.8248558538498809 L3.6641200159299814 0.8303593938499585 L3.688717996929981 0.8278789248499816 L3.7135226849299983 0.818189593849949 L3.7369837859300077 0.8191714458499302 L3.7887635699299693 0.8320130398499099 L3.808710672929962 0.8309278348499145 L3.823386779929976 0.8134612008499698 L3.821526428929971 0.7665131618499128 L3.8336187139299653 0.7512944528499741 L3.848036437929963 0.7371092718499295 L3.865968159930034 0.7254562358499594 L3.8816261189299865 0.7124596138499282 L3.889015849929976 0.6939077738498991 L3.8841065879299634 0.6750717148499614 L3.8708257449299452 0.6604731228499059 L3.85480605092998 0.6471664418499881 L3.841266825929935 0.6323094668499447 L3.815738667930006 0.5729590848499253 L3.8001323859300413 0.5556216418499229 L3.765819233929946 0.5344343048499507 L3.752021626929988 0.5216960638499 L3.7435983689299945 0.5015422548499213 L3.7475257769300327 0.47671172984988 L3.7440634569299363 0.4574880968499553 L3.732953023929994 0.4415200788499174 L3.7135226849299983 0.42617217884993686 L3.708716776930018 0.41544931984992495 L3.7073731889299637 0.40410634184995153 L3.708975158929988 0.39260833684993024 L3.7135226849299983 0.3816270948499447 L3.7336764939299627 0.3850635778498752 L3.777704813929958 0.3998171988498864 L3.7949647429299347 0.3990420518498734 L3.7976519169299507 0.39436533484990655 L3.8001323859300413 0.3786298608499248 L3.8030779419300274 0.3745474238499167 L3.808193908930022 0.37403065884988784 L3.8189942829299497 0.37475412884997006 L3.834548888929973 0.3738239528499161 L3.8585784309300237 0.37795806684994027 L3.8936667279300394 0.3799217718499772 L3.912787007929964 0.3778030388499882 L3.9287033499299895 0.36857879484999323 L3.94348280893 0.34757232484989053 L3.9502007449300294 0.3260749288499465 L3.960329325929976 0.27398508584989933 L3.969631082929979 0.2570093778498812 L3.9755221969299868 0.2631071968499423 L4.036293680930029 0.29959075884994313 L4.046008850929965 0.3019937118500007 L4.059703104929994 0.30297556484997124 L4.072983947929956 0.299358214849887 L4.079546290929997 0.29848173784993826 L4.133342020929987 0.2912966908499879 L4.1587668259299875 0.28101308084990073 L4.169050435929975 0.2615052278499075 L4.173029520929944 0.26083343384992297 L4.180367573929956 0.25483896784998983 L4.184708394930041 0.247991839849929 L4.173132873929987 0.24176482984993974 L4.172202697929933 0.2350468948499138 L4.173856343930012 0.22786386984986784 L4.176026754929964 0.22365224084991375 L4.185328511930024 0.21838124484997756 L4.196232238929994 0.2195698028500015 L4.208996317929959 0.22277374084988644 L4.224395894929941 0.22365224084991375 L4.224395894929941 0.2174510688499378 L4.217057841930043 0.21486724684993241 L4.212717020929958 0.2099838238499938 L4.21049493492994 0.20282663884995422 L4.210133199930041 0.19321482284995106 L4.2117868449300175 0.18339630084997616 L4.21669610693003 0.180579933849911 L4.223310688930027 0.1799856558499453 L4.230597066929974 0.17647165784990015 L4.252042785930016 0.15711883384993364 L4.257985575929965 0.16246734484989922 L4.270542948929958 0.18151010984996496 L4.27452203393004 0.1942225128499171 L4.279793029929962 0.22579681184990186 L4.283307027930036 0.2353569528499957 L4.291988667929999 0.24052459584990338 L4.314933003930022 0.24545969484993968 L4.32521661393001 0.25150583784997416 L4.344905334929976 0.28083221384994594 L4.361596510929971 0.28987574184992404 L4.373947489929932 0.2965676868499241 L4.44670790593004 0.31816843484999247 L4.451048726930011 0.3216307568499399 L4.458800191930024 0.32958892684990637 L4.463451070929963 0.3358676138499117 L4.471202534929986 0.35075042584995053 L4.506239155930004 0.3991454048499872 L4.532542460929946 0.42488026784989863 L4.546443420929947 0.43454376084991786 L4.560396056930003 0.4398922708499651 L4.575382222929974 0.44040903584990865 L4.614139546929934 0.41911834584992214 L4.618842101929985 0.41477752584994043 L4.62462986292995 0.4119353218498798 L4.635223530929963 0.4111601758499557 L4.64431858393003 0.41415740784996835 L4.663025451930011 0.4255520618499684 L4.673154032929958 0.42730906084994835 L4.685659728929963 0.42395009284993357 L4.689277078930033 0.4188082868499361 L4.689690490930033 0.4126071158499496 L4.700645894929934 0.38707895784992097 L4.713203267930041 0.38444345984990314 L4.7174924119299675 0.38204050584995564 L4.736922749929974 0.3523265568498868 L4.766119933930028 0.31723825984994214 L4.766791728929988 0.3121998078499768 L4.769892313929958 0.3113729838499477 L4.7825013639299385 0.3167473338500013 L4.79888279293003 0.3294338978499507 L4.807409403929952 0.34134531484998654 L4.81810642592994 0.3466938258499521 L4.840327290929949 0.33984669884989493 L4.870971415929986 0.31992543484997604 L4.8982565719299345 0.2959475698499556 L4.9063697719300166 0.2803154488499171 L4.912002502929951 0.2632105488499672 L4.920115702930033 0.25129913184993136 L4.935050191930017 0.2513508078499438 L4.935153543929957 0.25140248484995986 L4.935360249929985 0.25150583784997416 L4.935515279929959 0.25150583784997416 L4.950759826929968 0.25401214484996437 L4.959286438929993 0.24949045684993898 L4.9698284299299615 0.2292074568499327 L4.971947164930029 0.209157001849972 L4.973445779930032 0.2025424178499815 L4.977424865929933 0.19765899484995764 L4.9890003869299875 0.19083770684998846 L4.994064676929938 0.18649688584991786 L5.011738016930039 0.16210560984990074 L5.02682753492995 0.14895395784992438 L5.045224344929963 0.1502458688499626 L5.072251118929998 0.16923695784993065 L5.091113017929999 0.1858509308499503 L5.100931539929988 0.18954579584995024 L5.119690084929957 0.19342152784990496 L5.142996155929936 0.2035759468499645 L5.154468322930015 0.204041034849892 L5.16738743093002 0.1937574248499896 L5.17048801692998 0.18608347484990695 L5.17048801692998 0.17758270184989833 L5.169299458929956 0.16913360485000162 L5.169867899929997 0.16122711084994812 L5.1728134569300295 0.1531397488499504 L5.179996480929944 0.14355377084994636 L5.183355448929987 0.13792103984992643 L5.191313618930039 0.11528676184997089 L5.197773172929985 0.10867217884996982 L5.213327778930008 0.1012049348499442 L5.246452371930033 0.054024351849930596 L5.259939920929966 0.04288807984999998 Z M1.5239816619299376 4.232428276849957 L1.5381418179299402 4.242031140849944 L1.5454660369299376 4.263149304849973 L1.5444080939299596 4.284267468849945 L1.5342355679299402 4.2939110238499705 L1.5178781459299415 4.293666882849974 L1.5033924689299596 4.290940645849927 L1.4915109589299362 4.2828840058499775 L1.4829660369299376 4.266607963849962 L1.4912668179299402 4.264329317849926 L1.4954172089299362 4.261481010849961 L1.5034738499299891 4.252936088849962 L1.4968820529299336 4.2409731988499555 L1.4999745009299517 4.233648979849958 L1.509821505929935 4.230882052849976 L1.5239816619299376 4.232428276849957 Z M1.0366769749299891 4.016445203849939 L1.0409901259299517 4.0202700738499555 L1.0496164279299336 4.02157215684994 L1.0571034069299543 4.026373588849962 L1.0577544479299803 4.0406965058499775 L1.0445708549299724 4.045253797849936 L1.0327707249299891 4.05086903184994 L1.0232492399299389 4.059820854849958 L1.0169015839299362 4.074794812849943 L1.0082752819299543 4.067836804849973 L1.0037179899299389 4.056240125849937 L1.0012765839299362 4.0454165578499595 L0.9995675999299891 4.0406965058499775 L1.0003000209299415 4.0382957898499665 L0.9683989799299724 4.026373588849962 L0.9531808809299349 4.014125867849968 L0.9414621309299349 3.999843640849944 L0.9380441619299376 3.9851138238499555 L0.9478911669299777 3.9717674688499454 L0.9680734589299362 3.964809461849965 L0.9846750209299415 3.9694888238499555 L0.9983468959299415 3.980678601849972 L1.0100656459299415 3.9928856328499744 L1.0122629119299376 3.99618153184994 L1.0142160369299376 4.0031395398499665 L1.0169015839299362 4.006516817849926 L1.0225168179299402 4.008063041849963 L1.0289458549299724 4.007574760849961 L1.0344797089299362 4.009039604849958 L1.0366769749299891 4.016445203849939 Z M0.7766672089299362 3.389573458849979 L0.7813058809299349 3.400803927849976 L0.7864328339299362 3.409348849849975 L0.7882231979299803 3.4165916878499427 L0.7828521049299724 3.4237531458499273 L0.7881418179299402 3.437343640849944 L0.7874093959299415 3.4560203988499705 L0.7828521049299724 3.4740461148499246 L0.7766672089299362 3.485805554849973 L0.7629953339299362 3.49227528184994 L0.7471261929299402 3.492397351849972 L0.7376047089299362 3.4872703988499705 L0.7424875209299415 3.478359265849944 L0.7315011929299402 3.467454317849926 L0.7280832249299891 3.446539604849958 L0.7288156459299415 3.4100812708499273 L0.7212472869299376 3.3673566618499233 L0.7210031459299415 3.342779838849962 L0.7288156459299415 3.321295463849962 L0.7304432509299517 3.325649304849973 L0.7332101779299336 3.330410047849936 L0.7350005419299777 3.3349266488499705 L0.746231010929975 3.3254051648499665 L0.7559152559299349 3.3243879118499233 L0.7637277559299349 3.330287976849972 L0.7761789279299336 3.355475151849957 L0.7768299689299596 3.3662987188499454 L0.7756906459299415 3.3766340058499775 L0.7766672089299362 3.389573458849979 Z M0.7698312709299415 3.245571179849973 L0.7748768439299596 3.2549705938499454 L0.786107312929957 3.2714093958499273 L0.7903390839299362 3.279710177849976 L0.7903390839299362 3.287115776849957 L0.7857004119299376 3.2941551648499665 L0.7744699429299402 3.3157616098499414 L0.7698312709299415 3.321295463849962 L0.759902885929975 3.320522351849972 L0.7590890839299362 3.310512586849965 L0.7629953339299362 3.287115776849957 L0.7539621309299349 3.2709211148499246 L0.7408599169299777 3.2522036668499634 L0.7354074429299402 3.2337303598499414 L0.7486724169299777 3.218227429849973 L0.7659250209299415 3.228359265849944 L0.7698312709299415 3.231899304849973 L0.7720285369299376 3.2370669488499555 L0.7719471569299543 3.241909070849969 L0.7708078339299362 3.2452049688499454 L0.7698312709299415 3.245571179849973 Z M1.0737049689299596 4.163539929849973 L1.0754953339299362 4.164028211849965 L1.0784250209299415 4.167690320849969 L1.0784250209299415 4.175055229849958 L1.0741932509299517 4.182867729849958 L1.0696359589299362 4.193935437849943 L1.0630441619299376 4.202317599849975 L1.0523019749299891 4.1958071828499595 L1.0317127819299543 4.164313041849963 L1.0247140839299362 4.148403211849965 L1.0286203339299362 4.134731336849965 L1.0420480679299402 4.129360242849968 L1.0533599169299777 4.128017468849945 L1.0590565319299543 4.130133354849958 L1.0610910369299376 4.137132052849976 L1.0514067919299777 4.150844617849968 L1.0507557509299517 4.155442599849975 L1.0503488499299891 4.160488172849936 L1.0520578339299362 4.168382052849976 L1.0571034069299543 4.1730614148499665 L1.0642648649299389 4.173590385849961 L1.0711008029299336 4.167934461849965 L1.0737049689299596 4.163539929849973 Z" fill="black" stroke="black" stroke-width="0.5" vector-effect="non-scaling-stroke"/></svg>