<svg xmlns="http://www.w3.org/2000/svg" viewBox="0 0 7.856720587860067 11.655121143119892"><path d="M2.8940489774299962 11.029646143559983 L2.594945787430042 11.029697819559996 L2.2957392444300453 11.029749496559926 L1.9966360544300628 11.029749496559926 L1.9816561764300715 11.029752084559956 L1.7619530974300162 11.029790042559906 L1.697532864429995 11.029801172559939 L1.5629674344300426 11.029801172559939 L1.5427102724300354 11.026493880559936 L1.4794583204300338 10.994919580559948 L1.4620950384300428 10.99083714255995 L1.4441116404300303 10.984170882559933 L1.4187901884300729 10.96685927755993 L1.395639146430078 10.946395410559969 L1.3828233914300014 10.93053074555996 L1.3806529814300958 10.909911849559958 L1.3838569204300697 10.88924127655994 L1.3830300974300584 10.870534407559955 L1.371541645430021 10.85366428455998 L1.3841555784300041 10.841823464559948 L1.3841555784300041 10.835597878559977 L1.3911542764300222 10.81846734455993 L1.3948977664299989 10.632472878559977 L1.4251712034300041 10.498439675559975 L1.4424238074300249 10.457301980559944 L1.4462486774300416 10.440863178559962 L1.4497480264300222 10.313991433559945 L1.4599205524300416 10.26849989655997 L1.4753014114300456 10.22707737055995 L1.4940188594300068 10.198146706559978 L1.5153404744300403 10.172267800559975 L1.5277102664299989 10.144924050559975 L1.5299889114300456 10.113185769559973 L1.4916588334300442 9.96731174555995 L1.4740807084300442 9.943711485559984 L1.4740807084300442 9.937445209559964 L1.4836021934300376 9.937689349559971 L1.4899498494300403 9.935939675559975 L1.5014244584300442 9.93060927155997 L1.5014244584300442 9.923854714559948 L1.4858808384300275 9.925075417559949 L1.475057271430039 9.922511941559971 L1.467000630430043 9.917100157559982 L1.4599205524300416 9.910182839559948 L1.4534915164299989 9.901068256559963 L1.4272870884300275 9.851833230559944 L1.3529055784300041 9.75865289155993 L1.310994771430039 9.722316628559977 L1.2140709434300376 9.65635796955993 L1.2362063594300068 9.651475157559982 L1.2606204224300015 9.639308816559971 L1.3427330524300416 9.57668674555995 L1.3647870884300275 9.568223204559981 L1.3915611774300416 9.567531472559974 L1.359578755430043 9.558294818559968 L1.3315839634300275 9.569240456559978 L1.3056236774300416 9.58608615955998 L1.2788495884300275 9.594875222559974 L1.2104088334300442 9.601019428559962 L1.1982018024300416 9.595404193559968 L1.1933189904300363 9.582627500559934 L1.1979576614300456 9.568955625559934 L1.2140709434300376 9.560736224559971 L1.1845299274300416 9.490423724559971 L1.1370852664299989 9.424505756559963 L1.123494771430039 9.399196511559946 L1.1178795364300456 9.375759011559946 L1.1429446414299989 9.399928933559945 L1.148641255430043 9.403102761559946 L1.1535240684300376 9.407578672559932 L1.1615807084300442 9.429307188559928 L1.166219380430043 9.437201068559968 L1.1789146934300376 9.443141823559952 L1.1962486774300416 9.445217019559973 L1.234578755430043 9.444688047559932 L1.2244876094300068 9.439357644559973 L1.1930748494300403 9.430446511559946 L1.1829837034300041 9.424831277559942 L1.1790774534300041 9.420680886559946 L1.176229146430039 9.41543186255998 L1.1693932084300442 9.406520730559944 L1.1611738074300249 9.385768777559942 L1.1641034954300196 9.360256081559978 L1.1757408654300363 9.336370990559967 L1.1930748494300403 9.320583230559944 L1.2309980264300222 9.354396706559978 L1.2516685994300403 9.359320209559964 L1.2617597454300196 9.33482476655993 L1.2954511514300222 9.351589089559948 L1.3083092244300403 9.361232644559973 L1.3164472454300196 9.375759011559946 L1.3223066204300196 9.365138894559973 L1.322469380430043 9.354640847559974 L1.3178307084300442 9.344509011559946 L1.3102623494300403 9.33482476655993 L1.3134361774300416 9.334377175559975 L1.3239342244300403 9.33482476655993 L1.2768964634300275 9.317897683559945 L1.2548424274300416 9.304958230559944 L1.248250630430043 9.286403542559949 L1.2611900834300442 9.272975808559945 L1.2869876094300068 9.264064675559975 L1.3153079224300015 9.259466693559968 L1.336385396430039 9.259059792559949 L1.3363040164299989 9.254665261559946 L1.3349205524300416 9.251613503559977 L1.3301191204300196 9.245387917559949 L1.3327232864300456 9.244045144559973 L1.3349205524300416 9.244167214559948 L1.336385396430039 9.243068581559978 L1.336385396430039 9.237941628559977 L1.236776021430039 9.255031472559974 L1.2065839634300275 9.252223855559944 L1.1908775834300442 9.235052631559963 L1.1956790164299989 9.209621316559971 L1.2118736774300416 9.186631407559982 L1.2311607864300456 9.176540261559946 L1.2475995884300275 9.161566303559962 L1.2908938594300068 9.09585178455998 L1.3202721154300363 9.080959206559978 L1.324422505430043 9.07558811255998 L1.3288170364300456 9.065578347559974 L1.3265383914299989 9.059718972559974 L1.3102623494300403 9.066676980559944 L1.291463521430039 9.080470925559975 L1.2829185994300403 9.089707579559981 L1.2754316204300196 9.101467019559973 L1.2685956824300249 9.101467019559973 L1.2685956824300249 9.080959206559978 L1.2508547974300015 9.094386941559971 L1.2183027134300275 9.14394748755998 L1.2003990684300376 9.16347873755998 L1.1785891724300015 9.17474989655997 L1.1513268024300416 9.182399636559946 L1.131307271430039 9.178615456559978 L1.1315514114300456 9.156032448559952 L1.1178795364300456 9.169704323559952 L1.0985924274300416 9.159613178559962 L1.080526021430039 9.141221250559934 L1.070516255430043 9.118190652559942 L1.0762128704300196 9.094631081559978 L1.0620527134300275 9.079535053559962 L1.0504967244300403 9.084010964559948 L1.0223391724300015 9.115098204559981 L1.0248619584300442 9.118434792559949 L1.0292564904300363 9.124294167559949 L1.0371503704300196 9.127305235559984 L1.0462649534300041 9.129258360559984 L1.0563560994300403 9.135524636559946 L1.0573326614300456 9.140081928559962 L1.0675865684300376 9.163926329559981 L1.0789797974300015 9.17592990955998 L1.0955813594300068 9.189316954559981 L1.1044518024300416 9.205959206559978 L1.0905357864300456 9.224961485559984 L1.0762128704300196 9.21926487055995 L1.0690514114300456 9.21771864655997 L1.0620527134300275 9.214748269559973 L1.0488691204300196 9.20449436255998 L1.0360110474300015 9.183376198559952 L1.0303144324300249 9.179225808559945 L1.025838521430039 9.176784402559942 L1.0231529744300403 9.172634011559946 L1.0223391724300015 9.16347873755998 L1.009969380430043 9.164943581559978 L1.0011803184300376 9.168849831559978 L0.9960533654300363 9.17592990955998 L0.9943443804300429 9.187038308559945 L1.0213626094300068 9.20327365955998 L1.0285240684300376 9.211330300559975 L1.0308027134300275 9.223049050559975 L1.0283613074300249 9.231878803559962 L1.0243736774300416 9.241481667559949 L1.0223391724300015 9.255641823559952 L1.0252688594300068 9.263291563559928 L1.0410566204300196 9.27199924555995 L1.0488691204300196 9.279567605559944 L1.0360110474300015 9.285426980559944 L1.0202232864300456 9.289658750559934 L0.9840904744300403 9.293239480559944 L0.9653730264300222 9.29112359455993 L0.9311933384300275 9.281683490559967 L0.9154869584300442 9.279567605559944 L0.8857018024300416 9.264552956559978 L0.8745527134300275 9.230413959559964 L0.8795982864300456 9.19346734455993 L0.8981529744300403 9.169704323559952 L0.8981529744300403 9.16347873755998 L0.8734133914299989 9.169053282559982 L0.8622643024300416 9.18569553455998 L0.8563235474300015 9.203151589559948 L0.8223066204300196 9.234564349559971 L0.7926842244300403 9.229396706559978 L0.7826744584300442 9.231146381559963 L0.7830813594300068 9.212835834559964 L0.7851972454300196 9.198838438559928 L0.7825930784300041 9.187282448559952 L0.7684329224300015 9.176540261559946 L0.7567141724300015 9.174505756559963 L0.7384850054300429 9.174505756559963 L0.7207441204300196 9.176377500559934 L0.7106529744300403 9.179958230559944 L0.6953534954300196 9.177516823559952 L0.6421308384300275 9.143988178559962 L0.5553795364300456 9.102972553559962 L0.5431725054300429 9.094631081559978 L0.5413821414299989 9.066432839559948 L0.5604251094300068 9.006496316559971 L0.562947896430039 8.97793186255998 L0.5322675574300249 8.949489480559944 L0.508260396430039 8.915879454559981 L0.49092641143004556 8.877345925559975 L0.4667564904300363 8.73488987055995 L0.47204620343000414 8.710313047559932 L0.4980064904300363 8.665798073559952 L0.5076907344300068 8.642116433559945 L0.48555531843003763 8.666774636559946 L0.4725344844300068 8.673773334559964 L0.4667564904300363 8.659531797559932 L0.46919789643003895 8.64740614655997 L0.4735110474300015 8.635158425559975 L0.4762779744300403 8.622218972559974 L0.4735924274300416 8.608018125559934 L0.4657799274300416 8.600775287559966 L0.4438886514300222 8.592922097559974 L0.4360761514300222 8.57668674555995 L0.4282636514300222 8.565456277559942 L0.41898630743002485 8.555690652559942 L0.41158070843004424 8.552760964559948 L0.40767445843004424 8.565781797559932 L0.43868031843003763 8.61269748755998 L0.44567901642999885 8.635361875559934 L0.43981964142999885 8.650824115559967 L0.43070505743002485 8.654567605559944 L0.42256703643004556 8.647975808559945 L0.41898630743002485 8.632188047559932 L0.37056508343004424 8.59426487055995 L0.3699954224300015 8.607122943559968 L0.37146026642999885 8.617620990559967 L0.37618031843003763 8.625270730559944 L0.38480662043001956 8.62905490955998 L0.37154164643003895 8.653224831559978 L0.3671471154300363 8.65639865955998 L0.36039255743002485 8.653957253559977 L0.34053578643004556 8.642279193559968 L0.33638539643003895 8.63877984455993 L0.3289797974300015 8.630316303559962 L0.31254099543001956 8.624172097559974 L0.29610219343003763 8.614935443559968 L0.28853383343004424 8.597682839559948 L0.2778730264300222 8.560736224559971 L0.2332766724300015 8.49660862055995 L0.2270917764300222 8.45713921955993 L0.21065297443004027 8.482326394559973 L0.2173261514300222 8.511338438559928 L0.23246287043001956 8.541408425559975 L0.2576907344300068 8.63418186255998 L0.26680531843003763 8.642116433559945 L0.2782799274300416 8.647731667559949 L0.28853383343004424 8.65639865955998 L0.2946373494300403 8.682277566559971 L0.2736412554300429 8.694118386559946 L0.14864125543004292 8.703517800559975 L0.13741078643004556 8.698146706559978 L0.14229359943004027 8.685736224559971 L0.15466339142999885 8.672064349559971 L0.16573109943004027 8.66262424555995 L0.15368682843000414 8.656927631559963 L0.1425377404300363 8.656846250559934 L0.13464385943000678 8.66221734455993 L0.12837758343004424 8.68370171955993 L0.12032094343003763 8.68760796955993 L0.10933461543003631 8.686875547559932 L0.09753448443000678 8.68370171955993 L0.08223500543004292 8.668361550559975 L0.0770266724300015 8.644476459559964 L0.08190948443000678 8.626572813559928 L0.09753448443000678 8.62905490955998 L0.10274281843003763 8.61615614655997 L0.12406443243002485 8.580674375559934 L0.1103111774300416 8.59076552155997 L0.09769724543001956 8.590968972559974 L0.08809438043004292 8.582424050559975 L0.08321156843003763 8.566351459559964 L0.08565297443004027 8.553086485559984 L0.09313995343000414 8.539455300559975 L0.11055531843003763 8.519191628559977 L0.1396080524300416 8.49941623755998 L0.14522328643004556 8.491318907559982 L0.14554880743002485 8.47903049555995 L0.14164255743002485 8.467067605559944 L0.1396080524300416 8.45518609455993 L0.14522328643004556 8.442897683559945 L0.15205922443004027 8.450343972559974 L0.14847849543001956 8.410752500559934 L0.1503502404300363 8.39073296955993 L0.16198760943000678 8.382025287559966 L0.16613800043000282 8.380112852559957 L0.16708364543006127 8.380092106559896 L0.18413686843000932 8.363529810559978 L0.18041616542998185 8.349189600559992 L0.1774189314300756 8.335366154559932 L0.17421499243010174 8.314075464559945 L0.18299998743008672 8.298753402559978 L0.2102851424301022 8.278625431559927 L0.21638296143006386 8.260538680559915 L0.25565705043003817 8.19852696155996 L0.25565705043003817 8.198371932560004 L0.2705398624300628 8.177598006559972 L0.2798416204299983 8.157857609559908 L0.29462108043002644 8.114216862559953 L0.30082225143001295 8.10085850455992 L0.32025259042998044 8.071196232559952 L0.33027781842999815 8.060525049559953 L0.34143992843004156 8.055460758559985 L0.3532221544300498 8.053419539559936 L0.3636607934300784 8.04866530755994 L0.37089549443003733 8.035772037559934 L0.3976638864301023 7.899914697559918 L0.39663035743003405 7.889269352559932 L0.3883621284299963 7.8651106205598715 L0.3872252474300737 7.851907292559968 L0.39363312443003196 7.827722722559908 L0.41513052043006127 7.785425562559919 L0.42174510443006596 7.763049666559933 L0.4212283394300229 7.741939844559905 L0.41771434143006303 7.722612858559952 L0.41626740143006913 7.703053329559932 L0.42246857343004507 7.681400903559943 L0.43745473943001656 7.6619447265599625 L0.4562649604300404 7.643961328559978 L0.47145783143005104 7.624453475559886 L0.4759020054300649 7.600320581559924 L0.46567007143007544 7.5736555425599725 L0.4468598494300906 7.553966821559921 L0.42453563143001105 7.5367327315599475 L0.4043818224300466 7.517250716559953 L0.39125600843006936 7.491955102559967 L0.39890412143005705 7.477589054559967 L0.41657746043005517 7.4645407565599236 L0.4341474474300284 7.443069197559904 L0.43859162143004227 7.4179544525599646 L0.4298066274300467 7.400513656559934 L0.41905792943003206 7.384648991559924 L0.4171975774300378 7.364365991559918 L0.4278429234300276 7.347907047559939 L0.4631896024300133 7.324290918559921 L0.4766254744300724 7.307289372559904 L0.49367869743002046 7.2909337815599535 L0.5151760934300498 7.293982690559897 L0.5369835474300757 7.3018116705599105 L0.5546568874300633 7.29964125955993 L0.5582742384300659 7.286592961559887 L0.5604446484300567 7.258119247559943 L0.5658189974300214 7.251323796559898 L0.5818386904300539 7.243055566559942 L0.5944477404300912 7.229593856559898 L0.6158417834299925 7.198717187559904 L0.6158417834299925 7.198562158559962 L0.7081358914299685 7.102883244559958 L0.8452851434300257 6.992631575559908 L0.8708133004300791 6.956974838559926 L0.8993386914300388 6.896900985559906 L0.9129812694300412 6.88142389355998 L0.9267271994300685 6.873904972559952 L0.9385094264300662 6.872716414559928 L0.9511184764300751 6.873801619559924 L0.9669314644300968 6.872871444559873 L0.9948367384300738 6.856050765559896 L1.0251191274299956 6.7977339115599555 L1.0545746934300197 6.779414616559887 L1.0605607124300533 6.777198444559925 L1.1005667184299952 6.762387231559952 L1.120927233430045 6.752232813559981 L1.1367402214300384 6.736807397559897 L1.1600979684300725 6.692675725559905 L1.1749807804300119 6.680221704559923 L1.2046430534299972 6.6742530765599035 L1.2167764544300823 6.674181009559984 L1.2524954294300628 6.67396885655992 L1.2650011264300858 6.6640986575599435 L1.2659504764300138 6.661101753559958 L1.3417923044300366 6.421684513559878 L1.3604991724300177 6.400652205559961 L1.3842703314299953 6.402357528559929 L1.4037006704299628 6.411840153559904 L1.4231310084300546 6.41752456155994 L1.4465921094300072 6.40770603955988 L1.6914350454300333 6.201000309560012 L1.7148961454300249 6.1877194665599085 L1.7288487824300134 6.190665023559912 L1.7370136584300369 6.2068914225599165 L1.7513797064300363 6.280478662559911 L1.7618183464300543 6.2999606775599055 L1.782798977430069 6.316238753559926 L1.81039419243006 6.324403629559949 L2.0679495314300524 6.320734603559952 L2.0685696474300173 6.298255355559942 L2.072703762430045 6.282597395559986 L2.080868639430058 6.2690581705599975 L2.0931676304299955 6.252625065559936 L2.0994721544300248 6.247922510559956 L2.1051565624300608 6.246578922559902 L2.1093940294299998 6.243271631559903 L2.115285142430018 6.166687158559892 L2.123760077429999 6.1290667155599685 L2.1361624214300647 6.0927381845599875 L2.1506318224300216 6.064574528559941 L2.169131985430049 6.088138981559947 L2.1745063344300135 6.137334944559921 L2.192593085430012 6.151649317559912 L2.218948066430066 6.16033095755996 L2.2889179554300014 6.197279606559999 L2.371083482430002 6.2280787605599635 L2.4038463404301 6.250196273559975 L2.420176093430051 6.290090478559929 L2.4293744984300574 6.335617415559891 L2.4494249534299897 6.379309839559962 L2.4813609894300654 6.411142521560006 L2.5745852734300954 6.428144068559927 L2.608691718430059 6.454860782559987 L2.627915351430083 6.495039209559916 L2.6310159374300426 6.542684880559957 L2.6293622904300875 6.582398218559941 L2.632566230430051 6.621439762559955 L2.649412747430027 6.698670191559938 L2.669049791430062 6.746290022559972 L2.685482896430038 6.761405379559886 L2.712354641430032 6.765126083559988 L2.7742469534300582 6.758667297560006 L2.803718573430068 6.7555917805599925 L2.809092923430022 6.757348780559976 L2.8202550324300475 6.764402612559987 L2.8274897334300064 6.76543614155997 L2.833484199430039 6.762852319559965 L2.8441295444300394 6.753369694559904 L2.8478502474300385 6.751199284559998 L2.858805651430025 6.752181136559965 L2.8805097524300365 6.757503808559928 L2.8914651564299945 6.7581239265599 L2.9161664904300935 6.752284489559994 L2.9417980014300653 6.739649601559872 L2.961331692430001 6.7214853355599296 L2.967636217429991 6.698670191559938 L2.973734036430038 6.657225691559969 L2.98872020143002 6.623403466559889 L3.0150751814299994 6.602138615559905 L3.0545559764300023 6.598237044559948 L3.081737780430096 6.583095850559939 L3.1054055854300415 6.550307153559924 L3.1343443874299837 6.482921085560005 L3.1408556184300593 6.456307723559885 L3.1434394404300505 6.429177596560006 L3.138581855430054 6.411220035559932 L3.1165676954300565 6.386467024559916 L3.1100564644300945 6.371506698559937 L3.1156375194300026 6.344712468559958 L3.1337242704300294 6.319339339559971 L3.19521922543003 6.263115381559981 L3.2530968294300564 6.226786849559925 L3.2568175324300555 6.221567529559902 L3.26043488243004 6.208493392559955 L3.2644656444300537 6.203790836559886 L3.2692198754300463 6.202550602559935 L3.279451810430025 6.203584131559918 L3.2906139194300508 6.2009486335599 L3.3062202014300723 6.200328515559928 L3.313041490430031 6.197899724559971 L3.3188292504300065 6.19004490555994 L3.3205862504300896 6.180433089559923 L3.323480129430088 6.171441390559973 L3.3383629424300167 6.161881250559983 L3.38084097043005 6.12348566155995 L3.3923131374300723 6.116612696559894 L3.4059557164300074 6.11242690455995 L3.417117825430033 6.113460433559933 L3.4261095244300677 6.117594547559957 L3.434584459430077 6.119971663559905 L3.444196275430066 6.116044255559938 L3.4532913284300477 6.0933583005599665 L3.4408889834299927 6.068295231559954 L3.401924954429994 6.026023909559878 L3.352212226430076 5.954348698559993 L3.3381562364300734 5.942463118559967 L3.31438507843 5.937967269559945 L3.308597317430035 5.932127832559953 L3.3165554874300867 5.923239485559943 L3.334435533430046 5.909855290559914 L3.354692695430053 5.8908900395599595 L3.416704413430004 5.79900934255998 L3.475515769430011 5.741849709559954 L3.538144029430093 5.680980371559922 L3.5648090684300584 5.641396224559966 L3.580518703430009 5.630544173559922 L3.5930244014300214 5.619175358559925 L3.596951809430088 5.598814843559904 L3.5826891144300177 5.540162093559953 L3.581035468430052 5.519078109559938 L3.5841360544300116 5.497063948559951 L3.5909573434300555 5.476548405559978 L3.6269241404300416 5.411487776559905 L3.7262462434300048 5.274080143559967 L3.764073392429985 5.23475437855998 L3.7697577994300318 5.220233300559936 L3.767070624429998 5.203696843559936 L3.760145982430025 5.179150537559874 L3.7546682814300354 5.140754948559941 L3.754564928430021 5.10192010955998 L3.7602493354300393 5.077632186559892 L3.80107371743005 5.019909611559907 L3.8056836744300924 5.00695189555999 L3.80872182943002 4.998412215559963 L3.809652004429971 4.978516789559958 L3.7937356634300485 4.897746525559921 L3.791255195430061 4.8522454275599465 L3.799006659429999 4.8090956055599285 L3.8219509964300116 4.776642806560002 L3.8437584504300375 4.76762526855995 L3.8822057154299827 4.774058984559911 L3.9032897004300295 4.7711134275599925 L3.915175279430052 4.762664331559915 L3.923133449430104 4.751166325559975 L3.929541328430041 4.739048201559893 L3.9370860874299964 4.72884210655992 L3.96716177043006 4.708068180559888 L3.9758434114300414 4.698869775559967 L3.9752232944300587 4.671171207559947 L3.9724327664300105 4.656986027559906 L3.948971666430019 4.6002969805599 L3.940806790430024 4.5858275795599575 L3.9682986524300006 4.594638411559952 L3.9825613474300425 4.5969121745599715 L3.9964106314300167 4.595620264559923 L4.01222361943001 4.58879897455996 L4.023799140430064 4.580711613559966 L4.0363048364300695 4.574252059559921 L4.054494940429997 4.572159163559942 L4.067517401430045 4.575854029559945 L4.099763495430004 4.590555974559944 L4.114542955430032 4.593398177559916 L4.1299425324301 4.589729150559929 L4.2323652214300225 4.536089013559941 L4.250141914430053 4.516710352559979 L4.264818020430049 4.4845159345599335 L4.273603014430044 4.456248926559947 L4.280837714430099 4.4444925385599525 L4.292206529429983 4.438937321559944 L4.306469224430053 4.439505762559914 L4.319181627430019 4.4417795255599195 L4.331583970429982 4.441986230559888 L4.344916490430016 4.436353500559942 L4.366517239430088 4.4067945805599145 L4.3776793484300285 4.363903142559959 L4.400210273430041 4.175439193559949 L4.392975572430053 4.138981469559948 L4.394112454429994 4.098596338559968 L4.414162910430029 4.050976506559945 L4.460361640430072 3.9686817875599694 L4.466562812430048 3.9514476975599955 L4.470386868430005 3.932973373559971 L4.471317043430041 3.8933892255599254 L4.46325552043006 3.863416894559972 L4.4535403514300285 3.8431855715599816 L4.425118313429998 3.8387672365599705 L4.420364081430016 3.8354599445599824 L4.427392076430031 3.817295679559944 L4.4340066594301035 3.812515608559945 L4.492711087430074 3.784920393559954 L4.500979316430026 3.77928766255992 L4.512038072430009 3.7683064205599344 L4.540976874430065 3.731331934559986 L4.554412747430028 3.720815780559928 L4.623659166430052 3.6908951255599014 L4.702310696430025 3.6788803555599365 L4.767423001430011 3.6531971685599522 L4.795431627430013 3.5822712645599886 L4.800392564430062 3.517494857559978 L4.813311673429972 3.450082951559974 L4.823026842430032 3.426156762559966 L4.832431953430067 3.409697819559991 L4.834912422430044 3.393678124559951 L4.823957017430068 3.371173039559931 L4.794914862429998 3.3412782235599074 L4.784682929429998 3.3252585295599566 L4.78302928443005 3.302650090560004 L4.790677395430031 3.2823670905599975 L4.814241848430036 3.24565098555993 L4.818375963430064 3.221931502559979 L4.8144485544300935 3.2027337085599576 L4.802459622430028 3.1700483645599853 L4.802149563430042 3.150075423559951 L4.819926256430072 3.115994816559901 L4.853309231430039 3.103308252559952 L4.931754055430069 3.0948591555599556 L4.950357571430025 3.0867976325599606 L4.964642452430063 3.078449121559938 L4.973922024430031 3.073025862559927 L4.995212715429993 3.0569286535599467 L5.006891588430072 3.0419941655598954 L5.0228079294299945 3.0082494555599304 L5.024978339430071 2.9948910975599823 L5.023324693430048 2.983289738559943 L5.016503404430004 2.9629292245599963 L5.016813462430058 2.9499326015598903 L5.039137682430031 2.887817529559907 L5.073244127429994 2.699069360559914 L5.110761216430085 2.5739865565599267 L5.1382530794299655 2.516393172559983 L5.316381740430067 2.264909814559953 L5.321809308430083 2.252964716559884 L5.328990790429991 2.237159570559921 L5.322376207430004 2.1992032315599026 L5.326820380430085 2.1786876875599255 L5.337879136430097 2.1615052745599534 L5.354002184430094 2.1478885335599607 L5.392036038430028 2.126132756559951 L5.404024970430065 2.1106039885599266 L5.421181545430038 2.070838973559926 L5.445159410430044 2.028903548559935 L5.478232327430042 1.987381535559944 L5.515852770430051 1.949683577559906 L5.554300035430025 1.9191428065599148 L5.585099189430075 1.9190394535599715 L5.624476630430074 1.930253239559928 L5.694549872430024 1.9596829675600098 L5.715220445430042 1.9626802015599303 L5.737441312430057 1.95707330755992 L5.75873200143004 1.9461695805599497 L5.776612047430028 1.9332763105599433 L5.804103909429976 1.9051126555599858 L5.8162995474300985 1.899970849559903 L5.843274644430032 1.8967669115599328 L5.851129462430059 1.893562972559959 L5.940219632429965 1.81240513555991 L5.959029852430085 1.802018172559979 L6.018251044430052 1.7837247155599094 L6.039231676430056 1.7715549155599142 L6.07592194243005 1.7391021155599837 L6.096902574430025 1.7265705815599794 L6.148579007430065 1.7080704185599522 L6.165735582430038 1.698975366559889 L6.177724515430093 1.680681909560004 L6.188163153430047 1.6567298835599154 L6.195811266430006 1.631925195559969 L6.1995319694300335 1.6110479165598939 L6.199118557430005 1.5857264655600112 L6.193330797430029 1.5656243335599491 L6.182168687430014 1.5485711105599158 L6.1658389354300525 1.532396387559924 L6.160567938430027 1.525730127559921 L6.157053942430075 1.518598779559877 L6.152919827430047 1.5121392255599169 L6.145478421430049 1.5076950525599209 L6.1284251984300155 1.5079017585599637 L6.124394436430002 1.5064031415599537 L6.115299384430038 1.4943108565599736 L6.113852444430044 1.485577539559909 L6.118503323430097 1.476792546559917 L6.1551935904300805 1.4290435225599474 L6.162634996429993 1.412248682559973 L6.184029039430008 1.3104461105599192 L6.195397854430091 1.278871810559945 L6.199118557430005 1.245333805559934 L6.198911851430061 1.2382024575598898 L6.197154853430071 1.2272987305599337 L6.178241278430043 1.184148910559994 L6.176277574429996 1.164976953559897 L6.194157619430051 1.1534014335599458 L6.191883856430046 1.142911116559997 L6.209143785430022 1.0711842285599964 L6.215138251430055 1.0595570315599439 L6.220099189430009 1.0535625655600107 L6.222579658430071 1.0473097175599229 L6.241906643430035 1.0279827315599697 L6.240252998430087 1.017337386559884 L6.235395413430062 1.007828922559991 L6.22350983443004 1.0016277505599156 L6.215138251430055 1.0047800135599623 L6.201288967429996 1.0119113605599033 L6.188266506430061 1.0164588875599456 L6.1825820994300145 1.0118596845598908 L6.1760708684300525 0.9910857585599437 L6.160257880430059 0.9782183265599507 L6.140104071430066 0.9676763355599824 L6.120467027430031 0.953827051559923 L6.13028554943002 0.9485043785599707 L6.1341096064300515 0.9470057615599607 L6.1341096064300515 0.9395643555599484 L6.1231542014299905 0.9349651535598973 L6.093491930430098 0.9130543465599423 L6.086360582430068 0.9060263515599409 L6.084396877430031 0.896776270559922 L6.089564521430042 0.8820484865599205 L6.086360582430068 0.8718682295599471 L6.059075425430045 0.8576055335599726 L5.995100002430085 0.8422576335599068 L5.7895311554300335 0.8361081375599433 L5.774131578430051 0.8329041995599589 L5.760902411430031 0.8249977055599196 L5.751807359430067 0.80980483455998 L5.75108388943007 0.7981259605600108 L5.7570783564300925 0.7675335125599041 L5.757388414430004 0.748361556559896 L5.752186710430003 0.7318761565599594 L5.7506704784300595 0.7270708665599095 L5.7493268904300905 0.649814599559928 L5.69310293243003 0.3836163780599371 L5.636878974430054 0.11741815655996035 L5.990139065430036 0.11426589355999894 L6.007398993430023 0.12511794455995684 L6.053011206430021 0.19489857655993248 L6.054114488430024 0.19658645055997326 L6.068273831430069 0.21159845455995807 L6.076645413430036 0.2264037515599675 L6.079642645430049 0.24296604855997472 L6.07809235343003 0.2633265625599073 L6.062589423430005 0.3090602055599412 L6.062072659430065 0.321798445559903 L6.072407945430079 0.33629368555993366 L6.103000393429987 0.3591605065599417 L6.120983792430074 0.37719558155994193 L6.120983792430074 0.4149452155599924 L6.123050849430051 0.4238335615599276 L6.12677155243005 0.4285102785599797 L6.13266266543004 0.42918207255987895 L6.141344306430021 0.4260039715599184 L6.141344306430021 0.4357966555599653 L6.142687893430086 0.44502089855997085 L6.147235419430096 0.45049860055996405 L6.156847235430028 0.44905166055997014 L6.17596751543001 0.43460809755994134 L6.1825820994300145 0.43305780455993315 L6.190333564430027 0.4362100675599798 L6.192297268430046 0.44135187255997366 L6.192710680430075 0.4475530445599638 L6.196224677430017 0.4535216725599831 L6.213691312429965 0.464502913559965 L6.220099189430009 0.4702906745599442 L6.236428941430056 0.47943740355992404 L6.265987861429998 0.47168593755992205 L6.281904202430091 0.47716363955991525 L6.28872549143005 0.493596744559877 L6.274049384430064 0.5264112795598912 L6.285624905430005 0.5428960615599685 L6.300817776430044 0.5181947275599548 L6.30608877243008 0.5149907885599809 L6.315287177430058 0.5182464035599672 L6.324072170430064 0.5264629565599925 L6.330686754430069 0.5365915365599498 L6.333373929430074 0.5460483235599263 L6.340815335430015 0.5621713715599093 L6.358178616430017 0.564186751559955 L6.391148180430086 0.556590316559987 L6.4027237004300375 0.5771575365599766 L6.435796617430007 0.6999407395599455 L6.432075914430008 0.7053150885599102 L6.424014391430028 0.720714664559889 L6.422154039430005 0.7272775715599629 L6.421533922430051 0.7383880055599796 L6.422980862430045 0.7402483565599844 L6.427425035430041 0.7408684735599529 L6.435796617430007 0.748361556559896 L6.433832913430074 0.7434006195599459 L6.437863674430069 0.7428321785599046 L6.44437490543006 0.7450025875599771 L6.449439195430038 0.748361556559896 L6.450472724430021 0.7523406425599681 L6.448819078430056 0.763812809559905 L6.449439195430038 0.7682053065599881 L6.463185126430055 0.7927516115599609 L6.480238349430003 0.8685092615599466 L6.478274645430069 0.8774492845599688 L6.476827705430075 0.9470057615599607 L6.475070705430078 0.9591497235599711 L6.470006415430014 0.9759445635599313 L6.470006415430014 0.987933496559986 L6.4729002954300014 0.9953749035599166 L6.4778612334300405 0.9997673995599108 L6.482098700430008 1.0050383955599322 L6.483545640430002 1.0152703295599217 L6.479411526429963 1.0219365895599246 L6.471866767430008 1.0236419105599843 L6.46680247643004 1.0280344085598863 L6.470006415430014 1.0426071625599427 L6.475070705430078 1.0495318035599261 L6.500702216430049 1.066791732559917 L6.522716376430047 1.092061507559972 L6.5367723654300605 1.1029652345599423 L6.548761298430001 1.1012599125599785 L6.565814521430035 1.088702539559872 L6.583797919430019 1.0867905115599505 L6.602401435430004 1.0944903005599365 L6.621418362430056 1.110820052559884 L6.616560778430021 1.1170212235599557 L6.612840075430022 1.1278215985599012 L6.612530015430046 1.1397588545599397 L6.6176976594300285 1.1493189945599447 L6.625035712430041 1.1573805175599254 L6.625655829429995 1.1635300135599032 L6.623175361430036 1.1711781255599725 L6.621418362430056 1.1834771165599243 L6.631650295430028 1.1981015465599931 L6.648806871430075 1.2125709475599216 L6.653147691430057 1.2237330565599613 L6.624518948429987 1.228177230559961 L6.620281481430048 1.2326214035599712 L6.622555244430053 1.2425432785599604 L6.627516181430103 1.2529302415598913 L6.631340237430059 1.2586146485599379 L6.635370998430055 1.2681231125599162 L6.628549710430086 1.2769597825599242 L6.6189378944300685 1.285228011559962 L6.61397695543004 1.293031152559987 L6.61614736643002 1.3180942225599033 L6.622968655430064 1.333803858559957 L6.634750882430062 1.3419170575599644 L6.6518041044300205 1.3441908205599837 L6.658315334430078 1.3549395185599984 L6.682913317430057 1.4125070635599535 L6.677332262430035 1.4226873205599126 L6.661105862430041 1.4377768395599126 L6.6555248074300195 1.447233626559889 L6.657281806430085 1.4513677415599169 L6.667927151430085 1.4612896165599913 L6.669167385430022 1.4677491705599515 L6.665033271430097 1.4725034025599477 L6.658315334430078 1.473226871559941 L6.6518041044300205 1.4728134605599301 L6.648083401429993 1.4739503425599416 L6.640228583430051 1.4952927085599406 L6.638471585430004 1.5147747235599347 L6.641365465429992 1.5346184735599273 L6.65717845343007 1.5795252935599358 L6.667720445430028 1.59725030955995 L6.695832424430073 1.632235254559955 L6.70761465143007 1.6645847015599422 L6.694282131430036 1.6921799155599437 L6.648083401429993 1.7420993495599042 L6.638988349430029 1.7598502045599211 L6.632580471429996 1.7792805425599987 L6.626275947430081 1.8313187105599376 L6.621418362430056 1.8466924485599172 L6.621418362430056 1.858138777559926 L6.624518948429987 1.8656060225599553 L6.629789944430023 1.8700501955599655 L6.634234117430047 1.8753728685599178 L6.6350609404300585 1.8854756105599613 L6.6283430034300395 1.9019862305599382 L6.605295315429991 1.9351366625599518 L6.600231025430098 1.950923812559946 L6.593203030429997 2.0128580165599708 L6.60080076743008 2.115188273559891 L6.607155667430071 2.200779362559924 L6.634440822430001 2.264703109559985 L6.644672756429991 2.2796375985599546 L6.650977281429981 2.2972592615599403 L6.647566636430064 2.3219089195599416 L6.6350609404300585 2.364645329559945 L6.637851467430032 2.402291610559981 L6.714229235430075 2.548200016559928 L6.721877346430055 2.572281234559963 L6.7204304064300615 2.588068384559957 L6.710405178430044 2.605715885559956 L6.7043073594299685 2.6300038085599446 L6.703687242430014 2.654705143559962 L6.710198472430072 2.6737479085599425 L6.716399644430048 2.679096419559894 L6.7255980494300545 2.6834372395598756 L6.736656806430055 2.6863311205599523 L6.7480256214300525 2.6874163255599477 L6.75856761343001 2.689535059559926 L6.76528554943004 2.694211775559989 L6.770143134430064 2.6989143315599726 L6.790296943430029 2.708190251559895 L6.799185289430049 2.725269311559938 L6.813137926430038 2.762502181559949 L6.82760732743008 2.7783668465599582 L6.840733141430029 2.789063867559971 L6.850344957430046 2.801130314559952 L6.854169013430003 2.8208190355599037 L6.8562360704300644 2.846114648559972 L6.862540595430055 2.8664234865599774 L6.873392646430027 2.8836575765599655 L7.011162014430049 3.0101614825599476 L7.048369046430047 3.0626647385599135 L7.062631741430032 3.0709588055599646 L7.062114976430074 3.0752996265599357 L7.108107001430078 3.114883773559992 L7.1747695994300145 3.1544162435599326 L7.209909573430046 3.1654491615599305 L7.2532144234301015 3.2041289715599497 L7.235747789430057 3.2092966155599463 L7.011368720430021 3.2637118985599294 L6.954938056430073 3.2652105145599357 L6.786886298430026 3.211311996559896 L6.727458401429963 3.2088832035599317 L6.681569730429992 3.213869979559984 L6.672681383430067 3.2165054775599167 L6.661415921430027 3.223223413559932 L6.643639228429997 3.23944981355994 L6.633200588430064 3.2461677495599695 L6.604985256430091 3.2525497885599 L6.5743928094300585 3.2503535405599955 L6.516101793430032 3.2365817715599654 L6.470109768430028 3.2349281255599145 L6.3445360384300145 3.273659611559932 L6.304435126430029 3.2715925545599696 L6.012463284429991 3.200098210559954 L5.768311024430027 3.2162596455599974 L5.753667711429976 3.2172289465599953 L5.745502834430049 3.2203812105599603 L5.743125718430029 3.22779677755997 L5.742608954430061 3.2375636235599323 L5.740335191430056 3.247666365559976 L5.69175934543005 3.3433969565599817 L5.66044342743006 3.3857716305598977 L5.578691311430042 3.4561290935599196 L5.517919826430038 3.5427646325599476 L5.519573473429993 3.55764744555999 L5.608456936430024 3.6266354825599443 L5.893297431430021 3.9522486815599187 L5.903115953429982 3.9951917965599755 L5.92151276343008 4.02705031855994 L6.143669745929991 4.204416752559933 L6.365826728430015 4.381783186559925 L6.3818464224300655 4.386795801559895 L6.391148180430086 4.383798568559964 L6.399933173430064 4.382248274559952 L6.40871816643007 4.382403304559983 L6.418019924430091 4.3844186855599325 L6.431869208430037 4.39209263555993 L6.4713500024300785 4.421083114559902 L6.480238349430003 4.430565739559977 L6.485302639430067 4.44296808255994 L6.491917222430054 4.447696476559937 L6.4992552764300555 4.450331974559941 L6.506386623430096 4.456403955559988 L6.512071031430047 4.46575739055994 L6.521062730429996 4.4911305175599345 L6.523439846430044 4.503300317559944 L6.523439846430044 4.512576237559951 L6.527057196430029 4.5191908205599525 L6.540493069429964 4.523247420559951 L6.577803453430015 4.5287767985599565 L6.603228258430015 4.536657454559911 L6.623898831430033 4.551617781559965 L6.640538641430048 4.571539046559888 L6.682706610430095 4.6402687015599575 L6.740480862430097 4.696802718559919 L6.755673733430022 4.7162588955599 L6.782676702430045 4.7735840915599645 L6.917317613430036 5.059416243559934 L6.978502509430079 5.273821761559898 L7.012712307430057 5.355987288560012 L7.059841213430069 5.390455468559974 L7.081338609430013 5.391385644559943 L7.1127578804300455 5.398568669559989 L7.1348753934300575 5.402961165559983 L7.1341519234300605 5.505228825559964 L7.120922757430058 5.564605046559901 L7.09394765943005 5.61933038855997 L7.053019925430014 5.6721437015599285 L7.045268459430012 5.68630304355997 L6.991421617430085 5.758856754559982 L6.987494208430029 5.774566389559947 L7.006924546430007 5.792498112559922 L7.004754137430091 5.805675602559912 L7.000413316430034 5.806605778559952 L6.98160309543001 5.80774265955996 L6.975195217430063 5.809034571559916 L6.969407457430002 5.8146673025599505 L6.96113922743006 5.831255436559953 L6.9573151724300075 5.837043197559932 L6.910186265430006 5.873216699559958 L6.833291734430013 5.916159814559929 L6.818534146430032 5.928675227559932 L6.795877997430061 5.947889144559948 L6.777067776430037 5.9951730795599865 L6.763218492430063 6.018065738559908 L6.75856761343001 6.029072819559911 L6.757327379430073 6.038529606559873 L6.762184963429995 6.096613916559956 L6.759497789430064 6.106794174559919 L6.751022854430055 6.117026107559905 L6.728078518430031 6.127619775559975 L6.718983466430068 6.133562565559981 L6.708131416430028 6.150099023559886 L6.700896715430041 6.168909245559899 L6.6851870804299764 6.230714257559978 L6.652217515430031 6.317323958559921 L6.631030179430063 6.359130192559885 L6.6141836624300865 6.404631291559948 L6.6065355494300135 6.418635604559949 L6.59433991143009 6.428867537559935 L6.534291897430073 6.458710677559932 L6.518065497430079 6.469666080559914 L6.504422920430066 6.485117334559998 L6.4938446664300145 6.508992653559968 L6.379262600430046 6.767606551559961 L6.354147854430032 6.801790511559954 L6.351977444430041 6.813185165559954 L6.356318264430023 6.836723779559943 L6.356628323430009 6.847601668559999 L6.354354560430004 6.858634587559987 L6.344225979430028 6.877083073559998 L6.3068122424299915 6.924961288559924 L6.29099925442997 6.937544498559941 L6.148372300430019 7.005628198559943 L6.1069278024300715 7.005318140559947 L6.097936103430008 7.021337833559908 L6.082949937430037 7.0400705405599915 L6.054114488430024 7.0683375485599775 L6.039024970430027 7.072807560559891 L6.015873928430032 7.095157617559959 L6.002541408430083 7.1073274175599686 L6.003781643430038 7.110789738559998 L6.004679731429995 7.116283921559937 L6.005538642430103 7.121538436559927 L6.0010944684300895 7.13122776755996 L5.997993883430063 7.135542749559942 L5.994479886430092 7.144043522559951 L5.990139065430036 7.148280989559904 L5.984868069430085 7.1483843425599325 L5.974429430430057 7.14052952555998 L5.969675198430075 7.141459701559949 L5.962233792430048 7.149624576559955 L5.959236558430028 7.156368351559987 L5.961406968430019 7.164352360559956 L5.969675198430075 7.176237939559993 L5.9780467804300415 7.1843769785599925 L5.989518948430053 7.1981487475599515 L6.004298408430081 7.209956812559948 L6.0188711614300345 7.22538222655994 L6.025795804430025 7.241531111559933 L6.030136623430103 7.258997746559981 L6.037681383430048 7.274733220559948 L6.054114488430024 7.285766138559946 L6.071167711430057 7.285869490559971 L6.102586981430072 7.28948684155996 L6.117366442430004 7.287833195559923 L6.144444892430066 7.271219222559903 L6.156743882430014 7.271994369559916 L6.169973049430091 7.2919156335599205 L6.174933987430045 7.312017765559897 L6.189403388430058 7.330440414559899 L6.196017971430074 7.43710056955997 L6.2030459664299755 7.457357731559878 L6.19632803043006 7.471801294559992 L6.1825820994300145 7.526268253559902 L6.1648054064300695 7.571536808559909 L6.162118232430053 7.587117252559931 L6.163461819430033 7.604454696559937 L6.168526109430097 7.6181747885599655 L6.1825820994300145 7.641739241559971 L6.18919668243003 7.657526391559966 L6.190850328430052 7.669954573559945 L6.189403388430058 7.700107772559928 L6.18609609743006 7.710546411559871 L6.171523343430003 7.73876174355993 L6.168216051430015 7.755298201559935 L6.169249580429998 7.783926945559909 L6.1648054064300695 7.795373275559921 L6.1515762404300105 7.800024154559974 L6.1512661814300245 7.807801457559986 L6.142791246430015 7.8244671065599185 L6.132766018429997 7.83994419855993 L6.127908433430058 7.8440783125599545 L6.125944729430039 7.857178288559918 L6.120363674430102 7.874903304559933 L6.111578681430039 7.891827336559924 L6.10000316043007 7.902395166559895 L6.091838283430057 7.904823959559959 L6.09586904643006 7.915727685559926 L6.1116820344300535 7.93360773155997 L6.1324559594300965 7.946811059559959 L6.175554104429999 7.961151269559959 L6.196431383430074 7.9713573655599355 L6.212451076430021 7.987170353559929 L6.22350983443004 8.007892603559963 L6.2308478874300235 8.03086277756 L6.235188707430005 8.053574569559967 L6.234982001430062 8.103959090559965 L6.239426175430047 8.14263890055997 L6.232294827430017 8.179613387559922 L6.23210293643006 8.183966915559974 L6.231468004430091 8.198371932560004 L6.235395413430062 8.20968907155989 L6.2418032904300205 8.218293197559927 L6.2464541694300735 8.227827498559915 L6.244077054430015 8.254595890559894 L6.2477977574300425 8.264646957559929 L6.253585517430103 8.27446547955989 L6.258959866430068 8.286531925559967 L6.2734292674299965 8.381022282559936 L6.2726024444300705 8.391125025559898 L6.268054918430032 8.415671330559956 L6.263817450430075 8.426704248559954 L6.262680569430067 8.433267155559943 L6.269295153430072 8.45019118655993 L6.276219794430055 8.526052189559945 L6.2892422554301035 8.573387801559914 L6.315700588430069 8.61542657855993 L6.351667385430055 8.650359847559923 L6.510314032430067 8.759474634559961 L6.554032294430037 8.77492588755997 L6.565917874429992 8.782108911559927 L6.572532457430064 8.79221165455996 L6.579353746430023 8.817636459559974 L6.5858649764299955 8.831149845559946 L6.620488186430002 8.873757064559921 L6.635784410430055 8.90197239655998 L6.64477610943009 8.929464257559953 L6.654904690430037 8.989899846559975 L6.6564549834300735 9.046795597559932 L6.663172919430103 9.073615665559924 L6.6745417354300045 9.082994938559974 L6.689734605430026 9.081082910559953 L6.704824124430097 9.086870671559932 L6.711232001430055 9.10082330855992 L6.714539293430043 9.11495681155996 L6.7204304064300615 9.121468042559922 L6.73438304343005 9.121468042559922 L6.749679267430103 9.123948511559998 L6.761771552430069 9.132294254559962 L6.764045315430103 9.143172144559923 L6.744408271430068 9.151595402559916 L6.722394110429995 9.156892237559955 L6.683223375430053 9.175469914559908 L6.663689684430032 9.179552352559906 L6.647153225430053 9.177433618559927 L6.615113837430037 9.169268742560003 L6.597957261430075 9.169320419559934 L6.656868394430084 9.309570256559933 L6.74327139043006 9.436435897559914 L6.824610094430049 9.522554671559913 L6.834276417430054 9.53281704155992 L6.901711331430015 9.604410140559946 L6.985943915429992 9.693526147559961 L7.089916897430037 9.803803654559925 L7.188825588430028 9.908629296559905 L7.282669989430012 10.007951400559985 L7.357600816430072 10.087429753559984 L7.365145575430027 10.092132308559965 L7.373000393430054 10.094509424559913 L7.385506089430059 10.096421452559934 L7.389536852430062 10.095284570560008 L7.401112372430013 10.08877334055995 L7.406176662430077 10.086861312559929 L7.412171128429996 10.08799819455994 L7.422919826430039 10.09497451255994 L7.4267438834300705 10.096421452559934 L7.4697386744300545 10.091873925559891 L7.485965074430048 10.097454980559913 L7.505395413430044 10.113629704559909 L7.522035224430049 10.134403629559952 L7.530200100430072 10.153885645559935 L7.5435326194300885 10.20421849055992 L7.5462197954300265 10.209644515559983 L7.549733792429997 10.214450423559907 L7.553971259430021 10.218687891559949 L7.567407131429995 10.213933659559952 L7.5780524764299955 10.211453190559975 L7.587767646430102 10.211918278560002 L7.598206285430045 10.21641412855993 L7.606164455430012 10.224785710559996 L7.627351793430073 10.255636540559887 L7.642131252430083 10.288812809559996 L7.654430243430021 10.309741764559984 L7.6643521194300135 10.332117659559966 L7.667142646430072 10.358627670559965 L7.6588744174300345 10.382243799559983 L7.631899319429998 10.409218896559917 L7.628178616430084 10.435573877559971 L7.6320026724300405 10.46957696955992 L7.6312792024300435 10.483581282559921 L7.634586494430032 10.492211247559961 L7.644818427430032 10.49257298255996 L7.658254300430052 10.490454248559981 L7.671070054430054 10.491436100559948 L7.68243887043004 10.493968245559937 L7.673343818429963 10.507559147559942 L7.665695706430078 10.52228693055994 L7.662285061429962 10.533500716559981 L7.665075588430021 10.55391290755993 L7.680475165430089 10.588794499559906 L7.683472398430034 10.60920668955995 L7.678821520430056 10.628378645559959 L7.6632152374301015 10.662640120559967 L7.662285061429962 10.684912663559924 L7.666315823430061 10.697883447559942 L7.679028225430095 10.721241195559895 L7.683472398430034 10.739534652559964 L7.683472398430034 10.776845036559902 L7.6849193394301025 10.784958235559909 L7.692877509430069 10.80583551455997 L7.705383206430064 10.830588526560003 L7.724296780430102 10.85213759855996 L7.731221422430075 10.862472884559875 L7.734838772429974 10.871567936559938 L7.736699124429997 10.880611312559989 L7.737939358430019 10.900610091559937 L7.741039944430064 10.90551935255996 L7.754889228430038 10.91425266955994 L7.758506578430023 10.917714990559968 L7.758919990430023 10.92608657255995 L7.753235582430072 10.938850651559928 L7.751685289430064 10.948410791559919 L7.764811103430013 10.955903874559947 L7.768635159430055 10.958952783559976 L7.774319567430091 10.96339695755999 L7.779693915430066 10.972336979559923 L7.771425686430028 10.983240706559894 L7.731221422430075 11.013316390559947 L7.712617907430051 10.995591374559933 L7.692360745430044 10.992077376559887 L7.676341051430079 11.001844222559935 L7.669726467430074 11.023858382559919 L7.657737535430037 11.0462342775599 L7.655463772430004 11.0576547695599 L7.6575308294300655 11.07049636255999 L7.661768296430033 11.079255518559972 L7.664455472430056 11.088505599559976 L7.662285061429962 11.102664942559937 L7.660114651430057 11.103646794559989 L7.656083890429976 11.103801823559944 L7.65163971642999 11.105145410559995 L7.648642483430045 11.109486230559977 L7.647505602430037 11.115454859559915 L7.647505602430037 11.119950708559923 L7.64812571943002 11.12258620655994 L7.648642483430045 11.123154646559993 L7.650089423430039 11.131965478559987 L7.65350006843007 11.139768619559998 L7.6537067744300415 11.148579451559993 L7.638410549430084 11.169921818559995 L7.6357233754300395 11.179533635559917 L7.636860257430065 11.216456445559952 L7.640684312430089 11.221804956559904 L7.646885484430065 11.22480218955992 L7.655463772430004 11.232398625559977 L7.673343818429963 11.262603499559983 L7.707036852430029 11.35009169955995 L7.731014716430046 11.46060174955998 L7.727810777430072 11.476337223559963 L7.7170620794300575 11.481091455559945 L7.69556468343 11.473805078559874 L7.686779690430022 11.476337223559963 L7.641821194430001 11.540855249559893 L7.602443752430013 11.490005639559879 L7.593968817430088 11.47261652055995 L7.593968817430088 11.462358749559964 L7.59686269842998 11.452927799559898 L7.598309638429974 11.443109277559937 L7.593968817430088 11.431611271559913 L7.58580394142998 11.424092350559956 L7.574745185429997 11.41949314855992 L7.562756252430027 11.419234765559946 L7.552420966430013 11.424815820559953 L7.535161037430036 11.418046208559925 L7.51573069943003 11.413782902559955 L7.50095123943003 11.406444848559968 L7.497850653430071 11.390657699559977 L7.487205309430003 11.396445459559953 L7.473769437430029 11.401664779559962 L7.461883857430102 11.402129867559989 L7.456922920430053 11.393758285559922 L7.454339097430072 11.378694605559925 L7.447621162430032 11.371640771560006 L7.437905992430096 11.36693821655994 L7.414031480430019 11.351254419559975 L7.3873664414300535 11.341978500559957 L7.374860744430059 11.335441430559879 L7.336620185430085 11.286684717559933 L7.329385485430002 11.282421411559962 L7.306027737430064 11.278700708559963 L7.293522040430069 11.273791447559926 L7.283083401430041 11.268029525559964 L7.278742581430059 11.263430322559909 L7.183761298430049 11.252862492559938 L7.09859853743 11.227592717559968 L7.054880276430019 11.219557032559901 L7.011162014430049 11.22557733555993 L6.9601057004299705 11.25585972455995 L6.939951891430091 11.26255182355997 L6.921141669430078 11.272111963559961 L6.909359442429995 11.273946476559967 L6.9097728544299954 11.271646875559949 L6.886311754430032 11.261156560559893 L6.8814541694300075 11.260329736559964 L6.87359935242997 11.251828963559955 L6.872152412429976 11.247746525559943 L6.873909410430052 11.242087955560006 L6.875252997430032 11.228987980559946 L6.873082587430041 11.221649927559962 L6.867398180430079 11.21387262455995 L6.859543362430053 11.207619775559944 L6.825540270430103 11.195088240559937 L6.820062567430021 11.192065169559921 L6.816135159430068 11.185347233559906 L6.810657457430061 11.17010268555995 L6.805696519430022 11.164108219559932 L6.784612535430078 11.155788314559967 L6.769006252430039 11.160439193559935 L6.755570380430008 11.166071924559954 L6.723634345430035 11.1544188885599 L6.7105085324300475 11.183900293559912 L6.695832424430073 11.178396753559905 L6.689734605430026 11.178396753559905 L6.679606025430068 11.1945714775599 L6.663586331430103 11.21097874355996 L6.646843167430056 11.216043034559942 L6.6350609404300585 11.198240503559898 L6.61563060243008 11.204545027559998 L6.600231025430098 11.200100855559906 L6.552688707430086 11.16229954455994 L6.542973538430026 11.160955957559874 L6.53501536743007 11.184985498559907 L6.5258169624300635 11.189584701559948 L6.504112860430062 11.192065169559921 L6.464425360429992 11.189016260559892 L6.46855947543002 11.16446995455993 L6.479308173430034 11.136513004559927 L6.459774482430042 11.123154646559993 L6.456570543430068 11.11331028655992 L6.443444729430091 11.093750757559913 L6.4289753284299636 11.079462223559926 L6.422154039430005 11.085611719559989 L6.422154039430005 11.098039901559968 L6.420190335430071 11.110209701559977 L6.4131623404300555 11.119485620559995 L6.398279528430031 11.123154646559993 L6.33678457343003 11.129950097559938 L6.3335806344300565 11.125221704559959 L6.334510810429997 11.102871647559976 L6.333373929430074 11.095817814559961 L6.328309638430021 11.095817814559961 L6.319524644430025 11.098220768559923 L6.309086005429997 11.099331811559932 L6.299267483430036 11.095817814559961 L6.305468655430097 11.093389022559915 L6.319834703430097 11.082201074559972 L6.292859605429975 11.06780918855996 L6.285624905430005 11.071426538559944 L6.292446194429964 11.095817814559961 L6.277666735430039 11.089875025559959 L6.257926337430085 11.069540349559926 L6.243973701430086 11.06106541455993 L6.218032131430043 11.062047266559983 L6.2083169624300965 11.057086328559944 L6.216791897430021 11.041221663559934 L6.192917385430029 11.030576318559948 L6.159844469430048 10.993679346559926 L6.1341096064300515 10.986599674559994 L6.12904531542997 10.993007552559941 L6.119743558430052 11.001740869559907 L6.119950263430091 11.011042627559942 L6.122224026430011 11.020241032559934 L6.119020087430037 11.02887099655997 L6.110028388430003 11.032023259559931 L6.031170152430086 11.048869776559922 L6.010706285430011 11.061427148559925 L6.004918524430046 11.063287500559934 L5.990655830429965 11.060135238559976 L5.971328844430012 11.042255192559917 L5.955619208430043 11.03331516955998 L5.892263902430038 11.024736881559956 L5.848235582430071 11.041841781559906 L5.83893382443005 11.042978662559914 L5.733720608430069 11.041996810559947 L5.5747639034300605 11.040601546559966 L5.395963446429981 11.038999577559931 L5.234236776430059 11.037645357559978 L5.192306627430064 11.037294255559967 L5.038517564430059 11.0358989915599 L4.8665383984300306 11.034348698559963 L4.866228340430062 11.00964736455995 L4.870362454430072 10.979571680559982 L4.86612498643003 10.964895572559993 L4.856616523430056 10.953165023559915 L4.84163035742997 10.93967747355995 L4.826127427430059 10.92851536455991 L4.814861965429991 10.923916162559959 L4.807937323430103 10.925518132559997 L4.793571275430104 10.931460921559914 L4.784269518430072 10.931357568559886 L4.777654934429982 10.92851536455991 L4.763702298430012 10.917714990559968 L4.735797024430006 10.91223728855999 L4.7053079294300275 10.910893701559925 L4.696626288430075 10.914356022559968 L4.68505076743002 10.922675928559922 L4.665000312430088 10.941951237559959 L4.65549184843001 10.94587864655993 L4.612910468430037 10.951201319559882 L4.584901841430103 10.939109034559902 L4.56888214843007 10.93538833055997 L4.555136217430025 10.941951237559959 L4.544180813430039 10.945051823559904 L4.526817532430037 10.942157943559916 L4.496741848430069 10.931357568559886 L4.486509915430069 10.940866032559963 L4.475141099429997 10.945051823559904 L4.462428697430049 10.944018294559921 L4.4483727084300355 10.938230534559946 L4.439794420429983 10.950426171559965 L4.420054023430019 10.946085352559887 L4.39721304043001 10.936163477559983 L4.380159817430005 10.931357568559886 L4.367550768430071 10.936628564560007 L4.356078599430042 10.94587864655993 L4.342125963430043 10.954715315559934 L4.3218688014300355 10.95869440155992 L4.186579902430076 10.93848891655993 L4.162705390429998 10.929703923559938 L4.146789049430076 10.917714990559968 L4.123431302430042 10.92314101655995 L4.106171373430037 10.917714990559968 L4.050360826430072 10.899524886559941 L4.011913560430024 10.896889388559924 L3.9568264834300564 10.909498437559943 L3.938739732430058 10.905829411559946 L3.9059768744300456 10.885830632559912 L3.893574531430083 10.8813347825599 L3.8840660674300054 10.882471664559997 L3.8631887894300334 10.893633773559937 L3.852750149430072 10.89637262455997 L3.833009752430023 10.899214827559955 L3.7945624864300598 10.912082259559948 L3.774615383430067 10.915854638559974 L3.7312071804300544 10.91399428755997 L3.690796210430072 10.907586409559922 L3.6727094594300738 10.906914616559941 L3.6139016794299934 10.911410466559968 L3.538144029430093 10.906656234559971 L3.4617662624300394 10.913322494559889 L3.374123033430031 10.910583643559942 L3.3401199414299967 10.915234522559995 L3.3247203644300996 10.913529199559942 L3.2733539914300636 10.896682682559966 L3.252993476430042 10.879991194559931 L3.243174954430053 10.874410140559913 L3.2292223174300645 10.872911523559903 L3.2166132674300556 10.875753727559978 L3.1905683464300623 10.885003808559983 L2.9236078964300347 10.894822330559958 L2.92174754543003 10.903917383559925 L2.9262950714300686 10.916939844559959 L2.927948717430006 10.930220687559977 L2.921954250430069 10.944276677559895 L2.9142027864300744 10.954818669559952 L2.9078982614300557 10.966239161559965 L2.9061412624300758 10.982620589559911 L2.9061412624300758 10.99512628655992 L2.90438426443 11.007373601559944 L2.9004568544300398 11.019104150559922 L2.8940489774299962 11.029646143559983 Z" fill="black" stroke="black" stroke-width="0.5" vector-effect="non-scaling-stroke"/></svg>