<svg xmlns="http://www.w3.org/2000/svg" viewBox="0 0 1.7236973155800115 0.5036425664400284"><path d="M0.2973432282900035 0.40768335122001886 L0.3158979162899982 0.4097992362200422 L0.3339236322900092 0.41525171022002283 L0.34393339829000524 0.42717391122002724 L0.3468545702900201 0.4526417892199994 L0.3267638532900037 0.46725117221999213 L0.29834079529001656 0.47182696222003884 L0.263937188290015 0.46300515321999924 L0.24024947229003146 0.4664544462200162 L0.21893187828999316 0.4698968352200019 L0.19998328029004142 0.4733342852200373 L0.18461989129002632 0.48347160322001415 L0.16697213528999555 0.4965098482200325 L0.15708443929003124 0.49773055122003385 L0.09216934228999207 0.48950816421998766 L0.07555856029000552 0.48847492522000735 L0.057719205290027276 0.49028426222000476 L0.04595484729003374 0.4987048942200296 L0.0355024082900286 0.488412517219988 L0.037516214290008065 0.47300681722001414 L0.0410407152900234 0.4662725582200302 L0.044542086289993676 0.45506226021999296 L0.0480145162900385 0.43825747622000577 L0.04793776629003332 0.4237103082200271 L0.043115395289987646 0.41030821121998784 L0.027622599289998107 0.39919874021999036 L0.016898993289998998 0.392540888220001 L0.01920269929001961 0.3802196292200257 L0.025094665289998375 0.37235620222000776 L0.03931732629001772 0.36780800122003043 L0.057719205290027276 0.3735850432200074 L0.05485557229002325 0.38675101522003175 L0.06444245329004161 0.40348589122001854 L0.07285098629000686 0.4224645502199884 L0.06939608329003022 0.4426228392200393 L0.08372307729001705 0.4604540132200192 L0.11100278028999355 0.4603179892199911 L0.129943319290021 0.4535138382200081 L0.1321820962900233 0.4419444182200074 L0.13962838528999555 0.42819116322002415 L0.14536568929003124 0.4312022312200021 L0.16013619729000084 0.43498641122002724 L0.16001412729002595 0.43046980922000344 L0.1585492832900286 0.4272959812200021 L0.15391061129002992 0.4207855642199867 L0.16013619729000084 0.42819116322002415 L0.15822376228999246 0.4240000822200365 L0.1557416662899982 0.4211924652200061 L0.15545683529001053 0.4185069182200074 L0.16013619729000084 0.41451928822002415 L0.1555382152899938 0.4106944182200074 L0.1526899082900286 0.40629988722000476 L0.1471560542900079 0.3940928562200021 L0.1653038402899938 0.39629012221999815 L0.20188424428999951 0.4110199392199867 L0.22161894529000392 0.41451928822002415 L0.2756554032899885 0.4075205902200061 L0.2973432282900035 0.40768335122001886 Z M1.3956112112900314 0.058533187220039196 L1.4247046002899992 0.05861746622000297 L1.4524132152899938 0.048267661220027236 L1.4691775382900119 0.057667075219999475 L1.4652712882900119 0.05937605922000344 L1.4555056632900119 0.06511336422002856 L1.4295232222900154 0.07229845922003975 L1.3554727562899984 0.10854807222003515 L1.3202855522899881 0.10390831622001784 L1.3348884152900382 0.08571156721999174 L1.3518976962899956 0.07663945022003205 L1.3713532672900328 0.06188698522001701 L1.3956112112900314 0.058533187220039196 Z M1.5615518332900251 0.057932369220029756 L1.63060354628999 0.02974184722004125 L1.6645423162900101 0.010532026220037238 L1.687541492289995 0.0049376722199987455 L1.7019249342899911 0.010466554220020186 L1.7067983222900125 0.025505132219993953 L1.6595483762899903 0.04920445322003175 L1.5784403572899919 0.0716517692199865 L1.5396873452900195 0.0828957502199934 L1.5615518332900251 0.057932369220029756 Z" fill="black" stroke="black" stroke-width="0.5" vector-effect="non-scaling-stroke"/></svg>