<svg xmlns="http://www.w3.org/2000/svg" viewBox="0 0 10.745927026499977 16.308936304799964"><path d="M0.7210769167499969 10.526623100400005 L0.49227951275002013 10.213567273400049 L0.26348210874995814 9.900511446399992 L0.2563507607500135 9.868627087400018 L0.24911606074995873 9.836768567399975 L0.2419847127500141 9.8048842084 L0.23475001174994148 9.77307736439997 L0.2276186647500147 9.741193005399996 L0.2204873177499742 9.70938616239997 L0.21335596975002957 9.677450126399979 L0.20612126874998538 9.645617444400035 L0.19898992175003016 9.613758924399978 L0.19185857375000026 9.581874565400017 L0.1846238727500129 9.550093559399986 L0.17749252575000085 9.518183362400013 L0.17036117774997095 9.486376518399968 L0.1631264767499836 9.454492159400008 L0.1558917767500141 9.422633638399947 L0.14886378174991322 9.390749279399987 L0.13842514174998044 9.344834770400002 L0.12447250574998137 9.293933484399975 L0.10535222574999992 9.224480359400008 L0.10566228374996811 9.165569226399999 L0.13842514174998044 9.121024142399992 L0.1639533007500127 9.108647636400026 L0.20002344975002373 9.09404904439997 L0.24053777274993493 9.090793429399984 L0.26422046375002495 9.086345255400008 L0.28043197874997716 9.08330034640004 L0.31402165975000074 9.055885999399994 L0.32177312374999545 9.037721732399962 L0.32291000574999273 9.019092379399996 L0.31650212775004505 8.980877657399933 L0.31319483574997165 8.974960706400015 L0.302446137749957 8.965555595399966 L0.3008958457500235 8.960362114399945 L0.30451319575000824 8.955194470400034 L0.32425359374996177 8.94173276039999 L0.356189627749945 8.906877006400013 L0.3661631797499645 8.899487276399999 L0.38621363475001047 8.894965588399973 L0.4053339147499919 8.893363619399953 L0.42052678674993516 8.885534640400014 L0.42941513275004084 8.862099377400046 L0.42817489775000084 8.841738863400014 L0.41411890874998747 8.799079969400015 L0.4100881467500024 8.778667777399978 L0.41132838074993927 8.757402925400005 L0.41670273074997866 8.7382568084 L0.4315855427499464 8.707173434399952 L0.4642450477500013 8.639038057400032 L0.49008326475003017 8.585010347399962 L0.519125419750015 8.545555391400033 L0.5489943967500217 8.504911878399998 L0.5787600217499183 8.464113334400015 L0.6087323527499571 8.42339230639995 L0.6384979777499673 8.38261960139997 L0.6683669557499634 8.341924410400015 L0.6982359337499879 8.301177543400033 L0.7280015587499697 8.26043067739997 L0.7578705367499943 8.219735486400015 L0.787739513750001 8.17906613339996 L0.8176084917499118 8.138319267399996 L0.8473741167500073 8.09757240040003 L0.8773464477500461 8.05687720940006 L0.9071120727500279 8.016156180400007 L0.9368776977500097 7.975357637400013 L0.9668500287499633 7.934662447400061 L0.9966156537499451 7.8938897424000665 L1.0251410437500006 7.854977388399991 L1.0797113567500283 7.798288342399989 L1.1383124307499664 7.737361829399962 L1.1769664017499686 7.697054211400005 L1.2330870077500045 7.638814873400069 L1.28931096574998 7.580368828400001 L1.3454315717500158 7.522077812399946 L1.401552176749977 7.463735119399988 L1.4575694297499986 7.405392427400049 L1.513586681749917 7.346998059399997 L1.5697072877499814 7.288707044400045 L1.6258278927499994 7.230364352399992 L1.6819484987499784 7.172073335400061 L1.7379657507499822 7.113730644399997 L1.794086356750018 7.055336275400041 L1.8502069627499687 6.997045260400004 L1.906327567750015 6.938702568400036 L1.9624481737499657 6.880411552400009 L2.018568778750012 6.8219655074000265 L2.0745860317500338 6.763726168400016 L2.108589123749983 6.728379489400002 L2.1217149377500455 6.709931002400001 L2.1246854867499856 6.699701771399962 L2.1281228147500038 6.687865165399987 L2.130293225749984 6.662543713400002 L2.134427339749994 6.6169134244 L2.1384581017500075 6.571334811400025 L2.1423855107499783 6.525704520400016 L2.146416271749974 6.480074231400042 L2.1504470337500443 6.434495617400049 L2.154477795749944 6.388865328399962 L2.15850855674994 6.343235039400046 L2.162539319750028 6.297553072400039 L2.166673433749981 6.2519744594000635 L2.170704194749977 6.206344170399976 L2.1747349577499513 6.160765556400069 L2.178765718749947 6.115083590399966 L2.1827964797499426 6.069504976399973 L2.1868272427499456 6.023874687399971 L2.1908580037500265 5.97824439739998 L2.1947854127499973 5.932562431399962 L2.198816174750011 5.886932141399971 L2.2029502887500207 5.841301852399969 L2.206981050750006 5.795723238400004 L2.211011812749934 5.7500412723999865 L2.215042573750015 5.704462658399994 L2.21907333575 5.658832369399992 L2.223104097749985 5.61320208039999 L2.2238663557499088 5.604572923400017 L2.227134858749981 5.567571789400009 L2.2311656207499944 5.521967338400007 L2.2351963827499794 5.476362886400015 L2.239330496750018 5.430732597400013 L2.2433612597499923 5.385128145399936 L2.2472886677499737 5.339523694400047 L2.251319429749959 5.293893404399942 L2.2553501917499723 5.248263114400036 L2.259380952749968 5.202606987400035 L2.2634117147500383 5.157028373400042 L2.267442476749938 5.111372245400052 L2.2714732387499517 5.065793632399963 L2.2756073527499616 5.020137504400058 L2.279638114749975 4.97453305339997 L2.283668875749971 4.928902763400064 L2.287699637749956 4.883298312399976 L2.291730399749941 4.837668021399995 L2.2957611617500397 4.792011894399966 L2.2996885697499927 4.746433280400002 L2.3037193327499956 4.700777152399983 L2.3077500937499913 4.655224377400007 L2.311884207749916 4.609542411399989 L2.3159149697500148 4.563963798400014 L2.31994573175 4.518307670399995 L2.3239764927499955 4.47272905740002 L2.3280072557499984 4.42707292940003 L2.332038016749994 4.38144263940001 L2.3360687777499898 4.335864026400035 L2.3400995407499927 4.290207898400016 L2.3441303017499884 4.244603447400042 L2.348264416750016 4.198973156399948 L2.352191825749987 4.153368705400059 L2.3562225867499826 4.107738415399954 L2.360253349749957 4.062082287399964 L2.364284110749953 4.016503675399978 L2.3683148717499485 3.9708475463999697 L2.3723456347499514 3.9252947713999937 L2.3763763957500323 3.879612805399976 L2.380510509749957 3.8340341924000008 L2.3845412727500452 3.788352226399983 L2.3885720337499556 3.74277361239999 L2.3921893837500257 3.7010707324000442 L2.423401949749934 3.6225742314000264 L2.438491466750026 3.5965809854000703 L2.478489026749987 3.5276187864000157 L2.5184865847499687 3.4586565873999895 L2.558587495749965 3.389668551400039 L2.5986884077499504 3.3206546753999966 L2.6191522747499967 3.2853855104000083 L2.626490327750009 3.268280612399966 L2.6243199187500075 3.2517958293999847 L2.610160575749962 3.2300400514000707 L2.586492769750027 3.2052870403999556 L2.5282017537500003 3.1444122034000124 L2.4700140917499773 3.083537366399984 L2.4117230757499506 3.0226108524000246 L2.353432059750009 2.9617360153999677 L2.3256301397499506 2.932745537399999 L2.2442914347499716 2.8718190234000396 L2.2264113897500017 2.8526987433999444 L2.2122520467499562 2.830942964400041 L2.2003664677499337 2.8056215134000446 L2.192201590750006 2.7605596644000094 L2.200469819750044 2.7143092573999503 L2.225171155749951 2.67570696240006 L2.265478771750015 2.6539511844000323 L2.2489423137499394 2.629818291400003 L2.232302501750002 2.6052719854000124 L2.215455984750026 2.580829033399997 L2.198712821749968 2.5563344044000225 L2.181969657750006 2.531839774399973 L2.165226493749987 2.5073451464000165 L2.1483799767499825 2.4828505173999567 L2.131740165749978 2.4583558884000105 L2.1149970007500265 2.4338612593999507 L2.098150483749965 2.4094183064000028 L2.081510672750017 2.3848203254000317 L2.0646641557499557 2.3603773723999986 L2.0479209927500115 2.3358827444000134 L2.031177828749964 2.311388114399964 L2.014434663750013 2.286893485400018 L1.9975881477499406 2.2624505333999743 L1.9809483357500035 2.2379042284000015 L1.9571771767499406 2.203281018399995 L1.9227606737499805 2.1639552534000224 L1.903640393749999 2.151346203399985 L1.856408134749973 2.128143485399992 L1.8406984987500046 2.1134157033999976 L1.8365643837499768 2.0973443324000165 L1.8362543257499802 2.071144381399993 L1.8359442667499941 2.0514039834000393 L1.8350140907499686 1.999314140399978 L1.833670503749989 1.925623547400054 L1.832223563749995 1.8411842574000197 L1.8307766237500012 1.7566932904000545 L1.8294330357500321 1.683054374400033 L1.8286062137500103 1.6309645314 L1.82819280175001 1.6112241333999329 L1.8206480427499407 1.5709165163999934 L1.8124831667499457 1.5284384894000347 L1.8043182897499328 1.4859604614000013 L1.7922260047499385 1.4232769493999662 L1.7802370737499764 1.360645113400043 L1.768248140750007 1.2980132774000346 L1.7561558557500128 1.2353297653999995 L1.744166923749976 1.172697929399991 L1.7320746387499817 1.1100144163999666 L1.7201890587499697 1.0474342573999458 L1.7080967737499755 0.9847507444000065 L1.6961078417499955 0.9220672323999999 L1.6841189087499693 0.859435396399963 L1.672026623749975 0.7968293994000568 L1.6601410447499525 0.7341717253999356 L1.648152111749983 0.6715140503999955 L1.63607745575003 0.6089477233999823 L1.653629813749962 0.6007948534000072 L1.7114040647499742 0.5746465783999817 L1.769074963749933 0.5484983033999846 L1.8265391567500338 0.522350029399977 L1.8843134077500459 0.496253431399996 L1.9419843067500047 0.47015683140000775 L1.9996552037499846 0.44403439639998865 L2.057326102749972 0.41786028240000306 L2.1149970007500265 0.3917120073999776 L2.1726678997499853 0.36556373339996995 L2.2304421507499974 0.3394154583999729 L2.288113049749956 0.3132671834000611 L2.3457839487500287 0.2870930713999691 L2.403351492749966 0.2609706344000564 L2.4610223917500385 0.2348223593999741 L2.518693290749912 0.20867408540005172 L2.576364188749995 0.18257748639996763 L2.6208059207499623 0.16239783939997565 L2.6412697877500086 0.15989153239999965 L2.7323236617499624 0.20497921940003394 L2.855933687749957 0.26590573339999324 L2.9793370077499794 0.3268839233999792 L3.102947033749974 0.3878879514000495 L3.2264537067500108 0.448891980400024 L3.3499603797499624 0.5099476844000073 L3.473467053750017 0.5709517133999817 L3.597077078749937 0.631878227399941 L3.720480399749949 0.6928564163999944 L3.8440904257499433 0.7538604453999973 L3.967597099749998 0.814812797400041 L4.091000419750021 0.875816825400026 L4.214610444749997 0.9368466923999996 L4.338117118749967 0.9978248823999856 L4.461623791750004 1.0588547494000444 L4.585130464749984 1.1198329384000125 L4.708637137749935 1.1807594523999718 L4.83214381174999 1.241789318399956 L4.955753836749967 1.3027675094000166 L5.079157156750018 1.3637456994000026 L5.202767183750002 1.4247755663999762 L5.326273856749953 1.4858054324000456 L5.449780529750019 1.5467319464000049 L5.57328720274997 1.607761812399989 L5.696897229749954 1.6687400024000603 L5.820300549749977 1.7297181934000356 L5.84200545874997 1.7404344244000107 L5.943807221749939 1.7906963833999932 L6.067313895749994 1.8517262493999773 L6.190820568749945 1.9127561163999793 L6.31443059474994 1.9737343054000327 L6.437833914749962 2.034712496400008 L6.561443941749946 2.0957423623999922 L6.6849506147500115 2.156668876400037 L6.808457287749963 2.217698742400021 L6.9319639607500285 2.2786769333999963 L7.055573986750023 2.339603447400041 L7.178977307750035 2.400684990400041 L7.3025873327500115 2.4617148564000253 L7.426094006749981 2.5226413703999846 L7.549497326750004 2.583671236400054 L7.673107352749998 2.6446494264000115 L7.796510672750021 2.705575940399971 L7.920120698750015 2.766605806399955 L8.043627372749985 2.8275839974000156 L8.167134045750021 2.8885621874000016 L8.290640718750002 2.949643729399984 L8.414250744749967 3.0106219204000446 L8.537654065750008 3.071548434400004 L8.661264090749984 3.132578300399988 L8.784770763749965 3.1935564913999634 L8.908277437749906 3.254534680400017 L9.031784110749971 3.3154870324000036 L9.155290783750008 3.3765168993999772 L9.278797456749988 3.4375209274000476 L9.402304130749929 3.4985507934000317 L9.525810803749994 3.55950314539999 L9.649317475750042 3.6205071743999646 L9.772927502750026 3.681459525400019 L9.896330822749963 3.74251523040002 L10.019940848750043 3.8034417444000646 L10.14344752174991 3.864445773400039 L10.266954195749964 3.925501477399937 L10.390460868749944 3.9864796674000083 L10.513967541749981 4.047432019399967 L10.637474214749933 4.108487724400053 L10.63768092074999 4.340773287399973 L10.637887625749944 4.573058850399978 L10.63809433175 4.805318575399983 L10.638301037749972 5.037578300399989 L10.638404390749987 5.2698121864000065 L10.638611096750044 5.502097750400001 L10.638921154749927 5.734383313400034 L10.63902450774997 5.966668876400039 L10.639231212750008 6.198954439400044 L10.63943791974997 6.431240002399964 L10.639644624750037 6.663473889400056 L10.63985133074998 6.895811128400002 L10.63995468374991 7.128096692399996 L10.640161388749977 7.3603822554000295 L10.640471447749963 7.5926678184000345 L10.640574800749977 7.824953381400039 L10.640574800749977 7.882671549400019 L10.640574800749977 7.883451102400048 L10.62879257474997 7.913526786400016 L10.601714123750032 7.912389904399991 L10.485235445749982 7.873580904400061 L10.363692476749964 7.855752535400004 L10.248867444749965 7.855597506399963 L10.183238374749937 7.869446789400033 L10.051980236749973 7.916265637400048 L9.976739351750002 7.923293632399979 L9.822950288750025 7.891667656399964 L9.77541746975 7.897387938399962 L9.750809989750014 7.900349296400041 L9.724661714750017 7.9179192844000035 L9.660686291749943 7.993186007399974 L9.581828055749998 8.040676648400055 L9.562914481749988 8.063207572399993 L9.555679781749905 8.094420137400054 L9.563017834750003 8.123203911399973 L9.579760998749965 8.149042127400012 L9.60115504174998 8.171495536399991 L9.622652436749991 8.199788383399994 L9.632574312750013 8.23097511039997 L9.634538016750032 8.26440976139995 L9.62182561474997 8.380707573400048 L9.61417750275 8.402980115400002 L9.569425711749961 8.482923555399925 L9.561674247749938 8.492044446400005 L9.527774507750014 8.504911878399998 L9.504933524750005 8.517107516400007 L9.485193127749955 8.532972181400016 L9.39506942974997 8.624801200399975 L9.383390555749987 8.645575126400008 L9.378119560749969 8.669940564400026 L9.37718938475 8.688673271400024 L9.371504976749964 8.705183891400015 L9.351661226749986 8.723141451399986 L9.315074311749942 8.747196830399933 L9.307012789749951 8.76267392240003 L9.307012789749951 8.788460461400039 L9.315177664749957 8.843340833399953 L9.320758719749978 8.86085914340001 L9.335848237749975 8.892795178399982 L9.337605236749955 8.901683525400006 L9.332747652750033 8.915636161399991 L9.322515718750044 8.92287086139996 L9.12159774974997 8.97532244040001 L9.078913016749983 8.995527926400005 L9.03850204675 9.025500257399944 L9.019691824749987 9.061079480400014 L9.042532808749986 9.098079805399966 L9.07333196274995 9.120507377399964 L9.081083426749974 9.13417579339998 L9.095242769749905 9.241688611399983 L9.098550061750007 9.247683077400016 L9.103510998749943 9.252979911399951 L9.107128348749928 9.258819349399946 L9.106094820749963 9.266234916399956 L9.101030529749966 9.271247531400011 L9.087491304750007 9.277397025399981 L9.08315048474994 9.281608655399939 L9.074262138750004 9.298661877399969 L9.073228609750021 9.3065166964 L9.07612248975001 9.318376437400023 L9.085217541749973 9.34000302339999 L9.097206474750028 9.354756645400006 L9.113846284750043 9.363464124399972 L9.17027694874999 9.373153455400004 L9.18805364175002 9.383979667400045 L9.19704534074997 9.403435844400025 L9.203866629750014 9.43557858539997 L9.202523042749949 9.464904960399938 L9.18764023075001 9.48198402139997 L9.16438583575 9.49097572040002 L9.13761744375002 9.4960658494 L9.114879813750026 9.50849403139998 L9.077776134750042 9.542471285400001 L9.058449149749993 9.555312879399995 L8.899699149749967 9.62918433839997 L8.87086370075004 9.647994560399983 L8.84678248274999 9.671817395400044 L8.836930921750042 9.684056537400014 L8.755521903749997 9.785195487399964 L8.73113062774998 9.82428870839998 L8.729890392750026 9.83325457039992 L8.753248140749992 9.854855318399988 L8.769061128749986 9.874776583399996 L8.772471772749999 9.889426851399978 L8.770508069749969 9.90490394339999 L8.770508069749969 9.927228162400045 L8.78828476175001 9.965959648399977 L8.852053478750026 10.024147310399986 L8.866729585750011 10.062878797400007 L8.867349702749994 10.120420504400034 L8.87179387674998 10.139618299400045 L8.884816336750038 10.163492811399951 L8.920163016749928 10.205428235400039 L8.932151949749983 10.228295056399961 L8.923780367750016 10.270049614399998 L8.88843368674991 10.315576550400056 L8.796139579749951 10.41110043540002 L8.779603120749943 10.422443412400003 L8.672219494749971 10.464378837399995 L8.654546154749955 10.474016492400015 L8.620233003749934 10.506262585399984 L8.591294201749992 10.545459160399933 L8.509128674749963 10.698886487400006 L8.484013928750034 10.773507255399995 L8.467994234749984 10.804642306400044 L8.465617118750021 10.81094683039996 L8.469854585749989 10.822315645400042 L8.497036389749969 10.85567278240001 L8.536310477750039 10.928329847399954 L8.556981050749972 10.948173596400043 L8.592121024750003 10.96507179039995 L8.633358817749997 10.972771578400032 L8.675836844749956 10.973184990400032 L8.714904228749976 10.967913993400007 L8.76203313474996 10.954219739399992 L8.800273693749961 10.933342460400016 L8.832416434749991 10.903111748399997 L8.861045178749965 10.861253837400032 L8.98630885075001 10.943160982399991 L9.088628185750014 10.9807814254 L9.101857352750006 10.993545504399979 L9.05204127174996 11.108525566400008 L9.028993583749997 11.141495130399978 L9.031060640749974 11.153742444399999 L9.064133556749955 11.204850435399994 L9.13761744375002 11.427937594399996 L9.140201265750012 11.439874849399946 L9.140924735750009 11.452070487399968 L9.139994559749955 11.46426612639998 L9.114259696749986 11.574181897399942 L9.120667573750001 11.571649752399953 L9.126662040749938 11.568497489399991 L9.13761744375002 11.560332613399982 L9.202626395749991 11.540178805399993 L9.241693778749994 11.533254162400016 L9.25502629775001 11.541367362399928 L9.26350123275002 11.526897961399985 L9.268565523749988 11.531807222400023 L9.269702405750014 11.54736182839996 L9.266705171749994 11.56498349239995 L9.249031831749978 11.615678072400005 L9.193221284750013 11.92372128540001 L9.197872163749981 11.97162533840002 L9.217922619750045 12.018599215399991 L9.248515067750038 12.060948051399993 L9.284275158749967 12.094770276399988 L9.318691662749917 12.111539279400038 L9.39920354374998 12.138514376399971 L9.424938406749977 12.162285535399935 L9.42772893474994 12.171303072399983 L9.428038993750011 12.201430432399963 L9.437960868750014 12.205719576400032 L9.533148856749978 12.19577186239994 L9.556609957750045 12.196366142399985 L9.57097600474997 12.208510104399995 L9.584515230750032 12.279461845399968 L9.609836682749933 12.353669202400031 L9.61070405875002 12.366768188399991 L9.612627209749991 12.395811332399976 L9.608183035749978 12.413562187400007 L9.591336518750001 12.448727999399967 L9.585135347750015 12.466685559400037 L9.581828055749998 12.486477633400018 L9.581311291749973 12.506657279399992 L9.57852076475 12.517535168400048 L9.562707776750006 12.534717582400024 L9.556403250749998 12.544716972400028 L9.51723251574997 12.685457736399986 L9.462145438750003 12.68010922540002 L9.401270601749946 12.660808077399981 L9.376052502750003 12.639956637399923 L9.338845471749995 12.630474011400029 L9.329337007750002 12.62954383539999 L9.294507091749939 12.630474011400029 L9.284378511749981 12.628484469399996 L9.26525823175 12.619389417400019 L9.256990002749962 12.616805595399928 L9.233218843749984 12.619492769399958 L9.211928153750012 12.625642265399936 L9.190844168749994 12.624091972399999 L9.16810653875 12.603783134399993 L9.15901148674995 12.612438936400029 L9.146919201749956 12.611457084399976 L9.132449800749999 12.606651176399968 L9.116636812750006 12.603783134399993 L9.10330429374999 12.606341117399982 L9.093795829749912 12.6130590544 L9.07539901874991 12.633884656399974 L9.063203380749986 12.641558606400043 L9.048010510749965 12.646106132399982 L9.020858749749994 12.65040287639997 L9.017314709749929 12.650963717400007 L8.995610607749928 12.65688066840001 L8.974940034749938 12.665252250399991 L8.962124280750022 12.672047701400036 L8.943417411749966 12.688661674400041 L8.932668713749951 12.696077242400055 L8.924607189750038 12.695612154400028 L8.909207613750045 12.689307629400023 L8.896288504749965 12.698712740399987 L8.885539806749922 12.712639539399962 L8.856807710750008 12.735945610399998 L8.845955659749979 12.767313204400015 L8.832519787750005 12.788397188399959 L8.804407808749989 12.77385027339999 L8.788594820749996 12.776072359399993 L8.704775646750011 12.7676232634 L8.685655366749916 12.775865654399954 L8.674493257749976 12.794727551399976 L8.667568615750003 12.815320610399969 L8.661057385749945 12.829092379399999 L8.670772554749977 12.850047173400004 L8.660023856749962 12.861338473399972 L8.599252372750033 12.876350476399953 L8.58178573775 12.884489514400048 L8.551193290749996 12.905418470399955 L8.528248954749944 12.927019218400009 L8.524528251749945 12.928388644399991 L8.519774019749963 12.936682711400028 L8.508921968749991 12.934460624400035 L8.489078218750013 12.924667940399974 L8.478742932749999 12.925856498399998 L8.459726005749946 12.93094662739998 L8.451561128749933 12.9321351844 L8.441019136750032 12.935287447399961 L8.434921317749986 12.942341280399976 L8.430373791749947 12.949446789400003 L8.424586031749971 12.952624890399978 L8.40959986575 12.953890963400017 L8.39264999575001 12.958438489400042 L8.378800712749939 12.967895276400018 L8.373012951749974 12.983604911399983 L8.370842541749983 13.003216118399923 L8.361644136749977 13.03280087539996 L8.359473726749986 13.052205375400025 L8.361644136749977 13.072591728399974 L8.370842541749983 13.110909802399977 L8.373012951749974 13.12729123139994 L8.376630301750044 13.136592989399961 L8.394200289750035 13.156591769399984 L8.400401460750022 13.165505953400004 L8.400608166749965 13.172172213399936 L8.398954521750017 13.178838473400024 L8.399781343750039 13.185633924399983 L8.40722274974998 13.192791110400027 L8.376630301750044 13.243795748399979 L8.373012951749974 13.264802218399996 L8.373943127750028 13.275628430400022 L8.37828394775001 13.290433728399965 L8.37921412374995 13.298624442399987 L8.374976656750011 13.307977877400024 L8.365054780749904 13.311078463400055 L8.353582613749996 13.312189506399964 L8.345107678749986 13.315703503399934 L8.333118745750017 13.335443901399987 L8.325057222749951 13.355416842400007 L8.312448173750017 13.370945610400032 L8.286816662750045 13.377172619400017 L8.281442313749995 13.380118176400021 L8.249609631749951 13.390065889400024 L8.245888928749924 13.387998833399966 L8.235450288749991 13.392339652399944 L8.222841238749982 13.39011756639994 L8.210645600749945 13.385957613400013 L8.20113713774997 13.384614026399948 L8.169407808749941 13.404096041400027 L8.141605887750007 13.44029538239997 L8.089516044749946 13.558556897399999 L8.063057710749963 13.59904538240001 L8.030501558750007 13.631498182400026 L7.995671642749944 13.644701510400015 L7.982235770749998 13.64185930639994 L7.941308036749962 13.62602047940003 L7.927458751749999 13.61736467739998 L7.913092704750017 13.628862683400005 L7.861829683749978 13.687773816400014 L7.8545949827499335 13.701623100399974 L7.851597750750006 13.71730689739994 L7.843432873749993 13.71947730740003 L7.788139090749969 13.755185722399933 L7.777907156749979 13.77270403239999 L7.762920991749997 13.809161755400002 L7.762094168749986 13.812727429399974 L7.762920991749997 13.826550875399935 L7.761370699749978 13.830581636400016 L7.757753348750004 13.830374931399962 L7.753205822749965 13.829238049399951 L7.749278414749984 13.830271578399934 L7.736462658750003 13.842002128400015 L7.7293313107499735 13.846963066399969 L7.72199325774999 13.850115328399927 L7.718375907750005 13.848410006399963 L7.709074149749984 13.838720674400026 L7.7045266237499455 13.83644691240001 L7.698842215749995 13.837532117400006 L7.696258394749993 13.839857556399938 L7.69522486575001 13.842441378400029 L7.693984631749988 13.84393999439995 L7.68850692974998 13.84660133139997 L7.681788993749951 13.851355563399967 L7.67610458575 13.8566782354 L7.673520764749913 13.861019055399982 L7.670420177749964 13.880139335399978 L7.656260836750011 13.907217786400029 L7.653056896749963 13.922436495399982 L7.652230073749923 13.956310396399974 L7.646132254749961 13.968996961399927 L7.631972912749934 13.973647840399995 L7.631972912749934 13.980443290400036 L7.636313732750001 13.984680757399989 L7.637967378749966 13.987833020400036 L7.639310966749935 14.000932995399996 L7.623808036749995 13.994008354399927 L7.6184336877499454 13.99767738040001 L7.6166766887499655 14.006488212400004 L7.6121291627500405 14.015195691399985 L7.590425060750039 14.027546358400034 L7.581226655750033 14.035013603399964 L7.577402599749991 14.045633110399951 L7.568824312749957 14.060283378399934 L7.530377046750022 14.102115450399996 L7.519938407749994 14.110822929399962 L7.49761418875001 14.120202201400009 L7.49048284074998 14.142138847399966 L7.488829195749947 14.167356946400023 L7.4823179647499565 14.186528903399935 L7.476426850749977 14.18838925439994 L7.470052737749956 14.185764619400022 L7.469398856749951 14.185495374399952 L7.462887625749989 14.181283744400009 L7.458133394749996 14.179061658400006 L7.4544126907499795 14.181232068399996 L7.44852157774999 14.190611341399947 L7.444490816749994 14.192730074400007 L7.432708589749996 14.196812513400022 L7.427230888750007 14.206553520399968 L7.422786714749993 14.218051526399993 L7.4141050747500294 14.227482475399956 L7.406663668750003 14.220066907400042 L7.397051851749996 14.227482475399956 L7.351990002749961 14.241150891399972 L7.311062267750021 14.261640596399946 L7.324084728749984 14.30259416939997 L7.272821708749934 14.30259416939997 L7.265897066749961 14.301819023399961 L7.249050549749985 14.296392998399984 L7.248430431750013 14.296548026400021 L7.229723563749946 14.29546282240003 L7.228483329749981 14.296392998399984 L7.207089286749994 14.284352388400013 L7.197994234750002 14.282982963400034 L7.194376884750017 14.292672294399967 L7.193446708749963 14.305410535399933 L7.189829358749979 14.31497067440002 L7.182594657749934 14.32099097939997 L7.170399019750011 14.323109712399944 L7.152312268749984 14.333729219399931 L7.158823498749957 14.357190320399997 L7.169158785749989 14.38072893539999 L7.1633710247499955 14.391348442399977 L7.137946220749985 14.399952568400014 L7.123786877749939 14.420468111399988 L7.111591239749931 14.445298637399947 L7.091334077749924 14.46648597439999 L7.079241792749958 14.46137000740001 L7.068596447749957 14.46255856540002 L7.059087983749965 14.467622856400002 L7.040587821750041 14.481032890400048 L7.034490002749994 14.484546887400004 L7.015576427749938 14.488190076399992 L6.9329974897500115 14.48387509340002 L6.913153739750005 14.488190076399992 L6.890622815749982 14.470051648399963 L6.879150646749981 14.462661918399963 L6.8688153607499665 14.459638847399948 L6.854139253749981 14.464108858399957 L6.825717216749968 14.483720065399982 L6.810731050749997 14.488190076399992 L6.793781180749978 14.482789889400028 L6.781895600749966 14.470826795399976 L6.773317313750017 14.458863701400023 L6.765772554749976 14.453437675399957 L6.757194266749952 14.456538261399988 L6.755747326749958 14.463437065399976 L6.756677502750012 14.470465060399977 L6.755540621750004 14.473901542400004 L6.746755627750009 14.473488131399993 L6.733113049750006 14.467881238399972 L6.724844819749951 14.46648597439999 L6.716679943750041 14.470258354399935 L6.687327730749974 14.494391247399978 L6.684537203750001 14.500049817400015 L6.686087495749934 14.505630872400022 L6.686500906749945 14.510746839400017 L6.680506440749998 14.514855115400028 L6.674098563749954 14.51356320439999 L6.670584565749994 14.498266980400022 L6.663039807749971 14.494391247399978 L6.6591123987500005 14.496096570399946 L6.65570175374997 14.500308199399985 L6.653324637750007 14.505992607400021 L6.652497814749996 14.511780367399997 L6.649190522750008 14.520022758400035 L6.641645763749938 14.521418022400017 L6.632654065750007 14.520436170399964 L6.62521265974998 14.521728080399999 L6.599581147749934 14.538729627399935 L6.5882597977500446 14.541280917399991 L6.584905041750023 14.542036918399933 L6.570642345749963 14.535344820400002 L6.558343355750015 14.552811454400047 L6.545630953749953 14.558237479399939 L6.4617084267500395 14.553483248399946 L6.440831148749982 14.555860363399976 L6.4145795207499425 14.562629977400011 L6.403003999750002 14.563301770400006 L6.394322359749953 14.565239636400026 L6.370137788749975 14.575471570400001 L6.365176851749926 14.580044935400043 L6.356185151749987 14.584024019399937 L6.3125702427499455 14.583352226400041 L6.296240490749984 14.590612765400014 L6.269782157750019 14.572939424400023 L6.239293061750022 14.57926978740004 L6.2099408487500405 14.591284558400009 L6.186996512750017 14.590612765400014 L6.177488049750014 14.595780408400021 L6.172010347750035 14.595160291399967 L6.167979585749965 14.592318087399992 L6.162811942750029 14.590612765400014 L6.086330822749961 14.591749646400022 L6.077132417749954 14.587176281399994 L6.038788504750034 14.601413138400051 L6.025559338749947 14.604229505400017 L6.008402762749984 14.602550020399963 L5.989489188749946 14.59805417140004 L5.972435965749913 14.591491264399966 L5.960963798750004 14.58376563839997 L5.951662040749984 14.595108614399951 L5.941946870749934 14.591801323399952 L5.9314048787499765 14.58262875639996 L5.9194159467499965 14.57635006940004 L5.909597424750036 14.576660127399936 L5.889030204749947 14.582318697400058 L5.848205822749964 14.584437431399952 L5.835803479750002 14.589346692399975 L5.830739188750005 14.600844699400003 L5.82495142875003 14.602394991400022 L5.798286389750007 14.595935437399977 L5.789811454749998 14.597434054399972 L5.782886812750025 14.597434054399972 L5.7567385377499996 14.589346692399975 L5.716844331749986 14.600431287399989 L5.678087007749941 14.61939653740004 L5.655659435749943 14.63497698239998 L5.640983328749957 14.648180310399969 L5.634678804750042 14.655156628399968 L5.632094982749937 14.662623873399983 L5.628064221749941 14.666396253400013 L5.608220470749973 14.672623263400002 L5.592614188750009 14.681253227399953 L5.584759371749971 14.682932711400003 L5.579074963749935 14.686395032399947 L5.57690455275004 14.69675615639996 L5.573907320749942 14.705799532399926 L5.566775972749998 14.710372897399967 L5.557577567749991 14.710631278400033 L5.548895926749953 14.706678031399964 L5.52584823874999 14.740500256399958 L5.525951590750015 14.755202201399943 L5.542694755749967 14.768767265399934 L5.559127860749914 14.759801404399997 L5.565845796750029 14.769284029400058 L5.5686363237500025 14.786208061399964 L5.573493908749942 14.799463065399966 L5.585276135750025 14.808067191400003 L5.704855399750006 14.858942639399931 L5.713950451749998 14.874910657399969 L5.729660087749966 14.884083224399962 L5.760045829750016 14.906562472399973 L5.780302990750005 14.929532646400009 L5.747643485750036 14.951753511400046 L5.737824963749961 14.9673856324 L5.728429725750022 14.972739010399994 L5.717464449750043 14.978986991400038 L5.676640067749947 15.059033785399993 L5.576697847750001 15.172489393400017 L5.566569267750044 15.191635510400022 L5.557474214749977 15.215975110400027 L5.543624931749992 15.233648450399944 L5.511068778749962 15.264809339400006 L5.469210868749986 15.328190482400021 L5.44740341474996 15.347233248400006 L5.429936779750012 15.355992403399984 L5.371232352749974 15.375939506400005 L5.328754324749941 15.39710100539995 L5.2947512327499915 15.426969983399974 L5.27480413074996 15.465959851399962 L5.274080659749973 15.51448402140004 L5.245451916749989 15.556729504400014 L5.1644232707499675 15.573937756400003 L4.726620536749937 15.585409925400018 L4.633396252749993 15.607424085400002 L4.554021252749937 15.637138033399967 L4.51495386975002 15.644166028399983 L4.473406017750012 15.642512382399932 L4.335946708749976 15.619413017400053 L4.317963309749974 15.618327812399958 L4.296052502750019 15.619568046399994 L4.2768288697499095 15.625872571400013 L4.256158296750005 15.654242932400013 L4.236934663749981 15.664009777399972 L4.215954031749977 15.66990089139998 L4.1799872357500085 15.673621594399979 L4.159833426750016 15.678375826399975 L4.143400321749954 15.690158053399973 L4.134511975749934 15.712792330399939 L4.122523042749993 15.72049211940001 L4.075290783749967 15.70638445339998 L4.06216496974999 15.721577323400016 L4.041907808749972 15.734134696399938 L3.9070323197499484 15.781780367399978 L3.890805920749944 15.79299415340002 L3.8899586347499913 15.79381005839993 L3.876853283749927 15.806430026399969 L3.8706521117500365 15.817798840399963 L3.8672414667499204 15.83629900339999 L3.860730236749948 15.840794853400002 L3.852565360750038 15.839451265400033 L3.8448138957500255 15.840484794400016 L3.8267271447499986 15.857072929400022 L3.791690523749981 15.899499280399954 L3.7724668907499854 15.917741061400012 L3.7581008427499576 15.926887789400002 L3.75169296475001 15.926371025399963 L3.7464219687500027 15.92078997040004 L3.735259859749977 15.91469215139998 L3.715519461749995 15.908077567399989 L3.7017735307499784 15.919911471400003 L3.697226004750025 15.929109875400005 L3.698259533750008 15.9375848104 L3.695158947749963 15.94213233640004 L3.6644631467500126 15.936964693400032 L3.653714448749998 15.937894869399987 L3.6451361617499636 15.943837659400007 L3.6381081667499764 15.955878268399974 L3.6188845337500375 15.953914563399952 L3.5757863897500393 15.960529146400038 L3.536822358749948 15.97174293239998 L3.521629488750012 15.980166191399977 L3.5109841437500116 15.993136975399995 L3.5033360317499564 16.013032402400004 L3.5042662067499926 16.019905367399975 L3.508607027749992 16.024349540399985 L3.512017671750005 16.029207125399996 L3.510053967749986 16.03711361939995 L3.506539969750026 16.038715589399988 L3.495791271749983 16.037165295399962 L3.49289739174991 16.03711361939995 L3.4712396857499535 16.055067951399938 L3.4690228797500318 16.056905693400015 L3.4616848267500195 16.06093645440001 L3.438533785749957 16.063468600400004 L3.424787853750008 16.054373547399937 L3.4028770467499676 16.01804501639997 L3.3659800747499453 15.976858899399975 L3.343035738749979 15.958823824399975 L3.319367932750044 15.947196627400007 L3.280713960749967 15.935931165400053 L3.2703786737499634 15.925027437399994 L3.266037854749971 15.90301327740001 L3.268001557750001 15.890714286399973 L3.272342378749972 15.880740735399957 L3.274306083750009 15.870302096400014 L3.2692417927499555 15.856401136400041 L3.2613869757500034 15.847409436400003 L3.252601981750008 15.843482027400032 L3.242990165749905 15.841053235399972 L3.2325515257499724 15.836815768399934 L3.2163251257499788 15.824878511399977 L3.2054730747500066 15.809892346400009 L3.20102890275 15.791598889400039 L3.2064032507499753 15.761109794400046 L3.2069200157499047 15.751911389399954 L3.2062998977499326 15.74291969039992 L3.2048529587499566 15.73459978439995 L3.1653721637500105 15.746330334400032 L3.1479055297499663 15.755373710399997 L3.131885835749916 15.768809582399957 L3.125581310750011 15.778783134399962 L3.1133856727500024 15.804983085399972 L3.107081148749973 15.812527845400016 L3.0935419237500135 15.81624854840003 L3.0834133417499636 15.813147961399995 L3.0743182907499893 15.8087554654 L3.0635695927499746 15.808548759399944 L3.0483767207500314 15.82100278039994 L3.04320907775001 15.841983411400026 L3.0433124307499675 15.909937919399997 L3.039178316749929 15.923942232399998 L3.0269826777500164 15.932107109400011 L2.9389260377499973 15.944509452399988 L2.9180487587500075 15.952726005400013 L2.883425548750001 15.979029309399966 L2.863375093749955 15.991069918400033 L2.8417743447499966 15.993860446399996 L2.8188300087499734 15.993498710399994 L2.7849302697500384 16.005125908399965 L2.721368257749976 16.013394137400002 L2.699147392749939 16.020680513399984 L2.682507580749917 16.02972388939995 L2.6684515907499993 16.044296643399992 L2.6465407837500443 16.0751991504 L2.6318646767499736 16.089410168399954 L2.599308524749933 16.109305595399963 L2.5814284787499737 16.116436942400004 L2.450066987749967 16.1466159794 L2.4145136027500094 16.149044772399964 L2.376169690749993 16.1359706344 L2.3246999637500103 16.088324964399963 L2.2809817017500116 16.084862642400015 L2.2081179317500137 16.094732841400006 L2.171737723750045 16.092407402399974 L2.137217867749957 16.081348645399974 L2.1781456017499927 16.028535332400015 L2.205120699750001 15.973809990399946 L2.218349865750003 15.91443376940001 L2.21907333575 15.812166109400028 L2.196955822749988 15.807773613400034 L2.1655365517499554 15.800590588399988 L2.1440391557500114 15.79966041240002 L2.0969102497499996 15.765192232400057 L2.062700451750022 15.683026705399943 L2.001515555749979 15.468621187399979 L1.8668746447499878 15.18278903540001 L1.839871675749965 15.125463839399945 L1.8246788047500395 15.106007662399964 L1.766904552750038 15.049473645400003 L1.7247365837499906 14.980743990399933 L1.7080967737499755 14.96082272540001 L1.6874262007499574 14.945862398399957 L1.6620013957499573 14.937981742400002 L1.6246910117499063 14.932452364399996 L1.6112551387499714 14.928395764399998 L1.6076377887499866 14.921781181399997 L1.6076377887499866 14.912505261399989 L1.6052606727499388 14.90033546139998 L1.5962689737499893 14.874962334399985 L1.5905845657500386 14.865608899400033 L1.5834532187499981 14.859536918399986 L1.5761151647499965 14.856901420399982 L1.5695005817500096 14.852173026399985 L1.5644362917499457 14.839770683400022 L1.5555479447500211 14.830288058399947 L1.5160671507499792 14.801297579399975 L1.5022178667500334 14.793623629399978 L1.4929161087500127 14.791608248400028 L1.4841311157500066 14.791453218399997 L1.4753461227500289 14.79300351240001 L1.466044364750008 14.79600074539994 L1.4500246707499578 14.79098813039997 L1.2278676882499333 14.613621696399978 L1.0057107057500225 14.436255262399985 L0.9873138957499243 14.40439674040002 L0.9774953737499636 14.361453625399964 L0.6926548787499662 14.03584042639999 L0.6037714157499359 13.966852389400035 L0.6021177687499808 13.951969576399993 L0.6628892537499844 13.865334037399965 L0.7446413697500027 13.794976574399943 L0.7759572877499927 13.752601900400027 L0.8245331337499984 13.656871309400021 L0.8268068967500035 13.646768567399977 L0.8273236607499719 13.637001721400015 L0.8297007767499913 13.629586154400005 L0.837865653749919 13.62643389040004 L0.8525089667499692 13.625464589400043 L1.0966612267499336 13.6093031544 L1.3886330687499715 13.680797498400015 L1.428733980749957 13.682864555399977 L1.5543077107499705 13.64413306939996 L1.6002997357499744 13.64578671540001 L1.6585907517500011 13.65955848440004 L1.6891831987500332 13.661754732399945 L1.7173985307500068 13.655372693400015 L1.7278371707499396 13.648654757399985 L1.7456138637499699 13.632428357399977 L1.7568793257500097 13.625710421399962 L1.7657676727499343 13.62307492340003 L1.811656343749906 13.618088147399977 L1.871084240749969 13.620516940399941 L2.039135998750016 13.67441545839998 L2.095566662749963 13.672916842399975 L2.31994573175 13.618501559399991 L2.337412365750044 13.613333915399995 L2.294107515749989 13.574654105399976 L2.258967541749957 13.563621187399978 L2.1923049437500204 13.524088717400037 L2.1463129187500165 13.48450457039998 L2.1468296837499743 13.48016374940001 L2.132566988749989 13.471869682399959 L2.0953599567499914 13.419366426399993 L1.9575905887499694 13.29286252040001 L1.9467385377499973 13.275628430400022 L1.940434012750007 13.255319592400017 L1.9383669557499452 13.230023979399949 L1.9345428997499887 13.210335258399997 L1.9249310837499714 13.198268811400016 L1.9118052697500225 13.187571790400003 L1.8973358687499804 13.171707125399994 L1.883383231749992 13.134474255399983 L1.8744948857499715 13.11739519539994 L1.854341076750007 13.108119275400018 L1.8494834917499823 13.103416719400034 L1.8427655557499527 13.098740003399971 L1.832223563749995 13.096621269399993 L1.8208547487499978 13.095536064399997 L1.809795991749997 13.09264218339992 L1.8005975867499906 13.088301363399939 L1.7943964147500147 13.082952852399988 L1.7878851847499568 13.063910087400007 L1.788505301749911 13.03920875239999 L1.7946031207499864 13.014920829400001 L1.804628348750004 12.997273328400002 L1.806075288749998 12.981486178400008 L1.7984271777500176 12.957404960399973 L1.7220494097499746 12.811496554400026 L1.719258882750001 12.77385027339999 L1.7317645787500062 12.731113863399987 L1.7351752237499234 12.706464205399985 L1.7288706987499332 12.6888425424 L1.7186387647499437 12.67390805340003 L1.6913536097500135 12.60998430639997 L1.6849987097500225 12.524393217399936 L1.6774009727499397 12.422062960400016 L1.6844289677500406 12.360128756399991 L1.689493257749934 12.344341606399997 L1.712540945749982 12.311191174399983 L1.719258882750001 12.294680554400006 L1.7184320597499898 12.284577812399963 L1.7139878867499654 12.27925513940001 L1.7087168907499297 12.2748109664 L1.7056163047499986 12.267343721399971 L1.7056163047499986 12.255897392399962 L1.7104738897500233 12.240523654399983 L1.716778413749939 12.188485486400044 L1.7231862917499718 12.169055148399966 L1.7322813437499356 12.15130429339995 L1.7784800737499786 12.101384859399989 L1.791812593750013 12.073789645399987 L1.7800303667500152 12.0414401984 L1.7519183877499707 12.006455253399995 L1.741376395750013 11.988730237399981 L1.7255634077499344 11.943823417399972 L1.7226695277499466 11.92397966739998 L1.724426525749994 11.904497652399986 L1.7322813437499356 11.883155286399987 L1.736002046749963 11.882018404399975 L1.7425132767500209 11.882431815399986 L1.7492312137500399 11.881708346399993 L1.7533653277499646 11.876954114399997 L1.7521250937500277 11.870494560400036 L1.7414797487500273 11.860572685399962 L1.739722749749962 11.856438570399934 L1.7453038047499838 11.846981783399958 L1.7615302047499775 11.831892264399958 L1.7671112597499992 11.821712007399999 L1.7425132767500209 11.764144462400044 L1.736002046749963 11.753395764400029 L1.7189488247500044 11.75112200140001 L1.7071665977500068 11.743008802400002 L1.700345308749963 11.727299166399948 L1.6981748977499826 11.702236096400032 L1.7031358367500111 11.694432955400007 L1.7127476527500285 11.68616472639997 L1.7195689407499977 11.677328056399961 L1.715538179750002 11.667819592399983 L1.7117141237500455 11.662135185399936 L1.7067531867499959 11.651748222400006 L1.7044794237499907 11.641826347400016 L1.7087168907499297 11.637382174400006 L1.7373456337499995 11.632938000400006 L1.7330048137500178 11.621775891399967 L1.7158482377499702 11.607306490400038 L1.7056163047499986 11.59268206039997 L1.7073733037499785 11.580383069400018 L1.7098537717499376 11.572734957399948 L1.7092336547499833 11.56658546139997 L1.7018956017499711 11.55852393839999 L1.6967279577499887 11.548963798399985 L1.6970380177499642 11.537026542399946 L1.7007587207499633 11.5262261674 L1.7056163047499986 11.520024996399929 L1.6865993777499462 11.503695244399982 L1.6679958617499615 11.495995455399996 L1.6500124637499773 11.497907483399917 L1.632959240749944 11.510464856400024 L1.620970307750003 11.512170178399987 L1.6069143187499897 11.501266451400017 L1.584900158749992 11.475996676399962 L1.5592686477500202 11.458736747399971 L1.5542043577499562 11.451812106399988 L1.5510004187499824 11.437239352399931 L1.5560647097499505 11.43284685440003 L1.563609468749906 11.43114153339997 L1.5677435827499444 11.424475273399967 L1.5662966427499505 11.414243339399977 L1.562059175749983 11.408972343399956 L1.557098237749944 11.404579847399962 L1.5542043577499562 11.397138440400031 L1.5542043577499562 11.385149507399976 L1.5592686477500202 11.368354667400016 L1.561025647750018 11.356210705400006 L1.5624725877500119 11.286654228400014 L1.5644362917499457 11.277714205399992 L1.5473830687499976 11.201956555400006 L1.533637137749981 11.177410250400033 L1.5330170207499982 11.17301775339995 L1.5346706667499639 11.161545586400013 L1.533637137749981 11.157566500399941 L1.5285728477500022 11.154207531400022 L1.5220616167500118 11.15203712239995 L1.5180308557500162 11.152605563399991 L1.51999455974995 11.157566500399941 L1.5116229777499832 11.150073417399998 L1.5071788047499872 11.14945330040003 L1.5057318647499933 11.147592949400025 L1.5063519817499476 11.136482515400008 L1.5082123337499702 11.129919608399934 L1.516273856749951 11.114520032399955 L1.51999455974995 11.10914568339999 L1.48692164274998 10.986362480400022 L1.4753461227500289 10.965795260400032 L1.4423765587499595 10.9733916954 L1.425013277749958 10.971376315399954 L1.4175718717500168 10.955253267399971 L1.4148846967500113 10.945796480399995 L1.4082701127500066 10.935667900400038 L1.3994851197500005 10.927451347400012 L1.3902867147500224 10.924195732400026 L1.3850157187499867 10.9273996714 L1.3698228477499477 10.952101005400014 L1.358247326750007 10.935616223399936 L1.3729234337499925 10.902801688399922 L1.3661021447500339 10.88636858339996 L1.350185803749941 10.880890881399967 L1.3206268837499984 10.88864234739997 L1.3042971317499514 10.87949561839999 L1.297889254749908 10.87370785740001 L1.2804226197499595 10.862726616400028 L1.2769086227500175 10.856757988400009 L1.2764952107499887 10.850556816400019 L1.2745315067499696 10.845415011400025 L1.266780041749957 10.842262748399978 L1.2601654577499524 10.843813041399986 L1.241045177749971 10.858256604400015 L1.2314333617500388 10.85970354440001 L1.2268858357500285 10.854225842400016 L1.2255422487499636 10.84500159940001 L1.2255422487499636 10.835208915399964 L1.2168606077499824 10.838387016399924 L1.2109694947499925 10.837715222400025 L1.2072487917499934 10.833038505399973 L1.2051817347500169 10.824150159400038 L1.2051817347500169 10.786400525399987 L1.1871983357499296 10.768365450399987 L1.1566058877500218 10.745498629399979 L1.1462706017500075 10.731003389399948 L1.1467873657499474 10.718265149399986 L1.1622902957499726 10.672531506399952 L1.1638405877499913 10.65217099240002 L1.1608433557499787 10.635608695400013 L1.1524717737500119 10.620803398400003 L1.1383124307499664 10.605791394400018 L1.1372091487499638 10.604103520399978 L1.0915969357499655 10.534322888400002 L1.0743370077499783 10.523470837400044 L0.7210769167499969 10.526623100400005 Z" fill="black" stroke="black" stroke-width="0.5" vector-effect="non-scaling-stroke"/></svg>