<svg xmlns="http://www.w3.org/2000/svg" viewBox="0 0 1.3421533197599729 1.0394238283799986"><path d="M0.5886791988799871 0.956967773689998 L0.5969799798799897 0.9605485026900187 L0.6500398758800259 0.9950537106900033 L0.6615144858800193 1.012306314690024 L0.6580965168800219 1.02028157568998 L0.6428784178799845 1.0223974606900033 L0.6192781568799717 1.0223974606900033 L0.5514070638800206 1.008888346690016 L0.48133870387997035 1.0070166016899993 L0.46514404287998445 1.0014013676899953 L0.4607495118799818 0.9939143876899852 L0.4617260738799871 0.9766617836900213 L0.4588777668800219 0.9672216796900006 L0.45017008388001045 0.9591650386900046 L0.4410555008800259 0.9553401696900341 L0.43389404287998445 0.9499690756899799 L0.43096435487998974 0.9367041016899993 L0.4298250318799717 0.9006526696900341 L0.4356844068799717 0.885841471690016 L0.45204182887997035 0.8915380856900033 L0.4662833658800025 0.899025064690024 L0.5082755528800078 0.906837564690024 L0.5271557618799818 0.9125341796900006 L0.5792390948800232 0.9465511066899825 L0.5886791988799871 0.956967773689998 Z M1.3289949538799704 0.8817724606900033 L1.3284252928799845 1.0036800126899852 L1.3228914388800206 1.021746419690034 L1.3114168288799704 1.029233398689998 L1.302627766880022 1.025652669690034 L1.2923738608800193 1.0171891276900187 L1.2840730788799704 1.006935221690016 L1.2806551108800193 0.9982275386900046 L1.2787019858800193 0.9857763676899953 L1.2732495118799818 0.9786962886900046 L1.1995190428799845 0.9288916016899993 L1.191299641880022 0.915952148689998 L1.1851961258800259 0.9006526696900341 L1.1700594068799717 0.8932470706899966 L1.1305086258800259 0.8851904296900006 L1.0683341468800052 0.8539404296900006 L1.0599519858800193 0.8473486326900019 L1.0198315428799845 0.8239111326900019 L1.0063224278800078 0.8095068356900033 L1.0224357088800105 0.8090185546900006 L1.0357820638800206 0.8122737626899852 L1.0614982088800105 0.8231787106900033 L1.078913573879987 0.8275732426899953 L1.111221516880022 0.8322119136900046 L1.1230216468800052 0.8368505856900033 L1.1283113608800193 0.8327001956899966 L1.1383211258800259 0.8275732426899953 L1.1434480788799704 0.8231787106900033 L1.1734773758800259 0.8292822266899993 L1.200007323879987 0.8054378256899799 L1.2152254228800246 0.7682470706899966 L1.211726073879987 0.7344742836900213 L1.221491698879987 0.7316259766899993 L1.2352449538799704 0.723732096690016 L1.245987141880022 0.7208024086900213 L1.2509513338800105 0.718686523689998 L1.2552644858800193 0.7155126956899966 L1.2600659178799845 0.7130712886900046 L1.2669832358800193 0.7133154296900006 L1.2727612298799897 0.7174658206899966 L1.2806551108800193 0.7313818356900033 L1.2840730788799704 0.7344742836900213 L1.3263094068799717 0.867775064690024 L1.3289949538799704 0.8817724606900033 Z M0.26649495387997035 0.47063964868999797 L0.2690177408800025 0.4806494136900046 L0.2752840168800219 0.4919612626899852 L0.2987215168800219 0.522560221690016 L0.29823323588001927 0.5309423826900019 L0.2869213868799818 0.548764648689998 L0.2836661778800078 0.5588557946900341 L0.28252685487998974 0.5660986326900019 L0.2799226888800206 0.5717138676899953 L0.27259846988002323 0.5768408206899966 L0.26307698588001927 0.5798518876899852 L0.24948649088000252 0.5818050126899852 L0.23760497987998974 0.5805029296900006 L0.2323152668800219 0.5730159506899799 L0.22588622987998974 0.560483398689998 L0.16989664688000516 0.5095393876899852 L0.1550854488799871 0.5035172526900187 L0.11219807887997035 0.501075846690016 L0.10170003187997168 0.4984716796900006 L0.09022542288002455 0.4922867836900213 L0.07093831388002059 0.47715006469002397 L0.06280029287998445 0.4669775386900046 L0.06003336588000252 0.45810709669001604 L0.058731281879971675 0.4493994136900046 L0.05417399088000252 0.4396337886900046 L0.028701985880019265 0.4152197266899993 L0.017715656879971675 0.3991878256899799 L0.01315836588000252 0.37469238269000193 L0.015925292879984454 0.36492675769000193 L0.022435708880010452 0.35280110668998255 L0.04408284488002323 0.3218766276900187 L0.044326985880019265 0.31121582068999665 L0.04147867788000781 0.30047363269000193 L0.04050211588000252 0.28875488269000193 L0.054336750880025875 0.11199707068999665 L0.05222086588000252 0.10027832068999665 L0.04676839188002191 0.08953613269000193 L0.05653401688002191 0.07220214868999797 L0.06605550088002587 0.0476253256899799 L0.07647216787998445 0.02850097668999929 L0.08827229788002455 0.028094075689979903 L0.1307527668800219 0.013933919690034102 L0.15565511088001927 0.010190429690000613 L0.17396565687997168 0.01751464868999797 L0.18592854788002455 0.03297688768998519 L0.19479899088000252 0.0490901696900341 L0.19935628187997168 0.06731933569000326 L0.17705810487998974 0.2540055336900213 L0.1860099278800078 0.2945328776900187 L0.23044352188000516 0.35711425769000193 L0.2465568028800078 0.3980485026900187 L0.24704508388001045 0.4083024086900213 L0.24549886088001927 0.4294612626899852 L0.2465568028800078 0.4396337886900046 L0.25111409488002323 0.44695800769000193 L0.2577058918800219 0.4533056636900046 L0.2638094068799717 0.4605485026900187 L0.26649495387997035 0.47063964868999797 Z" fill="black" stroke="black" stroke-width="0.5" vector-effect="non-scaling-stroke"/></svg>