<svg xmlns="http://www.w3.org/2000/svg" viewBox="0 0 7.678958367008004 8.902465035959972"><path d="M7.587654767449166 0.31868613297998083 L7.595819644449179 0.3463330229799948 L7.603674461449103 0.47172588697997186 L7.592408999449148 0.6165749269799261 L7.583107241449213 0.6388991449799915 L7.5809368314491365 0.6507847249799181 L7.57432224844915 0.6673728589800203 L7.558612612449153 0.6809120849799979 L7.5233692864491815 0.6987404539799553 L7.502698713449163 0.7127447669799563 L7.489676252449144 0.7307798419799565 L7.456603335449145 0.829481826979976 L7.440893699449177 0.8541831619799791 L7.437069643449135 0.8643634199799561 L7.433038882449139 0.8863259039799272 L7.428594709449143 0.8966611889799236 L7.410507957449212 0.9225510819799649 L7.386426740449181 0.9734006909799757 L7.383119448449193 0.9867332109799958 L7.379605451449137 1.0138116619799615 L7.354490705449209 1.081869522979947 L7.278009585449226 1.21121563297999 L7.275012352449195 1.219587214979971 L7.264780418449121 1.222997858979984 L7.207419579449137 1.2766379959799719 L7.1942937654491885 1.292967748979994 L7.186438947449133 1.3090907959799876 L7.1753801904491326 1.3678985749799648 L7.169075666449132 1.3875872959799165 L7.160394025449179 1.4064491939799422 L7.1492319154491355 1.4246392979799833 L7.135279279449136 1.4594175369799314 L7.125047345449175 1.4745070549799277 L7.1079941234491315 1.4796230219799225 L7.103963361449146 1.4898549559799972 L7.079882144449201 1.5185870519799107 L7.072440738449174 1.5302659259799793 L7.033683413449225 1.6355308189799769 L7.033683413449225 1.6503619549800033 L7.0395745274491475 1.6807476969799677 L7.04205499644921 1.7113918209799874 L7.037300764449228 1.8070707349799915 L7.0429851714491605 1.853140274979911 L7.0427784654491035 1.8690049389799168 L7.0395745274491475 1.8862648679800071 L7.029445946449172 1.9193377839799877 L7.027378888449121 1.9365718749799794 L7.03492364844918 2.223221044979955 L7.032649885449146 2.244098322979941 L6.9735320464491934 2.3735994629800143 L6.967950991449172 2.3931589929799384 L6.963300112449119 2.4297717449799774 L6.9282634914491865 2.5418320879799308 L6.924646141449202 2.604102188979955 L6.917514793449172 2.6238942629800204 L6.876070295449111 2.6935540929799555 L6.853746076449156 2.7181520749799444 L6.834522443449131 2.755927546979994 L6.8279078604491446 2.7789235589799444 L6.8394833814491705 2.8483766849800145 L6.839173322449184 2.927648330979953 L6.868938947449166 3.0550824129799747 L6.868835594449152 3.082470922980012 L6.85384942844918 3.1596755129799914 L6.8544695464491525 3.1878908439799614 L6.860567365449199 3.2122821199799927 L6.879687645449181 3.260341201979959 L6.894363752449195 3.268506078979972 L6.904905744449152 3.2847324789799797 L6.911210269449171 3.304059464980018 L6.913277326449119 3.321216039979991 L6.906766095449157 3.4182643789799596 L6.901185041449153 3.4342840739800136 L6.81529881144921 3.554483454979977 L6.736647280449219 3.7691473549799963 L6.7183538234491635 3.8050107989799398 L6.677632794449195 3.991356013979971 L6.674945620449179 4.016470759979999 L6.6775294424491705 4.041792210979981 L6.702024071449117 4.14173443198003 L6.710809064449208 4.3189845939799945 L6.703264305449167 4.328906469979987 L6.689311668449179 4.348646866979951 L6.62543959844912 4.408281468979954 L6.619961897449215 4.41530946397997 L6.615724429449173 4.423060929979972 L6.613760724449136 4.4377370359799535 L6.612210431449213 4.441871149979978 L6.608903139449225 4.445488500979966 L6.597120913449132 4.454066787979901 L6.584305158449226 4.468846248980004 L6.563427880449169 4.484245824979997 L6.507131011449118 4.552046172979988 L6.372741844449152 4.713895889979984 L6.346696922449169 4.737977107979933 L6.326233055449208 4.762781794979976 L6.318584943449153 4.76908631997998 L6.291713198449131 4.782108779979925 L6.2889226714491855 4.787276423980021 L6.26928562744915 4.810530818979945 L6.258950340449147 4.816628637980006 L6.206653791449227 4.831408096980017 L6.156114240449185 4.838539444979961 L6.136683902449121 4.843810440979983 L6.06991795144917 4.871198949979931 L6.021755516449176 4.884738174980004 L5.989922834449132 4.890009171979944 L5.98382501544917 4.892592992979946 L5.973283022449138 4.899827693980004 L5.967185203449176 4.9023081619799775 L5.964394676449203 4.908405980979939 L5.940830223449197 4.935794490979976 L5.901762840449194 4.970314346979965 L5.870446922449176 5.006694555979951 L5.823834780449133 5.044418350979999 L5.800993797449209 5.058060928980002 L5.794482567449151 5.064572159979978 L5.789935041449198 5.071806860980036 L5.779082990449169 5.0997121339800096 L5.755931948449174 5.141053278979957 L5.740532371449191 5.177950251979983 L5.723995913449087 5.20141135197996 L5.686788882449164 5.275515356979984 L5.653819318449209 5.318510147979968 L5.630771629449171 5.3649155839799825 L5.617238730449159 5.385845346979938 L5.597492007449134 5.416385309979962 L5.590153953449132 5.432818415980027 L5.585089663449153 5.449354874979921 L5.583746076449174 5.46072368898 L5.584366193449156 5.494726781979953 L5.578475080449138 5.524285700979977 L5.5654526194492036 5.549607152979963 L5.486238136449188 5.654090052980013 L5.483803856449228 5.657300837980021 L5.478429507449178 5.669289769979972 L5.475225568449204 5.682932347979989 L5.4690243964492 5.685826228979966 L5.451557762449156 5.699158747979997 L5.436054833449148 5.705669977979969 L5.431300601449166 5.7082537999799605 L5.422205548449185 5.716418675979984 L5.406909325449149 5.736055719980019 L5.343864077449197 5.797757380979977 L5.301489403449196 5.829693415979964 L5.245678856449118 5.88312684697998 L5.217360171449215 5.902350479980004 L5.192555484449187 5.924571345979945 L5.168060854449138 5.956507380979918 L5.1558652164492145 5.977591365979951 L5.14863051644916 6.00012228897997 L5.149870750449182 6.023273331979954 L5.151317691449194 6.031024795979963 L5.1512143374491615 6.037432673979996 L5.138191877449216 6.082391169979932 L5.136124819449165 6.09861756997994 L5.139535464449196 6.114017146980007 L5.148733868449185 6.127866429979978 L5.151110984449147 6.1330340739799745 L5.152971336449227 6.1424391849799385 L5.153591453449209 6.1907049729799475 L5.186871076449151 6.430793676979977 L5.165787092449122 6.57827821397996 L5.142119286449187 6.649695043979964 L5.139432111449153 6.6636476809799525 L5.138295230449145 6.678013728979952 L5.145249005449145 6.736004382980003 L5.149560692449128 6.771961482979979 L5.145736636449172 6.821674210979982 L5.151110984449147 6.877898167979968 L5.146976870449194 6.931951716979956 L5.1512143374491615 6.948591527979975 L5.160516095449182 6.967401749979988 L5.160722801449154 6.990346085979926 L5.154624982449192 7.033960993979964 L5.1598959784492 7.055044977979993 L5.171678204449208 7.066620499979951 L5.183357078449191 7.074682022979932 L5.188731428449145 7.085430720979961 L5.186871076449151 7.108788467979995 L5.182013491449126 7.127288630979937 L5.168991030449192 7.1574676669799295 L5.119691714449189 7.2428371339800215 L5.0991244944491 7.296270563979949 L5.076800275449145 7.3397821199799615 L5.014581850449147 7.415539769979947 L4.973964174449193 7.497808650979994 L4.966522768449167 7.520339574979932 L4.952363427449129 7.534498917979963 L4.935516910449152 7.582041234979986 L4.904407697449116 7.636301488979928 L4.897379702449186 7.644052953980026 L4.89159194244921 7.654181533979983 L4.873401838449169 7.712989314979968 L4.8492868744491915 7.73607810997996 L4.84425633044917 7.740894587979955 L4.80549900644921 7.761151749979948 L4.761263979449197 7.77438091597995 L4.7164088364491334 7.781202205979998 L4.672483868449191 7.7877134359799705 L4.528099917449154 7.833602107979946 L4.510323224449209 7.841766983979955 L4.495027000449156 7.853549210979953 L4.482417951449136 7.872359431979962 L4.451618797449171 7.970751358979999 L4.4462444484491215 7.9794329999799665 L4.424126935449195 8.002687393979972 L4.420199526449139 8.009405329980002 L4.411517886449175 8.012815974980018 L4.386713198449129 8.025735082980038 L4.347852521449184 8.03989442497998 L4.236541486449127 8.095911677980002 L4.217007795449135 8.108624079979965 L4.189619285449183 8.120406306979962 L4.165228010449155 8.134565649980008 L4.1546860174490945 8.154306045979968 L4.149311669449148 8.167741918979932 L4.111945378449192 8.220706063980021 L4.0591879714491625 8.295486058979936 L4.037380516449119 8.31563986798 L3.9840504384492164 8.342614965979937 L3.9758855624491076 8.353570368980005 L3.96947768444916 8.366592829979954 L3.892273094449095 8.442453832979968 L3.8103142724491335 8.579293024980036 L3.8026661604491636 8.595726130979916 L3.7924342274491636 8.610608942979955 L3.7767245924491846 8.623528051979964 L3.729699038449141 8.643785212979967 L3.6634498524491192 8.685126358979904 L3.633994285449134 8.695461645980007 L3.5957537264492174 8.69918234898002 L3.584591616449117 8.695048233979993 L3.553379051449113 8.676134659979954 L3.5408733554491363 8.671897191979998 L3.5363258284491934 8.669210017979982 L3.52816095244917 8.656084203980004 L3.5234067214491773 8.651433324980037 L3.515138492449225 8.650709854979954 L3.4937444484491067 8.651743383979937 L3.489300275449196 8.647712621980023 L3.481135398449183 8.63686057097998 L3.462738589449188 8.636240453980012 L3.443204897449178 8.641408096980019 L3.4313193184491553 8.647712621980023 L3.4107520984491515 8.669520075979964 L3.398556460449143 8.675721247979954 L3.3794361804491615 8.678718480979956 L3.3619695464491173 8.681819066980001 L3.3577320784491604 8.651433324980037 L3.37385512544914 8.573711970980018 L3.3700310694491833 8.563376683979929 L3.3649667794491194 8.55438498497998 L3.3609360174491343 8.54487652197999 L3.3603159004491516 8.533094294979993 L3.3627963694491285 8.523689183979943 L3.370444481449212 8.50611919797996 L3.372201479449089 8.496610733979981 L3.3681707184491785 8.471599340979981 L3.3571119624491956 8.45568299997996 L3.342229149449153 8.441730362979971 L3.327036278449114 8.422816788980018 L3.3187680494491616 8.38467958197997 L3.311223290449206 8.36245871597993 L3.312050112449228 8.354603897979988 L3.3202149894491555 8.34013449697996 L3.336027977449149 8.32576844897996 L3.37385512544914 8.310058812979992 L3.385844057449205 8.297863174979984 L3.3970061674491348 8.282256892979948 L3.413749331449182 8.263550024979953 L3.4278053204491954 8.243602920979942 L3.4310092604491587 8.224896052979961 L3.4244980294491967 8.218178116979932 L3.3898748204491795 8.19595725097999 L3.3703411284491693 8.173116267979982 L3.3540113754491614 8.14831157997995 L3.347293439449217 8.133842178980007 L3.346983380449146 8.128467830979961 L3.3503940254491766 8.123093480979993 L3.3547348464491478 8.108727432979993 L3.3564918444492235 8.095911677980002 L3.3565951974491526 8.085266332979916 L3.3541147284491757 8.07730816197996 L3.3483269674492107 8.072657282979993 L3.329826805449173 8.074000869979958 L3.286728660449157 8.097358617979996 L3.241253401449214 8.108314021979982 L3.220892886449164 8.122473363980024 L3.1834791494492123 8.155339574979951 L3.1459620584492 8.173012913979964 L3.107618146449184 8.185415258980019 L3.0196648594492075 8.196060603980019 L2.982354474449167 8.210943415979958 L2.9528989084491712 8.250630915979944 L2.9511419094491913 8.25352479598003 L2.9489714994492005 8.255695206980011 L2.9330551584491644 8.267167374979937 L2.916208641449188 8.287424535979941 L2.90577000144917 8.293625707979931 L2.895848127449156 8.294039118979942 L2.8667034264491207 8.285655027980003 L2.865669090449174 8.285357478979979 L2.8375571114491294 8.287217829979983 L2.828358706449123 8.28484071397995 L2.8174033024491365 8.275228897980018 L2.803347313449123 8.248977269979992 L2.794148908449145 8.236781631979984 L2.771721336449147 8.222208877979927 L2.751257469449186 8.220141821979968 L2.6877988114491274 8.242259333979977 L2.6762232894491973 8.248563858979981 L2.6722958814491307 8.260036026979993 L2.6830445794491453 8.356567602980025 L2.6794272294491606 8.375894587979975 L2.663872622449148 8.416305557979957 L2.660358624449188 8.438216364980011 L2.6737428214491246 8.481211156979999 L2.667128237449205 8.489892796979962 L2.6596351554491804 8.489065974980026 L2.6513669264491426 8.486688858979978 L2.6432020494491297 8.49092632598003 L2.6390679354490914 8.501881729979917 L2.64185846244915 8.520278538980012 L2.6365874664491145 8.527306533979928 L2.6278024724491473 8.528236709979968 L2.6049614894492237 8.521828832980024 L2.595246320449192 8.521208714979966 L2.574369041449117 8.534747940979944 L2.552664940449219 8.574952204979969 L2.541127464449218 8.578586509979932 L2.531994367449201 8.581463435979945 L2.5199020824492067 8.575985733980037 L2.5001616844491394 8.55552186697999 L2.487449282449191 8.54983745897994 L2.4759771144491793 8.551491104979991 L2.4435243144491636 8.57040467897993 L2.4536528964492135 8.579086319979982 L2.457683657449124 8.587664606980017 L2.454789777449136 8.595209366979976 L2.4435243144491636 8.601100479979966 L2.39205458844917 8.638927628979946 L2.3644593734491792 8.672413956979955 L2.353917381449108 8.68088889197995 L2.3326266914491356 8.637273982979995 L2.3253919904491767 8.602444067979935 L2.3200176424492014 8.590351781979951 L2.310612531449138 8.581153376979959 L2.2958330714492234 8.57309185297996 L2.235268293449181 8.551387751979963 L2.217078189449225 8.539502171980022 L2.170052635449153 8.498677791980032 L2.1433875964491307 8.48162456798001 L2.1336724264491664 8.471702692980006 L2.1212700834491187 8.438939834979923 L2.1033900374491594 8.41289491297994 L2.0953285144491502 8.397908747979958 L2.073624413449167 8.372483943979962 L2.0492331364492173 8.375067764979963 L2.032800031449156 8.397185277979961 L2.034970441449147 8.430878311980013 L1.9884616524491179 8.407727269979933 L1.9228325834491926 8.329385798979946 L1.8832484364491364 8.297863174979984 L1.8637147454491156 8.275745662979975 L1.845731346449142 8.227686579980006 L1.831158592449171 8.207532771979945 L1.8155523104491493 8.198644425979925 L1.8035633784491694 8.199884659979961 L1.7915744454491147 8.205259007979922 L1.776071515449118 8.208462947979985 L1.762325585449176 8.205569066979994 L1.7439232854491564 8.195625888979922 L1.7366940744491188 8.191719782979948 L1.7229481434491873 8.186758845979984 L1.6991769844491245 8.20050477697993 L1.6878081694492124 8.223552464979992 L1.6797466454491286 8.24742697697997 L1.6662074204491688 8.263550024979953 L1.648120669449142 8.273885310979967 L1.6317909164491908 8.286907771980001 L1.6178382804492202 8.302927464979962 L1.5961341784492191 8.343235082980005 L1.5850754224492078 8.354810602980042 L1.5693657864491541 8.360598363979935 L1.458468163449126 8.380855525979928 L1.3903586254491955 8.403076390979965 L1.3753724604491282 8.40441997798003 L1.3482940094491909 8.401009334980007 L1.3388888984492127 8.414961970979991 L1.3401291324491496 8.45785340997995 L1.3353749004491675 8.478730687979922 L1.2936203444491383 8.56141297997998 L1.2831817044491771 8.573711970980018 L1.2689190084491173 8.579189671979922 L1.2350192694490971 8.582703669979967 L1.2198263984491717 8.586321019979952 L1.205356997449158 8.591902074979973 L1.1964686504491198 8.599550186979958 L1.1838596014491856 8.576192439979994 L1.1747645494491366 8.56472027097998 L1.1653594384491868 8.559035863979947 L1.1534738594491358 8.559035863979947 L1.148822980449168 8.563583389979971 L1.1184372384491184 8.666109430979933 L1.0920822584491674 8.708484106979956 L0.9793393734491502 8.804154918979993 L0.9708752924491222 8.815185966979971 L0.9555815994491326 8.801347055979978 L0.9417469644491661 8.78498963397998 L0.919123266449148 8.74747335797996 L0.8815256104491453 8.701981821979974 L0.856995513449121 8.678199778979991 L0.8475086834491634 8.650793670980011 L0.7918536934491698 8.592576941979974 L0.7814778324491698 8.580355108979962 L0.7805336404491499 8.574714726979995 L0.7853366324491589 8.567914935980003 L0.7912282314491534 8.569087688979995 L0.804586229449157 8.584338082979958 L0.8096919424491347 8.581598637979983 L0.8144050014491171 8.569473206979968 L0.8116341154491664 8.54839449397996 L0.7853342034491533 8.514237680979978 L0.7429010944491523 8.475964217979982 L0.7381735914491259 8.463433221979972 L0.7389554654491661 8.453255936979975 L0.7625881934491616 8.453493528979994 L0.7814305184491417 8.432836305979993 L0.7858920134491285 8.410322300979988 L0.7676762694491543 8.37267302598001 L0.6542499434491305 8.259046327979991 L0.5503895424491674 8.170243539979982 L0.4591623284491533 8.089595753979996 L0.41185503744917185 8.060284740980013 L0.3626709634491334 8.016921509980012 L0.3437651934491299 7.9865684099799985 L0.33896376144916474 7.980220753979996 L0.3260243084491634 7.9583294779799765 L0.32333876144916474 7.94864523297996 L0.3243967034491533 7.926672576979957 L0.323420141449148 7.9153607279799765 L0.319513891449148 7.907466847979993 L0.23144822244914565 7.837280193979996 L0.13369219344916417 7.773028877979971 L0.10036217144913451 7.74865558798 L0.07528390555890141 7.732411320776093 L0.09089031444914042 7.703412115979976 L0.15735895044919346 7.524370336979917 L0.17379205644915885 7.492847712979955 L0.19983697844922688 7.470626846980014 L0.2339434234491904 7.448509333980002 L0.2637090484492006 7.424014704979957 L0.2959551414491415 7.404170954979964 L0.33708958244913845 7.395902725980012 L0.37522678944920074 7.38319032297996 L0.39755100844915603 7.3545615799799755 L0.41625787644913714 7.323762425980011 L0.4438530914491281 7.304848852979976 L0.49397923044917036 7.312083552979946 L0.531082908449136 7.340505590979962 L0.6104579084491917 7.4688698489799386 L0.6272010724491537 7.486956599979951 L0.6489051744491547 7.494294653979953 L0.7033721334491503 7.487266658979937 L0.7234225904492035 7.489540421979957 L0.7809901354491302 7.505973526979918 L0.7995936514492001 7.506490290979958 L0.8020753574491692 7.505543660979971 L0.8196441074491503 7.498842178979974 L0.8412448554491192 7.482719131979994 L0.8589181954492204 7.461635147979965 L0.866773013449162 7.439104223979957 L0.8597450184491464 7.417916885979995 L0.8405213854492075 7.407581599979981 L0.8168535794491874 7.399933486980007 L0.7961830064491693 7.38763449697996 L0.7862611314491659 7.366757217979984 L0.7890516584492246 7.343606176979993 L0.846102440449144 7.208834040979983 L0.8596416654491037 7.184752823979938 L0.9027398104491198 7.152506729979979 L0.9161756824491789 7.131009333979936 L0.9056336904491928 7.098763240979981 L0.8669797184492012 7.0806764889799645 L0.8195407544492213 7.0676540279799305 L0.7831605454491211 7.050394098980025 L0.7428529284491816 7.017217829979931 L0.7217689444491526 7.004608780979996 L0.6651315744491484 6.980940974979962 L0.6573801094491643 6.975153213979983 L0.6488018214492257 6.966574926979963 L0.6469414704492209 6.96275087098002 L0.6485951164491581 6.95706646297997 L0.6495252924491268 6.887820043979961 L0.6544862294491764 6.870250056979987 L0.667715396449168 6.845445369979945 L0.6781540344492072 6.839140843979937 L0.6918999664491281 6.8402777259799485 L0.714947655449194 6.83790060998 L0.7396489894492078 6.822707738979975 L0.7396489894492078 6.801210342979932 L0.724972882449137 6.778162654979969 L0.6489051744491547 6.697340714980005 L0.6143853184491803 6.647214574979987 L0.598055565449144 6.628817764979988 L0.5781084624492081 6.622306533980012 L0.5496864244490922 6.630988175979983 L0.509172101449181 6.659410212979996 L0.4920155264492081 6.662304093979987 L0.48684788344921515 6.638842992980006 L0.49683336044914483 6.600550857980014 L0.4987334624491524 6.593264378979928 L0.5715972314491609 6.474408585979933 L0.5807956374491567 6.449087133979962 L0.5856532214491637 6.4283132079800005 L0.5856532214491637 6.407539281979968 L0.580278872449199 6.382011123980025 L0.5708737614491639 6.359583552979945 L0.5455523094491781 6.319172582979963 L0.537800845449155 6.298088598979934 L0.537387434449144 6.280621963979986 L0.5446221344491988 6.225224828980021 L0.5410047844491288 6.203210668979953 L0.5195073884491848 6.144919653979915 L0.5274655584491512 6.125282608979976 L0.5296359684491421 6.124662491980008 L0.5666362944491965 6.125902725979945 L0.6171758454491254 6.141198949979998 L0.6309217764491706 6.148226944979999 L0.6371229474491571 6.155978409979927 L0.64115371044916 6.164349991979993 L0.6488018214492257 6.173238337979999 L0.6825982084491926 6.199696670979993 L0.7007883124491485 6.20930848798 L0.7173247714491566 6.210652074979965 L0.7339645824491612 6.200936905979933 L0.7678643214491814 6.169724340979958 L0.7900851874492076 6.160835994979937 L0.8261553374492081 6.1537046469799925 L0.8683233064491702 6.140165421979919 L0.8996392244491886 6.124662491980008 L0.9099745104491745 6.130760310979969 L0.9280612624491908 6.144092829979986 L0.9619610014491258 6.186157445979919 L0.9925534494491188 6.207138076980005 L1.0235593084491512 6.210548721979951 L1.420537661449103 6.12548931397993 L1.4091688464492194 6.1034751539799466 L1.4164035474491783 6.071125707979963 L1.4298394194491522 6.036709203979999 L1.436764061449125 6.007977107979915 L1.4296327144491698 5.966635961979964 L1.4314930654491747 5.95185650197995 L1.4386244124491299 5.936663630979925 L1.4566078114491035 5.9083449459799375 L1.4610519844492131 5.89108501797995 L1.4220879544492249 5.873411677980034 L1.4013140284491925 5.841372289979933 L1.3927357414491581 5.800961319979951 L1.3843641584491735 5.693164281979964 L1.38818821444913 5.67962505697999 L1.3993503234491556 5.682208878979981 L1.411276934449191 5.694853478980026 L1.430252830449163 5.71497173597999 L1.4478228184491257 5.720449438979973 L1.4607419254491418 5.713421443979971 L1.4650827464491982 5.70329286298001 L1.4658062164491952 5.692440811979967 L1.4675632144491857 5.68375917098 L1.4736610334491473 5.671046768979952 L1.4786219714491864 5.66453553797999 L1.484719790449148 5.658851130979944 L1.533709048449154 5.625984919980002 L1.5444577464491687 5.622057510979946 L1.5936537104491464 5.620713923979981 L1.6362350904491194 5.638387262979979 L1.7022818294491486 5.6862275709799555 L1.7067217434491653 5.689443578979951 L1.7489930644491523 5.703086156979968 L1.7658395814491286 5.714661677980008 L1.7774151034491723 5.7390529539799395 L1.7994292624491521 5.811606664979951 L1.8084209624491194 5.832794001979995 L1.8142087234491697 5.840132055979996 L1.8298150044491166 5.855428278979961 L1.8342591784491304 5.861422744979979 L1.8381865874491865 5.884263727979988 L1.8364295884492066 5.884677139980003 L1.8364295884492066 5.88932801897997 L1.8353960594492236 5.895322485979992 L1.8375664704491186 5.90049012898 L1.8563766924491318 5.9053477129800065 L1.8557565744491598 5.911135473979986 L1.851829165449189 5.917750056979987 L1.8499688134491947 5.922504287979979 L1.845731346449142 5.93004904698002 L1.843974347449162 5.936353572979943 L1.8463514634491247 5.942968155979944 L1.8594772774491588 5.955783910980021 L1.8633013334492006 5.962811905980022 L1.8640248034491975 5.973147191979937 L1.8683656234491792 5.990923884979967 L1.8826283184491643 5.990407119979938 L1.9069162414491672 5.978004776979962 L1.9155978834491378 5.986479711979957 L1.934304751449119 6.017072159979978 L1.943709862449154 6.02854432797999 L1.948774152449218 6.055519424979924 L1.9514613264491771 6.063580948980007 L1.958592674449207 6.071229059979988 L1.9646904934491687 6.07102235498002 L1.9694447254491507 6.072055883980003 L1.9719251934492235 6.083321344979968 L1.963553611449143 6.092209691979992 L1.9579725574492244 6.100374568980005 L1.9559055004491626 6.110503148979962 L1.9551820294491762 6.119081436979986 L1.9523915024491174 6.127866429979978 L1.948360741449207 6.136238011979959 L1.943709862449154 6.14326600697996 L1.9325477534492137 6.1526711179800095 L1.9273801094491176 6.161972875979945 L1.9302739894491907 6.167967341979978 L1.943709862449154 6.167243871979981 L1.9552757584491047 6.1556779759799305 L1.9733721344492068 6.137581598979924 L1.9862912424492123 6.133757543979971 L2.011095930449173 6.138201716979982 L2.075588117449186 6.167450576979935 L2.096465396449176 6.172514867980002 L2.1074207994492298 6.170241104979983 L2.126541079449126 6.159078994979954 L2.1381166004491803 6.157528702980034 L2.147935122449141 6.159699112979926 L2.3222914054492065 6.224398005979996 L2.3400680984491515 6.2264650629799725 L2.3592917314491757 6.221710830979976 L2.380995832449159 6.225224828980021 L2.3861634754491803 6.225328181979965 L2.400219465449183 6.220987361979983 L2.4066273424491413 6.222641006979931 L2.414998924449108 6.234939997979968 L2.4201665674491295 6.236593643979919 L2.4307085604491903 6.230599177979986 L2.4352560864492006 6.222537654979991 L2.438046613449174 6.213235895979967 L2.4435243144491636 6.203624079979964 L2.4534461904491565 6.194012263979946 L2.485898990449172 6.171584692979952 L2.494373924449164 6.163213109979981 L2.508946678449135 6.144919653979915 L2.5188685534492237 6.136031306979991 L2.5307541334491503 6.130036839979969 L2.5546286454491423 6.122388728979988 L2.5646538724491705 6.115567438980026 L2.5690980464491844 6.10667909298002 L2.5719919254491543 6.085491755979962 L2.5787098624492018 6.075156469979962 L2.6547775704491556 6.001465876979939 L2.662839093449165 5.990303766979995 L2.666508120449137 5.97986512897997 L2.668058413449174 5.960124730980002 L2.67074558744919 5.949065974979991 L2.6812875804491654 5.92911887197997 L2.7021648584492226 5.898009659980023 L2.7044386214491425 5.892635309979969 L2.7076425604491163 5.893875544979995 L2.718184553449177 5.901420304979954 L2.731930483449119 5.914649470979942 L2.7440227684491987 5.93356304497998 L2.75270440944918 5.954647029979913 L2.761799461449229 5.995988174979946 L2.784537092449213 6.04239361197995 L2.796836082449161 6.060790421979949 L2.8151295394492166 6.079393936980001 L2.8218474764491503 6.089212458979976 L2.825154767449149 6.11701437898002 L2.8329062324491616 6.124352433979926 L2.843448225449137 6.12941672397999 L2.853783511449123 6.136754776979988 L2.8674260884492213 6.1553582919799545 L2.863188621449197 6.161869522980016 L2.851303042449146 6.169207576980003 L2.837143699449129 6.19938661298001 L2.8163697744491714 6.209825251980039 L2.808928368449145 6.21861024598002 L2.8082048974491585 6.257160863980008 L2.8070680164491506 6.262121801979962 L2.823397769449187 6.2764878499799615 L2.8462387524491675 6.284032608980002 L2.8707333804491526 6.285272842980039 L2.8917140124491283 6.280932022979972 L2.908973940449229 6.270493383980028 L2.9185857574491507 6.266152562979958 L2.9283009264491824 6.266152562979958 L2.937499331449189 6.272870499979977 L2.940496564449191 6.291163956979947 L2.946904441449149 6.297055069979951 L2.9545525544491085 6.2971584229799795 L3.0005445794491976 6.282792374979966 L3.006849103449113 6.281655492979969 L3.0168743314491593 6.28248231597998 L3.0322739084491417 6.29137066198 L3.0421957824491273 6.2955047759800244 L3.051290835449194 6.29416118897996 L3.0572853014491415 6.286616429979919 L3.0618210614491517 6.27361973297997 L3.068033999449156 6.255817276979943 L3.076508934449137 6.246928929980019 L3.0861207504491546 6.239384170979978 L3.09314874544917 6.230702530980015 L3.09273533344917 6.204450902979989 L3.097282860449198 6.194322322979932 L3.1054477364491078 6.185744033979905 L3.1245680164491176 6.169517634979901 L3.1336630684491666 6.163419815979939 L3.14358494344917 6.15887228998 L3.191333966449136 6.147710180979974 L3.1956747874491356 6.150500707979933 L3.1882333814491943 6.118668025979975 L3.1124757314491234 6.054589249979973 L3.1092717924491495 6.020379450979977 L3.122811017449223 6.009837459980009 L3.1571241694491476 5.997331761979911 L3.170456688449164 5.982759008979958 L3.170663394449136 5.975420954979956 L3.16446222244916 5.957540909979901 L3.1655991034491677 5.94772238797994 L3.1709734524492177 5.942968155979944 L3.1882333814491943 5.9368703369799825 L3.1950546694491635 5.93004904698002 L3.1997055484492165 5.9157863529799535 L3.205286603449153 5.863076391979934 L3.21190118644914 5.8433359939799665 L3.212934715449123 5.833414118979977 L3.208077131449201 5.824939183979968 L3.1999122544491883 5.818944717979949 L3.194744611449167 5.8137770749800275 L3.194124493449195 5.807575902979952 L3.1993954904491346 5.798170791979988 L3.1988787254492053 5.7866986239799765 L3.201359194449182 5.77781027797997 L3.206320132449136 5.770368871979944 L3.213451479449148 5.763134170979971 L3.32983810344912 5.717675402979953 L3.3319972154491637 5.7168320879799985 L3.3585589024491895 5.702362686979971 L3.365793602449159 5.68861675597994 L3.3581454904491608 5.645001846979984 L3.3587656074492287 5.636526911979974 L3.3648634264491903 5.610792048979977 L3.36796401244915 5.531106990979939 L3.374371890449183 5.509506241979967 L3.386464175449177 5.496070368979918 L3.4100286284491546 5.481807673979947 L3.4023805164491847 5.475193090979946 L3.3812965324491557 5.471679092979986 L3.3642433094491224 5.466408096979951 L3.3521510234491387 5.4258937739800395 L3.3327206854491607 5.415041722979996 L3.326106102449174 5.40760031697997 L3.3350978014491233 5.399642145980014 L3.3555616684491696 5.392407445979945 L3.3649667794491194 5.387756567979981 L3.374475243449197 5.380831924980004 L3.3811931794491414 5.370703343979958 L3.385223941449212 5.359127823979907 L3.39163181844917 5.35044618298004 L3.4243946764491824 5.344245011979968 L3.4239812654491715 5.329155492979968 L3.412819155449128 5.31117209397998 L3.3996933424491687 5.298149632979946 L3.412302391449188 5.269210830979976 L3.4139560374491253 5.24512961397993 L3.417573387449224 5.23572450397997 L3.4291489084491644 5.22456239398004 L3.441861310449113 5.216397517980017 L3.448992658449143 5.204925349980005 L3.4434116034491495 5.184151423979959 L3.4082716294490893 5.160897028979949 L3.393595523449207 5.14570415798001 L3.387601056449185 5.126583877980014 L3.3903915834492153 5.115525121980017 L3.397316226449206 5.108290421979948 L3.4055844554491586 5.101882543979915 L3.412819155449128 5.093717667979991 L3.4184002104491498 5.08317567497993 L3.4220175604491345 5.073563858979927 L3.426048322449205 5.0511362869800145 L3.427081851449188 5.019923722980028 L3.4254282054491654 5.01093202297999 L3.417676740449153 4.998012913979981 L3.4007024224491573 4.981288218979959 L3.3965927554491344 4.977238988979952 L3.3895647614491935 4.965043350980029 L3.389254702449122 4.956465062979991 L3.394835757449229 4.9392051349800035 L3.395662580449155 4.930626847979983 L3.3922519354491527 4.91894797398 L3.3816065904491523 4.897347224980027 L3.3530811994491927 4.818902400979926 L3.3532879054491644 4.804536351980008 L3.363829897449122 4.783245661979937 L3.368790835449161 4.7400441639799915 L3.374061831449197 4.717099828979958 L3.38946140744919 4.692501846979983 L3.4071347484491668 4.673071508979991 L3.4184002104491498 4.651677464979986 L3.4141627434491824 4.621291722980022 L3.4074448064491634 4.595866918979926 L3.4072381004491064 4.571268936979937 L3.412819155449128 4.546774307979977 L3.4534368314491672 4.458924372980011 L3.460258120449211 4.426471572979995 L3.4512664214491764 4.39649924297996 L3.4278053204491954 4.3482334559799405 L3.415506330449162 4.3351076419799774 L3.375715477449134 4.30771913197994 L3.3535979644491505 4.277953506979944 L3.3199049304491695 4.256869522979915 L3.28187107644915 4.240023005979939 L3.253965802449173 4.23196148198004 L3.2368092274492 4.234648656979974 L3.2213062974490896 4.241986709979972 L3.20601007344915 4.247154353979969 L3.1897836744491173 4.243330297979941 L3.171490217449147 4.235888890980011 L3.1543336414491847 4.23599224397994 L3.1377971834491944 4.24167665197999 L3.120950666449218 4.2506683509799394 L3.119193667449153 4.213254613979959 L3.1118556134491513 4.172016820979966 L3.099556623449118 4.13191590997997 L3.0827101064491416 4.097706111979964 L3.056665184449159 4.072177953979935 L3.0200782704492184 4.054401260980004 L2.979977359449137 4.048200089980018 L2.9435971504491505 4.057811905979936 L2.936362450449181 4.048096736979989 L2.9283009264491824 4.04137879997997 L2.9185857574491507 4.037554743980014 L2.8828256654491184 4.03342062898 L2.8750742014491237 4.0361078039799345 L2.8712501454491672 4.042722386980021 L2.8685629704491618 4.049957087979994 L2.8643255034491943 4.054401260980004 L2.8510963364491175 4.0592588459799295 L2.8446884594491593 4.060499079979966 L2.8386939934491267 4.056054906980041 L2.7924952624491794 4.000967830979977 L2.793425438449148 3.9726491449799863 L2.803967430449191 3.94784445698004 L2.8493211504491427 3.8876432779799655 L2.8617416824491926 3.871156631980004 L2.871973615449164 3.8614414629799723 L2.8824122544491075 3.8485223549799668 L2.8813787264491424 3.8379803619799913 L2.876211083449121 3.8268182529799657 L2.8742473784491978 3.812142146979984 L2.8784848464491546 3.8022202719799805 L2.892644187449193 3.7839268149800103 L2.894194481449219 3.773488174979978 L2.8863396634491636 3.7611891849799446 L2.874350731449212 3.7590187739800354 L2.8626718584491613 3.7587087159799677 L2.8561606264491814 3.7518874269799096 L2.851923160449118 3.6796437739799797 L2.847168928449136 3.6552524979799483 L2.8374537584492003 3.62424663897993 L2.8324928214491507 3.5991318919799977 L2.8370403464491716 3.5752573809800094 L2.871043439449224 3.524614477979956 L2.9064934724491565 3.4451361249799572 L2.9277841624491288 3.4225018469799164 L3.0016814604492055 3.3817808179799482 L3.0203883284491866 3.360283421980004 L3.0243157384491752 3.3396128499799898 L3.0181145654491814 3.31914898197994 L3.006849103449113 3.2982717039799536 L3.037234845449163 3.2561037349799915 L3.0867408674492225 3.249385798979976 L3.142861473449173 3.255690322979991 L3.193090966449219 3.253003148979961 L3.2065268384491645 3.2478355059799537 L3.212211245449211 3.2437013919799296 L3.2159319494491427 3.2384303949799897 L3.2900359524491734 3.1743516189799874 L3.29665053544916 3.1529575759799724 L3.29964776944918 3.1016428789799346 L3.3285865714491507 3.0600433509799285 L3.374681948449151 3.0205108799799842 L3.4088917474491467 2.9793247639799927 L3.4022771634491704 2.9327642979799475 L3.3988665184491396 2.9204136309799833 L3.4064112774491804 2.9123004309799865 L3.418296857449107 2.9052207599799584 L3.4274952624491988 2.895919001980023 L3.429355614449136 2.8823280999799477 L3.4217075014491485 2.874318252979965 L3.397832990449146 2.862277644979987 L3.378816063449179 2.8449660399799837 L3.3620728994491316 2.825225641980016 L3.3480169094491288 2.8033148349799757 L3.3369581534491175 2.7799570879799274 L3.3213518704491634 2.7287974209800194 L3.307709292449161 2.708436905979998 L3.259753563449223 2.6863193919799824 L3.2441472804491838 2.6654421139800104 L3.2359824044491887 2.639913956979971 L3.2370159334491717 2.564466364979982 L3.234328758449223 2.5383180909799745 L3.2194459454491806 2.475892960980009 L3.213451479449148 2.4647308509799797 L3.202702782449151 2.4563592689799987 L3.191333966449136 2.451605037980006 L3.18275567944913 2.446075658980011 L3.1812064744491835 2.440537252979969 L3.179655092449181 2.4349910649800006 L3.167769514449148 2.4327173009799776 L3.1602247544490893 2.4272395989799844 L3.1538168774491595 2.4205991779799843 L3.1451352364491783 2.41470806497998 L3.1057577944491896 2.4039335279799627 L3.085707339449229 2.4019698239799294 L3.0677239414491595 2.4066207029799824 L3.0319638494491556 2.420444147979954 L3.0107765124491976 2.4191522379799903 L2.9950668764492008 2.4079126139799496 L2.9802874174491905 2.393417373980004 L2.9620973134491493 2.3825394859799514 L2.944837385449162 2.3787154289800054 L2.756011701449168 2.361119603980019 L2.7418523584491226 2.3645302489799502 L2.741025536449186 2.3692844809799465 L2.731620425449151 2.395122695979968 L2.7194247874491424 2.419048884979962 L2.716117495449211 2.4212192949799527 L2.7053687974491964 2.4252758949799653 L2.7023715644491944 2.4242423669799718 L2.690692690449211 2.4186354729799615 L2.685628400449147 2.4176019439799785 L2.6788071114491885 2.4201857669799733 L2.6668181794491232 2.42956503898002 L2.660358624449188 2.43276897697999 L2.6419618154491644 2.4361537839800076 L2.6327634094491685 2.436773900979976 L2.623358300449226 2.436360489979965 L2.6035145494492298 2.4381691649799575 L2.5893552064491843 2.44741924697998 L2.576332746449154 2.4581162679799786 L2.5404693024490967 2.472068904979967 L2.5176283194492015 2.5027647049800135 L2.504709210449178 2.512066462979949 L2.4712228824491973 2.5182676349800244 L2.441043846449176 2.5184226649799695 L2.4101413404491865 2.51247987397996 L2.375208071449194 2.500025853979967 L2.3600152004491832 2.4986305909799893 L2.3382077464491573 2.501111059979966 L2.318674054449147 2.5064854079799272 L2.310612531449138 2.5139784909799556 L2.3042046534491902 2.53170350697997 L2.287254784449189 2.5362510329799233 L2.269064680449148 2.538834854980014 L2.250461163449117 2.5615724849799943 L2.232167707449136 2.569530654979961 L2.211497134449118 2.5737681229799176 L2.177080629449179 2.571184301980001 L2.1567201164491365 2.5744399169799874 L2.146178124449179 2.573044652980006 L2.146153080449139 2.5729319529800034 L2.1430775374491446 2.559092016980007 L2.1335690744491416 2.5526841379799703 L2.121580141449172 2.5478265539799634 L2.1114515614491296 2.538938207979943 L2.1304684884490968 2.5369745029800055 L2.1379098944491233 2.5246755119799684 L2.1416305974491507 2.5107228759799693 L2.149588768449192 2.504108291979979 L2.1636447574492053 2.5021445879799455 L2.1805946274492243 2.49635682797997 L2.1948573224490957 2.486745010979963 L2.204262433449159 2.466694554980013 L2.210360252449206 2.4631805579799573 L2.2125306634491864 2.457909561979936 L2.2041590804491165 2.445765599980025 L2.2008517894491177 2.4390476639799954 L2.2004383774491174 2.4313737139800122 L2.2010584944491853 2.4232088379799888 L2.1997149074492057 2.3759249019799467 L2.2007484364491887 2.367579157979979 L2.1847287424491384 2.357553930979965 L2.1667453444491542 2.3091847899800126 L2.146178124449179 2.2986686359799546 L2.152172590449098 2.28448345497991 L2.1509323554491715 2.2708150389799937 L2.143904360449156 2.2590069739799827 L2.1325355464491764 2.250299494979917 L2.1257142564492 2.2577150629799303 L2.1072140944491906 2.2321352289799745 L2.0908843414491542 2.2030930739799897 L2.1080409164492124 2.183301000980013 L2.1112448554491863 2.1592714599799803 L2.1052503894491537 2.113744522979918 L2.1090744454491954 2.0926863769799877 L2.115895734449154 2.0739019939799914 L2.118789614449142 2.0564095219800334 L2.1114515614491296 2.039252944979968 L2.124060611449167 2.031914891979984 L2.134292544449224 2.018608210979967 L2.141940656449137 2.0035445309799695 L2.1522759424491227 1.9668284259799873 L2.1537228824491166 1.9508087319799512 L2.149588768449192 1.9389748289800264 L2.144421124449181 1.9315075849800007 L2.1363596014492003 1.9134466709799836 L2.123440493449195 1.8957216549799694 L2.127574607449205 1.8911741289799449 L2.13946018744916 1.8877634849799176 L2.146178124449179 1.8721055249799616 L2.1529994134491375 1.8604783279799944 L2.1597173494491386 1.8524426429800127 L2.166331932449154 1.846215632979924 L2.171499575449147 1.8392393149799386 L2.173566633449198 1.8291365719799768 L2.167882225449162 1.810403864979993 L2.1681922834491587 1.8019806069799995 L2.1772873364492256 1.7983890949799286 L2.1825583324491475 1.7947200689799314 L2.2007484364491887 1.774824641979937 L2.206742902449136 1.7702512769799807 L2.2423996414491256 1.7505883949800318 L2.2526315744491825 1.7266105299800256 L2.256145571449153 1.694467788979996 L2.2558355134491563 1.6344972899799939 L2.4278146794491846 1.636047582979931 L2.5816037424491896 1.6374428469799978 L2.623533891449185 1.6377939489800082 L2.785260561449107 1.6391481689799616 L2.9640610184491862 1.6407501379799965 L3.1230177234491947 1.642145401979978 L3.228230939449176 1.6431272539799449 L3.237532697449197 1.641990372979937 L3.281561017449164 1.624885472979987 L3.3449163234491692 1.633463760980011 L3.3606259594491377 1.642403783979948 L3.379952945449091 1.6602838299800067 L3.394215639449172 1.6634360919799644 L3.400003400449137 1.661575739979956 L3.4204672674492116 1.6490183679799526 L3.4993255034491284 1.632171850979962 L3.508317202449163 1.6290195879800007 L3.511521141449137 1.6203896239799644 L3.509247378449217 1.6111912189799722 L3.509040673449178 1.6018894609799372 L3.5183424304490956 1.593156143979972 L3.5234067214491773 1.5867482659800243 L3.549141584449174 1.5938279379799565 L3.5822145004491546 1.6307249099799788 L3.6060890124491465 1.641370254979965 L3.5976140774492222 1.6572349199799743 L3.6073292464491686 1.6621958579800133 L3.633270816449212 1.6612140059799612 L3.647223452449211 1.6696889409799565 L3.6669638504491644 1.6900236169799894 L3.6817433094490895 1.6959664059799917 L3.674922020449131 1.6715751299799746 L3.6821567204491004 1.6679577799799898 L3.7091318184492224 1.6823496659800026 L3.694765770449223 1.6935376139799456 L3.6885645984491617 1.6959664059799917 L3.6983831204491224 1.6994804029799622 L3.708821759449151 1.6983693599799534 L3.7176067534491466 1.6959664059799917 L3.7226710444492 1.6959664059799917 L3.7238079254491225 1.7030202389800064 L3.7228777494491823 1.7253702959799893 L3.726081688449156 1.7300986889799685 L3.7875766434491567 1.7233032379800233 L3.8024594554491813 1.719634211980026 L3.809487450449197 1.710358292980008 L3.8114511544491307 1.6981884929799986 L3.8114511544491307 1.6857603109800192 L3.8182724434490893 1.6796108149799562 L3.8327418444492167 1.693899348979944 L3.845867658449194 1.7134588779799498 L3.849071597449168 1.7233032379800233 L3.86860528844916 1.7366615959799572 L3.8578565904491455 1.7646185459799608 L3.8537224754491177 1.789164851979923 L3.893409975449188 1.7922137609799518 L3.9151140774491893 1.7897332929799785 L3.9243124824491957 1.785134089979938 L3.9322706534491516 1.761104548979905 L3.9419858224492117 1.76244813597997 L3.9895281404492238 1.800249446979937 L4.004927717449206 1.804693618980029 L4.024358055449184 1.7983890949799286 L4.036140282449182 1.8161916259799722 L4.052883446449229 1.81112733497999 L4.068903140449194 1.7947200689799314 L4.0790317204491515 1.778545344979936 L4.085129539449198 1.778545344979936 L4.099805647449173 1.7840488849799425 L4.112931460449161 1.7545674799799298 L4.144867495449134 1.766220515979985 L4.1583033674491645 1.7605877849799652 L4.173909650449204 1.7559369059799974 L4.194993634449148 1.7642568109799623 L4.199954572449187 1.7702512769799807 L4.205432274449194 1.7854958249799364 L4.209359682449147 1.7922137609799518 L4.214837385449229 1.7952368319799672 L4.248840477449178 1.8077683669799751 L4.256695295449205 1.8140212159799813 L4.2623797024491665 1.821798518979993 L4.264550112449157 1.8291365719799768 L4.263206525449178 1.8422365469800366 L4.261449527449102 1.847895116979974 L4.262896467449096 1.8519775549799857 L4.270751284449133 1.8604783279799944 L4.275608869449158 1.861305151979924 L4.299069969449121 1.8717954669799792 L4.298656557449121 1.8740950679799977 L4.310438784449204 1.872260554979992 L4.329249006449217 1.8627004149800013 L4.349402815449096 1.8560083159799814 L4.400459129449175 1.8257259269799602 L4.444177391449145 1.819705623979932 L4.487895652449126 1.827741308979999 L4.573058413449175 1.8530110839799687 L4.668039696449185 1.8635789139799397 L4.6723805164491665 1.8681781169799945 L4.682819155449195 1.8739400389799568 L4.69532485244919 1.878849299979994 L4.718682600449128 1.882570002979993 L4.725917300449211 1.8868333089799632 L4.764157859449185 1.9355900219799094 L4.776663556449179 1.9421270919799878 L4.803328595449145 1.9514030109800058 L4.827203107449222 1.9670868079799715 L4.836918277449158 1.971789362980037 L4.843636212449198 1.9788431969799558 L4.8462200354491785 1.993906876979953 L4.851180972449228 2.0022784589800193 L4.863066552449155 2.0018133709799923 L4.876502424449129 1.9965940509799833 L4.887147768449196 1.9908062909800077 L4.890248354449156 2.0065934399799983 L4.905027814449156 2.0139314939799857 L4.924458152449162 2.018194799979956 L4.941718081449139 2.0249644119799837 L4.952053367449153 2.019383356979976 L4.9640423004491225 2.01964173997995 L4.975101056449105 2.0242409419799867 L4.983265932449214 2.031759862979943 L4.9876067534491 2.043257868979968 L4.986159813449106 2.053076390979929 L4.983265932449214 2.062507340979995 L4.983265932449214 2.07276511197998 L4.991740867449138 2.0901542309799095 L5.031118309449127 2.141003840979924 L5.076076805449148 2.076485814979993 L5.084861798449126 2.0739536699799044 L5.106359194449183 2.0812400469799752 L5.117107892449198 2.076485814979993 L5.120311831449172 2.0607503409800114 L5.096333967449155 1.950240290979981 L5.062640933449089 1.8627520909800137 L5.044760887449129 1.8325472169800077 L5.036182599449191 1.8249507809799508 L5.029981427449215 1.8219535479799345 L5.026157372449191 1.816605036979983 L5.025020490449165 1.7796822269799475 L5.02770766444921 1.770070409980026 L5.043003889449167 1.7487280429800234 L5.042797183449196 1.7399172109800287 L5.039386538449165 1.732114069980018 L5.037939598449171 1.7233032379800233 L5.037422834449146 1.7227347979799714 L5.036802717449163 1.7200992999799536 L5.036802717449163 1.7156034509799452 L5.037939598449171 1.7096348219800075 L5.040936831449116 1.7052940019800258 L5.0453810054491015 1.7039504149799751 L5.049411766449182 1.7037953859800195 L5.051582176449088 1.7028135339799673 L5.053752587449182 1.688654190980007 L5.051065411449159 1.6794041099800023 L5.046827944449191 1.67064495398002 L5.044760887449129 1.6578033609799303 L5.047034650449163 1.6463828689799311 L5.0590235824492 1.6240069739799492 L5.0656381664492045 1.6019928139799657 L5.08165786044917 1.592225967979918 L5.101915022449177 1.5957399659799631 L5.1205185374492 1.6134649819799773 L5.160722801449154 1.5833892979799242 L5.168991030449192 1.572485570979954 L5.1636166824492165 1.5635455489800205 L5.1579322744491805 1.5591013749800067 L5.209298648449149 1.449960749979955 L5.254773908449195 1.3534808509800382 L5.2869166494491395 1.2850612549799547 L5.332391909449186 1.188633031979951 L5.374973289449159 1.098354304979925 L5.3887599674491895 1.0690624419799701 L5.41187026244917 1.0199611569800209 L5.440395652449226 0.9592413499800228 L5.445046531449194 0.935160131979988 L5.436261538449216 0.9171767339799897 L5.421792137449174 0.9009503329799924 L5.409596499449165 0.8820884359799703 L5.406805971449202 0.8379050859799588 L5.445459943449194 0.7636460529799831 L5.452074526449209 0.727730932980013 L5.444426415449229 0.7054067139799582 L5.433987775449182 0.6849428459799936 L5.426029604449226 0.6637555089799503 L5.4267530754491276 0.6390541749800218 L5.438328596449182 0.6161615149799116 L5.472745099449227 0.5683091389800023 L5.478429507449178 0.5468634199799749 L5.479049624449132 0.5223171139800127 L5.504061017449132 0.45940105798000674 L5.512949363449152 0.3757885899799942 L5.528969058449192 0.3311659909799727 L5.5597682114491676 0.29388144497994917 L5.600695945449175 0.266958023980028 L5.6476181464491475 0.2533412839799394 L5.670665835449185 0.2518426669800147 L5.690819644449178 0.2533412839799394 L5.773191876449161 0.27388266498001146 L5.794275861449179 0.27269410797999116 L5.8139129054492145 0.26274639497998864 L5.815876610449166 0.25421978297996306 L5.813086082449203 0.2436519529799921 L5.814429669449154 0.23546123797996588 L5.829105777449158 0.23401429797997197 L5.838510887449203 0.23639141398001984 L5.8568043444491735 0.2431868649799651 L5.86600274944918 0.24491802597994594 L5.893701317449185 0.24163657197995692 L5.903519839449174 0.24246339497996816 L5.914475242449143 0.24866456597995468 L5.921813296449145 0.2571136639799545 L5.929874819449125 0.2620746009800041 L5.94320733944916 0.2575787519799815 L5.950958804449144 0.2560801349799715 L5.964394676449203 0.2578371329799478 L5.9704924954491645 0.2574237219799369 L5.978864077449131 0.2537546949799503 L5.9901295394492 0.24401368797999057 L5.9970541814491725 0.23941448497995 L6.013693993449195 0.2315855059799259 L6.022685692449144 0.2294150959800203 L6.049660790449181 0.23112041797998417 L6.063406720449208 0.22895000797999332 L6.090278465449202 0.21848552997996196 L6.104024396449134 0.21471315097993626 L6.144125308449148 0.21595338497997263 L6.158491356449147 0.21383465197999785 L6.1752345204491945 0.20626405498002898 L6.184226219449144 0.19703981098001977 L6.192391095449167 0.1864461429799502 L6.2062403794491985 0.1749481369799395 L6.220709780449155 0.16965130197998635 L6.233525535449147 0.17099488997995538 L6.259363751449158 0.17965069198000494 L6.2956406084492045 0.17704103198000043 L6.317034650449116 0.15711976697997843 L6.3369817534491375 0.13210837397999287 L6.3757565454491925 0.11214051697993854 L6.388761538449202 0.10544333398003802 L6.403954409449128 0.09428122498001246 L6.42018080944915 0.0872790689799996 L6.443125145449173 0.09079306597997006 L6.447465965449155 0.09526307697997938 L6.451393374449125 0.10841472897995574 L6.45625095944915 0.1123421379800118 L6.470203595449149 0.11378907898000934 L6.4747511214491595 0.11637289997992584 L6.511751447449214 0.14740459797994676 L6.548028303449186 0.16332093897996858 L6.588542625449193 0.1692378899799718 L6.670398094449226 0.16913453797994693 L6.6757724434491905 0.1680493329799515 L6.687347964449131 0.16370851197998038 L6.694479311449172 0.1633467769799819 L6.701197248449191 0.16639568597991117 L6.710912417449137 0.1774802809799252 L6.717216942449156 0.1810459559799864 L6.726415347449162 0.18120098397993845 L6.745742333449201 0.1773252519799695 L6.754423973449164 0.17804872197996646 L6.769616844449175 0.186962905979986 L6.782432599449166 0.2015614989799599 L6.791837710449144 0.21988079397994342 L6.796591942449126 0.2397245439800213 L6.80341323144917 0.255408340979987 L6.817675926449155 0.25825054497996236 L6.836589500449193 0.25282451997998523 L6.8748300604491845 0.23422100397994372 L6.8805144684492205 0.22995769797997356 L6.8857854644491425 0.2321022699799653 L6.921132143449157 0.2544781649800325 L6.930743960449163 0.25804383897991956 L6.943146304449144 0.256751928979956 L6.97435886844913 0.24158489597994448 L7.008361962449172 0.23241232897995134 L7.0432952304491465 0.2321022699799653 L7.077711733449192 0.2435485999799636 L7.095281721449183 0.26073101397993925 L7.1079941234491315 0.3006510579799806 L7.121119936449091 0.31524964897994723 L7.142824038449092 0.3181693689800409 L7.163804670449181 0.30822165497994947 L7.181271304449226 0.2916076819799298 L7.192846825449195 0.27439942997995503 L7.196670881449208 0.26463258397999256 L7.203802228449163 0.23442770897998289 L7.209796695449185 0.22065593998003807 L7.217134748449169 0.21833050098000628 L7.2261264474491185 0.22081096997998317 L7.23718520344913 0.22117270497998165 L7.3168702624491715 0.21409303297996418 L7.322864728449119 0.21538494497992078 L7.3341301914491766 0.22101767598004018 L7.341158186449192 0.22117270497998165 L7.344982241449131 0.2175553549799969 L7.349116356449159 0.20388693897999532 L7.353560529449155 0.19970114797995508 L7.364929344449152 0.1982025309799451 L7.3818792144491425 0.19918438297992624 L7.39097426644922 0.19533448897997063 L7.40926772344919 0.17753195798002652 L7.420326479449201 0.16417359997999315 L7.433348940449136 0.163501806979927 L7.458360334449125 0.18409486498001515 L7.474690086449172 0.20331849797993984 L7.5156178204491795 0.2691801109800207 L7.53153416244912 0.3059478919800154 L7.5437298004492135 0.3181693689800409 L7.587654767449166 0.31868613297998083 Z" fill="black" stroke="black" stroke-width="0.5" vector-effect="non-scaling-stroke"/></svg>