<svg xmlns="http://www.w3.org/2000/svg" viewBox="0 0 8.681953125000007 13.252031250000002"><path d="M7.975091145500016 13.060748698000019 L7.988315429500005 13.06546875 L7.999301757500007 13.074908854000022 L8.01976888050001 13.098509113999988 L8.022576497500012 13.109576823000019 L8.0111425785 13.116901041000027 L7.994541015500005 13.120888672 L7.981927083500011 13.122109375 L7.967197265500005 13.120400390000007 L7.956780599500007 13.115517578000002 L7.948601888500008 13.107135416000027 L7.940952148500003 13.095498047 L7.945590820500001 13.083697916000027 L7.9545019534999994 13.072060547 L7.965203450500013 13.063678385000024 L7.975091145500016 13.060748698000019 Z M8.201653645500016 10.950397135000024 L8.199700520500016 10.971555988999988 L8.202426757500007 10.9990625 L8.20140950550001 11.024453125 L8.187981770500016 11.039101562000006 L8.187981770500016 11.025429687000006 L8.182773437500003 11.015501301999983 L8.175937500499998 11.009153646000037 L8.170037434500017 11.001666666000027 L8.167514648500003 10.987832031000003 L8.17211263050001 10.979775390000007 L8.194085286500012 10.956419271000037 L8.201653645500016 10.950397135000024 Z M7.968906250499998 0.1639388019999828 L7.9477880864999975 0.1639388019999828 L7.931023763500008 0.15921875000000085 L7.912509765500005 0.14782552100003699 L7.9013606775000085 0.13610677100003699 L7.9067724614999975 0.12992187500000085 L7.968906250499998 0.1577539060000035 L7.968906250499998 0.1639388019999828 Z M6.111809895500016 12.369342448000019 L6.131219075500013 12.37015625 L6.151238606500016 12.375039062000006 L6.166904296500007 12.384804687000006 L6.1732519534999994 12.399941406000003 L6.173618164499999 12.420205078000002 L6.171787109500002 12.429482422 L6.166416015500005 12.437539062000006 L6.138787434500017 12.433388672 L6.135369466500009 12.434121093999998 L6.116367187500003 12.42484375 L6.076572265500005 12.427773437000006 L6.063388671500007 12.41703125 L6.0708349614999975 12.409544271000037 L6.076816406500001 12.390826823000019 L6.078240559500017 12.378782551999983 L6.086215820500001 12.372272135000024 L6.111809895500016 12.369342448000019 Z M8.596835937500003 11.338417968999998 L8.59166829450001 11.355019531000003 L8.5810888675 11.36234375 L8.569329427500008 11.358925781000003 L8.560296224500007 11.343951823000019 L8.560662434500017 11.326536457999985 L8.571079101500004 11.320595703000002 L8.585239257500007 11.324908854000022 L8.596835937500003 11.338417968999998 Z M7.831333007500007 11.177447916000027 L7.827874349500007 11.196002604000022 L7.813103841500009 11.202919922 L7.794549153500014 11.198932291000027 L7.779697265500005 11.183958332999985 L7.7744482425 11.159707031000003 L7.789340820500001 11.156044922 L7.812290039499999 11.164752604000022 L7.831333007500007 11.177447916000027 Z M7.641350911500012 11.015826823000019 L7.628574218500006 11.005166015000007 L7.633294270500016 11.006712238999988 L7.636346028500014 11.009479166000027 L7.641350911500012 11.015826823000019 Z M7.621982421500007 10.993854166000027 L7.615878906500001 10.999794922 L7.6122981775000085 11.000527343999998 L7.613681640500005 10.997760416000027 L7.621982421500007 10.993854166000027 Z M6.984490559500017 10.452431640000007 L6.972202148500003 10.447467448000019 L6.959466145500016 10.437701823000019 L6.9540950525000085 10.428505859000005 L6.963982747500012 10.425332031000003 L6.96898763050001 10.430540363999988 L6.9716731775000085 10.440305988999988 L6.977451171500007 10.447467448000019 L6.991570638500008 10.444375 L6.9907568364999975 10.447304687000006 L6.9892919925 10.449257812000006 L6.984490559500017 10.452431640000007 Z M0.08511718750000341 2.064980468999998 L0.0937841795000054 2.063515625000001 L0.0978938805000098 2.063352863999988 L0.10196289050000473 2.064492187000006 L0.09561523450000209 2.072304687000006 L0.09093587250001178 2.074746093999998 L0.08755859350000605 2.072304687000006 L0.08511718750000341 2.064980468999998 Z M4.923414713500023 1.565305988999988 L4.915317382500007 1.5579003900000075 L4.913242187500003 1.5547265620000061 L4.929721679500005 1.5641666660000269 L4.971551106500016 1.6059960939999982 L4.923414713500023 1.565305988999988 Z M4.821648763500008 1.2183007810000035 L4.839593099500007 1.2106510410000269 L4.834099934500017 1.219602863999988 L4.822381184500017 1.2278222650000075 L4.821648763500008 1.2183007810000035 Z M6.124545898500003 10.014036457999985 L6.1370377605000215 10.012164713000026 L6.1476578775000235 10.020465495000018 L6.148268229500019 10.028603515000007 L6.144687500499998 10.024941406000003 L6.143019205499996 10.018430988999988 L6.139967447499998 10.017535807000023 L6.130405273500003 10.036090495000018 L6.130039062500003 10.039589843999998 L6.133172200500013 10.061399738999988 L6.126783854500019 10.071165363999988 L6.116041666500024 10.070677082999985 L6.1088395185000195 10.061399738999988 L6.107333984500002 10.049029948000019 L6.111769205499996 10.029742838000026 L6.1157975265000175 10.023151041000027 L6.124545898500003 10.014036457999985 Z" fill="black" stroke="black" stroke-width="0.5" vector-effect="non-scaling-stroke"/></svg>