<svg xmlns="http://www.w3.org/2000/svg" viewBox="0 0 0.4406469727200317 0.3571826167199852"><path d="M0.39531127936002974 0.2972029623599983 L0.43083374036000066 0.3327661133600177 L0.43632690436002974 0.34196207635998555 L0.4274157713600033 0.3479842123599983 L0.40621622735999097 0.3520939123600133 L0.3813138833599936 0.35368082635998555 L0.36125366235999934 0.3518497723600067 L0.3348864743600046 0.3395206703599829 L0.2826403813599967 0.3044864903600146 L0.231330159360013 0.2893904623599983 L0.19828979536002578 0.2704288733599842 L0.16862670935999802 0.2468286133600177 L0.15580932636002842 0.2252628583599776 L0.14885131836000198 0.20491780635999568 L0.13245320636001168 0.198326009359997 L0.11316609736000771 0.19657633436001198 L0.09745971736002446 0.1907576493600036 L0.08415405335999537 0.1751326493600036 L0.05339233435999802 0.12597900335996748 L0.04167358435999802 0.11767822235996483 L0.02796101936000639 0.11059814435996351 L0.016527099360004627 0.10164632136000229 L0.011766357360031066 0.08805582635998555 L0.014085693360001983 0.05216715535997629 L0.012254639360023134 0.033124186359978935 L0.004320068360001983 0.016115722359964835 L0.009935303359995373 0.007163899360003612 L0.014858805359992289 0.003501790359999646 L0.0198229983600271 0.004396972359964835 L0.025438232360031066 0.00927978536001639 L0.06828491235999934 0.02718343135999568 L0.08647338936002313 0.038129069360005374 L0.10453979536002578 0.05363199835998422 L0.11564819336000198 0.07243082635998555 L0.12610555036000903 0.11889892535996616 L0.13530151436002313 0.1389591473600067 L0.17204467835999537 0.1733422853600164 L0.21476928735999934 0.1936466473600067 L0.3407865403600425 0.2239607743600036 L0.35527221736002446 0.23266845736001507 L0.36125366235999934 0.24540445936001198 L0.3642240403600425 0.26566813136001066 L0.3720365403600425 0.2779972333599776 L0.39531127936002974 0.2972029623599983 Z" fill="black" stroke="black" stroke-width="0.5" vector-effect="non-scaling-stroke"/></svg>