<svg xmlns="http://www.w3.org/2000/svg" viewBox="0 0 1.863940429560003 0.5733039540000959"><path d="M1.5283650707799907 0.21647970800006533 L1.5274698887799687 0.2163576380000336 L1.5267256747799607 0.2133897070000188 L1.5220747957800214 0.2126145610001089 L1.5174239167799684 0.2126145610001089 L1.515873622780056 0.20873882800005106 L1.511946214779961 0.2071368580000268 L1.505745042779985 0.2040362730000851 L1.5080188057799901 0.20243430300006082 L1.5126696847799863 0.20243430300006082 L1.5205245017799953 0.2040362730000851 L1.5244519117799555 0.2080153580000541 L1.5291027907800085 0.2080153580000541 L1.53303019877999 0.2080153580000541 L1.537681077779986 0.21028912100008768 L1.5408850167800452 0.21494000000005542 L1.5393347227800191 0.21494000000005542 L1.534580490780037 0.21571514700006844 L1.5314799067799996 0.21649029300006362 L1.5283650707799907 0.21647970800006533 Z M1.4893268107800068 0.19146991000012292 L1.48623644978003 0.19012627500005408 L1.4852959047799814 0.18743900500003008 L1.486773903780012 0.18260191900002098 L1.487848811780033 0.17897410400006208 L1.4926858977800421 0.1774961060000777 L1.4985978927800616 0.17830228700007922 L1.4985978927800616 0.18837955000005024 L1.4932233517800242 0.18999191200005328 L1.4893268107800068 0.19146991000012292 Z M1.4494694077800219 0.20475974300008204 L1.4480428057799841 0.21981629700007943 L1.4268839517799634 0.22640809300003184 L1.4005981437800088 0.24797384900006136 L1.3931925447799713 0.2607505410000499 L1.386356607779966 0.27702658300006533 L1.3813110347800048 0.29505229900007635 L1.3795206697799713 0.3128745650000724 L1.3815551757800009 0.33195822400006136 L1.3791137687800088 0.3402183150000724 L1.3695922847800048 0.34363628400006974 L1.3634887687800088 0.3474204630000486 L1.3565714517799634 0.3652427290000446 L1.3521769197799713 0.37093934300003184 L1.3367146807799841 0.3746421430000737 L1.3035115557799841 0.37492697400006136 L1.2907348627800062 0.3776939010000433 L1.2820271807799841 0.385180880000064 L1.2716918937800088 0.39673687000004065 L1.2597290037800022 0.4072349160000499 L1.2460571287800022 0.4118735880000486 L1.2141560867799868 0.418384005000064 L1.185184732779966 0.42993999500004065 L1.161747232779966 0.43425314600006004 L1.1466918937800088 0.41931987700007767 L1.1457153317800035 0.44739604900007635 L1.1173950187800088 0.46184103600006665 L1.0430948887799687 0.47453634900006136 L1.0281209307799841 0.48035503400006974 L1.0190877277799828 0.4853599160000499 L1.0066365557799841 0.4921958540000446 L0.9921508787800022 0.49447450000008075 L0.9201293937800088 0.48755718200004594 L0.8484334307799841 0.49447450000008075 L0.8329711907800075 0.49789246800003184 L0.8188110347800048 0.5059491090000847 L0.7724243157800075 0.5413901900000724 L0.7621694330723372 0.5582782160000335 L0.7372648177799661 0.5582782160000335 L0.7160774797800187 0.5606553320000813 L0.7090494857800209 0.5676833270000969 L0.7021248437799628 0.5638075950000285 L0.7005745517800293 0.5497516050000257 L0.7121500727799699 0.5411216410000605 L0.7168009507800335 0.5465993420000501 L0.7363346417800258 0.5465993420000501 L0.7340608787800207 0.5193141860000452 L0.7012463447800101 0.5153867780000638 L0.6887923247800032 0.5255670350000372 L0.6825911527800272 0.5349721460001007 L0.6762866277800086 0.530217914000005 L0.6637809317800034 0.5255670350000372 L0.6602013467800489 0.5324228490000138 L0.6310383617800213 0.5260958780000209 L0.6121478517800156 0.5139672610000474 L0.6069648647800037 0.5050821420000347 L0.6062244387800106 0.4921246760000457 L0.6003010257800057 0.4932353160000247 L0.5925265467799719 0.4932353160000247 L0.5873435607800062 0.4932353160000247 L0.5821605737799942 0.49286510300002817 L0.5788286547799899 0.4917544630000492 L0.5740158817799639 0.4961970230000219 L0.5692031087799947 0.5013800090000444 L0.565871188780001 0.5050821420000347 L0.552543510780005 0.5069332080000635 L0.5451392447799677 0.521741739999996 L0.5251477257799948 0.5195204600000665 L0.5133009007799743 0.5165587540000587 L0.5066370617800331 0.5235928070000426 L0.50720621677997 0.539477755000064 L0.49573160777996605 0.5428550340000697 L0.4539021807799841 0.547290255000064 L0.4123168937800088 0.540535698000042 L0.37276611278000615 0.5262127810000834 L0.32157796177998677 0.49988628400006974 L0.30318603478000483 0.4933351770000627 L0.2823527017799634 0.489144096000075 L0.23987223277996605 0.48544129700007943 L0.22237548778000615 0.4795005410000499 L0.20552978478000483 0.47083354900007635 L0.16565348277996605 0.44471050200007767 L0.15987548778000615 0.4392173380000486 L0.15360921177998677 0.41028667400007635 L0.1495402017799634 0.40564800200007767 L0.14888915978000483 0.3962485880000486 L0.12569580078000087 0.34363628400006974 L0.11446533178000351 0.3357017130000486 L0.09322509677995328 0.32410503400006974 L0.0841918937800088 0.31629253400006974 L0.07597249277998941 0.3062827680000737 L0.06995035777996605 0.29427918700008604 L0.06929931578000748 0.2813397340000847 L0.07792561777998941 0.26848166100006665 L0.0587198887799687 0.24243999500004065 L0.0568481437800088 0.23194194800004198 L0.0568481437800088 0.21013205200006269 L0.052453612780006154 0.19129253400006974 L0.030725096779953276 0.16032736400006797 L0.02266845678000351 0.144946505000064 L0.018273925780000866 0.1198814010000433 L0.021691893780008797 0.10165223400008472 L0.03316650378000219 0.09554871800003184 L0.053430175780000866 0.10710470800006533 L0.08321533178000351 0.13396017700006269 L0.09989827377999205 0.14478374500004065 L0.11885986278000615 0.1512127810000834 L0.1603637687800088 0.14966655700004594 L0.1964965817800035 0.13387879700007943 L0.22620035777996605 0.10974956500007238 L0.24849853478000483 0.08350444800004198 L0.26339111278000615 0.052498588000048585 L0.27413330078000087 0.03565288500004726 L0.2900024407800075 0.026212781000083396 L0.2919555657800075 0.02149272900004462 L0.2947224927799894 0.016731987000071058 L0.30050048778000615 0.014656791000049907 L0.3054646807799841 0.015796114000067973 L0.3130330397799881 0.019987195000055635 L0.31474202377999205 0.020923067000069295 L0.3212524407800075 0.02210308000007899 L0.33134358677998677 0.020190646000060042 L0.3391495837800349 0.031592019000029836 L0.35403239577997425 0.038620014000045444 L0.3687601787800432 0.04089377700005059 L0.3804907287799679 0.038620014000045444 L0.3929964257799625 0.031592019000029836 L0.4000244207800634 0.018362851000048863 L0.4063475107799732 0.00562062699999899 L0.438083692362774 0.008997596679805042 L0.4445695047800555 0.035467751000069825 L0.45066732377998875 0.04880027100010409 L0.4592456127800588 0.0589288510000614 L0.4748518947799667 0.06590517000005036 L0.5014135817799925 0.07293316500006597 L0.5217740947800067 0.08223492300008672 L0.5421346097800566 0.09008974000003889 L0.5530383367800269 0.09789288100004967 L0.5568107167799567 0.11277569300007428 L0.5568107167799567 0.12197409900007017 L0.5623917707799606 0.12993227000005447 L0.572520351780021 0.13375632499999313 L0.5810986387800554 0.13375632499999313 L0.6075569737800279 0.12760683000003326 L0.6200109927800455 0.12042380600006197 L0.6232666077799891 0.11587628000002326 L0.6294677797800219 0.10492087600006528 L0.6373225977800203 0.10104514400008213 L0.6467277087799985 0.10492087600006528 L0.6529288807799745 0.11200054700007911 L0.6684834857800084 0.12042380600006197 L0.681764329780016 0.12042380600006197 L0.6949418207799809 0.1135508400000873 L0.713648688779962 0.09789288100004967 L0.7316837627799728 0.08388856800003452 L0.7496671617799748 0.07680889700002069 L0.7729215557799662 0.06507834600002127 L0.7838769597800379 0.05660341200011487 L0.7932820707800161 0.05494976600006396 L0.8181901107799732 0.05737855800002478 L0.8447517967800096 0.06202943699999253 L0.8696081607799684 0.06202943699999253 L0.8836641507800564 0.05660341200011487 L0.8900203517800165 0.05262432700003217 L0.8962215237799924 0.04404603900009363 L0.9204060937800378 0.030041725000003794 L0.9360123767799919 0.030041725000003794 L0.9493448957800084 0.034692604000056804 L0.9626774157799574 0.038620014000045444 L0.9750797587799767 0.03934348300002455 L0.9852083407799697 0.043270893000098454 L0.9986442127800288 0.05577658900010363 L1.0086694397800002 0.06662863900005789 L1.0251025457799656 0.07448345700008474 L1.0477368237799638 0.07913433600005249 L1.0555916407799728 0.07680889700002069 L1.0601908427800382 0.07138287100003993 L1.0617928127800624 0.06357973000011441 L1.0742468327799557 0.05577658900010363 L1.0945556717800642 0.03779319100000578 L1.1031339577799955 0.035467751000069825 L1.1195670637799608 0.03701804400002118 L1.1451985747800464 0.034692604000056804 L1.1624585027800336 0.03236716500005343 L1.1679362047799842 0.035467751000069825 L1.1679362047799842 0.04797344800006442 L1.1710367907800574 0.06280458300010139 L1.178891608779999 0.0690574320000934 L1.189743659780028 0.07913433600005249 L1.203799648779956 0.09164003300004708 L1.2053499417800495 0.09789288100004967 L1.206900233779983 0.11510113300001024 L1.2053499417800495 0.13143088500005717 L1.2053499417800495 0.15101625400008345 L1.199045416779974 0.1735988540000193 L1.192844244780055 0.19153057700007992 L1.1959448307800145 0.20475974300008204 L1.2053499417800495 0.21494000000005542 L1.2163053447799612 0.21494000000005542 L1.2327384507799835 0.2110642680001007 L1.2396630927799848 0.19540630900003464 L1.243538824779968 0.16662253600001975 L1.2493453707800555 0.16183270000000505 L1.256819667780043 0.1556671330000512 L1.2661214267799679 0.14858746200012263 L1.2739762437800337 0.1556671330000512 L1.2739762437800337 0.1798517030000113 L1.2801774157800097 0.19313254600011476 L1.292579758779972 0.19773174800006643 L1.31066651077996 0.19153057700007992 L1.3184179757799726 0.17830141000008837 L1.3270996157800496 0.17277203200008273 L1.338055020779997 0.17432232500000566 L1.3495271877799624 0.18062684900012016 L1.358208828779972 0.17907655599999828 L1.3660636467800273 0.17587261700002443 L1.376864020779955 0.17907655599999828 L1.386320807780045 0.1829522890000561 L1.4081282617799857 0.1923574000000059 L1.4206339587799803 0.19390769300012778 L1.431537686779997 0.19540630900003464 L1.4470922907800414 0.2040362730000851 L1.4494694077800219 0.20475974300008204 Z M1.6446512927800327 0.13143088500005717 L1.6570536357799952 0.135306618000115 L1.6680090407800563 0.1392857039999882 L1.6773107977800024 0.1416111440001231 L1.6914701397799732 0.1416111440001231 L1.7086267157800208 0.135306618000115 L1.7266101137799765 0.135306618000115 L1.7360152247799547 0.14083599600009222 L1.74852092077996 0.14548687500005997 L1.758442796780038 0.14388490700012824 L1.764023850779985 0.14083599600009222 L1.768495526780022 0.1356940360000891 L1.7824340817800035 0.1455161660000499 L1.7975708007800009 0.15967632300004198 L1.8087198887799687 0.18702007300004198 L1.819950357779966 0.20459819800004198 L1.833622232779966 0.22079285900008472 L1.8456665037800022 0.2275474160000499 L1.8317504877800062 0.22836121800003184 L1.8059529617799868 0.22608257300004198 L1.7810506177799894 0.22022319800004198 L1.7699829097800048 0.21013205200006269 L1.758101398779992 0.20508647900004462 L1.7038208007800009 0.21078309300003184 L1.6567016597800048 0.22254253400006974 L1.6464477537800022 0.2275474160000499 L1.6383754362108576 0.23456369017047507 L1.6109582587799665 0.22971946000005516 L1.5923547427800386 0.23297507500005565 L1.584603277780026 0.2289959900000582 L1.597005621779978 0.21969423200003746 L1.6055839097800018 0.2180405860000718 L1.6055839097800018 0.20088401200011674 L1.5868770407800312 0.19933371800000543 L1.5759216377800627 0.19153057700007992 L1.5767484607799602 0.16967144600003792 L1.568893643780065 0.16264345100005073 L1.5455358957799845 0.1541685160001265 L1.5509102437799598 0.1431614360000566 L1.5603153547799948 0.136908588000054 L1.573647875780047 0.13143088500005717 L1.581399338779967 0.13608176400002492 L1.5877038637800425 0.1416111440001231 L1.601656500780031 0.1392857039999882 L1.6141621977799687 0.13220603300005962 L1.621190192779956 0.125178038000044 L1.6266678947799633 0.11964865900004895 L1.6446512927800327 0.13143088500005717 Z" fill="black" stroke="black" stroke-width="0.5" vector-effect="non-scaling-stroke"/></svg>