<svg xmlns="http://www.w3.org/2000/svg" viewBox="0 0 1.465894978800037 0.22607302134001372"><path d="M1.3360680573114792 0.13251446542079037 L1.3361541603999711 0.13257020216999393 L1.3424586844000572 0.1356966261699526 L1.3549643814000518 0.13884888917001348 L1.3706740164000024 0.14189779817004222 L1.3924814714000462 0.13331950917000057 L1.4384734964000216 0.14189779817004222 L1.4418516698725483 0.13782411760072222 L1.4515234594000361 0.14461065517004812 L1.4470517833999992 0.14975261517005123 L1.4414707294000522 0.15280152617008724 L1.431548853399974 0.15440349417001897 L1.419043157399969 0.14975261517005123 L1.4096380463999907 0.14422323717007401 L1.391654648400035 0.14422323717007401 L1.3744980723999873 0.1505277631700821 L1.3603387304000165 0.1505277631700821 L1.3510369734000705 0.1482023231699472 L1.3400815684000094 0.14422323717007401 L1.327679225400047 0.14034750417001618 L1.3360680573114792 0.13251446542079037 Z M1.1089973284000365 0.16772061217002232 L1.114565619400011 0.1723352161700049 L1.1317738704000107 0.17936321117002052 L1.1348744563999702 0.18639120617003613 L1.1261928154000174 0.1926440541700103 L1.1292934014000338 0.19889690317003073 L1.1450030374000306 0.20432292816999365 L1.1410239514000153 0.2160534771699858 L1.132497340400036 0.21367636217004105 L1.1301202234000556 0.2129528921700441 L1.114565619400011 0.20432292816999365 L1.1036618913999945 0.20282431217008678 L1.0911561944 0.2012740191699649 L1.0693487404000592 0.19186890817001512 L1.0598919533999691 0.18799317516995728 L1.0490915794000415 0.18478923616998344 L1.0412367613999862 0.18799317516995728 L1.0325551203999765 0.18954346817007917 L1.0210829534000112 0.18323894416996467 L1.0101275484000638 0.18168865117004174 L1.0014459083999867 0.18721802917004737 L0.9936944433999741 0.20044719617003892 L0.9756076913999863 0.20664836717002544 L0.9632053484000238 0.20204916517007376 L0.9570041764000479 0.1887683221699703 L0.9570041764000479 0.1645837521700102 L0.949149359399982 0.15750408117008163 L0.9398476004000571 0.1645837521700102 L0.9323733034000696 0.17074931916996405 L0.9265667573999821 0.17553915516997876 L0.9226910253999989 0.20432292816999365 L0.9157663833999976 0.2199808871700597 L0.8993332773999754 0.22385661917001443 L0.8883778744000637 0.22385661917001443 L0.8789727634000286 0.21367636217004105 L0.8758721774000691 0.20044719617003892 L0.8820733493999882 0.1825154731699783 L0.8883778744000637 0.15993287317004246 L0.8883778744000637 0.14034750417001618 L0.8899281663999972 0.12401775216996924 L0.8883778744000637 0.10680950017000868 L0.8868275813999702 0.10055665217000609 L0.8727715924000421 0.08805095517001149 L0.8619195414000131 0.0779740511700524 L0.8540647234000716 0.0717212021700604 L0.8509641373999983 0.05689006717002343 L0.8509641373999983 0.04438437017002883 L0.8454864354000478 0.04128378417001244 L0.8282265074000605 0.04360922317001581 L0.802594996399975 0.04593466316998018 L0.7861618904000096 0.04438437017002883 L0.7775836044000783 0.04670981016996478 L0.7572747653999699 0.06469320817006263 L0.7448207454000766 0.07249634917007342 L0.7432187754000523 0.08029949016999893 L0.738619573399987 0.0857255161699797 L0.730764756399978 0.08805095517001149 L0.7081304783999798 0.08340007617004375 L0.6916973724000144 0.0755452581700169 L0.681672145400043 0.06469320817006263 L0.6682362733999838 0.05218751217005746 L0.6581076913999908 0.048260102169983554 L0.6457053483999715 0.04753663317000445 L0.6323728284000225 0.04360922317001581 L0.6190403094000061 0.0389583441699628 L0.603434026400052 0.0389583441699628 L0.5792494564000066 0.052962658170052634 L0.5730482844000306 0.06154094616999117 L0.5666920834000706 0.06552003117007388 L0.5526360933999825 0.07094605616995153 L0.5277797294000237 0.07094605616995153 L0.5012180433999873 0.06629517716998379 L0.47631000340003027 0.06386638517002297 L0.46690489240005206 0.06552003117007388 L0.4559494883999804 0.07399496516998028 L0.432695094399989 0.0857255161699797 L0.414711695399987 0.09280518716999353 L0.39667662139997617 0.10680950017000868 L0.37796975339999506 0.12246745917004631 L0.36479226240003015 0.12934042517002098 L0.35151141840002254 0.12934042517002098 L0.3359568133999886 0.12091716617003812 L0.3297556414000127 0.11383749517002428 L0.32035053040003447 0.10996176317004114 L0.31249571240003604 0.11383749517002428 L0.30629454040000326 0.12479289916998226 L0.3030389254000596 0.12934042517002098 L0.2905849064000421 0.13652344916999226 L0.26412657140006957 0.14267294416995213 L0.2555482844000352 0.14267294416995213 L0.24541970339997476 0.13884888917001348 L0.2398386493999709 0.13089071817002917 L0.2398386493999709 0.12169231217003329 L0.23606626940004105 0.10680950017000868 L0.22516254240007072 0.09900635916999789 L0.20480202740002085 0.09115154217004573 L0.18444151440000667 0.08184978417002498 L0.15787982739998085 0.07482178917000937 L0.14227354540007298 0.0678454701700204 L0.1336952564000029 0.057716890170063095 L0.12759743740006968 0.04438437017002883 L0.12111162498278816 0.017914215849764048 L0.14095114439997758 0.019987667170020984 L0.14015481040000566 0.026297618170012527 L0.14227354540007298 0.03818319817005289 L0.1501283623999683 0.048260102169983554 L0.16108376639998312 0.05844036016997478 L0.1735377864000469 0.06386638517002297 L0.18919574539999928 0.0678454701700204 L0.22433571940005947 0.07482178917000937 L0.24386941139998441 0.08500204617006801 L0.25947569240001656 0.10138347517001733 L0.2687774504000089 0.12169231217003329 L0.2844870873999952 0.12246745917004631 L0.2905849064000421 0.11383749517002428 L0.2999900153999846 0.1036572381700509 L0.30629454040000326 0.10138347517001733 L0.3179734143999866 0.09900635916999789 L0.341331162400067 0.10138347517001733 L0.35228656540003556 0.1028820921700273 L0.36391376340007753 0.10138347517001733 L0.3764711364000135 0.09900635916999789 L0.39910541240003283 0.08882610217002451 L0.4186391054000609 0.07017091017004162 L0.44354714540001794 0.05999065316998298 L0.4607037204000761 0.05218751217005746 L0.48566343740007767 0.04593466316998018 L0.5082460383999745 0.03652955217000198 L0.5254026133999758 0.03187867317003423 L0.5386834573999835 0.042834077170020635 L0.5496905364000639 0.04128378417001244 L0.5714979923999834 0.020974946169978637 L0.5870525974000174 0.016324068170028738 L0.6198154554000297 0.011673189169947307 L0.6535601653999805 0.02247356316998861 L0.6697865653999742 0.030328380170026037 L0.7003790134000241 0.032653820170047254 L0.7291627864000105 0.0389583441699628 L0.7448207454000766 0.03973349116997582 L0.7557761484000451 0.03497925917007905 L0.7743796644000298 0.03497925917007905 L0.8040936134000702 0.02727947017000787 L0.8103464613999876 0.0233520621700265 L0.8180979264000001 0.013223481170079765 L0.8298801523999799 0.0038700471700323646 L0.8431093193999999 0.0022164021699992986 L0.8509641373999983 0.007745780169976513 L0.8540647234000716 0.019424653170055706 L0.857268662400017 0.0334806431700585 L0.869567653399983 0.052962658170052634 L0.880523055400019 0.0693957631700286 L0.8993332773999754 0.09745606617004654 L0.9063612724000762 0.10680950017000868 L0.9063612724000762 0.12479289916998226 L0.9063612724000762 0.14422323717007401 L0.9008835714000014 0.1630851351700855 L0.895405869399994 0.18721802917004737 L0.8961293394000762 0.19651978717006813 L0.9063612724000762 0.19889690317003073 L0.9063612724000762 0.1926440541700103 L0.9079115663999886 0.1825154731699783 L0.9110121514000156 0.17000977717005838 L0.9157663833999976 0.1630851351700855 L0.9234144964000137 0.14499838316998392 L0.9297190193999967 0.14034750417001618 L0.9367470144000407 0.14034750417001618 L0.9459970954000454 0.14189779817004222 L0.9585544693999708 0.14582520717001302 L0.9647556414000036 0.14499838316998392 L0.966357611399971 0.13486980317002661 L0.970233343400011 0.12856527817000796 L0.9764345143999975 0.12856527817000796 L0.9850128024000213 0.13486980317002661 L0.9913173264000505 0.14344809117005042 L0.9959682053999899 0.15827922716999154 L1.008525579400029 0.16613404417002897 L1.0210829534000112 0.16768433717003717 L1.0318316504000649 0.15993287317004246 L1.0436138764000447 0.15517864217004984 L1.067074977400054 0.17078492316999672 L1.0817510834000217 0.17078492316999672 L1.0856784923999925 0.1692346311700632 L1.100561305400035 0.17078492316999672 L1.1089973284000365 0.16772061217002232 Z M0.070257057399985 0.014542543170044553 L0.07996396740001899 0.013563645170002303 L0.08937544339998738 0.014537246169957996 L0.08305235340007755 0.02727947017000787 L0.07602435839997668 0.04050863816998884 L0.06351866139998208 0.04753663317000445 L0.051788111400057346 0.049810396170009597 L0.03706032839998841 0.04753663317000445 L0.022177516400049058 0.04050863816998884 L0.01437151940000092 0.029107265170019048 L0.03146136339999828 0.023003749170023013 L0.03230609640006321 0.02727947017000787 L0.044760117400059585 0.03818319817005289 L0.05576719740007263 0.03652955217000198 L0.06434548539998275 0.02877808716998942 L0.06899636340004633 0.017874359170029663 L0.070257057399985 0.014542543170044553 Z" fill="black" stroke="black" stroke-width="0.5" vector-effect="non-scaling-stroke"/></svg>