<svg xmlns="http://www.w3.org/2000/svg" viewBox="0 0 6.896518579500061 2.5317384881400926"><path d="M2.801864636250091 0.20638611057003686 L2.8231553262500917 0.20685119857006384 L2.859328829250021 0.20044332057000247 L2.9735337442500374 0.20576599257006478 L2.975600801250014 0.19713602857001433 L2.9743605672499633 0.16240946657006816 L2.9732236852500513 0.15956726257002174 L2.972603568250097 0.15574320657006524 L2.9735337442500374 0.15016215157004353 L2.976324271250096 0.14675150757003053 L2.986142793250057 0.13972351257001492 L2.989243380250006 0.13465922257003626 L2.9881064982500085 0.1056170675700514 L2.9729136272499694 0.09161275457003626 L2.956687227250061 0.08349955457003944 L2.9524497602500084 0.07218241557006877 L2.9525531122500333 0.07218241557006877 L2.957100639249976 0.06877177157002734 L2.96216492925004 0.06613627257002008 L2.967849337249991 0.06443095057005621 L2.9735337442500374 0.06365580457003261 L2.9880031452500795 0.05698954457002969 L2.9926540242500472 0.05239034257007802 L2.99544455225001 0.04414795157003937 L3.0144614792500626 0.05518086957005153 L3.0651043822500164 0.06220886457003871 L3.073579317250026 0.07207906257002605 L3.085361543250034 0.0794171165700277 L3.099417533250037 0.08380961257003605 L3.11068299525002 0.08236267257004215 L3.113990287250008 0.07218241557006877 L3.113990287250008 0.07207906257002605 L3.1229819872500606 0.059004925569979605 L3.1359010942500483 0.053268841570030645 L3.1475799682500316 0.05698954457002969 L3.1522308472500846 0.07218241557006877 L3.161635958250063 0.08685852257005422 L3.2185833862500353 0.0874269635700955 L3.2452484252500575 0.09579854557006229 L3.2612681192500226 0.11217997457004003 L3.260234591250029 0.12184346757004505 L3.251552950249991 0.13233378357000447 L3.2445249552500606 0.15073059256999954 L3.247522188250091 0.1649416115700717 L3.2568239462500266 0.18256327457004318 L3.2686061722500064 0.19909973357005128 L3.2792515172500067 0.20995178456999497 L3.2991986212500173 0.22008036457003755 L3.317285372250044 0.22514465557003405 L3.3324782422500654 0.2331028255700005 L3.344467175250035 0.25186137057008295 L3.344777234250021 0.26157653957002935 L3.341986706250058 0.2716017685700365 L3.341159884250036 0.28111023157003956 L3.3475677612500796 0.2893784605700773 L3.360050721250051 0.291884164570007 L3.3617271042500114 0.2922206645700385 L3.3727858602500227 0.2848309345700386 L3.382294324250015 0.27418558957003825 L3.3915960812500465 0.26684753657005444 L3.4332472862500403 0.2646254495700475 L3.6333384322501026 0.30906718057002536 L3.6447072462499968 0.31387308957002347 L3.657936413250102 0.32674052157003075 L3.6652744662500005 0.33128804757006947 L3.6758164592500613 0.33340678057004425 L3.7589121622500308 0.3206427025700691 L3.7837168502499914 0.32214131857006123 L3.7858872592500497 0.3289626075700198 L3.7890911992500413 0.33506042657009516 L3.839630749250066 0.3896824155700358 L3.8460386272500138 0.3911293555700297 L3.8737371942500296 0.39061259157008976 L3.932958386250025 0.37645324857004425 L3.9494948442501006 0.3779518655700542 L3.962930717250064 0.3862200945700067 L3.9759531782499984 0.40192973057006043 L3.9846348182500755 0.4154689555700486 L3.9901125202500545 0.4292665625699783 L3.9878387572500493 0.44115214257001867 L3.9734727092500215 0.4485935485700452 L3.971509004250013 0.45184916357001725 L3.970682182249991 0.4550531025699911 L3.9714056512500555 0.45820536457003413 L3.9734727092500215 0.46120259757006465 L4.0159507362500655 0.45624166057001503 L4.077962455250034 0.41805277657005036 L4.1201304242499965 0.4207916275700825 L4.151756401250058 0.4361912045700649 L4.166949271249994 0.44073873057001833 L4.183795788250084 0.43825826157004144 L4.1959914272499965 0.4284914165700684 L4.203226127250051 0.41572733757001856 L4.210564181250053 0.40570210957000086 L4.223483288250069 0.4039451105700209 L4.259760144250013 0.4044101985700195 L4.2924196502500855 0.4097328715700712 L4.323115450250047 0.4207916275700825 L4.408278211250067 0.47820414456998606 L4.417373262250042 0.4972727475700651 L4.385953992249998 0.505489300569991 L4.389778047250051 0.5130340595700318 L4.389778047250051 0.5163413515700483 L4.386987520250077 0.5191318785699934 L4.3826467002500955 0.5249196395700721 L4.381096407250002 0.5299839295700508 L4.379752820250022 0.5376837175700473 L4.379856173250037 0.543574831570055 L4.3826467002500955 0.5430063905699853 L4.374068412250072 0.5506545025700689 L4.353501192250096 0.5636252865700726 L4.344096081250033 0.5720485455700839 L4.32693950625006 0.5744773375700447 L4.294900118250073 0.5687929305699981 L4.279190483250009 0.5720485455700839 L4.271439018249996 0.5849676535700894 L4.256452853250014 0.5931842065700152 L4.238882865250051 0.5998504655700287 L4.223483288250069 0.6080670185700683 L4.2180055872500795 0.6094622825700355 L4.208807182250073 0.613182985570063 L4.202709363250026 0.613544720569962 L4.207566947250033 0.6246551525699715 L4.209427299250056 0.6277040635700075 L4.1894801962500345 0.6248101825700303 L4.181625379249997 0.6406748475700397 L4.191030489250043 0.6585548935700842 L4.223483288250069 0.6622239195700672 L4.2364023962500745 0.6880104595699947 L4.241156628250057 0.6937982195700556 L4.253972384250037 0.7004128025700425 L4.261310437250049 0.6993792735700595 L4.268441785250079 0.6954001895699946 L4.280120658250045 0.6929713965700444 L4.325699271250048 0.6929713965700444 L4.3352077352500125 0.6948834245700652 L4.342235730250028 0.7041851825700007 L4.342959200250025 0.7134869405700215 L4.342132377250014 0.7225819925699852 L4.34471619925009 0.73131530957005 L4.362492892250035 0.7464565045700624 L4.407037976250027 0.7568951435700058 L4.429258842249968 0.7668686945700074 L4.443624890249996 0.779839479570029 L4.469049695249996 0.8095017515699965 L4.48351909625001 0.8221108015700338 L4.496231499250062 0.836838583570028 L4.526513888250097 0.8570957455700352 L4.537365939250041 0.8760093195700733 L4.548734753250049 0.9101157645700368 L4.558139864250084 0.9226214625700209 L4.575709851250057 0.9374009215700596 L4.6101263552500065 0.9578131115700046 L4.652087618250025 0.9718174245699913 L4.692705293250047 0.9699053975700735 L4.723504447250011 0.9428786225700492 L4.745725313250066 0.9325433365700349 L4.757920952250064 0.9214329035700075 L4.768773002250018 0.9078936785700193 L4.7867564002500025 0.8904270445700888 L4.8091839722500005 0.8780763775700393 L4.829027722250007 0.8762160255700167 L4.849078178250043 0.8770945245700545 L4.861234018250034 0.8751044095700706 L4.872435926249981 0.8732704685700128 L4.881841036250055 0.8678961205700659 L4.89848084725006 0.8530649845700395 L4.910469779250011 0.8477423115700731 L4.919254773250007 0.8475356055700445 L4.937754936250034 0.8517730725699835 L4.946746635250069 0.8513596615699726 L4.949227103250056 0.8476906345699717 L4.949020398250102 0.8355983495700059 L4.951810925250047 0.8328594995700485 L4.966487032250033 0.8330145275700716 L4.9724814992499695 0.8356500265699935 L4.977132377250033 0.8416961685700528 L4.9877777222500335 0.8519281025700138 L4.999870007250028 0.8548736595700177 L5.006277885250061 0.8463470475700205 L5.004314180250024 0.8331695575700167 L4.991291719250089 0.8221108015700338 L4.989844779250095 0.797822878570031 L4.979302787250024 0.7798911555700556 L4.961112683250068 0.7670754005700644 L4.936721407250051 0.7579286725699887 L4.918014538249967 0.7455780045700351 L4.908196016250006 0.7261993425700553 L4.9007546102499795 0.704908652570083 L4.889385795250096 0.6866151955699991 L4.857346407249995 0.6563844825699903 L4.857243054250066 0.6424318455700018 L4.884424857250057 0.6318898535700441 L4.907265840250037 0.6337502055700384 L4.935476565250074 0.6445665775700604 L4.950260632250039 0.6502349875700304 L4.973411674250034 0.6484779885700505 L5.076144421250039 0.666874798570035 L5.087099825250025 0.6711639425700184 L5.110354220250034 0.6836696385700236 L5.123169974250008 0.6880104595699947 L5.136915906250042 0.6881138115700196 L5.167405001250021 0.6840830505700239 L5.17908387525009 0.6863568135700291 L5.176913464250024 0.6891473405700879 L5.180324109250055 0.6999993915700315 L5.186525281250031 0.7129184995700655 L5.1925197472500635 0.7216001405700183 L5.202338269250024 0.7284214295700622 L5.237581595249996 0.7426841245700473 L5.261352755250048 0.7470766215700451 L5.308274955250003 0.7461981215699893 L5.328945528250021 0.7518308525700377 L5.310548718250036 0.7565850845700197 L5.3133392452500665 0.7603574645700348 L5.316853243250026 0.7637164325700496 L5.320987358250054 0.7666103125700374 L5.32553488324999 0.769142457570041 L5.324294649250053 0.7821649185700608 L5.32625835425009 0.794825644570011 L5.333182996250063 0.8051092545699987 L5.346515515249994 0.8115688085700583 L5.357367566250051 0.7932753515700881 L5.379485079250063 0.7921901465699932 L5.401292533250089 0.8035072855700776 L5.410594291250025 0.8221108015700338 L5.415658581250089 0.8242812115700247 L5.421032930250053 0.8250563575700198 L5.426303927250078 0.8243328875700229 L5.431471570250071 0.8221108015700338 L5.460823783250053 0.7992698185700249 L5.508469454249994 0.796479290570062 L5.597869682250096 0.8066078715700087 L5.621020723250073 0.8027321385700645 L5.638177299250035 0.7937404395700298 L5.667839571250088 0.7674371355700771 L5.673420626250024 0.7592722595700536 L5.676004447250026 0.752450970570095 L5.682515677249999 0.7497637965700505 L5.699465547249989 0.7537945575699609 L5.705046602250011 0.757153525570061 L5.723443412250024 0.7730698675700012 L5.725923881250001 0.7753436295700169 L5.726440645250026 0.7780308045700508 L5.725717175250029 0.7810280375699676 L5.723443412250024 0.7841802995700107 L5.712591361250052 0.8028871685700949 L5.710627657250033 0.81203389657 L5.712901420250038 0.8221108015700338 L5.723443412250024 0.8288287365700455 L5.739049695250063 0.8473289005700622 L5.72964458425 0.8624700945699999 L5.709387423250096 0.8737355565700398 L5.66680604225002 0.8901169855700175 L5.640141003250083 0.8968349225700365 L5.591875215250074 0.8980234795700426 L5.580919812250077 0.9015891545700185 L5.573581759250008 0.9116660585700629 L5.575648816250041 0.9189524355700485 L5.624224662250047 0.9584849055700602 L5.639830945250001 0.9630324315700136 L5.649959525250043 0.9618438745700075 L5.658434460250053 0.9586916115700319 L5.669079805250053 0.9570896425699971 L5.682205619250002 0.9593634055700306 L5.709387423250096 0.9680450465700687 L5.723443412250024 0.9699570735701002 L5.723856824250024 0.9709389255700671 L5.724063530249996 0.9718691015700074 L5.723856824250024 0.9726442485700204 L5.723443412250024 0.9733677185700174 L5.714141655250078 0.9784836845700227 L5.710937716250019 0.9839613865700017 L5.714038301250046 0.9896974705700643 L5.723443412250024 0.9957436135699993 L5.734502168250007 1.004270224570007 L5.7413234582500685 1.0153289805700183 L5.74690451325009 1.027679648569972 L5.754759330250014 1.0396169045700105 L5.766024793250072 1.0496421325700567 L5.8308270382500815 1.0911899835700467 L5.867207247250068 1.0961509215700005 L5.903587455250065 1.0890195745700453 L5.933043021250061 1.0720697045700263 L5.951233126250006 1.069020794570008 L5.991334037250088 1.068245647569995 L6.023890189250043 1.0619927995699925 L6.028954480250011 1.0576003035700126 L6.027197481250031 1.047626751569993 L6.020169486250044 1.0407021095700202 L6.01159119825002 1.040547079570075 L6.003633028250054 1.0421490495700994 L5.998362032250018 1.0407021095700202 L5.9939178592499935 1.0180678325700683 L6.010545835250102 1.020746164569971 L6.024717012250054 1.0230287695700042 L6.083111381250038 1.047626751569993 L6.076600150250076 1.066075238570022 L6.089622611250011 1.0757904075700537 L6.153494682250059 1.0835935485700645 L6.168687553249985 1.0890195745700453 L6.20021017725006 1.1065378845700025 L6.21199240325004 1.109948528570044 L6.235453503250032 1.113100791569991 L6.2473390832500435 1.1187851985700377 L6.251576550250011 1.1242629005700167 L6.258501192249984 1.1397658305700418 L6.2640822472500055 1.1465354435699737 L6.283925997250012 1.157025758570029 L6.298395398250026 1.1551654065700063 L6.326404024250028 1.139404095570029 L6.325267142250031 1.1376987735700652 L6.323923555249966 1.136561891570068 L6.322166557250089 1.1359934505699982 L6.319996147250013 1.1359934505699982 L6.360303763250048 1.1327895115700244 L6.398957736250058 1.1416778585700627 L6.4732684452500315 1.1681878675700546 L6.496522839250051 1.168136191570028 L6.535900281250068 1.1518581155700076 L6.550679740249993 1.157645876570001 L6.556880912250055 1.1757843035700262 L6.5544004432499925 1.1911322035699925 L6.558741264250077 1.2033795185700171 L6.58530295025 1.2126295995700218 L6.557811088250023 1.2332484965700417 L6.558224500250024 1.2600685645700196 L6.575587781250054 1.2904543075699735 L6.5991522342500595 1.3218735775700168 L6.609177462250077 1.3509674085700283 L6.615481986249993 1.3584604915700424 L6.628814506249999 1.3645066345700059 L6.659613660250077 1.366263633570071 L6.673876354250044 1.3690541605700446 L6.686898816250082 1.3759788025700175 L6.706535860250032 1.3910166445701009 L6.719144910250041 1.3959259055700386 L6.733717663250022 1.3951507585700256 L6.749323946250062 1.3907582615700278 L6.764930229250073 1.3890012635700373 L6.779916394250055 1.3962359635700068 L6.784050509250083 1.4040391055700354 L6.790768444250009 1.4384556085700808 L6.795419323250062 1.4480674255700023 L6.80720155025006 1.4655340595700466 L6.811645724250074 1.474577435570012 L6.826011772250073 1.5172104925700012 L6.828905652250061 1.5378810645700014 L6.824668185250037 1.5545725525700504 L6.783740450250011 1.5552960225700474 L6.765033581250012 1.5599469015701004 L6.724002494250076 1.5845448835700893 L6.695993868250046 1.5855784115700544 L6.66705506624999 1.5797906515699935 L6.634292208250006 1.5690419535700642 L6.627367566250005 1.5681117775700102 L6.620442924250032 1.5690419535700642 L6.59191753425009 1.5788604755700248 L6.547682507250048 1.5746746845699988 L6.527115287250073 1.5831496195700936 L6.521947644249966 1.5913661725700479 L6.519467175249989 1.6099696875700715 L6.514402885250011 1.6187546805699924 L6.506134655250069 1.6242323835699608 L6.4732684452500315 1.635756227569999 L6.430687065249973 1.6697593195700335 L6.408259493250089 1.6793711365700403 L6.379113985250061 1.67508199257 L6.376633516249999 1.7225726335700813 L6.353058302249995 1.734641856570022 L6.316068738250042 1.7535784935700178 L6.181503308250061 1.7878916435700205 L6.1520477422500655 1.8061334245699925 L6.1279665242500165 1.8317649355700496 L6.109259655250046 1.862254029570039 L6.096547254250002 1.895068564570039 L6.092929903249999 1.9218886335700347 L6.093101622250092 1.9279049425699952 L6.094376843249993 1.9725832125700151 L6.087762259250017 1.9945456965700714 L6.066988334250059 2.017645062570068 L6.037532768250063 2.0356801365699653 L6.004356498250051 2.045705364569983 L5.950716362250066 2.0429665145700255 L5.926531791250088 2.045446982570013 L5.905551159249999 2.0543353285700334 L5.892321993250082 2.071801963570067 L5.886120821250021 2.0866330985700188 L5.878369356250094 2.117587282570014 L5.870204480249985 2.131281536570043 L5.85180767025 2.143115439570039 L5.8326873902499905 2.143838909570036 L5.811603405250057 2.1414617935700164 L5.787005424250001 2.1442523215700646 L5.770882377249993 2.1530889915700584 L5.7363625202500295 2.1922597265700006 L5.7186891802500135 2.2019232205700234 L5.526556205250021 2.251842653570094 L5.489969291249995 2.248070273569965 L5.459376843250059 2.226727907569966 L5.444804089250088 2.222077027570009 L5.421032930250053 2.2266762315700532 L5.402696655250086 2.2346169405699925 L5.383205782250062 2.2430576605700026 L5.365842501250061 2.245228069570004 L5.251740938250041 2.2070391865700287 L5.203681856250089 2.1987709565700584 L5.15893006625004 2.2050754825700665 L5.105186577250041 2.2309136985700206 L5.09609152425006 2.2402154565700414 L5.090200411250041 2.2590773535700635 L5.075834362250053 2.271117962570031 L5.041417859250007 2.2908066825700644 L5.016819877250018 2.318505250570098 L4.966280326250089 2.4149593115700156 L4.954808158250078 2.428886110570005 L4.938995170250056 2.441676027570054 L4.936514702250097 2.460667116570022 L4.90199484425003 2.434053753569998 L4.888145561250045 2.367856244570021 L4.864477755250025 2.3458420835700338 L4.84804464925006 2.3450152605700225 L4.809597383250011 2.3540586365700733 L4.7903737502500725 2.3556089295700815 L4.771976941250077 2.351061403570043 L4.735803438250063 2.3351967385700334 L4.720507215249999 2.3317344175700043 L4.682473360250075 2.3327679465700726 L4.666557019250039 2.3309075955700678 L4.65343120525009 2.3248097755700314 L4.646196505250007 2.3129758725700924 L4.642475802250008 2.298609824570093 L4.634620983250077 2.28656921557004 L4.615500703250067 2.2814532485700454 L4.597000541250058 2.280006309570041 L4.537262586250026 2.26853414057004 L4.520209362250089 2.2612994405700704 L4.511010958250072 2.259232383570094 L4.50181255324998 2.2600592055700304 L4.483725801250078 2.265123495570009 L4.473390515250063 2.2654335555699845 L4.444555066250022 2.2626430275700216 L4.427191784250002 2.27029113957002 L4.376445528250034 2.3277553315700175 L4.365490124250048 2.3345249455700525 L4.349780489250069 2.3375738545700813 L4.344199434249962 2.3363852965700573 L4.330970267250056 2.3292539485700274 L4.310196342250013 2.3313210065699934 L4.309059460250101 2.3319927995700596 L4.169223034250027 2.318298545570059 L4.076825574250027 2.3219675725700313 L4.023805554250007 2.306774700570031 L3.9232432172500786 2.2584055605700826 L3.9217962772500847 2.253444622570015 L3.9217962772500847 2.246519980570042 L3.916525281250049 2.242230836570087 L3.8995754112500585 2.245124716570075 L3.8985418822500755 2.234582725569993 L3.891100476250049 2.2300868745699916 L3.8798350132500765 2.229776816569995 L3.867225964250057 2.231740521570032 L3.877457897250057 2.2228004985699954 L3.869086315250062 2.2231622335700933 L3.8616449092500353 2.2209401465700864 L3.850689506250067 2.2156691505699655 L3.8315692262500853 2.214738974570025 L3.824747937250013 2.2128269465700043 L3.819787000249992 2.2077109795700096 L3.815756237250074 2.1954119895700615 L3.8099684772500133 2.1925181095700736 L3.779376029249992 2.192569785570072 L3.7706943892500284 2.1939650495700675 L3.7351410032499963 2.20636739257003 L3.7182944862499916 2.20988139056999 L3.6952467972500394 2.20988139056999 L3.6728192262500308 2.20636739257003 L3.595201224250051 2.1774802675699902 L3.535658617250025 2.162221541570034 L3.5127256392500534 2.1563446065700305 L3.4633229692500187 2.1281292745699716 L3.441825574250064 2.12001607457006 L3.397383842250097 2.110145875569998 L3.3493247592500417 2.0940228285700186 L3.3270005412499906 2.0898370375699926 L3.2801816932500607 2.089475302570065 L3.2752207562500963 2.08720153957006 L3.2710866422500864 2.0822406025700104 L3.2660223512500046 2.0781064875699826 L3.2583742392500348 2.0781581635700093 L3.254343478250039 2.0822406025700104 L3.251863009250062 2.0956764745700696 L3.248555717250074 2.1009474715700946 L3.2347064332500146 2.111902874570063 L3.2295387902499932 2.1140732855700435 L3.1532643762500676 2.1276125105700316 L3.1334206252500714 2.1273541275700723 L3.140035209249991 2.113091432570087 L3.1404486202500017 2.0995005315701007 L3.1362111532500343 2.0859096295700112 L3.1288731002500505 2.071801963570067 L3.051048393250003 2.067616172570041 L2.99544455225001 2.05505879957002 L2.9735337442500374 2.0569191505700246 L2.9703298052500635 2.0585727965700755 L2.9687795132500447 2.061931764570005 L2.9687795132500447 2.066582643570058 L2.9697096892500987 2.072008669570039 L2.956067110249993 2.0930926525699647 L2.9556536992499822 2.1215663675700114 L2.9597878132500206 2.1521588155700044 L2.959684460250063 2.179805706570022 L2.93849712325002 2.2424375425700305 L2.9312624232500504 2.255046592570068 L2.9296087762500953 2.2620229105700673 L2.931572481250047 2.2683274355699723 L2.9359133022501034 2.276233929570026 L2.9403574742500247 2.2826934835699717 L2.9425278852500334 2.2845021585700636 L2.9310557172499934 2.3020204685700207 L2.910798556250004 2.3032607035700607 L2.8591221232500494 2.2892563905699603 L2.806928927250059 2.2845021585700636 L2.7918394082500733 2.28832621457002 L2.7859482952499697 2.29783467757008 L2.78191753325007 2.309978639570005 L2.7718923062500416 2.321709189570072 L2.7668280152500735 2.3408294695700533 L2.7142214072499975 2.371421917570075 L2.6953078332500446 2.391730755569995 L2.6916904822500705 2.4187316915700308 L2.6922072462500957 2.4492983005700353 L2.6871429562500317 2.47529154657002 L2.6826123752499917 2.4782983115700006 L2.667092501250071 2.4885982285700265 L2.6506593952500204 2.4878747575700118 L2.642804577250079 2.48133768957004 L2.636913465249993 2.471932578570005 L2.6261647672500636 2.4625016295700277 L2.619653536249988 2.46154561557006 L2.6043573122500483 2.465085451570019 L2.5966058472500357 2.4645170105699776 L2.5934019092500513 2.4603053815700378 L2.593298555250019 2.453639121570035 L2.592058321249997 2.4472570815700863 L2.5856504432500493 2.4435105405700597 L2.570250866250067 2.4443373635700993 L2.540278535250028 2.453897503570005 L2.525292370250046 2.4561195905700117 L2.513510144250038 2.454207562570076 L2.473615938250024 2.440358277570027 L2.449638073250103 2.4216514095700177 L2.435065320250036 2.428317669570049 L2.412637748250038 2.4677726255700634 L2.3968247592500553 2.478547161569992 L2.3448382692500367 2.4934041355700174 L2.3246844612500333 2.504126995570033 L2.3168296422501022 2.506194053569999 L2.307217826250085 2.5069175225700917 L2.2079990762500508 2.483663128570072 L2.0663022992500295 2.473121135570011 L2.032299206250091 2.4636643495700525 L2.023927624250039 2.4587034115700988 L2.0066676962500516 2.4444407165700284 L2.002326875250052 2.438963014570021 L1.9976759962500843 2.4253204365700185 L1.9995363482499933 2.4224265565700307 L2.0052207562500577 2.4210312925700634 L2.011938692250059 2.411677858570016 L2.014935925250004 2.410230918570022 L2.0197935102500004 2.410851035570005 L2.024341036250039 2.409920860570054 L2.026201387250044 2.4036680115700335 L2.023617566250042 2.397570192570072 L2.0176231002500096 2.3947796645700237 L2.0106984572500473 2.392919313570019 L2.0056341672500686 2.389767051570061 L1.999226290250025 2.3815504985700215 L1.982586479249992 2.364652304570029 L1.973801485250025 2.3583477805700284 L1.9065187702500204 2.3338531505700644 L1.8846079632500654 2.321812542570001 L1.8664178592500242 2.312407431570051 L1.847400932250057 2.305534466570066 L1.8071966672500288 2.298403118570036 L1.7876629762500365 2.2850189225700035 L1.7393971882500274 2.221456911570044 L1.7161427942500929 2.1975307225700362 L1.7020868042499764 2.1923630795700433 L1.6648280962500657 2.1884873465700707 L1.6459145222500275 2.1825962345700702 L1.6288612992500795 2.1713824485700286 L1.613255017250058 2.155776165569989 L1.6026096722500576 2.1375860615700333 L1.6001292032500807 2.1186724875700236 L1.5819390992500395 2.12001607457006 L1.5648858762500915 2.113814902569999 L1.547936007250005 2.1048748795700476 L1.530366019250014 2.0977952085700338 L1.513867383250048 2.095491344570007 L1.5074216832499907 2.09459126957006 L1.4935724002500343 2.0987770605700007 L1.4840639362500418 2.1097841415700884 L1.473728649250038 2.1271990985700313 L1.450370902250004 2.1198093685700314 L1.418744926249989 2.1048748795700476 L1.390012829250086 2.0871498635700334 L1.3756467812500865 2.071801963570067 L1.375026664250104 2.043741660570049 L1.3638645542500036 2.0263267025700316 L1.321386527250045 1.9979046645700862 L1.2910007852500804 1.9711879495700373 L1.2788051472500719 1.9642633075700644 L1.2587546912500365 1.959199017569972 L1.1982932662500936 1.9573386655699778 L1.1699745812500204 1.9464866145700341 L1.1540582392500802 1.9296917745699602 L1.140932425250103 1.9100030535700228 L1.0472947312499663 1.8266489685700549 L1.0348923872500997 1.8220497655700285 L1.0346856812500427 1.821946413570089 L1.00274964625007 1.7970383725700287 L0.9982021202500313 1.7877366155700827 L0.9968585332499664 1.7780731215700598 L0.9912774782500584 1.7699082455700363 L0.9739141972500285 1.7652056905700704 L0.9458022182500123 1.7457236755700762 L0.9313328172500555 1.7380755635699927 L0.9143829472500649 1.732132773570072 L0.8761423872500735 1.725259807570012 L0.8623964552500389 1.728102011570087 L0.8668406292500528 1.7409694435700658 L0.8481337612500432 1.7426230895700314 L0.7892226282500623 1.7369903575699936 L0.769378877250066 1.7322878025700277 L0.7535658892500727 1.721590781570029 L0.7208030312500604 1.6736867285700043 L0.7006492222499823 1.660095827570018 L0.6545538452500672 1.6459364845700577 L0.6350201542500464 1.6353428165700734 L0.6236513382500597 1.6208734155700597 L0.6186904012500101 1.6046470155700376 L0.6157965212500223 1.5718324805700377 L0.6144529342500711 1.5549859645700508 L0.6070115282500446 1.5510585545699769 L0.5964695352500691 1.552040407570047 L0.5852040732500292 1.54981832057004 L0.574352023250075 1.5424285915700295 L0.5664972042500303 1.5349355085701006 L0.5601926802500294 1.5259954855699789 L0.5537848032500712 1.5140065525700095 L0.549754040249983 1.502276002570028 L0.5451031612500152 1.4801068135700177 L0.538075166250028 1.4692547625699603 L0.5275331752500598 1.4617100035700048 L0.5036586632500679 1.4531833925700823 L0.4934267292499932 1.4451218685699985 L0.4941501992500754 1.4426930765700376 L0.49890443125005746 1.4348382585700108 L0.4909462602500163 1.4323061135700073 L0.4883624392500998 1.430962526570056 L0.4968373732500915 1.4187152115700314 L0.4961139042500271 1.405434369570031 L0.4878456752500746 1.3948406995700395 L0.4739963902499973 1.3901381445700451 L0.440716768250045 1.3798028585700592 L0.42542054425002007 1.3730332455700136 L0.41105449624999224 1.3646099875700202 L0.39038392325008786 1.3453346775700936 L0.38004863624997043 1.3325189235700066 L0.3750876992500345 1.321976930570031 L0.38686992625003214 1.3069390885700614 L0.4282110712500504 1.295570273570064 L0.4441274132500759 1.2851316345700354 L0.4473313512500603 1.26869852857007 L0.44784811624998966 1.2477178975700554 L0.453945935250065 1.233610231570026 L0.4739963902499973 1.2375893165700234 L0.48133444424999894 1.2221380635700143 L0.5043821332500649 1.1945945255700394 L0.5124436562500456 1.1792983015700713 L0.5155442422500052 1.1598679625699901 L0.5093430712500187 1.1526332625700206 L0.4950803752500441 1.1490675875700447 L0.4541526412500936 1.1335646585700374 L0.4552895222500162 1.1227126085699979 L0.4622141642500175 1.109225058570047 L0.4596303422499979 1.0946006285700491 L0.4427838252500216 1.0842653425700632 L0.4059902062500136 1.0817848735699727 L0.3906939822500739 1.0720697045700263 L0.38966045325000565 1.0720697045700263 L0.23835185925006286 1.0198765075699612 L0.23514792025000375 1.0135203055700401 L0.23494121525004985 1.0044252545700658 L0.2328741572499986 0.9941933205700764 L0.22398581125006345 0.984323122570089 L0.20951641025004974 0.9762615985700052 L0.19349671624999942 0.9703188095699886 L0.1793373742500286 0.9619989025700306 L0.17065573325007577 0.9468577085700076 L0.17003561625000785 0.931871543570054 L0.17706361125002346 0.9091339135699741 L0.17416973125003565 0.8940960715700896 L0.16652161825004796 0.8822104915700493 L0.15525615625009337 0.8710483825700237 L0.13076152825005138 0.8537884545700365 L0.08135885825001665 0.8339963805700563 L0.07102357125009817 0.8221108015700338 L0.08352926925002535 0.8100185165700395 L0.09386455525001125 0.8056776955700684 L0.10058249125004082 0.8010268165701007 L0.10244284225004563 0.7882110615700242 L0.09872213925004658 0.7739483665700391 L0.0906606162500374 0.7650600195700292 L0.0676129272499999 0.7496604435700363 L0.09281548324998212 0.7508529365700269 L0.14078675524996598 0.7531227635700759 L0.1600103882500754 0.7618560815700448 L0.16590150125009373 0.7711061625700495 L0.16559144325001185 0.7882627375700224 L0.1695188522500679 0.796065879570051 L0.18068096125009347 0.8023704035699666 L0.19525371525006463 0.8052642845700575 L0.22398581125006345 0.8057293725700561 L0.23111715925009335 0.8082615165700702 L0.23442445125002465 0.8118788675700443 L0.23390768625006686 0.8164780705699854 L0.22946351325007086 0.8221108015700338 L0.22791322025003424 0.8222658295699716 L0.22656963325008306 0.8225758895700608 L0.22522604625001819 0.8231443305701021 L0.22398581125006345 0.8238677995699959 L0.2212986372500474 0.8257798275700168 L0.22036846124999343 0.8277952085699667 L0.2214019902500617 0.8300172955699736 L0.22398581125006345 0.8323427345700054 L0.24145244625001183 0.8436598735700613 L0.24579326624999354 0.8474322535700196 L0.24992738125002134 0.8539434835700774 L0.25168437925001186 0.859782919569966 L0.25271790824999485 0.8649505635700621 L0.26470684025003166 0.892494101570037 L0.27483542025007424 0.9026226825700121 L0.2918886432500223 0.9040179465699794 L0.3058412802500108 0.8975067155700174 L0.3058412802500108 0.888618369569997 L0.30005351925004575 0.8779213475700942 L0.2970562872500331 0.8655190045700181 L0.30015687225006005 0.8477423115700731 L0.3055312222500426 0.838337200570038 L0.3252716192500067 0.8221108015700338 L0.32795879325002275 0.8062461365700244 L0.3361236692500462 0.7984429945699958 L0.3472857782500718 0.7934303805700438 L0.3586545942500585 0.7857822695700634 L0.38966045325000565 0.7496604435700363 L0.4004091512500203 0.7428391535700882 L0.42976136525007647 0.7322971615700169 L0.441646944250099 0.725475872569973 L0.4452642952501016 0.724132284570004 L0.45425599425005103 0.7243389915700504 L0.4582867552500467 0.7229437275700832 L0.46045716525003755 0.7192747005700824 L0.4598370492500443 0.7153472915700263 L0.4584934612500753 0.7119883235700115 L0.4582867552500467 0.709921266570035 L0.4609739302500522 0.7054254165700229 L0.46304098725002873 0.7003611265700442 L0.4665549842499992 0.6954001895699946 L0.4739963902499973 0.6912660745699668 L0.501694958250031 0.6760732035700414 L0.5420025762500735 0.6684767675699845 L0.6168300502500053 0.6649110935700264 L0.6702634802500178 0.6711122665699918 L0.6832859422500555 0.6701820905700515 L0.6944480512499958 0.6633091245700768 L0.716565564250093 0.6413983165700188 L0.7293813192499989 0.6332851175700114 L0.7457110722500353 0.6295127385699857 L0.7617307662500004 0.6288926205700136 L0.7796108112500271 0.6304945905700663 L0.7858119832500314 0.6289442975700297 L0.7998679732500342 0.6230015075700237 L0.8088596722499837 0.6218129495699998 L0.8172312542500642 0.6234149185700346 L0.9098354212500261 0.6594333925700369 L0.9440452192500324 0.660673626570059 L0.9521030392500656 0.6555991515700441 L0.9739141972500285 0.6418634045700458 L0.9880735392499993 0.6311663835700472 L0.9945847692500571 0.6129246025699899 L1.0010960002501044 0.5721518985700129 L1.0093642292500569 0.5684828705700227 L1.017735811250052 0.5671909605700591 L1.0260040402500046 0.5683278425700564 L1.0337555062500066 0.5720485455700839 L1.0425404992500695 0.5737021905700317 L1.051842257250005 0.5742189555699895 L1.0612473672500506 0.5737538675700478 L1.0703424192500428 0.5721518985700129 L1.070445772250057 0.5721518985700129 L1.0706524782500288 0.5720485455700839 L1.0988678102500877 0.5658473735699943 L1.1515777712500928 0.5678110775700418 L1.1761757532500816 0.5560805275700318 L1.190541801250081 0.5394923925700255 L1.2238214232500333 0.482803346570023 L1.2432517612500966 0.48394022757003086 L1.2594781622500228 0.4911749285700182 L1.2761179732500558 0.495877484570002 L1.297098604250042 0.4890561945700256 L1.3077439492500424 0.46879903357003627 L1.3133250042500642 0.46244283157000154 L1.3508420942500585 0.4454929625700004 L1.3568365602500627 0.44135884756997257 L1.3574566772500454 0.4377414975700731 L1.3602472042501041 0.4365012635700509 L1.3724428422500274 0.4393434675700121 L1.3778171922500668 0.4432191995699952 L1.3918731812500802 0.4582570405700608 L1.3984877642500102 0.4635280375700006 L1.4208119842500686 0.47050435557000014 L1.439415499250007 0.46755879857008154 L1.4563653682500082 0.4577402765700356 L1.473728649250038 0.44394266957007744 L1.483650525250031 0.44037699557000565 L1.4896449912500636 0.4356744405700397 L1.4905751662500144 0.42962829757007626 L1.4847874072500282 0.4216184515699979 L1.5014272172500718 0.41360860357002593 L1.5147597372499924 0.40265319957003953 L1.5186871462500484 0.38916565157009586 L1.5071116252500225 0.3738177505700264 L1.54803935925003 0.3581081155700474 L1.593411267250051 0.35268208957006664 L1.6832249062500502 0.3529921485699674 L1.7025002162500051 0.3505633565700066 L1.7405340702500247 0.34162333357005537 L1.7621348182499936 0.34022807056999227 L1.8080234902500685 0.343483685570078 L1.826006889250042 0.3411582455700568 L1.854945691250098 0.3296860775700168 L1.8610435102500595 0.3295827255699919 L1.8668312702500351 0.3282908135700495 L1.8736525602500116 0.322089642570063 L1.8741693242500368 0.31681864657002734 L1.871792208249989 0.30979065157001173 L1.8705519732500626 0.30131571657003065 L1.8747894412500195 0.29160054757008425 L1.8839878462499975 0.2844175225700383 L1.8924627802501028 0.28421081757005595 L1.9021779502500387 0.2860711695700786 L1.914787000250076 0.28488261057006525 L1.9250189332500476 0.2800250265700299 L1.9403151572500157 0.2676226825700496 L1.9510638552500303 0.2627650975700533 L1.9705975462500511 0.2600779235700088 L2.0071844602499915 0.2630751565700393 L2.0264080932500157 0.26224833356999966 L2.182264213250054 0.2169281025699945 L2.1944598512500626 0.20969340157003558 L2.212753308250033 0.19222676757007662 L2.2236053592499765 0.18545715557004883 L2.259572156250048 0.18070292357003837 L2.3380169802499644 0.18463033257000916 L2.367369193250031 0.1688690205700425 L2.3733636602500816 0.14396098057005702 L2.346698621250031 0.13419413457000928 L2.309801648250019 0.12732116857003462 L2.2842734902500617 0.11135315057001094 L2.2852036662500304 0.10086283557004094 L2.2936786012500114 0.0971421325700419 L2.295228894250048 0.09512675157000672 L2.275281791250027 0.09001078457001199 L2.2414854052500495 0.08722025757003848 L2.229806531250066 0.08236267257004215 L2.2409686402500917 0.07218241557006877 L2.255024630250009 0.04339864257005388 L2.279002494250026 0.027999066570060904 L2.3108351762500696 0.024820965570000908 L2.3480422082500105 0.03249491557008355 L2.3555869672500513 0.03683573657005468 L2.3608579632500586 0.04239095256997416 L2.367369193250031 0.04784281557004988 L2.3782212442500033 0.05156351857004893 L2.3892800002500145 0.05171854856999403 L2.417288627250091 0.04388956856999471 L2.4535654832500633 0.04518148057002236 L2.4649342982500606 0.041460776570005464 L2.473615938250024 0.027637331569962953 L2.4794036992500743 0.0361122655700683 L2.481574109250065 0.042132570570089456 L2.4849847542500108 0.04812703657003681 L2.4943898642500564 0.05631775057005939 L2.5067922082500367 0.06179545257003838 L2.5337673052500556 0.06608459657002186 L2.546066296249993 0.07218241557006877 L2.5581585812500727 0.08143249657007345 L2.5658066942500604 0.08933899157003111 L2.568907279250002 0.09910583757007885 L2.5670469282499973 0.11414367857005914 L2.5592954632500984 0.12618428757002675 L2.5473065302500437 0.14055033557002616 L2.541828829250054 0.15274597357006314 L2.5533009972500658 0.1584820575700121 L2.6085947792500725 0.14396098057005702 L2.620687064250067 0.14411600857002327 L2.626061414250021 0.15543314756999393 L2.620273653250056 0.16871399157000155 L2.6033237832500653 0.19388041357004226 L2.5998097862500096 0.21176045957000156 L2.6046673712500343 0.21925354257001572 L2.6393939332500658 0.22545471357000224 L2.6536566282500225 0.23046732857005736 L2.691897188250014 0.24886413756996717 L2.7290008672499972 0.25413513357000284 L2.750704968250009 0.2546518985700459 L2.7668280152500735 0.25186137057008295 L2.77654318425002 0.24478169957006912 L2.7860516482500977 0.2332061785700148 L2.801864636250091 0.20638611057003686 Z" fill="black" stroke="black" stroke-width="0.5" vector-effect="non-scaling-stroke"/></svg>