<svg xmlns="http://www.w3.org/2000/svg" viewBox="0 0 0.25232258364007976 0.18472350449999908"><path d="M0.10930968081999026 0.14446034174996925 L0.08880186881998497 0.141123752750012 L0.04567035782002904 0.14303618775002036 L0.029882597820005685 0.14791900075001507 L0.03130919982004343 0.13286244675001768 L0.03983581082002274 0.13523956174996243 L0.04381489682003803 0.12350901274997028 L0.028105260820041167 0.11808298775000736 L0.025004674820024775 0.11183013874998693 L0.03368631581997761 0.10557729075001276 L0.03058572982001806 0.09854929574999716 L0.013377478820018496 0.09152130074998155 L0.007809187820043917 0.08690669674999896 L0.004024043819981671 0.08376983674998684 L0.0024737508200018965 0.07436472675002648 L0.007227982819983936 0.06501129174998965 L0.022834263820016076 0.06263417575002705 L0.03368631581997761 0.05405588775000325 L0.04309142682001266 0.05405588775000325 L0.04774230482007624 0.058034973749990115 L0.03983581082002274 0.07984242775001604 L0.03596007781999333 0.09152130074998155 L0.04686380582006677 0.08842071575003985 L0.06805114282008162 0.07358957874999561 L0.09450947682000788 0.08919586175003502 L0.10391458782004293 0.08061757375001122 L0.11486999082001148 0.08227121975006213 L0.12272480882006676 0.08061757375001122 L0.12665221682004812 0.06816355375003269 L0.15238708082000585 0.05405588775000325 L0.16323913081998853 0.057208149749961024 L0.17109394881998696 0.06418446774996056 L0.1819459998200159 0.06263417575002705 L0.1952785188199755 0.05405588775000325 L0.19992939882001792 0.047751362749984594 L0.20530374781998262 0.0439789837499589 L0.19992939882001792 0.03534901875000429 L0.19992939882001792 0.02056955974999397 L0.2045802778200141 0.0018110147499967866 L0.2178094438199878 0.0018110147499967866 L0.22018655982003565 0.010337626750022366 L0.22721455482002284 0.011991271749970167 L0.23196878682006172 0.02129302974999092 L0.23424254982006687 0.02444529175006238 L0.23424254982006687 0.029922994750030796 L0.24199401381997632 0.029922994750030796 L0.24984883282007786 0.04010325075001475 L0.242820837819977 0.047751362749984594 L0.23661966582000105 0.05007680275000581 L0.23487991673148656 0.05170055000076701 L0.2264910848200543 0.059533588749992816 L0.20850768681998488 0.047751362749984594 L0.20302998481997747 0.053280741749979654 L0.19600198981999029 0.06030873674999526 L0.18349629282005253 0.06738840774992383 L0.16954365582006403 0.06971384775005873 L0.16323913081998853 0.06418446774996056 L0.1554876678200685 0.059533588749992816 L0.1421551468200164 0.06501129174998965 L0.13275003581998135 0.07126413974999224 L0.12737568782000608 0.08227121975006213 L0.15073343582008647 0.09074615474998637 L0.1585882528199818 0.09777414974997356 L0.15776142982008423 0.11963328075001556 L0.1687168328200528 0.12743642174994108 L0.18742370182002333 0.12898671575005238 L0.18742370182002333 0.14614328975000745 L0.17884541381999952 0.1477969357499731 L0.16644306982004764 0.15709869374999386 L0.1741945348200602 0.1610777787499913 L0.19279805081998802 0.1578221637499908 L0.22021522825087914 0.1626663939204107 L0.21217426381997484 0.17168202075000494 L0.20289692082002375 0.17957590174997762 L0.19068988881997484 0.1829124897500023 L0.17579731082003036 0.1783551987499763 L0.14804665982001097 0.15605702075000494 L0.13258442082002375 0.1482038307500133 L0.1102048628200123 0.14458241175000097 L0.11331969882002113 0.14459299674999926 L0.11642028282005867 0.14381785075000408 L0.12117451482004071 0.14304270374999106 L0.12272480882006676 0.14304270374999106 L0.11952086982000765 0.13839182475002332 L0.11486999082001148 0.13611806174998975 L0.11094258282003011 0.13611806174998975 L0.1062917038199771 0.13611806174998975 L0.10236429382001688 0.13213897675002073 L0.09450947682000788 0.13053700674999646 L0.08985859782001171 0.13053700674999646 L0.08758483482000656 0.13213897675002073 L0.0937860068199825 0.13523956174996243 L0.09771341482007756 0.1368415317499867 L0.09926370881998992 0.14071726475004454 L0.10391458782004293 0.14071726475004454 L0.10856546681998225 0.14149241074995444 L0.10930968081999026 0.14446034174996925 Z M0.0711666028200284 0.11957261375005857 L0.07506314382004575 0.11809461574998892 L0.08043768482008318 0.11648225374998589 L0.08043768482008318 0.10640499075001486 L0.07452568982006369 0.10559880975001334 L0.0696886038200546 0.10707680774999773 L0.06861369582003363 0.11070462274995663 L0.06713569682000298 0.11554170874996572 L0.06807624182005156 0.11822897874998972 L0.0711666028200284 0.11957261375005857 Z" fill="black" stroke="black" stroke-width="0.5" vector-effect="non-scaling-stroke"/></svg>