<svg xmlns="http://www.w3.org/2000/svg" viewBox="0 0 1.7029936697400245 1.8136493224199697"><path d="M1.5083191373700302 1.237832958709955 L1.4564005513700309 1.3179293837100197 L1.1913013223699878 1.7269062477100299 L1.1756950393700336 1.7215060607099666 L1.1656698123700053 1.7300068337099752 L1.1556445843699876 1.7421249567099686 L1.1408651243699879 1.7474476297100061 L1.1277393103700106 1.7452772187099264 L1.1030379763700822 1.7382492247100139 L1.061696830370046 1.734089271709987 L1.0393726113700055 1.7292316867099622 L1.0224227413699865 1.7151498597099355 L0.9972046423700149 1.6606828997099363 L0.9779810093699908 1.6535773907100086 L0.9541064983700167 1.6526472147099547 L0.8832064333700274 1.6360332417099492 L0.8757309573700596 1.6366056877099702 L0.8373177613699809 1.6395472387099908 L0.7472974163700101 1.666574013709944 L0.6808415243699883 1.7097496727099717 L0.6593441283700159 1.7198007387100027 L0.6442546093700017 1.7190255917099897 L0.6287516813700122 1.71380627270997 L0.6061174033700709 1.7101889217099817 L0.5734578983699876 1.721092648709952 L0.5648796103700775 1.7219194717099775 L0.5469995643700045 1.7212993557099985 L0.5384212773700838 1.722177854709951 L0.5027645383699806 1.7379908427100297 L0.4892253133699924 1.7413498107099592 L0.4703117393699827 1.7411431047100017 L0.4189453653699857 1.7294900697099358 L0.3638582883700465 1.735432859709956 L0.33698654437004194 1.7441920147100198 L0.3059806843699917 1.7752495497099652 L0.27838546937002917 1.782096677710026 L0.22174809937005335 1.7844221167099583 L0.21492681036998107 1.7871609677100047 L0.21037928537001704 1.7921477437099576 L0.20510828836999195 1.7958684467099708 L0.19642664837002854 1.7946282127099344 L0.19043218137003493 1.7896672747099807 L0.18784836037000474 1.7837503227099738 L0.18443771537008757 1.778634355709979 L0.06630539136998692 1.755018226709975 L0.04139735137002987 1.7456389547100137 L0.03410896637004868 1.7362273007099525 L0.02889165437003527 1.7294900697099358 L0.04687505337003728 1.7010163547099886 L0.05317957737000967 1.658305783709988 L0.05555669337000069 1.4659661027100235 L0.04325770237003468 1.3572647277099996 L0.017419487370013087 1.2423105037099695 L0.01669601636999829 1.1877401917100308 L0.04625493637005462 1.0970480527099902 L0.06000086637008195 1.021238726709992 L0.07581385537006469 0.9894577207099609 L0.09059331437001816 0.9795875217099841 L0.12986740337007774 0.9626376527099687 L0.13978927837005273 0.9498218967099881 L0.14537033336998917 0.9355592017100172 L0.15384526837008394 0.929668088710013 L0.16511073037006696 0.9263091207099983 L0.17906336737005546 0.9197462137099244 L0.19291265037001182 0.909255897709965 L0.2039714063700231 0.8982488177099803 L0.24226612237001888 0.8447835037099871 L0.3248942593700477 0.7294219137100093 L0.3653052283700404 0.6555246157100179 L0.3763639853700411 0.6435873587099898 L0.399928438370047 0.6322185447099962 L0.407886608369985 0.619867876709943 L0.42307948037004195 0.5834359917100294 L0.5563013233700431 0.40468721270996966 L0.586790417370004 0.33931652571001436 L0.647045137369993 0.25978649770990714 L0.6985148633699865 0.20537121371001987 L0.7160848513700344 0.2023223037099875 L0.7432666553700429 0.2093502987100031 L0.7891553263699862 0.22945243070996568 L0.9458382693700642 0.36567150670996895 L0.9590674363700842 0.3468612847099699 L0.9637729943700393 0.34556759170994766 L0.9953442913700101 0.33688773370995406 L1.008986869370041 0.31761242470991746 L1.017461804370022 0.308620725709968 L1.0473307823700466 0.30309134670997295 L1.0598364783700518 0.29652844070998796 L1.0656242393700168 0.2696050197099673 L1.0563224813700813 0.23823742470994702 L1.0528084833700078 0.2084717997099652 L1.0964233923699922 0.16806082970998304 L1.1196777873700867 0.11395560570998597 L1.1364209513700771 0.09953787970996686 L1.1453092973700691 0.10062308570996592 L1.157711641370021 0.11028657770998151 L1.1679435753700105 0.1093047257100146 L1.3852722623700302 0.017780875709998867 L1.4015483043699888 0.028482372710012527 L1.4109070283700262 0.046182568709976834 L1.4187195283700262 0.06595795870998344 L1.4293803353699914 0.08296642270999754 L1.5271993453700148 0.19234142270999754 L1.5507996063700276 0.22916596671000988 L1.5649597623700302 0.24369233370998344 L1.5805847623700302 0.24800548471000283 L1.5969421843700289 0.23693777671001826 L1.5969421843700289 0.2721347167100099 L1.5988139293699888 0.2889804197100112 L1.6037781223700236 0.30578543270996406 L1.6116720023700069 0.31953868771000415 L1.6207865853699914 0.33048432571001385 L1.6281108043699888 0.3426913577100059 L1.6311218723700236 0.3603915527099808 L1.632342575370025 0.3985588707100156 L1.6354350233699861 0.4188225427100143 L1.641619918369976 0.43273855770996406 L1.6789734343700289 0.48392670870998344 L1.6819031223700236 0.5007724117099848 L1.6789734343700289 0.5590406417099949 L1.6862976533700262 0.6344394047100046 L1.6809265593700289 0.6664218257100138 L1.6663595023700069 0.6961662927100143 L1.644712366369994 0.7208651857100072 L1.6180196583700095 0.7377515787100002 L1.6101257783700262 0.7400302247099795 L1.5832703093700289 0.7445875167099949 L1.5559265593700289 0.7582593917099949 L1.5359884083700095 0.7618808107100072 L1.4930196583700095 0.7628166827099641 L1.474139450370025 0.7678622557099821 L1.441587366369994 0.7906894047100046 L1.364764450370025 0.8811435057099821 L1.359556116369994 0.8843987137099667 L1.3536153613700108 0.8868401207100156 L1.3437683563700276 0.8909905107099654 L1.3367696583700095 0.8954257327100059 L1.3322937473700236 0.9022616697100112 L1.3284688773700069 0.9161369957100156 L1.3230977833700095 0.9220777507099989 L1.3091003873700302 0.9271640137100086 L1.2544128873700302 0.9296054197100112 L1.2400899703700148 0.9348544437099768 L1.2251160123700302 0.9452304197100112 L1.2102234343700289 0.9518629067100015 L1.183123825370025 0.9420972817100015 L1.1640808563700276 0.9451083497099795 L1.0709818983699861 0.9777011227100125 L1.0447774703700148 0.9934481937099768 L1.021665491369994 1.0177401857100072 L0.9516785123700302 1.1434319177100143 L0.9450053353699914 1.1520175297100046 L0.9355652313700276 1.157144482710006 L0.9045593723700236 1.1661369957100156 L0.8952820283700262 1.1666252767100183 L0.8713562473700236 1.1623121257099989 L0.8449890593700289 1.1632886877100042 L0.8366068983699861 1.1623121257099989 L0.831073043369976 1.1584872557099821 L0.8216329393700121 1.145425732710006 L0.8161804653699747 1.1418856937099768 L0.7944519503700249 1.1432284667100099 L0.7827332003700249 1.1515699377100042 L0.7825704393700121 1.1584872557099821 L0.7956726533700262 1.1554761877100042 L0.8000671843700289 1.1772047037100002 L0.8000671843700289 1.1782219567099865 L0.8006368453700148 1.2021884277099808 L0.8063334603699914 1.2226962407099755 L0.8392110643700121 1.2352287927100143 L0.8591492153699747 1.2532138187099768 L0.8713562473700236 1.2579338707100156 L0.8852722623700302 1.2554110837099834 L0.9011414033700262 1.2408847167100099 L0.9123718723700236 1.2374667477100125 L0.9210795543699888 1.2397860837099834 L0.9304382783700262 1.2440585447100112 L0.9401225233699861 1.2459709797099627 L0.9492371063700276 1.2411695477099975 L0.9550964813700276 1.2284742347100028 L0.948260543369976 1.2209058757099989 L0.9380066373700302 1.215738232710006 L0.9328796843700289 1.2101229977100125 L0.9416687473700236 1.1935621257099989 L0.9616882783700262 1.1797274907099755 L1.007342575370025 1.1623121257099989 L1.0750509083700095 1.1544182457100156 L1.096698043369976 1.1487216307099821 L1.1071147103699914 1.1412346517100183 L1.1150899703700148 1.1329745607100072 L1.1233907523700069 1.1299228027099808 L1.1345398403699747 1.1381015137100086 L1.142759241369994 1.1420077637100086 L1.1683126273700069 1.1416415527099808 L1.308123825370025 1.139769807709964 L1.3294454393700121 1.1355380367099848 L1.3493835903699747 1.1361483887100086 L1.3709493453700148 1.1487216307099821 L1.3906433563700276 1.1442050297100046 L1.4011414033700262 1.1304110837099834 L1.4087097623700302 1.1171054197100112 L1.419451950370025 1.1139315917100099 L1.4254740853699914 1.124388948710017 L1.4397970023700069 1.1828199377100042 L1.4406921843700289 1.184040641709995 L1.4514343723700236 1.1991366697100112 L1.4627462203700148 1.2073967607099654 L1.4939148403699747 1.2237948727100125 L1.5083191373700302 1.237832958709955 Z" fill="black" stroke="black" stroke-width="0.5" vector-effect="non-scaling-stroke"/></svg>