<svg xmlns="http://www.w3.org/2000/svg" viewBox="0 0 0.24445800828002007 0.44068847652001963"><path d="M0.12845459013998095 0.4363680012600195 L0.1172241211399836 0.43335693326004154 L0.11518961614000034 0.42534098226003714 L0.11852620514001444 0.4009676102600235 L0.11803792314002237 0.37175211526000673 L0.11852620514001444 0.3674796542600358 L0.11303304013999593 0.35612711526000673 L0.10037841813998227 0.34188557926002083 L0.09809977214000298 0.32988199826003317 L0.09630940814001576 0.3051017252600001 L0.09175211614000034 0.28703531826000805 L0.0775919601399977 0.25761637326003317 L0.0756388351399977 0.25053629526003185 L0.07323811913998668 0.23222574826003317 L0.07010498114003383 0.22343668526003846 L0.047115072139988 0.2013419592600041 L0.04345296213999461 0.19304117826000144 L0.04154052713998624 0.18351969326000805 L0.03706461614000034 0.17334716725998867 L0.031286621139983595 0.1652905272600389 L0.025752767140019728 0.16203531826000805 L0.019242350140004305 0.15678629526003185 L0.017045085139997695 0.1447013342600041 L0.01610921213999461 0.12040934226003053 L0.011958822139988001 0.11271891226000541 L0.006465658140015762 0.10783610026000012 L0.002396647140002983 0.10246500626000277 L0.002437337139994611 0.09310628226002216 L0.007320150139989323 0.08659586526000673 L0.024043783140015762 0.07520263626004287 L0.029170736140017084 0.06519287025998999 L0.022253418139982273 0.06389078726000541 L0.010127767140019728 0.05961832626003449 L0.002437337139994611 0.05892659426002744 L0.010697428140005627 0.047167154260035815 L0.02233479814002237 0.004320475260000123 L0.042110189140018406 0.005093586260001004 L0.05407308014001444 0.005541178260001445 L0.06538492814000563 0.009691568260008054 L0.0775919601399977 0.018602701260034493 L0.09374593113999197 0.04155192026003185 L0.10668538413999329 0.049812011260042866 L0.12157796213999461 0.0422436522600389 L0.13398844414000166 0.03988362626001951 L0.1836303711399836 0.05892659426002744 L0.18542073614001708 0.06572184226003053 L0.19176839214001973 0.08098063126000277 L0.20169677713998624 0.09721598226003714 L0.207271322139988 0.10677815726002216 L0.2226928711399836 0.12826253226002216 L0.22415771513998095 0.13037841725998867 L0.2336385091399933 0.16557535726003714 L0.23530680314000563 0.20223714126002612 L0.22838948614001708 0.23027262326003317 L0.23294677713998624 0.2318595372600054 L0.23709716813998227 0.2351961262600195 L0.24206136114001708 0.23710856026003846 L0.2357950851399977 0.2736075842600041 L0.23725992814000563 0.3055086262600195 L0.23758544913998492 0.31348388626004287 L0.23465576213997963 0.3528312172600305 L0.2141072591399933 0.3879467772600389 L0.20690511114001708 0.39335856026003846 L0.20202229814002237 0.3945792642600292 L0.19811604814002237 0.39429443326004154 L0.18794352214000298 0.3955965162600261 L0.17943929013999593 0.3936433912600261 L0.17313232413998492 0.39478271425998734 L0.16772054013999593 0.3995841462600094 L0.1625935871399946 0.4126049802600402 L0.14863688213999637 0.41850504526003185 L0.14538167314002237 0.4258292642600292 L0.14493408214001136 0.42648030525999836 L0.14058024114000034 0.4330314122600054 L0.12845459013998095 0.4363680012600195 Z" fill="black" stroke="black" stroke-width="0.5" vector-effect="non-scaling-stroke"/></svg>