<svg xmlns="http://www.w3.org/2000/svg" viewBox="0 0 3.7548596367599885 2.439973144679989"><path d="M0.28921427937996214 0.25150105733999695 L0.3083793183799912 0.2554886883399696 L0.32632365437996214 0.26415568034000003 L0.32253947437999386 0.24442097933999563 L0.3047985893799705 0.20580607034000664 L0.30585653137995905 0.19591837533997492 L0.30585653137995905 0.18843139634001105 L0.27900106338000796 0.18712931333996963 L0.27558309437995376 0.17646850533995817 L0.2864066623799886 0.16068074533999166 L0.30215373237996346 0.14440470333997624 L0.30667033437998725 0.14135294534000664 L0.3117972873799886 0.14033569334000973 L0.3229463753799564 0.14062052334000796 L0.3297416233799595 0.13797566733999034 L0.34085002137999254 0.12511759433997227 L0.3468314663799674 0.12011271134000268 L0.35875366737997183 0.11559610933997888 L0.36762411038000664 0.113520914340004 L0.37637248237996346 0.109614664340004 L0.3878470913799674 0.09964558933998902 L0.38101115437996214 0.08711303633996081 L0.37991252137999254 0.07592325834000135 L0.38520223538000664 0.06798868833996963 L0.39806030737997844 0.0648962403400084 L0.4057914273799952 0.06603556333996963 L0.4177543183799912 0.07116251633997095 L0.42540405737997844 0.07230183933998902 L0.42874064637999254 0.07018595333997624 L0.43569865437996214 0.060786539340004 L0.4393200733799745 0.05871134433997227 L0.5420218963799925 0.05126505534000003 L0.5681449433799912 0.054723714339989016 L0.5939424693799538 0.0635127763399943 L0.6894014533799577 0.11034708634000268 L0.7174369353799648 0.11571818034000003 L0.7440482633799661 0.1059118653400084 L0.7641898653799899 0.11982788033995817 L0.7785941623799886 0.12609415633997756 L0.8229056853799648 0.12755900033997492 L0.8345837453799732 0.12450724234000532 L0.8373099823799635 0.11681681333996963 L0.8378389533799577 0.10664428633996081 L0.8431286673799718 0.09622762033999166 L0.8548881073799635 0.09191446933997227 L0.8633109593799873 0.10119181333996963 L0.8744193573799635 0.12755900033997492 L0.8822318573799635 0.12300170833995949 L0.8881319223799551 0.11811889634001105 L0.8922416233799595 0.11250366133996081 L0.8949271693799687 0.1059118653400084 L0.886422938380008 0.10338907833997624 L0.8846325733799745 0.10216837533997492 L0.884469813380008 0.09956420833995949 L0.8812552943799687 0.0928096513399943 L0.8969209853800066 0.09858764634001105 L0.9100638883799661 0.097895914340004 L0.9234509323799784 0.09472208634000268 L0.9396049043799621 0.0928096513399943 L0.9498588103799648 0.08540405234001369 L0.9683728073799784 0.052485758340001354 L0.9805798393799705 0.04503946933997227 L0.995797938380008 0.04137735933997888 L1.0282279513799608 0.02611857034000664 L1.0457653863799692 0.023921305340000032 L1.0619193573799635 0.02786824533999166 L1.0773002163799674 0.03641316733999034 L1.0856009983799595 0.04894571933997227 L1.0804740443799687 0.0648962403400084 L1.0997611543799621 0.07230183933998902 L1.1072074433799912 0.07230183933998902 L1.1022025603799648 0.056880289340004 L1.0997611543799621 0.05126505534000003 L1.148141688380008 0.05871134433997227 L1.1623832243799939 0.05732788033995817 L1.19192424037999 0.050776773340007963 L1.2033988493799939 0.05126505534000003 L1.2156872613799692 0.05907755534000003 L1.259673263379966 0.1087601723399736 L1.2633353733799595 0.11828165633997756 L1.2580049693799538 0.12755900033997492 L1.2956840053799965 0.12780314133997095 L1.3100883023799952 0.13451700834000135 L1.34817424037999 0.16479044534000664 L1.3844291233799595 0.18224650033997492 L1.4229626513799758 0.19506388334000135 L1.4675590053799965 0.201411539340004 L1.5279431203799732 0.20185913033995817 L1.5329886933799912 0.19897013334000135 L1.5381156463799925 0.19225626633997095 L1.5502006073799635 0.18436238533999827 L1.5638724823799635 0.17772989834000796 L1.573922938380008 0.17475952134001105 L1.6129447483799595 0.18639689133997095 L1.6739392143799705 0.2474320473399736 L1.7104789273799952 0.28397176033999827 L1.72708049037999 0.295161539340004 L1.745309656379959 0.3039506023399987 L1.7658174693799538 0.3098099773399987 L1.8114310763799608 0.3144079583399595 L1.8480928603800066 0.32694051033999827 L1.915231531379959 0.3394730633399696 L1.93020549037999 0.3392289223399736 L1.9402152553799965 0.33568888334000135 L1.949126388379966 0.3284053543399956 L1.9856254123799886 0.29149943034000003 L2.004546310379965 0.2831579583399595 L2.0599662323799635 0.28397176033999827 L2.087106531379959 0.281489664340004 L2.099394943379991 0.28295450834000135 L2.114613042379972 0.2914587403400084 L2.148711349379994 0.3256384273400137 L2.1594535373799886 0.3488724773399987 L2.1588838753799564 0.3742631023399987 L2.142485763379966 0.42923543233999695 L2.1625052943799687 0.4372106933400097 L2.1701143443799538 0.45495157833997624 L2.169829513379966 0.5006058753399749 L2.1722709193799687 0.520462646340011 L2.1786592663799524 0.5363317863399608 L2.2452689663799674 0.6307328283399762 L2.275176193379991 0.6583614093399639 L2.2789603733799595 0.6618607583400014 L2.3131807503799564 0.6750443523399987 L2.333444422379955 0.671870523340008 L2.372262781379959 0.657751057339997 L2.392282313380008 0.6545772293399956 L2.437285568379991 0.65282755534 L2.4572237193799538 0.6487992343399789 L2.4776908413799674 0.6409053543399956 L2.5072318573799635 0.6221879063399776 L2.518665776379976 0.6198278803399582 L2.529001063380008 0.621943766339971 L2.5502006073799635 0.6318314613400027 L2.563343511379969 0.6340287273399987 L2.5875541233799595 0.6282914223399736 L2.5980521693799687 0.6272334793399956 L2.603870854379977 0.62743693034 L2.609282638379966 0.6286576333400014 L2.6132295783799577 0.631709391339971 L2.6148571823799784 0.6374873853399983 L2.618031011379969 0.642370198339993 L2.6249483283799577 0.6404984533399762 L2.635934656379959 0.6340287273399987 L2.693958745379973 0.656489664340004 L2.7110485893799705 0.668208414340004 L2.722360438380008 0.646520589339989 L2.74075236537999 0.6304886883399696 L2.7861625213799925 0.6067256673399903 L2.8153780163799524 0.5982621253399749 L2.8222953343799873 0.6098181153400084 L2.8145642143799705 0.633662516339971 L2.7998343963799925 0.6619828283399762 L2.819772547379955 0.6689408363400027 L2.84231486537999 0.668818766339971 L2.8642061413799524 0.6634476723399736 L2.882353927379995 0.6545772293399956 L2.8882946823799784 0.6765091953400066 L2.875273849379994 0.6937211093399789 L2.857329513379966 0.7093461093399789 L2.848255620379973 0.726558023340008 L2.8439424693799538 0.7446651203399917 L2.832305099379994 0.7609818523399987 L2.8148490443799687 0.7729447423400053 L2.7929984593799873 0.7780716953400066 L2.7145072483799595 0.7643998203400066 L2.6285290573799784 0.7706254063399776 L2.608265386379969 0.7651322423400053 L2.571196701379961 0.747594807339997 L2.443714604379977 0.7326208493400124 L2.4293509983799595 0.736364339339989 L2.4238578343799873 0.7497513833400014 L2.4206026253799564 0.7973181153400084 L2.4131156463799925 0.837926839339989 L2.4162080943799538 0.8531449383399696 L2.425770268380006 0.8596553543399956 L2.4381807503799564 0.8681595863400027 L2.493356531379959 0.8601436353399983 L2.5123995003799564 0.8668168133399696 L2.5361625213799925 0.8595739743400124 L2.583200281379959 0.8769079583399595 L2.608021245379973 0.8742631023399987 L2.601917729379977 0.8692582193399723 L2.593901779379962 0.8647009273400137 L2.584339604379977 0.861323648340008 L2.5732718963799925 0.8599808753399749 L2.5732718963799925 0.8531449383399696 L2.626657313380008 0.850459391339971 L2.6422009323799784 0.8531449383399696 L2.659941818379991 0.8655147293399956 L2.6736950733799745 0.8962357583400014 L2.6905814663799674 0.9084020993400124 L2.707671310379965 0.9127152503399749 L2.7420544483799745 0.9167435703400066 L2.8349092663799524 0.9406286613399608 L2.873402104379977 0.9504756673399903 L2.88918986537999 0.9494177243400124 L2.907988693379991 0.9393265783399762 L2.9017631073799635 0.9320023593399789 L2.889311935379965 0.9249222813399776 L2.88918986537999 0.9152380363399608 L2.907134201379961 0.910395914340004 L2.922759201379961 0.923823648340008 L2.9437959853800066 0.9562536613399608 L2.957386479379977 0.963740641339971 L2.9725231983799745 0.9680537923399903 L2.985462651379976 0.9734248853399983 L2.9922172093799873 0.9841263833400014 L3.004180099379994 0.974849039340004 L3.0285941623799886 0.9641475423399903 L3.0400687713799925 0.9562536613399608 L3.032419031379959 0.948197021340011 L3.0360811413799524 0.946243896340011 L3.045073654379962 0.9459997553399582 L3.0536592663799524 0.943151448339993 L3.0641166233799595 0.9328161613399608 L3.067290451379961 0.9287471513399943 L3.0712373913799524 0.9284623203400066 L3.1070853733799595 0.9302933753399749 L3.128040776379976 0.9343216953400066 L3.146839604379977 0.9407100423399903 L3.163522547379955 0.9494177243400124 L3.1654349823799635 0.9521846513399943 L3.165475672379955 0.9558060703400066 L3.166289474379994 0.9595902503399749 L3.1703584853800066 0.9630082193399723 L3.1908256073799635 0.9698441563399776 L3.1926566623799886 0.9695186353399983 L3.228423263379966 0.9766800943399723 L3.2507621303799965 0.977493896340011 L3.2597953343799873 0.9805863443399723 L3.261504318379991 0.9817256673399903 L3.269683029379962 0.987259521340011 L3.278838302379995 0.9921423333399595 L3.296660568379991 0.9935257973399736 L3.306914474379994 0.9971879063399776 L3.4231254123799886 1.0997269693399723 L3.4658500213799925 1.149043375339975 L3.5261527553799965 1.1927445473399736 L3.5693656463799925 1.2213903803399582 L3.5816540573799784 1.226598714339989 L3.5880830943799538 1.2305863443399723 L3.6332491103800066 1.2720088703399917 L3.6904593963799925 1.3050492343399789 L3.7180472873799886 1.3450882973399736 L3.712594813379951 1.384313557339997 L3.618600672379955 1.520381266339971 L3.611968185379965 1.5258337403400084 L3.605376388379966 1.5325882973399736 L3.6023246303799965 1.5421097813399776 L3.604155685379965 1.5768591303399582 L3.6023246303799965 1.586787516339971 L3.5909720913799674 1.603755289340004 L3.574492599379994 1.6117712403400084 L3.553822026379976 1.614131266339971 L3.5300590053799965 1.614131266339971 L3.5117484593799873 1.608271891339971 L3.472116297379955 1.5834509273399568 L3.4577120003799564 1.5793412273399987 L3.441191818379991 1.589879964339989 L3.4437959853800066 1.60595255534 L3.449126388379966 1.624995523340008 L3.440622156379959 1.644526773340008 L3.428333745379973 1.660151773340008 L3.420561935379965 1.6782588703399917 L3.405140386379969 1.7364457193399723 L3.3995658413799674 1.7467810053399582 L3.388213302379995 1.7506872553399582 L3.3036592663799524 1.7570756023399987 L3.2864066623799886 1.7512569173399903 L3.2841280163799524 1.714635823339993 L3.2597953343799873 1.6662145993400124 L3.2265108283799577 1.619136148340008 L3.197051193379991 1.586787516339971 L3.1656791233799595 1.5661169433400097 L3.124134526379976 1.54931193034 L3.082305099379994 1.5436560053399582 L3.034087326379961 1.562495523340008 L2.961211349379994 1.5657100423399903 L2.942290451379961 1.562495523340008 L2.8984672093799873 1.548376057339997 L2.878610438380008 1.5452836093399789 L2.8613578343799873 1.539912516339971 L2.8324271693799687 1.516475016339971 L2.810332443379991 1.5111039223399736 L2.7910453343799873 1.5149287923399903 L2.7714327033799577 1.521276448339993 L2.7516166233799595 1.5225785313399776 L2.731556401379976 1.5111039223399736 L2.710641688380008 1.529536539340004 L2.580718185379965 1.539058023340008 L2.541899826379961 1.5526892083399595 L2.521392013379966 1.5531774903400084 L2.4666638233799745 1.517126057339997 L2.444528406379959 1.505895589339989 L2.429839279379962 1.5042679843399789 L2.4234916233799595 1.5136267083399595 L2.4240205943799538 1.5248571773399568 L2.4258109593799873 1.5361283363400027 L2.423044031379959 1.5452836093399789 L2.4140922093799873 1.5480912273399987 L2.4000541233799595 1.5480505363399608 L2.3871553603800066 1.5456905103399983 L2.381499435379965 1.5421097813399776 L2.364694422379955 1.5148474113399608 L2.3567191623799886 1.5075231933400097 L2.3492728733799595 1.5052445473399736 L2.1951794483799745 1.489131266339971 L2.1672660373799886 1.490392659339964 L2.162993576379961 1.4905961093399789 L2.146839604379977 1.4951534013399943 L2.1154268443799538 1.5096390783399762 L2.089547938380008 1.526322021340011 L2.0797416233799595 1.530797932339997 L2.0531302943799687 1.539058023340008 L2.0426322483799595 1.5441442863399608 L2.0300590053799965 1.5502478023399568 L2.007720138379966 1.5691280103399983 L1.9908744353799648 1.594355875339975 L1.9842419483799745 1.6243851723399736 L1.9789522353800066 1.6325231933400097 L1.9559623263799608 1.644079182339997 L1.9507133023799952 1.6513627113400027 L1.9466442923799718 1.6623897293399956 L1.9128715053799965 1.692337646340011 L1.888579513379966 1.718989664340004 L1.8748669483799745 1.7301794433400097 L1.8687634323799784 1.727412516339971 L1.8445121303799965 1.728063557339997 L1.825876063380008 1.731074625339975 L1.8135062713799925 1.7376664223399736 L1.7958467663799524 1.7272904453400066 L1.777047938380008 1.723506266339971 L1.6490775603799648 1.7239945473399736 L1.6275931853799648 1.730464273340008 L1.58645549037999 1.7526810703400066 L1.5630993703799732 1.7575231933400097 L1.4938041233799595 1.757360432339997 L1.477731531379959 1.7512569173399903 L1.4763480683799912 1.74267130534 L1.483590906379959 1.7359574383399696 L1.4929496303799965 1.7300980633399696 L1.4975883023799952 1.7239945473399736 L1.4947399953799732 1.7131709793399956 L1.4879447483799595 1.7072302243400124 L1.4809053603800066 1.7034053543399956 L1.4733370003799564 1.693599039340004 L1.4542126513799758 1.6817582193399723 L1.4498588103799648 1.672480875339975 L1.4523002163799674 1.6625524903400084 L1.458200281379959 1.657995198339993 L1.4649955293799621 1.654536539340004 L1.4702445523799952 1.6476599113399608 L1.4748832243799939 1.627559000339975 L1.4754935763799608 1.6064408363400027 L1.4727673393799705 1.587926839339989 L1.4671927943799687 1.575963948339993 L1.445220138379966 1.549759521340011 L1.4319958543799771 1.5407670083400014 L1.4088431853799648 1.5322220863400027 L1.3891084853800066 1.52782755534 L1.3641654513799608 1.525996500339975 L1.3428031463799925 1.531489664340004 L1.3337699433799912 1.5489457193399723 L1.3371879123799886 1.569860432339997 L1.3346651253799564 1.5782425943399723 L1.3049613493799939 1.6061966953400066 L1.296782638379966 1.6112015783399762 L1.2859997613799692 1.614131266339971 L1.2743217013799608 1.6137243653400084 L1.2535290573799784 1.6075394693399723 L1.2443330943799538 1.6066849773399987 L1.2366019743799939 1.6095739743400124 L1.2226859593799873 1.618932698339993 L1.2133272353800066 1.6209672033399762 L1.200631922379955 1.6194209793399956 L1.1961967013799608 1.622025146340011 L1.1863090053799965 1.630895589339989 L1.1835420783799577 1.6346390783399762 L1.1772758023799952 1.6470088703399917 L1.1760550993799939 1.6513627113400027 L1.1733695523799952 1.6553096513399943 L1.1599418183799912 1.6595414223399736 L1.1549776253799564 1.661901448339993 L1.128366297379955 1.692012125339975 L1.1141654513799608 1.700068766339971 L1.0904431203799732 1.7028763833400014 L1.0808402553799965 1.699458414340004 L1.0746146693799687 1.6913610833399595 L1.0693656463799925 1.6813513183400097 L1.0628552293799771 1.672480875339975 L1.0523978733799595 1.664993896340011 L1.0417777553799965 1.6605993653400084 L0.9984021043799771 1.6516068523399987 L0.9783011933799912 1.651240641339971 L0.9626761933799912 1.6572220863400027 L0.9564099173799718 1.672480875339975 L0.954294031379959 1.6809037273399987 L0.9454235893799705 1.6955114743400124 L0.9433077033799577 1.7066605633399696 L0.9452201383799661 1.7194779453400066 L0.9501029513799608 1.7265173333399595 L0.956735438380008 1.73290568034 L0.9638155163799524 1.7438920083400014 L0.9801322483799595 1.7982946773399568 L0.9853812713799925 1.8076127113400027 L0.985544031379959 1.8195349113399608 L0.9660941623799886 1.847692464339989 L0.9494925993799939 1.8878942863399608 L0.8548474173799718 2.0198116043399956 L0.8465466363799692 2.042435302339957 L0.8423962453799732 2.0504919433400097 L0.8329154513799608 2.0567582193399723 L0.8130179903799899 2.066645914340004 L0.8007295783799577 2.076533609339979 L0.7919405163799524 2.086299234339979 L0.7851045783799577 2.0983841953400066 L0.7788383023799952 2.115026448339993 L0.7714327033799577 2.1125443523399987 L0.7685843963799925 2.1108353673400053 L0.7645560763799608 2.1076208493400124 L0.7630505423799718 2.1148636883399696 L0.7615043183799912 2.117427164340004 L0.7577201383799661 2.1206009923400053 L0.7645560763799608 2.1206009923400053 L0.7605277553799965 2.1290238443399723 L0.7553194223799551 2.135452880339958 L0.7489310763799608 2.1396439613400027 L0.7409965053799965 2.14110880534 L0.7373343963799925 2.145218505339958 L0.7308239793799771 2.1651566563399776 L0.7269991103800066 2.1723994953399917 L0.7147920783799577 2.1892045083400014 L0.6811006723799551 2.283198648340008 L0.6707653863799692 2.301468505339958 L0.6294242403799899 2.3568070473399736 L0.6194144743799939 2.3523311353399983 L0.6107881723799551 2.3445186353399983 L0.6102998913799524 2.34032755534 L0.6005342663799524 2.332270914340004 L0.5317679903799899 2.223831786339961 L0.5150443573799635 2.2065384923400053 L0.48139364137995244 2.1940873203400066 L0.4015189663799674 2.2043412273399987 L0.36733927937996214 2.1963252763399943 L0.37698283437998725 2.1892045083400014 L0.4088838753799564 2.1575882973399736 L0.41571981338000796 2.1448116043399956 L0.41425496937995376 2.123286539340004 L0.4100638883799661 2.1081498203400066 L0.3946423393799705 2.079626057339997 L0.38381877137999254 2.063919677339957 L0.3817028863799692 2.058141682339997 L0.38101115437996214 2.0461381023399987 L0.3878470913799674 2.00829630534 L0.3804008023799952 1.990840250339975 L0.3628226773799952 1.9714310703400066 L0.32632365437996214 1.9425004063399776 L0.2704154513799608 1.9223588053399858 L0.28237875537993773 1.8921183323399653 L0.28599610538000775 1.8748067283399514 L0.28377401938001867 1.8457645723399771 L0.284445813379989 1.8291247613399442 L0.2820686973800548 1.8179368143400048 L0.27131999937992646 1.789282232339918 L0.2698213823800302 1.77982544533997 L0.27261190937997526 1.7601367243400041 L0.28051840338002876 1.7413523413400078 L0.32494118237994485 1.6686145883399384 L0.3255382193800642 1.667637002339962 L0.3373108033799781 1.648360601340034 L0.3351403923799694 1.6454667203399431 L0.32594198737996294 1.637637742340008 L0.31167929238000625 1.628671880339983 L0.2579358023799898 1.6093965713400458 L0.22021200738004154 1.5854445443400387 L0.21209880737995945 1.5765303603400191 L0.19690593638000564 1.555162155339918 L0.18848267738002278 1.5480566463399903 L0.14946697138000786 1.538729050339942 L0.13448080638005422 1.5308742323400004 L0.12848633938003218 1.512374070339991 L0.1322587193800473 1.5013928283400055 L0.1397518023799762 1.4973103893400044 L0.14507447538002793 1.491832687339997 L0.14259400537994793 1.4768206843399305 L0.13613445237999144 1.4673380593400402 L0.045700695380020306 1.3791522273399899 L0.03681234937999989 1.3627966363400397 L0.054020601379988875 1.3504718073399893 L0.09117595537998113 1.3430045633399637 L0.16636516437992555 1.356207891340052 L0.20507081337993327 1.3436246803399463 L0.2180932743799815 1.3303179983400248 L0.23866049437995684 1.2969608613399721 L0.2523030713799699 1.282439784340017 L0.25487082237998493 1.2809291273399772 L0.26175231738002935 1.2768806123399266 L0.28857992738002736 1.261097418340018 L0.3025842403800141 1.2501678523399455 L0.31457317237999405 1.2315384983399902 L0.32139446238002733 1.2146403053399872 L0.3263037223799756 1.1961659803399591 L0.3278023393799856 1.1773815973399628 L0.319740815379987 1.1380816703399894 L0.318707286380004 1.0975415093399654 L0.31317790837999837 1.0790413463400519 L0.30573650237997185 1.0699979713399905 L0.2828438433799647 1.050102544339996 L0.2736971153799743 1.0398964493399951 L0.2595377723800141 1.0115777643400072 L0.2503910443799384 1.0045497693399916 L0.2269816203799735 1.0038004613399956 L0.20212525638001466 1.0118619843400047 L0.18419353337995403 1.014523321340011 L0.18124797738005327 0.9971858773399909 L0.19850790637994464 0.986127121340008 L0.2498226033799824 0.9730013073399455 L0.26294841737995966 0.9653015193400343 L0.30630494338004155 0.9197229063399739 L0.33622559837996846 0.8799578913399451 L0.3513667933799809 0.8670646213400524 L0.3852665323800011 0.8440169323399864 L0.39787558138002055 0.8263177543399713 L0.4029915483800153 0.8091353413399993 L0.40753907438002557 0.7495007373400036 L0.3949172383800317 0.7436869413400196 L0.3301277783800174 0.7138440003400213 L0.29713287837998337 0.6819031023399766 L0.2929207483799985 0.677825526340019 L0.27509237837995215 0.654054368339974 L0.27013144037999837 0.6341072643399635 L0.276694347379987 0.6278027403400479 L0.3036694463799279 0.6132299863399915 L0.31317790837999837 0.6061503143399598 L0.32583863437994864 0.575661219339981 L0.3313680123799543 0.5699509743400206 L0.3427885043800529 0.5469808003399699 L0.34346029837993797 0.5023323623399456 L0.33152304237998464 0.4241459203399991 L0.303566092379981 0.36153992233998977 L0.29896689037994406 0.3388281303400227 L0.30060854637997636 0.31259382334001273 L0.3016023883799619 0.2967118383399914 L0.2980367143800038 0.2790126603399763 L0.28921427937996214 0.25150105733999695 Z M0.5221651253799564 2.416051839339989 L0.5054821823799784 2.4069779453400066 L0.5052787323799635 2.385452880339958 L0.5144340053799965 2.360306396340011 L0.5255830943799538 2.34032755534 L0.5397025603799648 2.3479366043399956 L0.5540661673799718 2.3579463703399917 L0.5795381723799551 2.38134318034 L0.5641166233799595 2.3859818523399987 L0.5392549693799538 2.4103552243400124 L0.5221651253799564 2.416051839339989 Z M3.382598068379991 1.7922725423399903 L3.4342745003799564 1.790807698339993 L3.447864995379973 1.79540568034 L3.4579561413799524 1.8082230633399696 L3.4691459193799687 1.8278763833400014 L3.476470138379966 1.8459020993400124 L3.4748018443799538 1.853755289340004 L3.459624435379965 1.850540771340011 L3.4273571823799784 1.8364619953399917 L3.4105521693799687 1.8332474773399987 L3.392729904379962 1.8353226723399736 L3.3617647353800066 1.8447220863400027 L3.3447562713799925 1.8469193523399987 L3.3096000213799925 1.8380082193399723 L3.2845756073799635 1.816442464339989 L3.268462326379961 1.7895869953399917 L3.2597139533799577 1.7649287923399903 L3.2745658413799674 1.7607377113400027 L3.292103276379976 1.7639522293399956 L3.309477951379961 1.772090250339975 L3.3243298393799705 1.7823441563399776 L3.3358858283799577 1.7862504063399776 L3.382598068379991 1.7922725423399903 Z" fill="black" stroke="black" stroke-width="0.5" vector-effect="non-scaling-stroke"/></svg>