<svg xmlns="http://www.w3.org/2000/svg" viewBox="0 0 17.120008551180035 6.80926160340001"><path d="M13.350745239089989 0.29681931569998077 L13.409461677090079 0.3370294857000038 L13.430442309089969 0.3662783476999498 L13.45994955208998 0.3900753437000082 L13.470233162089997 0.40697353770000055 L13.480077522089957 0.4290910507000125 L13.49514120109005 0.4492448596999912 L13.51475240808999 0.4644894067000285 L13.53816183209004 0.4717241077000016 L13.553871467090019 0.4691402856999962 L13.567901619090023 0.464696112699986 L13.577280891089984 0.4674866396999595 L13.578986213090033 0.48671027269996947 L13.58281026908999 0.4970455596999874 L13.603739224090063 0.5191630716999958 L13.609371955090083 0.5352861187000604 L13.623815518090012 0.5270178897000226 L13.638827521089993 0.5257776556999862 L13.694224657090032 0.538490057699949 L13.701306637089985 0.5440116017000098 L13.712518114090003 0.5527527527000193 L13.806620897089985 0.6573458526999365 L13.83021118808999 0.6753292507000201 L13.849357307089988 0.684631007699952 L13.90881104209005 0.700650702700006 L13.929274909090012 0.7115027536999496 L14.059422004089967 0.8098946796999831 L14.10148662009 0.8303585466999441 L14.172386685089961 0.8329423687000348 L14.240392870090048 0.8585738797000066 L14.251244921089992 0.8587805856999642 L14.256360887090082 0.8560934107000298 L14.261166796089995 0.8567135276999982 L14.270881965090027 0.8669454616999877 L14.274447639089985 0.8771257176999574 L14.274137580089999 0.8882361516999742 L14.276204638090078 0.8990365257000013 L14.286798306090034 0.9080799016999668 L14.310104377089985 0.9170716007000015 L14.331446744089973 0.9218775097000138 L14.351703905089991 0.9222392437000086 L14.371806037090053 0.9181051296999845 L14.451542773090026 0.8878227396999596 L14.476244107090011 0.8880294457000166 L14.506113085090035 0.911490545699994 L14.512624315090008 0.9834241397000232 L14.533863328089993 1.0148434106999706 L14.599595751090035 1.0602153186999919 L14.636079312089961 1.0746847196999345 L14.665291493090066 1.0706003417000323 L14.670082404089996 1.0699304877000377 L14.711371874090005 1.0802657736999526 L14.724859423089967 1.1287382677000186 L14.73126730009001 1.2338481306999716 L14.740310676090061 1.2674378116999951 L14.74470317209007 1.297306788700016 L14.755038459089988 1.322834947699963 L14.781961881090083 1.3435055196999774 L14.816895149089973 1.3563212747000397 L14.923296922089989 1.377922023699927 L14.942158821090018 1.3847433126999709 L14.956886603090012 1.3922880716999264 L14.972492886089967 1.3969389506999936 L14.994248664089966 1.3956987167000425 L15.044633186089968 1.376785141700015 L15.061996467090083 1.3735812036999453 L15.075573208090034 1.3769906096999625 L15.096568000089988 1.3822628446999976 L15.134808560090065 1.425464341699939 L15.16452250809003 1.435489569699971 L15.204520068089991 1.436213039699968 L15.216974087090065 1.4382800967000156 L15.233562222089986 1.4440678566999912 L15.243742480090063 1.4513025576999643 L15.265549934090089 1.4733167176999478 L15.282603156090019 1.4858224147000276 L15.296969205090008 1.4909900577000348 L15.312110399090031 1.4916101757000069 L15.381563524089998 1.4811715356999746 L15.394172574090035 1.482411769700011 L15.429829312090007 1.4984314636999618 L15.445073860090062 1.498018052699951 L15.44254171409007 1.4582271997000367 L15.454892382090023 1.4535763206999837 L15.489463915090013 1.4629814316999334 L15.53819479109005 1.468355779699994 L15.552560839090049 1.472593247700036 L15.56837382709007 1.4836520046999515 L15.595090543090024 1.508560044700008 L15.614004116089959 1.5150712746999806 L15.628628547090031 1.5132109226999864 L15.654518440089973 1.4998784036999557 L15.753737189090018 1.4884062356999441 L15.771410530090023 1.4766240097000354 L15.76107524309002 1.4102714707000137 L15.763555711090092 1.3357540546999649 L15.763038948090056 1.3292428246999923 L15.772495734090015 1.3309998226999686 L15.794096483090087 1.3296562357000032 L15.804741828090087 1.3275891797000445 L15.814043586090023 1.3241785347000137 L15.838899950090067 1.2945162616999573 L15.844481004089985 1.2894519716999786 L15.849700324089994 1.286351385699948 L15.867838752090037 1.2726054547000023 L15.878949185090036 1.2695048686999717 L15.888922736090066 1.2739490416999677 L15.916517951090057 1.3030945496999953 L15.935741584090081 1.3157035997000184 L15.955688687089989 1.3243852396999818 L15.977341112090087 1.3293461776999356 L16.001835741090034 1.3309998226999686 L16.023591519090033 1.3298629417000603 L16.034753628090087 1.3306897646999862 L16.043125210090054 1.3344104676999995 L16.04911967708999 1.3450558126999856 L16.05475240709002 1.371514146699983 L16.059868374090016 1.379368963699921 L16.07811015508996 1.3784387887000553 L16.10343160709003 1.3703772646999715 L16.125962531090053 1.3675867377000122 L16.13557434809006 1.38257290269998 L16.13991516809004 1.3944584817000167 L16.206939501090048 1.4792078306999519 L16.211900438090012 1.4918168807000602 L16.21644796409005 1.511040513699985 L16.227455044090036 1.5271635606999785 L16.252311409089984 1.550107895699998 L16.313082893089998 1.5876249856999924 L16.321454475089993 1.6013709176999418 L16.361555386090075 1.631033188699991 L16.38971904209002 1.6467428246999594 L16.406203824090014 1.6533574087000493 L16.425582486089965 1.658111639700042 L16.44780335209002 1.6599719907000468 L16.47079936409004 1.6578015806999706 L16.51392334708997 1.6479830586999957 L16.532759407089983 1.6457092956999764 L16.55265483308999 1.6522205266999526 L16.56846782109001 1.666483221700023 L16.58118022308996 1.6807459166999938 L16.59146383309003 1.68725714769997 L16.609292203089993 1.6931482607000594 L16.656317756090047 1.7351095236999787 L16.71450541909006 1.7708696146999932 L16.738534959090018 1.7792411967000594 L16.75801697509 1.793297186699977 L16.813982551090007 1.8039425316999773 L16.877467048090054 1.8271969266999866 L16.895941373090054 1.8381523296999693 L16.88408163209006 1.8534485537000227 L16.861473192090003 1.8694682476999736 L16.84868327509004 1.8757727726999922 L16.83537659409002 1.8802169457000024 L16.81940857608997 1.8810437687000137 L16.785198778089992 1.8761861837000031 L16.776853034090024 1.8769096537 L16.749929613090003 1.8947896996999594 L16.72416891108999 1.8923092306999825 L16.653682258090058 1.8543787296999772 L16.64016887009008 1.8511747907000033 L16.626138720090054 1.8509680857000494 L16.60825867409001 1.8528284367000543 L16.59265239208996 1.8498312036999527 L16.574410611090016 1.8424931506999547 L16.556427212090014 1.8377389186999584 L16.54182862008996 1.8425965036999832 L16.536221727090023 1.859959784699999 L16.54102763609005 1.8820772967000072 L16.550794481089994 1.9016109887000032 L16.55986369508996 1.912049627700046 L16.56929464409002 1.914116685700012 L16.590714525090036 1.9124630397000464 L16.60045553309 1.9138066266999265 L16.61259949408999 1.9211446807000134 L16.633528449090065 1.940885076699988 L16.645904955090046 1.9471896016999926 L16.667273160090033 1.9542175967000082 L16.683241177089982 1.9642428246999406 L16.694661668090063 1.9788155786999828 L16.726701057089983 2.091780259699977 L16.74520121909002 2.1341549336999925 L16.77380412509008 2.1735323756999954 L16.792433478090047 2.1911023626999686 L16.803776455090016 2.1981303566999806 L16.814034227090005 2.199887355700046 L16.82635905608997 2.1988538266999775 L16.832069302090005 2.202057766699955 L16.836151741090035 2.207948879699945 L16.875141609090022 2.2382312686999803 L16.879404914090074 2.242882147699948 L16.88457255708998 2.2543543156999597 L16.88844829009004 2.259108547700041 L16.893512580090018 2.2601420757000206 L16.902891852090065 2.2552844916999994 L16.907387703090066 2.256834783700018 L16.918730679090046 2.274611476699963 L16.922399706090047 2.2931116396999904 L16.91929912009003 2.3323857286999647 L16.920125943090042 2.3406539577000025 L16.922451382090074 2.347888658700061 L16.92384664609004 2.355433416700013 L16.92177958808999 2.3643217627000332 L16.91278789009006 2.3738302267000115 L16.900669766090047 2.3800313987000017 L16.889998582090058 2.3871627466999463 L16.88545105709001 2.399048325699969 L16.886484585090002 2.408866847700029 L16.89077373009006 2.4272636587000314 L16.89129049409 2.4373922386999887 L16.889171760090036 2.4476241716999745 L16.88281555909002 2.4656075707000475 L16.882402148090094 2.478113267700042 L16.92681804108996 2.6290084497000414 L16.92712809909004 2.638000148699991 L16.925526130090006 2.6552600776999817 L16.92736064309001 2.664561834700013 L16.935086270089997 2.6759306507 L16.944672248090015 2.684302232699981 L16.951932787090087 2.69422410769997 L16.95216533009004 2.700942042699996 L16.94322530809002 2.7015621607000533 L16.895941373090054 2.7015621607000533 L16.853489183090048 2.706626450700032 L16.830699877090055 2.7061096866999925 L16.820829678089964 2.698048162700008 L16.81501608008999 2.68802293569998 L16.80137350108997 2.6723132997000114 L16.773028978089982 2.6462683776999434 L16.766853645089995 2.6550533707000206 L16.75419291908996 2.704456040700041 L16.72416891108999 2.82227830670006 L16.694144904090038 2.940203924700004 L16.66412089808999 3.058129543699952 L16.63409689009002 3.1759518087000522 L16.619394945090036 3.233726059699965 L16.606398322090016 3.2684526226999857 L16.59868919109003 3.2777713536999933 L16.582885546090026 3.2968746607000163 L16.527953498089985 3.347827622699956 L16.48769755708996 3.3947498237 L16.437803962090086 3.4528341336999837 L16.387884528090026 3.5110217956999925 L16.337887581090044 3.569209458700005 L16.28796814609008 3.6273971217000174 L16.23804871309001 3.68558478470003 L16.188077603090036 3.7437724467000386 L16.138158169089976 3.8018567567000225 L16.088187059090004 3.8600444197000208 L16.028552456089997 3.9057263857000386 L15.968917854090094 3.951408352700046 L15.90917989808996 3.9969869647000316 L15.849545295089953 4.042668931700039 L15.789807339090018 4.088454250699986 L15.73017273709003 4.134032863699975 L15.670486458089997 4.179714829699993 L15.610800178090088 4.2253967967 L15.554162808089998 4.268804999699999 L15.509767730090076 4.295720482699966 L15.494838263089989 4.304771796699971 L15.40275086109007 4.336914536699997 L15.276970426089989 4.380942857700052 L15.15124166609003 4.424867824699991 L15.025409553090029 4.468792792700032 L14.89968079309007 4.512821112699999 L14.773952034090016 4.556746080700027 L14.648223274090057 4.60077439969999 L14.522442837090082 4.644699367700017 L14.396714078090028 4.68862433469997 L14.36905987609002 4.698280673700015 L14.33041321508999 4.711775376699951 L14.311602994089995 4.721387192699968 L14.237964078089973 4.785672674700027 L14.13688497609003 4.921064927700019 L14.088567512089995 4.9611658387000155 L14.074511522090077 4.976565415699998 L14.04360901509007 5.035786607699993 L14.03125834909001 5.053563300700009 L13.994826464090025 5.0806417506999715 L13.98301839909 5.094801092700013 L13.982915046089985 5.116711900699972 L13.994464729090012 5.134902004700013 L14.010226041090007 5.146064113699953 L14.022783414090028 5.160430161699953 L14.024902147090089 5.1879220236999295 L14.015703742089997 5.20838589069999 L14.000304165090014 5.2148971217000515 L13.98257914909 5.218721177699994 L13.96674032208999 5.231640285699999 L13.95312358309009 5.2381515166999755 L13.943563442089996 5.21996141270002 L13.929739997090039 5.155675929700056 L13.922246915090014 5.140689764699989 L13.90974121808999 5.130664536700056 L13.866410529090032 5.118572251699977 L13.845455736090045 5.115678371699989 L13.828635057089983 5.120742661699968 L13.817705492089985 5.139656235700006 L13.818635668090039 5.146064113699953 L13.82473348709 5.165701158699992 L13.824139208090045 5.176656561699961 L13.816491096089962 5.219858058700002 L13.803557440089989 5.260480011700029 L13.802176724089989 5.264816555700012 L13.783754076090062 5.304917466700008 L13.777036140090033 5.325484686699998 L13.774710700090012 5.344915024699976 L13.775175788090039 5.380881821699962 L13.779335741090065 5.401242336699983 L13.778689786089998 5.41095750569993 L13.771067512090028 5.416745266699994 L13.758329271090062 5.418915676699985 L13.753575039089966 5.420569321700032 L13.753006599090028 5.42573696469994 L13.753058275090027 5.438346014699963 L13.765848193090008 5.502941554700019 L13.759750373090057 5.522165187700029 L13.735359097090011 5.5459363466999925 L13.727426764090055 5.551000636699971 L13.715101935090004 5.55678839769995 L13.709055793089973 5.561335923699989 L13.698746345090072 5.5806629097000275 L13.691589159090015 5.599783189699938 L13.681718961090056 5.673783840699944 L13.681796475089968 5.680708482700016 L13.677662361090043 5.684842596699941 L13.663709724090054 5.69249070870001 L13.650790615090031 5.696521470700009 L13.638672493090056 5.697451646699964 L13.627536221090011 5.700345526700051 L13.617355964090066 5.7108875186999235 L13.61252421809003 5.727320623699985 L13.613506070090025 5.7868518747000515 L13.602809048090009 5.831190252700001 L13.54185669609005 5.958520981699994 L13.532322394090059 6.002239243699979 L13.523692431089998 6.021772934699985 L13.505295620090024 6.037069158699953 L13.497001553090044 6.058049790700043 L13.498215949090067 6.095566880700037 L13.50627747308998 6.132670558700017 L13.51844727209 6.151790838700013 L13.542218432090053 6.166260239699955 L13.539531257090019 6.18238328670002 L13.52408000309002 6.201296860699973 L13.509636441089995 6.224551255699982 L13.50705261909009 6.242948065699981 L13.50798279509003 6.262895167699998 L13.506768399090006 6.282118800700022 L13.497750861089955 6.298241848700005 L13.470494512090042 6.316239927699957 L13.459717008090038 6.323356594700019 L13.368146370090031 6.359840155700031 L13.326365973090006 6.383404607699948 L13.280787360090002 6.425365871699956 L13.262080492090021 6.451100735699942 L13.250815030090067 6.4785925967 L13.251538500090064 6.505981105699949 L13.27409526308999 6.550939601700055 L13.279211229089995 6.574814113699961 L13.26861756109001 6.594657863699954 L13.245466519090016 6.599825506699947 L13.219163215090063 6.600032212700004 L13.19908692109 6.605096502699983 L13.18841573809 6.621529608699948 L13.17733114309 6.670260484699984 L13.170148119090058 6.6912411156999845 L13.144335741090046 6.718629624700018 L13.115500292090005 6.74250413670001 L13.096974291090064 6.724210679699954 L13.086044725089991 6.716252508699984 L13.075270190090052 6.711188218700006 L13.06490906409006 6.709947984699969 L13.048760179089967 6.713978745699965 L13.038579922089994 6.714392156699976 L13.021113289090053 6.710464748700009 L12.987678636089967 6.69878587469994 L12.970108650090012 6.695891994699952 L12.945740594090026 6.696779396700013 L12.899156908090006 6.698475815699954 L12.876212572089983 6.692377996699992 L12.862259935089995 6.675531479700016 L12.851588752089995 6.654395819699975 L12.83838542409002 6.635378891700004 L12.829574592090026 6.629591132700032 L12.810066739090004 6.622253077700041 L12.801359260090052 6.615948553700026 L12.796010749090001 6.607370265700002 L12.789499519090029 6.587629868700024 L12.784099331089962 6.578741522700017 L12.766736050090046 6.565925767699941 L12.746117153090026 6.555073716699983 L12.728857225090039 6.541327785699952 L12.72167420209 6.520140448699994 L12.718606144090089 6.501587155700012 L12.718392748090011 6.500296697699998 L12.692218635089986 6.451100735699942 L12.680720629089976 6.391776190700018 L12.651575121090033 6.349194810700045 L12.652246915090032 6.327697414700001 L12.675294603089995 6.28676967969999 L12.677800911090074 6.272093573699994 L12.672219856090052 6.262688462700044 L12.65188518009002 6.250802882700018 L12.627803962090084 6.251009589699979 L12.621654466090021 6.247702297699977 L12.607391772090054 6.2371603047000015 L12.599588630090025 6.233439601700002 L12.54910075509001 6.18362352169996 L12.52145386509001 6.169877589700025 L12.48530620009008 6.174735174700036 L12.45083801909 6.195199041700011 L12.38368449608997 6.215869614700015 L12.346554979090072 6.210081854699954 L12.321698615090028 6.184450343699982 L12.300692146090014 6.153134425699978 L12.27534485609003 6.129776678700029 L12.24909322808999 6.123162095699943 L12.22341004109002 6.122852036700042 L12.197416795090035 6.1197514507000115 L12.170338345090002 6.1049719906999975 L12.15015869809001 6.090812648699956 L12.117809252090026 6.05556932269997 L12.099774177090026 6.040169745699988 L12.082565925090037 6.0339685736999975 L12.062205410090016 6.030247870699984 L12.045565600090086 6.025080226699988 L12.039183560090052 6.01422817570003 L12.036341356090091 6.015261704700013 L11.995594490090028 6.020532700699949 L11.98466492409004 6.024253404700051 L11.974381314090053 6.02931769470003 L11.965983894090058 6.03603563069996 L11.957483121089965 6.050091620699977 L11.947225349089976 6.085128241699994 L11.939758105090036 6.100941229700002 L11.924022631090068 6.117891099700007 L11.847128099090057 6.176802231700012 L11.80617452709005 6.198713039700056 L11.796562710090043 6.20739467970002 L11.788682054089989 6.208118149700017 L11.770931200089976 6.208634913699957 L11.754317227090056 6.202640447700023 L11.709462084089964 6.177215643700013 L11.695897020089987 6.165123357700029 L11.687137865090008 6.144142726700029 L11.690884406090035 6.127089504699999 L11.823124396090051 5.951699692700036 L11.834157315090053 5.929582179700038 L11.788010261090008 5.935266587699989 L11.744705410090049 5.948082342699966 L11.709823819089976 5.944361639699952 L11.688662320090017 5.900126613699943 L11.688739834090043 5.890824855700007 L11.692589729089988 5.8718079286999405 L11.692253832090003 5.862402817699991 L11.686827806090022 5.849587063700003 L11.670368863090047 5.826952785699962 L11.665356249089982 5.814550441699982 L11.667135432090035 5.7961655547 L11.667216601090004 5.7953268096999615 L11.675846564090037 5.770212062700029 L11.687447924089994 5.7460274926999695 L11.69835165109005 5.72990444569999 L11.713286140090005 5.71925910069999 L11.731734626090017 5.713884751700025 L11.751965949090007 5.712437811700031 L11.772326464090057 5.713574693699957 L11.792971198090058 5.720085923700015 L11.835165005090019 5.742720200699967 L11.853923550090016 5.746544256700009 L11.874800829090091 5.736312323699938 L11.89162150709005 5.7155383976999765 L11.906142585090024 5.692387355699996 L11.920353604090067 5.674817368699923 L11.998281664090044 5.639057277699994 L12.014172166090063 5.621177231699949 L12.014355494090026 5.611827494699956 L12.014378872090006 5.610635240699981 L12.008332730089975 5.604744126699973 L11.999366869090025 5.598956366699998 L11.990659390090073 5.588827784699962 L11.987972216090029 5.580249497700013 L11.987972216090029 5.5617493347 L11.98670614308999 5.552757636699955 L11.977869473089996 5.532603827699976 L11.957793179090046 5.500564438699971 L11.95311646209008 5.480410630699996 L11.954976814090074 5.472762518700012 L11.95924011909004 5.465837876700025 L11.962573249090028 5.458086411700027 L11.961565559089976 5.448267889699967 L11.955441902090016 5.429561020699982 L11.95448588709003 5.421809556699973 L11.95448588709003 5.411784328699955 L11.956139534089985 5.40299933469996 L11.962650764089958 5.383568996699982 L11.964226895089993 5.373647121699992 L11.96303833708997 5.362691717700006 L11.95730225309002 5.34357143770001 L11.957147224090065 5.332409328699985 L11.954434211090032 5.323004217700021 L11.945752571090068 5.318973456700025 L11.935882372090092 5.315769517700051 L11.929448656090031 5.308844875699979 L11.929526171090046 5.3010934106999805 L11.937303473089983 5.274118312700043 L11.939163825090063 5.254998033699952 L11.939137987090064 5.2451795106999874 L11.936760871090016 5.236291164699967 L11.930352994090086 5.229056463699994 L11.913868212090009 5.22223517469995 L11.907796231090046 5.216654120700031 L11.90554830609004 5.195776840699967 L11.911646125090002 5.175002915700009 L11.91376485909008 5.157536281699965 L11.899683031089964 5.146684230700021 L11.861804206089957 5.136659002699989 L11.84552613009005 5.128184067699994 L11.838700621419505 5.124629211215439 L11.836544393089994 5.117457336700017 L11.835323690089993 5.109970357699996 L11.83837544809002 5.099716451699994 L11.851803182090023 5.091659810699998 L11.857988078090003 5.0798596807000145 L11.862952271090037 5.065862284699978 L11.872555135090025 5.051864888699999 L11.862423299089997 5.079941060699998 L11.858883260090025 5.08669561770002 L11.865108846089996 5.1072034307000145 L11.877112427089983 5.097926086700017 L11.882727661089987 5.066513326699994 L11.892981568090036 5.051864888699999 L11.920325318090036 5.079208638699999 L11.933915812090007 5.073512024700012 L12.006262818090036 5.058700826699994 L12.018713989089989 5.059921529699995 L12.026933390090008 5.061956034699978 L12.034257609090005 5.062362935699998 L12.043860474090039 5.058700826699994 L12.066646932090023 5.031845357699996 L12.07116353408999 5.027939107699996 L12.108964640090008 4.949325826699994 L12.119544068090036 4.935165670699991 L12.141923625090001 4.939397440699981 L12.14656229709 4.9632418417 L12.139482219089999 5.011012024700012 L12.150224406090004 5.00466436770002 L12.156856893089994 4.9949801236999924 L12.162512818090036 4.983831034699978 L12.170488078090003 4.9730074667 L12.179602661089987 4.9657646287000325 L12.21142232309002 4.94574509770003 L12.226233521090037 4.9285738736999924 L12.235958456089989 4.907659159699978 L12.241451620090018 4.8851168417 L12.246090292090017 4.8465426236999924 L12.262366333089986 4.810409810699998 L12.296017049089997 4.75661749270002 L12.304561971089996 4.736597961700017 L12.294592896090037 4.71918259770003 L12.298214315089993 4.696558899700012 L12.31139790908999 4.657496399700012 L12.313595174089997 4.639918274700012 L12.344845174089997 4.5379488736999924 L12.365963338090026 4.500107076699994 L12.368241984090005 4.493515279699995 L12.378048299089997 4.472112284699978 L12.381751099090039 4.448837545699991 L12.402991333089986 4.390569315699981 L12.414465943090036 4.3733980917 L12.444454549089997 4.3427177537000325 L12.452999471089996 4.32497686770002 L12.454342245090018 4.300888326699994 L12.447913208089986 4.2562105917 L12.434404094089999 4.221298482699996 L12.431148885090025 4.2157646287000325 L12.409257609090005 4.217066711700017 L12.397945760090025 4.216090149700012 L12.389889120090018 4.212183899700012 L12.37780415908999 4.1937105917 L12.358517049089997 4.140081034699978 L12.346025187090007 4.120387024700012 L12.339962362089992 4.10817999270002 L12.338131307090023 4.094019836700017 L12.338985799089997 4.035751607699996 L12.332271932090023 3.9892021287000325 L12.331865031090004 3.976181295699991 L12.338009237089992 3.954208638699999 L12.33959615109002 3.940699524700012 L12.334957479090022 3.934677388699999 L12.333329875090001 3.9306083787000325 L12.320634562090007 3.9135185346999783 L12.317542114089989 3.9107516076999964 L12.316036581089989 3.903915670699991 L12.313066203090003 3.89887009770003 L12.310787557090023 3.8920341596999783 L12.31139790908999 3.879989888699999 L12.316402792090017 3.8690035606999977 L12.322994588090026 3.860458638699999 L12.325313924089997 3.8514254356999977 L12.317542114089989 3.839137024700012 L12.333004354090022 3.8228609826999964 L12.348792114089989 3.8182223106999977 L12.36108052609002 3.81097947270003 L12.365963338090026 3.78754197270003 L12.37353169809002 3.7763115037000325 L12.390051880089985 3.768824524700012 L12.406572062090007 3.757756815699981 L12.41381490109002 3.7361096807000145 L12.354488729090022 3.769801086700017 L12.348059693090036 3.774683899700012 L12.34545552609002 3.783472961700017 L12.344845174089997 3.8011324667000004 L12.337520956089989 3.804306295699991 L12.305090943090036 3.8065035606999977 L12.29772603408999 3.81488572270003 L12.296017049089997 3.82269822270003 L12.287472127089998 3.847030904699995 L12.278967896090037 3.8870699667000004 L12.277584432090023 3.915959940699981 L12.28368794809002 3.944931295699991 L12.314124146090037 3.9979098106999977 L12.316402792090017 4.0282646287000325 L12.30085917209 4.2230074667 L12.290279745090018 4.263616190699981 L12.283321737089992 4.274521138699999 L12.25593729709 4.3050387167 L12.246212362089992 4.3113863736999924 L12.230099081089989 4.316269185699998 L12.195431112089992 4.3362887167 L12.181026815089993 4.339299784699978 L12.170976359090005 4.3343355917 L12.165116984090005 4.320907857699996 L12.157141724090039 4.318222310699998 L12.135738729090022 4.320582336700017 L12.128577271090037 4.3181409307000145 L12.115841268089994 4.3083753057000145 L12.110510864089989 4.2919365037000325 L12.12389790908999 4.2763115037000325 L12.153723755089985 4.2562105917 L12.162838338090026 4.2352144986999924 L12.167314250090001 4.220159159699978 L12.177649536089987 4.2112887167 L12.204586385090025 4.208359029699995 L12.210934042090017 4.212509420699991 L12.216915487089992 4.2210543417 L12.224483846089996 4.228785461700017 L12.235673625090001 4.2294365037000325 L12.245235799089997 4.223739888699999 L12.24975240109002 4.21527634770003 L12.249019979090022 4.205022440699981 L12.243079224090039 4.19411749270002 L12.238603312090007 4.215113586700017 L12.22509419809002 4.2107190557000145 L12.201493937090007 4.1878512167 L12.179561971089996 4.1903740037000325 L12.159583130089985 4.200546529699995 L12.145097453090003 4.205022440699981 L12.139482219089999 4.191025045699991 L12.143673299089997 4.169052388699999 L12.162472127089998 4.126327779699995 L12.166744588090026 4.10232061770002 L12.170488078090003 4.089950826699994 L12.179521281090004 4.085068013699999 L12.190914510090025 4.0828707486999924 L12.201493937090007 4.07855759770003 L12.20906229709 4.07074509770003 L12.229407349090039 4.038355774700012 L12.220211385090025 4.0407971807000145 L12.215084432090023 4.0438896287000325 L12.204586385090025 4.054794576699994 L12.196285604090022 4.058212545699991 L12.176021932090023 4.056584940699981 L12.166744588090026 4.0575615037000325 L12.155432739089989 4.0652926236999924 L12.14656229709 4.077499654699995 L12.103390096089996 4.188827779699995 L12.035152792090017 4.284449524700012 L12.004309693090036 4.317815409699978 L11.971838989089989 4.331894185699998 L11.964352010090025 4.344996399700012 L11.956865031090004 4.3543551236999924 L11.947628377089998 4.35980759770003 L11.938066203090003 4.359644836700017 L11.932857870090018 4.355575826699994 L11.929114380089985 4.3493909307000145 L11.924068807090023 4.3427177537000325 L11.909420370090018 4.336207336700017 L11.899817505089985 4.343694315699981 L11.896318156090004 4.3602144986999924 L11.899817505089985 4.380315409699978 L11.903642375090001 4.38324509770003 L11.930904745090018 4.4109957486999924 L11.934404094089999 4.419296529699995 L11.935177206089989 4.4306083787000325 L11.933997193090036 4.452255513699999 L11.923946737089992 4.46137009770003 L11.900997518089994 4.458277649700012 L11.858883260090025 4.4417574667 L11.816646932090023 4.405868795699991 L11.801917114089989 4.397568013699999 L11.788977661089987 4.384872701699994 L11.783118286089987 4.380315409699978 L11.776852010090025 4.378525045699991 L11.759029745090018 4.376083638699999 L11.749630331089989 4.37347947270003 L11.711544393089994 4.349065409699978 L11.605343221089996 4.223984029699995 L11.522783000090001 4.14691697270003 L11.490565176090016 4.136427586700012 L11.461376728090002 4.1223885116999845 L11.428913893090012 4.123489310700013 L11.375973104090022 4.10590134770003 L11.357540487089992 4.097519185699998 L11.315507609090005 4.060409810699998 L11.29345357309002 4.052027649700012 L11.277706502089998 4.052190409699978 L11.265784302089983 4.049911763699999 L11.258215943090036 4.040878560699998 L11.252315877089998 4.007105774700012 L11.24462544809002 3.9920504356999977 L11.22826802609002 3.968694315699981 L11.214433390090008 3.954452779699995 L11.177364706089989 3.9247490037000325 L11.173255005089985 3.9183199667000004 L11.168534953090003 3.907821920699991 L11.166419068090036 3.898056295699991 L11.170243937090007 3.893661763699999 L11.17821919809002 3.895614888699999 L11.181881307090023 3.8998466596999783 L11.183997193090036 3.904566711700017 L11.187333781090004 3.907333638699999 L11.212765096089996 3.913437154699995 L11.224768677089983 3.9141695766999938 L11.230099081089989 3.917343404699995 L11.235133982090034 3.934408348700021 L11.248142969090011 3.9484645737000115 L11.273086365090037 3.9473899387000024 L11.308856738090029 3.934432453699987 L11.359767759090019 3.893399476700001 L11.398726931089996 3.8739749706999937 L11.43445009809001 3.8340461657000056 L11.441982631090028 3.7746287316999947 L11.427876979090016 3.74433358569998 L11.419918417090017 3.713160461700017 L11.416907349090039 3.705022440699981 L11.421352483090018 3.694590021699998 L11.432170416090017 3.6924381797000088 L11.44624424409001 3.684901234699982 L11.449215292090017 3.6605074667000004 L11.446407674089997 3.6351168417000004 L11.418857014090023 3.5286793946999815 L11.403805135090025 3.486597961700017 L11.397294719089999 3.468124654699995 L11.388505656090004 3.452743795699991 L11.379065552089983 3.4412691856999977 L11.367184042090017 3.4227144986999924 L11.343665161089987 3.3646904096999783 L11.329911906090004 3.346949524700012 L11.325354614089989 3.3340914516999938 L11.323849081089989 3.319443013699999 L11.32787740109002 3.3080497846999783 L11.362939732090027 3.2833863107000134 L11.358639120090018 3.260035461700017 L11.358883260090025 3.2310641076999964 L11.367908493090013 3.222752903700002 L11.379804789089988 3.2119363166999797 L11.392059571090002 3.2088381537000323 L11.408567623090008 3.2089615106999823 L11.412895142090022 3.1960117607000207 L11.412386447090014 3.18173315970002 L11.414522413089983 3.1622628197000218 L11.419646826090016 3.144991088700028 L11.415139128090019 3.1220185836999867 L11.419413251090035 3.107728186700019 L11.436766351090014 3.099293525699995 L11.435172952090014 3.0749049397000086 L11.405388398090011 3.033674274700008 L11.345840176090022 2.962366134700023 L11.297278443090036 2.876897440699981 L11.276180711089992 2.825910072699987 L11.263249070090026 2.7966563257000026 L11.269818373090018 2.7760466096999785 L11.281890402089985 2.7640044667000048 L11.29591639009 2.7521410116999796 L11.308917450090021 2.738068147700023 L11.316558073090007 2.7282824456999784 L11.324138374090026 2.7185450207000095 L11.337069631090017 2.7045293486999817 L11.348983546089997 2.6904624806999955 L11.352242912090006 2.6818047476999887 L11.363064089090031 2.677475114699991 L11.377150016090027 2.6817678916999803 L11.391224862089999 2.6817465807000254 L11.405291186089997 2.673087657699984 L11.41826242709 2.667682283700021 L11.433406892089991 2.6709059466999925 L11.445291865089999 2.666585014700008 L11.457184111090001 2.6622570716999867 L11.455054619090006 2.6710168687000255 L11.473427323090007 2.6796467036999907 L11.488554357089996 2.680720300700006 L11.500466912090033 2.6703930307000014 L11.50802923309 2.66715207170002 L11.515587618090038 2.6574360147000284 L11.526387568090016 2.6541962207000047 L11.536107445090025 2.6682295127000266 L11.544748672090023 2.670385855699994 L11.563108889090032 2.6725396546999782 L11.587944580089996 2.6628197756999903 L11.609546153089994 2.6433741286999926 L11.632217326089986 2.6196213087000224 L11.646602987089992 2.5573987427000198 L11.650387167090017 2.5378674927000198 L11.663517374090034 2.473221624700006 L11.68186766209 2.423569102700032 L11.70452980508999 2.378245002700016 L11.716956177089983 2.3490654096999783 L11.721819419089982 2.3436752357000223 L11.730460191090017 2.337191710700001 L11.744498290090021 2.33502961670003 L11.757437641090021 2.3307312907000046 L11.759590595090017 2.3566445367000206 L11.773604685090007 2.3771655827000195 L11.800631225090015 2.3890169777000274 L11.82655765709002 2.3922494136999894 L11.880422338090014 2.3933601787000107 L11.88043323809002 2.381486746699995 L11.852479755089988 2.3738907716999798 L11.822253723090014 2.3674095257000154 L11.801728390089991 2.3674152586999817 L11.787692059089991 2.3566182307000254 L11.776890878090015 2.3285497507000237 L11.763869647090033 2.3048850276999993 L11.749846291090037 2.299482298700031 L11.74230386809002 2.2886696727000135 L11.741210468090017 2.2649568386999768 L11.73045271609 2.236806602699989 L11.727372844089999 2.2078707486999924 L11.713190378090033 2.176302267700027 L11.69483277909002 2.154722341700012 L11.682965740089983 2.1125056107000155 L11.693778856089992 2.0983520487000256 L11.714273137090018 2.096385484699983 L11.746704548090023 2.0703185817000254 L11.77795982309 2.0230511277000183 L11.788082479090022 2.005478170699991 L11.790645956089989 1.9919690557000143 L11.799546338090025 1.9701473756999979 L11.80819695308999 1.953962060700025 L11.829771081089987 1.946396040700012 L11.842734041090026 1.9258875897 L11.855734036089999 1.9043041657000292 L11.874078832090007 1.9204984937000125 L11.895706609089999 1.909706504700029 L11.919486032090006 1.8913500197000024 L11.947581428090032 1.8708302987000314 L12.007094676090006 1.806008060699998 L12.054602661089987 1.7447359826999962 L12.071529745090018 1.7240654096999781 L12.07860982309002 1.7042086386999988 L12.080644328090003 1.691920227700013 L12.085608521090037 1.6876884566999768 L12.092159627089998 1.6855318807000292 L12.112970331089983 1.6789217787000046 L12.128080196089982 1.641139096700005 L12.136708811090003 1.6076713567000132 L12.142452596089996 1.5551607877000213 L12.141028443090036 1.5311129356999975 L12.133215943090036 1.4885103967000253 L12.13093729709 1.412826802700028 L12.140051880089985 1.386418925700031 L12.14037740109002 1.3777926236999922 L12.142900187090007 1.3740491337000156 L12.153723755089985 1.3792574667000002 L12.158321737089992 1.3842216596999781 L12.162105917090017 1.391586568700024 L12.166744588090026 1.4066012167000002 L12.174190877089998 1.4066012167000002 L12.175696411089987 1.3940686647000182 L12.185950318090036 1.3744967247000266 L12.188473104090022 1.3656669727000297 L12.186113078090003 1.3530123497000266 L12.180294393089994 1.3442232877000213 L12.166744588090026 1.3309176236999922 L12.142981568090036 1.291977193700024 L12.135860799089997 1.272201802700028 L12.133215943090036 1.2520602016999935 L12.136064250090001 1.2299247846999781 L12.142981568090036 1.218450175700031 L12.151852010090025 1.2090100717000103 L12.160519002089998 1.1931002407000226 L12.162472127089998 1.1722262167000002 L12.157060344089999 1.151962545699991 L12.149898885090025 1.1345064907000226 L12.14306294809002 1.1059013477000297 L12.134029745090018 1.0939791467000253 L12.11999165908999 1.086451477700013 L12.101925252089998 1.0838473106999975 L12.089107870090018 1.0789644986999922 L12.080237427089983 1.066920227700013 L12.074459432090023 1.0514579876999794 L12.07116353408999 1.0360771287000323 L12.07079732309002 0.9930269986999922 L12.082149862089992 0.9507906706999909 L12.10359354709 0.9149833787000323 L12.133215943090036 0.8914644986999922 L12.150305786089987 0.900090800700031 L12.164954224090039 0.9018404747000266 L12.19811665908999 0.8989107877000213 L12.213009237089992 0.8946383266999935 L12.232662557090023 0.8763277796999949 L12.246212362089992 0.8721773886999988 L12.260494588090026 0.8698987427000195 L12.285559693090036 0.8600924277000279 L12.31725728408999 0.85472133470002 L12.336096802089983 0.8405611777000279 L12.348629354090022 0.8373873497000266 L12.356034953090003 0.833684550700031 L12.38647115109002 0.8095146287000323 L12.393673299089997 0.8019462686999821 L12.406490682090023 0.7833102016999935 L12.41381490109002 0.7759859826999962 L12.437618612089992 0.7651624147000182 L12.497473755089985 0.7462008266999935 L12.523678182090023 0.727524068700024 L12.52904927609002 0.7377779747000266 L12.529456177089983 0.7469332486999922 L12.509355265090008 0.8095146287000323 L12.513993937090007 0.8244478967000253 L12.522294719089999 0.8331962686999821 L12.532792765090008 0.8404391076999962 L12.544104614089989 0.8510592247000266 L12.557532349089982 0.8781995247000116 L12.564571737089992 0.8858492636999988 L12.548214315089993 0.8410087686999821 L12.535315552089983 0.8300631307000292 L12.531124471089996 0.8237154747000266 L12.531165161089987 0.8181409307000143 L12.536292114089989 0.8089449667000002 L12.537268677089983 0.8032483527000129 L12.535763143089994 0.7781832486999922 L12.538001099089982 0.7591402796999949 L12.546749471089996 0.745102193700024 L12.564571737089992 0.7350517376999794 L12.607662557090023 0.7474215296999949 L12.654944458089986 0.7206881307000292 L12.722896932090023 0.6586764127000213 L12.744381307090023 0.6531018677000195 L12.814775187090007 0.6586764127000213 L12.823482870090018 0.6566012167000002 L12.846269328090003 0.6476493936999821 L12.856034953090003 0.6456148886999988 L12.883378703090003 0.6461031706999909 L12.895992635090025 0.6440279747000266 L12.907223104090022 0.6381685997000266 L12.931270956089989 0.6508639127000213 L12.959591268089994 0.6469169727000297 L12.988277792090017 0.6369885867000169 L13.013668417090017 0.6313326627000213 L13.03210103408999 0.6215670377000213 L13.107581177089983 0.5215914516999935 L13.122188924089997 0.5136161906999808 L13.146847127089998 0.5220797326999962 L13.166378377089998 0.5383557747000116 L13.178951620090018 0.5588228967000253 L13.185665487089992 0.58323695970002 L13.187740682090023 0.6114352016999935 L13.206865031090004 0.6013033657000226 L13.21728169809002 0.5864514777000129 L13.221676229090022 0.5677340296999949 L13.224850057090023 0.5237887167000002 L13.231034953090003 0.5123141076999962 L13.239905396090037 0.50315883470002 L13.25048482309002 0.487981425700031 L13.253780721089996 0.4965263477000297 L13.259640096089996 0.5004732877000213 L13.267737427089983 0.4998629356999975 L13.277747193090036 0.49481736269997945 L13.286780396090037 0.4863538217000103 L13.288204549089997 0.47927374270001954 L13.287756958089986 0.4714205527000279 L13.291419068090036 0.46067836570002263 L13.307735799089997 0.44216436770001954 L13.324378052089983 0.4394788217000103 L13.366573690089993 0.4538424277000279 L13.359290161089987 0.43939744069998077 L13.341386515090008 0.43467738869999883 L13.320471802089983 0.4325615037000323 L13.30443990109002 0.42588832669999355 L13.297481893089994 0.41185024070002263 L13.300940552089983 0.3986666467000253 L13.309729614089989 0.3869885867000169 L13.347083130089985 0.3497978316999768 L13.352861125090001 0.3365328576999962 L13.35241353408999 0.32139613869999883 L13.348873495090018 0.3078056436999821 L13.350745239089989 0.29681931569998077 Z M12.119544068090036 4.393905904699995 L12.16491353408999 4.3953707486999924 L12.233639120090018 4.437769836700017 L12.276607870090018 4.448593404699995 L12.275020956089989 4.456324524700012 L12.272213338090026 4.463485982699996 L12.268185018089994 4.469996399700012 L12.262935995090018 4.475937154699995 L12.251786906090004 4.4852958787000325 L12.201493937090007 4.506943013699999 L12.198320109090005 4.515732076699994 L12.184241333089986 4.529159810699998 L12.181026815089993 4.534530904699995 L12.174963989089989 4.549911763699999 L12.166744588090026 4.5652926236999924 L12.158443807090023 4.5740003057000145 L12.15632792209 4.574163065699981 L12.145720073090004 4.5923584327000135 L12.133713750090024 4.616364494700026 L12.121105304090023 4.639170452700018 L12.114500103090009 4.655375150699985 L12.098276707090022 4.661983217699987 L12.085057679089985 4.6769932136999905 L12.085666032090003 4.700398396700013 L12.070431112089992 4.714706685699998 L12.064327596089996 4.729110982699996 L12.048396168090008 4.752052409700031 L12.012610474090039 4.74847947270003 L11.99267232309002 4.7601168417 L11.975704549089997 4.765243795699991 L11.951331177089983 4.763290670699991 L11.927852987089992 4.757187154699995 L11.913489380089985 4.749618795699991 L11.907575506089998 4.727536792700011 L11.913631028089995 4.6920848107000275 L11.91722549808999 4.57197957270002 L11.92077290908999 4.558456685699998 L11.954464315089993 4.4964449667 L11.968746542090017 4.4559990037000325 L11.983028768089994 4.44574509770003 L12.043860474090039 4.4280855917 L12.098547974090039 4.400985982699996 L12.119544068090036 4.393905904699995 Z M2.5181443280900027 3.0712333787000325 L2.544755656090004 3.0799410606999977 L2.564856568090036 3.101181295699991 L2.5661586510900207 3.1228284307000145 L2.536129354090022 3.132756815699981 L2.5033331300899846 3.1286878057000145 L2.422522583089986 3.091741190699981 L2.4430303960900375 3.0712333787000325 L2.4587367760900207 3.0743258266999938 L2.5057338460899956 3.0736747846999783 L2.5181443280900027 3.0712333787000325 Z M1.7987432860899872 2.985621399700012 L1.8008998620899916 2.9883883266999938 L1.8055792240900388 2.991562154699995 L1.8104213460899956 2.996038065699981 L1.8130662030900027 3.003036763699999 L1.8123744710899956 3.0098727016999938 L1.809933065089993 3.0137789516999938 L1.8074509690899987 3.0165458787000325 L1.806230265090008 3.019801086700017 L1.8035447190899987 3.0235445766999938 L1.7904425050899846 3.027288065699981 L1.7857224530900027 3.0296480917000004 L1.7846645100900247 3.0340426236999924 L1.7865362550899846 3.046168274700012 L1.7857224530900027 3.050725565699981 L1.7801072190899987 3.0569918417000004 L1.747310995090018 3.0770927537000325 L1.7408005780900027 3.07855759770003 L1.704220174089997 3.0731865037000325 L1.6899379480900194 3.062769836700017 L1.6762660730900194 3.0494234826999964 L1.655392049089997 3.037053690699981 L1.6646287030900027 3.026718404699995 L1.673214315089993 3.0135348106999977 L1.6795619710899956 2.999293274700012 L1.686194458089986 2.9691012167000004 L1.695960083089986 2.953394836700017 L1.7075160730900194 2.9478609826999964 L1.71687479709 2.962021138699999 L1.7367315680900361 2.9568128057000145 L1.7640753180900361 2.962265279699995 L1.788326620090018 2.9735771287000325 L1.7987432860899872 2.985621399700012 Z M2.8713344320900234 2.4167737427000198 L2.883785604090022 2.4245862427000198 L2.8968471270899983 2.4244234826999964 L2.909990031090004 2.4193779096999783 L2.9222377520899983 2.4127047326999964 L2.9246384690899987 2.450302388699999 L2.9062465420900168 2.4910738736999924 L2.8773158770899983 2.5271253057000145 L2.84773417209 2.5505628057000145 L2.812130331089989 2.5608980917000004 L2.8067592370899916 2.5672457486999924 L2.8048468020899833 2.57660447270003 L2.7930873620899916 2.605738586700017 L2.772823690089993 2.6361747846999783 L2.759395956089989 2.6504977016999938 L2.7447068280900027 2.660426086700017 L2.7291225180899943 2.665390279699995 L2.713863729090022 2.667099263699999 L2.6798061120899916 2.6666109826999964 L2.6694301350900247 2.669866190699981 L2.6486781820900234 2.6844332486999924 L2.63484354709 2.687769836700017 L2.6251186120899916 2.684840149700012 L2.6035121670900168 2.671168274700012 L2.5938686120899916 2.6666109826999964 L2.558224081089989 2.661402649700012 L2.549475708089986 2.6570081177000198 L2.5480108640899886 2.647812154699995 L2.554317831089989 2.6370699667000004 L2.5665248620899916 2.622177388699999 L2.5748256430899943 2.6142021287000325 L2.614620565089993 2.595321920699991 L2.6280076090900053 2.5847424927000198 L2.6385463460899956 2.5505628057000145 L2.6489223230900194 2.5494234826999964 L2.6905076090900053 2.539332336700017 L2.7022263590900053 2.5279391076999964 L2.7174037680899943 2.4958753057000145 L2.726396281090004 2.484319315699981 L2.7528041590899903 2.45941697270003 L2.7583787030900027 2.4509534307000145 L2.7661912030900027 2.444605774700012 L2.8022426350900247 2.4314221807000145 L2.8129848230900194 2.4207613736999924 L2.8282436120899916 2.4200289516999938 L2.859208781090004 2.4118909307000145 L2.8713344320900234 2.4167737427000198 Z M1.9874639890899886 2.2693941856999977 L1.9988979090899903 2.2796480917000004 L1.9964565020899983 2.30316697270003 L1.9837205000900013 2.345077779699995 L1.984208781090004 2.3568779096999783 L1.989824015090008 2.3714449667000004 L1.991207479090022 2.3826754356999977 L1.9888474530900027 2.3855237427000198 L1.9802211510900207 2.407496399700012 L1.9806280520899833 2.4127047326999964 L1.963863729090022 2.4193779096999783 L1.9517787680899943 2.4350029096999783 L1.941240031090004 2.453394836700017 L1.929073690089993 2.468043274700012 L1.9199184170900168 2.4744723106999977 L1.9146693930899943 2.476181295699991 L1.8658005780900027 2.4749605917000004 L1.8608363850900247 2.4782971807000145 L1.8555873620899916 2.497991190699981 L1.8423630780900027 2.508082336700017 L1.8246221930900361 2.511012024700012 L1.806230265090008 2.5095471807000145 L1.772131958089986 2.4978284307000145 L1.7505662030900027 2.4935966596999783 L1.7438930260900207 2.48871384770003 L1.7391322840899903 2.4838310346999783 L1.7338832600900247 2.481715149700012 L1.726396281090004 2.4749605917000004 L1.7050746670900168 2.4437105917000004 L1.6963669840900053 2.433863586700017 L1.6817592370899916 2.435491190699981 L1.663082479090022 2.4310966596999783 L1.645626424089997 2.422958638699999 L1.6348842370899916 2.4127047326999964 L1.6331752520899983 2.400009420699991 L1.6348842370899916 2.3513440557000145 L1.6407436120899916 2.325302388699999 L1.6518520100900247 2.301051086700017 L1.6663376870900066 2.2798922326999964 L1.6820440680900361 2.2631279096999783 L1.6917283120900066 2.2566174927000198 L1.7188686120899916 2.2449801236999924 L1.7304652920900168 2.2420504356999977 L1.7413702390899886 2.242457336700017 L1.7639125570900234 2.2479098106999977 L1.7714809170900168 2.2488863736999924 L1.7809210210900375 2.2462008266999938 L1.7923142500900013 2.2386324667000004 L1.7987432860899872 2.2357841596999783 L1.893551229090022 2.22504197270003 L1.9154425050899846 2.214137024700012 L1.9209763590900053 2.2162529096999783 L1.9269171140899886 2.2196708787000325 L1.9324509690899987 2.223902649700012 L1.9366013590900053 2.2283785606999977 L1.9387986250900013 2.2381441856999977 L1.9378627520899983 2.249618795699991 L1.938839315089993 2.259140279699995 L1.9464483640899886 2.2631279096999783 L1.956661581089989 2.2640230917000004 L1.9763149010900207 2.2684176236999924 L1.9874639890899886 2.2693941856999977 Z M0.778316854090022 2.18402634770003 L0.768551229090022 2.1895602016999938 L0.6993780520900401 2.2173922326999964 L0.6820033770899983 2.2210543417000004 L0.6718715420900168 2.2215426236999924 L0.6624721270899983 2.218368795699991 L0.6412318930899943 2.204208638699999 L0.6227178960900375 2.199488586700017 L0.592769979090022 2.187444315699981 L0.5880499270900401 2.186793274700012 L0.5775518800899846 2.1880953576999964 L0.5729132080899859 2.187444315699981 L0.5680303960900375 2.1839449667000004 L0.5678676350900247 2.180771138699999 L0.5686000570900234 2.177353170699991 L0.5660772710900375 2.173121399700012 L0.54890604709 2.1551363736999924 L0.5357631430899943 2.134709940699981 L0.5274623620899916 2.1122490037000325 L0.5207484950900181 2.066350565699981 L0.5080531820900234 2.028671529699995 L0.5108607990899969 2.01605759770003 L0.5984665940899987 2.0183362427000198 L0.6356166590899903 1.9993746546999949 L0.6821254480900194 1.9887138477000297 L0.7052374270900401 1.9804130656999808 L0.7120326740899969 1.9815523886999988 L0.7237514240899969 1.9887138477000297 L0.758541463090026 2.0241956177000198 L0.7678188070900234 2.02972947270003 L0.7799037680899943 2.039006815699981 L0.782589315089993 2.060165670699991 L0.778316854090022 2.0980074667000004 L0.778316854090022 2.18402634770003 Z M1.6144171140899886 2.01605759770003 L1.627926229090022 2.02387009770003 L1.6212530520899833 2.0419365037000325 L1.6001755780900027 2.074163065699981 L1.5926479090899903 2.094833638699999 L1.5745408120900066 2.100937154699995 L1.5519171140899886 2.0980074667000004 L1.509151815089993 2.085068013699999 L1.4393682860899872 2.085068013699999 L1.4200404870899916 2.0789644986999924 L1.4022589110899872 2.0678154096999783 L1.383541463090026 2.061793274700012 L1.3612025960899956 2.07074509770003 L1.3473272710900375 2.053818013699999 L1.340816854090022 2.0281832486999924 L1.3304815680900361 2.0067802537000325 L1.3052943930899943 2.00238572270003 L1.3477748620899916 1.9437919727000297 L1.350338338090026 1.9304456177000195 L1.3443568930899943 1.9127047326999962 L1.3526169840900053 1.8952893677000195 L1.3690557860899872 1.882431295699991 L1.3878546140899886 1.8788505656999808 L1.3950974530900027 1.8841402796999949 L1.398067831089989 1.8837333787000323 L1.402177531090004 1.8788505656999808 L1.4218715420900168 1.8929293417000002 L1.4901088460899956 1.9159599406999808 L1.5144822190899987 1.9198661906999808 L1.54695292209 1.9323987427000195 L1.598995565089993 1.9908297326999962 L1.6274379480900194 2.0092216596999783 L1.6231654870899916 2.01019822270003 L1.6205206300899846 2.0115816856999977 L1.6144171140899886 2.01605759770003 Z M1.3679978440899987 2.4617769986999924 L1.3773158770899983 2.4666598106999977 L1.383460083089986 2.4666598106999977 L1.3868373620899916 2.470077779699995 L1.3878546140899886 2.4851331177000198 L1.38289042209 2.4910738736999924 L1.358761190089993 2.5009208787000325 L1.350338338090026 2.505803690699981 L1.3189662680899943 2.603785461700017 L1.3228725180899943 2.628280904699995 L1.3207973230900194 2.6465914516999938 L1.2991501870900066 2.639918274700012 L1.2875128180900361 2.6566012167000004 L1.2618780520900401 2.6853284307000145 L1.250728963090026 2.701441711700017 L1.2338018800899846 2.693629211700017 L1.2172816980900194 2.6920016076999964 L1.1855434170900168 2.694605774700012 L1.1663783770899983 2.6998141076999964 L1.1342738850900247 2.7234143677000198 L1.0196498620899916 2.761337545699991 L0.997433065089993 2.7559664516999938 L0.982011515090008 2.7606865037000325 L0.892167765090008 2.747991190699981 L0.7797003180900361 2.749618795699991 L0.7586228440899987 2.7429456177000198 L0.7435675050899846 2.7286227016999938 L0.739254354090022 2.718124654699995 L0.7374639890899886 2.7073824667000004 L0.7374232990899969 2.6839449667000004 L0.7336391200900181 2.6726331177000198 L0.724443156090004 2.6697848106999977 L0.7128871670900168 2.6697034307000145 L0.7020229090899903 2.6666109826999964 L0.677120565089993 2.62738572270003 L0.6861944580899859 2.5818128057000145 L0.7135382080899859 2.539006815699981 L0.7435675050899846 2.5095471807000145 L0.8602667240900388 2.433863586700017 L0.8655564370900066 2.425725565699981 L0.8655564370900066 2.419052388699999 L0.868974406090004 2.4144137167000004 L0.8845180260900207 2.4127047326999964 L0.9099086510900207 2.4022066856999977 L0.9446580000900013 2.39301072270003 L0.9564581300899846 2.392847961700017 L0.9674444580899859 2.395859029699995 L0.9737514240899969 2.4001721807000145 L0.978105265090008 2.4041598106999977 L0.9832322190899987 2.4071708787000325 L1.0005662030900027 2.4130302537000325 L1.011349081089989 2.4138440557000145 L1.0216436770900401 2.4099378057000145 L1.0267706300899846 2.403915670699991 L1.036373495090018 2.3890230917000004 L1.0418666590899903 2.386012024700012 L1.042110799089997 2.37543259770003 L1.0511033120900066 2.354599263699999 L1.0650600180899943 2.339137024700012 L1.0799932860899872 2.345077779699995 L1.0919154870899916 2.32855759770003 L1.0926479090899903 2.313583638699999 L1.085201620090018 2.3005628057000145 L1.0725876870900066 2.2898206177000198 L1.059241333089986 2.2835543417000004 L1.0297816980900194 2.274765279699995 L1.0179408770899983 2.2693941856999977 L0.9942592370899916 2.247665670699991 L0.970536906090004 2.2157646287000325 L0.9515346270899983 2.179957336700017 L0.9422165940899987 2.146428690699981 L0.9437221270899983 2.1175387167000004 L0.9407517500900013 2.1072848106999977 L0.9285854090899903 2.0980074667000004 L0.920650838090026 2.0954846807000145 L0.9075486250900013 2.0941012167000004 L0.9012416590899903 2.091171529699995 L0.8977016200900181 2.0868583787000325 L0.8881801350900247 2.07074509770003 L0.8274705000900013 2.038355774700012 L0.8044399010900207 2.013046529699995 L0.805660604090022 1.9813082486999922 L0.7857224530900027 1.9695081177000195 L0.7729457600900247 1.947535461700017 L0.7748988850900247 1.9270276497000116 L0.7988246670900168 1.9198661906999808 L0.780636190089993 1.8939872846999781 L0.7736781820900234 1.879176086700017 L0.7709112550899846 1.8619234826999962 L0.7709112550899846 1.8274182747000116 L0.7698940020899983 1.818629211700017 L0.76570292209 1.8024752407000226 L0.7647263590900053 1.7929537557000292 L0.7561000570900234 1.7597099406999808 L0.7338832600900247 1.7431897587000156 L0.7029994710899956 1.7422131967000103 L0.6684535730900194 1.7553967897000182 L0.6339076740899969 1.7790784307000143 L0.6163295490899969 1.782903300700031 L0.5965134690899987 1.772445943700024 L0.5760463460899956 1.74534633470002 L0.5729132080899859 1.7383883266999935 L0.5750697840899903 1.729680643699982 L0.5806850180899943 1.725326802700028 L0.5882940680900361 1.722275045699991 L0.655880331089989 1.684758768699982 L0.6749639890899886 1.6649833787000323 L0.6821254480900194 1.6250256967000103 L0.706865031090004 1.6329195766999935 L0.7266811120899916 1.6273857227000297 L0.745683390090008 1.6174166467000253 L0.778316854090022 1.60862758470002 L0.7851527920900168 1.600570943700024 L0.79109354709 1.5912529096999781 L0.7988246670900168 1.5840914516999935 L0.8106654870899916 1.5805107227000297 L0.8292201740899969 1.581243143699982 L0.8397589110899872 1.577336893699982 L0.8557908120900066 1.5918225717000103 L0.8633998620899916 1.614853170699991 L0.867021281090004 1.6362154747000266 L0.8708461510900207 1.6455335087000156 L0.8841111250900013 1.6552177537000323 L0.8959112550899846 1.6979423626999794 L0.9046596270899983 1.7076266076999962 L0.910885213090026 1.7118583787000323 L0.9250453700900181 1.7306978967000253 L0.9320033770899983 1.7349703576999962 L0.9534470620900066 1.7358655397000182 L0.9634568280900027 1.737981425700031 L0.9701300050899846 1.741806295699991 L0.9772100830899859 1.759384420699991 L0.9787563070900234 1.783920552700028 L0.976396281090004 1.8305107227000297 L0.994869588090026 1.9421643677000195 L1.0058559170900168 1.9595797326999962 L1.0474818930899943 1.9973401497000116 L1.0513881430899943 2.001897440699981 L1.0522426350900247 2.0076754356999977 L1.0520798750900013 2.0193128057000145 L1.0552943930899943 2.0307060346999783 L1.062333781090004 2.035426086700017 L1.069332479090022 2.037053690699981 L1.0725876870900066 2.0399833787000325 L1.1743943280900027 2.1042737427000198 L1.1817999270900401 2.1153414516999938 L1.1841599530900027 2.124618795699991 L1.1898565680900361 2.132756815699981 L1.202958781090004 2.146428690699981 L1.2074346930900361 2.1492769986999924 L1.223385213090026 2.1532646287000325 L1.2237107340900053 2.1591240037000325 L1.2211879480900194 2.165146138699999 L1.218339640090008 2.170191711700017 L1.2171596270899983 2.173121399700012 L1.2260707600900247 2.211207336700017 L1.2302211510900207 2.2525484826999964 L1.2243617760900207 2.271428690699981 L1.1973842370899916 2.294540670699991 L1.189286906090004 2.3103284307000145 L1.211585083089986 2.2956799927000198 L1.2181768800899846 2.304306295699991 L1.2188686120899916 2.3230237427000198 L1.223385213090026 2.3382418417000004 L1.26570292209 2.3460543417000004 L1.2864548750900013 2.3568779096999783 L1.2848272710900375 2.3792574667000004 L1.2988246670900168 2.381129211700017 L1.3104213460899956 2.3865003057000145 L1.319698690089993 2.3952893677000198 L1.3264125570900234 2.4071708787000325 L1.319576620090018 2.4207613736999924 L1.333004354090022 2.4263766076999964 L1.3679978440899987 2.4617769986999924 Z M1.665645956089989 1.4476168417000002 L1.6559210210900375 1.4440361126999794 L1.646318156090004 1.435816711700017 L1.6385870360899872 1.4267021287000323 L1.6348842370899916 1.4202730917000002 L1.6371221930900361 1.3975680136999988 L1.6529506430899943 1.3808443807000292 L1.6749639890899886 1.370102193700024 L1.6963669840900053 1.3656669727000297 L1.7189906820900234 1.3729098106999975 L1.7429978440899987 1.3845064907000226 L1.762447713090026 1.4002535606999975 L1.7714809170900168 1.4202730917000002 L1.764889120090018 1.4348401497000116 L1.747310995090018 1.4510348106999975 L1.7248500570900234 1.4637301236999922 L1.703772583089986 1.4680432747000116 L1.6917690020899983 1.464055643699982 L1.6786260990900388 1.4504651497000116 L1.665645956089989 1.4476168417000002 Z M1.3816697190899987 1.0776217247000266 L1.4224412030900027 1.1005302537000323 L1.434933065089993 1.14573695970002 L1.4188604740900388 1.177434550700031 L1.3741827390899886 1.1595309046999949 L1.3812628180900361 1.138372050700031 L1.3745082600900247 1.0955660606999975 L1.3816697190899987 1.0776217247000266 Z M13.277747193090036 0.3569592897000182 L13.277909953090003 0.3664807747000116 L13.279293417090017 0.37315395169999355 L13.284013469089999 0.3849540816999768 L13.284990031090004 0.41848272770001294 L13.28014790908999 0.4597018027000279 L13.266923625090001 0.4858655397000182 L13.24303853408999 0.474309550700031 L13.233476359090005 0.4855400186999821 L13.222530721089996 0.49481736269997945 L13.202267049089997 0.4793551236999922 L13.187333781090004 0.46283494069998077 L13.183997193090036 0.44432094370002395 L13.198645630089985 0.4227958787000323 L13.277747193090036 0.3569592897000182 Z M0.3602667240900388 0.34471156870002395 L0.364864706089989 0.3464205527000279 L0.36848612509000134 0.3539482227000297 L0.3666957600900247 0.35874965469999487 L0.36169087708999825 0.36306280570001426 L0.35680806508999297 0.3600924277000279 L0.3541225180899943 0.3541109826999962 L0.35408182809000266 0.34841436770001954 L0.3602667240900388 0.34471156870002395 Z M0.35741841709001676 0.3366549277000279 L0.36189432809000266 0.3363700977000297 L0.35896464009000795 0.33978806569998077 L0.35741841709001676 0.3366549277000279 Z M0.1678432210899956 0.07249477170002527 L0.1733363850900247 0.06675746670000016 L0.17960266108998724 0.07115199869999222 L0.17960266108998724 0.07994106069999751 L0.1727667240900388 0.0815279747000266 L0.1678432210899956 0.07249477170002527 Z M12.359789572090008 4.217042409700031 L12.370422558090027 4.242816222700032 L12.394708378090016 4.251898661700029 L12.406858593090035 4.273118905699977 L12.385623865090011 4.3049720086999805 L12.350727348090018 4.323182195700003 L12.346192608090021 4.367148882700025 L12.321918401090002 4.3823176367000265 L12.30218990709001 4.380809280699982 L12.297628161090032 4.358071361700031 L12.311270544090021 4.320164831699987 L12.332493741090005 4.2655746196999935 L12.359789572090008 4.217042409700031 Z" fill="black" stroke="black" stroke-width="0.5" vector-effect="non-scaling-stroke"/></svg>