<svg xmlns="http://www.w3.org/2000/svg" viewBox="0 0 12.455054559059946 9.855353228159927"><path d="M9.68211650302991 0.5416523620799509 L9.692376933029927 0.568957134079902 L9.731754375029915 0.6743253800799422 L9.763276999029905 0.7586096410799357 L9.801620912029911 0.8456844290799879 L9.852573874029964 0.9618013730799575 L9.914172181029905 1.1018961810800008 L9.935979635029902 1.1814262100800121 L9.93815004602991 1.2227673550799452 L9.944144512029915 1.2397689020799803 L9.960060853029951 1.2585274470799774 L9.969982727029937 1.27092979007994 L9.969776022029897 1.2845206920800294 L9.96026755802999 1.3143896700799402 L9.958510560029914 1.3319596580799313 L9.960680970029934 1.3434835020799412 L9.967605612029992 1.3528886120799015 L10.022175925029934 1.3942814340799643 L10.033234681029946 1.408595807079955 L10.066410950029969 1.4910713920799523 L10.125425436029992 1.6385559300800239 L10.164182760029895 1.7349324760800116 L10.166973288029943 1.7405135310799196 L10.168730286029962 1.7464046440800232 L10.169350404029935 1.752399110079942 L10.168833639029948 1.7585486060799198 L10.17513816402991 1.812860536079988 L10.21895977902998 1.9174019590799887 L10.25813051402995 2.0114013890799285 L10.283865378029908 2.11434084207999 L10.282005026029914 2.183458070079972 L10.289033021029958 2.207384258079962 L10.311874004029939 2.248802919079928 L10.320495008029958 2.2630436360799635 L10.309101780029927 2.2682926590799823 L10.300638238029912 2.2739078930799863 L10.293476780029927 2.280947281079939 L10.286315321029896 2.2903060050799766 L10.280781467029932 2.301984065079985 L10.277526259029948 2.3122786620799687 L10.271911025029944 2.320172542079952 L10.259134332029909 2.3244856930799713 L10.262633681029946 2.3253808750799365 L10.265481988029912 2.3254622550799766 L10.267028212029949 2.326927099079974 L10.266539931029946 2.331972672079992 L10.257995009029948 2.3357161620799687 L10.251403212029949 2.3409244950799533 L10.248961806029946 2.34670249007997 L10.252868056029946 2.3523991040799572 L10.243346571029896 2.3539860180799863 L10.23895204002995 2.356671565079985 L10.239684462029949 2.3605371250799365 L10.246032118029952 2.3654606280799797 L10.234394748029935 2.3752262530799797 L10.211364150029944 2.407005224079974 L10.206481337029949 2.4112369950799533 L10.195739150029944 2.4162418780799797 L10.190774957029909 2.420026058079948 L10.186705946029896 2.4260075030799797 L10.183532118029952 2.4319075680799713 L10.17873068602993 2.4372786620799687 L10.170348525029944 2.441835953079938 L10.170348525029944 2.4479801590799823 L10.179056207029909 2.4617741040799572 L10.175719618029952 2.4760970210799726 L10.167907118029952 2.489972347079977 L10.16278016502995 2.5026269690799907 L10.16278016502995 2.554181331079981 L10.157409071029896 2.5664290520799753 L10.145853082029909 2.575665706079981 L10.134134332029909 2.5827457840799823 L10.128763238029912 2.5886051590799823 L10.12762391502995 2.6026432450799533 L10.123880426029906 2.618634456079981 L10.117614150029944 2.6340560050799766 L10.108336806029946 2.646588558079948 L10.110778212029949 2.6581852370799837 L10.108336806029946 2.718691422079992 L10.11037131102993 2.7282942870799687 L10.120299696029896 2.740664078079938 L10.122496962029949 2.752708349079974 L10.119485894029914 2.764427099079974 L10.11199891502995 2.769960953079938 L10.102884332029909 2.772931331079981 L10.080504775029944 2.7856673340799674 L10.077005426029906 2.7910384270799753 L10.074075738029912 2.804303401079956 L10.074726780029927 2.810406917079952 L10.079772353029945 2.8307519690799907 L10.080911676029906 2.890240901079956 L10.054218967029932 2.90724936507997 L10.054218967029932 2.9135156410799894 L10.057148655029927 2.9225488440799907 L10.060078342029932 2.9361393390799506 L10.060078342029932 2.9507063960799726 L10.054218967029932 2.962506526079956 L10.057799696029896 2.966046565079985 L10.061054905029927 2.970563167079952 L10.067239801029906 2.9824039870799837 L10.058125217029932 2.987775081079981 L10.056578993029952 2.9932682450799533 L10.058776259029948 2.9993717610799493 L10.060485243029952 3.006614599079974 L10.058287978029945 3.0171126460799726 L10.053649306029946 3.0239078930799863 L10.049010634029948 3.028912776079956 L10.046813368029952 3.0339176590799823 L10.041442275029944 3.0516178540799572 L10.018004775029944 3.0807519690799907 L10.004088759029948 3.1269352370799837 L9.96388693602993 3.1804020340799823 L9.951110243029952 3.2089664870799837 L9.950133681029946 3.2116113440799907 L9.95021506102993 3.2141341300799766 L9.949075738029912 3.2156803540799572 L9.94435568602993 3.2151106930799713 L9.957376519029914 3.245791031079939 L9.945332248029935 3.265322281079939 L9.92254579002995 3.2803776200799533 L9.902770400029944 3.2977116040799572 L9.905700087029949 3.29982749007997 L9.906595269029914 3.300275081079981 L9.909036676029906 3.3051578930799863 L9.895446181029946 3.3110579590799674 L9.888040582029909 3.3242008620799837 L9.878600478029945 3.368634456079981 L9.874938368029952 3.3796207840799823 L9.863138238029912 3.396344417079952 L9.861185113029912 3.3969954590799674 L9.85809266502995 3.408388688079988 L9.843932509029948 3.433087581079981 L9.840677301029906 3.4450911620799687 L9.841653863029912 3.46193686507997 L9.84442079002995 3.4749576980799546 L9.848815321029896 3.486025406079939 L9.854349176029906 3.4969303540799572 L9.854349176029906 3.503155940079985 L9.84669943602993 3.519960953079938 L9.854918837029949 3.5349349120799687 L9.868102431029946 3.548688167079952 L9.876891493029952 3.5648014480799546 L9.886250217029932 3.5727360180799863 L9.889098525029944 3.578229183079948 L9.889017144029914 3.585634781079939 L9.886412978029945 3.5898665520799753 L9.883727431029946 3.5927555500799784 L9.882343967029932 3.5959293780799797 L9.88153016502995 3.60842124007997 L9.872404947029942 3.6435438910799647 L9.86051895502991 3.6715578200799612 L9.877792214029945 3.699560818079938 L9.861185113029912 3.7700423340799674 L9.868672092029932 3.777529313079988 L9.842630426029906 3.780987972079977 L9.834492405029927 3.7843652500799365 L9.831237196029896 3.7900211750799784 L9.828144748029935 3.7992985180799863 L9.823750217029932 3.807843440079985 L9.810729384029948 3.8149235180799863 L9.804625868029952 3.8294498860799493 L9.796325087029949 3.8327457840799823 L9.788756728029945 3.833600276079956 L9.774922092029932 3.837628597079977 L9.765075087029949 3.8389713700799533 L9.767109592029932 3.842999690079985 L9.767272353029945 3.8439762530799797 L9.76824891502995 3.8443424640799506 L9.77248068602993 3.8464176590799823 L9.764993707029909 3.8615543780799797 L9.754739801029906 3.891827815079985 L9.745055556029946 3.9010644690799907 L9.738219618029952 3.9010644690799907 L9.73504579002995 3.8957747550799766 L9.726745009029948 3.8932519690799907 L9.720153212029949 3.8886946770799753 L9.713235894029914 3.8947575030799797 L9.706481337029949 3.9169336100799867 L9.697285373029935 3.9283268390799506 L9.705504775029944 3.940655940079985 L9.692890842029932 3.9513981280799797 L9.673278212029949 3.9589664870799837 L9.659850478029945 3.9618554850799867 L9.650573134029948 3.9611637530799797 L9.647887587029949 3.9616113440799907 L9.651875217029932 3.977317724079974 L9.65496766502995 3.9832584790799572 L9.691100478029945 3.9835840000799365 L9.691100478029945 3.9897688960799726 L9.683613498029935 3.9897688960799726 L9.683613498029935 3.9966048340799674 L9.688821832029909 4.000714534079982 L9.692239801029906 4.005312516079989 L9.697285373029935 4.017071956079981 L9.687519748029935 4.012677425079978 L9.683613498029935 4.010276709079967 L9.684996962029949 4.014020198079955 L9.684996962029949 4.01585125307998 L9.68621766502995 4.01662436507997 L9.691100478029945 4.017071956079981 L9.691100478029945 4.024518245079953 L9.683613498029935 4.024518245079953 L9.67873068602993 4.015729183079948 L9.661315321029896 3.994895849079974 L9.642272353029945 3.9771549640799506 L9.633727431029946 3.9709293780799797 L9.623554905029927 3.9663313960799726 L9.608580946029896 3.9618554850799867 L9.512226780029927 3.9524153800799766 L9.488219618029952 3.9385807450799533 L9.421325087029949 3.866437190079985 L9.416198134029948 3.863141292079952 L9.407571832029909 3.8638737140799506 L9.350524306029946 3.8173649250799784 L9.337747613029912 3.811302099079974 L9.324645400029944 3.8105696770799753 L9.31317079002995 3.818463558079948 L9.299336155029927 3.791770849079974 L9.292662978029945 3.7979557450799533 L9.283629775029944 3.7882715000799365 L9.248880426029906 3.7620670730799546 L9.240661025029944 3.7585270340799823 L9.237975478029945 3.757062190079985 L9.234231988029912 3.7526269690799907 L9.230651259029948 3.744082047079992 L9.227477431029946 3.739972347079977 L9.220560113029912 3.735130224079974 L9.212910373029935 3.732281917079952 L9.197122613029912 3.7291080890799506 L9.197692275029944 3.7040836750799784 L9.149759332029909 3.677838558079948 L9.149271051029906 3.6601790520799753 L9.135192275029944 3.6492741040799572 L9.118102431029946 3.628766292079952 L9.106302301029906 3.607119156079939 L9.108336806029946 3.592552099079974 L9.103535373029935 3.5893782710799726 L9.099466363029912 3.587384456079981 L9.096211155029927 3.5843326980799546 L9.094095269029914 3.578229183079948 L9.087828993029952 3.578229183079948 L9.087828993029952 3.5857161620799687 L9.080423394029914 3.5857161620799687 L9.077330946029896 3.5807926590799823 L9.068541884029948 3.5718001460799726 L9.066751519029914 3.5686263180799713 L9.051940321029896 3.5197981930799713 L9.046569228029945 3.512473974079974 L9.039407769029914 3.516827815079985 L9.031676650029944 3.5033593910799894 L9.008157769029914 3.472353531079939 L8.998473525029944 3.4559961100799867 L8.867695530029927 3.3867008620799837 L8.861266493029952 3.376202815079985 L8.856953342029932 3.374860042079952 L8.833922743029952 3.338645849079974 L8.814635634029948 3.3228580890799506 L8.802754123029935 3.3107731280799797 L8.802916884029948 3.3051578930799863 L8.73895204002995 3.263369156079939 L8.728535373029935 3.2536849120799687 L8.724059462029949 3.246197933079948 L8.720885634029948 3.238019222079977 L8.712584853029945 3.2255680500799784 L8.701598525029944 3.2142155110799493 L8.689961155029927 3.2089664870799837 L8.696227431029946 3.2015201980799546 L8.696227431029946 3.2089664870799837 L8.703551650029944 3.2089664870799837 L8.696715712029949 3.1760481930799713 L8.679870009029948 3.1736067870799687 L8.671406467029932 3.186993831079981 L8.689961155029927 3.2015201980799546 L8.673196832029909 3.196515315079985 L8.662454644029914 3.183697933079948 L8.65692079002995 3.165265315079985 L8.652770400029944 3.125104183079948 L8.646341363029912 3.1080957190799907 L8.628600478029945 3.077985042079952 L8.638528863029912 3.058087581079981 L8.651549696029896 3.0120670730799546 L8.662047743029952 2.9892399250799784 L8.649596571029896 2.9759342610799493 L8.643899957029909 2.9680403800799766 L8.638528863029912 2.9479394690799907 L8.631286025029944 2.943097347079977 L8.622496962029949 2.9401676590799823 L8.614765842029932 2.93459311507997 L8.608336806029946 2.916119808079948 L8.605162978029945 2.8716862140799506 L8.601093967029932 2.858868831079981 L8.601093967029932 2.8527246250799365 L8.609801650029944 2.843365901079956 L8.611347873029935 2.834739599079974 L8.607360243029952 2.8117090000799365 L8.605325738029912 2.8064192870799687 L8.601419488029912 2.79201499007997 L8.599629123029935 2.777041031079939 L8.604349176029906 2.7701237140799506 L8.611673394029914 2.763531917079952 L8.60451193602993 2.7500228020799753 L8.592955946029896 2.7389957840799823 L8.586852431029946 2.739728206079981 L8.584817926029906 2.728945328079938 L8.57879579002995 2.7213769690799907 L8.570250868029952 2.718487972079977 L8.560241103029945 2.72170249007997 L8.54982443602993 2.70998374007997 L8.522806207029909 2.697125667079952 L8.51238954002995 2.6882145340799823 L8.499938368029952 2.6630680500799784 L8.498066623029935 2.6571679850799867 L8.494974176029906 2.6517155110799493 L8.480407118029952 2.6415429850799867 L8.476989150029944 2.6367008620799837 L8.473978082029909 2.6349918780799797 L8.457213759029948 2.6124902500799365 L8.45412131102993 2.6106185050799766 L8.445820530029927 2.607281917079952 L8.442890842029932 2.6056950030799797 L8.441263238029912 2.602765315079985 L8.438659071029896 2.5946679850799867 L8.436705946029896 2.591982438079988 L8.39162131102993 2.5510075030799797 L8.375833551029906 2.546490901079956 L8.353535373029935 2.535585953079938 L8.332376519029914 2.5220768390799506 L8.31935568602993 2.5100325680799713 L8.313903212029949 2.494244808079948 L8.30926454002995 2.4736149250799784 L8.302103082029909 2.4556705890799506 L8.289000868029952 2.4479801590799823 L8.279723525029944 2.4447656410799894 L8.273131728029945 2.4368717610799493 L8.252868056029946 2.394025081079981 L8.251159071029896 2.393333349079974 L8.254821181029946 2.3560612140799506 L8.25099631102993 2.3390527500799365 L8.224059462029949 2.3276595210799726 L8.175312717029932 2.2971419430799713 L8.182962457029909 2.2971419430799713 L8.179137587029949 2.2899804850799867 L8.17482443602993 2.286359065079985 L8.169453342029932 2.284772151079956 L8.162291884029948 2.2834700680799713 L8.16473329002995 2.2812321120799837 L8.167418837029949 2.279238297079992 L8.169127821029896 2.275820328079938 L8.168476780029927 2.269269222079977 L8.162291884029948 2.269269222079977 L8.157571832029909 2.2778141430799863 L8.155211806029946 2.2856266430799863 L8.156676650029944 2.292218440079985 L8.162291884029948 2.2971419430799713 L8.148782769029914 2.2971419430799713 L8.156269748029935 2.2603580890799506 L8.157897353029945 2.2135644690799907 L8.146178603029945 2.172630224079974 L8.114603082029909 2.1531803540799572 L8.114603082029909 2.1469547680799863 L8.120625217029932 2.134951188079988 L8.11981141502995 2.120831722079977 L8.11623068602993 2.1060612140799506 L8.114603082029909 2.091738297079992 L8.117044488029912 2.0770084790799572 L8.12567079002995 2.056582047079992 L8.12762391502995 2.047060563079988 L8.126891493029952 2.0302555500799784 L8.124450087029949 2.019472672079992 L8.120543837029949 2.0112532710799726 L8.114603082029909 2.0023014480799546 L8.090189019029914 1.9760156410799894 L8.086771051029906 1.964785172079992 L8.082213759029948 1.958478206079981 L8.05926454002995 1.9378483230799546 L8.038268446029896 1.928937190079985 L8.043314019029914 1.9192122550799766 L8.05373068602993 1.9099349120799687 L8.05926454002995 1.9067610840799674 L8.059101780029927 1.878847672079992 L8.046243707029909 1.8593571120799837 L8.005309462029949 1.8242008620799837 L8.014179905029927 1.8190739090799823 L8.018086155029927 1.814394547079992 L8.017272353029945 1.8096744950799533 L8.011575738029912 1.804303401079956 L8.017272353029945 1.802472347079977 L8.019225478029945 1.800641292079952 L8.017272353029945 1.798769547079992 L8.011575738029912 1.7968978020799753 L8.007506728029945 1.790957047079992 L8.002786676029906 1.7855045730799546 L7.997252821029896 1.7807031410799894 L7.995381077029926 1.7767155110799493 L7.996520400029944 1.7741520340799823 L7.9998569880299115 1.7720768390799506 L8.003844618029952 1.7704492350799867 L8.011575738029912 1.7695540520799753 L8.011575738029912 1.763409847079977 L8.009215712029949 1.7560856280799797 L8.009215712029949 1.7502262530799797 L8.011575738029912 1.741681331079981 L8.005309462029949 1.741681331079981 L7.992370009029948 1.7659733230799546 L7.99123068602993 1.7766341300799766 L7.993834853029945 1.7845280110799493 L7.999368707029909 1.79006186507997 L8.004251519029914 1.7973453930799863 L8.005309462029949 1.8105289870799837 L7.9979038630299115 1.8105289870799837 L7.995543837029949 1.79787436507997 L7.987731337029949 1.7909977370799837 L7.976500868029952 1.7905501460799726 L7.963805556029946 1.7968978020799753 L7.947203993029952 1.7915267090799674 L7.927672743029952 1.802472347079977 L7.910664280029927 1.8209049640799506 L7.901712457029909 1.8378727370799837 L7.900573134029948 1.856223974079974 L7.906676650029944 1.8711165520799753 L7.920755426029906 1.8815332190799907 L7.943297743029952 1.8862532710799726 L7.925312717029932 1.8990299640799506 L7.841735243029952 2.001202815079985 L7.836771051029906 2.0091373860799493 L7.826598525029944 2.0187402500799365 L7.797708551029906 2.064882828079938 L7.791849176029906 2.0811588700799533 L7.791198134029948 2.122540706079981 L7.785338759029948 2.139427099079974 L7.771422743029952 2.1531803540799572 L7.771422743029952 2.1606266430799863 L7.782083551029906 2.168072933079948 L7.793395400029944 2.181826188079988 L7.802428603029945 2.1959049640799506 L7.810566623029935 2.2170231280799797 L7.821471571029896 2.2274804850799867 L7.872415582029909 2.2563297680799863 L7.885110894029914 2.265810563079988 L7.931090712029949 2.3130110840799674 L7.962340712029949 2.3294498860799493 L7.990742405029927 2.3552474120799687 L8.014993707029909 2.3839746250799365 L8.025247613029912 2.4035872550799766 L8.029153863029912 2.4282047680799863 L8.039245009029948 2.4611637530799797 L8.052428603029945 2.491925472079977 L8.066100478029945 2.5100325680799713 L8.066100478029945 2.5162988440799907 L8.062438368029952 2.5341618000799784 L8.089944879029908 2.6324690910799475 L8.092711806029946 2.642316097079977 L8.093444228029945 2.664003922079992 L8.087910373029935 2.6722233230799546 L8.077981988029912 2.6801985840799674 L8.072692275029944 2.6917545730799546 L8.061950087029949 2.696067724079974 L8.058450738029912 2.704938167079952 L8.066100478029945 2.7155175940799907 L8.060973525029944 2.7452213700799533 L8.05926454002995 2.7803776200799533 L8.065856337029949 2.791201188079988 L8.096536676029906 2.8190332190799907 L8.107116103029945 2.8315657710799726 L8.110289931029946 2.8421451980799546 L8.111022353029945 2.86232749007997 L8.114603082029909 2.872540706079981 L8.137226780029927 2.894391292079952 L8.14129579002995 2.8967513180799713 L8.182962457029909 2.94826499007997 L8.218281467029932 2.9537174640799506 L8.240661025029944 2.9749576980799546 L8.254414280029927 3.0052311360799493 L8.299010634029948 3.153546565079985 L8.302672743029952 3.1741764480799546 L8.313333551029906 3.177675797079992 L8.361022353029945 3.2015201980799546 L8.385192275029944 3.2221093910799894 L8.397317926029906 3.23537436507997 L8.406676650029944 3.2532780110799493 L8.416360894029914 3.2565332190799907 L8.427591363029912 3.2588932450799533 L8.436705946029896 3.263613297079992 L8.439961155029927 3.2697575030799797 L8.446797092029932 3.29006186507997 L8.475524306029946 3.3389713700799533 L8.484557509029948 3.3461735180799863 L8.484801650029944 3.3505273600799867 L8.483336806029946 3.351748063079988 L8.480488498029935 3.351666683079948 L8.476989150029944 3.352317724079974 L8.521341363029912 3.384503597079977 L8.540465712029949 3.405987972079977 L8.539082248029935 3.427472347079977 L8.546731988029912 3.433087581079981 L8.553567926029906 3.4443180500799784 L8.558450738029912 3.456769222079977 L8.560241103029945 3.465598974079974 L8.564310113029912 3.468935563079988 L8.586852431029946 3.4969303540799572 L8.634297092029932 3.5417301590799823 L8.645934462029949 3.5631738440799907 L8.655944228029945 3.568463558079948 L8.667418837029949 3.5727767090799674 L8.675719618029952 3.578229183079948 L8.680521051029906 3.5915755370799687 L8.679870009029948 3.6026432450799533 L8.683125217029932 3.6102116040799572 L8.69988954002995 3.613019222079977 L8.716979384029948 3.620709651079956 L8.750182509029948 3.6567203930799863 L8.771911025029944 3.667666031079939 L8.77052756102993 3.673932308079948 L8.771911025029944 3.682070328079938 L8.771911025029944 3.6880924640799506 L8.769876519029914 3.69631186507997 L8.777363498029935 3.7024967610799493 L8.789245009029948 3.705019547079992 L8.79982443602993 3.7024153800799766 L8.808450738029912 3.717226578079938 L8.830423394029914 3.7258528800799766 L8.875508030029927 3.7365543780799797 L8.94630881102993 3.7940494950799533 L8.969176650029944 3.836692724079974 L8.98113954002995 3.8464176590799823 L8.988138238029912 3.8566308750799365 L9.009948134029948 3.9026106930799713 L9.012145400029944 3.9146549640799506 L9.012145400029944 3.9208805500799784 L9.017028212029949 3.9285709790799572 L9.020853082029909 3.9479801590799823 L9.025817275029944 3.9556705890799506 L9.025817275029944 3.9618554850799867 L9.018981337029949 3.9618554850799867 L9.005309462029949 3.9618554850799867 L8.993834853029945 3.9396793780799797 L8.970234592029932 3.9270247550799766 L8.943541884029948 3.918154313079988 L8.922708551029906 3.9072086750799784 L8.915953993029952 3.9072086750799784 L8.909850478029945 3.921490901079956 L8.90724631102993 3.9299137530799797 L8.90919943602993 3.937237972079977 L8.915953993029952 3.9481836100799867 L8.934996962029949 3.965598974079974 L8.945495009029948 3.978009456079981 L8.950052301029906 3.99318686507997 L8.956481337029949 4.001202815079985 L8.970885634029948 3.9973372550799766 L8.985208551029906 3.9914778800799766 L8.991637587029949 3.99318686507997 L8.990172743029952 4.006818050079978 L8.986266493029952 4.021222347079977 L8.979674696029896 4.034609391079989 L8.970560113029912 4.045026058079948 L8.974547743029952 4.048566097079977 L8.979918837029949 4.05491375307998 L8.984231988029912 4.058046891079989 L9.002298394029914 4.069847021079973 L9.008727431029946 4.071718766079989 L9.011657118029952 4.075665706079981 L9.021341363029912 4.094098323079955 L9.025817275029944 4.099632177079975 L9.025817275029944 4.10646811507997 L9.015319228029945 4.098614925079978 L8.991637587029949 4.071718766079989 L8.984231988029912 4.071718766079989 L8.984231988029912 4.07912436507997 L8.987731337029949 4.084454768079986 L8.991637587029949 4.093447281079939 L8.984231988029912 4.093447281079939 L8.977965712029949 4.073916031079939 L8.960306207029909 4.075543636079949 L8.940937717029932 4.089378271079973 L8.930114150029944 4.10646811507997 L8.953470269029914 4.117291683079948 L8.970071832029909 4.136904313079988 L8.998473525029944 4.181582047079992 L8.994567275029944 4.187929703079938 L8.992044488029912 4.195986344079991 L8.990742405029927 4.205507828079938 L8.991637587029949 4.216331396079973 L9.008239150029944 4.227236344079991 L9.051940321029896 4.244977229079957 L9.066751519029914 4.257265641079989 L9.069681207029909 4.266380224079974 L9.07098329002995 4.288312190079985 L9.074157118029952 4.298281266079989 L9.080911676029906 4.306622737079984 L9.097838759029948 4.322776709079967 L9.104918837029949 4.332705094079991 L9.111266493029952 4.352968766079989 L9.118590712029949 4.397402360079987 L9.125426650029944 4.411236995079953 L9.158548394029914 4.439394547079992 L9.197122613029912 4.462750667079952 L9.239440321029896 4.480979834079967 L9.259134332029909 4.493390315079985 L9.27215516502995 4.510520849079974 L9.274271051029906 4.521018896079973 L9.27215516502995 4.558942073079955 L9.269876519029914 4.562278662079969 L9.26076193602993 4.568951839079951 L9.25848329002995 4.572613948079955 L9.259134332029909 4.578473323079955 L9.264098525029944 4.587181005079977 L9.265319228029945 4.593121761079949 L9.26629579002995 4.615216487079984 L9.27052756102993 4.632347021079973 L9.280944228029945 4.646100276079956 L9.299743056029946 4.657941097079977 L9.316914280029927 4.672304703079938 L9.335143446029896 4.69435874007997 L9.34246766502995 4.710960302079975 L9.327493707029909 4.709169938079988 L9.327656467029932 4.725201839079951 L9.33465516502995 4.738873714079951 L9.354674696029896 4.763776058079948 L9.363219618029952 4.778912776079956 L9.375833551029906 4.808535172079992 L9.38543641502995 4.822125667079952 L9.398131728029945 4.8312402500799365 L9.412617405029927 4.838157568079971 L9.424743056029946 4.845685237079984 L9.429870009029948 4.856549495079953 L9.436461806029946 4.888206396079973 L9.437356988029912 4.904156917079952 L9.429870009029948 4.9152246250799365 L9.413431207029909 4.915997737079984 L9.402526259029948 4.906720393079986 L9.393411676029906 4.903302425079978 L9.382018446029896 4.92210125307998 L9.37957704002995 4.935325537079969 L9.37957704002995 4.953107112079984 L9.38153016502995 4.970685237079984 L9.38543641502995 4.983828141079989 L9.385680556029946 5.009747737079984 L9.36590516502995 5.070498063079988 L9.375182509029948 5.099591487079984 L9.389179905029927 5.110089534079982 L9.421569228029945 5.119000667079952 L9.437356988029912 5.127464209079967 L9.447773655029927 5.141461604079957 L9.45770204002995 5.172386084079967 L9.490172743029952 5.210797542079952 L9.504414280029927 5.238222672079992 L9.538593967029932 5.326438818079971 L9.55340516502995 5.352806005079977 L9.573750217029932 5.380800797079992 L9.587096571029896 5.405987972079977 L9.611266493029952 5.438255224079974 L9.695739150029944 5.613629573079955 L9.734801650029944 5.665306005079977 L9.77248068602993 5.751324886079949 L9.851256728029945 5.849957698079955 L9.858743707029909 5.862897151079956 L9.868509332029909 5.891217464079951 L9.935566623029935 5.98146811507997 L9.972024957029909 6.017438167079952 L9.980325738029912 6.028058284079982 L10.067239801029906 6.183697933079948 L10.080911676029906 6.231061214079951 L10.105162978029945 6.273378922079992 L10.115661025029944 6.324404313079988 L10.133727431029946 6.352073584079967 L10.177103082029909 6.401796891079989 L10.183125217029932 6.41428875307998 L10.192565321029896 6.443463558079948 L10.198750217029932 6.457013362079984 L10.228698134029948 6.498720719079991 L10.240661025029944 6.541486018079986 L10.286966363029912 6.61428061507997 L10.372903863029912 6.749737972079977 L10.376810113029912 6.781842464079951 L10.387490969029933 6.808958977079961 L10.403663869029948 6.826690575079972 L10.423522353029945 6.848085953079938 L10.42677756102993 6.8663965000799365 L10.427672743029952 6.903790706079981 L10.43035829002995 6.922548844079991 L10.435973525029944 6.937482112079984 L10.44403016502995 6.948671891079989 L10.455586155029927 6.957949235079987 L10.47137391502995 6.967226578079938 L10.497252821029896 6.988995784079982 L10.514505426029906 7.017682308079948 L10.53778016502995 7.096214209079967 L10.543314019029914 7.109316422079992 L10.560729384029948 7.135439469079991 L10.57977936702995 7.167203078079986 L10.594035370029907 7.178482951079964 L10.59442079002995 7.194602880079977 L10.578210201029925 7.225426440079964 L10.578322124029945 7.252894847079979 L10.619485894029914 7.267438167079952 L10.669220521029935 7.352975458079989 L10.804381728029945 7.447003597079977 L10.825621962029949 7.470319026079956 L10.862410959029923 7.567148297079946 L10.8895026530299 7.5941131940799735 L10.927593808029918 7.644201421079977 L10.944274306029946 7.641868505079977 L10.936847292029917 7.627994496079971 L10.927532261029945 7.614112579079979 L10.937665316029928 7.612563753079947 L10.957954816029918 7.631826340079961 L10.985824577029952 7.642601381079949 L11.02213758702991 7.677264200079954 L11.036491099029924 7.705000335079951 L11.03902614702995 7.734284278079947 L11.069396349029923 7.751236769079988 L11.100615225029948 7.745848779079957 L11.125080559029904 7.752023164079965 L11.151244433029923 7.759746451079941 L11.17233665902993 7.769783945079958 L11.187512535029931 7.784441836079971 L11.208590973029949 7.829189323079966 L11.226300937029897 7.850810292079991 L11.219544471029941 7.860055359079986 L11.204362298029913 7.840751098079984 L11.184121389029919 7.8206779140799725 L11.169777738029929 7.819892657079954 L11.133483974029936 7.8352728820799555 L11.11828609402992 7.842185114079946 L11.09803998502995 7.834452047079942 L11.07951556002994 7.827539313079974 L11.060967644029951 7.82445770807994 L11.047476744029929 7.825999383079939 L11.03229881102991 7.823687848079949 L11.013746740029923 7.816752796079989 L11.00699739402993 7.808276136079947 L10.995543837029949 7.79592124007997 L10.985208551029906 7.792706722079977 L10.984313368029952 7.787620459079967 L10.969040862029921 7.781311283079965 L10.947692275029944 7.775983089079951 L10.938686797029938 7.782100685079975 L10.924987196029896 7.805524104079957 L10.917636806029897 7.835314151079963 L10.924423758029924 7.8831057840799375 L10.915191097029926 7.924753093079978 L10.908533424029919 7.9551862820799855 L10.91698950402995 7.980614456079941 L10.935487000029902 7.984406616079987 L10.943913790029946 7.996722711079947 L10.943087602029927 8.011372131079959 L10.939879775029944 8.018536800079978 L10.941428663029946 8.035269126079989 L10.942281473029915 8.046829667079983 L10.943986368029904 8.069179407079965 L10.939310113029912 8.110618505079977 L10.937438368029952 8.197451188079988 L10.935241103029945 8.213157568079971 L10.925475478029945 8.240948909079982 L10.923196832029909 8.25608562807998 L10.927103082029909 8.270734065079985 L10.936380426029906 8.285870784079982 L10.957946181029946 8.31415040607994 L10.975117405029927 8.343528662079969 L10.981302301029906 8.359112972079977 L10.985208551029906 8.37559246407995 L10.984069228029945 8.42287436507997 L10.991935791029938 8.471012548079962 L11.001159071029896 8.507672542079952 L11.008446069029937 8.540536101079972 L11.054852752029923 8.613808406079961 L10.86297266202994 8.774771163079954 L10.645853332029937 8.96683826207994 L10.779521407090279 8.85146200729124 L10.920431030694637 8.729835174348398 L11.054852752029923 8.613808406079961 L11.068936301029943 8.642175871079992 L11.088407801029952 8.679351723079954 L11.101582248029935 8.770489925079978 L11.108825087029949 8.78648113607995 L11.129070877029939 8.820974823079958 L11.170836806029946 8.869122737079984 L11.197448134029948 8.882672542079952 L11.185403863029912 8.867128922079992 L11.157164931029946 8.821230485079987 L11.176696181029946 8.821800146079973 L11.189472873029935 8.830792659079982 L11.198180556029946 8.845441097079977 L11.204935113029912 8.862815771079973 L11.215677301029906 8.911969417079952 L11.218688368029952 8.919903987079984 L11.23504579002995 8.930524104079957 L11.243346571029896 8.941754573079955 L11.250426650029944 8.954205745079953 L11.263366103029945 8.968284521079973 L11.28131285202992 8.990112005079943 L11.319729458029919 9.01740645607999 L11.35593727202994 9.03098539807997 L11.373961806029946 9.03648113607995 L11.376891493029952 9.040306005079977 L11.389586806029946 9.048606787079969 L11.403258681029946 9.055117203079938 L11.418151259029948 9.059308284079982 L11.473815321029896 9.062929703079938 L11.554381728029945 9.077415380079977 L11.63153016502995 9.101422542079952 L11.659850478029945 9.117657893079986 L11.708434462029949 9.16074871407995 L11.724303603029945 9.18491863607995 L11.730133794029918 9.23110202607996 L11.747181286029935 9.261488591079974 L11.776942609029938 9.285971910079986 L11.808287978029945 9.307843440079985 L11.823663480029929 9.314349795079984 L11.838520341029927 9.32021759407997 L11.835321206029938 9.304530743079972 L11.840624919029928 9.304524378079982 L11.861865269029899 9.32705621907997 L11.856588990029913 9.355495879079974 L11.873588562029944 9.396658344079988 L11.941463922029904 9.425053735079992 L11.974337918029939 9.442696515079952 L11.996604708029942 9.456424743079943 L12.057068710029945 9.503533414079989 L12.14748068602993 9.583966487079984 L12.166523655029927 9.593487972079977 L12.181334853029945 9.592145198079955 L12.185078342029932 9.58616375307998 L12.187031467029932 9.579938167079952 L12.190612196029896 9.576194677079975 L12.198668837029949 9.578147802079975 L12.216002821029896 9.588645849079974 L12.224140842029932 9.595481787079969 L12.229430556029946 9.602317724079974 L12.24318381102993 9.632347021079973 L12.251972873029935 9.644269222079977 L12.267028212029949 9.65724936507997 L12.305705521029928 9.678989341079962 L12.329148419029913 9.68696875307996 L12.332946181029946 9.72324871407995 L12.332213759029948 9.735618505079977 L12.325621962029949 9.746360693079971 L12.317565321029896 9.75645183907995 L12.31740256102993 9.757387711079978 L12.083652161029967 9.757388531079975 L11.85100486302995 9.757440207079974 L11.618357565029932 9.75749188407999 L11.385606914029985 9.75749188407999 L11.152959615029978 9.75749188407999 L10.920208964029918 9.757543560079988 L10.6875616660299 9.757543560079988 L10.454914368029996 9.757543560079988 L10.222267070029979 9.757543560079988 L9.989516419029975 9.757595237079919 L9.756869121029958 9.757646913079945 L9.52422182302994 9.757646913079945 L9.517945015029944 9.75764691307996 L9.509892932627864 9.757646913079945 L9.291471172029993 9.757646913079945 L9.058823874029976 9.757646913079945 L8.82612489902997 9.757646913079945 L8.614901260029946 9.75769185107999 L8.593526068029952 9.757698589079943 L8.592493287105668 9.757698589079943 L8.491158264029913 9.757698589079943 L8.388838929029966 9.757698589079943 L8.28641624002993 9.757698589079943 L8.184096904029992 9.757698589079943 L8.081622539029958 9.757698589079943 L7.9791998500299215 9.757698589079943 L7.9582844360299205 9.757698589079943 L7.87682883802993 9.757698589079943 L7.774509502029936 9.757698589079943 L7.6720868130299 9.757698589079943 L7.569767477029906 9.757698589079943 L7.467344788029983 9.757698589079943 L7.365025452029933 9.757698589079943 L7.262602764029943 9.757698589079943 L7.160283428029949 9.757698589079943 L7.057860739029913 9.757698589079943 L6.955541403029919 9.757698589079943 L6.928484822029908 9.757714791079955 L6.869241761029947 9.75775026607996 L6.901177796029948 9.668970155079954 L6.924328838029943 9.604891379079923 L6.925569072029965 9.579879986079924 L6.916680726029917 9.557659120079983 L6.894666565029958 9.537608664079947 L6.876269756029934 9.528927024079984 L6.857046123029967 9.526136497079925 L6.83782249003 9.529340435079995 L6.819115622029962 9.53864219307993 L6.7932774050299045 9.564997174079984 L6.7481537470299955 9.650828132079987 L6.744701559029899 9.6573946340799 L6.695402243029925 9.751342388079927 L6.682173076029905 9.758732118079926 L6.643880840029944 9.758732118079926 L6.5466774710300015 9.758732118079926 L6.449319072029972 9.75868044107991 L6.351908997030002 9.758628765079997 L6.254498922029917 9.758628765079997 L6.15724387702992 9.758628765079997 L6.059885478029948 9.758628765079997 L5.962527080029908 9.758628765079997 L5.865272035029967 9.758628765079997 L5.768016989029924 9.758577088079981 L5.670658590030008 9.758577088079981 L5.573145163029984 9.758577088079981 L5.4759417940299855 9.758577088079981 L5.378583395029956 9.758577088079981 L5.281328349029913 9.758525413079973 L5.1840733040299725 9.758473736079956 L5.086714905029943 9.758473736079956 L4.989356507029903 9.758473736079956 L4.89199810902992 9.758473736079956 L4.79458803302996 9.758422060079958 L4.697384664029961 9.758422060079958 L4.600129619029936 9.758422060079958 L4.502771221029953 9.758422060079958 L4.405412822030009 9.758422060079958 L4.308157776029908 9.758370383080027 L4.210799378029925 9.75831870708 L4.113440980029971 9.75831870708 L4.016082581029941 9.75831870708 L3.9186725060299707 9.75831870708 L3.8214691370299434 9.75831870708 L3.7241107390299035 9.75831870708 L3.626700664029933 9.7582670300799 L3.529497295029934 9.7582670300799 L3.4321388960299615 9.7582670300799 L3.3347804980299216 9.758215354079987 L3.237422099029949 9.75816367707997 L3.140167054029952 9.75816367707997 L3.0428086550299795 9.75816367707997 L2.9454502570299397 9.75816367707997 L2.8480918580299672 9.75816367707997 L2.7507334600299274 9.75816367707997 L2.6534784140299976 9.758112000079954 L2.5561200160299578 9.758112000079954 L2.4587616180298895 9.758112000079954 L2.3615065720299597 9.758112000079954 L2.2641481730299304 9.758112000079954 L2.166893128029905 9.758060325079946 L2.0695347300299503 9.75800864807993 L1.9721763310299778 9.75800864807993 L1.8748179320299485 9.75800864807993 L1.777562887029923 9.75800864807993 L1.6803078420299826 9.757956972080017 L1.582949443029925 9.757956972080017 L1.4856943980298993 9.757956972080017 L1.388232646029941 9.75790529508 L1.2908742480298727 9.757853619079974 L1.193619202029943 9.757853619079974 L1.0963641570299174 9.757853619079974 L0.9990057580299734 9.757853619079974 L0.9016990360299317 9.757801942079986 L0.8044439910299062 9.757801942079986 L0.7069822390299194 9.757801942079986 L0.6096238410299648 9.757801942079986 L0.5122654430299249 9.757801942079986 L0.4150103970299952 9.75775026607996 L0.4150103970299952 9.465933453079963 L0.4150103970299952 9.174116640079994 L0.4150103970299952 8.882299826079894 L0.4150103970299952 8.590431337079984 L0.4150103970299952 8.298666200079929 L0.4150103970299952 8.006823549080018 L0.4150103970299952 7.714955059079919 L0.4150103970299952 7.4231382460799225 L0.4150103970299952 7.131373109079952 L0.4150103970299952 6.839530458079956 L0.4150103970299952 6.5476619680799715 L0.4150103970299952 6.2558451550799745 L0.4150103970299952 5.964131695079992 L0.4150103970299952 5.672263205080007 L0.4150103970299952 5.380394716079898 L0.4150103970299952 5.088577902079997 L0.4150103970299952 4.893137635079931 L0.4150103970299952 4.703861888079977 L0.4150103970299952 4.615066753079951 L0.4150103970299952 4.27764548907998 L0.4150103970299952 4.12527752807997 L0.4150103970299952 4.08659852607996 L0.4150103970299952 3.73455202408001 L0.4150103970299952 3.6564007070799605 L0.4150103970299952 3.2615576390799887 L0.4150103970299952 2.862925640079986 L0.4150103970299952 2.6951839410800105 L0.4150103970299952 2.5717289440799718 L0.4080857550299086 2.5141613980800273 L0.39041241503000634 2.4604179090800287 L0.3075234180299802 2.2847697160799996 L0.2976015430298915 2.250198183079924 L0.2953277800299716 2.211544211079989 L0.30431947903000633 2.1390938530799346 L0.30442283102994594 2.1147542540799904 L0.28995343002993224 2.073619814079926 L0.2386904100299958 1.9983014130799788 L0.2319724730299484 1.9566760470799451 L0.24871563802992824 1.9045345270798961 L0.2499558720299504 1.884690777080003 L0.24540834702992953 1.8622115290799783 L0.15931541002991167 1.674729432079964 L0.13110007802996648 1.6304944070799294 L0.12210837802999919 1.6089453340799693 L0.12241843803000307 1.5703430400799832 L0.13843813102995028 1.5352030660799514 L0.1798826300300007 1.470349143079936 L0.19662579402996272 1.4360359920800008 L0.20613425802995522 1.4220833550800123 L0.2332127080299884 1.3922660540800038 L0.263495098029928 1.365549338079937 L0.3218894660299796 1.2887581600799862 L0.34142315703000037 1.2544450080799479 L0.35082826802995015 1.2206486220799704 L0.3541355600299667 1.200753195079976 L0.3844179490299737 1.1318685120799543 L0.3949599420299492 1.0768331100799955 L0.4073622850299117 1.0368355520799284 L0.422348450029979 1.0025224010799079 L0.4286529750299124 0.9680025440800293 L0.4150103970299952 0.9276949280799656 L0.3713954880299539 0.8473380750799535 L0.3583730270299057 0.796333437079987 L0.3233364060299735 0.734270041080002 L0.3164117640300006 0.7140128800800127 L0.29326072203000564 0.6071460170799909 L0.2923305460299517 0.5251871960800187 L0.2824086710299767 0.441057965079942 L0.28271873002996273 0.40447105008001216 L0.2950177210299003 0.37274172107989756 L0.4574884240299255 0.2586918350800076 L0.4941786910299939 0.17373578108000487 L0.5221873170299105 0.13957765907994002 L0.5846551650299503 0.09662111008000096 L0.5831903210299529 0.10423015907998234 L0.5955601130299115 0.1695377760799559 L0.6066278210299529 0.20152019807995458 L0.624694228029945 0.22162111007998675 L0.6463413630299115 0.22674806307998807 L0.6972039930299516 0.22943361007998675 L0.7358595920299322 0.2465641430799863 L0.7565301650299503 0.24668621407995062 L0.8022658420299322 0.24082683907995062 L0.8118687070299089 0.243390315079985 L0.8234246960299529 0.24798829707999204 L0.835631728029945 0.24994142207999204 L0.8539422750299437 0.24090821907999072 L0.878600478029945 0.23545574507995326 L0.907653212029949 0.23260743807998807 L1.0702508680299516 0.19240561507997 L1.2578322480299349 0.13816570607998102 L1.3025913630299115 0.1321842610799493 L1.4005731340299477 0.13649741207996868 L1.7959181860299296 0.23118328407998234 L2.0844110250299437 0.2643457190799907 L2.101012587029949 0.2721582190799907 L2.116881728029945 0.27687827107997265 L2.1666864150299503 0.27386720307993784 L2.186950087029949 0.2756168780799797 L2.2584832900299503 0.3052799640799506 L2.2994989150299503 0.31626629207995194 L2.345397353029945 0.31659181307998807 L2.3816929260299062 0.30487306307998807 L2.3992710510299062 0.30344890907998234 L2.416360894029914 0.3131738440799907 L2.430195530029927 0.32440431307998807 L2.4402866760299062 0.32806642207999204 L2.449564019029914 0.32863608407996736 L2.4607944880299115 0.33083334907997397 L2.4881382380299115 0.34446453407998234 L2.551126519029914 0.3626530110799493 L2.618834853029945 0.3687565260799559 L2.643737196029953 0.37498211207998366 L2.6600132380299115 0.3854394690799907 L2.6661981340299477 0.38084148707998366 L2.675800998029935 0.37575522407997397 L2.6798700090299477 0.37180828407998234 L2.691751519029914 0.3730696770799753 L2.754414280029927 0.37209311507997 L2.7612502170299322 0.3738834790799572 L2.7685744360299296 0.37795249007997 L2.7760614150299503 0.384869808079948 L2.775735894029914 0.3884505370799687 L2.7738641500299437 0.39211264607997265 L2.7760614150299503 0.3991113440799907 L2.783548394029914 0.41180665607993916 L2.7881056860299296 0.4173405110799493 L2.7931512590299477 0.41961915607993916 L2.796080946029953 0.42258953407998234 L2.7975457900299503 0.437604183079948 L2.800231337029949 0.443463558079948 L2.8073114150299503 0.4546940260799559 L2.8172398010299062 0.4846012530799797 L2.827330946029953 0.4983951980799546 L2.851256728029945 0.5158919430799713 L2.880065321029896 0.5298893390799506 L2.911803603029945 0.539166683079948 L2.974303603029945 0.5473453930799863 L2.999205946029896 0.556134456079981 L3.021504123029935 0.5600000160799894 L3.0436395400299503 0.5499088700799533 L3.094095269029914 0.5728580890799506 L3.1532586810299463 0.5638248860799493 L3.2694696180299516 0.5151595210799726 L3.2866408420299322 0.5127994950799533 L3.2970575090299477 0.5195540520799753 L3.3022658420299322 0.5337142090799674 L3.3036493060299463 0.5533268390799506 L3.3064976130299115 0.5615055500799784 L3.3240757380299115 0.5976790520799753 L3.3280633680299516 0.6304752760799559 L3.3309116760299062 0.6386946770799753 L3.360696832029909 0.6540755370799687 L3.4088739150299503 0.6600162920799519 L3.5883172750299437 0.6597721510799559 L3.6000360250299437 0.6623356280799797 L3.609069228029945 0.6681950030799797 L3.6170444880299115 0.6747868000799784 L3.6251825090299477 0.6796696120799837 L3.6376336810299463 0.6825993000799784 L3.667337457029909 0.6796696120799837 L3.6901239150299503 0.6818261880799881 L3.7328485250299437 0.691144222079977 L3.7521356340299477 0.693300797079992 L3.7723993060299463 0.6889876460799726 L3.815856337029949 0.6703515780799378 L3.8387241760299062 0.6666080890799506 L3.8580926650299503 0.669659847079977 L3.8759963110299296 0.6766992350799867 L3.8915399310299463 0.6862614090799823 L3.903502821029896 0.6970442870799687 L3.9122918840299477 0.701276058079948 L3.9479364150299503 0.7007877760799559 L3.9613641500299437 0.7029850420799519 L3.972024957029909 0.7065657710799726 L3.988789280029927 0.7143782710799726 L4.166442275029944 0.769025081079981 L4.202005426029906 0.7863997550799766 L4.221536676029906 0.7934391430799863 L4.245787978029945 0.7963281410799894 L4.2518101130299115 0.8019433750799934 L4.258727431029946 0.8286360840799674 L4.262633681029946 0.8379134270799753 L4.269469618029952 0.8423079590799674 L4.28810568602993 0.847150081079981 L4.461852431029946 0.9260481930799713 L4.622985243029952 0.919863297079992 L4.652689019029914 0.91506186507997 L4.789489150029944 0.8580143390799506 L4.937031467029932 0.7964095210799726 L4.9900913630299115 0.7621891430799863 L5.03183941002991 0.7435937660799894 L5.037536025029944 0.7410709790799572 L5.0447788630299115 0.7311832840799823 L5.052428603029945 0.7238183750799934 L5.199726780029927 0.6315332190799907 L5.215270400029944 0.6051660310799392 L5.243102431029946 0.6107812660799894 L5.27215516502995 0.5989811360799493 L5.318379123029935 0.5635807450799533 L5.309427301029906 0.552228206079981 L5.305602431029946 0.5529606280799797 L5.297301650029944 0.556744808079948 L5.302916884029948 0.546612972079977 L5.310729384029948 0.5395328930799863 L5.318541884029948 0.5393294430799713 L5.324645400029944 0.5499088700799533 L5.331969618029952 0.5499088700799533 L5.343444228029945 0.539003922079992 L5.389993707029909 0.5030338700799533 L5.403746962029949 0.49530275007999336 L5.416930556029946 0.4898502760799559 L5.436868707029909 0.46600587507999336 L5.445006728029945 0.4605534010799559 L5.4588413630299115 0.458234065079985 L5.466735243029952 0.4527409010799559 L5.47332704002995 0.4459863440799907 L5.482848525029944 0.4400455890799506 L5.479674696029896 0.438946956079981 L5.476989150029944 0.438946956079981 L5.475442926029906 0.437604183079948 L5.476012587029949 0.4325993000799784 L5.503356337029949 0.41961915607993916 L5.500426650029944 0.4482243000799784 L5.528665582029909 0.46751140907998234 L5.53224631102993 0.46844728107993916 L5.569762587029949 0.47825359707997706 L5.606383681029946 0.481671565079985 L5.598164280029927 0.4861067870799687 L5.586852431029946 0.49725587507999336 L5.578470269029914 0.5014876460799726 L5.577819228029945 0.5065332190799907 L5.579284071029896 0.5079980630799881 L5.582376519029914 0.5080387530799797 L5.585875868029952 0.5089746250799934 L5.573912978029945 0.5158512530799797 L5.577493707029909 0.5236230630799881 L5.588398655029927 0.5309472810799392 L5.598978082029909 0.5363183750799934 L5.640563368029952 0.5151595210799726 L5.63543641502995 0.526593440079985 L5.640970269029914 0.5322086750799784 L5.649596571029896 0.5337142090799674 L5.654235243029952 0.5329004060799392 L5.658141493029952 0.5262272290799572 L5.688333551029906 0.5014876460799726 L5.691100478029945 0.5062890780799378 L5.691832900029944 0.5066959790799572 L5.6951694880299115 0.5089746250799934 L5.697610894029914 0.5031966300799766 L5.699726780029927 0.49986004207995194 L5.701517144029914 0.49579103107993916 L5.702575087029949 0.48781577107997265 L5.7088413630299115 0.48781577107997265 L5.708353082029909 0.49855795907996736 L5.710387587029949 0.5066959790799572 L5.715189019029914 0.5121891430799863 L5.7225132380299115 0.5151595210799726 L5.726500868029952 0.5085270340799823 L5.736754775029944 0.481671565079985 L5.72137391502995 0.4748763180799713 L5.707213759029948 0.4778060050799766 L5.69240256102993 0.48423504207995194 L5.674661676029906 0.48781577107997265 L5.674661676029906 0.481671565079985 L5.677754123029935 0.48118328407998234 L5.685078342029932 0.4820377760799559 L5.688333551029906 0.481671565079985 L5.688333551029906 0.4748356280799797 L5.672220269029914 0.4791080890799506 L5.613219618029952 0.481671565079985 L5.613219618029952 0.4748356280799797 L5.650328993029952 0.46665691707995194 L5.685485243029952 0.4496891430799863 L5.746601780029927 0.40252931307998807 L5.76824891502995 0.37209311507997 L5.782164931029946 0.33176922207997706 L5.78615256102993 0.2898991040799572 L5.777689019029914 0.255109065079985 L5.784524957029909 0.255109065079985 L5.789489150029944 0.2742741040799572 L5.798359592029932 0.2929915520799753 L5.812194228029945 0.3064192870799687 L5.832376519029914 0.30975587507999336 L5.804381728029945 0.2914860180799863 L5.789489150029944 0.2619856930799713 L5.79591818602993 0.2443668780799797 L5.832376519029914 0.2619450030799797 L5.859394748029935 0.27948243807998807 L5.890156467029932 0.2903873860799493 L5.926289280029927 0.29388673507998675 L5.969583551029906 0.28924806307998807 L6.110289931029946 0.25694012007995326 L6.407653212029949 0.16636394807995458 L6.407653212029949 0.1731998860799493 L6.392516493029952 0.175030940079985 L6.300149957029909 0.20481609707997706 L6.222838759029948 0.24277996407995062 L6.169860243029952 0.26438640907998234 L6.127135634029948 0.28924806307998807 L6.121520400029944 0.2914860180799863 L6.107848525029944 0.2934391430799863 L6.099791884029948 0.29608400007999336 L6.061868707029909 0.31878907807993784 L6.044453342029932 0.32395672207997706 L6.004739801029906 0.3265201980799546 L5.996113498029935 0.33083334907997397 L5.991637587029949 0.3309147290799572 L5.9764194880299115 0.35069012007995326 L5.9764194880299115 0.35813640907998234 L5.997008681029946 0.3628971510799559 L6.004088759029948 0.36301922207997706 L6.01043641502995 0.35813640907998234 L6.017272353029945 0.35813640907998234 L6.032409071029896 0.36574545907996736 L6.060485243029952 0.36444337507999336 L6.087584853029945 0.35728191707995194 L6.099791884029948 0.34759767207999204 L6.108825087029949 0.331525081079981 L6.128844618029952 0.3362044430799713 L6.149759332029909 0.3510156410799894 L6.161315321029896 0.36497234707997706 L6.168151259029948 0.36497234707997706 L6.17449891502995 0.34759767207999204 L6.189961155029927 0.3301009270799753 L6.208434462029949 0.31626629207995194 L6.22332704002995 0.30975587507999336 L6.2322788630299115 0.30662273707998366 L6.243346571029896 0.3110172680799863 L6.256367405029927 0.3183821770799753 L6.271178603029945 0.32395672207997706 L6.280618707029909 0.3229394690799907 L6.293476780029927 0.3197656410799894 L6.307474176029906 0.3185856280799797 L6.319518446029896 0.32395672207997706 L6.316425998029935 0.32497397407997397 L6.313659071029896 0.32493328407998234 L6.312194228029945 0.32611329707999204 L6.312682509029948 0.33083334907997397 L6.326191623029935 0.3340071770799753 L6.343200087029949 0.32928712507999336 L6.360208551029906 0.32005047207997706 L6.373473525029944 0.30975587507999336 L6.371032118029952 0.308697933079948 L6.368590712029949 0.3088606930799713 L6.3670444880299115 0.3079655110799493 L6.367370009029948 0.30348959907997397 L6.370787978029945 0.3013737140799506 L6.371276259029948 0.30047853107993916 L6.371439019029914 0.2992985180799863 L6.373473525029944 0.29608400007999336 L6.407734592029932 0.30902345307993784 L6.414489150029944 0.31659181307998807 L6.423766493029952 0.3098372550799766 L6.43068381102993 0.301984065079985 L6.441832900029944 0.28176108407996736 L6.435973525029944 0.2734603020799753 L6.439472873029935 0.2668685050799766 L6.455504775029944 0.255109065079985 L6.458434462029949 0.24904624007997 L6.457376519029914 0.24391928707996868 L6.457050998029935 0.23928061507997 L6.462910373029935 0.2346012530799797 L6.468688368029952 0.23342124007997 L6.505065321029896 0.2357812660799894 L6.514505426029906 0.23887371407995062 L6.531188368029952 0.2482731280799797 L6.53387391502995 0.252057308079948 L6.533548394029914 0.2566959790799572 L6.535338759029948 0.2606022290799572 L6.544860243029952 0.2619450030799797 L6.552916884029948 0.2599918780799797 L6.559020400029944 0.2553125160799894 L6.563008030029927 0.24863933907995062 L6.544860243029952 0.24082683907995062 L6.551289280029927 0.23708334907997397 L6.55731141502995 0.23521160407995723 L6.564147353029945 0.23610678707996868 L6.544860243029952 0.2133610180799863 L6.50457704002995 0.1877262530799797 L6.456969618029952 0.17010743807998807 L6.411803603029945 0.16880535407995723 L6.421325087029949 0.16416668307994797 L6.446146051029906 0.15619142207999204 L6.531188368029952 0.14520509407999072 L6.562438368029952 0.14817547207997706 L6.654723525029944 0.1731998860799493 L6.783711155029927 0.2234521640799656 L6.8123569880299115 0.2346012530799797 L6.8533726130299115 0.2619450030799797 L6.957457900029944 0.30344890907998234 L6.990579644029914 0.30975587507999336 L7.005390842029932 0.30934897407997397 L7.031188368029952 0.3086165520799753 L7.182067275029944 0.2715071770799753 L7.271666884029948 0.227765315079985 L7.308125217029932 0.21751140907998234 L7.34669943602993 0.2182031410799894 L7.378600478029945 0.23215984707997706 L7.392923394029914 0.2587711750799784 L7.397968967029932 0.27069337507999336 L7.4295444880299115 0.30735515907998234 L7.442809462029949 0.33591961207998366 L7.458678603029945 0.35305014607997265 L7.490742405029927 0.37795249007997 L7.501321832029909 0.38202150007999336 L7.525735894029914 0.38670086207998366 L7.527526259029948 0.38743328407998234 L7.538024306029946 0.39162436507997 L7.562926650029944 0.41571290607993916 L7.56903016502995 0.41961915607993916 L7.583434462029949 0.42531577107997265 L7.623229384029948 0.45233400007999336 L7.633320530029927 0.45803061507997 L7.602721571029896 0.452374690079985 L7.503844618029952 0.3991113440799907 L7.509459853029945 0.39959962507999336 L7.513854384029948 0.3991113440799907 L7.516539931029946 0.40033204707999204 L7.524352431029946 0.40594728107993916 L7.521911025029944 0.3986637530799797 L7.517272353029945 0.39426922207997706 L7.510273655029927 0.3921940260799559 L7.489765842029932 0.3902409010799559 L7.485208551029906 0.38666017207999204 L7.482604384029948 0.3821028800799766 L7.477721571029896 0.37795249007997 L7.451110243029952 0.3655826980799546 L7.440368056029946 0.3577701980799546 L7.43621766502995 0.35813640907998234 L7.42873068602993 0.35813640907998234 L7.425719618029952 0.3445866040799572 L7.419453342029932 0.33274578407998234 L7.411315321029896 0.3232243000799784 L7.402037978029945 0.31659181307998807 L7.41505881102993 0.31659181307998807 L7.427265842029932 0.3152897290799572 L7.376891493029952 0.26145672207997706 L7.366149306029946 0.245343440079985 L7.351745009029948 0.22910808907995062 L7.340351780029927 0.22349285407995723 L7.340026259029948 0.227765315079985 L7.32326193602993 0.22105144807995458 L7.316751519029914 0.22459148707998366 L7.312682509029948 0.2346012530799797 L7.299010634029948 0.227765315079985 L7.298766493029952 0.23097983407996736 L7.29949891502995 0.23777508107998102 L7.299010634029948 0.24082683907995062 L7.295429905029927 0.2387516430799863 L7.288512587029949 0.23659506807997133 L7.284687717029932 0.2346012530799797 L7.285094618029952 0.24245444307997133 L7.283222873029935 0.24802898707998366 L7.278502821029896 0.255109065079985 L7.299010634029948 0.255109065079985 L7.293476780029927 0.2662174640799506 L7.308776259029948 0.28977703407998234 L7.305846571029896 0.30348959907997397 L7.312682509029948 0.30348959907997397 L7.312682509029948 0.30975587507999336 L7.305846571029896 0.30975587507999336 L7.308043837029949 0.31419109707997706 L7.31121766502995 0.3189518390799506 L7.312682509029948 0.32395672207997706 L7.305846571029896 0.32395672207997706 L7.302428603029945 0.311749690079985 L7.295836806029946 0.3025130370799687 L7.285664280029927 0.296979183079948 L7.271666884029948 0.29608400007999336 L7.275410373029935 0.28859702107997265 L7.271422743029952 0.28762045907996736 L7.264179905029927 0.2942936360799493 L7.257995009029948 0.30975587507999336 L7.264179905029927 0.31052898707998366 L7.267516493029952 0.30930828407998234 L7.271666884029948 0.30348959907997397 L7.278746962029949 0.30829103107993916 L7.284362196029896 0.3101627760799559 L7.292174696029896 0.30975587507999336 L7.292174696029896 0.31659181307998807 L7.284687717029932 0.31659181307998807 L7.284687717029932 0.32395672207997706 L7.288593967029932 0.32993816707995194 L7.294371962029949 0.334088558079948 L7.302184462029949 0.3365299640799506 L7.312682509029948 0.33701824507995326 L7.305602431029946 0.34328452107997265 L7.295429905029927 0.3454817870799687 L7.285501519029914 0.34344728107993916 L7.278502821029896 0.33701824507995326 L7.271666884029948 0.33701824507995326 L7.272317926029906 0.3422672680799863 L7.270446181029946 0.34344728107993916 L7.2674351130299115 0.34328452107997265 L7.264179905029927 0.34446453407998234 L7.268737196029896 0.34735353107993916 L7.272317926029906 0.35060874007997 L7.278502821029896 0.35813640907998234 L7.264505426029906 0.3733138180799713 L7.261657118029952 0.38474773707998366 L7.270690321029896 0.3912174640799506 L7.292174696029896 0.39162436507997 L7.292174696029896 0.3991113440799907 L7.278828342029932 0.39691407807993784 L7.267923394029914 0.3931705890799506 L7.25880881102993 0.39243816707995194 L7.250508030029927 0.3991113440799907 L7.244323134029948 0.3991113440799907 L7.237649957029909 0.3930485180799863 L7.230976780029927 0.39357749007997 L7.226012587029949 0.39951824507995326 L7.223978082029909 0.409650081079981 L7.228047092029932 0.4146549640799506 L7.23504579002995 0.4182356930799713 L7.236510634029948 0.42181642207999204 L7.223978082029909 0.4264550940799907 L7.223978082029909 0.4325993000799784 L7.229674696029896 0.44212078407998234 L7.222675998029935 0.4456608230799546 L7.211282769029914 0.4481022290799572 L7.202819228029945 0.454327815079985 L7.200703342029932 0.46844728107993916 L7.206969618029952 0.4772363440799907 L7.217955946029896 0.479718440079985 L7.228698134029948 0.4754052890799656 L7.230162978029945 0.4748356280799797 L7.228209853029945 0.47308595307993784 L7.226907769029914 0.47263836207998366 L7.22560568602993 0.4716618000799784 L7.223978082029909 0.467999690079985 L7.2381382380299115 0.4731266430799863 L7.244974176029906 0.4743880370799687 L7.254332900029944 0.4748356280799797 L7.26238954002995 0.4789860180799863 L7.264017144029914 0.48822267207999204 L7.264098525029944 0.4973372550799766 L7.267923394029914 0.5014876460799726 L7.2791538630299115 0.5041325030799797 L7.2947788630299115 0.5107243000799784 L7.309752821029896 0.5197981930799713 L7.319518446029896 0.5294824380799881 L7.32716818602993 0.513165706079981 L7.332376519029914 0.5064518390799506 L7.340026259029948 0.5014876460799726 L7.335875868029952 0.51076499007997 L7.334411025029944 0.5170312660799894 L7.3357944880299115 0.52248374007997 L7.340026259029948 0.5294824380799881 L7.326354384029948 0.5294824380799881 L7.326354384029948 0.5363183750799934 L7.340026259029948 0.5363183750799934 L7.336771051029906 0.5385156410799894 L7.333922743029952 0.54006186507997 L7.332213759029948 0.5431950030799797 L7.333190321029896 0.5499088700799533 L7.337910373029935 0.5492578280799378 L7.340677301029906 0.5474674640799506 L7.342955946029896 0.545026058079948 L7.34669943602993 0.542462581079981 L7.348001519029914 0.5441308750799934 L7.347675998029935 0.546612972079977 L7.348815321029896 0.5488509270799753 L7.353535373029935 0.5499088700799533 L7.353535373029935 0.542462581079981 L7.36037131102993 0.542462581079981 L7.355407118029952 0.5566227370799837 L7.360208551029906 0.5661035310799392 L7.368509332029909 0.5655338700799533 L7.37404318602993 0.5499088700799533 L7.385680556029946 0.5485254060799392 L7.401305556029946 0.5342838700799533 L7.420348525029944 0.5228092610799493 L7.443053603029945 0.5294824380799881 L7.42873068602993 0.5294824380799881 L7.42873068602993 0.5363183750799934 L7.443053603029945 0.542462581079981 L7.445739150029944 0.538312190079985 L7.452005426029906 0.5340397290799572 L7.456562717029932 0.5294824380799881 L7.470885634029948 0.5363183750799934 L7.470885634029948 0.542462581079981 L7.466735243029952 0.5468978020799753 L7.465026259029948 0.5502343910799894 L7.463398655029927 0.5635807450799533 L7.474547743029952 0.5591862140799506 L7.477721571029896 0.556744808079948 L7.476093967029932 0.5651676590799823 L7.474140842029932 0.5707828930799863 L7.4705601130299115 0.5744856930799713 L7.463398655029927 0.5772526200799533 L7.463398655029927 0.583478206079981 L7.470153212029949 0.5920231280799797 L7.470641493029952 0.6028060050799766 L7.44988954002995 0.61818686507997 L7.44988954002995 0.6250228020799753 L7.460631728029945 0.6254297030799378 L7.468932509029948 0.6233951980799546 L7.474791884029948 0.6188379060799392 L7.477721571029896 0.6113509270799753 L7.483906467029932 0.6113509270799753 L7.485208551029906 0.6219303540799572 L7.486103733029928 0.6243310710799577 L7.488300998029935 0.630109065079985 L7.494323134029948 0.6357243000799784 L7.503844618029952 0.6386946770799753 L7.503844618029952 0.6461816560799392 L7.493672092029932 0.6484603020799753 L7.486347873029935 0.6523258620799837 L7.481383681029946 0.6582259270799753 L7.477721571029896 0.6666080890799506 L7.482767144029914 0.6685612140799506 L7.490742405029927 0.6734440260799559 L7.500345269029914 0.6681543130799881 L7.509297092029932 0.6667301590799823 L7.517516493029952 0.6686832840799823 L7.524352431029946 0.6734440260799559 L7.524352431029946 0.6796696120799837 L7.517516493029952 0.6796696120799837 L7.517516493029952 0.6871159010799559 L7.527526259029948 0.694562190079985 L7.540221571029896 0.6997298340799674 L7.553567926029906 0.7001774250799784 L7.565856337029949 0.693300797079992 L7.565856337029949 0.6871159010799559 L7.551207900029944 0.6867903800799766 L7.541198134029948 0.6802799640799506 L7.5350132380299115 0.6703515780799378 L7.531758030029927 0.6597721510799559 L7.5467319880299115 0.6625390780799378 L7.566914280029927 0.671368831079981 L7.576354384029948 0.6728336750799784 L7.580097873029935 0.6734440260799559 L7.5721226130299115 0.6597721510799559 L7.588073134029948 0.6592838700799533 L7.593200087029949 0.6597721510799559 L7.593200087029949 0.6523258620799837 L7.588724176029906 0.6513493000799784 L7.587828993029952 0.6505761880799881 L7.588073134029948 0.6491113440799907 L7.58660829002995 0.6465071770799753 L7.588073134029948 0.6453678540799572 L7.600036025029944 0.6386946770799753 L7.60060568602993 0.6447575030799797 L7.603453993029952 0.645978206079981 L7.607929905029927 0.64553061507997 L7.613707900029944 0.6461816560799392 L7.609801650029944 0.6352767090799674 L7.617614150029944 0.628155940079985 L7.628600478029945 0.6273014480799546 L7.639505426029906 0.6439030110799493 L7.652282118029952 0.6478906410799894 L7.667907118029952 0.6482161620799687 L7.681985894029914 0.6461816560799392 L7.705993056029946 0.6342187660799894 L7.717223525029944 0.6165592610799493 L7.714293837029949 0.5981266430799863 L7.696227431029946 0.583478206079981 L7.720234592029932 0.5827457840799823 L7.721129775029944 0.5829492350799867 L7.723571181029946 0.583478206079981 L7.728535373029935 0.55373374007997 L7.728860894029914 0.5397363440799907 L7.723571181029946 0.5226465000799934 L7.706725478029945 0.5042545730799546 L7.704284071029896 0.4955468910799894 L7.716735243029952 0.48781577107997265 L7.701679905029927 0.48045086207998366 L7.680521051029906 0.473859065079985 L7.660094618029952 0.4710514480799546 L7.647887587029949 0.4748356280799797 L7.640807509029948 0.45803061507997 L7.653258681029946 0.4593326980799546 L7.666442275029944 0.4602278800799766 L7.690368056029946 0.4642968910799894 L7.7342319880299115 0.4716618000799784 L7.747578342029932 0.48041017207999204 L7.753844618029952 0.48041017207999204 L7.765156467029932 0.481671565079985 L7.767597873029935 0.4983951980799546 L7.77801454002995 0.511212581079981 L7.792907118029952 0.519635433079948 L7.823668837029949 0.526593440079985 L7.835143446029896 0.5359928540799572 L7.853942275029944 0.556744808079948 L7.896422743029952 0.5920638180799713 L7.914977431029946 0.6042301590799823 L7.943297743029952 0.6461816560799392 L7.969583551029906 0.6664860180799863 L7.999450087029949 0.6825586100799867 L8.033467014029931 0.6915918130799881 L8.035338759029948 0.6921207840799823 L8.079284071029896 0.693300797079992 L8.121276259029948 0.6886621250799934 L8.195739150029944 0.6718978020799753 L8.284524957029909 0.6343001460799726 L8.30177756102993 0.6228255370799687 L8.342955946029896 0.6049218910799894 L8.35418641502995 0.5976790520799753 L8.361022353029945 0.5976790520799753 L8.361022353029945 0.6051660310799392 L8.32912131102993 0.6157047680799863 L8.273375868029952 0.6518782710799726 L8.24090516502995 0.6597721510799559 L8.18621766502995 0.681744808079948 L8.10028016502995 0.7007877760799559 L8.148782769029914 0.7007877760799559 L8.148782769029914 0.7075423340799674 L8.134459853029945 0.7143782710799726 L8.16505881102993 0.714337581079981 L8.176614801029906 0.7104720210799726 L8.182962457029909 0.7007877760799559 L8.189147353029945 0.7007877760799559 L8.189961155029927 0.7065657710799726 L8.193216363029912 0.7075016430799863 L8.197610894029914 0.706769222079977 L8.203307509029948 0.7075423340799674 L8.264830946029896 0.6734440260799559 L8.316588759029948 0.6595280110799493 L8.32684266502995 0.6523258620799837 L8.33302756102993 0.6523258620799837 L8.337259332029909 0.6576562660799894 L8.351500868029952 0.6608707840799823 L8.348164280029927 0.6657942870799687 L8.34051454002995 0.6666080890799506 L8.34051454002995 0.6734440260799559 L8.351012587029949 0.6702701980799546 L8.374694228029945 0.6597721510799559 L8.374694228029945 0.6523258620799837 L8.347350478029945 0.6523258620799837 L8.347350478029945 0.6461816560799392 L8.360859592029932 0.6412988440799907 L8.377786676029906 0.6452050940799907 L8.39324891502995 0.6546451980799546 L8.402526259029948 0.6666080890799506 L8.40496766502995 0.6722233230799546 L8.407083551029906 0.6820703280799378 L8.40887391502995 0.6871159010799559 L8.395039280029927 0.6871159010799559 L8.428242405029927 0.6975325680799713 L8.443704644029914 0.6968001460799726 L8.457213759029948 0.6871159010799559 L8.457213759029948 0.6796696120799837 L8.447692275029944 0.6749088700799533 L8.442890842029932 0.6734440260799559 L8.442890842029932 0.6666080890799506 L8.481627821029896 0.6579817870799687 L8.49123068602993 0.6523258620799837 L8.486266493029952 0.6447981930799713 L8.488463759029948 0.6375553540799572 L8.493834853029945 0.6291731930799713 L8.498066623029935 0.61818686507997 L8.49123068602993 0.61818686507997 L8.484801650029944 0.6249821120799837 L8.464049696029896 0.6386946770799753 L8.460875868029952 0.6423567870799687 L8.457539280029927 0.6453678540799572 L8.457539280029927 0.6484603020799753 L8.464049696029896 0.6523258620799837 L8.450703342029932 0.6549707190799907 L8.427916884029948 0.6546451980799546 L8.404316623029935 0.6516341300799766 L8.388203342029932 0.6461816560799392 L8.418395400029944 0.64357749007997 L8.435566623029935 0.6282780110799493 L8.448180556029946 0.6081364090799823 L8.464049696029896 0.5909244950799533 L8.476093967029932 0.585878922079992 L8.500833551029906 0.582135433079948 L8.51238954002995 0.5772526200799533 L8.531595269029914 0.56154624007997 L8.543151259029948 0.5566634270799753 L8.560241103029945 0.556744808079948 L8.560241103029945 0.5635807450799533 L8.532409071029896 0.5635807450799533 L8.532409071029896 0.569806331079981 L8.544860243029952 0.5777409010799559 L8.58074891502995 0.61818686507997 L8.591491103029945 0.6352360180799863 L8.587340712029949 0.640729183079948 L8.574726780029927 0.6434961100799867 L8.560241103029945 0.6523258620799837 L8.559020400029944 0.6498437660799894 L8.559020400029944 0.6471989090799823 L8.557799696029896 0.64553061507997 L8.552754123029935 0.6461816560799392 L8.552754123029935 0.6523258620799837 L8.569518446029896 0.6623356280799797 L8.578470269029914 0.6752343910799894 L8.578063368029952 0.6905338700799533 L8.56707704002995 0.7075423340799674 L8.602884332029909 0.6950911620799687 L8.621439019029914 0.6914290520799753 L8.634703993029952 0.693300797079992 L8.641458551029906 0.6920800940799907 L8.646178603029945 0.6921207840799823 L8.655211806029946 0.693300797079992 L8.655211806029946 0.6871159010799559 L8.641539931029946 0.6796696120799837 L8.634703993029952 0.6796696120799837 L8.634703993029952 0.6871159010799559 L8.628600478029945 0.6871159010799559 L8.628600478029945 0.6796696120799837 L8.681660373029935 0.661847347079977 L8.696227431029946 0.6523258620799837 L8.703551650029944 0.6523258620799837 L8.696227431029946 0.6597721510799559 L8.703551650029944 0.6666080890799506 L8.710957248029935 0.6609928540799572 L8.719176650029944 0.6603825030799797 L8.726256728029945 0.6646549640799506 L8.730325738029912 0.6734440260799559 L8.737731337029949 0.6734440260799559 L8.738626519029914 0.6649804850799867 L8.738300998029935 0.6548893390799506 L8.73699891502995 0.6533024250799784 L8.751403212029949 0.6523258620799837 L8.741881728029945 0.6479720210799726 L8.731953342029932 0.649192724079974 L8.722513238029912 0.6482161620799687 L8.710957248029935 0.6461816560799392 L8.820250868029952 0.6386946770799753 L8.811461806029946 0.6205468910799894 L8.824401259029948 0.6168847810799392 L8.840189019029914 0.6158268390799506 L8.840189019029914 0.5976790520799753 L8.851012587029949 0.602317724079974 L8.854430556029946 0.6051660310799392 L8.861266493029952 0.6051660310799392 L8.874694228029945 0.6019108230799546 L8.914570530029927 0.6198551590799823 L8.933287978029945 0.6250228020799753 L9.006286025029944 0.6315332190799907 L9.025817275029944 0.6386946770799753 L9.025817275029944 0.6318180500799784 L9.048522353029945 0.63771811507997 L9.081725478029945 0.6358463700799533 L9.28810568602993 0.5896224120799687 L9.480814019029914 0.5239078930799863 L9.632262587029949 0.4398014480799546 L9.634035087335896 0.4388346312342932 L9.658373841029949 0.477386496079923 L9.66416160202997 0.49387127907990447 L9.68211650302991 0.5416523620799509 Z M10.295717670190825 9.072919353512816 L10.211324121231918 9.253336479591955 L10.261991342029923 9.146211498079943 L10.295717670190825 9.072919353512816 Z M10.115853332029907 9.45518900607994 L9.856525926029896 9.503894801079987 L9.581241252029919 9.56124577507996 L9.754840798594259 9.52680695916603 L9.935449340583524 9.490977693173413 L10.115853332029907 9.45518900607994 Z M9.388854384029948 4.963076188079988 L9.404316623029935 4.962425146079973 L9.404398004029908 4.962465836079964 L9.409362196029896 4.963076188079988 L9.429218967029932 5.001406266079989 L9.436705946029896 5.021466487079984 L9.437356988029912 5.044903987079984 L9.423359592029932 5.032819026079956 L9.416523655029927 5.019025081079981 L9.388854384029948 4.963076188079988 Z M9.440368056029946 4.243634456079981 L9.462259332029909 4.251080745079953 L9.468688368029952 4.268089209079967 L9.472187717029932 4.286481136079949 L9.48504579002995 4.298281266079989 L9.48504579002995 4.304466162079969 L9.477965712029949 4.303489599079974 L9.464863498029935 4.301617854079957 L9.446797092029932 4.283144547079992 L9.440856337029949 4.277041031079939 L9.419616103029945 4.270978206079981 L9.409850478029945 4.265729183079948 L9.400328993029952 4.255475276079956 L9.390156467029932 4.248720719079991 L9.390075087029949 4.248720719079991 L9.367532769029914 4.258404964079951 L9.358255426029906 4.251691097079977 L9.351256728029945 4.239931656079939 L9.347350478029945 4.229352229079957 L9.352965712029949 4.22288250307998 L9.359557509029948 4.218772802079975 L9.366881728029945 4.216738297079992 L9.375182509029948 4.216331396079973 L9.397887587029949 4.21897625307998 L9.405700087029949 4.223452164079966 L9.414489150029944 4.228497737079984 L9.42254579002995 4.234845393079986 L9.427672743029952 4.238792334079967 L9.440368056029946 4.243634456079981 Z M10.018899957029909 3.7979557450799533 L10.018981337029949 3.7980371250799365 L10.035094618029952 3.810488297079992 L10.054218967029932 3.8252994950799533 L10.054218967029932 3.8327457840799823 L10.015970269029914 3.835187190079985 L9.980976780029927 3.8334375160799894 L9.95184266502995 3.822695328079938 L9.931904514029931 3.7999902500799365 L9.930114150029944 3.7979557450799533 L9.931578993029952 3.7843652500799365 L9.928161025029944 3.764874690079985 L9.923278212029949 3.757062190079985 L9.92677756102993 3.7523014480799546 L9.928161025029944 3.7513248860799493 L9.928242405029927 3.751446956079981 L9.930114150029944 3.757062190079985 L9.930195530029927 3.7568994300799616 L9.933776259029948 3.7492903800799766 L9.938659071029896 3.74318686507997 L9.944518446029896 3.7389550940799907 L9.951110243029952 3.7365543780799797 L9.951191623029935 3.7365950680799713 L9.968606988029912 3.7448551590799823 L9.974303603029945 3.7499821120799837 L9.977965712029949 3.757062190079985 L9.952005426029906 3.7617415520799753 L9.940612196029896 3.7668685050799766 L9.936950087029949 3.777529313079988 L9.941670139029931 3.7819238440799907 L9.945657769029914 3.7856266430799863 L9.962584853029945 3.787213558079948 L9.991718967029932 3.782941097079977 L10.004332900029944 3.778994156079939 L10.00653016502995 3.780947281079939 L10.008646051029906 3.780987972079977 L10.013366103029945 3.7875797680799863 L10.017760634029948 3.7951481280799797 L10.018899957029909 3.7979557450799533 Z M8.412291884029948 0.6714095210799726 L8.40887391502995 0.6666080890799506 L8.403502821029896 0.6665267090799674 L8.41082704002995 0.661847347079977 L8.416849176029906 0.6631901200799533 L8.420755426029906 0.6694563960799726 L8.423034071029896 0.6796696120799837 L8.412291884029948 0.6714095210799726 Z M8.809752821029896 0.5635807450799533 L8.839782118029952 0.5686263180799713 L8.866718967029932 0.5810368000799784 L8.909687717029932 0.6113509270799753 L8.888121962029949 0.598411474079974 L8.732441623029935 0.5403060050799766 L8.703551650029944 0.5363183750799934 L8.734883030029927 0.537213558079948 L8.786315321029896 0.5582096510799559 L8.809752821029896 0.5635807450799533 Z M8.51238954002995 0.5259830890799506 L8.538512587029949 0.5127994950799533 L8.696227431029946 0.5294824380799881 L8.689879775029944 0.5337955890799506 L8.677265842029932 0.5337955890799506 L8.646341363029912 0.528790706079981 L8.616637587029949 0.5250879060799392 L8.586852431029946 0.5213444170799519 L8.552754123029935 0.5294824380799881 L8.536315321029896 0.5263493000799784 L8.510192275029944 0.5343652500799934 L8.38966818602993 0.589947933079948 L8.368509332029909 0.6051660310799392 L8.380228082029909 0.5898258620799837 L8.403502821029896 0.5800602370799837 L8.42287131102993 0.5710270340799823 L8.435241103029945 0.5648014480799546 L8.448587457029909 0.556378597079977 L8.50067079002995 0.5356673340799674 L8.51238954002995 0.5259830890799506 Z M10.1656476570299 3.795960206079947 L10.165927611029907 3.8341582970799735 L10.138460422029915 3.84473327307996 L10.11480504602995 3.83792779607996 L10.09555140902993 3.8228832210799695 L10.115538974029938 3.7943980750799895 L10.1656476570299 3.795960206079947 Z" fill="black" stroke="black" stroke-width="0.5" vector-effect="non-scaling-stroke"/></svg>