<svg xmlns="http://www.w3.org/2000/svg" viewBox="0 0 5.838838435140087 5.353049316299991"><path d="M4.244824893070023 1.483144937650005 L4.25631334507006 1.5000150606499805 L4.257140168070071 1.5187219296499652 L4.2539362290700975 1.5393925026499833 L4.256106639070003 1.5600113986499853 L4.26892239407008 1.5758760636499947 L4.2920734360700745 1.5963399306499557 L4.317394888070032 1.613651535649959 L4.3353782860700445 1.6203177956499761 L4.352741568070035 1.6244002336499737 L4.415993520070037 1.655974533649962 L4.436250682070044 1.6592818256499644 L4.570816112069997 1.6592818256499644 L4.635236345070018 1.6592706956499317 L4.854939424070073 1.6592327376499814 L4.869919302070064 1.659230149649952 L5.169022492070047 1.659230149649952 L5.468229035070044 1.6591784726500212 L5.767332225069998 1.6591267966500087 L5.774980337069996 1.6974448706499263 L5.7753937490699965 1.7777500466499507 L5.776944042070005 2.0398012346499517 L5.777254604070043 2.092275925649952 L5.778494334070023 2.301749069649924 L5.7800446280700495 2.5637227436499135 L5.781594921070086 2.8257222556499872 L5.48207831807 2.824688726649919 L5.409087815070086 2.824461969649983 L5.182665070070049 2.8237585506499503 L4.88335517407001 2.8227250216499673 L4.8602992320699965 2.8226534196500044 L4.583838572070027 2.821794845650013 L4.474697948070093 2.821381434650002 L4.445637666070104 2.8251450806499268 L4.426018749070044 2.8276859596500206 L4.420747752070019 2.84231038964999 L4.42064439907009 2.871920985649945 L4.41702704907002 2.8850467996500075 L4.405244822070022 2.8965189666499302 L4.389328481069986 2.9000329646499754 L4.371551789070059 2.897345790649945 L4.353878449070043 2.8898010316499896 L4.337341991070053 2.8769852756499237 L4.311400422070028 2.847323003649956 L4.2948639640700375 2.8356441306499764 L4.279361034070098 2.8299597226499404 L4.2496249151808225 2.8265332527513696 L4.251172550070043 2.821279703650001 L4.249789086070029 2.804149169649955 L4.242139347070042 2.7785957846499887 L4.244336613070038 2.766714273649976 L4.252067732070008 2.760488687650005 L4.265088566070039 2.7559720866499706 L4.279981144070041 2.753286539649972 L4.292757836070029 2.7524320476499984 L4.286735701070006 2.747183023649976 L4.274528670070003 2.7430326336499693 L4.260042993070021 2.7403470866499706 L4.247754581070046 2.739370523649976 L4.237500675070043 2.7361966956499746 L4.212516951070006 2.722036539649972 L4.200391300070043 2.718944091649954 L4.159375675070043 2.727773844649997 L4.148714868070021 2.7250882976499984 L4.144645857070008 2.7150785316500023 L4.1490403890700005 2.704295653649959 L4.1568528890700005 2.6955472816500023 L4.163037784070047 2.691600341649954 L4.144483097070042 2.699412841649954 L4.1216966390700005 2.719473062650005 L4.102328149070024 2.7416898596500037 L4.094190128070045 2.756134846649994 L4.087354191070039 2.763296305649968 L4.054395206070046 2.771434325649958 L4.029574243070021 2.7819323726499565 L4.020622420070003 2.7701322426499733 L4.004997420070003 2.722117919649955 L3.996859399070024 2.7094632976499984 L3.986035831070046 2.6998197426499733 L3.9700039300700265 2.691600341649954 L3.9517747640700005 2.6872871906499913 L3.9387539300700265 2.6902982586499693 L3.9270351800700265 2.695587971649994 L3.8952155190700406 2.7016101076500068 L3.8656745030700446 2.7156888836499693 L3.850537784070047 2.718944091649954 L3.841748722070042 2.71341023764999 L3.818311222070042 2.687205810650008 L3.805453149070024 2.677928466649954 L3.807406274070024 2.667918700649958 L3.804883488070038 2.6600248206499746 L3.791944034070047 2.6431791176499733 L3.807569034070047 2.6367500816499874 L3.819287784070047 2.6249906406500063 L3.827751326070006 2.6103828936499927 L3.844027368070021 2.5591947426499733 L3.8528164300700265 2.5410469566499874 L3.864209659070047 2.5333158366499706 L3.8795091390700005 2.5251371256499997 L3.893506534070047 2.505809325649958 L3.904248722070042 2.483144937650005 L3.909294295070003 2.465037841649954 L3.9066901280700446 2.426748453650001 L3.9105963780700446 2.410350341649954 L3.9381028890700005 2.3983060706499746 L3.977490909070047 2.3625801596499887 L3.9948248940700406 2.3400785316500023 L3.997998722070042 2.33841023764999 L4.000195988070038 2.3330391436499927 L4.004834659070047 2.3281563316499874 L4.009473331070046 2.321483153649959 L4.011670597070042 2.310822346649994 L4.023389347070042 2.282217203650001 L4.039502628070045 2.2527168776499966 L4.060010441070039 2.23684773764999 L4.073031274070024 2.2411608886500094 L4.085563826070006 2.252920328650001 L4.104444034070047 2.2595528156499913 L4.131136743070021 2.256053466649954 L4.150016951070006 2.247183023649976 L4.167432316070039 2.2358711746499953 L4.189730493070021 2.2248441566500023 L4.169548201070006 2.2258614096499887 L4.128695336070029 2.253530680649968 L4.110954451070006 2.2492989096499887 L4.067578800070043 2.208120523649976 L4.052523461070029 2.1804512526499966 L4.062777368070021 2.153433023649976 L4.121533878070045 2.095164794649955 L4.124219425070043 2.091421305649968 L4.130078800070043 2.080272216649954 L4.135042993070021 2.0746569826500068 L4.1555508050700265 2.0609851076500068 L4.1633633050700265 2.0530912266499772 L4.167676456070046 2.046011148649976 L4.176221378070045 2.0261543776499966 L4.180453149070024 2.02005086264999 L4.185010441070039 2.0158597816500023 L4.188265649070024 2.009145914649972 L4.1920091390700005 1.9849759926499733 L4.1965664300700265 1.9783028156499913 L4.201286482070008 1.9734200026499966 L4.203402368070021 1.9682116696499552 L4.208936222070042 1.9587715656499913 L4.244336613070038 1.9237780756499578 L4.254997420070003 1.8899239096499887 L4.251091170070003 1.8485013836499693 L4.223340519070041 1.7667956536499592 L4.213819034070047 1.7480375156500063 L4.210726586070029 1.739492594649997 L4.209668644070041 1.7285469566499874 L4.211865909070047 1.718008219649997 L4.216504581070046 1.7112943516499772 L4.221143253070045 1.706289469649997 L4.223340519070041 1.7009183756499997 L4.231641300070043 1.5767728676499733 L4.228711613070038 1.5542305496499953 L4.220166691070039 1.536815185650008 L4.2121914300700265 1.514394937650005 L4.225049503070045 1.4970202636500094 L4.244824893070023 1.483144937650005 Z M0.07148505007004324 5.281118570649975 L0.06521877407002385 5.269481200649958 L0.06391669107003928 5.257925211649971 L0.06806708107004589 5.247834065649991 L0.07832098807003796 5.240672607650007 L0.09150458107004589 5.263296305649968 L0.08800523207000843 5.287710367649973 L0.07417059707004192 5.300568440649991 L0.0572435140700005 5.288524169649955 L0.06228908607002914 5.286977945649975 L0.06660223807003796 5.283153075649958 L0.07148505007004324 5.281118570649975 Z M3.367953149070024 0.07416870064995784 L3.394483097070042 0.1069649246499953 L3.4044114820700084 0.12405476864999265 L3.408399113070038 0.14521362264995652 L3.4068528890700005 0.16441935164997723 L3.4027838780700446 0.18187540665000235 L3.396436222070042 0.19745971664995388 L3.388379581070046 0.2106840006499997 L3.3522467690700406 0.24278849264997326 L3.341992863070038 0.2704577636500094 L3.308789738070038 0.30976440364995916 L3.3059414300700265 0.31310099264997326 L3.285921899070024 0.366811930649968 L3.268669295070003 0.380483805649968 L3.263949243070021 0.4040026856500081 L3.2611823160700393 0.40937377864995916 L3.258903670070003 0.41271036764997326 L3.230176456070046 0.4298002116499706 L3.2266771070700084 0.44591349264997326 L3.226188826070006 0.49197469064999133 L3.2199225500700432 0.50833211264999 L3.1750006750700432 0.5600899246499953 L3.1407396070700084 0.6163236486499759 L3.1314622640700005 0.6275541176499733 L3.121859399070024 0.6210843906500063 L3.0989101800700265 0.6113187656500063 L3.093701847070042 0.6048490396499719 L3.0873541910700393 0.6075345866499706 L3.0728685140700005 0.602285562650005 L3.045117863070038 0.5868640136500094 L3.037875024070024 0.5893461096500037 L3.0149258050700265 0.594473062650005 L3.004834659070047 0.59426961264999 L2.994092472070042 0.5895902506499997 L2.972933618070021 0.5760404456499746 L2.959912784070047 0.5731921386500094 L2.938428409070047 0.5724597166499539 L2.9146653890700005 0.56692586264999 L2.895459659070047 0.5519519036499592 L2.887484399070024 0.5225736486499759 L2.8829271070700084 0.5117500816499874 L2.873812524070024 0.49864786764997326 L2.8673021070700084 0.48558634464999706 L2.8705573160700393 0.4744779456499746 L2.8744635660700393 0.46528198265000675 L2.880648461070029 0.4229642736499759 L2.8874030190700406 0.40355509464999706 L2.9005052320700084 0.3783679196499552 L2.9191413000700432 0.3618070476499984 L2.9428229410700393 0.36835815364995916 L2.9555182530700446 0.3610746256499997 L2.972363956070046 0.36184773764999 L3.008008488070038 0.36835815364995916 L3.0248541910700393 0.36156290665000235 L3.030388045070003 0.3455716956499746 L3.027539738070038 0.327139078650001 L3.018506534070047 0.31310099264997326 L3.030957706070046 0.30642781564999133 L3.046664086070029 0.29515665665000235 L3.060498722070042 0.28176961264999 L3.066358097070042 0.26903360965000367 L3.073194034070047 0.17654500264999662 L3.086214868070021 0.141348062650005 L3.112419295070003 0.09862345365000103 L3.1476569250700432 0.06395548465000367 L3.1886725500700432 0.0524808756499997 L3.186475284070047 0.05626505564996798 L3.182406274070024 0.06668172164999397 L3.2134935140700005 0.0731921386500094 L3.2271653890700005 0.07392456065000808 L3.2370123940700406 0.06668172164999397 L3.259554711070029 0.07359903964997194 L3.291944034070047 0.07848185164997723 L3.325879581070046 0.0775866696499552 L3.353711613070038 0.06668172164999397 L3.3567226800700265 0.07107625264999662 L3.3598151280700446 0.07274454764999838 L3.367953149070024 0.07416870064995784 Z" fill="black" stroke="black" stroke-width="0.5" vector-effect="non-scaling-stroke"/></svg>