<svg xmlns="http://www.w3.org/2000/svg" viewBox="0 0 6.834228678900033 5.757702447419961"><path d="M6.761041540950053 5.35336375320999 L6.5437128539500335 5.444887603210006 L6.533480919950044 5.445869455209973 L6.521078575950092 5.436205963209957 L6.5121902299501 5.435120757209958 L6.49544706595011 5.449538483209977 L6.472192670950015 5.503643707209974 L6.428577761950031 5.544054677209957 L6.432091759950104 5.573820302209938 L6.44139351795004 5.605187897209959 L6.435605756950075 5.632111318209979 L6.42310006095007 5.638674224209964 L6.393231082950045 5.644203603209959 L6.384756147950064 5.653195302209909 L6.371113569950033 5.6724706112099454 L6.339542272950062 5.681150469209939 L6.334836714950107 5.682444162209961 L6.321607547950087 5.70125438420996 L6.164924604950009 5.565035308209957 L6.119035933950066 5.5449331762099945 L6.0918541299500575 5.537905181209979 L6.0742841419500095 5.540954091210011 L6.022814415950016 5.5953693752098985 L5.975065392950022 5.5458116762099365 L5.893519982950089 5.437291168209953 L5.828304324950032 5.328228058209916 L5.780658654950024 5.287946278209972 L5.725054813950031 5.257353831209954 L5.668004032950101 5.234306142209988 L5.589972619950025 5.185110178210024 L5.537676068950098 5.113305775210009 L5.459954715950083 4.948483795210024 L5.428122033950011 4.896704009209969 L5.394118940950101 4.852959909209972 L5.355154910949999 4.813349925210005 L5.2788804969501015 4.75193248521002 L5.174080691950017 4.667493194209982 L5.000447879950023 4.558998525210001 L4.86557239095 4.474662587209991 L4.835393354950007 4.445413726209949 L4.76469999495 4.323095611210007 L4.686978641950041 4.188788564210014 L4.581145307950088 4.0713538712100075 L4.476552208950089 3.9553144432099856 L4.415677371950061 3.9129139302099674 L4.347774539950102 3.8880575662100085 L4.257444136950049 3.8754743542099845 L4.229228803950001 3.8665860082099783 L4.123188764950065 3.816873281209965 L4.0650011019500525 3.787521067209994 L3.9970425659500037 3.7260353512099442 L3.920410444950072 3.656702179209944 L3.8810330039500727 3.6338353572100317 L3.8377281539501027 3.6166271052099574 L3.7479145139500005 3.595310577209972 L3.730241173950013 3.5955172832100146 L3.680838504950053 3.6097541402099864 L3.6665758099500962 3.610115875209985 L3.6431946179500514 3.6060380842099136 L3.6231676069500267 3.6025452782099308 L3.6048741499500565 3.607066966209956 L3.5740749959500917 3.632491770209967 L3.554541303950053 3.6378661192099315 L3.5356277299500434 3.63471385620997 L3.5204348589500896 3.6276600232099554 L3.4678282509500136 3.5831407772099624 L3.440233035950108 3.5661650692099442 L3.4102607049500406 3.5565015762100103 L3.3784280229500254 3.5575609432100066 L3.366340146950016 3.5595592542099723 L3.3210671829500242 3.5670435692099858 L3.294298790950073 3.5646922902099476 L3.24282906395009 3.549628611209954 L3.2371446569500435 3.546708893209967 L3.231046838950043 3.5409986462099994 L3.21068632395005 3.5169691062099844 L3.195493452950096 3.504592600209918 L3.1756497029500323 3.493688873209962 L3.1583897739500557 3.493456329209991 L3.1505349569501035 3.5134551082100245 L3.1327582639500733 3.53678701720996 L3.091933881950091 3.5561656802099293 L3.00997506095009 3.578360707209967 L2.9909581329500483 3.579471751209965 L2.936801232950039 3.570970977209953 L2.9118931919500355 3.5748467102099113 L2.8983539669500473 3.5868614802099756 L2.87654651295005 3.6208387352100004 L2.85153511995005 3.6210971172099704 L2.830864546950032 3.584070953209917 L2.8018223919500187 3.501130279209974 L2.7880764599500125 3.47971039820996 L2.7708165319500253 3.4590656632099552 L2.750662722950061 3.4411597792099826 L2.7288552689500065 3.4278014212099492 L2.7188300409501025 3.423874013209982 L2.6903046509500186 3.4175178112099616 L2.654544558950043 3.413512888209965 L2.6530976189500493 3.410050567209936 L2.640178511950033 3.422375396209972 L2.638628217950007 3.439015207209991 L2.640178511950033 3.4576962382099765 L2.6371812779500132 3.4761188862099743 L2.623021934950053 3.494153960209985 L2.6025580679500067 3.5066338192099664 L2.5609068639500023 3.5255732322100073 L2.5279372999500183 3.555028798209932 L2.5094371369500195 3.5676120092100376 L2.464892052950084 3.571797801209982 L2.405257449950021 3.5958273412099118 L2.3862405229500254 3.600219838209995 L2.367740360950016 3.6018734842099462 L2.3495502559500423 3.6001164852099663 L2.331360151950001 3.594173696209964 L2.3118264599500193 3.593553578209992 L2.249918094950111 3.6247919822099703 L2.212711062950085 3.63445547421 L2.1363332969500206 3.6429820862099263 L2.087033979950057 3.642620351210013 L2.078559044950019 3.6449716282099587 L2.0701874629500807 3.6440931292100203 L2.0577851199500046 3.6349722392099437 L2.0524107699501073 3.6260063782100076 L2.0456928349500103 3.6044056292099356 L2.037631310950097 3.5969642232100085 L1.983991173950038 3.5685938612100045 L1.9683848909500838 3.556682443209965 L1.956706017950033 3.541928822209968 L1.9485411419500096 3.5243588352099806 L1.9390326779501024 3.486402496209976 L1.9326248009500873 3.473535064209983 L1.9221861609500692 3.465809437209984 L1.9105072869500859 3.459504913209969 L1.9009988239500544 3.4508491112099193 L1.8960378859500437 3.441056426209954 L1.891180300950019 3.4135645642099774 L1.889195868950047 3.408801926209918 L1.882912072949999 3.3937208152099885 L1.8726801389500096 3.381551015209979 L1.8572805619500272 3.375401519209916 L1.8336127559500923 3.373954579209922 L1.776665326950102 3.3835147192100123 L1.7585785759501036 3.380259104210026 L1.6500580679500203 3.3368767392099556 L1.6417898399500572 3.3303655082099795 L1.6361054319500212 3.3205211482100054 L1.6353819619501095 3.3117619932100126 L1.633211550950044 3.303958852210002 L1.6233930289500549 3.2967241512099434 L1.612127566950015 3.2948896382099377 L1.6077867469500333 3.2900837302099433 L1.605616336950014 3.283417470209926 L1.6017922799500965 3.2761827702099566 L1.6011721639501033 3.2730821832100077 L1.6014822219500147 3.2625143532099514 L1.6009654579500747 3.2584319152099397 L1.5974514609501043 3.2550212702100083 L1.587736290949998 3.2539360662100023 L1.5833954709500162 3.250396230209958 L1.5642751909500916 3.2137576392099874 L1.5521829059500973 3.1965493872100126 L1.5348196249500106 3.1817440892099995 L1.493995242950085 3.2773971652099902 L1.428986290950057 3.4290933322100017 L1.364597456950058 3.5795234272099776 L1.3018622679500922 3.7261036272099943 L1.2443980749501051 3.860358998209975 L1.2083279249501047 3.94459158320997 L1.197062462950008 3.955779531209913 L1.1790790649500522 3.944436553210025 L1.168640424950091 3.932447621209974 L1.163989545950038 3.9158336482099543 L1.1628526649500017 3.890279652210012 L1.159855431950028 3.8807195132099253 L1.1521039669500155 3.8731489152099527 L1.141872032950026 3.8681879782100026 L1.1315367469500401 3.866379303209925 L1.1187209919500205 3.8617025852099545 L1.1127265259500163 3.8504629612099848 L1.1076622359500092 3.825451568209999 L1.1003241809500182 3.8066671852099887 L1.0959833619500827 3.8006985572099694 L1.0555723909500543 3.7676773172100013 L1.041102989950069 3.759538279209991 L1.0383124629500102 3.748892934209991 L1.038829226950007 3.7261036272099943 L1.037382286950013 3.7111949762099528 L1.033558230950085 3.7031076152099587 L1.0182620069500317 3.6882506402099295 L0.9804348589500691 3.6349205622099277 L0.9615212839500131 3.624146027210003 L0.9371300089500991 3.6038371882099796 L0.9233840779500824 3.6058267312099304 L0.901576623950028 3.613164785209918 L0.8275759719500329 3.6117178442100197 L0.7930561159500584 3.6193401182099905 L0.7644273719499992 3.6404499402099333 L0.7492345009500454 3.662050689209991 L0.7411729779500646 3.681765248209956 L0.7377623329500338 3.7021257632099918 L0.7371422149500617 3.7261036272099943 L0.7343516879500029 3.7470584202099957 L0.7268069289500758 3.7635432022099735 L0.7160582309500327 3.775971384209953 L0.7035525339500381 3.7844463192099624 L0.695801069950015 3.7859449352099688 L0.6776109659500875 3.783774525209978 L0.6694460889500746 3.7844463192099624 L0.6548733349501035 3.7962027072099573 L0.6489822219500283 3.7981147362099676 L0.6387502889500283 3.797184560210013 L0.6300686479500754 3.794445709209967 L0.6222138299500202 3.7901565652099123 L0.6142556589500927 3.7844463192099624 L0.5961689079500374 3.7603134252100006 L0.5902777959500654 3.7565410452099712 L0.5571015259500527 3.7522519022100056 L0.4918858679501099 3.7334933572100084 L0.45974312695008024 3.729204213209954 L0.3914268839501105 3.729204213209954 L0.38171171495010725 3.731477976209959 L0.3654853149499999 3.7412189842100076 L0.3570103799500757 3.743492747210027 L0.3119485309500405 3.743492747210027 L0.2918980749500051 3.746696685209912 L0.2609955679500544 3.7608301892099405 L0.2471462849500412 3.763956614209988 L0.22585559395005106 3.764525055209944 L0.20900907695007476 3.768349111209986 L0.19640002795002687 3.7785035292099423 L0.18906197495001464 3.7981147362099676 L0.1697349889500046 3.797753001209969 L0.14761747595004948 3.6139399312100267 L0.13252795795008154 3.49004568420996 L0.11733508695007089 3.3644719542099466 L0.10555417995006877 3.267509821209913 L0.09883492395001525 3.212207346209979 L0.07847440995001165 3.044646514209944 L0.06700224195000004 2.949768584209963 L0.06844918195005079 2.9278319392100087 L0.07651070495003154 2.910416981209977 L0.15009794395003695 2.8409380182099966 L0.1682880489500107 2.8133686422100084 L0.21893095295003917 2.66784780820997 L0.23846464395008837 2.6369453022099663 L0.27122750195004386 2.615654612209994 L0.25748157195001653 2.572013865209925 L0.2600653929500467 2.529742543210034 L0.31432564695008836 2.3381521702099803 L0.3266246379501112 2.3160863342099844 L0.3760273069500144 2.2665286352100225 L0.40289905195006526 2.223792225210019 L0.45085478095008824 2.091965647210003 L0.496019981950063 1.9676321512100117 L0.5292996049500047 1.8764232472100275 L0.5455260039500089 1.8502749732100199 L0.5873839149500881 1.8084170632099585 L0.5976158489500207 1.7829922582099584 L0.5949286739500153 1.7617015682099577 L0.5767385699500878 1.7211872452100465 L0.5715709269500948 1.7001549382099483 L0.5730178669500887 1.6788125712099315 L0.5765318639500023 1.660880849209974 L0.5770486289500454 1.6432075082099686 L0.5706682189500825 1.6258829252099645 L0.5696072219500579 1.623002024209967 L0.555447879950087 1.6046568912099985 L0.5397382449500228 1.5885338432100014 L0.5267157839500882 1.5708605032100138 L0.5198944939500265 1.5477094622100083 L0.5206179649500413 1.5339635312099915 L0.5329169549500747 1.4940693252100345 L0.5359141879501053 1.4747423402099855 L0.5340538369501004 1.4421345112100141 L0.5357074819500198 1.4244094952099147 L0.5448025349500867 1.4055475972099885 L0.5599954049501079 1.392318430209997 L0.5929649699500814 1.369425770209972 L0.6037136679500108 1.3556281632100138 L0.6283116489500102 1.2955801492099965 L0.6321357049501088 1.2357388402100469 L0.6339960569500462 1.2312946672099372 L0.6412307579500052 1.223284820209983 L0.64309110895001 1.2191507062099447 L0.6418508739500552 1.2133112682099636 L0.6359597609500369 1.2043195692100142 L0.6346161739500857 1.2004955142099902 L0.6364765259500231 1.1603429252099602 L0.6339960569500462 1.1476305232100117 L0.6253144169500828 1.1352798562100475 L0.6148757769500648 1.1254613342100015 L0.6114651319500339 1.1146609592099708 L0.6357530549500083 1.0810712782099472 L0.6404039339500613 1.0617442922099656 L0.636786583950105 1.0426240122099841 L0.6169428349500876 1.0160623262099762 L0.614669070950093 1.007173980210041 L0.6167255669500591 0.9991928212100447 L0.6168394819500449 0.9987507222099623 L0.6234540649500886 0.9912576392099197 L0.6438145789500922 0.9886738182100316 L0.6597309199500145 0.9954434302099742 L0.6748204389500287 1.0054686582099919 L0.6927004839499986 1.0124966532100075 L0.7184353469500806 1.0167341202099465 L0.7287706329500097 1.0204031472099473 L0.7674246049500866 1.0432441302100415 L0.7773464799500047 1.0448461002099805 L0.8316067339500464 1.036371165209971 L0.8464895459500426 1.0384898982099742 L0.8767719359500106 1.0366295462099515 L0.9243142539500226 1.008310862209953 L0.9531497019500748 1.0059337462100189 L1.046787397950105 1.0313585502100295 L1.1031147089500095 0.9665563042100018 L1.1113829389500651 0.9466092022099986 L1.1161371699500577 0.9242849832100148 L1.1380479779500874 0.8866645402100062 L1.144352501950003 0.8662006732099599 L1.149003380950056 0.8244977922100247 L1.148073204950002 0.8063076882099836 L1.1369110959500048 0.7605223692100367 L1.1393915649500386 0.7491018772100233 L1.1501402629500816 0.7427973532100225 L1.2825352819500253 0.7032648812099751 L1.3229462519500075 0.6978388562100122 L1.3637706339501037 0.6774266662099535 L1.4072821899500454 0.6021857812100109 L1.4422154579500202 0.5841507052100212 L1.4625759719500806 0.5895767312099736 L1.492548302950091 0.6172752982100178 L1.5153892859500147 0.6239932352100368 L1.5392637979500918 0.6187222382100117 L1.5589008419500132 0.6042528372099696 L1.5902167599500316 0.5655471902099691 L1.6577795899500174 0.5219319702099767 L1.6587397099500762 0.5213121642100305 L1.68220080895005 0.5130956112099909 L1.7051451449500732 0.5131989642099484 L1.7145502559501082 0.5231725162099394 L1.7155837849500912 0.5398123262099546 L1.7141368449500973 0.5598111062099917 L1.7198212519500302 0.5814118542099607 L1.7348074179500586 0.5812568252099197 L1.751343874950031 0.56745921820999 L1.761782514950049 0.5483389382099801 L1.7620925729500172 0.5378486222100207 L1.7595087519500439 0.5309756572099786 L1.7582685179500217 0.5246194562099333 L1.762816043950032 0.5156794332100105 L1.7687071569500503 0.5147492572099566 L1.8039504839500395 0.5039488832099153 L1.8201768829500438 0.5137157282099736 L1.8353697549500438 0.52854686421 L1.8530430949500314 0.5389855042099327 L1.8767108999500905 0.5355748592100156 L1.8935574169500669 0.5194518132100256 L1.8961412389500865 0.4996597392099602 L1.894901003950018 0.47847240120998435 L1.8999652949500145 0.4587320052100381 L1.9172252239501049 0.44348745720998295 L1.9668345979500472 0.42038809221000406 L1.9870917599500544 0.4053502502099491 L2.0146869749500738 0.36245881120999 L2.0749416949500628 0.209289865210053 L2.102640262950068 0.17053254121003647 L2.2449282599500506 0.05644806320999862 L2.247044144950017 0.06690542021000567 L2.2564028689499978 0.0778103682099669 L2.263727087950052 0.10869415720999598 L2.3062889369500326 0.16631134421000127 L2.3096255259500467 0.1763211102099973 L2.310846228950048 0.1968289222100026 L2.313124873950038 0.20728627921000964 L2.33119128095003 0.23186310220997086 L2.334283728950048 0.2376410972099876 L2.3391665409500533 0.25464956020995544 L2.433079301950009 0.3923855632099986 L2.5029849009500467 0.5480252112099748 L2.572402217950035 0.6641547692099863 L2.596653519950017 0.7490343262100083 L2.608046748950038 0.7689724772099709 L2.596002478950048 0.8077908362099748 L2.6145571659500533 0.8379422032100052 L2.6419009159500533 0.8653266442099863 L2.6558169319500493 0.8959256022099709 L2.6609438849500506 0.9345812012100083 L2.6694888069500493 0.9681912272099709 L2.699273962950052 1.0271511882099986 L2.7036684939499978 1.0464382972100026 L2.707005082950012 1.0870063312099916 L2.7122134159500533 1.1073513832099735 L2.7278384159500533 1.136404118209967 L2.733372269950017 1.177053532209996 L2.738336462950052 1.1935330242099695 L2.771295446949999 1.266409000210004 L2.793023962950052 1.344330550209989 L2.779352087950052 1.3374946122099942 L2.7992902389500145 1.382131657209996 L2.804742712950052 1.4041043132099986 L2.806695837950052 1.4331163572099541 L2.78822253095003 1.4519151852099554 L2.8043358119500326 1.4974881022099709 L2.7998599009500467 1.523122868209967 L2.793023962950052 1.5162869302099722 L2.7942446659500533 1.531830550209989 L2.8040102909500533 1.5361437012100083 L2.8149966189499978 1.536428532209996 L2.820367712950052 1.539846500210004 L2.8189028689499978 1.5746365392099761 L2.820367712950052 1.5839138832099735 L2.824029821949999 1.593069157209996 L2.828424353950048 1.6007595862099748 L2.832330603950048 1.6094672692099863 L2.833958207950012 1.6218370602099554 L2.8325747439499978 1.661387841209958 L2.833958207950012 1.6739203942099863 L2.8374575569500493 1.6831570472100026 L2.8464907599500506 1.6990668782099903 L2.8481997439499978 1.7114773602099973 L2.8467349009500467 1.7237250812099916 L2.8406313849500506 1.7484646642099761 L2.840794144950017 1.7627062012100083 L2.871393103950048 1.8932400552099722 L2.8755434939499978 1.9374295082099735 L2.878961462950052 1.9525662272099709 L2.902317582950012 2.002289534209993 L2.937473832950012 2.132497868209967 L2.956842321949999 2.1673285972099876 L3.016575394950017 2.202810368209967 L3.0258527389500145 2.2183132972100026 L3.0337466189499978 2.224945784209993 L3.070367712950052 2.240896305209972 L3.080377478950048 2.249319157209996 L3.0808657599500506 2.2622586102099973 L3.075982946949999 2.273122868209967 L3.069798051950009 2.2831326332099735 L3.066705603950048 2.2937120602099554 L3.0698794319500493 2.305471500210004 L3.084039587950052 2.3203640782100052 L3.0872134159500533 2.3281358882099568 L3.0886782599500506 2.354747216209958 L3.0942121139500145 2.370779118209967 L3.121230342950035 2.400157373210007 L3.1039777389500145 2.401662907209996 L3.092096228950048 2.4114692222099876 L3.087945837950052 2.4260362792100096 L3.094049353950048 2.4417019692100013 L3.098281123950038 2.4331570472100026 L3.107395707950012 2.4229438312099916 L3.11830065595003 2.418630680209972 L3.1282290409500533 2.427419743209967 L3.12611315595003 2.44634064121 L3.1067446659500533 2.4553738442100013 L3.084283728950048 2.4581000812099916 L3.0735415409500533 2.458181461209975 L3.0758201869500326 2.4676215652099955 L3.094049353950048 2.495697737209994 L3.098606644950017 2.5293891442099863 L3.1008852909500533 2.5366726722100026 L3.115045446949999 2.5418403152099955 L3.1382388069500493 2.543752750210004 L3.160211462950052 2.5411892742099695 L3.169732946949999 2.5332547032100052 L3.1773013069500493 2.5214952632099568 L3.195123571949999 2.518972477209971 L3.2153872439499978 2.522878727209971 L3.230523962950052 2.529877425209989 L3.2546938849500506 2.5612901852099554 L3.306939978950048 2.7251085452100057 L3.3110903689499978 2.7287706542100096 L3.329889196949999 2.735647282209996 L3.334120967950035 2.739065250210004 L3.3363996139500145 2.7566026852099554 L3.3423403689499978 2.7732449382099986 L3.351048051950009 2.7874050942100013 L3.361627478950048 2.7973741702100057 L3.3467349009500467 2.851898909209993 L3.341607946949999 2.9376736492099695 L3.343805212950052 2.941742659209993 L3.3531639369500326 2.9482530762100083 L3.355442582950012 2.951955875210004 L3.3589419319500493 2.967214664209976 L3.3684634159500533 2.9751085452100057 L3.381484248950038 2.97563751621 L3.39564440595003 2.9686795082099735 L3.4055727909500533 2.98735626621 L3.4170474009500467 2.9902452632099568 L3.43275378095003 2.9856879722099876 L3.4546450569500493 2.9823513832099735 L3.461562373950038 2.9773058102099554 L3.467096228950048 2.965627750210004 L3.4695376349500506 2.9530545082099735 L3.4680727909500533 2.944753727209971 L3.463027217950035 2.9354763832099735 L3.466852087950052 2.929006657209996 L3.4789777389500145 2.9209093262100083 L3.498020707950012 2.8877875812099916 L3.500136592950035 2.868337711209975 L3.4801170619500326 2.8344835452100057 L3.4692934939499978 2.794363102209971 L3.461074092950035 2.7800401852099554 L3.4478091189499978 2.7798367352099973 L3.439752478950048 2.795258284209993 L3.433079301950009 2.8038032062099916 L3.4242902389500145 2.7831326332099735 L3.421848832950012 2.7636827632099568 L3.4242902389500145 2.7120063312099916 L3.42298815595003 2.700857243209967 L3.417942582950012 2.6818956542100096 L3.4168032599500506 2.6707465652099955 L3.41908190595003 2.658539534209993 L3.4246157599500506 2.6545519042100096 L3.4312889369500326 2.6525987792100096 L3.4371483119500326 2.6465359532100052 L3.4438214889500145 2.61235626621 L3.4504946659500533 2.6023871902099955 L3.464654821949999 2.6123969562099916 L3.4714907599500506 2.6123969562099916 L3.472467321949999 2.604421696209968 L3.4789777389500145 2.585134586209975 L3.484999873950038 2.585134586209975 L3.4854067759500467 2.588308414209976 L3.484999873950038 2.5981554202100057 L3.496067582950012 2.5896918782099903 L3.5093325569500493 2.5682888832099735 L3.5186099009500467 2.5571804852099973 L3.533339717950035 2.58305939121 L3.553359248950038 2.603852034209993 L3.648492712950052 2.680268050209989 L3.6631411509500467 2.6875108882099568 L3.686171748950038 2.6923937012100083 L3.6941470099500506 2.6951606282099903 L3.7041567759500467 2.7011827632099568 L3.715794144950017 2.710541487209994 L3.723281123950038 2.7205512532099903 L3.726536332950012 2.731049300209989 L3.724664587950052 2.7421170082099735 L3.717421748950038 2.7539985192099863 L3.699518103950048 2.7678738442100013 L3.69056628095003 2.7769070472100026 L3.6851138069500493 2.786428532209996 L3.669977087950052 2.8240668782099903 L3.681126176950009 2.8230903152099955 L3.689589717950035 2.825491032209996 L3.695367712950052 2.831716618209967 L3.697320837950052 2.8420519042100096 L3.6948794319500493 2.845022282209996 L3.6846255259500467 2.848806461209975 L3.683079301950009 2.851980289209976 L3.6848696659500533 2.8562934402099955 L3.689589717950035 2.860281071209968 L3.69056628095003 2.8628445472100026 L3.6958559939499978 2.8711453282100052 L3.7192934939499978 2.888113102209971 L3.724664587950052 2.8967394042100096 L3.727512894950017 2.909475407209996 L3.740533728950048 2.9353950032099903 L3.7451724009500467 2.9482530762100083 L3.7446027389500145 2.959402164209976 L3.7418358119500326 2.9724636882099986 L3.740859248950038 2.9854438312099916 L3.7451724009500467 2.9966336102099973 L3.757623571949999 2.9922390782100052 L3.771295446949999 2.995046696209968 L3.7822817759500467 3.002615055209972 L3.7866763069500493 3.01274689121 L3.7886294319500493 3.021088362209994 L3.793023962950052 3.022960107209954 L3.7976626349500506 3.0239773602099973 L3.8004295619500326 3.0301215652099955 L3.7998599009500467 3.0392361492099695 L3.7942446659500533 3.054210107209954 L3.792942582950012 3.061208805209972 L3.802789587950052 3.079031071209968 L3.825982946949999 3.090424300209989 L3.8999575569500493 3.116018375210004 L3.915989457950012 3.123708805209972 L3.923313676950009 3.1294461102099973 L3.9301496139500145 3.1477973472099876 L3.945123571949999 3.1443793782099903 L3.96791003095003 3.1257433102099554 L3.990533728950048 3.1171983882099568 L4.0063214889500145 3.097178857209954 L4.019098181950049 3.074555159209993 L4.033176957950012 3.058034977209971 L4.031874873950038 3.073904118209967 L4.035455603950048 3.0876980632099986 L4.044732946949999 3.095144352209971 L4.061090368949998 3.092214664209976 L4.066380082950012 3.083425602209971 L4.064101436950033 3.072032373210007 L4.066054561950033 3.062266748210007 L4.084039587950052 3.058034977209971 L4.094781775950047 3.057424625210004 L4.097792842950035 3.0568142742099695 L4.108209509950051 3.0642605632099986 L4.10658190595003 3.067678532209996 L4.104466019950017 3.0747179202100057 L4.106500525950047 3.0815945472100026 L4.118707556950049 3.084768375210004 L4.125950394950017 3.0876980632099986 L4.128961462950052 3.0935981282099903 L4.132867712950052 3.0987250812099916 L4.142389196949999 3.099050602209971 L4.148980993949998 3.0959988442100013 L4.154840368949998 3.090749821209968 L4.159723181950049 3.084646305209972 L4.163548051950009 3.078542789209976 L4.158502478950048 3.0704861492099695 L4.156305212950052 3.0625108882099568 L4.156061071949999 3.0437934402099955 L4.161676306950049 3.0487576332099735 L4.1664777389500145 3.0595812012100083 L4.1703839889500145 3.0642605632099986 L4.197564978950048 3.071096500210004 L4.200006384950051 3.079600732209954 L4.199192582950012 3.088308414209976 L4.199273962950052 3.097178857209954 L4.204400915950053 3.105886539209976 L4.21205065595003 3.110769352209971 L4.217096228950048 3.109792789209976 L4.222711462950052 3.106863102209971 L4.231744665950053 3.105886539209976 L4.250055212950052 3.108327946209968 L4.259739457950012 3.112600407209996 L4.263971228950048 3.121999821209968 L4.267633337950052 3.16118439121 L4.271051306950049 3.1692817222099876 L4.29994128095003 3.180959782209996 L4.2953839889500145 3.1641547692099863 L4.303766150950047 3.1587022952100057 L4.331028519950017 3.1604519692100013 L4.337864457950012 3.1650499512100083 L4.340794144950017 3.1738797032100052 L4.336074092950035 3.179372868209967 L4.320449092950035 3.1741238442100013 L4.314264196949999 3.180959782209996 L4.362115759950051 3.229421696209968 L4.362604040950053 3.2271023602099973 L4.366022009950051 3.2253526852099554 L4.370742061950033 3.227143050209989 L4.375787634950051 3.235606591209958 L4.377089717950035 3.243093571209968 L4.375787634950051 3.270315250210004 L4.367486853950048 3.2930203282100052 L4.367242712950052 3.304210107209954 L4.375787634950051 3.317556461209975 L4.401341019950017 3.335256657209996 L4.409723181950049 3.3466905762100083 L4.409804561950033 3.3659776852099554 L4.4203839889500145 3.3594672692099863 L4.429986853950048 3.355235498210007 L4.440240759950051 3.3545030762100083 L4.451471228950048 3.35845001621 L4.451471228950048 3.3392035972099876 L4.474420446949999 3.349050602209971 L4.5278058639500145 3.34673126621 L4.557265498950038 3.3621528152099955 L4.588027217950035 3.383962711209975 L4.616022009950051 3.39165314121 L4.683567582950012 3.393850407209996 L4.799452998950038 3.419688623210007 L4.810846228950048 3.4243272952100057 L4.822890498950038 3.4395047032100052 L4.83900378095003 3.476166487209994 L4.852105993949998 3.4931749512100083 L4.896539587950052 3.5236111492099695 L4.926324743949998 3.5437120602099554 L4.950169144950017 3.5723578942099863 L4.965875525950047 3.606741032209996 L4.971653519950017 3.6436469562099916 L4.979303259950051 3.6592719562099916 L4.995742061950033 3.669118961209975 L5.012343623950038 3.6765245602099554 L5.0199933639500145 3.684988102209971 L5.024387894950017 3.6924750812099916 L5.043023962950052 3.714610498210007 L5.056126176950009 3.7547309402099955 L5.076959509950051 3.7791450032099903 L5.123020707950012 3.8184109532100052 L5.149225134950051 3.8478298992099695 L5.157851436950033 3.8620714352099554 L5.164687373950038 3.8798937012100083 L5.1723371139500145 3.912445784209993 L5.176813025950047 3.9243272952100057 L5.185113806950049 3.9351101722100026 L5.198785681950049 3.9453640782100052 L5.231988806950049 3.9650987792100096 L5.249322790950053 3.9795030762100083 L5.264296748950038 3.997650862209994 L5.300592321949999 4.064789534209993 L5.311171748950038 4.106130680209972 L5.319879431950049 4.1210232582099735 L5.383437373950038 4.139740706209992 L5.396783728950048 4.1405545082099735 L5.429010290950053 4.128469547210003 L5.441461462950052 4.1268826332099735 L5.449355342950035 4.131602685209955 L5.468805212950052 4.164480289209976 L5.484918493949998 4.180959782209996 L5.492324092950035 4.185110172210003 L5.506647009950051 4.1883246902099955 L5.517633337950052 4.188080550209989 L5.539850134950051 4.1824653152099955 L5.547662634950051 4.18148875320999 L5.5649152389500145 4.188161930209972 L5.600152868949998 4.210744938209999 L5.613092321949999 4.215627750210004 L5.624322790950053 4.2234809402099955 L5.6293683639500145 4.241791487209994 L5.632298051950009 4.262502750210004 L5.637018103950048 4.277680159209993 L5.678277868949998 4.309011539209976 L5.68470690595003 4.32211375320999 L5.689101436950033 4.322276513209957 L5.71205065595003 4.352834782209996 L5.718886592950035 4.366506657209996 L5.7211652389500145 4.367849430209972 L5.730117061950033 4.371755680209972 L5.732558467950035 4.37330190421001 L5.736952998950038 4.384817203210005 L5.742975134950051 4.406911930209972 L5.749973832950012 4.417735498210007 L5.760309118949998 4.420502425209989 L5.77259753095003 4.415700993209967 L5.782851436950033 4.4100857582099735 L5.787164587950052 4.410899560209955 L5.790663936950033 4.417165836209975 L5.807916540950053 4.428884586209975 L5.814508337950052 4.434743961209975 L5.818495967950035 4.444021305209972 L5.824192582950012 4.467133284209993 L5.828180212950052 4.475678206209992 L5.851373571949999 4.492727360209997 L5.855523962950052 4.493703922210003 L5.859348832950012 4.507416487209994 L5.867242712950052 4.507335107209954 L5.873590368949998 4.501272282209996 L5.872857946949999 4.497406722209988 L5.8676496139500145 4.493663232209954 L5.853326696949999 4.475515446209968 L5.849908728950048 4.469534000210004 L5.847955603950048 4.467784326210008 L5.844781775950047 4.466116032209996 L5.842096228950048 4.462575993209967 L5.841852087950052 4.4552517742099695 L5.845025915950053 4.454885563209999 L5.858941931950049 4.455617985209997 L5.862359900950047 4.4552517742099695 L5.863092321949999 4.428721826210008 L5.849664587950052 4.417409977209971 L5.832574743949998 4.408539534209993 L5.811090368949998 4.407481591209958 L5.803277868949998 4.404714664209976 L5.805719275950047 4.398977360209997 L5.814996618949998 4.394094547210003 L5.828180212950052 4.393809716209958 L5.862359900950047 4.421072086209975 L5.899225134950051 4.469289860209997 L5.913710811950033 4.475678206209992 L5.931777217950035 4.486664534209993 L5.938124873950038 4.511322737209994 L5.938043493949998 4.552053532209996 L5.949273962950052 4.585134586209975 L5.95814440595003 4.600271305209972 L5.968805212950052 4.606700341209958 L5.978570837950052 4.617768050209989 L5.985895056950049 4.643158675209989 L6.001438676950009 4.758799951210008 L6.015680212950052 4.782644352209971 L6.021051306950049 4.831228336209975 L6.020156123950038 4.83578562820999 L6.022760290950053 4.838633935209955 L6.053522009950051 4.856700341209958 L6.0746808639500145 4.862885237209994 L6.120172400950047 4.866750797210003 L6.139296748950038 4.863373519209986 L6.1508527389500145 4.854299625210004 L6.157770056950049 4.841238102209971 L6.164036332950012 4.825775862209994 L6.177301306950049 4.828705550209989 L6.181126176950009 4.83501251621 L6.181451696949999 4.843557438209999 L6.185113806950049 4.853078922210003 L6.191054561950033 4.858002425209989 L6.197809118949998 4.861623844210001 L6.203261592950035 4.866954248210007 L6.2055402389500145 4.877289534209993 L6.213434118949998 4.890310368209967 L6.263808467950035 4.931936344210001 L6.298801957950012 4.988943180209972 L6.31166003095003 4.99712189121 L6.331598181950049 4.9999295082099735 L6.347955603950048 5.007253727209971 L6.361627478950048 5.017263493209967 L6.373102087950052 5.028127750210004 L6.380995967950035 5.043549300209989 L6.390598832950012 5.0995388832099735 L6.407037634950051 5.136037907209996 L6.410943884950051 5.154796045210006 L6.413548051950009 5.183116357209954 L6.417291540950053 5.1991482582099735 L6.424615759950051 5.209402164209976 L6.438775915950053 5.212901513209957 L6.451796748950038 5.208995263209957 L6.464898962950052 5.201955875210004 L6.479140498950038 5.19634064121 L6.4926496139500145 5.223440250210004 L6.512262243949998 5.239919743209967 L6.539605993949998 5.248098453210005 L6.575494665950053 5.250336409209993 L6.5707746139500145 5.255422672210003 L6.561822790950053 5.270803532209996 L6.571344275950047 5.271535953210005 L6.579075394950017 5.269338688209999 L6.58900378095003 5.263967594210001 L6.587945837950052 5.262787581209992 L6.60658190595003 5.2508246902099955 L6.609674353950048 5.250336409209993 L6.621393103950048 5.237315576210008 L6.630670446949999 5.223074039209976 L6.6332746139500145 5.21391876621 L6.632867712950052 5.2072048992099695 L6.634820837950052 5.201671045210006 L6.644342321949999 5.19634064121 L6.638238806950049 5.1863715652099955 L6.636855342950035 5.176687321209968 L6.639215368949998 5.167979638209957 L6.644342321949999 5.1609809402099955 L6.672825394950017 5.182424625210004 L6.686497269950017 5.195648909209993 L6.692193884950051 5.205984196209968 L6.696588415950053 5.216400862209994 L6.707005082950012 5.224905094210001 L6.719537634950051 5.232514144209986 L6.729791540950053 5.2404080242099695 L6.736627478950048 5.253510237209994 L6.737929561950033 5.283742985209997 L6.740533728950048 5.2987576332099735 L6.767226436950033 5.34595815421001 L6.761041540950053 5.35336375320999 Z M4.0297589889500145 2.4200141442099863 L4.044488806950049 2.420502425209989 L4.049615759950051 2.423147282209996 L4.057591019950017 2.4629828942099863 L4.051406123950038 2.481252750210004 L4.037245967950035 2.488943180209972 L4.036920446949999 2.4887804202100057 L4.016249873950038 2.4786892742099695 L4.009251176950009 2.477143050209989 L3.999973832950012 2.4751085452100057 L3.951471228950048 2.486745914209976 L3.9307192759500467 2.4882921382099568 L3.90931628095003 2.4812934402099955 L3.874485551950009 2.4648546382099568 L3.851617712950052 2.461599430209972 L3.8020571659500533 2.47173126621 L3.79212878095003 2.470022282209996 L3.7866763069500493 2.4690457192100013 L3.782688676950009 2.465424300209989 L3.7767479209500365 2.4580187012100083 L3.7727602909500533 2.4529731282099903 L3.770400264950034 2.450938623210007 L3.766249873950038 2.447398584209978 L3.7661684939499978 2.4473172032100052 L3.7571352909500533 2.4637153152099955 L3.745579301950009 2.4722195472100026 L3.728652217950035 2.4736437012100083 L3.7041567759500467 2.4690457192100013 L3.6637108119500326 2.453705550209989 L3.658502478950048 2.4526882972100026 L3.644830603950048 2.450002750210004 L3.6223696659500533 2.454763493209967 L3.62220690595003 2.454763493209967 L3.6137433639500145 2.4436144042100096 L3.607232946949999 2.434988102209971 L3.580702998950038 2.3591824382099986 L3.592096228950048 2.3594265782100052 L3.599094926950009 2.3615831542100096 L3.6000714889500145 2.3653266442099863 L3.600234248950038 2.365896305209972 L3.5942934939499978 2.3728543132099986 L3.6023501349500506 2.377370914209976 L3.6084536509500467 2.3833523602099973 L3.6106509159500533 2.3875434402099955 L3.6123599009500467 2.3908800292100096 L3.6148013069500493 2.400157373210007 L3.6148826869500326 2.400157373210007 L3.62220690595003 2.400157373210007 L3.6316470099500506 2.3965766442099863 L3.644830603950048 2.401662907209996 L3.6587466189499978 2.409353336209975 L3.669977087950052 2.413829248210007 L3.670058467950035 2.4137885582099585 L3.6826724009500467 2.4131782062099916 L3.724664587950052 2.400157373210007 L3.7063540409500533 2.368419091209958 L3.681939978950048 2.3422960452100057 L3.652154821949999 2.3247179202100057 L3.6184634159500533 2.3182075032099903 L3.5855044319500493 2.324880680209972 L3.5737856819500493 2.321706852209971 L3.5669497439499978 2.303965966209958 L3.568333207950012 2.28423126621 L3.577122269950017 2.273041487209994 L3.590143103950048 2.2714138832099735 L3.613906123950038 2.286428532209996 L3.620091019950017 2.290294091209958 L3.6333559939499978 2.291352034209993 L3.6372622439499978 2.2833767742099695 L3.625299353950048 2.266042789209976 L3.619765498950038 2.249319157209996 L3.618626176950009 2.2459418782099903 L3.6383201869500326 2.2365831542100096 L3.6646059939499978 2.2342231282099903 L3.675510941950016 2.234955550209989 L3.6768130259500467 2.235036930209972 L3.68080065595003 2.222870589209961 L3.674127478950048 2.2069607582099735 L3.662734248950038 2.1931668132099986 L3.6527244839500312 2.1873074382099986 L3.652643103950048 2.187266748210007 L3.6177309939499978 2.1895047032100052 L3.6065005259500467 2.184174300209989 L3.594374873950038 2.167409977209971 L3.5942934939499978 2.1673285972099876 L3.630833207950012 2.1702175942100013 L3.6695701869500326 2.178640446209968 L3.706028519950017 2.19243439121 L3.7281639369500326 2.2069607582099735 L3.7349184939499978 2.2114366702100057 L3.7443585979500185 2.22563751621 L3.748997269950017 2.2325955242099695 L3.748915889950034 2.232636214209961 L3.743951696949999 2.24712189121 L3.73353503095003 2.258148909209993 L3.7315005259500467 2.269135237209994 L3.7390688849500506 2.276662907209996 L3.7485089889500145 2.277029118209967 L3.757949092950035 2.2734890782100052 L3.7661684939499978 2.269135237209994 L3.7644595099500506 2.2654731282099903 L3.759576696949999 2.258718571209968 L3.758762894950017 2.2522488442100013 L3.769342321949999 2.249319157209996 L3.7798403689499978 2.255056461209975 L3.782119014950034 2.2679552242099845 L3.7822817759500467 2.269053857209954 L3.7764224009500467 2.3501085452100057 L3.779270707950012 2.3654080242099695 L3.784641801950009 2.377167464209961 L3.785781123950038 2.379812321209968 L3.8035220099500506 2.408865055209972 L3.8071841189499978 2.416921696209968 L3.8169497439499978 2.417654118209967 L3.8754621139500145 2.434255680209972 L3.890761592950035 2.4062608882099568 L3.896539587950052 2.400157373210007 L3.904921748950038 2.398041487209994 L3.8914126349500506 2.393158675209989 L3.871148962950052 2.3872586102099973 L3.862522660950013 2.37594676120996 L3.86244128095003 2.375906071209968 L3.8699282599500506 2.3647976722100026 L3.88783190595003 2.3591824382099986 L3.910292842950035 2.357758284209993 L3.9307192759500467 2.3591824382099986 L3.9419497439499978 2.3612576332099735 L3.950982946949999 2.364065250210004 L3.954807816950016 2.366018375210004 L3.958469926950009 2.367849430209972 L3.964898962950052 2.3728543132099986 L3.968805212950052 2.3804226722100026 L3.9702700569500493 2.389455875210004 L3.973281123950038 2.3970242352099973 L3.981907426950009 2.400157373210007 L3.996067582950012 2.403249821209968 L4.016900915950053 2.416921696209968 L4.0297589889500145 2.4200141442099863 Z M3.7387433639500145 2.0139269042100096 L3.7239321659500533 2.027110498210007 L3.720758337950052 2.042247216209958 L3.7270246139500145 2.0479438312099916 L3.7356509159500533 2.052501123210007 L3.7427309939499978 2.059174300209989 L3.7529849009500467 2.066172998210007 L3.757867712950052 2.075368961209975 L3.740045446949999 2.0802517742099695 L3.710748571949999 2.0708116702100057 L3.6863345099500506 2.057872216209958 L3.6433657599500506 2.053518375210004 L3.6333559939499978 2.043549300209989 L3.6336001349500506 2.027029118209967 L3.641575394950017 2.0116482582099735 L3.6592349009500467 2.005137841209958 L3.681695837950052 2.003347477209971 L3.69056628095003 1.997813623210007 L3.6871483119500326 1.9894314612099748 L3.6851138069500493 1.9796658362099748 L3.68470690595003 1.9691677892099761 L3.6865786509500467 1.9581814612099748 L3.6938214889500145 1.9540310712099682 L3.719049353950048 1.9731961102099973 L3.726373571949999 1.9773058102099554 L3.736301957950012 1.97954376621 L3.7543683639500145 1.9873155762100083 L3.7621808639500145 1.999278466209958 L3.755344926950009 2.008393050209989 L3.7387433639500145 2.0139269042100096 Z" fill="black" stroke="black" stroke-width="0.5" vector-effect="non-scaling-stroke"/></svg>