<svg xmlns="http://www.w3.org/2000/svg" viewBox="0 0 6.481190241600061 2.198167242480025"><path d="M2.53733243103823 1.8242489103970811 L2.547834700800017 1.8151704502399681 L2.5555658197999875 1.8056489662399642 L2.559065168800025 1.794296427239992 L2.561506575800017 1.782333536239996 L2.5650059238000082 1.771103068239988 L2.612287825800017 1.708603068239988 L2.6294590488000082 1.6691743572399602 L2.6777175128000223 1.6379243572399602 L2.6952956378000223 1.6202648512399875 L2.6952956378000223 1.571884318239988 L2.7026198568000197 1.5499523512399875 L2.704084700800017 1.5377046302399933 L2.6987136068000197 1.527165893240003 L2.690982486800003 1.5179292392399972 L2.686262434800021 1.507187052239992 L2.686018293800025 1.4959972732399862 L2.6987136068000197 1.474594279239959 L2.6992832678000056 1.4636079502399681 L2.698794986800003 1.4526216222399668 L2.702131575800017 1.4415132242399906 L2.7226393878000223 1.4267427162399642 L2.752668684800021 1.4163260492400056 L2.779686913799985 1.4031424562399977 L2.7915684238000082 1.3801118572399602 L2.782209700800017 1.3587088622400003 L2.7599929038000184 1.341781779239959 L2.675357486800003 1.3063000082399796 L2.634341861800003 1.2971040442399655 L2.5930007158000237 1.2951509192399655 L2.558169986800003 1.304306193239988 L2.5471022788000184 1.312484904239959 L2.5357090488000082 1.3243664142399822 L2.526919986800003 1.337468627240007 L2.5234206378000223 1.3493501382399629 L2.521955793800025 1.3648937582399796 L2.518049543800025 1.3738862712399893 L2.487043684800021 1.4028983152400016 L2.4745111327999822 1.4122163492399906 L2.4600254558000003 1.4183198642399972 L2.4419590488000082 1.4210461012399875 L2.4053379558000003 1.415634318239988 L2.387190168800025 1.415593627240007 L2.370100325800017 1.424464070239985 L2.352033918800025 1.447250529239959 L2.3428379558000003 1.4514009192399655 L2.3252598308000003 1.4477388102399615 L2.3146804038000184 1.4415539142399822 L2.2844069658000237 1.4141694742399906 L2.2382643878000223 1.3919119872400003 L2.211408918800025 1.3740083412399642 L2.145002668800025 1.3591157632399629 L2.1048822267999796 1.357244018240003 L2.0858392577999822 1.3527681072399602 L2.0806309238000082 1.349675659239999 L2.0695632158000237 1.3410493572399602 L2.0646804038000184 1.3384858802399933 L2.055647200800017 1.337875529239959 L2.049543684800021 1.3406831462399893 L2.0440098308000003 1.3441418052399783 L2.0368483718000263 1.3459321692399655 L2.027815168800025 1.3436128332399946 L2.018049543800025 1.3393403722399668 L2.008283918800025 1.337468627240007 L1.9992507158000237 1.3421886802399783 L1.9932285808000003 1.3480480552399783 L1.986799543800025 1.3524018962399893 L1.9797194658000237 1.3533784582399946 L1.9721511068000197 1.3493501382399629 L1.9660475908000237 1.3410493572399602 L1.9604323568000197 1.3295747472399668 L1.9564447267999796 1.3175304762399875 L1.9548171218000263 1.307724161239996 L1.9500970697999875 1.2928722732399862 L1.9387038408000237 1.2850597732399862 L1.925357486800003 1.279281779239959 L1.914533918800025 1.2702485752399681 L1.908593163799985 1.257187052239992 L1.908674543800025 1.2468924562399977 L1.914533918800025 1.2223970132399629 L1.9155104818000197 1.1927746172399836 L1.9101393878000223 1.1682791742400056 L1.895002668800025 1.156234904239959 L1.8661126947999875 1.164047404239959 L1.8535801428000056 1.1633149822399602 L1.834374413799985 1.1564790442399655 L1.8154942058000003 1.147567911239996 L1.8046706378000223 1.1404878332399946 L1.7974277988000082 1.126531127240007 L1.7962884767999796 1.115056518240003 L1.7923822267999796 1.1092785232399862 L1.7773268878000223 1.1125337322399602 L1.7638991538000184 1.122177286239996 L1.7559238928000056 1.132878784239999 L1.7475417318000197 1.137802286239996 L1.7326491538000184 1.1299490962400043 L1.729231184800021 1.120224161239996 L1.7355788408000237 1.1094819742399906 L1.7446934238000082 1.0986177162399642 L1.7494134767999796 1.0886893312399977 L1.7436354818000197 1.0700532632399629 L1.7321608718000263 1.0453136802399783 L1.7243483718000263 1.0190278722399668 L1.728905663799985 0.9958345132399629 L1.7376947267999796 0.9870454502399681 L1.7459955077999822 0.9857433672399836 L1.7670729818000197 0.9896496172399836 L1.774397200800017 0.9875337322399602 L1.777815168800025 0.9828136802399783 L1.7774082678000056 0.978134318239988 L1.7612136068000197 0.9695893962399893 L1.758528059800021 0.9562837322399602 L1.7642246738000082 0.9449718832399796 L1.7773268878000223 0.9446870522399919 L1.8156569658000237 0.9544933672399836 L1.8529291017999796 0.9510347082399946 L1.8901198568000197 0.9435070392399822 L1.928205793800025 0.9412690832399946 L1.9478184238000082 0.9454194742399906 L1.9863926428000056 0.9588472082399946 L2.0029942058000003 0.9617362062399977 L2.033674543800025 0.9617362062399977 L2.0366042318000197 0.9585623772400069 L2.037824934800021 0.9514822992400056 L2.0360345697999875 0.9444429112399959 L2.030256575800017 0.9412690832399946 L2.0145501947999875 0.9365897212400043 L2.010725325800017 0.9260102942399655 L2.0166660808000003 0.9144543052399783 L2.0306634767999796 0.9070893962399893 L2.047346418800025 0.907821818239988 L2.086327538799985 0.9191743572399602 L2.1055332678000056 0.9207612712399893 L2.078596418800025 0.9042003982399862 L2.0468581378000223 0.8924816482399862 L2.0153639968000263 0.8914643962399893 L1.9888340488000082 0.9070893962399893 L1.9706862628000223 0.8944347732399862 L1.9502598308000003 0.8933768312399977 L1.9076979818000197 0.9002534582399946 L1.8345371738000082 0.8976086012399875 L1.811506575800017 0.9002534582399946 L1.791487043800025 0.9066011142399972 L1.7813145178000056 0.9115246172399836 L1.773908918800025 0.9170584712400043 L1.7678054038000184 0.9179536542399589 L1.7360671218000263 0.9133149822399602 L1.7166986327999822 0.9151053462400043 L1.660627668800025 0.9275972082399946 L1.697737043800025 0.8917085362399959 L1.7168613928000056 0.8827974042399589 L1.7499831378000223 0.8797863362399809 L1.7573073568000197 0.872665568239988 L1.6948073568000197 0.8282726642399822 L1.686262434800021 0.8094331462399893 L1.6535475908000237 0.7837576902400016 L1.6532220697999875 0.763738159239999 L1.6748692058000003 0.7483979892399972 L1.7412754558000003 0.7508393962399893 L1.7630853517999796 0.7357433672399836 L1.7803379558000003 0.7416027422399836 L1.7980788408000237 0.7422944742399906 L1.8156569658000237 0.7388765052399933 L1.8478835288000184 0.7247570392399822 L1.8560215488000082 0.7198335362399959 L1.8588698568000197 0.7132824302399783 L1.8592767577999822 0.7010347082399946 L1.8527663408000237 0.6771089272399919 L1.836653059800021 0.659774943239988 L1.8146804038000184 0.6476899822399602 L1.7909987628000223 0.6396333412399642 L1.803449934800021 0.6526948642399972 L1.8330723308000003 0.6679536542399589 L1.8456048827999822 0.6811372472399668 L1.8371413408000237 0.6839448642399972 L1.818749413799985 0.6849621172399836 L1.811506575800017 0.6873628332399946 L1.7909987628000223 0.7010347082399946 L1.7896152988000082 0.7044933672399836 L1.789778059800021 0.7104341222399668 L1.784162825800017 0.7215425212399893 L1.7744785808000003 0.7225597732399862 L1.768293684800021 0.7180838622400003 L1.7631667318000197 0.7118989662399642 L1.756819075800017 0.7084809972399668 L1.6924473308000003 0.7000581462399893 L1.6659987628000223 0.6886242262399875 L1.6395501947999875 0.6668550212399893 L1.6463861327999822 0.6674653722399668 L1.660627668800025 0.6665701902400016 L1.6674636068000197 0.6668550212399893 L1.6603835288000184 0.6488293052399783 L1.6660801428000056 0.636337443239988 L1.7114902988000082 0.6087902422399836 L1.7219069658000237 0.6041515702399849 L1.7324050128000223 0.6069998772400069 L1.7494134767999796 0.6191255292399589 L1.7505527988000082 0.5674490962400043 L1.7173496738000082 0.5182954502399681 L1.7020501947999875 0.48029089324000296 L1.756819075800017 0.4620210362399959 L1.767968163799985 0.4627534582399946 L1.7889642577999822 0.4671886802399783 L1.8008457678000056 0.4682466222399668 L1.8096348308000003 0.4661307372400003 L1.8239577468000263 0.45677201323996286 L1.846662825800017 0.4506684972399668 L1.8588698568000197 0.4423677162399642 L1.8730300128000223 0.4350434972399668 L1.8934564447999875 0.43414831524000164 L1.9466791017999796 0.46075964324000296 L1.949690168800025 0.461003784239999 L1.961653059800021 0.4620210362399959 L1.973371809800021 0.4530285232399862 L1.9741042318000197 0.4422863362399809 L1.967186913799985 0.4328462322399602 L1.9548171218000263 0.427353068239988 L1.9660475908000237 0.4146984452399849 L1.9880202468000263 0.40879838023999326 L2.076561913799985 0.4077811272400069 L2.1200189447999875 0.413681193239988 L2.166731184800021 0.41185013823996286 L2.2188145178000056 0.40151485123998754 L2.2697585288000184 0.39915482523996815 L2.3117507158000237 0.4211274822399602 L2.3312819658000237 0.3979341222399668 L2.323225325800017 0.3798677162399642 L2.259341861800003 0.33478308123999767 L2.2505527988000082 0.3251802162399642 L2.2534011068000197 0.3143159582399946 L2.266015038799985 0.3037772212400043 L2.2793613928000056 0.29734818523996154 L2.2941725908000237 0.29506953923998225 L2.3117507158000237 0.2969819742399906 L2.3398268878000223 0.3076020912399642 L2.396060611800003 0.33836381023996154 L2.4250319658000237 0.3447114662399642 L2.4531081378000223 0.33726517723999194 L2.4445632158000237 0.3201753332399946 L2.418440168800025 0.3017427162399642 L2.3942702468000263 0.2901460362399959 L2.4140456378000223 0.28367631023996154 L2.502424543800025 0.2803397212400043 L2.5373366538000184 0.2733410232399862 L2.5488926428000056 0.26145951323996286 L2.5607741538000184 0.22862259923999062 L2.5650059238000082 0.22182735123998754 L2.6308425128000223 0.21360795023996815 L2.6537103517999796 0.21499141423998225 L2.6733229818000197 0.2225597732399862 L2.709455793800025 0.2440441482399862 L2.729475325800017 0.24860144024000164 L2.7479486327999822 0.244206909239999 L2.7635736327999822 0.23566198724000031 L2.7793613928000056 0.22947709123996418 L2.7983229818000197 0.2324067792399589 L2.8560215488000082 0.253524943239988 L2.873762434800021 0.25600703923998225 L2.8916660808000003 0.2518159582399946 L2.8877598308000003 0.24253861423999723 L2.871565168800025 0.23338334123996418 L2.8530104818000197 0.22931433123999767 L2.8530104818000197 0.22182735123998754 L2.879296288799985 0.22321081524000164 L2.8897129558000003 0.2203625082399796 L2.8939447267999796 0.21128861423999723 L2.897444075800017 0.20034297623998754 L2.9061517577999822 0.1963960362399959 L2.9174636068000197 0.19737259923999062 L2.928694075800017 0.2014009192399655 L2.9467604818000197 0.21653763823996286 L2.959455793800025 0.23387162223996683 L2.975569075800017 0.2452241612399959 L3.0038080077999822 0.24233516423998225 L3.0153639968000263 0.23765580223999194 L3.0212233718000263 0.2335054112399959 L3.0444167318000197 0.20839961723998357 L3.0469395178000056 0.2031099042399589 L3.0379876947999875 0.1877290442399655 L3.0314772788000184 0.1818696692399655 L3.0225254558000003 0.1777192792399589 L3.0147129558000003 0.17259232523996815 L3.011294986800003 0.16347774223998357 L3.0111322267999796 0.15403763823996286 L3.010155663799985 0.14695756023996154 L3.0078770178000056 0.1402843832399796 L3.0038080077999822 0.1324718832399796 L3.0346511068000197 0.1219331462399893 L3.0728184238000082 0.13800573724000031 L3.1403639968000263 0.18089310723996022 L3.165591861800003 0.18439245623999767 L3.2433913408000237 0.1740571692399655 L3.2669916017999796 0.17723099723996683 L3.3083327468000263 0.1913911542399589 L3.3290033197999875 0.19456498223996022 L3.3476393878000223 0.1893159582399946 L3.3390944658000237 0.16343705223999194 L3.3532546218000263 0.15293900523999326 L3.3766921218000263 0.15330521623996418 L3.4252761068000197 0.1697847082399946 L3.6388991538000184 0.2014009192399655 L3.6406081378000223 0.2014009192399655 L3.633528059800021 0.17812618023997828 L3.646955793800025 0.16534948724000031 L3.6712884767999796 0.16030391423998225 L3.764387434800021 0.1603852942399655 L3.7748854818000197 0.15729284624000428 L3.7744785808000003 0.15021276824000296 L3.7673171218000263 0.14313269024000164 L3.7569004558000003 0.13995886224000031 L3.7282546218000263 0.12156693523996154 L3.7131179038000184 0.08128373223996022 L3.709699934800021 0.040919148239986214 L3.7160475908000237 0.022608601239987536 L3.7336257158000237 0.030176961239980926 L3.7665033197999875 0.06346146623996418 L3.7848952468000263 0.07102982523996815 L3.806216861800003 0.07554642723999194 L3.823225325800017 0.08641068523996154 L3.8534987628000223 0.11196407023998489 L3.875715559800021 0.12059037223996683 L3.9079421218000263 0.12636836723998357 L3.937076236800003 0.12315384923999062 L3.949690168800025 0.10484330223999194 L3.9419590488000082 0.0878755292399589 L3.926740950800017 0.07652298923999723 L3.9159987628000223 0.06378698724000031 L3.9218581378000223 0.04307572423999062 L3.9155104818000197 0.042221232239960216 L3.9064772788000184 0.038314982239960216 L3.9018386068000197 0.03693151824000296 L3.9258457678000056 0.021550659239998993 L3.9565261068000197 0.026596232239960216 L4.011701887800022 0.05674759923999062 L4.004296288799985 0.06419388823996286 L4.016584700800017 0.07697058123999767 L4.02488548180002 0.1012218832399796 L4.03855735680002 0.11196407023998489 L4.057356184800021 0.1171724042399589 L4.068098371800026 0.11595170023996815 L4.07566673180002 0.11509720823999459 L4.092512434800021 0.1063081462399893 L4.107405012800022 0.09153763823996286 L4.099999413799985 0.08470170023996815 L4.114240950800017 0.06110144024000164 L4.1356439447999875 0.06842565923999899 L4.158104882799982 0.08714310723996022 L4.175683007799982 0.09776322423999062 L4.1961908197999875 0.09511836723998357 L4.198225325800017 0.08860795023996815 L4.193912173800008 0.07990026824000296 L4.195539778800018 0.07102982523996815 L4.2080723308 0.06118282023998489 L4.219709700800017 0.058090372239966825 L4.232974673800008 0.059799357239960216 L4.267561262800022 0.0691987712399893 L4.305647200800017 0.0881196692399655 L4.309553450800017 0.09214798923999723 L4.311506575800017 0.09776322423999062 L4.312890038799985 0.1051281332399796 L4.322167382799982 0.10679642723999194 L4.51121360680002 0.1051281332399796 L4.530500715800024 0.10822058123999767 L4.571272200800017 0.1219331462399893 L4.632877017800006 0.12937943523996154 L4.68886660179998 0.146550659239999 L4.728987043800025 0.15245072423999062 L4.7510410808 0.15293900523999326 L4.767642642800006 0.14976517723999194 L4.801496809800021 0.13564571123998093 L4.81590110680002 0.1324718832399796 L4.857486392800006 0.13438431823998798 L4.896223371800026 0.1404878332399946 L4.933495507799982 0.1510265702399849 L4.97019798180002 0.16661088023999326 L5.012027408800002 0.1898856202399699 L5.05808860680002 0.2154796952399849 L5.10691673180002 0.22471634923999062 L5.148664778800018 0.2382661542399589 L5.1688470697999875 0.24233516423998225 L5.347395246800026 0.2503918052399783 L5.506249413799985 0.24546830223999194 L5.640201236800003 0.2405447992400056 L5.79433535179998 0.26036088023999326 L5.948225325800017 0.2652843832399796 L6.104475325800017 0.2848156332399796 L6.14589785179998 0.27789831524000164 L6.1846348308 0.26426713023999326 L6.21433860680002 0.24546830223999194 L6.250227278800018 0.21067826323996286 L6.26975121079996 0.22944861423997764 L6.314606353800052 0.24154089923994349 L6.336000397799971 0.2532197722399374 L6.359564850799977 0.2829853972400045 L6.3689699608000225 0.2920804502399861 L6.38075218780002 0.29926347423992894 L6.406538727800033 0.3105806122399102 L6.41764916080006 0.3175052552399862 L6.412998281799979 0.33636715224000824 L6.3887103588000045 0.3284089812399671 L6.344733714800036 0.3470124972400086 L6.2635500397999735 0.3504748182400377 L6.231820710799973 0.3586913702399741 L6.304374420799967 0.3734708312399917 L6.328042227800005 0.3730057432399647 L6.307785065800083 0.3871650852400208 L6.190892975800033 0.38597652723999687 L6.135082429799972 0.402047898239978 L6.113481680800014 0.41677568123996167 L6.121956615800023 0.43439734423996157 L6.104696686800018 0.4559464162400175 L6.073587474799972 0.5312389782399762 L6.015503163800069 0.6152648572399997 L5.998346588800011 0.6365038712399738 L5.955558503799999 0.6780000462399371 L5.944499745800009 0.70053097023996 L5.9270630298000455 0.7152521332399502 L5.925586172800045 0.7164989882400121 L5.836496002800054 0.7577367812400055 L5.708958567800003 0.8170096492399992 L5.677442703800061 0.8735685032399729 L5.6417792058000416 0.9375707662399648 L5.660022458800022 0.9830325622399769 L5.680433176800044 1.0338956352400217 L5.730042552800022 1.1578673972400182 L5.786059804800054 1.2971870572399737 L5.72528832080004 1.3728930312399612 L5.714022857799982 1.423794317239988 L5.726528555800051 1.4709749002399874 L5.750758711799982 1.4979253392400338 L5.771176992800001 1.5206359512400027 L5.8108644928000714 1.5665762992399621 L5.861610749799972 1.6041450662399726 L5.867760244800046 1.633238897239984 L5.861300689800082 1.6594388482400078 L5.862747630800065 1.6882742982400387 L5.881816233800059 1.6923567352399473 L5.90026472080006 1.700469936239962 L5.906362539800021 1.7246286672400188 L5.901608307800039 1.7374702602400092 L5.894373607799984 1.7484773412399832 L5.890549551800028 1.759975347239937 L5.89613060580006 1.7740313372399399 L5.90429548179997 1.7796123922399616 L6.0055812897999985 1.8017299042399557 L6.02201439480006 1.8115742652399334 L6.0304893297999556 1.8313663392399988 L6.017983632800046 1.844853887239971 L5.994625885800012 1.8537680722400083 L5.931890696799961 1.8675915172399655 L5.7875171818000055 1.879348170239986 L5.768799876800038 1.8808723612399731 L5.755777415800019 1.885135666240025 L5.763735586799974 1.887357752240014 L5.78502627680006 1.8976672012399334 L5.757327708800027 1.905160284239976 L5.74358177780001 1.9111289112399916 L5.733608226800008 1.9198880672399596 L5.729009023800039 1.9367604222400487 L5.7400677808000395 1.964975754239937 L5.738930898800042 1.9776623192399612 L5.721567617800012 1.9878167372400313 L5.638885325800054 2.0034488572399667 L5.6226072498000335 2.0122338522399517 L5.615837636799988 2.018047450239955 L5.610876699800052 2.025979782239979 L5.608189525800007 2.0357207902399423 L5.609119700800072 2.040733404240008 L5.611393463800077 2.044712489239977 L5.613977285799983 2.057967494239996 L5.616302724800015 2.061223109239968 L5.6181630768000375 2.0647887832399547 L5.616044342800045 2.0854593562399444 L5.613253815799986 2.089748500240013 L5.606019114800027 2.094580246240021 L5.593720124800079 2.0978875382400375 L5.580077545799973 2.0983784642399783 L5.567778554800036 2.1007039032399817 L5.559200267800001 2.1092821912399202 L5.559717031800055 2.1218654032400437 L5.566745026800042 2.1385310512399727 L5.576150136800003 2.154344040239984 L5.584108307800072 2.164834356239915 L5.551138743800003 2.176306524239955 L5.396832916800001 2.1457399142399325 L5.316527741800051 2.1430010632399856 L5.292704905800001 2.136774053239982 L5.27249942080001 2.1239841362400185 L5.2358091548000445 2.093520880239943 L5.212244700800021 2.083443975239909 L5.177724844800046 2.0770877742399776 L5.160361562800027 2.0768810682399206 L5.142791576799958 2.0789998022399985 L5.1272886468000465 2.0774495092399903 L5.1161265368000315 2.070344000239949 L5.1038275458000655 2.0652538712399533 L5.085327383800056 2.069878912239922 L5.069721100800017 2.0825654762399566 L5.059489167800017 2.0973966112399935 L5.04750023479999 2.111245896239957 L5.026933014800072 2.121116095239934 L5.009259674799999 2.1239582982400194 L4.931641672800076 2.121684535239986 L4.898155345799999 2.127575648240004 L4.86549584080003 2.1380142872399475 L4.835936920800002 2.152121953239977 L4.8295290438000436 2.158581507240008 L4.826015045799998 2.165945399240009 L4.821260814800006 2.1720690572399874 L4.811028879800027 2.174601201239973 L4.8014170638000095 2.1728442032399826 L4.7829169018 2.1656095022400237 L4.773408437800008 2.164265915239959 L4.7598692128000195 2.1685550592399423 L4.746226634800017 2.1751696422400144 L4.730723704799992 2.176616583240026 L4.712223542800068 2.165299444239942 L4.678737213799984 2.1395129042400427 L4.662097402799951 2.1307279112399513 L4.661852109800002 2.130670914240035 L4.582498846799972 2.112232165239938 L4.569803294799975 2.1092821912399202 L4.52835879580001 2.093288336239972 L4.494355703799975 2.0716100722399986 L4.3996844797999515 1.9883851782399873 L4.366404857800028 1.9676629282399531 L4.255920644800078 1.9180793922399815 L4.247239004800029 1.9057545632400164 L4.244241770800009 1.885135666240025 L4.247239004800029 1.8759630992399323 L4.252923411799991 1.8700203102399158 L4.256437409800036 1.8640258442399968 L4.253130117800048 1.8544915422400052 L4.245688711800021 1.8496081192399814 L4.233906484800023 1.8464558562399205 L4.023790111800018 1.836456467240005 L3.9986753648000146 1.8235115202399825 L3.9858596098000234 1.8035385802399517 L3.9765578518000027 1.7832555802399455 L3.9614683338000063 1.7693029432400422 L3.946172109800038 1.769044561239987 L3.9349734687999884 1.771108642239973 L3.881266510799996 1.7810076552400247 L3.8562551177999964 1.7821445362399473 L3.8326906647999905 1.7802325082399264 L3.810573151800007 1.772971970240043 L3.7894891668000454 1.7581925102400149 L3.7841148188000133 1.7502601782399907 L3.7832879947999842 1.7436197562399869 L3.7829896808000782 1.7425756562400139 L3.7814276437999794 1.7371085262400143 L3.772849355800041 1.7296154432399717 L3.7631341857999914 1.725998093239987 L3.7277875068000057 1.72183814023996 L3.6883583887999905 1.708376430239987 L3.6277936108000333 1.6692573702399685 L3.5876926988000193 1.6576818492399426 L3.5775641178000726 1.6579919082400139 L3.5710528878000147 1.659852260240008 L3.564851715800039 1.6606274062400317 L3.5557566638000466 1.6576818492399426 L3.549452139800046 1.651816574240037 L3.5375665598000055 1.633703985240011 L3.530745270800047 1.6268310192400364 L3.5128652248000023 1.6190278782400256 L3.4946751208000464 1.6172967172399595 L3.48185936579997 1.6239371392400486 L3.4807224848000757 1.6412487442399666 L3.5087311107999923 1.6683271942399145 L3.515552399800036 1.6842952122399666 L3.4957086498000294 1.6982478482399372 L3.4636692618000424 1.707058680239932 L3.4479596268000634 1.707058680239932 L3.433283518799975 1.700469936239962 L3.4210878808000516 1.678920863240002 L3.411889476800063 1.6542712052399864 L3.3981435448000283 1.633703985240011 L3.3722019767999925 1.6244280652399894 L3.3253831288000626 1.6251256972399872 L3.3018186748000673 1.6288205622399872 L3.2800112208000414 1.6362361302399862 L3.2660305158000185 1.6438610812400114 L3.2060105698000356 1.67659542423997 L3.1804824127999822 1.6860005352400051 L3.1036912338000135 1.6919950012400378 L3.0795066638000534 1.7002890682399894 L3.058591175800011 1.710558230239947 L3.047984040800081 1.7157661592399975 L3.0219391178000237 1.7134407202399657 L2.9958941968000303 1.704526535240042 L2.9646816318000546 1.7002373922399912 L2.950005524800069 1.7105985162400046 L2.9316087148000562 1.7382454082400116 L2.916002431800017 1.7448599912399985 L2.855230947800031 1.7484773412399832 L2.7850543528000387 1.7450150202399541 L2.7650038968000032 1.747366298240003 L2.712500641800027 1.7731269992399987 L2.6728131418000416 1.784340785239955 L2.660307444800047 1.7920922502399392 L2.6438743397999858 1.8158634092400021 L2.632712229800056 1.8259661522399497 L2.609354482800022 1.8329941462399475 L2.5808290918000623 1.8337951302399702 L2.53733243103823 1.8242489103970811 Z M2.174543684800021 1.5792492262399875 L2.1691725908000237 1.5551606852399615 L2.186506575800017 1.540634318239988 L2.2153965488000082 1.5353039142399822 L2.244530663799985 1.5389253332399946 L2.2533197267999796 1.562566284239999 L2.2336257158000237 1.5838878982399862 L2.201887434800021 1.5928397212400043 L2.174543684800021 1.5792492262399875 Z M1.4618158197999875 1.1876069742399906 L1.4863112628000223 1.1923677162399642 L1.5197585288000184 1.2042492262399875 L1.549543684800021 1.2199556072399602 L1.5644362628000223 1.2360688882399629 L1.5561354818000197 1.2501476642399822 L1.492577538799985 1.226547404239959 L1.4688145178000056 1.2360688882399629 L1.481428450800017 1.237899943239988 L1.492903059800021 1.2408296302399933 L1.5025059238000082 1.2464448642399972 L1.5091791017999796 1.255925659239999 L1.4660475908000237 1.2525483802399933 L1.446841861800003 1.2465669352399615 L1.4272292318000197 1.2360688882399629 L1.423404361800003 1.2313081462399893 L1.4194167318000197 1.224228068239988 L1.413069075800017 1.2177583412399642 L1.403059309800021 1.2149507242399906 L1.387678450800017 1.214910034239999 L1.3859694658000237 1.2169445392399822 L1.3801100908000237 1.2223970132399629 L1.3781569658000237 1.2260591222399668 L1.3727858718000263 1.2405854892399972 L1.3692051428000056 1.2463227942399655 L1.3615554038000184 1.2529145912399642 L1.3547194658000237 1.256739461239981 L1.3398268878000223 1.2634126382399629 L1.3330723308000003 1.2628429762399875 L1.3237136068000197 1.2608898512399875 L1.315412825800017 1.262802286239996 L1.3117507158000237 1.2739106852399615 L1.3122389968000263 1.2800142002399681 L1.313459700800017 1.2864432372400003 L1.315412825800017 1.2924653722399668 L1.317935611800003 1.2974702552399933 L1.2949863928000056 1.3069917392399972 L1.2736647788000184 1.320948445239985 L1.2531569658000237 1.329208536239996 L1.2087233718000263 1.3107759192399655 L1.186018293800025 1.3113862712399893 L1.178694075800017 1.3198091222399668 L1.2006667318000197 1.3322602942399655 L1.1338535808000003 1.3806001382399629 L1.118147200800017 1.3850760492400056 L1.1021152988000082 1.3877615962400043 L1.0851882158000237 1.3937023512399875 L1.0560541017999796 1.4132336012399875 L1.0423822267999796 1.4190115962400043 L1.0197585288000184 1.4210461012399875 L0.9741042318000197 1.418604695239985 L0.9523757158000237 1.4221040442399655 L0.9413080077999822 1.434677286239996 L0.987857486800003 1.4501802162399642 L0.9543288408000237 1.4670259192399655 L0.9003737628000223 1.4709321692399655 L0.8861322267999796 1.4477388102399615 L0.8709955077999822 1.4422049562399977 L0.8525222008000171 1.4396821692399655 L0.8337233718000263 1.440333211239981 L0.8173659508000171 1.4446463622400003 L0.8021478517999796 1.4529878332399946 L0.7961257158000237 1.4572602942399655 L0.791487043800025 1.4551850992399906 L0.7802565758000171 1.4446463622400003 L0.7661777988000082 1.438380086239981 L0.7573073568000197 1.4450532632399629 L0.748762434800021 1.462021036239996 L0.7416009767999796 1.4652355552399783 L0.7383457678000056 1.4675142002399681 L0.7353347008000171 1.4688976642399822 L0.7284173827999822 1.469385945239985 L0.7280104818000197 1.465927286239996 L0.7227207678000056 1.4509126382399629 L0.7221511068000197 1.4477388102399615 L0.7079909508000171 1.447331909239999 L0.6904942058000003 1.4515229892399972 L0.6742181637999849 1.458358927239992 L0.6635573568000197 1.4656831462399893 L0.652815168800025 1.4708100992399906 L0.6411777988000082 1.4684093832399796 L0.629621809800021 1.4647065832399946 L0.6191237628000223 1.4656831462399893 L0.6117181637999849 1.4689790442399655 L0.5926751947999875 1.4747163492399906 L0.5849440758000171 1.4756522212400043 L0.5545892577999822 1.4858247472399668 L0.5262689447999875 1.499578002240007 L0.5131667318000197 1.5098725992399906 L0.5059238928000056 1.5131684972399668 L0.5029128258000171 1.5181733802399933 L0.5010410808000003 1.5554048252399681 L0.496565168800025 1.5773774822399602 L0.4880202468000263 1.599187377240007 L0.4604323568000197 1.640243693239988 L0.4522129558000003 1.6494803462400043 L0.44098248680000296 1.6575369872400003 L0.4310541017999796 1.6664074302399783 L0.42958925779998225 1.6760916742400056 L0.43414654880000825 1.6984712322399602 L0.42112571580002367 1.708603068239988 L0.2795241538000184 1.777328654239959 L0.24803001280002235 1.7779390052399933 L0.22125592380000825 1.7568208412399642 L0.22556907580001706 1.7451834712400043 L0.22190696580002367 1.734197143240003 L0.21197858080000032 1.725937052239992 L0.19798118480002103 1.722722534239999 L0.19529563780002235 1.7210542392399972 L0.193830793800025 1.7171479892399972 L0.1934238928000056 1.712468627240007 L0.19456321580002367 1.7083996172399836 L0.22093040380001838 1.7097017002399681 L0.22874290380001838 1.7083996172399836 L0.2357416017999796 1.7014822992400056 L0.246565168800025 1.6804048252399681 L0.25250592380000825 1.6712088622400003 L0.2901035808000003 1.6401216222399668 L0.307356184800021 1.6190441482399862 L0.316877668800025 1.6098481852399615 L0.32737571580002367 1.6060233152400016 L0.3418613928000056 1.6083833412399642 L0.35471946580002367 1.612899943239988 L0.3666823568000197 1.6157075602399615 L0.37888938780002235 1.612859252240007 L0.38434186180000296 1.6061860752399681 L0.39020123680000296 1.585312052239992 L0.3962233718000263 1.575546427239992 L0.43414654880000825 1.544540568239988 L0.4115228517999796 1.5316011142399972 L0.37303001280002235 1.5229341222399668 L0.303449934800021 1.5165864662399642 L0.28416282580001706 1.505844279239959 L0.24803001280002235 1.458562377240007 L0.2249994137999849 1.4477388102399615 L0.16005800779998225 1.447331909239999 L0.12766868480002103 1.4417166742400056 L0.0990228517999796 1.4278413492399906 L0.08250266880002499 1.4105480552399783 L0.07493430980002103 1.3988293052399783 L0.07444602880001838 1.3902843832399796 L0.08681581979998754 1.3855643312399977 L0.13938743480002103 1.3937023512399875 L0.12783144479998754 1.378524943239988 L0.1107416017999796 1.362899943239988 L0.10447532580001706 1.3508149822399602 L0.12571555980002103 1.3459321692399655 L0.14353782580001706 1.3526867262399875 L0.1595697267999796 1.3656261802399783 L0.17576438780002235 1.373682820239985 L0.19456321580002367 1.3658296302399933 L0.18609967380000825 1.3483735752399681 L0.19920188780002235 1.337875529239959 L0.22166282580001706 1.3345796302399933 L0.24241477880001838 1.3384858802399933 L0.23338157580001706 1.3270112712399893 L0.22125592380000825 1.3054862062399977 L0.1771478517999796 1.2601574302399783 L0.1556634767999796 1.245468302239992 L0.1323073568000197 1.2240246172399836 L0.11887962180002631 1.2149507242399906 L0.09055930980002103 1.200546427239992 L0.06354108080000032 1.181462768240003 L0.11619407580001706 1.194239461239981 L0.1325514968000263 1.194442911239996 L0.14744407580001706 1.1912690832399946 L0.14964134080002367 1.1877290442399655 L0.1501296218000263 1.1824800212399893 L0.1596511068000197 1.1740571692399655 L0.19781842380000825 1.1748709712400043 L0.22678977880001838 1.1799165442399655 L0.25193626280002235 1.193181518240003 L0.295393293800025 1.2357433672399836 L0.3010085288000184 1.2459565832399946 L0.303205793800025 1.2596284582399946 L0.3047520178000056 1.2655285232399862 L0.3089837887999849 1.268661661239996 L0.3145176428000056 1.2699230552399783 L0.3205397788000184 1.2702485752399681 L0.32965436180000296 1.2663423252399681 L0.3298171218000263 1.2576753332399946 L0.3242832678000056 1.2429048252399681 L0.32997988279998225 1.2166597082399946 L0.33486269479998754 1.2052257892399822 L0.3447910808000003 1.194442911239996 L0.35797467380000825 1.1878104242400056 L0.3901198568000197 1.178817911239996 L0.403059309800021 1.1708833412399642 L0.4144525387999849 1.1569673252399681 L0.41892845080001706 1.1495617262399875 L0.42576438780002235 1.1465913492399906 L0.444074934800021 1.146062377240007 L0.4467604818000197 1.148259643240003 L0.45017845080001706 1.153427286239996 L0.4533522788000184 1.1594087322399602 L0.45465436180000296 1.164047404239959 L0.45603782580001706 1.1760102942399655 L0.4600254558000003 1.1818696692399655 L0.47451113279998225 1.1876069742399906 L0.504377668800025 1.1904145912399642 L0.5140619137999849 1.1703950602399615 L0.5151198568000197 1.1428885492400056 L0.5195143878000223 1.123113159239999 L0.5531244137999849 1.1076509192399655 L0.6942376947999875 1.0995128982399862 L0.7814772788000184 1.0628511142399972 L0.8143548827999822 1.0579276122400003 L0.8252598308000003 1.0632987062399977 L0.8438145178000056 1.0867362062399977 L0.8549636068000197 1.0921072992400056 L0.8613112628000223 1.0942231852399615 L0.8719720697999875 1.103581909239999 L0.8792962887999849 1.1056977942399655 L0.889387434800021 1.103581909239999 L0.906965559800021 1.0941418052399783 L0.9133132158000237 1.0921072992400056 L0.9338210288000184 1.095321818239988 L0.9504225908000237 1.1012218832399796 L0.967512434800021 1.1043550212399893 L0.9891595697999875 1.0995128982399862 L1.021874413799985 1.0776216222399668 L1.042544986800003 1.0694836012399875 L1.0775384767999796 1.079005086239981 L1.1308425128000223 1.0721691482399862 L1.1532220697999875 1.0750174562399977 L1.1751947267999796 1.0822602942399655 L1.2209304038000184 1.0906831462399893 L1.2676426428000056 1.1082612712399893 L1.3222487628000223 1.1214855552399783 L1.342512434800021 1.136703654239959 L1.356998111800003 1.157333536239996 L1.3647292318000197 1.163437052239992 L1.3794590488000082 1.1708833412399642 L1.4198236327999822 1.1820324302399783 L1.4618158197999875 1.1876069742399906 Z M1.6127761068000197 1.1125337322399602 L1.6283197267999796 1.1287690832399946 L1.6314121738000082 1.1370291742400056 L1.6110671218000263 1.1448823642399972 L1.6027663408000237 1.153671427239992 L1.593326236800003 1.159978393240003 L1.5781081378000223 1.1569673252399681 L1.562076236800003 1.1509451902400016 L1.5449050128000223 1.1477713622400003 L1.5097487628000223 1.146062377240007 L1.4958327468000263 1.1485851642399822 L1.4660475908000237 1.157781127240007 L1.4549798827999822 1.1569673252399681 L1.3657871738000082 1.1125337322399602 L1.3144362628000223 1.1019136142399972 L1.2905104818000197 1.088974161239996 L1.2940098308000003 1.0678559972399668 L1.3066237628000223 1.0626069742399906 L1.3373041017999796 1.0682222082399946 L1.3521152988000082 1.0641125082399796 L1.3547194658000237 1.0587414142399822 L1.3615554038000184 1.0379487712399893 L1.3657871738000082 1.030624552239992 L1.3858067058000003 1.016505086239981 L1.406965559800021 1.011337443239988 L1.4289382158000237 1.0118257242399906 L1.5195143878000223 1.0259451902400016 L1.5614251947999875 1.0393729242400056 L1.574934309800021 1.0477143962399893 L1.5803054038000184 1.0573579502399681 L1.5793288408000237 1.0672456462399893 L1.577131575800017 1.0767671302399933 L1.5786777988000082 1.0852713622400003 L1.5868158197999875 1.0941011142399972 L1.6052077468000263 1.1060640052399933 L1.6127761068000197 1.1125337322399602 Z M1.5951979818000197 0.6634777422399836 L1.6208327468000263 0.6849214272399919 L1.6249017577999822 0.6961925862399809 L1.615949934800021 0.7118989662399642 L1.6054518878000223 0.7169038492399906 L1.5934889968000263 0.7149507242399906 L1.581607486800003 0.710556193239988 L1.571272200800017 0.7084809972399668 L1.5606113928000056 0.7105968832399796 L1.530256575800017 0.7215425212399893 L1.5097487628000223 0.7217459712400043 L1.475569075800017 0.7110851642399822 L1.4545729818000197 0.7084809972399668 L1.4487136068000197 0.710556193239988 L1.446272200800017 0.7150727942399655 L1.4419590488000082 0.7194673252399681 L1.4053379558000003 0.7241059972399668 L1.3944330077999822 0.7234956462399893 L1.3794590488000082 0.7184093832399796 L1.350569075800017 0.6763358152400016 L1.345279361800003 0.6706392002399681 L1.350080793800025 0.6589204502399681 L1.3625319658000237 0.6517183022399919 L1.379377668800025 0.6480155022400069 L1.401350325800017 0.646550659239999 L1.4391921218000263 0.6483410232399862 L1.5091791017999796 0.6600597732399862 L1.553205793800025 0.6534272862399959 L1.5754225908000237 0.6531424562399977 L1.5951979818000197 0.6634777422399836 Z M0.5229323568000197 0.7972261142399972 L0.4580723308000003 0.8059744872400003 L0.4261712887999849 0.8044282632399629 L0.293684309800021 0.7665864662399642 L0.275862043800025 0.7562511802399783 L0.28668561180000296 0.7397309972399668 L0.32542259080002367 0.736394409239999 L0.39939720080001706 0.7420503332399946 L0.6942376947999875 0.7215425212399893 L0.6747064447999875 0.7147065832399946 L0.6732416017999796 0.7077485752399681 L0.6857741538000184 0.7052257892399822 L0.7079095697999875 0.7118989662399642 L0.7196283197999875 0.7112886142399972 L0.7187331378000223 0.6760102942399655 L0.7354160808000003 0.6668550212399893 L0.7580397788000184 0.666081909239999 L0.7756179038000184 0.6623384192399655 L0.7904291017999796 0.6540376382399629 L0.8041009767999796 0.6396333412399642 L0.8076003258000171 0.6307222082399946 L0.8076003258000171 0.6222993572399602 L0.8094720697999875 0.6139985752399681 L0.8183425128000223 0.6054536542399589 L0.828840559800021 0.6029308672399836 L0.8716465488000082 0.6053722732399862 L0.8722975908000237 0.6054536542399589 L0.8978509767999796 0.6075288492399906 L0.9277175128000223 0.6132661542399589 L0.9452956378000223 0.622869018240003 L0.9227533197999875 0.6512707112399809 L0.9325189447999875 0.6674653722399668 L0.951643293800025 0.6808117262399875 L0.9678379558000003 0.6873628332399946 L1.0683425128000223 0.6838227942399655 L1.1652663408000237 0.7083996172399836 L1.1807285808000003 0.7215425212399893 L1.1838210288000184 0.7318371172399836 L1.1787754558000003 0.7472993572399602 L1.1807285808000003 0.7562511802399783 L1.1896804038000184 0.7657319742399906 L1.2106764968000263 0.7748058672399836 L1.2187331378000223 0.7805024822399602 L1.2251621738000082 0.7866059972399668 L1.239240950800017 0.7950288492399906 L1.2463210288000184 0.8006440832399946 L1.2492507158000237 0.8052420652400016 L1.2502272788000184 0.8104097082399946 L1.2497389968000263 0.8217622472399668 L1.252912825800017 0.8283540442399655 L1.2596673827999822 0.8303071692399655 L1.2666660808000003 0.8304292392399972 L1.270246809800021 0.8314058022399919 L1.2717116538000184 0.8516694742399906 L1.2647129558000003 0.8621268312399977 L1.2502272788000184 0.863347534239999 L1.2089675128000223 0.8482515052399933 L1.1984694658000237 0.8459321692399655 L1.187971418800025 0.8450369872400003 L1.1807285808000003 0.8484956462399893 L1.178205793800025 0.8548839922399836 L1.173404361800003 0.8582205812399977 L1.1603835288000184 0.8524425862399809 L1.1437819658000237 0.8568371172399836 L1.1266921218000263 0.8569184972399668 L1.1107416017999796 0.8597261142399972 L1.098371809800021 0.8723807372400003 L1.107811913799985 0.8725434972399668 L1.114240950800017 0.8751476642399822 L1.118147200800017 0.8806001382399629 L1.1193679038000184 0.8893892002399681 L1.117903059800021 0.901962443239988 L1.1132643878000223 0.9044038492399906 L1.1054518878000223 0.9045259192399655 L1.0947910808000003 0.910222534239999 L1.076561913799985 0.9159191482399862 L1.047834700800017 0.9164888102399615 L1.0212233718000263 0.9114432372400003 L1.0095046218000263 0.9002534582399946 L1.020490950800017 0.8897961012399875 L1.0423822267999796 0.8815767002399681 L1.0580886068000197 0.8732759192399655 L1.0505202468000263 0.8627778722399668 L1.0334304038000184 0.8620454502399681 L1.008772200800017 0.8680675862399809 L0.9843581378000223 0.8773042392399972 L0.9678379558000003 0.8859712322399602 L0.9463535808000003 0.9103852942399655 L0.9121738928000056 0.968368693239988 L0.8861322267999796 0.9896496172399836 L0.8423496738000082 1.001938029239959 L0.7868483718000263 1.005437377240007 L0.732893293800025 0.997665568239988 L0.6942376947999875 0.9759777422399836 L0.7033522788000184 0.9725190832399946 L0.7121413408000237 0.9676362712399893 L0.7284173827999822 0.954900268240003 L0.7145827468000263 0.9442394612399809 L0.6963535808000003 0.925847534239999 L0.6806472008000171 0.9056245522399919 L0.6738112628000223 0.8893892002399681 L0.6738112628000223 0.8652192792399589 L0.6709629558000003 0.8510591222399668 L0.6611159508000171 0.8399914142399822 L0.6132643878000223 0.810165568239988 L0.5859206378000223 0.8003592522400069 L0.5561354818000197 0.7958019612399809 L0.5229323568000197 0.7972261142399972 Z M2.747053450800017 0.09434525523999326 L2.762108788799985 0.10846472124000428 L2.7812331378000223 0.1346691482399862 L2.7739902988000082 0.14463822423999062 L2.7474603517999796 0.14817826323996286 L2.720279361800003 0.1327974042399589 L2.7184889968000263 0.11391719523998489 L2.7316725908000237 0.09617631023996154 L2.747053450800017 0.09434525523999326 Z M1.4916823568000197 1.878891154239959 L1.5018548827999822 1.8846284582399946 L1.506249413799985 1.8937023512399875 L1.5013666017999796 1.9068045652400016 L1.481428450800017 1.9080659582399946 L1.4606764968000263 1.9007417392399972 L1.4489577468000263 1.891505086239981 L1.4497715488000082 1.8829194742399906 L1.4517246738000082 1.8747407632399629 L1.455468163799985 1.868718627240007 L1.4707676428000056 1.8698579502399681 L1.4916823568000197 1.878891154239959 Z" fill="black" stroke="black" stroke-width="0.5" vector-effect="non-scaling-stroke"/></svg>