<svg xmlns="http://www.w3.org/2000/svg" viewBox="0 0 15.289156690080034 11.705722705619952"><path d="M1.2307917110400268 5.539702042309978 L1.2269855720399647 5.463117700309974 L1.2583014900399832 5.31457379531002 L1.3820148690399634 4.968264185310014 L1.4409260010400118 4.914184798310027 L1.4635602780400205 4.880750147309948 L1.465110572039933 4.869691390310033 L1.4616999270400157 4.845300114310016 L1.4619066330399875 4.834008813309945 L1.4646971600399326 4.828660303309997 L1.47430897603995 4.818841781310022 L1.4775129160399416 4.813028182309944 L1.4859878500399333 4.770731022309954 L1.4849543220399397 4.725643335309906 L1.4362751230399482 4.505579248310008 L1.4318309490399344 4.464212264309973 L1.439582414039947 4.428788070309944 L1.5256753500400038 4.308511173309961 L1.5643293220400238 4.234458846309943 L1.5801423100400172 4.213478215309943 L1.5974022380400044 4.1986212403099135 L1.7179116780400392 4.11650739031 L1.7348615480399445 4.110151188309965 L1.7471605390399674 4.11500877330999 L1.8681867440399884 4.220221989309971 L1.8975389570399699 4.238903019309953 L1.910768124039933 4.250349349309966 L1.9170726480399622 4.265490544309978 L1.9130418870399382 4.295566228309946 L1.914488827039932 4.310164819309927 L1.9249274660400175 4.3140405523099705 L1.9329889900399877 4.306030705309988 L1.9463215090400041 4.275309066309953 L1.9586205000399701 4.26463788230995 L1.9754670170399464 4.262984237309988 L1.9876626550399266 4.266524073309961 L1.9986180590399414 4.265154647309979 L2.011433814040018 4.248540674309973 L2.017428280040022 4.230738143309944 L2.017531633039951 4.218620019310032 L2.021665747039961 4.206708602309996 L2.0398558510399454 4.1896812173099764 L2.0939094000400047 4.148986027309926 L2.110755917039981 4.125111515310033 L2.1184040280399614 4.090875879310028 L2.1129263270400003 4.075863875309958 L2.0832640550400043 4.054366479310014 L2.0736522380399975 4.04131818130997 L2.0743757090400123 4.030336939309985 L2.140418189040034 3.8390307863099142 L2.144242245039962 3.8078957363099537 L2.1315298420399387 3.7874060303099757 L2.114063209039969 3.7681823973099515 L2.1043480390400333 3.7410522703099875 L2.107241919040021 3.7194256833100017 L2.233229062039939 3.4453338873099373 L2.236949765039995 3.4256451663099856 L2.234469296040018 3.4069382983100045 L2.2135920170400283 3.366217269309937 L2.2063573160399557 3.3456500493099472 L2.20821766803995 3.3047739903099487 L2.2006729090400228 3.2668951663099595 L2.2012930260400054 3.2466896813099684 L2.2083210210399926 3.222918523309909 L2.2191730720399647 3.198423893309945 L2.2328156500399388 3.1754278813099948 L2.248111874039992 3.1561008953099563 L2.286765845040023 3.1313478843099265 L2.308649600039942 3.123065137309931 L2.3756493090399573 3.0977065263099863 L2.40582834503995 3.064426905309938 L2.4078954020399266 3.05466005930999 L2.408472623039998 3.036436359310011 L2.408618872040009 3.0318190753099774 L2.4115127520399966 3.0225689943099727 L2.420504452039964 3.0138873543100093 L2.4579181890400292 2.992700016309948 L2.4774518800400216 2.9705825033099504 L2.4861335210399744 2.946811344309987 L2.4960553960399494 2.891982650309979 L2.5138320880399903 2.8482643883100085 L2.5213768480399636 2.8369472493099384 L2.5311953700400096 2.828782373309915 L2.5530028240399503 2.8175685873099727 L2.563441463039979 2.8091970053099917 L2.5726398680399853 2.7956577803100036 L2.575533748039973 2.783152083310009 L2.578220924039968 2.7552984863099486 L2.588866268039979 2.7273415373099485 L2.776968481040015 2.4191432943099134 L2.785960181040039 2.409169743309997 L2.7945384690399493 2.405707422309968 L2.8138654540400267 2.404260482309974 L2.8225470950399796 2.4006431323099893 L2.832468971040001 2.389997787309989 L2.836086321039957 2.379765853309914 L2.837533261039951 2.3690688313099972 L2.844354549039977 2.3435406743099723 L2.844147844039938 2.3382180013099347 L2.847765194039951 2.3350657393099628 L2.861464163039969 2.3288730553099786 L2.862854713040022 2.328244450310004 L2.8884862230400046 2.319924545309954 L3.1900698810400314 2.2771364583099345 L3.1985448160399557 2.276826400309952 L3.210740454039936 2.2788417803099836 L3.217355038039969 2.282149072309986 L3.2231427980399445 2.286386539309939 L3.232237850040022 2.291244124309964 L3.2595230070400163 2.298633854309964 L3.275129289040038 2.292484358309901 L3.283707577040005 2.2728473143099652 L3.303344621039926 2.1617429853099797 L3.303137916039944 2.1373517093099483 L3.2987970950399728 2.1224430593099957 L3.2754393480399386 2.082574690309963 L3.2745091720399984 2.0604055013099387 L3.286084693039939 2.043326441309995 L3.300967505039992 2.0287536863100346 L3.3099592040400267 2.014051742309954 L3.309649146039945 2.0054734533099268 L3.3064452070399426 1.996921004309991 L3.298487036040015 1.9809788253099558 L3.2970400970400107 1.9618585453099602 L3.3936750250399683 1.6326538333100107 L3.5421930910400334 1.4232609293099276 L3.551391496039926 1.3949422443099397 L3.554905494039943 1.3383565513099516 L3.558522844039956 1.318254419309989 L3.600035434040038 1.2181178633099368 L3.618260799039959 1.1741546873099455 L3.615470272040014 1.1242869313099906 L3.5981069900399945 1.074341658309928 L3.5926292890400333 1.0497953543099587 L3.5922158780400224 1.0243705493099444 L3.596660051039933 1.0030798583099543 L3.686473690039932 0.7307708993099684 L3.7058006760399422 0.7311326343099669 L3.7131387290399545 0.7115214273099415 L3.7257477780400023 0.7013670093099851 L3.7425942950399786 0.6975429533099433 L3.763884986039969 0.6969745123099873 L3.777734269039982 0.6938480873099397 L3.8086367760399327 0.6797145833099112 L3.828687232039968 0.6765106453100262 L3.8737490810400033 0.6765106453100262 L3.8822240160399275 0.6742368823100069 L3.898450416040035 0.6644958743099583 L3.908165585040038 0.6622221113099531 L3.976481828040008 0.6622221113099531 L4.0086245690400375 0.6665112553100077 L4.07384022703998 0.6852698003100048 L4.107016497039993 0.6895589433099705 L4.112907609039965 0.6933313233099998 L4.13099436004002 0.7174642173099617 L4.138952531039948 0.7231744633099115 L4.146807349040003 0.7274636073099661 L4.155488990039956 0.7302024583100124 L4.165720923039956 0.7311326343099669 L4.171612036040031 0.7292206053099566 L4.186184790040002 0.7174642173099617 L4.194349667040015 0.7167924233099772 L4.212539771039943 0.718962833309968 L4.220291235039966 0.7174642173099617 L4.23279693203996 0.7089892823099522 L4.243545630040003 0.6965611003099728 L4.2510903890399305 0.6800763183099949 L4.253880916039989 0.6591215253099936 L4.254501034039961 0.635143661309991 L4.257911679039992 0.6147831463099553 L4.265973202039973 0.5950685873099903 L4.281166073039927 0.5734678383099325 L4.309794817039986 0.5523580163099897 L4.34431467303996 0.544735742310019 L4.418315325039956 0.546182683309917 L4.44012277904001 0.5388446293099296 L4.453868710040027 0.5368550863099788 L4.478259985039941 0.557163925310002 L4.497173560039997 0.5679384603099269 L4.535000708039959 0.6212685383099288 L4.550296932040013 0.6361255133099579 L4.554120988039941 0.644212874309952 L4.555567928039935 0.6591215253099936 L4.555051164039938 0.6819108323099901 L4.557841691039997 0.6925561773099904 L4.572311092039982 0.7006952153100006 L4.61272206304001 0.7337164553099687 L4.617062882039946 0.739685083309988 L4.624400937039937 0.7584694663099985 L4.629465227039944 0.783480859309984 L4.635459693039948 0.7947204833099537 L4.648275448039968 0.7993972013099242 L4.658610734039954 0.8012058763100018 L4.668842668039943 0.806166813309952 L4.676594133039956 0.8137374113099245 L4.679591366039929 0.8232975503100111 L4.680728247039966 0.8488515463099535 L4.685379126040019 0.8654655193099732 L4.69581776603998 0.8774544513100242 L4.7138011640399355 0.8887974293099123 L4.725066626040032 0.8776094813099693 L4.761136776040033 0.7933768963099741 L4.81860096904002 0.6591215253099936 L4.881336158039986 0.5125413253099769 L4.945724992039985 0.3621112303100009 L5.0107339440400125 0.2104150633099895 L5.051558326039938 0.11476198730999876 L5.068921607040025 0.12956728531001183 L5.081013892040019 0.1467755373099866 L5.100134172039944 0.1834141283099573 L5.1044749920399255 0.18695396431000155 L5.114190162040032 0.18803916831000755 L5.117704159040002 0.19144981330993893 L5.118220923039942 0.19553225130995067 L5.117910865040031 0.2061000813100069 L5.118530981040024 0.20920066830995587 L5.122355038039942 0.21643536830992538 L5.124525448039961 0.2231016283099425 L5.128866268039943 0.227907536309937 L5.1401317300399825 0.2297420493099427 L5.149950252039972 0.2369767503100011 L5.152120663040037 0.24477989131001188 L5.152844133039949 0.2535390463100047 L5.158528541039985 0.2633834063099787 L5.166796769039948 0.2698946373099549 L5.275317277040031 0.3132770023100253 L5.29340402804003 0.3165326173100116 L5.35035145704002 0.3069724773099214 L5.374019263039955 0.3084194173099153 L5.389418840039937 0.31456891330997827 L5.399650774039927 0.3267387133099877 L5.405934570039975 0.3418198243099173 L5.407919002039947 0.3465824623099767 L5.412776587039971 0.37407432430995335 L5.417737525039982 0.38386700930991857 L5.4272459880400135 0.39252281130996813 L5.438924862039997 0.39882733530998316 L5.449363502040015 0.4065529623099824 L5.45577137904003 0.41942039430997546 L5.465279843039937 0.45737673330997985 L5.473444719039961 0.4749467203099673 L5.485123592040011 0.4897003413099643 L5.500729875039966 0.5016117593100038 L5.554370012040025 0.5299821213100078 L5.562431536039938 0.5374235273099348 L5.569149471040035 0.5590242763100068 L5.574523821039932 0.567990137309943 L5.586926164040008 0.5771110273100195 L5.595297746039947 0.5779895263099579 L5.603772681039985 0.5756382493100123 L5.653071998039948 0.5759999843099255 L5.729449764040012 0.5674733723099994 L5.766656796040039 0.5578098803099696 L5.828565161039947 0.5265714763099911 L5.848098853039929 0.5271915943099632 L5.86628895703997 0.5331343833099655 L5.884479062039944 0.5348913823099455 L5.902979224039953 0.533237736309994 L5.921996151039949 0.528845239309911 L5.981630754040012 0.5048156993099813 L6.026175838039947 0.5006299073100369 L6.044676001039946 0.48804669630993125 L6.07764556503993 0.45859113031000653 L6.119296769039934 0.43965171730996566 L6.139760636039981 0.4271718583099844 L6.153919979039941 0.4091367843099736 L6.156917213039961 0.39071413630997576 L6.155366919039935 0.3720331053099901 L6.156917213039961 0.35539329430997135 L6.169836320039977 0.3430684653099352 L6.171283260039971 0.34653078630996426 L6.207043352039946 0.3505357093099608 L6.23556874204003 0.3568919113099813 L6.245593970039934 0.3608193193099485 L6.2674014240399885 0.37417767730998186 L6.287555233039953 0.3920835613099545 L6.30481516103994 0.4127282963099592 L6.318561093039946 0.43414817730997335 L6.34760324803996 0.5170888513099161 L6.368273821039978 0.5541150153099696 L6.393285214039977 0.5538566333099997 L6.415092668039975 0.5198793783099749 L6.428631893039963 0.5078646083099105 L6.453539934039966 0.5039888753099522 L6.507696834039976 0.5124896493099644 L6.526713762040018 0.5113786053099663 L6.608672583040018 0.48918357830992854 L6.649496965040001 0.46980491530995927 L6.667273658040031 0.44647300631002373 L6.675128475039983 0.4264742273099902 L6.69238840403996 0.42670677130996104 L6.712232154040024 0.43761049830991716 L6.727425025039977 0.4499870043099836 L6.74778554003997 0.4740165443099986 L6.753883358039971 0.4797267913099663 L6.759567765040018 0.48264650930995323 L6.8110374920400005 0.49771018830994684 L6.837805884039952 0.500061467309985 L6.883078848039943 0.49257715230997157 L6.895166724039953 0.49057884131000584 L6.926999406039968 0.48951947431000953 L6.9569717370400355 0.4991829673099435 L6.984566952039941 0.5161586753099616 L7.037173560040017 0.5606779213099546 L7.052366431039971 0.5677317543099694 L7.071280005039981 0.5708840173099308 L7.090813697040019 0.5655096683099661 L7.121612851039984 0.5400848643099554 L7.139906308039954 0.53556317630993 L7.159933319039979 0.5390559823099128 L7.183314511040024 0.5431337733099841 L7.1975772060399805 0.5427720383099857 L7.246979875039941 0.5285351813100139 L7.264653215039928 0.5283284753099711 L7.35446685504003 0.5496450033099567 L7.39777170504 0.566853255310031 L7.437149146039999 0.5897200773099431 L7.513781267039931 0.6590532493099435 L7.58173980303998 0.7205389653099932 L7.6399274660399925 0.7498911793099641 L7.745967505039928 0.7996039063099776 L7.774182838039977 0.8084922523099838 L7.864513241040029 0.8210754643100078 L7.932416073039988 0.8459318283099666 L7.993290910040017 0.8883323413099848 L8.097884009040015 1.0043717693100067 L8.203717343039969 1.1218064623100137 L8.281438696039928 1.2561135093100066 L8.352132056039935 1.3784316243099486 L8.382311092039927 1.4076804853099905 L8.517186581039951 1.49201642331 L8.690819393039945 1.600511092309981 L8.79561919804003 1.684950383310019 L8.871893612039926 1.7463678233100044 L8.910857642040028 1.7859778073099708 L8.944860735039939 1.8297219073099686 L8.97669341704001 1.8815016933100228 L9.054414770040026 2.046323673310008 L9.106711321039953 2.1181280763100236 L9.184742734040029 2.167324040309987 L9.241793515039959 2.1903717293099536 L9.297397356039951 2.2209641763099714 L9.34504302603996 2.2612459563099154 L9.410258684040016 2.370309066309952 L9.49180409403995 2.478829574309936 L9.539553117039944 2.5283872733098978 L9.479298397039955 2.607917301310005 L9.448809303039994 2.6732879883099603 L9.315587460039993 2.85203676731002 L9.300394588039936 2.8884686523099337 L9.292436418039998 2.900819320309987 L9.268871965039992 2.9121881343099805 L9.257813208039991 2.9241253913100085 L9.217402239039998 2.99802268931 L9.13477410203997 3.1133842793099777 L9.096479386039974 3.166849593309971 L9.085420630039962 3.1778566733099556 L9.071571347040006 3.188346989309915 L9.057618710040018 3.194909896309989 L9.046353248040035 3.1982688643100037 L9.03787831303994 3.204159977310008 L9.032297258040003 3.2184226723099787 L9.022375383040028 3.2312384283099593 L8.983101294039969 3.2481882973099747 L8.968321835040015 3.2580584963099515 L8.952508846040033 3.2898395023099827 L8.938762916040005 3.365648828309981 L8.909203996039949 3.4563409673100214 L8.909927467039964 3.51091127930996 L8.935765682039985 3.6258655033099902 L8.948064673039951 3.734566878310014 L8.94568755703996 3.9269065593099786 L8.939383033039988 3.969617130309979 L8.921399634039986 3.9980908453099264 L8.92661694604 4.004828076309943 L8.93390533103998 4.014239730310004 L8.958813371039938 4.023619002309966 L9.076945695040038 4.04723513130997 L9.080356340039955 4.052351098309964 L9.082940161039986 4.058268050309971 L9.08893462803998 4.063228988309925 L9.097616268039943 4.064469222309961 L9.102887265039968 4.060748519309948 L9.107434790039932 4.055761743309995 L9.114256079040004 4.053022892309949 L9.17089344903998 4.050697453310017 L9.198488664039942 4.043850325309956 L9.229494524039993 4.0127927903100105 L9.256366268039997 4.004033635309947 L9.311453345039936 3.9980908453099264 L9.362819719039933 4.009743880309992 L9.381733293039943 4.00995058630995 L9.395272518039931 4.00659161831002 L9.430929257040034 3.9907786303099417 L9.439507544039955 3.989900131309989 L9.457387590040028 3.990520247309968 L9.465965878039938 3.9896934243099427 L9.498625383040022 3.9787896973099723 L9.521259661039963 3.9824070483099607 L9.536762589039952 3.9876263673099803 L9.551852108039967 3.9884015143099933 L9.573349504039939 3.9783504483099623 L9.63980539603996 3.9351747893099347 L9.729825741039932 3.9081480143099814 L9.76823893704001 3.905206463309961 L9.775714413039978 3.90463401730994 L9.846614478039967 3.9212479903099453 L9.870488989039941 3.9221781663099993 L9.889712622039966 3.929283675309927 L9.914930721039937 3.983750635309926 L9.931880591039956 3.997832462309953 L9.954204810039997 4.002690047309978 L9.995545956040033 4.0068500003100045 L10.020247290039961 4.013877994309917 L10.033373104039939 4.016048405309997 L10.048152564039938 4.010725732309959 L10.058177792039956 3.998607609309966 L10.068203019039984 3.990106836309957 L10.083809302039938 3.9955070233100205 L10.071406959040033 4.016926905309939 L10.061278377039983 4.057699609310015 L10.053630266040003 4.074623641310007 L10.036887101039966 4.0885504393099925 L9.994925838039947 4.105887883309913 L9.979526262039954 4.12172670930992 L9.971671444039956 4.141673812309941 L9.967744035039985 4.158184432309932 L9.961336158040027 4.173506494309985 L9.945729875040016 4.1898879233100335 L9.909969784039973 4.218464991309995 L9.898187557040004 4.234510523309959 L9.888679094039972 4.258798446309962 L9.879067277039965 4.299441959309997 L9.87172922404001 4.319130680309948 L9.859740291039955 4.335744653309968 L9.840309953039949 4.346622542309925 L9.820362851039945 4.35266868430997 L9.807340389040021 4.362073795310019 L9.808683977039962 4.383261133309981 L9.828631080039955 4.428064599309957 L9.855296119040034 4.469586613309938 L9.910486548040026 4.522658309309955 L9.925886125040009 4.542347030309907 L9.936738176040038 4.569683863309928 L9.949553931039944 4.6609702803100195 L9.968260799040038 4.725178247309978 L9.996372779039987 4.7862081133099625 L10.022417700040037 4.817136459309959 L10.118329159040016 4.878734766309998 L10.14199696503995 4.902660954310003 L10.15998036304002 4.932323226309956 L10.172692766039987 4.9650085703099425 L10.18085764204001 4.9978747803099655 L10.199977921040002 5.044306055309983 L10.227779843039926 5.071772078309957 L10.26436675703998 5.086370671310016 L10.309945370039955 5.094303003309969 L10.347307430040033 5.110968652310001 L10.366427710040014 5.143085555309932 L10.395366512039985 5.302507349309943 L10.40890573704003 5.341962305309957 L10.430764869040004 5.365940169309974 L10.457791643039926 5.372761458310018 L10.466059872039992 5.376740543309916 L10.475671689039999 5.386636581309995 L10.485180152039973 5.408392358310005 L10.491846412040005 5.419218571309949 L10.501458228039965 5.427900212310002 L10.521612036039997 5.4411293793100075 L10.530758765039948 5.450069401310026 L10.553444719039945 5.495363794310032 L10.559542538039992 5.51334719331002 L10.562074683039967 5.546885197309942 L10.566415503039948 5.565643742309939 L10.579127905039925 5.581275863309978 L10.63132110303998 5.612281722309911 L10.708318987040016 5.658222070309899 L10.726922502039955 5.659979069309964 L10.751313778039972 5.650703150309946 L10.767333472039937 5.649669621309963 L10.781596167040007 5.657395247309973 L10.858542375039931 5.727132593309927 L10.94768422103995 5.807592798309978 L11.075014950039943 5.922805404309978 L11.144881487039939 5.985979842309954 L11.183948869040037 6.008769149309936 L11.264150693040008 6.035072452309985 L11.352310686039985 6.064011254309955 L11.440470679040018 6.092898381309988 L11.528630673039984 6.1218371833099585 L11.616790666039961 6.150750146310012 L11.704847307039941 6.179688948309982 L11.79311065303996 6.20857607530993 L11.881167293039951 6.2375148773099856 L11.96932728704003 6.266453679309956 L12.057383927039965 6.29536664230991 L12.14564727504002 6.324253768309953 L12.233652238039966 6.353140894309911 L12.321863909040033 6.382157210309993 L12.409972225039965 6.411018498309938 L12.49818389503993 6.439879785309978 L12.586240536039966 6.468818587309935 L12.674503882039929 6.4977573893099905 L12.758529761039952 6.525869369309939 L12.842452287039933 6.55398134830997 L12.926478166040013 6.582067489310001 L13.01029734003994 6.610179468309946 L13.094219865039989 6.638291447309976 L13.178142392039959 6.666403427309925 L13.262013241039952 6.6945670813099785 L13.345987443039988 6.722653223309999 L13.429909970039958 6.7507393633099415 L13.513935848039992 6.778825505309962 L13.597806698039975 6.806937483310003 L13.68178090004001 6.835049463310037 L13.765806779040034 6.863161442309982 L13.849625953040018 6.891325098309943 L13.933651831039938 6.919385401309961 L14.017471005040036 6.947549056310004 L14.080619605039956 6.96868471630996 L14.139324032040022 6.997726872309949 L14.228207496039957 6.997778548309961 L14.370679419039973 6.997778548309961 L14.526173804040027 6.997778548309961 L14.683683569039957 6.997778548309961 L14.814011532040027 6.997778548309961 L14.99679107304003 6.997778548309961 L15.139262997040035 6.997726872309949 L15.09068715104003 7.044597396309976 L15.041904598039949 7.091467920310004 L14.993277076039945 7.138338444309946 L14.944752906039994 7.185157291309972 L14.896125383039944 7.23207949230993 L14.847601213039994 7.278898340310031 L14.799025367039988 7.325768864309973 L14.75034616803994 7.372639388309915 L14.701770321039945 7.41945823630993 L14.692481954039991 7.428430403309955 L14.653194475039939 7.466380436309985 L14.604618628039944 7.513250960310012 L14.556042782039938 7.5601214843099545 L14.507466935039943 7.606992009309986 L14.458891089039938 7.65391420930994 L14.410211890039946 7.700784733309968 L14.361532691040011 7.747603581309898 L14.312956845040006 7.794474105310025 L14.26438099804001 7.841292952309951 L14.215701799039962 7.888215153309995 L14.167125953039957 7.935085677310022 L14.118653459040004 7.982007877309977 L14.070077613039999 8.028826725309992 L14.021501766040004 8.075697250309938 L13.972822567040012 8.122619449309989 L13.924195044039962 8.16941245930999 L13.875670874040011 8.21630882230995 L13.827095028040006 8.263179346309977 L13.77851918204 8.310049869310001 L13.75815866803994 8.329661076309941 L13.71330352404 8.372836735309969 L13.668500057039992 8.415986556309997 L13.648139543039989 8.435649438309946 L13.627056725039964 8.456001747310006 L13.584009090040027 8.497557805309961 L13.523030901040002 8.56003461130994 L13.462156063039927 8.622563094309934 L13.40107452104003 8.68506573931 L13.339992977039927 8.74756838430998 L13.278911434039927 8.810071029309976 L13.217933244039969 8.872573673309953 L13.156903378040013 8.935102157310036 L13.096080217039983 8.997604801309928 L12.988799944040025 9.114781111309961 L12.881519670039964 9.231957422309998 L12.774239397039949 9.34923708530996 L12.678571301039952 9.45373005630996 L12.666959123040002 9.466413395309994 L12.55967885003993 9.583589705309942 L12.45245025203998 9.700817692309991 L12.345118303040024 9.818045679309941 L12.237838029039963 9.935221989309975 L12.180993954039948 9.997414575309984 L12.180735572039978 9.997414575309984 L12.101618954039978 10.082809880309975 L12.072680152040007 10.09490216530997 L12.018471575039953 10.091749902310008 L11.966640113040015 10.088752669309992 L11.914860327040017 10.085729598309976 L11.862977189040024 10.08273236530996 L11.811197404039959 10.079786808309956 L11.759314266039965 10.076789575309954 L11.756901565039996 10.076651122309949 L11.707534481040014 10.07381818130994 L11.65565134304002 10.07082094731002 L11.603819882040014 10.067849552309918 L11.552091773039947 10.064826481309987 L11.500208635039954 10.061855086309984 L11.448428849040013 10.058806176309966 L11.39654571104002 10.055808944309954 L11.344765926040012 10.05286338730995 L11.292882788040018 10.049814478309921 L11.241103003039953 10.04684308231 L11.18921986503996 10.043845850309902 L11.129068498040013 10.040331852309942 L11.092378231039973 10.04909100731002 L11.00525176703998 10.079941837309997 L10.975279436040026 10.086814803309972 L10.876577450039932 10.10950075730994 L10.800613094040003 10.12694155330997 L10.688578589039949 10.152728093309983 L10.619435523039968 10.185465112309979 L10.507090959040013 10.23864016230993 L10.392886044039997 10.292797062309939 L10.279352922039962 10.346592229309957 L10.195533749039967 10.415399398309953 L10.120499569039978 10.476920191309967 L10.112644751040037 10.486712874309925 L10.106030168039936 10.49743573430994 L10.092594295040001 10.53107709230998 L10.07481760303996 10.60099530430997 L10.059728085039993 10.633189721310012 L10.03028871203999 10.666123162309924 L10.029032284039957 10.66752871130995 L9.991721900039991 10.691971663309994 L9.949863990040015 10.708688989309943 L9.878757219039997 10.72080711330994 L9.728378800039948 10.746438623309993 L9.575106502040015 10.77258689830999 L9.457387590040028 10.792559839309925 L9.381939999040029 10.793334986309938 L9.295433651040028 10.794213485309976 L9.262980851039984 10.802404199309914 L9.22846099504001 10.819741642310001 L9.171926978039963 10.864803491309951 L9.101336971039999 10.908082503310007 L9.083560279039958 10.923740462309974 L9.076738990039999 10.943196639309955 L9.07756581304001 10.973840764309978 L9.072294816039985 10.986320621309966 L9.058548886039958 10.99737937930997 L9.045113013039966 11.017068099309933 L8.996020402039974 11.044844182309967 L8.951475318039982 11.036136703310001 L8.907446998039987 11.012882308309992 L8.859904680039975 10.99737937930997 L8.817530005039956 11.021589786309955 L8.803060604040027 11.024845402309944 L8.788797909039957 11.022209904309927 L8.762339575039974 11.011228662309941 L8.746423234039938 11.010143457309946 L8.666324765039988 11.029909693309927 L8.639866431040005 11.03135663330992 L8.589636939040034 11.04541262231002 L8.477499081039994 11.05187217630998 L8.375386450039926 11.057685775309958 L8.323089901040035 11.05161379431001 L8.274617408039958 11.031950912309975 L8.230175676039963 10.99737937930997 L8.165993547039946 10.907617416309984 L8.139845272040034 10.88353619830995 L8.123722226039959 10.873924382309932 L8.075973202039975 10.857646306310011 L8.057783098039934 10.84837038630999 L8.047447811040016 10.838241805309943 L8.030704647039968 10.807313460309937 L8.00610666503998 10.77930483431002 L7.945851945039934 10.738454614309925 L7.923837785040021 10.709360783309927 L7.86079253804003 10.750779443309975 L7.777593482040018 10.782689641309952 L7.6719668540399795 10.823229801309958 L7.542775774039981 10.872916691309962 L7.537091366039945 10.878213526309901 L7.5312002520399375 10.894362411309979 L7.525825904040019 10.899426701309958 L7.4469676680399886 10.926841049310008 L7.345681860039932 10.962136051309992 L7.3428913330399865 10.962291081309951 L7.339894101040002 10.961464258309926 L7.336896867039982 10.959758935309958 L7.327285051039965 10.958828760309993 L7.326354875039968 10.962807845309976 L7.327078345039993 10.96903485530998 L7.322530819039983 10.97490013030997 L7.277262265039965 10.99737937930997 L7.180317277040004 11.044172388309983 L7.094224341039947 11.085591048309945 L7.008544817039947 11.127009709309997 L6.988391008039983 11.151711043309911 L6.968753964039948 11.20400759330992 L6.940848690039971 11.277724023309952 L6.924312232039952 11.30854901530993 L6.905191952039971 11.33371543830996 L6.826540422039969 11.405571517309989 L6.760911353039958 11.465386987309936 L6.735073137039947 11.496392847309957 L6.713265682040017 11.56297793030995 L6.696419165039927 11.589281233309999 L6.664483130039983 11.590960718309953 L6.648566789039947 11.580392887309978 L6.641022030039963 11.567034529309959 L6.635751034039984 11.55349530430997 L6.627069393039974 11.54228151830993 L6.596270240039942 11.531920394310015 L6.471419979039993 11.528199691310002 L6.48061838404 11.50975120530999 L6.475967505039947 11.499390080309974 L6.462841691039969 11.49861493330996 L6.456431402039996 11.502304150309948 L6.4176764900399945 11.524608178309927 L6.379539282040028 11.525590031309997 L6.340575253039972 11.517295963309943 L6.25053529303996 11.475959848309978 L6.237635799040007 11.470037866310003 L6.228023983039989 11.467712427309971 L6.170559791039935 11.479830550309964 L6.1550568610399665 11.480037256310007 L6.1400706960399845 11.474482039309999 L6.123327532039937 11.472208276309994 L6.081366268039929 11.480295638309991 L6.055321346039946 11.480709050309907 L5.9808039310400005 11.460555241310013 L5.8821019460400095 11.433890202309977 L5.863808488039936 11.423864974309959 L5.848202205039982 11.40800030930995 L5.821123755040006 11.372343571309964 L5.821537166040017 11.37895815430995 L5.820193579039952 11.392988306309968 L5.820400285040037 11.399835433309926 L5.762005917039929 11.395623804309986 L5.756734921040007 11.392161483309943 L5.755701392040024 11.386787134309978 L5.7538410400400295 11.383454004309977 L5.739681697040012 11.388983382309982 L5.734203996039994 11.389732691309982 L5.721181535039946 11.388285750309985 L5.707228899039947 11.384771753309943 L5.70330148903993 11.378906477309949 L5.701337785039996 11.370999983309995 L5.693276262039959 11.361465682309992 L5.6743626870399595 11.345781884309938 L5.669091691039981 11.343482284310008 L5.65947987504002 11.347383854309976 L5.6574128170399405 11.355703760309945 L5.658239641039941 11.364617945309954 L5.65699940603993 11.370354028310013 L5.60604644403999 11.39262657130997 L5.55002919103994 11.397406641309965 L5.443162330040039 11.385391870309997 L5.3370189380400035 11.373377099309943 L5.305703020039985 11.375857568310005 L5.2741803950400055 11.383686548310033 L5.261984758040015 11.381645329309984 L5.238937069039949 11.361620711309948 L5.209068091040038 11.352448144309955 L5.196252336040018 11.345368473310026 L5.180852759040036 11.32712669230997 L5.155427954040036 11.286379826309906 L5.136824439039984 11.267853825309965 L5.106025285040019 11.248061751309985 L5.006289771039931 11.183957137309969 L4.911101782039978 11.122772241309955 L4.807852271039977 11.056419702309919 L4.716178280039983 10.99740521630998 L4.6351496340399905 10.945315373309933 L4.52104807203996 10.872089868309937 L4.423586320040002 10.809406355309912 L4.326124569040033 10.74674868230998 L4.271967668039977 10.711996281309945 L4.266076554039969 10.710445988310008 L4.260082088039965 10.710601017309964 L4.254914445039972 10.70941245930994 L4.251710507040016 10.704038110309975 L4.246542863039977 10.681817244309935 L4.242615454039949 10.672127914310005 L4.236000871040019 10.663213729309982 L4.228559465040021 10.660836613310034 L4.208509009039986 10.66233522930994 L4.201170956039974 10.657477645309934 L4.185461321039966 10.631019311309936 L4.175746152039963 10.623707096309952 L4.1349217700399805 10.614353662310004 L4.063814999039963 10.578516056309974 L4.004180396039956 10.562057112309995 L3.8114273030399914 10.56371075930995 L3.808950607039961 10.563114517309907 L3.8030557210399962 10.561695378309901 L3.788276262039986 10.55283286930999 L3.779594621040033 10.550920841309969 L3.623118384039927 10.554124781309946 L3.4372899340400096 10.55784548430996 L3.4243708250400147 10.556088484309976 L3.4061807210399735 10.547303491309984 L3.3963621990399844 10.544642155309967 L3.3858202070400267 10.54469383130998 L3.351403703039992 10.54937054930995 L3.20541861503996 10.55057786831001 L3.2014386960399435 10.550610783309986 L3.178494360039977 10.545158919310007 L3.1572036710400226 10.531335473309946 L3.118446347040006 10.49743573430994 L3.100566301039933 10.486247786309997 L3.093848364039971 10.472114282309954 L3.094158424039975 10.455086898309938 L3.097155656040016 10.435036442309988 L3.096122127040033 10.415761133309951 L3.0828929610399456 10.392222518309959 L3.0809292570400117 10.374962590309957 L2.9446068290399268 10.230113550310003 L2.920112199039991 10.18856569831001 L2.911740617039939 10.139938176310006 L2.9159780850399812 9.93085533030999 L2.9210423750399315 9.917962060309984 L2.959282935039951 9.869670435309965 L2.9674478110399747 9.849619979310015 L2.967241105040003 9.829026921309927 L2.958352759039954 9.805023217310003 L2.938509009040004 9.767144393309914 L2.935408423039931 9.747714054309933 L2.9421263590399604 9.72443382131001 L2.969204810039926 9.685185572309942 L2.964243873039962 9.676271386310015 L2.909466854039991 9.655135726309974 L2.8437344320399376 9.614698918309992 L2.8184129810399696 9.607877628309945 L2.7999128180400277 9.612218449310015 L2.7820327720399547 9.62051251730997 L2.758261613040034 9.625550968309946 L2.7339736900400027 9.618962223309959 L2.6908755460400045 9.584209823309914 L2.6681379150400204 9.57087730330998 L2.6502578690399474 9.566252263309929 L2.629380591040004 9.563539250309896 L2.608296607039975 9.563539250309896 L2.5903132090399623 9.56707908530995 L2.5682990480400036 9.581729354309937 L2.5275780200399396 9.62624860030993 L2.5050470950399273 9.641932397309995 L2.4808625250399388 9.645575586309983 L2.462465715039926 9.636919784309933 L2.447582902039997 9.620202457309981 L2.414716691039999 9.568370996310003 L2.4107892830400175 9.559146753309998 L2.41192616403994 9.546925277309976 L2.41905751203997 9.536150741309948 L2.4277391520399334 9.525737939310014 L2.433733619039927 9.514420801309948 L2.429392798039956 9.502509384310011 L2.4220547450399437 9.482407251309946 L2.3835041260399663 9.451298039309998 L2.3034056560400273 9.40463422031001 L2.2587572190399925 9.37181968631 L2.2483185790399745 9.35254437630996 L2.239636939040011 9.294511744309995 L2.2253742430399512 9.267846704309955 L2.1444489510399336 9.153280054309926 L2.1345270760399586 9.131188379309927 L2.1327700770399503 9.118036727309951 L2.1346304290399445 9.107055485309965 L2.1378343670399573 9.095634994309956 L2.1400047770400334 9.081449813309996 L2.1369041920400065 9.070261865309968 L2.1204710860399274 9.05258852630997 L2.115406796040034 9.041736475310012 L2.115820207039988 9.030083439309957 L2.1193342040400154 9.018792139309975 L2.1298761970399624 8.997604801309928 L2.1280578470400116 8.98616283631001 L2.119540910039987 8.932570011309958 L2.1115827400399354 8.913113834309963 L2.0945295170399874 8.891926497310005 L2.0756159430400345 8.874589054310002 L2.058976131039927 8.855623804309952 L2.040062557039974 8.806660384309945 L2.004819230039928 8.745604679309958 L1.9998582930399635 8.72560590031001 L1.9991348230399382 8.666694767309915 L1.9927269450399336 8.64075319830996 L1.9528327400399945 8.57261782330995 L1.9443578050399566 8.55246401430997 L1.9361929280399437 8.494844792309928 L1.9139720630399353 8.437871525309939 L1.9036367760400168 8.39748639330997 L1.893611548039999 8.356687850309976 L1.8866869060399978 8.352347029310005 L1.8745946210400035 8.338626937309977 L1.8697370360399788 8.320281804309994 L1.8636392170399319 8.309378076309935 L1.7956330330399766 8.26447125730993 L1.7785798100400285 8.257753320309996 L1.756772355039928 8.25509198430998 L1.7140876220399974 8.255040308309967 L1.6964142820400099 8.251216252310025 L1.684838762039945 8.24142356730996 L1.6780174730399295 8.20046999530994 L1.6767772380399748 8.196232527309983 L1.6722297120400214 8.186026433310014 L1.6711961830400384 8.179980290309965 L1.6733665940399334 8.178998438309998 L1.6826683520399826 8.172513045310035 L1.684838762039945 8.169722518309976 L1.683391822039951 8.150111312309955 L1.6791543540400227 8.13264467830991 L1.672436418039993 8.117451807309985 L1.6637547770399266 8.104274317309995 L1.5992625900399986 8.059419174309918 L1.4576691650399454 8.025726140309965 L1.4545685800399752 8.022057113309964 L1.4477472900400272 8.019008203309932 L1.440822648039969 8.014202295310023 L1.435758358039962 7.996890690309934 L1.4309007730399372 7.990896224309987 L1.3899730390399583 7.960923893309948 L1.3800511640399264 7.948159815309987 L1.3738499920399505 7.942320377309992 L1.366098527039938 7.939788233310006 L1.3583470630399717 7.92991803430993 L1.3558665940399948 7.90733543330999 L1.3558665940399948 7.896554405309965 L1.3558665940399948 7.865270817309957 L1.35100900903997 7.84475527330998 L1.3415005460399954 7.827081934309982 L1.3278579680399645 7.818917057309969 L1.3112181560400273 7.826823551310008 L1.2925112870399431 7.830905990309924 L1.273287655040022 7.816746647309978 L1.2460024990400171 7.782795231309956 L1.2001138270399707 7.747035140309942 L1.193705949040023 7.744037906310021 L1.1912254800399324 7.73892194031003 L1.1907087160399925 7.645594303309972 L1.1837840740399344 7.611849593310007 L1.166627499039933 7.58435773131003 L1.0425007080399524 7.458215560309961 L1.012631730039928 7.4407489253099275 L1.0021930910399561 7.438371809309965 L0.9815225180399381 7.435891341309992 L0.9716006430399631 7.433307519309986 L0.9211644450399632 7.396152165309994 L0.8895384690399766 7.352175521309954 L0.8761542730400294 7.33713767930997 L0.866645810039941 7.33243512430999 L0.8351231860400077 7.323443424309952 L0.8078380290399565 7.3056667313099215 L0.7972960370399989 7.3029795573099765 L0.7323904380399568 7.309077376309938 L0.7109447190400289 7.3029795573099765 L0.7004544030400126 7.29538312130992 L0.6866051190399531 7.277193017309978 L0.6768899500400067 7.268201318309943 L0.6669163990399767 7.263343734310007 L0.6485712650400188 7.258124414309998 L0.6396312420399823 7.251148096309999 L0.6224229900399934 7.244791895309968 L0.5965847740399823 7.245722071309936 L0.5533832770399414 7.25455874130993 L0.5444949310400062 7.258847884309995 L0.519896948040028 7.275022608309991 L0.5072362230399818 7.275332666309973 L0.4516840580399304 7.261225000309944 L0.4335973070399888 7.245101953309964 L0.4178876720400382 7.226860173309996 L0.4024880950399421 7.213579329309988 L0.39401316004001785 7.21109886130993 L0.36156036004003056 7.206137923309976 L0.3330349690399572 7.19466575530995 L0.3246117110399638 7.193167139309944 L0.29221058803996414 7.20035016331 L0.2870429450399712 7.202727279309949 L0.2809451260399811 7.210995508309987 L0.2676126060399753 7.209083480309966 L0.2454950930399633 7.1993166343100174 L0.2184166420399407 7.196319401310001 L0.2113886480399998 7.193167139309944 L0.20777129703994035 7.18701764330998 L0.2047223880400253 7.17787091530999 L0.20084665603992846 7.169447656309993 L0.18358672703995182 7.159215723309922 L0.17511179203997074 7.1436611173098985 L0.14989369303999922 7.077050195309903 L0.15366607303992907 7.066146468309933 L0.16689524003994904 7.051832096309946 L0.16766273104003915 7.050236323309983 L0.17211455903994022 7.040980046309992 L0.17686879104003594 7.035967431310022 L0.181726376039947 7.029042790309953 L0.186170548039982 7.0080104823099365 L0.19123484004002478 6.997985254310004 L0.20394724104001227 6.9808286783099565 L0.2606879640400308 6.923261133309916 L0.266682430040035 6.91380434630994 L0.27143666204001704 6.90364992730998 L0.273503720039983 6.895200831309987 L0.27763783403993614 6.890136539309916 L0.30761016503994654 6.885227279309982 L0.32487009303993375 6.877243270309998 L0.33737579003992835 6.867192204309982 L0.3452306070399942 6.85321372930998 L0.3479177820399997 6.833395817309986 L0.3448171960399833 6.828047307309939 L0.3311746180399524 6.818332137309904 L0.328074032039936 6.812931950310025 L0.3283840900400179 6.798901798309922 L0.33003773703997297 6.788799056309978 L0.3340684980399402 6.77970400431 L0.34171661004002374 6.768567733309974 L0.3506049570399483 6.761875635309957 L0.3599583910399957 6.758775048310008 L0.3669863860399829 6.7535557303099925 L0.3683816500399786 6.740610783309984 L0.3549457760399406 6.735055566309976 L0.3458507250399663 6.72978457030994 L0.33851267103996463 6.71862246131 L0.33148467703996687 6.711181054309984 L0.3244566820400365 6.701517562309968 L0.321252742039988 6.689709497309957 L0.3232164470399681 6.682242252309928 L0.3318980880399778 6.663406193310005 L0.3341718510399829 6.651236393309995 L0.33241485304002083 6.647774072309966 L0.32342315303993985 6.641340356310005 L0.321252742039988 6.638188094309962 L0.32197621303994595 6.632787907309984 L0.326937150040024 6.626018294309953 L0.328074032039936 6.621470768310013 L0.327970679040007 6.6045725743099215 L0.3296243250400295 6.596872787309929 L0.3341718510399829 6.5898189533099245 L0.3479177820399997 6.583256046309936 L0.36300730004002446 6.580181299309993 L0.37044870604002256 6.573515039309976 L0.3674514740400383 6.567701441310001 L0.36652129803998434 6.563722355309929 L0.39525339403998316 6.538659286309917 L0.412823381039928 6.536127140309924 L0.5214472410399509 6.560001652309916 L0.5309557050400286 6.556901066309971 L0.5447016360399886 6.546281559309984 L0.552194718039928 6.542431665309943 L0.5602562420400119 6.54165651830993 L0.5732270260400156 6.54457623731002 L0.6406130940400345 6.536643904309964 L0.6500182050400127 6.531372908309942 L0.6504316160400236 6.52778139730996 L0.6448505620399629 6.520288314309932 L0.6652110760400234 6.519409815309979 L0.6820575930399997 6.52896995430998 L0.6971471110399676 6.541088078309977 L0.7122366300399818 6.547470117310008 L0.731253556039988 6.544162826310009 L0.7454645760399359 6.53617881730994 L0.7601923580400154 6.5303393803099485 L0.7805011970399534 6.533594995309935 L0.8117654380399273 6.559794947309962 L0.8314024820399624 6.5940047443099505 L0.8556387290399385 6.621419091309997 L0.9011139900400309 6.6272068523099765 L0.9119660410399462 6.625501530309998 L0.9163068600399384 6.624157942309944 L0.9577513600400067 6.588682072310002 L0.9681899980399322 6.58167991531 L0.9842096930400004 6.574806950309943 L1.000952857039934 6.570311101310006 L1.035266008039983 6.566357854309937 L1.0918000250400297 6.566151147309975 L1.110403540039968 6.5610868573099115 L1.1308674070399576 6.5489170573100015 L1.2296727460399808 6.4606795493099245 L1.2503433190399988 6.437786890310003 L1.2632624270400044 6.414971745310007 L1.2673445070399936 6.392763286309924 L1.2719440670399678 6.367739486309967 L1.257567170039934 6.078458134309978 L1.243190273039957 5.789176782309989 L1.2307917110400268 5.539702042309978 Z" fill="black" stroke="black" stroke-width="0.5" vector-effect="non-scaling-stroke"/></svg>