<svg xmlns="http://www.w3.org/2000/svg" viewBox="0 0 1.3957348632600102 1.0248974606399628"><path d="M1.0030635581300267 1.0130183923199851 L0.9802364091300042 1.014849446319964 L0.9580603021299972 1.004717610319993 L0.9211543781300016 0.9782283533199561 L0.8303747561299879 0.9370906573199917 L0.7873653151300068 0.907427571319964 L0.7920039871300055 0.882036946319964 L0.7655961101300086 0.8665340173199851 L0.734753011130028 0.8428523763199891 L0.7118037921300306 0.8182348633199794 L0.7088741051300254 0.8001277673199851 L0.7043168131300099 0.795285644319982 L0.6952836101300086 0.7802303063199574 L0.7157100421300306 0.7802303063199574 L0.7135127761300346 0.776568196319964 L0.7131465651300068 0.7755916343199587 L0.7088741051300254 0.7728247073199768 L0.7456172691299976 0.7610652673199851 L0.7631953941299976 0.7598445633199944 L0.7778031411300113 0.7666398113199975 L0.7576208491299958 0.7773819983200028 L0.7505000811300029 0.7802303063199574 L0.7599808751300152 0.78462483731996 L0.7700720211299945 0.7867407223199834 L0.7808142091299892 0.7872290043199754 L0.7920039871300055 0.7864558923199851 L0.7436641441299976 0.8075740563199574 L0.7436641441299976 0.8137589513200041 L0.832165120130032 0.8087947593199587 L0.8587764481300333 0.8255183923199851 L0.9203812661300113 0.8299129233199878 L0.9422725421300306 0.8411027013200041 L0.9446325681299932 0.8545304363199975 L0.9335648601300086 0.862505696319964 L0.9172074381300099 0.8640926103199931 L0.9040645341300042 0.8584773763199891 L0.8917354331300267 0.8509497073199768 L0.8752152501300152 0.8473689783199561 L0.8601192221299989 0.8483455403199613 L0.8522660321300073 0.8547745763200041 L0.8716345211299945 0.8572566733199878 L0.8833125811300029 0.8656795243199653 L0.8914099121299905 0.875363769319982 L0.9006465651300068 0.882036946319964 L0.9106156411300113 0.8830135093199587 L0.9325069171300306 0.8804907223199834 L0.9422725421300306 0.882036946319964 L0.9521195471300139 0.887896321319964 L0.9561885581300267 0.8942439783199561 L0.9531774901299919 0.899615071319964 L0.9422725421300306 0.9031551103199931 L0.9422725421300306 0.9099910483199878 L0.9838578281300165 0.9204890953199865 L0.9802364091300042 0.9290340173199851 L0.9712438961299945 0.9305395503199847 L0.9597692871299905 0.9294002283199561 L0.9484574381300099 0.9298071293199754 L0.914196370130032 0.9390030923200001 L0.8967403151300068 0.9400610353199781 L0.8739945471300139 0.9366430663199807 L0.8739945471300139 0.9441300453200014 L0.8853877761300346 0.9453914383199944 L0.8951534011300346 0.9489314783199561 L0.9026403811299879 0.9552791343199587 L0.9074825031300016 0.9646378583199962 L0.9189978021299972 0.9532446293199754 L0.9366573081300267 0.949582519319982 L0.9764522301300254 0.9509659833199962 L0.9740108231300333 0.9546687823199917 L0.9695349121299905 0.9646378583199962 L0.9915889481300333 0.969113769319982 L1.006603597129999 0.9837215173199851 L1.0114864091300042 1.000811360319993 L1.0030635581300267 1.0130183923199851 Z M1.045299886130028 0.5878474933199627 L1.031383870130032 0.5984676103199931 L1.0246700031300016 0.6052628583199962 L1.0279659011300346 0.6083553063199574 L1.0301631671300306 0.613645019319982 L1.0279659011300346 0.6424129233199878 L1.0232051591300042 0.6456274413199807 L1.015921631129988 0.6526668293199904 L1.006807047130014 0.6597062173200001 L0.9968786621299905 0.6629207353199931 L0.9897985841299892 0.6601131183199627 L0.9246130371299905 0.5950496423199851 L0.9111853021299972 0.5878474933199627 L0.8195511881300099 0.5799536133199794 L0.8034785971299989 0.5767390953199865 L0.7901729331300267 0.5696183263200041 L0.7845576981300333 0.5568416343199587 L0.7802852371300055 0.5393855793199904 L0.7587601721300139 0.51509358731996 L0.7505000811300029 0.4991023763199891 L0.773571370130032 0.5010961913199807 L0.8159704591299892 0.5100887043199904 L0.8361527501300152 0.512082519319982 L0.8681351721300139 0.5095597333199962 L0.8801794431299932 0.512082519319982 L0.8896195471300139 0.5171687823199917 L0.9037797031300165 0.5291316733199878 L0.9149287921300306 0.5325496423199851 L0.9909785971299989 0.5429256183199627 L1.0030635581300267 0.550005696319964 L1.0096553551300254 0.5641658533199561 L1.0386267091299892 0.5780818683199627 L1.045299886130028 0.5878474933199627 Z M0.2741410321300073 0.3140844723199834 L0.24708211213000553 0.30326090531999483 L0.2282832841300042 0.280474446319964 L0.22628946913001258 0.2607804363199975 L0.2502152501300152 0.2588680013199891 L0.2857784011300346 0.2759985353199781 L0.2979854331300267 0.2793758133199944 L0.3054317221299989 0.28010823531999307 L0.3286657711299945 0.2793758133199944 L0.3364782711299945 0.2772192383199794 L0.3390010581300267 0.2725398763199891 L0.3398148601300086 0.2678605143199988 L0.34266316713003064 0.2657039383199944 L0.3542191571300073 0.26346598331999616 L0.3717159011300346 0.25370035831999616 L0.4419470211299945 0.2451961263199891 L0.4419470211299945 0.25142171231996 L0.4351924641300293 0.25142171231996 L0.4351924641300293 0.2588680013199891 L0.4739294431299932 0.27152262332000277 L0.486706136130028 0.27315022831995606 L0.4976924641300293 0.2764054363199975 L0.5136836751300002 0.2928035483199878 L0.5239375811300029 0.2998429363199975 L0.5487992351300086 0.30403401731998514 L0.5752071121300055 0.30326090531999483 L0.5998653151300068 0.30578369131998073 L0.619518636130028 0.32035074832000277 L0.6071488441300126 0.33312744131998073 L0.598034261130028 0.34606689431998205 L0.5859899901299919 0.3564021813199574 L0.564831136130028 0.36128499331996267 L0.5469274901299919 0.3596573893199988 L0.5305700681299932 0.3559138993199653 L0.5142940261300346 0.35493733731996 L0.4966345211299945 0.36128499331996267 L0.5046097821300073 0.36482503231999175 L0.5128291831300267 0.3672664383199944 L0.5216996251300152 0.36848714231998514 L0.531383870130032 0.36873128231999175 L0.4729528811299879 0.38240315731999175 L0.4557002761300346 0.38923909531998646 L0.4642451981300333 0.37837483731996 L0.4687211101300086 0.37495686831996267 L0.46180379213003064 0.36104085331995606 L0.45041056313000993 0.34875244131998073 L0.43641316713003064 0.3427303063199574 L0.4215205891300293 0.34761311831996267 L0.42982137013003197 0.35090901731998514 L0.4421504721299989 0.35778564431998205 L0.45122436512999187 0.366411946319964 L0.4494340001300152 0.37495686831996267 L0.4388545731300333 0.37609619131998073 L0.3942582191300126 0.36128499331996267 L0.33208374012999187 0.35505940731999175 L0.2916377761300346 0.34150960331995606 L0.2775590001300152 0.3407771813199574 L0.2775590001300152 0.33402262332000277 L0.3730179851300086 0.33402262332000277 L0.3507198081300267 0.32576253231999175 L0.32500366212999054 0.31945556631998073 L0.2741410321300073 0.3140844723199834 Z M0.4351924641300293 0.2383601883199944 L0.4257523601300086 0.23254150431997545 L0.4226192221299989 0.2287980143199988 L0.4215205891300293 0.2213110353199781 L0.42388061512999187 0.21056884731998338 L0.42957723013002536 0.20784261031999307 L0.4362504071300073 0.20755778031999483 L0.4419470211299945 0.20422119131998073 L0.4474808751300152 0.1905086263199891 L0.4483760581300267 0.18025472031998646 L0.4527705891300293 0.17329671231996002 L0.4687211101300086 0.16951253231999175 L0.44967814113001126 0.1547420243199653 L0.4497188311300029 0.13374593131995738 L0.4624141441299976 0.09435791031997809 L0.46758178712999054 0.09915934232000012 L0.4722204591299892 0.10013590531999483 L0.47702189113001126 0.0998103843199587 L0.48288126613001126 0.10119384731998338 L0.5514034011300346 0.10892496732000012 L0.5852168781300016 0.11869059232000012 L0.5996211751300002 0.13228108731996002 L0.6123571771299972 0.15657307931999043 L0.6606156411300113 0.2017797853199781 L0.6604528811299879 0.22472900431997545 L0.6940629071300073 0.23005940731999175 L0.7512325031300016 0.25349690731999175 L0.8017696121300055 0.26106526731998514 L0.8105179851300086 0.26692464231998514 L0.8114945471300139 0.2755916343199587 L0.8051468911300113 0.2862117513199891 L0.7956254071300073 0.29353597031998646 L0.7823604331300267 0.300005696319964 L0.7685257971300139 0.30464436831996267 L0.7573360191299976 0.30667887332000277 L0.8448604331300267 0.30472574832000277 L0.859753011130028 0.31721761031999307 L0.8737504071300073 0.3322322593199587 L0.8784704591299892 0.3428523763199891 L0.8702510581300267 0.34761311831996267 L0.8119014481300333 0.34761311831996267 L0.8119014481300333 0.35505940731999175 L0.8473018391300293 0.36262776731998514 L0.9149287921300306 0.36185465531999483 L0.9422725421300306 0.37495686831996267 L0.9316931151299919 0.38724528031999483 L0.9237992351300086 0.4036027013200041 L0.925915120130032 0.4178442383199794 L0.9589961751300002 0.42687744131998073 L0.9570837401299919 0.43525960331995606 L0.9519567871299905 0.4481990563199574 L0.9559444171300306 0.4649226883199944 L0.9233516441299976 0.47074137332000277 L0.8928340651300068 0.4552791343199587 L0.8639847821300073 0.4344458003199847 L0.800915120130032 0.41418212931997545 L0.7476924641300293 0.37105061831996267 L0.7122920731300333 0.36128499331996267 L0.6980098471299989 0.35896565731999175 L0.6886918131300099 0.3520076493199653 L0.683727620130032 0.34037028031999483 L0.6821407061300029 0.3240535483199878 L0.6756709801300254 0.3148982743199653 L0.6601680501300002 0.30521403031999483 L0.6418168131300099 0.2970760093199587 L0.6269649251300002 0.29235595731997677 L0.5483923341299892 0.2862117513199891 L0.5308955891300293 0.28181722031998646 L0.5207230631300099 0.27229573531999307 L0.5216996251300152 0.26281494131998073 L0.5376094561300029 0.2588680013199891 L0.5290238441300126 0.24690511031999307 L0.5153519691300126 0.24816650431997545 L0.49927937813000156 0.2548396813199574 L0.48288126613001126 0.2588680013199891 L0.4722204591299892 0.25654866531996134 L0.44414428712999054 0.2442195633199944 L0.4351924641300293 0.2383601883199944 Z M0.6027543131300099 0.11860921231996002 L0.5942500811300029 0.11258707632000409 L0.5828161621299905 0.10701253231999175 L0.5737829591299892 0.10119384731998338 L0.5722774251300002 0.09435791031997809 L0.5807002761300346 0.08735921231996002 L0.5911983231300333 0.08845784531998646 L0.6025915521299972 0.09256754532000144 L0.6132523601300086 0.09435791031997809 L0.6349808751300152 0.08996337931997545 L0.6713985191299976 0.07669840531999483 L0.717174886130028 0.07197835331995606 L0.7293819171300306 0.07393147831995606 L0.7397172031300165 0.07791910831999616 L0.7485062661300113 0.08272054031996134 L0.7578649901299919 0.08654541031997809 L0.7703161621299905 0.08752197231998338 L0.7746293131300099 0.09773518831999439 L0.7571325681299932 0.10481526731998514 L0.7344274901299919 0.11104085331995606 L0.7231970211299945 0.11860921231996002 L0.7236039221300139 0.1353735353199781 L0.7265336101300086 0.1488826493199653 L0.7346309401300068 0.15995035831999616 L0.7505000811300029 0.16951253231999175 L0.7404496251300152 0.13903564431998205 L0.7448848471299989 0.1271541343199587 L0.8193477371300055 0.11478434232000012 L0.8440059401300068 0.11555745431999043 L0.859753011130028 0.12849690731999175 L0.8518591311299879 0.12947347031998646 L0.8330603021299972 0.135943196319964 L0.9111853021299972 0.14216878231999175 L0.9207067871299905 0.14684814431998205 L0.9124060061299879 0.15693929031996134 L0.8943395991299958 0.16654215531999483 L0.8739945471300139 0.16951253231999175 L0.8739945471300139 0.176958821319964 L0.8855505371299905 0.1787898763199891 L0.9045121251300152 0.18786376931998205 L0.9149287921300306 0.19054931631998073 L0.9231075031300016 0.18977620431999043 L0.9421097821300073 0.18440511031999307 L0.9522009271299972 0.18314371732000012 L1.0068884271299972 0.19270589231998514 L1.049206136130028 0.20658121732000012 L1.0522985841299892 0.2129695633199944 L1.0390743001300002 0.2166723633199794 L1.0138871251300152 0.21789306631998073 L0.9538692221299989 0.21382405631995738 L0.9354366051300254 0.21789306631998073 L0.9354366051300254 0.22472900431997545 L1.0577510581300267 0.25557210331995606 L1.0937211101300086 0.27315022831995606 L1.0416377761300346 0.2698136393199988 L0.9900427241299958 0.2588680013199891 L0.9900427241299958 0.2657039383199944 L1.012015381129988 0.26794189431998205 L1.0323604331300267 0.27551025431997545 L1.0658076981300333 0.29235595731997677 L1.0658076981300333 0.2998429363199975 L1.0477412921300306 0.29854085331995606 L1.0271520991299958 0.2998836263199891 L1.0086787921300306 0.3047664383199944 L0.9968786621299905 0.3140844723199834 L1.0012325031300016 0.31599690731999175 L1.0055863441300126 0.31892659531998646 L1.010509847129999 0.32035074832000277 L1.010509847129999 0.32771565731999175 L1.002086995130032 0.3319067383199794 L0.9983028151300068 0.3360164383199944 L0.9987504071300073 0.3408992513199891 L1.0030635581300267 0.34761311831996267 L0.9664424641300293 0.3355688473199834 L0.9565954591299892 0.3147762043199904 L0.9563106281300016 0.28983317032000144 L0.9484574381300099 0.2657039383199944 L0.9310420731300333 0.24767822231998338 L0.9042679851300086 0.22725179031996134 L0.8739945471300139 0.2141495763200041 L0.8459997561299879 0.21789306631998073 L0.8694372561299879 0.2309138993199653 L0.8991817221299989 0.243365071319964 L0.9248164871300055 0.26012939431998205 L0.9354366051300254 0.2862117513199891 L0.9175329591299892 0.307818196319964 L0.8769649251300002 0.2922745763200041 L0.7982295731300333 0.2451961263199891 L0.7575801591300042 0.24641682931999043 L0.7470821121300055 0.24177815731999175 L0.7408565261300346 0.2373836263199891 L0.7198604331300267 0.2268448893199988 L0.7122920731300333 0.22472900431997545 L0.7003291831300267 0.2193579103199781 L0.6375036621299905 0.16926839231998514 L0.6027543131300099 0.11860921231996002 Z M1.1203731281300016 0.21789306631998073 L1.0865596511300346 0.19563557931999043 L1.0750850421300306 0.18037679031996134 L1.0794795731300333 0.163286946319964 L1.0864782711299945 0.15718343131995738 L1.0903438311300029 0.15783447231998338 L1.0930293781300016 0.16125244131998073 L1.0968135581300267 0.163286946319964 L1.1047481281300016 0.16194417331998778 L1.1063350421300306 0.1580786133199794 L1.106416422130014 0.15246337931997545 L1.1098750811300029 0.1455867513199891 L1.1118282061300029 0.1370011393199988 L1.1089392091299892 0.10945393831999439 L1.1067419431299932 0.10119384731998338 L1.0945349121299905 0.08064534531998646 L1.0861527501300152 0.06221272831995606 L1.0913203941299976 0.04768636031999307 L1.1203731281300016 0.03914143831999439 L1.1129268391300293 0.04658772831995606 L1.140921631129988 0.08589436831996267 L1.1751013181299932 0.11384847031998646 L1.2176631671300306 0.13382731131999748 L1.2712520341300042 0.14900472031998646 L1.2525752761300346 0.1643448893199988 L1.2213252761300346 0.16658284531998646 L1.1892614741299958 0.1600317383199794 L1.1681840001300152 0.14900472031998646 L1.16134806313001 0.1564510093199587 L1.1984981281300016 0.180865071319964 L1.21798868813001 0.18884033231997677 L1.237072347129999 0.18314371732000012 L1.2400427241299958 0.20064046231996002 L1.2435420731300333 0.20637776731998514 L1.250744222129999 0.2111385093199587 L1.250744222129999 0.21789306631998073 L1.2340205891300293 0.22346761031999307 L1.2136755371299905 0.2258683263200041 L1.1939815261300346 0.22342692032000144 L1.1787634271299972 0.21447509731998338 L1.1513789871300055 0.18721272831995606 L1.135713297130014 0.17940022831995606 L1.1203731281300016 0.18314371732000012 L1.14181681313001 0.21716064431998205 L1.1508500161300113 0.22786214231998514 L1.154674886130028 0.23490153031999483 L1.1479203281300165 0.23514567032000144 L1.1384395341300042 0.23254150431997545 L1.1284704591299892 0.22835042331998778 L1.125744222129999 0.2250545243199653 L1.1237504071300073 0.22139241531996134 L1.1203731281300016 0.21789306631998073 Z M0.09811564113001126 0.3012263993199653 L0.11182820613000288 0.30716715531999483 L0.12110555013000024 0.3101782223199834 L0.11158406513000685 0.31196858731996 L0.0991328941299976 0.3128230793199904 L0.017142334129989223 0.30912028031999483 L0.013683675130000239 0.301958821319964 L0.04057983412998922 0.29451253231999175 L0.06979532813001654 0.2938208003199847 L0.09811564113001126 0.3012263993199653 Z M1.3363968911300113 0.10086832632000409 L1.3665075681299932 0.10127522831995606 L1.38205118813001 0.10623942032000144 L1.380993245130032 0.11266845731997677 L1.351696370130032 0.1271541343199587 L1.3582881671300306 0.13740804031996134 L1.3584102371300055 0.1466853843199587 L1.3537308751300152 0.1529516603199781 L1.344697672130014 0.15815999331996267 L1.3317582191300126 0.16182210331995606 L1.3159704591299892 0.16462972031998646 L1.2993282061300029 0.16312418631999748 L1.287487386130028 0.15303304031996134 L1.2771114091300042 0.139849446319964 L1.2734899901299919 0.12874104831998778 L1.2853715001300152 0.12096923831997941 L1.3022172031300165 0.11706298831997941 L1.3363968911300113 0.10086832632000409 Z M1.072562256129988 0.11909749331996267 L1.077119547130014 0.1273982743199653 L1.0781368001300002 0.14216878231999175 L1.0633662921300306 0.14778401731998514 L1.0416377761300346 0.1426570633199944 L1.0214554851300086 0.12886311831996267 L1.0115270991299958 0.1193416343199587 L0.984508870130032 0.08792887332000277 L0.9735225421300306 0.06489827431996531 L0.9770218911300113 0.04284423831997941 L0.9935420731300333 0.03474690731999175 L1.0097774251300002 0.04243733731996002 L1.0185664871300055 0.05696370431999043 L1.0615759271299972 0.10420491531996134 L1.072562256129988 0.11909749331996267 Z M1.00314493813001 0.14489501931998205 L1.0096553551300254 0.14912679031996134 L1.0186885581300267 0.15995035831999616 L1.0145381671300306 0.17044840531999483 L0.9992386881300099 0.1724829103199781 L0.9811722821300073 0.16755940731999175 L0.9668086751300002 0.1566951493199653 L0.9588741051300254 0.1405004883199794 L0.9488643391300293 0.12568929031996134 L0.941784261130028 0.1193416343199587 L0.922008870130032 0.10481526731998514 L0.8955603021299972 0.08125569631996399 L0.8883988441300126 0.07295491531996134 L0.8706172691299976 0.04768636031999307 L0.8687862141300293 0.03364827431996531 L0.8787145991299958 0.029375813319994393 L0.8925492351300086 0.03523518831999439 L0.9058955891300293 0.046831868319962666 L0.9334834801300254 0.08011637332000277 L1.00314493813001 0.14489501931998205 Z M1.2486690261300346 0.08491780631995738 L1.2563187661300113 0.0889461263199891 L1.2632360841299892 0.09907796231996002 L1.2584346511300346 0.10786702431996531 L1.2519242351300086 0.11470296231996002 L1.2341426591300042 0.11860921231996002 L1.202119547130014 0.11299397831995606 L1.1723750811300029 0.09895589231998514 L1.148571370130032 0.0791805013199891 L1.133760172130014 0.062456868319962666 L1.1244014481300333 0.037066243319962666 L1.1115433751300152 0.03084065731999175 L1.101940511130028 0.01802327431996531 L1.1152868651299919 0.0100480143199988 L1.138805745130032 0.013628743319962666 L1.1532100421300306 0.02135986331997941 L1.1630977371300055 0.03401448531999307 L1.1707881671300306 0.048622233319996155 L1.1830765781300165 0.05960856131999748 L1.197399495130032 0.06913004532000144 L1.2031368001300002 0.07791910831999616 L1.2030147301300254 0.08475504532000144 L1.2087113441300126 0.09114339231998514 L1.2193721511300346 0.08988199832000277 L1.2303584801300254 0.0830867513199891 L1.242321370130032 0.08272054031996134 L1.2486690261300346 0.08491780631995738 Z" fill="black" stroke="black" stroke-width="0.5" vector-effect="non-scaling-stroke"/></svg>