<svg xmlns="http://www.w3.org/2000/svg" viewBox="0 0 3.6555810549000114 1.406333307900013"><path d="M1.6595776369500044 1.194126123450019 L1.6771557619500044 1.2016131024499828 L1.6748364259500335 1.2152849774499828 L1.660757649950014 1.2284685714499801 L1.6427726239499947 1.2343279464499801 L1.634309081950036 1.2357114094500048 L1.6240551759500335 1.2393735194499982 L1.6154288739499947 1.244907373450019 L1.607331542950007 1.2600440924500163 L1.598013508950018 1.2596371914499969 L1.5897941079499986 1.2523943524499828 L1.5890209959500083 1.2403500814500035 L1.5885327149500057 1.2387224774499828 L1.5876782229500321 1.2372576334499854 L1.5864575199500308 1.2357927904499775 L1.5845043949500308 1.2343279464499801 L1.5953279629500088 1.2268409674500163 L1.6045239259500335 1.2138201334499854 L1.6090405279500004 1.1975440924500163 L1.605622558950003 1.1798032064500035 L1.5930493169500295 1.1669451334499854 L1.57701741595001 1.1605160974499995 L1.5630200199500308 1.1527035974499995 L1.5571606449500308 1.135532373450019 L1.5618806969500127 1.1165707844500048 L1.5722159829499986 1.1247901854500242 L1.5881665039500348 1.1524594564500035 L1.6374829109500268 1.1490414884499955 L1.6588452149500057 1.1522966964499801 L1.6738598639500282 1.1654802904499775 L1.6692211919500295 1.1702817224499995 L1.6651521809500167 1.1771176594500048 L1.6617749029500004 1.1851743004500008 L1.6595776369500044 1.194126123450019 Z M0.1600252279500154 0.8030942224499995 L0.14903889995001407 0.8052914884499955 L0.11905029295000702 0.8173357584499854 L0.11905029295000702 0.8235206544500215 L0.128368326949996 0.8269386234500189 L0.13845947295003214 0.8279151854500242 L0.1490795899500057 0.8266131024499828 L0.1600252279500154 0.8235206544500215 L0.13650634795003214 0.8480974774499828 L0.10175699894999468 0.8480160974499995 L0.06521728595002685 0.8323910974499995 L0.035839029949997325 0.8104998214499801 L0.04072184294999204 0.8074073734500189 L0.04568603595002685 0.8052914884499955 L0.05634684294999204 0.8030942224499995 L0.0652986659500101 0.8057797694499982 L0.08670166095002685 0.8096860194499982 L0.10338460295001539 0.8197771654499775 L0.10794189495003081 0.8157081544500215 L0.11160400395003478 0.8030942224499995 L0.11485921295000878 0.7982114094500048 L0.11681233795000878 0.7913754724499995 L0.12112548895002817 0.7851091964499801 L0.13174560595000173 0.7825864094500048 L0.1404939779500154 0.7839698734500189 L0.14785888695000438 0.7879575034500022 L0.15432861395002817 0.7945493004500008 L0.1600252279500154 0.8030942224499995 Z M0.40640380895000305 0.9333839354500242 L0.3775952149500057 0.9394060714499801 L0.357331542950007 0.9387550294500215 L0.3102124029500004 0.9266293784500022 L0.31448486395002817 0.9166196134499955 L0.3170483399500057 0.9129575034500022 L0.30268473294999865 0.9127133634499955 L0.2964184569500361 0.9063657064500035 L0.2934887699500308 0.8982276854500242 L0.28909423895002817 0.8924496914499969 L0.279206542950007 0.8899269044500215 L0.2580883789500348 0.8885434414499969 L0.24815999395001143 0.8856137534500022 L0.2445385749499991 0.8831723474499995 L0.24221923895002817 0.8806495604500242 L0.23941162095000834 0.8787778164499969 L0.23448811895001143 0.8787778164499969 L0.24221923895002817 0.8568051594500048 L0.23538330095003346 0.8425636234500189 L0.21967692094999336 0.8343442224499995 L0.20095947295003214 0.8309262534500022 L0.21837483795000878 0.8177426594500048 L0.23212809294999204 0.8118832844500048 L0.24807861395002817 0.8103370604500242 L0.28876871794999204 0.8108253424500163 L0.2945467129500088 0.8099301594500048 L0.30679443395000305 0.7930844564500035 L0.325633951949996 0.7745297694499982 L0.337352701949996 0.7672055504500008 L0.3517569989499947 0.7626482584499854 L0.35635498095000173 0.7620785974499995 L0.36713785794999865 0.7620785974499995 L0.37169514995001407 0.7626482584499854 L0.3794262699500308 0.7660662274499828 L0.38219319695001275 0.7698910974499995 L0.3830883789500348 0.7733090664499969 L0.38536702495001407 0.7757504724499995 L0.40563069695001275 0.7820981284500022 L0.41421630895000305 0.7894223474499995 L0.4098217779500004 0.7999203944499982 L0.3909008789500348 0.8099301594500048 L0.34182861395002817 0.8275896654499775 L0.3238435879500088 0.8445981284500022 L0.3214021809500167 0.8528989094500048 L0.3265698249499991 0.8552589354500242 L0.3990795899500057 0.8397966964499801 L0.42947509795003214 0.8225440924500163 L0.44916910794999865 0.8157081544500215 L0.4654858399500057 0.8052914884499955 L0.4747224939500114 0.7825864094500048 L0.4703686529500004 0.7742856284500022 L0.46072509795003214 0.7711118004500008 L0.45608642595003346 0.7668800294500215 L0.4672355149499907 0.7552426594500048 L0.4800122069500361 0.7479184414499969 L0.49116129594999336 0.7469418784500022 L0.49897379594999336 0.7527198734500189 L0.5019848639500282 0.7659034674500163 L0.5001131189500114 0.7747739094500048 L0.49547444695001275 0.7849464354500242 L0.489696451949996 0.7940610194499982 L0.4846508789500348 0.7999203944499982 L0.4790356449500308 0.8090349774499828 L0.47691975895001804 0.8336118004500008 L0.4747224939500114 0.8445981284500022 L0.4683748379500088 0.8563982584499854 L0.446727701949996 0.8856137534500022 L0.48831298895002817 0.8856137534500022 L0.48041910794999865 0.8948097174500163 L0.47342041095002685 0.9130388834499854 L0.4672355149499907 0.9203631024499828 L0.4532381189500114 0.9266293784500022 L0.40640380895000305 0.9333839354500242 Z M0.08364990295000041 0.6664568524499828 L0.10517496794999204 0.6661313314500035 L0.14106363994999072 0.6768735194499982 L0.1600252279500154 0.6795590664499969 L0.14285400395003478 0.6859067224499995 L0.10354736395002817 0.6843604984500189 L0.087352701949996 0.6900571134499955 L0.07970296295000878 0.7000668784500022 L0.07669189495003081 0.7117042484500189 L0.0768139649500057 0.7415707844500048 L0.06448486395002817 0.7385597174500163 L0.05191162095000834 0.7336769044500215 L0.04161702495001407 0.7259457844500048 L0.035839029949997325 0.7142270344500048 L0.04202392595003346 0.6942888834499854 L0.049673665950010104 0.6809425294500215 L0.06220621794999204 0.6722348474499995 L0.08364990295000041 0.6664568524499828 Z M1.7216300459499934 0.7273292484500189 L1.6944897459500083 0.7476743004500008 L1.628368326949996 0.7852719564500035 L1.5226554369500462 0.8809750814500035 L1.502554524950014 0.9066912274499828 L1.4930737309500017 0.9222348474499995 L1.4822908529500154 0.9350115404499775 L1.4669913739499947 0.9438006024499828 L1.4229646809500167 0.9510434414499969 L1.3591625979500321 0.9805844564500035 L1.3515128579499986 0.9512875814500035 L1.3482983399500057 0.9470558104500242 L1.32311116595001 0.9446957844500048 L1.3097241209500083 0.9416847174500163 L1.3039054369500462 0.9371274254500008 L1.29967366595001 0.9262224774499828 L1.2898266609500268 0.9266293784500022 L1.2794099939500114 0.9320004724499995 L1.273143717949992 0.9371274254500008 L1.2708650719500127 0.9475440924500163 L1.282746581950036 0.9680519044500215 L1.2799796549499973 0.9774920084499854 L1.259919433950003 0.9847348474499995 L1.1736157229500321 0.9805844564500035 L1.1504223639500282 0.9887224774499828 L1.138581542950007 0.9896176594500048 L1.1326000979500321 0.9805844564500035 L1.1359366869500462 0.9745623214499801 L1.1539217129500088 0.9626808104500242 L1.1599438479500321 0.9544614094500048 L1.094147949949999 0.9714698734500189 L1.0779939779500154 0.9805844564500035 L1.0674959309500167 0.9988136234500189 L1.0733553059500167 1.0141131024499828 L1.08482991595001 1.0308774254500008 L1.0910148119500462 1.0531756024499828 L1.0858878579499986 1.0681495604500242 L1.073680826949996 1.0805193524499828 L0.993602701949996 1.1396013834499854 L0.9818025719500127 1.1456235194499982 L0.9597485359500268 1.1448097174500163 L0.9286612959499934 1.1308123214499801 L0.9066886399499907 1.1319516444499982 L0.9107983399500057 1.1334164884499955 L0.9121411139500282 1.1386248214499801 L0.9114900719500127 1.1448910974499995 L0.9097810879500088 1.1490414884499955 L0.9029858399500057 1.1516456544500215 L0.8961092129500088 1.1475766444499982 L0.8892732749500141 1.1418800294500215 L0.8725903319500361 1.1345558104500242 L0.8539135749499991 1.1158383634499955 L0.8480541999499991 1.1116065924500163 L0.8364575199500308 1.1087582844500048 L0.8169262699500308 1.0980160974499995 L0.8036612959499934 1.0979347174500163 L0.7974763999500141 1.1021664884499955 L0.7956860359500268 1.1090024254500008 L0.798737792950007 1.1155128424500163 L0.825633951949996 1.1238950034500022 L0.8408520509500335 1.1376482584499854 L0.8518383789500348 1.1553891444499982 L0.8582674159500101 1.1729672694499982 L0.8174145509500335 1.2030779464499801 L0.7612622069500361 1.2227719564500035 L0.7073071289500348 1.2191098474499995 L0.6727205409500101 1.1798032064500035 L0.685700683950003 1.1806170084499854 L0.6955069989499947 1.1828956544500215 L0.7044588219500127 1.1835466964499801 L0.7149568689500114 1.1798032064500035 L0.6961580409500101 1.1708513834499854 L0.6714998379500088 1.1535987794500215 L0.6495271809500167 1.1341489094500048 L0.6391918949500308 1.1184425294500215 L0.6467602539500348 1.1153500814500035 L0.6600252279500154 1.1055844564500035 L0.6654370119500044 1.0951677904499775 L0.6497713219500127 1.0904477384499955 L0.5491040039500348 1.0877621914499969 L0.5361645509500335 1.0904477384499955 L0.5279451499500141 1.0977719564500035 L0.5338859049499973 1.1020037274499828 L0.5469067389500282 1.1041196134499955 L0.5597241209500083 1.1047706544500215 L0.5799471029500154 1.1107927904499775 L0.6025708009500335 1.125766748450019 L0.6217765299499973 1.1439145344500048 L0.6317456059500017 1.1599464354500242 L0.573680826949996 1.1599464354500242 L0.5572420249500141 1.1580746914499969 L0.548981933950003 1.1532732584499854 L0.5438142909500101 1.1464373214499801 L0.4985668949500308 1.108188623450019 L0.4867260749499991 1.1011899254500008 L0.47378662095000834 1.0998878424500163 L0.4602368169500295 1.1002133634499955 L0.446727701949996 1.0979347174500163 L0.4291088869500044 1.0873552904499775 L0.39643473294999865 1.0590349774499828 L0.3784497069500361 1.0500831544500215 L0.3324291999499991 1.0435727384499955 L0.3170890299499973 1.0325864094500048 L0.3238435879500088 1.008579248450019 L0.3342602539500348 0.9984881024499828 L0.35932535794999865 1.0019060714499801 L0.41323974595000834 1.0159848474499995 L0.45681884795003214 1.0179379724499995 L0.4672355149499907 1.022251123450019 L0.47163004594999336 1.032016748450019 L0.4711417649499907 1.0433285974499995 L0.4756990559500167 1.0512224774499828 L0.49514892595003346 1.0500831544500215 L0.4808666999499991 1.0159848474499995 L0.548534342949992 1.0103696134499955 L0.6118481449500308 0.9949073734500189 L0.6118481449500308 0.9880714354500242 L0.5800284829499986 0.9768409674500163 L0.5530102539500348 0.9737485194499982 L0.529654133950018 0.9659360194499982 L0.5088208009500335 0.9407895344500048 L0.595612792950007 0.9403012534500022 L0.6410636399499907 0.9473813314500035 L0.659618326949996 0.9681332844500048 L0.6664542649499907 0.9681332844500048 L0.6703605149499907 0.9608090664499969 L0.6745109049499973 0.9561703944499982 L0.686962076949996 0.9470558104500242 L0.6886303709500083 0.9573910974499995 L0.6937573249499991 0.9661801594500048 L0.7015698249499991 0.9698422694499982 L0.7114575199500308 0.9647153164499969 L0.7218334959500083 0.9577979984500189 L0.7314770509500335 0.9573097174500163 L0.742097167950007 0.9597511234500189 L0.7699698899499907 0.9626808104500242 L0.7802237959499934 0.9659360194499982 L0.7968253579499986 0.9743995604500242 L0.8133862309500017 0.9857114094500048 L0.821971842949992 0.9859555504500008 L0.8309643559500017 0.9743995604500242 L0.8172924809500017 0.9681332844500048 L0.8172924809500017 0.9612973474499995 L0.8427237959499934 0.9617042484500189 L0.871003417950007 0.9582862794500215 L0.8979809569500361 0.9511248214499801 L0.9197094729500321 0.9407895344500048 L0.9455883789500348 0.9112485194499982 L0.951081542950007 0.9066912274499828 L0.9541333009500335 0.9026222174500163 L0.9485180669500295 0.8948097174500163 L0.9373689779500154 0.8902524254500008 L0.9234529629500088 0.8958676594500048 L0.8872387699500308 0.9164568524499828 L0.839305826949996 0.9278500814500035 L0.7897045899500057 0.9271990404499775 L0.7484448249499991 0.9129575034500022 L0.827831217949992 0.9162940924500163 L0.8480541999499991 0.9097836754500008 L0.855378417950007 0.9065284674500163 L0.8747875979500321 0.9012387534500022 L0.8787752279500154 0.8958676594500048 L0.8819897459500083 0.8868344564500035 L0.8895987959499934 0.8778012534500022 L0.8988354499499991 0.8700701334499854 L0.9066886399499907 0.8651059414499969 L0.8973706059500017 0.8533058104500242 L0.8983878579499986 0.8454933104500242 L0.9035961919500295 0.8389828944499982 L0.9066886399499907 0.8309262534500022 L0.9054679369500462 0.8214047694499982 L0.9003409829499986 0.7996762534500022 L0.8992830409500101 0.7860043784500022 L0.9095369469500127 0.7689145344500048 L0.9337068689500114 0.7564633634499955 L0.9611319989499947 0.7513364094500048 L0.9818025719500127 0.7552426594500048 L0.974071451949996 0.7636248214499801 L0.9656892909500101 0.7709490404499775 L0.9476635749499991 0.7825864094500048 L0.9783032229500321 0.7779477384499955 L0.9909171549499973 0.7779477384499955 L0.9960441079499986 0.7860043784500022 L0.9933178709500083 0.7953631024499828 L0.974315592949992 0.8235206544500215 L0.986034342949992 0.8282407064500035 L1.0152905279500004 0.8445981284500022 L1.0167960619500462 0.8284034674500163 L1.0246899419500295 0.8160336754500008 L1.0381990559500167 0.8094418784500022 L1.0569165039500348 0.8104998214499801 L1.0450349939500114 0.7957700034500022 L1.041372883950018 0.7842953944499982 L1.0432446289500348 0.7518246914499969 L1.047028808950003 0.7424659674500163 L1.0562654629500088 0.7364438314500035 L1.0676586919500295 0.7340024254500008 L1.0779939779500154 0.7347348474499995 L1.084585774950014 0.7393735194499982 L1.091706542950007 0.7553240404499775 L1.0978507489499947 0.7626482584499854 L1.1046866869500462 0.7615903164499969 L1.1138012699500308 0.7567888834499854 L1.1217358399500057 0.7557309414499969 L1.125153808950003 0.7659034674500163 L1.129507649950014 0.7685076334499854 L1.1393139649500057 0.7645200034500022 L1.1699536139500282 0.7471860194499982 L1.1728019209499934 0.7287940924500163 L1.1716625979500321 0.7078793784500022 L1.1736157229500321 0.6932309414499969 L1.146841633950018 0.6873715664499969 L1.1221834309500167 0.6907081544500215 L1.0983390299499973 0.6971371914499969 L1.0742504889500282 0.7006365404499775 L1.0155753579499986 0.6951840664499969 L0.9900219729500321 0.7001482584499854 L0.9960441079499986 0.7210629724499995 L0.9880688479500321 0.7325375814500035 L0.9807446289500348 0.7325375814500035 L0.9723217779500004 0.7283871914499969 L0.9613354499499991 0.7273292484500189 L0.9164542649499907 0.7455584154499775 L0.9029858399500057 0.7484067224499995 L0.8579418949500308 0.7484067224499995 L0.8438631189500114 0.7519060714499801 L0.836294758950018 0.7601254724499995 L0.8309643559500017 0.7691586754500008 L0.8235180669500295 0.7757504724499995 L0.8033764649500057 0.7758318524499828 L0.793122558950003 0.7610206544500215 L0.7836417649499907 0.7432797694499982 L0.765778808950003 0.7347348474499995 L0.743846842949992 0.7287940924500163 L0.7250480149499907 0.7134946134499955 L0.7138989259500335 0.6933123214499801 L0.7149568689500114 0.6727231284500022 L0.7290356449500308 0.6556332844500048 L0.7451489259500335 0.6575050294500215 L0.764029133950018 0.6669451334499854 L0.8639233399500057 0.6863950034500022 L0.8924471029500154 0.6869646654499775 L0.9160473639500282 0.6802914884499955 L0.9620271809500167 0.6576677904499775 L0.9852205409500101 0.6527849774499828 L1.0640779629500088 0.6578305504500008 L1.1344311529500004 0.6402524254500008 L1.1551831059500017 0.6424496914499969 L1.1970532229500321 0.6688168784500022 L1.2208976239499947 0.6758969564500035 L1.2766430669500295 0.6795590664499969 L1.262076008950018 0.6610043784500022 L1.237987467949992 0.6507504724499995 L1.2101554369500462 0.6463559414499969 L1.1841137699500308 0.6453793784500022 L1.164216308950003 0.6392758634499955 L1.1052563479500321 0.5976091964499801 L1.0946362309500017 0.5937029464499801 L1.0744132489499947 0.5888201334499854 L1.0637524419500295 0.5833676594500048 L1.0364086919500295 0.5565935714499801 L1.0104484049499973 0.5548032064500035 L0.863638508950018 0.5124854984500189 L0.851472167950007 0.5051612794500215 L0.8409741209500083 0.48449070645000347 L0.8387361659500101 0.47252781644999686 L0.8480541999499991 0.46723810244998276 L0.9066886399499907 0.46723810244998276 L0.954784342949992 0.47521336344999554 L0.9652416999499991 0.4704933104500242 L0.951081542950007 0.4501482584499854 L0.9305330409500101 0.4366391444499982 L0.9039217129500088 0.4275245604500242 L0.8760083009500335 0.42174656644999686 L0.8379223639500282 0.41857273844999554 L0.810253092949992 0.42003758145000347 L0.7968253579499986 0.41881687845000215 L0.7654939779500154 0.40750502945002154 L0.751862792950007 0.4057146654499775 L0.7419750979500321 0.4034360194499982 L0.730826008950018 0.3974138834499854 L0.7232983399500057 0.3896013834499854 L0.724519042950007 0.3819516444499982 L0.7281811529500004 0.3710466964499801 L0.7230541999499991 0.35900242545000083 L0.7080395509500335 0.33751805045000083 L0.7193513999500141 0.3382504724499995 L0.7297680669500295 0.3376808104500242 L0.7394116209500083 0.3350766444499982 L0.7484448249499991 0.3300310714499801 L0.7813631189500114 0.34419122744998276 L0.8924471029500154 0.37169773844999554 L0.9272778319500361 0.3851254724499995 L1.0295727539500348 0.43932469144999686 L1.1111157229500321 0.46495945645000347 L1.200878092949992 0.47350437845000215 L1.365388183950003 0.45356622744998276 L1.341340331950036 0.4359067224499995 L1.2704174809500017 0.4320004724499995 L1.2799796549499973 0.4092953944499982 L1.300935058950003 0.3919614094500048 L1.3244132489499947 0.37853367545000083 L1.329987792950007 0.36535008145000347 L1.336538899950014 0.36119969144999686 L1.3482983399500057 0.3682797694499982 L1.351960449949999 0.3743832844500048 L1.3591625979500321 0.3995297694499982 L1.4195874029500004 0.36779148844999554 L1.4525463869500044 0.3588396654499775 L1.4820874029500004 0.36486180045000083 L1.4820874029500004 0.37169773844999554 L1.4764314779500154 0.37487156644999686 L1.4735831709499934 0.3780453944499982 L1.4715893559500017 0.3816261234500189 L1.4684155279500004 0.38536961344999554 L1.562409667950007 0.39660008145000347 L1.591950683950003 0.4057146654499775 L1.5761222329499986 0.41059747744998276 L1.5592358399500057 0.41271336344999554 L1.5236319989499947 0.41271336344999554 L1.552196451949996 0.4330584154499775 L1.6055004889500282 0.4330584154499775 L1.7936515299499973 0.4057146654499775 L1.8114737959499934 0.4011573734500189 L1.845165201949996 0.38170750345000215 L1.865632324949999 0.37853367545000083 L1.865632324949999 0.38536961344999554 L1.795279133950018 0.4173520344500048 L1.769440917950007 0.42565281644999686 L1.8147290039500348 0.4417660974499995 L1.8627026369500044 0.44225437845000215 L1.9612133789500348 0.41881687845000215 L1.9543774419500295 0.40945815445002154 L1.9424145509500335 0.40083185244998276 L1.9286612959499934 0.3944841964499801 L1.9165356449500308 0.3920427904499775 L1.910065917950007 0.38634617545000083 L1.9094555669500295 0.3568865404499775 L1.906647949949999 0.34435398844999554 L1.9150708009500335 0.34500502945002154 L1.9324047859500268 0.34362156644999686 L1.9407869469500127 0.34435398844999554 L1.938915201949996 0.3397966964499801 L1.93639241595001 0.3284848474499995 L1.9345206709499934 0.32384617545000083 L1.948762206950036 0.3236834154499775 L1.966950683950003 0.3261248214499801 L1.9825349939500114 0.33165867545000083 L1.9891674809500017 0.3409360194499982 L1.996695149950014 0.3474464354500242 L2.098054199949999 0.3734067224499995 L2.1249503579499986 0.3851254724499995 L2.1400056969500127 0.3995297694499982 L2.097118326949996 0.39806492545000083 L2.079540201949996 0.40319187845000215 L2.07115804095001 0.41881687845000215 L2.0748608399500057 0.43387221745001625 L2.087678222950032 0.43444187845000215 L2.1041577149500057 0.43094252945002154 L2.118846842949992 0.4330584154499775 L2.092194824949999 0.44298680045000083 L2.0458081059500017 0.4760271654499775 L2.0226554369500462 0.4877459154499775 L2.016022949949999 0.47667820645000347 L2.005565592949992 0.47309747744998276 L1.9934399419500295 0.47521336344999554 L1.9817211919500295 0.48090997744998276 L1.9817211919500295 0.4877459154499775 L1.9853833009500335 0.49303562845000215 L1.9841625979500321 0.49889500345000215 L1.9754956059500017 0.5150082844500048 L1.9826163739499947 0.5123227384499955 L2.003449706950036 0.5087420084499854 L2.003449706950036 0.5150082844500048 L1.9717928059500167 0.5429216964499801 L1.968212076949996 0.5492693524499828 L1.9649568689500114 0.5770200034500022 L1.95787679095001 0.5833676594500048 L1.9455069989499947 0.5878435714499801 L1.9208487959499934 0.6073748214499801 L1.906647949949999 0.6111996914499969 L1.8954174809500017 0.6072120604500242 L1.8899243169500295 0.5985043784500022 L1.88951741595001 0.5876808104500242 L1.8935864259500335 0.5771013834499854 L1.8624584959500083 0.6004575034500022 L1.845409342949992 0.6091651854500242 L1.831493326949996 0.6043637534500022 L1.776887206950036 0.6385434414499969 L1.804597167950007 0.6371599774499828 L1.8004467779500004 0.6480649254500008 L1.766022949949999 0.6761410974499995 L1.7216300459499934 0.7273292484500189 Z M1.4547436529500004 0.28966648844999554 L1.4402172859500268 0.29552586344999554 L1.4337068689500114 0.2960141444499982 L1.4337068689500114 0.3035011234500189 L1.4475415039500348 0.3152198734500189 L1.4359855149499907 0.3249854984500189 L1.4130362959499934 0.33051935244998276 L1.3926912439500114 0.3300310714499801 L1.3731599939500114 0.32238133145000347 L1.355826008950018 0.31115086344999554 L1.341503092949992 0.29747898844999554 L1.3312084959500083 0.2821795084499854 L1.3782869469500127 0.2729021654499775 L1.3937084959500083 0.2728207844500048 L1.4090893559500017 0.27550633145000347 L1.4481518559500017 0.2894223474499995 L1.4547436529500004 0.28966648844999554 Z M1.1841137699500308 0.37853367545000083 L1.112743326949996 0.38715997744998276 L1.0979321289500348 0.38561375345000215 L1.079621581950036 0.38048680045000083 L1.0653393559500017 0.37120945645000347 L1.0625317389500282 0.35770034245001625 L1.076569824949999 0.34337742545000083 L1.101268717949992 0.3350766444499982 L1.1493644209499934 0.3300310714499801 L1.1603507489499947 0.33442560244998276 L1.1805737309500017 0.35363133145000347 L1.190949706950036 0.35802586344999554 L1.2057202149500057 0.35729344144999686 L1.2186189779500154 0.35509617545000083 L1.2305818689500114 0.35086440445002154 L1.2424633789500348 0.34435398844999554 L1.224315592949992 0.33328627945002154 L1.169465331950036 0.3135922694499982 L1.1310538739499947 0.30594252945002154 L1.084138183950003 0.2842953944499982 L1.0705069989499947 0.27550633145000347 L1.054230956950036 0.26102065445002154 L1.053132324949999 0.2542660974499995 L1.0637524419500295 0.24816258145000347 L1.0801098639500282 0.24694187845000215 L1.0890616869500462 0.2533709154499775 L1.0948803709500083 0.26329930045000083 L1.1015942389500282 0.27233250345000215 L1.1222241209500083 0.28331883145000347 L1.1482250979500321 0.28893406644999686 L1.1757316079499986 0.2908058104500242 L1.200878092949992 0.28966648844999554 L1.2548331709499934 0.2816098474499995 L1.2797355149499907 0.28600437845000215 L1.2903149419500295 0.30675633145000347 L1.2947908529500154 0.3109067224499995 L1.3025219729500321 0.32156752945002154 L1.3048819989499947 0.33247247744998276 L1.293366699949999 0.33751805045000083 L1.2555249029500004 0.36486180045000083 L1.2398592129500088 0.38797377945002154 L1.2350170899500057 0.3920427904499775 L1.2246411139500282 0.39147312845000215 L1.195669758950018 0.38113784245001625 L1.1841137699500308 0.37853367545000083 Z M3.5377921549499973 0.6795590664499969 L3.577587076949996 0.6706886234500189 L3.597118326949996 0.6690610194499982 L3.619742024950014 0.6727231284500022 L3.619742024950014 0.6795590664499969 L3.5916658529500154 0.6810239094500048 L3.4901847329499986 0.7122739094500048 L3.46959554095001 0.7147153164499969 L3.4017244469500127 0.7156104984500189 L3.388459472950032 0.7186215664499969 L3.3876049809500017 0.7263526854500242 L3.374909667950007 0.7335141444499982 L3.361604003950035 0.7370948734500189 L3.2096264649500057 0.7483253424500163 L3.1319897459500083 0.7405942224499995 L3.0927237959499934 0.7415707844500048 L3.0927237959499934 0.7484067224499995 L3.105012206950036 0.7499529464499801 L3.1399243169500295 0.7626482584499854 L3.156403808950003 0.7663917484500189 L3.2088533529500154 0.7689145344500048 L3.2088533529500154 0.7757504724499995 L3.1808178709500083 0.7811215664499969 L3.121857910950027 0.7787615404499775 L3.0927237959499934 0.7825864094500048 L3.0233878579499986 0.8098487794500215 L2.9965323899499907 0.8104998214499801 L3.018098144950031 0.8170102384499955 L3.038687337950009 0.8160336754500008 L3.1008618169500295 0.7971534674500163 L3.167878417950007 0.7968279464499801 L3.1541658529500154 0.8080584154499775 L3.129060058950003 0.8192075034500022 L3.1017569989499947 0.8275896654499775 L3.058991699949999 0.8353207844500048 L2.9828605149499907 0.8651059414499969 L2.9349682619500044 0.8782081544500215 L2.8428051759500335 0.8690121914499969 L2.7911287439500114 0.8713722174500163 L2.7550773119500462 0.8787778164499969 L2.596223144950031 0.8773129724499995 L2.5719311529500004 0.8713722174500163 L2.537873535950027 0.8514340664499969 L2.4916088869500044 0.8406104984500189 L2.469351399950014 0.8285662274499828 L2.447785644950031 0.8211606284500022 L2.437653808950003 0.8139177904499775 L2.4326489259500335 0.8054542484500189 L2.4289868169500295 0.7952003424500163 L2.423615722950032 0.7865740404499775 L2.4137280279500004 0.7825864094500048 L2.40123616595001 0.7884457844500048 L2.3902905279500004 0.8025245604500242 L2.382518717949992 0.8177426594500048 L2.3795890299499973 0.8272641444499982 L2.384919433950003 0.8397966964499801 L2.398062337950009 0.8520037274499828 L2.41490804095001 0.8614438314500035 L2.461457519950031 0.8703956544500215 L2.501862792950007 0.8835792484500189 L2.538524576949996 0.9013201334499854 L2.5577303059500167 0.9203631024499828 L2.5436108399500057 0.9379412274499828 L2.569855956950036 0.9431495604500242 L2.6266186529500004 0.9333839354500242 L2.6555493169500295 0.9345232584499854 L2.6933097329499986 0.9410336754500008 L2.7217114259500335 0.9539731284500022 L2.722199706950036 0.9743995604500242 L2.749543456950036 0.9880714354500242 L2.697541503950035 1.0100440924500163 L2.681184081950036 1.022251123450019 L2.692902831950036 1.0291684414499969 L2.7001456709499934 1.0382016444499982 L2.7047436529500004 1.049594873450019 L2.713247883950018 1.0837745604500242 L2.712800292950007 1.0938657064500035 L2.705109863950028 1.0974464354500242 L2.688101399950014 1.0979347174500163 L2.6789054369500462 1.0931332844500048 L2.6477368169500295 1.0562680504500008 L2.636262206950036 1.0457700034500022 L2.624624837950009 1.0370623214499801 L2.6105460619500462 1.0311215664499969 L2.592194824949999 1.0290870604500242 L2.5832836919500295 1.0269711754500008 L2.5712394209499934 1.0179379724499995 L2.564851074949999 1.0159848474499995 L2.558747558950003 1.0179379724499995 L2.556102701949996 1.0224138834499854 L2.5519116209500083 1.0269711754500008 L2.540925292950007 1.0290870604500242 L2.5321362309500017 1.0279477384499955 L2.517487792950007 1.0232276854500242 L2.509919433950003 1.022251123450019 L2.49693929095001 1.0256690924500163 L2.497590331950036 1.0334815924500163 L2.5028393559500017 1.0428403164499969 L2.5030834959500083 1.0500831544500215 L2.4895336919500295 1.0591977384499955 L2.4584057619500044 1.0711606284500022 L2.4447338869500044 1.0804379724499995 L2.428254394950031 1.0876808104500242 L2.417756347950032 1.0760434414499969 L2.406281738950028 1.0425961754500008 L2.3854484049499973 1.0570004724499995 L2.3741365559500167 1.0486183104500242 L2.3670564779500154 1.0305519044500215 L2.359081217949992 1.0159848474499995 L2.337515462950009 1.0091489094500048 L2.3153800459499934 1.0125668784500022 L2.2981274419500295 1.0123227384499955 L2.290803222950032 0.9949073734500189 L2.2726554369500462 1.0009295084499854 L2.257844238950028 0.9981625814500035 L2.2287101239499947 0.9805844564500035 L2.2213452149500057 0.9730974774499828 L2.2157299809500017 0.9693539884499955 L2.2082836919500295 0.9681332844500048 L2.1962394209499934 0.9713071134499955 L2.191682128950035 0.9764340664499969 L2.1885896809500167 0.9823748214499801 L2.1809399419500295 0.9880714354500242 L2.166617024950014 0.9925473474499995 L2.153758951949996 0.9936052904499775 L2.140900878950035 0.9918149254500008 L2.1263745119500044 0.9880714354500242 L2.117463378950035 0.9841651854500242 L2.110790201949996 0.9794451334499854 L2.1031811529500004 0.9758644044500215 L2.091584472950032 0.9743995604500242 L2.0844230149499907 0.9765154464499801 L2.069774576949996 0.9857927904499775 L2.0611889649500057 0.9880714354500242 L2.0507316079499986 0.9939308104500242 L2.0565096029500154 1.0052426594500048 L2.0714428709500083 1.0121599774499828 L2.1009431969500127 1.0003598474499995 L2.1533520509500335 1.008579248450019 L2.168000488950028 1.0150082844500048 L2.169953613950028 1.0292498214499801 L2.169546712950009 1.0435727384499955 L2.177196451949996 1.0500831544500215 L2.196890462950009 1.0478045084499854 L2.210399576949996 1.0440610194499982 L2.2236645509500335 1.0432472174500163 L2.2423819989499947 1.0500831544500215 L2.2082836919500295 1.0767758634499955 L2.2445792649499907 1.0753110194499982 L2.2623608399500057 1.0772641444499982 L2.2772127279500154 1.0842628424500163 L2.2604077149500057 1.0941098474499995 L2.221467285950027 1.1039568524499828 L2.2082836919500295 1.1116065924500163 L2.2005932619500044 1.1302426594500048 L2.215119628950035 1.1361834154499775 L2.2382316079499986 1.1348813314500035 L2.2955639649500057 1.1225115404499775 L2.3151359049499973 1.121860498450019 L2.318146972950032 1.1319516444499982 L2.3075268559500017 1.1404151854500242 L2.2560538739499947 1.1599464354500242 L2.2687084959500083 1.1731300294500215 L2.291372883950018 1.1853370604500242 L2.305044758950018 1.1985206544500215 L2.290803222950032 1.2146339354500242 L2.269318847950032 1.217563623450019 L2.244497883950018 1.2110532064500035 L2.201447753950035 1.194126123450019 L2.175324706950036 1.192172998450019 L2.152741699949999 1.1946144044500215 L2.132355956950036 1.1932309414499969 L2.1127026369500044 1.1798032064500035 L2.107575683950003 1.1711769044500215 L2.1053377279500154 1.162876123450019 L2.1015128579499986 1.1545753424500163 L2.091584472950032 1.1456235194499982 L2.079987792950007 1.141391748450019 L2.067821451949996 1.1396013834499854 L2.0558585619500462 1.1356951334499854 L2.044465331950036 1.1251157064500035 L2.027131347950032 1.1299985194499982 L1.98717366595001 1.1011899254500008 L1.9680493169500295 1.0979347174500163 L1.9637768559500017 1.1041196134499955 L1.959341633950018 1.116001123450019 L1.9543774419500295 1.135532373450019 L1.9491691079499986 1.1419614094500048 L1.9376944989499947 1.1351254724499995 L1.920279133950018 1.1184425294500215 L1.897980956950036 1.1282081544500215 L1.907665201949996 1.1459490404499775 L1.9407869469500127 1.1729672694499982 L1.937043456950036 1.1728045084499854 L1.930085449949999 1.1789894044500215 L1.9232495119500044 1.1881039884499955 L1.920279133950018 1.1972185714499801 L1.9254467779500004 1.2039731284500022 L1.9375317389500282 1.2063331544500215 L1.9612133789500348 1.207797998450019 L1.9859529629500088 1.2167498214499801 L2.001862792950007 1.2281430504500008 L2.008088378950035 1.242954248450019 L2.003449706950036 1.2623227384499955 L1.9973461919500295 1.2659848474499995 L1.9856274419500295 1.2753435714499801 L1.9801342779500004 1.2851091964499801 L1.992585449949999 1.2896664884499955 L1.9947827149500057 1.2935727384499955 L2.0172436529500004 1.3089535974499995 L2.0226554369500462 1.3101743004500008 L2.015087076949996 1.3277524254500008 L1.9950675459499934 1.3217302904499775 L1.9612133789500348 1.2965024254500008 L1.9381827799499973 1.2880388834499854 L1.887320149950014 1.2816912274499828 L1.865632324949999 1.2698097174500163 L1.8695792649499907 1.2504412274499828 L1.8572094729500321 1.2380714354500242 L1.8371899419500295 1.2310727384499955 L1.7912101239499947 1.2239112794500215 L1.773835449949999 1.2156918784500022 L1.7733878579499986 1.2032407064500035 L1.7973950199500308 1.1866391444499982 L1.7804272459500083 1.1811052904499775 L1.746003417950007 1.188266748450019 L1.7318432619500044 1.1832211754500008 L1.7294018559500017 1.1776059414499969 L1.7300935879500088 1.1646664884499955 L1.7284659829499986 1.1599464354500242 L1.697175292950007 1.1379737794500215 L1.6601879889500282 1.1205584154499775 L1.6506665039500348 1.1143735194499982 L1.6395987959499934 1.1047706544500215 L1.6324780279500004 1.0936215664499969 L1.634675292950007 1.0828793784500022 L1.64147054095001 1.0794614094500048 L1.6501782229500321 1.0803565924500163 L1.65904866595001 1.0834490404499775 L1.6660473639500282 1.0870297694499982 L1.687043456950036 1.1019223474499995 L1.6943676759500335 1.1047706544500215 L1.712800292950007 1.1039568524499828 L1.7257397459500083 1.0966326334499854 L1.728059081950036 1.0849138834499854 L1.7147941079499986 1.0705909674500163 L1.756013183950003 1.065219873450019 L1.7743644209499934 1.057407373450019 L1.7837231449500308 1.0425961754500008 L1.765778808950003 1.0372250814500035 L1.745799967949992 1.0279477384499955 L1.7292797859500268 1.0159034674500163 L1.7216300459499934 1.0017433104500242 L1.7228507489499947 0.9927914884499955 L1.7278963219500127 0.9886410974499995 L1.735790201949996 0.9900245604500242 L1.7458813479500321 0.9983253424500163 L1.7555249029500004 1.0023943524499828 L1.7700512699500308 1.0032081544500215 L1.7973950199500308 1.0017433104500242 L1.7816886399499907 0.9822120604500242 L1.7735506189500114 0.9750506024499828 L1.7626049809500017 0.9681332844500048 L1.7792472329499986 0.9630063314500035 L1.814851074949999 0.9593442224499995 L1.831493326949996 0.9544614094500048 L1.831493326949996 0.9470558104500242 L1.7754223639500282 0.9372901854500242 L1.7492993169500295 0.9265479984500189 L1.7489331059500017 0.9066912274499828 L1.7727368169500295 0.8973325034500022 L1.8058178709500083 0.9049008634499955 L1.8397127279500154 0.9168637534500022 L1.865632324949999 0.9203631024499828 L1.886628417950007 0.9081560714499801 L1.8717765299499973 0.8957862794500215 L1.8453686529500004 0.8834164884499955 L1.831493326949996 0.8713722174500163 L1.837352701949996 0.8603045084499854 L1.8502514649500057 0.8596534674500163 L1.8656730149499907 0.8616065924500163 L1.879304199949999 0.8582700034500022 L1.8855297859500268 0.8500506024499828 L1.885122883950018 0.8412615404499775 L1.878368326949996 0.8343442224499995 L1.865632324949999 0.8309262534500022 L1.882966308950003 0.8240903164499969 L1.95787679095001 0.8067563314500035 L1.9779370119500044 0.8189633634499955 L1.9902661139500282 0.8083839354500242 L2.003449706950036 0.7626482584499854 L2.019156087950009 0.7725766444499982 L2.0352693689500114 0.7745297694499982 L2.07115804095001 0.7689145344500048 L2.054230956950036 0.7452328944499982 L2.0506502279500154 0.7347348474499995 L2.146841633950018 0.6932309414499969 L2.1634838869500044 0.7069028164499969 L2.176382649950014 0.7004737794500215 L2.188996581950036 0.6869646654499775 L2.204865722950032 0.6795590664499969 L2.2812003579499986 0.6706886234500189 L2.297639160950027 0.6727231284500022 L2.3033764649500057 0.6804542484500189 L2.30357991595001 0.6893246914499969 L2.302359212950009 0.6985206544500215 L2.3038647459500083 0.7074724774499828 L2.3092358399500057 0.7149594564500035 L2.3160717779500004 0.7216326334499854 L2.3219311529500004 0.7289568524499828 L2.324372558950003 0.7381528164499969 L2.3214428709500083 0.7475115404499775 L2.315949706950036 0.7564633634499955 L2.312124837950009 0.7647641444499982 L2.317902831950036 0.7794125814500035 L2.31725179095001 0.7878761234500189 L2.314484863950028 0.7962582844500048 L2.311311035950027 0.8030942224499995 L2.3280753579499986 0.7986996914499969 L2.347281087950009 0.7957700034500022 L2.3639233399500057 0.7896664884499955 L2.372753092949992 0.7757504724499995 L2.36803304095001 0.7613461754500008 L2.355988769950031 0.7440121914499969 L2.346467285950027 0.7260271654499775 L2.350129394950031 0.6996599774499828 L2.3370678709500083 0.6913591964499801 L2.325715331950036 0.6798032064500035 L2.331818847950032 0.6590512534500022 L2.34068929095001 0.6539243004500008 L2.352082519950031 0.6529477384499955 L2.3617667649499907 0.6506690924500163 L2.3659171549499973 0.6419614094500048 L2.362824706950036 0.6326026854500242 L2.3548901369500044 0.6316261234500189 L2.3448803709500083 0.6324399254500008 L2.323924967949992 0.6246274254500008 L2.2533276369500044 0.6077817224499995 L2.2082836919500295 0.5833676594500048 L2.1861889649500057 0.5596860194499982 L2.20397054095001 0.5428403164499969 L2.2323722329499986 0.5222511234500189 L2.2423819989499947 0.4877459154499775 L2.2930818689500114 0.5487810714499801 L2.3249015299499973 0.5699399254500008 L2.346060383950018 0.5429216964499801 L2.3194490559500167 0.5196469564500035 L2.312897949949999 0.4968604984500189 L2.327912597950032 0.48497898844999554 L2.3659171549499973 0.4945004724499995 L2.339753417950007 0.47781752945002154 L2.248648274950014 0.45177586344999554 L2.2287101239499947 0.44298680045000083 L2.232331542950007 0.42785008145000347 L2.2418530279500004 0.41173680045000083 L2.2549959309500167 0.39855320645000347 L2.2697257489499947 0.3920427904499775 L2.2758292649499907 0.39383315445002154 L2.295523274950014 0.4031104984500189 L2.3038647459500083 0.4057146654499775 L2.316315917950007 0.40587742545000083 L2.349152831950036 0.3995297694499982 L2.3578605149499907 0.3952979984500189 L2.3629467779500004 0.38561375345000215 L2.3662426759500335 0.3759295084499854 L2.3693351239499947 0.37169773844999554 L2.436962076949996 0.3704770344500048 L2.460562337950009 0.36608250345000215 L2.4804191079499986 0.3577817224499995 L2.4894116209500083 0.34435398844999554 L2.4835522459500083 0.33068211344999554 L2.454987792950007 0.3040707844500048 L2.4444490559500167 0.28673680045000083 L2.435090331950036 0.27892430045000083 L2.4245109049499973 0.27208836344999554 L2.4171459959500083 0.2693214354500242 L2.412263183950003 0.26492690445002154 L2.4000561529500004 0.23449070645000347 L2.4212556969500127 0.23986180045000083 L2.453156738950028 0.26378758145000347 L2.468374837950009 0.2693214354500242 L2.4903474939500114 0.2712745604500242 L2.5375480149499907 0.2826677904499775 L2.6205151369500044 0.31432469144999686 L2.643993326949996 0.31701023844999554 L2.694937337950009 0.31701023844999554 L2.7064119469500127 0.32018406644999686 L2.716421712950009 0.3253110194499982 L2.7275708009500335 0.3294614094500048 L2.7426261399499907 0.3300310714499801 L2.7426261399499907 0.32384617545000083 L2.738882649950014 0.3114763834499854 L2.7541007489499947 0.30065281644999686 L2.777497558950003 0.2927589354500242 L2.872590331950036 0.28698094144999686 L2.890087076949996 0.29284031644999686 L2.906647949949999 0.30122247744998276 L2.947419433950003 0.30984877945002154 L2.965201008950018 0.32042820645000347 L3.0104077149500057 0.3544451334499854 L3.0169995119500044 0.3682797694499982 L3.0206616209500083 0.38854344144999686 L3.024934081950036 0.4022966964499801 L3.0202140299499973 0.4135271654499775 L2.9965323899499907 0.42565281644999686 L2.9770011399499907 0.4311052904499775 L2.9511222329499986 0.43541844144999686 L2.925690917950007 0.4366391444499982 L2.9071362309500017 0.4330584154499775 L2.89732991595001 0.4216651854500242 L2.880565592949992 0.3876482584499854 L2.8661612959499934 0.37853367545000083 L2.8492749029500004 0.38130060244998276 L2.8332836919500295 0.39244969144999686 L2.8048006189500114 0.41881687845000215 L2.8385734049499973 0.4193865404499775 L2.8446769209499934 0.43289565445002154 L2.832062988950028 0.47716648844999554 L2.8451245119500044 0.48424656644999686 L2.908560383950018 0.4622739094500048 L2.931672363950028 0.4638201334499854 L2.936066894950031 0.47423680045000083 L2.934357910950027 0.48693211344999554 L2.930451660950027 0.5001157064500035 L2.928254394950031 0.5119972174500163 L2.9293530279500004 0.5292498214499801 L2.9328116869500462 0.5354347174500163 L2.94811116595001 0.5355160974499995 L2.95201741595001 0.5339698734500189 L2.959016113950028 0.5246925294500215 L2.965201008950018 0.5225766444499982 L2.969351399950014 0.5256690924500163 L2.9756176759500335 0.5404802904499775 L2.9791577149500057 0.5461769044500215 L2.992585449949999 0.5517107584499854 L3.008413899950014 0.5511410974499995 L3.0223706059500017 0.5453631024499828 L3.030061035950027 0.5355160974499995 L3.051057128950035 0.5433285974499995 L3.0636303709500083 0.5535825034500022 L3.0699780279500004 0.5676612794500215 L3.0716463219500127 0.5870297694499982 L3.0775463869500044 0.6005388834499854 L3.0916658529500154 0.6176287274499828 L3.1086743169500295 0.6324399254500008 L3.1231599939500114 0.6385434414499969 L3.140656738950028 0.6321144044500215 L3.132437337950009 0.6171404464499801 L3.1063956709499934 0.5907732584499854 L3.117097167950007 0.5785662274499828 L3.1386222329499986 0.5813331544500215 L3.1815096029500154 0.5976091964499801 L3.174104003950035 0.5740903164499969 L3.1500561529500004 0.5640805504500008 L3.124462076949996 0.5578956544500215 L3.1125805669500295 0.5461769044500215 L3.1193351239499947 0.5388526854500242 L3.132600097950032 0.5325864094500048 L3.1417960619500462 0.5245297694499982 L3.1368318689500114 0.5119972174500163 L3.1239737959499934 0.5076026854500242 L3.0934155279500004 0.5164731284500022 L3.078522949949999 0.5150082844500048 L3.0685538739499947 0.5071144044500215 L3.0676586919500295 0.4994646654499775 L3.068716633950018 0.4911638834499854 L3.064851074949999 0.48090997744998276 L3.060090331950036 0.4753761234500189 L3.053010253950035 0.4691098474499995 L3.0465405279500004 0.4678891444499982 L3.043732910950027 0.47716648844999554 L3.039663899950014 0.48676935244998276 L3.029816894950031 0.49205906644999686 L3.017487792950007 0.49425633145000347 L3.006216633950018 0.4945004724499995 L2.994660644950031 0.49067560244998276 L2.9993806969500127 0.4818051594500048 L3.0169995119500044 0.46723810244998276 L3.062775878950035 0.4085629724499995 L3.07506429095001 0.3995297694499982 L3.086335449949999 0.39635594144999686 L3.1131502279500154 0.38170750345000215 L3.126577962950009 0.37853367545000083 L3.3361319989499947 0.36876805045000083 L3.391145019950031 0.35786310244998276 L3.4210929369500462 0.35802586344999554 L3.447622883950018 0.3626645344500048 L3.458771972950032 0.3682797694499982 L3.469514160950027 0.37853367545000083 L3.4864412439500114 0.41954930045000083 L3.4930737309500017 0.42565281644999686 L3.503612467949992 0.43094252945002154 L3.5343741869500462 0.4638201334499854 L3.544953613950028 0.4706560714499801 L3.558869628950035 0.4757016444499982 L3.586213378950035 0.48090997744998276 L3.578034667950007 0.49083836344999554 L3.558869628950035 0.49832534245001625 L3.5514233399500057 0.5087420084499854 L3.576936035950027 0.5085792484500189 L3.5848706059500017 0.5176938314500035 L3.576081542950007 0.5290870604500242 L3.5514233399500057 0.5355160974499995 L3.4267895509500335 0.5248552904499775 L3.3426831059500017 0.4932797694499982 L3.3219311529500004 0.49035008145000347 L3.3131420899500057 0.49832534245001625 L3.3254711919500295 0.5225766444499982 L3.272085774950014 0.5084164884499955 L3.2088533529500154 0.5286801594500048 L3.2265128579499986 0.5471534674500163 L3.2602042649499907 0.5623715664499969 L3.2973136399499907 0.5728696134499955 L3.3254711919500295 0.5771013834499854 L3.382966308950003 0.5682309414499969 L3.410920410950027 0.5790545084499854 L3.5043448899499907 0.5850766444499982 L3.5416984049499973 0.5919125814500035 L3.573029785950027 0.6054216964499801 L3.586213378950035 0.6282895344500048 L3.567821451949996 0.6410662274499828 L3.5262768559500017 0.6506690924500163 L3.455231933950003 0.6590512534500022 L3.455231933950003 0.6664568524499828 L3.515331217949992 0.6801287274499828 L3.5377921549499973 0.6795590664499969 Z M1.605622558950003 0.2693214354500242 L1.5635083009500335 0.2626482584499854 L1.5540681969500127 0.25906752945002154 L1.5473950199500308 0.25060398844999554 L1.545279133950018 0.24197768545002418 L1.5501619469500127 0.2357114094500048 L1.564606933950003 0.23449070645000347 L1.5872713219500127 0.22716648844999554 L1.612824706950036 0.23286310244998276 L1.639029133950018 0.2429542484500189 L1.6632804369500462 0.24816258145000347 L1.766022949949999 0.24132664444999818 L1.774852701949996 0.24279148844999554 L1.775544433950003 0.2464535974499995 L1.7742016609500268 0.25125502945002154 L1.776887206950036 0.2562192224499995 L1.7834790039500348 0.2630551594500048 L1.7867749029500004 0.2693214354500242 L1.7928377279500154 0.2737973474499995 L1.8075675459499934 0.27550633145000347 L1.8144848639500282 0.2728207844500048 L1.8187980149499907 0.2665545084499854 L1.821727701949996 0.2601254724499995 L1.8246573899499907 0.2562192224499995 L1.8348706059500017 0.2510922694499982 L1.842154133950018 0.2489763834499854 L1.8520011399499907 0.24816258145000347 L1.874543456950036 0.25353367545000083 L1.8915112309500017 0.26769383145000347 L1.9023754889500282 0.28755060244998276 L1.906647949949999 0.31017430045000083 L1.882355956950036 0.3139177904499775 L1.8590405279500004 0.3220558104500242 L1.8008129889500282 0.32384617545000083 L1.777253417950007 0.31627781644999686 L1.7439282229500321 0.28307469144999686 L1.718212076949996 0.27550633145000347 L1.605622558950003 0.2693214354500242 Z M1.5855972649500103 1.312983800450013 L1.6023373639500136 1.2952511254500223 L1.627736359949992 1.2899253304499894 L1.6617041419500396 1.289735519450005 L1.6652804609500294 1.30113436245 L1.6415575519500152 1.305422132450019 L1.6417613789500223 1.3189175094499888 L1.6232348289500322 1.330437801449989 L1.6115301809499982 1.3439955804499846 L1.6337762779499911 1.353222660450001 L1.6728520269499967 1.3498926074499877 L1.6999325789500261 1.3414283994500238 L1.71203557394999 1.3538133004499855 L1.686716125950042 1.3653894094500174 L1.6665043699500046 1.3779637704499805 L1.658203148949994 1.3925457264500096 L1.630847946950027 1.384391278449982 L1.6085813459500145 1.3751590264499782 L1.5931170189499966 1.364852879449984 L1.567635135949999 1.3670569194500217 L1.5555660259500286 1.3546572754499948 L1.5333312359500013 1.3443795324499774 L1.5637203159500217 1.3286647094499813 L1.5891533669500149 1.324385642450011 L1.5855972649500103 1.312983800450013 Z M2.9384269209499934 0.9800961754500008 L2.9518139649500057 0.9881528164499969 L2.95201741595001 0.9895362794500215 L2.947541503950035 0.9910825034500022 L2.9461987309500017 0.9981625814500035 L2.9432283529500154 1.0062192224499995 L2.931550292950007 1.0064633634499955 L2.9127514649500057 1.0014177904499775 L2.903758951949996 1.0015805504500008 L2.903758951949996 1.0057309414499969 L2.9098217779500004 1.0155779464499801 L2.905061035950027 1.0198097174500163 L2.8939526369500044 1.0189145344500048 L2.8927726239499947 1.0216000814500035 L2.9032706709499934 1.0259946134499955 L2.9141756189500114 1.0229021654499775 L2.92272054095001 1.0168800294500215 L2.9245109049499973 1.0189959154499775 L2.919831542950007 1.028110498450019 L2.917593587950009 1.0377133634499955 L2.9193025719500127 1.0469907064500035 L2.9278474939500114 1.0585466964499801 L2.9269523119500462 1.0644060714499801 L2.923981933950003 1.0686378424500163 L2.92467366595001 1.0748227384499955 L2.931265462950009 1.0823910974499995 L2.9264233399500057 1.086704248450019 L2.905712076949996 1.0843442224499995 L2.8978588869500044 1.0790545084499854 L2.905061035950027 1.0736020344500048 L2.9056713869500044 1.0667660974499995 L2.900015462950009 1.0666847174500163 L2.889273274950014 1.0689633634499955 L2.873444824949999 1.0637550294500215 L2.8590405279500004 1.0570004724499995 L2.8360506189500114 1.0496762534500022 L2.833609212950009 1.0445493004500008 L2.8332836919500295 1.0357602384499955 L2.828400878950035 1.0277035974499995 L2.8156241869500462 1.020297998450019 L2.8072827149500057 1.0115903164499969 L2.8144034829499986 1.0049985194499982 L2.826691894950031 0.9994646654499775 L2.84068929095001 0.9947446134499955 L2.855174967949992 0.9923032064500035 L2.8651033529500154 0.9881528164499969 L2.8743806969500127 0.9869321134499955 L2.8770662439500114 0.9856300294500215 L2.869904785950027 0.9810727384499955 L2.873444824949999 0.9783058104500242 L2.888378092949992 0.9787940924500163 L2.9000561529500004 0.9818051594500048 L2.905793456950036 0.9866065924500163 L2.9100252279500154 0.9910011234500189 L2.915477701949996 0.9915707844500048 L2.9245109049499973 0.9906756024499828 L2.930207519950031 0.9861183104500242 L2.9289054369500462 0.9793637534500022 L2.933218587950009 0.9783871914499969 L2.9384269209499934 0.9800961754500008 Z M1.6741040039500348 0.9516131024499828 L1.680044758950018 0.9564145344500048 L1.6823234049499973 0.9665870604500242 L1.673737792950007 0.9737485194499982 L1.6638500979500321 0.9759457844500048 L1.6581534829499986 0.9747250814500035 L1.656403808950003 0.9717953944499982 L1.6539624029500004 0.9685401854500242 L1.6502596029500154 0.9656918784500022 L1.6451733399500057 0.9654477384499955 L1.6391918949500308 0.9661801594500048 L1.635122883950018 0.9621925294500215 L1.641022949949999 0.9499854984500189 L1.6391105149499907 0.9423357584499854 L1.642731933950003 0.9319190924500163 L1.65514241595001 0.9244321134499955 L1.6653149419500295 0.9266293784500022 L1.665721842949992 0.9332211754500008 L1.6623852539500348 0.9413591964499801 L1.667674967949992 0.9488461754500008 L1.6741040039500348 0.9516131024499828 Z M1.609785941949994 0.3150005834500007 L1.623502482950002 0.3245543634499768 L1.6372166309500216 0.3330401984500213 L1.6646267319500083 0.345742720450005 L1.6661769549500463 0.32548105444999464 L1.6883841349499988 0.32753492544998153 L1.6936412449500011 0.34350747144998195 L1.7159232149499957 0.3519519124499766 L1.753544421950025 0.35500028945000395 L1.7570788169499991 0.3667127034499913 L1.728057743950032 0.37109409645000824 L1.6905548719500274 0.3829586024500031 L1.6598742959500186 0.3937194894500067 L1.630838393950043 0.3959410924500162 L1.6017146119500438 0.3843044304500154 L1.6050310479500212 0.3693767164500059 L1.625449250950041 0.358659518449997 L1.6015167569500335 0.35446636345000115 L1.5622847309499974 0.35883060545000944 L1.5314965589500247 0.3471751154499998 L1.5246136169500204 0.33652959645002056 L1.5519023039500297 0.3343392494500108 L1.580892762950029 0.33213847044999056 L1.5893068269499935 0.31399403145002225 L1.609785941949994 0.3150005834500007 Z M0.8205883789500348 0.26940281644999686 L0.8338533529500154 0.2787615404499775 L0.8374340819500361 0.2908058104500242 L0.8329174809500017 0.30105971745001625 L0.8270174159500101 0.30260594144999686 L0.8238435879500088 0.29699070645000347 L0.8228670249500141 0.2913754724499995 L0.8196118169500295 0.28698094144999686 L0.8075268559500017 0.28405125345000215 L0.7879549159500101 0.2810401854500242 L0.767731933950003 0.2706235194499982 L0.7573559569500361 0.2493832844500048 L0.7711499029500004 0.2410011234500189 L0.7987784829499986 0.2553240404499775 L0.8127758789500348 0.26590346745001625 L0.8205883789500348 0.26940281644999686 Z M0.2984529629500088 0.057000472449999506 L0.30439371794999204 0.06139500345000215 L0.3053295899500057 0.06635919644998012 L0.29747639995001407 0.0677426594500048 L0.28380452495001407 0.0652198734500189 L0.25092692094999336 0.055617008449985406 L0.23721435595000173 0.053663883449985406 L0.22822184294999204 0.05122247744998276 L0.22769287095000834 0.046014144449998184 L0.2359936529500004 0.04129409245001625 L0.24181233795000878 0.03689956045002418 L0.2410799159500101 0.03209812845000215 L0.2342439779500154 0.022413883449985406 L0.23481363994999072 0.013787581450003472 L0.24840413395001804 0.015984847449999506 L0.261628417950007 0.024367008449985406 L0.2755037439500114 0.03698094144999686 L0.2801424159500101 0.04275893545002418 L0.28413004594999336 0.04943211344999554 L0.2864086919500295 0.05252456045002418 L0.2984529629500088 0.057000472449999506 Z" fill="black" stroke="black" stroke-width="0.5" vector-effect="non-scaling-stroke"/></svg>