<svg xmlns="http://www.w3.org/2000/svg" viewBox="0 0 367.19999999999993 9.420556640879996"><path d="M3.5999999999999943 3.786697791440007 L3.5999999999999943 3.766195093440034 L3.6124617849999936 3.7552001954399987 L3.6269881519999956 3.7481201174399974 L3.661411979999997 3.7383544924399974 L3.6515242849999936 3.759269205440022 L3.638218620999993 3.771801757440004 L3.6211287769999956 3.77985839844 L3.5999999999999943 3.786697791440007 Z M3.5999999999999943 4.158198879440009 L3.5999999999999943 4.107022901440006 L3.6085962249999852 4.092846679440003 L3.6352889329999982 4.074536132440004 L3.6409448579999832 4.063956705440022 L3.64900149799999 4.060131835440005 L3.6881860689999826 4.048657226440001 L3.7023462249999852 4.046866861440025 L3.7023462249999852 4.053540039439996 L3.6929468109999846 4.055330403439983 L3.6887964199999885 4.058260091440035 L3.6899764329999982 4.062166341440035 L3.6962020189999976 4.067374674440019 L3.6962020189999976 4.07478027344 L3.690098503999991 4.076652018440017 L3.685703971999999 4.07868652344 L3.6803735689999826 4.080232747439981 L3.6716658859999995 4.080883789439996 L3.6667016939999826 4.085115559439986 L3.6625513029999865 4.094555664439996 L3.6629988939999976 4.103995768440017 L3.6716658859999995 4.108227539439996 L3.6780135429999916 4.114575195439999 L3.6651961599999936 4.127921549440019 L3.647984245999993 4.140128580440022 L3.5999999999999943 4.158198879440009 Z M3.5999999999999943 4.5812279574400225 L3.5999999999999943 4.403816997439991 L3.6101424489999943 4.388256835440005 L3.6841170579999982 4.311596679440003 L3.7023462249999852 4.300610351440001 L3.7228540369999905 4.294913736440025 L3.7359155609999846 4.298413085440005 L3.744297721999999 4.310131835440005 L3.7534936859999846 4.338370768440017 L3.757115104999997 4.355297851440001 L3.7576033859999995 4.36579589844 L3.7699731779999865 4.373201497439981 L3.7790877609999995 4.380525716440035 L3.7843367849999936 4.389314778439983 L3.779006380999988 4.39704589844 L3.7433618499999852 4.430981445439999 L3.7334741550000103 4.448722330440022 L3.7306665369999905 4.457674153439983 L3.7284285819999923 4.480948893440017 L3.724685091999987 4.482576497439981 L3.7185408859999995 4.481599934439986 L3.7098738939999976 4.48493652344 L3.648838737999995 4.523022460440005 L3.6171004569999923 4.549471028439983 L3.5999999999999943 4.5812279574400225 Z M363.5999999999999 4.106602973440021 L363.5999999999999 4.133645479440007 L363.5999999999999 4.158358918439989 L363.599215514 4.158536365439987 L363.5925236339999 4.160229492439997 L363.58747806099996 4.159497070439999 L363.58454837299996 4.155346679440003 L363.584385613 4.147290039439996 L363.5871525399999 4.135408528439983 L363.599150238 4.108413709440002 L363.5999999999999 4.106602973440021 Z M363.5999999999999 4.402432898439985 L363.5999999999999 4.579866444440016 L363.5989819079999 4.581696285440033 L363.592198113 4.592114257440004 L363.58121178499994 4.601391601440001 L363.566807488 4.610424804440003 L363.5539494149999 4.615877278439983 L363.54109134199996 4.618969726440001 L363.52872155 4.619213867439997 L363.517491082 4.615877278439983 L363.5124455089999 4.600089518440017 L363.49421634199996 4.58454589844 L363.490147332 4.570955403439983 L363.49527428499994 4.556225585440005 L363.507237175 4.544099934439986 L363.531162957 4.526521809439986 L363.567295769 4.475415039439996 L363.5729923839999 4.461905924440019 L363.577549675 4.445304361440025 L363.59920928099996 4.403932081440006 L363.5999999999999 4.402432898439985 Z M363.5999999999999 3.7661957764400302 L363.5999999999999 3.78603512144001 L363.598978496 3.786961792440012 L363.537998894 3.8413818354400053 L363.52994225399993 3.844230143440017 L363.512119988 3.8450439454399987 L363.503819207 3.84821777344 L363.49568118599996 3.855786132440004 L363.48648522199994 3.871573893440017 L363.47964928499994 3.879223632440004 L363.46540774799996 3.8915934244400194 L363.4582462899999 3.8997314454399987 L363.45914147199994 3.9033935544400027 L363.45124759199996 3.9080322264400014 L363.43814537899993 3.931144205440022 L363.39810631599994 3.986645507440004 L363.38093509199996 3.998364257440004 L363.38101647199994 4.02009277344 L363.36343834699994 4.049877929440003 L363.33845462299996 4.076326497439981 L363.315830925 4.087719726440001 L363.293858269 4.094392903439983 L363.19791100399993 4.156892903439983 L363.191807488 4.162426757440004 L363.18765709699994 4.169995117439997 L363.18228600399993 4.184073893440017 L363.18073977999995 4.196362304440003 L363.1810653 4.212068684439986 L363.179112175 4.228507486440025 L363.17146243599996 4.242667643440017 L363.160069207 4.251619466440035 L363.13443444099994 4.267569986440025 L363.12361087299996 4.276033528439983 L363.11872806099996 4.282218424440019 L363.10660240999994 4.300610351440001 L363.10066165499995 4.304272460440005 L363.0842228519999 4.310213216440035 L363.07868899799996 4.314282226440001 L363.088780144 4.324698893440017 L363.092198113 4.342114257440004 L363.088780144 4.360913085440005 L363.07868899799996 4.375805664439996 L363.08609459699994 4.383129882440004 L363.101963738 4.371736653439983 L363.12027428499994 4.366691080440022 L363.137119988 4.36970214844 L363.14810631599994 4.383129882440004 L363.162510613 4.371899414439996 L363.18521569099994 4.346508789439996 L363.19937584699994 4.341625976440001 L363.20954837299996 4.339835611440025 L363.222080925 4.334952799440019 L363.23257897199994 4.327303059439986 L363.23697350399993 4.317700195439999 L363.24087975399993 4.304353841440035 L363.25056399799996 4.299308268440017 L363.26187584699994 4.297355143440017 L363.27107181099996 4.293937174440019 L363.2726994149999 4.290030924440019 L363.2761173839999 4.276440429440003 L363.27790774799996 4.272615559439986 L363.282139519 4.271150716440035 L363.29450931099996 4.268546549440019 L363.29841556099996 4.266593424440019 L363.30582115999994 4.255200195439999 L363.3161564459999 4.230541992439997 L363.322666863 4.221508789439996 L363.33210696699996 4.216300455440022 L363.3420353519999 4.21345214844 L363.34976647199994 4.20954589844 L363.3529403 4.201000976440001 L363.3566837899999 4.193839518440017 L363.36539147199994 4.189038085440005 L363.38093509199996 4.184073893440017 L363.41413821699996 4.163403320439999 L363.43326256599994 4.147452799440019 L363.441807488 4.132153320439999 L363.451084832 4.125642903439983 L363.503819207 4.101391601440001 L363.50894615999994 4.095857747439981 L363.512608269 4.089428710440005 L363.51716556099996 4.083976236440025 L363.524327019 4.080883789439996 L363.539463738 4.080395507440004 L363.542393425 4.08454589844 L363.542393425 4.092928059439986 L363.5534611339999 4.116691080440022 L363.5490666019999 4.126131184439986 L363.5417423839999 4.133618164439996 L363.53620852999995 4.141756184439986 L363.524327019 4.170239257440004 L363.490147332 4.231762695439999 L363.48941490999994 4.236482747439981 L363.491123894 4.248364257440004 L363.490147332 4.252921549440019 L363.486241082 4.253898111440025 L363.47370852999995 4.251944986440025 L363.469639519 4.252921549440019 L363.448643425 4.279451497439981 L363.475010613 4.281404622439981 L363.4919376959999 4.293041992439997 L363.50113365999994 4.311840820439999 L363.503819207 4.334790039439996 L363.517491082 4.333650716440035 L363.535557488 4.337475585440005 L363.549717644 4.347159830440022 L363.551670769 4.362784830440022 L363.541905144 4.36970214844 L363.52652428499994 4.366691080440022 L363.4963322269999 4.355297851440001 L363.499912957 4.361319986440025 L363.5070744149999 4.377107747439981 L363.510655144 4.383129882440004 L363.49576256599994 4.378898111440025 L363.490147332 4.375805664439996 L363.47574303499994 4.386547851440001 L363.4636173839999 4.381909179440003 L363.457920769 4.368969726440001 L363.4621525399999 4.355297851440001 L363.42634524799996 4.354158528439983 L363.412022332 4.348299153439983 L363.40201256599994 4.334790039439996 L363.380772332 4.342114257440004 L363.359287957 4.340812174440019 L363.340244988 4.336417643440017 L363.32632897199994 4.334790039439996 L363.31648196699996 4.339021809439986 L363.29988040499995 4.352368164439996 L363.2883244149999 4.355297851440001 L363.27603600399993 4.355541992439997 L363.26627037899993 4.357739257440004 L363.25984134199996 4.36384277344 L363.256748894 4.375805664439996 L363.251866082 4.366365559439986 L363.25056399799996 4.362784830440022 L363.24380944099994 4.362784830440022 L363.233311394 4.382967122439981 L363.19685306099996 4.405834960440005 L363.18228600399993 4.424145507440004 L363.16511477999995 4.40876464844 L363.144932488 4.407869466440035 L363.10318444099994 4.417309570439999 L363.07144615999994 4.418286132440004 L363.0539494149999 4.422192382440004 L363.03824303499994 4.430981445439999 L363.003819207 4.419425455440022 L362.97574303499994 4.418123372439981 L362.896885613 4.423901367439997 L362.897862175 4.421541341440035 L362.9079533209999 4.414542643440017 L362.91421959699994 4.400382486440025 L362.92341556099996 4.388256835440005 L362.94148196699996 4.382153320439999 L362.95474694099994 4.37556152344 L362.94888756599994 4.362784830440022 L362.9514103519999 4.348461914439996 L362.93961022199994 4.341463216440035 L362.9079533209999 4.334790039439996 L362.88296959699994 4.315991210440005 L362.86636803499994 4.306958007440004 L362.85896243599996 4.310864257440004 L362.84822024799996 4.311189778439983 L362.77204837299996 4.339672851440001 L362.752842644 4.351554361440025 L362.7228947269999 4.375805664439996 L362.729405144 4.392895507440004 L362.7233830089999 4.406730143440017 L362.7101994149999 4.417065429440003 L362.695713738 4.424145507440004 L362.6654403 4.416007486440025 L362.644444207 4.440909830440022 L362.6198673839999 4.51228027344 L362.645420769 4.497224934439986 L362.656651238 4.495109049440019 L362.675205925 4.49860839844 L362.66560306099996 4.510571289439996 L362.63728274799996 4.529777018440017 L362.626866082 4.540193684439986 L362.6198673839999 4.540193684439986 L362.60684655 4.534822591440035 L362.56745852999995 4.523429361440025 L362.5544376959999 4.516105143440017 L362.550205925 4.507804361440025 L362.54890384199996 4.500073242439997 L362.545323113 4.494620768440017 L362.52595462299996 4.490226236440025 L362.5202580089999 4.484041341440035 L362.51724694099994 4.475415039439996 L362.5170028 4.465161132440004 L362.5100041019999 4.465161132440004 L362.5100041019999 4.48493652344 L362.494541863 4.476391601440001 L362.483799675 4.474763997439981 L362.47403405 4.478181966440035 L362.4616642589999 4.48493652344 L362.421299675 4.519685872439981 L362.41706790499995 4.529125976440001 L362.407139519 4.567537434439986 L362.39948977999995 4.574291992439997 L362.39021243599996 4.579093424440019 L362.38777102999995 4.584952799440019 L362.40095462299996 4.594799804440003 L362.3654728519999 4.618237304440003 L362.362705925 4.622143554440003 L362.333897332 4.624096679440003 L362.32087649799996 4.622631835440005 L362.30533287899993 4.615877278439983 L362.291905144 4.602856445439999 L362.280674675 4.575349934439986 L362.2731876959999 4.543123372439981 L362.270420769 4.516105143440017 L362.26041100399993 4.496573893440017 L362.240635613 4.477612304440003 L362.227452019 4.454744466440035 L362.23640384199996 4.424145507440004 L362.21500084699994 4.416821289439996 L362.20621178499994 4.409985351440001 L362.20230553499994 4.396801757440004 L362.14070071699996 4.426261393440017 L362.1115666019999 4.431306966440035 L362.08560631599994 4.410473632440004 L362.090244988 4.408276367439997 L362.09040774799996 4.407299804440003 L362.09244225399993 4.403800455440022 L362.08121178499994 4.394360351440001 L362.079014519 4.382967122439981 L362.08357181099996 4.377026367439997 L362.09244225399993 4.383129882440004 L362.09927819099994 4.383129882440004 L362.096592644 4.364249674440019 L362.10652102999995 4.347485351440001 L362.14021243599996 4.321118164439996 L362.14021243599996 4.341625976440001 L362.14851321699996 4.333325195439999 L362.15250084699994 4.321931966440035 L362.157139519 4.315421549440019 L362.16804446699996 4.321118164439996 L362.17292727999995 4.305981445439999 L362.18562259199996 4.282218424440019 L362.18863365999994 4.266593424440019 L362.16706790499995 4.277172851440001 L362.152744988 4.276033528439983 L362.1428166019999 4.264965820439999 L362.13394615999994 4.246085611440025 L362.171787957 4.232576497439981 L362.18179772199994 4.231762695439999 L362.1892033209999 4.236482747439981 L362.20075931099996 4.252596028439983 L362.20840905 4.259106445439999 L362.21882571699996 4.26228027344 L362.25007571699996 4.266593424440019 L362.28091881599994 4.285148111440025 L362.29109134199996 4.286938476440001 L362.30427493599996 4.284171549440019 L362.308994988 4.280102539439996 L362.311436394 4.274405924440019 L362.3176212899999 4.266593424440019 L362.3732853519999 4.220369466440035 L362.38834069099994 4.214021809439986 L362.3976994149999 4.223706054440003 L362.40095462299996 4.252921549440019 L362.413975457 4.247062174440019 L362.417393425 4.239819335440005 L362.413975457 4.214672851440001 L362.418369988 4.203930664439996 L362.448643425 4.163403320439999 L362.45035240999994 4.16853027344 L362.45466556099996 4.177400716440035 L362.455479363 4.184073893440017 L362.46345462299996 4.179272460440005 L362.46793053499994 4.174145507440004 L362.469639519 4.167146809439986 L362.469151238 4.156730143440017 L362.475987175 4.156730143440017 L362.486241082 4.169425455440022 L362.49763431099996 4.160148111440025 L362.50943444099994 4.143627929440003 L362.520420769 4.134920247439981 L362.53091881599994 4.129711914439996 L362.52790774799996 4.117016601440001 L362.520420769 4.101554361440025 L362.5170028 4.087719726440001 L362.5212345709999 4.089835611440025 L362.53287194099994 4.093253580440022 L362.5373478519999 4.095206705440022 L362.5427189459999 4.077465820439999 L362.55215905 4.07673339844 L362.56111087299996 4.083487955440022 L362.56509850399993 4.087719726440001 L362.58015384199996 4.085278320439999 L362.607823113 4.076652018440017 L362.654209832 4.071118164439996 L362.70661868599996 4.053214518440017 L362.736729363 4.046866861440025 L362.767491082 4.048413085440005 L362.7775822269999 4.046866861440025 L362.780186394 4.043448893440017 L362.7878361339999 4.029288736440025 L362.7912541019999 4.025056966440035 L362.79898522199994 4.022452799440019 L362.816319207 4.019523111440025 L362.82234134199996 4.016105143440017 L362.84040774799996 4.015209960440005 L362.86978600399993 4.022778320439999 L362.898350457 4.026196289439996 L362.91421959699994 4.012687174440019 L362.92927493599996 4.025056966440035 L362.9382267589999 4.021069335440005 L362.946202019 4.010896809439986 L362.9587345709999 4.005200195439999 L362.965733269 4.00837402344 L362.972080925 4.021964518440017 L362.97964928499994 4.025056966440035 L362.9880314459999 4.024243164439996 L362.9924259769999 4.023103841440035 L362.996494988 4.022778320439999 L363.00357506599994 4.025056966440035 L363.00202884199996 4.010083007440004 L362.99576256599994 3.9959228514400014 L362.98648522199994 3.9845296224399807 L362.97614993599996 3.9778564454399987 L362.98648522199994 3.968416341440035 L362.99771569099994 3.9649169924399974 L363.0085392589999 3.9661376954399987 L363.0178166019999 3.971020507440004 L363.02261803499994 3.953930664439996 L363.03140709699994 3.93610839844 L363.0432072269999 3.9273193354400053 L363.05818118599996 3.937003580440022 L363.06509850399993 3.9197509764400014 L363.066807488 3.903963216440035 L363.071202019 3.891105143440017 L363.08609459699994 3.882316080440022 L363.12165774799996 3.885083007440004 L363.135655144 3.8795491534399833 L363.12027428499994 3.86188964844 L363.13345787899993 3.8619710284399833 L363.142491082 3.8678304034399833 L363.14900149799996 3.8775960284399833 L363.15437259199996 3.8897216794400027 L363.16316165499995 3.8544840494400194 L363.16804446699996 3.8413818354400053 L363.17292727999995 3.8535074864400247 L363.1818791019999 3.859041341440035 L363.19294681099996 3.862784830440022 L363.20279381599994 3.8692138674399974 L363.21150149799996 3.8604248044400027 L363.21890709699994 3.859692382440004 L363.2248478519999 3.8653889974399807 L363.23013756599994 3.8760498044400027 L363.23013756599994 3.860506184439986 L363.23404381599994 3.854972330440022 L363.240147332 3.854646809439986 L363.24714602999995 3.8556233724399807 L363.253330925 3.852368164439996 L363.25601647199994 3.8450439454399987 L363.25650475399993 3.8377197264400014 L363.25642337299996 3.83454589844 L363.26334069099994 3.8352783204399987 L363.267491082 3.8377197264400014 L363.27066490999994 3.840161132440004 L363.27448977999995 3.8413818354400053 L363.29353274799996 3.8428466794400027 L363.30183352999995 3.840161132440004 L363.30525149799996 3.8311279294400027 L363.3102970709999 3.8248616534399833 L363.3347111339999 3.81501464844 L363.36441490999994 3.798494466440035 L363.37068118599996 3.813631184439986 L363.37271569099994 3.83649902344 L363.38093509199996 3.84821777344 L363.392979363 3.8435791014400014 L363.414463738 3.82478027344 L363.42878665499995 3.821443684439986 L363.43961022199994 3.82478027344 L363.441319207 3.830558268440017 L363.43659915499995 3.8365804034399833 L363.42878665499995 3.8413818354400053 L363.43961022199994 3.845206705440022 L363.45084069099994 3.8450439454399987 L363.455967644 3.84821777344 L363.468174675 3.8330810544400027 L363.503330925 3.8057373044400027 L363.510655144 3.7969482424399974 L363.58316490999994 3.76618652344 L363.5988173139999 3.76618652344 L363.5999999999999 3.7661957764400302 Z M5.011428255999988 6.739900716440035 L5.0180200529999865 6.754386393440017 L5.0336450529999865 6.76813964844 L5.051955599999985 6.776359049440019 L5.066685417999992 6.774080403439983 L5.063023307999998 6.794262695439999 L5.044143099999985 6.792065429440003 L5.008335807999998 6.774080403439983 L4.999668815999996 6.764803059439986 L5.002883333999989 6.745597330440022 L5.018345573999994 6.728588867439997 L5.046177604999997 6.726228841440035 L5.040318229999997 6.735913085440005 L5.0336450529999865 6.737947591440035 L5.024571159999994 6.737622070439999 L5.011428255999988 6.739900716440035 Z M4.627842643999998 6.582185872439981 L4.630935091999987 6.559724934439986 L4.642124870999993 6.544995117439997 L4.656407096999999 6.543448893440017 L4.668776888999986 6.561189778439983 L4.66902103000001 6.58845214844 L4.655552604999997 6.604321289439996 L4.6384627609999995 6.603833007440004 L4.627842643999998 6.582185872439981 Z M3.73693281300001 6.582918294439979 L3.737136263999986 6.582185872439981 L3.7503198579999832 6.540519205440022 L3.7873071619999905 6.544425455440022 L3.8128198579999832 6.572420247439981 L3.7917830739999943 6.603507486440025 L3.7832381519999956 6.569327799440019 L3.7622420579999982 6.565909830440022 L3.744786003999991 6.580232747439981 L3.747105339000001 6.599682617439997 L3.7556502609999995 6.619213867439997 L3.741734245999993 6.623038736440025 L3.728062370999993 6.610831705440022 L3.73693281300001 6.582918294439979 Z M4.833286979999997 5.808341471440018 L4.850865104999997 5.820304361440025 L4.854323763999986 5.838696289439996 L4.848179557999998 5.855541992439997 L4.836704948999994 5.862947591440035 L4.802565950999991 5.862947591440035 L4.7934106779999865 5.860831705440022 L4.785801628999991 5.85603027344 L4.7797388029999865 5.851391601440001 L4.775222200999991 5.849194335440005 L4.754592318999983 5.834464518440017 L4.775100130999988 5.806225585440005 L4.810215690999996 5.789217122439981 L4.833286979999997 5.808260091440035 L4.833286979999997 5.808341471440018 Z M4.549706060999995 5.573036416439992 L4.568169476999998 5.583412557439987 L4.572031027000008 5.606983659439992 L4.572134505999998 5.620098120440035 L4.5537845970000035 5.624599412440022 L4.540877862000002 5.61774072244002 L4.53066423300001 5.606402862439994 L4.521295969999983 5.583726264440019 L4.540488629000009 5.5696022994400085 L4.549706060999995 5.573036416439992 Z M5.3068384119999905 5.499829101440001 L5.31892337299999 5.505851236440025 L5.337071159999994 5.518383789439996 L5.353591341999987 5.534659830440022 L5.360874870999993 5.55134277344 L5.3513533859999995 5.569653320439999 L5.328770378999991 5.578767903439983 L5.301711458999989 5.580395507440004 L5.278965690999996 5.575512695439999 L5.247715690999996 5.562817382440004 L5.242222526999996 5.531404622439981 L5.262119987999995 5.503084309439986 L5.3068384119999905 5.499829101440001 Z M4.635288932999998 4.794018554440003 L4.66706790500001 4.808585611440025 L4.682652214000001 4.818351236440025 L4.689284700999991 4.831616210440005 L4.6740259119999905 4.864331054440003 L4.672520378999991 4.869783528439983 L4.65372155 4.876293945439999 L4.634068229999997 4.892163085440005 L4.619053581999992 4.912101236440025 L4.614170768999998 4.930655924440019 L4.599318880999988 4.919588216440035 L4.602329948999994 4.900219726440001 L4.61465905 4.880851236440025 L4.627842643999998 4.869783528439983 L4.624221224999985 4.856925455440022 L4.6293481779999865 4.850903320439999 L4.6371606779999865 4.847322591440035 L4.641514518999998 4.841870117439997 L4.64167728000001 4.828442382440004 L4.63972415500001 4.822583007440004 L4.627842643999998 4.814526367439997 L4.617954948999994 4.809643554440003 L4.596226432999998 4.805737304440003 L4.586867708999989 4.800935872439981 L4.582920768999998 4.793611653439983 L4.581455925 4.77399902344 L4.580031771999984 4.76618652344 L4.5939477869999905 4.771801757440004 L4.603103060999985 4.783194986440025 L4.6145776699999885 4.792960611440025 L4.635288932999998 4.794018554440003 Z M363.37751712299996 6.739900716440035 L363.388584832 6.747550455440022 L363.39411868599996 6.765128580440022 L363.39753665499995 6.785473632440004 L363.40201256599994 6.80134277344 L363.37214602999995 6.808422851440001 L363.36042727999995 6.809399414439996 L363.3459416019999 6.80720214844 L363.34187259199996 6.80329589844 L363.34000084699994 6.794506835440005 L363.34724368599996 6.791007486440025 L363.34903405 6.790356445439999 L363.349522332 6.788566080440022 L363.3529403 6.780916341440035 L363.35798587299996 6.782788085440005 L363.36921634199996 6.785636393440017 L363.37409915499995 6.787752278439983 L363.36783287899993 6.772534179440003 L363.357823113 6.756990559439986 L363.35660240999994 6.744783528439983 L363.37751712299996 6.739900716440035 Z M362.03034915499995 6.572338867439997 L362.03816165499995 6.571769205440022 L362.074619988 6.577709960440005 L362.08560631599994 6.582185872439981 L362.093174675 6.595288085440005 L362.0983830089999 6.61384277344 L362.096592644 6.630362955440022 L362.07559655 6.640291341440035 L362.060948113 6.649731445439999 L362.05386803499994 6.643872070439999 L362.043858269 6.640942382440004 L362.02408287899993 6.637524414439996 L362.0285587899999 6.646476236440025 L362.02896569099994 6.653881835440005 L362.0251408209999 6.660148111440025 L362.01667727999995 6.664868164439996 L362.00503990999994 6.661612955440022 L361.98257897199994 6.659985351440001 L361.95840905 6.660799153439983 L361.94148196699996 6.664868164439996 L361.94392337299996 6.658194986440025 L361.94636477999995 6.644360351440001 L361.94831790499995 6.637524414439996 L361.939366082 6.641674804440003 L361.9328556649999 6.642732747439981 L361.92715905 6.641267903439983 L361.92048587299996 6.637524414439996 L361.925205925 6.632967122439981 L361.930088738 6.626619466440035 L361.933994988 6.623852539439996 L361.90730227999995 6.614249674440019 L361.88150475399993 6.624503580440022 L361.83853600399993 6.658032226440001 L361.8229923839999 6.661938476440001 L361.80728600399993 6.662182617439997 L361.79507897199994 6.664542643440017 L361.79011477999995 6.674796549440019 L361.7904403 6.695792643440017 L361.78873131599994 6.700675455440022 L361.78384850399993 6.686027018440017 L361.774327019 6.692944335440005 L361.77090905 6.704256184439986 L361.77310631599994 6.714835611440025 L361.780186394 6.719392903439983 L361.79499759199996 6.722648111440025 L361.79947350399993 6.731111653439983 L361.79752037899993 6.75642089844 L361.7946720709999 6.763663736440025 L361.7878361339999 6.770336914439996 L361.77896569099994 6.774568684439986 L361.77017662899993 6.774080403439983 L361.761631707 6.767651367439997 L361.760166863 6.758943684439986 L361.76285240999994 6.733064778439983 L361.74820397199994 6.744620768440017 L361.7429142589999 6.746736653439983 L361.72867272199994 6.746736653439983 L361.719151238 6.756665039439996 L361.713780144 6.765454101440001 L361.70661868599996 6.771638997439981 L361.6916447269999 6.774080403439983 L361.6760197269999 6.771801757440004 L361.6501408209999 6.762036132440004 L361.637119988 6.759838867439997 L361.61539147199994 6.773022460440005 L361.60367272199994 6.774568684439986 L361.5988712899999 6.759838867439997 L361.5920353519999 6.759838867439997 L361.58414147199994 6.764152018440017 L361.5739689459999 6.761873372439981 L361.56265709699994 6.755200195439999 L361.551182488 6.746736653439983 L361.581455925 6.718334960440005 L361.599522332 6.711905924440019 L361.6193791019999 6.719392903439983 L361.629795769 6.710929361440025 L361.63345787899993 6.689119466440035 L361.64118899799996 6.678540039439996 L361.651768425 6.673819986440025 L361.66324303499994 6.673494466440035 L361.7194767589999 6.687491861440025 L361.72867272199994 6.686027018440017 L361.73493899799996 6.678540039439996 L361.73648522199994 6.668774414439996 L361.73941490999994 6.659008789439996 L361.7497501959999 6.651196289439996 L361.76325931099996 6.661124674440019 L361.77212975399993 6.652416992439997 L361.77644290499995 6.634431966440035 L361.77644290499995 6.616365559439986 L361.79068444099994 6.59431152344 L361.826084832 6.581209309439986 L361.86587975399993 6.579174804440003 L361.89371178499994 6.589672851440001 L361.90193118599996 6.56110839844 L361.90884850399993 6.556632486440025 L361.9240666019999 6.555655924440019 L361.928623894 6.553377278439983 L361.93220462299996 6.548819986440025 L361.9367619149999 6.544099934439986 L361.94498131599994 6.541984049440019 L361.954991082 6.543774414439996 L361.96345462299996 6.546866861440025 L361.9719181649999 6.54743652344 L361.98257897199994 6.541984049440019 L361.98982181099996 6.55524902344 L362.0226994149999 6.556795247439981 L362.03034915499995 6.572338867439997 Z M362.12654056099996 6.493644205440022 L362.13484134199996 6.501619466440035 L362.13825931099996 6.509350585440005 L362.137608269 6.517569986440025 L362.13394615999994 6.527661132440004 L362.120518425 6.523266601440001 L362.113682488 6.533032226440001 L362.108311394 6.54353027344 L362.09927819099994 6.541984049440019 L362.07193444099994 6.524243164439996 L362.074131707 6.512361653439983 L362.08340905 6.497387695439999 L362.08560631599994 6.490226236440025 L362.09586022199994 6.480053710440005 L362.11636803499994 6.474438476440001 L362.1315861339999 6.477530924440019 L362.12654056099996 6.493644205440022 Z M363.5434265939999 6.173429601440022 L363.54811675299993 6.18058629144001 L363.55240319099994 6.185620117439997 L363.54470018099994 6.19770113643999 L363.5207866989999 6.203128368440035 L363.509770473 6.2129934024400075 L363.491831038 6.2267278814400004 L363.49884032499995 6.234550378440007 L363.51277848199993 6.2285498024399875 L363.51744375399994 6.228584849440027 L363.52101882 6.239726692439989 L363.5018689699999 6.2552309204399865 L363.500791329 6.2756792124400125 L363.48275399199997 6.279608069440018 L363.4722136109999 6.263010483440029 L363.471565962 6.2459082034400115 L363.460502733 6.238114211439994 L363.452933661 6.22813315344 L363.433073671 6.21733346543998 L363.43066569999996 6.206386296440018 L363.4504461639999 6.197988337439982 L363.4881886989999 6.184012551439979 L363.52767067499997 6.175072587440001 L363.5434265939999 6.173429601440022 Z M361.2487736339999 6.10993652344 L361.25406334699994 6.121166992439997 L361.25593509199996 6.134106445439999 L361.256260613 6.157788085440005 L361.26309655 6.205558268440017 L361.2487736339999 6.196362304440003 L361.23648522199994 6.179842122439981 L361.226963738 6.160799153439983 L361.221592644 6.144116210440005 L361.2189884769999 6.128979492439997 L361.22077884199996 6.121166992439997 L361.2351017589999 6.103100585440005 L361.23843834699994 6.106762695439999 L361.24177493599996 6.108064778439983 L361.245030144 6.108715820439999 L361.2487736339999 6.10993652344 Z M361.72232506599994 5.986401367439997 L361.72761477999995 5.968741861440025 L361.73892662899993 5.965812174440019 L361.75007571699996 5.974926757440004 L361.75601647199994 5.993237304440003 L361.75259850399993 6.014477539439996 L361.74234459699994 6.028963216440035 L361.726963738 6.032543945439999 L361.7087345709999 6.020581054440003 L361.718174675 6.018627929440003 L361.72183678499994 6.016267903439983 L361.72086022199994 6.012768554440003 L361.71622155 6.006909179440003 L361.72037194099994 6.002026367439997 L361.7214298839999 5.997550455440022 L361.721592644 5.992504882440004 L361.72232506599994 5.986401367439997 Z M362.94546959699994 5.615877278439983 L362.960850457 5.643058268440017 L362.96296634199996 5.696850585440005 L362.95027102999995 5.735913085440005 L362.92097415499995 5.718904622439981 L362.9108830089999 5.706860351440001 L362.903233269 5.679272460440005 L362.897373894 5.667472330440022 L362.878330925 5.644685872439981 L362.87173912899993 5.632804361440025 L362.8669376959999 5.615877278439983 L362.8630314459999 5.626619466440035 L362.86579837299996 5.646964518440017 L362.86295006599994 5.653800455440022 L362.85407962299996 5.656241861440025 L362.849522332 5.649243164439996 L362.84537194099994 5.620678710440005 L362.8464298839999 5.591951497439981 L362.84439537899993 5.587231445439999 L362.83511803499994 5.571769205440022 L362.8327580089999 5.561840820439999 L362.84341881599994 5.568025716440035 L362.8503361339999 5.568351236440025 L362.87214602999995 5.551586914439996 L362.87751712299996 5.551098632440004 L362.88394615999994 5.553377278439983 L362.897373894 5.555004882440004 L362.912510613 5.564526367439997 L362.9367619149999 5.606437174440019 L362.94546959699994 5.615877278439983 Z M363.03083743599996 5.411124674440019 L363.03083743599996 5.415600585440005 L363.02945397199994 5.418448893440017 L363.02408287899993 5.424145507440004 L363.027256707 5.430737304440003 L363.0305119149999 5.44001464844 L363.03230227999995 5.449861653439983 L363.03083743599996 5.458162434439986 L363.02261803499994 5.467602539439996 L363.0168400399999 5.462556966440035 L363.01041100399993 5.445141601440001 L363.0026798839999 5.435701497439981 L362.995030144 5.423494466440035 L362.99177493599996 5.410148111440025 L362.99673912899993 5.397452799440019 L363.01374759199996 5.406079101440001 L363.03083743599996 5.411124674440019 Z M362.3257619169999 5.341794041440027 L362.341914957 5.366668157440005 L362.362705925 5.379060872439981 L362.37955162899993 5.383129882440004 L362.37711022199994 5.390291341440035 L362.37564537899993 5.393546549440019 L362.37271569099994 5.397452799440019 L362.36587975399993 5.389965820439999 L362.3591251959999 5.394604492439997 L362.35261477999995 5.393221028439983 L362.34781334699994 5.387036132440004 L362.33468542799994 5.38465005744 L362.31945461399994 5.346924734439982 L362.31318926999995 5.328062493440017 L362.3257619169999 5.341794041440027 Z M362.3763778 5.245922851440001 L362.382617333 5.239985285440001 L362.397886674 5.235689459440026 L362.4167576719999 5.246035420440011 L362.4257181869999 5.269182412440033 L362.430188329 5.282858339439985 L362.4319634709999 5.296534307440014 L362.43554366699993 5.310243143439992 L362.43282862499996 5.324805664440008 L362.42921779799997 5.335939902440019 L362.422909173 5.346214140439985 L362.39771376399995 5.353037987440006 L362.38511382499996 5.357305524439981 L362.368077019 5.364249674440019 L362.35818956699995 5.347000084440014 L362.35261477999995 5.330069986440025 L362.339354729 5.290414507439992 L362.351093883 5.26044719944001 L362.3763778 5.245922851440001 Z M362.605381707 5.238435872439981 L362.5974064459999 5.225089518440017 L362.598545769 5.214184570439999 L362.60684655 5.210278320439999 L362.61970462299996 5.217928059439986 L362.62605227999995 5.227693684439986 L362.63809655 5.259106445439999 L362.64078209699994 5.273266601440001 L362.63337649799996 5.273266601440001 L362.62898196699996 5.261385091440035 L362.62320397199994 5.25251464844 L362.615635613 5.245271809439986 L362.605381707 5.238435872439981 Z M362.311436394 5.609041341440035 L362.308994988 5.616284179440003 L362.300694207 5.629956054440003 L362.29841556099996 5.636385091440035 L362.29792727999995 5.650870768440017 L362.29841556099996 5.660229492439997 L362.29450931099996 5.673982747439981 L362.284580925 5.687491861440025 L362.27310631599994 5.698559570439999 L362.263584832 5.705232747439981 L362.21296634199996 5.729484049440019 L362.18863365999994 5.753084309439986 L362.18863365999994 5.732576497439981 L362.15974368599996 5.744132486440025 L362.14761803499994 5.746166992439997 L362.15933678499994 5.729809570439999 L362.160557488 5.725740559439986 L362.1550236339999 5.716300455440022 L362.150791863 5.714835611440025 L362.14566490999994 5.714347330440022 L362.1369572269999 5.708325195439999 L362.12711022199994 5.707104492439997 L362.0983830089999 5.721508789439996 L362.08560631599994 5.725740559439986 L362.087803582 5.746166992439997 L362.070225457 5.758943684439986 L362.04841556099996 5.764640299440019 L362.03775475399993 5.763663736440025 L362.0388126959999 5.748689778439983 L362.039952019 5.743155924440019 L362.03816165499995 5.740063476440001 L362.02164147199994 5.725089518440017 L362.01309655 5.720532226440001 L362.00308678499994 5.718416341440035 L361.98990319099994 5.718904622439981 L361.992588738 5.723299153439983 L361.9934025399999 5.723706054440003 L361.99616946699996 5.725740559439986 L361.99128665499995 5.735180664439996 L361.9857528 5.740877278439983 L361.978428582 5.744295247439981 L361.96890709699994 5.746166992439997 L361.96939537899993 5.743725585440005 L361.9660587899999 5.739086914439996 L361.960850457 5.734529622439981 L361.95523522199994 5.732576497439981 L361.94839928499994 5.733959960440005 L361.936436394 5.738354492439997 L361.9309025399999 5.739331054440003 L361.92292727999995 5.742667643440017 L361.916905144 5.749991861440025 L361.90933678499994 5.757316080440022 L361.896885613 5.760571289439996 L361.8841903 5.761222330440022 L361.87702884199996 5.763338216440035 L361.8718205089999 5.767407226440001 L361.86587975399993 5.773510742439997 L361.86189212299996 5.77985839844 L361.85660240999994 5.794750976440001 L361.85220787899993 5.800854492439997 L361.8435001959999 5.805737304440003 L361.82291100399993 5.813142903439983 L361.8142033209999 5.818188476440001 L361.7853947269999 5.850903320439999 L361.7683048839999 5.865551757440004 L361.7497501959999 5.869783528439983 L361.74136803499994 5.869783528439983 L361.73550865999994 5.876538085440005 L361.71304772199994 5.856518554440003 L361.6389103519999 5.881990559439986 L361.606358269 5.876538085440005 L361.59146569099994 5.875968424440019 L361.5851994149999 5.874503580440022 L361.5783634769999 5.869783528439983 L361.57193444099994 5.875805664439996 L361.5598087899999 5.882804361440025 L361.545811394 5.885815429440003 L361.534092644 5.879956054440003 L361.52107181099996 5.877758789439996 L361.5060978519999 5.886385091440035 L361.494053582 5.890209960440005 L361.4890080089999 5.873120117439997 L361.4857528 5.868725585440005 L361.478428582 5.870760091440035 L361.4704533209999 5.875642903439983 L361.46540774799996 5.879956054440003 L361.459385613 5.882885742439997 L361.45368899799996 5.880200195439999 L361.434483269 5.863761393440017 L361.4313908209999 5.857006835440005 L361.42715905 5.851554361440025 L361.38337649799996 5.840242512439987 L361.2985783209999 5.818432617439997 L361.27302493599996 5.815096028439983 L361.245030144 5.808178710440005 L361.1916447269999 5.78376464844 L361.16763756599994 5.787182617439997 L361.13687584699994 5.773917643440017 L361.124912957 5.772452799440019 L361.0744572269999 5.774894205440022 L361.06509850399993 5.773510742439997 L361.05427493599996 5.769034830440022 L361.0476017589999 5.763175455440022 L361.04255618599996 5.757316080440022 L361.03718509199996 5.753084309439986 L360.966709832 5.736157226440001 L360.935948113 5.722648111440025 L360.91364993599996 5.690991210440005 L360.90681399799996 5.698396809439986 L360.902256707 5.687980143440017 L360.9016056649999 5.668123372439981 L360.90005944099994 5.65681152344 L360.89664147199994 5.651359049440019 L360.8918400399999 5.646557617439997 L360.887608269 5.63923339844 L360.88581790499995 5.626049804440003 L360.8810978519999 5.620760091440035 L360.86295006599994 5.610913085440005 L360.86246178499994 5.605623372439981 L360.8664494149999 5.596508789439996 L360.8620548839999 5.58845214844 L360.85513756599994 5.579907226440001 L360.85163821699996 5.569327799440019 L360.85456790499995 5.561678059439986 L360.8679142589999 5.544262695439999 L360.87214602999995 5.534008789439996 L360.871494988 5.521313476440001 L360.86677493599996 5.513500976440001 L360.8615666019999 5.50642089844 L360.85904381599994 5.496411132440004 L360.865635613 5.476635742439997 L360.8820744149999 5.468823242439997 L360.92732181099996 5.465649414439996 L360.95417727999995 5.455721028439983 L360.96150149799996 5.451977539439996 L360.9714298839999 5.440502929440003 L360.9728947269999 5.432283528439983 L360.970616082 5.424877929440003 L360.96890709699994 5.414542643440017 L360.96890709699994 5.379711914439996 L360.97029056099996 5.366772460440005 L360.97427819099994 5.364575195439999 L360.980869988 5.367260742439997 L361.016026238 5.376944986440025 L361.02351321699996 5.376293945439999 L361.03433678499994 5.367260742439997 L361.03531334699994 5.360343424440019 L361.0319767589999 5.353588867439997 L361.029698113 5.345288085440005 L361.02872155 5.334138997439981 L361.02448977999995 5.314607747439981 L361.02351321699996 5.304679361440025 L361.02058352999995 5.295402018440017 L361.01325931099996 5.291170247439981 L361.00398196699996 5.28767089844 L360.99568118599996 5.280102539439996 L360.98892662899993 5.257641601440001 L361.00211022199994 5.247631835440005 L361.020420769 5.239412434439986 L361.029698113 5.221752929440003 L361.03433678499994 5.214998372439981 L361.056553582 5.209790039439996 L361.06509850399993 5.205069986440025 L361.06900475399993 5.193432617439997 L361.0671330089999 5.182446289439996 L361.06745852999995 5.17243652344 L361.07820071699996 5.163403320439999 L361.0895939459999 5.175935872439981 L361.099522332 5.172843424440019 L361.103916863 5.161612955440022 L361.09927819099994 5.149731445439999 L361.106358269 5.134920247439981 L361.115147332 5.122143554440003 L361.124424675 5.117830403439983 L361.13337649799996 5.129223632440004 L361.139561394 5.129223632440004 L361.18130944099994 5.095206705440022 L361.222080925 5.071769205440022 L361.225010613 5.067862955440022 L361.22818444099994 5.065584309439986 L361.228916863 5.061027018440017 L361.23111412899993 5.056306966440035 L361.23892662899993 5.054191080440022 L361.2453556649999 5.05524902344 L361.25259850399993 5.057609049440019 L361.256260613 5.059887695439999 L361.25259850399993 5.061027018440017 L361.2468205089999 5.068839518440017 L361.25007571699996 5.08649902344 L361.257237175 5.105053710440005 L361.26309655 5.115551757440004 L361.2692814459999 5.109448242439997 L361.26309655 5.096752929440003 L361.2591903 5.085115559439986 L361.25894615999994 5.073722330440022 L361.26309655 5.061027018440017 L361.27058352999995 5.055493164439996 L361.304112175 5.037426757440004 L361.31013431099996 5.034985351440001 L361.34878990999994 5.047355143440017 L361.353916863 5.041984049440019 L361.3561955089999 5.030346679440003 L361.36091556099996 5.018627929440003 L361.3654728519999 5.013745117439997 L361.37361087299996 5.009838867439997 L361.38028405 5.005362955440022 L361.38728274799996 5.001619466440035 L361.4076278 4.998038736440025 L361.41153405 4.993237304440003 L361.41413821699996 4.988354492439997 L361.42545006599994 4.983715820439999 L361.4299259769999 4.981111653439983 L361.43326256599994 4.983553059439986 L361.434483269 4.996411132440004 L361.43366946699996 5.007316080440022 L361.4310653 5.016918945439999 L361.426670769 5.025870768440017 L361.4201603519999 5.034252929440003 L361.4362736339999 5.038403320439999 L361.44986412899993 5.030265299440019 L361.4623153 5.017163085440005 L361.475987175 5.00642089844 L361.4973087899999 5.020011393440017 L361.5266056649999 5.023022460440005 L361.55622806099996 5.019604492439997 L361.5783634769999 5.013745117439997 L361.6071720709999 5.00056152344 L361.6193791019999 4.992260742439997 L361.63003990999994 4.982495117439997 L361.64224694099994 4.973950195439999 L361.665928582 4.972973632440004 L361.6813908209999 4.96540527344 L361.713780144 4.970288085440005 L361.75105227999995 4.963940429440003 L361.78083743599996 4.946362304440003 L361.79011477999995 4.917635091440035 L361.81168053499994 4.924796549440019 L361.8391056649999 4.937166341440035 L361.862705925 4.952709960440005 L361.87271569099994 4.968823242439997 L361.87556399799996 4.980786132440004 L361.8864689459999 5.000805664439996 L361.88630618599996 5.013745117439997 L361.87955162899993 5.024487304440003 L361.854405144 5.048901367439997 L361.84537194099994 5.061027018440017 L361.85603274799996 5.066723632440004 L361.85806725399993 5.074536132440004 L361.8537541019999 5.08259277344 L361.84537194099994 5.088370768440017 L361.8586369149999 5.086010742439997 L361.8859806649999 5.055167643440017 L361.90372155 5.047355143440017 L361.9274845709999 5.049877929440003 L361.94831790499995 5.05720214844 L361.9645939459999 5.069978841440035 L361.97574303499994 5.088370768440017 L361.97720787899993 5.096834309439986 L361.97427819099994 5.108471679440003 L361.97574303499994 5.115551757440004 L361.979405144 5.117342122439981 L361.99747155 5.132397460440005 L361.999912957 5.136059570439999 L362.00357506599994 5.139477539439996 L362.04548587299996 5.166984049440019 L362.055577019 5.168286132440004 L362.06607506599994 5.168041992439997 L362.07877037899993 5.170239257440004 L362.09626712299996 5.18220214844 L362.122959832 5.217928059439986 L362.13028405 5.225415039439996 L362.15193118599996 5.227856445439999 L362.17300865999994 5.235017903439983 L362.190830925 5.248038736440025 L362.20230553499994 5.267081705440022 L362.20328209699994 5.291658528439983 L362.19294681099996 5.310538736440025 L362.180577019 5.327140299440019 L362.174229363 5.345288085440005 L362.17252037899993 5.354809570439999 L362.16934655 5.363598632440004 L362.1677189459999 5.372062174440019 L362.1711369149999 5.379711914439996 L362.1789494149999 5.386303710440005 L362.1975041019999 5.398917643440017 L362.20230553499994 5.403637695439999 L362.203037957 5.415519205440022 L362.199619988 5.426424153439983 L362.19888756599994 5.436515299440019 L362.20840905 5.445141601440001 L362.220616082 5.440584309439986 L362.22720787899993 5.44392089844 L362.2263126959999 5.451163736440025 L362.21589602999995 5.458162434439986 L362.2279403 5.462882486440025 L362.23502037899993 5.470532226440001 L362.23599694099994 5.480786132440004 L362.22956790499995 5.492993164439996 L362.2258244149999 5.490714518440017 L362.21589602999995 5.486157226440001 L362.21793053499994 5.490877278439983 L362.22273196699996 5.507316080440022 L362.19107506599994 5.514640299440019 L362.19489993599996 5.543123372439981 L362.2131291019999 5.574047851440001 L362.22614993599996 5.588533528439983 L362.24576256599994 5.590323893440017 L362.254307488 5.595532226440001 L362.259678582 5.60407714844 L362.270420769 5.615877278439983 L362.2741642589999 5.621411132440004 L362.27457115999994 5.625805664439996 L362.27701256599994 5.628491210440005 L362.28767337299996 5.62946777344 L362.293858269 5.627026367439997 L362.299229363 5.620922851440001 L362.30329837299996 5.614086914439996 L362.30533287899993 5.609041341440035 L362.311436394 5.609041341440035 Z M360.69392337299996 4.862377929440003 L360.7201278 4.872550455440022 L360.73257897199994 4.871573893440017 L360.74918053499994 4.862377929440003 L360.76285240999994 4.882885742439997 L360.75601647199994 4.884106445439999 L360.75308678499994 4.887768554440003 L360.751866082 4.892244466440035 L360.737705925 4.911938476440001 L360.724522332 4.923901367439997 L360.711827019 4.927400716440035 L360.70132897199994 4.917635091440035 L360.6994572269999 4.901033528439983 L360.704014519 4.887361653439983 L360.70523522199994 4.876782226440001 L360.69392337299996 4.869783528439983 L360.69392337299996 4.862377929440003 Z M363.05191490999994 4.907381184439986 L363.04988040499995 4.933178710440005 L363.043369988 4.955721028439983 L363.03287194099994 4.975415039439996 L363.0178166019999 4.99274902344 L362.99087975399993 5.013338216440035 L362.98347415499995 5.007641601440001 L362.98347415499995 4.948315429440003 L362.981358269 4.932283528439983 L362.9763126959999 4.917635091440035 L362.96882571699996 4.903881835440005 L362.972080925 4.890454101440001 L362.97134850399993 4.876944986440025 L362.97867272199994 4.866528320439999 L363.01968834699994 4.860831705440022 L363.029209832 4.858227539439996 L363.0378361339999 4.858878580440022 L363.0482528 4.866202799440019 L363.0480900399999 4.872224934439986 L363.05191490999994 4.907381184439986 Z M360.87214602999995 4.697908528439983 L360.875889519 4.691235351440001 L360.88581790499995 4.663728841440035 L360.89224694099994 4.675610351440001 L360.89265384199996 4.689444986440025 L360.88785240999994 4.702303059439986 L360.87955162899993 4.71149902344 L360.87173912899993 4.729809570439999 L360.841709832 4.749829101440001 L360.83804772199994 4.76618652344 L360.83365319099994 4.762768554440003 L360.8303166019999 4.760896809439986 L360.8273869149999 4.758292643440017 L360.82429446699996 4.75251464844 L360.81461022199994 4.75837402344 L360.807530144 4.765291341440035 L360.80378665499995 4.774405924440019 L360.80378665499995 4.786694335440005 L360.77595462299996 4.780428059439986 L360.77595462299996 4.773022460440005 L360.78677819099994 4.773429361440025 L360.79019615999994 4.773022460440005 L360.7863712899999 4.763338216440035 L360.7844181649999 4.749666341440035 L360.786045769 4.737377929440003 L360.79361412899993 4.732006835440005 L360.8024845709999 4.728100585440005 L360.80622806099996 4.718579101440001 L360.80777428499994 4.707348632440004 L360.81119225399993 4.697908528439983 L360.818272332 4.690909830440022 L360.8405705089999 4.673901367439997 L360.848545769 4.670564778439983 L360.84968509199996 4.674796549440019 L360.86140384199996 4.693025716440035 L360.86587975399993 4.697908528439983 L360.87214602999995 4.697908528439983 Z M361.0436955089999 4.48493652344 L361.0129337899999 4.50837402344 L361.0036564459999 4.519685872439981 L361.016514519 4.526521809439986 L361.01325931099996 4.534334309439986 L361.00845787899993 4.54157714844 L361.00259850399993 4.548168945439999 L360.9953556649999 4.553865559439986 L360.992588738 4.548413085440005 L360.9855900399999 4.539542643440017 L360.973057488 4.520011393440017 L360.978916863 4.510734049440019 L361.002842644 4.49860839844 L360.99576256599994 4.483227539439996 L361.008213738 4.478181966440035 L361.028233269 4.479972330440022 L361.0436955089999 4.48493652344 Z M361.933994988 4.410473632440004 L361.930088738 4.431144205440022 L361.93562259199996 4.442211914439996 L361.93366946699996 4.445955403439983 L361.90738365999994 4.444653320439999 L361.89021243599996 4.451489257440004 L361.88296959699994 4.439444986440025 L361.88003990999994 4.403800455440022 L361.88630618599996 4.403800455440022 L361.89468834699994 4.409171549440019 L361.90640709699994 4.410961914439996 L361.933994988 4.410473632440004 Z M361.16072024799996 4.293937174440019 L361.1799259769999 4.295239257440004 L361.1911564459999 4.30329589844 L361.19400475399993 4.317049153439983 L361.187412957 4.334790039439996 L361.18033287899993 4.345532226440001 L361.163975457 4.357006835440005 L361.16072024799996 4.36579589844 L361.1564884769999 4.370922851440001 L361.09341881599994 4.419750976440001 L361.07925865999994 4.43415527344 L361.07136477999995 4.451489257440004 L361.061436394 4.447257486440025 L361.05777428499994 4.444653320439999 L361.053135613 4.450268554440003 L361.04556725399993 4.45563964844 L361.03718509199996 4.457104492439997 L361.029698113 4.451489257440004 L361.03034915499995 4.445304361440025 L361.0363712899999 4.420727539439996 L361.03718509199996 4.410473632440004 L361.04402102999995 4.410473632440004 L361.056553582 4.422680664439996 L361.07535240999994 4.413728841440035 L361.11295006599994 4.375805664439996 L361.158604363 4.338533528439983 L361.17252037899993 4.316560872439981 L361.16072024799996 4.293937174440019 Z M363.517491082 4.272615559439986 L363.483311394 4.272615559439986 L363.50007571699996 4.267244466440035 L363.507237175 4.266593424440019 L363.51089928499994 4.263338216440035 L363.510166863 4.249178059439986 L363.514073113 4.246085611440025 L363.523350457 4.245271809439986 L363.534580925 4.242179361440025 L363.54499759199996 4.235831705440022 L363.551670769 4.224926757440004 L363.552647332 4.245434570439999 L363.54743899799996 4.261547851440001 L363.53580162899993 4.271150716440035 L363.517491082 4.272615559439986 Z M362.1882267589999 4.190096028439983 L362.1966903 4.195467122439981 L362.20515384199996 4.197094726440001 L362.213780144 4.195141601440001 L362.222569207 4.190096028439983 L362.215733269 4.200838216440035 L362.20613040499995 4.208813476440001 L362.19245852999995 4.212719726440001 L362.17398522199994 4.211254882440004 L362.1667423839999 4.20954589844 L362.16364993599996 4.207999674440019 L362.1603947269999 4.204418945439999 L362.1882267589999 4.190096028439983 Z M362.9623153 3.943676757440004 L362.97663821699996 3.9459554034399833 L362.98965905 3.950675455440022 L362.977452019 3.9561279294400027 L362.9611759769999 3.957836914439996 L362.943760613 3.9560465494400194 L362.928135613 3.950675455440022 L362.928135613 3.943676757440004 L362.9623153 3.943676757440004 Z M360.72476647199994 0.10318196644003486 L360.72907962299996 0.11872558544000533 L360.7136173839999 0.12849121044000533 L360.69107506599994 0.1334554034399833 L360.67341556099996 0.13394368443998594 L360.659580925 0.12906087243998066 L360.64363040499995 0.12556152344000004 L360.62711022199994 0.12434082043999872 L360.61148522199994 0.12653808544000533 L360.60660240999994 0.11180826844001679 L360.605869988 0.10659993443998594 L360.6208439459999 0.11066894543999872 L360.63296959699994 0.10847167944000269 L360.65974368599996 0.09235839844000004 L360.675205925 0.0977294924399974 L360.7111759769999 0.0977294924399974 L360.72476647199994 0.10318196644003486 Z M358.21589602999995 9.328198242439997 L358.19685306099996 9.315502929440003 L358.1888778 9.298657226440001 L358.19400475399993 9.285799153439983 L358.2141056649999 9.28531087243998 L358.22663821699996 9.293611653439983 L358.2311955089999 9.306713867439997 L358.2277775399999 9.319653320439999 L358.21589602999995 9.328198242439997 Z M4.880935091999987 8.28807779944002 L4.872756380999988 8.28181152344 L4.868972200999991 8.274731445439999 L4.86970462299999 8.267163085440005 L4.875035026999996 8.259431966440035 L4.875767448999994 8.268058268440017 L4.879185417999992 8.27635904944002 L4.884719271999984 8.283276367439997 L4.891880729999997 8.288403320439999 L4.888991732999983 8.288891601440001 L4.880935091999987 8.28807779944002 Z M5.373203971999999 7.457104492439997 L5.369460482999983 7.452303059439986 L5.371047396999984 7.446118164439996 L5.3763778 7.439282226440001 L5.38386478000001 7.432283528439983 L5.382399935999985 7.438956705440022 L5.37995853000001 7.444978841440035 L5.373203971999999 7.457104492439997 Z M5.180210807999998 6.784497070439999 L5.198887565999996 6.75056152344 L5.207066276999996 6.744620768440017 L5.2107283859999995 6.763500976440001 L5.208042839000001 6.782869466440035 L5.200393099999985 6.788077799440019 L5.190627474999985 6.788891601440001 L5.181187370999993 6.795727539439996 L5.17829837299999 6.793286132440004 L5.178013542999992 6.790844726440001 L5.180210807999998 6.784497070439999 Z M4.700352409999994 6.494213867439997 L4.69278405 6.49860839844 L4.685134310999985 6.501131184439986 L4.677403190999996 6.501456705440022 L4.66938724100001 6.499178059439986 L4.680495638999986 6.489737955440022 L4.6927026699999885 6.481111653439983 L4.706008333999989 6.474682617439997 L4.7201278 6.471346028439983 L4.7161401699999885 6.477856445439999 L4.711460807999998 6.483878580440022 L4.706211784999994 6.489331054440003 L4.700352409999994 6.494213867439997 Z M5.09284915500001 6.282299804440003 L5.083693880999988 6.267081705440022 L5.088902214000001 6.255037434439986 L5.100783724999985 6.250805664439996 L5.112014193999983 6.258455403439983 L5.113926628999991 6.268872070439999 L5.109694857999983 6.277823893440017 L5.101882357999983 6.283032226440001 L5.09284915500001 6.282299804440003 Z M4.277419466999987 5.38728027344 L4.2638696619999905 5.37556152344 L4.265782096999999 5.357088216440035 L4.279698112999995 5.341951497439981 L4.301914909999994 5.340323893440017 L4.320266146999984 5.356518554440003 L4.319248893999998 5.377270507440004 L4.303542513999986 5.391267903439983 L4.277419466999987 5.38728027344 Z M4.443394401999996 5.08845214844 L4.42719974100001 5.075024414439996 L4.424514193999983 5.056795247439981 L4.433994987999995 5.042635091440035 L4.4544214199999885 5.041333007440004 L4.4652856779999865 5.052400716440035 L4.4691919279999865 5.070792643440017 L4.462925651999996 5.086010742439997 L4.443394401999996 5.08845214844 Z M4.4427026699999885 4.889803059439986 L4.443313021999984 4.871166992439997 L4.453526237999995 4.865063476440001 L4.465611198999994 4.869213867439997 L4.47212161600001 4.881990559439986 L4.4691919279999865 4.894116210440005 L4.4607283859999995 4.900382486440025 L4.4505151699999885 4.899243164439996 L4.4427026699999885 4.889803059439986 Z" fill="black" stroke="black" stroke-width="0.5" vector-effect="non-scaling-stroke"/></svg>