<svg xmlns="http://www.w3.org/2000/svg" viewBox="0 0 19.985874023819946 20.08490234358002"><path d="M18.567155762409982 14.27112955729 L18.55722737640997 14.27666341129002 L18.547054850410007 14.281220702289989 L18.56935302740999 14.260387369290005 L18.56902750641001 14.263154296289986 L18.567155762409982 14.27112955729 Z M18.35572998040999 13.715139973290025 L18.346574707409957 13.710419921289986 L18.33709391341 13.709606119290005 L18.327897949409987 13.71221028629002 L18.31951578841 13.718151041290003 L18.32797932940997 13.707001952289989 L18.341447754409955 13.702932942290023 L18.35304443340999 13.705862629290028 L18.35572998040999 13.715139973290025 Z M18.18352945941001 13.58362955729 L18.20070068340999 13.578095702289989 L18.207211100410007 13.58485026029 L18.203467610409973 13.596650390289984 L18.189795735409973 13.606578775290007 L18.198666178410008 13.595673827289989 L18.19720133441001 13.58916341129002 L18.19052815740997 13.58558268229 L18.18352945941001 13.58362955729 Z M18.09669677740999 13.588349609290038 L18.086117350410007 13.574026692290023 L18.081315918409985 13.569713541290003 L18.089006347409963 13.56963216129002 L18.093034668409985 13.573212890289984 L18.094987793409985 13.579886067290023 L18.09669677740999 13.588349609290038 Z M17.998552246409986 13.558889973290025 L17.993750814409964 13.555309244290005 L17.990658366410003 13.551240234290038 L17.987159017409965 13.550182291290003 L17.98072998040999 13.555309244290005 L17.98695556640996 13.546276041290003 L17.994279785409958 13.546276041290003 L18.00058675140997 13.553030598290025 L18.003801269409962 13.564830728290008 L18.001644694410004 13.56409830729 L18.000749512409982 13.562470702289989 L18.000098470409966 13.560680338290002 L17.998552246409986 13.558889973290025 Z M14.318946126409969 11.86097330729 L14.325537923409968 11.856904296289986 L14.33774495440997 11.86219401029 L14.349748535409958 11.872203775290007 L14.355892741410003 11.883108723290025 L14.353858235409973 11.89539713529 L14.34555745440997 11.903779296289986 L14.333635254409955 11.908499348290025 L14.320492350410007 11.910615234290038 L14.336076660409958 11.897838541290003 L14.346289876409969 11.887096353290008 L14.343116048409968 11.875621744290005 L14.318946126409969 11.86097330729 Z M15.53065673840996 11.597464192290023 L15.528825683409991 11.592906900290007 L15.527849121409986 11.588268228290008 L15.52524495440997 11.584117838290002 L15.518083496409986 11.58135091129002 L15.52996500641001 11.58167643229 L15.537004394409962 11.587698567290023 L15.537004394409962 11.59656901029 L15.527727051410011 11.605927734290038 L15.53065673840996 11.597464192290023 Z M15.93617431640996 11.537080077289989 L15.926937663410001 11.535615234290038 L15.923519694410004 11.53406901029 L15.920793457409957 11.53056966129002 L15.930518392409965 11.528779296289986 L15.938330892409965 11.528453775290007 L15.941179199409987 11.530651041290003 L15.93617431640996 11.537080077289989 Z M13.46673258441001 11.450328775290007 L13.480567220409966 11.436494140289984 L13.495744629409955 11.440400390289984 L13.505388183409991 11.455211588290002 L13.502539876409969 11.47392903629002 L13.499203288410001 11.458466796289986 L13.490129394409962 11.449026692290023 L13.478166504409955 11.44617838529 L13.46673258441001 11.450328775290007 Z M14.011084798409968 11.38050455729 L14.036719564409964 11.36610026029 L14.06276123040999 11.37855143229 L14.072038574409987 11.399222004290028 L14.047054850410007 11.408336588290002 L14.062883301410011 11.38953776029 L14.051530762409982 11.379039713290002 L14.028947754409955 11.376110025290007 L14.011084798409968 11.38050455729 Z M15.931332194410004 11.012014973290025 L15.937679850410007 11.017711588290002 L15.939592285409958 11.02080403629002 L15.93971435540999 11.025686848290025 L15.903174642409965 11.00672526029 L15.910051269409962 11.00713216129002 L15.917172038410001 11.008190103290008 L15.931332194410004 11.012014973290025 Z M11.640804850410007 10.100068359290038 L11.652035319410004 10.084361978290008 L11.660661621409986 10.08721028629002 L11.673031413410001 10.11260091129002 L11.672624512409982 10.11455403629002 L11.668067220409966 10.110485025290007 L11.662696126409969 10.101940103290008 L11.66009195941001 10.09111653629002 L11.655290527409988 10.099010416290003 L11.650529785409958 10.104300129290028 L11.645769043409985 10.105276692290023 L11.640804850410007 10.100068359290038 Z M4.077653808409991 9.915498046289986 L4.0897387694099905 9.902233072290006 L4.0925870774099735 9.912893879290028 L4.087948405409975 9.924775390289984 L4.077653808409991 9.915498046289986 Z M13.294369303410008 9.61487955729 L13.29042236340996 9.606904296289986 L13.279069824409987 9.599091796289986 L13.26547932940997 9.595592447290006 L13.251075032409972 9.59534830729 L13.27215250641001 9.591604817290023 L13.28773681640996 9.59852213529 L13.296647949409987 9.61414713529 L13.296851400409992 9.617483723290025 L13.29758382141 9.630341796289986 L13.297950032409972 9.636119791290003 L13.296078288410001 9.632620442290023 L13.296078288410001 9.629527994290005 L13.294369303410008 9.61487955729 Z M16.291195475410007 9.613170572290006 L16.271501465409983 9.612438150290007 L16.269426269409962 9.60674153629002 L16.269182129409955 9.603730468289985 L16.271989746409986 9.597138671289986 L16.285987142409965 9.579479166290003 L16.306779785409958 9.571666666290003 L16.27801188141001 9.59656901029 L16.27410563141001 9.603649088290002 L16.275082194410004 9.605602213290002 L16.27923258441001 9.60633463529 L16.285173340409983 9.608369140289984 L16.291195475410007 9.613170572290006 Z M11.648088379409955 9.251354166290003 L11.639095866410003 9.244762369290005 L11.635189616410003 9.24110026029 L11.631690267409965 9.236949869290005 L11.64251383441001 9.236298827289989 L11.653093262409982 9.240123697290006 L11.66273681640996 9.24695963529 L11.670915527409988 9.255748697290006 L11.665381673409968 9.256806640289984 L11.659766439409964 9.256155598290025 L11.653988444410004 9.254202473290025 L11.648088379409955 9.251354166290003 Z M5.149309082409985 9.233857421289986 L5.156999512409982 9.230439452289989 L5.160824381409981 9.22938151029 L5.164689941409989 9.228974609290038 L5.160580241409974 9.234182942290023 L5.146053874409972 9.247203775290007 L5.1459318034099795 9.24346028629002 L5.1467862954099814 9.240367838290002 L5.149309082409985 9.233857421289986 Z M0.7989265954099949 9.044322916290003 L0.8043790694099755 9.053681640289984 L0.8101163744099722 9.06767903629002 L0.8127612304099898 9.078502603290008 L0.8086515304099748 9.078583984290038 L0.7996997074099852 9.065888671289986 L0.7896899414099892 9.034313150290007 L0.7822436524099885 9.020641275290007 L0.7899340824099852 9.021373697290006 L0.7951831054099898 9.02625651029 L0.7981534834099762 9.034150390289984 L0.7989265954099949 9.044322916290003 Z M10.532243652409988 8.895152994290005 L10.534807129409984 8.888968098290025 L10.54477620440997 8.892467447290006 L10.556250814409992 8.902151692290023 L10.563330892409994 8.914033202289989 L10.555070801409983 8.910533853290008 L10.547014160409987 8.906139322290006 L10.532243652409988 8.895152994290005 Z M2.488216959409982 8.690563150290007 L2.476620280409975 8.698050129290028 L2.4692960614099775 8.693981119290005 L2.471452637409982 8.688284504290028 L2.488216959409982 8.690563150290007 Z M8.834001465409983 8.134899088290002 L8.782406413409973 8.086396484290038 L8.81862060540999 8.110322265289984 L8.834326985409973 8.125133463290002 L8.834001465409983 8.134899088290002 Z M13.843929850410007 8.066539713290002 L13.871477051410011 8.062307942290023 L13.880550944410004 8.062307942290023 L13.873063965409983 8.066702473290025 L13.853207194410004 8.085094400290007 L13.843889160409958 8.084117838290002 L13.837907715409983 8.07972330729 L13.83729736340996 8.073619791290003 L13.843929850410007 8.066539713290002 Z M6.482072754409984 8.114228515289984 L6.46119873040999 8.099986978290008 L6.453548991409974 8.077281900290007 L6.4573331704099814 8.056774088290002 L6.4708422854099865 8.049205728290008 L6.475277506409981 8.054658202289989 L6.486752116409974 8.078421223290025 L6.493913574409987 8.086396484290038 L6.50298746740998 8.094860025290007 L6.502132975409978 8.103649088290002 L6.494198405409975 8.110729166290003 L6.482072754409984 8.114228515289984 Z M8.246273600409978 8.050182291290003 L8.25026123040999 8.061656900290007 L8.251237793409985 8.067353515289984 L8.250993652409988 8.073701171289986 L8.242326660409987 8.055065103290008 L8.236752116409974 8.046276041290003 L8.229875488409988 8.038463541290003 L8.234066569409976 8.040823567290023 L8.246273600409978 8.050182291290003 Z M0.2097338874099819 8.066214192290023 L0.21229736340998784 8.055309244290005 L0.21083251940999048 8.047252603290008 L0.20538004540998145 8.041637369290005 L0.19593994140998916 8.039033202289989 L0.2081469724099918 8.036103515289984 L0.21380289740997682 8.042369791290003 L0.21563395240997352 8.053193359290038 L0.21656982440998718 8.06409830729 L0.21368082740997352 8.070201822290006 L0.20745524140997418 8.074514973290025 L0.2041186524099885 8.074026692290023 L0.2097338874099819 8.066214192290023 Z M10.083106282409972 7.976940103290009 L10.100114746409986 7.975231119290005 L10.110979004409984 7.982799478290009 L10.112484538409973 7.99378580729 L10.101579590409983 8.002086588290002 L10.091000163409973 8.001923827289989 L10.084001465409983 7.99606445228999 L10.081193847409992 7.986949869290005 L10.083106282409972 7.976940103290009 Z M9.277035319409976 7.7263704422900235 L9.28895751940999 7.726451822290007 L9.29750244140999 7.729788411290021 L9.30022867840998 7.735322265289985 L9.295061035409987 7.743134765289985 L9.275570475409978 7.72848632728999 L9.209001465409983 7.717255859290039 L9.183285319409976 7.69886393229 L9.25140055340998 7.721569010290001 L9.277035319409976 7.7263704422900235 Z M8.538754069409976 7.606253254290029 L8.52992431640999 7.635631510290001 L8.534278157409972 7.616588541290004 L8.536760254409984 7.594371744290005 L8.53460367840998 7.585501301290027 L8.529313965409983 7.578258463290003 L8.525489095409995 7.575410155289991 L8.515723470409995 7.570445963290003 L8.518937988409988 7.569876301290027 L8.527930501409998 7.574514973290026 L8.532365722409992 7.576468098290026 L8.536231282409972 7.582408853290009 L8.540137532409972 7.593069661290021 L8.538754069409976 7.606253254290029 Z M8.112077637409982 7.486624348290026 L8.093889160409987 7.479381510290001 L8.109066569409976 7.481822916290004 L8.121192220409995 7.490693359290039 L8.129981282409972 7.5037141922900235 L8.135148926409983 7.518362629290029 L8.122819824409987 7.503225911290021 L8.112077637409982 7.486624348290026 Z M7.476660970409995 7.479300129290029 L7.490658366409974 7.479137369290005 L7.49440185540999 7.48206705729 L7.495500488409988 7.491018879290029 L7.491105957409985 7.485810546289987 L7.4867114264099826 7.483531900290008 L7.482032064409992 7.481822916290004 L7.476660970409995 7.479300129290029 Z M6.953955892409994 7.463186848290026 L6.95883870440997 7.460257161290021 L6.969499512409982 7.466197916290004 L6.982927246409986 7.475475260290001 L6.9957853194099755 7.48206705729 L6.953955892409994 7.463186848290026 Z M7.273942871409986 7.368134765289985 L7.220882975409978 7.326793619290005 L7.202043457409985 7.315807291290004 L7.222062988409988 7.324677734290039 L7.240414225409978 7.33786132728999 L7.273942871409986 7.368134765289985 Z M6.800961100409978 7.327607421289987 L6.798601074409987 7.323701171289987 L6.796241048409996 7.320690103290009 L6.795101725409978 7.317679036290021 L6.7963224284099795 7.313121744290005 L6.800961100409978 7.327607421289987 Z M8.810482584409982 6.680553385290001 L8.800147298409996 6.68519205729 L8.789201660409987 6.688610025290008 L8.77801188140998 6.690319010290001 L8.766740722409992 6.689912109290039 L8.799699707409985 6.684378254290029 L8.810482584409982 6.680553385290001 Z M13.558366699409987 6.436412760290001 L13.55340250641001 6.443248697290007 L13.54363688141001 6.436982421289987 L13.520118001409969 6.41175455729 L13.530168457409957 6.416962890289985 L13.558366699409987 6.436412760290001 Z M7.008684082409985 16.118541666290003 L7.008684082409985 16.11170572829001 L7.0270353194099755 16.105358072290006 L7.044938965409983 16.101370442290023 L7.085059407409972 16.098603515289984 L7.081682129409984 16.105358072290006 L7.077043457409985 16.11064778629002 L7.071143392409994 16.11487955729 L7.063981933409991 16.118541666290003 L7.033952637409982 16.124807942290023 L7.020280762409982 16.123994140289984 L7.008684082409985 16.118541666290003 Z M5.2512377934099845 15.604625650290007 L5.27642496740998 15.612112629290028 L5.281999512409982 15.627900390289984 L5.2696704104099865 15.642548827289989 L5.225114746409986 15.647268879290028 L5.214169108409976 15.641735025290007 L5.208146972409992 15.630748697290006 L5.206193847409992 15.61487955729 L5.2114835614099775 15.609508463290002 L5.224016113409988 15.60633463529 L5.2512377934099845 15.604625650290007 Z M19.71355875641001 15.364391275290007 L19.73496175140997 15.363089192290023 L19.76743245440997 15.337291666290003 L19.789934082409957 15.330374348290025 L19.782365722409963 15.343720702289989 L19.748389485409973 15.385550129290028 L19.73768798840996 15.383922525290007 L19.72836995440997 15.380667317290023 L19.71355875641001 15.371878254290028 L19.71355875641001 15.364391275290007 Z M3.346045735409973 14.66924153629002 L3.355241699409987 14.670055338290002 L3.365414225409978 14.68096028629002 L3.373674316409989 14.694306640289984 L3.377010905409975 14.703421223290025 L3.375423991409974 14.728486327289989 L3.37017496740998 14.754853515289984 L3.364193522409977 14.759899088290002 L3.361141764409979 14.761201171289986 L3.356584472409992 14.761119791290003 L3.352474772409977 14.735485025290007 L3.341813965409983 14.711315103290008 L3.335873209409982 14.688935546289986 L3.346045735409973 14.66924153629002 Z M14.060970866410003 13.905732421289986 L14.079729004409955 13.89385091129002 L14.098731282409972 13.907604166290003 L14.129248860409973 13.953583984290038 L14.102393392409965 13.96839518229 L14.074642741410003 13.959443359290038 L14.057145996409986 13.935680338290002 L14.060970866410003 13.905732421289986 Z M14.054134928410008 10.027151692290023 L14.005754394409962 10.053844400290007 L13.97487060540999 10.078421223290025 L13.947689616410003 10.105358072290006 L13.936947428410008 10.109508463290002 L13.920793457409957 10.109833984290038 L13.905127767409965 10.106904296289986 L13.89589111340996 10.101533202289989 L13.894222819410004 10.090221353290008 L13.898617350410007 10.076793619290005 L13.910173340409983 10.053844400290007 L13.930599772410005 10.033336588290002 L13.950456543409985 9.998424478290008 L13.987077637409982 9.976370442290023 L14.060970866410003 9.94463216129002 L14.080827637409982 9.93096028629002 L14.108252767409965 9.934052734290038 L14.113054199409987 9.953502603290008 L14.104427897410005 9.975231119290005 L14.08461181640996 9.990693359290038 L14.054134928410008 10.027151692290023 Z M5.549455566409989 9.977998046289986 L5.572282715409983 10.003714192290023 L5.583798014409979 10.048798827289989 L5.5764737954099814 10.09306966129002 L5.542619629409984 10.115856119290005 L5.526506347409992 10.113414713290002 L5.472062988409988 10.09852213529 L5.456966959409982 10.091686197290006 L5.424252116409974 10.05042643229 L5.398617350409978 10.005992838290002 L5.3894620774099735 9.971650390289984 L5.384945475409978 9.964977213290002 L5.3753833014099826 9.964651692290023 L5.3703784184099845 9.972057291290003 L5.366716308409991 9.981090494290005 L5.361101074409987 9.985485025290007 L5.341000163409973 9.988170572290006 L5.282528483409976 10.005992838290002 L5.260881347409992 10.007294921289986 L5.245052897409977 10.00477213529 L5.2136808274099735 9.992972004290028 L5.1567960614099775 9.984345702289989 L5.145402832409985 9.977998046289986 L5.127865397409977 9.918590494290005 L5.121151530409975 9.90980143229 L5.1117114264099826 9.902965494290005 L5.1019458014099826 9.886119791290003 L5.094255371409986 9.865693359290038 L5.090756022409977 9.847626952289989 L5.1001554364099775 9.800182291290003 L5.1285978194099755 9.772594400290007 L5.168840332409985 9.756806640289984 L5.2136808274099735 9.745250650290007 L5.2579516604099865 9.740856119290005 L5.303402506409981 9.748343098290025 L5.345272624409972 9.764781900290007 L5.3788012694099905 9.786917317290023 L5.388851725409978 9.797496744290005 L5.397355957409985 9.810843098290025 L5.403256022409977 9.826630859290038 L5.405453288409973 9.84461588529 L5.4026456704099814 9.910533853290008 L5.405453288409973 9.93096028629002 L5.4289721684099845 9.958873697290006 L5.469621582409985 9.96961588529 L5.549455566409989 9.977998046289986 Z M4.936215006409981 9.711233723290025 L4.946794433409991 9.71570963529 L4.947282715409983 9.725963541290003 L4.928158366409974 9.770152994290005 L4.9104581704099814 9.79652018229 L4.890153808409991 9.814342447290006 L4.871029459409982 9.813610025290007 L4.847714030409975 9.802135416290003 L4.818864746409986 9.78211588529 L4.795427246409986 9.759248046289986 L4.7885099284099795 9.73914713529 L4.798845215409983 9.728323567290023 L4.8173999024099885 9.72034830729 L4.835140788409973 9.719046223290025 L4.843075358409976 9.728323567290023 L4.847062988409988 9.738577473290025 L4.855282389409979 9.738740234290038 L4.862932129409984 9.734508463290002 L4.864803874409972 9.73174153629002 L4.872697754409984 9.729951171289986 L4.8792895514099826 9.725963541290003 L4.8871020514099826 9.724742838290002 L4.8983325194099905 9.73174153629002 L4.901262207409985 9.719534504290028 L4.909807129409984 9.713349609290038 L4.922054850409978 9.711396484290038 L4.936215006409981 9.711233723290025 Z M3.7271085614099775 9.016002603290008 L3.730526530409975 9.007620442290023 L3.7385831704099814 9.00867838529 L3.747575683409991 9.016002603290008 L3.7538012694099905 9.026500650290007 L3.754533691409989 9.03480143229 L3.7533536784099795 9.047171223290025 L3.7490405274099885 9.056041666290003 L3.7401293944099905 9.053844400290007 L3.738094889409979 9.060354817290023 L3.734025879409984 9.064749348290025 L3.727922363409988 9.067190754290028 L3.719662272409977 9.067516275290007 L3.7015551764099826 9.053111978290008 L3.695329590409983 9.046357421289986 L3.693010254409984 9.03675455729 L3.69829996740998 9.023815103290008 L3.71001871740998 9.019664713290002 L3.721818847409992 9.018932291290003 L3.7271085614099775 9.016002603290008 Z M3.25416748040999 8.984996744290005 L3.268246256409981 8.983206379290028 L3.2863940434099845 8.987275390289984 L3.302141113409988 8.994599609290038 L3.308773600409978 9.002086588290002 L3.320126139409979 9.026500650290007 L3.380428874409972 9.105358072290006 L3.3688321944099755 9.113251952289989 L3.332048340409983 9.13213216129002 L3.318986816409989 9.135712890289984 L3.308651530409975 9.128714192290023 L3.3035245774099735 9.128714192290023 L3.3013273114099775 9.138968098290025 L3.298763834409982 9.144420572290006 L3.292375488409988 9.147919921289986 L3.2837491864099775 9.14971028629002 L3.2746752934099845 9.149384765289984 L3.255021972409992 9.13636393229 L3.244808756409981 9.10316080729 L3.2381762694099905 9.01136393229 L3.241716308409991 8.997041015289984 L3.25416748040999 8.984996744290005 Z M3.7066414394099922 8.954886067290023 L3.725358887409982 8.987275390289984 L3.723405762409982 8.992483723290025 L3.716569824409987 8.995494791290003 L3.708757324409987 9.002412109290038 L3.698747558409991 9.00941080729 L3.685482584409982 9.012828775290007 L3.679704590409983 9.000377603290008 L3.678890788409973 8.988577473290025 L3.681413574409987 8.976858723290025 L3.6906909184099845 8.952281900290007 L3.697770996409986 8.94105143229 L3.7039152024099735 8.939261067290023 L3.7066414394099922 8.954886067290023 Z M3.2746752934099845 8.875784504290028 L3.273088379409984 8.90784830729 L3.2696704104099865 8.920869140289984 L3.2603116864099775 8.916637369290005 L3.252377116409974 8.91175455729 L3.1982592774099885 8.888479817290023 L3.192521972409992 8.883271484290038 L3.192033691409989 8.87781901029 L3.196794433409991 8.841686197290006 L3.209164225409978 8.82972330729 L3.230241699409987 8.826956379290028 L3.2603116864099775 8.827281900290007 L3.256364746409986 8.837291666290003 L3.25416748040999 8.840953775290007 L3.2733325194099905 8.840221353290008 L3.2833422854099865 8.84144205729 L3.2876554364099775 8.844371744290005 L3.2889575194099905 8.849010416290003 L3.2942065434099845 8.856090494290005 L3.295101725409978 8.861461588290002 L3.291765137409982 8.866588541290003 L3.284725749409972 8.870983072290006 L3.2746752934099845 8.875784504290028 Z M2.952491048409996 8.724905598290025 L2.9691333014099826 8.719127603290008 L2.9793058274099735 8.730602213290002 L2.984554850409978 8.751110025290007 L2.985979004409984 8.77275716129002 L2.970272624409972 8.772594400290007 L2.9560717774099885 8.758597004290028 L2.948422038409973 8.739716796289986 L2.952491048409996 8.724905598290025 Z M8.345638834409982 8.354951171289986 L8.373552246409986 8.34697591129002 L8.39519938140998 8.360159504290028 L8.40415120440997 8.38441080729 L8.394060058409991 8.409557291290003 L8.365821126409998 8.40556966129002 L8.341162923409996 8.394013671289986 L8.330827637409982 8.376761067290023 L8.345638834409982 8.354951171289986 Z M16.034115397410005 2.673229166290004 L16.067725423409968 2.674124348290026 L16.082455241410003 2.678193359290039 L16.096208496409986 2.6873893222900067 L16.11248453841 2.7186393222900067 L16.11268798840996 2.7576204422900235 L16.09596435540999 2.7889518222900067 L16.061418457409957 2.7972526032900094 L16.047298991410003 2.7888704422900235 L16.039486491410003 2.7729199212899873 L16.03846923840996 2.7546907542900287 L16.05332112640997 2.72034830729 L16.051286621409986 2.70504882728999 L16.034115397410005 2.673229166290004 Z M15.650529785409958 2.1462923172900235 L15.663754069410004 2.150686848290026 L15.677263183409991 2.1599641922900235 L15.685157064409964 2.169322916290004 L15.68157633441001 2.17347330729 L15.677914225410007 2.175182291290004 L15.675310058409991 2.1791699212899873 L15.673194173409968 2.183889973290026 L15.671037597409963 2.18714518229 L15.66627685540999 2.1900748692900054 L15.656267090409983 2.19137695228999 L15.650529785409958 2.1939811192900054 L15.637061360409973 2.2084667962899873 L15.614437663410001 2.2469596352900014 L15.602149251409969 2.26168945228999 L15.589047038410001 2.244599609290039 L15.590227051410011 2.225719400290008 L15.593929850410007 2.206188150290008 L15.588477376409969 2.18714518229 L15.599056803410008 2.175100911290021 L15.612240397410005 2.1511751292900287 L15.629086100410007 2.135061848290026 L15.650529785409958 2.1462923172900235 Z M15.89633870440997 1.98792643229 L15.918881022410005 1.98629882728999 L15.914445801409954 1.995494791290004 L15.863664551409954 2.038382161290021 L15.840837402409988 2.0474967442900054 L15.816301269409962 2.0533561192900054 L15.777238769409962 2.0567740882900027 L15.723487142409965 2.055797525290008 L15.712012532409972 2.0531119782900094 L15.706682129409955 2.050182291290004 L15.694922689409964 2.0492057282900094 L15.683203939409964 2.0502636712899873 L15.677873535409958 2.0531119782900094 L15.677873535409958 2.0841178382900027 L15.670996907409972 2.100719400290008 L15.661556803410008 2.10153320228999 L15.647396647410005 2.0955924472900067 L15.606625163410001 2.0868847652899847 L15.589453939409964 2.0756542962899873 L15.57602620440997 2.0619824212899873 L15.568010254409955 2.050100911290021 L15.562598470409966 2.0369173172900235 L15.559668782409972 2.0209667962899873 L15.563493652409988 2.00778320228999 L15.594499512409982 1.99769205729 L15.681535644409962 1.9482128902899847 L15.717546387409982 1.9412141922900235 L15.748389485409973 1.9462597652899847 L15.76039306640996 1.9674186192900054 L15.771623535409958 1.9806022132900027 L15.790178222409963 1.9891471352900014 L15.811703288410001 1.9939485672900235 L15.832129720409966 1.9954134112900208 L15.855974121409986 2.001110025290008 L15.866228027409988 2.002249348290026 L15.877458496409986 2.000296223290026 L15.884904785409958 1.99573893229 L15.89056070941001 1.9910188792900287 L15.89633870440997 1.98792643229 Z M14.65618570941001 1.5702018222900067 L14.679053548409968 1.5930696612900208 L14.691504720409966 1.5977897132900027 L14.705217285409958 1.5907096352900014 L14.692277832409957 1.6209016922900235 L14.683977051410011 1.6549186192900054 L14.670020345409966 1.682750650290008 L14.640072428410008 1.6943066402899847 L14.621517741410003 1.6845410152899847 L14.574317220409966 1.6186230462899873 L14.593441569410004 1.604625650290008 L14.611467285409958 1.587047525290008 L14.631283366410003 1.5730501292900287 L14.65618570941001 1.5702018222900067 Z M15.218522949409987 1.1307486972900067 L15.229753418409985 1.1458040362900208 L15.224504394409962 1.1588248692900054 L15.209489746409986 1.1683463532900094 L15.19126057940997 1.172985025290008 L15.147315267409965 1.1762402342900389 L15.129818522410005 1.1837272132900027 L15.116146647410005 1.2009798172900235 L15.120215657409972 1.1860058592900389 L15.114885254409955 1.1717643222900067 L15.106706543409985 1.157604166290004 L15.102474772410005 1.14222330729 L15.136003418409985 1.1047884112900208 L15.143449707409957 1.1047884112900208 L15.150570475410007 1.1156933592900389 L15.15846435540999 1.1169954422900235 L15.17449625641001 1.1114615882900027 L15.185930176410011 1.1139029942900054 L15.218522949409987 1.1307486972900067 Z M14.683488769409962 1.06995768229 L14.710629069410004 1.0935579422900235 L14.716936035409958 1.1060904942900054 L14.718889160409958 1.1279003902899847 L14.713762207409957 1.1431998692900054 L14.701595866410003 1.1412467442900054 L14.677344564409964 1.125296223290026 L14.672380371409986 1.146780598290026 L14.656267090409983 1.1619986972900067 L14.636898600410007 1.1658235672900235 L14.622697754409955 1.1524772132900027 L14.615251465409983 1.1524772132900027 L14.60292236340996 1.163219400290008 L14.563005371409986 1.1762402342900389 L14.554379069410004 1.18356445228999 L14.549699707409957 1.2004915362900208 L14.538591308409991 1.1971549472900067 L14.525895996409986 1.1861686192900054 L14.505225423409968 1.17379882728999 L14.498145345409966 1.1596386712899873 L14.487728678410008 1.1136588532900094 L14.485490722409963 1.0941276032900094 L14.483334147410005 1.0854199212899873 L14.473975423409968 1.077281900290008 L14.471859538410001 1.06995768229 L14.485124512409982 1.0336621092900389 L14.516211751409969 1.0278027342900389 L14.64320556640996 1.04879882728999 L14.673926595409966 1.04879882728999 L14.68149495440997 1.0472526032900094 L14.695492350410007 1.03903320228999 L14.705217285409958 1.0357779942900054 L14.705176595409966 1.0404980462899873 L14.70338623040999 1.043264973290026 L14.700700683409991 1.0455436192900054 L14.693498535409958 1.053844400290008 L14.683488769409962 1.06995768229 Z M14.040463053410008 0.26185221329000274 L14.034034017409965 0.27576822829000935 L14.025082194410004 0.28651041629000407 L14.015153808409991 0.2880566402899847 L14.005754394409962 0.2748730462899873 L14.005144043409985 0.23825195228998997 L14.026547038410001 0.20985026029000142 L14.059750163410001 0.1969108072900001 L14.094499512409982 0.20651367128998732 L14.079851074409987 0.21758137929002874 L14.074602051410011 0.22018554628998732 L14.05726806640996 0.22352213529000142 L14.049007975410007 0.2320670572900001 L14.040463053410008 0.26185221329000274 Z M10.449154459409982 19.825979817290023 L10.444678548409996 19.831025390289984 L10.431576334409982 19.84217447829001 L10.428728027409988 19.846487629290028 L10.429379069409976 19.84730143229 L10.432634277409988 19.86683268229 L10.435482584409982 19.86756510329001 L10.428483887409982 19.879202473290025 L10.42018310540999 19.886852213290002 L10.409278157409972 19.88799153629002 L10.394548340409983 19.88050455729 L10.386328939409992 19.862112629290028 L10.384945475409978 19.832327473290025 L10.393490397409977 19.806041666290003 L10.415056152409988 19.797985025290007 L10.434750163409973 19.809703775290007 L10.442969564409992 19.81686523428998 L10.449154459409982 19.825979817290023 Z M15.883317871409986 14.11805338529 L15.80071695941001 14.11805338529 L15.821062012409982 14.110729166290003 L15.841325683409991 14.112682291290003 L15.86195556640996 14.117158202289989 L15.883317871409986 14.11805338529 Z M19.275407715409983 13.774791666290003 L19.207129720409966 13.733857421289986 L19.22914306640996 13.736298827289989 L19.24798258441001 13.743623046289986 L19.263566894409962 13.756236978290008 L19.275407715409983 13.774791666290003 Z M16.198015137409982 13.123668619290005 L16.21347737640997 13.107718098290025 L16.215593262409982 13.095999348290025 L16.192196452409974 13.036510416290003 L16.188249512409982 13.031464843289985 L16.18279703841 13.029348958290019 L16.164486491410003 13.034964192290023 L16.16863688141001 13.031627603290008 L16.178565267409965 13.027721353290008 L16.184017741410003 13.026744791290003 L16.190284017409965 13.027151692290023 L16.21315185540999 13.061331379290028 L16.220069173409968 13.104462890289984 L16.198015137409982 13.123668619290005 Z M18.418840332409957 10.81409830729 L18.419369303410008 10.812389322290006 L18.42018310540999 10.807750650290007 L18.419816894409962 10.801077473290025 L18.416846517409965 10.793102213290002 L18.41078369140996 10.785533853290008 L18.401628418409985 10.779430338290002 L18.38925862640997 10.774222004290028 L18.359025879409955 10.765432942290023 L18.349951985409973 10.761526692290023 L18.343889160409958 10.756969400290007 L18.338640137409982 10.75086588529 L18.330257975410007 10.74346028629002 L18.284034017409965 10.718639322290006 L18.271664225410007 10.715465494290005 L18.267473144409962 10.721080728290008 L18.267717285409958 10.728893228290008 L18.26865315740997 10.732799478290008 L18.26515380840999 10.728649088290002 L18.262956543409985 10.724580077289989 L18.26002685540999 10.721080728290008 L18.254330241410003 10.718639322290006 L18.274187012409982 10.711070963290002 L18.306779785409958 10.722138671289986 L18.33709391341 10.741018879290028 L18.350521647410005 10.75672526029 L18.402482910409958 10.774384765289984 L18.428158366410003 10.792451171289986 L18.418840332409957 10.81409830729 Z M14.060970866410003 10.663951822290006 L14.05808186841 10.660533853290008 L14.051937663410001 10.649059244290005 L14.03777750641001 10.637177734290038 L13.980852051410011 10.610729166290003 L13.96282633441001 10.597057291290003 L13.953630371409986 10.586315103290008 L13.95110758441001 10.582001952289989 L13.976742350410007 10.60047526029 L14.045834147410005 10.637340494290005 L14.054297689409964 10.649791666290003 L14.060970866410003 10.663951822290006 Z M17.761491699409987 10.60869466129002 L17.665300293409985 10.513072916290003 L17.690568847409963 10.524384765289984 L17.722673340409983 10.551158853290008 L17.750139160409958 10.582652994290005 L17.761491699409987 10.60869466129002 Z M13.910173340409983 10.464733072290006 L13.884538574409987 10.42933268229 L13.837419433409991 10.39580403629002 L13.814877116410003 10.354951171289986 L13.802629394409962 10.342418619290005 L13.759294433409991 10.307018228290008 L13.768449707409957 10.31336588529 L13.807756347409963 10.331513671289986 L13.834408366410003 10.37586588529 L13.855607910409958 10.39735026029 L13.881608887409982 10.416311848290025 L13.90297119140996 10.43714518229 L13.910173340409983 10.464733072290006 Z M12.155453288410001 9.868134765289984 L12.167741699409987 9.848440754290028 L12.093400879409955 9.779430338290002 L12.120459798409968 9.793753254290028 L12.155290527409988 9.818492838290002 L12.174740397410005 9.845999348290025 L12.155453288410001 9.868134765289984 Z M11.319353027409988 9.703746744290005 L11.295061035409958 9.685680338290002 L11.257951660409958 9.67705403629002 L11.276302897410005 9.676077473290025 L11.295264485409973 9.679983723290025 L11.310889485409973 9.688935546289986 L11.319353027409988 9.703746744290005 Z M9.352434082409985 9.73174153629002 L9.297787272409977 9.663951822290006 L9.313493652409988 9.673717447290006 L9.327328288409973 9.689749348290025 L9.352434082409985 9.73174153629002 Z M9.154436035409987 9.629853515289984 L9.146420084409982 9.617158202289989 L9.141537272409977 9.604462890289984 L9.139502767409994 9.589814452289989 L9.140031738409988 9.57158528629002 L9.154436035409987 9.629853515289984 Z M11.346696777409988 8.916637369290005 L11.278907064409964 8.871389973290025 L11.226742350410007 8.87391276029 L11.182227376409969 8.868948567290023 L11.268164876409969 8.861461588290002 L11.292334798409968 8.867565103290008 L11.312639160409958 8.88245768229 L11.346696777409988 8.916637369290005 Z M11.161760254409955 8.882620442290023 L11.112565918409985 8.878795572290006 L11.072852376409969 8.849010416290003 L11.031389160409958 8.827281900290007 L11.06666748040999 8.83525716129002 L11.123389485409973 8.876761067290023 L11.161760254409955 8.882620442290023 Z M10.915300293409985 8.78642903629002 L10.911475423409968 8.78447591129002 L10.88417236340996 8.739716796289986 L10.853125814409964 8.716197916290003 L10.818946126409969 8.704153645290024 L10.79868245440997 8.697073567290023 L10.80258870440997 8.696748046289986 L10.822567545409981 8.702119140289984 L10.85540445941001 8.706513671289986 L10.87094807940997 8.714000650290007 L10.900163574409987 8.745250650290007 L10.909929199409987 8.763154296289986 L10.915300293409985 8.78642903629002 Z M10.47645751940999 8.724905598290025 L10.474260254409984 8.704479166290003 L10.472062988409988 8.697643228290008 L10.441748860409973 8.662893879290028 L10.457211100409978 8.672333984290038 L10.472795410409987 8.68909830729 L10.481584472409992 8.708141275290007 L10.47645751940999 8.724905598290025 Z M10.359798991409974 8.58721028629002 L10.32679931640999 8.575979817290023 L10.30690185540999 8.579560546289986 L10.298356933409991 8.566702473290025 L10.30458251940999 8.567353515289984 L10.305762532409972 8.56922526029 L10.305192871409986 8.573375650290007 L10.320695801409983 8.56800455729 L10.336768392409994 8.571259765289984 L10.350603027409988 8.579072265289984 L10.359798991409974 8.58721028629002 Z M9.25062744140999 8.59461588529 L9.230648600409978 8.583385416290003 L9.203304850409978 8.52625651029 L9.179785970409995 8.49891276029 L9.15614501940999 8.449352213290002 L9.142513834409982 8.398408202289989 L9.126359863409988 8.376110025290007 L9.11903564440999 8.32703776029 L9.121965332409985 8.344127603290008 L9.129330241409974 8.367076822290006 L9.139543457409985 8.387177734290038 L9.150733235409973 8.395885416290003 L9.155778808409991 8.407604166290003 L9.164649251409998 8.459361978290008 L9.170834147409977 8.471080728290008 L9.17372314440999 8.47978841129002 L9.215837402409988 8.525686848290025 L9.23894938140998 8.582001952289989 L9.25062744140999 8.59461588529 Z M9.11903564440999 8.29969401029 L9.02406494140999 8.307262369290005 L9.075334472409992 8.289358723290025 L9.101660970409995 8.285126952289989 L9.11903564440999 8.29969401029 Z M12.203264160409958 8.354951171289986 L12.210832519409962 8.33094401029 L12.223161621409986 8.305797525290007 L12.237647298409968 8.283092447290006 L12.251644694410004 8.265595702289989 L12.203264160409958 8.354951171289986 Z M14.622697754409955 8.224010416290003 L14.615739746409986 8.208466796289986 L14.58969807940997 8.207327473290025 L14.560645345409966 8.224010416290003 L14.581234538410001 8.204479166290003 L14.607438965409983 8.20008463529 L14.625830892409965 8.207408853290008 L14.622697754409955 8.224010416290003 Z M9.565324707409985 8.197236327289989 L9.497006022409977 8.135224609290038 L9.512956543409985 8.145152994290005 L9.565324707409985 8.197236327289989 Z M9.675187988409988 8.148896484290038 L9.656429850409978 8.105439452289989 L9.603044433409991 8.024791666290003 L9.57216064440999 8.004853515289984 L9.599300944409976 8.009899088290002 L9.615373535409987 8.027477213290002 L9.640397949409987 8.07313151029 L9.66591064440999 8.10316080729 L9.674211426409983 8.12269205729 L9.675187988409988 8.148896484290038 Z M6.687150879409984 7.244518228290009 L6.678605957409985 7.231416015289985 L6.666643066409989 7.217906900290008 L6.6485766604099865 7.201793619290005 L6.622209472409992 7.18714518229 L6.556820475409978 7.168834635290001 L6.598812663409973 7.172008463290003 L6.643856608409976 7.18356445228999 L6.677914225409978 7.20667643229 L6.687150879409984 7.244518228290009 Z M6.1049161784099795 7.141490885290001 L6.0849780274099885 7.118541666290004 L6.0422534184099845 7.100556640289985 L6.065202637409982 7.103404947290007 L6.0923429364099775 7.111705728290009 L6.1101652024099735 7.12464518229 L6.1049161784099795 7.141490885290001 Z M9.537980957409985 6.908824869290005 L9.527482910409987 6.922008463290003 L9.509945475409978 6.93519205729 L9.49012939440999 6.945201822290007 L9.47251057940997 6.949108072290007 L9.46901123040999 6.936901041290004 L9.479672038409973 6.9099641922900235 L9.503272298409996 6.86715820228999 L9.48309000640998 6.917451171289987 L9.478125814409992 6.940074869290005 L9.499406738409988 6.935029296289987 L9.537980957409985 6.908824869290005 Z M8.47600992840998 6.744274088290003 L8.487159017409994 6.722789713290003 L8.493425293409985 6.702607421289987 L8.461768392409994 6.682262369290005 L8.489641113409988 6.686005859290039 L8.501156413409973 6.703583984290039 L8.496599121409986 6.725963541290004 L8.47600992840998 6.744274088290003 Z M9.729834798409996 6.757945963290003 L9.778256022409977 6.710257161290021 L9.822201334409982 6.686331379290029 L9.844865722409992 6.664928385290001 L9.819719238409988 6.674938150290008 L9.777035319409976 6.678844400290008 L9.729834798409996 6.689749348290026 L9.747819824409987 6.679088541290004 L9.770606282409972 6.672985025290008 L9.81512125640998 6.669241536290021 L9.835547689409992 6.659069010290001 L9.847836100409978 6.654755859290039 L9.853288574409987 6.658580728290009 L9.852312012409982 6.668916015289985 L9.849626465409983 6.674205728290009 L9.830176595409995 6.688935546289987 L9.797950032409972 6.706513671289987 L9.788184407409972 6.710094400290008 L9.778256022409977 6.7166048172900235 L9.747087402409988 6.747366536290021 L9.729834798409996 6.757945963290003 Z M8.886328939409992 6.613902994290005 L8.890316569409976 6.59339518229 L8.872738444409976 6.590953775290008 L8.81862060540999 6.59339518229 L8.874528808409991 6.584117838290003 L8.897478027409988 6.58948893229 L8.886328939409992 6.613902994290005 Z M17.994157715409983 13.563935546289986 L17.992692871409986 13.566783853290008 L17.990576985409973 13.566865234290038 L17.985979004409955 13.562958984290038 L17.98813557940997 13.562633463290002 L17.991960449409987 13.56377278629002 L17.994157715409983 13.563935546289986 Z M15.597551269409962 13.04652018229 L15.591447754409955 13.049938150290007 L15.588395996409986 13.051158853290008 L15.585059407409972 13.051728515289984 L15.597103678410008 13.04652018229 L15.597551269409962 13.04652018229 Z M10.626075032409972 8.970673827289989 L10.652849121409986 8.964000650290007 L10.66981689440999 8.977509765289984 L10.678850097409992 8.996471353290008 L10.682023926409983 9.006236978290008 L10.670101725409978 8.99541341129002 L10.657243652409988 8.977184244290005 L10.641781413409973 8.968639322290006 L10.622209472409992 8.986461588290002 L10.621517741409974 8.98206705729 L10.622412923409996 8.978486327289989 L10.626075032409972 8.970673827289989 Z" fill="black" stroke="black" stroke-width="0.5" vector-effect="non-scaling-stroke"/></svg>