<svg xmlns="http://www.w3.org/2000/svg" viewBox="0 0 38.61407226587994 38.93439941436003"><path d="M3.4020882159399832 5.907181803180041 L3.374663085939943 5.894649251180059 L3.3884163409399832 5.88838297518004 L3.4090869139399445 5.8917195631800645 L3.4020882159399832 5.907181803180041 Z M30.595935872939975 38.37324625618004 L30.578764648939995 38.37235107418002 L30.567045898939995 38.36738688118004 L30.55589680993998 38.36006266218004 L30.541411132939942 38.35281982418002 L30.525623372939975 38.34891357418002 L30.498116861939963 38.345414225180036 L30.486072590939983 38.339066569180034 L30.486072590939983 38.33223063118004 L30.529936523939995 38.32352294918002 L30.570870768939955 38.32808024118003 L30.623279622939975 38.366410319180034 L30.654855143939955 38.382523600180036 L30.666411132939942 38.395300293180014 L30.65737792993994 38.407425944180034 L30.643299153939978 38.40571695918004 L30.595935872939975 38.37324625618004 Z M29.445382486939963 38.174597168180014 L29.436430663939944 38.18810628218006 L29.423491210939943 38.19477945918004 L29.407622070939993 38.19461669918002 L29.390043945939993 38.18769938118004 L29.339506835939943 38.18769938118004 L29.315825195939993 38.18354899118003 L29.293689778939978 38.174597168180014 L29.313058268939955 38.153519694180034 L29.323881835939943 38.14790445918004 L29.341541340939983 38.14668375618004 L29.359038085939943 38.149613444180034 L29.39215983093996 38.15978597018005 L29.409819335939943 38.160925293180014 L29.441638997939975 38.154740397180035 L29.448637695939993 38.15840250618004 L29.445382486939963 38.174597168180014 Z M30.23981608093996 38.03071695918004 L30.225330403939978 38.03543701118002 L30.21051920593996 38.03730875618004 L30.19652180993998 38.033972168180014 L30.184477538939944 38.023881022180035 L30.291899413939944 37.985144043180014 L30.328357747939975 37.982865397180035 L30.328357747939975 37.98970133418004 L30.305734049939957 37.99995524118003 L30.292062174939957 38.02274169918002 L30.274321288939944 38.03934326118002 L30.23981608093996 38.03071695918004 Z M29.842436523939995 37.81766357418002 L29.849028320939993 37.80684000618004 L29.859282226939996 37.79975992818004 L29.87034993493998 37.79390055318004 L29.879627278939978 37.78706461618003 L29.914213867939992 37.75288492818004 L29.93512858093996 37.737097168180014 L29.963041992939992 37.72358805318004 L29.993234049939957 37.715287272180035 L30.02065917993994 37.715287272180035 L30.009184570939993 37.736446126180056 L29.977934570939993 37.75500081318006 L29.965402018939955 37.769974772180035 L30.04808430993998 37.75955810518002 L30.061593424939957 37.75972086618003 L30.056547851939996 37.774206543180014 L30.044584960939943 37.789831543180014 L30.030913085939943 37.80342203718004 L30.02065917993994 37.81164143818006 L29.98550292993994 37.82905680318004 L29.972075195939993 37.84142659518005 L29.975655924939957 37.855912272180035 L29.985096028939978 37.874711100180036 L29.972319335939943 37.88472086618003 L29.950102538939944 37.891394043180014 L29.961577148939995 37.900508626180056 L29.872791340939983 37.92541097018005 L29.856108398939995 37.917679850180036 L29.856108398939995 37.86616617818004 L29.853178710939943 37.85298258418004 L29.843901367939992 37.82482503218006 L29.842436523939995 37.81766357418002 Z M29.876616210939943 37.68810628218006 L29.881254882939942 37.70893961618003 L29.892241210939943 37.707800293180014 L29.897124023939995 37.71186930318004 L29.894194335939943 37.721146647180035 L29.886951497939975 37.72570393818006 L29.877999674939957 37.72944742818004 L29.869210611939963 37.73579508418004 L29.859607747939975 37.74995524118003 L29.84487792993994 37.77925211618003 L29.828194986939963 37.80024820918004 L29.816476236939963 37.809362793180014 L29.80386230493994 37.81424560518002 L29.79409667993994 37.81164143818006 L29.787342122939975 37.80220133418004 L29.79019042993994 37.799271647180035 L29.80190917993994 37.764440918180014 L29.800932617939992 37.76313883418004 L29.813058268939955 37.73758544918002 L29.831124674939957 37.712113444180034 L29.85309733093996 37.69331461618003 L29.876616210939943 37.68810628218006 Z M30.116280924939957 37.715287272180035 L30.09691243493998 37.70731201118002 L30.078683268939955 37.69551188118004 L30.063872070939993 37.67988688118004 L30.054757486939963 37.66011149118003 L30.087960611939963 37.66035563118004 L30.13630045593996 37.686722819180034 L30.170154622939975 37.68810628218006 L30.162504882939942 37.70112711618003 L30.149809570939993 37.709427897180035 L30.13394042993994 37.71382242818004 L30.116280924939957 37.715287272180035 Z M31.199125976939996 38.01427815718006 L31.218819986939963 38.050492350180036 L31.20628743493998 38.09793701118002 L31.173979492939992 38.13862711618003 L31.114165038939944 38.18769938118004 L31.042062174939957 38.179805501180056 L31.009672851939996 38.169144694180034 L30.986235351939996 38.18289794918002 L30.98159667993994 38.20015055318004 L30.961821288939944 38.20959065718006 L31.04409667993994 38.235144043180014 L31.11676920593996 38.27021891218004 L31.025948893939955 38.261429850180036 L30.93862792993994 38.27021891218004 L30.89370605493994 38.19103597018005 L30.79019042993994 38.16987711618003 L30.751616210939943 38.17866617818004 L30.713041992939992 38.189571126180056 L30.666655273939995 38.191117350180036 L30.62026855493994 38.18428141218004 L30.545642903939978 38.17256266218004 L30.472563476939996 38.180863444180034 L30.525135090939983 38.19819742818004 L30.575590820939993 38.222367350180036 L30.563139648939995 38.22676188118004 L30.550688476939996 38.23115641218004 L30.572823893939955 38.24767659518005 L30.595935872939975 38.263382975180036 L30.571684570939993 38.269974772180035 L30.548735351939996 38.274206543180014 L30.519194335939943 38.25288492818004 L30.490955403939978 38.22830810518002 L30.465727538939944 38.22261149118003 L30.445219726939996 38.235550944180034 L30.447661132939942 38.252396647180035 L30.465727538939944 38.28446044918002 L30.406482747939975 38.25410563118004 L30.342192382939942 38.235550944180034 L30.36481608093996 38.25874430318004 L30.394438476939996 38.27306722018005 L30.416248372939975 38.28771565718006 L30.424386393939955 38.30268961618003 L30.438872070939993 38.31001383418004 L30.452055663939944 38.31864013618002 L30.455717773939995 38.34248453718004 L30.46409993493998 38.36356201118002 L30.543120117939992 38.39131266218004 L30.627999674939957 38.40164794918002 L30.707263997939975 38.42573649118003 L30.787260742939992 38.448929850180036 L30.715564778939978 38.40457763618002 L30.699370117939992 38.35151774118003 L30.742908528939978 38.341507975180036 L30.78864420593996 38.336706543180014 L30.830310872939975 38.344519043180014 L30.87026855493994 38.35705159518005 L30.946196288939944 38.361446126180056 L30.974272460939943 38.40555419918002 L30.906971028939978 38.44591878218006 L30.815092773939995 38.448929850180036 L30.878650715939983 38.461381022180035 L30.926339518939955 38.485144043180014 L30.894601236939963 38.51655680318004 L30.842680663939944 38.51590576118002 L30.80394368493998 38.52371826118002 L30.773507486939963 38.544632975180036 L30.71833170593996 38.546097819180034 L30.662993163939944 38.52998453718004 L30.579008788939944 38.53267008418004 L30.505929361939963 38.510209147180035 L30.470935872939975 38.471879069180034 L30.438221028939978 38.434769694180034 L30.433256835939943 38.392696126180056 L30.42886230493994 38.35135498018002 L30.388823242939992 38.32987060518002 L30.342192382939942 38.33223063118004 L30.357491861939963 38.34639078718004 L30.355864257939942 38.366410319180034 L30.32339355493994 38.34370524118003 L30.287504882939942 38.335648600180036 L30.322416992939992 38.37560628218006 L30.365304361939963 38.41279703718004 L30.362700195939993 38.46805419918002 L30.314197590939983 38.49604899118003 L30.277088215939983 38.48791097018005 L30.242583007939942 38.475052897180035 L30.18122233093996 38.471879069180034 L30.120024413939944 38.46252034518005 L30.069243163939944 38.43273518818006 L30.023670247939975 38.39717203718004 L29.97614420593996 38.394242350180036 L29.931303710939943 38.393754069180034 L29.908354492939992 38.35314534518005 L29.877674153939978 38.319535319180034 L29.853911132939942 38.327347819180034 L29.86253743493998 38.34834391218004 L29.855620117939992 38.35054117818004 L29.848702799939957 38.35281982418002 L29.86839680993998 38.37674560518002 L29.882231445939993 38.40408935518002 L29.834379882939942 38.386429850180036 L29.79409667993994 38.345414225180036 L29.806059570939993 38.37283935518002 L29.81753417993994 38.40067138618002 L29.828276367939992 38.414831543180014 L29.804106445939993 38.42988688118004 L29.800932617939992 38.455196126180056 L29.76479980493994 38.43420003218006 L29.756092122939975 38.391394043180014 L29.735747070939993 38.37137451118002 L29.722563476939996 38.41279703718004 L29.754301757939942 38.475378418180014 L29.716866861939963 38.52209065718006 L29.675932617939992 38.54097086618003 L29.632231445939993 38.55268961618003 L29.621245117939992 38.54845784518005 L29.613188476939996 38.543737793180014 L29.597319335939943 38.54487711618003 L29.578520507939942 38.54650472018005 L29.529855143939955 38.54756266218004 L29.48200358093996 38.54829508418004 L29.441313476939996 38.541133626180056 L29.414783528939978 38.50605875618004 L29.415922851939996 38.48221435518002 L29.42690917993994 38.46162516218004 L29.428455403939978 38.423539225180036 L29.449125976939996 38.39578857418002 L29.47419108093996 38.36616617818004 L29.493071288939944 38.339066569180034 L29.472726236939963 38.31554768818006 L29.515532226939996 38.293412272180035 L29.55199055993998 38.262162272180035 L29.525541992939992 38.22798258418004 L29.519438476939996 38.19901123018002 L29.49722167993994 38.19445393818006 L29.456775715939983 38.19689534518005 L29.507475585939943 38.159379069180034 L29.574370117939992 38.153519694180034 L29.570952148939995 38.13634847018005 L29.574370117939992 38.11934000618004 L29.54214355493994 38.12755940718006 L29.486398111939963 38.134476725180036 L29.465076497939975 38.112504069180034 L29.482329101939996 38.10770263618002 L29.499907226939996 38.10574951118002 L29.443103840939983 38.07921956318006 L29.424060872939975 38.036820475180036 L29.414620768939955 38.019974772180035 L29.420642903939978 38.00679117818004 L29.436267903939978 38.021195475180036 L29.458891601939996 38.036820475180036 L29.508045247939975 38.00483805318004 L29.58120605493994 37.97602945918004 L29.504627278939978 37.98009847018005 L29.451404622939975 37.96235758418004 L29.474272460939943 37.94901123018002 L29.499907226939996 37.941849772180035 L29.460844726939996 37.941524251180056 L29.422270507939942 37.941849772180035 L29.426502278939978 37.92793375618004 L29.43089680993998 37.91401774118003 L29.399077148939995 37.90783284518005 L29.40583170593996 37.87869873018002 L29.444975585939943 37.871862793180014 L29.47769042993994 37.885209147180035 L29.463286132939942 37.847774251180056 L29.463530273939995 37.79617919918002 L29.51089355493994 37.79683024118003 L29.553374023939995 37.80578206318006 L29.528959960939943 37.77567138618002 L29.500639648939995 37.74751383418004 L29.473214518939955 37.72017008418004 L29.44839355493994 37.69559326118002 L29.442045898939995 37.67736409518005 L29.465564778939978 37.66906331318006 L29.506010742939992 37.652787272180035 L29.547107747939975 37.65392659518005 L29.54840983093996 37.63244222018005 L29.553292643939955 37.61242268818006 L29.58161295593996 37.59728597018005 L29.585030924939957 37.56750081318006 L29.570952148939995 37.553910319180034 L29.588611653939978 37.529740397180035 L29.607084960939943 37.50255940718006 L29.665922851939996 37.48563232418002 L29.72573730493994 37.489457194180034 L29.711007486939963 37.50215250618004 L29.732573242939992 37.523555501180056 L29.72573730493994 37.54406331318006 L29.76675292993994 37.55773518818006 L29.633208007939942 37.62959391218004 L29.558500976939996 37.725052897180035 L29.57339355493994 37.71504313118004 L29.587553710939943 37.70438232418002 L29.610747070939993 37.69982503218006 L29.636381835939943 37.70845133418004 L29.623930663939944 37.67443440718006 L29.65778483093996 37.66385498018002 L29.670561523939995 37.68810628218006 L29.724516601939996 37.621537272180035 L29.800932617939992 37.585648600180036 L29.824614257939942 37.58768310518002 L29.83909993493998 37.60412190718006 L29.80386230493994 37.62365315718006 L29.75934733093996 37.63960367818004 L29.786853840939983 37.662552897180035 L29.814604492939992 37.63960367818004 L29.81403483093996 37.67720133418004 L29.780994465939983 37.71186930318004 L29.730864257939942 37.737504069180034 L29.704741210939943 37.777461751180056 L29.732573242939992 37.76232503218006 L29.761788736939963 37.75019938118004 L29.734038085939943 37.80447998018002 L29.672514648939995 37.84126383418004 L29.65778483093996 37.878617350180036 L29.650053710939943 37.92150472018005 L29.684640299939957 37.93143310518002 L29.718413085939943 37.941849772180035 L29.707182617939992 37.87023518818006 L29.756010742939992 37.82449951118002 L29.794015299939957 37.83947347018005 L29.819405924939957 37.87462972018005 L29.823963215939983 37.910599772180035 L29.828764648939995 37.94168701118002 L29.86481608093996 37.952347819180034 L29.896879882939942 37.94071044918002 L30.002348632939942 37.91206461618003 L30.088286132939942 37.84565836618003 L30.101225585939943 37.86095784518005 L30.107654622939975 37.87959391218004 L30.099028320939993 37.90002034518005 L30.087960611939963 37.90994873018002 L30.10277180993998 37.920039876180056 L30.121814778939978 37.91230875618004 L30.171619465939983 37.82645263618002 L30.23981608093996 37.783646647180035 L30.23940917993994 37.81082763618002 L30.248198242939992 37.837113444180034 L30.266346028939978 37.84565836618003 L30.232329101939996 37.85933024118003 L30.218494465939983 37.87983805318004 L30.268299153939978 37.879024251180056 L30.308012695939993 37.89350992818004 L30.276437174939957 37.90685628218006 L30.232329101939996 37.92150472018005 L30.294340820939993 37.931351725180036 L30.294340820939993 37.955521647180035 L30.23745605493994 37.96447347018005 L30.181059570939993 37.969193522180035 L30.158273111939963 37.962113444180034 L30.135161132939942 37.95527750618004 L30.050200195939993 37.94477945918004 L29.990141601939996 37.98140055318004 L29.962553710939943 37.99800211618003 L29.93276855493994 38.015336100180036 L29.947335611939963 38.02632242818004 L29.974353840939983 38.015336100180036 L30.002104492939992 38.00190836618003 L30.070219726939996 37.967972819180034 L30.122465820939993 37.982865397180035 L30.077543945939993 38.00028076118002 L30.031319986939963 38.01362711618003 L30.095773111939963 38.02729899118003 L30.088041992939992 38.04617919918002 L30.122465820939993 38.05106201118002 L30.146228840939983 38.070756022180035 L30.184477538939944 38.07100016218004 L30.184477538939944 38.07482503218006 L30.184477538939944 38.07840576118002 L30.12222167993994 38.08491617818004 L30.061593424939957 38.10574951118002 L30.146391601939996 38.10086669918002 L30.231108398939995 38.09590250618004 L30.306791992939992 38.08507893818006 L30.37620930993998 38.07840576118002 L30.314116210939943 38.115352376180056 L30.232329101939996 38.13309326118002 L30.299223632939942 38.13992919918002 L30.36253743493998 38.137894694180034 L30.401274413939944 38.11242268818006 L30.438221028939978 38.08524169918002 L30.44261555993998 38.10330810518002 L30.452055663939944 38.11934000618004 L30.47972493493998 38.08979899118003 L30.511137695939993 38.071488444180034 L30.507719726939996 38.05431722018005 L30.504057617939992 38.04015706318006 L30.525541992939992 38.035599772180035 L30.54808430993998 38.036820475180036 L30.547758788939944 38.01850992818004 L30.568429361939963 38.01134847018005 L30.591541340939983 38.005977376180056 L30.606027018939955 37.99051513618002 L30.643217773939995 37.97814534518005 L30.682036132939942 37.96577555318004 L30.740304361939963 37.95210367818004 L30.801420898939995 37.969193522180035 L30.797596028939978 37.98009847018005 L30.793364257939942 37.99043375618004 L30.844308268939955 37.987992350180036 L30.885486653939978 37.96349690718006 L30.923247070939993 37.90750732418002 L30.986235351939996 37.88504638618002 L31.058500976939996 37.88740641218004 L31.127348632939942 37.904414876180056 L31.172270507939942 37.926957194180034 L31.17886230493994 37.97602945918004 L31.199125976939996 38.01427815718006 Z M29.321033528939978 37.45527750618004 L29.331775715939983 37.46748453718004 L29.318266601939996 37.47635498018002 L29.294340820939993 37.479691569180034 L29.273344726939996 37.47521565718006 L29.260405273939995 37.46870524118003 L29.276274413939944 37.46089274118003 L29.302641601939996 37.45527750618004 L29.321033528939978 37.45527750618004 Z M29.458891601939996 37.434769694180034 L29.440336913939944 37.446976725180036 L29.430327148939995 37.43582763618002 L29.431303710939943 37.41564534518005 L29.445382486939963 37.400101725180036 L29.468901367939992 37.39774169918002 L29.481108398939995 37.40848388618002 L29.478911132939942 37.42378336618003 L29.458891601939996 37.434769694180034 Z M12.484444986939963 35.20771891218004 L12.494861653939978 35.21382242818004 L12.503081054939997 35.22163492818004 L12.518461913939944 35.24132893818006 L12.473784179939997 35.28234456318006 L12.43903483093996 35.27697347018005 L12.422433268939955 35.27632242818004 L12.408598632939942 35.28234456318006 L12.378813476939996 35.278519694180034 L12.355864257939942 35.26867268818006 L12.337065429939997 35.25353597018005 L12.31989420593996 35.23506266218004 L12.306791992939992 35.209427897180035 L12.317778320939993 35.19461669918002 L12.38630045593996 35.15848388618002 L12.409819335939943 35.16043701118002 L12.428374023939995 35.173946126180056 L12.435942382939942 35.19722086618003 L12.443266601939996 35.20340576118002 L12.459379882939942 35.20633544918002 L12.484444986939963 35.20771891218004 Z M10.825834960939943 34.89578857418002 L10.839995117939992 34.887894694180034 L10.918364257939942 34.87479248018002 L10.931710611939963 34.889115397180035 L10.943429361939963 34.907425944180034 L10.948637695939993 34.92752685518002 L10.942534179939997 34.94705810518002 L10.927967122939975 34.95812581318006 L10.911040038939944 34.958207194180034 L10.873605143939955 34.94705810518002 L10.851469726939996 34.944535319180034 L10.836658528939978 34.93428141218004 L10.828357747939975 34.917679850180036 L10.825834960939943 34.89578857418002 Z M38.15404134093998 26.654577636180026 L38.194243163939944 26.65132242818004 L38.22500488293994 26.674597168180018 L38.23550292993994 26.705277506180042 L38.21556477893998 26.724239095180057 L38.18691894593999 26.732214355180023 L38.154936523939995 26.713496907180062 L38.13784667993994 26.682735188180065 L38.15404134093998 26.654577636180026 Z M38.18317545593996 27.540238444180037 L38.195545247939975 27.554479980180023 L38.19961425793994 27.56221110018004 L38.19497558593994 27.568558756180042 L38.186430663939944 27.569535319180037 L38.166655273939995 27.56652425118006 L38.162749023939995 27.56099039718004 L38.156808268939955 27.54422607418002 L38.16120279993996 27.53682047518004 L38.16934082093999 27.533483886180026 L38.17780436193996 27.53682047518004 L38.18317545593996 27.540238444180037 Z M1.030017903939978 11.154984537180045 L1.029448242939992 11.145951334180044 L1.0357958989399947 11.148881022180039 L1.0362841799399973 11.170528157180062 L1.0189501959399934 11.193640136180026 L0.9991748049399973 11.19656982418002 L0.9894091799399973 11.19071044918002 L0.9820849609399431 11.179154459180044 L0.9798876959399934 11.162308756180042 L0.9867236329399987 11.151566569180037 L0.9982796229399753 11.14814860018004 L1.0089404299399973 11.147090657180062 L1.0145556639399445 11.150020345180057 L1.017485351939996 11.160762532180062 L1.0137418619399625 11.165970866180036 L1.0088590499399572 11.169714355180023 L1.0055224609399431 11.176062011180026 L1.0113818359399431 11.181921386180026 L1.0243212889399445 11.180782063180065 L1.031971028939978 11.170121256180042 L1.030017903939978 11.154984537180045 Z M0.37856933594 10.275671386180026 L0.37938313794003875 10.272985839180027 L0.3814176439399546 10.275264485180006 L0.37856933594 10.275671386180026 Z M15.164783528940035 4.720658366179979 L15.171212564939964 4.716263834179987 L15.171619465939983 4.725134277180022 L15.164783528940035 4.720658366179979 Z M7.938221028940035 0.3966023761800592 L7.949858398939938 0.38170979818000106 L7.956694335940057 0.40099690718006187 L7.938221028940035 0.3966023761800592 Z" fill="black" stroke="black" stroke-width="0.5" vector-effect="non-scaling-stroke"/></svg>