<svg xmlns="http://www.w3.org/2000/svg" viewBox="0 0 5.919491730300049 6.384538229912082"><path d="M4.657034890649994 0.22403068705802154 L4.657344948649991 0.2840011860580236 L4.65383095165002 0.3161439270580533 L4.643599018649963 0.3401217920580595 L4.607942279649974 0.3597846740580084 L4.6019478136500265 0.3643580390579646 L4.583757709649985 0.38425346605795907 L4.578486713650063 0.38792249205795626 L4.5693916606499965 0.39151400405802717 L4.56908160265 0.3999372620580206 L4.574766010650036 0.41866996905800447 L4.572698952649985 0.4287727120579663 L4.567531309649992 0.4357490300579516 L4.560916726649976 0.44197604005804036 L4.554198790649975 0.450011725058022 L4.547377501650017 0.4616389220579893 L4.540659564649998 0.4772968820579453 L4.5287739846500426 0.4807075260579725 L4.524639870650033 0.485255052057997 L4.537558978650038 0.5029800680580112 L4.545620501650019 0.5210409820580284 L4.55078814565003 0.528508226058054 L4.554922259649954 0.5403421290579788 L4.55347531964996 0.556361823058015 L4.5431400336499745 0.5930779280579972 L4.5354919216500615 0.6081416080579944 L4.525259988650005 0.6214482890580117 L4.512650938649967 0.6287863420579956 L4.51998899164998 0.645942919058061 L4.517095111649992 0.6634353910580191 L4.510273822650033 0.6822197740580154 L4.506449766649991 0.7032779200579458 L4.512444232650024 0.7488048570580079 L4.50924029365005 0.7728343980580408 L4.492083718649992 0.7926264710580173 L4.508413471650028 0.8216686260580022 L4.526913633650038 0.847248460057958 L4.533734923650014 0.8398328920579448 L4.545103737649994 0.8485403710580104 L4.552131732650009 0.8603484360580214 L4.553371967649936 0.8740168520579377 L4.547377501650017 0.8882020330579823 L4.567944721649992 0.8987181870580403 L4.585928119649976 0.9470873280579926 L4.6019478136500265 0.9571125550580066 L4.6009142846500435 0.9654582990579743 L4.602257871650023 1.0127422350580164 L4.601637754649955 1.0209071110580399 L4.6020511666499555 1.028581061058023 L4.605358457649954 1.0352989970580526 L4.613730040650024 1.0474429590579635 L4.611559629650044 1.052713955057985 L4.605461810649997 1.0562279520580407 L4.5960566996499335 1.0762784080579908 L4.581794004650062 1.0858902250579976 L4.564844134650043 1.0916779850579732 L4.55078814565003 1.0936416890580065 L4.5428299746499885 1.100256273057997 L4.539109271649961 1.114208909057996 L4.5316678656499345 1.1265079000580331 L4.512650938649967 1.1284716050579706 L4.52277951865001 1.137359951057991 L4.534768451649979 1.142217535057998 L4.544276914649982 1.1486254140580345 L4.547352457649977 1.162465350058031 L4.547377501650017 1.1625780500580336 L4.557919493649974 1.163973314058015 L4.578280006650017 1.1607176990580288 L4.612696511649956 1.1633015200579453 L4.633367084649974 1.1590640520579885 L4.651660540649955 1.151105882058022 L4.670264057649986 1.1283682520580416 L4.688454161650027 1.125784430057951 L4.705404030650028 1.1212369040579975 L4.711811908649976 1.1035118880579833 L4.719873431649985 1.096018805057955 L4.739407123649995 1.0906444570579938 L4.761214577650021 1.088163988058017 L4.776407448650032 1.0895592510579948 L4.811340717650024 1.1020132710579875 L4.842243223650014 1.1079560620579971 L4.872422259650035 1.107801032058052 L4.905908587650016 1.1015998600579766 L4.918827696650039 1.0922981020580411 L4.9416686796499345 1.0616023020579948 L4.977532123649992 1.0476496650580063 L4.990554583650022 1.0369526440580077 L5.0047139266500675 1.0277025620579852 L5.024557677650064 1.0258938870579928 L5.033962786650006 1.0263072980580037 L5.043161192650002 1.0256871810580352 L5.061558001650026 1.0223023740580177 L5.068017556649961 1.0190984360580475 L5.080006488650026 1.009719164058001 L5.086827777649985 1.0071353410580062 L5.091892067650049 1.0081688700579892 L5.103570941650032 1.0137757640579994 L5.106568174650034 1.014809292057993 L5.117316872650049 1.0107526920579804 L5.12062416464998 1.0085822820579895 L5.132819802649989 0.9846560930579957 L5.142224913650024 0.9588178780579741 L5.14305173564996 0.9540636460579779 L5.157211078650006 0.9506530010580465 L5.34603676265 0.9682488260580331 L5.363296690649987 0.972072883057979 L5.381486794650028 0.9829507710580319 L5.3962662536500385 0.9974460110579773 L5.411975889650035 1.008685635058018 L5.433163226649993 1.0099775450579815 L5.468923318649997 0.9961541000580101 L5.486906716650067 0.9915032210579571 L5.506957171650027 0.9934669250579904 L5.546334613650016 1.0042414620580078 L5.555016254649997 1.010132575058012 L5.561424131649927 1.016772996058012 L5.568968891649986 1.0222506980580053 L5.580854469650019 1.0245244620580283 L5.582405851650021 1.0300706500579966 L5.583955056649968 1.0356090560580387 L5.592533343649974 1.0411384350580337 L5.603902159649989 1.0458926660580263 L5.614650856649986 1.0542642480580073 L5.620645322650018 1.0654263580580365 L5.635528135650061 1.1278514880580022 L5.6382153106500095 1.1539997620580098 L5.6371817816500265 1.2294473540579989 L5.6453466576500215 1.254975511058038 L5.660952940650061 1.27585278905801 L5.708908669649999 1.2979703030580256 L5.722551247650001 1.318330818058047 L5.738157530649955 1.369490485057955 L5.7492162866499665 1.3928482320580033 L5.763272276649969 1.4147590390580436 L5.780015440650017 1.4344994370580113 L5.799032367649984 1.4518110420580146 L5.822906878649986 1.4638516500579928 L5.830554991649974 1.4718614970579753 L5.8286946396500365 1.4854523990580506 L5.819496234649945 1.494754157057986 L5.807610654650018 1.5018338280580141 L5.800065895649977 1.509947028058011 L5.803476540650008 1.5222976950579752 L5.8100911246499845 1.5688581610580203 L5.775881325649989 1.610044277058012 L5.7297859486499885 1.6495767480579562 L5.700847146650018 1.6911762760579623 L5.697849912649998 1.742490973058 L5.691235329650011 1.763885016058015 L5.6171313266499805 1.8279637920580174 L5.613410622650049 1.8332347890579572 L5.607726215650002 1.8373689030579814 L5.594290343650057 1.8425365460579886 L5.544060850650011 1.8452237200580188 L5.48794024465006 1.8389191960580038 L5.438434222650001 1.8456371320580192 L5.408048480649951 1.8878051010579813 L5.419313942650019 1.9086823790579674 L5.425515115650013 1.9291462470580174 L5.421587705650024 1.9498168190580318 L5.402880837650043 1.9713142150579759 L5.3289835396499665 2.012035244057944 L5.307692849649994 2.034669522057985 L5.272242816650062 2.114147875057984 L5.238239723650009 2.164790778058037 L5.2336921986499885 2.1886652890580254 L5.238653135650038 2.213780036057958 L5.248368305649974 2.244785895057976 L5.253122537649956 2.2691771710580073 L5.257360003650019 2.3414208240579373 L5.263871235649999 2.3482421130579954 L5.27555010865005 2.348552171058063 L5.287539040650001 2.3507225820579722 L5.295393858650057 2.3630215720580057 L5.293843564650031 2.373460212058038 L5.279684223649992 2.391753669058008 L5.2754467556500355 2.4016755440580115 L5.277410460649959 2.4163516500579933 L5.28257810364998 2.427513759058019 L5.283611631649945 2.4380557520579944 L5.273172992650002 2.450974860058 L5.26294105965003 2.4606900290580316 L5.2505205276499805 2.477176675057993 L5.205166807650029 2.5373778540580676 L5.194624815649986 2.562182542058014 L5.193694639650017 2.5905012280580055 L5.239893370649964 2.645588304058069 L5.245887836649997 2.650032477057994 L5.252295713649955 2.6487922430579576 L5.265524880650032 2.6439346580580323 L5.2697623476499995 2.639490485058022 L5.272449522650005 2.632255784058049 L5.2762735786499615 2.6256412010579626 L5.284025042649956 2.622954026058028 L5.3197851346499885 2.627088141058042 L5.32950030365002 2.6309121970579983 L5.337561827650019 2.6376301340580173 L5.344796527649988 2.6473453030579637 L5.381176736649975 2.637733487058046 L5.421277647650056 2.6439346580580323 L5.457864561649997 2.661711351057963 L5.483909483649979 2.6872395090579917 L5.500756000649956 2.721449307057998 L5.513054990649989 2.761550218057994 L5.520393044649991 2.8027880110579875 L5.522150043650056 2.8402017480579675 L5.538996560650032 2.831210049058018 L5.5555330186500225 2.825525641057968 L5.572689594649985 2.825422288058039 L5.590983051649955 2.8328636950579695 L5.607209450649988 2.836687751057997 L5.622505674649927 2.8315201070580005 L5.638008604650038 2.8241820540580025 L5.655165179650011 2.821494879058068 L5.683070453649988 2.829556403057967 L5.721104307650007 2.8464029200579435 L5.754797341649988 2.8674869040579725 L5.776914854649972 2.8972525290579685 L5.81670570765 2.9246410390580055 L5.829004697650033 2.9377668530579686 L5.852465798650014 2.986032640057988 L5.861457497650049 3.0160049700580234 L5.854636208650005 3.048457770058039 L5.814018532649966 3.136307705058005 L5.808437477649944 3.160802334057965 L5.808644183650001 3.185400316057954 L5.81536212065002 3.21082512005805 L5.8195995876499875 3.2412108620580145 L5.8083341256500045 3.262604906058019 L5.7906607846500275 3.282035244058011 L5.775261208650035 3.306633226057986 L5.769990212649999 3.3295775610580196 L5.76502927464996 3.3727790590579647 L5.754487282650002 3.3940697490580365 L5.7542805766500305 3.4084357980579543 L5.78280596764999 3.4868806220580555 L5.7934513126499905 3.508481371058028 L5.796861957649993 3.5201602450580114 L5.796035134650067 3.5287385320580316 L5.79045407964996 3.5459984600580188 L5.790764138650031 3.554576748058057 L5.797792132649972 3.56677238605798 L5.801901799649995 3.570821616057987 L5.818876117649991 3.587546311058009 L5.826627582650003 3.600465420058018 L5.828281228650026 3.6094571200580563 L5.827247699650043 3.6406696840580426 L5.823216937649972 3.6630972560579553 L5.8195995876499875 3.6727090720579585 L5.814018532649966 3.6832510650580192 L5.806783832649996 3.6914159410579432 L5.798515603650044 3.697823819057976 L5.791590960650053 3.705058519058045 L5.788800433650023 3.7161172750580422 L5.794794900650045 3.735237555058038 L5.809471006649927 3.7504304260579775 L5.844610980649987 3.7736848210579867 L5.850192035649981 3.7944587470580333 L5.843060687649951 3.805930915058045 L5.830348285650002 3.8140957910580684 L5.8187727646500615 3.825257901057998 L5.815155414649963 3.8346630110579585 L5.813501768650026 3.8587442280580038 L5.800892719650006 3.8876830300579743 L5.814018532649966 3.9007054910580083 L5.825180642650009 3.918688890057996 L5.82559405365002 3.933778409057996 L5.792831195650008 3.939979580058068 L5.7864233186500496 3.9486612210579355 L5.782392556649979 3.960236741057986 L5.775674620650035 3.9703653220580324 L5.766166156649957 3.977289965058009 L5.756761045650007 3.981940843057973 L5.736297178649961 3.989175543058042 L5.727305479650012 3.997133714057998 L5.733920062649998 4.004575120058025 L5.7533504006499765 4.015427171058068 L5.76544268664996 4.055941494057979 L5.7824959096499935 4.061212490058015 L5.8035798936500225 4.064726488057975 L5.811228005649992 4.071341071057976 L5.787663552650015 4.085603766057947 L5.775571267650021 4.099039639057995 L5.769163389649988 4.120640388057968 L5.766062803650028 4.200325446058006 L5.7599649846500665 4.226060309058003 L5.7593448676499985 4.234535244058012 L5.766992979649997 4.278150153057968 L5.759758279650027 4.291896084057999 L5.7331965926500015 4.306365485058027 L5.731037480649958 4.307208800057982 L5.614650856649986 4.352667568057999 L5.607519509649974 4.359902269057972 L5.60255857165002 4.367343675057999 L5.600078102650043 4.376232021058005 L5.600594867649972 4.387704189058017 L5.595323870650033 4.397109300057981 L5.595943988650005 4.403310472058056 L5.601111631650026 4.408478115057978 L5.609276508650039 4.414472581057996 L5.6141340926499606 4.422947516058006 L5.613100563649978 4.432869391057995 L5.606485980649991 4.452609789057963 L5.600904925650054 4.505319750057982 L5.596254046650001 4.519582444058049 L5.589432758650032 4.526403734058011 L5.5721728296500554 4.532501553057973 L5.5667984806500055 4.537255785057969 L5.565661599649998 4.54707430705793 L5.571862771649974 4.564954352057985 L5.571656065650002 4.572292406057986 L5.558323546649985 4.58686515905794 L5.524010394650061 4.599370857058037 L5.510471169649987 4.609912848058006 L5.513675108649961 4.644122647058001 L5.589432758650032 4.708201423058004 L5.596874164649973 4.740034105057962 L5.592533343649974 4.737243578058003 L5.544784320650008 4.748405687058028 L5.534862445650004 4.7529532130579675 L5.525767393649955 4.759051032057929 L5.5066471136499455 4.775277431057933 L5.498482237650036 4.783855720057961 L5.493934710650008 4.793984300058018 L5.494348122650008 4.820235928058043 L5.487320127649992 4.8289175680580065 L5.477708311649975 4.836462327058047 L5.469233376649994 4.845350674057972 L5.463020438649989 4.863153130057999 L5.458484678649979 4.876149827057947 L5.452490212650032 4.883694586057988 L5.443395159649965 4.885038173058053 L5.4334732856499794 4.880904059058029 L5.418073708649997 4.872015713058008 L5.408048480649951 4.871188890057997 L5.401743956650035 4.872325772057994 L5.355751931649946 4.886691820058008 L5.348103818649987 4.88658846705798 L5.341695941650029 4.8806973540579754 L5.338698708650027 4.862403897058005 L5.32950030365002 4.855685960057986 L5.3197851346499885 4.855685960057986 L5.310173317650067 4.860026781058057 L5.292913389649966 4.870465420058 L5.27193275764999 4.874806240058067 L5.247438129650005 4.873566006058031 L5.224597146650025 4.86602124705799 L5.208267393649988 4.851655199057991 L5.209404274649996 4.846694261058037 L5.210127745649983 4.808143643058049 L5.217569151650009 4.7993586490580675 L5.238343076649967 4.788920010058039 L5.252502419649984 4.758740974058032 L5.264387998650035 4.7514029200580445 L5.268625465650059 4.744891689057983 L5.254982888649961 4.726288174058016 L5.244647602649975 4.718950121058018 L5.234105609649999 4.713885831057954 L5.226354144649987 4.7065477760580485 L5.223046853649988 4.678745856058004 L5.216328916650054 4.668927334058029 L5.198035459649999 4.650323819057977 L5.185736469650051 4.6319270090579785 L5.162998838650067 4.585521572057974 L5.153903786650018 4.544180427057942 L5.145222145650036 4.523096442058009 L5.133129860649957 4.5041828680579705 L5.119383930650015 4.490953702057983 L5.108841937649954 4.483408942058023 L5.10563799864998 4.482168707057998 L5.10336423565006 4.487543057058051 L5.082486957650003 4.518652269057998 L5.071944964650028 4.5385993720580196 L5.069257790650012 4.549658128058031 L5.067707497649975 4.569398526057999 L5.064038470650003 4.5798371640580235 L5.055976947649993 4.5909992740579675 L4.9799092396500395 4.664689867057991 L4.973191302649992 4.675025153057991 L4.970297423650022 4.696212490058048 L4.965853249650008 4.705100836058055 L4.95582802264998 4.711922126058017 L4.931953510649988 4.719570237057997 L4.920067930650061 4.725564704058019 L4.910146055649973 4.734453051057944 L4.895573301650002 4.75274650705801 L4.88709836765001 4.76111809005798 L4.854645567649994 4.783545661057975 L4.844723691650001 4.793157477057992 L4.839245990650012 4.802769293057995 L4.836455463650038 4.81207105205802 L4.831907937650028 4.820132575058015 L4.821365944649967 4.826127041057948 L4.816198301649946 4.824473395057996 L4.807826719649979 4.812174404057959 L4.801418842650021 4.8105207590580115 L4.787362852650018 4.814861579057993 L4.782195209649997 4.81475822605805 L4.7604911086500135 4.811244228058005 L4.741267475649989 4.815998460058001 L4.723490782650044 4.8139314030580245 L4.549134499649979 4.749232510057954 L4.539315977650018 4.747062100058063 L4.527740456649964 4.748612392057982 L4.5086201766500675 4.759774502058011 L4.497664773650014 4.762048265058031 L4.476787494650024 4.756983974057963 L4.412295307650011 4.72773511405801 L4.38749061965005 4.723290941058 L4.3745715116500445 4.727114996057953 L4.3564751356499425 4.745211373057959 L4.344909239649992 4.756777269058009 L4.3314733666500285 4.757500739058006 L4.328579486649955 4.751506273057974 L4.3337471306500515 4.742204515058038 L4.344909239649992 4.732799404057989 L4.349560118650045 4.725771409057987 L4.353590879649955 4.717399827058006 L4.356381406650014 4.7086148340580145 L4.35710487765 4.700036546057991 L4.359171934650062 4.689907966058033 L4.364752988649981 4.6817430890580205 L4.373124570650061 4.6728547420579964 L4.3706441026499885 4.661589281058031 L4.365889870650006 4.660555752058048 L4.359792051650045 4.660762457058016 L4.352660703650015 4.653114346058036 L4.349973529650056 4.645052822057952 L4.344909239649992 4.6180777250580185 L4.335504128649957 4.606605557058007 L4.316797260649976 4.576013109057985 L4.308115618650005 4.56753817405799 L4.283827695650002 4.579940517057967 L4.269565000650017 4.580457282057996 L4.265224180650035 4.562680589057965 L4.264500710650038 4.5523453030580505 L4.260676654649997 4.545317308058049 L4.2475508406499625 4.532501553057973 L4.24517372465 4.525886970057972 L4.24693072364998 4.519582444058049 L4.2511681906500325 4.512037685058008 L4.253028542650027 4.507283454058015 L4.2569559516499975 4.500668871058014 L4.25757606964997 4.494881110058035 L4.238765847649956 4.490023526058028 L4.236595436650061 4.484855883058021 L4.237628965650044 4.478861416057999 L4.237628965650044 4.474210537058031 L4.239385964650024 4.473797125058017 L4.235458555649968 4.450956142058008 L4.231014381649954 4.444961676057989 L4.2154081006500075 4.429665453058025 L4.209620339649957 4.422327399058023 L4.20062863964999 4.40114006205798 L4.17861448065001 4.328586351057968 L4.167038958649966 4.304195075058036 L4.15019244164999 4.292619554057996 L4.107921120650003 4.278976976057979 L4.103481206649986 4.275760968057984 L4.037434467649957 4.2279206600580075 L3.994853087649984 4.210247321058009 L3.9456571236500064 4.211590908057975 L3.9349084256499918 4.215518317058031 L3.885919167649986 4.248384528057972 L3.879821348650024 4.254068935058019 L3.874860410649985 4.260580166057981 L3.8687625916500235 4.273292568058029 L3.867005593650033 4.281974209057996 L3.866282123650036 4.292826260058039 L3.8619413026499796 4.302954841058 L3.8490221956499635 4.309982836058001 L3.831452207650001 4.304505133058019 L3.8124763116500286 4.284386876058054 L3.8005497006499933 4.27174227605801 L3.7893875916499677 4.269158454058019 L3.7855635356500112 4.282697679057993 L3.793935118649996 4.39049471705798 L3.8025134056500303 4.430905687057962 L3.8232873316500626 4.462945075058062 L3.862251361650051 4.480618415057979 L3.857807188649941 4.497878343057966 L3.8398237896499676 4.526197028057954 L3.8326924426500124 4.541389899057979 L3.8308320916500076 4.556169359057993 L3.837963438649963 4.597510505057944 L3.83103879664999 4.626242601058028 L3.817602924650016 4.6606591050579915 L3.810368223650057 4.693008551057975 L3.8217370386499407 4.715022711057959 L3.424758685649989 4.800082119057979 L3.3937528266499566 4.796671474058034 L3.3631603786499635 4.775690843057948 L3.3292606396500286 4.733626227058014 L3.3111738876500123 4.720293708057998 L3.3008386016500264 4.714195889058036 L3.269522683650008 4.729698819057948 L3.227354714650046 4.743238044058021 L3.1912845646500454 4.750369392057966 L3.169063698650019 4.759257738057986 L3.135163959649999 4.790470303057962 L3.1185241486499944 4.8001854720579935 L3.1019876896499863 4.798841885058028 L3.0837975856500304 4.789230068058021 L3.0500011986500635 4.762771735058028 L3.042353087649998 4.753883389058021 L3.038322324649995 4.745511807057955 L3.0321211536500083 4.737760342058028 L3.018375222649963 4.7307323470580265 L2.9678356716500343 4.715436123057973 L2.93083534564998 4.714195889058036 L2.928664935649989 4.714816006058005 L2.9207067656500225 4.734453051057944 L2.9422041616499666 4.792744066057981 L2.9458215116500366 4.81475822605805 L2.938586811649982 4.870155361058014 L2.9390002226499927 4.8876219960579625 L2.946751686650016 4.9087059800579915 L2.9720731386500017 4.949116950057974 L2.9814782496500367 4.971544521058053 L2.9868525986500014 4.997072679057997 L2.9868525986500014 5.017846605058029 L2.9819950146499945 5.03862053105799 L2.9727966086499986 5.063941983057962 L2.89993283964999 5.182797776057956 L2.8980327376499826 5.190084255058043 L2.888047260650053 5.228376390058035 L2.893214903650046 5.251837491058016 L2.9103714786500188 5.248943610058024 L2.95088580164993 5.2205215730580115 L2.979307839650046 5.211839931058041 L2.9992549426499817 5.218351162058017 L3.015584695650018 5.236747972058016 L3.0501045516499925 5.286874112058033 L3.126172259649975 5.3676960520579975 L3.1408483666500455 5.39074374005796 L3.1408483666500455 5.412241136058004 L3.116147032650032 5.427434007058029 L3.093099343649966 5.429811123057977 L3.079353411650045 5.428674241057966 L3.0689147736500058 5.434978767057974 L3.055685606650014 5.459783454058016 L3.0507246696499646 5.477353441057989 L3.049794493649996 5.546599860057999 L3.0481408476500587 5.552284268058049 L3.0500011986500635 5.556108324057991 L3.058579486650002 5.564686611058011 L3.066330951649986 5.570474372057991 L3.1229683216499904 5.594142178058025 L3.1440523056500194 5.606751227057959 L3.184359922649959 5.639927496058053 L3.220740131650059 5.657187425057959 L3.268179095650039 5.670209886057993 L3.3068330676500306 5.688296638058009 L3.3173750596500167 5.720542731057964 L3.3039391876499575 5.742040127058008 L3.2608410426499415 5.774286221057967 L3.2473018176499817 5.798367438058012 L3.1902510356500624 5.933139574058021 L3.1874605086500036 5.956290615058013 L3.197382383650007 5.977167894057988 L3.218052956650025 5.989466884058036 L3.2417207626500453 5.997114997058009 L3.260944395649984 6.007450283058024 L3.26797239065 6.028637621057985 L3.260117572650058 6.051168545057994 L3.242444232649957 6.072252529058023 L3.220843484649988 6.088375576058002 L3.203274734650007 6.095077058057999 L3.200793028650038 6.096023688057986 L3.182189512649968 6.095506924057947 L3.1246219676500413 6.079073819057985 L3.104571510649988 6.076800056057966 L3.0501045516499925 6.083828051057981 L3.0284004496499914 6.07648999705798 L3.0116572856500294 6.058403246057967 L2.9322822856499737 5.930038988057991 L2.895178607650008 5.901616950057974 L2.845052468649966 5.894382250058005 L2.817457253649975 5.913295823058039 L2.798750385649994 5.944094977058004 L2.7764261666500385 5.972723720057989 L2.738288959649976 5.98543612305804 L2.6971545186499792 5.993704352057993 L2.6649084256500384 6.013548102057985 L2.635142800650028 6.038042731058031 L2.6010363556500646 6.060160244058043 L2.5749914336499966 6.082381110057984 L2.558558327650031 6.113903734057946 L2.492089691649978 6.2929455130580045 L2.476483282759739 6.321944717854121 L2.4571044166499814 6.309392196058017 L2.4326282346499806 6.293894420057999 L2.3837560106500018 6.242904913058002 L2.368174205649991 6.178233969058002 L2.3587341016499703 6.16057446305803 L2.352223685650001 6.142508057058027 L2.3484801956499677 6.122651286057991 L2.34709673265 6.09970206805804 L2.3262471766499697 6.076577121057998 L2.292819778649955 6.0522134200580275 L2.1701269256499653 5.948023679058 L2.008900909649965 5.837002167058021 L2.0008239456499677 5.792003500058005 L2.0019632686499857 5.776622641058001 L2.0078226436499857 5.759288656058008 L2.0114033726500065 5.736827719058002 L2.007334362649983 5.717540609058009 L1.9978942586499624 5.698741781058008 L1.9834050136499695 5.6870051050580095 L1.961190250650004 5.673895419058002 L1.9324475546500093 5.651611950058001 L1.9154784216499774 5.643777706058021 L1.911574456649971 5.624180975058042 L1.874033580649991 5.58244946305803 L1.8606982366500073 5.566682730058009 L1.8424415266500045 5.547090254057995 L1.8150605136499802 5.518367385058017 L1.7094455016499932 5.429576217058017 L1.5816103476499688 5.330335885057995 L1.5307188586499887 5.288534205058003 L1.4012816456499717 5.194346578058006 L1.3410159736499576 5.1432614660579965 L1.2649044946499952 5.085519574058029 L1.0875752476500065 4.866466391058001 L1.065928112649983 4.82813631205801 L1.084157278650009 4.84188956805804 L1.1127217326499999 4.872325766058001 L1.134287487649983 4.8833934740580425 L1.1573994666500038 4.885997641058001 L1.1710713416500038 4.87737133805803 L1.1836038936499857 4.861258057058027 L1.2025654826499999 4.84180818705801 L1.2000426956499677 4.85588696305803 L1.1953226436499857 4.867117432058027 L1.1925557166500038 4.877859620058022 L1.1957295446500051 4.890229411057991 L1.2010192586499624 4.888439047058004 L1.2050068886500025 4.885672120058022 L1.2079365756500078 4.881603109058009 L1.209971080649991 4.876557536057991 L1.2096455606500012 4.894786703058006 L1.2127380086499624 4.913504151058024 L1.2212015496499884 4.92392081805804 L1.2367451696500051 4.917573161057991 L1.272471080649991 4.93010571305803 L1.2782490756500078 4.934663005057988 L1.280283580649991 4.935069906058008 L1.295094778650009 4.957937745058022 L1.2987568886500025 4.979584880057988 L1.3055928256500078 4.979584880057988 L1.3074645706499677 4.969819255057988 L1.3110452996499884 4.965343344058002 L1.3169046746499884 4.966238526058024 L1.3261006386500025 4.972179281058008 L1.3273213416500038 4.968517172058004 L1.3273213416500038 4.96680818705801 L1.328297903650009 4.966075766058001 L1.3329365756500078 4.965343344058002 L1.336110403650009 5.00196443705801 L1.3397725136500025 5.01376456805804 L1.3466084506500078 5.006114828058006 L1.354502330649991 5.001476156058008 L1.3636982946500051 4.999441651058024 L1.3738708206499677 5.00009269305804 L1.3705342326499999 5.014171469058002 L1.3744404826499999 5.017508057058027 L1.3832295446500051 5.013601807058027 L1.3943786336499624 5.006358969058002 L1.4020283726500065 4.998302328058006 L1.4095967326499999 4.979910401058024 L1.4154561076499999 4.972179281058008 L1.429860403650009 4.96688956805804 L1.4518330606500012 4.963634359058009 L1.4725850136500025 4.96298331805804 L1.4837341016499703 4.965343344058002 L1.509938528650009 4.962657797058004 L1.519053112649983 4.958019125058005 L1.5247497266499703 4.94540519305804 L1.5057067586499624 4.93401196305803 L1.4979756386500025 4.931245036057991 L1.4999287636500025 4.91252758805803 L1.4803975136500025 4.902599203058006 L1.456064830649991 4.893321859058009 L1.4427998576499999 4.876557536057991 L1.4359639196500051 4.876557536057991 L1.4427998576499999 4.894298422058004 L1.4564717326499999 4.94540519305804 L1.4423115756500078 4.943289307058027 L1.4344990756500078 4.93596508805803 L1.4296976436499857 4.927989828058006 L1.425303112649983 4.9244090990580425 L1.4173278516499703 4.920177328058006 L1.4060973836499624 4.901378500058005 L1.3981221226500065 4.8970653490580425 L1.3905537636500025 4.896007406058008 L1.3782653516499703 4.891368734058009 L1.3707783726500065 4.890229411057991 L1.3671162636500025 4.892833578058006 L1.367523164649965 4.898692953058006 L1.368662487649983 4.905284750058005 L1.3676859246499884 4.91016756205801 L1.360849987649983 4.917735922058004 L1.3544209506500078 4.927257406058008 L1.3494567586499624 4.937023031058008 L1.3466084506500078 4.94540519305804 L1.3325296746499884 4.939383057058027 L1.319834362649983 4.931245036057991 L1.323740612649983 4.920991130057988 L1.3177998576499999 4.900320557058027 L1.319834362649983 4.890229411057991 L1.3290303256500078 4.885509359058009 L1.3407490756500078 4.885834880057988 L1.350596080649991 4.885021078058006 L1.3540140496499884 4.876557536057991 L1.3422139196500051 4.866791911057991 L1.316579153650009 4.858328370058022 L1.2889912636500025 4.85360831805804 L1.2714131386500025 4.85548006205801 L1.2488708206499677 4.809337484058009 L1.2472432166500038 4.801524984058009 L1.2369893106500012 4.794444906058008 L1.2321064976500065 4.794444906058008 L1.2299092326499999 4.804617432058027 L1.2262471226500065 4.8052684740580425 L1.2117614456499677 4.812999594058002 L1.209971080649991 4.81454581805804 L1.1844990756500078 4.809337484058009 L1.1606546746499884 4.827241130057988 L1.1378682166500038 4.849132406058008 L1.1144307166500038 4.85548006205801 L1.1048278516499703 4.850108969058002 L1.0957132686499857 4.840913005057988 L1.0892028516499703 4.829601156058008 L1.0864359246499884 4.817638266058001 L1.088877330649991 4.81446443705801 L1.1005147006500078 4.803803630057988 L1.1039326696500051 4.801524984058009 L1.109547903650009 4.798432536057991 L1.101735403650009 4.792247641058001 L1.0906676956499677 4.78712068705801 L1.0864359246499884 4.78720206805804 L1.0848083206499677 4.778901286057991 L1.0863545446500051 4.770926026058024 L1.0864359246499884 4.764171469058002 L1.080251028650009 4.75985831805804 L1.071787487649983 4.758556234058009 L1.0652770706499677 4.759207276058024 L1.060882539649965 4.762625245058022 L1.0590921746499884 4.76954256205801 L1.0717061076499999 4.793224203058006 L1.0751240756500078 4.808035401058024 L1.065928112649983 4.820812094058002 L1.0501403516499703 4.813976156058008 L1.0083109246499884 4.763927328058006 L0.9908955606500012 4.752452719058002 L1.000172903650009 4.766857016058001 L1.0223083206499677 4.7935497240580425 L1.0312601436499857 4.807709880057988 L1.0089619666500038 4.792735922058004 L0.9822692586499624 4.766857016058001 L0.9594827996499884 4.737316000058005 L0.9492288936499857 4.7115184740580425 L0.9492288936499857 4.705984620058022 L0.9415791536500091 4.683116781058008 L0.9357197786500091 4.592296469058002 L0.9282327996499884 4.577648031058008 L0.8290303256500078 4.479991781058008 L0.8022562376499831 4.46485506205801 L0.7719014196500051 4.428803630057988 L0.7576598836499624 4.417410401058024 L0.7604268106500012 4.413504151058024 L0.7644958206499677 4.403575766058001 L0.7428486856500012 4.397716391058001 L0.7304788936499857 4.380301026058024 L0.7166442586499624 4.34221508805803 L0.6747334506500078 4.301036703058006 L0.6681416536500091 4.290620036057991 L0.6635843626499831 4.28907381205801 L0.6541442586499624 4.280528891058001 L0.6456807166500038 4.271007406058008 L0.6443786336499624 4.266531495058022 L0.6337178256500078 4.26173006205801 L0.6360778516499703 4.25204581805804 L0.6434020706499677 4.245535401058024 L0.6477966016499703 4.249441651058024 L0.6552022006500078 4.26767081805804 L0.6735127476500065 4.2818309740580425 L0.6962178256500078 4.28907381205801 L0.7166442586499624 4.286876547058004 L0.7142842326499999 4.290945557058027 L0.7130635286500091 4.291759359058009 L0.7118428256500078 4.292084880057988 L0.7091572786500091 4.294444906058008 L0.7221781126499831 4.299816000058005 L0.7293395706499677 4.294444906058008 L0.7369893106500012 4.273367432058027 L0.743174205649991 4.273367432058027 L0.7506611856500012 4.294444906058008 L0.7448018106500012 4.296479411057991 L0.7404072786500091 4.29924633805803 L0.7379658726500065 4.303722250058005 L0.7369893106500012 4.310802328058006 L0.7404072786500091 4.316905844058002 L0.7472432166500038 4.31251131205801 L0.7523701696500051 4.30478019305804 L0.7506611856500012 4.300711182058027 L0.8019307166500038 4.300711182058027 L0.8297627476500065 4.307547120058022 L0.8437601436499857 4.32423006205801 L0.8412373576499999 4.344656495058022 L0.8190205606500012 4.362722901058024 L0.8309834506500078 4.375906495058022 L0.8374124876499831 4.381114828058006 L0.8431904826499999 4.38323071305803 L0.8649189976500065 4.38518383805803 L0.8705342326499999 4.386648682058027 L0.8730570186499857 4.39258943705801 L0.8729756386500025 4.409923422058004 L0.8743591016499703 4.417410401058024 L0.8947041536500091 4.430919516058001 L0.8953551956499677 4.43563956805804 L0.9003193886500025 4.4478465990580425 L0.9056904826499999 4.455984620058022 L0.9083760286500091 4.448334880057988 L0.9115498576499999 4.443289307058027 L0.9256286336499624 4.437999594058002 L0.9288838416500038 4.434663005057988 L0.9261982946500051 4.416759359058009 L0.9196064976500065 4.396739828058006 L0.9109801956499677 4.38282381205801 L0.9015400916500038 4.38323071305803 L0.8906351436499857 4.370535401058024 L0.8661397006500078 4.35360831805804 L0.8605244666500038 4.34221508805803 L0.8722432166500038 4.32463696305803 L0.8817647006500078 4.318126547058004 L0.8802184766499703 4.311534750058005 L0.8476663936499857 4.255463786057991 L0.829111705649991 4.23642081805804 L0.8190205606500012 4.246023682058027 L0.8036397006500078 4.237071859058009 L0.7985127476500065 4.232351807058027 L0.7949320186499857 4.241710531058008 L0.7948506386500025 4.251232016058001 L0.7985127476500065 4.273367432058027 L0.7797952996499884 4.258067953058006 L0.7544046746499884 4.211437094058002 L0.7369893106500012 4.204357016058001 L0.7296650916500038 4.21094881205801 L0.724945039649965 4.22266756205801 L0.7220153516499703 4.233979411057991 L0.7196553256500078 4.239187745058022 L0.7101338416500038 4.24228019305804 L0.7045999876499831 4.25041821305803 L0.7024841016499703 4.261241781058008 L0.7029723836499624 4.273367432058027 L0.6957295446500051 4.26604321305803 L0.6879984246499884 4.261241781058008 L0.6791279826499999 4.259044516058001 L0.6681416536500091 4.259044516058001 L0.6796976436499857 4.239187745058022 L0.6774189976500065 4.227957276058024 L0.654632539649965 4.211192953058006 L0.6326598836499624 4.225515870058022 L0.6178486856500012 4.220307536057991 L0.6093851436499857 4.200613526058024 L0.6067809766499703 4.170909750058005 L0.6075947786500091 4.159191000058005 L0.6118265496499884 4.141694255057988 L0.6128031126499831 4.133312094058002 L0.6128031126499831 4.092052328058006 L0.6110127476500065 4.081147380057988 L0.6022236856500012 4.058849203058006 L0.5992939976500065 4.047374594058002 L0.6004333206499677 4.016368734058009 L0.5992939976500065 4.006358969058002 L0.5825296746499884 3.96485506205801 L0.5597432166500038 3.9333609220580033 L0.5043232946500051 3.876069255057988 L0.3790791536500091 3.7009390470580033 L0.36955766965000514 3.68360506205801 L0.35938514364998575 3.658784099058042 L0.3507588416500038 3.6368114430580394 L0.34603878964996504 3.6159781090580085 L0.35938514364998575 3.6426708180580394 L0.36955766965000514 3.672455974058042 L0.38184608064999104 3.6898713380580292 L0.4012145706499677 3.711518474058042 L0.4166768106500012 3.7099722500580046 L0.4323018106500012 3.71680818705801 L0.44475298264999985 3.7286083180580394 L0.4550068886500025 3.7601838380580292 L0.4784443886500025 3.784597901058024 L0.48381548264999985 3.804129151058024 L0.4900817586499624 3.813976156058007 L0.5216572786500091 3.8531200360579905 L0.5350850136500025 3.861827719058002 L0.5411885286500091 3.8684195160580006 L0.5892842326499999 3.9071564950580213 L0.5976663936499857 3.911632406058007 L0.6271260286500091 3.920421469058002 L0.6366475136500025 4.044689047058004 L0.6427510286500091 4.060151286057991 L0.654632539649965 4.05478019305804 L0.6575622266499703 4.044526286057991 L0.6484476436499857 4.030854411057991 L0.6512145706499677 4.02344881205801 L0.6600036336499624 4.01962394305804 L0.6674906126499831 4.02353019305804 L0.672861705649991 4.031749594058002 L0.6749775916500038 4.040538656058008 L0.6899515496499884 4.02344881205801 L0.7133890496499884 4.00985831805804 L0.7401631386500025 4.001557536057991 L0.7644958206499677 3.999523031058007 L0.7587178256500078 4.015148031058008 L0.7574971226500065 4.031993734058009 L0.7631123576499999 4.046479411057991 L0.7780049356500012 4.05478019305804 L0.7850850136500025 4.021007406058008 L0.7845967326499999 4.0044872240580425 L0.7780049356500012 3.992687094058002 L0.8092549356500012 3.9883739430580394 L0.8920186076499999 3.999523031058007 L0.9220479036500091 3.992687094058002 L0.8807881386500025 3.976817953058006 L0.8649189976500065 3.9649364430580394 L0.8530374876499831 3.9449169110579905 L0.8437601436499857 3.907644776058024 L0.8426208206499677 3.885834880057988 L0.8468525916500038 3.8692333180580394 L0.8387145706499677 3.866710531058007 L0.8190205606500012 3.8555614430580394 L0.8146260286500091 3.854991781058007 L0.8019307166500038 3.8555614430580394 L0.7947692586499624 3.8581656090580085 L0.7942809766499703 3.8645132660580006 L0.7985127476500065 3.879405844058002 L0.7970479036500091 3.8896597500580046 L0.7936299356500012 3.894786703058006 L0.789398164649965 3.8982046720580033 L0.7644958206499677 3.9315705570580266 L0.7415466016499703 3.9480093590580085 L0.7143656126499831 3.9560660000580046 L0.6818135286500091 3.9585887860579905 L0.6751403516499703 3.9599722500580046 L0.6687926956499677 3.962006755057988 L0.6622822786500091 3.9624950360579905 L0.654632539649965 3.9585887860579905 L0.6490986856500012 3.95118318705801 L0.6478779826499999 3.935069906058007 L0.6407979036500091 3.920421469058002 L0.6399841016499703 3.911225505057988 L0.6407979036500091 3.893077719058002 L0.6366475136500025 3.888113526058024 L0.6274515496499884 3.8857535000580046 L0.6178486856500012 3.8845327970580033 L0.6128031126499831 3.88282381205801 L0.6110127476500065 3.8671174320580266 L0.6190693886500025 3.856538005057988 L0.6337178256500078 3.8505972500580046 L0.6512145706499677 3.848725505057988 L0.6595967326499999 3.8427847500580046 L0.6613057166500038 3.829194255057988 L0.657236705649991 3.815034099058042 L0.6477966016499703 3.807140219058002 L0.6477966016499703 3.8008739430580394 L0.6567484246499884 3.7984325360579905 L0.680674205649991 3.7961538910580006 L0.6886494666500038 3.793468344058002 L0.6966247266499703 3.783702719058002 L0.7011006386500025 3.764741130057988 L0.7169697786500091 3.7356070160580006 L0.7137145706499677 3.7183544110579905 L0.6954854036500091 3.68360506205801 L0.7008564976500065 3.6775015470580033 L0.7018330606500012 3.6728628750580046 L0.6979268106500012 3.668468344058002 L0.6886494666500038 3.6630972500580046 L0.6881611856500012 3.683035401058024 L0.6954854036500091 3.7352814950580213 L0.6927184766499703 3.7460236820580266 L0.6853942586499624 3.7559520680580394 L0.6754658726500065 3.7632762860579905 L0.6647236856500012 3.766205974058042 L0.6556904826499999 3.763113526058024 L0.6473897006500078 3.7492788910580006 L0.6407979036500091 3.7456981610579905 L0.6245218626499831 3.7512320160580006 L0.6144307166500038 3.7653921720580033 L0.606455455649991 3.7800406090580085 L0.5961201696500051 3.7867137860579905 L0.5481872266499703 3.7956656090580085 L0.531585664649965 3.793468344058002 L0.5204365756500078 3.7802847500580046 L0.5172627476500065 3.759288656058007 L0.5189717326499999 3.7398387860579905 L0.5216572786500091 3.7314566250580046 L0.5193786336499624 3.7300731610579905 L0.5125426956499677 3.723725505057988 L0.5089619666500038 3.717377849058042 L0.504241914649965 3.7191682130580292 L0.49846391965000514 3.7230744630580292 L0.48869829465000514 3.727143474058042 L0.48674516965000514 3.731049724058042 L0.4823506386500025 3.7336538910580006 L0.4695739456499677 3.7314566250580046 L0.4550068886500025 3.723155844058002 L0.4198506386500025 3.696788656058007 L0.40463253964996504 3.6910106610579905 L0.3925068886500025 3.684174724058042 L0.3837178256500078 3.6675731610579905 L0.38127641965000514 3.6472281090580085 L0.3881937376499831 3.6289989430580394 L0.3849385286500091 3.6254182130580292 L0.38322954465000514 3.6226512860579905 L0.3807881386500025 3.6159781090580085 L0.4002380086499624 3.601817953058006 L0.39551795564999104 3.5785432130580292 L0.3782653516499703 3.554942953058006 L0.35971066464996504 3.5402945160580006 L0.3722432166500038 3.5704051930580394 L0.3663838416500038 3.5974234220580033 L0.36296587265000646 3.6064566250580046 L0.3566182166500038 3.60548006205801 L0.3533630086499624 3.5947378750580046 L0.34603878964996504 3.533458578058006 L0.32911170564999104 3.4895132660580006 L0.22990923264999985 3.3620718590580085 L0.25586951864998575 3.3866486820580266 L0.2701924356500012 3.393647380057988 L0.28516639364998575 3.3887645680580394 L0.27092485764999985 3.3825796720580033 L0.2768656126499831 3.36915193705801 L0.28516639364998575 3.357677328058006 L0.2931416536500091 3.350190349058042 L0.2981872266499703 3.3485627450580213 L0.2864684766499703 3.3433544110579905 L0.2571716016499703 3.3632111820580266 L0.23991899765000646 3.358816651058024 L0.23332720065000778 3.3427847500580046 L0.22697954465000514 3.3181265470580033 L0.21941118565000117 3.301036703058006 L0.2094827996499884 3.3075471200580213 L0.20207720065000778 3.3075471200580213 L0.1935322786500091 3.2719025880580292 L0.18832394564996768 3.2596955570580266 L0.17318722664997033 3.233898031058007 L0.14682003964996504 3.1742463380580292 L0.12541704465000514 3.1377066250580046 L0.11215207064996768 3.085053630057988 L0.08139035164997033 3.0453400880580292 L0.05803423264999985 2.9716910000580046 L0.07162472664997033 2.950694906058007 L0.07903032565000778 2.9580191250580046 L0.0701598836499624 2.9773062340580085 L0.08106483064999104 2.9859325360579905 L0.11329139364998575 2.99219881205801 L0.1088968626499831 3.0012320160580006 L0.1079202996499884 3.007335531058007 L0.1095479036500091 3.012299724058042 L0.11329139364998575 3.018972901058024 L0.13477576864998575 3.0183218590580085 L0.14983110764999985 3.0427359220580033 L0.15821326864998575 3.0769156090580085 L0.16277056065000117 3.1187450360579905 L0.1684671746499884 3.133393474058042 L0.17815141965000514 3.145112224058042 L0.19206743565000117 3.149832276058024 L0.19987993565000117 3.1566682130580292 L0.20199582064996768 3.171398031058007 L0.2068786336499624 3.1853140470580033 L0.2231546746499884 3.1901968590580085 L0.2143656126499831 3.1731070160580006 L0.2153421746499884 3.1563426930580394 L0.22014360764999985 3.13868318705801 L0.2231546746499884 3.1187450360579905 L0.22852576864998575 3.104584880057988 L0.24187212265000646 3.1034455570580266 L0.25945024765000646 3.1073518070580266 L0.27702837265000646 3.1083283700580213 L0.27702837265000646 3.1014924320580266 L0.26726274765000646 3.0969351410580006 L0.2570088416500038 3.0888785000580046 L0.2501729036500091 3.078380453058006 L0.25041704465000514 3.066661703058006 L0.2577412636500025 3.0601512860579905 L0.2674255086499624 3.0609650880580292 L0.2915140496499884 3.0723583180580394 L0.3014424356500012 3.086437094058002 L0.30892941464996504 3.10352693705801 L0.31194048264999985 3.1187450360579905 L0.3195088416500038 3.1386018070580266 L0.3556416536500091 3.1722932130580292 L0.3671162636500025 3.1901968590580085 L0.36760454465000514 3.210379151058024 L0.3606872266499703 3.245535401058024 L0.3671162636500025 3.2596955570580266 L0.3739522006500078 3.2596955570580266 L0.3782653516499703 3.2409781090580085 L0.3807881386500025 3.180268474058042 L0.3862406126499831 3.1613882660580006 L0.4100850136500025 3.135265219058002 L0.41545610764999985 3.1187450360579905 L0.41447954465000514 3.1050731610579905 L0.4130147006500078 3.0993765470580033 L0.41447954465000514 3.09571443705801 L0.4218037636500025 3.0878205570580266 L0.4276631386500025 3.0840770680580394 L0.4441833206499677 3.078380453058006 L0.44963579465000514 3.074718344058002 L0.4523213416500038 3.0643830570580266 L0.4503682166500038 3.053803630057988 L0.45158891965000514 3.0450145680580394 L0.46330766965000514 3.0399689950580213 L0.47697954465000514 3.066661703058006 L0.47494503964996504 3.0433869630580292 L0.46330766965000514 3.0274364430580394 L0.4550068886500025 3.0107535000580046 L0.46330766965000514 2.9847932130580292 L0.522471080649991 2.931896078058006 L0.5404561076499999 2.895926026058024 L0.629892955649991 2.797455974058042 L0.654632539649965 2.7588003750580046 L0.668955455649991 2.717377849058042 L0.6681416536500091 2.588146078058006 L0.6756286336499624 2.5671499840580085 L0.6981709506500078 2.5223908700580213 L0.7029723836499624 2.502208578058006 L0.7040303256500078 2.4912222500580046 L0.7084248576499999 2.469819255057988 L0.7091572786500091 2.4577749840580085 L0.7068786336499624 2.4485790210580407 L0.6954854036500091 2.4229849450580363 L0.6966247266499703 2.410493083057989 L0.6997171746499884 2.398570883058031 L0.7052510286500091 2.3878286950580363 L0.7128193886500025 2.3783072110580323 L0.717783580649991 2.3689077970580033 L0.7159932166500038 2.3602408050580297 L0.7114359246499884 2.3521841640580337 L0.7091572786500091 2.3444937340580085 L0.7078551956499677 2.3231314300580297 L0.6726989456499677 2.1338003750580046 L0.6613057166500038 2.10157381205801 L0.6644795446500051 2.0925406090580085 L0.6696064976500065 2.06609204205802 L0.6715596226500065 2.06055818705801 L0.6759541536500091 2.0576285000580046 L0.7078551956499677 2.02930818705801 L0.7186787636500025 2.026459880057988 L0.7283630086499624 2.033539958057989 L0.7369893106500012 2.053071208057989 L0.7411397006500078 2.0775259610580323 L0.7391051956499677 2.097789633058031 L0.729502330649991 2.135021078058006 L0.7313740756500078 2.1466584480580226 L0.7358499876499831 2.157644776058024 L0.7363382686499857 2.165904867058035 L0.7260843626499831 2.169119385058028 L0.7208760286500091 2.1734325360579905 L0.7189229036500091 2.1833609220580033 L0.719736705649991 2.194957601058039 L0.7226663936499857 2.2039908050580297 L0.7313740756500078 2.1959748540580253 L0.7367451696500051 2.187023031058007 L0.7428486856500012 2.17969881205801 L0.7540791536500091 2.1766470550580297 L0.7867939976500065 2.1768911950580363 L0.7916768106500012 2.1800650230580376 L0.7970479036500091 2.1929637860579905 L0.823252330649991 2.2185985520579865 L0.8325296746499884 2.2380484220580033 L0.8359476436499857 2.275890219058002 L0.8422952996499884 2.281505453058006 L0.8505147006500078 2.286754476058039 L0.8574320186499857 2.286632406058007 L0.8605244666500038 2.275890219058002 L0.8549906126499831 2.2330842290580253 L0.8561299356500012 2.215099203058006 L0.8667093626499831 2.1971141770579865 L0.9161885286500091 2.2110301930580394 L0.9288838416500038 2.217621989057992 L0.9342549356500012 2.2286083180580394 L0.9427184766499703 2.263316976058039 L0.9492288936499857 2.2727977710580407 L0.9536234246499884 2.265880453058006 L0.9817809766499703 2.2378856610579905 L0.9908955606500012 2.231293864057992 L1.006032278650009 2.232066976058039 L1.0148213416500038 2.2382111820580266 L1.0250752476500065 2.2585562340580085 L1.0748799356500012 2.250255453058006 L1.1113382686499857 2.287242758058031 L1.1420186076499999 2.33562329205802 L1.1746520706499677 2.361583578058006 L1.1380309766499703 2.2946890470580033 L1.1237080606500012 2.275890219058002 L1.1210225136500025 2.2595327970580033 L1.1405537636500025 2.2506216640580337 L1.166351289649965 2.251842367058035 L1.1820576696500051 2.2660025230580376 L1.194346080649991 2.258312094058002 L1.2128193886500025 2.2343049320580266 L1.223642955649991 2.223806885058028 L1.258799205649991 2.2015900880580292 L1.2714131386500025 2.1971141770579865 L1.2875264196500051 2.197399008058031 L1.316741914649965 2.2081411950580363 L1.3329365756500078 2.211437094058002 L1.3476663936499857 2.210135010058028 L1.3881123576499999 2.1971141770579865 L1.3881123576499999 2.1896271980580226 L1.3379007686499857 2.1907665210580407 L1.3182881386500025 2.185069906058007 L1.2987568886500025 2.169119385058028 L1.283376028650009 2.1792919110579905 L1.2648213416500038 2.1882437340580085 L1.245127330649991 2.1946727710580407 L1.1678975136500025 2.1993928230580226 L1.1547139196500051 2.2039908050580297 L1.109710664649965 2.188650635058028 L1.0970967326499999 2.1800650230580376 L1.0820413936499857 2.166515219058002 L1.0739033726500065 2.1618765470580033 L1.0421650916500038 2.162934489057992 L1.031422903650009 2.157848226058039 L0.9835713416500038 2.1220002450580213 L0.9489033726500065 2.101451742058035 L0.934580455649991 2.086762614057992 L0.9288838416500038 2.0667837730580376 L0.9220479036500091 2.0667837730580376 L0.916351289649965 2.078950114057992 L0.9106546746499884 2.082530844058002 L0.8981221226500065 2.080414958057989 L0.8899841016499703 2.082856364057992 L0.867523164649965 2.0927847500580046 L0.8605244666500038 2.0941275230580376 L0.852549205649991 2.0826529140580337 L0.8466084506500078 2.047008383058031 L0.8359476436499857 2.0394400230580376 L0.8217874876499831 2.0251577970580033 L0.7738545446500051 1.9151724450580363 L0.7611592326499999 1.896373617058035 L0.7333272006500078 1.8650015470580033 L0.7146911336499624 1.8558462730580376 L0.6971130086499624 1.8571890470580033 L0.6814880086499624 1.8564566250580046 L0.6681416536500091 1.8408316250580046 L0.6673278516499703 1.8261831870580099 L0.6713154826499999 1.7710887860579905 L0.6783955606500012 1.7589224450580363 L0.7001240756500078 1.7567251800580297 L0.7226663936499857 1.7520458180580394 L0.7338968626499831 1.7474478360580323 L0.754241914649965 1.7357290860580323 L0.7644958206499677 1.7315786950580363 L0.7778421746499884 1.7298697110580323 L0.7865498576499999 1.7322704270579865 L0.7954202996499884 1.7359325360579905 L0.8090107946500051 1.7378042810580072 L0.8172301956499677 1.7356883960580407 L0.8307393106500012 1.72624829205802 L0.8490498576499999 1.7191275230580376 L0.8647562376499831 1.709239828058006 L0.8824971226500065 1.7015493980580376 L0.9015400916500038 1.703624594058002 L0.9178975136500025 1.7198599450580363 L0.9253031126499831 1.7429312340580085 L0.9217223836499624 1.763561117058035 L0.9049580606500012 1.7725943200580363 L0.8615010286500091 1.763316976058039 L0.8402607946500051 1.7660025230580376 L0.826507539649965 1.7862255050579878 L0.8496195186499857 1.7791454270579865 L0.8789163936499857 1.78093579205802 L0.9023538936499857 1.7938345550580297 L0.9083760286500091 1.8203238120580099 L0.920257539649965 1.816539633058031 L0.9290466016499703 1.8095816250580046 L0.9342549356500012 1.799409099058042 L0.9357197786500091 1.7862255050579878 L0.9477640496499884 1.8022574060580072 L0.949554414649965 1.8313915210580407 L0.944346080649991 1.8599966640580337 L0.9357197786500091 1.8750113120580099 L0.9452412636500025 1.9034536950580363 L0.9532979036500091 1.9122020680580394 L0.9703877476500065 1.915904867058035 L0.9659932166500038 1.90007641705802 L0.9661559766499703 1.8797313640579918 L0.971038789649965 1.8619497890580337 L0.9799906126499831 1.8545035000580046 L0.9863382686499857 1.845592367058035 L0.9965921746499884 1.802176026058024 L1.0045674356500012 1.7862255050579878 L0.9908955606500012 1.7663687340580085 L0.9874775916500038 1.74577954205802 L0.9908955606500012 1.6967886560580072 L0.9806416536500091 1.5782990730580226 L0.9452412636500025 1.4843863120580099 L0.942392955649991 1.4603384610580323 L0.9379984246499884 1.4442658700580213 L0.9295348836499624 1.4339712730580376 L0.9240010286500091 1.4222932130580292 L0.9288838416500038 1.401988851058039 L0.9414163936499857 1.3807079270579865 L0.9545186076499999 1.370738851058039 L0.9691670446500051 1.3678091640580337 L0.9872334506500078 1.3678091640580337 L1.004892955649991 1.3628042810580072 L1.0145772006500078 1.350760010058028 L1.0214131386500025 1.337088135058028 L1.0312601436499857 1.3269156090580085 L1.0492451696500051 1.3238231610579905 L1.107594778650009 1.325369385058028 L1.1237080606500012 1.330333578058006 L1.1371357946500051 1.3522248540580253 L1.145517955649991 1.395030844058002 L1.1547139196500051 1.416271078058006 L1.1629333206499677 1.3992626140579918 L1.1668381597607844 1.3867345881594022 L1.1965742786500595 1.390161058057973 L1.2120772086499993 1.395845466058009 L1.2286136666499896 1.4075243390579888 L1.254555235650015 1.4371866110579563 L1.2710916936500052 1.4500023670580222 L1.2887650336500212 1.4575471260579778 L1.3065417256499483 1.460234300058008 L1.3224580666499843 1.4567203020579629 L1.334240293649982 1.4452481350580402 L1.337857643650052 1.4321223210579777 L1.337960996649981 1.4025117250580226 L1.3432319936500061 1.3878872950580532 L1.3628509106500655 1.3853464160579594 L1.3919111926500545 1.3815827700580345 L1.5010518166499889 1.3819961810580454 L1.7775124766499584 1.382854755058037 L1.8005684186499717 1.382926357058 L2.0998783146500113 1.383959886057983 L2.3263010596500475 1.3846633050580155 L2.399291562649962 1.3848900620579516 L2.698808165650048 1.3859235910580199 L2.6972578726500114 1.1239240790579461 L2.6957075786499853 0.8619504050579567 L2.694467848650005 0.6524772610579848 L2.6941572866499666 0.6000025700579843 L2.6926069936499584 0.33795138205798336 L2.692193581649958 0.25764620605795896 L2.6845454696499598 0.21932813205804136 L2.6909533466500033 0.2087861390579806 L2.6948807566499635 0.19705559005800266 L2.6966377546500393 0.18480827505797803 L2.6966377546500393 0.17230257805796922 L2.6983947536500192 0.15592115005802354 L2.704699278650038 0.14450065805801016 L2.7124507426500326 0.13395866605795304 L2.7184452096499694 0.1199026760580355 L2.716791563650032 0.10662183305801731 L2.7122440376499934 0.0935993720579833 L2.7141043886499983 0.08450431905801592 L2.981064838650026 0.07468579705804101 L3.007109759650019 0.06543571605803633 L3.019718809650028 0.06259351205796149 L3.0336714466500165 0.06409212905797146 L3.0434899686500057 0.06967318305798953 L3.063850483650027 0.08636467105802437 L3.115216856650063 0.10321118805800067 L3.1306164336499602 0.10491651105805344 L3.1646195256499947 0.10026563205800043 L3.252262754650003 0.1030044830579473 L3.3286405216500565 0.09633822305802964 L3.404398171649957 0.10109245505802589 L3.4632059516500373 0.09659660505799961 L3.4812927026500358 0.09726839805798049 L3.521703672650018 0.10367627605802765 L3.5651118756500306 0.10553662705803246 L3.5850589786500233 0.10176424805800677 L3.6235062446499864 0.0888968160580137 L3.6432466416500358 0.08605461305802775 L3.653685281649997 0.08331576205799562 L3.674562559649969 0.07215365305805532 L3.6840710236500467 0.07101677105795856 L3.696473366650009 0.07551262105797063 L3.7292362246500215 0.09551140005800418 L3.74732297565002 0.09918042605800137 L3.8024100526499875 0.0865713770579819 L3.840857318650036 0.08920687505799973 L3.8966678656500005 0.1073969790580267 L3.9139277946500055 0.11282300505800746 L3.9372855416500396 0.1073969790580267 L3.953201882649962 0.11938591205799609 L3.977076394650039 0.128170905057988 L4.112365293649999 0.1483763900579791 L4.132622455650006 0.14439730405799223 L4.146575091650005 0.13556063505798788 L4.158047260650035 0.12631055305806482 L4.170656309649969 0.12103955705794389 L4.187709532649974 0.12584546605804148 L4.210550515649983 0.1357673410579454 L4.230290912649947 0.14010816005802296 L4.238869200649999 0.12791252305800382 L4.252925189650012 0.13370028305797943 L4.265637591649961 0.13473381205796242 L4.277006407650033 0.13054802105802166 L4.287238340650033 0.12103955705794389 L4.317314024650001 0.13183993205797462 L4.334677305650002 0.13473381205796242 L4.345632709649989 0.13163322605801708 L4.359378640650034 0.12507031905802846 L4.375398333650066 0.12879102305796009 L4.403406960650001 0.14088330805794014 L4.445988340649974 0.13556063505798788 L4.455496804650052 0.13163322605801708 L4.475547259649984 0.11235791705798048 L4.487122780650038 0.10403801105802613 L4.495804421649991 0.10057569005798284 L4.52629351664997 0.10191927705804771 L4.554198790649975 0.1073969790580267 L4.568151426649946 0.11819735305796852 L4.574766010650036 0.12103955705794389 L4.584067767650067 0.1211429100579724 L4.598433815650067 0.11520012105805533 L4.605358457649954 0.11359815105801685 L4.6166239196500225 0.11819735305796852 L4.632126849649934 0.1293594620580083 L4.647113015650019 0.14284701205797345 L4.656621478649994 0.15457756105805087 L4.660858946650036 0.16925366905803996 L4.656724832650026 0.1993293530580078 L4.657034890649994 0.22403068705802154 Z M0.35971066464996504 3.0127066250580046 L0.39592485764999985 3.0205191250580046 L0.40398149765000646 3.054942953058006 L0.4003193886500025 3.097179281058007 L0.4012145706499677 3.1288361820580266 L0.3834736856500012 3.14063631205801 L0.3690693886500025 3.1472281090580085 L0.3553975136500025 3.1462515470580033 L0.3397725136500025 3.1356721200580213 L0.3309834506500078 3.122488526058024 L0.3309020706499677 3.109955974058042 L0.33366899765000646 3.0966096200580213 L0.33366899765000646 3.0809846200580213 L0.32911170564999104 3.0723583180580394 L0.3153584506500078 3.0578726410580006 L0.31194048264999985 3.0468049320580266 L0.31194048264999985 3.035737224058042 L0.31413774765000646 3.0280874840580085 L0.32561235764999985 3.0127066250580046 L0.3368428256500078 3.0020458180580394 L0.3585713416500038 2.988780844058002 L0.3671162636500025 2.977957276058024 L0.37248735764999985 2.9878856610579905 L0.3728942586499624 2.99610506205801 L0.3683369666500038 3.0020458180580394 L0.35971066464996504 3.005301026058024 L0.35971066464996504 3.0127066250580046 Z M0.7392525756499548 1.575102931057987 L0.7465525756499982 1.5754599960579898 L0.7421096406499554 1.5781170600579943 L0.7392525756499548 1.575102931057987 Z" fill="black" stroke="black" stroke-width="0.5" vector-effect="non-scaling-stroke"/></svg>