<svg xmlns="http://www.w3.org/2000/svg" viewBox="0 0 3.071208551520064 0.7700750915999919"><path d="M0.10615969276002701 0.7625253357999924 L0.09094159375998956 0.7497079528000228 L0.07547935376001291 0.7445403098000298 L0.0730786377600019 0.7374602318000285 L0.07726971875998956 0.7292001398000281 L0.08430910675999925 0.7147958438000188 L0.08247805176003098 0.6996998148000131 L0.06306887176000586 0.6503020277999809 L0.062336449760007184 0.6384205178000144 L0.06477785675999925 0.5916268977999977 L0.062458520760028335 0.5786060648000131 L0.056843285760034945 0.5653410908000325 L0.039753442760027013 0.546216741799995 L0.035358910760034945 0.5329517678000144 L0.043171410760034945 0.516919866799995 L0.03950930176003098 0.5117115338000104 L0.030109887760001897 0.4890064558000091 L0.03910240076001159 0.4784270277999809 L0.04984458776001688 0.44766530980002983 L0.0602612547600323 0.44123627279999766 L0.07246828576003495 0.4383879658000325 L0.08548911976000895 0.4313485778000228 L0.09688234876002966 0.42255951480002807 L0.1553540277600085 0.35212494479999634 L0.18098879376000454 0.331372991799995 L0.18306398876003627 0.34162689779999766 L0.18867922376002966 0.34886973680001176 L0.1973055257600116 0.3544035908000325 L0.20755943176001423 0.3592864027999809 L0.22517824676000586 0.35017181979999634 L0.24295982276001027 0.3493580178000144 L0.2584220617599975 0.35529877279999766 L0.26908286976000895 0.3661630308000241 L0.2744946527600085 0.3841887467999783 L0.2635083247600072 0.38728119479999634 L0.24702883276003362 0.3883798278000228 L0.23555422376002966 0.4003020277999809 L0.25109784375998956 0.4138111428000144 L0.2642814367599975 0.442456975799999 L0.27144289576002834 0.47224213279999105 L0.26908286976000895 0.4890064558000091 L0.3059481037600129 0.5317310648000131 L0.3140454347600006 0.5374276797999897 L0.36462323375999617 0.5396249447999963 L0.3789868407600032 0.5436532648000281 L0.39204836376003627 0.5516692158000325 L0.39986086376003627 0.5586679137999937 L0.41011477076002834 0.5634693458000157 L0.43045982276001027 0.5653410908000325 L0.440144067760027 0.5719735778000228 L0.44588137176000586 0.5875578878000312 L0.4463289627600169 0.6054615338000104 L0.4403882077600336 0.6193368588000254 L0.4600415277600085 0.6032235778000228 L0.46895266076003495 0.6027352968000201 L0.4820141847600006 0.6125009218000201 L0.4761548097600006 0.6023690857999924 L0.4578849527599935 0.5841806088000254 L0.4540600827600336 0.5814950618000267 L0.4515372967599909 0.5687997498000215 L0.44453859876002966 0.5604989688000188 L0.43379641076003495 0.556796168799977 L0.41988039576002834 0.557935491799995 L0.41988039576002834 0.5510995547999897 L0.4492993407600032 0.5516692158000325 L0.46301190575999485 0.5496347107999924 L0.47517824676000586 0.5436532648000281 L0.485065942760027 0.5636727968000201 L0.496540551760031 0.5592375747999796 L0.5101310467599909 0.5453622498000215 L0.5264070877600169 0.5374276797999897 L0.5450024657600032 0.5319752058000091 L0.5818676997600072 0.508049423800017 L0.6018465407600182 0.5026376398000281 L0.6296785727600103 0.5111418717999783 L0.6339103437599896 0.5309579528000228 L0.629597192760027 0.5539071718000201 L0.6322013587599962 0.5715259868000118 L0.6501050047600323 0.5763681088000254 L0.6743563067600142 0.5692473408000325 L0.708535994760009 0.5510995547999897 L0.708535994760009 0.5436532648000281 L0.6975496657600182 0.5448332777999809 L0.6872957597600156 0.5482512467999783 L0.6780591067599993 0.553785100799999 L0.6700024657600032 0.561597600799999 L0.6605216717599909 0.5684335387999937 L0.6562899007600116 0.5625741637999937 L0.6517326087599962 0.5351490338000104 L0.6512036377600019 0.5239999447999963 L0.6490470617599975 0.5142343197999963 L0.642780785760035 0.5101653098000298 L0.6377759027600085 0.5077645938000188 L0.6345613847600156 0.5017017678000144 L0.6326896397599988 0.4938485778000228 L0.6322013587599962 0.48558848680001176 L0.6353751867599975 0.46723724980002146 L0.6435945877600169 0.4547860778000228 L0.6836336507600116 0.42211192380001705 L0.6911206297600323 0.41421804379997695 L0.6942944577600336 0.4037199967999783 L0.6986076087599962 0.39883718480002983 L0.7083732337599962 0.4005868588000254 L0.7246899657600032 0.4070565857999924 L0.8649487547600323 0.41450287480002146 L0.9184969317600142 0.4020923928000144 L0.9375805907600032 0.4003020277999809 L0.9485262287600129 0.40083099980002146 L0.9541821527600085 0.4017668717999783 L0.959187035760035 0.40201101280003115 L0.9685864497600072 0.4003020277999809 L0.9760327387600363 0.3971281997999796 L0.9814038327600336 0.39273366879997695 L0.9854321527600085 0.38866465880001044 L0.988483910760035 0.3866301527999809 L1.0102938067600142 0.38532806979999634 L1.0747876217600059 0.3927743588000254 L1.0953361247599922 0.39061778380001044 L1.153604353760013 0.3729582777999809 L1.1630444577600336 0.3676685648000131 L1.1817619057599948 0.35448497080001573 L1.1911206297600323 0.35179942380001705 L1.2008862547600323 0.35513601280003115 L1.2151277907600182 0.3696216898000131 L1.2248934157600182 0.3729582777999809 L1.238972192760027 0.37271413780003115 L1.2493888587599962 0.37108653380001044 L1.2589103437599896 0.3670989027999809 L1.270222192760027 0.3592864027999809 L1.2788891847600006 0.3493580178000144 L1.2947583247600072 0.3250253357999924 L1.3044018797600323 0.3183114688000188 L1.3163647707600283 0.3178638768000184 L1.328815942760027 0.3216887467999783 L1.3401684817599993 0.3278736428000144 L1.3490796137600363 0.3347909607999924 L1.3594149007600116 0.3393482518000184 L1.3701570877600169 0.3375985778000228 L1.3804516847600006 0.33357025779999105 L1.3897697187599896 0.331372991799995 L1.4087313067600142 0.33662201480002807 L1.4209383377600169 0.348951116799995 L1.430378442760027 0.3627857518000184 L1.440957869760009 0.3729582777999809 L1.4753816977600103 0.38402598680001176 L1.5192456297600323 0.38671153380001044 L1.5550122317599993 0.3722258568000285 L1.5650626867599975 0.331372991799995 L1.559854353760013 0.331372991799995 L1.557901228760013 0.331372991799995 L1.5576570877600169 0.331372991799995 L1.5557446527600085 0.34638763980002807 L1.5484204347600006 0.35969330479998973 L1.5379630777599935 0.36929616879997695 L1.5269360597600006 0.3729582777999809 L1.5081372317599993 0.3708017028000228 L1.4738354737600297 0.3614022887999937 L1.4583325437600045 0.3592864027999809 L1.444050317760027 0.3543222107999924 L1.4275708247600072 0.34276622080001573 L1.4033602127600169 0.3214446068000285 L1.3945711507600116 0.31737559580001573 L1.3857007077600336 0.3190031997999796 L1.3769930257600116 0.32250254880001705 L1.3689770747600072 0.32453705479998973 L1.3599438717600059 0.32242116879997695 L1.352253442760027 0.317701116799995 L1.3462313067600142 0.3129810648000131 L1.3419181557599948 0.31086517979998973 L1.3280835207600283 0.3077727318000285 L1.3167716717599909 0.30199473680001176 L1.3036694577600336 0.29922780980002983 L1.2839754477600103 0.3046395938000188 L1.2738029217599909 0.31249278380001044 L1.2591137937600045 0.33202403380001044 L1.2491447187599896 0.33820892979998973 L1.2320548747599922 0.3390227318000285 L1.2051587157600032 0.32657155980002983 L1.187702660760035 0.32453705479998973 L1.1696362547600323 0.32856537480002146 L1.1256095617599975 0.35179942380001705 L1.0899243407600032 0.3624602318000285 L0.7695711507600116 0.38703705479998973 L0.7379142497599922 0.3759286558000241 L0.7182202387600363 0.3729582777999809 L0.699421410760035 0.37694590880001044 L0.6813550047600323 0.38654877279999766 L0.6532788327600336 0.4070565857999924 L0.6113680257600116 0.448560491799995 L0.6018465407600182 0.45551849980002146 L0.594196801760031 0.45881439779999766 L0.5867912027599935 0.4649179137999937 L0.5792228437599896 0.46776622080001573 L0.5706779217599909 0.4616627058000091 L0.5701082597600156 0.45429779680002014 L0.5730786377600019 0.44392181979999634 L0.574909692760027 0.43220306979999634 L0.5706779217599909 0.4207284607999924 L0.5537915277600085 0.43586517979998973 L0.5517163327600336 0.4441659607999924 L0.5576977777600085 0.45551849980002146 L0.5476880127600019 0.46060476280003115 L0.543415551760031 0.4616627058000091 L0.543415551760031 0.4684986428000144 L0.5481762937600045 0.46992279680002014 L0.5528149657600032 0.47297455479998973 L0.5576977777600085 0.47476491879997695 L0.5379223877600019 0.48469330479998973 L0.5038647707600283 0.489576116799995 L0.46927818176001423 0.49067474980002146 L0.44783449676000586 0.4890064558000091 L0.37031984876002966 0.4704110778000228 L0.3379712157600032 0.4684986428000144 L0.3440340407600182 0.45966888980002807 L0.3562817627600019 0.4349699967999783 L0.3584790277600085 0.4244719497999796 L0.3562817627600019 0.41059662480002146 L0.346394067760027 0.39078054379997695 L0.3441154217599909 0.38321218480002983 L0.34004641076003495 0.37621348680001176 L0.32161379376000454 0.3627043717999783 L0.3153068277599935 0.3516366637999937 L0.305378442760027 0.34569590880001044 L0.30326255676001423 0.34195241879997695 L0.30326255676001423 0.3214446068000285 L0.3118074787600129 0.27945241879997695 L0.31066815575999485 0.26366465880001044 L0.30501223175999925 0.2504810648000131 L0.29841201875998635 0.24062003280002386 L0.3610555327599876 0.24086884679999798 L0.42317060376006665 0.24107555279995552 L0.4852339987600338 0.2413339347999397 L0.547349070760017 0.2415406407999825 L0.6095158187599985 0.24179902279995247 L0.6715792147600403 0.24200572880000948 L0.7336942857600341 0.24226411079997945 L0.7744282447599993 0.24236586079996414 L0.7957576807600866 0.2424191398000204 L0.8578727527600698 0.24262584679998156 L0.920039500759966 0.24288422780004737 L0.9821028957600184 0.2430909338000049 L1.0442179667600975 0.24334931579997487 L1.1063847147599937 0.2435560217999324 L1.168448110760064 0.24381440380000186 L1.2306148587600454 0.2440211097999594 L1.2926782537600978 0.24427949180002884 L1.3416158347600025 0.24443452179997394 L1.357325470759971 0.23926687779996314 L1.3593408517600345 0.1995535397999788 L1.3617810987600443 0.1860118867999745 L1.3630098777600175 0.17919302579994678 L1.3708646967600622 0.15720470280005827 L1.3811999817600586 0.13627574779998497 L1.3923104157600754 0.11924836380005388 L1.423471303760035 0.08635631480001393 L1.4657426257600399 0.05602224879997664 L1.512044708760012 0.03889151180001704 L1.5553495597599998 0.045661124799963204 L1.5647029937600188 0.05434276479992661 L1.5840816557599986 0.0794833498000429 L1.5925565907600934 0.08573619679995659 L1.6138472807600657 0.08080109780000555 L1.689191518760051 0.033749706800023205 L1.7621069647600471 0.007549755799999502 L1.7835010077600622 0.008583283799993069 L1.8430322577600542 0.03064912079997839 L1.944008006759983 0.0350932937999886 L1.980543243760021 0.04695303580001564 L1.999497376760015 0.061938733800033674 L2.015838247759998 0.074858308799989 L2.0284989737600334 0.09191153180002232 L2.037438995760052 0.11033417979993487 L2.056869334760048 0.1752139398000594 L2.063793976760021 0.18283621380003012 L2.1048767397600976 0.20714997480003206 L2.1188810537599885 0.21208507479998673 L2.131231720760038 0.20820934180002837 L2.192623321760035 0.17464549980000754 L2.233137645760049 0.16402599279993524 L2.2742720857600283 0.16707490179994977 L2.3172152007599855 0.18671194579998485 L2.3365680247600515 0.2018789788000106 L2.3500814107600227 0.21844127479999997 L2.3595898747600152 0.23756155579999927 L2.37294823276002 0.28099559679999686 L2.379433625759983 0.2944056307999574 L2.3895363677600265 0.3051801667999712 L2.3976765927600603 0.31087806379997573 L2.470229115760045 0.3616625077999345 L2.494258657759982 0.3726954258000177 L2.512526275760049 0.3751758947999946 L2.529863719760069 0.37109345679998285 L2.5885939847600206 0.35057791380000936 L2.644016958760087 0.31678152680002825 L2.662982208760038 0.30874584179994713 L2.7206789457600244 0.29598176279998256 L2.76692935275997 0.2728048827999743 L2.7872123517599867 0.2678439448000205 L2.7979610497600014 0.267482209800022 L2.81535016976002 0.2689291498000159 L2.825788808759963 0.2673271807999953 L2.837545197760047 0.26221121380000056 L2.8579057117599937 0.2505065018000181 L2.8713157457600254 0.24838776880004332 L2.892322215760057 0.251953441800012 L2.91772118176004 0.2606092437999621 L2.941724884760074 0.2725465008000043 L2.9584680487600075 0.2859048588000377 L2.9636356927600183 0.2946123368000002 L2.9700177317600627 0.3135775878000544 L2.9752112127599695 0.32200084580003363 L2.9773074817600467 0.3237526848000414 L2.9843321037600354 0.32962311980001857 L3.007018056760014 0.3427230957999825 L3.017120799760047 0.35088797179999176 L3.0410986637600637 0.3981719077999486 L3.037248769760023 0.44933157480004127 L3.008775055760079 0.49178376379997246 L2.9592431957600205 0.5129711017999341 L2.883692251760092 0.5193273027999652 L2.8435396637600796 0.5298951328000214 L2.8032320467600265 0.5303602207999631 L2.760314768760079 0.5455789307999908 L2.7430031637599903 0.5453722237999443 L2.7280169987600082 0.551960969800021 L2.6799837557600448 0.5874110017999641 L2.6581246237600133 0.597978832800024 L2.629185821760043 0.5989606847999909 L2.5748997307599915 0.5889871337999892 L2.518029816760045 0.593896394799927 L2.490977203759993 0.591829336799961 L2.464828928759996 0.5845687987999924 L2.4283712067600867 0.5660944737999642 L2.4177775377599993 0.5589889648000366 L2.4083207507600513 0.5506690597999722 L2.400672638760053 0.5406179927999517 L2.3894846917600283 0.529275015800053 L2.3761780097600216 0.5256059887999669 L2.3447070627600475 0.52436575480003 L2.3302376617600338 0.520257478800005 L2.316956817760026 0.5128677488000051 L2.30770204876006 0.5044399747999933 L2.279077992760019 0.4783737298000261 L2.2676575017600236 0.47439464479995763 L2.235256378760024 0.482352815800013 L2.1982043767600565 0.4866161207999795 L2.1616691397600185 0.482352815800013 L2.128234487760036 0.46852936979996684 L2.1003292147600483 0.4441639318000341 L2.0801754057599986 0.41664623179995885 L2.0694783847599716 0.41018667779999873 L2.0490145177600105 0.4063626217999712 L2.0306693837600243 0.4005231847999795 L1.9972347317600416 0.38047272880002936 L1.9821968907600613 0.3761577467999615 L1.943904653760054 0.37310883779993276 L1.9101082667600586 0.36445303579998267 L1.8447375807600075 0.3317935298000094 L1.8445825507600624 0.33169017779998455 L1.8443758447600054 0.33153514779994 L1.8442208157599644 0.3314834708000234 L1.7945597647599776 0.29626598279995164 L1.7496529447600686 0.255054028799961 L1.722161082760092 0.23756155579999927 L1.6993200997599978 0.24655325480003398 L1.6784797467600718 0.2676909737999864 L1.6558602207599868 0.290633251800017 L1.6418559067599823 0.31285411679996855 L1.6380835277600703 0.3747108067999676 L1.6320373847600216 0.40235769879997463 L1.6114701647600178 0.42855764979999833 L1.5827380677600296 0.4472386787999767 L1.5499752097600172 0.45909842179999316 L1.5174190577599767 0.4649636957999945 L1.4805737617600663 0.46501537180000696 L1.371484812760027 0.44227774180002655 L1.3402722477600513 0.4409341547999617 L1.3168628237600863 0.4495382807999988 L1.2937634587600222 0.4618631097999497 L1.2636877757600438 0.47170747079992736 L1.2473580227600927 0.47330943980004747 L1.1799202787600755 0.4668757238000012 L1.1673112287600382 0.46718578279998724 L1.1224044097600334 0.4811900958000024 L1.0526929017600217 0.4877530027999768 L1.0411173817600705 0.4940058507999794 L1.0371382967599878 0.5081135168000088 L1.0354439417600325 0.579022243799983 L1.0350712387600218 0.5946198648000092 L1.033210887760017 0.6658558267999695 L1.026492950759998 0.6706875727999915 L0.9890275377600197 0.6703775147999949 L0.96236998975996 0.6701351737999346 L0.898077016759995 0.6695506917999836 L0.7677490547599994 0.6684138097999721 L0.5465222477599774 0.6664501048000346 L0.3945935367599951 0.6651065177999698 L0.22979739476002337 0.6636337397999768 L0.18628583875999638 0.6632203287999658 L0.15140424676001984 0.6708426018000182 L0.1366247867600201 0.6952855547999661 L0.1334725247600339 0.7048973707999835 L0.1176595367600406 0.7201419188000244 L0.11130333476003429 0.7283067948000337 L0.10768598476004954 0.7394947427999767 L0.10615969276002701 0.7625253357999924 Z" fill="black" stroke="black" stroke-width="0.5" vector-effect="non-scaling-stroke"/></svg>