<svg xmlns="http://www.w3.org/2000/svg" viewBox="0 0 6.843003280474704 2.5823664053999664"><path d="M1.6323067750190603 1.1947024866999385 L1.581285285019078 0.9605895276999803 L1.5638699210190907 0.9209166766999459 L1.5384792960190907 0.8874694106999499 L1.505438931019114 0.861264983699968 L1.46458606701907 0.8438903096999724 L1.38841419201907 0.8335143326999486 L1.3721381500191114 0.826800465699975 L1.3560248690191088 0.8158548276999653 L1.3318549470191101 0.8059264416999525 L1.3064643220191101 0.7988463636999512 L1.2864447910191075 0.7967304786999847 L1.2748074210190907 0.7992532646999706 L1.2547065090190586 0.8083678486999446 L1.2420111970191101 0.8103209736999446 L1.2313503890190987 0.80551954069999 L1.1858588530191128 0.7545755306999666 L1.1629096340190586 0.6930114026999803 L1.1214057280191128 0.6398294366999693 L1.1042345040190753 0.6111836036999847 L1.0794949210190907 0.611712574699979 L1.0401069000191114 0.6247740986999446 L1.014879035019078 0.6184264416999525 L0.9850938790190753 0.58481641569999 L0.9676785140190987 0.57700391569999 L0.9673529940191088 0.5718769626999887 L0.9439154940191088 0.5421731866999693 L0.9370795560191141 0.5381041766999459 L0.8641628890190987 0.5169860126999737 L0.7639838530191128 0.5068541766999459 L0.7173529940191088 0.5086852306999816 L0.6851264310191141 0.5146666766999459 L0.6729194000191114 0.5155211686999763 L0.6610378890190987 0.512347340699975 L0.641832160019078 0.49818718469997236 L0.6316596340190586 0.49505404669996267 L0.6271837230190727 0.49232780969997236 L0.6100938790190753 0.478900074699979 L0.60130481701907 0.47389519169995253 L0.5913764310191141 0.4712096456999433 L0.5596381500191114 0.46714063469998734 L0.47939726401909866 0.43882032269998206 L0.44228788901909866 0.43568718469997236 L0.41624622301907266 0.46030469769998206 L0.40615507701909337 0.4523294366999693 L0.39142525901905856 0.4254332776999803 L0.38214791601910747 0.412493824699979 L0.3594428370190599 0.39564812169997765 L0.34951445201909337 0.3847838636999512 L0.353908983019096 0.3531676526999803 L0.338283983019096 0.32374870769994857 L0.31631132701909337 0.2967304786999847 L0.3001980460190907 0.2821227306999816 L0.2693549470191101 0.27158399369993447 L0.21458606701907001 0.2595397236999446 L0.18244088401905856 0.2359801526999803 L0.16803658701905988 0.23085319969997897 L0.12189400901905856 0.2253600356999499 L0.09088815001911144 0.21600131169996928 L0.06708826745563101 0.21217029795164422 L0.0723965390191097 0.194841852699966 L0.1402993720191148 0.06596083069993597 L0.15394195001914568 0.05009616569992659 L0.17781646101911974 0.038520645699975375 L0.24540923501911038 0.025317317700000785 L0.3142422430191232 0.02539483169999812 L0.5609455300191257 0.09241916470000433 L0.6007363830190684 0.09598483869999086 L0.631948948019101 0.08991285669995364 L0.6966478410191144 0.0653148756999542 L0.7330280500190725 0.062188451699910274 L0.7621735570190822 0.07309217869996587 L0.7710774880191593 0.07803059070002405 L0.8212913960190917 0.10588087469997731 L0.9238174370191246 0.1317707677000044 L0.9560635310190833 0.1455166986999643 L1.092902725019087 0.2257443596999451 L1.1235985250191334 0.2313254136999774 L1.2277782120191318 0.2213001866999491 L1.2618846580190848 0.22646782969994206 L1.2942341050190862 0.23837924769998153 L1.3250332580190616 0.25695692569993867 L1.3598631730191073 0.26796400470001913 L1.4313833550191362 0.2578095856999596 L1.4617690970191006 0.26638787369989814 L1.4708641500191675 0.2762839106999877 L1.484920140019085 0.29964165769993656 L1.494221897019088 0.30987359069990816 L1.50869129801913 0.317960953700009 L1.5608844950191383 0.3299240466999436 L1.5872394760190787 0.34137037669995607 L1.6316812070191418 0.37488254269996446 L1.6586563050190648 0.38586378469995 L1.695243219019119 0.38813754769998354 L1.7685204000191561 0.3809545246999164 L1.8049006080191248 0.38392591869993 L1.8700129130191385 0.39759433469993155 L1.9014321840191428 0.3999197746999812 L1.9710920150191669 0.3941320146999203 L2.0004442280191483 0.3952172186999974 L2.029383030019119 0.4010824946998923 L2.0608023010190664 0.41250298669999097 L2.0924282770191667 0.4192984366999326 L2.124467666019143 0.42059034769999926 L2.156403701019144 0.4158877926999196 L2.2354458730191027 0.38366216369996664 L2.2409463440191075 0.381419611699954 L2.2664745020191503 0.37568352769989133 L2.43566314101912 0.36514153570001895 L2.4436720120190785 0.3659654436999631 L2.503979385019079 0.3721695306999493 L2.560823460019094 0.40025567169996634 L2.5871784410190912 0.4196084957000039 L2.6160138900191328 0.43609327769999595 L2.6769920790191577 0.46113050869990957 L2.696319065019111 0.4641794177000236 L2.710478408019071 0.45989027369995483 L2.7373501520190757 0.4413642737000316 L2.754713434019095 0.4352664546999847 L2.7860293520191135 0.43472385169994254 L2.832641493019082 0.424207697699984 L2.8724323460190817 0.4249828446999686 L2.91087961201913 0.432398412699996 L2.9387848850191176 0.4457050937000133 L2.9668968650190664 0.4653162996999356 L2.9959390200191365 0.47921725969993645 L3.0812051330191252 0.5024974926999448 L3.081308486019111 0.5158041746999515 L3.0736603740191413 0.5323406316999524 L3.0708698470190825 0.5484895176999487 L3.0799648980191705 0.5589539946998912 L3.129367568019063 0.5841979326999365 L3.2366995180190656 0.6587670236999088 L3.2563403730191567 0.6666888356999721 L3.275456842019082 0.6743991446999473 L3.4672902250190987 0.7142775516999222 L3.5607107490191083 0.7336978506999685 L3.598537897019071 0.7407000076999566 L3.667370904019151 0.7655305336999163 L3.684114069019131 0.7763567456999567 L3.725455214019064 0.8125819246999981 L3.743955378019166 0.8213152416999776 L3.8370763080191637 0.8380325676999973 L3.863637561019061 0.8479469246999258 L3.881724746019131 0.8546982176999336 L3.8928868550191282 0.88389540069997 L3.8698391660190623 0.9080799716999479 L3.8349058980190875 0.92650261969996 L3.8067939190190714 0.9467597806999493 L3.803693333019112 0.9762928626999781 L3.8322187240190715 1.0024152986999866 L3.8772805720191172 1.0113294836999955 L3.9261148010190823 1.014120010699969 L3.966474095019123 1.021948989699979 L3.9892724480191646 1.0348769187000073 L4.001924128019084 1.0420511216999557 L4.020837701019104 1.0489499256999295 L4.039544570019075 1.0467536777000248 L4.054324030019131 1.0371676996999213 L4.0791287170191595 1.0117945716999373 L4.092616266019093 1.0008391676999508 L4.136179498019146 0.9858530026999688 L4.231935928019084 0.9824940336999646 L4.266915371019081 0.9746518066999954 L4.278496393019111 0.9720553956999254 L4.292462642019075 0.9615256367000029 L4.311259251019123 0.9473540597000181 L4.329759413019133 0.9191645656999583 L4.3531171610190995 0.8987782137000124 L4.441793919019062 0.8974087886999484 L4.4825149470190695 0.887641942699986 L4.560339655019106 0.8568686276999244 L4.589226780019146 0.8508741616999203 L4.639404596019062 0.8480577946999404 L4.682089329019163 0.8520368807000125 L4.719870735019072 0.8610111416999473 L4.723533828019129 0.8618812407000007 L4.760534154019069 0.8774875236999264 L4.776140436019148 0.8869443106999029 L4.805596002019058 0.9101211906998969 L4.81748158201907 0.9236087396999721 L4.842182916019169 0.9819255926999233 L4.854585260019064 0.9915115706999131 L4.863421929019069 0.9845094146999145 L4.879596653019064 0.9294223386999363 L4.908535455019091 0.88319776969999 L4.914788304019112 0.8670747226998969 L4.940471491019082 0.8416499176998968 L4.984086399019134 0.8480836336999573 L5.093227025019075 0.905857884699941 L5.1109003640190735 0.9123949536999305 L5.129193821019157 0.9152629956998908 L5.14810739501911 0.9127050127000018 L5.157130103019142 0.9097479907000263 L5.185004368019122 0.9006127277000076 L5.204072972019105 0.8988815666999415 L5.2364740940191155 0.9078991037000037 L5.265309544019146 0.926321751699902 L5.363804824019098 1.0147659667000255 L5.374760227019067 1.0282535146999976 L5.382683231019087 1.0413178116999404 L5.393673802019123 1.0594402426999636 L5.40380238201908 1.071041600699914 L5.4370820050191355 1.0811960196999735 L5.47966338501908 1.0767776846999766 L5.560381972019115 1.0588201246999915 L5.617949518019145 1.0598019766999585 L5.70176869101914 1.070783218699944 L5.7798001040191025 1.0935725256999547 L5.820727838019138 1.1296943516999534 L5.820618197019144 1.1305131227000231 L5.817523899019079 1.153620539699972 L5.702492161019109 1.3766818596999713 L5.7125173890190695 1.3999879307000072 L5.742696425019062 1.4144573316999356 L5.782900690019062 1.428409968699924 L5.892713108019109 1.4856674556999678 L5.962476292019062 1.4991291656999408 L5.976273899019134 1.5092835847000003 L6.004592584019122 1.5615284576999784 L6.015237929019122 1.5726647286999196 L6.0286738010190675 1.5782457836999413 L6.047484023019081 1.5790984446999516 L6.054615371019111 1.5770055496998907 L6.067844538019074 1.5692540846999918 L6.076267796019067 1.5677037916999552 L6.082727350019127 1.5701842596999427 L6.09947051401906 1.58111382569993 L6.107842096019169 1.584369440699902 L6.125928847019168 1.5834392656999512 L6.139571425019085 1.5808296056999325 L6.149389947019074 1.5858422196999982 L6.156107884019093 1.6076755126999274 L6.180292454019138 1.6160987706999208 L6.2109882550190605 1.6166672106999727 L6.2696926820191266 1.6076238356999966 L6.270002740019095 1.6075204826999823 L6.270312799019109 1.6073912916999404 L6.27878773401909 1.6056601316999775 L6.287262669019128 1.605065852699937 L6.295685927019122 1.6056601316999775 L6.305452773019169 1.6076755126999274 L6.331601048019081 1.6234368237000183 L6.375267633019121 1.6625300446999347 L6.4037413470191495 1.672141860699952 L6.463169245019117 1.6759142406999672 L6.487663873019073 1.6861203366999575 L6.512003473019092 1.7107183176999285 L6.473866266019115 1.769474421699897 L6.452420547019074 1.795467666699949 L6.409425755019129 1.8347417556999233 L6.3948530010191575 1.844508601699971 L6.378884983019077 1.8503480376999732 L6.358059382019064 1.8518466546999832 L6.311240534019134 1.8438368077000007 L6.289433079019091 1.8456454826999789 L6.27010609401907 1.8610192216999621 L6.260649306019161 1.8952806956999666 L6.261114394019103 1.9460011146999534 L6.273878473019067 1.9909854486999734 L6.300801894019116 2.007857803699949 L6.309586887019066 2.002431778699986 L6.314547825019133 1.993207534699991 L6.321162409019109 1.9856627756999217 L6.335011692019066 1.9852493647000244 L6.337285455019128 1.9908304187000283 L6.359506321019126 2.022766454700019 L6.3609829700191085 2.0299883176999742 L6.368963108019102 2.0690168616999642 L6.377851454019094 2.090772639699992 L6.395059706019083 2.1074124506999965 L6.447356257019123 2.134594253699902 L6.4590351300190605 2.138676691699999 L6.479395644019121 2.1424490716999287 L6.526214492019108 2.175211929699941 L6.623572890019091 2.206166112699947 L6.672665501019139 2.228231948700028 L6.688478490019122 2.2561372226999197 L6.703981419019158 2.251538020699968 L6.710952444019142 2.2550235326999655 L6.712146295019068 2.2556204586999797 L6.718864232019087 2.264198745699929 L6.738191217019107 2.280528498699937 L6.769610488019168 2.316805354699909 L6.775915013019073 2.3313781086999654 L6.772814426019124 2.3326183426999023 L6.764546198019104 2.331688166699962 L6.755761204019109 2.339491307699973 L6.753797500019061 2.3471910966999587 L6.752712294019091 2.364709406700001 L6.750593561019116 2.37127231369999 L6.744702447019108 2.3776285146999214 L6.731473281019078 2.3869819496999582 L6.725582167019127 2.3931831216999626 L6.715866998019067 2.4201065426999833 L6.710596002019145 2.454419693700004 L6.702224420019149 2.4865624346999198 L6.6966505620191015 2.492493973699993 L6.682897435019129 2.5071296546999235 L6.663260391019094 2.5095067706999714 L6.644243463019109 2.5055793617000006 L6.624658095019072 2.504132420699989 L6.603522434019112 2.5141576497000244 L6.592256972019072 2.5301773426999716 L6.586675917019079 2.54588697869994 L6.577890924019073 2.5563256176999687 L6.5560317930191445 2.5570490876999656 L6.538100071019073 2.5487291826999297 L6.510143121019155 2.52020379169997 L6.49376169201912 2.5093000646999997 L6.434230443019146 2.494623957699929 L6.413456516019096 2.485270523699967 L6.354545384019104 2.4448595536999846 L6.325503229019091 2.4174193676999494 L6.309690240019108 2.4057404946999554 L6.291706842019096 2.4009862626999734 L6.216517633019066 2.4012446446999434 L6.194245091019127 2.4051203766999834 L6.168719903019166 2.417500856699945 L6.142465306019062 2.4302351226999406 L6.122724908019109 2.435712824700005 L6.09854033801912 2.4373664706999705 L6.0502745500191395 2.432870621699948 L5.901859837019117 2.3923562976999335 L5.851448764019153 2.369058004699923 L5.83220000601915 2.360161880699991 L5.790858860019114 2.333445164699924 L5.76698434801915 2.3049197746999823 L5.789205215019081 2.2840424956999072 L5.812149551019104 2.2778930006999474 L5.8264122460191174 2.272001887699929 L5.825172012019152 2.265800715699953 L5.801814264019129 2.2587727206999375 L5.736701959019115 2.248799168699918 L5.5929381250191454 2.206579524699947 L5.560381972019115 2.183480158699979 L5.545912571019073 2.1709744626999736 L5.531133112019063 2.168959080699949 L5.498060195019093 2.176555516700006 L5.477906387019118 2.177899103699957 L5.462351780019162 2.1755736646999253 L5.414207509019093 2.1568074517000184 L5.395534153019128 2.1495287426999425 L5.362822972019103 2.1482368327000074 L5.330731908019118 2.156660090700001 L5.178945412019061 2.2512410986999214 L5.083511856019129 2.310707534699958 L5.071109511019074 2.316702000699962 L5.048475234019122 2.3321532546999606 L5.036279596019085 2.3384577796999793 L4.99834909501908 2.339387955699948 L4.901817519019062 2.3278124336999895 L4.882387181019112 2.34264357069992 L4.890655410019065 2.35675123569996 L4.928172500019059 2.3703938136999625 L4.934932398019157 2.3776459376999526 L4.938817845019116 2.381814305699976 L4.928895969019152 2.3922529456999087 L4.902644342019073 2.3949401196999247 L4.756038303019068 2.3926663566999196 L4.714232070019079 2.380108983700012 L4.693974908019129 2.37804192669995 L4.672477513019146 2.385379979699934 L4.6595584050191405 2.398350763699966 L4.64736276701916 2.4142154286999755 L4.632634983019159 2.424137303699979 L4.612119440019171 2.4196931306999545 L4.606641738019164 2.4120966957000007 L4.603024388019094 2.4018647617000113 L4.597753392019058 2.3943200026999705 L4.587004694019129 2.3945783846999404 L4.5804934630190814 2.398350763699966 L4.560339655019106 2.415352310699973 L4.536051732019075 2.4206749837000245 L4.513572483019061 2.419486424700011 L4.491713353019065 2.413440282699952 L4.438383275019078 2.3889973296999187 L4.426032607019124 2.387912125699927 L4.4141987040191 2.3908060056999147 L4.406033828019076 2.3963353837000057 L4.398850803019116 2.402588231699923 L4.389600722019111 2.4073424636999903 L4.366087946019093 2.410288020699909 L4.347587783019094 2.404965347699971 L4.29921864301906 2.3795922196999584 L4.272088516019096 2.371117284699949 L4.261443170019163 2.3712206376999916 L4.2495575910191405 2.377576838699923 L4.246973769019064 2.3850182446999497 L4.246301976019083 2.393493179699931 L4.2411860090190885 2.4032600256999785 L4.225476373019092 2.415093928700003 L4.20583932901917 2.4231037756999854 L4.184755344019152 2.425997655699973 L4.142380670019122 2.4170059567000237 L4.122433567019129 2.4186079256999733 L4.082229303019062 2.432302180699992 L4.059298302019101 2.4365428456999325 L4.058867202019144 2.4366225696999493 L4.0369607490191015 2.4406737626999586 L3.944356582019111 2.4421723796999686 L3.901465143019095 2.4556599276999407 L3.8548530010190802 2.4866657866999446 L3.8352676330191002 2.492918635699965 L3.8108246810191417 2.4944689286999733 L3.647733860019059 2.477105646699954 L3.6052558330191005 2.478345881699994 L3.5512539610191425 2.494985692699913 L3.5414354390191534 2.496639338699964 L3.531565240019063 2.4964843086999338 L3.521540012019159 2.4945722816999023 L3.5329088280190604 2.468579035699946 L3.5186978090191587 2.444962906699942 L3.4916710340191344 2.425997655699973 L3.464385879019119 2.4139570467000055 L3.432863255019072 2.407549169699962 L3.4037177470191295 2.409099461699981 L3.311733697019065 2.4285298006999483 L3.297315973019124 2.420623306699923 L3.273338108019118 2.3761815746999275 L3.253132624019088 2.3588182937000113 L3.233443903019065 2.3570096186999194 L3.2114297420191065 2.3588699696999242 L3.1842479390190874 2.3523587396999517 L3.2383531630190987 2.3314297846999636 L3.252977594019171 2.321817967699957 L3.266465143019161 2.3073485667000284 L3.2651215560190963 2.3021809236999218 L3.2358726950191112 2.299287043699934 L3.205021865019148 2.2882282866999333 L3.1567560770191108 2.2562922516999606 L3.083168837019059 2.21846510269998 L3.0686994360191306 2.206476171700018 L3.038830458019106 2.1641531736999298 L3.031078994019083 2.157486913700012 L3.022190648019091 2.154851414700005 L3.0173330630190662 2.1509240067000235 L3.0133023010191664 2.1463764806999848 L3.0072044820191195 2.1420873367000297 L2.9777489160190953 2.134594253699902 L2.970100803019136 2.131183609699974 L2.96183257401907 2.1199181467000017 L2.956251520019066 2.107464126700023 L2.949120172019093 2.1009528966999653 L2.9356843000191475 2.107360773699895 L2.911086318019102 2.128651463699981 L2.892276097019078 2.124000584699928 L2.873259169019093 2.108290949699949 L2.8476276590191105 2.096818782699927 L2.8559992410191057 2.086896906699934 L2.87573963801907 2.0743395336999413 L2.8838011620191537 2.0670531566999557 L2.887935276019107 2.0581648106999353 L2.890002334019073 2.048242935699932 L2.893309626019061 2.0381660306999834 L2.901061090019141 2.0288125966999644 L2.8820441630190885 2.021939631699979 L2.7421043840191714 2.0128962556999284 L2.6916681860191716 2.016100194699902 L2.6720254530191028 2.020990834700001 L2.6677594870191115 2.0220529726999388 L2.6663467340191005 2.022404719700006 L2.6462962790191114 2.0340319166999734 L2.636064345019065 2.0508267566999336 L2.6266592350190763 2.091547785699902 L2.6166340070190586 2.1076708326999665 L2.594929905019171 2.124930760699982 L2.564957574019104 2.158985530699937 L2.5441836490190894 2.1693208156999333 L2.532144488019071 2.1697895536999 L2.518965550019061 2.1703026687000033 L2.343575739019059 2.1188329416999068 L2.294379775019138 2.1209516756999847 L2.270401910019075 2.1194530586999747 L2.2537620990190703 2.1076708326999665 L2.239499403019124 2.1012629546999335 L2.22430653301916 2.1009012196999493 L2.1928872620191555 2.1076708326999665 L2.178624567019085 2.1028132486999596 L2.1645685770191676 2.1010562496999796 L2.150512588019126 2.1025548657 L2.1360431870190837 2.1076708326999665 L2.100696506019119 2.11609409069996 L2.0290729720191507 2.0955785477000006 L1.9888687080190834 2.1076708326999665 L1.9751227760190773 2.115629002699933 L1.9438068580190588 2.14937371369993 L1.9037059470190911 2.1751602536999144 L1.8940941300191412 2.179346044699969 L1.8818984930191505 2.1754703116999963 L1.842107640019151 2.14761671469995 L1.828878473019131 2.1443094226999335 L1.7996296130190785 2.141570572699891 L1.7879507390190952 2.138004898700018 L1.7837132710191668 2.131700373699914 L1.7839199770191385 2.1235354966999864 L1.7850568590191074 2.1160424146999617 L1.7837132710191668 2.112115005699991 L1.7760651590190832 2.1120633296999642 L1.7509504130191544 2.1206932936999294 L1.7210814360190625 2.1224502926999946 L1.7083690330190962 2.120641617699903 L1.6018744780191128 2.0869323006999423 L1.6673855460190907 1.998431324699979 L1.696845181019114 1.9685240986999446 L1.7571479160191075 1.9389830826999486 L1.7739936190191088 1.9088724056999666 L1.8208686190191088 1.851255217699972 L1.823472785019078 1.8394957776999803 L1.8235541660191075 1.830462574699979 L1.8250190090190586 1.8225280046999472 L1.8311225250191114 1.8136575616999693 L1.84739856701907 1.7969746186999345 L1.8529324210190907 1.7885924576999486 L1.855048306019114 1.7795592546999472 L1.855048306019114 1.6985452566999442 L1.855048306019114 1.6942321056999816 L1.8430854160191075 1.6312845146999706 L1.841376431019114 1.6085794366999693 L1.8368191390190987 1.594744801699946 L1.796373176019074 1.5418069756999415 L1.766018358019096 1.5022155046999472 L1.755438931019114 1.4956237076999486 L1.7451850250191114 1.4872008556999816 L1.7403022120190599 1.4681578876999737 L1.7383490870190599 1.4341002706999433 L1.7302924470191101 1.3889342546999472 L1.677313931019114 1.2517272236999446 L1.673407681019114 1.2457457776999803 L1.6663276030191128 1.2382994886999512 L1.6394721340190586 1.2183613376999887 L1.635972785019078 1.211321949699979 L1.6323067750190603 1.1947024866999385 Z" fill="black" stroke="black" stroke-width="0.5" vector-effect="non-scaling-stroke"/></svg>