<svg xmlns="http://www.w3.org/2000/svg" viewBox="0 0 4.5394872560400295 6.554325506399955"><path d="M3.1409049240200257 0.09221504319990359 L3.1483463300200523 0.10875150219989749 L3.1649344640200407 0.12386685819999244 L3.1852691400200737 0.13500312820001525 L3.203665950020058 0.139654007199983 L3.221985245020056 0.1377936561999782 L3.2559366620200816 0.1289311481999711 L3.274746883020077 0.12862109019998869 L3.3081298580200436 0.14120430019992014 L3.3232193770200578 0.16461372419997033 L3.3264233160200316 0.1955679081999797 L3.323581112020042 0.2309921021999095 L3.321203996020108 0.2435236361999138 L3.3142018390200914 0.25039660219997373 L3.3054426840201128 0.25590014219996604 L3.2974328370201302 0.26419420919993186 L3.29257525202002 0.2735993201999811 L3.2709228270200352 0.3740583051998847 L3.2716979740200482 0.38374763619991725 L3.2768139400200536 0.40341051819995144 L3.2749535890200487 0.4140300251999385 L3.266323624020094 0.4221690631999486 L3.2459114340200355 0.4358374791999644 L3.2318037680201197 0.4535366571999653 L3.224207332020063 0.4709774532000104 L3.2188846600200858 0.512783687199974 L3.215449615020111 0.52694164219999 L3.2093245190201056 0.552186967199976 L3.208678564020124 0.5730384071999488 L3.2188846600200858 0.5937089801999527 L3.227669653020092 0.6009436801999222 L3.2386508950200774 0.6061371621999321 L3.250562313020003 0.6091860721999645 L3.2736616780200958 0.6121316281999647 L3.280793025020108 0.6168341841999485 L3.2870458740200146 0.6228544881999802 L3.2960892500200654 0.6289264691999286 L3.3273534910200677 0.6391584021999144 L3.33644854302006 0.6446619421999067 L3.344355037020085 0.6540153761999399 L3.3560339110200683 0.6762362421999804 L3.364276302020107 0.6860806021999544 L3.4171929690200837 0.7189468141999846 L3.433031795020076 0.7355866241999145 L3.483984758020119 0.8295085412000169 L3.4868786370201175 0.8330225381999732 L3.4945267490200873 0.8322473911999744 L3.4987642170201294 0.8263562781999703 L3.5014513910200886 0.8198192091998955 L3.504086890020096 0.8169253291999077 L3.5306227370200016 0.8272347781999976 L3.5402345540200084 0.8285783651999772 L3.551577531020092 0.8256586471999761 L3.560956803020053 0.8211111201999479 L3.570026017020103 0.8182689171999762 L3.5802579510200925 0.8205943561999085 L3.59012814902008 0.8303870401999696 L3.5905673990200793 0.8414199581999675 L3.587234269020092 0.8520136261999376 L3.585839006020114 0.8605660771999659 L3.5970527910200527 0.878704504199991 L3.614080176020087 0.8939232141999334 L3.6245963300201307 0.9098653931999543 L3.615811336020135 0.9300967161999587 L3.6297639730201237 0.929941687200003 L3.673611425020061 0.9227069861999446 L3.683197403020051 0.9272545121999833 L3.703609595020003 0.943971838199932 L3.679063289020041 0.9620585891999447 L3.674309057020059 0.9773806511999972 L3.6714410150200703 0.9937879191999635 L3.6642063150201007 1.0071979531999098 L3.665859961020038 1.0408651491999485 L3.66061480302003 1.1116876991999085 L3.6704074870200767 1.1375259151999195 L3.683094051020026 1.1456132772000025 L3.6941011310201244 1.148248775199935 L3.7021626550200093 1.1548375201999228 L3.7051598870201072 1.1750688441999166 L3.701584355020122 1.1916383831999902 L3.700922420020083 1.1947058881999517 L3.6897603100200396 1.1975997671999359 L3.674309057020059 1.1950676231999502 L3.6567907470200733 1.198374914199949 L3.66273353602009 1.208219274199923 L3.662139258020124 1.2145754761999576 L3.658754452020025 1.2207766471999442 L3.6567907470200733 1.2300267291999525 L3.658444392020135 1.2367446651998826 L3.6704074870200767 1.2604124722000059 L3.6772029370200467 1.2801787071998838 L3.6765828210200535 1.2883694211999064 L3.6696065020200646 1.2945189171999694 L3.6567907470200733 1.3082390101999017 L3.648729223020103 1.3234060421999239 L3.6466880040200405 1.3373586791999124 L3.65120969202008 1.3774337521999094 L3.650899633020094 1.388802567199992 L3.6294539140200524 1.4665239211999115 L3.6309008540200463 1.4851274371999672 L3.6361460130200722 1.4959019731998957 L3.643303198020112 1.5037051141999207 L3.6499694580200295 1.5136528272000085 L3.6546203370200825 1.5283547721999078 L3.656894100020031 1.546544876199949 L3.6541035730200573 1.564037349199996 L3.6436649330201245 1.5763621791999505 L3.6257332110200533 1.5785842651999538 L3.6089383700200752 1.5693600221999482 L3.5822991700200415 1.5416097771999127 L3.5679847980200687 1.5700318161999327 L3.5687082680200657 1.5992548381999718 L3.5846504470200724 1.620209631199959 L3.615811336020135 1.6235169221999577 L3.6563773360200624 1.613284989199986 L3.676169409020053 1.617057369199916 L3.684747697020077 1.6377796181999464 L3.677823055020104 1.6515513871999765 L3.661622493019996 1.6560989132000152 L3.64317400702007 1.652998328199974 L3.6294539140200524 1.6440583051999518 L3.611573869019997 1.6556338251999883 L3.587544328020078 1.6570290891999697 L3.5372114830200925 1.651448034199948 L3.5347568520200294 1.6578559121998957 L3.5300801350200626 1.6860195681999421 L3.5304160320200477 1.6924016071999723 L3.5329223390200237 1.695269649199961 L3.5402345540200084 1.7016000121999788 L3.550130591020098 1.7084988161999526 L3.560517554020043 1.7129429881999592 L3.586019873020069 1.7081887571999665 L3.6001533770200975 1.7089122271999635 L3.6089383700200752 1.7197384391999186 L3.6051143140200335 1.7300995651999251 L3.59232439702007 1.738832881199901 L3.5767439530200473 1.7448531861999363 L3.5350669110201007 1.7532247682000026 L3.5349635580200864 1.7674616251999744 L3.541991553020102 1.7834296431999128 L3.5338266760200607 1.7948501341999226 L3.5383742030200036 1.808234330199955 L3.5569002040200584 1.8102497111999902 L3.5755037190199968 1.8065548461999903 L3.6212373620200307 1.7907160191998948 L3.628833797020098 1.7843598191999668 L3.632761206020069 1.7758590451999545 L3.635810116020087 1.7556277221999643 L3.640796891020136 1.7477212282000103 L3.655963924020062 1.7411583211999364 L3.6784431720200583 1.7371792351999495 L3.7186732750200857 1.7349571491999463 L3.7374576570200926 1.7380060591999644 L3.7905293540200145 1.7571780151999725 L3.796937231020058 1.7660663611999077 L3.798694230020123 1.775910721199967 L3.796420467020118 1.7861684941999592 L3.789805883020028 1.797356441199998 L3.789599178020074 1.798338293199965 L3.789805883020028 1.7993201451999319 L3.7905293540200145 1.8003536741999149 L3.8202949790200247 1.810404740199946 L3.838381730020023 1.8260885371999969 L3.8445829020201128 1.8495496381999779 L3.835281144020092 1.9002442171999583 L3.833627498020041 1.9295447541999131 L3.8294933830200986 1.942127966199937 L3.819364803020056 1.9524890901999505 L3.8080993400200835 1.9590003211999267 L3.799934465020078 1.9685862991999308 L3.799004289020024 1.9883008591999705 L3.8114066320201 2.024086788199998 L3.8117166900200683 2.040028967199934 L3.7996244050201025 2.0604411571999783 L3.7769901290200547 2.0804657752000146 L3.770659766020037 2.0901034301999353 L3.770763118020062 2.1057355511998885 L3.7654921220201114 2.137955806199944 L3.748568091020024 2.169013342199978 L3.7382844810200364 2.1996057901999855 L3.7516945140200786 2.230637488199921 L3.751901221020125 2.230637488199921 L3.751901221020125 2.230740840199946 L3.800141170020117 2.311976192199925 L3.8126468660201223 2.360862097200002 L3.7906433650200366 2.3922222281999304 L3.7905293540200145 2.3923847211999636 L3.785465064020036 2.404864578199966 L3.784018124020042 2.4204450241998963 L3.7805041260199967 2.4336483521999845 L3.7694970460200974 2.438893509199918 L3.756526261020076 2.436826453199945 L3.7464235190200323 2.4337517051999136 L3.7371475990201244 2.432459793199957 L3.726605607020053 2.435947953200003 L3.731979956020103 2.439875362199974 L3.7253136960201 2.4565926881999225 L3.714823381020045 2.4681423711999493 L3.704126359020057 2.445663123199953 L3.692292456020118 2.4411155961999107 L3.6796834060200236 2.4434410351999425 L3.6728879560200536 2.4529236611999217 L3.6750976270201132 2.4657143851999628 L3.681440405020089 2.502429683199967 L3.710740942020129 2.5651131961999063 L3.750531795020043 2.620329463199912 L3.7905293540200145 2.647407914199963 L3.8075825760200583 2.667019120199985 L3.8317671470200363 2.6891624711999107 L3.8578120690201043 2.7078693401998954 L3.9233377850201006 2.738435950199989 L3.9408044190200595 2.77517789319997 L3.953723527020065 2.813030880199964 L3.9920674400200706 2.8446310181999515 L3.9942378500200615 2.8549921431999685 L3.9939277920200933 2.8664643101999765 L3.9964082600200523 2.881140417199962 L3.995581437020041 2.8911656451998944 L3.9962015540200237 2.895894039199977 L4.00012896302008 2.899304684199908 L4.012117896020021 2.9012167111999254 L4.015838599020048 2.9046273551999526 L4.019766007020001 2.929225338199931 L4.012221248020046 2.944444047199969 L3.9962015540200237 2.954340084199959 L3.9520698810200994 2.9737704221999373 L3.935326717020052 2.984725826200009 L3.9020470940201104 3.0144656131999916 L3.8936755120200583 3.018444698199975 L3.88602740002006 3.0193748731999257 L3.880859757020067 3.0232506061999835 L3.8797228760200593 3.036195553199992 L3.8838569900200692 3.0467117071999503 L3.891608455020082 3.054127274199974 L3.8985330970200547 3.0627055621999126 L3.9002900960200346 3.076529008199959 L3.8948123940200556 3.0894739541999776 L3.886957576020029 3.09549425819991 L3.8819966390200644 3.102573929199938 L3.8872676350201 3.1271202351999143 L3.890988338020014 3.174145788199983 L3.9001867430201056 3.2114561722000055 L3.9007035070200455 3.230628129199932 L3.8998766850200237 3.2678868361999527 L3.9097020070201207 3.3340632781999666 L3.9104186760201056 3.3388902551999458 L3.909591854020084 3.3987832391999184 L3.9186869060200475 3.455937373199948 L3.9165164950200673 3.508233923199956 L3.91930702302003 3.5277676141999628 L3.8903682210200596 3.5229100301999416 L3.8775524660200684 3.5432705441999737 L3.8744518800200236 3.5742764041999955 L3.8747619380201055 3.6014582071998866 L3.869077531020059 3.6148940791999316 L3.8555383060200707 3.6218187211999187 L3.839518612020049 3.6261595421999893 L3.8263927980200716 3.6319989781999773 L3.8162642170200964 3.641817500199952 L3.8100630450200352 3.6525145221999544 L3.8064456950201357 3.6648135131999062 L3.802621639020094 3.7228978231999754 L3.8075825760200583 3.7721454631999656 L3.823705623020123 3.8161737831999325 L3.8552282470200847 3.8439240271999644 L3.8734183510200406 3.8464044961999413 L3.8932621010200474 3.842838822199969 L3.93005572102013 3.829299597199981 L3.936670304020117 3.8380329141999603 L3.952689998020082 3.903610306199983 L3.9514497630201273 3.9252627321999576 L3.938117244020111 3.961952998199937 L3.9288154870200795 4.008358435199941 L3.904734269020059 4.06830309619993 L3.9013236250201313 4.107473832199975 L3.905767797020024 4.152484005199913 L3.9050443280201304 4.195995561199926 L3.885924048020035 4.230412064199971 L3.8730049390200403 4.237543412199916 L3.8308369710200676 4.248498815199898 L3.816160864020082 4.249584021199983 L3.801588110020111 4.254079870200005 L3.8130602780200373 4.269376094199959 L3.841482316020068 4.291286902199918 L3.8532645430200656 4.312422563199963 L3.850887427020103 4.329269080199939 L3.8298034420200846 4.364357377199969 L3.823085506020055 4.385389685199886 L3.826289445020029 4.394949825199976 L3.835901262020064 4.400660070199937 L3.8480969000200727 4.41001350419997 L3.877035702020043 4.463679480199961 L3.88365028502003 4.472464473199938 L3.9008068600200883 4.476081823199923 L3.918273494020047 4.485667801199927 L3.932846248020075 4.499439571199975 L3.9413211830200847 4.5155884561999535 L3.9423547120200677 4.531814856199961 L3.9336730710200296 4.582302730199988 L3.939254126020023 4.603205847199963 L3.952379939020096 4.615168941199915 L3.9664359290200135 4.625478389199916 L3.9752209230200943 4.641368892199939 L3.9846260330200547 4.642299068199893 L4.012531307020032 4.641420568199951 L4.021626359020024 4.64328092019996 L4.0344421140201 4.6557607781999515 L4.033821997020118 4.665088375199975 L4.026794002020102 4.674467647199936 L4.020489478020101 4.687205887199898 L4.020089805020069 4.693259758199947 L4.018732478020018 4.713819250199922 L4.024933650020108 4.738365556199984 L4.036922583020077 4.762110876199944 L4.0527355710200705 4.786295447200008 L4.073819556020089 4.807844519199964 L4.123222225020106 4.832132442199967 L4.148336971020035 4.847971268199974 L4.180893123020075 4.887064489199904 L4.1938122310199955 4.896805497199939 L4.21427609802007 4.902283199199932 L4.2905505130200705 4.902593257199914 L4.316698787020078 4.982743404199983 L4.332201717020103 5.004860917199995 L4.340159888020059 5.0106486771999705 L4.347601294020086 5.013723425199917 L4.355146053020041 5.017805863199914 L4.362794165020096 5.026565018199992 L4.375919978020084 5.046848018199999 L4.386668676020099 5.059276200199893 L4.400414608020048 5.06627835719998 L4.483200252020117 5.075683468199944 L4.494982479020029 5.09154813219995 L4.492408822020058 5.126704783199973 L4.4918391610200725 5.126867543199939 L4.48541012502003 5.1292275691999585 L4.440081349020067 5.15356025219997 L4.405820281020032 5.180171580199971 L4.355039031020032 5.234533559199935 L4.3434016610200725 5.252030304199952 L4.318743458020071 5.300939809199935 L4.3141047860200725 5.320511749199984 L4.312639942020075 5.341141632199953 L4.302304656020032 5.38785387119994 L4.293596974020067 5.406449249199984 L4.261858692020075 5.4361123351999545 L4.2214127290200505 5.450109731199991 L4.030494760020053 5.471756866199957 L3.671933562020035 5.445715200199988 L3.628964812020035 5.447993845199978 L3.6051204110200725 5.453527700199988 L3.592994760020053 5.458329132199953 L3.587949187020035 5.464188507199953 L3.582903614020074 5.467036814199975 L3.558733692020075 5.468094757199953 L3.5503515310200324 5.4710244441999585 L3.531389942020075 5.484574249199984 L3.4644140310200324 5.502640655199986 L3.4491145520200686 5.51293525219997 L3.421608041020056 5.538529327199985 L3.3827083020200686 5.5496377261999505 L3.3687109060200324 5.564367543199939 L3.3576431970200584 5.582433950199988 L3.341529916020056 5.598832062199978 L3.2619807630200395 5.6255654601999545 L3.257342091020041 5.6283323871999364 L3.244280567020075 5.641353220199978 L3.238421192020075 5.6459918921999765 L3.22963213002007 5.649125030199986 L3.213762989020074 5.650549184199935 L2.99916338002007 5.719803741199957 L2.9539159840200337 5.725500356199991 L2.9477310880200545 5.728511424199969 L2.9354426770200686 5.734452179199952 L2.8619563490200672 5.795812856199991 L2.8541438490200672 5.80708401519998 L2.8488948250200448 5.822464874199984 L2.835426401020049 5.83638089019998 L2.799578419020042 5.858353546199982 L2.72963213002007 5.8755654601999545 L2.717669239020074 5.875687530199986 L2.7103450200200765 5.882889679199952 L2.6941503590200337 5.895178090199938 L2.677548796020039 5.900467804199952 L2.6692480150200364 5.886307648199949 L2.617490203020031 5.9224404601999545 L2.604713510020053 5.927201202199985 L2.5462825200200765 5.975012075199988 L2.52251950002003 6.002925486199974 L2.5074641610200725 6.012365590199938 L2.433123341020041 6.023189158199973 L2.4101741220200434 6.022171905199986 L2.3955256840200487 6.0091917621999364 L2.388730437020035 6.017777374199984 L2.379290333020071 6.021073273199949 L2.35455075002003 6.022782257199953 L2.330462208020071 6.028885773199949 L2.3186213880200395 6.028397491199957 L2.31353512502003 6.019445668199939 L2.3099543950200765 6.010412465199938 L2.301979135020053 6.012650421199982 L2.2896907240200672 6.022782257199953 L2.2732112310200474 6.0242471011999505 L2.2572200200200765 6.028519562199978 L2.1528905930200377 6.073319366199957 L2.142311166020056 6.087967804199952 L2.1333593430200377 6.096634796199982 L2.1129329110200725 6.108597687199978 L2.07338213002007 6.1264606421999765 L2.052874317020075 6.130692413199956 L1.9877701510200492 6.132645538199956 L1.9770279630200545 6.135656606199991 L1.9538752940200421 6.149409861199974 L1.9430110360200725 6.153763702199985 L1.9328792000200448 6.154536814199975 L1.9122493170200752 6.153275421199982 L1.9020767910200558 6.153763702199985 L1.8835627940200421 6.159745148199949 L1.8473079110200725 6.177445343199981 L1.7777278330200712 6.187333038199956 L1.7551448250200448 6.195796580199971 L1.7382177420200602 6.207922231199991 L1.7375260100200531 6.2084105121999364 L1.723162403020046 6.201818715199938 L1.7055435880200545 6.200516632199953 L1.6885351250200298 6.204748403199989 L1.6761653330200712 6.214554718199981 L1.6745784190200421 6.222652049199969 L1.6815364270200686 6.2377073871999364 L1.6792577810200324 6.2456012671999765 L1.6729915050200699 6.2527627261999505 L1.6688411140200738 6.256506215199938 L1.6003596690200421 6.29027900219997 L1.588193328020031 6.299515655199986 L1.5593440440200421 6.33129462719997 L1.5571060880200545 6.338618845199978 L1.558896453020031 6.345292023199949 L1.558408171020039 6.350012075199988 L1.5495784190200421 6.351761749199984 L1.5402603850200531 6.352494171199982 L1.4715754890200738 6.372066111199974 L1.3949153330200712 6.406327179199952 L1.3789241220200434 6.420405955199971 L1.3547542000200448 6.454748403199989 L1.3397395520200686 6.4690713191999585 L1.3255793950200765 6.474767934199935 L1.2566503590200337 6.48355699619994 L1.2431819340200487 6.489009470199978 L1.2164485360200725 6.490067413199956 L1.2104264010200492 6.48872464019998 L1.2031428720200434 6.482132843199981 L1.2003352550200699 6.47183824619994 L1.2013931970200584 6.460648468199981 L1.199033171020039 6.45161526519998 L1.186053028020046 6.447993845199978 L1.1779963880200395 6.446854523199949 L1.1628596690200421 6.4422158511999505 L1.1516292000200448 6.441117218199981 L1.152646453020031 6.436519236199974 L1.1432877290200505 6.426672231199991 L1.1007258800200699 6.392736684199935 L1.0796077160200408 6.383784861199974 L1.0699641610200725 6.378006866199957 L1.0658951510200492 6.369136424199969 L1.0641861660200558 6.361812205199971 L1.0597916350200531 6.354162465199938 L1.0542577810200324 6.348058950199988 L0.9504166350200531 6.307572296199982 L0.7812271820200518 6.272782257199953 L0.6165950200200765 6.216996124199984 L0.48614254602003903 6.207108429199952 L0.3420181970200584 6.181880564199975 L0.20326494202007517 6.1394814761999505 L0.18739580202006856 6.135860056199949 L0.1917089530200311 6.119380564199975 L0.19870765102004917 6.117590200199988 L0.20802568402004873 6.113968780199986 L0.21937822402006724 6.112219106199991 L0.29091142702006856 6.112748077199985 L0.31251787202004344 6.119055043199939 L0.31849931702007517 6.124955108199988 L0.33070634902006724 6.142573924199969 L0.33607744202007517 6.146317413199956 L0.3492610360200725 6.144527049199969 L0.36976884902006724 6.13590074619994 L0.38067379602003903 6.132645538199956 L0.3779882500200298 6.105179718199981 L0.4057795910200408 6.093583038199956 L0.4417089530200311 6.087886424199969 L0.46331539802006283 6.078080108199988 L0.5031589520201063 6.079627356199925 L0.5261291260200718 6.076320064199923 L0.5403918220200463 6.066165645199963 L0.5500036380200637 6.04732958519995 L0.5445259360200563 6.040895870199993 L0.5313484460200808 6.029656246199938 L0.5281961830201052 6.0261939241999904 L0.5273693600200939 6.017073034199928 L0.5316068270200613 5.996169918199943 L0.532123592020076 5.987617468200018 L0.52767941902008 5.976119462199993 L0.5137267820200915 5.956094844199956 L0.5108845790200345 5.942219722199898 L0.5174474860201084 5.880337194199971 L0.5511405190200716 5.886486690199948 L0.5644213620200613 5.884057898199973 L0.5743432370200647 5.871474686199964 L0.5768753820200399 5.854033890199933 L0.5725862390200742 5.836050492199934 L0.5453010820200799 5.772281774199914 L0.5275760660200657 5.700709916199958 L0.5251989500201031 5.648310013199936 L0.521426570020088 5.632161128199943 L0.5135717530200505 5.619061153199983 L0.5007559970200699 5.608700028199966 L0.4295200350200101 5.590380733199982 L0.41326779802009206 5.596840287199942 L0.38071164502006205 5.616477332199981 L0.3611521160201274 5.618906123199938 L0.33751014802010637 5.6057544721999655 L0.3321099610200573 5.579916255199951 L0.3422127040200902 5.517413611199959 L0.2772554280200321 5.522942989199965 L0.2870481120201074 5.40884142619996 L0.2844901280201153 5.3726937621999475 L0.27229449002007833 5.336494421200005 L0.23376971002003266 5.266240311200011 L0.21924863202008815 5.230506058199911 L0.1889404050200536 5.063720373199988 L0.16764971502005288 5.007909826199924 L0.13821998702005622 4.981141434199959 L0.13529220402003794 4.977610722199945 L0.12341468902005737 4.963287227199903 L0.04450477702000022 4.6100529741999345 L0.04590004102008116 4.5932581331999565 L0.05310890302005156 4.582767818199915 L0.07153155102003517 4.572613399199955 L0.07695757602002651 4.56607633019998 L0.09659462002006158 4.51119595919997 L0.09426918102011506 4.504529699199953 L0.08078163202006827 4.478613969199916 L0.0682759360200631 4.462568436199948 L0.06393511502009197 4.452439856199906 L0.06533037902005923 4.416292191199975 L0.0820735430201065 4.377793249199929 L0.1974153400200631 4.180802689199897 L0.20973998102008373 4.173142035199948 L0.21042147202007833 4.172718439199986 L0.2115488450200811 4.172017696199919 L0.2610807040200367 4.155946325199938 L0.2661449950200332 4.148866655199928 L0.27441322402007096 4.098843868199925 L0.27947751502003904 4.088766963199891 L0.3253145100200978 4.0316645051999735 L0.33420285702010766 4.0122341671999955 L0.3349263260201152 3.9985915891998935 L0.33048215302009076 3.990478389199982 L0.32379005502008873 3.9822101601999442 L0.3174855300200701 3.9682575231999415 L0.31655535502003396 3.95652697319996 L0.3654929360201091 3.6500340531999775 L0.37885129402005724 3.6095197311999705 L0.4510691080200555 3.4556273151999655 L0.45494484002003865 3.449064408199977 L0.4649959070200449 3.43692044719997 L0.46884580002009635 3.4303575401999957 L0.46910418302005574 3.4249315141999297 L0.4661844640200794 3.4119607291999934 L0.4670112880201085 3.4069481161999313 L0.47561541402004615 3.3988349162000198 L0.4978621180200715 3.3855023961999997 L0.505820288020038 3.3769757851998925 L0.5091275790200367 3.3659170291998954 L0.5134684000201215 3.2912445841999904 L0.5163881180201084 3.2839065301999035 L0.522666805020128 3.2831830611999955 L0.5293330640200278 3.2875755571999044 L0.5343973550201095 3.293259964199951 L0.5357926180200874 3.2964639031999248 L0.5521223710200385 3.2828213261999117 L0.5977526610201149 3.2304731001999762 L0.6161494700200247 3.217450638199953 L0.6758357500201324 3.1976068891999496 L0.6964546470200386 3.1871940881999343 L0.7063248450200259 3.174249141199912 L0.7072550210200799 3.15680834619997 L0.7007954670201055 3.132882157199962 L0.6875663010200181 3.104098384199947 L0.6851375080200679 3.091463497199914 L0.68937497602011 3.0757021851999333 L0.6963512940201095 3.062343827199914 L0.7027591710200678 3.056401037199894 L0.7110274000201056 3.0569178012000187 L0.7237398030200435 3.062860592199943 L0.7352636480200712 3.064074988199966 L0.7489062250200842 3.059501623199939 L0.7938130450200784 3.0331724811999727 L0.8006860110200531 3.017927933199932 L0.7546681480200501 2.737828751199931 L0.7086502850200471 2.4577295691999304 L0.7038960530200651 2.4420457721999647 L0.6948526770200996 2.4462315631999054 L0.6946324090200786 2.4458741892000013 L0.6897883870201209 2.4380150101999654 L0.6923722080200374 2.4252767702000035 L0.6997619390200551 2.4186363481999145 L0.710355607020011 2.412796911200008 L0.7114408120201059 2.399128495199907 L0.6910802980200739 2.329365311199954 L0.6898400630200339 2.3121828971999783 L0.6875663010200181 2.303578771199941 L0.6819852460201101 2.3012016561999964 L0.6752673090200911 2.3002198031999264 L0.6693245200200746 2.295723954200003 L0.6537182370201204 2.2488017531999596 L0.6526847080200522 2.228363725199916 L0.6462251540200779 2.212292354199935 L0.6209553790200228 2.198933996200001 L0.5956856030200637 2.1933012651998816 L0.5700540930200813 2.1920610311999447 L0.5562048100200396 2.1897872681999253 L0.548349992020098 2.1843354041999454 L0.5419421140200651 2.1777208211999444 L0.5321752680201026 2.172217281199952 L0.5415803790200524 2.1580837771999093 L0.5457144930200908 2.142399979199954 L0.5476265220201011 2.0923771931999546 L0.5518123130201271 2.084057287199901 L0.5731030030201278 2.0623531851998997 L0.5905179600200707 2.0269289921999736 L0.6021968340200257 2.008790563199941 L0.633926163020055 1.992305782199967 L0.645863420020083 1.9732888541999962 L0.6472070070200626 1.954297765199943 L0.6314973720200836 1.9456936391999058 L0.61403073702005 1.9418695841999671 L0.5998713940200897 1.9315601351999625 L0.5920165770200523 1.9161347211999704 L0.5936702230201032 1.8972728231999447 L0.6039538330200056 1.8839403031999247 L0.6175964110201217 1.8776616161999193 L0.629481990020059 1.8701943721998937 L0.6345979570200253 1.8531669881999626 L0.6345979570200253 1.8261918911999295 L0.6296370200200894 1.809422888199979 L0.6283451080201186 1.8016455851999673 L0.6324275470200345 1.7697095491999768 L0.6313423420200532 1.7554726921999197 L0.6178031170200651 1.7384711471999914 L0.5817329670200646 1.693331783199941 L0.545921200020052 1.6609564981999405 L0.5407535560201264 1.6506728881999386 L0.5389965580200506 1.6343948112000142 L0.5405468500200694 1.6182976031999523 L0.5455077880200232 1.601942012200002 L0.5540860750200576 1.58729174419992 L0.5668501540200221 1.5763621791999505 L0.5636096260200585 1.5738700591998942 L0.5559981030200785 1.5680164341999792 L0.552794165020094 1.5588438681999897 L0.5515539310200719 1.5496971401999993 L0.5464896400201038 1.5416097771999127 L0.5377563230200391 1.537268957199931 L0.5321752680201026 1.5378890741998994 L0.5266975670200278 1.536958898199945 L0.5185326900201002 1.5279413611999964 L0.5117114010200563 1.5071932741999525 L0.5154321040200553 1.4862643191999645 L0.5321752680201026 1.4528555051998957 L0.5667468010200931 1.4145891071999905 L0.5731030030201278 1.404408850199932 L0.570260799020053 1.3946161651999667 L0.5464896400201038 1.3566598261999623 L0.5421488200201221 1.3314417271999055 L0.5514505780200576 1.286043982199974 L0.5526391350200637 1.2604124722000059 L0.5461279050200911 1.2424290731999186 L0.5234419510200379 1.20868436219995 L0.5185326900201002 1.1884272011999464 L0.5185326900201002 1.1027476761999715 L0.5080940510200715 1.0575824751998972 L0.5085591390200985 1.0376612101998894 L0.5216332760200313 1.0170939901999851 L0.541890437020049 1.0013585161999181 L0.5493318430200755 0.9925476841999235 L0.5526391350200637 0.9792410031999204 L0.5520706950200971 0.96639941019993 L0.5486600500200947 0.9610767371999778 L0.5421488200201221 0.9580795041999615 L0.5321752680201026 0.9519558471999012 L0.5225634520200853 0.9483901731999289 L0.5138301350201058 0.9486485561999025 L0.5073447430200471 0.9462714401999541 L0.5049159500200968 0.9348767861999541 L0.5013244380200259 0.9281846881999378 L0.49279782702010344 0.9261176311999755 L0.482565893020114 0.924980749199964 L0.47383257602004925 0.9212083691999489 L0.4657193760200524 0.9049044562000041 L0.4657193760200524 0.8839238241999148 L0.47073199102010754 0.8635374711999653 L0.4775532790200767 0.8489130411999106 L0.4846846270201066 0.8396112831999751 L0.4923844150201031 0.8334876261999149 L0.5020737470200398 0.8300769811999835 L0.5150186930200444 0.82904345319999 L0.5259740960201267 0.8247801471999487 L0.5351208250201065 0.8153750371999884 L0.5394616460200776 0.8059957641999382 L0.5355859130201335 0.801706620199969 L0.5111429600201003 0.8010865031999153 L0.49486488402008 0.7983734901999675 L0.482565893020114 0.7921723181999774 L0.44745175802007076 0.7615798701999701 L0.43962277802007144 0.7489449821999337 L0.43657386902012796 0.7294112911999271 L0.4336283120200388 0.7247087361999469 L0.42011492502004977 0.7114020541999402 L0.41548988402010956 0.7055367791999494 L0.4128027100200651 0.6957699341999906 L0.41114906402012785 0.6744275671999027 L0.4087202710200639 0.6645832061999251 L0.3787479400200251 0.6119765991999238 L0.3745104730200577 0.5928821571999414 L0.37735267702013253 0.5829861201999513 L0.39076271102007887 0.5591116091999631 L0.3968605300201258 0.5427043422000004 L0.3996768960200878 0.538880285199955 L0.40189898302009475 0.5344619511999618 L0.4018731440201062 0.5280023971999164 L0.39897926502010783 0.5235582231999025 L0.3943800610200636 0.5213878131999969 L0.39006507902008103 0.5205868281999848 L0.3881013750200619 0.5205868281999848 L0.3870548050200622 0.5161071921999714 L0.3846907310201342 0.5059882361999293 L0.38773964002004924 0.49999377019989666 L0.39843666102007624 0.48952929219995056 L0.40391436402004466 0.480046667199975 L0.4075317140200294 0.4572056841999661 L0.42435239202010244 0.430127234200004 L0.4353853100201146 0.38374763619991725 L0.4427750400201145 0.3629220331999541 L0.45621091302007777 0.34765164719991404 L0.4721530920200845 0.3355852011999225 L0.4856148030200469 0.3209349321999504 L0.49124753402009524 0.29804227319992904 L0.48525306802006263 0.2788961542000159 L0.4742976640200762 0.26117113819991644 L0.4683031980200436 0.2420766961999199 L0.47106788702010327 0.234971187199978 L0.4696726230201076 0.2291834261999135 L0.5558947500200642 0.2307337191999359 L0.5563081620200645 0.24135322619992294 L0.5782165010200853 0.241138055199972 L0.6720633710201067 0.24021634519991508 L0.8672452550200429 0.23825264119998124 L1.109142635020083 0.2359013631999467 L1.3341418210201024 0.23367927619993978 L1.5529398350200605 0.23156054219996136 L1.7083308680200613 0.23006192619995502 L1.7200097410200552 0.22352485719997972 L1.727192765019998 0.20598070819992031 L1.744607723020044 0.20060636019994504 L1.8709566000200706 0.20448209219999924 L1.883430002020054 0.20928400519993673 L1.8934610100201095 0.21314566419997405 L1.9266637940201061 0.22592781119992722 L1.9517268630201041 0.23047533819996957 L2.0789542400200727 0.23171557219999173 L2.1994636800201075 0.23285245419991796 L2.208300350020016 0.2176337441999756 L2.2366707110200306 0.2132929241999939 L2.3745434320200953 0.22409329819993573 L2.382966691020078 0.22577278219998576 L2.390563126020032 0.2309921021999095 L2.3975394450200493 0.24450548919988435 L2.4026554110201115 0.24770942719995404 L2.4130940510200727 0.24729601619994313 L2.4064277910200413 0.2609644321999447 L2.4238427490200873 0.2585614781999972 L2.4462186440200693 0.2342735551999091 L2.4676126870200843 0.2307337191999359 L2.4733487710201185 0.2237832391999497 L2.4792398840200516 0.2213544471998894 L2.4848726150200715 0.22357653419989632 L2.4900402580200645 0.2307337191999359 L2.4900402580200645 0.2309921021999095 L2.603996600020059 0.2330365981999627 L2.611014786020041 0.23316251219998563 L2.6123583740200953 0.24445381219996776 L2.6168025470201197 0.24538398819992224 L2.623778865020091 0.24285184319993292 L2.6330806230200263 0.24367866619995837 L2.639023412020043 0.250680822199957 L2.6347342690200772 0.25869066919993955 L2.6272411870200525 0.2666230021999816 L2.624243953020118 0.2735993201999811 L2.6722513590200716 0.3192296101999723 L2.689769670020132 0.30855842719997284 L2.699898250020089 0.2859758261999481 L2.707184627020075 0.2614295201999717 L2.716434709020069 0.2447638711999538 L2.7308007570200967 0.23944119819990206 L2.751574683020044 0.23724495019999736 L2.7905387120200142 0.23856269919996365 L2.7940527100200594 0.2374516561999549 L2.79730832502006 0.23574633319990212 L2.800305558020062 0.2335242471999841 L2.802786027020039 0.2309921021999095 L2.802786027020039 0.23083707319996805 L2.8121911380201023 0.21939074319995555 L2.838494442020055 0.20706591420000464 L2.8503283440200615 0.197583288199926 L2.8557543700200423 0.18698961919995227 L2.857976457020049 0.16430366619998793 L2.862627335020113 0.14975675019993062 L2.881799292020025 0.12572720919999725 L2.9011262780200635 0.12572720919999725 L2.9200915280200146 0.14079088919990923 L2.938074927020102 0.16197822719995614 L2.9882010660200304 0.1258305621999405 L3.000887630020065 0.11366076220001631 L3.0087166090201034 0.0988037881999908 L3.006468685020087 0.08978625019993913 L3.0025412760200307 0.0804069781999921 L3.0053318030200895 0.06425809319999942 L3.1409049240200257 0.09221504319990359 Z" fill="black" stroke="black" stroke-width="0.5" vector-effect="non-scaling-stroke"/></svg>