<svg xmlns="http://www.w3.org/2000/svg" viewBox="0 0 0.3762744146999921 0.5374340821799883"><path d="M0.181260579849976 0.32057657858997324 L0.1896427408499619 0.3375443525899957 L0.1914331058499954 0.35207071958996927 L0.18789306684996632 0.4012243655900054 L0.18549235085001214 0.40822306358996663 L0.18109781884996323 0.41514038058995517 L0.1744246418499813 0.4304398605899653 L0.1747501628499606 0.4382523605899653 L0.18036539684996455 0.45460978158997456 L0.17784261084997866 0.4577022295899926 L0.17263427784999408 0.46006225558995517 L0.16970458984999937 0.46596232059000364 L0.16848388684999804 0.47377482059000364 L0.1681583658499619 0.48195353158997456 L0.16262451184999804 0.4909053545899926 L0.11977783184997293 0.512959391589968 L0.11977783184997293 0.5055131025899957 L0.11123290984997425 0.5096228025899538 L0.10484456384997998 0.5152380375900041 L0.10077555384995662 0.522725016589968 L0.09927001984996764 0.5321651205899887 L0.08995198584997866 0.5304561365899847 L0.08095947284996896 0.5277298995899944 L0.07245524084996191 0.5239457195899693 L0.06456136084997866 0.5191849775899957 L0.054226074849992756 0.5280961105899653 L0.03725830084997028 0.5315954585899565 L0.018662922849983943 0.5306595865899997 L0.0036889648499993655 0.526631266589968 L0.03835693384999672 0.5047399905900054 L0.044704589849999365 0.498677164590001 L0.048244628849971605 0.48406941758998734 L0.045355631849957945 0.47235066758998734 L0.040432128849971605 0.4608353675900023 L0.037787271849964554 0.4471634925900023 L0.04315836584996191 0.42490600558995517 L0.06391031884996323 0.38568074558998866 L0.06456136084997866 0.3683467615899847 L0.12274820984995927 0.2989294435900067 L0.143703613849965 0.2952673335899565 L0.16653076184999804 0.2982784015899913 L0.18817789684996455 0.31162475558995517 L0.1875268558499954 0.31471720358997324 L0.181260579849976 0.32057657858997324 Z M0.3661564128499606 0.08034220358997324 L0.34853759784996896 0.07521525058997192 L0.331651204849976 0.0798539225899706 L0.31496826184999804 0.08827677458999439 L0.29795979784998394 0.09462443058999703 L0.3014184568499729 0.088520914590001 L0.30813232484999276 0.07277384458996927 L0.3115502928500007 0.06667032858997324 L0.3084578448499826 0.0661820475899706 L0.29795979784998394 0.06667032858997324 L0.2994246418499813 0.06268269858998998 L0.3053247068499729 0.05299845358997324 L0.3269311528499941 0.059427490590005405 L0.3398706058499954 0.042174886589984695 L0.350734863849965 0.018452555589997033 L0.3661564128499606 0.005268961589999677 L0.37258544984999276 0.021626383589998355 L0.37087646484999937 0.039814860589965306 L0.366807454849976 0.059590250589971916 L0.3661564128499606 0.08034220358997324 Z" fill="black" stroke="black" stroke-width="0.5" vector-effect="non-scaling-stroke"/></svg>