<svg xmlns="http://www.w3.org/2000/svg" viewBox="0 0 0.3345214837800654 0.4213476557400071"><path d="M0.2654866533900133 0.018046874370007515 L0.27574055939001596 0.04026367137000619 L0.29340006538998864 0.0528369133700366 L0.31350097638997454 0.05841145837003836 L0.3309977213899913 0.05967285137003131 L0.33124186139005474 0.07139160137003131 L0.31675618439001596 0.09771809836998813 L0.2860758463899913 0.14158203136999958 L0.2509195963899913 0.1730761713700062 L0.18736165339001332 0.21246419237004233 L0.16254069038998864 0.23777343737000223 L0.14846191338997983 0.27911458337003836 L0.1391845703899719 0.3726204423700423 L0.11468912738999393 0.4090787753700269 L0.09711100238999393 0.41640299437002426 L0.07660319038998864 0.4172167963700062 L0.05975748639005474 0.4114794913700379 L0.04950358039005209 0.3934130853700353 L0.03583170539005209 0.3762011713700062 L0.03265787738999393 0.3712369783700282 L0.026554361390054737 0.3333544913700379 L0.02338053338999657 0.3266406243700075 L0.01857910138997454 0.3207812493700075 L0.01271972638997454 0.31614257737000884 L0.005395507389977183 0.31288736937002426 L0.015649413389979827 0.3028369133700366 L0.022159830390052093 0.2925423173700423 L0.02557779939004945 0.2797656243700075 L0.026554361390054737 0.262024739370041 L0.024601236390054737 0.25376464837003 L0.019555663389979827 0.24347005136998945 L0.01385904939004945 0.23472167937003263 L0.0032796223900106725 0.22703124937000752 L0.007755533389996572 0.21946289037000355 L0.015568033389996572 0.215149739370041 L0.01971842439004945 0.22043945237000884 L0.03355305939001596 0.21909667937003263 L0.09393717439004945 0.1847949213700062 L0.10785319038998864 0.1726692703699868 L0.16254069038998864 0.14158203136999958 L0.17320149739001067 0.131165364370041 L0.1823160803900521 0.11912109337000487 L0.19029134139000803 0.10463541637002294 L0.21128743439001596 0.037578124370007515 L0.21771647138999128 0.025493163370036598 L0.22951660138997454 0.014506835370035276 L0.2457926433900468 0.00522949137003792 L0.25970865838999657 0.0041308593700009055 L0.2654866533900133 0.018046874370007515 Z" fill="black" stroke="black" stroke-width="0.5" vector-effect="non-scaling-stroke"/></svg>