<svg xmlns="http://www.w3.org/2000/svg" viewBox="0 0 0.5131958007600099 0.3262207033800024"><path d="M0.09825235938001642 0.2409912111899999 L0.11892293238003449 0.23525390618997477 L0.14028523738000276 0.2247558591899761 L0.16026407838001377 0.21905924418999945 L0.17678426138002523 0.22792968718997741 L0.17271525038001245 0.23659667919000782 L0.15635782838001377 0.254622395189962 L0.15175984638000672 0.276106770189962 L0.14553426138002523 0.291731770189962 L0.14569702137999174 0.2956787111899999 L0.14439493838000717 0.29836425719000914 L0.13650105738003449 0.30369466119001487 L0.12640991237998778 0.30788574219000253 L0.11977742537999747 0.3073974611899999 L0.11363321938000981 0.3050781251899721 L0.10537312837999879 0.30369466119001487 L0.009141031380015097 0.30369466119001487 L0.005031331380000115 0.30109049418999945 L0.007716878379998793 0.29580078118997477 L0.015529378379998793 0.2907958981900052 L0.02663777638003184 0.28937174418999945 L0.021917724379993064 0.2751708981900052 L0.02822469038000408 0.2708984371899774 L0.040553792380027875 0.2707356771900109 L0.053859456380000115 0.26886393218999416 L0.09825235938001642 0.2409912111899999 Z M0.31472371438002655 0.28774414018997874 L0.32212931338000717 0.29421386719000253 L0.32408243838000717 0.3067871091899761 L0.3138285313800151 0.31671549418999945 L0.30495808938002655 0.3230224611899999 L0.30040079738001113 0.3218424481899902 L0.3036560053799957 0.31541341119001487 L0.3053649903799891 0.3103271481900052 L0.30259806338000717 0.3041829421900175 L0.30300496438002655 0.29913736918999945 L0.30585327137999174 0.29653320318997345 L0.3086201983800305 0.29250488219000914 L0.31236368838000717 0.2888427731900052 L0.31472371438002655 0.28774414018997874 Z M0.5040140783800138 0.0031982421900025315 L0.5081644693800098 0.005843099190009582 L0.5081644693800098 0.011376953189973449 L0.4905863443800098 0.023950195190003853 L0.4776468913800085 0.028873698189990193 L0.4616149903799891 0.03155924418999945 L0.4522562663800085 0.026757812189977415 L0.45998738638002523 0.01589355419000782 L0.4737813313800001 0.010481770189961992 L0.48366902638003184 0.00979003919000121 L0.49986368838000717 0.0036865231900051754 L0.5040140783800138 0.0031982421900025315 Z M0.22479858337999703 0.2527099611899999 L0.23065795837999703 0.25063476518997874 L0.23326212538001245 0.2599934891900162 L0.22512410438003316 0.27244466119001487 L0.2239847813800151 0.26845703118997477 L0.2234151203800292 0.2595458981900052 L0.22479858337999703 0.2527099611899999 Z" fill="black" stroke="black" stroke-width="0.5" vector-effect="non-scaling-stroke"/></svg>