<svg xmlns="http://www.w3.org/2000/svg" viewBox="0 0 7.567051544699988 5.5928431154999245"><path d="M1.8542160768499993 3.6867295762499914 L1.8429449178500104 3.67989363824994 L1.833708264849994 3.6715928572499372 L1.8295171838500064 3.6604437692499694 L1.8331386028500187 3.6451442902499487 L1.835864839850009 3.6446560082499566 L1.850798107850002 3.6451442902499487 L1.8546636678500104 3.643598066249968 L1.8543788368500227 3.640017336249958 L1.8531581338500214 3.6357041852499385 L1.8542160768499993 3.632082766249983 L1.8815191368500077 3.604210045249989 L1.9004400348500408 3.573285566249968 L1.9122401658500134 3.55847436824995 L1.929370698850013 3.5489528832499566 L1.9470708948500342 3.5481390812499747 L1.9791753868500077 3.55456811824995 L1.9976080038500381 3.5489528832499566 L1.9976080038500381 3.5427272972499857 L1.9368169888500315 3.5449652532499734 L1.9080083948500342 3.5421983262499914 L1.8958013638500315 3.5318630402499487 L1.8976324178500104 3.5279567902499487 L1.906421480850005 3.5199001492499526 L1.9094732388500315 3.5147731962499513 L1.9094732388500315 3.5017523622499773 L1.9174078088500064 3.4815700712499513 L1.922494071850016 3.46081811824995 L1.9004400348500408 3.483401125249987 L1.8907557908500134 3.50777449824999 L1.884937105850005 3.534182375249987 L1.874683198850013 3.563194420249989 L1.8503912068500394 3.5527370632499817 L1.840015230850005 3.546145266249983 L1.8331386028500187 3.5352810082499566 L1.841724214850009 3.530276125249987 L1.843677339850009 3.520998782249979 L1.8406255818500394 3.494916425249972 L1.841724214850009 3.4950791852499385 L1.84412493085002 3.4902370632499817 L1.8463628868500077 3.483441816249968 L1.847380139849994 3.477907961249958 L1.8452642538500381 3.4744086122499773 L1.835661389849994 3.46895613824994 L1.8331386028500187 3.46700301324994 L1.830249605850005 3.446902102249954 L1.8299647748500174 3.4171983262499914 L1.8366379518499993 3.3987250192499694 L1.8542160768499993 3.4123562042499778 L1.851489839850009 3.3904242372499773 L1.85193743085002 3.3811062042499778 L1.8542160768499993 3.3713812692499694 L1.847380139849994 3.3713812692499694 L1.8413580038500381 3.3786647972499857 L1.8331386028500187 3.3828151882499817 L1.8224777958499967 3.38464624324995 L1.8095383428499954 3.3850531442499694 L1.802458264849994 3.389447675249972 L1.797494071850016 3.399782961249958 L1.7874029258500368 3.4460476102499804 L1.7808111288500381 3.4554470242499526 L1.7577805298500007 3.444379316249968 L1.747526623849998 3.4412054872499773 L1.7433355428500104 3.434817141249983 L1.751188732850002 3.41980249324995 L1.7412603478500355 3.4110134302499553 L1.7314947228500355 3.395307050249972 L1.7244960248500174 3.3761827012499914 L1.7233160118500077 3.3571397322499372 L1.730151948850013 3.338340904249936 L1.7520025348500408 3.310061282249979 L1.7586757118500227 3.2888617372499773 L1.751188732850002 3.2888617372499773 L1.72693743085002 3.3074978052499553 L1.6899094358500033 3.310061282249979 L1.6561366498500174 3.2994411652499487 L1.6413254518499993 3.2786078312499747 L1.634448823850013 3.248741295249989 L1.6345708948500342 3.233116295249989 L1.6450689418500328 3.2171657742499526 L1.65467180585002 3.206423586249958 L1.6620774048500007 3.1933620632499817 L1.6669195278500037 3.17761499324995 L1.6686285118500077 3.1591416852499385 L1.661792573850013 3.1591416852499385 L1.6396978478500355 3.2037380402499487 L1.6262701138500315 3.22253686824995 L1.6078374958500117 3.228030032249979 L1.593921480850005 3.2192409692499844 L1.5800461548500007 3.2009711122499773 L1.569792248849998 3.179079836249958 L1.5668625608500033 3.1591416852499385 L1.5363042928500104 3.17183699824999 L1.5120529908500284 3.1856716332499566 L1.4773443318500394 3.205528404249936 L1.4495123008500368 3.2137478052499553 L1.4482102178499954 3.216067141249983 L1.4409673788500381 3.22058374324995 L1.4329107388500315 3.2224147972499857 L1.4290858688500148 3.2171657742499526 L1.4312017538500381 3.2087022322499372 L1.4364100868500227 3.2059353052499553 L1.4430018838500214 3.2045518422499875 L1.4495123008500368 3.2001573102499385 L1.4819830038500381 3.1544216332499566 L1.5026535768499993 3.13106551324994 L1.5145350868500227 3.104494875249987 L1.5295090458499967 3.0809353052499553 L1.5322759728500355 3.0653103052499553 L1.530933198850013 3.0079372582499566 L1.5321132118500227 3.0008571802499553 L1.5367518838500214 2.9961371282499734 L1.5504237588500214 2.9908474152499487 L1.5531499958500117 2.9844183782499734 L1.5598638638500315 2.973187909249976 L1.57459368085002 2.966189211249958 L1.5887945278500037 2.9571560082499566 L1.5942063108500033 2.939984784249976 L1.5735357388500315 2.95105249324995 L1.5610031858500033 2.9539821802499553 L1.5511968708500117 2.948041425249972 L1.507536389849994 2.8967312042499778 L1.5041184208499967 2.8853786652499487 L1.5001307908500134 2.8864772972499857 L1.4972011028500187 2.887698000249987 L1.4905279258500368 2.891604250249987 L1.5015142538500381 2.9229763212499513 L1.5047694618500227 2.9512152532499734 L1.4940272748500174 2.973676191249968 L1.4631841758500368 2.9878363472499707 L1.426400321850016 2.9841335472499857 L1.408130464850009 2.960451907249979 L1.405485607850002 2.9283474152499487 L1.4154139938500148 2.8990505402499487 L1.4569992798500007 2.8474554872499773 L1.4733160118500077 2.8147406442499694 L1.4700201138500315 2.7817409692499844 L1.4613531208500117 2.774416750249987 L1.4578130818500394 2.787803795249989 L1.4561040978500355 2.8068874542499778 L1.453296480850005 2.8165310082499566 L1.4425542928500104 2.823041425249972 L1.4228195928499954 2.85144311824995 L1.4086187458500117 2.8574652532499734 L1.409880139849994 2.8616970242499526 L1.4055669888500315 2.864748782249979 L1.3706548788500381 2.877973066249968 L1.3666265588500064 2.878176516249983 L1.345630464850009 2.876589602249954 L1.327604748849998 2.8728461122499773 L1.3124680298500007 2.8674343292499778 L1.306120373849998 2.860598391249983 L1.300260998849998 2.8493679222499857 L1.2861822228500355 2.83199324824999 L1.269214448850013 2.816042727249954 L1.2546880818500394 2.8090847192499844 L1.2276698528500187 2.7922797062499747 L1.222135998849998 2.7848741072499372 L1.2099289678499954 2.7612738472499707 L1.2010585248500174 2.7572862172499875 L1.184212821850016 2.756391034249976 L1.1758306598500408 2.75386824824999 L1.1682623008500368 2.7478054222499857 L1.1485682908500134 2.7271755402499487 L1.1335943318500394 2.7209499542499778 L1.1230149048500007 2.7192409692499844 L1.1123540978500355 2.715375409249976 L1.0969732388500315 2.7029242372499773 L1.093433198850013 2.6781032742499526 L1.1091802698500342 2.6487250192499694 L1.1349777958499967 2.633791750249987 L1.1615484338500064 2.6520616072499372 L1.154224214850009 2.640017336249958 L1.1405116498500174 2.6234157742499526 L1.127124605850005 2.6116156442499694 L1.1212245408500134 2.6142198102499385 L1.1136968708500117 2.62691512324999 L1.0985601528500037 2.621625409249976 L1.0869634728500355 2.6101101102499804 L1.0898117798500007 2.6036403832499566 L1.111499605850005 2.594973391249983 L1.1283453088500064 2.5742621282499734 L1.1554042278500187 2.5285264512499914 L1.140796480850005 2.5354437692499694 L1.1304205038500381 2.5444769722499707 L1.1106451138500315 2.566042727249954 L1.0998215458499967 2.5728786652499487 L1.0724777958499967 2.585329836249958 L1.0659673788500381 2.5899685082499566 L1.064136323850013 2.6021755402499487 L1.0659673788500381 2.64831811824995 L1.0630376918500328 2.6596299672499875 L1.0547369098500408 2.6699245632499817 L1.0418788368500227 2.6772080922499875 L1.0250331338500214 2.679323977249954 L1.002124605850005 2.672569420249989 L0.9848313108500033 2.6574327012499914 L0.9755132778500037 2.637942141249983 L0.9765305298500007 2.6179226102499804 L0.99256243085002 2.6016058782499734 L1.0171392538500381 2.5837429222499857 L1.0316656208500117 2.5656358262499914 L1.0175461548500007 2.54903426324994 L1.0136399048500007 2.5636827012499914 L1.0021652958499967 2.571902102249954 L0.98670305585002 2.5754828312499747 L0.970386323850013 2.5762966332499566 L0.9728277308500051 2.598676191249968 L0.9551275348500408 2.6154812042499778 L0.9329107388500315 2.622113691249968 L0.9219244098500408 2.6142198102499385 L0.9187505818500394 2.60730249324995 L0.9117518838500214 2.5988389512499914 L0.9047124958500117 2.5876898622499773 L0.9014979778500187 2.5728786652499487 L0.9048345668500328 2.5656358262499914 L0.9112636028500187 2.5593288602499804 L0.915251232850002 2.5531032742499526 L0.9114263638500315 2.545901125249987 L0.9060552698500342 2.543948000249987 L0.9005621058500051 2.545372154249936 L0.8962896448500342 2.5486273622499773 L0.8946620408500134 2.5524522322499372 L0.8851812458500117 2.5684841332499566 L0.863208589850009 2.5564398622499773 L0.8029465458499967 2.5019965032499734 L0.7926112588500214 2.4970323102499385 L0.7786138638500315 2.493777102249954 L0.7634771448500342 2.494835045249989 L0.7498052698500342 2.498822675249972 L0.7367437458500117 2.5002468292499778 L0.7233567018499993 2.493777102249954 L0.7027675088500214 2.51363387324999 L0.6926763638500315 2.5030544462499513 L0.6894211548500007 2.4785183132499817 L0.689177014849994 2.4561794462499513 L0.6970708948500342 2.4239528832499566 L0.6967046838500064 2.4112575712499513 L0.6922694618500227 2.3981960472499857 L0.6866949178500104 2.391970461249958 L0.6799810508500368 2.3879014512499914 L0.6180507118500227 2.3245876492499526 L0.6073085248500174 2.30261499324995 L0.6044195278500037 2.2816188992499526 L0.6047857388500315 2.2561062042499778 L0.6097906208500117 2.233197675249972 L0.6197190068500245 2.2207465032499734 L0.6202886678500104 2.2200140812499747 L0.619881766849991 2.2200547712499663 L0.60389055585002 2.2214382352499804 L0.5929042278500187 2.2288845242499526 L0.583708264849994 2.2387722192499844 L0.5724777958499967 2.2473578312499747 L0.5588873008500368 2.2522406442499694 L0.5417974568500394 2.2548448102499385 L0.5263352178499954 2.2519558132499817 L0.5178716758500368 2.2404812042499778 L0.5110357388500315 2.2404812042499778 L0.5041184208499967 2.2531358262499914 L0.497526623849998 2.2486599152499487 L0.4926031208500117 2.2340928572499372 L0.49060930585002005 2.2165961122499773 L0.4915044888500315 2.1990179872499773 L0.49419003485004076 2.1855902532499734 L0.5048508428499954 2.1579616722499857 L0.5159185508500368 2.1615830922499875 L0.5293462848500408 2.150840904249936 L0.5439133428499954 2.1352565942499844 L0.5588873008500368 2.1244737172499875 L0.5347173788500381 2.1239040552499553 L0.5266607388500315 2.110964602249954 L0.5278814418500328 2.0927354352499385 L0.5400884728500355 2.0369086122499773 L0.5480230428500104 2.022829836249958 L0.5588873008500368 2.0288519722499707 L0.5650721968500161 2.0288519722499707 L0.5670253218500161 2.0139187042499778 L0.57459368085002 2.0061468942499694 L0.5828944618500227 2.00191512324999 L0.5868007118500227 1.9971950712499513 L0.5998215458499967 1.952517336249958 L0.6239914678499954 1.904747154249936 L0.6378667928500104 1.8991726102499804 L0.6456386028500187 1.885744875249987 L0.6469406858500033 1.8697536652499487 L0.6414068318500394 1.8563259302499553 L0.6453130818500394 1.8517686382499399 L0.6550787068500394 1.8371202012499914 L0.6353846968500161 1.842816816249968 L0.632739839850009 1.850588625249987 L0.6361578088500064 1.8616970242499526 L0.6339605428500104 1.877403404249936 L0.6003912068500394 1.9005967632499399 L0.5964035768499993 1.904747154249936 L0.5818365198500342 1.9158148622499773 L0.5649094358500033 1.9409613472499707 L0.5509527308500051 1.967776125249987 L0.5393560508500368 2.00020613824994 L0.5256027958499967 2.0217718942499694 L0.49744524385001476 2.0555446802499553 L0.4692063108500033 2.08004012324999 L0.4554937458500117 2.0850856962499513 L0.44959368085002005 2.072960045249989 L0.4515874958500117 2.0573757352499804 L0.45720273085000507 2.046389407249979 L0.4658697228500355 2.03926863824994 L0.4769781208500117 2.03511824824999 L0.46953183185003944 2.0334906442499694 L0.4635503868500077 2.033734784249976 L0.4574468708500117 2.036379641249983 L0.44959368085002005 2.0418728052499553 L0.4359624958500117 2.0288519722499707 L0.44841366785001036 1.9890163602499804 L0.45622616785001036 1.9719672062499747 L0.46692766585001344 1.9562608262499914 L0.4731125608500033 1.950442141249983 L0.48723202785000375 1.9411241072499372 L0.4940272748500174 1.93542749324995 L0.4993169888500315 1.92761499324995 L0.5020025348500408 1.9206162952499888 L0.5039556598500408 1.9182562692499694 L0.49874732684999934 1.9162624542499778 L0.49060930585002005 1.9115830922499875 L0.47734433185003944 1.9285915552499553 L0.43217831685003283 1.9630967632499399 L0.4205409468500161 1.980105227249954 L0.4088628868500077 2.01745874324995 L0.3949875608500033 2.0288519722499707 L0.38530331685003283 2.009402102249954 L0.3726080038500381 1.9969509302499553 L0.36247616785001036 1.983197675249972 L0.3602382118500227 1.959963625249987 L0.3737066368500077 1.960451907249979 L0.38530331685003283 1.9512966332499566 L0.39449927985000066 1.9377875192499694 L0.40117245685003944 1.9252549672499875 L0.40605526985003415 1.9121120632499817 L0.4092290978500355 1.897016034249976 L0.41032773085000507 1.884157961249958 L0.4086187458500117 1.877403404249936 L0.4114263638500315 1.871625409249976 L0.41289120685003944 1.8672308782499734 L0.41484433185003944 1.8563259302499553 L0.39641171485000903 1.8697536652499487 L0.39002336885001476 1.8778916852499385 L0.3875819618500227 1.8873317902499487 L0.38273983985000903 1.8917263212499513 L0.35405331685003283 1.904747154249936 L0.34660702785000375 1.904747154249936 L0.34563046485000903 1.8934353052499553 L0.34624081685003283 1.8826117372499773 L0.34880429285001036 1.8727647322499372 L0.35405331685003283 1.8637722192499844 L0.34803118085002005 1.8546169462499513 L0.347339448850013 1.8457465032499734 L0.35148983985000903 1.837405032249979 L0.3602382118500227 1.8296332222499707 L0.34143938385002137 1.8278835472499857 L0.33558000885002137 1.8162054872499773 L0.3385503868500077 1.8010280792499778 L0.34660702785000375 1.7886175972499707 L0.35918026985003415 1.780642336249958 L0.37667701484999405 1.7741319202499888 L0.3953944618500227 1.7697780792499778 L0.41175188385002137 1.7681911652499487 L0.42355201484999405 1.7617621282499734 L0.4303472618500077 1.747683352249954 L0.43470110285001873 1.733645266249983 L0.4390142538500381 1.7272569202499888 L0.45585995685003944 1.7226996282499734 L0.47453671485000903 1.7007269722499707 L0.49060930585002005 1.692426191249968 L0.4830816368500077 1.686770266249983 L0.4780767538500381 1.6806260602499385 L0.4701421838500064 1.6645534692499844 L0.4683111288500381 1.6739528832499566 L0.46521868085002005 1.682986086249958 L0.46033586885001476 1.6897406442499694 L0.45305233985000903 1.692426191249968 L0.44743710585000507 1.6937282742499526 L0.43177141585001344 1.6999538602499804 L0.42851620685003944 1.702395266249983 L0.4244878868500077 1.7223741072499372 L0.41378638984999405 1.7391384302499553 L0.39848690985004076 1.7470323102499385 L0.3807460248500174 1.7402370632499817 L0.3758632118500227 1.744916425249972 L0.37073625885002137 1.747113691249968 L0.3639003218500161 1.7478461122499773 L0.35405331685003283 1.747683352249954 L0.3598313108500033 1.7285183132499817 L0.35405331685003283 1.716311282249979 L0.34465390285000375 1.7137478052499553 L0.33977108985000903 1.7235134302499553 L0.3118169888500315 1.760744875249987 L0.2806890588500064 1.754926191249968 L0.26087297785001873 1.6979600452499888 L0.23674374585001168 1.6992621282499734 L0.25383358985000903 1.7165554222499857 L0.2565191368500077 1.7349880402499487 L0.251188732850002 1.752728925249972 L0.24419003485004076 1.7681911652499487 L0.22335670184999934 1.7525661652499487 L0.2113938108500033 1.7481716332499566 L0.19572812085001168 1.747683352249954 L0.22893124585001168 1.7726670762499914 L0.2408941368500077 1.7858913602499804 L0.24419003485004076 1.8022894722499707 L0.23442440985004076 1.8205593292499778 L0.2155035118500077 1.839114016249983 L0.19719296485000903 1.852012779249936 L0.1888921838500064 1.8532334822499372 L0.1868169888500315 1.8503444852499804 L0.1820969358500033 1.8493679222499857 L0.177417573850013 1.8503444852499804 L0.17526099884999802 1.8532334822499372 L0.17631894185003283 1.8593776882499817 L0.1810796838500064 1.8689398622499773 L0.1820969358500033 1.874026125249987 L0.1820969358500033 1.90816512324999 L0.18632870685003944 1.9138617372499773 L0.19572812085001168 1.9182562692499694 L0.20512753485004076 1.9244411652499487 L0.20939999585001168 1.93542749324995 L0.20765032185001608 1.9406358262499914 L0.19572812085001168 1.959963625249987 L0.17778378485004076 1.9511745632499817 L0.14140683185003944 1.9456000192499694 L0.12374732684999934 1.93542749324995 L0.10271054285001036 1.9138210472499857 L0.08586483985000903 1.891075279249936 L0.075855073850013 1.8695095242499526 L0.07418677985000066 1.8499782742499526 L0.08098202785000375 1.8313422062499747 L0.09640357684999934 1.8122585472499857 L0.10368710585000507 1.8085964382499817 L0.12342180585002005 1.8027370632499817 L0.12749081685003283 1.7988715032499734 L0.12863013984999405 1.791547284249976 L0.1317225868500227 1.7846299672499875 L0.13591366785001036 1.778689211249958 L0.1405116498500174 1.774416750249987 L0.1405116498500174 1.7681911652499487 L0.1360357388500315 1.7685166852499385 L0.1349777958499967 1.766848391249983 L0.13518124585001168 1.7640407742499526 L0.13432675385003812 1.760744875249987 L0.16271787485003664 1.732016244249909 L0.16271787485003664 1.7318612152499675 L0.19625587885004414 1.6924579352499514 L0.29216733784999427 1.5095750412499633 L0.3120627638499993 1.431026864249933 L0.32710060584999745 1.3934322592499093 L0.42631935585003156 1.2502110272499927 L0.44425107685002807 1.2306514972499834 L0.4685389998500309 1.2174998462499111 L0.5099318228500547 1.2131590252499258 L0.5930533638500517 1.2226158122499022 L0.634368671849975 1.2153294362499203 L0.7230442488500639 1.1676440912499721 L0.8160888458500519 1.1176093022499636 L0.8288270858499995 1.107635751249962 L0.8355191848500194 1.097713875249955 L0.8470947058500737 1.07368433524994 L0.8549236848499984 1.0650543702499853 L0.8656207068500148 1.0593699632499387 L0.8708400258500344 1.0600417572499232 L0.8765761098500686 1.0631423422499644 L0.9602919298500208 1.068516692250018 L0.9833396188500014 1.0654677822499998 L0.9934681998500334 1.0672764572499922 L1.002227354850012 1.0733742762499539 L1.0108314808500634 1.0808156822499662 L1.0203916218500435 1.0864484132499008 L1.0367472118500896 1.0902207932499302 L1.050648171850062 1.0896523522499741 L1.0806721788500422 1.084484709249967 L1.096485167850025 1.084174650249981 L1.1401775908500067 1.091099292249968 L1.1588586218500634 1.0843813562499385 L1.20195676585009 1.0585431402499275 L1.2098890978500574 1.05254867424998 L1.231567361850031 1.0631940192499805 L1.2516694938500077 1.062832284249982 L1.2689035838499958 1.0526520272499233 L1.2817968538500022 1.0336867762499686 L1.2846390578500486 1.0240749602499513 L1.2867836298500404 1.0011823002499405 L1.2822619418500008 0.9898651612499556 L1.2852591748500313 0.9845424892499217 L1.3002711788500019 0.984800871249977 L1.3090303338499805 0.9909503672499547 L1.3123376248499792 1.0109491462499882 L1.3207608838499905 1.016116789249896 L1.3351786088500912 1.0201475512499805 L1.335798724850056 1.0265554282499245 L1.3336283158499693 1.033996834249951 L1.339545266850072 1.0413865652499545 L1.3596215608500213 1.0441770922499138 L1.3853047478500198 1.039526213249946 L1.4095409938500065 1.0300177492499678 L1.425379820850102 1.0183905522499153 L1.430547463850095 1.0051097092499113 L1.4357409448500018 0.9621149172499237 L1.435947651849963 0.9441831962499414 L1.4206772658500224 0.8263609302499368 L1.4239845568500211 0.7848130782499432 L1.4327178738500006 0.7443504312499449 L1.431374286850021 0.7254368582499104 L1.4203930448500355 0.708952075249929 L1.4108845818500608 0.7043011972499649 L1.3756670928499855 0.6988751712499841 L1.3594148558500674 0.6919505292500112 L1.3475551138500546 0.6839406822499434 L1.3256701448500134 0.660117846249964 L1.3201149278499908 0.6504543542499341 L1.3175827838500052 0.6428062422499643 L1.3129060658500489 0.6369151292499602 L1.2855950718501017 0.6275100182499109 L1.2755440058500849 0.6205337002499114 L1.2560103138499894 0.6019818612499712 L1.236915871850007 0.5904580162499435 L1.2166587108499893 0.5839467852499673 L1.190458759850051 0.5803294352498973 L1.1827848098499967 0.5766604092499854 L1.1869447618500057 0.5656533292499866 L1.1870481148500485 0.5442592852498969 L1.1895802608500414 0.533975675249895 L1.211387714850039 0.5095844002499668 L1.2721591988499679 0.48178247925000406 L1.296343769850031 0.4622487882499122 L1.3153090208500853 0.4510866792499719 L1.3426716908500307 0.4446271242499229 L1.3596215608500213 0.44948470924993345 L1.3467541298500318 0.47211898724997425 L1.4144760928500286 0.4712921632499594 L1.4434924108500322 0.4606984952499751 L1.4602872508500777 0.435273690249975 L1.4642921748500637 0.40891871024991033 L1.4723020218500462 0.38954004724994107 L1.4732838738500131 0.377912850249988 L1.4701574498500545 0.3490257242499446 L1.471165139850049 0.3362099692499534 L1.4732838738500131 0.3278900632499848 L1.4908796988499855 0.286703947249908 L1.494600401850013 0.2695473722499493 L1.4919132268500643 0.2524424732499888 L1.480621926849997 0.23213363524996922 L1.4302374058500131 0.1700702402499168 L1.4206772658500224 0.14288843624993675 L1.4189977808500682 0.1206158942499691 L1.4270334668500393 0.05483179524999926 L1.750553770850038 0.06645899324995597 L1.7955108448500336 0.07848295724989285 L1.7986645298500346 0.07932642424995962 L1.8032637318500715 0.0812384522499805 L1.8118678578500944 0.0872329182499989 L1.816699603850017 0.08898991724997884 L1.822539041849998 0.0885765052499643 L1.8252778918500407 0.08614771325000348 L1.8276033318500904 0.08330551024994648 L1.832435077850013 0.081703540249908 L1.8623815708500242 0.07550236825001733 L1.8711665638500303 0.07488225224995304 L1.8795898228500132 0.0771560152499724 L1.8919146518500636 0.08501083224991035 L1.9006221308500155 0.08640609624997708 L1.909303770849979 0.08506250924992642 L1.9262278018500663 0.08041163024995868 L1.9337725618500397 0.07984318924990319 L1.9393019398500453 0.08247868625000265 L1.948862079850036 0.09255559124995116 L1.953409605849961 0.09482935424997052 L1.9574403678500598 0.094157560249986 L1.9701010938500954 0.09043685724997275 L1.9790411158500287 0.09048853424998882 L1.9860949498500329 0.08945500525000583 L1.9926836938500312 0.09007512224997427 L2.0006160268500732 0.09539779524992653 L2.0099952988500345 0.08428736124990976 L2.0280045358500356 0.09338241424997662 L2.0463238318500228 0.09281397324992113 L2.0636095978500943 0.09002344624996184 L2.0788541448500464 0.0922972092499812 L2.091669900850027 0.10593978724989839 L2.095984882850095 0.12475000824999327 L2.09489967785 0.1448521412499595 L2.091101459850071 0.16206039224994484 L2.0762186478500464 0.19606348524996875 L2.0726012978500616 0.2125482672499608 L2.077045469850068 0.23197860524993885 L2.088569314850096 0.24810165225000347 L2.1033229368500965 0.25595647024994506 L2.1206862168500233 0.25766179224992314 L2.140064879850078 0.2555430582499447 L2.157893248850021 0.2623643472499033 L2.174274677850084 0.2612274662499807 L2.185798521850094 0.2514089442500058 L2.189079975850083 0.23213363524996922 L2.205823139850045 0.19229110524995363 L2.2421775098500145 0.19187769424994272 L2.2812707308500446 0.21182479724996384 L2.3061012568500896 0.23321884024987938 L2.3056620068500617 0.237146248249946 L2.304060037850027 0.243864185249965 L2.30617877085003 0.25239079624997274 L2.316694924850074 0.2618475842499528 L2.3262550658499688 0.26546493424993756 L2.355891498850033 0.2675836672499976 L2.3718336778500397 0.27512842624995315 L2.3761486598500223 0.28494694824992806 L2.38203977385003 0.293163502249957 L2.4026586708500215 0.2957989992499712 L2.467254209850088 0.29223332624991727 L2.4877955928500537 0.29455876524993485 L2.5073034458499617 0.30246525924998835 L2.523762388850022 0.31553939724993896 L2.5519002068500836 0.34628687424998716 L2.5572487168500313 0.35579533724997603 L2.557998025850045 0.3627716562498797 L2.561641213850029 0.3666473882499339 L2.5759039088500995 0.36706079924994484 L2.577182511850017 0.36669117324999334 L2.5846630648500675 0.3645286542499555 L2.613860248850008 0.34876734324996406 L2.633393940850018 0.3413259362499481 L2.6502404578499945 0.33796696824993333 L2.6675520618500936 0.3387421142499427 L2.6885585318500116 0.34375472824990894 L2.731915058850083 0.35910262824997474 L2.7497951038500528 0.3717633542500103 L2.778191303850056 0.4145514412499445 L2.794391864850061 0.42261296424993944 L2.9632704458500623 0.37946314324991093 L3.0002707718500883 0.35920598125000325 L3.0333953648499996 0.32949203324993803 L3.0513270858500814 0.32086206924998706 L3.076131773850099 0.32008692224997404 L3.1364381708500186 0.3397756432499257 L3.157728860850076 0.34184270024998753 L3.1710097038500944 0.3392072022499697 L3.2090435578500287 0.31879501224992524 L3.22010231385004 0.3111985762499536 L3.224443134850011 0.3094932542499045 L3.2313677768500124 0.3094415782499773 L3.2333314808500315 0.31052678224988384 L3.234675067850011 0.31218042824993475 L3.295136494850018 0.3371401452499079 L3.315703714850022 0.3415326422499909 L3.3975075068500384 0.3448916102500057 L3.435282978850088 0.3387421142499427 L3.512229185850023 0.3105784592499852 L3.5537770378500877 0.3029820242499319 L3.6399216508500185 0.2965741452499806 L3.6736663608500546 0.29998479025001146 L3.739295428850019 0.32323918524993545 L3.76689064385001 0.32432439024993087 L3.766683938850056 0.34375472824990894 L3.747718687850087 0.34628687424998716 L3.723637470850056 0.3452533452500042 L3.7080828648500326 0.3536766032499976 L3.7038453968500757 0.37610417524989614 L3.7104083038500644 0.41568832224995234 L3.7107183618500326 0.43873601125000405 L3.6920631698499644 0.47826848224994833 L3.663641132850037 0.5073106362499438 L3.6475180858500575 0.5366111742499164 L3.6657081898500987 0.5770221442498986 L3.6845184118500267 0.593610279249905 L3.745754983850068 0.6203269942499539 L3.763583352850011 0.6344863362499105 L3.8039943228499933 0.6878164142499834 L3.820634133849998 0.7020274342499455 L3.8401678258500933 0.7148948652499492 L3.8606316928500544 0.725126798249935 L3.8803204138500202 0.7319480882499825 L3.8998024288500996 0.7320514412499115 L3.9319968458500707 0.7189256272499485 L3.948326597850004 0.7180471272499069 L3.9641395858499973 0.7138096602499537 L3.978970722850013 0.6987201422499574 L3.9896677448500295 0.6795998622499617 L3.9959205918500427 0.6507127372500072 L4.002586851850046 0.6473537682499035 L4.011061786850055 0.6468886802499618 L4.019019957850011 0.6431163012499503 L4.033230975850065 0.6209471112499223 L4.03783510985007 0.6155177092499322 L4.038708678850062 0.6144875572499622 L4.071006448850019 0.5916465742499533 L4.082530292850057 0.5787274662499478 L4.095501076850004 0.5357843502499726 L4.102994159850018 0.5257074462499425 L4.116533384850092 0.5229685962499993 L4.139839455850042 0.5237954182499216 L4.183299335850043 0.5096360762499792 L4.203194762850037 0.5087575762499377 L4.227637714850081 0.5152688072499991 L4.245517759850051 0.5280845622499903 L4.285670347850063 0.5897862232499484 L4.308924742850072 0.6068394452499781 L4.3323858428500355 0.6177431722499485 L4.3503692418500375 0.6322642502499924 L4.356777118850081 0.660117846249964 L4.3540899448500365 0.6690061932499738 L4.344271422850076 0.6866795332499755 L4.342876158849995 0.6947927332499866 L4.347527037850048 0.7053864022499603 L4.374295429850028 0.7319997652498991 L4.4149647818500934 0.808325854249933 L4.443955260850052 0.8378330972499448 L4.485348082850001 0.8361794522499117 L4.500230894850054 0.8292548102499246 L4.510152769850057 0.8198496992499607 L4.521159849850042 0.8027964762499273 L4.530048195850062 0.7843479902499162 L4.5337688998499655 0.7705503832499723 L4.541520364850063 0.7605251552499404 L4.559658791850003 0.7483295172499318 L4.580329364850021 0.7378908772499848 L4.595832294850018 0.7330332922499743 L4.588804299850031 0.710967457249982 L4.599863056850031 0.6988751712499841 L4.619913511849992 0.6895217372499509 L4.640222350850072 0.6753107182499924 L4.6404290558500545 0.668076017249934 L4.637638527850092 0.6574823492499497 L4.638000263850094 0.6478705332499324 L4.647353697850027 0.6436330652498903 L4.650867694849998 0.6398606862499641 L4.642651142850061 0.6197585532499978 L4.643684670850027 0.6101467372499805 L4.6618230988500695 0.6037905362499636 L4.709623798850052 0.6075112392499626 L4.719338967849998 0.5930418382499347 L4.726366962850099 0.5848252852499094 L4.760731790850022 0.5566099532499358 L4.773909280850026 0.548083342249928 L4.7804721878500995 0.5534060142499619 L4.787086770850086 0.5567133062499643 L4.8019179068500275 0.5617259202499305 L4.8011944368500306 0.5473598722499311 L4.806878843849992 0.5434324632499603 L4.81597389685003 0.5427606692499758 L4.825430683850007 0.5377997322499262 L4.829719826850086 0.5284462972498893 L4.831735207850036 0.5262242112499855 L4.838814879850039 0.531340178249966 L4.841708759850027 0.5370762622499292 L4.844292580850029 0.5371796142499541 L4.850338723849992 0.5253457122499476 L4.888372577850097 0.5104112232498927 L4.896330748850081 0.5144419842499737 L4.901188332850003 0.5210048912499623 L4.907492857850022 0.52715438724994 L4.940462421850063 0.5336139412499854 L4.975550718849993 0.5499953702499489 L4.995084410850003 0.553716073249948 L5.019475686850049 0.5527342202499774 L5.026658710849992 0.553716073249948 L5.036477232850066 0.5580568932499297 L5.050119811850058 0.5695807372499679 L5.058026305850026 0.5745416752499217 L5.064972220850072 0.5766359212500056 L5.068309915850099 0.5776422612499523 L5.084949725850029 0.5783657312499493 L5.095129982850002 0.5806911702499811 L5.107222268850071 0.5868406662499588 L5.127634459850034 0.6025503022500125 L5.139778420850027 0.6083380622499881 L5.158898700850008 0.6140741462499513 L5.193728616850072 0.6322125732499764 L5.213779072850022 0.6354681892499663 L5.232124205850019 0.6406358322499734 L5.266540709850053 0.6676626062499231 L5.284575783850064 0.6761375412500037 L5.294187600850071 0.6763442472499754 L5.314651467850032 0.6731919842499146 L5.321627786850021 0.6730886322499892 L5.332273131850021 0.6773260992499424 L5.348499530850026 0.6897801192499209 L5.358679788850017 0.695877938249982 L5.376663186850086 0.701562346250018 L5.43231870485001 0.7028025802499549 L5.456503274849998 0.6772227462499139 L5.469008971849993 0.6600661712499551 L5.473763202850071 0.6474054452500049 L5.471644469850011 0.6267348722499868 L5.473039732850074 0.6096816492499535 L5.480171080850019 0.594230395249955 L5.495312274850013 0.5784174072499617 L5.527144957850075 0.5580568932499297 L5.63969622685004 0.5211599212500069 L5.659436623850032 0.5035382572500176 L5.675714699850053 0.4923761472498889 L5.716435728850021 0.47346257424995386 L5.733799010850012 0.4711371342500037 L5.795138935849982 0.48157577324994705 L5.818496682850045 0.45837305524995386 L5.823405943850068 0.44545394724993415 L5.820305357850023 0.4216827892499744 L5.833482848850016 0.41801376124998413 L5.842422871850024 0.4021490972498789 L5.8468153678500325 0.3831838462499242 L5.846143574850052 0.3704714442499615 L5.840510843850032 0.3655621832499385 L5.823664326850027 0.3618931562499377 L5.816145404849996 0.35760401324997204 L5.811365334850015 0.34809554924997954 L5.810848570850046 0.3392072022499697 L5.80816139685003 0.3317657962499432 L5.780617857850038 0.31708968924995773 L5.762531106850039 0.300191496249969 L5.748061705849997 0.28308659724992324 L5.742739032850059 0.272854663249948 L5.757156757850074 0.25497461724988923 L5.804440693850031 0.24360580324999503 L5.8211321808500625 0.23192692925001168 L5.828005145850019 0.2306866942499859 L5.833792906850098 0.23161687024994038 L5.847125426850019 0.23926498224992443 L5.861233091850059 0.24443262624992101 L5.8689328808500445 0.24009180524993567 L5.876374286850071 0.23378728124993486 L5.889448424850022 0.23301213424992184 L5.965826191850075 0.24898015224995973 L6.0079941598500195 0.2627260832498912 L6.127546741850031 0.3234684552498983 L6.161473163850038 0.34070581924997967 L6.179404886850099 0.35951604124989345 L6.190566995850039 0.3819436122499731 L6.192220640850072 0.4040094482498837 L6.183177265850011 0.4262303142499242 L6.170051451850062 0.44612574024992924 L6.159406106850062 0.46720972524994764 L6.157752460850096 0.49340967624997134 L6.161033913850096 0.5033832282499766 L6.170774921850059 0.5192995692499984 L6.174133889850074 0.5292731202499148 L6.181471942850058 0.5406419352499974 L6.193615904850068 0.5402285242499865 L6.213304625850091 0.532373707249949 L6.228290790850073 0.5408486422499585 L6.24141660485005 0.5583669522499157 L6.249271422849992 0.5804844652499277 L6.248341246850023 0.6028603602499096 L6.2333550808500515 0.6421861252498964 L6.22901426085007 0.6639419032499099 L6.233200051850096 0.682855477249948 L6.2515968618500235 0.6978416432500048 L6.273662698850009 0.6990302002499398 L6.296555357850016 0.6963947032499256 L6.3173292838499915 0.7000637292499228 L6.335519388850022 0.7155666592499337 L6.339860207849986 0.7325165292499385 L6.338878355850019 0.7513784262499605 L6.340402810850028 0.7728241452498885 L6.345337910850068 0.7837795502499638 L6.352107522850011 0.7932880132499527 L6.357481871849975 0.8031065352499134 L6.358308694850015 0.8149921142499501 L6.308079201850054 1.070273690249909 L6.326786070850053 1.0690334562499721 L6.3436325878500295 1.0764748622499845 L6.360117369849993 1.0862933842499594 L6.378100767850091 1.0922878502499778 L6.398771340849995 1.08939397024999 L6.414946064849991 1.0820559172500062 L6.428795347850061 1.0787486252500038 L6.442437926850053 1.0881537362499678 L6.464607115850091 1.1601906822499366 L6.467966083849992 1.1781999192499377 L6.476285988850057 1.1983795662499155 L6.4873447458500575 1.217344816249966 L6.498558531850014 1.2317883792498954 L6.5531288448500415 1.2561279792499995 L6.58010394185006 1.257936654249992 L6.605735451850043 1.2380929042499993 L6.611316506850036 1.2505727622499911 L6.615887242850041 1.271907509249889 L6.619791441850046 1.2901310712499487 L6.627749611850012 1.3048330162499333 L6.63953183885001 1.3092513512499444 L6.667178730850017 1.3100264972499538 L6.727588479850047 1.3281390872499692 L6.757664162850025 1.342324267249925 L6.779988382849998 1.3605660482498827 L6.7619533068500655 1.36521692724995 L6.7411793818500225 1.3747512292499415 L6.729242125850098 1.3877478522499622 L6.737355325850009 1.402708179249931 L6.7557521348500895 1.4060671472499457 L6.77404559185006 1.4031215912499455 L6.784277525850049 1.4076691162499806 L6.778593118850003 1.4335590092499224 L6.766914244850019 1.446814014249913 L6.748620787850049 1.4529376712499733 L6.728415302850058 1.4540228762499687 L6.71074196285007 1.4519558192499211 L6.67208799085005 1.4433000162499532 L6.662734556850031 1.4504313642499973 L6.652192564850045 1.4728072592499792 L6.652967710850069 1.476579639249909 L6.656068297850018 1.4815147382499454 L6.658290383850007 1.4875092042499638 L6.656533385850045 1.4947180662499342 L6.653174416850012 1.4970435062499554 L6.643252541850037 1.497922005249908 L6.6396868688500685 1.4991622402499338 L6.631211933850059 1.5044590742498833 L6.610696389849997 1.5132440672499605 L6.603513365850025 1.5174815352500026 L6.591369403850043 1.5347931402499206 L6.585633319850066 1.5704240402499927 L6.577158385850074 1.5861595132499708 L6.568321715850052 1.5907587162499262 L6.548090391850073 1.5910687752499975 L6.53989967785005 1.594169361249957 L6.5307012728500435 1.6061841312499219 L6.530391214850047 1.616028491249896 L6.532923358850061 1.6256144692499 L6.5321998898500535 1.6369574462499692 L6.521632058850079 1.6569303872500036 L6.475510842850062 1.703025766249926 L6.466622496850041 1.7156606532499588 L6.458405943850002 1.73217127324995 L6.454581887850074 1.7497670982499365 L6.459077737850086 1.7654767332499013 L6.474373961850054 1.7759153732499335 L6.490083596850004 1.7712644942499658 L6.507343525850009 1.7624019862499587 L6.527083922850059 1.7603866052499235 L6.543930439850035 1.7630737792499396 L6.561965513850046 1.7635130302499569 L6.5796905308500495 1.7614718102500042 L6.595761900850013 1.7566142262498978 L6.613745298850025 1.7444444252499842 L6.623667174850018 1.7291740402499336 L6.6495570668500275 1.675430551249935 L6.666248554849991 1.6754822272499474 L6.686299009850037 1.6818384282499643 L6.706607848850032 1.681114957249978 L6.717149840850018 1.6784794602499638 L6.726244892850067 1.6799264002499577 L6.744848408850023 1.6863084392498884 L6.754666930850098 1.6848873372499078 L6.7739939158500615 1.6742936692499235 L6.7859828488500025 1.673983611249941 L6.807997008850085 1.6850940432499506 L6.828719257850102 1.7043693532499908 L6.8441705108500255 1.7274170412499537 L6.850216652850056 1.7499738042499793 L6.85166359385004 1.8533266692499701 L6.849441506850061 1.8719301842499227 L6.843498717850045 1.88097355924997 L6.836419045850013 1.8886991862499691 L6.815490091850014 1.9443547042499922 L6.813371356850061 1.964973600249909 L6.839726337850001 1.975128020249958 L6.8441705108500255 1.9929305502499979 L6.859776793850065 2.1907737722499583 L6.870887226850064 2.216973722249964 L6.901427997850069 2.2583923832500155 L6.926439390850069 2.3047978192499308 L6.944732847850039 2.314151253249978 L6.966281920850085 2.314590504249896 L6.989329609850065 2.310120492249883 L7.004729186850048 2.3036867762499362 L7.013255797850055 2.2985708092499415 L7.019870380850042 2.300896249249977 L7.029895608849975 2.3165542072499257 L7.033202900849991 2.3287240082499387 L7.034391457849997 2.355182340250014 L7.039817483850063 2.3679722572499067 L7.059196145850043 2.3814856452499704 L7.085241067850026 2.3863432302498957 L7.139604673850007 2.3888753742498814 L7.159035013849964 2.3999599692498954 L7.173762795850072 2.4211989832499548 L7.1840980828499905 2.446417082249912 L7.190712665850063 2.4692839032499343 L7.1927280468500125 2.494967090250004 L7.18730202085006 2.518221484249924 L7.1656495958499615 2.5662288902499633 L7.155469338850017 2.577520191249935 L7.148079608849988 2.5898966962499976 L7.142963642850097 2.60335840724996 L7.139604673850007 2.617853646249902 L7.120432717850084 2.642425789249973 L7.097436704850045 2.6551381922499253 L7.046535419850008 2.67402592824995 L7.027776874850096 2.6911049892499967 L7.007571389850019 2.718183439249959 L6.99682269185009 2.743298185249973 L7.006434507850022 2.754331103249971 L7.019043557850031 2.7587752772499847 L7.015219501849989 2.7685162842499302 L7.002920511850041 2.7782314542499655 L6.981474791850038 2.786344653249973 L6.980596291850068 2.7951813232498814 L6.98380023185006 2.805387419249943 L6.987417581850044 2.813526457249953 L6.990776549850059 2.8155418382500024 L6.996357604850052 2.8158518962499848 L7.00209368785004 2.8172988362499787 L7.005762714850013 2.822879891249901 L7.008088154850062 2.8402948492499327 L7.009638446849996 2.845720874249995 L7.00798480185002 2.8480979902499577 L7.003178892850022 2.849389901249996 L7.000233335850018 2.852981413249882 L7.004315774850019 2.8620764652499453 L7.008449889850047 2.863523406249943 L7.027208434850044 2.861973112249931 L7.0318076368499955 2.883367155249932 L6.995019374850093 3.1434057532499544 L6.993722105850045 3.152575529249976 L6.994290546850001 3.174615528249962 L6.997701191850032 3.197353157249953 L7.002455423850014 3.21510401224997 L7.009948505850067 3.2310720302499085 L7.06813616885008 3.312824146249927 L7.084879332850013 3.3306783532499686 L7.101260761849991 3.339127450249965 L7.12301653984999 3.343571623249975 L7.1454441118500736 3.344605152249958 L7.163737568850044 3.3428998292499905 L7.1842531118500315 3.335251717249921 L7.222286965850051 3.31396102725002 L7.243422626850096 3.3095685312499405 L7.28471209685002 3.309620207249953 L7.289931416850029 3.3183018472500017 L7.2635764358500605 3.3979869072499618 L7.260372496850001 3.421086271249937 L7.224664081850014 3.5079285162499367 L7.225749286849995 3.544334562249933 L7.2765988968500235 3.564307503249953 L7.289001240849975 3.5621887702499784 L7.29907814485002 3.558002979249938 L7.307398049850084 3.5596566242499 L7.321092304850017 3.585236459249945 L7.331944355850046 3.5962435392499295 L7.354268573850012 3.6134259532499904 L7.395919778850034 3.6365511562499826 L7.408528827850054 3.6517698652499213 L7.407109519850044 3.652816447249922 L7.391113869850036 3.6646114592499153 L7.367239358850034 3.668177132249969 L7.347498960849995 3.668177132249969 L7.3282753288500455 3.670399219249976 L7.238565041850071 3.715874479249937 L7.22347552384999 3.7316616302499206 L7.223423847849963 3.7317649822499455 L7.213708678850017 3.756001229249936 L7.20885109385002 3.779617359249958 L7.2046136258500635 3.8286841312499753 L7.186371845849996 3.915371347249934 L7.196397073850013 3.9462221772499255 L7.2421823928500455 3.9599939462499556 L7.264351581850084 3.9625260902499555 L7.324296243849991 3.980561166249945 L7.3287404168500725 3.979992725249989 L7.339256570850031 3.9746958912499544 L7.345121845850022 3.9748509192499064 L7.3516330768500975 3.9791659022499637 L7.359617084850063 3.991749113249984 L7.364397154850073 3.9972784912499897 L7.383259052850084 4.013685759249956 L7.390183694850057 4.0221348552499485 L7.41410988284999 4.065310514249976 L7.423489154850037 4.076136727249921 L7.451368589850082 4.094740243249976 L7.458499937850027 4.103370206249924 L7.463719257850064 4.122077075249994 L7.461342141850102 4.160446827249931 L7.4636159048500215 4.181556649249959 L7.47606992485 4.223130339249952 L7.476018247850012 4.240493620249968 L7.4688352248500305 4.26563420424991 L7.465734637849996 4.289560392249999 L7.472090839850031 4.310902759250002 L7.492864764849989 4.353354948249947 L7.434573749850037 4.359685311249965 L7.406978534850046 4.355912931249936 L7.384292581850067 4.3417019132498815 L7.352873310850034 4.279018401249946 L7.331479267850019 4.250363818249955 L7.309568460850064 4.2539036542500135 L7.305899432849989 4.269019011249927 L7.308534931849996 4.2855296312499185 L7.3067262568499896 4.2995856212499355 L7.289724709850068 4.307337085249944 L7.272981546850039 4.306768644249974 L7.256729307850028 4.301936898249966 L7.242440774850044 4.294030404249927 L7.231485371850047 4.284444426250008 L7.223733905850045 4.271189421249918 L7.21835955785007 4.256797534250001 L7.211434915850097 4.243594206249927 L7.199032571850031 4.233853198249964 L7.184769876850046 4.231269377249962 L7.16942197585009 4.233284757249923 L7.139604673850007 4.241010384250007 L7.13040626984999 4.23961512024994 L7.1128362818500275 4.241062060249934 L7.10464556785009 4.24054529624998 L7.098108498850101 4.237367196249924 L7.087204771850045 4.227755379249917 L7.078678160850037 4.224964852249958 L7.05842099985002 4.226515145249881 L7.025193053850009 4.23961512024994 L7.004780862850046 4.241733854249919 L6.968969094850015 4.234524992249948 L6.955016457850027 4.236385344249957 L6.90644061185005 4.274651741249958 L6.900911233850044 4.281705575249976 L6.901014586850058 4.293720346249945 L6.906233905850078 4.304443205249957 L6.913210224850067 4.315450285249941 L6.918429543850001 4.32813684924999 L6.9200315138500255 4.34870406924988 L6.907680845850072 4.405651497249952 L6.907680845850072 4.42438420524994 L6.910006284850018 4.443142749249933 L6.907060729850022 4.454640755249958 L6.890730976850071 4.471719816249905 L6.88933571284999 4.482235970249963 L6.972379739850046 4.536547900249918 L7.069789814850017 4.5661843342499715 L7.079349953850018 4.564840747249907 L7.139604673850007 4.544325204249933 L7.152007018850062 4.544170174249988 L7.152885517850015 4.553911182249937 L7.147046080850023 4.567786304249996 L7.139604673850007 4.580059457249934 L7.13361020785006 4.610496875249911 L7.13402361985006 4.625560555249994 L7.139604673850007 4.639745736249953 L7.158259865850047 4.650882007249894 L7.174899677850069 4.669227141249966 L7.187095315850078 4.691189624249933 L7.189674692850067 4.701292183249965 L7.192676370850014 4.713048755249975 L7.174951354850085 4.711653491249994 L7.16280739284999 4.704057056249926 L7.15314389985007 4.695788827249974 L7.143325376850006 4.69266240224994 L7.10146746785002 4.699457853249886 L7.086222919850078 4.698941089249946 L7.088083270850083 4.707467700249953 L7.08642962585005 4.731652271249931 L7.07619769185006 4.770564624249904 L7.026433287850031 4.845650480249905 L7.024107847850095 4.885803068249917 L7.031549253850036 4.896190031249933 L7.053873473850009 4.915413664249957 L7.058989440850004 4.926317391250013 L7.057051573850051 4.936342619249945 L7.051393004850032 4.941871997249951 L7.044830097850044 4.945799406250007 L7.040179218849991 4.951328784250013 L7.036303485850018 4.967400155249894 L7.032686135850033 5.000731454249934 L7.027931903850051 5.015200855249962 L6.995789163850096 5.051891122249945 L6.995117369850041 5.056025236249955 L6.997907896849986 5.06584375824993 L6.997287779850032 5.069977873249957 L6.993205340850002 5.074060312249959 L6.981888203850039 5.080416512249986 L6.977444029850025 5.0843439222499605 L6.957445250850091 5.109665373249943 L6.952691018849995 5.121034188249926 L6.952277607850098 5.128630624249983 L6.95553322285007 5.144857023249987 L6.955068134850043 5.151885018249917 L6.926336038850044 5.183924406249918 L6.889955829850058 5.1681630942499375 L6.852077004850051 5.1389142342499845 L6.818539000850043 5.130387622249959 L6.783037291849999 5.14092961525002 L6.764433775850042 5.142428231249941 L6.740507587850052 5.115298104249963 L6.715289488849995 5.128320565249911 L6.669865904850061 5.170230152249989 L6.6396868688500685 5.151058195249977 L6.6074924518500975 5.127442065249969 L6.588785582850042 5.1048077892499215 L6.582532733850021 5.077470955249982 L6.587907083850004 5.040005542249919 L6.468741230850005 5.0338560472499445 L6.4608347358499625 5.053803150249951 L6.4346347848500525 5.085480802249965 L6.427735981850068 5.106203052249899 L6.42528135085009 5.140774585249989 L6.423834410850096 5.14645899324994 L6.417943296850003 5.156794280249944 L6.416134621850025 5.162530363249903 L6.4172715038500225 5.1687315352498935 L6.421302265850036 5.170540210249971 L6.42579811485003 5.171832121249924 L6.428485289850064 5.176379647249963 L6.429570494850074 5.199685718249899 L6.425694762850005 5.219529468249892 L6.41577288785003 5.237667896249921 L6.398823017850097 5.255806324249949 L6.370917743850034 5.2724978112499805 L6.364923277850002 5.277407072249918 L6.361357603850044 5.286708830249939 L6.359858987850023 5.307121021249987 L6.356086608849997 5.316009367249993 L6.347611673850016 5.3237091552499045 L6.331281920850065 5.32841171024997 L6.321902647850029 5.334354501249894 L6.303686705850074 5.3567303962499615 L6.294695006850011 5.370579679250017 L6.289940774850029 5.381328377249947 L6.292007831850091 5.398329924249968 L6.299397561850091 5.416364998249964 L6.303945087850044 5.435330250249923 L6.29748553385007 5.4551739992499115 L6.286426777850059 5.461581877249959 L6.243121926850014 5.4780666592499365 L6.229892760850097 5.479616952249959 L6.210927509850071 5.449541268249977 L6.19811175485008 5.441738127249966 L6.19273740585003 5.465250904249945 L6.182195413850044 5.460548349249965 L6.177596210850018 5.461995289249959 L6.174288919850019 5.477653247249922 L6.1698447458500905 5.478170012249965 L6.14767555685008 5.484732919249939 L6.139614033850071 5.489332121249905 L6.122457456850034 5.487936857249924 L6.108659849849991 5.495481616249965 L6.0960508008500565 5.506850432249951 L6.082201516849997 5.51687565924998 L6.068920673850064 5.521009774249993 L6.054864683850061 5.523386890249942 L6.049226910850043 5.525244547250001 L6.041377135850004 5.527831063249952 L6.0299049668499745 5.538011320249925 L6.039258400850022 5.503543140249949 L6.035692727850053 5.490262297249945 L6.016159036850032 5.480340421249952 L6.00840757085003 5.474139250249966 L6.007839130850064 5.456827645249962 L6.002232237850043 5.452745207249951 L5.979882180850003 5.453623706249989 L5.97383603785004 5.452538501249993 L5.949031350850097 5.42985254724994 L5.9354404498500255 5.367220711249917 L5.920971048850069 5.346911874249987 L5.905597309850085 5.345154875249921 L5.871516701850046 5.354146574249956 L5.855807066850067 5.351614429249967 L5.849812600850035 5.344741463250006 L5.842887959850051 5.324897714249918 L5.835911640850062 5.316267749249963 L5.827540057850078 5.311151782249983 L5.820305357850023 5.308567961249981 L5.806094338850064 5.30665593324996 L5.789351174850017 5.307121021249987 L5.780152769850011 5.30892969624988 L5.776070332850017 5.312392017249923 L5.773899921850008 5.323244067249963 L5.768835631850029 5.326551359249965 L5.763047870850064 5.3283600342499575 L5.747958352850068 5.350167489249973 L5.736589537850071 5.340452320249941 L5.7172108758500055 5.30665593324996 L5.7060487658499905 5.323140715249938 L5.676954934850064 5.351304370249981 L5.6686867058500265 5.355386809249996 L5.668213473850036 5.355015412250001 L5.664604267850015 5.352182870249937 L5.675611347850028 5.342829436249989 L5.681812518850014 5.332649178250012 L5.684448017850022 5.320866952249919 L5.685068134849976 5.307224374249916 L5.689098896850075 5.294770353249934 L5.698607359850049 5.285158537249917 L5.719226255850051 5.269655607250005 L5.741912210850037 5.235962573249953 L5.750387144850029 5.214620207249954 L5.746614765850003 5.20077092324998 L5.764494810850058 5.1799969972499476 L5.771651996850002 5.168679858249963 L5.776535419850026 5.141963143249999 L5.782323179850001 5.126873625249917 L5.790901467850025 5.113954517249912 L5.801805194849996 5.105789641249974 L5.780617857850038 5.081295012249928 L5.779067564850029 5.047653654249988 L5.788937763850091 5.012048592249915 L5.799841490850062 4.986313729249918 L5.774313332850019 4.9538092532499896 L5.76563169284997 4.936756030249956 L5.739638446850014 4.90378646724999 L5.7166424348500495 4.861980233249941 L5.70687558985002 4.820380705249935 L5.709304380849963 4.7781610602499605 L5.722219701850028 4.734751233250012 L5.723567076850051 4.731652271249931 L5.730750100850079 4.722402189249923 L5.732972187850086 4.712428638249907 L5.7311635128500225 4.702041675249976 L5.726047545850028 4.691318815249961 L5.714368671850044 4.677650399249959 L5.703775002850071 4.676461841249935 L5.69312965785007 4.684755908249986 L5.681089049850092 4.6994061772499585 L5.682535989850086 4.687856494249932 L5.693439716850056 4.669795582249922 L5.695506773850033 4.6594344562500005 L5.67726499385005 4.586932422249905 L5.677213316850034 4.575434415249976 L5.673906024850046 4.56352299824994 L5.663984149850043 4.558252002249919 L5.63969622685004 4.553342741249981 L5.625175148850095 4.542723234249994 L5.62341815085002 4.515903166250002 L5.629877704850079 4.487429452249973 L5.63969622685004 4.471616464249966 L5.644502134850049 4.467172290249966 L5.646155780850014 4.462624764249927 L5.644553811850065 4.458154753249918 L5.63969622685004 4.453813932249933 L5.63406349585002 4.443814543249918 L5.630187763850065 4.43278162424993 L5.625123472850097 4.422239633249962 L5.615925067850091 4.413635507249925 L5.6268287958500505 4.402499235249994 L5.633029967850055 4.397538298249945 L5.63969622685004 4.393843433249945 L5.643830341850068 4.392086434249965 L5.656181008850032 4.384748380249963 L5.650961688850023 4.382061206249947 L5.643830341850068 4.374438933249966 L5.626260354850009 4.3619073972499685 L5.576134214850091 4.340926766249968 L5.563266783850073 4.323124235249924 L5.555153583849991 4.317336475249949 L5.54797055985002 4.325294645249915 L5.54316465185004 4.331883391249907 L5.535774921850011 4.335500741249991 L5.527248310850004 4.336585945249983 L5.519186786850005 4.335655770249932 L5.501926858850018 4.336120858249959 L5.486940692850046 4.339479826249974 L5.478052346850026 4.336689298249912 L5.479395933850091 4.3185767092499 L5.488801044850041 4.305838468249934 L5.501926858850018 4.296769255249959 L5.510195087850056 4.284806160249918 L5.504769062850093 4.2634121182499065 L5.491798277850071 4.250363818249955 L5.471799498850023 4.241165414249952 L5.452059101850059 4.240958708249995 L5.439811786850035 4.25488550624998 L5.437331317850058 4.275530242249989 L5.437124612850019 4.289947966250001 L5.433197203850048 4.292583464249933 L5.419399596850004 4.277726489249989 L5.409012633850059 4.26015650324992 L5.404413430850033 4.242353972249976 L5.398005552850085 4.195509285249958 L5.39226946985004 4.178249357249957 L5.381727476850065 4.165201059249927 L5.364725930850048 4.162823943249965 L5.365294370850014 4.175148772250015 L5.36048846385008 4.183675383249938 L5.353305438850034 4.191039274249935 L5.346458311849991 4.19974675325 L5.3464841508500935 4.207756600249983 L5.3498431178500905 4.215430550249966 L5.348499530850026 4.221967619249941 L5.323694842850008 4.229202319249911 L5.3056080918500665 4.238529916249949 L5.296668069850048 4.241165414249952 L5.291810484850023 4.234680021249989 L5.287159606850073 4.230132495249965 L5.28250872785002 4.2278587322499455 L5.268401061850076 4.231579435249959 L5.263440122850019 4.232302906249945 L5.243958108850043 4.2325612882500145 L5.227163267850065 4.234783374249933 L5.2111435738500145 4.239873503249914 L5.194193704850099 4.248658496249906 L5.155126321850011 4.278915048249917 L5.114922056850068 4.302557015249935 L5.09363136785 4.306045175249896 L5.080298847850051 4.301575163249968 L5.0759580268500795 4.288268482249951 L5.086034931850028 4.241346281249907 L5.079213642850069 4.226721851249938 L5.064227477850087 4.218117724249897 L5.007331724850038 4.203932544249941 L4.9904335318500355 4.203570809249943 L4.973483662850034 4.208635099249921 L4.9396872748500495 4.2416305012499755 L4.922892434850004 4.251164803249967 L4.915037617850052 4.234473316249936 L4.894470396850059 4.24230229524996 L4.883980080850014 4.244110970249952 L4.8730763548500615 4.243594206249927 L4.861604185850032 4.245144499249935 L4.853077574850024 4.242353972249976 L4.845067727850042 4.237858122249964 L4.817730894850021 4.229667407249938 L4.811012958849991 4.229150643249898 L4.780575539850039 4.233439787249953 L4.76553769885003 4.239124195250003 L4.752928649850011 4.247211556249912 L4.741249775850028 4.258037769249942 L4.731534605850092 4.271654509249945 L4.707350035850018 4.320592090249935 L4.695102720849993 4.336069182249947 L4.636036559850046 4.393430022249934 L4.600948261850013 4.416374358249957 L4.582654804850042 4.42363489624994 L4.572061136850058 4.421309457249908 L4.543432392849999 4.402964323249922 L4.528601256850058 4.396711475249919 L4.495528339850059 4.394954476249939 L4.467157978850073 4.404152881249946 L4.447417580850091 4.425081837249937 L4.440131204850038 4.458619841249945 L4.4200290728500615 4.44092066224994 L4.430312682850049 4.4083645102499 L4.453308694850099 4.374645638250019 L4.471498798850055 4.353354948249947 L4.486226581850039 4.329144539249956 L4.500644305850065 4.242715707249975 L4.51144468085001 4.241346281249907 L4.514235207850069 4.233439787249953 L4.514131855850044 4.221580046249944 L4.516457294850047 4.208325041249939 L4.523433613850065 4.196206917249942 L4.538833190850047 4.18171167825 L4.5548012078500815 4.152566170249987 L4.570665872850006 4.131378833249929 L4.589889504850097 4.115436654249908 L4.610146666850019 4.111457569249925 L4.63319435585 4.109648893249929 L4.65200457685008 4.096652271249983 L4.665647154849998 4.077170256249989 L4.673450296850026 4.055750375249975 L4.630558856849964 3.998673755249971 L4.62508115585006 3.989061939249954 L4.609991636850074 3.9781840502499968 L4.56901222685004 3.9241305012499232 L4.566221698849992 3.921624194249933 L4.5590386748500205 3.91697331524988 L4.555628030850093 3.9128392012499553 L4.5551112668500675 3.9091960122499536 L4.556196471850049 3.8986023442499835 L4.555938088850004 3.894184009249887 L4.54684303785003 3.8659170002499117 L4.545189390850075 3.855917611249982 L4.543432392849999 3.7830796802499016 L4.548186624850066 3.748378955249965 L4.563534524850061 3.6891577642499733 L4.563133123850056 3.686562039249967 L4.562211576850094 3.680602696249995 L4.561209085850029 3.6741199222499894 L4.549323505849989 3.664456429249956 L4.5259657578500505 3.657867685249972 L4.486226581850039 3.6537852462499565 L4.44488543685002 3.6552321862499504 L4.408970315850061 3.6444059742500095 L4.401838967850031 3.608103280249953 L4.4127426948500865 3.5649276212499252 L4.43057106385003 3.5337150562499353 L4.440337909849992 3.526867928249974 L4.451551695850034 3.5219069912499386 L4.462145364850093 3.515369922249949 L4.470103535850077 3.5037168862498937 L4.471395445850012 3.4944668052499743 L4.467364684850017 3.4775169352499695 L4.467261331850088 3.468938648249935 L4.471860533850039 3.4564071132499414 L4.477648294850033 3.4453225182499274 L4.481472349850057 3.4342379242500023 L4.480180438850018 3.4217580652499215 L4.437547382850019 3.384886930249994 L4.427108743850075 3.380029346249888 L4.4137762238500695 3.371166838249966 L4.401838967850031 3.360650684249922 L4.3898500348500615 3.3430031822499195 L4.38054827785003 3.3408844492499448 L4.36990293285003 3.3409878022499733 L4.360084410850069 3.3396958902499314 L4.3536248568500096 3.340936125249957 L4.335951516850022 3.340160978249944 L4.323549172850042 3.3360785402499467 L4.3331609898500485 3.327319385249954 L4.3438580108500755 3.3199554942499567 L4.341894306850028 3.314322763249937 L4.326236347850076 3.304271697249991 L4.311353534850033 3.287967782249968 L4.300449807850063 3.272955779249987 L4.29621234085001 3.255230762249969 L4.301638365850087 3.2303485592500074 L4.302723570849983 3.216137541249953 L4.2951271348500395 3.2096779872499077 L4.284740171850009 3.2048204022499682 L4.277608824850054 3.195544482249961 L4.272492857850059 3.1680526212498883 L4.268978860850032 3.1598102292499455 L4.25926369185 3.149914193249959 L4.233632180850028 3.1323183682499725 L4.22624245085 3.1225256842499256 L4.219524514849999 3.096325733249902 L4.215183694850017 3.0885225912499727 L4.208672463850027 3.083380787249883 L4.1923943878500065 3.0774379962499587 L4.186813333850088 3.0739756762499333 L4.180715514850041 3.0644413742499417 L4.168984963850042 3.0304641202499063 L4.145213805850082 2.9854797862499716 L4.110383889850018 2.9410897302499173 L4.069352802850082 2.9020481862500027 L3.9950420928500048 2.8554618822499584 L3.9876523628499765 2.8437571692499723 L3.9740614618500754 2.7778438802499643 L3.9667750848500045 2.755623014249924 L3.955716327850004 2.7460628752499368 L3.9418670438500296 2.7448484782499953 L3.908018980850036 2.734823251249967 L3.882645852850052 2.7322135912499625 L3.6704373118500566 2.733374846249948 L3.245217059850054 2.7357017502499197 L3.240359475850047 2.796731616249989 L3.2335381868500885 2.8060075362499255 L3.0455051838500165 2.8465437162499576 L3.013965025850032 2.85334314824998 L2.9969634798501 2.852619678249983 L2.980478697850023 2.8490281662499974 L2.9616684768500274 2.842155201249941 L2.937923155850049 2.8276599612499957 L2.9197072138500086 2.8114594002499906 L2.901723814850035 2.7998063642499353 L2.8785727738500295 2.798953703249996 L2.728323546850012 2.8306055182499 L2.68297747684999 2.84696110924995 L2.6469848418500046 2.867838387249922 L2.6409903758500004 2.8769076012499717 L2.640318581850087 2.883108773249962 L2.641584654850041 2.8898783852499044 L2.6416880078500835 2.9003945392499624 L2.6280454298499674 2.9746018962499257 L2.6286655468500353 2.977599129249942 L2.632437925850061 2.9887870772499703 L2.6328513378500613 2.993748015249924 L2.629750751850045 2.9961509682499816 L2.6245831088500235 2.9953758222499722 L2.6196221708500698 2.995427499249889 L2.6176584668500507 3.000285083249995 L2.6178393338500054 3.0125065602499213 L2.616547423850042 3.0163047772499603 L2.613291807850052 3.016899056250015 L2.582234271850032 3.0356576012499126 L2.5730617058500425 3.044856006249919 L2.556731952850006 3.073355558249961 L2.5537605578500884 3.076507820249919 L2.5525461618500653 3.118856657249925 L2.548489562850042 3.1275124592499743 L2.540453876850071 3.1281325772499464 L2.530712869850012 3.1269440192499225 L2.5214627878500178 3.1303546632499497 L2.5167602328500234 3.138803760249946 L2.508026915850044 3.171592456249943 L2.5053914178500545 3.1761141442499685 L2.5032468458500627 3.178775481249989 L2.500042906850089 3.180480803249967 L2.4943584998500423 3.182186125249931 L2.4866845488500555 3.185855152249932 L2.4860385938500738 3.1899892672499455 L2.4880022978500076 3.194510954249882 L2.4877955928500537 3.1995235682499334 L2.4537149848501 3.3079924002500043 L2.449115782850063 3.3142710862499207 L2.4421911408500616 3.3200588462499816 L2.438858011850064 3.3238053882499976 L2.4362741888500548 3.329851530249943 L2.432372618850101 3.3361302172499485 L2.427463357850078 3.3350966882499655 L2.4223732288500823 3.3317118822499516 L2.4180840848500136 3.330988411249951 L2.4012375678500373 3.340419361249918 L2.3955531608499907 3.3453802982499674 L2.387517475850009 3.355896452249926 L2.387750019850065 3.3638287852498827 L2.3917549428500617 3.372872160249944 L2.3911606638500214 3.3805461102499272 L2.3773888948500623 3.384370166249955 L2.36005145185006 3.3931293212499476 L2.336176939850068 3.432429248249921 L2.319485452850037 3.446252694249882 L2.298427306850007 3.449715015249925 L2.279203673850068 3.4483714282499456 L2.2596699828499904 3.449715015249925 L2.237785012850045 3.461213021249936 L2.2183029988500405 3.441136727249887 L2.1973998818500515 3.4557869952499694 L2.1815610548500413 3.4866378252499466 L2.1769618518501 3.515369922249949 L2.181380186850012 3.525420988249895 L2.1951002798500294 3.5421383142499288 L2.196159645850022 3.5503807052499674 L2.1925164588500277 3.5515175862499753 L2.1768326608500583 3.5530162032499852 L2.17114825385004 3.555910083249973 L2.161510598850006 3.569526823249962 L2.153268207849967 3.5840995772499333 L2.140064879850078 3.6154671722499536 L2.1264481398499893 3.632236173249911 L2.10830971185006 3.6436825032499236 L2.069733254850055 3.6622343432499527 L2.039399188850032 3.6842743412499495 L2.024257994850009 3.6867548102499264 L2.0014686878500267 3.6788999922499848 L1.9635381868500215 3.6552321862499504 L1.9477768748500264 3.6515114832499513 L1.9216802768500454 3.656162362249919 L1.8779361768500475 3.6696240732499668 L1.8542160768499993 3.6867295762499914 Z" fill="black" stroke="black" stroke-width="0.5" vector-effect="non-scaling-stroke"/></svg>