<svg xmlns="http://www.w3.org/2000/svg" viewBox="0 0 5.013191673960009 7.519633745939981"><path d="M4.964042735980009 6.690118186469929 L4.917353079980025 6.707714011470001 L4.886941498979958 6.725077292470017 L4.870999319980008 6.7262658504699555 L4.855754771979981 6.718746929469999 L4.841440400979998 6.70714557046996 L4.825627412980005 6.697172018469955 L4.806300425980034 6.6948724184699255 L4.789453909980047 6.70166786946997 L4.776198904980056 6.711873963469939 L4.761910370979969 6.719625429469955 L4.741756561980004 6.718901958469955 L4.721706106979958 6.715594666469952 L4.708218557979997 6.718746929469999 L4.665223765979995 6.752672507469937 L4.653131480980029 6.758201885469928 L4.639385549979984 6.758150209470015 L4.568227102979968 6.746083762469935 L4.555152965980007 6.741536236469996 L4.539029918980027 6.728487936469959 L4.532415334980023 6.718901958469955 L4.523940399980013 6.713630963470008 L4.502339651979959 6.713475933469978 L4.469008352979991 6.717144960469978 L4.452626923980041 6.716886578469994 L4.43469520197997 6.713165875469995 L4.408391897980017 6.699342429469935 L4.38989173497999 6.683658632469969 L4.37805783198008 6.663039735469978 L4.371804983979992 6.634566021469935 L4.341367564980011 6.610278098470031 L4.2929467479800465 6.629527569469969 L4.207422252980031 6.683193544469956 L4.18721676798004 6.679498679469942 L4.151043264979997 6.656890240470004 L4.126445283980026 6.654590638469982 L4.104379446980012 6.662884706469937 L4.089703339979941 6.676449770470013 L4.0770942899800175 6.692081890469963 L4.061332978980012 6.706525453469991 L4.04030067098001 6.717455018469961 L4.026348033980021 6.722545147469942 L4.016374481980002 6.731433493469963 L3.9915697949799736 6.797915223470012 L3.981079479980032 6.816001975469943 L3.914571910980051 6.900182882470004 L3.884702932979941 6.922765484470032 L3.8379874379799404 6.93462522546997 L3.8072916379800077 6.935555401469925 L3.722748993979941 6.9200783094700125 L3.687040579980028 6.91826963447002 L3.6551045439799523 6.9267962454699425 L3.5743859569800307 6.962478822470031 L3.540486216980021 6.983175233469963 L3.5236396999800164 6.989247214469911 L3.506844859979971 6.988420391469985 L3.4767174999799764 6.976250592469979 L3.46085283598007 6.974028504469969 L3.4548583699800375 6.981314882469958 L3.4560986039799744 6.997127870469951 L3.461938039980062 7.02761696546993 L3.458889130979948 7.044902731470016 L3.4522745479800463 7.063247865469917 L3.4347045609799594 7.095545635469987 L3.4186331899800066 7.1148726214699405 L3.376723603980004 7.122727439469967 L3.329439667980047 7.1211771454699555 L3.297245250980019 7.112650534469934 L3.2903206089800463 7.104356467469982 L3.2829825549800447 7.082549012469952 L3.2752310909800215 7.0729113574699465 L3.258591279980017 7.064126364469955 L3.2481009639799723 7.065831686470004 L3.238902558979966 7.0717744774700275 L3.2261901569800173 7.075676047469981 L3.207276581980075 7.075030092470014 L3.1853140979800187 7.07141274246993 L3.163868378979977 7.065159893469938 L3.1466601269800165 7.056555767469986 L3.139528778979958 7.048959331469929 L3.1297102569799975 7.032836285470038 L3.125369436980016 7.030510846470007 L3.1139489459800203 7.038339824469942 L3.1071276569799764 7.051543153469934 L3.101598277979953 7.066245098470018 L3.094466930980026 7.078414898469942 L3.0855785839800163 7.084357687469945 L3.062737601979997 7.094512106470004 L3.055606253979967 7.100971660469964 L3.054159312980069 7.110893535469954 L3.0599470739799486 7.132003358469985 L3.059481985980007 7.141537660469977 L3.032403534980041 7.159701926470019 L3.0194315139800167 7.161926710469968 L2.9469823929799546 7.174352194470002 L2.944107400980023 7.177950961469959 L2.93220293298004 7.1928523574699295 L2.938869192980043 7.213548768469947 L2.957782766979996 7.2528486954700195 L2.964138968980002 7.273674297469979 L2.9647590849799954 7.297858868469957 L2.958247854980023 7.315273825469985 L2.9269319369800044 7.364469789469963 L2.9187153849799827 7.364883201469963 L2.9108088909800145 7.360180645469994 L2.9027990429800425 7.357338441470018 L2.9031091019800286 7.355374737469985 L2.899130016980031 7.351292299469973 L2.893548961980038 7.347106508470032 L2.88889808298007 7.344832745470013 L2.8844539099799604 7.346589743469989 L2.871689830979996 7.356356589469952 L2.8653336299800642 7.35899208746997 L2.7632726759800406 7.349276918469938 L2.7481314819800176 7.350672181470001 L2.7366593129800165 7.359457175469997 L2.7089607459799723 7.399403057470037 L2.69304440498005 7.416766339469971 L2.6739241239799654 7.4304605924699825 L2.6498945839800356 7.4399173804699625 L2.629895804979988 7.444464906469987 L2.611860728979998 7.445911846469981 L2.5938256549799874 7.443017966469993 L2.573723521980021 7.434491355469985 L2.5479886589800245 7.413924135469996 L2.5394103709800007 7.393201885469962 L2.534139375979983 7.371497784469964 L2.5183780629799983 7.347519919470043 L2.4998779009799605 7.332740459470029 L2.4793623569799834 7.321578350470004 L2.473837085979973 7.31942074146991 L2.434765595979975 7.304163393469976 L2.2679023959800375 7.274604473469948 L2.2037202669799925 7.25393390046993 L2.1859435749800653 7.24429624546991 L2.1734378779800707 7.227578919469961 L2.1520438349799704 7.179623190470023 L2.143672252979975 7.16877113946998 L2.1255338249799607 7.158203309469924 L2.121141327980048 7.140969219469936 L2.118919241980059 7.122210674470024 L2.1072920449800066 7.107095318469929 L2.098171153980026 7.105700054469947 L2.077836477979993 7.111332786469971 L2.0656925169800004 7.108387229469981 L2.0619976509799827 7.1038397034699425 L2.0548921419799697 7.088078390469958 L2.051223115980072 7.082290630469982 L2.0461329869800764 7.079706808469977 L2.03375648098001 7.078466574469955 L2.029028087980045 7.076451193469991 L2.019984711979994 7.065780011469995 L2.0003476679800443 7.030717551469975 L1.9910975869800396 7.020408103469974 L1.959859182980047 6.995655092469944 L1.9430385049799739 6.974080181469985 L1.9151332309799969 6.928656597469951 L1.894385142980049 6.911215801470005 L1.873146129979979 6.904575380469991 L1.8552919219800188 6.906823305469912 L1.8379286419800067 6.911732565469945 L1.817697317980027 6.912921124469973 L1.806199311979988 6.909975567469969 L1.796044892980042 6.904730409470032 L1.7868981639799486 6.897650738470018 L1.7650131959800106 6.874344667469982 L1.763385387980044 6.866128114469957 L1.7793792429799922 6.844630718470013 L1.8003857129800238 6.804038881469976 L1.7994038609799432 6.791765728470038 L1.7967425249800115 6.790370464469971 L1.7903863229800052 6.792024110469923 L1.77788062698 6.789026877470006 L1.7402860219800758 6.774324932470007 L1.728632986980024 6.773678977470025 L1.7083499869800178 6.780939515470008 L1.6961801869800084 6.780422751469969 L1.6871109739800332 6.7695965394700135 L1.682305064980035 6.749158509469977 L1.6807289339799993 6.727092673469981 L1.6813232129799545 6.711202170469958 L1.6849922389799659 6.699807517469962 L1.6974979369799499 6.680480531470009 L1.7020454629799886 6.669886863469939 L1.703053152979983 6.660765972470044 L1.7005210079799795 6.634566021469935 L1.7023296829800714 6.626065247469937 L1.708065765980031 6.609502951470018 L1.7087633979800287 6.601312236469992 L1.70545610698003 6.590330994469921 L1.694397349980001 6.5694795544699485 L1.6928987339800088 6.55627622646996 L1.6960251579800527 6.545760072470001 L1.7072906199800073 6.528112570470013 L1.710468720979982 6.518216533469923 L1.710003632979955 6.508010438469951 L1.7008827429800775 6.4782189754699555 L1.7001075959800644 6.440908591470018 L1.7056369749799742 6.402254619470012 L1.7041641959800486 6.367941469469995 L1.6826151229800033 6.3437568984700174 L1.6735975859799694 6.34137978246997 L1.6540122189799504 6.340863018469944 L1.6446587839799989 6.33900266746994 L1.6322306019800195 6.332543112469976 L1.6016123159799989 6.306291485470039 L1.5617956249800002 6.28572426546995 L1.5427270219800064 6.27213336346996 L1.5324175729800018 6.253013083469964 L1.5340453809800536 6.2439180314699865 L1.5443548299799446 6.227226544469955 L1.544044769979969 6.216116110470038 L1.5418226839800653 6.205522442469968 L1.5407891549799686 6.18387001646998 L1.5390838329800047 6.172966290470013 L1.5100158399800208 6.107853985470014 L1.5063468139800094 6.088733705470018 L1.506631032979989 6.076279685470039 L1.5051324179799863 6.068734926469999 L1.4968383499800453 6.051888409470008 L1.4927300729800166 6.0478059714700105 L1.4798368029800102 6.043051739470014 L1.4748758659799606 6.039176006469971 L1.4755993359800712 6.035972068469986 L1.480534434980008 6.02367307646996 L1.480818655979995 6.0182987284699845 L1.4493993849800475 5.956958802470025 L1.4457820349799775 5.937683493469988 L1.4521382359799944 5.774437643469936 L1.4728863239800276 5.692427146469951 L1.4754443069800303 5.671291485470006 L1.4718786329800437 5.614085675469964 L1.4766328649800542 5.589022604470044 L1.4864772259800318 5.565251446469999 L1.5131939399799776 5.521688213469956 L1.5184907749800303 5.517399069469986 L1.5251053579800171 5.5149702774700256 L1.5309964719800249 5.511766338469966 L1.534252086979997 5.505306784470006 L1.5331668819800157 5.498330466470007 L1.5256737989799731 5.487736797470033 L1.5243043739799944 5.481638978469972 L1.527482473980065 5.478900128470029 L1.5401431999800153 5.476936423469992 L1.5426495069800765 5.473060690469948 L1.5404274199799843 5.4664977834699595 L1.5319266479800504 5.45709267246991 L1.5290069289799888 5.450581442469938 L1.5291877969800183 5.437558981470003 L1.5343554399800396 5.429859193470007 L1.5416159789799977 5.423502992469976 L1.5482305609799951 5.414356263469996 L1.561847301979988 5.369191062470021 L1.5662397979799962 5.359165834470003 L1.5921296909800233 5.3163519094699705 L1.602671682979981 5.28271055247002 L1.6058756219799548 5.281857891469995 L1.6121801469799735 5.281444479469981 L1.619053111980044 5.279790834470033 L1.6240915639800235 5.275139955469966 L1.6248667109800081 5.268241151469992 L1.6187688919799612 5.255037823470003 L1.617373627979994 5.248319886469984 L1.62181780097999 5.200054098469975 L1.6045061959799867 5.20633278546998 L1.6073225619799487 5.1887111224699805 L1.6245049759800239 5.147344138469945 L1.6163142609800119 5.1219710094699575 L1.598227509979985 5.101274598470026 L1.5828279329800026 5.079363791469971 L1.582982962980033 5.050011578470004 L1.6082010619800045 5.0224422004700084 L1.6903149119800176 4.9936067524699705 L1.7282195749799953 4.958518454469951 L1.750802175979949 4.948674094469963 L1.7596388459799428 4.941516908470019 L1.7657366649799897 4.930044740470008 L1.7663051059800594 4.921388937469954 L1.765090709980008 4.912578106469963 L1.7657108269799906 4.900615012470011 L1.7740565709800435 4.875500265469979 L1.786743134979993 4.862813702470033 L1.827567515979986 4.844546083469977 L1.8472562369800372 4.829327374469939 L1.850460175980011 4.815193869469992 L1.8461451939799431 4.798605735469989 L1.843354666979998 4.7760489724699635 L1.8495299999800707 4.755843487469972 L1.8640769159800143 4.732537416469951 L1.8827062689799803 4.713546327469983 L1.9012839469800227 4.706027406470026 L1.9111541459799994 4.7046321424699595 L1.916631846979989 4.699826234469951 L1.9182079779800247 4.69220396046998 L1.9162701129799942 4.68228208646998 L1.9090354119800352 4.674039695470041 L1.8971756699800224 4.669802227469999 L1.86547217998001 4.664608746469979 L1.8558603629799748 4.6650221574699895 L1.8495816759799837 4.661094748470019 L1.8504860139800101 4.635359885469937 L1.8461451939799431 4.629468772469947 L1.8401248889800073 4.624585349470008 L1.8260430619799948 4.5990055144699635 L1.7921691599799843 4.567534568469922 L1.7826090199799935 4.552005799469994 L1.785761282980026 4.52854470046992 L1.7968717159800534 4.51193072747 L1.799688080980026 4.497693870470028 L1.7785007439799827 4.4811574114700345 L1.73553178997998 4.467282289469976 L1.719124523980021 4.4552675184700075 L1.70739397298005 4.428964215469959 L1.7054302689800025 4.418086325469998 L1.7053269159799882 4.409404685470035 L1.7079107379799794 4.391731345470033 L1.710339529980054 4.385891908469956 L1.7192537139799597 4.374032166469943 L1.7213724479800376 4.367675966470001 L1.7193053909799758 4.361035544469997 L1.7091768109800185 4.349640890469912 L1.70739397298005 4.345145041469989 L1.718065156980039 4.326438173469908 L1.752249115979943 4.2910398174699775 L1.7584761259800317 4.267268658470014 L1.7587466889800183 4.260266498470015 L1.7591220819800029 4.25055133246998 L1.7554013789800038 4.247269878469991 L1.7439033719799752 4.246081320469967 L1.7323536899800231 4.242360617469954 L1.7235170199800294 4.234014873469986 L1.715946422979961 4.224196351469926 L1.7079107379799794 4.2161606664699445 L1.6495938839800388 4.183526999469974 L1.6362355259800054 4.16598285047 L1.6281740019800068 4.174897035470023 L1.61962155298 4.177119121470026 L1.598227509979985 4.171486390469992 L1.5934991169799915 4.170969626469967 L1.5826212269800308 4.171072979469981 L1.578228730980051 4.169755230470029 L1.5741721309800383 4.163502382469941 L1.5770143349800279 4.150815817469988 L1.5729318969800161 4.147043437469959 L1.5600386269800097 4.146991761470032 L1.5405824499800147 4.156448548470008 L1.531306529979993 4.157378724469963 L1.5259321819800462 4.152521140470041 L1.5115661329799437 4.133478374469972 L1.5025485949799773 4.127819805469938 L1.4927300729800166 4.125856101470005 L1.481180389980075 4.1252359834700325 L1.4713101919800025 4.128026511469995 L1.4669693719800208 4.136320578470032 L1.4613108019799839 4.142935162469952 L1.4488826209799939 4.14097145747 L1.425163137980043 4.132858257470003 L1.4056811229800488 4.135803814470007 L1.390255707979982 4.140144635469978 L1.3796103629799816 4.1374057834699425 L1.3743135289800321 4.1191898414699875 L1.3689908559800088 4.111774272469971 L1.3580871289800385 4.106193218469967 L1.3472609159800086 4.10572813046994 L1.3420157589799615 4.113737977470008 L1.3396644809800264 4.125132630470004 L1.3338508829800517 4.129576804470004 L1.3249366979800143 4.129370098470046 L1.3129994419799758 4.126863791469971 L1.2970831009799682 4.1187247534699605 L1.2858693149800118 4.10394529446995 L1.281011729979987 4.085522645470034 L1.2843190219800036 4.066531557469984 L1.3110357379799567 4.038187033469979 L1.3196398629799901 4.0367400934699855 L1.3397161579800425 4.036378358469987 L1.3487853719800071 4.033174419470013 L1.3581646439800537 4.024208558469978 L1.3615752879799814 4.014803447470028 L1.3626604929800763 4.004649029469972 L1.3651926379799662 3.9934094054700164 L1.3702310909800204 3.981446310469961 L1.3988081579800067 3.9399759734699966 L1.407386444980041 3.923723736469979 L1.413406749979977 3.9063087784700468 L1.4157838659800248 3.8873693664699953 L1.411339691980011 3.843935324469994 L1.4253956819800138 3.7994419164700144 L1.4279019889800182 3.739497255469926 L1.4348524689799902 3.7100158504699277 L1.442268037980007 3.691903261469987 L1.445652843980021 3.6734030974699703 L1.4465830189799718 3.6348524794699966 L1.464359711980002 3.5743135394699532 L1.4627577419799778 3.5457881484699936 L1.4348524689799902 3.5317063204699632 L1.390746633980008 3.5066432514699653 L1.370127737980006 3.4909077774699835 L1.3571578319799826 3.47633825047002 L1.3546248079800094 3.4734928194699517 L1.3228438019800492 3.3998797414699578 L1.3141363229799836 3.3883300594700057 L1.2693070189800224 3.4045822974699274 L1.254915131980006 3.3917923804699495 L1.245561697980044 3.3682796044699597 L1.2324358839800098 3.36450722447003 L1.190655487980031 3.3752817604699725 L1.1721294869800047 3.3843768124700357 L1.1317960319800378 3.4248136214699354 L1.1127791049799853 3.4379652724699934 L1.0908682979800304 3.4385595514699627 L1.046917491980004 3.423418357469954 L1.0260660509800132 3.4245035614699457 L1.0184437779800604 3.430963115469991 L1.006739065980078 3.4503417784699604 L0.9968947059800044 3.45749896347 L0.9895049759800045 3.4570338764699766 L0.9827353629800442 3.4517112044699427 L0.9758365599799745 3.444864076469967 L0.9683693149800447 3.4397997864699885 L0.9484480499800227 3.4357948624700025 L0.8920173859799903 3.4436755184699575 L0.8775738229799757 3.442021872469992 L0.8664633899799767 3.436880067469998 L0.856153942979951 3.430523866469981 L0.8440874949799948 3.4251495174700164 L0.8323052689800718 3.422798239469982 L0.7729032099800364 3.41871580146997 L0.7506823439800101 3.4198010064699655 L0.7060080679800436 3.429593690469927 L0.6289585069800196 3.3466530164699844 L0.5532008579800518 3.263169740470003 L0.4773656929800225 3.1796606254699196 L0.4016080439800547 3.0961256724700075 L0.3258503939799837 3.0126165584699276 L0.2500410679799714 2.9290557674700164 L0.1742575799799866 2.8456241674700475 L0.0984999299800009 2.7620633764699516 L0.0662538359800422 2.726432476469965 L0.049148937980000085 2.6861506974700244 L0.059587575980010854 2.6751436174699403 L0.09309974298003709 2.656540101469984 L0.10777584998002254 2.6449387434700196 L0.15467221197997816 2.5705763564699264 L0.16730709997998616 2.538691997469966 L0.17647966597997566 2.5245068174699963 L0.18976050997998328 2.5173496314699673 L0.22293677898000652 2.511200136469993 L0.23934404597998338 2.505954978469971 L0.2513846559799404 2.498875307469943 L0.26112566197998177 2.485723654469963 L0.2718743599799964 2.4600921444699093 L0.2847417919800037 2.448852520469954 L0.29851356197995216 2.4466821094699593 L0.31316382998003434 2.4481807264699693 L0.3243001019800502 2.445080141469928 L0.3275040399800062 2.429163799470002 L0.3278140979800028 2.4154953834699864 L0.33300757998001274 2.37759072046998 L0.33106971397999274 2.3677205214700034 L0.32791745198003497 2.3644907444700163 L0.3245068069800041 2.3622686574700236 L0.3217162789799559 2.3554990454699816 L0.3167811799800191 2.3484193744699677 L0.2991595169800192 2.3375156464699938 L0.2938885209799835 2.3283689184700034 L0.2863695999800271 2.30046364547003 L0.2849484979800607 2.289379050470016 L0.29104631698002237 2.24116493846992 L0.2959297389799431 2.2272898164699466 L0.3047664089800506 2.2152750464699817 L0.3068851439800042 2.206929302469929 L0.3072985549800151 2.1986610734699763 L0.3061099969800196 2.1904703594699537 L0.30326779398001946 2.1823054824699266 L0.29238990397997355 2.167370993469971 L0.28282976397998283 2.1374503394699484 L0.27500078497997293 2.1224900124699797 L0.25973039898000394 2.1084081844700346 L0.24577776198001544 2.100630881470023 L0.23619178397999718 2.090760682469961 L0.2338921829800782 2.0702968154699857 L0.24107520698002105 2.03590614946995 L0.2556737989799913 1.9988541484699862 L0.2752074909800015 1.9632232474699958 L0.30654924698001906 1.9272822894699413 L0.3160318719799946 1.9158876364700301 L0.3348937699800345 1.9122186084699404 L0.35680457697998946 1.9142339904699934 L0.37545976897994393 1.9198667214700134 L0.3846323359799513 1.9016507784699694 L0.40579383497999544 1.9047513644699148 L0.4271878769799926 1.9112884334699896 L0.4456105259800225 1.8973616354700038 L0.49126665298002337 1.9029943664700237 L0.5120405799800452 1.899997132470018 L0.5174924429799503 1.8958630184699938 L0.5446225699799996 1.867311789470035 L0.5463795689799795 1.8631776744700073 L0.5467929799799904 1.8549611224699856 L0.5445708939800014 1.8457110414699667 L0.5347006949800246 1.8317067284699657 L0.5324786089800071 1.8205187804699374 L0.5382922069799818 1.8164880184700234 L0.5512888299800309 1.8175732234700188 L0.5734580189799559 1.8236193654699644 L0.5801501169800716 1.8284252744699767 L0.5873331419800039 1.8352724014699344 L0.5962473259800234 1.8417836314700065 L0.6082362589799928 1.8453751444699815 L0.6175638539800232 1.8445999984699721 L0.6406115429800039 1.8392514864700171 L0.6523420939799749 1.8379078994699523 L0.6728059609800496 1.8433080864700155 L0.70939287497999 1.8669500544700366 L0.7243273639799455 1.872040183470018 L0.7455146999799993 1.8646504534700181 L0.7617152619799938 1.8477005834700133 L0.7900597849800093 1.8071604224699893 L0.806312022980002 1.7940087704699277 L0.8251739209800419 1.78584389347 L0.897133352979985 1.7686356424699294 L1.0249033319800063 1.6895190234699395 L1.051671723979986 1.6832661764700259 L1.0685182409799623 1.6931880504699404 L1.077768321979967 1.6436303524699678 L1.0861657429799507 1.626835511470004 L1.1012810989800599 1.614123109469956 L1.118308482979991 1.6031677054699696 L1.1324419869800195 1.5914888324699898 L1.1422863479799972 1.5775878724700174 L1.1500636509800088 1.5609997364700074 L1.1542752799799771 1.5434297504700378 L1.153525971980038 1.5264798804699335 L1.145929535979981 1.5107185684699527 L1.133036265980003 1.4991430484700015 L1.098283865979944 1.479816062469963 L1.0975888719800153 1.4790479864700057 L1.0857523299800462 1.4659667784699888 L1.0738409129799962 1.459455548469931 L1.0606892609800198 1.458422019469948 L1.044385345980011 1.460850811469994 L1.03004513698 1.4603857234699813 L1.0191155719799454 1.454856344469972 L1.0087286089800003 1.447983379470001 L0.9963521029800475 1.4433841774700493 L0.9705397249800356 1.4432291474700047 L0.9492490349799496 1.4511356414699588 L0.9329967969800421 1.4665352184699554 L0.9109567989800453 1.5059643364699564 L0.8978568229799819 1.50622271946993 L0.8282228309799748 1.4513423474700158 L0.8174482939799432 1.4405936494700011 L0.80279802598006 1.4108280254700087 L0.8023070999800339 1.3810623994700233 L0.8147611199800124 1.3540356254699741 L0.8391007189800135 1.3322798484699643 L0.8436224069800531 1.3252001764699468 L0.845896169979973 1.3178104474699364 L0.8459995229799873 1.3098522764699805 L0.8440874949799948 1.3015840464700243 L0.8353025019799887 1.288096498469967 L0.8238561719799762 1.2601912244699758 L0.8168798539799766 1.2473754694699988 L0.8097743439800595 1.2418977674700056 L0.8007051299799812 1.2383320944699516 L0.7926177689800014 1.2332678034699693 L0.7885870069799878 1.2236043104700354 L0.7889487419800005 1.2151810524699567 L0.7900339469799817 1.2088765274700375 L0.7895946969799823 1.2029337374700173 L0.7852280389800015 1.195595684469934 L0.7716629749799964 1.186242250469986 L0.7577361769800248 1.1830899874700247 L0.7452046419800027 1.1782324024699147 L0.7220277619800086 1.1359094054700147 L0.7161624869800178 1.1213883274699707 L0.7152839879799799 1.1062988094699744 L0.7293658149800208 1.0801505344699631 L0.7747118849800145 1.0656811334699352 L0.7902406529800388 1.0465091774700124 L0.804374156979982 1.0208259904699428 L0.8141668409799436 1.0071317354700238 L0.8207039099800184 1.0022741514700026 L0.8351991489800596 1.0049096494700205 L0.8446042599800094 0.9978816544700049 L0.848402476979949 0.9850142234700154 L0.8459995229799873 0.9701830864699854 L0.8613474239799714 0.9432079894699523 L0.8614507769799857 0.9323559384700086 L0.8581434849799976 0.9133906874699544 L0.8588669549799945 0.9046056944699625 L0.8637762159800175 0.8954072884699666 L0.8862813019800413 0.8686905744700066 L0.9060216989800054 0.8316385714700356 L0.9201035269800357 0.8183577284700316 L0.942582774980032 0.810864645469989 L1.0273579619799662 0.812363262469999 L1.0711020619800493 0.8081257944700422 L1.095441661979983 0.7899356904699157 L1.1034515089800507 0.7669396784699654 L1.1255173459799508 0.7469925754700295 L1.1739898389800274 0.7139713354699762 L1.1778633099800473 0.7104695884699606 L1.192567516979956 0.6971764954700017 L1.2028511269799722 0.6811568014699514 L1.2147367059799947 0.6676175754699738 L1.262769949980033 0.6490657364699342 L1.2801332309799491 0.6346996884699347 L1.2960754099799843 0.6182665824699694 L1.316642629979988 0.6029186824699888 L1.3379591579799595 0.5961749074699707 L1.3778533639800017 0.5999731254699991 L1.3993765979800585 0.5988104054699743 L1.416274791980051 0.5889143694699879 L1.4264033729799976 0.5714218964699409 L1.4348524689799902 0.531295146469942 L1.4465313429799735 0.5163348204699769 L1.4478490919800109 0.5046817844700069 L1.4453169469800358 0.49318377846998196 L1.445187755979994 0.4787918924699692 L1.4525516479799947 0.46321144847003204 L1.4781831579799771 0.4433418594699372 L1.48880266497995 0.4315854704699529 L1.506140107980066 0.42329140346998706 L1.556111217980039 0.4118450744699782 L1.5766525999800152 0.4106048394700377 L1.597400686980059 0.40399025646995135 L1.6165726439799712 0.38662697447001726 L1.6292075309799898 0.364535300469937 L1.6302668979800004 0.3439680804700327 L1.5902435019800194 0.2796050834700434 L1.4861671659799427 0.16356565447001792 L1.4248762659800107 0.07372189946999974 L1.4447737269799816 0.08283648246998432 L1.477692020979994 0.10415809747001781 L1.5133772429799777 0.13996538846998696 L1.570546838979972 0.22651324047001076 L1.6080631149799913 0.26244260247000106 L1.6364648079799693 0.2770503494700147 L1.6852929329799693 0.2902339434700121 L1.7104394169799733 0.30280718546998564 L1.765289677979986 0.34252072747000106 L1.7940168909800107 0.3580643474700178 L1.8236799769799816 0.36420855247001604 L1.8327538699799746 0.37958941247000944 L1.8346256149799913 0.38158322747000106 L1.8360090789800054 0.3896398674700077 L1.8399153289800054 0.3914302324699843 L1.8461409149799763 0.3907791904699689 L1.9024153289800054 0.40225380047001913 L1.9097395469800134 0.40925249846998035 L1.9228417609799706 0.4252437094700081 L2.0121158489799953 0.5014155844700081 L1.989085250980004 0.46450965946996625 L1.9541731409800107 0.43041135247000106 L1.9123030239799803 0.40282346147000503 L1.8372297819800067 0.3723058834700037 L1.7451887659800107 0.3089920814700218 L1.6845605109799706 0.2762772374699676 L1.676341109980008 0.265209529469983 L1.6640120079799843 0.2375402584700037 L1.666331343980012 0.22460080547000238 L1.690012984980008 0.2208573154699689 L1.7064924769799816 0.228100154469983 L1.7418928679799777 0.2561763264699817 L1.78262366197999 0.26826128747000944 L1.8024804329799693 0.28172971147000503 L1.8346256149799913 0.3089920814700218 L1.9004622039800054 0.3479732014699817 L1.9917707969800134 0.3891108964700134 L2.097971968980012 0.46491656046998564 L2.2807112269799816 0.5729894774700011 L2.3410546519800235 0.618114802470016 L2.3557323669799715 0.6317048834699772 L2.370431758979983 0.6509426404700189 L2.424428852979993 0.7007299934700182 L2.5611098159799965 0.8530445574700121 L2.6124453659799727 0.8934318184699901 L2.641668852979997 0.9355141264699665 L2.6672447889799926 0.9693683514699938 L2.6918083969799866 1.01961756946997 L2.7082322449799747 1.0433978514699884 L2.711943703980019 1.0370380144699975 L2.701960237979968 1.0123799994699976 L2.703857386979969 1.0014536134700034 L2.717644577979975 1.0024369854700108 L2.742428021980011 1.0107693614700093 L2.7634844779800076 1.0281979534699968 L2.782698512980012 1.0465307594699862 L2.7991447019799764 1.0666749724699667 L2.815569279979975 1.0913809704699684 L2.8365471349799876 1.1252372634700105 L2.861806604979968 1.1559565994700147 L2.877681483979991 1.1783914444699786 L2.9561262659800107 1.2556066644700064 L2.974274052979986 1.286327693470012 L2.9816389609799856 1.319530818470012 L2.9716698859799706 1.3517573804700174 L2.978505822979976 1.3443110914699883 L2.973338179979983 1.3872798414699883 L2.978505822979976 1.5156164304700024 L2.9608463179799926 1.620922420469979 L2.9484765269800235 1.6369136304700174 L2.926259729979968 1.654084854469998 L2.9102278289800054 1.6664546464700134 L2.8951724899799913 1.6846431234699804 L2.8842675419799733 1.7044998934699702 L2.8776757449799746 1.7249263264699817 L2.8718163699799746 1.7633377844699663 L2.848134729979968 1.823437068470012 L2.846018843980012 1.844473852470001 L2.848134729979968 1.9101069904700108 L2.846018843980012 1.920401586470005 L2.8366601199799746 1.932812068470012 L2.834462854979968 1.9439204664699883 L2.834462854979968 2.122021052470016 L2.8288476199799746 2.1435868084699887 L2.8259179329799693 2.1548579664699883 L2.759430302979986 2.2492590084700037 L2.7636213829799843 2.2519038654700108 L2.7662662399799913 2.2555252844699663 L2.7970279589799887 2.2275304924700077 L2.807200484980008 2.2213862874700094 L2.8102522429799777 2.2173579664699883 L2.8129377899799763 2.211661352470001 L2.816966109980008 2.20840614346997 L2.8304752239799953 2.2143468994699997 L2.8390608359799856 2.2154048414699883 L2.843712563814165 2.2151683135764477 L2.843862268979997 2.2151607014699817 L2.8556217089799887 2.2145096594699663 L2.848134729979968 2.208324763469987 L2.8646956019799816 2.1682857014699817 L2.8686425419799733 2.037019425470019 L2.8788557579799843 1.9950272374699676 L2.9843245079799843 1.809887263469987 L3.0109765269800235 1.773917211470005 L3.047434859980008 1.7483638264699817 L3.091461552979986 1.7373774984699804 L3.1336978809799874 1.739574763469987 L3.1720279589799887 1.7512121334700037 L3.2317610319800067 1.782543513469987 L3.25137366197999 1.8007726804700024 L3.2562971649799763 1.8036209874699676 L3.2593489219800134 1.8072017164699883 L3.2676497039800054 1.8141597244700147 L3.272166304979983 1.8163569904700108 L3.276194625980004 1.8183101154700108 L3.2801822559799874 1.8138748934699702 L3.2836409149799763 1.8021968344700081 L3.292145145979994 1.7995112874700094 L3.3779983419800104 1.810029196469996 L3.440187205980017 1.8399741754699885 L3.460048729979981 1.85650876646997 L3.489806981980003 1.8788200414700196 L3.5272650719799756 1.9154293754700102 L3.5539704449800027 1.9352902144699993 L3.6077863499799676 1.986429836469993 L3.639723397979999 2.0185540514700033 L3.6488755939800015 2.033585235470012 L3.6670043089799904 2.0413848154699945 L3.6888804349799855 2.064031317469981 L3.746236293979969 2.110117061470019 L3.777923160979988 2.1357986204699824 L3.7990425039799973 2.153922654470021 L3.8126091539799702 2.1682589854700023 L3.8276866369799976 2.1833549824700054 L3.84728399998 2.204485828470011 L3.867869429979983 2.2535721594699663 L3.8982397279800196 2.324587473469988 L3.909188267979978 2.338569156469985 L3.9123392979800045 2.3580756794700033 L3.916949021979981 2.3660229114699955 L3.925434404979974 2.3537395084699693 L3.9271696249799746 2.3446011904699713 L3.9288197699800165 2.3335086784699666 L3.928824577979988 2.316656074470016 L3.9416699159800217 2.3026925234699984 L3.951600474980019 2.296910233469985 L3.955229089979987 2.292811118470011 L3.95979131397997 2.2922270524699666 L3.9794915189800193 2.293825859470017 L4.000270399979975 2.30136560646997 L4.016916936980017 2.308981476469965 L4.037061210979978 2.3189671604699793 L4.068430953980005 2.3373937744699997 L4.08081769998001 2.344248286470018 L4.115395556979998 2.3673404184700058 L4.156038076980003 2.3969934604700125 L4.238368016979969 2.480354221470007 L4.259201928979969 2.5105438114699705 L4.278554651979967 2.5466222894700064 L4.287425093980012 2.587353084470008 L4.290504277980013 2.612065156470008 L4.2939733619799725 2.623929410469996 L4.299109579979991 2.6341421874699886 L4.301425811979989 2.64270965946997 L4.302248521980012 2.6537474334700146 L4.287547164979976 2.6328039304700024 L4.280100875980004 2.6260493734699804 L4.2979357229800215 2.661815868469999 L4.303897221979987 2.6759901134699913 L4.304177749980006 2.697553937469989 L4.305857710979986 2.713817927470016 L4.308602770979981 2.7496405054699817 L4.292185835979986 2.784618709470008 L4.287669234980008 2.803132706469965 L4.280426395979994 2.8203853104699856 L4.275841170980023 2.8321102204699837 L4.275247078979994 2.8526964134699693 L4.265186012980003 2.8768038104699922 L4.26280707498001 2.9003220054700005 L4.28628854298001 2.9388200724699782 L4.2843442409799835 2.99282636747 L4.272532960980023 3.024259390469977 L4.260203414979976 3.044384334470008 L4.248932255979987 3.0669673414699883 L4.198191695979979 3.1398840084700037 L4.198191695979979 3.1468013264699817 L4.188922089980004 3.1676458554699547 L4.185769827980046 3.183536358469963 L4.18463294598002 3.2049820774699906 L4.180653860980051 3.228365662469953 L4.170370250980035 3.2443336804699907 L4.121742727980042 3.293142070469953 L4.113577851980018 3.3038649304699685 L4.110167207980005 3.314846172469954 L4.114146291979985 3.3241220924699615 L4.123034638979995 3.3241220924699615 L4.137452362980021 3.3182568174699707 L4.147529267979941 3.320711447469945 L4.153833791980055 3.3204013894700477 L4.157037730980029 3.323191916470007 L4.158588023979952 3.3930326154699895 L4.160396698980044 3.4009132704699407 L4.165409312979996 3.4063909724699197 L4.174194306979992 3.408871441469996 L4.182824270980042 3.4077345604699882 L4.189438853980029 3.403445416470019 L4.192074351980047 3.396804994470015 L4.181842418980075 3.3846868714699223 L4.176674774979979 3.3750233784699883 L4.178431773980044 3.3654374004699843 L4.186855032979942 3.3605281384699577 L4.1982238479800245 3.3599596974700017 L4.208249075980042 3.36300860747002 L4.212538219979997 3.3691581034699976 L4.213340044979994 3.371159937469981 L4.220134654979979 3.388123353469963 L4.253465953980033 3.428560161469944 L4.260959036980047 3.4485847794699804 L4.256049774980035 3.462511577469966 L4.243854137980016 3.4741129364700196 L4.228092824979946 3.4831821504699843 L4.212538219979997 3.489615866469931 L4.207112193980045 3.469720440469926 L4.198585582980009 3.4593593154700084 L4.185924856979973 3.4554319074699418 L4.168148163980057 3.4548117894699697 L4.156882701979988 3.460702902469974 L4.15031979498 3.47452634847002 L4.143653534979997 3.5032584454700366 L4.128770722980057 3.536977316469999 L4.125670136980013 3.548320293469983 L4.124429902980076 3.5615752984699878 L4.128925751979985 3.572763246470016 L4.165409312979996 3.6056294574699574 L4.155384085979996 3.611443056470021 L4.147167531979967 3.61061623347001 L4.139364390980013 3.6072831024700047 L4.130631074980052 3.6056294574699574 L4.11642005497999 3.607644837470003 L4.107790091980043 3.610977968469909 L4.100348685980016 3.615112082469933 L4.08965166298001 3.6192978734699732 L4.064485240979998 3.6259899714699895 L3.985368623979987 3.6341031714699863 L3.9685221069800107 3.63924497646998 L3.9556029979799874 3.6403818584699916 L3.9489884149800005 3.6370745664699893 L3.9336405139800164 3.6225793264699586 L3.9282661659800695 3.6192978734699732 L3.9025829789799857 3.6206414604699386 L3.879638642980048 3.62464638447001 L3.8357653519800365 3.6403818584699916 L3.7964912639799664 3.623302797469959 L3.758922496980041 3.6254732064700317 L3.7253844929799484 3.6419321514699288 L3.6985644239799527 3.667718690470023 L3.683526581980068 3.6961924044699668 L3.6718993849800157 3.7052874564699305 L3.647404755980041 3.7086722624699586 L3.6348990589800465 3.706191794469971 L3.6252872429800576 3.701437562469989 L3.6156237509800135 3.698672873470029 L3.603066376980003 3.7018509744699895 L3.5955216179800473 3.7089306454700175 L3.5751611029799406 3.742804546469925 L3.5616735549799685 3.7594701964699606 L3.5434317739799965 3.779003887469967 L3.527360403979948 3.8019740614700037 L3.5204874379799733 3.83558958147003 L3.528032196980014 3.849361350469975 L3.544723684980063 3.8578104464699674 L3.5613118199800695 3.8688692034699823 L3.5746960159800167 3.9100036434700467 L3.6015160839799947 3.9442134414699535 L3.6098359899800485 3.9618867814700405 L3.6084407259799676 3.980852032469995 L3.600430878979985 3.9982153134699256 L3.5825508329799405 4.024001853470024 L3.566737844979947 4.074903139469965 L3.5497879759800313 4.10322182346995 L3.5313911659800468 4.147663555469931 L3.5240014359800185 4.180788148470027 L3.514544648980042 4.193888124469991 L3.503072479980041 4.206626364469953 L3.493202282980043 4.222000103470021 L3.489223196979971 4.240293560469992 L3.4923754589800424 4.25602903346997 L3.497801484980023 4.271247743469997 L3.5005920119799683 4.287810039470001 L3.498473277980004 4.312976462469946 L3.4920137239800297 4.332716859470009 L3.480903290980031 4.349692567470013 L3.393828502980064 4.438627707469989 L3.3799275429799778 4.459892559469962 L3.378170543979998 4.480588970469979 L3.390779593980035 4.523661277469982 L3.4038537309799963 4.6086948464699855 L3.413723929979973 4.644015687469986 L3.43796017597996 4.674453106469967 L3.5037442739800113 4.7262845674699445 L3.5200223499799463 4.745327333470014 L3.5707169309800193 4.8195346894699735 L3.592007619980002 4.865061627469954 L3.596245087979959 4.884259421469961 L3.5989322619800035 4.929631328469993 L3.604875052979999 4.9507411514699395 L3.616088837980051 4.969292991469969 L3.6327286489799704 4.979886659469953 L3.6816145539800473 5.00014382146996 L3.7197517609800244 5.0245350964699735 L3.723369110980009 5.031769797470032 L3.7283817249800464 5.049288107470003 L3.7363398959800307 5.0640417284700145 L3.7372183949800686 5.067607403469976 L3.7385103059800215 5.071069723469931 L3.7430061559800336 5.076056499469983 L3.7478637409800584 5.078123557470034 L3.7586124389799878 5.079570497470028 L3.760731171980048 5.082567730469945 L3.764606904979992 5.08442808146995 L3.7854325059800615 5.096546205470032 L3.801813934980011 5.115072206469973 L3.800366994980017 5.132745546469975 L3.7851741249799957 5.162226950469984 L3.7853291539800367 5.168738180469957 L3.7874995639800275 5.181114686469924 L3.7869311229799862 5.187832622470038 L3.7818668329800076 5.205893536469956 L3.7812467149800355 5.214187603470007 L3.7833137729800015 5.224652081469953 L3.7876545939799726 5.236511822469977 L3.7910135609799696 5.2416019504699545 L3.7959228229800104 5.245787742469998 L3.80439775798002 5.24930173947004 L3.8326130889799757 5.2550894994700155 L3.849459605979952 5.2644946104699795 L3.8496691529799776 5.264611333469956 L3.8807238479800574 5.281909567470008 L3.8916275749800278 5.284984315470039 L3.900825979980006 5.283589051469972 L3.9105928259799683 5.263952007469937 L3.9234602569799577 5.2664841534700155 L3.936224335980036 5.27405475046997 L3.941960419979985 5.278395570469952 L3.9500219429800794 5.27875730546995 L3.957876760980021 5.280204245469944 L3.9638195509799417 5.2831756404699615 L3.966144990980048 5.288343283469954 L3.9696073109800025 5.292787456469965 L3.977100393980045 5.288549989469926 L3.9841800649799737 5.28175453946997 L3.986660533980036 5.278395570469952 L4.014927541980008 5.2711091934699805 L4.021903859980007 5.262350038469988 L4.020818655980015 5.244237448469972 L4.052392955980004 5.257905864469988 L4.0791096709799675 5.266122418470017 L4.105826386980006 5.261574891469989 L4.137452362980021 5.236821880469959 L4.16230872697998 5.2879298724699435 L4.165409312979996 5.301960023469958 L4.163083873979964 5.336686586469993 L4.161636932979981 5.342939434469995 L4.153368704980018 5.35544513146999 L4.155590790980035 5.363765036469955 L4.161843639979942 5.37198158946998 L4.165409312979996 5.383918845470019 L4.164117401979958 5.39580442546996 L4.158743053979983 5.416371645470035 L4.157916229980067 5.428618958469967 L4.1601899939799765 5.439626039469969 L4.1709386919800195 5.462725404470033 L4.168148163980057 5.474817689470013 L4.161688609979997 5.482775860469983 L4.159828257980003 5.489338766469968 L4.1709386919800195 5.4974519664699795 L4.180963918980019 5.49910561347002 L4.190885794980012 5.495901673469957 L4.199619110980002 5.4901139134699815 L4.206388723980048 5.483861065469979 L4.208249075980042 5.486858298469995 L4.208455780979996 5.487736797470033 L4.20912757498008 5.488253562469977 L4.212538219979997 5.490062237469969 L4.1972936719799705 5.519362774469938 L4.206388723980048 5.5376045544699775 L4.223648652980025 5.553469219469987 L4.233002086979987 5.575690085470027 L4.2340872909799785 5.583389873469924 L4.238841522980046 5.59605059946996 L4.239875051980029 5.603595358470015 L4.236619436980057 5.607677796470012 L4.222615123980042 5.606954327470019 L4.2194111849799825 5.610468324469975 L4.221168183980048 5.62256060946997 L4.2240620639800355 5.631293926469949 L4.224682181980008 5.639148744469976 L4.2194111849799825 5.648347149469968 L4.211246308979959 5.661369609470013 L4.224010387980037 5.66870766347 L4.257238333980048 5.6722216604699565 L4.262044241980057 5.687052796469983 L4.251140514980001 5.70110878647 L4.235534231980047 5.71351113046998 L4.226232473979941 5.723433005469969 L4.2395133169800445 5.775161114470022 L4.243595754980056 5.7854964004699365 L4.25160560198001 5.789733868469993 L4.254809540979984 5.799138979469943 L4.259253714979998 5.80849241346999 L4.271242646980063 5.812781556469956 L4.280596080979997 5.810662823469981 L4.300646536979947 5.801309388469944 L4.312480439979971 5.799138979469943 L4.319456757980056 5.805701886469931 L4.302196829980069 5.841720359470015 L4.308811412979971 5.860582256469938 L4.312118703979969 5.858308493470018 L4.346328502979965 5.853140850469925 L4.355991995979998 5.857843405469991 L4.353718231979975 5.868695456469949 L4.34684526697999 5.881356182469984 L4.342917858980037 5.8912780574699735 L4.348137177980057 5.904352195469938 L4.373975393980068 5.931637350469954 L4.383897268979986 5.949982484470025 L4.38989173497999 5.989359926470028 L4.3978499059799745 5.995251039470018 L4.418623831980007 5.983520489469951 L4.425393443980035 5.996284568470001 L4.422706269980019 6.008066794470009 L4.417952037980008 6.02114093246996 L4.418623831980007 6.038142477469988 L4.423481415980014 6.0471858534700385 L4.4487511909799835 6.0765897434699365 L4.45055986597999 6.083876120470007 L4.4452888709800575 6.11756915446996 L4.4517484249800034 6.126870911469991 L4.465856090979948 6.12201332746997 L4.486268281979996 6.107027162470002 L4.494588186979946 6.116277243470007 L4.493244599979995 6.127180971469981 L4.48833533798004 6.138239727469978 L4.486268281979996 6.147954896469924 L4.489498057979979 6.161700827469955 L4.494226451980047 6.170485821469951 L4.510788748979941 6.185833721469917 L4.5156204949800625 6.195548890469949 L4.51383765797997 6.205935853469979 L4.507403942980012 6.220301902469982 L4.515026215979994 6.2384403294700075 L4.550812145980025 6.269652894469983 L4.561974254980051 6.291977113469953 L4.561431652979998 6.327995586469937 L4.5657207959799635 6.336935609469974 L4.574996715979985 6.341586488470027 L4.598070242979965 6.345875632469996 L4.606984427979974 6.350629864469992 L4.619670990980019 6.37006020246997 L4.629515350980007 6.414140199470038 L4.637111786979979 6.435947653469965 L4.644398164979954 6.465764954469973 L4.740671357980013 6.602087383470005 L4.7680598669799465 6.613327007469961 L4.866090058979985 6.614928977469999 L4.90378801598002 6.634566021469935 L4.909369070980041 6.643092632469957 L4.916474579979969 6.649939759470014 L4.924897837979962 6.655004050469982 L4.945878469980052 6.661747825470014 L4.954663463980047 6.668827495469953 L4.960761282980009 6.678516826469972 L4.964042735980009 6.690118186469929 Z M3.0672916309799874 1.6596187094700081 L3.112254195979979 1.6664546464700134 L3.1111555629800094 1.6707271074699843 L3.0548404589799887 1.711864802470016 L3.004832320979979 1.726960831469965 L2.9853417609799706 1.7483638264699817 L2.9823713829799843 1.7314367424700077 L2.9883528289800054 1.7086909744700147 L2.998850875980004 1.688671443470012 L3.0141096649799763 1.677074763469987 L3.0233463179799926 1.663402888469987 L3.0269270469800134 1.6596187094700081 L3.0362043909800107 1.6581131754700191 L3.0672916309799874 1.6596187094700081 Z" fill="black" stroke="black" stroke-width="0.5" vector-effect="non-scaling-stroke"/></svg>