<svg xmlns="http://www.w3.org/2000/svg" viewBox="0 0 2.9070560367600535 2.1051196294799652"><path d="M2.7602306923799915 0.4003177897399901 L2.769053127380033 0.42782939273996945 L2.7726188013799913 0.44552857073998453 L2.7716249593800057 0.4614105557400059 L2.7699833033799734 0.48764486274001584 L2.7745825053800104 0.5103566547399829 L2.802539455380014 0.5729626527399923 L2.8144767113799674 0.6511490947399388 L2.8138049173800823 0.695797532739963 L2.8023844253799837 0.7187677067400138 L2.796855047379978 0.7244779517399742 L2.7841943213800278 0.754967046739953 L2.7746858593799573 0.7620467187399846 L2.7477107603800164 0.7766194727400411 L2.7411478533800278 0.7829239967399566 L2.7461087913799815 0.8028711007399671 L2.763937161380028 0.8266422587400122 L2.7681492913800128 0.8307198347399698 L2.8011441913800468 0.8626607327400144 L2.865933651380061 0.8925036737400127 L2.878555487380055 0.8983174697399967 L2.8740079613800447 0.9579520737399925 L2.86889199438005 0.9751344867399645 L2.8562829453800305 0.9928336647399796 L2.8223832063800103 1.0158813537400455 L2.807242011379998 1.0287746237399382 L2.777321356380071 1.068539638739967 L2.733964830379989 1.1141182517400274 L2.720839016380012 1.1218180397399387 L2.669524319379974 1.1349438537400012 L2.6522643903800827 1.146002609739984 L2.6552099463799834 1.1633400537400043 L2.673141669380044 1.160678716739998 L2.697998033380003 1.1526171937399887 L2.721407457379968 1.1533665017399848 L2.7305541853800435 1.1603944967400004 L2.7447135283800037 1.1887131817399883 L2.753860256379994 1.1989192767399892 L2.7767529153800012 1.2188147037399837 L2.7841943213800278 1.227858078740045 L2.7897236993800334 1.2463582417399586 L2.7907572283800164 1.2868984027399826 L2.798818752380015 1.326198329739956 L2.797320135380005 1.3449827127399523 L2.7924108753800567 1.3634570377399804 L2.7855895853800234 1.3803552307399833 L2.7736006533800435 1.3989845847399387 L2.7595963403800567 1.4099141507400113 L2.7327687303800587 1.4256973447399197 L2.7258872353800143 1.4297458597399704 L2.7233194843799993 1.4312565167400102 L2.7096769073799862 1.4457775937399653 L2.689109687380011 1.479134730740018 L2.6760872263799627 1.4924414127399395 L2.637381577379955 1.505024623740045 L2.5621923683800105 1.4918212957399568 L2.5250370143800183 1.4992885397399824 L2.5078287623800293 1.5116133687400328 L2.5167171083800497 1.527968959739983 L2.607150865380021 1.6161547917400334 L2.6136104183799773 1.6256374167399237 L2.6160908883800573 1.6406494197399901 L2.6107682153800056 1.6461271217399975 L2.6032751323800767 1.6502095607399987 L2.5995027523800616 1.6611908027399842 L2.6054972193800836 1.6796909647399936 L2.6204833843800373 1.6875457827399352 L2.659499090380052 1.6968733787399835 L2.667922349380035 1.7039788877399111 L2.683115220379989 1.7253470927400123 L2.691228420380071 1.7342612767400318 L2.728952215380019 1.758213303740039 L2.7826957053800356 1.777488612739976 L2.7969584003799923 1.786454474740001 L2.806156805379999 1.7942834527399363 L2.8083272163800075 1.7971773337400272 L2.7965546323800936 1.8164537347399552 L2.7959575953799742 1.8174313207399315 L2.751534816380058 1.890169073740001 L2.7436283223800046 1.9089534567399973 L2.7408377953800596 1.9286421777399632 L2.742336412379956 1.9380989647399112 L2.753085110380084 1.966753546739998 L2.7554622263800184 1.9779414937399373 L2.754790432380048 1.9945813047399703 L2.757012518380037 2.0236234607399446 L2.753395168379967 2.0409350647399584 L2.74143186437999 2.071175537739979 L2.7250744423799915 2.060555420739963 L2.6552095333800025 1.973885498739964 L2.624691955380001 1.9476403807400011 L2.589576395379993 1.9266442877399932 L2.5109224243799986 1.9009688317400055 L2.4783703403800246 1.8847741707399628 L2.4458996373800233 1.87289265973995 L2.406959207379998 1.8728112797399667 L2.327125223379994 1.8855879727400016 L2.2231213173799915 1.8846520997399985 L2.07736936437999 1.8864831547399667 L1.9988781533800193 1.9000736497399835 L1.9787772413799871 1.8899825037400042 L1.9667329703800078 1.8856693527399848 L1.96136187738 1.8895756027399848 L1.968116434380022 1.9280684407399526 L1.9586763303800012 1.9378747557400011 L1.9469982703799928 1.9381188967399972 L1.9196952103799845 1.9280684407399526 L1.9043957313800206 1.9254235847399919 L1.7868013303800012 1.9357181807399861 L1.7626720983799942 1.9342533367399888 L1.7646659133799858 1.9388513187399958 L1.7675549113799889 1.9501224777399848 L1.7695080363799889 1.9547204597399919 L1.754656148380036 1.9537032067400055 L1.7487153923800065 1.952156982739968 L1.7416353143800052 1.9472741707399628 L1.713966043380026 1.9642826337399875 L1.6587902623800233 1.9591149907399945 L1.6317720333800025 1.9690026857399694 L1.6054862263800374 1.9545170087399875 L1.5701672153800246 1.94133341473999 L1.532325418380026 1.9317712407399945 L1.426856668380026 1.9205814617399888 L1.4004081013800374 1.92180216473999 L1.3921073193799884 1.9205814617399888 L1.3630138953799928 1.9029219567400055 L1.354265523380036 1.9000736497399835 L1.221453023380036 1.879647216739972 L1.1618013303800012 1.885506591739972 L1.1525646763799955 1.8830651857399694 L1.157813700380018 1.8700443527399848 L1.1710786743799986 1.86508015973995 L1.2072114863800039 1.8653649907399945 L1.2072114863800039 1.8591394047399667 L1.1403983353799845 1.852303466739972 L1.0594250283800193 1.8529138187399958 L1.0358654573799981 1.8591394047399667 L1.0036795853799845 1.8772871907399526 L0.9914725543799818 1.879647216739972 L0.9834972933800259 1.8756595867399888 L0.9748709913799871 1.8573083497399985 L0.967546773380036 1.8516931157399945 L0.9542004183800259 1.8593835457399628 L0.9469575803800012 1.8789147957399628 L0.9395519813800206 1.893563232739968 L0.9260021763799955 1.8864831547399667 L0.9197765903800246 1.8864831547399667 L0.9079764603799845 1.8936446127399513 L0.898048075380018 1.88851765973995 L0.8936535433800259 1.8755782067400055 L0.8986584263799955 1.8591394047399667 L0.8844575803800012 1.8631677247399985 L0.8720470983799942 1.8893314617399888 L0.8576834913799871 1.9000736497399835 L0.8583752233799942 1.8866052247399985 L0.8616711223800166 1.874601643739954 L0.8713553663799871 1.8516931157399945 L0.8635021763799955 1.8577559407399526 L0.8522310173800065 1.8719160977400016 L0.8440929973800166 1.879647216739972 L0.8432791943799884 1.8772058107399694 L0.8374198193799884 1.8750085457399628 L0.8266776323799832 1.8728112797399667 L0.8230969033800193 1.8745202637399707 L0.8235038043799818 1.878507893739954 L0.8246838173799915 1.8829838057399861 L0.8235851843800219 1.8864831547399667 L0.7798840123800233 1.9196862797399667 L0.7083508093800219 1.9512618007400029 L0.690203023380036 1.9683923347399919 L0.6727876583800025 1.9957360847399919 L0.7148612263800374 2.0385013837399875 L0.7211681923799915 2.054085693739996 L0.7262544553800012 2.0737390137399707 L0.7238537393799902 2.081429443739996 L0.7106294553800012 2.0844812017399654 L0.6443859653800246 2.0842370607399694 L0.6347017203800078 2.082690836739989 L0.6249767863799889 2.0782556157399945 L0.6176932573799832 2.071297607739968 L0.6138683873800233 2.05656778973999 L0.5499035433800259 1.9690026857399694 L0.5467297153800246 1.96672403973999 L0.5391613563800206 1.9635502117399888 L0.5356213173799915 1.9615563967399972 L0.5320812783800193 1.957772216739972 L0.5312674763800374 1.9547204597399919 L0.5307791943799884 1.9515466307400011 L0.528093648380036 1.9472741707399628 L0.5094575803800012 1.930672607739968 L0.41261513237998315 1.8628015137399707 L0.39524045737999813 1.854744873739964 L0.3647228793799968 1.8498620607399694 L0.35190549738001664 1.8448164877399513 L0.3410005493799986 1.8372481287400042 L0.3363618773799999 1.8278080247399835 L0.3342459913799871 1.817147216739972 L0.3285900673799915 1.8138920087399875 L0.3200858353799845 1.8133630377399932 L0.3096691683800259 1.8107181807399861 L0.2838716423800065 1.8011560057400011 L0.2754894813800206 1.796476643739954 L0.2687349243799986 1.8038822427399914 L0.24985471538002457 1.7974532067400055 L0.22983518438002193 1.8055098477400016 L0.20871702037999285 1.817961018739954 L0.1867443643799902 1.8243900557399861 L0.16831174738001664 1.8207279467399822 L0.14548459837999417 1.8119388837399875 L0.1260754183800259 1.8016442877399932 L0.11789670737999813 1.7933435057400011 L0.10935178637998888 1.7821537277399848 L0.07175412937999681 1.7640466307400011 L0.06324989838003603 1.7456140137399707 L0.061011942379991524 1.7260827637399707 L0.054460835379984474 1.7122481287400042 L0.028500549379998574 1.6810388187399958 L0.06324989838003603 1.63265828473995 L0.06023883038000122 1.6286706547399667 L0.055844299379998574 1.61898640973995 L0.07415484538000783 1.6066166177399914 L0.08591428637998888 1.5603112797399667 L0.1008068643799902 1.550057373739964 L0.10353310138003735 1.54484903973999 L0.10182411637998712 1.53313028973999 L0.09787717637999549 1.5205977377399513 L0.09397092637999549 1.5128259277399998 L0.09140745038001796 1.5022058107399694 L0.09913856937998844 1.492928466739972 L0.1330334263799955 1.4741296387399707 L0.17746702037999285 1.4570397957399628 L0.1963879183800259 1.453865966739972 L0.21945920737999813 1.4592370607399694 L0.22967242437999857 1.45891153973999 L0.23390419437998844 1.450773518739954 L0.23886838738002325 1.4438562017399654 L0.24997678637998888 1.4408044437399958 L0.26173622638003735 1.4401127117399888 L0.31788856937998844 1.4431237797399667 L0.3576834913799871 1.4512618007400029 L0.4885428663799871 1.5066817227400016 L0.5461193643799902 1.5091231287400042 L0.5481945593800219 1.5106286627399932 L0.5547049763800374 1.5175866707399628 L0.5560884393800052 1.5196618657399945 L0.5583670853799845 1.5274336757400029 L0.5639416293799968 1.5268640137399707 L0.5708996373800233 1.5234460457399628 L0.5771659133799858 1.5227950037400042 L0.606218648380036 1.5372399907399945 L0.6191174113799889 1.5416345217399972 L0.6640799763800374 1.5432214357399694 L0.6747407833800025 1.5451745607399694 L0.6864595333800025 1.550057373739964 L0.7079845983799942 1.567635498739964 L0.7143322543799968 1.5711755377399932 L0.7246268513800374 1.5719079597399919 L0.7295910433800259 1.569100341739972 L0.7329276323799832 1.5655603027399998 L0.7382580363799889 1.563729248739964 L0.7482271113800039 1.5652754727400016 L0.7605969033800193 1.571053466739972 L0.7695487263800374 1.5711755377399932 L0.7756522413799871 1.5684899907399945 L0.7884289343800219 1.5594974777399848 L0.792579325380018 1.5575036627399932 L0.7938000283800193 1.5551029467399822 L0.8064953403800246 1.5401696777399998 L0.8132092073799981 1.53695515973995 L0.8211437783800193 1.5366296387399707 L0.8293631793799818 1.5372806807399861 L0.8372570593800219 1.5369958497399985 L0.8825858353799845 1.5245039877399513 L0.8956066683800259 1.5227950037400042 L0.931251200380018 1.5312585457399628 L0.9318208613800039 1.548429768739954 L0.9115571893800052 1.5614099127399932 L0.8850272413799871 1.5575036627399932 L0.8850272413799871 1.563729248739964 L0.8634614863800039 1.5568119307399861 L0.8442150673799915 1.5543298347399919 L0.8248872673800065 1.5564050297399667 L0.8030773723800166 1.563729248739964 L0.8096691683800259 1.5680017097399919 L0.8262707313800206 1.5764245607399694 L0.8427502233799942 1.5802494307399861 L0.8438488563800206 1.5861088057399861 L0.8434419553800012 1.5937585457399628 L0.8478364863800039 1.6015710457399628 L0.8654553013799955 1.6090580247399835 L0.897234273380036 1.6046634927399914 L0.9129406533800193 1.6121504727400016 L0.948015523380036 1.5920495607399694 L0.990984273380036 1.586922607739968 L1.1491467073799981 1.5984785977400016 L1.1693696893800052 1.602791748739964 L1.2092053013799955 1.622078857739968 L1.2314220983799942 1.6263920087399875 L1.3115409133799858 1.6236250817400055 L1.350684793380026 1.62688028973999 L1.3859631143799902 1.639412841739972 L1.4045178013799955 1.649666748739964 L1.4196545203799928 1.6551599127399932 L1.4365002233799942 1.6562585457399628 L1.4617280883800277 1.6519860847399919 L1.5320812783800193 1.6400231937399958 L1.6186698193799884 1.6599206547399667 L1.6135021763799955 1.6762780767399654 L1.6325858353799845 1.6727380377399932 L1.6593599243799986 1.6637455247399835 L1.6770194293799818 1.663664143739954 L1.6916271763799955 1.6696048997399835 L1.7626720983799942 1.6810388187399958 L1.80120562738 1.6726973477400016 L1.8283459263799955 1.6507653807400011 L1.8483247673800065 1.6199629727400016 L1.8650890903800246 1.5848474127399932 L1.8893810823799981 1.5562829597399919 L1.9211193643799902 1.549569091739972 L2.0879081013800374 1.563729248739964 L2.0939709263799955 1.5616133627399513 L2.0965344033800193 1.5568933107399694 L2.098162007379983 1.5521732587399875 L2.1015799763800374 1.550057373739964 L2.10784625238 1.5512780767399654 L2.110775939380005 1.5538008627399513 L2.112729064380005 1.5563236497399835 L2.1159028923800065 1.5575036627399932 L2.136695536379989 1.5797204597399919 L2.1462577103799845 1.5848474127399932 L2.1638358353799845 1.5803308107399694 L2.1719738563800206 1.5635664877399513 L2.17425250238 1.540291748739964 L2.172584207379998 1.4794193527399848 L2.17425250238 1.4681481937399958 L2.181251200380018 1.4545983887399707 L2.1889823193799884 1.446541748739964 L2.19260373937999 1.439054768739954 L2.187232645379993 1.4271325687399958 L2.178240132379983 1.4209883627399513 L2.1325858353799845 1.3998295087399875 L2.1202974243799986 1.3977950037400042 L2.095964741379987 1.3970625817400055 L2.0842053013799955 1.3936446127399513 L2.063941629379997 1.3770837407399945 L2.045915913379986 1.3563317877399932 L2.02658811437999 1.3419274907399945 L2.0022961223800166 1.3446130377399932 L1.968116434380022 1.3247969567400055 L1.9595715123800233 1.3158044437399958 L1.9511486613799889 1.29680216473999 L1.8998791293799968 1.2210778807400011 L1.8857189733799942 1.2073653157399526 L1.8656994423799915 1.1918216967399822 L1.8446626583800025 1.1791263837399875 L1.8275728143800052 1.1739180507400029 L1.8089367473800166 1.1648848477400016 L1.7041190383799858 1.0575036627399932 L1.6993176063800206 1.0318688967399972 L1.7416353143800052 1.0156335457399628 L1.7800060823799981 1.0131921387399707 L1.80120562738 1.0064782717399972 L1.8104829703800078 0.991789143739954 L1.8045422153800246 0.9729903157399526 L1.7899751583800025 0.9632246907399526 L1.7718273723800166 0.956632893739954 L1.755225809380022 0.9473555507400029 L1.7446463823799832 0.9346602377399513 L1.7206392203800078 0.8944177247399985 L1.7142915643800052 0.878507893739954 L1.72112750238 0.8738692227400016 L1.7219006143799902 0.8720788577399681 L1.7208019813800206 0.8701257327399681 L1.7216971633799858 0.864836018739954 L1.7314627883799858 0.8561283367399888 L1.7424491163799871 0.8330977377399513 L1.7490409133799858 0.8238610847399919 L1.7599865513799955 0.8187341307400011 L1.7758556923799915 0.8157637537400042 L1.7919689733799942 0.8151127117399888 L1.8036877233799942 0.8170251467399972 L1.7893241163799871 0.7900476077399681 L1.7789888303800012 0.7845544437399958 L1.7589692993799986 0.7828454597399919 L1.7470877883799858 0.7742598477400016 L1.7431815383799858 0.7547285977400016 L1.7447277623800233 0.733976643739954 L1.7490409133799858 0.721444091739972 L1.7553478793799968 0.7276696777399998 L1.7636893513800374 0.7330814617399888 L1.7732922153800246 0.7359704597399919 L1.7831799113799889 0.7345056157399945 L1.7942069293799818 0.7269372557400011 L1.7947765903800246 0.7196130377399932 L1.7912365513799955 0.7113529467399822 L1.7895682573799832 0.6883630377399932 L1.7870454703800078 0.6840091967399822 L1.7893241163799871 0.6848229987399641 L1.8036877233799942 0.6872644047399667 L1.8086926063800206 0.6902754727400016 L1.8156913043799818 0.6959313967399972 L1.825294168380026 0.7006921387399707 L1.8378267203800078 0.7009362797399667 L1.8185396113800039 0.6645593267399654 L1.8084484653800246 0.6591882327399681 L1.7567720333800025 0.6560957847400068 L1.7436698193799884 0.6470625817400055 L1.7348807573799832 0.6337162277399848 L1.7216971633799858 0.6184167487399641 L1.7028983353799845 0.6055993657399945 L1.6391776323799832 0.5780521647399901 L1.5861177363800039 0.5469649257400029 L1.567156148380036 0.5426517747399835 L1.5507580363799889 0.5354089357399694 L1.5154797153800246 0.5069665527399998 L1.5088065383799858 0.505461018739954 L1.498796773380036 0.5096927897399901 L1.436866434380022 0.48804565473996675 L1.4266125283800193 0.48694702173999715 L1.4069185173800065 0.4823083497399985 L1.3968680623800083 0.4813317877399932 L1.3955252883799858 0.48120971673997204 L1.3904797153800246 0.4834883627399513 L1.385841043380026 0.4883711757400029 L1.3792492473800166 0.4932946777399998 L1.3685884393800052 0.49549194373999583 L1.3537365513799955 0.49203328474000685 L1.331641825380018 0.4833256027399848 L1.3100760693799884 0.4720137537400042 L1.2965669553800012 0.46078328474000685 L1.2763846633799858 0.4793786627399932 L1.2334159133799858 0.48470906573995265 L1.1381196893800052 0.4801517747399835 L1.1192394813800206 0.4754724127399932 L1.108171773380036 0.47445515974000685 L1.1010916943799884 0.47010131873999583 L1.0834321893800052 0.45134318073998614 L1.0737072543799968 0.44711140974000685 L1.0598319293799818 0.43824096673997204 L1.054298075380018 0.41830281573995265 L1.0524263303800012 0.3973474127399932 L1.0495373323799981 0.3856286627399932 L1.0852225543799818 0.33147013373998746 L1.0905122673800065 0.32015828474000685 L1.1003185823799981 0.31991414373995397 L1.1525646763799955 0.2968835457399628 L1.1525646763799955 0.2894372557400011 L1.0973482053800012 0.2894372557400011 L1.1135021763799955 0.2779219567400055 L1.1325451453799928 0.27600952173999715 L1.1529308873800233 0.2775964357399694 L1.1730724893799902 0.27637573273996807 L1.2948986613799889 0.22347859774000156 L1.3305431923799915 0.19898315473996675 L1.3505627233799942 0.1727380377399932 L1.3625256143799902 0.18645060273998482 L1.3739595333800025 0.19011271173998878 L1.4023612263800374 0.18702026373997072 L1.4169689733799942 0.18905476873995397 L1.4433361613799889 0.19808797274000156 L1.4572928663799871 0.2000817877399932 L1.4692150673799915 0.19983764673999715 L1.4758475543799818 0.1989017747399835 L1.4958263953799928 0.19385620173996543 L1.5105969033800193 0.19202514673999715 L1.5258963823799832 0.19324584973999848 L1.5397717073799981 0.1981286627399932 L1.550391825380018 0.20752807673996543 L1.5575532833800025 0.19202514673999715 L1.5763928013799955 0.18238159173997204 L1.5993420203799928 0.18026570674000553 L1.6186698193799884 0.18702026373997072 L1.6453625283800193 0.1766442877399932 L1.6772228793799968 0.16879109774000156 L1.710548075380018 0.16480346673997204 L1.7416353143800052 0.16651245173996543 L1.8436860953800078 0.18905476873995397 L1.8688325803800012 0.20378458673998878 L1.8896252233799942 0.2131433107399694 L1.9489513953799928 0.23055867574000288 L1.952491434380022 0.23470906573995265 L1.9733247673800065 0.25916381873999583 L2.0000988563800206 0.2762943527399848 L2.0279308873800233 0.28577514673999715 L2.043230366379987 0.27637573273996807 L2.0614595333800025 0.2855716967399822 L2.091732970380008 0.29663940473996675 L2.120093973379994 0.30347534173997204 L2.1325858353799845 0.2999759927399914 L2.138933491379987 0.3157637537400042 L2.187232645379993 0.3583256027399848 L2.187232645379993 0.3645918787400042 L2.1824719033800193 0.3625573737399641 L2.166765523380036 0.3583256027399848 L2.179420145379993 0.38745971673997204 L2.1838146763799955 0.3918542487399641 L2.2015148723800166 0.3955977377399513 L2.205258361380004 0.39429565473996675 L2.2015148723800166 0.3856286627399932 L2.214576395379993 0.3713464357399694 L2.2112804973800166 0.3711836757400029 L2.204770080380001 0.3716719567400055 L2.2015148723800166 0.3713464357399694 L2.2017590123800233 0.37012573273996807 L2.203834207379998 0.3658939617399888 L2.20627561437999 0.3626387537400042 L2.207740457379998 0.3645918787400042 L2.207740457379998 0.3583256027399848 L2.2054211223800166 0.35523315473996675 L2.2015148723800166 0.34473510773996807 L2.207740457379998 0.34473510773996807 L2.222592345380008 0.35238484774000156 L2.2430187783800193 0.3541752117399888 L2.2612479443799884 0.3485599777399848 L2.269223205380001 0.33383015974000685 L2.279273661379989 0.32398315473996675 L2.299008361380004 0.3234948737399641 L2.312436095380008 0.3342370607399694 L2.30393186437999 0.3583256027399848 L2.3208996373800233 0.36792846673997204 L2.337257059380022 0.3695560717399822 L2.3768078403800246 0.3629642747399835 L2.380225809380022 0.3632084147399901 L2.385841043380026 0.3645918787400042 L2.392758361380004 0.36898640974000685 L2.4071626583800025 0.3827396647399901 L2.4168469033800193 0.3856286627399932 L2.451352111380004 0.3856286627399932 L2.4594494423799915 0.3877852377399513 L2.463884663379986 0.3924645997399985 L2.467058491379987 0.3971439617399888 L2.4764172153800246 0.4014571127399513 L2.4900077103799845 0.4108158367399888 L2.499122293380026 0.4129724127399932 L2.506853413379986 0.40955444373999583 L2.5119396763799955 0.40210815473996675 L2.518328023380036 0.39486531573995265 L2.529802632379983 0.3918542487399641 L2.548804911379989 0.3781009927399914 L2.577165913379986 0.37830444373999583 L2.626075418380026 0.3918542487399641 L2.6529308873800233 0.39535359774000156 L2.660092345380008 0.4003991707399628 L2.654029520379993 0.4129724127399932 L2.6453625283800193 0.41830281573995265 L2.6334810173800065 0.4201745607399694 L2.6055676063800206 0.4198083497399985 L2.6160656533800193 0.43811889673999715 L2.6333996373800233 0.4400313317400055 L2.6521984653800246 0.4350671387399707 L2.667009663379986 0.4327884927399914 L2.6850760693799884 0.4471520997399985 L2.6962251583800025 0.45374389673999715 L2.701148661379989 0.45057006873999583 L2.706519754379997 0.4368575037400042 L2.704363179379982 0.4296960457399628 L2.6823091423800065 0.4242435717399822 L2.675229064380005 0.4180993657399945 L2.6716483353799845 0.4093103027399998 L2.673275939380005 0.3993005377399932 L2.680925679379982 0.39307495173996543 L2.692359598379994 0.3938073737399641 L2.718238504379997 0.3993005377399932 L2.7602306923799915 0.4003177897399901 Z M0.8887707313800206 2.0162032067400055 L0.9056164343800219 2.017179768739954 L0.925391825380018 2.021086018739954 L0.9396740513799955 2.029305420739963 L0.9396740513799955 2.0434655767399654 L0.9272228793799968 2.0510339357399694 L0.9068371373800233 2.0528649907399945 L0.867937398380036 2.050952555739986 L0.8504406533800193 2.047290446739982 L0.8351411743799986 2.038420003740004 L0.8099946893800052 2.0162032067400055 L0.8132092073799981 2.006234130740001 L0.8177258093800219 2.002124430739986 L0.8234224243799986 2.003548584739992 L0.8298107703799928 2.009936930739986 L0.8412853793799968 2.002327880740001 L0.8467785433800259 2.0050541177399914 L0.8507661743799986 2.0118493657399945 L0.8576834913799871 2.0162032067400055 L0.8887707313800206 2.0162032067400055 Z M0.7211681923799915 1.4817793787400042 L0.7449719033800193 1.4710778807400011 L0.7776867473800166 1.4735599777399848 L0.8027111613799889 1.4869470217399972 L0.8030773723800166 1.5091231287400042 L0.780046773380036 1.522225341739972 L0.7481457313800206 1.5220625817400055 L0.7232433873800233 1.508553466739972 L0.7211681923799915 1.4817793787400042 Z M1.667091043380026 0.021899821739982173 L1.6959810173800065 0.0206384277399998 L1.71526812738 0.02320190473996675 L1.7325207313800206 0.0304040527399998 L1.755225809380022 0.04305867574000288 L1.8498709913799871 0.07813354573996278 L1.8901135043799968 0.10218139673999715 L1.8787609653800246 0.12557820674000553 L1.8625256143799902 0.11902709973999848 L1.7778088173799915 0.10800008174000553 L1.7385021763799955 0.0934330247399835 L1.6899181923799915 0.08309773773995133 L1.6733573193799884 0.07593627973996675 L1.6618827103799845 0.07801147473999848 L1.650001200380018 0.08220255573998614 L1.6391776323799832 0.08399292073996278 L1.618262918380026 0.0800052897399901 L1.5937674763800374 0.07227417073996278 L1.5715506793799818 0.0616540527399998 L1.5573091423800065 0.04920288074000112 L1.5617036743799986 0.04924357173998217 L1.5644706013800374 0.04794148773995133 L1.5702892863799889 0.04305867574000288 L1.616553934380022 0.028410237739951327 L1.667091043380026 0.021899821739982173 Z M1.2590099893799902 1.2319421387399707 L1.2403332313800206 1.2193282067400055 L1.2350842073799981 1.2149336757400029 L1.2277599893799902 1.2062259927399914 L1.22112750238 1.1959313967399972 L1.2180350543799818 1.1849043787400042 L1.221453023380036 1.1739180507400029 L1.2338228143800052 1.1607344567400055 L1.251319559380022 1.1495853677399914 L1.2717053013799955 1.1420170087399875 L1.2931896763799955 1.1391687017399654 L1.3168713173799915 1.1417321777399998 L1.4557466423800065 1.1971114097400068 L1.5242687783800193 1.2183923347399919 L1.6004406533800193 1.2549727377399513 L1.6715669553800012 1.2833337407399945 L1.7006196893800052 1.3173099777399848 L1.7081880493799986 1.3389571127399513 L1.7117687783800193 1.3647546387399707 L1.7089204703800078 1.3900231937399958 L1.6972017203800078 1.409757893739954 L1.6865409133799858 1.41398966473999 L1.6794608353799845 1.4078454597399919 L1.6705090123800233 1.389901123739964 L1.6619640903800246 1.38273966473999 L1.6543143513800374 1.38078653973999 L1.6317720333800025 1.3794030767399654 L1.5426607053800012 1.3605228677399914 L1.5122245073799832 1.3582849127399932 L1.4802420853799845 1.350838623739964 L1.3921073193799884 1.29680216473999 L1.3030773723800166 1.2738122557400011 L1.2791515903800246 1.2589196777399998 L1.2590099893799902 1.2319421387399707 Z" fill="black" stroke="black" stroke-width="0.5" vector-effect="non-scaling-stroke"/></svg>