<svg xmlns="http://www.w3.org/2000/svg" viewBox="0 0 0.5876953124999886 0.23557617161999644"><path d="M0.5048665367500291 0.1531070963100163 L0.531640624749997 0.15961751330997487 L0.5588216147499736 0.16124511730999558 L0.5819335937499943 0.15921061231001232 L0.4313802087500278 0.18736816430999426 L0.37929687474999696 0.22057128930999426 L0.3505696617500291 0.22830240831002158 L0.2770833337500278 0.23326660130999954 L0.24314778675002913 0.22993001330997487 L0.20994466175002913 0.21397949230999558 L0.20017903675002913 0.2060042313099828 L0.17389322875001767 0.1800439453099969 L0.14069010375001767 0.1312158203099969 L0.13352864574997625 0.11550944031001364 L0.14101562474999696 0.10533691430999426 L0.12945963575000974 0.09955891930997751 L0.12303059874997757 0.09239746130999293 L0.12392578174998903 0.0849104813099828 L0.13417968774999167 0.07799316430999426 L0.11448567674997889 0.06993652330999822 L0.09861653675002913 0.06578613231000219 L0.040755208750027805 0.06244954430997751 L0.02342122374997757 0.05577636730999558 L0.011458333750027805 0.04291829430997751 L0.005761718749994316 0.022736002310018932 L0.03912760375001767 0.0159814453099969 L0.0666341147499736 0.0023095703099969 L0.10065104175001238 0.025502929310000866 L0.10691731774997493 0.026479492309995578 L0.11432291675001238 0.037221679310000866 L0.13084309874997757 0.04991699230999558 L0.14720052074997625 0.05772949230999558 L0.15468749974999696 0.05382324230999558 L0.15891927074997625 0.03852376330997487 L0.16933593774999167 0.031687825309980155 L0.18268229175001238 0.0335595703099969 L0.19627278675002913 0.0438948563099828 L0.18260091175002913 0.05007975231001893 L0.19537760375001767 0.06603027330999822 L0.21678059874997757 0.06879720030998016 L0.2399739587500278 0.062286783310021576 L0.2577148437499943 0.05007975231001893 L0.27740885375001767 0.05602050731000219 L0.33396809874997757 0.057485351309999544 L0.3573242187499943 0.06749511730999558 L0.3682291667500124 0.0745751953099969 L0.39069010375001767 0.08035319031001364 L0.40232747374997757 0.08482910130999954 L0.4098958337500278 0.09142089830999822 L0.425358072750015 0.10867350231001893 L0.4330891927499749 0.11217285130999954 L0.4587239587500278 0.13097167931000087 L0.4692220057500265 0.1415511063099828 L0.5048665367500291 0.1531070963100163 Z" fill="black" stroke="black" stroke-width="0.5" vector-effect="non-scaling-stroke"/></svg>