<svg xmlns="http://www.w3.org/2000/svg" viewBox="0 0 6.3580137233029745 4.5276466125599715"><path d="M0.06450387787542411 3.047557440279977 L0.06233346787551852 3.0164740662799296 L0.06414214287552511 3.000635240279937 L0.07062753487547013 2.987586941279975 L0.08085946887545958 2.981075710280013 L0.10308033487548585 2.9755721702799214 L0.1113227258755245 2.967071397279998 L0.12127043887544176 2.949682278279983 L0.13519723787543114 2.9350320092799116 L0.16651315587553484 2.908780382279975 L0.17558236887551004 2.897850816280002 L0.18043995287551695 2.8900476742799732 L0.18801055087548946 2.885086737279938 L0.20503793587549524 2.882942165279946 L0.21731108787552955 2.885086737279938 L0.24242583387545835 2.89350999628002 L0.25397551687548514 2.8926314972799823 L0.26573190487549425 2.8817536072799363 L0.270382783875462 2.865191310279929 L0.2708995478754872 2.847440456280001 L0.26671375687546117 2.797055935279918 L0.2702794318754371 2.7907772492800014 L0.2808989378755058 2.779589301279973 L0.28343108287550933 2.7717603212800306 L0.28162240787550274 2.7547329362800106 L0.27991149387553094 2.752177580279966 L0.2756021028754816 2.745741237279976 L0.2664553748754912 2.7379122582799518 L0.25557748687545256 2.7242438412799324 L0.2367155878755085 2.6800346542799254 L0.22731047787546288 2.6649451362800143 L0.20715666887547002 2.6413548442800057 L0.19844918987551807 2.6284615742799993 L0.19369495887552546 2.6145347762800135 L0.19467681087549238 2.595724554279915 L0.20250578987550227 2.584019843279936 L0.22731047787546288 2.5632200792799757 L0.23690977187548867 2.549976210279926 L0.24459624487555232 2.539371405279912 L0.25697274987551566 2.5109752062799835 L0.25702442687553173 2.4846202252799294 L0.23754241087543448 2.466946885280013 L0.2533553988754278 2.4208256692799814 L0.2653184928754939 2.402790595279985 L0.27918440887548 2.3917508532799623 L0.2856014928755002 2.386641710279907 L0.31629729387553596 2.371578030280009 L0.417841483875506 2.338634304279953 L0.452697236875494 2.322640448279916 L0.5790977908755366 2.2277366802799357 L0.6652253258754541 2.163073430279969 L0.7519296188755078 2.0979771582799636 L0.8387460248754763 2.0327356632800395 L0.9261050338754302 1.9671324322799997 L0.9586907918755259 1.9422955782799711 L1.0271324578754815 1.8902379012800061 L1.0735637328754848 1.8461320662799388 L1.1038202838754927 1.795773383279954 L1.1094530148754558 1.7884353302799703 L1.1305369988754563 1.7880219182799415 L1.1464275028754827 1.7822858342799925 L1.1611294478754672 1.7744310162799657 L1.178363536875466 1.7673513452799519 L1.1845388718755459 1.77479275127995 L1.1912051308754457 1.761460231279944 L1.1903783078754344 1.7506081812799899 L1.1935047318754783 1.7416164822800404 L1.205188074875494 1.73738185727996 L1.211047449875494 1.7398232632799626 L1.2563762258754565 1.7710732632799626 L1.2808716688754913 1.7785195522799917 L1.307238856875486 1.7671670132799626 L1.3652222548754622 1.7072711792799886 L1.389839767875472 1.692093771279989 L1.3845093638754662 1.676346700279968 L1.3945191298754622 1.6731728722799666 L1.4338664608755067 1.678421896279989 L1.4922160698754539 1.6442422082799943 L1.499458908875468 1.6306924032799692 L1.5015747938754913 1.620845398279986 L1.4959595598754873 1.61628810727996 L1.4848104708754732 1.6131956592799988 L1.4756958878754887 1.6061155802799512 L1.4715454968754926 1.5990355022799498 L1.4751262258754565 1.5958616742799485 L1.5173625538754578 1.5949664922799833 L1.5341675668754675 1.5900836792799886 L1.5505656788754578 1.5787718302799512 L1.5800660048754622 1.569168966279964 L1.6660441948754539 1.5634723512799873 L1.6840292208754732 1.5585488492799904 L1.68980721587549 1.5444293832799794 L1.6977824758754565 1.542028666279979 L1.7039673718754926 1.54011623227996 L1.7217896378754887 1.5423134972799666 L1.73863534087549 1.5480508022799917 L1.7830689348754873 1.5738076382799626 L1.8000773978754552 1.57535386228 L1.8000773978754552 1.5690875862799807 L1.7898234918754525 1.5595254112799957 L1.8001587778754953 1.5480914922799833 L1.8348267468754926 1.527542989279997 L1.8157023978754552 1.552933614279997 L1.8088257708754583 1.5684365442799653 L1.8174927628754887 1.57535386228 L1.822985926875461 1.5822711792799886 L1.9164917858754649 1.6643838102799613 L1.946724533875468 1.6769977422799833 L1.9787883358755067 1.6708942262799873 L1.9843628798754622 1.6652789922799833 L1.9945760958754732 1.6490843302799512 L1.9992961478754552 1.6442422082799943 L2.008980392875472 1.6435097862799957 L2.034940678875458 1.6446084192799653 L2.0402710828754635 1.6405394092799988 L2.046171147875455 1.6235309452799846 L2.061145106875486 1.6147011922799983 L2.0810425668754675 1.6127073772799498 L2.1843547418754525 1.6356565962799472 L2.2744019418754675 1.6661741742799485 L2.3671346898754706 1.6760211792799886 L2.4736206918754675 1.6997028202799846 L2.5092652238754596 1.7026325082799794 L2.5473918508754565 1.6988890182800027 L2.6087525278754953 1.6811481332799794 L2.626493413875508 1.678421896279989 L2.62926034087549 1.6754515182800027 L2.645943283875468 1.6628375862799807 L2.6497681528754953 1.6610472212799472 L2.655464767875472 1.6564899292799886 L2.6676717988754746 1.660721700279968 L2.6796753798754622 1.6674355672799983 L2.6845581918754675 1.6708942262799873 L2.727038660875465 1.674393575279968 L2.9223104708754732 1.657954773279986 L2.955554285875465 1.6588499552799512 L2.9861939348754873 1.6708942262799873 L2.9882691298754622 1.6721963102799613 L3.011462488875466 1.68660060727996 L3.027087488875466 1.6906289272799917 L3.051379481875486 1.692093771279989 L3.0711548718754926 1.6890420132799626 L3.0878378148754706 1.681636414279982 L3.182889897875455 1.6244261272799498 L3.207629481875486 1.5979775602799613 L3.2189820208754583 1.58902573728 L3.2535279188754913 1.5755166222799666 L3.2883179578754635 1.5673786012799873 L3.4312622938754913 1.5623330282799692 L3.443835535875465 1.5588336792799886 L3.4539673718754926 1.55386948728 L3.4928671118754693 1.5263629762799873 L3.5139445858755067 1.5037392782799692 L3.5229370988754596 1.47956935727996 L3.5069458878754887 1.4593056852799613 L3.4436320858755067 1.4505166222799666 L3.413358647875455 1.4430703332799943 L3.4182007708754583 1.4319619352799613 L3.444283126875476 1.429886739279997 L3.521573169875481 1.4446518842799527 L3.575119847875456 1.45430157927996 L3.6126587778754953 1.4584918832799794 L3.6597929828754587 1.4714530192799806 L3.706774988875466 1.4833128462799472 L3.7229289608755067 1.4865680542799886 L3.7340780488754746 1.4915322472799666 L3.73668221587549 1.50300685727996 L3.736519454875477 1.5165973512799873 L3.7391236218754926 1.527542989279997 L3.746569910875465 1.527542989279997 L3.7460409398754706 1.5208291222799666 L3.748075444875454 1.5176552942799653 L3.7510865128754887 1.5159463102799613 L3.7534058488754596 1.513871114279997 L3.769904024875487 1.5142667672799952 L3.7787903218754906 1.527092556279971 L3.7965616118754753 1.540992654279993 L3.817660784875457 1.5559632592799666 L3.8620699348754925 1.5741606432799848 L3.937547059875456 1.593468664279957 L3.989730320875495 1.5892722842799607 L4.06413418587546 1.581925210279966 L4.17187457087546 1.578950246279991 L4.229769946875493 1.5555874742799496 L4.302341758875471 1.504460650279956 L4.350344491875504 1.476787923279975 L4.426176030875482 1.4750934452799846 L4.475350544875496 1.4910282692799832 L4.571660426875454 1.5332845902799512 L4.692535285875479 1.5680058942799668 L4.749572976875484 1.5868322192799873 L4.763847911875487 1.5973981522799967 L4.757644111875507 1.6098234812799923 L4.74527064887549 1.6281185052799891 L4.745185492875478 1.643853622279952 L4.745044801875466 1.668768485280001 L4.766070813875459 1.688541152279985 L4.7858275988754855 1.691260240279977 L4.810411481875477 1.6835168882799998 L4.8139362218754655 1.6632145632799542 L4.816715621875474 1.654052182280001 L4.826254400875499 1.6547576662799806 L4.832995502875477 1.6672473522799613 L4.850639574875473 1.6791397622799913 L4.875869360875484 1.675342185279991 L4.899691920875469 1.6780988672799744 L4.948688181875482 1.6842792462799743 L4.957608322875458 1.6738463412799582 L4.973313556875453 1.6673874932799926 L4.95225738987547 1.658742171279986 L4.927091522875472 1.6533519852799863 L4.848150186875458 1.6404548072799834 L4.8182373378754875 1.6278402352799652 L4.793069760875497 1.6159099232799612 L4.784295017875493 1.6001281652799584 L4.82447913487546 1.6082104542799733 L4.961957145875502 1.6332432132799717 L5.0518092698755055 1.6423196262799742 L5.111082815875491 1.6453314422799998 L5.131486344875455 1.6520250982799816 L5.185730335875476 1.6956842452799528 L5.259054218875477 1.7533378132799875 L5.3678186358755084 1.842787138279963 L5.47319152087546 1.930148732279978 L5.531953987875468 1.9778545512799646 L5.608589767875472 2.0231484582799943 L5.627063074875494 2.0336871952799846 L5.645251551875461 2.0414996952799846 L5.6804484918754525 2.0471963102799613 L5.689318934875487 2.0517129112799957 L5.696154871875493 2.0614785362799957 L5.69676522387546 2.0692910362799957 L5.6902141168754525 2.074417989279997 L5.675321538875508 2.0762490442799653 L5.657824793875491 2.0696572472799666 L5.6199016168754525 2.0406858932800027 L5.591662684875487 2.031245789279982 L5.572701095875473 2.018265646279989 L5.563342371875493 2.0141559452799846 L5.532987553875458 2.013871114279997 L5.519763270875458 2.0110634972799666 L5.508044520875458 1.9999144092799988 L5.512723882875505 1.9982054242799485 L5.516955652875495 1.99519435727996 L5.521716395875458 1.9936481332799794 L5.513049402875495 1.9811969612799807 L5.480171798875475 1.9452675992799904 L5.473335861875469 1.9452675992799904 L5.46239022387546 1.9505166222799666 L5.448962488875466 1.9428261922799983 L5.434924402875495 1.9313515832799943 L5.422107020875458 1.9254515182800027 L5.4015992078754635 1.927933614279997 L5.392199793875491 1.934159200279968 L5.384956954875477 1.9428261922799983 L5.370878178875458 1.9521035362799957 L5.364530522875455 1.947953146279989 L5.336779871875493 1.9384316612799957 L5.349556564875471 1.927486023279986 L5.35496834887546 1.9213825082799794 L5.357287684875487 1.914872091279964 L5.352486251875476 1.912552755279993 L5.341744064875471 1.910843771279989 L5.329943934875487 1.9103961792799886 L5.322497645875458 1.9118203332799943 L5.319690027875495 1.9226032112799807 L5.326119064875471 1.9397744352799613 L5.337756434875487 1.95816636228 L5.3503703668754525 1.9726113492799904 L5.347888270875458 1.974808614279997 L5.346789637875489 1.9755003462799472 L5.345813074875494 1.9766396692799653 L5.343615809875487 1.9800576382799626 L5.336779871875493 1.9800576382799626 L5.306831954875477 1.9237425342799988 L5.295764246875493 1.9118203332799943 L5.284371017875472 1.909907898279986 L5.271228113875466 1.9123493042799886 L5.254178960875507 1.917964539279982 L5.242297449875494 1.91715073728 L5.2251262258754565 1.91316310727996 L5.21324471587549 1.9118203332799943 L5.220975835875507 1.9345254112799957 L5.227404871875493 1.9422972212799472 L5.245715418875491 1.9485634972799666 L5.245959559875487 1.9568642782799692 L5.242663660875465 1.9680947472799666 L5.24058846587549 1.9800576382799626 L5.247424402875495 1.9800576382799626 L5.2505168508754565 1.9647581592799988 L5.270536382875505 1.955643575279968 L5.279569585875507 1.927933614279997 L5.289009689875471 1.92496323728 L5.29832772387546 1.9304157112799807 L5.311877527875495 1.9631305542799886 L5.328072189875471 1.9895791222799666 L5.333972254875462 2.0121214402800014 L5.312528569875454 2.0216429242799485 L5.301949142875472 2.0327920132799626 L5.309598882875505 2.0580605672799983 L5.326607345875473 2.0854450082799794 L5.343615809875487 2.10294175227995 L5.369413335875507 2.1162067262799873 L5.390734949875494 2.1211709192799653 L5.400256434875487 2.1118121952799846 L5.390734949875494 2.082474630279993 L5.404162684875487 2.0927285362799957 L5.416044194875454 2.106278341279964 L5.420764246875493 2.121740580279951 L5.412544845875473 2.1376911012799873 L5.426216720875473 2.1542112842799988 L5.445503829875477 2.15730373227996 L5.494372645875458 2.1513629762799873 L5.494372645875458 2.1581582242799904 L5.48472909087549 2.1577920132799626 L5.478218673875475 2.1596230672799983 L5.46715096587549 2.1649941612799957 L5.46715096587549 2.1712197472799666 L5.475451746875493 2.1882282112799807 L5.487740158875468 2.203812521279989 L5.504138270875458 2.2151650602799613 L5.525134363875466 2.219640971279947 L5.54332284087549 2.217484396279989 L5.566597579875477 2.211747091279964 L5.588977137875489 2.2030394092799988 L5.604235926875461 2.1923379112799957 L5.591581303875458 2.1804157112799807 L5.549060145875458 2.1581582242799904 L5.541857996875493 2.1513222862799957 L5.538521408875468 2.1446897992799485 L5.534452397875455 2.1396442262799873 L5.525134363875466 2.1376911012799873 L5.514392176875461 2.136917989279997 L5.437976160875465 2.1106728722799666 L5.425524988875466 2.10294175227995 L5.402331629875462 2.0704710492799485 L5.390734949875494 2.0619668172799983 L5.399605392875472 2.0543577682800027 L5.4094117078754635 2.0493121952799846 L5.431750574875494 2.0414996952799846 L5.52098397387546 2.07950425227995 L5.535388270875458 2.099808614279997 L5.541044194875454 2.11042873227996 L5.554797449875494 2.12019435727996 L5.571724533875468 2.1274371952799846 L5.600207606875486 2.1332965702799846 L5.612048426875461 2.1413532112799807 L5.622261642875472 2.152542989279997 L5.630969324875494 2.1649941612799957 L5.624296147875455 2.16934800227995 L5.6161988168754675 2.176346700279968 L5.610461512875489 2.1786660362799957 L5.610461512875489 2.1848916222799666 L5.626900314875471 2.1884316612799957 L5.640816329875477 2.178625346279947 L5.6515992078754635 2.1773232632799626 L5.658923426875461 2.2066201382799626 L5.656685470875473 2.2438108932800027 L5.658923426875461 2.2537392782799692 L5.666288335875507 2.2609414272799917 L5.673856694875454 2.2604938362799807 L5.6789429578754635 2.25333237727995 L5.678739507875505 2.2401487842799988 L5.686226486875469 2.2401487842799988 L5.695096928875458 2.2595986532799692 L5.70347909087549 2.25495998227996 L5.720324793875491 2.2258258672799833 L5.735868413875508 2.2171181852799613 L5.756579676875461 2.211136739279997 L5.792346277875495 2.2066201382799626 L5.796740809875487 2.2019000862799807 L5.794665613875466 2.1791950082799794 L5.796089767875472 2.1712197472799666 L5.802762944875454 2.1669472862799957 L5.8091106008754565 2.1674355672799983 L5.816638270875458 2.1697549032799692 L5.881457606875486 2.1820433152800014 L5.898466069875454 2.1786660362799957 L5.898466069875454 2.1848916222799666 L5.892525314875471 2.1908730672799983 L5.893176356875486 2.1949013882799626 L5.896472254875462 2.1992959192799653 L5.898466069875454 2.2066201382799626 L5.898466069875454 2.2367308152800014 L5.893257736875469 2.2517861532799692 L5.881701746875493 2.2580524292799886 L5.870227137875489 2.2537392782799692 L5.864978113875466 2.2367308152800014 L5.861316004875462 2.2316445522799917 L5.852649012875489 2.228267273279986 L5.842273035875465 2.2263955282799692 L5.833606043875491 2.2258258672799833 L5.82762459887546 2.2299355672799983 L5.822212814875471 2.2390094612799807 L5.81590584887546 2.2537392782799692 L5.811389246875493 2.25894761228 L5.80699471587549 2.262162130279993 L5.803658126875476 2.2670856332799794 L5.802274663875508 2.2776650602799613 L5.804675379875462 2.286861023279986 L5.810331303875458 2.2885293172799983 L5.817126551875461 2.2856403202799846 L5.822741785875465 2.2810830282799692 L5.817655522875455 2.27261948728 L5.816638270875458 2.2661090702799846 L5.818632085875507 2.260209005279993 L5.822741785875465 2.2537392782799692 L5.830188074875494 2.2537392782799692 L5.832263270875458 2.2782754112799957 L5.8390992078754635 2.2958535362799957 L5.851672449875494 2.3025674032799692 L5.871203699875494 2.2947549032799692 L5.876574793875491 2.2890175992799904 L5.885689376875476 2.2743691612799957 L5.891630132875505 2.268021505279993 L5.899524012875489 2.2631386922799983 L5.9443238168754675 2.24747300227995 L5.943957606875486 2.2439736532799692 L5.939441004875462 2.233312846279947 L5.935249923875475 2.227127950279968 L5.929553309875487 2.2225706592799988 L5.923816004875462 2.2167519742799904 L5.919624923875475 2.2066201382799626 L5.916247645875458 2.19245998227996 L5.908923426875461 2.1733356332799794 L5.896512944875454 2.1620237842799988 L5.877958257875505 2.1712197472799666 L5.848254481875486 2.1539671432800027 L5.83348397387546 2.1507933152800014 L5.81590584887546 2.1581582242799904 L5.809761642875472 2.1513629762799873 L5.81199959887546 2.14761948728 L5.81590584887546 2.1376911012799873 L5.7997925668754675 2.135575216279964 L5.756538986875469 2.1201129762799873 L5.747668543875491 2.1137653202799846 L5.737170496875493 2.102453471279947 L5.71629647387546 2.0959430542799886 L5.700793543875491 2.0871539922799833 L5.706734298875475 2.068802755279993 L5.723132410875465 2.0610309452799846 L5.738716720875473 2.0692910362799957 L5.752795496875493 2.0824339402800014 L5.764758387875489 2.08926987727995 L5.775500574875494 2.0927285362799957 L5.883532801875461 2.147293966279964 L6.0180949758754565 2.1966103722799666 L6.06981209887546 2.233312846279947 L6.081571538875508 2.252152364279997 L6.097684819875454 2.316402039279982 L6.115262944875454 2.35660386228 L6.1418335828754635 2.3946897992799485 L6.172310470875473 2.418412130279993 L6.295680255427456 2.4660232230076566 L6.28247059287547 2.4681354432799516 L6.248725883875508 2.4662234152799307 L6.234799084875519 2.468781399279923 L6.208392426875534 2.4805377872799177 L6.164105724875512 2.4798401552800193 L6.159971610875502 2.4805377872799177 L6.147801810875492 2.4759127462799633 L6.140463756875491 2.470925970279911 L6.141238903875504 2.465654975279964 L6.153150321875458 2.4599964052799415 L6.109070324875475 2.4554747182799055 L6.091887910875485 2.4565857612799995 L6.07677255487549 2.4662234152799307 L6.071579073875469 2.452968410280011 L6.061140433875536 2.4466897232799205 L6.048298840875461 2.4417804632799864 L6.035818981875465 2.4320652942799406 L6.0262330038754754 2.4494027362799535 L6.010652559875425 2.4660942242799884 L5.990395397875531 2.477850613279987 L5.966934297875454 2.4805377872799177 L5.957735892875448 2.4756285252799763 L5.945566092875524 2.4574900982799512 L5.940269258875489 2.45255499928 L5.9271176068755125 2.450384589279924 L5.9170407028754965 2.451495632279933 L5.913655895875465 2.456534084279898 L5.920399670875511 2.4662234152799307 L5.915128674875476 2.47286383728002 L5.913500866875424 2.4790133332799975 L5.912906587875469 2.4941803652800196 L5.903088065875508 2.4853436962800153 L5.897507010875486 2.489632839279981 L5.896215099875533 2.501260037279952 L5.899264009875466 2.51467007027998 L5.893631278875532 2.5120087352799665 L5.878774303875488 2.507822943279937 L5.880996390875495 2.510871853279955 L5.883683565875529 2.517951524279983 L5.8856472688754735 2.5214655212800245 L5.871255383875464 2.525625474279966 L5.8463473428754895 2.5449266212799166 L5.82185271387543 2.5538408072799292 L5.816943452875492 2.5646670192799697 L5.814824718875528 2.578128730279932 L5.810509736875545 2.590350206279954 L5.803068330875519 2.590350206279954 L5.794567557875425 2.5798340522799954 L5.7761707478755255 2.574537217279957 L5.753975719875498 2.573400336279949 L5.7341578088755085 2.576061672279966 L5.715502616875526 2.5846916372799207 L5.711626883875468 2.59580206927993 L5.721109508875557 2.62450832727993 L5.7136939418755475 2.62450832727993 L5.709921561875504 2.6159817162800074 L5.702505993875505 2.611460028279982 L5.69219654587549 2.6100647642800006 L5.679561657875482 2.6108399112800136 L5.681602875875527 2.6263686792799383 L5.660828950875484 2.6342493352799785 L5.605070080875535 2.6375566262799772 L5.612201427875462 2.6492613382799597 L5.617136527875502 2.6541447612799836 L5.6249138308755136 2.6592607282799783 L5.606465343875513 2.6594157582800086 L5.586621594875524 2.665616929279995 L5.568819062875477 2.6752545832800116 L5.556649263875485 2.6859257672799295 L5.550861502875492 2.6787685812799715 L5.5473733438754635 2.6762881122799946 L5.543445935875482 2.675202907279999 L5.536185396875496 2.672309028280015 L5.541120495875546 2.681688300279962 L5.542360729875483 2.6859257672799295 L5.529570812875519 2.6825926382799175 L5.513473604875443 2.665849473279966 L5.501407157875477 2.6592607282799783 L5.496472057875522 2.6821533872799854 L5.496265351875465 2.6913776312799946 L5.501407157875477 2.6995941832800305 L5.402550142875512 2.704710150280011 L5.385367728875437 2.7026947702799795 L5.383455700875501 2.6949691432799803 L5.378313894875518 2.692230292279934 L5.361441540875532 2.692772895279976 L5.350925386875488 2.691403469280008 L5.34715300687553 2.6878636332799495 L5.344569185875443 2.6832385932799845 L5.321676525875532 2.6691050882799523 L5.314364310875547 2.6696218522799917 L5.303408906875475 2.6785101992800016 L5.3150102658755 2.7019971382799817 L5.321934907875502 2.711169704279971 L5.33069406387547 2.7194379342800126 L5.33069406387547 2.7269310162799663 L5.3238469358755225 2.7311684842800084 L5.31960946887547 2.7307033962799814 L5.314906912875486 2.7283262802799477 L5.306509492875492 2.7269310162799663 L5.297388602875529 2.728843044279973 L5.292272635875534 2.73300299728 L5.288241873875435 2.7378089052799233 L5.282324922875532 2.741167873279938 L5.257933645875497 2.748066677279912 L5.243231700875512 2.7491777212799953 L5.231113578875508 2.7443201362799847 L5.2074457718754985 2.7195929622799646 L5.199745983875502 2.7132626002799505 L5.1907284468755535 2.7083016622799114 L5.176905000875493 2.703624946279934 L5.164321788875483 2.704503445279972 L5.158792410875563 2.716363186279981 L5.1639600548754885 2.763285386279936 L5.158844087875494 2.7852995462800187 L5.138328543875517 2.7958157002799773 L5.127243949875506 2.795040554279968 L5.102956025875486 2.7897178812799304 L5.087737316875476 2.7883484562799516 L5.0800892048754775 2.783051622280002 L5.0729320188754485 2.7570583762799465 L5.063191011875503 2.7474207212799264 L5.049987682875511 2.7663084572799654 L5.036112560875452 2.7915523952799255 L5.017689912875525 2.8136182312800067 L4.980405366875502 2.826356472279972 L4.954515474875464 2.8404124612799855 L4.943430879875464 2.843564724279947 L4.928108817875497 2.839120551279951 L4.917644339875537 2.8304130722799705 L4.907076509875466 2.824754502279948 L4.891909476875455 2.829302029279976 L4.894906709875485 2.8097166612799533 L4.8987049278754995 2.8026369902799395 L4.825686128875461 2.8005182552799575 L4.803155203875448 2.7958157002799773 L4.764423717875516 2.779589301279973 L4.745277599875507 2.77757391927992 L4.726803275875497 2.7883484562799516 L4.711713756875483 2.7541128202799463 L4.701275117875454 2.7373954942799124 L4.68083708987551 2.72393378327995 L4.681844779875476 2.7106271022799326 L4.679080089875512 2.698560654279948 L4.659184663875507 2.696131863279991 L4.659727265875475 2.694168158279954 L4.667556245875502 2.6843754742799923 L4.670656831875547 2.6815591092799345 L4.655954886875449 2.6578913022799107 L4.633992402875478 2.641974961279974 L4.608024995875425 2.634378526280006 L4.581695853875473 2.6354895692799154 L4.521906220875522 2.6460574002799895 L4.505498954875478 2.6553333192800075 L4.459661958875515 2.6984056262799108 L4.44175607587546 2.7108079692799727 L4.4261764378754975 2.7210192562799342 L4.424134410875453 2.7223576522800137 L4.410465994875537 2.7348633482800047 L4.401577648875431 2.750495469279958 L4.396332490875508 2.7874957952800123 L4.393076875875508 2.7934644232800316 L4.387909232875515 2.7958157002799773 L4.3721995968755465 2.799975653279919 L4.377599783875425 2.8097166612799533 L4.405918469875516 2.829302029279976 L4.383904308875529 2.8495591902799795 L4.377961519875512 2.857258978279976 L4.403903087875463 2.8572331402799627 L4.402467545875524 2.8604943722799767 L4.3964875208754535 2.874079657279939 L4.360882458875565 2.908780382279975 L4.33974679787552 2.9184955512800066 L4.322771089875502 2.906170722279956 L4.306803071875478 2.8890658222800063 L4.288587128875534 2.8845441352799845 L4.280654797875471 2.8987809922799563 L4.2763139768755 2.9265312362799882 L4.2742985958754645 2.9770707872799314 L4.270732921875478 2.98355617927999 L4.247633556875499 3.0074306912799678 L4.246444998875475 3.013786892279999 L4.248770438875496 3.0290572782799536 L4.247633556875499 3.0353876412799714 L4.2202967248754675 3.055877345279942 L4.236393932875458 3.066186794279947 L4.254248139875486 3.082025621279943 L4.267089733875494 3.101972724279964 L4.268097424875478 3.124762030279957 L4.25649606487552 3.141272650279948 L4.235928844875431 3.1533907742799308 L4.210917452875535 3.161452297280011 L4.186164440875487 3.165715603279981 L4.1483114538755075 3.165715603279981 L4.1379244908755055 3.167886013279972 L4.114153332875432 3.1793840192798974 L4.104774060875499 3.1817094582799292 L4.099296357875502 3.187290513279951 L4.095239758875508 3.1940342872799796 L4.088160087875465 3.2023541942799376 L4.085317883875504 3.209666408280018 L4.082501517875542 3.2129220232800044 L4.078315726875488 3.2138005232799465 L4.067592866875472 3.212146877279995 L4.0632520468754905 3.2129220232800044 L4.053614391875485 3.2219395612799566 L4.042116385875559 3.236589830279943 L4.0325045698754565 3.252273627279994 L4.02524403087547 3.2778534612799497 L4.017001639875431 3.296870388279917 L4.005968721875533 3.316171536279956 L3.994393200875507 3.3302016872799705 L3.968503307875565 3.3499937612799506 L3.9514500858755213 3.359631415279967 L3.91548328887545 3.3692432312799845 L3.909721365875484 3.382498236279975 L3.907499279875495 3.398440416280014 L3.898171683875532 3.4121346702799435 L3.879490652875475 3.418129136279962 L3.8629788148754898 3.421022963279942 L3.854427583875477 3.4225216332799597 L3.832516776875522 3.4295754662799744 L3.8230599898754605 3.44350226427996 L3.813318981875497 3.4532949492799254 L3.7782565228754805 3.4637335872799504 L3.7815121378754526 3.474249741279923 L3.7784632278755197 3.475231594279979 L3.7757243768754876 3.475179917279963 L3.7741740838755646 3.4763426372799735 L3.774639171875478 3.4810451922799537 L3.768463838875519 3.4810451922799537 L3.7599372268754934 3.4785647242799804 L3.7396283898754774 3.49569546127994 L3.726890148875512 3.501534898280017 L3.709139293875481 3.500346340279993 L3.6987781698754674 3.498020900279972 L3.693920584875471 3.5034986032799544 L3.692732027875522 3.5254094102799236 L3.682835989875443 3.5554850932799873 L3.678676037875519 3.5747604022800097 L3.682448417875534 3.5834678812798906 L3.697434582875516 3.5880154072799293 L3.703118989875449 3.5996167662799685 L3.701000255875485 3.6150938582799803 L3.692732027875522 3.631242743279973 L3.6858316158755002 3.6373961022799968 L3.683662813875472 3.6393301052799707 L3.68301012487548 3.639077022279981 L3.681130667875479 3.6383482532799043 L3.6678239868754616 3.62374966028003 L3.647463472875515 3.622096014279979 L3.6241057258754807 3.622819484279976 L3.6019623738755655 3.6153522402799503 L3.586020194875445 3.5964645042800107 L3.5762533488754826 3.575948961279952 L3.564522798875501 3.5586115172799317 L3.54256031487553 3.5491805692799723 L3.5289177368755276 3.550007391279994 L3.51982268487545 3.553676418279995 L3.5106242798754437 3.5555884462799163 L3.4967233198754712 3.5509375672799486 L3.4900053828754523 3.544839748279987 L3.4683529588754567 3.5169344752799994 L3.3977112748754763 3.466963365279941 L3.3948690718755046 3.4404533552800167 L3.405669445875432 3.418955960279991 L3.405927827875516 3.407871365279977 L3.3293950318755066 3.418955960279991 L3.31564910087549 3.4259064392799736 L3.3044353148755334 3.435828314279977 L3.299215995875514 3.4444841172799308 L3.295288585875525 3.4541217712799472 L3.288105561875497 3.466860012279998 L3.2764266878755137 3.4787714292799485 L3.2643344028755195 3.4849209252800115 L3.252552176875426 3.4893650982799223 L3.242061860875495 3.496160549279967 L3.207542004875492 3.5486638042799292 L3.1420162878755065 3.6173159452799872 L3.126203299875513 3.641707221279919 L3.118348482875561 3.6713436552799585 L3.1125607218754823 3.6864331722799655 L3.1009335248755434 3.6992747662799594 L3.0859990358754743 3.706380276279976 L3.067653901875488 3.71077277227997 L3.016029146875482 3.7140025492799573 L3.0090528278754647 3.713020697279891 L2.9995960408754883 3.710049302279973 L2.9936532508754823 3.7059151882799632 L2.9778919388755156 3.690076361279953 L2.9632675088754326 3.692091742279903 L2.9498316358754693 3.6990163842799753 L2.9353105588755426 3.7035380722799154 L2.9175855428755284 3.6986546492798915 L2.8844609498755034 3.68090379427996 L2.84498015587549 3.683177557279979 L2.763434744875454 3.6983445902799907 L2.719819835875498 3.693021918279957 L2.69889088087551 3.694778917279937 L2.6762049278755313 3.7059151882799632 L2.6646810828755036 3.713692491279975 L2.6599268508755216 3.7177749292799724 L2.658221528875444 3.723872748279934 L2.655896089875526 3.73779954627992 L2.654957134875545 3.755144840279957 L2.652072033875484 3.8084412292800103 L2.653984061875505 3.817510443279975 L2.657911470875561 3.822678086279982 L2.661995162875499 3.8256996892799613 L2.6707272258754386 3.8321607122799612 L2.6745512818754804 3.8386202662800066 L2.675223075875479 3.8546141222799584 L2.6690219038754748 3.886627671279957 L2.6695386678755284 3.9036550562798915 L2.7018364378754853 4.023621893279984 L2.700182791875548 4.0392023382799245 L2.687470389875486 4.066823391279929 L2.6859200968754777 4.081111924279998 L2.6897441528755195 4.091085476279918 L2.6956869428755255 4.094134386279936 L2.7025082308754946 4.095710517279972 L2.7089677858755437 4.1013949242800045 L2.716202485875513 4.11413316527997 L2.7183212198754774 4.120205145279929 L2.7242640098754833 4.148833889279903 L2.722093598875503 4.164207628279971 L2.7143421348755083 4.177359279279958 L2.70064787987549 4.189735785280011 L2.6934094558754538 4.194565741279963 L2.686281831875462 4.199321763279929 L2.676825044875514 4.201750556279979 L2.667471609875477 4.198856675279988 L2.609904064875522 4.171106431279956 L2.592695812875533 4.169685329279961 L2.5766244428754845 4.174207017279986 L2.563395275875493 4.183095364279911 L2.5153361938754273 4.2234546572799765 L2.5072746698755424 4.233273179279951 L2.500143322875502 4.246683213279983 L2.4929086228755324 4.274846869280029 L2.4912032998754654 4.277508206279965 L2.49306365087547 4.2833218042799395 L2.5006084098754258 4.299393174280002 L2.502417085875507 4.301899481279992 L2.493787121875485 4.354506089279983 L2.49631926687546 4.360810614279902 L2.50195199787548 4.363239406279963 L2.505879406875451 4.366856757279937 L2.503192232875435 4.376649440279909 L2.4981279418754667 4.381791246279992 L2.4834001588754546 4.388974269279945 L2.477715750875504 4.393340928280029 L2.4543063268754537 4.42915269627996 L2.442937512875446 4.441167467279929 L2.4173576778755006 4.456954616279919 L2.3965062378755277 4.466954006279938 L2.3910802118754617 4.483257920279971 L2.3792721478754544 4.482482774279962 L2.3562761348755004 4.468659329279905 L2.341470836875473 4.467109035279979 L2.1120891168754525 4.481481791279979 L2.112496017875472 4.481196961279981 L2.1221802628754887 4.47456447427999 L2.1253134008754984 4.461787781279956 L2.132556238875466 4.451981466279964 L2.143298426875461 4.444820008279979 L2.156970301875461 4.439815125279953 L2.156970301875461 4.433589539279982 L2.1293417208754732 4.43269435727996 L2.1094442598755023 4.428828797279952 L2.094348231875486 4.420365255279993 L2.0812867078754635 4.405716817279998 L2.074776290875505 4.395829122279967 L2.073311447875497 4.390498718279961 L2.0750611218754926 4.374629578279954 L2.0814087778754953 4.372269552279992 L2.112048426875461 4.367630880279993 L2.1221802628754887 4.364701192279998 L2.0643189348754873 4.349686544279965 L2.0315634008754984 4.346187195279985 L2.0130087128755036 4.351680359279957 L2.006783126875476 4.351680359279957 L2.004016199875494 4.3131061402799595 L1.990344324875494 4.273636739279997 L1.97105721587549 4.238724630279993 L1.95152596587549 4.213862976279987 L1.9453003798754622 4.1978717652799595 L1.944079676875461 4.197098653279969 L1.9415975798754772 4.192948263279963 L1.9357788958754583 4.19331447427999 L1.929146408875468 4.194697937279958 L1.92418221587549 4.193436544279965 L1.9172242078754635 4.184403341279964 L1.9138876198754957 4.176346700279968 L1.9156372938754913 4.168086609279957 L1.92418221587549 4.158646505279993 L1.932686447875497 4.153275411279996 L1.9494507708754583 4.145707052279992 L1.9583619028754953 4.138138692279998 L1.9783407448754957 4.110469422279952 L1.9857056528754953 4.103999695279985 L1.999214767875472 4.107010763279963 L2.0150025278754953 4.103226583279994 L2.0471070208754583 4.091019552279992 L2.045723556875501 4.082596700279968 L2.0457642468754926 4.076737325279968 L2.0471070208754583 4.069901388279963 L2.0323365128754887 4.05659572427999 L2.025500574875494 4.051875672279952 L2.016345301875461 4.050003927279992 L1.9962850798754772 4.053666036279996 L1.9883505098755023 4.051997742279983 L1.9788290258754984 4.042557638279963 L1.961739181875501 4.054764669279965 L1.956490158875468 4.060054383279979 L1.95152596587549 4.069901388279963 L1.9496949108754649 4.083329122279967 L1.9530721898754706 4.090571961279981 L1.953845301875461 4.096024435279961 L1.944079676875461 4.103999695279985 L1.93785409087549 4.104732117279983 L1.903145431875501 4.103999695279985 L1.887520431875501 4.107743185279961 L1.8785279188754913 4.1080280152799595 L1.8689657448754957 4.103999695279985 L1.8689657448754957 4.097163758279979 L1.8832886608754649 4.097163758279979 L1.8832886608754649 4.091019552279992 L1.864327072875497 4.087031922279952 L1.844795822875497 4.080155294279965 L1.8272583878754887 4.078690450279968 L1.8143189348754873 4.091019552279992 L1.8075643768754759 4.091019552279992 L1.809395431875501 4.081172547279952 L1.8205445208754583 4.056229513279963 L1.8068726458754583 4.051021179279989 L1.8036988168754675 4.040034851279987 L1.8075643768754759 4.011836609279957 L1.8021119028754953 3.996781271279989 L1.789660731875486 3.9993447472799666 L1.77574471587549 4.010737976279987 L1.76597909087549 4.0220905152799595 L1.7751343638754662 4.050492208279994 L1.7604452368754693 4.077022156279956 L1.7333456268754759 4.096553406279956 L1.7051473848755023 4.103999695279985 L1.6872437388754662 4.10066310727996 L1.6638876198754957 4.086665711279981 L1.6447632708754583 4.080440125279953 L1.643176356875486 4.073604187279958 L1.643176356875486 4.066768250279953 L1.6396363168754675 4.063675802279992 L1.6298706918754675 4.063187521279989 L1.6231161348755023 4.061641297279952 L1.6089559788754997 4.056473653279969 L1.687712292875446 4.021348131279968 L1.7049722208754616 4.002202012279955 L1.707323498875482 3.989360419279965 L1.705540661875503 3.9760537372799583 L1.7003988558754912 3.9640648052799925 L1.6926990678754947 3.9553314882799278 L1.6781521528754553 3.9498021092799327 L1.6569648158754973 3.956675076279982 L1.6466553668754926 3.9530577252799084 L1.6361908888755607 3.930216742279999 L1.6420561638754663 3.902569850279992 L1.6660340288754725 3.846087510279947 L1.6683077918754776 3.827871568279992 L1.6674809698754558 3.7907678892799233 L1.6710983198754406 3.7731203872799206 L1.6798057978755168 3.7608472352799858 L1.689831026875524 3.751571315279964 L1.6947661248754713 3.7408226172799495 L1.6882807338755157 3.724260321279946 L1.6933191858754668 3.7079305682799095 L1.7134988318755546 3.662584499279891 L1.722516369875521 3.648037583279933 L1.7049205438755308 3.641138780279963 L1.676596004875492 3.617407856279943 L1.660788871875539 3.604164292279922 L1.6546910528754921 3.6009086772799357 L1.6407125768754867 3.595637682279989 L1.6355190958754662 3.5925629342799574 L1.6274058958754694 3.580703193279934 L1.617664887875506 3.554399888279992 L1.6082339398754613 3.5471651872799335 L1.5932219358754907 3.5477853052799055 L1.5831708698754454 3.555924343280001 L1.5749026398755035 3.5661562762799868 L1.5652133098754604 3.572848374280003 L1.5555756548754545 3.573468492279975 L1.5360161248754451 3.5694894072798924 L1.5260167358755297 3.5688951272799336 L1.518239432875518 3.571504787279938 L1.5053720018755001 3.581168281279961 L1.5007986368754729 3.5834162052799776 L1.4939515098755152 3.5814783392799434 L1.4791978878754861 3.5721249052799102 L1.4735298338754745 3.5710062092799895 L1.4713430708755624 3.5705746112799837 L1.4563827428755047 3.574502021279958 L1.4108041298755012 3.596671209279979 L1.4024842248755505 3.5718665222799366 L1.3861544718754288 3.5529012722799855 L1.367731823875502 3.536545681279936 L1.3532365838754714 3.5196216492800296 L1.338586315875503 3.4824921322799476 L1.3270883098754638 3.4732162132799296 L1.3007333298755128 3.4717692732799357 L1.248591808875446 3.4778412542799835 L1.232649629875496 3.477479519279985 L1.2084659148755037 3.47223853927996 L1.2060621048754996 3.4717175972799232 L1.1910501018755184 3.4701673032799967 L1.1812315798755293 3.4737846532799814 L1.1807664918755023 3.47714362228 L1.1817483438754692 3.49693569627998 L1.1838154008754458 3.5005013692799487 L1.1927554238754823 3.5085370542800156 L1.1945382608754613 3.5112242292799642 L1.1897581908754518 3.524892645279966 L1.183350312875504 3.5263395862799634 L1.1744878058755006 3.524944322279982 L1.162524711875463 3.529931098279949 L1.1559618048754743 3.537010769279963 L1.1519539548755091 3.5439155202799846 L1.1485979128754735 3.5496973332800117 L1.1406914188755337 3.5570612252800125 L1.1298135298755625 3.5606785752798977 L1.117695405875466 3.5615570742799356 L1.1068691938755393 3.5654328072799792 L1.0999187128755494 3.5779643412799835 L1.093510835875506 3.57532884327998 L1.08555266487555 3.573003404279948 L1.0775686558754813 3.5716598172799827 L1.0710574258755088 3.5720732282799936 L1.0679310018755501 3.5756389012799623 L1.067207531875468 3.581840074279942 L1.067207531875468 3.5877570252799593 L1.0660189738755292 3.5906509062799365 L1.0587067588755446 3.58992743527995 L1.04276457887552 3.583777940279976 L1.0331786008755017 3.5832611762799367 L0.9928968218755614 3.5919686542799987 L0.9746808798755211 3.599461737279942 L0.95597401187554 3.6105463322799416 L0.9293089728754893 3.6118382422799904 L0.9381198038754945 3.597704738279962 L0.9374480108755137 3.581685044279997 L0.926621796875466 3.555433417279975 L0.9238312698754925 3.5459249532799824 L0.9258983278754584 3.531171332279971 L0.9293089728754893 3.519001532279976 L0.9300324418754968 3.50734849727991 L0.924926621875457 3.4964348062800106 L0.9238312698754925 3.494093492279905 L0.9279421508754666 3.494625489279958 L0.9282237668754902 3.4946619332799607 L0.9290393788754869 3.4939671522800246 L0.9296190308754859 3.493473374279933 L0.9299290888754541 3.4910445822799723 L0.9307042358754671 3.4878923202799292 L0.9217642128755443 3.4793398702799045 L0.9120748818755118 3.4753866232799204 L0.8680207238755457 3.472131008279934 L0.7922630738754464 3.4485665552799425 L0.7667865918755155 3.4469129092798916 L0.7413101118755065 3.4507369652800186 L0.7351864548755458 3.453036566279952 L0.7353129698754373 3.4512453732799777 L0.7356773808754866 3.446086087279955 L0.7334294548754627 3.4377403422799837 L0.7284685178755268 3.4310224062799684 L0.7212596558755564 3.4250021022799366 L0.7166087768755034 3.423348456279985 L0.6951630578754617 3.4205579282799228 L0.6794792608755102 3.4105585392800073 L0.6800477008755621 3.396476711279977 L0.6860680048755086 3.3800177672799983 L0.6868948278754345 3.363093736279911 L0.6797376418754908 3.3516990822800103 L0.6710043258755007 3.3525775822799524 L0.6606948768754961 3.3587787542799425 L0.648783458875485 3.363300442279968 L0.6049360068754623 3.360096503279994 L0.5873660198754891 3.3626286482799834 L0.5808031128755005 3.3344133162799245 L0.5657911088755299 3.304518500279986 L0.5448621548755312 3.2788353132799166 L0.520109142875512 3.2634615742799475 L0.5044770228754629 3.263151516279951 L0.49049854687545746 3.269016791279956 L0.47863880587543406 3.2757605652799846 L0.4689494748755152 3.2778534612799497 L0.4601386438754247 3.2716522892799595 L0.4568830278754348 3.2610327822799725 L0.455896251875501 3.2528589822799354 L0.45533273587550127 3.2481911882799928 L0.45156035587548615 3.2356596542799885 L0.4425944948755358 3.2209060332799773 L0.43337025187553024 3.210079820279933 L0.40799712287552836 3.1913471132799494 L0.40350127387553414 3.182381252279999 L0.399522187875462 3.1517371272798904 L0.39314014887550286 3.1393606222800123 L0.37714629287548007 3.1315833192800007 L0.34303984787548814 3.1277075872799607 L0.3316451948754917 3.118173285279969 L0.3355726038754625 3.1083289242799914 L0.3364511028755004 3.098148667280018 L0.3342806918755201 3.0882009542799302 L0.32929391687555665 3.079028388280026 L0.323557832875494 3.0715094672799843 L0.318648571875471 3.0670652932799705 L0.31278329687548023 3.065980088279975 L0.30394662687548646 3.0683572042799376 L0.2960142948755191 3.0762895372799797 L0.28162240787550274 3.1033163112799294 L0.27213978287544194 3.111739569279923 L0.22596689087548327 3.098355374279979 L0.2005937618754814 3.080888739280031 L0.14958912287544024 3.0702950712799613 L0.118557425875494 3.0559806982799707 L0.07991843787549158 3.0499595182799517 L0.06450387787542411 3.047557440279977 Z M1.8109823458754732 4.17292873227996 L1.8141561738754746 4.180171570279985 L1.8122437388754662 4.195715190280001 L1.8017863828755054 4.21011948728 L1.7795695858755067 4.213862976279987 L1.7675660048754622 4.21207261228 L1.7633749238754746 4.210282247279967 L1.7590617728754552 4.207027039279982 L1.7590617728754552 4.200842143280003 L1.76597909087549 4.200842143280003 L1.7621542208754732 4.195552429279989 L1.7560913958754583 4.184484721279947 L1.75230721587549 4.179154317279998 L1.7685018768754759 4.173905294279965 L1.7812785698754539 4.172196310279961 L1.8109823458754732 4.17292873227996 Z M1.8038208878754887 4.094152690280001 L1.8137085828754635 4.097000997279967 L1.8406861218754926 4.091304383279979 L1.8553345598754873 4.091019552279992 L1.8553345598754873 4.097163758279979 L1.838000574875494 4.105057638279963 L1.8498413958754583 4.14448634927999 L1.8348267468754926 4.158646505279993 L1.7885620988754596 4.143875997279967 L1.767118413875508 4.131343445279985 L1.769641199875494 4.113968771279989 L1.782662033875468 4.095292013279963 L1.7916952368754693 4.089554708279994 L1.8038208878754887 4.094152690280001 Z M2.5473918508754565 1.3357705282799692 L2.5535767468754926 1.3420368042799886 L2.544950444875454 1.35847560727996 L2.5473918508754565 1.3698688362799807 L2.5285523328754635 1.3692177942799653 L2.5129273328754635 1.3728799032799692 L2.4859497938754913 1.3835407112799807 L2.4624042178754877 1.3966474102799715 L2.4471894978754705 1.3852460082799816 L2.428720028875503 1.3790759802799961 L2.4373895538754624 1.3675688612799526 L2.4818735238755067 1.346526902279951 L2.5077596898754706 1.34097886228 L2.522204676875461 1.3388629762799873 L2.5355917208754732 1.3352008672799833 L2.5473918508754565 1.3357705282799692 Z M2.819582506875477 1.1780061422799726 L2.826791839875469 1.1537369722799475 L2.855677920875465 1.1305948432799973 L2.895443144875472 1.1068544502799718 L2.9261249258754702 1.094126373279952 L2.985734296875492 1.0664899532799872 L3.0506805018755045 1.0457025552799486 L3.093999232875504 1.0335871512799635 L3.1240773598754714 1.0301319262799815 L3.1637732508754794 1.032453216279979 L3.1950478618754943 1.034199915280002 L3.24437384687549 1.0348101012799624 L3.223915760875471 1.0405641712799856 L3.202254656875496 1.0509341992799968 L3.183012551875507 1.0451541682799679 L3.1529388898755 1.0520631922799488 L3.131783126875476 1.0477659712799472 L3.114001551875461 1.050532898279986 L3.107206303875458 1.0537067262799873 L3.0934530488754746 1.0625771692799653 L3.0872681528754953 1.0651813362799807 L3.0783570208754583 1.06550685727996 L3.063918838875466 1.0687808782799983 L3.045871158875471 1.0814776432799853 L3.00916498687549 1.0988036972799513 L2.9730534548754832 1.1115238712799886 L2.935102949875457 1.1375474242799477 L2.900859179875468 1.1478228602799767 L2.8779720398755018 1.1501825102799934 L2.8623254498754847 1.164644791279958 L2.8454747658754656 1.1802682442799473 L2.825620542875484 1.193586133279954 L2.819582506875477 1.1780061422799726 Z M3.514652043875472 1.0009923332799566 L3.5305548958754827 0.9742906482799789 L3.5419800668754675 0.9602008672799833 L3.5749935188755018 0.9458176252799753 L3.5939965008754626 0.9525375562799958 L3.6091747318754557 0.9647264102799831 L3.6040636138754536 0.9768722342799983 L3.5818705878754855 0.9792563212799941 L3.5767578698754647 0.9938301572799482 L3.5634042368754564 1.010814285279995 L3.543762165875492 1.0119882642799816 L3.530425191875466 1.0265391702799924 L3.479056506875466 1.0598456002799743 L3.4752774748754547 1.050727371279951 L3.48544560887548 1.0331325442799688 L3.499433450875486 1.0082530142799477 L3.514652043875472 1.0009923332799566 Z M5.484973231875486 0.04438869227999831 L5.49254159087549 0.045161804279988615 L5.499987879875462 0.04670802827996923 L5.507190027875495 0.04898667427994852 L5.513781824875494 0.05191636228000007 L5.504178960875507 0.05395086727998333 L5.495796798875475 0.053625346279947195 L5.4892456918754675 0.050492208279994344 L5.484973231875486 0.04438869227999831 Z" fill="black" stroke="black" stroke-width="0.5" vector-effect="non-scaling-stroke"/></svg>