<svg xmlns="http://www.w3.org/2000/svg" viewBox="0 0 0.5752441408801019 0.39461416158001583"><path d="M0.39813639344001217 0.012001905290038195 L0.4030192064400069 0.011635694290010434 L0.395532227440043 0.02075027829004128 L0.3904866544400818 0.026365512290045245 L0.38316243544008444 0.03332352029001484 L0.3782796224400897 0.03332352029001484 L0.3776285814400069 0.044106397290011756 L0.38625488344004566 0.041787062290030264 L0.3869873054401012 0.03796219229001352 L0.3987060554401012 0.034869744290052296 L0.4026123054401012 0.030882114290012197 L0.4103434244400148 0.017617140290031585 L0.4142496744400148 0.01684402829004128 L0.4173421224400897 0.019977166290050974 L0.422875977440043 0.01684402829004128 L0.4259684244400148 0.019977166290050974 L0.42157389344001217 0.028359327290036873 L0.4275146484399954 0.027016554290003825 L0.43394368544008444 0.032550408290024535 L0.4334554044400818 0.039345655290038195 L0.4383382164400871 0.04223465329004128 L0.446313477440043 0.03796219229001352 L0.4481038414400871 0.041787062290030264 L0.4481038414400871 0.04809402829004128 L0.4459879564400069 0.05615066829004789 L0.45347493544008444 0.05663895029003996 L0.45754394544005095 0.06262039529001484 L0.4668212894400483 0.0668114762900025 L0.4948974614401038 0.059039666290050974 L0.5010823574400263 0.05586583829004965 L0.5034423834400457 0.06139969229001352 L0.4846435554401012 0.07543777829004128 L0.47373860744002627 0.08479650229002189 L0.461938477440043 0.0895572442900523 L0.44875488344004566 0.09492833829004965 L0.43703613344004566 0.10278152829004128 L0.4323974614401038 0.10973953629001088 L0.4220621744400148 0.11604650229002189 L0.4142496744400148 0.11604650229002189 L0.39951985744002627 0.09802078629001088 L0.3854410814400069 0.10046219229001352 L0.3800699874400095 0.09724767429002057 L0.3776285814400069 0.10200841629005097 L0.37925618544008444 0.11051264729001176 L0.38389485744002627 0.11283198329003952 L0.3854410814400069 0.11987137129004921 L0.3782796224400897 0.11832514729001176 L0.3776285814400069 0.11372716629005097 L0.3705485034400624 0.10973953629001088 L0.35891113344004566 0.11128575929000206 L0.35500488344004566 0.11604650229002189 L0.3357991544400818 0.11974930129001748 L0.34483235744002627 0.12459142429002057 L0.35581868544008444 0.1316715022900219 L0.3685139974400897 0.13964676229004525 L0.3800699874400095 0.1472151212900492 L0.3782796224400897 0.15506831229003026 L0.38316243544008444 0.1589338712900492 L0.3776285814400069 0.16914708829004965 L0.38389485744002627 0.1674787932900479 L0.39170735744002627 0.15278966629005097 L0.4025309244400148 0.1430647312900426 L0.4065185554401012 0.1324446142900122 L0.4121337894400483 0.13228185328999942 L0.4197835294400818 0.13708328629001088 L0.43548990944006505 0.13708328629001088 L0.4376871744400148 0.1422916192900523 L0.43548990944006505 0.1518537932900479 L0.4408610034400624 0.15816075929000206 L0.4447672534400624 0.14798823329003952 L0.4572998054401012 0.14180333829004965 L0.4447672534400624 0.12381831229003026 L0.4572998054401012 0.11450027829004128 L0.4699137374400095 0.11128575929000206 L0.46909993544008444 0.10278152829004128 L0.4920491544400818 0.0877668792900188 L0.4933512374400095 0.09260900229002189 L0.499047852440043 0.09370763429000206 L0.4933512374400095 0.10355464029003159 L0.5040120444400316 0.10607742629001748 L0.506372070440051 0.12145828629001088 L0.5010823574400263 0.12780594229001352 L0.5057210294400818 0.1362287932900479 L0.5110921224400897 0.13012527829004128 L0.5158935554401012 0.14489578629001088 L0.5206136074400263 0.14412267429002057 L0.5198811854400844 0.1268293792900188 L0.5281819664400871 0.10664708829004965 L0.536157227440043 0.11283198329003952 L0.535668945440051 0.12153966629005097 L0.5385172534400624 0.12780594229001352 L0.5540608724400897 0.12857905429000382 L0.5680582684400122 0.1316715022900219 L0.5656982424401065 0.1394026212900492 L0.5696044924401065 0.15506831229003026 L0.557641602440043 0.1499006682900479 L0.5500732424401065 0.14876134529002982 L0.5385172534400624 0.16983881929001043 L0.5433186854400844 0.1672753432900329 L0.553247070440051 0.18045893729003026 L0.5580485034400624 0.20186193129000074 L0.5548746744400148 0.20259435328999942 L0.5540608724400897 0.19763016129001088 L0.5447021484399954 0.19718256929001043 L0.5477945964400703 0.2057274912900091 L0.5438883464400703 0.2143537932900479 L0.5385172534400624 0.21899246529004657 L0.5291585294400818 0.22204422329001616 L0.525903320440051 0.23539057729003687 L0.5206136074400263 0.22835118929002718 L0.5206136074400263 0.2159000172900285 L0.510278320440051 0.22204422329001616 L0.5073486334400457 0.2151269052900382 L0.5010823574400263 0.20804682729003687 L0.5026285814400069 0.19250320729002013 L0.4887125654400677 0.18705073329003952 L0.4869222014400236 0.17842443129000074 L0.4783772794400818 0.18403966629005097 L0.4683675134400289 0.18623693129000074 L0.4542887374400095 0.1768375172900285 L0.446313477440043 0.1768375172900285 L0.43703613344004566 0.18937006929001043 L0.4416748054401012 0.2041812672900285 L0.4481038414400871 0.21280756929001043 L0.4447672534400624 0.21976557729003687 L0.43548990944006505 0.21203445729002013 L0.43467610744002627 0.20186193129000074 L0.42670084644007034 0.2057274912900091 L0.4238525394400483 0.21191238729004525 L0.43410644544005095 0.22147456229003026 L0.4408610034400624 0.24710932729003687 L0.4454996744400148 0.24861486129002586 L0.4595784514400236 0.2512597182900329 L0.4603922534400624 0.2626529472900536 L0.4642985034400624 0.2626529472900536 L0.47219238344004566 0.26110672329001616 L0.4799235034400624 0.27050613729004525 L0.4739827474400897 0.2770572442900523 L0.4660074874400095 0.2821841972900536 L0.4588460294400818 0.27986486129002586 L0.4572998054401012 0.28063797329001616 L0.458032227440043 0.28613113729004525 L0.4578694664400871 0.2939029472900536 L0.4683675134400289 0.2907698092900439 L0.4714599614401038 0.29862299929003555 L0.4714599614401038 0.30566238729004525 L0.4650309244400148 0.3095279472900536 L0.4572998054401012 0.3032209812900426 L0.4466389974400897 0.2973616062900426 L0.4481038414400871 0.28845047329001616 L0.4416748054401012 0.27205236129002586 L0.43312988344004566 0.26586746529004657 L0.43394368544008444 0.25801427529005494 L0.43467610744002627 0.2518293792900188 L0.4238525394400483 0.24548172329001616 L0.4197835294400818 0.2626529472900536 L0.4213297534400624 0.27205236129002586 L0.407250977440043 0.28613113729004525 L0.39642740944006505 0.27595861129002586 L0.3800699874400095 0.2572411632900078 L0.38316243544008444 0.2666405772900369 L0.38080240944006505 0.2666405772900369 L0.36379394544005095 0.24955073329003952 L0.3548421224400897 0.2590722182900329 L0.35972493544008444 0.26586746529004657 L0.35972493544008444 0.26891922329001616 L0.3519938154400677 0.26586746529004657 L0.34995931044008444 0.27339513429000206 L0.34483235744002627 0.27673172329001616 L0.34019368544008444 0.27909174929003555 L0.3355550134400289 0.27363927529005494 L0.3365315764400236 0.2623274262900175 L0.3340087894400483 0.2572411632900078 L0.3331949874400095 0.2526024912900091 L0.32782389344001217 0.2526024912900091 L0.32782389344001217 0.24556310328999942 L0.3204996744400148 0.23929682729003687 L0.3065022794400818 0.23180984829001616 L0.29266764344001217 0.22558426229004525 L0.2918538414400871 0.23067052529005494 L0.2816813154400677 0.2151269052900382 L0.2793212894400483 0.20186193129000074 L0.27313639344001217 0.19795568129000074 L0.2658121744400148 0.2047916192900523 L0.24742024744008972 0.20186193129000074 L0.24660644544005095 0.2049543792900188 L0.2387125654400677 0.2049543792900188 L0.23553873744000953 0.20881993929002718 L0.22626139344001217 0.20650060328999942 L0.21853027343999543 0.20881993929002718 L0.20819498744000953 0.21280756929001043 L0.18882649744008972 0.2174462412900091 L0.18329264344001217 0.2143537932900479 L0.18329264344001217 0.20881993929002718 L0.16693522144007034 0.20881993929002718 L0.1601806644400483 0.20373367629001748 L0.15098470144002363 0.2010481292900188 L0.14504394544005095 0.18859695729002013 L0.14121907644002363 0.18782384529002982 L0.13894043044010118 0.1807437672900285 L0.1326741544400818 0.1871321142900122 L0.14292806044008444 0.19575841629005097 L0.12323404944001481 0.19795568129000074 L0.11314290444008179 0.2057274912900091 L0.09898274744008972 0.1987287932900479 L0.09426269544005095 0.1987287932900479 L0.08270670644000688 0.1916894052900382 L0.08661295644000688 0.1799706552900382 L0.07888183644010383 0.16914708829004965 L0.06529134144008708 0.15905594229001352 L0.07774251344002892 0.14920893729003026 L0.09898274744008972 0.14798823329003952 L0.10931803444006505 0.1410302262900025 L0.12242024744008972 0.11832514729001176 L0.14585774744008972 0.10896642429002057 L0.16693522144007034 0.07926264729001176 L0.17320149744008972 0.07926264729001176 L0.18101399744008972 0.08170405429000382 L0.18003743544008444 0.0877668792900188 L0.17946777343999543 0.09492833829004965 L0.18329264344001217 0.09260900229002189 L0.19509277343999543 0.0895572442900523 L0.19818522144007034 0.0895572442900523 L0.19973144544005095 0.0855696142900122 L0.19891764344001217 0.08015783029002321 L0.19891764344001217 0.07230464029003159 L0.21055501344002892 0.0668114762900025 L0.22626139344001217 0.06294591629005097 L0.23008626344002892 0.059039666290050974 L0.23407389344001217 0.05195958829004965 L0.24180501344002892 0.04964025229002189 L0.24660644544005095 0.04809402829004128 L0.25360514344001217 0.04487950929000206 L0.2506754564400069 0.038450473290058795 L0.25977255044008984 0.03342687929006516 L0.27672241944000575 0.03342687929006516 L0.28230347443999904 0.039007934290086865 L0.2854040604401291 0.040248168290023756 L0.29718628644005207 0.029706175290048265 L0.3064880444401581 0.02846594129002611 L0.3170300374400483 0.029706175290048265 L0.3221976814401444 0.01596024429003151 L0.33025920444001144 0.0072786042900681025 L0.34152547344015716 0.003868766290000991 L0.3513431884400404 0.011619424290049807 L0.3681897054400167 0.011619424290049807 L0.38902181044008444 0.012693637290002613 L0.39813639344001217 0.012001905290038195 Z M0.305688477440043 0.3890364112900109 L0.2791585294400818 0.39074539529001484 L0.2824137374400095 0.3820784032900413 L0.2824137374400095 0.35168289529001484 L0.27256673244002627 0.3518456552900382 L0.27468261744010647 0.3454166192900523 L0.2750081384400289 0.33202957529003996 L0.28159993544008444 0.3344709812900426 L0.2857503264400236 0.34594559029004657 L0.29405110744002627 0.3543684422900135 L0.30113118544008444 0.35168289529001484 L0.30113118544008444 0.357867791290051 L0.29405110744002627 0.3625878432900329 L0.3065022794400818 0.361774041290051 L0.3179768884400289 0.361774041290051 L0.3229410814400069 0.3642154472900536 L0.3113850914400871 0.3717024262900175 L0.3073974614401038 0.3767073092900439 L0.3136637374400095 0.389117791290051 L0.305688477440043 0.3890364112900109 Z M0.38389485744002627 0.2821841972900536 L0.3900797534400624 0.28845047329001616 L0.39642740944006505 0.28690424929003555 L0.4041585294400818 0.2899966972900536 L0.4119710294400818 0.3032209812900426 L0.4197835294400818 0.30875483529000647 L0.4197835294400818 0.31892736129002586 L0.41359863344004566 0.3259260592900439 L0.4173421224400897 0.33528478329002454 L0.4220621744400148 0.3438297052900232 L0.4173421224400897 0.3454166192900523 L0.4244222014400236 0.3642154472900536 L0.4119710294400818 0.36653478329002454 L0.4087972014400236 0.3625878432900329 L0.4010660814400069 0.3563215672900135 L0.4009847014400236 0.34582352029001484 L0.3978108724400897 0.33422684029004657 L0.39097493544008444 0.3289778172900135 L0.38511556044008444 0.3334944182900479 L0.39097493544008444 0.33528478329002454 L0.39097493544008444 0.3430565932900329 L0.3869873054401012 0.3438297052900232 L0.3800699874400095 0.35168289529001484 L0.3869873054401012 0.3618147312900426 L0.38389485744002627 0.3688541192900523 L0.38780110744002627 0.3759341972900536 L0.376000977440043 0.37825353329002454 L0.3743733724400897 0.3625878432900329 L0.3776285814400069 0.36026850729000515 L0.3748616544400818 0.35542638429000206 L0.36436360744002627 0.36026850729000515 L0.35972493544008444 0.357867791290051 L0.36436360744002627 0.3524966972900536 L0.35736490944006505 0.3485904472900536 L0.3620035814400069 0.3422834812900426 L0.35972493544008444 0.33683100729000515 L0.3510172534400624 0.33528478329002454 L0.3521565764400236 0.3267805512900175 L0.3394612634400289 0.33451167129003423 L0.3355550134400289 0.33996414529001484 L0.3331949874400095 0.33996414529001484 L0.3309163414400871 0.33451167129003423 L0.3292887374400095 0.3274315932900329 L0.3204996744400148 0.32279292129003423 L0.3043050134400289 0.32206049929003555 L0.29738769544005095 0.31892736129002586 L0.29331868544008444 0.31107417129003423 L0.2918538414400871 0.30643549929003555 L0.2871337894400483 0.29862299929003555 L0.2808675134400289 0.2963036632900078 L0.2816813154400677 0.2899966972900536 L0.2839599614401038 0.28845047329001616 L0.28876139344001217 0.28613113729004525 L0.29738769544005095 0.2821841972900536 L0.3073974614401038 0.27909174929003555 L0.3182210294400818 0.2821841972900536 L0.3253824874400095 0.28613113729004525 L0.3340087894400483 0.28845047329001616 L0.34719238344004566 0.28845047329001616 L0.356469727440043 0.28063797329001616 L0.3650960294400818 0.27595861129002586 L0.37469889344001217 0.2795800302900382 L0.38389485744002627 0.2821841972900536 Z M0.014754232440026271 0.3707258642900122 L0.007511393440012171 0.3629133642900122 L0.006209310440084437 0.34985184029004657 L0.005639648439995426 0.33919103329002454 L0.007511393440012171 0.3336164892900122 L0.01752115944006505 0.3336164892900122 L0.01752115944006505 0.3236881032899994 L0.02508951844001217 0.3218163582900395 L0.02508951844001217 0.31555008229002013 L0.018904622440089724 0.31107417129003423 L0.019392904440081793 0.31070796029000647 L0.02818196644008708 0.3043603042900038 L0.03526204444003156 0.29882645029003996 L0.035913086440103825 0.29707677529005494 L0.045109049440014815 0.2955305512900175 L0.05227050844004566 0.28845047329001616 L0.06081543044010118 0.2751041192900523 L0.07961425844004566 0.2751041192900523 L0.08978678444006505 0.27595861129002586 L0.09670410244004302 0.2829573092900439 L0.10695800844004566 0.27909174929003555 L0.13023274744008972 0.2666405772900369 L0.14504394544005095 0.26973302529005494 L0.15204264344001217 0.25878738729004525 L0.16075032644002363 0.2572411632900078 L0.1678304044400818 0.24556310328999942 L0.18565266944003156 0.2322981292900188 L0.18882649744008972 0.23929682729003687 L0.21210123744000953 0.22204422329001616 L0.21763509144008708 0.22558426229004525 L0.22316894544005095 0.23148432729003687 L0.22007649744008972 0.23929682729003687 L0.21853027343999543 0.24788243929002718 L0.21446126344002892 0.24466792129003423 L0.20664876344002892 0.2432437672900285 L0.19973144544005095 0.2432437672900285 L0.19794108144000688 0.2588280772900369 L0.18101399744008972 0.2564680512900175 L0.18101399744008972 0.26973302529005494 L0.19045410244004302 0.2659081552900382 L0.18589681044008444 0.2787662282899994 L0.18719889344001217 0.3032209812900426 L0.17246907644002363 0.3032209812900426 L0.16368001344002892 0.3000471532900413 L0.17556152343999543 0.3157128432900329 L0.16075032644002363 0.326617791290051 L0.18329264344001217 0.34073725729000515 L0.16848144544005095 0.35168289529001484 L0.1502522794400818 0.35957677529005494 L0.14895019544005095 0.3524966972900536 L0.14895019544005095 0.3305647312900426 L0.13739420644000688 0.3305647312900426 L0.12787272144007034 0.3305647312900426 L0.11395670644000688 0.3305647312900426 L0.09670410244004302 0.3438297052900232 L0.08978678444006505 0.3438297052900232 L0.08661295644000688 0.3485904472900536 L0.09670410244004302 0.35090978329002454 L0.09670410244004302 0.3570539892900122 L0.08742675844004566 0.3627912932900479 L0.07456868544008444 0.36380854629003423 L0.06236165444008179 0.3524966972900536 L0.06081543044010118 0.3454166192900523 L0.05227050844004566 0.34781733529000647 L0.042016602440043016 0.3547346532900413 L0.02744954444003156 0.36641271329004965 L0.014754232440026271 0.3707258642900122 Z" fill="black" stroke="black" stroke-width="0.5" vector-effect="non-scaling-stroke"/></svg>