<svg xmlns="http://www.w3.org/2000/svg" viewBox="0 0 6.919236573359932 2.884447192080046"><path d="M6.851400920679932 0.6507731970399391 L6.834967814679967 0.6636923060400477 L6.809853067679963 0.6950599000399791 L6.793523315680002 0.7051884800400217 L6.753422403679931 0.7152137090400288 L6.737402709679966 0.7227584670399949 L6.726654011679951 0.7362718540399555 L6.727067424679969 0.7448243040399802 L6.732131714679948 0.7512838580400398 L6.734095418679967 0.7585960730400245 L6.725620483679958 0.7698356980399979 L6.719626017679925 0.7725228720400139 L6.698025268679967 0.7740214890400239 L6.67766475468002 0.7803260130399394 L6.665469115679937 0.7868114050399981 L6.640767781680008 0.8087222130400562 L6.611518921679956 0.8259563030400159 L6.575035359679955 0.8365758090400277 L6.536794800679953 0.8402965120400268 L6.502274943679989 0.8364724570400028 L6.428170939680026 0.810117476040034 L6.39747513867999 0.8149492220400418 L6.381145386679972 0.8544300170400732 L6.369673217679942 0.861819747040073 L6.3564440516799685 0.8654887730399707 L6.342078002679951 0.8663414350399989 L6.2958792726799935 0.8616388790400151 L6.283166869679942 0.8624657020400548 L6.265390177680015 0.8668065230400259 L6.2468900146799875 0.8737570020400085 L6.23552119967999 0.8816634960399767 L6.21361039267995 0.9040393920400334 L6.20596228067998 0.9092587110399677 L6.189012410679961 0.917578618040011 L6.1816743566799595 0.9237797890399975 L6.17795365367996 0.9312211950399387 L6.174543009679947 0.9495663290400103 L6.171442423679988 0.9581962930400607 L6.146637735679942 0.9821224810399656 L6.143640503679929 0.9887370640400661 L6.142917032679943 0.996126794040066 L6.141408385679991 1.002649477039995 L6.141160034679952 1.0037232300400376 L6.135889037680013 1.0112679890399932 L6.127977708679932 1.01529914404 L6.122349812679939 1.018166793039967 L6.073360554679933 1.0265642120399434 L6.011245483679968 1.0581901900400226 L5.981686563680025 1.0801009970399775 L5.962669637679962 1.1045697870400204 L5.965253458679964 1.1357048380399988 L5.9740384526799595 1.1703280480400053 L5.975382039679911 1.2036851850399728 L5.955331584679978 1.2314095900399877 L5.910786499679968 1.2403496130400242 L5.892803100679966 1.2478426960400668 L5.874612996679954 1.2617694950400278 L5.835959025679951 1.3000875690400449 L5.829861205679972 1.3117664430400282 L5.81838903867995 1.3475782110399734 L5.8131180426799425 1.356673262040033 L5.801542521679973 1.3715043980400594 L5.7974084076799635 1.382588993039974 L5.797098347679988 1.3941903520400274 L5.799475463680007 1.403233728039993 L5.7997855226799935 1.4124579710399985 L5.793687703679947 1.4247828000400204 L5.78531612167998 1.43281848604002 L5.763198608679968 1.447210371040029 L5.753690144679975 1.4567705120400376 L5.749245972679969 1.4658397260400022 L5.7442850336800255 1.4834872270400012 L5.7375670986799 1.492298058039978 L5.717309936679893 1.5059147990399708 L5.668010620680004 1.5283423710399688 L5.64568640168002 1.542785933039994 L5.6066190186799325 1.5748253210400094 L5.6080699126799765 1.5780898330400248 L5.610443074679974 1.5834294470400323 L5.619021362679998 1.5862716510400219 L5.628633179680005 1.58756356204006 L5.635557820679988 1.5914392940400148 L5.644549520679927 1.6031181680399982 L5.645169636679892 1.6041516970400664 L5.641345581679953 1.6051335490400334 L5.622328653679997 1.654536218039965 L5.613853718679987 1.6618225950400358 L5.568171752679969 1.687505782040006 L5.563727580679963 1.6886426640400316 L5.562487345679923 1.6913298380399624 L5.560937052679915 1.7031120650400453 L5.561867228679969 1.7153077030399686 L5.565277872679982 1.725978885040064 L5.565587931679968 1.7368050980400085 L5.557216349679916 1.749569177039973 L5.546881063679987 1.7557445110399783 L5.510397502679975 1.762488285040007 L5.489520222679996 1.7759241570400377 L5.476704468680023 1.792202233040058 L5.455310425679922 1.8325356890400144 L5.450866251679994 1.8372899210400249 L5.447455606679963 1.8426384310399726 L5.445181843679958 1.848477869040039 L5.444251668679922 1.8544981730399854 L5.446422078679998 1.8573145380400433 L5.449005900679989 1.8596658160400068 L5.452003133679906 1.8615778440400277 L5.478978230679953 1.874264408039977 L5.475567586679912 1.8940048050400264 L5.457377482679984 1.9126599980399988 L5.43732702667992 1.9204631390400095 L5.410041869679926 1.923770431040026 L5.399293171679997 1.9355009810400077 L5.397339288679969 1.9392808150400072 L5.390611531679948 1.952295821039968 L5.369837605679887 1.97115771803999 L5.3482368576800035 1.9790642130400329 L5.311443237679921 1.9771005090400138 L5.290049194679906 1.9808728880400395 L5.274752970679966 1.993585290039988 L5.269068562680015 2.012473026040027 L5.265141153679931 2.0507911010400335 L5.252738810679968 2.069110396040003 L5.235478882679981 2.0841740770399895 L5.22142289267995 2.1000387410400094 L5.218942423679888 2.1206317990400123 L5.24819128467993 2.1591565790399727 L5.254495808679959 2.1811190630399437 L5.231344767679953 2.193340539040065 L5.188970092679934 2.1946066120399905 L5.169436401680027 2.199412520039999 L5.152589884679966 2.2130550980400017 L5.142461303679905 2.2347591990400133 L5.1383271896799805 2.2792526080399966 L5.129748901679957 2.29857959403995 L5.118276733679945 2.313772464039971 L5.108664916679938 2.3189917840400085 L5.079416056679971 2.318836755040053 L5.073008178679938 2.3211621950399888 L5.025259155679972 2.361418135040026 L5.00727575667997 2.366172367040008 L4.987742065679978 2.3544418170400263 L4.9808174236799765 2.3486540570399654 L4.9729626066799675 2.3459152060400186 L4.964384318679915 2.3459152060400186 L4.955289265679962 2.3486540570399654 L4.935548869679987 2.3491708210399906 L4.898238484679947 2.337957036039967 L4.880358439679977 2.335321537040045 L4.873537149679944 2.3368201540400264 L4.858861043679948 2.3425045610399877 L4.848939168679944 2.343124679040045 L4.8407742916799315 2.3403858270400235 L4.822790893679947 2.329740482040023 L4.813489136679916 2.3264331900400066 L4.793438680679966 2.3258130740399565 L4.7724580496799796 2.3298955120400535 L4.761169707679979 2.334121404040019 L4.752304240679987 2.337440271040009 L4.71313350467997 2.36002287104003 L4.708792684679988 2.3656039260399666 L4.709309448679928 2.37500903704003 L4.718611206679949 2.397229903039971 L4.7185078536799345 2.405239750040039 L4.710446329680021 2.410820805040032 L4.700937866679933 2.409787276039964 L4.691636108679912 2.407513513040044 L4.6840913496799566 2.409425541040065 L4.679130411680003 2.416866947040006 L4.678167930679958 2.4289854680400254 L4.677993530679995 2.431181319039979 L4.672619181679945 2.4410515180399557 L4.657322957679977 2.452833744039964 L4.6377892666799845 2.459758386039965 L4.581358601679963 2.468026615040003 L4.573917195680021 2.4678715860400473 L4.561824910680027 2.464667647039988 L4.551903035679938 2.459965092039994 L4.522757527679939 2.4413615760400376 L4.483173380679968 2.4298377320400277 L4.442348999679975 2.4233781780400534 L4.417957723679958 2.45061165804006 L4.257037312679923 2.453712244039991 L4.216626343679959 2.489420658040018 L4.16226273567997 2.4571228880400326 L4.14427933867989 2.4520069220400273 L4.119164591679972 2.460430180040021 L4.111826538679988 2.4610502970400034 L4.104178425679915 2.458156416039998 L4.093946492679915 2.448286218040039 L4.088572143679951 2.4452889850400084 L4.0722423916800174 2.4425501340399762 L4.062423869679943 2.4433769570399875 L4.03720577068 2.4522136270400097 L4.00878373167998 2.454539066040013 L3.966925821680004 2.4381059610400655 L3.902950398680016 2.4339718460400377 L3.8627461346800054 2.4401213420400154 L3.8474492466799823 2.444519398040029 L3.76425085467994 2.468440026040014 L3.746784220679981 2.4659595580400264 L3.685689052679944 2.438801918039985 L3.6638952226799653 2.429114262040031 L3.6431212976799223 2.4244117070400364 L3.6216239016799783 2.423636560039938 L3.5635395916799233 2.4315430540399916 L3.5422489016799226 2.4310779660399646 L3.5237487386799806 2.4333517290399698 L3.4990474036799775 2.4411031940399823 L3.4757930096799576 2.451903569040013 L3.461323608679944 2.4632723830399925 L3.463080607679924 2.471488936040032 L3.470522013679922 2.4806356640400224 L3.4731058356799416 2.4889038940399644 L3.4467508546799728 2.4988257680400636 L3.439722859679957 2.5055437050399973 L3.4346585696799785 2.5130367880400115 L3.4275272216799486 2.519961429039995 L3.4106807046799723 2.5295215700400036 L3.402102417680023 2.532002038039991 L3.3910436606800225 2.5331905960399865 L3.378537964679932 2.5372730340399983 L3.3703730876800044 2.545954676039969 L3.3629316816800063 2.5559799030399972 L3.352699747680017 2.5638347200400347 L3.3359565836799696 2.567865483040009 L3.2989562586800183 2.5680205110399754 L3.2807661536799593 2.5708627150399366 L3.2721149416799413 2.575388994039997 L3.2607156986799417 2.5813530310399813 L3.2532742926800005 2.5937036980400308 L3.2486234136799474 2.605899336039954 L3.2372545976799607 2.6160795940400305 L3.2094526776799874 2.6198002970400296 L3.1218094486799792 2.6134440960400127 L3.099588582679953 2.604400720040047 L3.099588582679953 2.6042456910400062 L3.084809122679925 2.584556970039955 L3.062278198679902 2.578665857039965 L3.0392305096799497 2.585487146040009 L3.0235208746799707 2.604400720040047 L3.0223839926799734 2.6340629920400147 L3.0047106536799753 2.637473637040017 L2.9793892016799894 2.6349414910400526 L2.955618042680012 2.646723718039965 L2.9525174556799776 2.650341068040035 L2.9514839276800124 2.654010095040036 L2.9526208086799066 2.657730798040035 L2.9602689216799796 2.6662574090400426 L2.962542684680013 2.6704948770399994 L2.9613024506799626 2.673698815040069 L2.955618042680012 2.675662520040021 L2.936497762679945 2.669564701040059 L2.875106160679959 2.6663090860400587 L2.8603267016799485 2.6670842320399686 L2.850404826679945 2.6750940790400364 L2.8392427166799017 2.679434900040036 L2.8191922616799694 2.6835690140399606 L2.802139038679936 2.69178556704 L2.7962510466799095 2.691929880039936 L2.79159704667995 2.69204394903997 L2.778677937679955 2.683879073040032 L2.768652710680012 2.6944727420400056 L2.764208536679913 2.703619470039996 L2.759764363679917 2.7105957880399956 L2.7493257246799736 2.7146782270399967 L2.737130086679965 2.7135413450399994 L2.6976492926799516 2.699071944040071 L2.6481432706799772 2.6871346880400324 L2.6294364016800067 2.6899252160399953 L2.606802124679941 2.7055831740400436 L2.6030814206799526 2.7106474650400116 L2.600084187679922 2.722688073040075 L2.5973970136799913 2.728837569040053 L2.5959500736799974 2.729095951040023 L2.5811706136799977 2.740826502040022 L2.559259806679929 2.7705921260400146 L2.547270873679988 2.7808240600399756 L2.504069376679947 2.806662276040015 L2.4780244556799538 2.813483565040059 L2.4555968836799558 2.8060938350400306 L2.439267130679948 2.813793624040045 L2.4045405686800017 2.8438693070400234 L2.385523641679921 2.8543079470400414 L2.3781855876799476 2.8557032100400193 L2.371364298679989 2.8561682980400462 L2.364543009679945 2.8557032100400193 L2.35792842667993 2.8544113000399705 L2.357618367679944 2.8543079470400414 L2.3409785566800245 2.83932178104007 L2.324958862679974 2.839115075040013 L2.308732462679952 2.8455229530399606 L2.291472534679965 2.8502255090399444 L2.2743159586799173 2.8456779820400016 L2.2570560296799407 2.832603845039955 L2.2343184006799355 2.832397140040001 L2.2036225996800134 2.816274092040004 L2.1850190836799435 2.812139978039994 L2.102750203679985 2.812139978039994 L2.093965209680018 2.814103682040013 L2.076705281679917 2.8228886760400087 L2.0658532306799735 2.8257825560399965 L2.054277709679919 2.8257825560399965 L1.9491678466799804 2.8053703660399663 L1.8800347636800119 2.8053703660399663 L1.8635916746800056 2.8053703660399663 L1.8542899166799849 2.8089877160400363 L1.8495356856799923 2.81684253303996 L1.8438512776799563 2.824025558040006 L1.831862345679891 2.8257825560399965 L1.831758992679962 2.821648442040072 L1.812018595679998 2.797877283040009 L1.782976440680013 2.783097823040009 L1.661123412679924 2.756897871039996 L1.6384891356799436 2.7558643430400025 L1.6303242596799485 2.752091964039977 L1.6284697496799616 2.745398343040023 L1.627016967679932 2.740154708039938 L1.6258800866799241 2.728682540040012 L1.6207124436799312 2.7137997270399694 L1.6195755616800191 2.705686528039962 L1.612237508680007 2.696178064039998 L1.5649018956799488 2.661296472039993 L1.5281082766799692 2.6497209520399565 L1.4857336026799395 2.643571456039979 L1.4004674886799897 2.6407809290400337 L1.3919925536799802 2.6445016320400327 L1.3892020266800067 2.6478089240400493 L1.3853779706799934 2.650909509039991 L1.380003621679915 2.653855066039995 L1.3734923916799424 2.63757699004006 L1.3629503986799953 2.634424727039999 L1.3390758866799182 2.6407809290400337 L1.3191287846799717 2.641814457039999 L1.315924845679998 2.638868901040013 L1.3174751386799493 2.629980554040003 L1.3116873776799558 2.612875655039943 L1.3009386806799306 2.625484704040076 L1.290396688679973 2.6237277060400004 L1.280413587679984 2.6175977320399397 L1.2786144616799753 2.616493006040031 L1.2639383546799898 2.612875655039943 L1.2639383546799898 2.6060543660399844 L1.2707596446799378 2.604865808039989 L1.283161987680014 2.6008867230399915 L1.2906033936799268 2.5998531940400085 L1.2816116946799774 2.5911198770399437 L1.265281941679941 2.589569584040021 L1.2496756596799194 2.585487146040009 L1.2427510176799466 2.5687956580399884 L1.240373901679984 2.5587187540400294 L1.2278682046799894 2.526679366040014 L1.2223905026798967 2.517274255040064 L1.1823929446799433 2.480945724039998 L1.1711274826799603 2.4763465210399715 L1.0899954836799246 2.4743828170400093 L1.0750093176799531 2.469318526040041 L1.0267435306799335 2.4440487510400715 L1.0150646566799786 2.4353154330400173 L1.0101037186800248 2.424515059039976 L1.0018354906799765 2.4170219760400187 L0.9486087646800136 2.386946293039955 L0.9391003006799359 2.3780579470400482 L0.9145023196799364 2.3460185580400434 L0.8770885826799848 2.315581140039967 L0.8698538816799974 2.3112403200399854 L0.8630325926799536 2.305349206040006 L0.8531122516800131 2.285449823040011 L0.8455659586799094 2.2703125850399886 L0.8488732506799259 2.2546546260400078 L0.8392614346799938 2.2383765500399875 L0.8332110596799644 2.2327538750400038 L0.8242752686799371 2.224449752040016 L0.8114595136799458 2.2156389200400213 L0.8061885176799102 2.215587243040005 L0.8040181066799299 2.2201606080400325 L0.8013309326799991 2.223493738040048 L0.7947163496799838 2.219411299040047 L0.7903755286800127 2.2155355670399786 L0.78613806167996 2.2124866570399604 L0.781693888679964 2.210161218040014 L0.7772497156799396 2.2088176310399774 L0.7502746176799313 2.2046318400400366 L0.7431432696799867 2.20140206303995 L0.7357018636799602 2.2156389200400213 L0.7288805746800016 2.2156389200400213 L0.716684936679993 2.197888066040008 L0.6861958416800142 2.184839766039943 L0.6673856206799904 2.1678898960400375 L0.6512625736799258 2.1488212930400437 L0.6330724696799699 2.133318363040047 L0.6114717206799263 2.1230347530400593 L0.5849100346799752 2.119443242039978 L0.575918334679951 2.115464156039991 L0.5680635176799989 2.1145339800399654 L0.5618623456799376 2.117944625039968 L0.5575215256799559 2.1268588090399874 L0.5514237066799943 2.1268588090399874 L0.53809118667996 2.1175828900399836 L0.4948896896799475 2.0989793740400273 L0.48910192867995406 2.0958012740399568 L0.4746325276800256 2.0527031290400544 L0.4409394936799593 2.0328077020400315 L0.40404252167993704 1.993120202039961 L0.3683857826799475 1.9784957720399916 L0.35019567868002 1.9684188680400325 L0.34604606667994275 1.9611705210400032 L0.3422375076799504 1.95451790804006 L0.3514359136799463 1.944647709039998 L0.37045284068002715 1.9383690220399785 L0.3764074316799473 1.9344029980400137 L0.3843021236799835 1.929144779039973 L0.37882442267999394 1.9102570430400476 L0.3638382566799372 1.9033582390399602 L0.34523474167997037 1.902583093039965 L0.3400167476799787 1.9010449530399853 L0.3391834476799396 1.9007993160399792 L0.33138545668000674 1.8985006550400385 L0.33107539867992486 1.881679976039976 L0.3172261156799685 1.883333622040027 L0.30792435767994775 1.8757630250400723 L0.2993460696800092 1.8642391800400446 L0.2879772536799088 1.8541881140399994 L0.2742313236799667 1.8254301790399836 L0.2719575606799616 1.8217094760399846 L0.2732902586800172 1.8180018420399904 L0.27598832267994666 1.810495691040046 L0.2848977376799233 1.7999927220400025 L0.28870072468000885 1.7955095250399609 L0.29562536667998174 1.7842440630400063 L0.3013097746799325 1.7720484250399977 L0.3035835366799482 1.7631084020399612 L0.2991393636799522 1.7580699500399817 L0.28446325767995617 1.7575015090400257 L0.2756782636799606 1.7542975710399844 L0.2711925836800013 1.7504788410400351 L0.25604121967992555 1.7375802450400215 L0.24580928567996452 1.7335494830400364 L0.15328676967999044 1.7390434450400392 L0.10917679867992192 1.7416626830400332 L0.10404607067996707 1.7408032860399771 L0.06783565267999947 1.7347380410400604 L0.08385534667996453 1.729596236040038 L0.09667110267994516 1.7211471390399709 L0.1329479576799848 1.6871957230400199 L0.14452347867992543 1.6789791710399982 L0.16994828367995396 1.6662150920400336 L0.19082556167992593 1.660117273040072 L0.19775020367998408 1.6564482460400711 L0.20446813968001365 1.6491618690400003 L0.20498490467997144 1.6430898890400556 L0.20415808167993177 1.637534672040033 L0.20674190267993353 1.631436853039986 L0.21687048367999395 1.6254940630400654 L0.22679235867999736 1.6239954460399701 L0.23485388167997812 1.6194220820400176 L0.23919470267994924 1.604255049040006 L0.24870316567995232 1.5931962930399948 L0.2623457436799548 1.5919302200399557 L0.2996561276799774 1.5970720260399673 L0.3403771566799456 1.5936872190400209 L0.36156449467992147 1.59547005604 L0.37882442267999394 1.6043584020400203 L0.3841987706799692 1.6070972530399672 L0.3893664146799516 1.6080791050400478 L0.39422399967997634 1.607252283040026 L0.39856481967995805 1.6045134320399654 L0.39856481967995805 1.6044100790400364 L0.415204630679991 1.6022913450400722 L0.44124955267994537 1.6020846390400152 L0.4601631266799835 1.5989582150399713 L0.4557189536799875 1.5881320030400161 L0.4413529056799881 1.5790886270399653 L0.42709021068000297 1.5758330110399754 L0.39846146667994375 1.5734300580400316 L0.4109671626799205 1.5657302690400172 L0.4557189536799875 1.5533020870400378 L0.4669844156799421 1.5483669880400157 L0.4710151776799556 1.5428892860400367 L0.4675011796799957 1.5376958050400162 L0.4557189536799875 1.5336133670400045 L0.4355651456799272 1.5290141640399497 L0.42812373867999653 1.515810835040071 L0.4346349696799585 1.5012122440400049 L0.4557189536799875 1.4922722210399684 L0.47855993767998584 1.471679163039994 L0.483314167679989 1.4599744500399936 L0.4711185306799699 1.4478304890400011 L0.4546854256799939 1.446745283040002 L0.42088903868002703 1.4578040410400206 L0.4074531666799679 1.451757898039972 L0.4077632246799645 1.4462285190399768 L0.4159281016799774 1.4291752970400182 L0.41561804168000194 1.4203903040400405 L0.4089001066799618 1.413930750039981 L0.4005285236798919 1.4133881470399388 L0.39257035367992543 1.4138532340399763 L0.38657588667998866 1.4103392380400237 L0.38306188967996135 1.3938286180400326 L0.39846146667994375 1.3719178100399745 L0.3951541746799272 1.354477014040043 L0.3951541746799272 1.3543736610400003 L0.4262633866799739 1.3429273310399878 L0.4404227296800194 1.334090661039994 L0.447037312679921 1.3207064650399616 L0.4430065516799253 1.3042733600399856 L0.41262080967998926 1.260942671040027 L0.40993363467995536 1.2589531290399805 L0.40548946167993094 1.2577904090399556 L0.40094193567992065 1.2561367640400078 L0.39815140867994714 1.2523127070399767 L0.3987715246799972 1.246395756040073 L0.40311234567999676 1.2437085820400284 L0.4080732826799327 1.2419515830399632 L0.41024369368002667 1.2390060260400446 L0.4077632246799645 1.200662113040039 L0.4178918046800071 1.1880013870400035 L0.43039750267990584 1.1856759480399717 L0.44373002167992226 1.1919804720399725 L0.4557189536799875 1.2052096390399925 L0.5632059326800025 1.1718783400400241 L0.6007737916799236 1.1519628490400464 L0.6146756586799675 1.1445931840400192 L0.6106448976799719 1.1043114060400683 L0.6220137136799586 1.095965662039987 L0.6511592206799968 1.0876457560400183 L0.6618045656799687 1.0748816770399685 L0.6629414466798913 1.0594821000400714 L0.6551899826799819 1.0469505650399924 L0.6413406986800076 1.0374162630400008 L0.6243908286799318 1.0309567100400159 L0.6299718836799251 1.0115780470399613 L0.621496948679944 0.9913725630400734 L0.604030314679985 0.9755078980399787 L0.5822228606799591 0.9687382850400184 L0.5492532956799856 0.9725623410400601 L0.48341752168002117 0.954372237040019 L0.4557189536799875 0.958558028040045 L0.3997017006799659 0.9432359660399925 L0.38161494967996745 0.9361821330399778 L0.39039994267994516 0.9286890500400489 L0.40559281467997366 0.9120492390400159 L0.41293086767995746 0.9070366250399786 L0.4187186286799509 0.9119717240400007 L0.4236795656799721 0.9150981490400341 L0.42833044467993986 0.9157441040400158 L0.43494502767995513 0.9129794140399667 L0.44683060667997765 0.9057447140399972 L0.4867248126800199 0.8915078570400397 L0.49519974768000097 0.885978479040034 L0.5006774496800084 0.8773743530400111 L0.4989204506799432 0.8641968630400072 L0.5049149166799474 0.8545333690399843 L0.5416051846799199 0.8433195840400458 L0.5835664476799387 0.8468852580400039 L0.6636649176799914 0.8679434040400338 L0.6762739666799256 0.8739120320400673 L0.6816483156799755 0.8829037310400167 L0.6853690186799746 0.8934457230400596 L0.6930171306799728 0.9037810100399781 L0.7041792406799878 0.9116099890400164 L0.7149279386800025 0.9160541620400124 L0.7712552486799176 0.9220486280400451 L0.7800402426799984 0.9206275270400397 L0.7910989996799991 0.9132636350400389 L0.8107360436799489 0.8921538130400108 L0.8239652106800257 0.8845832150400668 L0.8385379636800074 0.9107831670399946 L0.8764684656800021 0.9154857220400459 L0.9557401126799583 0.9020756880400143 L1.0286038826799562 0.8954869420400087 L1.0491711026799315 0.8890273880399775 L1.0378022866799448 0.8842214800400541 L1.0293273516799353 0.8765992060399981 L1.0243664146799993 0.866522302040039 L1.0225060636799945 0.8338627970399841 L1.0157881266799755 0.813605635039977 L1.014444539679996 0.7963973840400058 L1.029430704679978 0.7851577590400325 L1.0229194746799202 0.7788273960400147 L1.0133076576799986 0.7601463660400327 L1.0054528406799612 0.7561672800399606 L0.9844722086799571 0.7496302120399889 L0.9781676846799563 0.7451343630399663 L0.9778576256799703 0.7342306360399959 L0.9903633226799649 0.7298123010399991 L1.0249865316799536 0.7246188190399891 L1.0414196366799295 0.7158855020400097 L1.0513415126800076 0.7057827590399768 L1.0571292726799832 0.6926827840400165 L1.0612633876799258 0.6748802530400724 L1.0591963296799598 0.6728907100400363 L1.0539253336799241 0.6717538290400284 L1.0489643966799882 0.6697384480399933 L1.0479308676798915 0.6653976270399937 L1.0506180426799254 0.662555424040022 L1.0599198006799462 0.658292118040066 L1.0618835046799937 0.656612634040016 L1.0646740316799388 0.6480343460399922 L1.0695316166799635 0.6417814980399896 L1.0699450276799745 0.6355803260400137 L1.0594030356799315 0.6273637730399741 L1.1221382246799543 0.592068770040072 L1.1586217856799657 0.5772376340400456 L1.1946919346799767 0.5824569540399693 L1.2361167586799944 0.5902292760400201 L1.2464717206799456 0.592172123040001 L1.3116873776799558 0.5987867070400057 L1.3432100026800207 0.6163050170399629 L1.4458393966799257 0.7087024770399637 L1.4556579186799716 0.714800296040039 L1.465993204679986 0.7176941770400163 L1.49110795068 0.7212598510399744 L1.5004097086799355 0.7253939660400022 L1.5342060956799308 0.7595262490399932 L1.5464017336800246 0.7679753460399752 L1.5567370206799431 0.7677169630400158 L1.5667622476799714 0.7644096720400171 L1.5780277096800113 0.7632727910400092 L1.5929105226799685 0.7682854040399718 L1.6136844486800008 0.7783106320399895 L1.6321846106799534 0.790196211040012 L1.6400394286799802 0.8004798210399997 L1.6504780676799236 0.8083346390400266 L1.6930452956799762 0.8238427150400298 L1.715797078679966 0.8321316360400033 L1.799512898679918 0.8475053750399866 L1.8573322226800109 0.844990359039997 L2.086420450679949 0.8350255170400089 L2.209720418679975 0.8436296430400319 L2.2468240966799407 0.841252527039984 L2.321651570679986 0.8207369830400069 L2.5263935956799024 0.8046656120400542 L2.5712487386799943 0.8068618610400335 L2.607628946679963 0.8176880730399887 L2.6374979246799874 0.8216154830400342 L2.6666434326799298 0.8195484250399829 L2.691034708679947 0.8093940060400371 L2.724107625679917 0.7838916870400112 L2.7414709066799468 0.7752100460399447 L2.7641051846800018 0.7711792850400343 L2.7887167546799354 0.765318229040048 L2.790253459679999 0.764952275039974 L2.7518061936799505 0.7460645390400202 L2.722557332679994 0.72678922903998 L2.7160461016799466 0.7080565220400103 L2.7185265706799235 0.6869983760400658 L2.7285517986799412 0.6457089070400457 L2.7252445076799425 0.6341592240400189 L2.718319864679952 0.6301543010400223 L2.716976277679972 0.6264594360400224 L2.729998738679935 0.6156848990399908 L2.739093790679984 0.6121192260400221 L2.758524128679962 0.6098971390400152 L2.7680325926799547 0.6043677610400096 L2.7948009846799344 0.5670573770399869 L2.8122676186799787 0.5574972370399962 L2.9073955446799538 0.5431628920400442 L2.955618042680012 0.5358964880400094 L2.9702941486799226 0.5312972860399725 L2.992816885679982 0.5320149220400197 L3.01246211767997 0.5326408730400374 L3.072303426679948 0.5267755980400466 L3.196326863679925 0.5369300170399924 L3.2072822676799966 0.5354314000399825 L3.267020223679932 0.5097482130400124 L3.4019990646799236 0.5116602410400333 L3.4555358476799505 0.48618376104002436 L3.4570861416799765 0.481016118040003 L3.4576029056799165 0.4757451210399779 L3.4570861416799765 0.470319096040015 L3.4555358476799505 0.46484139404000757 L3.4552257896799823 0.4641696010400267 L3.4550190836800105 0.4635494830400546 L3.4552257896799823 0.46308439504002763 L3.4555358476799505 0.46261930704000065 L3.467421427679991 0.44680631904000734 L3.4768265386799406 0.4081006720400069 L3.487781941680023 0.3935537550400454 L3.50504186968001 0.38686165704001496 L3.5970259196799894 0.37050606703999733 L3.607671265679979 0.37073861103993977 L3.617696492679922 0.37270231504007256 L3.629065307680005 0.3791618690400185 L3.650769408679988 0.39711943004002137 L3.6607946376800236 0.4006075890399643 L3.706890014679967 0.3946131220400275 L3.7303511146800155 0.3971969440400187 L3.7481278076799605 0.41161466804004476 L3.7486445716799857 0.4214331910400233 L3.7429601646799675 0.43006315504004533 L3.7404796956799906 0.43851225204005573 L3.7498848066799404 0.44799487704003127 L3.759393269679915 0.44882170003995725 L3.7954634196799155 0.4395974570399517 L3.8200614016799896 0.4448426150400735 L3.8580952556799524 0.4678903040399405 L3.878869180679967 0.4732129760400028 L3.9024336346799906 0.4674252160400272 L3.947702189679969 0.4391323690400384 L3.9707498786799498 0.42959806704004677 L4.00878373167998 0.4216398970399666 L4.0121030766800025 0.42027872703997105 L4.051881876679996 0.40396655603998965 L4.0707954516800235 0.3990831330399658 L4.079063679679987 0.39471647503995655 L4.08640173367996 0.38577645204003375 L4.091879435679967 0.3677930540400496 L4.09580684367992 0.360765059040034 L4.108312541680018 0.3508431840399453 L4.116890828679967 0.3497063030400227 L4.127122761679939 0.35223844804002624 L4.144692749679901 0.3534786820400484 L4.161435913679949 0.34851774503999877 L4.19161494967997 0.32991422903995726 L4.20288041168001 0.3266069370400544 L4.222827514679945 0.3333248740400734 L4.234092976679985 0.3416189410399397 L4.246185262679969 0.3450554240399697 L4.269026245679978 0.3370972530400138 L4.298068400679991 0.3175635610400036 L4.3230797936799625 0.29203540403997863 L4.343957071679963 0.26317411704002325 L4.382817748679994 0.18379911703996754 L4.394393269679963 0.16827034904002858 L4.409379434679916 0.15511869703996695 L4.439768417679968 0.13372139203994493 L4.442038940679989 0.13212268504000235 L4.4554748136799525 0.1187643270399974 L4.456301635679974 0.11525032904003751 L4.456715047679975 0.11168465604004041 L4.45661169467996 0.10814482003999615 L4.455991577679978 0.10463082204003626 L4.454027872679969 0.0872933800400233 L4.454337931679955 0.07897347403996946 L4.4554748136799525 0.07142871504001391 L4.484310262679994 0.063728926040028 L4.546321980679945 0.06093839903996923 L4.757885294679934 0.028459761040039666 L4.774111694679927 0.028278894039999614 L4.7896146246799525 0.03370492003998038 L4.819276895679987 0.05168831804004981 L4.833746296679944 0.05419462404003639 L4.865165567679977 0.05641671203994747 L4.919632528679951 0.07853422404005528 L4.955289265679962 0.08065295804001948 L4.980300659679951 0.07936104704006652 L5.009756225679947 0.08287504504002641 L5.03766149868002 0.09127246504002073 L5.0578153076799275 0.10450163103999444 L5.083136759679999 0.10840320203996612 L5.160548054679932 0.08380522003997726 L5.193724324679945 0.07879260704001467 L5.211811076679961 0.08406360204006091 L5.224213419680009 0.09101408304005076 L5.2355822356799955 0.09432137404004948 L5.2503616946799205 0.08879199604004384 L5.262040568679989 0.0775782100400022 L5.2677249756799505 0.06693286603999127 L5.2760965576800025 0.05760526904006724 L5.295630248679938 0.0499313190399846 L5.312373412679985 0.047657556039979454 L5.346479858679938 0.047166630040038626 L5.398362996679932 0.03623706403996607 L5.4129357506799884 0.03918262104005521 L5.446525431679927 0.05251514004007163 L5.464612183679943 0.05724353403996929 L5.473190470679977 0.062437015039989774 L5.479805053679964 0.071015304040003 L5.488900106679946 0.090393965039965 L5.495618041679958 0.0974219600399806 L5.511534382679994 0.10227954504000536 L5.54843135567992 0.10194364804002021 L5.565484578679953 0.10450163103999444 L5.574166218680002 0.1158704470400096 L5.587188679679937 0.15715991604000124 L5.5953535566799495 0.16785693804001767 L5.651370808679982 0.2251661010400028 L5.675038614680002 0.24356291103998728 L5.7014969486799 0.2566112100400346 L5.732812866680003 0.26374255803997926 L5.763198608679968 0.2619855590399993 L5.814978393679947 0.24433805704001088 L5.858076538679935 0.2400489130400274 L5.888565633680027 0.22842171603997485 L5.903138386679981 0.22459766004004678 L5.955331584679978 0.2227889850400402 L5.973728393679973 0.2185515170399981 L5.99181514567999 0.2177763710399745 L6.05165645367995 0.2217037800399453 L6.0702599696799915 0.21808643004007422 L6.08772660367995 0.20886218603996554 L6.106640177679989 0.19271330104007234 L6.130307983680009 0.19545215304000862 L6.132063579679961 0.19528959703998794 L6.133098510679982 0.19519377004004923 L6.143020385679957 0.18798490803999357 L6.17578324367997 0.17935494404002839 L6.209889689679951 0.18222298604001708 L6.245649780679965 0.19405688904004137 L6.230766967680008 0.22428760204005016 L6.230560262679941 0.24022978104000003 L6.25815547767996 0.23911873703997344 L6.265080118679943 0.2399455600400131 L6.272521525679959 0.24836881903999597 L6.272521525679959 0.25818734103995666 L6.270247762679926 0.26971118603998434 L6.27117793767999 0.28350879304002774 L6.28192663567992 0.30381763104006154 L6.330915893679926 0.3544088580400171 L6.3374271236799835 0.35880135504001487 L6.344661824679942 0.36011910403996694 L6.352413289679955 0.3586463250399561 L6.360268106679992 0.3544605340400153 L6.364298869679995 0.3531686240399665 L6.368329630679991 0.3527552120399662 L6.372567098679948 0.3531686240399665 L6.392204142679983 0.3585429730400165 L6.408017130679976 0.360765059040034 L6.423520060679973 0.35983488403999786 L6.442847046679926 0.3533753300400235 L6.447084513679979 0.3530135940400214 L6.451218628679921 0.3535820350399774 L6.455249389680002 0.3549256220400423 L6.529560099679994 0.42034798504002424 L6.542685913679971 0.4409927210400326 L6.556845255679999 0.472696211040045 L6.573898477679929 0.49638985603999686 L6.579272827679997 0.5004722940400086 L6.581856648679999 0.5006790000399519 L6.594982462679976 0.49574390003999724 L6.667019409679934 0.49574390003999724 L6.685416219679947 0.49168730004001304 L6.702366088679948 0.48437508504002835 L6.719522664679996 0.4812228230399569 L6.735852417679947 0.4882508180399725 L6.739366414680003 0.492979211039966 L6.775229858679946 0.506544275040028 L6.804788777679985 0.525070276039969 L6.8181212976799905 0.5364649290399655 L6.828559936680019 0.5502108600400106 L6.835381225679978 0.5691244340400488 L6.831763875679993 0.5794855580399769 L6.825149292679921 0.5887098020399719 L6.823288940679898 0.6043677610400096 L6.806235717679979 0.6185787800399964 L6.814607299679945 0.6307227410399889 L6.851400920679932 0.6507731970399391 Z" fill="black" stroke="black" stroke-width="0.5" vector-effect="non-scaling-stroke"/></svg>