<svg xmlns="http://www.w3.org/2000/svg" viewBox="0 0 9.071010741720045 1.8045068359799785"><path d="M0.13051676386004374 1.768586425490021 L0.13678304086005255 1.7747713214900003 L0.11261311885999703 1.7845369464900003 L0.09796468086000232 1.766796061489977 L0.09080322286001774 1.737824707490013 L0.088931477860001 1.7134106444900183 L0.09576741586005255 1.7134106444900183 L0.09576741586005255 1.7231762694900183 L0.09723225886000364 1.7313142904899976 L0.102603352860001 1.7474275714900003 L0.098697102860001 1.7583325194900183 L0.10357991586005255 1.7689119464900003 L0.11505452485999967 1.7740388994900016 L0.13051676386004374 1.768586425490021 Z M0.16957926386004374 1.7868155924899796 L0.15973225886000364 1.782746582490013 L0.15704671186000496 1.779654134489995 L0.15590738886004374 1.7742830404899976 L0.16746337886002038 1.7736319984899822 L0.17641520186003845 1.7689119464900003 L0.18194905586000232 1.7603670244900016 L0.18357665986002303 1.7486482744900016 L0.18845947286001774 1.7603670244900016 L0.18756429086005255 1.771841634489995 L0.18129801386004374 1.781363118489999 L0.16957926386004374 1.7868155924899796 Z M8.971499836860005 0.017691243489998953 L8.982079263860044 0.024038899490001597 L8.980044758860004 0.03779215549003112 L8.978824055860002 0.05675374348999895 L8.973697102860001 0.08108642549002099 L8.973697102860001 0.10110595749001305 L8.965314941860015 0.1158357744900016 L8.967268066860015 0.1402498374899963 L8.961978352860001 0.15172444649000028 L8.946109211860005 0.15286376949001834 L8.94090087886002 0.13593668648997692 L8.934634602860001 0.12014892549002099 L8.93146077486 0.10533772848999234 L8.916649576860038 0.09996663448999499 L8.895572102860001 0.09581624348999895 L8.872378743859997 0.09687418648997692 L8.852359211860005 0.10322184248997957 L8.849185383860004 0.09166585348999234 L8.859683430860002 0.08531819649000028 L8.86700764986 0.06741455049002099 L8.861636555860002 0.05357991548999763 L8.861636555860002 0.040884603489992344 L8.874576008860004 0.04527913448999499 L8.894514159860023 0.055777181489993666 L8.921939290859996 0.05675374348999895 L8.936669107860041 0.04308186848999895 L8.95261962886002 0.027212728489992344 L8.971499836860005 0.017691243489998953 Z" fill="black" stroke="black" stroke-width="0.5" vector-effect="non-scaling-stroke"/></svg>