<svg xmlns="http://www.w3.org/2000/svg" viewBox="0 0 9.980438934060004 8.47860805578004"><path d="M6.089471383530096 0.3167010813899722 L6.075880481530007 0.3454848543899871 L6.076035510530048 0.3553033763900615 L6.083993681530089 0.3729767173899816 L6.089884794529993 0.3796688143899942 L6.096964465530036 0.3822784743899845 L6.104457548530021 0.3841388263900072 L6.111692249530037 0.38837629338994617 L6.115567981530077 0.39488752439002184 L6.120632271530027 0.4101320713899739 L6.125231474530082 0.4150930083899951 L6.134533232530018 0.4166949783899625 L6.154273628529992 0.41178571738999636 L6.1639371225301005 0.4114239813900227 L6.1709134405301 0.4145762453899593 L6.182282255530012 0.4244981193899733 L6.204089710529999 0.43369652438997974 L6.2107042935301 0.44268822339001446 L6.209050647530077 0.45354027438995814 L6.198095244529995 0.46459903138995884 L6.1925141895300015 0.4912640703900095 L6.198198596530048 0.5089632483900246 L6.207397001529998 0.525267162390044 L6.2121512335300935 0.547694734390042 L6.206776884530072 0.5717759513900731 L6.19297927753 0.5896559973900324 L6.157477568530041 0.6245892653900356 L6.146728870530055 0.6492905993900493 L6.154583688529996 0.6667055573900669 L6.1745307905299995 0.6774025793899696 L6.200575712530039 0.6821568103899622 L6.2315815715301 0.6807615473899844 L6.246050972530028 0.6827252513900319 L6.258556669530023 0.6915102453899991 L6.2677550745300294 0.7003469153900213 L6.278090360530015 0.7062897043900378 L6.289769234529999 0.7092869373900399 L6.302791695530047 0.7095969963900259 L6.319534859530094 0.7169350503900276 L6.334314319530094 0.7330580963899891 L6.3586022425300115 0.7690248933899753 L6.369247587530012 0.7905739653900312 L6.367645618530034 0.8092808343900018 L6.348215279530095 0.8454543373900449 L6.337518257529993 0.8796124593900245 L6.336588082530042 0.9006964433899682 L6.333590849530012 0.9026084703899713 L6.32118850553006 0.9065358803900452 L6.316744332530035 0.908964672390006 L6.31472895153 0.9248810133900136 L6.329250028530041 0.9399188553900117 L6.332860754530017 0.942425236390001 L6.348680367530093 0.9534064043899733 L6.361496122529999 0.9646201903900149 L6.362426298530053 0.9787795323899573 L6.368834175530068 0.9869960853899968 L6.377412463530035 0.9936623453899998 L6.385422311530007 1.0032741613900171 L6.390228219530101 1.0162449453900493 L6.391881864530021 1.026115144390026 L6.3956025675300765 1.0352101963899898 L6.4070747365300775 1.045803865389992 L6.434153186530054 1.0560874753899796 L6.463298694530053 1.054227123389957 L6.519315946530057 1.0361920493899746 L6.544637398530071 1.0376906643899773 L6.562207386530005 1.0556223873900379 L6.572956084530048 1.0806854563899506 L6.577813668530084 1.1038364983899456 L6.580345813530059 1.1469346433899616 L6.58727045553006 1.1643496003899898 L6.606029000530029 1.183728262390055 L6.58184443053004 1.1963889883900052 L6.587528837530087 1.2084295973899728 L6.6061323535300716 1.2202118243900557 L6.620705106529996 1.2318906973900212 L6.625355986530096 1.251062654389962 L6.622875517530005 1.2972097083899783 L6.627939807530069 1.318242016390009 L6.658945667530006 1.3509015213899787 L6.67165806853005 1.371107006390055 L6.66752395453004 1.3911574613900157 L6.655224964530007 1.407022126390025 L6.6429259735300406 1.4275893463900005 L6.637034859530033 1.4482082433900203 L6.643546090530023 1.4643312903899997 L6.643546090530023 1.4644863193900406 L6.6436494425300765 1.4645896723900549 L6.643856148529991 1.4646413483899678 L6.661426135529993 1.479317455390067 L6.682923531530022 1.4817462473900278 L6.705144397530077 1.4756484283900662 L6.724884795530031 1.4646413483899678 L6.725194853529999 1.4645896723900549 L6.7252982065300415 1.4645379953900388 L6.725504911530081 1.4643829663899979 L6.743281604529997 1.4603522043900128 L6.7764578735300205 1.4469680093899697 L6.802606148530046 1.4466062743899855 L6.824759764530015 1.453186369389961 L6.8633259565300335 1.4646413483899678 L6.9002746055301 1.4923915933900176 L6.913193714530095 1.499006175390015 L6.940375517530001 1.5031919663899558 L6.970192818530094 1.52541283339 L7.0165465785300825 1.5787429113900728 L7.042074736530012 1.6303159903899953 L7.054373727530034 1.6434934803899708 L7.072357125530047 1.6476275953899986 L7.110080920530081 1.638377513389976 L7.12124303053001 1.6402378653899987 L7.137521106530059 1.6492812413900495 L7.158088326530034 1.6480926833900256 L7.177415311529998 1.6402895423900148 L7.201651558530088 1.6233913483900224 L7.211831816530022 1.6237530833900067 L7.22211542653001 1.6264402583900406 L7.232450712530053 1.6273187573899932 L7.2645934535300825 1.6182753813900277 L7.328258818529989 1.6206524973899619 L7.348309274530024 1.6153298253900132 L7.367636259530045 1.6063381263899785 L7.383759306530052 1.6013771883900247 L7.400295764530014 1.6016355713900126 L7.431094918530093 1.6111957103899854 L7.438381295529993 1.612177562390066 L7.443187203530087 1.615743237390042 L7.448148140530051 1.6361554273900722 L7.452437284530092 1.6430800693900451 L7.458535103530082 1.6486094473899655 L7.4666999795299915 1.6540871503899623 L7.48685378853007 1.6611151443900454 L7.508299507529998 1.6604433503899898 L7.550777535530003 1.6528985913900343 L7.56974278653 1.6472141833899983 L7.586847684530014 1.6374990143899382 L7.604727730530087 1.6303159903899953 L7.626328479530045 1.6320729893900605 L7.642968290529993 1.6417364823900087 L7.650409696529991 1.655120677389938 L7.648394316530059 1.6707786373899935 L7.636715442530075 1.687108389390012 L7.620850778530084 1.6987355873899972 L7.590465035530016 1.7144968983900597 L7.576822457530099 1.730878327390009 L7.561216174530031 1.7430739653900176 L7.540338896530088 1.7450376703900545 L7.501064807530028 1.7432289953899627 L7.4509386685301 1.7649330963900596 L7.4303714485300105 1.7688088293900321 L7.360401559530018 1.7670518303899385 L7.3398343395301 1.7728912673900155 L7.327121936530077 1.7843634353900555 L7.319215442530023 1.8002281003899512 L7.315701444530063 1.817746410390022 L7.315649768530065 1.8342311923899857 L7.325364938530001 1.872678458390034 L7.3225744105300095 1.8864760653899921 L7.292033638530015 1.8788796303900384 L7.287227730530034 1.8788796303900384 L7.282680204530081 1.8799131583900035 L7.291361845530034 1.9001186433899946 L7.302575631530075 1.9191355713899796 L7.3064513635300585 1.9233213623900056 L7.307898303530052 1.927558829389973 L7.306554716530044 1.9316412673899563 L7.302575631530075 1.935620352390039 L7.2946691365300325 1.9405812903899928 L7.2893981415301 1.9471441973900667 L7.286917672530009 1.9552057203899622 L7.28733108353002 1.9644558023899847 L7.3003535445300685 1.9932912513900263 L7.3643289675300565 2.077058748389966 L7.419622750530081 2.117469717390044 L7.443497261529998 2.140103995390014 L7.450731962530014 2.169559562389999 L7.44862152953003 2.1736318053899666 L7.443393908530069 2.1837189033900373 L7.430991565529993 2.1958628653900476 L7.422103219530058 2.208575267389996 L7.424790393530017 2.2243365803899806 L7.438743030530006 2.2322947503900608 L7.477500354530022 2.231984691389961 L7.49258987252999 2.2423716543899914 L7.488817493529993 2.2686749593899336 L7.46716506752999 2.2990090243899957 L7.453729195530045 2.3272243563900545 L7.474399768530063 2.3470164303900347 L7.466441598530011 2.3591087153900006 L7.455692900530082 2.363862947390011 L7.443290556530016 2.365878328389961 L7.417865751530016 2.372802970389934 L7.399985705530057 2.3689272373899897 L7.38990880253003 2.3698057363900276 L7.363088733530034 2.383086580390035 L7.3484126265300205 2.3943520423899898 L7.3325479615300395 2.3977110103900046 L7.302575631530075 2.3870656643900148 L7.289708199530011 2.3878924883900154 L7.279372912530093 2.3843784903899703 L7.258288928530064 2.373164704390014 L7.2435094695300535 2.368978913389988 L7.2365331505300645 2.371304353390009 L7.222735542530003 2.3900112213900186 L7.221702015529999 2.394713777389974 L7.224492542530058 2.4070127683900253 L7.222425484530092 2.4117153233899913 L7.216431018530088 2.414247468389995 L7.202375029529989 2.415384350389992 L7.1958121225300005 2.4171930253899987 L7.185218453529998 2.4258229893900207 L7.180360868530087 2.437346834389963 L7.180154162530002 2.4505760003899653 L7.183048043530093 2.4642185783899677 L7.183048043530093 2.464373608389998 L7.192298124530041 2.4902635003899505 L7.189662626530023 2.5090737213900596 L7.1811876915300985 2.527315502390003 L7.173539580530004 2.5518101313899777 L7.158346708530004 2.5684499423899823 L7.131371611530071 2.5607501543899858 L7.119538515530039 2.5555574803900285 L7.101605986530089 2.547727693389966 L7.078454944530094 2.54865786939002 L7.071840360530004 2.5678815013900262 L7.073804065530041 2.5932546293900387 L7.068739775530034 2.6176459063900452 L7.041041207530029 2.633510570390065 L7.01256749353 2.635991039390042 L6.999906767530021 2.640331859390024 L6.990088244530099 2.651700674390021 L6.986935982530028 2.663689607389962 L6.9892614225300775 2.6838950923900384 L6.986160836530004 2.6953672603899648 L6.95835891553007 2.7216705633900133 L6.9507108035301 2.7377936113900105 L6.965593616530029 2.751746247389981 L6.973861845530095 2.755621980390039 L6.982853544530016 2.7614097403900146 L6.990191598530018 2.7686444413899736 L6.993705594530056 2.776809317389997 L6.996806181530005 2.7874546623899974 L7.001715442530028 2.793500805390046 L7.006831408530033 2.798410066389984 L7.010965523530032 2.8053863843899833 L7.014117786530093 2.824299958389993 L7.014582874530035 2.8431101803900063 L7.017786812529991 2.8600600493900075 L7.028948922530034 2.8730308343899438 L7.031894479530067 2.8795420653900194 L7.0316360965299936 2.890239086390018 L7.028948922530034 2.9008844313900184 L7.024866484530023 2.9073439853899643 L7.018923693530027 2.9083775143900326 L6.996909534530047 2.9019696363899996 L6.928179879530077 2.8974737863899875 L6.897277373530059 2.8913242913900277 L6.862964221530021 2.876389802390044 L6.824000191530033 2.866933015389982 L6.819866076530033 2.894373201390046 L6.828185983530076 2.9348358473900262 L6.826790719530024 2.9644464433899955 L6.822036487530042 2.9723787763900376 L6.816352079530063 2.979613476390007 L6.809840849530005 2.9858921623900088 L6.802606148530046 2.9913698643899878 L6.7501028935300695 3.001110871390047 L6.74038772353002 3.0142625233900233 L6.7712902305300275 3.0965314033899816 L6.784105986530037 3.118157991390042 L6.802606148530046 3.1294751293900234 L6.822553252530085 3.1162201243900327 L6.844877470530022 3.116116772390008 L6.8655480435300404 3.1270204993899497 L6.880895943530035 3.146657543389985 L6.8863736455300995 3.169343497390038 L6.884358264530064 3.1940189933900527 L6.871025745530048 3.2421297513900313 L6.866064807530094 3.2511472893899978 L6.852008818530052 3.2700608633900075 L6.849993437530017 3.2793109443900406 L6.854799345529997 3.2907055983900264 L6.86213739853001 3.2993872393899792 L6.86787348353009 3.3079913653900306 L6.86787348353009 3.3191276363899718 L6.857693225530099 3.3304189363900107 L6.817282255530003 3.3579366373900044 L6.802606148530046 3.3709849353899486 L6.778214872530029 3.388761628390064 L6.766949410530046 3.410956656390006 L6.758526152530052 3.436484814390049 L6.743281604529997 3.4642608963899946 L6.743281604529997 3.4643642483900194 L6.743074899530072 3.4643642483900194 L6.734806669530016 3.471469758389965 L6.72509150053007 3.4769991373900453 L6.703697457530083 3.485060660390026 L6.724368030530101 3.509167716389989 L6.747053983530051 3.5198388993899883 L6.773047229530093 3.521234162389966 L6.802606148530046 3.5174359453900266 L6.805086617530023 3.517746003390023 L6.807257027530099 3.518572826389949 L6.80911737852999 3.51996809039003 L6.898104195530081 3.6546885493900234 L6.9115400675300265 3.667116731390003 L6.926939644530009 3.6778912673900166 L6.9400654585301 3.6899318763900126 L6.947248482530014 3.706545849390018 L6.951537627530101 3.7267771723900083 L6.958462268529999 3.7444505123900242 L6.968487496530017 3.760702750390017 L6.982130074530048 3.776929149389936 L6.997322945530058 3.7895898753899715 L7.0444518525300595 3.817856884389961 L7.047965711530011 3.825584733389981 L7.051324817530016 3.8329722413900598 L7.051066435530046 3.868525626390017 L7.057887724530005 3.8755019443900167 L7.075354358530021 3.871858756390033 L7.0917874645301 3.862712027390053 L7.120881294530008 3.8393026043899923 L7.139123075530094 3.8328172113900294 L7.187698921530043 3.8321970933900573 L7.209299670530058 3.8277012443900347 L7.2053722625300765 3.8584228833899843 L7.223045602530064 3.8734607253899824 L7.244232938530033 3.885630525389992 L7.25126093353002 3.9077480383899754 L7.2389619435301 3.9228117183899727 L7.191522978530017 3.9470479643899594 L7.175916696529995 3.9642562163900337 L7.193073271530054 3.9765035313900583 L7.222735542530003 3.9823171293899478 L7.253017933530018 3.9791131913899918 L7.271518095530027 3.9643595693899627 L7.276479032529991 3.9620341303900446 L7.281491647530046 3.961233145390004 L7.286607613530052 3.962059969390033 L7.287823535530023 3.962629932390037 L7.291568550530016 3.964385408390065 L7.294720813530077 3.9658581863899727 L7.297769723530095 3.9678218913900096 L7.331359403530016 4.002961865389956 L7.342728219530088 4.020221793389943 L7.3507897425300115 4.039109529389982 L7.35383865253003 4.059418366389998 L7.354407093530071 4.076109855390037 L7.359574736530064 4.09068260838999 L7.393061064530045 4.117761058390052 L7.432851917530101 4.164915803390052 L7.4646845995300595 4.186516552390039 L7.478637236530048 4.198402131389976 L7.48752558253004 4.215274487390026 L7.487732287530079 4.225558097390042 L7.481686145530077 4.244755891389964 L7.481014352530039 4.252946605389987 L7.485458524530074 4.2622483633900075 L7.497034045530015 4.26839785939007 L7.497654162529997 4.277441235390036 L7.490522814530024 4.290282828390026 L7.476776884529997 4.3043646553899535 L7.449801787530006 4.326843904390053 L7.428717802530045 4.340228099389982 L7.412491402530051 4.342941112390015 L7.395748238530004 4.341855907390034 L7.373734078530035 4.34350955339 L7.3536319455300685 4.352940502389949 L7.352650093530016 4.365110302390043 L7.366602731529994 4.375161368389975 L7.410527698530004 4.379398836390045 L7.4293379195300275 4.386116771390057 L7.443755644530071 4.396942984390002 L7.4494917275300025 4.410637238390031 L7.4428254685300175 4.427612947390038 L7.427994332530076 4.440557893390043 L7.411354521530015 4.451900870390041 L7.399055530529992 4.4641223463899635 L7.399055530529992 4.464277376389994 L7.420346220529993 4.504300772389975 L7.478895617530085 4.510269400390008 L7.596769560530035 4.499133129389982 L7.702964628530069 4.526857535390015 L7.802648466530044 4.566829256390044 L7.830657093530064 4.590600414390032 L7.923949147530024 4.636079670389968 L7.927757109530077 4.637936026389987 L7.973697457530008 4.669251944390005 L8.039223173530033 4.702609081390058 L8.080667672529998 4.742425772389971 L8.381734567530017 4.96414350539002 L8.381941272530057 4.96414350539002 L8.381992948529998 4.964221019390045 L8.413928984530045 4.984064770390013 L8.444366403529997 4.997578157390002 L8.475889026529998 5.003443432389993 L8.511132353530044 5.000239493390019 L8.528805693530032 4.99458092439 L8.574591012530092 4.973161042389968 L8.58864700153002 4.973936189389981 L8.645284371529996 4.990395133390031 L8.66667841453004 4.999929434390033 L8.679442493530004 5.0124351313899425 L8.690656279530046 5.027860546390038 L8.707451119530091 5.046050650389965 L8.734167835530044 5.06333641638998 L8.739748889529992 5.070648632389954 L8.741299182530085 5.082198315389981 L8.737681832530015 5.08876122138998 L8.732100777530022 5.094290600389975 L8.723315784530016 5.112842438390011 L8.719285022530002 5.116640657390043 L8.719129993530075 5.1216015943900075 L8.725796253529992 5.135114981389968 L8.730395455530058 5.140851065390031 L8.760212756530038 5.164932283389966 L8.764915312530022 5.170435823390058 L8.768687691530019 5.175991039389977 L8.786361031530063 5.196790803390037 L8.792768908530078 5.202501049389987 L8.802484078530014 5.206557648389982 L8.807858427530093 5.219270051390033 L8.827340442530087 5.231879100389968 L8.832559761530078 5.24482404738999 L8.831009468530041 5.258776683389961 L8.825686796530007 5.268491852390021 L8.819744006530001 5.277276847390006 L8.81581659853002 5.288128897390045 L8.813749540529997 5.302081534390034 L8.814679716530051 5.309988028389974 L8.82150100553001 5.314483878390014 L8.837158964530019 5.318307934389942 L8.850026396530026 5.325232576390029 L8.858087919530007 5.33546450939 L8.866976265530056 5.344042797390024 L8.88206578453007 5.345644766389974 L8.90139277053008 5.3524660563900355 L8.90356844453008 5.355125950390011 L8.9183426405301 5.373188304390062 L8.941131946530092 5.416751537389992 L8.956479846530087 5.431686026389947 L8.991413114530062 5.4462071033899875 L9.001283313530038 5.4639321203900195 L9.001283313530038 5.464087149389947 L9.005985868530033 5.481708812389947 L9.041745960530008 5.536279125389974 L9.04856724953008 5.544288972390042 L9.066654000530022 5.554365877389991 L9.074302112529992 5.5604120193900215 L9.079883167530099 5.569455395389987 L9.085050810530092 5.5869737053900295 L9.08861648353006 5.594518464389985 L9.104687854530013 5.60976301239004 L9.144116972530057 5.63503278739001 L9.157811226530086 5.652912833389969 L9.16060175453002 5.674151846390039 L9.154658964530014 5.69678612438998 L9.00226516553009 6.050769685389959 L8.999779262529998 6.222104127390033 L8.996270699530086 6.463922761390002 L9.32488113253008 6.463974438390018 L9.335578154530069 6.46955549339004 L9.338782092530025 6.482371247390013 L9.335371447529994 6.964098950390003 L9.33692174153002 6.994743074390051 L9.442755074530098 7.007817211389984 L9.453917184530027 7.0111245033900005 L9.464252470530013 7.016705557390004 L9.480995634530004 7.032311840390044 L9.49381138953008 7.051948885389983 L9.502803088530001 7.073756339390009 L9.511019641530012 7.117784659389976 L9.515412138530039 7.127344799389967 L9.523421985530021 7.134682853389968 L9.53453241853002 7.138971996389934 L9.54631464453 7.140522289390056 L9.558406929529994 7.140108878390045 L9.594993844530038 7.134786205389993 L9.607602893530085 7.135302969389933 L9.61969517853008 7.138868644389994 L9.629048613530003 7.145793285389978 L9.649357450530019 7.175145499390062 L9.681500191530048 7.206823151389962 L9.720360869530097 7.23762230539004 L9.726923776530086 7.2460972403900215 L9.732039742530091 7.256277497389995 L9.733951770530027 7.267077871390036 L9.731367948530007 7.277723217390026 L9.72408157253004 7.286353181389991 L9.714469755530033 7.293846264390005 L9.706614937530091 7.302166169389984 L9.704444528530004 7.313276602389983 L9.706408231530006 7.320201245389974 L9.718913929530046 7.343403962389978 L9.73886103153005 7.362989330389986 L9.744545439530086 7.373272940390002 L9.747284290530033 7.374978262389966 L9.765526070530072 7.424690990390054 L9.767593128530038 7.437713451389989 L9.776481474530087 7.457195467390001 L9.781132353530026 7.46375837438999 L9.787643584530016 7.469494457390034 L9.80149286753003 7.479002921390027 L9.816375679530026 7.486857738389951 L9.847329863530021 7.494505851390024 L9.854352560529989 7.497290675390012 L9.85410842053004 7.497860337389987 L9.85410842053004 7.502417628390013 L9.878278342530038 7.502132798390015 L9.88259149353 7.51202049338999 L9.870221701530042 7.523902003390013 L9.84385451352999 7.529720688390022 L9.735211935529989 7.520199204390018 L9.65879592053004 7.497209295390029 L9.62290724853004 7.474097316390008 L9.58799513852999 7.464657212389987 L9.532575217530038 7.434139634389986 L9.489118185529989 7.42107811039002 L9.442487326530042 7.413631821389991 L9.399681336530008 7.412980779389976 L9.361595399530003 7.421769842390027 L9.292340842530038 7.454566066390008 L9.28526076352999 7.428280259389986 L9.28184279553004 7.398006821389991 L9.275006857530045 7.37029686039002 L9.258161154530043 7.351538722390011 L9.27044956553003 7.384090805389995 L9.271833029530043 7.396297837389987 L9.26939162353004 7.409237290389989 L9.265078472530021 7.421362941390008 L9.26426467053004 7.432105128390013 L9.271833029530043 7.440975571389991 L9.27134474853004 7.464575831390029 L9.054768421530056 7.3700690013900285 L8.997510933529995 7.3604055093899845 L8.739128772530009 7.3604055093899845 L8.681561226530036 7.366503328389946 L8.520434111530093 7.4243809323899725 L8.468034208530057 7.45528343938998 L8.43382441053005 7.497709789390008 L8.348765002530044 7.686483796389986 L8.31217808852999 7.745963370389951 L8.307010445529997 7.760329418389951 L8.303186389530069 7.790560131390073 L8.300705920530092 7.800637035390004 L8.2811722295301 7.838179963389997 L8.206448108530068 7.94610619239004 L8.176785836530016 8.014060700389997 L8.161903023530087 8.033646068390006 L8.097824247530056 8.095089347390008 L8.03519241153002 8.187228426390057 L7.884804236530087 8.334454637389975 L7.8557718385300035 8.362876619389972 L7.811950224530094 8.371041494390006 L7.76823196253001 8.37920637139002 L7.7506584085301 8.382478043390002 L7.724513701530029 8.387345409390015 L7.680795438530069 8.39548444739004 L7.575478870530034 8.387164542389975 L7.4992561325300215 8.381144237390039 L7.423033395529998 8.375046418389992 L7.346965686530027 8.36902611438996 L7.270691272530016 8.362979972390015 L7.168268583530093 8.35486677238999 L7.065742541530014 8.346753571390003 L6.963216500530095 8.33858869638997 L6.86074213553006 8.330501334389972 L6.758267769530093 8.322413972389974 L6.65574172853006 8.314249096389979 L6.553319039530024 8.306161734390066 L6.450792997530058 8.297996858390043 L6.371159615530004 8.291718171389938 L6.291629586529993 8.285361970390007 L6.212047880529994 8.279109122390004 L6.1322594695300126 8.27272708238997 L6.040792183530058 8.265518220390028 L6.03422927653007 8.263347810390037 L6.027976429530085 8.261125724389935 L6.021568550530034 8.258903636390023 L6.015160673530076 8.256784903390049 L5.938214466530084 8.202550487390006 L5.843078153530016 8.135293611389933 L5.747631783530082 8.068088410389983 L5.652288765530088 8.000831533390006 L5.556997424530024 7.933626334390034 L5.442482450529994 7.852804394389985 L5.327967476530077 7.772008292389934 L5.213400826530048 7.691238028389996 L5.147349051530043 7.644641287389966 L5.098834176530019 7.610416088390032 L4.9843192025299885 7.529594148390068 L4.869700875530029 7.448823884390016 L4.755082548530012 7.368053620389965 L4.640567574530095 7.287283357390017 L4.552407581530062 7.225116609390035 L4.464299263530094 7.16294986138994 L4.37624262352999 7.100834789389985 L4.288082629530024 7.038616364390045 L4.182352648529999 6.964098950390003 L4.18224929653006 6.964047273390015 L4.182145943530017 6.963995597389989 L4.182042590530031 6.963943920389973 L4.106748667530027 6.907576114390004 L4.087268014530068 6.892992179389985 L3.992493437530001 6.821937084389994 L3.897822213530091 6.750985343390006 L3.8030476365300245 6.679981924390013 L3.718504993530061 6.617040030390008 L3.6340657025300374 6.554098136390003 L3.549626412530003 6.491156241390009 L3.464980416529997 6.428214346390014 L3.3987312305300037 6.378760001389971 L3.309537708530044 6.333336417390036 L3.221894478530018 6.2886363033899855 L3.1340445435300666 6.243936188389945 L3.04640131453003 6.199236075389997 L2.95875808553005 6.1545876383899625 L2.870908150530042 6.109887523390007 L2.7831615685300193 6.065187410389974 L2.6955183395300395 6.020487296390037 L2.607875110530003 5.975787182389986 L2.5200251755300513 5.931035391390033 L2.4323819465300147 5.886335278389971 L2.344635363530003 5.841686840389947 L2.2568887825300266 5.79698672639001 L2.1692455535300468 5.752286612389959 L2.0814989705300917 5.707534822389995 L1.9936490355300265 5.6629380603899975 L1.906005807530093 5.618186270390034 L1.8031697065300563 5.565786368389986 L1.7474625125300207 5.53808780138997 L1.693615670530093 5.520156078389995 L1.3526545705300776 5.464242179390006 L1.3524478645299922 5.4641905023899895 L1.3523445115300632 5.464138826389963 L1.3521378055300346 5.464138826389963 L1.271935982529996 5.452511629389996 L1.0743253055300528 5.423727855389991 L0.87661127553001 5.394892406390035 L0.6788972455300808 5.366056957390022 L0.4810798625300521 5.337273184390007 L0.4782893355299933 5.33804833139002 L0.47549880753000195 5.338875154390031 L0.4726049285300604 5.3397019773900425 L0.4697110485300726 5.340477123389981 L0.46950434152999776 5.33277733539007 L0.5898070765299934 5.245754223390016 L0.6153352335300468 5.2141024083900405 L0.5944579555300464 5.146664664389995 L0.5796784955300467 5.11594302538996 L0.5591112755300145 5.105762768389987 L0.3696654755300841 5.150126985390052 L0.3595368945300237 5.145269401390017 L0.352095487530093 5.13028323538996 L0.3033129365300482 4.9865194003900015 L0.3019693485299939 4.984891592390035 L0.30155593753003984 4.983651358390013 L0.3019693485299939 4.982927888390016 L0.3033129365300482 4.982566153390032 L0.3805175265299994 4.962024772390045 L0.3133381635300765 4.753045279390058 L0.26610590453002203 4.606284212389973 L0.2205272915300469 4.464277376389994 L0.18590408153004034 4.357901440389988 L0.1443562305300219 4.229588858390038 L0.09784744053000338 4.0869360673899635 L0.20843500653005265 4.031513093390011 L0.3190225715299988 3.9761417963899603 L0.42961013653005864 3.920692985389998 L0.5401977015300048 3.8652958493900442 L0.6507852665300646 3.8098987143899947 L0.7613728315300108 3.754527416389955 L0.8719603965300706 3.6991302813899907 L0.9825479625300062 3.643810660389967 L1.093032173530034 3.588387686390014 L1.2037230915300796 3.5330163893899638 L1.3142073045300293 3.477645092390027 L1.4247948695300323 3.4222479573899776 L1.4964469135299936 3.3863382293900273 L1.5353824345300922 3.366824983390025 L1.6459699995300383 3.3114536863900597 L1.7565575645300981 3.2560823893900093 L1.8671451295300443 3.2006335763899543 L2.013802844529991 3.1271238523899925 L2.2593692515300035 3.072553539389965 L2.288618111530056 3.0567663893899706 L2.3113557415300505 3.0301013503900336 L2.3473225395299977 2.9644464433899955 L2.3473225395299977 2.9642914133899367 L2.5189916465300684 2.6901479403899557 L2.527569934530092 2.665498282390054 L2.5298436975300973 2.639298331389945 L2.5213687625300025 2.4645803133900657 L2.515661945530084 2.2997167093900046 L2.5148575325300584 2.276478100389973 L2.5246760545299907 2.2156032623900117 L2.5664306115300377 2.09209658939006 L2.5752156055300333 1.9945314853900484 L2.5844140095300503 1.9644558023899847 L2.584517362530036 1.9644558023899847 L2.584620715530079 1.9644558023899847 L2.584620715530079 1.9643007723900396 L2.6317939225300364 1.9063735213899875 L2.6655460095300754 1.8649269933900214 L2.6813589975300687 1.8346962803900126 L2.68683669853003 1.8033803623900226 L2.682599231530091 1.665869375390038 L2.677844999529995 1.6330548423900453 L2.6669929495300693 1.6009637763900244 L2.5896850065300754 1.4643829663899979 L2.5896850065300754 1.464279614389973 L2.5895816535300327 1.4643312903899997 L2.563950142530061 1.415600414390049 L2.56002273353009 1.3982888093900456 L2.5599193815300936 1.3815973223900144 L2.5921654755300523 1.1306565663900372 L2.6003303505300295 1.1038364983899456 L2.688593697530038 0.9647235433900292 L2.688593697530038 0.9646201903900149 L2.688697050530081 0.9645685133899988 L2.688697050530081 0.9644651603899845 L2.708747505530013 0.942244295390033 L2.738203072530027 0.9312372143899452 L2.803108671530069 0.9225038973899657 L3.113270618530052 0.8693288493900369 L3.140659127530043 0.8588902093899904 L3.167117461530026 0.8407517823899653 L3.301889595530085 0.7249965733900083 L3.5017740365300796 0.553301626390045 L3.6049201955300276 0.4646507073899855 L3.605230253529996 0.46459903138995884 L3.605230253529996 0.4644956783900298 L3.6692056765300975 0.41571312638996716 L3.7001418125300205 0.39662052739000586 L3.7005215945300023 0.39638614039001396 L3.700211536530091 0.3818650633899736 L3.694527128530055 0.3706771153900448 L3.686982369530014 0.36047101938996917 L3.6805744915300664 0.3486371173899627 L3.7252229295300907 0.3444771643900211 L3.782480416530049 0.32931013139000953 L3.868573352530049 0.3177346103900405 L3.8845930465300142 0.31199852639000625 L3.888003690529999 0.3065725013900149 L3.900302682530068 0.27939069739003486 L4.025669707530014 0.13327558539004514 L4.029493762530066 0.12539492938999075 L4.030733997530021 0.11847028739001786 L4.032801053530065 0.11144229239000225 L4.03900222653003 0.10332909338999485 L4.045513456530031 0.09971174239002067 L4.094916125530048 0.08371788638996946 L4.10380447253003 0.08312360839000377 L4.115793404530038 0.08428632739001074 L4.124475044530001 0.08953148538996203 L4.128815865530029 0.10676557639002482 L4.137394153529996 0.11180402739001494 L4.2200764455300686 0.13371483538995932 L4.260384061530019 0.13846906638995193 L4.302965442530066 0.12679019238996858 L4.328493600529995 0.1113647783899765 L4.366837512530012 0.09836815539004107 L4.407041777530068 0.08978986739001726 L4.438150989530001 0.08749026638998458 L4.4553075645300595 0.09136599939004242 L4.586720731530065 0.14792585339001363 L4.593645373530066 0.1499412353899814 L4.601965279530006 0.1508714103900175 L4.610853626530044 0.14947614739003967 L4.620207060530092 0.14187971139006805 L4.628992053530041 0.13864993439000983 L4.647492216530097 0.13640200938997538 L4.659481149530038 0.13839155239001144 L4.685841303530069 0.1547129943900032 L4.6993753545300905 0.1630928863899399 L4.74009638353003 0.17944847838999323 L4.7866051725300025 0.20993757239006783 L4.802934925530039 0.21526024539000588 L4.815750679530012 0.21386498139003862 L4.840452014530101 0.2063202223899978 L4.852854358529996 0.20471825338996297 L4.865773466530001 0.2063202223899978 L4.873938343530014 0.20988589639004118 L4.892231800530098 0.22091881438996808 L4.917553251530066 0.2291612053899783 L4.941634469530001 0.23164167439006889 L5.04416051153008 0.22600894338993527 L5.070257109530061 0.22797264739006806 L5.093976591529994 0.2327785563899809 L5.103898466530083 0.23825625739005574 L5.1253958625300555 0.2550510983900338 L5.132733915530011 0.25892683138997796 L5.145342965530048 0.2562396553900399 L5.16332636453005 0.24151187339004565 L5.216966500530006 0.23370873239003487 L5.2475072715300115 0.2055450763899742 L5.277117867530066 0.17115441039002377 L5.3137047815300065 0.14611717839003546 L5.358921659530083 0.14038109438997282 L5.392360824530087 0.14489455839001408 L5.411373238530061 0.1474607663900045 L5.507801461530036 0.17944847838999323 L5.530229033530006 0.19110151339004489 L5.546507109530054 0.20456322339001787 L5.558341011530089 0.22184899038999362 L5.566867623530001 0.24479332639004525 L5.571880236530021 0.2667041333900002 L5.572965442530048 0.27918399138997785 L5.571673531530095 0.2889508373899403 L5.563456978530027 0.30065554939000805 L5.553535104530042 0.30429873839000976 L5.542114612530028 0.30600406038997363 L5.5292988575300654 0.31199852639000625 L5.512555692530029 0.3294134843900238 L5.503977405529994 0.3496964843900301 L5.503357288530012 0.37101301239002993 L5.510798694530067 0.39168358538996273 L5.551106311530006 0.4644956783900298 L5.5576175425299965 0.47496015538997227 L5.566609241530031 0.4808512683899906 L5.608157092529993 0.4894553943900135 L5.620559436530058 0.4886802483899899 L5.629964547530037 0.48139387139003276 L5.639214628530041 0.4646507073899855 L5.639317981530084 0.4646507073899855 L5.639473010530011 0.46459903138995884 L5.639473010530011 0.4644956783900298 L5.654975940530036 0.44315331139004144 L5.658489937530064 0.42746951439006153 L5.666448108530048 0.4161782133900047 L5.751404162530022 0.39385399539003885 L5.777759143530076 0.3822784743899845 L5.802563831530037 0.36662051539003215 L5.826748401530082 0.3419966953900442 L5.86271519853004 0.3149440833900101 L5.9015758755300425 0.2922064523900261 L5.933615263530029 0.2802691973899769 L5.952270455530012 0.2795974033900066 L6.057121936530095 0.2913796293899864 L6.077172391530027 0.2994669913899841 L6.089471383530096 0.3167010813899722 Z" fill="black" stroke="black" stroke-width="0.5" vector-effect="non-scaling-stroke"/></svg>