<svg xmlns="http://www.w3.org/2000/svg" viewBox="0 0 4.574353026599998 4.019487304560002"><path d="M3.275925699299977 0.3564640302800157 L3.2565234443000453 0.36061890227998816 L3.2477384503000497 0.3669234272800068 L3.240038662300053 0.3739514212800046 L3.2318737863000297 0.37917074127995676 L3.168001716299999 0.38485514927999276 L3.156064459300028 0.3902294972799396 L3.146039232300028 0.39689575828004564 L3.1177722233000384 0.42221721028003145 L3.121906338299981 0.4309505262799931 L3.1192708403000484 0.4326558482799854 L3.1139481672999967 0.433741054279956 L3.1099174063000863 0.44082072527999827 L3.1156018133000476 0.46634888228002325 L3.1143615783000076 0.47466878927998124 L3.1072708633000605 0.4814136152800259 L3.105886644300016 0.48273031127997257 L3.086042894300009 0.48748454327998303 L3.0777746653000566 0.493634039280046 L3.0740539623000576 0.5054679422799566 L3.078291429300025 0.5308927462799673 L3.078291429300025 0.5413313862799853 L3.0679561433000107 0.562777105280027 L3.052194830300026 0.5805021212799559 L2.9796411203000037 0.632695318280021 L2.9732849182999974 0.6461828672799825 L2.971321214300035 0.671090907279968 L2.974628505300034 0.6785839902799822 L2.9800028553000164 0.6819946342800236 L2.9799511783000856 0.6841133682799878 L2.966877041300039 0.6874206592799865 L2.9563867253000797 0.6871106012800183 L2.9376281812999867 0.6810644592799591 L2.907655850299948 0.686438808280009 L2.873342698300023 0.6809094292799287 L2.85551432930008 0.6870072482799756 L2.820736091300022 0.7069026752799985 L2.786422939300012 0.718323166279994 L2.7525232002999918 0.7197701062799879 L2.719450283300022 0.7096415262800306 L2.6908732163000355 0.6951721252799885 L2.6771272853000188 0.6947587142799776 L2.6429174873000125 0.7147574932800254 L2.5933597883000505 0.7290718642800087 L2.609792894300016 0.7371333882800073 L2.615890713300063 0.7390970922800264 L2.6081909242999917 0.7541349342800245 L2.616407477300003 0.7644702212800283 L2.6329439353000215 0.7707230692800309 L2.6502555403000247 0.7735652722800026 L2.6586787982999898 0.7767175352800351 L2.6687557033000235 0.7893782612799853 L2.676610521299965 0.7943391992800244 L2.6849821033000456 0.7945459042800067 L2.7004850333000423 0.7876729392799362 L2.708029792299998 0.7863293512799672 L2.7218273993000413 0.7909802302799349 L2.7538667873000566 0.8077750712799983 L2.769473069299993 0.8112890682799403 L2.7862679103000563 0.8065348372799477 L2.8018225163000796 0.7999202532800567 L2.81246786130008 0.8015222222800062 L2.8150746143000323 0.8210227342800138 L2.8151550363000286 0.8216243542799546 L2.7737622133000617 0.8296342012800224 L2.674181728300015 0.8848763082799351 L2.635889492299997 0.8936613012800265 L2.5966154033000226 0.8927311252799726 L2.5208319163000557 0.8823441622800559 L2.499747931300009 0.8960900932799873 L2.4794649323000204 0.9135567282799357 L2.4671659413000544 0.928232834280017 L2.4620499742999744 0.9324703022799739 L2.450577806300048 0.9387231502800617 L2.425979824299974 0.947198085279986 L2.3728564523000433 0.956396490279964 L2.3545593783000403 0.9623090822800648 L2.349188646300023 0.9640446022799622 L2.361849371300041 0.9709692442799351 L2.3648982812999737 0.9786690322800169 L2.3669911773000525 0.9867305562800155 L2.3766805082999714 0.9950504612799662 L2.400606696300075 1.0105533912799913 L2.4430847243000233 1.0455900122800088 L2.466545823299997 1.0599043832799921 L2.491686408300028 1.0677592022800368 L2.5208319163000557 1.0678625542800617 L2.541993415299986 1.099230148279993 L2.555015875300045 1.113596197279982 L2.5722241273000055 1.1249133352799632 L2.5809513323000193 1.1269127562800136 L2.588915616300044 1.128737391280005 L2.6280605122999976 1.1321997132800234 L2.6427624573000674 1.138762620280012 L2.649377041299987 1.154730637279961 L2.653356127300059 1.1989139872799583 L2.6665852923000433 1.2143652402799674 L2.686067308300027 1.2214449112799812 L2.740947679300051 1.2257857322799808 L2.800427252300027 1.2234602922800448 L2.818255622300045 1.2254239962799787 L2.89034424530003 1.2572566792800117 L2.8973205633000294 1.2636128802800286 L2.8989742093000803 1.2724495502800508 L2.902229824300081 1.2808211322800176 L2.914012051299993 1.2858854222799962 L3.02072388430007 1.3006648822800244 L3.042272956300012 1.2981327372800209 L3.0834073962999913 1.2788574272799806 L3.108367112299975 1.2800976612800312 L3.0972566803000507 1.2888309792800001 L3.100770677300021 1.2903295952799922 L3.110795905300039 1.289347744279958 L3.1190641342999914 1.290743007280021 L3.126402188299993 1.2995280012800166 L3.1283658913000227 1.3038688202799804 L3.1328100653000366 1.3045922912799952 L3.1475378483000203 1.3024735572800026 L3.196062019300017 1.312188727280052 L3.206536815300028 1.311505587280017 L3.2127018293000322 1.3111035212799678 L3.1898608463000233 1.283043218280035 L3.1898608463000233 1.2763769582800037 L3.19704387030008 1.2712093152800108 L3.2274812892999467 1.2606673232799395 L3.2308919333000734 1.26314779228003 L3.2279980533000856 1.2703824922799996 L3.2266027893000047 1.2792708392800094 L3.2267061423000474 1.290794683279934 L3.225672614300054 1.2998897352800114 L3.229238288300012 1.3037654682799555 L3.2429842183000677 1.2996313542800308 L3.252285976300003 1.293533535279984 L3.2595206773000474 1.284800217280015 L3.26215617529998 1.2746199602799564 L3.2576603263000425 1.2646464082800222 L3.2772456933000615 1.2588069722799347 L3.2760054593000394 1.2535359752799948 L3.2667037013000186 1.248885097280045 L3.26189779330001 1.2449060122799622 L3.26753052430003 1.2349324602800564 L3.273938402300063 1.2283695532799825 L3.2821549543000845 1.2234602922800448 L3.2935237692999966 1.2182409732800252 L3.3483007883000813 1.2097143612799997 L3.3696948312999826 1.2015494842799868 L3.363286953300035 1.1851163802800286 L3.377136237300009 1.1736958882800153 L3.3415311753000356 1.1560225482799993 L3.3475256423000577 1.1421215882799416 L3.313987636300043 1.1323547412799897 L3.311558844299997 1.1216060442799645 L3.3163647523000055 1.1208825742799675 L3.3238578353000197 1.1223295142799614 L3.329335537300027 1.118247076280035 L3.33062744829998 1.1184021052799906 L3.3383789132999926 1.109152024279986 L3.33801717829998 1.1085319062800139 L3.3353816803000473 1.106981614279995 L3.331557624300034 1.1019173242800164 L3.329077155300057 1.0958195052799695 L3.3305757722999534 1.091065273279959 L3.333556536300039 1.090094266280012 L3.337397060300008 1.0888431862799521 L3.354967048299999 1.0907552132799836 L3.363131924299994 1.0906001852800458 L3.3959981353000206 1.0760274312799893 L3.444522305300028 1.031068934279979 L3.473771165300052 1.0142740942799904 L3.5051904363000848 1.0126204492799573 L3.5389351462999787 1.0226973522799838 L3.600998541300031 1.0530830952800514 L3.60797486030002 1.0598527082799833 L3.6170699123000123 1.0767509002799684 L3.6251314362999825 1.0795931042800433 L3.6370686913000316 1.0801615452799993 L3.6433215403000236 1.0841923072799844 L3.653011387300028 1.099785434280001 L3.6646122303000244 1.1184537812800173 L3.6663692282999865 1.1329748592799618 L3.6583593813000324 1.1430517642799956 L3.6408410713000467 1.1485294652799851 L3.676342780300006 1.1593298402800158 L3.6852828033000424 1.1652726292800324 L3.6898303293000527 1.1736958882800153 L3.693292650300025 1.1834110572799617 L3.699080410300086 1.1934362852799794 L3.715668545300007 1.2094559792800297 L3.7352022363000845 1.2227884982799608 L3.7565446023000835 1.2334338432799612 L3.7782487043000845 1.241598720279974 L3.790185960300038 1.2422188372799283 L3.7982474833000186 1.2371545462799602 L3.805792243299992 1.2306433162799877 L3.8164892642999906 1.2268709362799726 L3.8283748443000025 1.2278011122800265 L3.8390718653000295 1.2314184622800113 L3.8600008203000176 1.2419604552799584 L3.8745776463000414 1.252121067280008 L3.8826867742999855 1.2577734432799517 L3.8884745343000464 1.2756534892800246 L3.879069424300086 1.2939469462799948 L3.856590175300072 1.3110001682800103 L3.8672355213000618 1.3224723372800398 L3.8659436103000235 1.333841151279934 L3.850492356300025 1.3573539282800269 L3.865736904300052 1.364640305279984 L3.8924019443000066 1.383967291280051 L3.906561285300045 1.3885148162799865 L3.9120389883000417 1.3865511132799568 L3.917808930299957 1.3813107792800636 L3.9227360093000403 1.376835943280021 L3.927955329299964 1.3733736222799635 L3.9358618233000175 1.3724434472800127 L3.9511580472999857 1.3762675032799692 L3.959012864300023 1.376835943280021 L4.04448568330004 1.3580773982800238 L4.0721325753000475 1.3573539282800269 L4.072804369300018 1.359110926279989 L4.076783453299997 1.3633483942799458 L4.082726244300021 1.367792568280045 L4.089134121299979 1.3704797422799757 L4.096265469300009 1.3703763892799614 L4.122000332300006 1.3648986872799824 L4.145513108299996 1.3625215712800198 L4.151869310300002 1.359007574279964 L4.156106778299959 1.3506876682799955 L4.155383307300058 1.3423677632800448 L4.153677985300009 1.334667975279963 L4.154918219300031 1.3284668032799587 L4.1681990633000385 1.3151342832800381 L4.176363939300062 1.3159094302800511 L4.184063727299973 1.3228340712800346 L4.195897630299969 1.3278983622800027 L4.209230150300003 1.3260896872800245 L4.223441168300058 1.3217488662799397 L4.2383756583000025 1.3205603092800189 L4.253139241299992 1.3278588862799765 L4.31600545230002 1.3640730792800113 L4.33163045230002 1.3688338212799849 L4.3387105303000215 1.3720076502799756 L4.35311482730002 1.3861678062799783 L4.359218343300016 1.3893416342799796 L4.3805399573000035 1.390562337279981 L4.389166259299985 1.3924340822799977 L4.396490478299983 1.3955672202800073 L4.415736897299995 1.4121687822800126 L4.4120340982999995 1.4244978842799796 L4.3794820143000255 1.4473657222800043 L4.362270100299996 1.451353353279977 L4.33748982730002 1.4460636392800197 L4.3139302572999885 1.4371931962799849 L4.3002583822999885 1.4303572592799796 L4.2859761553000215 1.4319441732800087 L4.215989176300001 1.4139184572799977 L4.1631734213000176 1.4097680662800016 L4.1631734213000176 1.417295735280014 L4.175217691300007 1.4221785482800087 L4.169154866299992 1.431577962279981 L4.156744384299985 1.4447615562799783 L4.1500712073000035 1.4613631182799836 L4.144740803299998 1.4909041342799796 L4.14404907229998 1.508889160279999 L4.1500712073000035 1.526467285279999 L4.172206624300019 1.5443709312799783 L4.205735270299998 1.554706217280021 L4.279791259299985 1.5606469722800043 L4.279791259299985 1.5681339522800144 L4.2690083822999885 1.585874837279981 L4.268031819299994 1.6035750322800126 L4.27804158529999 1.6189152022800144 L4.3002583822999885 1.6294946292799963 L4.279750569299994 1.6432478842799796 L4.274582926300001 1.6700219722800043 L4.277227783300008 1.696145019280003 L4.281703694299994 1.740171712279981 L4.2865865072999885 1.7549422202800073 L4.293137613300006 1.7692244462799849 L4.3002583822999885 1.7797224932799836 L4.309983316300007 1.7852156572800126 L4.3250386553000215 1.7913191732800087 L4.335943603299983 1.7957137042800113 L4.353236897299995 1.820127767280006 L4.3805399573000035 1.8313175452800223 L4.410569254300002 1.840025228279977 L4.430629475299996 1.8486515302800157 L4.4385640463000176 1.8577661132800003 L4.445725504300002 1.8711531572800126 L4.4480855303000215 1.886045735280014 L4.441493733300023 1.8998396812799783 L4.42452596029999 1.9160750322800126 L4.419887288299991 1.9226261392800197 L4.41756795230002 1.9306014002799756 L4.410243733300023 1.9390649412800016 L4.398606363300006 1.957212728279977 L4.389654540299988 1.9646997072799977 L4.382167561300024 1.95464925128001 L4.364670816300007 1.952940267280006 L4.344407145299998 1.9571313472800043 L4.328212483300023 1.9646997072799977 L4.392421468300016 1.9831730142800197 L4.397222900299981 1.9942000322800126 L4.400803629300002 2.0059187822800126 L4.410121663299991 2.0131209312799783 L4.406581624300019 2.0162947592799796 L4.4000712073000035 2.023618978279977 L4.396490478299983 2.0267928062799783 L4.412766520299998 2.0317569982800237 L4.4539449053000215 2.0332625322800126 L4.47217407229998 2.040383301279995 L4.461024983300023 2.058409017280006 L4.448411051300001 2.0588972982800087 L4.434820556299984 2.0518172202800073 L4.420660400299981 2.0473006182799836 L4.4165913893000255 2.0449812822800126 L4.404140218300016 2.0352156572800126 L4.400233968300016 2.033018392280006 L4.390712483300023 2.0341984052800157 L4.373256428299998 2.039243978279977 L4.3660542803000215 2.040383301279995 L4.3077046713000176 2.067727051279995 L4.304856363300006 2.0786319982800237 L4.311692301300001 2.0870955402799822 L4.3350484213000176 2.1018660482800087 L4.354661051300001 2.1194441732800087 L4.367844645299998 2.1264021812799783 L4.395920816300007 2.1303898112800184 L4.406418863300006 2.1355167642800197 L4.413905843300016 2.136656087279981 L4.426031494299979 2.1402368162800016 L4.426031494299979 2.1482120772800144 L4.420863850299996 2.156431478279977 L4.41756795230002 2.1605818682799836 L4.416469319299994 2.1826359052800157 L4.418137613300006 2.1963484702800073 L4.423793538299991 2.211118978279977 L4.434088134299985 2.2216984052800157 L4.434332275299981 2.221983235280014 L4.446051025299981 2.2305688472800043 L4.4519917803000215 2.241514485280014 L4.44491170230002 2.259580892280006 L4.458339436300024 2.271421712279981 L4.492641194299994 2.3147566732800087 L4.49093221029999 2.318540853279977 L4.490321858300023 2.3191512042800113 L4.4893452963000176 2.3191105142800197 L4.48592732730002 2.3209822592799796 L4.490565999300019 2.3373396812799783 L4.489223225299996 2.3616316732800087 L4.483607991299992 2.3854353842799796 L4.475592040299988 2.4004500322800126 L4.47140096029999 2.4165226232800237 L4.484543863300006 2.4319848632800003 L4.5264546713000176 2.460874837279981 L4.529506428299998 2.4683618162800016 L4.516566975299996 2.471779785279999 L4.5111958822999885 2.47613362628001 L4.501186116299992 2.4948917642800197 L4.496059163299991 2.499123535279999 L4.48507283529999 2.506122233280017 L4.4510965982999995 2.5537703452800073 L4.45858357730002 2.5612166342799796 L4.415736897299995 2.5859969072800126 L4.4039774573000035 2.5953149412800016 L4.392909749300019 2.6098006182799836 L4.369146728299983 2.6574080402799822 L4.375168863300006 2.679624837279981 L4.371995035300005 2.684222819279988 L4.3545796713000176 2.709003092280021 L4.3077046713000176 2.7598250322800126 L4.302455647299995 2.7785017902799822 L4.3035542803000215 2.7934757482800237 L4.3139302572999885 2.8218774412800016 L4.316575113300006 2.837258301279995 L4.3139302572999885 2.8799422202800073 L4.300787353299983 2.8973982752799756 L4.240077718300016 2.958677571279985 L4.222011311300024 2.9721053062799783 L4.205287678299998 2.977842610280014 L4.189784749300019 2.9911482752799756 L4.1668355303000215 3.0167830402799822 L4.157476806299984 3.0322859702800073 L4.1568257643000255 3.0505558272800144 L4.158656819299994 3.0679711912800016 L4.156907145299998 3.081358235280014 L4.14998982730002 3.07378987628001 L4.1420552572999885 3.0690291342799796 L4.132981363300006 3.0669539392800047 L4.074957275299981 3.06988362628001 L4.0541646322999885 3.065773926279995 L4.06006469729998 3.0477889002799756 L4.050990803299998 3.0498640952800073 L4.042323811300024 3.0527937822800126 L4.0342671713000176 3.056659342280021 L4.026536051300001 3.0614607752799756 L4.026536051300001 3.067686360280014 L4.0415913893000255 3.071145019280003 L4.0555074053000215 3.0789168292800113 L4.066900634299985 3.0899438472800043 L4.074387613300006 3.10308675128001 L4.0680399573000035 3.113544108280017 L4.0992899573000035 3.1178572592799796 L4.1084859213000176 3.1260359702800073 L4.1138570143000255 3.136534017280006 L4.126145426300001 3.1277042642800197 L4.1500712073000035 3.10308675128001 L4.1500712073000035 3.109312337279981 L4.133266194299994 3.130186360280014 L4.153245035300005 3.153176269280003 L4.20467732730002 3.1849959312799783 L4.175990803299998 3.228534342280021 L4.1631734213000176 3.239602051279995 L4.1531636553000215 3.245786946279985 L4.1459615072999885 3.2475773112800184 L4.136440022299995 3.2464379882800003 L4.123541259299985 3.2402937822800126 L4.12569783529999 3.2351261392800197 L4.133022053299998 3.230487467280021 L4.1420552572999885 3.2181990562799783 L4.140712483300023 3.2138045252799756 L4.128993733300023 3.2129500322800126 L4.1229715982999995 3.214862467280021 L4.114263915299988 3.222593587279981 L4.1021382643000255 3.2290633142800047 L4.100347900299981 3.2310164392800047 L4.097418212299987 3.23199300128001 L4.053920491299992 3.2321964522800144 L4.053920491299992 3.2260115562799783 L4.074387613300006 3.2260115562799783 L4.060715738300006 3.2186059572799977 L4.0504618323000035 3.2188094072800126 L4.033371988300006 3.2260115562799783 L3.9855611162999924 3.2321964522800144 L3.9432840982999995 3.2475773112800184 L3.925868733300023 3.2461938472800043 L3.89990844729998 3.2290633142800047 L3.8815979002999814 3.2230004882800003 L3.8074605303000215 3.209165853279977 L3.736741129300002 3.2157576502799756 L3.717454020299998 3.2129500322800126 L3.717454020299998 3.2054223632800003 L3.732590738300006 3.201353353279977 L3.7470357252999964 3.1925642902799822 L3.757167561300024 3.1800317382800003 L3.7589986162999924 3.1644881182799836 L3.7470357252999964 3.174904785279999 L3.73006795230002 3.185362142280006 L3.7103739413000074 3.1904890952800073 L3.690761311300024 3.1849959312799783 L3.683925374300019 3.191221517280006 L3.6850240072999885 3.199237467280021 L3.6864888502999964 3.202451985280014 L3.6866109213000176 3.2055851232800237 L3.683925374300019 3.2129500322800126 L3.6947489413000074 3.2081892902799822 L3.698248290299988 3.2054223632800003 L3.704433186300024 3.2054223632800003 L3.7011779782999827 3.220070801279995 L3.6980855303000215 3.2258487952800223 L3.690761311300024 3.2321964522800144 L3.697597249300019 3.232603353279977 L3.704433186300024 3.2321964522800144 L3.704433186300024 3.239602051279995 L3.7010965982999995 3.2400089522800144 L3.6940979002999814 3.2395206702800223 L3.690761311300024 3.239602051279995 L3.698248290299988 3.2464379882800003 L3.6259419752999964 3.2737410482800087 L3.6158101393000255 3.2802107752799756 L3.6044576002999964 3.292784017280006 L3.5909077963000176 3.3011254882800003 L3.5740620933000162 3.294859212279981 L3.583258056299984 3.282570801279995 L3.5951395663000074 3.2759790042799963 L3.607834879300002 3.2709334312799783 L3.619106038299991 3.263487142280006 L3.619309488300006 3.253599446279985 L3.6020161942999938 3.2129500322800126 L3.5962788893000255 3.2060734052800157 L3.586350504300002 3.1967146812799783 L3.5747131342999854 3.1885359702800073 L3.564174397299995 3.1849959312799783 L3.552903238300006 3.1784041342799796 L3.5382954912999924 3.1471541342799796 L3.5256408692999788 3.1365747072799977 L3.5285298662999924 3.148252767280006 L3.5311747232999995 3.1589949542800113 L3.5324361162999924 3.1641219072800126 L3.5331278482999995 3.1741316732800087 L3.5362202963000176 3.1788924152799822 L3.550136311300024 3.195575358280017 L3.5535542803000215 3.2054223632800003 L3.540736897299995 3.230161946279985 L3.543056233300023 3.2398461912800016 L3.56787719729998 3.239602051279995 L3.56787719729998 3.2464379882800003 L3.552008056299984 3.2544946292799963 L3.523158772299995 3.2790714522800144 L3.505824788299991 3.2874129232800087 L3.483567301300001 3.29058675128001 L3.4384419752999964 3.2914412432799836 L3.416998290299988 3.294859212279981 L3.4229390463000176 3.2836287432799836 L3.4511779782999827 3.2600691732800087 L3.4291239413000074 3.2540063472800043 L3.416672770299998 3.252785644280003 L3.4027974442999938 3.253843587279981 L3.4027974442999938 3.2600691732800087 L3.408534749300019 3.262998860280014 L3.4113423662999924 3.2660506182799836 L3.4134989413000074 3.269468587279981 L3.416998290299988 3.2737410482800087 L3.406581624300019 3.2726424152799822 L3.393723551300001 3.2680037432799836 L3.3857076002999964 3.266905110280014 L3.373378499300019 3.269468587279981 L3.3666646322999885 3.275327962279981 L3.36202596029999 3.2821639002799756 L3.355556233300023 3.2874129232800087 L3.335658772299995 3.2930281572800126 L3.317063395299998 3.2930281572800126 L3.279262288299991 3.2874129232800087 L3.0875712073000035 3.300108235280014 L3.018723551300001 3.323098144280003 L2.981614176300001 3.328387858280017 L2.9768127442999788 3.3308699542800113 L2.973069254300002 3.3360375972800043 L2.9677388502999964 3.3408797202800073 L2.95772908529999 3.342059733280017 L2.95077107730002 3.3381941732800087 L2.946539306299984 3.331154785279999 L2.9436096192999788 3.3245222982800087 L2.9403951002999964 3.3215519202800223 L2.9230611162999924 3.3247664392800047 L2.904018147299995 3.33355550128001 L2.891933186300024 3.3467390952800073 L2.895676676300001 3.363096517280006 L2.905442301300001 3.3555688472800043 L2.9208638502999964 3.3541040042799963 L2.9391337073000035 3.3571964522800144 L2.968918863300006 3.3655379232800087 L2.9762430823000035 3.366514485280014 L2.977870686300024 3.370786946279985 L2.972011311300024 3.382993978279977 L2.9403951002999964 3.3972762042800113 L2.9366109213000176 3.427671712279981 L2.93311157229998 3.4346297202800073 L2.9247701002999964 3.4367049152799822 L2.91476033529999 3.4378442382800003 L2.9065002442999788 3.4419539392800047 L2.8876200353000048 3.449034017280006 L2.8345601393000255 3.4454125972800043 L2.813726806299984 3.4519230142800197 L2.80538533529999 3.4658797202800073 L2.8056294752999964 3.4761743162800016 L2.7997294103000048 3.4812198892800197 L2.693690999300019 3.472349446279985 L2.690598551300001 3.4681990562799783 L2.68897094729998 3.4590437822800126 L2.6845357252999964 3.4498885092799796 L2.673183186300024 3.4456567382800003 L2.671230061300024 3.4486678062799783 L2.670009358300023 3.4506209312799783 L2.6688700353000048 3.474424642280006 L2.666347249300019 3.482928873279967 L2.6531636553000215 3.496275228279977 L2.638759358300023 3.506691894280003 L2.6218322752999814 3.5131209312799783 L2.6007954912999924 3.5139754232800087 L2.63037719729998 3.530943196279985 L2.6424214683000162 3.5337915042799963 L2.63155721029999 3.5438826502799756 L2.6088521322999885 3.5499861652799822 L2.5673075353000048 3.5556014002799756 L2.5148579912999924 3.570005696279985 L2.499965413299991 3.582212728279977 L2.518886311300024 3.595884603279977 L2.5024475092999854 3.6018660482800087 L2.426926676300001 3.6116723632800003 L2.388840738300006 3.621031087279981 L2.3258524573000035 3.6248559572799977 L2.2982645663000074 3.623228353279977 L2.286830647299995 3.6237166342799796 L2.2768208822999885 3.623065592280021 L2.272467040299988 3.6194848632800003 L2.2750712073000035 3.6123640952800073 L2.2818257643000255 3.607237142280006 L2.29061482730002 3.603778483280017 L2.2997701002999964 3.6021101892800047 L2.297532145299998 3.598488769280003 L2.292934163299991 3.5890486652799822 L2.3073791502999814 3.5873396812799783 L2.3213765463000176 3.583799642280006 L2.3348042803000215 3.577818196279985 L2.347621663299991 3.568622233280017 L2.34139607730002 3.5664656572800126 L2.3361877442999788 3.56402425128001 L2.3299214683000162 3.5621118162800016 L2.3202372232999995 3.5617862952800223 L2.32772420230002 3.548765462279981 L2.3325256342999854 3.5446964522800144 L2.3407857252999964 3.541278483280017 L2.3359436032999827 3.5326521812799783 L2.329270426300001 3.530373535279999 L2.3214986162999924 3.5336287432799836 L2.312831624300019 3.541278483280017 L2.2997701002999964 3.5357039392800047 L2.279465738300006 3.532896321279985 L2.238368733300023 3.5337915042799963 L2.238368733300023 3.5276472982800087 L2.229823811300024 3.5224796552800157 L2.2126525872999867 3.52496175128001 L2.1941792803000215 3.530373535279999 L2.1756245933000162 3.5337915042799963 L2.1345275872999867 3.532326660279999 L2.1141825353000048 3.5339949542800113 L2.0936747232999995 3.541278483280017 L2.1269592282999827 3.549009603279977 L2.1688700353000048 3.5527937822800126 L2.193772379300002 3.564471842280021 L2.1756245933000162 3.595884603279977 L2.2131408692999788 3.593687337279981 L2.224696858300023 3.595884603279977 L2.224696858300023 3.6021101892800047 L2.2178609213000176 3.6021101892800047 L2.2178609213000176 3.609556478279977 L2.226731363300006 3.6141951502799756 L2.2309224442999938 3.6157820642800047 L2.216518147299995 3.6179386392800197 L2.209967040299988 3.6201765952800073 L2.203538004300002 3.623228353279977 L2.238368733300023 3.623228353279977 L2.221034749300019 3.6399112952800223 L2.2178609213000176 3.643654785279999 L2.2192443842999854 3.6491886392800197 L2.2233947752999814 3.6540714522800144 L2.2256734213000176 3.6597680662800016 L2.2212788893000255 3.6675805662800016 L2.1882385252999814 3.690529785279999 L2.17733357730002 3.701109212279981 L2.150478108300023 3.710264485280014 L2.113002522299995 3.7160017902799822 L2.100592040299988 3.7217390952800073 L2.08748982730002 3.7330916342799796 L2.0812642412999924 3.7218611652799822 L2.0672261553000215 3.7134790042799963 L2.051112874300019 3.7095320642800047 L2.0390686032999827 3.7119734702800073 L2.0537984213000176 3.7191756182799836 L2.0588439942999788 3.7307722982800087 L2.054042561300024 3.7417179362800184 L2.0390686032999827 3.747373860280014 L2.031907145299998 3.7271101892800047 L2.0105855303000215 3.7197452802800157 L1.9646057122999867 3.7194197592799796 L1.9646057122999867 3.7256453452800073 L1.9746968583000228 3.7294295252799756 L1.9950419103000048 3.7307722982800087 L2.0055399573000035 3.7330916342799796 L2.0148579912999924 3.726581217280021 L2.0209208163000074 3.725441894280003 L2.025478108300023 3.7330916342799796 L2.023402913299991 3.7388289392800047 L2.0165262853000048 3.7433455402799822 L2.008144124300019 3.746275228279977 L2.0018778482999995 3.747373860280014 L1.9865376782999977 3.77105550128001 L1.9838521322999885 3.7774031572800126 L1.9848286942999938 3.788389485280014 L1.9894673662999924 3.8034855142800197 L1.9912984213000176 3.8150008142800047 L1.9786031083000228 3.8078800452800223 L1.9643208822999885 3.7877791342799796 L1.9503641763000008 3.78082112628001 L1.9339253743000189 3.7798852542799963 L1.8848531083000228 3.7883487952800223 L1.7653869622999867 3.78082112628001 L1.7797505692999938 3.79058675128001 L1.7964742023000202 3.7944523112800184 L1.833013915299988 3.79449300128001 L1.833013915299988 3.8019392902799822 L1.8264221192999788 3.8047875972800043 L1.8200744622999867 3.808775228279977 L1.8405008952999982 3.8150008142800047 L1.8295552572999885 3.8211043292800113 L1.823248290299988 3.8285506182799836 L1.8222310382999911 3.8376652022800144 L1.8268697102999898 3.8491398112800184 L1.7890279132999911 3.8460066732800087 L1.7802388502999964 3.8501570642800047 L1.77295532229998 3.8463728842799796 L1.7659566243000189 3.839781087279981 L1.7578999833000228 3.83550862628001 L1.7210347493000189 3.83550862628001 L1.71045532229998 3.8338403322799977 L1.7028055823000035 3.831154785279999 L1.6963765463000176 3.8306258142800047 L1.6896626782999977 3.83550862628001 L1.6691548662999924 3.8298527022800144 L1.6549947102999898 3.8413273112800184 L1.6444966632999911 3.8585799152799822 L1.6350158692999788 3.870217285279999 L1.5996968583000228 3.8776228842799796 L1.5940816243000189 3.8798201502799756 L1.5898498532999827 3.890440267280006 L1.5809794103000048 3.888039551279995 L1.5724751782999977 3.8807153322799977 L1.56983032229998 3.8764021812799783 L1.5630757643000255 3.874367676279995 L1.543137613300006 3.8650903322799977 L1.5319071452999982 3.8628116862800184 L1.5202290852999898 3.8636254882800003 L1.5053365072999885 3.868955892280006 L1.4501607252999964 3.8764021812799783 L1.4373433433000162 3.8735945642800047 L1.4148824053000215 3.864927571279985 L1.4022684732999995 3.8628116862800184 L1.4022684732999995 3.870217285279999 L1.4067036942999938 3.8716821292799963 L1.415289306299984 3.8764021812799783 L1.4073140463000176 3.8878767902799822 L1.3948628743000189 3.896503092280021 L1.3797261553000215 3.90191487628001 L1.3644266763000008 3.9037459312799783 L1.3384663893000255 3.8995955402799822 L1.3304911293000021 3.9011824542800113 L1.3334208163000074 3.9111922202800073 L1.3334208163000074 3.9174178062799783 L1.3190572102999898 3.917784017280006 L1.3121805823000035 3.924090983280017 L1.3072977702999982 3.9323103842799796 L1.2992411293000021 3.9384952802800157 L1.2882954912999924 3.9393090822799977 L1.2792622882999911 3.9364607752799756 L1.2699849442999938 3.9346297202800073 L1.2582661942999938 3.9384952802800157 L1.2576558433000162 3.931659342280021 L1.2555399573000035 3.9269392902799822 L1.252935790299988 3.9227889002799756 L1.2509012853000048 3.9174178062799783 L1.2235575353000048 3.9282820642800047 L1.2212788893000255 3.93707112628001 L1.2155822752999814 3.9384952802800157 L1.2077290852999898 3.9381697592799796 L1.1993062333000228 3.9419539392800047 L1.1877095532999977 3.94878987628001 L1.1737935382999911 3.9517602542799963 L1.141607665299988 3.9521671552800157 L1.1530822752999814 3.947202962279981 L1.1623189282999977 3.9419539392800047 L1.1698872882999911 3.934914551279995 L1.1763570143000255 3.9248640952800073 L1.1618713372999867 3.93121175128001 L1.150111897299995 3.9345076502799756 L1.1461649573000035 3.9311710612800184 L1.1552388502999964 3.9174178062799783 L1.1659403482999995 3.9086287432799836 L1.1906392412999924 3.898130696279985 L1.2030904132999911 3.8907250972800043 L1.2001200353000048 3.8884464522800144 L1.1988993323000035 3.8877547202800073 L1.1979634602999898 3.886656087279981 L1.1955627442999788 3.8832381182799836 L1.187221272299995 3.8885278322799977 L1.1552388502999964 3.9006941732800087 L1.1513326002999964 3.906431478279977 L1.1419331863000242 3.913389485280014 L1.1211812333000228 3.9248640952800073 L1.1091369622999867 3.9146508792799963 L1.1104390463000176 3.9050887042800113 L1.1171529132999911 3.8940616862800184 L1.1211812333000228 3.8798201502799756 L1.1141825353000048 3.8735945642800047 L1.0979878743000189 3.8682234702800073 L1.0797587073000035 3.8662703452800073 L1.0664937333000228 3.870217285279999 L1.0750386553000215 3.882139485280014 L1.0464742023000202 3.8907250972800043 L0.9755513502999964 3.9004907222800043 L0.9716451002999964 3.904559733280017 L0.9702209472999801 3.914325358280017 L0.9667215982999995 3.917661946279985 L0.9491434732999995 3.9168074542800113 L0.9423075353000048 3.9174178062799783 L0.9230611162999924 3.9288924152799822 L0.9117085773000202 3.9319441732800087 L0.8946187333000228 3.9317000322800126 L0.8933980303000215 3.9217309572799977 L0.8811909993000189 3.9105818682799836 L0.8671122232999995 3.905617676279995 L0.860357665299988 3.914325358280017 L0.8058329263000008 3.9453719072800126 L0.8122212722999951 3.9498071292799963 L0.8149475092999854 3.9512312822800126 L0.8195048013000008 3.9521671552800157 L0.7511861162999924 3.972674967280021 L0.7540751133000061 3.9614851892800047 L0.7450826002999964 3.9635603842799796 L0.7163960773000202 3.9800805662800016 L0.7096415202999982 3.972674967280021 L0.7028055823000035 3.9800805662800016 L0.704107665299988 3.967303873279967 L0.7060201002999964 3.9626652022800144 L0.7096415202999982 3.958352051279995 L0.7096415202999982 3.9521671552800157 L0.7008524573000035 3.9503767902799822 L0.6967020663000074 3.9480574542800113 L0.6891337073000035 3.9384952802800157 L0.7110249833000228 3.9342635092799796 L0.7292134602999898 3.9261254882800003 L0.7648579912999924 3.9037459312799783 L0.7829650872999867 3.8960148112800184 L0.8180399573000035 3.8900740562799783 L0.8399312333000228 3.8832381182799836 L0.8576314282999977 3.8742049152799822 L0.901373290299988 3.8429549152799822 L0.9202534993000189 3.833799642280006 L0.9562642412999924 3.8235050452800223 L0.9771382643000255 3.8150008142800047 L0.9309956863000242 3.81207112628001 L0.7380025222999951 3.873309733280017 L0.6755025222999951 3.8764021812799783 L0.7177388502999964 3.859068196279985 L0.7269755043000021 3.856545410279999 L0.7366597493000189 3.8523136392800197 L0.7437398273000202 3.8429549152799822 L0.7526916502999814 3.83355550128001 L0.7918355303000215 3.8248885092799796 L0.915045165299988 3.783384603279977 L0.9284729002999814 3.7702823892800197 L0.9611470532999977 3.7676375322800126 L0.9982971192999788 3.7554711912800016 L1.0351216632999911 3.7500594072800126 L1.0644185382999911 3.7417993162800016 L1.0664937333000228 3.7256453452800073 L1.0712544752999964 3.7208032222800043 L1.0756083163000074 3.7149031572800126 L1.0800842282999827 3.7119734702800073 L1.0800842282999827 3.7057478842799796 L1.0657613113000242 3.701190592280021 L1.0502176913000074 3.706968587279981 L1.0332092282999827 3.7112410482800087 L1.0102193192999938 3.6998885092799796 L1.0015523273000202 3.7002547202800073 L0.9975646972999801 3.698911946279985 L0.9965881342999854 3.695005696279985 L0.9985005692999938 3.6823917642800197 L0.9975646972999801 3.6784855142800197 L0.9912984213000176 3.6742537432799836 L0.9827534993000189 3.669859212279981 L0.9729064942999788 3.666278483280017 L0.9628153482999995 3.6641625972800043 L0.9671284993000189 3.677102051279995 L0.9657450353000048 3.6863387042800113 L0.9663960773000202 3.69488362628001 L0.9771382643000255 3.7057478842799796 L0.9569559732999995 3.7090844722800043 L0.9433654782999827 3.7151879882800003 L0.9156962073000035 3.7330916342799796 L0.8962056472999951 3.740741373279967 L0.8749654132999911 3.744973144280003 L0.8095357252999964 3.749326985280014 L0.7750712073000035 3.7583601892800047 L0.6488911942999938 3.7695906572800126 L0.6076721192999788 3.781187337279981 L0.5929423013000008 3.7883487952800223 L0.5911519363000242 3.7910750322800126 L0.5909077963000176 3.794737142280006 L0.5900939942999788 3.798521321279985 L0.5866760252999814 3.8019392902799822 L0.5811421713000176 3.8044620772800144 L0.5182759602999898 3.817238769280003 L0.49422810830002284 3.8292830402799822 L0.4827534993000189 3.828143717280021 L0.4631001782999977 3.8230167642800197 L0.45296834330001623 3.82183675128001 L0.40690714529999816 3.825498860280014 L0.3843648273000202 3.8318872072799977 L0.3669494622999867 3.8429549152799822 L0.3601949053000215 3.83550862628001 L0.3677632643000255 3.831968587279981 L0.36979777029999816 3.8264754232800087 L0.37032674129999243 3.8203719072800126 L0.3737854002999814 3.8150008142800047 L0.3797261553000215 3.812193196279985 L0.4479634602999898 3.8003930662800016 L0.4632222493000189 3.79449300128001 L0.4632222493000189 3.7900984702800073 L0.46200154630001755 3.7891219072800126 L0.4595601393000255 3.789325358280017 L0.45638631130002416 3.7883487952800223 L0.4603739413000074 3.7759383142800047 L0.45235799129999243 3.7687361652799822 L0.4377095532999977 3.765887858280017 L0.4222066243000189 3.7665389002799756 L0.43490193630002416 3.754169108280017 L0.4566304523000202 3.7514021812799783 L0.49727986629999243 3.7535180662800016 L0.5192525222999951 3.747740071279985 L0.5661682122999867 3.7194197592799796 L0.5661682122999867 3.7119734702800073 L0.5252339683000162 3.7119734702800073 L0.5423238113000242 3.6939070642800047 L0.5736551913000074 3.6787703452800073 L0.6081197102999898 3.668231608280017 L0.6344868972999951 3.6641625972800043 L0.6313537592999854 3.6687605792800113 L0.625982665299988 3.679055176279995 L0.6207743323000035 3.6846297202800073 L0.6385152183000162 3.6823917642800197 L0.6551167803000215 3.6771834312799783 L0.6665100092999854 3.6671736652799822 L0.6686258952999982 3.6504907222800043 L0.6817281083000228 3.656065267280006 L0.6992248532999827 3.6579777022800144 L0.7375142412999924 3.6572859702800073 L0.7375142412999924 3.6504907222800043 L0.7296610513000008 3.6495955402799822 L0.7096415202999982 3.643654785279999 L0.7096415202999982 3.6375105792800113 L0.7231506342999854 3.6320174152799822 L0.7487040202999982 3.6135847982800087 L0.7685201002999964 3.6067081702800223 L0.7801167803000215 3.59332112628001 L0.7853658032999977 3.5890486652799822 L0.7931783032999977 3.5877465822799977 L0.8195048013000008 3.5890486652799822 L0.8519755043000021 3.5827823892800197 L0.9104878743000189 3.5622745772800144 L0.9423075353000048 3.5556014002799756 L0.9423075353000048 3.5481144202800223 L0.8698791502999814 3.554014485280014 L0.7649800613000242 3.5787947592799796 L0.7458557122999867 3.5860375972800043 L0.7375142412999924 3.5924666342799796 L0.7312886553000215 3.598977051279995 L0.6983296713000176 3.598936360280014 L0.6829488113000242 3.6021101892800047 L0.6891337073000035 3.609556478279977 L0.659185790299988 3.6215193682799836 L0.6481587722999951 3.623228353279977 L0.6503153482999995 3.618467610280014 L0.6530822752999814 3.607115071279985 L0.6549947102999898 3.6021101892800047 L0.6408345532999977 3.6021101892800047 L0.6325337722999951 3.6062198892800197 L0.6269185382999911 3.6116723632800003 L0.6207743323000035 3.6157820642800047 L0.6088114413000074 3.618467610280014 L0.5847229002999814 3.620786946279985 L0.5730855303000215 3.623228353279977 L0.5293843583000228 3.6448347982800087 L0.5062723793000021 3.6511417642800197 L0.48364868129998406 3.643654785279999 L0.4635884602999898 3.657082519280003 L0.43848266529998803 3.669859212279981 L0.4118306472999951 3.6797469072800126 L0.3874165852999898 3.6846297202800073 L0.3932759602999898 3.67144612628001 L0.29867146830001623 3.643654785279999 L0.3368794752999964 3.6361678062799783 L0.3459533692999788 3.6121199542800113 L0.3288228352999898 3.5866886392800197 L0.28841756130002416 3.5747664392800047 L0.2769429523000202 3.5801782222800043 L0.25179646830001623 3.6041040042799963 L0.2404032383000061 3.609556478279977 L0.2282775872999867 3.6133813472800043 L0.19727172829998274 3.6316105142800197 L0.18197224930001887 3.6375105792800113 L0.17643839529999816 3.624693196279985 L0.18831990530002152 3.595518392280006 L0.18197224930001887 3.582212728279977 L0.16732381130002416 3.5801782222800043 L0.14714152029999816 3.581358235280014 L0.13412068630002416 3.5796085612800184 L0.14107869429999376 3.568622233280017 L0.14054972329999948 3.563820801279995 L0.1381896972999801 3.562437337279981 L0.13566691030000477 3.5623559572799977 L0.13424275729998847 3.5617862952800223 L0.1363179523000202 3.5580428062799783 L0.13839314729999508 3.5556014002799756 L0.1402242023000202 3.552915853279977 L0.14107869429999376 3.5481144202800223 L0.1376607252999964 3.5477889002799756 L0.13078409829999948 3.5482771812799783 L0.12740681929999376 3.5481144202800223 L0.12740681929999376 3.541278483280017 L0.16036580329999772 3.5385929362800184 L0.24341430629998406 3.5202010092799796 L0.26082967130001755 3.5202010092799796 L0.26888631130002416 3.5171085612800184 L0.27214152029999816 3.510272623279967 L0.2714497882999911 3.5034366862800184 L0.26799112930000213 3.5003035482800087 L0.2538309732999995 3.494973144280003 L0.24520467130001755 3.4838240562799783 L0.23503214529999816 3.473936360280014 L0.21615193630002416 3.472349446279985 L0.21615193630002416 3.466164551279995 L0.2277079263000008 3.4615258792799963 L0.2524475092999854 3.4560734052800157 L0.2645731603000048 3.4519230142800197 L0.2568013502999964 3.437315267280006 L0.2775939942999788 3.4307234702800073 L0.30567016529998803 3.426857910279999 L0.3312235513000008 3.415952962279981 L0.3948628743000189 3.3972762042800113 L0.4897521972999801 3.384702962279981 L0.5303609213000176 3.3698917642800197 L0.5519673662999924 3.335874837279981 L0.5594136553000215 3.335874837279981 L0.5592915852999898 3.3538191732800087 L0.5686909993000189 3.3616316732800087 L0.5826883952999982 3.363462728279977 L0.5966451002999964 3.363096517280006 L0.5934305823000035 3.3538598632800003 L0.6145894363000242 3.294859212279981 L0.645513915299988 3.3062524412800016 L0.6768452963000176 3.3072290042799963 L0.7511861162999924 3.3010847982800087 L0.7441060382999911 3.2972192382800003 L0.7355204263000008 3.290383301279995 L0.7300679523000202 3.2874129232800087 L0.7648579912999924 3.2737410482800087 L0.5661682122999867 3.280576985280014 L0.5792704263000008 3.3010847982800087 L0.5729634602999898 3.3125594072800126 L0.5683654782999827 3.3169946292799963 L0.5624247232999995 3.3008406572800126 L0.5526997882999911 3.2941267902799822 L0.5395161942999938 3.289895019280003 L0.5252339683000162 3.2874129232800087 L0.4949605303000215 3.2861515302800157 L0.36060180629998406 3.3070662432799836 L0.3367574053000215 3.316343587279981 L0.3258931472999951 3.310362142280006 L0.3160054523000202 3.300718587279981 L0.3055074053000215 3.294859212279981 L0.2951314282999977 3.2973819982800237 L0.28841756130002416 3.3034041342799796 L0.2809712722999951 3.306008301279995 L0.2552958163000074 3.2899764002799756 L0.2441060382999911 3.2894067382800003 L0.21615193630002416 3.294859212279981 L0.21615193630002416 3.3010847982800087 L0.22603963229998847 3.301044108280017 L0.23446248330002284 3.302549642280006 L0.2509419752999964 3.3078800452800223 L0.2509419752999964 3.3140649412800016 L0.22559204029998803 3.311379394280003 L0.17814737930000213 3.3011254882800003 L0.15470987930000213 3.3010847982800087 L0.15560506130002416 3.3077986652799822 L0.15865681929999376 3.3108911132800003 L0.16895141529998803 3.3140649412800016 L0.14730428030002152 3.3145125322800126 L0.10775349930001887 3.326109212279981 L0.08643188429998538 3.328387858280017 L0.062261962299986706 3.3227726232800237 L0.05550740530002152 3.3106469722800043 L0.05371704029998803 3.2937605792800113 L0.044846598299999485 3.2737410482800087 L0.05355428030002152 3.2706892902799822 L0.07210896830001623 3.2600691732800087 L0.07210896830001623 3.253843587279981 L0.061732991299992435 3.245786946279985 L0.07332967130001755 3.2368758142800047 L0.09481404630001755 3.2294295252799756 L0.11373494429999376 3.2260115562799783 L0.10637003530000477 3.239602051279995 L0.1284240722999801 3.2509952802800157 L0.14095662430001887 3.253843587279981 L0.15096638930002548 3.250181478279977 L0.15377400729998847 3.242124837279981 L0.1503560382999911 3.2351668292800113 L0.14986775729998847 3.2279646812799783 L0.16154581630000742 3.2190942382800003 L0.15145467130001755 3.214211426279995 L0.14722290029998142 3.2129500322800126 L0.15645955329999772 3.1975691732800087 L0.16830037430001887 3.193540853279977 L0.18327433230000345 3.1939070642800047 L0.20248006130002416 3.191221517280006 L0.2140360513000008 3.1838972982800087 L0.23604939729999508 3.1621687822800126 L0.2472391763000008 3.1576521812799783 L0.3511617023000202 3.1389754232800087 L0.3669494622999867 3.1471541342799796 L0.35482381130002416 3.18511800128001 L0.35677693630002416 3.191221517280006 L0.4222066243000189 3.1849959312799783 L0.45158487930000213 3.1744978842799796 L0.4781148273000202 3.156512858280017 L0.48698527029999816 3.1354353842799796 L0.4632222493000189 3.1161482752799756 L0.4982564282999977 3.1156599932799836 L0.5094868972999951 3.1194441732800087 L0.5047261553000215 3.129738769280003 L0.5094462073000035 3.1443058272800144 L0.5102193192999938 3.1599308272800144 L0.5142476393000255 3.1724226892800047 L0.5286519363000242 3.177549642280006 L0.5448872882999911 3.179380696279985 L0.5755269363000242 3.1881697592799796 L0.6093404132999911 3.192727051279995 L0.6508036293000021 3.1931339522800144 L0.6649637853000048 3.1880883792799963 L0.6857971192999788 3.1714868162800016 L0.6974344883000061 3.16753987628001 L0.7096415202999982 3.1707137042800113 L0.7028055823000035 3.173846842280021 L0.6965393062999841 3.177549642280006 L0.7129781083000228 3.1836531572800126 L0.7853658032999977 3.177549642280006 L0.7696187333000228 3.1674991862800184 L0.7553771972999801 3.1648136392800197 L0.7238423662999924 3.1644881182799836 L0.6912495933000162 3.1531355792800113 L0.6762349442999938 3.1508162432799836 L0.661138915299988 3.1576521812799783 L0.6536519363000242 3.1526472982800087 L0.6481180823000035 3.1465437822800126 L0.6442525222999951 3.1389754232800087 L0.6419331863000242 3.129738769280003 L0.6540588372999867 3.1370222982800087 L0.6634175613000242 3.1410506182799836 L0.6737935382999911 3.1410506182799836 L0.6891337073000035 3.1365747072799977 L0.6762349442999938 3.1318953452800073 L0.6696838372999867 3.1303898112800184 L0.661138915299988 3.129738769280003 L0.661138915299988 3.1223331702800223 L0.6711079912999924 3.1221297202800073 L0.6965393062999841 3.1161482752799756 L0.6853902183000162 3.0993839522800144 L0.6885640463000176 3.0505558272800144 L0.6720438633000061 3.040342610280014 L0.6193094883000061 3.0342390952800073 L0.5912740072999885 3.0259383142800047 L0.5730855303000215 3.013690592280021 L0.5880594883000061 3.0042504882800003 L0.6071431472999951 3.000181478279977 L0.6746480303000215 2.997373860280014 L0.7740946452999982 2.9690535482800087 L0.7874409993000189 2.9621769202800223 L0.8024149573000035 2.948545735280014 L0.8195048013000008 2.942238769280003 L0.8456278482999995 2.9426456702800223 L0.8716695143000255 2.94683675128001 L0.8883931472999951 2.9522078452800073 L0.8842427572999885 2.9386580402799822 L0.8725240072999885 2.9319441732800087 L0.8566548662999924 2.9299910482800087 L0.8399312333000228 2.9311710612800184 L0.8457092282999827 2.9260847982800087 L0.8478251133000061 2.9209578452800073 L0.8459126782999977 2.915708821279985 L0.8399312333000228 2.9106632482800237 L0.8399312333000228 2.9038273112800184 L0.8481099442999938 2.897764485280014 L0.8498189282999977 2.891905110280014 L0.8473775222999951 2.8799422202800073 L0.8510803222999801 2.872862142280006 L0.8747212722999951 2.855406087279981 L0.8802144363000242 2.8584578452800073 L0.8865620933000162 2.855650228279977 L0.8944966632999911 2.8510115562799783 L0.9051167803000215 2.8485701502799756 L0.9460510252999814 2.855406087279981 L1.025559488300006 2.855406087279981 L1.0334126782999977 2.857603353279977 L1.042690022299995 2.8619978842799796 L1.0526997882999911 2.8639510092799796 L1.0627502442999788 2.8591495772800144 L1.0700744622999867 2.8525984702800073 L1.0765034993000189 2.849546712279981 L1.0846415202999982 2.8486515302800157 L1.1604878743000189 2.8503605142800197 L1.1643127442999788 2.850441894280003 L1.1726135252999814 2.8519881182799836 L1.1871805823000035 2.8477563472800043 L1.2509012853000048 2.8485701502799756 L1.2865458163000074 2.8441756182799836 L1.3027404782999827 2.8401879882800003 L1.3163309732999995 2.8314803062799783 L1.3306538893000255 2.825295410279999 L1.452398681299984 2.801613769280003 L1.4706278482999995 2.7939640302800157 L1.4788472493000189 2.804950358280017 L1.497076415299988 2.8074324542800113 L1.5174214683000162 2.804950358280017 L1.5319071452999982 2.800799967280021 L1.5377665202999982 2.795103353279977 L1.5440327963000176 2.7859073892800197 L1.552008056299984 2.777281087279981 L1.5630757643000255 2.7734969072800126 L1.7380432122999867 2.7598250322800126 L1.7718566893000105 2.7528263342799946 L1.7536682122999867 2.7526228842799796 L1.6885640463000176 2.7366316732800087 L1.655523681299984 2.7324812822800126 L1.5903381342999854 2.7387068682799836 L1.5733296713000176 2.7368758142800047 L1.5621805823000035 2.732115071279985 L1.5609598793000021 2.7257674152799822 L1.5736551913000074 2.7188500972800043 L1.5736551913000074 2.712014160279999 L1.5695048013000008 2.703387858280017 L1.5709696452999982 2.6914656572800126 L1.568528238300006 2.6810896812799783 L1.5531473793000021 2.67730550128001 L1.5616109213000176 2.669248860280014 L1.5727193192999938 2.656268717280021 L1.5804097493000189 2.650572103279977 L1.5541239413000074 2.6549666342799796 L1.5227925613000242 2.665342610280014 L1.4994364413000074 2.6786482752799756 L1.4972391763000008 2.6915063472800043 L1.4648091632999911 2.7290226232800237 L1.376226806299984 2.8020206702800223 L1.3572652183000162 2.8082055662800016 L1.2682352702999982 2.814390462279981 L1.2631083163000074 2.8171980792800113 L1.2472391763000008 2.8305851232800237 L1.2372294103000048 2.8349796552800157 L1.2249409993000189 2.8360375972800043 L1.2123270663000074 2.8351424152799822 L1.2002827963000176 2.8323347982800087 L1.1899475092999854 2.828062337279981 L1.2058980303000215 2.8193546552800157 L1.227789306299984 2.810484212279981 L1.2443501782999977 2.8000675452800223 L1.2440653482999995 2.786477051279995 L1.21240844729998 2.798521321279985 L1.1393697102999898 2.812681478279977 L1.0885477702999982 2.813780110280014 L1.0668599442999938 2.8113387042800113 L1.0475728352999898 2.80621175128001 L1.039231363300006 2.7973819982800237 L1.0323140463000176 2.7916853842799796 L0.9981343583000228 2.788755696279985 L0.9845845532999977 2.7803328452800073 L0.9897521972999801 2.7648299152799822 L0.9788472493000189 2.759133301279995 L0.9423075353000048 2.7598250322800126 L0.9423075353000048 2.7666609702800073 L0.9516662592999854 2.768654785279999 L0.9596415202999982 2.7727237952800223 L0.9660298662999924 2.7787459312799783 L0.9702209472999801 2.786477051279995 L0.8946187333000228 2.8082055662800016 L0.8503072102999898 2.814146321279985 L0.8286193842999854 2.8201684572799977 L0.8195048013000008 2.8314803062799783 L0.8161682122999867 2.8455590822799977 L0.8085184732999995 2.8471866862800184 L0.7994038893000255 2.8435245772800144 L0.7922017412999924 2.841734212279981 L0.7655497232999995 2.8538191732800087 L0.5866760252999814 2.869077962279981 L0.5866760252999814 2.86285237628001 L0.6048238113000242 2.857684733280017 L0.6473856603000048 2.838967285279999 L0.6989400222999951 2.8306258142800047 L0.901373290299988 2.712014160279999 L0.8987691243000189 2.708311360280014 L0.8946187333000228 2.698342285279999 L0.9054829912999924 2.6951684572799977 L0.9198465982999995 2.6880476892800047 L0.9293680823000035 2.6847517902799822 L0.9423075353000048 2.6824324542800113 L0.973638915299988 2.6847517902799822 L0.9848286942999938 2.683531087279981 L1.0035054523000202 2.6784855142800197 L1.014654540299988 2.67730550128001 L1.0243794752999964 2.6732771812799783 L1.0284077963000176 2.663755696279985 L1.0317036942999938 2.6524438472800043 L1.039231363300006 2.6431258142800047 L1.0338602702999982 2.6389754232800087 L1.0336975092999854 2.6384464522800144 L1.0363423662999924 2.6370222982800087 L1.039231363300006 2.6300642902799822 L1.0317443842999854 2.62261800128001 L1.0424051913000074 2.618955892280006 L1.0532287592999854 2.612608235280014 L1.0635640463000176 2.6044295252799756 L1.0726786293000021 2.5953149412800016 L1.0785380043000021 2.5864444982800237 L1.0816304523000202 2.5786319982800237 L1.0855367023000202 2.5723250322800126 L1.0938374833000228 2.568052571279985 L1.0938374833000228 2.5612166342799796 L1.0955464683000162 2.5480330402799822 L1.15772094729998 2.511656087279981 L1.168951415299988 2.4922875972800043 L1.1501525872999867 2.4886254882800003 L1.0716206863000242 2.4911482752799756 L1.0453755692999938 2.485451660279999 L1.0735738113000242 2.4682804362800184 L1.08545532229998 2.4590437822800126 L1.1150777183000162 2.4287703452800073 L1.1244771322999885 2.421690267280006 L1.1354227702999982 2.4171736652799822 L1.127935790299988 2.410337728279977 L1.1814025872999867 2.3488142902799822 L1.2030904132999911 2.3346541342799796 L1.2196919752999964 2.3178898112800184 L1.2333638502999964 2.296568196279985 L1.2508199053000215 2.279112142280006 L1.2719380692999938 2.2738631182799836 L1.2955790202999982 2.2822452802800157 L1.3424947102999898 2.3090193682799836 L1.3644266763000008 2.3147566732800087 L1.3834696452999982 2.310362142280006 L1.4040588372999867 2.302427571279985 L1.4263570143000255 2.298765462279981 L1.4501607252999964 2.3073103842799796 L1.4529683433000162 2.2913191732800087 L1.4386861162999924 2.282326660279999 L1.3948628743000189 2.2738631182799836 L1.3948628743000189 2.2663761392800197 L1.4534566243000189 2.259580892280006 L1.4690816243000189 2.263365071279985 L1.4995992023000202 2.278623860280014 L1.5189676913000074 2.2800480142800197 L1.5189676913000074 2.2738631182799836 L1.4773824053000215 2.259580892280006 L1.4773824053000215 2.2520532222800043 L1.5004536942999938 2.2583601892800047 L1.513393147299995 2.259702962279981 L1.52490844729998 2.251890462279981 L1.5363423662999924 2.2487980142800197 L1.5441548662999924 2.250018717280021 L1.5388244622999867 2.259580892280006 L1.5487935382999911 2.267840983280017 L1.5595357252999964 2.2739851892800047 L1.5719462073000035 2.2780135092799796 L1.5866353352999898 2.2800480142800197 L1.5778055823000035 2.2596215822799977 L1.5729227702999982 2.2520532222800043 L1.5661682122999867 2.245909017280006 L1.5790262853000048 2.2307722982800087 L1.5948140463000176 2.2199080402799822 L1.628179931299984 2.204893392280006 L1.6176411942999938 2.205096842280021 L1.598883056299984 2.2098982752799756 L1.5903381342999854 2.211118978279977 L1.4915425613000242 2.209165853279977 L1.4773824053000215 2.204893392280006 L1.4949605303000215 2.1982609052800157 L1.5403706863000242 2.191343587279981 L1.5599019363000242 2.1906111652799822 L1.5599019363000242 2.183856608280017 L1.5319071452999982 2.183856608280017 L1.5319071452999982 2.1775903322799977 L1.5412658692999788 2.1725447592799796 L1.5671447752999814 2.167906087279981 L1.5804097493000189 2.163999837279981 L1.5804097493000189 2.1571639002799756 L1.5009419752999964 2.150327962279981 L1.4808003743000189 2.1524438472800043 L1.4459696452999982 2.161802571279985 L1.1215881342999854 2.1777937822800126 L1.0900939942999788 2.187193196279985 L1.0751607252999964 2.1939070642800047 L1.0529439282999977 2.197528483280017 L1.0113179523000202 2.197447103279977 L0.9900777183000162 2.191343587279981 L0.9786031083000228 2.1822290042799963 L0.9698954263000008 2.1724226892800047 L0.9566304523000202 2.163999837279981 L0.9757548013000008 2.146665853279977 L0.9684712722999951 2.1350691732800087 L0.9516662592999854 2.1353133142800047 L0.9423075353000048 2.1537459312799783 L0.9378316243000189 2.17535237628001 L0.9261942543000021 2.1880883792799963 L0.9107320143000255 2.189634603279977 L0.8946187333000228 2.1775903322799977 L0.8946187333000228 2.170184733280017 L0.9139058433000162 2.1494734702800073 L0.9057271322999885 2.1043074542800113 L0.9256245933000162 2.095721842280021 L0.9289204912999924 2.0966170252799756 L0.9388081863000242 2.100889485280014 L0.9460510252999814 2.1018660482800087 L0.9500386553000215 2.0997094722800043 L0.9565083822999885 2.0903914392800047 L0.9596415202999982 2.0881941732800087 L0.9622456863000242 2.0845727542799963 L0.9218811032999827 2.0608911132800003 L0.9328267412999924 2.0534041342799796 L0.9702209472999801 2.040383301279995 L0.9341695143000255 2.0393660482800087 L0.9164693192999938 2.0410750322800126 L0.901373290299988 2.0473006182799836 L0.9145161942999938 2.0591821292799963 L0.9164286293000021 2.076434733280017 L0.9075581863000242 2.091123860280014 L0.8883931472999951 2.095721842280021 L0.8705301913000074 2.0845320642800047 L0.8750874833000228 2.0658553062799783 L0.8852600092999854 2.0482771812799783 L0.8846089683000162 2.040383301279995 L0.8788716632999911 2.038389485280014 L0.8746805823000035 2.03472737628001 L0.8703674312999841 2.0329777022800144 L0.8641825353000048 2.0367211912800016 L0.8505106603000048 2.0473006182799836 L0.8383036293000021 2.0505558272800144 L0.8302469883000061 2.05816487628001 L0.8195048013000008 2.0739933272800144 L0.7954976393000255 2.0997094722800043 L0.7799540202999982 2.1113875322800126 L0.7326314282999977 2.1242049152799822 L0.7163146972999801 2.1242049152799822 L0.6996724442999938 2.1124861652799822 L0.6801005043000021 2.1024764002799756 L0.6364400222999951 2.1085799152799822 L0.6207743323000035 2.1018660482800087 L0.6251688633000061 2.097919108280017 L0.6302144363000242 2.0852237952800223 L0.6322896322999885 2.073911946279985 L0.6358296713000176 2.066587728279977 L0.6427469883000061 2.062681478279977 L0.6515360513000008 2.0612166342799796 L0.6649637853000048 2.0608911132800003 L0.6817281083000228 2.0578800452800223 L0.7224995933000162 2.0413598632800003 L0.7375142412999924 2.033018392280006 L0.7375142412999924 2.0267928062799783 L0.7028055823000035 2.0267928062799783 L0.7028055823000035 2.019346517280006 L0.7238423662999924 2.0131209312799783 L0.7238423662999924 2.0062849932799836 L0.7089497882999911 2.0062849932799836 L0.6978413893000255 2.009092610280014 L0.6755025222999951 2.019346517280006 L0.6761128743000189 2.0264265952800073 L0.6628479002999814 2.0315535482800087 L0.6476298013000008 2.030576985280014 L0.6419331863000242 2.019346517280006 L0.6473042803000215 2.0103540042799963 L0.6669576002999964 2.0020125322800126 L0.6755025222999951 1.9920434572799977 L0.6626851393000255 1.993264160279999 L0.6549540202999982 1.998309733280017 L0.6481180823000035 2.003721517280006 L0.6382710773000202 2.0062849932799836 L0.6290751133000061 2.0042097982800087 L0.6206929523000202 2.0005476892800047 L0.6115783692999788 1.999815267280006 L0.6003479002999814 2.0062849932799836 L0.5973775222999951 2.0160506182799836 L0.6002665202999982 2.027362467280021 L0.6006734213000176 2.0365584312799783 L0.5898091632999911 2.040383301279995 L0.5785380043000021 2.0415226232800237 L0.5616109213000176 2.046201985280014 L0.5219380692999938 2.046568196279985 L0.5088765463000176 2.0445336912800016 L0.49727986629999243 2.040383301279995 L0.4870666502999814 2.0320418292800113 L0.4810445143000255 2.023130696279985 L0.47372029630001755 2.0159692382800003 L0.4598042803000215 2.0131209312799783 L0.4195210773000202 2.0173527022800144 L0.3954732252999964 2.0159285482800087 L0.38127237930000213 2.0062849932799836 L0.37305297829998274 2.010842285279999 L0.3649963372999867 2.0129581702800223 L0.3465230303000215 2.0131209312799783 L0.3554341632999911 1.9970076502799756 L0.3660542803000215 1.986143392280006 L0.3807840982999995 1.9800805662800016 L0.40169881130002416 1.9783715822799977 L0.43986612930000213 1.9831730142800197 L0.4550435382999911 1.9819523112800184 L0.47005818630002416 1.9721866862800184 L0.47005818630002416 1.9646997072799977 L0.45846150729998847 1.9638045252799756 L0.4488179523000202 1.9600203452800073 L0.4413716632999911 1.9534285482800087 L0.4358784993000189 1.9442732752799756 L0.45768839529999816 1.946592610280014 L0.48226521830001623 1.9532250972800043 L0.5024475092999854 1.955340983280017 L0.5109517412999924 1.9442732752799756 L0.4911763502999964 1.945493978279977 L0.4536193842999854 1.9410180662800016 L0.4157368972999951 1.9313338212799849 L0.3948628743000189 1.9169295252799756 L0.39388631130002416 1.9105818682799836 L0.3882710773000202 1.898700358280017 L0.37988891529998803 1.8872664392800047 L0.37036743129998406 1.882180176279995 L0.34127400729998847 1.8871443682799836 L0.32955525729998847 1.8877547202800073 L0.31978963229998847 1.882180176279995 L0.3427388502999964 1.8702986652799822 L0.3660542803000215 1.8706241862800184 L0.3902242023000202 1.8751000972800043 L0.41537068630002416 1.8759952802800157 L0.41329549129999243 1.8715193682799836 L0.40999959330001623 1.8600447592799796 L0.4079243972999951 1.855487467280021 L0.45235799129999243 1.8557722982800087 L0.49727986629999243 1.8628930662800016 L0.5030171713000176 1.8667993162800016 L0.5177876782999977 1.882180176279995 L0.5273091632999911 1.8795760092799796 L0.5413472493000189 1.867002767280006 L0.5519673662999924 1.8628930662800016 L0.4911356603000048 1.8386417642800197 L0.47624308230000345 1.8265161132800003 L0.5143697102999898 1.8213484702800073 L0.5922912592999854 1.825987142280006 L0.6207743323000035 1.8213484702800073 L0.6551167803000215 1.808409017280006 L0.6686258952999982 1.8076765952800073 L0.6791239413000074 1.8103214522800144 L0.7001607252999964 1.8193546552800157 L0.7479715982999995 1.824481608280017 L0.8262593583000228 1.8275740562799783 L0.8262593583000228 1.8213484702800073 L0.8089253743000189 1.8159366862800184 L0.739263915299988 1.8195174152799822 L0.6957661942999938 1.8095890302800157 L0.6145894363000242 1.7797224932799836 L0.6003479002999814 1.7350447592799796 L0.6062886553000215 1.7136824542800113 L0.6173563633000061 1.697284342280021 L0.6235005692999938 1.6819441732800087 L0.6145894363000242 1.6636743162800016 L0.6241109213000176 1.65972737628001 L0.6620340982999995 1.655617676279995 L0.6891337073000035 1.6494327802800157 L0.7128153482999995 1.6477237952800223 L0.7235575353000048 1.6455265302800157 L0.7338114413000074 1.6391788732800237 L0.7395894363000242 1.638690592280021 L0.7598531083000228 1.6465437822800126 L0.7710021972999801 1.6494327802800157 L0.9566304523000202 1.6294946292799963 L0.9566304523000202 1.6221297202800073 L0.9414937333000228 1.620461426279995 L0.901373290299988 1.6084578452800073 L0.9067443842999854 1.6063826502799756 L0.9108947752999814 1.6041853842799796 L0.9154927572999885 1.602395019280003 L0.9218811032999827 1.6016219072800126 L0.9218811032999827 1.5947859702800073 L0.9175679523000202 1.5866072592799796 L0.9281880692999938 1.5775740562799783 L0.9628153482999995 1.5606469722800043 L0.9546773273000202 1.5602400712799849 L0.9361226393000255 1.553811035279999 L0.9440979002999814 1.549660644280003 L0.950201415299988 1.5435571292799963 L0.9544331863000242 1.5357039392800047 L0.9566304523000202 1.526467285279999 L0.9499165852999898 1.527281087279981 L0.9456441243000189 1.5282576502799756 L0.9415751133000061 1.5300480142800197 L0.9361226393000255 1.5333032222800043 L0.9075581863000242 1.5269555662800016 L0.7648579912999924 1.526467285279999 L0.6664286293000021 1.5595076502799756 L0.6122701002999964 1.5670760092799796 L0.5792704263000008 1.5464054362800184 L0.5916402183000162 1.5406274412800016 L0.5978658032999977 1.5127547202800073 L0.6145894363000242 1.50543050128001 L0.6117411293000021 1.4961938472800043 L0.6114156083000228 1.4917993162800016 L0.6145894363000242 1.4849226892800047 L0.6145894363000242 1.478697103279977 L0.6071431472999951 1.478697103279977 L0.6071431472999951 1.4719425452800223 L0.6549947102999898 1.46441487628001 L0.6637837722999951 1.4671004232800087 L0.6859598793000021 1.4766219072800126 L0.6996724442999938 1.478697103279977 L0.7113911942999938 1.4840681962799849 L0.7154195143000255 1.5075056962799849 L0.7269755043000021 1.5128767902799822 L0.7355204263000008 1.509702962279981 L0.7351949053000215 1.50152425128001 L0.7334859213000176 1.4905379232800087 L0.7375142412999924 1.478697103279977 L0.7281148273000202 1.4727156572800126 L0.7199361162999924 1.4652693682799836 L0.7103739413000074 1.4594913732800237 L0.6965393062999841 1.4581892902799822 L0.6965393062999841 1.46441487628001 L0.7028055823000035 1.4719425452800223 L0.6913309732999995 1.4695011392800197 L0.6844950353000048 1.462217610280014 L0.6728169752999964 1.437315267280006 L0.6735087073000035 1.432473144280003 L0.6734273273000202 1.4282820642800047 L0.6686258952999982 1.4234399412800016 L0.6621968583000228 1.4226668292800113 L0.6453511553000215 1.4238875322800126 L0.6419331863000242 1.4204288732800237 L0.6386372882999911 1.4141219072800126 L0.6313537592999854 1.4087101232800237 L0.6241109213000176 1.4004500322800126 L0.6207743323000035 1.385598144280003 L0.6253316243000189 1.37066487628001 L0.6363179523000202 1.366066894280003 L0.6495829263000008 1.3635847982800087 L0.661138915299988 1.3545515952800073 L0.6471415202999982 1.350930176279995 L0.6469380692999938 1.3451521812799783 L0.6556864413000074 1.3390486652799822 L0.6686258952999982 1.3347355142800197 L0.661138915299988 1.3278995772800144 L0.6891337073000035 1.3136580402799822 L0.6795308433000162 1.308775228279977 L0.6679341632999911 1.308409017280006 L0.6419331863000242 1.3136580402799822 L0.6444559732999995 1.32183675128001 L0.6433166502999814 1.325539551279995 L0.6380269363000242 1.3268416342799796 L0.6276509602999898 1.3278995772800144 L0.6276509602999898 1.3347355142800197 L0.6344868972999951 1.3347355142800197 L0.6056376133000061 1.3560571292799963 L0.5774800613000242 1.359556478279977 L0.5523335773000202 1.34722737628001 L0.5320699053000215 1.3211043292800113 L0.5514790852999898 1.3215519202800223 L0.5966451002999964 1.3136580402799822 L0.6145894363000242 1.3074324542800113 L0.5841532383000061 1.2941267902799822 L0.5719462073000035 1.284523926279995 L0.5661682122999867 1.2726424152799822 L0.5726786293000021 1.2750838212799849 L0.5863911942999938 1.2778914392800047 L0.5929423013000008 1.2800887042800113 L0.5802876782999977 1.2683292642800197 L0.5457417803000215 1.2452986652799822 L0.5592508952999982 1.250832519280003 L0.5710103352999898 1.2511580402799822 L0.5804911293000021 1.2468855792800113 L0.5866760252999814 1.238462728279977 L0.5348368323000035 1.2126652022800144 L0.5121317543000021 1.2074568682799836 L0.49727986629999243 1.2180362952800223 L0.5115620933000162 1.228697103279977 L0.5060282383000061 1.2371199542800113 L0.4892232252999964 1.241066894280003 L0.47005818630002416 1.238462728279977 L0.47896931929999376 1.2487980142800197 L0.48364868129998406 1.252134603279977 L0.48364868129998406 1.2589705402799822 L0.4694885252999814 1.257749837279981 L0.4572408032999977 1.2593774412800016 L0.4358784993000189 1.266457519280003 L0.4358784993000189 1.2726424152799822 L0.44889933230000345 1.275572103279977 L0.4538635252999814 1.281512858280017 L0.45638631130002416 1.300596517280006 L0.4478413893000255 1.3008406572800126 L0.4284322102999898 1.3074324542800113 L0.4415751133000061 1.3128035482800087 L0.4539449053000215 1.3221215822799977 L0.45614217130001755 1.3308699542800113 L0.4390523273000202 1.3347355142800197 L0.4204162592999854 1.334003092280021 L0.40560506130002416 1.329893392280006 L0.3964497882999911 1.3197615562799783 L0.3948628743000189 1.300596517280006 L0.40080362930000213 1.2887556962799849 L0.4234273273000202 1.2603133142800047 L0.4284322102999898 1.2487980142800197 L0.4318094883000061 1.2308129882800003 L0.4402730303000215 1.2225122072799977 L0.45158487930000213 1.2160831702800223 L0.4632222493000189 1.2037133792799963 L0.4318908692999788 1.203306478279977 L0.41919555629998406 1.1995629882800003 L0.4079243972999951 1.190733235280014 L0.42696736629999243 1.1906111652799822 L0.43600056929999376 1.181455892280006 L0.44149373330002284 1.1683129882800003 L0.4495503743000189 1.1565942382800003 L0.4605367023000202 1.1507348632800003 L0.5047261553000215 1.1355167642800197 L0.508795165299988 1.1312849932799836 L0.5111958822999885 1.1261580402799822 L0.5153869622999867 1.1222517902799822 L0.5252339683000162 1.1218448892800197 L0.5310933433000162 1.1251000972800043 L0.5332906083000228 1.131040853279977 L0.5346740722999801 1.1374698892800197 L0.5382954912999924 1.1422713212799849 L0.5512349442999938 1.1485375972800043 L0.5685282383000061 1.1538273112800184 L0.5861877442999788 1.1550887042800113 L0.6003479002999814 1.1491886392800197 L0.6076721192999788 1.1570418292800113 L0.6158101393000255 1.1613142902799822 L0.6247212722999951 1.1613142902799822 L0.6344868972999951 1.1565942382800003 L0.6361551913000074 1.15972737628001 L0.6359924312999841 1.1613142902799822 L0.6370503743000189 1.162046712279981 L0.6419331863000242 1.1627791342799796 L0.6197163893000255 1.1878442382800003 L0.5958719883000061 1.199034017280006 L0.5710103352999898 1.197284342280021 L0.5457417803000215 1.1832869462799849 L0.5393941243000189 1.2028181962799849 L0.5548970532999977 1.2087589522800144 L0.5785786942999938 1.2097355142800197 L0.5966451002999964 1.214659017280006 L0.6131245933000162 1.2213728842799796 L0.6269185382999911 1.214170735280014 L0.6401428222999801 1.2028995772800144 L0.6549947102999898 1.1975691732800087 L0.6413635252999814 1.1854028322799977 L0.6478739413000074 1.169289551279995 L0.6640279132999911 1.1552107752799756 L0.6791646322999885 1.1491886392800197 L0.7008931472999951 1.1528507482800237 L0.7359273273000202 1.1680281572800126 L0.7580220532999977 1.1702254232800087 L0.7521626782999977 1.1616398112800184 L0.7443501782999977 1.156187337279981 L0.7238423662999924 1.1491886392800197 L0.7238423662999924 1.1422713212799849 L0.7336079912999924 1.139951985280014 L0.7430074053000215 1.139504394280003 L0.7648579912999924 1.1422713212799849 L0.7461812333000228 1.1358015952800073 L0.6938130692999938 1.128924967280021 L0.6829488113000242 1.11871175128001 L0.6770080562999841 1.104348144280003 L0.6790425613000242 1.097023926279995 L0.7375142412999924 1.087705892280006 L0.7587137853000048 1.0908797202800073 L0.7967183433000162 1.1049991862800184 L0.8160868323000035 1.1081730142800197 L0.9876363113000242 1.1155786132800003 L0.9987447102999898 1.1144392902799822 L1.0175028482999995 1.109393717280021 L1.0286519363000242 1.1081730142800197 L1.0373189282999977 1.1099226892800047 L1.0511128743000189 1.11871175128001 L1.0590474442999938 1.1218448892800197 L1.1385152183000162 1.1285994462799849 L1.1481994622999867 1.1270532222800043 L1.1604064942999788 1.123065592280021 L1.1718811032999827 1.1176131182799836 L1.179408772299995 1.1118758142800047 L1.1888081863000242 1.1074812822800126 L1.2010152183000162 1.108701985280014 L1.2457743323000035 1.1211938472800043 L1.2546040852999898 1.1218448892800197 L1.2620503743000189 1.126076660279999 L1.2701883952999982 1.1448347982800087 L1.2753560382999911 1.1491886392800197 L1.293137613300006 1.147316894280003 L1.3033915202999982 1.1452010092799796 L1.3054260252999814 1.1422713212799849 L1.31201782229998 1.1501652022800144 L1.3135640463000176 1.158221842280021 L1.3110412592999854 1.165342610280014 L1.3054260252999814 1.1702254232800087 L1.3054260252999814 1.177061360280014 L1.327154540299988 1.1832869462799849 L1.327154540299988 1.190733235280014 L1.3079488113000242 1.1986678062799783 L1.312668863300006 1.2079451502799756 L1.361049397299995 1.233742676279995 L1.3737040202999982 1.2451765952800073 L1.3818013502999964 1.2604353842799796 L1.3818013502999964 1.2800887042800113 L1.3880269363000242 1.2800887042800113 L1.388840738300006 1.2620222982800087 L1.3926656083000228 1.2466821292799963 L1.3941304523000202 1.2327254232800087 L1.3880269363000242 1.2180362952800223 L1.4104878743000189 1.21246175128001 L1.4328267412999924 1.199156087279981 L1.4500386553000215 1.179014485280014 L1.4569559732999995 1.1528914392800047 L1.4717671713000176 1.13628987628001 L1.5055399573000035 1.133889160279999 L1.5661682122999867 1.1422713212799849 L1.5731669103000048 1.1409285482800087 L1.5786193842999854 1.137551269280003 L1.5839904782999827 1.1358015952800073 L1.5954650872999867 1.1416609702800073 L1.61279907229998 1.1478865562799783 L1.6288309732999995 1.1513045252799756 L1.6512105303000215 1.1606632482800237 L1.6664286293000021 1.1627791342799796 L1.7156636553000215 1.1627791342799796 L1.7373921713000176 1.1589542642800197 L1.7578999833000228 1.1491886392800197 L1.7855692543000021 1.16168050128001 L1.8466044103000048 1.154478353279977 L1.8746805823000035 1.1627791342799796 L1.8805399573000035 1.1721785482800087 L1.8834696452999982 1.1836938472800043 L1.8897359213000176 1.1934187822800126 L1.9179748532999827 1.2001326502799756 L1.9295308433000162 1.2067244462799849 L1.9503641763000008 1.225441894280003 L1.9637105303000215 1.2191756182799836 L1.9791727702999982 1.2171411132800003 L2.011806233300023 1.2180362952800223 L2.011806233300023 1.2112410482800087 L1.9974833163000074 1.2068872072799977 L1.9794169103000048 1.2036319982800237 L1.9637919103000048 1.1980574542800113 L1.957200113300006 1.1869490562799783 L1.950893147299995 1.17925862628001 L1.935715738300006 1.1734399412800016 L1.9174051913000074 1.1702254232800087 L1.9020243323000035 1.1702254232800087 L1.9020243323000035 1.1627791342799796 L1.9087788893000255 1.1579777022800144 L1.9203755692999938 1.1460961912800016 L1.9292867023000202 1.1422713212799849 L1.951340738300006 1.148618978279977 L1.9648091632999911 1.150572103279977 L1.9707906083000228 1.1456892902799822 L1.9822652183000162 1.1414168292800113 L2.0527404782999827 1.1491886392800197 L2.037074788299991 1.1371443682799836 L2.018886311300024 1.1285994462799849 L1.9996805823000035 1.1235538732800237 L1.9807189942999788 1.1218448892800197 L1.9603739413000074 1.1227400712799849 L1.9532124833000228 1.1200545252799756 L1.9503641763000008 1.1118758142800047 L1.9558166502999814 1.1016219072800126 L1.9682271322999885 1.1043074542800113 L1.9912984213000176 1.1155786132800003 L2.01131795230002 1.1084171552800157 L2.003871663299991 1.0990584312799783 L1.9825093583000228 1.091123860280014 L1.9609029132999911 1.087705892280006 L1.8616597493000189 1.0877465822799977 L1.8562072752999814 1.0845727542799963 L1.854742431299984 1.074034017280006 L1.8591369622999867 1.0665063472800043 L1.8692281083000228 1.059914551279995 L1.8812723793000021 1.0553572592799796 L1.9101623532999827 1.0503116862800184 L2.0264546713000176 1.0022973632800003 L2.0428934732999995 0.9989607752799756 L2.048915608300023 0.9957869462799849 L2.051763915299988 0.9878930662800016 L2.0527404782999827 0.9679549152799822 L2.0563212073000035 0.9507836912800016 L2.063808186300024 0.9539168292800113 L2.0711324053000215 0.9647810872799809 L2.0738993323000035 0.9710066732800087 L2.0778869622999867 0.9718611652799822 L2.079270426300001 0.9723494462799849 L2.0800028482999995 0.9784529622799809 L2.109096272299995 0.9662459312799783 L2.138840738300006 0.9575382482800237 L2.1413635252999814 0.9572127282799769 L2.2229064942999788 0.9478133142800047 L2.235683186300024 0.9463484702800073 L2.2809305823000035 0.9280379232800087 L2.312831624300019 0.923846842280021 L2.312831624300019 0.9163598632800003 L2.2797505692999938 0.91558675128001 L2.2650614413000074 0.9115584312799783 L2.252040608300023 0.9021183272800144 L2.3066467282999827 0.8754256182799836 L2.3041646322999885 0.8560164392800047 L2.3505106603000048 0.8313175452800223 L2.347621663299991 0.8064965822799977 L2.3583638502999964 0.8104842122799809 L2.365403238300006 0.8149601232800237 L2.3729715982999995 0.8186629232800087 L2.38546346029999 0.8201684572799977 L2.3969380692999938 0.7879012042800113 L2.4021870933000162 0.7792342122799809 L2.39913533529999 0.777159017280006 L2.3981180823000035 0.7768741862800184 L2.3974263502999964 0.7761824542800113 L2.3953511553000215 0.77300862628001 L2.376226806299984 0.7837101232800237 L2.3563700353000048 0.7896508792799963 L2.288092040299988 0.7964054362800184 L2.2517150872999867 0.813780110280014 L2.2309224442999938 0.8201684572799977 L2.2309224442999938 0.8139835612800184 L2.2412984213000176 0.8052351892800047 L2.2426818842999854 0.7961612952800223 L2.2357645663000074 0.7889998372799809 L2.2212788893000255 0.7859887692800029 L2.2062642412999924 0.790342610280014 L2.180670165299988 0.8096297202800073 L2.1551981603000048 0.8171573892800197 L2.1084859213000176 0.8474308272800144 L2.095058186300024 0.8540633142800047 L2.0809794103000048 0.8590681962799849 L2.0664123532999827 0.861143392280006 L2.0664123532999827 0.8549991862800184 L2.0907450353000048 0.8379907222800043 L2.1059224442999938 0.8306258142800047 L2.1248433433000162 0.8276554362800184 L2.13827107730002 0.820127767280006 L2.1353413893000255 0.8059269202800223 L2.1229715982999995 0.7972192382800003 L2.1079976393000255 0.8064965822799977 L2.10116170230002 0.8064965822799977 L2.1043355303000215 0.784483235280014 L2.09139607730002 0.784483235280014 L2.0747131342999854 0.798155110280014 L2.0664123532999827 0.8170760092799796 L2.0614888502999964 0.8229353842799796 L2.050950113300006 0.81793050128001 L2.0412658692999788 0.8098331702800223 L2.036830647299995 0.8028344722800043 L2.03780721029999 0.79839925128001 L2.0368713372999867 0.79449300128001 L2.02889607730002 0.7928247072799977 L2.0222229002999814 0.7937605792800113 L2.0117248532999827 0.7980330402799822 L2.0055399573000035 0.7996606442800029 L1.9812886553000215 0.8005558272800144 L1.9695699053000215 0.8031599932799836 L1.9589904782999827 0.8169539392800047 L1.9462544752999964 0.8148787432799836 L1.9261128743000189 0.8064965822799977 L1.8504292803000215 0.8063338212799849 L1.833013915299988 0.7996606442800029 L1.841070556299984 0.7899764002799756 L1.8316304523000202 0.784483235280014 L1.7488667803000215 0.7659285482800087 L1.7312072752999814 0.7661726892800047 L1.7345845532999977 0.7623885092799796 L1.7366597493000189 0.7588077802800157 L1.7395894363000242 0.7553898112800184 L1.7448791502999814 0.7518904622799809 L1.7448791502999814 0.7457055662800016 L1.73193969729998 0.7409041342799796 L1.7252665202999982 0.7338240562799783 L1.7275044752999964 0.7273543292800113 L1.741461181299984 0.7245467122799809 L1.7560689282999977 0.7235701502799756 L1.7678283692999788 0.720030110280014 L1.7756001782999977 0.712705892280006 L1.7784077963000176 0.7007023112800184 L1.7897603352999898 0.693174642280006 L1.8609273273000202 0.6631453452800073 L1.886440022299995 0.657326660279999 L1.9868225092999854 0.6588728842799796 L2.0393127442999788 0.6690047202800073 L2.0664123532999827 0.6693709312799783 L2.0664123532999827 0.6631453452800073 L1.9964253743000189 0.6530135092799796 L1.9776265463000176 0.6420271812799783 L1.9931294752999964 0.6377140302800157 L2.038092040299988 0.6364119462799849 L2.0496480303000215 0.6389754232800087 L2.062221272299995 0.6509383142800047 L2.0783345532999977 0.6626570642800047 L2.096360270299998 0.6685571292799963 L2.11483357730002 0.6631453452800073 L2.0617329912999924 0.6322615562799783 L2.02413533529999 0.62457112628001 L1.9880432122999867 0.6093123372799809 L1.9646057122999867 0.6079288732800237 L1.9686747232999995 0.5982446292799963 L1.9760396322999885 0.5958846032799769 L1.9859273273000202 0.5960066732800087 L1.9981343583000228 0.5942569982800237 L2.007899983300023 0.5897810872799809 L2.0211649573000035 0.5792830402799822 L2.0323140463000176 0.57378987628001 L2.052008056299984 0.585264485280014 L2.073940022299995 0.5863631182799836 L2.121059163299991 0.5812361652799822 L2.176763915299988 0.5940942382800003 L2.197353108300023 0.5942569982800237 L2.197353108300023 0.58746175128001 L2.179774983300023 0.5858748372799809 L2.1576395663000074 0.5803816732800087 L2.1416890463000176 0.5698429362800184 L2.14217732730002 0.5532820642800047 L2.156337483300023 0.5446964522800144 L2.195644124300019 0.5487654622799809 L2.2103739413000074 0.54644612628001 L2.1971903482999995 0.5399764002799756 L2.1860005692999938 0.5221541342799796 L2.17257283529999 0.5184920252799756 L2.1542215982999995 0.517596842280021 L2.1490132643000255 0.5184920252799756 L2.144862874300019 0.52300862628001 L2.143235270299998 0.5300480142800197 L2.142909749300019 0.5365584312799783 L2.14217732730002 0.5396101892800047 L2.1137349442999938 0.5387556962799849 L2.0904195143000255 0.5242293292800113 L2.072231038299991 0.503721517280006 L2.059576415299988 0.48496337927999633 L2.072597249300019 0.4795109052800157 L2.082118733300023 0.4823592122799809 L2.091518147299995 0.488096517280006 L2.1045796713000176 0.4912296552800157 L2.118414306299984 0.49009033227999765 L2.1316792803000215 0.4871199542800113 L2.1564595532999977 0.47759847028000735 L2.1268778482999995 0.470518392280006 L2.1044169103000048 0.4577010092799796 L2.0664123532999827 0.4303572592799796 L2.0664123532999827 0.42291097028000735 L2.07491658529999 0.41815022827997694 L2.085292561300024 0.4159529622799809 L2.0966044103000048 0.41717366527998223 L2.1079976393000255 0.42291097028000735 L2.118332926300001 0.4129012042800113 L2.121059163299991 0.40923909528000735 L2.11483357730002 0.40923909528000735 L2.11983846029999 0.39511962927999633 L2.1277730303000215 0.39263753228001264 L2.137701415299988 0.3933699542800113 L2.1490132643000255 0.3894230142800197 L2.1685445143000255 0.365253092280021 L2.1756245933000162 0.36150960327997694 L2.18514607730002 0.36736897827997694 L2.1879536942999938 0.39072509728000426 L2.197353108300023 0.39556722028000735 L2.2030497232999995 0.39145751928000294 L2.2094380692999938 0.37310628228001264 L2.2178609213000176 0.3677351892800047 L2.2065083822999885 0.33831624327998355 L2.2026021322999885 0.3208601892800047 L2.206996663299991 0.3130476892800047 L2.2186747232999995 0.3065779622799809 L2.2346252442999788 0.27565348328001704 L2.244553629300002 0.2652368162800016 L2.2600158692999788 0.26470784528000735 L2.316493733300023 0.2789086912800016 L2.334641520299998 0.27679280627997827 L2.365403238300006 0.267393392280006 L2.3817606603000048 0.2652368162800016 L2.3754943842999854 0.27402587927999633 L2.36873982730002 0.28053629528002233 L2.363450113300006 0.2870467122799809 L2.361293538299991 0.29632405627997827 L2.366542561300024 0.30128824828002365 L2.3783426913000074 0.2955916342799796 L2.408168538299991 0.27105550128001 L2.4687561032999827 0.2488387042800113 L2.4882059732999995 0.2448103842799796 L2.502040608300023 0.2369978842799796 L2.51123657229998 0.220721842280021 L2.5234436032999827 0.20615478527999898 L2.546230061300024 0.20387613928001969 L2.5728413893000255 0.2155135092799796 L2.5643778482999995 0.226581217280021 L2.518886311300024 0.2448103842799796 L2.518886311300024 0.2516463212799849 L2.5610412592999854 0.23858479828000867 L2.5673075353000048 0.24106689428000294 L2.5739807122999867 0.24594970727999765 L2.589036051300001 0.24513590528001572 L2.60498657229998 0.24127034528000735 L2.6144673662999924 0.23736409528000735 L2.6281392412999924 0.2516463212799849 L2.6281392412999924 0.25787190728001264 L2.6242329912999924 0.26938720727999765 L2.6325744622999867 0.2675154622799809 L2.647467040299988 0.260842285279999 L2.6629292803000215 0.25787190728001264 L2.6579650872999867 0.26763753228001264 L2.6501525872999867 0.2741886392800197 L2.6400614413000074 0.27785074828002365 L2.6281392412999924 0.2789086912800016 L2.6281392412999924 0.2857039392800047 L2.6464904782999827 0.28525634728000426 L2.65780232730002 0.28729085327997694 L2.6665913893000255 0.2868025712799849 L2.6765197752999814 0.2789086912800016 L2.6883199053000215 0.26080159528000735 L2.6854715982999995 0.2499373372799809 L2.6629292803000215 0.2311385092799796 L2.656907145299998 0.2108748372799809 L2.6727762853000048 0.198586426279995 L2.6990620933000162 0.18719319627998487 L2.724330647299995 0.1696964522800144 L2.726975504300002 0.17474202527997562 L2.7279927572999885 0.17490478527999898 L2.731776936300024 0.177102051279995 L2.7088277183000162 0.22393636028001396 L2.7072814942999788 0.2311385092799796 L2.709315999300019 0.23292887328002365 L2.7125712073000035 0.23707926428001969 L2.717454020299998 0.24163655627997827 L2.724330647299995 0.2448103842799796 L2.7332417803000215 0.2449324542800113 L2.7430887853000048 0.23834065728001264 L2.752284749300019 0.23736409528000735 L2.765712483300023 0.2410262042800113 L2.786383056299984 0.24912353527999898 L2.8054260252999814 0.25921468127997827 L2.813726806299984 0.268654785279999 L2.8156392412999924 0.27231689428000294 L2.8244689942999788 0.28541910828001704 L2.827398681299984 0.2925805662800016 L2.8270731603000048 0.2997420252799756 L2.8219462073000035 0.31764567028002233 L2.8205220532999977 0.3267195642800047 L2.828293863300006 0.317727051279995 L2.8442036942999938 0.29131917328000867 L2.8513244622999867 0.2857039392800047 L2.854823811300024 0.27858317028002233 L2.848313395299998 0.26275472028000735 L2.8389546713000176 0.24725179027998223 L2.8341939282999977 0.24106689428000294 L2.832688395299998 0.2312605792800113 L2.8279683433000162 0.21832112628001 L2.8194234213000176 0.20733479828000867 L2.806972249300019 0.20387613928001969 L2.7990783692999788 0.21120035828001704 L2.8010314942999788 0.22552327527997562 L2.807623290299988 0.2409041342799796 L2.813726806299984 0.2516463212799849 L2.7998921713000176 0.25005940728001264 L2.790207926300001 0.24432210327997694 L2.7819885252999814 0.23716064428000294 L2.772792561300024 0.2311385092799796 L2.7433736162999924 0.22613362628001 L2.7312886553000215 0.21978597028000735 L2.7348693842999854 0.20721272827997694 L2.7621724442999938 0.17535237628001 L2.7621724442999938 0.1696964522800144 L2.7979390463000176 0.17311442028002233 L2.813726806299984 0.1696964522800144 L2.8495340982999995 0.15191487628001 L2.8621480303000215 0.1492293292800113 L2.879075113300006 0.1530135092799796 L2.8897359213000176 0.16269775427999633 L2.897711181299984 0.17262613928001969 L2.9065002442999788 0.177102051279995 L2.91162719729998 0.1843855792800113 L2.9098368323000035 0.2000105792800113 L2.905523681299984 0.2151879882800003 L2.9030822752999814 0.22088460327997694 L2.908534749300019 0.22979573528001396 L2.9215555823000035 0.23650960327997694 L2.9502827963000176 0.2448103842799796 L2.95077107730002 0.2566105142800197 L2.9589090982999995 0.27003824828002365 L2.9705464683000162 0.28110595727999765 L2.981614176300001 0.2857039392800047 L2.9952046713000176 0.29323160828001704 L2.997239176300001 0.30962972028000735 L2.9914204912999924 0.3261092122799809 L2.981614176300001 0.33355550128001 L2.9666402183000162 0.33603759728000426 L2.954799397299995 0.34210042328000867 L2.9366109213000176 0.35467366527998223 L2.882004801300001 0.37510009728000426 L2.882004801300001 0.381936035279999 L2.9418599442999938 0.3753442382800003 L2.9611877442999788 0.38128499327998355 L2.9502827963000176 0.40240315728001264 L2.9384419752999964 0.40972737628001 L2.888840738300006 0.4303572592799796 L2.8554748532999827 0.4575789392800047 L2.8416402183000162 0.4645369462799849 L2.8416402183000162 0.4713728842799796 L2.8615376782999977 0.46783284528000735 L2.8796447752999814 0.46050862628001 L2.974574788299991 0.407326660279999 L2.985032145299998 0.4058618162800016 L2.99365844729998 0.3950789392800047 L3.013759358300023 0.38982991527998223 L3.03670857730002 0.386534017280006 L3.0539204912999924 0.381936035279999 L3.0668599442999938 0.36964762328002365 L3.0730041502999814 0.3534529622799809 L3.0686096192999788 0.3395369462799849 L3.0502583822999885 0.33355550128001 L3.0454976393000255 0.32940511028001396 L3.0496480303000215 0.320331217280021 L3.06014607730002 0.3062524412800016 L3.06014607730002 0.282326660279999 L3.0529846192999788 0.280617676279995 L3.012945556299984 0.2448103842799796 L2.9893452963000176 0.23341715528001572 L2.981614176300001 0.22772054027998223 L2.9773824053000215 0.22100667328000867 L2.9734761553000215 0.21038655627997827 L2.973638915299988 0.20062093127997827 L2.9959370933000162 0.18902425128001 L3.0068013502999964 0.1716495772800144 L3.0094462073000035 0.15142659528000735 L2.998704020299998 0.13551676428001969 L3.0156311032999827 0.1366560872799809 L3.030279540299988 0.14044026728000603 L3.04443969729998 0.14186442028002233 L3.06014607730002 0.13551676428001969 L3.0574605303000215 0.132180176279995 L3.056606038299991 0.12994222028000735 L3.055995686300024 0.12713460327997694 L3.0539204912999924 0.12188557928001131 L3.07381795230002 0.13177327527997562 L3.095058186300024 0.1392195642800047 L3.1171122232999995 0.13885335327997694 L3.1552388502999964 0.11517171227998091 L3.175502522299995 0.11150960327997694 L3.1955220532999977 0.11728759728000426 L3.2109436032999827 0.13551676428001969 L3.189866129300002 0.13616780627997827 L3.1830708822999885 0.13551676428001969 L3.202154540299988 0.14361409528000735 L3.22420857730002 0.14951416027999898 L3.246425374300019 0.14996175128001 L3.266282145299998 0.14178304027998223 L3.2023579912999924 0.11248616527998223 L3.1723286942999938 0.09059488928001969 L3.170009358300023 0.06723876928000294 L3.1434794103000048 0.058124186280018364 L3.1314351393000255 0.05206136028001396 L3.1228088372999867 0.04551025427999633 L3.1385965982999995 0.0394067382800003 L3.1567036942999938 0.041807454280011314 L3.1905171713000176 0.05299723328001704 L3.2594462073000035 0.06723876928000294 L3.275722249300019 0.06862223328001704 L3.314174397299995 0.08066650427999633 L3.3276021322999885 0.08717692028002233 L3.378871663299991 0.13213948528001396 L3.3939676913000074 0.13995198528001396 L3.443690999300019 0.1531355792800113 L3.481125895299998 0.1569197592799796 L3.526536051300001 0.16806884728000426 L3.5473286942999938 0.177102051279995 L3.569504801300001 0.17144612628001 L3.5834615072999885 0.18670491527998223 L3.580246988300006 0.20721272827997694 L3.5504618323000035 0.2174666342799796 L3.5223856603000048 0.2206404622799809 L3.488938395299998 0.22894124327998355 L3.4572814942999788 0.24082275427999633 L3.4232645663000074 0.2603133142800047 L3.390712483300023 0.2703230792800113 L3.3635314942999788 0.2750024412800016 L3.3501851393000255 0.28228597028000735 L3.3064025872999867 0.31744222028000735 L3.290736897299995 0.3339217122799809 L3.27804158529999 0.3523543292800113 L3.275925699299977 0.3564640302800157 Z M0.860357665299988 2.150327962279981 L0.8846903482999995 2.1747420252799756 L0.8647115072999885 2.1931339522800144 L0.8306538893000255 2.199400228279977 L0.8126688633000061 2.187193196279985 L0.8094136553000215 2.1726668292800113 L0.8040425613000242 2.165342610280014 L0.8029439282999977 2.15972737628001 L0.8126688633000061 2.150327962279981 L0.8241434732999995 2.1451196292799963 L0.8383036293000021 2.1433699542800113 L0.8515686032999827 2.1450382482800237 L0.860357665299988 2.150327962279981 Z M0.5594136553000215 1.4719425452800223 L0.5712137853000048 1.4679549152799822 L0.5824849442999938 1.4658390302800157 L0.5923726393000255 1.466734212279981 L0.6003479002999814 1.4719425452800223 L0.6003479002999814 1.478697103279977 L0.5922912592999854 1.486509603279977 L0.5856587722999951 1.5022566732800087 L0.5828511553000215 1.5198347982800087 L0.5866760252999814 1.5333032222800043 L0.5650288893000255 1.545184733280017 L0.5462300613000242 1.5389184572799977 L0.5271870933000162 1.524758301279995 L0.5047261553000215 1.5128767902799822 L0.4917053222999801 1.5121443682799836 L0.47819620730000345 1.513690592280021 L0.4674947102999898 1.5120629882800003 L0.4632222493000189 1.5022973632800003 L0.4653381342999854 1.487608235280014 L0.46843058230000345 1.4762556962799849 L0.46720987930000213 1.466978353279977 L0.45638631130002416 1.4581892902799822 L0.4357971192999788 1.454405110280014 L0.3601949053000215 1.46441487628001 L0.3328511553000215 1.462258301279995 L0.2835347493000189 1.451109212279981 L0.25708618129998406 1.4507836912800016 L0.25708618129998406 1.4439477542799963 L0.28288370730000345 1.4434187822800126 L0.30453084330001623 1.4397566732800087 L0.32153930629998406 1.429624837279981 L0.33346150729998847 1.4097680662800016 L0.34115193630002416 1.4156274412800016 L0.34945271830001623 1.4174178062799783 L0.3581197102999898 1.4154646812799783 L0.3669494622999867 1.4097680662800016 L0.3885965982999995 1.4254744462799849 L0.41414998330002284 1.421201985280014 L0.43929646830001623 1.4096866862800184 L0.4598042803000215 1.4030135092799796 L0.5471252442999788 1.4046411132800003 L0.5661682122999867 1.4097680662800016 L0.5866760252999814 1.4365421552800157 L0.5661682122999867 1.4365421552800157 L0.5687723793000021 1.444680176279995 L0.5683654782999827 1.452451985280014 L0.5651916502999814 1.4592879232800087 L0.5594136553000215 1.46441487628001 L0.5594136553000215 1.4719425452800223 Z M1.9981343583000228 0.41607503228001264 L2.014003499300019 0.42022542328000867 L2.0264546713000176 0.42510823528001396 L2.0348368323000035 0.43401936827998355 L2.0390686032999827 0.45025472028000735 L1.99561157229998 0.45827067028002233 L1.9737202963000176 0.4573754882800003 L1.957200113300006 0.45025472028000735 L1.957200113300006 0.4440291342799796 L1.9596415202999982 0.43963460327997694 L1.9602925613000242 0.4393904622799809 L1.9594380692999938 0.4380476892800047 L1.957200113300006 0.4303572592799796 L1.9720926913000074 0.42425374327998355 L1.9776265463000176 0.42291097028000735 L1.975592040299988 0.42042887328002365 L1.9724995933000162 0.417784017280006 L1.9707906083000228 0.41607503228001264 L1.979498290299988 0.41045979828000867 L1.9866597493000189 0.4091984052800157 L1.9926411942999938 0.41143636028001396 L1.9981343583000228 0.41607503228001264 Z M0.706060790299988 3.786924642280006 L0.715826415299988 3.7855004882800003 L0.7237202963000176 3.788999837279981 L0.7156636553000215 3.7960799152799822 L0.7094787592999854 3.798155110280014 L0.6308654782999827 3.8145125322800126 L0.6203267412999924 3.8114607752799756 L0.6051493323000035 3.8064152022800144 L0.6075093583000228 3.7967309572799977 L0.6220357252999964 3.7891219072800126 L0.6413635252999814 3.78472737628001 L0.6647603352999898 3.783384603279977 L0.6989400222999951 3.7868839522800144 L0.706060790299988 3.786924642280006 Z M0.21037394130000742 3.500262858280017 L0.2214009602999898 3.5009952802800157 L0.22534790029998142 3.50738362628001 L0.21847127229999508 3.5150740562799783 L0.2003641763000008 3.5225203452800073 L0.16146443630002416 3.5337508142800047 L0.12679646830001623 3.5359480792800113 L0.11719360329998274 3.5416853842799796 L0.09701131130002416 3.5435164392800047 L0.09400024429997877 3.5359480792800113 L0.11100870730000345 3.521665853279977 L0.16211547829998274 3.5000594072800126 L0.17135213229998847 3.494647623279967 L0.18990681929999376 3.4951765952800073 L0.19698689729999508 3.4961531572800126 L0.20475870730000345 3.500832519280003 L0.21037394130000742 3.500262858280017 Z M0.8746805823000035 2.3240747072799977 L0.877935790299988 2.3231795252799756 L0.8820861812999841 2.324237467280021 L0.8805806472999951 2.331968587279981 L0.8625142412999924 2.3351424152799822 L0.7443094883000061 2.30230550128001 L0.7115946452999982 2.288186035279999 L0.7218485513000008 2.279315592280021 L0.7455301913000074 2.278990071279985 L0.7708394363000242 2.290383301279995 L0.7829650872999867 2.29058675128001 L0.8073384602999898 2.2875349932799836 L0.8263407383000061 2.289243978279977 L0.8519755043000021 2.2952661132800003 L0.8595845532999977 2.3025903322799977 L0.8507954912999924 2.309873860280014 L0.8514872232999995 2.316587728279977 L0.8746805823000035 2.3240747072799977 Z" fill="black" stroke="black" stroke-width="0.5" vector-effect="non-scaling-stroke"/></svg>