<svg xmlns="http://www.w3.org/2000/svg" viewBox="0 0 0.4877954098800128 0.36930175692000944"><path d="M0.1828015139399879 0.36568115146000935 L0.17417521194000596 0.35298583946000406 L0.16367716494000728 0.35200927646000935 L0.15171427394001125 0.3560375974600305 L0.1385306799400139 0.35884521446000406 L0.12392293294000023 0.3555900064600195 L0.10524617494003063 0.3411043284600481 L0.09043497694001257 0.33776774046002345 L0.06895060194001257 0.34362711546002345 L0.04933797194002931 0.3552644854600402 L0.028708088940002874 0.3634025064600195 L0.00478230794000023 0.35884521446000406 L0.00478230794000023 0.3513989254600318 L0.010112711940005958 0.3495678704600067 L0.01361206093998657 0.34785888646000274 L0.017843831940022703 0.3463940424600054 L0.02524942994001389 0.34517333946000406 L0.024069416940004196 0.3258048494600274 L0.057760823939996264 0.29772867746002873 L0.06679402693999759 0.2800691724600455 L0.06728230794000023 0.2500398754600468 L0.0711478679400086 0.23718180246002873 L0.08046590193999759 0.2222892244600274 L0.08384317994001389 0.21272705046003182 L0.0826631669400042 0.20601318346000141 L0.08465698293998525 0.2019848624600371 L0.10679239894001125 0.1988517244600274 L0.13096232094000992 0.1890860994600274 L0.15187703494002402 0.1732169594600208 L0.1824759929400086 0.15718505846000141 L0.196554768940028 0.14603596946004416 L0.24033732094000992 0.08345458946000406 L0.2639375819400227 0.05651774046002345 L0.29958211294002535 0.03674234946002741 L0.3529268389400029 0.01826904246000538 L0.3904838049400139 0.012979328460048123 L0.40920125294003196 0.006916503460033141 L0.4271455889400029 0.0036206054600000925 L0.4436250819400227 0.008828938460041513 L0.43784708694000596 0.02323323546004019 L0.4173799639400029 0.060749511460002736 L0.4193330889400029 0.07429931546003843 L0.42470418294000023 0.08174560546000009 L0.431173909940024 0.09834716746000538 L0.4367077639399879 0.10502034446004416 L0.44443888394000464 0.10786865146000935 L0.4627494299400139 0.10921142546003182 L0.470236409940024 0.11242594346002477 L0.47552612293999186 0.11804117746002873 L0.481711018940028 0.12703369046003843 L0.48301310194001257 0.13545654246000538 L0.47397989894001125 0.13911865146000935 L0.4682019039399945 0.1422924804600001 L0.45412312794003196 0.15962646446000406 L0.4466768389400029 0.1631258134600415 L0.44057332393999626 0.17110107346000802 L0.4351615399400073 0.18037841746000538 L0.4293021649400073 0.18758056546003843 L0.423117268940028 0.1913647454600067 L0.395773518940028 0.2005607094600208 L0.4041556799400139 0.2279044594600208 L0.382345784940024 0.2425528964600261 L0.3480440269399976 0.2534985344600358 L0.31943888394000464 0.2694897454600067 L0.32033406594002667 0.2818188474600305 L0.26564656594002667 0.3035473624600371 L0.2511608889399879 0.3141674804600001 L0.24513875294003196 0.3219799804600001 L0.2311006669400042 0.3258048494600274 L0.2153535969400293 0.32820556546003843 L0.20400105794000023 0.33158284446004416 L0.19598510793998525 0.33874430246002873 L0.1828015139399879 0.36568115146000935 Z" fill="black" stroke="black" stroke-width="0.5" vector-effect="non-scaling-stroke"/></svg>