<svg xmlns="http://www.w3.org/2000/svg" viewBox="0 0 2.2304199219600207 0.8383374022799686"><path d="M2.1327880859800388 0.5209549971399845 L2.1397460939800084 0.5369868981400039 L2.1477620439800233 0.5554602051399691 L2.1624918619800013 0.5793859861399717 L2.1812906899800026 0.5983475751399858 L2.2085530599800194 0.6178381351399942 L2.198136392980004 0.6258947751400008 L2.1464599609800388 0.6383459471399995 L2.1100423169799996 0.6574296061399885 L2.0891682939800233 0.6632076011400052 L2.0713460279800273 0.6588130691399563 L2.078304035979997 0.6540116371399911 L2.0811116529800273 0.6505936681399938 L2.0850179029800273 0.6383459471399995 L2.0669514969800247 0.6446529131399537 L2.0509195959800053 0.6674393721399845 L2.033504231980018 0.6724849441399563 L2.018001301979993 0.6682531741399664 L1.9999755859800388 0.6603186031400021 L1.9816243489799916 0.6558020021399678 L1.951595051979993 0.666544189139973 L1.8729817709799903 0.6730546061399885 L1.81752115898 0.6649979651399924 L1.809464517980004 0.6653234861399717 L1.8019368489799916 0.6667069501399858 L1.7937581379800207 0.6656896971399995 L1.783382160979997 0.6588130691399563 L1.7788655599800194 0.649779866139955 L1.7768310539799899 0.6382238771399678 L1.7738199869800013 0.628295491139955 L1.7660074869800013 0.6240637211399651 L1.7579508459800053 0.6217036941399563 L1.752579751980008 0.6160884601399523 L1.7479410799800092 0.6094152831399704 L1.7417561849800194 0.6041662601399942 L1.7117268879800207 0.5972896321400079 L1.70423990898 0.5933020021399678 L1.6888590489800066 0.5873612471399845 L1.6681070959800053 0.5885412601399942 L1.6318929029800273 0.5967199711399651 L1.6164306639799833 0.5985103351399523 L1.564265949980026 0.5967199711399651 L1.564265949980026 0.5898840331399704 L1.674129231980018 0.5836991371399911 L1.6672119139799833 0.5773514811399885 L1.662166340980022 0.5727128091399898 L1.649064126980008 0.5698645021399678 L1.618872069979986 0.5694576011400052 L1.5983668929800245 0.5698910631399947 L1.5774748329800303 0.5580379381399787 L1.5597017189800084 0.5469522621399854 L1.5465633379800323 0.5410343821399586 L1.5434619549800317 0.551342532139973 L1.5387702019800003 0.5619128321399565 L1.5263578339799864 0.5752610831399814 L1.522526152980035 0.5829617891399614 L1.5093744109799871 0.5814547281399776 L1.5054932389800086 0.5888084581399546 L1.5015867719800298 0.6116298321400002 L1.483702789980029 0.6720234261400044 L1.470434569979986 0.689981689139973 L1.4544026689800233 0.699747314139973 L1.441219074980026 0.6998693851399942 L1.432511392980004 0.6960852051399691 L1.424454751980008 0.6908768721399845 L1.4134684239800066 0.6867264811399885 L1.3582112629800207 0.6867264811399885 L1.3582112629800207 0.6793208821400079 L1.379329426979993 0.6724849441399563 L1.3685465489800066 0.6634924311400034 L1.3550374349800194 0.6461584471399995 L1.3445393879800207 0.6383459471399995 L1.332332356980018 0.6338293461399651 L1.3035237629800207 0.6308182781399871 L1.2774213649799862 0.6395075421399845 L1.2548786869800068 0.6521769451400026 L1.238451640980017 0.6834362651400063 L1.234554035979997 0.6925451661399968 L1.2421223959799903 0.7202551271399678 L1.2348388669799846 0.7230220541400065 L1.2221435539799899 0.7303869631399955 L1.2148193359800388 0.7333166501400008 L1.217423501980008 0.7385656741399664 L1.219173176979993 0.7486975101399942 L1.2216145829799956 0.7550451661399968 L1.2109130859800388 0.7504064941399982 L1.2001708979799872 0.7499182131399955 L1.189754231980018 0.7534582521399678 L1.1800699869800013 0.7611893721399845 L1.1976481119800013 0.7715246581399704 L1.2162027989800066 0.7754309081399704 L1.2356526689800233 0.7738846841399898 L1.2557942709799903 0.7680253091399898 L1.265926106980018 0.8056229651399924 L1.2628743489799916 0.8228755691399563 L1.2384195959800053 0.8301184081399704 L1.2175862629800207 0.8291418461399651 L1.198950194979986 0.8251135251400008 L1.1804768879800207 0.8166092931399938 L1.0936442049800092 0.7424719241399664 L1.0756591789799899 0.7208654781400021 L1.0009114579799956 0.6793615721399995 L0.9788167319800181 0.6715897621399911 L0.955501301979993 0.6686600751399858 L0.9370686849800194 0.6759029131399537 L0.9159098299800092 0.6895747881399537 L0.8947102859799969 0.6913651531399871 L0.8510498039799899 0.6793208821400079 L0.8081624349800194 0.6723221841399898 L0.6726643879800207 0.6797277831399704 L0.665828449980026 0.6785070801399691 L0.6449951169799846 0.6649979651399924 L0.609798176979993 0.6483557131399955 L0.6009684239800066 0.6417639161399968 L0.5966145829799956 0.6341955561400034 L0.5862386069800181 0.6085607911399968 L0.5841634109799969 0.6004634601399523 L0.5803792319800181 0.5941158041400065 L0.5624755859800388 0.5880122881399537 L0.5568603509799885 0.5836991371399911 L0.5553955079800375 0.5627030431399938 L0.5571858719800247 0.5374751791400065 L0.5509602859799969 0.5162756351399942 L0.5255289709800053 0.5073645021399678 L0.45619303398 0.5067948401399924 L0.4402425129800207 0.5011389161399968 L0.41656087198002467 0.44885213214000785 L0.4086669919799846 0.4379471841399898 L0.40008137997999427 0.4322912601399942 L0.39011230397998986 0.4274491371399911 L0.38213704398002335 0.4254553221399995 L0.3759521479799872 0.42020629913996643 L0.37115071598002203 0.4081213381399955 L0.365047199980026 0.3844396971399995 L0.34624837198002467 0.34818481413997304 L0.3213460279800273 0.3348791501400008 L0.24773762997999427 0.3366288251399858 L0.20277506498000264 0.3293859861399717 L0.1863362629800207 0.3292232261400052 L0.17693684897999162 0.33744262713996775 L0.16924641898002335 0.3414709471399995 L0.16249186198000132 0.34012817413996643 L0.13787434897999162 0.3306880691399563 L0.13539225198000793 0.3292232261400052 L0.12139485698001806 0.3270666501400008 L0.0906331379800207 0.3176672361399717 L0.07338053398 0.31559204113999684 L0.055802408979999996 0.3114416501400008 L0.038793944979985895 0.30057739213997436 L0.02626139298000396 0.2851965331399704 L0.021866861980001318 0.2677404781400021 L0.027400715980022028 0.2594396971399995 L0.04221191397998325 0.2494706221399845 L0.04921061198000132 0.24108846013995233 L0.052140298980006605 0.22794555614000345 L0.0507161459799903 0.19779418913997304 L0.05262857998000925 0.18924926713997436 L0.06023762997999427 0.17740844713999948 L0.06109212198002467 0.16988077813998714 L0.06459147098000528 0.16593383813999552 L0.08013509098002203 0.1647131351399942 L0.08990071598002203 0.1586503091399898 L0.09783528597999691 0.1469315591399898 L0.10812988298003745 0.13895629913996643 L0.12489420498000925 0.1442460121399911 L0.13522949197998457 0.11592570013998582 L0.16590982998000925 0.08907023113998846 L0.20155436198000132 0.07783976213999111 L0.22727050798003745 0.09647583013996908 L0.2421223959799903 0.07979288713999111 L0.2579915359799969 0.07946736613995498 L0.2765462239799916 0.0859777831399704 L0.2992919919799846 0.09025024413999816 L0.36398925798003745 0.0826818851399942 L0.3855550129800207 0.08280395513996908 L0.39637857998000925 0.08662882513998582 L0.404109699980026 0.0893143721399845 L0.41517740898 0.09195922814000212 L0.4265706379800207 0.09025024413999816 L0.4367024739799916 0.08341430614000345 L0.4376790359799969 0.07686320013998582 L0.43739420498000925 0.06921346013995233 L0.44357910097998854 0.05887817413996643 L0.46624348897999823 0.0312902831399704 L0.4765380859800388 0.022135010139994193 L0.49419759098002203 0.014525960139952332 L0.5346435539799899 0.00821899413999816 L0.5804606119800013 0.009887288139953654 L0.6609863279800123 0.026610921139980093 L0.7319905599800194 0.04138142914000653 L0.8292805989799916 0.043131103140002125 L0.8722493489799916 0.05310017914000653 L0.9415445959800053 0.057982991139954976 L0.967667642980004 0.06408650714000785 L0.9882568359800388 0.07596801713997436 L1.0199951169799846 0.06815551713997436 L1.0712239579799956 0.06827758813999552 L1.123917642980004 0.07393351213999111 L1.160213215980022 0.08280395513996908 L1.164689126980008 0.08727986613995498 L1.168391926979993 0.0996496581399704 L1.1732340489800066 0.10392211913999816 L1.1790934239800066 0.10396280913998979 L1.1845052079799956 0.10152140313998714 L1.187679035979997 0.09834757513998582 L1.1869059239800066 0.09647583013996908 L1.23158365898 0.10392211913999816 L1.2371175129800207 0.10709594713999948 L1.253963215980022 0.12121541313995365 L1.2591715489800066 0.12438924113995498 L1.2918050129800207 0.1254471841399898 L1.3261881509800304 0.1199540201399607 L1.3445393879800207 0.11698364213997436 L1.3565022779800273 0.11983195013998582 L1.377376301979993 0.12919067413996643 L1.3892171219800247 0.13122517914000653 L1.44838053398 0.12882446313999552 L1.4599155669800297 0.12301584013998834 L1.476192381979999 0.12111539213997347 L1.4894125199800072 0.12210545013998697 L1.501611863980017 0.12405957213995933 L1.5087041589800236 0.1327584451399737 L1.505615097979998 0.14336424413999183 L1.5055826039800166 0.15687032414000512 L1.5167479029799864 0.16654203114000055 L1.5523200899800003 0.18786426313998916 L1.5837765139799984 0.2053011931399631 L1.5889083969799884 0.21500255813997526 L1.5982014969800247 0.2412512211399651 L1.604142251980008 0.24991821313999552 L1.613704426979993 0.25549275714000785 L1.6318929029800273 0.26029418913997304 L1.683650715980022 0.2641190591399898 L1.7008219399800026 0.2677404781400021 L1.7155110669799996 0.27518676713997436 L1.734554035979997 0.29349731413997304 L1.7492024739799916 0.30253051713997436 L1.7661702469800247 0.30757609013999243 L1.7993725599800285 0.3055630951399628 L1.816760622980027 0.317281312139972 L1.822322590980022 0.31864379913996643 L1.8273274739799916 0.32320109013999243 L1.8334716789799899 0.32735148113998846 L1.8417317709799903 0.3292232261400052 L1.9168050129800207 0.3292232261400052 L1.922054035979997 0.33223429313999375 L1.9299072259799885 0.34655721013995233 L1.9335286459799903 0.350951741139955 L2.0071370439800233 0.36413533513995233 L2.0453857419799846 0.37731892914000653 L2.05026855397999 0.3981115721399995 L2.0786702469800247 0.42403116813999375 L2.10072428398 0.4541418461399651 L2.1327880859800388 0.5209549971399845 Z" fill="black" stroke="black" stroke-width="0.5" vector-effect="non-scaling-stroke"/></svg>