<svg xmlns="http://www.w3.org/2000/svg" viewBox="0 0 0.23839843818003104 0.09761718750000625"><path d="M0.16167968759001816 0.007752278250016786 L0.17649088559003623 0.01731445225001238 L0.22369140659001552 0.0327360022499974 L0.22238932359003094 0.0425016272499974 L0.22702799559002962 0.04661132725001238 L0.2324804685900208 0.052714843250008414 L0.23606119859003094 0.055522460249981975 L0.22735351559001948 0.06077148425000445 L0.22336588559003623 0.06724121024998198 L0.22230794259000142 0.07554199224997404 L0.22238932359003094 0.08660970025001546 L0.21982584659000715 0.09666015625000313 L0.21319335959001684 0.09653808524998198 L0.20432291659003887 0.09226562425001106 L0.1951269535900142 0.08970214824997669 L0.16436523459001684 0.08929524725001414 L0.14735677158999216 0.08433105424997933 L0.12412272159000715 0.06882812425001106 L0.11545572959003358 0.06492187425001106 L0.10642252659003226 0.06235839824997669 L0.09950520858999745 0.06235839824997669 L0.09140787759000979 0.06805501225002075 L0.08371744859003094 0.07725097624997801 L0.0756608075900349 0.08970214824997669 L0.06719726559001948 0.08783040325001679 L0.05466471359003755 0.07887858024999872 L0.04424804759001155 0.07603027324997669 L0.041399739590000095 0.07757649725001414 L0.020973307590034906 0.08327311125000136 L0.010719401590032263 0.08347656225000577 L0.01788085959001684 0.06199218725000577 L0.011126302589994808 0.03949055925001943 L0.0023372395900000953 0.020040689250002686 L0.003232422590011552 0.007752278250016786 L0.01499186259000318 0.0049853512499780095 L0.029152018590005824 0.007752278250016786 L0.04807291659003887 0.01458821524996523 L0.061622721590007146 0.013937174249996076 L0.07199869859003094 0.011739908250000042 L0.08164225259000979 0.007589518249993432 L0.09266927158999216 0.0009570312500031264 L0.10056315159003226 0.006124674249996076 L0.12237304759001155 0.009705403250016786 L0.13368489658999216 0.01458821524996523 L0.14048014359000582 0.009786783250000042 L0.14678710959001684 0.008321939250002686 L0.16167968759001816 0.007752278250016786 Z" fill="black" stroke="black" stroke-width="0.5" vector-effect="non-scaling-stroke"/></svg>