<svg xmlns="http://www.w3.org/2000/svg" viewBox="0 0 4.429466308768681 4.265369103300113"><path d="M0.705798872486703 0.7316020271500321 L0.7063748734866309 0.7319672261500756 L0.7300359364866509 0.7343590511500651 L0.7342665608739765 0.7325030356135329 L0.7460556314866054 0.7273310571500673 L0.7792319004866286 0.702267986150062 L0.8342156244865819 0.6729674501500114 L0.8514755534866154 0.6692209091499848 L0.8516313724866578 0.6691555651500067 L0.8578834304866874 0.6665337331500467 L0.863774543486592 0.6654485291500549 L0.8689421874866881 0.6662236751500785 L0.873179654486627 0.6689883651500139 L0.8730763014866412 0.6692209091499848 L0.882274707486637 0.679091106150068 L0.9897616864866237 0.7002267671499993 L0.9992701494865983 0.7049293231499831 L1.0165300774865855 0.7197346211500104 L1.021491015486653 0.7211298841499882 L1.0344101234866585 0.7210006941500495 L1.0382341794865866 0.7227318541500125 L1.0397844724866232 0.729398113150026 L1.0384408854866152 0.7358835061499889 L1.0352369454866803 0.7399659441500006 L1.0315162424866813 0.7395008561500873 L1.0406112954866344 0.749060996150078 L1.0493962884866406 0.7560631521500767 L1.0598349284866586 0.7591379001500087 L1.074304329486587 0.7568899751500027 L1.0976620764866212 0.7584144311500296 L1.1023129554866173 0.7697832451500091 L1.0993157224865868 0.7868106301500433 L1.100039192486669 0.8055950131500396 L1.1094443034866472 0.8223381771500868 L1.154506151486693 0.8802416201500165 L1.1600872064866863 0.8918946551499829 L1.160293912486658 0.8961837991500516 L1.1639112624866144 0.8969072691500486 L1.1759465724866018 0.8972376501500179 L1.1902662434866116 0.8976307391500455 L1.227266569486666 0.8933932721500781 L1.2335710934865816 0.8939617131500341 L1.2439063794866811 0.8973723561500577 L1.2499008454866853 0.8983025321500264 L1.2548617834866391 0.8962871521500659 L1.266230598486608 0.8875796731500287 L1.2713982414866578 0.886184409150033 L1.2822502924866868 0.891222862150002 L1.3148064444866137 0.9189214291500178 L1.3792986324866447 0.956567710150054 L1.4671485674866531 1.0270802021500316 L1.4819280274866529 1.0341857111500445 L1.5016684234866275 1.0392758401500402 L1.557995735486692 1.044107586150048 L1.5742221344866394 1.0527117121500709 L1.6107249504866346 1.0564882411500918 L1.7475448884866083 1.0706434351500462 L1.7836150384866087 1.09384615215005 L1.8009783194866387 1.0851645121500013 L1.8226824214866397 1.085707114150054 L1.886554491486585 1.0999698091500107 L1.9006104814866163 1.1004607361500547 L1.9134262364866927 1.0967141941500387 L2.0741399414866706 1.0034640721500097 L2.2272055334866323 0.9189731051500445 L2.227412239486604 0.9189214291500178 L2.338103157486593 0.8591059591500851 L2.5092555014865994 0.7663726011500813 L2.5886466974866735 0.7234468001501142 L2.680717903486631 0.6736650811500766 L2.8520769524866196 0.5809834001500036 L3.023436002486598 0.4881725271500983 L3.1507667314865913 0.41915865315003487 L3.324916308486685 0.32720044115005464 L3.4097830864866765 0.2823223601500189 L3.6236060864866673 0.16925142615004063 L3.868552375486594 0.04181734415000449 L3.9150611654866125 0.18447013515007882 L3.956609016486631 0.3127827171500286 L3.9912322264866376 0.41915865315003487 L4.036810839486613 0.5611654891500137 L4.084043098486667 0.7079265561500989 L4.15122246148659 0.9169060491500858 L4.074017871486639 0.9374474301500726 L4.072674283486585 0.9378091651500569 L4.0722608724866305 0.9385326351500538 L4.072674283486585 0.939772869150076 L4.074017871486639 0.9414006771500425 L4.122800422486684 1.0851645121500013 L4.130241829486614 1.100150678150058 L4.140370410486675 1.1050082621500934 L4.329816210486605 1.0606440451500276 L4.350383430486637 1.070824302150001 L4.365162890486637 1.101545941150036 L4.3860401684866375 1.1689836851500814 L4.360512011486584 1.2006355001500566 L4.240209276486588 1.2876586121501106 L4.240415983486663 1.2953584001500218 L4.230287401486613 1.2981489271500521 L4.210857063486607 1.3106029481500485 L4.092104622486637 1.4065660821500359 L4.057481412486631 1.4190201031500038 L4.057481412486631 1.4191751321500448 L4.057378059486588 1.4191234561500465 L3.943793261486668 1.4471837591500645 L3.718897428486663 1.502632570150027 L3.4942083004865836 1.5581330581500055 L3.269415819486632 1.6135818711500605 L3.080563483486607 1.6601440391499835 L3.044519986486627 1.6690306821500513 L2.855453196486657 1.7173819301500117 L2.7967831704865844 1.7323859881500567 L2.549046354486599 1.7957929711500782 L2.3013095374866808 1.8591482761500089 L2.0919525424866166 1.9126884681500513 L2.0535727214865815 1.9225035831500037 L2.1836939774866337 2.0434264341500494 L2.3138152344866754 2.164400962150026 L2.315763032486622 2.166210294149991 L2.443936490486614 2.2852721371500735 L2.5740577474865987 2.40624666515005 L2.5771583324866256 2.4093989281500825 L2.5803622724866173 2.412602866150067 L2.5834628574866443 2.4158068051500408 L2.5866667964865897 2.4190107441500146 L2.6963241854865956 2.5302701021500553 L2.8060849284866336 2.641477785150059 L2.915949023486668 2.7526337911500462 L3.025606412486674 2.863841473149975 L3.07511243448662 2.914019289150005 L3.075422492486588 2.9146910831500037 L3.075009081486691 2.9151044941500146 L3.074078905486637 2.9154145521500965 L3.0673609704865967 2.918980227150044 L2.994187141486613 2.954430259149987 L2.87336764348661 3.013083009150037 L2.7647437824865975 3.065896323150085 L2.741592741486592 3.0826394871500185 L2.728570279486668 3.1007262391500348 L2.6992180654865834 3.162789634150002 L2.663251269486615 3.2385472841499876 L2.630178352486645 3.3082071141501075 L2.5857366204866494 3.40230989715009 L2.56423922448662 3.4189497091499987 L2.4464169594865908 3.4401887221500687 L2.312574999486607 3.4643732931500466 L2.169844693486631 3.490211508150068 L2.025977506486676 3.5162564311500404 L1.936990689486585 3.5322761241501013 L1.8502776364866023 3.5479857601500697 L1.8227857744866256 3.5599746921500213 L1.798911262486662 3.582350587150003 L1.743617480486627 3.6641027031501068 L1.6976254554866514 3.732031374150054 L1.635303678486629 3.8240929381500024 L1.5711215494866693 3.9188933531500396 L1.4940203124866471 3.974600547150075 L1.3777483394866081 4.0586522641500125 L1.27201835948663 4.13513338415008 L1.1634978514866035 4.213474855150068 L1.1378663414866779 4.222621583149973 L1.1104778314866408 4.223551759150112 L1.006504850486671 4.207816286150049 L0.8912664054866255 4.19042716615003 L0.8342916454866227 4.181771709150084 L0.7160833004866518 4.163813804150081 L0.5676685874866294 4.141437908150024 L0.4286589834866632 4.120353924150081 L0.2731129224866109 4.096841148150091 L0.15436048148664128 4.078806073150091 L0.043426140282043946 4.06181659663433 L0.05645398048662997 4.053734452150053 L0.06304577748662865 3.9626699991500516 L0.07012585548662997 3.9364655721500696 L0.09185437048663658 3.895531327150053 L0.0908778084866313 3.8796214961500652 L0.07012585548662997 3.8613516401500476 L0.05645398048662997 3.8613516401500476 L0.055640178486591196 3.8580964311500168 L0.055640178486591196 3.855410884150018 L0.05425671448663394 3.8539867311500586 L0.04961804248663526 3.854515702150053 L0.05390149748664186 3.8272968761500437 L0.06103284548667176 3.8053860691500034 L0.07436536448668818 3.786498333150078 L0.08387382748660599 3.7615386161499913 L0.08914482448663108 3.705340496150015 L0.09658623048662918 3.6804066181500303 L0.14299166548662612 3.571188478150063 L0.14722913348661137 3.550879641150047 L0.14815930948666534 3.4901081561500433 L0.15549736348666698 3.456156740150007 L0.1594247714865915 3.4475267761500703 L0.16438570948665898 3.4397753111500577 L0.16810641248665803 3.430938641150064 L0.1687265294866407 3.4188980321500964 L0.18030205048658132 3.379468914150081 L0.22309013648661136 3.323761721150035 L0.23931653548661558 3.2901203631500806 L0.23931653548661558 3.2585977391500336 L0.2188526684866261 3.1974128441500085 L0.21926608048668328 3.1688357761500328 L0.2263974284865995 3.1516275251499763 L0.23580253848658828 3.0995376801501067 L0.24179700448659247 3.0870319841500162 L0.24851494148661146 3.076748374150114 L0.2539926434866189 3.065999676150014 L0.2561630524865919 3.0520987161500415 L0.2533725254866468 3.0378876971500546 L0.23900647748664738 3.0176305361500653 L0.23404554048668302 3.0073469261500776 L0.23404554048668302 2.9833173851500447 L0.25140882048660984 2.9426480321500748 L0.2561630524865919 2.9188251971500137 L0.29936455048662225 2.796403729150043 L0.35786227248664915 2.6937226581500653 L0.3579229274866762 2.693535437150004 L0.36561373648661544 2.6697964701500467 L0.3701612624866826 2.644526695150077 L0.37357190748659974 2.6332612321500193 L0.3801864904865866 2.6211689471500534 L0.38793795548659915 2.613314130150016 L0.40488782548661817 2.6001883161500388 L0.4106755854865938 2.5906798521500463 L0.41408622948669205 2.5685623391500343 L0.4135694654865816 2.5461864441500524 L0.41625664048658706 2.523552167150015 L0.4289690434866671 2.500917889150074 L0.44115130748659936 2.4907927881500456 L0.46813977848658084 2.4683617371500333 L0.4793018874866348 2.4502233091500756 L0.4791985344865921 2.418855715150059 L0.4856064124866535 2.3895551771501147 L0.5325286134866829 2.3097667661500196 L0.5372828444866755 2.281293052150076 L0.5302548504866778 2.253956219150055 L0.5153720374866353 2.228996502150082 L0.5047266924866349 2.20889437015002 L0.4952182294866603 2.1832111841500392 L0.48974052748665287 2.155822674150002 L0.502246223486658 2.131483074150097 L0.5163022134866893 2.1105024431500823 L0.5179558584866086 2.088901695150028 L0.5105144524866105 2.0816669941500408 L0.529117968486652 2.052883221150026 L0.5468946604866929 2.0126789571500154 L0.5509254234865821 1.9899930031500475 L0.5511685794866494 1.9799780291500753 L0.5525790684866152 1.9218834651500316 L0.5521656574866043 1.9215734071500634 L0.552785774486587 1.9219351421500477 L0.5531991864865873 1.9216250831499764 L0.5530958334866583 1.9206949071500077 L0.552785774486587 1.9190929381500865 L0.5582634764865944 1.8449372581500398 L0.5741798174866872 1.772383547150028 L0.5965195904866292 1.728142034150082 L0.6216187814866103 1.6784357931500864 L0.653451464486615 1.648153404150051 L0.6323674794865966 1.594203208150006 L0.6323674794865966 1.586761802150093 L0.6431161774866396 1.574307782150001 L0.6187249024866119 1.4942609881500601 L0.6215154294866707 1.486147788150035 L0.6277166004866572 1.4832022311500594 L0.634641243486648 1.4814969091499819 L0.6391887694866583 1.4768977071500302 L0.6399122394866836 1.4689395361500743 L0.6340211264866653 1.457880780150063 L0.6323674794865966 1.4495608741500092 L0.6317473634866602 1.435918296150092 L0.6295769524866515 1.4252729501501022 L0.6187249024866119 1.4018118511500433 L0.6168645504866177 1.355664796150009 L0.622342252486682 1.3384048681500218 L0.6391887694866583 1.3266743181500118 L0.6286467764865975 1.31427197415006 L0.6292668944866833 1.302696454149995 L0.6460100584866169 1.278305178149978 L0.6407390614865918 1.2718973001500302 L0.6407390614865918 1.2664712741500495 L0.6452865884866483 1.2619754251500268 L0.653451464486615 1.2584097511500687 L0.653451464486615 1.2509683441500528 L0.6492139964866865 1.2391086031501146 L0.6536034404865987 1.223131551150047 L0.6665772784865922 1.1759083271500543 L0.653451464486615 1.1759083271500543 L0.6551051104865806 1.1703531111500496 L0.6577922844865967 1.1666840841500488 L0.6616163414866278 1.1639969091500149 L0.6665772784865922 1.1615939551500531 L0.6586191074866647 1.1499150811500982 L0.6548984044866089 1.1308723161500183 L0.6552084634866233 1.111803712150035 L0.6596526364866477 1.100150678150058 L0.6505575834865809 1.0852937031500431 L0.6513844074865816 1.0552955341499768 L0.6460100584866169 1.0455545271500313 L0.6460100584866169 1.0386815611500566 L0.653451464486615 1.0386815611500566 L0.653451464486615 1.0455545271500313 L0.6596526364866477 1.0455545271500313 L0.6579989904866821 1.0364594741500497 L0.6550017574866516 1.0287855241500807 L0.6508676434866416 1.0225843521500764 L0.6460100584866169 1.0182176931500209 L0.6436329424866827 1.0149620781500204 L0.6391887694866583 1.0039291601500366 L0.6489039384866047 1.002327191150087 L0.6531414064866468 0.9995366641500283 L0.6522112304865928 0.9955059011500254 L0.6460100584866169 0.9902607441500066 L0.6460100584866169 0.9840595721500307 L0.653451464486615 0.9840595721500307 L0.6519011724866246 0.9793828551500638 L0.6502475254866695 0.9787110611500651 L0.648180468486693 0.9790469581500503 L0.6460100584866169 0.9772899591500703 L0.6596526364866477 0.9697968771500456 L0.653451464486615 0.9629755881500017 L0.6602727534866872 0.9603917661500105 L0.6665772784865922 0.956774416150111 L0.6665772784865922 0.9493071711499823 L0.6621331054866815 0.9485320251500724 L0.659445930486676 0.9471884381500075 L0.6571721674866708 0.9453280861500986 L0.653451464486615 0.9431060001499958 L0.6553118154866198 0.9364139011499759 L0.6590325184866757 0.9295926121500173 L0.6650269854866693 0.9242957781499825 L0.6740186844866471 0.9220220151499774 L0.6740186844866471 0.9157691671500601 L0.6646135734866689 0.9074750991500338 L0.6625465164866924 0.9032376321500664 L0.6554151684866625 0.8943234471500574 L0.6512810544866525 0.8941684181500165 L0.6460100584866169 0.8946851821500417 L0.6460100584866169 0.8879155701500991 L0.6596526364866477 0.8879155701500991 L0.656862109486589 0.8814818541500671 L0.653451464486615 0.860552899150079 L0.6596526364866477 0.8674000261500368 L0.664200162486658 0.8566771661500212 L0.6665772784865922 0.8531114931500525 L0.6679208654866571 0.8567546811500364 L0.668437629486597 0.8591059591500851 L0.6698845694865909 0.8585375181500154 L0.6740186844866471 0.8531114931500525 L0.668437629486597 0.8407349871500713 L0.6653370444866837 0.8149484481500764 L0.6596526364866477 0.8059567481500238 L0.6596526364866477 0.7984895031500088 L0.6665772784865922 0.7984895031500088 L0.6665772784865922 0.7922624931500053 L0.6581023434866111 0.7880250261500663 L0.6540715814865976 0.7808161631500212 L0.6545883464866407 0.7725996111500564 L0.6567587564866599 0.7692923191500682 L0.6638901034865867 0.7667343361500656 L0.6727784504866818 0.7600680761500627 L0.6878679684865929 0.7431440451500606 L0.7062647784866058 0.7319560971500181 L0.705798872486703 0.7316020271500321 Z" fill="black" stroke="black" stroke-width="0.5" vector-effect="non-scaling-stroke"/></svg>