<svg xmlns="http://www.w3.org/2000/svg" viewBox="0 0 8.154441796619935 9.902037587359807"><path d="M1.895322728535909 0.5080075419444121 L1.895415837315504 0.5074921741687639 L1.900995462748817 0.4658465998822443 L1.9288791134443315 0.4463280443954325 L1.9679162244179267 0.44911640946503795 L1.9706986711679448 0.5075326084023324 L2.0460132740808987 0.5078511268374264 L2.110312532809978 0.5081230594836832 L2.1122762368099117 0.5253829874836846 L2.125505402809999 0.5489216024836772 L2.126538931809982 0.5681969114837138 L2.123541699809941 0.5882473674836639 L2.123231639809937 0.6052747514836803 L2.1299495768098993 0.619408255483723 L2.1478296228099722 0.6305962034836661 L2.1865869468099888 0.664495942483672 L2.2078776358099432 0.6783193884837324 L2.2308219718099096 0.6837712524837123 L2.2348018908099263 0.6837383374837351 L2.380786978809958 0.6825310184836759 L2.415203482809993 0.6778543004837054 L2.4257454748099505 0.677802624483693 L2.4355639968099396 0.6804639604837099 L2.453754100809981 0.6892489534837019 L2.4666732098099757 0.6910059534836854 L2.652501659809893 0.6872852504836722 L2.808977896809999 0.6840813104836947 L2.817659537809952 0.6859933384837156 L2.8324389968099624 0.6948558474836268 L2.838333882809927 0.6962749864836333 L2.8408105788099576 0.6968712284836762 L3.0335636718099224 0.6952175814837211 L3.0931982748099287 0.7116765254836999 L3.1643050458099466 0.7475141314837295 L3.205129427809929 0.7568675654836774 L3.2148445968099324 0.7641797804836621 L3.23055423180994 0.7906381144836594 L3.237892284809952 0.7954956984836663 L3.2579427408099875 0.7939970824837594 L3.2653841468099856 0.7963741984837078 L3.2719987298099156 0.805288383483731 L3.275926138809943 0.8149777134836604 L3.2810937828099824 0.8371985794837009 L3.2842977208099384 0.8425729284836656 L3.2894653638099314 0.8437614864836895 L3.2954598298099356 0.8436064574837339 L3.3013509438099433 0.845156750483671 L3.355507844809999 0.8799091514837052 L3.452969595809968 0.942566824483638 L3.5504313478099263 1.0052503374836625 L3.6645329098099566 1.078475842483659 L3.7455615558099495 1.130565685483706 L3.837235546809943 1.1895801714836445 L3.940485057809944 1.2559327104836804 L4.035673046809897 1.317117606483695 L4.135408560809985 1.3812222204837106 L4.16620771480995 1.4010142944836907 L4.184811229810002 1.4195402954836318 L4.210236034810002 1.460287161483695 L4.2256356118099845 1.4785289424837522 L4.238451366810004 1.4856086134836808 L4.268320344809915 1.494781180483674 L4.291368033809981 1.5148057984837102 L4.303563670809972 1.5168470174837587 L4.335086295809951 1.509018037483731 L4.36640221380997 1.5065375684836688 L4.472545605810005 1.5185523394837226 L4.579412466809906 1.530567110483691 L4.635429719809956 1.5257870404836957 L4.686382681809896 1.5035144974837387 L4.687622916809907 1.4977784144836797 L4.686796092809907 1.4888642294836707 L4.688863150809986 1.4805443234837021 L4.698474966809947 1.476642753483734 L4.703745962809926 1.4789423534836637 L4.722659537809925 1.4946261514837182 L4.730721060809962 1.5041604524837204 L4.732684764809896 1.5120669464836745 L4.736612174809913 1.5179322224836689 L4.750564810809912 1.5214462194837104 L4.7635872718099606 1.522893160483708 L4.7690649728099785 1.5221438514837082 L4.783224315809996 1.5166144734837026 L4.78508466780999 1.519947603483704 L4.786118196809973 1.5253219524836688 L4.791389192809895 1.528784273483712 L4.849783560810003 1.532995902483652 L4.849576854809918 1.5261487754836942 L4.850920441809983 1.5121186234836763 L4.850507030809972 1.5055040404836895 L4.877585480809948 1.5411607784836754 L4.893191763809902 1.5570254434836848 L4.911485221809976 1.5670506714837025 L5.010187206809967 1.593715710483739 L5.084704621809912 1.6138695194836323 L5.110749543809895 1.6134561074837173 L5.152710807809903 1.6053687454837196 L5.169453971809951 1.6076425084837247 L5.184440136809933 1.613197725483733 L5.199943066809901 1.6129910194836903 L5.257407258809955 1.600872896483697 L5.267019074809973 1.6031983354837287 L5.279918568809926 1.609120317483704 L5.3699585288099385 1.6504564324836686 L5.408922557809994 1.6587505004837233 L5.447059765809961 1.6577686474836533 L5.485814677809962 1.635464619483674 L5.492224966809935 1.6317754024836866 L5.505350780809913 1.6325505494836996 L5.510001659809966 1.6429116744837167 L5.500803254809959 1.6613601604837278 L5.625653515809908 1.665080863483741 L5.656452668809941 1.675441987483655 L5.66513430980995 1.6866557734836967 L5.670405305809929 1.7001949984836848 L5.677950064809913 1.713553356483704 L5.693866405809949 1.7241211874836786 L5.725802440809893 1.7224417024837244 L5.742648957809983 1.6961383994836758 L5.764456412809913 1.6295533164836833 L5.790294628809924 1.5985474564836615 L5.855923697809935 1.5387319864837146 L5.934575227809937 1.4668759074836863 L5.953695507809918 1.4417094844836562 L5.970231965809937 1.410884492483678 L5.998137239809914 1.337168062483645 L6.017774283809949 1.2848715124836367 L6.0379280928099135 1.2601701784837225 L6.123607616809913 1.2187515174836712 L6.20970055280997 1.1773328574837088 L6.306645540809932 1.1305398484836964 L6.351914094809949 1.1080605994836965 L6.356461620809959 1.1021953244837057 L6.355738150809934 1.0959683144837022 L6.356668326809931 1.091989229483719 L6.3662801428099485 1.092919404483684 L6.369277376809968 1.0946247274836516 L6.372274608809953 1.095451550483677 L6.375065135809898 1.0952965204837177 L6.476350943809955 1.060001518483734 L6.555209179809985 1.0325871704836835 L6.560583527809904 1.0275228804837049 L6.566474641809911 1.011373995483627 L6.572159049809947 1.006077160483688 L6.701350129809946 0.9563902704836842 L6.806976757809984 0.915850110483678 L6.890175813809996 0.8839399124837009 L6.953221060809987 0.8425212524836532 L6.9752352208099 0.8716150834836505 L7.035489940809946 0.9124653034837458 L7.0600879228099345 0.9404739294836624 L7.076831086809982 0.971402274483669 L7.0871663738099 0.9815308554837152 L7.105356477809941 0.9908067754837369 L7.153105501809925 1.0070848514836577 L7.16922854781 1.016696667483675 L7.195376822809912 1.0407778854837098 L7.259558951809929 1.1305398484836964 L7.3040006838099245 1.165111381483701 L7.352473176810001 1.1847742634837353 L7.404769725809892 1.1908462444836836 L7.50688235680996 1.1850326454837052 L7.61902021481 1.1785730914837451 L7.669249706809971 1.1645171024836465 L7.695708040809954 1.1630701624836526 L7.775806509809904 1.1433039264836715 L7.79172285080994 1.144389131483667 L7.818181184809923 1.1553703734836525 L7.832443879809993 1.1580058714836703 L7.846913280809922 1.1547502554836804 L7.889287955809941 1.1305398484836964 L7.936830273809953 1.1460427774837179 L7.980858593809948 1.169297172483727 L8.02540367780994 1.1780046514836933 L8.074496288809932 1.1502285684836586 L7.990780467809934 1.2702729204836665 L7.906857942809999 1.3902914344836752 L7.823038768809958 1.5103616244836964 L7.73911624380991 1.6304318154837212 L7.687439810809899 1.7043807904837145 L7.635660025809948 1.7784072794837336 L7.583983593809982 1.8523045774837108 L7.532203808809918 1.9263052284837165 L7.450141633809942 2.0076439324837203 L7.3678727538099835 2.089034313483726 L7.285603872809922 2.1703730184837333 L7.203438345809893 2.251660046483625 L7.16922854781 2.28555978648372 L7.154862499810001 2.3133100294837625 L7.155379263809941 2.3668468144837114 L7.156619498809896 2.495727836483727 L7.1579630858099605 2.630344942483706 L7.1579630858099605 2.7045006224836676 L7.1579630858099605 2.8109540724836855 L7.1579630858099605 2.917407523483707 L7.1579630858099605 3.0238351354837256 L7.1579630858099605 3.1302885864836476 L7.1579630858099605 3.255319714483722 L7.1579630858099605 3.3802733274836676 L7.1579630858099605 3.5053044554836426 L7.1579630858099605 3.6303097454837037 L7.1579630858099605 3.7552633584836634 L7.1579630858099605 3.8802428104837112 L7.1579630858099605 3.897159566483726 L7.1579630858099605 4.005248099483683 L7.1579630858099605 4.1302533894837445 L7.1579630858099605 4.25520700248369 L7.1579630858099605 4.380212292483666 L7.1579630858099605 4.5051142294836986 L7.1579630858099605 4.630171195483673 L7.1579630858099605 4.755124808483718 L7.1579630858099605 4.880181774483706 L7.1579630858099605 5.005135388483655 L7.1579630858099605 5.13019235348364 L7.159099967809929 5.212151175483701 L7.159926789809894 5.279640596483649 L7.160650260809966 5.347130016483678 L7.1620971998099705 5.455753877483691 L7.163544139809964 5.56417103248366 L7.164991079809958 5.672691540483729 L7.166438020809942 5.781315400483653 L7.1673681958098925 5.851802054483702 L7.1682983718099464 5.922288708483652 L7.16922854781 5.998253063483691 L7.1947567058099295 6.031222627483746 L7.2200781568098975 6.064192191483702 L7.24560631480994 6.097058402483729 L7.271031118809951 6.1300279664836985 L7.32053714181 6.193900036483658 L7.371696809809912 6.260149223483655 L7.4267838868099645 6.331359346483698 L7.472465851809993 6.390270478483703 L7.521661815809971 6.453832490483681 L7.573234895809939 6.520495088483688 L7.623671093809939 6.585504040483659 L7.674003938809953 6.6506163444837405 L7.712347850809969 6.700225720483719 L7.724440135809964 6.722239880483702 L7.7280574868099094 6.74115345448374 L7.725420828809995 6.803766641483637 L7.724562606809904 6.823757615483732 L7.723992944809929 6.824327276483718 L7.647821069809929 6.902289516483695 L7.611851017809947 6.957221156483701 L7.607130965809908 6.974717901483718 L7.585483830809942 6.988064255483682 L7.528599064809946 7.039822068483733 L7.492954533809943 7.083604620483715 L7.472202580809942 7.095974412483731 L7.4568217208098915 7.0770942034837 L7.438185653809903 7.084743943483733 L7.420933048809893 7.0829535784837 L7.409458439809946 7.071478969483696 L7.40848187780994 7.049913214483713 L7.3884623458098915 7.070583787483731 L7.3845560958098915 7.094509568483733 L7.37527875280994 7.117621547483697 L7.346388778809903 7.114936000483699 L7.307326278809903 7.105740037483731 L7.2986185958098915 7.105088995483715 L7.286330184809906 7.112738735483692 L7.266473413809926 7.134548630483682 L7.239455184809906 7.145941860483692 L7.229038517809947 7.159450974483679 L7.218133569809929 7.170681443483733 L7.202427189809946 7.169867641483695 L7.1892435958098915 7.1630317034837 L7.179722111809944 7.156358526483718 L7.173130314809946 7.146755662483731 L7.168979923809893 7.132432745483715 L7.1697123458098915 7.117621547483697 L7.179559350809932 7.089952276483718 L7.178908309809906 7.077745245483715 L7.176466903809903 7.063910610483692 L7.180535913809926 7.051540818483733 L7.19559125280994 7.029242641483695 L7.160190861809944 7.056423630483682 L7.156121850809932 7.174018031483701 L7.134800236809944 7.200629360483692 L7.116245548809893 7.186713344483696 L7.097690861809944 7.125189906483701 L7.079461694809929 7.111273891483695 L7.069045028809903 7.105251755483682 L7.059849064809946 7.0946723284837 L7.050490340809908 7.090928839483713 L7.038608830809942 7.105088995483715 L7.045119246809911 7.1200629534837 L7.048048934809906 7.133246547483697 L7.045444767809947 7.145941860483692 L7.061720809809906 7.138861781483701 L7.074578882809924 7.142279750483699 L7.083286564809946 7.153510219483696 L7.086297632809924 7.169867641483695 L7.084181746809911 7.176540818483733 L7.074904403809903 7.181911912483731 L7.072625757809924 7.187608526483718 L7.0759623458098915 7.197211391483695 L7.083286564809946 7.199490037483731 L7.090610783809943 7.201117641483695 L7.093784611809944 7.207790818483733 L7.0954935958098915 7.280707485483692 L7.101434350809932 7.319444464483713 L7.114292423809893 7.3446723284837 L7.123244246809911 7.347113735483692 L7.134149194809929 7.345811651483718 L7.146356225809932 7.346381313483693 L7.158970158809943 7.355170375483699 L7.168735783809943 7.369574672483697 L7.17020062780994 7.380479620483715 L7.158970158809943 7.406439906483701 L7.134311955809942 7.436794724483679 L7.112095158809943 7.441189255483682 L7.108921330809942 7.429877406483701 L7.141636173809893 7.413519985483692 L7.124383569809929 7.407335089483713 L7.110548934809906 7.398057745483715 L7.086297632809924 7.372504360483692 L7.082554142809947 7.364529099483679 L7.083856225809932 7.359483526483718 L7.083205184809906 7.355658656483701 L7.072625757809924 7.351508266483695 L7.073927840809908 7.353786912483731 L7.067173283809943 7.356146938483693 L7.0525248458098915 7.358832485483692 L7.027541121809911 7.372504360483692 L7.005161564809946 7.3993598284837 L6.9841654708098915 7.417914516483695 L6.963413517809947 7.406684047483697 L6.964064559809906 7.415228969483696 L6.966668725809932 7.424262172483697 L6.972039819809929 7.431749151483718 L6.9802592208098915 7.434678839483713 L6.985060653809903 7.437445766483695 L6.983188908809943 7.443956182483721 L6.976434350809932 7.454779750483699 L6.982944767809947 7.469428188483693 L7.011265080809942 7.488227016483695 L7.018101017809947 7.502224412483731 L7.006382267809947 7.525336391483695 L6.97879437780994 7.552436000483699 L6.947625757809924 7.574896938483693 L6.901239038809926 7.594021287483731 L6.840041121809911 7.666775193483733 L6.805373153809903 7.679958787483731 L6.774692814809946 7.673285610483692 L6.744907658809943 7.659857875483699 L6.713087996809911 7.652533656483701 L6.680373153809903 7.655951625483699 L6.579298934809906 7.687771287483731 L6.537795028809903 7.717556443483733 L6.512567163809926 7.7255317034837 L6.483188908809943 7.743842250483699 L6.4333842208098915 7.7841254534837 L6.421584090809908 7.796495245483715 L6.412795028809903 7.810492641483695 L6.3943217208098915 7.852322068483733 L6.364455184809906 7.890082485483692 L6.360142033809943 7.906928188483693 L6.362095158809943 7.914659307483721 L6.376987736809944 7.9345160784837 L6.378127059809906 7.941026495483715 L6.374302189809946 7.956325974483679 L6.373244246809911 7.965033656483701 L6.354364038809926 8.028917120483715 L6.352085392809947 8.061713344483696 L6.373244246809911 8.077745245483715 L6.368035913809926 8.103949672483697 L6.380161564809946 8.11550566248373 L6.400750757809924 8.113471156483701 L6.421584090809908 8.098090297483697 L6.422397892809947 8.109320766483695 L6.414585392809947 8.121202276483718 L6.379591903809903 8.154486781483701 L6.358677189809946 8.182400193483733 L6.3533060958098915 8.194444464483713 L6.348992944809929 8.245225714483713 L6.342645288809926 8.2626410784837 L6.308628361809944 8.310980922483697 L6.307895939809946 8.324408656483701 L6.318719507809924 8.360785610483692 L6.318556746809911 8.379340297483697 L6.312371850809932 8.39480253748373 L6.303501408809943 8.4091254534837 L6.291864038809926 8.421658005483682 L6.27762250280994 8.431098110483692 L6.229282658809943 8.453070766483695 L6.216099064809946 8.4618598284837 L6.192091903809903 8.489936000483699 L6.178582788809926 8.500678188483693 L6.160923283809943 8.503526495483715 L6.168735783809943 8.486518031483701 L6.179559350809932 8.448350714483713 L6.1814310958098915 8.4345160784837 L6.163446069809929 8.438910610483692 L6.155552189809946 8.448676235483692 L6.153843205809942 8.461697068483733 L6.1540873458098915 8.475775844483696 L6.153110783809943 8.485053188483693 L6.147251408809943 8.509711391483695 L6.149123153809903 8.515245245483715 L6.152866642809947 8.520697719483696 L6.154657007809924 8.52663847448368 L6.137078882809924 8.555447068483733 L6.116733830809942 8.608832485483692 L6.090041121809911 8.65163847448368 L6.079624455809942 8.709174281483701 L6.0681498458098915 8.732530401483718 L6.055454533809943 8.743923630483682 L6.046746850809932 8.745713995483715 L6.025099715809908 8.736273891483695 L6.020298283809943 8.7333442034837 L6.007196069809929 8.718207485483692 L6.002476017809947 8.717230922483697 L5.975864689809946 8.715033656483701 L5.980015080809942 8.70632597448368 L5.98074750280994 8.702338344483696 L5.970412215809908 8.694037563483693 L5.962599715809908 8.712348110483692 L5.965366642809947 8.727647589483713 L5.977410913809926 8.73659941248373 L5.997593205809942 8.736273891483695 L5.985548934809906 8.750434047483697 L5.989617944809929 8.762152797483697 L6.0036967208098915 8.766791469483696 L6.038446069809929 8.752631313483693 L6.049595158809943 8.7606879534837 L6.055942814809946 8.77598743248372 L6.058465600809932 8.790798630483682 L6.056512475809932 8.822374151483718 L5.975864689809946 9.044623500483699 L5.950229923809893 9.0692817034837 L5.921584090809908 9.073838995483715 L5.901401798809893 9.058783656483701 L5.901564559809906 9.024848110483692 L5.879429142809947 9.037055141483695 L5.873244246809911 9.044623500483699 L5.876824975809932 9.054633266483695 L5.883579533809943 9.06472441248373 L5.88699750280994 9.074164516483695 L5.891473413809926 9.08327909948368 L5.901564559809906 9.092475063483693 L5.923699975809932 9.0907660784837 L5.934767684809906 9.096137172483697 L5.93191937780994 9.113389776483718 L5.910841903809903 9.136664516483695 L5.907749455809942 9.143744594483696 L5.904982528809903 9.15261503748373 L5.897821069809929 9.1649848284837 L5.88895062780994 9.175889776483718 L5.880242944809929 9.1806098284837 L5.870640080809942 9.175401495483715 L5.863966903809903 9.152452276483718 L5.856154403809903 9.147162563483693 L5.849318465809908 9.13503691248373 L5.851434350809932 9.112087693483677 L5.849969507809924 9.09825305748372 L5.832554142809947 9.112982875483699 L5.806837996809911 9.09890409948368 L5.79520062780994 9.097113735483692 L5.784214298809893 9.106146938483693 L5.794142684809906 9.115668422483697 L5.805942814809946 9.120307094483696 L5.832554142809947 9.126654750483699 L5.825067163809926 9.144477016483695 L5.815627059809906 9.15294055748372 L5.784214298809893 9.160102016483695 L5.773960392809947 9.160346156483701 L5.762729923809893 9.159288214483713 L5.7536967208098915 9.160346156483701 L5.750034611809944 9.16726347448368 L5.750767033809943 9.1884223284837 L5.752720158809943 9.198350714483713 L5.756870548809893 9.208604620483715 L5.771356225809932 9.189073370483715 L5.804559350809932 9.18679472448368 L5.839552840809908 9.197048630483682 L5.8591654708098915 9.21544055748372 L5.855340600809932 9.23952909948368 L5.805373153809903 9.325303839483713 L5.773309350809932 9.40684680748372 L5.740594507809924 9.52956816248373 L5.729526798809893 9.55788847448368 L5.720574975809932 9.544867641483695 L5.711948673809893 9.545600063483693 L5.703485132809924 9.554307745483715 L5.695509871809911 9.565538214483713 L5.693882267809947 9.570990688483693 L5.694858830809942 9.583441860483692 L5.69168500280994 9.589057094483696 L5.677443465809908 9.601996547483697 L5.674351017809947 9.6063910784837 L5.640171330809942 9.709418422483697 L5.633823673809893 9.690863735483692 L5.636916121809911 9.661729620483715 L5.633335392809947 9.6474067034837 L5.620477319809929 9.657416469483696 L5.613315861809944 9.671332485483692 L5.607293725809932 9.686957485483692 L5.599155705809942 9.701931443483677 L5.594272892809947 9.701361781483701 L5.587192814809946 9.69753691248373 L5.580845158809943 9.69851347448368 L5.578159611809944 9.712592250483699 L5.580112736809944 9.720893031483701 L5.595737736809944 9.742621547483697 L5.585646590809908 9.75645618248372 L5.551955184809906 9.761420375483699 L5.513869246809911 9.752061651483718 L5.489943465809908 9.722439255483682 L5.489129663809926 9.728217250483699 L5.483188908809943 9.742947068483677 L5.453810653809903 9.734076625483699 L5.432163517809947 9.7548285784837 L5.4138529708098915 9.783311651483718 L5.3943217208098915 9.797553188483693 L5.390171330809942 9.798936651483718 L5.386590600809932 9.799262172483697 L5.383335392809947 9.800727016483695 L5.380080184809906 9.80495878748373 L5.295234407809907 9.74376087648368 L5.209864940809943 9.682369275483698 L5.124495474809912 9.620874320483683 L5.039126008809937 9.559379366483672 L4.953756542809963 9.4979877644837 L4.868283723810002 9.436492810483688 L4.7830176108099565 9.374997855483674 L4.697751496809978 9.313606254483691 L4.612278677809961 9.252214652483719 L4.605651982809938 9.247435399483695 L4.527012564809972 9.190719698483708 L4.441539745809955 9.129328096483722 L4.356273632809909 9.067833142483625 L4.271007518809931 9.006441540483738 L4.185534700809903 8.944946585483724 L4.100268586809925 8.883451631483712 L4.01489912080995 8.821956677483715 L3.9604321618099263 8.782889294483699 L3.94668622980992 8.764905896483715 L3.9366610018099024 8.74444202848365 L3.9192977218099756 8.68284372148371 L3.911752962809935 8.667444144483728 L3.8978003258099463 8.654628389483651 L3.878886750810004 8.645533337483673 L3.857802766809975 8.639952282483751 L3.8364087238099316 8.638091931483746 L3.788556346809962 8.640882458483706 L3.785662466809974 8.627136527483675 L3.7936206378099016 8.607602835483679 L3.797651399809915 8.591066378483678 L3.792587109809965 8.583211559483647 L3.7761540038099426 8.581144502483685 L3.768919302809927 8.573806449483687 L3.7673690108099933 8.563264457483715 L3.76995283180991 8.551585583483746 L3.774707063809892 8.54042347448372 L3.7797713538099558 8.531535127483696 L3.794344107809927 8.515412080483717 L3.8166683268099675 8.497738740483715 L3.8404394848099557 8.485026338483667 L3.859353059809898 8.483579398483673 L3.857906119809904 8.465699353483718 L3.8614201168099314 8.451746716483715 L3.871341991809963 8.443168428483691 L3.8895320958099475 8.441824841483726 L3.8694726668099904 8.319602268483695 L3.867311230809939 8.306432589483652 L3.8496378908099516 8.198015434483683 L3.8343416658099088 8.173417451483704 L3.7517627278099255 8.127322074483676 L3.613688998809941 8.050208195483652 L3.5370988278099205 8.007432751483694 L3.322331575809976 7.887543428483728 L3.107667675809914 7.7677574584836755 L2.893003775809909 7.647868135483709 L2.6783398768098934 7.5280821654836565 L2.4635726238099593 7.408296195483704 L2.24901207680994 7.2884068724836375 L2.034348176809935 7.168517549483671 L1.8196842778099764 7.0486282264836895 L1.6051237308099005 6.928738903483708 L1.4358436748099095 6.834277861483759 L1.3904598308099523 6.8089529334836705 L1.1756925778099045 6.689063610483689 L0.9610286778098995 6.5692776404836515 L0.9083704688099985 6.539868145483727 L0.7463647778099514 6.44938831748367 L0.5315975258098931 6.329602347483718 L0.31693362581000173 6.209713025483655 L0.24200279880994202 6.167855114483675 L0.204899120809948 6.1649612344836875 L0.19146324780989943 6.156176240483706 L0.189499544809955 6.1300279664836985 L0.1739966148099299 6.1295112014836555 L0.1698624998099305 6.1300279664836985 L0.09369143880990549 6.1300279664836985 L0.08800703080998318 5.9265261764837085 L0.08428632780998413 5.7902037474836625 L0.10082278580994597 5.64674997148369 L0.12459394480992358 5.440561006483666 L0.1429907548099365 5.281811006483725 L0.1419572258099535 5.243157035483723 L0.11105471980993542 5.1404242874837145 L0.07994550781000243 5.037381482483713 L0.0830460928099157 5.01764108448366 L0.14123375680991757 4.940126436483698 L0.14974304780997016 4.928777416483658 L0.23011721980997635 4.821580701483686 L0.2660840168099341 4.793675426483706 L0.27466230380991163 4.7804462604837035 L0.27745283180995983 4.760085746483671 L0.2661873698099768 4.723602184483671 L0.2651538408099938 4.705205375483661 L0.26959801380990456 4.696110322483694 L0.28685794181000546 4.675646456483637 L0.2938859368099358 4.66520781648369 L0.2969865238099416 4.656732881483695 L0.3210648718099307 4.558021639483716 L0.32189456280990925 4.554620251483744 L0.3390511398100031 4.523821098483683 L0.3686100578099101 4.503563936483676 L0.4092277348099671 4.488887829483691 L0.44157718080992225 4.4724547244836295 L0.46565839880991433 4.446616508483704 L0.4817814448099895 4.403725069483745 L0.4857289998099006 4.380708815483718 L0.48787926380992275 4.368171684483688 L0.49614749380997836 4.359386690483706 L0.5603296218100056 4.327243949483762 L0.5774861978099963 4.311637667483726 L0.5918522458099957 4.2713817264836855 L0.6206876948099236 4.233916312483704 L0.6466292648099667 4.169837536483701 L0.6525203778099851 4.149373669483641 L0.6531404948099109 4.1045185264836626 L0.6583081378099607 4.083227835483672 L0.666679719809899 4.06286732148364 L0.676498241809945 4.044987275483681 L0.6969621088099345 4.024936820483635 L0.7134985678099426 4.028812553483679 L0.729828320809979 4.038062634483698 L0.749542055809961 4.034305312483671 L0.7507055988099225 4.034083548483711 L0.7563600418100052 4.024432936483695 L0.7614542968099656 4.015738415483643 L0.7631079418099986 3.9932074914837052 L0.7699292318099467 3.9749140334837314 L0.8184017248099096 3.963855277483635 L0.8525081698099868 3.9310924194836367 L0.8732820968099233 3.9183800164836846 L0.9555509768099952 3.909956758483691 L0.9873836588099536 3.8955390344836793 L0.9999927088099909 3.8549213584837254 L0.989554068809916 3.815130505483726 L0.9721907878099998 3.7744611534836743 L0.9702238008099968 3.755665500483719 L0.9684700848100007 3.7389077674837132 L1.0278979818099785 3.6902802444837057 L1.0489819658098938 3.6095358194837566 L1.0720296538099703 3.575222668483651 L1.0820548828099774 3.5701842164836712 L1.1030355138099637 3.565895072483702 L1.1129573888099387 3.5613475464836775 L1.1231893228099281 3.5517615684836734 L1.1304240228098976 3.5404185914836894 L1.1621533528099164 3.473213391483714 L1.1681478188099774 3.4515092894837274 L1.1691813478099604 3.2571542274837135 L1.1735221678099421 3.2449844284837077 L1.1922290358099232 3.221316621483684 L1.1959497388099223 3.2105937624837573 L1.1908854488099152 3.199457490483642 L1.167424348809952 3.177546683483687 L1.1586393548098997 3.167159720483756 L1.1515080068099266 3.1496414104836994 L1.1473738928099166 3.129616792483663 L1.1461336588098945 3.1089462194837445 L1.147683951809988 3.089490042483664 L1.1570890618099767 3.044893282483745 L1.1569857098099234 3.025540458483693 L1.1118205068099698 2.916735729483637 L1.0937611978100037 2.873199306483688 L1.0550797848099407 2.7799482134836673 L1.0485685548099397 2.7406741254836824 L1.0573535478099458 2.7159727904836792 L1.0754402988099443 2.7020201534836907 L1.0955941078099656 2.690547985483665 L1.110373566809976 2.6728229694836507 L1.113060742809914 2.6501370154836827 L1.103862336809918 2.6330837934837525 L1.07657718080997 2.6050751664836476 L1.070789419810005 2.586006563483668 L1.0651050128099584 2.536242158483649 L1.0550797848099407 2.522599580483732 L1.045984732809977 2.5239948444837133 L1.0393701488099438 2.532314750483682 L1.0313086268098957 2.5397044804836817 L1.0175626948099463 2.5386709514836987 L1.0081575848099007 2.5294725464837065 L0.9659896158099102 2.4418293164836946 L0.9507967448098995 2.354961234483685 L0.9304362298099633 2.291915987483666 L0.9264054688099961 2.283079317483658 L0.9195841798099238 2.2746043824836626 L0.9143131838100018 2.2733124714836954 L0.8859944978099108 2.2597215694837054 L0.884134146809906 2.257034395483675 L0.8821704428099721 2.2552257194836933 L0.8805167968098928 2.251763399483739 L0.8783463868099304 2.2483010774837062 L0.8745223308100023 2.246492402483714 L0.8720418618099117 2.248094372483738 L0.867597688810001 2.255897513483678 L0.8651172198099104 2.257654512483658 L0.860983104809911 2.259669893483693 L0.8498209958099707 2.2688166214836833 L0.8436198238099948 2.2709353554836618 L0.8299772458099639 2.267318005483677 L0.8208821938100002 2.257912894483713 L0.8058960288099613 2.2340383834836395 L0.7741666988099993 2.1987433794837337 L0.7641414708099816 2.1813284224837055 L0.7350993158099115 2.030071504483704 L0.7350334668099592 2.029953669483735 L0.7233170898099885 2.0089875204836893 L0.7023364578098992 1.995086559483699 L0.6552075518100011 1.9815990114837412 L0.6343302738100007 1.9683181674837336 L0.6234782228099718 1.9454255084837122 L0.6135563468098937 1.822642305483658 L0.6006372398099344 1.7827480994837153 L0.5932991858099896 1.7720510784837025 L0.5838940758100009 1.761793306483714 L0.5760392578100024 1.7510704464836984 L0.5734554358099828 1.739107352483746 L0.5764526698100028 1.7277902134836758 L0.5864778968099174 1.703295585483719 L0.588028189809954 1.6938129604836583 L0.5838940758100009 1.6828317184836727 L0.5715950838099886 1.6614118364837402 L0.5707682618099668 1.6505856244836998 L0.5763493158099706 1.6418264694837212 L0.5854443678099344 1.6378473834837344 L0.5956763018099238 1.6351602084837147 L0.6049780598099161 1.6304318154837212 L0.6239949868099117 1.6012346314836954 L0.6334000978099468 1.561159557483709 L0.6358805668099237 1.480751029483745 L0.6291626298099047 1.4597187214836431 L0.6144865228099476 1.450261934483681 L0.5957796548099665 1.4445258504837177 L0.5769694338099427 1.4347073284836576 L0.5445166338098986 1.400084118483651 L0.5265332358099428 1.3928752564836806 L0.4993514328099238 1.4007559124837208 L0.48891279280990574 1.4105227584836832 L0.4845719718099346 1.4201087364836873 L0.47992109280993844 1.4242945274837133 L0.4683455728099304 1.4177316204836394 L0.4532560538099162 1.3773981654836724 L0.43103518880990777 1.3487177444836824 L0.4304150708099357 1.3438343224837475 L0.41987307980996746 1.3447128214837 L0.4000293288099712 1.350319714483721 L0.38039228480993614 1.3516116254837591 L0.36313235680994893 1.356055798483684 L0.354657421809911 1.35662423948364 L0.34194501880994466 1.3518183304837272 L0.3485596028099778 1.344092703483728 L0.3685067058099136 1.3313544634836667 L0.35600100880991903 1.316135754483728 L0.3402913738099116 1.3102446414837239 L0.33843102180991735 1.3047669394836454 L0.3861800458099012 1.2800656044837275 L0.3970320968099301 1.2665780554836665 L0.39444827480996736 1.2529096394836507 L0.3723307608099091 1.2413599564837092 L0.3529004228099595 1.2412566034836807 L0.31321292280994584 1.2554159464837262 L0.29750328780999524 1.2585165314836821 L0.2742488928099007 1.2501191124836915 L0.2756958328098946 1.232781669483689 L0.2884082358099178 1.2097339804837226 L0.29905357980992875 1.1841024704837544 L0.2965731118099413 1.1679535854836764 L0.28499759081000064 1.1564555784837331 L0.27032148480991935 1.1466628944836863 L0.2584359048099074 1.1355782994836723 L0.2505810868099658 1.1196877974836532 L0.25099449880996616 1.1095333774836895 L0.25533531880994786 1.1000249144837149 L0.25926272680992923 1.0860981164837291 L0.26215660780990646 1.0627920454836932 L0.2618465498099951 1.0510356564836947 L0.2587459628099893 1.0394342974837407 L0.2503743808099941 1.0281946734837 L0.2392122718099401 1.0179885784837133 L0.2304272788099908 1.007033174483741 L0.2291870448099118 0.9934164354837414 L0.23053063180991984 0.9626431194836904 L0.21802493480992524 0.939440401483683 L0.19549401080990236 0.9217412234836679 L0.1665552088099318 0.9077627474836767 L0.2676343098099707 0.8076138224836633 L0.3686100578099101 0.7075424104836721 L0.46958580680995254 0.6073934854836587 L0.570664908809924 0.507296236483672 L0.6491510614770206 0.4668456712981488 L0.7186331421269685 0.43103566740521515 L0.7876361505170664 0.39653416321019463 L0.8557545049534312 0.36247498599191275 L0.9530664398625888 0.3270888278431592 L1.0342283195341722 0.2965600474162251 L1.1103064721830194 0.26794349458502964 L1.1921971378963505 0.23714058362861934 L1.2837753253838784 0.2026937424636266 L1.3656659910972664 0.1718908315072163 L1.435202844639825 0.1457347673306124 L1.4528959237142018 0.17890929059516125 L1.5230396343302388 0.1401732115982277 L1.6010754609621856 0.09707879987607626 L1.6231918098051707 0.12361841848764143 L1.585594016772113 0.20102563943813223 L1.6851175865655748 0.20102563943813223 L1.7603131726316903 0.2231419882811032 L1.7116572051771115 0.34699354180182596 L1.7520836972586196 0.4203175622901263 L1.7996782368685516 0.506642712403357 L1.8001183920189803 0.5074410489298806 L1.8016170944140342 0.5079572393057425 L1.8898420024706226 0.5383440916904654 L1.8952889854564035 0.5081943160879625 L1.895322728535909 0.5080075419444121 Z M7.243442814809946 7.177029099483679 L7.255161564809946 7.163764125483699 L7.282261173809893 7.165473110483692 L7.312209090809908 7.175238735483692 L7.332798283809943 7.186957485483692 L7.352248153809903 7.218370245483715 L7.344761173809893 7.239529099483679 L7.326369246809911 7.242947068483733 L7.312860132809924 7.221137172483697 L7.313755314809946 7.232123500483699 L7.3122904708098915 7.243353969483696 L7.3083842208098915 7.251736130483682 L7.302036564809946 7.255154099483679 L7.29910687780994 7.256456182483721 L7.297235132809924 7.258978969483696 L7.294305444809929 7.261501755483682 L7.288364689809946 7.262803839483713 L7.281447371809911 7.260443813483693 L7.275913517809947 7.255805141483695 L7.272332788809926 7.251166469483696 L7.2712748458098915 7.2489692034837 L7.25809125280994 7.2509223284837 L7.240268986809944 7.256944464483713 L7.202996850809932 7.2763129534837 L7.193882267809947 7.269639776483718 L7.185093205809942 7.271267380483682 L7.178420028809903 7.279730922483697 L7.175653100809932 7.293402797483697 L7.181024194809929 7.301215297483697 L7.191766382809924 7.3075629534837 L7.199416121809911 7.314643031483701 L7.19559125280994 7.324815557483721 L7.183140080809942 7.324652797483697 L7.175327580809942 7.318793422483697 L7.170933048809893 7.309027797483697 L7.168979923809893 7.296820766483695 L7.14676312780994 7.301459438483693 L7.146844507809924 7.278754360483692 L7.158726017809947 7.247260219483696 L7.172397892809947 7.224799281483701 L7.190627059809906 7.214626755483682 L7.214145939809946 7.207628057483721 L7.23465375280994 7.197211391483695 L7.243442814809946 7.177029099483679 Z" fill="black" stroke="black" stroke-width="0.5" vector-effect="non-scaling-stroke"/></svg>