<svg xmlns="http://www.w3.org/2000/svg" viewBox="0 0 358.42221435497993 16.507888184039967"><path d="M351.09560831698997 3.5438814290199527 L351.08177368099 3.548316650020004 L351.07542602499 3.549008382019954 L351.06859008799 3.5475842290199946 L351.11692993099 3.5251639810199915 L351.14207641598995 3.5182466630199567 L351.20888956698997 3.5131197100199554 L351.21800414999 3.5099865720200025 L351.20067016598995 3.5046154790199946 L351.21051717098993 3.498389893019967 L351.22166625998995 3.50168579102 L351.22907185798994 3.510759684019993 L351.22874633799 3.5225598150199655 L351.22028279598993 3.5284191900199655 L351.20799438498995 3.5285005700200056 L351.18382446299 3.523861898020007 L351.16185180599 3.522966716019985 L351.13597289999 3.524919841019985 L351.11180297798995 3.531348877019971 L351.09560831698997 3.5438814290199527 Z M26.249620360990008 16.270850830019974 L26.25942667599 16.28639445001999 L26.272854410989993 16.314307861019977 L26.276394449989994 16.339617106019993 L26.256456298990003 16.34604614301997 L26.244859618990006 16.32846801801997 L26.237820230989996 16.30592570001999 L26.238430581990002 16.284604085019957 L26.249620360990008 16.270850830019974 Z M22.158026936990012 10.501726481019992 L22.177720946990007 10.494402262019994 L22.19228800399 10.50009887701997 L22.197537027989995 10.510027262019994 L22.189358316989996 10.515235596019968 L22.15090616799 10.520281169019986 L22.13487426699001 10.514910075019989 L22.12388793899001 10.494076742020004 L22.133450113989994 10.49301879901997 L22.142361246989992 10.493995361019975 L22.150539956990002 10.49692504901997 L22.158026936990012 10.501726481019992 Z M23.045640868990006 8.931983643019967 L23.095079344990012 8.917091065019966 L23.117052001990004 8.916928304019953 L23.110745035989993 8.938087158019973 L23.103746337990003 8.945655518019967 L23.098782144989997 8.956153565019966 L23.09813110299001 8.968116455019972 L23.10399047799001 8.979753825019989 L23.092556558989997 8.979916585019955 L23.07982055599001 8.963640544019986 L23.06643351199 8.959246012019994 L23.058865152989995 8.954932861019975 L23.04653605099 8.945574137019994 L23.038927001990004 8.936134033019973 L23.045640868990006 8.931983643019967 Z M6.379543863989994 7.718116455019972 L6.349473876990004 7.7100598150199655 L6.345242105989996 7.707943929019953 L6.344631753990001 7.707130127019971 L6.364163003990001 7.713233643019967 L6.3933378089899975 7.720313721019968 L6.399278563990009 7.7234875490199695 L6.404527587990003 7.728126221019968 L6.4057482909900045 7.729509684019993 L6.424099527989995 7.747006429019953 L6.424221597989998 7.747006429019953 L6.4265409339899975 7.743507080019972 L6.427598876990004 7.742530518019967 L6.428860269989997 7.7419608560199915 L6.430406493990006 7.740658773020007 L6.4300402829900065 7.73683390301999 L6.403469644989997 7.690854085019955 L6.390652261989999 7.678077393019967 L6.378648680990011 7.669857992020004 L6.3598905429900014 7.660255127019971 L6.342760009990002 7.657813721019968 L6.3354357909900045 7.671241455019972 L6.329495035989993 7.663347575019989 L6.3297391759899995 7.656837158019973 L6.3345812989900026 7.650733643019967 L6.34227172799001 7.643979085019955 L6.3770617669900105 7.660743408019973 L6.40749796499 7.682227783019973 L6.427720946990007 7.712175700019989 L6.431667886989999 7.732113851019951 L6.43288858999 7.7410656740199695 L6.431627196990007 7.753842367020004 L6.417996011989999 7.747006429019953 L6.408922118990006 7.734718018019967 L6.3972440589899975 7.7254406740199695 L6.383205972989998 7.719093018019967 L6.379543863989994 7.718116455019972 Z M354.84349243099 7.493100179019953 L354.87051066098996 7.499366455019972 L354.8955757649899 7.518816325019989 L354.90827107698993 7.538998617020004 L354.89801717098993 7.5477062990199695 L354.88467081698997 7.541114502019971 L354.82965779598993 7.493100179019953 L354.83633097298997 7.490089111019975 L354.83958618099 7.489844971019968 L354.84349243099 7.493100179019953 Z M354.03904907198995 7.390886637019994 L354.03416625998995 7.382748617020004 L354.03050414999 7.374610596019968 L354.03734008799 7.378516846019968 L354.04246704098995 7.383236898020007 L354.04661743099 7.388770752019971 L354.05052368099 7.395281169019986 L354.04678019198997 7.395850830019972 L354.04433878598996 7.394792887019994 L354.0420601399899 7.392839762019994 L354.03904907198995 7.390886637019994 Z M353.64883097298997 6.759132080019972 L353.6572945149899 6.780046794019986 L353.6436226399899 6.807390544019986 L353.64061157198995 6.7959973150199655 L353.6436226399899 6.755714111019975 L353.63353149399 6.740984294019986 L353.61644164999 6.717221273020007 L353.60960571299 6.7042004400199655 L353.61692993099 6.711036377019971 L353.64883097298997 6.759132080019972 Z M353.11611612899 6.321225179019953 L353.12401000998995 6.345964762019994 L353.12596313498995 6.3819348150199655 L353.11790649399 6.416602783019973 L353.09560831698997 6.437354736019975 L353.06989217098993 6.434180908019973 L353.06582316098996 6.411719971019968 L353.07819295198993 6.384864502019971 L353.10244425399 6.369076742020004 L353.10244425399 6.375912679019953 L353.09349243099 6.382097575019989 L353.08323852499 6.392188721019968 L353.07591430599 6.404558512019994 L353.07567016598995 6.4168469240199695 L353.08535441098996 6.426124268019967 L353.09520141598995 6.420183512019994 L353.10301391598995 6.409115804019953 L353.10618774399 6.4031750490199695 L353.11562784798997 6.3917004400199655 L353.11619750998995 6.365496012019994 L353.10911743099 6.3376639810199915 L353.09560831698997 6.321225179019953 L353.10244425399 6.313819580019972 L353.10545532198995 6.317725830019972 L353.1084663899899 6.3194348150199655 L353.11611612899 6.321225179019953 Z M354.46670206698997 6.2176281740199695 L354.48379191098996 6.232032471019968 L354.50218383799 6.258725179019953 L354.5166695149899 6.2907889810199915 L354.52138956698997 6.321225179019953 L354.50722941098996 6.3103202310199915 L354.49949829098995 6.293718669019986 L354.49412719698995 6.275326742020004 L354.48720987899 6.259213460019955 L354.46767862899 6.235287679019953 L354.45848266598995 6.221290283019973 L354.45303019198997 6.204525960019955 L354.45970336899 6.205421143019967 L354.46279581698997 6.208432210019955 L354.46670206698997 6.2176281740199695 Z M354.06663696299 6.219174398020007 L354.08079711899 6.2478202310199915 L354.07567016598995 6.272803955019972 L354.06932250998995 6.266212158019973 L354.06012654598993 6.260515544019986 L354.04092081698997 6.252377523020007 L354.04092081698997 6.245541585019955 L354.05052368099 6.247494710019955 L354.07567016598995 6.259213460019955 L354.07225219698995 6.241472575019989 L354.06370727499 6.2276379400199655 L354.04092081698997 6.204525960019955 L354.02317993099 6.180111898020007 L354.01325154598993 6.171485596019968 L354.00047485298995 6.169776611019975 L354.00169555599 6.174252523020007 L354.00291625998995 6.177100830019972 L354.00674112899 6.183448486019975 L353.99437133799 6.177996012019994 L353.99949829098995 6.169776611019975 L354.01536743099 6.1651379400199655 L354.03465454098995 6.169776611019975 L354.04661743099 6.191749268019967 L354.06663696299 6.219174398020007 Z M352.82249633799 6.087826742020004 L352.83006469698995 6.132667236019975 L352.83616821299 6.149350179019953 L352.81321899399 6.142432861019975 L352.80565063498995 6.122413330019972 L352.80809204098995 6.084408773020007 L352.80410441098996 6.070899658019973 L352.77399373298994 6.019630127019971 L352.78270141598995 6.020443929019953 L352.78896769198997 6.022885335019955 L352.79482706698997 6.027198486019975 L352.80133748298994 6.033302002019971 L352.80491821299 6.051042887019994 L352.82249633799 6.087826742020004 Z M352.53392211899 5.594499919019986 L352.53668904598993 5.605323486019975 L352.54808227499 5.632097575019989 L352.5557320149899 5.674089762019994 L352.5553251139899 5.6807629400199655 L352.55524373298994 5.6814139810199915 L352.55467407198995 5.690040283019973 L352.54075805599 5.704363200019989 L352.53123657198995 5.697690023020007 L352.52708618099 5.691667887019994 L352.52969034798997 5.686785075019989 L352.54075805599 5.683855387019994 L352.53847941098996 5.689552002019971 L352.5381538899899 5.690691325019989 L352.53929321299 5.691749268019967 L352.54075805599 5.697527262019994 L352.55491821299 5.681820882019954 L352.55508097298997 5.681251221019968 L352.55508097298997 5.6797049970199875 L352.55125610298995 5.660417887019994 L352.53392211899 5.625261637019994 L352.52025024399 5.533057861019975 L352.53392211899 5.554053955019972 L352.53392211899 5.594499919019986 Z M352.49608032198995 5.5125500490199695 L352.50446248298994 5.515723877019971 L352.51601847298997 5.522803955019972 L352.52098266598995 5.529721273020007 L352.50999633799 5.533057861019975 L352.49453409798997 5.525733643019967 L352.44896118099 5.490577393019967 L352.43821899399 5.477800700019989 L352.45123982698993 5.477800700019989 L352.45994750998995 5.4871594240199695 L352.48729125998995 5.508399658019973 L352.49608032198995 5.5125500490199695 Z M351.67796508799 4.751563721019968 L351.66722289999 4.741879476019951 L351.67186157198995 4.729835205019972 L351.69147420198993 4.710914307019996 L351.69570597298997 4.689714762019994 L351.69114868099 4.684058838019999 L351.68065063498995 4.676938070020006 L351.66356079098995 4.668962809019993 L351.68602172798995 4.6657889810199915 L351.69383422798995 4.6681896970200025 L351.69847289999 4.676490479019995 L351.69871704098995 4.684913330019972 L351.69814737899 4.692807210019955 L351.69489217098993 4.708432210019955 L351.67796508799 4.751563721019968 Z M351.88963500998995 4.436256104019995 L351.94822875998995 4.46652954102 L351.97459594698995 4.4854504400199655 L351.97899047798995 4.505144450019989 L351.92503539999 4.46534952801999 L351.88939086899 4.448585205019972 L351.86229125998995 4.450538330019972 L351.86611612899 4.443336182019996 L351.87059204098995 4.43800577801999 L351.87596313498995 4.4336112470199875 L351.88279907198995 4.42942016602 L351.88963500998995 4.436256104019995 Z M351.04450154598993 4.052589111019975 L351.04629191098996 4.051734619020001 L351.04759399399 4.050961507019954 L351.04734985298995 4.054664307019996 L351.04710571299 4.056902262019994 L351.04734985298995 4.059506429019953 L351.04368774399 4.0557629400199655 L351.04075805599 4.053647054019953 L351.04450154598993 4.052589111019975 Z M351.03514282198995 4.0486014810199915 L351.03685180599 4.050717367020004 L351.03978149399 4.0537691240199845 L351.03668904598993 4.054176025020004 L351.03270141598995 4.05324015301999 L351.02952758799 4.050391846019968 L351.02676066098996 4.045264893019967 L351.03310831698997 4.045264893019967 L351.03514282198995 4.0486014810199915 Z M351.13328735298995 3.9190441900199655 L351.13727498298994 3.9245373540199946 L351.13662394198997 3.939714762019994 L351.11855753598996 3.9707206220199875 L351.10716430599 3.980730387019994 L351.06859008799 4.030779216019985 L351.04832641598995 4.05051391602 L351.05394164999 4.0398937990199695 L351.07103149399 4.024594320020006 L351.08006469698995 4.002214762019994 L351.10399047798995 3.983415934019993 L351.11326782198995 3.957211507019954 L351.12148722298997 3.946632080019972 L351.12864868099 3.935035400020004 L351.12913696299 3.9223400880199986 L351.11961547798995 3.909766846019968 L351.10228149399 3.8971529130199567 L351.08291300399 3.886899007019954 L351.06712524399 3.8813244630199986 L351.06688110298995 3.8847017420200043 L351.06712524399 3.8949963380199986 L351.06102172798995 3.8949963380199986 L351.06077758799 3.8835217290199946 L351.05784789999 3.874285075019989 L351.05296508799 3.8668794760199514 L351.04734985298995 3.860857341019985 L351.06102172798995 3.860857341019985 L351.07200805599 3.8760754400199655 L351.12230102499 3.9086682130199986 L351.13328735298995 3.9190441900199655 Z M351.04051391598995 3.3537365720200025 L351.03563110298995 3.3537365720200025 L351.03270141598995 3.351986898020007 L351.0303413899899 3.34934204102 L351.02676066098996 3.346941325019989 L351.02049438498995 3.3246838380199986 L351.01650675399 3.2752453610199748 L351.00633422798995 3.2575858560199915 L351.02025024399 3.2643404130199567 L351.02969034798997 3.2946952310199915 L351.04051391598995 3.3537365720200025 Z M351.09349243099 3.107764893019967 L351.09568969698995 3.142554932019996 L351.08665649399 3.1686372880199567 L351.06102172798995 3.1756359860199748 L351.05369750998995 3.174252523020007 L351.05052368099 3.172869059019993 L351.04734985298995 3.169410400020004 L351.0811226399899 3.1638358560199915 L351.0928413899899 3.1413749190199862 L351.09072550399 3.110613200019989 L351.08201782198995 3.080054932019996 L351.08323852499 3.0787935380199567 L351.08397094698995 3.077410075019989 L351.08445922798995 3.0760266110199748 L351.08470336899 3.074480387019994 L351.09349243099 3.107764893019967 Z M351.03766560798994 3.002906494020001 L351.07762329098995 3.0568615720200025 L351.08079711899 3.063494059019993 L351.03310831698997 3.0111665850199554 L351.01878539999 2.9852876790199527 L351.01243774399 2.976986898020007 L350.99583618099 2.9617687990199695 L350.99095336899 2.953468018019967 L350.99209269198997 2.9422375490199695 L350.9990913899899 2.957984619020001 L351.02676066098996 2.977882080019972 L351.03310831698997 2.987281494020001 L351.03766560798994 3.002906494020001 Z M20.866360269989997 3.1210298670200043 L20.877956949989994 3.131039632019954 L20.882717691989996 3.1511405440199862 L20.87856730099 3.166440023020007 L20.863267821990007 3.1619641110199748 L20.854275308989997 3.167457275020004 L20.844102782990007 3.172136637019994 L20.83323852499001 3.1752290850199554 L20.82229288699 3.1756359860199748 L20.810940347989998 3.17160766602 L20.802720946990007 3.1646496580199734 L20.796495360990008 3.1580578610199748 L20.786160074989994 3.151954346019968 L20.775784097989998 3.1378755700200056 L20.770494384990002 3.1347017420200043 L20.74807413699 3.1330334470200025 L20.646755777989995 3.103004150020004 L20.608385009990002 3.0846936040199946 L20.57469360299001 3.059547119020001 L20.548733316989996 3.035336507019954 L20.529079996989992 3.022437744020001 L20.52004679299 3.0282564290199527 L20.510525308989997 3.0285005700200056 L20.491319579990005 3.0211763510199514 L20.476182860990008 3.0046154790199946 L20.479112548990003 2.976986898020007 L20.485012613989994 2.972144775020004 L20.513821206990002 2.9559094240199695 L20.527208251990004 2.954363200019989 L20.536119384990002 2.9572521970200025 L20.539781493990006 2.961280518019967 L20.537462157990007 2.9633557130199986 L20.524522704990005 2.968848877019971 L20.511990152989995 2.982602132019954 L20.50783976199 3.0004650880199986 L20.52004679299 3.018572184019993 L20.530422769989997 3.0201184080199734 L20.544298094990012 3.0183280440199862 L20.556423746989992 3.019060466019985 L20.561632079990005 3.0282564290199527 L20.566677652989995 3.034766846019968 L20.578518472989998 3.0369641110199748 L20.602566324989994 3.0378592940199862 L20.622667235990008 3.046404216019985 L20.628811441989996 3.046363525020004 L20.61998168899001 3.034766846019968 L20.60940226199 3.027442627019971 L20.598741454990005 3.022803955019972 L20.589260660989993 3.016578369020001 L20.58213989199001 3.004330648020007 L20.59499796499 3.0086437990199695 L20.605699462990003 3.0085217290199946 L20.611558837990003 3.0011975100199972 L20.610012613989994 2.9838228350199554 L20.62075480099 2.9910656740199695 L20.624864501990004 3.0011975100199972 L20.627346597989998 3.012143148020007 L20.63365356399001 3.0217053220200025 L20.64537231399001 3.0264660650199655 L20.649400634990002 3.0187756350199972 L20.64732543899001 3.0055513510199514 L20.63292114199001 2.9830904130199567 L20.63096801699001 2.9728771970200025 L20.632961831990002 2.9637219240199695 L20.637356363989994 2.9559094240199695 L20.649034423990003 2.9634777830199734 L20.654202066989996 2.9607108560199915 L20.651028238989994 2.9422375490199695 L20.66262491799 2.949195557019996 L20.66335733999 2.9581880700200056 L20.661485594990012 2.9679536950200056 L20.66526977499001 2.976986898020007 L20.675279540990005 2.982764893019967 L20.68016235299001 2.9796724450200056 L20.683376871989992 2.9735689290199527 L20.693508706990002 2.9675467940199862 L20.69887980099 2.961036377019971 L20.70323364199001 2.953101807019996 L20.704983316989996 2.9459810380199567 L20.702297769989997 2.9372733560199915 L20.695665282990007 2.9334484860199748 L20.677720946990007 2.929216716019985 L20.64846476199 2.915626221019968 L20.612047118990006 2.8905611170200043 L20.60630981399001 2.8876314290199527 L20.601955972989998 2.8819348150199655 L20.59105102499001 2.87159952801999 L20.57982055599001 2.866798096019968 L20.57469360299001 2.8777030440199862 L20.569444579990005 2.884376221019968 L20.558458251990004 2.8827486170200043 L20.54893676699001 2.8742443850199972 L20.547960204990005 2.860328369020001 L20.56106241799 2.8505220540199527 L20.582750243990006 2.8515799970199875 L20.633531493990006 2.8644787600199972 L20.671495360990008 2.8944673670200043 L20.735500894989997 2.9128186040199946 L20.747219644989997 2.91184204102 L20.745958251990004 2.9223400880199986 L20.74229614199001 2.93214640301999 L20.736680907990007 2.939429932019996 L20.72117797799001 2.94581827801999 L20.71690551699001 2.954688721019968 L20.712429605989996 2.976986898020007 L20.709621988989994 3.0241467290199946 L20.731920165990005 3.049089762019994 L20.767564696990007 3.0661796060199915 L20.804918212990003 3.0896171060199915 L20.818956298990003 3.10129516602 L20.834377847989998 3.1113456220199875 L20.85045043899001 3.1183850100199972 L20.866360269989997 3.1210298670200043 Z M350.8076851399899 1.8529634600199554 L350.82884399399 1.8610607910199999 L350.84560831698997 1.855893148020007 L350.85960571299 1.8432385250200038 L350.87197550399 1.8287121580199734 L350.88646118099 1.8206555180199668 L350.92536092098993 1.8171561690199862 L350.94432250998995 1.8119885250200038 L350.94424112899 1.818539632019954 L350.94310180599 1.8230155440199862 L350.93748657198995 1.832455648020007 L350.90176066098996 1.8251314290199527 L350.86961547798995 1.8444592290199946 L350.84381795198993 1.8680187990199695 L350.82762329098995 1.873471273020007 L350.82070597298997 1.8703381350199972 L350.81492797798995 1.8659029130199567 L350.81077758799 1.8601249190199862 L350.8076851399899 1.8529634600199554 Z M351.01943644198997 1.7431001790199527 L351.02440063498995 1.749529216019985 L351.02562133799 1.7525402830199734 L351.02676066098996 1.7567720540199527 L351.00438110298995 1.761899007019954 L350.95709920198993 1.784685466019985 L350.94432250998995 1.784685466019985 L351.00153279598993 1.7575451660199999 L351.01943644198997 1.7431001790199527 Z M18.772813719990012 1.0101086430199668 L18.779446206990002 1.0184908040199527 L18.790920816989996 1.0395682780199902 L18.804063719990012 1.0562512210199682 L18.807359618990006 1.0651623540199946 L18.80471476199 1.0748872880199567 L18.793931884990002 1.0857922360199748 L18.773586831990002 1.0947440590199928 L18.748643798990003 1.1002779130199567 L18.72390421499 1.0984875490199695 L18.704495035989993 1.0857922360199748 L18.69656046499 1.0655285650199655 L18.71458618099001 1.0653658040199527 L18.76255981399001 1.0789562990199695 L18.772121988989994 1.0735038250199889 L18.77346476199 1.0610119630199986 L18.770168863989994 1.0470959470200025 L18.765977782990007 1.0373303220200025 L18.757677001990004 1.0302909340199928 L18.732204996989992 1.0196301270199708 L18.72191039999001 1.0134452310199915 L18.71531860299001 1.003435466019985 L18.70949991799 0.9821545410199999 L18.704495035989993 0.9759289550199721 L18.691189371989992 0.9734875490199695 L18.679104410989993 0.9777600100199972 L18.669460855989996 0.9861828610199748 L18.663560790990005 0.9963553870199942 L18.690212808989997 1.0447766110199748 L18.64732543899001 1.0228853350199554 L18.651028238989994 0.9823579920200043 L18.68052856399001 0.9516369630199986 L18.715074462990003 0.959164632019954 L18.725979410989993 0.9742199710199682 L18.73057739199001 0.9837414550199721 L18.73244913699 0.9932629400199655 L18.737454019989997 1.005836182019996 L18.74925414999001 1.0084810380199567 L18.762681884990002 1.0076672360199748 L18.772813719990012 1.0101086430199668 Z M5.8345812989900026 9.391212158019973 L5.842637938990009 9.402279867020004 L5.855333251990004 9.405616455019972 L5.8696561679900014 9.403419190019966 L5.882961831990002 9.398048096019968 L5.853909097989998 9.417091065019966 L5.8301867669900105 9.403663330019972 L5.827745360990008 9.382260335019955 L5.856879475990013 9.378354085019955 L5.855740152989995 9.381202393019967 L5.856309813990009 9.385027262019994 L5.850491128990001 9.386003825019989 L5.8345812989900026 9.391212158019973 Z M3.550930581990002 9.574073486019975 L3.556667886989999 9.579200440019966 L3.555813394989997 9.582292887019994 L3.545193277989995 9.576921794019986 L3.535793863989994 9.56878377301995 L3.540635985990008 9.56919067401997 L3.550930581990002 9.574073486019975 Z M3.528062743990006 9.567644450019989 L3.529446206990002 9.56845825201997 L3.529690347989998 9.56878377301995 L3.523464761989999 9.565691325019989 L3.515611571990007 9.557716065019966 L3.5172391759899995 9.556983643019967 L3.521470946990007 9.562436117020004 L3.528062743990006 9.567644450019989 Z M3.556505126990004 9.576026611019975 L3.543362222989998 9.561134033019973 L3.5290799969900206 9.552344971019968 L3.519273680990011 9.550147705019972 L3.513943277989995 9.545183512019994 L3.518948160989993 9.54144002301995 L3.532945555990011 9.549415283019973 L3.555813394989997 9.572608643019967 L3.556505126990004 9.576026611019975 Z M6.7973905429900014 9.329037679019953 L6.812364501990004 9.32627075201997 L6.8234728999900085 9.333920492020004 L6.827297769989997 9.345476481019992 L6.8208280429900014 9.353451742020004 L6.807766519989997 9.354753825019989 L6.797716063990009 9.350196533019973 L6.7933215329900065 9.341244710019955 L6.7973905429900014 9.329037679019953 Z M6.963772378990001 8.016374919019986 L6.9673124179900014 8.005795492020004 L6.9719103999900085 7.996192627019971 L6.974229735990008 8.014910075019989 L6.970079344990012 8.028093669019986 L6.964871011989999 8.030372315019966 L6.963772378990001 8.016374919019986 Z M347.59625935798994 5.7595389810199915 L347.5928413899899 5.7569348150199655 L347.59105102499 5.756446533019973 L347.58763305599 5.756446533019973 L347.58494750998995 5.757423096019968 L347.58242472298997 5.755795492020004 L347.58055297798995 5.753191325019989 L347.57949503598996 5.749936117020004 L347.57998331698997 5.745460205019972 L347.58030883799 5.744239502019971 L347.5811226399899 5.741553955019972 L347.58209920198993 5.739600830019972 L347.58242472298997 5.738705648020007 L347.58494750998995 5.735775960019955 L347.58983032198995 5.734473877019971 L347.59373657198995 5.732846273020007 L347.59804972298997 5.732846273020007 L347.60252563498995 5.732846273020007 L347.60643188498995 5.736752523020007 L347.60960571299 5.7391125490199695 L347.61180297798995 5.740984294019986 L347.61326782198995 5.744076742020004 L347.61326782198995 5.744727783019973 L347.61302368099 5.745704346019968 L347.61269816098996 5.748308512019994 L347.61269816098996 5.7510754400199655 L347.61180297798995 5.754249268019967 L347.61082641598995 5.757178955019972 L347.60984985298995 5.758725179019953 L347.60789672798995 5.760515544019986 L347.60545532198995 5.761817627019971 L347.6026070149899 5.762143148020007 L347.60049112899 5.762956950019989 L347.59861938498995 5.7625500490199695 L347.59739868099 5.761573486019975 L347.59625935798994 5.7595389810199915 Z M351.34707316098996 2.851091716019985 L351.34446899399 2.8463716630199567 L351.34202758799 2.8446626790199527 L351.3389351399899 2.843116455019972 L351.33437784798997 2.8405529790199946 L351.32786743099 2.839372966019985 L351.32347289999 2.841081950019989 L351.32200805599 2.84816202801999 L351.32428670198993 2.864519450019989 L351.32591430599 2.8735119630199986 L351.32412394198997 2.8806327310199915 L351.32005493099 2.8874686690199862 L351.31517211899 2.8879162600199972 L351.31541625998995 2.8873059080199734 L351.31663696299 2.884050700019989 L351.31761352499 2.8777030440199862 L351.31785766598995 2.872087809019993 L351.31736938498995 2.8661470540199527 L351.31484659798997 2.856462809019993 L351.31541625998995 2.850928955019972 L351.31696248298994 2.84152954102 L351.3194038899899 2.8350598150199655 L351.32200805599 2.8297701010199514 L351.32591430599 2.8256197100199554 L351.33095987899 2.8253755700200056 L351.33535441098996 2.826270752019971 L351.34023722298997 2.8285900880199986 L351.34642211899 2.8345715330199734 L351.35081664999 2.8414888510199514 L351.35106079098995 2.8426281740199695 L351.35325805599 2.85129516602 L351.35569946299 2.8709484860199748 L351.36277954098995 2.891619059019993 L351.36676717098993 2.9006115720200025 L351.36985961899 2.90284952801999 L351.37303344698995 2.9049654130199567 L351.37571899399 2.90793579102 L351.37539347298997 2.9109061690199862 L351.37523071299 2.914161377019971 L351.37327758799 2.9171724450200056 L351.37034789999 2.919410400020004 L351.36806925399 2.9207531740199695 L351.36619750998995 2.9218111170200043 L351.36180297798995 2.923357341019985 L351.35472289999 2.923357341019985 L351.34219034798997 2.921160075019989 L351.32656534798997 2.9172131350199972 L351.31761352499 2.91379516602 L351.31484659798997 2.910336507019954 L351.31321899399 2.8992687990199695 L351.3135445149899 2.894955648020007 L351.31582316098996 2.892107341019985 L351.31883422798995 2.8917004400199655 L351.32038045198993 2.893531494020001 L351.32127563498995 2.896461182019996 L351.32086873298994 2.901343994020001 L351.32127563498995 2.9069185380199567 L351.32900675399 2.9100923670200043 L351.34666625998995 2.9148937990199695 L351.35106079098995 2.9157889810199915 L351.35887329098995 2.9162365720200025 L351.36204711899 2.915382080019972 L351.36326782198995 2.915056559019993 L351.36522094698995 2.911638591019985 L351.36416300399 2.908464762019994 L351.36326782198995 2.9042329920200043 L351.35814086899 2.8992687990199695 L351.35472289999 2.89503702801999 L351.35496704098995 2.8934908040199527 L351.35407185798994 2.8912121580199734 L351.35350219698995 2.8879162600199972 L351.35106079098995 2.8794934080199734 L351.34886352499 2.8698091630199567 L351.34918904598993 2.8654553220200025 L351.34886352499 2.8582531740199695 L351.34707316098996 2.851091716019985 Z M17.64695922799001 0.17575805701999592 L17.64073364199001 0.16782348601997477 L17.645535074989994 0.16330688501999724 L17.656155191989996 0.16184204101999988 L17.667344969990012 0.16391723601997477 L17.678453368990006 0.1716483560199915 L17.674587808989997 0.17795532202000253 L17.661973876990004 0.18015258801999856 L17.64695922799001 0.17575805701999592 Z" fill="black" stroke="black" stroke-width="0.5" vector-effect="non-scaling-stroke"/></svg>