<svg xmlns="http://www.w3.org/2000/svg" viewBox="0 0 1.938352386540089 1.5960049068600526"><path d="M1.434576364770038 0.11981742893004466 L1.4416564427700393 0.13658175192999167 L1.452073109769998 0.15179985093002912 L1.461838734769998 0.1712904109300375 L1.4663146457700407 0.19240857493000973 L1.4660705047699878 0.22951794993000973 L1.4692443337700354 0.25319959093000577 L1.4821837867700367 0.28615857493000973 L1.5083068337700354 0.3341322079300362 L1.5389871717700032 0.3708753719300084 L1.565435739770038 0.3698988099300031 L1.5826069637700186 0.4146986139300388 L1.6057189427700393 0.4593356589300406 L1.6478738907700006 0.5122327939300071 L1.6674847207700338 0.5516452729300276 L1.6633258217700302 0.5719462679300413 L1.6410852847700141 0.5747729219300304 L1.6001037087700354 0.5592298639300388 L1.579107614770038 0.5480400859300225 L1.5725158177700393 0.5388441219300084 L1.5529168607700115 0.5363070849300406 L1.5284908007700153 0.5317695919299972 L1.5104268757700368 0.5290540899299963 L1.4520983217700234 0.5375648849300028 L1.422545126770018 0.5598375339300041 L1.3971876667700087 0.582073561930013 L1.3358252997699935 0.6118833709300411 L1.2936104777699882 0.6462409399299922 L1.2715193387699912 0.6768132759300265 L1.250432878769999 0.700930115930003 L1.2049546267699895 0.7196679509300274 L1.2007737277700414 0.7353916319300247 L1.1912846377699964 0.750229952930038 L1.213566711770028 0.7519363839300404 L1.250715748770034 0.7461639249300269 L1.2783113007700138 0.741382135930035 L1.3005663667700276 0.7338690959300429 L1.3238720437700238 0.7263577819300444 L1.3377194177699891 0.7336647329300199 L1.3091800617700358 0.7504320229300383 L1.3092627547700033 0.7624292499300331 L1.303002077770003 0.7763063529300034 L1.3274940827700163 0.7909320029300311 L1.3444705737699962 0.7908336429299929 L1.3635220847700396 0.7851913139300386 L1.3857526417700399 0.7786136829300112 L1.3919545497700199 0.7545999579300364 L1.406769856770012 0.7489906579300332 L1.4258936067700176 0.754429606930028 L1.4459417767700131 0.7414259059300257 L1.4564511167700118 0.7266240369300299 L1.4723077457699958 0.7201015159300077 L1.4795796197700213 0.7259372209300459 L1.4949604787700252 0.7446953589299987 L1.497076364770038 0.7473402159300058 L1.5118061817700266 0.7589775859300225 L1.5219787087700354 0.7620700339300406 L1.5498414267700298 0.7704945689300011 L1.5868340637699987 0.7639086309300005 L1.5796207257700132 0.8081839919300187 L1.5786409917700155 0.8266298569300083 L1.5819440007699939 0.8561169009300151 L1.5926984067700403 0.9003379849300295 L1.6012262157700263 0.920606910930001 L1.6150144837700111 0.9399624649300158 L1.6203715177699962 0.9602453899300194 L1.6450255837700354 1.0965833799300349 L1.6626037087700354 1.1300713359300225 L1.712489775770024 1.195582402930011 L1.727545114770038 1.2081963359300225 L1.7660379527700059 1.2194268039300304 L1.7689676407700006 1.2344821429300445 L1.7647358697700213 1.254176152930011 L1.7634337867700367 1.2742770649300432 L1.7717345677700393 1.2939710749300097 L1.7990783177700393 1.3279066219300084 L1.8049376927700393 1.3400322729300278 L1.815354359769998 1.3539075989300322 L1.838873239770038 1.3626559709300459 L1.8801330047699878 1.3704684709300459 L1.8703673797699878 1.385849329929993 L1.866216989770038 1.4035088359300225 L1.8672749317700266 1.4217786919300401 L1.8732970677700393 1.4387464659300058 L1.858160348770042 1.4294691219300084 L1.8527892547699878 1.4251559709300459 L1.8515685517699865 1.4330498509300291 L1.852545114770038 1.4381361139300388 L1.857021025770024 1.441920293930007 L1.8664611297699878 1.4461927549300349 L1.858974150770024 1.454696986930042 L1.854254098770042 1.4571383929300445 L1.850347848770042 1.4557142389300388 L1.8461160777700059 1.4524183409300058 L1.8392801407700006 1.4524183409300058 L1.8383849587700354 1.4733330539300304 L1.8475809217700032 1.4782972469300084 L1.8612527967700032 1.4721937319300018 L1.8732970677700393 1.4598646299300349 L1.8760639947700213 1.4701185359300375 L1.8801330047699878 1.5182142389300388 L1.883713734769998 1.5305433409300058 L1.8918517547699878 1.5439710749300097 L1.9074767547699878 1.5622816219300084 L1.9190327447700213 1.5731458799300349 L1.919348931770088 1.573383020930006 L1.7417923547700696 1.5749834509300875 L1.5639737507700886 1.576585419930037 L1.3861551477700402 1.5782390659300596 L1.208388220770047 1.5798927119300252 L1.1546964077699897 1.5803577999300522 L1.1463765017699927 1.5538219519300434 L1.1276696337700116 1.5366136999300544 L1.1047252977699884 1.5223768429300115 L1.0833829317699895 1.5050393999299807 L1.0682417367700907 1.4823792849300297 L1.0545991577700704 1.4528720419300178 L1.044987341770053 1.4223829459300212 L1.0411632857700113 1.3684844269299923 L1.036512406770072 1.3432663279300208 L0.9810635957699958 1.2098377809300835 L0.9328909387700435 1.1376200049300529 L0.9206538457700901 1.1192748329300706 L0.9205504927700474 1.1192489939300536 L0.9200337287699938 1.1191456419300287 L0.9199303757700648 1.1191456419300287 L0.8641198287700433 1.1126602489299806 L0.764591020770041 1.1011622429300552 L0.6649588587700066 1.089638398930017 L0.565326696770029 1.0781145539299892 L0.46579788877008355 1.0666423859299776 L0.3539184127700139 1.0544467479300543 L0.2423489957700724 1.042328624930061 L0.13072790177002958 1.0302363399299814 L0.01900345477000087 1.018118216929988 L0.048035852770084375 0.9896962349299905 L0.19842402777001666 0.8424700239300726 L0.2610558637700535 0.750330944930024 L0.3251346397700843 0.6888876659300216 L0.34001745277001305 0.6693022979300132 L0.36967972477006583 0.6013477899300561 L0.44440384577009695 0.4934215609300132 L0.4639375367700893 0.45587863293001973 L0.4664180057700662 0.44580172893008907 L0.4702420617699943 0.4155710159299666 L0.47540970476998723 0.4012049679299672 L0.5119966187700413 0.3417253939300018 L0.5970560267700478 0.15295138693002386 L0.631265824770054 0.11052503692999593 L0.6836657277700908 0.07962252992998842 L0.8447928427700333 0.021744925929962022 L0.9023603887700062 0.015647106930000376 L1.1607425497699921 0.015647106930000376 L1.2180000377700537 0.025310598930044392 L1.434576364770038 0.11981742893004466 Z M1.8247944637700186 0.6510674289300304 L1.8404194637700186 0.6564385229300278 L1.8482319637700186 0.6622572079300362 L1.8597879527700059 0.6708021299300349 L1.8676818337700354 0.6798760229300278 L1.8755757137700186 0.6889906069300018 L1.8860312617700004 0.7162236149299979 L1.8839240337700005 0.7263655449300295 L1.8691088917700256 0.7217734289300033 L1.8595821547700382 0.7199441189299982 L1.8500500107699906 0.7144262849300098 L1.8224949877699999 0.6932702009300264 L1.8034349707700414 0.6868496219300191 L1.7769712837699956 0.6832136659300367 L1.7558098527699997 0.6841774579300299 L1.756597848770042 0.6579847469300084 L1.756597848770042 0.6579033669300252 L1.7676655567700266 0.6427666479300278 L1.7850809217700032 0.6407321429300445 L1.8247944637700186 0.6510674289300304 Z M1.8392801407700006 0.4040784969300084 L1.8203999317700266 0.43459607493000973 L1.7896382137700186 0.46865369193004014 L1.752854359769998 0.49790987692999167 L1.715582223770042 0.5139417779300111 L1.7089090467700032 0.5133314269300335 L1.6723693337700354 0.5099134579300362 L1.6481994117700367 0.4841566219300084 L1.6132873017699865 0.4115247859300375 L1.5717020157700006 0.3460544089300406 L1.5658426407700006 0.33995089293004455 L1.5603087867700367 0.3341728979300278 L1.5402892547699878 0.3238376119300419 L1.5326395157700006 0.31338025493003485 L1.551763864770038 0.30166150493003485 L1.563401234769998 0.2962904109300375 L1.5850483697700213 0.2831475079300212 L1.5961160777700059 0.28054334093000577 L1.5998595677700393 0.27476534593004587 L1.6057189427700393 0.24026013793000445 L1.5898498017699865 0.23472628393004058 L1.5814676407700006 0.23354627093003089 L1.571864775770024 0.23395317192999343 L1.5717020157700006 0.2339938619300419 L1.581630400770024 0.2191419739300322 L1.5957905567700266 0.2202406069300018 L1.620123239770038 0.2339938619300419 L1.6314350887700186 0.2355400859300225 L1.645269723770042 0.23464490293001106 L1.653082223770042 0.2279310359300375 L1.647385609769998 0.2123060359300375 L1.6654520157700006 0.20534802793001106 L1.6802632137700186 0.19741345793003617 L1.6840067027700059 0.18850232493000973 L1.6679748017699865 0.17877738993000136 L1.6678934217700032 0.17873669993000973 L1.6565001927700393 0.17739392693003353 L1.643316598770042 0.182724329929993 L1.633795114770038 0.17873669993000973 L1.6294005837700354 0.17214490293001106 L1.6269591767699865 0.1616468569300018 L1.625982614770038 0.15102673893003882 L1.6269591767699865 0.1440687319300018 L1.6269591767699865 0.14398735093002912 L1.6092996717700032 0.14419080193003353 L1.6068582657700006 0.14244112692999167 L1.6032775367700367 0.13979627093003089 L1.6074279267699865 0.13247205193003353 L1.620123239770038 0.12417127093003089 L1.6345275367700367 0.11892224693000841 L1.6486876927700393 0.11818982493000973 L1.6623595677700393 0.12197400493003485 L1.6752990207700407 0.13031547593002912 L1.831060739770038 0.32326794993000973 L1.8461160777700059 0.35940076293000445 L1.8392801407700006 0.4040784969300084 Z M1.565435739770038 0.10980766393002384 L1.5590067027700059 0.11513806693004014 L1.5493224587700354 0.12640922593002912 L1.5449279267699865 0.13031547593002912 L1.5176655567700266 0.14284802793001106 L1.5102599587700354 0.14398735093002912 L1.502854359769998 0.1401624819300018 L1.4973205047699878 0.1334079239300472 L1.4958556617700367 0.12697888793000445 L1.5096902967700032 0.1186781069300018 L1.530198109769998 0.09483370492999299 L1.5412658177700393 0.0893812319300018 L1.5803283177700393 0.08457979893004719 L1.5804096977700226 0.08457979893004719 L1.5957905567700266 0.08588188293002119 L1.592698109769998 0.09621716893000709 L1.565435739770038 0.10980766393002384 Z" fill="black" stroke="black" stroke-width="0.5" vector-effect="non-scaling-stroke"/></svg>