<svg xmlns="http://www.w3.org/2000/svg" viewBox="0 0 11.251889941979982 4.153913890979993"><path d="M11.094345036489926 1.1129072629900065 L11.100546208490016 1.128022618990002 L11.103853499490015 1.1605529329899582 L11.108607731489997 1.1768568469899776 L11.119149724489944 1.19148127799005 L11.13144871448992 1.2040128129899585 L11.140543767489987 1.218068802990075 L11.14157729548998 1.237163243990068 L11.115222315489916 1.2687375439900563 L11.06592299849001 1.2814499459900048 L10.814878890489922 1.2791503449899722 L10.763512516489925 1.2892272489900165 L10.726925603489917 1.3005960649900032 L10.71080255548992 1.3101820429900215 L10.696849919489921 1.3248064729899909 L10.687858219489954 1.3424281359899624 L10.676592757489914 1.3796093299900747 L10.667290999489921 1.3973343459900036 L10.631530909489982 1.4226816359900738 L10.58698582449 1.4274875439899972 L10.539753564489956 1.4265832059900276 L10.495001774489992 1.4347997589900672 L10.438674463489974 1.4648237669900368 L10.373872217489975 1.4831688989900158 L10.295013982489934 1.5238382519899574 L10.27486017348997 1.5297293659899651 L10.251399072490017 1.530039423990047 L10.188147119489997 1.5148723909900355 L10.16633966549 1.5189289909899344 L10.148873030489938 1.527920690989987 L10.10153741949 1.5612003119900066 L10.079936670489928 1.572905024990007 L10.058542627489999 1.5798038289899807 L10.011930485489927 1.5881237339900167 L9.97275974948991 1.5998801219900258 L9.860208480489916 1.6606257689900303 L9.799850407489998 1.6692557319899777 L9.781453598489918 1.6761545359899515 L9.691329899489915 1.7239810739900463 L9.556144353489913 1.7639786329900176 L9.54229506848992 1.7699730989900218 L9.529065902489947 1.7787064159900012 L9.521417790489977 1.7895584669899733 L9.51314956148991 1.8144665079900335 L9.503227686489936 1.824336704990003 L9.467984359489947 1.8364289909899867 L9.394397120489941 1.848004511990041 L9.301586247489922 1.9019547069900113 L9.261692042489983 1.9158039909899571 L9.243915349489953 1.9248990429900346 L9.227482243489987 1.940401972989946 L9.223348129489978 1.9583853719900333 L9.240918115489933 1.9968843129900051 L9.243708643489924 2.014971064989993 L9.233476709489935 2.032024286990037 L9.215493311489922 2.0437031609900203 L9.175599105489994 2.0616348829899778 L9.15937270648999 2.0735721389900164 L9.13436131249 2.1018908239900327 L9.115351736489913 2.1295703079900647 L9.08847264049001 2.168708450990067 L9.074520003490022 2.184676467990016 L9.060050602489923 2.1969237819899377 L8.958971501489941 2.2629145869899787 L8.94119480848991 2.2680822299899717 L8.920524236489996 2.2663252309899917 L8.881663558489947 2.252630976989991 L8.75071547948994 2.238368281990006 L8.715058740489951 2.2394534859899977 L8.68157241248997 2.2477217159899396 L8.549590804489924 2.301155145990066 L8.534294580489927 2.30528926098998 L8.515794418489918 2.3066328489900343 L8.464738103489935 2.304720820990042 L8.387533513489984 2.3213606319900464 L8.358904769489982 2.3203787789899764 L8.329242497489929 2.3087515819900375 L8.272811832489992 2.2907681829900355 L8.217001286490017 2.28177648498999 L8.185168604490002 2.283120071990055 L8.127187647490018 2.2967626499899723 L8.002854151489942 2.2907681829900355 L7.972571761489917 2.282861688989982 L7.919034977489957 2.2620877639899675 L7.891749821489952 2.258212030989995 L7.784159489489923 2.2766605179899955 L7.744988754490009 2.2892178909900167 L7.7189438314899235 2.308906611990068 L7.704887842489995 2.324616246990047 L7.667990869489984 2.3452868199899513 L7.6508342944899255 2.3577408399900435 L7.641429183489947 2.376654413989968 L7.644943181490021 2.395826370989994 L7.652384587490019 2.4154117389900023 L7.654865056489996 2.4353071649900073 L7.646493473490011 2.455409296989984 L7.63088719148999 2.467966669989977 L7.591303044490019 2.484813186990067 L7.558230127489935 2.506982375989992 L7.531875147489984 2.5375748239900133 L7.514821924489922 2.573541620989971 L7.508207340489946 2.674879104989998 L7.504796697490008 2.69110550499002 L7.493427881489936 2.7053165239899784 L7.440407861489916 2.7367357939900216 L7.415189762490002 2.767431594989972 L7.382943669489919 2.837814895989993 L7.360516097490006 2.866288609990022 L7.333127588489958 2.8869075069900134 L7.246001123489918 2.9305224159899694 L7.21416844148996 2.9543452509899453 L7.1975286304899555 2.959099482990041 L7.183369287489995 2.9467488149899737 L7.16734959449002 2.8851505079900335 L7.1574277184899415 2.868303990989972 L7.128178857490013 2.8612243199900433 L7.099446761489958 2.8858739779900304 L7.069061019489936 2.918223424990032 L7.035367985489984 2.934294794989995 L7.01655776448996 2.9308841509900674 L6.979247380489937 2.915071161989971 L6.960127100489956 2.9104719599900193 L6.935632471489953 2.9122289589899992 L6.8464389494899365 2.945095169990026 L6.833313135489959 2.959357864990011 L6.82204767248993 2.9762043819900725 L6.805511215490014 2.9933092799900294 L6.78587417048999 3.003541213990019 L6.764480127489946 3.007158564989993 L6.742569319489917 3.006073358989994 L6.677767074490021 2.9935159859899727 L6.6560629724900195 2.9922757519899505 L6.63456557648999 2.9940844269900424 L6.5884701994899615 3.009277297989968 L6.56583592249001 3.0107242379899617 L6.548886052489991 2.9967199249900602 L6.540307764489967 2.9793566439900303 L6.524184717489959 2.9351216179900064 L6.522324366489954 2.916311395989993 L6.5303858884899455 2.897087763990072 L6.5436150554899655 2.8833418329900553 L6.553330224489912 2.870060989990037 L6.550953109489967 2.8521809439899926 L6.541237939489918 2.8413288939900383 L6.513022608489962 2.821123408990047 L6.501963851489961 2.8084626829900117 L6.494832503489931 2.7895491079899557 L6.489664860489995 2.733015090989994 L6.471681462489926 2.690485386990048 L6.443879541489991 2.6695564319900598 L6.40780939248998 2.669246373989978 L6.365848128489972 2.6883149769899717 L6.147256820489986 2.8222602889900372 L6.137334945489954 2.826446079989978 L6.125552719489974 2.8283581089900167 L6.113253728489951 2.8320788119900158 L6.107982731489926 2.839985305989984 L6.104158675489941 2.8494420929900457 L6.096510564489961 2.857710321989998 L6.077907048489919 2.8611726429900273 L6.0593035324899915 2.8542996779899568 L6.040596663489964 2.844274449989939 L6.022096501489955 2.83853836598999 L5.997188460490008 2.8416389519900065 L5.9484059094899635 2.8585888219900255 L5.923084457489949 2.8613276729899724 L5.88639418948992 2.8551265009899964 L5.850117334489937 2.8431375689900165 L5.763197575489926 2.7973522499899843 L5.740459945489931 2.7892390499900728 L5.719375961490016 2.7907893429899957 L5.716328768489973 2.7943100859899914 L5.704079736489973 2.8084626829900117 L5.700048975489949 2.8187462929899993 L5.699118799490009 2.822311965989968 L5.691057275489925 2.8406570999900396 L5.6786549324899624 2.8616894079899566 L5.6714202314900035 2.8816881869900044 L5.6786549324899624 2.896881057990015 L5.7256804854899315 2.9303673859900243 L5.7378761234899684 2.943596552990016 L5.746144352489978 2.9762560579899855 L5.714931787490002 2.982508905989988 L5.630699202490007 2.9659207719899996 L5.608685042489924 2.9648872429900166 L5.589771468489914 2.9711400909899908 L5.5384050954899635 3.010879267989992 L5.521661931489916 3.0204394069899934 L5.482697901489928 3.0362523959900045 L5.449418278489986 3.055476027990011 L5.360638167489924 3.1299934439900596 L5.253874659489952 3.1966043649900655 L5.217804509489952 3.208696650990049 L5.186902002489944 3.212365676990032 L5.156309554490008 3.2085932979900065 L5.121893050489973 3.1985163929899727 L5.087166488489913 3.1925736039899846 L5.051613102489966 3.1960359249900137 L5.016886540489963 3.207094680990025 L4.9852605634899305 3.2235794629899885 L4.953531234490015 3.23463821899 L4.888005517489944 3.2416145379899888 L4.8607203624899284 3.2588227899899778 L4.85038507549001 3.269158075989992 L4.841910140489915 3.280991978989988 L4.83612237948995 3.2941694699900665 L4.833745263489959 3.30874222299002 L4.828060857489959 3.332358352990042 L4.811317692489979 3.349101516990004 L4.791577295490015 3.3645527699899844 L4.7772112474900155 3.3842931679899664 L4.769459782490003 3.4258926959899725 L4.764705550490021 3.4374165399899823 L4.756954086489941 3.445581415990006 L4.728118636489967 3.464339960990003 L4.716026351489916 3.4787060089900024 L4.707034652489938 3.4967410839900026 L4.70259047948997 3.5163781279900377 L4.703830713489992 3.535705113989991 L4.713545883489928 3.555445511989973 L4.727085108489916 3.5620600939899703 L4.7439316254899495 3.565264033990019 L4.763361963489956 3.574514114989938 L4.777521306489916 3.592032424990009 L4.783619125489963 3.6129613809899865 L4.788270004490016 3.6559561719899705 L4.810800928489925 3.709544631990042 L4.805633285489932 3.720293329989971 L4.783309066489949 3.7308869979900408 L4.767082666489955 3.7412222849900445 L4.754473617489964 3.75564000999006 L4.743208154489992 3.778170933989969 L4.732046045489938 3.8126907909899614 L4.722330876489934 3.826746779989975 L4.704760888489943 3.8342398629900174 L4.516658675490021 3.8540836139900136 L4.488339990489919 3.842818150990041 L4.396252588489915 3.8350150099900304 L4.360905908489997 3.8376505079900483 L4.251661931489934 3.8586311389900345 L4.227167301489942 3.8717569529900118 L4.219519190489962 3.8872598829900085 L4.21734877949001 3.9013158729900397 L4.210424137490008 3.9115478059900113 L4.153373356490022 3.91986771198998 L4.051880843489926 3.9470495149899705 L4.02004816148991 3.9489615429899914 L3.9850115404899498 3.9412617539900054 L3.967441553490005 3.934595493989974 L3.955142562489982 3.931701614990004 L3.9424301594900157 3.933613642990025 L3.8933375494899565 3.9538191269899983 L3.8783513844899176 3.9545942749900007 L3.860781397489916 3.9502017769900135 L3.7983562674899645 3.939711461990072 L3.7776856944899464 3.938522903990048 L3.734484196489916 3.945705927989991 L3.719291325489962 3.946222692990034 L3.5344964034899817 3.908653925989938 L3.5177532394899345 3.9079304559900265 L3.500389958490018 3.9120128939900383 L3.490158024489915 3.918937535990011 L3.4710377444899336 3.937541050989978 L3.4597722824899506 3.9431221059899997 L3.4434425294899143 3.9428637239900297 L3.418121077489957 3.930099644990065 L3.403031559489932 3.926740676989965 L3.3920761564899635 3.930461379989964 L3.360760238489945 3.956299595989975 L3.3444304854900224 3.958314977990028 L3.3275839684899324 3.957643183989944 L3.2947177574899342 3.9510802769899556 L3.2772511244899647 3.951597040990009 L3.2399407394899526 3.9663248249900107 L3.218133285490012 3.968598587990016 L3.2003565924899817 3.9736112009899784 L3.1882643074899875 3.9888557479900157 L3.165423324490007 4.0427025909900465 L3.1242888844899994 4.112517450990026 L3.1129200684899274 4.1131892449899965 L3.1126848714899324 4.112924059990007 L3.1025847824899984 4.101536209989945 L3.0931796714899633 4.085128941989979 L3.0904924974899473 4.075542963989989 L3.0903891444900182 4.067817336989975 L3.087288558489945 4.061616165989989 L3.0664112804900014 4.053089553989992 L3.0511150554900155 4.043684442990013 L3.042640121490024 4.039808710990059 L2.9995419764899225 4.034279332989968 L2.9787680504899754 4.027354690989995 L2.9697763514899407 4.012316848989997 L2.968122705489975 3.991181187990037 L2.962128239489971 3.965808059990053 L2.950966130489917 3.943948928990011 L2.933809554489983 3.9335619669899984 L2.915516098490002 3.93573237599 L2.8804794764899384 3.950563511990026 L2.843169092489916 3.9565579779900304 L2.8263225754899395 3.963379267990007 L2.7275172374900194 4.017381138989975 L2.6910336754899618 4.029576776989984 L2.6544467614899645 4.0328840689900005 L2.6352231284899403 4.028181513990006 L2.61692967148997 4.017329462989977 L2.6023569184899884 4.001361445990028 L2.594915511490001 3.9814660189900053 L2.5969825684899206 3.96089879899003 L2.6072145024900237 3.9484447789899377 L2.620650374489969 3.937851109989964 L2.6321225434899134 3.922864944989982 L2.6358432464899124 3.9027628129900336 L2.6332594244900065 3.8769245969900226 L2.624267725489972 3.8540836139900136 L2.6084547374899785 3.843024855989995 L2.5886109874899716 3.843438267990024 L2.486808415489918 3.860078079990018 L2.4383359214900224 3.8582694049900397 L2.39689142348999 3.8435932969900364 L2.376117497489929 3.80876338298998 L2.384592432490024 3.7932087759899673 L2.410017236489921 3.7642699739899967 L2.4153915864899886 3.7493354849900413 L2.409397119489995 3.733264113989975 L2.394927718489953 3.718277948989993 L2.393671109489958 3.717428103990045 L2.377047673489983 3.706185663990027 L2.343561344489956 3.6903209989900176 L2.325267887489929 3.691767939990001 L2.290748030490022 3.704273635990006 L2.262325993489924 3.708252721989993 L2.252559147489933 3.710939895990009 L2.245634506489978 3.71486730498998 L2.231888574489915 3.7261844429900464 L2.224602198489947 3.7307319699899892 L2.189927311489953 3.7452530469900296 L2.175974675489954 3.753469599989984 L2.144090316490008 3.781788283989954 L2.133289941489977 3.7880411329900596 L2.1209392754900023 3.787937779990017 L2.0639918454900226 3.7794111679900197 L2.021462142489952 3.781271519990014 L1.979914290490001 3.7900565139900095 L1.9469447274900062 3.8067996779899715 L1.9263258304899296 3.8345499219900034 L1.9115980474899175 3.8672094279899625 L1.8933045904899473 3.894804641989964 L1.8611618494899176 3.907517043990026 L1.8338250174899713 3.9016776079899387 L1.8091753594899842 3.8894819699900154 L1.7873679044899404 3.8815754749899725 L1.768506006489929 3.8885517939899614 L1.7562586924900074 3.899455520990017 L1.7481971684899236 3.9018326369899796 L1.7393088224899884 3.9006957549899823 L1.7241159514899778 3.9010058139900536 L1.7120753424899249 3.9038480169900254 L1.681637923489916 3.917077183990017 L1.6541460614899393 3.920332799990007 L1.623760319489918 3.916198684989979 L1.5973019864899243 3.9040030469899705 L1.582109114489981 3.883435826989995 L1.5826258794899104 3.871033482990015 L1.5870700524899348 3.8577009639899984 L1.5894471684899827 3.843903355989937 L1.583762761489936 3.83026077799002 L1.5741509444899293 3.823232783990022 L1.5507415214899538 3.8155329949900363 L1.5399928234899676 3.8087117059899924 L1.539941146489923 3.808556675990019 L1.5396150584899715 3.807761730989995 L1.5199940434899304 3.759929153990015 L1.5061447594899278 3.7388968459900127 L1.4818568364899534 3.7246341509900276 L1.4642868494899517 3.7228771509900582 L1.4275965824899117 3.728148147989998 L1.4101299484899528 3.7268045609900184 L1.3975208984899155 3.7209134479900285 L1.3749899754899388 3.7055655469900444 L1.3612440434899895 3.7012247269899774 L1.3439841154900023 3.7028783719900105 L1.3116346684900009 3.7123351599900047 L1.2950982104899253 3.7149706569900047 L1.2854863934899186 3.717657832990028 L1.2793885744899285 3.7229288279899606 L1.2744276374899641 3.7284065299900533 L1.2683298184899172 3.7315587929900005 L1.2583045904900132 3.73140376298997 L1.2374789884899542 3.7264945019900324 L1.2271953784899665 3.7255643269899963 L1.2142762694899716 3.729336705990022 L1.125082747490012 3.780031285989992 L1.1073060554899712 3.783338576990076 L1.0900461264899945 3.778325963990028 L1.0883924814899615 3.7642699739899967 L1.0990378264900187 3.7283548539900266 L1.09883112048999 3.7113016309900217 L1.094283594489923 3.692698114990037 L1.0846717784900193 3.682931269990007 L1.0692205244899355 3.6920779979899976 L1.0413669274899462 3.73853511099 L1.0329953454900078 3.7481469269900174 L1.0164588874899891 3.75238439399007 L1.0002841634899937 3.747785191990033 L0.9667461594900146 3.73264399799001 L0.9462822924899115 3.72897496999002 L0.9243714854899849 3.7288199419899684 L0.9037009124899669 3.733832554990016 L0.8867510424899478 3.7455631059900156 L0.8711447604899263 3.762823033990003 L0.8627731774899416 3.767990676990024 L0.8326458174899471 3.757345331990024 L0.7917697594899664 3.7539346879899824 L0.714461817489962 3.7661820019900176 L0.6756011404899596 3.757035272990038 L0.6338465824899231 3.7385867869900267 L0.594365788489938 3.7283548539900266 L0.5534380534899128 3.7246341509900276 L0.46631158948991924 3.728871617989995 L0.448948308490003 3.734297642990043 L0.41546198049002214 3.7567768909899826 L0.3984087574899604 3.764838414990038 L0.3801152994900008 3.7698510289900184 L0.36130507848997695 3.7720214389900093 L0.3392909184900077 3.7719697619899932 L0.29619277449000947 3.7773957879900593 L0.2754705244899469 3.771918085989995 L0.25123427848996016 3.752487746989999 L0.24565322348996688 3.7495421899899952 L0.23604140648996008 3.752797805989985 L0.2324240564899469 3.759257360990034 L0.22994358748991317 3.7670605009899703 L0.22374241648992665 3.774346877990041 L0.18436497448993805 3.786800898990009 L0.1702056314899778 3.7627196809899885 L0.17516657048992101 3.64355382798999 L0.17154921948991841 3.6246402539900657 L0.1641078124899309 3.6081554719899884 L0.1499484714899495 3.5946679239900163 L0.1323784834899584 3.5830407259900596 L0.11734064148998868 3.569759882989956 L0.1103126464900015 3.55141474898997 L0.11356826149000199 3.511882278990015 L0.12473037248992114 3.473486689989983 L0.1704640144899372 3.366671503989977 L0.18968764748996136 3.3338052929900357 L0.1940801434899413 3.323780064990018 L0.19433852649001437 3.3176305689900403 L0.1980075524899121 3.3155118359900655 L0.21185683648997156 3.317682245989971 L0.24131240248999575 3.342952020990026 L0.28937148448994776 3.4063073279900493 L0.3855930014900082 3.3799523469899952 L0.3844561204899719 3.3667231799899753 L0.36130507848997695 3.3342703809899774 L0.3621319024899208 3.327397415989992 L0.36130507848997695 3.3208345089900035 L0.3591346684900145 3.3146850129900542 L0.35520725948993004 3.30874222299002 L0.3471457364899493 3.277012893990019 L0.35365696748999653 3.251433059989978 L0.3697283364899704 3.2286954299899833 L0.39034723348999023 3.2054927109899722 L0.39324111348997803 3.1989814809899997 L0.39747858149002013 3.1817215529900125 L0.4020261074899736 3.1773290559900147 L0.41008763048995434 3.1792410849899397 L0.420629622489912 3.1945373079900037 L0.42703750048997335 3.199343216990002 L0.44285048848996666 3.2006868039900667 L0.4594902994899712 3.1988264519900724 L0.8535747724899352 3.090822708990032 L0.8886113934899527 3.0936649129899934 L1.0311866704900012 3.165443476989992 L1.0528390954899578 3.170766148990026 L1.1025518234899891 3.168285679989964 L1.1255478354899537 3.169680943990045 L1.1475103194899248 3.1781558789900544 L1.1618246914899828 3.1903515169899777 L1.1742787114899897 3.2042524769900353 L1.1902984054899548 3.2176366729899826 L1.2082818034899105 3.2249230499900534 L1.2435251314900029 3.2283853709899972 L1.2816623374899336 3.2412011259899884 L1.3612440434899895 3.250399530989995 L1.386152084489936 3.256445673990015 L1.4095098314899133 3.2687446649900664 L1.4196384124899737 3.2864696809899954 L1.4049623054899598 3.3086905469900216 L1.3890459644899238 3.3173205109900437 L1.3725095054899157 3.3238834179900323 L1.3572132824899654 3.3323066759900257 L1.3442424974899723 3.346310989989945 L1.3348890624899354 3.3650178579900114 L1.3320468594899353 3.382432815989972 L1.3396432944899175 3.395610305990033 L1.3612440434899895 3.4015014189899375 L1.3699773604899406 3.392819778989974 L1.3781939134900085 3.370753941989989 L1.3849118494899244 3.3618655959899684 L1.3965907224899752 3.3572663939900167 L1.4390687504899233 3.3561811879900176 L1.4606178224899509 3.350186721989985 L1.4806166024899312 3.3404715529900386 L1.497979883490018 3.326673944990006 L1.5114157564899529 3.308535517990066 L1.5199940434899304 3.2739123079900594 L1.518753809489965 3.2431131539900093 L1.5234563644899595 3.217481643990027 L1.5499663744899408 3.1982580109900027 L1.6138384454899324 3.1817215529900125 L1.627481022489917 3.1753136749899795 L1.666548405489948 3.149837193990038 L1.672749577489924 3.143429315990005 L1.6761602214899654 3.141052199990071 L1.6817412764899586 3.140483759990019 L1.6867022144899124 3.142292434989997 L1.6900611824900125 3.14477290299007 L1.6907329754899934 3.1462715199899947 L1.7089230794899208 3.138881790989984 L1.7158477214899222 3.1342309119900165 L1.729180241489928 3.1306135619900317 L1.7825619964899602 3.1398119659900203 L1.8133094734899942 3.131802118990038 L1.8468991544900177 3.1127335159900724 L1.8635389654899654 3.0883422399900553 L1.84297174548999 3.0640543159899494 L1.8791452484899196 3.0358389839899758 L1.937229558490003 3.0281908729899953 L2.053398177489953 3.041006626989997 L2.0850241534899396 3.0385778349900363 L2.0991318204899585 3.0216796419900334 L2.107968489489963 2.9995621289900214 L2.123574772489917 2.981320347989964 L2.1378374674899874 2.9780130569899654 L2.1479660494899235 2.984214228990055 L2.1568543954899724 2.9947045439899966 L2.167241358489946 3.0040063019900174 L2.1810906424899486 3.008605504990072 L2.197575424489912 3.0097423859899948 L2.228943018489929 3.0072102409899912 L2.2491485024900157 3.008295445990001 L2.2805677744899526 3.03087804699004 L2.3253712404899147 3.0415233919900118 L2.3349830574899784 3.053512324989981 L2.3429412284900195 3.0682917839899915 L2.361131332489947 3.081624302990008 L2.3824220224899477 3.091907912990024 L2.405263004489939 3.098677525989956 L2.452288558490011 3.105860550990002 L2.476989893489929 3.1040001989900077 L2.485671533490006 3.0924763539900653 L2.48804864948994 3.0751647489899767 L2.494146468489987 3.056044468989967 L2.5123365724899145 3.04353877298999 L2.530009912489959 3.055320999990073 L2.544169255489976 3.077955276990025 L2.551197249489917 3.098264114989945 L2.5508871914900055 3.139295201989995 L2.557088362489992 3.1545397489900324 L2.577345524489999 3.1613093619899644 L2.591194808489945 3.1581570999900066 L2.643801416489964 3.1343342649899455 L2.659924463489915 3.122500360990017 L2.670776514490001 3.1089094599900307 L2.689483382489982 3.0771284539900137 L2.7204892424899185 3.0532539419900218 L2.75697280348993 3.051651972990072 L2.7963502454899185 3.0589900259899707 L2.8358310394900172 3.0615221709900595 L2.8474065594899685 3.0586799679900025 L2.8531943204899335 3.058008173990004 L2.8610491374899993 3.0593517609899834 L2.873038069489951 3.0631241409899985 L2.8888510584899336 3.0651395219900337 L2.902907048489965 3.0624006709900016 L2.909418279490012 3.051548619989944 L2.903837224490019 3.0436938029900205 L2.8972555554900055 3.040353851989977 L2.88998793948997 3.036665807990005 L2.8610491374899993 3.026330520990001 L2.8422389164899755 3.0158918819899725 L2.835107569489935 3.000905715990001 L2.8406886244899283 2.9867463729900408 L2.9271949714899392 2.9531050159899905 L2.953653304489933 2.933002883990042 L2.968122705489975 2.9050459339900385 L2.9741171714899224 2.8863907419899704 L2.983315576489929 2.8760554559899845 L3.0498748214899933 2.847995152989938 L3.0667213384899696 2.844636184990037 L3.112344426489983 2.842820119989966 L3.1199480634899146 2.8425174509900444 L3.1382415204899985 2.8441194209899834 L3.147431901489938 2.8497750389899466 L3.1476466314899767 2.8499071809900443 L3.1436158704899526 2.8600357619900194 L3.129146468489921 2.8637047889900202 L3.1120932464900193 2.8648933459900263 L3.100517725489965 2.867477167990046 L3.0957850894899934 2.876590008990064 L3.09566014048994 2.876830602989969 L3.1083725434899634 2.8799828649900405 L3.153641097489981 2.878380894989988 L3.1683172044899948 2.8825666859900423 L3.227435042489958 2.9090250199900254 L3.2545134934899806 2.91677648399002 L3.2780779464899865 2.9130041049899944 L3.2984384604899333 2.891713414990022 L3.3091871584899764 2.866443639989967 L3.310220687490016 2.8430858919900004 L3.3101124004899702 2.842880996990033 L3.304044542489976 2.831399657989948 L3.299678695489945 2.8231387889899793 L3.299601678489978 2.8230962459900297 L3.256270492489989 2.799160924989991 L3.2474854984899935 2.7901175489900254 L3.247483633489935 2.790015888990041 L3.247278793490011 2.778852085990053 L3.2539967284899376 2.7625740099900327 L3.2541000814899803 2.7446939649899775 L3.2539449014899446 2.7444953489899717 L3.232499332490022 2.7170470729899705 L3.2325258814900053 2.716917946990037 L3.235909977489939 2.700458938990039 L3.2655722504899245 2.69027868198998 L3.2988518724899336 2.712551223990033 L3.3319247894900172 2.7419551139900307 L3.360760238489945 2.752858840990001 L3.399310856489933 2.756786249989972 L3.4697975104899115 2.793683221989994 L3.509485010489982 2.7919262239900036 L3.5248845874899644 2.7825727899899846 L3.5344964034899817 2.7702737989900186 L3.539147282489921 2.75606277999006 L3.540490869489986 2.74128332099005 L3.5482423344899985 2.7246435089900274 L3.566432438489926 2.7247468619899564 L3.603226058489952 2.7375626179900223 L3.632371566489951 2.7273306829900434 L3.6440504404899343 2.6606680859900393 L3.6679249524900115 2.6327628129899665 L3.7029615734899153 2.621342320990067 L3.7749985194899978 2.6073380079899664 L3.860781397489916 2.566358596990028 L3.954625797489939 2.5399519399900328 L4.0020647634900115 2.5194880729899864 L4.032657210490015 2.4887405959900377 L4.027386215489912 2.468586786990045 L4.0273086204899755 2.4685734219900155 L4.0190581814899815 2.467152359990024 L3.9964837084899614 2.4632641139900215 L3.9375725754899804 2.4661063179899827 L3.9173154134899733 2.45520259199003 L3.903466130490017 2.440526483990027 L3.887446436489938 2.4322582559899786 L3.813445784489943 2.4582515009899453 L3.7671437014899993 2.4827978059900033 L3.754327946489923 2.4842447459899972 L3.757015120489939 2.4676049349899927 L3.752674300489957 2.438304397990038 L3.7141236824899693 2.4303462269899683 L3.5852426604899392 2.439182896989962 L3.5422478684899943 2.4352554879899913 L3.503490544489921 2.4223363799899857 L3.472484685489917 2.396601516989989 L3.429593246489958 2.345906936990019 L3.4102662604900047 2.3402225299899726 L3.3854615724899872 2.33893061799003 L3.367374821489932 2.331850947990006 L3.3675815274900174 2.308906611990068 L3.369235173489983 2.302860468990019 L3.36871840848994 2.297744501989939 L3.365927881489938 2.293610386990025 L3.360760238489945 2.2906131549900124 L3.30753351349 2.2866857449899385 L3.279214827490023 2.280381220990023 L3.2583375494900224 2.2704593459900195 L3.229708805489963 2.236456253989985 L3.216376286489947 2.229583286990021 L3.1980828294899766 2.2407453969899507 L3.192811833489941 2.2479800979900233 L3.1813396654899293 2.2742834019900613 L3.1737949064899453 2.278882603990013 L3.1370012864899763 2.2828100129899838 L3.0795031234899852 2.296068412989996 L3.049151351489911 2.303067173989973 L3.062793929489999 2.2792443389899972 L3.0696152184899574 2.261364292990038 L3.0696152184899574 2.241778925990019 L3.0604168144899404 2.189534052990041 L3.0586598144899995 2.161008661989996 L3.053905583490007 2.1337751819899893 L3.0424334154899952 2.1145515499900682 L3.016905258489942 2.103131057990055 L2.992513981489992 2.1060249379900426 L2.9692595874900007 2.117548782989985 L2.9476588384899287 2.1322248899900558 L2.917789860490018 2.145815790989957 L2.900529932489917 2.138891148989984 L2.885233707489931 2.12240636799001 L2.8610491374899993 2.1072134959900666 L2.7816741384900183 2.1174971059900543 L2.755629216489922 2.1079369669899677 L2.75035822049 2.065820673990032 L2.752838689489977 2.023187616990043 L2.7470509284900118 1.9902180539899916 L2.731031234489933 1.9606074579900223 L2.6371868334899773 1.8551358599899856 L2.629228662489993 1.8496064809899906 L2.620857080489941 1.847022659990074 L2.6144492034899827 1.851260126990013 L2.613725732489911 1.8723441119899462 L2.605664209489987 1.8776667839900085 L2.5962590994899415 1.8744111679900186 L2.5908847494899874 1.8583397989900448 L2.5801360514899443 1.8549808299900405 L2.5754851734899944 1.8605102079900462 L2.571351058489995 1.871413935990006 L2.5654599454899767 1.8795788119900294 L2.5559514814900126 1.8769433139900116 L2.555124659489991 1.8647993519900012 L2.5735214684899574 1.8086270699899387 L2.5734181154899147 1.7878014689899828 L2.5681471204899253 1.7683711289899975 L2.555434717489959 1.755038609989981 L2.5335239104899188 1.752506464990006 L2.511406396489974 1.759224400990007 L2.499314111489923 1.7702831579900078 L2.4794703624900194 1.80867874699004 L2.479573714489959 1.8087304229900667 L2.479573714489959 1.80893712899001 L2.4895989424899767 1.825576939990043 L2.5177109224899255 1.8528104199900497 L2.5214316254899245 1.8711555529900181 L2.5170908044899534 1.891102656990057 L2.50282810948994 1.9246406609899793 L2.4695484874899307 1.9789009149899925 L2.4419532724899113 2.0007083689900185 L2.407846827489948 2.005772658989997 L2.3646453294899175 1.9916649929899677 L2.3164828944899227 1.9576102239900308 L2.3027886404900073 1.955026402990029 L2.2965874684899177 1.967738805989967 L2.3054758144900234 2.140338088989978 L2.300101465489945 2.1750646519899988 L2.2776738934899754 2.189689081989968 L2.209254297489963 2.145092320990045 L2.184242904489963 2.1693802439899628 L2.173494206489977 2.188552199989971 L2.1601616874899605 2.1892756709899572 L2.147397608489996 2.1789403839900388 L2.1378374674899874 2.1649360709899668 L2.125538477489954 2.1272639519900167 L2.114169662489928 2.1151716669900225 L2.0903985034900074 2.1136730499900125 L2.0697279304899894 2.1221996609900486 L2.067040755489927 2.1360489449899944 L2.071898340489952 2.1539806669900656 L2.0739653974899284 2.1749612989899845 L2.0641468754899392 2.194288284990023 L2.0484372404899887 2.186226760989939 L2.0231157884899176 2.1540323439899964 L2.0070960944899525 2.1442138219900073 L1.96978571048993 2.140389764989976 L1.9515956064900024 2.1326899779899975 L1.9310283864899134 2.120390985990042 L1.9087041674899297 2.1126395219900473 L1.8611618494899176 2.1060766149899735 L1.8181670574899158 2.1109858759899964 L1.7982199554899125 2.109383906990047 L1.7799781744899406 2.096309768990011 L1.7661805674899256 2.0819437209900116 L1.7497474614899602 2.0692313179900452 L1.7317640624899582 2.0593611199899726 L1.712540429489934 2.053314976990009 L1.6900095064900142 2.054968622989975 L1.6705791674900183 2.0619966179899905 L1.6544561204899537 2.0639086459900113 L1.6420537764900018 2.050266067990009 L1.640296778489926 2.032799432990032 L1.6550762374899364 1.9714078319899784 L1.653215885489999 1.9503238479900347 L1.6437074224899106 1.9299116569899866 L1.5875868174899779 1.8569445349899638 L1.5707403004900016 1.8399429879900424 L1.5518267254899456 1.831054641990022 L1.5178236334899111 1.8349303749899946 L1.395350488489953 1.8879503939899962 L1.3612440434899895 1.897768915989957 L1.3547983354899316 1.8975471279900091 L1.3372145024899282 1.896942092990031 L1.322073308490019 1.8863484249900466 L1.2976303554900142 1.85172521499004 L1.2830059244899417 1.8374625189900655 L1.2662627604899512 1.825990351989958 L1.2289523764899286 1.80893712899001 L1.2287456714900031 1.8087820999899975 L1.2285389654899177 1.8087304229900667 L1.2284356124899887 1.8086270699899387 L1.0874623054899644 1.7967931669900281 L1.0505653324899527 1.7822204139900464 L1.0322718754899824 1.7499743199900024 L1.0533041834900132 1.7240844269900606 L1.2152064454899119 1.6527967889900026 L1.2748410484899182 1.617372593989984 L1.307500554489991 1.6055128529900458 L1.3376795904899836 1.5903458199900342 L1.3612440434899895 1.5639908389900654 L1.3904929034899283 1.5168360959899587 L1.434107813489959 1.4783629919899965 L1.5329648284899235 1.4150335239899903 L1.5637123054900144 1.4013134309899726 L1.6633444674899351 1.3927609809900332 L1.6980193524900073 1.3828907829900459 L1.7091297864899957 1.366095941990011 L1.7120753424899249 1.3086834259900115 L1.7294903004899425 1.2720706739899583 L1.7707280934899359 1.2639316359900477 L1.8199240574899136 1.2655594429899963 L1.8611618494899176 1.258195551989985 L2.002445215490013 1.1795181839900124 L2.0850241534899396 1.1616381379899678 L2.122231185489966 1.1421819609899728 L2.1372173514899373 1.1048715769900355 L2.1338848544899633 1.1040408889900277 L2.101870670489916 1.0960607459900302 L1.961620833489917 1.0212591099900123 L1.929788152489948 1.0114664259900508 L1.8980588214899399 1.0147220409900228 L1.8536170904899336 1.0389582879900274 L1.8318096354899467 1.0542803499899946 L1.802664128489937 1.049061030989975 L1.7818385254899454 1.0408186399900217 L1.742151026489978 1.011363072990008 L1.7366733244899137 0.9963510689900374 L1.7488172864900093 0.9808739779900293 L1.7728416594899272 0.9638508929899956 L1.7843706714899668 0.95568171699 L1.816720117489922 0.9262261509899758 L1.8238514654899518 0.9145989529900191 L1.8213709974900212 0.9076484739900366 L1.8157899414899816 0.9009305369900176 L1.8139295904899768 0.8901301629899763 L1.8201307624899528 0.8708031779900125 L1.8316029304899644 0.8511402949900742 L1.8459689784899638 0.8343196159900117 L1.8611618494899176 0.8236742709900113 L1.9087558444899173 0.846463577990022 L1.925033920489966 0.8476262979900184 L1.9387281744899951 0.8420452429900251 L1.9481849614899716 0.8320975289900048 L1.9503036954899358 0.820289463990008 L1.9418804374899423 0.8090240019899397 L1.9416737304899812 0.8090240019899397 L1.9415703774899384 0.8089206489900107 L1.9415703774899384 0.8088172969899858 L1.9067404634899958 0.7859763139899769 L1.8967152344899887 0.7763903359899871 L1.8872067714899572 0.7388990829900024 L1.9246721854899533 0.7218975379899746 L2.0110235034899233 0.7118206329900261 L2.0267848154899184 0.6998833779899769 L2.0321074874899523 0.6850264029900472 L2.03045384148993 0.6455714469900329 L2.0330376634900063 0.6244874629900039 L2.0415642744899287 0.6144880729899853 L2.0792363944899535 0.6051863149900498 L2.0954627934899577 0.5972023059899811 L2.1078651374900232 0.5844899039900326 L2.1294658854899353 0.5552927199900068 L2.14651910848994 0.5488590039899464 L2.168739974489995 0.5540266469899677 L2.1925111334899157 0.5623207149900225 L2.2138018234899164 0.5653954619900503 L2.2315785164899467 0.5595818639900472 L2.2470814464899718 0.5483164009900179 L2.2603106124899455 0.5341053819899457 L2.2709559584899353 0.5193517609899345 L2.2886292974899334 0.507543695990023 L2.3128655444900232 0.5068460639899399 L2.361131332489947 0.5188866729900212 L2.3776677904899657 0.5135123239900565 L2.3882097824899233 0.5128146919899734 L2.3983383634899837 0.5167162629900304 L2.437819157489912 0.5415209509900478 L2.4503248544899634 0.545189976989974 L2.4675847824899506 0.5427870229900122 L2.577552230489971 0.4906196649899357 L2.6104184414899123 0.4827648469899941 L2.680698389489976 0.4801293489899763 L2.7154249524899114 0.47085342999005775 L2.7317547044899584 0.4683729609899956 L2.7472576344899835 0.47338557399004344 L2.762863916490005 0.48108536299002935 L2.779400375490013 0.48638219698997887 L2.8409986824899534 0.49782852698999136 L2.956753890490006 0.5452416539900753 L2.988896631489922 0.552088780990033 L3.003986149489947 0.55061600299004 L3.032821599489978 0.5404357449899635 L3.0481178234899176 0.5373351599900218 L3.1763787274899755 0.5413659209900175 L3.2424212084899295 0.5610288039900411 L3.360760238489945 0.6198624219900353 L3.3957968594899626 0.6248750359900157 L3.4678338064899776 0.6241515659900188 L3.6098406414899387 0.6495505319900019 L3.6409498534899853 0.6622112579899522 L3.6646176604900234 0.6819774939900185 L3.6992408704899162 0.7293906209900172 L3.7247690274899696 0.7467280629900017 L3.758565414489965 0.7584327749899842 L3.792361800489914 0.7654607689900104 L3.8263648934899948 0.7663909449899506 L3.954625797489939 0.7505004429900453 L3.9990675294899916 0.7515856479899412 L4.036687972489915 0.7632128449899938 L4.05673842848995 0.7745816599899911 L4.073068181489987 0.7816613309900049 L4.090844873489914 0.7852528429899905 L4.162365056489989 0.7890252229900057 L4.185412745489941 0.7953555859900234 L4.2006056154899625 0.8087139439900568 L4.1974016774900065 0.8392547159900516 L4.1984352064899895 0.8608554639900206 L4.210217432489969 0.873748733990027 L4.301478011489962 0.8853759309899942 L4.360905908489997 0.9033593299899678 L4.389121241489988 0.8994835969900237 L4.389534652489999 0.8815001989900395 L4.389094035489961 0.8808690879899359 L4.316980941489987 0.7775788929899932 L4.301581364490005 0.7462629749900032 L4.294036605490021 0.7127766479899833 L4.29672377948998 0.6751045279899586 L4.307885889490024 0.639654494990026 L4.360905908489997 0.5515461789899803 L4.387570947489962 0.5083446809900352 L4.391084945489922 0.4930226189899827 L4.388294417489931 0.47483251399003734 L4.375995427490011 0.441423700989958 L4.3735149584899204 0.42460302298999864 L4.377028956489994 0.4074722849900354 L4.385193831489914 0.3930803989900369 L4.405761051490003 0.3662603309900305 L4.443691553489998 0.2851283319899949 L4.454957015489981 0.27050390099000765 L4.470666650489932 0.2601427769899942 L4.518105616490004 0.23996312999003067 L4.689568018489922 0.1876924189900251 L4.706827946489966 0.18510859699000548 L4.748272445489931 0.18632299399004637 L4.78568618248994 0.17146601899000302 L4.8190691574899915 0.10271052499001598 L4.849351546489913 0.08550227398995958 L4.869402002489949 0.09074743198999613 L4.905472152489949 0.11612055998998017 L4.923868962489962 0.12056473298997616 L5.081378728489938 0.10663793499000462 L5.097915186489956 0.09979080699002907 L5.1006023604899156 0.08550227398995958 L5.090060368490015 0.06831985998999812 L5.06277521149002 0.04072464598999659 L5.09171401448998 0.05263606299001822 L5.14266697648992 0.08666499298996655 L5.170985661490022 0.09521744298999124 L5.204058578489992 0.10077265898999599 L5.232790674489991 0.11139216698998666 L5.2845704594899985 0.14288895199004514 L5.30462091548992 0.15058873999004163 L5.346788884489968 0.15379267899001547 L5.382238916489996 0.17131098898997266 L5.423270003489961 0.17952754299000162 L5.442183578490017 0.18738235999003905 L5.456032861489973 0.2002239539900188 L5.481044255489962 0.23208247398997628 L5.495306950489919 0.24425227398998572 L5.597936344489938 0.30254328999001245 L5.632766260489973 0.3124134879899998 L5.746867823489993 0.32659866898995915 L5.832547347489935 0.3575786899899924 L5.86086603248998 0.37594966099007365 L5.889391423489997 0.38602656599002216 L5.950162907489926 0.3998241729899519 L5.978274887489931 0.41212316399000315 L6.002149398489962 0.42589493299004744 L6.06261082448998 0.45276667799004144 L6.088655745489973 0.4572366889899513 L6.155214990489924 0.4566682489900131 L6.380627588489972 0.47850154099003817 L6.4200050304899605 0.47540095498999335 L6.439952132490021 0.47720962998999994 L6.504444320489938 0.4971308949899935 L6.53017918349002 0.4963299099899814 L6.559324691490019 0.48705399099006286 L6.587850081489989 0.47193863399004954 L6.6116212414899564 0.45374852999000836 L6.622266586489957 0.44085525999000197 L6.654616032489912 0.37677648498998906 L6.666088200489924 0.36910253399000226 L6.681177719489938 0.366234491990042 L6.691075186489968 0.3656552089899776 L6.74298273249002 0.36261714199005723 L6.782050114489948 0.3667254189900575 L6.860598291489964 0.38370112699007564 L6.88312921648992 0.3847863309900674 L6.948551579489958 0.36845657799003106 L6.974596501489941 0.36814651999003445 L7.047770329489936 0.3812723339900117 L7.138514144489989 0.3812723339900117 L7.224503727489946 0.40075434899000584 L7.235149073489936 0.3995399529899828 L7.254992822489953 0.3928220169899532 L7.266981754490018 0.39235692899003993 L7.277317041489937 0.39716283698993493 L7.288479150489934 0.41318253098998525 L7.298090967489941 0.41692907299000126 L7.316074365489953 0.4128466339900001 L7.345943343489978 0.39142675298998597 L7.364546859490019 0.38545812498995247 L7.39090183948997 0.3879385939900146 L7.442784977489964 0.4042166699900349 L7.469036605489919 0.4076273149899805 L7.489913883489976 0.40393244998998057 L7.5283611494899105 0.3912975619900294 L7.57280288149002 0.39209854598996685 L7.591923161490001 0.388765416989969 L7.630267074490007 0.3735467069900267 L7.63440118848996 0.36985184199002674 L7.635641423489972 0.36533015498997656 L7.63791518648992 0.36166112799000416 L7.645356592489918 0.3603692169900228 L7.663546696489959 0.3631339069899866 L7.669231104489995 0.3627721709899845 L7.676982568490018 0.35936152699005675 L7.698169906489966 0.34093887898995945 L7.717496892489919 0.3306811069899709 L7.737443995489912 0.3283039909900367 L7.781679020489946 0.32789057899000795 L7.82136652048996 0.31639257298999723 L7.840900212489942 0.31391210499000977 L7.860433903489934 0.320216628990039 L7.973915349489914 0.3342726189900418 L8.008021794489935 0.3435226999900465 L8.019080550489946 0.35067988599001865 L8.047709294489948 0.38044551099000046 L8.06269545948993 0.389230504989996 L8.079128565489953 0.39235692899003993 L8.095906908490008 0.3924825149900357 L8.113648421489927 0.3926153109900099 L8.212143701489936 0.4048626249900167 L8.244906559490005 0.39788630699001715 L8.28728123348992 0.3826675979900074 L8.302577458489964 0.3801871289900305 L8.317977035489946 0.38101395199004173 L8.345778955489948 0.3880419459900395 L8.385569808489947 0.3878869179900164 L8.40500014749 0.3955091909899977 L8.422466781489959 0.40615453598996965 L8.441793767489912 0.414293573989994 L8.458433577489927 0.4145777939899631 L8.510936833490007 0.39587092598998197 L8.53181411148995 0.39292536998999594 L8.597856592490018 0.394837396989999 L8.665242660489923 0.4068004909899514 L8.671547184489953 0.41271744298995827 L8.675681299489952 0.4193837029900749 L8.682192529489953 0.42491308098996683 L8.693974756489922 0.4311400909899703 L8.719606266490018 0.42258764198996346 L8.736246078490012 0.41447444099003405 L8.745237777489933 0.4116063999900632 L8.767872054489999 0.40920344599001623 L8.791023096489994 0.41114131199003623 L8.813347315489978 0.4174199979900379 L8.870191390489936 0.4422246859899701 L8.914633122489988 0.44775406398997575 L9.021913396489936 0.44044184898999106 L9.067595362489953 0.44227636198999676 L9.113794092489911 0.437418776989972 L9.133121078489978 0.4400284369899907 L9.17415216549 0.4509838409900624 L9.195236149489915 0.45191401699000266 L9.212392725489963 0.4471339469900215 L9.248669580489945 0.4298998569900334 L9.269546859489935 0.4241896109899699 L9.313575180489977 0.42176081899000906 L9.380134424489938 0.4268251089899877 L9.478319645489933 0.4521982379899896 L9.51945408548994 0.4699490919900029 L9.553973942490018 0.49126561999000273 L9.571130518489952 0.49782852698999136 L9.691950016490011 0.5068460639899399 L9.772151839489993 0.5312115029899758 L9.838297673489933 0.5340020299900061 L9.876951644489964 0.5452933299900735 L9.914882145489969 0.5462751819900404 L9.992810205489945 0.5170779979900146 L10.032291000489977 0.5114452669899947 L10.057405745489973 0.5167937779900456 L10.064847152490017 0.5268965199899753 L10.059162744489981 0.5653954619900503 L10.060092920489922 0.5884948279900186 L10.06588068149 0.6088295039900515 L10.076215967489986 0.6275880479899456 L10.090375310489947 0.6459590209900341 L10.126135400489943 0.6726498979899986 L10.205303695489988 0.7002451119900002 L10.23703302448996 0.7251273139900434 L10.28240493249001 0.8054841659899807 L10.309690088490015 0.8328209999900196 L10.360436345489916 0.8484531199900402 L10.455934391489961 0.8528972929899794 L10.536549626489943 0.8413734489900264 L10.58047459349001 0.8425878449899642 L10.801959782489973 0.8779862009899944 L10.844127751489964 0.8989151559900677 L10.85797703448992 0.9109557649900353 L10.896114242489944 0.9529170279899404 L10.961019841489929 0.9966611279900235 L10.994092757489966 1.0290880889900222 L11.02055109048996 1.0635562689899984 L11.050626774489956 1.0937094679899815 L11.094345036489926 1.1129072629900065 Z M2.6695362804899787 3.3127213089900067 L2.6446282394899754 3.3187157749900393 L2.608144678489964 3.3397480829899564 L2.5908847494899874 3.346310989989945 L2.5657700044899343 3.347344517990024 L2.5495436044899407 3.3622273309900663 L2.55936212648993 3.3766450549899787 L2.580859522489959 3.388582311990035 L2.600186507489923 3.395661982990049 L2.625818017489962 3.401656448989968 L2.6413209474899872 3.39933100999005 L2.6511394694899764 3.3869803419899824 L2.6737737474899177 3.323108271990037 L2.6695362804899787 3.3127213089900067 Z M2.060942936489994 3.2604247589900126 L2.053398177489953 3.259597936989991 L2.049470768489982 3.2577892609899948 L2.046060124489941 3.255515497989961 L1.9899911954900062 3.237480422989961 L1.9628610684899286 3.2237861679899424 L1.9457561684899929 3.2072497109900553 L1.931958561489921 3.1799128779900343 L1.91521539848992 3.1555216009899993 L1.8925811204899219 3.144669550990045 L1.8611618494899176 3.1578470409900206 L1.843901920489941 3.189007929989998 L1.838062484490024 3.206629592989998 L1.836977279489929 3.2232177279900043 L1.842454980489947 3.2393407749899836 L1.867156316489968 3.281043655990004 L1.8785251304899475 3.293549351990009 L1.8916509444899816 3.298923700990059 L1.918315983489947 3.3033161979899717 L1.9298398274899569 3.3103958689900708 L1.9343873544900134 3.339541376990013 L1.8916509444899816 3.391269485989966 L1.8933045904899473 3.416694290989966 L1.9059136404899846 3.421603551989989 L1.9200729824900122 3.41488561498997 L1.9338189134899721 3.4044469759900267 L1.9449810224899124 3.398297480990067 L1.9639979494899649 3.3990209499899606 L1.9688038574899451 3.4075992379899844 L1.9712326504899238 3.4186063179899975 L1.982911524489964 3.4269262239899376 L1.9976909834899175 3.4279597519900165 L2.045026595489958 3.418192906990072 L2.0786162764899814 3.417624465990002 L2.092465560489984 3.413645380990033 L2.1031109054899275 3.4015014189899375 L2.1050746104899645 3.370702265989962 L2.061046289489923 3.3342703809899774 L2.0587208504899763 3.3084321649899664 L2.0749989264899114 3.296184849990027 L2.121301009489912 3.2713284869899724 L2.1280189454899414 3.255670526990002 L2.120370834489961 3.2463687699899992 L2.1077617844899237 3.2445600949899926 L2.0822336264899945 3.2498310909900283 L2.0769626314899483 3.25215652999006 L2.0659038744899476 3.2590294959900348 L2.060942936489994 3.2604247589900126 Z M1.3827414394900188 3.42051834598999 L1.367755274489923 3.4202082879900217 L1.3666183924899542 3.4356595409900024 L1.374163151489995 3.4522476749900193 L1.3874956714900009 3.4669237829900226 L1.4213954104899358 3.48511388698995 L1.4313172854899108 3.494777378989994 L1.4598943524899823 3.532346145989976 L1.4656304374899491 3.5358601439900497 L1.5169968104900136 3.50397578498999 L1.545625554489959 3.4926069689900032 L1.5785434414900124 3.487594355990012 L1.58882705149 3.4803596549900533 L1.5904290214899675 3.462427932989982 L1.5829359384899249 3.443979446989971 L1.5706369474899589 3.4415506539900207 L1.5390109714899722 3.4526610879900375 L1.503922673489967 3.4517309119899835 L1.3827414394900188 3.42051834598999 Z" fill="black" stroke="black" stroke-width="0.5" vector-effect="non-scaling-stroke"/></svg>