<svg xmlns="http://www.w3.org/2000/svg" viewBox="0 0 7.718635838760008 8.752199109239989"><path d="M2.097254931379979 0.18430115462005503 L2.1040245433800067 0.19820211462002746 L2.109967334379945 0.20812398962003087 L2.1199925613799735 0.23969828961999085 L2.1227830883800323 0.24326396362006264 L2.131464729379985 0.24936178262002429 L2.134720345379975 0.25375427862003264 L2.134720345379975 0.259180304619985 L2.131413053379987 0.2710142076200093 L2.1329633453799772 0.27716370262008283 L2.14748442337995 0.2922015446199673 L2.164796028379925 0.30346700662003556 L2.1791620763799244 0.31638611462004107 L2.185569954379986 0.3364365706200765 L2.204845263380008 0.3534381166200937 L2.265048307379999 0.381808477620023 L2.336671842379957 0.44712748862006535 L2.3680394363799735 0.4647491526200547 L2.377392870380021 0.47296570462007637 L2.384007454379997 0.48355937262006066 L2.3938259763799863 0.5083640606199928 L2.4007506173799413 0.5196295226200611 L2.421214485379977 0.5344089826200609 L2.446225878379977 0.5478448556200242 L2.461470426380032 0.5604539046200436 L2.4526854323799796 0.5729596006200488 L2.44984322837999 0.575853481620026 L2.4476728183799707 0.5790057436199838 L2.4459158203800087 0.5826230946200717 L2.4449856443799547 0.5864988266200264 L2.456664518379938 0.6242742976200866 L2.4944916663800143 0.6426711086200889 L2.5388300453799673 0.6564170396200204 L2.569629199379932 0.6804982566199662 L2.6037356443800093 0.7532069976200368 L2.6131924313799857 0.7940830546200282 L2.6083865233799486 0.8527358056200676 L2.6105052573800265 0.8755767886200765 L2.6154145183799926 0.8982110656200284 L2.6219257483799367 0.9138173486200678 L2.629263801379949 0.9240492826200288 L2.632054329379997 0.9255478986200494 L2.636033414379966 0.9234291646199715 L2.6888984043799553 0.9225506656200473 L2.6997504553799843 0.9201735496199994 L2.7307563143799314 0.9009499166200605 L2.7532872393799437 0.8739748196200416 L2.765276171380009 0.8419354316200263 L2.767756640379986 0.7615269026200728 L2.7853266273799306 0.7457655906199925 L2.8050670243800084 0.7605450506200206 L2.8135419593799895 0.8062270166200385 L2.8104930503799608 0.8460695456200646 L2.8137486653799613 0.8653965316200178 L2.8257892733800247 0.8773854636200547 L2.8431008783799427 0.8761969056200307 L2.9156029133799564 0.8467930156200616 L2.921235644379948 0.842865607619995 L2.926403287379941 0.8447259586199998 L2.934619840380009 0.8579034496200784 L2.938495572379935 0.8688071756200308 L2.940355924379986 0.8803310206200585 L2.939425748379932 0.9490089996200304 L2.942733040379977 0.9732452456200171 L2.9527065913800072 0.9951560536199615 L2.9535334143799616 0.9979465806200203 L2.953895149380031 1.000840460620008 L2.9535334143799616 1.003682664620083 L2.9527065913800072 1.006524868620044 L2.9327078123799595 1.024559942620055 L2.895190722379965 1.0682782046200252 L2.8735899743799393 1.0865716616199954 L2.828269743379991 1.1564381986200765 L2.8433592603800264 1.1496685856200308 L2.86335804037995 1.1377830066200083 L2.8827883783800132 1.1291530416200537 L2.896637662379959 1.1317368636200733 L2.895397428379937 1.1432090316199996 L2.8624278643800096 1.1934902006200439 L2.858242073379955 1.213954067620005 L2.857415250379944 1.2596877096200494 L2.8537979003799308 1.2765342266200257 L2.8416022623799506 1.2880580706200355 L2.807754199380014 1.2959645656199932 L2.7913727703799793 1.3079534976200584 L2.7799006013799783 1.3270221016200416 L2.7877554193799767 1.331259568620066 L2.8067723473799617 1.329399217620061 L2.828786507379931 1.3301743636199994 L2.8437209963799717 1.3356520646200742 L2.856743457379963 1.3442303536200022 L2.8664586263799663 1.3549273746200292 L2.8715745923799716 1.366761277620025 L2.870386035379937 1.3758563296200172 L2.8616010413799415 1.3957517566200117 L2.8616010413799415 1.4054152486200273 L2.8676988603799316 1.4154404776200629 L2.874520149379947 1.4173008286200677 L2.8827883783800132 1.4176625636199667 L2.8930203123800027 1.4234503246200454 L2.9042340983799306 1.440193488619979 L2.9044842423799366 1.441210116619981 L2.9138975903799462 1.4794675766200491 L2.9207705563799493 1.4969858866200063 L2.9254214353800023 1.5059775866200589 L2.9301756673799844 1.5128505516200157 L2.938082161379924 1.5160544906199895 L2.9527065913800072 1.5141941386200806 L2.977769661379938 1.524477748619983 L2.9931175613799894 1.5413242656200445 L3.015700162379943 1.5863861146199945 L3.0468093743799898 1.650568244620029 L3.0653095373799317 1.6798687806199943 L3.0938866043799464 1.713458461620018 L3.108614388379948 1.7269460106200931 L3.1149705883799754 1.7313901846199933 L3.125564258379967 1.7358343566199999 L3.1436510093799654 1.7381597966200495 L3.1538312663799672 1.7406402656200264 L3.1622545243799607 1.7447743796200363 L3.17569039638002 1.754024460620041 L3.185508918379952 1.757280076620031 L3.1971877923799354 1.757486782620088 L3.204428835380014 1.75543706962004 L3.216721484380031 1.7519574046200823 L3.225713183380009 1.7511305806200532 L3.2419912593800007 1.7554714016200528 L3.298421923379948 1.7839967916199946 L3.3262755203799372 1.7927817856200754 L3.3369208653799944 1.794125372620055 L3.342398567380002 1.7942287256200693 L3.367714299380026 1.7875616056200663 L3.3694770183799676 1.7870973776200394 L3.389837532379971 1.7762453276199999 L3.3968655273800152 1.7700441556199955 L3.3999144373800334 1.7637396306200053 L3.405185432379966 1.761155808620071 L3.4190347163800254 1.7661167456200353 L3.4311786783800073 1.7775372376200487 L3.4494721353799775 1.8109718896200313 L3.4602208333800206 1.8239426746200529 L3.467972298380033 1.8293686996200158 L3.475930468379971 1.8335028136200542 L3.484560433379926 1.8358799296199884 L3.494689013379997 1.8362933416200171 L3.4947406903799845 1.8365000476199604 L3.5565457033799532 1.8489540676200527 L3.5759760413799597 1.8594960596200103 L3.6146300123799904 1.8990285306200398 L3.6365408193800306 1.9171152816200667 L3.639744758379976 1.9210943666200357 L3.6439822263799613 1.9235748356200126 L3.654937630380033 1.9253318346199926 L3.6640326823799967 1.9241949526200806 L3.6762283193799874 1.9203192196200227 L3.6870803703799595 1.9150999006200315 L3.6928681313799245 1.910138962619964 L3.6923513673799846 1.9020257636200704 L3.682222786379924 1.8825954246199892 L3.6809825513799694 1.8731386376200128 L3.6858401363799373 1.8600128236200355 L3.69204130837997 1.8560854156200826 L3.7006195953799477 1.8550002096199982 L3.712970263379958 1.8509177716200718 L3.7331757483799777 1.838928839620035 L3.737206510379991 1.8321075506200764 L3.7337958653799603 1.822444057620043 L3.731625455379941 1.8019801906200819 L3.73534615837994 1.7858571436200172 L3.74376941737998 1.76559998162001 L3.7541563803799534 1.7469447896200272 L3.7639232253800117 1.735886033620016 L3.7750336583799537 1.7323203596200578 L3.795290820379961 1.7349558576200756 L3.805419400379975 1.7341807116199668 L3.8143594233799547 1.7295815096201004 L3.8290872063800236 1.7170758116200027 L3.837200406379935 1.7122699046200118 L3.910735970379932 1.690049037620053 L3.930786425379978 1.681574102620072 L3.9409150063799245 1.6791453106199974 L3.9525938793799753 1.6795070466199995 L3.989180794380019 1.6737709616200327 L4.035276171379934 1.6230247056200646 L4.070881233379936 1.6206475896200168 L4.077754198380006 1.6241615866200725 L4.0928437173800205 1.6348069316200444 L4.101215299379959 1.638682664620017 L4.110672086379935 1.6401812806200091 L4.133358039379999 1.6405946926200379 L4.144003385379989 1.6420933096200478 L4.172477099380018 1.6519635076200352 L4.179866829379961 1.6564076806200312 L4.185706265379935 1.664210821620042 L4.196144905379953 1.6848297186200618 L4.199658903380026 1.6898423326200138 L4.206635221380026 1.6895322736200278 L4.229166145379935 1.6835894836200218 L4.238622932380025 1.682917689620023 L4.247666308379991 1.685656541620073 L4.257536507379967 1.6903074206200408 L4.266476530379947 1.6960951806200164 L4.2738662593799575 1.7020379706200224 L4.2858035153800245 1.7172308416200615 L4.3018232093799895 1.7479783186200102 L4.314949023379967 1.7628094546200366 L4.323268928379974 1.7681838036200013 L4.338926888379973 1.773764858620023 L4.346574999379953 1.7787257956200726 L4.351949349380021 1.786115526620062 L4.360269254379972 1.8034788066199887 L4.367658984379972 1.8108685376200064 L4.3879161453799895 1.8166562966199642 L4.41075712837997 1.816087856620026 L4.4312209953799595 1.8182582666200169 L4.444760221379937 1.8322109036200054 L4.454268684379969 1.863630174620038 L4.47090849538003 1.879753220620028 L4.522481575379942 1.9031109686199663 L4.579325650379957 1.9213010726200928 L4.593795051379999 1.9353570616200209 L4.592670586379967 1.93923427562002 L4.585836881379947 1.9627972486199887 L4.521241340379987 2.046151332620024 L4.499330533379947 2.0625844386199894 L4.47442249337999 2.069922491620087 L4.448274219379954 2.065685023620045 L4.423572883379933 2.047236538620023 L4.402385546379975 2.0864072736199653 L4.402282193379989 2.0864072736199653 L4.34502470738002 2.1233559226200036 L4.33841012337993 2.142114467620001 L4.370139453379949 2.161183071619984 L4.410963834379942 2.170794888619991 L4.5541075513799285 2.167797654619971 L4.567956836379977 2.175032354620054 L4.590901171380011 2.205108038620022 L4.607024218380019 2.2160376036199914 L4.645006396380012 2.230067755619995 L4.659527474379985 2.2408681306200258 L4.663248177379984 2.2488004616200037 L4.666297086380013 2.2601434386200587 L4.667899056379923 2.271848151620059 L4.667227262379953 2.2808140116199915 L4.660457649379936 2.2943790756200535 L4.652706184379923 2.2965494856200444 L4.644437955379971 2.2961360746200334 L4.6359630203799895 2.302233893619995 L4.632138964379948 2.315385544619982 L4.630588672380014 2.3357460596200035 L4.631622200380008 2.3560548976200373 L4.6356529623799645 2.3691548736200723 L4.66944934837997 2.385303758619994 L4.712185758380002 2.3770872056200396 L4.757402636379965 2.3628245106200545 L4.797761930379949 2.360860805620046 L4.886593717379952 2.4065169336200363 L4.887575569379948 2.4140358546199927 L4.882046191379942 2.4247587146200935 L4.8834931303799465 2.4472121236199875 L4.896980680379983 2.4661256986200435 L4.935479622380029 2.4900518866200336 L4.943024381380013 2.505761521620098 L4.939768766380013 2.5097406066199817 L4.926074511379994 2.5123244286200865 L4.922560514380024 2.514753221620037 L4.922250455379952 2.520902716620025 L4.925040983380001 2.5296618716200037 L4.926901334380005 2.54818787262003 L4.930053597379953 2.5603318346200403 L4.931810595379972 2.572579148620047 L4.928089892380029 2.5863509176200914 L4.924287789380031 2.589476616620072 L4.914292285380014 2.597693894619976 L4.901063118379994 2.599605922619997 L4.871504199379984 2.5963503076200247 L4.852435595380001 2.599192511620071 L4.847629687379964 2.6041017726200373 L4.84576933537997 2.61270589862006 L4.836519254379965 2.6266326966200317 L4.813936653380011 2.642962449619983 L4.7592629873799694 2.6737616026200435 L4.740401090379947 2.696344203619997 L4.73414824238003 2.714844367620014 L4.739315885379966 2.7203995836200185 L4.768874804379976 2.7221824206199976 L4.78784005538003 2.72817688662003 L4.795229784379927 2.7337579406200625 L4.79548816738 2.7428529936200157 L4.793679492379937 2.7594411276200326 L4.783602587379988 2.7909637516199943 L4.763810514380026 2.804916388619983 L4.739315885379966 2.8153291896200123 L4.715338020380017 2.8361806296200704 L4.696372770379952 2.841658331619964 L4.682781868379976 2.8431569486200594 L4.670276172379971 2.846386725620061 L4.654566536380031 2.8571612616200746 L4.6416474283800255 2.870622972620037 L4.633379199379959 2.883877976620038 L4.601649869379941 2.9637697416200517 L4.592864875379945 2.974415085620034 L4.583563118379942 2.9753711006199914 L4.566406542379951 2.9658884746200265 L4.557828254379928 2.9638214176199646 L4.5488365553800065 2.9665602686199968 L4.533436978380024 2.9764046286200703 L4.524755338379947 2.97991862662003 L4.501397591380027 2.982476609620033 L4.484447721380008 2.9790401276199923 L4.427706998379989 2.9466906806200193 L4.402385546379975 2.936071173620018 L4.394013965380026 2.9310327216200385 L4.379854622379952 2.9174159816200635 L4.370346158379988 2.905013637619998 L4.358667284379948 2.8965645406199876 L4.3386168293799585 2.8943941306199967 L4.320478401380029 2.898838303620021 L4.2738662593799575 2.9269761216200543 L4.255624479380032 2.8979598046200685 L4.220742886379952 2.886668504620001 L4.207565397379966 2.8758422916200566 L4.17880308437995 2.8832638086200397 L4.13676868438003 2.8941099106200276 L4.114909554379921 2.8943941306199967 L4.109845263379924 2.8994067446200624 L4.103075650379964 2.9059438136200235 L4.095789274379996 2.9208524636199904 L4.087831103379955 2.9269761216200543 L4.067315560379967 2.9299475166200573 L4.048298632379982 2.9238238586199934 L4.000342903379959 2.9004144356200463 L3.9888707353799475 2.8972880116200876 L3.979568977380012 2.9011120676200157 L3.9737812173799227 2.9169508936200366 L3.9762616863800133 2.929327398620085 L3.9959504063799898 2.98144308062005 L4.0075259283800335 2.995809128620049 L4.0387901693800075 3.0136891746200085 L4.050158983379987 3.0227067116200708 L4.056566862379924 3.0389589506200814 L4.057858772380001 3.056141364620043 L4.061114387380002 3.072548630620002 L4.072586555380013 3.0862687236200195 L4.07274158537993 3.0863204006200355 L4.068555794379989 3.098180141620059 L4.059874153379923 3.1025468006200576 L4.049125456379926 3.1048205636199775 L4.039100227379976 3.1105566466200223 L4.03264067338003 3.121279506620038 L4.02850655938002 3.1443788726200346 L4.025147591379977 3.154352423620036 L4.017396126380021 3.1684600896200656 L4.016879362379967 3.1689251776200926 L4.01372709938002 3.165178636620066 L3.998999316380008 3.1668581196200414 L3.975279834379961 3.1749196436200116 L3.9525938793799753 3.18618510562008 L3.9314065423800173 3.1908876616200637 L3.919624316379924 3.2004994776200526 L3.8998839193799597 3.229076544620039 L3.8844843423799773 3.2400577866200244 L3.8486208983799486 3.254966437620066 L3.8353400553799304 3.2646557686200985 L3.8270201493799902 3.2819415346199996 L3.837148730379937 3.286514899620027 L3.855338834379978 3.2860498116200283 L3.871255175380014 3.2879618396200208 L3.8844843423799773 3.311810512620024 L3.8895486323799844 3.3188385076200113 L3.8965766273799716 3.323696092620036 L3.9217430493800123 3.3362534656200573 L3.951353645379953 3.3565623036199774 L3.9525938793799753 3.3565623036199774 L3.9737812173799227 3.348009853620038 L3.994761848379966 3.346976325620073 L4.015329068379941 3.3516013656200236 L4.126330045380001 3.3989628156200915 L4.166430957380015 3.4252661196200442 L4.176714567380003 3.434903774619965 L4.180331917379959 3.45479920061997 L4.180435270380002 3.4726792466200145 L4.189220263380008 3.481102504620008 L4.218159065379922 3.4729634666200973 L4.238202961379983 3.4777200766200274 L4.238519579379982 3.47779521262002 L4.252937304379969 3.4883888816199935 L4.265856412379975 3.501359666620015 L4.281462695379929 3.5131935686200215 L4.300582975380024 3.521384283620062 L4.3177395503800255 3.526655279620069 L4.33375924537998 3.5339674956200717 L4.350605762379956 3.54828186661997 L4.379337857380023 3.5895713366200646 L4.39184355437996 3.598743903620072 L4.409671923379989 3.6025162826200976 L4.440729459379924 3.599441534620052 L4.459539680379947 3.6041440906200357 L4.476282845379984 3.613859259619982 L4.488478483379964 3.6254864566200347 L4.522894986379953 3.6750441556199966 L4.534677213379922 3.685379441620011 L4.568266894379946 3.7027427236200303 L4.582581265379957 3.7131555236200704 L4.609814745379964 3.7394846656200222 L4.6248009113799355 3.749303188620086 L4.6349294913800065 3.752145391620058 L4.65425647737996 3.7536440086200678 L4.664178353379924 3.7570804916200977 L4.66944934837997 3.7625323556199923 L4.681128222379954 3.779378872620054 L4.688879687379966 3.78576091162007 L4.7005585613800065 3.7898433496199964 L4.741486295379929 3.795398566620019 L4.780243619379945 3.8067157046200855 L4.793989550380019 3.8081884836199826 L4.851505419379947 3.8038735006200106 L4.877963752379941 3.8112373926200114 L4.8878339513799745 3.836171270619996 L4.898324267379934 3.846274013620029 L4.915842577380005 3.8506923486200257 L4.935479622380029 3.8501755836200964 L4.952429492379935 3.8457830876200028 L4.9687592443799815 3.8488319966200315 L5.018937060380011 3.8768406226200334 L5.043173307379931 3.885212205620018 L5.05557565037995 3.8843337056199907 L5.067254524379933 3.881284796620047 L5.078881721379929 3.8797861796200372 L5.091284065379995 3.8835068826200363 L5.119706103380025 3.928775437620043 L5.141461881380025 3.9428572656200735 L5.148076464380011 3.9512805246200564 L5.148076464380011 3.963522713620005 L5.148076464380011 3.9669901596200354 L5.140686734380012 3.9836558086200675 L5.130661507379983 3.9850510726200348 L5.118930957380002 3.981382046620052 L5.106735319379965 3.9829323386200706 L5.092214241379935 4.0010190906200584 L5.079088427379958 4.0306813616200365 L5.063843880379949 4.08607849761999 L5.05857288437997 4.1274971586200415 L5.069373258380011 4.155324917620003 L5.092575976379948 4.176718960620018 L5.124046923380007 4.198681443620085 L5.141461881380025 4.215838019620048 L5.140841764379928 4.227956142620041 L5.134588915379965 4.241211147620032 L5.135260709379935 4.2620109116200915 L5.144769172380023 4.275059210620025 L5.193345019380018 4.303998012619996 L5.199081103379996 4.31105184562001 L5.207866096379945 4.326528936620019 L5.214532356379976 4.332394211620009 L5.225074349379923 4.335468959620055 L5.235519468379977 4.3343861446200656 L5.261712939379976 4.33167074262003 L5.266622200379942 4.3284409646200395 L5.2711180493799645 4.32911275862001 L5.277887663379971 4.339809780620026 L5.279437955380018 4.3509202136200535 L5.272978401379959 4.37489807762007 L5.273650195379929 4.38624105462004 L5.28419218738 4.400787969619994 L5.300470263379935 4.41176921161998 L5.318712043379975 4.419210618619996 L5.334525032379958 4.423112189620053 L5.341914762379957 4.426626186620023 L5.344136848379975 4.430811977620049 L5.346927376380023 4.431897182620059 L5.356074104379928 4.426161098619996 L5.360156543379929 4.419081427620068 L5.3647040693799966 4.396912238620029 L5.370595181379969 4.387636318620036 L5.388630257379958 4.379962368620038 L5.409972623379957 4.381305955620018 L5.430023079379936 4.389134934620028 L5.44531930238 4.400891322620037 L5.451417121379933 4.409857183620044 L5.459478645380017 4.437038987620053 L5.459788703379928 4.443136806620014 L5.457721647379941 4.448356126620023 L5.455447884379936 4.452206020620064 L5.454621060379992 4.454531459620096 L5.459220263379933 4.458200486620097 L5.470589078379959 4.460784308620003 L5.47467151737996 4.46370402661999 L5.491104621380003 4.49902486762009 L5.499269498380016 4.505949509620063 L5.516736133379965 4.51512207662007 L5.52510771537996 4.522899379619968 L5.530482063379935 4.533906460619971 L5.534151090379936 4.5566957666199635 L5.537923469379933 4.566514288620038 L5.544744759379995 4.573593960620041 L5.5684125643799405 4.586099656620046 L5.5684125643799405 4.586254686619991 L5.582030202380025 4.612665963619985 L5.584638964379934 4.617725632620033 L5.5727533853799684 4.693741665620092 L5.583812141379923 4.727589727620096 L5.622569465379939 4.76174784961999 L5.64840768237994 4.808773403620034 L5.670628547380005 4.837763881620031 L5.679826953380001 4.854248663619995 L5.692436002379935 4.892385871620075 L5.70168608337994 4.908353887620006 L5.713881722379966 4.917810675620057 L5.766023241379997 4.939773158620039 L5.798476041379928 4.960288702620016 L5.824624316379953 4.983853155620022 L5.889736621380024 5.065036830620084 L5.910768929379941 5.086120815620017 L5.910923958379982 5.086120815620017 L5.997895393379935 5.187354946620001 L6.164035123379932 5.3244525206199675 L6.185894254379974 5.335562953619995 L6.200415332379947 5.336958217619962 L6.211990852379955 5.329878546620034 L6.226511930379928 5.315615851619963 L6.2309561033799525 5.307295945619995 L6.233384895379999 5.298665981620058 L6.238552538379992 5.292619838620009 L6.251213264380027 5.291999721620055 L6.26315052137997 5.297064012620023 L6.265269254379945 5.305280564620045 L6.264287402380006 5.315874233620018 L6.266561164380022 5.328069870620038 L6.271728808380004 5.334942837620002 L6.28557809237995 5.348895473620001 L6.289143766379965 5.354734910619992 L6.288368620379941 5.363933315620084 L6.280255419379927 5.3798496566200065 L6.279428597380019 5.390288295620035 L6.284957975380024 5.405326137620033 L6.315137011380017 5.453281866620056 L6.363247769379967 5.496483364620001 L6.373531379379955 5.513846645620031 L6.372962939380017 5.519634406619996 L6.366503385379957 5.530176398620068 L6.365728238379944 5.534672247620062 L6.382619539379931 5.5672081096200365 L6.387432340379945 5.57647848162004 L6.38996448537992 5.58603862162003 L6.38996448537992 5.586141973620055 L6.398852831379969 5.593169968620071 L6.415802701379988 5.601386522620015 L6.435129687379998 5.608259487620057 L6.452337939379987 5.6111533676200445 L6.475437304379938 5.617922979620101 L6.50313587238 5.59260152762003 L6.512024218379992 5.609189663620025 L6.512150171379943 5.631211820620063 L6.513677864379957 5.898319301619988 L6.519258919379951 5.9227105776200055 L6.528353971380028 5.944052944620022 L6.551039925380024 5.9682891916199985 L6.5700051753799755 5.979399624620026 L6.59015898437994 5.987254441620035 L6.603543179379955 5.9883396466200445 L6.618787728379999 5.995212612620019 L6.622921842379952 6.00652975161999 L6.618270963379956 6.060066534620045 L6.6197695803799945 6.07148702662003 L6.633773893379981 6.11101949662007 L6.649276822380017 6.137426154620055 L6.671497688379958 6.153962611620056 L6.70126331337994 6.1493634096199905 L6.701159960380011 6.160215460620048 L6.704312223379958 6.1647113096200705 L6.711081835379986 6.16429789862006 L6.721003710379961 6.160318813620062 L6.730110576379985 6.153581590620046 L6.731132291380021 6.152825730620048 L6.732992642380026 6.145280971619979 L6.733199348379998 6.137581182619993 L6.737746874379951 6.129364630620056 L6.764721972379988 6.112724819620052 L6.7759357583800295 6.1023895336200376 L6.7800181963799275 6.0857497216201 L6.801463916379959 6.050868129620039 L6.8252867513799345 6.051798305619979 L6.842650032380021 6.077791550620059 L6.845440560380013 6.117995815619974 L6.841203092380027 6.151275437620011 L6.839962857380016 6.153962611620056 L6.836810595379944 6.157218227620017 L6.834485155380008 6.161507371620001 L6.834485155380008 6.167191778620047 L6.838464241380024 6.170033982620009 L6.845130500380009 6.1678118966200195 L6.851435025380027 6.164504604620003 L6.854897347379989 6.163832810620033 L6.8670413083799815 6.190962937619997 L6.876343066379974 6.203313605620064 L6.893602994379961 6.217111212619994 L6.918097623380021 6.230133673620042 L6.924608853380022 6.2357147276199605 L6.929259732379961 6.245533249620035 L6.932670377379992 6.268012497620031 L6.935150846379969 6.274782111620066 L6.945899544380012 6.281965135620037 L6.9588186523800175 6.283515427620056 L6.992925097379981 6.282430223620036 L7.031992480379955 6.2866160146200905 L7.046579937380017 6.291040437620051 L7.049200732379944 6.291835333619996 L7.06770089438001 6.300775356620033 L7.086872851379923 6.314366257620019 L7.095451139379946 6.327233690620016 L7.106096484380004 6.38087382662 L7.111935921380024 6.39363790562005 L7.114590004379949 6.3970660966200334 L7.120617561379987 6.4048516916200064 L7.132968229379941 6.415807094620089 L7.148264453379994 6.4249538236200685 L7.161803678379982 6.428622850620069 L7.175756314379925 6.430844936619973 L7.191414274379923 6.435185757620058 L7.217407519379975 6.452032274620034 L7.254511198379959 6.497817592620077 L7.277558886379921 6.517661342620055 L7.305464160380012 6.525774542619967 L7.334506314379979 6.522570604620096 L7.390110155379972 6.508772996620035 L7.409643847380011 6.5081528796199954 L7.414243050379952 6.513010463620002 L7.412020963379945 6.524482632620032 L7.411891813379924 6.526388882619994 L7.410729052379992 6.543551235619997 L7.4153282543799435 6.554971726619993 L7.422149544380005 6.562929896619959 L7.423338101379926 6.571869919619996 L7.411297493380033 6.585925909620027 L7.396621386379962 6.598276577620066 L7.369232877380028 6.646025600620032 L7.354143358380014 6.662768764619994 L7.339673957379972 6.669538376620022 L7.301536751379928 6.675997930620081 L7.283656705379968 6.6827158676201 L7.214255257380017 6.726330776620056 L7.205831998379921 6.72855286261996 L7.196685269380026 6.727054246620053 L7.187435188380022 6.722713426620071 L7.177203255380022 6.719767869620068 L7.164852587379954 6.722455043619998 L7.153845507379998 6.733307094620056 L7.12878243838 6.787567348620012 L7.127387174380004 6.808392950620043 L7.138859342380016 6.823120734620044 L7.1938947423799675 6.854333299620048 L7.204281705379998 6.865030320620047 L7.208622526379969 6.879448044619959 L7.213170051379933 6.920918382620027 L7.217717577379943 6.93673137062002 L7.22732939437995 6.950761522620052 L7.244020882379999 6.963189703620014 L7.28215808837993 6.982103277620052 L7.295025520379937 6.993110357620036 L7.347942187380028 7.085792039620042 L7.360241177379947 7.093310960620055 L7.3672691723799915 7.089331875620001 L7.3735736983799995 7.080366013620061 L7.383650601380026 7.07326050462002 L7.390833626379987 7.0730537986200765 L7.410729052379992 7.0779630596200995 L7.416568489379955 7.07625773762005 L7.421581103380021 7.072640386620048 L7.426490364379987 7.073725592620047 L7.4319680663799375 7.0859470686200545 L7.435068652380011 7.093517666620027 L7.439409472379992 7.097470913619997 L7.445145556380027 7.0974967516200245 L7.452380256379996 7.093595180620053 L7.466074511380015 7.10044230862 L7.468761685379974 7.120337734620005 L7.46824492137992 7.143928025620038 L7.472534065379961 7.1618080716199835 L7.491240934379988 7.17242757862007 L7.534184049379945 7.166097215620052 L7.551754036380004 7.170618903619978 L7.554959435380027 7.178796312619976 L7.556301562379957 7.182220261620028 L7.558471972380033 7.22061585062006 L7.565189908379949 7.2384958966200195 L7.577075487379972 7.251234137619985 L7.621672249379998 7.283996995619983 L7.636193326379924 7.299422410619979 L7.6427045573800285 7.313297532620037 L7.642962938380009 7.328697109620034 L7.635418180379958 7.376161911620027 L7.632575976379968 7.382285569619992 L7.626064746379967 7.3841975976200125 L7.621207161379999 7.379391689620004 L7.615316048379981 7.376782029619999 L7.6058592613800045 7.38533447862002 L7.602190234380004 7.394610398620042 L7.5999164713799985 7.427321580620028 L7.594387092380003 7.446338507619995 L7.5840001303799625 7.461247158620036 L7.5777989583799865 7.467060756620025 L7.563587939380028 7.477551072619985 L7.559092089380016 7.485095831620026 L7.559402148379974 7.494914353620086 L7.56860055337998 7.512949428620086 L7.567670377379926 7.523672288620002 L7.556611620379925 7.534601853619986 L7.541212044379932 7.53604879361998 L7.5138235353799985 7.531449591620014 L7.497597134380015 7.532999884620036 L7.480985737379939 7.537812443620066 L7.452380256379996 7.546099859619996 L7.433673388380015 7.547727667620034 L7.424164925379927 7.5564609846200135 L7.423286425379928 7.570026047620001 L7.430004361380014 7.585916551620013 L7.428505745380022 7.600747687619954 L7.432536507379922 7.613976854620045 L7.440546354379961 7.625035610620042 L7.452380256379996 7.633613898619981 L7.468089892379993 7.641546230620033 L7.528241259379939 7.686582240620066 L7.536767871380022 7.695134690619991 L7.533925667379975 7.705650844620049 L7.519197883379974 7.725003668620015 L7.47744332738003 7.76420024261996 L7.469485156379932 7.777610276620006 L7.472895800379973 7.793087367620014 L7.482921028379991 7.80866781262004 L7.487881965379955 7.823214728619998 L7.476668180380017 7.8359012916200435 L7.483024381380034 7.845564785619967 L7.493256315380023 7.853626308620047 L7.5008527503799485 7.863160610619953 L7.498992398379954 7.877268275620079 L7.485504849380021 7.888404547620009 L7.452380256379996 7.935585130620023 L7.436825650379973 7.9430523746200485 L7.430366096380027 7.94966695762005 L7.422407926379975 7.972301235620005 L7.419048958379932 7.977933966620025 L7.4118659343800175 7.987519944620029 L7.408920377379985 7.995607306620027 L7.408351936379944 8.00351380062008 L7.409540494379968 8.011962897619977 L7.409540494379968 8.020463670619986 L7.406439908380008 8.028137620620068 L7.393520800380003 8.03842123061997 L7.382048633379924 8.037956142620043 L7.358742562379945 8.027801723619984 L7.339984017379976 8.023925991620029 L7.330165495379987 8.020231126620029 L7.311303596379986 8.00361715362001 L7.284276822379951 7.984626064620041 L7.265880012379938 7.983334153620003 L7.250790494380027 7.9964858056199795 L7.233117154379926 8.020877081619997 L7.2280528643799755 8.025217902620067 L7.216477343379921 8.032039190620036 L7.21249825738002 8.03692261362006 L7.210999642380017 8.04353719762005 L7.20888090737995 8.063587652620011 L7.198338916379981 8.083870652620018 L7.189812304379956 8.088392340620043 L7.174567757379947 8.085886033620053 L7.174412727379973 8.085886033620053 L7.174206021379945 8.085782680620039 L7.174102669380005 8.085731003620023 L7.159168180380021 8.08567932762001 L7.151054980379939 8.097590744620046 L7.145422249380005 8.114695644619996 L7.1373090493799225 8.130327765620034 L7.110023893379974 8.154305630620055 L7.079379768379937 8.174226894619974 L7.0571589033799285 8.18107402162003 L7.0464618813799405 8.175725510620065 L7.037935270380018 8.16381409362003 L7.0215538413799266 8.15112752962008 L7.008944791379946 8.145753179620026 L7.005844206379976 8.146580003620056 L7.005172411380016 8.15161845562002 L6.975975227379962 8.186706752619965 L6.9565448893799555 8.216420701620034 L6.952255745380029 8.218823655619982 L6.939698372379922 8.22145915362 L6.928742968380021 8.246987311620028 L6.928329556380021 8.253188482620015 L6.924712206379951 8.258330288620012 L6.912206510379946 8.261689256620027 L6.902077929379999 8.259932257620047 L6.883371061380018 8.248537603620047 L6.874276008379951 8.245540371620034 L6.863682340379938 8.246315517619959 L6.857894579379973 8.24915772162002 L6.853192024379922 8.25349854162 L6.814434700379962 8.274789231619987 L6.799448534379991 8.274272466620044 L6.785495898379935 8.268923956619997 L6.771594938379934 8.259260463619977 L6.745291633379992 8.233525600620066 L6.7102550123799745 8.18513062162003 L6.702503548379951 8.17024780961999 L6.697852669380012 8.163969122619985 L6.6901012043799994 8.156010952620019 L6.685760383380028 8.152548630620071 L6.6129999673799205 8.130947882620003 L6.600648988379959 8.124255937620003 L6.583957812379964 8.115212409620025 L6.564269091379998 8.085886033620053 L6.5539854813800105 8.079839890620018 L6.531041145379987 8.074904791619982 L6.522359505380024 8.069737148620074 L6.51884550737995 8.06017700761998 L6.513574511380028 8.028602708619996 L6.509595426379946 8.015890305620044 L6.497038053379953 7.996847540619978 L6.491095263380004 7.991499029620012 L6.469649544379962 8.010851853619979 L6.462363166380015 8.014365851620024 L6.455748584380018 8.01496012961999 L6.450839322380006 8.017776496620055 L6.449185677380029 8.02759501862003 L6.449547412379928 8.037206834620033 L6.451769498379946 8.044364019620073 L6.456110319380031 8.049247442620011 L6.463448372379929 8.051831264620017 L6.463448372379929 8.058032436619992 L6.448048795379947 8.057153936619965 L6.435284716379982 8.05394999862008 L6.424380989380012 8.052761440620056 L6.415079232379952 8.058032436619992 L6.41290882138 8.062244065619947 L6.411255175379921 8.069427090619993 L6.412185351379975 8.076145025620018 L6.423760872380029 8.082372035620008 L6.419420051379944 8.089219163620069 L6.412081998379932 8.095213629620002 L6.408102913379963 8.095885423619986 L6.3978193033799755 8.11539327661998 L6.372394498379975 8.125676886620067 L6.318598768379985 8.132861933620017 L6.312036425379944 8.133738410619966 L6.298755582379982 8.13735576062005 L6.285061328379953 8.13637390762008 L6.275346158380017 8.133970954620022 L6.214574674379975 8.097487392620021 L6.208683560379967 8.09138957361996 L6.199381803379964 8.108365281619978 L6.189253222380017 8.160455124620025 L6.182535286379988 8.18195252061997 L6.1677558273799775 8.202958990620072 L6.151839485379952 8.212183234620067 L6.1327192053800275 8.214301967620056 L6.097630908380012 8.212338262620019 L6.073601366379961 8.208204148619995 L6.058046760379938 8.209134324620049 L6.04724638638001 8.208410854619967 L6.042130419380015 8.208927619619995 L6.039184863380029 8.213010056620003 L6.036704394379939 8.228745530619985 L6.034017220379923 8.233422247619952 L6.016757291379946 8.234197394619965 L5.972728971379951 8.219443773619954 L5.952575162379986 8.216007290620023 L5.948027636379976 8.226988532620009 L5.946425666379952 8.23848653762003 L5.947769254380006 8.249829515620004 L5.952575162379986 8.260552374620016 L5.972005501379982 8.275900274619996 L5.983115934379924 8.291868292620034 L5.986578254380021 8.311091925619959 L5.982650846379983 8.33592245062 L5.991074104379976 8.356076259619979 L6.004871711379934 8.36881450062003 L6.039184863380029 8.390001837620002 L6.054791145379994 8.407339280620004 L6.080319303379923 8.466689662620023 L6.093858528379968 8.481546637620067 L6.109878222379933 8.494853318619985 L6.1231590653799515 8.50945191062004 L6.128068327379964 8.528287969619978 L6.120678596379975 8.546839809620007 L6.105020637380022 8.559836431620038 L6.087088915379951 8.571489467620008 L6.072671191379953 8.585674648620053 L6.060578906379959 8.600893357619992 L6.062439257379964 8.647841396620048 L6.04776315037995 8.665308030619993 L6.027816047379957 8.666393235619989 L5.976036263379996 8.653551641620009 L5.952575162379986 8.652569789620028 L5.927770474379969 8.66225912062006 L5.903172493379969 8.664739589620037 L5.878264452380023 8.65923604961996 L5.874180299379958 8.65705122562002 L5.851651090379988 8.644999192620073 L5.765713183380029 8.571696173619966 L5.74876331338001 8.547149868619993 L5.73749785137997 8.519373785620044 L5.722615038379928 8.494904995620086 L5.694606412380011 8.48030640362003 L5.683754361379982 8.479841315620003 L5.66225696538001 8.48299357762006 L5.647942594379941 8.481443284620038 L5.631871223379989 8.474802863620038 L5.621742643380031 8.468394985619991 L5.611510709379928 8.467826544620035 L5.595852750379976 8.478859463620037 L5.588463020379976 8.46110860862002 L5.5731667963799225 8.445502326620069 L5.555131721379922 8.437828375619997 L5.539990527380013 8.443693650620073 L5.534151090379936 8.43576131862002 L5.527536506380017 8.428733323620019 L5.519836718379935 8.422661342619971 L5.5117751943800215 8.417519537619977 L5.483869921380034 8.436794847620003 L5.469090462380024 8.444933885620014 L5.45245065038003 8.449326381620008 L5.428679492379928 8.464700120619991 L5.400774218379951 8.473976040620013 L5.371060269379967 8.478110154620037 L5.342689908379981 8.477800095619951 L5.326463509379977 8.475784715620005 L5.316386604380028 8.471857306620034 L5.308066699379964 8.46428670961998 L5.282538541379921 8.429456793620016 L5.275200487380033 8.425012620620006 L5.260782763379922 8.420594285620009 L5.253909798379965 8.417028611620037 L5.235512987379963 8.39940694862005 L5.17603341437993 8.311557013619986 L5.166576627379953 8.290834763619952 L5.162855924380011 8.26768372261996 L5.162907601379942 8.236109422619986 L5.176808561379943 8.236626186620025 L5.229053434380006 8.224663092619974 L5.247191861379946 8.217480068620016 L5.254323209379976 8.209754441620017 L5.266312141379927 8.188567104619974 L5.273340136380028 8.182779344619998 L5.283262011379946 8.183657843620022 L5.300831998380005 8.195465908620033 L5.313699430380012 8.196137702620018 L5.31943551437999 8.19174520562002 L5.338245735379957 8.173580938619988 L5.346255582379939 8.167302252620072 L5.3578311033799935 8.163607387620072 L5.384289436379987 8.158801479619978 L5.394573046379975 8.153685512619983 L5.398913867379946 8.146631679620068 L5.4074921543799235 8.123687344620034 L5.412453092379934 8.113920497619983 L5.4189643233799245 8.106504930619973 L5.442270393380028 8.085886033620053 L5.474051399379988 8.044725755620075 L5.486143684379982 8.017802333619965 L5.488727506379945 7.988269253620043 L5.474361457379956 7.92196839062002 L5.475963427379924 7.891427618620025 L5.483714892379993 7.845487270620037 L5.480149218379921 7.8359012916200435 L5.469297167380006 7.818047084619987 L5.467746874379969 7.795516160619979 L5.472449429379964 7.77285604462001 L5.480149218379921 7.754510910620024 L5.484800097379974 7.751436163619996 L5.498649381379977 7.748387254619967 L5.5029902013799585 7.744614874620037 L5.5026801433799335 7.739318040620002 L5.495548795380017 7.725313727620087 L5.494463590379922 7.710172532620074 L5.4963756183800285 7.704178066620042 L5.500509732379982 7.703144537619973 L5.516219368379922 7.703816331620043 L5.521645393379998 7.701749273619992 L5.52924182937997 7.679554246620054 L5.512757047380006 7.647824916620035 L5.522523892379951 7.628756313620055 L5.562159716380023 7.60426168462001 L5.57166818037993 7.591058355620017 L5.545054817379963 7.585916551620013 L5.5449514643799205 7.585916551620013 L5.544744759379995 7.585916551620013 L5.532135709379958 7.576511440620063 L5.5028868483800295 7.535893764620024 L5.501439908379922 7.531811326620012 L5.501749967379993 7.52067505562 L5.499476204379988 7.515714117619947 L5.495135384380006 7.514706427619981 L5.482164599379956 7.516954352619987 L5.4768936033799775 7.515714117619947 L5.45245065038003 7.49121948961999 L5.430539843379933 7.487085374620062 L5.422219938379925 7.470497239620055 L5.422374967380023 7.448043830619962 L5.426302376379994 7.426546434620018 L5.433020312380023 7.4063151106200245 L5.4417019523799866 7.392414150620038 L5.482526334379969 7.350788784620033 L5.510173226379976 7.328955491620004 L5.538853645379987 7.310920416620004 L5.542574348379986 7.309318447620054 L5.54340117237993 7.282395026619962 L5.540093880379942 7.260949306620017 L5.53663155937997 7.256711839620063 L5.517149544379976 7.260329189620048 L5.497977588379996 7.260794277620075 L5.477617073379946 7.257176927620005 L5.4619074383799955 7.2473325666200274 L5.456068000379986 7.229039109620043 L5.464852995379971 7.206947434620044 L5.484800097379974 7.194260871619999 L5.531412239379989 7.179817307620066 L5.566965624379947 7.158061530620056 L5.5708431713799484 7.154303583619988 L5.582881965379926 7.142636114619972 L5.588979785380019 7.1246785546201 L5.590633430379938 7.082381394620011 L5.594870897379934 7.0605739406200705 L5.619468880379969 6.998536383620017 L5.629597460379927 6.9472475246199785 L5.619520556380024 6.899860235620007 L5.591511930379994 6.860379441619994 L5.547121875379929 6.832474168620006 L5.5040237303799415 6.818366502620062 L5.482009570380029 6.815679328620046 L5.4409784833800074 6.819038295620043 L5.4265607583799635 6.816971238620095 L5.414261767379941 6.810201625620049 L5.401601041380019 6.797954311620014 L5.390645637380004 6.782089646620005 L5.351164843379962 6.699717413620032 L5.339227587379952 6.662458705620008 L5.341087938379957 6.627060349620006 L5.3651174803800075 6.601067104620039 L5.385994758379951 6.592953904620014 L5.396743456379994 6.58711446862004 L5.402531217379959 6.5797247376200225 L5.40183153937997 6.576809413620037 L5.400670865379965 6.57197327262001 L5.393074430379983 6.566650600620061 L5.3835142903799635 6.563033250619991 L5.267138965379985 6.534456182620016 L5.226004525379977 6.5326991846200535 L5.215824267379929 6.531045539619992 L5.085578706380005 6.485996599620062 L5.05790109038 6.476423549620062 L5.036713753379928 6.460662237620067 L5.021055794379976 6.4404050766200776 L5.011185595379942 6.4165822416200164 L5.00746489238 6.390382290620078 L5.008343391379952 6.345837205620068 L5.004984423380023 6.324184780619998 L4.994080696379996 6.305116176620015 L4.986019172379969 6.298294888620045 L4.9666279883799405 6.28788638462002 L4.957907193379953 6.28320536962006 L4.950104052379942 6.277520961620024 L4.930673714379935 6.2574188296199615 L4.922663867379953 6.251010952620003 L4.8958954753800015 6.236283168620002 L4.886645394379997 6.228480027619991 L4.880185839379948 6.219384975620027 L4.875638313379994 6.20910136562004 L4.866336555379945 6.177940476620062 L4.858068326379936 6.160008754619991 L4.847526334379978 6.143420620619974 L4.834090461379986 6.127762660620032 L4.817450651379971 6.114120083620019 L4.761330045379935 6.08476786862003 L4.743760058379934 6.070505174620063 L4.73311471337999 6.05293518762009 L4.7281020993799245 6.032522996620042 L4.72701689438 6.009940395620003 L4.731616096379952 5.967048956620044 L4.74231311837994 5.925087693620053 L4.7561624023799425 5.887828986620047 L4.757609342379936 5.8769769356199895 L4.756937548380023 5.866021531620003 L4.735388476379995 5.7833909166200606 L4.73492338837994 5.771970425620065 L4.736509750379952 5.762955244620013 L4.737042122380018 5.759929815619994 L4.743811734379989 5.73719218562 L4.745672086379983 5.725720018620091 L4.745000293380002 5.71367940862002 L4.741486295379929 5.7027756826200395 L4.731616096379952 5.682001755620018 L4.728257129379955 5.671046352620021 L4.724940095379935 5.638318286619988 L4.71895537038003 5.579269008620013 L4.723916308379984 5.557048142620044 L4.788511849380001 5.410183722620058 L4.793059374379965 5.387807827619991 L4.796935107379994 5.341609096620015 L4.795023079380002 5.2817677876200655 L4.79858875337996 5.23293355962009 L4.7979169593799895 5.220789597619994 L4.795023079380002 5.209059047620013 L4.771303596380022 5.158364467620043 L4.767531217380025 5.1528867656200354 L4.760244840379954 5.146582241620035 L4.743243294379937 5.137435512620055 L4.735388476379995 5.131906134620049 L4.728257129379955 5.12368958162001 L4.7128575523799725 5.094957485620096 L4.693117155380008 5.066587124619996 L4.68123157537994 5.054546515620029 L4.6336892573799275 5.025762742620014 L4.614982389379946 5.019406541619997 L4.4597980633800205 4.941426805619994 L4.430600878379977 4.915898647620065 L4.400886930379983 4.882050584620043 L4.396442757379958 4.874247442620042 L4.3902415853799255 4.854455369620052 L4.387502734379979 4.848150844620033 L4.383471972379965 4.841897996620059 L4.368899218379994 4.824689743619967 L4.346368294379971 4.781281540620068 L4.331227099379959 4.762522995619985 L4.26616647038 4.725109259620023 L4.2605813083800115 4.720361870620064 L4.25686471337994 4.717202764620065 L4.248906542380013 4.707849330620018 L4.242912076379952 4.697203985620046 L4.2337136723799915 4.666869920620098 L4.189478645379978 4.573232224620039 L4.181928570379995 4.563206214620049 L4.176714567380003 4.556282355620038 L4.1142894363799485 4.502177130620037 L4.100956917379989 4.4865708486200155 L4.0895364253799755 4.467295538620061 L4.047006721380029 4.36644898062006 L3.9972423173799427 4.2827331606200225 L3.978638801379958 4.263406175620059 L3.9540408203799586 4.251184698620033 L3.929856250380027 4.248859258620012 L3.9078937663799422 4.254259446620079 L3.8886184563799304 4.266532599620017 L3.872288704379997 4.284593512620017 L3.8681029133799427 4.290691330619989 L3.8645372393799846 4.294851284620005 L3.8598863603799884 4.297435105620007 L3.85254830637993 4.298623663620031 L3.836373584380027 4.295368048620059 L3.8275885903800315 4.2854978496199685 L3.8208189773799575 4.272733770620004 L3.8106903973799433 4.261184088620052 L3.7958592603800128 4.251494757620019 L3.779994595379975 4.2435882636200795 L3.7631997553799295 4.2379555326200595 L3.745784798380015 4.235165005620086 L3.6877004883799316 4.232141933620067 L3.6741612633799434 4.228627935620022 L3.617213834379953 4.203900763620009 L3.6085321933800003 4.198629767620059 L3.599953906379966 4.191085007620028 L3.5857428873800075 4.181447353620097 L3.527400195379954 4.166435350620031 L3.5017686853799717 4.164161587619997 L3.476343879379982 4.158115444620062 L3.4677139163799495 4.157417812620064 L3.453399543379959 4.159691575620069 L3.4485419593799236 4.159872443620042 L3.4301451493800243 4.156539312620037 L3.375368131379929 4.140442103620057 L3.3652395503799255 4.140390428620048 L3.285451139379944 4.156177577620024 L3.2611632153799235 4.166280320620086 L3.239355761379926 4.18165405962004 L3.22266427437998 4.201782029620016 L3.2125873693800315 4.226069952620019 L3.2122773103799602 4.232581182619992 L3.213930957379972 4.236586106620063 L3.2166181313799314 4.240280971620091 L3.2187885413800075 4.245862026619999 L3.2272634763799317 4.249220994620014 L3.269018034379968 4.276712856619991 L3.275115853380015 4.284955247620029 L3.2739789713799325 4.294076137619992 L3.264935595379967 4.301517544620037 L3.2521198403799474 4.305780849619975 L3.215326221379968 4.311852830620023 L3.1935187653799346 4.319552618620019 L3.1638048173799973 4.324100144620058 L3.1553298823799594 4.326994024620046 L3.14680327137998 4.332084153620041 L3.1358995443800097 4.344822393619989 L3.1294916663799484 4.360351161620013 L3.1237039063799728 4.393837490620097 L3.1171926753799255 4.415128180620098 L3.105255419379972 4.429985154620038 L3.0886672853799553 4.440036220620055 L3.0676866533799796 4.44706421562007 L3.0680034803799856 4.4466272126200685 L3.068686507380022 4.445685105619997 L3.0691852693799717 4.444997157620019 L3.0713556803799804 4.440656338620027 L3.0707323083799736 4.440968024620059 L3.0663023303800117 4.4431830136200965 L3.0585399243799714 4.44706421562007 L3.0499099603799493 4.456288458619991 L3.044949023379985 4.469595140619997 L3.043398729379959 4.487811082620038 L3.0516669593800145 4.546334641620046 L3.0468093743799898 4.556075649619981 L3.036887499379958 4.562586879620067 L3.027999153379966 4.576849575620042 L3.0165269853799543 4.591163946620025 L2.9990603513799954 4.5976235006200845 L2.982420540379991 4.593282680619989 L2.9515180333799833 4.574110724619981 L2.9335346343799245 4.569718227620097 L2.917204882379991 4.572922166620071 L2.83131865238002 4.609819138620008 L2.816642545379949 4.618087367620046 L2.8104930503799608 4.628732713620035 L2.7526671213799716 4.659118455620085 L2.715976855379921 4.69141622562007 L2.700783983379978 4.700046189620007 L2.6653339513799494 4.708314418620045 L2.651588021379922 4.716479295620058 L2.646213671380025 4.7317755186200365 L2.651949755380002 4.750068976619996 L2.6615098953799645 4.764486700620022 L2.6615098953799645 4.771773078619997 L2.6393923823800094 4.768982550620034 L2.588026009379945 4.744849656620072 L2.5738666663799847 4.741025600620031 L2.574176724379953 4.7317755186200365 L2.590919889379933 4.666559861619998 L2.578207487379956 4.626665655620069 L2.5461164223799244 4.611007697620021 L2.4606436033800207 4.610697637620017 L2.424108365379965 4.60408305462003 L2.3908287433799558 4.587649949619969 L2.3637502933799794 4.565790818620041 L2.3449917483800107 4.543053188620046 L2.315122770379986 4.544810186620037 L2.28530546837996 4.530392462620011 L2.2351793293799744 4.487811082620038 L2.2117182293799544 4.457683722620043 L2.204173469379924 4.453652960620058 L2.200401090379927 4.450242316620045 L2.1701703773800034 4.429778448620066 L2.160713590380027 4.412621873620008 L2.156992887380028 4.395878709620046 L2.1505333333799683 4.381564337620073 L2.1321365233799554 4.371745815619999 L2.085984885379986 4.369473196620088 L2.0571023433799667 4.368050950619999 L2.0498676423800077 4.373347784620034 L2.0341266653799437 4.38950530562003 L1.8829010903799315 4.544732672620096 L1.8623855463799543 4.551011358620013 L1.8237832513799788 4.52972066962003 L1.7846641923799496 4.519462897620041 L1.7752590823800176 4.508274949619999 L1.7690062333799972 4.508274949619999 L1.7525214513800336 4.523286953619998 L1.74435657538001 4.541528733620037 L1.7355199053800163 4.584032598619995 L1.7111803063799869 4.649816697620064 L1.707666308380027 4.669660447620043 L1.6148037593800098 4.687023728620073 L1.5984740073799628 4.697203985620046 L1.5897406903800118 4.7163242656200275 L1.5789919923799687 4.727486374619968 L1.556151008379942 4.713740444620026 L1.556151008379942 4.728933315620065 L1.5536705403800113 4.742059128620024 L1.5491230133799547 4.752962856620069 L1.5426117833799537 4.761541144620008 L1.5241045433799911 4.7681782236200085 L1.5126394533799328 4.772289842620022 L1.534860318379998 4.789704799620051 L1.515119921380034 4.8027272606200135 L1.481323535380028 4.81647319162003 L1.4615831383799502 4.836058559620067 L1.4576040523799918 4.843861700620078 L1.4527981443799547 4.8512514306199925 L1.4490257653799574 4.85926127762006 L1.4469070303800038 4.861483364620067 L1.4377086263799868 4.842363084620057 L1.4359516273799215 4.836058559620067 L1.4346597163799686 4.831666062620069 L1.4320758953799384 4.83083923962003 L1.4284068683799376 4.83259623862001 L1.4238593423799273 4.836058559620067 L1.410630175380021 4.84825419761999 L1.3955923333799376 4.849494431620013 L1.3804511383799252 4.848099167620045 L1.3666018553799688 4.852543341620031 L1.360504036379922 4.861121628620065 L1.3669635903799815 4.864067185620069 L1.377350553379955 4.864687303620041 L1.3826215493799339 4.866289271619973 L1.3816913733799367 4.872387091620038 L1.3801927573799446 4.875177618620096 L1.3623643873799267 4.896933396620096 L1.3560598633800112 4.8992071596200155 L1.3484634273799259 4.89869039561999 L1.335906054379933 4.90282450962 L1.2256285483799445 4.989692592620013 L1.2072317383799316 5.0133603986200335 L1.1871296063800116 5.050567429620042 L1.1807734053799948 5.0586806306200565 L1.168887825379926 5.063124802620063 L1.1555553063800232 5.065450242620084 L1.1453233713799307 5.07123800262006 L1.1428429033799432 5.086069138620001 L1.1257896803799383 5.109375209620037 L1.120415332379963 5.114697882619975 L1.110906868379999 5.120175584620068 L1.1074962233799681 5.1206923486200076 L1.103258755379926 5.117901821620034 L1.0746300133800162 5.106584682620063 L1.0447610353799348 5.089634813620062 L1.0279145183799585 5.086120815620017 L1.0140652333799665 5.069222621620025 L0.9976321283799336 5.0552183086200095 L0.9794420243799493 5.043642788620058 L0.9601150393799287 5.034237677620023 L0.9163380773799474 5.026363509619966 L0.8805333333799865 5.019923305620022 L0.8646169923799505 5.008089402619998 L0.8642552573799946 4.985971889619986 L0.8780528643800096 4.964887904619967 L0.9115391923799336 4.927319139619964 L0.9324164713799803 4.882050584620043 L0.9344774313799746 4.874318109620031 L0.9392894363799371 4.856264044620058 L0.9373257313800138 4.836058559620067 L0.9350002923800105 4.825929978620007 L0.9371707033799623 4.817713425619996 L0.9434752273799916 4.811253871620021 L0.9528803383799698 4.806344611619988 L0.9538105143800237 4.804225876620006 L0.9541205723799919 4.802055467620033 L0.9538105143800237 4.799936732620051 L0.9528803383799698 4.797869676620092 L0.9463174313799811 4.790841681619991 L0.9437852863799492 4.784227097620072 L0.9456456383800003 4.778025925620096 L0.9528803383799698 4.772599900620019 L0.9733958813800143 4.7641249656200095 L0.9788735843800112 4.751360886620045 L0.9757213213799503 4.717254441619996 L0.9794420243799493 4.69704895662009 L0.9868834303800043 4.686610317620062 L1.0184060543799376 4.669815477619988 L1.0447610353799348 4.647852993620017 L1.0605740233799281 4.623513393620026 L1.0734931313799336 4.597468472620033 L1.0909080893799512 4.570545050620023 L1.1040339033799285 4.5605198226200905 L1.1361249673800273 4.541399542619995 L1.1437730793799403 4.528428757619974 L1.1406724923799914 4.514398606620073 L1.1235675943799208 4.477114060620021 L1.1202086263799345 4.4578904276200255 L1.1242393883800048 4.439907029620013 L1.1391222003799442 4.40233826362002 L1.1413959633799493 4.386551112620037 L1.1378819653799326 4.3777919586200476 L1.1313707353799316 4.372779343620078 L1.124136035379962 4.368851935620011 L1.1182449213799543 4.363141688620072 L1.1103384273800145 4.342987881620086 L1.1069794593800282 4.336114915620026 L1.1065660473800278 4.300897426620065 L1.1087364583799229 4.290691330619989 L1.114007453380026 4.2834566306200195 L1.1310090003800326 4.2654732316200175 L1.1340062333799494 4.258962001620045 L1.124136035379962 4.24560364362004 L1.06088408138001 4.217646694620026 L1.0526884643799974 4.21023677362005 L1.0296198403799224 4.189379686620054 L1.0156155273799925 4.171396287620052 L1.0088975903799735 4.154058844619964 L1.01422026337994 4.134008388620014 L1.043314095379941 4.105431321620056 L1.0505487953799673 4.0861818506200045 L1.052409146379972 4.076079108620075 L1.0564915853799732 4.071428229620022 L1.1206737133799436 4.037554328620001 L1.1339545573799512 4.025126146620021 L1.1377269373799948 4.014144904620036 L1.13674508438001 3.9918723616199934 L1.1394839353799568 3.9820538396200327 L1.1463569003800274 3.975490932620044 L1.1639268883799616 3.969315598620067 L1.1727118813799677 3.9650522936200154 L1.2005138013800263 3.9398083556200554 L1.2133295573799217 3.9234010896199827 L1.2187039053799538 3.908208217620068 L1.2133812333800336 3.892369391620047 L1.189868456380026 3.8699418196199638 L1.1844424313799493 3.8517775536200354 L1.1878013993799925 3.835525315620014 L1.2025808593799923 3.803305060620044 L1.2072317383799316 3.7862259996200116 L1.201909065380022 3.7263588526200344 L1.2035110353799325 3.707083543620012 L1.2115208823800288 3.689125983620027 L1.2358604813799445 3.6623575916200473 L1.2458857093799622 3.6473972636199896 L1.2556008783800223 3.614789435620036 L1.2625255213799562 3.6003717106200206 L1.3050035483800286 3.561304327620018 L1.296476936380003 3.5317195696199626 L1.2697602213799257 3.502858283620025 L1.2260419593799554 3.466064662620038 L1.2143114093799738 3.453739833620073 L1.2077485023799852 3.438262742620065 L1.2053713863799373 3.414698289620059 L1.2084719723800106 3.3560455386200196 L1.1881114583799501 3.272433071620025 L1.1878530753799907 3.266257737620048 L1.1895067213799564 3.2612192856200686 L1.189868456380026 3.255483201620006 L1.1863544593799986 3.247163296620055 L1.180566699380023 3.2431842106200683 L1.163616829380004 3.2398510806200527 L1.1570539223800154 3.2352260396199988 L1.1509561033799685 3.2054604156200064 L1.1563821293799208 3.164636033620024 L1.1714716463799562 3.1290568096199642 L1.1938992183799257 3.115491745620073 L1.216843554379949 3.1095489566200563 L1.230331103379939 3.087405605620045 L1.23555042237993 3.0590610826200297 L1.2334833653800104 3.0346956446200117 L1.2296593093799686 3.0215439926200354 L1.2248017243799438 3.0115704416200337 L1.216843554379949 3.003663947620094 L1.2036143883799753 2.996635952619993 L1.1865611653800272 2.9922951316199935 L1.17591582037997 2.9949823066200274 L1.1669241203800027 3.001105963619988 L1.1554519533799805 3.0071004296200208 L1.1312673823800026 3.0134824696200546 L1.103258755379926 3.0167380846200267 L1.0744233073799876 3.0145676736200464 L1.0468280923799682 3.004723313620058 L1.0029031243800262 2.978988450619976 L0.9811473473800163 2.971236985619992 L0.9528803383799698 2.9683689436200034 L0.8642552573799946 2.9694024726200716 L0.8584158193799851 2.9682655906200743 L0.8531965003799371 2.9689373846200446 L0.8436363603799748 2.974699306620021 L0.839812304379933 2.97924683262006 L0.8276166663800097 2.999323126620009 L0.7870506673799866 3.0453151516200982 L0.7412136713799384 3.086372076620062 L0.7316018553799211 3.099420376620099 L0.7241087733799816 3.096836554619994 L0.7167707183799905 3.0868113266199764 L0.7078306963799434 3.0771995096199696 L0.6933612953799582 3.069396368620044 L0.6118675613799667 3.039682420619993 L0.5856159343799447 3.040922654620015 L0.5645836263800277 3.0558829816199697 L0.5533575763799661 3.073502476620046 L0.5452566403800176 3.0862170476200212 L0.5278933583799983 3.0873022526200025 L0.4992129393799871 3.0792407286200323 L0.4704291663799438 3.067380987620009 L0.452859179379999 3.0568648336200503 L0.44056018838003297 3.044746710620057 L0.4375629553799456 3.030018927620045 L0.4375629553799456 3.0137925276200512 L0.43415231138001786 2.9971785546200174 L0.426090787379934 2.9840785786200676 L0.40567859637994275 2.960049038620024 L0.39746204437992105 2.9474916656200314 L0.39151925438002877 2.9302834136200424 L0.3890904613799364 2.8975980696199706 L0.38583484637999277 2.881914272620019 L0.3790652343800218 2.8702095606200366 L0.36864785637996533 2.857462831619994 L0.36242542238002784 2.8498490456199868 L0.35777454337997483 2.8361806296200704 L0.36211536437994596 2.8179905256200293 L0.38625820438002734 2.787592800619972 L0.39911568938001096 2.7714042216200703 L0.4100194173799707 2.7435764636200126 L0.4170474123799579 2.7346364406200045 L0.4248505533799687 2.729727179620067 L0.4442292143799307 2.7220790676199833 L0.452859179379999 2.716498012620047 L0.4625743483799454 2.7011501126199953 L0.4665534343800175 2.6848720366200602 L0.4712559893800119 2.6501971506200555 L0.49714588138002114 2.5863509176200914 L0.5219505693799817 2.515269985620005 L0.5291852703799407 2.4753241036200215 L0.5272732423800051 2.4238285386200396 L0.5251028313799395 2.4139325016200637 L0.5205553053799861 2.415121059620059 L0.5152843093799504 2.428376064619993 L0.5078429033799523 2.432122605619991 L0.49140979837997634 2.4265673896200717 L0.47497669238001095 2.416981411620082 L0.467535286379956 2.4085064766200723 L0.46422799437996787 2.4030804516199957 L0.44738147837992415 2.396129970620006 L0.43963001237992216 2.391143194620053 L0.43590930937997996 2.3854587876200064 L0.430741666379987 2.3716095036200606 L0.4259357583799499 2.3638063626200214 L0.4002008953799816 2.3316636206200023 L0.34299508438002135 2.2128853416200336 L0.32294462837998594 2.1918788716200304 L0.2851174803800234 2.1821637026199987 L0.24884062437993748 2.1900185196200077 L0.21897164638002664 2.2090354476199927 L0.19928292637999334 2.2328582836200432 L0.18775908137993724 2.268850917620039 L0.18579537737994656 2.2707112696200333 L0.18031767537993915 2.271538092620073 L0.15809681037998757 2.2793670716199976 L0.15499622337998176 2.281227423619992 L0.14569446537993258 2.2892372706200597 L0.14631458338001835 2.3282271386200755 L0.13112171137996143 2.342696539620004 L0.11324166637993471 2.342748215620002 L0.09520659137993448 2.3338340316199826 L0.08156401338001729 2.31825358761996 L0.07587960637997071 2.2986165436200103 L0.07789498638001646 2.26404501062002 L0.0762413413799834 2.2469142726199713 L0.07567290037999896 2.2334783996200365 L0.07841175137994583 2.2196291166199664 L0.08972888937992707 2.207020066620043 L0.09954741237996245 2.1930674306200437 L0.10383655637994593 2.1754457666200544 L0.10600696538003263 2.1540000466200233 L0.11525704737996989 2.122632453619996 L0.12786609637996094 2.0337489896200616 L0.13866647137993482 1.999177456620071 L0.1515339033799421 1.9727707986200862 L0.1515339033799421 1.9597483386200558 L0.15876860337996845 1.9436769676200747 L0.1809377933800249 1.9139113426200929 L0.18579537737994656 1.9010955876200164 L0.18992949237994594 1.8844557766199834 L0.20021310237993362 1.8722601376200707 L0.22734322838002186 1.8498842426200035 L0.25312976837992096 1.8198602356200517 L0.268787727379987 1.8068377746200035 L0.30826852137997207 1.7958306956200083 L0.3205675123799381 1.7823431466200468 L0.3297142413799463 1.7665301576200356 L0.34340849538003226 1.753662726619961 L0.3622703933799869 1.7501487296199905 L0.4494485343799681 1.7635846016200496 L0.4919782383800282 1.7748500636200042 L0.5152843093799504 1.7741782696200339 L0.5476337563799518 1.7640496896200766 L0.5775027333799301 1.748391729620021 L0.5863754433799215 1.7419689476200055 L0.6052013013799922 1.7283412746200604 L0.6307294593799213 1.7052419096199962 L0.6307294593799213 1.6990924136200185 L0.6016873043800217 1.693304653620043 L0.5128038413799629 1.7079290836200407 L0.49430367738003156 1.6953717106200195 L0.49642241237992835 1.6755279606200126 L0.505672493379933 1.6349102846200871 L0.5078429033799523 1.6134128886200578 L0.5118736653800227 1.6084002756200668 L0.5305805343799932 1.5965146956200549 L0.5358515293799258 1.589848435620052 L0.5343529133799336 1.581993617620025 L0.5220539223799676 1.5544500796200218 L0.5404507323799805 1.5467502916200253 L0.5853575513799854 1.5379136216200315 L0.604116096380011 1.5277333636200687 L0.6161567053799502 1.5121787586200348 L0.6679881673799457 1.4225201486200767 L0.6996658203800337 1.3011838846200128 L0.701164436379969 1.2891432766200346 L0.7005959963799739 1.2781878726200482 L0.7040066403800154 1.270178025620094 L0.7169774253799517 1.2670774396200493 L0.7263308593799991 1.2675942046199786 L0.7352708823799219 1.2694028796200705 L0.7435907873799863 1.272658494620071 L0.7511872233799579 1.2776194326200248 L0.770565885380023 1.2844923976200668 L0.7932001623799749 1.2816501936200204 L0.8299421053799563 1.2670774396200493 L0.8410525383799552 1.2585508286200415 L0.8746422203799682 1.2260980296201005 L0.888543180379969 1.221757208620044 L0.9820258463799689 1.1758685366200545 L1.121758919380028 1.0684332336200661 L1.135711555380027 1.0621803856199783 L1.1397423173799268 1.0471425446200833 L1.1376235833799626 1.029159145619996 L1.1531265133799309 1.030192674619979 L1.165167122379927 1.046522426620026 L1.1663556793799614 1.0759779936200111 L1.1468736653799567 1.157316697620029 L1.1500259273800282 1.1784523586199604 L1.1577257163799288 1.1836716786200832 L1.1865611653800272 1.1983477846199655 L1.2050613283799692 1.210956834620088 L1.2094021473799614 1.2100783346200608 L1.2117275873799542 1.2101300116200768 L1.2133812333800336 1.2181915356199617 L1.2014439773799666 1.2467686026200333 L1.1860444003799273 1.2670257636200226 L1.1881114583799501 1.273175258620011 L1.196999804379999 1.2819085756200757 L1.1989635093799222 1.2855776026200765 L1.1976715973799799 1.2993752096200346 L1.1875946933800208 1.3363238596200624 L1.1989635093799222 1.348157762619973 L1.2133812333800336 1.3755979476200189 L1.222941373379939 1.388982143619966 L1.238340949379932 1.4023663396199986 L1.2538955563799448 1.4077406886200485 L1.2713105143799623 1.40577698362004 L1.292497851380034 1.3970953436200766 L1.3408669923799437 1.3660378076200281 L1.3600906243799784 1.3593715486200146 L1.4737270993799427 1.3390110336199932 L1.4962063473799674 1.3392177396200502 L1.5177037433799399 1.3429901196200653 L1.5515001293800026 1.3536871406199786 L1.5582697423800198 1.35425558162002 L1.5625588863800033 1.3574595206199938 L1.5667963543799317 1.368518276620005 L1.565246061379952 1.3776133286200825 L1.5595616533799728 1.387121791620057 L1.5558409503799737 1.3966819326200657 L1.5603884763799272 1.4061903956200403 L1.5751162593799393 1.4084641586199602 L1.614545377379926 1.392392788619997 L1.6337173333800195 1.3926511696200627 L1.6487551753799323 1.404795131620073 L1.6668936033800321 1.4360076976200382 L1.6828616203800095 1.4467563956199676 L1.6965041983799836 1.447376511620046 L1.7160895663800204 1.4442759266199907 L1.7345897303799518 1.43859151862004 L1.7453384273799486 1.43120178862004 L1.7470530473799215 1.421400303620043 L1.7488007483799208 1.41140971462006 L1.7421861643800014 1.3971986966200056 L1.738672167379974 1.385881557620035 L1.7521597163800209 1.3744610656200216 L1.7746389643799318 1.3789052396200354 L1.7838373693799383 1.3773549466199988 L1.7918988933800222 1.3722906556200307 L1.7978933593800264 1.3658827786200725 L1.800090032379984 1.3607787426200098 L1.8014073563799968 1.3577179016200596 L1.802337532379937 1.34738261561996 L1.7988235343799772 1.3345668606200825 L1.7908653643799255 1.323714809620025 L1.7797549313799266 1.314774786620017 L1.7671458823799924 1.3076434386200724 L1.7151077143799682 1.2895566876199602 L1.7011034013799247 1.2776194326200248 L1.6937136713799248 1.2607212386200324 L1.6941787593799802 1.243668015619999 L1.7041523113799997 1.206460984620076 L1.7082864253800096 1.1076039696200262 L1.7228591793799808 1.0862616036200272 L1.7268382643799498 1.0673480286199712 L1.7133507153799599 1.0274538236200321 L1.7147976563799432 1.0109690416200685 L1.7295254393799553 1.002184047620073 L1.7512812173799546 0.9993418446201012 L1.772158495379955 0.9936057596200492 L1.7847675453799923 0.975880743620035 L1.7824421053799426 0.9559336416200033 L1.7681277343799309 0.947820440620017 L1.7494208653799603 0.9430145326200936 L1.734538053380021 0.9331960106200192 L1.730920703379951 0.9227056946200598 L1.7342279943799497 0.9018284166200026 L1.7334011713799384 0.8920615706200401 L1.7277167633799593 0.8837933416200023 L1.711387011380026 0.8704091456200551 L1.707149543379984 0.8643113266200082 L1.706581103379932 0.8491701316199958 L1.710250130379933 0.8313417626200525 L1.730145556379938 0.7754795396200613 L1.7296804683799962 0.7657126936200136 L1.704772427379936 0.7445770326200822 L1.6998631673800162 0.73749736162004 L1.6873057943799665 0.7122792626200116 L1.664464811379986 0.6832371076200268 L1.6616742843799273 0.6747104966199906 L1.6610541663799552 0.6670107076200047 L1.659193814379961 0.6592075666199939 L1.652269173379949 0.6504742496200997 L1.6167157873800022 0.6409657866200398 L1.5949083333800047 0.6282017076199615 L1.585399869379927 0.614249070619973 L1.5789919923799687 0.5743548646200161 L1.5707754393799576 0.5537359676200246 L1.5435419593799509 0.5123431466199797 L1.534033496380033 0.49151754362001654 L1.5336200843800327 0.46945170762002064 L1.5404413733799913 0.4517783676200331 L1.545557340379986 0.43250305862006755 L1.5401313153800231 0.40573466662000257 L1.5276256183800285 0.388319708619985 L1.49682646437995 0.35364482262006547 L1.4943459963799626 0.33648824661998944 L1.5103140133799968 0.31845317262000705 L1.5192540353799302 0.31039164862000845 L1.5295893223799624 0.30517232861999943 L1.5423017253799856 0.3050689756200704 L1.5543423333799922 0.3087380026200428 L1.5665896483800168 0.31049500162002275 L1.57981881537998 0.3048622706200028 L1.5847280753800135 0.2970074536200791 L1.5984740073799628 0.255407925620073 L1.6011095043799912 0.23949158362004752 L1.6022980633800046 0.23520243961997878 L1.6197130203800327 0.21856262862005948 L1.6222968423799387 0.21716736461997854 L1.6243122233799738 0.19732361462000014 L1.6227619303799372 0.17784160061999543 L1.6236921063799343 0.15763611562000435 L1.6331488933799676 0.13572530762005997 L1.6472565593799402 0.11955058362006454 L1.6677204263799865 0.10296244962004764 L1.6917499663800015 0.0903017236200121 L1.720378710380004 0.08580587362000003 L1.7292153803799977 0.08580587362000003 L1.7336595543800115 0.08632263762002523 L1.7634768553799915 0.10962870962005056 L1.7963947423799311 0.17551616062005948 L1.8211994293799592 0.19851217262002407 L1.8465208813799734 0.20300802262003614 L1.8558743163800102 0.18998556162007318 L1.8601117833799492 0.1696767236200678 L1.8702403643800096 0.15215841362002536 L1.8879653803799386 0.145957241620021 L1.9314769363799371 0.1449753896199688 L1.9528193033799255 0.1367071606200163 L1.9735932283799968 0.13443339661999332 L1.9931785963799769 0.13577698461996235 L2.054518521379947 0.14941956162006065 L2.064130338379954 0.1527268536200772 L2.073948860379943 0.15872131961999614 L2.0785480633799978 0.16698954962005175 L2.0792198563799786 0.17608460062002607 L2.085945132379976 0.18430115462005503 L2.097254931379979 0.18430115462005503 Z" fill="black" stroke="black" stroke-width="0.5" vector-effect="non-scaling-stroke"/></svg>