<svg xmlns="http://www.w3.org/2000/svg" viewBox="0 0 7.393650300299996 2.4563105346600196"><path d="M6.456823526650062 0.5716191148299572 L6.632058308649967 0.570740615830033 L6.626683959650002 0.6071983378300274 L6.629526163649992 0.6308403058300485 L6.618725788649961 0.6513300118300265 L6.61521179164999 0.6688224838299845 L6.640171508649992 0.6835244288299691 L6.744712930649975 0.7102153068300083 L6.798297635649995 0.7428446378300748 L6.811840616650024 0.7510913638300281 L6.91302307065002 0.7852753238300068 L6.9316265866500615 0.7942670228299562 L6.9441839596499975 0.8085813958300321 L6.950023396649961 0.8319133038300777 L6.945062458650007 0.8880080718300292 L6.937827757650048 0.9187297098299894 L6.928215942649963 0.9401495918299929 L6.897933552650024 0.9558333888300581 L6.804864298650024 0.9804313698300291 L6.786105753650027 0.9955208888300433 L6.799955036649983 1.0137626688299974 L6.825948282649968 1.0212299138300125 L6.849357706650018 1.031229303830031 L6.854628701650036 1.0568608138300135 L6.849667764650015 1.0677645418300585 L6.833441365649982 1.0893652898300275 L6.827240193650006 1.1004240468300281 L6.824656371650015 1.1105526268299855 L6.822434284650008 1.1304997298300066 L6.819023639649977 1.141816868830091 L6.752619425650018 1.2199516338300214 L6.732258910649996 1.255065769830054 L6.748268181649998 1.2574482518299988 L6.7650734456500246 1.259949192830078 L6.847962442650022 1.234421034830035 L6.890285440650025 1.2279614818299933 L6.934727172650021 1.2349377998299929 L6.956121215650036 1.2449113518300123 L6.9953953036499925 1.2695093328299834 L7.01740946364999 1.279069472829974 L7.02278381265004 1.2933321678300445 L7.003973591650016 1.316173150829968 L6.97999572665001 1.33978928082999 L6.969350382650028 1.3565324448300373 L6.986506957649972 1.3737406968299979 L7.084898884650023 1.4122138008300453 L7.095234170650009 1.42924118483009 L7.096060994650038 1.4742255188299964 L7.101331989649971 1.4953870188300584 L7.114871214650044 1.5116650948300787 L7.13254455565005 1.5224654688300063 L7.212539672650003 1.5440403788300614 L7.230006306649962 1.551455947829993 L7.236104125650009 1.5632381738300012 L7.229127807650009 1.572074843829995 L7.2031345626500425 1.5858207748300401 L7.19714009565002 1.5976288388300475 L7.200344034649994 1.6072664938300534 L7.20840555765006 1.6161548408300632 L7.2603920486500115 1.6530001368299736 L7.268143513649996 1.6612683658300398 L7.27176086364998 1.6720945788299844 L7.268143513649996 1.7064077298300901 L7.2710373936499835 1.729352065830028 L7.278323770650054 1.7495833888300183 L7.31868306365002 1.8178479558299898 L7.321163532649997 1.8284933008299618 L7.319199828649978 1.8432210838300591 L7.313308715649988 1.8510759018300007 L7.30524719164999 1.8575354558300603 L7.297030639649968 1.8681808008300322 L7.288297321649971 1.8916935778300399 L7.282509561649995 1.915309706830044 L7.273001097650031 1.937478896830072 L7.25279561265004 1.9568058818300358 L7.214865111650035 1.9424139958300088 L7.172128702650021 1.9516382388300144 L7.154988953650026 1.958553927830053 L7.12768697064994 1.9695699608300004 L7.084898884650023 1.981197157830053 L7.0435577386500725 1.9861580958300067 L7.030948689649968 1.9898529608300066 L7.015342406650014 1.9989738508300832 L7.005420532650028 2.009877578830043 L6.996635537650043 2.022124892830078 L6.984543252650049 2.0353540588299666 L6.916433715650051 2.0647062738300406 L6.885117797650032 2.0828447008300657 L6.88088032964999 2.1068225648300825 L6.848324177650035 2.1394820708299562 L6.748898721650029 2.1763790438299964 L6.72104512465004 2.2206657458300185 L6.714017129649939 2.2682597398300572 L6.705387166649992 2.289602105830056 L6.696602171650007 2.3049758448300395 L6.66849019364998 2.3069912258299894 L6.542709757649995 2.300479995830017 L6.5097401926500496 2.294873101829978 L6.478475951649962 2.2843827868300366 L6.45351623464996 2.2680013578299736 L6.433052367649999 2.2816439348299866 L6.3863368726499985 2.3073529608299737 L6.36690653465002 2.3120038398300267 L6.3394146726499585 2.303373874829987 L6.277092895650021 2.2734790598300663 L6.255337116650004 2.2667611228300473 L6.214667764649967 2.2629370668300055 L6.084959919650011 2.2723421778299553 L6.083314730650052 2.2729289618300186 L6.061705525650019 2.2806362448300206 L6.004034626650032 2.3205046128300353 L5.946673787649964 2.3798808328300822 L5.926726684650028 2.3931099998299885 L5.846938272650057 2.416364394830083 L5.823993936650005 2.41734624683005 L5.770767211649975 2.4052539618300557 L5.743998819649995 2.4036519918300314 L5.719504190650021 2.411248427830003 L5.698420206649992 2.4322290588300177 L5.641369424649987 2.4296969148300036 L5.584938761650058 2.4209119198300186 L5.446239216649992 2.3828780668299885 L5.383607381650059 2.3559804838299954 L5.330794067650011 2.302288670829995 L5.307643025650016 2.271773737830017 L5.282528279650002 2.249630385829988 L5.183309528650035 2.20108037783001 L5.121504515650038 2.161857965830052 L5.065140033649989 2.1407610908300114 L4.975156859649992 2.1070809478299566 L4.899384949649978 2.0590895848300192 L4.870150349650039 2.0405733788300893 L4.812686156650024 2.0181716458299945 L4.800490518650015 2.011324518830037 L4.791705525650038 2.000885878830019 L4.773102009649996 1.9671928448300378 L4.765763956649984 1.95840785183006 L4.753568318649975 1.9554106178299548 L4.693933715649969 1.9580977938300634 L4.676777139650007 1.9561857658299573 L4.626651000649993 1.9426465398299797 L4.558696492650036 1.9495711818300663 L4.452974618650053 1.9393436018299894 L4.213084512650035 1.9161365298300836 L4.177014362650034 1.9014087468300715 L4.147868855649996 1.8712297108300788 L4.130092162649966 1.839035292830033 L4.12037699265003 1.8293201238300014 L4.087097371649982 1.8087270658300838 L4.077072143649964 1.79846929383001 L4.0660133866499635 1.7799432928299836 L4.040175170650038 1.7193009998300113 L4.014026895650041 1.6772622218300626 L3.996146849649996 1.6604932188300268 L3.974856160649985 1.6566174878300615 L3.961006875650021 1.663852187830031 L3.957286172650022 1.6744975318300135 L3.95604593865 1.685556289830032 L3.9497414136499813 1.6942896058299937 L3.941576537650043 1.6952714588300637 L3.919459024650031 1.690413873830039 L3.9094337966500134 1.690672255830009 L3.818928446649984 1.7129669368300426 L3.782516478650031 1.7219364978300007 L3.743035685650007 1.739248102830004 L3.6618003326500244 1.8006397038300008 L3.6428867586499862 1.8115951078300725 L3.585215860650017 1.830379489829994 L3.551109414650064 1.8386993968300374 L3.5182432046500267 1.8337126208300845 L3.4546811926499643 1.8076676988300164 L3.422435099649995 1.8006397038300008 L3.391532592650016 1.803688613830019 L3.2707130936499667 1.8389061018299913 L3.244310533649987 1.8416196988299873 L3.2428078206500075 1.8417741448299694 L3.212525431649972 1.8385185288299795 L3.1790391026500586 1.8280282128300485 L3.085194701649961 1.7868162588300436 L2.974995840650031 1.767147794829981 L2.961998087649995 1.7648279358300556 L2.928925170649997 1.7643111718300304 L2.8599888096499697 1.7732511948300385 L2.8288795976500367 1.7704089908300773 L2.827536009649954 1.7671016988300892 L2.828672891650065 1.7608230128299738 L2.827432657650043 1.75340744483006 L2.8189577226500333 1.7464828028299735 L2.810586140650038 1.7447774808300096 L2.783300984650033 1.7473613028300292 L2.713744506649938 1.7453975978300775 L2.681601765650022 1.7506169178300013 L2.621450397650058 1.7705640208300224 L2.5854836016500045 1.769117079830039 L2.481928618649995 1.7445900758300468 L2.414537963650055 1.7286285958300311 L2.3923170976500003 1.726173964829968 L2.276458535650029 1.7412634838300676 L2.258061726650034 1.7478263908300562 L2.2667433666499974 1.7582133528299835 L2.2166172276499836 1.7883407128300632 L2.1661810296499837 1.7950586488299791 L2.1206024166500654 1.775369928830031 L2.0852557376499945 1.72604477383004 L2.060864460650045 1.6972351628299975 L2.0284116616499333 1.6871065818300508 L1.9928582756500717 1.6907756088300516 L1.9634917616500687 1.702149962830049 L1.9268157956500218 1.7163554428300074 L1.7853257236499829 1.748911594830048 L1.7702362056500718 1.750125990830071 L1.7529762766500099 1.7461210678299892 L1.7086378976499432 1.7201278228300225 L1.6821106186500359 1.712217008829981 L1.679699095650001 1.7114978578299826 L1.6156203196499703 1.7032554668300293 L1.3187908926500214 1.708836521830051 L1.2991538486500716 1.7043665108300274 L1.2620501706500207 1.688966933830045 L1.2430332436499398 1.6835150708299693 L1.19797139464999 1.681809747830016 L1.0870619866499638 1.7108664458300495 L1.0692107896499934 1.7155432068300343 L0.7883839916500008 1.7891158588300584 L0.6999139406500561 1.7913379458300653 L0.6628102616500726 1.801931614830039 L0.5231805416500563 1.8618245998300154 L0.5075742586500169 1.8647443178300023 L0.46220235164998513 1.8659845518300529 L0.4315065506500346 1.8748470608300636 L0.3942995186500369 1.892287856829995 L0.35874613364996577 1.9140177968299952 L0.3335280346500227 1.9360319568300781 L0.3164748126499788 1.9682263738300207 L0.30924011165001986 1.9957957508300126 L0.2942539466500378 2.0147610008300774 L0.25404968265002736 2.0210396878299832 L0.19524190165004285 2.021323907830066 L0.15728494564996964 2.026602018830019 L0.15728494564996964 2.0262764978300396 L0.15647114264999828 2.021678516830022 L0.14662413765001503 1.9846505218300052 L0.13270812265000842 1.951813607830033 L0.08794900764997493 1.8887846358300493 L0.07728820065000974 1.8672188808300092 L0.07297504964999035 1.8457345058300092 L0.07492817464999035 1.83954960983003 L0.08412413765001503 1.8199369798300467 L0.0865655446500071 1.8084623708300427 L0.0865655446500071 1.7977608728300396 L0.08534484065001635 1.7887276698300383 L0.0748467946500071 1.74938033983004 L0.07248676764999828 1.7294014978300396 L0.07443989264999828 1.7102364588300105 L0.08290343465001371 1.6948555998300066 L0.09641254964999035 1.6813057948300383 L0.10227192464999035 1.67353398483003 L0.10707335665001239 1.6644194018300453 L0.10927062265000842 1.653351693830004 L0.10943338264997493 1.6336983728300396 L0.114478955649993 1.6234851568300286 L0.10715473664999564 1.6066394538300273 L0.10438780965001371 1.5885730478300246 L0.11024718465001371 1.5792550138300356 L0.128150830649993 1.588735807830048 L0.13441710665001239 1.5990710948300233 L0.13970682064996964 1.6252755218300052 L0.14857726265001503 1.637116341830037 L0.13441710665001239 1.650788216830037 L0.14133442464999035 1.6545723968300052 L0.14857726265001503 1.6570138028300079 L0.14857726265001503 1.67125533983004 L0.14857726265001503 1.6780912768300453 L0.13441710665001239 1.69111210983003 L0.15728494564996964 1.7092598968300052 L0.16566710665001239 1.7121895838300105 L0.17404926764999828 1.7098702478300396 L0.18104796565001635 1.7040108728300396 L0.18365213264997493 1.696157682830048 L0.1725030446500071 1.67516158983004 L0.1705499196500071 1.6573800138300356 L0.17201476265001503 1.6404122408300026 L0.17600239264999828 1.6296700528300079 L0.17152648165001239 1.6228341158300026 L0.16713195065000974 1.6052559908300026 L0.16224913765001503 1.5955717458300427 L0.15679666364997757 1.5881661468300052 L0.15199523165001239 1.5836088548300467 L0.13441710665001239 1.575063932830048 L0.12343077865001106 1.5721342458300427 L0.11439757565000974 1.5714425138300356 L0.10699197664997229 1.569204557830048 L0.1002374196500071 1.561392057830048 L0.09608702865001106 1.5503243498300066 L0.09901671565001635 1.5458484388300207 L0.10422504964999035 1.5415352878300013 L0.11439757565000974 1.5005196628300013 L0.15004210665001239 1.4430245448300383 L0.16224913765001503 1.410553841830037 L0.16908507565000974 1.3249011728300246 L0.16509744564996964 1.305085091830037 L0.15809874765000842 1.2872628268300303 L0.15663390365001106 1.2702950528300079 L0.16908507565000974 1.2528796888300207 L0.25111632565000974 1.2228097018300303 L0.2606378096500137 1.2136544278300079 L0.3267999196500071 1.1915190108300493 L0.34486632565000974 1.1809395838300105 L0.3814874196500071 1.15009648483003 L0.39165994564996964 1.1437081388300356 L0.40402973664999564 1.139679818830004 L0.4321059086499943 1.1256010428300414 L0.46400695065000974 1.1095284518300303 L0.48638650764997493 1.0902820318300286 L0.5055108566500124 1.0617175788300273 L0.5174737476500084 1.026032357830033 L0.5186944506500097 0.9853829438300039 L0.515764762650015 0.9747628268300303 L0.5049411956499696 0.947907357830033 L0.507057080649993 0.9371651698300383 L0.5164971846500137 0.9230050138300356 L0.5186944506500097 0.9143380218300052 L0.5164971846500137 0.8491524748300066 L0.5186944506500097 0.828319141830022 L0.5252862476500084 0.8104968758300259 L0.5374932786500111 0.7927559908300026 L0.5533624196500071 0.7792061858300343 L0.570452262650015 0.7737130218300052 L0.584124137650015 0.7655750008300259 L0.6216404136499776 0.7116199228300246 L0.6930108566500124 0.6604317718300052 L0.8031182786500111 0.5438953138300207 L0.8335544766499723 0.5254220058300092 L0.8755466636499776 0.5130929048300317 L1.059791455649993 0.506256966830037 L1.1031671066500124 0.498892057830048 L1.2983982266499723 0.441600391830022 L1.5876234866499956 0.3567208338300105 L1.6300225756500097 0.34955937583002594 L1.652971794650007 0.34858281383002065 L1.664202262650015 0.3464669278300079 L1.6764906746499904 0.34239791783004137 L1.6896742676499983 0.3395089198300383 L1.7041599456499696 0.34117721483004004 L1.7142510906500164 0.344595182830048 L1.7140069506500097 0.3457345058300092 L1.7088799976500084 0.34817591283000127 L1.7041599456499696 0.3553780608300343 L1.6947198406500164 0.39309778783000127 L1.6910577316500124 0.434235482830033 L1.6948826016499723 0.45445846483004004 L1.7046482266499723 0.46910690183004533 L1.7599867676499983 0.5134591158300026 L1.982805778650011 0.6179513028300079 L2.0542576016499723 0.666413216830037 L2.1353122886499776 0.7047432948300383 L2.1872328616499956 0.7209786468300052 L2.2214125496499904 0.7252917978300246 L2.2341078616499956 0.7284249358300343 L2.2370375496499904 0.7362374358300343 L2.2374444506500097 0.7461251308300092 L2.2419203616499956 0.756053516830022 L2.264055778650011 0.78063033983004 L2.2684503096500137 0.785553841830037 L2.2784600756500097 0.801870573830044 L2.2862725756500097 0.8215645838300105 L2.2940850756500097 0.8567208338300105 L2.3026299976500084 0.8750313808300092 L2.3174411956499696 0.8829659518300303 L2.326311637650015 0.8922026048300467 L2.3543878096500137 0.984772591830037 L2.3648044766499723 1.0002755218300052 L2.3788018726500084 1.006501107830033 L2.396542757649975 1.0102852878300013 L2.443987419650007 1.0406401048300467 L2.5267510906500164 1.058991341830037 L2.6124444506500097 1.0679838548300467 L2.6247328616499956 1.0736397798300317 L2.6735609866499956 1.1129464198300383 L2.6825128096500137 1.117137500830026 L2.6890232266499723 1.120148568830004 L2.7358982266499723 1.12828658983004 L2.7990492676499983 1.131948698830044 L2.969947705649993 1.1090401698300383 L3.0308201016499723 1.092886198830044 L3.056780387650015 1.0859688808300092 L3.0951104656500164 1.0679838548300467 L3.1131768726500084 1.0536202478300396 L3.1258721846500137 1.0401925138300356 L3.1395440596500137 1.0302234388300207 L3.1784437996499904 1.024282682830048 L3.216936637650015 1.0104887378300162 L3.3146742676499983 0.9754952478300396 L3.3231378096500137 0.9612130218300052 L3.3425062996499904 0.9496570318300286 L3.3651299976500084 0.9417631518300453 L3.3824639816500124 0.9381824228300246 L3.3827081226500084 0.9274402348300299 L3.392636507649975 0.920319466830037 L3.4165622886499776 0.9109200528300079 L3.483049919650007 0.8690092458300427 L3.504534294650007 0.8410958338300105 L3.5127536956499696 0.8010567718300052 L3.5094171066500124 0.754751432830048 L3.4854913256500097 0.6297921228300396 L3.4837823406500164 0.5926827478300396 L3.4790622886499776 0.5706694018300453 L3.4684014816500124 0.5608223968300052 L3.4624607266499723 0.5488595058300092 L3.466855257649975 0.5226143888300356 L3.478655387650015 0.48574915483003167 L3.466936637650015 0.42695195383002726 L3.461565544650007 0.4137276698300383 L3.4176202316500124 0.37417688883003564 L3.4034600756500097 0.3553780608300343 L3.4034600756500097 0.33731165483003167 L3.392717887650015 0.2903145838300105 L3.389869580649993 0.2666329438300039 L3.392717887650015 0.2539376308300092 L3.4000421066500124 0.24185266983003828 L3.41004764988822 0.23103366898712352 L3.4535443106500523 0.24057988883001258 L3.482069701650012 0.23977890482998987 L3.505427448650046 0.2327509108299921 L3.516589558649976 0.22264816783004449 L3.533022663650037 0.1988770088299816 L3.5455283606500316 0.19112554382999747 L3.585215860650017 0.1799117578300411 L3.6377191156499933 0.15415105683004526 L3.6577695716500287 0.1517997788299965 L3.727946166650021 0.1552620998300256 L3.788717650650007 0.15164474983004084 L3.8043239336500463 0.14503016683005399 L3.822720743650059 0.11738327483004696 L3.8373968506500447 0.10702215083003352 L3.8686094156500204 0.11131129383008442 L3.8946543366500137 0.12022547883000811 L3.920699259650071 0.12255091783003991 L3.931306394650001 0.11734298882998928 L3.9522218826500435 0.10707382683003175 L3.9764064526500036 0.09877975983008014 L4.053197631649972 0.09278529383004752 L4.078725788650026 0.08338018283001247 L4.1387457346500085 0.050645839830053774 L4.152726439650031 0.043020888830028525 L4.174533893650057 0.03560532083002954 L4.198098347650053 0.031910455830029605 L4.2449171956499825 0.031212823830031766 L4.270858763650018 0.04048874383005341 L4.284604695650053 0.06105596383002876 L4.293803099650042 0.08570562183004427 L4.305998737649965 0.10725469483000438 L4.320674845650053 0.11384343882997427 L4.3363844806500325 0.11384343882997427 L4.368423868650019 0.10503260682997961 L4.388267618650026 0.09107997083000896 L4.381446329649982 0.07511195282995686 L4.353437703650066 0.048033502830008956 L4.35457458464996 0.03072189783009094 L4.367390339650036 0.024081475830001864 L4.385580443649992 0.02581263683006796 L4.403460489650037 0.03361577783007874 L4.4102817786499955 0.04048874383005341 L4.422167358650036 0.0586013328300794 L4.428471882650037 0.06446660782998492 L4.437566934650029 0.06741216483007406 L4.443768106650005 0.06663701883005047 L4.450279336650063 0.06477666683005623 L4.460407917650009 0.06446660782998492 L4.500508829650023 0.07604212883001082 L4.5610736076499805 0.11516118883002946 L4.600502725649996 0.12862289883000244 L4.635849404649981 0.13278285183002936 L4.645564574650031 0.1364002018300141 L4.6541428626499695 0.1438932848300567 L4.655704899650068 0.14936041483005624 L4.656003213649974 0.15040451483002926 L4.656830037650003 0.15704493683003307 L4.6622043856500355 0.16497726883005726 L4.683288370649997 0.17975672883008542 L4.705405883649981 0.18701726682996878 L4.7289703366499865 0.18892929482998966 L4.753981729649986 0.18779241383006706 L4.8076886876499785 0.17789340083001548 L4.818887328650028 0.17582931983002936 L4.834183552649996 0.1760877018300846 L4.849273070649993 0.19004033882998783 L4.858574828650013 0.2103233388299941 L4.871390583650005 0.2302962788300249 L4.896505330650008 0.24324122583004737 L5.106621703650013 0.25324061482996285 L5.118403930650011 0.25639287783002374 L5.125845336650038 0.2612763008300476 L5.129152628650026 0.2708106028300392 L5.125638630649981 0.27680506882995815 L5.119954223650019 0.2827478578299747 L5.116956989649999 0.2919204248300673 L5.119954223650019 0.3125393218300587 L5.128635863650068 0.32486415083002385 L5.239120076650018 0.3744476868299955 L5.2723996986499415 0.39516993683002966 L5.367070922649965 0.478394830830041 L5.40107401465 0.5000730948300145 L5.442518513649965 0.5160669498299626 L5.455214065649962 0.5190169238299802 L5.534567328649992 0.5374556728300774 L5.534812621649941 0.5375126698299937 L5.551452432649974 0.5462976628300851 L5.584938761650058 0.5720842028299842 L5.603438923649982 0.5834013418300685 L5.618941853650007 0.5819544008300568 L5.6325844316500095 0.5753398178299847 L5.646123656649998 0.5710506738300012 L5.65563212064999 0.5723942608300661 L5.67413228265 0.579628961830025 L5.683744098650017 0.5813859598300155 L5.693976033649996 0.5788538158300298 L5.698730264649988 0.5727301578300512 L5.702244262650034 0.5653662658300505 L5.708652139649992 0.5589067118300193 L5.73821105965002 0.5447990458299898 L5.770870564649989 0.5343604068300465 L5.804356891650066 0.5284692938300282 L5.881974893649989 0.5307430568300617 L5.899648233650062 0.5279008538299763 L5.9202154536499805 0.5180306548299995 L5.932204386650007 0.5041813698300359 L5.942436319650007 0.48935023482999895 L5.958042602650046 0.4766636708299643 L5.9765427646500555 0.47203862982999567 L5.9888417556500215 0.4771287588299913 L6.0000038656500365 0.48423426783003265 L6.015506795649948 0.48578456083004085 L6.033076781650017 0.48366582682996295 L6.050440063650036 0.48387253283001996 L6.084959919650011 0.4902287338299516 L6.1085243736500345 0.5003056388299854 L6.14521463965 0.5307688948300608 L6.165420124649991 0.5435588118300245 L6.189242960650041 0.549785821830028 L6.269548135649991 0.5525246728299749 L6.423853962649993 0.5830912828299972 L6.456823526650062 0.5716191148299572 Z" fill="black" stroke="black" stroke-width="0.5" vector-effect="non-scaling-stroke"/></svg>