<svg xmlns="http://www.w3.org/2000/svg" viewBox="0 0 1.5345708321599574 1.6646069224200204"><path d="M0.02066004608000327 1.6148515707099236 L0.02066004608000327 1.6132239667099455 L0.021880749079947748 1.6088294357099429 L0.017323458079978593 1.6093990967099288 L0.015858614079981237 1.6081783937099843 L0.015858614079981237 1.6056556077099415 L0.015044812079999303 1.602603849709972 L0.021229708079978593 1.5914140707099662 L0.03018153107999666 1.5801429117099772 L0.04092371808000195 1.571353849709972 L0.06305913507996053 1.563541349709972 L0.07022059308000195 1.5535722737099675 L0.07640548907998124 1.5421790447099468 L0.08324142607998652 1.5337155037099777 L0.07721929107996317 1.5269202557099746 L0.08324142607998652 1.525984383709961 L0.08649663507996053 1.5272864667099455 L0.09007736407998124 1.5337155037099777 L0.12018804107996317 1.4790686937099693 L0.12458257207996581 1.4492428467099288 L0.10374923907998124 1.4238522217099288 L0.12515223407999798 1.4104651777099733 L0.14020757207996581 1.39186979970993 L0.15908778107999666 1.3481686287099777 L0.1615291870799993 1.3349850347099803 L0.16218022907995788 1.3080481857099429 L0.16592371808000195 1.2941321697099468 L0.18415288507996053 1.271264331709979 L0.19050054107996317 1.2588945397099636 L0.18643153107999666 1.2463619877099816 L0.23843348407999798 1.2129554117099772 L0.26455653107999666 1.1900061937099693 L0.27578699907994775 1.1604244877099816 L0.2779028850799605 1.147525724709972 L0.31607020307999534 1.0607337327099415 L0.3098039260799865 1.0538977947099468 L0.32534754608000327 1.0425859457099662 L0.33706629608000327 1.0015296307099746 L0.35391199907994775 0.9924964277099733 L0.3532609580799786 0.9804928467099288 L0.392730359079998 0.8999671307099746 L0.39671798907998124 0.880191740709968 L0.3984269730799852 0.8386878337099759 L0.39867111407998124 0.8314043057099596 L0.39541590607999666 0.8196041747099301 L0.3892310100799605 0.8100013107099429 L0.38589442108000327 0.8017819097099803 L0.3912655150800006 0.7938880297099402 L0.40200770307999534 0.7908769617099622 L0.41519129608000327 0.7926673267099389 L0.42666590607999666 0.7968177167099455 L0.43276942108000327 0.8013343187099693 L0.439605359079998 0.8013343187099693 L0.4492896040799579 0.7968177167099455 L0.4635311400800006 0.7976722087099759 L0.47288986407998124 0.7982011807099596 L0.48745692108000327 0.7938880297099402 L0.49380457807999534 0.7871741617099772 L0.5033260620799993 0.7672767017099389 L0.5085343950799839 0.759097990709968 L0.5088599160799632 0.7549475997099719 L0.5073950720799658 0.753442065709983 L0.5011287960800033 0.7529537847099803 L0.509673718080002 0.7445716227099481 L0.5217179890799812 0.7206458417099455 L0.5289608280799953 0.710717456709979 L0.5355526240799477 0.708764331709979 L0.5521541870799993 0.7085608807099746 L0.5563045780799953 0.7044511807099596 L0.5558162960800033 0.6953365967099288 L0.5511776240799477 0.6906165447099468 L0.5458065310799967 0.6877682377099816 L0.5426327030799953 0.6840247477099481 L0.5423885620799993 0.6596106857099429 L0.558745984079998 0.6157874437099693 L0.5631405150800006 0.5847408937099843 L0.5599666870799993 0.5730221437099843 L0.5458065310799967 0.5510494877099816 L0.5426327030799953 0.5369300217099706 L0.5426327030799953 0.5027503337099759 L0.5458065310799967 0.495426115709968 L0.5599666870799993 0.4868811937099693 L0.5631405150800006 0.4817135497099301 L0.5637101760799865 0.45026009970997194 L0.5684302290799579 0.41901009970997194 L0.5806372600799605 0.3925208417099455 L0.6041561400800006 0.3755530687099693 L0.621245984079998 0.3872718187099693 L0.6376034060799967 0.3663977947099468 L0.6527401240799477 0.3346595137099442 L0.666167859079998 0.3140703207099662 L0.7215877810799967 0.2888831467099706 L0.7390031450799839 0.2693518967099706 L0.720855359079998 0.24518197470997194 L0.720855359079998 0.23895638870994418 L0.7394100460800033 0.24302539870996753 L0.8187557490799477 0.22589486570996797 L0.8722225460800033 0.18378060770994153 L0.8883358280799953 0.17409636270998163 L0.898589734079998 0.16522591970994682 L0.904204968080002 0.15114714370998428 L0.9050187700799839 0.10419076370994418 L0.902251843080002 0.08307259970997194 L0.8960669470799658 0.06537240470994021 L0.8853244793232093 0.05401863329080214 L0.8980652460800016 0.05363005971002366 L0.9068502390800077 0.05564544070997357 L0.9141882920799631 0.05848764470996315 L0.9316549270800252 0.07021819470994473 L0.9533590280800368 0.07543751370996432 L0.9762000120799499 0.07595427871000737 L1.0026583450800004 0.07285369270996256 L1.0275647370800485 0.07433532270999166 L1.071284646080052 0.07693613070997429 L1.0756254670799663 0.07579924970996643 L1.0876143990799747 0.06980478270994439 L1.0937122180799648 0.06856454870997908 L1.0987765080800287 0.07037322370998567 L1.1105587350800548 0.07765960070997124 L1.116656554079988 0.07941659970995119 L1.1770146270800197 0.07662607270997768 L1.1869365020799947 0.07290536970997863 L1.1961349070800011 0.06474049270996574 L1.1998556100800002 0.055542087709959276 L1.200269021080011 0.035956720710025536 L1.2035763130799992 0.028308607709952582 L1.22435023908006 0.016319675710001036 L1.2392330520799888 0.024381199709885948 L1.2627975040800052 0.059727878709985305 L1.2829513130799697 0.07466236770994072 L1.3066191200800077 0.08138030470995972 L1.3314238070800357 0.08096689170996996 L1.3556083770800242 0.07450733871001347 L1.3516809680800534 0.10602996270997522 L1.3445496200800235 0.11068084170994297 L1.3339042750800232 0.10354949370999833 L1.3191248160800129 0.1000354967099426 L1.3043453560800131 0.1076319317099248 L1.3022782990800366 0.11962086470995104 L1.3035185330800587 0.1343486467099737 L1.2989710070800484 0.15005828270994215 L1.2794373160799992 0.16277068470989065 L1.2520488060799622 0.1750179987100111 L1.2353056420800286 0.18974578271001263 L1.245276071080049 0.20526427270998937 L1.2481213980800376 0.20969288570994848 L1.2508085720800537 0.2103905177099179 L1.2535991000799882 0.21057138470998638 L1.256389627080047 0.2103905177099179 L1.2590768010800062 0.20969288570994848 L1.278507140080059 0.20483530070992373 L1.3077560010799871 0.20372425770991498 L1.335144510079978 0.20553293271000683 L1.3488904410799947 0.2095378557098897 L1.3488904410799947 0.20969288570994848 L1.355298318079953 0.22641021170996822 L1.3652201930800416 0.23932931970997373 L1.3786560660799765 0.2486310767099198 L1.395605935080006 0.2547288957099667 L1.4100753360799914 0.2696117087099239 L1.4173100370800071 0.2735649557099791 L1.424648091079952 0.2714462217099296 L1.440564432079988 0.28092884770997983 L1.446042133080006 0.2896880027099584 L1.4452153110799841 0.30077259770998666 L1.4417013140800137 0.3171798647099351 L1.439014138079962 0.32407866870990887 L1.4353967880800056 0.32880706170990237 L1.4321928500800496 0.33400054370999754 L1.4313660270799815 0.34221709570993397 L1.4340532010800544 0.3502269437100196 L1.439014138079962 0.35797840770992906 L1.460614887080034 0.38314482970996977 L1.4712602320800343 0.3927824847098904 L1.4783915800800074 0.3953663067099953 L1.4857296330799628 0.3949012187099683 L1.4922408640799532 0.39619312971000653 L1.4974085070800598 0.4039704327100182 L1.4953414500799695 0.4169670557099536 L1.4857296330799628 0.4279999737099658 L1.478184875080025 0.4409190817099713 L1.4829391060800177 0.45972930370998455 L1.4894503360799618 0.47412118970998307 L1.5136349070800534 0.4940166167098923 L1.5189787150799603 0.5037667227099902 L1.519526020079958 0.5047653137099175 L1.4913106880800129 0.5306035297099285 L1.4681596470800073 0.56287546171 L1.423407856080054 0.5946823057099309 L1.403874165079948 0.6152236877099355 L1.398086404079983 0.6293571917099641 L1.3961227000800491 0.6411135807099626 L1.3906449980800417 0.6503636617099673 L1.3743152460799948 0.657159112710012 L1.3605693140799886 0.6577275527099786 L1.3390719190799487 0.6510612937099651 L1.327599751079994 0.6502344707099255 L1.306515767079965 0.6591486557099628 L1.2732361440800233 0.6943144677099085 L1.2334452910800238 0.723356622710007 L1.2177356560799595 0.7394796697099864 L1.2039897250799996 0.7573597147099562 L1.182595682080013 0.7934815407099549 L1.184352680079975 0.7970988907099397 L1.1907605580800364 0.8066590317099482 L1.197065083080055 0.8127568507099951 L1.2265206490799656 0.8318771307098913 L1.2657947380800252 0.8374581847099236 L1.2830546660800124 0.8463206927099165 L1.2850183710800493 0.866862074709978 L1.272926086080055 0.880091241709998 L1.253702453080031 0.8826750627099997 L1.215978657080008 0.8751819807099466 L1.164612283080011 0.8541238347099451 L1.147249002079981 0.8513333077099716 L1.1320561310799704 0.8561133767099633 L1.1181034940799819 0.8655701647099576 L1.101980447080031 0.8736575257099375 L1.0811031690800306 0.8740709367099484 L1.0730416450800604 0.8698076317098966 L1.0603292430799698 0.8564492737099769 L1.053714660079983 0.8532453357099925 L1.0178512150799648 0.8715904677099715 L1.000487935080038 0.8778174787099644 L0.9818844180799502 0.8818740777099592 L0.9658647250800314 0.8874292947099818 L0.9559428500799996 0.8982555077099263 L0.9425069780799973 0.9195720357100114 L0.9094340600799811 0.9431623267100164 L0.8956881300799537 0.9603189027099788 L0.8895903110800205 0.971713556709993 L0.8712968540800503 0.9857437077099789 L0.863855447080006 0.994657892709931 L0.862408507080012 1.0030294747098978 L0.8653023880799893 1.0211679017099229 L0.8626152130799838 1.0307797177099403 L0.8578609810800586 1.0346554507099697 L0.8448385210800566 1.0387895647099228 L0.8408077580800537 1.0422002097099252 L0.8369837020800119 1.0635684147099411 L0.8502128690799751 1.0704672177100107 L0.872330382079987 1.0739295387099546 L0.8956881300799537 1.0848591047099418 L0.9099508250800241 1.08816639670993 L0.928347635080037 1.0958403467100126 L0.9450907990799706 1.1062273097099293 L0.9538757920799767 1.1175186097099967 L0.9506718530799745 1.136070448709937 L0.9352722770799815 1.1512374827099663 L0.9147050570799493 1.1626062967099458 L0.8956881300799537 1.1699185117099304 L0.8722270290800012 1.1696601307099783 L0.8486625760799953 1.1760421687100049 L0.8372937610799696 1.189297174709985 L0.8508329870799471 1.2096060117099157 L0.8349166450800354 1.2415162087098892 L0.8039107860800314 1.2634528547099464 L0.7855139760800185 1.2726254217099537 L0.7605409110799783 1.2851251257099747 L0.7365247180800125 1.2971458887100127 L0.7211251410800301 1.3125196267099781 L0.7011780390800268 1.3459801167099599 L0.6848482860799905 1.3612246647099298 L0.6729627060800354 1.3675550277099475 L0.6591134230799653 1.3726968317099235 L0.6448507270800192 1.3760558007099561 L0.6316215610799887 1.3771410057099374 L0.6139482210800011 1.38119760570995 L0.5759143670799531 1.4146064197100188 L0.5675681582055034 1.427207833712096 L0.5465168439567663 1.4293030433923661 L0.5354899650645706 1.4343317517698182 L0.5334850779932623 1.4477430565307614 L0.5200004670800595 1.4595132387100236 L0.5200004670800595 1.4596165917099526 L0.5193172720800376 1.4635449657100068 L0.5192769970799773 1.4637765447099795 L0.5134892370800017 1.4596165917099526 L0.5132825310799731 1.459487400709996 L0.5131791780800441 1.4595132387100236 L0.5004667750799641 1.4516584207099967 L0.4823800240799656 1.42768055670998 L0.47659226407999 1.4217377667099456 L0.46491339008000665 1.4228488097099543 L0.4581954540799771 1.4323314357099477 L0.45230434007996934 1.4459998517099493 L0.443209289079995 1.4596165917099526 L0.43545782407998246 1.4816824277099485 L0.4330807080800483 1.5309817447099405 L0.42770635908002674 1.5564582257099673 L0.4191280710800598 1.5732530657099275 L0.4005245550800183 1.6012616927099472 L0.3955636180800539 1.616480401709957 L0.36486781708001814 1.6186508117099478 L0.3170154410800379 1.635936578709952 L0.26058477707997696 1.6482872467100194 L0.24735561008001383 1.6467111147099942 L0.23805385207996466 1.636505019709908 L0.2311292110800096 1.6246452787099983 L0.22120733507998835 1.614490858709921 L0.21004522608004805 1.6068944237099672 L0.20424952207995517 1.6046663587099985 L0.1990898220799764 1.6026827947099136 L0.1868941840800531 1.6026827947099136 L0.1498938590799881 1.6129405657099127 L0.1427625110799582 1.612501316709988 L0.1286031690800442 1.6094265687099423 L0.12260870307998317 1.609064833709958 L0.11609747208004961 1.6111318907099346 L0.10503871508004892 1.6183407527099618 L0.10069789608005664 1.6198910467099026 L0.02066004608000327 1.6148515707099236 Z" fill="black" stroke="black" stroke-width="0.5" vector-effect="non-scaling-stroke"/></svg>