<svg xmlns="http://www.w3.org/2000/svg" viewBox="0 0 2.4824283200999417 2.12979868043994"><path d="M2.0030281245499353 0.3591543042200094 L2.0176008785499633 0.35843083421992716 L2.041165331549969 0.36411524121997374 L2.0627144045499293 0.3731069412200121 L2.0718611325499197 0.38313216921994453 L2.0721711905500015 0.40276921421996903 L2.0779589515499666 0.4154816152199281 L2.091188118549958 0.42343978621998346 L2.113719042549981 0.42871078221991965 L2.148135546549959 0.4425600662199791 L2.2306111325499742 0.5190411862199618 L2.2635806965499015 0.5278261792199537 L2.303578254549997 0.5287563552199082 L2.3339639965499615 0.5399184642199337 L2.339028287550015 0.5974860102199777 L2.3502420735499427 0.6094749422199435 L2.365900032550009 0.6199135822199757 L2.3796459635499687 0.6334528072199497 L2.3871907215499064 0.6504026772199545 L2.398146125549978 0.6856460032199401 L2.4260513985499657 0.7188222732199527 L2.436179980549902 0.7404230222200106 L2.4371101565499558 0.7465208412199722 L2.436179980549902 0.7618170642199367 L2.437213508550009 0.7690517652198956 L2.44165768154992 0.7751495842199567 L2.454990200549936 0.7867251052199968 L2.458090787549942 0.7925128662199619 L2.454421760549941 0.807085620219933 L2.4359215975499424 0.8302366612200096 L2.4340612465499376 0.8459462962198891 L2.434733040549908 0.8604156982199207 L2.4300821615499686 0.8715778072199463 L2.4217105795499734 0.8804661542199703 L2.4103417635499014 0.8879075602198974 L2.3839867835499504 0.8980361402199399 L2.3542211585499686 0.9060976642199385 L2.326005825549977 0.9169497152199817 L2.304921841549948 0.9357599362199913 L2.2976871415499787 0.9567405672199918 L2.2973812685499766 0.9784138572199161 L2.297325406549909 0.9823720782199494 L2.304198371549923 1.0062465892199377 L2.3184610675499258 1.0217495192199486 L2.302131314550003 1.0315680412200088 L2.3005810215499665 1.047174324219963 L2.300787727549938 1.0637107832199568 L2.2895222645499658 1.0762164792199478 L2.2125243805499295 1.0969904042199907 L2.1834822255499446 1.1170408602199409 L2.1672558265499404 1.1420522542199443 L2.15459510054999 1.1703709382199428 L2.135939908549922 1.200239916219953 L2.1357819875499118 1.202969700219949 L2.134492968549928 1.2252513102199423 L2.128498502550009 1.251709643219936 L2.127981737549966 1.2756875072199527 L2.1425544915499373 1.2935675532199973 L2.155163541549946 1.3021458402199464 L2.1579540685499197 1.3092771882199763 L2.157333951549937 1.3181655352199861 L2.159504361549928 1.3322215242199142 L2.170459764549925 1.3514451572199384 L2.1728368805499443 1.3612636792199133 L2.1664290035500144 1.3698419682199408 L2.154956835550003 1.374802905219891 L2.128498502550009 1.3816241932199311 L2.1163028645499153 1.3863784252199274 L2.0379685725499783 1.4287064282199928 L1.9984805985499818 1.450043790219933 L1.882208625549886 1.5164996822199832 L1.8178197915499155 1.539547370219946 L1.7516739575499187 1.5519497152199158 L1.6618603185499197 1.581611986219965 L1.6280639325499422 1.5814052812199257 L1.5794880855499471 1.5650755282198894 L1.5627449205499957 1.563421882219938 L1.5465185215499915 1.5668325272199546 L1.5031103185499788 1.5894668052199101 L1.478408984549965 1.5971149162199758 L1.430143196549956 1.591017097219929 L1.4060619795500102 1.5943243892199312 L1.3862699055499448 1.6094139072199276 L1.3777785915499194 1.6233589922199165 L1.3608451005499447 1.651168465219964 L1.3451871415499639 1.664811042219977 L1.3358853835499431 1.6709088612199388 L1.3234830395499912 1.6866184972199072 L1.31655839754999 1.6926129632199398 L1.3068949055499743 1.6963336662199389 L1.2774910155499768 1.7000543692199521 L1.2591975585499213 1.706462247219985 L1.2382169265500025 1.71752100422 L1.2228173505499242 1.7326105212199074 L1.220646939549944 1.7512140382199526 L1.2316023435499304 1.7647532632199407 L1.2462784505499158 1.7706443762199306 L1.2579573235499666 1.779532722219951 L1.2606444985499152 1.80237370521996 L1.2536165035499849 1.8239744542199325 L1.240387336549908 1.8375136792199065 L1.1554312825499338 1.8954946362199614 L1.1475764645499922 1.9073802162199875 L1.149746874549983 1.9152350342199291 L1.161425748549938 1.932805020219984 L1.1646296865500076 1.942726896219991 L1.1633894525499855 1.9508917712199114 L1.1464395825499665 1.9974005612199441 L1.143028937549964 2.003498380219991 L1.135019091549971 2.012593432219969 L1.1270609215500045 2.018484545219973 L1.1185343095498936 2.0225153072199724 L1.110214404549943 2.0276829502199654 L1.1037548495499792 2.036984708219901 L1.0980187665499344 2.057138517219979 L1.0986905595499152 2.073364916219983 L1.1011710285499774 2.089384610219934 L1.1009643225499204 2.1089183012199406 L1.0768831055499746 2.0998232502199663 L0.9587507815499876 2.09093490421996 L0.9377701495499835 2.0850437902199523 L0.9178230465499624 2.0763621492199 L0.9083145835499877 2.0698509192199275 L0.900459764549943 2.0630296292199795 L0.8919848305499514 2.057241870219908 L0.8804093095499823 2.0538312252199766 L0.8717276685499442 2.0550714592199135 L0.8526073895499522 2.0632363362199406 L0.8425821605500019 2.0646832762199345 L0.8006208975499263 2.059825691219995 L0.7657909825499658 2.0504205802199458 L0.7357152995499874 2.0338841222199555 L0.6817134265499263 1.9806573972199963 L0.6207869135499564 1.9404531332199717 L0.6144823885499378 1.9319781982199622 L0.6128287435499047 1.9229864982199238 L0.6123119785499469 1.9139947992198891 L0.6090046875499482 1.9051064522199646 L0.5849234695499277 1.8756508862199688 L0.5587751945499022 1.8533266672198998 L0.5555463675499155 1.843543805219948 L0.5518505525500146 1.8323460362199988 L0.5153669915500032 1.8177732822199424 L0.4996573565499389 1.806404467219945 L0.48890865855000953 1.7912115962199202 L0.48157060554994047 1.7667169672199599 L0.47428422754993704 1.7602057362199979 L0.45821285754997376 1.7599990312199445 L0.4370255205499305 1.767647142219925 L0.4299975255499149 1.768680671219908 L0.4198172685499415 1.7673370842199425 L0.3998902725499889 1.7624427342199844 L0.3991983725499395 1.7622727942199639 L0.38834632154991056 1.7611359122199524 L0.38999996754996147 1.7455296302199166 L0.3677274245500044 1.6916827872199711 L0.36586707254998174 1.6630540442199013 L0.3877262035499385 1.6159251382199038 L0.40271236854992054 1.6026959712199975 L0.4035391925499212 1.5927740962199088 L0.3941340815499714 1.5860561602199788 L0.3788378575500033 1.5823354572199655 L0.35661699154997706 1.5823354572199655 L0.34421464754999676 1.5849192782199673 L0.33496456654999207 1.5817153392199081 L0.3226138995499426 1.5650755282198894 L0.31589596255000885 1.5510195392199613 L0.3023567375499354 1.503580573219974 L0.2880940425499503 1.4834267662199032 L0.24013831354992732 1.4481834382199246 L0.22101803354994587 1.4286497472200033 L0.19353260854996535 1.3716142632199357 L0.11094723354992908 1.200239916219953 L0.1108438795499822 1.200239916219953 L0.1108438795499822 1.2001365642199282 L0.10231726854997447 1.185253751219971 L0.07317176054997532 1.1469098392199548 L0.05983924154993048 1.136574552219951 L0.046713427549981645 1.1301666742200034 L0.03239905554998046 1.1200380932199572 L0.024337532549999707 1.11662744921993 L0.036636523549937294 1.0918227612199836 L0.037049934549948205 1.0756997152199226 L0.04459469354990375 1.0662946042199586 L0.055136685549975084 1.0662946042199586 L0.06454179655001013 1.0781801842198995 L0.07136308554996873 1.0706354242199403 L0.07901119754993857 1.054512377219961 L0.08438554554991384 1.0502749102199083 L0.09420406854997765 1.0500682042199507 L0.0973046545499372 1.0552358482199473 L0.09988847554993896 1.0614370192199338 L0.10805335254995185 1.0645376052199786 L0.11260087854987688 1.0617470782199199 L0.14495032554996357 1.0318781002199096 L0.15032467354993884 1.0286741612199357 L0.17854000654998714 1.0187522862199465 L0.20789221954996862 1.0160651112199126 L0.21802080054991535 1.012757820219914 L0.23590084554997048 1.00417953221989 L0.26401282455001507 0.9991152422199967 L0.2853035155500052 0.9912604252199735 L0.31785966754996053 0.9745172602199226 L0.32248907055001297 0.9702385692199265 L0.3246809565500044 0.9682127352200034 L0.33129553954999125 0.959324389219983 L0.33625647754994503 0.9487823962199364 L0.33822018154996414 0.9373102292199142 L0.34359453054992883 0.9336928792199295 L0.36705563154990983 0.9346230552199835 L0.37242997954997037 0.9303855872199271 L0.3766674475499272 0.9124021882199393 L0.3877262035499385 0.8967959062199036 L0.4292740555500032 0.8570050532199041 L0.4358886385499332 0.8526642332199224 L0.439816047549904 0.846669767219975 L0.44126298754998317 0.8339573642199376 L0.4383691075499101 0.8261025472199854 L0.43247799454997704 0.8199013742199206 L0.42844723254999195 0.8141136152199344 L0.43082434854995455 0.8071889722199579 L0.439816047549904 0.8007810952199144 L0.44901445254988204 0.7980939202199799 L0.4583162105499028 0.7936497472198845 L0.4680313805499523 0.7820742262199296 L0.47051184854993977 0.7730825272199802 L0.4724755525499589 0.7498281322199709 L0.4754727865499788 0.7417666092198907 L0.4920609205499673 0.7325682042198842 L0.5328689215499551 0.7208719172199771 L0.5411018545499147 0.7185122142199667 L0.5510754065499057 0.7110708082199402 L0.5494217605499685 0.6994952882199037 L0.5431689125499659 0.6762408932199797 L0.5436856765499911 0.6666290762199587 L0.5503519365499088 0.6577407302199525 L0.5604288405499531 0.6524697342199168 L0.5706607745499426 0.6490590902199038 L0.5778954755499868 0.6455450922199439 L0.6351529615499558 0.5839467852199043 L0.6577872395500108 0.5467397542199812 L0.6566616105499534 0.5411595062199517 L0.6529296545499861 0.5226585362199465 L0.659699267549918 0.5158372472199027 L0.6665722325499033 0.5226585362199465 L0.6715331695499529 0.5210048912198992 L0.680783251549947 0.5168707762198856 L0.6871394525499923 0.5158372472199027 L0.6784578115499258 0.5059153722199987 L0.6659521155499206 0.49464991021994464 L0.6613529125499795 0.4854515052199382 L0.6772175775499036 0.48162744921991063 L0.6896715975499674 0.47676986421997114 L0.7019189125499921 0.46519434321993103 L0.7212458985499453 0.4406997152199743 L0.725069954549987 0.4394594802199485 L0.7298241855499796 0.4408030672199139 L0.7338549475499647 0.4411131262199852 L0.7355085925499409 0.4369790112199716 L0.7355602695499286 0.4296409582199736 L0.7366454745499382 0.4265403722199288 L0.7388675615499452 0.4233364342199586 L0.7411930005499769 0.41796208421999026 L0.7422265295499599 0.4099005602199206 L0.7423298825499742 0.39605127721995004 L0.7504947585499977 0.38809310621997994 L0.7662560705499644 0.3833388742199837 L0.7769530925499808 0.375587410219989 L0.7696150385499791 0.35874089321999847 L0.8835098955499419 0.36556218221995707 L0.9101749345499925 0.3550201902199994 L0.919476692549928 0.3399306712199994 L0.9257812165500141 0.3241176832199919 L0.9338427405499274 0.3108885162199151 L0.9484154945499839 0.3035504632199171 L0.9672257165498834 0.3056175212199683 L0.9791112945500018 0.3152293372199857 L0.9884130525499373 0.32577132921995755 L0.9996785155499097 0.3308356202200251 L1.0268603185499856 0.3308356202200251 L1.0357486645499208 0.32856185621991685 L1.036988898549943 0.322670743219998 L1.0366788405499463 0.3149192792199038 L1.0409163085499031 0.30696110821994793 L1.0787434565499794 0.26262272921999497 L1.1230818355499324 0.22097152521997643 L1.1262857745499915 0.2151837642199972 L1.1538809885499077 0.1794236732198975 L1.1672135085499136 0.16485091921992634 L1.1771353835500022 0.15244857521996025 L1.1862304355499091 0.15554916121999085 L1.2402986375499339 0.1507710412199792 L1.2528930335499027 0.14965804822000095 L1.273046841549963 0.1575128652199389 L1.2960945305499436 0.1596832762199334 L1.3192455725499386 0.15699610121998475 L1.3393993805499136 0.1501748122199409 L1.3586230135499378 0.1347752352199585 L1.3857014645499035 0.0937441482199084 L1.4051318035499563 0.07658757321994969 L1.4255956705499173 0.06904281421999414 L1.5648119785499617 0.06087793721998125 L1.58465572854994 0.05664046921992494 L1.6416031575499304 0.022534024219961424 L1.656485969549955 0.020880379219999412 L1.6753995435499078 0.033179369219947574 L1.6887320635499137 0.047338712219993084 L1.697827115549991 0.06387517021998335 L1.7039249345499528 0.08351221521993679 L1.7111596355499117 0.12454330221997267 L1.72170162654988 0.13859929121998604 L1.7660400055499181 0.13963282021996903 L1.7808194655499463 0.1505882232199518 L1.8098616205499312 0.19885401121996082 L1.818129849549969 0.20443506621989727 L1.849342414549973 0.20939600321993268 L1.8501191295500021 0.20965329022000034 L1.8658788735499527 0.21487370621992952 L1.880968391549949 0.22293522821992084 L1.8811961725499842 0.22310941321994093 L1.8950243805499625 0.2336839262199355 L1.907840136549943 0.2473265052199416 L1.948044400549982 0.309648282219964 L2.0030281245499353 0.3591543042200094 Z" fill="black" stroke="black" stroke-width="0.5" vector-effect="non-scaling-stroke"/></svg>