<svg xmlns="http://www.w3.org/2000/svg" viewBox="0 0 4.1739088204200065 4.302523393799992"><path d="M0.040920674709999716 1.6881575468999745 L0.07261583071006861 1.6736324068999853 L0.08036729671007059 1.6690332038999447 L0.0782485627099927 1.6437117529000478 L0.08243435371001873 1.6267618828999577 L0.10982286271006636 1.6112072768999344 L0.11938300271005708 1.5947741708999548 L0.12558417471006145 1.5758089209000037 L0.12780626071005052 1.560874431900034 L0.12418891071006577 1.5407206228999701 L0.1273928497100396 1.5340543629000525 L0.14920030371006554 1.5316255708999922 L0.15664170971009206 1.5289383958999725 L0.1619643827100301 1.5235123708999954 L0.16397976371006528 1.5147790539000159 L0.16067247170999188 1.5022216809000088 L0.14651312971004948 1.4791739928999466 L0.14387763171003165 1.4687353528999143 L0.14697821771004804 1.4649629728999845 L0.16506496871007492 1.4483231618999657 L0.1998948837100354 1.394011231900011 L0.21689643071007048 1.3904972338999517 L0.29921698671002694 1.3534969089000004 L0.30784695070999213 1.3453837088999894 L0.37289332471001124 1.2623837248999354 L0.3907876247100912 1.2395503748999506 L0.5392023387100462 1.1226582858999752 L0.5800783967100269 1.0998173018999768 L0.6181122507100749 1.091083985900001 L0.6313930937100647 1.085399577899965 L0.642503526710092 1.0767179379000016 L0.6530812077100077 1.0638934018999908 L0.7865257437100208 0.9021032718999624 L0.8245079217100422 0.8700122079000341 L0.87168850471007 0.844535727900011 L0.8789748807100377 0.8420552588999488 L0.9019192167100041 0.8385412608999889 L0.8994387477100272 0.5967989108999934 L0.9008856877100211 0.5850683609000118 L0.9049681257100044 0.5757149268999786 L0.913959825710057 0.5683510348999778 L0.9392812777100428 0.5544242358999885 L0.9499266217100253 0.5443731698999574 L0.9731293407100363 0.5015075689000117 L0.9878571237100484 0.4832916268999572 L1.0113699007100276 0.4717419449000193 L1.031368679710047 0.46871887290000025 L1.1120355897100662 0.46830546189998934 L1.1325511337100433 0.4654632578999287 L1.1521881777100784 0.45936543889996706 L1.1715668407100477 0.4482291678999406 L1.1961648217100471 0.4244580088999772 L1.1989553487100775 0.40593200790003614 L1.1911005317100685 0.3860365819000311 L1.1838141547099976 0.3578212488999686 L1.1858295357100328 0.33529032589994934 L1.2034511997100221 0.29723063289999807 L1.2341986767100561 0.17462829689999815 L1.2348704707100548 0.1229518648999619 L1.2457741967100073 0.12346862889998711 L1.256264512710052 0.12165995389999473 L1.2768317337100452 0.11383097489997063 L1.2846865507099974 0.13052246190000183 L1.3014813907100429 0.12098815990001022 L1.3352777787100276 0.08799275789995598 L1.3522276477100288 0.08292846789997732 L1.3691258407100317 0.0832902028999758 L1.4260215937100806 0.09747538289993152 L1.4410077587100627 0.10607950989997228 L1.4478290477100213 0.12070393989994166 L1.4377521427100728 0.1676261408999853 L1.442092963710044 0.1809328219000026 L1.455425483709993 0.18540283389993029 L1.476716172710061 0.18191467389996951 L1.516920437710004 0.1582727068999521 L1.555987820710092 0.12801615489994056 L1.5729376897100078 0.11923116189994865 L1.5889573837100581 0.11414103289996724 L1.6057522247100362 0.11191894690004922 L1.6252342387100125 0.11166056489997978 L1.6301951777100694 0.1109370938999934 L1.6443028437100136 0.10721639089998014 L1.6489537227100666 0.1094901538999995 L1.6536046007100165 0.114037679900024 L1.6584621857100412 0.12052307289998687 L1.6674022077100599 0.11788757489998325 L1.6854889587100015 0.10855997789994554 L1.710293646710019 0.10132527789997603 L1.7116372337100838 0.09478820890000073 L1.7082782667100869 0.08711425890001756 L1.7082524277099846 0.07910441190003503 L1.7150995547100276 0.0703969328999694 L1.7222825797100736 0.06303304189997228 L1.7270884867100076 0.05450643090004981 L1.726520046710041 0.04218160189999942 L1.7435215927100582 0.04455871789996202 L1.7540635857100337 0.05760701589999151 L1.7597996687100785 0.07486694389999293 L1.7662075467100262 0.1217116309000108 L1.7708067497100526 0.1395141618999549 L1.7811937127099977 0.157084147900024 L1.7949913197100411 0.17194112289996788 L1.798918728710012 0.1693056249000353 L1.799125433710051 0.15488790090002347 L1.801605902710028 0.1342431649000151 L1.8138532177100526 0.12031636690002934 L1.8335936147100167 0.12052307289998687 L1.8535923937100645 0.1297214768999897 L1.866563178710086 0.1427697768999412 L1.871989203710049 0.16416381889995257 L1.8637209747100112 0.1761269138999939 L1.850595160710034 0.18519612689996912 L1.8411900497100842 0.19793436789993457 L1.8398464627100193 0.21604695689994635 L1.8487348087100397 0.21883748490000876 L1.8637209747100112 0.21547851689999398 L1.8809809027099984 0.215013428899967 L1.889042426709997 0.21594360390001732 L1.8975690377100047 0.21485839990002553 L1.904958767710033 0.2112410498999413 L1.9097646757100133 0.20465230389994993 L1.9169476997099846 0.19669413389998347 L1.9250608997100667 0.20248189389995908 L1.9379283307100845 0.22028442490000266 L1.9880544707100025 0.24126505590000313 L2.005624457710061 0.2537965919000005 L2.0127558047100162 0.2614188648999818 L2.0179751247100253 0.26410603889999784 L2.005624457710061 0.2714440928999995 L2.0014903427100332 0.27320109189997943 L1.9948240837100482 0.27689595689997937 L1.9886229117100438 0.281856893900029 L1.977719183710084 0.2929931658999596 L1.9869175887100905 0.30159729189999673 L1.9919818797100586 0.31213928289996495 L1.9958576117100133 0.3231722018999523 L2.0014903427100332 0.3331715908999673 L2.006347927710058 0.3375124118999526 L2.0079498967100076 0.34198242289996195 L2.006296250710042 0.34652994890000066 L2.0014903427100332 0.3509741229000003 L1.9916718207100725 0.3667871109000078 L1.985212266710013 0.39526082490003667 L1.9869692647100887 0.4220808929000288 L2.0014903427100332 0.43270039990001585 L2.025778265710036 0.43760966089995357 L2.0357001407100395 0.442880656899975 L2.0390074327100276 0.45479207390001086 L2.0390591097100437 0.46629008089993995 L2.0573008897100262 0.5387921149000352 L2.0552338327100497 0.5491532408999564 L2.0443301057100793 0.5672141528999664 L2.0428831657100854 0.5787638358999931 L2.0549237737100636 0.564113566900021 L2.065569118710064 0.5558194998999699 L2.0761627877100377 0.5570080578999939 L2.087841661710021 0.5706764738999954 L2.092957628710016 0.581399333900011 L2.094766303710079 0.5917862968999419 L2.0925442167100723 0.6017598478999577 L2.085361192710044 0.611009929899966 L2.084013817710021 0.614108891900047 L2.071098496709956 0.6575187188999951 L2.068669705710013 0.6997383638999697 L2.078436550710043 0.7413378918999758 L2.1014325627100074 0.7831441259000247 L2.1274258087099636 0.8161136888999909 L2.1361074487100122 0.8331669119000242 L2.161635606710055 0.8656713878999529 L2.1507318797100847 0.8914062508999496 L2.1408616807100227 0.9270113129000226 L2.142411973710031 0.9606526708999628 L2.163599310709989 0.9851472999000084 L2.1526955837100186 0.9933121758999466 L2.1441172957099948 1.006231283899952 L2.138329535710019 1.0213208019000337 L2.1334461127099953 1.0480375168999974 L2.1262889267100515 1.0593546558999822 L2.1084088817099964 1.0801285819000146 L2.112181260710022 1.0939778658999888 L2.1037063267100304 1.1153202318999877 L2.0810203717100446 1.1490132659000398 L2.0604014757100426 1.1645161958999513 L2.050893012710068 1.1741280118999686 L2.046862250709969 1.1865820328999508 L2.046242133710015 1.2002246108999532 L2.0436066347100077 1.2120068369000467 L2.037405463710021 1.2221870949000238 L2.026398383710008 1.2315405288999717 L2.0300075897100296 1.2343730709000358 L2.03048082171002 1.2347444679000308 L2.0387490507100576 1.2306620289000154 L2.067842881709984 1.2024983738999726 L2.079004991709999 1.1860135918999948 L2.098383653710064 1.2198099788999759 L2.1097524687100613 1.2295251479000076 L2.1248419867100576 1.2077176928999922 L2.1306297477100227 1.2059090178999998 L2.1356940377100013 1.2026017258999975 L2.13786444871001 1.191749675899958 L2.141946885710004 1.1882873548999147 L2.1511452907100104 1.1864786799000218 L2.1678884547100576 1.1860135918999948 L2.182099473710016 1.1879256199000157 L2.189334173710071 1.1905094409000174 L2.1977057567100555 1.195625407899998 L2.2046820757100445 1.2042553728999525 L2.211606716710028 1.224099121900041 L2.2176011827100606 1.2309720879000015 L2.2333108177100396 1.2335042328999908 L2.2673914257100787 1.224512533899956 L2.282765164710062 1.2262695329000213 L2.297234565710019 1.246578369899952 L2.3108254667100905 1.3092102058999746 L2.3356301537100332 1.3318961599000279 L2.3416762967099967 1.3329813649000233 L2.3640263537100363 1.3321028658999854 L2.369633246710057 1.3361853038999971 L2.3702016867100237 1.3534969089000004 L2.3779531527100257 1.359698079899987 L2.3974868437100465 1.3696199558999798 L2.401052516710015 1.3829007988999837 L2.391699082709968 1.41736897889996 L2.4031712517099972 1.4071887218999866 L2.4110210267100367 1.4046022059000354 L2.4166587997100546 1.4027445488999764 L2.4307147897100574 1.400367432900028 L2.4439956327099903 1.3962333179000144 L2.45784491671005 1.386208090899986 L2.470453965709984 1.3748392748999994 L2.4842515727100274 1.3672945158999585 L2.5014081497100644 1.36868977989994 L2.5094696727100736 1.3640905778999741 L2.531638861710084 1.3575276708999997 L2.5360830357100124 1.3570109058999567 L2.539390326710011 1.3413529478999937 L2.5439895297100374 1.3399060078999998 L2.5545315217100235 1.34460856289998 L2.5599058707100735 1.3210957859000008 L2.5727216257100647 1.3288989269000115 L2.5916868767100905 1.3589746108999936 L2.6049160427100073 1.3574243178999712 L2.648220893710052 1.3409395358999934 L2.6592796497100633 1.3345316578999462 L2.6657392037100376 1.3146879088999572 L2.661191677710084 1.2957226568999989 L2.6538019477100843 1.2776875829000023 L2.6517348907100224 1.2606860358999814 L2.6564891227100045 1.249937337900052 L2.6654808217100676 1.2360880548999962 L2.6836967637100226 1.213712159899929 L2.6930760367100586 1.2077693689000046 L2.7094057897100097 1.2030668138999392 L2.7178807247099908 1.195367025900028 L2.7216531037100165 1.1864786799000218 L2.723151719710037 1.1660664888999737 L2.726717393709995 1.156764730899953 L2.7327118597100277 1.1518554699000152 L2.76061713371009 1.135163982899984 L2.7775670037100237 1.1170255548999553 L2.7874888787099987 1.0988871268999265 L2.791364610710067 1.079043376899934 L2.7902794057100575 1.0557373058999975 L2.7875922307100236 1.0511897798999588 L2.7830963817100294 1.0498978689000058 L2.779065619710016 1.0480891938999282 L2.7779287377100186 1.041888021899938 L2.7797374127099967 1.0361519388999785 L2.7856285267100898 1.0258166518999747 L2.7870754667100837 1.020132243900024 L2.7895300977100614 0.985560710899934 L2.796428900710046 0.9648384608999994 L2.822628851709956 0.9331608088999861 L2.8305353467099987 0.9132137058999792 L2.949701199709997 0.9193632008999533 L2.9443268497100146 0.9568286139000168 L2.950579698710035 0.9841654478999562 L2.969286567710091 1.006799723900004 L3.001480984710062 1.0304158539000117 L3.0316600207100546 1.0495878109000234 L3.073466254710004 1.0704650888999954 L3.091501328710015 1.105656739899958 L3.111965195710061 1.1762984229000484 L3.124057481710045 1.2732434088999884 L3.1294318307100095 1.2926220718999577 L3.136046413710025 1.3045593269000069 L3.153099636710058 1.3286922218999582 L3.1595591907100893 1.3418697108999442 L3.167414008710031 1.372875570899966 L3.1721165637100253 1.38078206489992 L3.184105495710062 1.395716553899975 L3.188136257709962 1.4035713719000018 L3.1886530217100155 1.4101859549000029 L3.1865342887100407 1.4228466808999531 L3.1873611107100626 1.429254558899986 L3.1908751087100224 1.4355074068999887 L3.205602891710006 1.4502868669000026 L3.211752387709984 1.4606738289000152 L3.2144912377100265 1.4699755868999507 L3.215886501710022 1.494366862899982 L3.2329914007100538 1.5897098808999761 L3.23045925571005 1.613791098900025 L3.222966172710036 1.6231962088999854 L3.202553982710091 1.6390091978999823 L3.197127956710025 1.6475874849000025 L3.1958877227100597 1.6653125009000167 L3.197127956710025 1.681745606899982 L3.1961977807100563 1.697403565900034 L3.183433702709996 1.7249987808999396 L3.188342963710019 1.7324918638999822 L3.1965078397100424 1.7379178888999594 L3.2013912627100662 1.7437573259000363 L3.2021405707100623 1.7572965509000102 L3.2004869247100114 1.771300863899926 L3.1921153427100446 1.8013248708999772 L3.1796096467100394 1.8303153489000454 L3.165346950710065 1.852226156900004 L3.0754606767099997 1.9522670358999523 L3.0557929147100165 1.9741566989000336 L2.983549261709973 2.031233318899952 L2.9699583607100717 2.0475372328999715 L2.9676329207100505 2.047433879899957 L2.950993109710046 2.0566581228999627 L2.9499079047100363 2.056968181900034 L2.950993109710046 2.0585184738999676 L2.9464972597100054 2.0724452728999427 L2.9443785267100306 2.0767344169000115 L2.939779324710079 2.07955078189997 L2.927738715710026 2.081514486900007 L2.9229844837100156 2.0836848968999977 L2.8983865017100268 2.1147424328999467 L2.91525885771002 2.115827638900031 L2.9249998637100614 2.1178946948999897 L2.9490294057100837 2.1171712258999964 L2.960604925710035 2.1205560319000103 L2.9717670357100783 2.130374553899985 L3.001480984710062 2.1699845389000405 L3.019877793710057 2.1762115488999445 L3.032331814710025 2.166005453899972 L3.0401866317100623 2.147427775900015 L3.0447341577100158 2.1289276138999913 L3.049591742710012 2.1205043548999942 L3.0558962667100413 2.1246901459000345 L3.067471788710085 2.139650473900007 L3.0988393827100165 2.156367798899952 L3.112016872710077 2.1712506118999944 L3.1106216087099963 2.17703837189997 L3.1032318797100142 2.183394572899987 L3.0980642357100887 2.1999310318999807 L3.0998729107099816 2.209387818899957 L3.108864610710034 2.22765543690001 L3.1111383737100393 2.235329386899993 L3.106125759710002 2.244398600899972 L3.0969531927099947 2.2494887299000386 L3.093413357710025 2.2555865489 L3.1052989367100476 2.267549642900052 L3.1160476347100623 2.2571368419000226 L3.1282949487100122 2.252485963899959 L3.140542263710037 2.252847697899968 L3.1511359327100106 2.257498576900021 L3.164158393710059 2.2465173348999503 L3.1744936797100447 2.250625611899965 L3.184157172710078 2.2616068539000356 L3.1947508407100624 2.271115316899925 L3.199608425710002 2.2705985518999814 L3.20291571770999 2.2660510268999463 L3.207101508710016 2.262950440900001 L3.2143878847100122 2.266929525899984 L3.2194004997100674 2.274991049899983 L3.22053738070999 2.2831817639000054 L3.22053738070999 2.290080567899979 L3.222035997710085 2.2942146819000033 L3.2311310487100595 2.2975219738999915 L3.3086198597099976 2.315040283899963 L3.3205312767100477 2.319432780900046 L3.3313833277100766 2.325737305899965 L3.3380495877099943 2.330724080900014 L3.346524522710089 2.333566284899989 L3.362750922710026 2.3333595799000353 L3.376496852710053 2.3300006119000205 L3.3988210727100263 2.31767578289997 L3.4104999467099812 2.312895711899971 L3.457008734710021 2.306436157900011 L3.484087185710072 2.305816041899961 L3.5013987897100005 2.3097951269000294 L3.5177285427100085 2.320879721899944 L3.58222072971005 2.3361501068999946 L3.5875950797100895 2.336821900899979 L3.591884223710073 2.335064901899999 L3.59656094071004 2.3337729918999504 L3.6027362737100272 2.3358400479000085 L3.604441596710066 2.339147339900011 L3.6070770947100836 2.350800375899981 L3.6105394157100275 2.3555804458999763 L3.654981147710023 2.3911855078999498 L3.6704840767100304 2.4100990808999843 L3.6729645457100073 2.4236124688999627 L3.6597353787100158 2.46218892489995 L3.655084499710048 2.483195395900042 L3.6526040317100605 2.5058813489000062 L3.6552912057099913 2.5260868338999973 L3.6661949337100648 2.5400136328999867 L3.6666083447099904 2.5353369149000162 L3.6762201607099794 2.5302209488999257 L3.68872585671007 2.5268619799000067 L3.697717556710037 2.527482097899979 L3.7074327257099835 2.536370443899999 L3.7114118117100556 2.5455430108999924 L3.7146674267100277 2.5683323178999746 L3.717871364710012 2.5718979908999575 L3.7232457147100515 2.573499960899982 L3.7283616817100462 2.5760837818999835 L3.7306354447100514 2.5824658209000138 L3.728516709709984 2.587788493899966 L3.719369981710022 2.5928269458999456 L3.71714789571009 2.597426148899986 L3.716424424710018 2.6258481869000025 L3.717457953710001 2.6331087248999854 L3.730480414710021 2.649412638900005 L3.7699612097100523 2.6699798588999943 L3.7821568467100715 2.6819429528999468 L3.799933539709988 2.706825155900008 L3.8138861767100902 2.699693807899978 L3.825565050710045 2.6798500578999853 L3.8366238067100564 2.6666467298999965 L3.8430833607100308 2.671840210900003 L3.853987087710001 2.684475098900025 L3.868766547710001 2.6962831638999507 L3.886491563710015 2.698970337899981 L3.887990180710025 2.7026393648999676 L3.908609076710027 2.7138789889000225 L3.911347927710059 2.7144474298999786 L3.932948676710046 2.723878378900041 L3.9380129667100245 2.7303896089000137 L3.9298997667099993 2.7408024098999437 L3.9375995557100136 2.74723612589999 L3.9508287227100904 2.7638500988999954 L3.9579600697100457 2.7677258319000533 L3.9695355907100716 2.7621447768999463 L3.9819120967100528 2.751731975900002 L3.9893276637100623 2.7487347429 L3.9860203717100458 2.7655554208999735 L4.001523301710071 2.768345947900018 L4.008292914710003 2.7813942478999696 L4.013202175710054 2.7954760748999963 L4.022710639710018 2.801393026900003 L4.030462103710041 2.7937707529000324 L4.035423041709995 2.7773634858999703 L4.038523627710012 2.747701213900017 L4.070563014710038 2.761628012899992 L4.075058865710039 2.796302898899926 L4.068547634710077 2.8385225428999963 L4.067617458710023 2.875212810899969 L4.086065944710034 2.9536059578999687 L4.0991437297100415 2.9798205258999406 L4.120430772710071 3.0224906428999834 L4.132988145710007 3.038613688899959 L4.112007514710077 3.0351772068999328 L4.105186224710044 3.047217814899996 L4.109992133710042 3.066183065899951 L4.123479681710014 3.0835980238999827 L4.103635932710025 3.0847607428999897 L4.097124701710035 3.0844506849000073 L4.107254490710025 3.0941602409000257 L4.108958604710059 3.0957936608999876 L4.103635932710025 3.104087728899957 L4.091957058710042 3.1134153258999806 L4.084722357710083 3.1280139168999472 L4.085394151710053 3.1656601978999834 L4.080898301710041 3.176253866899957 L4.066893988710026 3.1688641368999573 L4.067152371710014 3.184806315899978 L4.071079779709967 3.2026605238999384 L4.0780044217100535 3.219765422899984 L4.087409531710014 3.233278809899959 L4.10224066871003 3.2415987158999133 L4.11273098371 3.23958333389996 L4.120172390710016 3.241133627899986 L4.125650092709995 3.259892172899983 L4.128285590710012 3.2791933199000187 L4.127355414710044 3.290432943899974 L4.121515977709967 3.3007940688999913 L4.109423692710001 3.3177180998999933 L4.10699490071004 3.3244101979000096 L4.103325873710039 3.3408691418999883 L4.098313259710059 3.3471219898999767 L4.088598090710027 3.3514369719000445 L4.086272650710006 3.3475870779000036 L4.086220974709979 3.340042318899963 L4.0830170357100055 3.333505250899977 L4.081931830710024 3.328285930899968 L4.086996120710088 3.323324993900018 L4.088598090710027 3.319423421899957 L4.077177598710014 3.317408041900011 L4.074697130710055 3.3201985688999702 L4.048858913710026 3.334125366899956 L4.041417507709999 3.343349610899965 L4.03718004071006 3.3524188239000114 L4.02663804771 3.385388388899985 L4.034854600710039 3.4325172948999825 L4.034079454710016 3.449337972899956 L4.028188340710008 3.4669079598999293 L4.001264919710016 3.515768026900007 L3.9871830917100706 3.510186972899989 L3.9702590607099832 3.5098769128999994 L3.953877631710034 3.5174216728999586 L3.9413202587100127 3.535508424899975 L3.93894314271005 3.5528458668999736 L3.9467462837100893 3.610697632900001 L3.9469013127100165 3.610697632900001 L3.9455060497100387 3.632195028899945 L3.9524823677100382 3.6459926358999883 L3.961784125710059 3.6591442888999683 L3.9675202097100364 3.6785229498999303 L3.9675718867100525 3.693689982899956 L3.963644476710064 3.6933282478999576 L3.955324571710028 3.6874112969000397 L3.9421470807100345 3.6860160328999587 L3.911606310710047 3.71014892690002 L3.91114122271002 3.719579875899983 L3.9182725697100604 3.7504823828999765 L3.9168773057100648 3.7617736828999444 L3.911244574710045 3.7824442558999625 L3.911109843709985 3.7902137858999527 L3.911089545710089 3.7913842788999847 L3.916102159709956 3.802933960899937 L3.923698595710013 3.810142823899982 L3.93155341271005 3.816033936899986 L3.937547878710083 3.8232944758999583 L3.9402350527100136 3.8322861749000072 L3.9446275497100114 3.8842209889000134 L3.9402350527100136 4.098238933899966 L3.9416819937100254 4.1072306329 L3.9443691677100414 4.116454875900006 L3.9461778437100374 4.12686767689995 L3.9442658157100166 4.152189128900021 L3.951397162710057 4.172368775899999 L3.952792425710035 4.18174804789996 L3.9496918407099795 4.19164408489995 L3.9392532007100467 4.210299276900004 L3.937909613709982 4.220427857899965 L3.943335639710048 4.23218424589996 L3.976440226496228 4.254732629002591 L3.976101338710029 4.254807937899971 L3.9238552447100314 4.260341791899991 L3.90888128670999 4.258144526899985 L3.88544378670999 4.248297520900012 L3.872667093710012 4.246059565900014 L3.8043890987099953 4.246059565900014 L3.7960883177099927 4.242885737900012 L3.79169378670999 4.235805658900022 L3.788479268709997 4.228766270900012 L3.78388128670999 4.225551752900019 L3.7676052447100314 4.224331049900018 L3.728379984710008 4.208665359899969 L3.7160915727100328 4.201259760899989 L3.7047797237099953 4.191494135899989 L3.698838968710012 4.180385737900012 L3.6933051147099913 4.166835932899987 L3.6842312217099984 4.155361323899983 L3.6542019247099997 4.146206049900018 L3.630276143709997 4.127407221900016 L3.6190863647099913 4.123134760899989 L3.602566182710026 4.121059565900014 L3.592678486710005 4.1158919218999745 L3.5849066767099966 4.109218744899993 L3.575100361710005 4.1027083289000235 L3.5572374067100068 4.095546869899993 L3.5139431357100275 4.084072260899989 L3.4796006877100094 4.078823237900012 L3.41677516671003 4.054287104899986 L3.2950710647100063 4.039516596900016 L3.2597927447100314 4.027594395900012 L3.2169053747100147 3.9803124948999926 L3.2010769247099997 3.9723779249000177 L3.1817491247100147 3.9687565059000054 L3.078559020709994 3.9314029899000094 L2.9671495157100107 3.8527083289000235 L2.909573018709997 3.8206445268999847 L2.770046650710034 3.7698632768999847 L2.73895941170999 3.75326171389999 L2.6688096717100134 3.6940169218999745 L2.6427680057099874 3.6774560499000177 L2.61200628670999 3.6632552039000235 L2.6015896197100314 3.6613020789000235 L2.5810004267099966 3.6521874948999926 L2.550320088710029 3.6474674429000107 L2.5257839557100024 3.6400618438999732 L2.5023057657100107 3.6291162059000204 L2.48513454171003 3.6161360628999706 L2.4883897497100147 3.6139387968999745 L2.48904079171003 3.6132877559000054 L2.489284932710026 3.6121484328999873 L2.4913194377100094 3.6086490839000067 L2.4474555057099874 3.5966048128999706 L2.4121364947100314 3.5760156198999926 L2.354844827710016 3.52669921389999 L2.339016377710001 3.516567377900019 L2.3043484087100037 3.500169265899972 L2.2731390987099953 3.4770165969000164 L2.2551540727100328 3.470302729899986 L2.2383897497100147 3.4618391878999706 L2.225124775710034 3.444098302900004 L2.238145609710008 3.444098302900004 L2.2249620157100107 3.425950515899972 L2.204861104710025 3.4149641878999706 L2.182644307710026 3.4065820268999847 L2.1630316767099966 3.396409500900022 L2.046291768709997 3.2871158809000054 L2.0391709997100147 3.272223302900004 L2.0285915727100328 3.235927729899986 L2.0196397497100147 3.2181868438999732 L2.0090603227100328 3.207973627900019 L1.9928249717099984 3.1967838499000027 L1.97528753670999 3.187750645900012 L1.9605984087100037 3.184088536900008 L1.95770941170999 3.1825423128999706 L1.9294704797100248 3.1768456988999834 L1.923448343710012 3.1772525999000027 L1.9221462607100275 3.167568354899986 L1.934027770709994 3.1526757768999847 L1.9363877967100134 3.143072911900008 L1.9201117557099874 3.1192285108999886 L1.8203396197100314 3.0612044218999745 L1.6749945677099927 2.922125645900012 L1.5374620157100107 2.8094954378999706 L1.5018988647099913 2.769456375900022 L1.4944932657100107 2.7633528598999693 L1.4771592817100068 2.75326171389999 L1.4708930057099874 2.7458561149000094 L1.4680446977100328 2.7358056589000217 L1.4723171587100037 2.7231103469000164 L1.4708930057099874 2.7111474559000204 L1.4615749717099984 2.695807286900008 L1.445827900710034 2.6827864539000235 L1.4280056357100275 2.6735904899000094 L1.4128689167100301 2.6701318309000204 L1.4021267297100248 2.6642724559000204 L1.331407327710016 2.6084863238999834 L1.2905544637100288 2.5639713499000027 L1.237209736710005 2.53060546389999 L1.2189398807099874 2.522670893900015 L1.1810980837099887 2.5153466749000177 L1.163438577710016 2.50521483889999 L1.1529812217099984 2.4919091749000177 L1.155626077710016 2.4783593698999926 L1.1648220417100301 2.4840559848999693 L1.1726345417100301 2.484869786900008 L1.1789821977100328 2.4808007768999847 L1.1835394897099913 2.4715234328999873 L1.163479268709997 2.466966140899972 L1.14911566170999 2.4557763629000124 L1.1365017297100248 2.4422265578999873 L1.1214870807100024 2.4305891878999706 L1.0889756877100094 2.410569656900025 L1.0724148147100063 2.4037337188999732 L1.053168395709994 2.402594395900012 L1.053168395709994 2.410081375900022 L1.1049262087099887 2.4365299429000107 L1.1277126667100301 2.4554101518999847 L1.1351589557100024 2.4783593698999926 L1.1199815467100134 2.459723302900004 L1.092230895709994 2.442958979899986 L1.060411234710008 2.430100906900025 L0.8576931357100275 2.380092768900015 L0.7287868857100275 2.314622390899972 L0.7092556357100275 2.2967187448999926 L0.7167426147099913 2.2797509719000164 L0.7215440467100134 2.2879296828999873 L0.7267523807099874 2.2936669879000124 L0.7340359087100037 2.2975732379000124 L0.7447374067100068 2.3002180938999732 L0.7280544637100288 2.2726302039000235 L0.7247585647100063 2.248541661900008 L0.7347683307100024 2.226162104899986 L0.7577175497099997 2.203375645900012 L0.7434353227100328 2.203375645900012 L0.7330186567100068 2.2063053339000067 L0.7247585647100063 2.211350906900025 L0.7167426147099913 2.2176985628999706 L0.6927761437099971 2.169847000900022 L0.659776468710012 2.1347314409000138 L0.6212022497100147 2.1085677039000235 L0.46348740671000677 2.0234033159000138 L0.2840440467100134 1.959479161900008 L0.1639268597100081 1.906419265899972 L0.14223903371000368 1.8807031198999926 L0.14138454171003012 1.8409081988999834 L0.14716253670999002 1.8186914018999847 L0.14846461971003144 1.809332677900004 L0.14883083071000236 1.79623046389999 L0.13515895571000236 1.7707584589000067 L0.1314968467099984 1.765794265899972 L0.11269801870999707 1.760504552900004 L0.09288193771000941 1.7482568309000204 L0.07603623471000809 1.7343001259000221 L0.06631129970999972 1.724208979899986 L0.040920674709999716 1.6881575468999745 Z" fill="black" stroke="black" stroke-width="0.5" vector-effect="non-scaling-stroke"/></svg>