<svg xmlns="http://www.w3.org/2000/svg" viewBox="0 0 16.187111125800016 13.958803587120034"><path d="M2.377265147900074 0.1368510155599978 L2.398042863900015 0.14112899756000274 L2.432385311899976 0.1521560155599957 L2.447115129900011 0.16013127656000847 L2.459810441900016 0.18576604155995824 L2.4751913019000096 0.19658960955999305 L2.5079061449000175 0.20936630255997102 L2.628755754900011 0.22556096355995692 L2.665620988900015 0.2373204035600054 L2.6451131769000096 0.21872502656000847 L2.579927629900011 0.20090276056001244 L2.563244686899976 0.18210393256001112 L2.6114217699000175 0.2050938415600001 L2.719169165899997 0.23524520855997366 L2.952893124899971 0.36024520855997366 L2.994559790899997 0.39674423255999614 L3.032808488900015 0.406387786559975 L3.0970174739000083 0.4421543885599988 L3.1760376558999734 0.474991302559971 L3.220471249899971 0.48540796955998644 L3.601981665899997 0.5195062765600085 L3.6965454678999787 0.5137282815599917 L3.9466268489000083 0.4517165625599944 L3.9876424739000083 0.435928802559971 L4.0198690359000135 0.4140782165600001 L4.036877499899971 0.40532984455998644 L4.059908098900008 0.40183049556000583 L4.1292440359000135 0.3994297785600054 L4.223889217899979 0.41383407556000407 L4.235282446899999 0.4185134375599944 L4.245699113900015 0.42604110755999614 L4.4436157808999734 0.5152745055599723 L4.489107316900016 0.5246739195600014 L4.659273332900012 0.5184483335599737 L4.702486223900008 0.5239821875599944 L4.7874471609000135 0.545303802559971 L4.8633748949000175 0.5735020445600014 L5.047701066900016 0.6003982035599904 L5.057466691900016 0.6035720315599917 L5.075533098900008 0.6177321875599944 L5.0814738538999915 0.6208653255600041 L5.098482316900016 0.6271722915599582 L5.134615129900011 0.6577712505599891 L5.189302629900011 0.687637786559975 L5.276216691900016 0.7512364195600014 L5.321545467899979 0.7926996355600124 L5.341646379900011 0.7990472915599582 L5.503755754900011 0.822403411559975 L5.5197876558999734 0.8298090105600124 L5.535087134899994 0.8413243105599975 L5.578869686899976 0.8617914325600111 L5.598970598900008 0.867325286559975 L5.7832967699000175 0.8741612245599697 L5.98691005190001 0.9052891535600054 L6.032157446899999 0.9194086205600058 L6.0541301038999915 0.9225824485600072 L6.068127499899971 0.9282790625599944 L6.105399634899994 0.9709629825599961 L6.141857967899979 0.9892328385599569 L6.155204321899999 1.0007888285599904 L6.1643189058999734 1.0371657815599917 L6.172945207900012 1.057266693559967 L6.1947551038999915 1.093887786559975 L6.2366659109000135 1.1433669535599904 L6.242606665899997 1.1589919535599904 L6.24081630190001 1.180069427559971 L6.231783098900008 1.2159580995599697 L6.22901617089998 1.2564040625599944 L6.227388566900016 1.2795567325599961 L6.233247941900016 1.3527582295600098 L6.242606665899997 1.38868759156 L6.362561092899979 1.6532139585599737 L6.386568254900011 1.6897129825599961 L6.494966691900016 1.8208164975600027 L6.559663957900012 1.8802647395599763 L6.633638566900016 1.9299473575599961 L6.916760311899976 2.042536875559989 L7.2308065359000135 2.0909580995599697 L7.60019130190001 2.0942539975600027 L7.814058488900015 2.13478134156 L8.032482967899979 2.1992751565599917 L8.202730363900015 2.2315830995599697 L8.23804937489997 2.2314610285600054 L8.247163957900012 2.235001068559967 L8.254162655899973 2.2393142195599864 L8.29078374989997 2.2559157815599917 L8.319429582900012 2.2793532815599917 L8.329927629900011 2.284724375559989 L8.338960832900012 2.2881016535600054 L8.48609624989997 2.3255772395599763 L8.563895728899992 2.3584141535600054 L8.64820562489997 2.3828689065599917 L8.720796769900018 2.3944248965599684 L8.733817603899992 2.404434661559975 L8.761324113900015 2.440160573560007 L8.779634660900014 2.454564870560006 L8.798921769900018 2.46290634156 L8.889009660900014 2.4801996355600124 L9.04745692690001 2.531998138559999 L9.080497290899997 2.54884384156 L9.107841040899997 2.571264088559957 L9.196382707900012 2.6611892195599864 L9.440523332900012 2.8180088805599723 L9.495454973900008 2.8723301695600014 L9.525321509899994 2.8957676695600014 L9.591402238900015 2.9265700785599904 L9.633150285900014 2.933853607559996 L9.652681535900014 2.942154388559999 L9.798107967899979 3.024714609559993 L9.840181535900014 3.040339609559993 L9.928967342899979 3.0518955995599697 L10.01816005190001 3.053360443559967 L10.11191005190001 3.0440830995599697 L10.16383062489997 3.031021575560004 L10.21070562489997 3.0192621355600124 L10.291109269900018 2.984838307560011 L10.402681535900014 2.9212803645599763 L10.423189348900008 2.9131423445599864 L10.468192603899992 2.9060622655599957 L10.488537655899973 2.8967035415599582 L10.621024634899994 2.8071446225600027 L10.786470598900008 2.635147552559971 L10.830334530899973 2.56837509156 L10.854341691900016 2.539444427559971 L10.890881405899973 2.514297943559967 L10.908622290899997 2.498998463559957 L10.972017473900008 2.383072357559996 L11.018811092899979 2.2725173445599864 L11.024507707900012 2.2298741145599763 L11.018811092899979 2.1012933855600124 L11.000256405899973 2.0750889585599737 L10.975435441900016 2.009333750559989 L10.954357967899979 1.9814610285600054 L10.910494035900014 1.9421950785599904 L10.894380754900011 1.9212803645599763 L10.826997941900016 1.7586013285599904 L10.821057186899976 1.7170567325599961 L10.820162004900011 1.6729893495599697 L10.816499894900018 1.656631927559971 L10.799084530899973 1.618912200560004 L10.792818254900011 1.6003575135599988 L10.789400285900014 1.5588536075599961 L10.791841691900016 1.5134027605600124 L10.806490129900011 1.4296625265600085 L10.820162004900011 1.3921055605599975 L10.817964738900015 1.3820957945600014 L10.813895728899992 1.3711501565599917 L10.81226812489997 1.360326588559957 L10.816744035900014 1.350560963559957 L10.829357967899979 1.3353428645599763 L10.920178280899973 1.172012786559975 L10.943697160900014 1.1416579695599864 L11.133882707900012 0.9785313415600001 L11.1493449469 0.9572504165599582 L11.197603410900014 0.9082595315599917 L11.217867082900012 0.8981683855600124 L11.257662004900011 0.883438568559967 L11.275484269900018 0.8707432555599723 L11.288912004900011 0.8586176045600098 L11.434826717899979 0.7602289325600111 L11.668713436899976 0.6750645445600014 L11.806245988900015 0.5954747005600041 L11.923107967899979 0.5457920835599737 L11.968843644900018 0.5370030215599684 L12.158947811899976 0.5469314065599917 L12.2040324469 0.5434320575600111 L12.286958879900011 0.5246739195600014 L12.32675380190001 0.5055088805599723 L12.480806535900014 0.38734481855996705 L12.495373592899979 0.3813226825600111 L12.5438761969 0.3781895445600014 L12.58847255190001 0.36769149756000274 L12.61581630190001 0.38722274756000274 L12.659598853899992 0.40211532556000407 L12.708264217899979 0.4115147395599763 L12.749605363900015 0.4148513285599904 L12.968355363900015 0.3949945575600111 L12.973482316900016 0.39165796955998644 L12.983980363900015 0.37717229155995824 L12.98886317690001 0.37391708355997366 L13.010998592899979 0.3704991145599763 L13.021740780899973 0.3701329035600054 L13.033540910900014 0.37391708355997366 L13.04159755190001 0.3798578385599569 L13.043225155899973 0.385147552559971 L13.043225155899973 0.3918207295600098 L13.047212785900014 0.40183049556000583 L13.078951066900016 0.42994735755999614 L13.119478410900014 0.43723088556001244 L13.211763566900016 0.435928802559971 L13.251314348900008 0.4477289325600111 L13.349458879900011 0.5110020445600014 L13.36890874989997 0.5207676695600014 L13.385998592899979 0.5271153255600041 L13.404390519900018 0.5305332945600014 L13.451021379900011 0.5334629825599961 L13.684663957900012 0.5935622655599957 L13.73886317690001 0.6239170835599737 L13.756685441900016 0.6283116145599763 L13.767997290899997 0.6298985285600054 L13.80136317690001 0.6413731385599988 L13.814790910900014 0.6430414325600111 L13.849051978899992 0.6413731385599988 L13.871838436899976 0.6475173445599864 L13.913505103899992 0.6655430605599975 L13.958589738900015 0.6716058855600124 L13.97828374989997 0.6782383725600027 L13.99081630190001 0.6887364195600014 L13.9930949469 0.7028558855600124 L13.987398332900012 0.7131504825599961 L13.970064348900008 0.7314203385599569 L13.96656499989997 0.7406976825600111 L13.976005103899992 0.8017328385599569 L13.985445207900012 0.8172764585599737 L14.000826066900016 0.8296055605599975 L14.021089738900015 0.839981536559975 L14.013114478899992 0.859512786559975 L14.00058192690001 0.9225824485600072 L13.980806535900014 0.9157465105600124 L13.984305884899994 0.9061436465599684 L13.982027238900015 0.897761484559993 L13.9755168219 0.8899082945600014 L13.96656499989997 0.8816075135599988 L13.951265519900018 0.9636387635599988 L13.952730363900015 0.9840245055599723 L13.9677043219 0.994522552559971 L14.028658098900008 1.0145420835599737 L14.051119035900014 1.0181228125599944 L14.067232316900016 1.0264235945599864 L14.086682186899976 1.0456700135599988 L14.102958228899992 1.0674392195599864 L14.115653540899997 1.0974685155599957 L14.12948817690001 1.1043044535599904 L14.145357316900016 1.108373463559957 L14.157564348900008 1.1143142195599864 L14.165376848900008 1.1257481385599988 L14.174654191900016 1.1473545835599737 L14.184338436899976 1.1553298445599864 L14.1825480719 1.138809661559975 L14.171236223900008 1.093887786559975 L14.190523332900012 1.100235443559967 L14.23414312489997 1.1009678645599763 L14.243013566900016 1.1040603125599944 L14.271089738900015 1.1240391535600054 L14.277437394900018 1.1274164325600111 L14.4032511969 1.1366937765600085 L14.541841691900016 1.1348220315599917 L14.712495988900015 1.1689610285600054 L14.87086187489997 1.224177500559989 L14.84742437489997 1.2438715105600124 L14.842867082900012 1.2514805605599975 L14.850923723900008 1.2558344015600085 L14.877046769900018 1.2651524355599975 L14.94003505190001 1.3069004825599961 L14.962821509899994 1.3123122655599957 L15.153088436899976 1.3105219015600085 L15.418225155899973 1.3266351825600111 L15.50839442690001 1.3031976825600111 L15.530692603899992 1.289444427559971 L15.542411353899992 1.2856602475600027 L15.582775936899976 1.2924961855599975 L15.5907511969 1.2905430605599975 L15.598482316900016 1.2867588805599723 L15.605887915899997 1.284927825560004 L15.614025936899976 1.28907821656 L15.618013566900016 1.2918858335599737 L15.630220598900008 1.2981114195600014 L15.644136613900015 1.3013259375599944 L15.663912004900011 1.310318450560004 L15.696545467899979 1.315079193559967 L15.737561092899979 1.328751068559967 L15.853853410900014 1.3501540625599944 L15.890067603899992 1.3690342715599684 L15.905529842899979 1.4017491145599763 L15.896578019900018 1.4414626565599917 L15.894380754900011 1.4633946225600027 L15.901704973900008 1.4811761985600072 L15.935884660900014 1.5139724225599878 L15.989025936899976 1.58009384156 L15.994234269900018 1.597224375559989 L16.008882707900014 1.6255039975600027 L16.028413957900014 1.6550043235600072 L16.02467046789998 1.6582595315599917 L16.023042863900017 1.66159612056002 L15.960575015899975 1.704552669559959 L15.932566389900058 1.738710791560024 L15.89587612289999 1.8236668455600267 L15.733405419899965 1.9377167315599166 L15.721106428900027 1.9694460605600312 L15.720796369900041 2.006032975559961 L15.730718244900016 2.090162206560038 L15.73164842090007 2.17212102756001 L15.754799462900065 2.278987890560032 L15.761724104900038 2.299245051560021 L15.79676072589997 2.361308447560006 L15.809783186900018 2.4123130855599726 L15.85339809590006 2.4926699385599846 L15.867040673899977 2.5329775545600484 L15.860736148900044 2.567497411559927 L15.845749983899976 2.6018105625599475 L15.833347640900014 2.6418081205600146 L15.822805647900038 2.6968435225599734 L15.792523258900031 2.765728205559995 L15.789215966900015 2.7856236325599895 L15.779810855900065 2.819420018559967 L15.760277164900044 2.8537331705600053 L15.701882796899993 2.930524348559956 L15.671600406900053 2.957241064560023 L15.64452195690002 2.9870583655600313 L15.635013492900027 3.00101100256002 L15.618270328900065 3.035324153559955 L15.576825829900015 3.1001780765599705 L15.560806136900068 3.1353180505600022 L15.560496076900064 3.1739203445599884 L15.569487776900031 3.1954694175599485 L15.597703108899976 3.239704442559983 L15.683796045899994 3.4271865395599974 L15.688343570900015 3.449665787560022 L15.687103336899993 3.469509537559915 L15.670360171900013 3.521651057559964 L15.67707810890006 3.563276423559998 L15.728341128899997 3.638594824559945 L15.74281052990001 3.6797292645600095 L15.742707177900071 3.7040688635599537 L15.733715478900036 3.776519221560008 L15.735989241899956 3.815173193559943 L15.745911116900045 3.8497447265600186 L15.828800113900071 4.025392919560048 L15.846473453899973 4.079136408560046 L15.85339809590006 4.136703954559991 L15.85339809590006 4.2601589515600295 L15.85339809590006 4.427900650560005 L15.85339809590006 4.826532649560008 L15.85339809590006 5.2213757175599795 L15.85339809590006 5.299527034560029 L15.85339809590006 5.6515735365599795 L15.85339809590006 5.690252538559989 L15.85339809590006 5.842620499559999 L15.85339809590006 6.18004176355997 L15.85339809590006 6.2688368985599965 L15.85339809590006 6.45811264555995 L15.85339809590006 6.653552912560016 L15.85339809590006 6.9453697265599175 L15.85339809590006 7.237238215560026 L15.85339809590006 7.529106705560011 L15.85339809590006 7.820820165559994 L15.85339809590006 8.11263697855999 L15.85339809590006 8.404505468559975 L15.85339809590006 8.696348119559971 L15.85339809590006 8.988113256559942 L15.85339809590006 9.279930069559938 L15.85339809590006 9.571798559560037 L15.85339809590006 9.863641210559948 L15.85339809590006 10.155406347560003 L15.85339809590006 10.447274836559913 L15.85339809590006 10.739091650560013 L15.85339809590006 11.030908463559982 L15.85339809590006 11.322725276559979 L15.85339809590006 11.447265478559913 L15.853294742900017 11.571909032559986 L15.853294742900017 11.696500911559937 L15.853294742900017 11.821041112559968 L15.853294742900017 11.945632991559947 L15.853191389900003 12.070224869559993 L15.853088036899988 12.194765070560024 L15.853088036899988 12.319356949559975 L15.853088036899988 12.443948827560021 L15.852984684900049 12.568540706559972 L15.852984684900049 12.693132584560018 L15.852984684900049 12.81772446255998 L15.852881331900006 12.912757421559988 L15.852777978899992 13.00784205756004 L15.852777978899992 13.102978368559988 L15.852674625899978 13.198063004560012 L15.852674625899978 13.309685503559976 L15.852674625899978 13.31601446055997 L15.851744449900009 13.317564754559996 L15.850814273899955 13.319063370559988 L15.849884097900015 13.320613663560025 L15.84895392289995 13.322112280560034 L15.84668015990003 13.322422338559917 L15.84450974990004 13.322654882559974 L15.842339338900059 13.322887426559944 L15.840168928899983 13.32311997056 L15.739399886900072 13.32311997056 L15.593465641900037 13.323042455559985 L15.471302554900047 13.323016617559986 L15.346762353900017 13.322887426559944 L15.213023746899962 13.322784073560015 L15.100059065899968 13.322758235559988 L15.014586246900036 13.322654882559974 L14.853459130899962 13.322654882559974 L14.853459130899962 13.44747930555998 L14.853459130899962 13.572252050559982 L14.853459130899962 13.69705063456 L14.853459130899962 13.821952571560033 L14.72995245790001 13.760896866559946 L14.606445784899973 13.699944514559988 L14.482939111899993 13.638966324559917 L14.359432437899939 13.577910620560019 L14.235925764900072 13.516906591560044 L14.112315738899992 13.45598007756 L13.988912418900055 13.394924372559998 L13.865302391900071 13.333972021559944 L13.741795719900024 13.27296799255997 L13.618289046899958 13.212015640560011 L13.494782372900017 13.150985774560027 L13.371275699900037 13.089981746559957 L13.2477690269 13.028951879559983 L13.124262353899935 12.967999527559996 L13.000755679899994 12.907021338559943 L12.877249006900014 12.846043147559968 L12.753638981900037 12.785013281559984 L12.630235660899997 12.724086767560024 L12.50662563490003 12.663108576559964 L12.38311896190005 12.602027034559981 L12.259612288900014 12.541048844559995 L12.136105614900044 12.480070653559935 L12.01249558890005 12.41904078755995 L11.889092268900027 12.358114273559991 L11.765482242900033 12.297136083560034 L11.64207892290001 12.236106217559964 L11.51857224890004 12.175179703560005 L11.394962223900064 12.11414983756002 L11.271558902900052 12.05306829456002 L11.147948876900058 11.992141780559976 L11.024442203899993 11.93116358956 L10.90093553090004 11.870133723560016 L10.777428857899976 11.809207209559972 L10.653818830899992 11.748177343559988 L10.530415510899969 11.687199152560012 L10.406805484899975 11.626220963559959 L10.283298811900023 11.565191096559957 L10.159792137899968 11.504161230559973 L10.0579903749 11.45389927155999 L10.036285465900006 11.443183040560015 L9.912882145899983 11.38220484956004 L9.7892721189 11.321226659559969 L9.665765445900048 11.260196793559984 L9.542258772899983 11.199270279560025 L9.418752099900031 11.138240413559956 L9.295142072900047 11.077210546559982 L9.171738752899996 11.016232356559996 L9.04812872790002 10.955254165559936 L8.924622053899965 10.894224299559951 L8.801115380900013 10.833297785559992 L8.677608707900033 10.772319596560024 L8.554102034899996 10.711289729559965 L8.430595360900027 10.65031153955998 L8.30698533590005 10.589281672560006 L8.183582015900027 10.52827764456002 L8.060075341899973 10.467325292559977 L7.936465315899978 10.406321263559974 L7.813061994899966 10.34534307455992 L7.6894519699000465 10.284416560559961 L7.565945295899992 10.223412531559987 L7.44243862290004 10.162356827560004 L7.318931949900003 10.101352798560029 L7.195321923900009 10.040348770559959 L7.071918603899986 9.979370580559973 L6.948308577899992 9.918444066560014 L6.857254703900038 9.87335637955998 L6.836790836899992 9.875862686559955 L6.792349104900024 9.896042333559947 L6.734678206899941 9.922138932560031 L6.677007307900068 9.948287206559954 L6.619336408899995 9.974435481560036 L6.561768864900058 10.000557918559949 L6.504097965899986 10.02673203056004 L6.446427066900027 10.052880305559952 L6.388652815900015 10.07902858055995 L6.330981916900056 10.105176854559957 L6.273311018900001 10.131325129559983 L6.215640119900014 10.157499243559968 L6.157969222900034 10.183621678559987 L6.100298323900075 10.209718278559976 L6.042524072900063 10.235814876559957 L5.985059879899962 10.261963150559964 L5.9273889809000035 10.288111425559961 L5.8696147298999914 10.314259700559987 L5.852062371900059 10.322412570559962 L5.851424624900046 10.32270879655998 L5.851321272900021 10.322760473559995 L5.680168928900015 10.40918930655998 L5.5092232918999695 10.495540624560036 L5.338174300900006 10.581891942559977 L5.167021956899999 10.668243261559965 L5.103873355900033 10.700127619560007 L5.088370426900026 10.701781266559962 L5.073797672899969 10.69485662455999 L5.028322411900019 10.657339534559995 L4.903162092900017 10.55437424356002 L4.778208479900043 10.451460627560053 L4.65304816090004 10.348443659559976 L4.527939517900064 10.245452531559991 L4.471715559899975 10.199047094559958 L4.35441005790001 10.138404800559996 L4.2528141929000025 10.11569300856003 L4.164550846900012 10.095978450560054 L4.076287499900031 10.076367243560028 L3.9880241538999552 10.056626847559968 L3.899760806899975 10.036938126560031 L3.811600813900027 10.01724940555998 L3.723337467900036 9.997586522560013 L3.63517747390007 9.97789780255998 L3.546810774900065 9.958183243560015 L3.4586507819000314 9.938494522559964 L3.3704907879000654 9.918831640560015 L3.2821240889000602 9.899194596560008 L3.193964094900009 9.879454198559941 L3.105804101900061 9.859791316559992 L3.0174374029000273 9.840128433560054 L2.929174055900047 9.820465551559991 L2.8410140618999957 9.800725154559942 L2.764532942900031 9.658020686559965 L2.694459700899996 9.527434341559982 L2.5822937889000013 9.317939009559964 L2.580771549900005 9.315095882559987 L2.508631249900004 9.180427099559992 L2.439281477899966 9.051236018560004 L2.4135466149000546 9.020566055559968 L2.380783756899957 9.004262141559948 L2.339393700899974 8.99173777256 L2.0221493159000214 8.89574163355995 L1.7835075518999712 8.82357549655994 L1.5928215168999724 8.76577540655994 L1.5712207678999857 8.761951350560011 L1.5495166669000024 8.764225113560016 L1.4389291019000563 8.801613012559969 L1.3223470708999923 8.841145482560009 L1.2826595698999892 8.84478867156001 L1.263952701900008 8.83809657355998 L1.1324878579000721 8.74143580655992 L1.1144011069000737 8.722961482559995 L1.1018954098999938 8.68813156755995 L1.08432542390001 8.595217341560002 L1.0655152018999967 8.568138890560036 L0.916687076899974 8.488453832559983 L0.904181379899951 8.461737117559935 L0.9021143229000028 8.323011734559955 L0.8976701498999784 8.181676692560032 L0.893536034899979 8.05005681955997 L0.8801001629000051 7.986649837560051 L0.8416528968999852 7.92267441355996 L0.6888973638999811 7.729611262559999 L0.566114160899998 7.57458196655999 L0.41346197890002934 7.381725520559982 L0.2733154949000447 7.204682063559986 L0.24995774790001057 7.149129898559991 L0.2746590819000243 7.10189763956005 L0.2886117189000128 7.085826268559984 L0.30690517590006827 7.0460870925600005 L0.3410116209000318 7.017044937559987 L0.3497966139000379 7.002523860559947 L0.35351731690003696 6.985470637560027 L0.3547575518999917 6.965523535559996 L0.7079142899000157 6.813853205559994 L0.726724511900029 6.793699397560019 L0.7684790698999802 6.665283463560016 L0.7662053058999856 6.644096125559955 L0.7547331378999456 6.61629420556001 L0.7576270189000365 6.581464289559946 L0.7827417639000611 6.474959162560012 L0.7788143549000051 6.460593114560012 L0.7630013669000117 6.448500829560018 L0.7182495769000479 6.426124934559951 L0.7072941729000615 6.417081558559985 L0.6976823569000441 6.397496191560052 L0.6782520188999808 6.292954768560051 L0.5935026689000278 6.026201024559967 L0.5940194338999856 6.009612890559978 L0.5986703129000386 5.993386490559956 L0.6152067709000288 5.953957372559941 L0.628435936900031 5.895046239560045 L0.6426986329000055 5.873858902559974 L0.6857967769000322 5.831587581559987 L0.6937549479000733 5.81238978655999 L0.6838330728999846 5.791538345560028 L0.6692603189000135 5.769162450560046 L0.6660563809000575 5.748336848559987 L0.6906543619000285 5.7323429935599535 L0.7187663409000731 5.718777929559948 L0.7355095049000351 5.6988308265600125 L0.8034270688999481 5.499434362559967 L0.806409569899996 5.4906781575599695 L0.8080632159000469 5.451352391559979 L0.6620256179000545 5.108634293559973 L0.6491065109000385 5.050498307559977 L0.6994291488999931 4.6994296675600395 L0.7234172199000408 4.5320803385600215 L0.7204199869000387 4.342350317559962 L0.6983024739000268 4.189543106559952 L0.6190825034000351 3.949648189059914 L0.5398625328999866 3.7097532715599897 L0.42183356089999613 3.5157599445599743 L0.2938827148999348 3.3493618325599783 L0.24163992690001912 3.2952825735599873 L0.18215826789999134 3.2337099765600357 L0.15869716789999977 3.200947118559938 L0.3918612299000426 3.089170995559968 L0.6156201829000576 2.9867483065599316 L0.6450757488999681 2.979978694559989 L0.7179395189000513 2.975792903559963 L0.743467675899991 2.962925471559956 L0.8678011719000676 2.823554134559984 L0.9733244459000456 2.6763796545599945 L1.0643783209000741 2.5868243975599654 L1.126079980900057 2.47628850955995 L1.1418929689000503 2.435929215559966 L1.1423063809000507 2.4024428875599853 L1.1171916339000187 2.3323696445599325 L1.1127474609000227 2.2969196115599146 L1.1183285159000445 2.2585240235599855 L1.1169849288999796 2.2399205075599156 L1.085358951899975 2.182714697559973 L1.0548698568999963 2.0772947745600305 L0.9802490889000364 1.906245783559953 L0.9783887369000137 1.8888825025600369 L0.9890340819000141 1.8236668455600267 L1.0047437179000678 1.8005158035600317 L1.0686157869000237 1.7394859375599623 L1.1361052078999716 1.6375800125599511 L1.1875749349000397 1.6022333335600507 L1.2999194988999943 1.6034735675599876 L1.354696516900061 1.5849734055599782 L1.3710262688999943 1.5737596195600219 L1.3857023758999798 1.5610472165599703 L1.397691307900045 1.5460093745599721 L1.4145378249000213 1.5114378415599816 L1.4567057938999834 1.477796484560045 L1.4697282549000317 1.4445685385600058 L1.4780998368999985 1.364470067560049 L1.5006307619000108 1.343954524559976 L1.5194409829000346 1.3461249345599668 L1.5374243809000188 1.3548582515599463 L1.555717837899989 1.3610594235599223 L1.5752515298999992 1.3558917805599293 L1.60873785789998 1.3326890615600036 L1.6450147139000375 1.313568781560022 L1.6777775719000498 1.2857151855600506 L1.7180851888999893 1.2062885085599788 L1.7453703449000226 1.1813804685599933 L2.054494598900005 1.0558529615600065 L2.316188215899997 0.9495858315599293 L2.3860547528999927 0.9100791995600019 L2.3982387819000177 0.9002136275599497 L2.418507551900019 0.8838017325599452 L2.4362842449000492 0.8525891675599695 L2.4327702478999935 0.8104987145600404 L2.4095158528999843 0.7745577555599681 L2.3425431968999657 0.7187988845599165 L2.3220793299000047 0.6801190755600004 L2.3213558589000183 0.6250578365599466 L2.3359286128999894 0.5196120765599943 L2.328693911900002 0.4159749915599349 L2.3465739578999614 0.3482013505600179 L2.3470907229000044 0.2922357745600124 L2.3495711919000666 0.2768620355599438 L2.378199934899966 0.18169988555997918 L2.377265147900074 0.1368510155599978 Z" fill="black" stroke="black" stroke-width="0.5" vector-effect="non-scaling-stroke"/></svg>