<svg xmlns="http://www.w3.org/2000/svg" viewBox="0 0 5.993674586747794 2.6068765372200318"><path d="M5.728724106191418 0.8011691841099591 L5.738025863191449 0.8248886671099953 L5.741849920191395 0.8517087351099732 L5.739369450191429 0.878063716109942 L5.729757634191412 0.9001295521100232 L5.710327295191416 0.9175961861099822 L5.685832667191459 0.9336675571099349 L5.666298976191467 0.9519093381099921 L5.661854802191453 0.9759905551099379 L5.680665024191466 0.996919510109926 L5.677461085191407 1.0085467081099964 L5.642011053191464 1.0290105751099574 L5.63343276519144 1.0400693311099687 L5.620203598191448 1.0773280381099752 L5.613278956191447 1.086784826109941 L5.589404444191455 1.112054601109996 L5.5796892751914235 1.1306581171099808 L5.584236801191462 1.1410967561099241 L5.599946437191431 1.1472979281099853 L5.659581039191448 1.1600620061099605 L5.676530909191438 1.1605787711100035 L5.7368889821914415 1.1512770131099828 L5.902822006191439 1.1679168251099767 L5.925766342191462 1.1779937291099358 L5.934913071191442 1.1948402461099974 L5.923854314191441 1.2109632921099873 L5.899773096191392 1.2214536081099467 L5.874094096191424 1.2253836471099575 L5.835280909191464 1.2313238071099235 L5.819881332191482 1.2365431271099325 L5.791149236191483 1.2528212031099528 L5.775336247191387 1.265326899109958 L5.768101547191417 1.2759722441099584 L5.7616936691914695 1.3037224891099797 L5.750531560191444 1.332764644109993 L5.735131983191462 1.3473373981099357 L5.713117823191379 1.3496111611099693 L5.607594548191411 1.3224810341098916 L5.593331853191426 1.3234112091099561 L5.584856918191445 1.3283204701099791 L5.578965804191437 1.3342115841099869 L5.572764633191451 1.3381389921099398 L5.56294611119149 1.3399476681099358 L5.554471176191395 1.3400510201099607 L5.443676905191477 1.3235145631099599 L5.398615056191442 1.3280620881099239 L5.367195786191484 1.3565358021099527 L5.36450861119145 1.3679046181100247 L5.365438786191429 1.3927093051099675 L5.363578435191425 1.404749914109935 L5.358824203191414 1.4132765251099713 L5.322030583191417 1.4594235791099024 L5.304517379191434 1.4748997491099303 L5.287820785191439 1.4896542921099964 L5.272834620191457 1.499214432109902 L5.236764471191446 1.5111516881099405 L5.115324854191453 1.5254660601099417 L5.096721339191401 1.52525935410997 L5.060341130191414 1.5204017691099736 L5.042047673191444 1.520091711109977 L5.004427231191425 1.5293417921098964 L4.992645004191427 1.5351812291099733 L4.9890276541914425 1.5426743121099307 L4.9872706551914625 1.5517176871099636 L4.98086277719143 1.561949621109953 L4.959985499191458 1.5761606401099968 L4.936731105191438 1.586547603109942 L4.9168873541914415 1.598484858109991 L4.906448715191413 1.617295080109976 L4.907895655191407 1.6262351031100124 L4.916473943191431 1.6461822051099304 L4.917094060191413 1.654450435109986 L4.912649887191389 1.6628736931099795 L4.90758559719141 1.6647857211100003 L4.900764307191462 1.6648890741099294 L4.890945785191388 1.6677829541100024 L4.86913833119139 1.679100093109973 L4.85849298619139 1.6880401161099243 L4.85539240019143 1.701424311109939 L4.858803044191472 1.7524806271100246 L4.857252752191453 1.7628159131099252 L4.8533253431913685 1.7734095821100126 L4.848054346191429 1.7826079861100013 L4.843713527191465 1.7925298611100047 L4.842576645191439 1.8051389111099283 L4.849294581191469 1.8249309851099085 L4.874099269191429 1.860432694109953 L4.879783676191362 1.8797596801099914 L4.874616032191465 1.8996551061099964 L4.860663396191466 1.9152097121099345 L4.841543116191456 1.92663020310993 L4.780358220191442 1.947765864109975 L4.765061996191388 1.9598064731099427 L4.75410659219143 1.9800636341099604 L4.749765773191438 2.0062635861099736 L4.7504892421914455 2.0270891871099295 L4.746768539191418 2.0463644971099697 L4.728888493191459 2.0680685991099708 L4.682999821191412 2.1004180451099543 L4.664189601191492 2.122018794109941 L4.662846013191409 2.1471852161099534 L4.67648859119144 2.1601043251099767 L4.698192693191412 2.1650135851100103 L4.741600896191425 2.163308263109961 L4.8015455581914175 2.14485977710995 L4.816531723191485 2.1425343371099004 L4.830174301191402 2.1471852161099534 L4.835962061191463 2.155401769109993 L4.838959295191369 2.1651686151099554 L4.849604640191455 2.1829453081099857 L4.8534286961914965 2.1866143341099686 L4.857459457191407 2.1871827751099246 L4.868931626191408 2.1849606891099356 L4.873479151191457 2.1855808051099004 L4.883090967191361 2.191833654110006 L4.8919793141914845 2.19917170710999 L4.8998341311914935 2.2081634071099288 L4.906448715191413 2.21922216310994 L4.910479477191398 2.222529455109928 L4.915957179191491 2.223718013109952 L4.920814764191402 2.225836746109927 L4.9233985851914035 2.231934565110002 L4.921021469191469 2.2363787391099024 L4.909239242191472 2.245680497109923 L4.906138656191427 2.2502796991099885 L4.905208481191391 2.2960133421099087 L4.897250310191406 2.311722977109973 L4.874202621191454 2.3219032341099464 L4.862317042191432 2.3229367621099115 L4.824799952191437 2.3199395301100125 L4.813947901191465 2.3228334101100003 L4.798134913191472 2.335804195109908 L4.787696273191454 2.3394215451100067 L4.765785466191385 2.3398349561100176 L4.677212062191426 2.331204992109967 L4.650236964191389 2.3234018501099385 L4.627499333191405 2.3106377721099634 L4.61995457419145 2.292757726109919 L4.627395980191476 2.285729731110017 L4.655921371191436 2.2799419711099276 L4.663156072191395 2.2725005651099295 L4.657575017191402 2.263922277109991 L4.633493799191438 2.2563258421099235 L4.635870915191401 2.246403966110016 L4.656334782191447 2.2395310011099454 L4.679692530191414 2.2406678821099533 L4.688167465191395 2.236895502109938 L4.617680811191445 2.1804648391099235 L4.612874903191436 2.174832108109989 L4.606260320191449 2.1710080511099292 L4.593547918191387 2.169251053109967 L4.568329819191444 2.176330724109981 L4.52822890719143 2.2110056111100036 L4.5039409841914555 2.220255692109923 L4.421775456191408 2.222942866109939 L4.3583167981914634 2.2096103471099227 L4.340436752191419 2.2113673451099984 L4.32772435019147 2.2244931591099757 L4.307260482191406 2.271570389109961 L4.290724025191405 2.2924476681099506 L4.249796290191409 2.319371089109943 L4.206181381191453 2.3359592231099597 L4.161326238191446 2.340300044109931 L4.0824680021914155 2.3222649691099306 L4.0364759781914294 2.318389237109976 L3.9901738941914395 2.321438147109909 L3.9851767101914213 2.323208921109959 L3.95575739019149 2.333633784109928 L3.9517266281914196 2.3399383091099466 L3.951623275191462 2.3475347451100035 L3.952863510191417 2.354201004110017 L3.9523467461913917 2.358025060109945 L3.933639877191478 2.3649497021099464 L3.9247515311914576 2.3715642851099332 L3.9184470061914674 2.3719260211099353 L3.916690007191402 2.3752849881099323 L3.921340886191455 2.3905295361099874 L3.933226466191467 2.4121302851099458 L3.946662338191441 2.4292351841100057 L3.955550685191451 2.448252111109973 L3.953586980191414 2.475588944109994 L3.953483627191485 2.475640620109907 L3.953380274191442 2.4757439731099495 L3.9532769221914172 2.475847326109964 L3.9405645191914793 2.492848872109981 L3.9228911801914528 2.498481603110001 L3.858088933191464 2.5047344511099183 L3.8397954761914086 2.503959305109923 L3.8250160161914657 2.495329341109958 L3.8120969091913643 2.475847326109964 L3.80847955819139 2.4744520621099966 L3.804758855191391 2.473883621109927 L3.8010381511914595 2.4742970331099556 L3.777163640191457 2.485149083109995 L3.7132915701914264 2.492538813109995 L3.6628553721914265 2.50979874211 L3.548237045191467 2.570466874109961 L3.5120635431914415 2.581318924110029 L3.47609674619137 2.581112218109972 L3.4443674161914366 2.575479487109952 L3.410571030191459 2.5763579871099793 L3.3912440441914207 2.5741359001099724 L3.3805986991914203 2.5645240831099656 L3.3633387701914437 2.535791987109967 L3.3353301441914134 2.51568985510999 L3.3038075201914516 2.5092303011099304 L3.270941310191443 2.512744298109986 L3.2091362971914457 2.532433019109952 L3.1795773771914178 2.5372906041099483 L3.115498601191387 2.5377556921099753 L3.0990654951914216 2.5354302531099435 L3.069609929191426 2.524216467109902 L3.0540036471914043 2.520392411109974 L3.03891412819139 2.522097733110023 L2.9625363611914217 2.548090979109979 L2.954784897191427 2.5488661251100027 L2.9463099621914175 2.5473158311099766 L2.9283265641914333 2.541062984109992 L2.9214019211914426 2.540236160109963 L2.90600234419146 2.543853511109937 L2.8886390631914587 2.5513982701099778 L2.8261105801914645 2.556669266109928 L2.776811264191462 2.5691749631099228 L2.7613083341914653 2.5699501091099464 L2.7441517591914923 2.5663327591099616 L2.6543381201914933 2.534190018110017 L2.6198182631914158 2.5288673461099833 L2.6239523771914257 2.523027908109974 L2.6245724941914084 2.5175502071099842 L2.6216786141914206 2.512537593109947 L2.6157875011914307 2.5080417431099065 L2.6051421561914303 2.5028741001099135 L2.5970806321914317 2.495639400109944 L2.5928431651914927 2.4865443471099624 L2.593463282191447 2.475847326109964 L2.5983208671913864 2.471403153109968 L2.6036952161914364 2.467475744109997 L2.6157875011914307 2.4615329541099626 L2.6306703131914553 2.4461850541099963 L2.630360255191487 2.4236024531099574 L2.6157875011914307 2.376938635110001 L2.6081393891914324 2.3555962681099842 L2.5971839851914744 2.3332203721099276 L2.5832313491914753 2.313221593109965 L2.5666948901914672 2.2988555451099657 L2.5574964851913755 2.2956516071099244 L2.5359990891914315 2.292189285109963 L2.5256638031914456 2.288055171109953 L2.516465398191439 2.2803037061099403 L2.498275294191398 2.2598915151099774 L2.488663477191391 2.2511065221099997 L2.470182941191478 2.2418662541099863 L2.450216212191446 2.2318828891099756 L2.3696009771914355 2.2140028431100163 L2.3314637711914763 2.200308589109902 L2.2694520511914327 2.1698711701099214 L2.2512619471913915 2.1647035271099284 L2.2311081391914165 2.1673390251099462 L2.2072336271914246 2.173281815109952 L2.1842892911914866 2.173333491109979 L2.1663058931913888 2.1586057081099668 L2.1664092461914315 2.148012040109897 L2.1721970061914924 2.136694901110012 L2.1758143571914665 2.127186437109934 L2.1695098311914585 2.1216570591099284 L2.1351966811914274 2.1192799431099942 L2.1239312191913875 2.1147840941099716 L2.1176266931914647 2.108376215109921 L2.113182521191458 2.1005730741099953 L2.107498113191422 2.0927699331099845 L2.0968527681914217 2.086465408109966 L2.0866208341914323 2.085070145109988 L2.063883204191466 2.0878606721099615 L2.0530311531914087 2.087033849109922 L1.9930864921914342 2.0689470981099234 L1.971795801191444 2.0672417751099417 L1.9468877611914586 2.0740630651100034 L1.945536723191406 2.0755266891099424 L1.9202227221914363 2.102950190109958 L1.9014125011914125 2.111890213109966 L1.841157781191452 2.0494134071099026 L1.814596094191426 2.014945226109937 L1.8088083341914505 1.9758778441099238 L1.8159396821914804 1.8982598421100292 L1.8378504891914353 1.8506141721099922 L1.8422946621914598 1.8325274211099654 L1.841157781191452 1.8216753701099364 L1.8349566091914475 1.7988343871100128 L1.835059962191405 1.788602453109938 L1.839297430191447 1.781626134109949 L1.8612082371914873 1.7628159131099252 L1.8617250011914273 1.7588368281099562 L1.8590378261914218 1.7543926551099318 L1.8569707691914452 1.7495867461099337 L1.8590378261914218 1.744780838109925 L1.8624484711914242 1.7430755161099611 L1.8709234061914337 1.7418352821100243 L1.8814653981913914 1.7365642861099033 L1.899035385191393 1.7310349071099935 L1.907200261191388 1.7256605581100288 L1.9208428391913905 1.712173009109982 L1.951952052191455 1.6989955191099781 L1.9670415701914514 1.6894870561100035 L1.979960678191457 1.6720204221099593 L1.9825444991914587 1.6543470821099717 L1.978513738191463 1.6358985951099427 L1.963527573191481 1.5954359491099623 L1.955466049191397 1.5826718701099693 L1.9430637061914346 1.5744036411099316 L1.8834291021914389 1.5582805941099522 L1.8751608731914864 1.5505291291099397 L1.8863229831914161 1.537041581109996 L1.8729904631914103 1.534044347109976 L1.863378647191393 1.5277914991099735 L1.8562472991914483 1.5209702101099296 L1.8497360681914863 1.5167844191099888 L1.8403309571914228 1.5150274201099236 L1.7841070001914368 1.5152858021099789 L1.7676738941914714 1.5102215121100002 L1.7558916671914737 1.498129227110006 L1.7425591481914573 1.475753332110024 L1.7258159831914206 1.430536454109948 L1.7148605801914236 1.410537674109996 L1.7053581551914014 1.4041704031099513 L1.6996677091914982 1.4003574171099373 L1.6752764341914705 1.3923992461099814 L1.5704766291914147 1.4103826451099835 L1.4040765611914132 1.3986230871099892 L1.385475001191434 1.397308508109937 L1.2768511401914218 1.4135349071099412 L1.2640353851914305 1.4211830201100142 L1.2526665701914617 1.4303814241100028 L1.2340630551914948 1.4382362421100297 L1.211015366191429 1.439579829109924 L1.1841436201914455 1.4346188921099596 L1.161922755191494 1.4237668411099023 L1.152827702191427 1.4072303831099973 L1.152827702191427 1.3908489541099627 L1.1496237641914426 1.379738520109946 L1.1376348321914058 1.3746742301099673 L1.111693262191448 1.3761728471099772 L1.0855449871914509 1.3876966911099018 L1.0769667001914165 1.3898671021099958 L1.0671481781914558 1.3876966911099018 L1.0427569021914103 1.378291580109952 L1.0074102221914067 1.3732272901099734 L0.9880832371914714 1.3659409131099025 L0.9540801441914191 1.3488360141099562 L0.8848337251914238 1.340206050109991 L0.8675737971914081 1.3318344681100243 L0.8504172201914564 1.3187086541099617 L0.7800339201914248 1.2871343541099733 L0.7393128911914566 1.2756621861099617 L0.6381304371914602 1.2737501581099409 L0.6018535811914312 1.2570069941100073 L0.5397385101914374 1.195770422109966 L0.5090427091914869 1.1782004351099928 L0.48403131619140183 1.1803708451099837 L0.40178155319143727 1.219476064109962 L0.4032463971914346 1.2145932511099673 L0.3986891051914192 1.1916033421099783 L0.39860772519143595 1.1841570531099492 L0.40503676119142185 1.1801287331099743 L0.41227960019143595 1.1815935771099717 L0.4195224381914038 1.1811052951099796 L0.4253818131914038 1.171095530109973 L0.4234286881914038 1.1629168191099453 L0.4166741311914386 1.151320139109977 L0.40837335019143595 1.1408220921099783 L0.40178155319143727 1.136305491109944 L0.39364353219140114 1.1319109591099519 L0.3905510841914399 1.1214129131099426 L0.3912835061914386 1.0987892151099814 L0.3807854591914399 1.0979754131099426 L0.32300551119142185 1.1295509331099893 L0.31755303719144123 1.1219825741099854 L0.31747165719140114 1.1197853081099893 L0.3202385841914399 1.1189715061099506 L0.35848728219140114 1.068841298109966 L0.36695082419141656 1.061232248109981 L0.3824944441914333 1.0502866101099713 L0.38257582419141656 1.0258318581099743 L0.3707756941914333 0.9855079651099814 L0.35848728219140114 0.955763498109981 L0.3571038191914333 0.947950998109981 L0.35270928719144123 0.944533030109973 L0.34318780319143727 0.9385515841099519 L0.3335849381914038 0.9304949441099453 L0.32927178719144123 0.9209734591099519 L0.33024835019143595 0.9087664281099492 L0.3319573341914399 0.9008318581099743 L0.3322828551914192 0.8933855691099453 L0.32927178719144123 0.8830502821099699 L0.29175551119142185 0.8264096571099699 L0.28434991219144123 0.8088315321099699 L0.28142022519143595 0.789992014109977 L0.2749911881914038 0.780022939109962 L0.23356866219144123 0.7390886941099453 L0.22372165719140114 0.732903798109966 L0.21493259519139585 0.7295672091099519 L0.20858493819140378 0.7232195531099492 L0.20402764719143462 0.698439280109973 L0.19475030319143727 0.678908030109973 L0.17888116219144123 0.594435373109981 L0.17888116219144123 0.550449371109984 L0.18107842819143727 0.5395037331099743 L0.19035577219143462 0.5256284071099699 L0.19255303719144123 0.516310373109981 L0.19255303719144123 0.430617014109977 L0.18758884519139585 0.39554214410996025 L0.22554580119146905 0.39026403311000735 L0.28435358219145357 0.3899798131099246 L0.324557846191464 0.3837011261100187 L0.33954401119144606 0.36473587610995395 L0.346778712191405 0.3371664991099621 L0.3638319341914489 0.30497208211001947 L0.389050033191392 0.28295792210993653 L0.4246034181914631 0.26122798210993636 L0.46181045019146083 0.24378718611000494 L0.49250625119141134 0.2349246771099942 L0.5378781581914431 0.23368444310994363 L0.5534844411914825 0.23076472510995671 L0.6931141611914988 0.1708717401099804 L0.7302178401914823 0.1602780711100067 L0.818687891191427 0.15805598410999977 L1.0995146891914196 0.0844833321099756 L1.11736588619139 0.0798065711099909 L1.2282752941914161 0.05074987310995738 L1.273337143191366 0.05245519610991067 L1.2923540701914469 0.05790705910998639 L1.3294577481914978 0.07330663610996879 L1.3490947921914476 0.07777664710999233 L1.6459242191913965 0.07219559210997062 L1.7100029951914273 0.080437983109924 L1.712414518191462 0.08115713410992242 L1.7389417971913694 0.08906794810996388 L1.783280176191436 0.11506119310993057 L1.800540105191498 0.11906611611001239 L1.815629623191409 0.11785172010998934 L1.957119695191448 0.08529556810994876 L1.9937956611914949 0.07109008810999029 L2.023162175191498 0.05971573410999298 L2.0587155611913595 0.056046707109992155 L2.091168360191471 0.06617528810993889 L2.1155596371914207 0.09498489910998131 L2.1509063161914916 0.14431005410997244 L2.19648492919141 0.16399877410992048 L2.24692112719141 0.1572808381100046 L2.2970472661914236 0.12715347810992483 L2.2883656261914602 0.11676651610999755 L2.3067624351914553 0.11020360911000893 L2.4226209971914265 0.09511409010990945 L2.4448418631914812 0.0975687211099725 L2.5122325181914213 0.11353020110998813 L2.6157875011914307 0.13805720510998043 L2.6517542971914843 0.13950414610996376 L2.7119056651914484 0.11955704310994264 L2.7440484061913644 0.11433772311001889 L2.8136048841914594 0.11630142810997057 L2.8408900401914643 0.11371760610995096 L2.8492616221914595 0.11542292810991484 L2.857736557191469 0.12234757011000141 L2.858976791191491 0.12976313810991513 L2.85783990919138 0.13604182411003052 L2.859183497191463 0.13934911611001866 L2.890292709191396 0.1421913201099798 L2.959229070191423 0.13325129710997174 L2.9923019871914214 0.13376806110999695 L3.0052997401914574 0.13608792010992232 L3.115498601191387 0.15575638410998494 L3.209343002191485 0.19696833810998982 L3.2428293311913983 0.20745865410992081 L3.2731117201914337 0.21071427010991073 L3.274614433191413 0.21055982410992868 L3.301016993191393 0.2078462271099326 L3.421836492191442 0.17262873910996035 L3.4527389991914212 0.16957982910994218 L3.4849850921913905 0.1766078241099578 L3.548547104191453 0.20265274611002582 L3.58141331419149 0.2076395221099787 L3.615519760191443 0.19931961510993546 L3.6731906581914124 0.18053523311001385 L3.6921042321914506 0.16957982910994218 L3.773339585191433 0.10818822810994533 L3.812820378191457 0.09087662310994205 L3.8492323461914104 0.081907062109984 L3.9397376961914397 0.05961238110995026 L3.9497629241914574 0.05935399910998029 L3.9718804371914693 0.06421158411000505 L3.9800453131914075 0.06322973110993502 L3.986349838191426 0.054496415109973384 L3.9875900721914483 0.04343765710995484 L3.9913107751914474 0.032792313109972326 L4.005160060191411 0.02555761311000282 L4.026450749191422 0.029433344109968118 L4.044330795191467 0.04620234711000393 L4.070479070191464 0.08824112510995263 L4.09631728619139 0.148883418109925 L4.10737604319139 0.16740941910995133 L4.117401271191408 0.17766719111002516 L4.150680892191456 0.19826024910994278 L4.160396062191392 0.20797541810997444 L4.178172755191422 0.24016983611002019 L4.20731826219146 0.2703488721100129 L4.243388412191461 0.285076655110025 L4.483278518191479 0.3082837271099308 L4.589000392191462 0.31851130711000764 L4.656954900191419 0.31158666510992106 L4.707081039191433 0.32512589110989865 L4.724237615191395 0.3270379191100048 L4.7838722181914015 0.3243507431098962 L4.79606785619141 0.3273479771100014 L4.803405909191422 0.3361329701099791 L4.822009425191464 0.36982600410996014 L4.8307944181914415 0.3802646441099782 L4.84299005619145 0.3871117711099359 L4.9004542491914655 0.4095135041100306 L4.929688849191404 0.4280297101099606 L5.005460759191418 0.47602107310989794 L5.095443933191415 0.5097012161099528 L5.151808415191464 0.5307980911099932 L5.2136134281914615 0.5700205031099514 L5.312832179191428 0.6185705111099296 L5.337946925191442 0.6407138631099585 L5.361097967191437 0.6712287961099364 L5.413911281191485 0.7249206091099367 L5.476543116191419 0.7518181921099298 L5.615242661191484 0.78985204510996 L5.6716733241914135 0.798637040109945 L5.728724106191418 0.8011691841099591 Z M0.1236235116607638 1.195043737449872 L0.058761515556351895 1.185502271280079 L0.059008115191442556 1.1852556861099757 L0.13371514719143462 1.1111590061099506 L0.1757073341914399 1.052076975109948 L0.21656019919141656 0.9705340061099506 L0.22730238619142185 0.8864682511099673 L0.23356866219144123 0.8694597881099426 L0.22811618819140378 0.8646990451099796 L0.23356866219144123 0.8551775611099757 L0.2248609801914192 0.8350359591099519 L0.22770928719144123 0.7726173401099814 L0.2194085061914386 0.745314280109973 L0.2516350691914333 0.7683855691099453 L0.26571384519139585 0.8125750221099466 L0.26774835019143595 0.8998552951099796 L0.2655510841914399 0.9124285381099426 L0.25627374019144256 0.9291521701099796 L0.25407647519143595 0.9411150611099757 L0.25407647519143595 0.9787127171099783 L0.24260186519144256 0.995070139109977 L0.2268141051914192 1.0115496311099506 L0.2213616311914386 1.0270932511099673 L0.24040460019143595 1.0407244361099757 L0.24040460019143595 1.0469500221099466 L0.22600030319143727 1.0574480691099453 L0.2076897561914386 1.0763689671099783 L0.19182061519144256 1.0987078341099519 L0.18514743819140378 1.1192970271099867 L0.17204522519143595 1.1395606991099854 L0.12313572019139585 1.1768328341099519 L0.1236235116607638 1.195043737449872 Z" fill="black" stroke="black" stroke-width="0.5" vector-effect="non-scaling-stroke"/></svg>