<svg xmlns="http://www.w3.org/2000/svg" viewBox="0 0 0.8034052256401036 0.7483233151800448"><path d="M0.4104359298200029 0.06185513909001372 L0.40351128782000156 0.07632454009005585 L0.3986537028200905 0.09007047209000518 L0.39234917782007184 0.11818245109002135 L0.3941061778200412 0.11890592009002887 L0.4001006438200738 0.11854418609003403 L0.4023744068199937 0.11875089108998793 L0.3986537028200905 0.12200650608998842 L0.38935194582005916 0.13368538008994335 L0.4002039958200134 0.13771614209004213 L0.4067152268199754 0.14593269409006382 L0.4129163978200472 0.16680997409004306 L0.4101258708201021 0.1779204060899673 L0.41446669182007323 0.18603360609004937 L0.43172661982006044 0.20298347608998313 L0.44691949082001425 0.2310954550899993 L0.4548776618200554 0.23982877208997877 L0.46562635982007006 0.22608284109004728 L0.482782934820043 0.24401456309003322 L0.5156491458200696 0.29517423109003005 L0.5312554278200059 0.3054061650899911 L0.5651551688200334 0.3151730100900494 L0.5797279218200719 0.32127082909001103 L0.5844821538200824 0.32674853108999 L0.5885172088200568 0.3336954820899649 L0.5945073818200148 0.3440084600899951 L0.5955409108200831 0.347367427089992 L0.6036024328200744 0.347832515090019 L0.6185885988200459 0.3419414020900291 L0.6273735918200236 0.3420964320899742 L0.6443234618200426 0.3490210740900608 L0.6730555588200309 0.3667460900899613 L0.6900054278200605 0.3737224080899608 L0.7074720628200089 0.37682299409000564 L0.7554277918200318 0.37682299409000564 L0.7862269458200819 0.3827141080900134 L0.7901543538200633 0.3828691360900365 L0.7955287038201027 0.38664151608996633 L0.7952186438200419 0.38643481109001243 L0.7930482348200405 0.38783007408999026 L0.7929448808200084 0.39625333309000155 L0.7914979408200145 0.3969251260899824 L0.7867437088200324 0.4186809050900848 L0.7866403568200075 0.4257605760900134 L0.7893275308200236 0.4302047490900094 L0.7889141198200127 0.4340804810900494 L0.779198950819981 0.439609859090055 L0.7784754798200799 0.44854988209000624 L0.7807492428200851 0.4567147580900013 L0.7855034748200955 0.463897783089962 L0.7926348228200402 0.4700989550900516 L0.7839531818199736 0.4678768680900447 L0.7793023028200059 0.4693754840900368 L0.7758916588200782 0.4742330690899763 L0.7827129478200368 0.4793490360900563 L0.7846766528200737 0.48151944609004715 L0.7111927658200079 0.5124219520900368 L0.6956898358200965 0.5265296190900841 L0.6974468348200764 0.5298369100900828 L0.7038547128201094 0.532679114090044 L0.709952531820071 0.5365548470900166 L0.7108827068201071 0.543169429090014 L0.7081955328200911 0.5476652800900155 L0.7006507738200503 0.554899980089985 L0.6905221928200751 0.5684392050899731 L0.6644772708200071 0.5893164840900482 L0.6493877518201066 0.6047160610900306 L0.64370334482006 0.6157231400900258 L0.64370334482006 0.6474007930900285 L0.6417578668200212 0.6570214190899577 L0.6352284108200683 0.6893103800900207 L0.6383289958200953 0.7195927700900455 L0.6382563878200562 0.7269625220899769 L0.6182785408200493 0.7255872360900497 L0.5917168548200413 0.7160787720900004 L0.5440658418200064 0.6928513960899778 L0.542314184820035 0.6919975550900261 L0.5149256758200726 0.6848662070899962 L0.486503637820042 0.6829025020899877 L0.4290394458200444 0.6870366180900049 L0.4355506758201022 0.6962350220899935 L0.4073353438200433 0.6979403440900427 L0.4002039958200134 0.6998006960900653 L0.394932999820063 0.705898515090027 L0.3950363528200205 0.7123063930900599 L0.39276258982007217 0.7176807420900246 L0.38067030481999264 0.7206779750900267 L0.37095513582004624 0.7302897910900441 L0.35627902782007137 0.7338554640900128 L0.2710129158200152 0.737214433090017 L0.2536496338200811 0.7409868120900427 L0.23990370282006435 0.7123580690899729 L0.22109348182004052 0.7000074020900087 L0.15763482281999242 0.6901372030900319 L0.13252007682006361 0.682437414090046 L0.11505344282001939 0.6717920690900456 L0.08363417181998667 0.6445585890899537 L0.10740533082004955 0.6371688600899432 L0.13034966682007276 0.6212008420900048 L0.13985812982007584 0.6055945600899832 L0.12290826082007467 0.5995484180900092 L0.13417372282002926 0.5926237760900364 L0.1421318938200704 0.5825985480900187 L0.1549476478200722 0.5595508580900486 L0.16290581882011335 0.5534530390900017 L0.1728276938200315 0.5474585730900543 L0.1784087488200532 0.5387769330900056 L0.1728276938200315 0.5245659140900472 L0.16559299282007256 0.5205868290900497 L0.14554253782002657 0.5190882120899545 L0.13872124882006798 0.5157292440900534 L0.1352072508201081 0.5083911910899559 L0.136654190820102 0.504825517090083 L0.13965142482000825 0.501621578090024 L0.14016818882006188 0.4951103470899483 L0.14171848182007007 0.4895809690900279 L0.14657606581999172 0.48601529608997396 L0.1502967698200086 0.48188118109005984 L0.14935208082001505 0.4765037240899943 L0.14895318182003958 0.4742330690899763 L0.14316542182006398 0.46829028009004503 L0.136654190820102 0.46798022009006957 L0.13024631382005847 0.4693754840900368 L0.12466525882003676 0.46870369109005594 L0.11867079282000415 0.46653328009007566 L0.10471815682003349 0.46379442909004354 L0.09831027782006796 0.46043546109002875 L0.09872368982009672 0.4581100220900822 L0.0965532798200206 0.44415738509000846 L0.09500298682006925 0.43945483009001407 L0.07143853382006338 0.40927579409002135 L0.06482395082007653 0.4029195920899866 L0.05211154782002492 0.39785530209000797 L0.041362849820095526 0.39666674409001246 L0.03123426982005295 0.39346280609002804 L0.02069227682007746 0.3820939900900413 L0.014594458820048395 0.36953661709002006 L0.013147518820054493 0.35759936108998147 L0.017591690820061068 0.348039221090076 L0.02947727082007301 0.34287157809008306 L0.019865453820066215 0.33708381709000435 L0.021622452820046156 0.3334664670900196 L0.023482804820040393 0.3311410280899878 L0.024929744820034294 0.32814379409008154 L0.02482639182002 0.3223560350900101 L0.051078018820041926 0.3241130330900006 L0.041776261820010596 0.31501798109000845 L0.01965874882002705 0.3041142540900381 L0.007876521820000981 0.30044522809005514 L0.011907283820014491 0.2909367640899774 L0.04653049282000321 0.25212776309003004 L0.05056125582009141 0.24577156209001316 L0.052938370820064584 0.2407072720900345 L0.05665907382006363 0.23548795208999707 L0.06451389182009049 0.22877001608999592 L0.07154188682002083 0.22572110709005244 L0.08632134582003115 0.2234990190900561 L0.09458957482006891 0.21848640608997982 L0.10554497882005531 0.2047404740900589 L0.10151421782005965 0.19921109609005327 L0.09448622282004404 0.19363004109003157 L0.0956231038200519 0.17983243408998817 L0.10182427582002784 0.17450976209003954 L0.122081437820035 0.16872200108996083 L0.12931613782008977 0.1637610640900249 L0.13179660682006666 0.15585457009005665 L0.13179660682006666 0.1464494590900216 L0.13065972482006938 0.13487393808996728 L0.136654190820102 0.1286727660900766 L0.15122694482004473 0.12050789008996787 L0.15732476382000637 0.11482348309000656 L0.15980523282009695 0.10800219309005854 L0.16176893782002022 0.0917757930900649 L0.16538628782009024 0.08541959309003744 L0.1819227458200805 0.07570442308998793 L0.2191297778200214 0.06397387309000635 L0.23401258982004602 0.054000322090004715 L0.24197076082003033 0.039634274090005306 L0.2461048748200403 0.025940019090072042 L0.2545798098200498 0.016689938090038936 L0.27587049982010736 0.01524299709005561 L0.2912700768200045 0.007336503090002111 L0.29767795482003745 0.011832353090042602 L0.30098524582003616 0.021392493090033327 L0.30708306582001565 0.02873054609001713 L0.31591592282005987 0.03149081408996324 L0.32031223182010304 0.03286466109004493 L0.33157769382005764 0.0338981890900385 L0.3543153248200417 0.03157275009000671 L0.36299696482009036 0.02811042908997763 L0.3694048418200486 0.023666256090038473 L0.3771563078200506 0.022994462089982903 L0.3900754148200667 0.031004309090050697 L0.3944162358200378 0.04020271408994347 L0.39327935382004053 0.049659501090005165 L0.3955531168200457 0.057565995090058664 L0.4104359298200029 0.06185513909001372 Z" fill="black" stroke="black" stroke-width="0.5" vector-effect="non-scaling-stroke"/></svg>