<svg xmlns="http://www.w3.org/2000/svg" viewBox="0 0 0.06897949206006615 0.11770507770002325"><path d="M0.039413248530081546 0.05889322935002639 L0.050236816530059514 0.06117187535000568 L0.054875487530011924 0.06117187535000568 L0.054875487530011924 0.06581054735000436 L0.0525968425300789 0.0690250653499973 L0.0486905925300789 0.07134440135002507 L0.04405192053002338 0.07134440135002507 L0.04104085253004541 0.08037760435002639 L0.048446451530026025 0.08285970035002066 L0.05332926453002074 0.08460937535000568 L0.058781737530011924 0.08229003935003476 L0.058781737530011924 0.08383626335001537 L0.055689290530040125 0.08688802034999554 L0.06057210253004541 0.09002115934999466 L0.06675699853008155 0.08998046835001361 L0.06748942053002338 0.09238118535001405 L0.06830322253006216 0.09470052034999554 L0.06830322253006216 0.09706054735000436 L0.06675699853008155 0.09783365934999466 L0.06439697253006216 0.09860677034999554 L0.05829345653000928 0.09527018235002771 L0.058781737530011924 0.10100748734999598 L0.054875487530011924 0.10255371135003344 L0.051783040530040125 0.10178059934998629 L0.04755126953000399 0.09856608035000392 L0.04746988953002074 0.10454752635002507 L0.04600504553002338 0.10930826834999863 L0.04714436853009829 0.11423177034999554 L0.04405192053002338 0.11500488234998585 L0.03819254553002338 0.11077311234999598 L0.0330655925300789 0.11423177034999554 L0.03233317053002338 0.115777994350033 L0.029973144530003992 0.1165511063500233 L0.02761311853009829 0.1165511063500233 L0.02452067053002338 0.11423177034999554 L0.0219165035300648 0.1086572263499832 L0.026066894530003992 0.10768066435003476 L0.02313720653000928 0.08119140635000832 L0.023055826530026025 0.08111002635002507 L0.014917805530103578 0.07313476535001229 L0.013046060530086834 0.06939127635002507 L0.013046060530086834 0.06930989534999554 L0.015243326530026025 0.06072428434999466 L0.022242024530100934 0.05958496135003344 L0.023788248530081546 0.05812011735003608 L0.03371663353004806 0.056085612349995984 L0.039413248530081546 0.05889322935002639 Z M0.01727783153000928 0.004856770349995543 L0.019719237530011924 0.0011539713499999493 L0.025334472530062158 0.004246419350018016 L0.025334472530062158 0.005792643349998627 L0.03151936853009829 0.00807128935003476 L0.034611816530059514 0.010431315349997305 L0.03640218053010358 0.014378255349988933 L0.03762288353004806 0.018365885350029032 L0.03233317053002338 0.017511393349998627 L0.029240722530062158 0.019871419350018016 L0.029973144530003992 0.022190755349988933 L0.03151936853009829 0.022963867350036082 L0.03794840453008419 0.019464518349998627 L0.034611816530059514 0.025283203350007 L0.034611816530059514 0.026056315349997305 L0.0330655925300789 0.024510091350016694 L0.03151936853009829 0.026056315349997305 L0.03233317053002338 0.027724609350009644 L0.03233317053002338 0.030043945350037404 L0.03233317053002338 0.03081705735002771 L0.03233317053002338 0.03236328135000832 L0.029240722530062158 0.033868815349997305 L0.023788248530081546 0.03773437535000568 L0.020695800530006636 0.03928059934998629 L0.016789550530006636 0.03928059934998629 L0.013697102530045413 0.04322753935003476 L0.009709472530062158 0.04322753935003476 L0.005640461529992535 0.048110351349983205 L0.00555908153000928 0.048191731350023304 L0.0006762695300039923 0.038181966350016694 L0.0010017905300401253 0.03704264334999863 L0.0029549155300401253 0.03142740934999466 L0.005640461529992535 0.02886393235002771 L0.006210123530081546 0.028294270349995543 L0.011174316530059514 0.020400390350012287 L0.0160571285300648 0.014378255349988933 L0.01451090453008419 0.011163737349995984 L0.012883300530006636 0.011163737349995984 L0.013697102530045413 0.012750651350025066 L0.008163248530081546 0.014378255349988933 L0.005152180530103578 0.009373372350019338 L0.009709472530062158 0.00807128935003476 L0.009709472530062158 0.007298177349987611 L0.0160571285300648 0.007298177349987611 L0.01727783153000928 0.004856770349995543 Z" fill="black" stroke="black" stroke-width="0.5" vector-effect="non-scaling-stroke"/></svg>