<svg xmlns="http://www.w3.org/2000/svg" viewBox="0 0 7.426625976180006 13.928046875340016"><path d="M1.1046297195899868 8.569003906170039 L1.1012117505899894 8.536858724170017 L1.1111401365900022 8.500481771170016 L1.184138183590001 8.362542317170025 L1.205622558590001 8.331048177170018 L1.2652742505899894 8.276116536170022 L1.2888745115900022 8.24828450517002 L1.3076733395900035 8.216546224170017 L1.3237866205900062 8.17919270817002 L1.3289135735900075 8.148593750170036 L1.3292390945899868 8.10570638017002 L1.321752115589966 8.072421875170036 L1.303278808590001 8.069980468170044 L1.2944897455900062 8.042148437170042 L1.2896883135899841 8.035149739170024 L1.2825268545899533 8.031243489170024 L1.2682039385899841 8.030511067170025 L1.2616935215899687 8.028313802170018 L1.248184406589992 8.01708333317002 L1.234919433590001 8.001621093170044 L1.224746906589992 7.984124349170017 L1.220759276589952 7.966953125170036 L1.224665526589952 7.953444010170003 L1.2437898755899894 7.919101562170042 L1.2515209955900062 7.908522135170003 L1.2595776365900022 7.89436197917 L1.2628328445899868 7.877679036170022 L1.2616935215899687 7.843417968170044 L1.2594148755899894 7.833245442170025 L1.2558341465899687 7.8242122391700235 L1.2534741205900062 7.8146907551700195 L1.2548575845899634 7.803053385170003 L1.2595776365900022 7.798496093170044 L1.2769930005899894 7.788079427170018 L1.2828523755899894 7.781975911170022 L1.2878979485900075 7.763177083170021 L1.2903393545899533 7.747796224170017 L1.298314615589966 7.737298177170018 L1.320368651589952 7.733554687170042 L1.3336336255899894 7.716139323170054 L1.3296459955900062 7.676914062170042 L1.3095450845899634 7.610589192170025 L1.2945711255899894 7.578769531170039 L1.275446776589952 7.549147135170003 L1.228002115589966 7.505527343170044 L1.220759276589952 7.493889974170017 L1.212946776589952 7.461093750170036 L1.193903808590001 7.428460286170022 L1.101700031589992 7.314202474170017 L1.0842846675900049 7.281731771170016 L1.0774487295899533 7.247552083170021 L1.0842846675900049 7.189202474170017 L1.097793781589992 7.15803385417 L1.097793781589992 7.096673177170018 L1.0969799795899533 7.094231771170016 L1.0927482095899634 7.086907552170018 L1.0916088865900022 7.083001302170018 L1.0933992505899894 7.0761653641700235 L1.1018627925900049 7.068108724170017 L1.1046297195899868 7.062656250170036 L1.110814615589966 7.037835286170022 L1.111465656589992 7.028069661170022 L1.1072338865900022 6.996819661170022 L1.0833081045899533 6.927076823170054 L1.0357820635899841 6.803704427170018 L0.9643302405899661 6.70881510417 L0.8995515945899868 6.619459635170003 L0.8916577145900035 6.5898372391700235 L0.8917390945899868 6.390944010170003 L0.8525138345899634 6.196608073170054 L0.8508862295899533 6.1308528641700235 L0.8805086255899894 6.006829427170018 L0.8855541985900075 5.962395833170021 L0.8801831045899533 5.9475032551700195 L0.8562573235900075 5.9260188801700195 L0.8423413085900009 5.880364583170021 L0.7791088865900022 5.794589843170044 L0.773493651589952 5.770501302170018 L0.7739005525899714 5.739414062170042 L0.7825268545899533 5.677890625170036 L0.793024901589952 5.6486751301700195 L0.8440502925900049 5.5685970051700195 L0.8619539385899841 5.527011718170044 L0.8682202145900035 5.524163411170022 L0.8800203445899868 5.529941406170039 L0.8863680005899894 5.522454427170018 L0.8955639645900035 5.493483073170054 L0.9717358395900035 5.379550781170039 L0.9880932615900022 5.363437500170036 L0.9954174795899533 5.348870442170025 L0.9985099275899714 5.334710286170022 L1.0016023755899894 5.2873470051700195 L1.0295971675900049 5.288079427170018 L1.0540112295899533 5.24983072917 L1.087946776589952 5.16389322917 L1.0948640945899868 5.153476562170042 L1.1221264645900035 5.126295573170054 L1.127497558590001 5.117913411170022 L1.1357169595899634 5.095208333170021 L1.1428784175900049 5.085117187170042 L1.1591544595899634 5.067213541170005 L1.1711987295899533 5.048496093170044 L1.1904044595899634 5.006829427170018 L1.2166088865900022 4.969720052170018 L1.2515209955900062 4.932773437170042 L1.2805737295899533 4.893304036170022 L1.2896883135899841 4.848463541170005 L1.2841544595899634 4.829095052170018 L1.2660880525899714 4.786451823170054 L1.2616935215899687 4.765944010170003 L1.2667390945899868 4.741855468170044 L1.2783764645900035 4.730625000170036 L1.2887117505899894 4.735507812170042 L1.2896883135899841 4.759921875170036 L1.3054760735900075 4.733880208170021 L1.3132885735900075 4.706292317170025 L1.3128002925900049 4.678378906170039 L1.303278808590001 4.6506282551700195 L1.265681151589952 4.5959407551700195 L1.250544433590001 4.565748698170054 L1.248103026589952 4.533359375170036 L1.252497558590001 4.520745442170025 L1.260310058590001 4.506503906170039 L1.269668781589992 4.492913411170022 L1.2791088865900022 4.4826595051700195 L1.2859448235900075 4.471917317170025 L1.2883862295899533 4.458652343170044 L1.2913159175900049 4.4023372391700235 L1.2945711255899894 4.3886653641700235 L1.3027091465899687 4.379632161170022 L1.3193107095899634 4.375156250170036 L1.3525952145900035 4.3749934891700235 L1.386856281589992 4.369459635170003 L1.604955240589966 4.389886067170025 L1.6319734695899868 4.383782552170018 L1.6443432615900022 4.38459635417 L1.6685945635899841 4.404046224170017 L1.686091308590001 4.413567708170021 L1.7041577145900035 4.418287760170003 L1.718236490589966 4.413811849170017 L1.7276765945899868 4.402093099170017 L1.733861490589966 4.39240885417 L1.7412670895900035 4.384108073170054 L1.7551831045899533 4.376214192170025 L1.769017740589966 4.372552083170021 L1.7978263345899634 4.368157552170018 L1.8110099275899714 4.362542317170025 L1.802871906589992 4.3557063801700195 L1.8611401365900022 4.328932291170005 L1.890111490589966 4.311028646170016 L1.9097241205900062 4.286858724170017 L1.9438224275899714 4.231764323170054 L1.966283365589966 4.204583333170021 L1.9885815425900049 4.1838313801700195 L2.015681151589952 4.168450521170016 L2.0772045895900035 4.1428157551700195 L2.1162670895900035 4.116855468170044 L2.123347167590005 4.1230403641700235 L2.125625813589984 4.137526041170005 L2.127090656589992 4.169264323170054 L2.144587401589952 4.2248470051700195 L2.1455639645900035 4.229729817170025 L2.1461336255899894 4.239007161170022 L2.1455639645900035 4.2460872391700235 L2.1399487295899533 4.266350911170022 L2.1386466465899687 4.283359375170036 L2.1402742505899894 4.296380208170021 L2.1477612295899533 4.3049251301700195 L2.163548990589966 4.307936198170054 L2.178848469589987 4.303053385170003 L2.1887768545899533 4.292148437170042 L2.1972403965899687 4.2792903641700235 L2.2079825845899634 4.2697688801700195 L2.241999511590002 4.257317708170021 L2.256159667590005 4.247796224170017 L2.262832844589987 4.232171224170017 L2.260310058590001 4.223463541170005 L2.2406974275899714 4.216302083170021 L2.228815917590005 4.204339192170025 L2.2206778965899687 4.1874934891700235 L2.220189615589966 4.174798177170018 L2.2293041985900075 4.166741536170022 L2.392634276589952 4.149651692170025 L2.399551594589987 4.147617187170042 L2.406875813589984 4.144280599170017 L2.419978026589952 4.135979817170025 L2.4273836255899894 4.16389322917 L2.435033365589966 4.174309896170016 L2.4387768545899533 4.176751302170018 L2.4402416985900075 4.180494791170005 L2.4404858395900035 4.194654948170054 L2.4296622715899687 4.223626302170018 L2.430313313589984 4.233717448170054 L2.447810058590001 4.225335286170022 L2.454645995590006 4.244785156170039 L2.4619702145900035 4.242506510170003 L2.4717358395900035 4.225335286170022 L2.461481933590001 4.1738216141700235 L2.4644930005899894 4.162753906170039 L2.4804435215899687 4.147210286170022 L2.4882560215899687 4.135979817170025 L2.4873608395900035 4.133457031170039 L2.4882560215899687 4.108147786170022 L2.490290526589952 4.099358724170017 L2.493708495590006 4.091953125170036 L2.496149901589952 4.084140625170036 L2.495661620590006 4.073968099170017 L2.487849120590006 4.061272786170022 L2.477106933590001 4.05256510417 L2.471328938589984 4.043694661170022 L2.478571776589952 4.029941406170039 L2.5107983395900035 3.996738281170039 L2.5437573235900075 3.976067708170021 L2.554173990589966 3.9754166661700054 L2.5707755525899714 3.9817643231700544 L2.585749511590002 3.9855078121700416 L2.601048990589966 3.9855078121700416 L2.615778808590001 3.9871354161700054 L2.651911620590006 4.009514974170017 L2.674372558590001 4.006341146170016 L2.7353263345899634 3.971917317170025 L2.747858886590002 3.967522786170022 L2.7613680005899894 3.9650000001700363 L2.776830240589966 3.964104817170025 L2.7984773755899894 3.967115885170003 L2.8059643545899533 3.9759049481700544 L2.804173990589966 4.009026692170025 L2.804987792590005 4.024733073170054 L2.808649901589952 4.032871093170044 L2.8168693025899714 4.036614583170021 L2.8313549795899533 4.039788411170022 L2.8398185215899687 4.040520833170021 L2.857233886590002 4.039218750170036 L2.8656974275899714 4.039788411170022 L2.892878417590005 4.054029948170054 L2.9159903965899687 4.054843750170036 L2.9159903965899687 4.04865885417 L2.9062247715899687 4.036370442170025 L2.8997143545899533 4.019280599170017 L2.9039461255899894 4.008538411170022 L2.9130607095899634 3.99983072917 L2.9207104485900075 3.989007161170022 L2.9208732095899634 3.9715104161700054 L2.896784667590005 3.9835546871700416 L2.873347167590005 4.001132812170042 L2.8598380525899714 4.007317708170021 L2.8656974275899714 3.9851822911700054 L2.8801831045899533 3.962395833170021 L2.9008536775899714 3.9416438801700195 L2.924372558590001 3.9238216141700235 L2.947403156589992 3.90998697917 L2.970189615589966 3.901116536170022 L2.9941153965899687 3.8966406251700363 L3.0437573235900075 3.8964778641700235 L3.068903808590001 3.899651692170025 L3.0805411775899714 3.9036393231700544 L3.085423990589966 3.9103938801700195 L3.085505370590006 3.9221126301700195 L3.0868888345899634 3.932610677170018 L3.0908764645900035 3.9422135411700054 L3.0989331045899533 3.95100260417 L3.087377115589966 3.969069010170003 L3.082657063589984 3.985019531170039 L3.075739745590006 3.999261067170025 L3.057266438589984 4.012444661170022 L3.0790763345899634 4.029778646170016 L3.0950268545899533 4.045403646170016 L3.107722167590005 4.063714192170025 L3.142878417590005 4.133619791170005 L3.1589916985900075 4.152500000170036 L3.1809643545899533 4.1701595051700195 L3.181940917590005 4.1603938801700195 L3.181208495590006 4.147617187170042 L3.1821036775899714 4.135735677170018 L3.187800292590005 4.1291438801700195 L3.195856933590001 4.131585286170022 L3.207087401589952 4.1506282551700195 L3.214981281589992 4.1564876301700195 L3.2348380525899714 4.152093099170017 L3.2432202145900035 4.1347591141700235 L3.242487792590005 4.113030599170017 L3.235489094589987 4.095045573170054 L3.261856281589992 4.092604166170005 L3.281062011590002 4.110589192170025 L3.298395995590006 4.134433593170044 L3.318659667590005 4.149651692170025 L3.3290763345899634 4.141839192170025 L3.318171386590002 4.115390625170036 L3.2942456045899533 4.073968099170017 L3.2744702145900035 4.065423177170018 L3.233047688589984 4.027825521170016 L3.208145344589987 4.019280599170017 L3.175918781589992 4.021152343170044 L3.167129719589987 4.019280599170017 L3.1489005525899714 4.008619791170005 L3.150690917590005 4.0019466141700235 L3.1625724275899714 3.9954361981700544 L3.1746166985900075 3.9851822911700054 L3.2011466465899687 3.944980468170044 L3.2055411775899714 3.925449218170044 L3.1946362295899533 3.90998697917 L3.183649901589952 3.908847656170039 L3.169978026589952 3.9106380211700156 L3.158503417590005 3.9106380211700156 L3.1536206045899533 3.9031510411700054 L3.156875813589984 3.8869563801700195 L3.171442870590006 3.8596126301700195 L3.1825919595899634 3.8230729161700054 L3.201472167590005 3.8038671871700416 L3.2460685215899687 3.7695247391700235 L3.309138183590001 3.700677083170021 L3.332331542590005 3.6840755211700156 L3.334040526589952 3.689202474170017 L3.336237792590005 3.6933528641700235 L3.338028156589992 3.697991536170022 L3.338516438589984 3.704583333170021 L3.349665526589952 3.698479817170025 L3.376765136590002 3.673577474170017 L3.4192456045899533 3.643548177170018 L3.431127115589966 3.63264322917 L3.454645995590006 3.6171809891700235 L3.4812573235900075 3.6145768231700544 L3.507624511590002 3.614983724170017 L3.5303295895900035 3.608391927170018 L3.517145995590006 3.5997656251700363 L3.486140136590002 3.591464843170044 L3.482478026589952 3.581780599170017 L3.4932202145900035 3.570957031170039 L3.550837401589952 3.557285156170039 L3.653864745590006 3.4848567711700156 L3.7293041985900075 3.4179622391700235 L3.771540526589952 3.405999349170017 L3.799372558590001 3.391350911170022 L3.8149161775899714 3.3880143231700544 L3.8213452145900035 3.391350911170022 L3.824356281589992 3.399082031170039 L3.825658365589966 3.4083593751700363 L3.8254956045899533 3.4347265621700416 L3.8271232095899634 3.440179036170022 L3.839330240589966 3.4650000001700363 L3.847224120590006 3.4750911461700156 L3.857966308590001 3.483636067170025 L3.873591308590001 3.4923437501700363 L3.907770995590006 3.5060156251700363 L3.9246166985900075 3.5169205731700544 L3.9247794595899634 3.5292903641700235 L3.9148510735900075 3.5423111981700544 L3.8997143545899533 3.5677018231700544 L3.887263183590001 3.57795572917 L3.871719563589984 3.5878841141700235 L3.861465656589992 3.598382161170022 L3.816950683590001 3.685214843170044 L3.804987792590005 3.7189062501700363 L3.808161620590006 3.742506510170003 L3.818903808590001 3.744785156170039 L3.826309406589992 3.730787760170003 L3.835423990589966 3.697910156170039 L3.847142740589966 3.6876562501700363 L3.865371906589992 3.6818782551700195 L3.900935058590001 3.676751302170018 L3.9348706045899533 3.664381510170003 L3.9664461255899894 3.648105468170044 L3.997533365589966 3.639397786170022 L4.029922688589984 3.650058593170044 L4.066218261590002 3.6367122391700235 L4.082006021589969 3.626214192170025 L4.085261229589953 3.608391927170018 L4.081354979589953 3.6026953121700416 L4.074844563589984 3.601230468170044 L4.066706542590005 3.600579427170018 L4.057917479589953 3.5981380211700156 L4.049372558590001 3.5930924481700544 L4.0457104485900075 3.588616536170022 L4.028946125589989 3.55842447917 L4.015111490589966 3.4949479161700054 L4.015437011590002 3.488600260170003 L4.012181802589971 3.485589192170025 L3.999567870590006 3.4848567711700156 L3.9906974275899714 3.4865657551700195 L3.9617260735900075 3.4991796871700416 L3.9589591465899687 3.4864843751700363 L3.9602612295899533 3.4750911461700156 L3.9697827145900035 3.450839843170044 L3.956192219589987 3.452630208170021 L3.9452872715899687 3.4523046871700416 L3.937800292590005 3.447584635170003 L3.9316153965899687 3.427239583170021 L3.914606933590001 3.417718099170017 L3.907770995590006 3.409173177170018 L3.905817870590006 3.38654947917 L3.914606933590001 3.364983724170017 L3.9418693025899714 3.327874349170017 L3.975153808590001 3.299147135170003 L4.018203938589984 3.2716406251700363 L4.055638834589963 3.2395768231700544 L4.077285969589987 3.180413411170022 L4.091283365589966 3.1625911461700156 L4.1416577145900035 3.1163671871700416 L4.162653808590001 3.104485677170018 L4.185196125589989 3.0969986981700544 L4.208796386590002 3.094475911170022 L4.2217358395900035 3.083489583170021 L4.224746906589992 3.060214843170044 L4.218236490589966 3.0395442711700156 L4.2019604485900075 3.0364518231700544 L4.190974120590006 3.0454036461700156 L4.185114745590006 3.061516927170018 L4.173965656589992 3.0672135411700054 L4.158503417590005 3.068108724170017 L4.149063313589984 3.0624934891700235 L4.1336010735900075 3.0398697911700054 L4.139785969589987 3.0398697911700054 L4.169896646589969 2.993157552170018 L4.294733886590002 2.864495442170025 L4.308731281589992 2.854485677170018 L4.3152416985900075 2.858391927170018 L4.3191479485900075 2.869459635170003 L4.325495604589953 2.881585286170022 L4.346003417590005 2.9045345051700195 L4.347305500589989 2.915032552170018 L4.342910969589987 2.976311849170017 L4.346654459589963 2.991448567170025 L4.350886229589953 2.995354817170025 L4.357478026589952 2.997552083170021 L4.363825683590001 3.0021093751700363 L4.366999511590002 3.0125260411700054 L4.364395344589987 3.015292968170044 L4.353327636590002 3.0398697911700054 L4.295873209589963 3.105136718170044 L4.280736490589966 3.128655599170017 L4.2705639645900035 3.158522135170003 L4.260310058590001 3.280755208170021 L4.263646646589969 3.29279947917 L4.277644042590005 3.300530599170017 L4.289525552589971 3.298089192170025 L4.322321776589952 3.280511067170025 L4.332331542590005 3.273186849170017 L4.3503979485900075 3.24592447917 L4.359838052589971 3.218011067170025 L4.372858886590002 3.1916438801700195 L4.4011791985900075 3.169589843170044 L4.412409667590005 3.1779720051700195 L4.415827636590002 3.1687760411700054 L4.4148510735900075 3.142897135170003 L4.420466308590001 3.126214192170025 L4.491999511590002 2.9933203121700416 L4.497370604589953 2.9641861981700544 L4.501765136590002 2.951816406170039 L4.534317219589987 2.919427083170021 L4.537165526589952 2.911126302170018 L4.537084146589969 2.8930598961700156 L4.540827636590002 2.885410156170039 L4.548477375589989 2.879632161170022 L4.565567219589987 2.8715755211700156 L4.571263834589963 2.867913411170022 L4.593806151589952 2.842522786170022 L4.602839354589953 2.827792968170044 L4.606582844589987 2.813958333170021 L4.613581542590005 2.79865885417 L4.628392740589966 2.790520833170021 L4.642552896589969 2.780511067170025 L4.647028808590001 2.759270833170021 L4.689509276589952 2.817132161170022 L4.709040526589952 2.833733724170017 L4.722142740589966 2.838860677170018 L4.753474120590006 2.847324218170044 L4.764297688589984 2.854973958170021 L4.769506021589969 2.866936849170017 L4.7683666985900075 2.890130208170021 L4.7705639645900035 2.902662760170003 L4.785131021589969 2.8867122391700235 L4.7861889645900035 2.864495442170025 L4.777969563589984 2.8442317711700156 L4.764297688589984 2.833733724170017 L4.7920483395900035 2.812167968170044 L4.818496906589992 2.815097656170039 L4.838435058590001 2.8360937501700363 L4.846166177589971 2.8683203121700416 L4.844701334589963 2.936272786170022 L4.850153808590001 2.9552343751700363 L4.866755370590006 2.930006510170003 L4.872370604589953 2.9006282551700195 L4.872045084589963 2.8595312501700363 L4.862930500589989 2.822991536170022 L4.8428295895900035 2.8071223961700156 L4.829401854589953 2.8027278641700235 L4.816869302589971 2.792229817170025 L4.794733886590002 2.769280599170017 L4.775935058590001 2.759433593170044 L4.760879719589987 2.7617122391700235 L4.7295483395900035 2.7797786461700156 L4.716608886590002 2.784905599170017 L4.703669433590001 2.787428385170003 L4.689916177589971 2.7843359371700416 L4.6748608395900035 2.7722916661700054 L4.6668041985900075 2.7582942711700156 L4.660619302589971 2.743808593170044 L4.653783365589966 2.7385188801700195 L4.625544433590001 2.7765234371700416 L4.612849120590006 2.788323567170025 L4.602839354589953 2.7934505211700156 L4.5967358395900035 2.7856380211700156 L4.575983886590002 2.749505208170021 L4.571263834589963 2.7382747391700235 L4.5732983395900035 2.73420572917 L4.583470865589966 2.724277343170044 L4.585505370590006 2.717766927170018 L4.583552245590006 2.7081640621700416 L4.579727375589989 2.7024674481700544 L4.5752514645900035 2.6977473961700156 L4.558243000589989 2.663079427170018 L4.558649901589952 2.6570572911700054 L4.562800292590005 2.653802083170021 L4.564590656589992 2.6508723961700156 L4.553278808590001 2.642327474170017 L4.551407063589984 2.639316406170039 L4.553034667590005 2.5961848961700156 L4.5593823235900075 2.5624934891700235 L4.571833495590006 2.530999349170017 L4.592341308590001 2.505527343170044 L4.616185709589963 2.491448567170025 L4.623591308590001 2.4832291661700054 L4.626439615589966 2.4672786461700156 L4.6277416985900075 2.4374934891700235 L4.6318920895900035 2.426751302170018 L4.640762531589992 2.4161718751700363 L4.664362792590005 2.408929036170022 L4.710912271589969 2.441725260170003 L4.743464354589953 2.4399348961700156 L4.756810709589963 2.436516927170018 L4.776667479589953 2.439202474170017 L4.784724120590006 2.436516927170018 L4.793431802589971 2.425449218170044 L4.799779459589963 2.409173177170018 L4.8037670895900035 2.3919205731700544 L4.805231933590001 2.378167317170025 L4.8015698235900075 2.35529947917 L4.791641438589984 2.327792968170044 L4.7764233395900035 2.303948567170025 L4.7568920895900035 2.292636718170044 L4.769994302589971 2.278964843170044 L4.791478677589971 2.284824218170044 L4.832575683590001 2.313714192170025 L4.8406323235900075 2.317864583170021 L4.849258625589989 2.3211197911700054 L4.857396646589969 2.3255143231700544 L4.863581542590005 2.333489583170021 L4.864883625589989 2.3465104161700054 L4.8584545895900035 2.356113281170039 L4.850153808590001 2.3654720051700195 L4.846166177589971 2.378167317170025 L4.842910969589987 2.4036393231700544 L4.828425292590005 2.4553157551700195 L4.825170084589963 2.481194661170022 L4.8250073235900075 2.4902278641700235 L4.826472167590005 2.5058528641700235 L4.832657063589984 2.518304036170022 L4.846166177589971 2.518548177170018 L4.852839354589953 2.510491536170022 L4.853327636590002 2.4991796871700416 L4.852025552589971 2.4874609371700416 L4.853002115589966 2.478183593170044 L4.860814615589966 2.4719986981700544 L4.873672688589984 2.464104817170025 L4.8838452145900035 2.4553157551700195 L4.8838452145900035 2.446770833170021 L4.875951334589963 2.437819010170003 L4.8682202145900035 2.426425781170039 L4.8623608395900035 2.4140559891700235 L4.8604077145900035 2.4025000001700363 L4.867650552589971 2.380527343170044 L4.894668781589992 2.3445572911700054 L4.900853677589971 2.323235677170018 L4.900853677589971 2.300042317170025 L4.898086750589989 2.277011718170044 L4.889216308590001 2.259270833170021 L4.849584146589969 2.2460872391700235 L4.827448729589953 2.2309505211700156 L4.790990396589969 2.197014974170017 L4.866999511590002 2.1583593751700363 L4.866999511590002 2.145745442170025 L4.818903808590001 2.11506510417 L4.778620604589953 2.099277343170044 L4.767390136590002 2.090569661170022 L4.741185709589963 2.042636718170044 L4.725723469589987 1.977207031170039 L4.733698729589953 1.9213802081700209 L4.777399901589952 1.9021744791700002 L4.766739094589987 1.8867122391700235 L4.754450683590001 1.8810156251700363 L4.745091959589963 1.8719010411700054 L4.743138834589963 1.8469173171700248 L4.746231281589992 1.825921224170017 L4.754206542590005 1.7961360671700248 L4.767715656589992 1.7755468751700363 L4.7878979485900075 1.7820572911700054 L4.802871906589992 1.7831966141700235 L4.811091308590001 1.758457031170039 L4.8154858395900035 1.7136979161700054 L4.824030761590002 1.7060481771700182 L4.8347729485900075 1.6997005211700156 L4.845270995590006 1.6997005211700156 L4.853002115589966 1.7102799481700544 L4.848770344589987 1.716546224170017 L4.8386791985900075 1.7248470051700195 L4.832494302589971 1.736077474170017 L4.839411620590006 1.7512955731700544 L4.845026854589953 1.7482845051700195 L4.854792479589953 1.7463313801700195 L4.8604077145900035 1.7444596351700028 L4.855036620590006 1.7565852861700222 L4.857233886590002 1.7677343751700363 L4.865209146589969 1.7731054681700442 L4.877009276589952 1.7680598961700156 L4.880915526589952 1.7597591141700235 L4.881159667590005 1.7509700521700182 L4.885228677589971 1.7429134111700222 L4.900853677589971 1.7370540361700222 L4.882461750589989 1.7175227861700222 L4.881159667590005 1.7101171871700416 L4.918269042590005 1.7102799481700544 L4.933568521589969 1.7216731771700182 L4.9404858395900035 1.7472265621700416 L4.9441479485900075 1.7747330731700544 L4.949274901589952 1.7923111981700544 L4.977025552589971 1.779941406170039 L4.992325031589992 1.7883235671700248 L4.999974771589969 1.8088313801700195 L5.004450683590001 1.8332454421700248 L5.021784667590005 1.8785742181700442 L5.024388834589963 1.8953385411700054 L5.024388834589963 1.9021744791700002 L5.025202636590002 1.9089290361700222 L5.028295084589963 1.9143001301700195 L5.043920084589963 1.9199153641700235 L5.041560058590001 1.9275651041700002 L5.031224771589969 1.9396907551700195 L5.042292479589953 1.9597916661700054 L5.068415526589952 1.9787532551700195 L5.098119302589971 1.9929134111700222 L5.120254719589987 1.9982845051700195 L5.148575031589992 1.9912044271700182 L5.177302245590006 1.9728938801700195 L5.191055500589989 1.9484798171700248 L5.174453938589984 1.9226009111700222 L5.181452636590002 1.9070572911700054 L5.181940917590005 1.8543229161700054 L5.187556151589952 1.8381282551700195 L5.2058666985900075 1.8059016921700248 L5.209447427589971 1.7923111981700544 L5.187637531589992 1.7570735671700248 L5.183243000589989 1.7392513021700182 L5.202611490589966 1.7307877601700028 L5.214167479589953 1.7364843751700363 L5.243464354589953 1.7786393231700544 L5.248591308590001 1.7600846351700028 L5.257298990589966 1.7421809891700235 L5.267552896589969 1.727207031170039 L5.277481281589992 1.7171158851700028 L5.290339354589953 1.7125585931700442 L5.309138183590001 1.7094661461700156 L5.327611490589966 1.7086523431700442 L5.339655761590002 1.7102799481700544 L5.339411620590006 1.7053157551700195 L5.339981281589992 1.6949804681700442 L5.339655761590002 1.6899348961700156 L5.362767740589966 1.7097102861700222 L5.374567870590006 1.7159765621700416 L5.384089354589953 1.7136979161700054 L5.3818920895900035 1.7049088541700002 L5.364395344589987 1.6699153641700235 L5.3565014645900035 1.6420833331700209 L5.3389233395900035 1.6194596351700028 L5.332168781589992 1.608066406170039 L5.3291577145900035 1.5945572911700054 L5.328588052589971 1.580722656170039 L5.332168781589992 1.553378906170039 L5.347793781589992 1.5568782551700195 L5.356908365589966 1.5660742181700442 L5.363907063589984 1.5773860671700248 L5.3738354485900075 1.5875585931700442 L5.374323729589953 1.6038346351700028 L5.392634276589952 1.615878906170039 L5.445612792590005 1.6363867181700442 L5.454890136590002 1.638421224170017 L5.464899901589952 1.6369563801700195 L5.476862792590005 1.6315852861700222 L5.4893139645900035 1.628655599170017 L5.501927896589969 1.630608724170017 L5.513728026589952 1.6340266921700248 L5.524551594589987 1.6352473961700156 L5.560847167590005 1.6252376301700195 L5.597305500589989 1.6044856771700182 L5.630020344589987 1.576816406170039 L5.654922688589984 1.5458919271700182 L5.6375073235900075 1.526035156170039 L5.651830240589966 1.4975520831700209 L5.689102375589989 1.4533626301700195 L5.685847167590005 1.4410742181700442 L5.671198729589953 1.4177994791700002 L5.668024901589952 1.4021744791700002 L5.668594563589984 1.3692968751700363 L5.670873209589963 1.3525325521700182 L5.693415526589952 1.2737565101700028 L5.706680500589989 1.2459244791700002 L5.734431151589952 1.2094661461700156 L5.742162271589969 1.194003906170039 L5.748103026589952 1.1778906251700363 L5.750544433590001 1.1653580731700544 L5.755427245590006 1.154046224170017 L5.767145995590006 1.1391536461700156 L5.780736490589966 1.1262955731700544 L5.791560058590001 1.1213313801700195 L5.787165526589952 1.0960221351700028 L5.803034667590005 1.0314062501700363 L5.805231933590001 1.0046321611700222 L5.799453938589984 0.9918554681700442 L5.779353026589952 0.9684179681700442 L5.771052245590006 0.9562923171700248 L5.764623209589963 0.9425390621700416 L5.760716959589963 0.9313085931700442 L5.755508625589989 0.8864680991700169 L5.751765136590002 0.8753190101700028 L5.736872558590001 0.8537532551700195 L5.730606281589992 0.8499283851700028 L5.725153808590001 0.8513932291700002 L5.720189615589966 0.8505794271700182 L5.715795084589963 0.8401627601700028 L5.716120604589953 0.8300716141700235 L5.721003417590005 0.8242122391700235 L5.726618651589952 0.8193294271700182 L5.730036620590006 0.8122493491700169 L5.7293041985900075 0.8039485671700248 L5.723607584589963 0.7917415361700222 L5.723200683590001 0.7849055991700169 L5.734431151589952 0.7604101561700389 L5.736872558590001 0.7575618491700169 L5.7293041985900075 0.7455989581700209 L5.7178295895900035 0.7443782551700195 L5.703750813589984 0.7497493491700169 L5.689102375589989 0.7575618491700169 L5.688614094589987 0.7281835931700442 L5.679743651589952 0.7114192711700156 L5.6475170895900035 0.6824479161700054 L5.631973469589987 0.6417578121700416 L5.623591308590001 0.6281673171700248 L5.620743000589989 0.6476985671700248 L5.579890136590002 0.6279231771700182 L5.591934406589992 0.6183203121700416 L5.609512531589992 0.5910579421700248 L5.620743000589989 0.5900000001700363 L5.632787271589969 0.5955338541700002 L5.643529459589963 0.5986263021700182 L5.668431802589971 0.5999283851700028 L5.702611490589966 0.6066829421700248 L5.723770344589987 0.6246679681700442 L5.753962401589952 0.6818782551700195 L5.764948729589953 0.6877376301700195 L5.780573729589953 0.6830989581700209 L5.7957104485900075 0.6728450521700182 L5.805231933590001 0.6621028641700235 L5.8093823235900075 0.6471289061700389 L5.812067870590006 0.5937434891700235 L5.814265136590002 0.5878841141700235 L5.825658365589966 0.5663997391700235 L5.825739745590006 0.5612727861700222 L5.823868000589989 0.5471126301700195 L5.825658365589966 0.5390559891700235 L5.834528808590001 0.5263606771700182 L5.847305500589989 0.5165950521700182 L5.861465656589992 0.5129329421700248 L5.8740795895900035 0.5187109371700416 L5.880671386590002 0.5008072911700054 L5.891088052589971 0.4923437501700363 L5.903295084589963 0.4848567711700156 L5.9150952145900035 0.47020833317002086 L5.929825031589992 0.48811197917000015 L5.942845865589966 0.47444010417000015 L5.955622558590001 0.4499446611700222 L5.969701334589963 0.4355403641700235 L5.986140136590002 0.44904947917000015 L6.001114094589987 0.4436783851700028 L6.0125073235900075 0.4274023431700442 L6.018122558590001 0.40884765617003893 L6.016901854589953 0.4011165361700222 L6.013483886590002 0.39387369817005435 L6.0105541985900075 0.3857356771700182 L6.011286620590006 0.3746679681700442 L6.016739094589987 0.36351888017001954 L6.024388834589963 0.35725260417000015 L6.032364094589987 0.3526953121700416 L6.039118651589952 0.3466731771700182 L6.048965656589992 0.34496419217002483 L6.051407063589984 0.3395930991700169 L6.045384927589971 0.3263281251700363 L6.036758625589989 0.3165625001700363 L6.0300854485900075 0.3149348961700156 L6.0225170895900035 0.3155859371700416 L6.011286620590006 0.3124934891700235 L6.006322427589971 0.3082617181700442 L6.0029858395900035 0.3024023431700442 L5.998672688589984 0.29638020817002086 L5.990778808590001 0.2914973961700156 L5.979792479589953 0.28970703117003893 L5.942927245590006 0.2914973961700156 L5.956354979589953 0.2731868491700169 L5.996556802589971 0.2604915361700222 L6.011286620590006 0.24364583317002086 L6.0264233395900035 0.2540625001700363 L6.059056802589971 0.2989843751700363 L6.065892740589966 0.2914973961700156 L6.0732983395900035 0.2989843751700363 L6.074356281589992 0.2796158851700028 L6.066706542590005 0.2579687501700363 L6.051895344589987 0.24104166617000544 L6.031794433590001 0.23680989617001558 L6.035700683590001 0.2267187501700363 L6.041966959589963 0.21988281217004157 L6.048395995590006 0.21451171817004422 L6.052790526589952 0.20962890617003893 L6.062963052589971 0.2052343751700363 L6.065892740589966 0.20263020817002086 L6.064590656589992 0.19945638017001954 L6.061172688589984 0.1933528641700235 L6.0593823235900075 0.18619140617003893 L6.062474771589969 0.17886718717004157 L6.092422688589984 0.1466406251700363 L6.109919433590001 0.13654947917000015 L6.1279858395900035 0.1406184891700235 L6.138239745590006 0.14777994817005435 L6.165827636590002 0.17886718717004157 L6.172500813589984 0.19302734317004422 L6.1726635735900075 0.22183593717004157 L6.179336750589989 0.23371744817005435 L6.199030761590002 0.25910807317005435 L6.201634927589971 0.28344075517001954 L6.198868000589989 0.3093196611700222 L6.202937011590002 0.33918619817005435 L6.220759276589952 0.37621419217002483 L6.222956542590005 0.3911067711700156 L6.217097167590005 0.3915950521700182 L6.179336750589989 0.3500911461700156 L6.170059406589992 0.34830078117003893 L6.162653808590001 0.35692708317002086 L6.155817870590006 0.36840169217002483 L6.148412271589969 0.3746679681700442 L6.134821776589952 0.37133138017001954 L6.123591308590001 0.36067057317005435 L6.116185709589963 0.34651041617000544 L6.113744302589971 0.3331640621700416 L6.103083495590006 0.33812825517001954 L6.095189615589966 0.3460221351700028 L6.089899901589952 0.3557877601700028 L6.0869702145900035 0.3671809891700235 L6.099095865589966 0.3732031251700363 L6.096247558590001 0.38500325517001954 L6.079564615589966 0.4150325521700182 L6.094701334589963 0.41470703117003893 L6.115290526589952 0.4177180991700169 L6.1336010735900075 0.4238216141700235 L6.1416577145900035 0.4323665361700222 L6.138239745590006 0.43895833317002086 L6.1238354485900075 0.45100260417000015 L6.121149901589952 0.45653645817002086 L6.122858886590002 0.4651627601700028 L6.126276854589953 0.4742773431700442 L6.131403808590001 0.47777669217002483 L6.138239745590006 0.47020833317002086 L6.148900552589971 0.4523046871700416 L6.1570385735900075 0.44807291617000544 L6.1650952145900035 0.4550716141700235 L6.175756021589969 0.47020833317002086 L6.174372558590001 0.4753352861700222 L6.169978026589952 0.4821712241700169 L6.169408365589966 0.48811197917000015 L6.179336750589989 0.4907161461700156 L6.199274901589952 0.49144856717002483 L6.208959146589969 0.48973958317002086 L6.216771646589969 0.4845312501700363 L6.222468261590002 0.4672786461700156 L6.208308104589953 0.4391210931700442 L6.213028156589992 0.4257747391700235 L6.2312573235900075 0.4157649741700169 L6.242650552589971 0.42268229117000544 L6.271621906589992 0.4672786461700156 L6.2744702145900035 0.4788346351700028 L6.274958495590006 0.49047200517001954 L6.2781323235900075 0.5043880211700156 L6.287653808590001 0.5198502601700028 L6.2979077145900035 0.5309993491700169 L6.305313313589984 0.5444270831700209 L6.306127115589966 0.5663997391700235 L6.312800292590005 0.5533789061700389 L6.321426594589987 0.5449153641700235 L6.332331542590005 0.5403580731700544 L6.3464916985900075 0.5390559891700235 L6.361628417590005 0.5416601561700389 L6.367813313589984 0.5471940101700028 L6.372045084589963 0.5548437501700363 L6.389297688589984 0.5711197911700054 L6.395075683590001 0.5836523431700442 L6.395645344589987 0.5949641921700248 L6.387995604589953 0.5999283851700028 L6.3740795895900035 0.5966731771700182 L6.361953938589984 0.5913020831700209 L6.350886229589953 0.5903255211700156 L6.340306802589971 0.5999283851700028 L6.364720865589966 0.6197851561700389 L6.377578938589984 0.6355729161700054 L6.388972167590005 0.6370377601700028 L6.408503417590005 0.6136002601700028 L6.4363354485900075 0.6749609371700416 L6.442683104589953 0.6961197911700054 L6.444880370590006 0.7226497391700235 L6.442357584589963 0.7355891921700248 L6.4326733395900035 0.7337174481700544 L6.4246166985900075 0.7226497391700235 L6.421687011590002 0.7101985671700248 L6.422012531589992 0.6824479161700054 L6.415990396589969 0.7096289061700389 L6.430801594589987 0.7665950521700182 L6.425430500589989 0.7887304681700442 L6.417536620590006 0.7991471351700028 L6.4131420895900035 0.8097265621700416 L6.412409667590005 0.8207942711700156 L6.415339354589953 0.8327571611700222 L6.4246166985900075 0.8496028641700235 L6.431696776589952 0.8484635411700054 L6.439265136590002 0.8414648431700442 L6.450170084589963 0.8401627601700028 L6.465144042590005 0.8499283851700028 L6.4854077145900035 0.8675065101700028 L6.503229979589953 0.8876888021700182 L6.510879719589987 0.9050227861700222 L6.513158365589966 0.9177994791700002 L6.523005370590006 0.9392024741700169 L6.525202636590002 0.9500260411700054 L6.522598469589987 0.9628841141700235 L6.509740396589969 0.9848567711700156 L6.504694823589951 0.9977962241700169 L6.513646646589969 0.9931575521700182 L6.5225170895900035 0.9913671871700416 L6.530899250589989 0.9926692711700156 L6.538711750589989 0.9977962241700169 L6.544733886590002 0.9866471351700028 L6.551325683590001 0.9781835931700442 L6.556940917590005 0.9690690101700028 L6.562067870590006 0.9415625001700363 L6.5693920895900035 0.9328548171700248 L6.580378417590005 0.9309830731700544 L6.594050292590005 0.9363541661700054 L6.589330240589966 0.9462825521700182 L6.586563313589984 0.9500260411700054 L6.600153808590001 0.9534440101700028 L6.613581542590005 0.9599544271700182 L6.625544433590001 0.9684179681700442 L6.650446776589952 0.9912044271700182 L6.654841308590001 0.9977962241700169 L6.650446776589952 1.0231054681700442 L6.651830240589966 1.0322200521700182 L6.664606933590001 1.0587500001700363 L6.673965656589992 1.0691666661700054 L6.6865795895900035 1.0734798171700248 L6.700332844589987 1.0725846351700028 L6.714167479589953 1.0733984371700416 L6.7236889645900035 1.0812923171700248 L6.724421386590002 1.1013932291700002 L6.717341308590001 1.1067643231700544 L6.706192219589987 1.1098567711700156 L6.702448729589953 1.1173437501700363 L6.716934406589992 1.1350032551700195 L6.730443521589969 1.142327474170017 L6.743952636590002 1.1466406251700363 L6.754369302589971 1.1552669271700182 L6.758438313589984 1.1756119791700002 L6.763728026589952 1.190097656170039 L6.786758625589989 1.2170345051700195 L6.7920483395900035 1.2268001301700195 L6.7940014645900035 1.2804296871700416 L6.785212401589952 1.3609960931700442 L6.7861889645900035 1.3762141921700248 L6.790990396589969 1.3964778641700235 L6.7920483395900035 1.4124283851700028 L6.795873209589963 1.4250423171700248 L6.823054198589951 1.4640234371700416 L6.826146646589969 1.4814388021700182 L6.822565917590005 1.5242447911700054 L6.826797688589984 1.5390559891700235 L6.840388183590001 1.5468684891700235 L6.852513834589963 1.5432877601700028 L6.863581542590005 1.537753906170039 L6.873998209589963 1.5390559891700235 L6.882787271589969 1.5534602861700222 L6.881647948589951 1.570957031170039 L6.873998209589963 1.6044856771700182 L6.8760327145900035 1.6313411461700156 L6.890437011590002 1.6899348961700156 L6.901911620590006 1.7171158851700028 L6.906306151589952 1.7224869791700002 L6.918269042590005 1.7316829421700248 L6.922419433590001 1.7370540361700222 L6.923802896589969 1.7448665361700222 L6.922012531589992 1.7629329421700248 L6.922419433590001 1.771233724170017 L6.926325683590001 1.7919856771700182 L6.929255370590006 1.7990657551700195 L6.931778156589992 1.8028906251700363 L6.935114745590006 1.8050065101700028 L6.939020995590006 1.8063085931700442 L6.943171386590002 1.8066341141700235 L6.949193521589969 1.8080989581700209 L6.950170084589963 1.8121679681700442 L6.950007323589951 1.8176204421700248 L6.953181151589952 1.8233984371700416 L6.955378417590005 1.834628906170039 L6.947321776589952 1.8686458331700209 L6.953181151589952 1.8847591141700235 L6.960749511590002 1.8959895831700209 L6.983861490589966 1.943108724170017 L6.992813313589984 1.9760677081700209 L7.003392740589966 2.175449218170044 L7.023412271589969 2.249749349170017 L7.026179198589951 2.278557942170025 L7.025202636590002 2.314121093170044 L7.015925292590005 2.3420345051700195 L7.013158365589966 2.360019531170039 L7.011774901589952 2.395257161170022 L7.014134927589971 2.4160091141700235 L7.020970865589966 2.4277278641700235 L7.0459545895900035 2.450188802170018 L7.062800292590005 2.480136718170044 L7.0635327145900035 2.508782552170018 L7.051081542590005 2.585605468170044 L7.041478677589971 2.6165299481700544 L7.039118651589952 2.632073567170025 L7.040827636590002 2.6495703121700416 L7.053360188589984 2.6972591141700235 L7.060684406589992 2.808098958170021 L7.087946776589952 2.862542317170025 L7.090795084589963 2.8989192711700156 L7.082168781589992 2.931145833170021 L7.0596264645900035 2.9435970051700195 L7.068822427589971 2.955804036170022 L7.095515136590002 2.969069010170003 L7.107396646589969 2.977776692170025 L7.115209146589969 2.9907161461700156 L7.121638183590001 3.0082942711700156 L7.133601073589951 3.07209635417 L7.205134276589952 3.226067708170021 L7.223444823589951 3.253411458170021 L7.271947427589971 3.3110286461700156 L7.282038573589951 3.327141927170018 L7.290339354589953 3.360996093170044 L7.300918781589992 3.371412760170003 L7.314020995590006 3.37873697917 L7.326472167590005 3.3880143231700544 L7.339899901589952 3.412428385170003 L7.348200683590001 3.444980468170044 L7.353815917590005 3.5091080731700544 L7.352839354589953 3.515130208170021 L7.346979979589953 3.530999349170017 L7.337458495590006 3.546542968170044 L7.337051594589987 3.553460286170022 L7.339330240589966 3.5605403641700235 L7.340795084589963 3.5705501301700195 L7.339493000589989 3.577630208170021 L7.329890136590002 3.6015559891700235 L7.327937011590002 3.6115657551700195 L7.329890136590002 3.621412760170003 L7.332575683590001 3.630120442170025 L7.333308104589953 3.636386718170044 L7.329076334589963 3.644199218170044 L7.316950683590001 3.6564876301700195 L7.312800292590005 3.663079427170018 L7.305964354589953 3.697910156170039 L7.2881420895900035 3.74787760417 L7.2861889645900035 3.766350911170022 L7.279759927589971 3.7932063801700195 L7.190892740589966 3.956536458170021 L7.183080240589966 3.9851822911700054 L7.193171386590002 3.990960286170022 L7.186660969589987 4.004225260170003 L7.1143139645900035 4.095045573170054 L7.091446125589989 4.151197916170005 L7.080052896589969 4.16389322917 L7.063939615589966 4.1679622391700235 L7.047989094589987 4.165764974170017 L7.032770995590006 4.1662532551700195 L7.018041177589971 4.17756510417 L6.997858886590002 4.128248698170054 L6.980769042590005 4.112298177170018 L6.956599120590006 4.1154720051700195 L6.907364094589987 4.073968099170017 L6.888809406589992 4.052402343170044 L6.881403808590001 4.022698567170025 L6.876602375589989 3.971429036170022 L6.874567870590006 3.964104817170025 L6.862604979589953 3.9594661461700156 L6.848444823589951 3.9485611981700544 L6.835423990589966 3.93537760417 L6.826797688589984 3.9243098961700156 L6.820124511590002 3.9109635411700054 L6.814916177589971 3.895175781170039 L6.812067870590006 3.878411458170021 L6.812556151589952 3.862298177170018 L6.818008625589989 3.8459407551700195 L6.824519042590005 3.832675781170039 L6.825739745590006 3.819573567170025 L6.815974120590006 3.804355468170044 L6.8096264645900035 3.798577474170017 L6.803848469589987 3.795566406170039 L6.797419433590001 3.7942643231700544 L6.788630370590006 3.793938802170018 L6.783991698589951 3.79084635417 L6.755508625589989 3.754550781170039 L6.7529858395900035 3.741692708170021 L6.758438313589984 3.71076822917 L6.758926594589987 3.69319010417 L6.7510327145900035 3.6425716141700235 L6.752416177589971 3.63654947917 L6.755996906589992 3.63069010417 L6.757298990589966 3.6238541661700054 L6.7510327145900035 3.6152278641700235 L6.746149901589952 3.613600260170003 L6.727513834589963 3.6118098961700156 L6.701309406589992 3.6249934891700235 L6.664851073589951 3.6288997391700235 L6.600235188589984 3.6288997391700235 L6.567683104589953 3.639641927170018 L6.545384927589971 3.659417317170025 L6.488337401589952 3.737542317170025 L6.4893139645900035 3.763421224170017 L6.510879719589987 3.820631510170003 L6.512019042590005 3.834710286170022 L6.510879719589987 3.848626302170018 L6.500463052589971 3.875970052170018 L6.497858886590002 3.875970052170018 L6.504450683590001 3.888421224170017 L6.516088052589971 3.899163411170022 L6.527155761590002 3.9122656251700363 L6.535212401589952 3.9457942711700156 L6.549372558590001 3.9786718751700363 L6.556208495590006 4.02912760417 L6.566218261590002 4.060296224170017 L6.581029459589963 4.087151692170025 L6.583633625589989 4.098626302170018 L6.580378417590005 4.1154720051700195 L6.573054198589951 4.132317708170021 L6.542536620590006 4.184401041170005 L6.533503417590005 4.213209635170003 L6.533015136590002 4.246575521170016 L6.539688313589984 4.279778646170016 L6.552546386590002 4.307936198170054 L6.578669433590001 4.332350260170003 L6.643854979589953 4.354973958170021 L6.672663573589951 4.372796224170017 L6.695612792590005 4.405022786170022 L6.699763183590001 4.433750000170036 L6.678522948589951 4.5273372391700235 L6.6768139645900035 4.56623697917 L6.682266438589984 4.600904948170054 L6.7002514645900035 4.615878906170039 L6.710505370590006 4.622307942170025 L6.713028156589992 4.637444661170022 L6.709121906589992 4.6760188801700195 L6.704890136590002 4.690423177170018 L6.703913573589951 4.698072916170005 L6.703913573589951 4.732578125170036 L6.699356281589992 4.745354817170025 L6.646540526589952 4.8339778641700235 L6.617650552589971 4.866367187170042 L6.573054198589951 4.901035156170039 L6.574844563589984 4.946933593170044 L6.582006021589969 4.968011067170025 L6.597224120590006 4.989739583170021 L6.6182202145900035 5.008538411170022 L6.639785969589987 5.01936197917 L6.663548990589966 5.023105468170044 L6.690241698589951 5.020501302170018 L6.659968261590002 5.036858724170017 L6.628229979589953 5.048496093170044 L6.569636229589953 5.056959635170003 L6.544733886590002 5.070061849170017 L6.494440917590005 5.0744563801700195 L6.474421386590002 5.078606771170016 L6.458308104589953 5.089511718170044 L6.445612792590005 5.104973958170021 L6.378881021589969 5.2346126301700195 L6.332331542590005 5.360507812170042 L6.281224771589969 5.4768001301700195 L6.271296386590002 5.548089192170025 L6.275853677589971 5.563144531170039 L6.306127115589966 5.610100911170022 L6.353978677589971 5.855950521170016 L6.359512531589992 5.920647786170022 L6.347631021589969 5.989739583170021 L6.312556151589952 6.108636067170025 L6.263809406589992 6.2600032551700195 L6.2625073235900075 6.277500000170036 L6.263809406589992 6.29475260417 L6.267878417590005 6.30842447917 L6.2725170895900035 6.315667317170025 L6.283666177589971 6.328444010170003 L6.288386229589953 6.33576822917 L6.290664875589989 6.347161458170021 L6.284642740589966 6.352858073170054 L6.2744702145900035 6.356764323170054 L6.2644604485900075 6.363030599170017 L6.234024250589989 6.418450521170016 L6.209121906589992 6.616936849170017 L6.202123209589963 6.629713541170005 L6.183161620590006 6.652500000170036 L6.175756021589969 6.664788411170022 L6.151830240589966 6.733066406170039 L6.093073729589953 6.849765625170036 L6.041071776589952 7.035475260170003 L5.963353677589971 7.205397135170003 L5.9268139645900035 7.258538411170022 L5.835749511590002 7.571770833170021 L5.709528808590001 7.877597656170039 L5.675430500589989 8.035149739170024 L5.673151854589953 8.05842447917 L5.673640136590002 8.095696614170024 L5.641250813589984 8.186028646170016 L5.634903156589992 8.17365885417 L5.622614745590006 8.157382812170042 L5.609431151589952 8.148430989170024 L5.6003979485900075 8.158684896170016 L5.6045483395900035 8.170240885170003 L5.628881021589969 8.202141927170018 L5.634414875589989 8.217278646170016 L5.6316479485900075 8.230136718170044 L5.549128417590005 8.39281575517002 L5.491673990589966 8.538323567170025 L5.466120604589953 8.612705078170038 L5.412165526589952 8.770013021170016 L5.312312011590002 9.125156250170036 L5.301732584589963 9.141269531170039 L5.288386229589953 9.156975911170022 L5.2800854485900075 9.17211263017002 L5.284317219589987 9.186516927170018 L5.297419433590001 9.173821614170024 L5.304825031589992 9.177483724170017 L5.307266438589984 9.190748698170054 L5.3054760735900075 9.207024739170024 L5.298965656589992 9.221835937170042 L5.281224771589969 9.25145833317002 L5.277481281589992 9.268792317170025 L5.274063313589984 9.30297200517002 L5.2647045895900035 9.336907552170018 L5.228490396589969 9.416822916170005 L5.224909667590005 9.430494791170005 L5.222956542590005 9.460930989170024 L5.206599120590006 9.546624349170017 L5.191950683590001 9.582757161170022 L5.178034667590005 9.607578125170036 L5.051732584589963 9.989088541170005 L4.924535318589967 10.26513020817002 L4.797338052589971 10.541171875170036 L4.783503417590005 10.607089843170044 L4.750544433590001 10.67406575517002 L4.708552245590006 10.93895833317002 L4.689265136590002 10.99950520817002 L4.683731281589992 11.093906250170036 L4.649877115589966 11.205071614170024 L4.612279459589963 11.303053385170003 L4.587946776589952 11.448398437170042 L4.469375813589984 11.783522135170003 L4.4578198235900075 11.76976888017002 L4.452123209589963 11.758294271170016 L4.446426594589987 11.75609700517002 L4.435358886590002 11.769850260170003 L4.4248608395900035 11.791660156170039 L4.431778156589992 11.797519531170039 L4.448216959589963 11.798984375170036 L4.465957844589987 11.807366536170022 L4.470026854589953 11.833326823170054 L4.418594563589984 12.045566406170039 L4.364232584589963 12.17992513017002 L4.346654459589963 12.209303385170003 L4.339655761590002 12.215569661170022 L4.323786620590006 12.225091146170016 L4.318659667590005 12.229241536170022 L4.316543781589992 12.229241536170022 L4.306127115589966 12.232740885170003 L4.304987792590005 12.232903646170016 L4.298395995590006 12.238030599170017 L4.300430500589989 12.240960286170022 L4.304743651589952 12.244134114170024 L4.304987792590005 12.249667968170044 L4.304743651589952 12.252272135170003 L4.298151854589953 12.27758138017002 L4.280736490589966 12.31078450517002 L4.277969563589984 12.317701823170054 L4.220677896589969 12.463046875170036 L4.212946776589952 12.469475911170022 L4.200821125589989 12.465813802170018 L4.179499511590002 12.45653645817002 L4.1746166985900075 12.462558593170044 L4.1882885735900075 12.517246093170044 L4.162165526589952 12.678867187170042 L4.078262531589992 12.87328450517002 L4.053278808590001 12.909417317170025 L4.050430500589989 12.924309896170016 L4.051081542590005 12.955397135170003 L4.0440014645900035 12.971184896170016 L3.992731933590001 13.006992187170042 L3.978815917590005 13.037835286170022 L3.9873608395900035 13.102207031170039 L3.976048990589966 13.127272135170003 L3.9657950845899634 13.115960286170022 L3.9589591465899687 13.102695312170042 L3.955622558590001 13.087884114170024 L3.9555411775899714 13.07209635417 L3.946752115589966 13.086256510170003 L3.945856933590001 13.100823567170025 L3.9482169595899634 13.116367187170042 L3.948705240589966 13.133538411170022 L3.944473469589987 13.153069661170022 L3.9371492505899894 13.161289062170042 L3.907770995590006 13.171624349170017 L3.890762531589992 13.18147135417 L3.8626049795899533 13.205397135170003 L3.814590656589992 13.258619791170005 L3.804743651589952 13.26390950517002 L3.801407063589984 13.25959635417 L3.791071776589952 13.237135416170005 L3.779434406589992 13.235589192170025 L3.776504719589987 13.236647135170003 L3.775690917590005 13.239576823170054 L3.7172599275899714 13.278151041170005 L3.695368651589952 13.296868489170024 L3.6846264645900035 13.303704427170018 L3.655410969589987 13.314121093170044 L3.644017740589966 13.320794271170016 L3.6299389645900035 13.338697916170005 L3.619685058590001 13.346429036170022 L3.611628417590005 13.34594075517002 L3.601700031589992 13.342441406170039 L3.591364745590006 13.342522786170022 L3.581599120590006 13.353264974170017 L3.572077636590002 13.35961263017002 L3.5035555005899894 13.37678385417 L3.4879305005899894 13.376295573170054 L3.454645995590006 13.367506510170003 L3.352106933590001 13.354729817170025 L3.236465656589992 13.357740885170003 L3.0875398755899894 13.391106771170016 L2.8896232095899634 13.470696614170024 L2.763972167590005 13.530266927170018 L2.6240795895900035 13.60106770817002 L2.5239005525899714 13.68733072917 L2.5048575845899634 13.699944661170022 L2.483861490589966 13.707757161170022 L2.461481933590001 13.709466146170016 L2.4111075845899634 13.752923177170018 L2.342097167590005 13.766595052170018 L2.0575919595899634 13.777825521170016 L2.0422924795899533 13.780999349170017 L2.027644042590005 13.787265625170036 L2.0125073235900075 13.791497396170016 L1.9954174795899533 13.788323567170025 L1.9859773755899894 13.777093099170017 L1.9765372715899687 13.738763021170016 L1.9680737295899533 13.72248697917 L1.937556151589952 13.701165364170024 L1.8308666985900075 13.664788411170022 L1.800918781589992 13.64476888017002 L1.7878979485900075 13.63109700517002 L1.775446776589952 13.600742187170042 L1.7586010735900075 13.586663411170022 L1.6846264645900035 13.53694010417 L1.617243651589952 13.50731770817002 L1.5776928705900062 13.496575521170016 L1.4719799795899533 13.48265950517002 L1.3668367505899894 13.477369791170005 L1.2193758135899841 13.449700521170016 L1.2009838865900022 13.440423177170018 L1.186091308590001 13.40184895817002 L1.1536206045899533 13.368320312170042 L1.1462963865900022 13.346429036170022 L1.1656648755899894 13.353834635170003 L1.183080240589966 13.367994791170005 L1.2139233395900035 13.400709635170003 L1.2339428705900062 13.413811849170017 L1.2507885735900075 13.414381510170003 L1.2593334955900062 13.403476562170042 L1.2548575845899634 13.38109700517002 L1.2389070635899841 13.383945312170042 L1.2252351885899841 13.376702474170017 L1.1996818025899714 13.353264974170017 L1.1831616205900062 13.34325520817002 L1.1679435215899687 13.337151692170025 L1.151830240589966 13.334140625170036 L1.1326245115900022 13.333326823170054 L1.0974682615900022 13.32014322917 L1.0370841465899687 13.259921875170036 L1.0016023755899894 13.243401692170025 L0.9697827145900035 13.24364583317002 L0.9584708655899661 13.240960286170022 L0.8787182615900022 13.191888021170016 L0.867243651589952 13.17015950517002 L0.8608146155899661 13.091546224170017 L0.8508862295899533 13.058343099170017 L0.7783764645900035 12.967522786170022 L0.7682039385899841 12.934889323170054 L0.7778881835900009 12.845371093170044 L0.7682039385899841 12.81200520817002 L0.7581127925900049 12.795078125170036 L0.7153068025899714 12.752109375170036 L0.7104239905899661 12.748528646170016 L0.7053784175900049 12.744134114170024 L0.7000073235900075 12.736321614170024 L0.6972403965899687 12.727369791170005 L0.6941479485900075 12.70686197917 L0.6897534175900049 12.69872395817002 L0.6565502925900049 12.672194010170003 L0.5870515945899868 12.628655599170017 L0.5566153965899687 12.59911458317002 L0.5227612295899533 12.527825521170016 L0.5061596675900049 12.378248698170054 L0.5195060215899687 12.206210937170042 L0.502009276589952 12.109368489170024 L0.503962401589952 12.09984700517002 L0.5127514645900035 12.081373698170054 L0.5151114905899661 12.071526692170025 L0.5139721675900049 12.06005208317002 L0.502009276589952 12.030511067170025 L0.4936271155899661 11.990716146170016 L0.4871166985900075 11.972649739170024 L0.474665526589952 11.954827474170017 L0.48890706358998415 11.934238281170039 L0.4868725585900009 11.863437500170036 L0.4915112295899533 11.83186197917 L0.5136466465899687 11.81233072917 L0.5808666985900075 11.78498697917 L0.5982006835900009 11.763014323170054 L0.5963289385899841 11.746819661170022 L0.5828198235900075 11.720696614170024 L0.5845288085900009 11.702141927170018 L0.5999096675900049 11.688632812170042 L0.6044669595899634 11.681796875170036 L0.6106518545899533 11.665032552170018 L0.6111401365900022 11.656731771170016 L0.6078849275899714 11.646966146170016 L0.5971427405899661 11.633131510170003 L0.5704500315899921 11.612542317170025 L0.5513256835900009 11.588372396170016 L0.5088452145900035 11.550774739170024 L0.502009276589952 11.547031250170036 L0.4956616205900062 11.546136067170025 L0.48890706358998415 11.54442708317002 L0.48093180258997137 11.537753906170039 L0.4784903965899687 11.532220052170018 L0.474665526589952 11.509759114170024 L0.4641674795899533 11.474928385170003 L0.45993570958996344 11.385247396170016 L0.4467521155899661 11.310540364170024 L0.4330802405899661 11.268792317170025 L0.4058178705900062 11.241204427170018 L0.3374584955900062 11.194492187170042 L0.32663492758997137 11.180006510170003 L0.31019612558998944 11.148593750170036 L0.29595458959000354 11.136061198170054 L0.27764404259000486 11.123528646170016 L0.2433015945899868 11.088046875170036 L0.22246826159000221 11.057773437170042 L0.21107503158999208 11.036126302170018 L0.20659912059000618 11.022617187170042 L0.20122802658995198 10.981438802170018 L0.1886140945899868 10.954257812170042 L0.18340576159000221 10.902011718170044 L0.17152425058998944 10.873772786170022 L0.16558349559000618 10.838209635170003 L0.1607006835900009 10.82958333317002 L0.14711018858998415 10.812656250170036 L0.14165771459000354 10.803704427170018 L0.13482177658995198 10.780429687170042 L0.13433349559000618 10.756992187170042 L0.13823974559000618 10.710930989170024 L0.12790445958996344 10.618808593170044 L0.11390706358998415 10.570631510170003 L0.09014404259000486 10.52522135417 L0.08989990158995198 10.515292968170044 L0.09079508458996344 10.505120442170025 L0.09046956358998415 10.49559895817002 L0.08379638659000221 10.47094075517002 L0.07281005859000089 10.447747396170016 L0.07533284458998679 10.426751302170018 L0.09673583959000354 10.411289062170042 L0.12399820958996344 10.408929036170022 L0.1450756835900009 10.427402343170044 L0.1516674795899533 10.411777343170044 L0.14995849559000618 10.39476888017002 L0.14597086558996608 10.377109375170036 L0.1450756835900009 10.359042968170044 L0.11081461558996608 10.358554687170042 L0.09714274058996608 10.318515625170036 L0.09673583959000354 10.22802083317002 L0.0989331045899533 10.216953125170036 L0.1086987295899533 10.197014974170017 L0.11089599559000618 10.186761067170025 L0.11089599559000618 10.162916666170005 L0.1126049795899533 10.152825521170016 L0.1165112295899533 10.148105468170044 L0.12114990158995198 10.14476888017002 L0.12456787059000618 10.139316406170039 L0.12652099559000618 10.138828125170036 L0.13083414658996873 10.137363281170039 L0.13539143858998415 10.134921875170036 L0.13823974559000618 10.131829427170018 L0.13083414658996873 10.104648437170042 L0.13238037059000618 10.09130208317002 L0.13677490158995198 10.079257812170042 L0.14352945958996344 10.06786458317002 L0.15199300058998944 10.057366536170022 L0.16371175058998944 10.07177083317002 L0.1651765945899868 10.088697916170005 L0.1587475585900009 10.124993489170024 L0.17917399058996608 10.097975260170003 L0.18308024058996608 10.051100260170003 L0.18145263659000221 10.000481771170016 L0.1860913085900009 9.961744791170005 L0.19724039658996873 9.94319010417 L0.2642163085900009 9.867832031170039 L0.2813875315899921 9.855218099170017 L0.3005932615900022 9.852776692170025 L0.32256591759000486 9.864983724170017 L0.32256591759000486 9.598138021170016 L0.330134276589952 9.573235677170018 L0.3511303705900062 9.527093099170017 L0.3573966465899687 9.502434896170016 L0.3652091465899687 9.519524739170024 L0.3731844065899921 9.519687500170036 L0.3921459955900062 9.502434896170016 L0.4194897455900062 9.488925781170039 L0.43267333959000354 9.470696614170024 L0.4368237295899533 9.467766927170018 L0.49248779259000486 9.46898763017002 L0.5299226885899841 9.458977864170024 L0.5486401365900022 9.463372396170016 L0.5663810215899687 9.470696614170024 L0.5845288085900009 9.474602864170024 L0.609431151589952 9.465651041170005 L0.6384838865900022 9.444085286170022 L0.6626538085900009 9.417229817170025 L0.6726635735900075 9.392327474170017 L0.677790526589952 9.362949218170044 L0.7136791985900075 9.269199218170044 L0.7514396155899661 9.075839843170044 L0.814509276589952 8.960279948170054 L0.8355053705900062 8.94091145817002 L0.8682202145900035 8.933343099170017 L0.8862866205900062 8.918450521170016 L0.9402416985900075 8.823479817170025 L0.9526928705900062 8.78303385417 L0.9619702145900035 8.735670573170054 L0.9757234695899868 8.69123697917 L1.0016023755899894 8.658929036170022 L1.0017651365900022 8.667962239170024 L1.003392740589966 8.67406575517002 L1.0084383135899841 8.686272786170022 L1.0327709955900062 8.631829427170018 L1.0466870115900022 8.614576823170054 L1.0906323235900075 8.58226888017002 L1.1046297195899868 8.569003906170039 Z M6.8057202145900035 4.9726497391700235 L6.809382323589951 4.958245442170025 L6.811091308590001 4.942539062170042 L6.814509276589952 4.927076823170054 L6.823054198589951 4.9140559891700235 L6.835261229589953 4.904778646170016 L6.873998209589963 4.883294271170016 L6.869766438589984 4.907464192170025 L6.833633625589989 4.979648437170042 L6.807266438589984 5.056959635170003 L6.758356933590001 5.159905599170017 L6.722712401589952 5.206048177170018 L6.6943920895900035 5.265130208170021 L6.676081542590005 5.2873470051700195 L6.667292479589953 5.260084635170003 L6.672419433590001 5.23420572917 L6.696426594589987 5.184319661170022 L6.700739745590006 5.170647786170022 L6.702937011590002 5.157708333170021 L6.703913573589951 5.129713541170005 L6.707168781589992 5.112623698170054 L6.715469563589984 5.099277343170044 L6.738093261590002 5.0744563801700195 L6.8057202145900035 4.9726497391700235 Z M5.181940917590005 1.553378906170039 L5.189265136590002 1.5612727861700222 L5.203181151589952 1.5703059891700235 L5.214899901589952 1.5808854161700054 L5.216120604589953 1.5935807291700002 L5.209447427589971 1.6009049481700544 L5.199519042590005 1.6052994791700002 L5.1885327145900035 1.6074153641700235 L5.178278808590001 1.608066406170039 L5.173395995590006 1.6057063801700195 L5.170059406589992 1.6008235671700248 L5.168269042590005 1.5959407551700195 L5.168269042590005 1.5935807291700002 L5.162246906589992 1.5947200521700182 L5.147923990589966 1.6010677081700209 L5.111628417590005 1.5953710931700442 L5.099177245590006 1.5898372391700235 L5.085749511590002 1.5800716141700235 L5.0789135735900075 1.5800716141700235 L5.0789135735900075 1.5935807291700002 L5.074519042590005 1.5934179681700442 L5.071833495590006 1.591546224170017 L5.0693920895900035 1.5891861981700544 L5.065892740589966 1.5875585931700442 L5.056208495590006 1.5755143231700544 L5.0496166985900075 1.554436849170017 L5.044896646589969 1.5117122391700235 L5.048802896589969 1.4923437501700363 L5.054336750589989 1.475253906170039 L5.0537670895900035 1.4627213541700002 L5.038630370590006 1.4571875001700363 L5.048802896589969 1.444003906170039 L5.0635327145900035 1.4482356771700182 L5.079239094589987 1.4552343751700363 L5.092748209589963 1.4497005211700156 L5.099421386590002 1.4558854161700054 L5.108942870590006 1.4602799481700544 L5.119115396589969 1.4612565101700028 L5.126765136590002 1.4571875001700363 L5.128067219589987 1.4494563801700195 L5.123184406589992 1.4418880211700156 L5.116999511590002 1.4340755211700156 L5.113744302589971 1.4260188801700195 L5.114558104589953 1.4055110671700248 L5.119196776589952 1.3940364581700209 L5.130345865589966 1.389316406170039 L5.150935058590001 1.3883398431700442 L5.168269042590005 1.393222656170039 L5.176325683590001 1.4057552081700209 L5.175349120590006 1.422519531170039 L5.1648510735900075 1.4396907551700195 L5.173640136590002 1.4448177081700209 L5.183649901589952 1.4653255211700156 L5.191055500589989 1.4876236981700544 L5.191950683590001 1.4982031251700363 L5.204076334589963 1.5052018231700544 L5.198705240589966 1.5217220051700195 L5.187556151589952 1.5401953121700416 L5.181940917590005 1.553378906170039 Z" fill="black" stroke="black" stroke-width="0.5" vector-effect="non-scaling-stroke"/></svg>