<svg xmlns="http://www.w3.org/2000/svg" viewBox="0 0 3.305810619059983 7.9091823478200265"><path d="M2.3337164670299515 2.2698619664100566 L2.020350581029909 2.266347969410001 L1.9858307240299453 2.274616198410053 L1.976218908029928 2.287431952410026 L1.9763222610299707 2.305622057410071 L1.9830401970300002 2.3490302604100695 L1.9810764920299633 2.3894412304100516 L1.9735317330299793 2.4289220254100687 L1.9329140570299685 2.5272105984100737 L1.8567429960299435 2.6403819854100252 L1.7491526650300173 2.8001655144100486 L1.7278619740299703 2.850705065410077 L1.7231077420299314 2.895766914410027 L1.7246827780299512 2.901245569410003 L1.7494627230299287 2.9874409054100344 L1.8082705030299806 3.1913561064100353 L1.8635642860300052 3.3836957884100887 L1.8765867460299503 3.4957302924100393 L1.8930198520299157 3.635980130410042 L1.9068691360299752 3.7556627474100512 L1.9184446560299264 3.8553982624100573 L1.9119334260299823 3.9400959344100617 L1.914413895030016 4.022054755410034 L1.9472801060299574 4.094711820410078 L1.9485203400299227 4.096675524410012 L1.951861494029977 4.099931877410066 L1.9688808540299263 4.116519274410004 L1.9805597280299096 4.132125557410044 L2.0008168890299274 4.167472236410044 L2.0055711210299094 4.178530992410055 L2.006708003029992 4.184525459410077 L2.009705236029909 4.188659574410005 L2.020453934029952 4.194137275410094 L2.0365769810300165 4.19723786141004 L2.1645278270299926 4.195067451410049 L2.1987376260299882 4.200235094410056 L2.2322239530299797 4.2121206734100785 L2.2329993570300033 4.212588986410106 L2.263539871029998 4.231034248410106 L2.3656525020299526 4.322294827410113 L2.4531923780300033 4.400532945410072 L2.5402154900299436 4.5020254584100545 L2.647805822029916 4.627185777410057 L2.7391697540300086 4.73353587541005 L2.8248492790299977 4.833271390410056 L2.8919252880299453 4.959051825410123 L2.978534988029942 5.065711982410017 L3.083541499029998 5.195006416410033 L3.1196411700299294 5.239448664410057 L3.155991857029967 5.2841999384100635 L3.2046710560300156 5.332155667410101 L3.216349930029999 5.346728421410058 L3.2221376900299745 5.363781643410002 L3.232369624030021 5.572967842410032 L3.2389842070300077 5.581856188410052 L3.2519033150299563 5.583819893410075 L3.2734007110299856 5.5831997754100176 L3.2358836220299807 5.6693960654100355 L3.2083917590300146 5.732648017410023 L3.159919266029938 5.843132230410044 L3.1533046820299617 5.86814362241004 L3.1536147420299088 5.891501370410078 L3.1576842660299533 5.907733569410036 L3.1811066030300097 6.001158760410073 L3.2096319940299693 6.11350332341001 L3.2067249720299245 6.1545868944100395 L3.2066600440300093 6.155504489410115 L3.2010537060300024 6.234736233410041 L3.192165359030021 6.3596898474099905 L3.1858608350299917 6.448263252410053 L3.175835607029974 6.592130439410051 L3.1656931890299305 6.629503715410047 L3.1587823850300154 6.654968981410017 L3.1591957960299695 6.670781969410109 L3.1647768510299628 6.701271064410003 L3.1637433220299798 6.716980699410067 L3.1542348580300157 6.73858144841004 L3.1391453410299235 6.755117907410034 L3.066694982029908 6.80379710541005 L3.0561529900299504 6.808964749410061 L3.046954585029944 6.809791572410086 L3.0280410100300017 6.806380927410055 L3.017705724030016 6.806897692410098 L2.9223110300299098 6.834699612410057 L2.8981264600299212 6.837076728410091 L2.893165523029957 6.842967842410099 L2.890168289029937 6.858470771410021 L2.883657059029993 6.867669176410013 L2.871151362029998 6.867152412410073 L2.857818843029982 6.860951240410083 L2.849240555030015 6.85319977541007 L2.842005854029942 6.836456611410037 L2.8254693960299804 6.825707914410097 L2.804902176030005 6.8202302114100295 L2.7851617790299272 6.819196683410036 L2.762527501029986 6.8248810904100825 L2.7437172810299515 6.837283434410049 L2.6740574500299275 6.898364977410049 L2.668257900029978 6.9050269134100635 L2.646255529029993 6.930301012410036 L2.6278587190299803 6.96781810241003 L2.621037430029908 7.014120185410002 L2.62331119302997 7.024662178410063 L2.635300126029911 7.052774157410008 L2.6313727160299507 7.062902737410051 L2.607808263029945 7.090394599410027 L2.6063552200299753 7.095396419410074 L2.60243391402998 7.1088947624100545 L2.6027439730299378 7.148685615410068 L2.597266271029987 7.166565660410024 L2.5835203400299136 7.180518297410012 L2.51375715702995 7.22537344041009 L2.5010447540299268 7.2339517284100285 L2.517477860030006 7.278393460410095 L2.5334975530299246 7.303094794410024 L2.5376316690299703 7.3134300814100275 L2.5434194280299565 7.3218016634100085 L2.554581538029943 7.325315661410054 L2.5637799430299495 7.326865953410072 L2.5856907510299223 7.335030830410085 L2.5920986280299374 7.338441475410031 L2.5966461540300045 7.343195706410109 L2.6018137970299975 7.353530992410024 L2.6057412060299683 7.358905342410077 L2.608841792029928 7.360869046410025 L2.617316727029909 7.364486396410095 L2.6201072540299677 7.366346748410104 L2.6441884720300166 7.391771552410015 L2.647289058029976 7.397042548410051 L2.650182938029964 7.463188382410019 L2.654213699029931 7.483032132410097 L2.6742641550299098 7.521996162410085 L2.6793284450299737 7.54690420341006 L2.654317052029974 7.567368070410021 L2.651939936029926 7.58845205441005 L2.654213699029931 7.626382555410055 L2.651009761029975 7.631033434410108 L2.6449119420299283 7.635477607410033 L2.6400543570299604 7.640541897410012 L2.6404677690300176 7.64684642341002 L2.645118648029957 7.6514973014100836 L2.677468094029969 7.6699974644100966 L2.6834625610299625 7.678575752410035 L2.6783982690299197 7.691598213410069 L2.667752925029909 7.7098916704100535 L2.6665126910300003 7.726014716410029 L2.6752976840299496 7.763635159410052 L2.6766412710300145 7.783892321410059 L2.6740574500299275 7.800532132410078 L2.6685797470299306 7.814278063410109 L2.661034989029993 7.825646878410007 L2.660774634029913 7.825674185410046 L2.6038808550299635 7.831641344410025 L2.5030084590299637 7.828334052410037 L2.450401850029955 7.820375881410067 L2.435105627030005 7.8061131874100855 L2.438206212029975 7.78037832341 L2.4056500600299913 7.732215888410019 L2.413504878029933 7.7010033234100295 L2.435208980029934 7.683640042410014 L2.4605304310300156 7.671651110410062 L2.482544591029985 7.656561592410052 L2.494223465029968 7.6291730834101035 L2.4972206980299987 7.597030341410084 L2.496600581030016 7.5607534864100305 L2.4874021760300096 7.529747626410094 L2.4648712510299973 7.513624580410019 L2.4319016880299458 7.512694404410064 L2.4021360620299745 7.515484932410027 L2.3736106720300043 7.510937405410084 L2.34415510602998 7.4884064814100615 L2.3257582960299104 7.464635322410013 L2.3171800080299434 7.455643623410063 L2.3035374300299694 7.446031806410057 L2.2967161410300108 7.443551338410083 L2.2814199170299574 7.440864163410049 L2.274598628029999 7.437143460410036 L2.2700511020299317 7.429598701409995 L2.2668471630299862 7.410271715410042 L2.2626096960299336 7.40200348641009 L2.255714872030019 7.3971548684100075 L2.246590001029979 7.390738024410036 L2.22902001502991 7.383503323410062 L2.2137237910299703 7.3747183304100705 L2.203905269029981 7.359422106410031 L2.1966705680299086 7.337821357410059 L2.1886090440299384 7.324075426410028 L2.1421002560300124 7.286041572410079 L2.131971675029952 7.272709052410059 L2.1140916290299927 7.239222724410064 L2.101172521029987 7.225476793410033 L2.037817215029982 7.192920641410078 L2.030272456029998 7.190233467410048 L2.024071284029908 7.1856859404100195 L2.0117722940299885 7.156023668410052 L2.0065012970299634 7.146825264410063 L1.9997833610299338 7.139693916410019 L1.9674339150299218 7.116026109410081 L1.9549282170299378 7.104140530410058 L1.944179520029941 7.088637601410051 L1.9161708930299213 7.019391181410038 L1.893846675029927 6.997066963410072 L1.8495082960299172 6.99076243741005 L1.8150917920299392 6.9895222034100275 L1.7955581000299574 6.97019521741006 L1.7543203070300208 6.882758695410098 L1.7583510690299207 6.848755602410074 L1.7780914670299879 6.784160061410029 L1.773647293029974 6.756048083410073 L1.7568007760299977 6.7333104524101035 L1.6733950150299464 6.648457751410044 L1.6588222610299752 6.639776109410002 L1.6255426380299198 6.624479886410038 L1.6131402950299574 6.613937894410066 L1.6022882440299284 6.586135973410103 L1.6004278920299342 6.550479234410028 L1.6054921830299875 6.5155459664100395 L1.616240881029917 6.490431220410111 L1.6446629180299581 6.460665596410033 L1.6624396110299884 6.447436429410027 L1.6793894810299506 6.439581611410086 L1.7000600540299118 6.43338043941011 L1.7109121040299513 6.427179267410034 L1.7113195830299972 6.426628967410062 L1.7731305290299204 6.343153388410096 L1.7850161090299892 6.311424059410067 L1.7882200470299452 6.271633206410067 L1.7791249950299814 6.211275133410064 L1.7792283480299105 6.177582099410097 L1.7917340440299157 6.160838935410064 L1.8097174430299745 6.151847236410015 L1.8293544870300096 6.121151435410079 L1.8495082960299172 6.109162503410028 L1.8561228790299609 6.096760159410048 L1.8610838170299147 6.071438707410062 L1.8657346950299214 6.059036364410099 L1.8771035110299934 6.044360257410014 L1.8894025010299131 6.036092028410062 L1.9024249630299508 6.029374091410043 L1.91586083503001 6.019555569410068 L1.9342576450299092 5.9936140004100285 L1.9381850540299936 5.967465726410021 L1.9281868810300082 5.896483670410115 L1.9174111280299329 5.819981187410045 L1.9197882430299913 5.802927965410015 L1.9289866490299872 5.791972561410043 L1.9264028270299107 5.78060374741005 L1.9200983030299952 5.768098049410051 L1.9178245400299332 5.753938708410013 L1.9237156530299515 5.739882718410081 L1.944076167030012 5.712390856410105 L1.9514142210299568 5.697611396410091 L1.9532745720299616 5.680764879410029 L1.9460398710299458 5.665572008410004 L1.9350844680299204 5.650585843410022 L1.9260927690299994 5.634566149410071 L1.9202016560299242 5.61461904641005 L1.9178245400299332 5.597875882410003 L1.9175144800299861 5.524081936410051 L1.9119334260299823 5.492559313410078 L1.9011847280299392 5.4631037474100825 L1.8844415640300056 5.430857653410024 L1.8749331000299279 5.396647854410029 L1.8884723250299729 5.337116604410051 L1.8872320910299507 5.303733629409985 L1.8709023390300175 5.272004300410055 L1.8188124950299382 5.221774807410009 L1.7955581000299574 5.193869534410036 L1.7628985950299878 5.128653877410011 L1.7495380710299244 5.109949143410029 L1.7411944940299762 5.098268135410047 L1.7131858670299565 5.0836953814100045 L1.7044008740299503 5.0851423214099984 L1.69685611402992 5.089896552409991 L1.6896214140299506 5.095684313410056 L1.6819733020299807 5.100541898410066 L1.6740151310299964 5.102092190410085 L1.657995438029964 5.100335192410023 L1.6504506790299232 5.101265367410059 L1.551541987029914 5.135785224410052 L1.4786782170299446 5.137748929410074 L1.446638830029947 5.150978096410066 L1.4393007760299454 5.161210029410052 L1.4277252550300048 5.186428128410009 L1.419870438029939 5.191492418410073 L1.314657221029968 5.177746487410042 L1.2854083610299156 5.177643135410017 L1.2580198510299923 5.184464423410072 L1.199935542030012 5.21898428041005 L1.1715135040299813 5.229112861410011 L1.1432981720299225 5.226322334410051 L1.089503006029993 5.186014717409998 L1.0683156690299214 5.192525947410056 L1.053174475030012 5.2150568724100825 L1.0446478630299296 5.244099026410078 L1.0445445100300006 5.27861888441006 L1.0413405710299983 5.296498928410111 L1.0315220490299524 5.303320218410059 L1.0139520630299401 5.298049222410038 L1.0020664830299282 5.287713935410034 L0.9935915480299471 5.274381416410003 L0.9875073430299679 5.258146523410014 L0.9733343860299399 5.220327867410015 L0.9648594520299483 5.207718818410081 L0.9533872830300041 5.198933824410014 L0.9265155390299995 5.186738186410091 L0.9150433710299879 5.177953193410099 L0.9065684350299605 5.165034085410094 L0.9014524690300121 5.152528388410085 L0.8948895620299098 5.140642809410062 L0.881557043030007 5.129273994410079 L0.8393890740299597 5.110773831410052 L0.826469966030011 5.100645250410091 L0.808279862029913 5.076977444410071 L0.757688635029929 4.976931871409997 L0.7401186470299379 4.953057360410094 L0.7262072530300046 4.926871204410057 L0.7234271600299351 4.921638088410058 L0.7162441360299638 4.915126858410085 L0.7073557900299718 4.911716214410058 L0.6930414170299812 4.902621162410094 L0.684669835029986 4.893422757410088 L0.6596584430299188 4.853218493410063 L0.6553176220299477 4.835235094410075 L0.6603819120300116 4.785522367410076 L0.6493231560300003 4.757100328410056 L0.6268955850300202 4.739943753409998 L0.5718085080299105 4.710178128410016 L0.5547552850300193 4.690127672410052 L0.5236460730299726 4.632870185410093 L0.5093833770299696 4.621294664410053 L0.49935815002994133 4.626875719410075 L0.48974633302993453 4.652197171410046 L0.480702957029969 4.66087881141001 L0.44602807202995365 4.670800686410098 L0.4320754340299757 4.678035387409986 L0.41853620902998756 4.692918200410114 L0.3872719670299105 4.742527575410088 L0.3689268350299315 4.746765042410042 L0.3455690870299648 4.717412828409985 L0.34040144402997186 4.702219957410046 L0.34391544102999916 4.651783760410035 L0.34577579203000397 4.646099352409999 L0.34536238102999306 4.640828356410063 L0.33967797302995706 4.632353421410054 L0.3316164500299763 4.628322659410069 L0.31352969902997785 4.629252835410023 L0.30526147002991166 4.622534898410004 L0.29916365102997844 4.60682526341011 L0.29699324102995917 4.591942451409986 L0.2930141550300007 4.576749579410057 L0.24324975102997115 4.5169082714099975 L0.22852196802995906 4.504402574410003 L0.19787784402991093 4.493343818409992 L0.1609808710300129 4.486109117410033 L0.13214542102998195 4.473500068409999 L0.12646101402993537 4.446524970410062 L0.13720971102993218 4.435362861410036 L0.17395165503001664 4.418309638410003 L0.18247826702992853 4.407457588410049 L0.17689721102994582 4.3954686554100935 L0.13896671102992997 4.343172106410089 L0.11250837702994687 4.331699938410063 L0.07581811102995317 4.331389879409992 L0.0441921330299877 4.3243618844100755 L0.032409908029997325 4.29263255541006 L0.03675072702993276 4.2718586304100175 L0.046362544029939556 4.2641071644100155 L0.06072859202999581 4.265450751410066 L0.0793321070299342 4.271651923410056 L0.09194115702997152 4.269688219410023 L0.1189162550299514 4.24715729541 L0.1323004510300123 4.23878571241003 L0.1691457470299227 4.233411364410069 L0.1821682080299709 4.2245230174100445 L0.18661238102999533 4.201888740410093 L0.18599226403001268 4.183698635410062 L0.18816267402991826 4.167989000409998 L0.19653425602997032 4.15713694941004 L0.21493106602998324 4.154346422410081 L0.24335310302991076 4.139463610410042 L0.2612331490299269 4.101119697410022 L0.274588941029954 4.047696530410059 L0.28872501103001724 3.991152249410044 L0.3069667920299892 3.952188219410056 L0.33182315602994805 3.921285713410052 L0.36189884003000117 3.9127074254100283 L0.36727318802997644 3.8987547884100398 L0.3641726030300063 3.8871792684100885 L0.34815290802993815 3.8641832554100493 L0.34040144402997186 3.8472333854100444 L0.3362156530299174 3.8304902214100824 L0.33502709503000716 3.8131269404100667 L0.35063337702991504 3.702436022410007 L0.3780218860299627 3.6413544794100066 L0.38267276502995884 3.613552558410044 L0.37414615302993326 3.589264635410041 L0.3495998490299783 3.5670437704100184 L0.3226247510299416 3.5504039584100813 L0.3161135210299406 3.539551907410038 L0.31022240702993287 3.4661713734101003 L0.31373640503000644 3.448704739410056 L0.3271722770299519 3.4215229364100654 L0.36324242702995235 3.368812975410046 L0.3939382270299987 3.3089716674100007 L0.40448022002994577 3.2954324414101084 L0.4186395620299166 3.2831334504100713 L0.4268044390299295 3.2797228054100405 L0.43372908002994137 3.2812730994100665 L0.4391034290299629 3.286750800410056 L0.4433408960300156 3.294605618410083 L0.45036889102994593 3.301116849410059 L0.45905053203001245 3.29708608741006 L0.4681455840299762 3.2895413274100154 L0.47610375503001734 3.2849938024100656 L0.49191674303001065 3.280859687410052 L0.4994615020299946 3.28003286541003 L0.5090216420299569 3.282616686410032 L0.5159979610299459 3.2895413274100154 L0.5278835400299116 3.3116588414100168 L0.5321210070299642 3.316723131410095 L0.5423529410299537 3.316309720410084 L0.5471071720299463 3.3113487834100344 L0.5504144640299344 3.304527493409987 L0.5564089300299386 3.2986363804100822 L0.5614732210299351 3.29532908841008 L0.5659173940300164 3.291711738410095 L0.5720152130300065 3.2880943874100215 L0.5820921180300118 3.2848904494100513 L0.5960964310299417 3.2753819864100624 L0.6127362420299463 3.2410688344100382 L0.6242084090299684 3.2282530794100612 L0.6322699330299386 3.224842435410034 L0.658831619029975 3.2205016144100487 L0.6713373160299696 3.221431790410003 L0.681052485029916 3.2261860224099994 L0.6894240670299112 3.2313536654100066 L0.6973822380299524 3.2339374864100936 L0.7194997510299643 3.228976549410058 L0.7423407340299448 3.214817206410098 L0.762856278029922 3.194560046410013 L0.7785142360299986 3.1715123574100463 L0.7898830520299569 3.161280423410057 L0.8202171170299337 3.1492914904100022 L0.8290537870299275 3.1374059114099797 L0.8298806100299387 3.112807929409991 L0.8344281370299953 3.105366523410064 L0.8496210070300165 3.102679348410044 L0.8568557080299755 3.0861428914100433 L0.8829889040299648 3.070587416410044 L0.8872414500299399 3.068056139410027 L0.8962331490299746 3.0519330924100476 L0.8946828570299843 3.0315725784100156 L0.8832106880299264 3.0273351104099735 L0.8664675240299928 3.027851874410098 L0.8274001420299513 3.0144160024100533 L0.7537095490299706 3.036326809410008 L0.7185695750299104 3.024234524410028 L0.6992425900299466 2.9945722524100606 L0.681569250029959 2.9249124224100402 L0.6690635530299645 2.892252916410067 L0.6574880320299101 2.8785069864100254 L0.6293760530299508 2.8520486524100424 L0.62183129402991 2.8358222524100345 L0.6203843540299161 2.8021292184100677 L0.6240017040299293 2.7689529494100587 L0.6633274690299871 2.677589017410037 L0.672680904029967 2.626532702410069 L0.6784169870300119 2.6106163604100434 L0.6817759550299982 2.595010077410004 L0.67784854702996 2.5807473834100225 L0.6665830840299876 2.558836575410064 L0.6664797310299448 2.542816881410028 L0.6797088980299648 2.5050930864100653 L0.6831195420299494 2.4685061724100255 L0.6717507280299131 2.3060354694100855 L0.6658596140299622 2.289912421410003 L0.6523203890299172 2.274719551409982 L0.6359906360299945 2.2719290244100225 L0.6184206500299254 2.2740994334100098 L0.6017808380299883 2.2739960804100807 L0.585037674029941 2.2678982614100196 L0.5817303820299529 2.260146797410025 L0.5964064890299099 2.22903758441006 L0.6029177200299571 2.210330715410075 L0.6040546020299828 2.1980317254100417 L0.5994037220299404 2.1128689654100956 L0.6088088330299755 2.09870962241005 L0.634285314029917 2.119380195410068 L0.6427085730300135 2.1057376174100657 L0.642915278029939 2.0929218624099892 L0.6409515740300051 2.0800027534100654 L0.6426052200299708 2.065946764410052 L0.6471527450299916 2.060572415410002 L0.6624489700299776 2.0540611854100295 L0.6680300250299709 2.0494103064100617 L0.6693736120299221 2.0433124874100006 L0.6659112900300173 2.032047025410046 L0.6674099070299988 2.02553579441007 L0.7375865020299628 1.9189789914101087 L0.7513324330299227 1.8909703654100074 L0.7600140740299892 1.8611013874100824 L0.727974685029956 1.8057042514100434 L0.7057021430300168 1.78369009141006 L0.6872019810300074 1.7585753454100317 L0.6727842560299635 1.7308767774100122 L0.6630690870300171 1.7008010944100338 L0.660061960029914 1.6713924094100978 L0.6569712680299702 1.641166490410038 L0.64942650802994 1.6096438674100657 L0.6349571070300115 1.5974482294100572 L0.6212111770299842 1.5994119334100905 L0.6087054800299327 1.5994119334100905 L0.6007989860299361 1.593934231410012 L0.601677486029935 1.5795681834099984 L0.6105141550299393 1.5619981974100288 L0.6198675900299193 1.5587942574100513 L0.6303062280300153 1.5615847844100106 L0.6425018670299281 1.5618948444100003 L0.6572296500299402 1.5530064974100757 L0.6759881950299658 1.5248945184100453 L0.6881838330299459 1.514455878410013 L0.7017230590299235 1.5099083534100632 L0.7269411580300087 1.5050507684100527 L0.7408421180299527 1.4995730664100595 L0.7546397250299108 1.4971959504100258 L0.7877643180299359 1.5036038274100552 L0.8031122190299769 1.5044306514100843 L0.8162380330299541 1.4985395374100765 L0.8344281370299953 1.4806594924100214 L0.8496210070300165 1.477868965410062 L0.8700848740299492 1.465466621410096 L0.8810919550299516 1.4481033394100766 L0.8973700310300003 1.407899075410052 L0.946049230029935 1.3539488804100959 L0.9593817490299514 1.3452672394100436 L0.9721975050300173 1.3395828314099933 L1.011368240029988 1.3115742054100767 L1.0268711700299562 1.2976215694100919 L1.0433042760299216 1.2733336454100002 L1.0429510540299205 1.2693540154100535 L1.0426243350299913 1.2656729814100434 L1.0417539830299418 1.2558670114100412 L1.0346743110299101 1.2376769074100142 L1.0345192830299723 1.2114252804100634 L1.0072858030299656 1.2079112824100182 L0.9918345490299387 1.1903412964100486 L0.9723008580299464 1.1454861524100526 L0.9646527460299765 1.1369078644100288 L0.936747473029989 1.1123098834100436 L0.9282725370299616 1.1006310094100602 L0.9020209100299397 1.0389293494100063 L0.8984035600299833 1.0149514844100853 L0.9047080840299557 0.9590375854099964 L0.9023826450299524 0.9275149614100346 L0.8880682730299512 0.9112885614100268 L0.8682245230299444 0.8975426304099958 L0.8496210070300165 0.8733580604100215 L0.8236794390299522 0.8643663604100684 L0.8055926870299643 0.8495869014100581 L0.789262934029928 0.8319135614100563 L0.7682823030299417 0.8142402214100546 L0.6866335400299093 0.7783767774100117 L0.6731976680299638 0.7600833204100415 L0.6738177840299571 0.7342451044100162 L0.6790887810299822 0.7090270054100589 L0.697899002030006 0.6617947464100329 L0.7275612740299451 0.6162161324100541 L0.7346926220299181 0.5951321484100252 L0.7282847450299599 0.5672268754100376 L0.712575109029963 0.5277460804100205 L0.7060638780299158 0.5199946164100968 L0.6690635530299645 0.5065587434100483 L0.6568679150299275 0.5001508654100153 L0.6448789820299865 0.48960887341004344 L0.6363006950299521 0.4775165884100634 L0.62183129402991 0.45033478541007277 L0.610875890029952 0.4386559114101036 L0.585812821029954 0.42335968741005026 L0.5763560340299776 0.4092003454100084 L0.5736688590299153 0.3944208854100797 L0.5769244750300189 0.38501577541003407 L0.5820921180300118 0.37695425141003547 L0.5848826450299569 0.3662055534100208 L0.5833840280299754 0.35101268240999595 L0.5789398550299509 0.3376801624099759 L0.5645221300299639 0.3125654174100507 L0.5445233510299161 0.298612780410048 L0.4905731560299458 0.29582225341000346 L0.4674221140299508 0.28476349641000276 L0.46163435402991837 0.3107050654100423 L0.4583270620299871 0.34026398441006656 L0.4495420680299347 0.35855744141003676 L0.4274245550299227 0.3505992704099814 L0.42215356002999016 0.341090807410092 L0.41987979702992817 0.3289985224100125 L0.4158490350299715 0.31835317641010796 L0.40484195502995846 0.31328888641004404 L0.3913544060299117 0.3165961784100464 L0.380295649029911 0.32414093741000194 L0.3692368930300134 0.32910187441003735 L0.3560077260299934 0.3247610554100593 L0.34381208802995644 0.297579251410065 L0.36148542803000083 0.2254389514100641 L0.3610720160300005 0.1981537964100628 L0.35218367002995166 0.19401968041003137 L0.33771426902990953 0.18068716141001495 L0.33099633302999365 0.1766564004100193 L0.3193691360299411 0.17717316341005507 L0.31270287602990976 0.18203074841007982 L0.30660505702997654 0.1840978064100458 L0.29688988802991645 0.17613963540999045 L0.2921356560299344 0.16260041041000228 L0.289965246029972 0.10420604241003595 L0.3053648230299544 0.08797964141002446 L0.3243817500300068 0.0783678254100213 L0.34381208802995644 0.07754100340999948 L0.3613820750299581 0.08766958341004205 L0.4114048620299471 0.13696889941003043 L0.47300316903000095 0.18420115841007068 L0.4820982210299647 0.18781850941004485 L0.5090216420299569 0.19370962241004896 L0.5383221790299402 0.20518179041006057 L0.5420428820299392 0.20735220041005142 L0.5511379350300061 0.20425161441002082 L0.5648838650299766 0.19298615241005201 L0.5714984490299528 0.18978221341007817 L0.5854510850299519 0.1896788614100533 L0.6062250110299559 0.19588003241003982 L0.6182139430299642 0.1970169144100513 L0.626792231029988 0.19432974041002105 L0.6426052200299708 0.1839944534100173 L0.6514935660299628 0.18234080741006586 L0.6693736120299221 0.1885419794100418 L0.7255975700300112 0.228126126410098 L0.7440977330299532 0.2453860544100852 L0.7613059850299422 0.28248973341006867 L0.7733465930300056 0.3011966014100498 L0.788746170029988 0.31194529941007865 L0.8080731560299412 0.31783641241006855 L0.8496210070300165 0.32073029241005635 L0.8807302200299958 0.31328888641004404 L0.9042946730299448 0.2996463084100416 L0.9285825960299761 0.2896210814100133 L0.9624823360299573 0.2931350774100654 L0.992971430029975 0.3026435414100437 L1.019237175030021 0.3072070884100757 L1.0197398220299263 0.3072944204100114 L1.0451646270299264 0.30398712841010855 L1.07162296002992 0.28920766941009823 L1.1037140250299515 0.28042267641002105 L1.1311025340299992 0.2972691924099937 L1.1566306910299389 0.32279735041002233 L1.182572261029982 0.3396438674100981 L1.2060333610299452 0.3491523304099875 L1.234352046029933 0.3658954954100384 L1.2584332630299926 0.3860493034100134 L1.2692853140299647 0.40589305341000603 L1.2809641870300155 0.4142646354100723 L1.2973972930299809 0.39659129541007054 L1.2973972930299809 0.3897700074100303 L1.3121767530299238 0.3801581904100093 L1.320444982029933 0.36992625641003407 L1.3239589790300172 0.3569037954100853 L1.3246824500299184 0.33861033841002985 L1.3317104450300192 0.3084313024100229 L1.3335707960299104 0.2909646684100782 L1.3149672800299825 0.2463162304100397 L1.3298500930299113 0.22120148441002563 L1.3534145460299172 0.20187449941006186 L1.365610184030011 0.18812856741004147 L1.3818365830300152 0.17376251941002785 L1.4165631460299508 0.18626821641003666 L1.447592449029976 0.206491787410096 L1.4489125930299522 0.20735220041005142 L1.4584210570299163 0.21851431040999536 L1.4722703400299864 0.22616242241006468 L1.5061700790299213 0.26688345041002925 L1.5137148390299515 0.27122427041001096 L1.5309747670299387 0.2899311394099957 L1.5599135690299093 0.3030569534100582 L1.6571686140300201 0.40475617241008344 L1.687037592029931 0.41550486941010867 L1.6933421170299496 0.42873403641001495 L1.695822587029916 0.4466140824100595 L1.700783524029994 0.46552765641009763 L1.7065712840299696 0.4734858264100641 L1.7287921500299106 0.49622345741004814 L1.733339676029921 0.4987039254100214 L1.7514264280299656 0.5159638544100122 L1.752563309029945 0.52009796941004 L1.8524021760299618 0.6424677604100797 L1.8637709910299876 0.6630349804100693 L1.893846675029927 0.7050995964100029 L1.905525548029921 0.7393093944099949 L1.9068691360299752 0.750161445410038 L1.9048020790299418 0.7616336134100639 L1.8959137320300172 0.7811673044100704 L1.893846675029927 0.7910891794100596 L1.9014947870300105 0.8251956254100268 L1.9346710570299095 0.8989895704099897 L1.944179520029941 0.9521129424100199 L1.9525511010300036 0.9739203974100352 L1.9547215120299555 0.9863227404100119 L1.9544114530299979 0.9969680854100123 L1.9341542920299801 1.1061087114100534 L1.9385984650300045 1.127709460410026 L1.957822098029915 1.159438789410041 L1.9620595650299677 1.178042304410008 L1.9598891560299947 1.1875507684100857 L1.9505873980299455 1.2099783404100695 L1.9485203400299227 1.222794094410057 L1.9491899240299588 1.2281507684100692 L1.9501739860299452 1.2360232614100486 L1.9548248650299982 1.249872545410108 L1.9614394480299282 1.2629983594100853 L1.969500972030012 1.2743671744100684 L1.9779759070299932 1.2782945834100392 L1.9866575470299566 1.2777778194099998 L1.9899606840299455 1.2787287224099888 L1.9934788360299152 1.279741523410033 L1.9962693640299634 1.2914203964100128 L1.995442541029952 1.310644029410037 L1.9981297150299682 1.3165351434100305 L2.0196271110299406 1.3416498894100588 L2.0291355750300184 1.3618036984100375 L2.029962398029916 1.3836111524100492 L2.016733231029953 1.4046951364100781 L2.0230377560299715 1.4138935414100846 L2.0247947540299336 1.4183377154100842 L2.0290322220299757 1.4240221224100313 L2.03554345202992 1.428673001409999 L2.041537918029981 1.4358043494100432 L2.044121739029954 1.4487234574100487 L2.0319261020299635 1.4577151564100834 L2.0258282830299166 1.4661900914099935 L2.029652338029969 1.49233836641009 L2.016733231029953 1.5548668494100841 L2.016733231029953 1.599205228410037 L2.0145628210299336 1.6095405144100372 L1.9961660110299206 1.6503648954100303 L1.9869400430299677 1.6620445774100805 L1.967020502029932 1.6872618684100562 L1.9620595650299677 1.7124799684100172 L1.9664003860299388 1.7329438354100635 L1.9797329050299552 1.7739749224100283 L1.982626785029943 1.798469551410074 L1.9901715450299164 1.8160395374100435 L2.037817215029982 1.8564505084100293 L2.043088212030007 1.8662690304100895 L2.04618879702992 1.8750540234100814 L2.050943029030016 1.8813585484100006 L2.0690297800299575 1.885802721410096 L2.0769879510299987 1.8912804234100893 L2.0831891230299746 1.8990318874099987 L2.0856695920299515 1.908023587410037 L2.088873530030021 1.930864570410046 L2.0977618770299458 1.9502949094100277 L2.110784338029994 1.9649710154100237 L2.1265973260299873 1.97385936141003 L2.1265973260299873 1.98006053341002 L2.120706213029969 1.9833678254101077 L2.112127925029945 1.989982409410013 L2.106133459029941 1.993082994410054 L2.1282509710300204 2.0338040234101076 L2.134658849029968 2.0414521354100064 L2.1412734330299443 2.0407286654100947 L2.153985834029932 2.0297732624100266 L2.1614272410299193 2.0271894404100212 L2.169592117029943 2.0282229684100006 L2.2127936150299163 2.0425890164100142 L2.2369781850299617 2.055094713410094 L2.2556850540299322 2.0717345244100276 L2.263229813029916 2.092301745410021 L2.2674672810299583 2.0998465044100616 L2.2861741490299394 2.115142727410026 L2.294752436029974 2.142221178410077 L2.304157547030009 2.1527631714100384 L2.313562658029987 2.160721341410005 L2.317800125029926 2.168059394410088 L2.320073888029931 2.1740538604100212 L2.32482812002997 2.1830455604100596 L2.3297890570299913 2.1948277874100715 L2.3320628200299964 2.2094005404100248 L2.3320628200299964 2.261180326410008 L2.3337164670299515 2.2698619664100566 Z M2.063242020029982 2.696709297410033 L2.0847394160300112 2.697949531410069 L2.107373693029963 2.7058043484100924 L2.123290034029999 2.7164496944100964 L2.131454911030012 2.7366035024100714 L2.1283543240299494 2.7619249544100573 L2.117295568029938 2.78672964141 L2.1015859330299875 2.8053331574100415 L2.0807086540299977 2.8171153844100534 L2.058074377029989 2.8208360874100524 L2.03812727302995 2.814118151410037 L2.0253115190299766 2.7935509314100475 L2.025001460029962 2.7725702994100434 L2.031512690029963 2.749109199410066 L2.050012853029962 2.7057009964100676 L2.063242020029982 2.696709297410033 Z M1.9307436470299493 2.6749018424100175 L1.9316738230300032 2.674281725410035 L1.9675372670299751 2.666840319410108 L1.9965794220299315 2.68358348341007 L2.010325353030005 2.7141759304100734 L2.0008168890299274 2.74879914041008 L1.9802496690300089 2.76884959641003 L1.9651601510299272 2.7682294794100617 L1.952654455029922 2.7552070184100277 L1.9398387000299593 2.7373269724100684 L1.9131736610299939 2.707664700410101 L1.9108998970299993 2.6909215364100536 L1.9307436470299493 2.6749018424100175 Z" fill="black" stroke="black" stroke-width="0.5" vector-effect="non-scaling-stroke"/></svg>