<svg xmlns="http://www.w3.org/2000/svg" viewBox="0 0 20.025515899499936 6.634498199999964"><path d="M18.25470843120516 3.2574098989982785 L18.24821400424993 3.2517709880000094 L18.195154109249998 3.2055877200000165 L18.191247859249998 3.193380689000014 L18.198734838249962 3.1801970950000165 L18.216638484249998 3.167705233000026 L18.237146296250003 3.157980298000018 L18.252771296250003 3.1533009360000275 L18.271325984249998 3.154399568999997 L18.307458796250003 3.166240389000029 L18.325525202250006 3.1691700770000235 L18.33651153124994 3.174174959999993 L18.34603301525 3.185568189000014 L18.359379369249964 3.206767733000026 L18.36881947324993 3.216085767000015 L18.377445775249967 3.221416171000021 L18.38729278124994 3.2238575770000235 L18.40096465624994 3.2244679289999905 L18.447351374249948 3.2394825770000235 L18.45174590624994 3.2493702719999984 L18.451827286249923 3.249533033000011 L18.45813955485582 3.2641414259959705 L18.403657836250048 3.2635825330000383 L18.334672774249967 3.2635825330000383 L18.289171989250022 3.2635825330000383 L18.254708431249995 3.257409899000015 L18.25470843120516 3.2574098989982785 Z M2.6241905672499826 1.1633107020000235 L2.649743952249949 1.181743318999997 L2.7032107492499478 1.2176319909999958 L2.714685359249941 1.2233286060000292 L2.738122859249941 1.2173878499999997 L2.7427615312499967 1.2057504810000292 L2.734216609249941 1.1977752200000165 L2.7179405672499826 1.2028614830000262 L2.72917103624998 1.1871957929999777 L2.75065541124998 1.1880095950000165 L2.866784968249945 1.2304493740000222 L2.8892459062499967 1.2438364179999777 L2.930993952249949 1.2878631110000125 L3.050948379249988 1.5234181240000222 L3.071863093249945 1.5490935800000099 L3.093103327249949 1.566061352999986 L3.1015668692499645 1.5727752200000165 L3.1543826242499478 1.6054493740000222 L3.177413223249985 1.6236378499999997 L3.197107234249941 1.6478891519999816 L3.2101280672499826 1.6802784749999997 L3.220300593249945 1.6958220950000165 L3.247562963249962 1.707947745999979 L3.426762182249959 1.8493865480000178 L3.469242650249967 1.8703826420000151 L3.5105837962499464 1.8787648039999905 L3.526697077249949 1.8895069909999958 L3.5786990312499967 1.9353240480000178 L3.671391088249962 2.0394907149999764 L3.7735232492499478 2.199687655000025 L3.808435359249941 2.2846485930000195 L3.907719213249962 2.4504200770000235 L3.966394343249945 2.5574757409999958 L3.972335098249985 2.5766814700000165 L3.976159968249945 2.5836801679999777 L3.993738093249945 2.604228671000021 L3.9991091872499425 2.614279126000019 L3.999678848249985 2.6257537360000125 L3.9922732492499478 2.6552540610000275 L3.993738093249945 2.67799983000001 L4.003585098249985 2.719747876000019 L4.020512182249959 2.8707895429999777 L4.019210098249985 2.893738762000032 L4.009363093249945 2.9125375899999764 L4.002527156249997 2.932353671000021 L4.014815567249983 2.9770720950000165 L4.0127810622499425 2.9916798430000195 L4.045251765249944 3.084209139000029 L4.04753041124998 3.1146046469999984 L4.045007624249948 3.1255095950000165 L4.031417129249988 3.1605844649999764 L4.0234418692499645 3.172588046000021 L4.016931452249949 3.178732251000019 L4.002771296249946 3.195659334999993 L3.9991091872499425 3.203349764000029 L3.999516088249962 3.212016756999992 L4.005945124249948 3.238058423000018 L3.999678848249985 3.248393709999993 L3.9939008532499685 3.251852368999982 L3.992029109249941 3.252951001000019 L3.983891088249962 3.255962068999997 L3.9757530672499826 3.2616586840000306 L3.9550824942499645 3.2890024340000306 L3.946293432249959 3.3045460539999905 L3.945154109249941 3.3222055590000306 L3.9519900462499464 3.353496249000022 L3.9890994212499464 3.445781405000025 L3.9854373122499425 3.470805818999997 L3.962732234249941 3.4568898039999905 L3.945805150249967 3.4858204680000195 L3.935144343249945 3.5304982020000235 L3.931482234249941 3.5633351159999958 L3.9324587962499464 3.600322421000021 L3.929529109249941 3.6183888270000235 L3.9121137442499645 3.6188364179999777 L3.902185359249941 3.6316131110000125 L3.893884577249949 3.648906405000025 L3.8898155672499826 3.6626189700000165 L3.8907107492499478 3.6824757409999958 L3.896081843249945 3.699240064000014 L3.9346560622499425 3.783549959999993 L3.9383181712499464 3.796082512000032 L3.9556521562499967 3.820781405000025 L3.989831843249945 3.8530079680000195 L4.013269343249945 3.886699374000022 L3.9991091872499425 3.9158741789999905 L4.033288874249948 3.9090382409999958 L3.9844607492499478 4.012431796000021 L3.97917103624998 4.053650870999979 L3.995609838249962 4.177267408000011 L4.002527156249997 4.197042798000018 L4.007165827249949 4.21706233000001 L3.985681452249949 4.459005689000014 L3.9922732492499478 4.498719231000029 L4.024743952249949 4.5698048430000195 L4.071293432249959 4.6318165610000275 L4.189538874249948 4.748719231000029 L4.1914106192499645 4.749533033000011 L4.203210749249948 4.754822745999979 L4.218591609249941 4.757915193999997 L4.236169734249941 4.7587696860000275 L4.241540827249949 4.761699374000022 L4.25651478624998 4.775371249000022 L4.267256973249985 4.779277499000022 L4.276941218249945 4.777771964999976 L4.3007856192499645 4.766215975 L4.316247859249941 4.771912589999976 L4.317875463249962 4.779074048000018 L4.315271296249946 4.787578280000025 L4.318200984249941 4.796977693999997 L4.352868952249949 4.823955233000026 L4.365075984249941 4.8393360930000195 L4.390792129249988 4.8959767180000195 L4.382165827249949 4.919129387000032 L4.381433406249997 4.9384571860000275 L4.388757624249948 4.957011874000022 L4.462488093249945 5.050151521999998 L4.471195775249967 5.058208162999994 L4.493168432249959 5.074321443999997 L4.500085749249948 5.080913240999996 L4.504480281249997 5.091411287999994 L4.504724421249946 5.111349439000014 L4.5069216872499425 5.1225392180000195 L4.513513484249941 5.133525546000021 L4.531091609249941 5.1552540610000275 L4.534753718249945 5.167176262000032 L4.532556452249949 5.176494296000021 L4.522790827249949 5.196228995999979 L4.520512182249959 5.208110506999992 L4.527510879249988 5.228455559000031 L4.574385879249988 5.2863575770000235 L4.599939265249944 5.349061026999982 L4.618331192249983 5.3740040610000275 L4.6299685622499425 5.399028475 L4.636560359249941 5.409852042999978 L4.657556452249949 5.433940584999993 L4.663904109249941 5.444682771999998 L4.671960749249948 5.466777499000022 L4.673425593249945 5.4861866789999905 L4.670740046249946 5.529643709999993 L4.675378718249945 5.5502735930000195 L4.686527807249959 5.571880037999994 L4.7002810622499425 5.583354646999998 L4.712243952249949 5.573751783000011 L4.718591609249941 5.573751783000011 L4.746423640249944 5.622091626000019 L4.755375463249962 5.667949374000022 L4.774011531249997 5.69395035 L4.779138484249941 5.708720858000026 L4.780603327249949 5.742534334999993 L4.786462702249949 5.75645035 L4.798344213249962 5.7702849860000125 L4.806319473249985 5.7830616789999905 L4.800948379249988 5.7934783450000165 L4.807621557249959 5.806987459999993 L4.814783015249944 5.848654126000019 L4.835128067249983 5.903341626000019 L4.8448123122499425 5.949240064000014 L4.845788874249948 5.974305167999978 L4.8389529372499425 5.985291495999979 L4.830652156249997 5.994365389000029 L4.833500463249962 6.038188631999992 L4.828454890249944 6.0534881110000125 L4.790694473249985 6.0534881110000125 L4.785730281249997 6.05682469899998 L4.775232234249941 6.071310376000019 L4.770349421249946 6.074646964999976 L4.725183406249997 6.072612459999993 L4.705570775249967 6.06854344899998 L4.6651248122499425 6.052348787999994 L4.6573123122499425 6.045634921000021 L4.656335749249948 6.03542170500001 L4.657068171249946 6.016338046000021 L4.651697077249949 6.001974439000014 L4.6397341872499425 5.991395012000032 L4.625980932249959 5.982117667999978 L4.616052546249946 5.972189283000011 L4.610518692249983 5.935486809000031 L4.63737416124998 5.917949374000022 L4.674320775249967 5.9033009360000275 L4.698734838249962 5.875428214999976 L4.680017390249944 5.871115064000014 L4.662276504249988 5.8757537360000125 L4.6455935622499425 5.885600740999996 L4.611902156249997 5.910747225 L4.604496557249959 5.914531405000025 L4.600915827249949 5.907736158000011 L4.595056452249949 5.8896290610000275 L4.563318171249946 5.823955233000026 L4.539636531249997 5.788432771999998 L4.517094213249962 5.772970533000011 L4.511316218249945 5.7850148039999905 L4.5214887442499645 5.812195792999978 L4.559411921249946 5.872091626000019 L4.559737442249983 5.8859669520000235 L4.554529109249941 5.9139210539999905 L4.556807754249988 5.9269825770000235 L4.561120906249997 5.941346184000031 L4.5635623122499425 5.956564283000011 L4.560876765249944 5.972189283000011 L4.525557754249988 6.000997876000019 L4.4776248122499425 5.989116365999996 L4.390792129249988 5.944275870999979 L4.365401504249988 5.946310376000019 L4.325199682249959 5.967143709999993 L4.304203588249962 5.972189283000011 L4.263757624249948 5.968730624000022 L4.24870228624998 5.9701954680000195 L4.232507624249948 5.9790252200000165 L4.181156713249962 6.043396964999976 L4.151208796249946 6.0673634360000275 L4.115808406249997 6.060975089999976 L4.113855281249997 6.056417798000018 L4.106612442249983 6.046082512000032 L4.098962702249949 6.038758292999978 L4.095300593249945 6.043641106000029 L4.09635853624998 6.05487157399998 L4.101159968249945 6.069764151999982 L4.102136531249997 6.0779835539999905 L4.0996137442499645 6.089132642000015 L4.081628718249945 6.115581209999993 L4.0674685622499425 6.150371249000022 L4.055180150249967 6.130880689000014 L4.020105281249997 6.100851392000015 L4.005945124249948 6.081401521999998 L3.997400202249949 6.0615040610000275 L3.965010879249988 5.9529835539999905 L3.9464561922499826 5.914409334999993 L3.918461400249967 5.882426912999994 L3.8761436922499826 5.855490064000014 L3.757165827249949 5.8104054289999905 L3.588220515249944 5.705302889000029 L3.5474490312499967 5.685893709999993 L3.525232234249941 5.679668124000022 L3.502283015249944 5.677430167999978 L3.485681452249949 5.673279776999982 L3.474288223249985 5.662944490999996 L3.4578494212499464 5.636455233000026 L3.4385623122499425 5.613709464999976 L3.41471791124998 5.593038892000015 L3.3867231192499645 5.5751759360000275 L3.3555544992499478 5.56073094899998 L3.339522598249985 5.566631014000029 L3.2898806712499464 5.574199374000022 L3.272953588249962 5.573751783000011 L3.250492650249967 5.561381990999996 L3.237309057249959 5.5417693610000125 L3.218266088249962 5.4992482020000235 L3.2017459062499967 5.479920401999982 L3.1199587962499464 5.414409334999993 L3.108728327249949 5.402080233000026 L3.1015668692499645 5.389384921000021 L3.1101931712499464 5.387635245999979 L3.1114138742499478 5.384380037999994 L3.1093793692499645 5.380229646999998 L3.108402807249959 5.375713046000021 L3.0957888742499478 5.3631398039999905 L3.077966609249941 5.349956209999993 L3.0401248122499425 5.327902173000018 L2.899743952249949 5.270854646999998 L2.7390994212499464 5.204448396999998 L2.705408015249944 5.185161287999994 L2.678064265249944 5.163514151999982 L2.6023806712499464 5.0799366789999905 L2.591394343249945 5.074687655000025 L2.569828588249962 5.070415193999997 L2.550134577249949 5.059184725 L2.5381716872499425 5.043681796000021 L2.5398806712499464 5.026307120999979 L2.523279109249941 5.0222381110000125 L2.507328588249962 5.016053214999976 L2.477868952249949 4.998393709999993 L2.460290827249949 5.01003108000001 L2.4285525462499464 5.01198420500001 L2.416345515249944 5.026307120999979 L2.4092654372499425 5.001404776999982 L2.4073123122499425 4.969463046000021 L2.402185359249941 4.941875155000025 L2.3853396562499967 4.930115714999976 L2.378503718249945 4.926697745999979 L2.368819473249985 4.918641106000029 L2.3543337962499464 4.902812655000025 L2.334151504249988 4.8449513270000235 L2.325525202249949 4.83424983000001 L2.312097468249945 4.828715975 L2.2644900462499464 4.824240064000014 L2.2520388742499478 4.81667170500001 L2.242029109249941 4.805929517000015 L2.2246137442499645 4.793559725 L2.169437963249962 4.783916171000021 L2.1490115312499967 4.774516756999992 L2.1153201242499478 4.768820142000015 L2.093428848249985 4.759542798000018 L2.0538780672499826 4.7314259360000275 L2.030766088249962 4.703838046000021 L1.9812869212499464 4.628357901999982 L1.9502810622499425 4.60174657399998 L1.9062543692499645 4.591574048000018 L1.8616580152499438 4.587260896999998 L1.837488093249945 4.571147615999996 L1.8545779372499425 4.5259816 L1.8321169992499478 4.522970533000011 L1.8341515042499879 4.5096241789999905 L1.8838748122499425 4.4484669520000235 L1.8982791092499411 4.435324048000018 L1.9126834062499967 4.429790193999997 L1.9239138742499478 4.4184783450000165 L1.9239138742499478 4.392518059000031 L1.9161013742499478 4.344463046000021 L1.9096723382499619 4.331564283000011 L1.8809451242499478 4.309062655000025 L1.8745160882499619 4.2963673430000195 L1.8545779372499425 4.165996249000022 L1.8487185622499425 4.146220858000026 L1.8343142652499438 4.129985506999992 L1.7999718172499826 4.100851392000015 L1.7959841872499425 4.0932423430000195 L1.792566218249945 4.084209139000029 L1.7867882232499852 4.0766814700000165 L1.7666873122499425 4.071635896999998 L1.7568403072499592 4.066997225 L1.74870228624998 4.0615040610000275 L1.7452843172499826 4.056743318999997 L1.7382856192499645 4.040630037999994 L1.690759577249949 3.9779672769999816 L1.659509577249949 3.9468800379999944 L1.6533246822499592 3.9379282149999764 L1.6451052812499967 3.9150196860000275 L1.6253298902499438 3.8864145429999777 L1.6155642652499438 3.841777499000022 L1.6082400462499464 3.820293124000022 L1.5916384842499411 3.798849439000014 L1.5190473382499619 3.748759921000021 L1.4944705152499438 3.7382211840000306 L1.4847048902499438 3.731548006999992 L1.4790896562499967 3.7242237879999944 L1.46354603624998 3.6967579680000195 L1.4375857492499478 3.6644907149999764 L1.4207400462499464 3.652812655000025 L1.3740278072499592 3.644756014000029 L1.3633669992499478 3.6342579680000195 L1.3643435622499425 3.6170460539999905 L1.3748416092499411 3.593730624000022 L1.3926638742499478 3.577088370999979 L1.3964887442499645 3.5695607020000235 L1.3850955152499438 3.566427564000014 L1.362878718249945 3.569601392000015 L1.3516482492499478 3.5730193610000125 L1.347009577249949 3.5770069909999958 L1.3359418692499645 3.5814829019999816 L1.31120228624998 3.5736704019999816 L1.2857302812499967 3.5613819909999958 L1.2718142652499438 3.552755689000014 L1.2605837962499464 3.5377817310000292 L1.2544802812499967 3.521953280000025 L1.2517947342499411 3.5036020429999777 L1.2522830152499438 3.453593905000025 L1.257409968249945 3.437236483000026 L1.2698611402499438 3.42995295500001 L1.3328494212499464 3.432801262000032 L1.3526248122499425 3.429708814000014 L1.368493952249949 3.4100148039999905 L1.3857465572499592 3.4022836840000306 L1.4060916092499411 3.398662264000029 L1.42253041124998 3.4019581629999944 L1.4126020252499671 3.3804737879999944 L1.3892459062499967 3.382833814000014 L1.3654015042499879 3.394756014000029 L1.3543337962499464 3.4019581629999944 L1.3286990312499967 3.399435376000019 L1.3240603592499411 3.383810376000019 L1.3278038482499852 3.360291495999979 L1.3271528072499592 3.334331209999993 L1.3169802812499967 3.3209848560000292 L1.264978327249949 3.285869296000021 L1.2486209062499967 3.2699594649999764 L1.2288455152499438 3.255636548000018 L1.206628718249945 3.2513233969999984 L1.1836794992499478 3.265361483000026 L1.1736697342499411 3.2449757409999958 L1.1641482492499478 3.212423658000011 L1.1599978592499411 3.1823943610000125 L1.1663455152499438 3.1691700770000235 L1.1513715572499592 3.164287264000029 L1.1468142652499438 3.152080233000026 L1.146081843249945 3.1364145429999777 L1.1420942132499619 3.1207895429999777 L1.1307009842499411 3.109599764000029 L1.1207725982499852 3.107443189000014 L1.116540827249949 3.101665193999997 L1.1216677812499967 3.079814608000026 L1.1309451242499478 3.0543832929999777 L1.134118952249949 3.040752108000026 L1.1353396562499967 3.02174983000001 L1.1396528072499592 3.0085662360000125 L1.1587771562499967 2.994609530000025 L1.1631716872499425 2.980815584999993 L1.1658572342499411 2.9530649340000306 L1.1836794992499478 2.8879200770000235 L1.196618952249949 2.8607797769999816 L1.1813194732499852 2.8668832929999777 L1.163415827249949 2.8620818610000125 L1.1484418692499645 2.848898267000015 L1.1420942132499619 2.8300180590000306 L1.1455121822499592 2.8099171469999984 L1.1548709062499967 2.791362459999993 L1.1680544992499478 2.7825733969999984 L1.1836794992499478 2.7917693610000125 L1.1905968172499826 2.777690584999993 L1.1984093172499826 2.766093905000025 L1.2071983792499879 2.757101392000015 L1.2172895252499671 2.750916495999979 L1.1934451242499478 2.7465219649999764 L1.171472468249945 2.754619296000021 L1.1552778072499592 2.754985506999992 L1.1489301502499671 2.727275546000021 L1.1455935622499425 2.677755689000014 L1.15495228624998 2.664775546000021 L1.1836794992499478 2.6627003499999997 L1.1836794992499478 2.6552540610000275 L1.1779015042499879 2.6542368090000306 L1.1631716872499425 2.648458814000014 L1.1709028072499592 2.6343800379999944 L1.1684614002499671 2.6279103110000275 L1.1489301502499671 2.621115064000014 L1.1387576242499478 2.619853671000021 L1.1323285882499619 2.6229054289999905 L1.1272830152499438 2.621562655000025 L1.1216677812499967 2.607443189000014 L1.1206098382499619 2.5936899340000306 L1.128503718249945 2.5768442310000292 L1.128503718249945 2.566508943999997 L1.122644343249945 2.5630909749999997 L1.112878718249945 2.562521314000014 L1.10417103624998 2.5587778239999803 L1.101159968249945 2.545390780000025 L1.0909874422499826 2.550802564000014 L1.0802452542499879 2.552959139000029 L1.0564822342499411 2.552837068999997 L1.0454959062499967 2.548564608000026 L1.050378718249945 2.539775546000021 L1.0607140042499879 2.5322071860000275 L1.0664106192499645 2.5317595950000165 L1.065759577249949 2.5183318610000125 L1.062097468249945 2.513896639000029 L1.0545291092499411 2.510682120999979 L1.0428103592499411 2.500997876000019 L1.032800593249945 2.496115064000014 L1.0218142652499438 2.498515780000025 L1.0118044992499478 2.504822745999979 L1.0049685622499425 2.5119028239999803 L0.9926801502499671 2.4979868090000306 L0.9869021562499967 2.484721834999993 L0.9834841872499425 2.471172030000025 L0.9776248122499425 2.4566456629999944 L0.9529666092499411 2.4284881110000125 L0.9467817132499619 2.4074513270000235 L0.9318077542499879 2.3734750899999764 L0.9234255932499451 2.359396314000014 L0.9156130932499451 2.3365284749999997 L0.9169965572499592 2.3283090739999803 L0.9205772862499799 2.3275766519999816 L0.9252973382499619 2.3288787360000125 L0.9297732492499478 2.326274568999997 L0.9399457752499671 2.315166171000021 L0.9511762442499645 2.305929517000015 L0.9601280672499826 2.2941700770000235 L0.9673709062499967 2.2612110930000195 L0.9820193432499451 2.230205233000026 L0.9843793692499645 2.2096567310000292 L0.9817752022499491 2.1984669520000235 L0.9722537182499451 2.1784067310000292 L0.9700564522499491 2.172343905000025 L0.9723350982499852 2.160177564000014 L0.9822634842499411 2.141867017000015 L0.9843793692499645 2.1307993090000306 L0.9811241612499799 2.1179412360000125 L0.9571169992499478 2.0724496989999803 L0.9363650462499464 2.043885245999979 L0.9313194732499852 2.0301319909999958 L0.9297732492499478 2.007548983000026 L0.9360395252499671 1.9215707929999777 L0.9295291092499411 1.8980519129999944 L0.9068240312499967 1.8581349210000209 L0.9019412182499451 1.8366098560000292 L0.8951052812499967 1.7515675379999944 L0.9043012442499645 1.7554737879999944 L0.9160199942499645 1.758159334999993 L0.9274132232499852 1.7575082929999777 L0.9360395252499671 1.7515675379999944 L0.9375043692499645 1.7417205330000112 L0.9298546292499879 1.7356170170000151 L0.9202517652499438 1.7312224860000125 L0.9156130932499451 1.7267465739999803 L0.9268435622499425 1.6098845950000165 L0.9002322342499411 1.4081430590000306 L0.8916873122499425 1.3908904550000099 L0.8770388742499478 1.3717661060000292 L0.8650759842499411 1.3502003499999997 L0.8472537182499451 1.3052784749999997 L0.8111209062499967 1.2399301679999777 L0.7989952542499879 1.2000538659999958 L0.7836957752499671 1.184591626000019 L0.7510623122499425 1.1618458580000262 L0.7256716872499425 1.1298634360000275 L0.7039431712499464 1.0868946860000275 L0.6885623122499425 1.0403045170000151 L0.6822146562499967 0.9974171469999984 L0.6783897862499799 0.9785369390000138 L0.6866726712500082 0.9631037979999828 L0.6954576642499575 0.9412446679999444 L0.6995917792500137 0.9163366269999837 L0.6991783682500028 0.9076033100000043 L0.6959227522500129 0.8902400289999886 L0.6968012522499549 0.8813000059999663 L0.7035191882499845 0.8708355290000096 L0.7123041812500475 0.863368284999984 L0.7182986472499948 0.8546866440000169 L0.7162832662500165 0.8405014629999723 L0.7082734192499771 0.8172987449999649 L0.7071882152500422 0.8002455219999458 L0.7138544742499704 0.7597053610000213 L0.715146385250037 0.7370969219999832 L0.7179369132499716 0.7257022689999868 L0.7243964662500417 0.7174082009999321 L0.7386591612499984 0.7128606749999928 L0.7477542142500084 0.718338376999986 L0.7503007292500143 0.7214108019999994 L0.7548855622500383 0.726942503000009 L0.763463849249959 0.7316450579999891 L0.7786050442499715 0.7319551169999752 L0.7786050442499715 0.7299914130000413 L0.7937462392499839 0.7205604639999788 L0.8028412912499476 0.7197336399999639 L0.8144168112500125 0.7208188460000482 L0.8250621572500023 0.7245653879999789 L0.8318834462499609 0.7319034409999627 L0.8689871242500118 0.8441188129999571 L0.880304262249993 0.8630582259999979 L0.8998896302500299 0.8802148019999603 L0.9287595172499579 0.8940700279999785 L0.9384919262499949 0.8987408019999972 L0.9607644672499447 0.9055620919999594 L0.9776109842500347 0.9069315160000198 L1.0034492012499783 0.9039601219999209 L1.0183320132499745 0.9076033100000043 L1.050268049249965 0.9305218080000284 L1.0685098292499475 0.9389192280000085 L1.129539695250017 0.9565667300000111 L1.1637494942500126 0.9716562480000075 L1.1817845682500234 0.9760487450000053 L1.1995095842499524 0.9736716289999574 L1.263950096250042 0.927782956999982 L1.2810549952499883 0.9276279280000406 L1.282605288250025 0.9338032620000174 L1.2822952292500105 0.9561016419999842 L1.2849824042499591 0.9644473859999518 L1.2934056622499526 0.9707002340000397 L1.302707421250048 0.9720179840000096 L1.3129910312499788 0.971862953999965 L1.3243598452499583 0.9735166000000159 L1.3474075342500242 0.9868749570000315 L1.3567092922499597 1.0060210759999446 L1.3595514962500062 1.0535633930000525 L1.3618252592499545 1.0650613999999816 L1.3662694322500357 1.0759909649999653 L1.378206688249989 1.096273963999968 L1.3801187162499815 1.1045680320000226 L1.3779999822500173 1.1137664370000149 L1.3748327452499467 1.1222201679999468 L1.37448598524999 1.1231457099999655 L1.3726256332500526 1.132059893999985 L1.3732457512500247 1.160947019000039 L1.3756745422499677 1.1693444400000228 L1.3840978012500074 1.1841497380000359 L1.388438621250046 1.1836329739999965 L1.3939163232500533 1.1768891989999783 L1.4062153142499625 1.1729101129999915 L1.4195478342500252 1.1746671130000603 L1.4611990382500295 1.1850282369999885 L1.4800092592500533 1.1801964909999665 L1.506260887249951 1.1521878649999646 L1.5253811672499893 1.1482087789999778 L1.5575755842500172 1.1744604070000033 L1.5741637192500235 1.179834755999968 L1.620052391250013 1.1699645579999949 L1.6327647932500469 1.174357053999989 L1.6393793762500337 1.1873019999999936 L1.6421182272499806 1.2076625150000293 L1.6402578762499758 1.231976275999946 L1.6311111472499675 1.2404770490000399 L1.6179853342500365 1.2464973529999863 L1.604549461249988 1.263214680000024 L1.6036192862500371 1.2862623679999867 L1.619638979249956 1.3012743719999715 L1.6382424952499406 1.3152270079999564 L1.645373842249981 1.335070757999949 L1.6401028472500485 1.374215655999981 L1.638552554250012 1.4311372460000396 L1.6315245592500247 1.4637967510000234 L1.6298709132499454 1.4826586489999496 L1.6222228012499755 1.5009779440000184 L1.604032697250048 1.5077217189999654 L1.5829487122500296 1.5119075099999915 L1.566412254250011 1.5224753399999766 L1.5253811672499893 1.6055193659999443 L1.5188182602500007 1.6167073149999762 L1.516389467250022 1.628412025999955 L1.5183014952499576 1.6398066789999515 L1.523527182249964 1.6479718139999928 L1.5311172512500235 1.6598312969999878 L1.542847801250005 1.6833440739999812 L1.549720766249962 1.6912764060000338 L1.5594876122499528 1.6951521389999922 L1.5785045392500052 1.6942736389999506 L1.5884264142499802 1.6962373439999876 L1.6109056622500049 1.7112493469999688 L1.6298709132499454 1.7330568009999805 L1.6450637842500129 1.7581715480000124 L1.656535953250014 1.783182940999998 L1.673279116249958 1.7909344060000105 L1.7010810362500166 1.7821752509999325 L1.7479515612500478 1.7540115949999855 L1.7634028142500284 1.7393096499999867 L1.7761152172499948 1.7216104719999716 L1.7846935042500292 1.7014049869999806 L1.7877424142500473 1.6791582830000404 L1.8000930812500116 1.633838052000021 L1.8307888822500473 1.6177925199999716 L1.8700629712499932 1.6107386860000386 L1.9086652652499794 1.5924193909999698 L1.9437535632500413 1.5697334370000018 L2.051301952249972 1.5281308400000224 L2.0857603982499455 1.5148013899999793 L2.10901479325004 1.509478717000027 L2.130408837249959 1.5144913319999969 L2.1462218252499525 1.5354719629999973 L2.150872703250016 1.5467632629999652 L2.156247052249981 1.5547214340000206 L2.1639985172499934 1.5594756660000169 L2.1756773912499767 1.5614135319999516 L2.1851858542499514 1.5652375879999934 L2.1854959132500227 1.5734799789999325 L2.1823953272500063 1.5834535300000336 L2.1818785632499527 1.5924193909999698 L2.2014639312500464 1.6381788720000028 L2.2170185362499666 1.655232095000036 L2.23779246324996 1.6596245919999344 L2.2477143382500486 1.6545603009999663 L2.24866722725001 1.6536861410000139 L2.2658527652500453 1.6379204900000328 L2.2778933742500413 1.6343548159999752 L2.2911225412499476 1.638463091999986 L2.2989773582499566 1.6484366439999913 L2.3052818832499753 1.6605547669999847 L2.313963524250042 1.6712776270000003 L2.3352542132499963 1.6827239570000128 L2.351583966249976 1.680915281999921 L2.363366193249945 1.668280393999984 L2.3713243632499967 1.6470930569999407 L2.376595360249965 1.640995237999979 L2.4058442202500174 1.623166868000018 L2.4119420392499507 1.6143301990000278 L2.4153526842499815 1.6054160140000047 L2.420313621249946 1.5969669170000085 L2.431424055250048 1.5897838929999661 L2.46403188325003 1.56151688499998 L2.4703880842500467 1.523250485999986 L2.4708531722500453 1.4805657539999881 L2.4858393372500274 1.4390954170000096 L2.510488996249947 1.4092264389999993 L2.584541323249951 1.3524340389999647 L2.6111030092499874 1.3260273829999871 L2.6223684712500273 1.294168862000026 L2.617756361249988 1.2160761050000186 L2.6241905672499826 1.1633107020000235 Z M15.697269994249964 2.512309724999943 L15.713952937249942 2.512798006999992 L15.729333796250003 2.510763501000019 L15.74056426525 2.5033579019999816 L15.750004369249964 2.4700733969999984 L15.761723119249964 2.4611215739999803 L15.775476374249948 2.4625050379999944 L15.786625463249962 2.4765024340000306 L15.789717911249923 2.483501131999992 L15.795007624249948 2.485372876000019 L15.81673614025 2.483908033000011 L15.826339004249931 2.4855763270000235 L15.836430150249967 2.4896046469999984 L15.84432403124994 2.4950978110000275 L15.855066218249945 2.514669751000019 L15.872725723249928 2.520691887000032 L15.893396296250003 2.521017408000011 L15.909509577250006 2.518047030000025 L15.921391088249962 2.5099496989999803 L15.954594213249962 2.4765024340000306 L15.958988744249964 2.470480298000018 L15.998865046250003 2.435527499000022 L16.030847468249945 2.39479670500001 L16.04329864025 2.3883676679999777 L16.063562312249942 2.3849496989999803 L16.082849421250003 2.3762013270000235 L16.098718562249942 2.365011548000018 L16.108077286249923 2.353618318999997 L16.114099421250003 2.337667798000018 L16.120935359249998 2.297099764000029 L16.122400202250006 2.260763501000019 L16.124597468249945 2.251160637000032 L16.13533965624994 2.230693514000029 L16.143640437249942 2.2221485930000195 L16.152429499249948 2.2162485269999816 L16.156335749249948 2.208720858000026 L16.149743952250006 2.195333814000014 L16.11190215624994 2.212993318999997 L16.074874161249923 2.212016756999992 L16.040857234249998 2.1978565999999997 L15.95174590624994 2.120830233000026 L15.949223119249964 2.1115121989999803 L15.95150176525 2.1029672769999816 L15.950850723249928 2.096619620999979 L15.940271296250003 2.0941782149999764 L15.93587676525 2.096416171000021 L15.91634551525 2.113383943999997 L15.91073028124994 2.1011769129999944 L15.913741348249928 2.086935376000019 L15.919763484249998 2.0715138270000235 L15.92635528124994 2.038839673000018 L15.933435359249998 2.0255746989999803 L15.940515437249942 2.015158033000011 L15.94368926525 2.007548983000026 L15.95540801525 1.9969288659999958 L16.00749134824993 1.9664926679999777 L16.019372859249998 1.9461476159999958 L16.030603327250006 1.9311329680000195 L16.10124134824993 1.8806365480000178 L16.136316218249945 1.8046681240000222 L16.15592884824993 1.7850148039999905 L16.169926244249964 1.8079640219999984 L16.135421036249923 1.8723357670000151 L16.15592884824993 1.9011036710000209 L16.16113718224996 1.890727693999997 L16.165531713249962 1.8635467050000099 L16.17025176525 1.8527638270000235 L16.204431452250006 1.8821827719999984 L16.22518340624994 1.8914601159999958 L16.31348093224996 1.8976857020000235 L16.34237090624994 1.8959360269999816 L16.36881947324993 1.8874724860000125 L16.399743952250006 1.8608204680000195 L16.42546009824993 1.8214731370000319 L16.445316869249964 1.7775685140000288 L16.45760528124994 1.737244620999979 L16.46517364025 1.6933806890000138 L16.47103301525 1.6740528890000288 L16.481775202250006 1.6578175379999944 L16.49642364025 1.6459767180000195 L16.58626739025 1.5958871989999803 L16.60189239025 1.5785532149999764 L16.608484187249942 1.555685376000019 L16.611413874249948 1.5095427980000178 L16.61751739025 1.4901743090000306 L16.678796687249942 1.3910532149999764 L16.692956843249945 1.347758943999997 L16.677331843249945 1.3182993090000306 L16.65487090624994 1.3261118090000306 L16.64705840624994 1.3130909749999997 L16.657068171250003 1.2943735269999816 L16.687504369249964 1.2847706629999944 L16.705163874249948 1.273540193999997 L16.752445775249967 1.2028614830000262 L16.77376739025 1.1836150640000138 L16.786462702250006 1.1773487879999944 L16.80330840624994 1.1749073819999918 L16.815108536249923 1.1789357020000235 L16.830082494249964 1.185893709999993 L16.842615046250003 1.1882130460000209 L16.84798614025 1.1783253499999997 L16.843835749249948 1.1450408450000165 L16.831628718249945 1.1422739179999777 L16.812504369249964 1.1514698819999918 L16.787195124249948 1.1544809489999803 L16.787195124249948 1.1482146730000178 L16.814457494249964 1.1339731370000319 L16.830163874249948 1.1168832929999777 L16.83431426525 1.1134653239999803 L16.841638484249998 1.112244620999979 L16.86165801525 1.1134653239999803 L16.871098119249964 1.1074431890000138 L16.873132624249948 1.1041065999999997 L16.873051244249964 1.0984913659999958 L16.881677546250003 1.0665903239999803 L16.884363093249945 1.0602426679999777 L16.889490046250003 1.0519825770000235 L16.89876739025 1.0412403890000288 L16.987471817249926 0.9739796469999984 L17.00252715624994 0.9589243090000306 L17.020593562249942 0.9450489830000262 L17.03939239025 0.9365447510000191 L17.054284968249945 0.9256398039999905 L17.06022572324993 0.9042774990000222 L17.06078491659609 0.8887598918055133 L17.06087676525 0.8862110930000195 L17.064294734249998 0.8671274340000306 L17.071781713249962 0.8520720950000165 L17.085046687249942 0.8459685800000099 L17.102624812249942 0.8324594649999764 L17.16463653124994 0.7497364830000262 L17.179691869249964 0.7354542569999918 L17.190108536249923 0.7215382409999958 L17.196130671250003 0.7038787360000125 L17.198083796250003 0.6784067310000292 L17.196456192249926 0.6445118740000222 L17.198083796250003 0.6342986580000112 L17.202234187249942 0.6264047769999816 L17.214441218249945 0.6098032149999764 L17.218591609249998 0.5995493090000306 L17.216882624249948 0.5612192310000292 L17.220300593249945 0.5444142180000195 L17.24862090624994 0.5311085539999905 L17.256921687249942 0.5154835539999905 L17.266443171250003 0.47605484300001955 L17.267663874249948 0.4540821860000275 L17.270023900249967 0.44541519399999707 L17.277185359249998 0.44187515500002483 L17.281335749249948 0.438416495999979 L17.292077937249942 0.42238459500001646 L17.297530411249923 0.4103810140000288 L17.306156713249962 0.40208023300002615 L17.31698028124994 0.3957325770000235 L17.32845489025 0.3940642830000112 L17.331628718249945 0.39805191299999443 L17.34196400424993 0.42075699099999575 L17.38314239025 0.4474903890000288 L17.38924590624994 0.4586801679999777 L17.40291778124994 0.5306202719999984 L17.384363093249945 0.5200001550000248 L17.37362090624994 0.5167042569999918 L17.368738093249945 0.5207325770000235 L17.36230905724996 0.5519825770000235 L17.36190215624994 0.5579640219999984 L17.37337676525 0.5679737879999944 L17.38924590624994 0.5734262620000319 L17.403487442249926 0.5822967050000099 L17.409753718249945 0.6029672769999816 L17.405766088249962 0.6423146080000262 L17.395023900249967 0.6685597249999997 L17.36190215624994 0.7162485269999816 L17.343835749249948 0.7510792569999918 L17.329594213249962 0.7942921469999984 L17.335046687249942 0.8292042569999918 L17.37557403124994 0.8390919520000235 L17.396570124249948 0.8287973560000292 L17.412113744249964 0.8102833580000262 L17.42415801525 0.7924610930000195 L17.43416778124994 0.7845265219999984 L17.44783965624994 0.7787485269999816 L17.492273249249948 0.7360646080000262 L17.524906713249962 0.7127491789999905 L17.531335749249948 0.7004607670000151 L17.535241999249948 0.6658741789999905 L17.540124812249942 0.6616424080000112 L17.546716609249998 0.6596892830000112 L17.55371530724996 0.6541554289999905 L17.56738718224996 0.6268930590000306 L17.603601374249948 0.5900685140000288 L17.608972468249945 0.5752980069999918 L17.602868952250006 0.5546274340000306 L17.58040801525 0.5108448819999918 L17.581628718249945 0.48968602699998165 L17.589685359249998 0.4782114179999777 L17.597660619249964 0.47703140500002483 L17.606937963249962 0.4804493740000222 L17.619226374249948 0.48285008999997636 L17.627771296250003 0.4795135010000191 L17.634363093249945 0.4723520429999777 L17.63704864025 0.4650685140000288 L17.63314239025 0.46177261599999575 L17.62557403124994 0.4570525640000138 L17.62362090624994 0.4465138270000235 L17.62557403124994 0.43516128799999443 L17.62948028124994 0.42820328000002483 L17.639978327250006 0.4261280849999931 L17.651941218249945 0.4292205330000112 L17.663253067249926 0.43353368400003056 L17.670984187249942 0.43503921800001955 L17.679773249249948 0.43015640500002483 L17.694909968249945 0.4170948819999918 L17.70133900424993 0.41770523300002615 L17.70915150424993 0.4220997640000288 L17.73454212924993 0.4329640219999984 L17.74276153124994 0.43503921800001955 L17.746098119249964 0.4389861580000112 L17.79785593224996 0.47031753799999443 L17.803552546250003 0.47503758999997636 L17.80762155724996 0.48285008999997636 L17.808435359249998 0.4999806240000222 L17.802087702250006 0.5480356370000319 L17.797693171250003 0.5579640219999984 L17.783858536249923 0.565369620999979 L17.77946400424993 0.5827442960000209 L17.78141712924993 0.6032927980000178 L17.787113744249964 0.620057120999979 L17.823083796250003 0.6670948819999918 L17.82869903124994 0.6851612879999944 L17.831384577250006 0.7472543870000319 L17.835534968249945 0.7634083580000262 L17.847009577250006 0.7845265219999984 L17.860030411249923 0.7920135010000191 L17.900394994249964 0.7907114179999777 L17.915857234249998 0.7956756110000125 L17.929284968249945 0.8073536710000209 L17.951013484249998 0.8322560140000288 L17.975915827250006 0.8552459230000178 L17.993331192249926 0.8677784749999997 L18.009607234249998 0.8732716390000288 L18.02596465624994 0.8693653890000288 L18.036950984249998 0.8583790610000275 L18.06087676525 0.8186248300000099 L18.07650176525 0.7998260010000191 L18.084802546250003 0.7997853110000275 L18.08805775424993 0.8151254810000292 L18.088708796250003 0.8425099210000209 L18.092859187249942 0.8432423430000195 L18.116052546250003 0.8664357020000235 L18.112146296250003 0.8650929289999905 L18.10954212924993 0.8696095300000248 L18.108484187249942 0.8760792569999918 L18.109216609249998 0.8807179289999905 L18.112878718249945 0.8825082929999777 L18.125655411249923 0.8858448819999918 L18.129724421250003 0.8875538659999958 L18.14469837924993 0.9012257409999958 L18.154382624249948 0.9061085539999905 L18.167322077250006 0.9079802980000178 L18.18131947324993 0.9009815999999997 L18.19198028124994 0.8991098560000292 L18.20174590624994 0.9042774990000222 L18.225753067249926 0.9318653890000288 L18.236413874249948 0.9477345300000248 L18.24642364025 0.9694630460000209 L18.253259577250006 0.9694630460000209 L18.256921687249942 0.9607960539999905 L18.261804499249948 0.9570525640000138 L18.267419734249998 0.9578663659999958 L18.27360462924993 0.9626271080000262 L18.278161921250003 0.969666495999979 L18.279382624249948 0.9771534749999997 L18.279301244249964 0.9860646080000262 L18.280603327250006 0.9974171469999984 L18.283858536249923 1.0066944909999958 L18.293054499249948 1.0241098560000292 L18.294926244249964 1.0309457929999777 L18.291101374249948 1.0402638270000235 L18.28418405724996 1.0492563399999764 L18.27962676525 1.0584523039999905 L18.289880671250003 1.0851450120000319 L18.280603327250006 1.1513478110000275 L18.274092911249923 1.1661996989999803 L18.259118952250006 1.1679493740000222 L18.225915827250006 1.1618458580000262 L18.20736114025 1.168071443999997 L18.189294734249998 1.1801970950000165 L18.16032337924993 1.205994620999979 L18.151452937249942 1.223003084999993 L18.156742650249967 1.2389942960000209 L18.178227025249967 1.2643442310000292 L18.194421687249942 1.3033253499999997 L18.208988744249964 1.3095509360000275 L18.212243952250006 1.3152068610000125 L18.213708796250003 1.3250538659999958 L18.216312963249962 1.3326222249999997 L18.216638484249998 1.3409230069999918 L18.212243952250006 1.3530486580000112 L18.203943171250003 1.3615121989999803 L18.194665827250006 1.3645232670000151 L18.18717884824993 1.3688771080000262 L18.184411921250003 1.380962068999997 L18.191003718249945 1.397400870999979 L18.20524525424993 1.4010629810000292 L18.219405411249923 1.4074106370000319 L18.225915827250006 1.4318653890000288 L18.220056452250006 1.448182120999979 L18.205733536249923 1.4621388270000235 L18.170740046250003 1.4833790610000275 L18.04394968224996 1.5261443610000125 L18.01986114025 1.5522674080000112 L18.037602025249967 1.5490528890000288 L18.094893692249926 1.5243946860000275 L18.120447077250006 1.517924959999993 L18.191247859249998 1.5175587490000222 L18.25814239025 1.5092172769999816 L18.307702937249942 1.514669751000019 L18.325362442249926 1.5127980069999918 L18.331384577250006 1.5014047769999816 L18.322758275249967 1.4765431240000222 L18.333337702250006 1.4701954680000195 L18.343754369249964 1.470805818999997 L18.355554499249948 1.4743458580000262 L18.369958796250003 1.4765431240000222 L18.38769968224996 1.4753224210000209 L18.435144343249945 1.4661671469999984 L18.44499134824993 1.4594939700000165 L18.451176244249964 1.4468800379999944 L18.46501087924993 1.4343474860000125 L18.492191869249964 1.4151417569999918 L18.524743952250006 1.3730681890000138 L18.542484838249962 1.3640349860000125 L18.54655384824993 1.3591114830000262 L18.55371530724996 1.3562224860000125 L18.567956843249945 1.3598439050000248 L18.602055150249967 1.394633943999997 L18.604333796250003 1.4045216390000288 L18.603601374249948 1.4155079680000195 L18.604822077250006 1.4245004810000292 L18.62207468224996 1.4334523039999905 L18.62467884824993 1.4455372640000288 L18.623132624249948 1.4660450770000235 L18.628259577250006 1.4892384360000275 L18.67008900424993 1.5454314700000165 L18.675622859249998 1.5504770429999777 L18.676273900249967 1.5569060800000099 L18.64705840624994 1.5966603110000275 L18.632165827250006 1.6054493740000222 L18.60994903124994 1.6118377200000165 L18.58651153124994 1.6130584230000178 L18.567956843249945 1.6063038659999958 L18.55111114025 1.6118377200000165 L18.489099421250003 1.6063038659999958 L18.472253718249945 1.6117970300000248 L18.46151153124994 1.623963370999979 L18.45955840624994 1.6361704019999816 L18.468835749249948 1.641622876000019 L18.473148900249967 1.6491098560000292 L18.503096817249926 1.7267465739999803 L18.51139759824993 1.7336638920000151 L18.51595489025 1.7345997640000288 L18.52165150424993 1.7322804289999905 L18.53377715624994 1.7297576420000151 L18.54915801525 1.7248748300000099 L18.588952937249942 1.7065235930000195 L18.60579864025 1.7024952719999984 L18.61385528124994 1.7042042569999918 L18.620691218249945 1.7128305590000306 L18.629968562249942 1.7161671469999984 L18.63769968224996 1.7144581629999944 L18.647302546250003 1.7103077719999984 L18.657719213249962 1.7082325770000235 L18.667566218249945 1.7127491789999905 L18.677820124249948 1.7272755460000209 L18.685144343249945 1.7311817960000209 L18.694828588249962 1.7267465739999803 L18.702641088249962 1.7156788659999958 L18.702722468249945 1.7067270429999777 L18.69824655724996 1.6962696860000275 L18.704919734249998 1.6786915610000275 L18.70931426525 1.6718149340000306 L18.715661921250003 1.6646534749999997 L18.718347468249945 1.6564340739999803 L18.710453588249962 1.6380421469999984 L18.71191843224996 1.6274220300000248 L18.727380671250003 1.6156625899999764 L18.77205840624994 1.6112680590000306 L18.813318171250003 1.5929575120000319 L18.834802546250003 1.5975961840000306 L18.88688587924993 1.6249806240000222 L18.891768692249926 1.6265675379999944 L18.89681426525 1.6224171469999984 L18.907800593249945 1.6100473560000292 L18.91634551525 1.6070362879999944 L18.926436661249923 1.6109425379999944 L18.935632624249948 1.6168832929999777 L18.941898900249967 1.6198943610000125 L18.961755671250003 1.6246957929999777 L19.06413197324993 1.6840626550000248 L19.099206843249945 1.7127491789999905 L19.11296009824993 1.721049959999993 L19.130375463249962 1.7291065999999997 L19.14510528124994 1.7387501550000248 L19.15072051525 1.7515675379999944 L19.14705840624994 1.7614552330000262 L19.139734187249942 1.7671925379999944 L19.132816869249964 1.7708546469999984 L19.129561661249923 1.7745167569999918 L19.119796036249923 1.8312794520000235 L19.113122859249998 1.8528045170000151 L19.10994903124994 1.873963370999979 L19.116540827250006 1.894878084999993 L19.12337676525 1.894878084999993 L19.133305150249967 1.869487459999993 L19.139490046250003 1.8581349210000209 L19.14705840624994 1.8495899990000222 L19.151697077250006 1.8395395429999777 L19.15006947324993 1.812846834999993 L19.154138484249998 1.8021046469999984 L19.180180150249967 1.784201001000019 L19.20215280724996 1.7844044520000235 L19.221358536249923 1.797791495999979 L19.268396296250003 1.8550017830000112 L19.28768340624994 1.8729868090000306 L19.30501739025 1.8806365480000178 L19.331384577250006 1.8854786710000209 L19.351159968249945 1.8987029550000099 L19.364099421250003 1.9184783450000165 L19.370447077250006 1.9427296469999984 L19.37793405724996 1.9371957929999777 L19.382165827250006 1.9322315999999997 L19.383874812249942 1.9255584230000178 L19.383467911249923 1.9153858969999984 L19.43066843224996 1.9510304289999905 L19.449060359249998 1.9563201420000151 L19.469893692249926 1.965841626000019 L19.486820775249967 1.9868377200000165 L19.49056426525 2.0079965739999803 L19.47282337924993 2.017802889000029 L19.483728327250006 2.0267140219999984 L19.499353327250006 2.032247876000019 L19.515629369249964 2.032410637000032 L19.52751087924993 2.0252491789999905 L19.530359187249942 2.011699374000022 L19.524499812249942 2.001242017000015 L19.521977025249967 1.992534334999993 L19.534997859249998 1.9843149340000306 L19.559411921250003 1.9849659749999997 L19.606775202250006 2.009868318999997 L19.636804499249948 2.0109669520000235 L19.714929499249948 1.9738575770000235 L19.74040150424993 1.9700733969999984 L19.755945124249948 1.977478995999979 L19.770674942249926 1.9929005460000209 L19.794437963249962 2.0252491789999905 L19.81608509824993 2.046611483000026 L19.825362442249926 2.059673006999992 L19.829187312249942 2.076193189000014 L19.826990046250003 2.097881014000029 L19.817549942249926 2.1310434489999803 L19.815515437249942 2.1481332929999777 L19.820398249249948 2.194601392000015 L19.818200984249998 2.219747876000019 L19.79525176525 2.2394825770000235 L19.74666778124994 2.292176262000032 L19.707035619249964 2.3146371989999803 L19.524255671250003 2.380880689000014 L19.337732234249998 2.4347950770000235 L19.301843562249942 2.456767733000026 L19.278406062249942 2.466899568999997 L19.25358509824993 2.4742237879999944 L19.23258900424993 2.4765024340000306 L19.21696400424993 2.4728403239999803 L19.185551244249964 2.4594939700000165 L19.156905411249923 2.455058749000022 L19.136072077250006 2.448955233000026 L19.12337676525 2.449199374000022 L19.111332494249964 2.45339045500001 L19.081872859249998 2.4765024340000306 L19.060144343249945 2.489767408000011 L19.05046009824993 2.489360506999992 L19.03743926525 2.480205233000026 L19.03182403124994 2.4728403239999803 L19.013757624249948 2.4420786060000292 L18.97949655724996 2.4020395429999777 L18.948083796250003 2.386007642000015 L18.927331843249945 2.3797413659999958 L18.917973119249964 2.3849496989999803 L18.908288874249948 2.382020012000032 L18.88688587924993 2.395691887000032 L18.855961400249967 2.421896314000014 L18.84782337924993 2.416240389000029 L18.84277780724996 2.419902499000022 L18.84082468224996 2.4298715739999803 L18.84237090624994 2.4429737879999944 L18.803796687249942 2.433696443999997 L18.768070775249967 2.4550180590000306 L18.71191843224996 2.518047030000025 L18.69499134824993 2.530538892000015 L18.687585749249948 2.5385141519999816 L18.684656062249942 2.54909358000001 L18.686039525249967 2.5612192310000292 L18.690108536249923 2.565451001000019 L18.696863093249945 2.5676075770000235 L18.722497859249998 2.58424983000001 L18.72908965624994 2.590068514000029 L18.73494903124994 2.5989796469999984 L18.746098119249964 2.6279103110000275 L18.77010528124994 2.664531405000025 L18.797530411249923 2.697002108000026 L18.82869903124994 2.725688631999992 L18.863366999249948 2.750916495999979 L18.876306452250006 2.762960767000015 L18.884607234249998 2.769267733000026 L18.893721817249926 2.771953280000025 L18.90291778124994 2.772197421000021 L18.923913874249948 2.7750050379999944 L18.931644994249964 2.7781788659999958 L18.936365046250003 2.7841603110000275 L18.94434030724996 2.802470858000026 L18.948816218249945 2.809510245999979 L18.955163874249948 2.8149627200000165 L18.962243952250006 2.8193165610000275 L18.97949655724996 2.826518709999993 L18.981937963249962 2.8095509360000275 L18.995691218249945 2.8058888270000235 L19.013513484249998 2.81081233000001 L19.027836400249967 2.8196827719999984 L19.038578588249962 2.8332325770000235 L19.040613093249945 2.845724439000014 L19.03548614025 2.8580942310000292 L19.02441843224996 2.8709523039999905 L19.02051218224996 2.8836476159999958 L19.029301244249964 2.894756014000029 L19.041508275249967 2.904318189000014 L19.047693171250003 2.9125375899999764 L19.055993952250006 2.918437655000025 L19.07438587924993 2.909201001000019 L19.103031713249962 2.8880421469999984 L19.11426218224996 2.893576001000019 L19.138513484249998 2.8969939700000165 L19.15072051525 2.901632642000015 L19.14510528124994 2.915304517000015 L19.156742650249967 2.933940584999993 L19.196374812249942 2.976787264000029 L19.196863093249945 2.9840707929999777 L19.188318171250003 2.9948129810000292 L19.177331843249945 3.001486158000011 L19.168624161249923 3.000102693999997 L19.158695775249967 2.995301262000032 L19.143233536249923 2.9916798430000195 L19.148523249249948 3.008525546000021 L19.143884577250006 3.023458814000014 L19.133874812249942 3.036235506999992 L19.12337676525 3.0462452719999984 L19.10799590624994 3.0573129810000292 L19.09391712924993 3.06081233000001 L19.054529109249998 3.059306796000021 L19.03768340624994 3.0613006110000125 L19.005456843249945 3.070537264000029 L18.986332494249964 3.0735890219999984 L18.94303822324993 3.074443514000029 L18.920007624249948 3.0702524340000306 L18.904382624249948 3.059306796000021 L18.891280411249923 3.0767628499999997 L18.883630671250003 3.081808423000018 L18.79313587924993 3.107158358000026 L18.71191843224996 3.1146046469999984 L18.688155411249923 3.122173006999992 L18.55566843224996 3.189189608000026 L18.53377715624994 3.189677889000029 L18.472172338249962 3.1717335539999905 L18.455570775249967 3.1691700770000235 L18.443363744249964 3.163839673000018 L18.404789525249967 3.128195142000015 L18.390710749249948 3.1199757409999958 L18.382328588249962 3.116150870999979 L18.37362090624994 3.1146046469999984 L18.369958796250003 3.110291495999979 L18.363122859249998 3.091533358000026 L18.359379369249964 3.0872608969999984 L18.34587025424993 3.085918124000022 L18.31462025424993 3.0735890219999984 L18.289555150249967 3.0690317310000292 L18.280603327250006 3.066142733000026 L18.258630671250003 3.050883943999997 L18.247237442249926 3.0330616789999905 L18.238122859249998 3.013774568999997 L18.222253718249945 2.9948129810000292 L18.207116999249948 2.9966033450000165 L18.18522572324993 3.0107228110000275 L18.16569447324993 3.0277719649999764 L18.156905411249923 3.038798983000026 L18.16073028124994 3.0474659749999997 L18.17985462924993 3.059062655000025 L18.184411921250003 3.069845533000011 L18.184411921250003 3.1111866789999905 L18.18807403124994 3.121806796000021 L18.203210749249948 3.1359669520000235 L18.20475697324993 3.148662264000029 L18.20019968224996 3.1600961840000306 L18.19157337924993 3.169454908000011 L18.170740046250003 3.1834523039999905 L18.164148249249948 3.189922030000025 L18.15918405724996 3.1985890219999984 L18.153161921250003 3.205547030000025 L18.15006947324993 3.213888501000019 L18.153812963249962 3.219096834999993 L18.171391088249962 3.236105298000018 L18.178227025249967 3.2443246989999803 L18.16813587924993 3.2433888270000235 L18.159509577250006 3.244609530000025 L18.118249812249942 3.261170401999939 L18.109433495249974 3.2531707340000136 L18.093310447249976 3.246995401000026 L18.06571523225007 3.2488815900000443 L18.049488833249953 3.248209796999964 L18.015279035250003 3.242912962000025 L17.98758046724994 3.2352131740000285 L17.96401601425005 3.2207437730000006 L17.907688703249974 3.1613158749999624 L17.826660057249924 3.119845537999984 L17.789763085250016 3.0939556460000457 L17.78170156124999 3.0836461980000447 L17.775913800249967 3.0742410869999954 L17.768265689249986 3.0673939599999382 L17.75379628825 3.06475846200002 L17.74149729624999 3.067807371999953 L17.725477602249967 3.0824059640000083 L17.71576243325002 3.0876769599999445 L17.53169098125001 3.091268471000012 L17.47536367024999 3.0758688940000294 L17.434125878249986 3.0759205710000455 L17.355577700249924 3.090751707999976 L17.31723378825002 3.082250933999978 L17.280543520249935 3.0563610420000256 L17.26276682725002 3.054035603000008 L17.231140851250032 3.0809073469999984 L17.21222727725008 3.086436725000004 L17.192900292250002 3.0869534890000434 L17.166648664249934 3.0767473939999714 L17.141327212250033 3.0896923399999903 L17.127994693250017 3.088813841000052 L17.084379784249975 3.0254585350000323 L17.073321027249975 3.0240374330000517 L17.066499738250016 3.0366723209999886 L17.04541575324994 3.0576012759999767 L17.037560936250046 3.071993162999979 L17.038077700249985 3.082250933999978 L17.043038637250007 3.0895373109999493 L17.045209048250015 3.0959710269999956 L17.037044171250002 3.103903358999963 L17.019474185249933 3.1085025620000035 L17.00820872224996 3.1040583889999933 L16.997460024249918 3.1035674619999636 L16.972862043249975 3.128992266999978 L16.962423403250014 3.132170366999935 L16.951984764249985 3.1308267799999694 L16.942166242249996 3.126150063999992 L16.916534731249968 3.0831294330000016 L16.912917381249954 3.070442868999967 L16.909300031249998 3.0653785789999883 L16.902375389249997 3.062923949000014 L16.89534739425001 3.063905800999981 L16.88862945824998 3.063595741999995 L16.861757713249986 3.037447466999998 L16.836229556249933 3.042434242999951 L16.808324283249945 3.056671100000022 L16.779902244249925 3.064706785000004 L16.76615631425007 3.0629756250000266 L16.721197817249973 3.0509091780000457 L16.697943423250038 3.049617267999997 L16.687608136250063 3.0477827540000018 L16.676859439249952 3.041917479000011 L16.66859121025 3.063595741999995 L16.661046450250026 3.075713865999992 L16.65050445825007 3.084317992000029 L16.632314354250028 3.095350910000027 L16.584255272249962 3.1430999339999968 L16.571749575249967 3.149972898999968 L16.55510976425002 3.1441334609999867 L16.544671125249934 3.1319119859999685 L16.538469953250015 3.1160473210000443 L16.53454254424993 3.099433348000039 L16.52834137225007 3.0921986469999805 L16.515939028250003 3.0853515200000086 L16.492064516249926 3.0764631740000024 L16.44989654824998 3.073698484999957 L16.42994944524993 3.0686858709999907 L16.420544334249954 3.054138955000033 L16.415996808249943 3.03824845200001 L16.40721181525005 3.0300577379999876 L16.395222882249996 3.03160803100001 L16.38209706925001 3.0447080059999703 L16.372278547249962 3.0764890120000015 L16.373002017249988 3.109587766999999 L16.368557844249963 3.1395084210000217 L16.33052398925004 3.1718837060000222 L16.326493228250015 3.1847252990000126 L16.321842348249973 3.1952156159999614 L16.307993065250017 3.198652098000002 L16.298277896249957 3.193200234000008 L16.29135325425007 3.184621945999984 L16.28370514224993 3.181443846000013 L16.240917056249955 3.220847126000029 L16.233889061249968 3.23017472099996 L16.22706777225001 3.2366601140000224 L16.207017316249974 3.242189492000028 L16.198025616250007 3.2517237940000197 L16.19023485824995 3.2748747430000034 L16.184383039250022 3.292263954999944 L16.17322092924998 3.380604815999936 L16.16061187924994 3.423909666999995 L16.14138824725002 3.4628220199999813 L16.132086489249915 3.4739066139999917 L16.09694651625007 3.4931044090000025 L16.08991852124997 3.5002099190000333 L16.089401756249927 3.522999225000026 L16.10521474424992 3.5372619210000007 L16.12567861125008 3.5487340879999234 L16.139734601249998 3.563229327999954 L16.14045807225007 3.596302243999949 L16.10159739425002 3.712600056000033 L16.095706281249946 3.751848305000001 L16.095499575249974 3.7916649959999287 L16.099633690249917 3.815539508000006 L16.124438377249945 3.8758200669999834 L16.125575258249924 3.886258706000026 L16.123508202249994 3.9065675440000316 L16.123818260250076 3.91667028599999 L16.127228905249993 3.9291501449999853 L16.143765363249955 3.9588640930000505 L16.151723533250006 3.9796121809999843 L16.15234365124992 3.9905934219999804 L16.146555890249957 3.9999726950000163 L16.136117251249985 4.004003457000016 L16.12712555224995 4.001419636000014 L16.11823720524997 3.996975462 L16.10831533025005 3.9953734929999793 L16.086921287250007 4.017206785000004 L16.068731183249966 4.063663898000021 L16.03390126824992 4.214352374999967 L16.034624738249946 4.231819009000011 L16.05043772624994 4.251042641000032 L16.06552724525001 4.256055254999998 L16.068111066249926 4.263548337999941 L16.03328115125005 4.309850421000013 L16.02707997924996 4.327782143999988 L16.023255923250034 4.370311847000044 L16.01519440024994 4.390000567999996 L15.999071352250056 4.396770180000024 L15.957936912249991 4.401317706999967 L15.892617902250052 4.429688067999981 L15.861095278250062 4.43490738799999 L15.832466535249992 4.421264809999988 L15.80693837724995 4.383334307999979 L15.793192447249922 4.379200193999969 L15.776139224249974 4.404935057000051 L15.759086001249969 4.44012670700001 L15.747510480250028 4.453200844999975 L15.690149640250027 4.492371581000006 L15.673923241250023 4.507874510000013 L15.660694074249946 4.528803465000001 L15.656353253249975 4.5405340160000005 L15.653872785249987 4.550869302000001 L15.650152082250045 4.5611529120000025 L15.642297264249933 4.5726767560000265 L15.628654686250016 4.584303952999994 L15.620179751249921 4.5881796860000374 L15.618009340250026 4.592623858999948 L15.62297027924997 4.606059730999993 L15.649221906249991 4.63975276499996 L15.655733137249982 4.659338132999983 L15.644674380249981 4.683781085000012 L15.633822329249952 4.691274167999955 L15.623280337250051 4.693392902000019 L15.614288637250027 4.697165281999963 L15.608087466249927 4.709567625000025 L15.609017642249981 4.719334470999973 L15.61986969225002 4.739281572999991 L15.62297027924997 4.748996742999941 L15.61852610525007 4.769615640000032 L15.609741112250006 4.7919915350000135 L15.607570702249987 4.812197019000001 L15.622556867249969 4.8262013330000055 L15.63361562324998 4.82645971499999 L15.655216372249939 4.816072751999959 L15.666068423249968 4.8129204900000015 L15.67795400224999 4.814057371000009 L15.690873110249996 4.81798477999998 L15.703068748250033 4.823772541000045 L15.712990623250008 4.830438799999973 L15.728080142250022 4.846665199999981 L15.743479719250004 4.86976456499996 L15.75484853425003 4.893277342000038 L15.757225649249975 4.910950681999941 L15.743789777249972 4.930277667999993 L15.722912498249926 4.937512367999963 L15.677643944250022 4.941594806999964 L15.656146548249993 4.955134032000037 L15.61852610525007 4.9977154120000105 L15.603126528249973 5.006810463999988 L15.585866600249986 5.014406900000045 L15.54318186625001 5.050942136999984 L15.524061587250017 5.06334448099995 L15.485614322249958 5.060140541999976 L15.473315330250003 5.066910154000018 L15.466390689249934 5.088769285999964 L15.467837629250042 5.109594887000005 L15.470731508249983 5.125149494000032 L15.46442698425001 5.136776691 L15.437555239250017 5.145665037000006 L15.36014394424997 5.156155352999965 L15.329861554250002 5.1736219870000095 L15.314565331249995 5.212741045999939 L15.30319651524998 5.267311358999967 L15.304126691250033 5.286018228000037 L15.307847394249976 5.294777381999941 L15.319112857250005 5.310616209000022 L15.32138661925002 5.3207706279999964 L15.32035309124997 5.354179441999966 L15.32138661925002 5.362602699999959 L15.331721906250053 5.384771888999984 L15.343297427249993 5.386012124000009 L15.359317121250015 5.37885493899997 L15.38246816225002 5.376064411000007 L15.392183332249957 5.382601478999993 L15.39642079925001 5.395856483999998 L15.39621409424997 5.411075193000022 L15.393630271250075 5.423658404999946 L15.384948631249998 5.444148110000006 L15.380504458249916 5.461046303000009 L15.380504458249916 5.478177040999958 L15.384741925249969 5.499467731000044 L15.383088280249993 5.518303791000056 L15.370169172249987 5.5305252669999785 L15.314151919250051 5.5521260160000505 L15.260098371249981 5.558843950999977 L15.250279848250003 5.562771361000037 L15.239737857249978 5.570600340000061 L15.23064280424991 5.580082964999951 L15.225268456249992 5.588919634999959 L15.222477928250058 5.599849201000017 L15.223718162249966 5.606748004999991 L15.226922101249968 5.614086057999989 L15.230022687249985 5.6264625629999525 L15.23115956925001 5.657545937 L15.22010081225001 5.726818195000012 L15.201393944250029 5.779373126000001 L15.175555728250018 5.822032020999989 L15.160776268250018 5.839188596999952 L15.125636294249958 5.867403929000011 L15.114267479250046 5.884431313000041 L15.114267479250046 5.9085642079999925 L15.11881500425001 5.929906573999991 L15.119125064249957 5.951429807999949 L15.112717185249963 5.970808470000014 L15.096697492249987 5.985872149999997 L15.07333974525001 5.991401528000003 L15.051738996249995 5.9847869450000015 L14.97246734925001 5.928640500999952 L14.949316307250015 5.917271686999973 L14.925958560249924 5.913886878999952 L14.90683828025 5.918873655000004 L14.758506414249965 5.981381313999952 L14.75594309825 5.982461505999984 L14.734342349249928 5.997370156000022 L14.724523826250064 6.000315713000026 L14.711501366250005 5.996026568999971 L14.701372785250058 5.9865439439999815 L14.692174380249995 5.975562701999996 L14.682045799249991 5.966648516999987 L14.645355532249951 5.955150510999962 L14.605047915250012 5.955770628000016 L14.46076731625 5.978353229000055 L14.442267153250057 5.985872149999997 L14.419322817250034 6.005328326999992 L14.359274803250017 6.081111814999977 L14.200628156250005 6.187565265000009 L14.17592682225002 6.1932496729999595 L14.147608136249929 6.179193683000028 L14.097275291250028 6.119249021999954 L14.07557118924997 6.107260089999988 L14.054487206249988 6.106329913999934 L14.03340322124997 6.112117674000009 L13.994025780249913 6.128447426000042 L13.948653872249977 6.126897134000023 L13.874756574250071 6.069432941000008 L13.827110903250016 6.051940468000046 L13.768819888250007 6.039925698999985 L13.723861392250072 6.03708349500001 L13.709702049249941 6.032665160000013 L13.67683583924999 6.007188677999997 L13.640145571250017 5.989489500999985 L13.601698305249911 5.986027178999953 L13.56252757024994 5.9928484679999965 L13.524287010250035 6.005741738000003 L13.509300845249996 6.005173298000036 L13.506406964250075 5.997266802999993 L13.51229807824997 5.986440590999967 L13.542787172249987 5.963857989000024 L13.558393455249998 5.947554075999994 L13.569555565250042 5.928433795999998 L13.575446678249946 5.906445473000025 L13.574516502250006 5.883811196999977 L13.565214744249957 5.8700394270000285 L13.548264875249984 5.860660153999978 L13.524287010250035 5.85097082299996 L13.50713043524992 5.8484903549999725 L13.458761294249953 5.850299029999965 L13.439227603249961 5.845958208999994 L13.42248443924997 5.840170450000008 L13.406051333249948 5.838103392000042 L13.387551170250006 5.8447696519999734 L13.377732648250017 5.8536321599999805 L13.37163482924997 5.863192299999971 L13.364606835249973 5.871486368000026 L13.352617902249918 5.877041583000027 L13.345899966250002 5.876447304999976 L13.319958397249948 5.868592486999949 L13.021578677250048 5.853167071999954 L12.996980695250002 5.858748125999972 L12.980857648249994 5.870142779000053 L12.967008364250049 5.884172930999972 L12.949645083250019 5.897479612999993 L12.93207509624996 5.903112344000013 L12.870166730249949 5.909080972000032 L12.846292219249918 5.917013303999999 L12.731157127249972 5.971790321999981 L12.71265696425003 5.986285561000008 L12.705215558249975 6.011296955000011 L12.710176496249929 6.020030271999991 L12.732914126250037 6.0208054189999896 L12.739115298250013 6.029409545000027 L12.738495180250041 6.041165932999936 L12.735084536249943 6.051785440000009 L12.703768618249924 6.11454646599997 L12.651162010250019 6.265906735999996 L12.644030662249989 6.277688962999994 L12.63059479024993 6.283580075999998 L12.605169985250043 6.287197426999972 L12.524451398250008 6.286784014999972 L12.461199445249989 6.306782794999995 L12.374176333250048 6.412357745999989 L12.313921613250002 6.427808998999984 L12.28529287024999 6.41938574099999 L12.233203025249978 6.397371580000003 L12.206331281249973 6.3900335270000195 L12.188451235250014 6.388586587000026 L12.17377512825 6.390550290999959 L12.089955956250051 6.423106444000004 L12.066494855250042 6.456334390000029 L12.054299217249948 6.462380531999974 L12.043137108250008 6.43995296099998 L12.039106346249994 6.422899737999947 L12.033525291250001 6.407965248999991 L12.023190005250015 6.39861181400004 L12.005620018250013 6.398198403000029 L11.966139224249972 6.410600747000009 L11.94660553224999 6.41452815599998 L11.925211489249946 6.413287922000029 L11.90288727025002 6.406931720000008 L11.768631899250025 6.347555498999972 L11.748684797250021 6.345591794999953 L11.524512434249985 6.40310766499997 L11.461673892250033 6.405123045000016 L11.43149485625004 6.410290688000023 L11.403796288249978 6.423623208000043 L11.348089093249953 6.471165526000055 L11.338167218249978 6.486668454999977 L11.337340395249967 6.504548501000022 L11.335066633249951 6.5126617009999475 L11.32783193225005 6.51757096199997 L11.322354230249985 6.516434079999959 L11.312225650250028 6.507959144999964 L11.30943512224998 6.506305500000002 L11.296826073250045 6.512816729999974 L11.295895897249991 6.515762286999978 L11.275948794249942 6.523565428000003 L11.271814679249943 6.52346207500006 L11.26054921724996 6.519431313999979 L11.255278221250038 6.519431313999979 L11.244116112249984 6.526149249000005 L11.225512596249942 6.543822589999996 L11.212386782249965 6.548680174000017 L11.198847557250033 6.546923174999952 L11.189959210249995 6.540050209999981 L11.183241275249955 6.532195391999954 L11.175903221249953 6.527699543000017 L11.164534406249984 6.526872719999991 L11.160710350249943 6.529973305000032 L11.157093000249986 6.5375180649999916 L11.147171125249955 6.549713703 L11.10500315625002 6.569454099999964 L11.057460838250009 6.563511309999958 L11.01136546024999 6.5410837380000455 L10.973745018249943 6.51136978999998 L10.931783755250038 6.454215655999965 L10.915247296249973 6.439436196000036 L10.902741600249968 6.43432022999996 L10.851891991249957 6.423106444000004 L10.837422590250029 6.425483559999952 L10.82388336525004 6.4297727040000066 L10.814581606250002 6.426517088000031 L10.81282460725005 6.406104896999983 L10.807656964249944 6.381765296999978 L10.757840884249973 6.309108233999941 L10.736240135250014 6.266630206999983 L10.721460676250004 6.24637304499999 L10.703270572249963 6.23696793399994 L10.644566144250021 6.229216470000017 L10.625652570249954 6.222188475000015 L10.60291493924997 6.20534195799994 L10.581830955249941 6.167256426999989 L10.563227439250014 6.150306557999988 L10.527363996249974 6.13309830500001 L10.51485829924998 6.122246255000055 L10.502869366249982 6.101162271000026 L10.483645734250004 6.042302814000029 L10.471346743250038 6.0260505760000225 L10.453156639249997 6.017033038999974 L10.433829653250044 6.016981361999958 L10.41398590424997 6.019358478000006 L10.393935447250001 6.017549803000014 L10.376572167250018 6.00326127000003 L10.358898826249984 5.960860757000011 L10.351664126250014 5.954065305999967 L10.332647199249962 5.964529783000009 L10.326652732250025 5.962876137999961 L10.324275617249967 5.93497086399997 L10.317454328249951 5.924351356999983 L10.228364159250035 5.847973591000033 L10.20914052625001 5.823633990999928 L10.19808176925001 5.8031959619999665 L10.192810773249974 5.7836622699999705 L10.191673891249948 5.737799436999998 L10.198288475250038 5.6589412009999815 L10.192914126250017 5.639820920999986 L10.175137434249976 5.633051309000029 L10.131212466250034 5.632844602999986 L10.118086652249943 5.628271237999945 L10.106717837249974 5.618659421999942 L10.09772613724995 5.606489623000021 L10.09090484924998 5.594268145999996 L10.085840559249974 5.581839964000016 L10.085427147249973 5.574372719999991 L10.085840559249974 5.566931313999978 L10.079536033249965 5.53083532500006 L10.080466209249963 5.515668292000035 L10.089044497249986 5.503110919000028 L10.125528058249998 5.472234251000037 L10.136173403249998 5.459909422000001 L10.151366274250009 5.43768855599996 L10.17772125524995 5.391128091000004 L10.196374812249942 5.337586417999978 L10.196537572249966 5.338237459999993 L10.201013484249941 5.355245923000018 L10.203292129249988 5.377381339999976 L10.213220515249944 5.418071443999997 L10.214685359249941 5.43776545500001 L10.211104629249988 5.453797356000029 L10.206384577249949 5.467713370999979 L10.20573353624998 5.483826651999982 L10.214685359249941 5.506084139000029 L10.244144994249964 5.547710115999996 L10.262536921249946 5.566346184000031 L10.282881973249985 5.581238762000032 L10.344568171249946 5.607361809000031 L10.380049942249983 5.6307179289999905 L10.420740046249946 5.6479298430000195 L10.437829890249944 5.660625155000025 L10.44987416124998 5.677714999000022 L10.466638484249941 5.712423658000011 L10.478845515249944 5.728536939000014 L10.49284291124998 5.731629387000032 L10.542322077249949 5.73065282399998 L10.554284968249945 5.728536939000014 L10.569503067249983 5.720643059000031 L10.591150202249949 5.718038892000015 L10.718754369249964 5.718974764000029 L10.732019343249945 5.722107901999982 L10.751550593249945 5.735617017000015 L10.762781062249942 5.7387908450000165 L10.767419734249941 5.736064608000026 L10.782800593249945 5.723125155000025 L10.790124812249942 5.718974764000029 L10.79948353624998 5.7155974860000125 L10.80526153124994 5.714620923000018 L10.81112090624994 5.718201651999982 L10.835046687249942 5.7447316 L10.841882624249948 5.7468474860000125 L10.846765437249942 5.7292693610000125 L10.85644968224996 5.717509921000021 L10.858972468249945 5.711528475 L10.858240046249946 5.705302889000029 L10.853357234249941 5.6951710539999905 L10.85213653124994 5.691102042999978 L10.850671687249942 5.6594044520000235 L10.85213653124994 5.650086417999978 L10.864424942249983 5.628195142000015 L10.880456843249945 5.618266756999992 L10.894128718249945 5.62331233000001 L10.901859838249962 5.652324374000022 L10.910974421249946 5.664531405000025 L10.914148249249948 5.670594231000029 L10.914880671249946 5.6772267180000195 L10.913253067249983 5.691386874000022 L10.914148249249948 5.6978566 L10.917566218249945 5.7049366789999905 L10.922042129249988 5.710633292999978 L10.927413223249985 5.71510920500001 L10.934086400249967 5.718974764000029 L10.941247859249941 5.721782381999992 L10.950036921249946 5.723735506999992 L10.972253718249945 5.7251189700000165 L10.982426244249964 5.720927889000029 L10.99471465624994 5.7021290610000275 L11.024743952249949 5.691875155000025 L11.042973119249964 5.681865389000029 L11.059086400249967 5.679912264000029 L11.071863093249945 5.6978566 L11.05957468224996 5.713237459999993 L11.050785619249964 5.727234856000029 L11.045740046249946 5.7426970950000165 L11.04394968224996 5.762716626000019 L11.040206192249983 5.770529126000019 L11.02246530724996 5.788839673000018 L11.016687312249942 5.8002735930000195 L11.04354278124994 5.789165193999997 L11.057458796249946 5.787822421000021 L11.071863093249945 5.7934783450000165 L11.081384577249949 5.804668124000022 L11.084070124249948 5.815451001000019 L11.087406713249962 5.823955233000026 L11.09863718224996 5.828227693999997 L11.107751765249944 5.826152499000022 L11.128503718249945 5.815613762000032 L11.140141088249962 5.814555818999997 L11.153650202249949 5.8193165610000275 L11.194665827249949 5.841818189000014 L11.252283015249944 5.859111483000026 L11.277836400249967 5.873393709999993 L11.290368952249949 5.897156731000029 L11.284509577249949 5.92214045500001 L11.266687312249942 5.9402068610000125 L11.229008275249967 5.964783684000031 L11.229008275249967 5.972189283000011 L11.255456843249945 5.9714568610000125 L11.276208796249946 5.967713370999979 L11.294600723249985 5.958436026999982 L11.314538874249948 5.941142733000026 L11.324548640249944 5.922221834999993 L11.323327937249942 5.902812655000025 L11.318363744249964 5.8846241789999905 L11.317712702249949 5.869161939000014 L11.34440541124998 5.8484099860000125 L11.390710749249948 5.854839021999998 L11.475915827249949 5.8896290610000275 L11.519047338249962 5.917583162999994 L11.595056452249949 5.993877108000026 L11.63346791124998 6.0193898039999905 L11.693038223249985 6.049297030000025 L11.70565215624994 6.0534881110000125 L11.729659317249983 6.0500294520000235 L11.762862442249983 6.032736158000011 L11.78377715624994 6.026225740999996 L11.816247859249941 6.039043124000022 L11.852380671249946 6.068828280000025 L11.891687312249942 6.087505037999994 L11.934656062249942 6.0671599860000125 L11.918054499249948 6.066427564000014 L11.890222468249945 6.0561329680000195 L11.876631973249985 6.0534881110000125 L11.872156062249942 6.047221834999993 L11.862878718249945 6.019471184000031 L11.855798640249944 6.013204908000011 L11.839929499249948 6.010763501000019 L11.812097468249945 6.000916495999979 L11.79744903124994 5.9994923430000195 L11.78573028124994 6.002869620999979 L11.749597468249945 6.0193898039999905 L11.727868952249949 6.020244296000021 L11.709070124249948 6.014669751000019 L11.692712702249949 6.003886874000022 L11.67830840624994 5.988994296000021 L11.660323379249988 5.9758107020000235 L11.616052546249946 5.958110506999992 L11.599450984249941 5.944275870999979 L11.581384577249949 5.896505689000014 L11.562178848249985 5.877869620999979 L11.557947077249949 5.8657439700000165 L11.556726374249948 5.836365714999976 L11.557947077249949 5.828227693999997 L11.571456192249983 5.7934783450000165 L11.579675593249945 5.7568165610000275 L11.588952937249942 5.743877108000026 L11.646570124249948 5.732850089999976 L11.66862416124998 5.731954908000011 L11.68815541124998 5.7387908450000165 L11.701339004249988 5.756694490999996 L11.714441218249945 5.779969231000029 L11.730554499249948 5.793803865999996 L11.753422338249962 5.783549959999993 L11.76619903124994 5.780986483000026 L11.780115046249946 5.790792798000018 L11.796879369249964 5.799500481000029 L11.818526504249988 5.7934783450000165 L11.798425593249945 5.787456209999993 L11.788904109249941 5.7830616789999905 L11.771081843249945 5.7693898039999905 L11.76229278124994 5.7683318610000125 L11.753503718249945 5.768901521999998 L11.733728327249949 5.7635304289999905 L11.72721791124998 5.764018709999993 L11.723962702249949 5.761455233000026 L11.722986140249944 5.749370271999998 L11.71151153124994 5.73301285 L11.709314265249944 5.728536939000014 L11.70565215624994 5.724834139000029 L11.687585749249948 5.7212127200000165 L11.681319473249985 5.718974764000029 L11.677250463249962 5.714214021999998 L11.654138484249941 5.674744620999979 L11.64909291124998 5.661235506999992 L11.64713978624998 5.6463429289999905 L11.651941218249945 5.640564934000031 L11.674320775249967 5.63503108000001 L11.681319473249985 5.628927564000014 L11.679691869249964 5.62323094899998 L11.66463653124994 5.613628084999993 L11.660974421249946 5.605408684000031 L11.664229629249988 5.585307771999998 L11.672693171249946 5.5669158450000165 L11.694991348249985 5.532736158000011 L11.726404109249941 5.467631990999996 L11.755049942249983 5.37518407399998 L11.757003067249983 5.35182795500001 L11.76237416124998 5.3469044520000235 L11.774499812249942 5.348735506999992 L11.794437963249962 5.355245923000018 L11.81893340624994 5.353292798000018 L11.792973119249964 5.331401521999998 L11.791182754249988 5.307475740999996 L11.805017390249944 5.294699048000018 L11.82283965624994 5.2961232020000235 L11.842615046249946 5.303203280000025 L11.879073379249988 5.3104054289999905 L11.887536921249946 5.308696443999997 L11.90104603624998 5.3000294520000235 L11.907556452249949 5.292745923000018 L11.926111140249944 5.2668263270000235 L11.929040827249949 5.2590138270000235 L11.919763484249941 5.250835115999996 L11.907881973249985 5.254619296000021 L11.897953588249962 5.265076651999982 L11.889734187249942 5.2900196860000275 L11.880212702249949 5.292094881999992 L11.86971465624994 5.288025870999979 L11.84237090624994 5.270447745999979 L11.821618952249949 5.267029776999982 L11.750004369249964 5.277568514000029 L11.735844213249962 5.275737459999993 L11.730554499249948 5.264913892000015 L11.729822077249949 5.241964673000018 L11.735925593249945 5.2260548430000195 L11.751143692249983 5.2099415610000275 L11.771081843249945 5.2004200770000235 L11.791182754249988 5.204448396999998 L11.780603327249949 5.185568189000014 L11.761804499249948 5.178650870999979 L11.743982234249941 5.175232901999982 L11.735925593249945 5.167176262000032 L11.737634577249949 5.149109856000029 L11.749597468249945 5.102031405000025 L11.759607234249941 5.031963046000021 L11.77205840624994 5.004741365999996 L11.79744903124994 4.984721834999993 L11.805831192249983 5.001567537999994 L11.81893340624994 5.0096241789999905 L11.852624812249942 5.020122225 L11.864099421249946 5.030009921000021 L11.889164525249967 5.06073094899998 L11.89746530724996 5.067241365999996 L11.903161921249946 5.070252434000031 L11.909509577249949 5.0760304289999905 L11.91658965624994 5.080058749000022 L11.924971817249983 5.077820792999978 L11.956384577249949 5.0564991789999905 L11.965661921249946 5.053569490999996 L11.999353327249949 5.048442537999994 L12.006677546249946 5.050151521999998 L12.024743952249949 5.063497876000019 L12.044519343249945 5.074687655000025 L12.036218562249942 5.056661939000014 L12.01619903124994 5.035991365999996 L11.983565567249983 5.005839999000022 L11.97526478624998 4.993592276999982 L11.963383275249967 4.951600089999976 L11.95565215624994 4.936870271999998 L11.986658015249944 4.9387013270000235 L12.014490046249946 4.945903475 L12.038415827249949 4.946880037999994 L12.058191218249945 4.930115714999976 L12.063643692249983 4.932557120999979 L12.06510853624998 4.93385920500001 L12.066736140249944 4.933330233000026 L12.072351374249948 4.930115714999976 L12.050622859249941 4.921977693999997 L12.012781062249942 4.912822421000021 L11.99666778124994 4.902812655000025 L11.984053848249985 4.8920704680000195 L11.973962702249949 4.881206209999993 L11.968347468249945 4.865703280000025 L11.968754369249964 4.8412892180000195 L11.986413874249948 4.77988785 L11.991378067249983 4.740703280000025 L11.998132624249948 4.726176912999994 L12.008956192249983 4.715190584999993 L12.080896296249946 4.660136874000022 L12.19002715624994 4.592631990999996 L12.220707494249964 4.577739412999994 L12.411706843249945 4.540223137000032 L12.564620254249931 4.534892733000026 L12.848962702250006 4.459819490999996 L13.125818171250003 4.38690282399998 L13.278406062249942 4.3547169520000235 L13.339929499249948 4.330547030000025 L13.351648249249948 4.330791171000021 L13.525476374249948 4.2765919520000235 L13.55892364025 4.259135896999998 L13.61230905724996 4.202169751000019 L13.63338653124994 4.164043124000022 L13.620447077250006 4.1418263270000235 L13.628015437249942 4.133037264000029 L13.654464004249931 4.115174309000031 L13.702478327250006 4.073100740999996 L13.71322051525 4.0673634360000275 L13.717289525249967 4.057882642000015 L13.750655411249923 4.005311026999982 L13.82869903124994 3.936626131999992 L13.847009577250006 3.9090382409999958 L13.85018340624994 3.9012257409999958 L13.852217911249923 3.8930877200000165 L13.85384551525 3.871562655000025 L13.859216609249998 3.8615121989999803 L13.882654109249998 3.843283033000011 L13.887862442249926 3.837016756999992 L13.894698379249931 3.8263559489999803 L13.942549942249926 3.772482251000019 L13.965987442249926 3.7321176679999777 L13.974125463249962 3.7095753499999997 L13.977217911249923 3.6862192310000292 L13.98535593224996 3.6676645429999777 L14.00423614025 3.652080233000026 L14.045577286249923 3.6285206629999944 L14.287927546250003 3.4195362879999944 L14.497888484249998 3.1469939700000165 L14.518884577250006 3.098654126000019 L14.511723119249964 3.059306796000021 L14.533044734249998 3.026103671000021 L14.54329864025 2.9837452719999984 L14.542973119249964 2.9363819909999958 L14.52051218224996 2.8423064700000165 L14.526941218249945 2.8261118090000306 L14.549890437249942 2.8196827719999984 L14.615279849250001 2.8507921939999843 L14.670056867249983 2.8591896139999644 L14.691140851250012 2.87017085599995 L14.72380035724997 2.8955956609999642 L14.74839833824997 2.90500077100001 L14.76018056524994 2.9126747219999967 L14.76782867624992 2.933164426999971 L14.774029849249942 2.9361874979999865 L14.789429425249992 2.9366009089999974 L14.796664126250064 2.9393914370000456 L14.798937889249956 2.9460576969999632 L14.799868065249953 2.9539383530000034 L14.803175357250055 2.9604754209999893 L14.813717348250023 2.9721026179999424 L14.819608462249917 2.9830838600000273 L14.827359927249987 3.011092487000033 L14.827359927249987 3.038971922000007 L14.841002505250017 3.0595133039999975 L14.847823794249976 3.104161741000018 L14.844516502249988 3.113773558000025 L14.83056386525 3.125943357000031 L14.827359927249987 3.131808633000025 L14.829116925250062 3.146768959999994 L14.833767804250058 3.1559156879999843 L14.867874249250022 3.1583186420000313 L14.911592512249982 3.166948606999986 L14.952520246250018 3.159610553999988 L14.97102040924996 3.1606957579999797 L14.983629458250064 3.173899086999972 L15.004403384250011 3.23712520199995 L15.014221906250057 3.2566847320000587 L15.028484602249947 3.2758566879999815 L15.091323143250023 3.3338893209999494 L15.11251048024998 3.348797971999991 L15.120468651250022 3.3564202459999617 L15.125326235250057 3.3666780179999503 L15.132767642249988 3.3914827049999925 L15.137728579249952 3.399389199000032 L15.178863019250016 3.404143431000028 L15.225991925249915 3.3767549219999946 L15.31797597524998 3.289008339999958 L15.325624087250006 3.274358071000057 L15.331205142249999 3.2330686019999515 L15.338233136249997 3.2136124249999707 L15.36107411924992 3.1795318180000063 L15.368308820249993 3.1611608460000067 L15.364898176250065 3.143720049999976 L15.333685611249976 3.156406615000014 L15.333065493250004 3.1358910709999517 L15.338956606250022 3.1266668280000314 L15.345263777249968 3.1205849129999645 L15.369342348249987 3.0973662899999734 L15.380091046249973 3.080338905999957 L15.387532452250028 3.063595741999995 L15.396730858250024 3.0257169170000022 L15.399004621249915 2.997088172999943 L15.391563215249917 2.9922047500000044 L15.376783754249985 2.994633542999969 L15.35714671024995 2.9875021950000242 L15.33926666524998 2.9596227610000394 L15.333272199249976 2.92303584600001 L15.32841461424995 2.806169593999959 L15.32500396924992 2.784000405000034 L15.319216210249934 2.763329832000016 L15.299889224249924 2.726432859999994 L15.292447817249993 2.7078810210000395 L15.293067935249965 2.691370400999963 L15.294292561249918 2.690239232999991 L15.302886457250011 2.682301185999995 L15.339576724249994 2.666927448000015 L15.35652659425007 2.6562562640000262 L15.388772687249926 2.625508786999978 L15.406859438249981 2.6141658109999835 L15.42928701024995 2.60801631500002 L15.447580467250035 2.608998166999987 L15.46597727724999 2.6120987530000175 L15.483547264249992 2.6116853420000066 L15.499463605250028 2.601892658000045 L15.505974836249962 2.586622272000005 L15.506801658249984 2.569904945999971 L15.510005597249986 2.5545312069999877 L15.532800593249945 2.5317595950000165 L15.54354278124994 2.5265919520000235 L15.55306426525 2.520773267000015 L15.561039525249967 2.513652499000022 L15.566898900249967 2.5044158450000165 L15.573734838249962 2.524923658000011 L15.574711400249967 2.563742017000015 L15.58065215624994 2.599956209999993 L15.580878879250022 2.600182932999976 L15.57387766824992 2.679458983000023 L15.577908429250002 2.760797687000027 L15.586590070250011 2.7995808490000567 L15.619249575249981 2.8774572330000208 L15.630928449249964 2.9168605129999374 L15.642917381249973 3.0154074690000012 L15.65087555225007 3.0295926499999606 L15.664104719249977 3.0384551569999783 L15.721052147249921 3.0595649809999994 L15.741929425249978 3.064060830000022 L15.771798403250003 3.0610635970000057 L15.780169985249998 3.064060830000022 L15.795776268249952 3.077160805999986 L15.80621490824997 3.081579140999983 L15.825438540250005 3.080803993999984 L15.834223534250057 3.0840596089999703 L15.852310285249999 3.0961260559999513 L15.875461327249994 3.106228798999984 L15.897372134250034 3.107055621000006 L15.911841535250076 3.091268471000012 L15.909361066249986 3.0705462219999955 L15.894891665249943 3.049152179999984 L15.85975169124994 3.016130938999998 L15.836704002249931 2.9854609759999757 L15.82357818925 2.9461610499999917 L15.81799713324996 2.903967242999931 L15.818513898250004 2.8646156389999415 L15.826575421249927 2.825083169000001 L15.82812571525001 2.8077715639999976 L15.823784894249926 2.784052081999951 L15.758465884249986 2.5952263979999426 L15.733351138250057 2.55959549799997 L15.720432029250063 2.550836342999977 L15.707099510249932 2.544531818000058 L15.697901105249926 2.5352042219999387 L15.697269994249964 2.512309724999943 Z M18.770593562249942 1.5652882409999958 L18.78418405724996 1.5696827719999984 L18.787195124249948 1.5793263270000235 L18.781905411249923 1.588888501000019 L18.770593562249942 1.5932423430000195 L18.76424590624994 1.5942189050000248 L18.746586400249967 1.6005665610000275 L18.740320124249948 1.6010955330000112 L18.73299590624994 1.6005665610000275 L18.72363718224996 1.598003084999993 L18.716638484249998 1.5932830330000112 L18.714929499249948 1.5864064050000248 L18.72103301525 1.5771290610000275 L18.73210072324993 1.5695607020000235 L18.744226374249948 1.5661427330000262 L18.770593562249942 1.5652882409999958 Z M11.962488093249945 5.029725089999976 L11.96354603624998 5.03346858000001 L11.964441218249945 5.042583162999994 L11.96159291124998 5.048605298000018 L11.951990046249946 5.042990064000014 L11.94206166124998 5.038676912999994 L11.932947077249949 5.042949374000022 L11.925460098249985 5.0517384360000275 L11.920984187249942 5.061015780000025 L11.910241999249948 5.047710115999996 L11.893721817249983 5.006938631999992 L11.883142390249944 4.998393709999993 L11.863773900249967 4.9894825770000235 L11.859216609249941 4.968689934000031 L11.866784968249945 4.9245818610000125 L11.868738093249945 4.884054517000015 L11.850102025249967 4.718120271999998 L11.852055150249967 4.668193514000029 L11.866540827249949 4.636333162999994 L11.90104603624998 4.649516756999992 L11.921391088249962 4.681092276999982 L11.932133275249967 4.72292170500001 L11.932947077249949 4.897482251000019 L11.941491999249948 4.9716603110000275 L11.962488093249945 5.029725089999976 Z M4.773767390249944 4.635234530000025 L4.776208796249946 4.684917146999998 L4.773767390249944 4.696717276999982 L4.761885879249988 4.705750481000029 L4.743168432249959 4.711772615999996 L4.723230281249997 4.71307469899998 L4.708581843249945 4.7075408450000165 L4.689538874249948 4.687195792999978 L4.681726374249948 4.6750294520000235 L4.681238093249945 4.66628108000001 L4.681807754249988 4.660747225 L4.676924942249983 4.6437794520000235 L4.678064265249944 4.635234530000025 L4.6827029372499425 4.629741365999996 L4.6953168692499645 4.62323094899998 L4.701745906249997 4.618429517000015 L4.711430150249967 4.602967276999982 L4.711430150249967 4.58815608000001 L4.707361140249944 4.573100740999996 L4.704919734249941 4.556743318999997 L4.707116999249948 4.546245271999998 L4.712976374249948 4.535991365999996 L4.7217654372499425 4.529725089999976 L4.732507624249948 4.531027173000018 L4.737309057249959 4.535503084999993 L4.738855281249997 4.541118318999997 L4.740075984249941 4.5532439700000165 L4.742761531249997 4.560527499000022 L4.755456843249945 4.5799366789999905 L4.7617231192499645 4.592957512000032 L4.773767390249944 4.635234530000025 Z M19.277348119249964 2.9289357020000235 L19.299890437249942 2.935324048000018 L19.31112090624994 2.949443514000029 L19.30721465624994 2.963603671000021 L19.28418405724996 2.9699513270000235 L19.246911921250003 2.9699513270000235 L19.23275176525 2.9837452719999984 L19.225915827250006 2.9842335539999905 L19.220300593249945 2.9809783450000165 L19.220300593249945 2.9777638270000235 L19.21907989025 2.9568898039999905 L19.214359838249962 2.9516000899999764 L19.202315567249926 2.941753084999993 L19.198572077250006 2.9363819909999958 L19.195154109249998 2.925517733000026 L19.198734838249962 2.922791495999979 L19.20915150424993 2.9226287360000125 L19.211755671250003 2.9226287360000125 L19.22624134824993 2.9224659749999997 L19.277348119249964 2.9289357020000235 Z M19.061365046250003 2.771953280000025 L19.074874161249923 2.7551075770000235 L19.10059030724996 2.755636548000018 L19.128910619249964 2.765727693999997 L19.15072051525 2.7781788659999958 L19.15072051525 2.785625155000025 L19.135909317249926 2.7868051679999777 L19.126469213249962 2.793437655000025 L19.122156062249942 2.804790193999997 L19.12337676525 2.8196827719999984 L19.10408965624994 2.802023267000015 L19.099206843249945 2.7992563399999764 L19.09407989025 2.803895012000032 L19.090661921250003 2.812968905000025 L19.08626739025 2.819520012000032 L19.07845489025 2.8162648039999905 L19.06307403124994 2.804464673000018 L19.046716609249998 2.796896314000014 L19.031091609249998 2.792949374000022 L19.017663874249948 2.7917693610000125 L19.013757624249948 2.7900196860000275 L19.004724421250003 2.781352693999997 L19.000004369249964 2.7781788659999958 L18.96582468224996 2.771953280000025 L18.897546687249942 2.750916495999979 L18.897546687249942 2.744609530000025 L18.976404109249998 2.744609530000025 L18.987390437249942 2.7415577719999984 L18.99430775424993 2.734721834999993 L19.000085749249948 2.727641756999992 L19.007409968249945 2.723572745999979 L19.027185359249998 2.727031405000025 L19.036218562249942 2.741395012000032 L19.044275202250006 2.758973137000032 L19.061365046250003 2.771953280000025 Z M15.799646296250003 2.0553598560000292 L15.81087676525 2.105449374000022 L15.810388484249998 2.129619296000021 L15.792810359249998 2.1481332929999777 L15.783044734249998 2.1476857020000235 L15.763350723249928 2.135844881999992 L15.755212702250006 2.1372283450000165 L15.73535593224996 2.1537892180000195 L15.710290827250006 2.1686411060000292 L15.711999812249942 2.153829908000011 L15.740238744249964 2.0760304289999905 L15.74837676525 2.066183423000018 L15.777185359249998 2.039775546000021 L15.792810359249998 2.033427889000029 L15.799646296250003 2.0553598560000292 Z M0.8609255932499451 1.9700733969999984 L0.8696332752499671 1.9855356370000319 L0.8850955152499438 1.9938771080000262 L0.8945356192499645 2.003195142000015 L0.8763064522499491 2.0375375899999764 L0.8719119212499464 2.076274568999997 L0.8677615312499967 2.0941782149999764 L0.8433474682499451 2.140361483000026 L0.8398481192499645 2.1581430590000306 L0.7858116612499799 2.1481332929999777 L0.7460981192499645 2.148540193999997 L0.7447146562499967 2.150737459999993 L0.7438194732499852 2.1531788659999958 L0.7408084062499967 2.154318189000014 L0.7354373122499425 2.1522836840000306 L0.7311241612499799 2.147482251000019 L0.7300662182499451 2.14284358000001 L0.7438194732499852 2.134868318999997 L0.7472374422499826 2.120830233000026 L0.7422732492499478 2.0682993090000306 L0.7442263742499478 2.021505689000014 L0.7420291092499411 2.0123911060000292 L0.7373904372499425 2.004619296000021 L0.7327517652499438 1.9984750899999764 L0.7305544992499478 1.9939177980000178 L0.7327517652499438 1.9842335539999905 L0.7363324942499645 1.9765431240000222 L0.7369835362499799 1.9697071860000275 L0.7305544992499478 1.9626271080000262 L0.7431684322499592 1.9578663659999958 L0.7482140042499879 1.9635629810000292 L0.7522830152499438 1.9723520429999777 L0.7617231192499645 1.9768279550000099 L0.7696983792499879 1.9741017180000195 L0.7755577542499879 1.9678761319999918 L0.7804405672499826 1.9609181240000222 L0.7858116612499799 1.9563201420000151 L0.8048546292499879 1.9517628499999997 L0.8251996822499592 1.9523325120000319 L0.8444054112499799 1.9582325770000235 L0.8609255932499451 1.9700733969999984 Z M0.3373921382499958 1.1790022930000301 L0.35154297624997355 1.1480131090000096 L0.37502231324994284 1.1386885849999882 L0.38807902124996474 1.126597385000002 L0.39088277724995635 1.1435273260000027 L0.3834185012499489 1.1519098810000283 L0.37595930024998836 1.1631040069999923 L0.37606231224994247 1.1752329019999816 L0.3743533272499491 1.181743318999997 L0.3749125312499615 1.1979569639999905 L0.3813336932499425 1.215070989999992 L0.3775283582499611 1.2301498299999931 L0.36805341424998517 1.244296815000018 L0.3566970102499596 1.2490314590000136 L0.3406232262499458 1.234948484999995 L0.33515957324995327 1.2197054429999863 L0.3258109502499593 1.2168072419999927 L0.3183349432499796 1.197020190000023 L0.3373921382499958 1.1790022930000301 Z M0.45171712524997076 1.0565206569999983 L0.46196578824994106 1.0720981400000138 L0.46557716524996806 1.0811129839999918 L0.46737090624999666 1.0892954019999816 L0.4572035132499792 1.094757050000032 L0.44279481124995357 1.0988797799999812 L0.4342622472499471 1.1080932729999855 L0.4216085832499772 1.115900826000006 L0.4167923072499917 1.1302978369999774 L0.4005184722499422 1.1201128429999923 L0.3956864692499522 1.0961385400000037 L0.3764330772499562 1.096725771000001 L0.35840745124995976 1.103292007000027 L0.3428707462499716 1.1223672719999964 L0.3291323882499597 1.1378517149999876 L0.31276474924995057 1.1379816450000018 L0.3000498202499813 1.1506417889999963 L0.28777319324997563 1.1562534329999945 L0.2798351302499924 1.1593486409999851 L0.2665583232499813 1.110766924999984 L0.2732327542499462 1.0933409420000313 L0.27014421924998544 1.0675937680000285 L0.25390778724995755 1.0621990169999886 L0.22793877924995343 1.0568506809999914 L0.20980254624994643 1.0582081629999944 L0.2011762442499645 1.0441293870000319 L0.19710723424994114 1.0266326420000151 L0.1963285872499938 0.9849835629999912 L0.2205441572499609 0.9939383140000242 L0.2398517402499607 0.9855191250000299 L0.2724719312499957 0.9866728090000034 L0.2875786872499617 0.9968409249999919 L0.32202719924994483 1.0009828169999988 L0.33709676824999235 0.9979700090000048 L0.3533493702499442 0.9847739650000218 L0.365392138249959 0.9667877810000274 L0.3750512302499516 0.9661785840000103 L0.3903038482499852 0.9660043870000319 L0.38558379624994643 0.9575408450000165 L0.38387481224994247 0.9499724860000125 L0.3931296232499477 0.9511854019999983 L0.40218535924994114 0.9551808189999971 L0.40999785924994114 0.9770314050000248 L0.4175662182499451 0.991150870999979 L0.4293663482499852 1.0010792569999918 L0.45003692124994643 1.0104786710000209 L0.4486946772499465 1.018777487999989 L0.45589629624994643 1.0230519129999944 L0.4644412182499451 1.0306202719999984 L0.46013096824994193 1.0427566470000098 L0.45171712524997076 1.0565206569999983 Z M18.01986114025 0.6541554289999905 L18.045007624249948 0.6854054289999905 L18.061853327250006 0.7165333580000262 L18.057702937249942 0.7473357670000151 L18.01986114025 0.7776905849999931 L17.994144994249964 0.7850961840000306 L17.96346465624994 0.7859099860000125 L17.932784317249926 0.7814747640000288 L17.907312312249942 0.7729298430000195 L17.898034968249945 0.7658497640000288 L17.894535619249964 0.7573048430000195 L17.89705840624994 0.7485157800000248 L17.906091609249998 0.7411915610000275 L17.916671036249923 0.7377735930000195 L17.96737090624994 0.7355356370000319 L17.983240046250003 0.7314666260000191 L17.994958796250003 0.7222706629999944 L17.999353327250006 0.7056690999999997 L17.99040150424993 0.6968800379999944 L17.954675593249945 0.6950082929999777 L17.951013484249998 0.6814991789999905 L17.962732234249998 0.6694549080000112 L18.00358509824993 0.6640838140000138 L18.01986114025 0.6541554289999905 Z M17.55371530724996 0.06512548100002924 L17.567956843249945 0.07822769399999707 L17.573816218249945 0.10199071499997636 L17.571456192249926 0.12624201700001514 L17.56112090624994 0.1408497640000288 L17.54264759824993 0.12363784999999972 L17.527836400249967 0.13059585800002615 L17.522546687249942 0.1494353760000191 L17.533288874249948 0.16750178300001117 L17.437585749249948 0.19142756400001382 L17.442224421250003 0.20090835800002615 L17.45085072324993 0.20623876200003188 L17.456221817249926 0.21189468600002748 L17.451257624249948 0.22275894399999707 L17.442061661249923 0.22715347499999972 L17.42790150424993 0.22829279800001778 L17.413415827250006 0.22666519399999707 L17.40291778124994 0.22275894399999707 L17.451257624249948 0.13340347499999972 L17.465499161249923 0.12689305900003056 L17.499109187249942 0.11891779800001778 L17.512781062249942 0.11289566299999443 L17.55371530724996 0.06512548100002924 Z M17.722253718249945 0.07814631400001382 L17.797367650249967 0.06504409999999972 L17.821130671250003 0.07196141799997768 L17.83301218224996 0.08848159999999972 L17.83431426525 0.11204117100002087 L17.82454864025 0.18890477699998165 L17.81348093224996 0.21885269399999707 L17.798181452250006 0.2376515219999984 L17.780847468249945 0.22898453000002483 L17.76204864025 0.23643081899999707 L17.703943171250003 0.24774266799997768 L17.691491999249948 0.25319514200001514 L17.68587676525 0.2588917569999918 L17.65918405724996 0.2712615480000178 L17.649988093249945 0.2773650640000138 L17.64315215624994 0.2888396730000178 L17.63900176525 0.30007014200001514 L17.633467911249923 0.31016128799999443 L17.622644343249945 0.3183399990000222 L17.615238744249964 0.2941700770000235 L17.607507624249948 0.21795751200003188 L17.612390437249942 0.20168147000001646 L17.616296687249942 0.19443863199999178 L17.615238744249964 0.15008641799997768 L17.61881947324993 0.14080907399998033 L17.624353327250006 0.13584488199999178 L17.640141088249962 0.13047378799999443 L17.649988093249945 0.12498062400002219 L17.67399525424993 0.10081070200002351 L17.696374812249942 0.0853077719999984 L17.708825984249998 0.08009943900001382 L17.722253718249945 0.07814631400001382 Z M1.8222699942499645 4.374370271999998 L1.8184451242499478 4.3855193610000125 L1.8107140042499879 4.390605624000022 L1.7949262442499645 4.394633943999997 L1.7880903072499592 4.385763501000019 L1.7954959062499967 4.371806796000021 L1.8139692132499619 4.3644825770000235 L1.8222699942499645 4.374370271999998 Z M1.8887576242499478 4.3689991789999905 L1.8875369212499464 4.376079256999992 L1.8890017652499438 4.388896639000029 L1.8863975982499852 4.411805167999978 L1.8725629632499619 4.424663240999996 L1.8533572342499411 4.4321502200000165 L1.8383832752499671 4.4426075770000235 L1.8325239002499671 4.448344881999992 L1.8267459062499967 4.453105624000022 L1.8191775462499464 4.4556691 L1.8174685622499425 4.449321443999997 L1.8191775462499464 4.4387013270000235 L1.8434288482499852 4.3779103110000275 L1.857019343249945 4.356873526999982 L1.874597468249945 4.349712068999997 L1.8872927812499967 4.355815584999993 L1.8887576242499478 4.3689991789999905 Z" fill="black" stroke="black" stroke-width="0.5" vector-effect="non-scaling-stroke"/></svg>