<svg xmlns="http://www.w3.org/2000/svg" viewBox="0 0 1.0897265625000045 7.951733398140023"><path d="M0.48895507775000624 7.8670206705700005 L0.4983951827500164 7.873775227570023 L0.491722004750045 7.873612467569999 L0.48944335975005515 7.871822102570023 L0.48895507775000624 7.8670206705700005 Z M0.5299707027500062 7.856359862569989 L0.527041015750001 7.860266112569989 L0.525087890750001 7.863846842569999 L0.522320963750019 7.8665323885700085 L0.517275390750001 7.867997232570006 L0.5180891927500397 7.862381998570002 L0.521018879750045 7.859696451570003 L0.5299707027500062 7.856359862569989 Z M0.4501367187500023 7.8413859045700045 L0.45282226575000095 7.851477050570041 L0.44972981775003973 7.849930826570003 L0.44916015675005383 7.847733560570007 L0.44972981775003973 7.844966633570025 L0.4501367187500023 7.8413859045700045 Z M0.5658593747500049 7.81078694657002 L0.5531640627500565 7.828039550570041 L0.5526757817500538 7.817785644570038 L0.5558496097500552 7.808508300570041 L0.5607324217500036 7.804602050570041 L0.5658593747500049 7.81078694657002 Z M0.5726139327500164 7.773840331569986 L0.5704980467500036 7.792395019570038 L0.564150390750001 7.785559081569986 L0.562197265750001 7.77758382157002 L0.5648828127500565 7.769608560570007 L0.5731835937500023 7.763098144570038 L0.5742415367500371 7.766027831569986 L0.5736718747500049 7.768387857570006 L0.5726953127500565 7.770747883570025 L0.5726139327500164 7.773840331569986 Z M0.7609277347500552 7.468827310570007 L0.7689029947500217 7.477941894570038 L0.7709374997500049 7.482743326570003 L0.770367838750019 7.489497883570025 L0.7638574217500036 7.483801269570038 L0.7610904947500217 7.478837076570003 L0.7604394527500062 7.4739542635700085 L0.7609277347500552 7.468827310570007 Z M0.4213281247500049 6.95718994056999 L0.4247460937500023 6.9602823885700085 L0.42840820275000624 6.962398274570021 L0.43019856775003973 6.965572102570023 L0.42881510375002563 6.971675618570019 L0.4287337237500424 6.971756998570002 L0.4247460937500023 6.968827310570007 L0.4236881507500243 6.966426594569996 L0.4232812497500049 6.965490722570039 L0.42319986975002166 6.964961750569999 L0.42254882775000624 6.961503092569999 L0.4213281247500049 6.95718994056999 Z M0.534853515750001 6.945227050570041 L0.5433170577500164 6.947465006570028 L0.5432356767500437 6.94750569657002 L0.5385156247500049 6.953120930570024 L0.536806640750001 6.953039550570041 L0.5361555987500424 6.949540201570003 L0.534853515750001 6.945227050570041 Z M0.36265299475002166 6.915279133570025 L0.36265299475002166 6.915523274570021 L0.3662337237500424 6.925736490570032 L0.3662337237500424 6.925858560570007 L0.36200195275000624 6.924271646570035 L0.3616764327500164 6.923132323570017 L0.36126953175005383 6.92203369056999 L0.3616764327500164 6.920528157569991 L0.362164713750019 6.919022623570002 L0.362164713750019 6.918697102570023 L0.36265299475002166 6.915279133570025 Z M0.7050195317500538 6.8999796545700045 L0.7049381507500243 6.900020344569996 L0.6954980467500036 6.905187987569989 L0.696962890750001 6.899247232570006 L0.6995670577500164 6.8982706705700005 L0.7022526037500256 6.899125162570031 L0.7050195317500538 6.8999796545700045 Z M0.3095117187500023 6.879960123570002 L0.3107324217500036 6.8817911775700376 L0.3129296877500565 6.8824015295700045 L0.31358072875002563 6.88297119056999 L0.313987629750045 6.8832967115700265 L0.31187174475002166 6.885575357570006 L0.31187174475002166 6.885656737569989 L0.3070703127500565 6.883133951570003 L0.3068261717500036 6.881587727570023 L0.3095117187500023 6.879960123570002 Z M0.8392968747500049 6.797440592569999 L0.8392154947500217 6.797521972570039 L0.8344954427500397 6.8045206705700005 L0.8344140627500565 6.804642740570032 L0.8322981767500437 6.80016682857 L0.831728515750001 6.799027506570028 L0.8324609377500565 6.797440592569999 L0.835634765750001 6.797766112569989 L0.8392968747500049 6.797440592569999 Z M0.2842024737500424 6.781896972570039 L0.28428385375002563 6.782059732570006 L0.2869694007500243 6.790930175570041 L0.28705078175005383 6.79117431556999 L0.2836328127500565 6.7884073885700085 L0.2830631507500243 6.786047362569989 L0.28387695275000624 6.783850097570039 L0.2842024737500424 6.781896972570039 Z M0.26678710975005515 6.68892008457003 L0.266461588750019 6.697912597570039 L0.26288085975005515 6.693762206569986 L0.26288085975005515 6.69156494056999 L0.26678710975005515 6.68892008457003 Z M0.8178124997500049 6.67720133457003 L0.817893879750045 6.677404784569988 L0.8204980467500036 6.686234537570031 L0.8162662757500243 6.6845255525700376 L0.8156152347500552 6.682613118570019 L0.8168359377500565 6.680253092569999 L0.8178124997500049 6.67720133457003 Z M0.713727213750019 6.5434529615700265 L0.7130761717500036 6.546097818570034 L0.7130761717500036 6.5484171545700045 L0.712587890750001 6.549800618570019 L0.712425129750045 6.549800618570019 L0.710634765750001 6.549637857570006 L0.7094140627500565 6.546301269570038 L0.7101464847500552 6.544877115570032 L0.7122623697500217 6.54438883457003 L0.713727213750019 6.5434529615700265 Z M0.698916015750001 6.42211507157002 L0.6982649737500424 6.4247599275700376 L0.6982649737500424 6.4270792635700085 L0.6976953127500565 6.428625487569989 L0.696800129750045 6.428381347570039 L0.6958235677500397 6.428177896570035 L0.6946842447500217 6.4247599275700376 L0.6956608077500164 6.423539224570036 L0.6957421877500565 6.423498534569988 L0.6966373697500217 6.423254394570038 L0.6974511717500036 6.423050943570034 L0.698916015750001 6.42211507157002 Z M0.6797102867500371 6.3374796545700045 L0.6797102867500371 6.337642414570028 L0.6791406247500049 6.339595539570028 L0.6790592447500217 6.339921060570007 L0.6790592447500217 6.341996256570028 L0.6788964847500552 6.34281005857001 L0.6787337237500424 6.343664550570041 L0.6779199217500036 6.344071451570003 L0.6770247397500384 6.344519042570014 L0.6769433597500552 6.344559732570006 L0.6756412757500243 6.3411417635700085 L0.6762923177500397 6.339514159569988 L0.6781640627500565 6.338578287570031 L0.6797102867500371 6.3374796545700045 Z M0.15724934875004237 3.674637857570006 L0.15741210975005515 3.6748006185700186 L0.15855143275001637 3.6769571935700336 L0.16058593775005647 3.678422037570031 L0.16099283875001902 3.679764810570007 L0.16091145875003576 3.679764810570007 L0.15692382775000624 3.681636555570024 L0.1539127607500177 3.679764810570007 L0.15383137975004502 3.679764810570007 L0.1544824217500036 3.678422037570031 L0.15627278675003708 3.6769571935700336 L0.15724934875004237 3.674637857570006 Z M0.11957031275005647 3.668290201570003 L0.11965169275003973 3.6684529615700265 L0.12062825475004502 3.6698771155700323 L0.12103515675005383 3.6705688475700393 L0.12347656275005647 3.6720743815700283 L0.12469726575000095 3.673254394570038 L0.12225585975005515 3.6743123365700265 L0.1170475257500243 3.6743123365700265 L0.11664062475000492 3.6731730135700085 L0.11664062475000492 3.673091633570025 L0.11859374975000492 3.670975748570002 L0.11957031275005647 3.668290201570003 Z M0.2542545577500164 3.6332967115700265 L0.23765299475002166 3.643469237569989 L0.23749023475005515 3.6435506185700186 L0.24155924475002166 3.6362263995700213 L0.24579101575000095 3.63305257157002 L0.2501855467500036 3.6327270505700406 L0.2542545577500164 3.6332967115700265 Z M0.2677636717500036 3.5663614905700323 L0.2689843747500049 3.5685587565700283 L0.27028645875003576 3.569494628569985 L0.271018879750045 3.570064289570028 L0.27142578175005383 3.5714884435700336 L0.2674381507500243 3.573319498570002 L0.26434570275000624 3.5714884435700336 L0.26483398475005515 3.570064289570028 L0.2665429687500023 3.5685587565700283 L0.2677636717500036 3.5663614905700323 Z M0.01841471375001902 3.458247883570025 L0.01841471375001902 3.4584513345700296 L0.019879557750016374 3.4618693025700376 L0.02232096375001902 3.4641886385700085 L0.023297525750024306 3.4663859045700045 L0.02321614575004105 3.4663859045700045 L0.020449218750002274 3.4702107745700213 L0.018333333750035763 3.4689086905699904 L0.01556640675005383 3.467240396570035 L0.01556640675005383 3.4643513995700213 L0.017438150750024306 3.461625162570031 L0.01841471375001902 3.458247883570025 Z M0.8031640627500565 3.243078612569989 L0.8030013017500437 3.2432006835700102 L0.7958398437500023 3.250077310570007 L0.7933984377500565 3.2515421545700045 L0.7951074217500036 3.2482462565700283 L0.7973860677500397 3.2464965815699864 L0.8031640627500565 3.243078612569989 Z M0.028994140750000952 3.18188069657002 L0.029482421750003596 3.184281412570031 L0.030621744750021662 3.185298664570028 L0.031435546750003596 3.185990396570035 L0.03208658875001902 3.186763508570025 L0.03257486975002166 3.187251789570028 L0.03249348975003841 3.187292480570009 L0.03045898475005515 3.1887980135700085 L0.02533203175005383 3.1870890295700045 L0.025250650750024306 3.1870076495700213 L0.025006510750017696 3.185868326570003 L0.024925129750045016 3.1857055655699904 L0.027041015750000952 3.184281412570031 L0.028994140750000952 3.18188069657002 Z M0.8340071617500371 3.0816202795700045 L0.8341699217500036 3.091792805570024 L0.8341699217500036 3.091874185570007 L0.8304264327500164 3.0886189775700226 L0.8283105467500036 3.0866658525700226 L0.8281477867500371 3.084427896570035 L0.8310774737500424 3.0832071935700336 L0.8340071617500371 3.0816202795700045 Z M0.2963281247500049 2.9192667635700085 L0.2964908857500177 2.9193888345700296 L0.298362629750045 2.921057128569985 L0.3002343747500049 2.921952310570007 L0.30145507775000624 2.9228474935700186 L0.301617838750019 2.9248006185700186 L0.298362629750045 2.9248006185700186 L0.29738606775003973 2.923579914570028 L0.2973046877500565 2.921626789570028 L0.2963281247500049 2.9192667635700085 Z M1.0286686197500217 2.7504842115700265 L1.0267154947500217 2.7529256185700186 L1.023460286750037 2.7537394205700005 L1.0232975257500243 2.7538208005700406 L1.0286686197500217 2.7504842115700265 Z M1.0286686197500217 2.732173664570028 L1.0285058597500552 2.732295735569992 L1.0257389327500164 2.7360392245700362 L1.0258203127500565 2.733557128569985 L1.0286686197500217 2.732173664570028 Z M0.7025781247500049 2.7107706705700005 L0.7031477867500371 2.7199259435700336 L0.6997298177500397 2.7182169595700296 L0.6997298177500397 2.7163859045700045 L0.6997298177500397 2.7163045245700213 L0.7011132817500538 2.714025878569985 L0.7025781247500049 2.7107706705700005 Z M0.7308170577500164 2.550207519570038 L0.7308170577500164 2.5504516595699878 L0.7308170577500164 2.55297444657002 L0.7313867187500023 2.555253092569999 L0.7311425777500062 2.5567993155699904 L0.7288639327500164 2.557775878569985 L0.7270735677500397 2.555375162570031 L0.7277246097500552 2.553869628569985 L0.7294335937500023 2.5524454745700362 L0.7308170577500164 2.550207519570038 Z M0.8163476567500538 2.461828612569989 L0.8162662757500243 2.464595539570028 L0.8168359377500565 2.4669148755699988 L0.8165917967500036 2.4684610995700362 L0.8143131507500243 2.4692342115700265 L0.8138248697500217 2.4686645505700406 L0.8125227867500371 2.4669962565700283 L0.8131738277500062 2.465409342569999 L0.8148828127500565 2.464025878569985 L0.8163476567500538 2.461828612569989 Z M0.30519856775003973 2.289750162570031 L0.30519856775003973 2.289831542570014 L0.295514322750023 2.304479980570009 L0.2953515627500565 2.304683430570024 L0.2959212237500424 2.2948364255700406 L0.29852539075000095 2.2908487955700005 L0.30194335975005515 2.2900349935700186 L0.30519856775003973 2.289750162570031 Z M0.24334960975005515 2.2866170245700213 L0.24872070275000624 2.2861287435700186 L0.24855794275003973 2.286210123570002 L0.24676757775000624 2.28734944657002 L0.24351236975002166 2.2866984045700045 L0.24334960975005515 2.2866170245700213 Z M0.773134765750001 2.2138631185700186 L0.7623925777500062 2.2153279615700265 L0.7648339847500552 2.2106485995700362 L0.7670312497500049 2.2102823885700085 L0.7697167967500036 2.212154133570025 L0.773134765750001 2.2138631185700186 Z M0.23871093775005647 2.1511189775700226 L0.23529296875000227 2.1544148755699988 L0.23504882775000624 2.154618326570003 L0.23602539075000095 2.1525024405699904 L0.23871093775005647 2.1511189775700226 Z M0.25360351575000095 2.14867757157002 L0.2535221357500177 2.1489217115700265 L0.25303385375002563 2.150956217569999 L0.2529524737500424 2.151281737569989 L0.2515690107500177 2.15172932857 L0.2502669267500437 2.152136230570009 L0.2501855467500036 2.1521769205700005 L0.25360351575000095 2.14867757157002 Z M0.370628254750045 2.063391112569989 L0.370628254750045 2.063553873570002 L0.3693261717500036 2.0663614905700323 L0.36712890675005383 2.0668090815699864 L0.370628254750045 2.063391112569989 Z M0.37494140675005383 2.051916503569985 L0.3750227867500371 2.052038573570017 L0.375836588750019 2.0548461905699904 L0.3773014327500164 2.0571248365700265 L0.3773014327500164 2.0585489905700323 L0.3734765627500565 2.05883382157002 L0.3711165367500371 2.0563110345699878 L0.371930338750019 2.05492757157002 L0.37372070275000624 2.0539103185700336 L0.37494140675005383 2.051916503569985 Z M0.41717773475005515 2.0238403315699864 L0.416852213750019 2.0266886385700085 L0.41375976575000095 2.027217610569992 L0.413597004750045 2.0272583005700406 L0.41717773475005515 2.0238403315699864 Z M0.4297102867500371 2.012162271570035 L0.4300358077500164 2.012284342569999 L0.43280273475005515 2.013423664570028 L0.436383463750019 2.014888508570025 L0.43605794275003973 2.0148478185700336 L0.43296549475002166 2.014237467569999 L0.4297102867500371 2.012162271570035 Z M0.18597656275005647 1.947261555570024 L0.18589518275001637 1.9473836255699988 L0.18508137975004502 1.9497029615700265 L0.18272135375002563 1.9506388345700296 L0.18247721375001902 1.9507609045700045 L0.18597656275005647 1.947261555570024 Z M0.45770507775000624 1.9406290685700336 L0.45770507775000624 1.9427042635700085 L0.45428710975005515 1.944047037570031 L0.45770507775000624 1.9406290685700336 Z M0.8256249997500049 1.9383097325700058 L0.8255436197500217 1.938391112569989 L0.8231835937500023 1.940140787570031 L0.823102213750019 1.9401814775700226 L0.8196842447500217 1.9392049145700279 L0.8256249997500049 1.9383097325700058 Z M0.919456379750045 1.9025024405699904 L0.9087141927500397 1.9096232095700296 L0.9035058597500552 1.9106404615700265 L0.896018879750045 1.9085245765700032 L0.8958561197500217 1.90844319657002 L0.9017968747500049 1.9052693685700186 L0.907900390750001 1.9033976235700019 L0.913759765750001 1.90258382157002 L0.919456379750045 1.9025024405699904 Z M0.43866210975005515 1.8866333005700406 L0.4384993487500424 1.8867553705700155 L0.435081379750045 1.890051269570038 L0.435081379750045 1.8885050455700005 L0.43866210975005515 1.8866333005700406 Z M0.7960839847500552 1.8774373365700265 L0.7960026037500256 1.8774780265700182 L0.7902246097500552 1.878332519570038 L0.7900618487500424 1.8783732095700296 L0.7929101567500538 1.8768676755700406 L0.7929915367500371 1.8768676755700406 L0.7942936197500217 1.8771118155699904 L0.7960839847500552 1.8774373365700265 Z M0.9554264327500164 1.8523722325700058 L0.9552636717500036 1.852453612569989 L0.9530664067500538 1.8540812175699992 L0.9491601567500538 1.8533487955700005 L0.9554264327500164 1.8523722325700058 Z M0.9725162757500243 1.8419555655699904 L0.972353515750001 1.8419555655699904 L0.9659244787500256 1.8430135085700252 L0.9657617187500023 1.8430135085700252 L0.9692610677500397 1.8412638345700296 L0.9725162757500243 1.8419555655699904 Z M0.27899414075000095 1.8324340815699864 L0.2782617187500023 1.8351196285699851 L0.2754134117500371 1.8358927405700323 L0.27899414075000095 1.8324340815699864 Z M0.7233300777500062 1.8229939775700226 L0.7234114587500358 1.8231974275700376 L0.7245507817500538 1.825598144570038 L0.7265039067500538 1.827551269570038 L0.7270735677500397 1.8290568025700376 L0.7252832027500062 1.8297485345699878 L0.7220279947500217 1.8280802405700323 L0.7218652347500552 1.8267374675699992 L0.7230045577500164 1.8250284825700058 L0.7233300777500062 1.8229939775700226 Z M0.6491113277500062 1.8169718425699992 L0.6507389327500164 1.8184366855700071 L0.6508203127500565 1.8184366855700071 L0.6537499997500049 1.8181925455700005 L0.653831379750045 1.8181925455700005 L0.654075520750041 1.8181925455700005 L0.655947265750001 1.818355305570024 L0.6547265627500565 1.8209594725700393 L0.6452050777500062 1.822261555570024 L0.6450423177500397 1.822261555570024 L0.6435774737500424 1.8194132485700019 L0.6450423177500397 1.8185587565700283 L0.6478906247500049 1.8183146155700323 L0.6491113277500062 1.8169718425699992 Z M0.676617838750019 1.7575235995700362 L0.670758463750019 1.7583780925699992 L0.6704329427500397 1.7584594725700393 L0.673362629750045 1.7564249675699992 L0.676617838750019 1.7575235995700362 Z M0.8633040367500371 1.733801269570038 L0.8607812497500049 1.7353474935700186 L0.857119140750001 1.7347778315699864 L0.8633040367500371 1.733801269570038 Z M0.6888248697500217 1.7221232095700296 L0.6888248697500217 1.7224080395700279 L0.688987629750045 1.7258260085700252 L0.6867903647500384 1.727250162570031 L0.6865462237500424 1.7273722325700058 L0.6888248697500217 1.7221232095700296 Z M0.2689843747500049 1.7176066075700058 L0.26890299475002166 1.7177286775700376 L0.2674381507500243 1.719641112569989 L0.26694986975002166 1.7216349275700376 L0.26613606775003973 1.7230590815699864 L0.2641015627500565 1.7237101235700019 L0.26288085975005515 1.7196818025700376 L0.2640201827500164 1.7185017895700279 L0.266461588750019 1.7184204095699878 L0.2689843747500049 1.7176066075700058 Z M0.34173828175005383 1.6923380525700376 L0.3401920577500164 1.6942911775700376 L0.3397037757500243 1.6962849935700186 L0.3388899737500424 1.6977498365700265 L0.3369368487500424 1.6983601885699935 L0.3368554687500023 1.6984008785699851 L0.3357975257500243 1.6949829095699878 L0.33563476575000095 1.6942911775700376 L0.336774088750019 1.6930704745700362 L0.33905273475005515 1.6930704745700362 L0.34173828175005383 1.6923380525700376 Z M0.7882714847500552 1.6415974935700186 L0.7851790367500371 1.643469237569989 L0.7823307287500256 1.642574055570024 L0.7821679687500023 1.6425333655700323 L0.7882714847500552 1.6415974935700186 Z M0.3314843747500049 1.4718790685700336 L0.329612629750045 1.4740763345700296 L0.3290429687500023 1.4764770505700406 L0.3281477867500371 1.4781046545700045 L0.3256249997500049 1.4782267245700362 L0.3246484377500565 1.4732218425699992 L0.3260319007500243 1.4720011385700085 L0.32611328175005383 1.4720011385700085 L0.32668294275003973 1.472082519570038 L0.32863606775003973 1.4723673495700362 L0.3314843747500049 1.4718790685700336 Z M0.2752506507500243 0.8354044595700296 L0.2752506507500243 0.8355265295700045 L0.2767968747500049 0.8374796545700045 L0.27704101575000095 0.8376017245700362 L0.278831379750045 0.838578287570031 L0.27923828175005383 0.8389444985700019 L0.27980794275003973 0.8395955395700279 L0.27899414075000095 0.8417114255700406 L0.2743554687500023 0.8407755525700376 L0.2736230467500036 0.839270019570038 L0.2748437497500049 0.8371541335700252 L0.2752506507500243 0.8354044595700296 Z M0.21844726575000095 0.733109537570031 L0.22007486975002166 0.7352661125699891 L0.22202799475002166 0.7363240555700239 L0.22276041675002034 0.737015787570031 L0.22308593775005647 0.7373006185700186 L0.22308593775005647 0.7373819985700019 L0.22219075475004502 0.7394165035699851 L0.21763346375001902 0.7384806315700283 L0.21747070275000624 0.7381958005700406 L0.21673828175005383 0.7369750975700393 L0.21795898475005515 0.7349405925699992 L0.21844726575000095 0.733109537570031 Z M0.423362629750045 7.784908039570028 L0.43084960975005515 7.791743977570023 L0.43744140675005383 7.8023234045700045 L0.442242838750019 7.814774576570003 L0.44452148475005515 7.826493326570003 L0.437034504750045 7.826493326570003 L0.420758463750019 7.789872232570006 L0.4170149737500424 7.771236164570028 L0.43084960975005515 7.764400227570023 L0.43084960975005515 7.771805826570003 L0.424664713750019 7.772375487569989 L0.4236881507500243 7.7752237955700005 L0.42450195275000624 7.77953694657002 L0.42450195275000624 7.779618326570003 L0.423362629750045 7.784908039570028 Z M0.6908593747500049 5.3941202795700045 L0.6910221357500177 5.394160969569996 L0.7016829427500397 5.39664306556999 L0.6963118487500424 5.402665201570003 L0.6941145837500358 5.402258300570041 L0.6940332027500062 5.402258300570041 L0.6928124997500049 5.398514810570007 L0.6908593747500049 5.3941202795700045 Z M0.726097004750045 5.378861490570032 L0.7261783857500177 5.37906494056999 L0.7270735677500397 5.383500162570031 L0.7289453127500565 5.3872029615700265 L0.7279687497500049 5.3896036775700376 L0.7264225257500243 5.3897664385699935 L0.720237629750045 5.3904581705700005 L0.7206445317500538 5.3865519205700005 L0.7206445317500538 5.386429849570036 L0.7210514327500164 5.3858601885699935 L0.7225162757500243 5.383784993570019 L0.7247949217500036 5.381669107570006 L0.726097004750045 5.378861490570032 Z M0.7785058597500552 5.358394368570019 L0.7894921877500565 5.358882649570021 L0.7825748697500217 5.3648234045700045 L0.7799707027500062 5.364660644570038 L0.7792382817500538 5.36148681556999 L0.7785058597500552 5.358394368570019 Z M0.8439355467500036 5.342484537570031 L0.8366927087500358 5.348262532569991 L0.825055338750019 5.357417805570024 L0.825055338750019 5.357499185570007 L0.8246484377500565 5.357092284569988 L0.8244042967500036 5.3567667635700085 L0.823916015750001 5.3564005525700376 L0.8236718747500049 5.3559529615700265 L0.825950520750041 5.353145344569996 L0.8281477867500371 5.350297037570031 L0.8331933597500552 5.346838378569985 L0.8437727867500371 5.342525227570023 L0.8439355467500036 5.342484537570031 Z M0.8623274737500424 5.315100097570039 L0.862164713750019 5.31546630857001 L0.8588281247500049 5.3235636385700085 L0.858258463750019 5.325109862569989 L0.8573632817500538 5.321691894570038 L0.858258463750019 5.319535318570034 L0.858909504750045 5.3188435865700265 L0.860211588750019 5.317622883570025 L0.8623274737500424 5.315100097570039 Z M0.5775781247500049 5.2928019205700005 L0.5695214847500552 5.2964640295700045 L0.569847004750045 5.291092935570007 L0.5714746097500552 5.2903605135700085 L0.5732649737500424 5.291215006570028 L0.5741601567500538 5.291662597570039 L0.5775781247500049 5.2928019205700005 Z M0.8789290367500371 5.252762857570006 L0.874697265750001 5.273840331569986 L0.8715234377500565 5.283646646570035 L0.8670475257500243 5.2923136385700085 L0.866722004750045 5.2928019205700005 L0.8756738277500062 5.260209146570035 L0.8789290367500371 5.252762857570006 Z M0.8759179687500023 5.2088175455700005 L0.8756738277500062 5.219519042570014 L0.8756738277500062 5.2196818025700376 L0.8735579427500397 5.216874185570007 L0.8737207027500062 5.214595539570028 L0.8759179687500023 5.2088175455700005 Z M0.6430891927500397 5.193802896570035 L0.6456933597500552 5.196000162570031 L0.6484602867500371 5.197220865570032 L0.6491113277500062 5.198726399570021 L0.644228515750001 5.2021036775700376 L0.6412988277500062 5.2001505525700376 L0.6416243487500424 5.198400878569985 L0.6430078127500565 5.196366373570002 L0.6430891927500397 5.193802896570035 Z M0.8700585937500023 5.158605956569986 L0.868837890750001 5.1630411775700376 L0.8662337237500424 5.162674967569999 L0.8661523437500023 5.162674967569999 L0.8681054687500023 5.1606404615700265 L0.8700585937500023 5.158605956569986 Z M0.7128320317500538 5.1521769205700005 L0.7128320317500538 5.156571451570003 L0.7120996097500552 5.154862467569999 L0.7128320317500538 5.1521769205700005 Z M0.8815332027500062 5.102697753569985 L0.8773014327500164 5.1126261385700085 L0.8773014327500164 5.112788899570021 L0.8763248697500217 5.109330240570032 L0.8771386717500036 5.107132974570036 L0.8790917967500036 5.1053019205700005 L0.8815332027500062 5.102697753569985 Z M0.8934960937500023 5.075272623570002 L0.9112369787500256 5.075598144570038 L0.9113183597500552 5.075598144570038 L0.9093652347500552 5.077062987569989 L0.9062727867500371 5.0794230135700085 L0.8935774737500424 5.087398274570021 L0.8876367187500023 5.090490722570039 L0.8876367187500023 5.0864217115700265 L0.8888574217500036 5.082840982570006 L0.8934960937500023 5.075272623570002 Z M0.3695703127500565 5.018754068570034 L0.3672102867500371 5.020503743570019 L0.3656640627500565 5.020585123570002 L0.364117838750019 5.020666503569985 L0.3642805987500424 5.020585123570002 L0.3695703127500565 5.018754068570034 Z M0.4297102867500371 4.998612467569999 L0.4297102867500371 4.998693847570039 L0.4287337237500424 5.000809732570006 L0.4287337237500424 5.003088378569985 L0.4281640627500565 5.004227701570003 L0.425315754750045 5.0032511385700085 L0.4247460937500023 5.000565592569999 L0.4256412757500243 4.999670409569988 L0.4275944007500243 4.999507649570021 L0.4297102867500371 4.998612467569999 Z M0.44134765675005383 4.985510253569985 L0.44273111975002166 4.987544758570025 L0.4467187497500049 4.993404133570025 L0.4408593747500049 4.993404133570025 L0.4398014327500164 4.991695149570021 L0.44077799475002166 4.9887654615700265 L0.44134765675005383 4.985510253569985 Z M0.274274088750019 4.91031494056999 L0.27223958375003576 4.912797037570031 L0.27215820275000624 4.912837727570023 L0.2689843747500049 4.912186685570007 L0.274274088750019 4.91031494056999 Z M0.2519759117500371 4.857743326570003 L0.2528710937500023 4.869136555570024 L0.24839518275001637 4.865637206569986 L0.2482324217500036 4.8631144205700005 L0.2501855467500036 4.860754394570038 L0.2519759117500371 4.857743326570003 Z M0.6698632817500538 4.837154133570025 L0.6697819007500243 4.837764485569992 L0.669456379750045 4.841019693570034 L0.6681542967500036 4.84281005857001 L0.6679101567500538 4.8430948885700085 L0.6698632817500538 4.837154133570025 Z M0.6801171877500565 4.748002115570032 L0.687197265750001 4.760493977570023 L0.691184895750041 4.7713175455700005 L0.6920800777500062 4.77367757157002 L0.692893879750045 4.787186685570007 L0.6884993487500424 4.800085448570017 L0.6884179687500023 4.800288899570021 L0.6797102867500371 4.756180826570003 L0.6801171877500565 4.748002115570032 Z M0.6406477867500371 4.679398599570036 L0.6410546877500565 4.691076659569988 L0.6410546877500565 4.691158039570028 L0.6395898437500023 4.690018717569999 L0.6376367187500023 4.6884318025700376 L0.6376367187500023 4.688309732570006 L0.6373925777500062 4.685949706569986 L0.6391015627500565 4.683101399570021 L0.6406477867500371 4.679398599570036 Z M0.47137695275000624 4.631913248570002 L0.4696679687500023 4.634842935570007 L0.4669824217500036 4.634842935570007 L0.4668196617500371 4.634842935570007 L0.47137695275000624 4.631913248570002 Z M0.22593424475002166 4.503006998570002 L0.22845703175005383 4.504227701570003 L0.23114257775000624 4.5043904615700265 L0.2322819007500243 4.505529784569988 L0.2303287757500243 4.509476724570036 L0.22699218775005647 4.509029133570025 L0.2264225257500243 4.5076456705700005 L0.22658528675003708 4.5054484045700045 L0.22593424475002166 4.503006998570002 Z M0.19842773475005515 4.491044107570006 L0.19956705775001637 4.5015421545700045 L0.19956705775001637 4.501623534569988 L0.1932194007500243 4.4985310865700265 L0.19281249975000492 4.49625244056999 L0.19566080775001637 4.4939737955700005 L0.19842773475005515 4.491044107570006 Z M0.34816731775003973 4.44351806556999 L0.35809570275000624 4.440100097570039 L0.35809570275000624 4.440181477570023 L0.3538639327500164 4.446976724570036 L0.35125976575000095 4.447587076570003 L0.348248697750023 4.443558756570028 L0.34816731775003973 4.44351806556999 Z M0.679384765750001 4.406937662570031 L0.678570963750019 4.4095011385700085 L0.679384765750001 4.41157633457003 L0.679384765750001 4.413285318570034 L0.6773502607500177 4.414465331569986 L0.677268879750045 4.414506021570035 L0.6743391927500397 4.409826659569988 L0.6751529947500217 4.4080362955700005 L0.677431640750001 4.40767008457003 L0.679384765750001 4.406937662570031 Z M0.7251204427500397 4.399491373570002 L0.716494140750001 4.409826659569988 L0.7177148437500023 4.403723144570038 L0.720237629750045 4.4008748365700265 L0.7233300777500062 4.399898274570021 L0.7251204427500397 4.399491373570002 Z M0.8744531247500049 4.292476399570021 L0.8746158857500177 4.292598469569996 L0.8759993487500424 4.293859862569989 L0.8768945317500538 4.294592284569988 L0.8749414067500538 4.297074381570028 L0.8749414067500538 4.2964640295700045 L0.8744531247500049 4.292476399570021 Z M0.6862207027500062 4.281327310570007 L0.6868717447500217 4.2836873365700265 L0.6881738277500062 4.285477701570003 L0.6886621097500552 4.286820474570036 L0.6867089847500552 4.287634276570018 L0.6865462237500424 4.287674967569999 L0.683128254750045 4.28539632157002 L0.683128254750045 4.284012857570006 L0.6849999997500049 4.282914224570036 L0.6862207027500062 4.281327310570007 Z M0.3343326827500164 4.23188883457003 L0.3407617187500023 4.237788899570021 L0.3362858077500164 4.239945474570036 L0.3357975257500243 4.239497883570025 L0.3349023437500023 4.2387654615700265 L0.3349023437500023 4.235754394570038 L0.3349023437500023 4.2356730135700085 L0.3343326827500164 4.23188883457003 Z M0.8900781247500049 4.230464680570024 L0.8900781247500049 4.230586750569999 L0.8878808597500552 4.239090982570006 L0.8871484377500565 4.236730956569986 L0.8876367187500023 4.234818521570035 L0.8900781247500049 4.230464680570024 Z M0.911806640750001 4.2235880525700376 L0.9117252607500177 4.22366943357001 L0.9033430987500424 4.234045409569988 L0.9043196617500371 4.2278605135700085 L0.9071679687500023 4.225052896570035 L0.9100162757500243 4.2239542635700085 L0.911806640750001 4.2235880525700376 Z M0.19598632775000624 4.216019693570034 L0.19598632775000624 4.2161417635700085 L0.1935449217500036 4.224320474570036 L0.19094075475004502 4.2270467115700265 L0.19077799475002166 4.224320474570036 L0.19598632775000624 4.216019693570034 Z M0.22748046875000227 4.1013956705700005 L0.2287011717500036 4.1033487955700005 L0.23000325475004502 4.103715006570028 L0.2306542967500036 4.103918456569986 L0.23187499975000492 4.1048136385700085 L0.2303287757500243 4.107824706569986 L0.22577148475005515 4.1083536775700376 L0.22528320275000624 4.1070109045700045 L0.22658528675003708 4.104569498570002 L0.22748046875000227 4.1013956705700005 Z M0.9389062497500049 4.078446451570003 L0.9384179687500023 4.082230631570028 L0.9342675777500062 4.084794107570006 L0.9389062497500049 4.078446451570003 Z M0.3037337237500424 4.075028482570006 L0.30389648475005515 4.0751505525700376 L0.3050358077500164 4.077144368570019 L0.30715169275003973 4.078568521570035 L0.3076399737500424 4.080155435570007 L0.30405924475002166 4.082474771570035 L0.3009667967500036 4.0810099275700376 L0.3012109377500565 4.079504394570038 L0.3027571617500371 4.077551269570038 L0.3037337237500424 4.075028482570006 Z M0.3681054687500023 3.979732258570025 L0.3693261717500036 3.981685383570025 L0.3694075517500437 3.981726073570017 L0.3715234377500565 3.9823364255700406 L0.37274414075000095 3.9831502275700226 L0.3709537757500243 3.9862833655700323 L0.36655924475002166 3.9867309565699864 L0.366070963750019 3.985428873570002 L0.3672102867500371 3.9829060865700265 L0.3681054687500023 3.979732258570025 Z M0.3576074217500036 3.932206217569999 L0.3576888017500437 3.932328287570031 L0.35907226575000095 3.9343221025700226 L0.36102539075000095 3.935868326570003 L0.3615136717500036 3.9374145505700406 L0.3578515627500565 3.9396525065700283 L0.3576074217500036 3.939530435570007 L0.35484049475002166 3.938309732570006 L0.35516601575000095 3.936763508570025 L0.35663085975005515 3.934729003569985 L0.3576074217500036 3.932206217569999 Z M0.15912109375000227 3.8727172845699878 L0.1603417967500036 3.8746704095699878 L0.16253906275005647 3.8751993815700283 L0.16294596375001902 3.875565592569999 L0.16351562475000492 3.876135253569985 L0.1619694007500243 3.879227701570003 L0.15741210975005515 3.879593912570031 L0.15724934875004237 3.879593912570031 L0.15708658875001902 3.8783732095700296 L0.15822591175003708 3.875891112569989 L0.15912109375000227 3.8727172845699878 Z M0.8422265627500565 3.823970539570028 L0.842389322750023 3.8241333005700406 L0.843284504750045 3.824906412570031 L0.8446679687500023 3.8260864255700406 L0.8447493487500424 3.8263305655699904 L0.8449934897500384 3.8286092115700265 L0.8450748697500217 3.828812662570031 L0.8422265627500565 3.823970539570028 Z M1.0734277347500552 3.7340860995700362 L1.0735904947500217 3.7342081705700005 L1.078961588750019 3.7387654615700265 L1.0790429687500023 3.738846842569999 L1.0770898437500023 3.738073730570009 L1.0744042967500036 3.737015787570031 L1.074241536750037 3.73656819657002 L1.0734277347500552 3.7340860995700362 Z M0.831728515750001 3.6839965815699864 L0.8343326827500164 3.688635253569985 L0.8344140627500565 3.688716633570025 L0.8320540367500371 3.687577310570007 L0.8319726567500538 3.687495930570024 L0.831728515750001 3.6839965815699864 Z M0.2782617187500023 3.4513712565700283 L0.2796451827500164 3.453568521570035 L0.2816796877500565 3.455074055570024 L0.2816796877500565 3.4564982095700296 L0.27785481775003973 3.4583292635700085 L0.2748437497500049 3.4566202795700045 L0.2752506507500243 3.455155435570007 L0.27704101575000095 3.453690592569999 L0.2782617187500023 3.4513712565700283 Z M0.2716699217500036 3.4130818685700186 L0.272972004750045 3.4153605135700085 L0.2744368487500424 3.4164184565699864 L0.274925129750045 3.416825357570006 L0.2752506507500243 3.41820882157002 L0.27118164075000095 3.419999185570007 L0.2707747397500384 3.4197550455700005 L0.26825195275000624 3.4182495115700116 L0.26874023475005515 3.416825357570006 L0.2705305987500424 3.4153605135700085 L0.2716699217500036 3.4130818685700186 Z M0.2704492187500023 3.348343912570031 L0.2716699217500036 3.3505411775700376 L0.2724837237500424 3.351192219569996 L0.2736230467500036 3.352128092569999 L0.27394856775003973 3.353511555570024 L0.2699609377500565 3.3553019205700005 L0.2670312497500049 3.353511555570024 L0.26751953175005383 3.352128092569999 L0.26922851575000095 3.3505411775700376 L0.2704492187500023 3.348343912570031 Z M0.7631249997500049 3.338578287570031 L0.7610904947500217 3.340287271570035 L0.759300129750045 3.342484537570031 L0.7581608077500164 3.3434610995700362 L0.757347004750045 3.3415079745700362 L0.7583235677500397 3.3383748365700265 L0.7597884117500371 3.3378051755700406 L0.7615787757500243 3.3383748365700265 L0.7631249997500049 3.338578287570031 Z M0.7693912757500243 3.2646443685700186 L0.769309895750041 3.264725748570002 L0.7689029947500217 3.266434732570006 L0.7643457027500062 3.2685913085700102 L0.7640201827500164 3.2687540685700336 L0.7693912757500243 3.2646443685700186 Z M0.6709212237500424 3.24047444657002 L0.670758463750019 3.2406372065699864 L0.6673404947500217 3.2431599935700186 L0.6673404947500217 3.2421020505700406 L0.6709212237500424 3.24047444657002 Z M0.7484765627500565 3.066849771570035 L0.7483951827500164 3.067012532569991 L0.7472558597500552 3.0688435865700265 L0.744977213750019 3.0694539385699935 L0.7448144527500062 3.069494628569985 L0.7484765627500565 3.066849771570035 Z M0.8720557186541811 2.9421644428880285 L0.8787415398980158 2.9484045427156067 L0.8778500970655045 2.9568732496244623 L0.8751757685679706 2.972919220609663 L0.8640327331615794 3.001891112666275 L0.8524439763389324 3.013925590905175 L0.836749870677437 3.0231158948539507 L0.8127747702921937 3.0210571335652645 L0.8025231777183137 3.016599919402709 L0.7570595932602373 3.000553948417508 L0.7579510360927486 2.995205291422441 L0.8378734230422253 2.998902471035355 L0.8463917660022418 2.9940807862839813 L0.8519982549226768 2.9773764347722187 L0.8591297975827672 2.9541989211269284 L0.8720557186541811 2.9421644428880285 Z M0.271018879750045 2.9189005525700376 L0.28452799475002166 2.922684732570006 L0.2844466147500384 2.922684732570006 L0.2802962237500424 2.923701985569992 L0.2802148437500023 2.9237426755700406 L0.27704101575000095 2.9228474935700186 L0.271018879750045 2.9189005525700376 Z M0.9217350257500243 2.842932128569985 L0.921572265750001 2.843013508570025 L0.9183170577500164 2.8450480135700085 L0.9152246097500552 2.844641112569989 L0.9149804687500023 2.844641112569989 L0.9217350257500243 2.842932128569985 Z M0.9373600257500243 2.8220987955700005 L0.9373600257500243 2.822261555570024 L0.937197265750001 2.824906412570031 L0.9378483077500164 2.8271036775700376 L0.9376855467500036 2.828690592569999 L0.9354069007500243 2.8295857745700213 L0.9335351567500538 2.8271036775700376 L0.9341048177500397 2.8257609045700045 L0.9357324217500036 2.8243774405699904 L0.9373600257500243 2.8220987955700005 Z M0.9638085937500023 2.8146525065700283 L0.963727213750019 2.814774576570003 L0.9629134117500371 2.8171346025700226 L0.9633203127500565 2.819576008570025 L0.9633203127500565 2.819738769570038 L0.9629134117500371 2.821203612569989 L0.9616113277500062 2.8209594725700393 L0.9596582027500062 2.82055257157002 L0.9594954427500397 2.8205118815700283 L0.9575423177500397 2.816727701570003 L0.9588444007500243 2.815669758570025 L0.9612858077500164 2.8156290685700336 L0.9638085937500023 2.8146525065700283 Z M0.993837890750001 2.791703287570031 L0.993675129750045 2.7945109045700045 L0.9943261717500036 2.7967081705700005 L0.9941634117500371 2.7983357745700213 L0.9920475257500243 2.799271646570035 L0.9901757817500538 2.796870930570024 L0.9907454427500397 2.7954060865700265 L0.9923730467500036 2.7939005525700376 L0.993837890750001 2.791703287570031 Z M0.28290039075000095 2.746903482570006 L0.28192382775000624 2.763098144570038 L0.27476236975002166 2.762284342569999 L0.272972004750045 2.7621215815699864 L0.26922851575000095 2.7536173495700362 L0.28290039075000095 2.746903482570006 Z M0.8794173177500397 2.56469319657002 L0.8794173177500397 2.5649373365700265 L0.8793359377500565 2.567541503569985 L0.8799055987500424 2.569738769570038 L0.879742838750019 2.5712849935700186 L0.8774641927500397 2.5722208655700323 L0.8768131507500243 2.571366373570002 L0.8756738277500062 2.5698201495700213 L0.8763248697500217 2.568355305570024 L0.8778710937500023 2.566971842569999 L0.8794173177500397 2.56469319657002 Z M0.9554264327500164 1.7666788735700019 L0.9603906247500049 1.7742472325700058 L0.962587890750001 1.7823038735700019 L0.961774088750019 1.7907267245700362 L0.9583561197500217 1.7989461255699988 L0.9583561197500217 1.7991495765700032 L0.9536360677500397 1.771927896570035 L0.9554264327500164 1.7666788735700019 Z M0.3314843747500049 1.7220011385700085 L0.33140299475002166 1.722082519570038 L0.33001953175005383 1.7237915035699851 L0.3284733077500164 1.7276163735700019 L0.32684570275000624 1.728959146570035 L0.32489257775000624 1.7241984045700045 L0.32489257775000624 1.7241170245700213 L0.32586914075000095 1.7227335605700071 L0.32863606775003973 1.7227335605700071 L0.3314843747500049 1.7220011385700085 Z M0.20982096375001902 1.6911173495700362 L0.20835611975002166 1.6931925455700005 L0.20770507775000624 1.6951456705700005 L0.20697265675005383 1.6967325845700296 L0.20501953175005383 1.6973429355700071 L0.20355468775005647 1.6931111645700279 L0.20461262975004502 1.6920532225700393 L0.20705403675003708 1.6919718425699992 L0.20982096375001902 1.6911173495700362 Z M0.34491210975005515 1.5673787435700186 L0.34483072875002563 1.5675415035699851 L0.3432031247500049 1.5694946285699851 L0.3427148437500023 1.5714477535699851 L0.3419824217500036 1.572953287570031 L0.3400292967500036 1.57360432857 L0.3398665367500371 1.573645019570038 L0.338727213750019 1.5694946285699851 L0.33978515675005383 1.5683146155700323 L0.34230794275003973 1.5683146155700323 L0.34491210975005515 1.5673787435700186 Z M0.34051757775000624 1.5082153315699864 L0.33905273475005515 1.5101684565699864 L0.3383203127500565 1.5122029615700265 L0.3377506507500243 1.513667805570024 L0.33563476575000095 1.514359537570031 L0.3344140627500565 1.5101684565699864 L0.33563476575000095 1.5091105135700085 L0.3379134117500371 1.5089477535699851 L0.34051757775000624 1.5082153315699864 Z M0.7186914067500538 1.44750569657002 L0.718284504750045 1.4484008785699851 L0.706565754750045 1.4706176755700406 L0.7064843747500049 1.4704549145700279 L0.7057519527500062 1.4701700845700296 L0.705670572750023 1.470129394570038 L0.7054264327500164 1.4700480135700085 L0.7084374997500049 1.4630900065700283 L0.7186914067500538 1.44750569657002 Z M0.3126855467500036 1.4144653315699864 L0.31170898475005515 1.4196329745700362 L0.30869791675002034 1.4226440425700142 L0.3086165367500371 1.4226847325700058 L0.3126855467500036 1.4144653315699864 Z M0.7081933597500552 1.3902140295700045 L0.7081933597500552 1.3904581705700005 L0.708518879750045 1.3935099275700376 L0.7101464847500552 1.3959513345700296 L0.7103906247500049 1.3981892895700279 L0.7103906247500049 1.3982706705700005 L0.706565754750045 1.401078287570031 L0.702659504750045 1.397863769570038 L0.7035546877500565 1.3956665035699851 L0.7060774737500424 1.3935099275700376 L0.7081933597500552 1.3902140295700045 Z M0.30243164075000095 1.3715779615700265 L0.30243164075000095 1.3716593425699992 L0.3009667967500036 1.380651855570009 L0.3009667967500036 1.3807739255700406 L0.2982812497500049 1.3781697585700252 L0.29681640675005383 1.3767862955700005 L0.2968977867500371 1.3747517895700279 L0.299664713750019 1.373490396570035 L0.30243164075000095 1.3715779615700265 Z M0.7757389327500164 1.344437662570031 L0.7756575517500437 1.3444783525700226 L0.7596256507500243 1.3543253575700058 L0.759300129750045 1.3544881185700186 L0.7648339847500552 1.3469197585700252 L0.7689843747500049 1.3439493815700283 L0.7724023437500023 1.3437052405700323 L0.7757389327500164 1.344437662570031 Z M0.2894921877500565 1.3208780925699992 L0.28957356775003973 1.3211629225699975 L0.29234049475002166 1.3349161775700376 L0.2885156247500049 1.3317423495700362 L0.28778320275000624 1.3285278315699864 L0.2894921877500565 1.3208780925699992 Z M0.7549055987500424 1.2738403315699864 L0.7549055987500424 1.2740030925699992 L0.7543359377500565 1.2766072585700252 L0.7543359377500565 1.2766886385700085 L0.7543359377500565 1.2790079745700362 L0.7543359377500565 1.2807576495700213 L0.7521386717500036 1.281937662570031 L0.7490462237500424 1.2783162435700186 L0.7499414067500538 1.276770019570038 L0.7524641927500397 1.2757120765700032 L0.7549055987500424 1.2738403315699864 Z M0.25750976575000095 1.2161417635700085 L0.2560449217500036 1.2282674145700279 L0.25165039075000095 1.2219197585700252 L0.2523014327500164 1.2189086905699904 L0.25750976575000095 1.2161417635700085 Z M0.715680338750019 1.2149210605700071 L0.7211913187500159 1.2274018095700265 L0.712587890750001 1.2232218425699992 L0.7103906247500049 1.2204549145700279 L0.715680338750019 1.2149210605700071 Z M0.24155924475002166 1.2038533525700226 L0.2414778647500384 1.2039347325700058 L0.23968749975000492 1.2055623365700265 L0.23928059875004237 1.2078409825700058 L0.23871093775005647 1.2088989255700406 L0.23724609375000227 1.2081258135699935 L0.23569986975002166 1.20727132157002 L0.23553710975005515 1.2030802405700323 L0.23675781275005647 1.2024698885700085 L0.23895507775000624 1.203568521570035 L0.24155924475002166 1.2038533525700226 Z M0.5766015627500565 1.10180257157002 L0.5765201827500164 1.1019246415699948 L0.5748925777500062 1.1056681315700283 L0.5713118487500424 1.1054239905700323 L0.5766015627500565 1.10180257157002 Z M0.5779850257500243 1.0739705395700279 L0.577822265750001 1.0740519205700005 L0.573102213750019 1.0772257485700019 L0.5726953127500565 1.0774698885700085 L0.5747298177500397 1.0750284825700058 L0.5779850257500243 1.0739705395700279 Z M0.5463281247500049 1.0531372065699864 L0.5462467447500217 1.0532185865700265 L0.5448632817500538 1.0559041335700252 L0.5410384117500371 1.056636555570024 L0.5463281247500049 1.0531372065699864 Z M0.5961328127500565 1.0282755525700376 L0.5960514327500164 1.0283976235700019 L0.5946679687500023 1.0307169595700296 L0.5939355467500036 1.0327921545700045 L0.5931217447500217 1.0342569985700019 L0.5911686197500217 1.03454182857 L0.5910058597500552 1.034582519570038 L0.5912499997500049 1.0316528315699864 L0.5924707027500062 1.0303507485700019 L0.5940983077500164 1.0296183265700032 L0.5961328127500565 1.0282755525700376 Z M0.5449446617500371 1.0128540035699851 L0.5447819007500243 1.0129353835700252 L0.539899088750019 1.0164347325700058 L0.5416894527500062 1.0139933265700032 L0.5449446617500371 1.0128540035699851 Z M0.5967024737500424 0.9957641595699878 L0.5967024737500424 0.9958455395700279 L0.5939355467500036 1.0065063475700393 L0.5912499997500049 1.0024373365700265 L0.5918196617500371 1.0001993815700283 L0.5942610677500397 0.9983683265700032 L0.5967024737500424 0.9957641595699878 Z M0.36004882775000624 0.9628458655700323 L0.35988606775003973 0.9629679355700071 L0.355003254750045 0.966223144570038 L0.35484049475002166 0.9663859045700045 L0.356305338750019 0.9641886385700085 L0.36004882775000624 0.9628458655700323 Z M0.5675683597500552 0.9455118815700283 L0.568056640750001 0.9487263995700213 L0.5695214847500552 0.9511678055700239 L0.5697656247500049 0.9535685215700349 L0.566103515750001 0.9562540685700336 L0.562197265750001 0.9530802405700323 L0.5629296877500565 0.9509236645700279 L0.5656152347500552 0.9487263995700213 L0.5675683597500552 0.9455118815700283 Z M0.45428710975005515 0.8983520505700406 L0.452008463750019 0.9012003575700058 L0.44891601575000095 0.9018513995700213 L0.448753254750045 0.9018513995700213 L0.45428710975005515 0.8983520505700406 Z M0.5410384117500371 0.8903767895700279 L0.5410384117500371 0.8905395505700406 L0.5389225257500243 0.8959920245700213 L0.5350162757500243 0.8985148105700071 L0.5346093747500049 0.8987589515700032 L0.5351790367500371 0.8983520505700406 L0.5410384117500371 0.8903767895700279 Z M0.4092024737500424 0.8766235345699878 L0.4091210937500023 0.8767456055700089 L0.4072493487500424 0.879593912570031 L0.4043196617500371 0.8800821935700336 L0.40399414075000095 0.8801228835700252 L0.4092024737500424 0.8766235345699878 Z M0.5228906247500049 0.8577433265700032 L0.522972004750045 0.8579060865700265 L0.5241113277500062 0.8605102535699851 L0.525169270750041 0.8609985345699878 L0.526227213750019 0.8614868155699904 L0.5277734377500565 0.8630330395700279 L0.526878254750045 0.8669392895700279 L0.5209374997500049 0.8655558265700032 L0.5208561197500217 0.8652709955700155 L0.5200423177500397 0.8636027015700032 L0.5218326827500164 0.8609171545700045 L0.5228906247500049 0.8577433265700032 Z M0.45038085975005515 0.8526977535699851 L0.450055338750019 0.852941894570038 L0.4454980467500036 0.8560343425699992 L0.4451725257500243 0.8562784825700058 L0.446800129750045 0.8541625975700393 L0.45038085975005515 0.8526977535699851 Z M0.5131249997500049 0.8344278965700349 L0.5107649737500424 0.8361368815700283 L0.509462890750001 0.8378865555700239 L0.5079980467500036 0.8388631185700186 L0.5060449217500036 0.8380900065700283 L0.5068587237500424 0.835363769570038 L0.5084863277500062 0.8347127275700226 L0.5106835937500023 0.8348754875699891 L0.5131249997500049 0.8344278965700349 Z M0.34637695275000624 0.8162394205700005 L0.3476790367500371 0.8184366855700071 L0.3497949217500036 0.8193318685700186 L0.35077148475005515 0.8203898105700071 L0.3500390627500565 0.8225056965700199 L0.3451562497500049 0.8216105135700085 L0.344586588750019 0.8199829095699878 L0.3457259117500371 0.8180297845699878 L0.34637695275000624 0.8162394205700005 Z M0.01678710975005515 0.7735961905699904 L0.016705728750025628 0.7736368815700283 L0.014671223750042373 0.7754679355700071 L0.013043619750021662 0.7777872715700349 L0.011741536750037085 0.778723144570038 L0.010683593750002274 0.7768107095700296 L0.011741536750037085 0.7735961905699904 L0.013369140750000952 0.7729451495700213 L0.014996744750021662 0.7735961905699904 L0.01678710975005515 0.7735961905699904 Z M0.2287011717500036 0.7450317375699891 L0.2303287757500243 0.7472290035699851 L0.2322819007500243 0.7482869465700199 L0.23277018275001637 0.7487752275700226 L0.23333984375000227 0.7492635085700252 L0.23333984375000227 0.7493448885700085 L0.23244466175003708 0.751379394570038 L0.22788736975002166 0.7504435215700349 L0.22772460975005515 0.7501586905699904 L0.22699218775005647 0.7488566075700058 L0.22805012975004502 0.7469034825700058 L0.2287011717500036 0.7450317375699891 Z M0.3746718057500402 0.7438611585700281 L0.3720930987500424 0.7489379875699891 L0.3691634117500371 0.7513387035700001 L0.3690006507500243 0.7515014645700129 L0.3746718057500402 0.7438611585700281 Z M0.287945963750019 0.6261759435700336 L0.28583007775000624 0.6276814775700226 L0.28485351575000095 0.6297159825700058 L0.28387695275000624 0.6308553055700239 L0.2816796877500565 0.6298787435700186 L0.2826562497500049 0.6251993815700283 L0.2842024737500424 0.6245076495700213 L0.28428385375002563 0.6245483395700129 L0.2860742187500023 0.625687662570031 L0.287945963750019 0.6261759435700336 Z M0.2498600257500243 0.6199503575700058 L0.2514062497500049 0.6221476235700019 L0.2533593747500049 0.6231241855700071 L0.25458007775000624 0.6241007485700019 L0.25360351575000095 0.6262980135700085 L0.24896484375000227 0.6253214515700032 L0.24839518275001637 0.6236938475700393 L0.24937174475002166 0.6218221025700226 L0.2498600257500243 0.6199503575700058 Z M0.3558170577500164 0.6028605135700085 L0.3557356767500437 0.6030232745700213 L0.3553287757500243 0.6055460605700071 L0.35597981775003973 0.6076619465700199 L0.35622395875003576 0.6090860995700362 L0.356305338750019 0.6091267895700279 L0.35402669275003973 0.6100219725700393 L0.35321289075000095 0.6087198885700085 L0.3514225257500243 0.6059529615700265 L0.3519921877500565 0.6044067375699891 L0.35418945275000624 0.6038370765700032 L0.3558170577500164 0.6028605135700085 Z M0.370628254750045 0.5633097325700058 L0.36851236975002166 0.5648559565699864 L0.3673730467500036 0.5668497715700349 L0.36655924475002166 0.5680297845699878 L0.3642805987500424 0.5670532225700393 L0.3652571617500371 0.5623331705700005 L0.36688476575000095 0.5616007485700019 L0.36696614575004105 0.5616414385699935 L0.36883789075000095 0.5626993815700283 L0.370628254750045 0.5633097325700058 Z M0.395367838750019 0.5172485345699878 L0.3876367187500023 0.5242472325700058 L0.3881249997500049 0.5183064775700226 L0.38999674475002166 0.5168009435700336 L0.39251953175005383 0.5170857745700213 L0.395367838750019 0.5172485345699878 Z M0.4318261717500036 0.4752563475700393 L0.42938476575000095 0.47932535757000583 L0.4281640627500565 0.4828653965700349 L0.42629231775003973 0.48542887357000186 L0.42181640675005383 0.48673095656998644 L0.4217350257500243 0.4867716465700349 L0.42254882775000624 0.4790812175699992 L0.42515299475002166 0.47627359957003623 L0.4318261717500036 0.4752563475700393 Z M0.36249023475005515 0.42549234957003623 L0.36249023475005515 0.4255737305700089 L0.36200195275000624 0.4280965165699948 L0.36208333375003576 0.42842203757003094 L0.36265299475002166 0.4301310215700349 L0.3627343747500049 0.43171793557000715 L0.36053710975005515 0.4326131185700186 L0.3597233077500164 0.43135172457003623 L0.3578515627500565 0.4286254875699891 L0.35874674475002166 0.4269571935700336 L0.36069986975002166 0.42646891257003094 L0.36249023475005515 0.42549234957003623 Z M0.2443261717500036 0.42121988857000847 L0.2423730467500036 0.4227661125699891 L0.24123372375004237 0.42475992757003755 L0.24017578175005383 0.4259806315700283 L0.23822265675005383 0.42512613857000847 L0.2381412757500243 0.4250447585700252 L0.23911783875001902 0.42032470656998644 L0.24074544275003973 0.41963297457003623 L0.24261718775005647 0.42073160757000583 L0.2443261717500036 0.42121988857000847 Z M0.4853743487500424 0.39867757157001993 L0.4900944007500243 0.39814859957003623 L0.49139648475005515 0.39949137357000186 L0.49139648475005515 0.3995727535699851 L0.49139648475005515 0.40205484957003623 L0.4923730467500036 0.4048624675699992 L0.4787011717500036 0.4359903965700349 L0.47064453175005383 0.4496622715700349 L0.45770507775000624 0.46003824857000186 L0.45754231775003973 0.4601603185700336 L0.4618554687500023 0.4440063475700393 L0.4783756507500243 0.4169881185700186 L0.4853743487500424 0.39867757157001993 Z M0.507509765750001 0.3546915685700336 L0.523134765750001 0.35709228456998776 L0.515322265750001 0.36238199857000186 L0.5096256507500243 0.36409098257000583 L0.506695963750019 0.3617716465700349 L0.507509765750001 0.3546915685700336 Z M0.32163736975002166 0.34370524057003227 L0.3215559897500384 0.3437459305700239 L0.31952148475005515 0.3452921545700045 L0.31830078175005383 0.34732665956998776 L0.3174055987500424 0.34846598257000583 L0.3153710937500023 0.34761149057003227 L0.315289713750019 0.34757080057004064 L0.31610351575000095 0.3427693685700186 L0.317893879750045 0.34219970656998644 L0.3197656247500049 0.3432169595700296 L0.32163736975002166 0.34370524057003227 Z M0.470237629750045 0.3417928055700239 L0.46812174475002166 0.3433390295700045 L0.4671451827500164 0.3452921545700045 L0.46616861975002166 0.34651285757000583 L0.4638899737500424 0.34553629557000054 L0.4648665367500371 0.34077555257003755 L0.46649414075000095 0.3401652015700032 L0.46844726575000095 0.3412638345700296 L0.470237629750045 0.3417928055700239 Z M0.30194335975005515 0.3323527015700032 L0.30145507775000624 0.33491617757003755 L0.30210611975002166 0.3370727535699851 L0.30210611975002166 0.3371541335700252 L0.3021874997500049 0.3385375975700393 L0.3000716147500384 0.33935139957002125 L0.29999023475005515 0.33935139957002125 L0.29738606775003973 0.33544514957002125 L0.29819986975002166 0.33381754557000054 L0.3002343747500049 0.3332071935700336 L0.30194335975005515 0.3323527015700032 Z M0.4240136717500036 0.3330037435700186 L0.42393229175002034 0.33308512357000186 L0.4218977867500371 0.3346313475700393 L0.4209212237500424 0.3365030925699992 L0.41986328175005383 0.33764241457002786 L0.41864257775000624 0.33723551357000847 L0.41766601575000095 0.33686930257003755 L0.418805338750019 0.33210856057000715 L0.4203515627500565 0.33137613857000847 L0.4222233077500164 0.33243408156998644 L0.4223046877500565 0.3324747715700349 L0.4240136717500036 0.3330037435700186 Z M0.290550129750045 0.3245402015700032 L0.2885156247500049 0.32600504557000054 L0.2872949217500036 0.32787678957002786 L0.28648111975002166 0.32913818357001023 L0.2846093747500049 0.32836507157001993 L0.28436523475005515 0.3282430005699988 L0.2842024737500424 0.32820231057000715 L0.28509765675005383 0.32356363857000847 L0.2869694007500243 0.32274983657002654 L0.28875976575000095 0.32388915956998776 L0.290550129750045 0.3245402015700032 Z M0.4320703127500565 0.2885294595700296 L0.43158203175005383 0.2911743155699904 L0.43215169275003973 0.2932902015700032 L0.43239583375003576 0.29467366457002786 L0.432477213750019 0.29475504557000054 L0.43019856775003973 0.2956502275700226 L0.4275944007500243 0.2916625975700393 L0.4281640627500565 0.28999430257003755 L0.43036132775000624 0.28946533156998644 L0.4320703127500565 0.2885294595700296 Z M0.539899088750019 0.2665974935700186 L0.539899088750019 0.26667887357000186 L0.5389225257500243 0.28059488857000847 L0.5346093747500049 0.2941040035699851 L0.5298079427500397 0.3002482095700296 L0.526878254750045 0.29206949857000186 L0.5277734377500565 0.28295491457002786 L0.530784504750045 0.2734334305700239 L0.5350162757500243 0.26692301357000847 L0.539899088750019 0.2665974935700186 Z M0.2518131507500243 0.22777913357002522 L0.2518131507500243 0.22818603456998776 L0.2521386717500036 0.23140055257003755 L0.25044353575003697 0.23349929357003507 L0.2518131507500243 0.22777913357002522 Z M0.5243554687500023 0.2138631185700186 L0.5205305987500424 0.2339640295700045 L0.5197167967500036 0.23420817057000054 L0.519228515750001 0.23420817057000054 L0.519065754750045 0.23420817057000054 L0.5189029947500217 0.23412678957002786 L0.518414713750019 0.2339640295700045 L0.5177636717500036 0.23355712856998512 L0.5170312497500049 0.22387288357002522 L0.5177636717500036 0.21760660757000583 L0.5199609377500565 0.21431070957002962 L0.5243554687500023 0.2138631185700186 Z M0.21779622375004237 0.19416910757000583 L0.21779622375004237 0.19750569657001993 L0.2164127607500177 0.19974365157001817 L0.21633137975004502 0.19978434256999922 L0.21779622375004237 0.19416910757000583 Z M0.3056054687500023 0.15746663357002522 L0.3056054687500023 0.15767008457002962 L0.30731445275000624 0.17121988857000847 L0.3031640627500565 0.1661743155699904 L0.3030826827500164 0.16259358657002654 L0.3030826827500164 0.16251220656998644 L0.3056054687500023 0.15746663357002522 Z M0.2758203127500565 0.12865803957002786 L0.2758203127500565 0.12878011056999217 L0.2743554687500023 0.1343546545700045 L0.2736230467500036 0.1313028965700349 L0.2758203127500565 0.12865803957002786 Z M0.23871093775005647 0.09248453757003094 L0.23871093775005647 0.09260660757000583 L0.23773437475000492 0.10200602157003491 L0.2322819007500243 0.09618733657002654 L0.23244466175003708 0.09419352157003491 L0.23553710975005515 0.09358317057000054 L0.23871093775005647 0.09248453757003094 Z M0.20965820275000624 0.07795817057000054 L0.21039062475000492 0.079504394570038 L0.21039062475000492 0.08149820957002962 L0.20835611975002166 0.0835734045700045 L0.20965820275000624 0.07795817057000054 Z" fill="black" stroke="black" stroke-width="0.5" vector-effect="non-scaling-stroke"/></svg>