<svg xmlns="http://www.w3.org/2000/svg" viewBox="0 0 0.39121582043999936 0.27986083944001905"><path d="M0.36825602221996157 0.1882906087200027 L0.3833927412199589 0.20831013972000534 L0.387380371219999 0.23272420172001063 L0.38200927722000166 0.2485119627200234 L0.36825602221996157 0.24232706671998727 L0.35271240222000166 0.25636515272001503 L0.34774820921996685 0.264788004719982 L0.34774820921996685 0.27711710572001635 L0.3317163082200043 0.2718680827199833 L0.32732177722000166 0.26967081671998727 L0.29289794922000034 0.26690388972000534 L0.24472086621995892 0.25465616872001107 L0.20175211621995892 0.23536905872001768 L0.1832788082200043 0.21164672771997317 L0.18010498022000299 0.20863566071998463 L0.16594482422000034 0.2024100747200137 L0.16285237621998228 0.1976493327199833 L0.16285237621998228 0.16664347271998992 L0.15845784521997963 0.13136515272001503 L0.15276123022000299 0.115496011720019 L0.1422631832200043 0.10520141572002473 L0.15495849621999902 0.095964761720019 L0.16773518821998756 0.08961710572001635 L0.18173258421996685 0.08591430672002076 L0.19752034521997963 0.08469360271997317 L0.19752034521997963 0.09209920172001063 L0.18840576122000563 0.09348266572002473 L0.18254638622000563 0.09592407172002737 L0.1696069332200043 0.10520141572002473 L0.24870849621999902 0.11260701472000534 L0.2653100582200043 0.1179781087200027 L0.29892008421996685 0.14137491872001107 L0.32805419922000034 0.1497977697199886 L0.33309977221996157 0.15752888972000534 L0.33423909521997963 0.16749796472002032 L0.3341577152199964 0.17750773072001635 L0.3395288082200043 0.17836222271998992 L0.36825602221996157 0.1882906087200027 Z M0.07683349621999902 0.0027437337200026946 L0.10279378221998492 0.010474852719973171 L0.13502034521997963 0.027239175719991238 L0.15447021521999638 0.043962808720017676 L0.1422631832200043 0.051164957719983306 L0.12468505822000431 0.05173461872002605 L0.09782959021999638 0.061663004719981984 L0.08025146521999638 0.0648368327199833 L0.061696777220001664 0.06369750972002208 L0.04110758421996685 0.05914021772000666 L0.021413574220000342 0.05226358972002032 L0.005137532219984919 0.04371866872001107 L0.008229980220002986 0.03293579072002473 L0.00456787121999902 0.02203084272000666 L0.003835449220000342 0.013567300719991238 L0.015716959219966853 0.010230712720023405 L0.07683349621999902 0.0027437337200026946 Z" fill="black" stroke="black" stroke-width="0.5" vector-effect="non-scaling-stroke"/></svg>