<svg xmlns="http://www.w3.org/2000/svg" viewBox="0 0 6.882509765880002 10.237436523479982"><path d="M2.8863232429399943 9.111556803740006 L2.886567382939944 9.111271972739962 L2.8925081379399273 9.113631998739981 L2.900483398939997 9.115463053740006 L2.906342773939997 9.113509928740006 L2.9109000659399555 9.105168457740012 L2.9128531909399555 9.096623535740013 L2.9125276699399194 9.088078613740015 L2.9097607429399943 9.079818522740004 L2.917247721939958 9.092310384739994 L2.9131787109400022 9.109237467739979 L2.9014599609400022 9.119491373739981 L2.8863232429399943 9.111556803740006 Z M6.509858398939997 8.609156087739995 L6.513764648939997 8.613225097739962 L6.517670898939997 8.618758951739983 L6.528413085940002 8.627670084740009 L6.530366210940002 8.631739095739965 L6.5236930339399635 8.631698405739973 L6.513439127939961 8.631576334740009 L6.5080680339399635 8.627425944740002 L6.506928710940002 8.61989827474 L6.509858398939997 8.609156087739995 Z M6.694916992939994 7.612085774740001 L6.702973632939944 7.605738118739998 L6.707124023939997 7.599105631740008 L6.706472981939925 7.592391764739977 L6.700613606939925 7.585718587739995 L6.714122721939958 7.592554524740001 L6.709077148939997 7.606470540739997 L6.694184570939939 7.618596191739959 L6.677338867939994 7.620061035740013 L6.681245117939994 7.616968587739995 L6.685476887939927 7.6150968427399786 L6.694916992939994 7.612085774740001 Z M3.4706331379399273 10.137069498739981 L3.5202750659399555 10.120345865740012 L3.5295524089399635 10.112248535740013 L3.5533154299399996 10.081812337739995 L3.5437125659399555 10.10622639974 L3.526622721939958 10.125025227740002 L3.502045898939997 10.136092936739976 L3.4706331379399273 10.137069498739981 Z M4.37558105494 8.909937337739995 L4.395356445939939 8.898951009739994 L4.402762044939919 8.892603352740002 L4.40878417994 8.88357014974 L4.414887695939939 8.870712076739983 L4.423920898939997 8.84052001973996 L4.4304313159399555 8.79372639974 L4.440766601939941 8.768010253739964 L4.461274414939936 8.749862467739979 L4.485444335940002 8.734847819740002 L4.503836262939927 8.717757975740005 L4.5197867839399635 8.697738444740002 L4.506684570939939 8.734237467739979 L4.450450846939958 8.772079264739977 L4.4377555339399635 8.811019694740002 L4.433035481939925 8.840845540739997 L4.420258789939936 8.881820475740005 L4.400483398939997 8.91209391274001 L4.37558105494 8.909937337739995 Z M6.81503417994 8.656722819740002 L6.79354980494 8.654647623739981 L6.769379882939944 8.659164225740005 L6.747651367939994 8.659042155739973 L6.733653971939958 8.643091634739994 L6.735769856939925 8.644271647740004 L6.742036132939944 8.646713053740006 L6.751720377939961 8.648869628739964 L6.781342773939997 8.649886881740008 L6.81503417994 8.656722819740002 Z M6.541922200939922 7.738754069740002 L6.515555012939927 7.735295410740013 L6.473969726939941 7.704289550739963 L6.445649414939936 7.697779134739994 L6.3991813159399555 7.704777832740012 L6.377859700939922 7.695581868739998 L6.362560221939958 7.6636808267399825 L6.372488606939925 7.676783040739997 L6.383230794939919 7.686141764739977 L6.396414387939927 7.690943196739999 L6.461355794939919 7.688013509739994 L6.474702148939997 7.690943196739999 L6.519298502939961 7.7261808267399825 L6.541922200939922 7.738754069740002 Z M6.178803710940002 7.600936686739976 L6.152111002939961 7.616398925739963 L6.07870605494 7.627181803740006 L6.048432617939994 7.643173014739977 L6.020437825939922 7.643173014739977 L5.987397460940002 7.638412272740004 L5.846121419939919 7.575464681739993 L5.82089355494 7.55577067073998 L5.835541992939994 7.54014567073998 L5.835786132939944 7.549829915739997 L5.837495117939994 7.556014811739976 L5.84237792994 7.567408040739997 L6.011648762939927 7.635116373739981 L6.022716471939958 7.634953613740015 L6.048595377939961 7.630070800739963 L6.070079752939961 7.622543131740008 L6.178803710940002 7.600936686739976 Z M3.543061523939997 7.402938639739977 L3.615327148939997 7.402938639739977 L3.600515950939922 7.4184008787399645 L3.5767529299399996 7.417465006740008 L3.531342773939997 7.4066821287399645 L3.4810498049399996 7.397486165739997 L3.4602978519399414 7.389999186739976 L3.4644482429399943 7.3756762697399605 L3.4792594409399555 7.3891040037399645 L3.5015576179399943 7.395492350740005 L3.523530273939997 7.401799316739959 L3.543061523939997 7.402938639739977 Z M3.3620719409399555 7.306747233739975 L3.3492138679399943 7.298120931739993 L3.3404248049399996 7.280542806739993 L3.3389599609400022 7.261011556739993 L3.347749023939997 7.2465258787399645 L3.351655273939997 7.259872233739975 L3.357758789939936 7.293075358739975 L3.3620719409399555 7.306747233739975 Z M1.6893831379399273 3.5379484057399733 L1.6794547529399608 3.5556892907399966 L1.6604931649399362 3.5659025067400076 L1.6386018879399273 3.5654549157399966 L1.6210237629399273 3.5516202807399733 L1.6570751959399388 3.5485685227400037 L1.6893831379399273 3.5379484057399733 Z M3.8997509769399414 9.072738444740002 L3.9017041019399414 9.06163004573998 L3.9058544929399943 9.063461100740005 L3.8997509769399414 9.072738444740002 Z M6.577485351939941 7.6558683267399825 L6.579682617939994 7.653101399740001 L6.581147460940002 7.650659993739998 L6.583100585940002 7.648951009739994 L6.5861930339399635 7.648177897740004 L6.579682617939994 7.661117350740005 L6.571219075939922 7.672632649740001 L6.56112792994 7.68272379573998 L6.54940917994 7.691350097739962 L6.5554313159399555 7.681991373739981 L6.577485351939941 7.6558683267399825 Z M3.750825195939939 7.136215006740008 L3.752859700939922 7.130233561739976 L3.7533479819399247 7.1263680017399675 L3.747325846939958 7.119165852740002 L3.7365836589399635 7.115178222739962 L3.7237255859400022 7.114486490740012 L3.729340820939939 7.112777506740008 L3.7370719409399555 7.111678873739981 L3.7448844409399555 7.112289225740005 L3.750825195939939 7.115503743739998 L3.7544873049399996 7.12413004573998 L3.7549755859400022 7.126978352740002 L3.7544873049399996 7.132186686739976 L3.7538362629399273 7.139632975740005 L3.750825195939939 7.136215006740008 Z M2.1869417319399247 6.393050944740002 L2.1929638679399943 6.403589681739993 L2.1849072269399414 6.400090332740012 L2.1869417319399247 6.393050944740002 Z M2.516857096939958 5.986271972739962 L2.515961914939936 5.980493977740002 L2.5155550129399273 5.975611165739997 L2.5183219409399555 5.971175944740002 L2.525483398939997 5.967025553740006 L2.5267854819399247 5.973169759739994 L2.525239257939944 5.97764567073998 L2.516857096939958 5.986271972739962 Z M5.6369742839399635 5.813094889739977 L5.629975585940002 5.824366048739966 L5.624360351939941 5.8226977537399645 L5.6237906909399555 5.822494303740006 L5.623139648939997 5.822209472739962 L5.622651367939994 5.821802571739999 L5.622407226939941 5.821273600740005 L5.626557617939994 5.812281087739995 L5.629812825939922 5.810083821739999 L5.63534667994 5.809432780739973 L5.6369742839399635 5.813094889739977 Z M5.025483398939997 5.261092936739976 L5.02401855494 5.244165852740002 L5.029145507939944 5.244491373739981 L5.032319335940002 5.253117675739963 L5.025483398939997 5.261092936739976 Z M5.659923502939961 4.436263834740009 L5.659760742939994 4.4242602537399645 L5.663829752939961 4.4236905927399786 L5.663992512939927 4.435775553740006 L5.659923502939961 4.436263834740009 Z M0.3254508469399582 3.0770922857400134 L0.32805501293992734 3.0778653977400037 L0.33212402393999696 3.0798592127399953 L0.33586751293992734 3.083928222739962 L0.33895996094000225 3.0910489907400116 L0.3254508469399582 3.0770922857400134 Z M0.06747558594000225 3.015080566740016 L0.06747558594000225 3.0024259447400024 L0.07203287793996083 2.9999845377400103 L0.07414876293992734 3.0049080407399966 L0.06747558594000225 3.015080566740016 Z M3.7959912109400022 0.10069254573997988 L3.798920898939997 0.10036702474000059 L3.7925732429399943 0.10809814473996049 L3.782156575939922 0.11778238973997723 L3.7725537109400022 0.124007975740005 L3.783540039939936 0.11184163473999398 L3.7959912109400022 0.10069254573997988 Z" fill="black" stroke="black" stroke-width="0.5" vector-effect="non-scaling-stroke"/></svg>