<svg xmlns="http://www.w3.org/2000/svg" viewBox="0 0 12.504753003359996 12.802037181900007"><path d="M8.521385290680008 0.12551016844999907 L8.719357702679993 0.24193716945003274 L8.917330113679988 0.35826081945003097 L9.115147496680017 0.47468782045006463 L9.313016556679976 0.5910114704500913 L9.510988968679989 0.7074384724501144 L9.708858027680044 0.8237621214500379 L9.906727087680004 0.940189123450061 L10.104647822679972 1.056564448450068 L10.302568558680044 1.1729914504500911 L10.500437617680014 1.2893667754500413 L10.69835835368 1.4057421014500378 L10.896279088679968 1.5221174264500732 L11.063865759680006 1.6207160604500572 L11.231504105679967 1.7193146934500518 L11.399142451680014 1.8179650014500552 L11.542245757679929 1.9020448114500184 L11.56678079868005 1.916460282450025 L11.687807002680024 1.9876704054500678 L11.861439814680018 2.0947439734500435 L12.035020950679986 2.2017658644500315 L12.208576248679925 2.3088394324500356 L12.382157385679996 2.4158613234500237 L12.160698034680031 2.416016353450054 L11.939316198679968 2.4161197064500683 L11.717831009680005 2.416223058450008 L11.496449173679942 2.4163264114500222 L11.275015661679966 2.416481440450063 L11.05358214868 2.4165847944500953 L10.832096960680026 2.416688146450035 L10.610663447679975 2.4167914994500492 L10.620378617679997 2.4965023964501185 L10.629990433680014 2.5760582634500437 L10.63960225068002 2.6556916454500694 L10.649317419679967 2.735376704450111 L10.658980911679983 2.814932572450026 L10.668592728680018 2.89456595445008 L10.678256221679938 2.9741993364501056 L10.687919713679953 3.053858556450045 L10.697432544679948 3.134959064450065 L10.698099970680012 3.140649124450043 L10.70533467168 3.202557491450044 L10.721199336680009 3.3386215364500273 L10.737167354680032 3.4746855824500003 L10.744350377679986 3.5365164344500997 L10.758458043680015 3.6572067424500787 L10.77256570967996 3.777897049449983 L10.786725052680005 3.898587356450058 L10.800832718679949 4.019251826450066 L10.814992060679977 4.139967972450044 L10.829048050680008 4.260632442450053 L10.832136303679995 4.286944583450115 L10.843207393679968 4.381271072450026 L10.857315059679998 4.501961380450005 L10.871474401680025 4.622625849450081 L10.88558206767997 4.743264481450062 L10.899638056679983 4.8639289504500525 L10.913797399679943 4.984645096450059 L10.927905065679973 5.1053095654500495 L10.94206440768 5.2259740354500295 L10.95617207368003 5.346690181450121 L10.970279739679974 5.4673546504500266 L10.984387406680021 5.588070796450033 L10.998546748680049 5.708683589450082 L11.012654414679993 5.829348058450073 L11.026762080679937 5.950064204450079 L11.040869746679967 6.07072867345007 L11.055029089680012 6.19139314345005 L11.069136755679956 6.31205761245004 L11.083244420679968 6.43272208245002 L11.090065710679944 6.491374832450042 L11.105155228680026 6.620204178450045 L11.120193069680006 6.749033524450049 L11.127014359679954 6.807582922450074 L11.13967508567999 6.915483312449986 L11.154092809680016 7.040436926450035 L11.168407181680017 7.165442215450092 L11.182824905680015 7.290395828450038 L11.197190954680032 7.415401118450113 L11.211608679679962 7.540328894450049 L11.22592305068003 7.665308345450107 L11.240237422680032 7.790313634450079 L11.254655147679962 7.915293086450042 L11.254655147679962 7.915396439450056 L11.26974466467994 8.052984939450049 L11.27620421967999 8.111379308450118 L11.282560420679921 8.169696162450059 L11.288968297679965 8.228038854450112 L11.295376175679998 8.286355708450053 L11.305556432679971 8.379140742450055 L11.31573668968003 8.471874100450059 L11.32596862368002 8.564607457450073 L11.336097203679977 8.657340815450048 L11.346225785680026 8.750125849450079 L11.35640604268 8.842859207450054 L11.366689652679987 8.935592565450058 L11.37681823268003 9.02837759945006 L11.386998489680003 9.121033442450049 L11.397230423679993 9.213844315450068 L11.407410680679966 9.306551834450055 L11.417590937680025 9.399259354450031 L11.427409460679975 9.489486405450059 L11.437383011680005 9.57966177945007 L11.44730488667998 9.66988883045007 L11.45712340867997 9.76016755745001 L11.46709695967997 9.850342931450022 L11.476967158679948 9.940569982450022 L11.486837357680038 10.030745357450023 L11.496810908679954 10.120972407450033 L11.506732783680043 10.21119945845006 L11.516602981680002 10.30142650945006 L11.526473180680007 10.391601883450072 L11.536446732679998 10.481828934450071 L11.546316931680003 10.57210766245003 L11.556187129679962 10.662283036450013 L11.566160680679992 10.75256176345004 L11.576082555679967 10.84278881345005 L11.580423376679967 10.883096430450102 L11.58920836968003 10.89906444845004 L11.597890009679993 10.915032466450093 L11.63726745168001 10.94143912245007 L11.674061071680008 10.965933752450034 L11.718399449679943 10.995492671450044 L11.757828568679976 11.02189932845004 L11.798807978679982 11.049236161450061 L11.838857214679969 11.076004552450023 L11.843663121679988 11.081017167450078 L11.848469030679986 11.086133133450083 L11.84950255967997 11.092541011450116 L11.850484411680021 11.098948888450046 L11.844851680680001 11.128559484450015 L11.826558223680031 11.223127355450082 L11.808316442679974 11.317746902450004 L11.789971308679988 11.412366450450115 L11.771781204679947 11.506985997450037 L11.752970983680036 11.604086014450012 L11.734212438679954 11.701134354450083 L11.715402217680015 11.798260209450056 L11.69669534867996 11.89538606245005 L11.695713496679993 11.900269485450075 L11.695009132679964 11.904026091450042 L11.694783320680024 11.905230423450028 L11.69385314467997 11.910113846450052 L11.692819616680005 11.915023107450075 L11.692819616680005 11.915255651450046 L11.692819616680005 11.915488195450017 L11.692819616680005 11.915643224450058 L11.692819616680005 11.915849930450115 L11.692819616680005 11.916108312450085 L11.692819616680005 11.91626334245003 L11.692819616680005 11.916418370450081 L11.692819616680005 11.916625077450043 L11.692819616680005 11.916728430450057 L11.692664586679946 11.91688345845008 L11.692509557680019 11.91693513545001 L11.692457881679992 11.917038488450054 L11.692406204679976 11.917193518450084 L11.692251175680049 11.917245194450082 L11.69214782367991 11.917400223450038 L11.692044469679992 11.917503576450052 L11.69183776368002 11.917503576450052 L11.691579382679954 11.917503576450052 L11.691476029680025 11.917503576450052 L11.69121764767997 11.917503576450052 L11.691010941679998 11.917503576450052 L11.690804235679941 11.917503576450052 L11.690649206680014 11.917503576450052 L11.690390823679941 11.917503576450052 L11.690029088680042 11.917400223450038 L11.68971903067996 11.917296870450109 L11.689408971679974 11.917193518450084 L11.689098913679977 11.917090164450052 L11.688788854679991 11.917012650450026 L11.688478795680005 11.91688345845008 L11.688168737680037 11.916780106450055 L11.687807002680024 11.91667675345004 L11.530607295679921 11.916625077450043 L11.39645527667998 11.916573400450027 L11.333513382679975 11.916573400450027 L11.26555887368 11.916573400450027 L11.19295348767998 11.916547562449999 L11.115955602679954 11.916470047450069 L10.982165319680014 11.916418370450081 L10.883625638680009 11.916382796450044 L10.839021602679999 11.916366694450055 L10.687764684680026 11.916315018450057 L10.529841507680011 11.91626334245003 L10.366595658679962 11.916185826450025 L10.199267370679998 11.916108312450085 L10.029251907679999 11.916108312450085 L9.857892858680039 11.91600495945007 L9.686533809679965 11.915953283450044 L9.516570022679993 11.915901606450028 L9.349241735680017 11.915849930450115 L9.185944209679953 11.915798254450088 L9.02796935667994 11.915720739449988 L8.87676411468005 11.915643224450058 L8.733568721679951 11.915643224450058 L8.59983011468001 11.915539871450044 L8.514460647680018 11.915488195450017 L8.434517206680006 11.915488195450017 L8.360361526680045 11.915488195450017 L8.292613724679946 11.915488195450017 L8.200554864679965 11.915399635450079 L8.185178421679957 11.915384843450077 L8.062391794679975 11.915344492450025 L8.027927037680008 11.915333166450061 L7.854552607680013 11.915281489450074 L7.860805456680005 11.823995072450053 L7.874448034680007 11.755678828450009 L7.871347447679973 11.72335521945012 L7.847317907679958 11.713071609450019 L7.827835892679964 11.725008866450075 L7.766754349679964 11.79603812145006 L7.752078243679968 11.822599808450086 L7.751923213680023 11.851719478450086 L7.767891231679961 11.915023107450075 L7.779880163679941 11.97039440445004 L7.531652420679968 11.980264603450017 L7.482947382680045 11.990005610450062 L7.46305195668004 11.99832551645003 L7.406414586679951 12.030623286450101 L7.368174027679977 12.039821691450008 L7.252367142679994 12.02971894845006 L7.13614684568001 12.046177893450029 L7.095477493679972 12.045041011450017 L7.072171422680022 12.03829723645 L7.035791214679968 12.015740474450062 L7.015379024679994 12.00620617245007 L7.007679235680008 12.005637731450015 L6.989282425680024 12.008945023450018 L6.980549108679959 12.008893346450087 L6.895024612680011 11.975717077450092 L6.881123652679925 11.97383088745007 L6.833012894679946 11.977422399450056 L6.805366002679939 11.972228918450035 L6.703356725680017 11.97057527245007 L6.6882672076800205 11.973184931450014 L6.668785192679941 11.969231684450016 L6.652248734680036 11.971763830450008 L6.619024235679952 11.982798767450099 L6.6163852896799895 11.983675247450044 L6.596644893680015 11.98649161345002 L6.554890335679978 11.986052363449993 L6.494583939679991 11.977060664450043 L6.478409216680014 11.977861649450055 L6.467402135680011 11.988300289450002 L6.463629755679996 12.00734305344998 L6.464869991680025 12.04876171445003 L6.4569634966799825 12.069794022450047 L6.449263708679986 12.077287104449987 L6.43308898567998 12.086252966450026 L6.42203022767999 12.10250520345003 L6.4136586466800125 12.104081334450065 L6.403581742679968 12.104081334450065 L6.3927296916800245 12.107802037449979 L6.3765549686800185 12.123227453450063 L6.3693719436799725 12.139531367449997 L6.359708451680042 12.176376664450096 L6.3484429886799845 12.19327485745 L6.321519567679992 12.218079544450042 L6.312889603679942 12.234176753450107 L6.2975417036799755 12.291150019450079 L6.288601680680024 12.308022375450072 L6.255735469679998 12.258929764450038 L6.218580114680016 12.223428055449993 L6.191036575680023 12.171338211450042 L6.158377070679968 12.140719925450107 L5.905575963679958 11.959878250450082 L5.886869095679977 11.93925935445008 L5.7942132526800165 11.808724686450027 L5.768943477679933 11.78753734945004 L5.745534053679968 11.77797720945005 L5.688379919679967 11.766505041450039 L5.67938821968 11.767461055450092 L5.676442662679996 11.768365392450043 L5.678147985679978 11.772577022450086 L5.6807834836799955 11.775677607450028 L5.684194128679998 11.778183914450004 L5.688379919679967 11.780664383449981 L5.690653681679983 11.785651159450047 L5.6914288286799675 11.790741287450025 L5.690653681679983 11.795883093450037 L5.688379919679967 11.800844030450058 L5.679491572680043 11.81063671445002 L5.667812699680049 11.816011063450098 L5.641199336680025 11.823685013449982 L5.624559524680002 11.832960933450089 L5.58890278768002 11.869754552450097 L5.559653925679989 11.884482336450098 L5.532937210680025 11.882518631450061 L5.506220495679948 11.874121211449982 L5.502030512679944 11.873501152450011 L5.476713252680021 11.869754552450097 L5.476713252680021 11.903938513450065 L5.474336136680002 11.914868078450063 L5.448911331679973 11.941843175450082 L5.43609557668001 11.973727534450056 L5.420282588680017 12.045041011450017 L5.386847936679921 12.114830032449994 L5.382713822679996 12.130823889450035 L5.376977737680029 12.178366206450043 L5.358115840680007 12.231851313449987 L5.355583695680032 12.252780269450064 L5.356462194679956 12.262185380450028 L5.359562779680012 12.27608634045 L5.358632604679947 12.286369950450002 L5.34700540667999 12.32667756745004 L5.3446282906799425 12.356856603450048 L5.34287129267998 12.361920893450026 L5.352741491680042 12.36897472745003 L5.359304398680031 12.366597611450082 L5.3645753946799815 12.361920893450026 L5.370931595679998 12.361920893450026 L5.382610468679964 12.371170975450035 L5.390000198679992 12.382384760450073 L5.392687373679998 12.396621617450045 L5.390568639679948 12.414837560450088 L5.390568639679948 12.414992590450034 L5.38317890967992 12.430650548449997 L5.377959590680014 12.44845308045003 L5.372843623680019 12.484497391450027 L5.3736704466800305 12.490595210450074 L5.376409296679988 12.49534944245007 L5.383333939679979 12.504522009450064 L5.383385615679977 12.510955724450106 L5.377701208680044 12.514366369450038 L5.370673213679943 12.516226720450042 L5.3666941276800415 12.517828690449981 L5.363283483679915 12.522427892450033 L5.3581675166799485 12.527698888450054 L5.352948197680014 12.534442663450001 L5.349072464680042 12.54361522944999 L5.3411659706800165 12.556844396450082 L5.326283158680049 12.569401769450089 L5.30804137768002 12.578858556450065 L5.267785436679965 12.587307653450061 L5.253471064679992 12.599374100450042 L5.229803258679944 12.631077591450044 L5.2122849486799865 12.642885656450055 L5.192699580679978 12.648182490450004 L5.172700800679941 12.648104976450078 L5.154097285679974 12.643712479449995 L5.146707555679974 12.648983475450017 L5.1414365596799385 12.664667272450068 L5.133375035679968 12.676527013450006 L5.122316279680042 12.670894282450071 L5.080096634679968 12.634281530450018 L5.064903763680043 12.626400874450077 L5.043561397680044 12.629914872450037 L5.000514929680044 12.64474600745006 L4.978991694679998 12.647484858450106 L4.956977534679943 12.643919185450038 L4.939640091679998 12.635986852450081 L4.8841912796799605 12.593741369450093 L4.8212752236799545 12.564905920450066 L4.803679398679982 12.550539872450067 L4.7699346876800135 12.511498327450063 L4.75613708067997 12.503488480449995 L4.755568639679986 12.492713943450049 L4.732262569679968 12.412925532450068 L4.727508337679986 12.403184524450033 L4.718878372680031 12.393650223450045 L4.7082071896800315 12.387914139450082 L4.684797766679971 12.382643143450046 L4.67417825867998 12.376571162449999 L4.656711624680021 12.363755407450107 L4.601624547679968 12.332155269450034 L4.588705440679952 12.316316442450024 L4.580824783680022 12.308668330450054 L4.5714971886799916 12.305490230450083 L4.556123449680008 12.307763992450013 L4.524497473680022 12.31714326545005 L4.514185046680019 12.318447413450038 L4.51346455468002 12.31853852945003 L4.486722000679954 12.307505611450033 L4.457131486679977 12.279789977450015 L4.449204911679949 12.272365637449987 L4.424012650680005 12.264536657450058 L4.422849930680009 12.261849483450028 L4.419775182680048 12.252780269450064 L4.419103389679982 12.244899613450023 L4.424503576680031 12.219526484450036 L4.424296870680003 12.21130993245 L4.421790563679998 12.203635982450102 L4.41654540667998 12.196763016450042 L4.407450353679998 12.190639359449982 L4.397373449679982 12.187848831450019 L4.386805619679997 12.187848831450019 L4.3654374146800095 12.192163813450087 L4.355877273680001 12.191982946450047 L4.3469889276799805 12.188934037450018 L4.338281449680018 12.182241939450002 L4.315414627679992 12.160046911449975 L4.309394322679971 12.147567053449983 L4.319574580679934 12.140099808450053 L4.353732701680009 12.143536290449994 L4.3703208366800155 12.140926631450064 L4.375721024679997 12.127051509450006 L4.369235631679949 12.110695918450055 L4.356497391679973 12.097647619450107 L4.296940303679982 12.058244339450006 L4.28479634168 12.045557775450057 L4.276553950679961 12.030184036450073 L4.272755733680022 12.013880122450054 L4.272600703679963 11.980393794450059 L4.270714514680044 11.972642329450046 L4.266218663680043 11.965149246450004 L4.2561675976799975 11.952307653450013 L4.252860306679999 11.945512202450082 L4.248829544680014 11.917865311450065 L4.245754796679968 11.909183670449998 L4.239450272679967 11.901768102450085 L4.223585607680043 11.894636754450055 L4.2079276486800055 11.89670381245002 L4.1932257036799925 11.904636145450063 L4.179996536680001 11.914971430450088 L4.1648811806800055 11.924040645450042 L4.150540970680005 11.925823481450031 L4.11992548968005 11.918175900450017 L4.11418660067995 11.913886226449982 L4.1106726026799905 11.904713659450088 L4.108812251679986 11.89621288645008 L4.108683060679944 11.887505407450014 L4.114315791680049 11.84988496445009 L4.111964513679943 11.835803137450078 L4.104755651679973 11.82404674845008 L4.094058629679957 11.814512446450088 L4.08155293367998 11.807432776450064 L4.058531083680016 11.801386632450026 L4.051218867680014 11.798518590450037 L4.032718704679986 11.785573644450032 L4.025535681680033 11.782731440450043 L4.010962926679987 11.781956294450048 L3.9809647586799386 11.787072261450042 L3.9659269166799405 11.787485672450053 L3.9564701296799925 11.76262930844998 L3.9550231886799807 11.754206049449998 L3.9561083946799798 11.745317703450091 L3.959777420679991 11.737204504450084 L3.974892777679976 11.714311844450059 L3.9766497756799666 11.706973791450075 L3.975512894680044 11.699635737450073 L3.9712237506799752 11.691315832450009 L3.959829097679979 11.675141109450117 L3.95311116067996 11.668164790450014 L3.9451013136799773 11.662118647450079 L3.9298050896800376 11.653437007450115 L3.922802933680039 11.648114334450064 L3.9176352906800176 11.64129304545002 L3.9163175416799803 11.632766434450097 L3.9185396276799693 11.624291499450088 L3.921872757679985 11.615816564449993 L3.924094844679992 11.60739330645 L3.923810623680005 11.588066320450046 L3.9190047156799963 11.571013097450013 L3.910116369679976 11.55561352045003 L3.8920037796799605 11.53514965345007 L3.887740474679994 11.529155187450037 L3.885595901680013 11.522437251450121 L3.885595901680013 11.514220698450082 L3.889419958680044 11.497322505449993 L3.8900400756800266 11.488795893450082 L3.8878438276799514 11.480475988450017 L3.882004389679942 11.47277620045002 L3.856760453679989 11.454172684450064 L3.8479754596799935 11.445387690450097 L3.840430700680038 11.43582755145001 L3.833996984680006 11.425440588450066 L3.8200960246800335 11.391747554450028 L3.818726598680037 11.384047765450013 L3.8177189086799856 11.366529455450056 L3.8152126016800096 11.35882966645007 L3.80919229667996 11.351646643450117 L3.7816745966799843 11.333714920450056 L3.776739497679962 11.327875484450054 L3.768703812679952 11.314387934450103 L3.7637428746799984 11.30906526245004 L3.748679194679916 11.308703527450056 L3.7122214716800173 11.322501134450015 L3.702067052680043 11.31578319845007 L3.703901566679953 11.300280269450063 L3.72067056768001 11.269894527450099 L3.718836055680022 11.25594189045011 L3.7122214716800173 11.254649979450072 L3.7065112266799716 11.254856685450015 L3.700981848679966 11.256510330450077 L3.687365107679973 11.26188468045003 L3.634706823679956 11.272736731450088 L3.604372757680018 11.285449132450047 L3.59680215967996 11.287671219450026 L3.5932881626799897 11.288032954450038 L3.5745037796799934 11.288136307450053 L3.568741857680017 11.289324865450077 L3.5413533486799977 11.303484208450037 L3.5348162806799124 11.305189529450097 L3.5278399616800087 11.304000972450062 L3.5256437136800187 11.30270906045012 L3.519080806679945 11.297128006450087 L3.516316116679981 11.295681066450008 L3.5101924596800202 11.293407303450088 L3.507763667679974 11.292012039450121 L3.506471756680021 11.290565099450014 L3.5049214636799846 11.286999425450055 L3.503810420679976 11.285294103450092 L3.49928873268005 11.282090165450022 L3.488927608679951 11.278162756450051 L3.4841992136799504 11.27532055245009 L3.4809952756799944 11.264830236450045 L3.4854647936799736 11.251637767450056 L3.4911496946799403 11.234857906450081 L3.493190913680003 11.222042150450015 L3.4836307736800123 11.220956945450006 L3.4743548536799906 11.221422033450033 L3.465544021679996 11.22379914945008 L3.4570690866799865 11.228553380450073 L3.449524328679935 11.235581375450089 L3.4317734736800176 11.260489416450064 L3.4249521846799738 11.267724116450033 L3.4088291376799944 11.27971304945006 L3.3924477086800167 11.28885977745005 L3.38456705367998 11.291650304450108 L3.3764538536799833 11.292425450450018 L3.3680047566800013 11.29035839445006 L3.358935541680019 11.28488069245008 L3.351003210679984 11.277439285450065 L3.3446986846799476 11.268654292450059 L3.339944453679955 11.259094152450068 L3.331495356679973 11.232170730450058 L3.3265344196799234 11.22405753145005 L3.3199456736800315 11.217184565450076 L3.3041843626799405 11.20560904445005 L3.2959419716800156 11.200906489450055 L3.2567195596799436 11.189796056450056 L3.239692174679938 11.18085603345002 L3.2359714716799104 11.164888016450071 L3.2410874386799904 11.14695629445 L3.240725703680006 11.138533036450006 L3.2363332066800083 11.129541336450067 L3.226488846679935 11.117087317450078 L3.224447627679986 11.110576086450116 L3.22630797967998 11.102101151450022 L3.2326125036800093 11.08670157445004 L3.2319148716800115 11.07972525645004 L3.225920405679979 11.072955643449994 L3.2167220016799902 11.068046382450056 L3.1970591176799488 11.060656652450056 L3.1881707716799284 11.055075597450035 L3.1707041386799872 11.034870112450044 L3.1639345256799416 11.028823969450109 L3.130732417680015 11.010272130450055 L3.0713303586799796 10.958285639450047 L3.0373789426799718 10.920045080450045 L3.0136852986800093 10.903818680450051 L3.0065797896799964 10.897462479450006 L2.9896040816799783 10.875965083450062 L2.9814908806799636 10.871314204450009 L2.970096227679967 10.869350500450075 L2.946118362679961 10.86774853045005 L2.9357055616800167 10.863045975450056 L2.9305120806799394 10.855294510450044 L2.929194331679959 10.837414465450017 L2.925809525679945 10.82966300045009 L2.9161201946799125 10.825218826450076 L2.877802119679991 10.828526118450092 L2.8684486846799544 10.82444368045008 L2.86674336367998 10.816795568450082 L2.8720143596800156 10.79777864145003 L2.8724277706800265 10.786823237450044 L2.8682419796800005 10.779381831450046 L2.860516353680005 10.77426586445005 L2.7971352086799826 10.750132971450078 L2.7775240026799466 10.75132152845 L2.7679380246799568 10.754938878450098 L2.741712235680019 10.770131750450012 L2.7318161986799296 10.77452424745001 L2.721377558679997 10.777263098450042 L2.7106805376799983 10.778451655450077 L2.699854325679958 10.778244950450038 L2.659314164680019 10.77008007345011 L2.648642980679945 10.77033845545008 L2.606759231679952 10.781758947450065 L2.5957004756799407 10.782120682450078 L2.584693395679956 10.780260330450055 L2.55658141667994 10.767392899450066 L2.5477964226799443 10.765015783450018 L2.5378745486799303 10.765274165450016 L2.5040781616799634 10.77380077645011 L2.492554317679925 10.775144363450089 L2.3217637086800167 10.763258785450056 L2.291274612679935 10.770286779450053 L2.2728261276799415 10.767547928450021 L2.262439163680007 10.754887202450071 L2.2548364806799626 10.740372989450059 L2.253912552679971 10.73860912645005 L2.24083841468002 10.72512157745009 L2.2294695996799376 10.719540522450067 L2.2071453816799718 10.728480545450104 L2.196861771679984 10.735095129449995 L2.1904022176799245 10.744345210450028 L2.1872499556799667 10.758349523450015 L2.18502786867996 10.764809077450074 L2.180118607680022 10.770958572450034 L2.173917434679943 10.775454422450075 L2.1668377636800145 10.778348302450063 L2.159396357679988 10.779020096450033 L2.152213333680045 10.776746333450028 L2.1417746946800165 10.767134516450021 L2.1339198766799896 10.755662349450084 L2.124876500679939 10.745947180450052 L2.110458776679998 10.741761389450112 L2.096196081680013 10.745533768450024 L2.087514440679975 10.755403966450011 L2.0854990596799396 10.768323075450034 L2.0914418496799456 10.781707270450049 L2.1076165726799516 10.796951818450104 L2.1109238646799398 10.803308019450121 L2.1105621296800408 10.810749425450062 L2.106272985679972 10.816433833450098 L2.09976175468001 10.820567948450012 L2.078677770679981 10.82821606045001 L1.9712941446799803 10.84454581245003 L1.955171097680001 10.845114253450099 L1.907835485680046 10.837879552450026 L1.8757444206799292 10.83896475845011 L1.860138138679993 10.842220373450111 L1.8180218466800468 10.859170242450027 L1.8039658566799304 10.86258088745003 L1.7892380726799288 10.862890945450026 L1.7768874066799825 10.857774978450031 L1.770066116680006 10.848421544450098 L1.7643300336800465 10.838241287450039 L1.7549249226800114 10.830748205450071 L1.739783727679999 10.829456294450033 L1.7252626496799408 10.835760819450051 L1.7128603066799784 10.846406164450052 L1.6885723836799755 10.879995845450075 L1.6789605666799687 10.888729162450055 L1.6670749876799462 10.894413569449988 L1.652295527679918 10.895808833450069 L1.609352412680046 10.887282221450043 L1.5941078656800087 10.889607661450064 L1.582273961679995 10.896687332450021 L1.560156448679983 10.916272700450115 L1.5463588416799396 10.92474763545004 L1.5315793826800146 10.929553543450048 L1.5162314816799451 10.93038036645006 L1.5005735226799928 10.926504633450087 L1.4769573926799708 10.915652583450047 L1.4684824586799792 10.913223791450001 L1.4360296586799635 10.911466792450021 L1.3908127806799726 10.89715242045002 L1.3748447626800342 10.89637727445011 L1.3501951046800187 10.900666418450093 L1.34177184667994 10.900666418450093 L1.3068385776799474 10.892501541450052 L1.292730912680021 10.894051835450078 L1.2530950876800446 10.911105057450037 L1.2457053586800342 10.912500320450015 L1.2394008336799303 10.911931880450048 L1.2264817256799248 10.906970942450009 L1.2181618196799562 10.905058914450073 L1.2106687376800167 10.906299149450028 L1.2035890656800134 10.909864823450071 L1.196457718679973 10.91477408345002 L1.1725832076799705 10.91802969945001 L1.1500006056799421 10.915497554450006 L1.1297434446799528 10.90604076645004 L1.112793574680019 10.888729162450055 L1.1007012896799395 10.87136588045012 L1.0933115596799396 10.86397615145011 L1.0841131546800469 10.858550126450034 L1.0715041056799137 10.8561730104501 L1.059463496679946 10.858240066450058 L1.0479913286800198 10.863407710450069 L1.018587438679937 10.88361319545006 L1.0084071816799636 10.888212397450097 L0.9970383656799768 10.890176102450049 L0.985824580679953 10.889400956450025 L0.9527516636800399 10.883303137450064 L0.9299623576800471 10.88774730945007 L0.9086716666799717 10.900304682450091 L0.8902231806800458 10.91761628745001 L0.8763738966799863 10.936374832450092 L0.8688291386800486 10.955133377450089 L0.8636098186799259 10.995027583450018 L0.8226820836800144 11.164267899450088 L0.8183929396799456 11.175998449450098 L0.8120884156800301 11.186178706450072 L0.7964821326799907 11.196100581450047 L0.759585159679979 11.204627192450083 L0.7450124056800078 11.216771154450065 L0.737777705679953 11.236873286450042 L0.7333335326800139 11.304569412450029 L0.7159702516800124 11.344877029450082 L0.7021726436799796 11.389060380449983 L0.6962298546800483 11.400532547450005 L0.6938527386800004 11.509414790449988 L0.6840342156799366 11.564553543450067 L0.6614227176799616 11.602101959450074 L0.6764373666799841 11.433563547450042 L0.6744842416799841 11.345103261450056 L0.6645558556799713 11.14368724545006 L0.6744842416799841 11.078216867450074 L0.6815643196799854 11.060394602450067 L0.7092742806799563 11.009328521450023 L0.7176157516799506 10.959198313450038 L0.726079293679966 10.944427805450069 L0.7366180306799563 10.918060617450074 L0.7365773406799647 10.810679433450055 L0.7445526006799881 10.766978261450056 L0.8246307256799881 10.569916086450071 L0.8459523406799647 10.53626537045006 L0.8606821586799427 10.468638417450059 L0.8777720016799506 10.435679433450055 L0.9257049446799854 10.370209055450069 L1.011235543679966 10.191620188450038 L1.017094918679966 10.167084055450069 L1.0311736946799854 10.148570058450055 L1.1248016246799537 9.866099354450064 L1.1547902306799713 9.743744211450071 L1.1623585906799647 9.610931711450071 L1.1796111946799854 9.450775461450071 L1.168543486679944 9.269501047450042 L1.1343637986799493 8.92689037045006 L1.1232147106799815 8.891205149450066 L1.071782418679966 8.782277740450077 L1.04810077767997 8.658417063450038 L1.0308074836799577 8.617808339450058 L1.0397999966799674 8.59408600845007 L1.0381723926799467 8.56674225845007 L0.9991912726799868 8.428192453450045 L0.99341327767997 8.415049550450028 L0.9648488246799687 8.349904693450078 L0.9209848926799467 8.280487375450043 L0.861902861679944 8.21517975845007 L0.8430633426799616 8.198456125450043 L0.8390350226799868 8.196340240450077 L0.8354949836799577 8.189422922450042 L0.827194202679955 8.187347727450067 L0.8173065076799801 8.186330474450024 L0.8088836556799563 8.182424224450024 L0.7919158826799801 8.171682037450076 L0.7528533826799801 8.160736399450066 L0.7365773406799647 8.151662505450027 L0.7291717416799841 8.14010651645004 L0.7124887986799493 8.097870188450038 L0.7092742806799563 8.079966542450059 L0.6990203746799537 8.060923573450061 L0.6796925746799687 8.045013742450074 L0.668299345679948 8.030121164450073 L0.6819305306799563 8.014496164450073 L0.7400359996799537 8.029388742450074 L0.7959848926799467 8.021698313450038 L0.8445688766799506 7.995086985450037 L0.8805389286799894 7.953013417450059 L0.9042205696799854 7.914276438450038 L0.9099171846799621 7.894826568450078 L0.9188690076799801 7.881642974450024 L0.920944202679955 7.874847727450067 L0.9178924446799854 7.868215240450077 L0.9112192676799467 7.8643496804500685 L0.904627470679948 7.8639020894500575 L0.9016570926799616 7.867726959450074 L0.8964894496799687 7.867320058450055 L0.840866077679955 7.925100005450027 L0.8123016246799537 7.946869211450071 L0.8532765596799621 7.864308990450077 L0.83911640267997 7.871673899450066 L0.7985890596799621 7.9037783914500395 L0.7843475226799868 7.918915110450037 L0.7775115856799815 7.928436594450041 L0.7715301396799603 7.939544992450074 L0.7695770146799603 7.951385813450038 L0.7744191376799634 7.962982492450074 L0.7748260386799828 7.969208078450045 L0.7662811166799841 7.988128977450067 L0.7638397106799815 7.997691151450063 L0.7613169236799493 8.000580149450066 L0.7554168586799577 8.00228913345007 L0.7487029916799841 8.00265534445004 L0.74341327767997 8.00143464145004 L0.7386932256799881 7.99838288345007 L0.7380421846799621 7.99642975845007 L0.7383677046799519 7.9936221414500395 L0.7365773406799647 7.9877627664500395 L0.7349090466799524 7.979706125450043 L0.7352752576799801 7.955210683450055 L0.7365773406799647 7.946869211450071 L0.7460174446799854 7.931244211450071 L0.7721404916799841 7.904999094450041 L0.7775115856799815 7.887909250450043 L0.7812550746799687 7.867075917450059 L0.7909393196799854 7.856740630450027 L0.8042856736799493 7.84917227145008 L0.819137561679959 7.8370059304500685 L0.914637236679944 7.699798899450066 L0.9206593716799674 7.694549875450043 L0.9274139286799894 7.690480865450077 L0.9329477836799427 7.6850283914500395 L0.9351450486799493 7.675588287450076 L0.9363657516799506 7.655650136450056 L0.9394988896799603 7.648081776450063 L0.9458058556799713 7.645233469450041 L0.9477589806799713 7.641408599450024 L0.9653371056799713 7.623260813450038 L0.96997577767997 7.617279367450074 L0.9702606086799577 7.60657787045006 L0.967819202679955 7.597626047450042 L0.9628143196799854 7.589935617450074 L0.9557342416799841 7.5830996804500685 L0.9635467416799841 7.576467193450078 L0.9685923146799453 7.568491933450055 L0.9707081996799687 7.559295969450041 L0.96997577767997 7.548960683450055 L0.954147327679955 7.5574649144500725 L0.9488983036799894 7.562632558450055 L0.9459686166799841 7.546763417450059 L0.9602915336799427 7.522186594450041 L0.9557342416799841 7.508026438450038 L0.9372609346799621 7.49720287045006 L0.924606311679959 7.505707102450067 L0.91724140267997 7.520477610450037 L0.914637236679944 7.52845287045006 L0.8981984346799621 7.537892974450024 L0.8910369756799881 7.533294992450074 L0.8904673146799453 7.5212100324500355 L0.8942108036799894 7.508026438450038 L0.8997446586799427 7.4969180394500725 L0.9058074836799577 7.488413808450055 L0.9646860646799453 7.431732492450074 L0.9812876266799506 7.40735912045006 L0.9897918586799577 7.377655344450041 L0.985397327679955 7.3529971414500395 L0.9551645796799519 7.3024600324500355 L0.94263202767997 7.275238352450067 L0.9505259086799427 7.2757673234500615 L0.9576873666799841 7.275197662450076 L0.9641570926799616 7.272796946450065 L0.96997577767997 7.267792063450038 L0.9921111946799854 7.235321360450037 L1.000656116679984 7.215423899450066 L1.0040740856799815 7.195770578450045 L1.0015106086799577 7.177622792450059 L0.9947967416799841 7.162567453450045 L0.9661509086799427 7.120941477450067 L0.9600473926799467 7.1178083394500575 L0.9458058556799713 7.116994537450076 L0.9362843716799674 7.112681386450056 L0.9316456996799687 7.103322662450076 L0.9286346326799801 7.093882558450055 L0.924606311679959 7.089691477450067 L0.9086964806799713 7.080373443450078 L0.8805389286799894 7.014536854450064 L0.8713429656799647 7.005462961450071 L0.86255390267997 6.999603586450071 L0.8558807256799881 6.993378000450043 L0.8532765596799621 6.9834903054500685 L0.856043486679944 6.980072336450071 L0.8617401006799881 6.978119211450071 L0.8657684216799524 6.9754336644500725 L0.8638152966799524 6.96985912045006 L0.8610076786799894 6.965790110450037 L0.854537952679955 6.9535016984500615 L0.8502654916799841 6.934540110450037 L0.8125864546799519 6.841441151450063 L0.8027394496799687 6.82768789645008 L0.7880910126799634 6.822154042450059 L0.779871611679944 6.8096621804500685 L0.77856952767997 6.784800526450063 L0.774215686679959 6.7666934304500685 L0.75708515267997 6.774383860450037 L0.7365773406799647 6.761322336450071 L0.7365773406799647 6.753876047450042 L0.781824736679944 6.741791086450071 L0.7950897106799815 6.73589102145008 L0.7744191376799634 6.733368235450037 L0.7391001266799506 6.738983469450041 L0.7229461556799563 6.7358096414500395 L0.7092742806799563 6.719777740450077 L0.7167205696799854 6.712941802450025 L0.7024383426799616 6.684947011450056 L0.6957244756799881 6.6803083394500575 L0.6744842416799841 6.671966867450074 L0.667485543679966 6.715545969450041 L0.6753387336799577 6.812307037450076 L0.6614227176799616 6.850067453450045 L0.6512908826799801 6.834523834450074 L0.6382700486799493 6.823578196450065 L0.6130421846799621 6.808482167450059 L0.6047820926799616 6.799855865450077 L0.5919647106799815 6.7764590554500685 L0.582605986679944 6.764455474450024 L0.5701141246799537 6.755951242450074 L0.5387420536799894 6.740366933450055 L0.5310923146799453 6.733368235450037 L0.530319202679955 6.721975005450027 L0.5350799446799854 6.717254953450045 L0.5414276006799881 6.715545969450041 L0.5447641896799453 6.712941802450025 L0.5444793586799577 6.704396880450027 L0.5387420536799894 6.696177479450064 L0.5373585906799647 6.688771880450027 L0.5326385386799828 6.673797922450042 L0.5212453096799621 6.661712961450071 L0.4935760386799828 6.640920318450078 L0.48979185867995767 6.633270578450045 L0.49007668967994533 6.6147158914500395 L0.48641457967995194 6.606781321450065 L0.46965025767998014 6.58940664645008 L0.4583384086799427 6.542328196450065 L0.45223489267994665 6.531057037450076 L0.441736845679948 6.518890696450065 L0.43481952767997 6.504120188450038 L0.4306691376799634 6.488373117450074 L0.4287160126799634 6.4732770894500575 L0.4243621716799524 6.478119211450071 L0.4180145146799603 6.482961334450074 L0.415084827679955 6.4869489644500575 L0.40055846067998147 6.4734805394500725 L0.3947804656799647 6.458343821450065 L0.39213560867995767 6.4420270894500575 L0.3871307256799881 6.4248965554500685 L0.38078306967998543 6.417775787450076 L0.3716277966799524 6.4107770894500575 L0.36336770467995194 6.401418365450077 L0.3597869756799881 6.38705475845007 L0.35441588267998014 6.37728913345007 L0.3304901006799881 6.346283274450066 L0.3250376266799506 6.3324079484500615 L0.32300312167996736 6.318329172450042 L0.3179575486799493 6.302337961450071 L0.3052215466799524 6.2740583394500575 L0.286178577679955 6.251760162450076 L0.27254739267994665 6.259409901450063 L0.24650572567998807 6.3050641984500615 L0.203699736679944 6.359955149450066 L0.19364928067995635 6.367971099450024 L0.18791197567998807 6.379689849450024 L0.19535826467996031 6.3975528054500685 L0.20658873367995767 6.392425852450067 L0.207809436679959 6.409515696450065 L0.20150247067994798 6.446014719450041 L0.19938658567998147 6.478485422450042 L0.19535826467996031 6.4869489644500575 L0.18571471067998147 6.4930117894500725 L0.16252135067998807 6.49956289645008 L0.15434263967996031 6.507416086450071 L0.1536509086799427 6.516164459450074 L0.15824888967996031 6.523732818450078 L0.16801451467996031 6.534149485450037 L0.1752166636799828 6.550100005450027 L0.17586770467995194 6.556691802450025 L0.17485045267995503 6.568898834450074 L0.16532896767996164 6.611135162450076 L0.156824736679944 6.633107818450078 L0.14689635067998807 6.6440127664500395 L0.12259561767999827 6.536178299450022 L0.12634215867999643 6.50641267445004 L0.14975158267996136 6.415462153450015 L0.15639200367997574 6.3835261184500425 L0.19884419368001005 6.26901114445004 L0.2180678256799311 6.17309968645008 L0.23543110768003572 6.086334956450081 L0.2449395706799251 6.078066727450043 L0.36095316067994787 6.078066727450043 L0.4023459836800001 6.078066727450043 L0.5191347206800359 6.078015051450045 L0.7006223506799429 6.078015051450045 L0.9360601766800087 6.078015051450045 L1.2147511756800284 6.077911697450013 L1.5256882686800068 6.0778600214500145 L1.858226110679972 6.0778600214500145 L2.2015126496799624 6.077756668450057 L2.544799190680017 6.077756668450057 L2.877285354679948 6.077704992450059 L2.908172938679975 6.077699860450075 L3.188274124679971 6.077653316450032 L3.466861771679966 6.077601639450016 L3.7023512736799447 6.077549963450103 L3.883916417680048 6.077549963450103 L4.000679316679999 6.077549963450103 L4.042046300679949 6.077498286450087 L4.1885231486800265 6.077498286450087 L4.177593582679954 5.915596023450114 L4.171677619679947 5.828986678450114 L4.143435461679992 5.415523188450031 L4.126937760180034 5.1654867709500465 L4.11044005868002 4.915450353450062 L4.097417598679989 4.850699784450079 L4.0487900756799675 4.722128820450045 L4.038273921680009 4.658230911450083 L4.051477249679984 4.5909223594499835 L4.083878372679983 4.527386185450034 L4.169428706680044 4.415713415450078 L4.1885231486800265 4.392924108449982 L4.288672074679944 4.328871170450093 L4.413832393680032 4.249056921450084 L4.521551916680018 4.180172236450083 L4.584338781679982 4.140097163450086 L4.645394485679965 4.120640986450006 L4.8138596556799556 4.098394282450066 L4.849878128680025 4.088446569450063 L5.069192907679998 3.9915790974500496 L5.171047155679993 3.9659475864500777 L5.184431351680026 3.9499278924500274 L5.188462113680011 3.915743933450038 L5.188462113680011 3.8349995074500995 L5.188462113680011 3.759448563450057 L5.188462113680011 3.683820104450028 L5.188462113680011 3.6081916454500558 L5.188462113680011 3.5326148634500427 L5.188462113680011 3.4569864054500883 L5.188462113680011 3.3813837844500583 L5.188462113680011 3.305832840450016 L5.188462113680011 3.2302302204500606 L5.188462113680011 3.1546276004500484 L5.188462113680011 3.079024978450086 L5.188462113680011 3.003448197450062 L5.188462113680011 2.9278455764501174 L5.188462113680011 2.85229463244999 L5.188462113680011 2.776666173450046 L5.188462113680011 2.7010635534500906 L5.188462113680011 2.62546093345005 L5.188462113680011 2.5499099884500183 L5.188462113680011 2.4743073684500914 L5.188462113680011 2.3986789104500517 L5.188462113680011 2.323127965450105 L5.188462113680011 2.2476028594500903 L5.188462113680011 2.1720002394500497 L5.188462113680011 2.0963459424500783 L5.188462113680011 2.0207433224500377 L5.188462113680011 1.9451923784500238 L5.188462113680011 1.869589757450079 L5.188462113680011 1.7939871374500385 L5.188462113680011 1.7184361934500245 L5.188462113680011 1.6428335724500798 L5.188462113680011 1.5672309524500392 L5.188462113680011 1.4916800094500147 L5.188462113680011 1.4160257114500538 L5.28917947967998 1.4159740354500272 L5.3899485226799655 1.4159740354500272 L5.490562536679995 1.4159740354500272 L5.591331579679981 1.4159740354500272 L5.692048945680035 1.4159740354500272 L5.792817988680021 1.4159740354500272 L5.89353535567998 1.4159740354500272 L5.994252721679949 1.4159740354500272 L6.09502176468002 1.4159740354500272 L6.19568745567998 1.4159740354500272 L6.296456497679976 1.4159740354500272 L6.397173863679946 1.4159740354500272 L6.49789123067999 1.4159740354500272 L6.598608597679977 1.4159740354500272 L6.6993259636799465 1.4159740354500272 L6.800095006680017 1.4159740354500272 L6.900812373679976 1.4159740354500272 L7.001478063679947 1.4159740354500272 L7.102247106680018 1.4159740354500272 L7.202964472679987 1.4159740354500272 L7.303733516680047 1.4159740354500272 L7.404399205680001 1.4159740354500272 L7.50511657267996 1.4159740354500272 L7.605885615679945 1.4159740354500272 L7.7066029826800175 1.4159740354500272 L7.807320348679987 1.4159740354500272 L7.908037715679946 1.4159740354500272 L8.00875508168 1.4159740354500272 L8.109524124679986 1.4159740354500272 L8.210189814679957 1.4159740354500272 L8.310907181680001 1.4159740354500272 L8.411727900680013 1.4159223594501142 L8.496554764679964 1.4159223594501142 L8.516114294679973 1.4109097444500591 L8.522961421680016 1.3977839304500819 L8.522961421680016 1.3525153764500928 L8.522909745680018 1.3387177694500494 L8.522909745680018 1.2998054154500593 L8.522832230680002 1.2392923134500151 L8.522728877680045 1.1607441364500843 L8.522625524679945 1.0679332634500653 L8.52247049468 0.9643220174501081 L8.522315466680034 0.8534760694500889 L8.52221211368002 0.7390127724501028 L8.522108760680005 0.6246011514501149 L8.521953730679947 0.513755204450085 L8.521850378680007 0.4100922814500265 L8.521695348679977 0.31722973144999145 L8.521540319679936 0.23878490745007497 L8.521540319679936 0.17822012945003252 L8.521488642680033 0.1392560984500264 L8.521385290680008 0.12551016844999907 Z M0.8259734996799537 7.5973819074500355 L0.8453826786799894 7.55774974545006 L0.8578338506799881 7.542572336450071 L0.8669484346799621 7.555226959450074 L0.836715686679959 7.6898298234500615 L0.8114471326799801 7.7525739644500575 L0.7712859996799537 7.8096621804500685 L0.7540740856799815 7.788137115450077 L0.7508188766799506 7.781708078450045 L0.751022327679955 7.773651438450038 L0.7534637336799577 7.764455474450024 L0.7535858036799894 7.754445709450074 L0.747116077679955 7.744191802450025 L0.7397918586799577 7.7262881574500355 L0.7466277966799524 7.707570709450074 L0.7754363896799603 7.666310943450078 L0.7775115856799815 7.661957102450067 L0.7763722626799634 7.632945058450055 L0.7775115856799815 7.624074615450077 L0.7855682256799881 7.605316477450067 L0.7983856086799577 7.589813547450042 L0.812830595679948 7.5848086644500725 L0.8259734996799537 7.5973819074500355 Z M0.8828582646799603 7.682424224450024 L0.8942108036799894 7.680145578450045 L0.9021453746799537 7.6883242894500725 L0.8903859346799621 7.706268625450043 L0.8739471326799801 7.720998443450078 L0.8615773406799647 7.734507558450055 L0.8450571586799427 7.763031321450065 L0.8092498666799841 7.811004953450045 L0.8060760386799828 7.811004953450045 L0.8110402306799713 7.7937930394500725 L0.845219918679966 7.7334903054500685 L0.8828582646799603 7.682424224450024 Z M0.7266082646799603 7.6794131574500355 L0.7341766246799537 7.680959380450027 L0.7347869756799881 7.691213287450076 L0.7322234996799537 7.71127350845007 L0.7258758426799616 7.725392974450024 L0.719528186679959 7.733205474450024 L0.7119191376799634 7.726857818450078 L0.7068735646799453 7.70541413345007 L0.7126515596799621 7.685842193450078 L0.7266082646799603 7.6794131574500355 Z M0.744471220679948 6.796234446450065 L0.7530975226799868 6.79839102145008 L0.7573699836799577 6.803599354450064 L0.7556609996799537 6.836395578450045 L0.7495981736799493 6.839813547450042 L0.7364959606799815 6.834686594450041 L0.729537952679955 6.81674225845007 L0.7346649056799563 6.8018496804500685 L0.744471220679948 6.796234446450065 Z" fill="black" stroke="black" stroke-width="0.5" vector-effect="non-scaling-stroke"/></svg>