<svg xmlns="http://www.w3.org/2000/svg" viewBox="0 0 7.109121093239949 10.397309571120031"><path d="M1.3412630206199836 10.00077880856002 L1.33947265561995 10.024785970559995 L1.3344270826199889 10.052211100559978 L1.3236848956199836 10.08281005856002 L1.3214062496199475 10.09843505856002 L1.3270214846199977 10.11373453856003 L1.302607421620003 10.121384277560017 L1.2747753906200003 10.141973470559995 L1.2577669266199862 10.165492350559978 L1.265498046620003 10.18201253256 L1.2662304686200017 10.18909261155999 L1.271601562619999 10.19763753256 L1.2723339846199977 10.20309000655998 L1.2688346356199602 10.212285970559995 L1.2631380206199836 10.214157715560011 L1.256790364619981 10.213832194559975 L1.2513378906200003 10.21676188155998 L1.23791015561995 10.239548340560011 L1.2302604166199629 10.24963948655999 L1.217727864619981 10.257696126559997 L1.1339062496199475 10.28284261155999 L1.0491080726199655 10.29537516356003 L1.01916015561995 10.293096517559993 L0.9724479166199629 10.27893636155999 L0.9447786456199836 10.276006673559996 L0.9236197916199629 10.285039876559997 L0.8660839846199977 10.236211751559997 L0.853388671620003 10.22229573655999 L0.8489941406200003 10.20894938155998 L0.8648632806199501 10.20309000655998 L0.889602864619981 10.207891439559992 L0.903274739619981 10.20545003256 L0.9092968746199475 10.192510579559999 L0.9145052076199889 10.16443440756 L0.9133658856199602 10.154180501559997 L0.902460937619999 10.14840250655998 L0.9105175776199488 10.123988444559975 L0.9114941406200003 10.06881266356003 L0.916132812619999 10.038539225559978 L0.9229687496199475 10.02112386155999 L0.9456738276199488 9.978643392559993 L0.9539746096199977 9.97034261155999 L0.956009114619981 9.96725016356003 L0.9781445306199501 9.949834798559996 L0.9877473956199836 9.945440267559993 L1.00939453061995 9.939580892559993 L1.01916015561995 9.93551188155998 L1.0362499996199475 9.918828939559992 L1.0393424476199655 9.90035563155998 L1.039993489619981 9.881719564559992 L1.0551302076199889 9.85543375655998 L1.0674999996199475 9.819626465560011 L1.0736035156200003 9.808884277560017 L1.077998046620003 9.802862142559993 L1.105585937619999 9.781866048559996 L1.1124218746199475 9.77893636155999 L1.1258496096199977 9.777959798559996 L1.1316276036199682 9.774785970559995 L1.1360221356199602 9.767705892559993 L1.1420442706199836 9.760625814559992 L1.1526236976199655 9.75745198655999 L1.1684114576199889 9.75973063155998 L1.2132519526199488 9.772100423559996 L1.2252148436200017 9.777959798559996 L1.230341796620003 9.78902750655998 L1.224726562619999 9.80628011155999 L1.228632812619999 9.815801595559995 L1.2357128906200003 9.825323079559999 L1.2432812496199475 9.842087402560017 L1.2517447916199629 9.856410319559975 L1.2543489576199889 9.86796630856002 L1.25939453061995 9.874151204559999 L1.2634635416199629 9.87496500655998 L1.275263671620003 9.873174642559993 L1.279169921620003 9.874151204559999 L1.2903190106199602 9.883103027560017 L1.2932486976199655 9.889532064559992 L1.289993489619981 9.92184000655998 L1.2977246096199977 9.932256673559996 L1.3080598956199836 9.940069173559996 L1.3176627606199602 9.968552246560014 L1.336868489619981 9.99019938155998 L1.3412630206199836 10.00077880856002 Z M0.06969726562000034 0.10803792355999597 L0.07108072861996817 0.1053523765599973 L0.07319661461998095 0.1033992515599973 L0.07653320261994878 0.10217854855999597 L0.08117187461994746 0.10193440755999994 L0.08833333261998888 0.12447672555997791 L0.1141308596199977 0.16443440755999994 L0.1148632806199501 0.18453531955997526 L0.09402994761996553 0.1600398765599973 L0.07531249961994746 0.13098714255999333 L0.07010416661996288 0.11804768955999201 L0.06969726562000034 0.10803792355999597 Z M7.0217643226199655 9.45585693356002 L7.039423827619949 9.459925944559975 L7.035110676619986 9.479457194559975 L7.01492838561996 9.500941569559975 L6.984248046619946 9.511032715560011 L6.9620312496199475 9.51445068356002 L6.946162109619998 9.522914225559978 L6.931106770619984 9.534063314559992 L6.911901041619963 9.545212402560017 L6.883255207619989 9.516485189559992 L6.877802734619998 9.51445068356002 L6.880732421619946 9.495895996560014 L6.888789062619999 9.487757975559978 L6.900751952619949 9.482712402560017 L6.9346874996199475 9.462774251559997 L6.966669921619946 9.452438965560011 L6.999791666619963 9.447881673559996 L7.0217643226199655 9.45585693356002 Z" fill="black" stroke="black" stroke-width="0.5" vector-effect="non-scaling-stroke"/></svg>