<svg xmlns="http://www.w3.org/2000/svg" viewBox="0 0 25.482402343920057 9.034570312500001"><path d="M25.21206705796004 4.52326660174997 L25.216461588960044 4.528474934750012 L25.22329752596005 4.530468749750003 L25.229726562960025 4.533194986749994 L25.232574869960047 4.540600585749974 L25.228994140960083 4.553214517749996 L25.211741536960005 4.58413899674996 L25.205231119960047 4.5914632157499575 L25.191559244960047 4.594392903750009 L25.179433593960027 4.591300455749991 L25.167470702960088 4.58649902274998 L25.153636067960008 4.583976236749994 L25.13198893296004 4.58413899674996 L25.117340494960047 4.582226561750009 L25.10220377596005 4.577221679749972 L25.098134765960083 4.5599690747499615 L25.110097656960022 4.54312337174996 L25.157460937960025 4.502392577750005 L25.176748046960086 4.489331054749972 L25.196604817960008 4.484448241749977 L25.21206705796004 4.495312499750003 L25.213369140960083 4.501456705749991 L25.211741536960005 4.516552733750007 L25.21206705796004 4.52326660174997 Z M20.47679687496003 2.926180012749956 L20.48224934896001 2.9360270177499963 L20.490712890960083 2.939770507749973 L20.500722656960022 2.938387043749959 L20.510976562960025 2.9330159497499615 L20.524241536960005 2.9850585937500007 L20.524648437960025 2.9950683587500073 L20.51675455796004 2.997550455749991 L20.494863281960022 2.9956787107499743 L20.49046874996003 2.99820149674996 L20.49242187496003 3.0089436847500117 L20.501617838960044 3.0275390617500086 L20.503570963960044 3.039461262749956 L20.49982747396001 3.0554931637499756 L20.490550129960013 3.064851887749956 L20.47850585996008 3.0690836587499923 L20.430491536960005 3.075878905750006 L20.411367187960025 3.0746582027500047 L20.401113281960022 3.063387043749959 L20.37954752596005 3.070711262749956 L20.366201171960086 3.0616780597500117 L20.35659830796004 3.0466227207499976 L20.346507161960005 3.036043293749959 L20.350576171960086 3.022941080749991 L20.352041015960083 3.010164387749956 L20.348948567960008 2.998364257749973 L20.339101562960025 2.988232421750002 L20.341949869960047 2.9842854817500104 L20.346507161960005 2.9739501947499782 L20.31900065096005 2.9722412107499743 L20.311839192960008 2.956738280750006 L20.318512369960047 2.9228027337500073 L20.327871093960027 2.9131591797499716 L20.347158202960088 2.9127929687500007 L20.364248046960086 2.9081136067500104 L20.366933593960027 2.8852050777500047 L20.387685546960086 2.8941162107499743 L20.394277343960027 2.8988769527500047 L20.404042968960027 2.8933024087499923 L20.41128580796004 2.8939534497499615 L20.418447265960083 2.8970458977499796 L20.42837565096005 2.8988769527500047 L20.45335937496003 2.8977783197499782 L20.462636718960027 2.8988769527500047 L20.463369140960083 2.9009521477499796 L20.479970702960088 2.9118570957499976 L20.48306315096005 2.912508137749956 L20.489492187960025 2.9212971997499615 L20.486806640960083 2.9234130857499743 L20.47679687496003 2.926180012749956 Z M13.774648437960025 2.480541991749977 L13.80842122396001 2.4724039707499976 L13.822418619960047 2.4770426427499963 L13.83617187496003 2.494783528750009 L13.836741536960005 2.50992024674996 L13.830556640960083 2.5280680337499923 L13.82030273496008 2.5362874347500117 L13.808746744960047 2.5214762367499937 L13.801910807960041 2.5214762367499937 L13.793447265960083 2.5280273437500007 L13.781972656960022 2.527416991749977 L13.768707682960041 2.523754882749973 L13.75414062496003 2.5214762367499937 L13.757151692960008 2.517895507749973 L13.760244140960083 2.5164306637499756 L13.76781249996003 2.5152913407499575 L13.777089843960027 2.510734048749999 L13.80337565096005 2.5052001947499782 L13.808746744960047 2.4982421867500086 L13.804433593960027 2.4882731117499937 L13.782949218960027 2.4914062497500034 L13.774648437960025 2.480541991749977 Z M14.06273437496003 2.4054280597500117 L14.069814452960088 2.4005859367500086 L14.078277994960047 2.4016845697499782 L14.089182942960008 2.404614257749973 L14.103668619960047 2.4054280597500117 L14.093496093960027 2.417228189749995 L14.076650390960083 2.4289062497500034 L14.057932942960008 2.4374104817500104 L14.042226562960025 2.439526366749977 L14.04165690096005 2.4271972657499994 L14.04279622396001 2.416984048749999 L14.04906249996003 2.39859212174996 L14.053457031960022 2.399405923749999 L14.056305338960044 2.4006266277499897 L14.06273437496003 2.4054280597500117 Z M0.37840820296008815 0.28828124975000335 L0.36766601596008286 0.30541178374999234 L0.37027018296004144 0.3197753907499994 L0.38353515696002205 0.3251464837500073 L0.40501953196002205 0.3155843097500117 L0.40013671896002734 0.3270996087500073 L0.38841796896002734 0.34296874975000335 L0.37474609396002734 0.3573323567500104 L0.36400390696002205 0.3639648437500007 L0.35008789096008286 0.35932617175000203 L0.3426009119600053 0.3383707677499963 L0.32982421896002734 0.34284667974997163 L0.3204654949600467 0.35228678374999234 L0.26585937496003 0.438712564749995 L0.25414062496003 0.4520996087500073 L0.2498274739600106 0.42805175774997295 L0.2590234379600247 0.39374999975000335 L0.27513671896002734 0.362988280750006 L0.2919824219600855 0.3496826167499769 L0.2989811199600467 0.34268391874995885 L0.30728190096004937 0.3092773437500007 L0.31224609396002734 0.29816894474997824 L0.3271386719600855 0.28978678374999234 L0.3332421879600247 0.2967854817500104 L0.3360904949600467 0.32298990874999234 L0.3378808599600802 0.3133056637499756 L0.34097330796004144 0.3034179687500007 L0.34520507796008815 0.294628905750006 L0.3504134119600053 0.28828124975000335 L0.3592024739600106 0.28181152274997956 L0.3709212239600106 0.27534179675000203 L0.37962890696002205 0.2753011067500104 L0.37840820296008815 0.28828124975000335 Z M16.99413085996008 8.936352538749976 L17.000315754960013 8.938387043749959 L17.003652343960027 8.94196777274998 L16.998850911960005 8.94599609375 L16.987783202960088 8.945955403750009 L16.98460937496003 8.93968912774999 L16.989003906960022 8.937084960749974 L16.99413085996008 8.936352538749976 Z M16.900869140960083 8.89859212174996 L16.907949218960027 8.894970702750005 L16.918935546960086 8.897127278750009 L16.912832031960022 8.903515624750003 L16.901113281960022 8.902783202750005 L16.900869140960083 8.89859212174996 Z M16.97915690096005 8.89204101575 L16.982574869960047 8.89834798175001 L16.97834309896001 8.901277668749959 L16.969716796960086 8.900463866749977 L16.964182942960008 8.895336913749976 L16.964508463960044 8.89045410174997 L16.970367838960044 8.888663736749994 L16.97915690096005 8.89204101575 Z M17.065257161960005 6.112215168749959 L17.06273437496003 6.096183267749996 L17.077871093960027 6.0853596997499615 L17.08031249996003 6.101310220749998 L17.065257161960005 6.112215168749959 Z M16.975332031960022 6.072338866749977 L16.977773437960025 6.087597655750006 L16.959707031960022 6.09789225274999 L16.95726562496003 6.082674153750009 L16.975332031960022 6.072338866749977 Z M15.85374999996003 4.578116861749994 L15.857737629960013 4.566479491749977 L15.87132812496003 4.554435220749998 L15.886871744960047 4.547192382749973 L15.89671874996003 4.549552408749992 L15.893707682960041 4.558789061750009 L15.880117187960025 4.567700194749978 L15.864248046960086 4.574658202750005 L15.85374999996003 4.578116861749994 Z M19.34789062496003 4.090283202750005 L19.346669921960086 4.087963866749977 L19.344960937960025 4.086254882749973 L19.344472656960022 4.084952798749999 L19.346914062960025 4.08422037774999 L19.349925129960013 4.085441080749991 L19.34984374996003 4.086865233750007 L19.348460286960005 4.088330077750005 L19.34789062496003 4.090283202750005 Z M11.50178059896001 3.167228189749995 L11.502106119960047 3.160229491749977 L11.502919921960086 3.154248046750002 L11.504873046960086 3.149080403750009 L11.509511718960027 3.14468587174996 L11.51170898496008 3.151603189749995 L11.510732421960086 3.1570556637499756 L11.507070312960025 3.1619384767499703 L11.50178059896001 3.167228189749995 Z M20.122386067960008 3.1469645177499963 L20.12523437496003 3.136791991749977 L20.12808268296004 3.1336181637499756 L20.134918619960047 3.1324788407499575 L20.134267577960088 3.138378905750006 L20.131826171960086 3.1415527337500073 L20.122386067960008 3.1469645177499963 Z M14.04279622396001 2.5475585937500007 L14.039215494960047 2.5103271477499796 L14.040517577960088 2.494091796750002 L14.04865559896001 2.5023925777500047 L14.051585286960005 2.5135009767499703 L14.051259765960083 2.5253824867499937 L14.047841796960086 2.5370198567500104 L14.04279622396001 2.5475585937500007 Z M11.37173502596005 2.492504882749973 L11.366852213960044 2.4829833977499796 L11.37328124996003 2.48257649674996 L11.374257812960025 2.4843668617499937 L11.372711588960044 2.4880289707499976 L11.37173502596005 2.492504882749973 Z M12.593496093960027 1.2886474607499743 L12.590647786960005 1.2781494137499756 L12.595367838960044 1.2794921867500086 L12.595856119960047 1.2818115227499796 L12.594472656960022 1.284863280750006 L12.593496093960027 1.2886474607499743 Z M11.854726562960025 1.289461262750013 L11.851308593960027 1.2765624997500034 L11.853831379960013 1.2599202467499602 L11.86156249996003 1.2477132157499575 L11.87328124996003 1.248120116749977 L11.87482747396001 1.256827798749999 L11.86896809896001 1.269848632749973 L11.860504557960041 1.2824218747500034 L11.854726562960025 1.289461262750013 Z M12.304189452960088 0.8878499347500117 L12.310292968960027 0.8786539707499976 L12.313466796960086 0.876660155750006 L12.31900065096005 0.8780843097500117 L12.316559244960047 0.883211262750013 L12.31314127596005 0.8850016277499897 L12.30882812496003 0.8859374997500034 L12.304189452960088 0.8878499347500117 Z M2.7001855469600855 0.09634602875000908 L2.707753906960022 0.08942871074997427 L2.717275390960083 0.08857421875000071 L2.7189029949600467 0.09223632775000468 L2.7106835939600273 0.09968261674997692 L2.70140624996003 0.10297851574999939 L2.7001855469600855 0.09634602875000908 Z" fill="black" stroke="black" stroke-width="0.5" vector-effect="non-scaling-stroke"/></svg>