<svg xmlns="http://www.w3.org/2000/svg" viewBox="0 0 3.583961083740107 3.0847450439399893"><path d="M0.03513687336999993 0.25730884146999244 L0.03586034337011057 0.24909228946994233 L0.04237157437007255 0.23338265446999173 L0.053326977370041106 0.22139372147002234 L0.08634821737010867 0.20746692346993711 L0.09125747937006423 0.19457365346993072 L0.09704523937003984 0.1860987184700349 L0.11668228437006434 0.19116300847001355 L0.1302215093700525 0.20136910446997547 L0.14086685437002444 0.21369393347002585 L0.15316584537007571 0.22444263146995524 L0.1718210373700586 0.23012703847000182 L0.19161311037002093 0.22909350947001883 L0.2029819253701035 0.22216886847003536 L0.20732274637007464 0.2092239214700129 L0.20659927537008826 0.19033618546997388 L0.2013282793700526 0.17111255246997814 L0.1954371663700627 0.15907194446999995 L0.19476537337008182 0.1501060824699465 L0.20530736537003946 0.14031339947000276 L0.2108367433700451 0.14000334047001672 L0.2273215253701224 0.1443958374700145 L0.23419449037007922 0.14455086646994175 L0.24287613137006048 0.13850472446999618 L0.2456666593700234 0.13114083246999542 L0.2491806563700507 0.12491382247002036 L0.2600327073700228 0.12253670647005777 L0.29320897637001764 0.13227771347000328 L0.32597183437011523 0.15103625847000046 L0.36049169137002224 0.1650147334700165 L0.39831883937007007 0.1605963984699912 L0.40782730337006257 0.15390430146997858 L0.4150620033700321 0.1547311234700004 L0.4218832933700938 0.15752165146996333 L0.43283869637006234 0.15687569546999214 L0.4449309813700566 0.15852934146995779 L0.4503053303700213 0.15607471046998 L0.44906509537006656 0.15103625847000046 L0.44575780437006784 0.1454810424699957 L0.4450343343700709 0.14150195646992358 L0.4454477453700818 0.134887373470022 L0.44265721837002303 0.1264124384700125 L0.443587394370077 0.11917773846995772 L0.45464615037008826 0.1165939164700518 L0.46529149637007805 0.1186092974700017 L0.486065421370121 0.1273942904699794 L0.5930356363700824 0.15447274147003043 L0.6257984943700947 0.1556612994699691 L0.6637289953701 0.14253548546999184 L0.6691778523701046 0.13796639146995915 L0.7232602463700815 0.09261605247003502 L0.7594337483700215 0.08016203146995338 L0.7786573813700173 0.08346932346994151 L0.8070794183700585 0.10127185446999931 L0.8207219963700609 0.10478585146994135 L0.8374651603701082 0.09912728247000757 L0.898133293370087 0.06486580746998527 L0.9210776293701102 0.04391101446999812 L0.9624187743700432 0.04391101446999812 L0.9743043543700836 0.04192147146996206 L1.0002459223701194 0.03024259846999655 L1.0220533773700495 0.03215462647001743 L1.024120434370026 0.058457930469970165 L1.0442742433701042 0.06502083746993037 L1.169021150370078 0.06429736647002926 L1.2025074783700873 0.07471016846996292 L1.2671030193700474 0.10664620346996401 L1.2820891843701148 0.11736906346995113 L1.302619334370128 0.1378325564699736 L1.3139218673700626 0.14909839246998047 L1.3217766843701 0.15380094846996428 L1.343687491370055 0.1768486374700302 L1.3843051673700941 0.18739062846999843 L1.4204246923700694 0.19039358947001972 L1.4731886313700286 0.1947803584699983 L1.4936524983701034 0.20134326546998693 L1.510085603370051 0.2142106974699658 L1.5155633063700478 0.23216825746995085 L1.4959262613701085 0.27136483146999524 L1.5104990153700797 0.2788320754699356 L1.5328232343701202 0.2795297074700187 L1.54832616437006 0.27668750347002913 L1.579332023370064 0.25909167847005676 L1.5957651283701253 0.25741219447000674 L1.602999829369999 0.2738969764699988 L1.6066171793700974 0.29322396246995197 L1.617159171370055 0.3045411004700185 L1.6342123943700884 0.3081326124700041 L1.6575701423700266 0.3046444534699475 L1.6789641843700522 0.2963245484699968 L1.6947771723701308 0.28715198146998944 L1.7117270423700361 0.2797880894699887 L1.7578224203700827 0.2761707394700039 L1.774978996370045 0.2776693564700139 L1.7854176353700737 0.28565336446997946 L1.7872779863700785 0.3046444534699475 L1.780611727370065 0.3252633504700526 L1.7695012933700482 0.3344100784699293 L1.7551352453700488 0.34079211746997373 L1.7394256103700698 0.3530652714699869 L1.732811027370083 0.36699206946998686 L1.7346713783700878 0.3809188674699584 L1.7458334883701028 0.3892646124700292 L1.7668141193700322 0.3865515994699962 L1.7822136963700999 0.37476937246999853 L1.7928073643700841 0.3596281774699861 L1.80588150237012 0.3476909214700328 L1.828825838370058 0.345572188470058 L1.8445354743700264 0.35291024146995653 L1.8541472903700438 0.36642362847003085 L1.8529070563700216 0.3815906614699571 L1.8362672443700845 0.39404468146993565 L1.864689282370115 0.43352547546997755 L1.87662653837004 0.44181954347000385 L1.896832023370031 0.45135384447000604 L1.9072706623700881 0.4507854044699542 L1.9109913663700766 0.4414578084700196 L1.9114047773700875 0.4244304234699854 L1.917037933370075 0.40736280247001844 L1.9183294193700888 0.4034497924699991 L1.936571199370043 0.3671470984700278 L1.9588437413700959 0.36032580946998394 L1.9908831303701007 0.36130766146995086 L2.0828671793700906 0.386939172470008 L2.1523203043700576 0.38758512746998974 L2.1884938073700724 0.39182259547003184 L2.2165024333701027 0.4044833214699821 L2.2231686933700203 0.41246732947003295 L2.2255974853700664 0.4197020304699919 L2.2264243083699924 0.42649748046996194 L2.2288014243701255 0.4333704464700219 L2.2448211183700906 0.45926033846994585 L2.248025056370075 0.4854086134700566 L2.2497820563700444 0.4914547564699916 L2.256499991370056 0.4979918254699811 L2.2729330973700215 0.5083529494699945 L2.2793329833700184 0.5157743554699579 L2.299804842370044 0.5395138384700573 L2.332050936370088 0.5631299684699655 L2.353334571370034 0.5741120764700298 L2.3676043213700453 0.5814751014699624 L2.3980934163700525 0.5898983604700305 L2.434473625370039 0.5851958044699614 L2.4782952393701194 0.5465159944700559 L2.509972892370037 0.5361031944699306 L2.5272844973701254 0.5366199584699842 L2.5412371333701245 0.540288985469985 L2.55353612537008 0.5480921264699958 L2.5652149983701307 0.560907881469987 L2.5730698163700723 0.5764108114699837 L2.5818548093700784 0.6106722854699882 L2.5898129803701195 0.6252708784699763 L2.6038689693700476 0.6326347694699592 L2.6432464113700362 0.6406962924699684 L2.6532716383700645 0.6455538774699647 L2.650016023370064 0.659196456469985 L2.634668123370126 0.6733816364700402 L2.616167960370099 0.6867916704699866 L2.603972322370062 0.6980571324699412 L2.594980623370027 0.7155754434700015 L2.59508397637007 0.726556685469987 L2.604695792370059 0.7330679154700448 L2.6392156493700796 0.7414653364700285 L2.651979728370044 0.7494751824699932 L2.655855460370084 0.760275557470024 L2.643918204370131 0.7730396364700169 L2.6142042563700514 0.7987744994700137 L2.6087265543700724 0.8300129034699779 L2.6096567303701264 0.865359582469992 L2.5993214443700268 0.9030575394699412 L2.573431551370085 0.933494958470007 L2.5477483643700864 0.9566459994699841 L2.5346742263700506 0.9829493044700399 L2.547645011370072 1.023076054470053 L2.5477483643700864 1.0231794064699642 L2.547851717370044 1.0232310824699908 L2.547903393370042 1.0233344354700051 L2.554436627370059 1.0322680004700402 L2.557256828370079 1.0361243524699972 L2.5728631103700152 1.0662775514699803 L2.5811313393700814 1.0768970584699815 L2.5993214443700268 1.0864055214699562 L2.6096567303701264 1.0804627314699502 L2.619113517370103 1.0696881954700217 L2.6355982993700664 1.0646755824700307 L2.649860994370023 1.0699465774699917 L2.6679477453700784 1.0909013714699682 L2.698643546370114 1.104802331469969 L2.705464836370062 1.1154993524699677 L2.709960685370085 1.1274107704700072 L2.7180738853700532 1.1380819534700066 L2.7319231683701233 1.1435596554699856 L2.74763280437012 1.1457817424699925 L2.7630840573701008 1.1504326214700455 L2.77615819537008 1.163558434470005 L2.7813258373700833 1.1793972614700152 L2.781739250370073 1.1938408244700298 L2.784839835370043 1.2080518424699989 L2.7881293543700636 1.2118424994700234 L2.79806900237012 1.2232963914699582 L2.811711580370037 1.2315646194700065 L2.826801098370119 1.2365255564700277 L2.842820792370084 1.2376107624699415 L2.858943839370035 1.2341484414699977 L2.8764104733701075 1.2227796264700004 L2.883335115370052 1.2088269904700013 L2.887882641370119 1.1935307654699585 L2.8981145753701085 1.1780019974699343 L2.918320060370071 1.1764517044700114 L2.9382154873700657 1.177356042469981 L2.957129060370029 1.182058597469947 L2.9738205493700676 1.1922388544700055 L2.987308097370125 1.2094987834700106 L2.9965065023701314 1.2326756634700047 L2.9974366783700717 1.2558267054699996 L2.98596451037006 1.273138309469985 L2.9612631753700285 1.2820266554700055 L2.957645825370072 1.3037307574700066 L2.967877758370072 1.3561048214700264 L2.9620899983700966 1.3807028034700153 L2.9476205973700544 1.3925883824700378 L2.9259164953700534 1.3968775264700213 L2.8981145753701085 1.3987895544699285 L2.895840811370057 1.4016317584700033 L2.895117342370078 1.4047323444699629 L2.8959441653700324 1.4078070914699907 L2.8981145753701085 1.411036869469953 L2.9287070233701016 1.450259281470025 L2.9373886643700544 1.4563571004699867 L2.948240714370037 1.450259281470025 L2.9569740323700913 1.4373918504700072 L2.96860122937003 1.4260747114699512 L2.987411450370054 1.4248344764699965 L3.0006406163700277 1.4310614874699894 L3.0121127853700855 1.4416809934699728 L3.019347485370055 1.4552718944699876 L3.020277661370109 1.4705164434700038 L3.0126812253700237 1.4841331824700177 L3.0006406163700277 1.4934866164699514 L2.9897368903701036 1.504519535469953 L2.982243807370061 1.541778242469988 L2.977873578370044 1.5550200374699585 L2.977076164370068 1.5574362024699298 L2.9759392823700423 1.5705361774700037 L2.9847242753700485 1.5816207724700035 L2.9904086833700845 1.5825509474699544 L3.015730135370042 1.5808973024700066 L3.0248251873701193 1.584256269470032 L3.04053482237007 1.596736128469999 L3.049113110370037 1.6018779334700213 L3.0653395103700305 1.6058570184699903 L3.098102368370043 1.6077173704699845 L3.113398592370096 1.611593103469957 L3.1297283443700294 1.6228327264700084 L3.153086092370053 1.6490843544699345 L3.171379549370023 1.6582569214700271 L3.2030055253701235 1.6616158894699566 L3.2324610923700234 1.659652184470005 L3.2608831293700646 1.6621326534699818 L3.2894601963700225 1.6785657594699472 L3.29416275237012 1.6854904014700338 L3.302120922370058 1.7036029904699461 L3.30687515437004 1.709106530470038 L3.3157635013700784 1.7096232944699778 L3.3249619053700954 1.7053341504700228 L3.334677075370031 1.7023110794699932 L3.345425773370131 1.7065227094699509 L3.3479062413701186 1.7131889684700496 L3.3476995363700794 1.7346346884699955 L3.3490431233700306 1.7438330934699735 L3.35291885637006 1.751119469470055 L3.363925936370073 1.7655371944699851 L3.3683701083700512 1.7731594684699559 L3.3698687253700896 1.791582116469968 L3.361652173370125 1.8538005414700507 L3.3575180583701254 1.865479415470034 L3.3526604733701006 1.8744194374699674 L3.34914647637013 1.883902063470046 L3.3485263593700907 1.8971053914700207 L3.3521953853700452 1.9074406774699497 L3.364649405370052 1.927930383470013 L3.3669231693700468 1.9374130084699885 L3.3553476473701167 1.958936242470017 L3.3333334873700338 1.9619076374699347 L3.3160735593700466 1.9631478714699853 L3.31917414537012 1.9854462524700267 L3.3333334873700338 1.9974610224700058 L3.3774651613700613 2.0103284544699846 L3.379325512370066 2.0128347614699607 L3.3842864493700873 2.022420739469979 L3.387800447370047 2.0245394724699537 L3.3943116783700376 2.02309253246996 L3.4065073163701314 2.0175889934700564 L3.4121917243700537 2.017744022470012 L3.420098218370107 2.0220590044699662 L3.426661125370096 2.028208500470029 L3.4389601153701292 2.045623457469972 L3.4313120033700457 2.054253422470012 L3.4772523513700335 2.0794715214699835 L3.494253898370097 2.0934499954699817 L3.504175773370072 2.087403852469933 L3.51926529137004 2.085543501469928 L3.5354916913700905 2.087584720469991 L3.548824210370107 2.0934499954699817 L3.524432935370079 2.1243783404699883 L3.498388012370107 2.142077518469975 L3.4545147213700957 2.1473485144700106 L3.3359173093700534 2.142620121470017 L3.3197942623700456 2.1451005894700046 L3.301914217370019 2.1520769084699936 L3.2650172453701103 2.174814538469988 L3.245380200370029 2.17688159547005 L3.2254330973700363 2.1615853714699966 L3.223417717370104 2.1547124064700114 L3.2239861573700423 2.135385420469973 L3.2223325113700767 2.126290368470009 L3.2175782793700947 2.1179187864699287 L3.19680435437008 2.0951811564699625 L3.1441977453700716 2.0604804324700154 L3.131381990370052 2.045106693470032 L3.1310719323700837 2.0732186724699915 L3.1201165283701258 2.087946456469993 L3.099962720370037 2.093346643469957 L3.0716440343700597 2.093579187470013 L3.0652361573701015 2.0998837114699285 L3.070197094370066 2.1243783404699883 L3.0627556883701246 2.1406822544700077 L3.0493198163700654 2.1502165564699993 L3.0328867103701 2.1544540234699667 L3.0158334883700846 2.1532137894700014 L3.0002272053701304 2.1466250444699284 L2.9866879803700854 2.1339901564699773 L2.9728903733701273 2.1120793494700223 L2.958679354370055 2.1032426794700285 L2.9447267173700666 2.0996253294700438 L2.913307446370119 2.095465376470017 L2.8981145753701085 2.0911245554699605 L2.8923268153700192 2.0840190464700044 L2.8905698163700677 2.0764742874699635 L2.8925335203700584 2.068722823469969 L2.8981145753701085 2.0607646524699845 L2.903488924370073 2.053788334469985 L2.905452628370064 2.0469153684700387 L2.903695630370102 2.040404137469963 L2.8981145753701085 2.0342288044699757 L2.874860180370071 2.0315674674700546 L2.873971525370088 2.0319101084699724 L2.8540862553700563 2.039577314470037 L2.8354827393700717 2.053788334469985 L2.791971183370073 2.1000904174699855 L2.779362134370025 2.1003487994699555 L2.761482088370066 2.0821070184699835 L2.7380209883701028 2.047535485469993 L2.7239649983700716 2.044279870470021 L2.7063950113701267 2.064640385469957 L2.703191073370057 2.0767843464699496 L2.7079453043700497 2.09701566946994 L2.707325187370067 2.1060332074699915 L2.700503897370119 2.1188489624699827 L2.695439607370112 2.1203992544700014 L2.688618319370086 2.1188489624699827 L2.6764226803700595 2.1219237094700105 L2.64014582537002 2.149803144469999 L2.617924959370079 2.159156579469922 L2.60097508937006 2.1491055134699906 L2.600665031370063 2.138666874469962 L2.6075896723700467 2.1290808964700574 L2.616529695370083 2.119779138469923 L2.6228858963701 2.1101673214700014 L2.6248496013700233 2.0983850944700038 L2.6240227783701258 2.0137649374699294 L2.6174598713700234 1.9922933794699844 L2.601491853370085 1.9782373894699816 L2.600307120370026 1.9782345414700018 L2.5799944573700557 1.978185713469955 L2.492196199370092 2.012602217470018 L2.4731624313700777 2.0175362314700322 L2.437574210370066 2.02676156046995 L2.3630567953701203 2.0614881224699815 L2.3426962813700882 2.083502282469979 L2.3364951093699986 2.1116142614699953 L2.344556632370093 2.14825285246998 L2.3621266193700663 2.1955367874700045 L2.3630567953701203 2.2112980994699996 L2.357165682370102 2.2292814974699837 L2.3501376873701147 2.2436475464699726 L2.350757804370069 2.2572901244700034 L2.3678627033700153 2.273154788469995 L2.368017733370074 2.273206465470011 L2.4013599783700457 2.2950554084699917 L2.4270838943701065 2.3119121134700293 L2.4326132733701016 2.3336678914700286 L2.4207276933700896 2.357335696469974 L2.3980934163700525 2.384155765470055 L2.3636769123700745 2.411182539470005 L2.3560288003700194 2.426995527469998 L2.3584059163700672 2.4515935104699764 L2.3761826083700797 2.495260094470055 L2.374115552370121 2.514897139469994 L2.349207511370061 2.5231136924700053 L2.1748512283700805 2.5551014034700046 L2.1574879473700506 2.5630595744699605 L2.1464291913700677 2.577632328470017 L2.1456540443700547 2.594323815469963 L2.1595550053700165 2.6289470254699694 L2.163689119370055 2.6456901894700167 L2.162293856370077 2.6657923214699935 L2.155524242370042 2.678711429469999 L2.142811841370083 2.6874964234699945 L2.123639885370075 2.6951445354700496 L2.094546053370074 2.699692061470003 L2.0870012943700047 2.704239587469928 L2.0866395593700204 2.7099756714699907 L2.0891717033700914 2.7190190464699384 L2.0905152913700604 2.729406009469969 L2.0870012943700047 2.7389661494699595 L2.060853019370093 2.7497665244699903 L1.9939320393700157 2.7543657264700556 L1.9778606693700524 2.773072595470026 L1.9807732643700788 2.780782406469953 L1.9848886633700786 2.791676110469993 L1.9786874923700921 2.7996859574700608 L1.9497486903701216 2.8061971884700228 L1.9324887613700312 2.814258711470032 L1.9214300043700305 2.822578617469972 L1.898175610370096 2.846814863469959 L1.8912509683700378 2.858338707469997 L1.9001393153700477 2.865521732470043 L1.9157455973700692 2.8719812864700174 L1.9285613523700604 2.881231367470022 L1.9341424073700821 2.8952873574699396 L1.936002758370087 2.909239994469928 L1.940343579370058 2.9230376014699715 L1.9541411863701015 2.9364734734700306 L1.9276828533701078 2.945258467470026 L1.9218434163700309 2.949030846469938 L1.9209912243700629 2.950174030469938 L1.9154872153700992 2.957557458470049 L1.915228833370044 2.959831221469969 L1.9172958903700206 2.9616915724699737 L1.9237037673700357 2.995694665470026 L1.919259595370029 3.007528568470022 L1.898175610370096 3.0142981814699823 L1.8340968343700936 3.0124895064699757 L1.7591660073701192 2.998640221469927 L1.6877491783700478 2.994764489469972 L1.6876712133700735 2.9948057424700067 L1.6345224523700566 3.022928144470015 L1.6344190993700423 3.02308317446996 L1.6257374593700789 3.0348654014699576 L1.6188128173700207 3.047422774469979 L1.6167457603700441 3.0545024454699927 L1.5901840743701214 3.0319198444699538 L1.5831560793700206 3.0216879104699927 L1.5826393143700628 2.9879948764699265 L1.5812957273700263 2.9856694374700083 L1.5788152583700494 2.9835507034700157 L1.574991202370093 2.977349532470029 L1.5581963623700474 2.956058841469954 L1.535252026370081 2.9435531454699486 L1.479389803370033 2.9226758664699872 L1.4919988523700525 2.911410404470004 L1.5084319583701031 2.9002999714700053 L1.5249684163700934 2.891876713470012 L1.5380942293700812 2.8885694214700237 L1.5709604413700973 2.8887761264699776 L1.5852231373700718 2.883815189469928 L1.579021964370078 2.8708444054700095 L1.580985669370115 2.8547730344700284 L1.5722006753701194 2.7544690794699846 L1.5637257413701278 2.7451156454700225 L1.5461557533700514 2.7212411334699453 L1.530549471370115 2.690907068469997 L1.5277589443700563 2.661968266469941 L1.5322031173700807 2.6565422404699603 L1.5454322843700723 2.6498759804699574 L1.54832616437006 2.6449150424700036 L1.5463624593701084 2.641142663469978 L1.537474113370088 2.6284302604699263 L1.5346835863700576 2.6210405314700296 L1.536027173370094 2.613134037469976 L1.5400579343700898 2.6054859244699884 L1.5422283453700985 2.5978894894699494 L1.5380942293700812 2.589982995469981 L1.5320997633700486 2.5830583534700082 L1.5296192953700611 2.5770638874699756 L1.5277589443700563 2.565850101469934 L1.5033676683700392 2.515723961470016 L1.4999570233700936 2.5015646204699777 L1.5017140213700841 2.4916944214699726 L1.5141163663700539 2.456606123469939 L1.5138063063700784 2.4512317744699743 L1.5077084873700315 2.4482862184699883 L1.5073984293701201 2.4429118684699205 L1.510085603370051 2.437899255469958 L1.5180437743701205 2.434281905469973 L1.5250706473700362 2.4201734764699694 L1.5277543053701166 2.4147852754700097 L1.5446054603700432 2.3809518274699855 L1.550496574370051 2.3563021684699805 L1.5619687413700447 2.3330477734699713 L1.5587648033700887 2.3243144574700096 L1.5528736903700704 2.3174414914699497 L1.5465691643700623 2.3116020544700433 L1.5282240313700939 2.2906730994700553 L1.5262086513700481 2.2821464884699623 L1.5380942293700812 2.278425785469935 L1.5493596923700252 2.2763587284699867 L1.551736808370073 2.270932702470006 L1.54832616437006 2.253879480469962 L1.55246027837007 2.2469548374699713 L1.5621754473701017 2.2433374874699865 L1.5735442633700885 2.2409086944700363 L1.5830010493700755 2.2374463744699966 L1.5950416593700325 2.229229821469957 L1.6085808843700207 2.208507572469941 L1.6101311763701247 2.205045251469997 L1.6092010003700992 2.1927720984699732 L1.6051702393701035 2.1724890994699564 L1.6075990323700537 2.1652027214699814 L1.619639640370032 2.1623605184700097 L1.6243938723700992 2.158123051469957 L1.6301816323700749 2.127582279469962 L1.6367962153700901 2.1229314004699944 L1.6440441833700916 2.1207281834700353 L1.6458912683700717 2.1201667114699347 L1.6505421473700395 2.114508142470001 L1.643307446370052 2.1009172404699967 L1.6574667883701082 2.0960079784699843 L1.6633062253700999 2.088411543470002 L1.6644947833700101 2.0800916384700514 L1.664391430370081 2.0490857784700296 L1.6630478433700162 2.0407658734700505 L1.6595855223700724 2.0397581824699813 L1.6553480553700197 2.04068835846995 L1.6513689693700613 2.0382078904699625 L1.6383465093701162 2.020508711469958 L1.6362794513700365 2.0125505414699916 L1.6383465093701162 1.9750851274700238 L1.6420155353700991 1.9675403684699546 L1.6513689693700613 1.9631478724699747 L1.6426873293700979 1.9467147664700093 L1.6477516193700765 1.932374556470009 L1.6577768473700942 1.9198946974700135 L1.664391430370081 1.9091201624699892 L1.6645981363700528 1.8954517454699698 L1.6623331443700309 1.8848251604700152 L1.6614975503700933 1.8809048294700261 L1.6513689693700613 1.8538522174699636 L1.5953517173701144 1.7764409214699555 L1.5954033933700558 1.757630700470017 L1.5550440993700718 1.7100367064700066 L1.5387660233700515 1.6819764034699887 L1.5398631223700434 1.6740069134699667 L1.5415048743700837 1.6620809774699836 L1.5415048743700837 1.654639571469957 L1.530342765370058 1.6448468864699777 L1.5315829993701087 1.63288379246994 L1.530807853370085 1.6215149784700458 L1.5141163663700539 1.613660159470001 L1.5226946533700882 1.5985964794700038 L1.522241935370097 1.5960916894699864 L1.5195423913700452 1.5811556844699766 L1.4999570233700936 1.544749637469991 L1.4863144443701017 1.5277739294699728 L1.4553941723700419 1.5007934974699566 L1.4542750573701042 1.4998169794699692 L1.4452833573700516 1.4833063594700064 L1.4255429603700875 1.4899726194700094 L1.403838859370076 1.4830479774699228 L1.3803777593700275 1.472893558469977 L1.3559864823700778 1.4696379434699764 L1.3556764243701096 1.455220218469961 L1.343170727370115 1.4475204304699645 L1.3148520423700987 1.434859704469929 L1.2842595943700204 1.411631147470004 L1.2749578363700849 1.4069544314699414 L1.2654493733700818 1.4048615354699763 L1.2610052003700858 1.4018901414699627 L1.2671030193700474 1.3945520874699895 L1.2671030193700474 1.38775663647003 L1.2237981693700775 1.3716594274700498 L1.211912589370037 1.3604456414700081 L1.2231263753700787 1.3580426884699506 L1.2249350503700853 1.3538052204699937 L1.2220411703700975 1.3477849154699726 L1.2193539953700636 1.3399300984699352 L1.217596997370073 1.339309980469963 L1.2055563883700202 1.3119989864700443 L1.1802866133700505 1.2899589884699623 L1.1696412683700501 1.2773499384700386 L1.1708815023701007 1.2648442424700335 L1.1505209883700687 1.2406596714700555 L1.1400823483700222 1.2329598834699738 L1.1150709553700224 1.228774092470033 L1.107112785370056 1.225389286470019 L1.0995680263701004 1.2210226274699352 L1.088974356370052 1.216423424469994 L1.0619475833700918 1.2122893104699557 L1.0541961183700792 1.209602136470025 L1.0412770093700843 1.1948485144700243 L1.0171957923700532 1.1555485884700403 L1.0059718253700467 1.148887034469979 L1.003656567370065 1.1475129024699555 L0.9896005783700517 1.1410791874699981 L0.9975587483701034 1.110280032470044 L0.9797820553700731 1.0997380414699904 L0.9827792893700931 1.088007490469991 L0.9866033443700317 1.0777238804700033 L0.9920293703700978 1.0700240924700068 L1.0002459223701194 1.06560575747001 L0.9931145743700895 1.0558647504699508 L0.9804021733700452 1.047932417469994 L0.9654160073700737 1.042015466470005 L0.9517734293700713 1.038294762469988 L0.9502231363700346 1.0388632034700294 L0.9244882733700379 1.038294762469988 L0.9187005133700623 1.0363310584699406 L0.9147731033701021 1.0338505894699637 L0.9098121663700525 1.0317318564699889 L0.9009238203700605 1.0308533564699616 L0.890381827370085 1.02449715547003 L0.8839739503701267 1.0099244014699735 L0.8767392493700825 0.983052657469969 L0.8741554283700808 0.9823808634699986 L0.8633033773701086 0.9813990104699286 L0.8593759693700704 0.9796420124700518 L0.8573089113701045 0.9752495154699687 L0.8575156173700478 0.9661803014699757 L0.8562237053700201 0.9625629514699909 L0.8530714433700339 0.9563359414700159 L0.8485901333700738 0.9436388974699952 L0.8466517253701014 0.9381467404699464 L0.8456300373701211 0.9352519574699869 L0.8143141193701027 0.9271904334699883 L0.7864088463701151 0.9079668004699641 L0.7212965413700445 0.8497274614700387 L0.6983522053700213 0.8232691284699598 L0.6892571533700291 0.8013066444699888 L0.7123048423700951 0.7981027054700149 L0.7123048423700951 0.7918498574700124 L0.7068271403701161 0.7845893184699406 L0.708377433370039 0.7738664584700388 L0.7053622943700546 0.7655963654700173 L0.7047600823700364 0.7639445834699501 L0.6996957923700577 0.7605856164699247 L0.6819190993700559 0.7517231074700277 L0.6780950433700994 0.7472014194699881 L0.6734441643701317 0.7387264844699786 L0.6621270263700652 0.7236886434699983 L0.6483294193700218 0.7091934034699676 L0.6364438393700951 0.7025013064700403 L0.6706536373700729 0.6881869344699538 L0.6630572023700338 0.6796861604699558 L0.6521534753700635 0.6760688104700563 L0.6400611903700693 0.6736141804699827 L0.6296225503700228 0.6683431844699754 L0.6304493733700625 0.6621420124699711 L0.6287957273700968 0.6312653444699805 L0.6296225503700228 0.6267694944699684 L0.6114324463700953 0.6122225784700248 L0.5887981683701256 0.6036442904699726 L0.577946118370086 0.5945492394699983 L0.5955161053700593 0.5783486774700037 L0.5955161053700593 0.5741807654700466 L0.5955161053700593 0.5721475054700278 L0.5892115813700585 0.5698479044699951 L0.5682309483700649 0.5584790894699978 L0.5801165283700769 0.5512702264699527 L0.5870411703700498 0.542485233469975 L0.5860076413700668 0.5332093134700386 L0.5744321203701261 0.5243209674700182 L0.5609962483700954 0.5294369344700129 L0.551849520370105 0.5158201944699243 L0.5387237063701278 0.5030819544699767 L0.513040519370044 0.5106783894699305 L0.5106117273700832 0.5078361854699693 L0.5086996993700623 0.5044255414700132 L0.5072527593700684 0.500653161469998 L0.5062192303700002 0.4964673704700573 L0.52657974537005 0.4901886844699703 L0.52657974537005 0.48277311547003876 L0.5004314703700246 0.4726186964699792 L0.4764536053701036 0.45822681146997013 L0.4589869713700594 0.43900317847003123 L0.45154556437004345 0.414508548469982 L0.45412938637006306 0.4089274944699781 L0.4646713783700207 0.3997807664699877 L0.4652025923700833 0.394867045469951 L0.46529149637007805 0.39404468146993565 L0.46002049937005296 0.388980391469957 L0.4509254473700892 0.3838902624699898 L0.44234716037005484 0.3812289264700581 L0.4299448153700851 0.388153568470031 L0.411237947370104 0.3838644244699623 L0.38384943837005636 0.3729090204700043 L0.38384943837005636 0.3666820104700008 L0.40348648237009144 0.365855188469979 L0.4148552983700782 0.35833626647003314 L0.4148552983700782 0.34970630347000053 L0.3803354413700859 0.340895470469988 L0.37289403437006996 0.3302759634700152 L0.3678297443700913 0.31875211946997695 L0.3553757243700275 0.3114657434700092 L0.346332348370062 0.3172276654699573 L0.3349635343700825 0.32831225946996767 L0.325248364370033 0.33174874246999764 L0.3212176023700479 0.31482471047000615 L0.31491307737011454 0.3073057904699823 L0.2727451093700566 0.2784445024699238 L0.2619964113701272 0.2829661904699634 L0.239155428370033 0.2637425574700245 L0.22215388237010103 0.25800647346996186 L0.18096776537002057 0.26353585246998534 L0.1612790443700831 0.26069364846999576 L0.15037531737002752 0.24552661546998422 L0.13962661937009813 0.25650785746996974 L0.1287228923701278 0.2549575644700468 L0.10577855637010458 0.24144417646998306 L0.08298925037011173 0.2420642944700404 L0.03513687336999993 0.25730884146999244 Z" fill="black" stroke="black" stroke-width="0.5" vector-effect="non-scaling-stroke"/></svg>