<svg xmlns="http://www.w3.org/2000/svg" viewBox="0 0 32.81474431103999 10.754307910560016"><path d="M29.270282108520036 2.411753564279934 L29.058925499519916 2.7185565432799024 L29.04373262951995 2.742224349280008 L28.833771285019992 3.0535490157799643 L28.623809940519976 3.364873682280006 L28.619572472519934 3.382650374279933 L28.633628462519965 3.417325261279956 L28.634041873519976 3.435256982279924 L28.61419812451996 3.4675547522799945 L28.386408410519977 3.7046462242799407 L28.37721000551997 3.7211826832799204 L28.37255912652003 3.7420082842799616 L28.37255912652003 3.7620070632800093 L28.39529675651991 3.961064681279993 L28.385994998519976 3.9926906582799973 L28.356849490520034 4.010932438279951 L28.122445194519884 4.085863265280011 L28.100224327519953 4.103381575279968 L28.100534387520014 4.11291587727996 L28.131850305520032 4.242029443279932 L28.14786999851995 4.30181907527998 L28.161719282519954 4.325280176279961 L28.18590385252 4.347604394280012 L28.43870495951998 4.5294537592799315 L28.500509972520007 4.551106185279906 L28.558904341519934 4.525965600279989 L28.67031872951995 4.42809043827998 L28.767573774519946 4.385431543279992 L28.829895552519957 4.372124862279975 L29.014897179520034 4.399875106280007 L29.085693892519913 4.398660709279994 L29.33766817651994 4.360885238279934 L29.408051476519887 4.3587148282800285 L29.439264041519976 4.362900619279969 L29.558843306519947 4.3973687992799455 L29.633360721520006 4.415558903279987 L29.655684939519944 4.424860661280007 L29.903111698519893 4.580949325280017 L29.946829959519874 4.584153263280001 L29.985897342519962 4.54934918628004 L30.022484256519903 4.504519881279947 L30.058864465519974 4.477777327279995 L30.1132280715199 4.448528467279942 L30.32768526651992 4.25742902028 L30.352903365519893 4.241874414279977 L30.401169152519884 4.230195541280011 L30.558782270520027 4.237120182279995 L30.583173547519976 4.235027287279934 L30.650042850519952 4.2154419192800106 L30.708540572520036 4.2075095862799685 L30.768485232519907 4.20681195527996 L30.792256392519988 4.211721216279983 L30.84031547451994 4.232159245279945 L30.866050337520022 4.2368876382799385 L31.058803429519998 4.245569279280005 L31.128256555519982 4.268771997279998 L31.191250125519986 4.320345076280006 L31.299305545519957 4.441397119279998 L31.353410770519957 4.478862533279994 L31.558617883519986 4.539892399279978 L31.64558931851994 4.561544824279963 L31.669463830520016 4.573456242279974 L31.682951379519892 4.588416569279957 L31.690237755519973 4.6072784672799685 L31.702536746519883 4.67897951727997 L31.708117801519933 4.696058578280002 L31.719900028519902 4.707479069279998 L31.74356783351996 4.717349267279985 L31.83705049951996 4.7420764402799875 L31.87704805951992 4.750628890280012 L31.896116662519972 4.758922957279964 L31.903764773519953 4.772901433279969 L31.898597131519892 4.782771630279967 L31.874825971519982 4.8058709962799355 L31.867901329519924 4.820159530280023 L31.90665865451993 4.827988509280033 L32.061998009519954 4.925811995280014 L32.07667411651997 4.93785260528 L32.08990328351993 4.955836002279966 L32.09899833552001 4.972346622279957 L32.11109062052 4.984206363279981 L32.17336072151991 4.996660384279977 L32.215425337519974 5.018932926279916 L32.28596366752001 5.07549278227998 L32.31490246951998 5.106369450279971 L32.33996553851992 5.140579248279977 L32.346528445519965 5.160422998279955 L32.34771700451998 5.219540837280022 L32.35097261951998 5.231193872279988 L32.35329805952003 5.236904118279938 L32.35614026251997 5.242020085279933 L32.37029960451994 5.256696191279929 L32.403424197520025 5.280105615279979 L32.417686893519914 5.292869694279943 L32.42285453652002 5.301447982279996 L32.42569674051995 5.309354476279935 L32.42952079651994 5.316847559279978 L32.438305790519934 5.324288965279976 L32.44895113452 5.325994287279968 L32.46522921051994 5.326872786279978 L32.478923465519955 5.3295082852800135 L32.482437462519925 5.336432927279986 L32.47644299651998 5.346768213280001 L32.47096529551996 5.3541062662799845 L32.46745129751994 5.362167790279983 L32.46724459251996 5.374466780279931 L32.469104943519966 5.379582747280011 L32.472825646519965 5.383561833279998 L32.47763155551999 5.386533227280012 L32.482799198519984 5.388548609279951 L32.488897017519974 5.392605209279964 L32.48812187051996 5.397669499280028 L32.48491793151996 5.403767318279989 L32.48398775552002 5.410640283279946 L32.48465954951993 5.432964502280015 L32.471895470520025 5.464952214280004 L32.469104943519966 5.482005436279934 L32.47318738151998 5.490738754280017 L32.48936210551997 5.508618798279969 L32.493031131519984 5.516706161279984 L32.490188928519984 5.526085433279917 L32.48398775552002 5.533371810279988 L32.47633964351988 5.5402447762799625 L32.45866630351995 5.561793848279933 L32.440424523519965 5.575358911280006 L32.420425744519974 5.584066390279986 L32.403269168519984 5.583394596279987 L32.38228853752 5.576185734279932 L32.368232547519966 5.5793896732799055 L32.35603690951987 5.591456120279986 L32.34043062652003 5.610628076279994 L32.32627128451989 5.6217643472800205 L32.305652388519974 5.632306339279978 L32.28379325651994 5.640135319280006 L32.266119917519944 5.643390934279978 L32.244777551519945 5.638843408279968 L32.20948254751991 5.618689600279993 L32.18819185751997 5.61533063127996 L32.161888553520015 5.615847396280003 L32.08726778551991 5.607010726280009 L32.03895032052 5.607527490279949 L31.94929171051993 5.621971053279964 L31.90293795151993 5.62334047927996 L31.648379845519997 5.5740670002799675 L31.622955040519884 5.566289697279956 L31.60006238151996 5.551716943279985 L31.570916874519952 5.510479150279991 L31.553243533519918 5.494562809279955 L31.533038049519945 5.497870100279954 L31.508078332519887 5.519522526279928 L31.493092166519915 5.525620345280004 L31.476555708519896 5.521486231279965 L31.46565198152004 5.5076886232799325 L31.461207807520026 5.491048812279985 L31.453456343519946 5.476682764279985 L31.432527388519958 5.469525578279956 L31.402244998519933 5.476837793279941 L31.378215457519985 5.497249984279989 L31.33981986852004 5.543862126279947 L31.306075158519974 5.558279850279973 L31.270625125519956 5.551561914279944 L31.233418094520033 5.537299219279959 L31.195384240519928 5.529237695279988 L31.181173221519913 5.531976546280021 L31.153733035519878 5.545283227280038 L31.13797172451993 5.549262313279911 L31.058803429519998 5.549339827279937 L31.021182987519893 5.543862126279947 L30.957207564519905 5.521046980279948 L30.921550825519972 5.512856266280011 L30.88682426251998 5.510169092279995 L30.85499158052002 5.5120811202800155 L30.824295780519975 5.519625879279971 L30.792049686520016 5.534095280279985 L30.755049360519962 5.556522852279983 L30.741510135519974 5.560450261279954 L30.687973351519958 5.561948877279974 L30.669886599520026 5.566754785279983 L30.591545128519925 5.608044255279992 L30.558782270520027 5.611609928279961 L30.50979301352001 5.6198264812800005 L30.486641971520015 5.627422916279954 L30.464317752519975 5.638636702279996 L30.445300825519922 5.654733911279976 L30.418739139519886 5.692225163279971 L30.40302950351989 5.707547225279939 L30.38359916551994 5.714756087279994 L30.28221000552 5.722765934279948 L30.259369022519905 5.718993554279933 L30.21120658751991 5.6993565102799835 L30.19353324751998 5.684473698279959 L30.16800508951988 5.643029199279994 L30.15415580651998 5.631479517279956 L30.14227022651997 5.633417382279987 L30.09607149652001 5.656542586279954 L30.087803267519945 5.657756982280006 L30.077778038519938 5.65592246928 L30.058864465519974 5.650341415279968 L29.979799523519915 5.663648096279985 L29.99612927651995 5.6952223962799735 L29.998506392519886 5.710389428279996 L29.991478397520012 5.724212874279942 L29.95520154152004 5.759327010280003 L29.943522667519943 5.786612166280008 L29.939078494519975 5.855522689279923 L29.923472211519908 5.877743555279977 L29.887712121519968 5.884874902279904 L29.543857141519965 5.868596826279969 L29.41766329351995 5.848649723279976 L29.400610070519946 5.848287989279953 L29.39058484252004 5.852112044280005 L29.370844445519964 5.869113590279937 L29.3080059035199 5.906320622279935 L29.29332979751993 5.910790633279959 L29.231214725519948 5.91655255628001 L29.189563521519887 5.92569928428 L29.16796357951992 5.9370059992799895 L29.154320194519954 5.944147771280001 L29.134269738519976 5.97572207028 L29.12558809751991 5.993808821279998 L29.11111869651998 6.008226546280014 L28.943170291519976 6.12945945627996 L28.799199751520035 6.3268634282800065 L28.79310193251999 6.354148584280011 L28.806951216519934 6.385257796279973 L28.828138553520006 6.408098779279982 L28.837647017519913 6.431766585280002 L28.816356326519923 6.465252914280001 L28.755894900519962 6.525921045279972 L28.72995333252001 6.540390446280014 L28.680860721519963 6.558477197279927 L28.6647376745199 6.56162945927997 L28.64933809752003 6.5616811362799865 L28.597971723519976 6.556461817279967 L28.58815320151993 6.55945904927998 L28.568826216519966 6.575375391280005 L28.353335493520007 6.704876530279904 L28.278404666519947 6.766061426280032 L28.253393273519947 6.7807375332799324 L28.223834354519937 6.790659407280003 L28.058986535520006 6.822233708279981 L27.92328422451996 6.840320459280008 L27.712341027519955 6.840578841279978 L27.52485893051997 6.861249414279996 L27.49126924951989 6.857270329279999 L27.32332084551993 6.8099863932799565 L27.289317752519906 6.807867660279982 L27.255314660519872 6.812208479279974 L27.119715701519937 6.849518864280014 L27.109793826519905 6.85473818327992 L27.105453006520037 6.864091617279968 L27.09770154151991 6.909515202280005 L27.08829643051999 6.931787744279973 L27.059047570519937 6.975816064280025 L27.004890669519938 7.03353864028 L26.797771528519917 7.172858301279973 L26.74960909351998 7.194872461279942 L26.735346398519965 7.204949365279987 L26.72521781752002 7.215853093280032 L26.70640759551995 7.241794661279982 L26.675298384519948 7.273265609280031 L26.641295291519924 7.294452946279904 L26.60305473251995 7.307733789280007 L26.559129764519895 7.315691960279963 L26.49980521951997 7.319567692280003 L26.475310591520014 7.3267507162799745 L26.423634158520002 7.36711001027993 L26.321624881519966 7.419096501279967 L26.258476281519933 7.4668455242799325 L26.221062544519924 7.488756332279991 L26.190780155519946 7.495319238279961 L26.118433149519973 7.4897381842799575 L26.103136925519976 7.485500716280001 L26.074921594519964 7.468757552279953 L26.059211958519967 7.464313379280043 L25.690862348519914 7.440645573279937 L25.602909060519977 7.413928857279956 L25.559190799519996 7.413773828279915 L25.334501672519963 7.3697455072799585 L25.20024630051998 7.326182276279923 L25.172030968520033 7.3111961102800365 L25.15053357251989 7.291093978279974 L25.10991589752004 7.241742985279984 L25.027336958519896 7.182625147280021 L24.99881156751988 7.168982568280001 L24.965635298520027 7.164280013279921 L24.69361055852002 7.167638981279936 L24.597492395519936 7.147536849279987 L24.57064152851993 7.1478642992799735 L24.55935518751997 7.148001937280014 L24.544265668519955 7.150482406279991 L24.53393038351996 7.15730369527995 L24.52452527251998 7.166037011279997 L24.512743045519954 7.174098535279995 L24.492279178519908 7.180868148279927 L24.44918103451991 7.1887229662799825 L24.429337283519914 7.19549257828001 L24.372493208519955 7.226446761279931 L24.346654992519944 7.245722070279953 L24.324537479519933 7.2687180832799925 L24.137365441519904 7.541828027280019 L24.127030154519986 7.566787744279992 L24.12609997951992 7.5828074392799465 L24.130440799519903 7.61691388427991 L24.12982068251992 7.63376040128 L24.124239627519927 7.651588769279925 L24.116178103519957 7.66440452528002 L24.094990767519988 7.688434066279939 L24.069772668519903 7.728586654279951 L24.059230675519956 7.739697087279978 L24.056853559519908 7.741712468280014 L24.032875695520005 7.759127425280042 L24.010138064519907 7.786981022280003 L23.99236137251998 7.818555322279991 L23.983059614519988 7.847649154279992 L23.982439497520005 7.888421859279987 L23.99659883951992 7.908937402279946 L24.059230675519956 7.936170883279971 L24.076593957519975 7.952397282279975 L24.08413871651996 7.970587386279902 L24.089719770519963 8.00929303427992 L24.105429405519914 8.04644838927993 L24.12982068251992 8.078281071279974 L24.220461144519987 8.16907656227994 L24.25415417851994 8.193674545280004 L24.36670544751999 8.248813298279998 L24.39740124951996 8.270724105279953 L24.424789757519903 8.296226424279979 L24.51656710151994 8.414875513280009 L24.530313032519956 8.448646061279902 L24.53393038351996 8.478049951279985 L24.53113985551991 8.511148706279982 L24.519357629519988 8.53838218627999 L24.496413293519964 8.55003522128004 L24.479256717519974 8.552412337280003 L24.431817752520004 8.568096134279955 L24.35864392452001 8.565719018279907 L24.33983370351993 8.571816837279954 L24.18325411351995 8.711627425279943 L24.15369519351995 8.732478865280001 L24.12103568851998 8.74428693127993 L24.014685591519964 8.751082381279986 L23.98740043551996 8.759505640279968 L23.92456189251996 8.79684186227999 L23.68209607252001 8.868362044279934 L23.559416223519946 8.919418359280002 L23.51972872252 8.947246118279963 L23.382992882519915 9.086100692279985 L23.26610079251995 9.177361271280006 L23.25173474451995 9.197618432279995 L23.227033410519965 9.247227808279973 L23.19416719951991 9.290351790279999 L23.152722700519945 9.324458235279963 L23.059395063519986 9.380113753279971 L23.035417199519912 9.397683741279963 L23.010819217519924 9.449773584279995 L22.992732466519982 9.466413396279933 L22.72587536951997 9.552402979280004 L22.691665571519906 9.568345158279925 L22.679159875519957 9.57715599027992 L22.670271528519976 9.584959131279959 L22.66086641751994 9.591496199280016 L22.646190310519927 9.596663842279924 L22.6287236775199 9.599066797279988 L22.573326541519947 9.598550033279935 L22.49870577351996 9.60619814428 L22.253346073519907 9.686038233279902 L22.104311242519913 9.767686995280002 L22.09635307151993 9.770270817279993 L22.090875370519967 9.770089949279935 L22.086017785519942 9.771691919279988 L22.079816613519966 9.779805119279985 L22.07609591051991 9.78373252828004 L22.071134972519957 9.785722070280002 L21.914555383519968 9.794532902279997 L21.86628959551993 9.806702702279978 L21.839417850519936 9.809079817279951 L21.580467248519966 9.785489526279946 L21.547290978519953 9.787479069279982 L21.448692346519948 9.826158878279983 L21.414534224519997 9.834969710279978 L21.382856570519976 9.836649194280028 L21.122459029519945 9.799907251279961 L20.905779747519972 9.802465235279954 L20.820772016519953 9.784946924279978 L20.763359500519954 9.780709456280022 L20.635684483519952 9.795898832279931 L20.208400700519945 9.846732381279963 L19.781116917519995 9.897565930279967 L19.35383313451993 9.948399479279956 L18.904222335019966 10.094966760779954 L18.454611535519945 10.241534042279937 L18.05985526852001 10.394677148280039 L17.988748497519992 10.423486759279967 L17.944203413519944 10.449169946279966 L17.93056083551997 10.453898340280034 L17.911957320519917 10.458316675279946 L17.860487593519935 10.479555688280016 L17.80426363451997 10.486583683279918 L17.78690035351994 10.491544621279957 L17.60081352051995 10.638874129279998 L17.559834110519915 10.648873519280016 L17.521438520519922 10.612596663279959 L17.499682743519912 10.596680322279951 L17.47834037651998 10.590246607279994 L17.187247033519924 10.589574813279995 L17.090922163519934 10.578464380279996 L17.083997521519933 10.56924013727999 L17.086788048519992 10.364420598279935 L16.69688936702002 10.421936467279949 L16.306990685519935 10.47945233627999 L16.27743176651998 10.47578330927999 L15.98411633701997 10.358606999279942 L15.690800907520014 10.241430689280008 L15.690387495520014 10.241379012279992 L15.659484989519996 10.230501123279936 L15.313046187186643 10.170470334280026 L14.96660738485329 10.110439545280002 L14.620168582519995 10.050408756280007 L14.560223921519906 10.02712852327997 L14.472477339519997 9.957003605280022 L14.321375451519913 9.773862329279979 L14.22360364151993 9.719576237280023 L14.11094901851996 9.69756207727994 L13.996744103520001 9.690146508279923 L13.804714480519948 9.705184350280007 L13.404136002853335 9.656289832946698 L13.003557525186608 9.607395315613275 L12.602979047519938 9.558500798279965 L12.557555464519993 9.558733342279936 L12.207907745519918 9.637575831279975 L12.060479861520008 9.67081952327996 L11.654359019020006 9.631108110279968 L11.248238176520005 9.591396697279947 L10.842117334020003 9.551685284279955 L10.435996491520001 9.51197387128002 L10.107635963519925 9.479866037279947 L9.779275435519907 9.44775820327996 L9.776684050520004 9.44795694527997 L9.418673509019953 9.475414031779962 L9.06066296751996 9.50287111828004 L8.96526827351991 9.51447247727998 L8.952344217519936 9.512095818279988 L8.943770877519995 9.51051923028001 L8.936639530519955 9.494111963279948 L8.923203657519906 9.368538232279946 L8.916692426519916 9.345309676279925 L8.904703494519964 9.324949162280006 L8.880312218519947 9.301746443279995 L8.494495975519925 9.020471623279974 L8.460389530519961 8.987915471280019 L8.440959191519966 8.950475895279965 L8.431450728519991 8.908540471279963 L8.427419965519988 8.862496769279943 L8.418841678519954 8.826116561279974 L8.278488488519912 8.604476343279941 L8.175238976519978 8.365524519280001 L8.121288781520008 8.277338689279958 L8.096277388520008 8.255892969279927 L8.060930708519919 8.248399886279998 L8.00873751151991 8.246384505279934 L7.913549523519947 8.228349430279934 L7.904971235519923 8.21791079127999 L7.904764529520008 8.194294661279997 L7.9142729935199725 8.136778792279955 L7.907451704520014 8.086600977279943 L7.908691938519979 8.076782455279954 L7.913136111519947 8.06670555027992 L7.926571984519995 8.04748191728001 L7.933496626519997 8.020093408279962 L7.94569226451992 8.003195215279959 L7.975251184519919 7.974256413279903 L7.983726118519968 7.954516015280035 L7.965432661519941 7.947901432279934 L7.622817915519903 7.980044173279964 L7.579823124520004 7.975600000279968 L7.491766483519967 7.940770085280008 L7.306868208519944 7.8992222332799145 L7.284233930520003 7.891522445280032 L7.269971236519922 7.878396631279969 L7.258602420519907 7.861240055280007 L7.243202843519924 7.846202213280009 L7.174059777519943 7.798918278279956 L7.0463156365199495 7.741712468280014 L7.016136600519957 7.730550358279999 L6.952367882520008 7.730705387279926 L6.924462609519907 7.722902246279915 L6.907926150519955 7.706985905279993 L6.881467817519962 7.663629379279911 L6.86348441851996 7.6454392742799655 L6.781008833519962 7.580688704279964 L6.767883019519985 7.574177474279992 L6.7513465615199095 7.569164860279955 L6.73501680851993 7.567821273279975 L6.68974825351998 7.583375879279998 L6.644583052520005 7.583737614279983 L6.561073937519922 7.57505597328003 L6.513428266519924 7.562085189279998 L6.460511599519947 7.520795719279903 L6.300004601519987 7.360443750279927 L6.274269738519962 7.3439589682799635 L6.1112822715199115 7.283755924280001 L6.006585819519927 7.279931869279949 L5.985915246519909 7.274454166279952 L5.9473646275199314 7.256625797280009 L5.927004113519928 7.250166243279978 L5.90323295451995 7.249132715279984 L5.85496716651997 7.25492047527996 L5.830162479519998 7.253473535279966 L5.751717654519979 7.227376937279985 L5.7251559685199425 7.225154850279978 L5.661945294519938 7.2298259612799995 L5.638442915519903 7.231562728280011 L5.619115930519939 7.227376937279985 L5.599892297519915 7.225723291280019 L5.58046195751993 7.226653467279988 L5.560928266519937 7.23032249427996 L5.531059289520016 7.229185612279963 L5.5022238405199175 7.2204522952799834 L5.4470334105199925 7.1971462242799475 L5.433597538519933 7.195905989279936 L5.400214562520006 7.20112530928003 L5.384918338520009 7.201848780279931 L5.338719608519995 7.197042871279933 L5.224514692519932 7.219418766279915 L5.15805880051991 7.22200258828002 L5.061113814519928 7.23755719427993 L5.044990766519987 7.237092106279931 L4.999825565520013 7.22375958728 L4.982462284519983 7.221899235279977 L4.933369673519934 7.227376937279985 L4.917039920520011 7.227170231280013 L4.871357954519993 7.215491357279944 L4.853891320519921 7.215491357279944 L4.804902062519915 7.224896468280008 L4.77968396352 7.2205039722799995 L4.694417850520011 7.176837386279942 L4.66165499152001 7.166140364279926 L4.628995486519926 7.160197575279938 L4.595405806520006 7.158802311279942 L4.561092654519911 7.1616445152799315 L4.505075402519964 7.169447656279942 L4.332992882519903 7.162574691279957 L4.31066866351992 7.164280013279921 L4.269637576520012 7.173840153280025 L4.248967003519994 7.175493799279963 L4.149954959519988 7.157872136279991 L4.138276085520005 7.159680811279969 L4.12928438651997 7.163194808280025 L4.119982628519921 7.163918278279937 L4.107786990519941 7.157562076279902 L4.042054569519934 7.097565739279986 L4.024484581519999 7.088884098279948 L4.002883833519917 7.089349186279975 L3.985727257519983 7.0981341802799705 L3.9696042115199646 7.110794906280006 L3.9525509875199702 7.120768457280008 L3.932707238519953 7.121285221279948 L3.8351421345199412 7.105317204279999 L3.7703398875199525 7.081184310279951 L3.7557671335199814 7.071469141280005 L3.733752973520012 7.047801334279967 L3.7210405715199215 7.0371559902799845 L3.687347537519912 7.024340234280004 L3.642802453519977 7.017467269279933 L3.5973271925199413 7.016072005279966 L3.561153690520001 7.020154443279978 L3.491493859519977 7.049041569279922 L3.4592477655199048 7.04883486327995 L3.4436414825199506 7.01994773827991 L3.446328657520013 7.00335960228 L3.4519097125200062 6.992455876279934 L3.452633182519918 6.9814487952799595 L3.4404375445199946 6.964395573279916 L3.4231776155199043 6.954990462279966 L3.3825599405199966 6.942174707279975 L3.3769788855199465 6.930702539279963 L3.3764621215200066 6.8973195642799965 L3.3640597765199516 6.8697243492800055 L3.348556848519962 6.843421045279939 L3.339255090519913 6.814068831279968 L3.323958865519927 6.7932949062800105 L3.258329797519906 6.759343489280013 L3.2371424595199585 6.7418768562799585 L3.282617720519937 6.504992090279984 L3.296777062519965 6.482822900279984 L3.5052397895200045 6.284953841280014 L3.561153690520001 6.24769513327999 L3.5722124465200125 6.241907373280014 L3.588438845519903 6.2131752772800155 L3.591436079519923 6.166924870279956 L3.581927615519959 6.121294580279937 L3.561153690520001 6.094474512279959 L3.534798709519947 6.066724267279909 L3.4851893345199585 5.953346175279904 L3.482192101519928 5.932985661279986 L3.492010623519917 5.917715275279932 L3.5217762485200126 5.891153589280009 L3.561153690520001 5.818470687279955 L3.5721090935199697 5.799763818279985 L3.5874053185200125 5.759972966279975 L3.60011771952 5.741834537279942 L3.6216151155199157 5.705945256279989 L3.631330285519965 5.683931096279906 L3.6335006955199276 5.6686090332799495 L3.618514529519956 5.65509564627996 L3.5973271925199413 5.649695459279911 L3.581927615519959 5.640393701279976 L3.5840980265199107 5.614762190280004 L3.597740603519952 5.572077458280006 L3.600296209519996 5.545174522280007 L3.601564659519994 5.53182151727998 L3.590815961519951 5.494588647279954 L3.561153690520001 5.460869776279907 L3.525393598519969 5.4361684402799995 L3.511337609519984 5.421879907280015 L3.5059632605199056 5.401390202279941 L3.5087537875199644 5.3934320312799855 L3.5204326615199477 5.3781874842800335 L3.522499718519981 5.370591048279977 L3.518779015519982 5.360229923279945 L3.511854373519924 5.3543646482799545 L3.5036894975199573 5.349610417279962 L3.4961447385199165 5.342634099279962 L3.486326216519984 5.324340642279907 L3.479711632519951 5.306848169279959 L3.4711333445199273 5.290285873279942 L3.4558371205199876 5.274679590280016 L3.4354766075199734 5.261812158280009 L3.4141859165199833 5.25271710627996 L3.3915516395199177 5.248169580280006 L3.3678838335199828 5.248686345279964 L3.328403039519941 5.24315696627994 L3.2981206505199054 5.2203159832799315 L3.054724653519912 4.926096216280001 L3.052347537519978 4.918680648279974 L3.05451794851993 4.911497624279946 L3.06123588351997 4.904728011279985 L3.0715711705199453 4.890103581280016 L3.076015344519959 4.873179549279939 L3.073224816519911 4.856823958279989 L3.06123588351997 4.843930688279983 L3.0341574335199937 4.83098574227995 L3.027749555519989 4.804475732279968 L3.0296099075199834 4.772229639279999 L3.0272327915199355 4.741973087279973 L3.013280154519947 4.728459701280002 L2.9806206495199774 4.710347111279987 L2.9675981895199186 4.696627018279941 L2.938039269519919 4.646707585279984 L2.924500044519931 4.632238183279952 L2.9134412885199197 4.611981022279963 L2.923466515519948 4.598028386279964 L2.9355588005199422 4.587228011279933 L2.9308045685199033 4.576375960279989 L2.9095138785199595 4.564852116279951 L2.8881198365199054 4.5565063722799835 L2.795722374520011 4.539272281280006 L2.7494202915199537 4.525009587279925 L2.7059604115199534 4.50488161627996 L2.6688567335199593 4.478914209279992 L2.6566610955199224 4.465168278279975 L2.6447755155199104 4.445505396279913 L2.638160933519913 4.424318058279965 L2.6419849885199653 4.40610211628001 L2.6503565705199037 4.384398015279913 L2.6458607215199947 4.366207910279968 L2.630616174519986 4.355252506279982 L2.5884998815199367 4.354632389280027 L2.5491741165199358 4.34636416027999 L2.532689334519972 4.351841862279969 L2.5250412235199917 4.364166691279934 L2.523645959519996 4.3774733732799405 L2.5204420195199475 4.390754215279941 L2.507367882519958 4.40292401627994 L2.475070112520001 4.410701318279962 L2.369546837519948 4.41651491728004 L2.3373007435199895 4.410701318279962 L2.3262419875199782 4.398867416280041 L2.3171469355200145 4.370264510279981 L2.309395470520002 4.356854476280034 L2.293272423519994 4.345976586279988 L2.2580290975199375 4.340938135279913 L2.241285933520004 4.335202051279964 L2.229917117519989 4.322257104280027 L2.222165653519909 4.305436426279954 L2.2133806595199133 4.291070377279965 L2.1994280225199248 4.285437646279945 L2.1825815055199485 4.28244041328 L2.169248986519932 4.272983626279938 L2.1616525505199604 4.258979313279951 L2.1622209915200017 4.242132796279975 L2.1578801715199063 4.214563420279973 L2.127804487519967 4.203995589279998 L2.08966728051999 4.205029118279981 L2.0613485965199914 4.212057112279979 L2.011429161519942 4.213374861279959 L1.9952027625199378 4.211902083279938 L1.9552052035199665 4.196864242279958 L1.9402707155199153 4.1962441242799855 L1.920271935519935 4.202652002279933 L1.8716960885199398 4.229420394279913 L1.8545911905199262 4.241874414279977 L1.8299932085199373 4.254793522280011 L1.8047234335199676 4.258049137279983 L1.753150353519942 4.251021142279967 L1.660701216519925 4.250762761280015 L1.631917442520006 4.242132796279975 L1.6318140905199527 4.242029443279932 L1.631555708519926 4.242029443279932 L1.5183326445199725 4.138056462279991 L1.5028297155199368 4.129064762279938 L1.475286177519962 4.124103825280002 L1.4174602495199622 4.1298657472799505 L1.3914153275199794 4.129064762279938 L1.3613396435199832 4.114466170279968 L1.295193810519919 4.068655013280022 L1.2666684195199593 4.061988754280009 L1.2414503215199204 4.063849105280013 L1.2218132765199528 4.059172388279961 L1.182229129519925 4.037339095279918 L1.1667778765199444 4.023024723279946 L1.1594914995199304 4.005299707280017 L1.154840620519991 3.9858176922800226 L1.1472441845199057 3.9667490882800394 L1.144763716519975 3.9469311762799464 L1.158974734520001 3.909698307279939 L1.151119917519992 3.8920249672799514 L1.0886947875199269 3.842467269279979 L1.0651303335199316 3.834870833280007 L1.0451315545199975 3.836886214279957 L1.0256495405199928 3.841304549279954 L1.0027052045199696 3.840916976279942 L0.9694255815199142 3.8263442222799995 L0.9181108845199617 3.781023991279966 L0.890877404519955 3.7660119872799953 L0.8216309845199419 3.741827417280007 L0.8038542925200147 3.7400187422800286 L0.7694894655199107 3.7422666672800347 L0.7519711545199073 3.7412848152799825 L0.7342978145199197 3.7356520842799625 L0.7017416625199928 3.7185213462799993 L0.674249799519913 3.708935368279981 L0.6578166955199265 3.6962229652799294 L0.6485149365200016 3.6921405272799177 L0.6379729445199303 3.6918304692800348 L0.6143051385199385 3.6953961432799076 L0.6026262655199446 3.6952152752799634 L0.569036584519921 3.6826837402799697 L0.5378240185199559 3.6598169192799332 L0.5288323205199106 3.635528996279959 L0.5614918255199939 3.61850161128001 L0.5756511665199184 3.6108535002800295 L0.5838160435199313 3.5998464192799418 L0.5893970985199246 3.589020207280015 L0.5961667105200092 3.581604638279998 L0.6410218545199484 3.5616058592799504 L0.649858524519999 3.552407455279962 L0.6454143505199852 3.5269309732799456 L0.6197828405200028 3.5058986652800286 L0.5614918255199939 3.479026921280024 L0.538444136519928 3.4739109542800293 L0.49358899251993194 3.476184717279949 L0.4277015415200083 3.455669173279972 L0.407082645519921 3.4467291502799355 L0.39188977451991036 3.434430159279998 L0.38816907051997873 3.4254384602799632 L0.38651542551994567 3.404716211279947 L0.38207125251992125 3.3952594242799705 L0.37349296452001113 3.388438135280012 L0.36274426651996805 3.383838932279957 L0.3407301065199988 3.377741114279985 L0.3238835895199088 3.3656488282800012 L0.3217131795200032 3.3482855472799997 L0.32961967351994303 3.3298370602799707 L0.3429005155199718 3.3146441902799495 L0.42186210451993134 3.289116032279935 L0.4586040485200158 3.2669985192800084 L0.4582423135200031 3.230928369280008 L0.4429460885199603 3.2194045242799803 L0.4238258095199683 3.214598617279961 L0.40790946751994284 3.206278711279907 L0.4019666785199263 3.184419580279979 L0.407082645519921 3.163180567279909 L0.4156609335199448 3.1490212242799487 L0.42155204651996314 3.134293440279947 L0.4184514605200036 3.11114239927997 L0.40408541152001476 3.0810150392799756 L0.402328413519939 3.0691811362799513 L0.42299898651995704 3.075020573279943 L0.4411890905199982 3.076054102279926 L0.5427849565199097 3.066132226279933 L0.5614918255199939 3.0592075852799496 L0.5789584585199066 3.043291243279924 L0.6157520795199218 3.0194684082799483 L0.6945069615199202 2.9875840492800023 L0.7299569935199486 2.9642779782799664 L0.7344011675199624 2.9384397622800407 L0.7151775345199383 2.909087549279974 L0.7015349565199074 2.8784434252799542 L0.7217921185199145 2.848936182279914 L0.7316106405199037 2.8378257492800003 L0.7477336865199788 2.8049078612799576 L0.7607561475199134 2.7911619312799303 L0.7859742465199417 2.780671615279971 L0.964774702519918 2.7592258952799398 L0.9879257435199236 2.7591742192799416 L1.037121707520015 2.76987124027994 L1.0614096305199894 2.7713698572800354 L1.1247649375199273 2.768475976279973 L1.1438335405199211 2.763928451280009 L1.1857431265199523 2.746100081279991 L1.2001608515199962 2.742224349280008 L1.2017628215199636 2.7420693202799953 L1.2195395135199476 2.743774642279959 L1.2346807075199706 2.7514227542800143 L1.2606739545199446 2.775193913279992 L1.2816545855199308 2.7880613442799813 L1.3054257445199084 2.7920921072799842 L1.4566309845199896 2.7990167482799677 L1.461333539519984 2.7932289872799743 L1.4408696725199945 2.7611379232799607 L1.4421615835199475 2.723517480279952 L1.444745405519967 2.707652815280028 L1.454202193519933 2.6969041182800026 L1.4749244415199598 2.6933384442799593 L1.4943547805199557 2.6990745282799082 L1.505103478519942 2.7118386062799686 L1.5129582965199972 2.727599919279953 L1.5236036415199976 2.7421726722799065 L1.533577192519914 2.7521979002799526 L1.5407085405199439 2.763153304279996 L1.548666711519985 2.77286847427996 L1.5613274365199175 2.779172998279961 L1.6000847615199802 2.774470442279977 L1.7467424765199269 2.7323024742799475 L1.7812623325199581 2.713492253280009 L1.801622846519905 2.689566064280001 L1.7875668565199874 2.6643996422799887 L1.7642091095199532 2.636546045279914 L1.7733558385199615 2.6130332692800096 L1.8024496705199624 2.6005275712799403 L1.838209760519959 2.6055918622799084 L1.896707482519929 2.641868717279948 L1.9254395785199847 2.6542193852800153 L1.9579440545199134 2.653340885279988 L1.983833947519912 2.6360292802799847 L2.0046078725199834 2.610811181280013 L2.0276038855199374 2.591432520279966 L2.0613485965199914 2.591587549280007 L2.1063070915199944 2.5718471522800144 L2.2023219025199126 2.549574609279972 L2.268312707519925 2.5266819492799755 L2.288414839519959 2.515054752280008 L2.298646772519959 2.499861882279987 L2.2875363405199494 2.481878483279985 L2.2697079705199883 2.4738686362800024 L2.2249561805199676 2.4595542642800297 L2.212450483519973 2.4469968912800084 L2.2133806595199133 2.4382118982800307 L2.2279534135199413 2.4268947592799464 L2.2295553835199087 2.4161460612799317 L2.2249561805199676 2.410203272279915 L2.2070761345200083 2.3999713382799257 L2.201340050519917 2.3930983722799795 L2.201288374519919 2.3804893232799316 L2.2070761345200083 2.3416803222799842 L2.209866662519943 2.3323268882799653 L2.219215301519938 2.3270793032799872 L2.2536882765199664 2.3077289062799764 L2.306708296519929 2.295274886279998 L2.4524358355199354 2.2922776532799674 L2.506179324519934 2.2841644532799705 L2.555426965519956 2.2679380532799485 L2.5822470335199057 2.242254867279968 L2.5830950055199366 2.2313548912799774 L2.5847275025199963 2.2103705082799365 L2.590928674519972 2.184273909280023 L2.606534956519937 2.1642751302800036 L2.6372307575199727 2.1508392582799445 L2.768437218520006 2.1325458012799743 L2.8089515415199173 2.1206085452799357 L2.929874392519963 2.0603538252799467 L2.949924849519931 2.0552378582799804 L2.9909559365199527 2.052395654279991 L3.0110063925199313 2.0481065102800358 L3.06123588351997 2.0204079432799915 L3.1049541455199403 2.0166355632799764 L3.1909437295200007 2.029037907280042 L3.2344552855199424 2.028366114279976 L3.252438683520012 2.0246454112799483 L3.269905317519971 2.0188059732799672 L3.285718305519964 2.0098659502799308 L3.2986374135199696 1.9970501962799574 L3.3033916455199517 1.9829942062799546 L3.3035983515199234 1.9542621092800232 L3.3125900515199476 1.9431516762799959 L3.34845349451993 1.9293023932799542 L3.4259681435199525 1.91421287427994 L3.4630718215199465 1.8956610352799146 L3.534592004519908 1.8375250492800035 L3.561153690520001 1.8210919432799528 L3.59805066251991 1.8097231282799555 L3.7157695755199995 1.808844629280003 L3.7493592565199094 1.8022300452799414 L3.84609753751991 1.7684336592799355 L3.883511274519975 1.768640364280003 L3.9681572705199812 1.7800608562799027 L4.001746951520005 1.773652979279973 L4.018490115519938 1.7569614912800091 L4.026034874519922 1.7364459472799467 L4.036370161520011 1.7159304042799874 L4.06107149551994 1.699032210279995 L4.161737186519957 1.6730389652799147 L4.188712283520005 1.6554173022799432 L4.2391484815200045 1.594955876280011 L4.2656068155199875 1.5784710942800189 L4.335783409519962 1.5509275552799409 L4.410197472519911 1.533460921279982 L4.485955122519982 1.5277765142799637 L4.6487358845199935 1.548705469280037 L4.744854047519908 1.5459149422799783 L4.828776574519935 1.5150124352799708 L4.880453006519957 1.4437506342800077 L4.883036828519977 1.4251471192799556 L4.883450239519988 1.4074221032799414 L4.887687707519916 1.3916607912799748 L4.901226932519904 1.3791550952799696 L4.921484093519922 1.3714036292799676 L4.946908898519922 1.3666493972799856 L4.970576704519971 1.3694399252799485 L4.98587292851991 1.3844260902799022 L5.0049932085200055 1.4232867672799614 L5.029281131519923 1.4487115722799615 L5.060907108520013 1.4645245612799727 L5.102454959519974 1.47439475927996 L5.140592166519951 1.4920164222799315 L5.19784965351991 1.5473618822799722 L5.235780155519905 1.5609527842799764 L5.257897667519927 1.5594024902800356 L5.281255415519951 1.5530979652799317 L5.303372928519963 1.54286603227996 L5.321252974519922 1.5297918942800095 L5.3326217895200045 1.5135654952799769 L5.339443078519963 1.480337549279966 L5.346264366519932 1.4642661782799848 L5.3821278115199505 1.4470062502799976 L5.443726118520004 1.4395131672799835 L5.50708142452001 1.4425620772800016 L5.547699099519974 1.4571348312799728 L5.559998090519997 1.4928432452799711 L5.559377973520014 1.5406439452799532 L5.577878136519956 1.5802280922800094 L5.588936892519968 1.60017519628002 L5.597411828519938 1.6116990402799445 L5.60888399651995 1.6187270342799707 L5.628624392519924 1.6251349122800036 L5.690946170519993 1.6361936692800043 L5.7251559685199425 1.635573551279947 L5.77435193251992 1.6352118172800374 L6.007515995519981 1.6256516762799436 L6.12234102751998 1.650301334279959 L6.472965620519886 1.6600423422799793 L6.823590213519907 1.6697833502799426 L6.844674198519925 1.6774831382800244 L6.85935030451995 1.6902472172799037 L6.8642078895199745 1.705801823279927 L6.865758181519908 1.7423370612799545 L6.9057557415199256 1.8060024252800417 L6.913507205519949 1.8306520842799614 L6.918261437519931 1.9340049482799202 L6.930353722519925 1.9858364102799158 L6.940482303519985 2.011416244279957 L6.9545382925199135 2.032293522280014 L6.977792687520008 2.049450097279987 L7.0609917435199065 2.072756169279927 L7.077734907519954 2.0827297202800423 L7.084556196519912 2.095493799280007 L7.088276899519968 2.1099632002799353 L7.095098189519916 2.1251560712799744 L7.10688041552001 2.1372483562799403 L7.149978559520008 2.16401674827992 L7.160417199519969 2.176470768280012 L7.178297245519985 2.205202864280011 L7.189459354519926 2.2152797692799595 L7.210543338519955 2.2198272952799982 L7.237001671519948 2.2171917972799804 L7.332396365519941 2.194660873280043 L7.507579471519961 2.1891314942799625 L7.539722211520001 2.1944024902799697 L7.5665939575199275 2.210267155279979 L7.5900550575199475 2.242254867279968 L7.607625044519949 2.2651992032800194 L7.614342980519979 2.2716070802799493 L7.662402062519931 2.2894871262799086 L7.940731326519966 2.2873167162800314 L7.985793175520001 2.296153386280025 L8.031165083519937 2.3205963382799553 L8.047701542519945 2.3323785642799635 L8.063205278519916 2.340935272279978 L8.066615115519966 2.34281720428001 L8.086665571520001 2.3482949052799995 L8.106612674519937 2.3454010252800117 L8.123149132520012 2.3342905922799844 L8.149194054519995 2.30741884827998 L8.169967980519942 2.2983237962799308 L8.266499555519971 2.2890220382799953 L8.307427290519996 2.2765163412800007 L8.34494438051999 2.2419448082799818 L8.37367647651999 2.223289616279942 L8.41388074052 2.2148663582799486 L8.45305147651996 2.2200340012799415 L8.478166223519992 2.2420998372799374 L8.478166223519992 2.242254867279968 L8.490465213519911 2.270211816279982 L8.508655317519953 2.290417301279973 L8.532323123520001 2.2965151212800095 L8.56084851451996 2.2825624842799357 L8.57170056452 2.270056787279941 L8.584309614519924 2.2591013842799725 L8.597952192520012 2.249799626280037 L8.612628299519912 2.24220319027998 L8.626994347519911 2.2370872232799854 L8.641980512520007 2.2362087242799475 L8.657070031519908 2.2382757812800094 L8.67195284351996 2.2420998372799374 L8.672056196519947 2.242151513279964 L8.672262902519918 2.24220319027998 L8.672366255519961 2.242254867279968 L8.821607791519995 2.285818099279936 L8.86718640451997 2.3087624352799594 L8.90935437351996 2.337132796279974 L8.932298709519984 2.3464345542799947 L8.958860395519906 2.3489667002799877 L8.985112023519918 2.343282292280037 L9.034824751519949 2.321061425279993 L9.06066296751996 2.3133616382799858 L9.089291710519916 2.312896550279987 L9.109858930520005 2.3192527502799862 L9.125258507519987 2.3331537112799765 L9.139004439519937 2.355167871279974 L9.154093956519915 2.373254623279962 L9.171147179519977 2.3774920902800147 L9.190370812520001 2.3721177412799648 L9.21197156151996 2.3616274262799095 L9.266231815520001 2.325298893280035 L9.287935916520013 2.321268132279954 L9.555206424519923 2.348346582279902 L9.591896691519906 2.369740625280002 L9.628276899519989 2.41180524127995 L9.64326306551996 2.4222955572799947 L9.671273959519993 2.4291801622799483 L9.686154503519987 2.4328375492799523 L9.70589490151994 2.4413641602799885 L9.714989952519915 2.459192529280017 L9.738967817519978 2.4847723632799728 L9.79105766152 2.5009470862799787 L9.848315148519958 2.5089052572799346 L9.887692590519947 2.509473698279976 L9.929343794519951 2.500843734279954 L9.976782758519988 2.4855475092799963 L10.060601932519916 2.4463250972799244 L10.12871146951997 2.412270329279977 L10.159613976519921 2.387517318279947 L10.167262088520005 2.3570798992799666 L10.157753624519927 2.3382696782799712 L10.149175336519903 2.3260740402799627 L10.152585981519934 2.318219222279936 L10.228240278519905 2.304990056280019 L10.31960421151993 2.276671370280013 L10.342341841519982 2.27351910827997 L10.36352917851994 2.2788417812799366 L10.396705448519953 2.3038531742799364 L10.415929081519977 2.3117079912799454 L10.433395714519946 2.304938379280003 L10.460577518520012 2.2810638672799257 L10.492203494519998 2.2619435872800295 L10.63400362451992 2.211972477279943 L10.69157117051995 2.17114809627995 L10.84846081852001 1.9512132002799092 L10.855282108519958 1.935606917279955 L10.85827934052 1.9160215492799466 L10.856108931519913 1.8990716792800413 L10.84784070251996 1.8675490562799837 L10.852284874519938 1.8343211102799444 L10.884220910519929 1.774893213279995 L10.886598026519977 1.7422337082800254 L10.886701378519916 1.7421820312800094 L10.886701378519916 1.7420786782799667 L10.879466678519947 1.7163954912799966 L10.861379927520005 1.6973268882800028 L10.837298709519956 1.684459456280024 L10.811563846519988 1.67737978528001 L10.749345421519905 1.670351791279984 L10.721956912519914 1.6640472662799652 L10.646095909519914 1.6261167642799705 L10.624495161519945 1.6120607742799677 L10.609302290519935 1.592992171279974 L10.560519737519968 1.5118601732799277 L10.530030643520007 1.4605454752799858 L10.533441287519935 1.4390480792800417 L10.576229374519954 1.3994122562799873 L10.570648319519904 1.388095117279903 L10.539022342519928 1.3721787762799806 L10.524759647519971 1.3606032552799263 L10.515664594519905 1.348407617280003 L10.505432661519905 1.3376072432799901 L10.457993696519935 1.3179185222800243 L10.421716840519963 1.2943023922800023 L10.394535037519944 1.26453676828001 L10.392364627519981 1.2338926432800008 L10.45613334551993 1.1482131192799159 L10.47163627451991 1.114907658279975 L10.480731326519987 1.0811629482799106 L10.486312381519923 1.0665901942799394 L10.515044478519911 1.0199780522799813 L10.517731652519927 1.004604313279998 L10.514114302519971 0.9835461672799681 L10.502332075519945 0.9491296632799333 L10.501711958519905 0.9344018802799212 L10.508843306519935 0.9165476722799895 L10.519798709519904 0.9032409912799721 L10.548220747519935 0.8795731852800373 L10.560519737519968 0.866421534279965 L10.606615116519919 0.7998364512799583 L10.625735396520014 0.7777189372799569 L10.636897505520011 0.7685980472799656 L10.652710493520004 0.7657558432800045 L10.697358931519972 0.7503045902799101 L10.723817264519965 0.749141870279999 L10.806396202519949 0.7598130542799879 L10.81590466651997 0.7421397142800004 L10.81983207551994 0.7184977462799793 L10.810323612519966 0.6750120282799514 L10.814251020520004 0.6516026042799865 L10.824689660519965 0.6335416912799872 L10.84939099451995 0.5998228192799218 L10.859519575520011 0.580185775279972 L10.918224002519963 0.5167012772799353 L11.011034874519993 0.48879600427994774 L11.204718143520012 0.45435366227999907 L11.237377648519981 0.4375329842800113 L11.26869356652 0.4155446612799665 L11.297115603519927 0.38991315127998405 L11.362641320519998 0.3049054202799937 L11.37773083851991 0.25751813127990886 L11.386205773520004 0.24227358427998524 L11.424549686519953 0.20974327027994377 L11.432507857519994 0.19568728027999782 L11.434884973519928 0.1787115722800081 L11.435608442519964 0.14488934728001368 L11.441602908519968 0.12832705127991062 L11.472402062519933 0.10646792027998231 L11.513639855519926 0.10543439127999932 L11.523655879519907 0.11033094927995535 L11.548469771519905 0.1224617762800051 L11.56045870351997 0.15463035527994862 L11.580715864519988 0.17672203027996147 L11.611101607519942 0.18948610827993662 L11.784734419519992 0.22842430028001104 L11.818840864519956 0.24077496727997527 L11.84199190651995 0.25710472028001163 L11.860698774519932 0.27552736827991 L11.88136934751995 0.29146954827993454 L11.90989473851991 0.300797143279965 L12.142852095519999 0.3435593912799959 L12.265325239519967 0.346349918279941 L12.295659305519933 0.35443728127995655 L12.36997001552001 0.39740623428002664 L12.434668907519978 0.4456720222799504 L12.50391532751999 0.48554038927997567 L12.591971968519914 0.5032912442799784 L12.684266075520014 0.4963666012799308 L12.796300581519944 0.5087947832799955 L13.096902388519908 0.5081229902800146 L13.15710543151991 0.530214665279999 L13.224904911519928 0.5429787442799636 L13.655472944519914 0.6815749352800253 L13.703015262519926 0.7071806072799802 L13.744769819519973 0.7137951912799849 L13.786731083519982 0.7141052492799815 L13.827555463519928 0.7198413332799305 L13.865692671520009 0.74242393327998 L13.901452762519938 0.7714144122799382 L13.93617932451994 0.7845660652799324 L13.973799767519978 0.784462712279975 L14.06805758051999 0.7621384932800197 L14.112395959519944 0.7591929362799306 L14.155855838519955 0.7649290202799932 L14.22970146051992 0.7849277992800126 L14.28261812752001 0.7825765222799816 L14.30969657751993 0.7844368742799759 L14.328196740519985 0.7901729572799354 L14.381320112520001 0.8156236002799631 L14.407778446519984 0.8214371982799378 L14.48787691651998 0.8179490392799948 L14.506687137519947 0.8219798022799694 L14.541620406519968 0.8412292722800032 L14.560223921519906 0.8477921792799918 L14.637221805519943 0.8514095292799766 L14.660682905519906 0.8601945232799721 L14.677271040519912 0.870374781279935 L14.76987520651997 0.9111216472799981 L14.77938367051999 0.9278131342800293 L14.765276004519961 0.9485870612799943 L14.721299360519907 0.994734114279936 L14.719800743519983 1.0041650632799701 L14.72569185751999 1.0140869382799735 L14.733650028519918 1.0323803952799437 L14.736027144519909 1.0496144862799497 L14.734786909519954 1.0662284592799551 L14.728172325519978 1.100179875279963 L14.732513146519949 1.1373869062799713 L14.75137504451996 1.1774619792799683 L14.777988407519985 1.21443646727991 L14.805376915519929 1.2423675782800103 L14.815660525519917 1.2557517742800428 L14.817055789519912 1.2701178222800422 L14.811578087519905 1.2842771652800025 L14.80124280151992 1.29683453827991 L14.825479047519906 1.3227244302799477 L14.817882612519924 1.3502679682800078 L14.798762332519942 1.3782765952799423 L14.789047163519996 1.4056651042799615 L14.802793094520013 1.436154200279958 L14.831680220519985 1.4562563322800202 L14.893536909519952 1.4867971032800256 L14.915396040519937 1.5162009922800053 L14.906249311519929 1.5388869472799627 L14.882839888519953 1.5600742842799207 L14.861910932519976 1.5848272952799505 L14.857570113519927 1.6140761562799923 L14.868422163519966 1.6444102212799407 L14.888937706519954 1.6711269372800075 L14.913639042519918 1.6894720712799938 L14.958700890519907 1.7013576492799132 L15.057867964519943 1.7100909672799958 L15.099105757519936 1.731329980279952 L15.172589644520002 1.8197483562799732 L15.203802209519978 1.8357163742800253 L15.205533731519978 1.8360092872800067 L15.34859957251993 1.860211002279982 L15.473139774519979 1.9200523112799317 L15.513395714519987 1.9320412442799864 L15.560111209519988 1.9393792972799986 L15.716019006519929 1.9258917482800086 L15.787694217519942 1.938035710280019 L15.826193159519988 1.990642317279935 L15.839112267519994 2.0200462072799894 L15.862780073519929 2.0374611652800354 L15.892597374519909 2.04459251327998 L15.993108035519953 2.0377195482799095 L16.02473401251993 2.042422103279989 L16.059977339519918 2.053015772279963 L16.119922000520006 2.081231103279947 L16.187411420519965 2.101488265279926 L16.254074019519948 2.1038137042799576 L16.371276167519994 2.048881657279935 L16.43142753451994 2.0503285972800143 L16.559998497519956 2.0862953942800004 L16.62552421451997 2.093840153279956 L16.70768974152 2.086760482279942 L16.784119185519984 2.0650047042799144 L16.833470177519956 2.0284177892799846 L16.85496757351993 2.0061452472799317 L16.907367476519966 1.980720443279921 L16.935505867519936 1.963150217280031 L16.96322969851994 1.9458388512799445 L16.99180676652 1.9344700362799472 L17.06012300951997 1.9217576342799987 L17.162959109519903 1.9255300132800244 L17.196445437519998 1.9208274582799447 L17.218459598519956 1.911267318279954 L17.25788871652 1.8867210132799812 L17.283055138519927 1.8818117512799404 L17.37555595251999 1.88238019228001 L17.404494754519902 1.8766957842799457 L17.465007856519975 1.8511159512800077 L17.48759045751993 1.84522483728 L17.52024996352 1.841762516279971 L17.636108524519983 1.8515293622800186 L17.66422050352 1.8498757162799677 L17.691764042519907 1.84496645528003 L17.71734387551996 1.8369566082799622 L17.826742882519937 1.7770119462799698 L17.864466678519904 1.7624391932799313 L17.914644494519933 1.7585634602799587 L18.22537488151997 1.8130820962799703 L18.365262984519944 1.8061057782799708 L18.392548139519903 1.8106533042800095 L18.440710574519954 1.8240891772799728 L18.490216596520014 1.8312205242799848 L18.54406343951993 1.8314272302799566 L18.570883508519927 1.8352512862799983 L18.62493705551995 1.863621647280013 L18.62927787651992 1.870236231279904 L18.62927787651992 1.8794863122799086 L18.630466434519946 1.8889947762799864 L18.634187137519945 1.8969012702799546 L18.641938602519957 1.9014487952799755 L18.721313602519928 1.907908349280035 L18.746945112519967 1.915401432279964 L18.787201053519908 1.9352968592799868 L18.808285037519937 1.9426349122799706 L18.830867638520004 1.9447536462799633 L19.02579114151993 1.9070815272800132 L19.134208296519915 1.8992267092799864 L19.242522098519913 1.908011702279964 L19.332180708519985 1.9275970702799725 L19.37429700051993 1.9435134112800085 L19.522453332519916 2.025885645279999 L19.55966036352001 2.0386497242799635 L19.568703739519975 2.047899805279968 L19.583999962519925 2.085210189280019 L19.59206148652001 2.094822005280008 L19.612215295519974 2.109291406279965 L19.619605024519984 2.1162160492799273 L19.62523775551992 2.1267580402800093 L19.634436160519925 2.1503741702800028 L19.643117801519992 2.160916162279989 L19.656295291519967 2.1687709802799304 L19.68673270951993 2.178227767279992 L19.70063367151991 2.184532291279993 L19.750501427519936 2.2161582682799974 L19.778199995519998 2.22897402327996 L19.810911177519955 2.2379657222800233 L19.84088350851991 2.2361053712800185 L19.866411665519962 2.2274237312799414 L19.89085461851991 2.224994938279991 L19.950075809519973 2.2588946772800114 L20.315324832519906 2.263080468279952 L20.330608461519915 2.267665557279969 L20.336512169519978 2.2694366702799584 L20.37294405451999 2.2867999512799884 L20.393924685519977 2.29114077127997 L20.42518892751994 2.2884535972799256 L20.436971154519966 2.288970361279979 L20.484203413519907 2.299512353279937 L20.532520877519943 2.301527734279972 L20.542494428519916 2.311656315279947 L20.53861869651999 2.3375462082799743 L20.53040214351998 2.3545994312800076 L20.52151379751993 2.3683970382799657 L20.51603609551998 2.3835899092799764 L20.518361535519972 2.4047255692799183 L20.536034874519913 2.452526269280014 L20.541770959519937 2.489474919280042 L20.540840783519997 2.502238998279921 L20.53536308151999 2.5143829592799136 L20.51283215751991 2.5521584312799916 L20.51345227451995 2.5649741862799544 L20.525492883519945 2.571795475279913 L20.548902306519977 2.573914209279991 L20.588796512519906 2.5718471522800144 L20.601818973519954 2.5792885582799556 L20.59355074452 2.6014060712799676 L20.591276981519997 2.6172190602799503 L20.60171562051991 2.6327736652799842 L20.61866548951994 2.6456927742800076 L20.692201053519938 2.680677718280009 L20.712458215519945 2.6878607432799697 L20.795915652519994 2.694785384279953 L20.822373986519978 2.7025368492799373 L20.83653332851995 2.712613754279971 L20.845525027519983 2.7253778322799462 L20.853276492519996 2.7391754402800075 L20.863146691519972 2.752507959280024 L20.92086926651993 2.798655013279955 L21.059672163519934 2.8785984542799667 L21.124060997519933 2.907588932279964 L21.15597696951997 2.909299553279908 L21.194444299519972 2.9113613112799896 L21.337071251519916 2.893843001279919 L21.44497164251996 2.894463119279976 L21.51649182451999 2.886194889280034 L21.61896618951991 2.9071238442800222 L21.644029260519943 2.905935286279913 L21.746606977519917 2.8883653002800145 L21.872697472519945 2.8964784992799366 L21.897915571519917 2.9024729652799692 L21.922306847519934 2.911671371279965 L21.976980512519987 2.9257273602799785 L21.997237674519994 2.93182517927994 L22.036718468519922 2.9290863282799933 L22.048087283520005 2.9345640302799723 L22.051704633519904 2.9405584962799196 L22.05583874951995 2.958386865279948 L22.06038627451997 2.9658799482799907 L22.07785290851993 2.9722361492800076 L22.102244184519947 2.979109114279993 L22.314530968519904 2.9685671222800067 L22.370961632519965 2.9836566412799357 L22.403724490519977 3.0072727702799398 L22.418193891519905 3.0081512692799777 L22.49911918451997 3.021328760279971 L22.767423221519977 3.0730568682799344 L22.811038130519904 3.0696462242799782 L22.854342980519988 3.0579673512800127 L22.895374067519953 3.0391571292799995 L22.931444217519953 3.0144041182799697 L22.947050500519964 3.000399805279983 L22.95717908051992 2.993268457279953 L22.968237836519933 2.994973779280002 L23.019294152519905 3.032387516279954 L23.037277551519907 3.040449039279963 L23.094224979519964 3.0506809732799525 L23.189619673519957 3.089696680280042 L23.230960818520003 3.0982749672799628 L23.274058963519934 3.1004970542799697 L23.317363813519904 3.0973447912800225 L23.427021203519956 3.0725917802799927 L23.5515614045199 3.0276332852799612 L23.72457410051996 2.9434523772800105 L23.859552941519922 2.9121881352799903 L23.877743045519964 2.9042299652799386 L23.906991906520005 2.8796836592799764 L23.924458540519964 2.870278548279913 L23.948746464519928 2.867384668279925 L23.971070682519922 2.8727590172800035 L24.015615767519904 2.888623682280013 L24.040523807519975 2.8919309732800116 L24.065121789519964 2.891672591280013 L24.08951306451999 2.887951888280014 L24.202477746519975 2.848574447280015 L24.24702283051991 2.8386525722799263 L24.616199263519917 2.823149642280015 L24.71240946751996 2.795078027279942 L25.018241905519943 2.705844140279936 L25.05927299452 2.70088320328 L25.170273970519958 2.708686344280011 L25.257400435519997 2.7390720872799648 L25.28747611851989 2.7437229652800283 L25.319722212519963 2.742224349280008 L25.36313041551992 2.733646062280002 L25.454080936519944 2.703363671279959 L25.512165246519913 2.6684820802800004 L25.533352583519985 2.6589219402799813 L25.55578015451991 2.6519972982800084 L25.578827843519974 2.6478631832799806 L25.629677453519975 2.6464162432799867 L25.646834028520033 2.6390265142799763 L25.657582726519962 2.617270736279977 L25.660166548519925 2.5816656742800035 L25.663163781519955 2.5660077152799374 L25.673499067519884 2.547610905279953 L25.742745486519908 2.4576422362800088 L25.76868705651995 2.4330442552800093 L25.798452681519933 2.412993799279974 L26.001541060519997 2.3126381672799994 L26.02830945151996 2.288970361279979 L26.044535852519886 2.277756575280023 L26.09641898951989 2.253985417279978 L26.113885623519906 2.24220319027998 L26.165665408519914 2.2150730632799025 L26.33826469251997 2.156420313279966 L26.35914197151996 2.153371403279948 L26.40182670451989 2.1581256352800153 L26.422807335519934 2.158073958279914 L26.435829796519926 2.1543015792799736 L26.559129764519895 2.074513167280003 L26.579283572519984 2.0663482912799793 L26.62114148351995 2.0580800622799416 L26.641295291519924 2.0512070972799847 L26.70423718651992 2.010641097279944 L26.78609265551998 1.9788084152799854 L26.872288944519966 1.9581378422799958 L26.91900443951991 1.9626853682799208 L27.010988488519985 1.9931744632800132 L27.059047570519937 2.000977604280024 L27.24570284451997 1.9836143232799088 L27.33975395052002 1.998807194279948 L27.583356652519996 2.090687890280009 L27.601236698519955 2.10216005928001 L27.614052453519918 2.115130843280042 L27.635653201519887 2.1441729982799416 L27.64939913351995 2.157505517279958 L27.796160200520006 2.263338851279997 L27.954703495519908 2.339613265280036 L27.973823775520003 2.343954085280018 L28.036145551519922 2.34359235027992 L28.058986535520006 2.3479331712800047 L28.094539920519907 2.348243229279973 L28.164199750519884 2.341370264279931 L28.269412967519912 2.357338281279965 L28.302279178520024 2.3572349282800076 L28.336902388519917 2.3500519042799795 L28.639622928519913 2.236570459279932 L28.721375044519874 2.2206024412799934 L28.803643924519946 2.2211708822799494 L28.88653292251999 2.2420481602800066 L29.161451541519938 2.313258284279982 L29.203206098519928 2.337701237280015 L29.239379601519914 2.371187565279996 L29.270282108520036 2.411753564279934 Z" fill="black" stroke="black" stroke-width="0.5" vector-effect="non-scaling-stroke"/></svg>