<svg xmlns="http://www.w3.org/2000/svg" viewBox="0 0 1.9600726072200345 1.7294337343799668"><path d="M0.08211556110999751 1.1485136576899677 L0.08350187911007012 1.1336829346900217 L0.0785409421100205 1.1224691496899695 L0.06117766111001899 1.1150277426899535 L0.05342619611000643 1.1114620686899954 L0.040610441110015216 1.100119091689912 L0.029965096110014855 1.0869157636900226 L0.022833748109984953 1.0714386716899114 L0.022110279110005848 1.0540753906899951 L0.027691333110009708 1.0218292966899511 L0.023040454110041964 1.005628735689946 L0.03337574111004571 0.9986265786899295 L0.04464120211001088 0.9951125816899875 L0.05621672411005463 0.9957843746899684 L0.06748218611000922 1.0011587246900078 L0.07781747211002354 1.0000735186899234 L0.08153817511005101 0.9939756996899618 L0.07936776511006016 0.9850098396900293 L0.07233977011004455 0.9750104496900107 L0.09248355010999987 0.9663506656899798 L0.10293221911005546 0.9618587966900449 L0.12411955511002404 0.946536734689964 L0.128518000110045 0.9384118296899757 L0.13528166511003903 0.925917838689962 L0.13569507711003936 0.8967723306899629 L0.12535979011003562 0.8693838216900005 L0.10820321410998801 0.8529507166899393 L0.08784270011004125 0.8373961106900296 L0.05311613711002039 0.7956415526899647 L0.039576912110032225 0.7716895266899755 L0.03027515411001147 0.7477633376899675 L0.02934497911006062 0.7303742186899385 L0.039163501110021315 0.7191862706900096 L0.05166919711002649 0.71202908568997 L0.059007251110028136 0.7022880786899961 L0.0533228431100774 0.6831419596899124 L0.02965503710994355 0.6479761476899668 L0.01973316311004325 0.6279515296900158 L0.0192163981100002 0.6106399246900125 L0.038440031110024364 0.5714433516899575 L0.0687224201100598 0.5502043376899834 L0.12463632011003867 0.5409542566899788 L0.184064217109988 0.5403858156900228 L0.22468189211003775 0.5445974446899626 L0.20680184710998262 0.4684005456899669 L0.20628508311004268 0.442278108689969 L0.206813498110062 0.440262721689912 L0.21476001811002376 0.4099545006899845 L0.23098641811004583 0.38465888769001566 L0.27408456211004406 0.34037218368998623 L0.25000334411002356 0.3316647056899953 L0.26519621611005206 0.3153607916899759 L0.3928370031100137 0.24681200369004586 L0.4191919841099825 0.24068834668999983 L0.41598804511000864 0.23668342369000328 L0.4103036371100579 0.22743334168998075 L0.4068929931100449 0.22345425669001173 L0.4252898031100294 0.21702054068995125 L0.48482105311002144 0.21293810268996793 L0.5091089761100243 0.2180023926899466 L0.5359807211100183 0.23177416168996245 L0.543008715110016 0.23898302369001811 L0.5436288331099881 0.24585598968999278 L0.5428020101099769 0.25301317568993653 L0.5451791261100247 0.261384757690017 L0.5542741781099885 0.2726243816899725 L0.5746346921100205 0.2918996906899949 L0.5751913741100729 0.29282476468997487 L0.5781486901100656 0.29773912768998656 L0.588587329110009 0.29089200069002885 L0.5965455001100786 0.28252041868994837 L0.6028500241099941 0.2736837486899546 L0.6082208301100245 0.26829454869001523 L0.6103947831100349 0.2661131506900105 L0.6219703041099756 0.26151394868994515 L0.6482219321100153 0.26045458168996305 L0.6553532801100452 0.25601040868996705 L0.6252775961100774 0.21412666068996344 L0.5956153241100246 0.15384610168998591 L0.560992114110018 0.12056647968994838 L0.5539641201099919 0.11674242368993504 L0.5319499591100332 0.12090237669004722 L0.5320533121100475 0.11576057068995027 L0.5363941321100292 0.10754401869001384 L0.5369108961099691 0.10103278869004129 L0.523578377110038 0.08589159369002886 L0.5163436761099938 0.08255846369001318 L0.5009441001100008 0.07945787768999679 L0.4913322841099834 0.07421271968996024 L0.49081551911005405 0.06578946068997737 L0.49670663211004396 0.05757290869004095 L0.5062150961100365 0.052637809689990434 L0.524611906110021 0.04589403468997233 L0.5483830651099986 0.026541211690009447 L0.5631625241100089 0.018608878689967412 L0.5859001541099751 0.016955232690001765 L0.5999561441100063 0.027057975689949387 L0.610704842110021 0.04181159669004586 L0.6238306561099982 0.053826366689939675 L0.6406771721100704 0.05814134968999696 L0.6620712151099717 0.05759874669004006 L0.6817082601100246 0.05194017768990733 L0.7084766521099759 0.028892488690040352 L0.7333846921100466 0.026696240689965123 L0.7810303631099877 0.03204475168998755 L0.7608765541100233 0.05522163068990693 L0.7616000241100203 0.08395372769000886 L0.7779297771099714 0.11030870868997766 L0.8040780521100537 0.12663846068999618 L0.9413306561100505 0.17177782468996128 L0.9579704671099698 0.18061449468998347 L0.9997250241100168 0.22645148969001383 L1.0587395101100405 0.2715650146899904 L1.0708317951100348 0.28474250468996587 L1.0879883701100077 0.31290616068991284 L1.0981169511100397 0.32419746068998023 L1.133530413109991 0.3460260076899644 L1.135634041110034 0.3473226646899761 L1.1665365481100416 0.3770366126899418 L1.1837964761100288 0.38863797168999525 L1.2043636961100326 0.39659614268995114 L1.2487020751100708 0.40633715068999976 L1.2703028241100291 0.4081199866899894 L1.283015226110006 0.40463182769001804 L1.2911801021100011 0.3986632006900024 L1.2992416261099997 0.39923164068996897 L1.3284904871100416 0.43832486168999907 L1.3468872961100367 0.45610155469002933 L1.3674545161100404 0.4683747076899678 L1.390812264110064 0.47488593768994036 L1.423988533110002 0.4764879066899752 L1.4578882731100116 0.4744725256899116 L1.4694637941100375 0.469149853689963 L1.4928215411099863 0.45157986668998973 L1.502330005110064 0.4477816486899755 L1.5148357011100693 0.45093391069001854 L1.52227710811 0.45894375769000106 L1.5279615151100465 0.46920153068997905 L1.5355062751100768 0.47891669968992545 L1.5454281491100055 0.4862805916899262 L1.6055795171100264 0.5174931556899978 L1.6400741011100415 0.5426202006899743 L1.642029932110045 0.5440448956899999 L1.702627856109995 0.5881865156900048 L1.7151499731100266 0.5912360826900098 L1.7266057211100296 0.594025951690007 L1.7802458581100034 0.5980050376899655 L1.8088746011099879 0.6071776046899728 L1.8612745041099963 0.6349536866899186 L1.9227694581100074 0.6578721846899427 L1.9393059161099977 0.673866039689976 L1.9408562091100343 0.6986707276900219 L1.93103768710996 0.7374022136899541 L1.8501123941099813 0.7475824706900127 L1.8117684821100504 0.7580727866899721 L1.8032935471100409 0.7621035486899572 L1.7949219651099888 0.7731364666899694 L1.794095141110045 0.7827482826899868 L1.795645434109968 0.7918691726899496 L1.794095141110045 0.8015585046899716 L1.7690837481100452 0.8223324306899471 L1.7351840081100356 0.8149685386899463 L1.697770272109988 0.7983028886900101 L1.6620101801100695 0.7914040846899226 L1.6507447181100012 0.7953831706899948 L1.641324125110014 0.8009746446899939 L1.6203589761100368 0.813418245689995 L1.6121941001100417 0.8216347986900345 L1.610437101109948 0.8414268716899116 L1.6218059161100307 0.8568522866900068 L1.6226919281099974 0.8574777766899828 L1.6798902261100288 0.8978575366900472 L1.6876416911100414 0.9081669836900446 L1.6896053951099752 0.9117326576899174 L1.676272876110044 0.9374933596900163 L1.6649040611100467 0.9535905686899966 L1.6613900631100016 0.961755443689917 L1.661080005110005 0.9778784916899994 L1.6638705321100637 0.9919344806900128 L1.6627336501099812 1.0049311036900335 L1.650641365109987 1.0180827556900098 L1.6249065021100755 1.007075674689922 L1.6034091061100462 1.0185995206899676 L1.5674423091099747 1.0540753906899951 L1.5420175051100493 1.0595272536899856 L1.493234953110015 1.0584420496899938 L1.4684302651099692 1.0712319666899575 L1.4682235601100153 1.0714386716899114 L1.4590251541100194 1.0780015786899853 L1.4211980061100284 1.0945897136899063 L1.4147484761100024 1.0961183366900045 L1.4052816651100208 1.0983620936900351 L1.387091561110065 1.0967084476899842 L1.3701416911099606 1.0902747306899343 L1.3372754801100193 1.0714386716899114 L1.320015552110032 1.0404586506899918 L1.3166049071100296 1.0311827306899701 L1.315984790110047 1.0244131186900276 L1.3178451411100518 1.0092977626899469 L1.3196021411100212 1.0022439286899996 L1.3270435471100477 0.990435864689907 L1.3316944261100154 0.9849064866899866 L1.333451424110006 0.9859400146899802 L1.3325703311100021 0.9759111016899098 L1.3316944261100154 0.965941234689943 L1.323219491110006 0.940438916689935 L1.3078199141100235 0.9187606526900183 L1.2849789311100146 0.9100273356899535 L1.2617245361100053 0.9181663736899779 L1.2437228431100031 0.9302281696900181 L1.2336125571099608 0.9370024326899724 L1.207464282110049 0.9598434166899992 L1.1907211181100017 0.9799972246899742 L1.184933358110026 0.993794832690007 L1.1793523031100328 1.0200206216899446 L1.1737712491100005 1.0319837156899823 L1.1613689041100308 1.0424998696899408 L1.1470028561100314 1.0485976886900161 L1.1350139241099946 1.0562458016899754 L1.1294328691100581 1.071283642689984 L1.1294328691100581 1.0714386716899114 L1.1173405841100639 1.0900680256899804 L1.1034913001100044 1.1068111896900277 L1.0871615481100712 1.12071214969 L1.067421150110004 1.130349804690006 L1.0540886311099875 1.1467312336899838 L1.002928963110076 1.1907337156899231 L0.9977613201099977 1.1964439616899867 L0.9883562091100195 1.2128253906900213 L0.9863925051100004 1.2200859296900077 L0.9870126221099831 1.2337801836899231 L0.9860824461100144 1.2389478266899445 L0.8902743401099933 1.349742097690033 L0.8606120691100152 1.3735649326900088 L0.857718188110038 1.384158602689972 L0.8676413541099457 1.4001175076899628 L0.8677434161099704 1.4002816486899619 L0.8834530521100241 1.4131749186899683 L0.9407105381099932 1.4448008946899549 L0.9556835541100206 1.458334197689986 L0.9581771731100268 1.4605880456899385 L0.9605542891099894 1.4701740236899568 L0.9422608321100192 1.5000430016899813 L0.9374032471099945 1.517225415690028 L0.9362663661100719 1.5370174886900188 L0.9398837161099713 1.5561377686900002 L0.9490821201100452 1.5712014486899974 L0.9493921801100491 1.5713564786899425 L0.9567302331100329 1.5782811196900113 L0.9514592361100078 1.5951276366899876 L0.9454647701099752 1.598848339690015 L0.9372998941100654 1.599675162689941 L0.932132251110044 1.603292512690011 L0.938540129110077 1.6263402016899917 L0.9361630131099439 1.6334715496900216 L0.932338956109998 1.6386650306899284 L0.9310987221099758 1.643651806689995 L0.9316154871100188 1.650369743690014 L0.9309953691100468 1.6545038576899387 L0.9333724851099809 1.6584829426900214 L0.9426742431100301 1.6652008796900404 L0.9506324141100713 1.6758462236899376 L0.949908944109989 1.7019944986899347 L0.9507679041100054 1.712478501689965 L0.9326201181100195 1.7008818216899968 L0.8959176441099821 1.6703235536900038 L0.8789091811100143 1.6640572776899845 L0.8059111341100156 1.6459908716899818 L0.7886585291100054 1.6377714706899624 L0.7641630871100169 1.6309355326899677 L0.7559436861099975 1.6268665226900012 L0.7479684251099847 1.6168974466899968 L0.7476429041100054 1.6114042826899677 L0.7489449881099794 1.6058704286900038 L0.7460153001099847 1.5958606636899972 L0.7412952481100028 1.5941923686899955 L0.7309599621100169 1.5872343616899585 L0.7236357431100195 1.5795439316899902 L0.7285999361099975 1.576003892689961 L0.7292509771100235 1.5717721216899818 L0.7248564461100209 1.5224150256899875 L0.6682158211100209 1.4836373556899858 L0.6604033211100209 1.4691923686899955 L0.6695179041100054 1.4547473816900052 L0.6621123061100143 1.4488880066900052 L0.6496611341100156 1.4446562366899585 L0.6343616541100054 1.4246367046899664 L0.5962757171100002 1.4252877466899818 L0.5878121751099847 1.4146269396899598 L0.5855335291100054 1.4037626816899902 L0.5804879571099768 1.4011992046899664 L0.5737333991100222 1.4011178246899831 L0.5673043631099794 1.3977812366899585 L0.5537138681100195 1.3761341006900025 L0.5391468111099975 1.3649850126899779 L0.49902636811001955 1.3426054546899664 L0.4873889981100028 1.3273466656899942 L0.48039030010998474 1.2943469916899986 L0.47168261811001955 1.2804716656899942 L0.45727832111002087 1.2743681506899875 L0.43970019611002087 1.2743681506899875 L0.4245634771100235 1.279128892689961 L0.4170764981100028 1.2873076036899889 L0.4121936861099975 1.2826282416899986 L0.40617155010998474 1.2781523296899664 L0.40332324311001955 1.2736764186899805 L0.3872099621100169 1.2804716656899942 L0.3796416021100235 1.2844999866899585 L0.3744332691099821 1.2888131376899779 L0.37207324311001955 1.2907255716899968 L0.36426074311001955 1.2933704286900038 L0.35766894611002087 1.2879179546899664 L0.3481474621100169 1.2736764186899805 L0.3151884771100235 1.2532499866899585 L0.3002145191099821 1.2395781116899585 L0.29980761811001955 1.2259062366899585 L0.2940296231100028 1.2223661966899968 L0.28540332111002087 1.2150012886899972 L0.27929980611001426 1.2116240096899915 L0.27929980611001426 1.2053984236899637 L0.28149707111002087 1.1910755066900052 L0.2641630871100169 1.1788684756900025 L0.24422493610999751 1.178217433689987 L0.23885384211000016 1.1985624866899585 L0.23218066511001823 1.1985624866899585 L0.2241240241100222 1.1945341656899942 L0.20239550911001558 1.1967721216899818 L0.1980009771100235 1.194900376689965 L0.1927926441099821 1.1884306506899875 L0.18058561310997945 1.1811064316899902 L0.16658821711000016 1.1750029156899942 L0.15633431110999751 1.1718697776899845 L0.1586943371100169 1.1684111186899955 L0.15877571711000016 1.1673124866899585 L0.15975227911000545 1.1665800646899598 L0.16382129011001823 1.1644641786900038 L0.13867480611001426 1.1511992046899664 L0.13086230611001426 1.1412708196899999 L0.1358264981100028 1.1297148296899664 L0.14852181110999751 1.1262968616899585 L0.23063444110998077 1.1464791526899845 L0.24219043111001426 1.1493274596899496 L0.2712431651100182 1.1608427596899915 L0.28613574311001955 1.1718697776899845 L0.29386686310997945 1.1563261576899677 L0.2922392591100156 1.1437936056899858 L0.26953418111001426 1.1060331896899598 L0.2689645191099821 1.0967558456899624 L0.27303352911000545 1.0819446476900012 L0.23983040411000545 1.1130318876899779 L0.19433886811001955 1.1194609236899637 L0.08813769611002087 1.109207017689961 L0.08813769611002087 1.1166533066899902 L0.10693652411002219 1.1268665226900012 L0.09863574311001955 1.155837876689965 L0.11548144611002087 1.1644641786900038 L0.09595019611002087 1.1595813666899986 L0.08211556110999751 1.1485136576899677 Z" fill="black" stroke="black" stroke-width="0.5" vector-effect="non-scaling-stroke"/></svg>