<svg xmlns="http://www.w3.org/2000/svg" viewBox="0 0 16.30137873148108 14.796679012444965"><path d="M8.356525983937182 8.410120618514135 L8.355111504937234 8.41218653751421 L8.360640882937211 8.458230238514126 L8.389941419937195 8.541222589514156 L8.400173352937166 8.611554213514161 L8.385548922937197 8.655530857514215 L8.371854668937168 8.71116053751414 L8.377719943937159 8.763896335514154 L8.400173352937166 8.821515557514125 L8.420688896937143 8.8810984835142 L8.420688896937143 8.921121880514171 L8.379657809937207 8.95140427051411 L8.28545167393721 8.968018243514116 L8.172642021937143 8.981660821514232 L8.090114759937215 8.981660821514232 L7.9660913219372205 8.971893975514185 L7.888938408937172 8.973857680514193 L7.821552340937238 8.973857680514193 L7.7615043269371355 8.983624525514166 L7.687245293937245 9.021710056514117 L7.604718030937157 9.081292982514192 L7.501210137937214 9.16136561451416 L7.43919841793717 9.211155856514189 L7.356696993937156 9.221904554514204 L7.274195569937227 9.221904554514204 L7.193632011937233 9.181855320514138 L7.141852226937168 9.16136561451416 L7.107694105937206 9.16330348151417 L7.051521823937229 9.191622165514168 L6.985117607937177 9.211155856514189 L6.9231058899371405 9.211155856514189 L6.819597994937219 9.171106622514209 L6.695574556937139 9.111549534514133 L6.623279228937172 9.081292982514192 L6.520288098937179 9.071526137514162 L6.4167802059371795 9.051992445514152 L6.344484876937223 9.0617592915142 L6.25172568093722 9.0617592915142 L6.12770224293714 9.10178268851417 L6.024194349937197 9.131083225514125 L5.910919609937217 9.16136561451416 L5.781986910937199 9.188676608514164 L5.813251152937191 9.27854192451418 L5.857692884937158 9.327376153514173 L5.857692884937158 9.387940932514205 L5.836660576937241 9.438687188514201 L5.774648857937187 9.488503269514133 L5.703852144937166 9.55198776651418 L5.662872734937217 9.601778009514227 L5.621350720937151 9.671127780514162 L5.590577406937193 9.71117701551416 L5.537350679937212 9.776599379514131 L5.490015068937247 9.858609877514205 L5.475338961937176 9.909407810514104 L5.456322034937209 9.968008884514127 L5.419683443937167 9.985578871514186 L5.293696302937114 10.00118515451414 L5.2136495089371735 10.021700697514213 L5.143808810937195 10.04123438851412 L5.117737433937144 10.075755059514172 L5.113552258937169 10.081283624514192 L5.093501803937208 10.151615248514197 L5.093501803937208 10.201379653514131 L5.073503024937189 10.241428887514225 L5.04371156093719 10.341035210514185 L5.00368816393722 10.431856541514158 L4.973405774937184 10.55200424551419 L4.943614311937203 10.651584730514152 L4.903590914937119 10.81178167151419 L4.863541679937235 10.96115239951417 L4.813725599937207 11.10178980851419 L4.77367636393722 11.191629286514178 L4.7434198139372015 11.241419528514122 L4.673579114937148 11.301984307514182 L4.613531100937216 11.341051690514185 L4.543716239937247 11.391823785514198 L4.463617770937184 11.441614027514113 L4.353779513937148 11.501196954514207 L4.263423271937192 11.55199488751419 L4.22668051593714 11.574836376514163 L4.183376477937223 11.601785129514134 L4.113535779937159 11.671109063514173 L4.053461926937153 11.771723077514203 L4.013438529937154 11.851769871514172 L3.9435978319371756 11.981684422514157 L3.8938075899371754 12.051990208514162 L3.8635510389372243 12.091031752514176 L3.7834525689371716 12.131080987514146 L3.6936130919371735 12.161363376514181 L3.593515841937169 12.201386773514152 L3.5134432099371153 12.241461847514138 L3.403579114937166 12.281459405514205 L3.3337642549371864 12.321508640514175 L3.2834314099371156 12.381091566514165 L3.2434338509371443 12.45139735251417 L3.1936177709371165 12.551985528514201 L3.1535685359372323 12.661332858514221 L3.133569755937195 12.73166448351413 L3.0734959029371893 12.971908217514205 L3.0534712859371425 13.111537937514136 L3.0334725069372084 13.201403253514151 L3.0036552049372105 13.311732436514156 L2.9836564259371627 13.481670383514121 L2.9836564259371627 13.621325942514154 L2.9636059699372126 13.701398574514123 L2.9533740369371557 13.761937514514166 L2.903557956937213 13.831287286514204 L2.863508720937226 13.881077528514233 L2.79371969893716 13.951383314514153 L2.7336458469371436 13.991432550514112 L2.7136470679372096 14.031481785514195 L2.6535732149371754 14.08124618951414 L2.5935251999371687 14.161344659514192 L2.543709119937226 14.211160740514124 L2.5534759659371886 14.251209975514122 L2.563733737937177 14.3215157615141 L2.5334513479372376 14.391821547514105 L2.5036857229371705 14.471920017514158 L2.423587252937203 14.571500502514233 L2.333747774937187 14.621316583514165 L2.2033939749372493 14.63108342851411 L2.0236891819371507 14.63108342851411 L1.8835685359371652 14.621316583514165 L1.7136305879371818 14.621316583514165 L1.563743095937177 14.601782892514144 L1.4235966119371923 14.581267348514167 L1.2536845029371406 14.571500502514233 L1.1335367979371753 14.571500502514233 L0.9836751429371517 14.59103419451413 L0.593518079937148 14.59103419451413 L0.4436047499372009 14.601782892514144 L0.22341147193719024 14.641832126514153 L0.15981743854393216 14.6516135319308 L0.16075399393715628 14.626367439514176 L0.20250204093715496 14.478987882514154 L0.206652431937151 14.435042570514149 L0.20323446293715364 14.397119393514167 L0.2055537989371814 14.374332934514136 L0.22248088193716598 14.34682642451417 L0.22589885093716333 14.33555526551418 L0.22716024393715628 14.323307544514186 L0.22654989293717875 14.311588794514186 L0.2232946839371479 14.306217700514189 L0.21031454093715496 14.295963794514186 L0.206652431937151 14.290429939514176 L0.21202352493715892 14.275781502514171 L0.21662150693716598 14.245914965514139 L0.2357458559371466 14.204980721514168 L0.243761806937151 14.163639575514189 L0.2525508689371563 14.140283455514172 L0.3569209859371867 13.94102401551418 L0.3928910379371686 13.90586776551418 L0.398506272937162 13.896631111514175 L0.4001338769371827 13.890608976514152 L0.41148641593715496 13.866561124514185 L0.4172237209371801 13.861393481514192 L0.433662522937162 13.850447843514182 L0.43944051793717875 13.844832609514178 L0.4556758689371563 13.810612231514192 L0.46678426793717875 13.796126554514153 L0.490954188937188 13.787500252514171 L0.4964066629371686 13.78204777851419 L0.5032426009371633 13.777164965514139 L0.5145544499371439 13.77651392451417 L0.5233028219371576 13.779891202514186 L0.5309118719371426 13.785628507514154 L0.5418575099371523 13.79767277851419 L0.651720790937155 13.756697843514182 L0.6713741109371867 13.741683195514149 L0.6913936429371788 13.719303637514138 L0.7069372619371492 13.694197843514182 L0.7420528219371576 13.578515877514171 L0.744209397937162 13.561141202514186 L0.7540157129371536 13.549788663514157 L0.8037797099371673 13.503320564514176 L0.8162715719371576 13.488509367514148 L0.8291703349371673 13.42462590351419 L0.8321814029371453 13.339583585514156 L0.8367386949371607 13.317855070514149 L0.8487015849371673 13.282088468514182 L0.8570837469371426 13.265527596514168 L0.8771032779371453 13.239485929514153 L0.8773067279371602 13.229394783514174 L0.8736039289371647 13.22141952351415 L0.8714473529371602 13.214827726514152 L0.8714066629371686 13.203271736514175 L0.8729528869371492 13.196517179514153 L0.881823329937184 13.178125252514171 L0.8839392149371506 13.171777596514168 L0.8887813379371536 13.168196867514148 L0.9109574449371607 13.165999601514152 L0.934923915937155 13.160018156514177 L0.9671097879371686 13.13361027851419 L1.0005977439371563 13.098128507514154 L1.0103226789371647 13.078353117514148 L1.0170772359371867 13.058089445514149 L1.0209834859371867 13.036360929514153 L1.0222855699371607 13.01251652851419 L1.0140254779371602 12.989119718514182 L0.9944942279371602 12.985457609514178 L0.9533565329371854 12.99571151551418 L0.9604366109371867 12.977156827514186 L0.977526454937184 12.945418546514183 L0.9868851789371647 12.933659106514192 L1.034289149937159 12.893050382514154 L1.038439540937155 12.886458585514156 L1.1131465719371576 12.727034757514154 L1.1244177309371466 12.713484952514186 L1.1352412989371814 12.707666268514167 L1.14801799093717 12.696639249514185 L1.192370204937184 12.62579777851419 L1.2063676009371633 12.558659106514192 L1.2171097879371686 12.53986027851419 L1.232246506937166 12.52024764851415 L1.2680537989371814 12.46128768751418 L1.316475022937162 12.40977401551418 L1.319689540937155 12.403670499514185 L1.3361690329371854 12.392236580514172 L1.3431677309371466 12.385604093514182 L1.3484981349371523 12.374861906514177 L1.3535030179371788 12.354354093514182 L1.357490647937162 12.343978117514148 L1.3729121969371576 12.320947518514167 L1.388740647937162 12.302596281514177 L1.4009476789371647 12.283756762514138 L1.405871181937151 12.25893579951417 L1.4081091369371492 12.214827726514152 L1.4044063379371536 12.195906827514186 L1.391588954937184 12.173323820514149 L1.3948848529371602 12.167871346514168 L1.3984248929371788 12.159651945514149 L1.386787522937162 12.167708585514156 L1.3856075099371523 12.179427335514156 L1.3875606349371523 12.193221281514177 L1.3853633689371563 12.207422127514171 L1.3782426009371633 12.214949796514183 L1.3526892149371506 12.231307218514182 L1.3431677309371466 12.235335538514157 L1.3299841369371492 12.235701749514185 L1.3213578349371673 12.233463794514186 L1.3118363509371633 12.235416919514186 L1.296007899937159 12.24839706251418 L1.2853877829371854 12.260848234514178 L1.278226324937144 12.272811124514185 L1.2631709859371867 12.30625839051418 L1.2502315329371854 12.327986906514177 L1.24762736593717 12.33433456251418 L1.245470790937155 12.34641952351415 L1.2360713769371827 12.36635767451417 L1.23395549093717 12.37535018751418 L1.225329188937188 12.387272387514138 L1.178698329937184 12.42657902851419 L1.1638057519371827 12.416162361514175 L1.1703975489371814 12.399479419514186 L1.192370204937184 12.37535018751418 L1.1977412989371814 12.360823820514149 L1.23395549093717 12.296777596514168 L1.296007899937159 12.218001554514153 L1.30231486593717 12.202376554514153 L1.3167598529371602 12.184635669514186 L1.3326289939371563 12.168929288514157 L1.4054235899371506 12.111719002514171 L1.4378129129371686 12.10040715351419 L1.4809444239371814 12.07578964051418 L1.4940059469371576 12.06407089051418 L1.52692424093717 12.061181893514167 L1.553454188937188 12.045312752514171 L1.5743282129371536 12.023258715514139 L1.5902380439371413 12.001326749514185 L1.6312129779371602 11.957340747514188 L1.659167079937184 11.919417570514149 L1.6974971579371854 11.893782804514153 L1.713854579937184 11.87970402851419 L1.720527756937166 11.861393481514192 L1.7288692279371602 11.849715421514183 L1.8201778219371576 11.780501554514153 L1.8753129129371686 11.726424406514177 L1.943997808937148 11.630843351514152 L1.9695918849371523 11.604109952514186 L2.0016963769371827 11.577457934514136 L2.0200069239371814 11.565983325514189 L2.040148524937159 11.556950122514188 L2.0608597879371686 11.551009367514148 L2.104154058937148 11.544295499514185 L2.1252315329371854 11.533309171514183 L2.1587601789371647 11.509139249514185 L2.1581905179371788 11.485905200514189 L2.1613236559371884 11.480045825514189 L2.1735713769371827 11.457096606514192 L2.197334397937162 11.430159757514154 L2.221422938937188 11.412337492514148 L2.2465694239371814 11.399804939514176 L2.2657344629371536 11.386092374514185 L2.2779414939371563 11.365869393514167 L2.2877071189371563 11.300846606514192 L2.311632899937159 11.241439054514153 L2.320137131937166 11.194970955514172 L2.3338903869371492 11.166243742514148 L2.337511806937151 11.152897387514138 L2.3355993719371426 11.136458585514156 L2.3315303609371867 11.121321867514148 L2.3303910379371686 11.106307218514182 L2.337511806937151 11.09019393751418 L2.3300655179371788 11.083968351514152 L2.3363317939371413 11.069889575514189 L2.3409704649371506 11.054020434514136 L2.343818772937162 11.037337492514148 L2.3443477439371563 11.021346281514177 L2.3416621969371576 11.005843351514152 L2.3321407129371536 10.984033455514172 L2.3300655179371788 10.97105331251418 L2.3311234599371673 10.882552335514156 L2.323839931937151 10.857405851514152 L2.3543168199371607 10.74135767451417 L2.3614375879371536 10.725488533514174 L2.391507574937144 10.624658455514172 L2.4373653219371576 10.566064705514172 L2.45042684593718 10.555770109514178 L2.4586462469371426 10.546004484514178 L2.4883907129371536 10.480696867514148 L2.495226649937159 10.436019132514154 L2.49730184593718 10.429671476514152 L2.5067012599371523 10.411849210514156 L2.5121944239371814 10.380273689514176 L2.5525996969371576 10.287988533514174 L2.6271032779371453 10.192366788514157 L2.6540401269371827 10.147811124514185 L2.6596553609371867 10.134627531514177 L2.6625036689371413 10.114730070514149 L2.6785762599371523 10.069970955514172 L2.6869991109371867 10.056136320514149 L2.683214931937151 10.040104419514186 L2.693184006937166 9.983789314514176 L2.6902543199371607 9.96910018751418 L2.6807328349371673 9.938867439514176 L2.6834997619371492 9.92885767451417 L2.6912715719371576 9.917708585514156 L2.7017696189371563 9.888533781514177 L2.7074255439371413 9.877344002514171 L2.7634151269371827 9.811507413514157 L2.772814540937155 9.805281827514186 L2.820381272937162 9.79563827351415 L2.874621181937151 9.769352465514139 L2.9576289939371563 9.69611027851419 L2.9715043199371607 9.679345955514172 L2.9807816629371686 9.662093351514152 L2.9933142149371506 9.64720077351415 L3.016507574937144 9.637801359514178 L3.1266963769371827 9.627181242514148 L3.1458207259371633 9.619205981514192 L3.249824631937166 9.570703377514171 L3.4315466369371492 9.45347518751418 L3.5535762599371523 9.382674406514177 L3.6124548399371506 9.322493742514148 L3.6726761949371607 9.213281502514171 L3.6932246969371576 9.159896085514156 L3.712511806937151 9.07884139851415 L3.741564540937155 9.020817309514136 L3.771105556937151 8.894393156514177 L3.7899043849371523 8.856307218514182 L3.8724646059371466 8.747135669514186 L3.8727901269371827 8.741561124514185 L3.8657914289371647 8.732243090514139 L3.8656286689371413 8.726627856514192 L3.8793005439371413 8.719832609514178 L3.932726649937159 8.60618514851415 L3.9659704649371506 8.504134367514148 L3.968127040937155 8.483016202514186 L3.9727657129371536 8.465071867514148 L3.9925817939371413 8.426741788514157 L3.9953062760618465 8.409093648444177 L3.99534872093718 8.408797452514186 L3.9959997619371492 8.404443611514175 L4.00230672793716 8.386580656514177 L4.013048915937155 8.376937101514152 L4.043200282937185 8.363509367514148 L4.075589605937147 8.339339445514149 L4.112129319937161 8.328678637514138 L4.128405360937187 8.311751554514153 L4.170560308937148 8.250553637514138 L4.193997808937148 8.177881111514175 L4.205472418937141 8.15696639851415 L4.221178798937181 8.142969002514171 L4.240465907937185 8.132877856514192 L4.334622808937148 8.10118026551418 L4.515734462937154 8.073551684514136 L4.660021571937158 8.076155851514152 L4.838529058937148 8.024316658514174 L5.112129319937161 7.982568611514175 L5.123156337937154 7.975569913514157 L5.1456579649371506 7.954695890514181 L5.150459397937162 7.952010343514182 L5.167956142937179 7.94838892451417 L5.391182053937165 7.861474861514175 L5.687975673937181 7.745955656514177 L5.720771897937162 7.723128507514154 L5.744738368937156 7.695662687514179 L5.784248459937167 7.636702726514152 L5.799547938937188 7.62181014851415 L5.81761434593718 7.607731372514188 L5.832588303937165 7.591902921514183 L5.838854579937184 7.571842700514189 L5.847643642937179 7.556380460514156 L5.907091884937152 7.520003507514154 L5.953926194937161 7.469100187514179 L5.961738694937161 7.454817960514156 L6.003242600937163 7.431868742514148 L6.011095790937155 7.424178312514179 L6.019355881937166 7.410506437514179 L6.024401454937184 7.403914640514181 L6.058581142937179 7.379744718514182 L6.061999110937187 7.375838468514182 L6.082506923937181 7.345280200514189 L6.110461024937159 7.319197843514182 L6.125963954937184 7.309879809514136 L6.410957444937161 7.181380460514156 L6.479357509937152 7.141015877514171 L6.561144618937156 7.103865812514179 L6.599759527937145 7.081160734514178 L6.722643642937179 6.979394783514174 L6.825670985937187 6.842187752514171 L6.8526892149371506 6.81362329951417 L6.871569423937181 6.799707283514174 L6.909533290937155 6.787459562514179 L6.925158290937155 6.77220077351415 L6.949206142937179 6.738509367514148 L6.974434006937166 6.710311124514185 L6.985989996937143 6.692610929514153 L6.990832118937156 6.674300382514154 L6.995918381937166 6.665755460514156 L7.031807053937165 6.642969002514171 L7.036527105937147 6.636621346514168 L7.045397548937181 6.615625252514171 L7.086575933937148 6.561629484514178 L7.092638759937152 6.550439705514172 L7.0948767149371506 6.529280851514152 L7.100939540937155 6.506901294514186 L7.109932053937165 6.486637622514188 L7.120592860937187 6.471663663514157 L7.168281662937169 6.433170825514189 L7.175768642937179 6.420760343514182 L7.181872157937185 6.404769132514154 L7.223620204937184 6.355574796514183 L7.353340256937166 6.232649992514148 L7.455635178937165 6.07501652851419 L7.518420009937152 5.944686124514185 L7.528307704937184 5.907576749514185 L7.545153407937185 5.780176033514174 L7.563545334937167 5.713769783514174 L7.566230881937166 5.693953702514186 L7.561917730937147 5.667220304514153 L7.550850022937162 5.654158781514177 L7.535387782937185 5.644922127514171 L7.518420009937152 5.629378507514154 L7.507311610937187 5.612288663514157 L7.481798915937155 5.561995695514149 L7.473498134937152 5.528873950514189 L7.465156662937169 5.524072518514167 L7.454007574937144 5.523055265514181 L7.442736415937155 5.519515226514152 L7.433743902937145 5.511702726514152 L7.415392665937155 5.484765877514171 L7.343900152937145 5.442977140514181 L7.32261922793716 5.4419598875141375 L7.299547938937188 5.437606046514183 L7.285021571937158 5.423323820514149 L7.286852626937183 5.384912361514175 L7.307930100937163 5.347314705514172 L7.334541428937165 5.311751554514153 L7.353340256937166 5.279280851514152 L7.359850673937181 5.256901294514186 L7.360664475937163 5.244450122514188 L7.356758225937163 5.2349286375141375 L7.349718837937154 5.225936124514185 L7.34918986593717 5.219629158514174 L7.351671962937154 5.212467700514189 L7.353340256937166 5.200504809514193 L7.345853277937145 5.004134367514148 L7.342109787937169 4.986230721514168 L7.326037196937158 4.950301359514178 L7.338529058937148 4.926823169514186 L7.364611415937155 4.785384367514148 L7.366930751937183 4.728133390514181 L7.362658290937155 4.704736580514172 L7.352038173937181 4.69212264851415 L7.338773199937144 4.68276392451417 L7.326037196937158 4.669173429514153 L7.357327886937149 4.634749601514152 L7.380602626937183 4.600244393514167 L7.403918056937151 4.540104419514186 L7.415392665937155 4.525781502514171 L7.43394735293716 4.511580656514177 L7.440295009937152 4.504215747514188 L7.445910243937156 4.486434171514183 L7.459948329937184 4.473738859514178 L7.465929774937159 4.462264249514185 L7.479357509937152 4.4458661375141375 L7.484281011937149 4.436385343514182 L7.498359787937169 4.35618514851415 L7.506253668937141 4.340438077514186 L7.597765712937154 4.255477140514181 L7.638170985937187 4.207096606514192 L7.645617274937159 4.20034204951417 L7.660265712937154 4.190739184514193 L7.668607183937148 4.183170825514189 L7.67613485293716 4.173445890514181 L7.684883225937163 4.156233976514152 L7.689766037937169 4.149031827514186 L7.807441819937161 4.045272062514179 L7.8194860899371506 4.024886320514149 L7.827135829937184 4.010075122514188 L7.838732509937152 3.969954679514153 L7.840482183937148 3.953515877514171 L7.845446376937183 3.9411460855141556 L7.881579188937188 3.9026532475141877 L7.895820725937163 3.8749839765141516 L7.90355184593718 3.8441001875141794 L7.908800868937156 3.7409507735141503 L7.904609787937169 3.7360679605141556 L7.885810959937167 3.728092700514189 L7.881579188937188 3.7207684815141917 L7.883898524937159 3.6991213465141684 L7.89020549093717 3.6838218675141476 L7.917305100937163 3.6390220625141794 L7.924710699937144 3.6190432215141684 L7.926623134937152 3.5992678305141723 L7.918769944937161 3.583317309514193 L7.909899501937183 3.573104093514182 L7.901191819937161 3.5586591065141917 L7.895251063937188 3.5420575445141864 L7.894600022937162 3.5252525315141767 L7.91364299093717 3.4946942625141375 L8.061388759937152 3.3887372315141917 L8.17503622093718 3.2744794195141864 L8.271878668937141 3.2167808515141516 L8.305773524937159 3.1896812425141476 L8.418851324937144 3.060937752514171 L8.544420985937187 2.943953702514186 L8.552070725937163 2.932234952514186 L8.553210048937181 2.9195803305141723 L8.552559006937166 2.8980552655141807 L8.56167358993715 2.8853192625141375 L8.644396571937158 2.802881111514175 L8.652412522937162 2.7990562425141476 L8.661038824937144 2.8010907475141877 L8.670763759937152 2.810042570514149 L8.679430751937183 2.812077075514189 L8.703763433937148 2.810937752514171 L8.72191122093718 2.8073570235141503 L8.758532313937188 2.7915692625141375 L8.794787196937158 2.766911059514193 L8.853340256937166 2.7062014245141697 L8.888903407937185 2.6817466715141833 L8.930407313937188 2.6670575445141864 L9.067003993937156 2.6407310465141833 L9.16201538693715 2.605167895514164 L9.211006272937162 2.586775968514182 L9.257311610937187 2.577010343514182 L9.282132574937144 2.5682212815141767 L9.303820399937159 2.5450279215141833 L9.328763433937148 2.5356285075141543 L9.395576584937167 2.5182945235141503 L9.435371506937166 2.500960538514157 L9.454088954937184 2.497379809514193 L9.47256226193715 2.4888348875141375 L9.489123134937152 2.471663663514157 L9.506009527937145 2.4588869715141684 L9.525703537937169 2.4632408125141794 L9.537340907937185 2.4570152265141516 L9.546943772937162 2.4583579995141847 L9.556302496937143 2.462223559514193 L9.567370204937184 2.4632408125141794 L9.576891688937188 2.4600262945141864 L9.594307053937165 2.4508303305141723 L9.623603928937165 2.4460288985141503 L9.64443726193715 2.438948820514149 L9.66331747093718 2.4300376875141794 L9.676501063937188 2.4216148355141556 L9.710273850937163 2.3850751225141877 L9.739245204937184 2.3733563725141877 L9.767199306937151 2.344588468514182 L9.786445725937163 2.339095304514153 L9.779609787937169 2.346541593514182 L9.799710699937144 2.3522788985141503 L9.820950933937148 2.346907804514153 L9.832425543937141 2.340478768514167 L9.906074631937166 2.2991783125141794 L9.944241949937144 2.2706545495141697 L9.980618902937145 2.2538902265141516 L10.020983485937187 2.241520434514193 L10.05654663693715 2.236719002514171 L10.05699422793716 2.2366783125141794 L10.074084071937158 2.231307218514182 L10.105700282937185 2.2079104085141736 L10.14175171493715 2.1973309815141917 L10.246203212937154 2.1274253825141543 L10.35146851193715 2.0319663985141503 L10.43980672793716 1.9090009035141904 L10.50576538693715 1.7910809815141917 L10.615628668937141 1.653873950514189 L10.62580119493716 1.636865486514175 L10.642646897937162 1.5975588465141684 L10.665636806937151 1.566797127514171 L10.881457118937156 1.1907798745141847 L10.968167730937147 0.9470054605141556 L11.14964559593718 0.5704185465141833 L11.155016688937188 0.551375577514186 L11.156888433937148 0.5269615155141807 L11.161242274937159 0.5127606695141864 L11.182726649937159 0.473047127514171 L11.203519293937141 0.41905135951417805 L11.205309657937185 0.41062850751415425 L11.208320725937163 0.4013511635141569 L11.22150431993716 0.38609237451418466 L11.22451538693715 0.37620467951415293 L11.230456142937179 0.32920760951417805 L11.237373459937167 0.305973559514193 L11.246325282937185 0.29083684051413883 L11.26553101193715 0.2742352785141904 L11.300158290937155 0.2695966065141917 L11.39215861593717 0.2806643145141763 L11.404284267937179 0.27879257051414896 L11.43122111593717 0.256697843514182 L11.443672287937169 0.24892603351417364 L11.461820074937144 0.24095077351415028 L11.48004924093717 0.2372886635141569 L11.492663173937181 0.24241561751414764 L11.51011922793716 0.23570174951418466 L11.533841558937148 0.235213468514182 L11.557604579937184 0.24005559051413883 L11.57457235293716 0.24925155451415293 L11.633532313937188 0.22060572151416835 L11.65029663693715 0.20831730951419303 L11.686103928937165 0.17462590351419038 L11.704699306937151 0.16123885951417805 L11.725451259937152 0.15306014851415028 L11.733533663937145 0.15347824651416175 L11.73810902793715 0.15716805651418753 L11.750064010937159 0.16262897451417047 L11.759362331937176 0.16218619751418117 L11.763199733937164 0.15451139351414866 L11.765561211937175 0.14683658851418357 L11.768070282937138 0.14506548051416956 L11.77423869493716 0.14711939351416703 L11.77470208493721 0.14708077651415152 L11.783842786937235 0.1695372045142065 L11.795159925937206 0.1898977195141427 L11.810662854937213 0.20777776451411256 L11.83283244493716 0.2242271405141807 L11.832751063937188 0.22447128151417672 L11.827868251937183 0.23899764851415028 L11.83120483993715 0.26389999251414764 L11.846178798937181 0.315739184514193 L11.850939540937155 0.357812752514171 L11.854805100937163 0.3698570235141503 L11.86090861593717 0.37913436751414764 L11.868761806937151 0.3863772055141723 L11.874661871937143 0.3872723875141375 L11.891670334937167 0.38507512251418774 L11.896797287937169 0.3863772055141723 L11.898180751937183 0.3921958905141807 L11.896105556937151 0.4073732995141697 L11.896797287937169 0.4136802655141807 L11.913561610937187 0.4668622315141917 L11.924141037937169 0.48696314351416703 L11.945137131937166 0.5030764245141697 L11.987373459937167 0.5278160075141543 L12.022773850937163 0.5554852785141904 L12.107287196937158 0.6541180905141388 L12.122708746937143 0.6640464765141516 L12.147204188937188 0.6675865155141807 L12.165351975937163 0.6723472575141543 L12.185045985937187 0.6836997965141833 L12.218859462937154 0.709131111514175 L12.247057704937184 0.7412762945141864 L12.264228928937165 0.7570640545141529 L12.308581142937179 0.7695966065141917 L12.362943121937143 0.8115887945141864 L12.403063563937188 0.8305503825141543 L12.54527547793716 0.8661949135141569 L12.678128668937141 0.8908124265141666 L12.679308681937151 0.891015877514171 L12.797513433937148 0.9197430905141388 L12.825915126937183 0.9214520755141891 L12.84650431993716 0.9168134035141904 L12.904162196937158 0.8867027265141516 L13.042956142937179 0.8668052655141807 L13.12685913693715 0.8356773355141556 L13.212267665937155 0.821150968514182 L13.254219162937169 0.8047528565141917 L13.264147548937181 0.8163088465141684 L13.261030344937147 0.8206663355141401 L13.248888177937168 0.8240287825141692 L13.244031310937167 0.827764833514145 L13.248514572937175 0.8337425155141815 L13.25509375793714 0.8406912285141672 L13.269659744937165 0.8574120435141523 L13.284303413937174 0.8631780305141703 L13.305000412937169 0.8642417885141569 L13.332669683937148 0.8661949135141569 L13.351631272937162 0.8648114505141891 L13.386095790937155 0.8623700445141864 L13.408760178937165 0.8531333905141807 L13.418037522937162 0.8351890545141529 L13.426419683937148 0.807926684514193 L13.447334397937162 0.7892906175141476 L13.473986415937155 0.780745695514149 L13.499987392937179 0.7836753825141543 L13.519355881937166 0.7945803305141723 L13.56134806993716 0.8262372315141917 L13.582588303937165 0.838281502514171 L13.657539475937163 0.848047127514171 L13.684232183937148 0.8605796795141529 L13.696154384937152 0.8609052005141891 L13.708809006937166 0.859765877514171 L13.719713954937184 0.859969327514186 L13.730700282937185 0.8629397055141723 L13.750312912937169 0.8707522055141723 L13.760648199937144 0.873641202514186 L13.811510829937184 0.8770591715141833 L13.85431681993716 0.869775643514167 L13.97842163693715 0.8333579995141847 L13.999621181937151 0.8224937425141476 L14.044909267937179 0.7830243405141388 L14.055529384937152 0.7774497965141833 L14.063830165937155 0.777938077514186 L14.073148199937144 0.7820477785141904 L14.08389038693715 0.785302986514175 L14.09650431993716 0.7836753825141543 L14.12816122093718 0.757145434514193 L14.167305100937163 0.6780438725141877 L14.192736415937155 0.647078702514186 L14.190742600937163 0.6365806565141767 L14.195625412937169 0.6282798745141847 L14.20498413693715 0.625146736514175 L14.216906337937154 0.630355070514149 L14.221341558937148 0.6385337815141767 L14.21597046493715 0.655745695514149 L14.22060913693715 0.6675865155141807 L14.21051799093717 0.698104093514182 L14.22378296493715 0.7366376225141877 L14.225451259937152 0.741316984514178 L14.22573608993715 0.7418052655141807 L14.20664063793722 0.7577183575142286 L14.209792900937195 0.7853652485141325 L14.230515149937212 0.8037103815141293 L14.260648199937144 0.7946617105141556 L14.274523524937159 0.8115887945141864 L14.265612392937179 0.8206219975141877 L14.261217860937187 0.8357994065141767 L14.260241298937181 0.8525230385141569 L14.263740647937162 0.8848716715141833 L14.268420009937152 0.8980145755141891 L14.277168381937166 0.9097740155141807 L14.291572678937165 0.9248700445141864 L14.317492274937159 0.940291593514182 L14.352607834937167 0.9496910075141543 L14.425443121937143 0.9556317625141375 L14.381741949937144 0.926416268514167 L14.305285243937156 0.8542320235141503 L14.290392665937155 0.8330731695141864 L14.295153407937185 0.8252606695141864 L14.308703212937154 0.8339683515141516 L14.357165126937183 0.8770591715141833 L14.364896246937143 0.887801359514178 L14.41246297793716 0.928328702514186 L14.455228277937145 0.9485923745141847 L14.506823329937184 0.9633628825141543 L14.610338954937184 0.975447843514182 L14.656074631937166 0.9722333255141891 L14.680244553937165 0.967187752514171 L14.696357834937167 0.9589683515141516 L14.717435308937148 0.9391115805141723 L14.736437587937154 0.9264976485141503 L14.756823329937184 0.9224286375141375 L14.852119553937165 0.9527427655141807 L14.874499110937187 0.9556317625141375 L14.898302821937158 0.962020109514178 L14.924873459937167 0.9743492105141556 L14.950996506937166 0.9822837815141625 L14.952434908937157 1.0216298965141348 L14.961891695937219 1.0481399065141446 L14.979771741937178 1.067983656514123 L15.010260836937185 1.0775437965142274 L15.04751954493721 1.099661309514154 L15.078628756937142 1.1238975565142155 L15.112321790937209 1.1418809555142175 L15.157280286937116 1.1453432755141435 L15.169941012937151 1.153404799514142 L15.173868421937122 1.1652387025141664 L15.175160332937189 1.1788812805141689 L15.180069592937109 1.1927305645142283 L15.193815524937143 1.2063214655142147 L15.246835544937163 1.2335032695141948 L15.280735283937155 1.2599099255141724 L15.385845146937122 1.3148936505142004 L15.404035250937248 1.3302415505141951 L15.400417900937178 1.3375279275141807 L15.387447116937174 1.3457444805141066 L15.363055839937225 1.3908580055141684 L15.31060426093719 1.4579856915141889 L15.302439385937156 1.4749355605141048 L15.422897148937203 1.5774099265141572 L15.459329033937188 1.5865308165142054 L15.470594495937142 1.59190516551417 L15.363934339937167 1.699133762514215 L15.402226575937185 1.7368833965141803 L15.427496350937155 1.7812734515141315 L15.498809827937116 1.9656291235142263 L15.501475615937146 1.9795639245141459 L15.503925794937196 1.9923716775141784 L15.501445325937219 2.0123962955141295 L15.454833183937176 2.1734975735142044 L15.45147421593716 2.2204197725141697 L15.460517590937108 2.269589899514223 L15.47105958393717 2.298761244514232 L15.470336112937183 2.309768324514131 L15.462739678937218 2.324521946514132 L15.452611096937169 2.335218967514159 L15.440983899937201 2.3437197405141674 L15.431320407937186 2.353822482514097 L15.426772881937232 2.3691962215141658 L15.432819023937178 2.384983372514178 L15.448166924937162 2.39387171851417 L15.482841810937167 2.4042586805141255 L15.500308443937136 2.4150848935141553 L15.511160494937165 2.426892958514152 L15.556222344937218 2.517145847514179 L15.56082154693717 2.5501154115141347 L15.54816082093722 2.5773488915142266 L15.533174655937238 2.5960557595141225 L15.514416109937166 2.6518146295141563 L15.500721855937137 2.676981052514215 L15.49033489393721 2.702354180514199 L15.490179863937179 2.800746108514126 L15.49932659193717 2.833612318514163 L15.549969495937226 2.8749793025141983 L15.56795289393721 2.903556369514156 L15.581492119937188 2.9349756405141036 L15.602162691937188 2.9595994605142053 L15.628052584937215 2.9797532695141697 L15.657198092937243 2.9976074765142258 L15.67404460993722 3.0113792455141564 L15.680504163937194 3.0321014955141905 L15.680194104937208 3.0554334045142255 L15.677041842937136 3.0772925345141644 L15.6747164029372 3.0875761445141805 L15.67058228893719 3.096955417514131 L15.6646911759372 3.105275323514185 L15.657198092937243 3.1120966125141436 L15.614771741937226 3.1379348285141546 L15.750215670937216 3.3291893045141094 L15.783030204937141 3.352805433514142 L15.846540539937187 3.3726750225141373 L16.126058362937236 3.554576063514169 L16.141561292937148 3.577184502514207 L16.083580334937203 3.632142388514133 L16.05040406593718 3.653639784514162 L16.013300387937214 3.6666364075140976 L15.971855888937164 3.6717265365141785 L15.955577812937143 3.678961236514148 L15.939403089937137 3.696970473514149 L15.929429537937203 3.714669651514164 L15.916045342937188 3.7507398015141646 L15.900137302937217 3.8421424575141785 L15.898061943937186 3.8540668275141243 L15.898372002937172 3.8625159235142306 L15.896925062937179 3.8707324765141564 L15.890568860937172 3.8814036605141453 L15.884367688937168 3.8867263325142076 L15.867882907937194 3.8978626035141204 L15.864007174937136 3.904141290514225 L15.868399671937134 3.9204193665141602 L15.884574394937225 3.92067774851413 L15.921729749937121 3.9080686985142066 L15.940850029937216 3.907861993514139 L15.961727307937188 3.9132363415141995 L15.97795370793721 3.925535333514155 L15.98296632293718 3.946360935514214 L15.963225924937198 3.9819143205141714 L15.924003512937155 3.989924167514154 L15.848607597937153 3.986875258514125 L15.840132662937172 3.9865135235141977 L15.816154797937138 3.9855316715141456 L15.77817262093722 3.9840330545141356 L15.727943128937163 3.9820693495142123 L15.667223320937175 3.979640557514138 L15.597770195937208 3.9768500305141927 L15.5211857239372 3.973749444514148 L15.43922690193721 3.970493829514176 L15.353599052937163 3.9670831845142303 L15.266007500937171 3.9636208645141906 L15.178105889937193 3.9601068665142307 L15.091702893937189 3.9566445455142016 L15.008452161937178 3.953285577514187 L14.930162366937218 3.9501849905141526 L14.858383802937219 3.9472911115141542 L14.794925142937181 3.9448106425141773 L14.657414157937204 3.9393846165141966 L14.477993584937245 3.9819143205141714 L14.29237183993714 3.995298516514204 L14.234830131937194 4.022945408514126 L14.303792077815238 4.179154506851297 L14.345725070819036 4.276998157193482 L14.171004266636764 4.297964653695296 L13.95435046945061 4.353875311033683 L13.661996879937156 4.398839776514144 L13.624815686937232 4.401630303514203 L13.582182630937147 4.3933103975142345 L13.514054042911162 4.423763632706574 L13.500076378576544 4.682350422896441 L13.426093966937138 4.686419122514174 L13.371058565937197 4.720938978514177 L13.358372001937163 4.734426527514223 L13.354341240937167 4.752719984514194 L13.360645764937168 4.828219252514124 L13.358578708937209 4.851060235514218 L13.337391370937233 4.881807712514167 L13.330725110937145 4.901393080514204 L13.33423910893719 4.918756361514205 L13.346098849937214 4.927748061514144 L13.362764499937235 4.9286782365141235 L13.380592867937189 4.921908623514163 L13.409841728937145 4.898137465514203 L13.42469870393716 4.891367853514176 L13.442139498937216 4.895243584514141 L13.456453870937189 4.908317722514177 L13.483842379937151 4.945989841514212 L13.501619072937181 4.960717624514196 L13.537689221937164 4.975910496514139 L13.549419771937146 4.985057224514129 L13.55903158893718 5.003557387514157 L13.563475761937177 5.021282403514171 L13.564819348937156 5.040712741514149 L13.618886525420542 5.115658017268579 L13.56297586808224 5.192535171108865 L13.514054042911162 5.234468164112549 L13.521042875078443 5.297367653618245 L13.528031707245752 5.360267143123828 L13.339333238728862 5.444133129131423 L13.171601266713786 5.479077289967826 L13.017846959033413 5.486066122135135 L12.89903681218933 5.514021450804314 L12.801193161847259 5.562943275975307 L12.68937184717057 5.688742254986586 L12.549595203824786 5.786585905328685 L12.402829728311609 5.842496562667073 L12.2979972458022 5.891418387838151 L12.21413125979472 5.947329045176453 L12.10230994511803 6.031195031183962 L11.997477462608565 6.09409452068963 L11.899633812266465 6.1849493388644206 L11.829745490593574 6.303759485708419 L11.738890672418783 6.4295584647196975 L11.634058189909403 6.548368611563667 L11.536214539567304 6.576323940232875 L11.452348553559737 6.548368611563667 L11.41740439272322 6.457513793388877 L11.291605413711942 6.471491457723495 L11.172795266868057 6.49245795422528 L11.046996287856778 6.49245795422528 L10.900230812343601 6.49245795422528 L10.760454168997704 6.506435618559898 L10.613688693484526 6.541379779396387 L10.473912050138743 6.555357443730976 L10.390046064131177 6.625245765403868 L10.215325259948877 6.562346275898285 L10.103503945272188 6.555357443730976 L10.026626791432015 6.562346275898285 L9.914805476755326 6.604279268901969 L9.82395065858045 6.688145254909564 L9.710274264937219 6.682447157514112 L9.689500338937187 6.6891392555142275 L9.66743450293719 6.691361342514234 L9.64505860693722 6.690637872514152 L9.600875256937108 6.6839716125142346 L9.554108085937195 6.682162937514143 L9.519949964937204 6.695392104514134 L9.458894259937232 6.74975571151419 L9.44357219793718 6.7604268935142 L9.395564792937215 6.782260186514129 L9.334431571937209 6.832541354514099 L9.228546562937161 6.895354059514155 L9.137234306937238 6.971731825514134 L9.103903008937174 6.992247369514196 L8.991248385937176 7.036043145514192 L8.923087171937162 7.0768158505141585 L8.856786308937238 7.132523045514212 L8.84030152793715 7.141204685514175 L8.805109876937188 7.155053968514132 L8.790072034937218 7.165802666514146 L8.755758883937197 7.219236098514166 L8.74314983393716 7.2305790745141465 L8.697726250937215 7.2528257785142 L8.652741915937206 7.284503431514203 L8.524713554937215 7.345636651514106 L8.505955009937217 7.359899346514176 L8.494792900937192 7.378761244514216 L8.491175550937207 7.405684665514123 L8.491175550937207 7.451366631514141 L8.491175550937207 7.511311293514133 L8.491175550937207 7.5711784405141955 L8.491175550937207 7.631097263514171 L8.491175550937207 7.691041925514163 L8.491175550937207 7.750960748514139 L8.491175550937207 7.810905409514227 L8.491175550937207 7.870824232514202 L8.491175550937207 7.93069137951418 L8.491175550937207 7.990636041514172 L8.491175550937207 8.050554863514158 L8.491175550937207 8.110499525514122 L8.491175550937207 8.1704441875142 L8.491175550937207 8.230363010514203 L8.491175550937207 8.290230157514152 L8.491175550937207 8.350148980514156 L8.491175550937207 8.410145318514147 L8.420998955937215 8.410145318514147 L8.357023532937141 8.410119480514233 L8.356525983937182 8.410120618514135 Z" fill="black" stroke="black" stroke-width="0.5" vector-effect="non-scaling-stroke"/></svg>