<svg xmlns="http://www.w3.org/2000/svg" viewBox="0 0 10.846830071579987 16.719088701660034"><path d="M2.0063805342900096 16.53491890633003 L2.0098945322899695 16.27715686233 L1.9995592452899942 16.195198041330027 L1.9523269862900534 16.109725221330006 L1.9448339032900108 16.08171659532999 L1.9323798832900039 15.97857043632997 L1.9372374682899718 15.949424928329957 L1.9703103842900092 15.870359987330058 L1.9739277352900118 15.843694948330022 L1.9670547692900655 15.809071739330005 L1.9552208662900412 15.772071413329964 L1.9499498702900055 15.736104616330078 L1.9630756842899828 15.704685345330045 L1.8965164392899752 15.689285768329963 L1.8677843432899763 15.675333132329978 L1.8417394202900041 15.653008913330009 L1.8024653322900477 15.537873822330024 L1.7983312172899915 15.507901491329985 L1.8044290362899815 15.48020292333005 L1.8469070642899865 15.379847292329995 L1.8547618822900418 15.36775500733 L1.8675776372900046 15.356592897329971 L1.8772928062900647 15.351218548330007 L1.8841140962900127 15.345120729330045 L1.8882482102899658 15.331788210330028 L1.8881448572900368 15.310084108330027 L1.8788947762899753 15.24734892033008 L1.8730553382900226 15.226471640330015 L1.8626167002899834 15.205801067330082 L1.8588959972899843 15.174588502330021 L1.8601362312900065 15.141722292329984 L1.8641669922899737 15.116400840330012 L1.8812202152900355 15.06751493533002 L1.879721598289997 14.850267213329996 L1.8787914232899894 14.691207154329984 L1.878119629290019 14.571834596330046 L1.8770861012900255 14.403369427330059 L1.8762592782900143 14.264049765330011 L1.884424154289981 14.19532011033004 L1.8790498052899594 14.118012168330036 L1.8538317062899878 14.041220989329982 L1.8188069832899956 13.97164431832999 L1.7619510092900228 13.858699831330068 L1.7555431322900077 13.816325156329977 L1.7489873532899551 13.657862616330018 L1.748308431289992 13.641452109330043 L1.7429340822899704 13.625535768330021 L1.7311518562900474 13.612720013330044 L1.6665563152900305 13.56900175133006 L1.6476944182900652 13.552671998330023 L1.6336901042899754 13.531691367330023 L1.593124105290066 13.443996462330002 L1.5545218102899767 13.318939495330024 L1.5347814132900126 13.282765993329999 L1.4387666022900376 13.18726794633005 L1.4201114092900653 13.151714560329989 L1.4139619152900664 13.11047676733008 L1.4349425462899958 12.882170290330048 L1.4288447272900058 12.851887901330027 L1.3601150722900357 12.653863811330023 L1.3188772792900423 12.535008018330029 L1.2674075522900594 12.386489951329974 L1.2158344732899664 12.23776517933005 L1.1715994472899993 12.110227745330004 L1.1814179692899884 12.092244346330016 L1.2612063802899698 12.039947796330008 L1.3263186852899835 11.996953005330024 L1.3783051762899632 11.943209515330022 L1.4307050782900106 11.888845908330051 L1.483208333289987 11.834482302330084 L1.5356082352900344 11.780118695330014 L1.5880081382899576 11.725651735330015 L1.6403046872899623 11.671288129330048 L1.6928079432900418 11.616924521329974 L1.7452078452899755 11.562457562330064 L1.797711101290055 11.508093955330008 L1.8501110022899994 11.453730348330037 L1.9025109052900362 11.399366741329967 L1.95491080728997 11.344899782330057 L2.0073107102900067 11.29053617533 L2.059813965289983 11.23617256933002 L2.11221386829002 11.181808962329963 L2.164717122290064 11.127445354330074 L2.217013672290058 11.073081748330008 L2.2654861662900103 11.02285225633005 L2.3010395512900246 10.985231814330032 L2.3396935222899984 11.008589561329995 L2.3383454772900123 11.003898363330062 L2.337109701290025 10.999597861329956 L2.2642459312899987 10.88280912533001 L2.2654861662900103 10.878881715330035 L2.2693618982899935 10.873404014330045 L2.2730309252899943 10.867099489330041 L2.2731342772899907 10.860381553330011 L2.270240398290049 10.858314495330045 L2.265847901289966 10.858521201330017 L2.261352051290011 10.857901084330035 L2.252360352289976 10.846325563329994 L2.2378392742900033 10.837747275330056 L2.2323098962899977 10.828962282330078 L2.309617838290002 10.735841351330077 L2.360157389289988 10.675069866329974 L2.3835151372900114 10.63124825233005 L2.3897163092899874 10.593007692330058 L2.375970377289981 10.489138063329957 L2.3616043292899818 10.38175443732997 L2.3635680342900187 10.340413291330034 L2.3741100262899764 10.297935264330004 L2.4056326502900234 10.25948799833004 L2.449040853290036 10.25421700233002 L2.496169759289991 10.259694704330013 L2.5389578462900673 10.25287341433005 L2.5642792972900352 10.226725140329957 L2.5969388032899943 10.166677126330026 L2.628358073290009 10.109109580329996 L2.6932636722899943 10.033455283330039 L2.7377054032900574 9.98157214533003 L2.7454568692900594 9.968756390330054 L2.7509345702899637 9.954390342330054 L2.7580659182899936 9.923797894330033 L2.7575491542900537 9.915839724330066 L2.7508312172900347 9.902403851330032 L2.7495909832899557 9.895479209330045 L2.751761393289975 9.885764040330013 L2.7654039712900627 9.862096234330064 L2.7703649092900164 9.846593304330053 L2.777806316290061 9.797914105330033 L2.786901367290035 9.788922405329995 L2.803179443290027 9.786028525330007 L2.819044108290065 9.78137764633004 L2.8267955732899637 9.76701159833004 L2.832583333289996 9.736419150330033 L2.846225911290027 9.725153688330064 L2.899762696289976 9.726910687329958 L2.8968688152899986 9.719159222330031 L2.8908743492900513 9.695801474329993 L2.8944916992900644 9.621904176330016 L2.9138186852900176 9.562993043330007 L2.9153689782899974 9.521755251330003 L2.922138591289958 9.498294150330022 L2.9252908532900292 9.479070517330012 L2.9152656252900115 9.46801176133 L2.893096436290058 9.459226768330009 L2.8715473632899844 9.44630765933 L2.8549075532899693 9.430287965329963 L2.8466393232899705 9.412717978329976 L2.8549075532899693 9.373960654330045 L2.853460612289986 9.353703493330041 L2.835683920290059 9.344195030330052 L2.8170804042900173 9.350189496329985 L2.7872114262899927 9.379231651329984 L2.76468050228997 9.385122764329989 L2.7416328132900176 9.383985882329977 L2.723546062290019 9.380058473330006 L2.712125570290006 9.369206422329963 L2.708766601289973 9.346985557330012 L2.7119705402899754 9.336856976330065 L2.71786165429004 9.328175335330013 L2.722099121289979 9.318563518329992 L2.720652181289985 9.305541058330046 L2.718171712290008 9.295722535330082 L2.71786165429004 9.286524131329994 L2.724993002290013 9.214177126330025 L2.7246829432899986 9.195780316330026 L2.71786165429004 9.174076215330029 L2.703805664290009 9.169425336330061 L2.6856155602899676 9.171595745329963 L2.666443604289988 9.17076892333004 L2.655849935289986 9.158883343330015 L2.6547130542900064 9.138316123330025 L2.6610175782900356 9.097698447330071 L2.658950521290059 9.068346234330004 L2.661327637289993 9.058527712330044 L2.698638021289959 9.018323447330015 L2.713210775289987 8.996205934330003 L2.7211689462899713 8.97946277032997 L2.7246829432899986 8.961582724330096 L2.725716471289992 8.936881390329997 L2.754758627289995 8.812961305330017 L2.748402426289978 8.77864815533 L2.739979167290052 8.768829632330021 L2.7306257332900046 8.761801638330024 L2.7227192382899617 8.754050172330007 L2.7177583012899973 8.74175118233006 L2.715484538289992 8.730072308330005 L2.712487304289972 8.723251019330046 L2.706699545290043 8.718703493330008 L2.695847494289957 8.71446602533005 L2.6784842122900514 8.712605674330046 L2.6163691412900008 8.721494020330066 L2.602778239289968 8.720873903329998 L2.5914611002899974 8.717153200329985 L2.5835546062900576 8.70919502933003 L2.5811258142900115 8.695862510329999 L2.582779460289977 8.683150107330047 L2.5811258142900115 8.672194703329975 L2.5735810552899707 8.649870485330009 L2.5750279952899646 8.637571494329972 L2.584743165290014 8.629199912329991 L2.5975589192899875 8.622378623330032 L2.6082559412899755 8.614730511330048 L2.5956985682899827 8.606772340329993 L2.589290690290035 8.592096234330011 L2.5823660492899663 8.538146038330051 L2.5839163412899566 8.529154339330002 L2.6801378592900065 8.486159547330029 L2.710420248290042 8.481922080329976 L2.751347982289964 8.484919313330078 L2.777702963290018 8.482748903330002 L2.7950145672900035 8.469416383329982 L2.8057632652900466 8.447918987330038 L2.8127395842900356 8.421150596330062 L2.8148066402900227 8.388077679329978 L2.8070551762899996 8.360792523329973 L2.7769794922900033 8.303948447330011 L2.7641637372900405 8.268085003329983 L2.760753093289999 8.247517783330078 L2.763233562289976 8.230671266330003 L2.775635905290052 8.21702868833 L2.792792481289986 8.210207399330042 L2.8118094082899816 8.20493640333002 L2.82963777729001 8.195944703329982 L2.8491197922900042 8.184782594330041 L2.8710822762899753 8.174964072330067 L2.8889106452900037 8.162044964330061 L2.8955252282900474 8.141787802330054 L2.892011230289974 8.131555869329983 L2.879298828289997 8.117189821329983 L2.8778518892900493 8.107371299330008 L2.8806940922899926 8.108094769330005 L2.9017264002900234 8.078845908330049 L2.930561849290065 8.057968630329992 L2.9352644052900487 8.046909873329977 L2.9274612632899917 8.02778959333008 L2.909374512289993 8.008565960329971 L2.8626590172899924 7.972392458330031 L2.8474661462899817 7.951205120329984 L2.8430219732899573 7.936218955330002 L2.844778971290033 7.9279507263300495 L2.850670085290041 7.920302614330065 L2.8584215502900534 7.907073447329989 L2.867361572289987 7.885679404330059 L2.868033366289957 7.878237998330047 L2.8647777512899566 7.845165081330062 L2.829586101290012 7.742018923330033 L2.827415690290003 7.71948799833002 L2.832790039289968 7.699747601330042 L2.833720215290022 7.691169313330018 L2.821472900289997 7.67721667633003 L2.8198709322900655 7.667811565330066 L2.824935222289959 7.659853395330014 L2.8328933922900106 7.654892458330064 L2.840644857290023 7.648174521330031 L2.8446239432899816 7.635152060329997 L2.8427635912899873 7.617478721329999 L2.830929688289963 7.589470094330078 L2.8293793942900507 7.5699364033299865 L2.832169922289985 7.55040271232998 L2.8385778002900466 7.529628786330033 L2.8495332032899583 7.512885622329986 L2.8660696622900232 7.505547568329984 L2.891597819289963 7.489217815330047 L2.8956802572899747 7.452630902330011 L2.8927347012899887 7.408809287329998 L2.8965587572900304 7.370465374329992 L2.9130952152899923 7.333361696329998 L2.917022624289963 7.314138063330073 L2.912888510290067 7.293467490330055 L2.8991425782900038 7.275897503329997 L2.8616254882900094 7.259464398330021 L2.844158855289983 7.246338584330058 L2.839714681289969 7.238070355330006 L2.8291726892900115 7.204273968330025 L2.829069336289969 7.193215212330028 L2.835477213289984 7.1864972753299945 L2.844158855289983 7.181122927330033 L2.850670085290041 7.1733714613300315 L2.8899441742899867 7.099887574330065 L2.9041472062899985 7.078895179330058 L2.908754394290021 7.072085654330007 L2.914955566289997 7.056376019330042 L2.9141287442899753 7.04045967833002 L2.9071524252899863 7.0315713323299995 L2.884879883290047 7.019582399330044 L2.8760948892900515 7.012657757329972 L2.8657079272900106 6.992814007329979 L2.861935547290024 6.971006553330039 L2.861585891289998 6.9610194913299885 L2.860281901290058 6.923774293330009 L2.8466393232899705 6.86207263333004 L2.8210078122899986 6.804401735329986 L2.7792532562900547 6.73308825833001 L2.722615886289965 6.636453330330038 L2.721272299289957 6.630045453330009 L2.7929991862899683 6.562659385330004 L2.808708822289965 6.542815634330008 L2.825865398290013 6.510672894330067 L2.8540807292899686 6.405252972330029 L2.8610053722899593 6.376520875330026 L2.848706380290004 6.37796781633001 L2.8320665692899993 6.384685752330039 L2.802094239290035 6.4029792093300095 L2.785867838290052 6.407320029329991 L2.7545002442900355 6.405356324330054 L2.6931603192900653 6.39223051133008 L2.661844401290047 6.390370159329986 L2.646341472290011 6.392850628330049 L2.6323888352900227 6.398121624329999 L2.623810547289999 6.4037026793300065 L2.6234465552899806 6.403560784330079 L2.6177127282900656 6.401325563329973 L2.5911510422900292 6.381688519330023 L2.5811258142900115 6.342207725330095 L2.580402344289986 6.319160036330029 L2.5755964352900165 6.3047939883300295 L2.5642792972900352 6.2946654073300685 L2.4445966802900116 6.248259971330068 L2.2861567392899715 6.186661663330039 L2.182958903290036 6.146664105330057 L2.1042556972900357 6.135088584330017 L1.9066450202900356 6.1398428153300095 L1.8027753912900053 6.123823122330062 L1.7868590502899693 6.116381716330036 L1.7781257322900288 6.101188844330007 L1.7732164722899952 6.062948284330016 L1.7644314782899997 6.045274945330018 L1.7525458982899877 6.035663128330011 L1.7105846362899584 6.014475791330053 L1.6912576502900052 5.998559450330031 L1.6306928712900586 5.934687379330068 L1.6032010102900145 5.912776572330014 L1.5786030272900362 5.9021312273300275 L1.4116881512899582 5.891382529330013 L1.3731375332899702 5.872882367329989 L1.3581513672899987 5.86265043333 L1.3382042652899955 5.8598599063300405 L1.3166035162900371 5.859653200330083 L1.297069825289988 5.857172731330007 L1.2952094732899937 5.854278850330029 L1.2965530602900586 5.849421266330008 L1.2968114422899717 5.8447703873300405 L1.2921088872899773 5.842186565330035 L1.2880781252899638 5.84259997733005 L1.2802233082899548 5.8444603283300545 L1.2765026052899557 5.843736859329962 L1.270249756290049 5.8371222753300565 L1.2670974942899775 5.827820517330036 L1.2627566732900064 5.818622113330033 L1.2528347982899746 5.811800823329985 L1.233404460290025 5.80156889033 L1.220847087290032 5.78771960633004 L1.2020885422900065 5.7539232193300585 L1.1878258462900035 5.736559938330043 L1.1713927412899707 5.725191123330045 L1.1524791672900179 5.718369834330002 L1.0509866542899786 5.695115439329978 L1.0065965982899812 5.691808148329979 L0.9815335292899832 5.7067943133299615 L0.9733686522899703 5.720850303330064 L0.9658238932899863 5.720436891330049 L0.9579173992899896 5.714545778330059 L0.9493907882900672 5.7124787213299975 L0.9347146812900533 5.719816774330081 L0.9162145192900439 5.740073936330003 L0.9045356452900606 5.749789105330034 L0.8822631022900183 5.759194216329998 L0.8655716152899586 5.756920453330064 L0.850792156290062 5.7459650493299925 L0.8346691082900648 5.729428591330002 L0.7943614912899548 5.7020400813300505 L0.7499197592899591 5.693048382330016 L0.6422260752899902 5.693771852330013 L0.4790835782899663 5.694908733330021 L0.40730501328997804 5.695322146330039 L0.29506380329005566 5.696148968329961 L0.2938235682900441 5.626592491329969 L0.2917565112900675 5.506909873329956 L0.2902062182900309 5.411721884330074 L0.2887592772900476 5.3308999443300245 L0.30286694429006644 5.325318890330006 L0.30519238329001297 5.3228384213300295 L0.29372021529000136 5.2933828553300195 L0.2884492192899657 5.285528037329993 L0.25992382928999547 5.256175823330022 L0.2577534182900436 5.242326540330051 L0.26426464828998775 5.2203123803299825 L0.28266145829000067 5.185689170329976 L0.28534863329000615 5.1756639423300435 L0.2821446942900607 5.166052126330026 L0.26741691129004863 5.14620837533003 L0.26426464828998775 5.134736208330022 L0.2616808272900144 5.069623903330022 L0.25744335929002915 5.049056683330033 L0.2504153652900314 5.03055652033002 L0.23997672529001335 5.012779828329993 L0.22736767628996546 4.999654014330016 L0.21300162828996605 4.994383017329991 L0.18044547629003915 4.973815797330001 L0.15564078828996486 4.9261701273300496 L0.11833040429005592 4.8012165143300045 L0.11347281929003117 4.757911663330031 L0.11347281929003117 4.71326322633001 L0.10634147129000127 4.683394248329986 L0.10691711329000242 4.676870314330028 L0.10696158928997335 4.676366254329988 L0.12339469429000616 4.672128786330031 L0.2109345712899895 4.661896853330045 L0.2849868982900503 4.625930056330073 L0.3780561532900393 4.5808682063300346 L0.4843028982900037 4.543041058330044 L0.5694656572900172 4.512551963330065 L0.7082685552899548 4.463149294330048 L0.8075906582900316 4.440928427330004 L0.9490807292900527 4.409302451330017 L0.966960775290012 4.407958864330052 L1.070520345289971 4.383464235329992 L1.1992980152900614 4.353078492330038 L1.3033743492900172 4.328480511330053 L1.389157227290049 4.297474651330031 L1.4821748052899935 4.249725628330051 L1.5509044602899635 4.214482301330076 L1.6938414722900248 4.168490276329987 L1.8254096682899572 4.126012249329957 L1.9257653002899602 4.093662802330055 L2.001264567289958 4.059763063330035 L2.039556803289976 4.048290895330023 L2.1198619792900573 4.033924847330024 L2.2128795572900586 4.002918988330006 L2.3179894202899973 3.9678823663300697 L2.4692980152900432 3.91744616833007 L2.6374531252900297 3.8613255633300234 L2.809638998290019 3.8039647233300364 L2.9354194332899866 3.762003460330032 L3.022545899289959 3.732961305330047 L3.0952029632899567 3.7087767353299874 L3.1502900402900664 3.7385423603299692 L3.1727176112900466 3.7556989353300274 L3.183776367290058 3.7841209743300475 L3.178712077289994 3.8338337013300468 L3.183052898289965 3.8518171003300345 L3.2080642902900323 3.892021364330059 L3.2164358722900275 3.9012197693300656 L3.230750245290018 3.9103148213300294 L3.23963859129001 3.9137254653300566 L3.2468216152899814 3.920236695330029 L3.249601708290051 3.9254698113300286 L3.263513102289984 3.9516559673300655 L3.2810830902899752 3.9755304783299685 L3.331674317289959 4.075576051330042 L3.3498644212900572 4.0992438573300625 L3.362783529290006 4.109372438330023 L3.4049514982900533 4.127872601330051 L3.418284017289956 4.139241416330034 L3.4248469242900583 4.151126995330056 L3.429962890290007 4.163632692330065 L3.438437826290034 4.176551800330071 L3.4499099942900457 4.1853367933300625 L3.4767817382900503 4.197532431329986 L3.4882539072899945 4.206317425330052 L3.496728841289986 4.218926474329987 L3.510901798290014 4.2567451303299855 L3.5169860032899933 4.272980023329975 L3.5254609382899744 4.2863125423300055 L3.5373465182899864 4.296647829330009 L3.5549165042899986 4.301918825330031 L3.5647350262900446 4.295097535330083 L3.567938965290047 4.277217491330031 L3.568042318289976 4.2426976333300495 L3.5765689302900583 4.213655479330054 L3.5917101242899676 4.1911245543300275 L3.6128974612900393 4.18461332432997 L3.6666926272899687 4.224920941330023 L3.6949079592900276 4.227711468329982 L3.723329997290058 4.217582887330021 L3.7814143062900385 4.183063030330043 L3.808802816289962 4.176241742329989 L3.8380516762900143 4.1763450943300136 L3.943264893289985 4.1900910253300445 L3.951119710290051 4.185026735329981 L3.9626952312899917 4.159808636330023 L3.9700332852899933 4.1495767033300375 L4.002072672289991 4.136347536330046 L4.07493644228996 4.134383831330023 L4.173845134289969 4.099863974330031 L4.18138989329001 4.098933799329995 L4.197409586290043 4.100690797330056 L4.205367757290027 4.099140505330038 L4.213015869289997 4.094282920330027 L4.220250569289966 4.0884951593299625 L4.227795329289997 4.08374092832997 L4.236580322290003 4.082293988329976 L4.264588949290022 4.096866742330018 L4.272932526289971 4.1085477503300005 L4.286293050290034 4.127252484329983 L4.318952555290004 4.192468141330007 L4.3422069502899845 4.2203734143299805 L4.394296794290064 4.2706029073300265 L4.410626546289997 4.302332236329956 L4.411866780290019 4.335715211330022 L4.398327555289974 4.39524646133 L4.407836019290052 4.429456260329996 L4.4245791832899855 4.461702354330054 L4.4353278812900285 4.49115792033005 L4.440908935290032 4.522680543330022 L4.441218995289979 4.5964744893299745 L4.4435961112899705 4.613217653330022 L4.449487224290046 4.633164756330043 L4.458478923289967 4.649184450329994 L4.469434326289992 4.664170615329976 L4.476669027290008 4.679363486330001 L4.474808676290003 4.696210003330062 L4.467470622290058 4.710989463330076 L4.447110108289998 4.738481325330053 L4.441218995289979 4.752537315329985 L4.443492758290041 4.766696656330023 L4.449797282289957 4.779202354330021 L4.452381104290033 4.790571168330015 L4.4431826982900375 4.801526572329987 L4.440805583289979 4.818579794330017 L4.4515813362900545 4.895082277330086 L4.46157950929004 4.966064333329992 L4.457652100289955 4.99221260733 L4.439255290290056 5.0181541763300395 L4.425819418289997 5.027972698330014 L4.412796956289959 5.034690635330033 L4.40049796629004 5.042958864329986 L4.389129150289968 5.057634971330071 L4.384478272289961 5.070037314330033 L4.379517334290007 5.095358766330019 L4.372902751289963 5.107761110329999 L4.352748942290056 5.11975004233005 L4.333111898290021 5.150445843329987 L4.315128499289962 5.159437542330036 L4.302622803289957 5.176180706330069 L4.302519450290028 5.2098737403300355 L4.311614502289991 5.270231813330039 L4.308410564290035 5.310022666330038 L4.296524984289967 5.341751995330068 L4.2347140382900434 5.425227574330034 L4.2343065592899976 5.425777874330006 L4.223454509289958 5.431979046330081 L4.202783936289997 5.438180218330057 L4.185834066290035 5.446035036329999 L4.168057373290004 5.4592642033300045 L4.139635336289963 5.489029827330082 L4.128886638290034 5.514144573330011 L4.12382234728998 5.54907784133 L4.125682699289975 5.584734580330075 L4.136534750290004 5.6125365013300375 L4.148937093289966 5.623078493330009 L4.1822167162900215 5.638374716329974 L4.196789470289993 5.6470563583300155 L4.280195231290044 5.731909059330075 L4.29704174829002 5.754646690330045 L4.301485922290034 5.7827586683300005 L4.281745524289967 5.847354209330046 L4.277714762290067 5.88135730233007 L4.318952555290004 5.968793824330032 L4.338486247289985 5.988120810329999 L4.372902751289963 5.989361044330021 L4.417241130289973 5.995665570330043 L4.4395653482899675 6.017989788330009 L4.467573975289987 6.087236208330022 L4.478322672289984 6.10273913733003 L4.490828370289968 6.114624716330052 L4.52317781628998 6.138292523329991 L4.52989575229001 6.145423871330035 L4.535166749290035 6.1546222753300235 L4.5474657392899545 6.184284547329991 L4.553666911290044 6.188832074330019 L4.561211670290028 6.191519248330049 L4.624566976290033 6.224075400330005 L4.637486084290039 6.237821331330036 L4.655366130289998 6.271307659330031 L4.665494711290059 6.284640179330051 L4.712003499289985 6.322674033329999 L4.720065023289955 6.33641996433003 L4.727299724290027 6.358020713330003 L4.7371182462900165 6.373316937330042 L4.752414470289956 6.382101930330034 L4.769984456290025 6.389336631330007 L4.779109327290065 6.395753475329979 L4.78600415128998 6.400602093330061 L4.7902416182900325 6.408870322330014 L4.793445557289978 6.428197308329967 L4.797993083290045 6.435742067330008 L4.804814372290004 6.439462770330021 L4.820110596290057 6.442149945330055 L4.826931885290016 6.444630413330028 L4.84057446328999 6.454242230330035 L4.849152751289957 6.463233929329984 L4.867549561290026 6.487005088330033 L4.8970051272900506 6.509536012330056 L4.925530517290021 6.514083539329999 L4.955296143289992 6.511293011330036 L4.9882657062900435 6.51222318732999 L5.010796631290056 6.5283462333300655 L5.019995036290062 6.559352093330002 L5.020615153290045 6.595628948330056 L5.017617920290014 6.627771690330075 L5.005939046290031 6.655160199330023 L4.983924886290062 6.670249717330034 L4.95860343528998 6.682238649329985 L4.936899333289979 6.699601930330001 L4.9290445152900375 6.730814495329991 L4.961600667290021 6.778976930329971 L4.958500082290051 6.804711794330057 L4.973796305290001 6.8189744883300385 L5.02640291429001 6.826932659330009 L5.12727531029001 6.830239951329997 L5.184169089289959 6.824272792330017 L5.184429444290039 6.824245485329978 L5.191974202289977 6.8128766703300805 L5.197451905289974 6.7991307393300495 L5.200035726290061 6.782490928330031 L5.198692139289996 6.762233766330024 L5.189907146290047 6.724613323330001 L5.191147380289955 6.708490277330025 L5.201792724289966 6.690196820330041 L5.206857016290009 6.677174359330007 L5.200862549290015 6.668596071330068 L5.168513103290003 6.650095908330055 L5.163862224290064 6.6454450303299915 L5.163448812290007 6.639140504329983 L5.1683063972899745 6.634076214330005 L5.1744042162900215 6.62963204133008 L5.1776081542899774 6.624981162330027 L5.175334391289972 6.5870506613300215 L5.17771150729002 6.5659666773299925 L5.20272290029002 6.5455028103300315 L5.197658610289956 6.5205947693300566 L5.1776081542899774 6.481630739330068 L5.17357739329001 6.46178698932999 L5.170683513290022 6.395641155330022 L5.167582927290063 6.390370159329986 L5.143501709290014 6.364945355330075 L5.140711182289955 6.363085003330067 L5.132236247289974 6.359467653329997 L5.1291356612900145 6.357503949330049 L5.125208252290044 6.352129599329995 L5.120040609290051 6.34179431333008 L5.115493083289984 6.337040082330002 L5.1090852062899685 6.333629437330057 L5.087174398289996 6.325464560330044 L5.077975993289989 6.323914268330025 L5.066813883290003 6.32040027032998 L5.0610261242900165 6.312028688329999 L5.056892008289971 6.301693401329995 L5.040872315290052 6.276992067330067 L5.024439209289973 6.23255033533 L5.037151612289996 6.2239720473300615 L5.10691479528996 6.179116904329984 L5.120660726290033 6.165164267329995 L5.126138428289984 6.14728422233004 L5.125828369290026 6.107493369330026 L5.129749675290022 6.093995026330045 L5.131202718289991 6.088993206329999 L5.154767171289997 6.061501344330022 L5.158694581289957 6.0513727643299795 L5.146705648290016 6.023260785330034 L5.144431885289954 6.012718792329974 L5.1512531742900265 5.966416709330002 L5.169649984290039 5.928899619330007 L5.1916523552900244 5.903625520330035 L5.197451905289974 5.89696358433002 L5.267111736289998 5.83588204133002 L5.285921956290032 5.823479697330054 L5.3085562342899735 5.817795290330007 L5.328296631290051 5.818828818330001 L5.348863851290027 5.824306521330069 L5.3654003092899885 5.835055218330009 L5.372635010290061 5.851798382330042 L5.381213298290028 5.8595498473300545 L5.3945458172900445 5.865751019330045 L5.407051514290039 5.8662677833299846 L5.413562744289983 5.857069378329992 L5.416559978290003 5.84156644933007 L5.4215209152899675 5.8356753353300626 L5.445705485289956 5.833298219330029 L5.541100179290062 5.80549629933007 L5.551435465290048 5.804979534330027 L5.57034904028999 5.808390179330058 L5.579547445289997 5.807563356330032 L5.590089437289954 5.802395712330021 L5.66253979628997 5.753716514330005 L5.677629313290062 5.737180055330011 L5.687137777290026 5.715579306330039 L5.688171306290009 5.699869671329974 L5.682590251290016 5.669380576330081 L5.682176840290062 5.653567588329988 L5.689087644289977 5.628102322330019 L5.69923006229002 5.590729046330022 L5.709255290290038 5.446861859330024 L5.715559814290067 5.358288454329962 L5.724448161290049 5.233334840330013 L5.7300544992900555 5.154103096330086 L5.730119427289971 5.153185501330011 L5.733026449290016 5.112101930329981 L5.704501058290056 4.999757367330044 L5.68107872129 4.906332176330007 L5.677009197289955 4.890099977330049 L5.676699137290008 4.866742229330011 L5.683313721289984 4.841730837330015 L5.731786214290061 4.731246624329994 L5.759278077290027 4.667994672330007 L5.796795166290032 4.581798382329989 L5.775297770290003 4.582418500330046 L5.762378662290054 4.580454795330024 L5.755764079290067 4.571566449330003 L5.745532145290021 4.362380250329974 L5.739744385290045 4.345327028330029 L5.728065511290062 4.330754274330072 L5.6793863122900134 4.282798545330035 L5.643035625289976 4.238047271330029 L5.606935954290044 4.193605023330004 L5.501929443289988 4.064310589329988 L5.4153197432899915 3.9576504323300945 L5.348243734290044 3.8318699973300276 L5.262564209290055 3.7321344823300215 L5.171200277289962 3.6257843843300286 L5.06360994528999 3.500624065330026 L4.97658683329005 3.3991315523300436 L4.889046957289999 3.3208934343300847 L4.786934326290044 3.2296328553300775 L4.7563938122900495 3.2111875933300773 L4.755618408290026 3.21071928033005 L4.7221320812900345 3.1988337013300274 L4.687922282290039 3.1936660583300203 L4.559971436290063 3.195836468330011 L4.543848389289998 3.1927358823300658 L4.533099691289955 3.1872581813299767 L4.530102458290038 3.1831240663300484 L4.528965576289956 3.1771295993300264 L4.524211344289974 3.166070843330015 L4.503954183289956 3.130724164330015 L4.4922753092899725 3.115117881329976 L4.475255949290023 3.0985304843300376 L4.471914795289969 3.095274131329983 L4.470674561290004 3.0933104273300494 L4.437808350290062 3.0206533623300054 L4.4353278812900285 2.938694541330033 L4.441839111289973 2.853996869330029 L4.4302635912900215 2.7542613543300227 L4.416414307289962 2.6345787373300134 L4.399981201289997 2.494328899330011 L4.3869587412900515 2.38229439533006 L4.331664958290027 2.189954713330007 L4.272857178289975 1.9860395123300059 L4.248077233289997 1.8998441763299745 L4.246502197289978 1.8943655213299984 L4.251256429290017 1.8493036723300484 L4.272547120290064 1.79876412133002 L4.38013745128999 1.6389805923299967 L4.456308512290015 1.5258092053300452 L4.4969261882900256 1.4275206323300402 L4.5044709472900095 1.3880398373300231 L4.5064346522900465 1.347628867330041 L4.499716716290017 1.3042206643300425 L4.499613363289974 1.2860305593299977 L4.509225179289992 1.2732148053300243 L4.543745036289955 1.2649465763299723 L4.857110922289998 1.268460573330028 L5.274243082290049 1.2725946873300522 L5.315997640289972 1.2714578063300443 L5.31775463928998 1.2769355083300233 L5.324369222289967 1.2833433853300669 L5.333670980290016 1.2863406193299873 L5.358268962290062 1.2874775003299952 L5.362609782290043 1.2870640883299806 L5.375942302289992 1.2817930923299592 L5.3761490072900315 1.2808629163300047 L5.382660237289976 1.27900256533 L5.38658764729005 1.2767288023300658 L5.391238526290046 1.27724556633002 L5.400126872290038 1.283963503330039 L5.405501221290002 1.2915082623300798 L5.408085042290033 1.2984329043300669 L5.412632568290043 1.3040139583299855 L5.424001384290001 1.3076313083299702 L5.4252416182899665 1.2904747333300115 L5.436197022290038 1.289647910329986 L5.45232006829 1.2959524353300047 L5.468753174289965 1.3000865493300147 L5.492214274289985 1.2870640883299806 L5.493351156289954 1.2871674413300092 L5.547301351290038 1.2732148053300243 L5.557326579290056 1.2669102803300056 L5.564354574289986 1.2463430593300124 L5.572726156290038 1.232493776330056 L5.583784912290049 1.219161256330036 L5.595877197290044 1.2114097913300235 L5.5881257332900205 1.1894989843299832 L5.606522542290044 1.1787502863300539 L5.6567520352900615 1.169758587330005 L5.67442537429006 1.1561160093300025 L5.7056379392899785 1.1172553323300427 L5.718867106290055 1.1083669863300223 L5.759794841289967 1.1158083923300488 L5.788113526289955 1.127693971329986 L5.794521403290027 1.129450970329966 L5.83224519929005 1.1290375583299515 L5.845577718290066 1.135548789330013 L5.862837647289986 1.1561160093300025 L5.853329183289965 1.178440228329972 L5.86232088229 1.19735380233001 L5.881027751290027 1.2070689713300418 L5.90035473728998 1.2014879163300343 L5.91472078528998 1.2005577403299803 L5.935598063290037 1.2097561463299762 L5.972081624290048 1.231873658330084 L5.981900146290037 1.235801068329959 L6.004017660290039 1.2414854753300055 L6.013629476290056 1.2455162373299906 L6.0220010582899945 1.2520274673299632 L6.028512289289985 1.2587454043299964 L6.035333578290057 1.2639130473299893 L6.044428630290021 1.2659801043299659 L6.060551677289972 1.2736282163300352 L6.066132731289976 1.29233508533002 L6.068406494290038 1.3149693623299719 L6.075124431290057 1.334916465329993 L6.068716553289995 1.349902630330046 L6.071713786290026 1.3704698503300357 L6.080705485290061 1.388556601329963 L6.0921776532899585 1.39641141932999 L6.133415446290066 1.389486777330017 L6.14540437828996 1.3915538353300683 L6.160907308290042 1.4008555933300038 L6.171242594289971 1.4037494733299916 L6.185918702289975 1.4021991803300544 L6.222298910290057 1.3919672463300792 L6.253718181290061 1.3873163673300262 L6.260642823290063 1.3826654893300478 L6.265810466290056 1.3780146103299948 L6.270564698290038 1.3758441993300004 L6.38735343528996 1.3758441993300004 L6.3952082522900255 1.381218548329965 L6.40120271829003 1.4046796493300313 L6.407507243290048 1.409950644329978 L6.413088298289985 1.4120177023300293 L6.4382030442899705 1.4243166933300664 L6.4554629722900145 1.4261770453300748 L6.518198161290037 1.4162551693299825 L6.533080973289977 1.4111908793300039 L6.559746013290045 1.408296999330016 L6.5670840662900005 1.4037494733299916 L6.572458415289965 1.3973415953300439 L6.582173584290025 1.389486777330017 L6.619070557290037 1.3756374943299612 L6.630542725290049 1.3696430283300138 L6.6395344242900265 1.3613747983299724 L6.667336345289961 1.3211705343300473 L6.712604899289978 1.268460573330028 L6.729554769290054 1.2628795183300063 L6.739063232290029 1.2676337503300026 L6.758803630289982 1.2690806903299965 L6.783608317290067 1.2848936783299898 L6.798387776289964 1.2876842063299527 L6.890888591290015 1.279519329330025 L6.90029370129006 1.2754885683300294 L6.909182047290052 1.268873984330039 L6.924891683290049 1.2597789333299794 L6.936880615290001 1.29057808633004 L6.964062419290066 1.324064414330035 L6.998995687289984 1.3530032163300056 L7.034135661289987 1.3696430283300138 L7.119091715290018 1.3886599543299916 L7.162706625290049 1.3933108333299593 L7.198570068289975 1.389486777330017 L7.208285237290035 1.3851459573300353 L7.216140056289966 1.380185019329982 L7.223891520289989 1.376464316329983 L7.233296631290024 1.3758441993300004 L7.244872152289965 1.381218548329965 L7.2626488442900055 1.3997187113299923 L7.270813721290018 1.4037494733299916 L7.320319743289964 1.4174954033300189 L7.343160726290002 1.4174954033300189 L7.362177653290054 1.4143948183299777 L7.368895590289959 1.4108808203300178 L7.3772671722899545 1.4037494733299916 L7.382848226289958 1.3938275983299881 L7.388532634289994 1.3799783133300245 L7.3962840982900175 1.3675759703300479 L7.408376383290012 1.362201621329998 L7.429253663289991 1.3578608013300162 L7.465427165289988 1.339050579330003 L7.487131267289989 1.334916465329993 L7.518860596290018 1.334606406330007 L7.540254639290005 1.330885703330079 L7.55885815429 1.3204470643300503 L7.603403239289982 1.2853070903300043 L7.676163655289976 1.2537844663300426 L7.696937582290026 1.239418418330029 L7.709443278289974 1.228463015329961 L7.717608155290044 1.2151304953300404 L7.715747803289993 1.2028315033299997 L7.709753337289989 1.1905325133299662 L7.705722575289975 1.1771999933300314 L7.710993571290011 1.154772422330037 L7.73497143628996 1.112707806330004 L7.7335244962899665 1.0947244083300198 L7.742929606290012 1.0825287703300113 L7.758329184289984 1.0373635673300292 L7.760913005290014 1.0226874613300474 L7.76773429329004 1.014005820329995 L7.830572835289992 0.978865847330038 L7.84710929429 0.9749384373299783 L7.887830322290064 0.9724579683300014 L7.896718669289989 0.9701842053299821 L7.906123779290034 0.9603656833300214 L7.963277914290053 0.950753867330004 L7.985853485290058 0.9512145933300182 L7.993663656290018 0.9513739843299724 L7.993663656290018 0.9498236923299537 L7.996764241289988 0.9469298113300617 L8.00182853329003 0.9445526953300138 L8.007926351289974 0.9444493423299996 L8.009683350289983 0.9469298113300617 L8.014954346290018 0.956128216330054 L8.018158285289964 0.958091920330002 L8.027873454290024 0.9612958593300611 L8.047510498290059 0.9754552023300214 L8.059396077289968 0.9786591403299916 L8.070868246290026 0.9766954363299583 L8.092985759290038 0.9676003843300798 L8.102907633290023 0.9649132093300459 L8.14910636428997 0.9720445573299905 L8.184969808289999 0.9965391863300361 L8.240160238289981 1.0536933203300656 L8.275610271290056 1.0715733663300249 L8.354881917289994 1.09121041033006 L8.384184104289979 1.1080414243300076 L8.384750895289962 1.1083669863300223 L8.409658936289965 1.0779812443299726 L8.508154215290041 1.0121454683299866 L8.530685140290053 0.9841368423299848 L8.546704834290018 0.9707009703300251 L8.57647045929 0.962742799330055 L8.596727621290064 0.9534410423300379 L8.607579672290036 0.9513739843299724 L8.619568604289988 0.9526142193300124 L8.64116935329006 0.9576785093299911 L8.652228109289958 0.958091920330002 L8.670521566290041 0.9485834573300131 L8.710312419290041 0.9111697203300473 L8.723541585289958 0.9029014913300095 L8.744418864290004 0.8977338473299987 L8.761988851290006 0.8856415623300187 L8.788757243289957 0.8625938733300522 L8.82255363029001 0.8549457623299723 L8.953295004289977 0.8550491153300008 L8.987918213289994 0.8483311783300671 L9.018717367289959 0.8345852473300361 L9.042281820289965 0.8392361263300039 L9.083002848290029 0.8611469333299588 L9.104086833290047 0.8687950453300282 L9.13064851928997 0.8691051043300142 L9.155763265289956 0.8616636973299983 L9.179121013290036 0.8490546483299788 L9.37518139629001 0.6941287053300691 L9.390994385289993 0.6855504163300417 L9.40815096129004 0.6799693623300236 L9.485252198290006 0.6742849543299876 L9.652993897289981 0.6380080993300332 L9.678315349290052 0.6274661063299725 L9.77846427428998 0.5593565693299603 L9.881610433289985 0.5158450133300327 L9.900627360289981 0.5060264913299726 L10.025684326290026 0.4094949153300398 L10.053589600290003 0.399262982330054 L10.065268474289987 0.3879975203299999 L10.08407869529001 0.36370959633000766 L10.143196533289974 0.3058319923300665 L10.18102368229004 0.27792671832999005 L10.24582592729005 0.2556025003300242 L10.28168937229001 0.23017769533002408 L10.313522055289958 0.19865507233005175 L10.329355787289991 0.16969062933001666 L10.346445631289988 0.16391263432999992 L10.361907871289965 0.16749336333002063 L10.367930006289988 0.17758450932999992 L10.357350579290006 0.19076810333005412 L10.376230787289991 0.19499987333004398 L10.403004876290005 0.17262031633002195 L10.41952505828997 0.18336250433001666 L10.424570631289988 0.2043585973300246 L10.413991204290006 0.22104154033000256 L10.399098626290005 0.23422513432999992 L10.391530266289955 0.2453742223300246 L10.399098626290005 0.26124336333002063 L10.417246412289991 0.2678351603300193 L10.438079746289965 0.27182279033000256 L10.453541985290009 0.2795539103300193 L10.460622063289954 0.29469062933001666 L10.462982089289973 0.3287889363300387 L10.47030630828997 0.344739457330018 L10.484629225289986 0.3527960973300246 L10.523854485290009 0.35776029033000256 L10.539235345290002 0.36524726933002327 L10.547454746289965 0.381848832330018 L10.532887688289954 0.38624336333002063 L10.494557610290009 0.38258125433001666 L10.462331048290004 0.391614457330018 L10.377858391289955 0.45704414433002327 L10.384694329290006 0.491874873330044 L10.392506829290006 0.48650378033003605 L10.398122063289954 0.4803188843299999 L10.402109693289994 0.4733201863300387 L10.405202141289955 0.464531123330044 L10.424489251290005 0.4807257853300193 L10.494557610290009 0.5153937543300167 L10.512786777289968 0.5358201863300387 L10.494069329290006 0.554863155330036 L10.439219068289994 0.5805793013300153 L10.421071282290008 0.5968553423300413 L10.400807610290009 0.6225714883300206 L10.388600579290006 0.6506476603300193 L10.399098626290005 0.687675655330036 L10.390879225289986 0.7221808633300206 L10.399017246289965 0.732109248330044 L10.410410475289986 0.7293423213300052 L10.423512688289954 0.7044399783300541 L10.433034173290004 0.698010941330022 L10.45858755828997 0.7088345093299999 L10.458262037289991 0.737317582330018 L10.444508782290008 0.769218623330044 L10.429372063289954 0.790051957330018 L10.397389641289955 0.8234992223300246 L10.391530266289955 0.8344855513300153 L10.390879225289986 0.8474250043300167 L10.398366204290006 0.8724087283300541 L10.399017246289965 0.8823371133300206 L10.386647454290006 0.8996710973300246 L10.320078443289994 0.9477668013300153 L10.312591464289973 0.9607876343299999 L10.297943027289968 0.9956183633300206 L10.289723626290005 1.00570950933 L10.27694693328997 1.0101040403300026 L10.253021152289968 1.0101040403300026 L10.241302402289968 1.0119757853300193 L10.25155630828997 1.027031123330044 L10.260182610290009 1.0461554723300246 L10.267995110290009 1.0535610713300052 L10.275482089289973 1.03305325933 L10.29061880828997 1.041760941330022 L10.306325188289954 1.0564093793300167 L10.319997063289954 1.0727668013300153 L10.329355787289991 1.0870897173300413 L10.358327141289955 1.0800910193300233 L10.363860996289965 1.1116665403300026 L10.357594720290002 1.145276566330022 L10.350514641289955 1.1839321653300026 L10.340016595290002 1.215019405330036 L10.331959954290006 1.228691280330036 L10.320078443289994 1.2422003943300233 L10.315846673290004 1.2580695353300193 L10.327565423290004 1.273613155330036 L10.342946282290008 1.2877733113300387 L10.350514641289955 1.2999803423300413 L10.344492506289988 1.3112108113300387 L10.321950188289954 1.3364386763300153 L10.320078443289994 1.3449835973300246 L10.330820631289988 1.359550655330036 L10.334075839289973 1.371269405330036 L10.336842766289955 1.4036587283300541 L10.341481438289954 1.4233527383300206 L10.359954746289965 1.4407681033300541 L10.363209954290006 1.4461391963300052 L10.364512037289991 1.4524868533300541 L10.366302402289968 1.5011522173300413 L10.371999016289955 1.518323441330022 L10.384694329290006 1.533948441330022 L10.393320631289988 1.52914700933 L10.398691725289986 1.5281704463300052 L10.412689121289965 1.533948441330022 L10.385508131289988 1.5610480513300153 L10.378672193289994 1.5901007853300193 L10.385508131289988 1.6199673213300052 L10.399017246289965 1.649426957330018 L10.429372063289954 1.6917446653300026 L10.429372063289954 1.7009406293300167 L10.414316725289986 1.71664700933 L10.407969068289994 1.7270636763300153 L10.405202141289955 1.7592902383300206 L10.393320631289988 1.807385941330022 L10.391530266289955 1.8214647173300413 L10.395436516289955 1.8392056033300541 L10.413828443289994 1.8667121133300206 L10.41952505828997 1.8828253943300233 L10.417409173290004 1.899426957330018 L10.409840813289954 1.9199347693300233 L10.398366204290006 1.9375128943300233 L10.384694329290006 1.944999873330044 L10.370371412289991 1.9406867223300246 L10.356211256289988 1.9348273473300246 L10.346120110290009 1.9375128943300233 L10.343678704290006 1.9585089883300206 L10.368336907290008 1.95297513433 L10.390309563289954 1.9690884153300026 L10.406178704290006 1.9954556033300541 L10.412689121289965 2.0206834673300413 L10.409596673290004 2.034518103330054 L10.403249016289955 2.0466437543300167 L10.399017246289965 2.0592576863300387 L10.402028313289954 2.075208207330018 L10.410817376290005 2.083346228330054 L10.424570631289988 2.085624873330044 L10.453541985290009 2.0820441443300233 L10.450612298290004 2.0924608113300387 L10.444752923290004 2.1008429723300246 L10.436614902289968 2.1067023473300246 L10.41366568328997 2.1124803423300413 L10.407155266289955 2.1215949263300153 L10.399017246289965 2.1428351603300193 L10.372812818289994 2.1792121133300206 L10.37069693328997 2.1959764363300387 L10.384694329290006 2.211764196330005 L10.395273756289988 2.2163214883300206 L10.407399407290008 2.2182746133300206 L10.449391595290002 2.2202277383300206 L10.454518548290004 2.2249477903300026 L10.453541985290009 2.2934699263300153 L10.457285475289986 2.307955603330054 L10.466237298290004 2.31430325933 L10.477630527289968 2.317151566330022 L10.506601881289988 2.331718623330044 L10.512135735290009 2.340019405330036 L10.505137037289991 2.352389196330005 L10.495208652289968 2.3538540403300026 L10.47811880828997 2.334729691330022 L10.467213860290009 2.334729691330022 L10.46054068328997 2.344495316330022 L10.461191725289986 2.3571906293300167 L10.470631829290006 2.401217321330005 L10.478932610290009 2.4015428423300413 L10.489918938289954 2.395846228330054 L10.501393548290004 2.3967414103300193 L10.508555006289988 2.407076696330005 L10.517018548290004 2.4331183633300206 L10.521901360290009 2.438326696330005 L10.533945631289988 2.4417446653300026 L10.539316725289986 2.450208207330018 L10.539316725289986 2.4611945353300193 L10.535573235290009 2.4724250043300167 L10.519459954290006 2.4885382853300193 L10.497975579290006 2.493176957330018 L10.476491204290006 2.4875617223300246 L10.460377923290004 2.4724250043300167 L10.459564121289965 2.4804816443300233 L10.461354485290009 2.4904914103300193 L10.46444693328997 2.4983039103300193 L10.467213860290009 2.4997687543300167 L10.452565423290004 2.508801957330018 L10.424489251290005 2.5063605513300153 L10.41952505828997 2.513847530330036 L10.425709954290006 2.522229691330022 L10.438079746289965 2.530123571330005 L10.446950188289954 2.541760941330022 L10.443043938289954 2.561292191330022 L10.431813470290002 2.5879035193300233 L10.425709954290006 2.5959601603300193 L10.416920891289955 2.604260941330022 L10.414235345290002 2.605156123330044 L10.411875318289994 2.6013312543300167 L10.405202141289955 2.5959601603300193 L10.406178704290006 2.587577998330044 L10.402760735290009 2.580904821330005 L10.391530266289955 2.5754523473300246 L10.382741204290006 2.5745571653300026 L10.37655630828997 2.5761847693300233 L10.347829095290002 2.5910773473300246 L10.327402662289991 2.6052375043300167 L10.310475579290006 2.6217576863300387 L10.303395501290005 2.6369757853300193 L10.305104485290009 2.655937373330044 L10.310231438289954 2.666760941330022 L10.360768548290004 2.711926957330018 L10.375905266289955 2.7168097693300233 L10.391530266289955 2.7114386763300153 L10.404876621289965 2.6938605513300153 L10.399586907290008 2.6797003943300233 L10.388763339289973 2.66586575933 L10.384694329290006 2.6499152383300206 L10.392669589289973 2.6429165403300026 L10.407969068289994 2.6423468793300167 L10.424570631289988 2.6464972693300233 L10.436208001290005 2.653333207330018 L10.450612298290004 2.657239457330018 L10.467539381289988 2.6526821653300026 L10.481699537289991 2.6528449263300153 L10.487721673290004 2.6705858113300387 L10.482106438289954 2.70297513433 L10.458180657290008 2.7609178423300413 L10.453541985290009 2.793958207330018 L10.455983391289955 2.8117804723300246 L10.465260735290009 2.8454718793300167 L10.467213860290009 2.862968623330044 L10.460377923290004 2.938245316330022 L10.454762688289954 2.957776566330022 L10.441985996289965 2.9694139363300387 L10.427988600289986 2.979260941330022 L10.41952505828997 2.993176957330018 L10.422129225289986 3.0051398473300246 L10.435312818289994 3.000175655330036 L10.460377923290004 2.9796678423300413 L10.460377923290004 3.061536332330018 L10.465016595290002 3.0597459673300413 L10.476247063289954 3.0571418013300153 L10.480885735290009 3.0553514363300387 L10.476979485290009 3.0781378943300233 L10.446706048290004 3.1100389363300387 L10.439219068289994 3.1267218793300167 L10.437184563289954 3.169609248330044 L10.43124380828997 3.190442582330018 L10.41952505828997 3.2054165403300026 L10.41952505828997 3.2054979203300427 L10.436940423290004 3.219576696330005 L10.451588860290009 3.2378058633300206 L10.467051100289986 3.2534308633300206 L10.487721673290004 3.2601040403300026 L10.488942376290005 3.266614457330018 L10.475840162289991 3.2819139363300387 L10.443043938289954 3.3116990923300413 L10.431894850289986 3.3313117223300246 L10.43515005828997 3.3537726603300193 L10.46249380828997 3.4113084673300413 L10.467458001290005 3.4294562543300167 L10.483083001290005 3.548189978330054 L10.496022454290006 3.575045446330005 L10.496673496289965 3.5859503943300233 L10.498708001290005 3.5969367223300246 L10.514251621289965 3.6115851603300193 L10.520924798290004 3.619967321330005 L10.526458652289968 3.6294074263300153 L10.528737298290004 3.637464066330022 L10.531015943289994 3.6623664103300193 L10.541188470290002 3.7062303423300413 L10.543060214289973 3.7268195353300193 L10.538177402289968 3.753593623330044 L10.526784173290004 3.7656378943300233 L10.487721673290004 3.780286332330018 L10.499196282290008 3.78695950933 L10.508961907290008 3.7963996133300206 L10.514088860290009 3.808281123330044 L10.511972975289986 3.82211575933 L10.502125970290002 3.8335089883300206 L10.489186516289955 3.838066280330036 L10.460377923290004 3.8422980513300153 L10.431081048290004 3.8593878943300233 L10.437916985290009 3.8762335973300246 L10.452565423290004 3.8967414103300193 L10.446706048290004 3.9249803423300413 L10.460377923290004 3.920667191330022 L10.471608391289955 3.9015428423300413 L10.480560214289973 3.9010545613300387 L10.487396152289968 3.909518103330054 L10.484303704290006 3.919609248330044 L10.482676100289986 3.9297003943300233 L10.494557610290009 3.938489457330018 L10.479583652289968 3.949394405330036 L10.473398756289988 3.952161332330018 L10.48397818328997 3.9581834673300413 L10.494394850289986 3.958020707330018 L10.504648756289988 3.9531378943300233 L10.515065423290004 3.9453253943300233 L10.514821282290008 3.916191280330036 L10.539642246289965 3.897473832330018 L10.588795891289955 3.8774543013300153 L10.601002923290004 3.885592321330005 L10.613209954290006 3.8996710973300246 L10.61874380828997 3.9147264363300387 L10.616627923290004 3.9450812543300167 L10.621836256289988 3.9563117223300246 L10.638600579290006 3.965833207330018 L10.627532871289965 3.980156123330044 L10.622731438289954 3.999036332330018 L10.622487298290004 4.018567582330018 L10.624928704290006 4.034843623330044 L10.611256829290006 4.039238155330036 L10.587656568289994 4.057630082330018 L10.577077141289955 4.062024613330021 L10.563242506289988 4.057955603330054 L10.544118157290008 4.038424353330054 L10.528737298290004 4.034843623330044 L10.549082350289986 4.144055863330021 L10.531341464289973 4.138440629330017 L10.522145501290005 4.144788285330019 L10.523122063289954 4.156018754330017 L10.535573235290009 4.165051957330018 L10.515065423290004 4.185559769330023 L10.517018548290004 4.191093623330044 L10.521575839289973 4.196464717330041 L10.526295891289955 4.199719926330015 L10.528737298290004 4.199231644330023 L10.521250318289994 4.245618363330021 L10.521901360290009 4.261243363330021 L10.543060214289973 4.241956254330017 L10.557790032290008 4.218762894330023 L10.585133782290008 4.13461575933 L10.593027662289991 4.126966019330023 L10.653249016289955 4.098645707330018 L10.665781568289994 4.096204301330015 L10.693939121289965 4.105644405330036 L10.720875970290002 4.129163285330019 L10.735036126290005 4.159355342330041 L10.724538079290006 4.188977738330021 L10.711517246289965 4.197441280330036 L10.680918287289991 4.204277217330041 L10.665781568289994 4.209729691330022 L10.652516595290002 4.221041540330003 L10.653493157290008 4.229830603330054 L10.664235345290002 4.234632035330019 L10.679453443289994 4.234062373330044 L10.689625970290002 4.227063676330015 L10.698659173290004 4.217135290330003 L10.70858755828997 4.212089717330041 L10.721120110290009 4.219739457330018 L10.726247063289954 4.233655472330025 L10.724700839289973 4.250745316330022 L10.703867506289988 4.307874222330025 L10.705739251290005 4.318616410330019 L10.714284173290004 4.335706254330017 L10.717539381289988 4.339042842330041 L10.723398756289988 4.343030472330025 L10.729665032290008 4.348645707330018 L10.734791985290009 4.356946488330021 L10.736012688289954 4.363456905330036 L10.736094068289994 4.377210160330019 L10.738209954290006 4.384127478330054 L10.740488600289986 4.399915238330021 L10.726653964289973 4.458508988330021 L10.724700839289973 4.464042842330041 L10.725189121289965 4.468925655330036 L10.731374016289955 4.476331254330017 L10.734954746289965 4.482109248330044 L10.735036126290005 4.487805863330021 L10.732594720290002 4.493176957330018 L10.727956048290004 4.497245967330041 L10.680104485290009 4.516858597330025 L10.672617506289988 4.524426957330018 L10.667653313289954 4.532971879330017 L10.631764641289955 4.569186071330005 L10.61874380828997 4.581800004330017 L10.602223626290005 4.590182165330003 L10.584157220290002 4.594983597330025 L10.566579095290002 4.596448441330022 L10.55819693328997 4.590344926330015 L10.547047845290002 4.560071488330021 L10.535573235290009 4.54867825933 L10.539479485290009 4.567558467330041 L10.54061880828997 4.586438676330015 L10.546152662289991 4.60336575933 L10.563405266289955 4.616956254330017 L10.579355787289991 4.619479040330003 L10.626881829290006 4.619397660330019 L10.638600579290006 4.616956254330017 L10.648854485290009 4.632988155330036 L10.659596673290004 4.655286332330018 L10.666920891289955 4.677258988330021 L10.666432610290009 4.692639847330025 L10.651540032290008 4.680514196330005 L10.641367506289988 4.679456254330017 L10.631764641289955 4.683281123330044 L10.61874380828997 4.685885290330003 L10.563405266289955 4.671562373330044 L10.554453443289994 4.689791540330003 L10.567067376290005 4.718518754330017 L10.604420891289955 4.767835160330019 L10.573333652289968 4.778577347330025 L10.542165032290008 4.782564978330054 L10.514739902289968 4.792981644330023 L10.494557610290009 4.823010941330022 L10.480153313289954 4.817721228330054 L10.459889641289955 4.813245316330022 L10.439707350289986 4.811861853330054 L10.425709954290006 4.815605342330041 L10.420501621289965 4.825940629330017 L10.412200839289973 4.862154821330005 L10.405202141289955 4.876966019330023 L10.440846673290004 4.882337113330021 L10.45858755828997 4.888440629330017 L10.473398756289988 4.898124873330044 L10.48202505828997 4.867932816330022 L10.502125970290002 4.856214066330022 L10.527923496289965 4.859550655330036 L10.552907220290002 4.873873571330005 L10.566660475289986 4.896008988330021 L10.574147454290006 4.927910030330036 L10.569997063289954 4.955823441330022 L10.549082350289986 4.966484248330044 L10.561777662289991 4.981620967330041 L10.559336256289988 4.994153519330023 L10.521901360290009 5.033948441330022 L10.517344068289994 5.040540238330021 L10.51913443328997 5.056327998330044 L10.516041985290009 5.064710160330019 L10.510833652289968 5.073255082330018 L10.505137037289991 5.07992825933 L10.48593130828997 5.097180863330021 L10.480885735290009 5.103528519330023 L10.479176751290005 5.111015498330044 L10.480722975289986 5.127210160330019 L10.477142246289965 5.13461575933 L10.468841464289973 5.147962113330021 L10.465260735290009 5.163098832330018 L10.468678704290006 5.173515498330044 L10.480885735290009 5.172538936330039 L10.474293938289954 5.187024613330021 L10.465749016289955 5.199882686330039 L10.454355787289991 5.21078763433 L10.439219068289994 5.220227738330021 L10.425872714289973 5.225842972330025 L10.416758131289988 5.226575394330023 L10.391530266289955 5.220227738330021 L10.388437818289994 5.246432165330003 L10.373219720290002 5.264010290330003 L10.333180657290008 5.292249222330025 L10.318288079290006 5.309908728330054 L10.256113600289986 5.409680863330021 L10.057057610290009 5.610527217330041 L10.014739902289968 5.634534379330017 L10.008555006289988 5.643323441330022 L10.006439121289965 5.655937373330044 L10.002207350289986 5.667167842330041 L9.990895501290005 5.672132035330019 L9.981618157290008 5.673515498330044 L9.968678704290006 5.677421748330044 L9.957448235290009 5.684094926330015 L9.953297845290002 5.69320950933 L9.964528313289954 5.704439978330054 L9.986012688289954 5.692883988330021 L10.021575839289973 5.658460160330019 L10.027272454290006 5.681409379330017 L10.019297193289994 5.698987504330017 L10.007741204290006 5.715182165330003 L10.001719068289994 5.734143754330017 L9.997243157290008 5.758964717330041 L9.985524407290008 5.774426957330018 L9.953297845290002 5.803072790330003 L9.911793938289954 5.879895707330018 L9.884857089289973 5.917330603330054 L9.850270501290005 5.93344388433 L9.786224277289968 5.934583207330018 L9.767750970290002 5.939710160330019 L9.705820631289988 5.971855342330041 L9.675872714289973 5.996839066330022 L9.67343130828997 6.001152217330041 L9.675058912289991 6.009778519330023 L9.681894850289986 6.013359248330044 L9.693125318289994 6.014824092330041 L9.693776360290009 6.026624222330025 L9.692311516289955 6.051282426330015 L9.693125318289994 6.063163936330039 L9.700449537289991 6.08383450933 L9.713144850289986 6.101575394330023 L9.729583652289968 6.115410030330036 L9.748463860290009 6.124687373330044 L9.703053704290006 6.152519405330036 L9.686289381289988 6.158704301330015 L9.68515005828997 6.151624222330025 L9.680104485290009 6.13852200933 L9.678883782290008 6.131360551330015 L9.669362298290004 6.135755082330018 L9.659433912289991 6.138196488330021 L9.649180006289988 6.139010290330003 L9.638600579290006 6.138196488330021 L9.643808912289991 6.142835160330019 L9.653249016289955 6.153984248330044 L9.658457350289986 6.158704301330015 L9.631601881289988 6.167981644330023 L9.621510735290009 6.174085160330019 L9.610768548290004 6.186048051330015 L9.612070631289988 6.187838415330003 L9.613209954290006 6.194104691330022 L9.612396152289968 6.202161332330018 L9.607594720290002 6.209973832330018 L9.590749016289955 6.227063676330015 L9.570892246289965 6.240979691330022 L9.529958001290005 6.263196488330021 L9.500172845290002 6.286796748330044 L9.459889641289955 6.299329301330015 L9.450286777289968 6.305839717330041 L9.425058912289991 6.330742061330039 L9.248708001290005 6.418795446330005 L9.096852532290008 6.511894405330036 L9.080006829290006 6.525891801330015 L9.053965162289991 6.562757035330019 L9.039967766289955 6.571546097330025 L9.021657220290002 6.562757035330019 L9.021575839289973 6.566744665330003 L9.021413079290006 6.583020707330018 L9.010426751290005 6.596692582330018 L8.992930006289988 6.60531888433 L8.973235996289965 6.610608597330025 L8.990814121289965 6.616712113330021 L9.005788079290006 6.612154821330005 L9.014821282290008 6.612317582330018 L9.014821282290008 6.631686071330005 L9.008717766289955 6.649671097330025 L8.997487298290004 6.66586575933 L8.983001621289965 6.678723832330018 L8.967051100289986 6.686292191330022 L8.931081048290004 6.690198441330022 L8.896168938289954 6.688163936330039 L8.862965813289954 6.691175004330017 L8.805104485290009 6.728772660330019 L8.767995110290009 6.740491410330019 L8.610768548290004 6.754570186330039 L8.595631829290006 6.749036332330018 L8.571950188289954 6.725110551330015 L8.555430006289988 6.720471879330017 L8.577402662289991 6.749036332330018 L8.559254876290005 6.770276566330022 L8.522389641289955 6.783867061330039 L8.487965813289954 6.789319535330019 L8.492278964289973 6.771008988330021 L8.445566725289986 6.816663285330019 L8.429941725289986 6.816419144330023 L8.419118157290008 6.809094926330015 L8.411305657290008 6.801445186330039 L8.404713860290009 6.799573441330022 L8.396738600289986 6.805839717330041 L8.392832350289986 6.813489457330018 L8.393320631289988 6.822034379330017 L8.397877923290004 6.830335160330019 L8.115325839289973 6.938489457330018 L8.102305006289988 6.947604040330003 L8.079518548290004 6.972913285330019 L8.065358391289955 6.982434769330023 L8.04843130828997 6.981702347330025 L8.030202141289955 6.958753129330017 L8.028737298290004 6.891370316330022 L8.014251621289965 6.871839066330022 L8.02108755828997 6.892346879330017 L8.009206048290004 6.896822790330003 L7.996510735290009 6.896008988330021 L7.9843037042900065 6.891614457330018 L7.973317376290005 6.885592321330005 L7.987233391289955 6.906018754330017 L8.010670891289955 6.929456254330017 L8.022145501290005 6.951510290330003 L8.000579746289965 6.968111853330054 L8.020436516289955 6.981214066330022 L7.997243157290008 6.998548051330015 L7.932383131289988 7.022717972330025 L7.801360996289965 7.050061722330025 L7.746185214289973 7.078382035330019 L7.616953443289994 7.163261592330041 L7.606862298290004 7.164889196330005 L7.6095478452900025 7.151868363330021 L7.584564121289965 7.16195950933 L7.547617506289988 7.192721228330054 L7.5077412042900065 7.218762894330023 L7.473073235290009 7.213880082330018 L7.448415032290008 7.240572790330003 L7.31991568328997 7.313652217330041 L7.2931415952900025 7.339368363330021 L7.278086256289988 7.349785030330036 L7.2636005792900065 7.35336575933 L7.253346673290004 7.344902217330041 L7.236419589289973 7.368014196330005 L7.2264912042900065 7.375989457330018 L7.212331048290004 7.379081905330036 L7.185638339289973 7.379651566330022 L7.17546581329001 7.385510941330022 L7.17147818328997 7.399182816330022 L7.1603290952900025 7.415296097330025 L7.1346943292900065 7.431409379330017 L7.104909173290004 7.439954301330015 L7.0819599542900065 7.433606644330023 L7.077565423290004 7.47055325933 L7.049082350289986 7.505139847330025 L6.978932610290009 7.563977738330021 L6.906015943289994 7.680432816330022 L6.87655630828997 7.707288285330019 L6.876149407290008 7.699557165330003 L6.869720371289965 7.680025915330003 L6.86288443328997 7.686861853330054 L6.853932610290009 7.674003780330036 L6.845143548290004 7.664400915330003 L6.834889641289955 7.656913936330039 L6.821706048290004 7.65024075933 L6.807545891289955 7.639824092330041 L6.803965162289991 7.627454301330015 L6.804127923290004 7.613538285330019 L6.800872714289973 7.598157426330015 L6.780446282290008 7.575940629330017 L6.75163768829001 7.566175004330017 L6.725270501290005 7.572522660330019 L6.712086907290008 7.598157426330015 L6.744232089289973 7.577812373330044 L6.766041985290009 7.593925655330036 L6.779958001290005 7.627454301330015 L6.787770501290005 7.659518103330054 L6.79257193328997 7.696546097330025 L6.799977532290008 7.709322790330003 L6.833424798290004 7.717135290330003 L6.844980787289991 7.724133988330021 L6.856048496289965 7.733167191330022 L6.869720371289965 7.741467972330025 L6.839121412289991 7.79672513433 L6.825368157290008 7.813733597330025 L6.799489251290005 7.839612504330017 L6.7909443292900065 7.853772660330019 L6.787770501290005 7.871839066330022 L6.779876621289965 7.883964717330041 L6.760915032290008 7.881116410330019 L6.738047193289994 7.873873571330005 L6.7189228452900025 7.872408728330054 L6.703704746289965 7.881848832330018 L6.6935322202900025 7.896253129330017 L6.6779072202900025 7.927014847330025 L6.696706048290004 7.920260290330003 L6.726002923290004 7.899671097330025 L6.740000318289994 7.892916540330003 L6.72820018829001 7.91391263433 L6.658782871289965 7.995130082330018 L6.618092766289955 8.027844926330015 L6.524180006289988 8.132581254330017 L6.477467766289955 8.173841019330023 L6.444508782290008 8.180921097330025 L6.437265943289994 8.221204301330015 L6.430836907290008 8.235608597330025 L6.424407871289965 8.231132686330039 L6.403574537289991 8.221936722330025 L6.406911126290005 8.24171211333002 L6.410410475289986 8.248548051330015 L6.397552402289968 8.247327347330025 L6.379160475289986 8.247815629330017 L6.3654072202900025 8.251314978330054 L6.365976881289988 8.259127478330054 L6.371999016289955 8.27133450933 L6.366953443289994 8.28305325933 L6.349049798290004 8.303886592330041 L6.309987298290004 8.383639196330005 L6.294362298290004 8.406262894330023 L6.296152662289991 8.393079301330015 L6.294118157290008 8.38429023833002 L6.28874706329001 8.381360551330015 L6.280690423290004 8.385755082330018 L6.276784173290004 8.393567582330018 L6.2736103452900025 8.415377478330054 L6.264902662289991 8.436699092330041 L6.27304068328997 8.439466019330023 L6.282399407290008 8.435315629330017 L6.280690423290004 8.427421748330044 L6.284352532290008 8.42953763433 L6.291269850289986 8.432304561330039 L6.294362298290004 8.434257686330039 L6.295501621289965 8.43735013433 L6.295664381289988 8.447034379330017 L6.308685214289973 8.469902217330041 L6.299977532290008 8.479749222330025 L6.283294589289973 8.485689978330054 L6.270192376290005 8.492200394330023 L6.251393548290004 8.499036332330018 L6.228769850289986 8.492200394330023 L6.206227532290008 8.480969926330015 L6.187916985290009 8.475110551330015 L6.164723626290005 8.45338203533002 L6.130625318289994 8.389010290330003 L6.129323235290009 8.419934769330023 L6.151051751290005 8.489270707330018 L6.156666985290009 8.525159379330017 L6.142832350289986 8.557792842330041 L6.151540032290008 8.560315629330017 L6.157969068289994 8.565117061330039 L6.161875318289994 8.57211575933 L6.163340162289991 8.581311722330025 L6.159433912289991 8.58578763433 L6.150644850289986 8.58424141033002 L6.136810214289973 8.578137894330023 L6.103932610290009 8.583183467330041 L6.074635735290009 8.591809769330023 L6.0392353452900025 8.595390498330044 L6.024342766289955 8.581230342330041 L6.0194599542900065 8.523613155330036 L6.021575839289973 8.516126176330015 L6.0255634702900025 8.506848832330018 L6.0255634702900025 8.499036332330018 L6.016286126290005 8.49561836333002 L6.006764641289955 8.497083207330018 L6.001068027289968 8.500826696330005 L5.970957350289986 8.53272773833002 L5.923105787289991 8.600598832330018 L5.90202831329001 8.615735551330015 L5.869232089289973 8.619804561330039 L5.875254225289986 8.59945950933 L5.871347975289986 8.588635941330022 L5.861419589289973 8.587903519330023 L5.84929393829001 8.598645707330018 L5.84343456329001 8.61313138433 L5.839284173290004 8.631035030330036 L5.833262037289991 8.648124873330044 L5.821461907290008 8.66000638433 L5.799977532290008 8.664726436330039 L5.788014641289955 8.656262894330023 L5.77890005828997 8.64438138433 L5.766041985290009 8.639010290330003 L5.756439121289965 8.641288936330039 L5.747812818289994 8.646253129330017 L5.74187206329001 8.653984248330044 L5.739430657290008 8.663831254330017 L5.742767246289965 8.673596879330017 L5.750254225289986 8.67172513433 L5.75936880828997 8.666842321330005 L5.766041985290009 8.66749336333002 L5.7599384702900025 8.683362504330017 L5.615895501290005 8.777356644330023 L5.606862298290004 8.787285030330036 L5.59148143829001 8.809094926330015 L5.581227532290008 8.817721228330054 L5.568613600289986 8.81471016033002 L5.554778964289973 8.827893754330017 L5.5333759702900025 8.865572790330003 L5.54061880828997 8.861992061330039 L5.546315423290004 8.860608597330025 L5.5607197202900025 8.858736853330054 L5.5607197202900025 8.865572790330003 L5.532969068289994 8.88038398833002 L5.506520501290005 8.90064766033002 L5.457692376290005 8.94752266033002 L5.47820018829001 8.94752266033002 L5.469818027289968 8.961275915330003 L5.425221673290004 9.010104040330003 L5.4178974542900065 9.014986853330054 L5.4064228452900025 9.016939978330054 L5.397715162289991 9.020276566330022 L5.393971673290004 9.028170446330005 L5.391204746289965 9.038098832330018 L5.385670891289955 9.047376176330015 L5.3341572202900025 9.112561722330025 L5.2323505792900065 9.215589066330022 L5.115000318289994 9.305025915330003 L5.019297193289994 9.39991523833002 L4.984629225289986 9.41431953533002 L4.959564121289965 9.420911332330018 L4.905039381289988 9.474378129330017 L4.874765943289994 9.496269405330036 L4.865651360290009 9.48585273833002 L4.854258131289988 9.493339717330041 L4.827077141289955 9.524182816330022 L4.772552402289968 9.558281123330044 L4.740976881289988 9.546562373330044 L4.732513339289973 9.53931953533002 L4.725270501290005 9.524182816330022 L4.719899407290008 9.495455603330054 L4.715586256289988 9.481620967330041 L4.708180657290008 9.475761592330041 L4.699798496289965 9.470471879330017 L4.657480787289991 9.434745967330041 L4.609629225289986 9.417981644330023 L4.598317376290005 9.410494665330003 L4.558847975289986 9.354179561330039 L4.550547193289994 9.345390498330044 L4.535410475289986 9.338717321330005 L4.528737298290004 9.323255082330018 L4.52507518829001 9.305025915330003 L4.51921581329001 9.290784379330017 L4.50945018829001 9.284355342330041 L4.493581048290004 9.277844926330015 L4.476002923290004 9.272799353330054 L4.4611103452900025 9.270846228330054 L4.445729485290009 9.27719388433 L4.43523143829001 9.305025915330003 L4.422943027289968 9.311210811330039 L4.422943027289968 9.31861641033002 L4.438568027289968 9.317639847330025 L4.457610996289965 9.301607946330005 L4.4745380792900065 9.297620316330022 L4.4921162042900065 9.299817582330018 L4.506276360290009 9.30649075933 L4.515716464289973 9.31820950933 L4.522715162289991 9.34913398833002 L4.531341464289973 9.364433467330041 L4.584401360290009 9.437838415330003 L4.590586256289988 9.441581905330036 L4.600677402289968 9.444999873330044 L4.618418287289991 9.448417842330041 L4.627532871289965 9.451673051330015 L4.633717766289955 9.459648311330039 L4.642669589289973 9.475761592330041 L4.666107089289973 9.500989457330018 L4.6700947202900025 9.509941280330036 L4.665456048290004 9.536389847330025 L4.65007518829001 9.56397773833002 L4.627614251290005 9.581800004330017 L4.6017353452900025 9.578788936330039 L4.604258131289988 9.59596016033002 L4.613698235290009 9.59596016033002 L4.625661126290005 9.588880082330018 L4.635833652289968 9.584973832330018 L4.653574537289991 9.59010078533002 L4.657318027289968 9.598157426330015 L4.649505527289968 9.626640498330044 L4.65007518829001 9.64283516033002 L4.656666985290009 9.675143103330054 L4.657480787289991 9.688001176330015 L4.656341464289973 9.696301957330018 L4.6544697202900025 9.701673051330015 L4.651295891289955 9.706311722330025 L4.64608755828997 9.712171097330025 L4.641367506289988 9.721692582330018 L4.643239251290005 9.730237504330017 L4.647226881289988 9.738294144330023 L4.649505527289968 9.74635078533002 L4.64812206329001 9.768242061330039 L4.649505527289968 9.778007686330039 L4.6525165952900025 9.785494665330003 L4.661305657290008 9.800143103330054 L4.664479485290009 9.815198441330022 L4.669362298290004 9.82992825933 L4.6700947202900025 9.838717321330005 L4.667409173290004 9.847018103330054 L4.659352532290008 9.856458207330018 L4.657480787289991 9.863294144330023 L4.649017246289965 9.87525703533002 L4.629648756289988 9.869967321330005 L4.598317376290005 9.852389196330005 L4.58171581329001 9.856458207330018 L4.567637037289991 9.862561722330025 L4.55632518829001 9.861992061330039 L4.547780266289955 9.846367061330039 L4.548919589289973 9.853854040330003 L4.5487568292900065 9.859550655330036 L4.547780266289955 9.86671211333002 L4.563242506289988 9.883476436330039 L4.635833652289968 9.92139961333002 L4.635833652289968 9.92758450933 L4.627614251290005 9.935722530330036 L4.620045891289955 9.947766801330015 L4.6134540952900025 9.961926957330018 L4.602793287289991 9.995455603330054 L4.598235996289965 10.005872269330023 L4.57780956329001 10.02719388433 L4.5724384702900025 10.041842321330005 L4.595957350289986 10.057385941330022 L4.591237298290004 10.068128129330017 L4.57577505828997 10.078788936330039 L4.5626728452900025 10.083264847330025 L4.549407871289965 10.081067582330018 L4.53280630828997 10.070976436330039 L4.536387037289991 10.085706254330017 L4.541758131289988 10.100436071330005 L4.5487568292900065 10.113456905330036 L4.557057610290009 10.123385290330003 L4.570078443289994 10.132011592330041 L4.59140005828997 10.135755082330018 L4.6017353452900025 10.14047513433 L4.604746412289991 10.147311071330005 L4.608815423290004 10.161878129330017 L4.610036126290005 10.178561071330005 L4.60515331329001 10.192070186330039 L4.565602532290008 10.223808467330041 L4.560801100289986 10.236015498330044 L4.5958759702900025 10.218762894330023 L4.61679068328997 10.214042842330041 L4.63241568328997 10.219251176330015 L4.6349384702900025 10.245130082330018 L4.64218130828997 10.255058467330041 L4.657480787289991 10.243502478330054 L4.66561880828997 10.264417191330022 L4.678965162289991 10.273775915330003 L4.696217766289955 10.28077461333002 L4.714609693289994 10.294690629330017 L4.725026360290009 10.306979040330003 L4.7325947202900025 10.31983711333002 L4.737233391289955 10.335624873330044 L4.738942376290005 10.356458207330018 L4.7443134702900025 10.365735551330015 L4.772877923290004 10.346041540330003 L4.786061516289955 10.35336575933 L4.7850849542900065 10.369153519330023 L4.771901360290009 10.378675004330017 L4.760508131289988 10.389335811330039 L4.764902662289991 10.407971879330017 L4.770599277289968 10.399426957330018 L4.778574537289991 10.393730342330041 L4.78866568328997 10.389986853330054 L4.80038443328997 10.387464066330022 L4.848073235290009 10.39088203533002 L4.85320018829001 10.399182816330022 L4.885833652289968 10.425061722330025 L4.889821282290008 10.434827347330025 L4.8905537042900065 10.448987504330017 L4.889088860290009 10.475598832330018 L4.89999380828997 10.469495316330022 L4.908620110290009 10.470064978330054 L4.914479485290009 10.47681953533002 L4.916432610290009 10.489270707330018 L4.913177402289968 10.496269405330036 L4.899098626290005 10.509778519330023 L4.895924798290004 10.520357946330005 L4.902109693289994 10.537773311330039 L4.932708652289968 10.564628780330036 L4.944427402289968 10.578788936330039 L4.937591464289973 10.590670446330005 L4.932301751290005 10.604016801330015 L4.9296162042900065 10.618176957330018 L4.930104485290009 10.633313676330015 L4.958099277289968 10.611829301330015 L4.97225943328997 10.608655472330025 L4.9921162042900065 10.619641801330015 L4.998952141289955 10.625338415330003 L5.000661126290005 10.627779821330005 L5.00163768829001 10.631360551330015 L5.0057880792900065 10.640800655330036 L5.004974277289968 10.647555212330001 L5.004974277289968 10.647717972330025 L5.000416985290009 10.65414700933 L5.000254225289986 10.659029821330005 L5.012624016289955 10.661308467330041 L5.0057880792900065 10.683362504330017 L5.0001728452900025 10.69361641033002 L4.9921162042900065 10.702812373330044 L4.981211256289988 10.696139196330005 L4.970143548290004 10.695081254330017 L4.961517246289965 10.700452347330025 L4.957936516289955 10.71274075933 L4.961028964289973 10.719983597330025 L4.967864902289968 10.721692582330018 L4.9747822202900025 10.721529821330005 L4.9784443292900065 10.722669144330023 L4.979420891289955 10.72877266033002 L4.97820018829001 10.736829301330015 L4.978281568289994 10.764905472330025 L4.971282871289965 10.779960811330039 L4.958180657290008 10.788749873330044 L4.940602532290008 10.791516801330015 L4.933847975289986 10.787610551330015 L4.9257099542900065 10.78110013433 L4.917409173290004 10.779798051330015 L4.910247714289973 10.791516801330015 L4.908945631289988 10.806002478330054 L4.914805006289988 10.812838415330003 L4.924245110290009 10.81666328533002 L4.93913768829001 10.826184769330023 L4.9432880792900065 10.826835811330039 L4.94686880828997 10.827812373330044 L4.950449537289991 10.832532426330015 L4.9511005792900065 10.83774075933 L4.9491474542900065 10.84360013433 L4.946461907290008 10.84750638433 L4.944427402289968 10.846855342330041 L4.946055006289988 10.858248571330005 L4.945729485290009 10.867200394330023 L4.947926751290005 10.874280472330025 L4.957936516289955 10.881035030330036 L4.951914381289988 10.89283516033002 L4.95866893829001 10.898206254330017 L4.970143548290004 10.901705603330054 L4.9784443292900065 10.908216019330023 L4.981048496289965 10.922213415330003 L4.974049798290004 10.927503129330017 L4.962168287289991 10.92994453533002 L4.950449537289991 10.935559769330023 L4.940032871289965 10.947766801330015 L4.943939121289965 10.951673051330015 L4.95476268829001 10.954358597330025 L4.9647724542900065 10.962903519330023 L4.967376621289965 10.974296748330044 L4.9647724542900065 11.016858597330025 L4.989674798290004 10.99203763433 L5.0194599542900065 10.873548051330015 L5.020924798290004 10.890963415330003 L5.0138447202900025 10.955579301330015 L5.004323235290009 10.984550655330036 L5.012624016289955 11.07211575933 L5.044118157290008 11.148775915330003 L5.104746412289991 11.24635078533002 L5.1193134702900025 11.26352200933 L5.13249706329001 11.270764847330025 L5.163502923290004 11.339042842330041 L5.1659443292900065 11.381686071330005 L5.161061516289955 11.468518754330017 L5.170338860290009 11.51156888433 L5.200286777289968 11.573092321330005 L5.204355787289991 11.589531123330044 L5.209075839289973 11.653007686330039 L5.219411126290005 11.700452347330025 L5.228281568289994 11.784029821330005 L5.198415032290008 12.04086575933 L5.198170891289955 12.08350898833002 L5.204030266289955 12.107923051330015 L5.218190423290004 12.119641801330015 L5.236094068289994 12.126152217330041 L5.252858391289955 12.134778519330023 L5.272145501290005 12.167656123330044 L5.286549798290004 12.182630082330018 L5.2931415952900025 12.172050655330036 L5.290293287289991 12.128268103330054 L5.297617506289988 12.113456905330036 L5.3204853452900025 12.100598832330018 L5.297129225289986 12.06430325933 L5.283620110290009 12.01547513433 L5.2833759702900025 11.966484248330044 L5.300547193289994 11.929374873330044 L5.29647818328997 11.920260290330003 L5.2970478452900025 11.912854691330022 L5.3009540952900025 11.90650703533002 L5.307383131289988 11.901380082330018 L5.319101881289988 11.930921097330025 L5.328379225289986 11.937675655330036 L5.341562818289994 11.92172513433 L5.3165790952900025 11.879651566330022 L5.307383131289988 11.874036332330018 L5.3124287042900065 11.862073441330022 L5.3341572202900025 11.833183467330041 L5.335052402289968 11.827405472330025 L5.3339130792900065 11.820488155330036 L5.3339130792900065 11.814466019330023 L5.337982089289973 11.81202461333002 L5.342213860290009 11.810722530330036 L5.348073235290009 11.807874222330025 L5.35311880828997 11.804700394330023 L5.355234693289994 11.802421748330044 L5.359629225289986 11.790702998330044 L5.369883131289988 11.786389847330025 L5.381439121289965 11.787447790330003 L5.389333001290005 11.791516801330015 L5.393320631289988 11.800956905330036 L5.392995110290009 11.812675655330036 L5.389333001290005 11.836438676330015 L5.40984081329001 12.005058467330041 L5.41765331329001 11.987968623330044 L5.42155956329001 11.970716019330023 L5.42538443328997 11.914889196330005 L5.434254876290005 11.890800655330036 L5.43718456329001 11.874036332330018 L5.443939121289965 11.874036332330018 L5.430348626290005 11.99757148833002 L5.430348626290005 12.017753780330036 L5.43718456329001 12.08350898833002 L5.434743157290008 12.104830603330054 L5.385182610290009 12.259778519330023 L5.381927402289968 12.384941280330036 L5.413258782290008 12.602551957330018 L5.430348626290005 12.641858597330025 L5.440114251290005 12.629407426330015 L5.44296255828997 12.623548051330015 L5.443939121289965 12.614514847330025 L5.461354485290009 12.621757686330039 L5.477630527289968 12.622083207330018 L5.485768548290004 12.61671211333002 L5.47820018829001 12.607109248330044 L5.47820018829001 12.600842972330025 L5.498626621289965 12.60963203533002 L5.493418287289991 12.63852200933 L5.457122714289973 12.707369665330003 L5.434987298290004 12.737073441330022 L5.39616893829001 12.826184769330023 L5.378021152289968 12.855807165330003 L5.3710224542900065 12.871757686330039 L5.368336907290008 12.891939978330054 L5.370534173290004 12.912936071330005 L5.380299798290004 12.949719926330015 L5.381927402289968 12.97022773833002 L5.37468456329001 13.012219926330015 L5.3165790952900025 13.175550004330017 L5.300547193289994 13.305921097330025 L5.300547193289994 13.391939978330054 L5.298268548290004 13.412122269330023 L5.291758131289988 13.434094926330015 L5.28288768829001 13.44288398833002 L5.272633782290008 13.422620316330022 L5.2736103452900025 13.403577347330025 L5.278004876290005 13.385755082330018 L5.274098626290005 13.37257148833002 L5.249440423290004 13.36744453533002 L5.232838860290009 13.371106644330023 L5.236094068289994 13.37916328533002 L5.246999016289955 13.386487504330017 L5.252858391289955 13.38852200933 L5.258880527289968 13.41163398833002 L5.2596943292900065 13.422620316330022 L5.25749706329001 13.441581905330036 L5.2482197202900025 13.480807165330003 L5.2460224542900065 13.50147773833002 L5.24773143829001 13.534436722330025 L5.2460224542900065 13.54672513433 L5.242604485290009 13.55689766033002 L5.234954746289965 13.570813676330015 L5.2323505792900065 13.580904821330005 L5.233001621289965 13.586926957330018 L5.237477532290008 13.606214066330022 L5.238535475289986 13.618176957330018 L5.236419589289973 13.629570186330039 L5.227142246289965 13.648613155330036 L5.224863600289986 13.659436722330025 L5.233652662289991 13.658541540330003 L5.280202141289955 13.607597530330036 L5.264088860290009 13.573092321330005 L5.262461256289988 13.554700394330023 L5.272633782290008 13.53931953533002 L5.2872822202900025 13.536796748330044 L5.301686516289955 13.54477200933 L5.327890943289994 13.56666328533002 L5.346852532290008 13.574882686330039 L5.358571282290008 13.575045446330005 L5.365000318289994 13.566093623330044 L5.372487298290004 13.49594388433 L5.368336907290008 13.484713415330003 L5.368336907290008 13.477307816330022 L5.409271152289968 13.486666540330003 L5.4198505792900065 13.49789700933 L5.424489251290005 13.542249222330025 L5.427500318289994 13.549980342330041 L5.4337665952900025 13.55299141033002 L5.4357197202900025 13.55811836333002 L5.378183912289991 13.731295446330005 L5.375742506289988 13.751640498330044 L5.377858391289955 13.764661332330018 L5.387298496289965 13.78500638433 L5.389333001290005 13.796236853330054 L5.385996412289991 13.805432816330022 L5.3788349542900065 13.812268754330017 L5.371510735290009 13.81788398833002 L5.368336907290008 13.823010941330022 L5.363047193289994 13.842786332330018 L5.35124706329001 13.861503780330036 L5.19686880828997 14.070650915330003 L5.08366893829001 14.183932165330003 L5.080820631289988 14.193860551330015 L5.080495110290009 14.20688138433 L5.0782978452900025 14.216809769330023 L5.073170891289955 14.225598832330018 L4.998952141289955 14.29281888433 L4.70476268829001 14.436292191330022 L4.541432610290009 14.50766263433 L4.3751728452900025 14.546155472330025 L4.37265005828997 14.54713203533002 L4.24187206329001 14.597994665330003 L4.215749016289955 14.60499336333002 L4.104665032290008 14.647636592330041 L4.0490009702900025 14.65577461333002 L3.8263447202900025 14.731132686330039 L3.621673496289965 14.799980342330041 L3.477711907290008 14.869479040330003 L3.3571878182899937 14.90805325933 L3.210133782290008 14.98194648833002 L3.1696878182899937 14.99171211333002 L3.1696878182899937 14.984876176330015 L3.185963860290009 14.978202998330044 L3.202565423290004 14.968030472330025 L3.2165628182899937 14.956067582330018 L3.225026360290009 14.943372269330023 L3.2116800062899884 14.947278519330023 L3.171071282290008 14.965670446330005 L3.1622822202900025 14.974947790330003 L3.1500751882900104 14.983248571330005 L3.125416985290009 14.985689978330054 L3.1071064382900104 14.992200394330023 L3.113942376290005 15.012952347330025 L3.119801751290005 15.009452998330044 L3.1344501882900104 15.004732946330005 L3.119801751290005 15.02686836333002 L3.096852532290008 15.040214717330041 L3.045583001290005 15.060722530330036 L3.0245055272899677 15.07406888433 L2.7652281832899703 15.238782426330015 L2.737233391289955 15.267591019330023 L2.684824537289991 15.334973832330018 L2.6620380792900065 15.376640498330044 L2.643808912289991 15.440768103329997 L2.629811516289955 15.462252478329997 L2.637135735290009 15.511894405330036 L2.6324156832899703 15.520764847330025 L2.633229485290009 15.514986853329997 L2.631276360290009 15.507988155330036 L2.6272073502899858 15.498873571330005 L2.6210224542900065 15.498873571330005 L2.6140237562899884 15.507092972330025 L2.604746412289991 15.512708207330018 L2.5967711522899677 15.51905586333002 L2.593190423290004 15.52955391033002 L2.592213860290009 15.543795446330005 L2.5895283132900104 15.557304561330039 L2.585377923290004 15.569592972330025 L2.579518548290004 15.580823441330022 L2.532480787289991 15.621839066330022 L2.524831048290004 15.632988155330036 L2.5194599542900065 15.63892891033002 L2.493092766289955 15.658948441330022 L2.4839781832899703 15.66391263433 L2.472096673290004 15.664726436330039 L2.463551751290005 15.66195950933 L2.4430439382900104 15.65024075933 L2.426198235290009 15.645276566330022 L2.409108391289955 15.644869665330003 L2.392669589289973 15.649671097330025 L2.3776956312899884 15.660331905330036 L2.3693134702900025 15.679456254330017 L2.3733011002899858 15.698092321330005 L2.3838805272899677 15.708997269330023 L2.3944599542900065 15.704358597330025 L2.393483391289955 15.69947578533002 L2.3944599542900065 15.667005082330018 L2.401295891289955 15.663424353329997 L2.416107089289973 15.665702998330044 L2.4313251882900104 15.67017891033002 L2.4396259702900025 15.673841019330023 L2.444590162289991 15.68149075933 L2.4519143812899884 15.698092321330005 L2.4566344332899703 15.704358597330025 L2.4664000582899703 15.709811071330005 L2.4878844332899703 15.717298051330015 L2.4982197202900025 15.725354691330022 L2.505299798290004 15.736341019330023 L2.514251621289965 15.759127478329997 L2.5214130792900065 15.770195186330039 L2.5300393812899884 15.777519405330036 L2.537770501290005 15.782483597330025 L2.5432229752899858 15.788261592330041 L2.5490823502899858 15.818860551330015 L2.5671487562899884 15.86158516033002 L2.5733336522899677 15.88306953533002 L2.5905862562899884 15.868339717330041 L2.6159768812899884 15.873222530330036 L2.6405537042900065 15.886406123330044 L2.6553649022899677 15.89674141033002 L2.676930657290008 15.920585811330039 L2.689870110290009 15.943372269330023 L2.7041930272899677 15.963391801330015 L2.723561516289955 15.978691280330036 L2.734954746289965 15.983574092330041 L2.745290032290008 15.979505082330018 L2.757008782290008 15.973645707330018 L2.771901360290009 15.972425004330017 L2.762624016289955 15.940686722330025 L2.7613219332899703 15.91431953533002 L2.7666930272899677 15.887708207330018 L2.7780862562899884 15.85572578533002 L2.7872822202900025 15.809583207330018 L2.795583001290005 15.797538936330039 L2.807790032290008 15.78931953533002 L2.846933912289991 15.773775915330003 L2.8475849542900065 15.800550004330017 L2.8219501882900104 15.960950394330023 L2.8107197202900025 16.239107946330005 L2.7971292252899858 16.314791540330003 L2.788014641289955 16.33741523833002 L2.785573235290009 16.34913398833002 L2.7917581312899884 16.39014961333002 L2.785573235290009 16.469251176330015 L2.7833759702900025 16.479260941330022 L2.771901360290009 16.506848832330018 L2.7736917252899858 16.516939978329997 L2.782399407290008 16.53150703533002 L2.785573235290009 16.541028519330023 L2.6309418952900288 16.545150840330006 L2.4905887042899977 16.54887154333002 L2.3613976242899994 16.552282188330036 L2.2447122402900064 16.555176067330034 L2.1883332522900005 16.546907838330082 L2.1155211592900187 16.53626249433 L2.086582357290048 16.535228965330017 L2.035681071289993 16.54060331432998 L2.0063805342900096 16.53491890633003 Z M4.586636475290028 1.6953079043300043 L4.573407308290008 1.704299603330039 L4.554907145290009 1.7477078063300375 L4.548395915290008 1.771168906330015 L4.548705974290023 1.792149538330019 L4.561521728289996 1.8127167583300086 L4.581468832290035 1.819434694330024 L4.604103109290044 1.8157139913300249 L4.624980388290034 1.803931764330013 L4.640690023289984 1.7853282483299715 L4.651748779289996 1.7605235613300287 L4.654849366290058 1.735202109330043 L4.646684489290045 1.715048301330068 L4.630768148290009 1.704402955330064 L4.6081338712900575 1.6965481383300407 L4.586636475290028 1.6953079043300043 Z M4.4541381022899955 1.673500449329989 L4.4342943522900455 1.689520143330025 L4.43656811629004 1.7062633073300724 L4.4632331552900055 1.7359255793300399 L4.476048910289968 1.7538056253299992 L4.4885546062899735 1.7668280863300332 L4.503644124290055 1.7674482033300016 L4.524211344289974 1.7473977473300515 L4.533719808290051 1.712774537330045 L4.519973877289978 1.6821820903300413 L4.490931722290021 1.6654389263300793 L4.4550682782900495 1.6728803323300063 L4.4541381022899955 1.673500449329989 Z M2.799245110290009 15.752698441330022 L2.7878518812899884 15.723320186330039 L2.8108011002899858 15.696301957330018 L2.846852532290008 15.675468623330044 L2.875091464289973 15.66391263433 L2.874440423290004 15.675061722330025 L2.867604485290009 15.704358597330025 L2.8570250582899703 15.732923051330015 L2.8537698502899858 15.739026566330022 L2.844411126290005 15.74789700933 L2.841888339289973 15.748873571330005 L2.8386331312899884 15.744804561330039 L2.8272399022899677 15.739026566330022 L2.8233336522899677 15.734387894330023 L2.822845371289965 15.727551957330018 L2.819264641289955 15.723157426330015 L2.806081048290004 15.725354691330022 L2.8063251882900104 15.729505082330018 L2.799245110290009 15.752698441330022 Z M5.362070631289988 11.24399075933 L5.373463860290009 11.22445950933 L5.38249706329001 11.225110551330015 L5.387949537289991 11.240410030330036 L5.389333001290005 11.264498571330005 L5.383229485290009 11.336764196330005 L5.3478290952900025 11.476249873330044 L5.327402662289991 11.477796097330025 L5.319590162289991 11.463717321330005 L5.319101881289988 11.443860551330015 L5.3300068292900065 11.367851436330039 L5.362070631289988 11.24399075933 Z M9.802033356289975 5.970731699330013 L9.83607303028996 5.974176598330001 L9.838868394289968 5.997096882330009 L9.834296853290006 6.017383699330008 L9.807643752289984 6.043881632330038 L9.799419704289996 6.072978494330055 L9.801292315290006 6.090602307329998 L9.79579791729001 6.1047101343300305 L9.770971780289962 6.111794274330048 L9.748887704289963 6.104773899330024 L9.724951065289964 6.085421385330033 L9.71019789328998 6.051084758330017 L9.713833463290008 6.012316975330048 L9.724843228289991 5.994677256330004 L9.753320030289991 5.981407770330048 L9.802033356289975 5.970731699330013 Z" fill="black" stroke="black" stroke-width="0.5" vector-effect="non-scaling-stroke"/></svg>