<svg xmlns="http://www.w3.org/2000/svg" viewBox="0 0 0.9861328124999886 6.573637695780015"><path d="M0.3132975267500058 6.438470866390052 L0.36000976575004984 6.419468587390046 L0.3875162767500058 6.417067871390035 L0.39809570375004455 6.438470866390052 L0.3949218757499864 6.450270996390035 L0.3896321617499723 6.458815918390034 L0.3811686197500137 6.464024251390018 L0.3679850267500058 6.465733236390012 L0.35740559874997757 6.469802246390035 L0.3504069017500058 6.479486491390052 L0.34438476575004984 6.490757650390041 L0.33657226575004984 6.499912923390017 L0.3175292967500525 6.509190267390014 L0.3070312507499864 6.50593505939003 L0.2971842447500137 6.498081868390049 L0.2791992187499943 6.493687337390046 L0.24982096375001106 6.497145996390035 L0.23378906274999167 6.496617025390041 L0.2268717447500137 6.490269368390049 L0.23826497374997757 6.472935384390045 L0.2647949217500525 6.4560896813900435 L0.2939290367499723 6.44343505939003 L0.3132975267500058 6.438470866390052 Z M0.7548665367499723 5.547764486390012 L0.7601562507499864 5.560581868390049 L0.7587727867499723 5.5732771813900435 L0.7555175787500445 5.586908366390052 L0.7548665367499723 5.602370605390039 L0.7589355467500525 5.611118978390042 L0.7726074217500525 5.626866048390017 L0.7753743487499776 5.63711995439002 L0.7689453127499917 5.662876790390047 L0.7533203127499917 5.690098470390016 L0.7333821617499723 5.704584147389998 L0.7140136717500525 5.691726074390036 L0.7093750007499864 5.6787459313900435 L0.7054687507499864 5.651198730390039 L0.6996907557499696 5.63711995439002 L0.6874023437499943 5.621250814390013 L0.6847167967500525 5.614007975389999 L0.6860188807499696 5.602370605390039 L0.6976562507499864 5.579421387390031 L0.7186523437499943 5.553054199390036 L0.7406250007499864 5.537754720390016 L0.7548665367499723 5.547764486390012 Z M0.895410156749989 5.3525740563900435 L0.9086751307499696 5.347691243390049 L0.9241373697500137 5.34968505939003 L0.9312988287500445 5.357456868390049 L0.9194173177499749 5.369623210390049 L0.9080240887500111 5.37662190839001 L0.9002929687499943 5.387608236390012 L0.8834472657500498 5.430332845390016 L0.8840983077500084 5.438999837390046 L0.8920735677499749 5.45157307939002 L0.8873535157500498 5.4606876633900505 L0.8811686197500137 5.46524495439002 L0.8736816407500498 5.46483805339 L0.8647298177499749 5.459019368390049 L0.8525227867499723 5.4700056973900395 L0.8463378907500498 5.483189290390047 L0.8469889327500084 5.497145996390035 L0.8544759117499723 5.510533040390047 L0.8601725267500058 5.52383870439002 L0.8460937507499864 5.52343180339 L0.8285970057499696 5.517491048390017 L0.8238769537500445 5.5142358403900325 L0.801660156749989 5.519362793390034 L0.7931152347500472 5.517368978390042 L0.7896972657500498 5.503330892390014 L0.7914062507499864 5.488560384390045 L0.8033691407500498 5.45157307939002 L0.8045084637500111 5.437290853390042 L0.8040201827500084 5.42618245439002 L0.8058105467500525 5.416660970390016 L0.813378906749989 5.4075056973900395 L0.8186686197500137 5.404331868390049 L0.8375488287500445 5.396966960390049 L0.8409667967500525 5.392165527390038 L0.8416178387500111 5.3806095383900505 L0.8436523437499943 5.376459147389998 L0.8559407557499696 5.370518392390014 L0.8819824217500525 5.362461751390018 L0.895410156749989 5.3525740563900435 Z M0.8170410157500498 4.25235432939002 L0.8251790367499723 4.26724690839001 L0.8187500007499864 4.274896647389998 L0.8045898437499943 4.278070475389999 L0.7766764327500084 4.280674642390014 L0.7635742187499943 4.279576009390045 L0.7513671877499917 4.275222168390034 L0.7413574217500525 4.2666365563900435 L0.7357421877499917 4.255772298390017 L0.7369628907500498 4.24616943439003 L0.7452636717500525 4.23990315839001 L0.7617024737499776 4.23868245439002 L0.7747233077500084 4.242425944390053 L0.8054850267500058 4.246128743390049 L0.8170410157500498 4.25235432939002 Z M0.878675914750005 2.4446444063900152 L0.9192545577500084 2.4459578453900157 L0.932519531749989 2.452142741390052 L0.9427734377499917 2.461908366390052 L0.9466796877499917 2.474766439390013 L0.9431803387500111 2.491530762390031 L0.9339843757499864 2.500523275390041 L0.9218587237499776 2.506830241390052 L0.9095703127499917 2.5156599933900488 L0.8657063807499696 2.55866943439003 L0.8512207037500445 2.566563314390013 L0.827050781749989 2.5656681313900016 L0.8206251837500247 2.5423882623900376 L0.8470703127499917 2.5288842773900377 L0.8583240097500209 2.506127778390013 L0.8642545187500161 2.458102617390015 L0.878675914750005 2.4446444063900152 Z M0.7691894537500445 1.895583496390035 L0.7430749627500006 1.8726355113900048 L0.7401127827500602 1.832939793390043 L0.7579295377499591 1.810951059390053 L0.7958821617499723 1.8124943033900003 L0.809472656749989 1.8282006843900298 L0.8155761717500525 1.8401635743900364 L0.8172037767500058 1.8530216473900545 L0.8170410157500498 1.8714135743900364 L0.8126464847500472 1.882725423390017 L0.8011718757499864 1.892124837390046 L0.7857910157500498 1.8972517903900474 L0.7691894537500445 1.895583496390035 Z M0.8967936197500137 3.9443709313900435 L0.8766113287500445 3.9250838223900395 L0.893457031749989 3.9197534183900338 L0.9120930987499776 3.9267928063900435 L0.8967936197500137 3.9443709313900435 Z M0.9625488287500445 3.33406005939003 L0.9435058597500472 3.314691569390053 L0.9588053387500111 3.310459798390017 L0.9757324217500525 3.3181095383900505 L0.9625488287500445 3.33406005939003 Z M0.961816406749989 3.052972819390053 L0.9397623697500137 3.0423933923900144 L0.934472656749989 3.0266463223900395 L0.9417968757499864 3.0140730793900197 L0.9581542967500525 3.0129744473900395 L0.9705240887500111 3.0213159183900338 L0.9764648437499943 3.033116048390017 L0.9745117187499943 3.044834798390017 L0.961816406749989 3.052972819390053 Z M0.5131673177499749 0.9670760093900448 L0.4993326827500084 0.9593041993900364 L0.48964843774999167 0.9470564783900421 L0.48964843774999167 0.9357039393900131 L0.504785156749989 0.9309431973900395 L0.5174804687499943 0.9353784183900338 L0.5229329427499749 0.9454695643900131 L0.5213053387500111 0.9574324543900197 L0.5131673177499749 0.9670760093900448 Z M0.35830078174998903 0.6101424153900474 L0.3475585937499943 0.6066023763900183 L0.3386881517500058 0.5996443683900488 L0.3342936197500137 0.5900821943900532 L0.33681640674998903 0.5788924153900474 L0.34633789075004984 0.5694116213900351 L0.35097656274999167 0.5742944343900298 L0.35292968774999167 0.5840600593900298 L0.3534179687499943 0.5894311523900377 L0.36000976575004984 0.5884139003900408 L0.3690429687499943 0.5852400723900395 L0.37693684874997757 0.5836531583900104 L0.3803548177499749 0.5874780273900377 L0.37832031274999167 0.5956974283900003 L0.3733561197500137 0.602289225389999 L0.3661946617499723 0.6072127283900421 L0.35830078174998903 0.6101424153900474 Z M0.02325846375001106 0.10269612639001835 L0.012679036749972283 0.09325602239005448 L0.009667968749994316 0.07982828839005052 L0.014306640750049837 0.06835367839000028 L0.027246093749994316 0.06444742839000028 L0.039371744750013704 0.07063232439003642 L0.04002278674997228 0.08235107439003642 L0.03334960975004719 0.09451741539004743 L0.02325846375001106 0.10269612639001835 Z" fill="black" stroke="black" stroke-width="0.5" vector-effect="non-scaling-stroke"/></svg>