<svg xmlns="http://www.w3.org/2000/svg" viewBox="0 0 13.813002619620045 12.24847717205995"><path d="M4.904871464310018 11.741956475529989 L4.886316776310023 11.754163506529991 L4.876307011310017 11.769544366529985 L4.863611698310022 11.779554131529991 L4.837244511310017 11.77605478253001 L4.825688521309983 11.769544366529985 L4.7646533653099805 11.725110772529987 L4.733728886310017 11.693372491529985 L4.718836308310015 11.673515720530006 L4.611170292310019 11.577812595530006 L4.593592167310019 11.571139418529967 L4.585779667310019 11.564791761529975 L4.525476933310015 11.492363376530008 L4.461430709309978 11.426119886529975 L4.328943729310025 11.340345147529987 L4.302088261310017 11.316663506529991 L4.2509814903099805 11.258313897529987 L4.179285526310023 11.207369886529975 L4.165613651310023 11.193616631529991 L4.134607792310019 11.14942717852999 L4.102055709309978 11.118909600529989 L4.0966846153099805 11.111829522529987 L4.095789433310015 11.10027353253001 L4.102381229310025 11.079847100529989 L4.103601933310015 11.070325616529985 L4.0908252403099805 11.038912855529972 L4.063807011310017 11.005628350529989 L3.964034875310004 10.916842543529967 L3.9513395633099986 10.899183037529994 L3.946456750310004 10.875175876530008 L3.9468636513100233 10.82325530352999 L3.9446663863100166 10.815198662529994 L3.9384814903099805 10.802747491529985 L3.8428597453100206 10.665540459529993 L3.826746464310018 10.633558037529994 L3.8146208133099986 10.617688897529987 L3.7981820113100166 10.611015720530006 L3.789555709309978 10.602063897529987 L3.760258834309978 10.549573662529994 L3.7194059693100012 10.502129001530008 L3.7130583133099986 10.491468194529986 L3.699549198310022 10.412366631529991 L3.6940153443100012 10.402601006529991 L3.6873421673100193 10.395358168529967 L3.6814827923100193 10.38738290753001 L3.6790413863100166 10.374768975529989 L3.685877323310022 10.333834730529972 L3.6719613083100153 10.269218845530006 L3.6790413863100166 10.254651787529994 L3.6590218543100246 10.21778655352999 L3.6531624793100246 10.198499444529986 L3.6510465943100012 10.175957126530008 L3.6520231563100065 10.134453220530006 L3.6463265423100193 10.11459644952997 L3.6305387813100065 10.09701832452997 L3.623540084309978 10.094576918529967 L3.6053109173100193 10.093274834529993 L3.5963590943100012 10.090182386529975 L3.5944059693100012 10.085787855529972 L3.5874886513100233 10.07520842852999 L3.5801644333100153 10.066093845530006 L3.576665084309978 10.066093845530006 L3.573735396309983 10.044121188530013 L3.566736698310022 10.025403741529985 L3.534672896309983 9.965182386529975 L3.5294645633099986 9.94825530352999 L3.5340218543100246 9.921074313530013 L3.5235238083100153 9.90138030352999 L3.5093636513100233 9.881198011529975 L3.5008187293100246 9.86427092852999 L3.498621464310018 9.84115894952997 L3.5013070113100166 9.821139418529967 L3.5096077923100193 9.806979261529975 L3.5244189903099805 9.801608168529967 L3.5347542763100233 9.799329522529987 L3.544926802309986 9.795748793529967 L3.5524137813100065 9.796155694529986 L3.5555062293100246 9.80567717852999 L3.5555062293100246 9.843925876530008 L3.5623421673100193 9.843925876530008 L3.5662484173100193 9.824069105529972 L3.585942427309986 9.771823011529975 L3.586512089310018 9.761243584529993 L3.580083052309986 9.748059991529985 L3.559738000310004 9.687024834529993 L3.5465544063100065 9.626640720530006 L3.523442427309986 9.589612725529989 L3.4903206833100153 9.558769626530008 L3.4524788863100166 9.535332126530008 L3.393071334309978 9.513196709529993 L3.3841195113100166 9.504244886529975 L3.3766325313100065 9.426038506529991 L3.3804574013100233 9.350354912529994 L3.3603564903099805 9.32292978253001 L3.356938521309983 9.316175225529989 L3.3609261513100233 9.304375095530006 L3.3668669063100065 9.30404957452997 L3.3746794063100065 9.306653741529985 L3.3841195113100166 9.302584730529972 L3.397628625310004 9.270683688530013 L3.396814823310022 9.227796319529986 L3.3860726363100166 9.184827569529986 L3.3704476363100166 9.15170582452997 L3.3255257613100166 9.084323011529975 L3.3199105263100233 9.051526787529994 L3.336430709309978 9.014498793529967 L3.3289437293100246 9.014498793529967 L3.277674198310022 8.959323011529975 L3.2605843543100246 8.93263030352999 L3.258142948310022 8.920748793529967 L3.258142948310022 8.912366631529991 L3.2605843543100246 8.898450616529985 L3.2605843543100246 8.81934905352999 L3.2647347453100206 8.798841241529985 L3.2947640423100193 8.74708342852999 L3.2975309693100012 8.730481866529985 L3.297368209309978 8.70769540753001 L3.2931364383099986 8.687513116529985 L3.2710824013100233 8.667737725529989 L3.264816125310004 8.642347100529989 L3.2605843543100246 8.596855563530013 L3.235844771309983 8.535983168530024 L3.2303109173100193 8.489108168530024 L3.220219771309983 8.451917412529994 L3.219080448310022 8.431816501530008 L3.2500863083100153 8.357190850529989 L3.2471566203100206 8.345472100529989 L3.2674202923100193 8.27410165753001 L3.2710824013100233 8.233248793530024 L3.2610726363100166 8.195081475529989 L3.247238000310004 8.169121188530013 L3.226567427309986 8.130140069529986 L3.2139534953100206 8.090996188530013 L3.2107796673100193 8.010918063530013 L3.1985726363100166 7.972425225529989 L3.1412809693100012 7.872571709529993 L3.1172738083100153 7.842054131529991 L3.0679574013100233 7.79786467852999 L3.053878625310004 7.767916761529975 L3.0196989383099986 7.73145842852999 L3.013676802309986 7.7062305635300135 L3.0174202923100193 7.695569756529991 L3.031580448310022 7.68067717852999 L3.0347542763100233 7.67481780352999 L3.0347542763100233 7.63380217852999 L3.0301156043100246 7.614759209529993 L3.0078988083100153 7.577405694529986 L2.9859261513100233 7.526705824529969 L2.9317269333100153 7.430514418530024 L2.9109749793100246 7.361341241529985 L2.8914437293100246 7.328138116529985 L2.8846077923100193 7.28223967852999 L2.8770394333100153 7.267347100529989 L2.882003625310004 7.2472461885300135 L2.8819222453100206 7.213717543530024 L2.877446334309978 7.179456475529989 L2.869715214310018 7.157483819529986 L2.8770394333100153 7.14356780352999 L2.8836312293100246 7.11622405352999 L2.8907113083100153 7.102877699529969 L2.896977584309978 7.1001107725299875 L2.9060921673100193 7.09864592852999 L2.914392948310022 7.094983819529986 L2.9180550583100153 7.085462334529993 L2.9317269333100153 7.061292412529994 L2.923833052309986 7.049085381529991 L2.9248909953100206 6.992933037529994 L2.9073128703100206 6.945081475529989 L2.9043831833100153 6.927503350529989 L2.9180550583100153 6.783460381529991 L2.9130908653099805 6.747571709529993 L2.901860396309983 6.720065199529969 L2.864751021309983 6.6294076475299875 L2.852137089310018 6.584241631529991 L2.8528695113100166 6.574557386529975 L2.8609261513100233 6.565686944529986 L2.885258834309978 6.5250782205300055 L2.8975472453100206 6.513847751530008 L2.8973031043100246 6.5348438455300055 L2.9021859173100193 6.54395842852999 L2.908208052309986 6.5387500955300055 L2.9112191203100206 6.516858819529986 L2.9097542763100233 6.4782032205300055 L2.8912809693100012 6.3618295225299875 L2.8805387813100065 6.326429131529991 L2.8633675583100153 6.300306084529993 L2.849126021309983 6.272311293530024 L2.838465214310018 6.240003350529989 L2.8316292763100233 6.205254001530008 L2.8279671673100193 6.1398243135300135 L2.8291878703100206 6.130221449529969 L2.8338265423100193 6.120618584529993 L2.846847375310004 6.101575616529985 L2.8496956833100153 6.092054131529991 L2.8496956833100153 6.050794366529985 L2.8528695113100166 6.048841241529985 L2.8587288863100166 6.048841241529985 L2.861658573310022 6.052503350529989 L2.855961959309978 6.061292412529994 L2.860519250310004 6.0675586885300135 L2.8658903443100012 6.07716155352999 L2.869715214310018 6.0812305635300135 L2.863774459309978 6.101412855529972 L2.8621468543100246 6.121839287529994 L2.869471073310022 6.132337334529993 L2.8907113083100153 6.122815850529989 L2.889246464310018 6.134127699529969 L2.8770394333100153 6.164319756529991 L2.892094771309983 6.151217543530024 L2.914637089310018 6.110852959529993 L2.928308964310018 6.102308037529994 L2.939783573310022 6.092461032530011 L2.9471077923100193 6.069186293530024 L2.9521533653099805 6.023206475529989 L2.945317427309986 5.848483168530024 L2.926355839310018 5.717054131529991 L2.902918339310018 5.681409600529989 L2.892094771309983 5.636894626530008 L2.855961959309978 5.567884209529993 L2.836512089310018 5.50880217852999 L2.8042855263100233 5.445488376530008 L2.7981820113100166 5.437513116529985 L2.732996464310018 5.369316501530008 L2.712081750310004 5.3364388975299875 L2.711267948310022 5.312350355529972 L2.7091520633099986 5.303479912529994 L2.555017948310022 5.115410251530008 L2.4798226363100166 5.0499805635300135 L2.4720101363100166 5.0337045225299875 L2.3894906043100246 4.961764418530024 L2.3701221153099805 4.952975355529972 L2.3699593543100246 4.94239592852999 L2.374191125310004 4.931979261529975 L2.3767952923100193 4.9274219705300055 L2.3829801883099986 4.902194105529972 L2.3836312293100246 4.895765069529986 L2.3804574013100233 4.883069756529991 L2.3760628703100206 4.873873793530024 L2.2957406043100246 4.761243584529993 L2.2806038863100166 4.697034600529989 L2.249516646309983 4.6255013975299875 L2.147058964310018 4.499280694529986 L2.0846403443100012 4.40138030352999 L2.0459033653099805 4.3566211885300135 L2.0205127403099805 4.32716155352999 L1.9311572713099832 4.1769336885300135 L1.8897347453100206 4.12403655352999 L1.8769580523099858 4.0870899385300135 L1.8626351363100166 4.073092543530024 L1.8355355263100233 4.052910251530008 L1.8154346153099805 4.018323662529994 L1.805017948310022 3.985120537529994 L1.7945199013100233 3.9026010065299914 L1.7672575313100065 3.81348967852999 L1.6805062293100246 3.654147230529972 L1.656824589310018 3.566175225529989 L1.6513721153099805 3.5236947565299914 L1.6308643023099858 3.44239592852999 L1.5955452923100193 3.3582487935300236 L1.5724333133099986 3.32325530352999 L1.5322255693100129 3.3115985945299684 L1.4886807663099813 3.283254412530013 L1.455145695310021 3.228490513529991 L1.4231820113100166 3.10450530352999 L1.3455452923100193 2.9637175435300236 L1.336267948310022 2.93458342852999 L1.2937874793100246 2.881035251530008 L1.2203011513100233 2.753756605529972 L1.2117562293100246 2.7307260065299914 L1.2008512813100065 2.7159961885300135 L1.1753792763100233 2.665865980529972 L1.1670784953100206 2.655042412529994 L1.1224007613100166 2.579847100529989 L1.1088916463099832 2.5480274385300135 L1.103846073310022 2.5288217095299927 L1.0974984173100193 2.483086032530011 L1.0861051883099986 2.4614388975299875 L1.0540413863100166 2.421643975529989 L1.033533573310022 2.386569105529972 L0.9851937293100246 2.271334730529972 L0.9645231563100065 2.2404916315299914 L0.9342497193100012 2.2065560845299927 L0.8981169063100065 2.1800261365299747 L0.8881885213099832 2.166679782530011 L0.8764697713099832 2.0945769185300236 L0.8678434693100012 2.0735808245299694 L0.7046761513100233 1.8667123345299927 L0.5925312383100145 1.7969648025299847 L0.543543339310018 1.7438282205300055 L0.5374398233100219 1.7385385065299914 L0.5198616983100219 1.7150196265300082 L0.5094450313100065 1.709729912529994 L0.4998421673100193 1.7033822565299914 L0.44968967531002413 1.674375879530018 L0.4337614383099986 1.6219206685300236 L0.43026208931001797 1.6035287415299848 L0.41732263631001665 1.5725228815299914 L0.4160205523099858 1.5608855115299747 L0.41634607331002194 1.5507943665299848 L0.41536951131001665 1.5410287415299848 L0.41732263631001665 1.5309375955300055 L0.39388513631001665 1.498792412529994 L0.3551481563100065 1.401136162529994 L0.34896326131001665 1.394381605529972 L0.26688191830998953 1.312209120529971 L0.25144014830999417 1.2670705695299915 L0.24432466030998334 1.2082460425299786 L0.2262991083100001 1.160567664529978 L0.21471132531001835 1.1251147215299824 L0.2018369023099904 1.0286709965300105 L0.17874148531001133 0.9554502805299734 L0.16335231430997332 0.8529742405299743 L0.1518309153099704 0.8017465405300044 L0.1445361773099858 0.7688933245299694 L0.13542159431000123 0.7153451475299875 L0.13949060431002458 0.6368946265300082 L0.1729378703100206 0.43572275153000817 L0.18392419831002194 0.42172535552997203 L0.1839841663099815 0.42177662452998277 L0.1973185733099836 0.4239405305299613 L0.21468185531000294 0.4328288775299711 L0.2254305533100176 0.4348959345299477 L0.24021001331001735 0.4334489945299538 L0.245274303309996 0.42910817352996844 L0.24744471331007212 0.422493591529971 L0.25333582731007986 0.4144320675299724 L0.2717326363099897 0.40244313553002087 L0.31276372331003977 0.38363291453001125 L0.35989263031004093 0.3495264685300299 L0.4008203643100483 0.3309229525299884 L0.4467090363100379 0.31800384452998287 L0.4930111203099994 0.3120093785300355 L0.5000391143100256 0.3103557325299988 L0.5059302273100155 0.30818532253000797 L0.5130615753100454 0.3087020865299479 L0.5233968623099639 0.31510996452999507 L0.557710012309995 0.32503183952998427 L0.569078828310067 0.3226547235300359 L0.5744531773100316 0.31810719752999717 L0.579310761310067 0.31531667053003787 L0.588509166310045 0.31821055053002567 L0.5949170443099927 0.3237916055299479 L0.5972941603100406 0.330612894530006 L0.5989478053099884 0.3382610065299758 L0.6028752153100623 0.34611582353001324 L0.6084562693100661 0.35159352553000645 L0.6182747913100552 0.35831146253002544 L0.6295402543099993 0.36420257452994065 L0.6400822463099853 0.3666830435300028 L0.6495907093100453 0.37092051152995964 L0.6543449413100557 0.3803256225300089 L0.6571354693100186 0.3897307335299729 L0.6604427603100174 0.39386484752998285 L0.7324797063100714 0.38714691052996386 L0.7972819533099749 0.3894206735299832 L0.811751354310017 0.3837362665300361 L0.8253939323100195 0.37309092153003576 L0.8357292183100338 0.37247080452998205 L0.859500377309983 0.386010029529956 L0.8783105983100068 0.39210784953000655 L0.9370150263100339 0.3968620795299955 L0.972361705310048 0.4046135455300117 L0.9849707553099716 0.40358001652992925 L1.0092586783099744 0.3915910845299777 L1.0540104683100235 0.35417734752999763 L1.078505097309998 0.34611582353001324 L1.1037231963100549 0.342601826530057 L1.1225334183100397 0.33330006853002203 L1.1576733923100146 0.3045679725300232 L1.2021151243100672 0.2841041055299627 L1.2361182163100164 0.27387217152998744 L1.2427327993100032 0.26539723652997793 L1.2508976753100267 0.2508244825299357 L1.2600960813100226 0.24307301753000843 L1.267744192310003 0.23986907853003459 L1.2855208853100333 0.23459808353001677 L1.2942025263100145 0.22881032253003752 L1.2983366403100245 0.2198186235300028 L1.3000936393100044 0.20855316053003037 L1.3049512243100292 0.1988379915299987 L1.3288257353100033 0.19253346752998368 L1.3482560743099992 0.18323170952996293 L1.3794686393100601 0.17641042053000433 L1.4320752473100509 0.14695485353000493 L1.539562226310066 0.12886810252999226 L1.562299856310032 0.12142669652996574 L1.584107310310058 0.12008310953000034 L1.6027108273100321 0.13320892352996339 L1.6159399933100058 0.12638763353001536 L1.6232780473100075 0.1320720415299661 L1.629892629310005 0.14178721052999776 L1.6406413273100195 0.14695485353000493 L1.6630688993100176 0.1503654985299363 L1.6749544793099727 0.15067555653000397 L1.6852897653100438 0.14695485353000493 L1.6852897653100438 0.15439625953001723 L1.7108179233100014 0.14282073952998076 L1.7262174993099944 0.139203389529996 L1.7330387893100276 0.1434408565299492 L1.7393433133099432 0.14395762152999225 L1.7637468433100292 0.13773711352999385 L1.781511282310019 0.13320892352996339 L1.7998047393099892 0.13941009453004938 L1.83504806630995 0.16276784152999824 L1.8529281113100051 0.16803883853002333 L1.8766992703099827 0.17082936552998262 L1.8975765493100294 0.17930430052999213 L1.9124593623100719 0.1930502315300231 L1.925585176310049 0.23253102553005078 L1.9400545773099775 0.24596689752999623 L1.9487362173100262 0.26229665052994733 L1.9391244013100373 0.29092539453002075 L2.0242871613099833 0.3364006545299816 L2.111930390310077 0.4056470745299947 L2.20820358331005 0.45711680052997394 L2.3021513373100486 0.5075529985299738 L2.3146570343100716 0.5180949905300309 L2.360545706310033 0.5772128295299979 L2.375118460310004 0.5881682325299806 L2.398372854310024 0.5926124065299945 L2.4107751983099757 0.5903386425299715 L2.426691540310001 0.5805201205299966 L2.4356832383100464 0.5782463575299914 L2.446948700310001 0.5794865925300172 L2.465242158309989 0.5850676475300389 L2.48694626030999 0.5876514685299412 L2.5031726593099943 0.5926124065299945 L2.5150582393100063 0.5926124065299945 L2.5260136423100032 0.589511819529946 L2.541723277309954 0.5806234735300251 L2.5485445673100156 0.5782463575299914 L2.5927795923100216 0.5852743525299928 L2.6148971063100515 0.5819670605299905 L2.6243022173100012 0.5621233115300015 L2.6252323923100374 0.5570590205300192 L2.6366012073100347 0.5571623735299625 L2.636912108310012 0.5571623735299625 L2.70522751030998 0.5571623735299625 L2.96174931931 0.5572657255299873 L3.2183744823100238 0.5573690795300053 L3.4749996453100476 0.5573690795300053 L3.7315214553100287 0.5574724325299485 L3.97691465031002 0.5575713015299613 L3.988043265310038 0.557575785529977 L4.24456507431003 0.5576791375300019 L4.501190237310054 0.5576791375300019 L4.75760869431002 0.5576791375300019 L5.01413050431003 0.5577824905300162 L5.270652314310039 0.5577824905300162 L5.527277477310063 0.5578858435299594 L5.696772338310039 0.5579541055300155 L5.783902640309973 0.5579891965299879 L6.040424450310068 0.5579891965299879 L6.2969462593099745 0.5580925485300128 L6.418283290310027 0.5581414355299614 L6.553468069309984 0.5581959015299418 L6.810093232310008 0.5582992545299703 L6.86352666331001 0.5582992545299703 L6.871381481309951 0.5589193725299424 L6.872828421309945 0.5650171915299893 L6.876445771310044 0.5743189495300101 L6.882957001310016 0.5782463575299914 L6.889468232309978 0.5833106485299595 L6.9059013373100395 0.6211377965300358 L6.9076583363100195 0.6314730825300359 L6.910552216310007 0.6335401405300018 L6.934426728309999 0.640361428529971 L6.96873987931002 0.7043368525299485 L6.971943818310079 0.7153956095299492 L6.98527633731001 0.7223202505300321 L7.03746953430999 0.7638681025300116 L7.040673473310049 0.7712061555300096 L7.0457377633100275 0.788879496530015 L7.0511121123100775 0.7979745475299893 L7.060620576309985 0.8070696005299567 L7.079120738309994 0.8157512405300196 L7.088732555310001 0.8221591185299673 L7.146093395310002 0.8799333695299651 L7.166040498310023 0.9053581735300611 L7.1797864283100505 0.9167269895299626 L7.218647106310014 0.9256153355299688 L7.307840628309945 0.9683000685299703 L7.438375296310026 0.991347757530022 L7.522917939309989 0.9872136425300084 L7.557127737309996 0.9742945345299887 L7.578625133310025 0.969953714530007 L7.589890596309997 0.970263773529993 L7.619656220309961 0.9761548865299972 L7.664408010310039 0.9730543005299666 L7.680220999310022 0.9829761755299558 L7.839074352309977 1.0284514355300018 L8.010640107309994 1.026281025530011 L8.067587536309984 1.013982034529974 L8.090428519310079 1.0117082715299688 L8.110995739310054 1.0167725625300363 L8.119987438310003 1.0347559605299352 L8.129082490309996 1.04199066052999 L8.149856416310028 1.0510857135300569 L8.173007457310005 1.058113708529973 L8.188820445310027 1.0593539425300094 L8.193781383310066 1.0540829465299737 L8.20546025731002 1.0354794305300175 L8.21176478131005 1.0313453165299933 L8.369791311309994 1.0313453165299933 L8.407308401309988 1.0518091835299543 L8.442345023309995 1.0635914095300478 L8.452060192310027 1.0649349975300169 L8.510351207310064 1.0593539425300094 L8.537739717310016 1.0597673535300203 L8.550762177310046 1.057803649529987 L8.564921520310007 1.0518091835299543 L8.572362926310033 1.0593539425300094 L8.587039033310019 1.0471583045299866 L8.610913544309993 1.0411638385299682 L8.63768193730999 1.0424040725300046 L8.661246389310064 1.0518091835299543 L8.69597295231 1.0239039095299773 L8.706721650310042 1.0306218455299927 L8.720570934309988 1.0297950225299815 L8.753953909309983 1.0239039095299773 L8.765529430310009 1.0279346715299766 L8.804596813310011 1.0593539425300094 L8.83043502931005 1.0531527705300192 L8.855343069310008 1.063488056529934 L8.87787399431002 1.0827116895299582 L8.897304332310027 1.1033822625299763 L8.907329560310044 1.1111337275299746 L8.941746064309994 1.1275668325300359 L8.97068486631005 1.1481340535299296 L8.98329391531007 1.1542318725299907 L9.00851201431004 1.147823994530043 L9.04788945631003 1.1459636435300382 L9.084062959310044 1.149270934530037 L9.099979300309995 1.1576425165300037 L9.107420706309993 1.1660140985299847 L9.123957164310012 1.1728353875300286 L9.14028691731002 1.1755225615299736 L9.14772832430995 1.1713884475300347 L9.155273082310002 1.1625001005299396 L9.17222295231002 1.1669442745300387 L9.202401989310003 1.1816203805300205 L9.224002737309972 1.2004306025299485 L9.249737600310054 1.198363545529972 L9.27939987331004 1.1878215525300106 L9.312266084310066 1.1816203805300205 L9.326115367310022 1.1551620475299416 L9.404254830310007 1.134796841529976 L9.41851282831004 1.1310808305299958 L9.51091029031002 1.1071029655299753 L9.527240042309982 1.1140276075300477 L9.543879853309987 1.1101001985299916 L9.56093307631002 1.1027621455299936 L9.579123180309976 1.0996615595300483 L9.59359258130999 1.1022453805299648 L9.634416962309983 1.0996615595300483 L9.650540010310065 1.1034856155299906 L9.695911917310012 1.1275668325300359 L9.75285934531007 1.1469971715300176 L9.782624970310051 1.1610531605299457 L9.798954723310002 1.1816203805300205 L9.804639130310049 1.183480732530029 L9.82334599931002 1.1783130895300218 L9.895382946310006 1.1650839235300339 L10.146323701309994 1.1188851925299872 L10.397264456309982 1.0727898145299548 L10.648308564310069 1.026591084529997 L10.899249319310057 0.9803923535300498 L11.103474579310044 0.941841734529973 L11.307596487310006 0.9030844105300417 L11.511718395310053 0.8644304395299542 L11.715840302310026 0.8258798215299663 L11.799452770310038 0.8101701855299979 L11.840173798310017 0.8025220735299285 L11.875210419310035 0.7958041375299985 L11.894020641310048 0.7953907265299875 L11.92378626631003 0.7894996125299798 L11.966574352309975 0.7810246785299881 L12.009569144310033 0.7725497435299786 L12.052357229310045 0.7640748085299833 L12.09504196331005 0.7557032265300023 L12.137830048309977 0.7472282915299928 L12.180618135310025 0.7387533565299975 L12.223406220310038 0.7303817745300165 L12.266297659309997 0.7219068395300212 L12.309189098310041 0.7134319045300117 L12.351977184309986 0.7050603225300307 L12.394765269309998 0.6965853875300354 L12.437450003310003 0.6881104525299406 L12.480341441309944 0.6797388705299596 L12.523129528309992 0.6712639355299643 L12.565917613310004 0.6627890005299548 L12.608705700310024 0.6543140665299632 L12.638264618310044 0.6485263055299839 L12.656558075310015 0.6471827185300185 L12.67516159131 0.6498698925300346 L12.728078258310061 0.6516268915299293 L12.739137015310062 0.6577247105299762 L12.747198538310043 0.6541073605299914 L12.789056448310019 0.6427385445300047 L12.806729788310035 0.640361428529971 L12.824816539310033 0.6435653685300338 L12.867087861310038 0.6581381215299871 L12.897060192309992 0.6635124715299554 L12.915973766310001 0.6725041705299901 L12.94139857131003 0.6768449905299718 L12.94946009431001 0.6824260445299899 L12.955661266309987 0.6893506875299806 L12.964342907310053 0.6955518585299671 L12.980259248309975 0.7012362665300031 L12.989044241310067 0.7024765015299437 L12.998552705309946 0.7018563835299716 L13.009094697310017 0.6974122105299614 L13.024287568310028 0.6841830445299735 L13.035242972310014 0.6781885775300367 L13.040617321309979 0.6713672885299928 L13.04754196330998 0.6645459995299348 L13.057257132310012 0.6614454135299894 L13.102215628310004 0.6614454135299894 L13.187585094310007 0.6744678745300234 L13.192856090310043 0.676638284529929 L13.197817027310007 0.681289163529982 L13.20463831731004 0.685940042530035 L13.215180309309998 0.6881104525299406 L13.247323049310038 0.6867668655299752 L13.316052704310009 0.7000993855299953 L13.34271774331006 0.7119849645300178 L13.355430146310026 0.7297616575299628 L13.375790660309944 0.7207699575300097 L13.387787634309971 0.7289883575300138 L13.388916474310006 0.7297616575299628 L13.400388642310018 0.7455746455299561 L13.416304984310043 0.7570468135299677 L13.425813446310029 0.7575635785300108 L13.444520315310028 0.7517758175300315 L13.454752249310017 0.7502255245300091 L13.458369599310002 0.7535328155300078 L13.451651663309972 0.7705860385299559 L13.451651663309972 0.7775106805299288 L13.457852835310034 0.7851587925299981 L13.463123831309984 0.7889828485299546 L13.470358531310039 0.7904297885299485 L13.482037405310022 0.7905331415300623 L13.484827932309967 0.7943571975300046 L13.503018036310008 0.809963480530044 L13.506325328310025 0.8117204795300239 L13.514696910310077 0.8411760455300197 L13.516557262309986 0.8458269245299874 L13.525755667310078 0.8478939815300492 L13.532887014310033 0.8532683305300139 L13.537847952310072 0.8600896195299725 L13.540431773309988 0.8669109085300164 L13.549216767309984 0.8555420935300191 L13.556348115310014 0.8551286825300082 L13.571127575310014 0.8700114945299617 L13.574228160309984 0.8756959025299977 L13.573091279310061 0.8884083045299604 L13.574641572309984 0.8941960645300213 L13.578982392310051 0.8984335315299887 L13.590247855310023 0.9041179395300247 L13.59562220330997 0.907838642530038 L13.608541311310004 0.9243751015300319 L13.61598271831002 0.9274756875299772 L13.632932587310021 0.928302509529999 L13.646678519310056 0.9315064495299765 L13.660217744310016 0.9393612665299997 L13.671276500310027 0.9505233765299437 L13.677581025310046 0.9631324255300484 L13.611951956310007 0.9513501985299655 L13.571747691310007 0.9508334345300113 L13.538674775309998 0.9825627635299412 L13.505705211310042 0.995791930529947 L13.474802705310053 0.9967221065299867 L13.46529424131006 0.9761548865299972 L13.437492320310012 0.9927946975300159 L13.424883271310078 0.994758401529964 L13.416304984310043 0.9829761755299558 L13.401112112310015 0.9894874055299283 L13.39294723631002 0.9853532915300036 L13.386436006310047 0.9766716505300366 L13.375894013310072 0.969953714530007 L13.382095185310048 0.9556910195300361 L13.371139781309976 0.9574480175300124 L13.366385550309984 0.9623056025300372 L13.362974905310066 0.9690235385299673 L13.355430146310026 0.9761548865299972 L13.348918916310053 0.979565531530028 L13.275228324310033 1.0026132195299908 L13.255901337309977 1.0040601595299847 L13.23864140930999 1.0082976275299416 L13.215180309309998 1.0271078485300364 L13.194716442310037 1.0313453165299933 L13.188515270310061 1.0345492545299635 L13.182314097309982 1.048708597530009 L13.17383916330999 1.0518091835299543 L13.164640758309984 1.0532561235299482 L13.15595911831002 1.056666768529979 L13.148517711310005 1.0609042355300176 L13.14314336231004 1.0649349975300169 L13.116271618310035 1.0979045615299867 L13.081855113309983 1.1188851925299872 L13.066972301310043 1.1318043005299927 L13.01643275031 1.1897852575299481 L13.012815400310016 1.19185231453001 L13.009611461310042 1.1974333695300174 L12.995555472310029 1.2134530635299825 L12.992351533310055 1.219447529530001 L12.982222952310023 1.2218246455300488 L12.93623092731002 1.226372171529988 L12.923415172310028 1.2293694045300043 L12.889308726309961 1.1989836625299546 L12.88755172831 1.183480732530029 L12.882900849310031 1.177692972529968 L12.876286266310016 1.1747990925299803 L12.868844860310018 1.1679778035300217 L12.851688284310056 1.136248473530003 L12.839389293310004 1.125499775529974 L12.817271780310078 1.1213656605299605 L12.783061982310015 1.1198153685299417 L12.76838587531 1.1250863635299737 L12.752056123310068 1.1405892935299846 L12.723634085309952 1.1884416705299827 L12.714228974310002 1.1952629595299413 L12.705237275310052 1.1935059605299614 L12.687873993310033 1.184824320529998 L12.677021943310079 1.1816203805300205 L12.65604131130999 1.1789332065299902 L12.636094208310054 1.1816203805300205 L12.600850882309997 1.1984668975299968 L12.552895152309956 1.2544841505300184 L12.51940882531005 1.2778418985299709 L12.48292526331005 1.2842497755300144 L12.474760387310026 1.2880738325299603 L12.445924938310013 1.3148422235300217 L12.438070120309957 1.320629984530001 L12.409544730310015 1.332412210529995 L12.397452445310021 1.3408871455300044 L12.39269821331004 1.346054789530001 L12.388977510310012 1.3528760775300555 L12.384533336310026 1.3496721395299858 L12.379779104310016 1.3468816115300228 L12.374404755310051 1.3456413775299865 L12.36861699530999 1.34667490552998 L12.33378708031003 1.3702393595299753 L12.330686494309985 1.404759215529964 L12.314770153310063 1.4192286165299919 L12.285314587309953 1.4384522495300018 L12.273015595310026 1.4490975945300022 L12.255032196310024 1.474832457529999 L12.243353323309973 1.4860979205300424 L12.22764368831008 1.4907487995300102 L12.133592581310038 1.588107197529979 L12.118709768309996 1.5969955445299888 L12.097935843310038 1.6005095415300303 L12.074268037310018 1.62727793353001 L12.067653453310013 1.6324455765300172 L12.063209280310017 1.6350293975299337 L12.027655895309946 1.646708271529988 L12.009982555310044 1.6472250355300275 L11.996960094310024 1.636889749529928 L11.989105276309969 1.5950318395299519 L11.973292288309976 1.5521404015299964 L11.964403941310051 1.5384978225299903 L11.978563284310011 1.5175171915299899 L11.96926152630999 1.4965365595299858 L11.936602021310021 1.4627401725300047 L11.945076956310002 1.4467204785299543 L11.939495901310009 1.4372120155299797 L11.92905726230998 1.429357197530038 L11.923476208310033 1.41840179452997 L11.919342093310034 1.4065162145300292 L11.909110159310044 1.4021753945299622 L11.895570934310056 1.3999016305299392 L11.881928356309968 1.3945272825299782 L11.876554007310004 1.3866724645300366 L11.862084606310047 1.3697225945299465 L11.847201793310033 1.3575269565300232 L11.836659801310047 1.3674488315300124 L11.828081513310023 1.3664153035299478 L11.819089814310074 1.3633147175299882 L11.81361211231001 1.3604208375300004 L11.81226852531003 1.3552531935300038 L11.814128877310024 1.338406676529928 L11.81361211231001 1.332412210529995 L11.807514293310048 1.322283629530034 L11.777335256310037 1.2881771845299852 L11.765863089310015 1.2634758495299678 L11.754390921310003 1.248386332529975 L11.75160039431003 1.2430119825300068 L11.750360159310018 1.2360873405299344 L11.75160039431003 1.2123161825299746 L11.748396454310067 1.2090088905299723 L11.741058401309997 1.2081820675299468 L11.733720348309985 1.2061150105299845 L11.730516409310011 1.1989836625299546 L11.73061976230994 1.185547790529995 L11.729276174309971 1.178829853529976 L11.723488415310014 1.1744890335299942 L11.71056930630999 1.1679778035300217 L11.672742158310028 1.1664275105299993 L11.603599091310029 1.1721119175299464 L11.517402803310004 1.1792432655299763 L11.399167126310003 1.1890617875300364 L11.311833954309973 1.20518483453003 L11.227498017310038 1.2208944695299948 L11.143058727310004 1.236500752529949 L11.05872278931008 1.252210387529999 L10.974283499310046 1.2678166705299532 L10.889947561310036 1.2835263055300175 L10.805611624310016 1.299235941529986 L10.721275687310081 1.3148422235300217 L10.636836396310057 1.33055185952999 L10.552397105310005 1.3462614945299691 L10.468061169310003 1.3618677775299943 L10.383828584310008 1.3775774125299733 L10.299285941310044 1.3931836955300128 L10.214950003310035 1.4088933305299776 L10.13051071331 1.4246029665300455 L10.046278128310005 1.4402092485299818 L9.961838838309971 1.455815531529936 L9.944785615310023 1.4590194695299914 L9.927629039309975 1.4622234085299652 L9.910679169310042 1.4654273475300386 L9.893522594309983 1.468527933529984 L9.874609019310041 1.4692514035299808 L9.85569544631002 1.4700782265300063 L9.808669892310034 1.4719385775300111 L9.761747692309994 1.4737989295300054 L9.714618786309982 1.4756592805300102 L9.667696585310038 1.4775196325300186 L9.611265921310006 1.4797933955299527 L9.554731904310044 1.4819638055300288 L9.498404592310036 1.4842375685300482 L9.441973929309993 1.4864079785299396 L9.411236780310018 1.487637464529982 L9.392881318310058 1.4883716835299765 L9.392881318310058 1.5167937205299893 L9.392881318310058 1.557618102529986 L9.392881318310058 1.5983391315299542 L9.392881318310058 1.6391635125299473 L9.392881318310058 1.6800912475299725 L9.392881318310058 1.72101898152998 L9.392881318310058 1.7617400095299587 L9.392881318310058 1.8025643915299412 L9.392881318310058 1.8433887735300232 L9.392881318310058 1.8842131545300163 L9.392881318310058 1.925037536530013 L9.392881318310058 1.965861917530006 L9.392881318310058 2.0066862995300028 L9.392881318310058 2.0474073275300526 L9.392881318310058 2.088231709529964 L9.392881318310058 2.129056090529957 L9.392881318310058 2.169983825529968 L9.39329472931007 2.294937438529928 L9.393409356309972 2.341131888529972 L9.39360478830997 2.419891051529973 L9.394121552309995 2.5448446655300216 L9.394534964310024 2.6699016315299957 L9.394845022309992 2.7948552445300407 L9.395361787310035 2.9198088575300005 L9.395775198310046 3.044865823529989 L9.396085257310032 3.1698194375300233 L9.396498668310043 3.2948764035300115 L9.396912079309969 3.4198300165299713 L9.397160774310036 3.5200539855299695 L9.39722213831004 3.5447836295300164 L9.397635550309955 3.6697372435299656 L9.398048961309966 3.79479420852995 L9.398462372309977 3.919747822529999 L9.398875784310006 4.044804788529973 L9.399286633310053 4.1689840625299865 L9.399289195310017 4.169758401530018 L9.399392548310031 4.227429300529991 L9.399702607310017 4.28510019852996 L9.399909313309989 4.342667744530004 L9.400012666310003 4.400235290530034 L9.400219371310042 4.457906188530018 L9.400426077310014 4.515473733530044 L9.400632783310071 4.573144632529932 L9.400839488310025 4.63081553152999 L9.400942842309972 4.688383076529945 L9.401252900310025 4.74605397453 L9.401459606310082 4.803724873529973 L9.401666311310036 4.861395771529956 L9.401873017310008 4.919066670530015 L9.402079722310047 4.976634216529959 L9.402286429310008 5.034201761529999 L9.402493135310065 5.091872659529969 L9.402596487310005 5.133007099529948 L9.389780732310014 5.169697367530006 L9.33252324530997 5.169697367530006 L9.098429007310044 5.169697367530006 L8.86433476931006 5.169697367530006 L8.63024053031006 5.169697367530006 L8.396146292310048 5.169697367530006 L8.396249644309988 5.255790303530006 L8.396456350310016 5.406272074529994 L8.396663057309977 5.556650492530039 L8.396766409310002 5.707132262530038 L8.39697311531006 5.857614033530027 L8.397076468309988 6.029696553529988 L8.39738652631007 6.201572366529987 L8.397593232310042 6.373551533530005 L8.397655747310067 6.477576999529958 L8.397696585309971 6.545530700530037 L8.397903291310028 6.717613219529994 L8.398109996309982 6.889592386530012 L8.398283032309989 7.033514580529939 L8.398316702310039 7.0615198765299425 L8.398523408309982 7.23349904352996 L8.398626760310007 7.405581562530017 L8.398936820310011 7.57745737653002 L8.39914352531005 7.749436543529953 L8.39924687830998 7.921519062529995 L8.399556936309976 7.934024759530004 L8.399556936309976 7.990042011530022 L8.399556936309976 8.046162617529973 L8.399556936309976 8.10228322253002 L8.39966028930999 8.158300475529941 L8.399763642310033 8.214421080529988 L8.399763642310033 8.270438334529999 L8.399763642310033 8.326455586530017 L8.399763642310033 8.382576192529982 L8.399763642310033 8.438696797529929 L8.399763642310033 8.494714050530035 L8.399763642310033 8.550731302529968 L8.399866995310047 8.606851908530004 L8.399866995310047 8.662869160530022 L8.399866995310047 8.718989766529987 L8.399866995310047 8.775110371529934 L8.399866995310047 8.788013950529987 L8.399866995310047 8.831127624529955 L8.399866995310047 8.887144876529973 L8.399866995310047 8.943162129529995 L8.399866995310047 8.999282734530027 L8.399970348309976 9.055299987529963 L8.400073700310001 9.11142059253001 L8.400073700310001 9.16754119852996 L8.400073700310001 9.223558450529978 L8.400073700310001 9.27957570353 L8.400073700310001 9.335696308530032 L8.400177054310033 9.391713561529969 L8.400177054310033 9.447834166530015 L8.400177054310033 9.50385142052994 L8.400177054310033 9.559972025529987 L8.400177054310033 9.615989278529995 L8.400177054310033 9.672109883530041 L8.400280407309962 9.728127136529977 L8.400383760310005 9.784144388529995 L8.400383760310005 9.840264994529946 L8.400383760310005 9.896282246529964 L8.400383760310005 9.95240285253 L8.400383760310005 10.008420104529932 L8.40048711231003 10.064540710529982 L8.40048711231003 10.12055796253 L8.40048711231003 10.176678568529951 L8.40048711231003 10.232695820529969 L8.40048711231003 10.288713072529987 L8.40048711231003 10.344833678529938 L8.400590465310044 10.400954284529988 L8.400693818309973 10.456971536530006 L8.400693818309973 10.513092141530038 L8.400693818309973 10.569212747530003 L8.400693818309973 10.625126647529996 L8.400693818309973 10.681143900530003 L8.400693818309973 10.737264505529964 L8.400693818309973 10.79338511153 L8.400797171310016 10.849402363530018 L8.400797171310016 10.905522969529983 L8.400797171310016 10.961643574530015 L8.400797171310016 11.017557474530008 L8.400797171310016 11.07367807952997 L8.400797171310016 11.129798685530005 L8.400797171310016 11.185815937530023 L8.400797171310016 11.241936543529988 L8.40090052331004 11.29805714853002 L8.40100387630997 11.354074401529957 L8.40100387630997 11.410091653529975 L8.40100387630997 11.466212259529925 L8.40100387630997 11.522229511529943 L8.40100387630997 11.561710306529974 L8.399453584310036 11.591372578530027 L8.36834437131 11.59829721953001 L8.358009085310071 11.599227395529965 L8.325659638309984 11.595506692530037 L8.314497529310044 11.596746927529992 L8.288142549310008 11.609872741529955 L8.243390758310026 11.645736185529998 L8.214141897309984 11.653177591529925 L8.165876109309975 11.656174824530027 L8.143138479310009 11.663202819529943 L8.123398082310045 11.677052103530002 L8.106138154309944 11.685010273529969 L8.005782523310073 11.691728210529988 L7.996997529310077 11.694208678529975 L7.986558890310048 11.700203144529993 L7.9801510123100154 11.707127787529984 L7.974259898310008 11.715189309529976 L7.965371552310016 11.72490447953001 L7.95999720431004 11.73306935553002 L7.951522269310031 11.751466165530019 L7.945217743310023 11.754980162529975 L7.9356059273100055 11.758390807530006 L7.929508108310044 11.76707244752997 L7.900672659310031 11.847274271529955 L7.890234020310002 11.861743672529983 L7.872870738309983 11.874249368529988 L7.852406871310022 11.882517597530025 L7.771274873310061 11.900914407530024 L7.756805472310019 11.906495462530046 L7.746160126310029 11.904841817529999 L7.722285614310037 11.887685240529947 L7.707816213310023 11.88871876952993 L7.695103812309979 11.898433938529962 L7.683734996310077 11.911663105529954 L7.6663717153100475 11.940601907529924 L7.6627543653099774 11.961479186529985 L7.669368949310067 11.983286641530015 L7.706679332310015 12.04002736352993 L7.70616256830999 12.052119648529924 L7.694380341310078 12.058527526529957 L7.661514130310051 12.060904642530005 L7.655416311309976 12.064625345530004 L7.644460908310007 12.080541686530026 L7.636296031309994 12.087879739530024 L7.579348603310022 12.11444142652995 L7.538007458309975 12.126533711529945 L7.499456839309998 12.12839406252995 L7.482506969310007 12.108860371529943 L7.4778560903100395 12.10472625653 L7.466797334310028 12.101418965530002 L7.431760712310021 12.097491555529942 L7.424732718309995 12.095321146529955 L7.4141907263100375 12.084572448530025 L7.388972627309981 12.049535827530008 L7.372332815310072 12.035686543529948 L7.163456676310004 12.008918151529983 L6.971737112310022 12.033722839530014 L6.935460257310067 12.051292825529984 L6.913962861310038 12.057287291530017 L6.909415335309999 12.055323587529983 L6.897219697309991 12.045298359529966 L6.892775523309977 12.043024596530032 L6.887194469309973 12.04395477253 L6.87851282931001 12.048915709530036 L6.873035126310013 12.050466002529973 L6.853501435309992 12.053256530530021 L6.842546032310024 12.056253763530037 L6.834794566310022 12.060697936529948 L6.8153642283100435 12.067932637530006 L6.790869599309984 12.064211934529993 L6.748804983309951 12.050466002529973 L6.726480765309985 12.049019062529979 L6.6385274773099905 12.060284525529937 L6.602870738310001 12.071239929530009 L6.584267223310034 12.07092986953002 L6.500241344310011 12.044988301529983 L6.461897431310005 12.027418313530006 L6.401125947309991 11.982769876529971 L6.3673295603099955 11.963752949530004 L6.331052705310041 11.950317076529956 L6.164137828310002 11.917657571529986 L6.131891734310043 11.920138040529963 L6.121039683310071 11.924582213529959 L6.101195934309997 11.936571146530014 L6.09158411730999 11.940601907529924 L6.078768362309999 11.94132537853001 L6.04652226931003 11.933160501529997 L6.024921520309986 11.924685566529988 L6.020373994310033 11.904428405529984 L6.021200817310044 11.879830423529995 L6.015826467310005 11.858643085529948 L6.000736950309998 11.849237976529992 L5.983787080310007 11.85254526752999 L5.9647701533100115 11.860400085529932 L5.94440963830999 11.864844258530027 L5.902965140310043 11.869185078530009 L5.858730114310019 11.878590189529973 L5.821419729309978 11.873319193529937 L5.819559377309984 11.84324350952997 L5.832065075310053 11.801695657529976 L5.838369599309997 11.762421569530005 L5.82741419631 11.740407408530018 L5.790827282309975 11.728418476529967 L5.783075816309973 11.71157195952999 L5.777288056309997 11.68883433053 L5.750209606310021 11.65762176453002 L5.742044729310008 11.639535013530008 L5.745972138309979 11.625168965530008 L5.758994599310027 11.611836445529988 L5.776357881310018 11.60181121752997 L5.7932043983100225 11.597987161530014 L5.80912073931003 11.587858581529972 L5.817492321309997 11.564294127529976 L5.819869437310045 11.53680226553 L5.817802379310079 11.515408223529988 L5.812634736310001 11.50414276052993 L5.79671839431006 11.485332539530006 L5.789793753309992 11.47510060553003 L5.785866344310021 11.462801614529994 L5.784832816310027 11.452569681530008 L5.78193893531005 11.442337747530033 L5.772843883309973 11.430038756529996 L5.769019827310045 11.420426940529978 L5.767572887310051 11.407714537530026 L5.763542125310037 11.396655781530015 L5.752276663309997 11.391901549530019 L5.726438447309986 11.39314178352997 L5.6629797883100235 11.40647430352999 L5.630940400310008 11.401099954530025 L5.609753062310061 11.377845560530005 L5.604895478310054 11.33102671252999 L5.607582653309974 11.308392435529939 L5.6077893583100415 11.285861510530012 L5.598694306310049 11.268498229529996 L5.573579560310035 11.261573587530009 L5.554149221310039 11.253718770529986 L5.541023407310005 11.235528666529945 L5.529551240310068 11.21506479852998 L5.51559860331008 11.200181985530037 L5.504333141310012 11.196047871530013 L5.49420456030998 11.195841165529956 L5.4744641633100155 11.200181985530037 L5.4631987013100325 11.205349629530033 L5.429815725309991 11.227363789529932 L5.403150686310026 11.22126597052997 L5.391575166310075 11.224056497530015 L5.377312471310004 11.237595722530003 L5.365323538310035 11.241729837529931 L5.355298310310017 11.24007619152998 L5.345273082309999 11.229224140529936 L5.337418265310076 11.227363789529932 L5.33132044631 11.231704609529999 L5.314267223310081 11.24896453852999 L5.310753225310036 11.25165171253002 L5.303311819310009 11.33102671252999 L5.295973766309997 11.341051940530008 L5.291632946310015 11.340535176529968 L5.286465302310033 11.336917826529984 L5.269825492310018 11.337331237529995 L5.265588024309947 11.334437357530007 L5.261557262310047 11.332887063529995 L5.25545944331 11.33722788452998 L5.253495738309963 11.343222350529999 L5.256182913309997 11.348493346530034 L5.273752900310056 11.368440449529956 L5.274166311310067 11.375675150530014 L5.258870087310013 11.378879089529988 L5.2375793983100305 11.37877573552997 L5.232101695310062 11.382496439529973 L5.228070934309953 11.391901549530019 L5.2310681673100685 11.398929544529949 L5.238612926310024 11.409058125529995 L5.24440068631 11.420943704530018 L5.242436982309981 11.433552754529956 L5.233031871310002 11.439857278529956 L5.222903291310045 11.436756693530015 L5.212981415310052 11.430245462530038 L5.2042997753100035 11.426628112529968 L5.186523082309973 11.434379577529967 L5.182182262309992 11.452259622529937 L5.1862130233100725 11.472723489529983 L5.193344371310017 11.48812306652998 L5.214635062310007 11.516855163529982 L5.221663057310023 11.535148620529952 L5.211017711310033 11.543313496529976 L5.196341605310037 11.551995137530028 L5.191173961310026 11.57194224052995 L5.189933727310004 11.594783223529959 L5.187143199310041 11.61162974053002 L5.176187796309959 11.62868296253005 L5.158204397309985 11.649973652530036 L5.1382572943100495 11.665063171529951 L5.121617484310034 11.663512878530028 L5.117483369310007 11.654211120529993 L5.114589489310019 11.641498717529956 L5.110145315310005 11.630129902530044 L5.101256969310013 11.625272318529937 L5.090921682310009 11.628786315529993 L5.0151640323100235 11.695242207529958 L4.976923473310022 11.706094258530001 L4.949328258310031 11.71870330753002 L4.923179983310005 11.734412942529985 L4.904871464310018 11.741956475529989 Z" fill="black" stroke="black" stroke-width="0.5" vector-effect="non-scaling-stroke"/></svg>