<svg xmlns="http://www.w3.org/2000/svg" viewBox="0 0 8.301555298080046 4.154599120859999"><path d="M8.169317891039995 2.596751057930014 L8.19412257904007 2.601918700930007 L8.207506775040017 2.606362873930003 L8.215723328040028 2.6122798249300203 L8.217687032040075 2.624036212930001 L8.20569809904002 2.64248469993003 L8.210762390040074 2.6835157869299664 L8.200427104040088 2.708863076930065 L8.185957703040046 2.7344687499300093 L8.16197983804004 2.818132892930059 L8.099864766040056 2.9122873529300293 L8.074439961040056 2.962723550929944 L8.073199727040034 2.9733947339299434 L8.074439961040056 2.982980711930047 L8.079194193040038 3.0025144039299434 L8.081881368039987 3.006906899930037 L8.090873067040022 3.015278481930004 L8.092733419040016 3.0195676259299873 L8.09040797904008 3.0281459149300005 L8.085912130040057 3.033830321929962 L8.08069281004002 3.0388946119300257 L8.076920430040033 3.0455608729300465 L8.06834214204001 3.0684018549300376 L8.065861674040022 3.0795639649299957 L8.066895202040016 3.0934132479300374 L8.071236023039987 3.1042652989300095 L8.083638367040052 3.1237473139300036 L8.086222188040026 3.1350644529300595 L8.080124369039979 3.1595590819300057 L8.055762836040046 3.2084724709300687 L8.040436869040022 3.2392441399299727 L8.03656113604005 3.3092657059300095 L8.02193670704007 3.3384112139300086 L8.02028306004 3.346834471930002 L8.021833354040027 3.3548959959300007 L8.026587586040066 3.3624924309299544 L8.042400574040059 3.3761350089300706 L8.060590678039986 3.4119984539300034 L8.07847072404006 3.422282063929991 L8.09392197704004 3.4286899409299494 L8.107047791040017 3.439593667930005 L8.127976746040005 3.4658452959300448 L8.147923848040008 3.4982980949300426 L8.16291001403998 3.533334716930078 L8.171539978040002 3.5487859699299733 L8.193915873039984 3.579223388930039 L8.202494161040008 3.5948296709299754 L8.206421570039979 3.6120379229300497 L8.210142273040034 3.655084389929975 L8.218927266039984 3.6947202149300367 L8.220167501040052 3.713633788929961 L8.218617208040015 3.7325990399300153 L8.214483093040016 3.7524944659300203 L8.197739929040026 3.7964194329300582 L8.152781433040033 3.875691079929986 L8.138236318040057 3.918535554929967 L8.130922302039991 3.9400799149300028 L8.13025050904001 3.950260171929976 L8.133351094040037 3.9627658689299707 L8.125289571040057 4.0036936039299675 L8.095420593040032 4.051959390929987 L8.057748474039997 4.087771158930018 L8.026587586040066 4.091078450930006 L8.012324890040063 4.078676105930036 L7.98007879603999 4.06120947293001 L7.965867778040021 4.049375568929996 L7.9596149290400575 4.039815428930005 L7.95310369904 4.02234879592995 L7.948401143040016 4.014183918930023 L7.945868998039984 4.014700682930048 L7.921787781039981 3.996923989930046 L7.920909282040029 3.9929965809300754 L7.903184265039997 3.9969756669299485 L7.872695170040046 4.020126707930039 L7.855538595039988 4.0202817379299844 L7.837038431040057 4.011651773930048 L7.820088562040027 4.006174071929955 L7.807272807040064 4.010721597929994 L7.800554870040045 4.031908934930037 L7.793320170040076 4.0471534829299785 L7.778644063040062 4.053871418930008 L7.762004252040057 4.051959390929987 L7.7486717320400516 4.041365721930013 L7.732290303040074 4.033407551930047 L7.710741231040046 4.0401254879300765 L7.699845029040077 4.04764228793001 L7.675084493040046 4.064723469930065 L7.638084167039992 4.079606281930005 L7.603150900040006 4.070924641930041 L7.531424011040016 4.034234373930069 L7.500728211040084 4.029015054930049 L7.467551941040071 4.030668700930015 L7.435305847039999 4.038988605929966 L7.4075039260400075 4.053923094930035 L7.396031759040042 4.068289142930034 L7.377324890040015 4.104307616930008 L7.365129252040035 4.113867756929999 L7.3515900270400465 4.1116456709300095 L7.309525411039985 4.0946958009299905 L7.296399597040065 4.0874094229300155 L7.287407898040087 4.074335285929969 L7.280534932040027 4.0588840329299885 L7.270199646040041 4.049530598930026 L7.239555522039993 4.058057209929949 L7.186122091040076 4.063431558929999 L7.157389994040088 4.052889565930052 L7.1343939820400095 4.02555273393002 L7.117805847040003 3.9920147299300126 L7.1077806190399855 3.9627658689299707 L7.10757391404006 3.96271419193004 L7.096101745040002 3.913363199930039 L7.095533305040064 3.8964650059300467 L7.092432718040001 3.877448078929966 L7.081012227040034 3.8778614909299947 L7.066542826039992 3.8886618649300075 L7.0363121130400685 3.916980549930024 L7.0235480350400366 3.9256621909299767 L6.986253550040075 3.9373462229300387 L6.958229024040051 3.946126057930023 L6.927068135040017 3.96271419193004 L6.916784525040086 3.985193439930036 L6.897457540040065 4.004985513930016 L6.8729629110400055 4.019506591929989 L6.847538106040005 4.026121174929976 L6.838339701039999 4.024570881930053 L6.80299302204007 4.012116861929961 L6.7892987670400515 4.013925536930053 L6.781805684040009 4.023847410929953 L6.775191101040022 4.035681314929967 L6.764700786039995 4.043071043929977 L6.746303975039993 4.039402017929994 L6.676437438039997 4.001316487930033 L6.608999695040083 3.9736179199299997 L6.589052592039977 3.9627658689299707 L6.588845886040005 3.9627658689299707 L6.5754100140400595 3.948554849929984 L6.561715759040041 3.937496092929983 L6.546006123040044 3.9297963049299867 L6.526575785039981 3.9256621909299767 L6.495931661040046 3.91455175692996 L6.434746765040003 3.8847861319300634 L6.4047744350399824 3.875019286930005 L6.395937765039989 3.875019286930005 L6.374285339039986 3.8775514319300086 L6.367102315040071 3.8766729319299813 L6.360125997040072 3.869644936930051 L6.359712585040015 3.8554855959300127 L6.352477885039988 3.8486126289300486 L6.335528015040083 3.845615396930036 L6.314185648039981 3.848560952930022 L6.276255148040079 3.8602398269300053 L6.2539826050400364 3.8730555819299965 L6.246954610039992 3.874967609929989 L6.236464295040022 3.873210611930027 L6.2303664760399755 3.869024820930001 L6.225560567040006 3.8643222659300065 L6.218894307040088 3.8610149739300184 L6.203753113040065 3.856984211930005 L6.197454695040037 3.856279782929981 L6.19589829504001 3.8561057119299775 L6.173160665040072 3.8573459469300175 L6.166959492039993 3.855072183929984 L6.1617918500399895 3.850886392930043 L6.092803812040003 3.812180744930025 L6.062469747040083 3.80318904592999 L6.02681300803998 3.8132659499300345 L6.003248556040077 3.8155913899299705 L5.985781921040015 3.824738117930046 L5.917465678039989 3.8777064609300496 L5.89586492904003 3.8891269529299493 L5.87963852903998 3.891504068929997 L5.872713887040035 3.8859230139299754 L5.8708535360400305 3.878119871929975 L5.870646830040059 3.869334878929969 L5.868734802040009 3.8609116209299756 L5.860828308040013 3.8546070959300707 L5.851164815040065 3.8569325359300066 L5.841087911040049 3.8606015619299896 L5.832096212040071 3.8584311519299987 L5.778146016039997 3.8200355629299665 L5.763986674040083 3.8044292799300408 L5.75334132803998 3.7691859529300515 L5.760731059040083 3.69518530292995 L5.752927917040083 3.6610271809299704 L5.7388719270400514 3.645782632930029 L5.660478780040066 3.6066118969299836 L5.649678405040035 3.603252928929969 L5.570561787040035 3.6312098789299725 L5.5267918500400555 3.6523972159300158 L5.490721700040055 3.669915526930076 L5.47263494904 3.6749798169299694 L5.454289815040042 3.670018879930005 L5.43697821004001 3.669192056929994 L5.420338399040006 3.6826279299300424 L5.406452535040032 3.697723206929986 L5.4043187050400405 3.7000428869300706 L5.388143982039978 3.710843260929998 L5.35346909604003 3.7203000489300777 L5.3383795770400155 3.7206617829299873 L5.246033793040041 3.6987509759300323 L5.2167849320399995 3.67136246693007 L5.216629903040072 3.6368426099299924 L5.213115905039999 3.6066118969299836 L5.173945170040028 3.5919357909299876 L5.15131089204003 3.5941062009299785 L5.095086935040044 3.6138982749300723 L5.0696621290399975 3.6118312169299926 L5.06795680804008 3.598395344930047 L5.069145365040001 3.5832024729300187 L5.051937113040012 3.575399331930008 L5.039276387039976 3.5738490389299997 L5.026874044040014 3.5707484539299443 L5.0038263550400615 3.559999755930015 L4.9953514200400235 3.5419130049300165 L4.9896670120399875 3.5210357249300372 L4.975145935040061 3.5019671219300434 L4.952666687040036 3.4904432779300336 L4.902850606040019 3.4755087889300498 L4.879389506039999 3.462796386930016 L4.879234477040072 3.462693032929984 L4.868589131040082 3.447035074930021 L4.853034526039991 3.4438828119299885 L4.836601420040083 3.4491538079299957 L4.823062195040038 3.4584555659300165 L4.811796733040055 3.45861059592999 L4.691338969040018 3.4292583819299907 L4.678368184040025 3.421145181929994 L4.672580424040049 3.39964778593005 L4.681468771040031 3.376806802930041 L4.695628112040012 3.3539141439300337 L4.705498311039989 3.332261717930031 L4.710924337040055 3.2925225419300475 L4.708753926039989 3.2542303059299442 L4.699297140040002 3.216919921930007 L4.683019063040078 3.1805913899300364 L4.657645935040065 3.147156737930054 L4.628138692040054 3.12860489893 L4.340507670040026 3.081527668930015 L4.318803569040014 3.0690736489300363 L4.299993347040001 3.0451991369300444 L4.290123148040024 3.02649226792996 L4.276635600040024 3.0172421869299555 L4.246353211040045 3.0215830079300403 L4.236948100040067 3.0189991849300313 L4.226199402040024 2.994659585930002 L4.216845968040033 2.9854611809300238 L4.1928164260399825 2.97688289293 L4.182067728040053 2.9712243239300378 L4.1726626180400075 2.962671874930031 L4.168270121040038 2.944352579930033 L4.150648457040049 2.9407610679299623 L4.130701355039989 2.9480991209300598 L4.080006775040019 3.0039096679300243 L4.058767761040073 3.0168287759299446 L4.026935079040001 3.0179139809300395 L3.9870408730400726 3.0115577789300048 L3.974121765040067 3.0076820479300395 L3.9731431870400087 3.007939797930071 L3.9509707240400616 3.013779866930001 L3.9046169640400734 3.0166737459299995 L3.8851866250400775 3.02359838892999 L3.8938165890400427 3.0395664059300245 L3.9222903030400715 3.068195148930009 L3.9247707720400484 3.077548583930046 L3.9287498570400174 3.0877288399300014 L3.92849147603998 3.0958937169300143 L3.9186212770400033 3.0992526859300185 L3.9128335160399814 3.1031284169299838 L3.9057021690400546 3.1125852049299496 L3.9044401890400167 3.1114415359300196 L3.8990875860400678 3.1065907389300307 L3.8530955610399786 3.091707925929988 L3.714499370040002 3.0253553869300376 L3.64153224703999 3.0010157879300365 L3.5320815630400233 2.987889973929974 L3.438133809040025 2.9871665029299876 L3.4120888880400315 2.995434732930015 L3.407024597039978 3.0051499019299612 L3.4049575400400016 3.01734553992997 L3.4069212450400386 3.0289727369300223 L3.4220624390400616 3.0474212239300513 L3.420667175040066 3.059461832930019 L3.4138458860400505 3.0720192049300223 L3.3922451370399784 3.1006996259300124 L3.3754502970399898 3.1159441729300497 L3.3559682820399956 3.1257110179300227 L3.3335407110400155 3.126692870929979 L3.3105963750399923 3.1195098459300468 L3.3005194700400438 3.1095362959300346 L3.2942149460400145 3.0954803059300033 L3.2826911010400153 3.076411702930038 L3.270340434040051 3.0638543289300273 L3.2207310590400624 3.026440591930047 L3.1838857630400383 3.013418130929999 L3.061567648039997 3.014244954930028 L2.9982640180399898 3.0003181559300387 L2.952375346040057 2.977270466930001 L2.9273639530400573 2.9700874429299446 L2.80323716204002 2.962671874930031 L2.7808095900400502 2.9394691569300093 L2.7699575400400676 2.9015128169300155 L2.7603457230400608 2.8267111819300723 L2.748150085040024 2.788238077930025 L2.7307868040400507 2.7632266839300357 L2.7249915100400557 2.761177128929994 L2.7032432650400295 2.753485675929987 L2.5772561240400336 2.7824244789300323 L2.491783305040016 2.791209472930028 L2.4530259810400565 2.780460774930013 L2.399024109039985 2.731626545930048 L2.3215094600400192 2.697158365930072 L2.2021369010400207 2.6093601069300334 L2.1585219930400257 2.5940638839299694 L2.141468770040021 2.5853047279300014 L2.1227619020400397 2.5676055499300716 L2.1027114460400043 2.5524643559299633 L2.1013125760400584 2.5520494369300124 L2.078320170040044 2.5452296549300044 L2.0270054730400346 2.540682128930051 L1.9974982300400796 2.5522834869300297 L1.957190612040037 2.594528970930007 L1.9342979530400015 2.6085849599300204 L1.9067544140400372 2.6066987709300165 L1.8789524940399787 2.5919968259300035 L1.8512539260400303 2.573548338930003 L1.8012311400400876 2.547968504930047 L1.7614919630400863 2.5101155189299718 L1.7400462440400446 2.494431721929992 L1.71653346703998 2.4868352859300202 L1.6661489460400816 2.476396645930002 L1.646460225040002 2.462857420930014 L1.646201843040032 2.462754068929989 L1.6332827350400265 2.4443572589300047 L1.6130255740400088 2.4316448559300383 L1.5245555210400852 2.3912338869300456 L1.5093109740400763 2.3803559969299997 L1.5051251830400219 2.371028401929969 L1.5040399780400406 2.3605897619300364 L1.4993374230400462 2.346223713930037 L1.4863666380399962 2.327852742930041 L1.4684349160400387 2.31061865192995 L1.4471442260399812 2.29700191193006 L1.4243032430400575 2.2897930499300045 L1.4090070190400041 2.291653401929999 L1.4025474650400582 2.3008259679299883 L1.3983616740400038 2.3132024729300653 L1.3892149460400418 2.324907185930037 L1.374797221039998 2.3313925779300106 L1.358157409040004 2.3338213699299715 L1.3473053580400318 2.329325520930034 L1.350509297040034 2.3151145009299725 L1.3341795450399871 2.311548827930004 L1.3278750200400253 2.303849038930018 L1.3318541050400512 2.2956583249299953 L1.3470469770400513 2.2901806229300163 L1.3334560750400755 2.2660477289300545 L1.2754234410399903 2.2068523759299623 L1.261832540040004 2.1789987789300014 L1.2414720260400003 2.11951920592994 L1.2208014530399822 2.0963164869300144 L1.1974437050400155 2.0853869209299702 L1.0981664470399863 2.068547754930073 L1.0515094600399806 2.0606339099300257 L1.044274760040011 2.0498076979299853 L1.0424144090400063 2.037379515930006 L1.0389004110400464 2.026656656930008 L1.0271181840400203 2.020713866930002 L1.0116152550400415 2.0253647449300374 L0.9922882690400883 2.0249513339300265 L0.9724445190400814 2.021437336929999 L0.9563731490400045 2.0167864579300314 L0.9377696330400767 2.004849201930078 L0.9329637250399827 1.9907932119299616 L0.931465108040058 1.9757553699300772 L0.9233519080400328 1.9607692059299993 L0.9090892130400761 1.9551881499299881 L0.868109803040042 1.9550847979300485 L0.849506286040068 1.9519325349299876 L0.8327631220400207 1.94288915993004 L0.7946259160399762 1.9076716719300677 L0.7781928100400108 1.8979565019300182 L0.7468768920399924 1.8901275229300083 L0.7297203170400479 1.8829186609299526 L0.7192816770400867 1.871291461929978 L0.699437927040023 1.8378826489300124 L0.6867255250400461 1.829769449930005 L0.6496218460400627 1.8238524979299982 L0.6324652710400045 1.8186848549300052 L0.6146885780400879 1.8105974929300075 L0.6079706420400584 1.802613483930024 L0.6084874060399983 1.7932858879300042 L0.6101410520400208 1.784604246930023 L0.6069371130400754 1.7786872969300234 L0.5855438780400135 1.7780801909299768 L0.5686965530399988 1.777602090929939 L0.5486460980400096 1.7874981279300286 L0.5387242220400452 1.8011665439300302 L0.5360370480400292 1.8183489579299916 L0.5445119830400103 1.881988484929984 L0.539551046039989 1.8951918129300722 L0.5199140020400108 1.8857867019300372 L0.4776426800400344 1.8408282059300163 L0.45945257603999323 1.8312939039300247 L0.4394021200400715 1.8303895659299698 L0.42017848704004734 1.834988769930014 L0.40085150103998046 1.8374175609299854 L0.3808010450400019 1.830157021929999 L0.36943223104002243 1.8175221349299804 L0.3421470740400281 1.7679644359300184 L0.33449896204005825 1.7622800289299718 L0.31630885804001707 1.7583526209299905 L0.3081439820399936 1.754890298929972 L0.30049587004002376 1.7474230539300422 L0.29005723004006256 1.731377521930078 L0.284372823040016 1.7249179679300184 L0.2675263060400397 1.7156937249300128 L0.23228297903999362 1.710345213929962 L0.21316269904006901 1.7043507479300146 L0.1986932980400269 1.6943255209300148 L0.16531032304008875 1.6550514319300405 L0.13296087604008733 1.6382824299300793 L0.12415365304001114 1.636710911929974 L0.10588242504000789 1.6334506829299684 L0.08748561604004124 1.620609089929978 L0.08138779703999433 1.5799655759299398 L0.08221462004000557 1.559837605929964 L0.08500514704006434 1.5416991779300346 L0.09161973103998378 1.5248268219299561 L0.10402207404000308 1.5085229089300114 L0.1195250040400282 1.4976966949300774 L0.13626816804007547 1.4901519359300366 L0.15053086304003216 1.4803592529299792 L0.1590057980400701 1.4630476479300611 L0.1590057980400701 1.4628667799300032 L0.1558018600400004 1.4300264079299936 L0.16417344203999562 1.3854296459299675 L0.18370713303998798 1.3474216309300502 L0.2146096400399955 1.3342699779299707 L0.23166286204001096 1.3363111979300228 L0.2525401410400008 1.3364662269299785 L0.2717637730399787 1.3315569659300408 L0.2841661170399874 1.3183277989300493 L0.2815822950400815 1.3029023849300572 L0.2648391310400342 1.2610703129300802 L0.26990342103998444 1.2465492349300504 L0.28716335104000734 1.2445596919300144 L0.2997724000399984 1.2532413329299672 L0.30928086304008673 1.2551791989299872 L0.32984808304000524 1.189550129930062 L0.333878846040065 1.1663215739300412 L0.3311916700400701 1.1474855139300288 L0.3238536170400579 1.141930297930024 L0.314655213039984 1.1423178709300075 L0.3060769240400276 1.1410001219300554 L0.30059922304000963 1.1306389969299673 L0.29326116904006483 1.090228026929985 L0.27207383203999314 1.057516844929971 L0.2648391310400342 1.0407478429300099 L0.2687665410399944 1.0229969889299966 L0.27941188504000536 1.0159173169300786 L0.30855739403999394 1.0075715729299972 L0.3145518590400087 0.9983990069300077 L0.31734238704000006 0.9855057369300013 L0.3241636750400261 0.9789686679300402 L0.3331553750399934 0.9733359369300203 L0.3422504270400708 0.9630264889300051 L0.3425604860400284 0.9628972979299633 L0.3626109410400744 0.9495131019300445 L0.37118922904004137 0.941813313930048 L0.37832057704007127 0.9327957759299963 L0.3787339890400716 0.9277056479300185 L0.376150167040052 0.9221245929299968 L0.37470322604006867 0.9159750969300191 L0.37832057704007127 0.9090504559300356 L0.38379827904002184 0.9051747229299778 L0.39620062204004114 0.8992836099299879 L0.40188503004007714 0.8955629069300741 L0.42441595503997576 0.8734453939300622 L0.43630153304000885 0.8528006589299579 L0.4378518270400349 0.8308123369300731 L0.42865342204002843 0.8046898999299898 L0.41501084403999755 0.7779215089299996 L0.40550238004003347 0.7527550859299694 L0.405399028040037 0.7273561189299684 L0.4200751340400046 0.6997092289299687 L0.446326762040016 0.6810540359299964 L0.5059613640400329 0.6670497229299812 L0.527252055040023 0.6514951169299579 L0.578411722040002 0.5952194819300516 L0.6006325890400461 0.5639552399299745 L0.6139651080400057 0.5279367669299901 L0.6224400430399868 0.5107801919300172 L0.6373228550400398 0.5034938139300422 L0.6733930050400403 0.49946305293004656 L0.6925132850400217 0.4941920569300109 L0.7052256870399987 0.48706070992999884 L0.7312706090399814 0.4655633139299411 L0.7669273480400278 0.444324299929967 L0.7768492230400597 0.43486751193000117 L0.80682155404007 0.39306127893004117 L0.8207741900400691 0.380348876929979 L0.8809255570400154 0.3405063469299634 L0.9007693080400117 0.3142547189300373 L0.8875401410399917 0.28758967992998663 L0.9014927770399908 0.2757041009300494 L0.919011088040051 0.25746232093001 L0.934783811631064 0.24735552640549585 L0.9349788431345445 0.24723041201434626 L0.9447469778484106 0.2595311997925478 L0.9544094134519412 0.27720275200603695 L0.9719271129557114 0.2809751503932496 L1.0392623297357915 0.2610796325795057 L1.0471169640400575 0.26066625893005124 L1.0576072790400275 0.2687277829299646 L1.070526387040033 0.28536759392999755 L1.0819985550400446 0.3049012849299899 L1.0947626350399986 0.3374057619300217 L1.1177069700400324 0.3704786779300022 L1.1253034050400146 0.3857232249300395 L1.1355537230399904 0.4297597849299777 L1.1359487510400044 0.4314568689299776 L1.1488678590400099 0.4407069499299823 L1.1756879270400162 0.43486751193000117 L1.1992007040400807 0.43440242492999204 L1.2456061400400102 0.4531609699300745 L1.267930359039994 0.449440266930047 L1.2783689980400226 0.43517757192997664 L1.276818705039986 0.40716894492998534 L1.2906163130400472 0.3988490389300168 L1.308186300039992 0.39409480693003474 L1.3179014690400521 0.3876869299299912 L1.3190027230400432 0.3855825539300426 L1.3231207880399865 0.37771337893007484 L1.3270481980400035 0.3622621259299805 L1.3256012570400202 0.3554408359300325 L1.3174363810399967 0.33988622993000916 L1.3180564980399794 0.33254817692999694 L1.3288051960400225 0.3257785639299797 L1.3443598030400352 0.3247967119299844 L1.360637879040027 0.325571857930008 L1.373505310040045 0.3238665359300441 L1.3893699740399796 0.3140996909299858 L1.4011522010400626 0.30040543592996727 L1.4083869020400215 0.28407568293001617 L1.4129344280400886 0.25286311793004046 L1.4254918010400814 0.23451798492995835 L1.4289541220399968 0.22500952093007953 L1.4280239460400566 0.21643123393004515 L1.421616068040052 0.20035986292997876 L1.420117452040003 0.19157486993000106 L1.4191356000400646 0.1565899249299818 L1.422649597040035 0.14072525992997242 L1.4332432650399909 0.12635921192997301 L1.4383592320399856 0.11250992793002723 L1.4359821170400409 0.0966969399300055 L1.4386176150400587 0.08372615593000177 L1.4585130410400637 0.07845515893006194 L1.4772199090400449 0.0851214189299796 L1.5139101770400174 0.11628230793004235 L1.5341673380400351 0.12573909493001878 L1.5604706420400447 0.12925309193004608 L1.5717877810400154 0.12568741892999213 L1.5830532430399984 0.08729182893005571 L1.5879108280400231 0.07907527593001618 L1.5953522340400212 0.07499283793003286 L1.6143691610400168 0.07204728193001841 L1.6278050330400191 0.06667293292996845 L1.633076029039998 0.058197997929958944 L1.6361766150400143 0.04951635693000611 L1.6426878450400153 0.04336686193001782 L1.665115417039985 0.040731363929999986 L1.686819519039986 0.04667415293001653 L1.8084658410400465 0.09473323492999697 L1.8301182650400136 0.0995908199299933 L1.8525975140400277 0.09633520493002123 L1.8738882040400284 0.08946223893004657 L1.8954889520399973 0.08646500593004447 L1.9382770390400168 0.10263972893002205 L1.9725901890400195 0.1002626129300026 L1.9923305860399836 0.10367325793000504 L2.001218933040022 0.10925431293002674 L2.0132078660400765 0.12398209593003884 L2.0201325070400316 0.12935644493000353 L2.02995103004001 0.13080338492999743 L2.0395628460400275 0.12785782793007883 L2.0492780150400876 0.12356868393001008 L2.058734802040007 0.12082983292997795 L2.100954447039996 0.11840104093001713 L2.1243121950400763 0.12041642192996704 L2.139866801039986 0.12754776992999695 L2.1443109740400104 0.14289566992996328 L2.1332005410400683 0.2003081859299627 L2.1360944220400455 0.22681819592997243 L2.1469981480400264 0.24418147693000236 L2.1653432820399843 0.2554469399299464 L2.1914915570400098 0.26361181592996985 L2.2067877800400737 0.2762725419300054 L2.2020852250400793 0.29539282193001526 L2.178675802040047 0.3332716469299939 L2.1798126830400264 0.3468625489299981 L2.186323913040084 0.36789485693000046 L2.1956256710400197 0.3882036939300164 L2.204927429040069 0.3994691569300741 L2.2253396200400033 0.4021563309300049 L2.243271341040085 0.3961618649300007 L2.2617715050400165 0.39321630792999684 L2.306833353040062 0.4179693189299982 L2.3270905150400694 0.4207081709300482 L2.3476060590400465 0.42081152293007307 L2.3699819540400853 0.4258241369299398 L2.3782501830400378 0.43192195593001514 L2.390187439039991 0.44840673792997876 L2.398403991040013 0.45419449793003963 L2.414837097039978 0.4564682609300732 L2.4302366740400743 0.4544012039300114 L2.445532898040014 0.4545045569299404 L2.4608807980400087 0.4630311679300618 L2.4739549360400446 0.47796565693001725 L2.490026306040008 0.4918666169299897 L2.508164734040051 0.503545490929973 L2.52692327804003 0.5121237789299968 L2.5753440960399843 0.5252495929299741 L2.5929140820399965 0.5343963209300497 L2.6696019080400077 0.6178020829300053 L2.6869651890400377 0.628602457930036 L2.6975071820399847 0.6282923979300605 L2.718074402040074 0.6226079919300034 L2.728409688040003 0.6232281079299966 L2.740088562039986 0.6298943679299995 L2.7402952680400148 0.6380592449300124 L2.7357477420400045 0.6479294429299998 L2.7328538620400167 0.6599183759299692 L2.742052266039977 0.6768940829300547 L2.8026170450399803 0.7183127439300208 L2.821220561040022 0.7434791659300615 L2.8321759640399904 0.7525225419299986 L2.844164897040045 0.7581294349300194 L2.8562571820400393 0.761669269929989 L2.8666441450400697 0.7675087079299985 L2.873465434040085 0.7796785069299901 L2.8876764530399868 0.7978427729300321 L2.908553731040044 0.7914348949299992 L2.9311880090399853 0.7765262449300323 L2.9508250530400204 0.7692140299300476 L2.960230163040066 0.7730122469300724 L2.974802917040037 0.7879725749300448 L2.9830194700399915 0.7934502759300344 L2.99319972704005 0.7946905099299713 L3.015420593039991 0.7917449539299852 L3.0269961140400454 0.7936053059299795 L3.083995219040034 0.8371685379300047 L3.092005065040084 0.847348794929978 L3.1055959670400597 0.8715850419300679 L3.116034607040021 0.8788455809299407 L3.1306590370399903 0.8779929189299978 L3.1366535030399945 0.8672442209299831 L3.1395473840400854 0.8532140709299867 L3.1444566440400052 0.8424912099300386 L3.1513812860400066 0.8399590659299676 L3.177787943040002 0.8342229819300186 L3.2011456910400256 0.8320008949300117 L3.213186299040089 0.8324659829300387 L3.224658468040033 0.836367553929982 L3.2383527220400623 0.8455401199299999 L3.241970073040008 0.8507336019300098 L3.2455874230400212 0.863988605930011 L3.2482745970400373 0.8685361319300213 L3.25602606204005 0.8727219229299621 L3.2729759310400226 0.8778120519299577 L3.280417338040067 0.8816877849300155 L3.303671733039991 0.9024358719299457 L3.311939962040057 0.9155875239300073 L3.314420431040034 0.9305478509299903 L3.311009786040003 0.9388677569300441 L3.3051186720399954 0.9443454579300337 L3.299847677040063 0.9510633949299674 L3.298297383040037 0.9628972979299633 L3.315040547040084 0.9846272379299918 L3.379067647040003 0.9726124669300233 L3.4063011270400665 0.9969003909300156 L3.408884948039983 1.0148837879300103 L3.4063011270400665 1.0296632489299995 L3.408109802040073 1.0422722979300474 L3.4383405150399966 1.0641314289299757 L3.4405109250400727 1.0751901849300722 L3.43937404303999 1.0874116619300125 L3.4442316280400718 1.1013901359300107 L3.4561172070400374 1.1111569819299731 L3.468881286040002 1.116738035929977 L3.479268250040022 1.124179442929993 L3.4883116250400548 1.1523947749300518 L3.499318705040068 1.1608697099300613 L3.5269139200400303 1.1707140699300211 L3.544483907040032 1.1814886069299675 L3.554095724040039 1.196603962929963 L3.563604186040024 1.2341468909299849 L3.56567124403999 1.2558251539300542 L3.5681517130400238 1.2659278969300019 L3.5748179720400657 1.2740410969299987 L3.5870652870399766 1.278407754930008 L3.6124900920399767 1.2814049889299994 L3.623135437039977 1.2892339669300483 L3.634917664040003 1.2954868159300403 L3.6755353390400245 1.302178913929957 L3.6903664750400793 1.3028765459300402 L3.7060924660399763 1.2972219839299939 L3.707109639040013 1.296856240930019 L3.714499370040002 1.2828260899300048 L3.7188401890399945 1.2653077789299445 L3.726178243039996 1.2488746739299685 L3.746590434040044 1.2314597169299404 L3.770826680040031 1.2240441479300372 L3.796458191040003 1.2231656489299993 L3.8217279660400294 1.2253877349299884 L3.844310567039983 1.2228814279300124 L3.888959004040018 1.2036319579299786 L3.9127301630399955 1.1974307859300026 L3.919964864040068 1.1942010089300297 L3.92849147603998 1.1808684889299954 L3.9345376180399825 1.1756233309300725 L3.965491801039988 1.168233601930062 L3.9842503450400244 1.1658564859300142 L3.9966526900400794 1.1658048089299982 L4.009055033040042 1.1685953369300464 L4.018356791039977 1.172936156930028 L4.024351258040028 1.1806101069300254 L4.026935079040001 1.1938909499300436 L4.039337423040067 1.188103189930068 L4.051998148039999 1.1851059569299522 L4.063625346039984 1.187431395929984 L4.072617045040019 1.197870035930002 L4.086311299040048 1.210013996930023 L4.104139669040009 1.2072751459299624 L4.123156596040062 1.2006605629299756 L4.14082993504006 1.2010222979300735 L4.150235046040038 1.2106341139299772 L4.156436218040014 1.2377125649300282 L4.163464213040001 1.2485387769299834 L4.177106791040032 1.251380980929973 L4.193074809040056 1.2493655999299946 L4.206562358039989 1.2509934079300464 L4.2127635300400215 1.2651010739299906 L4.206303975040029 1.281689207929979 L4.1928164260399825 1.2973730049300443 L4.183359639040006 1.3138319499300266 L4.1890957230399835 1.3329780669300177 L4.211213237039985 1.3521500239300437 L4.217311056040032 1.3591780189299456 L4.220825053040002 1.368712319930033 L4.226561137040036 1.4002349449300127 L4.249298767040031 1.4123272299299785 L4.271674662040013 1.418735106930022 L4.282526713040042 1.4316542159300454 L4.257825378040067 1.516972004930004 L4.276390587040041 1.5435202529300724 L4.286247416039984 1.557615518929957 L4.337097026039984 1.5838929849299959 L4.405103210040053 1.5963470049299744 L4.417402202040009 1.600894530930013 L4.4276858120399964 1.6088010249300666 L4.444170593040084 1.6332956539300127 L4.46540960704003 1.6493670249300791 L4.473832865040023 1.6584620759300535 L4.488922384040038 1.7042990719300164 L4.501944845040086 1.7237552489300114 L4.526852885040043 1.7303439939299992 L4.549693868040023 1.7297755529300431 L4.566747090039982 1.736235106929989 L4.583076843040018 1.7449425859300547 L4.602920593040025 1.7512471099299702 L4.658317728040046 1.7594378249300107 L4.667309428040014 1.7639853519300388 L4.676921244040031 1.7815553379299942 L4.6837425330399896 1.7888417149299798 L4.703379578040014 1.7952495929300127 L4.722241475040036 1.7986860759299574 L4.73407537804006 1.80687678992998 L4.728856058040023 1.8532305499299966 L4.741930196040002 1.8614987789300343 L4.787715515040006 1.8634624839299576 L4.806732442040001 1.872221637930032 L4.832880717040084 1.898731648929946 L4.85024399804 1.9110048009299803 L4.863059753040076 1.9156556799300333 L4.875048686040017 1.9171026199300272 L4.930394144039994 1.9140020349300002 L4.942538106039976 1.915862385930005 L4.958971212040055 1.9206166169299976 L4.969823263040084 1.9219602049299667 L4.979590108040028 1.9191696779299932 L4.987548279040013 1.9128651529299745 L5.000053975040018 1.8893523759299953 L5.006048441040022 1.8833320719299635 L5.035865743040048 1.86904353792999 L5.045167501039984 1.8668214519299724 L5.053590759039977 1.8632041009299982 L5.0602570190400655 1.8550909019299908 L5.069868836040072 1.8377792969300728 L5.076380066040073 1.8292268469299628 L5.083201355040089 1.823568277930029 L5.106042338040012 1.8189432369300604 L5.126144470039989 1.825971230929973 L5.16298976604007 1.8488122149299713 L5.212082377040005 1.8626356599300422 L5.219110371040003 1.8744437259300284 L5.208051615040048 1.924492349930027 L5.204847677039979 1.9327347409299804 L5.198749858039989 1.941803954929945 L5.1914634810400315 1.9467132159299965 L5.174255228040053 1.9530435789300142 L5.168312439040037 1.9603041179299723 L5.1667621450400105 1.9661435539300598 L5.166658793040071 1.9849020989299717 L5.160560974040024 1.9983379719300203 L5.134774434040011 2.012109740929951 L5.128676615040078 2.021954101930014 L5.1367898150399895 2.076627766929981 L5.1367898150399895 2.096109781929975 L5.132967179040051 2.1259335539299897 L5.131312113039982 2.138846190929989 L5.13849513804 2.1535222979299746 L5.160509298040026 2.165382038929998 L5.185262309040056 2.165666258929967 L5.205674499040001 2.1567779129300604 L5.224691426040053 2.1533155929300207 L5.256834168040072 2.1793605139299856 L5.27502427204 2.1859492589299734 L5.294506286040004 2.189721637929999 L5.31068101004 2.190703490929984 L5.324220235039988 2.187809609929978 L5.3521255090400786 2.1765699869300406 L5.36370102904003 2.1748646639299736 L5.376826843040007 2.1802390129299383 L5.385921895040028 2.188946491930004 L5.396463887040042 2.19638789893002 L5.413672139040088 2.1979640299300556 L5.428916687040029 2.191659504930037 L5.452481140040035 2.168844359930027 L5.466330424039981 2.161196247929972 L5.482660177040017 2.1605761309299893 L5.497749694040053 2.1654853919300123 L5.5267918500400555 2.1785336909300597 L5.548650980039994 2.175019693930004 L5.571750346040048 2.174709634930018 L5.59479803504 2.1772417799300214 L5.616398783040083 2.1822543949299913 L5.636604268039989 2.19445003293 L5.650040140039991 2.2068006989300315 L5.662907572039998 2.206490640929978 L5.690192729040049 2.169748696929979 L5.698047547040048 2.163935098930004 L5.719234883040016 2.1570879709299433 L5.726159526040007 2.1512485349300547 L5.7272964070399865 2.14251521792999 L5.727089702040061 2.132903400929983 L5.730241964040019 2.124738524930045 L5.744039571039977 2.122413085930013 L5.749103861040041 2.14419470193004 L5.750860860039992 2.1885330809300783 L5.766673848039986 2.2142679439299897 L5.785587422040052 2.2361012359300148 L5.807704936040054 2.25439469293007 L5.833853210039976 2.2695358879299974 L5.87798488404006 2.287157551930072 L5.89937892703999 2.298707233930024 L5.914468445040072 2.3142876789299507 L5.918137472040073 2.324700478930076 L5.92284002704001 2.346714639929978 L5.940203308039983 2.3673593749299684 L5.942167012040088 2.376738646930015 L5.940926778040065 2.3863763019300492 L5.9415468960400375 2.398442748930016 L5.9494017130400465 2.42161962893001 L5.960047058040047 2.4352105299299964 L5.995083679040064 2.46290909793003 L6.0076927280399985 2.481409260929972 L6.00738267004003 2.5007620849300096 L6.0029384960400165 2.5208383779299695 L6.002318380040023 2.5414055979300585 L6.0137905470400455 2.5662619629300067 L6.0313605350400366 2.572463134930011 L6.077559265039994 2.5677089029300006 L6.102518982040053 2.5700860189300485 L6.105699771039994 2.569622486930079 L6.11280259204004 2.5685874019300385 L6.1267552280400395 2.5628513179300043 L6.15827785204003 2.5347910149300716 L6.163962260040066 2.530837767929988 L6.16334214203998 2.5203732899299425 L6.15827785204003 2.5133969719299714 L6.151663269039986 2.507402505930024 L6.146702332040078 2.4997802329299574 L6.146185567040035 2.488747313929956 L6.149131124040011 2.480117349930019 L6.149234476040064 2.472004149929994 L6.140501160039989 2.46290909793003 L6.140501160039989 2.462754068929989 L6.14039780604007 2.462754068929989 L6.130269226039999 2.456501219929997 L6.128718933040076 2.4506876219300224 L6.130630961040012 2.4443055819299886 L6.130630961040012 2.4359856769300094 L6.135023458039981 2.419087482930017 L6.135798604040005 2.413764810929983 L6.132646342040047 2.4059358319299733 L6.121277527040078 2.3909238279299743 L6.119830586039981 2.3808727619300427 L6.207060405040053 2.301110187930071 L6.227110860039986 2.304624185930031 L6.23713608804006 2.324106200930025 L6.238272970040029 2.348936726929985 L6.2318650920400245 2.3688838299299775 L6.223338481039988 2.3858078609299795 L6.225560567040006 2.395187133930044 L6.232950297040006 2.4027577309299986 L6.2402366740400765 2.4140231929300384 L6.247109639040033 2.4430653479300517 L6.254137634040077 2.4550542799300032 L6.268865417039976 2.46265071593006 L6.269020447040006 2.462702392929991 L6.269485534040015 2.46290909793003 L6.28963934303998 2.468076740930023 L6.310103210040083 2.469988768930044 L6.32917181304002 2.4739420159300423 L6.3457599490400725 2.485259154930013 L6.369324401039975 2.51184667893002 L6.378832865040053 2.5179444979299817 L6.388651387039985 2.5195981439300326 L6.396712911040012 2.5167042639300448 L6.4047744350399824 2.512828530929987 L6.414076192039985 2.5115366209299665 L6.423067891040077 2.5156707349299765 L6.456812601040028 2.5406304519299496 L6.476397969040065 2.5477101239300666 L6.489937194039996 2.5467799479300126 L6.526575785039981 2.530036783930079 L6.5480215040400225 2.5197531739299777 L6.56156073004 2.505206257930034 L6.567864412040009 2.486203358930048 L6.567555196040004 2.46290909793003 L6.567296814040034 2.445390787930073 L6.573394633040081 2.4339186189300435 L6.582024597040046 2.423945067930042 L6.589466003039988 2.410457518929995 L6.5918431190400355 2.3954713529300236 L6.592359883039975 2.3794258209300594 L6.5952537640400095 2.364620522930032 L6.604658874039998 2.353484252929995 L6.620626892040022 2.3510296219300457 L6.634217794039998 2.3596079099299843 L6.647963724040082 2.371131753929994 L6.663414978040052 2.377358764929987 L6.678246114039993 2.374154825930013 L6.700570333039977 2.356455647929998 L6.713076029040039 2.3507970779299896 L6.7311627800399805 2.351908121930073 L6.750748148040074 2.3588844399300726 L6.768783224040007 2.369374754930014 L6.782839213039992 2.3807177329300018 L6.787076681039977 2.392784178929979 L6.783304301040047 2.422678995929992 L6.790900736040086 2.4361407059300504 L6.821079773040012 2.4455458159300107 L6.8915664260400575 2.4428586419299947 L6.919264994040063 2.462754068929989 L6.919264994040063 2.46290909793003 L6.927998311040071 2.486990315930079 L6.944173035040066 2.503449258930054 L6.965825459040033 2.5125184729300187 L6.991456970040005 2.514533853930054 L7.0213259480400865 2.510193033930072 L7.03319274803998 2.50696115393 L7.039826111040028 2.505154580930018 L7.056775981040047 2.50613643293007 L7.081632344040074 2.5195464679300343 L7.113103292040066 2.5492087399299734 L7.167621928040077 2.6130549719300333 L7.206896016040034 2.6318393549300296 L7.233095967040057 2.6331312659299826 L7.283997253039999 2.627911945930059 L7.341616475040027 2.641554523929976 L7.365025899039992 2.629048827929971 L7.386936706040032 2.6112721349300543 L7.4149453320400625 2.602383788930034 L7.436442728039978 2.6082232249300077 L7.431791849040039 2.621814126930012 L7.4202163290400875 2.638557290930059 L7.4202163290400875 2.6536984859300716 L7.437889668040086 2.6532333979300446 L7.526669779040034 2.630935016930003 L7.565633809040079 2.622434244929984 L7.5826870320400275 2.620832274930045 L7.602427429039992 2.6257415359299827 L7.607078308040045 2.6305474439300767 L7.610902364040086 2.638557290930059 L7.616173360040008 2.646773843929985 L7.6244415890400745 2.6526132809299767 L7.641081400040079 2.6530266919299876 L7.672190613040058 2.638092202930032 L7.68717677804004 2.6339839269300214 L7.711051290040004 2.6377563069300365 L7.729628902040062 2.6442845369299945 L7.751565613040029 2.6519931639300225 L7.77792059303998 2.64987442993003 L7.80747951203999 2.637265379930021 L7.830940612040067 2.618196776930027 L7.84975083404008 2.5941672359299943 L7.865253764039991 2.5666753739300177 L7.876984314040087 2.551069091929996 L7.887784689040004 2.5493120919299983 L7.90721502704001 2.559027261930048 L7.98565985104004 2.5623345529300465 L7.996305196040041 2.5653317869300665 L8.017492533040055 2.574891926929972 L8.029533142040052 2.577114013929979 L8.042917338039999 2.574995278929997 L8.069220642040008 2.5654868159299937 L8.081054545040033 2.564298257929998 L8.10389552804007 2.5711195479300315 L8.146838643040027 2.59230688393 L8.169317891039995 2.596751057930014 Z" fill="black" stroke="black" stroke-width="0.5" vector-effect="non-scaling-stroke"/></svg>