<svg xmlns="http://www.w3.org/2000/svg" viewBox="0 0 77.12821226351997 42.36677246165995"><path d="M76.36813811076001 0.7284301763299723 L76.37101979075999 0.756828416329931 L76.37205331975997 0.7728739483299805 L76.36895273376004 0.7884543923299177 L76.36213144475997 0.8056626453300098 L76.34797210176004 0.8276768043299896 L76.34549163376005 0.8357383283299598 L76.34621510376004 0.8477014223299406 L76.35003915976 0.8540576233299575 L76.35489674376001 0.8592769423299771 L76.35861744676001 0.868010260329946 L76.36791920576005 0.93960795732999 L76.36636891276004 0.9754455633299344 L76.35717050776003 1.007329922329994 L76.33546640576003 1.0408162493299002 L76.25340423176004 1.1190285303300342 L76.24569817876005 1.1321355013299623 L76.23552418575997 1.149440111329902 L76.22684254476002 1.1828747623299805 L76.21754078676 1.2908268293300225 L76.21020273375998 1.3260701563299833 L76.19201262975997 1.347464199329913 L76.15635589075998 1.3406687483299535 L76.14126637276007 1.3367930153300094 L76.09196705675998 1.3412630273300223 L76.03894703675996 1.3314961813299746 L75.94406910676 1.3324263573300286 L75.91058277975998 1.338756720329961 L75.89263056876001 1.3466930713299732 L75.87533945176 1.3543371643299835 L75.88371103475998 1.3648016413300113 L75.88174733076005 1.373767503329951 L75.87719980376002 1.3820615703300163 L75.87750986276001 1.3903814763299849 L75.88453785776002 1.3968151913300275 L75.91730071576 1.4137392233299337 L75.86180022676004 1.4308699603299644 L75.84526376876005 1.431774298329934 L75.85756275976007 1.4474580953299707 L75.86107675676004 1.4653123023300267 L75.86252369776003 1.482933966330016 L75.86862151676007 1.497842616329983 L75.88836191376004 1.5118986063299857 L75.91471689376002 1.5197792623299264 L75.99388518876003 1.5266263903299873 L76.04556161976006 1.5387186753299815 L76.07377695276003 1.5415350403300394 L76.10002858076007 1.5404756733299436 L76.12503997275996 1.5359798243300347 L76.13434173076007 1.5306054753299847 L76.14054290275996 1.5238875383299373 L76.14684742776006 1.5220788633299591 L76.20772226476001 1.5826694803299333 L76.22177825476004 1.6083785063300056 L76.21330331976003 1.64483622833 L76.19325286376 1.6734132953299863 L76.18601816376002 1.688502814329972 L76.18539804576005 1.7068221093299414 L76.19428639275998 1.7281903143299573 L76.20014757176 1.7348293663300396 L76.20265797475994 1.7376729393299328 L76.19986744675998 1.7428147443299267 L76.15542571576 1.7594545553299596 L76.14467701775999 1.7671801823299447 L76.12121591676001 1.7906412823300215 L76.10126881476 1.8015450093299918 L76.05837737576005 1.8131205303299325 L76.03894703675996 1.8256520653299546 L76.01682952476006 1.8534539863300026 L76.00422047476002 1.8605594953300155 L75.94512310376007 1.8646595513299857 L75.93941822776003 1.8650553443300382 L75.92339853476005 1.870584723329948 L75.90644866475998 1.8814626123300044 L75.90117766876003 1.8871470203299552 L75.89301279276 1.8998852603300165 L75.88495126876003 1.906163946329933 L75.87296233676005 1.909884649329932 L75.86242034476001 1.910349737329959 L75.85342864476004 1.9129852353299768 L75.84650400276007 1.9233980373299957 L75.84857106076004 1.938642584330033 L75.86448740176004 1.9455930653300229 L75.88639820876003 1.9495979883299341 L75.95171721975996 1.9721805883299552 L75.97755543576 1.9890787823300329 L75.98272307875999 1.9939105283299554 L75.98520354675998 2.000654302329984 L75.98427337176 2.0128757793300096 L75.97920908076003 2.0159246883300384 L75.97156096976005 2.0167515113299643 L75.96339609276004 2.0223067283299585 L75.94055510976003 2.047938238330026 L75.91730071576 2.0651206523299876 L75.89022226575997 2.0741898663299807 L75.80170053676 2.075946864329943 L75.70217172776006 2.097030849329961 L75.65297576376 2.120440273329926 L75.63643930676 2.1250911523300076 L75.61607879176006 2.1250911523300076 L75.55200001575997 2.1133347643299984 L75.56016489175997 2.135891526329935 L75.55603077776004 2.1458650783299547 L75.51851368776005 2.1523504703298997 L75.51551645375994 2.136770025329973 L75.49929005476002 2.1309047503299823 L75.46094614176002 2.1272874003299975 L75.45639861576007 2.123850918329957 L75.44533985876006 2.1115519263299163 L75.43820851175994 2.1072627823299612 L75.42994028176 2.1066426663299964 L75.39872771776001 2.1109059713299345 L75.36493133076002 2.1023018453299116 L75.33278858975999 2.086152960329933 L75.30054249576003 2.0767220123299452 L75.26653940376008 2.088142503329969 L75.27894174675998 2.093981940329961 L75.31625213176 2.1182698633299353 L75.32968800376005 2.1313956773299125 L75.31356495675999 2.1289152083299356 L75.29000050375998 2.125168666330005 L75.25754770376005 2.119794318329973 L75.21682667575999 2.1265897683299997 L75.20246062775999 2.1313440003299817 L75.18179005475997 2.1408783023299733 L75.16246306976001 2.145994269329968 L75.12163868776003 2.1504901183299054 L75.10499887675999 2.1578023333299754 L75.10158823175999 2.1667165183299275 L75.12432586176004 2.1775427313299573 L75.13765838175999 2.1968955543300055 L75.13590138276001 2.2171010403299007 L75.11960381976004 2.2271638373300036 L75.11368051675996 2.230821132329929 L75.11285369376003 2.2415698303299436 L75.12277556976002 2.2440761373300333 L75.15181772376002 2.2436627263300224 L75.16328989176003 2.2470733713299396 L75.18561411076001 2.2575895253299834 L75.19553598576002 2.263945725330011 L75.18210011376004 2.292264410330027 L75.20504444975998 2.3104545143299546 L75.27274057576 2.328980515329981 L75.26106170176001 2.3513564113299807 L75.25568735276005 2.365644944329965 L75.26002817376002 2.3779180973299887 L75.32658741776001 2.435020554330002 L75.36689503475998 2.4641143863299177 L75.37402638276001 2.4968772443300153 L75.37888396776003 2.515015671329955 L75.37526661676003 2.5348077453300206 L75.36761850576005 2.556072597329994 L75.36627491875998 2.574495245330006 L75.38136443576008 2.5857865453299596 L75.37557667576002 2.594571540329973 L75.37247608975997 2.616482347329928 L75.36710174076 2.6289363673299917 L75.35717986576003 2.6377471993299864 L75.33175506076 2.6488576313299106 L75.32131642175997 2.655291347329971 L75.27005340076005 2.7146417293299905 L75.24896941676002 2.730790614329969 L75.23873748276003 2.7418235333299705 L75.23015919576002 2.7617447983299925 L75.22726531476002 2.7840690163299584 L75.23439666276005 2.802543341329958 L75.25785776376003 2.8107598943299976 L75.30767384375997 2.7892366593299514 L75.33061817976 2.794197597329905 L75.32266000876004 2.797117316329995 L75.29981902676005 2.808873704329976 L75.32079965776003 2.8211985333300262 L75.30591684576001 2.8336267153300057 L75.24896941676002 2.8530828923300007 L75.15646860276007 2.898764858329905 L75.14303273076004 2.908531703329963 L75.12380909776002 2.9339823463299908 L75.11151010675997 2.942508958329988 L75.09311329676007 2.943749193330028 L75.07978077776005 2.9360494043299568 L75.06789519776001 2.9263083963299934 L75.05404591475997 2.9213991353299704 L75.02603728776003 2.930700893329991 L75.03172169476 2.954110317329956 L75.04712127175998 2.982868252329972 L75.04815480076005 3.008086350330011 L75.06179737875996 3.006329352329935 L75.08773894876 2.998216152329938 L75.10127817376 2.9957873593299595 L75.11512745675995 2.9969759183300013 L75.14137908475999 3.002453619329991 L75.17724252876002 2.9997147693300334 L75.17930958675998 3.004934088329968 L75.17321176776002 3.0133573473299506 L75.16938771075999 3.021677252330015 L75.17083465176 3.036094977329917 L75.17341847276 3.044053147329997 L75.18106658476006 3.049375820329935 L75.20463103776007 3.0587292543299824 L75.23729054375997 3.0659122783300106 L75.23532683876002 3.069943040329939 L75.23005584276007 3.075369065329987 L75.22819549076007 3.0819836493299917 L75.23667042576 3.102550869329967 L75.23636036776 3.1105090393299335 L75.23026254876004 3.1207926493299496 L75.21910043876 3.1292675843299307 L75.19656951476 3.1280273493300044 L75.18282358376004 3.1329882883299476 L75.17403858976004 3.143013515329976 L75.17496876576001 3.1516434793300263 L75.17713917576 3.1608418843300043 L75.17186817975997 3.1727274643299594 L75.15750213176005 3.181254075329967 L75.14230926076004 3.1788252833300064 L75.14654672775998 3.1916410383299976 L75.15419483976007 3.2000126203299644 L75.16411671475998 3.204405117329962 L75.17062794476004 3.210502936330009 L75.16845753576004 3.2235253973299436 L75.14830372675996 3.2259025133299915 L75.07575001575995 3.2244038963299815 L75.06483496776002 3.2222057263299817 L75.05342579676 3.219908047329959 L74.96671274376004 3.2213033103299367 L74.95648080975997 3.2167557833299085 L74.93601694276 3.2024414123300105 L74.92599171576006 3.2000126203299644 L74.91710336875997 3.2043534403300313 L74.90632438775998 3.2146005643299773 L74.90139373276 3.2192879293299868 L74.89095509376006 3.2206315163299664 L74.88010304276 3.2192362533299885 L74.86191293876004 3.212621669329984 L74.87224822576005 3.1896773333299606 L74.87400522376004 3.1778951073299524 L74.85839894076 3.1749495503299485 L74.83679819276003 3.16838664332996 L74.83097980076002 3.165811071329948 L74.81426726876 3.1584130923299583 L74.79804086776 3.1431685443299315 L74.79587045876002 3.1207926493299496 L74.86801075776 3.069788011329983 L74.87958627875997 3.0668424543299793 L74.89116179976 3.0642069563299614 L74.89591603176001 3.0617781633298975 L74.90883513876 3.04947917232996 L74.92609506776 3.02622477832994 L74.93756723576001 3.0140291403299315 L74.92785206676007 3.0103601133299307 L74.91824024976006 3.010205084329975 L74.89591603176001 3.0140291403299315 L74.93529347276001 2.9742899633299302 L74.95110646076 2.9498986873299984 L74.93756723576001 2.938271490329946 L74.93994435176006 2.925016485329955 L74.94500864176004 2.915327154330008 L74.95317351775995 2.9121490543299373 L74.96485239176002 2.9184535783299665 L74.97239715076006 2.9119681873299825 L74.97787485376006 2.90486267732998 L74.98531625976 2.891142584329934 L74.98252573176003 2.8871118233299384 L74.98097543876 2.8840629133300055 L74.97849496976002 2.8768282133299508 L74.98945037376001 2.877577521329947 L75.00019907176002 2.876543992329964 L75.01032765176006 2.8739601703299726 L75.01952605775998 2.8700585993299157 L74.99678842675999 2.8547106993299494 L74.99999236575997 2.843290208330039 L75.01404835576 2.834531053329947 L75.01156788676002 2.8297251443299487 L75.00267954076 2.816986904330001 L74.98562631775997 2.8161342433299623 L74.95493051776003 2.8210435043299 L74.94159799676001 2.813989670329981 L74.92072071876004 2.795851243329956 L74.90439096675999 2.7897017473299783 L74.89157521076001 2.7888490863299396 L74.84971730076003 2.7942751123300056 L74.83256072575998 2.794378465329963 L74.82170867476003 2.789495042329939 L74.81209685776003 2.7825445623299387 L74.79855763276004 2.776550096329906 L74.74192026276006 2.7658013983299767 L74.72495401676002 2.7566849193299205 L74.71907927975997 2.7535282453300383 L74.71587534076 2.730790614329969 L74.70874399276005 2.711411953330007 L74.69024383076001 2.6962190813299785 L74.66678273076005 2.686917324329947 L74.64518198176006 2.685367030329921 L74.62544158476001 2.691335659329944 L74.58348032076 2.709913336329997 L74.56260304276003 2.7147450823300048 L74.44426401276007 2.711618658329961 L74.41300335376002 2.716521871329938 L74.40654021776004 2.7175356103299677 L74.38897023075995 2.714719245329995 L74.38845346676001 2.6791141833300216 L74.37088347876005 2.6651098703300065 L74.35238331676001 2.66394715033001 L74.31372934576001 2.666065883329985 L74.29646941676003 2.6600714173299522 L74.29161183176001 2.653534348329991 L74.28137989876001 2.6314685123299952 L74.27610890276 2.6227868713299287 L74.24169239876002 2.598912359329937 L74.23528452075999 2.589197190329905 L74.23879851876003 2.5675447653300054 L74.24996062775998 2.5515509093299826 L74.25347462476003 2.5349110983299497 L74.23383758076 2.5114758363299856 L74.20386525075997 2.499021816330007 L74.20107472276001 2.496644700329959 L74.18567514676002 2.4991251693300214 L74.17968067976 2.505145473329968 L74.17627003576007 2.5144472313299886 L74.16934539276 2.526746222329926 L74.15373911076003 2.542920945329932 L74.13069142175999 2.5624546373300277 L74.10547332276002 2.577828375329993 L74.08387257376006 2.5815490783300206 L74.04521860275997 2.570412807329994 L74.02682179276005 2.5673122213299493 L73.95685190375994 2.565813605329957 L73.93566456576008 2.56007752132998 L73.94134897376003 2.548062750329926 L73.95261443575998 2.547029221329943 L73.99622934475994 2.5597674623299937 L73.98899464376007 2.5423783423299753 L73.99343881776 2.5272371483299523 L73.99963998976006 2.5128969383299804 L73.99746957875999 2.4978074203299556 L73.98713429276006 2.4893324843299567 L73.97039112876001 2.4824336813300008 L73.95220102475997 2.4780928613299054 L73.93773162376004 2.477214362329981 L73.90476206075999 2.4878338683299646 L73.82745411675998 2.54723592733 L73.81711883076 2.552041836329998 L73.80368295876002 2.5552457743299826 L73.78818002876002 2.555891730330039 L73.75624399276003 2.550853277329985 L73.72740854476001 2.554160569329973 L73.71417937776002 2.5533854233299778 L73.69505909776001 2.544807135330039 L73.69691944876001 2.5350402893299915 L73.70539438376002 2.5225862693298993 L73.70673797076 2.505868943329965 L73.69877980076004 2.497523199329997 L73.68617075076 2.496076259330003 L73.65661183176007 2.4991251693300214 L73.60297169475999 2.5114758363299856 L73.55067514576007 2.530570278329968 L73.56276743076006 2.538864345330005 L73.56070037376 2.5459956933299495 L73.55418914376003 2.5537988343299887 L73.55346567276004 2.5639274153299354 L73.56121713876004 2.57291911432997 L73.58364470976005 2.589662278329932 L73.58974252876001 2.599480800329978 L73.58478159075995 2.616714891329984 L73.56576466375998 2.623045254330002 L73.51915252276001 2.6211590633299906 L73.49982553676006 2.617024949329952 L73.46365203376004 2.6047001203300155 L73.45467164176006 2.604505543329985 L73.43461499876003 2.6040727783299573 L73.43063811076001 2.600948080329978 L73.42258146976002 2.589229330329978 L73.41989592376001 2.577022298329986 L73.42038420476001 2.5667277023299917 L73.41843107976001 2.5589558923299833 L73.40825855375999 2.554439291329949 L73.39653980375999 2.563960775329953 L73.37456714676 2.568111166329949 L73.28464201676002 2.5664835613299957 L73.26389006376002 2.5621704103299763 L73.24370777176 2.554439291329949 L73.18869475176001 2.524532064329982 L73.17233732976001 2.5203409833299943 L73.13058928276001 2.5176554363299957 L73.11667326676002 2.5230672203299847 L73.08696949076 2.558182780329993 L73.07565764176002 2.5685180673299683 L73.06027678276001 2.5736450203299697 L73.02430673075997 2.5760864263299723 L73.01144865776001 2.5812133793299736 L73.00070646976002 2.5823933923299833 L72.98996428276001 2.579341634329957 L72.96262053276001 2.5612752283299542 L72.90231779876001 2.5426391603299763 L72.86325529876001 2.5191609703299847 L72.84754891775998 2.518062337329958 L72.80612639176002 2.527746582329975 L72.78358407475997 2.5283976243299904 L72.72694344975997 2.5203409833299943 L72.70895842376001 2.5142374683299877 L72.69374032475997 2.5000773113299957 L72.68039396976002 2.484126791329949 L72.66834969975997 2.4725301113299807 L72.63547209476002 2.454463705329978 L72.62456714676 2.4437215173299833 L72.62057951676002 2.427486166329949 L72.63107756376002 2.418371582329975 L72.73394214676 2.3788208013299723 L73.00241545476001 2.360713705329978 L73.02463225176001 2.362666830329978 L73.03960620976 2.368037923329986 L73.05571949076 2.377355957329975 L73.07004240776001 2.3896443693299503 L73.07931975176001 2.4042114263299723 L73.06882170476001 2.4068562833299794 L73.05181324076 2.4140584313299556 L73.04514006376002 2.4178833013299723 L73.04514006376002 2.4240681973299516 L73.14084318876002 2.430334473329971 L73.18942717376001 2.442622884329957 L73.23068693876002 2.4650838223299516 L73.24387053276001 2.4807088223299516 L73.26356454275998 2.515214030329993 L73.27837574076 2.527746582329975 L73.30230152176 2.532100423329986 L73.35438485575997 2.5275838223299516 L73.37399748576001 2.5339314783299542 L73.39377287676001 2.5299031583299794 L73.42632495976 2.5309204103299763 L73.43739266775998 2.529048666329949 L73.45676115776001 2.5257527673299833 L73.47027027176 2.5029256193299503 L73.46213225176001 2.481319173329986 L73.44129891775998 2.4651652023299917 L73.41330412676001 2.4549519863299807 L73.40402678276001 2.453894043329946 L73.36821949076 2.449865723329971 L73.32687834476002 2.4383911133299776 L73.31149748576001 2.4375773113299957 L73.27984058476 2.439937337329958 L73.26486662676001 2.4383911133299776 L73.24077808476 2.429439291329949 L73.16167652176 2.3831746423299833 L73.21473641775998 2.3674275723299516 L73.24126636576 2.362788900329953 L73.33078459476002 2.3655558273299917 L73.35690764176002 2.3705200203299697 L73.38042652176 2.3829305013299873 L73.38083342376001 2.3831746423299833 L73.37619475176001 2.3643351243299904 L73.36349943876002 2.35676676432994 L73.35967456876 2.3566446943299653 L73.32020516775998 2.3555867513299873 L73.30954436076001 2.353023275329953 L73.29953459476002 2.348750814329982 L73.29155933476 2.3427693693299503 L73.28651376175998 2.3340616863299957 L73.28342131376002 2.3225870773299917 L73.28317717376001 2.3111531583299794 L73.28618824076 2.3026489263299723 L73.29920907475997 2.293819173329986 L73.31646167875999 2.2893025723299516 L73.35047860575997 2.287593587329958 L73.33989917875999 2.280757650329953 L73.31467131376002 2.2695271813299556 L73.24509123576001 2.256262207329975 L73.23068693876002 2.2431599943299503 L73.22433928276001 2.2099568693299503 L73.20749357976001 2.189204916329949 L73.18332365776001 2.175533041329949 L73.15500334476002 2.163448080329978 L73.13612313675998 2.1722371423299833 L73.11073251175998 2.177119955329978 L73.08493498576001 2.17707926432994 L73.06540373576001 2.1804972333299943 L73.06174162676001 2.1845662443299503 L73.05466154876001 2.185380046329989 L73.04514006376002 2.1851765953299847 L73.03586271976002 2.1573852543299736 L73.06491545476001 2.145178223329971 L73.12765959476002 2.133296712329958 L73.13620451676002 2.126094564329982 L73.15573576676002 2.1251586923299683 L73.18918303276001 2.1298787443299503 L73.21701506376002 2.1392374683299877 L73.22116545476001 2.139766439329982 L73.22857105375999 2.1392374683299877 L73.23898771976002 2.1363484703299847 L73.25119475176001 2.1298787443299503 L73.24362639176002 2.1207234703299847 L73.21815438675998 2.09895426432994 L73.21139982976001 2.095536296329989 L73.20562183476 2.0914265953299847 L73.20334318876002 2.085201009329957 L73.20554045476001 2.077388509329957 L73.21017912676001 2.0718953453299847 L73.21481779876001 2.067948405329993 L73.21701506376002 2.0647745773299917 L73.21375985575997 2.0493937183299877 L73.19471688675998 2.0101277673299833 L73.18356779876001 1.9933227543299736 L73.18918303276001 1.9857543953299697 L73.19601896976002 1.9790812183299877 L73.24256844975997 1.9855102543299736 L73.28122404876001 1.981563314329982 L73.31540373576001 1.9678507493299904 L73.45822600176001 1.8605102543299736 L73.58045907475997 1.7499959313299556 L73.68169605375999 1.6370808923299833 L73.74216154876001 1.528194173329986 L73.75086923075997 1.4998738613299807 L73.75086923075997 1.4925089523299917 L73.77048186076001 1.4668741863299957 L73.81288094975997 1.272782389329997 L73.83062183476 1.2232625333299794 L73.83338876175998 1.2081665043299736 L73.84299162676001 1.176875814329982 L73.88522795476001 1.1103474943299503 L73.89491219975997 1.077510580329978 L73.89597014176002 1.0589558923299833 L73.89995777176 1.0351521813299556 L73.90744475176001 1.0145629883299776 L73.91900074076 1.0058553063299556 L73.98052417875999 1.0116333013299723 L73.99045256376002 1.0058553063299556 L73.99793954275998 1.0133015953299847 L73.98296558476 1.0438598633299776 L74.00632170476001 1.0621297203299847 L74.04733732976001 1.0694946293299736 L74.08664396976002 1.067867025329953 L74.10934904876001 1.060054525329953 L74.15182951676002 1.037756348329971 L74.17258146976002 1.0331176763299723 L74.21245777176 1.029943848329971 L74.25168303276001 1.0194458013299723 L74.45301766775998 0.9105183923299833 L74.46774748576001 0.9000203453299847 L74.48630217376001 0.8906209313299556 L74.53244475176001 0.884110514329997 L74.55278980375999 0.876094564329982 L74.57329761576 0.8513956713299891 L74.60064136576 0.7831176763299723 L74.62098641775998 0.7525594083299794 L74.65614266775998 0.727901205329978 L74.67778980375999 0.7164265953299847 L74.71457365776001 0.7068644213299891 L74.73141936076001 0.6954305013299873 L74.74704436076001 0.6817993173299683 L74.76511076676002 0.6706502283299542 L74.78537443876002 0.6663370773299917 L74.83322600176001 0.661494955329978 L74.86813811076001 0.6433878583299943 L75.02829436076001 0.6046508793299736 L75.06434579275998 0.589188639329997 L75.08729501175998 0.5880493173299683 L75.15435230375999 0.5673787443299503 L75.25086923075997 0.5645304363299957 L75.35959318876002 0.5624552413299639 L75.44748381376002 0.5607869473299516 L75.45790048075997 0.562902832329975 L75.47547860575997 0.5723429363299957 L75.48508146976002 0.5744588223299516 L75.49362639176002 0.5727498373299582 L75.51909839676 0.5607869473299516 L75.66794279876001 0.534745280329993 L75.90378264176002 0.512813314329982 L76.00265959476002 0.5228637703299697 L76.02333016775998 0.5285603843299569 L76.04042001175998 0.5391805013299873 L76.07411141775998 0.6216593433299877 L76.07931975176001 0.6229614263299723 L76.10357105375999 0.6333780933299877 L76.10544279876001 0.635860189329982 L76.11024423075997 0.638057455329978 L76.11520842376001 0.6427368173299683 L76.12212574076 0.6473754883299776 L76.15370126175998 0.653682455329978 L76.19357756376002 0.667313639329997 L76.21131844975997 0.663814291329949 L76.21978199076 0.6695922853299763 L76.23182626175998 0.6715047203299847 L76.24362639176002 0.669510905329993 L76.25217131376002 0.663814291329949 L76.25900725176001 0.663814291329949 L76.25900725176001 0.6706502283299542 L76.25103199076 0.6748006193299503 L76.24704436076001 0.6778116863299957 L76.24728850176001 0.6821248373299582 L76.25217131376002 0.6905069993299904 L76.25428719975997 0.7066609703299847 L76.28464201676002 0.7171183273299917 L76.35690764176002 0.7283487963299891 L76.36813811076001 0.7284301763299723 Z M72.52296209376004 2.5982289353299777 L72.68446298075997 2.5655069993299904 L72.69927417875999 2.557857259329957 L72.71489917875999 2.5567179363299957 L72.77821298075997 2.5823933923299833 L72.87570646976002 2.5998494473299516 L72.90777027176 2.617671712329958 L72.92909188675998 2.6233683273299917 L72.96945646976002 2.6233683273299917 L73.00754240776001 2.63020426432994 L73.03171232976001 2.6280069993299904 L73.12936857976001 2.6016805013299873 L73.14279631376002 2.5917928063299556 L73.14816740776001 2.571854655329993 L73.15768889176002 2.562984212329958 L73.17925464676 2.5636352543299736 L73.20261076676002 2.5692504883299776 L73.21701506376002 2.5749471033299542 L73.22360686076001 2.5812133793299736 L73.23483732976001 2.596797689329982 L73.24370777176 2.602901205329978 L73.25485686076001 2.605301921329989 L73.27902678276001 2.6073364263299723 L73.28903654876001 2.6124633793299736 L73.29546558476 2.6140909833299943 L73.33005217376001 2.615881348329971 L73.34722339676 2.5997273763299873 L73.35357105375999 2.5960245773299917 L73.37310230375999 2.597408041329949 L73.39503887476002 2.6054514503300013 L73.39450896676004 2.6096352193299523 L73.38706756076002 2.632915452329989 L73.38148650676001 2.6428631653299917 L73.34210906476002 2.6765820373299434 L73.29249969076002 2.7010508283299757 L73.16857960575996 2.7402215643299357 L73.12300099176 2.7626749733299434 L73.10057342075999 2.7671966613299546 L72.98223439076003 2.7681268373300085 L72.96983204676005 2.764690355329968 L72.95494923476002 2.753579921329951 L72.95329558876006 2.7431412823299226 L72.95494923476002 2.732030849330009 L72.94978159176003 2.7189308733299455 L72.93086801675997 2.71112773233002 L72.80860157875998 2.685625413329994 L72.78307342076002 2.6830157533299754 L72.75837208576002 2.683920090329927 L72.71858123275999 2.689526984329966 L72.70256153976004 2.6901212623299315 L72.68788543175995 2.692420864330039 L72.67693002876007 2.6995005353299675 L72.67506967776006 2.711050217330005 L72.67765349875998 2.723710943329955 L72.67475961875999 2.7331677303299315 L72.62742400676004 2.7378186093299846 L72.59548797176004 2.735467332330039 L72.57234589676 2.728753760330015 L72.56520558276003 2.726682338329958 L72.54091765976003 2.709965013329928 L72.52675831675998 2.684850266329981 L72.52748178576007 2.6615441953299452 L72.53161590075999 2.636739507330013 L72.52296209376004 2.5982289353299777 Z M0.9620101807599895 41.74535725932996 L0.9688868087599758 41.75024007232995 L0.9793441657599828 41.75951741632995 L0.9835352457599811 41.76863199932999 L0.9719792567599939 41.772619629329974 L0.9627019127599965 41.78336181732997 L0.9699447517600106 41.83568929132995 L0.9682357667600172 41.85522054132995 L0.9596094647599784 41.86164957732999 L0.9413802987600093 41.86270752032997 L0.9347071207599811 41.86889241632995 L0.9351954027599731 41.877681478329954 L0.9452051677599798 41.903479004329974 L0.9477279547600119 41.91320393932998 L0.9460189697600185 41.922725423329986 L0.9417058187599991 41.93546142632997 L0.9362533447600185 41.94665120532998 L0.9310043217599855 41.95141194732995 L0.9193262617599771 41.94982503332998 L0.9138737877599965 41.94538981132994 L0.8929183837599908 41.901241048329986 L0.8881576417600172 41.88337809332999 L0.8862858967600005 41.86514892632997 L0.8907211187599842 41.83385823632998 L0.8913314697600185 41.81355387432999 L0.8862858967600005 41.79312744232997 L0.8709864177599798 41.77050374432995 L0.8522689697600185 41.75959879632999 L0.8037663657599978 41.75219319732995 L0.7817123297600119 41.745682780329936 L0.7628321207599811 41.733150228329954 L0.7561589437599991 41.716426595329985 L0.7702377197600185 41.696936035329976 L0.7627914307599895 41.69075113932994 L0.7670638917600172 41.67882893932998 L0.7734929287599925 41.66906331432998 L0.7830957927599798 41.663244629329974 L0.7969304287599925 41.66340738932994 L0.8120671467600005 41.67126058032998 L0.8331039307599895 41.69848225932996 L0.8416488527599881 41.70442301432994 L0.8586980067599939 41.708614095329985 L0.9210352457599811 41.737910970329985 L0.9530176677599798 41.74230550132999 L0.9620101807599895 41.74535725932996 Z M6.176406339759978 36.44783121832999 L6.189750436759994 36.45576910932997 L6.1962935657600156 36.46931521532995 L6.208290690760009 36.47453609032997 L6.228482909759975 36.48806762232997 L6.224643848760024 36.50107745032998 L6.214824281760002 36.50888087932996 L6.1924618977599835 36.50572832232994 L6.178847745759981 36.481319173329986 L6.176406339759978 36.44783121832999 Z M73.21017912676001 2.287593587329958 L73.25192717376001 2.2948364263299723 L73.27088876175998 2.303218587329958 L73.27292326676002 2.3193318693299503 L73.26258798075997 2.32942301432994 L73.24614917875999 2.3365437833299794 L73.22840829275998 2.3408162443299503 L73.15158537676001 2.3501749683299877 L73.13384449076 2.3496053063299556 L73.09665373576001 2.3409790043299736 L73.07508798075997 2.3314575203299697 L73.06548511576 2.317948405329993 L73.05913745976 2.305090332329975 L73.04334969975997 2.297359212329958 L73.00412443876002 2.287593587329958 L72.99745126175998 2.2835652673299833 L72.99118498576001 2.278194173329986 L72.98280282475997 2.273921712329958 L72.96945646976002 2.2733113613299807 L72.94479826676002 2.2916219083299794 L72.93893889176002 2.2950398763299873 L72.89409839676 2.296626791329949 L72.87359058476 2.2928426113299807 L72.86024423075997 2.280757650329953 L72.86301115776001 2.2484090173299833 L72.89938811076001 2.23371988932994 L72.98361662676001 2.226151530329993 L72.98776701676002 2.2252156583299794 L73.00412443876002 2.226151530329993 L73.01730803276001 2.2306274423299683 L73.11317391775998 2.2322957363299807 L73.13530933476 2.2353474943299503 L73.15158537676001 2.2431599943299503 L73.18893889176002 2.2717244473299516 L73.19382170476001 2.2769734703299847 L73.20016936076001 2.282344564329982 L73.21017912676001 2.287593587329958 Z M74.06613615776001 0.862422689329982 L74.06613615776001 0.8686482753299529 L74.08664396976002 0.8686482753299529 L74.07964527176 0.8817504883299776 L74.06662443876002 0.897334798329986 L74.03879240776001 0.9232543953299697 L73.99167326676002 0.9466918953299697 L73.96921232976001 0.9731404623299582 L73.93552092376001 0.9791219083299794 L73.90036467376001 0.9703735353299763 L73.88124032475997 0.9449829103299763 L73.88742521976002 0.918819173329986 L73.90720061076001 0.8892374683299877 L73.93202157475997 0.864986166329949 L73.97922209476002 0.8404500333299794 L74.00282235575997 0.8104614263299723 L74.02788745976 0.7857218433299877 L74.05930021976002 0.7867390953299847 L74.06336923075997 0.7925984703299847 L74.06564787676001 0.797725423329986 L74.06491545476001 0.802486166329949 L74.05930021976002 0.8072469083299794 L74.07346037676001 0.8211222333299943 L74.08371428276001 0.8388631193299503 L74.08347014176002 0.854610189329982 L74.06613615776001 0.862422689329982 Z M74.05246428276001 0.7525594083299794 L74.09478199076 0.7197224943299503 L74.16004891775998 0.6834676113299807 L74.22800139176002 0.6596639003299529 L74.27837574076 0.663814291329949 L74.27837574076 0.6706502283299542 L74.25168303276001 0.6706502283299542 L74.23915048075997 0.6749633793299736 L74.21001636576 0.6816365563299556 L74.13107756376002 0.727901205329978 L74.10926766775998 0.7474731453299697 L74.08371428276001 0.7609822593299569 L74.05246428276001 0.7525594083299794 Z M74.59714201676002 0.5430867513299873 L74.61056975176001 0.5369832363299807 L74.75884449076 0.5198527023299917 L74.73556975176001 0.5391398113299957 L74.70724943876002 0.5450805673299683 L74.64898120976 0.5465047203299847 L74.65093433476 0.549922689329982 L74.65329436076001 0.5572469083299794 L74.65524748576001 0.5607869473299516 L74.64214527176 0.5649373373299582 L74.60055998576001 0.5670125333299794 L74.55604501175998 0.578771973329971 L74.52048186076001 0.5842244473299516 L74.38189136576 0.6207641603299763 L74.35340829275998 0.6203572593299569 L74.34120126175998 0.605220541329949 L74.35243173075997 0.5880086263299873 L74.40597990776001 0.5767374683299877 L74.42372079275998 0.5670125333299794 L74.44650725176001 0.5673787443299503 L74.58078459476002 0.5508992513299873 L74.59714201676002 0.5430867513299873 Z M74.84754891775998 0.5055297853299763 L75.08737639176002 0.499589030329993 L75.12814787676001 0.512365723329971 L75.02918954275998 0.526037598329971 L74.92632495976 0.526037598329971 L74.90060881376002 0.5301066083299943 L74.85251311076001 0.5433308923299833 L74.82712248576001 0.539709473329971 L74.80962574076 0.524776205329978 L74.81548511576 0.5100870773299917 L74.83241219975997 0.5015828453299847 L74.84754891775998 0.5055297853299763 Z M75.38530933476 0.46459554132994896 L75.48434904876001 0.4593058273299917 L75.51226245976 0.46459554132994896 L75.51226245976 0.47143147832995425 L75.49859058476 0.47143147832995425 L75.32671558476 0.5046346033299542 L75.30685881376002 0.5198527023299917 L75.30099943876002 0.5135457363299807 L75.30067391775998 0.5103719083299794 L75.30685881376002 0.5055297853299763 L75.29636076676002 0.49181722032998465 L75.32150725176001 0.47859293632999567 L75.35894214676 0.46858317132998906 L75.38530933476 0.46459554132994896 Z M75.61472014176002 0.41682535832999434 L75.62863615776001 0.415360514329997 L75.68364917875999 0.42984619232996835 L75.67917326676002 0.42968343132995557 L75.67551115776001 0.4309041343299569 L75.67241870976 0.4334676113299807 L75.66997730375999 0.43725179132994896 L75.63425139176002 0.43009033232997496 L75.61659188675998 0.42345784532998465 L75.61472014176002 0.41682535832999434 Z M5.9351140217600005 36.32653401732998 L5.94325204275998 36.33113199932999 L5.949843839759978 36.34423421232996 L5.9440658447600185 36.35522054132995 L5.9351547127599815 36.35876058032998 L5.922215258759991 36.34968668632994 L5.924615975759991 36.33308512432999 L5.9351140217600005 36.32653401732998 Z" fill="black" stroke="black" stroke-width="0.5" vector-effect="non-scaling-stroke"/></svg>