<svg xmlns="http://www.w3.org/2000/svg" viewBox="0 0 7.882592658359897 3.1078955075999843"><path d="M0.4466650861799337 0.4543790687999838 L0.447641648179939 0.4643074547999966 L0.4469092261799972 0.47342203779998115 L0.44446782017999453 0.48204833980001993 L0.43974776817995576 0.48986083980001993 L0.43291183117995047 0.4755379228000045 L0.4179378721799196 0.4804207357999992 L0.40866052817992227 0.4727709958000226 L0.398813523179939 0.4483569338000173 L0.398813523179939 0.4407071937999838 L0.4056494611799337 0.4327319338000173 L0.41126469517999453 0.40896891279998115 L0.41923995617995047 0.40669026680000187 L0.42868006017991434 0.41482828779998115 L0.43665532017999453 0.44217203779998115 L0.4466650861799337 0.4543790687999838 Z M3.9825537581799892 2.9763517247999864 L3.993051805179931 2.993848469800003 L4.006235398179939 3.0049975588000173 L4.016245164179992 3.0189949547999966 L4.0167334451799945 3.0451993818000354 L4.004526414179992 3.0368985997999864 L3.9924821431799558 3.012321776800025 L3.9825537581799892 3.010450032799998 L3.9776709451799945 3.018018391800002 L3.978159226179997 3.03087646480002 L3.9825537581799892 3.055453287799981 L3.9688818831799892 3.077425943799984 L3.9373877421799364 3.07384521480002 L3.8802588361799337 3.052035318799984 L3.8855485491799584 3.027051594800003 L3.8860368311799505 2.968457844800003 L3.8938493311799505 2.9490079747999864 L3.911752976179997 2.9447762047999966 L3.9384456851799143 2.9501472978000045 L3.9649756331799892 2.961703287799981 L3.9825537581799892 2.9763517247999864 Z M3.263315476179997 2.8056160478000045 L3.2763363101799143 2.8018725588000173 L3.2869971171799364 2.802442219800003 L3.2958675601799143 2.80822021480002 L3.3048193831799892 2.8192879228000045 L3.3049821431799558 2.8311694338000173 L3.3021338361799337 2.8380053708000226 L3.297251023179939 2.8388191728000045 L3.290496466179917 2.8323087568000354 L3.282846726179997 2.8381681318000354 L3.2773128721799196 2.8415860997999864 L3.263315476179997 2.8466316728000045 L3.263315476179997 2.8527351888000005 L3.2825212061799505 2.8555834958000226 L3.2804053201799945 2.862582193799984 L3.2696631331799892 2.869092610799999 L3.263315476179997 2.869825032799998 L3.2559912581799892 2.8673022458000226 L3.241831101179997 2.8643725588000173 L3.2323096171799364 2.857373860799999 L3.2392269351799143 2.8432137047999966 L3.246713914179992 2.8314949547999966 L3.2479346171799364 2.82189208980002 L3.2509456851799143 2.8134285478000045 L3.263315476179997 2.8056160478000045 Z M4.599008836179934 1.838575032799998 L4.605763393179956 1.8594897458000226 L4.605275112179953 1.8954597978000045 L4.598032273179939 1.9340340168000019 L4.585336961179934 1.9621101888000005 L4.590626674179958 2.0080900068000354 L4.588348028179922 2.029004719800003 L4.575652716179917 2.037793782799998 L4.563445685179914 2.039746907799998 L4.525766648179939 2.0497566728000045 L4.496958055179931 2.065218912799981 L4.454477586179934 2.0617195638000005 L4.419728237179953 2.0451993818000354 L4.421518601179997 2.0173673497999864 L4.400522508179989 2.008415526800025 L4.3741553201799945 2.002393391800002 L4.347299851179997 2.002149250800006 L4.325164435179914 2.010450032799998 L4.322723028179922 2.00743896480002 L4.320769903179922 2.004102375800006 L4.319305060179914 2.000603026800025 L4.31832849717992 1.9962898758000058 L4.328989305179931 1.9895353187999838 L4.341440476179997 1.9794441728000045 L4.351043341179917 1.9657722978000045 L4.353159226179997 1.9484383138000005 L4.347950893179956 1.9402189127999812 L4.3254899561799505 1.9174324547999966 L4.31832849717992 1.9075040687999838 L4.312387742179936 1.8896004228000045 L4.309458055179931 1.8629890948000032 L4.305470424179958 1.8459806318000354 L4.297657924179958 1.8293790687999838 L4.269988653179922 1.7907234698000032 L4.284555711179934 1.7838061518000252 L4.297495164179992 1.7810392247999864 L4.310353237179953 1.7815275068000354 L4.325164435179914 1.7839689127999812 L4.3507178201799945 1.7953621418000019 L4.3665055811799505 1.799512532799998 L4.383758185179914 1.7849454747999864 L4.449350633179989 1.7423836258000058 L4.451954799179958 1.75548583980002 L4.433481492179936 1.7820157877999812 L4.428191778179922 1.8010587568000354 L4.433481492179936 1.81798583980002 L4.445200242179936 1.8361336258000058 L4.458872117179936 1.8513517247999864 L4.469207403179922 1.8596525068000354 L4.500294643179956 1.8664884437999838 L4.536020555179931 1.8625008138000005 L4.570769903179922 1.8517586258000058 L4.599008836179934 1.838575032799998 Z M2.886525112179953 1.1266609698000032 L2.8945003721799196 1.1257657877999812 L2.9200537581799892 1.1266609698000032 L2.914926805179931 1.1356941728000045 L2.9050797991799584 1.14025146480002 L2.8796891741799584 1.147168782799998 L2.8741553201799945 1.1418790687999838 L2.868946987179953 1.13829833980002 L2.862192430179931 1.1356941728000045 L2.852426805179931 1.133496907799998 L2.859995164179992 1.1286954747999864 L2.8679704241799584 1.1264168297999966 L2.876759487179953 1.1257657877999812 L2.886525112179953 1.1266609698000032 Z M3.8938493311799505 1.4345222978000045 L3.9063818831799892 1.4435555008000058 L3.9210303201799945 1.4576342768000252 L3.9262386531799223 1.4704109698000032 L3.8933610491799584 1.4816414388000005 L3.8868506331799892 1.4958829747999864 L3.8870133931799558 1.5341316728000045 L3.8848975081799892 1.55431396480002 L3.878549851179997 1.5668465168000019 L3.8676449031799223 1.57579833980002 L3.8523454241799584 1.5854012047999966 L3.835418341179917 1.5785652668000019 L3.8126318831799892 1.5785652668000019 L3.792612351179997 1.5709155268000252 L3.7839860491799584 1.5409676107999992 L3.7764990701799945 1.5363289388000005 L3.760141648179939 1.5341316728000045 L3.743621466179917 1.5302254228000045 L3.7362158671799364 1.5204597978000045 L3.7345068831799892 1.5036954747999864 L3.729135789179992 1.4982430008000058 L3.637583055179931 1.488965657799998 L3.6078792781799223 1.4797696937999838 L3.581674851179997 1.4586922198000032 L3.5579932111799337 1.4345222978000045 L3.5554704241799584 1.4275235997999864 L3.5538428201799945 1.4184090168000019 L3.5499365701799945 1.4105965168000019 L3.528940476179997 1.4031095377999812 L3.523081101179997 1.3930183918000019 L3.5235693831799892 1.3798347978000045 L3.530161180179931 1.3663256838000173 L3.490040737179953 1.3321459958000226 L3.4823909971799196 1.3184741208000226 L3.5437516741799584 1.322950032799998 L3.564259487179953 1.3184741208000226 L3.5831396951799945 1.3083015948000032 L3.5950212061799505 1.2968269857999992 L3.6126807111799337 1.2699715168000019 L3.6427100081799892 1.2366056318000354 L3.6524756331799892 1.2167488607999992 L3.646860398179939 1.19493896480002 L3.634409226179997 1.188184407799998 L3.581674851179997 1.1669441728000045 L3.5059912581799892 1.1750008138000005 L3.5040381331799892 1.1653165687999838 L3.5085954241799584 1.1439949547999966 L3.520395555179931 1.1227547198000032 L3.540659226179997 1.1129890948000032 L3.5746761531799223 1.1078621418000019 L3.581674851179997 1.1095711258000058 L3.588510789179992 1.1154305008000058 L3.5958350081799892 1.1184415687999838 L3.6046240701799945 1.1197436518000252 L3.615854539179992 1.119825032799998 L3.625864305179931 1.1168953448000032 L3.633432664179992 1.1093269857999992 L3.638315476179997 1.0993172198000032 L3.6400244611799337 1.0888191728000045 L3.6741227681799558 1.0788907877999812 L3.7493180811799505 1.1182788088000173 L3.7628271951799945 1.119825032799998 L3.7698258931799558 1.1376472978000045 L3.7620133931799558 1.1548999018000252 L3.749480841179917 1.1723152668000019 L3.743051805179931 1.1911954747999864 L3.743784226179997 1.2030769857999992 L3.7498877421799364 1.2291186518000252 L3.7628271951799945 1.2564624018000252 L3.7590837061799505 1.2689949547999966 L3.745900112179953 1.2890144857999992 L3.743051805179931 1.3010587568000354 L3.7462256331799892 1.3085457357999992 L3.7540381331799892 1.3124519857999992 L3.764047898179939 1.3158699547999966 L3.773813523179939 1.3215665687999838 L3.784067430179931 1.3305183918000019 L3.792612351179997 1.3362150068000354 L3.8182471171799364 1.3451668297999966 L3.8299658671799364 1.3463061518000252 L3.8397314921799364 1.3458178708000226 L3.8470557111799337 1.3484220377999812 L3.8523454241799584 1.3594897458000226 L3.8559261531799223 1.3644539388000005 L3.861948289179992 1.3747078448000032 L3.8665869611799337 1.3791837568000354 L3.8554378721799196 1.3966805008000058 L3.851938523179939 1.4062019857999992 L3.8523454241799584 1.4146655268000252 L3.8607275861799337 1.4259773758000058 L3.8713883931799558 1.4299650068000354 L3.8829443831799892 1.43126708980002 L3.8938493311799505 1.4345222978000045 Z M3.0987646951799945 0.8318204747999864 L3.1098324031799223 0.8395515948000032 L3.1348975081799892 0.8524910478000045 L3.1397803201799945 0.8591642247999864 L3.135385789179992 0.8703946937999838 L3.124643601179997 0.8741381838000173 L3.0950212061799505 0.8727547198000032 L3.0823258931799558 0.8760913088000173 L3.072885789179992 0.8839851888000005 L3.067270555179931 0.8941577148000199 L3.065317430179931 0.9039233398000199 L3.0624691221799196 0.9066902668000019 L3.047251023179939 0.9447762047999966 L3.040821987179953 0.9563321937999838 L3.0401709451799945 0.9716316728000045 L3.043588914179992 0.9997078448000032 L3.049204148179939 1.0066251627999812 L3.0624691221799196 1.0069506838000173 L3.091277716179917 1.0031258138000005 L3.0530290181799558 1.07189208980002 L3.036752976179997 1.0919116208000226 L3.021127976179997 1.1018400068000354 L2.9988297991799584 1.1114428708000226 L2.9750667781799223 1.1182788088000173 L2.955454148179939 1.119825032799998 L2.9473975081799892 1.1129890948000032 L2.941212612179953 1.106153157799998 L2.956674851179997 1.1002124018000252 L2.970509487179953 1.0902840168000019 L2.995737351179997 1.0652189127999812 L3.012338914179992 1.0438972978000045 L3.0198258931799558 1.0312019857999992 L3.022918341179917 1.0133797198000032 L3.021127976179997 0.9524259437999838 L3.0264990701799945 0.9382657877999812 L3.0380550601799143 0.9240242508000058 L3.050424851179997 0.9044116208000226 L3.0604346171799364 0.8834969077999979 L3.065317430179931 0.8653491208000226 L3.060922898179939 0.8463875327999979 L3.041879930179931 0.8214851888000005 L3.033009487179953 0.8126961258000058 L3.028777716179917 0.8140795898000199 L3.022918341179917 0.8175789388000005 L3.0252783671799364 0.8087084958000226 L3.0361019351799143 0.7991056318000354 L3.0510758931799558 0.7921883138000005 L3.065317430179931 0.7902351888000005 L3.0775244611799337 0.7961759437999838 L3.0850928201799945 0.8074064127999812 L3.0911963361799337 0.8205086258000058 L3.0987646951799945 0.8318204747999864 Z M3.4959814921799364 2.644239094800003 L3.4932959451799945 2.6534350588000173 L3.4871110491799584 2.654899901800025 L3.4798682111799337 2.6552254228000045 L3.474985398179939 2.6615730797999966 L3.4773454241799584 2.667920735799999 L3.4836930811799505 2.6750008138000005 L3.488657273179939 2.68322021480002 L3.4854834451799945 2.6923347978000045 L3.482065476179997 2.698926594800003 L3.474985398179939 2.723096516800002 L3.467417039179992 2.736524250800006 L3.4622900861799337 2.743441568799984 L3.4549658671799364 2.7510913088000173 L3.4530941221799196 2.746289875800006 L3.450083055179931 2.74181396480002 L3.444223680179931 2.744336750800006 L3.439096726179997 2.7492195638000005 L3.4271338361799337 2.7540209958000226 L3.4223324031799223 2.757520344800003 L3.423471726179997 2.7626472978000045 L3.4277034971799196 2.771436360799999 L3.396127976179997 2.7951993818000354 L3.3772477681799558 2.80236083980002 L3.3525081851799143 2.798780110799999 L3.3731787581799892 2.791781412799981 L3.381235398179939 2.786817219800003 L3.3868506331799892 2.7776212568000354 L3.3713883931799558 2.778028157799998 L3.3646338361799337 2.780062662799981 L3.3568213361799337 2.771680500800006 L3.351368862179953 2.7587410478000045 L3.3431494611799337 2.7444181318000354 L3.3389990701799945 2.740430500800006 L3.3358252421799364 2.7287931318000354 L3.3294775861799337 2.736035969800003 L3.3233740701799945 2.7497892247999864 L3.3215837061799505 2.7572762047999966 L3.313364305179931 2.753207193799984 L3.308074591179917 2.743848469800003 L3.303354539179992 2.732618000800006 L3.2973324031799223 2.723096516800002 L3.3017269351799143 2.7218758138000005 L3.3110042781799223 2.7169116208000226 L3.3018896951799945 2.70470458980002 L3.2929378721799196 2.707634276800025 L3.2862646951799945 2.7209806318000354 L3.2825212061799505 2.7497892247999864 L3.280730841179917 2.7548347978000045 L3.2804053201799945 2.760368651800025 L3.283823289179992 2.771436360799999 L3.286590216179917 2.772738443799984 L3.3048193831799892 2.785108235799999 L3.293833055179931 2.787549641800002 L3.2800797991799584 2.785352375800006 L3.268198289179992 2.781934407799998 L3.263315476179997 2.781446125800006 L3.260629930179931 2.7865730797999966 L3.254282273179939 2.792269693799984 L3.2463883931799558 2.796826985799999 L3.2392269351799143 2.798780110799999 L3.2141618311799505 2.793409016800002 L3.200815476179997 2.7810392247999864 L3.2021175601799143 2.76720458980002 L3.221567430179931 2.7572762047999966 L3.221567430179931 2.7510913088000173 L3.203501023179939 2.7528816728000045 L3.1815283671799364 2.750603026800025 L3.167612351179997 2.741488443799984 L3.1737972471799196 2.723096516800002 L3.1671240701799945 2.7169116208000226 L3.152150112179953 2.7218758138000005 L3.1290381331799892 2.7139819338000173 L3.108042039179992 2.6994962568000354 L3.0987646951799945 2.685498860799999 L3.094370164179992 2.6837084958000226 L3.0715837061799505 2.693067219800003 L3.061167039179992 2.695752766800002 L3.0531917781799223 2.693962401800025 L3.0281266741799584 2.6838712568000354 L3.0195003721799196 2.6786629228000045 L3.016001023179939 2.6688972978000045 L3.0227555811799505 2.6632820638000005 L3.0272314921799364 2.6574226888000005 L3.0160824031799223 2.6474129228000045 L3.0071305811799505 2.6443204747999864 L2.9778337061799505 2.640332844800003 L2.9677425601799143 2.641228026800025 L2.956674851179997 2.65587646480002 L2.949838914179992 2.678174641800002 L2.9399105281799223 2.693962401800025 L2.9200537581799892 2.6889168297999966 L2.9198096171799364 2.69298583980002 L2.9193213361799337 2.6947762047999966 L2.917612351179997 2.6954272458000226 L2.913868862179953 2.695752766800002 L2.921681362179953 2.71447021480002 L2.9114274561799505 2.719190266800002 L2.898243862179953 2.714795735799999 L2.896290737179953 2.7060066728000045 L2.8992204241799584 2.6973803708000226 L2.9008480281799223 2.6719897458000226 L2.9076025861799337 2.6615730797999966 L2.9076025861799337 2.654899901800025 L2.892954148179939 2.6557137047999966 L2.8796891741799584 2.6524584958000226 L2.8682959451799945 2.645134276800025 L2.859181362179953 2.633578287799981 L2.8915706851799143 2.6348803708000226 L2.9056494611799337 2.6311368818000354 L2.913868862179953 2.62072021480002 L2.8958024561799505 2.619743651800025 L2.8897803201799945 2.611035969800003 L2.8933610491799584 2.5790535478000045 L2.883432664179992 2.579785969800003 L2.8617855281799223 2.5764493818000354 L2.852426805179931 2.5790535478000045 L2.849090216179917 2.5849129228000045 L2.8448584451799945 2.60314208980002 L2.8420915181799558 2.60704833980002 L2.8294775861799337 2.6088387047999966 L2.824594773179939 2.613884276800025 L2.8216650861799337 2.621289875800006 L2.814829148179939 2.630567219800003 L2.805551805179931 2.6342293297999966 L2.8009131331799892 2.6281258138000005 L2.802540737179953 2.617383625800006 L2.811411180179931 2.60704833980002 L2.801157273179939 2.60118896480002 L2.7766618311799505 2.5790535478000045 L2.7766618311799505 2.572868651800025 L2.7830908671799364 2.5695320638000005 L2.7864274561799505 2.5658699547999966 L2.7883805811799505 2.560254719800003 L2.789682664179992 2.5517097978000045 L2.7834977681799558 2.5517097978000045 L2.7735693831799892 2.5614754228000045 L2.7474463361799337 2.5561043297999966 L2.7493180811799505 2.5653816728000045 L2.730275112179953 2.5725431318000354 L2.7136735491799584 2.5666837568000354 L2.6977230281799223 2.558545735799999 L2.680307664179992 2.558545735799999 L2.679493862179953 2.539502766800002 L2.6703792781799223 2.5245288088000173 L2.656870164179992 2.514437662799981 L2.6428727681799558 2.5108569338000173 L2.630502976179997 2.504346516800002 L2.6190283671799364 2.493441568799984 L2.6068213361799337 2.4913256838000173 L2.5916846171799364 2.5108569338000173 L2.5808610491799584 2.5048347978000045 L2.5704443831799892 2.4971850588000173 L2.575083055179931 2.4919767247999864 L2.5774430811799505 2.4866056318000354 L2.5780941221799196 2.4794441728000045 L2.5780127421799364 2.469190266800002 L2.5842790181799558 2.469190266800002 L2.592661180179931 2.478223469800003 L2.6036475081799892 2.482618000800006 L2.611948289179992 2.478711750800006 L2.612192430179931 2.4630053708000226 L2.606088914179992 2.453321125800006 L2.586557664179992 2.445264485799999 L2.5780127421799364 2.43517333980002 L2.605275112179953 2.4353360997999864 L2.6165869611799337 2.437451985799999 L2.625864305179931 2.441846516800002 L2.6248877421799364 2.431348469800003 L2.6204932111799337 2.425082193799984 L2.612762091179917 2.4221525068000354 L2.601938523179939 2.42150146480002 L2.5968115701799945 2.415316568799984 L2.5984391741799584 2.402295735799999 L2.6025081851799143 2.390332844800003 L2.6053564921799364 2.387321776800025 L2.597299851179997 2.3650235997999864 L2.584604539179992 2.3555834958000226 L2.5500993311799505 2.345655110799999 L2.537973680179931 2.3526538088000173 L2.5315446431799558 2.349805500800006 L2.532846726179997 2.3415860997999864 L2.543833055179931 2.331983235799999 L2.5333350081799892 2.3272631838000173 L2.526010789179992 2.3197762047999966 L2.5222672991799584 2.3100105797999966 L2.5227555811799505 2.2979663088000173 L2.5071305811799505 2.307406412799981 L2.501433966179917 2.3166837568000354 L2.502329148179939 2.342237141800002 L2.497690476179997 2.348340657799998 L2.4871110491799584 2.348259276800025 L2.4755550601799143 2.346143391800002 L2.4681494611799337 2.345655110799999 L2.4719743311799505 2.3505379228000045 L2.4711605281799223 2.362582193799984 L2.4647314921799364 2.37072021480002 L2.4510596171799364 2.3630704747999864 L2.4366553201799945 2.344434407799998 L2.427540737179953 2.335645344800003 L2.3964534971799196 2.3244962568000354 L2.375864305179931 2.291700032799998 L2.3614600081799892 2.2842944338000173 L2.3546240701799945 2.282504068799984 L2.3470557111799337 2.278109537799981 L2.334360398179939 2.267774250800006 L2.3282568831799892 2.2646004228000045 L2.323129930179931 2.266390787799981 L2.3177588361799337 2.269971516800002 L2.311167039179992 2.271192219800003 L2.282114305179931 2.2707039388000005 L2.2724300601799143 2.265332844800003 L2.270151414179992 2.2501147458000226 L2.2911475081799892 2.2589038088000173 L2.2844743311799505 2.2489754228000045 L2.256479539179992 2.223422037799981 L2.256479539179992 2.215609537799981 L2.2607113101799143 2.206332193799984 L2.2618506331799892 2.19884521480002 L2.252817430179931 2.195508625800006 L2.2423193831799892 2.197868651800025 L2.2381689921799364 2.203890787799981 L2.238657273179939 2.212842610799999 L2.2423193831799892 2.223422037799981 L2.2255550601799143 2.2179695638000005 L2.222137091179917 2.20665771480002 L2.223520555179931 2.191846516800002 L2.221079148179939 2.1755704747999864 L2.212696987179953 2.1654793297999966 L2.2022803201799945 2.157015787799981 L2.1944678201799945 2.1457039388000005 L2.1944678201799945 2.12657958980002 L2.1868994611799337 2.12657958980002 L2.1788428201799945 2.142285969800003 L2.1684261531799223 2.155062662799981 L2.1554053201799945 2.1641772458000226 L2.139292039179992 2.168164875800006 L2.140105841179917 2.1476570638000005 L2.139047898179939 2.1361824547999966 L2.131479539179992 2.1320320638000005 L2.1124365701799945 2.133496907799998 L2.1117855281799223 2.1356941728000045 L2.112192430179931 2.1404142247999864 L2.110971726179997 2.145215657799998 L2.104949591179917 2.1476570638000005 L2.0994971171799364 2.146924641800002 L1.9661149561799505 2.0849129228000045 L1.9354346171799364 2.058545735799999 L1.9473975081799892 2.037793782799998 L1.9473975081799892 2.0303881838000173 L1.933074591179917 2.0352709958000226 L1.924692430179931 2.0326668297999966 L1.926157273179939 2.027295735799999 L1.9405615701799945 2.023633625800006 L1.924692430179931 2.012403157799998 L1.9080908671799364 2.016065266800002 L1.8914079241799584 2.025342610799999 L1.8749691221799196 2.0303881838000173 L1.8575537581799892 2.027295735799999 L1.752329148179939 1.9835131838000173 L1.7385758931799558 1.9729337568000354 L1.7303564921799364 1.9594246418000019 L1.721079148179939 1.9279305008000058 L1.7183936011799972 1.9218269857999992 L1.6995133931799558 1.9197110997999864 L1.6871436011799972 1.9138517247999864 L1.6593115701799945 1.8938321937999838 L1.651254930179931 1.8917976888000005 L1.6422217261799972 1.8915535478000045 L1.6350602681799558 1.8897631838000173 L1.6321305811799505 1.8832527668000019 L1.6185400861799337 1.8689298497999864 L1.6153662581799892 1.8664884437999838 L1.5780941221799196 1.8044767247999864 L1.5763037581799892 1.7951180008000058 L1.579558966179917 1.7901538088000173 L1.5800472471799196 1.7855965168000019 L1.5732113101799143 1.7798999018000252 L1.570688523179939 1.7777840168000019 L1.5637712061799505 1.7779467768000252 L1.5548193831799892 1.7812019857999992 L1.5486344871799531 1.7843758138000005 L1.5494482891799919 1.7839689127999812 L1.5460303201799945 1.7981290687999838 L1.5372412581799892 1.8028491208000226 L1.528208055179931 1.7979663088000173 L1.5234066221799196 1.7839689127999812 L1.5159196431799558 1.7901538088000173 L1.508188523179939 1.7951180008000058 L1.4993994611799337 1.7961759437999838 L1.4881689921799364 1.7907234698000032 L1.5069678201799945 1.7714363607999992 L1.5046891741799584 1.7548347978000045 L1.4890641741799584 1.7458829747999864 L1.4670915181799558 1.7497892247999864 L1.475473680179931 1.7348152668000019 L1.4708350081799892 1.7248055008000058 L1.4470719871799531 1.7087735997999864 L1.4381201641799919 1.72228271480002 L1.4412126121799531 1.7433601888000005 L1.4334814921799364 1.7566251627999812 L1.422739305179931 1.7628100588000173 L1.412973680179931 1.7605314127999812 L1.4049170391799919 1.7530444338000173 L1.399301805179931 1.7423836258000058 L1.4032894351799143 1.7344897458000226 L1.4039404761799972 1.7258634437999838 L1.4071956851799143 1.7172371418000019 L1.412973680179931 1.7087735997999864 L1.4054053201799945 1.7001472978000045 L1.3983252421799364 1.6980314127999812 L1.3907568831799892 1.6969734698000032 L1.3819678201799945 1.6918465168000019 L1.3763525861799337 1.6854988607999992 L1.369516648179939 1.6741056318000354 L1.2957047991799584 1.5900398758000058 L1.2908219871799531 1.5762866208000226 L1.2893571431799558 1.5548836258000058 L1.2900081851799143 1.5391772458000226 L1.2887061011799972 1.5214363607999992 L1.280730841179917 1.5108569338000173 L1.2616064921799364 1.5170418297999966 L1.2628271951799945 1.5040209958000226 L1.2644547991799584 1.5009285478000045 L1.2689307111799337 1.4965340168000019 L1.2689307111799337 1.4890470377999812 L1.2623389141799919 1.488965657799998 L1.2576188621799531 1.4874194338000173 L1.2479346171799364 1.4830249018000252 L1.2537939921799364 1.475293782799998 L1.2525732891799919 1.4711433918000019 L1.2454932111799337 1.4711433918000019 L1.2342627421799364 1.47618896480002 L1.2318213361799337 1.4877449547999966 L1.2205094871799531 1.4892097978000045 L1.211313523179939 1.4815600588000173 L1.2074886531799223 1.4659350588000173 L1.2011409971799196 1.4651212568000354 L1.1888525861799337 1.4669930008000058 L1.1807959451799945 1.4726082357999992 L1.186980841179917 1.4830249018000252 L1.180551805179931 1.4901863607999992 L1.173308966179917 1.4965340168000019 L1.1549170391799919 1.4496590168000019 L1.1422217261799972 1.4304532877999812 L1.1256201641799919 1.4208504228000045 L1.1448258931799558 1.4079109698000032 L1.1361182111799337 1.3993660478000045 L1.1151221171799364 1.3912280268000252 L1.0982764141799919 1.3791837568000354 L1.1140641741799584 1.3778816728000045 L1.1223649561799505 1.3715340168000019 L1.123422898179939 1.3624194338000173 L1.1181331851799143 1.3526538088000173 L1.1057633931799558 1.3458992508000058 L1.0929053201799945 1.3445157877999812 L1.084360398179939 1.3402840168000019 L1.0839534971799196 1.3246590168000019 L1.0777686011799972 1.3246590168000019 L1.0621436011799972 1.3344246418000019 L1.0465186011799972 1.3273445638000005 L1.0225928201799945 1.3048022458000226 L1.012094773179939 1.3020353187999838 L0.9915869611799337 1.301465657799998 L0.9809261531799223 1.2973152668000019 L0.9766943831799892 1.2921069338000173 L0.9641618311799505 1.2699715168000019 L0.9418636531799223 1.2659025068000354 L0.9239600081799892 1.2553230797999966 L0.880340216179917 1.2130053708000226 L0.8504736801799311 1.1941251627999812 L0.8370459451799945 1.1807788088000173 L0.8271175601799143 1.1648282877999812 L0.8336279761799972 1.1640144857999992 L0.8484391741799584 1.1664558918000019 L0.8642269351799143 1.160840657799998 L0.8719580551799311 1.145215657799998 L0.8658545391799919 1.1321134437999838 L0.8512061011799972 1.1231616208000226 L0.8336279761799972 1.119825032799998 L0.818735398179939 1.1090828448000032 L0.7966813621799531 1.0622078448000032 L0.7782894351799143 1.0515470377999812 L0.7481787581799892 0.9826180008000058 L0.742563523179939 0.9862801107999992 L0.7379248511799972 0.9872566728000045 L0.7332861801799311 0.9879077148000199 L0.7276709451799945 0.9894539388000005 L0.7175797991799584 0.9717944338000173 L0.6541032371799531 0.9325691728000045 L0.6389665181799558 0.9107592768000252 L0.6274105281799223 0.8698250327999979 L0.6252946431799558 0.8557462568000354 L0.6202490701799945 0.8393074547999966 L0.6085303201799945 0.8318204747999864 L0.5950212061799505 0.8268562827999979 L0.5849300601799143 0.8175789388000005 L0.5802100081799892 0.7970711258000058 L0.5916846171799364 0.7948738607999992 L0.6185400861799337 0.8039070638000005 L0.6280615701799945 0.7934090168000019 L0.6319678201799945 0.7764819338000173 L0.6321305811799505 0.7458829747999864 L0.6280615701799945 0.7388842768000252 L0.6178076641799919 0.7257820638000005 L0.6053564921799364 0.7133308918000019 L0.5940446431799558 0.7077156577999979 L0.5470068831799892 0.7055183918000019 L0.5352881331799892 0.7008797198000032 L0.5419613101799143 0.6876961258000058 L0.5427751121799531 0.6745939127999812 L0.5364274561799505 0.6679207357999992 L0.5222672991799584 0.6735359698000032 L0.5264990701799945 0.6835457357999992 L0.5208838361799337 0.6947762047999966 L0.5110368311799505 0.7038907877999812 L0.5017594871799531 0.7077156577999979 L0.4869482891799919 0.7038094077999979 L0.48230961717993637 0.6945320638000005 L0.47962407017999453 0.6852547198000032 L0.471079148179939 0.6809415687999838 L0.45634933117995047 0.6710131838000173 L0.4597672991799584 0.6513191728000045 L0.4781592261799972 0.6378100588000173 L0.5086768051799311 0.6461922198000032 L0.517954148179939 0.6343920898000199 L0.514047898179939 0.6222664388000005 L0.4950049301799311 0.5990730797999966 L0.5067236801799311 0.5943530268000252 L0.514047898179939 0.5845874018000252 L0.5152686011799972 0.5717293297999966 L0.5086768051799311 0.5582202148000199 L0.4937842261799972 0.5470711258000058 L0.4818213361799337 0.5491056318000354 L0.46920740317992227 0.5556160478000045 L0.453501023179939 0.5582202148000199 L0.453501023179939 0.5505704747999864 L0.4586279761799972 0.5465828448000032 L0.46188318517991434 0.5421069338000173 L0.46709151817995576 0.5302254228000045 L0.452605841179917 0.5256681318000354 L0.44756026817995576 0.5163907877999812 L0.448699591179917 0.5040209958000226 L0.453501023179939 0.48986083980001993 L0.46123214317995576 0.4909187827999979 L0.47506677817992227 0.48986083980001993 L0.4937842261799972 0.5006030268000252 L0.5133154761799972 0.5160652668000019 L0.5289404761799972 0.5328295898000199 L0.5389502421799364 0.5565926107999992 L0.548308966179917 0.5622078448000032 L0.570688523179939 0.5717293297999966 L0.6445003721799196 0.6540860997999864 L0.6594743311799505 0.6672696937999838 L0.7058610491799584 0.6920906577999979 L0.7258805811799505 0.6954272458000226 L0.7481787581799892 0.6877775068000354 L0.7543636531799223 0.6877775068000354 L0.7674658671799364 0.7155281577999979 L0.7781266741799584 0.7258634437999838 L0.7960303201799945 0.7282234698000032 L0.7869971171799364 0.7159350588000173 L0.7724300601799143 0.6819181318000354 L0.7659196431799558 0.6495288088000173 L0.7680355281799223 0.6417976888000005 L0.7773128721799196 0.6415535478000045 L0.9571631331799892 0.7069832357999992 L0.9890641741799584 0.7333504228000045 L1.0423682111799337 0.7976407877999812 L1.0567725081799892 0.8103360997999864 L1.0767920391799919 0.8238452148000199 L1.0977881331799892 0.8342618818000354 L1.1150407371799531 0.8385750327999979 L1.1461279761799972 0.8653491208000226 L1.1563818831799892 0.8698250327999979 L1.186980841179917 0.8795906577999979 L1.2013037581799892 0.8922859698000032 L1.2292985491799584 0.9275235997999864 L1.2447607891799919 0.9348478187999838 L1.2533057111799337 0.9418465168000019 L1.2893571431799558 0.9894539388000005 L1.3411963361799337 1.0333178708000226 L1.3509619611799337 1.0341316728000045 L1.3813167781799223 1.0518725588000173 L1.3967790181799558 1.0658699547999966 L1.3918962061799505 1.0788907877999812 L1.4094743311799505 1.0904467768000252 L1.450083055179931 1.0920743818000354 L1.4670915181799558 1.106153157799998 L1.4859717261799972 1.1125008138000005 L1.5230811011799972 1.1408211258000058 L1.6287126121799531 1.160840657799998 L1.631723680179931 1.162793782799998 L1.6397803201799945 1.1720711258000058 L1.6456396951799945 1.1750008138000005 L1.6490576641799919 1.1737801107999992 L1.6541032371799531 1.1703621418000019 L1.6601253721799196 1.1672696937999838 L1.6667985491799584 1.1669441728000045 L1.6790869611799337 1.1711759437999838 L1.6835628721799196 1.1747566728000045 L1.6866553201799945 1.1796394857999992 L1.694223680179931 1.1874519857999992 L1.7183936011799972 1.2068204747999864 L1.7259619611799337 1.2200040687999838 L1.7214860491799584 1.2353035478000045 L1.7315771951799945 1.2763191728000045 L1.7419938621799531 1.29064208980002 L1.7571305811799505 1.3009773758000058 L1.7725928201799945 1.3093595377999812 L1.7847998511799972 1.3195320638000005 L1.7898454241799584 1.3351570638000005 L1.7982275861799337 1.3383308918000019 L1.8512061011799972 1.3451668297999966 L1.8692725081799892 1.3507006838000173 L1.8746436011799972 1.3559090168000019 L1.8704118311799505 1.3892749018000252 L1.8640641741799584 1.4118172198000032 L1.8614600081799892 1.4177579747999864 L1.8570654761799972 1.4250008138000005 L1.8586930811799505 1.4315926107999992 L1.8626807111799337 1.4381030268000252 L1.8648779761799972 1.4450203448000032 L1.8682959451799945 1.4621915687999838 L1.8765967261799972 1.4730965168000019 L1.909637091179917 1.4962898758000058 L1.9377946431799558 1.5105314127999812 L1.9508154761799972 1.5204597978000045 L1.963754930179931 1.533887532799998 L1.9713232891799919 1.53673583980002 L1.9972021951799945 1.5382820638000005 L2.004526414179992 1.5414558918000019 L2.006479539179992 1.5479663088000173 L2.002573289179992 1.5587084958000226 L2.008432664179992 1.5564298497999864 L2.0110368311799505 1.5559415687999838 L2.0128271951799945 1.5548836258000058 L2.0164079241799584 1.5512215168000019 L2.0470068831799892 1.5751472978000045 L2.060190476179997 1.5884936518000252 L2.064096726179997 1.5989103187999838 L2.0693050601799143 1.6021655268000252 L2.072071987179953 1.60509521480002 L2.0769547991799584 1.6132332357999992 L2.060190476179997 1.6129890948000032 L2.0448096171799364 1.6090828448000032 L2.0304053201799945 1.602246907799998 L2.0164079241799584 1.5928881838000173 L2.0208024561799505 1.6023282877999812 L2.030161180179931 1.6137215168000019 L2.0421240701799945 1.6229988607999992 L2.0538428201799945 1.6269051107999992 L2.064096726179997 1.6332527668000019 L2.0716650861799337 1.6479012047999966 L2.0780127421799364 1.6640144857999992 L2.084604539179992 1.6747566728000045 L2.107797898179939 1.6843595377999812 L2.1681006331799892 1.6989265948000032 L2.1868994611799337 1.7162605797999966 L2.2159521951799945 1.7090991208000226 L2.242807664179992 1.7229337568000354 L2.2626644351799143 1.7470222978000045 L2.270151414179992 1.7702970377999812 L2.287729539179992 1.7663907877999812 L2.2982275861799337 1.8087898758000058 L2.317840216179917 1.8254728187999838 L2.3074235491799584 1.8056160478000045 L2.306446987179953 1.7981290687999838 L2.311167039179992 1.7907234698000032 L2.3202816221799196 1.7855965168000019 L2.329721726179997 1.7859220377999812 L2.3383480281799223 1.7921883138000005 L2.345183966179917 1.8044767247999864 L2.3507178201799945 1.795606282799998 L2.351938523179939 1.78478271480002 L2.3479508931799558 1.7735522458000226 L2.337696987179953 1.7634610997999864 L2.3556006331799892 1.7678556318000354 L2.3699235491799584 1.78478271480002 L2.404672898179939 1.8454923497999864 L2.4114274561799505 1.8625008138000005 L2.406870164179992 1.8710457357999992 L2.385629930179931 1.8664884437999838 L2.3928727681799558 1.8769051107999992 L2.4338883931799558 1.9005867508000058 L2.4280290181799558 1.90978271480002 L2.4360042781799223 1.9107592768000252 L2.4482113101799143 1.9075040687999838 L2.4544775861799337 1.9040047198000032 L2.4519547991799584 1.8912280268000252 L2.4460954241799584 1.8817879228000045 L2.439259487179953 1.8741381838000173 L2.4338883931799558 1.8664884437999838 L2.425587612179953 1.8425626627999812 L2.423471726179997 1.8241707357999992 L2.4309587061799505 1.8171720377999812 L2.4510596171799364 1.8283211258000058 L2.4818213361799337 1.8596525068000354 L2.4921566221799196 1.8624194338000173 L2.5169775861799337 1.8653491208000226 L2.5261735491799584 1.8699064127999812 L2.5282894351799143 1.8766609698000032 L2.521290737179953 1.8798347978000045 L2.512583055179931 1.8821134437999838 L2.5097347471799196 1.8864265948000032 L2.514047898179939 1.8907397458000226 L2.5208024561799505 1.8926928708000226 L2.5295915181799558 1.8938321937999838 L2.5320329241799584 1.9044116208000226 L2.533823289179992 1.9229663088000173 L2.5364274561799505 1.9347664388000005 L2.5595394351799143 1.9241056318000354 L2.5780127421799364 1.9240242508000058 L2.5946956851799143 1.9327319338000173 L2.646290737179953 1.9763517247999864 L2.6524756331799892 1.9794441728000045 L2.665659226179997 1.9828621418000019 L2.6703792781799223 1.9862801107999992 L2.680307664179992 2.0036954747999864 L2.715463914179992 2.0255053708000226 L2.752573289179992 2.0421883138000005 L2.8319189921799364 2.065707193799984 L2.8319189921799364 2.071973469800003 L2.8040055811799505 2.071973469800003 L2.8040055811799505 2.078809407799998 L2.811167039179992 2.083285318799984 L2.813364305179931 2.0890633138000005 L2.8145850081799892 2.095004068799984 L2.8182471171799364 2.0998868818000354 L2.824838914179992 2.1027351888000005 L2.838510789179992 2.1037931318000354 L2.872853237179953 2.1122566728000045 L2.887094773179939 2.119092610799999 L2.8985693831799892 2.13829833980002 L2.9373877421799364 2.1651538088000173 L2.941782273179939 2.1721525068000354 L2.9452002421799364 2.190218912799981 L2.9513037581799892 2.198926594800003 L2.9573258931799558 2.202832844800003 L2.975229539179992 2.209750162799981 L2.9677425601799143 2.2160164388000005 L2.9906917781799223 2.2346525068000354 L3.034962612179953 2.281690266800002 L3.0540869611799337 2.2911303708000226 L3.0721533671799364 2.304395344800003 L3.0990088361799337 2.3301928708000226 L3.1229346171799364 2.346387532799998 L3.1327816221799196 2.331983235799999 L3.167612351179997 2.354769693799984 L3.1806331851799143 2.359326985799999 L3.1806331851799143 2.36681396480002 L3.1729834451799945 2.371696776800025 L3.1648454241799584 2.375440266800002 L3.156056362179953 2.3781258138000005 L3.1466162581799892 2.3798347978000045 L3.1466162581799892 2.387321776800025 L3.1547542781799223 2.390821125800006 L3.1840511531799223 2.387321776800025 L3.197071987179953 2.389925943799984 L3.207651414179992 2.3948087568000354 L3.2157894351799143 2.3975756838000173 L3.221567430179931 2.3935066728000045 L3.228891648179939 2.4115730797999966 L3.239877976179997 2.4213387047999966 L3.2557471171799364 2.4258959958000226 L3.276987351179997 2.428337401800025 L3.3352555811799505 2.441846516800002 L3.3494971171799364 2.4493334958000226 L3.4003597471799196 2.4866056318000354 L3.409799851179997 2.498812662799981 L3.4208675601799143 2.5176928708000226 L3.4223324031799223 2.525993651800025 L3.4208675601799143 2.5517097978000045 L3.4167985491799584 2.557406412799981 L3.409799851179997 2.5645678708000226 L3.4095557111799337 2.5704272458000226 L3.4242855281799223 2.572868651800025 L3.433074591179917 2.576937662799981 L3.4412939921799364 2.5868660478000045 L3.4549658671799364 2.60704833980002 L3.4903662581799892 2.633578287799981 L3.4959814921799364 2.644239094800003 Z M0.6861670391799919 0.5443855797999966 L0.7017920391799919 0.5650561518000252 L0.6825863101799143 0.5602547198000032 L0.6541846171799364 0.5458504228000045 L0.6307471171799364 0.5300626627999812 L0.6258643051799311 0.5118334958000226 L0.6252946431799558 0.4687019857999992 L0.6321305811799505 0.4687019857999992 L0.6765641741799584 0.5246101888000005 L0.6861670391799919 0.5443855797999966 Z M0.1443376121799531 0.14659912080002258 L0.15540532017999453 0.16425862580000583 L0.15768396617991698 0.17182698579999922 L0.131235398179939 0.1944506838000173 L0.10153162217991962 0.13048583980001993 L0.09762537217991962 0.10835042280000451 L0.09941573717995311 0.06733479780000451 L0.09388188317998925 0.05268636079999922 L0.07728032017999453 0.04292073579999922 L0.08338383617993372 0.030469563800000543 L0.09949711717993637 0.03852620479999658 L0.11121586717993637 0.053011881800035354 L0.13172368017993108 0.10004964180000187 L0.13864099717991962 0.13227620479999658 L0.1443376121799531 0.14659912080002258 Z M7.802152010179981 2.7515191518000286 L7.8053123381799026 2.7530993148 L7.80346881317999 2.7559962818000265 L7.800571846179906 2.7544161187999983 L7.802152010179981 2.7515191518000286 Z" fill="black" stroke="black" stroke-width="0.5" vector-effect="non-scaling-stroke"/></svg>