<svg xmlns="http://www.w3.org/2000/svg" viewBox="0 0 5.0593261719599525 4.4038381710599985"><path d="M2.0336867639800147 3.9932646530300016 L2.0329996749799903 3.9929413160300467 L1.9831136069799555 3.9724335040300414 L1.9637044269799873 3.969463126030055 L1.9496256509799679 3.961894767030051 L1.9417317709799846 3.9441131910300467 L1.9323323569799555 3.9080617590300246 L1.914103189979997 3.8813283610300484 L1.8074137369799956 3.7634084390300497 L1.7986246749799903 3.757182853030022 L1.7939046229799516 3.7550262770300176 L1.7786051429799983 3.7443654700300524 L1.7753092449799652 3.7401336990300162 L1.7405598959799846 3.730490144030048 L1.7250569659799595 3.716167228030022 L1.6914876299799886 3.676046785030044 L1.6648356119799956 3.6624562900300273 L1.630696614979982 3.6268524490300162 L1.5871175129799582 3.6023976970300193 L1.5726725259799679 3.5896210040300414 L1.5687662759799679 3.5815236730300537 L1.5592854819799555 3.551738517030051 L1.5282796229799516 3.5381073320300427 L1.4910481769799873 3.5025441810300233 L1.398966471979989 3.4627899490300162 L1.383341471979989 3.4515187900300273 L1.3700358069799705 3.436178621030015 L1.3588053389799626 3.404684480030019 L1.2390543619799956 3.314718660030044 L1.2198079429799833 3.291037019030048 L1.1930338539799692 3.231792228030022 L1.1822102869799807 3.2227997150300123 L1.172159830979993 3.217510001030055 L1.1457926429799983 3.1913055740300162 L1.1302083339799793 3.1694549880300453 L1.1131998699799652 3.138042228030022 L1.1099446619799807 3.1231496500300207 L1.105061848979986 3.1092336340300246 L1.0935465499799903 3.0976369540300563 L1.0689290369799807 3.078838126030055 L1.0456136069799555 3.0500702230300387 L1.007853189979997 2.9858612380300453 L0.9727376299799886 2.8918670980300387 L0.9628499349799569 2.8767303790300414 L0.9379069009799679 2.8556122150300123 L0.7331949869799956 2.7327687900300273 L0.7203776039799692 2.71730655103004 L0.6640218099799569 2.6854461990300162 L0.6334635419799639 2.6531789470300193 L0.5644124349799569 2.62270205803002 L0.5618489589799793 2.599630769030048 L0.5733235679799833 2.6145233480300387 L0.5929361979799666 2.6273000400300273 L0.6158040369799807 2.6364553140300497 L0.6376139319799705 2.6406057040300563 L0.6127522789799542 2.61379092603004 L0.5999348959799846 2.6036590900300123 L0.5861002609799613 2.599630769030048 L0.5775553389799626 2.593120353030022 L0.5550130209799846 2.551168855030019 L0.5487874349799569 2.551168855030019 L0.5590006509799679 2.5882375400300273 L0.5426839189799608 2.574240144030048 L0.5165608729799516 2.541891512030011 L0.4973551429799983 2.5239064860300484 L0.48494466197998065 2.5188202230300387 L0.42244466197998065 2.471334871030015 L0.4141438799799886 2.462912019030048 L0.4096272789799542 2.4525360430300136 L0.40421549497996523 2.4351613680300286 L0.40140787797999167 2.4405731520300176 L0.3936360679799833 2.4500539470300193 L0.39058430997995686 2.4549774490300162 L0.2805582679799983 2.330343660030044 L0.2676595049799886 2.3041799230300537 L0.2719319659799595 2.308981355030019 L0.27608235697995553 2.3117482820300577 L0.28812662797999167 2.3178517980300537 L0.28812662797999167 2.311626212030026 L0.28336588597996126 2.3099579180300136 L0.2744954429799833 2.3041799230300537 L0.2744954429799833 2.297954337030026 L0.2719319659799595 2.287822501030055 L0.2551676429799983 2.274150626030055 L0.23250325497998858 2.2621877360300484 L0.2124430339799943 2.2569794020300176 L0.2124430339799943 2.2632049880300453 L0.23897298197995553 2.2802948320300427 L0.25288899797995157 2.2929494540300563 L0.2533772789799542 2.3041799230300537 L0.24320475297999167 2.302755769030048 L0.22843424497996523 2.291728751030055 L0.20621744797996655 2.2706512770300176 L0.08890787797999167 2.2017629310300233 L0.06449381497999696 2.180644767030051 L0.04976399797995157 2.1558644930300286 L0.04960123697999563 2.1265676180300286 L0.06840006497999696 2.0918996500300207 L0.09659830697997052 2.0676483480300387 L0.1254475909799595 2.0500702230300387 L0.14664713597996126 2.0278127360300484 L0.15157063797995818 1.9894826570300577 L0.15779622397998594 1.9894826570300577 L0.15498860697995553 2.0109670320300577 L0.15157063797995818 2.0168264070300577 L0.16280110697995553 2.0168264070300577 L0.17635091197998065 2.0185760820300427 L0.187784830979993 2.02199405103004 L0.19258626297995818 2.026714103030022 L0.19730631497999696 2.0296437900300273 L0.22269693997999696 2.0509247150300123 L0.22904459697998902 2.0544647540300414 L0.2471516929799833 2.0782277750300207 L0.25154622397998594 2.0815236730300537 L0.26436360697995553 2.0890920320300577 L0.2676595049799886 2.0918996500300207 L0.26851399797995157 2.0984100660300467 L0.26643880197998726 2.1135060950300524 L0.2676595049799886 2.119853751030055 L0.30037434897998594 2.1517547930300136 L0.34293619797996655 2.1607473060300233 L0.445841471979989 2.154562410030044 L0.445841471979989 2.147116121030015 L0.3937581379799582 2.1484182040300563 L0.3676350909799595 2.145610587030026 L0.35640462297995157 2.1365773840300246 L0.3664957679799983 2.1205861730300537 L0.41483561197999563 2.0969452230300387 L0.42138671897994584 2.0925913810300383 L0.6507684389799664 2.078218625030038 L0.6655737369799937 2.0797689190299646 L0.6885697499799477 2.0935923640300214 L0.700377813979955 2.0943675100300307 L0.705803839980021 2.078063596029997 L0.7266552799799939 2.0680642060299785 L0.7522351149799391 2.052277057029988 L0.763603928979947 2.0402622860300195 L0.7870133529799972 2.0044505180300884 L0.7926977609799479 2.0000838590300045 L0.80742554397996 1.992900836030051 L0.8124898349799281 1.9877590300299683 L0.8151770089799442 1.9779663470299962 L0.8112495999799734 1.974348996030022 L0.8056168689799534 1.9719202040299617 L0.8030847239799783 1.9656156790300425 L0.8117146879800003 1.9130090710300518 L0.8099060119799191 1.9105027640300616 L0.8023612529799635 1.8944313940299988 L0.8005009019799587 1.888617796030024 L0.8022062249800257 1.8859564590300888 L0.8094409249799952 1.8577928030300424 L0.8165722719800357 1.8443827690300107 L0.8246337959799206 1.8345642470300358 L0.8726928779799863 1.7942049540299703 L0.8859220449799778 1.7853166070300457 L0.9019934149800264 1.7807949190300203 L0.9192016669800154 1.782216021030015 L0.9767692119799705 1.809966265030047 L0.9861226469800073 1.8128601460300384 L0.9955794339799553 1.8104313530299887 L1.002707057979947 1.805675331030022 L1.0099454819799831 1.80084537503007 L1.0236397369800017 1.7884688690300177 L1.0313912009799964 1.7753172180300307 L1.0335616119799766 1.7599434790299622 L1.0276188219799707 1.7313147350299882 L1.0255000879800065 1.7252427550300293 L1.018265387980037 1.7125045140300639 L1.011805832979988 1.7068201070300315 L1.0049845449800188 1.7052439760299958 L0.9990417549800128 1.7021950660299776 L0.995217698979971 1.6922215140300576 L0.9967679919799792 1.6779329810299881 L1.0094803939800414 1.6503119280299838 L1.0111340399799786 1.634731483030043 L0.9788362699800217 1.5147646460299509 L0.9783195059799681 1.4977372610300161 L0.9845206779799724 1.4657237120300177 L0.9838488839799737 1.449729856030066 L0.980024827979932 1.4432703020300206 L0.9712927649799923 1.4368092790300206 L0.9672090729800544 1.4337876760300414 L0.9632816639799984 1.4286200330300343 L0.9613696359799775 1.4195508190300696 L0.9642547369800383 1.3662544300300166 L0.9651936919800193 1.3489091360299792 L0.9675191309799374 1.3349823380299934 L0.9692244529800149 1.3288845190300318 L0.973978684979997 1.3248020810300343 L0.9855025299800246 1.3170247780300226 L1.0081884829800032 1.3058885070299961 L1.0291174379799912 1.3041315080300162 L1.0727323469799472 1.30945418003005 L1.1542777579799832 1.2942871470300386 L1.1937585519799967 1.2920133840300192 L1.2268831449800217 1.3097642390299509 L1.244608160980036 1.3146476620299747 L1.2591292379799626 1.3101259740300346 L1.2725651109799259 1.3032013320299622 L1.287189540980009 1.3011859510300123 L1.3029508529799756 1.3170247780300226 L1.3088936429799816 1.3211588920300326 L1.318350429979958 1.3241302870299503 L1.3253267489799754 1.3251121390300167 L1.3769515039799813 1.3218823620300295 L1.3952966379799676 1.3174898660300354 L1.4102311269800367 1.3103843560300188 L1.4218583239799756 1.2975427620300248 L1.4276460849800543 1.282453245030018 L1.4355009019800065 1.2528168110299784 L1.4513138899799998 1.2284255350300466 L1.5168396069799854 1.1597733940299886 L1.5513594629799883 1.1072701390300264 L1.5618497789799193 1.1004746880299816 L1.5736320049800128 1.0960305150300709 L1.585724289980007 1.089881019030008 L1.5974031639799904 1.0779696020300573 L1.6045861879800185 1.0652313610300066 L1.6085135979800071 1.0555937070299901 L1.6137329169800267 1.0469379040300364 L1.6249467029799831 1.037016029030033 L1.6386926339799999 1.0300655500300504 L1.7152254299800092 1.0189809550300364 L1.7149670479799255 1.0300655500300504 L1.7041666739799979 1.051562945030076 L1.7070088769799696 1.0780729550300006 L1.77765056097995 1.1280440650300587 L1.7993029849799456 1.1559493380300463 L1.8060209219799646 1.162047157030008 L1.819921881979937 1.1666980360299757 L1.8291202869799434 1.1647860080300543 L1.8382153389800209 1.1611169810300535 L1.8518579169800233 1.1602901590300316 L1.8738204009799944 1.169721107029991 L1.885550950979976 1.1870585510300113 L1.8953177969799384 1.20757409403007 L1.9112599759800588 1.2264618300300096 L1.933403327979974 1.2339290740300353 L1.9567610749800082 1.2332056040300383 L1.977121588979955 1.2348592500300892 L1.9904282699799722 1.2494578430299637 L1.9923077269799734 1.2501866120300402 L1.9929604159799652 1.25043969503003 L1.9951292179799935 1.2485056920300561 L2.002029629980015 1.2423523330300323 L2.010297857979978 1.2262034480300397 L2.0124165919799424 1.2107263560300279 L2.0067321849800095 1.1991249970299886 L1.9917460199800274 1.19457747102995 L1.9879736399800123 1.185869992030069 L1.9921335919799361 1.1665946830300467 L2.002029629980015 1.136519000029983 L2.0032181869799643 1.1146081930300138 L2.0080757719799607 1.1091304900300312 L2.018436895979974 1.1114559300300524 L2.0361877509800053 1.1126444880300763 L2.0489259919799707 1.1068050510299994 L2.0692348289799867 1.0896743140300398 L2.0777614409800123 1.092154782030013 L2.0839367739799712 1.092154782030013 L2.083471685980058 1.0874522270300329 L2.085021978979981 1.0862895070300222 L2.087760829980013 1.0863411840300383 L2.090809739979946 1.0853593310299825 L2.087554124979974 1.0748431770300098 L2.1226165839799904 1.0644045390299848 L2.132357591979954 1.0546118540300196 L2.1418143789800155 1.0406850560300338 L2.1637251859799704 1.033631223030019 L2.172276416979983 1.0321325530300012 L2.1887882549799684 1.0292387260300213 L2.207469285980025 1.023244260030003 L2.216796881979988 1.0095500060300733 L2.219018967979977 0.9936078260300345 L2.224780890979943 0.9803528210300438 L2.2607476879800146 0.9707410050300265 L2.2778009099800585 0.96110335103001 L2.3036908029800003 0.9413112770300298 L2.315266323980026 0.9272811260300156 L2.3262992419799247 0.9079799780299762 L2.3345416329799633 0.888963051030009 L2.3418021719799498 0.8633832170300533 L2.3514139879800524 0.8476994200300023 L2.362911993979978 0.833049151030016 L2.3725496489799838 0.8240316130300638 L2.3768904689799655 0.8232564670300544 L2.387613328979981 0.8249101130300058 L2.3917991199800355 0.8240316130300638 L2.3946154859799975 0.8207759980300775 L2.3974576899799587 0.813463784029997 L2.404537360980001 0.805143877030039 L2.4085939599799957 0.7984001030300103 L2.4140716629799925 0.7928190480299886 L2.4234509349799254 0.7904936090299568 L2.447222092979999 0.7789956030300313 L2.457609055980001 0.7768251930300405 L2.4954620429799803 0.7768251930300405 L2.520215054980028 0.7725618870300703 L2.5452264469799246 0.7645003640299901 L2.5657936669800137 0.7523822400300073 L2.5773950269799712 0.7358716200300162 L2.5763873359799874 0.7130823140300233 L2.563545741979979 0.6931352110300022 L2.5456915349799516 0.6772963840300061 L2.529594326979961 0.6669869350300015 L2.5569311589799923 0.6464972310300308 L2.5580680409799896 0.640166868030013 L2.5557426009799684 0.6248964820300582 L2.5569311589799923 0.6185402810300271 L2.5800305239799712 0.5946657690300494 L2.5835961979799578 0.5881803770299907 L2.585611578979993 0.5376408260300476 L2.589952399979964 0.5098905820300157 L2.5978847309800273 0.4956537250300439 L2.6161006739799717 0.5001754120300657 L2.6320686919799954 0.5172803120300156 L2.6490443999800135 0.529605141030066 L2.6701800609800586 0.5198899720300343 L2.7057851229799468 0.4851892470299983 L2.7117651479800173 0.4716039620300361 L2.7132006899799563 0.468342730030022 L2.6872591219800057 0.46836856803003535 L2.6932019109800223 0.46066878003003886 L2.7152160719800094 0.44041161903003534 L2.6868973859799183 0.4208262510300127 L2.68149719898004 0.4110852430299783 L2.6972068349800082 0.40692529003003663 L2.702374477980001 0.404574013030091 L2.7056300929800017 0.3986053850300717 L2.7108752509799245 0.3616050590300173 L2.7197635969800302 0.345972938030064 L2.7334320129799465 0.33346724203007305 L2.735474039979991 0.3321288460299936 L2.7510536779799537 0.32191755903003205 L2.768959560980008 0.3095152160299701 L2.814796556979971 0.26644290903006684 L2.831203822980015 0.25716699003004884 L2.8909934559799666 0.24659915902997476 L2.9173225979799184 0.24548811603006548 L2.9432900049799713 0.25308455103003347 L2.9652524889799423 0.26900089202997 L2.9799544339800406 0.2926686990299938 L2.9768538479799957 0.2954850640300517 L2.969024867979968 0.3052777480300133 L2.9684822659800005 0.30724145303005024 L2.9883776919800056 0.3096702440300074 L2.9911423819799694 0.321736692029992 L2.9901346919800034 0.3350433730300093 L3.0105727199799475 0.3485050840299717 L3.021011358979976 0.36522241003000566 L3.0361008779799903 0.399458046030011 L3.0545752019800005 0.3886835090299794 L3.0737213199800095 0.3906988910300324 L3.1124528059799417 0.40692529003003663 L3.134983730979954 0.4116278450300168 L3.208002529979993 0.41374658002999887 L3.2042043119799786 0.4208262510300127 L3.201207078979948 0.44041161903003534 L3.2163741119799596 0.4358640920300072 L3.22694194198003 0.4415226620300299 L3.2374064199799903 0.45023014103001024 L3.2527284819799576 0.45467431403000624 L3.2638130769799574 0.45152205103004484 L3.289702968979995 0.43746606203003147 L3.3269875149800185 0.424727821030066 L3.3454101629799453 0.40266198502998485 L3.359285284980004 0.3774180470300248 L3.3724886139799963 0.3585303110299858 L3.382229620979942 0.3681679660300059 L3.389386806979971 0.3941612120300615 L3.397034918979969 0.399458046030011 L3.412253627979979 0.4008274710299897 L3.4365415519799996 0.40615014403002725 L3.44762614598001 0.40692529003003663 L3.468141689979987 0.3964091360300781 L3.473257656979982 0.37439497602999516 L3.4680900129800563 0.32747277603004044 L3.4736193909799766 0.31561303503003124 L3.4862026029799864 0.31473453602999335 L3.5000260489800468 0.3194112520299708 L3.5090435859799953 0.32437219003000983 L3.516743373979992 0.33070255203002397 L3.5404111809800014 0.3554297260300441 L3.5525293029800054 0.3602873110300546 L3.56723124797999 0.3591762670299712 L3.591622524980025 0.3522774630299974 L3.5975394759799286 0.3489184950299826 L3.6015702379800274 0.3441125870300592 L3.606686204980022 0.3399526340300323 L3.615807094979985 0.3380406060300256 L3.6242045149799793 0.3394358700300071 L3.628907070979963 0.34181298603004073 L3.633144537980016 0.3422780740300677 L3.639991665979963 0.3380406060300256 L3.639991665979963 0.3305475240300719 L3.631232509979995 0.3222792940300305 L3.6243078679799936 0.313106728030041 L3.6127065089799686 0.2896197890300609 L3.6236619129800403 0.28073144203005107 L3.630974127980025 0.28021467803001165 L3.6538667879799362 0.29434818303004384 L3.6564506089800233 0.29897322303000884 L3.6602229889799816 0.3025130590300673 L3.6707391429800253 0.30388248503003545 L3.6876114969800113 0.3033398820299933 L3.6927533029799946 0.30607873303003963 L3.69466533097993 0.31380436003003886 L3.7118477449800054 0.3158197400300704 L3.81070475997997 0.3107037730300899 L3.8055629539799583 0.302487221030054 L3.8057696599800153 0.2932629770300448 L3.81070475997997 0.27037031803003764 L3.8227712069799367 0.2769590630300254 L3.8388684149800127 0.2937022280299768 L3.8516583319799764 0.29703535702998884 L3.8504180979800395 0.29279789003002143 L3.845482998979989 0.2834186180300744 L3.8527435379799755 0.28631249703005857 L3.856670945979957 0.287397702030054 L3.860159104979985 0.2898781710300309 L3.8659468659799785 0.29703535702998884 L3.87811666497997 0.286364173030071 L3.8959191969800173 0.2767265190300545 L3.9157629459800063 0.270525348030068 L3.934211432980007 0.27037031803003764 L3.926434129979995 0.2652543510300429 L3.9214990299799553 0.26037092803001904 L3.9143676829800285 0.24866621603003658 L3.970126552979977 0.24535892503003787 L3.99090047798002 0.2374782690299977 L3.988859259979975 0.22194950103007294 L4.001494147979983 0.22117435403005992 L4.011803595979998 0.22256961803004138 L4.019219163979997 0.22709130603006678 L4.022991543980041 0.23561791702998924 L4.03040711098005 0.23561791702998924 L4.020924485979961 0.20691165902998954 L4.024800218980019 0.19580122702998004 L4.043455410980002 0.18717126203002543 L4.063273321979992 0.1845099260300085 L4.085468349980019 0.18564680703001635 L4.103865159979918 0.19094364203005476 L4.112365932980012 0.2014597960300133 L4.1198073389800385 0.2014597960300133 L4.124122320980021 0.1892383200299914 L4.126241054979985 0.175776609030029 L4.131150315979923 0.1649503970299886 L4.155644944979983 0.156036211029976 L4.180552985979958 0.13673506403002555 L4.194944870979967 0.1325751110300839 L4.192981167980022 0.1290611140300424 L4.1902939929799885 0.12198144303001435 L4.188071905979982 0.11893253302999618 L4.202928880980025 0.12311832503002584 L4.20856161197996 0.12577966003003915 L4.205512701980027 0.11236962703001119 L4.20680461297998 0.10074242903004027 L4.212385667980001 0.09645328603007464 L4.222204189979962 0.10528995503007899 L4.222798468979917 0.09012292303005687 L4.224426276979969 0.08397342703007915 L4.229697272980005 0.07733300502999008 L4.222953497979958 0.06764367402995752 L4.22633830497999 0.06260522202999219 L4.236415208980006 0.06149417902998344 L4.249566860979982 0.06366458903005956 L4.254863694980017 0.0685996880300106 L4.267033494979941 0.0867381150300357 L4.276231899979948 0.09164737702997705 L4.299692999980024 0.08896020303004626 L4.319950161979918 0.07720381403004772 L4.335530605979969 0.060512326030012886 L4.345116583979959 0.043174884029999916 L4.357596442979954 0.05289005303004579 L4.37043803598003 0.05779931302997987 L4.380876675979962 0.06407800003007047 L4.386070156979983 0.07733300502999008 L4.401185512979978 0.06769535103005886 L4.418367926979968 0.06658430802996484 L4.462447923979951 0.07110599503000081 L4.450536505979997 0.07676456503002349 L4.449761358979984 0.08203556002997026 L4.457099412979986 0.08702233603002263 L4.469269212979995 0.09164737702997705 L4.473403326980005 0.09094974503007869 L4.517690028980027 0.09164737702997705 L4.544096686980012 0.07989098902998215 L4.5580234859800015 0.07733300502999008 L4.591768194979963 0.07924503303001096 L4.604977857531949 0.077132812757716 L4.5976562499799485 0.08742373803004533 L4.57934570297995 0.09568382903005634 L4.570271809979957 0.10508324303002858 L4.5555826819799705 0.088156160030044 L4.543538411979981 0.099874910030044 L4.533935546979947 0.12107445403005634 L4.5265299479799666 0.13242699303002858 L4.513753254979989 0.13844912903004136 L4.501546223979986 0.1528127360300484 L4.492513020979985 0.16978050903002462 L4.4889729819799555 0.18357445403005634 L4.4863281249799485 0.18825381603004665 L4.473592122979952 0.2003794670300092 L4.468465168979961 0.2075002360300484 L4.465901692979983 0.21722517003001052 L4.464070637979958 0.23862816503002726 L4.4616292319799555 0.24847517003001052 L4.453450520979985 0.26096703203005767 L4.4414062499799485 0.26987816503002726 L4.406982421979947 0.28318382903005634 L4.40942382797995 0.2772023840300246 L4.412190754979989 0.27244164203005106 L4.420654296979947 0.2627167070300427 L4.420654296979947 0.27020368603000655 L4.424031575979953 0.26462914203005106 L4.425984700979953 0.260031160030044 L4.426839192979983 0.25510765703005767 L4.4269205729799666 0.24847517003001052 L4.419148762979958 0.2531138420300092 L4.415934244979965 0.25388695403005634 L4.406982421979947 0.24847517003001052 L4.406982421979947 0.24229027503002065 L4.41894531298 0.2367971110300484 L4.430338541979964 0.23537295703004268 L4.4403483069799705 0.23895368603000655 L4.447998046979947 0.24847517003001052 L4.447224934979957 0.22959496203002594 L4.436482747979952 0.2037160560300233 L4.433756510979961 0.18357445403005634 L4.427571614979982 0.1635549230300537 L4.4132486979799666 0.16025902503002065 L4.397054036979981 0.16611840003002065 L4.385253905979951 0.1733205480300537 L4.365559895979985 0.19114281403004973 L4.32128906298 0.24644066503002726 L4.310791015980001 0.27020368603000655 L4.320556640980001 0.2602346110300484 L4.323893228979969 0.25588076903004797 L4.337605793979961 0.26654157703005943 L4.348470051979987 0.30759789203005106 L4.355183918979961 0.31675316503002726 L4.368367512979958 0.3244435950300524 L4.382771809979957 0.33791201903004797 L4.397908528979954 0.34271345203005943 L4.4132486979799666 0.32419945403005634 L4.405965168979961 0.3180552490300581 L4.387532551979987 0.3070689200300105 L4.379109700979953 0.30369164203005106 L4.390380859979999 0.297588126030055 L4.401936848979986 0.30088402503002065 L4.412434895979985 0.31073103003006075 L4.420654296979947 0.32419945403005634 L4.420003254979989 0.3013723060300233 L4.427246093979946 0.294292228030022 L4.436197916979964 0.3029592200300524 L4.4753011069799555 0.4781301180300286 L4.4774576819799705 0.483745353030022 L4.486816405979951 0.5024221110300484 L4.49511718798 0.550151603030022 L4.543619791979964 0.6872365640300497 L4.5488281249799485 0.7265025140300079 L4.544026692979983 0.7607228920300511 L4.51684570297995 0.8238332430300286 L4.433756510979961 0.9542043370300259 L4.397908528979954 0.99660342603004 L4.392781575979953 1.0131642980300537 L4.38574218798 1.0253713290300563 L4.338134765980001 1.0578420320300577 L4.318033853979969 1.0855519930300286 L4.304158528979954 1.1174123450300524 L4.280110676979987 1.2102264730300387 L4.241617838979963 1.3364064860300484 L4.2179361979799666 1.4504608480300387 L4.219401041979964 1.4994924230300537 L4.215250650979968 1.5233775140300079 L4.215047200979953 1.5425018630300453 L4.194091796979947 1.5922658610300484 L4.176269530979951 1.6583059000300207 L4.16528320297995 1.7870493890300079 L4.167195637979958 1.8111379310300233 L4.1742757159799595 1.8249725660300467 L4.166829426979987 1.8312388420300092 L4.172444661979981 1.8434865640300497 L4.205851236979996 2.04152530103004 L4.227742512979958 2.1713674230300537 L4.194091796979947 2.4351613680300286 L4.194091796979947 2.493510978030022 L4.197428385979961 2.503113842030009 L4.21191406298 2.5318410560300233 L4.2215983069799705 2.563660717030009 L4.249511718979946 2.6019907950300105 L4.256184895979985 2.6269338290300563 L4.253621418979961 2.6574920980300387 L4.243123372979952 2.6738088290300563 L4.222859700979953 2.6803599360300066 L4.19067382797995 2.681580639030008 L4.166178385979961 2.686504142030051 L4.141194661979981 2.695333894030048 L4.117838541979964 2.6989960040300414 L4.097900390980001 2.6884165770300594 L4.105428059979957 2.6812551180300286 L4.126057942979983 2.6669322020300594 L4.132039387979958 2.660421785030044 L4.132893879979989 2.648703035030044 L4.129109700979953 2.6329966550300608 L4.122721353979969 2.6192434000300207 L4.100789387979958 2.6000376700300105 L4.10253906298 2.534607983030062 L4.097900390980001 2.5096242590300246 L4.1015624999799485 2.5076711340300246 L4.102742512979958 2.5075490640300497 L4.103352864979982 2.507020092030009 L4.105387369979965 2.5033986730300537 L4.111572265980001 2.5033986730300537 L4.146972655979951 2.5145070720300193 L4.171630859979999 2.4832570720300193 L4.180013020979985 2.4382538160300467 L4.166829426979987 2.4078176180300286 L4.166829426979987 2.4003713290300563 L4.175455728979969 2.390890535030044 L4.1788736979799666 2.3774221110300484 L4.180501301979987 2.3215545980300387 L4.182291666979964 2.319438712030026 L4.186360676979987 2.316102124030058 L4.190999348979986 2.31105655103004 L4.194091796979947 2.3041799230300537 L4.190755208979979 2.277365144030048 L4.171386718979946 2.2614553140300497 L4.144612629979989 2.255066967030009 L4.119059244979965 2.257020092030009 L4.098388671979947 2.2688202230300387 L4.089518228979969 2.2872935300300608 L4.090087890980001 2.3076385820300427 L4.097900390980001 2.325298087030026 L4.119873046979947 2.3368540770300594 L4.122151692979983 2.3388885820300427 L4.122029622979952 2.3422658610300484 L4.1237386069799555 2.3592336340300246 L4.125203450979953 2.3662323320300427 L4.129475911979981 2.373068269030048 L4.134114583979979 2.3759165770300594 L4.13793945297995 2.3798228270300594 L4.139485676979987 2.3901174230300537 L4.138997395979985 2.4070038160300467 L4.136800129979989 2.4139211340300246 L4.132039387979958 2.4214894930300286 L4.13598632797995 2.4262095450300105 L4.146321614979982 2.4419973060300233 L4.114949543979961 2.4599009520300594 L4.061726887979958 2.5036835040300414 L4.029622395979985 2.5170705480300537 L3.9864095049799886 2.5215871500300207 L3.968221028979954 2.5274465250300207 L3.960774739979982 2.5406301180300286 L3.960774739979982 2.5927134520300594 L3.9619954429799833 2.5938527750300207 L3.9659830729799666 2.5916555090300246 L3.9743652349799987 2.5921437900300273 L3.9864095049799886 2.5946665770300594 L3.9944661459799846 2.5944224360300066 L4.001180012979958 2.5964569410300467 L4.009195963979963 2.6058156650300273 L4.016031900979968 2.6504934000300207 L4.012044270979985 2.6718557040300563 L4.0050455729799666 2.6920786860300066 L4.001708984979999 2.7111623450300524 L4.009195963979963 2.7293508220300193 L4.027750650979968 2.7382619540300563 L4.059082030979951 2.7316701570300577 L4.064412434979957 2.747051017030051 L4.063232421979947 2.7570607820300577 L4.058105468979946 2.7766327230300387 L4.056966145979985 2.7880259520300594 L4.0590413409799595 2.794292228030022 L4.063680012979958 2.785177644030048 L4.079549153979954 2.7338674230300537 L4.085652668979961 2.720968660030044 L4.094482421979947 2.7156789470300193 L4.114217122979952 2.7184865640300497 L4.11840820297995 2.7260956130300453 L4.071695963979963 2.818055249030058 L4.0495198569799555 2.936707592030009 L4.056844075979953 3.064718660030044 L4.064412434979957 3.086203035030044 L4.057576497979952 3.0902720450300105 L4.050130208979979 3.0930389730300387 L4.054199218979946 3.0724904700300524 L4.047119140980001 3.055400626030055 L4.0221761069799555 3.024842358030062 L4.011678059979957 2.9994924230300537 L4.020182291979964 2.9887502360300484 L4.034749348979986 2.9789439200300105 L4.042683918979961 2.9559133220300193 L4.0375569659799595 2.9389455480300537 L4.02441406298 2.9194142980300537 L4.006795247979952 2.9025685950300524 L3.9880371099799987 2.8938202230300387 L3.957682291979964 2.89699405103004 L3.9591471359799613 2.9118459390300497 L3.975097655979951 2.921082592030009 L3.9880371099799987 2.9074920980300387 L3.9955240889799626 2.9074920980300387 L4.012369791979964 2.924785392030051 L4.019287109979999 2.935242749030058 L4.0221761069799555 2.9484670320300577 L4.018513997979952 2.96535342603004 L4.003377278979954 2.9870819410300467 L4.001708984979999 3.003113842030009 L3.996053059979957 3.022197501030055 L3.978108723979986 3.022807853030022 L3.9368489589799793 3.0105194410300467 L3.931477864979982 3.0138560300300608 L3.9436848959799846 3.021180249030058 L3.968221028979954 3.0309865640300497 L3.974121093979946 3.0387990640300497 L3.978190103979969 3.0495005610300066 L3.9804687499799485 3.061870353030022 L3.981201171979947 3.0750539470300193 L3.979166666979964 3.0840871500300207 L3.970214843979946 3.102519767030051 L3.968221028979954 3.1098439860300484 L3.9698893229799666 3.1153371500300207 L3.973307291979964 3.1210744540300563 L3.97558593798 3.1273000400300273 L3.9743652349799987 3.1340139070300577 L3.969156900979968 3.1401581130300453 L3.963541666979964 3.14308780103004 L3.9583333339799793 3.1448781650300273 L3.954549153979954 3.1476857820300577 L3.936035155979951 3.171245353030022 L3.930338541979964 3.1750295320300577 L3.921712239979982 3.1779592200300524 L3.911946614979982 3.1851613680300286 L3.90356445297995 3.1942759520300594 L3.8993326819799705 3.2029022540300414 L3.9124348959799846 3.2116099360300066 L3.928466796979947 3.225932853030022 L3.942057291979964 3.241395092030009 L3.950642903979954 3.2606008220300193 L3.9579264319799705 3.2658498450300524 L3.9676920569799705 3.2693085040300414 L3.97778320297995 3.2705292070300427 L3.9925130209799846 3.268901603030022 L3.993611653979954 3.264385001030055 L3.989461262979958 3.257833894030048 L3.9880371099799987 3.2501027750300207 L3.9948323569799555 3.2306935950300524 L4.000325520979985 3.2204803790300414 L4.009195963979963 3.2165741290300414 L4.025878905979951 3.216004467030009 L4.035481770979985 3.2242238680300286 L4.081787109979999 3.4066782950300105 L4.084228515980001 3.4418752360300484 L4.083699543979961 3.454773999030058 L4.082438150979968 3.4626271890300497 L4.078613280979951 3.4687307040300563 L4.070638020979985 3.4760549230300537 L4.068684895979985 3.47316592603004 L4.054524739979982 3.476014233030062 L4.040690103979969 3.480490144030048 L4.039550780979951 3.4828908610300484 L4.031656900979968 3.4861867590300246 L4.021687825979953 3.5006724360300066 L4.0126139319799705 3.503927644030048 L4.000488280979951 3.504171785030044 L3.990722655979951 3.5056366290300414 L3.982381184979957 3.5095428790300414 L3.9743652349799987 3.517029858030062 L3.9641927089799793 3.548035717030009 L3.9545084639799626 3.594829337030026 L3.940999348979986 3.6301483480300387 L3.919759114979982 3.626893139030008 L3.913533528979954 3.626893139030008 L3.8817952479799516 3.666728751030055 L3.872639973979986 3.6821096110300484 L3.867390950979953 3.699240144030048 L3.8675130209799846 3.800477124030058 L3.898152668979961 3.9316213290300563 L3.919759114979982 3.983745353030022 L3.9497884119799807 4.029318269030048 L3.959472655979951 4.054301993030029 L3.9833577479799516 4.091899650030021 L3.991780598979986 4.099834220030052 L4.009969075979953 4.110942618030029 L4.017171223979986 4.130148348030039 L4.025105793979961 4.151469962030026 L4.042683918979961 4.148214754030041 L4.038899739979982 4.137553947030019 L4.038922544125782 4.137550689293782 L4.04666791913418 4.139558028362028 L4.054446005194066 4.157025435177411 L4.056622620919896 4.15799045384432 L4.05857221547933 4.16384607048041 L4.0555904826237 4.17713424372276 L4.065567819486731 4.182427155957571 L4.066115525979953 4.204393756030035 L4.0752880929800455 4.239972979030005 L4.072394212980058 4.267128945029986 L4.037280076980025 4.284983152030028 L3.9716042149799335 4.300461666030065 L3.9664575269799656 4.301674639030059 L3.900079148979941 4.326531003030018 L3.87961528197998 4.35014713303004 L3.875894578979981 4.352369219030043 L3.8485577459800453 4.346994870029979 L3.8418656479799296 4.349216957029986 L3.8279388499799296 4.358777097029991 L3.818146165979968 4.360663287029999 L3.8088444079799473 4.359242185030004 L3.8021006339799186 4.356089923030046 L3.741794236980027 4.309141884030003 L3.7372208729799894 4.292088661030055 L3.726187953979988 4.284698931030055 L3.7127262439799296 4.286921017030059 L3.70086650298002 4.298625730030031 L3.683787441979959 4.2945949680300455 L3.658982754979931 4.310330441030024 L3.6468646309800334 4.298625730030031 L3.639991665979963 4.298625730030031 L3.628493658979963 4.307229856030068 L3.6169956529799236 4.30291487403 L3.5984179749799665 4.284983152030028 L3.586403204980016 4.2869726940300605 L3.5776926049799584 4.285720189029993 L3.5705902169800225 4.284698931030055 L3.5550097719799822 4.2843888730299735 L3.5438218249799576 4.292424558030055 L3.538550828980007 4.28562910703001 L3.5165366689799242 4.268188311029979 L3.514262905979919 4.264725990030021 L3.510180466980003 4.260462685030069 L3.5083201159799984 4.254829953030031 L3.5127642889799944 4.247104327030035 L3.516898403980022 4.244313799030072 L3.5307735259799955 4.237156614030033 L3.5270528229799964 4.2131787490300265 L3.5097670559799923 4.198838539030026 L3.490698451980009 4.189226723030009 L3.4817584289799726 4.179434038029958 L3.471138922979989 4.1723285290300165 L3.4246818099799583 4.154732704030044 L3.4141139799800015 4.144991697029999 L3.4113234529799428 4.1379637020299835 L3.3980167709800213 4.121478920030006 L3.3936242739800235 4.114244219030033 L3.3915572169799617 4.101867713030066 L3.3917639229800187 4.091764971030036 L3.3894384829799975 4.08424605003008 L3.379955857980022 4.079517657030001 L3.3714550849800133 4.084530271029967 L3.3176599189799987 4.119101804030057 L3.308177293980023 4.123029213030028 L3.2972218899799515 4.121944008030033 L3.286550705979934 4.117809893030005 L3.2775848459800017 4.112797279029953 L3.269032395979977 4.1056917700300115 L3.2462947659800108 4.077786497030038 L3.2421089749799563 4.074737586030002 L3.2372513899800452 4.07215376503 L3.232083746980024 4.070112546030051 L3.226683559979975 4.068613930030045 L3.176815802979931 4.046935666030043 L3.153742275979951 4.0396751280300744 L3.132193203980009 4.0408636850300095 L3.1147524079799638 4.038383217030022 L3.0766927149800125 4.0114081190299995 L3.0589676989799983 4.003734169030016 L3.02765178097998 4.0110980600300135 L2.953651129979974 4.059260495030008 L2.8504532949799426 4.126465696030058 L2.8270180329799786 4.134785601030023 L2.8040220199800245 4.132253456030034 L2.6425848459799823 4.07349735202998 L2.4989440909799754 4.021048217030048 L2.4630609199799807 4.007945798030056 L2.328004563980002 3.9586981580299803 L2.226796270979989 3.921723671030028 L2.194472662979919 3.903817788030059 L2.1662573309799456 3.878754717030054 L2.137628587979961 3.86420780203 L2.104271449980004 3.877927895030032 L2.0761077949800466 3.9153157930300804 L2.0578401759799902 3.9545123670300395 L2.0336867639800147 3.9932646530300016 Z M4.070069933490672 4.138826647275327 L4.069226832801746 4.142921046836646 L4.06414652105866 4.147650092894315 L4.059857946210613 4.1481683490990395 L4.059857946210613 4.144734918606035 L4.062431091119436 4.142856265907133 L4.062431091119436 4.1409128445999475 L4.057086867078027 4.138192076162811 L4.053656007199578 4.138710315845422 L4.048555253125286 4.136174587534505 L4.0534261069799555 4.135478751030055 L4.070069933490672 4.138826647275327 Z M4.009195963979963 3.1954966550300608 L4.001627603979969 3.1683156650300273 L3.9993489589799793 3.1323456130300453 L4.006429036979981 3.1008107820300577 L4.027018228979969 3.0868540770300594 L4.02856445297995 3.087098217030009 L4.0297444659799595 3.087912019030048 L4.030110676979987 3.0898244540300563 L4.029622395979985 3.0930389730300387 L4.023030598979986 3.1032928790300414 L4.016113280979951 3.1196096110300484 L4.0109049479799666 3.137798087030026 L4.009195963979963 3.1539113680300286 L4.015055338979963 3.1904510820300427 L4.015584309979957 3.203838126030055 L4.009195963979963 3.1954966550300608 Z M4.681477864979982 2.9302785560300233 L4.679443359979999 2.9079396890300497 L4.688964843979946 2.8904022540300414 L4.702880859979999 2.88332217603004 L4.714274088979963 2.8923553790300414 L4.710367838979963 2.89894717603004 L4.681477864979982 2.9302785560300233 Z M4.968098958979979 0.6600148840300246 L4.9843749999799485 0.6521210040300414 L4.997639973979986 0.6522023840300246 L5.006429036979981 0.6603810950300524 L5.009724934979957 0.6767385170300511 L5.002888997979952 0.7045705480300537 L4.984578450979953 0.7126678790300414 L4.931477864979982 0.7081919670300092 L4.927164713979963 0.7077850660300467 L4.931070963979963 0.7077850660300467 L4.931722004979989 0.7078257560300383 L4.933797200979953 0.707296785030044 L4.934977213979963 0.7048553790300414 L4.93457031298 0.7009084390300497 L4.950642903979954 0.6921600660300467 L4.957194010979961 0.6809295980300387 L4.960774739979982 0.6694549880300453 L4.968098958979979 0.6600148840300246 Z" fill="black" stroke="black" stroke-width="0.5" vector-effect="non-scaling-stroke"/></svg>