<svg xmlns="http://www.w3.org/2000/svg" viewBox="0 0 12.23883125033996 9.800291228100015"><path d="M1.0453067386699955 2.280599108550046 L1.096673112669964 2.250368395549952 L1.1087653976699583 2.238276109549954 L1.1158967456699882 2.216675361549985 L1.1109358076699491 2.196883287550005 L1.0986368166699831 2.178538154550022 L1.0751757166699347 2.153836819550005 L1.0709382496699673 2.1513563505499427 L1.0675276046699365 2.1479973825500274 L1.0618431966699005 2.137403713549954 L1.0586392586700297 2.1275851915499793 L1.052851497669951 2.070792793549952 L1.0573990246699791 2.0544113645500026 L1.0684577806699904 2.040096991550012 L1.0855110036700237 2.0227853865500087 L1.1024608726699396 1.989557441549973 L1.097809993669972 1.955347643549981 L1.0729019536699012 1.8821221385499847 L1.0734187176699548 1.8387139355499862 L1.100393815669963 1.7073524445499935 L1.090471940669988 1.4583753935499537 L1.094606054669998 1.4478334025499855 L1.3133007166700166 1.2867062855500073 L1.3779996096700016 1.2259864775500056 L1.5376797856699964 0.9801358515499139 L1.5692311036699378 0.7657642495500134 L1.5726130536699712 0.7427859975499267 L1.5746801106699477 0.5033949245499763 L1.6393790046699221 0.501353705550013 L1.6694546876699858 0.49574681354999584 L1.6973599606699734 0.48223342654993573 L1.8546630216700235 0.33513646154996124 L1.9014818696699534 0.302606147549934 L1.9556387696699629 0.28170303054994505 L2.07475122866997 0.25322129854995623 L2.273758886669998 0.20563532154997333 L2.3057982756700026 0.20227635354995854 L2.3287426116699406 0.21235325854999232 L2.3512735356699634 0.23338556655000886 L2.374011165670015 0.2432816025499953 L2.432095475669928 0.2466922475499409 L2.5332779296700094 0.22883804054998436 L2.6765250006700283 0.23503921154997087 L2.710941504669978 0.22863133454992735 L2.72241367167 0.22385126455001725 L2.75310947366994 0.20243138355000312 L2.7669587566699816 0.18643752754996612 L2.7837019206699436 0.14966974654997145 L2.795174089669973 0.13481277155002758 L2.822976009670003 0.12111851755001268 L2.9706672526699434 0.09608128654999959 L3.0032234056699734 0.10295425154997062 L3.2862552251700263 0.21262455954997606 L3.569287044669994 0.3222948675499673 L3.5783820966699578 0.327307481550033 L3.584686620669987 0.3327076685499968 L3.5913012046699633 0.33554987254997215 L3.6017398446700097 0.33281102154994 L3.6595140946699187 0.3011075315500129 L3.678737727669943 0.2971801225500421 L3.733114230669986 0.308715708549979 L3.751084732669983 0.31252802255000844 L3.8178506846699234 0.35009678855001525 L3.9582038736699756 0.4803213975500107 L4.121449723670014 0.6551944455499346 L4.20278568066995 0.8014724515499942 L4.227593115669964 0.8460871855499867 L4.286814306669942 0.9128789745499368 L4.323091162669999 0.9458743765500053 L4.355543961670025 0.9695163445499269 L4.386033056669919 0.9809626745499394 L4.4194160326699885 0.9845283475500075 L4.4938300946698915 0.984166612550009 L4.511827499669994 0.9812322535499582 L4.517601253669954 0.9802908805499548 L4.538995296669969 0.9699814325499538 L4.586330908669924 0.929131212549958 L4.647102392670024 0.8589804555499931 L4.669426612669997 0.8547946645499529 L4.773709651669935 0.873527371549951 L4.809573096669982 0.8737340765500043 L4.84088901467 0.8638380405500037 L5.204484391669996 0.6492258165499969 L5.238590837669949 0.6343946815499741 L5.27290398766998 0.6310873895499718 L5.526428564669959 0.6663565545499601 L5.55402377966995 0.6767176785499736 L5.5654959476699615 0.6853218045500107 L5.588957047669953 0.7072584505499684 L5.616552262670029 0.7240016145500157 L5.650348649670025 0.749994860549986 L5.664921403669996 0.7567644725500138 L5.694583675669963 0.7645934525500415 L5.695634379670014 0.7650804575500096 L5.708743017669991 0.7711563595500301 L5.7219721846699825 0.7824993355500105 L5.746880224669968 0.8117481965499671 L5.846719092669974 0.9009675565499968 L5.854057145669986 0.9055150825499361 L5.864082373669919 0.9093133015499681 L5.867906428670028 0.909675035549963 L5.87204054466996 0.9068845085500037 L5.883409358669968 0.9012776155499829 L5.894881527669969 0.8976602655499981 L5.919686214669997 0.8947147085499942 L5.931571793669934 0.8948180615500227 L5.958546891669971 0.9004507925499574 L5.982421402669945 0.9117420935500284 L6.026139665670018 0.9439365105499711 L6.045673356669954 0.9649688185499876 L6.074405453669942 1.01158096054996 L6.09156202867 1.0320189895499219 L6.128252294669966 1.0527929145499506 L6.391698747669966 1.1291706825499084 L6.426778364669974 1.1331892965499684 L6.718293799669897 1.1665844195499737 L6.755397477669976 1.1665327425499576 L6.808727555669964 1.1517791215499464 L6.82681430766998 1.150590563550022 L7.03920444366999 1.1749818385499502 L7.060391780669948 1.1734315465499314 L7.067316422669921 1.170589342549956 L7.078168473669979 1.1635871855499538 L7.08964064166999 1.1538461785500083 L7.096563894669958 1.1458341565500199 L7.268234391670023 0.9471662875499582 L7.301720720669937 0.9159278845499692 L7.320944352670028 0.9038097605499722 L7.3315896976700285 0.900140734549975 L7.336653987669922 0.9008642035499683 L7.340684749669992 0.900140734549975 L7.348642919669959 0.8920533725499773 L7.3532937986699265 0.8820281445499596 L7.357117854669968 0.8575851915499264 L7.36135532267001 0.8471723905499822 L7.379028662669941 0.8304033895500247 L7.568681169669946 0.726275377550035 L7.610435726669993 0.7091704785499893 L8.09678838766995 0.6069659345499865 L8.123892757669996 0.6012700885499775 L8.220217627669985 0.5936736525500059 L8.40191196366995 0.6144734165499663 L8.888910661669957 0.6119412705499734 L9.19121778967001 0.686923774550035 L9.301702002670016 0.7309779325500152 L9.440814957669932 0.8142803415499564 L9.48691033566995 0.8500145945499575 L9.506547379669986 0.8596005725499616 L9.56535516066997 0.873527371549951 L9.598531429669965 0.8707885205500041 L9.612690771670021 0.8684114045499562 L9.633671402669922 0.8542779005499277 L9.650311214669944 0.8509447705500115 L9.700747412669944 0.8683597285499438 L9.712116227670027 0.8745092235500032 L9.715940283669983 0.8812013215500194 L9.716353694669994 0.8867306995499398 L9.718110693669974 0.8905030795499549 L9.726068864670015 0.8918983435500358 L9.729789567669958 0.889521227549988 L9.734233740669954 0.8843535835499914 L9.74043491266993 0.8795476755499827 L9.749943376669922 0.8782557645499303 L9.759865250670021 0.8837334665500087 L9.76730665667002 0.8925184605500043 L9.774644710670021 0.8975569125499696 L9.78415317366991 0.8918983435500358 L9.800482926670032 0.8965750605500027 L9.835648250669966 0.8977916535499411 L9.863218115669998 0.8987454705499935 L9.886162451670021 0.9023628205499783 L9.905282731669917 0.908951565549966 L9.921612483669964 0.912207181549956 L9.935565120669953 0.9055667595499521 L9.94011264766998 0.8937328565500273 L9.948690934670015 0.8404027785499544 L9.953238460669969 0.8367595895499527 L9.97587273766992 0.832728828549957 L9.983417496669961 0.8304550645500335 L9.99147902066996 0.82159255755003 L9.99685336967001 0.8109213735500269 L10.00315789467 0.7888296985500283 L9.987241553669993 0.7830161005499541 L9.994062841669962 0.7681591255500102 L10.007085302669982 0.7498398305500267 L10.00997918266997 0.7336134315500225 L10.04646274466997 0.6998687205499685 L10.051630387669992 0.6963805615500114 L10.055041032670022 0.7021424835499737 L10.062172380669967 0.6998687205499685 L10.06909702266994 0.6949336215500175 L10.075711605669927 0.6881123325499736 L10.077675309669974 0.6821953815499562 L10.0789155446699 0.6659948195500469 L10.089560888669997 0.6739788275500267 L10.09813917767001 0.682763821550008 L10.108061051669939 0.6897659785500103 L10.12325392266995 0.6926598585499981 L10.132038916669945 0.6874405385499891 L10.138963557670014 0.6643928495500226 L10.150642431669997 0.6591218545499906 L10.173276709669938 0.6540834015500216 L10.189709815669989 0.6415518665500137 L10.215444678669986 0.610701036549937 L10.222162613670026 0.5941387405499334 L10.223506201669995 0.5936736525500059 L10.22629672866994 0.58966872855002 L10.232187842669948 0.5940353875500044 L10.237872249669994 0.6009083535499791 L10.240042659669985 0.6045257035499638 L10.254098649669988 0.6033888215499523 L10.253685238669977 0.5995130895499976 L10.247380712669969 0.5920975215499844 L10.243453304670016 0.5803152945499725 L10.246243831669961 0.5767237825500011 L10.259576350669978 0.5720729035500334 L10.263917171669977 0.5697474635499127 L10.266500992669979 0.5690756705500171 L10.275182633669932 0.5703159045499682 L10.278179866669934 0.5697474635499127 L10.278903337669949 0.5670086135499695 L10.277456396669937 0.5589212515499717 L10.278179866669934 0.5560790475499964 L10.305981787669982 0.5257191435499458 L10.319107601669959 0.5151254755499615 L10.31280307666994 0.5070897905499798 L10.30649855166995 0.5010436475499453 L10.299470557669924 0.49698704754994694 L10.291202328669971 0.4946874455500101 L10.291202328669971 0.4872460395499836 L10.306705257669893 0.4914576695499413 L10.31952101266997 0.49750381154997214 L10.328616064669962 0.4966769895499503 L10.332750179669961 0.4803730745499273 L10.360655452669949 0.4864708935499742 L10.38825066766994 0.48130325054998124 L10.478167660669971 0.4371974155499849 L10.503799170669954 0.4279990105499927 L10.531394385669945 0.42575108554998664 L10.531394385669945 0.4319780955499759 L10.525916682669948 0.44169326455000757 L10.53718214566992 0.44577570355002294 L10.555992366669944 0.44481968954996987 L10.572425472669995 0.4394195015499882 L10.572735530669963 0.44293349955004757 L10.572425472669995 0.4537080355499761 L10.579866878670021 0.44655084954993285 L10.58730828467002 0.42983352354998416 L10.592889339669956 0.42575108554998664 L10.602604508669987 0.4276114375499809 L10.604774919669968 0.4355954455500459 L10.602604508669987 0.44567235054999443 L10.599090511669932 0.4537080355499761 L10.625858903669997 0.4418999705499651 L10.652834001669948 0.4369907095500274 L10.677018571669993 0.4283349065499884 L10.695312028669992 0.4052872185499261 L10.681152685670032 0.40347854354993373 L10.67908562866997 0.39862095855000845 L10.68838738666999 0.38479751354995173 L10.692728206669972 0.38311802854999755 L10.699756201669988 0.383608955549942 L10.706164079670021 0.38213617654993115 L10.708954606669995 0.3742296825499771 L10.70750766667 0.3685711135499439 L10.702443376670022 0.3614914425500153 L10.70275343466999 0.3574606795500266 L10.708127783669955 0.34740961354999556 L10.715052425669956 0.33834039954993145 L10.75494663066998 0.3017276475499777 L10.770139502670009 0.29126317055003526 L10.769622737669966 0.2740807565499743 L10.778821142669972 0.26694940954993385 L10.80782626966992 0.2621401395499241 L10.808896826670026 0.26196263354998095 L11.056220231669943 0.27227208154998195 L11.285017635670005 0.5853279085500382 L11.513815039669982 0.8983837355499951 L11.570038997669958 1.1645819570499718 L11.626262955670018 1.4307801785499628 L11.627606543669987 1.5080364455499442 L11.62912277566993 1.5128417355499941 L11.634324479669932 1.5293271355499307 L11.63401442167002 1.5484990915499388 L11.628019954669998 1.5790915395500456 L11.628743424669995 1.5907704135500147 L11.637838476669959 1.6059632845499543 L11.651067643669979 1.6138697785499936 L11.666467220669961 1.617073716549978 L11.872036067670013 1.6232232125499415 L11.936011490669973 1.6385711125500073 L11.963296647669996 1.6528338085499819 L11.96650058666997 1.6630140655499552 L11.961332942669959 1.6777418495499568 L11.963296647669996 1.6869919305499756 L11.970427995670025 1.694019925549977 L12.000090266669918 1.715930732549932 L12.01104567166998 1.7205299345499832 L12.01104567166998 1.7279713405499955 L12.007221614669948 1.7294699575500054 L11.997403092669959 1.7347926305499577 L12.017040136669994 1.7486419145500172 L12.037193945669987 1.7591839055499854 L12.05300693366998 1.7720513375499785 L12.059518164669942 1.7928252635499256 L12.065202571669989 1.7974244665499803 L12.078225032669923 1.792876939549938 L12.092074316669983 1.785745592549997 L12.100445899669968 1.7825933295499503 L12.11233147866999 1.7887945015500257 L12.117189063670015 1.7983029655499188 L12.118842708669963 1.8089483105500044 L12.099515723669999 1.8282752965499576 L12.097035254669937 1.8345281445500454 L12.092074316669983 1.8405226105499786 L12.08607985066995 1.8521498075500311 L12.068819921669974 1.9238766955500317 L12.071093684669979 1.9343670125499806 L12.053213639669924 1.9459425325499318 L12.055177343669971 1.9651144895500288 L12.074090918669999 2.0082643095499684 L12.07584791666999 2.0191680365499245 L12.076054622669933 2.0262993845499686 L12.072333919670019 2.0598373895499797 L12.060965104669936 2.091411689549954 L12.039571061669921 2.1932142615500076 L12.032129655670008 2.210009101549982 L11.995439388670025 2.2577581255499517 L11.990788509669972 2.2665431185499436 L11.992235449669966 2.2752764355500084 L12.00133050166993 2.2873687205499884 L12.005361263669943 2.2888673375499984 L12.022414486669977 2.2886606315499556 L12.029855892669975 2.2931048045499516 L12.033990007670003 2.2995643585499117 L12.037504003669955 2.306695706549956 L12.04277500066998 2.3133619665499587 L12.059104752669942 2.3295366895499505 L12.070266862669957 2.346589912549984 L12.076054622669933 2.366692044550046 L12.076468034669961 2.3920134955499286 L12.072747331669934 2.4128907745500037 L12.065099218669975 2.43769546254995 L12.05466058067002 2.461647488550039 L12.042671647669966 2.4799409455499237 L12.025515072669993 2.489035997549987 L11.973838639669953 2.507536160550014 L11.952858007669978 2.5200676945500184 L11.916167741669984 2.552520494549949 L11.89518710966998 2.564690294549944 L11.835965917670013 2.582983751550014 L11.817155697669893 2.5933707145499447 L11.728065527669987 2.6745285515499937 L11.72021070966996 2.6777324905499675 L11.693235612670026 2.6809364285499377 L11.681039974669904 2.6860782345500205 L11.653548112669956 2.714241889549978 L11.635668066669968 2.7271351595499844 L11.614377377669985 2.7380388865499548 L11.59215651066997 2.743645780549965 L11.571485937669951 2.7406485465500445 L11.501412695670002 2.7112188185499626 L11.462035254670003 2.7000050325500062 L11.431236100669953 2.7001083855499495 L11.392788835669979 2.7306491565499407 L11.35516839266997 2.7683471145499787 L11.322095475669972 2.8098691275499696 L11.298117610669966 2.851804552549961 L11.280961035669993 2.8915695675499613 L11.268972103669956 2.9070983355499855 L11.230938249670022 2.9288541125499954 L11.214815201670024 2.942470853549988 L11.203756445670013 2.95965326654996 L11.199312272669932 2.9801688105499373 L11.205926855669919 3.018125149549956 L11.198745373670011 3.0339302955499186 L11.193317805669995 3.045875393549988 L11.015189144669893 3.297358751550018 L10.987697281670012 3.3549521355499614 L10.950180192669922 3.480034939549949 L10.916073747669959 3.668783108549942 L10.893749527669986 3.730898180549925 L10.893439469669932 3.743894803550031 L10.900260758669976 3.7642553175499778 L10.901914404669999 3.775856676550017 L10.899743994669922 3.789215034549965 L10.88382765367 3.82295974454993 L10.87214878066992 3.8378942325499814 L10.85085808966996 3.8539914415499616 L10.84157851766999 3.859414700549973 L10.827293636669953 3.8677632115499954 L10.808690120669997 3.8758247345499903 L10.730245296669967 3.8842738315499865 L10.69686232167 3.896960395549936 L10.67908562866997 3.9310410025499856 L10.679395687669956 3.95101394355002 L10.691384619670021 3.9836992875499924 L10.695312028669992 4.002897081550014 L10.691177913669964 4.026616564549965 L10.667613460669958 4.063332669550032 L10.659965349669978 4.0836156695500385 L10.661618994669926 4.106224108549991 L10.671850927669926 4.122243802549942 L10.700893082669996 4.152138618549966 L10.711848487669972 4.174643703549986 L10.709368018669995 4.190663398550026 L10.69996290766996 4.207122341550001 L10.6902477386699 4.231048530550009 L10.67732862966999 4.2984604365500125 L10.67236769266994 4.363236843550023 L10.644359066669939 4.434162747549987 L10.579246761669953 4.459845934549971 L10.50059523166998 4.471860704549936 L10.431348812669956 4.5017813595499625 L10.417912939669993 4.5122975135500205 L10.388974137669937 4.549271999549969 L10.377915381669954 4.560253241549955 L10.369647152670002 4.565885972549989 L10.310942724670031 4.59348118754998 L10.30432814166996 4.598261258549979 L10.297300146669944 4.616425523550017 L10.302054378669926 4.619732815550005 L10.330476416669956 4.624151150550016 L10.340191585669988 4.6443824735500066 L10.348253108669969 4.67435480454996 L10.347322933669933 4.713938952550006 L10.343498877669976 4.73241327655003 L10.33729770567 4.749647366550004 L10.291098975669957 4.831942085549979 L10.271048519669922 4.879561917550003 L10.269911637669981 4.919947048549982 L10.277146338669969 4.956404772549984 L10.254615413669956 5.144868721549994 L10.243453304670016 5.187760159549949 L10.221852555669944 5.217319079549977 L10.20852003566991 5.222951809549922 L10.196117692669947 5.222745104549954 L10.183405289669981 5.220471341549949 L10.16914259466991 5.219902900549979 L10.157773779670027 5.225458117549987 L10.150539079669972 5.237214505549982 L10.141754085669977 5.265481513549968 L10.12707797966998 5.297675931550014 L10.10930128666995 5.317054592549976 L10.006878597670028 5.370694729549964 L9.99147902066996 5.3743637565499505 L9.976699560669932 5.371521553549979 L9.944453466669973 5.35681960854998 L9.931431005669925 5.353124742549976 L9.913240901669997 5.355217638549956 L9.900735205669992 5.361677192550001 L9.889159684669938 5.369764553549995 L9.873346696669945 5.376585843549957 L9.85949741266997 5.377877753550006 L9.845234717669928 5.375603990549987 L9.817742855669952 5.366793158549992 L9.825907731669947 5.381262559549935 L9.849368831669938 5.437951606549941 L9.852159359669987 5.452136786549982 L9.85277947666997 5.479835354550001 L9.844097835669988 5.489033759549923 L9.814022152669924 5.509807685549955 L9.806477393669969 5.520013780549927 L9.800069514670032 5.53213190455001 L9.79211134466998 5.543629910549949 L9.780225765669957 5.552079006550027 L9.75914178066991 5.555024563549946 L9.720694515669965 5.548590847549985 L9.69888706166994 5.5576083855500364 L9.675942724669927 5.590061184549963 L9.668191260669989 5.633211006549981 L9.670671728669976 5.678712104549955 L9.686588069669899 5.7594823685499925 L9.685657894669948 5.779377794549998 L9.68261973967002 5.787917474550024 L9.678009782669978 5.800875190549942 L9.637185400669967 5.858597765549927 L9.631500993669949 5.882885688550015 L9.631604346669963 5.921720527549976 L9.637082047669953 5.960116116549909 L9.644006689669926 5.98466242254997 L9.64669386466996 6.001198879549971 L9.641009457669913 6.015719957550015 L9.603182308669933 6.055045722550002 L9.50386020566997 6.19245335554994 L9.467893408669983 6.2575139845500125 L9.46107211966994 6.278029527549986 L9.45797153366998 6.300043688549973 L9.459625179669946 6.321127672549988 L9.473887874670016 6.379780422549938 L9.46996046666995 6.40014093754996 L9.457454768669937 6.411509752549957 L9.441745133669986 6.42236180355 L9.41508009467002 6.461945950549957 L9.352451834669939 6.522815288549989 L9.293640478669932 6.579974921550015 L9.231628760669981 6.671855618549994 L9.211371598669974 6.690820869549949 L9.193491552670014 6.704205064549978 L9.185533382669963 6.713093411549988 L9.191321143669928 6.718932848549979 L9.215092301670001 6.723428697550002 L9.229148291670004 6.735314277550028 L9.278861019669922 6.806989488549913 L9.31782504866992 6.849260810549989 L9.330227393669976 6.874323879550001 L9.321132340669994 6.897009834549973 L9.311520524670005 6.90093724254994 L9.303045589669996 6.898560126549992 L9.29405389066996 6.8944260125499675 L9.282891781669935 6.8933924835499845 L9.26924920267 6.897578275549929 L9.257777035669978 6.904451240549985 L9.215299007669945 6.942846829550017 L9.200416194670016 6.952406969550008 L9.197522315670017 6.961398668549958 L9.195765315669934 6.971010484549975 L9.189977555669959 6.9788653035500055 L9.18315626667 6.981294094549963 L9.167549984669979 6.981914212549935 L9.156387875669953 6.9845497105499526 L9.146155940669974 6.98351618154997 L9.141401709669982 6.984756415549921 L9.137370947669968 6.98945897154999 L9.133753597669983 7.002533108549937 L9.130032894669984 7.00775242854996 L9.072155290669958 7.044080960550016 L9.010660335669957 7.100304918550005 L8.99257358466993 7.125678047549993 L8.986992529670022 7.152472277549972 L8.993503760669984 7.167432603549951 L9.015517920669982 7.192185614549967 L9.020375505669978 7.210143175550041 L9.017791683669987 7.237273302549919 L9.011280452669912 7.263886664550039 L8.98234165066997 7.331272732549959 L8.958673845670024 7.364061429549974 L8.93149204166993 7.379202623549983 L8.892011246669927 7.38310419454994 L8.865656266669948 7.404369045549924 L8.850670101669966 7.4381912705500035 L8.844572282669919 7.479635770549972 L8.838267757669929 7.502450914549964 L8.818734066669993 7.520615180549907 L8.793102555670021 7.5332500685500285 L8.768401221669922 7.539089505549935 L8.757445817669964 7.538469387549963 L8.735741716669953 7.53314671555 L8.724786312669966 7.532164863550033 L8.721065609669967 7.534335273549939 L8.710420264669967 7.5438178985499995 L8.704425798669934 7.546401720550005 L8.697191097669975 7.545368191550022 L8.68602898866995 7.538314359550011 L8.680654638669996 7.536557359550027 L8.651183018669986 7.539632876550041 L8.58929070666996 7.5460916625500225 L8.562418961669966 7.54237095854992 L8.54598585666999 7.5272556015500065 L8.526348812669955 7.479635770549972 L8.509502295669979 7.40240534154999 L8.506298355670015 7.363363797549976 L8.50795200266997 7.323650459549992 L8.50485141667001 7.276004788549951 L8.485627783669987 7.235826361550021 L8.451521338670023 7.209109647549962 L8.358297054669993 7.1921081005500405 L8.326361018669918 7.160275418549997 L8.306310563669985 7.116582994549926 L8.297112158669979 7.0710560575499635 L8.280782405670028 7.03116185255001 L8.24801954766993 7.009044339549998 L8.16585402066993 6.978245185550033 L8.095884131669994 6.941296536549995 L8.06952915066994 6.932614896549946 L8.051442399669941 6.918300523549956 L8.046068050669977 6.869104560549982 L8.02756788766995 6.845540107549976 L8.013098486669993 6.873703763550022 L8.000696142669927 6.910032294550003 L7.992221207669945 6.947652737549927 L7.986330094669927 7.024237210549938 L7.982092627669988 7.0275445015499365 L7.976408219669952 7.028888089549991 L7.9701036956699225 7.033590644549971 L7.957804704669985 7.050023749550032 L7.949639827669972 7.06356297455002 L7.945505712669944 7.079220934549976 L7.944885596669979 7.101700182549987 L7.687330257669987 7.105369208549984 L7.659735042669996 7.0972043325499605 L7.638754411669981 7.08092625654994 L7.628315771669963 7.061444241549946 L7.613949723669964 6.987857001549951 L7.60578484766994 6.971630602549947 L7.591832210669952 6.968685045549943 L7.56837111066996 6.981965888550047 L7.323528174669934 7.188671618549915 L7.3000670736699815 7.198490140549975 L7.28063673566989 7.192805732549939 L7.261206396669922 7.183323107549963 L7.237435237669945 7.181617784549996 L7.218728369669964 7.202650092549913 L7.142886541669941 7.442067332549993 L7.141937191670013 7.445064236549978 L7.12943149466999 7.454934435549955 L7.093712519670009 7.4551465885500185 L7.081579118669924 7.455218655549938 L7.051916845669939 7.4611872835499575 L7.0370340336699995 7.47364130454994 L7.013676286669965 7.5177729765499315 L6.997863298669972 7.533198392550016 L6.977502783669922 7.543352810549987 L6.93749677766998 7.55816402354996 L6.931510758669947 7.5603801955499215 L6.9020551926699225 7.57869949054999 L6.871772803670001 7.637016344549931 L6.843867529670024 7.653837023549908 L6.828054541670002 7.654767198549958 L6.815445491669993 7.653681993549963 L6.8036632646699955 7.654870551549987 L6.789917334669968 7.662389472550014 L6.776274756669966 7.677866564549941 L6.747749365670006 7.737940417549961 L6.722221208669953 7.773597154549943 L6.585071956669895 7.883848823549993 L6.4927778486699195 7.979527737549997 L6.4927778486699195 7.979682766549939 L6.471383805670018 8.010559435549933 L6.458774755669981 8.024021145549977 L6.442755062669948 8.032289375549933 L6.437380713669984 8.039084826549978 L6.435210303669993 8.067558540549921 L6.43159295266999 8.080606838549965 L6.413919612670003 8.082777249549945 L6.392112158669977 8.074948269549932 L6.370614762669947 8.071899360549988 L6.353561539669999 8.088254951549938 L6.34012566766994 8.105256497549956 L6.304778988669955 8.128872626549974 L6.294133642669965 8.145331570549953 L6.295993994669959 8.165614570549959 L6.306742692669974 8.181479235549968 L6.315527686669969 8.19892003155 L6.311083512669955 8.224034776549939 L6.293513525669982 8.245506335549958 L6.275840186669984 8.258554633550002 L6.268192073669996 8.272920681550001 L6.281317887669974 8.298216295549988 L6.301471696669938 8.317698310549982 L6.323795914670018 8.334932400549956 L6.342606136670002 8.354621121550007 L6.352838070669992 8.381286160549958 L6.348393896669978 8.40541905454992 L6.333201025669967 8.424926907550013 L6.3143908046699435 8.442910305549997 L6.299404638669972 8.462366482549978 L6.293203466669996 8.484018908549967 L6.29465040666999 8.503578437549987 L6.29816440466995 8.52290542354994 L6.298681169669993 8.544015245549968 L6.292066585669988 8.566391141549953 L6.270569189669959 8.608688301549943 L6.264161312670001 8.632872871550003 L6.265298193669923 8.646076199549906 L6.273566422669961 8.670234931549967 L6.274599951670029 8.680880276549953 L6.247831559669964 8.816737616549968 L6.240596858670005 8.829630886549975 L6.230158219669977 8.83438511854997 L6.2183759936699685 8.83642633755002 L6.207213883669925 8.841490628549987 L6.197188655669907 8.852161811549987 L6.17775831666994 8.881824083549954 L6.171557145669953 8.895182441549988 L6.156777685669925 8.938823188549943 L6.14747592766999 8.958563585550007 L6.132593115669965 8.979337511550039 L6.132593115669965 8.979492540549995 L6.093319026669991 9.04150425954995 L6.087221207670029 9.059591010549962 L6.059936052670014 9.079718981550013 L6.051151057670029 9.09504104354998 L6.0543549966700025 9.116331733549966 L6.057352230669909 9.130155179550027 L6.061072933669936 9.144495389550013 L6.044019710669988 9.161057685549931 L6.04307406566993 9.161078431549992 L6.043480966669949 9.160874981549977 L6.041365081669926 9.156154928550006 L6.034610523669971 9.151475566550015 L6.02557732066997 9.14931899155 L6.017520680669963 9.153184551550009 L6.007022633669965 9.161932923549966 L5.9980708106699465 9.172186829549968 L5.9941645606699465 9.180080710549998 L5.9922114356699465 9.188869772550003 L5.9833409926699685 9.208075501549967 L5.98065544566997 9.218248027549986 L5.981469247669952 9.228135723550007 L5.987979664669967 9.242580710549998 L5.987491383669965 9.251776673549966 L5.97870232066997 9.267483053550006 L5.967227711669966 9.272325176550009 L5.9537999766699725 9.270249981549977 L5.938907398669971 9.265367168549982 L5.9344314876699285 9.266587871549984 L5.9247472426699685 9.267442363550014 L5.917911305669963 9.264716126549967 L5.922224456669926 9.255194642549963 L5.9264562266699725 9.248602845549964 L5.9311762786699544 9.238023418549982 L5.933292164669967 9.228176413549999 L5.929060393669931 9.22386326254998 L5.92010857066997 9.226141908550016 L5.900740081669926 9.235826152549986 L5.887719247669952 9.238104798549966 L5.8580968516699725 9.227037090549981 L5.8563064876699285 9.199530579549968 L5.8661534926699685 9.163926738550014 L5.870792164669967 9.128892559549978 L5.864607268669931 9.128892559549978 L5.857934091669949 9.16299086655 L5.835880055669963 9.18056899155 L5.8073156016699725 9.179022767549963 L5.7812739356699465 9.15550388754998 L5.784529143669931 9.151679017549963 L5.788760914669967 9.141913392549963 L5.780948414669967 9.139960267549963 L5.760928883669965 9.128892559549978 L5.765486174669934 9.115383444550002 L5.757266773669971 9.104234356549977 L5.730167164669967 9.083889303550006 L5.706241383669965 9.070542949549985 L5.7051020606699465 9.069647767549963 L5.69940544566997 9.053127585549998 L5.6881749766699725 9.031602520550006 L5.681013518669931 9.02269138754998 L5.6686437266699725 9.019029277549986 L5.657657398669971 9.014268535550013 L5.645531747669952 9.003526348550007 L5.6356033626699285 8.992011048549966 L5.630557789669967 8.984930970549964 L5.624372893669931 8.984930970549964 L5.624372893669931 8.991075176550009 L5.679141773669971 9.042710918549982 L5.692569508669965 9.059963522550003 L5.718611174669934 9.107652324549985 L5.722517424669934 9.130927064550018 L5.706241383669965 9.141913392549963 L5.712751799669934 9.155625957550011 L5.72284294566997 9.171535788549999 L5.734236174669934 9.18480076254998 L5.743839039669967 9.190293926550009 L5.753848805669963 9.199042298549966 L5.768904143669931 9.242011048549966 L5.7812739356699465 9.258612611550017 L5.777855966669949 9.26487888754998 L5.769880706669926 9.28721775455001 L5.7684158626699285 9.296454408550016 L5.7724034926699685 9.310777324549985 L5.7820877376699285 9.316392559549978 L5.793399586669966 9.319810527549986 L5.802432789669967 9.327500957550011 L5.8053624766699725 9.35081638754998 L5.7899816176699685 9.364813783550016 L5.7704503676699685 9.376532533550016 L5.760928883669965 9.39268650455001 L5.747257008669965 9.42308201254998 L5.737491383669965 9.427802064550018 L5.727969898669971 9.429551738550014 L5.6844314876699285 9.429511048549966 L5.627465341669949 9.42308201254998 L5.5418533626699285 9.42308201254998 L5.50018669566997 9.416978496549984 L5.480899586669966 9.417588848550007 L5.447615081669926 9.434963522550003 L5.428246591669949 9.437364238550014 L5.384219898669971 9.437364238550014 L5.213402841669949 9.457180319550002 L5.2039627376699285 9.451565085549998 L5.191267424669934 9.450059551550009 L5.179385914669967 9.45400649155 L5.171817555669963 9.464667298549966 L5.1825597426699685 9.464179017549963 L5.191837086669966 9.465155579549968 L5.199568206669926 9.467596986550017 L5.2059972426699685 9.471503236550017 L5.1844314876699285 9.477159160550013 L5.152042164669967 9.478827454549968 L5.122745289669967 9.474188783550016 L5.109805836669966 9.460923809549978 L5.09588982066997 9.457261699549985 L5.0073481536699544 9.451036113550014 L5.0106847426699685 9.446845033550016 L5.0125564876699285 9.443589824549985 L5.015323414669967 9.44066013754998 L5.020938648669971 9.437364238550014 L5.008243336669966 9.433457988550014 L4.996524586669966 9.435207663549999 L4.988223805669963 9.434556621549984 L4.986270680669963 9.42308201254998 L4.989688648669971 9.41722263754998 L4.996524586669966 9.412746725550004 L5.0034419036699544 9.406887350550004 L5.0073481536699544 9.396389303550006 L5.004418466669949 9.391465801550009 L4.986270680669963 9.368475892549963 L4.9892003676699685 9.364610332550011 L4.9936762786699544 9.354804017549963 L4.9785395606699465 9.337510723550007 L4.9819575286699544 9.312079408550016 L4.999942555669963 9.265367168549982 L4.9936762786699544 9.265367168549982 L4.9824458106699465 9.273667949549985 L4.97674919566997 9.277818340549981 L4.9694249766699725 9.286607402549986 L4.9663325286699544 9.296454408550016 L4.968611174669934 9.311265606549977 L4.971703622669952 9.322251934549978 L4.9716222426699685 9.332261699549985 L4.963321461669966 9.344224590549981 L4.96307732066997 9.350450176550009 L4.97674919566997 9.366807598550007 L4.9800044036699544 9.375230449549985 L4.97674919566997 9.377753236550017 L4.960147633669965 9.396389303550006 L4.950870289669967 9.403672832550011 L4.939395680669963 9.410061178550006 L4.928083831669926 9.411200501549967 L4.918480966669949 9.402574199549985 L4.9116450286699544 9.402574199549985 L4.9030187266699725 9.423204082550011 L4.881290211669966 9.420966126549967 L4.8466222426699685 9.402574199549985 L4.821638518669931 9.401231426550009 L4.7955968516699725 9.396063783550016 L4.7734614356699465 9.385606426550009 L4.760928883669965 9.368475892549963 L4.7548253676699685 9.372219382549996 L4.747989430669963 9.374335267549963 L4.729923023669971 9.375230449549985 L4.72674919566997 9.378322897550003 L4.7255284926699685 9.385321595549964 L4.722110523669971 9.392442363550014 L4.712589039669967 9.396389303550006 L4.712589039669967 9.402574199549985 L4.719180836669966 9.406643210549998 L4.726260914669967 9.410020488550014 L4.720076018669931 9.416327454549968 L4.732934091669949 9.420966126549967 L4.749942555669963 9.434556621549984 L4.777286305669963 9.440171856549977 L4.7821691176699685 9.447007793549982 L4.780704273669971 9.455878236550017 L4.774600758669965 9.464667298549966 L4.729923023669971 9.471503236550017 L4.725040211669966 9.466213522550003 L4.702579273669971 9.433661439550018 L4.6393468516699725 9.364732402549986 L4.630557789669967 9.344224590549981 L4.630557789669967 9.316962220549964 L4.6277908626699285 9.30752211655 L4.62128044566997 9.307481426550009 L4.607120289669967 9.314358053550006 L4.585310393669931 9.31456150455001 L4.5820551856699465 9.313218731549977 L4.5737544036699544 9.304022767549963 L4.555687997669952 9.289292949549985 L4.548038258669965 9.279120423549966 L4.531599456669926 9.23362888754998 L4.520694508669965 9.218248027549986 L4.519392424669934 9.228013652549986 L4.5143468516699725 9.237697897550003 L4.509138518669931 9.244452454549968 L4.5065343516699725 9.245510397550003 L4.5093012786699544 9.255682923549966 L4.5145909926699685 9.257432598550007 L4.521182789669967 9.258287090549981 L4.52753044566997 9.265367168549982 L4.537540211669966 9.299913066550015 L4.546817555669963 9.31456150455001 L4.5651281016699725 9.320665020550006 L4.596133961669966 9.336330710549998 L4.618594898669971 9.370429017549963 L4.622257008669965 9.403469382549996 L4.5963781016699725 9.416327454549968 L4.609236174669934 9.425442038549999 L4.624454273669971 9.439927715549981 L4.6334874766699725 9.457343079549968 L4.62713982066997 9.474921204549968 L4.599551930669963 9.505764303550006 L4.582462086669966 9.513332663549999 L4.561710133669965 9.504991191550015 L4.5612218516699725 9.520494121549984 L4.561710133669965 9.52549900455001 L4.54315544566997 9.516994772550003 L4.52948357066997 9.505927064550018 L4.5234614356699465 9.49111586655 L4.52753044566997 9.471503236550017 L4.514184091669949 9.483384746549984 L4.511579924669934 9.50010837955001 L4.517032398669971 9.517889954549968 L4.52753044566997 9.532945293549982 L4.500349456669926 9.539781231549977 L4.4928624766699725 9.539781231549977 L4.480818206669926 9.516465801550009 L4.47479607066997 9.49144138754998 L4.4721919036699544 9.440497376549967 L4.4559158626699285 9.413235007549996 L4.451114430669963 9.396470684549978 L4.462344898669971 9.388983704549968 L4.466739430669963 9.380764303550006 L4.471866383669965 9.362128236550017 L4.4746333106699465 9.341457663549999 L4.4721919036699544 9.327500957550011 L4.4774002376699285 9.329942363550014 L4.486677581669926 9.331651348550007 L4.4928624766699725 9.333726543549982 L4.486270680669963 9.322618145550006 L4.466169768669931 9.300157207550011 L4.461937997669952 9.28917087955001 L4.456973805669963 9.267564434549978 L4.452497893669931 9.258612611550017 L4.43378044566997 9.284288066550015 L4.427432789669967 9.284003236550017 L4.4233637786699544 9.267727194550002 L4.411563648669971 9.245510397550003 L4.406680836669966 9.260850566550015 L4.4091222426699685 9.284654277549986 L4.404727711669966 9.292710918549982 L4.415876799669934 9.308905579549968 L4.4381749766699725 9.368475892549963 L4.4277583106699465 9.368475892549963 L4.4207596126699285 9.36729587955001 L4.4155512786699544 9.36338962955001 L4.411563648669971 9.354804017549963 L4.407576018669931 9.357570944550002 L4.397891773669971 9.361639954549968 L4.389102711669966 9.342271465549981 L4.3784419036699544 9.325303691550015 L4.349470549669934 9.292710918549982 L4.351505055669963 9.309434551550009 L4.3563878676699685 9.322740215549981 L4.370466643669931 9.347317038549999 L4.378767424669934 9.357733704549968 L4.382510914669967 9.363877910550013 L4.384219898669971 9.371812481549977 L4.3803950286699544 9.380438783550016 L4.373477711669966 9.385321595549964 L4.370141122669952 9.391180970549964 L4.377383961669966 9.402574199549985 L4.3873937266699725 9.387111960549998 L4.405948414669967 9.382310527549986 L4.4238520606699465 9.386705059549978 L4.431990081669926 9.399522441550015 L4.422387216669949 9.468370098550007 L4.4245031016699725 9.491929668549982 L4.4599034926699685 9.562242168549982 L4.472598805669963 9.57823337955001 L4.471052581669926 9.587876934549978 L4.465193206669926 9.597479798549966 L4.455508961669966 9.601792949549985 L4.442406747669952 9.600083965549981 L4.4316645606699465 9.595323223550007 L4.4130284926699685 9.58681899155 L4.4135981536699544 9.591376283550016 L4.4149816176699685 9.595933574549985 L4.418399586669966 9.601792949549985 L4.396345549669934 9.594875632549996 L4.374372893669931 9.584825176550009 L4.351993336669966 9.579820293549982 L4.3289627376699285 9.588202454549968 L4.317569508669965 9.576524395550006 L4.309757008669965 9.56065525455001 L4.3081294036699544 9.542832988550014 L4.3152908626699285 9.52549900455001 L4.298201018669931 9.516669251549967 L4.2827387786699544 9.490464824549985 L4.271833831669926 9.458848613550014 L4.267520680669963 9.433661439550018 L4.269392424669934 9.415513652549986 L4.2743566176699685 9.405625957550011 L4.281192555669963 9.398586569550002 L4.2885981536699544 9.388983704549968 L4.29315544566997 9.378892559549978 L4.297305836669966 9.362779277549986 L4.294376148669971 9.34776462955001 L4.277774586669966 9.341172832550011 L4.25213982066997 9.326565085549998 L4.2343989356699465 9.29307712955001 L4.219099456669926 9.231309551550009 L4.216169768669931 9.206692038549999 L4.2195877376699285 9.193956035550013 L4.229923023669971 9.180080710549998 L4.236758961669966 9.167955059549978 L4.234236174669934 9.159328757549996 L4.225121591669949 9.158555645550006 L4.212833180669963 9.169826803550006 L4.20331169566997 9.158433574549985 L4.2001378676699685 9.15127211655 L4.198591643669931 9.141913392549963 L4.189965341669949 9.146226543549982 L4.1816645606699465 9.14769138754998 L4.173201018669931 9.146226543549982 L4.164493336669966 9.141913392549963 L4.1688878676699685 9.158840475550004 L4.1708409926699685 9.176906882549996 L4.175723805669963 9.191270488550014 L4.1884191176699685 9.197170553550006 L4.1972895606699465 9.204698223550007 L4.204532398669971 9.222520488550014 L4.212833180669963 9.258612611550017 L4.216739430669963 9.296006816550015 L4.221133961669966 9.313340801550009 L4.229923023669971 9.320665020550006 L4.242618336669966 9.32737888754998 L4.255720549669934 9.343125957550011 L4.2743566176699685 9.375230449549985 L4.251895680669963 9.394395488550014 L4.2470128676699685 9.402574199549985 L4.2450597426699685 9.416652975550004 L4.264997893669931 9.515000957550011 L4.2749262786699544 9.544419902549986 L4.2885981536699544 9.560289043549982 L4.286482268669931 9.583482402549986 L4.30682732066997 9.601060527549986 L4.319685393669931 9.615586895550006 L4.294864430669963 9.629136699549985 L4.263533049669934 9.634751934549978 L4.2234939876699285 9.637437481549977 L4.1864659926699685 9.634141582550011 L4.164493336669966 9.621690410550013 L4.161482268669931 9.607286113550014 L4.165225758669965 9.548244772550003 L4.17010857066997 9.541001934549978 L4.171329273669971 9.53636326254998 L4.169132008669965 9.531114238550014 L4.159854664669967 9.523301738550014 L4.157657398669971 9.519273418549982 L4.157657398669971 9.48448337955001 L4.161319508669965 9.468370098550007 L4.18378044566997 9.408555645550006 L4.185977711669966 9.397813457550011 L4.185001148669971 9.368475892549963 L4.1660395606699465 9.391750632549996 L4.150740081669926 9.433824199549985 L4.143985523669971 9.479152975550004 L4.150821461669966 9.512437481549977 L4.146426930669963 9.52073826254998 L4.145938648669971 9.540391582550011 L4.143985523669971 9.553453106549977 L4.134626799669934 9.530910788549999 L4.1315343516699725 9.517157533550016 L4.128767424669934 9.455796856549977 L4.123477711669966 9.443589824549985 L4.119652841669949 9.450344382549996 L4.115095549669934 9.456122376549967 L4.109724456669926 9.460801738550014 L4.102969898669971 9.464667298549966 L4.1083409926699685 9.478827454549968 L4.109236174669934 9.52549900455001 L4.113223805669963 9.541734356549977 L4.125349456669926 9.563462871549984 L4.133324716669949 9.582668600550004 L4.1434158626699285 9.61729587955001 L4.143985523669971 9.629136699549985 L4.136579924669934 9.639797507549996 L4.126407398669971 9.643296856549977 L4.095564299669934 9.642808574549985 L4.067406747669952 9.645616191550015 L4.061547372669952 9.639634746549984 L4.050642424669934 9.607326803550006 L4.0477127376699285 9.576402324549985 L4.04901482066997 9.530870098550007 L4.044783049669934 9.494289694550002 L4.029727711669966 9.468492168549982 L3.999372893669931 9.471503236550017 L4.027286305669963 9.493516582550011 L4.03729607066997 9.528713522550003 L4.033633961669966 9.569444316550015 L4.0204503676699685 9.608018535550013 L4.0184972426699685 9.641465801550009 L3.9687739356699465 9.65322524155 L3.910668466669949 9.64769138754998 L3.883243336669966 9.629136699549985 L3.8698156016699725 9.631496725550004 L3.8566320086699646 9.635362285550013 L3.8642003676699685 9.654120423549966 L3.84784294566997 9.660386699549985 L3.822777841669949 9.661973613550014 L3.8043859146699672 9.666734356549977 L3.7851801856699465 9.675157207550011 L3.7392003676699685 9.676418600550004 L3.7194249766699725 9.683742819550002 L3.695743336669966 9.655870098550007 L3.7160070086699646 9.61338962955001 L3.78143669566997 9.539781231549977 L3.7684158626699285 9.538682598550007 L3.760277841669949 9.536770163549999 L3.75409294566997 9.536444642549963 L3.7461176856699465 9.539781231549977 L3.711937997669952 9.580715475550004 L3.707380706669926 9.526841777549986 L3.6914301856699465 9.478339173549966 L3.6852452896699672 9.478339173549966 L3.684105966669949 9.498195944550002 L3.685896331669926 9.523586569550002 L3.6906163836699646 9.548448223550007 L3.698266122669952 9.566473939550018 L3.688500497669952 9.55674900455001 L3.680118336669966 9.545884746549984 L3.6688064876699285 9.536973613550014 L3.65057732066997 9.532945293549982 L3.6613195086699646 9.556260723550007 L3.672224456669926 9.571763652549986 L3.679060393669931 9.588365215549981 L3.6777583106699465 9.614854473550007 L3.671247893669931 9.634426413549999 L3.6640864356699465 9.649034160550013 L3.6579015396699672 9.653632142549963 L3.6496007586699646 9.656317689550018 L3.643578622669952 9.662177064550018 L3.6437413836699646 9.676337220549964 L3.651716643669931 9.672471660550013 L3.6580642996699337 9.672471660550013 L3.6715734146699672 9.676337220549964 L3.6659581806699633 9.685777324549985 L3.6376378676699685 9.695380189550018 L3.6005284926699685 9.69737400455001 L3.5753820086699646 9.690578757549996 L3.5719640396699672 9.69542087955001 L3.565453622669952 9.700018861550017 L3.5617101336699646 9.704209941550015 L3.5455968516699725 9.698228496549984 L3.5366450286699544 9.688137350550004 L3.5332270606699465 9.674058574549985 L3.5338781016699725 9.655870098550007 L3.5380284926699685 9.639227845549964 L3.5514562266699725 9.615464824549985 L3.5542231536699544 9.601792949549985 L3.5496658626699285 9.603746074549985 L3.5385981536699544 9.60635024155 L3.5338781016699725 9.608018535550013 L3.5340408626699285 9.592271465549981 L3.537621591669949 9.565253236550017 L3.526716643669931 9.564073223550007 L3.5162999766699725 9.561387676550009 L3.504337086669966 9.556504863550014 L3.4922114356699465 9.560289043549982 L3.4892003676699685 9.570461569550002 L3.4910721126699285 9.58519138754998 L3.495466643669931 9.599351543549982 L3.4996984146699672 9.608018535550013 L3.495466643669931 9.621161439550018 L3.5008377376699285 9.632147767549963 L3.5089757586699646 9.643947897550003 L3.5133702896699672 9.659572897550003 L3.5106847426699685 9.681138652549986 L3.5028722426699685 9.680080710549998 L3.4910721126699285 9.669745423549966 L3.475935393669931 9.66331638754998 L3.4537999766699725 9.662258444550002 L3.445824716669949 9.656968731549977 L3.444359872669952 9.621690410550013 L3.4503820086699646 9.620103496549984 L3.452172372669952 9.617173809549978 L3.4391515396699672 9.597805319550002 L3.4375239356699465 9.594346660550013 L3.4363846126699285 9.577460267549963 L3.4375239356699465 9.560289043549982 L3.4315017996699337 9.560289043549982 L3.42401482066997 9.594346660550013 L3.4188878676699685 9.58995212955001 L3.4035070086699646 9.580715475550004 L3.4186437266699725 9.614854473550007 L3.4217361746699337 9.631578106549977 L3.41034294566997 9.642808574549985 L3.3952062266699725 9.641180970549964 L3.3798253676699685 9.631252585549998 L3.3670486746699337 9.620184876549967 L3.3590734146699672 9.614854473550007 L3.3388097426699685 9.60753025455001 L3.3164301856699465 9.58909763754998 L3.3045486746699337 9.564764954549968 L3.314802581669926 9.539781231549977 L3.3035721126699285 9.538886048549966 L3.2964106536699544 9.541978496549984 L3.293399586669966 9.549180645550006 L3.294294768669931 9.560289043549982 L3.2880284926699685 9.560289043549982 L3.27167107066997 9.543524720549964 L3.2313064876699285 9.52041274155 L3.219180836669966 9.504991191550015 L3.2260981536699544 9.509385723550007 L3.239281747669952 9.515204408550016 L3.246443206669926 9.519273418549982 L3.238712086669966 9.506659486550017 L3.2265864356699465 9.500840801550009 L3.2125890396699672 9.497422832550011 L3.198673023669971 9.491929668549982 L3.1772700286699544 9.468736309549978 L3.1696202896699672 9.458116191550015 L3.142927581669926 9.430772441550015 L3.1365799246699337 9.426499981549977 L3.0438064876699285 9.339911439550018 L3.01581169566997 9.301133770550006 L3.006208831669926 9.258612611550017 L3.0104406016699725 9.259996074549985 L3.0135330496699337 9.261338848550007 L3.0204503676699685 9.265367168549982 L3.0203689876699285 9.246812481549977 L2.9765864356699465 9.219875632549996 L2.965274586669966 9.200588522550003 L2.960391773669971 9.184556621549984 L2.9352452896699672 9.141343731549977 L2.924340341669949 9.128892559549978 L2.958438648669971 9.14931899155 L2.9498937266699725 9.125474590549981 L2.9179113056699633 9.089585918549982 L2.8901606536699544 9.012193340549981 L2.881290211669966 8.965481100550004 L2.8759191176699685 8.95010024155 L2.8631424246699337 8.92393650455001 L2.857771331669926 8.908799785550013 L2.8554113056699633 8.892076152549986 L2.8522374766699725 8.884507793549982 L2.845157398669971 8.876858053550006 L2.838240081669926 8.866604147550003 L2.8349034926699685 8.85081638754998 L2.8397863056699633 8.838690736550017 L2.85174919566997 8.833970684549978 L2.86737419566997 8.835110007549996 L2.8827550556699633 8.840236960549998 L2.893578622669952 8.849270163549999 L2.9116450286699544 8.874091126549967 L2.924340341669949 8.881822246549984 L2.9091222426699685 8.842596986550017 L2.9031814876699285 8.827256816550015 L2.9245031016699725 8.82933201254998 L2.944766773669971 8.834052064550018 L2.9374425556699633 8.822170553550006 L2.9100988056699633 8.79222263754998 L2.899763518669931 8.786241191550015 L2.8960200286699544 8.790432272550003 L2.896915211669966 8.808742819550002 L2.8932531016699725 8.812893210549998 L2.883812997669952 8.813218731549977 L2.8768142996699337 8.814317363550014 L2.8622472426699685 8.819729147550003 L2.849063648669971 8.814032533550016 L2.8250564876699285 8.818182923549966 L2.8144770606699465 8.812893210549998 L2.8125239356699465 8.80479587955001 L2.8144770606699465 8.768622376549967 L2.810001148669971 8.722398418549982 L2.7890864356699465 8.632432598550007 L2.7946202896699672 8.619208314550018 L2.8178950286699544 8.614325501549967 L2.884219898669971 8.613023418549982 L2.9031814876699285 8.60753025455001 L2.905704273669971 8.616807598550007 L2.90838982066997 8.623399395550006 L2.9169347426699685 8.635484356549977 L2.9249913836699646 8.629055319550002 L2.9325597426699685 8.614081361550017 L2.938012216669949 8.60753025455001 L2.943790211669966 8.603501934549978 L2.9785395606699465 8.589992819550002 L2.9949783626699285 8.586900371549984 L3.010196461669966 8.587510723550007 L3.0204503676699685 8.594387350550004 L3.026798023669971 8.594387350550004 L3.0192296646699672 8.581692038549999 L2.9953038836699646 8.560858704549968 L2.985782398669971 8.546047507549996 L2.9821202896699672 8.53213149155 L2.980818206669926 8.51573337955001 L2.982852711669966 8.499986309549978 L2.9892003676699685 8.488023418549982 L3.002465341669949 8.479478496549984 L3.0176020606699465 8.476467428550006 L3.05096794566997 8.477118470549964 L3.062930836669966 8.471421856549977 L3.074649586669966 8.458482402549986 L3.0888097426699685 8.436184225550004 L3.072777841669949 8.442776022550003 L3.0594314876699285 8.454454082550011 L3.04510857066997 8.46214451254998 L3.026798023669971 8.456651348550007 L3.0241124766699725 8.461534160550013 L3.01776482066997 8.465928691550015 L3.013044768669931 8.470933574549985 L2.9899327896699672 8.465888001549967 L2.9660070086699646 8.47776951254998 L2.9520909926699685 8.499904928550006 L2.958438648669971 8.525621074549985 L2.9469640396699672 8.549953757549996 L2.93378044566997 8.564846335549998 L2.9175044036699544 8.568589824549985 L2.8963455496699337 8.559678691550015 L2.8904861746699337 8.552883444550002 L2.88885857066997 8.546495098550007 L2.88495232066997 8.541734356549977 L2.872501148669971 8.539862611550017 L2.8672114356699465 8.545559225550004 L2.8699783626699285 8.558580059549978 L2.876407398669971 8.572414694550002 L2.8827550556699633 8.580796856549977 L2.8248937266699725 8.577541647550003 L2.7121007586699646 8.539862611550017 L2.707380706669926 8.534532207550011 L2.7028234146699672 8.523586569550002 L2.6990799246699337 8.518174785550013 L2.6675044036699544 8.489244121549984 L2.646915211669966 8.474921204549968 L2.6395096126699285 8.453518210549998 L2.6373937266699725 8.432237285550013 L2.640079273669971 8.422512350550004 L2.646833831669926 8.418809551550009 L2.663109872669952 8.401231426550009 L2.6717361746699337 8.395168600550004 L2.679141773669971 8.393866517549963 L2.7770421646699672 8.397935527549986 L2.8141515396699672 8.404039043549982 L2.8349034926699685 8.415757793549982 L2.8417394306699633 8.415757793549982 L2.8515050556699633 8.40159763754998 L2.8681066176699685 8.365831035550013 L2.8759191176699685 8.354234356549977 L2.88885857066997 8.348700501549967 L2.904727711669966 8.348985332550011 L2.9199458106699465 8.353583314550018 L2.9306066176699685 8.361070293549982 L2.9332921646699672 8.36839451254998 L2.938907398669971 8.390529928550006 L2.9414301856699465 8.395168600550004 L2.9518468516699725 8.394598939550018 L2.9569738056699633 8.39183201254998 L2.9585200286699544 8.385728496549984 L2.958438648669971 8.374742168549982 L2.9510330496699337 8.359117168549982 L2.934024586669966 8.342027324549985 L2.9137609146699672 8.327745098550007 L2.8963455496699337 8.320136048549966 L2.877383961669966 8.320542949549985 L2.8678624766699725 8.330471335549998 L2.8554113056699633 8.361070293549982 L2.8449132586699646 8.370469707550011 L2.828555836669966 8.378404277549986 L2.8104080496699337 8.382717428550006 L2.7938878676699685 8.381578106549977 L2.7749262786699544 8.370957988550014 L2.7667882586699646 8.356797832550011 L2.7671137786699544 8.339707988550014 L2.7858312266699725 8.285223939550018 L2.788109872669952 8.270494121549984 L2.786482268669931 8.251817363550014 L2.780297372669952 8.251817363550014 L2.752953622669952 8.326320944550002 L2.7421300556699633 8.346055645550006 L2.7291906016699725 8.358873027549986 L2.711937997669952 8.365831035550013 L2.688012216669949 8.367906231549977 L2.677188648669971 8.370754538549999 L2.6538325286699544 8.384385723550007 L2.6286046646699672 8.39378513754998 L2.622501148669971 8.390977520550006 L2.6090734146699672 8.381578106549977 L2.5937739356699465 8.367743470549964 L2.5780675556699633 8.348252910550013 L2.5656163836699646 8.327541647550003 L2.5561762786699544 8.299384095549964 L2.5467361746699337 8.285508770550006 L2.537540211669966 8.267645814550018 L2.5338781016699725 8.244371074549985 L2.5363195086699646 8.224270163549999 L2.542341643669931 8.201646465549981 L2.5516189876699285 8.183173158550016 L2.563907398669971 8.175442038549999 L2.5753820086699646 8.179348288549999 L2.5954015396699672 8.195298809549978 L2.602888518669931 8.197170553550006 L2.6080968516699725 8.190782207550011 L2.605899586669966 8.181871074549985 L2.601993336669966 8.171739238550014 L2.602888518669931 8.161851543549982 L2.6343012786699544 8.134345033550016 L2.7163325286699544 8.104478496549984 L2.739281747669952 8.066270488550014 L2.7184484146699672 8.069973288549999 L2.6842687266699725 8.100450176550009 L2.64471794566997 8.112372376549967 L2.568871591669949 8.152207988550014 L2.5543859146699672 8.162706035550013 L2.5039301856699465 8.209784486550017 L2.493594898669971 8.208889303550006 L2.4562413836699646 8.127183574549985 L2.3348221126699285 7.969834941550015 L2.3143956806699633 7.950751283550016 L2.2750890396699672 7.933824199549985 L2.256859872669952 7.91331638754998 L2.2316320086699646 7.873846986550017 L2.196719898669971 7.837510723550007 L2.1659581806699633 7.812730449549985 L2.0907628676699685 7.765489238550014 L2.057641122669952 7.744615215549981 L1.9962804456699699 7.687323548549966 L1.9579503676699685 7.662828106549977 L1.9419184666699492 7.655829408550016 L1.8544347426699685 7.617499329549968 L1.7908767996699337 7.605780579549968 L1.5747309666699492 7.566026348550007 L1.3191971126699285 7.544745423549966 L0.8925206806699633 7.566026348550007 L0.8700597426699685 7.562364238550014 L0.8577713316699258 7.553453106549977 L0.8480057066699258 7.542344707550011 L0.8338455496699337 7.531846660550013 L0.8432042736699712 7.527004538549999 L0.8499588316699258 7.525376934549978 L0.8558182066699258 7.526923158550016 L0.8617589616699659 7.531846660550013 L0.8773839616699659 7.5176458145500185 L0.8831619566699258 7.523016908550016 L0.8851964616699659 7.538072246549984 L0.8891027116699659 7.552964824549985 L0.9242589616699659 7.520819642549963 L0.9301183366699659 7.52159275455001 L0.9335363056699633 7.529527324549985 L0.9413488056699633 7.529893535550013 L0.9542882586699646 7.525010723550007 L0.9733312266699725 7.524563132549996 L0.9902583106699465 7.5215520645500185 L1.0057205496699337 7.513414043549982 L1.0194738056699633 7.497666973550007 L1.0213455496699337 7.486802715549981 L1.0190669036699544 7.475694316550015 L1.0197179456699699 7.467027324549985 L1.029727711669966 7.463527975550004 L1.0702550556699633 7.463527975550004 L1.0916580496699337 7.459296204549968 L1.1356847426699685 7.445298809549978 L1.1491124766699725 7.4492864395500185 L1.1715734146699672 7.440415996549984 L1.1915929456699699 7.428575176550009 L1.2057531016699725 7.412583965549981 L1.2111241956699699 7.391221660550013 L1.2235753676699685 7.386298158550016 L1.3068273206699699 7.374172507549996 L1.2991775816699258 7.368272441550015 L1.2929113056699633 7.365546204549968 L1.2868077896699672 7.365383444550002 L1.2794835706699699 7.367336569550002 L1.2225988056699633 7.353990215549981 L1.1663650816699258 7.375230449549985 L1.1127355236699712 7.406154928550006 L1.0641515396699672 7.42198337955001 L1.0459223726699518 7.422105449549985 L1.035587086669966 7.423488913549999 L1.000430836669966 7.442206361550017 L0.9889562266699725 7.446275371549984 L0.9772374766699725 7.448594707550011 L0.9642166436699311 7.4492864395500185 L0.9618566176699685 7.446926413549999 L0.9491613056699633 7.442450501549967 L0.9369542736699712 7.443101543549982 L0.9305252376699285 7.438055970549964 L0.9274327896699672 7.434922832550011 L0.9232823986699712 7.42198337955001 L0.9222244566699258 7.409735658550016 L0.9291417736699712 7.388291973550007 L0.9301183366699659 7.374172507549996 L0.9129471126699285 7.384141582550011 L0.9008214616699659 7.3945989395500185 L0.8788488056699633 7.418565410550013 L0.8707921646699672 7.421617168549982 L0.8602127376699285 7.422024069550002 L0.8512609146699672 7.424221335549998 L0.8475174246699337 7.43252211655 L0.8489822686699311 7.43956150455001 L0.8545161226699518 7.454250632549996 L0.8549230236699712 7.463527975550004 L0.8509353936699311 7.474188783550016 L0.8368566176699685 7.495673158550016 L0.8338455496699337 7.507676738550014 L0.8300206806699633 7.514756816550015 L0.8227778416699492 7.520249981549977 L0.8187088316699258 7.526353496549984 L0.8239171646699672 7.53526462955001 L0.8287999766699725 7.540513652549986 L0.8314855236699712 7.545640606549977 L0.8330317476699518 7.551581361550017 L0.8384028416699492 7.556382793549982 L0.8334386486699712 7.578680970549964 L0.7750890396699672 7.584947246549984 L0.6631098726699518 7.579657533550016 L0.5312739356699465 7.594875632549996 L0.37665153966996723 7.587266582550011 L0.1527478410122738 7.608020445874143 L0.1531648116700124 7.547073513549986 L0.16082698666999118 7.502324283549978 L0.1643269206699527 7.481883694549975 L0.16770973266996503 7.4720743385499695 L0.18623772866998234 7.4183475215500145 L0.1883047856699589 7.39718602254997 L0.1797264976699351 7.355018053550008 L0.1800365566700064 7.334528347549945 L0.19150872367002858 7.313030951550001 L0.2095954756699312 7.2969854195499515 L0.22189446666998247 7.288898058549943 L0.22747552066998633 7.277606757549972 L0.2241682286699982 7.231485542549944 L0.2222045256699685 7.221331123549984 L0.21631341166996076 7.216809435549958 L0.2039110686699983 7.215646715550033 L0.1936791346699236 7.212597806550004 L0.18520419966999935 7.206525825549971 L0.1775560876700295 7.196371405550007 L0.17249179766996559 7.176656847549946 L0.17517897166998164 7.155004421549972 L0.185824316669982 7.11306899754997 L0.18086337967001764 7.071159410549978 L0.1673241536699548 7.032815497549972 L0.16401686266995608 6.996538642550004 L0.18995843166992454 6.960571845549946 L0.20163730566996474 6.955042467549941 L0.21445305966996653 6.951270088549915 L0.22468499366995598 6.945844062550034 L0.22861240267001204 6.935043687550003 L0.22282464166993332 6.92558690155003 L0.19657301466999666 6.904141181549999 L0.18799472666997286 6.8933924835499845 L0.18417067067001636 6.8803700225499504 L0.18520419966999935 6.873445380549963 L0.18954501966998105 6.866779120550046 L0.1987434246699875 6.847813870549995 L0.2067015956699434 6.837478583549991 L0.21000888766995995 6.828021796550015 L0.2110424156699251 6.8141725125499555 L0.1900617836699494 6.568192694549932 L0.19254225267001157 6.557133938549921 L0.20019036566997084 6.5527414415500225 L0.21062900367001003 6.5528447945499515 L0.2322297526699968 6.557133938549921 L0.23543369166997064 6.555118557549971 L0.23615716166996759 6.549485826549951 L0.23853427766990176 6.540545803550014 L0.24122145266993567 6.498739570549954 L0.21910393866993427 6.462100979549998 L0.18954501966998105 6.427012681549964 L0.16949456366994564 6.38980565154996 L0.1642235686700131 6.3505832395500015 L0.16654769067001762 6.317823220549965 L0.17610914766995034 6.18304824554998 L0.1733186196699874 6.16868219754998 L0.164430273669967 6.154316149549967 L0.1404524096699502 6.127702786550028 L0.1291869476699956 6.099022366550042 L0.12112542366999701 6.086775051550017 L0.12060105666994314 6.082937641549943 L0.11998854166999973 6.078455146549967 L0.12226230467000487 6.070807034549983 L0.13249423866999432 6.0517384305499995 L0.13600823566993636 6.042850084549979 L0.13983229266999597 5.97980483754996 L0.15244134166993017 5.9164753695499535 L0.1546117516700063 5.856685737550006 L0.1572989266699265 5.838392280549936 L0.16505039066994964 5.82146824855003 L0.17548903066996768 5.8047767615499986 L0.18334384866999454 5.786405789549999 L0.1838606126699629 5.764469143550041 L0.17703932266998645 5.7431784535499695 L0.15740227866995138 5.70155308754995 L0.14965081466995667 5.679487250549965 L0.1460334646699719 5.655664415549989 L0.14727369866999407 5.63651829754998 L0.15492181066999233 5.5950996375500175 L0.15492181066999233 5.58582371755001 L0.15244134166993017 5.567349392549982 L0.15264804666996934 5.5584868855499785 L0.15791904366999443 5.54598118754998 L0.17786614666993028 5.523631131549916 L0.185824316669982 5.511848904550003 L0.1936791346699236 5.478078356550025 L0.19134522066998993 5.448890675549986 L0.1718554946699724 5.205154180549936 L0.17176832766996863 5.204064073549983 L0.17207838566993683 5.193444567549999 L0.17776279367000125 5.185899808550044 L0.19460931066997755 5.178225858549961 L0.1999836586699244 5.172954861549936 L0.2012238936699644 5.164092353549929 L0.19605625066997145 5.148718615549949 L0.19481601567001672 5.139856106549939 L0.1985367186699305 5.124430691550042 L0.2110424156699251 5.095956977549999 L0.21145582766995386 5.080686591549959 L0.20763177166999736 5.07371027354996 L0.2026708336699583 5.071953275549983 L0.1984333666699909 5.06975702654999 L0.1966763676699257 5.061566312549967 L0.19915683666990258 5.059499254550001 L0.21042229866997086 5.0426785765499424 L0.21362623767002997 5.036606594549976 L0.21910393866993427 5.009218086550032 L0.22127434966999981 4.945836941550009 L0.2180704106699407 4.9193269325500175 L0.29517164766999127 4.925605618550019 L0.30860752066995456 4.923745267550014 L0.3182193356699541 4.916665595549997 L0.326694271669953 4.907828926549993 L0.33733961566996395 4.90100763655003 L0.3480883136699786 4.898992256549985 L0.3787841156700038 4.898010403549929 L0.38963616566995807 4.899302314549981 L0.40059156967002973 4.904469957549974 L0.41030673866997613 4.911058702549976 L0.42033196666999384 4.915864610549971 L0.4320108406699772 4.915761257550042 L0.5003270846699364 4.89816543254997 L0.5249250656699358 4.8812155635499686 L0.5402212896699607 4.849951322549966 L0.573500911669913 4.747373603549999 L0.594068131670002 4.70851292654994 L0.600269303669978 4.687739001549996 L0.6003726566699354 4.6228075635499515 L0.5969620126699793 4.6061160765500055 L0.5842496096699277 4.574696805549973 L0.5775316736700118 4.546791531549996 L0.5814590826699826 4.519092963549976 L0.6006827156700068 4.488216295549986 L0.6079174156699763 4.482893623549938 L0.6240404626699556 4.47749343554997 L0.6314818686699821 4.471033882550014 L0.6924600586699396 4.391968940550026 L0.6935969406699369 4.386801297550019 L0.6883259436699118 4.374063056549968 L0.687085709669975 4.367319282550024 L0.6946304696699199 4.342669623549934 L0.7107535156699951 4.33776036355 L0.7302872076700053 4.341377713549985 L0.747960547669936 4.342411241549964 L0.7805166996699766 4.324350328549965 L0.7875446946699638 4.298150377549941 L0.7795865236699226 4.267738797549978 L0.7672875326699566 4.236939643549999 L0.7637735356699293 4.217276760549961 L0.7660472986699345 4.1946424845500125 L0.7748322916699122 4.174643703549986 L0.7909553396699947 4.162783962550048 L0.8628889326699491 4.133535102549924 L0.9018529626700227 4.123277330549936 L0.962004329669969 4.129762723549984 L0.9796776696699849 4.113407131549945 L1.0060326506699537 4.0658131375500055 L1.0383820966700226 4.0275467405500045 L1.0485106776699693 4.007677152550013 L1.0547118486699558 3.9222560085500042 L1.0612230796699462 3.9060812855500124 L1.0767260096700282 3.8913793405500137 L1.0912987636699993 3.8844805365499404 L1.1038044596700045 3.875256293549935 L1.112899512669986 3.8533196485499808 L1.1137366266699642 3.847718368549973 L1.1164135086699387 3.8298068715499873 L1.1135196296699403 3.814174750549949 L1.1045279306699909 3.801591540549932 L1.0365217446700283 3.7321900915499633 L1.022259049669958 3.709374945549964 L1.0213288746699787 3.690668077549983 L1.0418960946699825 3.645425361549993 L1.0671141936699255 3.6070297725499607 L1.0710416016699922 3.59514419255002 L1.0720751306699752 3.575455471549983 L1.0748656576699487 3.569099270549952 L1.0814802406700208 3.5597199985500048 L1.1010139326699457 3.5405738805499958 L1.1206509766699808 3.5342951935499904 L1.1417349606700098 3.537990059549994 L1.2058137376700016 3.571114651550001 L1.2214200206699557 3.568737536549957 L1.236612890669977 3.5500048285499695 L1.2432274746699816 3.531504666550031 L1.2442610026699752 3.4798799105500073 L1.2532527026699993 3.4532148705499672 L1.278780859669939 3.403295437549996 L1.2863256186698946 3.376475369550004 L1.2861522666699612 3.3457631015500304 L1.2860155606700117 3.321543321549992 L1.2810546226699726 3.2924494905499806 L1.2718562176699661 3.2731225055499316 L1.2591438156700177 3.2658878045499726 L1.2449844726699721 3.263252306549955 L1.232168717669981 3.259402412549999 L1.2227636076699353 3.248317817549985 L1.213358496669957 3.215503282549971 L1.208397559669936 3.2047804225499696 L1.2008527996699625 3.1962021355499353 L1.1920678066699848 3.1889157585499497 L1.1840062826699862 3.1805958525499953 L1.1789419926699223 3.1686585975500456 L1.1801822266699444 3.151346992549943 L1.2018863286699455 3.098688707549936 L1.2030232096699534 3.0692331415500256 L1.182455989669978 2.9801688105499373 L1.182455989669978 2.9799104275499637 L1.172224056669978 2.96283136755002 L1.1647826506699799 2.9444862335499487 L1.1607518886699664 2.9245132925500137 L1.1607518886699664 2.9028608675499292 L1.1709838226699558 2.864026028549983 L1.162612240669989 2.8560678585500163 L1.1544898626699363 2.855639176549982 L1.1533104816699504 2.8555769315499866 L1.14390537166999 2.857256415549937 L1.1356371416699629 2.8558869905499726 L1.1114525716699744 2.8332268745500038 L0.9322387046699872 2.5840689565500092 L0.9173558916699447 2.5568871535500186 L0.9155988936699542 2.5338911405499793 L0.935649349670018 2.4800959745499647 L0.941953874669923 2.464877265550026 L0.9538394536699455 2.4198154165499766 L1.023292578669941 2.3033367385500263 L1.0453067386699955 2.280599108550046 Z M4.989932789669967 9.491929668549982 L5.023135914669967 9.488511699549985 L5.03338982066997 9.491766908550016 L5.027774586669966 9.504991191550015 L5.018904143669931 9.516954082550011 L5.0014887786699544 9.520819642549963 L4.963321461669966 9.519273418549982 L4.9479406016699725 9.521877585549998 L4.898135914669967 9.539781231549977 L4.880720549669934 9.541571595549964 L4.807071461669966 9.537095684549978 L4.7916906016699725 9.529283184549978 L4.7858312266699725 9.516221660550013 L4.79510857066997 9.498195944550002 L4.805118336669966 9.49306899155 L4.853458180669963 9.478339173549966 L4.8652583106699465 9.48253025455001 L4.900821461669966 9.500840801550009 L4.918480966669949 9.504991191550015 L4.936710133669965 9.502997376549967 L4.9726801856699465 9.494004863550014 L4.989932789669967 9.491929668549982 Z M4.723087086669966 9.48448337955001 L4.768578622669952 9.479844707550011 L4.78143669566997 9.48448337955001 L4.769392424669934 9.49534763754998 L4.7632075286699544 9.507229147550003 L4.761173023669971 9.52073826254998 L4.760928883669965 9.53636326254998 L4.7566971126699285 9.551866191550015 L4.747257008669965 9.561631816550015 L4.733747893669931 9.570176738550014 L4.7195877376699285 9.575995423549966 L4.630557789669967 9.594346660550013 L4.5966222426699685 9.591294902549986 L4.586937997669952 9.57933201254998 L4.5966222426699685 9.560451803550006 L4.628604664669967 9.52659763754998 L4.6510656016699725 9.491929668549982 L4.670352711669966 9.469712871549984 L4.6745031016699725 9.46019138754998 L4.6784093516699725 9.443589824549985 L4.6920812266699725 9.451971986550017 L4.707462086669966 9.478827454549968 L4.723087086669966 9.48448337955001 Z" fill="black" stroke="black" stroke-width="0.5" vector-effect="non-scaling-stroke"/></svg>