<svg xmlns="http://www.w3.org/2000/svg" viewBox="0 0 16.13372839356 12.058009729320098"><path d="M3.6016328737800025 11.939793947660096 L3.5946048797800048 11.934057862660044 L3.585303121779984 11.918193198660038 L3.5769315387799994 11.913697349660016 L3.5734175417799436 11.906049236660042 L3.571453836779935 11.897212566660034 L3.567733133779993 11.88956445466005 L3.562668843779929 11.873751466660057 L3.55894814077993 11.86589664866003 L3.5545039667800014 11.861814211660022 L3.5489229127799975 11.85850691966002 L3.542204976779968 11.852667481660038 L3.5087186477799692 11.805590252660043 L3.500657125779978 11.798045493660002 L3.489495015779963 11.790397380660014 L3.452908101779994 11.777581626660027 L3.4080529587799306 11.750296469660018 L3.3968908497799903 11.74673079666005 L3.3861421517799757 11.740529623660056 L3.374359924779978 11.73825586166004 L3.360303934779947 11.746524089660088 L3.3468680627800014 11.752673585660066 L3.333018778779942 11.74915958866001 L3.3207197887799937 11.740994711660083 L3.312244852779995 11.733191570660072 L3.2979821577800097 11.716913494660051 L3.2751411747800008 11.679034669660059 L3.2678031217799317 11.660844565660017 L3.262842183779978 11.63815861166005 L3.260361714780001 11.61681624566005 L3.257261128779956 11.611441895660082 L3.243721903779968 11.601364992660056 L3.2406213177800085 11.596042319660004 L3.068642150779991 11.44178816866 L3.0281278287799838 11.383083742660038 L3.018309306779938 11.364480226659996 L3.0145886037799103 11.359260906660072 L3.006217020779954 11.356677084659982 L2.9730407507799415 11.35300805866007 L2.9612585247800185 11.348718914660015 L2.950199767780018 11.343086183659981 L2.9420348917799943 11.33471460066001 L2.935627014779951 11.312235353660004 L2.9278755497799667 11.299936362660052 L2.9178503217799205 11.28923934166004 L2.897489807780002 11.278490643660025 L2.849534078779979 11.236322674659977 L2.837648498780024 11.251515544659998 L2.8138773397799897 11.252342368660027 L2.8036454067799896 11.254357748659974 L2.7833882447799825 11.253634279660066 L2.7737764287799935 11.25549463066007 L2.7627176717799644 11.262625978660015 L2.7466979777799425 11.281436199660025 L2.737499572779936 11.288774253660026 L2.7270609337799927 11.291306397660012 L2.716518940780017 11.284330079660013 L2.7056668907799777 11.28846419466004 L2.700292541780013 11.29435530766003 L2.697398661780025 11.301538331659987 L2.6954349567799882 11.309393149660028 L2.6921276657799895 11.317144614660027 L2.678175028780001 11.338848716660028 L2.6690799767800373 11.344016359660035 L2.633836649779963 11.334766277660012 L2.62691200777999 11.336058188660065 L2.61492307578001 11.344791505660044 L2.608825256779963 11.347737062660034 L2.6038643187800092 11.347220298660009 L2.595286031779975 11.342259360660055 L2.591358622780004 11.341535890660058 L2.555805236779972 11.351044353660033 L2.5512577107800185 11.35393823366002 L2.542162658779941 11.362516521660059 L2.536478251780008 11.365875490659977 L2.5289334927799674 11.366392254660017 L2.5258329057800184 11.361896404660076 L2.5242826137799996 11.356418702659997 L2.521492086780026 11.354144940659982 L2.509709859779943 11.353731528660067 L2.500304748779965 11.35233626565999 L2.493276753779978 11.35517846866006 L2.48862587478001 11.367529135660025 L2.4829414677799635 11.377967775659958 L2.477877177779985 11.376314128660002 L2.472192769779949 11.37052636966003 L2.4647513637800076 11.368821046660063 L2.459583719779997 11.372541749660076 L2.451315491779977 11.383755535660033 L2.4489383757800143 11.386339357660024 L2.4361226197799484 11.38757959166006 L2.4131782837800104 11.38664941566002 L2.3994323527799652 11.388354738660073 L2.375247782780005 11.399310141660056 L2.3664627887800096 11.416673422660072 L2.3672896117799356 11.439411052660052 L2.37710813378001 11.495118246659988 L2.4108011677799626 11.588859295660047 L2.4163822227799843 11.598781169660047 L2.4235135697799963 11.606894370660047 L2.433848856779915 11.615214275660012 L2.4444942017800004 11.619968507660008 L2.454002665779993 11.622190593660012 L2.4605138957799655 11.626893149659995 L2.4625809537799315 11.639347170659978 L2.4619608357799594 11.656503745660036 L2.4546227827799756 11.658054038660058 L2.4441841437800322 11.654281658660029 L2.4341589147799967 11.655211834660083 L2.427234273780013 11.66239485866004 L2.4193794557799864 11.676864259659968 L2.4126615187799674 11.684357341660007 L2.403979878780004 11.686786134660057 L2.3945747677799405 11.685494223660019 L2.3860998327799594 11.687664633660095 L2.380415425779998 11.700532065660003 L2.381759013779967 11.71148746866007 L2.3934378877799505 11.728799073659989 L2.39540159077998 11.73903100766005 L2.343311747780004 11.695467775660024 L2.2640400997799732 11.586792237660081 L2.1937601527799844 11.490105633660026 L2.1190360317799817 11.38757959166006 L2.076144591779948 11.32866845866005 L2.0570243127799275 11.293631837660033 L2.059401427779986 11.264641358659976 L2.0744909467799717 11.252239015660084 L2.132161845779959 11.240456788660001 L2.1367093717799976 11.237046143660056 L2.143944071779967 11.227227621660095 L2.1502485967799574 11.223816977659983 L2.15324582877997 11.224798830660038 L2.1639945267799847 11.229914797660033 L2.169058817779981 11.230793296659972 L2.2284867147799305 11.225832358660018 L2.2431628217800013 11.222111655660004 L2.2501908167799316 11.211414633660002 L2.24822711177998 11.189400473660019 L2.248330464779909 11.184387859660053 L2.2515344037799965 11.173897543660008 L2.2515344037799965 11.169660077659959 L2.247503641779983 11.162115317660014 L2.234791239779949 11.148421062659995 L2.2291068317799985 11.140721274660084 L2.220941955779975 11.125218345659992 L2.2160843707800355 11.112505942660025 L2.2084362587799804 11.05225122266005 L2.2052323197800066 11.039642173660031 L2.1985143847799664 11.026102948660043 L2.1895226847799423 11.014940838660014 L2.171229227779972 11.00383040566 L2.160687235779986 10.995562176660048 L2.150041890780014 10.984813478660033 L2.1462178347799723 10.979439129659983 L2.1404300747799967 10.95995711465999 L2.1142817997799996 10.92993310666002 L2.0741808887800035 10.919287761660033 L1.97692584277996 10.911329591660067 L1.9677274367799642 10.916445558660048 L1.950777567779963 10.934739015660032 L1.9397188107799623 10.942025392660003 L1.9318639937800102 10.94057845266001 L1.9248359987799377 10.937219484660009 L1.9166711227799995 10.938924806660058 L1.9122269487799857 10.943730714660067 L1.9054056607799312 10.957114910660014 L1.888455790780026 10.98160953966006 L1.877913798779983 11.001349936660024 L1.8659248657800136 11.018506512660085 L1.8489749957799946 11.029461915659969 L1.831301655780007 11.03137394365999 L1.7046943967800106 11.020676922659977 L1.6022717077799742 11.011891928659995 L1.569095438779951 11.003416993659986 L1.541086812779949 10.98806909366002 L1.472357157779979 10.93117334166006 L1.4172700807799261 10.88569808166 L1.3358280227799897 10.81838952866001 L1.3100391357799568 10.797058968660014 L1.2359891567799624 10.735810589660066 L1.1761478477799843 10.686356243660033 L1.1192004197799266 10.639330690659964 L1.089021382779916 10.624577069660052 L1.017501199779983 10.618685955660045 L0.9887691047799737 10.60320886466005 L0.9798807577799639 10.587240846660013 L0.9769868777799761 10.568249757660045 L0.9768938827800159 10.549784504659986 L0.9765734657799757 10.486161744660041 L0.9760567017799221 10.39203312366006 L0.9756432907799112 10.307232098660027 L0.9887691047799737 10.26715702466004 L1.0099564417799316 10.270722698660013 L1.08995155877997 10.30198693966 L1.1436950477799686 10.315190268659993 L1.1659159147799274 10.324259482659958 L1.1728405557799961 10.322140748660079 L1.182865784779918 10.28795678866 L1.1876200157799106 10.276872193660072 L1.1928910117800315 10.27144616866001 L1.2109777627799732 10.276665488660019 L1.227307515779981 10.290954022660006 L1.246737854779977 10.300023236659971 L1.2739196577799676 10.289507082660013 L1.2547993777799578 10.268500611660006 L1.2395031537799044 10.257984457660047 L1.222656636779928 10.25379866766001 L1.1802819617799374 10.248656862660017 L1.1624019167799675 10.242920778660054 L1.0534679977799586 10.193621461660062 L1.020498433780003 10.169901979660015 L1.001791564780004 10.13951623666006 L0.9966239217800111 10.094454388660015 L0.9562129527799331 10.052363933660079 L0.9021594037799591 10.020634604659964 L0.8559606727798982 10.006966188660048 L0.8183402307799642 10.01053186266002 L0.8005635387799518 10.009601686660051 L0.7809264937799273 10.000274090660032 L0.7689375607799579 9.989137819660005 L0.7681107387800213 9.98252323566 L0.7715213827799491 9.97838912165999 L0.772244852779946 9.974694256659976 L0.77141802978002 9.968596437660015 L0.7716247357799918 9.960457399660005 L0.768730855780004 9.953532757660032 L0.7586022747799436 9.951465699660066 L0.6258971967799855 9.95559981466008 L0.5995422167800345 9.946685629660056 L0.5856929317799572 9.92177758966 L0.5900337527799567 9.90655888066006 L0.5997489217799884 9.885707440660003 L0.605743387780021 9.866845542659977 L0.5989220987799487 9.85746627066003 L0.5796984657800383 9.85054162766004 L0.56843300377997 9.838785239660044 L0.5582010707799984 9.82553023466004 L0.5245080367799321 9.803929485659982 L0.5093151657800067 9.790209393660053 L0.5051586237800026 9.78455187766001 L0.49722288077992716 9.773750449660074 L0.48874794577991765 9.755224448660048 L0.48089312777997606 9.74662032266001 L0.46004168777991794 9.733210288659965 L0.45386635278003695 9.725949749660078 L0.45329791378000295 9.715459433660033 L0.46148862777991184 9.697424358660033 L0.4619278767799503 9.688716879660067 L0.45115334077999336 9.676986329660085 L0.4336091927799518 9.668072145660066 L0.41709857277996065 9.657142580659997 L0.4091662397800039 9.639495078660008 L0.4070991817800379 9.62177006266008 L0.39660886677998264 9.612985068660084 L0.38358640577996284 9.606758057660006 L0.3743880007799564 9.59650028666002 L0.37428464778002735 9.587715293660029 L0.38255287677997984 9.571618084660049 L0.38368975877997713 9.565132692660004 L0.37945229177992446 9.556683595660008 L0.37397458877995604 9.551412599659972 L0.3676959027800396 9.546710044659992 L0.36149473077995 9.53986291666003 L0.3488081667800006 9.521233562660061 L0.3443898317800037 9.509787232659964 L0.3487048137799863 9.498030844660054 L0.37263100177997643 9.461779827660013 L0.3773852337799585 9.44992008665999 L0.38265622977999414 9.418965903659984 L0.3863510947799941 9.40989668966002 L0.39583372077998746 9.397933595660067 L0.3968672487799526 9.389639527660012 L0.39402504477999145 9.383955120660065 L0.3515986937799741 9.327989543660056 L0.20761503478001686 9.20002241665998 L0.1938822227800162 9.187817221660072 L0.16406492077990464 9.139448080660035 L0.15817380778 9.088856854659998 L0.22493975877995098 8.904346152660057 L0.21832517478003155 8.87393457165999 L0.1893346967799775 8.816005291660051 L0.1909883427800284 8.787376548660067 L0.20323565777993935 8.771770265660027 L0.2170849407800094 8.760763185660043 L0.22607664077994827 8.747353151659997 L0.22369952477992883 8.724589682660014 L0.2180151167799781 8.674851116659998 L0.218428527779989 8.650149782659998 L0.22649005177995918 8.639633628660025 L0.3584199837800074 8.672138103659965 L0.39226804577992624 8.672318971660008 L0.4240232137799441 8.665678549660004 L0.48874794577991765 8.643457683659978 L0.5200638637800213 8.642010744659988 L0.6752998667799065 8.695831748660002 L0.6890457967799622 8.69469486665999 L0.7166410117800385 8.688106121660002 L0.7451664027799981 8.677228232660045 L0.7744152637799547 8.66650537266003 L0.9273775027799874 8.661596112659996 L0.954559305779978 8.656015057660074 L0.9789505817799099 8.644310345660006 L1.0627697557799793 8.568449342659992 L1.1282954707799862 8.509253989660099 L1.2083939417799714 8.436777792660013 L1.2760900677799585 8.375670411660014 L1.3030651647799774 8.359831585660007 L1.33675819877993 8.351950929660067 L1.4104487917799675 8.349418784659978 L1.5069803667799961 8.346214845660004 L1.6036152947799538 8.342959229660028 L1.7001468717799613 8.339832806659974 L1.79667844677999 8.336577191659988 L1.8933133757799654 8.333373251660024 L1.989844950779994 8.33016931266005 L2.086583231779966 8.326991213660083 L2.183114807779984 8.323735597660093 L2.2797497357799417 8.320583334660046 L2.3762813107799703 8.31732771966006 L2.472916239780031 8.314149619660004 L2.5694478147799744 8.310971518660029 L2.666186096779964 8.307741741660056 L2.7627176717799644 8.30448612666007 L2.859352600780025 8.301359701660022 L2.9558841757799685 8.298104086660036 L3.0053901977799997 8.296450441660074 L3.010971252779936 8.28324711366 L3.0110746057799505 8.246272625660044 L3.013038309779998 8.227901653659973 L3.015518778779975 8.217902264660044 L3.0227534787800296 8.212734620660033 L3.038773173779984 8.209117270660048 L3.078253966780008 8.208367962660052 L3.1975231727799356 8.228056683660004 L3.385625386780018 8.25924341065998 L3.488564839779994 8.276270794660011 L3.494042541779973 8.278027793660076 L3.5123359987799434 8.281593466660045 L3.521741109780007 8.16638086066003 L3.5317663377800246 8.13961246866008 L3.6193062137800185 8.0878326836601 L3.6974409797799384 8.004116863660062 L3.7341312457800173 7.984686525660084 L3.813609598780002 7.969984580659986 L3.851333394779968 7.950270021660021 L3.8764481407799822 7.920762778660009 L3.879082088779964 7.914685120660028 L3.8917443647800356 7.885467774660032 L3.8997025357799915 7.846917156660044 L3.908694234779941 7.7492486996600185 L3.9151021117799845 7.730800213660007 L3.9302949827800235 7.707959230660084 L3.9884826457800076 7.651580242660078 L3.9894128217799762 7.64868636266009 L3.9900329397799483 7.645740805660001 L3.989826232779987 7.639642986660039 L3.9899295857800015 7.638196046660045 L3.989722879779973 7.63680078266005 L3.9892061157799192 7.635457195659985 L3.9884826457800076 7.634216961660048 L3.9760803017799704 7.604709718660036 L3.972152893779989 7.5770628276600185 L3.9763903607799564 7.549467612660113 L4.06579058878003 7.337232504660069 L4.080880106779941 7.314494874660074 L4.100000386780008 7.294754477660025 L4.123461486779999 7.277236167660067 L4.166973042779941 7.255583742660082 L4.181132385779958 7.242923016660047 L4.189193908779967 7.219513592660082 L4.188677144779914 7.109029379660047 L4.1882637327799985 7.022884767660049 L4.187540262780002 6.889094484660081 L4.18723020477992 6.8259458836600295 L4.189814025780035 6.8170575376600375 L4.20283648677997 6.797058758660075 L4.2072806607799835 6.786671795660073 L4.201802958779976 6.688434897660063 L4.203043192779941 6.670348146660064 L4.208934305780017 6.652778159660091 L4.2168924767799725 6.649522544660005 L4.227537821779973 6.649005780660065 L4.240870341780007 6.639704022660045 L4.240560282779936 6.534749187660015 L4.240250223780035 6.47165226365998 L4.239940165779953 6.348042238660003 L4.239526753779953 6.224380535659993 L4.2390099897799844 6.1007705096599985 L4.2385965787799735 5.977108806660102 L4.238286518779998 5.853447104660109 L4.237873107779987 5.729785401660013 L4.237640922779971 5.660333084660113 L4.237459696779976 5.606123699660021 L4.23714963877998 5.48246199766 L4.236736226779979 5.358826133660006 L4.236322815779968 5.235241945660039 L4.235909403779968 5.111528565660013 L4.235503598779954 4.990193110660034 L4.235495991779939 4.987918540660036 L4.235082580779928 4.864282676660043 L4.234669168779928 4.740620973660032 L4.234255757780002 4.6169851086600495 L4.2338423467799915 4.493323406660057 L4.422461323779939 4.457149903660014 L4.611080302779979 4.420950563659989 L4.799699279779955 4.384802898660059 L4.988421610779935 4.3486035586600345 L5.08805377177998 4.32956079266005 L5.307058492779984 4.287573691660032 L5.526063211779982 4.245664104660069 L5.625695373779959 4.226569663660076 L5.754576395779989 4.201868328660044 L5.79953489178001 4.185771119660092 L5.84283974177998 4.156935670660051 L5.921594624779968 4.089291220659977 L5.984639872780005 4.03503096666002 L6.047788472780039 3.980822389659995 L6.110833719779973 3.926562135660067 L6.17387896778001 3.8723535586600413 L6.236924214779944 3.818093304660085 L6.2999694617799635 3.7638847266600415 L6.363014709780001 3.709650311660017 L6.426163309779949 3.6553900576600604 L6.489001851779929 3.6011814796600454 L6.552150451779991 3.546921225660004 L6.6151956997800285 3.492712648659978 L6.678189269780032 3.438452394660022 L6.741337870779998 3.3842438176599963 L6.804279764780003 3.3300352396600665 L6.867325012779927 3.275826662660041 L6.930370260779964 3.2215664086600846 L6.988041157779944 3.1719570326600213 L7.025764953779967 3.1401243506599776 L7.103279602779932 3.0768207216600736 L7.174696431780032 3.018581381660045 L7.246113260779961 2.9603937196600505 L7.317530090779965 2.9021027036599953 L7.388843567779927 2.8439150406600113 L7.4879589647799465 2.7629897476600043 L7.619010396779967 2.6858368346600408 L7.687119933779965 2.6457359236600446 L7.7550227657800095 2.6055833356600324 L7.823132303780025 2.565482423660047 L7.8912418417799275 2.5253298356600347 L7.959144673779972 2.4851772476600225 L8.027254211779988 2.4450763366600263 L8.095363749780004 2.4049754246600408 L8.163266581779935 2.364822837660018 L8.231376118779961 2.3247219256600324 L8.299485656779948 2.2846210136600185 L8.36749184177995 2.2445201026600223 L8.435498026780008 2.204419191660026 L8.50360756477991 2.1642666036600424 L8.571613749779997 2.1242173686600445 L8.639723286779995 2.0840647806600323 L8.707729472779986 2.04391219266002 L8.775839009779984 2.003759604660008 L8.843845194779957 1.9636586926600224 L8.911954732779973 1.9235061056601133 L8.980064269779971 1.88345687066003 L9.048070455779962 1.843304282660018 L9.116076639780031 1.8032033706600323 L9.184186177780019 1.7630507826601054 L9.25219236278002 1.7230015476600222 L9.320198546779976 1.6828489606601131 L9.38830808577998 1.6427480486600423 L9.456314269779964 1.6026471376600462 L9.524320455779955 1.562494549660034 L9.592429992779953 1.522341960660004 L9.660436177779927 1.4822410496600078 L9.728545715779942 1.4421401386600117 L9.796551900779916 1.4019875506601132 L9.864558085780002 1.3618866396600318 L9.93266762278 1.3217857276600178 L10.000673808779991 1.2816848156600322 L10.068679992779947 1.2415322286600095 L10.136789530779962 1.201431316660024 L10.204795715779936 1.161330405660113 L10.272801899780005 1.1212294946600316 L10.34091143878001 1.0810252296600034 L10.409020975780036 1.0409243176600178 L10.476923808779985 1.000823406660107 L10.545033345779983 0.9606708186600947 L10.613039530779956 0.9206215836600116 L10.681045715779957 0.8805206726600154 L10.74915525378003 0.8403680846600317 L10.817264790779943 0.8002413346600186 L10.88527097578003 0.7601921006600385 L10.953380513779932 0.7200395116600369 L11.021490050779958 0.6799127626600132 L11.089599589779963 0.6398118516600171 L11.15750242077999 0.5996851006600146 L11.225611959779995 0.5595066746600033 L11.293721496779908 0.5194057636600071 L11.361624328779952 0.47930485166010683 L11.429733866779967 0.4391522646599988 L11.497843403779965 0.39905135266001324 L11.565746236779914 0.3589762796600162 L11.63385577377994 0.31884952966003155 L11.70196531278003 0.2787227806600079 L11.76997149677993 0.2386218686601076 L11.837977681779988 0.19852095666003677 L11.906087219780003 0.1583942076600131 L11.974093403779959 0.1182157816600018 L12.06225339778001 0.13795617866005117 L12.15051674477999 0.15761906066011377 L12.238883443780024 0.17728194366005212 L12.327043436779972 0.19694482566000104 L12.415203430780023 0.21668522366006826 L12.503570129780028 0.23632226766007491 L12.591730123779994 0.25598514966002384 L12.679890116780028 0.275673870660075 L12.768256815780033 0.29538842966004 L12.856416809779999 0.3150771496600733 L12.94468015577999 0.33474003266004004 L13.032840148779938 0.3544287536600912 L13.121103495779918 0.37411747466002865 L13.209366841779994 0.3938578706600886 L13.297630188779975 0.413469077660114 L13.385893534779965 0.43318363566008955 L13.487489399779973 0.45589542766005664 L13.604794901779938 0.5165377216600184 L13.661018859780027 0.5629431586600511 L13.786127502780003 0.6659342866600362 L13.911287821780006 0.7689512546601129 L14.03624143477998 0.8718648706600796 L14.161401753779982 0.974830161660055 L14.206877014779932 1.0123472516600494 L14.221449768779989 1.0192718936600222 L14.236952697779996 1.0176182466600672 L14.300101298779962 0.9857338886600253 L14.471253642779969 0.8993825696600375 L14.642302633779932 0.8130312516600959 L14.813248270779978 0.7266799336600407 L14.984400614779984 0.6402511006600555 L14.984503966780009 0.6401994236600395 L14.985141713780022 0.639903197660022 L14.997216369779975 0.7024695246600352 L15.009205302779945 0.7651271996599753 L15.021090881779967 0.8277848736600966 L15.033183166779962 0.8903908706600028 L15.045172099779988 0.9530227066600396 L15.057161031779968 1.0157062186600463 L15.069253316779962 1.0783897316599855 L15.081138896779974 1.1409698906600063 L15.093231181779968 1.2036534036600308 L15.105220113780005 1.2662852396600393 L15.11731239878 1.3289687516600743 L15.129301331779969 1.3916005876600828 L15.14129026277993 1.454232423660006 L15.153382547779925 1.516915935660041 L15.161547424779938 1.5593939636600744 L15.169712300779933 1.6018719906600332 L15.177257059780002 1.6421796076599726 L15.177670471780003 1.6619200056600398 L15.178497293780024 1.7140098486600728 L15.179840881779993 1.7876487646600943 L15.181287821779987 1.8721397316600594 L15.182734761779981 1.9565790216600938 L15.18407834877996 2.0302696146600177 L15.185008524779986 2.082359457660079 L15.185318583779972 2.1020998556600325 L15.185628641779969 2.1282998066600562 L15.189762756779997 2.1443711776600374 L15.205472392779965 2.1590989596600316 L15.252704651779991 2.182301677660025 L15.271824931779973 2.194910727660062 L15.306241434779933 2.2342364926600347 L15.330012593779996 2.2688597026600412 L15.346652405779933 2.293406007660014 L15.363498921780005 2.3178489596600578 L15.380242086779957 2.342343588660004 L15.396985250780004 2.366838218660053 L15.413728413779948 2.3913328466600383 L15.43057493078001 2.4157757996600715 L15.447214741779957 2.4403737806600425 L15.464061258780019 2.4648167336599904 L15.48080442377997 2.4893113626600503 L15.497444234779975 2.5138059916599964 L15.51429075177998 2.5383006206600562 L15.531033915779998 2.562795248660013 L15.54777707977996 2.587289878660062 L15.564520242780018 2.611784507660037 L15.581366759779995 2.636227459660052 L15.598006571779932 2.6607737656600428 L15.614543029780007 2.684906658660072 L15.574235413779943 2.7066624366600998 L15.549534077780036 2.74526473165999 L15.541265848779998 2.791515138660049 L15.549430725779926 2.8365769876600844 L15.561316304779949 2.8618984386600808 L15.575475647779994 2.883654217659984 L15.593355692779964 2.9027744976600793 L15.674694397779943 2.9637010116600386 L15.702496317780001 2.9926914896600074 L15.760787333779943 3.0535663266600643 L15.81907834977997 3.1144928406600236 L15.877266011779993 3.175367677660052 L15.93555702778002 3.2362425146599954 L15.959224833779954 3.2609955256601104 L15.97338417678 3.2827513036600244 L15.975554585780001 3.299236086660006 L15.968216532779989 3.316340984660048 L15.947752665779943 3.3516101496600363 L15.907651753779957 3.4206240256600786 L15.867550842779961 3.4896120616600292 L15.82755328477998 3.5585742606600554 L15.787555724780018 3.62753645966011 L15.772466207779926 3.653529705660066 L15.741253641780018 3.732026206660084 L15.737636291779948 3.7737290866600297 L15.733605530780038 3.8193077006600227 L15.72957476777995 3.8649896666600405 L15.725440653780025 3.9105682796600156 L15.721409892779944 3.9562502456600335 L15.71737912977994 4.0018030206600095 L15.713348368779945 4.047459149660018 L15.70931760777995 4.093037761660003 L15.705286844779975 4.138693889659994 L15.70125608377998 4.1843241796600985 L15.697328674780008 4.2299286306599875 L15.69319455977998 4.275558921660082 L15.689163798779985 4.321163372660056 L15.685133035779982 4.366819500660075 L15.681102274779986 4.41239811366005 L15.67707151377999 4.4580284036600695 L15.673040750779988 4.50368453166006 L15.669009989779992 4.549263144660035 L15.664979227780007 4.594919272660054 L15.660948465779908 4.640497885660029 L15.656814351779984 4.686179851660047 L15.652783590779988 4.731732626660023 L15.648752827779985 4.777388754660041 L15.644825419780032 4.822967368660006 L15.640794657779933 4.868623495660035 L15.636763895779948 4.914253786660016 L15.632733133779963 4.959858237660104 L15.628702372779967 5.00548852766001 L15.624671610779954 5.0510929786600975 L15.620537496779944 5.096749106660003 L15.61650673477993 5.142327719660091 L15.61247597278003 5.187983847660082 L15.60844521077996 5.233562461660075 L15.604414449779965 5.2792185886600755 L15.600383687779951 5.3248488786599815 L15.596352925779966 5.370479168660086 L15.592425517779985 5.416083619659975 L15.58839475478001 5.461688071660053 L15.584260640779972 5.507318360660054 L15.580229878779987 5.5529228126600465 L15.576199116779973 5.598527263660049 L15.572930613779901 5.635528397660057 L15.572168355779977 5.64415755466003 L15.568137593779992 5.6897878436600315 L15.564106831780007 5.735418132660033 L15.560076070779926 5.780996746660026 L15.556045308779998 5.826678712660044 L15.552014546780013 5.872257326660009 L15.547880432780003 5.91788761566001 L15.54384967077999 5.963517905660002 L15.539922261780019 6.0091998716600195 L15.535891500779938 6.054830161660011 L15.531860737779935 6.100460450660012 L15.52782997677994 6.146039064660005 L15.523799215779944 6.1917210306601085 L15.519768452779969 6.237299644660016 L15.515737691779973 6.282929933660103 L15.51160357778002 6.328508546660078 L15.507572814779932 6.374190513660086 L15.503542053779936 6.419820802660002 L15.499511291780037 6.465451091660089 L15.495480529779966 6.511029705660082 L15.49144976877997 6.5566599946600554 L15.48752235978 6.6022902856600645 L15.483491597779986 6.64786889866004 L15.479357483779976 6.693499187660041 L15.477187072779996 6.718820639660027 L15.473749744779978 6.730657245660002 L15.470779195780038 6.740886476660041 L15.457653381779975 6.7593349636600415 L15.423650289780026 6.794681642660056 L15.367633036780004 6.852920981660066 L15.311512431779958 6.911367026660049 L15.255391825780007 6.969658042660075 L15.199271220779961 7.0280007346600435 L15.14315061478001 7.086291749660081 L15.087030008779974 7.1446861186600366 L15.03101275677997 7.2030288096601005 L14.974892150779992 7.261319826660031 L14.918771545779974 7.319662518660085 L14.86265093977991 7.377953533660037 L14.806633687779991 7.436347901660088 L14.75061643477997 7.494690593660028 L14.694495829780008 7.553033286659986 L14.638375223779972 7.611324302660041 L14.582151265779997 7.6697703476601085 L14.52603065977996 7.728009685660044 L14.487376688779959 7.768317303660002 L14.42877561478002 7.829243816660028 L14.374205301779993 7.885932862660031 L14.345679911779937 7.924845216660106 L14.315914286779956 7.965617921660101 L14.285941955780002 8.006313111660052 L14.25617633078002 8.047111654660046 L14.226410705780038 8.0878326836601 L14.19643837478 8.128527874660069 L14.166672749779904 8.169274741660036 L14.136803771779993 8.21002160766 L14.106934794779987 8.250690960660055 L14.077065816779962 8.29138615166001 L14.04730019177998 8.332133017660073 L14.017431213779956 8.372879884660055 L13.98756223577996 8.41357507566001 L13.95779661077995 8.45434778065999 L13.92782427977991 8.495068808660054 L13.898058654780014 8.535867352660038 L13.868189677780007 8.576510865660072 L13.839147522780022 8.615965821660001 L13.813309305779994 8.669993531660072 L13.780649800779939 8.738128908659991 L13.765766988779971 8.769212282660039 L13.760392638779932 8.788358399660044 L13.759152404779995 8.809623251660017 L13.76318316677998 8.830035443660055 L13.777239155779993 8.872694337660054 L13.778479390780033 8.893054851660086 L13.769591044779927 8.916490114660053 L13.754398172779984 8.924319093659992 L13.735277892780003 8.925921062660013 L13.715227437779957 8.930442750660038 L13.705253885779937 8.937832480660052 L13.673317851779954 8.97268823466003 L13.65357745378 8.986149944660074 L13.649960103780016 8.991317588659985 L13.65151039577995 8.996511069660006 L13.662259093779964 9.005916180660055 L13.665566385780037 9.011833131659973 L13.671974263779985 9.050047853660036 L13.670837381779988 9.068677206660002 L13.663085917779993 9.086841473660034 L13.62949623677997 9.11425582066008 L13.613284721780017 9.117300729660048 L13.589602030779927 9.121748903660023 L13.549087707780016 9.12500451866001 L13.513017558780005 9.139603110660065 L13.487489399779973 9.151979616660032 L13.45472654177996 9.196524700660039 L13.454416483779992 9.255435833660048 L13.473536763779974 9.324888958660015 L13.487489399779973 9.375790244660042 L13.497928039779906 9.421704753660027 L13.504956034780006 9.453589112659987 L13.512190734779976 9.485447633660048 L13.519425435779963 9.517331992660008 L13.526556783779993 9.549138836660052 L13.533688130780005 9.581049033660026 L13.540922831779993 9.612830039660057 L13.548054179780022 9.644714398660017 L13.555185526779978 9.676572918660074 L13.562420227780022 9.708405600660019 L13.569551575779967 9.740341636660009 L13.576682922780007 9.772148479660036 L13.583814269779934 9.80403283866001 L13.591048970780006 9.83583968266004 L13.598180318779951 9.867724041660015 L13.605415018780006 9.899582561660058 L13.61254636677995 9.931466920660032 L13.365222961780033 9.921157472660031 L13.364152404779928 9.921334978659974 L13.33514727777998 9.926144248659984 L13.325948872779973 9.933275595660024 L13.326465637780016 9.950458009660085 L13.311272765779988 9.960922486660028 L13.271378560779963 9.997535238659982 L13.264453918779962 10.006604452660046 L13.259079569779997 10.016655518660077 L13.258769511780029 10.020686281660065 L13.263833801780008 10.027765952659994 L13.265280741780002 10.033424521660027 L13.262490214780028 10.041331015659981 L13.256082336779995 10.042803794659992 L13.24905434177998 10.042312867660048 L13.244713521779998 10.043992352660002 L13.235411763779977 10.057815797660059 L13.237478820780039 10.062673382659984 L13.25163816378 10.064482057659976 L13.23334470678 10.087529745660039 L13.209160136779955 10.096185548660078 L13.182185038780004 10.101094809660015 L13.155416646779939 10.112902874660026 L13.158930643779994 10.104867189660045 L13.161101054779975 10.094790284660096 L13.158930643779994 10.086806276660031 L13.149215474779963 10.084945924660037 L13.143634419780026 10.089028362660034 L13.136193013780028 10.105745688659983 L13.128751607780002 10.112902874660026 L13.12906166577997 10.102128338660098 L13.128751607780002 10.098614340660038 L13.112318501779951 10.10401452866002 L13.093508280779927 10.104970542660073 L13.082242817779955 10.100888103660058 L13.087720520779952 10.091172934660026 L13.087720520779952 10.084945924660037 L13.06012530577996 10.087193849660043 L13.034493795779978 10.096392254660035 L12.944576802779947 10.140498089660031 L12.916981587779956 10.145665732660024 L12.889076314779969 10.139567913659977 L12.88494219977997 10.15587182866 L12.875847147779977 10.156698650660022 L12.8630313927799 10.150652508659991 L12.847528463779978 10.146440878660034 L12.847528463779978 10.15388228466006 L12.855796692779931 10.156181886659997 L12.862824686779957 10.160238486659996 L12.869129211779947 10.16628462966003 L12.875433736779966 10.174320314660012 L12.862307922779989 10.184913982659996 L12.83450600177994 10.215273886660047 L12.833782531779944 10.218116090660022 L12.835229472779956 10.22620345266002 L12.83450600177994 10.228942302659963 L12.831508768779939 10.229510743660018 L12.822827127779986 10.228270509660067 L12.820243306779984 10.228942302659963 L12.815902485779985 10.231267742660084 L12.802569966779968 10.235918621660051 L12.799779439780023 10.239510133660023 L12.803706847779976 10.251292360660035 L12.810011373779984 10.258707928660048 L12.810424784779995 10.262583660660002 L12.796368794779992 10.263720542660014 L12.794198384780001 10.26010319266003 L12.788513977779955 10.253230226660055 L12.782622863779947 10.24886356766007 L12.779832336780002 10.252868491660056 L12.778488748780033 10.253333579659984 L12.771770813779993 10.269895875659987 L12.746035950779996 10.300746705660064 L12.729602844779945 10.313278240660072 L12.706968566780004 10.31831669366004 L12.69528969278002 10.323587688660073 L12.688365051779952 10.34663537766004 L12.679580057779956 10.351854697660048 L12.664387186779946 10.34896081766006 L12.654465312780017 10.341958660660058 L12.645887023780004 10.333173666660077 L12.635241679779908 10.325189658660097 L12.634001444779981 10.341390220660006 L12.632037740779934 10.347307171660024 L12.625423157779947 10.354128460660068 L12.618498515779974 10.359063559660019 L12.61136716778003 10.361337322660024 L12.607956522779999 10.355575400660062 L12.602788879779977 10.359063559660019 L12.566305317779976 10.392808270660073 L12.563411437779989 10.409034669660077 L12.550388976779969 10.42735396466006 L12.54356768878 10.442210939660004 L12.559484029780007 10.448024537660078 L12.553179504780017 10.470116212660077 L12.547805155779967 10.48078739666008 L12.539743631779968 10.489649903660084 L12.532198872779928 10.491923667660007 L12.509564595779976 10.495954428660003 L12.505017069780022 10.499597617660005 L12.496438782779988 10.552927695660077 L12.49189125577996 10.564761598660002 L12.477938618779971 10.571402020660006 L12.461608866779924 10.568146404660016 L12.442488586780028 10.561557659660028 L12.419544250780005 10.557940309660044 L12.391974385779973 10.556986492659991 L12.356809061780039 10.555769899660053 L12.340479308779917 10.551093182660086 L12.330970845780028 10.55675175166002 L12.323632791780026 10.551713299660054 L12.316191385780028 10.542928305660059 L12.306269511779929 10.53745060365998 L12.296761047779937 10.538742514660033 L12.29055987577996 10.543548422660042 L12.286115702779965 10.548716066660038 L12.282394999780022 10.551093182660086 L12.274436828779981 10.549697918660005 L12.272679829780001 10.54592553865999 L12.27226641877999 10.54039616066007 L12.268442362780034 10.533704062660053 L12.257073547779951 10.527554567659994 L12.206637349779951 10.510139609660062 L12.189997537779929 10.513472739659978 L12.169016906780028 10.527606243660006 L12.154857564779972 10.529983359660054 L12.121681295779977 10.532722210660001 L12.062873514779993 10.518795411660012 L12.043236470779958 10.509209433660008 L11.99714109277994 10.473475180660007 L11.858028137780023 10.390172771660065 L11.747543924780016 10.346118613660085 L11.445236796779964 10.271136109660024 L10.958238098779956 10.273668255660017 L10.776543762779992 10.252868491660056 L10.680218892780003 10.260464927660028 L10.653114522779957 10.266160773660037 L10.166761861780001 10.36836531766004 L10.125007304779954 10.385470216660085 L9.935354797779949 10.489598228660075 L9.917681457780018 10.506367229660032 L9.913443989779976 10.516780030659977 L9.909619933779934 10.54122298366001 L9.904969054779967 10.551248211660027 L9.89701088478 10.559335573660025 L9.89298012277993 10.560059042660018 L9.887915832780036 10.559335573660025 L9.877270487780036 10.563004599660022 L9.858046855779945 10.57512272366002 L9.824560526780031 10.606361126660008 L9.652890029779966 10.80502899566007 L9.645966776779998 10.813041017660058 L9.634494608779987 10.822782024660004 L9.62364255777993 10.829784181660006 L9.616717915779956 10.832626385659982 L9.595530578779998 10.83417667766 L9.383140442779988 10.809785402660072 L9.365053690779972 10.810973960659997 L9.311723612779984 10.825727581660008 L9.274619934779905 10.825779258660024 L8.983104499779982 10.792384135660019 L8.948024882779974 10.788365521659959 L8.684578429779974 10.71198775366 L8.647888163780008 10.691213828659972 L8.63073158877995 10.67077579966001 L8.601999491779962 10.624163657660038 L8.582465800780026 10.603131349660021 L8.538747537779953 10.570936932660079 L8.514873026779979 10.559645631660008 L8.487897928779942 10.554012900660073 L8.476012349780005 10.553909547660044 L8.451207662779977 10.556855104660048 L8.439735493779976 10.560472454660033 L8.428366679779968 10.566079347660054 L8.424232563780036 10.568869874660013 L8.420408508779927 10.568508140660018 L8.410383280779994 10.564709921659986 L8.403045227779982 10.560162395660047 L8.303206359779976 10.470943035660017 L8.27829831977999 10.44169417466006 L8.265069152779999 10.43035119866008 L8.251960514780022 10.42427529666006 L8.250909810779971 10.423788291660092 L8.221247538780004 10.415959311660064 L8.206674784780033 10.409189699660036 L8.172878397780037 10.383196453660066 L8.145283182779961 10.366453289660019 L8.12182208277997 10.34451664366006 L8.110349914779958 10.335912517660024 L8.082754699779967 10.32555139366001 L7.829230122779987 10.290282228660022 L7.794916972779956 10.293589520660024 L7.760810526780003 10.308420655660047 L7.397215149780007 10.523032879660054 L7.365899231779989 10.532928915660055 L7.330035786779942 10.532722210660001 L7.225752747780004 10.513989503660003 L7.203428527780031 10.518175294660043 L7.1426570437799315 10.588326051660008 L7.095321431779976 10.629176271660004 L7.073927388779961 10.639485719660005 L7.068153634780001 10.640427092660008 L7.0501562297798985 10.64336145166006 L6.975742167779996 10.643723186660058 L6.942359191779926 10.64015751365999 L6.911870096780032 10.628711183659977 L6.879417297780006 10.605069215660055 L6.843140441779949 10.572073813659987 L6.783919250779971 10.505282024660037 L6.759111815779957 10.460667290660044 L6.677775858780021 10.314389284659985 L6.514530008779983 10.13951623666006 L6.3741768197799304 10.009291627660065 L6.30741086777999 9.971722861660059 L6.289440365779993 9.96791054766003 L6.23506386277995 9.956374961660092 L6.215840229779926 9.960302370660063 L6.158065979780017 9.99200586065999 L6.14762733977997 9.994744711660022 L6.141012755779994 9.991902507660047 L6.134708231779965 9.986502320660083 L6.125613179780001 9.981489706660017 L5.842581360280033 9.871819398660026 L5.55954954077998 9.76214909066002 L5.52699338777995 9.75527612566005 L5.37930214478001 9.780313356660063 L5.35150022477998 9.794007610660078 L5.340028055779951 9.808864585660022 L5.323284891779989 9.845632366660016 L5.309435608779947 9.861626222660053 L5.278739806780007 9.883046103660067 L5.267267639779985 9.887826173659978 L5.232851135780035 9.894234050660021 L5.0896040647800165 9.888032879660035 L4.988421610779935 9.905887086659991 L4.930337300780022 9.902476441660045 L4.9075996707799705 9.892580405660059 L4.885068746779948 9.871548097660042 L4.86212441078001 9.861471192660009 L4.830085021780005 9.864830160660023 L4.631077363779977 9.912416137660006 L4.51196490477997 9.940897869659995 L4.45780800477996 9.961800986659984 L4.410989156780031 9.994331300660011 L4.2536860957799805 10.141428265659986 L4.225780822779993 10.154941652660046 L4.195705139779929 10.160548544660063 L4.131006245779955 10.162589763660026 L4.128939188779978 10.401980836659977 L4.125557238779945 10.424959088660064 L4.0940059207800035 10.639330690659964 L3.9343257447800086 10.885181316660056 L3.8696268517800236 10.945901124660057 L3.650932189780005 11.107028241660036 L3.646798075779995 11.117570232660004 L3.65671995077997 11.366547283660044 L3.629744852779962 11.497908774660036 L3.629228088779908 11.541316977660035 L3.654136128779979 11.614542482660031 L3.6587870077799467 11.648752280660023 L3.641837138780031 11.681980225660059 L3.6247839157799975 11.699291830660062 L3.613725159779986 11.713606203660053 L3.609177632779958 11.729987632660002 L3.614965393780037 11.78678003066003 L3.6181693317799075 11.796598552660004 L3.6238537397799435 11.807192221660078 L3.6272643847799744 11.810551189659993 L3.631501851779942 11.813031658660055 L3.65496295177999 11.837732993660072 L3.667261942779956 11.856078126660055 L3.6722228807799953 11.875870200660035 L3.6650915327799654 11.897470948660004 L3.652999247779971 11.909563234660002 L3.6016328737800025 11.939793947660096 Z" fill="black" stroke="black" stroke-width="0.5" vector-effect="non-scaling-stroke"/></svg>