<svg xmlns="http://www.w3.org/2000/svg" viewBox="0 0 0.17087158217998422 0.18228515675999546"><path d="M0.1009590655899899 0.002845052379978341 L0.12679728159000092 0.0056933593800003734 L0.1294828285899996 0.010332031379999052 L0.15784383158998594 0.08487630237997834 L0.1691963705899866 0.10668619838001447 L0.15523966458999894 0.11165039038000302 L0.14612508158998594 0.11970703137999905 L0.12826212558999828 0.14005208337998099 L0.08667683858999453 0.16739583337998099 L0.07910847958999057 0.16365234437999376 L0.07113321958999563 0.16682617237999509 L0.053188883589996294 0.18049804737999509 L0.0500557455899866 0.17073242237999509 L0.04212117458999387 0.16633789038000302 L0.031012776589989244 0.16576822938001712 L0.018398844589995633 0.16739583337998099 L0.021572672589996955 0.1641406253799964 L0.024136148590002904 0.16055989638003254 L0.027309976590004226 0.15706054737999509 L0.03268107059000158 0.15372395837998099 L0.028042398590002904 0.13712239638003254 L0.025845133589996294 0.13264648438000037 L0.001675211589997616 0.1250781253799964 L0.004401448589987922 0.10717447938001712 L0.025845133589996294 0.0752734373800017 L0.024136148590002904 0.06957682338001447 L0.020514729589990566 0.06428710938000037 L0.017707112589988583 0.05867187537999641 L0.018398844589995633 0.05134765637999905 L0.021857502589995192 0.046139323380014474 L0.025723062590003565 0.04516276038001976 L0.030280354589990566 0.04475585938000037 L0.03609903958999894 0.04084960938000037 L0.05628133158998594 0.002845052379978341 L0.08838582358998792 0.0017871093800003734 L0.1009590655899899 0.002845052379978341 Z" fill="black" stroke="black" stroke-width="0.5" vector-effect="non-scaling-stroke"/></svg>