<svg xmlns="http://www.w3.org/2000/svg" viewBox="0 0 6.618418711920015 5.441358625379991"><path d="M4.2184899359600365 4.439281503189996 L4.161944940960069 4.4622765041900365 L4.134659783960075 4.479200535190039 L4.128355258959999 4.492119644189948 L4.130525669960065 4.509560440189993 L4.139000604960046 4.54377023819 L4.134659783960075 4.579246108190027 L4.1216373229600265 4.6100969381900185 L4.1023103369600165 4.637847183189955 L4.079159295960011 4.6638404281900065 L4.025932570960123 4.70766204219003 L3.9620604999600744 4.740114842190046 L3.893434197960147 4.759338475190042 L3.8253246609600353 4.763575942190009 L3.7204215029601357 4.75877003419 L3.65432734596007 4.76969959918997 L3.640581414960053 4.766934911190013 L3.628282423960087 4.7571680651899655 L3.615518345960055 4.74264698819001 L3.6073017919599977 4.738254490190023 L3.414393670960095 4.751535334190031 L3.3556375679600876 4.765539647190046 L3.325510206960047 4.767710057190037 L3.230683953959982 4.745101618189999 L3.107383986960059 4.753576553190008 L3.0755513039601112 4.7509152161899735 L3.0110591169600127 4.7563929181899525 L2.9440347839600634 4.777761123189968 L2.8803177429600453 4.809154555189984 L2.825489047960076 4.844707941189959 L2.8196351049600423 4.850578515190044 L2.807298943960035 4.862949721189999 L2.7937047159600468 4.889443960190043 L2.773399204960043 4.92901804018998 L2.7569144229601363 4.944030044190036 L2.7183638039600453 4.967594497190042 L2.700897170960019 4.981598810190057 L2.615476026960124 5.084615778190049 L2.575685174960114 5.109678848190036 L2.549898634960101 5.117430312189974 L2.5313984719600455 5.119032282189998 L2.5193578639600958 5.12598276218997 L2.5140868669600707 5.149805597189946 L2.5210293959600847 5.235806370190055 L2.520573268960078 5.236034433190021 L2.50934280096007 5.249095956189997 L2.505192409960017 5.264354745190026 L2.49567092596007 5.265616138190019 L2.4743493109600365 5.275910735190003 L2.44684280096007 5.289216399190032 L2.4297529569600727 5.286083261190022 L2.2901858999600506 5.215241789189982 L2.2820478789600145 5.20942310419003 L2.2578779569600727 5.176464120190026 L2.251286159960017 5.171866138190019 L2.2322431909600198 5.1740227141900235 L2.2115726179600586 5.17927173719 L2.133122097960012 5.212352792190025 L2.1131025659600198 5.218171477190033 L2.0904788679600586 5.22028736219 L2.0535322539600145 5.2193921801900345 L2.0320478789600145 5.22309497919003 L2.0117842069600727 5.23395923719 L2.0027510039600145 5.24144621619002 L2.001286159960017 5.24457935419003 L2.0033206649600004 5.248363534189998 L2.0064131129600753 5.263907154190015 L2.01324905096007 5.28474048719 L2.0189456649600004 5.29536060419003 L2.017887722960012 5.308991789189982 L2.0147952749600506 5.322948495190026 L2.0117842069600727 5.330150644189992 L1.963932643960078 5.32270435419003 L1.9505049099600171 5.282217701190014 L1.940495143960078 5.26325611219 L1.925683945960003 5.264354745190026 L1.916406602959995 5.261384367189983 L1.9121748319600727 5.2389234301900345 L1.9093265249600506 5.193024992189983 L1.8797041289600145 5.209952076190014 L1.8663577749600506 5.209301034189998 L1.86090530096007 5.189281503189996 L1.8543135039600145 5.178051034189998 L1.8395023059600533 5.165233651190029 L1.8233890249600506 5.1549390551900345 L1.8130537379600753 5.151439706189997 L1.7976728789600145 5.16169361219 L1.8041019149600004 5.17426685419003 L1.8181806909600198 5.184968352190033 L1.826074570960003 5.189281503189996 L1.828027695960003 5.199454029190015 L1.8372236599600171 5.226512948190027 L1.839746445960003 5.240795175189994 L1.8314456649600004 5.234284758190036 L1.820703477959995 5.228181242189983 L1.8094730089599977 5.2232984301900345 L1.7994632429600586 5.22028736219 L1.7869306909600198 5.218985279190015 L1.7805830349600171 5.2196363211900305 L1.7752119409600198 5.218741138190019 L1.76520217596007 5.212841073190027 L1.749088893960078 5.19880298719 L1.6990400659600198 5.137116789189982 L1.6946455349600171 5.127269784189998 L1.688542018960078 5.120067636190022 L1.6648603789600145 5.116039315190001 L1.6587568629600753 5.112051685190018 L1.6560713159600198 5.104686776190029 L1.655338893960078 5.093415617189983 L1.6575361599600171 5.07465747919003 L1.6528974879600753 5.070710539189982 L1.637760768960078 5.069530526190029 L1.627344102959995 5.067536711190037 L1.6099287379600753 5.058544198190027 L1.6001631129600753 5.055858651190029 L1.558740586960056 5.05427173719 L1.540918320960003 5.051342050189994 L1.5008792589599977 5.036327401190029 L1.4757327749600506 5.03168872919003 L1.4505049099600171 5.031403899190032 L1.4325198839599977 5.038483977190033 L1.431787461960056 5.054597258190036 L1.4500980089599977 5.071361581189997 L1.475000352959995 5.0846265551900345 L1.494287461960056 5.089997649190032 L1.5289554309600533 5.086010019189992 L1.5388838159600198 5.091503183190021 L1.5318851179600586 5.1110751231900124 L1.5423831649600004 5.107575774190032 L1.5525556909600198 5.105419198190027 L1.562402695960003 5.106192310190018 L1.5729007429600586 5.1110751231900124 L1.5611006129600753 5.123851815190001 L1.5523929309600533 5.138378183190021 L1.5711103789600145 5.138337492189983 L1.5787601179600586 5.136140227190033 L1.5864912379600753 5.130931894189992 L1.59332717596007 5.138378183190021 L1.5813642849600171 5.14769621619002 L1.5689131129600753 5.155345956189997 L1.555078477959995 5.161123951190014 L1.53863967596007 5.165030201190014 L1.522526393960078 5.164460539189982 L1.5106448839599977 5.15778736219 L1.499088893960078 5.148143808190021 L1.4841963159600198 5.138378183190021 L1.4810224879600753 5.161449472189993 L1.490381211960056 5.184968352190033 L1.4947757429600586 5.2072258391900235 L1.4766279569600727 5.226512948190027 L1.4913577749600506 5.238272388190019 L1.4977054309600533 5.240795175189994 L1.49371780096007 5.2501945891900235 L1.4871260039600145 5.254060149190032 L1.4671064729600118 5.254467050189994 L1.462793320960003 5.257315357190016 L1.4646650659600198 5.2638664641900235 L1.4705244409600198 5.274893482190016 L1.4739424099600171 5.28950122919003 L1.473698268960078 5.298290292190025 L1.4671064729600118 5.302237232190016 L1.4563642849600171 5.301830331189997 L1.4465986599600171 5.299999276190029 L1.4375654569600727 5.296093026190029 L1.428776393960078 5.289216399190032 L1.4329267849600171 5.286937753189996 L1.4336592069600727 5.285961190190001 L1.433984727959995 5.284821867189983 L1.4363447539600145 5.281729420190011 L1.4241377229600118 5.276521086190037 L1.413151393960078 5.275870045190011 L1.4051761339599977 5.280915617189983 L1.4021650659600198 5.292308847189993 L1.3954105089599977 5.2931633391900235 L1.3824710559600533 5.291088144189992 L1.374088893960078 5.283438404190015 L1.3811689729600118 5.267487883190036 L1.3570804309600533 5.284821867189983 L1.3445478789600145 5.309561451190014 L1.3281904569600727 5.332429289189982 L1.2923017849600171 5.343822519189992 L1.2572269149600004 5.344554940190001 L1.2388349879600753 5.34724048719 L1.230859727959995 5.353466073190027 L1.2262210559600533 5.370067636190022 L1.2151533479600118 5.383536060190018 L1.201074570960003 5.388011972189993 L1.1886233999600506 5.377351164189982 L1.202213893960078 5.325634042190025 L1.2173506129600753 5.302725513190019 L1.2439619409600198 5.309073170190011 L1.2984866809600533 5.289216399190032 L1.2830244409600198 5.282054940190001 L1.2486819929600586 5.287181894189992 L1.230859727959995 5.281729420190011 L1.2434736599600171 5.267487883190036 L1.2645511339599977 5.254222909189998 L1.2884769149600004 5.24457935419003 L1.3093916289600145 5.240795175189994 L1.3587080349600171 5.25043872919003 L1.3777510039600145 5.245800058190021 L1.3811689729600118 5.22028736219 L1.3644046499600506 5.225902597189993 L1.3508955349600171 5.223949472189993 L1.340234727959995 5.2165438731900124 L1.3326663679600586 5.206005136190022 L1.3622073839599977 5.1798820891900235 L1.363672227959995 5.169343352190033 L1.3367353789600145 5.165030201190014 L1.317448268960078 5.159496347189993 L1.3086592069600727 5.148998300189994 L1.299219102959995 5.1432203051900345 L1.2779788679600586 5.151439706189997 L1.2810713159600198 5.155264576190014 L1.283594102959995 5.161612232190016 L1.2854658479600118 5.165030201190014 L1.2598310819600727 5.164989511190022 L1.2481123319600727 5.166942636190022 L1.2371260039600145 5.171866138190019 L1.2564131129600753 5.178051034189998 L1.2815595979600118 5.189118742189983 L1.299870143960078 5.203604420190011 L1.2984866809600533 5.22028736219 L1.2798506129600753 5.207592050189994 L1.2532392849600171 5.1981519461900305 L1.2254072539600145 5.194489836190037 L1.2029463159600198 5.199209888190019 L1.2075849879600753 5.20661548719 L1.213932643960078 5.212556242189983 L1.2215823839599977 5.2169914641900235 L1.230859727959995 5.22028736219 L1.1995283479600118 5.241039315190001 L1.1802412379600753 5.2506421801900345 L1.1619306909600198 5.254467050189994 L1.1626631129600753 5.252513925189994 L1.16168655096007 5.248119394189992 L1.1590010039600145 5.24339934119002 L1.1546064729600118 5.240795175189994 L1.0930830349600171 5.240795175189994 L1.1052900659600198 5.225780526190029 L1.1485029569600727 5.2037671801900345 L1.1619306909600198 5.185538013190019 L1.154199570960003 5.16840747919003 L1.1106611599600171 5.148998300189994 L1.1135908479600118 5.130931894189992 L1.093652695960003 5.13402434119002 L1.0820967069600727 5.148387948190027 L1.0731448839599977 5.1669019461900305 L1.06207717596007 5.182445565190001 L1.0466963159600198 5.19184497919003 L1.0301761339599977 5.195995370190026 L1.0117842069600727 5.196036060190018 L0.9539228789600145 5.188549081189997 L0.94293655096007 5.185538013190019 L0.9156741809600533 5.167471607190016 L0.9050947539600145 5.165030201190014 L0.8829593369600559 5.163524667190025 L0.86676467596007 5.157624602190033 L0.8601728789600145 5.1451734301900345 L0.867090195960003 5.124095956189997 L0.8425947539600145 5.136180917190025 L0.8330732689600779 5.138378183190021 L0.8372236599600171 5.1212883391900235 L0.8457685819600727 5.110668222189993 L0.8590335559600533 5.105175058190021 L0.8777510039600145 5.103588144189992 L0.89020217596007 5.100007414189982 L0.91559280096007 5.085033456189997 L0.92926467596007 5.083161711190037 L0.9431806909600198 5.087800383190036 L0.9695478789600145 5.100902597189993 L0.9873701439600779 5.103588144189992 L1.00348342596007 5.102855722189993 L1.0173994409600198 5.099844654190015 L1.0289554309600533 5.093700448190027 L1.0384769149600004 5.083161711190037 L1.0310713159600198 5.075674732190016 L1.0200849879600753 5.082347909189998 L1.008854518960078 5.083649992189983 L0.9978681909600198 5.080150644189992 L0.9768720979600118 5.065176685190018 L0.9720706649600004 5.064159433190021 L0.9688968369600559 5.061229745190026 L0.9632816029599951 5.048330982190016 L0.9602705349600171 5.029003183190021 L0.9697920189600779 5.0216789641900235 L1.0111331649600004 5.02106861219 L1.0552412379600753 5.014232675189994 L1.066797227959995 5.017894784189998 L1.0708662379600753 5.026439706189997 L1.0731448839599977 5.0357984301900345 L1.0787601179600586 5.042186776190029 L1.0999189729600118 5.043529550189994 L1.1067549099600171 5.009675383190036 L1.1272627229600118 5.00121184119002 L1.1184736599600171 4.985668222189993 L1.1018720979600118 4.979808847189993 L1.06207717596007 4.980134367189983 L1.044010768960078 4.977855722189993 L1.0094241809600533 4.968090097189993 L0.9942060819600727 4.965811451190014 L0.97809280096007 4.9684969981900124 L0.92926467596007 4.98753996619002 L0.8809248319600727 4.994620045190011 L0.867090195960003 5.00121184119002 L0.7914066029599951 4.965811451190014 L0.7584476179600586 4.938793222189993 L0.7388349879600753 4.931957284189998 L0.73004592596007 4.94965747919003 L0.7190595979600118 4.956534107190016 L0.6936689729600118 4.961620370190026 L0.6473636339599977 4.965811451190014 L0.5306644149600004 4.948233326190014 L0.5208174099600171 4.937898039189982 L0.5271650659600198 4.9264234301900345 L0.5513349879600753 4.918651620190026 L0.5986982689600779 4.915681242189983 L0.61871780096007 4.907543222189993 L0.626855820960003 4.887645761190022 L0.6336103789600145 4.885000904190015 L0.67535842596007 4.877676685190018 L0.6826826439600779 4.869823495190026 L0.6990400659600198 4.845205982190016 L0.7095381129600753 4.836661060190018 L0.7327314729600118 4.832958261190022 L0.7488447539600145 4.842113534189998 L0.7744795189600779 4.87425871619002 L0.7845706649600004 4.87067798719 L0.8465823839599977 4.836661060190018 L0.8211917589599977 4.828278899190032 L0.7686201439600779 4.834545175189994 L0.740137070960003 4.819042245190026 L0.7258955349600171 4.805980722189993 L0.7236982689600779 4.798168222189993 L0.7232099879600753 4.781485279190015 L0.7333011339599977 4.718415617189983 L0.7374515249600506 4.708324472189993 L0.7815595979600118 4.654532154190015 L0.78863967596007 4.64301685419003 L0.8008467069600727 4.613109628189996 L0.8125654569600727 4.602733651190029 L0.8201338159600198 4.6002515551900345 L0.82574905096007 4.601472258190036 L0.8284345979600118 4.608470956189997 L0.8262373319600727 4.6232414641900235 L0.8387698839599977 4.612255136190022 L0.8556155869600559 4.589997649190032 L0.8699385039600145 4.56566496619002 L0.87457717596007 4.548737883190036 L0.8683108999600506 4.53864673719 L0.8504072539600145 4.527741789189982 L0.8465823839599977 4.517732024190032 L0.8484541289600145 4.505931894189992 L0.8506513939600779 4.497468352190033 L0.8492679309600533 4.489574472189993 L0.8344361679600922 4.479459330190032 L0.8375190249600735 4.471674855190038 L0.851317843960004 4.471094910190011 L0.8712563789600551 4.4800932351900045 L0.8827709419600467 4.474121246190016 L0.8911955359600086 4.472345082189982 L0.89653680496005 4.481933575190006 L0.9118116139599977 4.495148603189996 L0.9333148859600158 4.479628001190015 L0.9563398819600195 4.470093105190024 L0.9815791089600623 4.483335089190014 L0.9881025659600198 4.472362558190021 L0.9876142849600171 4.453604420190011 L0.9907881129600753 4.438874602190033 L0.9796390249600506 4.430370370190026 L0.9719892849600171 4.418448170190011 L0.9701175399600004 4.406403899190032 L0.9769534779599951 4.397289315190001 L0.9911301289600658 4.401284224190029 L1.0017990079599883 4.417488308190009 L1.0101703679600575 4.431889904190037 L1.0331931759600081 4.428961395190022 L1.0370669189599937 4.421184787189993 L1.0317680519600287 4.406790352190008 L1.0333669759600923 4.393614050190031 L1.04256084996004 4.396637501190021 L1.0471157029599851 4.4062378821900055 L1.057055872960035 4.411063150189996 L1.0739516999600198 4.407524107190007 L1.0893040179600746 4.405779308190013 L1.1131839779600057 4.393878010190015 L1.1208657569600007 4.393306525189992 L1.1315532249600153 4.4005389931900325 L1.1546064729600118 4.406810800189994 L1.1648947999600239 4.398599829190012 L1.1733619349600701 4.39503207919001 L1.1841756159600152 4.3848690641900205 L1.199586694960061 4.376537436190013 L1.2226788219599882 4.368855756189994 L1.2507978789600145 4.369945565190001 L1.2603193629600753 4.370759367189983 L1.2832685819600727 4.376130461190037 L1.2954756129600753 4.37739185419003 L1.2979983999600506 4.374095956189997 L1.2997073839599977 4.366893808190021 L1.304590195960003 4.359610279190015 L1.3162275659600198 4.3563550711900305 L1.3606611599600171 4.37739185419003 L1.365381211960056 4.3869133391900235 L1.368229518960078 4.405752857190016 L1.3743330349600171 4.410961190190001 L1.38629592596007 4.409496347189993 L1.3915042589599977 4.39997486219 L1.3943525659600198 4.389354745190026 L1.3987470979600118 4.384227792190025 L1.4087568629600753 4.386954029190015 L1.4185224879600753 4.393505136190022 L1.425928086960056 4.401317636190022 L1.428776393960078 4.407868742189983 L1.4395185819600727 4.421703378189996 L1.463932643960078 4.4325269461900305 L1.4915205349600171 4.437206308190021 L1.5113773059600533 4.432608326190014 L1.502099961960056 4.425121347189993 L1.490381211960056 4.409618417190025 L1.4841963159600198 4.40473560419003 L1.4734541289600145 4.402172128189996 L1.4531904569600727 4.401358326190014 L1.4425296499600506 4.397289315190001 L1.3972822539600145 4.352489511190022 L1.3811689729600118 4.3426831961900305 L1.3683108999600506 4.340811451190014 L1.3445478789600145 4.3407300711900305 L1.3326663679600586 4.335887948190027 L1.3264814729600118 4.329296151190029 L1.3006025659600198 4.292064706189997 L1.3015791289600145 4.287426034189998 L1.3013349879600753 4.28636809119002 L1.2923017849600171 4.288036386190022 L1.289453477959995 4.292308847189993 L1.2857099879600753 4.3005282481900124 L1.2781416289600145 4.307689706189997 L1.2644697539600145 4.308544198190027 L1.273584336960056 4.313427011190022 L1.281396836960056 4.319489836190037 L1.2877444929600586 4.326854745190026 L1.2728837519600518 4.334351612190012 L1.2428145339600576 4.346167446190016 L1.2266989119600282 4.343075494189982 L1.2166181909600198 4.329052011190022 L1.2097822539600145 4.329052011190022 L1.2039228789600145 4.342357675189994 L1.1946455349600171 4.34614185419003 L1.168115586960056 4.3426831961900305 L1.1663252229600118 4.339753508190036 L1.1638838159600198 4.333812753189996 L1.1599775659600198 4.3290113211900305 L1.1546064729600118 4.329052011190022 L1.149479518960078 4.335155526190029 L1.1515140249600506 4.341503183190021 L1.1570478789600145 4.346874276190029 L1.1619306909600198 4.350088795190011 L1.1619306909600198 4.3563550711900305 L1.1472822539600145 4.360424081189997 L1.131250352959995 4.360302011190022 L1.1160322539600145 4.355704029190015 L1.1033369409600198 4.346385995190026 L1.0970706649600004 4.335277597189993 L1.1004886339599977 4.326895435190018 L1.1204267849600171 4.308544198190027 L1.1133467069600727 4.3053296801900345 L1.1067549099600171 4.301097909189998 L1.1113935819600727 4.291698495190026 L1.1062666289600145 4.280020435190018 L1.0945478789600145 4.270498951190014 L1.0787601179600586 4.267528573190027 L1.0840498319600727 4.291698495190026 L1.0701272559600454 4.323899731190018 L1.0416902669599892 4.325008949190028 L1.0302342879600417 4.312388530189999 L1.0256818999600625 4.300386961189993 L1.0103408589600065 4.294349239190019 L0.9988443859600409 4.286528665190026 L0.9907881129600753 4.260082284189998 L0.9968916289600145 4.243236581189997 L1.0011233999600506 4.226472258190036 L1.004297227959995 4.18903736219 L1.0055366859599815 4.172087556189986 L1.017197622960083 4.148156126190038 L1.026551330960018 4.124817010189993 L1.043597688960034 4.105096705190029 L1.0544717149600444 4.088354083189991 L1.0522135379600002 4.077560183190037 L1.0657392849600171 4.06208423719 L1.086938847959999 4.033729761189996 L1.1055724979600825 4.013977854189996 L1.1135908479600118 3.9972649011900288 L1.1243730209600642 3.983010406189983 L1.144678086960056 3.9831454351900177 L1.1695804309600533 3.984081308190021 L1.1886233999600506 3.980175058190021 L1.1376407129600636 3.974060113189985 L1.1402647509600854 3.9665701081900195 L1.1441819949600074 3.959085744190027 L1.143905246960088 3.952335274189984 L1.139749562960077 3.946567651189987 L1.1417236359600054 3.9400744481899963 L1.1409345979600118 3.931794524190032 L1.142724961960056 3.9245516851900177 L1.146875352959995 3.920075774190032 L1.14801467596007 3.916250904190015 L1.1409345979600118 3.911286711190037 L1.150293320960003 3.9020907481900124 L1.1607099879600753 3.8981844981900124 L1.1856123319600727 3.8976555261900288 L1.1970869409600198 3.8947258391900235 L1.1936689729600118 3.8876050711900305 L1.1856123319600727 3.8786532481900124 L1.1824385039600145 3.8703117761900288 L1.197168320960003 3.850739836190037 L1.218652695960003 3.842723886190022 L1.242578477959995 3.8433342371899997 L1.2644697539600145 3.8498039641900235 L1.2584476179600586 3.834667245190026 L1.24957717596007 3.8270581961900305 L1.247135768960078 3.817821542190025 L1.2854658479600118 3.7628899011900288 L1.2984866809600533 3.753002206189997 L1.28278030096007 3.751374602190033 L1.2698408479600118 3.7433586511900288 L1.264713893960078 3.730134367189983 L1.2717939729600118 3.7126376231900124 L1.2669925399600004 3.7091789641900235 L1.258203477959995 3.6989657481900124 L1.2683760039600145 3.70161060419003 L1.272526393960078 3.7030754481900274 L1.2779788679600586 3.706493417190025 L1.299219102959995 3.696687102190033 L1.3077640249600506 3.6892815031899957 L1.3128095979600118 3.678539315190001 L1.292057643960078 3.6786206961900305 L1.23004592596007 3.6710930261900288 L1.2105960559600533 3.664867440190001 L1.2135257429600586 3.6504631441899917 L1.2371260039600145 3.623282154190015 L1.22613967596007 3.6226311121899997 L1.2153974879600753 3.6236890551900345 L1.205224961960056 3.6262118411900204 L1.1961103789600145 3.6300774011900288 L1.199609727959995 3.603995045190011 L1.213932643960078 3.588939706189997 L1.2329756129600753 3.5773430261900288 L1.2507978789600145 3.561840097189993 L1.2561689729600118 3.549877206189997 L1.260156602959995 3.5361239511900138 L1.2672366809600533 3.5248934821900164 L1.2955569929600586 3.51606372919003 L1.3038577749600506 3.5056877531899957 L1.3053226179600586 3.492341399190032 L1.2984866809600533 3.4792391851900177 L1.2832685819600727 3.4882316981900274 L1.17926467596007 3.530427336190037 L1.1571292589599977 3.5363274011900288 L1.1485029569600727 3.5405998621899997 L1.1395511339599977 3.542430917190025 L1.1306806909600198 3.537588795190011 L1.1043135039600145 3.512401620190026 L1.0999189729600118 3.510000904190015 L1.0906416289600145 3.5007235601900177 L1.0731448839599977 3.497142831189997 L1.0638675399600004 3.4905510341899983 L1.0787601179600586 3.4724032481900124 L1.0111331649600004 3.4724032481900124 L1.0145511339599977 3.478425383190036 L1.021387070960003 3.493846933190021 L1.0248050399600004 3.4997469981900124 L0.980371445960003 3.4997469981900124 L0.9705244409600198 3.497753183190021 L0.9678388939600779 3.492666920190011 L0.9671064729600118 3.486034433190021 L0.9632816029599951 3.4792391851900177 L0.9573408479600118 3.47114185419003 L0.9552249619600559 3.4649162691899917 L0.951074570960003 3.4608879481900274 L0.9391116809600533 3.45942310419003 L0.9236494409600198 3.4621086511900288 L0.9138838159600198 3.4624748621899997 L0.9012698839599977 3.45942310419003 L0.8936201439600779 3.455069263190019 L0.8716474879600753 3.439607024190032 L0.867090195960003 3.434886972189993 L0.8641605089599977 3.4282951751899944 L0.8568362899600004 3.4267489511900138 L0.8479658479600118 3.426708261190022 L0.8399092069600727 3.424633065190001 L0.8118330349600171 3.4016024661900204 L0.8008467069600727 3.400625904190015 L0.7914066029599951 3.4177971281899957 L0.7800947539600145 3.410635670190011 L0.7666670189600779 3.407380461190037 L0.7551924099600171 3.4015617761900288 L0.7462405869600559 3.3716545501899944 L0.7351728789600145 3.3594475191899917 L0.7198733999600506 3.349763274190032 L0.70270217596007 3.3421135341899983 L0.6871585559600533 3.3376376231900124 L0.6648603789600145 3.335277597189993 L0.6566409779599951 3.333161711190037 L0.6527347279599951 3.3238029871899997 L0.6242201289599905 3.3218051101899917 L0.6139605979600162 3.315608753190027 L0.6100101179600586 3.292959888190019 L0.5996748319600727 3.280671477190033 L0.5938154569600727 3.29145435419003 L0.5930830349600171 3.3015048101900177 L0.5965010039600145 3.3106193941899917 L0.60309280096007 3.3185539641900235 L0.6083011339599977 3.3299065031899957 L0.6038252229600118 3.341259042190025 L0.6035915439600501 3.35372405719 L0.5977574349600161 3.362308578189989 L0.5981945219600391 3.372260375190031 L0.6106855579600676 3.3757106181900056 L0.6066156199600243 3.3911577861899858 L0.5941027809600143 3.391824983190027 L0.5833750389600425 3.39832400719002 L0.5878143269600002 3.408620357189996 L0.5974775659600198 3.419261972189993 L0.5887079599600327 3.422028963190037 L0.5699826729600943 3.4164888561900355 L0.5485871329600229 3.4260767171900355 L0.5284990969600756 3.441547392189996 L0.5026332829600904 3.4514957241900177 L0.49414519196008655 3.4690127011900316 L0.4910226599600662 3.4731330821899817 L0.4773603789600145 3.465648690190001 L0.4776858999600506 3.461416920190011 L0.4789066029599951 3.458446542190025 L0.4829756129600753 3.451976815190001 L0.47548863395999774 3.450511972189993 L0.47223342596007 3.448884367189983 L0.4693037379600753 3.44575122919003 L0.46437348295998504 3.4349660311900223 L0.4821444249600688 3.4188689431899846 L0.4857193029600637 3.4006705511899966 L0.4986657819600566 3.3941504471899933 L0.50348342596007 3.379955331189997 L0.5005537379600753 3.366039315190001 L0.49347365996001713 3.3655510341899983 L0.48501011796005855 3.3697014251899944 L0.4773603789600145 3.370067636190022 L0.4734541289600145 3.36567310419003 L0.4669437119600559 3.3538322841899983 L0.4630374619600559 3.348949472189993 L0.4539228789600145 3.3443108001899944 L0.4451338159600198 3.3427645761900138 L0.43837925895999774 3.3400383391900235 L0.43585647296001184 3.3318596281899957 L0.43683303496001713 3.323070565190001 L0.44147170696007265 3.307323495190026 L0.44269240996001713 3.2977613211900305 L0.4382978789600145 3.292675058190021 L0.41958043096005326 3.2847404871899997 L0.4151858999600506 3.2769279871899997 L0.41901076896007794 3.2565015551900345 L0.41762730596005326 3.249340097189993 L0.40851272296001184 3.24653247919003 L0.37335647296001184 3.245555917190025 L0.28798863395999774 3.23286060419003 L0.2835941029599951 3.234284758190036 L0.27993199296005855 3.237133065190001 L0.2761885039600145 3.239411711190037 L0.2713056909600198 3.239086190190001 L0.26723668096005326 3.235790292190025 L0.26333043096005326 3.227692961190037 L0.26080764396007794 3.226024667190025 L0.25714553496001713 3.222118417190025 L0.2527510039600145 3.203807870190026 L0.2501468369600559 3.198070565190001 L0.24322951896007794 3.19575122919003 L0.21612990996001713 3.191885670190011 L0.20245803496001713 3.1708081961900305 L0.19537795696007265 3.1636467371899997 L0.18837925895999774 3.1580315031899957 L0.18154332096000303 3.1538811121899997 L0.17511428496001713 3.1509514251899944 L0.1856937119600559 3.1385002531899957 L0.19928420696007265 3.1333733001899944 L0.21295608196007265 3.1300774011900288 L0.22353550895999774 3.1236076751899944 L0.22963902496005062 3.109528899190032 L0.23663772296001184 3.0609449141899816 L0.25934280096007 3.035839120190026 L0.2876631129600753 3.039053638190019 L0.31940139396007794 3.0483309821900164 L0.35317418096005326 3.0410881441899917 L0.3328291289600145 3.032868742189983 L0.28644240996001713 3.0308342371899997 L0.2638187119600559 3.0274162691899917 L0.24501988395999774 3.015331308190021 L0.23793980596005326 2.998729745190026 L0.23395217596007 2.980948170190011 L0.22353550895999774 2.965323170189997 L0.23913528896005687 2.9531438131900174 L0.38176224195999 2.849480890190044 L0.38594803296004443 2.8476205391900393 L0.3965933779600448 2.8459668931899884 L0.40222610896015 2.842711278189988 L0.4037764019600729 2.83888722219006 L0.40532669496010953 2.8274150531900304 L0.4084272799600228 2.822195734190011 L0.424446974960091 2.811188654190026 L0.46475459196003044 2.7914482561899874 L0.4807742859599955 2.7774956201899883 L0.4961738629600916 2.76933074419005 L0.5466100609600915 2.7608041331900424 L0.5660403989599843 2.7533110501899998 L0.5765307149601142 2.7369296211900505 L0.5848506209600544 2.7138819321899845 L0.5947724959600862 2.693263035189993 L0.6103787779599941 2.6844263651899993 L0.6334264669600032 2.680137221190016 L0.6544070979600463 2.6695435531900316 L0.7034480329600967 2.632026463190037 L0.737399448960133 2.5980750471900294 L0.7442207379600916 2.5857243791900757 L0.7490783229600027 2.5799882961900025 L0.7592069029600736 2.587119643190043 L0.7687153669600946 2.5977649891900327 L0.7715058949600859 2.602519221190043 L0.779464064960024 2.605723159189999 L0.7888691749600127 2.608048599190049 L0.8131570989600903 2.609960627189956 L0.8401838729600684 2.6062399241900422 L0.8601826519600024 2.607480158189979 L0.8798713729601388 2.6062399241900422 L0.8948575379601209 2.602519221190043 L0.8998701519600729 2.5925456691900237 L0.892428745960018 2.5801433251900434 L0.8812666369600208 2.567740981189978 L0.8688642919601364 2.555338637190026 L0.8688642919601364 2.541644383189997 L0.8786828139600118 2.5292420391900166 L0.903590854960072 2.5218006331900185 L0.9271553089600673 2.515599461190014 L0.9432266779600411 2.5081063791899894 L0.9681863959600321 2.4994764141900347 L0.9866348809600538 2.490743098190073 L1.0066336619600804 2.4796326641899427 L1.0351073759599956 2.4696591131900263 L1.0699889669600964 2.460977472189988 L1.0959822119600346 2.452295832190025 L1.1096764669600532 2.4485751291899973 L1.118409783960061 2.4411337221899814 L1.1245592789601062 2.4311601711899797 L1.1307604509600822 2.41999806119005 L1.14688349796009 2.4150371241900004 L1.1617663109600187 2.4137968891899604 L1.1767524769599902 2.4187578271899994 L1.1902400249600475 2.422478530190027 L1.2096186869601127 2.4175692691899755 L1.2171634459600966 2.4168974761899946 L1.2260517919600886 2.4196880031900534 L1.2381440779600723 2.428524673189962 L1.244448602960091 2.4311601711899797 L1.266824497960073 2.4318319651899785 L1.2707002309600455 2.424338882190021 L1.2685298199601505 2.4116781561899856 L1.2687302949600223 2.4109316511900474 L1.2724572289601213 2.3970537251899984 L1.2798986349601194 2.3924545231899614 L1.2972619169601387 2.3948833161900254 L1.3065636739600848 2.3902324371899724 L1.309870965960073 2.3839279111900495 L1.3104910829600556 2.3699235981900344 L1.3133849629600434 2.362275487190054 L1.322635043960048 2.3506999651900102 L1.3323502139599839 2.3448605291900364 L1.3452176449600017 2.3426901181899424 L1.3866621439600237 2.34181161918999 L1.4000463399600847 2.33767750518998 L1.4069193049600415 2.32651539519005 L1.4089346869600092 2.304862970190065 L1.4136372419600605 2.285277602189943 L1.4253161159600438 2.2787146951899544 L1.4400955749600541 2.281763605190001 L1.4538931829601154 2.2909103331900766 L1.4616963239600125 2.2994369451899885 L1.463504998960019 2.3023308251899763 L1.5222611019600834 2.3014523261900237 L1.5362137389600719 2.2947343901900226 L1.5269119809601364 2.2795415191899835 L1.498386589960063 2.2530315081900696 L1.5367821799599994 2.215721124190047 L1.5576601609600687 2.204421906190042 L1.5599848979600495 2.203163752190015 L1.5905773459600425 2.198409520190033 L1.5994656919600345 2.195463963189944 L1.6043232769600024 2.1888493801900424 L1.608302361960142 2.1819247371900516 L1.614503533960061 2.177945653190072 L1.6243737329600378 2.1773772121900308 L1.63274531496009 2.178979182190055 L1.6755333999600168 2.1938619941899944 L1.6852485699600663 2.1927767881899953 L1.7262796569600312 2.170917658189971 L1.7387853539600826 2.1661117491900583 L1.7551151059600159 2.1643030741899665 L1.765863803960059 2.1694707181899773 L1.7775943539599837 2.1795476221900216 L1.789738315960136 2.1862138821900245 L1.8031741879600247 2.1810462381900138 L1.8178502949600954 2.172312921189949 L1.8486494489600602 2.1694707181899773 L1.8614135279600248 2.1643030741899665 L1.8689066109600674 2.154484552190006 L1.863583937960044 2.1497303201900237 L1.8501997419600968 2.14869679219003 L1.8341283709600873 2.149988703189983 L1.8456005399600315 2.1352609191899816 L1.8631188499601024 2.1309201001899893 L1.8821357769599842 2.128336278189998 L1.89908564696006 2.1189311671900484 L1.9193944849600655 2.0950049781900404 L1.9255439799600538 2.083016046189975 L1.9228568049600483 2.0742310531899975 L1.9292130069600546 2.0665312641900115 L1.9372745299600354 2.06110523919002 L1.9469380229599835 2.057384536190021 L1.9576350449600852 2.0544389791900173 L1.9548961939600247 2.041519872190001 L1.9650764509600833 2.0311845851899974 L1.9800109399600672 2.0203842111899846 L1.9917414899600487 2.0066382791900352 L1.9773237659599943 1.9880864401899814 L2.0009915709600534 1.9713432761900478 L2.114266310960005 1.920493667190037 L2.12832230096015 1.9110368801900606 L2.1379341169600536 1.8995130361900223 L2.1631005389600944 1.855794774190052 L2.1745727079600385 1.8447360171900513 L2.199739129960136 1.8259257961900275 L2.2109012389600764 1.814195246190046 L2.234155633960114 1.7728024241900115 L2.2450593609600844 1.7601933741899742 L2.2944620299601013 1.7152348781900386 L2.3260880069600773 1.697096450190024 L2.354871779960007 1.6975098621899392 L2.3517711939600474 1.7018506821900061 L2.350065870960094 1.7055713851900336 L2.3473270199600336 1.7088270011900235 L2.3412292009599867 1.7118242331900362 L2.3412292009599867 1.719213963190036 L2.3756973809600765 1.7116692041899952 L2.3756973809600765 1.6859860171899967 L2.3618480979600633 1.6544633941899392 L2.354871779960007 1.629245295189996 L2.361176303960036 1.6163778621899993 L2.3957995139600428 1.5746233061900554 L2.4123359719600046 1.529458103189988 L2.4308361349600602 1.5018112131900736 L2.434453485960006 1.488375340190025 L2.4308361349600602 1.4753012021899607 L2.420087436960131 1.4616844631900605 L2.420604200960071 1.4494629871899392 L2.4556408219600883 1.4215577131899622 L2.471453810960071 1.3976832011899702 L2.487525180960148 1.3949960271900395 L2.522871860960066 1.3964946441900494 L2.533672234959994 1.3917145741900399 L2.565814976960013 1.3694420311899975 L2.581524611960077 1.3623623601899837 L2.567727003960016 1.35370655719003 L2.5532059269600893 1.3471953271899721 L2.5407002299600947 1.33959889218999 L2.533052117960125 1.3276357981900375 L2.550157016960071 1.3223906391900115 L2.5660733579599935 1.3223906391900115 L2.580852817959993 1.3267056221899836 L2.5951155129600636 1.334431249189997 L2.62493281496009 1.3591325831900107 L2.642192742960077 1.3677108701900167 L2.649840854960047 1.3586674951899838 L2.6624499049600843 1.3337852931900258 L2.7183638039600453 1.316344497190066 L2.731024529960081 1.290067031190027 L2.740688022960029 1.2786982161899445 L2.7620820659600156 1.267458592189989 L2.7833727559600163 1.2625751691900504 L2.7931912779600623 1.2698873851899677 L2.7942248069600453 1.2918498681900061 L2.7997025089600527 1.2974309231900278 L2.8121565289600596 1.2968108051899705 L2.83473912996007 1.3002989651900165 L2.8532015829601107 1.3115673011900455 L2.8867256209601067 1.3320282941900459 L2.896234084960014 1.33096892718995 L2.9003681989600807 1.3443789621899995 L2.9219172709600514 1.3700363101900663 L2.9301854999601176 1.3828262281900479 L2.9131839539599866 1.3813792871899508 L2.9025386089601 1.385875137189963 L2.8990246119600727 1.3956161441900221 L2.9030036969600417 1.4101888981900785 L2.9125638369601177 1.4203174791900253 L2.9276016789600305 1.4279139151899969 L2.958245802960022 1.4374482161899707 L2.9554552759600767 1.441323948190039 L2.9508043969600237 1.4511683091900167 L2.967547560960071 1.4532612041900776 L3.0196374049600934 1.46866078119006 L3.033279981960021 1.4784534651900216 L3.0114208519600822 1.4850163721900103 L2.990078484960094 1.494369806189944 L2.9715783219599814 1.5078573551900192 L2.958245802960022 1.5262024881899876 L2.965532179960036 1.5269776351900006 L2.9744205259601415 1.5288379871900233 L2.981810256960131 1.5320419261899971 L2.988218133960089 1.54160206518997 L2.995969597960112 1.5396900371899775 L3.00950882396009 1.5330754541899623 L3.0187072289599826 1.5350908351899974 L3.0239265479600874 1.5396900371899775 L3.027905633959989 1.54434091719002 L3.033279981960021 1.5466663561900518 L3.0408247419599945 1.5421188291900236 L3.053898878960041 1.5215516091900199 L3.060668491960058 1.5176758781899693 L3.0755513039601112 1.5228435211899907 L3.09808222896001 1.535607599190051 L3.1118798359600817 1.538139745190044 L3.12102656496009 1.5362793931900214 L3.1282612649600594 1.5331788061899871 L3.1350308779600766 1.5325586901900223 L3.1425239609600055 1.538139745190044 L3.1433507839600168 1.5450643861900275 L3.1371496109600514 1.5514205871900444 L3.128726352960058 1.5562781721899839 L3.1226285339601247 1.5586552881900033 L3.139940138959986 1.5645980781900377 L3.158698683960125 1.5689388981900194 L3.1978177429600407 1.5722978661900058 L3.207274529960017 1.570902603190028 L3.2246894879600347 1.5655282531899886 L3.23254430596009 1.564804784189981 L3.2420527689600647 1.5675953111900398 L3.249494175960052 1.5722461901900076 L3.254920200960072 1.5767937161900463 L3.2586925799600692 1.579119155190078 L3.2809134469601133 1.5805144191900453 L3.296623081960064 1.5756051581900223 L3.3106790709601057 1.5688872221899928 L3.3276806179599987 1.564804784189981 L3.3445788099600406 1.5682154281900225 L3.362045444959989 1.5754501291900667 L3.379408725960076 1.5792741851900232 L3.3964619479600913 1.5722978661900058 L3.3983222999600855 1.5947254381900038 L3.4123782899601167 1.6053707831900041 L3.451083937960135 1.6132772771899724 L3.4842602079601477 1.6307439111899882 L3.491908318960128 1.6337411441900187 L3.5006416369600117 1.6306405581899739 L3.511700392960023 1.6170496571900728 L3.5162479189600333 1.6166362451900724 L3.5438431339600527 1.6246460921900265 L3.638204298960062 1.626713149190003 L3.663939161960087 1.6200468901899896 L3.6824393259600754 1.629658706190007 L3.7024381049600663 1.6322942041900248 L3.718716180960058 1.6261963851899779 L3.7254341169600877 1.6098666321900268 L3.7350459329599914 1.6027352851899863 L3.757163446959993 1.5973609361900216 L3.797781121960071 1.5927617331899953 L3.827805129960126 1.6132772771899724 L3.838037062960069 1.6096082501899716 L3.8463052919601353 1.602476902190027 L3.8549869319600987 1.5927617331899953 L3.8659423359600567 1.60351043119001 L3.866665805960082 1.6213388011900278 L3.865115513960035 1.6392705221900243 L3.868732863960048 1.650329279190025 L3.8774145039600114 1.6521379541900032 L3.8872330259600574 1.649864191189998 L3.9041828959600764 1.6428878731899985 L3.9004621929600205 1.6648503571899695 L3.9177221209601214 1.6751856431899839 L3.9416999859600708 1.6747205551900421 L3.957512973960064 1.6640235331900257 L3.97177566996001 1.6701730291900034 L3.957512973960064 1.6844874011900046 L3.9996809429599978 1.6872779281899781 L4.039265089960082 1.6591659491900188 L4.141171014960065 1.5189161121900199 L4.156570590960058 1.4802104641900016 L4.136830193960151 1.4585580391900166 L4.134969841959986 1.4406263161900412 L4.122567498960024 1.4202399651899995 L4.104480747960082 1.403496800190048 L4.077712355960074 1.3941692041900282 L4.039575147960051 1.3707081041899514 L4.012703403960046 1.3517945301899985 L4.008465935960061 1.329857884190055 L3.997820591959993 1.30890309019005 L3.9505883319600628 1.2410002591899953 L3.944593866960048 1.221879979190014 L3.9112108909600636 1.213766779190017 L3.9013923689600176 1.1996332751900454 L3.893537550960076 1.1840269921900344 L3.8740038599601405 1.0985541731899886 L3.875037387960134 1.0838005521900058 L3.8881632019601113 1.0698737531900164 L3.9082136579601467 1.0653003891899786 L3.954102328960033 1.0645252421900508 L4.115539503960093 1.0307546941900725 L4.217342075960147 1.037136734190021 L4.240699822960067 1.0429244931899788 L4.261163689960057 1.0552751611900462 L4.307569126960033 1.0532856191899995 L4.341882277960082 1.066101373189973 L4.355938267959999 1.0675224761899855 L4.397279412960046 1.0555593821900047 L4.406891229960053 1.05698048319001 L4.417949985960064 1.0628199201900017 L4.427251743959999 1.0593059221900418 L4.441307732959984 1.0436221251899767 L4.451126255960077 1.0364907781900214 L4.461461541960006 1.0334418681900033 L4.536082309960051 1.0378860421900171 L4.562850701960116 1.0334418681900033 L4.5745295759599856 1.016026910190071 L4.670647739960003 1.0197476131899847 L4.736742365959998 1.0332076741900025 L4.757050733960085 1.0373434391900602 L4.793637648960015 1.0282483871900112 L4.808417107960025 0.9883800201899575 L4.81740880696006 0.9750991761899499 L4.838596144960064 0.9707066791900658 L4.8624706569601415 0.9685362691899897 L4.88014399596014 0.9617408191900196 L4.90691238896008 0.9407601871900155 L4.917040968959981 0.927531020190024 L4.918281202960117 0.9098576811900259 L4.9420523629601405 0.920425511190011 L4.959105584960099 0.9215107161899923 L4.973368280959988 0.9142501781900236 L5.001583611960115 0.8899105781900047 L5.0312458849601 0.8701701811900406 L5.049952752960081 0.8544347071900731 L5.05780757096008 0.8492929021900792 L5.0647322119600915 0.8436601711899456 L5.067832797960051 0.8379240871899967 L5.062871860960087 0.8289323871899441 L5.04044428896006 0.8275888001900782 L5.034346469960013 0.8205091291899507 L5.036930291960033 0.8090627991900519 L5.045715285960085 0.8037659651900171 L5.056463983960015 0.8008720851900293 L5.0647322119600915 0.7966087791900449 L5.068349561960048 0.7879788151900229 L5.067729445959998 0.7799172921900137 L5.069693149960045 0.772553400190013 L5.081578728960068 0.76588714019001 L5.074240675959999 0.7599443511899935 L5.06597244596 0.7558619131899817 L5.0572908059600366 0.7534589581900306 L5.047472283959991 0.7528388411899627 L5.047472283959991 0.7453715971900223 L5.079718377960063 0.7454749501899798 L5.08984695796002 0.739738865190013 L5.095841424960128 0.7248818911900727 L5.09387772096008 0.719585057190038 L5.087779901960033 0.7170529121900344 L5.08219884696004 0.7134097231900611 L5.081578728960068 0.704418024189998 L5.084679314960084 0.6959689281900054 L5.089640252960038 0.6892509911899865 L5.096668247960082 0.6849101701900153 L5.150205030959995 0.676383560189997 L5.157336378960025 0.674032282190062 L5.16064367096007 0.6559972071900617 L5.169015252960122 0.6412952621899635 L5.180074008960133 0.6368510891900527 L5.191442824960035 0.649201756190017 L5.205705518960002 0.6430005841900126 L5.197333936960007 0.6343964581899897 L5.192166293960128 0.6252497301899993 L5.193716586960051 0.6181442201899685 L5.205705518960002 0.6156637521900095 L5.216660922960074 0.6186093081899955 L5.225652622960098 0.6310633291899919 L5.239811964960069 0.6355075021899879 L5.249010369960075 0.6334146061900228 L5.259759067960061 0.6276526841900463 L5.272368117959985 0.6225625551900507 L5.287664340960049 0.6225108781899493 L5.3360334819600155 0.6528966211900169 L5.34244135996002 0.6610614971900404 L5.370656691960079 0.672662857189998 L5.376961215960051 0.6802334541900379 L5.380371860960025 0.6905429021899394 L5.3887434429600205 0.6940569001899846 L5.398872023960081 0.6922999011900046 L5.407760369960073 0.6867446841900104 L5.413031365960052 0.6766161041899679 L5.413858188960063 0.6668234191899884 L5.416752068960051 0.6595112041900038 L5.441246697960111 0.6522506651900457 L5.448067986960069 0.6413986141899883 L5.449204868959981 0.6280144191899453 L5.4452774599600104 0.6156637521900095 L5.487032017960047 0.6181958971899846 L5.5247558129600804 0.6256889791900093 L5.55689855396011 0.6212448071900027 L5.58242671096005 0.587758478190004 L5.587180942960146 0.5518175201900348 L5.585010532960069 0.5126984601900162 L5.590074822960133 0.47846282419001085 L5.616636508960056 0.4573788391900777 L5.616636508960056 0.45122934419000416 L5.59978999196008 0.4481029201900739 L5.595139112960027 0.4346153711899987 L5.604647576959991 0.42068857319002717 L5.63027908696003 0.41642526718995754 L5.625834914960052 0.4019558661900291 L5.632966261960092 0.3932225491900496 L5.641131137960116 0.38676299518999 L5.640097609960122 0.37888233918996406 L5.628108677960057 0.3702782131900264 L5.617980095960121 0.3667642161899707 L5.611158807959981 0.3599687651900112 L5.609195102960001 0.34133941119005584 L5.6108487489600805 0.32891122918999116 L5.614879510960151 0.31756825218999296 L5.627075148960074 0.29666513519003246 L5.643094842960039 0.27113697818997906 L5.648572544960047 0.25713266518999234 L5.652603305960014 0.22695362818998177 L5.687743279960074 0.1561310771900466 L5.695081332960029 0.1458216291900314 L5.700248976960069 0.13538299019000277 L5.701179151960133 0.11233530119002211 L5.705313266960019 0.10171579518995344 L5.716682081960045 0.09463612319003545 L5.746861118960027 0.0920781401900328 L5.7606070499600435 0.08747893819008112 L5.751305291960051 0.08486927818997714 L5.743657179960138 0.08081267718997509 L5.73766271396002 0.07510243219001467 L5.733321893959982 0.06758351118997297 L5.744277296960007 0.06419870419005491 L5.762777459960063 0.055181167190021085 L5.774249627960074 0.05334665318999754 L5.78768549996002 0.0552070051900202 L5.795126905960018 0.05998707519000135 L5.825305942960057 0.08988189118993972 L5.834917758960074 0.09688404719002364 L5.849283806960074 0.10171579518995344 L5.861789503960068 0.10305938219001831 L5.900856886959986 0.10171579518995344 L5.947882440960058 0.08667795319006899 L5.975064242960144 0.08176869119002816 L5.987156528960128 0.09088958119001944 L5.984055942959998 0.1041445861900101 L5.976097771960127 0.12029347118998857 L5.965142368960045 0.13455616718999153 L5.952326613960025 0.14210092619003234 L5.993977817960086 0.15649281219003086 L6.04741124896006 0.15540760819003907 L6.092576450960081 0.16137623519005473 L6.110043084959983 0.19672291518997298 L6.0957803899600265 0.2816014551900352 L6.096607211960048 0.32025542619003744 L6.116244255960083 0.35500782718997215 L6.170711216960086 0.3962197821900517 L6.178359327960067 0.4133246811900264 L6.246572218960097 0.4573788391900777 L6.257527622960055 0.4595492501899727 L6.266312615960061 0.4589808091900167 L6.274064080960073 0.4593425441900294 L6.281298780960043 0.46425180418994927 L6.283572543960048 0.4721324611899931 L6.279955193960092 0.4915111231899729 L6.284812778960003 0.5021047921899466 L6.3061034689600035 0.5142745911900519 L6.321503045960043 0.5087193751900472 L6.324603631960002 0.49386240118999325 L6.30868729096008 0.47846282419001085 L6.321399692960057 0.46321827718997355 L6.33772944495999 0.453606460190052 L6.3549893739600805 0.45283131419005684 L6.3700788919599916 0.46425180418994927 L6.373076124960079 0.4750263411899809 L6.378760532960115 0.5143779441900662 L6.384341587960051 0.5331364891899781 L6.396227166960074 0.5530835921899993 L6.398087517960079 0.5573210591900519 L6.399637811959991 0.5683281401899407 L6.4034618679601465 0.5732374001900595 L6.408319451960068 0.5760020901900234 L6.412350213960025 0.5809113501899716 L6.429196730960001 0.6178858381899985 L6.440978957960027 0.6316059311900162 L6.4594791199600365 0.6430005841900126 L6.482113397960092 0.6488141831900052 L6.499373325960079 0.6627409821900798 L6.5102253759600615 0.6803626451900797 L6.514152784960032 0.704418024189998 L6.513842726960121 0.7296877991899677 L6.516323194959995 0.7430461571900011 L6.5264517769600445 0.7524771061899784 L6.5535322539600145 0.7685051361900221 L6.54912727496 0.7746151191900097 L6.520699303960072 0.7805243581900143 L6.48514718096007 0.7892194631900296 L6.470191179959983 0.7912982411900273 L6.457393578959994 0.800356291189992 L6.451114849960021 0.8008362861900267 L6.452051133959998 0.7826652921900248 L6.451237331960073 0.7716789641900235 L6.448551784960017 0.7654533781899957 L6.435612331960073 0.7556877531899957 L6.422936865960054 0.7483574591900108 L6.394071820960079 0.7452458741900116 L6.3726230179600805 0.7360136761900051 L6.363759971960093 0.727837010190008 L6.33425436496006 0.7238644151900147 L6.31922305396003 0.7288640611900021 L6.322966516960008 0.7415418161900291 L6.310029997960072 0.7518477961900274 L6.293668531960037 0.7544882251900233 L6.285409308960055 0.7454919551900119 L6.272729152960068 0.7392182721899943 L6.261020189960021 0.7390391881900271 L6.2605635039600145 0.7478752531899957 L6.259424180960053 0.7565015551900345 L6.247569300960066 0.7636641881899848 L6.237727954960036 0.7724219521900366 L6.239892930960053 0.785961190190001 L6.23981155096007 0.7929598881900191 L6.244694362960075 0.7995109951900261 L6.252832383959998 0.8004468671899829 L6.259424180960053 0.8028068941899917 L6.25958694096002 0.8140373621899997 L6.254459987960075 0.821117440190001 L6.2468916289600145 0.8195305261900288 L6.231752348960043 0.8057618161900066 L6.22156233796008 0.8079297421900336 L6.214225646959989 0.8199525921900275 L6.223407599960041 0.8316055541899985 L6.2123991339600195 0.8343441891900127 L6.2050758919600355 0.847533826189995 L6.1886278649600115 0.8496173671899854 L6.1842151319600305 0.8721084891900048 L6.172340382960073 0.8788861391900085 L6.160596101960067 0.8804625721900337 L6.161730400960067 0.8660217641900161 L6.169205626960064 0.8447334921900236 L6.16098804696 0.8273214931900341 L6.147752700960012 0.8265718501900281 L6.104933870960025 0.8583255951900313 L6.0825560809600745 0.881164576190038 L6.068506211960056 0.8889885341899983 L6.055844385960057 0.8900652071899984 L6.057856639960022 0.9039723371900052 L6.052881211960056 0.9623121021900332 L6.047428737960075 0.9626376231900124 L6.03888381596002 0.9597079351900177 L6.027490586960056 0.9648348881900191 L6.013818711960056 0.9785067631900191 L6.01715530096007 0.9801343671899829 L6.0201663679600586 0.9865227141900235 L6.013002451960091 0.9907789791900043 L6.003678669960067 0.9895130661900069 L5.9867687189600645 0.9788978491899982 L5.973639248959984 0.9735351791899873 L5.946342113960071 0.9738059071900196 L5.926610977960053 0.9851578591900036 L5.921525478960092 1.00420270419 L5.920585175959985 1.0117178841899843 L5.905792039960005 1.0132520181900375 L5.903282239960021 1.0213290161900161 L5.8984781299600115 1.0276408731900304 L5.890040303960035 1.0519928251899913 L5.887449721959996 1.0681025431899869 L5.8803871879600536 1.0709170091900049 L5.86852058396002 1.0492128281899866 L5.856454439960061 1.0527047681899901 L5.854867542960022 1.0731503811899827 L5.83575881596002 1.0809644461900305 L5.8425947539600145 1.0854403571900164 L5.847721706960073 1.0905673101900177 L5.8562666289600145 1.1013908781899957 L5.8465010039600145 1.1038322841899983 L5.839176784960017 1.1083488861900221 L5.828434597960012 1.1219800711900305 L5.83185256596002 1.119823495190026 L5.829248399960051 1.1296298101900177 L5.824609727959995 1.1415520111900221 L5.822168320960003 1.146149992189983 L5.818262070960003 1.164867440190001 L5.80800816496 1.1715813081900208 L5.800357556960051 1.1686813481899847 L5.790963991960069 1.1597187211900248 L5.767190867960011 1.1524212831900016 L5.750310500960012 1.1593535511900157 L5.74396194096002 1.1806145111900221 L5.7369632429600586 1.2062085861900371 L5.73810256596002 1.2394524011900288 L5.723222773960032 1.2721598781900028 L5.708741739960004 1.28182465119 L5.7060306919600805 1.2986931031899829 L5.696383189960073 1.3048334531899926 L5.6801164669600155 1.285170143189994 L5.666885451960042 1.2858832981900221 L5.6283303579600386 1.3041993361899884 L5.616357774960051 1.3325920501899944 L5.60333694096002 1.3673413991900318 L5.594931014959997 1.3795988921900246 L5.568589079959992 1.3882796311900236 L5.544393032960073 1.413900758189989 L5.536755467960091 1.4458964171900064 L5.52297934696 1.487657082190033 L5.502368375960003 1.514213803189996 L5.514225612960075 1.5376701751899944 L5.5112935119600195 1.5543778491900255 L5.506300307960004 1.5694925271900004 L5.51297363096009 1.5989690961899967 L5.535248225960089 1.6205322661900325 L5.555240347960051 1.6349508601900382 L5.568173252960008 1.6439705211900062 L5.5896261979600865 1.642330303190029 L5.597721264960086 1.6566537611900074 L5.611754440960084 1.671022351190011 L5.62286819096002 1.6774406831900208 L5.629215847960012 1.6781324141900384 L5.644678086960056 1.6758537691899917 L5.65021194096002 1.6774406831900208 L5.65973342596007 1.6875725191899917 L5.658756862960075 1.6908277271900332 L5.653467149960051 1.6950188081900208 L5.65021194096002 1.7081617111900371 L5.64825881596002 1.7113355391900384 L5.64044631596002 1.7335523361900371 L5.639713893960078 1.7388420501899944 L5.623926133959998 1.74848560419003 L5.61269566496 1.7707430911900204 L5.573144883959998 1.8966789641900235 L5.565495143960078 1.9409904871899997 L5.58185256596002 1.9784660731900274 L5.57558628996 1.9917717371899997 L5.573389024960051 2.0073967371899997 L5.574365586960056 2.0399488211900305 L5.58185256596002 2.084911386190022 L5.586084336960056 2.094677011190022 L5.604394883959998 2.1118889251899944 L5.618461851960063 2.119202125189993 L5.609144836959985 2.1246468591900296 L5.602799873960038 2.1466060631900135 L5.606567015960053 2.153676788190019 L5.587842541960043 2.172514723189984 L5.590913581960052 2.192160746189991 L5.578789302960075 2.2157988301900176 L5.570128415960056 2.2290309501900154 L5.55965747896002 2.2279550631900022 L5.551927178960085 2.21801030819001 L5.538130097960078 2.2217870951900025 L5.5164228789600145 2.224844654190015 L5.4974925549600755 2.221998069190029 L5.479737264959994 2.225304076190021 L5.463373513960022 2.2226870441900317 L5.451538022960079 2.225075388190028 L5.425342994960005 2.223900234190019 L5.407511561960035 2.234684841190024 L5.404621421960059 2.253499110189985 L5.385567806959983 2.256339219190018 L5.37165189096001 2.2681494491899983 L5.359810544960027 2.271542175190014 L5.33009966796007 2.2697387331900316 L5.280524614960058 2.282320888189993 L5.242757368960014 2.302856970190028 L5.205257047960089 2.318273338190018 L5.193326940960077 2.329186317190029 L5.181400196960084 2.3454883991900104 L5.164780835960045 2.376144542189998 L5.156803737960075 2.389965097189993 L5.149723659960017 2.3873609301900345 L5.14020217596007 2.380036711190037 L5.131487238960034 2.3655793171900044 L5.123708033960014 2.3556364031899832 L5.106727265960075 2.3544846751900153 L5.087052552959989 2.3579029821900193 L5.071273569960084 2.3672632681900225 L5.0659632359600835 2.3776645951900335 L5.059996889960047 2.3880700741900185 L5.0599568959600845 2.3935276221899997 L5.060565257960064 2.399984897190002 L5.055279495960093 2.407409378189989 L5.053932764960081 2.412863441189991 L5.051334987960075 2.4256096281899957 L5.046940456960073 2.430980722189993 L5.044092149960051 2.441112558190021 L5.040620215960047 2.4470812601899823 L5.0327358079600515 2.4540170331899915 L5.028125698959997 2.4599563661900063 L5.027246445960003 2.470165292190025 L5.0261885039600145 2.4947014251899944 L5.0148054369600175 2.498067868189999 L5.008882051960057 2.506981941190027 L5.00446955196 2.517719795189983 L4.968635992960088 2.552451645189997 L4.931134906960068 2.5910515281900146 L4.883686089960037 2.589646306189998 L4.829382642959985 2.6036834931899833 L4.753325599959993 2.665451603189986 L4.714102473960082 2.69176816419003 L4.684103969960091 2.6962292051899865 L4.6671376999600795 2.7086366121899985 L4.634544743960049 2.7165910481900326 L4.617612842960028 2.7170862661900017 L4.605575342960009 2.7285210591900366 L4.575215173960004 2.7246694701900154 L4.541377995960005 2.7324199501899855 L4.523239163960028 2.7528456341900167 L4.510225899960091 2.7528540001899913 L4.508910750959984 2.7434395471900146 L4.490059110960004 2.7503999661900096 L4.47251822896007 2.766285724190034 L4.470016976960068 2.7921737191899823 L4.482362209960087 2.797607775189995 L4.510292296960046 2.8064761431900322 L4.514200320960043 2.8158950251900094 L4.521350152960025 2.8233079331900015 L4.5161694779600055 2.838203149190015 L4.518131862960075 2.862377206189997 L4.504501549960054 2.866468834190023 L4.495417774960032 2.87292368019002 L4.488283674960002 2.8793777141900208 L4.482445749960078 2.8833508151900062 L4.4753027579600655 2.8828610021900047 L4.461673384959994 2.8779145421900196 L4.442181687960073 2.876943732190007 L4.43117765496001 2.8834051211899876 L4.396769318960054 2.8968495191900345 L4.38966393096004 2.912241085189983 L4.381251392960024 2.9201928111900273 L4.36375962596 2.9281605601900154 L4.33336988896005 2.928867890190027 L4.319836793960093 2.939243005190015 L4.302133460959993 2.95411644319001 L4.288516497959989 2.959614643189987 L4.264958034960017 2.96723560419003 L4.245414373960074 2.964039054189989 L4.218335309959997 2.9667264161900064 L4.191335646960027 2.996568620189983 L4.181323057960043 3.0354001201899976 L4.15566441496 3.0301831961900305 L4.133702520959986 2.9981399951900087 L4.117014099960073 2.9865115331900327 L4.089892039960063 2.995712238189988 L4.081407705960004 3.007410494190033 L4.087956081960073 3.034252206189997 L4.078678737960075 3.0360425711900305 L4.056787461960056 3.034008065190001 L4.046940456960073 3.034252206189997 L4.0359541289600145 3.0375074141899816 L4.017887722960012 3.0456454351900177 L4.008691758959998 3.04731372919003 L4.000390977959995 3.0453199141899816 L3.997135768960078 3.0407626231900124 L3.9929853789600145 3.036286711190037 L3.860417018960078 3.0184644461900305 L3.855859727959995 3.023143808190021 L3.854557643960078 3.0376701751899944 L3.8513838159600198 3.043204029190015 L3.84332717596007 3.0487785731900274 L3.8333987899600004 3.0530510341899983 L3.824121445960003 3.0547600191899917 L3.8172855089599977 3.059520761190022 L3.8008467069600727 3.0819816981900274 L3.7936038679600586 3.0888583261900138 L3.7838382429600586 3.091706633190036 L3.7602298039600726 3.0796741651900064 L3.74460885796006 3.1023912411899985 L3.74483337896001 3.1197854141900123 L3.737614284960017 3.161530852190033 L3.7281741809600533 3.1708081961900305 L3.6354007429600586 3.178213795190011 L3.64996780096007 3.187979420190011 L3.6476077749600506 3.197948495190026 L3.6160089409600857 3.21008221119002 L3.5809529759600025 3.2064279171900196 L3.549320063960039 3.2154156811900023 L3.5331989859600696 3.247177835190037 L3.5168614779600773 3.256815872189982 L3.502269874960092 3.2427193751900134 L3.4773189899600254 3.2326812131900127 L3.4607588159600198 3.253368417190025 L3.446598659960017 3.2573967371899997 L3.429590195960003 3.2673251231900124 L3.4154300399600004 3.2796135341899983 L3.4029788679600586 3.3025627531899957 L3.3744144149600004 3.316641529190015 L3.3679853789600145 3.325023690190001 L3.3660322539600145 3.332510670190011 L3.357324570960003 3.34809497919003 L3.3548831649600004 3.356395761190022 L3.3552900659600198 3.365144133190036 L3.3599287379600753 3.379833261190022 L3.3621260039600145 3.4035555911900204 L3.3657881129600753 3.4141350191899917 L3.372135768960078 3.418773690190001 L3.3816572539600145 3.4177971281899957 L3.4063154569600727 3.426830331189997 L3.4238935819600727 3.44575122919003 L3.428125352959995 3.4685783781899957 L3.39034039596001 3.5116040671899853 L3.3740097809599945 3.553151398189989 L3.388981472960012 3.6198641851900177 L3.4165693629600753 3.719880461190037 L3.4156741809600533 3.747386972189993 L3.4080244409600198 3.7576408781899957 L3.3970381129600753 3.7616691981900274 L3.3854007429600586 3.758495370190026 L3.375390977959995 3.747386972189993 L3.3741702749600506 3.7342033781899957 L3.3805179309600533 3.7193921801900345 L3.395817409960017 3.6921298101900177 L3.3611494409600198 3.6543693941899917 L3.357568711960056 3.640778899190032 L3.348698268960078 3.630199472189993 L3.3364912379600753 3.626618742189983 L3.323551784960017 3.633861581189997 L3.294010768960078 3.6557528571900164 L3.2916507429600586 3.658438404190015 L3.2845706649600004 3.6663322841899983 L3.2791181909600198 3.6710930261900288 L3.23199905096007 3.6847649011900288 L3.23199905096007 3.6921298101900177 L3.243473659960017 3.696605722189993 L3.2676435819600727 3.7018140551900345 L3.2791181909600198 3.706493417190025 L3.291406602959995 3.699372649190032 L3.3074385039600145 3.6956291591899983 L3.3211103789600145 3.6997795501899944 L3.3269697539600145 3.7160555911900204 L3.3203779569600727 3.723461190190001 L3.288965195960003 3.7288322841899983 L3.2791181909600198 3.7331454351900177 L3.273828477959995 3.727245370190026 L3.2681318629600753 3.7229729091899983 L3.261865586960056 3.720368742189983 L3.254948268960078 3.7194735601900177 L3.2455081649600004 3.721752206189997 L3.246240586960056 3.7272046801900345 L3.2505537379600753 3.7339592371899997 L3.251855820960003 3.739940683190021 L3.2402998319600727 3.766429940190001 L3.23199905096007 3.794628183190021 L3.2256003519600824 3.8231904881900007 L3.236474961960056 3.8416252531899957 L3.2469730089599977 3.8618889251899944 L3.262109727959995 3.8703117761900288 L3.273747097960012 3.874421477190033 L3.294824570960003 3.8927727141900235 L3.3058108999600506 3.8976555261900288 L3.325504909960017 3.895336190190001 L3.32965530096007 3.8865471281899957 L3.327213893960078 3.8764559821900164 L3.3269697539600145 3.8703117761900288 L3.3448733999600506 3.8687248621899997 L3.3652998319600727 3.907177011190022 L3.3853193629600753 3.9174716071900164 L3.46051467596007 3.911571542190025 L3.4852542589599977 3.9174716071900164 L3.4966474879600753 3.9250399661900204 L3.5052737899600004 3.9343173101900177 L3.514958034960017 3.9421298101900177 L3.529199570960003 3.945466399190032 L3.5977217069600727 3.945018808190021 L3.61285842596007 3.946605722189993 L3.623193711960056 3.954418222189993 L3.6461429309600533 3.9860751231900124 L3.67731155096007 4.020580331189997 L3.683903347960012 4.030752857190016 L3.6900882429600586 4.0451164641900235 L3.7051435819600727 4.062206308190021 L3.7390791289600145 4.08942798719 L3.7422529569600727 4.102245370190026 L3.746484727959995 4.106151620190026 L3.755762070960003 4.099681894189992 L3.7622724879600753 4.096426685190018 L3.767887722960012 4.099437753189996 L3.771793972960012 4.105866789189982 L3.7750491809600533 4.1212883391900235 L3.7798506129600753 4.129141529190015 L3.787418972960012 4.1349602141900235 L3.797184597960012 4.137198170190011 L3.8153323839599977 4.145702401190029 L3.8490237899600004 4.188304940190001 L3.868229518960078 4.205476164189982 L3.9447269149600004 4.219880461190037 L4.063786159960017 4.335887948190027 L4.078678737960075 4.33128996619002 L4.123926133959998 4.311962167190025 L4.136377305960053 4.308544198190027 L4.1668135039600145 4.346385995190026 L4.1746260039600145 4.3522046801900345 L4.191715847960012 4.360057870190026 L4.201237331960073 4.366893808190021 L4.213200222960012 4.3849602141900235 L4.213525588960039 4.388254554189949 L4.214909206960073 4.402904550189994 L4.213932643960078 4.420848886190022 L4.21816441496 4.438874602190033 L4.2184899359600365 4.439281503189996 Z M0.7803114549600139 3.4588301021900136 L0.7757970679600419 3.4653276691900103 L0.7632440699599954 3.470062999190027 L0.773824120960029 3.4913383771900115 L0.7871797249600547 3.513073486190031 L0.7656627849600852 3.522813453190004 L0.7367527629600943 3.53614629218999 L0.7152347279599951 3.555980722189993 L0.6962260269600336 3.55845403319001 L0.6721336079600349 3.5681724771899965 L0.6904976639600306 3.542677501189992 L0.703386786960067 3.5470827401899854 L0.7105407049600387 3.5357175921900037 L0.6963430979600105 3.5251907521899923 L0.6985777849600652 3.5204402961899817 L0.7101586249600302 3.519388592190019 L0.7106200249600931 3.5153140061900174 L0.7133087699600935 3.510477842190035 L0.7079801389599822 3.507039498190018 L0.7080457739600376 3.4898623451899837 L0.724092833960043 3.4826828971899957 L0.7232767969599934 3.4679597161900304 L0.7353393319600343 3.4597470431900277 L0.7340414509600066 3.451161759190036 L0.7527635289600028 3.449492178189992 L0.7803114549600139 3.4588301021900136 Z M0.7370446239600312 4.535066008190036 L0.7539717069600727 4.558300058190021 L0.7575524359600365 4.5692456961900305 L0.7146650659600198 4.559764901190029 L0.6944013939600779 4.5529289641900235 L0.6756025659600198 4.541250904190015 L0.6530602489600312 4.55512622919003 L0.6438642849600171 4.546215097189993 L0.64801467596007 4.529694914189982 L0.6857750919600392 4.510570565190001 L0.6978193629600753 4.5084546801900345 L0.7029463159600198 4.517732024190032 L0.7193037379600753 4.5221265551900345 L0.7307783479600118 4.527294198190027 L0.7370446239600312 4.535066008190036 Z M1.1823571239600312 5.296947519189992 L1.191308945960003 5.294913013190019 L1.1663252229600118 5.322216073190027 L1.1493167589599977 5.336010019189992 L1.122949570960003 5.349519133190036 L1.1145674099600171 5.356192310190018 L1.1004072539600145 5.363760670190011 L1.0798994409600198 5.367260019189992 L1.074121445960003 5.359854420190011 L1.1037438419600392 5.331941008190036 L1.1179039989600312 5.326407154190015 L1.1281579049600339 5.329784433190021 L1.1306806909600198 5.3231519461900305 L1.1330407169600392 5.3142001231900124 L1.1384118109600365 5.314118742189983 L1.141015977959995 5.31293872919003 L1.1423180609600365 5.309968352190033 L1.1463056909600198 5.30817798719 L1.1528974879600753 5.307445565190001 L1.1823571239600312 5.296947519189992 Z M1.0012861599600171 5.278026620190026 L0.9964033479600118 5.269481698190027 L0.9949385039600145 5.26411060419003 L1.0000654569600727 5.261384367189983 L1.0197594669600392 5.249909758190036 L1.0374189729600118 5.2447828051900345 L1.042057643960078 5.244538664189982 L1.0449873319600727 5.248119394189992 L1.04645217596007 5.252513925189994 L1.0438480089599977 5.254589120190026 L1.03863967596007 5.25544361219 L1.025293320960003 5.266429940190001 L1.0098310819600727 5.27692798719 L1.0012861599600171 5.278026620190026 Z M0.8840172799600339 5.2274488211900305 L0.8943525659600198 5.2291578051900345 L0.8981774359600365 5.239004810190018 L0.8953291289600145 5.246329029190015 L0.8931318629600753 5.246003508190036 L0.8899580349600171 5.246166269189992 L0.8792158479600118 5.255321542190025 L0.8694502229600118 5.257966399190032 L0.8586266549600339 5.258047779190015 L0.8513024359600365 5.255199472189993 L0.8513838159600198 5.250560800189994 L0.8561852489600312 5.248200774190032 L0.8604170189600779 5.2443352141900235 L0.8655439729600118 5.24177173719 L0.87262405096007 5.243317961190037 L0.8789717069600727 5.245759367189983 L0.8820641549600339 5.2447828051900345 L0.8830407169600392 5.240632414189982 L0.8836917589599977 5.238516529190015 L0.8814131129600753 5.233593026190029 L0.8840172799600339 5.2274488211900305 Z M0.5412438419600392 3.536449472189993 L0.5471902079600284 3.5285376401900024 L0.55827855996003 3.526540161189992 L0.5613495289599939 3.5332174071900297 L0.5613168939600826 3.5442995031900253 L0.5584150659600198 3.5548820891900235 L0.5513349879600753 3.561026295190011 L0.5381573129600099 3.560373939190022 L0.5337193809600365 3.555890823190005 L0.537339368960005 3.547522110190023 L0.5355440919600767 3.542436908189991 L0.5412438419600392 3.536449472189993 Z M0.54059280096007 3.518871347189993 L0.5291181909600198 3.525096933190021 L0.51520217596007 3.5252190031899957 L0.49835647296001184 3.5159416591899983 L0.45709670696007265 3.525096933190021 L0.4539228789600145 3.5274162691899917 L0.44944696696003916 3.5257072841899983 L0.4509931909600198 3.5190341071900164 L0.4582360299600339 3.514354745190026 L0.46783889396007794 3.51020435419003 L0.48444045696007265 3.498526295190011 L0.48859084796001184 3.499665617189983 L0.5023441029599951 3.4983635341899983 L0.5274092069600727 3.492992440190001 L0.544824570960003 3.4939690031899957 L0.5516605089599977 3.5007235601900177 L0.5492191029599951 3.5098381441899917 L0.54059280096007 3.518871347189993 Z M0.4496097279599951 3.6333733001899944 L0.4466800399600004 3.6245842371899997 L0.4464358999600506 3.6168124271899913 L0.45530634196003916 3.6142896411900054 L0.46612990996001713 3.6064771411900054 L0.4680016549600339 3.614411711190037 L0.46865269596000303 3.6161206961900305 L0.47141962396003123 3.6193352141900235 L0.4726403269600894 3.6306063731900124 L0.4601891549600339 3.635570565190001 L0.4556318629600753 3.6362216071900164 L0.4496097279599951 3.6333733001899944 Z M0.06822131596001668 3.2563745061900207 L0.07284317996001732 3.252694948190033 L0.07114500096005827 3.248752267190021 L0.07384256996007821 3.248356230189991 L0.07668645196005741 3.246828196190002 L0.07456440496000027 3.2446425591900336 L0.07699614695999912 3.2436293571900094 L0.08063588396007049 3.2423182281900225 L0.08358795596004143 3.242444593189994 L0.08546628695998493 3.244417968190028 L0.08800328796004919 3.245988207190017 L0.08943115196004214 3.2501348631900058 L0.09345701796004846 3.250993911190001 L0.09315683196004443 3.2537857291899925 L0.09313150895999911 3.255959376189999 L0.09635796896006354 3.2562951361899835 L0.09632104096007765 3.258983690190014 L0.09519752896002842 3.2617604501900317 L0.09140573096007643 3.262649149190004 L0.088830288959997 3.2652307201900115 L0.0839607899600594 3.2653559141900317 L0.08096768996003334 3.268976051190016 L0.07958583896001414 3.27219366419002 L0.07675984096007937 3.272059808190029 L0.07477190296000913 3.269776929190023 L0.06966887796008336 3.268905309190025 L0.06523265495999908 3.2684591231899915 L0.06510382196003661 3.268043885190032 L0.06488645796000014 3.2641115201900064 L0.06615889596000102 3.2595673351900203 L0.06822131596001668 3.2563745061900207 Z" fill="black" stroke="black" stroke-width="0.5" vector-effect="non-scaling-stroke"/></svg>