<svg xmlns="http://www.w3.org/2000/svg" viewBox="0 0 2.6167333000800284 1.5513595711200452"><path d="M0.14864415704001033 0.5123625245600678 L0.17179519804001586 0.5308110115600968 L0.1838874830399817 0.5356685955600184 L0.20021723604001807 0.5350226405600367 L0.20765864204004458 0.5303459235600698 L0.21851069203999884 0.5151788915600477 L0.22491857103993596 0.5118974375600587 L0.23432368203999943 0.5162640955600395 L0.2533406080400624 0.5362370365599745 L0.2629524240399661 0.5415338705600092 L0.28444982004002384 0.5359528165600906 L0.2958950970400309 0.5263811955600133 L0.3048103350400453 0.5189254315600564 L0.32145014604004984 0.49750555156003173 L0.33199213904002534 0.47874700656003455 L0.3325493930400256 0.4753264915600184 L0.3359195470400067 0.45463995056001494 L0.33293602704004854 0.44520640256001087 L0.32331049704005466 0.41477158356007493 L0.3245507320400094 0.39205979155999415 L0.336849723039947 0.34276047456000214 L0.3468749510399647 0.321211401560042 L0.36640864203998547 0.3035122245600448 L0.39204015203993947 0.2926084965600566 L0.48566734003999557 0.26887643156006646 L0.5566420800400209 0.25088617456002993 L0.5854133620400006 0.24359340056005152 L0.610734814039958 0.23413661355998983 L0.6224368770399877 0.22557429256004724 L0.6559000160400359 0.20108953556000841 L0.679981233040067 0.1895915295599977 L0.6877326980399943 0.18974655856003864 L0.6944506340400238 0.1911418225600059 L0.7078865060400545 0.19661952456009857 L0.7459203610400067 0.21850449256003657 L0.7813703930400351 0.24439438556006365 L0.7977001460399578 0.26439316455999773 L0.8068985510400495 0.278759213560015 L0.8107949150400344 0.28172207356001167 L0.8193008950400298 0.2881901625599923 L0.8272243550399736 0.2893770775600544 L0.8703572100400123 0.2958382745600474 L0.8807958490399557 0.2941329515599804 L0.8822932600399582 0.28711875956005173 L0.88275955304006 0.2849345465600024 L0.8818293780400239 0.2646515475600708 L0.8802790850400157 0.25612493556004523 L0.8772818520399852 0.25075058655999527 L0.8752147940400192 0.24537623756003057 L0.876455029039974 0.2365654055600359 L0.9352628090399406 0.16956691156004666 L0.9420989640399711 0.16542995356004297 L0.9482852700399889 0.16168625656001012 L0.9657519040400331 0.16060105056009633 L1.0005818190399935 0.17052292556001447 L1.0113305170400082 0.1696961025599748 L1.0101936360400003 0.16297816656005892 L1.0029589350399561 0.1541931735600528 L1.0014086420400048 0.1454856945600156 L1.017841747040066 0.13866440456003915 L1.029417268040035 0.141403255559986 L1.0387190260400558 0.1485087655600168 L1.0490543120399565 0.15042079356003768 L1.0534700640400132 0.1464139075600528 L1.0630069500399628 0.13776006756000214 L1.0807836420399752 0.14688095855998284 L1.101350862039979 0.14651922255998073 L1.1433121250400546 0.13838018456007006 L1.1455626090400273 0.13925488456003876 L1.1565412910399715 0.1435219895600639 L1.2061506670400348 0.14277268156006784 L1.241187288039967 0.1499815435600098 L1.2583833510399955 0.1505993665599803 L1.2735367340399506 0.1435219895600639 L1.2880061350399927 0.13047369056001656 L1.3010175990400086 0.12458755155997636 L1.3986970530400669 0.08039922756002937 L1.4188508620400313 0.07698858355998794 L1.4588484210400026 0.07732448056008678 L1.4658764160400182 0.07603256856003071 L1.49977615504001 0.054199276560090937 L1.5105248530399393 0.05042689756006524 L1.5230305490400298 0.05244227756002573 L1.5764639810400496 0.07293198356000374 L1.609123486039934 0.08158778556002488 L1.6269043810400632 0.08312014556008052 L1.6424031080399715 0.08445582756001357 L1.677026318039978 0.07972743456002007 L1.8148990390400428 0.036655128560020955 L1.8412540190399938 0.016449642560040445 L1.8503490720400606 0.015209407560000443 L1.8547932450399998 0.0200669925600252 L1.8555167150399967 0.037068539560031866 L1.8584105950399845 0.04430323956000137 L1.8730867020400552 0.0571448325599917 L1.8891063960400203 0.06621404656007002 L1.9067797360400078 0.07122666156001145 L1.926520133039972 0.07210516055996408 L2.0251187660399665 0.1711172045599696 L2.062945914040043 0.19222702655999768 L2.0761750810400343 0.22098496156001346 L2.088435433040061 0.23661691056005196 L2.0916780110399458 0.24075119656009036 L2.1125552890400314 0.25643499356004185 L2.1992683420399857 0.30284043056004606 L2.2086735640399553 0.3064175945599956 L2.2573526520399554 0.3249321055600589 L2.287221630040065 0.32960882256002577 L2.291769157040008 0.3325543785600402 L2.2954898600400355 0.33692103756001046 L2.2999340330400315 0.3410809905600374 L2.3065486160400184 0.343070532560084 L2.352127229040022 0.34154607856006436 L2.362359163039983 0.3423729005600009 L2.3668033360400074 0.34640366356000385 L2.3691804520400552 0.3529665705599925 L2.3725910970399724 0.35973618256002027 L2.38044591404001 0.3643095465600581 L2.3874739090400254 0.36415451756001715 L2.402770133039965 0.3601754325600197 L2.4084545410400295 0.3604596525600172 L2.419720003039984 0.36606654556003804 L2.425197705039963 0.37107915955999005 L2.427118058040051 0.378136457560025 L2.427264762040025 0.3786755945600575 L2.428091585039951 0.39190476156004905 L2.428401643040033 0.39205979155999415 L2.4362564610400597 0.4029118415600337 L2.4386335770400223 0.41366053955996307 L2.440390576040002 0.4376642425599968 L2.4478319820400287 0.46066025456004667 L2.4585806800400434 0.48350123756002716 L2.460130972039977 0.4905292325599575 L2.459717561039966 0.505282853560054 L2.4623013830400424 0.5128534515600265 L2.4635852040400295 0.5139259115600154 L2.4665388510399993 0.5163932875600707 L2.4782177240399648 0.5210958425600651 L2.4828686030399325 0.5251266045600502 L2.4891731280400364 0.5369605075600745 L2.4998184720400474 0.5711961435600514 L2.5212125160399665 0.6088424245600024 L2.5274136870400383 0.6162063165600031 L2.5383690910400247 0.6198753425599861 L2.5620368970399596 0.6208055185600401 L2.5726822430400347 0.6245520595600667 L2.590355582040033 0.6456102065600859 L2.5910790520400298 0.6691746585599887 L2.580123649040061 0.692429053559998 L2.566931427040018 0.7083464295600308 L2.5581094890399783 0.7189907405600238 L2.5515982580400163 0.7335118175600641 L2.5484976720399715 0.7384985925600276 L2.5430199700399925 0.7410565755600302 L2.5273103350400135 0.7444672205600327 L2.5223493970400597 0.7479037035600626 L2.517595165039964 0.759375871559989 L2.5144945800400222 0.7731993175600493 L2.5135644040399683 0.7875912035599626 L2.515218050040019 0.800949561559996 L2.518421989039993 0.8066339685600425 L2.527930452039996 0.8177960785600575 L2.5302042150400013 0.8245656915600179 L2.52937739203999 0.8304051275599917 L2.5245198080399547 0.8469932625599981 L2.525096237040046 0.862343010560032 L2.527723747040014 0.9323110515599851 L2.5290673340399934 0.9371686375599992 L2.5348550940400543 0.9473488935600685 L2.536095328039991 0.9531366545600335 L2.5336148590400143 0.9578392105600173 L2.522039339039978 0.9686395845600586 L2.518835400040004 0.9747890795600185 L2.5209024570400658 0.9961314465600353 L2.525966748040034 1.0171120775600215 L2.5223493970400597 1.035715593560063 L2.4984748850399825 1.0497715825599911 L2.407524365040061 1.0445522635600852 L2.378314581039959 1.0485049635600987 L2.362462515040008 1.0506500825600469 L2.3437903510399707 1.0630439755600136 L2.332800244039973 1.070338802559995 L2.3235003790399986 1.0985146305600821 L2.3223616040399264 1.1019647795600847 L2.3182274900400017 1.1811330735600833 L2.3087190260400092 1.2197353685599737 L2.2972468580399976 1.2399408535600784 L2.286394807040054 1.2458836435600844 L2.2733723470400236 1.2409743825600614 L2.2555956540399933 1.2289337735599801 L2.247844189040066 1.2210272795600403 L2.2434000160399847 1.2132758145600278 L2.238682269039984 1.208558067560027 L2.2376122550399913 1.2074880545600521 L2.2260367340399654 1.2053176435600719 L2.2108438640400294 1.208469906560019 L2.2074332190399986 1.21575628356009 L2.20826004204001 1.2247479835600288 L2.2059862790400047 1.2329128585600628 L2.1888297030400423 1.2495526705600852 L2.171673128039984 1.2604047205600395 L2.168130909039988 1.2614596435600944 L2.1527595540400313 1.2660374515600594 L2.130745393039959 1.2670193045600158 L2.0980858880399893 1.2632986005600273 L2.082169547040067 1.263401954560031 L2.062945914040043 1.2677944505600394 L2.0489932780400437 1.2705333015599862 L2.032973583040004 1.2718768895600405 L2.003311312040026 1.2708950365600842 L1.9919424960400391 1.2676394215599984 L1.9707551590399959 1.2572007815600656 L1.9616601070400321 1.2538418135600509 L1.949154411040027 1.25317002056007 L1.9238329590399559 1.256580664560083 L1.9049193840400136 1.2570457525600247 L1.8965478020400184 1.2611281915600259 L1.8902432780400176 1.2605597505600699 L1.8881762200399663 1.257097428560023 L1.8867292800399724 1.2439199395600369 L1.884145459040056 1.2400442065600075 L1.87494705304006 1.2380288255600576 L1.8444579590399854 1.2350832685600537 L1.8066308110399945 1.2259365405600633 L1.795133740039958 1.2248606115600396 L1.787303825039956 1.2241278655600567 L1.7646695470399862 1.2256264825599814 L1.7418285640400057 1.233636329559964 L1.7058617670400196 1.258337663560063 L1.684881136040005 1.2640220715600137 L1.677439729039989 1.2619033375600495 L1.6442634600399941 1.2483641125600613 L1.6417829910400172 1.2455219085599865 L1.6401293450399663 1.2404576185600078 L1.6370287590400068 1.235651709560095 L1.629690706040023 1.2336880045599727 L1.6255565910399952 1.2356000335600967 L1.6153246580400236 1.2442816745600496 L1.6105704260399278 1.2469688485599804 L1.5465950030399398 1.2611798675600525 L1.5162092610400038 1.273633887560031 L1.5070421340399918 1.278790396559991 L1.490577750040032 1.2880516125600465 L1.4827229330399945 1.2947695485599624 L1.4786921710400094 1.3042780115600507 L1.4778296080400395 1.3208392215599574 L1.4776586420400264 1.3241217615600291 L1.4757982900400037 1.3317181975600008 L1.4621557130399907 1.3471177745600968 L1.4264989740400011 1.3731626965600512 L1.4129597490399561 1.391817888560034 L1.4128563960399987 1.391921241559963 L1.4127530430399844 1.392024594560091 L1.3751326010400504 1.411971696560009 L1.3652107250399723 1.4213768075600726 L1.3633503740399675 1.429645036560025 L1.3632470210400385 1.440445410560038 L1.35962967103994 1.4518142265600247 L1.3470206210400164 1.4616327485600138 L1.3385877790400258 1.4630382225600371 L1.318495231039961 1.4663869805599958 L1.2666120930399671 1.4575503095600126 L1.238396760040004 1.4673171565600498 L1.2363297040400454 1.4712445645600312 L1.2341592930399514 1.484163673560026 L1.2303352380400128 1.48974472756003 L1.2253742990399843 1.4910883145600096 L1.2110082520399743 1.490468197560027 L1.2052204910399809 1.4911399915600256 L1.1951952630399632 1.4972378105600725 L1.1718375160400143 1.5148594735600724 L1.1630525220399335 1.519251969559967 L1.135147249039946 1.5151178555600424 L1.09101557604005 1.485042172560064 L1.087227449039986 1.4846413645600407 L1.0109171060399973 1.4765672375599692 L0.9864224760400333 1.4769289725600672 L0.9627546710400026 1.485042172560064 L0.9263744630400339 1.5124823575600246 L0.9107681800399945 1.519251969559967 L0.8768684400399849 1.5246779955600331 L0.8424519360400353 1.5247296725600492 L0.8273211920399746 1.5223183985600244 L0.7905687980399279 1.5164614425599936 L0.7645238760399451 1.5153762385600018 L0.6936238110399842 1.531602637560006 L0.5467593910399984 1.5361501635600447 L0.5463459790400549 1.5095884775600368 L0.5381811030399462 1.4907782555600235 L0.5214379390400126 1.47847926555999 L0.47172521104000964 1.4672654795600337 L0.4189118980400366 1.4614777185600687 L0.41804116304003003 1.4616404315600207 L0.39844803004000084 1.4653017755600146 L0.3651684080399633 1.486489112560058 L0.34759842103996164 1.4918117845600065 L0.32238032204001854 1.4875743165600497 L0.3120695380400065 1.4809330915600682 L0.2987125160399984 1.4723297695600124 L0.28424311503995625 1.4492304045600335 L0.26491612904000306 1.391714534560002 L0.24558914304004986 1.3263955245600627 L0.2353572090400604 1.3102724785600728 L0.22450515904002089 1.3039679535599689 L0.2156255110400167 1.3029679925600064 L0.21303299104000928 1.302676042560016 L0.20042394103997196 1.3031411305600429 L0.1867813630399695 1.3020559255600332 L0.17891625203999695 1.2992715615600545 L0.15846267903997102 1.2920306975600155 L0.15143468403998384 1.2784397965600292 L0.15205480104002334 1.2607147795600255 L0.14699051004005526 1.2381321785600718 L0.13117752204006194 1.2149294605600787 L0.09417719604000752 1.1753969895600207 L0.08156814703998805 1.1500238615600367 L0.06461827803998688 1.096073666559981 L0.059243928040032756 1.0659463055599971 L0.05960523903998194 1.0639590965600618 L0.06317133803999297 1.0443455575600282 L0.07753738603999238 1.0477562015600412 L0.09190343304000237 1.0411416185600544 L0.10492589404002217 1.0287392745599888 L0.11443435804001467 1.0150966965600716 L0.12146235304003028 0.9984052095600404 L0.1216690590399736 0.9848659845600523 L0.12054574203993695 0.982600311560013 L0.11557124004001196 0.9725669925600116 L0.10368566004000002 0.9598545905600631 L0.09614090104004447 0.9560822105600479 L0.07950109004001149 0.9540668305600022 L0.07236974203998159 0.9495193035600593 L0.07040603803996248 0.944093278560068 L0.06833898103998592 0.9277635265600495 L0.06503168903999779 0.9200637375600635 L0.06309387403997846 0.9172751745599825 L0.0523192870399356 0.9017702815599975 L0.0446711740400616 0.8957758145600607 L0.033509065040036035 0.8919517595600084 L0.026481070040020427 0.8770689455600618 L0.029374951039997654 0.8500938485600429 L0.025654248039998606 0.8358828305599886 L0.07443680003994757 0.8278729825600166 L0.0889062010399897 0.823273780560065 L0.10234207304002041 0.817175961560018 L0.11081700804002992 0.8106647305600276 L0.11619135703999461 0.8002777675600257 L0.11616707303993223 0.7982197185599986 L0.11608800403998032 0.7915186125600187 L0.09490066704002231 0.7451390145600314 L0.08983637703992997 0.723796647560043 L0.08187820603997409 0.6514496425599745 L0.08477208603996189 0.6409076505600169 L0.09283360904005633 0.6276009695600848 L0.10265213104001703 0.6178857995600637 L0.12590652703993044 0.6007809005600038 L0.13241775704001668 0.5920217455600252 L0.13163322604002303 0.585483985559982 L0.1299372880400398 0.571351173560025 L0.12197911704005548 0.5461072355600365 L0.12228311803998793 0.5406795545600218 L0.12321935103999238 0.5239638845600254 L0.14864415704001033 0.5123625245600678 Z" fill="black" stroke="black" stroke-width="0.5" vector-effect="non-scaling-stroke"/></svg>