<svg xmlns="http://www.w3.org/2000/svg" viewBox="0 0 8.023278654299943 9.938442383279956"><path d="M4.360669225649936 1.1523326886399339 L4.39073296965001 1.1558650746400083 L4.409413353649946 1.182080171639928 L4.449167547650013 1.1893835266399044 L4.44442006364995 1.2168801716400033 L4.416470388649948 1.2300533326400007 L4.393194387650006 1.2375617196399453 L4.381807787649969 1.2464978086400045 L4.3522488686499585 1.2657731176399416 L4.335815762649993 1.2722326726399054 L4.32000277465 1.2681502336399042 L4.3076692256499385 1.2625729476400132 L4.3061675476499275 1.2528120446399278 L4.308420063649983 1.2280343656400028 L4.335170902649914 1.215932174640006 L4.3449318066499885 1.2054204316399542 L4.338925096649923 1.1971612056399472 L4.33571240964995 1.187121588639986 L4.333669225650006 1.170881849640029 L4.360669225649936 1.1523326886399339 Z M4.363070902650016 1.2341852046399033 L4.38302363765002 1.227931973639972 L4.388372580650021 1.2114818496400126 L4.37385635764992 1.2021188426399938 L4.365120063649961 1.2022326886399988 L4.359622948649992 1.207426215640016 L4.363070902650016 1.2341852046399033 Z M4.177441317426037 0.42235993231749447 L4.1775292156499475 0.4220613606399617 L4.182086507649963 0.4127026366399811 L4.191526611649927 0.3768953456399551 L4.25777010164996 0.2823315426399837 L4.281858642649929 0.23740966763998372 L4.291949788649909 0.22833577463999077 L4.308307210649964 0.2203198246399758 L4.309202392649929 0.2258536786399965 L4.308307210649964 0.23936279263998372 L4.319944580649924 0.2556795246399908 L4.316852132649963 0.26129475963998416 L4.31245760164996 0.2755769856399617 L4.319944580649924 0.2755769856399617 L4.329547444649911 0.2666251626399436 L4.355589111649927 0.26532307963995905 L4.360797444649911 0.2588126626399436 L4.366900960649964 0.2559236656399868 L4.3800031746499215 0.26031819663998945 L4.391884684649945 0.2715486656399868 L4.394977132649963 0.28916748063997844 L4.401975830649924 0.27809977263999386 L4.408893148649959 0.27866943363997976 L4.417438069649911 0.28277913463998416 L4.429156819649911 0.2823315426399837 L4.456337809649945 0.2642651366399811 L4.46699861664991 0.2619051106399617 L4.497516194649911 0.2695548506399952 L4.50418937164995 0.2686596676399837 L4.5069562996499215 0.2602775066399978 L4.502399007649963 0.25132568363997976 L4.494586507649963 0.24424560563997844 L4.4874250496499215 0.2413972986399564 L4.4678937996499215 0.2393221026399921 L4.455768148649959 0.24001383463999915 L4.446897705649924 0.24481526663996434 L4.4412010906499475 0.2510815426399837 L4.431354085649964 0.2599519856399617 L4.419635335649964 0.2654858396399824 L4.40848624664995 0.2619051106399617 L4.408323486649927 0.2507967126399855 L4.41597322664996 0.20876383463999915 L4.41597322664996 0.1929760746399758 L4.44527010164996 0.21417561863998813 L4.458453694649911 0.21844807963995905 L4.463824788649909 0.20388102263999386 L4.459104736649927 0.19606852263999386 L4.447874267649929 0.18597737663995773 L4.434039632649963 0.17726969363994627 L4.422320882649963 0.17377034563995508 L4.426552653649942 0.16449300163995773 L4.432086507649963 0.16266194663998945 L4.438190023649959 0.16270263663998108 L4.444049398649959 0.15948811863998813 L4.456337809649945 0.14581624363998813 L4.461871663649909 0.13389404263998372 L4.460569580649924 0.11212483763998549 L4.463824788649909 0.09743570963999915 L4.470009684649945 0.09743570963999915 L4.483681559649945 0.12469807963995905 L4.4991437996499215 0.11550211563994495 L4.50418937164995 0.11110758463999915 L4.51167635164996 0.11847249363998813 L4.5069562996499215 0.1260408526399921 L4.506549398649959 0.12860432963995905 L4.508746663649909 0.1310457356399617 L4.51167635164996 0.13836995463995905 L4.521116455649924 0.13128987663995773 L4.526975830649924 0.13381266263994362 L4.531940023649959 0.14044514963999077 L4.53902010164996 0.14581624363998813 L4.562213460649964 0.1515535486399564 L4.57442049164991 0.15261149063994495 L4.587359944649911 0.15204182963995905 L4.585244059649945 0.1475252276399921 L4.5818260906499475 0.13605061863998813 L4.5798729656499475 0.13153401663996434 L4.601031819649911 0.12469807963995905 L4.6111229656499475 0.14992594363994627 L4.609007080649924 0.15969156863994627 L4.595009684649945 0.16066813163999782 L4.569619059649945 0.15948811863998813 L4.552854736649927 0.16506266263994362 L4.522906819649911 0.18878499363998813 L4.506305257649963 0.1985099286399965 L4.507525960649964 0.19855061863998813 L4.507281819649911 0.2042879236399564 L4.498655517649929 0.2147045896399824 L4.520953694649911 0.235782063639963 L4.5323469246499215 0.24396077463999077 L4.545856038649909 0.2482332356399617 L4.55497062164995 0.24408284563995508 L4.565387288649909 0.23614827463999077 L4.576292236649927 0.2342358396399824 L4.587359944649911 0.2482332356399617 L4.568805257649963 0.27789632163998945 L4.5596906746499215 0.2813142906399868 L4.553343017649929 0.2619051106399617 L4.543089111649927 0.2629630536399965 L4.532021403649942 0.2619051106399617 L4.535846273649959 0.2717928056399934 L4.5369042156499475 0.2781404626399855 L4.53543937164995 0.2832674156399868 L4.532021403649942 0.28916748063997844 L4.544635335649964 0.30104899063994495 L4.559772054649962 0.30914632163998945 L4.572955648649959 0.3194002276399921 L4.5798729656499475 0.33758870463995905 L4.5681542156499475 0.33742594363994627 L4.557412028649942 0.3349845376399436 L4.547809163649909 0.3302644856399617 L4.53902010164996 0.3233064776399921 L4.524615804649962 0.32961344363994627 L4.512490153649942 0.32497477263999386 L4.5050031746499215 0.3128084306399934 L4.50418937164995 0.29665445963999915 L4.49832999664995 0.2999910486399564 L4.483193278649942 0.30642008463999915 L4.477496663649909 0.3096752926399837 L4.477008382649963 0.2990144856399617 L4.478961507649963 0.2908764646399824 L4.483681559649945 0.2853426106399617 L4.491168538649909 0.2823315426399837 L4.468463460649964 0.27887288463998416 L4.44364249664995 0.2920157876399436 L4.4288312996499215 0.3105704756399952 L4.435992757649963 0.3233064776399921 L4.430947184649945 0.33408935563997844 L4.429807861649927 0.3462963866399811 L4.431760986649927 0.3591951496399908 L4.435992757649963 0.37176839163996434 L4.444781819649911 0.3515861006399952 L4.45308260164996 0.34076253263996037 L4.463824788649909 0.33758870463995905 L4.470172444649911 0.3439363606399617 L4.471149007649963 0.35557373063997844 L4.468382080649924 0.36851318363997976 L4.463824788649909 0.3785229496399758 L4.483356038649909 0.3859285486399564 L4.573037028649942 0.3847892256399952 L4.56441072664996 0.3980541996399758 L4.549274007649963 0.40985432963995905 L4.518349528649942 0.42633382163998945 L4.489215413649909 0.43630289763999386 L4.480182210649964 0.4451733396399824 L4.483681559649945 0.4611238606399617 L4.5089094246499215 0.4490388996399908 L4.522906819649911 0.46026936863998813 L4.52339510164996 0.47878336563994495 L4.500445882649963 0.49294352263999386 L4.505084554649962 0.5029532876399436 L4.518349528649942 0.5194734706399551 L4.522174398649959 0.526797688639963 L4.53120760164996 0.530703938639963 L4.553343017649929 0.5362377926399837 L4.545530517649929 0.5409578456399551 L4.542682210649964 0.5441316736399564 L4.53902010164996 0.5573152666399643 L4.524208903649942 0.550235188639963 L4.507932861649927 0.5460034176399837 L4.493365804649962 0.5475496416399643 L4.483681559649945 0.5573152666399643 L4.499469319649911 0.5810782876399436 L4.492633382649963 0.602969563639963 L4.476194580649924 0.6241284176399837 L4.463824788649909 0.6454500326399604 L4.4626854656499475 0.6527742516399577 L4.463824788649909 0.6765372726399939 L4.444049398649959 0.6938712566399978 L4.427447835649964 0.7210115556399934 L4.41629874664995 0.733828938639963 L4.401813069649911 0.741641438639963 L4.401813069649911 0.7205232746399908 L4.387978434649945 0.7418041996399758 L4.373818278649942 0.7742749026399771 L4.366656819649911 0.810814615639945 L4.373818278649942 0.8440991216399745 L4.379099879494056 0.8559624097872991 L4.337572761649945 0.8668310606399707 L4.321553067649923 0.8695699116400029 L4.305843431649926 0.8656425036399362 L4.298815436649939 0.8581494206400073 L4.28889356265001 0.8379956116400145 L4.279901863649975 0.8313293516400115 L4.256440762649909 0.8275052956399698 L4.252540703649977 0.8254469306400161 L4.250859708649962 0.8245597386399659 L4.245175300649926 0.8125708066400144 L4.240421068649944 0.7678706926399634 L4.2412478926500015 0.7507141166400011 L4.251996589649998 0.7402754786399619 L4.264915697650004 0.7312321026399111 L4.272047045649977 0.7181579646399605 L4.267396166649981 0.705703944639982 L4.244141771649943 0.6774886126400084 L4.239697598649975 0.6604353906399645 L4.24455518365 0.6455009016399238 L4.263882168650021 0.6209545956399616 L4.270600105649983 0.6065885476399622 L4.274734219649993 0.5168782616399774 L4.281348803649969 0.4871643126399938 L4.2835192136499884 0.46887085563993836 L4.278454922649992 0.4484069886399773 L4.262745287649928 0.40985637063998936 L4.251376472650016 0.40861613563994936 L4.200630215649944 0.42055339163998795 L4.177441317426037 0.42235993231749447 Z M4.483356038649909 1.5051912436399881 L4.505491455649924 1.5861238606399617 L4.569619059649945 1.708072102639992 L4.58036124664995 1.7182853186399463 L4.586871663649909 1.7415600586399798 L4.5935448406499475 1.7832267256399952 L4.71122062164995 1.9870841476399939 L4.735634684649945 2.0120271806399934 L4.792193929649962 2.058169759639984 L4.9014875496499215 2.180443522639994 L4.923134684649945 2.2122631836399798 L4.932330648649959 2.2308992516399577 L4.941119710649964 2.2595857746399908 L5.039508382649963 2.3674959306399934 L5.158323486649927 2.4603100586399798 L5.251585205649924 2.5298494466399895 L5.2843000496499215 2.5491365556399934 L5.426389892649929 2.599388834639999 L5.60965812164995 2.644310709639999 L5.686481038649909 2.6759676106399617 L5.7452375496499215 2.692976074639976 L5.786822835649964 2.700056152639977 L5.809772054649962 2.701195475639995 L5.877399007649963 2.6974519856399617 L5.895790934649945 2.701195475639995 L5.924436767649929 2.735782063639963 L5.935016194649911 2.7433504236399564 L5.95926749664995 2.749331868639988 L5.987750569649911 2.762556152639977 L6.0128156746499215 2.765567220639955 L6.143186767649929 2.758853352639992 L6.186806559649945 2.761294759639984 L6.231647054649962 2.7700838216399895 L6.29325187164995 2.7940502926399837 L6.3103417156499475 2.7974275716399895 L6.327431559649945 2.804263509639984 L6.364215413649909 2.8385652666399643 L6.382444580649924 2.8519930016399577 L6.417275309649945 2.8624910486399564 L6.463580648649959 2.8678621416399643 L6.51200187164995 2.867211100639995 L6.55301749664995 2.859439290639987 L6.574908773649959 2.8518709306399934 L6.583697835649964 2.845279134639984 L6.5909406746499215 2.8268465166399643 L6.59956697664996 2.8265209966399745 L6.618609944649911 2.831485188639963 L6.661415934649945 2.832298990639945 L6.684202392649929 2.836449381639998 L6.704547444649911 2.8458081056399784 L6.713336507649963 2.8583406576399604 L6.733356038649909 2.898135579639959 L6.74214510164996 2.9065991216399745 L6.7471906746499215 2.9085115556399934 L6.751585205649924 2.912865397639994 L6.755572835649964 2.917666829639959 L6.759072184649945 2.9209220376399436 L6.761350830649924 2.9202709966399745 L6.766884684649945 2.919497884639984 L6.774046142649929 2.9194571936399463 L6.7803937996499215 2.9209220376399436 L6.794635335649964 2.9319897466399745 L6.802447835649964 2.9404532876399436 L6.80692374664995 2.9482657876399436 L6.81441072664996 2.9482657876399436 L6.82059562164995 2.9345939126399436 L6.822955648649959 2.9400056966399895 L6.824990153649942 2.943301595639955 L6.826861898649959 2.947329915639987 L6.82808260164996 2.955020345639955 L6.834918538649909 2.955020345639955 L6.836057861649927 2.950747884639984 L6.841022054649962 2.941348470639955 L6.846393148649959 2.9457430016399577 L6.84956697664996 2.946963704639959 L6.862099528649942 2.941348470639955 L6.886188069649911 2.971296386639981 L6.893024007649963 2.987735188639963 L6.889443278649942 3.002790527639977 L6.897418538649909 3.0166251626399436 L6.907672444649911 3.062279459639999 L6.920611898649959 3.081647949639976 L6.979205648649959 3.132144368639988 L7.015257080649924 3.147321777639977 L7.02949861664991 3.1653068036399965 L7.046588460649964 3.208316243639988 L7.056272705649924 3.2239819336399798 L7.086546142649929 3.2509187826399604 L7.10176424164991 3.2710196936399463 L7.110146403649942 3.330101725639995 L7.17378572664996 3.3901603186399463 L7.17793611664991 3.3982576496399908 L7.183714111649927 3.4280428056399934 L7.187945882649963 3.435000813639963 L7.192584554649962 3.4397615556399934 L7.2204979656499475 3.460635579639959 L7.27372062164995 3.4894441736399564 L7.307574788649909 3.5130444336399798 L7.33231437164995 3.5403881836399798 L7.350055257649963 3.5713940426399837 L7.386188069649911 3.6569246416399643 L7.389850179649962 3.671328938639963 L7.3975812996499215 3.6906974286399965 L7.415729085649964 3.7039217126399855 L7.451861898649959 3.722232259639984 L7.491656819649911 3.781192220639955 L7.497272054649962 3.7973055016399577 L7.510699788649909 3.812564290639987 L7.5525292156499475 3.849307454639959 L7.58394197664996 3.864566243639988 L7.606891194649911 3.883324381639998 L7.629840413649909 3.8955314126399436 L7.635537028649942 3.900332845639955 L7.6365135906499475 3.9108308916399643 L7.630491455649924 3.9133536786399965 L7.622027913649909 3.9112377926399837 L7.615680257649963 3.907819824639976 L7.615843017649929 3.921898600639995 L7.623167236649927 3.9282869466399895 L7.635211507649963 3.9295483396399824 L7.649859944649911 3.9282869466399895 L7.72684562164995 3.9035880536399965 L7.753538330649924 3.913679199639976 L7.793902913649909 3.9419588216399895 L7.800006429649962 3.9424877926399837 L7.815712809649945 3.940493977639992 L7.821246663649909 3.9419588216399895 L7.8240135906499475 3.946597493639988 L7.825885335649964 3.957298990639945 L7.828570882649963 3.9624259436399463 L7.82840812164995 3.9652742516399577 L7.8272687996499215 3.9698315426399837 L7.82808260164996 3.9757722986399564 L7.834755778649942 3.982933756639998 L7.83980135164996 3.9856193036399965 L7.846149007649963 3.9878165686399463 L7.852822184649945 3.9892000326399604 L7.859007080649924 3.9897696936399463 L7.862587809649945 3.9848055016399577 L7.856077392649929 3.9739819336399798 L7.8415917156499475 3.958682454639959 L7.845823486649927 3.9451733396399824 L7.856402913649909 3.944929199639976 L7.876422444649911 3.9419588216399895 L7.903277913649909 3.948672688639963 L7.9249250496499215 3.974551595639955 L7.93941072664996 4.008120930639993 L7.944619059649945 4.038150227639992 L7.9249250496499215 4.202009277639977 L7.911822835649964 4.246035970639955 L7.891803304649962 4.285342610639962 L7.834755778649942 4.36029378263996 L7.80497062164995 4.383853352639992 L7.7882062996499215 4.400699055639993 L7.780719319649911 4.4183178716399745 L7.778033773649959 4.441511230639978 L7.75972322664996 4.489362792639984 L7.755084554649962 4.5376619466399895 L7.745318929649962 4.55755940763996 L7.705686767649929 4.57318440763996 L7.693479736649927 4.5906404626399855 L7.677040934649945 4.627139485639962 L7.59793937164995 4.727074381639998 L7.567665934649945 4.816999511639981 L7.5486229656499475 4.858503417639984 L7.45503572664996 4.997744954639959 L7.44754874664995 5.0298494466399895 L7.444293538649909 5.038679199639976 L7.436236898649959 5.045677897639994 L7.295367757649963 5.1043123376399855 L7.266315023649959 5.120629068639946 L7.154417236649927 5.2063224286399965 L7.019244710649964 5.339704589639982 L6.978147705649924 5.399600423639956 L6.967975179649962 5.408633626639958 L6.954303304649962 5.417788899639991 L6.9385969246499215 5.438907063639963 L6.907916585649964 5.492618001639958 L6.90449861664991 5.501813964639982 L6.901975830649924 5.537173665639987 L6.898883382649963 5.547386881639998 L6.893024007649963 5.55601318363998 L6.834918538649909 5.6004060876399855 L6.839068929649962 5.621158040639987 L6.82222322664996 5.635358886639981 L6.7803937996499215 5.655052897639994 L6.78153312164995 5.656924641639964 L6.773883382649963 5.675235188639963 L6.772744059649945 5.675560709639999 L6.76582674164991 5.681826985639962 L6.761350830649924 5.687076009639984 L6.759072184649945 5.692569173639956 L6.7615135906499475 5.701765136639981 L6.767698486649927 5.711123860639962 L6.7764875496499215 5.719017740639945 L6.786578694649911 5.723941243639988 L6.801389892649929 5.717390136639981 L6.8181542156499475 5.702578938639963 L6.829384684649945 5.696597493639988 L6.82808260164996 5.716494954639959 L6.8181542156499475 5.7297599286399965 L6.7999250496499215 5.742618001639958 L6.781858642649929 5.747500813639963 L6.772744059649945 5.737002766639964 L6.766559163649909 5.737002766639964 L6.760943929649962 5.751081542639984 L6.753375569649911 5.7781404626399855 L6.745400309649945 5.7922599286399965 L6.737506429649962 5.799014485639962 L6.715452392649929 5.810977376639958 L6.704547444649911 5.820132649639991 L6.691852132649963 5.839460449639976 L6.680865804649962 5.864932454639959 L6.673297444649911 5.892764485639962 L6.670530517649929 5.919131673639956 L6.645139892649929 5.966983235639962 L6.631305257649963 6.002017415639987 L6.632525960649964 6.0181306966399895 L6.62691072664996 6.025699055639993 L6.621539632649963 6.059024251639958 L6.618609944649911 6.066592610639962 L6.6104719246499215 6.068179524639991 L6.597125569649911 6.0726147466399745 L6.583616455649924 6.079206542639984 L6.57417635164996 6.087019042639984 L6.5675031746499215 6.113874511639981 L6.545856038649909 6.124779459639999 L6.517698486649927 6.123802897639994 L6.491656819649911 6.114932454639959 L6.47261385164996 6.1060213216399895 L6.45918611664991 6.101830240639945 L6.426471273649959 6.100690917639984 L6.4138573406499475 6.102603352639992 L6.390094319649911 6.112002766639964 L6.375608642649929 6.114932454639959 L6.3787010906499475 6.1060213216399895 L6.3845604656499475 6.101423339639982 L6.379677653649942 6.09857503263996 L6.344195882649963 6.089175618639988 L6.324339111649927 6.087019042639984 L6.30293611664991 6.0786775716399895 L6.3005760906499475 6.059024251639958 L6.313434163649909 6.0181306966399895 L6.313271403649942 6.030703938639963 L6.317340413649909 6.041853027639977 L6.324827392649929 6.0515779626399855 L6.334674398649959 6.059756673639956 L6.338499267649929 6.039574381639998 L6.32832674164991 5.994571126639958 L6.33809236664991 5.974063313639963 L6.3513573406499475 5.954206542639984 L6.36161124664995 5.925316568639946 L6.364215413649909 5.8957755536399965 L6.355182210649964 5.874128417639984 L6.334918538649909 5.8677400716399895 L6.3057844246499215 5.87005940763996 L6.276324788649909 5.878685709639999 L6.244260986649927 5.898216959639999 L6.203570882649963 5.908267415639987 L6.190875569649911 5.9165681966399895 L6.184527913649909 5.925357259639984 L6.167275309649945 5.972354329639959 L6.166624267649929 5.983584798639956 L6.173134684649945 5.994245605639978 L6.175901611649927 6.003360188639963 L6.167682210649964 6.010928548639956 L6.1553937996499215 6.0161775716399895 L6.13081697664996 6.021507975639995 L6.112506429649962 6.029971516639964 L6.094440023649959 6.041120605639978 L6.070758382649963 6.062198079639959 L6.062132080649924 6.072533365639945 L6.055865804649962 6.083845214639982 L6.053424398649959 6.096988118639988 L6.05659822664996 6.106468912639944 L6.070758382649963 6.121524251639958 L6.073932210649964 6.131127115639945 L6.06660799164991 6.153181152639977 L6.04878572664996 6.165835774639991 L6.005084554649962 6.182640787639944 L5.98848299164991 6.192691243639988 L5.9704979656499475 6.206363118639988 L5.9561750496499215 6.222761230639978 L5.950397054649962 6.240990397639994 L5.944944580649924 6.252220865639945 L5.93355135164996 6.265078938639963 L5.92378572664996 6.282331542639984 L5.923053304649962 6.306745605639978 L5.942014892649929 6.347354329639959 L5.948037028649942 6.3716463216399895 L5.931760986649927 6.408063964639982 L5.91629874664995 6.462670084639999 L5.915729085649964 6.476830240639945 L5.913694580649924 6.5064119466399895 L5.8904198406499475 6.5593904626399855 L5.873736898649959 6.615542805639993 L5.862099528649942 6.640445149639991 L5.798948486649927 6.729027506639998 L5.78926424164991 6.75523193363998 L5.793414632649963 6.7859529626399855 L5.800494710649964 6.7974275716399895 L5.809283773649959 6.806664225639995 L5.816852132649963 6.816592610639962 L5.820025960649964 6.830345865639945 L5.82059562164995 6.860782063639963 L5.818968017649929 6.875430501639958 L5.813922444649911 6.888369954639959 L5.80659822664996 6.914574381639998 L5.8044823406499475 6.934675292639984 L5.811806559649945 6.9539217126399855 L5.860309163649909 7.029320475639995 L5.867877523649959 7.045962727639992 L5.873981038649909 7.073754068639946 L5.873818278649942 7.10052815763996 L5.86909822664996 7.1257967126399855 L5.852252523649959 7.171817220639955 L5.848346273649959 7.192406412639944 L5.8507062996499215 7.215355631639998 L5.8708885906499475 7.266462402639977 L5.880572835649964 7.282290852639992 L5.905719319649911 7.310407714639982 L5.9119042156499475 7.3265209966399745 L5.903033773649959 7.368269042639984 L5.902057210649964 7.388614095639955 L5.939899007649963 7.453433430639993 L5.940143148649959 7.468081868639988 L5.915729085649964 7.491641438639963 L5.901162028649942 7.5027498376399855 L5.897174398649959 7.504173990639945 L5.852333903649942 7.510358886639981 L5.847369710649964 7.515567220639955 L5.8428937996499215 7.521548665639987 L5.83198885164996 7.529605305639993 L5.8194562996499215 7.53648193363998 L5.809772054649962 7.5394116216399745 L5.60152010164996 7.529727376639958 L5.545367757649963 7.538068847639952 L5.307574788649909 7.573428548639956 L5.18379549164991 7.607038574639976 L5.015094319649911 7.6731193036399965 L4.950397054649962 7.7175935876399855 L4.907835205649924 7.737816568639946 L4.88472322664996 7.75482503263996 L4.8747948406499475 7.776228027639977 L4.866494059649945 7.786563313639963 L4.75972322664996 7.88804443363998 L4.741168538649909 7.924136555639993 L4.736936767649929 7.971459147639994 L4.743447184649945 8.004214680639993 L4.74434236664991 8.015811360639962 L4.741168538649909 8.028506673639956 L4.726682861649927 8.047549641639964 L4.721311767649929 8.06382568363998 L4.712359944649911 8.08380452463999 L4.709674398649959 8.094343261639981 L4.709674398649959 8.135928548639956 L4.700641194649911 8.178002115639945 L4.648883382649963 8.293562011639981 L4.663775960649964 8.313174641639964 L4.661334554649962 8.334170735639962 L4.647255778649942 8.353701985639962 L4.627643148649959 8.368716634639984 L4.58418611664991 8.386905110639962 L4.562620361649927 8.39899007163999 L4.532021403649942 8.451236165639987 L4.52567374664995 8.45599690763996 L4.511350830649924 8.460228678639997 L4.50418937164995 8.464297688639963 L4.457721273649959 8.513614095639955 L4.45503572664996 8.521101074639976 L4.456337809649945 8.543399251639958 L4.444944580649924 8.545596516639964 L4.288531819649911 8.52630940763996 L4.268268148649959 8.529320475639995 L4.238401611649927 8.542829589639982 L4.216266194649911 8.546817220639955 L4.13114249664995 8.53998128263996 L4.110797444649911 8.543033040639987 L4.046100179649962 8.567935384639984 L4.009479085649964 8.576765136639981 L3.753538330649924 8.588076985639962 L3.6529523926499294 8.613142089639982 L3.6305728356499642 8.615095214639982 L3.6225161946499114 8.616966959639942 L3.61738924164991 8.621158040639987 L3.612913330649924 8.62591878263996 L3.6066470546499616 8.629418131639998 L3.588336507649963 8.629947102639992 L3.5868716636499087 8.629418131639998 L3.553994059649945 8.638003743639988 L3.54520499664995 8.64239827463999 L3.531695882649963 8.65875569663999 L3.5173729656499475 8.69818440763996 L3.50801424164991 8.714704589639982 L3.4931216636499087 8.731265462639985 L3.488727132649963 8.739118652639977 L3.473427653649942 8.780093587639985 L3.469521403649942 8.787051595639955 L3.455768148649959 8.801822102639992 L3.3632388516499603 8.875674641639964 L3.3350812996499215 8.924584147639994 L3.328245361649927 8.944644368639988 L3.325478434649945 8.967959798639956 L3.3295474446499114 8.994815266639964 L3.34012687164995 9.008243001639958 L3.373818278649942 9.025983886639981 L3.393268148649959 9.045718587639985 L3.400836507649963 9.066592610639962 L3.401162028649942 9.11224690763996 L3.3942447106499642 9.131289876639958 L3.3534732266499603 9.184268391639964 L3.3512759606499642 9.193423665639987 L3.3495669766499603 9.207298990639945 L3.3507062996499215 9.219790852639992 L3.3568911946499114 9.225202636639981 L3.364866455649924 9.228620605639978 L3.3651919766499603 9.236351725639995 L3.3603091636499087 9.249128417639984 L3.354775309649945 9.254702962639985 L3.328570882649963 9.267276204639959 L3.3192935386499087 9.273013509639984 L3.313190023649959 9.281314290639987 L3.309365153649942 9.289859212639985 L3.305133382649963 9.30719319663999 L3.2955305176499294 9.322574055639993 L3.2987857266499603 9.327660318639946 L3.28926424164991 9.338646647639994 L3.2589094246499215 9.347598470639955 L3.2436099446499114 9.355573730639978 L3.23848299164991 9.364525553639997 L3.2330305176499294 9.378360188639963 L3.22481111664991 9.390933430639993 L3.2126040856499642 9.396548665639987 L3.1718326016499603 9.44122639963999 L3.1269107266499603 9.472272949639976 L3.120725830649924 9.472272949639976 L3.110960205649924 9.457136230639978 L3.099241455649924 9.463728027639977 L3.0870344246499215 9.478050943639946 L3.0753970546499616 9.485944824639976 L3.0596906746499215 9.488548990639945 L3.04512361664991 9.493431803639997 L3.031370361649927 9.496280110639962 L3.0170474446499114 9.49274007163999 L3.0014224446499114 9.508487141639964 L2.982867757649963 9.514346516639964 L2.941852132649963 9.519473470639955 L2.90848624664995 9.531924641639964 L2.891884684649945 9.532006022639994 L2.8805728356499642 9.519473470639955 L2.8690982266499603 9.525495605639978 L2.8507876796499616 9.522891438639963 L2.839475830649924 9.526919759639984 L2.805377523649959 9.505801595639955 L2.7979719246499215 9.513247884639984 L2.789833903649942 9.494082845639955 L2.78535799164991 9.476504720639955 L2.774127523649959 9.463646647639994 L2.733193278649942 9.456485188639963 L2.704384684649945 9.44708577463999 L2.692096273649959 9.444929199639976 L2.680377523649959 9.446068522639994 L2.659788330649924 9.450707193639946 L2.647744059649945 9.451765136639981 L2.6124250496499215 9.445010579639959 L2.5993228356499642 9.444929199639976 L2.588580648649959 9.44781819663999 L2.567665934649945 9.456729329639959 L2.5617251796499616 9.458601074639976 L2.5146060386499087 9.445580240639945 L2.4900292156499475 9.443952636639981 L2.469521403649942 9.458601074639976 L2.4601626796499616 9.453799641639964 L2.4503970546499616 9.45172444663999 L2.264117757649963 9.472272949639976 L2.1850161946499114 9.472272949639976 L2.167600830649924 9.476667480639978 L2.123492757649963 9.498070475639995 L2.1127505696499114 9.505801595639955 L2.109007080649924 9.514753417639984 L2.1093326016499603 9.522484537639944 L2.111448486649927 9.529727376639958 L2.1127505696499114 9.537417805639993 L2.109495361649927 9.545962727639992 L2.0954165856499642 9.558047688639963 L2.092242757649963 9.564151204639959 L2.0811750496499215 9.574649251639958 L2.055947184649945 9.579532063639963 L2.010211507649963 9.582136230639978 L1.9503970546499616 9.594261881639998 L1.9307844246499215 9.595767415639987 L1.9127180176499294 9.601626790639987 L1.8920474446499114 9.61310139963999 L1.8713768716499501 9.620791829639959 L1.8532290856499642 9.615664876639958 L1.834674398649959 9.627261555639993 L1.8093651536499422 9.64740315763996 L1.7870669766499603 9.669782714639982 L1.77754549164991 9.688296712639985 L1.7693260906499475 9.699323730639978 L1.7506086426499294 9.710228678639997 L1.7154523926499294 9.72552815763996 L1.6827375496499215 9.733462727639992 L1.5230695806499241 9.736595865639945 L1.4386783046499616 9.74859944663999 L1.2753482266499603 9.798892415639987 L1.1903872886499087 9.841006673639956 L1.127949552649973 9.705929774639902 L1.0653177166499361 9.570485845639997 L1.0027892326499526 9.435145269639936 L0.9403641026500011 9.29970134064003 L0.9016067786499846 9.215985520639965 L0.8910647856499239 9.202187912639932 L0.8739082106499794 9.196296799639942 L0.8362877686499317 9.194229742639966 L0.821508308649932 9.185238042639941 L0.8230586016499117 9.184721278639973 L0.8283295976499474 9.184049485639992 L0.8301899496499985 9.183532720639949 L0.7984606196499797 9.111960861640018 L0.7556725336499497 9.01542928663999 L0.7128844476499197 8.918846034639945 L0.67025139164992 8.822314459639916 L0.6274633046500142 8.725782883639983 L0.5845718666499309 8.629251308639954 L0.5417837806500145 8.532771408639935 L0.4990473706499259 8.436136480639977 L0.45620760864995447 8.339630743639976 L0.4133678466499262 8.243125005639957 L0.3707347896499371 8.146541754639987 L0.32784335064997805 8.04998434063997 L0.285055264649948 7.95347860363994 L0.2423705316499607 7.8568953506399914 L0.19958244564993066 7.760363775639963 L0.15679435965001431 7.663780523640032 L0.11400627364998428 7.567248947640014 L0.08573339364995292 7.5036763016399455 L0.07865959464999861 7.487770594639915 L0.18997062864992387 7.450770269639964 L0.3611229726499303 7.3937194876399595 L0.5321719636500077 7.336668706639944 L0.7031692776499838 7.279617926639947 L0.8744249746499193 7.2226188216399585 L1.0455773186499826 7.165542201639955 L1.2166263096499463 7.108491420639968 L1.3878820066499955 7.051466477639952 L1.5589309976499592 6.994415696639965 L1.7300833406499763 6.937416591639977 L1.90113233164994 6.880339971639973 L2.0722846756499465 6.823289190639958 L2.2435403726499956 6.76626424763997 L2.414692716650002 6.709213466639984 L2.585638354649923 6.652214361639995 L2.75679069764994 6.595215256640007 L2.927943040649957 6.5381386366399745 L3.078424812649935 6.487986659639962 L3.1105675536499646 6.391403407639917 L3.1171821366499515 6.371663010639953 L3.135785652649936 6.315852463639988 L3.164517748649935 6.229139410640034 L3.2019314856500003 6.116562302639938 L3.2462698636500207 5.9834179746399805 L3.2955691806499274 5.834848232640002 L3.348382494649975 5.6759948796399335 L3.402952806649928 5.511922206639969 L3.4446682436499216 5.386499373639982 L3.4575231196499274 5.347849534639966 L3.5102330806499324 5.188944504639995 L3.559635749650006 5.040374761640027 L3.6038707756499164 4.907256271639955 L3.6412845126499818 4.794756679640006 L3.6701199626500127 4.707991949640007 L3.6886201246499084 4.6521814026399575 L3.6952347086499415 4.632389328639977 L3.7002160416499876 4.617348133639997 L3.7376093826499144 4.504438482640001 L3.737092617649985 4.481494146639978 L3.726757331649999 4.459635015639936 L3.673633959649983 4.377469488639935 L3.592812019650019 4.252619227639901 L3.5120934326499835 4.1277172906399535 L3.4311681396499765 4.002815353640006 L3.3504495516499517 3.8779134176399914 L3.2868875396499746 3.7798315486399368 L3.2976362376500177 3.633948980640003 L3.2913317136499884 3.4880405736399673 L3.2913317136499884 3.4879372216399425 L3.294845710649959 3.458326625639973 L3.325954923649995 3.3621567856399572 L3.4211429106499693 3.208316046639954 L3.4432604246499707 3.147131150640025 L3.4641377026499143 3.0473956356399476 L3.4752998116499683 3.0140643366399793 L3.494006680649939 2.9882261216399577 L3.4942133866499105 2.9881227676399256 L3.531523770649933 2.9504764876399925 L3.545373053650003 2.931149500639936 L3.5783426186499767 2.8070485486400294 L3.587437669649951 2.790150355639941 L3.634153164649952 2.72664002063998 L3.638390632649994 2.713359177639962 L3.635186693649935 2.637524013639979 L3.6306391676499814 2.6087402406399356 L3.6146194736500163 2.5868035956399815 L3.5783426186499767 2.566830653639972 L3.5615994546499294 2.552852178639956 L3.552814460649934 2.5348429416399547 L3.5568452226499474 2.5202443496399844 L3.599840014650006 2.5128029436399864 L3.6423180416499648 2.4979718086399494 L3.6617483796499144 2.4881791236399984 L3.691100593649999 2.4733996646399596 L3.718385749650004 2.4632710826400235 L3.7469111406499636 2.458387660639989 L3.780087409649987 2.459136968639985 L3.812643562650017 2.4641754206399646 L3.828043139649999 2.46381368663997 L3.844476244649975 2.458129278640019 L3.8624596426499878 2.455261236639945 L3.8885045646499137 2.473838913639998 L3.907108080650012 2.4759318086399738 L4.02358675864992 2.4322652246399805 L4.086838712649929 2.4180283676399377 L4.09789746864994 2.4021378636399966 L4.060793790649946 2.340978806639999 L4.049011563649977 2.298578293639981 L4.0331985756499265 2.26268901164001 L4.003226244649916 2.25116516764 L3.9472089926499123 2.2719907696399453 L3.930362475649936 2.2711381076400023 L3.867730639650013 2.258529058639983 L3.855741706649958 2.2530771956399924 L3.854191414649911 2.23793600063998 L3.8621495846499627 2.2204435286399367 L3.901010261649965 2.157139898639958 L3.9074181396499696 2.142618820639985 L3.91093213664994 2.094172166640039 L3.908658373649935 2.0857747456399416 L3.9011136136499616 2.076938075639948 L3.8810631586499156 2.0645357316399675 L3.8746552816499573 2.0575077366399803 L3.871451342650012 2.0423148656399412 L3.873725105650017 1.9881579646399423 L3.8612194086499088 1.9459641586399705 L3.8598758216499576 1.9248801736400374 L3.870004402650018 1.9110050516399788 L3.884060391649946 1.8970782526399894 L3.890261563649922 1.863540248639982 L3.9182701906499418 1.8400274716399743 L3.9149628986500105 1.8206746476399367 L3.9000260296499576 1.7901498146400066 L3.8948090896499323 1.7794885306399415 L3.8927420326500126 1.7611175596400308 L3.8970828526499943 1.7238588526399106 L3.8970828526499943 1.705048630640011 L3.888711270649999 1.6282057756399304 L3.899149909649914 1.597303269640026 L3.929432299649939 1.5622408096399916 L3.957870345649958 1.5385573896400224 L3.9621951576499512 1.5349556536399867 L3.99702507264994 1.5148018456400116 L4.0354723386499884 1.505680955639935 L4.075917557649923 1.5112956456399793 L4.078467130649933 1.5116495826399508 L4.105648933649952 1.527230027639991 L4.117017748649921 1.5567889456399264 L4.1252968786499835 1.600845742639951 L4.129316739649944 1.62223714864 L4.105338874649938 1.6064241596399036 L4.0924197666499325 1.6004038556399856 L4.078467130649933 1.597303269640026 L4.060897142649999 1.6021608536399476 L4.057693203649997 1.6147440656399574 L4.06482455164997 1.6295493636399847 L4.1021349356499925 1.6604001936399762 L4.131590502650006 1.729259039639988 L4.162182950649999 1.75163493463997 L4.176314166650009 1.753435972639938 L4.1779959386499925 1.7536503156400052 L4.19918327664994 1.7529010076400091 L4.218303556649921 1.7479917456399683 L4.22729525464991 1.7377081356399806 L4.233393073649957 1.7205773986399215 L4.254890469649986 1.6967028866399296 L4.271220221649919 1.6594183416400092 L4.271410911649987 1.6593393226399549 L4.2863097406499335 1.6531654926399035 L4.323723477649999 1.6489280246399467 L4.341706876650001 1.6409698546399802 L4.374727450649978 1.6114588206399283 L4.380360847649975 1.6064241596399036 L4.408369473650005 1.588234055639976 L4.413640470649916 1.5783380186399718 L4.414322241649934 1.571445931639932 L4.416097887649933 1.5534957606399367 L4.419324877649963 1.5208738256399563 L4.424495503649958 1.51546942163991 L4.429040046649909 1.5107194066400105 L4.483356038649909 1.5051912436399881 Z M3.936236898649959 8.992495930639993 L3.9324934086499255 8.983015136639981 L3.931760986649927 8.981143391639964 L3.931760986649927 8.981062011639981 L3.937132080649924 8.973330891639964 L3.948850830649924 8.96812255863998 L3.963010986649927 8.964541829639959 L3.983111898649959 8.976260579639959 L3.990924398649959 8.978824055639993 L3.9908430176499294 8.978864746639974 L3.975869059649945 8.987491048639956 L3.945758382649963 8.987328287639944 L3.936318278649942 8.992455240639945 L3.936236898649959 8.992495930639993 Z M4.1553937996499215 8.923607584639942 L4.1553937996499215 8.923688964639982 L4.1582421066499435 8.937564290639987 L4.15848624664995 8.939069824639976 L4.16792635164996 8.951195475639995 L4.181109944649911 8.959781087639985 L4.19559562164995 8.964541829639959 L4.1638573406499475 8.983828938639963 L4.146930257649963 8.99005452463999 L4.13114249664995 8.992495930639993 L4.086871663649909 8.990502115639945 L4.072874267649929 8.985049641639964 L4.0642479656499475 8.963483886639981 L4.090615153649942 8.948021647639994 L4.12886385164996 8.935733235639962 L4.1553937996499215 8.923607584639942 Z M7.006305257649963 5.857404785639947 L7.008421142649929 5.878685709639999 L7.014361898649959 5.895572102639992 L7.04512361664991 5.94818440763996 L7.053994059649945 5.963483886639981 L7.050087809649945 5.974470214639982 L7.04121736664991 5.982486165639987 L7.002887288649909 6.009300943639946 L6.962359944649911 6.03062255863998 L6.944130778649942 6.046084798639956 L6.92020499664995 6.080386555639993 L6.908323486649927 6.103824055639993 L6.89668611664991 6.151879068639946 L6.887652913649909 6.16888753263996 L6.887652913649909 6.168968912639944 L6.887652913649909 6.180118001639958 L6.8878156746499215 6.18101318363998 L6.889361898649959 6.190209147639994 L6.889443278649942 6.196882324639976 L6.885211507649963 6.203881022639994 L6.85152010164996 6.235375162639944 L6.833453694649911 6.258853352639992 L6.824339111649927 6.268252766639964 L6.815387288649909 6.271304524639991 L6.80269197664996 6.272972818639946 L6.79129874664995 6.275658365639945 L6.786578694649911 6.281924641639964 L6.78316072664996 6.292504068639946 L6.774615804649962 6.303897298639956 L6.76362947664996 6.312035318639946 L6.752399007649963 6.312930501639958 L6.75223624664995 6.312930501639958 L6.747027913649909 6.303734537639944 L6.742633382649963 6.2961661786399965 L6.737506429649962 6.264956868639988 L6.73652986664991 6.233706868639988 L6.738727132649963 6.216779785639947 L6.738401611649927 6.215559081639956 L6.735960205649924 6.20640380863998 L6.742958903649942 6.1273022466399745 L6.74824861664991 6.114566243639988 L6.759072184649945 6.100690917639984 L6.764606038649909 6.095563964639982 L6.782428304649962 6.082787272639994 L6.789996663649909 6.080183105639978 L6.791949788649909 6.078229980639978 L6.793902913649909 6.076236165639987 L6.798297444649911 6.057722167639984 L6.80073885164996 6.052310384639984 L6.817665934649945 6.046410318639946 L6.83426749664995 6.045759277639977 L6.851275960649964 6.043277180639993 L6.8689354656499475 6.0318025716399895 L6.87715486664991 6.021223144639951 L6.88081697664996 6.0164217126399855 L6.8845604656499475 6.004011230639978 L6.885211507649963 6.001773274639991 L6.889443278649942 5.963483886639981 L6.8956281746499215 5.945010579639959 L6.904905517649929 5.929955240639945 L6.9529198406499475 5.87005940763996 L6.971393148649959 5.833804524639991 L6.98262361664991 5.800886230639978 L6.9913312996499215 5.789126790639987 L7.006305257649963 5.785423990639945 L7.018349528649942 5.801944173639956 L7.018349528649942 5.802066243639988 L7.017047444649911 5.8191560876399855 L7.010211507649963 5.837466634639984 L7.006305257649963 5.857404785639947 Z" fill="black" stroke="black" stroke-width="0.5" vector-effect="non-scaling-stroke"/></svg>