<svg xmlns="http://www.w3.org/2000/svg" viewBox="0 0 16.528684130699986 13.627157244659998"><path d="M15.298749951850041 0.7426395508299564 L15.305100935849978 0.7668942588299714 L15.286290714849954 0.8462692578299524 L15.28649741985005 0.886111787829968 L15.294248884850006 0.9010979528300354 L15.319363630850049 0.9266261108299645 L15.329595564850038 0.9399586308299988 L15.332076033850015 0.957683646830013 L15.319260277850006 0.9659518758299654 L15.301070173849965 0.972669811829995 L15.287737654850062 0.9857439498300309 L15.286807478850008 0.9963892938300134 L15.29507570784996 1.0143210168299888 L15.294248884850006 1.025328095829984 L15.289184594850056 1.0330795608299965 L15.281846540850054 1.0382472038299895 L15.232237166849998 1.0641887738299474 L15.219111352850021 1.0744723838300487 L15.211980004849991 1.0906987828299677 L15.217664412850027 1.1245985228299773 L15.239988630849965 1.156431204830021 L15.27068443185 1.1808224808299528 L15.302000349849962 1.1924496778300053 L15.379101586849984 1.1964804398299904 L15.407626976849954 1.209967988829952 L15.432328311850043 1.246296520830036 L15.441423363850006 1.2845887568299403 L15.44545412585002 1.3259815798299925 L15.455789411850006 1.361431611830021 L15.483694685849983 1.3818438028299553 L15.50746584484996 1.3830840378299953 L15.554801455849955 1.3725937208300465 L15.578055851850038 1.3702682818300147 L15.598209659850014 1.3738339548299834 L15.614229353849979 1.3785881868299654 L15.629628929849972 1.3784331588299423 L15.666525902849983 1.357090791829954 L15.684095890849974 1.3571941448299683 L15.701769229849972 1.3598813188299843 L15.720786156850025 1.357090791829954 L15.728020857849984 1.3512513548300475 L15.740113142849978 1.3337847208300033 L15.749724958849995 1.3275835488299137 L15.760577009850024 1.3247930208299508 L15.771635766849968 1.3232944048299586 L15.794166690850048 1.3228293168299317 L15.817834497849972 1.3165764688300143 L15.854834822850037 1.2855706088299925 L15.873128278850018 1.2902214878299603 L15.882946801849997 1.32262261082996 L15.868787459850026 1.40406466883001 L15.88842450385006 1.4368275268299087 L15.921910831849985 1.452382132829932 L15.994361189849954 1.4742929398299722 L16.026710636849955 1.4940333368299363 L16.050585148850033 1.52147352283 L16.063090844850038 1.5330490438299407 L16.081074242849994 1.5410072148300102 L16.09501796085 1.5419714078299407 L16.23082808435005 1.8098062663299785 L16.366638207849988 2.0776411248300164 L16.360093366849995 2.0810693778299694 L16.340799991849977 2.101748180829979 L16.34472739984996 2.1259844278300406 L16.35289227684997 2.1535796428299463 L16.346277693849984 2.1846888548299077 L16.33077476384996 2.201690400829925 L16.270623396850013 2.2415329308299405 L16.25150311685003 2.2592062698299387 L16.238790714850055 2.26737114682998 L16.223597842850054 2.2649423538300013 L16.19724286284999 2.2509897178300022 L16.170267765850056 2.2447368688300102 L16.134714379849996 2.2473206908300014 L16.099677758849978 2.2571908888299888 L16.07528648284996 2.2729522018299733 L16.067224958850048 2.295999889829936 L16.07094566184999 2.349743378829963 L16.06154055185 2.3688119838299357 L15.970279971850019 2.4411073118299598 L15.95725751084997 2.446946747829962 L15.870854516850002 2.4622429728299196 L15.853491234849983 2.4618812368299174 L15.83757489385006 2.456971976829969 L15.794166690850048 2.430306937829947 L15.755822777850042 2.425190970829952 L15.717582217849966 2.4373349318299447 L15.579709496850015 2.50342908983 L15.472635928849982 2.5264251008299468 L15.439459659850016 2.52720024782996 L15.376001000849968 2.504669323829937 L15.34106773285005 2.5109221718299395 L15.325151391849957 2.522962780830021 L15.30437746585001 2.5520566118299186 L15.29104494685005 2.565750865830033 L15.28391359885002 2.569006481830023 L15.256938500849984 2.5760344758299354 L15.191619489850055 2.6167038288299906 L15.133845238850043 2.6664165568299936 L15.11348472485004 2.680162486830021 L15.094777856850058 2.684270763829936 L15.052506534849968 2.679464854829938 L15.03131919685002 2.67956820882997 L14.973234887849983 2.6911178908300073 L14.929309920849974 2.6897226278300295 L14.665760115850048 2.630863170830011 L14.624625675849998 2.614068330829973 L14.585144880849967 2.58978040782997 L14.569021834850005 2.575000947829942 L14.554552432849974 2.5561907268299464 L14.542211064850065 2.549461489829973 L14.530574568849957 2.5431165898299852 L14.493987654850017 2.542703177829985 L14.428668643849974 2.5544337278299665 L14.335444359850001 2.5583611368300225 L13.982597680849963 2.4997600618300098 L13.729796573849981 2.423589000830013 L13.666544619849972 2.4146489788299945 L13.603499372850038 2.4191965048299195 L13.539420596850007 2.4403321658299646 L13.464489770849994 2.4862208368300216 L13.438548200850008 2.497227917830024 L13.279901554850042 2.519913870829974 L13.266258975850022 2.525339896829955 L13.23701011484998 2.5455453808299566 L13.235149763849975 2.568799775829966 L13.243107933850027 2.5946896678300035 L13.243624698849956 2.6231117068300236 L13.228638532849985 2.6431104858299577 L13.180786157849994 2.6710157588299452 L13.164663109849997 2.6937533888299114 L13.164663109849997 2.6939084188299702 L13.163216169850003 2.7316063758300047 L13.15804852685001 2.7436728228299714 L13.149263532850014 2.751682669829954 L13.124458845849986 2.7629222938299947 L13.113916853850029 2.769536877829914 L13.097483748850053 2.792016125830024 L13.092522810849985 2.817130871829953 L13.10037762885004 2.841263764829982 L13.121875024850013 2.8605907508299637 L13.14678306484997 2.8727347128299456 L13.170967634850015 2.8806670448299982 L13.19670249885003 2.883793468829957 L13.225124535849957 2.881287161829981 L13.25540692485005 2.883870983829972 L13.272046736849987 2.9008983688300063 L13.29437095584997 2.950533581829994 L13.30822023885004 2.9695763468299603 L13.315971703849996 2.991280447829972 L13.313077823850008 3.0116409628299934 L13.29437095584997 3.026523774830018 L13.234529646849992 3.0528270798299886 L13.210965193849987 3.073342622829948 L13.202076846850062 3.1038833938299533 L13.211378604849997 3.1337782108299663 L13.233909529849953 3.1601331908299457 L13.263468448849963 3.1782974568299593 L13.29437095584997 3.1834909388299693 L13.362687198849997 3.1686598018299534 L13.382944359850015 3.169745006829963 L13.436067732849963 3.1855579948299564 L13.471931176849992 3.183981863830006 L13.509758324849955 3.176230399830011 L13.54603518085004 3.175196870830028 L13.577351097849956 3.1936970328299523 L13.58996014785005 3.225943126829911 L13.580141625850004 3.2581375438299673 L13.55719728984998 3.287076345829938 L13.530222191850058 3.3096589478299663 L13.49518557085004 3.3305362258299382 L13.459942243850051 3.3438429068299556 L13.352248559849969 3.3594750288299835 L13.328994165849977 3.3776134558299233 L13.29437095584997 3.4291606968300172 L13.288376489850023 3.441020438829945 L13.283828962849967 3.453551973829967 L13.280728376850064 3.4665227578299707 L13.278454614850048 3.49579745683004 L13.280728376850064 3.5113262248299506 L13.285999373849975 3.526002331829936 L13.29437095584997 3.539696585829965 L13.341913272849993 3.5738288698299456 L13.405785342849995 3.602793508830011 L13.459218774849958 3.63870863082996 L13.475445173849963 3.6938473838300396 L13.45394777784999 3.770070121829967 L13.423148624849958 3.842882214830034 L13.41364016085005 3.859599539829979 L13.402788110850011 3.87375888182995 L13.389662296850034 3.885799490830003 L13.37302248485004 3.8960572628299914 L13.335505395850035 3.908588797829985 L13.31938234884997 3.9179163938300334 L13.309460472850063 3.935512218830006 L13.306153181850064 3.979463024829947 L13.32000246585001 4.010391369829954 L13.347080916849976 4.033929984830046 L13.383461124850058 4.055479056830016 L13.416120629850028 4.083255138829962 L13.471517765849981 4.147902355830006 L13.508518090850046 4.1659891068300325 L13.601639021850033 4.17926995083004 L13.628924177850038 4.193791026829977 L13.639672875849968 4.216037731829935 L13.642153344850058 4.266680635829992 L13.654348982849982 4.317943655830014 L13.651455102849994 4.338820934830004 L13.640603051850022 4.357553641829973 L13.63465576084998 4.3650158078299555 L13.63360587284997 4.366333119829953 L13.624169945850056 4.378172537829975 L13.633988467850045 4.397008597829988 L13.64701092884998 4.411658865829985 L13.663857445849956 4.421193167829976 L13.685354841849986 4.424552135829991 L13.704061710849956 4.420314667829949 L13.736617862849997 4.403468150829973 L13.75635825984996 4.402098726829983 L13.772998071850012 4.409488455829994 L13.802143578850021 4.43455152583001 L13.818576684849987 4.442070446829938 L13.838627139850033 4.442793916829935 L13.891440453849967 4.435533377829977 L13.911077497850002 4.430210705830028 L13.93174807085002 4.417679170830006 L13.939706241850004 4.402667167829939 L13.943943708850057 4.385433076829962 L13.95355552484996 4.366002737829966 L13.971228865850051 4.35065483783 L13.989418969849979 4.347502575829957 L14.002958194849967 4.356856009830004 L14.006782250850009 4.3792577438299745 L13.99996096185005 4.400755138830014 L13.974639509849979 4.442742239830032 L13.96740480985001 4.464937267829974 L13.96781822085002 4.486848074830014 L13.974949568849993 4.527491588829967 L13.973709333850039 4.547412853829961 L13.965647810850058 4.564466075830005 L13.954589053850057 4.581829357829939 L13.947251000850045 4.599993623829953 L13.950248233849962 4.619914888829975 L13.980220564850029 4.689703909829937 L14.00698895684998 4.716730683829972 L14.04264569484998 4.727272676830033 L14.081196312850025 4.725412324830039 L14.117059757849987 4.71541293483002 L14.155817081850003 4.713216686829917 L14.224650088850026 4.742904797829986 L14.266094588849981 4.739313285830001 L14.308365909849968 4.724714692829956 L14.341335473850009 4.721820812829968 L14.372548038849985 4.732543671829966 L14.409858422850007 4.758743623829979 L14.443654809850003 4.7763394488299795 L14.513831404849967 4.790783011829994 L14.547834496850001 4.80788791082994 L14.616070155849982 4.855656516829946 L14.64457277884999 4.875609875829944 L14.670617699849984 4.903696015829972 L14.676715518850031 4.926407807829939 L14.666276879850003 4.946070689829973 L14.634237491850016 4.977334932829983 L14.626072614850003 4.99418144882997 L14.615737329850063 5.028287894829923 L14.612326684849975 5.039191621829978 L14.581010766849957 5.037176240829943 L14.567574894850011 5.039191621829978 L14.544113793850002 5.046012910829937 L14.513417992849966 5.059448782829996 L14.490783715850014 5.078362356829949 L14.491817244849997 5.1012550168299455 L14.479001488850045 5.100118135829938 L14.456057152849965 5.094588757830046 L14.447478865850044 5.097844372830018 L14.436626814850015 5.107042776829921 L14.427945173850063 5.110453421829952 L14.41978029785004 5.10998833383001 L14.35849204885001 5.090092906830016 L14.340301944850026 5.093400198830004 L14.34784670385001 5.121667207829994 L14.337821475850049 5.12223564882995 L14.313223494849993 5.120685355830027 L14.303818383850015 5.1248711468299675 L14.296170271850045 5.134689668829928 L14.291726098849963 5.143112926829922 L14.285524926850044 5.1501925988300385 L14.273329288850064 5.15587700583 L14.249041365850033 5.15825412083003 L14.22651044085002 5.156187064829986 L14.206770043850057 5.159184296829999 L14.19085370285002 5.176392549829977 L14.146308617850039 5.162646618830017 L14.128945336850009 5.184350720830018 L14.120160343850003 5.219232311830005 L14.10135012184999 5.245225556829972 L14.080679548849972 5.249101289829916 L14.016084008850058 5.237835826829972 L13.987661970850027 5.28393120582998 L13.974846215850064 5.29240613983 L13.958723168850057 5.297522106829966 L13.883275577850057 5.347544892829966 L13.868082706850046 5.361084117829954 L13.858470890850029 5.3772071658299225 L13.855060245849998 5.399169648829989 L13.854646833849998 5.412347139829983 L13.852786482849993 5.41694634183002 L13.848445661850022 5.4202536338299225 L13.840694197849999 5.42960706782997 L13.838833845850004 5.434309622829936 L13.835939965850017 5.4462468788299745 L13.83387290785005 5.450691051829999 L13.830979028850052 5.452964814830004 L13.823124209850008 5.456065400830049 L13.820953799850045 5.457512340830043 L13.810308455850034 5.473532034830008 L13.807104516849975 5.476891003830012 L13.817129743850003 5.488208141829993 L13.87325034985004 5.5758513708300015 L13.90218915185001 5.670574270829938 L13.932264835850063 5.710261770830009 L13.93484865684998 5.729175345829951 L13.929577661850047 5.747882213829961 L13.917692081850035 5.7639535848299985 L13.901362328849999 5.781523571829972 L13.889270043850004 5.798835176829975 L13.849892601850016 5.884876436829977 L13.842967960850004 5.907872448829998 L13.842761254849975 5.952675915829978 L13.82674156085001 5.99241509182999 L13.824054385850062 6.012672252829979 L13.827258325850053 6.031999238829933 L13.832529320849986 6.046261934830021 L13.841210961850052 6.058767630829998 L13.854440127850026 6.072926972829968 L13.870769880850062 6.079128144829944 L13.914591495849962 6.072306855829986 L13.934641951849997 6.0728236208299435 L13.94962811684998 6.080575084829938 L13.967921573850063 6.094941132829938 L13.976499860849984 6.1042945678299745 L13.918622256849986 6.131476370829965 L13.897124861850003 6.1453773308299375 L13.881931990849992 6.163050671829943 L13.881725284849963 6.183721243829972 L13.866429060849967 6.19591688182998 L13.852476424849968 6.211833222829988 L13.83697349485 6.225630830829964 L13.817129743850003 6.23157362082997 L13.794908878850052 6.231987031829981 L13.776202009849968 6.234674205829997 L13.759252139850062 6.241908906829984 L13.741992211849961 6.2557581908300435 L13.731036807850003 6.273018118830031 L13.726799340850064 6.287074108829948 L13.718944522850009 6.294980602830002 L13.69734377485004 6.293585338829921 L13.671298851849954 6.286970755830019 L13.660136742849957 6.2861439328299795 L13.64742434084998 6.288469371829926 L13.636882348850023 6.294670543830016 L13.628407413849985 6.3036105668299385 L13.621689476849966 6.314049206829985 L13.629027530849967 6.332135957829983 L13.61786542184997 6.349912650830014 L13.597608259849963 6.363400198829986 L13.577867862849999 6.368671195830011 L13.574353865850028 6.3728053098299355 L13.583448917849992 6.392649059829942 L13.584379092850057 6.399728730829956 L13.576834333850016 6.407066784830043 L13.56174481684998 6.416833630830006 L13.553373234850042 6.423964977829932 L13.532806014849953 6.450630016829983 L13.516476261849974 6.463084037829979 L13.508828149850004 6.471042207830031 L13.502316918849957 6.491247691829919 L13.487744164849985 6.500911185829942 L13.484436872849997 6.508972708830036 L13.48133628784997 6.523183727829995 L13.473378116849986 6.528506400829961 L13.450330427850034 6.532588838829945 L13.429143090849962 6.541838919829978 L13.413536808850054 6.5509339718299415 L13.399894229850034 6.562199434829999 L13.385114770850024 6.577547334829966 L13.374779483849991 6.59651258483003 L13.375916364850028 6.613617484829966 L13.379120303849973 6.632479381829988 L13.375192895849992 6.656715628829993 L13.361757023850046 6.669428030829941 L13.322069522849986 6.679143199829973 L13.313697940849991 6.687101370830042 L13.307496769850005 6.700278860830018 L13.256750512850047 6.762032197829988 L13.246931989849955 6.769008515829988 L13.234322940849964 6.770920543830009 L13.217579776849973 6.765959606829959 L13.219750186849993 6.77247083782995 L13.221920597850058 6.786630179829977 L13.223780948850063 6.793244762829964 L13.205280785850064 6.791539440829915 L13.185333682850015 6.800634492829992 L13.169417341849979 6.815413952829992 L13.162906111850035 6.831123587829971 L13.160012230850057 6.835102673830043 L13.209311547849964 6.858305390830047 L13.229568708850039 6.884298636830003 L13.252306339850023 6.927035045829932 L13.26656903484998 6.970804983830014 L13.264498242849996 6.984006283830006 L13.262021508849969 6.999795462830001 L13.095933454850027 7.120769990829977 L13.057382836849982 7.139631888829989 L12.875481794850046 7.175547008829959 L12.702882510850046 7.245775280830024 L12.687999698849993 7.260761445830006 L12.645108259850034 7.38287285582998 L12.602423526850046 7.504338308829993 L12.550540388850052 7.6514869508299554 L12.495660017850028 7.74463371982997 L12.446567407850026 7.827781098829966 L12.368535994850006 7.95986606082996 L12.30631756984998 8.033453299829965 L12.280582706850012 8.071254609830014 L12.248026553850039 8.140397676830013 L12.235830915850059 8.155228811829936 L12.219191104849997 8.16546074583001 L12.090206729849982 8.224733614829937 L11.976208520849994 8.27708183982994 L11.843296735849961 8.33816338282994 L11.699842959850017 8.404076671829948 L11.672247745849987 8.420897350829925 L11.597937035850023 8.500918305829963 L11.574165876850046 8.542491996829959 L11.515461450850026 8.743203258829986 L11.495307641850005 8.791029796829996 L11.46760907385 8.834308808829938 L11.428645043850011 8.870456473829982 L11.305861840849971 8.959985891829994 L11.225970075849958 9.05251254482993 L11.214601260849989 9.072537162829967 L11.209226912850013 9.090985647829989 L11.19765139184996 9.213174571829988 L11.192070336849966 9.228393281830016 L11.178531111849978 9.237875906829991 L11.019057641849955 9.281309948829907 L10.878394392850012 9.319550507829995 L10.794781925849989 9.325648327829946 L10.71545860184996 9.31970553782994 L10.62910728285 9.326371797829943 L10.543996198850053 9.342727387829989 L10.468341902850014 9.365671723830012 L10.34524864084996 9.42003533183 L10.231457136849954 9.470264822830039 L10.149239932849994 9.486620414829979 L10.079425072850043 9.478300508829925 L10.02805869884999 9.446932914829908 L9.989404727849958 9.396987641829945 L9.958398868849955 9.333296439830029 L9.955298282849995 9.313866100829948 L9.959277367849964 9.27681409982997 L9.950854108849981 9.256453584829949 L9.938865177849962 9.24394788783004 L9.910546492850031 9.223587373830007 L9.877473575850061 9.18963595783 L9.85256553584999 9.172117647830014 L9.824453556849974 9.159121024829908 L9.794894636850032 9.150826956829938 L9.773914005850045 9.148294811829963 L9.754587019849978 9.15273898482996 L9.715933048850061 9.166433239829978 L9.677175724850045 9.17175591183004 L9.659605736850054 9.176613496829951 L9.641518985850055 9.187646414829963 L9.58539837985002 9.242811005829957 L9.51666872485005 9.287123546829967 L9.50669506185001 9.296292625829942 L9.419620385849967 9.376342907830029 L9.408354923849984 9.394533011829957 L9.33456097784996 9.587492809829989 L9.311203230849983 9.61700005283 L9.225730411849966 9.69079399782995 L9.16568239684996 9.77771375682999 L9.048273542850055 9.87775932982995 L8.983781354850024 9.918066947829907 L8.893244245850056 9.99966403382998 L8.852109805850048 10.062502575830045 L8.825238061850044 10.138001842829958 L8.803637312849972 10.261250133829968 L8.782760033850039 10.380312634829913 L8.790511498849995 10.421498750830004 L8.821827416849956 10.452918020829934 L8.977063419849983 10.51038221382995 L9.017887800849977 10.535083548829952 L9.089924746850059 10.593012829829995 L9.133229597849962 10.607792288830005 L9.373731713849978 10.599007295830027 L9.411352156850015 10.60768893582999 L9.447267276849985 10.62556898182995 L9.475740990850014 10.65797010482995 L9.480598574850049 10.694763724829947 L9.474655785850032 10.777135957830033 L9.47816978385005 10.816771781829992 L9.474810815850063 10.834083385830006 L9.465612410850056 10.854857311830038 L9.460134708850049 10.874391003829963 L9.461685001849972 10.89376966483001 L9.469281437850057 10.934025605829952 L9.46457888184996 10.970664196829993 L9.44969606985002 11.007612845829946 L9.395952579850032 11.08843478582991 L9.391560082850006 11.104971243829986 L9.390578230849954 11.140627982829976 L9.381948266850046 11.192562796829996 L9.382310001850001 11.207755667829922 L9.400913516849997 11.25814018883002 L9.432642846850015 11.306354300829916 L9.471916934849972 11.348677298830005 L9.513258081849997 11.381130097830031 L9.531654890850021 11.401748994829937 L9.552118757849954 11.457094453829988 L9.566898217849953 11.48040052482991 L9.582246117850062 11.490787487830026 L9.621365176849977 11.503499889829975 L9.677795841850028 11.514610322830002 L9.794894636850032 11.511768118829927 L9.834323754849962 11.504223359829972 L9.872099226849983 11.489288870830016 L9.909926375849992 11.479263642829999 L9.949975609849972 11.486705048830025 L9.971524682849989 11.51362847082995 L9.975142032850002 11.554452851829943 L9.970491153850006 11.642199434829983 L9.964289982849962 11.756714408829986 L9.972144799849971 11.791492646830015 L9.988061140850007 11.81252495482996 L10.028162052850021 11.852212454830031 L10.036223575850002 11.877275524829933 L10.040771101849955 11.900788301830026 L10.052553328850038 11.920735404829962 L10.08603965685002 11.954996878829967 L10.149084903849953 12.004761282829968 L10.166241478850012 12.024760061830015 L10.177558617849982 12.048634573830007 L10.210993269849965 12.18619723682999 L10.232904076850005 12.241465180829998 L10.260705996850007 12.294020112829962 L10.32085736485 12.379880504829991 L10.354602074850007 12.46734286682996 L10.374299548850061 12.495263374829982 L10.381525496849989 12.505505912830039 L10.361009952849955 12.51901929883001 L10.29481244284996 12.54839735082998 L10.28044639484996 12.57229770082997 L10.272488223849976 12.603561941829973 L10.275433780850008 12.632061494830019 L10.29481244284996 12.647693615829972 L10.298533145849959 12.653352184829991 L10.299566674850055 12.659553356829996 L10.29817141085006 12.666193777829982 L10.29481244284996 12.673015067830043 L10.292435326850025 12.69311719983002 L10.290885033849989 12.700842826830005 L10.29078168085006 12.708439261829987 L10.292021914849968 12.715880668830003 L10.29481244284996 12.723141206829972 L10.317756778849983 12.73518181582994 L10.357754337849954 12.741305472830014 L10.392687605850043 12.751666596829914 L10.400439069850066 12.776574637829974 L10.390723900850006 12.785979747830048 L10.342768171849983 12.80179273683003 L10.332019474849986 12.812877331829945 L10.32478477384997 12.824116954829996 L10.314346134850055 12.831480846829997 L10.29481244284996 12.830834891830015 L10.273004988850019 12.822179088829976 L10.253988061849967 12.820887178829928 L10.235384545849982 12.826364879830003 L10.174199649849996 12.864269543829998 L10.158593367850031 12.88225294183001 L10.162210717850044 12.899797090829956 L10.175233178849979 12.91641106382999 L10.16913535885 12.923206514829921 L10.15177207784997 12.926798026829992 L10.131256534850039 12.933619314830047 L10.093687768849989 12.951396007829992 L10.073120548850014 12.956641165829915 L9.939175235850044 12.946925996829968 L9.902381615850018 12.93018283282992 L9.885328393850003 12.915274181829965 L9.877886986849958 12.90083061882995 L9.873029402850037 12.861065603830035 L9.863314233850033 12.825899791829976 L9.864141056850045 12.814944388830007 L9.869618757850006 12.808717377830014 L9.886878685849993 12.79820122382997 L9.892873151850054 12.788046805830014 L9.88057416185002 12.763991426829982 L9.838612898850002 12.763164602829953 L9.734019799850003 12.786134777829993 L9.688441186849971 12.81571953483003 L9.670871198850037 12.821817353829992 L9.616197533849984 12.824659557829953 L9.596767195849978 12.833005301829921 L9.560231957849979 12.857474092829982 L9.54043988384997 12.861375662829936 L9.519872663849995 12.862512543830029 L9.462253442849956 12.880185884829949 L9.427371849850047 12.883183117829951 L9.415537947849955 12.889255098829999 L9.404840926849957 12.905533174830019 L9.380656355849979 12.967777436829941 L9.369804304850007 12.986019217829998 L9.33363080285001 13.01402784383 L9.289705834849954 13.022864513829909 L9.08672080884999 13.025525849829926 L9.032253849850022 13.019505545829979 L8.988225528850037 12.999377575830032 L8.90998740984999 12.923464895829987 L8.88073854985005 12.911320934829995 L8.598481876850045 12.904344615830006 L8.523912784849998 12.929511038830036 L8.484380313849968 12.934911225829914 L8.465880150850026 12.931423066829971 L8.409552839850008 12.90617912983 L8.385368269849963 12.899642060829926 L8.366144636849995 12.902846000830003 L8.325475284849986 12.923516572830003 L8.298448510850008 12.93268913983001 L8.280310082850022 12.930854626830005 L8.266357445850034 12.917806326829968 L8.247082137850057 12.885715262829954 L8.239640730849956 12.877576224830015 L8.23085573684996 12.870832450829987 L8.221864038850029 12.867499319829982 L8.207963077850039 12.86861036282999 L8.202743757850001 12.874527314829997 L8.200935082850052 12.88271802983001 L8.19778282084998 12.890727876829992 L8.166570255850004 12.94405795482998 L8.156441674850058 12.951628551830048 L8.137321394849963 12.937779268829978 L8.131481957850056 12.879643281829992 L8.116857527849973 12.85899854782999 L8.06497438884999 12.856905651829997 L8.043580346849993 12.898866914830016 L8.04321861184998 12.979172089829937 L8.042753523850038 13.08402357183001 L8.042133406849999 13.222903982829955 L7.9641019938499795 13.222387218830015 L7.865503360849985 13.221767101829947 L7.749231388849992 13.220940278829936 L7.703136009849985 13.227658214829965 L7.671303328850016 13.248793875829982 L7.671510033849998 13.240913219830041 L7.670063093850004 13.23153394782991 L7.666549096850034 13.223472423829996 L7.660296247849956 13.219519176829941 L7.648100609850033 13.221508719829977 L7.647532168849992 13.22993197782997 L7.6513562248500335 13.240034720830003 L7.652699812849974 13.247088553829933 L7.643656437849998 13.26029188283001 L7.631719180850055 13.272177460829958 L7.618076602849968 13.277577648829997 L7.6038655848499985 13.27171237382992 L7.597716088850021 13.26235893882997 L7.595338972849973 13.254581635829958 L7.591669945849972 13.250395844829931 L7.581593041849956 13.252152844830015 L7.572601342850035 13.258974132829955 L7.570327579849973 13.267991669830018 L7.57074099185003 13.276854178829915 L7.569604109850005 13.283262055829958 L7.571412784850011 13.285303274829907 L7.575598575850009 13.288610566830009 L7.578027367849998 13.29253797582998 L7.574461694850029 13.296155325829965 L7.5705342848499555 13.296387869829935 L7.560715762849966 13.294656709829944 L7.557615177850053 13.294966768830044 L7.550587182850009 13.298971691829927 L7.532707136849993 13.306335582830023 L7.52495567284997 13.311063976830006 L7.501184512850003 13.344782848829986 L7.500701920849977 13.34597465582997 L7.5007833018500065 13.344631882829994 L7.475148535849954 13.282986374829967 L7.474090592849976 13.31407361483 L7.475148535849954 13.323920619829984 L7.477834082850009 13.330227585829995 L7.486379004850008 13.34328910982996 L7.488250749849968 13.348171921829966 L7.484425879850008 13.368069382829994 L7.466359473850005 13.407172572829985 L7.460988379850008 13.426947963829981 L7.461883561849973 13.44493298983 L7.472462988849955 13.47378227382999 L7.475148535849954 13.491848679829992 L7.466766374849968 13.493557663829996 L7.4480489268500065 13.479885788829996 L7.419891374849968 13.45425102382999 L7.416554785849954 13.47878715582997 L7.399383561849973 13.479397507829994 L7.380421973850005 13.464952520830003 L7.37155153084997 13.444363327829969 L7.3746439788499885 13.43712048983 L7.388722754850008 13.427436244829984 L7.392059342849976 13.423245163829996 L7.390920019849958 13.40464978683 L7.392059342849976 13.399685593829965 L7.399383561849973 13.38243298983 L7.4058939788499885 13.378567429829992 L7.419891374849968 13.378567429829992 L7.419891374849968 13.372341843829965 L7.406056738849955 13.36200655682999 L7.390187598850005 13.346218796829966 L7.377085384849991 13.326199265829963 L7.37155153084997 13.30341280682999 L7.37936403084997 13.276801478829988 L7.381398535849954 13.264919968829965 L7.365366634849991 13.266873093829965 L7.341847754850008 13.252835007829994 L7.331186946849996 13.248806687829962 L7.359181738849955 13.335842819829999 L7.37155153084997 13.358669968829965 L7.353322363849955 13.39565727382999 L7.342091894849958 13.413479538829996 L7.331186946849996 13.41954236483 L7.325653092849976 13.413845749829967 L7.3210958018500065 13.402778041829983 L7.3180033538499885 13.390774460829995 L7.316945410849954 13.382270228829988 L7.311818457850009 13.37689913582998 L7.300832129850008 13.37844535982996 L7.291066504850008 13.382839890829963 L7.289601660849954 13.386013718829965 L7.279591894849958 13.38340955182995 L7.268524186849973 13.37917778082997 L7.259328223850005 13.37221977382999 L7.255421973850005 13.361762416829983 L7.251922624849968 13.35508923983 L7.243703223850005 13.354031296829966 L7.234425879850008 13.354438197829985 L7.227589941849956 13.35183403082997 L7.2223002288499885 13.341824265829963 L7.223602311849973 13.32880343182999 L7.2175801768500065 13.320502650829987 L7.209604915849994 13.318508835829995 L7.201141374849968 13.323269577829969 L7.186574316849956 13.337592494829984 L7.182179785849954 13.322293015829963 L7.180959082850009 13.285265020830003 L7.172902441849956 13.276150437829962 L7.1667989268500065 13.298611374829967 L7.15670778084997 13.364692103829988 L7.149383561849973 13.378567429829992 L7.120249446849996 13.37527153082997 L7.090871191849956 13.366970749829967 L7.036265071849996 13.344387741829998 L7.048390723850005 13.352485072829985 L7.058726009849991 13.365017624829967 L7.0613301768500065 13.379299851829991 L7.049936946849996 13.39284965582997 L7.033335384849991 13.396389694829999 L7.011281348850005 13.394640020830003 L6.9742533538499885 13.386013718829965 L6.964162207850009 13.385199916829983 L6.955373144849958 13.38633923983 L6.949269629850008 13.38463025482995 L6.9469096038499885 13.375434291829983 L6.948374446849996 13.363308640829963 L6.9519551768500065 13.35500785982996 L6.956512467849976 13.347439499829967 L6.9605814788499885 13.337592494829984 L6.968719499849968 13.281033249829967 L6.9742533538499885 13.26870414882999 L6.9742533538499885 13.262478562829962 L6.969696061849973 13.262804082829952 L6.968719499849968 13.261176478829988 L6.968882259849991 13.258328171829966 L6.968068457850009 13.25503227382999 L6.955698665849994 13.27216280682999 L6.955047624849968 13.313829473830005 L6.9469096038499885 13.331407598830005 L6.932179785849954 13.337999395830003 L6.917287207850009 13.33384900482995 L6.9070333018500065 13.321560593829965 L6.906056738849955 13.30341280682999 L6.8922221038499885 13.316311569829999 L6.883758561849973 13.311632207829952 L6.8757833018500065 13.29942517682995 L6.864308691849956 13.289822312829962 L6.850229915849994 13.28892712982995 L6.847788509849991 13.29682101082998 L6.853566504850008 13.308051478829988 L6.864308691849956 13.31708468182999 L6.808726009849991 13.30495903082997 L6.796193457850009 13.296576869829984 L6.805714941849956 13.295030645830003 L6.81295778084997 13.295803757829994 L6.820281999849968 13.29519340582997 L6.830210384849991 13.289822312829962 L6.838185644849958 13.281033249829967 L6.849904394849958 13.25893852382999 L6.8582051768500065 13.248806687829962 L6.848195410849954 13.252590866829998 L6.8375346038499885 13.259793015829963 L6.826711035849954 13.264838588829981 L6.816538509849991 13.262478562829962 L6.814585384849991 13.252468796829966 L6.817433691849956 13.236436895830003 L6.824025488849955 13.214057338829981 L6.781300879850008 13.206082077829969 L6.768849707850009 13.200385463829981 L6.785776790849994 13.166124395830003 L6.795867936849973 13.155667038829996 L6.809865332850009 13.160061569829999 L6.8375346038499885 13.143012416829983 L6.847462988849955 13.13316541183 L6.850718196849996 13.117825241829998 L6.827443457850009 13.136013718829965 L6.806772884849991 13.133979213829981 L6.784962988849955 13.123928757829994 L6.758351660849954 13.117825241829998 L6.701222754850008 13.121283900829987 L6.671681738849955 13.117214890829963 L6.6589864268500065 13.101711960829995 L6.65475465584997 13.069119187829962 L6.644093848850005 13.044298223830005 L6.6179708018500065 13.00181775482995 L6.613250749849968 12.98887830182995 L6.6109721038499885 12.975857468829965 L6.609995540849994 12.926215541829983 L6.606089290849994 12.918118210829995 L6.596811946849996 12.90684705182995 L6.601531999849968 12.900173874829967 L6.606984473850005 12.889431687829962 L6.610483821849996 12.88511853683 L6.603647884849991 12.858507207829952 L6.623586035849954 12.84524223482996 L6.654103613849955 12.84166150482995 L6.68014528084997 12.844143601829991 L6.660207129850008 12.83425590582997 L6.64303590584997 12.830471726829991 L6.600636816849956 12.830471726829991 L6.589324967849976 12.818997116829998 L6.591278092849976 12.792996140829963 L6.6042989268500065 12.748562546829966 L6.598195410849954 12.755764694829999 L6.591278092849976 12.761135788829996 L6.576466894849958 12.768988978829988 L6.574513769849958 12.743110072829985 L6.564504004850008 12.720120163829996 L6.548390723850005 12.699246140829963 L6.528615332850009 12.67963351082998 L6.5484721038499885 12.662991257829994 L6.544403092849976 12.655707728829988 L6.521779394849958 12.652981491829998 L6.512257910849954 12.640815150829987 L6.50631715584997 12.626736374829967 L6.502899186849973 12.611965866829998 L6.501271582850009 12.597765020830003 L6.517140723850005 12.603298874829967 L6.535776790849994 12.605658900829987 L6.5543314788499885 12.60411267682995 L6.570281999849968 12.597765020830003 L6.541554785849954 12.580919317830002 L6.526662207850009 12.574327520830003 L6.508107519849958 12.570421270830003 L6.490366634849991 12.57221163582998 L6.477589941849956 12.575833054829992 L6.469777441849956 12.572374395830003 L6.46725465584997 12.55300590582997 L6.474660254850008 12.525173874829967 L6.493214941849956 12.499376348830005 L6.517629004850008 12.477444382829994 L6.542287207850009 12.461127650829987 L6.570607519849958 12.447699916829983 L6.573211686849973 12.440090866829998 L6.562795019849958 12.426418991829998 L6.550343848850005 12.417345098830005 L6.54147340584997 12.418362351829991 L6.530324316849956 12.42336723482996 L6.493703223850005 12.43036593182999 L6.484995540849994 12.427924525829987 L6.4792989268500065 12.406684291829983 L6.473683691849956 12.396511765829963 L6.465871191849956 12.38829236483 L6.457326269849958 12.384793015829963 L6.439504004850008 12.386868210829995 L6.428761816849956 12.390326869829984 L6.4176127288499885 12.391018601829991 L6.39889528084997 12.384793015829963 L6.3914083018500065 12.392279994829984 L6.400197363849955 12.41392712982995 L6.381398535849954 12.406399460829995 L6.3406270518500065 12.378038457829952 L6.32272340584997 12.37453910982996 L6.304982519849958 12.365872116829998 L6.2906596038499885 12.354926478829988 L6.282765723850005 12.344509812829962 L6.275360124849968 12.344509812829962 L6.275522884849991 12.362657598830005 L6.277882910849954 12.37026664882999 L6.282765723850005 12.378038457829952 L6.258839941849956 12.375515671829966 L6.239552832850009 12.363796921829966 L6.220998144849958 12.348904343829965 L6.199757910849954 12.33706352382999 L6.171437598850005 12.335842819829999 L6.14498903084997 12.343940150829987 L6.120168066849956 12.348538132829994 L6.0973002288499885 12.33706352382999 L6.086964941849956 12.340847702829969 L6.0339864268500065 12.346544317830002 L6.009084082850009 12.355496140829963 L5.997365332850009 12.357530645830003 L5.971811946849996 12.348904343829965 L5.974416113849955 12.329373093829965 L5.994679785849954 12.30853976082998 L6.022104915849994 12.29604789882999 L6.022104915849994 12.289211960829995 L5.998992936849973 12.277533900829987 L5.998992936849973 12.239203822829985 L6.014699316849956 12.162625046829966 L6.0172221038499885 12.102810593829965 L6.022104915849994 12.083767624829967 L6.031219499849968 12.067328822829985 L6.049936946849996 12.044827194829999 L6.055633561849973 12.028591843829965 L6.054819759849991 12.00698539882999 L6.039113379850008 11.975491257829994 L6.035207129850008 11.95689587982995 L6.027882910849954 11.94883923983 L5.991750098850005 11.919054082829952 L5.977183040849994 11.912502976829991 L5.965952571849996 11.90489392682995 L5.9128926768500065 11.857856166829983 L5.878387467849976 11.838406296829966 L5.865529394849958 11.822455775829987 L5.871388769849958 11.802639694829999 L5.89694215584997 11.808702520830003 L5.908823665849994 11.788479538829996 L5.90475465584997 11.761868210829995 L5.881886816849956 11.74864392682995 L5.868214941849956 11.730984421829966 L5.859344499849968 11.69590955182995 L5.848683691849956 11.669949265829963 L5.830373144849958 11.679714890829963 L5.828257259849991 11.675157598830005 L5.8250020518500065 11.67051892682995 L5.823537207850009 11.666043015829963 L5.810516374849968 11.670030645830003 L5.804250098850005 11.66246228683 L5.800587988849955 11.649848353829988 L5.795542415849994 11.638780645830003 L5.761769629850008 11.605577520830003 L5.7546895518500065 11.590359421829966 L5.729787207850009 11.59752087982995 L5.705373144849958 11.59564913582998 L5.6902364268500065 11.584174525829987 L5.693166113849955 11.562405319829999 L5.676320410849954 11.573595098830005 L5.656219499849968 11.579983444829999 L5.620900488849955 11.58352348482996 L5.608937598850005 11.582140020830003 L5.588185644849958 11.57644340582997 L5.5758158538499885 11.576077194829999 L5.5719096038499885 11.57847791183 L5.5660502288499885 11.583401413829996 L5.5574239268500065 11.58816215582997 L5.521616634849991 11.59487602382999 L5.501108821849996 11.606472702829969 L5.48483278084997 11.622016322829985 L5.4734395518500065 11.638780645830003 L5.455047624849968 11.674262416829983 L5.449269629850008 11.679714890829963 L5.438527441849956 11.683499069829999 L5.427296973850005 11.692654343829965 L5.4176127288499885 11.70372205182995 L5.412078874849968 11.71324353683 L5.438771582850009 11.712918015829963 L5.518117285849954 11.700222702829969 L5.530731217849976 11.696723353829988 L5.541310644849958 11.688585332829952 L5.556121842849976 11.672268601829991 L5.559214290849994 11.669623744829984 L5.562795019849958 11.667670619829984 L5.567352311849973 11.666449916829983 L5.572804785849954 11.666043015829963 L5.576466894849958 11.66323539882999 L5.575978613849955 11.656684291829983 L5.574513769849958 11.649604213829981 L5.5758158538499885 11.644965541829983 L5.596811946849996 11.638088913829996 L5.627004004850008 11.634060593829965 L5.654103613849955 11.63471163582998 L5.665985124849968 11.641873093829965 L5.67037965584997 11.652533900829987 L5.681203223850005 11.65774223482996 L5.694630957850009 11.661038132829994 L5.706186946849996 11.666043015829963 L5.714813249849968 11.675198288829996 L5.729624446849996 11.696967494829984 L5.740854915849994 11.707058640829963 L5.754933691849956 11.69680473482996 L5.77389528084997 11.692043991829998 L5.793507910849954 11.694770228829988 L5.809865332850009 11.707058640829963 L5.775197363849955 11.73432101082998 L5.815561946849996 11.757595749829967 L5.829233821849996 11.773871791829983 L5.8160502288499885 11.789578171829966 L5.8015645518500065 11.787543666829983 L5.783172624849968 11.776475957829952 L5.7546895518500065 11.754828822829985 L5.677215592849976 11.722846400829987 L5.629526790849994 11.71316215582997 L5.596323665849994 11.720730515829963 L5.569468196849996 11.71519666183 L5.537160254850008 11.723171921829966 L5.5046895518500065 11.735134812829962 L5.476857519849958 11.741156947829985 L5.386688249849968 11.741848679829992 L5.322316504850008 11.758450241829998 L5.242156999849968 11.76947726082998 L5.199188249849968 11.768460007829994 L5.176076269849958 11.770535202829969 L5.141652441849956 11.78583468182999 L5.1179708018500065 11.792263718829965 L5.083058691849956 11.81008598482996 L5.042043066849956 11.816921921829966 L4.989308691849956 11.840684942830002 L4.969777441849956 11.84361462982995 L4.947397884849991 11.841173223830005 L4.805796321849996 11.80495903082997 L4.785451269849958 11.802639694829999 L4.763722754850008 11.807074916829983 L4.740529394849958 11.815701218829965 L4.7183939788499885 11.821397832829952 L4.7000020518500065 11.816921921829966 L4.704640723850005 11.81167289882999 L4.713022884849991 11.795803757829994 L4.6804708018500065 11.797512741829998 L4.653859473850005 11.802761765829963 L4.630910254850008 11.81122530682999 L4.609995540849994 11.823106817830002 L4.577443457850009 11.807644577829969 L4.549936946849996 11.817410202829969 L4.528778092849976 11.840237351829991 L4.505666113849955 11.877061895830003 L4.497853613849955 11.884426804829992 L4.487843848850005 11.88861788582998 L4.472951269849958 11.891995163829996 L4.461069759849991 11.89219861483 L4.435679134849991 11.886135788829996 L4.407277441849956 11.882514369829984 L4.376515723850005 11.873562546829966 L4.359670019849958 11.871487351829991 L4.298309342849976 11.871487351829991 L4.238332129850008 11.861029994829984 L4.207326269849958 11.85972791183 L4.178761816849956 11.871487351829991 L4.156789160849954 11.862738978829988 L4.124969499849968 11.859565150829987 L4.062062598850005 11.864041062829962 L4.036183691849956 11.873684616829998 L4.013641374849968 11.89048962982995 L3.996226009849991 11.91128227382999 L3.9862976248499677 11.932970098830005 L3.9804382498499677 11.959011765829963 L3.9810079108499536 11.97105603683 L3.9862976248499677 11.981350632829994 L3.9975280928499757 11.98659965582997 L4.013966894849958 11.990994187829962 L4.026824967849976 11.997423223830005 L4.027882910849954 12.008694382829994 L4.01998903084997 12.00930473482996 L3.972707129850008 12.022366257829994 L3.958302832850009 12.021511765829963 L3.932912207850009 12.014919968829965 L3.918019629850008 12.014919968829965 L3.944630957850009 11.976467819829999 L3.945363379850008 11.959622116829998 L3.9282735358499536 11.936388067830002 L3.9106954108499536 11.926785202829969 L3.8831075198499576 11.91783337982995 L3.854787207850009 11.912218145830003 L3.836069759849991 11.912502976829991 L3.824269629850008 11.921169968829965 L3.8097025718499964 11.942410202829969 L3.7979024418499563 11.946641973830005 L3.785207129850008 11.947699916829983 L3.765675879850008 11.952338588829981 L3.7569681968499964 11.95347791183 L3.7351583018500065 11.947170944829999 L3.700490332850009 11.91661267682995 L3.6783549158499937 11.905056687829962 L3.6358744468499964 11.895779343829965 L3.592742936849973 11.891995163829996 L3.5834655928499757 11.889431687829962 L3.570444759849991 11.87649223482996 L3.562306738849955 11.871487351829991 L3.5015971038499885 11.86941215582997 L3.412160254850008 11.852200241829998 L3.4124043948499576 11.83816215582997 L3.4213562178499757 11.820217819829999 L3.4246114268500065 11.802639694829999 L3.4194030928499757 11.79722791183 L3.409962988849955 11.792100957829952 L3.4011739268500065 11.784573288829996 L3.3972676768500065 11.771877976829991 L3.4014180668499563 11.76133923983 L3.411427832850009 11.756293666829983 L3.423879004850008 11.754828822829985 L3.435109473850005 11.754828822829985 L3.458546973850005 11.759223353829988 L3.468556738849955 11.755968145830003 L3.4729512698499576 11.741156947829985 L3.4683939788499885 11.73668103683 L3.458302832850009 11.73472791183 L3.4449564788499885 11.73432101082998 L3.3992208018500065 11.744330775829987 L3.3741556968499964 11.74636528082997 L3.363087988849955 11.737738978829988 L3.3072611658499937 11.762641322829985 L3.294240332850009 11.775295944829999 L3.3090515308499704 11.77143038582998 L3.3147481448499576 11.768460007829994 L3.3219096038499885 11.786038132829994 L3.329396582850009 11.790798874829967 L3.339162207850009 11.785346400829987 L3.352834082850009 11.771877976829991 L3.366505957850009 11.771593145830003 L3.3793640308499704 11.78892712982995 L3.3972676768500065 11.823106817830002 L3.3844096038499885 11.841824265829963 L3.3774109058499704 11.843533249829967 L3.3596700198499576 11.84361462982995 L3.3225606448499576 11.849067103829988 L3.304738379850008 11.849758835829995 L3.2874043948499576 11.84361462982995 L3.261769629850008 11.853176804829992 L3.2242533538499885 11.846869838829981 L3.122609473850005 11.81309705182995 L3.0554708018500065 11.802761765829963 L2.987599707850009 11.804470749829967 L2.9223327808499704 11.813666713829981 L2.890187598850005 11.823106817830002 L2.872039811849973 11.83189587982995 L2.855275488849955 11.84361462982995 L2.828175879850008 11.871487351829991 L2.813446061849973 11.896674525829987 L2.802866634849991 11.903754603829988 L2.787160254850008 11.898831101829991 L2.7917989268500065 11.914944382829994 L2.7993672858499536 11.927924525829987 L2.829640723850005 11.961371791829983 L2.8345235358499536 11.964504929829992 L2.8363952808499704 11.967231166829983 L2.8355814788499885 11.973904343829965 L2.8330586918499563 11.981228562829962 L2.829396582850009 11.98782035982996 L2.824269629850008 11.992581101829991 L2.818166113849955 11.99441215582997 L2.786427832850009 11.989041062829962 L2.7288106448499576 11.965603562829962 L2.694630957850009 11.960313848830005 L2.6257833018500065 11.967719447829985 L2.6090189788499885 11.965278041829983 L2.561818457850009 11.946641973830005 L2.496144629850008 11.93004041183 L2.4617208018500065 11.927151413829996 L2.4307963218499964 11.932970098830005 L2.3686218428499757 11.963894577829969 L2.345509863849955 11.967719447829985 L2.2600606448499576 11.960313848830005 L2.0881856448499576 11.926174851829991 L1.9226261848499604 11.92208621983 L1.8451466608500056 11.923895549829957 L1.7948461498499597 11.929019545829966 L1.7826843428499757 11.950833054829992 L1.785288509849991 11.964545619829984 L1.8070984058499704 11.973904343829965 L1.7871602548500078 11.981350632829994 L1.7620137698499576 11.97414848482996 L1.7314961918499563 11.981554082829952 L1.702931738849955 11.99563285982996 L1.6835632498499677 12.008694382829994 L1.6724141608499536 12.018663457829952 L1.6607767908499937 12.032620163829996 L1.6538594738500052 12.048245163829996 L1.6567891608499536 12.063341192830002 L1.6696575708499637 12.075253622829997 L1.6908895988500063 12.07968895882997 L1.7049103488499924 12.086508401829953 L1.698718867849962 12.100510923829951 L1.657380541850003 12.10068381282995 L1.6076209928499594 12.098066913829975 L1.57372262585001 12.089455669829967 L1.5979512698499576 12.071479213829981 L1.6016133798500078 12.068142624829967 L1.6054382498499677 12.065823288829996 L1.6084493168499563 12.063341192830002 L1.616994238849955 12.05927218182999 L1.625946061849973 12.059923223830005 L1.632944759849991 12.057888718829965 L1.6357930668499563 12.046251348830005 L1.6216444918499775 12.021159686829982 L1.6151464968499596 12.002950406829974 L1.5928510588500018 11.988192661829977 L1.5718890408499675 11.97605102082995 L1.5434591628499703 11.974029117829993 L1.5094760828499858 11.968002451829967 L1.4628601248499677 11.969672572829985 L1.4203796558499704 11.982937546829966 L1.3976981278500062 11.990930673829986 L1.3857124288499705 12.00994083183 L1.376655860849965 12.026447277829995 L1.390757259849991 12.037502976829991 L1.3954947888500016 12.060370025830004 L1.4065688138499723 12.069661605829971 L1.4148458018500065 12.080960007829994 L1.393218331850008 12.087334546829972 L1.353507875849985 12.08503960382999 L1.3067772148499586 12.080009560829957 L1.2471649658499615 12.078520233829956 L1.1987813488500052 12.085069707829952 L1.1875508798500078 12.10419405682999 L1.1840515308499704 12.112657598830005 L1.1750997078500092 12.121243210829995 L1.165008561849973 12.150173874829967 L1.1528829108499536 12.149685593829965 L1.13252025285 12.161903165829962 L1.108144884850006 12.170320336829981 L1.0725355498500022 12.174615784829975 L1.0472184248499872 12.16630046882998 L1.0377312888499688 12.150646720830004 L1.0434265308499704 12.12917778082997 L1.0535176768500065 12.118557663829996 L1.0461934578500092 12.10500785982996 L1.0500997078500092 12.096462937829962 L1.0671895518500065 12.083767624829967 L1.0776875988500052 12.072699916829983 L1.0803731448499576 12.066108119829984 L1.0815124678499757 12.05308728683 L1.0844421558499704 12.042426478829988 L1.097788509849991 12.025540085829995 L1.101369238849955 12.014919968829965 L1.1007181968499964 12.000108770830003 L1.0972188488500052 11.997016322829985 L1.0913594738500052 11.999661179829992 L1.0845235358499536 12.001858444829999 L1.0815938488500052 12.003811569829999 L1.0728047858499536 12.012478562829962 L1.0671895518500065 12.014919968829965 L1.0619812178499757 12.013129603829988 L1.0487976248499677 12.004015020830003 L1.0430196298500078 12.001858444829999 L1.0313008798500078 12.000027390829963 L1.025197363849955 11.995876999829967 L1.0201517908499937 11.991075567830002 L1.011851009849991 11.987576218829965 L1.0004577808499704 11.986436895830003 L0.9678243168499563 11.987576218829965 L0.9517924158499937 11.984158249829967 L0.9418640308499704 11.983669968829965 L0.9301452808499704 11.987576218829965 L0.9058939788499885 11.985989304829992 L0.9377091708500558 11.902596976830004 L0.9437036378499926 11.818312715830011 L0.9507316318499903 11.71878390682999 L0.9567260988500408 11.633156058830018 L0.9608602128500507 11.574761689829948 L0.9642708578499679 11.560395641829949 L0.9701619708499862 11.550783824829942 L0.984838077850057 11.537606335829956 L0.9911426028499619 11.529803193829927 L0.9940364828500634 11.495283336829964 L0.9829777258500627 11.455699189829993 L0.9780167888500415 11.418905569829995 L0.9991007728499568 11.392602266829947 L1.020288110850018 11.388003063830006 L1.0396150958500385 11.388416475830006 L1.0569783768499548 11.384799124830032 L1.0721712488500117 11.368107636829983 L1.0777523028500156 11.350485973830011 L1.0882942948499732 11.280671113830032 L1.1009033448500105 11.197472057829934 L1.1104118078499852 11.135253632829937 L1.1183699788499695 11.081458466830007 L1.127568383849976 11.020635306829995 L1.136043318849957 10.989629446829973 L1.150616072849985 10.962706026829942 L1.1748006428499735 10.94570447983002 L1.295413435850051 10.91490532682996 L1.3313285558500212 10.893459606829929 L1.3499320718500627 10.885191376829987 L1.3704476148500504 10.879506970829958 L1.4118404378500173 10.873254121829937 L1.420935489849981 10.86297051182995 L1.424552839850051 10.838372530829979 L1.4415027098499564 10.814084606829958 L1.4791231528499935 10.818580456829999 L1.523564884850046 10.832739798830026 L1.5610819748500404 10.83744235483001 L1.582786075850052 10.827107067830006 L1.5819075758499963 10.812896048829934 L1.5721407308500517 10.79449923882995 L1.5666630288500443 10.771554902830012 L1.573794375849971 10.759152558830031 L1.6052136468500322 10.731453990829998 L1.6155489338500075 10.71403903382997 L1.6146187578500104 10.707837861829994 L1.6107947018499686 10.702205130829974 L1.6077974688500518 10.695642223829985 L1.609657820850046 10.686857230830007 L1.6159623448499616 10.679312471829938 L1.6246439858500281 10.674403209830011 L1.64417767785001 10.667426891830011 L1.652342552850044 10.663241100829985 L1.6652616618500389 10.654766165829976 L1.6735298908499914 10.651458873829988 L1.6829350018499696 10.65058037482995 L1.7040189858499986 10.651458873829988 L1.7143542728499739 10.649030082830016 L1.7201420328500632 10.644275850830034 L1.728306908849973 10.631253389829986 L1.7361617268500282 10.62577568682999 L1.7456701908499923 10.623295218829945 L1.912998478849957 10.607378877829994 L1.9334623458500033 10.600970999829961 L1.941782250849954 10.59513156282997 L1.9496887448500075 10.587690156829943 L1.9582670328499745 10.582935924829961 L1.9690157308499607 10.584899629829998 L1.9801778398500147 10.589808889830032 L1.9887044518500403 10.590377330829988 L2.0196069578500015 10.584072806829958 L2.0282369218499667 10.58117892682997 L2.035678327849965 10.577561576829986 L2.0423962648500407 10.572962372829942 L2.0527315508500266 10.555857474830013 L2.0603796628499964 10.546762422829936 L2.0712317138499685 10.543920218829975 L2.1393412508499665 10.545470511829983 L2.217682722850057 10.547175834829936 L2.308116478850039 10.549191214829982 L2.3470805098500165 10.554565563829946 L2.3865613028499553 10.555547415830027 L2.4157068108499544 10.54970797882995 L2.425266951849963 10.550483125829935 L2.433896915849985 10.554048799830007 L2.4411316168500576 10.558648001829958 L2.4489347578499547 10.562265351829943 L2.459011660850038 10.562678762829954 L2.4814392328500077 10.542990043829995 L2.4919812258499547 10.503044160829965 L2.4999393958500065 10.357833386830002 L2.5072257728500205 10.342072073830018 L2.523710554849984 10.334372285830021 L2.5643282308500517 10.328532848829944 L2.579314395849977 10.31633721083002 L2.582518334849979 10.298043753829965 L2.574146752849984 10.281920706829986 L2.5616410558499894 10.265642630829966 L2.5526493568499546 10.246935762829956 L2.5475850668500613 10.134022757829989 L2.549032006850055 10.12224053182998 L2.5532694748500404 10.112215302829973 L2.5639148188499945 10.098624401829959 L2.5676355218500504 10.088547497830028 L2.578590926849998 10.072476126829962 L2.598227970850033 10.064879691830008 L2.6200871008499718 10.064724661829949 L2.6372953528499608 10.070770804829998 L2.6032405838499955 10.003436413829995 L2.5889262128499837 9.984677868829912 L2.578280866849994 9.974290904829978 L2.5691858158499628 9.969123261829985 L2.544484480850045 9.961113415829907 L2.5331156658499623 9.95486056683 L2.5072257728500205 9.93362155282994 L2.4947717528499567 9.929642467829972 L2.4846431728499994 9.929384085829973 L2.4299695068500142 9.944887015829998 L2.417102074850007 9.945248749829993 L2.400410587850004 9.943698457829974 L2.3738489018499678 9.944887015829998 L2.3214489988500446 9.95930473982991 L2.295507429849991 9.962922090829998 L2.2372680908499802 9.973205700829986 L2.2100862868499718 9.974600964829982 L2.178511987849973 9.968451468830004 L2.15505088685002 9.956824271829952 L2.1469893638500395 9.954447155829989 L2.1399613688499954 9.955584036829912 L2.1262154378499787 9.962715384829941 L2.1183089428500494 9.962922090829998 L2.1032711018499555 9.955584036829912 L2.0600179278499837 9.921270885829976 L2.0758825928500215 9.920392386829938 L2.085752790850009 9.913726126829935 L2.0917989338500576 9.902564017829995 L2.096449812849997 9.888249645829994 L2.0983101638500017 9.87202324583 L2.0933492268499805 9.861171194829943 L2.0737121828500023 9.839983858830003 L2.126267113849977 9.734718965830005 L2.132364932849967 9.69311943783 L2.1269905848499917 9.641029593830034 L2.117378767849985 9.54881299982997 L2.112366153850033 9.49860934582994 L2.1040462488499685 9.417813243829976 L2.097948428849989 9.358359508830027 L2.071851830850008 9.262241344829924 L2.053351667850009 9.193098278830028 L2.069371361850031 9.079358450830021 L2.084047468850045 8.97659986483 L2.0791898838500202 8.941640759830015 L2.056969018849955 8.929755179829975 L1.8933097578499911 8.959055716829958 L1.873104271850039 8.947764415829987 L1.8099556718500622 8.887380505829974 L1.7953829178499774 8.865779756829987 L1.7888716878500333 8.848390636829969 L1.781947045849975 8.838262055830022 L1.771508405850014 8.832396780829946 L1.7548685948500093 8.827642549829953 L1.7386421958500051 8.819529349830013 L1.7284102618500157 8.807385387829946 L1.7198319738499919 8.79397535383 L1.7082047768499962 8.781960582829917 L1.6804545328499927 8.76919650482997 L1.5483695718499604 8.745632050829947 L1.4651705158500619 8.712817516829936 L1.433234480850004 8.706719697829975 L1.366778588850039 8.701758760829925 L1.3364961988500141 8.693387178829958 L1.2887988518499611 8.669099255829956 L1.2289575438499725 8.65434563383004 L1.2104573808499737 8.645483124829944 L1.1788314038499976 8.61331454682999 L1.1153727458500526 8.561508922830022 L1.0738248938500448 8.51412163483004 L0.9706787358500293 8.431749401829983 L0.9416365808499592 8.400433483829964 L0.9130078368499568 8.345398082829995 L0.8841723878500289 8.317105235830006 L0.879004744850036 8.302144909829956 L0.8766276288499881 8.285350068829977 L0.8708398678500231 8.265945568829913 L0.8285685468500361 8.180705293829952 L0.8197835528500406 8.170370006829948 L0.8086214438499866 8.162592703829937 L0.7957023348499916 8.157425060830029 L0.7879508708499685 8.152179902829907 L0.7856771078499634 8.14634046583003 L0.7884676348500221 8.140216808829955 L0.7957023348499916 8.133757254830009 L0.8049007408499875 8.125153128829957 L0.808311384850029 8.116058076829994 L0.8054175048500412 8.107428112829943 L0.7957023348499916 8.100606823829985 L0.7785457598499903 8.094198945829952 L0.7708976478499636 8.079703705830006 L0.7656266518499848 8.06267632182999 L0.7553947178500522 8.048465303829936 L0.7445426678499558 8.043452688829966 L0.7353442618499599 8.042419160829972 L0.7262492108499856 8.039525280829984 L0.7156038658500421 8.02900912682994 L0.7104362228499923 8.017614473829944 L0.7077490478499868 7.992654756829971 L0.7046484618500273 7.981440970830015 L0.6918327058499614 7.96423271882994 L0.6600000248499924 7.9335627558300175 L0.6504915608500283 7.913176403829958 L0.6504915608500283 7.8935910358299495 L0.6623771398500509 7.858554414829932 L0.6642374918500451 7.839020723830025 L0.6550390868499818 7.813699271829954 L0.6374690998499801 7.802692191829941 L0.6163851158500648 7.795431652829983 L0.5968514248499588 7.781453177829967 L0.5145825438500111 7.695799491829909 L0.4363444248499633 7.614099051830003 L0.3610001868500632 7.535654226829983 L0.2956811768500103 7.46746717482997 L0.2427645098500335 7.4131035678299995 L0.1620459228499982 7.329904511829987 L0.1936718988499848 7.342565237830023 L0.2650887278500278 7.362564017829975 L0.34828778385004 7.385921764830009 L0.43169354684995653 7.409357027829991 L0.5148926028499687 7.432740612830024 L0.598091658849981 7.456072521829974 L0.6813940678500359 7.479456106830007 L0.7645931238500481 7.502762177829958 L0.8478955318500567 7.526223278830024 L0.9310945878499552 7.549581025829973 L1.0142936438499675 7.572887096830009 L1.0975960528500224 7.5962965208299735 L1.1808984618499636 7.619731782829938 L1.2642008708499617 7.6430378538299735 L1.3472965738500449 7.666447277830024 L1.4306506598499737 7.689856700829999 L1.5139530678500392 7.7131627728300245 L1.5971004478499964 7.7365980348299885 L1.6921334058500435 7.763211396830023 L1.795176212850052 7.780264619829971 L1.9202483518500486 7.770013493829985 L1.9490169518499698 7.767655570830037 L1.998057885849974 7.763624808829938 L2.04704714384998 7.759594046829953 L2.096088077849984 7.75556328482994 L2.1451290118500452 7.751480846830042 L2.194118269850051 7.747501761829959 L2.243210879849997 7.743445161829946 L2.2922001378500028 7.739440238829978 L2.3412927488500515 7.735409476829965 L2.3902820068500574 7.7313270378299634 L2.4392712648500634 7.727296276829968 L2.4883638758499984 7.723317190829981 L2.537353132850015 7.719286429829985 L2.586342390850021 7.7152039918299735 L2.635435001849956 7.711173229829988 L2.68447593584996 7.707142467829975 L2.733620222850007 7.703111706829979 L2.8862724038500147 7.690606009829985 L3.105587182850016 7.727502981830007 L3.2896586338499816 7.7585088418299435 L3.4037601968500013 7.801477795830003 L3.4310453538499956 7.791788463829981 L3.467425561850021 7.72962171583 L3.4902665448500017 7.703783499829989 L3.525406518850062 7.688099702830009 L3.7953642008499884 7.617716401829988 L3.817144236849984 7.617880161829952 L4.0015531658499555 7.619266694829996 L4.137978946850026 7.6201968708299646 L4.304273705850065 7.646526012830002 L4.354038109849981 7.647921276829997 L4.499093855850006 7.610972627829959 L4.5571781648499865 7.5962448438299575 L4.6152624758500025 7.58143954582993 L4.673450138850015 7.56666008682992 L4.731327742850013 7.551906465829909 L4.789412051849993 7.537127005829994 L4.847393008849977 7.522347545829966 L4.905477318850004 7.50751640982994 L4.963509952849975 7.492736950830015 L5.021697614849998 7.477931652830016 L5.07973024884997 7.463178030829987 L5.137814558850053 7.448346895829978 L5.195898868849966 7.4335932738299775 L5.253776472849964 7.4187879758300355 L5.311964134849987 7.404060191830034 L5.37004844585006 7.389229056829997 L5.428132755850029 7.374449596829997 L5.5132955158499755 7.352745494829996 L5.592877220849985 7.302929414829968 L5.619438907850011 7.2723886428299735 L5.640109480850029 7.241537812829982 L5.646103946849976 7.238540580829969 L5.654475528850028 7.2360601118299925 L5.65819623284996 7.231512585829954 L5.650031355850004 7.222004121829961 L5.619232201849982 7.201333548829972 L5.578097761849975 7.164953340829975 L5.542906110850041 7.143662650829974 L5.536963321850024 7.130226777829954 L5.5393921138499564 7.11436211283003 L5.554016544849972 7.076483287829937 L5.618560407850012 6.96248507882995 L5.622952904849981 6.943313121829952 L5.620679141849976 6.882800020830011 L5.6394893638499894 6.750715058830018 L5.637060570850011 6.7302511918299714 L5.631427839849962 6.70978732483001 L5.623779727849993 6.696971569830019 L5.599595157850004 6.669944795829984 L5.582593610849997 6.630257295829999 L5.585642520849959 6.586694062829956 L5.683931095850042 6.2652149778299915 L5.693026146850016 6.25136569382996 L5.709976016850035 6.243459199829992 L5.84516156484996 6.219739716830041 L5.867692487849993 6.211109753830009 L5.961640241849992 6.127910697829996 L5.980760522850019 6.104966361829973 L6.014660261850011 5.992260062829949 L6.0389481848499855 5.977790661830021 L6.077188744850005 5.97329481182998 L6.102975284850018 5.956293265829963 L6.126281355850054 5.93334892982994 L6.156150332849975 5.911076387829972 L6.223588077849982 5.882550996829927 L6.260950137850003 5.873352591829949 L6.319757917849998 5.872215710830027 L6.334485701849999 5.8789336468299425 L6.341565372850042 5.892782930829917 L6.343632429850018 5.91505547282997 L6.341100284849986 5.923220348829993 L6.335570905849991 5.929369844829971 L6.331540144850024 5.935415986830002 L6.332935408849963 5.943425833829984 L6.340531843850059 5.948696829829991 L6.3529341878500105 5.952159150829964 L6.375878523849977 5.955724824829922 L6.3961356848500515 5.956034883829993 L6.434531274849988 5.947766653829966 L6.454426700849993 5.946991507829942 L6.474373802849996 5.952159150829964 L6.510857364849997 5.969574108829981 L6.531424584850029 5.975826956829984 L6.547961042849991 5.977480602829921 L6.599844180849985 5.975310192830044 L6.663871280850017 5.980322806829996 L6.682268090849973 5.977377249829992 L6.751566185850052 5.952004121830008 L6.8109940838499625 5.945131156829937 L6.847891055849985 5.931436901830004 L6.901324486850015 5.92285861382998 L6.919824649849957 5.9169675008299905 L6.983593367849963 5.881827526830044 L6.996615827850022 5.8714922398299265 L7.0104651118499675 5.86286227582999 L7.026691511849961 5.858779837829978 L7.067102481850057 5.860071748830016 L7.082398705849997 5.854025605829996 L7.092733991850039 5.8353187378299864 L7.088031436850045 5.793409150829909 L7.051961287850034 5.783332246829978 L6.968813907849963 5.792789033829955 L6.949073510849999 5.787983125830031 L6.929126407850063 5.777286103830015 L6.914657006849964 5.76240329182999 L6.90876589385006 5.723284232829961 L6.895743432850011 5.705972627829958 L6.8810673258499975 5.690831432829945 L6.87378094885004 5.67589694382999 L6.886648379850001 5.658223604829992 L6.9181710038499915 5.65760348683002 L6.983128279849964 5.6699541548299734 L7.013979109850041 5.6672669798299395 L7.0443648518500055 5.656673310829966 L7.065947383849974 5.64369102882997 L7.098831810849973 5.6239104528299535 L7.160378442850018 5.564585908829933 L7.1883353918500035 5.552907034829978 L7.201977970850024 5.552441946830037 L7.232363712849988 5.556731090829992 L7.272878035849956 5.554870739829987 L7.283730086850042 5.5498581258299495 L7.294995548849968 5.536215547830032 L7.311738712849959 5.524640026829978 L7.364241967849992 5.499680309830005 L7.3699263748500385 5.492652314829989 L7.373233666850027 5.471516653829944 L7.378142927849993 5.4625249548299095 L7.411164167850032 5.436531709829943 L7.416007645849973 5.428959512829941 L7.422171248850034 5.419323457829982 L7.443410261849991 5.3765870478299504 L7.45622601785 5.363409557829975 L7.476793237849975 5.362169323830038 L7.5024247478499575 5.369869111829949 L7.524490584850028 5.380204398830038 L7.54996706484998 5.397929414829967 L7.5603023518499555 5.411158580829969 L7.572704694850032 5.421700573829916 L7.594615502850004 5.424491100829975 L7.634199649850032 5.422889130830036 L7.673732120850005 5.425576305829985 L7.778635278850018 5.457615693829972 L7.815687280849957 5.462835013829981 L7.832843855850015 5.458132458830015 L7.854496280850029 5.447073701830014 L7.867467065850022 5.43456800483002 L7.858268660850015 5.425576305829985 L7.838941674850062 5.423302542829951 L7.779100365850027 5.424491100829975 L7.757241235849975 5.421493867829973 L7.739877953849955 5.4149309608299845 L7.73641563285004 5.405060761830008 L7.755845971849979 5.3920383008299595 L7.799150821850063 5.37240125683001 L7.82276695085001 5.36542493883001 L7.845142846849981 5.365114879829939 L7.878732527850005 5.376276989829982 L7.9371268958500565 5.404595673829981 L7.993454206849961 5.413380668829966 L8.005959903849956 5.419478487830013 L8.012574486850056 5.431725800829945 L8.015571720849962 5.472136771829916 L8.023116479850003 5.486812877829998 L8.048851342850028 5.512547740829909 L8.094946719850057 5.569495169829985 L8.121508405850037 5.585514863829921 L8.16119590585005 5.581587455829968 L8.224654565849974 5.553785533830016 L8.258657657850009 5.544432099829969 L8.294934512849991 5.546602510829949 L8.321702904850056 5.536990693829942 L8.357773054850057 5.514976533829973 L8.38929567785 5.490223522829943 L8.402421491849978 5.472291800829957 L8.41771771685002 5.464075247830031 L8.431980411850034 5.450329317830004 L8.541431095850058 5.3061520708300165 L8.56861289885002 5.281037324830002 L8.616516950850055 5.250393199829965 L8.61882451884999 5.246801420829961 L8.622459740850061 5.24114311882996 L8.619824242850044 5.228172334829928 L8.588301619849986 5.152104626829974 L8.56871625084996 5.057433401829961 L8.56954307484996 5.035832652829974 L8.577191185850054 4.993561331829987 L8.577656273849996 4.951264172830001 L8.584632591849996 4.90850192482997 L8.585769473850021 4.8867461458299815 L8.58210044785001 4.865713837829951 L8.556210554849955 4.809799938829961 L8.545668562849997 4.76677930882996 L8.550526146850032 4.725412324830039 L8.569233015850003 4.687533500829936 L8.599618757849967 4.655287406829977 L8.619772566850045 4.644306164829992 L8.66121706585001 4.632033011829968 L8.678890405849998 4.619604828829971 L8.731600365850014 4.5526063348299814 L8.743692650850008 4.532995129829963 L8.746793236849967 4.520721975829922 L8.736768009849996 4.487623221830027 L8.734907657850002 4.470079072829968 L8.732323835850039 4.462508475829985 L8.725399193850038 4.458141816830015 L8.716820906850003 4.455118745829985 L8.708087588850006 4.450183645829945 L8.700904565849967 4.4436207388299565 L8.695736922849974 4.435765921830033 L8.693979922849977 4.416206392830013 L8.704831973850062 4.402744681829965 L8.738731713850044 4.38127312383002 L8.76322634284999 4.35241183682998 L8.789116235850045 4.335849539829972 L8.794955671850019 4.331250336830031 L8.80487754685005 4.3022081828299505 L8.786170678849956 4.193791026829977 L8.795792467850006 4.176733043830005 L8.80539431184998 4.159710420829946 L8.831852644849974 4.131391735829929 L8.865183943850028 4.1130724398299705 L8.905439883850036 4.108550751830016 L8.926007104850058 4.109015839830043 L8.958356550849956 4.103848196829965 L8.967865013849988 4.106225312829984 L8.976443301849955 4.109661795829929 L8.985435001849979 4.111082897830009 L9.003676781849961 4.107310517829994 L9.050650658849989 4.0787851278299385 L9.089511335850048 4.073307425830045 L9.156380639849957 4.101419404829976 L9.198600284850002 4.0988355828299845 L9.273479435850064 4.060388316829936 L9.28340130985005 4.05868299582999 L9.312391787850018 4.060750052829938 L9.32453574985 4.056280041830028 L9.332183861850027 4.047314179829975 L9.365670189850007 3.9940099408300043 L9.377452416849977 3.9900308548300174 L9.401326928849997 3.9968004678299778 L9.423031030849998 3.998273245829971 L9.442461368850061 3.989049002829965 L9.612115095849973 3.8691338418299708 L9.619246443850002 3.8362934688299433 L9.603381778849965 3.8052100948300094 L9.55067181784996 3.755471528829979 L9.545504174849967 3.748133475829995 L9.538114444849967 3.7320621048299287 L9.531034773850038 3.72673943282998 L9.503129499850061 3.7191171588300094 L9.495274682849995 3.7146729858300134 L9.48142539885005 3.699428438829976 L9.472640404850054 3.681470877829973 L9.469023054849984 3.66222140682995 L9.470676700850007 3.6433336708299393 L9.491140567849996 3.5802109088299616 L9.491760685849968 3.555974662829975 L9.487884952849996 3.5494117558300147 L9.480185163850038 3.544838390829959 L9.46364870585002 3.538197969829973 L9.454553653850056 3.5317900918299117 L9.45021283284997 3.526648286829918 L9.444218366849967 3.5111195188300073 L9.435795108849973 3.47156120982995 L9.425821557850057 3.4607866738300217 L9.383240177850055 3.467065359829938 L9.329496687849954 3.4477642128299735 L9.31414536284997 3.4459921268300135 L9.29032595285004 3.4432425248299623 L9.275184757850027 3.4353877068300207 L9.26490114785004 3.4161123978299983 L9.25776979985001 3.3966045448299766 L9.248984805850014 3.381644217830022 L9.225213647850026 3.3524728718299954 L9.216428653849974 3.336582368829987 L9.203096133850025 3.2986260288299647 L9.194156110849988 3.2855260538300044 L9.164855574850051 3.2611347778299873 L9.158757755850061 3.246277802829944 L9.171883568850049 3.2317308878299897 L9.189660261849966 3.216563854829978 L9.19152061384996 3.201758556829951 L9.188109968850043 3.1867465538299697 L9.190280379850051 3.1708560508300465 L9.206920190850056 3.156877575829945 L9.233688582850007 3.1492036248299584 L9.286760277849979 3.14235649882999 L9.320504988850033 3.1442943638299354 L9.536512475849989 3.207391287829971 L9.593253197849961 3.2119129758300105 L9.627566348849953 3.226408214829938 L9.645859806850027 3.230800711829936 L9.72663006985006 3.2336687538300097 L9.809157331849988 3.2484740518299517 L9.839646426849995 3.249378389829978 L9.973850121850049 3.2333328568299393 L10.108983992849986 3.2345214148299632 L10.179884056850042 3.2233076298299963 L10.197660749849959 3.193826223829994 L10.202001570850044 3.181036306829917 L10.211975122850063 3.1787108678299703 L10.238898542850066 3.1858422158300286 L10.257398705850008 3.1871599648299807 L10.271661401849954 3.183258394829913 L10.28339195185005 3.1742666948299743 L10.29481244284996 3.160675793829988 L10.315379662850049 3.154758841829981 L10.364368920850055 3.1462063928299457 L10.380285261849977 3.133829886829993 L10.38493614085003 3.115071341829996 L10.381525496849989 3.0991550008299598 L10.380440290850018 3.0827735718300104 L10.39155072384996 3.0628264688299893 L10.419455997849994 3.0362647828299814 L10.425760521850023 3.022854748830035 L10.427155785850019 2.998876883830029 L10.424210229850033 2.9786972368299516 L10.414546736849971 2.9437381308300345 L10.414753442850056 2.925625540830019 L10.444053978849993 2.85586235782997 L10.439713158850012 2.8312643758299814 L10.368606388849983 2.7982948118299404 L10.33749717585006 2.7736451528300208 L10.309178491850062 2.7450164108299404 L10.288507917850055 2.719204031829939 L10.278896101850037 2.700471325829959 L10.273315046849987 2.6780695918300452 L10.274658634849985 2.65608126982999 L10.286337508849968 2.6383562538299756 L10.301023166850044 2.632827014829978 L10.303494083850026 2.6318966998300013 L10.324629744850043 2.6317416708299604 L10.365195743850066 2.63696098982998 L10.383489200850036 2.629622936829996 L10.394237898849966 2.609572480830046 L10.397545190849954 2.5851812058300183 L10.393927839850065 2.564458955829984 L10.386434756849965 2.542134736830029 L10.387830020850018 2.5268385128299755 L10.398268660849979 2.515159638829992 L10.468600284849984 2.4677723508300105 L10.50720257984996 2.451029186829963 L10.520741804850061 2.4399187538299643 L10.573296736850025 2.377855358829997 L10.588489607850036 2.3438005898299465 L10.607144799850019 2.3130531128299694 L10.642594831850047 2.290522187829957 L10.762906016850039 2.250326373829914 L10.777625349850055 2.245408662830009 L10.787237166850062 2.2383806678299933 L10.794368514849978 2.2277869988300196 L10.803050154850055 2.2045842808299128 L10.811008324849993 2.1940422888300404 L10.811008324849993 2.1939389368300155 L10.811111677850036 2.1939389368300155 L10.821963728850065 2.187479382829956 L10.828991723849995 2.179366182829959 L10.830645369849961 2.1699610718300093 L10.825167667849954 2.159884167829965 L10.826614607850061 2.116062552829952 L10.852659529850044 2.08950086583004 L10.921802595850025 2.049916719829973 L10.946917341849954 2.017980683830011 L10.95559898285002 1.998395315829974 L10.951361515849968 1.9849594438300286 L10.920872419849971 1.9647022818300215 L10.865475283850017 1.9124574098299476 L10.847491886849994 1.88718763382996 L10.849248884850013 1.860160859829925 L10.879944685850049 1.8275013548300407 L10.92872723784997 1.792619762829979 L10.938545759849958 1.777943656829983 L10.940096052849995 1.7584616408299993 L10.931621117849957 1.7448707398299845 L10.918391950849994 1.7326234258299777 L10.911089198850064 1.7238893338300088 L10.905472843849978 1.7171721718299793 L10.899375024849988 1.694951305829953 L10.90371584484997 1.6759860558299735 L10.910537133850042 1.657899304829975 L10.911157250850025 1.638727347829949 L10.901855493849965 1.6238962108300186 L10.885525740850042 1.6138709838299903 L10.83043866285 1.591805146830005 L10.810388207849954 1.5785243038299868 L10.800983096849976 1.5615227578299695 L10.813592145850023 1.5414723018300194 L10.831678897850011 1.5225070508299936 L10.837466657849987 1.5043169468299524 L10.833022485850009 1.4865919308300235 L10.820413435849972 1.469021943829965 L10.813798852849985 1.4634925658299593 L10.799019392850042 1.4539841018299668 L10.793231632849952 1.4470594608299834 L10.788787459849985 1.4357939978299257 L10.788684106850056 1.4267506218299602 L10.789717634849993 1.4181206588300128 L10.788580753850013 1.408147106829908 L10.782069522849966 1.393367647829983 L10.748686547849971 1.3443783888299876 L10.73437217584997 1.3292371948299646 L10.689000268849966 1.3029338908299266 L10.678354923849966 1.2877926958299142 L10.674065779849983 1.2550298378300155 L10.659234643849985 1.2408188188299434 L10.630192488849971 1.230690238829986 L10.601977155850037 1.225625947830018 L10.575105411850032 1.2165308958299406 L10.54957725384999 1.1941033238299426 L10.535521263849958 1.185370007829981 L10.49955446784999 1.1692469598299837 L10.488599063850032 1.161082084829978 L10.48758064184996 1.1572813758300171 L10.483586449849966 1.1423752158300076 L10.49304323685 1.1269239628299985 L10.525289330849958 1.1004656288300154 L10.530301945849956 1.091267223830009 L10.53536623585002 1.0700282098300349 L10.540740583849995 1.0626901568299374 L10.579962995849954 1.041967906830017 L10.610348737849975 1.0301856808300087 L10.619753848849953 1.0247596548299427 L10.626678490850011 1.0153545448299823 L10.631639428849965 0.99406385483001 L10.636807071849958 0.9875009478299361 L10.700110700849976 0.9695175488300194 L10.72041953984997 0.9567017948299608 L10.796745629850037 0.8875587278299619 L10.81348879384997 0.8784636758299982 L10.832299014849994 0.8728826208299765 L10.856586937849968 0.8688001828299647 L10.876017276849964 0.8602218948299409 L10.870332869850031 0.8470960808299637 L10.859894229850013 0.8316965038299813 L10.864855167850024 0.816451956829944 L10.889969913849953 0.7964015018299833 L10.898031436850047 0.7857561568300113 L10.906403018850042 0.7696331088300141 L10.918391950849994 0.7387822788299374 L10.928107119849997 0.7301523158299901 L10.946813988850025 0.7285503458299658 L10.966967797849989 0.735319958829983 L11.02453534285003 0.7666358768300015 L11.053990909850043 0.7921640338299412 L11.06866701685 0.7969699428299393 L11.084583357850036 0.7962464718299529 L11.100292992849987 0.7915439168299869 L11.112075219850013 0.7804851598299578 L11.109181339850025 0.7667909058300424 L11.092231469850006 0.7396607788299647 L11.090887881850065 0.7080348018299887 L11.11145510185004 0.6973377808299901 L11.176257348849973 0.6939271358299592 L11.192380395850037 0.689017875830011 L11.205299502850053 0.6800778528299745 L11.217391788850037 0.6697425658299707 L11.231137719850054 0.660492484829966 L11.278576684849966 0.6384783248299968 L11.294699730850041 0.6250424518299482 L11.315473657849978 0.6156373418299879 L11.35650474485 0.6076274948300053 L11.372627790850018 0.5952251498300356 L11.373971378849959 0.5861817748299742 L11.36983726384996 0.5777068398299647 L11.368080264850065 0.5694386098300228 L11.376761905850017 0.5609636758300311 L11.388544131849997 0.5557960328300098 L11.413762230849969 0.5491814498299377 L11.471846540850052 0.542618542829949 L11.48931317585 0.5344536658299361 L11.482285180850013 0.5180205598299708 L11.467299015850031 0.4987452518299378 L11.47112307184996 0.4859811728299448 L11.487349470849963 0.47673109083003595 L11.53127443885002 0.4616415728299543 L11.619641137850024 0.4453634968300193 L11.663876163850048 0.4431930868299432 L11.705010603849999 0.43228935982997285 L11.75079592285006 0.4346664758299923 L11.771776553850046 0.43011894882996415 L11.834408389849969 0.3874858928299929 L11.882880883850035 0.36748711382994514 L11.947269718850023 0.3551364458299915 L12.01351890484996 0.3513640668299658 L12.097028018849997 0.3612859418299692 L12.185394717850059 0.357668590829995 L12.214540225850058 0.35110568482991056 L12.238724795850047 0.34071872182999385 L12.263529483850064 0.3358611368299691 L12.294431990849958 0.34598971782991583 L12.308177921849975 0.3465064808299516 L12.319960147850011 0.341958955830016 L12.343938012850018 0.3286264368299996 L12.360164411850022 0.3238205278300015 L12.509509301849974 0.3110564488300085 L12.541135277850017 0.3137436238300424 L12.57038413885006 0.3200481488299758 L12.585163598850059 0.3215467648299679 L12.599529646850058 0.320099824829974 L12.649449080850005 0.30599215882994457 L12.69740480984997 0.3088343628300194 L12.763550642850035 0.3015996618299468 L12.794556501850039 0.3052170128299494 L12.82700930184997 0.3094028038299754 L12.957750675849994 0.2914452438299904 L13.027149784849954 0.29386206083002975 L13.028795521850057 0.29391937382998634 L13.029002123849992 0.29392656882995283 L13.029509210850009 0.2939442278299893 L13.090559106849994 0.29607028382994116 L13.15174400284998 0.3052170128299494 L13.182749861850041 0.31550062282993707 L13.264605329850056 0.35720350382995747 L13.29437095584997 0.3632496458299883 L13.324033226850034 0.3723446978299805 L13.352972028850061 0.37249972783001084 L13.411986514850028 0.35684176782995536 L13.421598331850035 0.3467648638300247 L13.426455915849957 0.31245171283000417 L13.432967146850004 0.29855075283003174 L13.447333194850003 0.2896624058299082 L13.46366294785004 0.28638095282993703 L13.529395369850036 0.2929438598300109 L13.553373234850042 0.2859158648299953 L13.602259138850016 0.2538506388299808 L13.685768252849996 0.21132093482992076 L13.71170982285004 0.19406100682993355 L13.753257673850058 0.18486260082993766 L13.774651716850045 0.18369988183001595 L13.794288760849966 0.1887641718299946 L13.798009463850022 0.19116712682994574 L13.80131675585001 0.1941126828299602 L13.819403506850009 0.21566175482998773 L13.839040550850044 0.22958855382997712 L13.855060245849998 0.22584201282997896 L13.861881534849957 0.19406100682993355 L13.865808943850041 0.1864387318299734 L13.866945825849953 0.17915235582997724 L13.865085473850016 0.17240858182994856 L13.860021182849962 0.16641411582991594 L13.879451521850015 0.158404267829944 L13.943737002849971 0.1453301308299828 L13.980117211849986 0.13359958083000123 L13.995620140849965 0.13639010782997474 L14.009882836849968 0.15220309582996805 L14.036857934850005 0.1716334348300208 L14.110238467850039 0.1729253458300022 L14.141967797850057 0.19395765383000452 L14.142174503850029 0.19395765383000452 L14.170906599850028 0.22909762782995102 L14.178554711849998 0.24118991283003055 L14.184445824850016 0.27152397882996837 L14.19002687985001 0.2809807658299448 L14.203462752850058 0.2766399458299631 L14.209663923850044 0.2671056438299715 L14.21844891785004 0.23816684182991565 L14.228164086849986 0.22553195382999291 L14.242633487850028 0.21721204783002435 L14.259996769849991 0.2110883908299499 L14.294516625850022 0.20380201382999275 L14.332137067850013 0.20359530883001042 L14.417816592850002 0.19395765383000452 L14.436213403850005 0.19685153382999232 L14.450476098849961 0.20338860282998183 L14.478898135850002 0.223878307829942 L14.512797875849984 0.23920036982999449 L14.631136905850056 0.2593283408299598 L14.668964054850008 0.27229912482999197 L14.695629093849973 0.293796520829936 L14.712165551849992 0.3238205278300015 L14.71909019285006 0.3622161178299379 L14.721053897849984 0.4032988808299862 L14.728185245849957 0.44076429482995394 L14.749579288850057 0.4651555708299995 L14.81024741985 0.46737765682998855 L14.816551944849962 0.46045301483001566 L14.81954917785005 0.45011772883000134 L14.825646996849983 0.4404542348299785 L14.888175480850023 0.42133395582998645 L14.967447126849962 0.4340463578300202 L15.046408715849978 0.4648971878299264 L15.108213728850004 0.5002438678300152 L15.167434919849953 0.5433420118300418 L15.192446313850056 0.568611787830001 L15.294248884850006 0.725449759829921 L15.294478618850022 0.7263271268299647 L15.298749951850041 0.7426395508299564 Z M6.693166113849955 13.12535291183 L6.708058691849956 13.138821335829995 L6.73092653084997 13.139309616829998 L6.775685644849958 13.12535291183 L6.795461035849954 13.136868210829995 L6.803029394849958 13.139553757829994 L6.802948014849974 13.139594447829985 L6.7828471038499885 13.147488327829969 L6.778452571849996 13.161404343829965 L6.771616634849991 13.174669317830002 L6.74459840584997 13.180569382829994 L6.727101660849954 13.174587937829962 L6.711069759849991 13.16002087982995 L6.703094499849968 13.147895228829988 L6.699188249849968 13.141873093829965 L6.693166113849955 13.12535291183 Z" fill="black" stroke="black" stroke-width="0.5" vector-effect="non-scaling-stroke"/></svg>