<svg xmlns="http://www.w3.org/2000/svg" viewBox="0 0 3.6681534390351374 5.250527285023917"><path d="M3.1763431476180415 1.0735632453276125 L3.1841556476180415 1.0753536103275891 L3.1880618976180415 1.0793412403276292 L3.189282600617986 1.0854447563276253 L3.189852261617972 1.0934607063276403 L3.1857832516180054 1.0984655893276098 L3.1763431476180415 1.1144974903276292 L3.184806689618 1.1275997043276433 L3.180900439618 1.1311804333276072 L3.1712975746179666 1.1316687143276098 L3.1626712726180415 1.135005303327624 L3.1481855956180027 1.1552689753276226 L3.1392337726180415 1.1637732063276403 L3.1353275226180415 1.158890394327635 L3.140535855617969 1.1396032843276416 L3.1763431476180415 1.0735632453276125 Z M3.3687259596180468 0.8538366833276072 L3.3540775226180415 0.8580684543276433 L3.3557865066179886 0.8664506153276292 L3.3638431476180415 0.8762162403276292 L3.3687259596180468 0.8845170213276319 L3.363192105617969 0.8913529593276266 L3.3509850746179666 0.8942826463276319 L3.330802782618008 0.894770928327624 L3.321362678618044 0.9001420213276319 L3.297762418617964 0.9235795213276319 L3.2827884596180468 0.9289506153276292 L3.2697676266180054 0.9265905893276098 L3.2600833816179886 0.9200801723275944 L3.253979866618039 0.9103145473275944 L3.252026741618039 0.8981888963276319 L3.2527591636179807 0.880285251327642 L3.255688850617986 0.8769079723276363 L3.2874271316179886 0.9101517873276279 L3.293856168617964 0.9091752253276226 L3.306551480617969 0.9016068653276292 L3.341707730617969 0.8701941053276059 L3.348706428618044 0.8606726203276125 L3.349438850617986 0.8488724903276292 L3.3462650226180415 0.8378454723276363 L3.3459395016180054 0.8313757453276125 L3.3543216636179807 0.8333288703276125 L3.3596927566179886 0.8365026993276032 L3.3638431476180415 0.8404089493276032 L3.367016975617986 0.845942803327624 L3.3687259596180468 0.8538366833276072 Z M3.376212939618 0.7855993783276389 L3.393465543617964 0.7902380503276376 L3.416740282618008 0.8007767873276279 L3.4322025226180415 0.8165645473275944 L3.4270755696179833 0.8367468393276098 L3.416740282618008 0.8395137663275918 L3.408113980617969 0.8287715793276433 L3.401440803618044 0.8142859023276046 L3.3960697096180468 0.8054154593276266 L3.382641975617986 0.8012243783276389 L3.372876350617986 0.8042761363276085 L3.3543216636179807 0.819738376327642 L3.352612678618044 0.8048864883276323 L3.354403043617964 0.7926794563276403 L3.361727261617972 0.785395928327624 L3.376212939618 0.7855993783276389 Z M3.5530521316179886 0.4286657843276416 L3.5650150226180415 0.462072360327646 L3.568188850617986 0.5095170213276319 L3.5630618976180415 0.5570430633275905 L3.5502038246179666 0.5906530893276098 L3.5305911946179833 0.6175899383275905 L3.529696011617972 0.6241817353275891 L3.540845100617986 0.6386267223276363 L3.540845100617986 0.6449336883275905 L3.536206428618044 0.6494096003276226 L3.527742886617972 0.6752885063276253 L3.5044681476180415 0.7055212533276389 L3.499097053618044 0.7269649383275905 L3.505932991618039 0.7644812143276098 L3.501050178618044 0.7781530893276098 L3.496492886617972 0.7812048473276363 L3.4915286946179833 0.7794958633276323 L3.4798099446179833 0.7785193003276376 L3.4704512206180027 0.7727819953276125 L3.4641849446179833 0.7719275033276389 L3.4595462726180415 0.7755489223275944 L3.449048225617986 0.7895463183276306 L3.4436771316179886 0.792394626327642 L3.432853564618 0.7905228813276253 L3.428621793617964 0.7870642223276363 L3.4271569496179666 0.7810827773276046 L3.4182865066179886 0.7563025033276389 L3.4107181476180415 0.7240759413276336 L3.404126350617986 0.7098750943275931 L3.3960697096180468 0.7035274383275905 L3.3903730956180027 0.7039343393276098 L3.387768928618044 0.7023067353275891 L3.3892337726180415 0.6893672823276447 L3.392407600617986 0.6781775033276389 L3.3981855956180027 0.6679642873276279 L3.406160855617969 0.6597448863276085 L3.416414761617972 0.6546179333276072 L3.420321011617972 0.6675573863276085 L3.4292728346180468 0.6692663703276125 L3.438712939618 0.6621049123276279 L3.4436771316179886 0.6483923473276363 L3.4409915846180468 0.6401322563276253 L3.4331790846180468 0.6319942353275891 L3.416414761617972 0.6204382453276125 L3.4241458816179886 0.6132360973276363 L3.437573616618039 0.5943965793276433 L3.449617886617972 0.5862585583276072 L3.451245491618039 0.5869096003276226 L3.452059293617964 0.5813757453276125 L3.4519779136179807 0.5677038703276125 L3.451245491618039 0.5664831673276112 L3.461824918617964 0.5469519173276112 L3.4739505696179833 0.5343786753276376 L3.490959032618008 0.5275427383276323 L3.516024136617972 0.5255489223275944 L3.5398685386179807 0.5187536753276376 L3.545809293617964 0.5021114223275944 L3.537834032618008 0.44990601932763497 L3.528556689618 0.43013062832763893 L3.526278043617964 0.41841187832763893 L3.530184293617964 0.4140173473276363 L3.539136116618039 0.41592978232764466 L3.5481693196179833 0.4216263963276319 L3.5530521316179886 0.4286657843276416 Z M0.04694861661803884 5.100784925327638 L0.06574744461798332 5.089310316327634 L0.08845252261804148 5.087804782327645 L0.09691606461800006 5.099279391327592 L0.08527869461798332 5.1148230113276085 L0.06534054361796393 5.125321058327607 L0.04328650661798861 5.129145928327624 L0.035962288617980676 5.118607191327634 L0.04694861661803884 5.100784925327638 Z M1.1252363766180054 2.8558711883275905 L1.1187259596180468 2.840978610327589 L1.1250736166180388 2.8378454723276363 L1.131584032618008 2.843745537327628 L1.1252363766180054 2.8558711883275905 Z M3.064526741618039 1.2636267223276363 L3.0501224446179833 1.248937594327593 L3.0415775226180415 1.2289994433276306 L3.0445072096180468 1.2138220343276416 L3.0646895016180054 1.2130896133276323 L3.078035855617969 1.2232214493276032 L3.0825931476180415 1.2389278293276433 L3.078198616618039 1.254349378327639 L3.064526741618039 1.2636267223276363 Z M0.6963626786180441 5.170365003327639 L0.7112552566179886 5.173823662327628 L0.7178470536180441 5.187658297327594 L0.7000247886179807 5.199051527327605 L0.6836673666180388 5.195267347327636 L0.6802493976180415 5.184036878327639 L0.6898522616179719 5.174027113327632 L0.6963626786180441 5.170365003327639 Z M3.6145245938917014 0.05147575769631274 L3.6270959032132453 0.05162740195833493 L3.6321911504171567 0.06521472783541249 L3.6229560148600513 0.0894171520539544 L3.606093172923323 0.09784857302231842 L3.597373627857138 0.08729413238566153 L3.5976617519549734 0.07255431011722457 L3.6145245938917014 0.05147575769631274 Z" fill="black" stroke="black" stroke-width="0.5" vector-effect="non-scaling-stroke"/></svg>