<svg xmlns="http://www.w3.org/2000/svg" viewBox="0 0 1.3997121499678968 1.3578149403599618"><path d="M0.29465735183099895 0.9728106641799883 L0.3335792021367112 0.997625411199099 L0.369484849873551 1.0161268399415846 L0.3417121378310455 1.0358076391799358 L0.3091559858310049 1.0615425021800178 L0.3089492808310226 1.0615425021800178 L0.2938597618309515 1.0703274951799955 L0.18079172783102848 1.1631383681800145 L0.15929433183094233 1.198226665179945 L0.1589842728309847 1.2152282111799622 L0.16725250283104032 1.2495930391799135 L0.16435862283105251 1.266697938179945 L0.12932200183103504 1.2990473851799464 L0.07785227483105217 1.3317585671799321 L0.06180408383095681 1.3445030291799611 L0.043849182831017686 1.2967219461799147 L0.03806142183099581 1.2802371631799332 L0.013722668136942673 1.2416852983343034 L0.03612008983099457 1.229305761180001 L0.05011748583097386 1.2135993811799608 L0.09487659983096108 1.1792569331799996 L0.1150588918309765 1.1482510731799493 L0.16185251183099325 1.1183031571799802 L0.18162790183094302 1.0877855791799789 L0.2568232148309946 1.0213793291799789 L0.2922236058309906 0.9776781571799802 L0.29465735183099895 0.9728106641799883 Z M0.8001485264433725 0.588724249370518 L0.8112897414043303 0.5771729454084564 L0.8122800716230785 0.5620534357858453 L0.8102279540293011 0.5448502069648811 L0.8206978784824202 0.5351804613405804 L0.7976702376721505 0.4663683763355806 L0.8003961089981217 0.431960852180751 L0.7904928068106614 0.4059645465412345 L0.7761330186388449 0.38249038246983247 L0.7716765326544888 0.3694983567236889 L0.7748639938310404 0.35437636417997 L0.813724670830986 0.3239389461800073 L0.821062723831055 0.31156244017994084 L0.8245767208310255 0.29885003817999234 L0.8228197228309497 0.28830804518001685 L0.8158950808309484 0.2808149631799921 L0.8033893848310001 0.27748183317997643 L0.806489969831027 0.264381857179913 L0.8100039678309869 0.23291091017996735 L0.8141380818309969 0.22022434618001796 L0.8179621378310387 0.21789890617999674 L0.8312946578310445 0.21373895417995925 L0.8350153608309867 0.21136183817999665 L0.8422500618309456 0.19079461817993604 L0.8461835278309806 0.17375172618004342 L0.8581664018310491 0.1218324191799951 L0.8778034458309705 0.09281610218000935 L0.9041584268309677 0.07671889318002911 L0.9341307578309781 0.06462660818003485 L0.9651366178310283 0.04803847417993268 L0.9902513638309571 0.023259624179999605 L1.0042039998309562 0.014242087179965779 L1.0220840458309723 0.013311911179997082 L1.023812580831013 0.01408442417995559 L1.0371735638309971 0.020055685179940497 L1.0656989538309674 0.04000278917995104 L1.083889058830998 0.0454804901799406 L1.146830952831003 0.04287083018003557 L1.1765965778309848 0.04584222517995329 L1.2063622028309666 0.06147434617999181 L1.2152505488309586 0.08498712317997104 L1.2148371378309477 0.11594130617997678 L1.2203148398309551 0.1411594051799483 L1.2462564088310089 0.14769647317991996 L1.2701309208309723 0.148342428179987 L1.2935920208310492 0.1535359101799969 L1.3744139608310135 0.17123508818001199 L1.377411193831044 0.17890903817998094 L1.3790648398310097 0.18800409117996253 L1.372863667830977 0.18800409117996253 L1.372863667830977 0.18113112517998786 L1.3654222618309788 0.18113112517998786 L1.3654222618309788 0.18800409117996253 L1.3707966108309435 0.19774509817990804 L1.3699697868309428 0.2277432671799744 L1.3790648398310097 0.24260024217998932 L1.3746206668309853 0.2542532761799663 L1.3743106078309708 0.2733218801799495 L1.3780313108310267 0.29236464518002947 L1.3859894818309542 0.3040435191799844 L1.3810285448309898 0.3064464731799461 L1.3772044878309586 0.30913364817998 L1.3745173138309426 0.31280267517998084 L1.372863667830977 0.3183578911799856 L1.3859894818309542 0.3183578911799856 L1.3730156438309606 0.36558111517997816 L1.3686261998310485 0.38155816718004587 L1.372863667830977 0.393417908179984 L1.372863667830977 0.40085931517999995 L1.3646987918310103 0.40442498917995806 L1.3601512648309537 0.4089208381799807 L1.3601512648309537 0.41434686417996147 L1.3654222618309788 0.42075474217990916 L1.3486790978310452 0.4451460181799263 L1.3480589798309595 0.45672153817999117 L1.3586009728310202 0.46912388217994305 L1.341754455831044 0.48085443217995305 L1.3362767538309797 0.49811436017994026 L1.338137105830974 0.5442614151799745 L1.3489891558310134 0.5677225141800335 L1.3511595668310221 0.5783678601800233 L1.3517796828309585 0.5920104381799405 L1.3534333298310273 0.6003303441799943 L1.3593244428310456 0.6113891001800056 L1.3586009728310202 0.6193472711799615 L1.35405344683101 0.6239464731799131 L1.3471288038310192 0.6256517951799907 L1.3409276328310327 0.6285973521799662 L1.338137105830974 0.6367105521799914 L1.3625283808310016 0.7167573461799321 L1.3517796828309585 0.7292113661800244 L1.3517796828309585 0.7366527721799372 L1.372863667830977 0.7906029681799822 L1.3410309848309723 0.8208853571800176 L1.3159317938309911 0.8705915981800132 L1.2935920208310492 0.9148331111799592 L1.2776756798309563 0.9873868221799711 L1.272197977830949 1.0615425021800178 L1.2725080368310202 1.063144471179939 L1.2726113898309492 1.0640746471799076 L1.272197977830949 1.064384706179979 L1.2715778608309662 1.0640229711799947 L1.2035716758310215 1.0688805551800016 L1.1457974248310094 1.0971475641799913 L1.0367601518309968 1.1749205941800227 L0.978365783831002 1.1936791391799346 L0.8536188758310388 1.192748963179966 L0.7937775678310501 1.1997769581799815 L0.76835276283105 1.2073217171800223 L0.7408609008309597 1.2110424201799361 L0.714402567830966 1.2074767471799674 L0.6922850538309646 1.1931106981799502 L0.6806061808310275 1.1595210171800403 L0.6951789348310555 1.1260863661799618 L0.7402407838310339 1.0615425021800178 L0.7459251918309562 1.0289863501799772 L0.7463386028309671 1.0010293991799841 L0.7507827758309915 0.9739509491800078 L0.7666287698309517 0.9476320291800135 L0.7687661748310504 0.9440819711799833 L0.7870596318310206 0.9255818091799739 L0.8726795095090054 0.8791553024244045 L0.9068404739363984 0.8535362390149714 L0.9276844522310768 0.8382667010834659 L0.9391950478309852 0.8228490621799693 L0.9624052783002739 0.81860300580313 L0.9678085141430941 0.8225263658614814 L0.9801864630827879 0.8238995282339658 L0.9928759851079008 0.8358493089200394 L1.0187082263733203 0.8327653470424607 L1.0328423145218153 0.8408368706525664 L1.0376008852812362 0.8367889739486465 L1.0414530616102837 0.8385237651796871 L1.0448520407241517 0.8433428000389682 L1.0514234003443121 0.846619886811137 L1.0558703980182926 0.8451018101580914 L1.0577681613568686 0.8365962213713622 L1.0626683562460357 0.8323798590224349 L1.0659257112301574 0.8179011265533873 L1.0715753380665376 0.8135292597550183 L1.076264272701522 0.8073265772777205 L1.07317686667308 0.7990171296374875 L1.0666055070529339 0.7934297465895241 L1.0661523098377472 0.7863015062356311 L1.0715906764199374 0.7722392913345537 L1.0763492471793583 0.7662683126020546 L1.0734034652806699 0.7633792677850941 L1.0722704722427068 0.7552904226737454 L1.0693246903440254 0.7437361578465591 L1.0740832611034463 0.7371893825957443 L1.0783886346476805 0.7296804177981713 L1.0736300638882597 0.7271775652485353 L1.0670587042681134 0.7265999935281648 L1.0650193167997912 0.7246747805619016 L1.0706842819895783 0.7173593375366067 L1.0672003283978597 0.7144958845534113 L1.0634331265466486 0.7115843974330183 L1.0582213585720481 0.7108144327315955 L1.0468064537146446 0.7133409034608107 L1.0409148899172678 0.7056413990440582 L1.0391021010565353 0.6987123945998199 L1.0400084954868944 0.6887047518533223 L1.0354765233350705 0.6767739824826684 L1.0255061846010491 0.6744649797503293 L1.0187082263733203 0.6786981956359881 L1.0182550291581265 0.6848559477915614 L1.0227870013099576 0.6925537166442872 L1.0264125790314154 0.7025617772366886 L1.0295849595376936 0.7168058901159213 L1.0295849595376936 0.7322074050796701 L1.0292167368003504 0.7358415747145486 L1.0267241521168486 0.7371893825957443 L1.0100974792848376 0.7295119544388093 L1.003384495534938 0.7292953591427604 L0.9970397345223745 0.7308356034012782 L0.9956801428768287 0.7360341174930944 L0.9992207461204572 0.7418346569197709 L0.9996202528179907 0.7472121791025579 L0.98737524966905 0.7484012159965694 L0.9504101785662584 0.7416590512794698 L0.9348450691403656 0.7311067591714533 L0.9259247642280783 0.7319893589752979 L0.9110382195651923 0.7246862238688863 L0.9015445859240785 0.7078202348796481 L0.8897734112399434 0.7017936100913253 L0.8778894486149937 0.7013730206722855 L0.869471641755645 0.7026347946843501 L0.8590731744588211 0.7076820633756427 L0.8409455528924639 0.723220883361158 L0.8263922772401884 0.726611780774121 L0.8150034797246093 0.7274531916794693 L0.7937632360424871 0.724634952882564 L0.7908860367120383 0.7225861073266415 L0.7921935613883875 0.7186188560314619 L0.8032141265176662 0.7103675196921024 L0.8119932207731893 0.7021169213731966 L0.8200251580707913 0.6998957325514468 L0.8435606022451765 0.6989438108640194 L0.847776302733422 0.6948382256176089 L0.8524594612266156 0.6473145989515743 L0.8433549622907961 0.6315224495017944 L0.8298076409299142 0.6293656476808138 L0.8188768948835445 0.6221833249031548 L0.8172290088227925 0.6167407669294498 L0.8211874866209783 0.6110302988595819 L0.8146762885026888 0.6063325694228716 L0.8001485264433725 0.588724249370518 Z" fill="black" stroke="black" stroke-width="0.5" vector-effect="non-scaling-stroke"/></svg>