<svg xmlns="http://www.w3.org/2000/svg" viewBox="0 0 6.007775929020028 2.4720487888800013"><path d="M0.5385481950100086 0.0773296174399789 L0.5502669450100086 0.08445038543997185 L0.6464990420100492 0.1595643184399833 L0.7055403830100033 0.21828013844001504 L0.7431787290099976 0.23858450044000534 L0.7693831560100364 0.22100637544000534 L0.7670638200100086 0.2380962194400027 L0.7625472190100311 0.25148326344001504 L0.7353662290099976 0.29835826344001504 L0.7326806820099989 0.3097108024399873 L0.7358545110100465 0.32346405743997053 L0.7443587420100073 0.33278209144001636 L0.7557112810100364 0.3401063104400137 L0.7640120630100284 0.34795950044000534 L0.7631982610100465 0.3587830684399833 L0.749689146010013 0.3694031854400137 L0.724542662010009 0.3674500604400137 L0.7221826360100465 0.37868052944001107 L0.7172184430100117 0.3864523384399732 L0.7184798360100046 0.391416531440008 L0.7233626490099994 0.39345103643999124 L0.729099953010035 0.3923117134399732 L0.7389469580100183 0.3989848914400014 L0.7476546410100298 0.4106629504400203 L0.7540022970100324 0.4240906854400137 L0.7563216330100033 0.43674530743997053 L0.7615706560100364 0.44626679244002077 L0.7973372580100033 0.468035997440019 L0.8041731950100086 0.468035997440019 L0.8117008650100104 0.4564393184399833 L0.823907896010013 0.45497447443998595 L0.8296858910100298 0.4514344354400137 L0.8178450700100086 0.4332459584399899 L0.8311507350100271 0.4369080684399833 L0.8361963070099989 0.4470805944400027 L0.839085305010002 0.4590434844400093 L0.8457177920100492 0.468035997440019 L0.856663430010002 0.4709249954400221 L0.864231789010006 0.4665304634399732 L0.867690448009995 0.45595103643999124 L0.866184914010006 0.44008189643998463 L0.8730615420100492 0.44008189643998463 L0.873997414010006 0.453265490439982 L0.8810774920100073 0.459775906440008 L0.8890934430100117 0.4607524694400027 L0.8929183130100284 0.457171740439982 L0.8934065940100311 0.44488332844000666 L0.8952783390100478 0.4360535754400203 L0.899632180010002 0.43349009943998595 L0.907200539010006 0.44008189643998463 L0.9081771020100007 0.4369894484400234 L0.908136412010009 0.43430390144002473 L0.9093571150100104 0.43283905743997053 L0.9140364770100007 0.4332459584399899 L0.915948912010009 0.44236054244002077 L0.9187158390100478 0.4494406204400221 L0.9225407080100183 0.455218615439982 L0.9277083520100007 0.4605897084399899 L0.9345035990100143 0.4605897084399899 L0.9345035990100143 0.45375377143998463 L0.941339537010009 0.45375377143998463 L0.938694680010002 0.4687684194400177 L0.9404443540099976 0.4961121694400177 L0.9345035990100143 0.5083598914400014 L0.9040267110100046 0.48976451344001504 L0.8880355000100337 0.4838644484400234 L0.862522805010002 0.481707872440019 L0.8514144060100364 0.48947968243997053 L0.8483626490099994 0.5069764274399873 L0.8514144060100364 0.5256531854400137 L0.8587386250100337 0.5369243444400027 L0.8587386250100337 0.543109240439982 L0.853204771010013 0.5407899044400111 L0.8383121930100117 0.5369243444400027 L0.843683287010009 0.5511658804399886 L0.8676090680100117 0.5636170524399873 L0.8730615420100492 0.5741964794399692 L0.866184914010006 0.6393820264400247 L0.8616683130100284 0.6383240834399899 L0.8586572450099936 0.6372254504400203 L0.8559310080100033 0.635557156440008 L0.8519840680100117 0.6325460884399732 L0.8691146020100007 0.6490662714399846 L0.8933252140100478 0.6601746694400177 L0.9174544450100086 0.6625753854399719 L0.9345035990100143 0.6529725214399846 L0.970392271010013 0.6645692004400203 L0.9831282740099994 0.6721375604400137 L0.982924823009995 0.6803162714399846 L0.997736021010013 0.7027772084399899 L1.002781594010031 0.7082296824399705 L1.0051416200099936 0.7116476514400247 L1.0067692240100143 0.7183208284400067 L1.0102278830100033 0.7219015574399705 L1.0143375830100183 0.7229188104400137 L1.0254866720100324 0.7218201774399873 L1.0445296410100298 0.722796740439982 L1.0921370630100284 0.7082296824399705 L1.1144352400100104 0.7060731074400124 L1.1269271020100007 0.7112000604400137 L1.1374251490099994 0.7183208284400067 L1.1535791200099936 0.7219015574399705 L1.1681868670100073 0.7184022084399899 L1.1827132350100271 0.7096945264400247 L1.1913802270100007 0.6983826774399873 L1.1884098490100143 0.6871522084399899 L1.1996810080100033 0.682432156440008 L1.208429380010017 0.6823914664400164 L1.2225081560100364 0.6871522084399899 L1.2244612810100364 0.690936388440015 L1.2341048360100046 0.6992778594400093 L1.2448063330100183 0.7042420524399873 L1.2497705260099963 0.6977316354399719 L1.2598616720100324 0.695208849439986 L1.3186995630100284 0.7219015574399705 L1.3366032080100183 0.7132752554399886 L1.3415674010099963 0.6960633414400164 L1.3379052920100492 0.6560649694400027 L1.2702783390100478 0.618223172440004 L1.2350813990099994 0.5662212194400027 L1.2259261250100337 0.5573914664400164 L1.2128646020100007 0.5516541614399912 L1.194309914010006 0.5385519484400234 L1.1787256040099976 0.5243104114399912 L1.1747379740100143 0.5151958284400067 L1.1901188330100183 0.5153992794400111 L1.2155094580100183 0.5217469354400137 L1.2392724790099976 0.5239848914400014 L1.2497705260099963 0.5117778594400093 L1.217381203010035 0.4966004504400203 L1.2018375830100183 0.485410672440004 L1.2088362810100364 0.4742615834399899 L1.229344094010031 0.4740174434399833 L1.246678078010035 0.4868755164400014 L1.2702783390100478 0.5151958284400067 L1.2933903180100117 0.5324484324399705 L1.2975813990099994 0.5369243444400027 L1.296116555010002 0.5454692664400014 L1.287937844010031 0.5480734324399705 L1.2777653180100117 0.5465272084399899 L1.2702783390100478 0.543109240439982 L1.2702783390100478 0.5499451774399873 L1.2784163600100271 0.5597108024399873 L1.28631459101004 0.5682421984400108 L1.291265127010007 0.5828808244399752 L1.2986804130100325 0.5857229424400217 L1.3118604030100016 0.5857171214400196 L1.3353389460100118 0.5885558324400009 L1.3501746590100367 0.5897780264399799 L1.375258807009999 0.6165955684399833 L1.3909741110100242 0.621506381440021 L1.405695005010017 0.6543559844400093 L1.4105778180100117 0.6591981074400124 L1.424656594010031 0.6693299434399833 L1.4845931170100073 0.7544129504400203 L1.524835630010017 0.7971782504400053 L1.5446517110100046 0.8100363234400234 L1.5505517760099963 0.819150906440008 L1.561375344010031 0.8307068964399846 L1.573094094010031 0.8405945914400164 L1.5818831560100364 0.844785672440004 L1.590672219010031 0.846738797440004 L1.6088538950100144 0.8525684104400071 L1.6209490420100394 0.8525435254399909 L1.6386716420099958 0.8469344384400088 L1.6906396340100116 0.8571014244400104 L1.7027152320100356 0.853428532440013 L1.7305993360100445 0.8534078134399934 L1.754165057009999 0.868426622440019 L1.8076828210100473 0.8716458914400178 L1.8459218320100206 0.8642934214400171 L1.8990731950100042 0.8617196514399907 L1.9373613080100256 0.8567624744399964 L1.981805745010007 0.851791781439978 L2.0244287290099976 0.844785672440004 L2.0322412290099976 0.848691922440004 L2.0414371930100117 0.8466981074400124 L2.0506331560100364 0.8403504504400203 L2.0585677270100007 0.831113797440004 L2.1370070430100156 0.8054392604400178 L2.213222771010038 0.7738930834400222 L2.2304289070100083 0.7678303364399781 L2.267289035010009 0.7690484954399963 L2.2897282080100183 0.7628358024399873 L2.2992465240100444 0.7508586724399962 L2.307853617010011 0.7411589194399895 L2.3285872580100033 0.7143331984400234 L2.3395735860100046 0.7000916614399912 L2.349624042010049 0.6939881464399846 L2.3530013200100086 0.6908143184399833 L2.356297219010031 0.683734240439982 L2.3615055520100157 0.6766541614399912 L2.3704573750100337 0.6734803334399899 L2.3853196910100394 0.6563067034399879 L2.4086613580099936 0.6454203404399905 L2.4450423360100046 0.6237977164400164 L2.458917662010009 0.618223172440004 L2.475028112009994 0.6018565094400188 L2.5328087110100057 0.5728409354399915 L2.605373266010048 0.5426370084399892 L2.703830119010007 0.5112661364400211 L2.819554055010002 0.5021749954400221 L2.8346907740099994 0.497129422440004 L2.8673649270100157 0.47841197443998595 L2.877211932009999 0.4742615834399899 L2.9122054220100324 0.4703553334399899 L2.949233417010049 0.4605897084399899 L2.982436542010049 0.4473247344400093 L3.0113265160100298 0.43121145344000666 L3.046945279010032 0.3910474394399799 L3.085952167010049 0.3569113234400234 L3.1113225990100375 0.3330126644399698 L3.113641302009995 0.32173179643999816 L3.1332022370100105 0.29017512644001187 L3.1584149230100422 0.2800943594399783 L3.1647095690100002 0.2806794304400242 L3.1683903180100117 0.28993541143999124 L3.1662337420100073 0.32765513844001504 L3.1683903180100117 0.33766490444001107 L3.1739241720100324 0.34437877143998463 L3.182713235010027 0.34938365444001107 L3.1929671410100298 0.35036021644001636 L3.2030989770100007 0.3451111934399833 L3.2105452660100298 0.32688202644002473 L3.211888039010006 0.3066997344400093 L3.2174625830100183 0.2970968704400221 L3.237278664010006 0.3103618444400027 L3.2350813990099994 0.3018983024399873 L3.2326399920100073 0.28472707844000666 L3.2304427270100007 0.27626353643999124 L3.2328434430100117 0.27809459144001636 L3.237278664010006 0.28244843243997053 L3.2441146020100007 0.27626353643999124 L3.231744397010033 0.25888797243997175 L3.240934449010041 0.24932346543997852 L3.252359861010035 0.25444462243999766 L3.2712478540099994 0.25281915743997985 L3.2935228370100447 0.2624961984400116 L3.3117822450099936 0.29274302944001107 L3.319187844010031 0.3041769484400234 L3.3151595240099994 0.2822449824400124 L3.309991880010017 0.266864122440019 L3.309422219010031 0.2529481074400124 L3.319187844010031 0.23532929244002077 L3.333999042010049 0.221942247440019 L3.363865578010035 0.2109966094400093 L3.3806299010099963 0.20049856244001063 L3.3827864770100007 0.19756887544000534 L3.385512714010048 0.19016327644002473 L3.3874251490099994 0.18682668744001063 L3.3908431170100073 0.18430390144002473 L3.397491444010001 0.1736833304400207 L3.4066832900100223 0.1680684664399692 L3.421516261009998 0.15772884444002244 L3.4278628270100455 0.13205007743997754 L3.434771395010017 0.10792072443999956 L3.452462958010045 0.10115463444001449 L3.460483527010041 0.09383435243999116 L3.4556611650100137 0.08856542443997029 L3.444425623010005 0.09272592943998603 L3.4356429220100324 0.09511119343998331 L3.4299883120100105 0.08900151243998522 L3.4364140080100185 0.08482193143996852 L3.4423027150100154 0.08064167244001652 L3.4476611240100112 0.07015822143998918 L3.4621149260100026 0.06392182443997996 L3.473293045010024 0.05501955843997308 L3.4818107840100367 0.04505471543999562 L3.4999357530100212 0.03986152543999566 L3.5159032470100158 0.04200696443999874 L3.5355970510100008 0.03573829143997642 L3.561177431010009 0.024235772440000858 L3.5792789900100104 0.029193224439985954 L3.5841618020100157 0.04107473444000931 L3.589532896010013 0.050677599439985954 L3.5896956560100364 0.05824595843998992 L3.5792789900100104 0.06398326344001504 L3.5792789900100104 0.07020884943998595 L3.589085305010002 0.07448131044001371 L3.5893294450100086 0.07680064643998463 L3.5929508650100104 0.08445038543997185 L3.5978336770100157 0.08103241744002077 L3.6014144060100364 0.07899791143999124 L3.604262714010048 0.07614960443996921 L3.6071517110100046 0.07020884943998595 L3.6139876490099994 0.07020884943998595 L3.6201318540099976 0.07484752143998463 L3.6282698750100337 0.0785096304399886 L3.6481673360100046 0.08445038543997185 L3.6486556170100073 0.07582408343998992 L3.6556136250100337 0.057147325440020325 L3.660903339010048 0.06613983843997318 L3.6675765160100298 0.06972056843998331 L3.674900735010027 0.06882538543997185 L3.6823063330100183 0.06398326344001504 L3.7202537610100137 0.07302638844002018 L3.776099957010018 0.07916903444002088 L3.8393963250100285 0.09650693943999755 L3.872436998010045 0.1080131694400066 L3.9183887520100313 0.1139261504400011 L3.937142336009998 0.1041245064400087 L3.9558716170100467 0.09857319144001764 L3.978869894010046 0.10012353543996966 L3.9961092390099964 0.10163853743998885 L4.013374339010028 0.09749605843999376 L4.032079450010002 0.0919487524400111 L4.063690329010029 0.0893093754399743 L4.099243973010033 0.08330267043996997 L4.141563009010014 0.08021496543998552 L4.1548345730099925 0.0882446864399995 L4.154783471010006 0.09949564543999401 L4.137633518010006 0.10879279944001752 L4.1252876100100195 0.10639268444001715 L4.115274869009994 0.11384758443998777 L4.104339978010017 0.11473597844000238 L4.073915350010026 0.11835797943999893 L4.057272542009997 0.12156948243998755 L4.046287151010034 0.1398080454399988 L4.048993911010001 0.16323615844002148 L4.054085958010006 0.19559680543998326 L4.071647866010011 0.2012946184400235 L4.087822382010046 0.19761426244000546 L4.098255604010006 0.2023448414400164 L4.111096286009996 0.20005720943996863 L4.123933847010022 0.19823869543998995 L4.1348687120100465 0.19641247844001697 L4.145783762010041 0.19880325844000168 L4.159555939010005 0.19886517244001567 L4.1770958070100335 0.20597191044002017 L4.1875273410099965 0.20929708243998135 L4.19646649001001 0.21669322443998595 L4.204075539010006 0.2227153594400093 L4.208836281010036 0.230609240439982 L4.216402677009995 0.22910719143997227 L4.229233008010027 0.22823312844000299 L4.237304848010041 0.22873994244000784 L4.247267733010034 0.2311302704399978 L4.259601778010023 0.2297744004400002 L4.264910240010039 0.22044379844002293 L4.2758100610100485 0.21814382543997368 L4.294301212010026 0.2224477844399999 L4.322761716010035 0.2169576204400201 L4.33100956601001 0.20764620544000678 L4.348040693010006 0.21100629944002236 L4.359496936010004 0.2091944194399744 L4.3705509140100105 0.20503950143999106 L4.383923096010022 0.19854461544000657 L4.394261086010005 0.21168834144001636 L4.410489012010004 0.21926864944001778 L4.423276896010037 0.21797474844002096 L4.456545695010021 0.22702986343998788 L4.478881250010005 0.2247950344400138 L4.492118399010025 0.2347028174399739 L4.5082463340100105 0.23713418444001633 L4.5225244850099955 0.23112606243999068 L4.53405859301003 0.22162993943997122 L4.550827655010011 0.2154880874399865 L4.565738539010027 0.21915803644001386 L4.585023335009993 0.23202526643999732 L4.5993258570100295 0.23753621844000605 L4.632256315010039 0.23752542843997304 L4.648696307009999 0.24891978643999124 L4.65953929201001 0.24469481243998104 L4.674433483010006 0.24917719243999414 L4.684884639009994 0.25963254344001285 L4.696194599009999 0.26921847143999145 L4.723415248010014 0.28167935344001904 L4.7338242670100215 0.2877782464400198 L4.74792147701001 0.29232969543998166 L4.773806719010025 0.2975215964399709 L4.794633739010038 0.30886601043997786 L4.809418947010016 0.32021462643999854 L4.82507380701 0.32724093243999874 L4.834659666010026 0.3316494134399832 L4.844234987010026 0.3325850904400127 L4.857284360010027 0.33613863643999053 L4.870288568010011 0.3439831114400036 L4.885909640009999 0.35272054644000406 L4.90412118701002 0.3631926394399798 L4.9197920380100015 0.36591744443999374 L4.935491897009996 0.36346926444000616 L4.9450596900100265 0.3670113654399998 L4.95722341501002 0.3740371914400171 L4.9702404850100095 0.375818676439998 L4.98843908801004 0.3871636244399852 L4.998142922010032 0.39971731244001063 L5.0239866810100295 0.405544579439983 L5.056153632009995 0.4100901224399891 L5.075244802010019 0.4171365954399917 L5.087579771010013 0.42706106244001063 L5.0913232610100465 0.43991913543997185 L5.11288901601003 0.4627055944400027 L5.125891335010039 0.4646283134399951 L5.143487974010014 0.4729188104400137 L5.176737029010013 0.5106393154399953 L5.193618182009999 0.5369243444400027 L5.20711756301003 0.5542178074399899 L5.2219936320099976 0.576314967439977 L5.256402384010045 0.5992376724400188 L5.251307539010014 0.5854372234399889 L5.246922219010031 0.5732606074400124 L5.235703881010039 0.5499735624399946 L5.234484961009997 0.5346406874399818 L5.252049172010032 0.543109240439982 L5.264887184010007 0.5659701434400191 L5.272951538010005 0.5770266794399745 L5.300280873009996 0.5954886914400177 L5.303973629010017 0.6181951624400099 L5.3139074420100485 0.6292644494400079 L5.32633214001001 0.6366568724400068 L5.34140464101003 0.6495545524399873 L5.34490399001001 0.661191922440004 L5.353611672010032 0.672015490439982 L5.364598000010034 0.6809673124400106 L5.367730015010039 0.6899519474400009 L5.357940265010001 0.7078695464399871 L5.377415383010003 0.7300395784400067 L5.391373651010014 0.7612379904399873 L5.401825118010009 0.7722463434400098 L5.411089912009999 0.7642684464400205 L5.415409137010016 0.7661018634400207 L5.4166263330100435 0.7802090234400012 L5.43585345701004 0.7918999564400124 L5.456294118009993 0.8103281194400225 L5.478693052010016 0.836077990439982 L5.497817401009996 0.844785672440004 L5.492690448009995 0.8365662714399846 L5.486098651009996 0.8303813754400053 L5.480402037010009 0.8236268184399833 L5.477960630010017 0.813739122440019 L5.483087583010018 0.8090597604399719 L5.494155292009992 0.8183371044399692 L5.504734719010031 0.8313579374400106 L5.508315448009995 0.8379497344400093 L5.538073331009997 0.8607741894399865 L5.534272273010032 0.8784979824400025 L5.552803828010013 0.8938206524399916 L5.558523347010038 0.8767721624400124 L5.568457492010026 0.8786428374399762 L5.577046578009998 0.8957832594399875 L5.573803204010034 0.9122134234399724 L5.5718556950100435 0.9274492814400119 L5.567396463009999 0.9389247414399975 L5.5800086520100365 0.9503264814399941 L5.611424172010032 0.9716981074400124 L5.635187193010012 0.9836203074399705 L5.667942727010001 0.9891541614399912 L5.698948586010005 0.9868348254400203 L5.717543964010048 0.9751160754400203 L5.721450214010048 0.979998888440015 L5.726333026009996 0.9839458284400067 L5.732111021010013 0.9868755164400014 L5.738621438010028 0.9887879504400203 L5.737209497010014 1.0025823084399619 L5.726770859010088 1.0098945244399502 L5.710596135010093 1.011496493439985 L5.69447308801 1.0150621674399574 L5.678143336010066 1.0252682634400188 L5.677109807009998 1.03289053644 L5.681915716009996 1.0430707934399592 L5.683052596010015 1.060899162440002 L5.6710119880100365 1.085858880439993 L5.64277268001004 1.1157166464399566 L5.631789576009993 1.127329216440053 L5.623469671010014 1.1569914884400063 L5.623417994009998 1.179884148439946 L5.6324613700100485 1.1856719094400106 L5.662537053010027 1.1828813814400476 L5.67943524601003 1.1884624364399698 L5.68982221001005 1.19711823843992 L5.706358667010051 1.2250751884400088 L5.72087974501008 1.2599826184399987 L5.729147975010022 1.3285830814399375 L5.73777793800997 1.364213982439928 L5.748940048010013 1.3814480724400013 L5.761652450010047 1.3861247894399682 L5.774984970010081 1.3868999364399812 L5.787800725010072 1.3923259614399583 L5.79524213101007 1.4026870864399754 L5.816946233010071 1.448033155439994 L5.8427117300100235 1.4858276094400154 L5.85203453101002 1.4995028814399731 L5.8810766860100046 1.5547966644399978 L5.902522405010046 1.6328280774400028 L5.9043827570100405 1.6569609714399647 L5.91094566301004 1.671533725440021 L5.920609156010045 1.6806804534399973 L5.931306177010043 1.6883802424399974 L5.941073023010006 1.6986121754399832 L5.948876165010034 1.7142701354400245 L5.943140081009972 1.7184559264399653 L5.906088078010015 1.718042514439965 L5.8760123950100365 1.7242953624400528 L5.842422714010013 1.7354057954399806 L5.811726913009977 1.7514254894399315 L5.790539576010104 1.7725094734400457 L5.764959742010063 1.8297152844399918 L5.7355041750099645 1.86692231544 L5.732248560009992 1.8791179534400229 L5.745632756010025 1.9084184904399777 L5.766148300010087 1.927797153439947 L5.772401148009976 1.9462973154399705 L5.743048935010023 1.972755649440053 L5.602799097010006 2.0594170254400055 L5.557220484010031 2.105047315440011 L5.532157414010015 2.1251494474399735 L5.509471461010037 2.1274748874399947 L5.498826115010047 2.1160543954399955 L5.4866821540100545 2.0660832854400226 L5.479085719010072 2.0528541184399316 L5.451387151010067 2.015492058439982 L5.448751653010049 2.013580030440046 L5.44027671801004 2.011564649440011 L5.437331161010036 2.008877474439977 L5.437382838009967 2.0051050954399514 L5.441516952009977 1.9962167484399416 L5.441930363009988 1.9935812514399274 L5.432215194010041 1.982574171440028 L5.382244084009983 1.9401994964400089 L5.371908798010054 1.9346701184400175 L5.347930933010048 1.9477959324399805 L5.341626409010047 1.9845378754399619 L5.346328964010013 2.0270675784400183 L5.355320663010048 2.0579700854399263 L5.377903264010001 2.101740024440012 L5.380900497010003 2.12318574343994 L5.371908798010054 2.1489206074399405 L5.357025986010029 2.167420769439964 L5.3379057060100195 2.1787895844400325 L5.315839869010034 2.1822519054399905 L5.291965357010042 2.176980909439955 L5.257135442010082 2.2881369154399565 L5.2163068302767215 2.4184301958545475 L5.215590839010048 2.4182313104400137 L5.193333352010001 2.411883654440011 L5.164524758010003 2.3858826774399873 L5.121678078010035 2.3325786414400014 L5.105686867010007 2.3210633414400164 L5.097752297010032 2.3125184194400177 L5.094334328010035 2.301247260439972 L5.096612974010014 2.290789904440011 L5.100600604009998 2.280332547440004 L5.102390969010031 2.2700379504400203 L5.097752297010032 2.259987495440022 L5.092055682009999 2.2556743444400027 L5.089288755010017 2.257546088439973 L5.087254250010034 2.261493029440011 L5.084161802010016 2.2636902944400177 L5.076267922010032 2.2605164664400164 L5.073989276009996 2.254128120440022 L5.076023781010036 2.2489197864399912 L5.080662453010035 2.2494080684399833 L5.068699563010028 2.2312195914400164 L5.062189146010013 2.227598172440004 L5.052749042009992 2.2357361934399833 L5.046604836010005 2.2357361934399833 L5.022434914010006 2.2083110624400106 L5.006525083010018 2.1941102164400164 L4.994724953010035 2.187966010439972 L4.991469745009994 2.1836121694400177 L4.988987649009999 2.174049995440022 L4.984226906010036 2.1643657504400053 L4.974298521010013 2.160052599439986 L4.967991555010002 2.1556580684399833 L4.963068052010016 2.1456483024399873 L4.9565576360100465 2.1258729114399912 L4.95037274001001 2.1258729114399912 L4.946059589010048 2.1408875604400137 L4.943821633010003 2.1311219354400137 L4.9428857610100465 2.0960877554399886 L4.937921568010012 2.078102729439969 L4.92734214101003 2.074115099439986 L4.917698586010005 2.0820903594400093 L4.91562339101003 2.099831245440022 L4.910130227010001 2.0866883414400164 L4.911839211010005 2.0773703074399705 L4.915501320010009 2.0686219354400137 L4.91562339101003 2.0576356074400124 L4.911839211010005 2.047096870440022 L4.907688820010009 2.0414002554399886 L4.895725930010002 2.030983588439973 L4.874445005010017 2.003639838439973 L4.859796568010012 1.9925721304399886 L4.840509458010018 1.9899679634399732 L4.842869485010027 1.9789816354399719 L4.838556333010018 1.9707215444400177 L4.830011412010009 1.965065620440022 L4.820001646010013 1.9620545524399873 L4.829563820010009 1.942889513440015 L4.834650083010018 1.9291769484400234 L4.833999042009992 1.916156115439982 L4.826878274009999 1.8993917924400208 L4.796808287010009 1.853656115439982 L4.792088235010027 1.8422628854399719 L4.7827295110100465 1.8102804634399732 L4.761000995009994 1.783343615439982 L4.736180031010036 1.7593364534400067 L4.717625344010031 1.736102404440011 L4.704563820010009 1.705299995440022 L4.696507180010002 1.6733989534400067 L4.696140969010031 1.6613546824399705 L4.698500995009994 1.6498800734400234 L4.696507180010002 1.639910997440019 L4.678562844010031 1.6077251254400053 L4.675999367010007 1.595233263440015 L4.681329771010013 1.576393745440022 L4.693089211010005 1.558123888440015 L4.704848651009996 1.5513286414400014 L4.71640464101003 1.58363658343999 L4.730808938010028 1.5899028594400093 L4.746922219010031 1.58754283343999 L4.758559589010048 1.5778585884399732 L4.786961281010036 1.592588406440008 L4.8256982610100465 1.5728130164400014 L4.859959328010035 1.5360291614399912 L4.874689146010013 1.4995708284400067 L4.872776711010005 1.4791443964399846 L4.867405617010007 1.4666118444400027 L4.858860695010009 1.4577414014400247 L4.847345396010013 1.4481385364399912 L4.818089211010005 1.4143250604400137 L4.806370461010005 1.4071229114399912 L4.806370461010005 1.399676622440019 L4.8335107610100465 1.402565620440022 L4.842055682009999 1.4011414664400164 L4.854750995009994 1.3935324174400208 L4.854750995009994 1.386004747440019 L4.848973000010034 1.3831971304399886 L4.846043313010028 1.3802674434399833 L4.843968117010007 1.376849474439986 L4.840509458010018 1.3723735624400106 L4.848484719010031 1.3691997344400093 L4.850844745009994 1.36879283343999 L4.854750995009994 1.3587016874400106 L4.863214537010009 1.364316922440004 L4.874689146010013 1.3750184194400177 L4.881443703010035 1.3791688104400137 L4.89023276601003 1.3816102164400164 L4.897923195010009 1.3813660754400203 L4.912449563010028 1.3791688104400137 L4.914036477010001 1.375221870440022 L4.926284198009995 1.3584168574400124 L4.9292138860100465 1.355609240439982 L4.927749042009992 1.3281841094400093 L4.9292138860100465 1.3177674434399833 L4.932102883010003 1.315936388440015 L4.95037274001001 1.2972596304399886 L4.9546045110100465 1.2879822864399912 L4.956394875010034 1.279193224439986 L4.9565576360100465 1.25941783343999 L4.960789406010036 1.254046740439982 L4.9702295110100465 1.2494894484400234 L4.97966961501001 1.248187365439982 L4.983860695010009 1.2525818964399846 L4.988865578010035 1.2890402294399692 L4.991306985010027 1.2972596304399886 L5.001194680010002 1.3055604114399912 L5.017592792009992 1.3144715444400177 L5.035496438010028 1.3216736934399833 L5.049656594010031 1.3246033804399886 L5.061131203010035 1.3310324174400208 L5.069676125010034 1.3461691354399719 L5.087254250010034 1.393817247440019 L5.097019875010034 1.4070008414400164 L5.109593117010007 1.4165223254400203 L5.124729836010005 1.4201844354400137 L5.129490578010035 1.418190620440022 L5.140110695010009 1.4150574824400124 L5.150852883010003 1.4155050734400234 L5.158624693010012 1.4297466094400093 L5.1655420110100465 1.4351177034400067 L5.174412453010035 1.43910533343999 L5.183079445010009 1.4406515574399705 L5.196751320010009 1.4406515574399705 L5.196751320010009 1.4344666614399912 L5.181411151009996 1.4311300734400234 L5.167413755010017 1.4229920524399873 L5.156264667009992 1.411883654440011 L5.14959149001001 1.399676622440019 L5.199558938010028 1.4091981074400124 L5.22617026601003 1.4188416614399912 L5.243138039010006 1.4380473914400014 L5.267063820010009 1.450946154440011 L5.272475604009998 1.4580262324400124 L5.273411477010001 1.472878120440022 L5.276585305010002 1.4834168574400124 L5.282892271010013 1.4907410754400203 L5.292942727010001 1.495868029440011 L5.303725604009998 1.489764513440015 L5.314874693010012 1.4958273384399732 L5.323582375010034 1.509539904440011 L5.327122414010006 1.526629747440019 L5.333999042009992 1.5377381464399846 L5.349542662010009 1.5416443964399846 L5.365737323009995 1.5371684844400093 L5.374933287010009 1.523211779440011 L5.347019875010034 1.5234559194400177 L5.310276711010005 1.4791443964399846 L5.292942727010001 1.4822368444400027 L5.241551125010034 1.417743029440011 L5.231459979009998 1.4102153594400093 L5.216730162010009 1.40199595843999 L5.127862974010014 1.386004747440019 L5.106215839010048 1.3775005164400014 L5.088963235010027 1.363055529440011 L5.077407245009994 1.343890490439982 L5.073216164010006 1.3211854114399912 L5.051446958010018 1.2776063104400137 L5.045099302010016 1.250791531440008 L5.060236021010013 1.235858263440015 L5.049412453010035 1.2288188754400053 L5.037368182009999 1.2190125604400137 L5.026219094010031 1.207171740439982 L5.017999693010012 1.1942322864399912 L5.013605162010009 1.1777527944400177 L5.016575539010006 1.1683533804399886 L5.022150083010018 1.161639513440015 L5.025486672010032 1.1532980424400208 L5.024021828010035 1.140765490439982 L5.018284524009999 1.1375916614399912 L5.009251320010009 1.1354757764400247 L4.998142922010032 1.1259542924400208 L4.993260110010027 1.114764513440015 L4.992202167009992 1.105243029440011 L4.989028339010048 1.0974712194400027 L4.97771649001001 1.0918152944400177 L4.981785500010034 1.1010519484400234 L4.982599302010016 1.126239122440019 L4.987644875010034 1.1358826774399873 L5.000950539010006 1.1445089794399692 L5.005955422010032 1.1454855424400208 L5.006321633010003 1.1484966094400093 L5.005629901009996 1.181414904440011 L5.0073388860100465 1.1901632764400247 L5.021214211010005 1.2226746694400177 L5.022556985010027 1.2331320264400247 L5.017999693010012 1.2426535104399719 L5.011814797010032 1.2426535104399719 L4.992893899009999 1.2109966094400093 L4.980727557009999 1.195452990439982 L4.970880552010016 1.187396349439986 L4.955296242010007 1.1873149694400027 L4.941990578010035 1.1958598914400014 L4.932713235010027 1.2114442004400203 L4.9292138860100465 1.2324402944400177 L4.923273130010017 1.2477804634399732 L4.908380552010016 1.2595805944400027 L4.889581724010014 1.26723033343999 L4.871556008010003 1.2699972604399719 L4.863011086010005 1.2666199824400124 L4.859308287010009 1.2588074824400124 L4.859104836010005 1.2497335884399732 L4.861017271010013 1.2426535104399719 L4.86679526601003 1.235858263440015 L4.895725930010002 1.2215760364399912 L4.899632180010002 1.2248719354400137 L4.902317727010001 1.2265402294399692 L4.909397805010002 1.2290223254400203 L4.910618508010003 1.1961854114399912 L4.90545086501001 1.165789904440011 L4.888889992010007 1.1117127554399886 L4.881443703010035 1.1117127554399886 L4.874445005010017 1.1259949824400124 L4.879327818010012 1.1351502554399886 L4.888849302010016 1.1429627554399886 L4.895725930010002 1.1532980424400208 L4.894301776009996 1.1710389274399873 L4.886570656010036 1.1852804634399732 L4.881687844010031 1.1970805944400027 L4.888889992010007 1.2079041614399912 L4.888889992010007 1.2153504504400203 L4.885756854009998 1.2175477164400164 L4.882298195010009 1.2191346304399886 L4.874689146010013 1.2215760364399912 L4.87029461501001 1.2135193964399846 L4.864272479009998 1.2090027944400177 L4.85857586501001 1.2057068964399846 L4.854750995009994 1.2016785754400203 L4.851495787010009 1.192889513440015 L4.853204771010013 1.1918722604399719 L4.857192401009996 1.1921570914400164 L4.861017271010013 1.187396349439986 L4.871759458010018 1.1682313104400137 L4.870579445010009 1.1587505164400014 L4.854750995009994 1.1532980424400208 L4.859552427010016 1.165789904440011 L4.857395852010001 1.171649279440011 L4.852065448009995 1.1751079374400106 L4.847345396010013 1.1805604114399912 L4.833673521010013 1.2079041614399912 L4.817600930010002 1.2102641874400106 L4.808811867010007 1.1992371694400177 L4.799534524009999 1.1669699174400208 L4.792088235010027 1.1743755164400014 L4.791111672010032 1.187274279440011 L4.777317727010001 1.2073345004400053 L4.759129250010034 1.2246277944400177 L4.744887714010048 1.2290223254400203 L4.735691750010034 1.2122173124400106 L4.725275083010018 1.1530539014400247 L4.717625344010031 1.1328309194400177 L4.721409524009999 1.126035672440004 L4.72381024001001 1.1191590444400177 L4.717625344010031 1.1191590444400177 L4.717625344010031 1.1259542924400208 L4.710179055010002 1.1259542924400208 L4.710179055010002 1.1054871694400177 L4.703953469010031 1.1054871694400177 L4.700128599010014 1.1300233024399873 L4.71835776601003 1.1796652294399692 L4.7280420110100465 1.2275574824400124 L4.746800149009999 1.2428976514400247 L4.75115399001001 1.25941783343999 L4.72381024001001 1.3177674434399833 L4.719822610010027 1.3091411414400014 L4.712661151009996 1.3047059194400177 L4.704319680010002 1.3015320914400164 L4.702447935010042 1.3005148384399732 L4.696507180010002 1.2972596304399886 L4.67343589101003 1.2691020784400067 L4.662368182009999 1.262510281440008 L4.667739276009996 1.2503032504400053 L4.666966164010006 1.2324402944400177 L4.662205422010032 1.214373888440015 L4.655491555010002 1.2016785754400203 L4.648126646010013 1.2072938104400137 L4.6440576360100465 1.2133973254400203 L4.64218589101003 1.2205180944400027 L4.641290708010018 1.2290223254400203 L4.636652037010009 1.2195008414400164 L4.625747089010048 1.2057068964399846 L4.621352557009999 1.1942322864399912 L4.620782896010013 1.1801535104399719 L4.628188495009994 1.1464621044399692 L4.621352557009999 1.129046740439982 L4.592137063010028 1.090065620440022 L4.580418313010028 1.0775330684399833 L4.595432961010005 1.078265490439982 L4.606378599010014 1.081561388440015 L4.616225604009998 1.0827820914400164 L4.628188495009994 1.0775330684399833 L4.611831073009995 1.0648377554399886 L4.606297219010031 1.054461779440011 L4.607762063010028 1.0195089794399692 L4.545668964010048 1.0024598254400203 L4.550877297010032 0.9870789664400164 L4.553155943010012 0.982562365439982 L4.546564146010013 0.9817485624400106 L4.543146177010016 0.9832947864399912 L4.538833026009996 0.9887879504400203 L4.530613625010034 0.9834168574400124 L4.522923195010009 0.9839458284400067 L4.515598977010001 0.9870382764400247 L4.508396828010035 0.9887879504400203 L4.49960776601003 0.9837830684399833 L4.493260110010027 0.9720643184399833 L4.484226906010036 0.9478130164400014 L4.498468443010012 0.9362977164400164 L4.503758156010036 0.9181906204400221 L4.502659524009999 0.8976014274399873 L4.497898781010036 0.8789246694400177 L4.490452492010007 0.8789246694400177 L4.489028339010048 0.8950379504400203 L4.493015969010031 0.9156678334399899 L4.492405617010007 0.9299907504400053 L4.477390969010031 0.9273052034400067 L4.460626646010013 0.9455750604400137 L4.429946307009999 0.905780138440015 L4.402277037010009 0.9062277294399692 L4.382745787010009 0.8941834584399899 L4.362766945010009 0.851702990439982 L4.347019875010034 0.8379497344400093 L4.347019875010034 0.831113797440004 L4.354506854009998 0.831113797440004 L4.354506854009998 0.8242778594400093 L4.339695656010036 0.8199647084399899 L4.330336932009999 0.810687365439982 L4.322524432009999 0.799619656440008 L4.312270526009996 0.7901795524399873 L4.320245787010009 0.8068624954400221 L4.321995461010005 0.8199647084399899 L4.315688495009994 0.8300558544399692 L4.299290383010003 0.8379497344400093 L4.284275735010027 0.8403911414400014 L4.274143899009999 0.8365662714399846 L4.254571958010018 0.813739122440019 L4.2475732610100465 0.797910672440004 L4.243585630010017 0.7786235624400106 L4.238255227010001 0.7623475214399846 L4.106866880010017 0.6939881464399846 L4.054539406010036 0.6825135364399912 L4.029148781010036 0.6646912714399846 L4.0249170110100465 0.6591981074400124 L4.023655617010007 0.6494324824400124 L4.026463235010027 0.6437765574399705 L4.030369485010027 0.638202013440015 L4.032322610010027 0.628802599439986 L4.03281089101003 0.6081320264400247 L4.031264667009992 0.5907166614399912 L4.023289406010036 0.5797303334399899 L4.004409198009995 0.5778992794400111 L4.004409198009995 0.570452990439982 L4.025852883010003 0.5689067664400014 L4.042250995009994 0.5601990834399899 L4.053562844010031 0.5463644484400234 L4.059666360010027 0.5295187454400221 L4.065891945010009 0.5295187454400221 L4.074721698009995 0.5430278594400093 L4.084446633010003 0.542498888440015 L4.100600604009998 0.5295187454400221 L4.120945656010036 0.5223572864399912 L4.129978860010027 0.517108263440015 L4.134780292009992 0.5083598914400014 L4.128391945010009 0.5115337194400027 L4.114964211010005 0.5125916614399912 L4.106866880010017 0.5151958284400067 L4.100193703010035 0.5204041614399912 L4.0874170110100465 0.5341574174400208 L4.083225930010002 0.5369243444400027 L4.075209979009998 0.5339132764400247 L4.072605813010028 0.5276063104400137 L4.06951336501001 0.5224386674400208 L4.059666360010027 0.5226828074399705 L4.053481464010048 0.5278911414400014 L4.041274432009999 0.5460389274399873 L4.035496438010028 0.5499451774399873 L4.033136412010009 0.5520610624400106 L4.029962583010018 0.556781115439982 L4.024347349010014 0.5615011674400208 L4.014663104009998 0.5636170524399873 L4.0053857610100465 0.5641053334399899 L3.997980162010009 0.5659770784400067 L3.9930973490100143 0.5703309194400177 L3.991429055010002 0.5778992794400111 L3.9975732610100465 0.5847352164400164 L4.010472024009999 0.5885193964399846 L4.022150083010018 0.5971456984400234 L4.0249170110100465 0.618223172440004 L4.020359719010031 0.6305115834399899 L4.010024432009999 0.647520047440004 L3.9960677270100007 0.6594015574399705 L3.9805647970100324 0.6560649694400027 L3.974054380010017 0.6527283804399886 L3.949803078010035 0.6461365834399899 L3.9487451360100465 0.6417420524399873 L3.943862323009995 0.6336854114399912 L3.9386539900100104 0.630999865439982 L3.936131203010035 0.6427999954400221 L3.919163430010002 0.648333849439986 L3.8388004740100143 0.6342550734400234 L3.8126774270100157 0.6393820264400247 L3.8064111510099963 0.6393820264400247 L3.8064111510099963 0.6325460884399732 L3.781834328010035 0.6401144484400234 L3.7253157740099994 0.634661974439986 L3.702814146010013 0.6461365834399899 L3.693943703010035 0.6393820264400247 L3.684666360010027 0.640155138440015 L3.675022805010002 0.6439393184399833 L3.6576888200100086 0.6472352164400164 L3.6452376490099994 0.651873888440015 L3.6376285990100143 0.6529725214399846 L3.6301416200099936 0.6551697864399912 L3.6281071150100104 0.6598084584399899 L3.627456073009995 0.6645285104399719 L3.624241555010002 0.6666443964399846 L3.6210677270100007 0.670062365439982 L3.5929508650100104 0.6871522084399899 L3.590916360010027 0.696104031440008 L3.5918929220100324 0.7046489534400067 L3.5899397970100324 0.7112407504400053 L3.5792789900100104 0.7144145784400067 L3.5966129740100143 0.7435486934399833 L3.6003157740099994 0.755389513440015 L3.5871728700099936 0.746234240439982 L3.5710188990099994 0.7302430294400111 L3.557469094010031 0.7114442004400203 L3.551975930010002 0.6939881464399846 L3.545750344010031 0.6939881464399846 L3.547133807009999 0.6997661414400014 L3.5489241720100324 0.7035096304399886 L3.551975930010002 0.7082296824399705 L3.551975930010002 0.7144145784400067 L3.545750344010031 0.7144145784400067 L3.5529524920100073 0.7392355424400208 L3.548273130010017 0.7607606074400124 L3.5336653830100033 0.7712586544400111 L3.510960305010002 0.7628358024399873 L3.4653060080100033 0.7708924434399833 L3.4509424010099963 0.7782980424400208 L3.4563948750100337 0.7901795524399873 L3.4563948750100337 0.796405138440015 L3.4452864770100007 0.7927023384399732 L3.4381657080100183 0.7879822864399912 L3.4314925310100364 0.7859070914400164 L3.4216048360100046 0.7901795524399873 L3.4186751490099994 0.7868836544400111 L3.4174951360100465 0.7852153594400093 L3.415135110010027 0.7843201774399873 L3.4085433130100284 0.783343615439982 L3.4085433130100284 0.7901795524399873 L3.411350930010002 0.7935975214399846 L3.412937844010031 0.798724474439986 L3.4153792500100337 0.8038514274399873 L3.3982080260099963 0.800921740439982 L3.381931985010027 0.8092225214399846 L3.368585630010017 0.8234640574399705 L3.360122089010048 0.8379497344400093 L3.3558903180100117 0.8572368444400027 L3.360122089010048 0.9167664664400164 L3.362278664010006 0.9225037714399846 L3.3669580260099963 0.9255148384399732 L3.371678078010035 0.9275493444400027 L3.373793964010048 0.930723172440004 L3.3728174010099963 0.937030138440015 L3.370782896010013 0.9424012324400124 L3.3676090680100117 0.9478130164400014 L3.3653304220100324 0.9555848254400203 L3.3613427920099923 0.963926297440004 L3.3561344580100183 0.971942247440019 L3.350193703010035 0.9788188754400053 L3.346206073009995 0.981707872440019 L3.3337549010099963 0.9876893184399833 L3.321140969010031 0.9902934844400093 L3.3204085470100324 0.994036974439986 L3.3216292500100337 0.9985128854399719 L3.319187844010031 1.0024598254400203 L3.302127348010032 1.0069271444399774 L3.28583530601 1.0150081864399922 L3.298455365010028 1.0274683444400026 L3.3325379350100377 1.0351183124400123 L3.3647949550100122 1.0222696194399887 L3.3948409880100314 1.0072178944400108 L3.406342043010028 1.0009774764400063 L3.410052391009998 0.9962074294399841 L3.414876841009999 0.9962048564400234 L3.4152487130100155 1.0046406674399933 L3.4115388420100032 1.0119776094399882 L3.377780856010048 1.0380296784399903 L3.3377500240100346 1.073978122439975 L3.3184728090100464 1.081320754439993 L3.2858476260099962 1.0919754324399733 L3.2480279870100333 1.1011706534400005 L3.240620555009997 1.1107087964399867 L3.2423649270100157 1.1217225214399846 L3.2404118020100157 1.1293722604399719 L3.237278664010006 1.1328309194400177 L3.2321517110100046 1.134906115439982 L3.2209212420100073 1.1372254504400203 L3.2167708520100007 1.1389751254400053 L3.2015934430100117 1.1530539014400247 L3.1945133650100104 1.158099474439986 L3.1853987810100364 1.1601339794399692 L3.1800276880100284 1.1643657504400053 L3.1703434430100117 1.183123888440015 L3.165257180010002 1.187396349439986 L3.163181985010027 1.1912212194400027 L3.1419417500100337 1.2094503854399719 L3.071344419010046 1.2555522734399815 L3.031264667010049 1.2817567004400203 L2.9863021020100007 1.304909370440022 L2.916599953010035 1.3405945914400164 L2.8871810080100033 1.3524761014399829 L2.839410826010038 1.3587016874400106 L2.8305403830100033 1.3576030554399736 L2.817682310010042 1.3530864534400067 L2.8121077660100298 1.3524761014399829 L2.803318703010035 1.3548768184399833 L2.7858626490099994 1.3632182894399776 L2.777928078010035 1.3655376254400053 L2.7506657080100183 1.3587016874400106 L2.7374821150100104 1.3501567664400014 L2.731419289010006 1.3431580684399833 L2.736383482010041 1.3382752554399886 L2.7263737160100447 1.3421815054399886 L2.725885435010042 1.3465760364399912 L2.727390969010031 1.3519471304399886 L2.7233626490099994 1.3587016874400106 L2.705133482010041 1.3705018184399833 L2.641901060010042 1.432879747440019 L2.6339664900100104 1.4511902944400177 L2.637303078010035 1.5470561804399736 L2.636041685010042 1.5586528594400093 L2.6336816590100227 1.56215220843999 L2.6277409040100395 1.5709819614399763 L2.643976255010017 1.5786723914400014 L2.651219094010031 1.597796740439982 L2.6560612160100447 1.617327990439982 L2.6649723490100143 1.626239122440019 L2.679742857010041 1.6292908804399886 L2.717869485010027 1.6458924434399833 L2.729547544010046 1.654193224439986 L2.7632796410100298 1.6642436804399736 L2.784397805010002 1.7002137324400124 L2.7988021020100007 1.742083849439986 L2.8121077660100298 1.7702007114399763 L2.9076888200100086 1.8459656854400137 L2.9683577660100298 1.9007752554399886 L3.0597477400100104 2.016416531440008 L3.1063785990100143 2.1012553984399815 L3.1186263200100086 2.130755724439986 L3.117486998010037 2.1500835234399815 L3.1021061380100434 2.188291531440008 L3.0942936380100434 2.196714383439975 L3.082086607010041 2.1996033804399886 L3.0553532080100183 2.2009868444400027 L3.047174498010037 2.2025330684399833 L2.976617857010041 2.2289002554399886 L2.913629576010038 2.2288188754400053 L2.901463235010027 2.2357361934399833 L2.8893375830100183 2.2301616484399815 L2.8624821150100104 2.223895372440019 L2.853082701010038 2.2152690704399802 L2.8462467630100434 2.2152690704399802 L2.837335630010017 2.219663601439983 L2.805271828010035 2.2289002554399886 L2.805271828010035 2.2357361934399833 L2.8181705910100447 2.234271349439986 L2.8285872580100033 2.231707872440019 L2.8376204610100046 2.2278423124400106 L2.8462467630100434 2.2227153594400093 L2.853082701010038 2.2289002554399886 L2.781183287010009 2.2523377554399886 L2.7545719580100183 2.2715027944400177 L2.7506657080100183 2.297788601439983 L2.7677555520100157 2.3261089144399776 L2.7645817240100143 2.3352641874400106 L2.739801451010038 2.3387635364399912 L2.7328841330100033 2.340757351439983 L2.7250309430100117 2.345477404440011 L2.7185612160100447 2.3511333284400067 L2.715875669010046 2.3558533804399886 L2.7133121930100117 2.3668803984399815 L2.7067610860100046 2.37074595843999 L2.6977278830100033 2.373187365439982 L2.6879622580100033 2.3797791614399912 L2.683649107010041 2.3880799434399833 L2.6840153180100117 2.3950379504400203 L2.683038755010017 2.401182156440008 L2.674900735010027 2.407041531440008 L2.6673323750100337 2.407651883439975 L2.6484114770100007 2.401873888440015 L2.637669289010006 2.4002055944400027 L2.515314146010013 2.415464383439975 L2.508071307009999 2.416807156440008 L2.399021828010035 2.4370708284400067 L2.3187809430100117 2.4399598254400203 L2.298151060010042 2.434385281440008 L2.2913558130100284 2.434385281440008 L2.286188169010046 2.4402039664400164 L2.2810612160100447 2.4421570914400164 L2.2759342630100434 2.4402039664400164 L2.2708480000100337 2.434385281440008 L2.2640120630100284 2.434385281440008 L2.2503401880100284 2.4478130164400014 L2.2390690290100395 2.4409770784400067 L2.2230778180100117 2.4144878204399802 L2.2177067240100143 2.4100932894399776 L2.210382505010017 2.4054139274399873 L2.2015934430100117 2.4017518184399833 L2.1920719580100183 2.4002055944400027 L2.1824284040100395 2.3970317664400014 L2.1819808130100284 2.3899516874400106 L2.186578794010046 2.382952990439982 L2.1920719580100183 2.3797791614399912 L2.196140969010031 2.3753846304399886 L2.195001646010013 2.3539002554399886 L2.1957747580100033 2.345599474439986 L2.2009830910100447 2.3385193964399846 L2.212213560010042 2.3300151644399776 L2.2161605000100337 2.325132351439983 L2.219781919010046 2.311785997440019 L2.2205550310100364 2.2933533804399886 L2.216486021010013 2.2769145784400067 L2.190973326010038 2.261493029440011 L2.191339537010009 2.2427348914400014 L2.2019596540100395 2.211851101439983 L2.1970768410100447 2.19887095843999 L2.160984719010031 2.160052599439986 L2.157526060010042 2.1580180944400027 L2.149957701010038 2.1510600864399763 L2.1452376490099994 2.143613797440004 L2.157444680010002 2.136615099439986 L2.159397805010002 2.1280701774399873 L2.1604964380100284 2.1179383414400164 L2.1644026880100284 2.1094341094400093 L2.1658268410100447 2.0978374304399736 L2.1564274270100157 2.083880724439986 L2.143162453010035 2.071470242439979 L2.1330306170100073 2.0644715444400177 L2.1330306170100073 2.0576356074400124 L2.1404769060100364 2.0576356074400124 L2.1404769060100364 2.0507996694400177 L2.092096373010037 2.002988797440004 L2.0822086770100157 1.9974549434399833 L2.0746403180100117 1.9952576774399873 L2.0708561380100434 1.99183970843999 L2.0722396020100007 1.9824809844400093 L2.0769596540100395 1.9735698514399829 L2.0843245630100284 1.9673442664400014 L2.0942936380100434 1.9651063104400137 L2.1063785990100143 1.968198758439975 L2.1015364770100007 1.9596131464399846 L2.0903060080100033 1.9508647734399815 L2.077692076010038 1.9442322864399912 L2.0688216330100033 1.941546740439982 L2.0673160990100143 1.9368266874400106 L2.0859114770100007 1.9067973914400014 L2.0750065290100395 1.9075298124400106 L2.065281594010031 1.9063091094400093 L2.0573063330100183 1.903501492439979 L2.0511214380100284 1.8993511014399829 L2.0545394060100364 1.898577990439982 L2.0573470240099994 1.8987000604400137 L2.058893248010037 1.8976014274399873 L2.0585677270100007 1.8931255164400014 L2.035455748010037 1.8887309844400093 L2.0260563330100183 1.8744080684399833 L2.0267073750100337 1.8591899694400027 L2.034031594010031 1.8521912714399846 L2.039646828010035 1.8499940054399886 L2.0446517110100046 1.84535533343999 L2.0513248880100434 1.840635281440008 L2.0619856950100086 1.8385193964399846 L2.074518248010037 1.8385193964399846 L2.084568703010035 1.836729031440008 L2.090875669010046 1.8308289664400164 L2.092096373010037 1.81801158343999 L2.0859114770100007 1.81801158343999 L2.0632877790100395 1.8308289664400164 L2.0562483910100298 1.804136258439975 L2.0585677270100007 1.742327990439982 L2.0369205910100447 1.7822449824400124 L2.0217024920100073 1.7956727164400164 L2.0101871930100117 1.776426297440004 L2.003961607010041 1.776426297440004 L2.0061995630100284 1.7871277944400177 L2.0099837420100073 1.7949402944400177 L2.0158431170100073 1.8004741484399815 L2.024469419010046 1.80433970843999 L2.024469419010046 1.8112163364399763 L1.979099953010035 1.8112163364399763 L1.969781919010046 1.8091004504400203 L1.9573307480100368 1.7997010364399912 L1.945001646010013 1.7975444614399763 L1.9197330910100447 1.7901795524399873 L1.9147688990099994 1.774473172440004 L1.9122054220100324 1.759906115439982 L1.8940983260100381 1.755999865439982 L1.903986021010013 1.7600688754400053 L1.9069157080100183 1.7636089144399776 L1.9077702010100381 1.7702007114399763 L1.8945052270100007 1.7745545524399873 L1.8969466330100033 1.7825298124400106 L1.9146061380100434 1.7975444614399763 L1.9319401230100368 1.8066590444400177 L1.9350325700100086 1.807798367439979 L1.9334456560100364 1.8166688104400137 L1.930515969010031 1.82387095843999 L1.9288883650100104 1.829852404440011 L1.9474430520100157 1.864520372440019 L1.9377181170100073 1.890521349439986 L1.915460630010017 1.9118022734399815 L1.8940983260100381 1.927264513440015 L1.8897444850100271 1.919126492439979 L1.8889713730100368 1.9143250604400137 L1.8906803570100408 1.9108257114399763 L1.8940983260100381 1.9067973914400014 L1.8940983260100381 1.8993511014399829 L1.880100930010002 1.8984966094400093 L1.866184914010006 1.8993511014399829 L1.866184914010006 1.9067973914400014 L1.8767643410100447 1.909686388440015 L1.8826644060100364 1.9157085234399815 L1.8940983260100381 1.9341004504400203 L1.8805892110100046 1.9391460234399815 L1.8747298360100046 1.9384136014399829 L1.866184914010006 1.9341004504400203 L1.8734684430100117 1.9460633414400164 L1.8804671410100298 1.954608263440015 L1.886652037010009 1.954608263440015 L1.8999983910100298 1.947406115439982 L1.9146061380100434 1.941546740439982 L1.9188785990100143 1.95277720843999 L1.9146061380100434 1.9961528594400093 L1.9166813330100183 2.0078309194400177 L1.916966164010006 2.0146668574400124 L1.9146061380100434 2.0234559194400177 L1.9108219580100183 2.0283387324400124 L1.8987369980100368 2.0381043574400124 L1.8940983260100381 2.04457408343999 L1.886652037010009 2.04457408343999 L1.8781071150100104 2.038267117439979 L1.8459212420100073 2.02113658343999 L1.838841164010006 2.0200379504400203 L1.833429380010017 2.00746470843999 L1.8209782080100183 2.002866726439983 L1.797906919010046 2.002988797440004 L1.7151839380100284 1.979998888440015 L1.6880436380100434 1.9824809844400093 L1.6839339380100284 1.9709656854400137 L1.6772200700100086 1.9608745394399776 L1.669244810010042 1.9530620394399776 L1.661350930010002 1.9483826774399873 L1.6382389510100381 1.9541199824400124 L1.608697935010042 1.9515565054399886 L1.5863590680100117 1.9420757114399763 L1.585016294010046 1.927264513440015 L1.5934798360100046 1.924619656440008 L1.612156594010031 1.914854031440008 L1.6233870630100284 1.9043152944400177 L1.5840804220100324 1.8929627554399886 L1.573094094010031 1.8961772734399815 L1.571954771010013 1.913592638440015 L1.5489241720100324 1.8972352164400164 L1.5372054220100324 1.8931255164400014 L1.5372054220100324 1.8862895784400067 L1.5437565290100395 1.8775005164400014 L1.5382633650100104 1.8691997344400093 L1.5290267110100046 1.8601258414400164 L1.5241438990099994 1.849058133439975 L1.5258528830100033 1.8326600214399846 L1.5303694850100271 1.8219585234399815 L1.5446517110100046 1.80433970843999 L1.5446517110100046 1.7975444614399763 L1.5375309430100117 1.792865099439986 L1.530247414010006 1.7910340444400177 L1.5231673360100046 1.792417508439975 L1.5166976100100271 1.7975444614399763 L1.5105534040100395 1.7975444614399763 L1.5030257350100271 1.7907085234399815 L1.5030257350100271 1.7832622344400093 L1.5123844580100183 1.7756938754400053 L1.5122623880100434 1.7684917264399829 L1.5041243670100073 1.7636902944400177 L1.4894352400100104 1.763446154440011 L1.4925276880100284 1.748187365439982 L1.493463560010042 1.731504422440004 L1.4992008650100104 1.722105008439975 L1.5166976100100271 1.728656115439982 L1.5141341330100033 1.7197449824400124 L1.5100651230100368 1.7135193964399846 L1.4962711770100157 1.7013530554399736 L1.5009098490100143 1.6939067664400014 L1.4992008650100104 1.67933970843999 L1.5030257350100271 1.667173367439979 L1.490818703010035 1.6721782504400053 L1.4850407080100183 1.670713406440008 L1.483250344010031 1.6716899694400027 L1.4832096540100395 1.6842632114399763 L1.4880110860100046 1.6981385364399912 L1.489557310010042 1.7055848254400203 L1.486261412010009 1.7087993444400027 L1.4788558130100284 1.7076600214399846 L1.473688169010046 1.704282742439979 L1.4705550310100364 1.69887095843999 L1.4695377790100395 1.6914246694400177 L1.466241880010017 1.6804383414400164 L1.4485823750100337 1.6562277294399692 L1.4416243670100073 1.6467469354400137 L1.4273421410100298 1.608905138440015 L1.421116555010002 1.598895372440019 L1.415013039010006 1.6143983024399873 L1.4137923360100046 1.622495633439975 L1.4142806170100073 1.63246470843999 L1.4037825700100086 1.6222108024399873 L1.403619810010042 1.6076844354400137 L1.401788755010017 1.5936870394399776 L1.386407896010013 1.5852641874400106 L1.386407896010013 1.5778178984399815 L1.3948714380100284 1.5827007114399763 L1.4026839380100284 1.5848979764399829 L1.4092757350100271 1.5835552034400067 L1.4142806170100073 1.5778178984399815 L1.421116555010002 1.5778178984399815 L1.4245345240099994 1.5807475864399763 L1.426731789010006 1.581927599439986 L1.434788430010002 1.5852641874400106 L1.4006901230100368 1.523211779440011 L1.378595396010013 1.495868029440011 L1.3687077010100381 1.480365099439986 L1.3659000830100183 1.461729031440008 L1.3596744980100368 1.461729031440008 L1.3539371930100117 1.4729188104400137 L1.351495787010009 1.4839458284400067 L1.3546696150100104 1.4923686804399736 L1.3659000830100183 1.495868029440011 L1.3597151880100284 1.5045350214399846 L1.3446598490100143 1.520770372440019 L1.3379459820100408 1.5300477164400164 L1.3317610860100046 1.5300477164400164 L1.3138167500100337 1.516416531440008 L1.235569680010002 1.4856548124400106 L1.2267806170100073 1.480243029440011 L1.1851139510100381 1.47035533343999 L1.1709944850100271 1.4685649694400027 L1.1603336770100157 1.462095242439979 L1.1642806170100073 1.4472840444400177 L1.180963560010042 1.4201844354400137 L1.1688785990100143 1.4238872344400093 L1.1554508650100104 1.4325135364399912 L1.1445052270100007 1.4444764274399873 L1.139947935010042 1.4580262324400124 L1.133763039010006 1.4609966094400093 L1.119969094010031 1.452410997440019 L1.0989730000100337 1.4344666614399912 L1.0842838730100368 1.4452495394399776 L1.0518538600100271 1.443255724439986 L1.0190169450100086 1.4331645784400067 L1.002781594010031 1.4201844354400137 L0.9965560080100033 1.4201844354400137 L0.9948470240099994 1.4383729114399912 L0.9697412290099976 1.4934673124400106 L0.9675846540100395 1.491636258439975 L0.9632308130100284 1.489438992439979 L0.9618473490100143 1.4890320914400164 L0.9618473490100143 1.495868029440011 L0.9556217630100434 1.495868029440011 L0.9649397970100324 1.4725932894399776 L0.9645735860100046 1.4652283804399886 L0.9556217630100434 1.4685649694400027 L0.9567610860100046 1.4603455684399833 L0.9583480000100337 1.4542420524399873 L0.9617659690100311 1.4502137324400124 L0.968683287010009 1.4481385364399912 L0.968683287010009 1.440610867439979 L0.9552555520100157 1.4417908804399886 L0.9380436380100434 1.4518006464399846 L0.9242496930100117 1.454282742439979 L0.9156233910100298 1.4513530554399736 L0.9028873880100434 1.4380067004400203 L0.8929183130100284 1.4344666614399912 L0.8929183130100284 1.427630724439986 L0.8980452660100298 1.4260845004400053 L0.9025618670100073 1.4223817004400203 L0.907200539010006 1.4201844354400137 L0.8956038600100271 1.3893006464399846 L0.8945866070100408 1.3753032504400053 L0.9003646020100007 1.3655376254400053 L0.9003646020100007 1.3587016874400106 L0.8945052270100007 1.3541850864399763 L0.8933659040100395 1.3491802034400067 L0.895725930010002 1.3437684194400177 L0.9003646020100007 1.3382752554399886 L0.9015446150100104 1.340879422440004 L0.9013004740100143 1.343646349439986 L0.9023177270100007 1.345477404440011 L0.907200539010006 1.3450298124400106 L0.9023177270100007 1.33168345843999 L0.9034977400100104 1.3214295524399873 L0.9115950700100086 1.314227404440011 L0.9277083520100007 1.310321154440011 L0.9042708520100007 1.3095887324400124 L0.892023130010017 1.3105652944400177 L0.8866927270100007 1.3140239534400067 L0.8707015160100298 1.3468201774399873 L0.8696842630100434 1.3524761014399829 L0.850193703010035 1.3507264274399873 L0.8350569850100271 1.3442567004400203 L0.8277327660100298 1.331317247440019 L0.8320866070100408 1.310321154440011 L0.815647805010002 1.3173198514399829 L0.7981917500100337 1.3226909454399802 L0.780491555010002 1.323748888440015 L0.7632389510100381 1.3177674434399833 L0.765070005010017 1.324359240439982 L0.7671858910100298 1.3385193964399846 L0.7693831560100364 1.3450298124400106 L0.7534733260100381 1.347430529440011 L0.7249495630100284 1.3620789664400164 L0.7120101100100271 1.3655376254400053 L0.6932112810100364 1.3604920524399873 L0.6788883650100104 1.3491802034400067 L0.6768131690100461 1.337420763440015 L0.6949202660100298 1.3307475864399763 L0.6949202660100298 1.3246033804399886 L0.6864567240100143 1.3212261014399829 L0.6818587420100073 1.3153667264399829 L0.6803938990099994 1.3073100864399763 L0.6812483910100298 1.2972596304399886 L0.671116555010002 1.304827990439982 L0.6695296410100298 1.317197781440008 L0.6651351100100271 1.329974474439986 L0.6465397320100408 1.3382752554399886 L0.6465397320100408 1.3450298124400106 L0.6507308130100284 1.3506043574400124 L0.6547184430100117 1.3574809844400093 L0.6580143410100447 1.365008654440011 L0.6601302270100007 1.3723735624400106 L0.6412907080100183 1.376401883439975 L0.6343733910100298 1.3761170524399873 L0.6260319190100461 1.3723735624400106 L0.6004378440100311 1.377093615439982 L0.5595035990100143 1.3661479764399829 L0.489475930010002 1.3382752554399886 L0.4532210470100324 1.3307475864399763 L0.4135481950100086 1.3307068964399846 L0.3741194850100271 1.336077990439982 L0.30344077400999936 1.3578471954399802 L0.273126646010013 1.3750184194400177 L0.24968914601001302 1.399473172440004 L0.23495932801003505 1.4344666614399912 L0.23227378101003637 1.475645047440004 L0.23931316901004607 1.5176372344400093 L0.262913430010002 1.5852641874400106 L0.262913430010002 1.5914897734399815 L0.2500553570100408 1.6046326774399873 L0.24395184101004475 1.6211528594400093 L0.23520346901003109 1.6296570914400164 L0.21451672201004612 1.618780232440038 L0.2207761890100528 1.595982781439993 L0.22573712601001716 1.5513343434399687 L0.17305300301009652 1.43669017844001 L0.1684796390100587 1.4049608494399948 L0.16163251201001572 1.3947030774400062 L0.14414004001005765 1.385556348439927 L0.13501915001006637 1.3842902764399767 L0.12295270301007122 1.3890703454399684 L0.11662234001005345 1.3887086114399736 L0.11104128501006016 1.3842902764399767 L0.10137779201002672 1.370156772439934 L0.09608095701000252 1.3645240414399993 L0.06807233101008592 1.3481684494399602 L0.058899764009993305 1.3384274424400147 L0.060036646010075856 1.3258959074400067 L0.06884747801007052 1.3187903984399796 L0.11437441501004741 1.2933655934399653 L0.15863527901007046 1.251430168439974 L0.18736737601008713 1.2367799004399913 L0.21563438401005897 1.2281757744399542 L0.24173098201006837 1.2154116954399896 L0.26384849501008034 1.1883590834399413 L0.27322776701001317 1.1589035164400272 L0.27617332401001704 1.1237635424399812 L0.27028221101002714 1.0540520354399447 L0.26234987801007037 1.0236662934399945 L0.24992169601009095 0.9978280764399656 L0.23320437101003222 0.9744703294400168 L0.20181093801002703 0.9396145764399577 L0.1929225920100066 0.9264629244399814 L0.18798749201005194 0.9123294204399386 L0.1891760510100653 0.8973690924399804 L0.19726341200998831 0.8887391284400294 L0.22702903700997012 0.8703423184399313 L0.23635663301010368 0.8596194594400188 L0.23651166201003093 0.8460027194400155 L0.228579330010092 0.8411451344399907 L0.22382509800999628 0.8365976084399662 L0.2335661060100449 0.8237560144399723 L0.2452191410100113 0.8154619484400101 L0.34836530101003405 0.773578199439946 L0.37828595500997153 0.7555431244399458 L0.3919892710100328 0.7332905024399494 L0.39278119401009803 0.7320045094399532 L0.38880210901001533 0.7225993984399892 L0.36301556901003096 0.6794495784399643 L0.34945050501002584 0.6705353934399412 L0.303975245010065 0.6551616554399615 L0.2580607340100016 0.6215461354400205 L0.23558148601009066 0.6115984224399327 L0.2297162110100146 0.6081877774400013 L0.22527203801007545 0.602038282439942 L0.22245567301001756 0.594157626439987 L0.21886416101006034 0.5865870284400287 L0.21191368101005992 0.5814710624399524 L0.20268943701006492 0.5815227384399648 L0.17276878301001375 0.5939509204400295 L0.17262489601003494 0.5828863634399895 L0.1704950200100086 0.4191037124399273 L0.16894472701008567 0.29921438943996037 L0.16785952201007603 0.216377067439943 L0.17044334401001038 0.19717927344002106 L0.17884076400997628 0.18320079843993398 L0.19752179401004355 0.1766637304399623 L0.25085187201003123 0.16942902943998916 L0.26576052300998754 0.16097993243999298 L0.2673624920100224 0.15284089443998283 L0.2627632900100707 0.15005036744002354 L0.25622622201009904 0.14808666243998658 L0.2519370780100303 0.1423247404400243 L0.2450124360100574 0.11488455543996423 L0.23289431201004618 0.09361970343999104 L0.23475466401006884 0.0843437834399694 L0.2460976400100492 0.0684532804399609 L0.2646753180100916 0.05287283644000951 L0.2831238050100069 0.050805779439961896 L0.34105308501005993 0.07367260043996993 L0.3827818040099942 0.10863170643997222 L0.3924194590100001 0.1121973804400298 L0.4004551440099817 0.10852835343994371 L0.410687077010067 0.11997468344004147 L0.4234769940100307 0.14408173944000424 L0.43409650101003194 0.15576061343997338 L0.4439408620100096 0.16035981544002453 L0.46143333401005293 0.1656824884399768 L0.48001101101002064 0.16886058944002258 L0.49329185501002826 0.16681936943998465 L0.49975140801007 0.15402945244000676 L0.5039371990100108 0.11565970143997362 L0.5110427090100416 0.10485932743994653 L0.5262614180100798 0.10728811944000682 L0.5415318040100203 0.11529796743997878 L0.549309107010032 0.1148328794399518 L0.5385481950100086 0.0773296174399789 Z M1.3044173360100046 2.3661072864399912 L1.314142271010013 2.3624451774399873 L1.3222396020100007 2.363421740439982 L1.3316390160100298 2.365700385439972 L1.3454329610100046 2.3661072864399912 L1.3331038600100271 2.376035672440004 L1.319757505010017 2.401873888440015 L1.3112532740099994 2.414528510439972 L1.3151595240099994 2.41957408343999 L1.3186995630100284 2.4275493444400027 L1.3112532740099994 2.4275493444400027 L1.2959131040099976 2.3822205684399833 L1.2975813990099994 2.3735535754400203 L1.2933903180100117 2.367897651439968 L1.2929834170100492 2.3648052034400067 L1.2975813990099994 2.359271349439986 L1.301365578010035 2.3593934194400177 L1.3038883650100104 2.360085151439968 L1.304946307009999 2.3619568964399846 L1.3044173360100046 2.3661072864399912 Z M1.9629866720100324 2.0923442664400014 L1.9765771670100492 2.0853455684399833 L1.994073912010009 2.0789979114399912 L2.0244287290099976 2.07191783343999 L2.037124042010049 2.0761902944400177 L2.0505517760099963 2.0779399694400027 L2.079075539010006 2.078102729439969 L2.067153339010048 2.099383654440011 L2.0593001490099994 2.108905138440015 L2.0480289900100104 2.1128520784400067 L2.037124042010049 2.1181824824400124 L2.0293929220100324 2.1196880164400014 L2.020725930010002 2.1159852164400164 L2.0143782740099994 2.11098033343999 L2.0088037290099976 2.1079692664400014 L2.0022933130100284 2.1064637324400124 L1.9930973490100143 2.1060161414400014 L1.9828841330100033 2.108213406440008 L1.977757180010002 2.1135845004400053 L1.974298521010013 2.1201356074400124 L1.9691715680100117 2.1258729114399912 L1.9412581560100364 2.140155138440015 L1.9272200700100086 2.1565532504400053 L1.9214013860100465 2.160052599439986 L1.9130192240100143 2.160052599439986 L1.9035791200099936 2.157936713439973 L1.8963362810100364 2.1552511674400208 L1.8940576360100465 2.153827013440015 L1.8664697450099936 2.1634705684399833 L1.860203469010031 2.1631043574400124 L1.8695621930100117 2.150124213439973 L1.8792464380100284 2.140155138440015 L1.8894189640100478 2.13246470843999 L1.9017073750100337 2.1275818964399846 L1.937758807009999 2.1220887324400124 L1.948094094010031 2.113014838439973 L1.954523130010017 2.1019471304399886 L1.9629866720100324 2.0923442664400014 Z M1.447768573009995 2.2562440054399886 L1.4596500830100183 2.262510281440008 L1.4900862810100364 2.259661974439986 L1.4962711770100157 2.2668234324399705 L1.5241438990099994 2.318337104439969 L1.5054671410100298 2.325946154440011 L1.4839827660100298 2.331927599439986 L1.4627425310100364 2.332008979439969 L1.4279118020100157 2.31215220843999 L1.385024432009999 2.3091004504400203 L1.3659000830100183 2.304665229439969 L1.3554427270100007 2.2957947864399912 L1.3313948750100337 2.269305529440011 L1.3121077660100298 2.257952990439982 L1.2702783390100478 2.2227153594400093 L1.247491880010017 2.175067247440019 L1.2392724790099976 2.167498888440015 L1.2370345240099994 2.1631043574400124 L1.229344094010031 2.1367371694400177 L1.233250344010031 2.1360454374400106 L1.2540836770100157 2.136004747440019 L1.2634424010099963 2.1333192004400203 L1.2631982610100465 2.1294129504400203 L1.275893573009995 2.1068299434399833 L1.2777653180100117 2.1060161414400014 L1.2803694850100271 2.0942567004400203 L1.2807356950100086 2.0853455684399833 L1.2821598490100143 2.0773703074399705 L1.287693703010035 2.0681743444400027 L1.2953434430100117 2.0631287714399846 L1.3138167500100337 2.0593039014400247 L1.3420149920100073 2.03871470843999 L1.3517806170100073 2.033343615439982 L1.3522282080100183 2.0371277944400177 L1.359633807009999 2.0371277944400177 L1.3569075700100086 2.029518745440022 L1.3548323750100337 2.017108263440015 L1.3522282080100183 2.0092550734400234 L1.359633807009999 2.0092550734400234 L1.359633807009999 2.016660672440004 L1.3659000830100183 2.016660672440004 L1.3653304220100324 2.011696479439969 L1.3667952660100298 2.010231635439972 L1.369724953010035 2.0100688754400053 L1.373305682009999 2.0092550734400234 L1.3959700700100086 2.07387095843999 L1.3969466330100033 2.0855083284400067 L1.3988590680100117 2.087624213439973 L1.406834328010035 2.099831245440022 L1.4073226100100271 2.1024354114399912 L1.4062239770100007 2.110410672440004 L1.406834328010035 2.1128520784400067 L1.4100081560100364 2.1133403594400093 L1.4183089380100284 2.112119656440008 L1.421116555010002 2.1128520784400067 L1.4301090680100117 2.1189555944400027 L1.436497414010006 2.1213970004400053 L1.4403629740100143 2.127174995440022 L1.4416243670100073 2.143288276439968 L1.4357649920100073 2.1480083284400067 L1.4037825700100086 2.160052599439986 L1.4028060080100033 2.1668885364399912 L1.395359719010031 2.196022651439968 L1.393162453010035 2.2009868444400027 L1.3994287290099976 2.2134380164400014 L1.417413755010017 2.229551297440004 L1.421116555010002 2.2394796824399705 L1.4229476100100271 2.249733588439973 L1.4277083520100007 2.258522651439968 L1.4342594580100183 2.261940620440022 L1.4416243670100073 2.2562440054399886 L1.447768573009995 2.2562440054399886 Z M0.9003646020100007 1.4543234324399705 L0.8791243670100073 1.4482199174400208 L0.8650862810100364 1.446795763440015 L0.8587386250100337 1.4511902944400177 L0.858820005010017 1.4602641874400106 L0.8595524270100157 1.4651470004400053 L0.866184914010006 1.4822368444400027 L0.8383121930100117 1.461729031440008 L0.8307845240099994 1.4599793574400124 L0.8107649920100073 1.4574158804399886 L0.8041731950100086 1.4543234324399705 L0.7964827660100298 1.4386170524399873 L0.8056787290099976 1.429461779440011 L0.8383121930100117 1.4201844354400137 L0.8525537290099976 1.4264914014400247 L0.8732649920100073 1.432879747440019 L0.892023130010017 1.4414653594400093 L0.9003646020100007 1.4543234324399705 Z M0.7693831560100364 1.3935324174400208 L0.7973372580100033 1.413348497440019 L0.777277037010009 1.4184347604399719 L0.7424463070099989 1.4366639274399873 L0.7256819850100271 1.4406515574399705 L0.7138004740100143 1.435321154440011 L0.6996403180100117 1.4225037714399846 L0.687433287010009 1.4069601514400247 L0.6812483910100298 1.3935324174400208 L0.6874739770100007 1.3935324174400208 L0.7102197450099936 1.396380724439986 L0.7621403180100117 1.3598817004400203 L0.7836653830100033 1.3655376254400053 L0.7956282740099994 1.3761984324399705 L0.7949365420100492 1.3859640574399705 L0.785089537010009 1.3906434194400177 L0.7693831560100364 1.386004747440019 L0.7693831560100364 1.3935324174400208 Z M4.018081073009995 1.3450298124400106 L4.024640962010011 1.3577520884399874 L4.029144692010021 1.3793419304400132 L4.036282220010008 1.3875371894400033 L4.041153932010019 1.3890358394399769 L4.046404972010038 1.3927681634399747 L4.042286030010047 1.396477427439983 L4.031755139010016 1.3987001184399688 L4.020868108010035 1.3938474624400001 L4.008357942010008 1.4005688374399838 L4.0076180230099965 1.4091260154399734 L4.013698840009994 1.4150568284399938 L4.013636054009993 1.4236486184400192 L4.007258820010037 1.4247495394400076 L4.003464086010041 1.4296030764399816 L4.002626415010042 1.4430590144399744 L3.989437017010033 1.4445464864399824 L3.9721433840100246 1.409132404439994 L3.975173266010046 1.3960901544399817 L3.9815819310100267 1.3968380694400153 L3.9823412590100418 1.389386371440004 L3.986496146010012 1.3759754614399995 L3.9827350420100345 1.3662852324399992 L3.987646309010046 1.3502672514399947 L3.9997151720100135 1.3361195254400187 L4.007259057010032 1.335010630440003 L4.011773240010001 1.336131337439987 L4.017267271010013 1.3417746044399692 L4.018081073009995 1.3450298124400106 Z M0.7500960470100324 1.5666688104400137 L0.752903664010006 1.5545024694400027 L0.759698912010009 1.5414816354399719 L0.7690169450100086 1.5301697864399912 L0.779799823009995 1.5238221304399886 L0.7914371930100117 1.523211779440011 L0.7937972190100311 1.5295594354400137 L0.7926985860100046 1.5404236934399833 L0.793919289010006 1.5536072864399912 L0.7756087420100073 1.5616639274399873 L0.7646631040099976 1.565244656440008 L0.7500960470100324 1.5666688104400137 Z M4.02775284901 1.2710376954400218 L4.019301776009996 1.2763449174400208 L3.999970617010007 1.2620305154399958 L3.9820478140100306 1.2486585704399786 L3.993908078010037 1.2244178114399702 L4.0071277970100425 1.2347875514400144 L4.017307961010005 1.2470480424400208 L4.021997212010007 1.2432497574400045 L4.024203010010041 1.233984608440018 L4.0297083330100065 1.2375316884399936 L4.025862071010039 1.2500747864399742 L4.033278307010022 1.2549739054399893 L4.031894113009997 1.2625985074400106 L4.02775284901 1.2710376954400218 Z M0.9891097190100311 0.330869656440008 L1.0144189640100478 0.3423442664400014 L1.0268701360100465 0.350848497440019 L1.0375309430100117 0.36500865444001107 L1.018162453010035 0.36228241744002077 L0.997980162010009 0.3702576774399873 L0.9819482610100465 0.3852723254400203 L0.9733219580100183 0.4082215444400177 L0.9685205260099963 0.406390490439982 L0.9577376490099994 0.39516002143998463 L0.9581852400100104 0.3943462194400027 L0.9604231950100086 0.393613797440004 L0.9618473490100143 0.3891785754400203 L0.961888039010006 0.366270047440004 L0.9581038600100271 0.3572368444400027 L0.9481754740100143 0.35133677944001107 L0.9481754740100143 0.3451111934399833 L0.9618473490100143 0.35133677944001107 L0.952814146010013 0.33038137544000534 L0.9378401880100284 0.32313853643999124 L0.9195296410100298 0.31963918744001063 L0.9003646020100007 0.3103618444400027 L0.9003646020100007 0.3041769484400234 L0.9059798360100046 0.2993348254400203 L0.9111474790099976 0.29734101043997185 L0.9161116720100324 0.29872447443998595 L0.9208317240100143 0.3041769484400234 L0.9296614770100007 0.307676297440004 L0.9377588070099989 0.30946666143999124 L0.9461409690100311 0.3085714794399692 L0.955581073009995 0.3041769484400234 L0.965428078010035 0.30889700044000534 L0.9891097190100311 0.330869656440008 Z M0.7836653830100033 0.241473497440019 L0.810480162010009 0.22120982544002032 L0.8266341330100033 0.2146587194400027 L0.8457177920100492 0.21417043744001063 L0.8733870630100284 0.25477916143999124 L0.8803450700100086 0.28016978643999124 L0.866184914010006 0.2966899694400027 L0.866184914010006 0.3041769484400234 L0.8705794450100086 0.3089783804399886 L0.8720035990100143 0.311582547440004 L0.8704573750100337 0.3154481074400124 L0.866184914010006 0.32346405743997053 L0.8524723490100143 0.30035207844000666 L0.8313948750100337 0.27882701344001504 L0.7836653830100033 0.241473497440019 Z M4.219901506010018 1.19548126343998 L4.218432626010014 1.1842545974400096 L4.222216366010031 1.1793917674399736 L4.231965363010005 1.185067662439998 L4.243015969010031 1.1918722604399719 L4.249363625010034 1.1998475214399846 L4.253920917009992 1.21058970843999 L4.256769224010014 1.222186388440015 L4.257664406010036 1.2324402944400177 L4.257462634010011 1.2402411014399846 L4.269917019010023 1.2424641664399942 L4.276635708010048 1.2555328534399806 L4.274807714009995 1.2666627364400043 L4.266475487010013 1.27225879744001 L4.264186792010008 1.2849219584399876 L4.27766949601002 1.3107173294400027 L4.2689388500100165 1.3330704124399873 L4.259847936010004 1.3412597754399727 L4.259864725010033 1.3501963384399929 L4.254124367010007 1.3576844354400137 L4.241731418010005 1.3568780714399864 L4.236802627010007 1.3520338194399883 L4.229642821010003 1.353141472440008 L4.222915057009999 1.3543885364399912 L4.215746611010019 1.3560989734399769 L4.2130940840100095 1.3508863024399957 L4.210820844010044 1.3445608664399984 L4.207455355010012 1.3508785014400146 L4.199948664010009 1.3598010174399988 L4.191670008009993 1.3709622934399945 L4.192028804009993 1.3795262894400153 L4.18937083501001 1.3880821344400047 L4.199158742010042 1.3996468964399824 L4.201006136010022 1.4193806334400065 L4.207031516010005 1.4242382114399916 L4.214571864010026 1.4246309944399869 L4.2145670820100065 1.4291016784399986 L4.2081605100100035 1.4343066474399748 L4.194221539010044 1.4264440764399993 L4.18369180401001 1.4178606484399907 L4.1852083690100415 1.4037104664400104 L4.178489910010029 1.380256946439978 L4.172103056010002 1.3709383114399785 L4.154148781010036 1.3630962194400027 L4.147801125010034 1.3587016874400106 L4.14224800801 1.3484293354399952 L4.146733836010043 1.3327622774399757 L4.15390864101002 1.3244230884400068 L4.157369044010039 1.3070139114400163 L4.153660500010034 1.300677599439986 L4.144868354010015 1.2910982164399698 L4.142238147010033 1.2836369344400183 L4.146392975010002 1.2762118664399864 L4.150543670010023 1.2699100964399932 L4.150928060010045 1.2632131674400071 L4.146428623009996 1.2453043524400087 L4.147801125010034 1.235858263440015 L4.1374341310099965 1.209160011439998 L4.141224424010005 1.1950782874400048 L4.154019125010024 1.1947220664400007 L4.163041541010017 1.2007383334400075 L4.203368584010008 1.1834875494400094 L4.212376320010009 1.1919129504400203 L4.215183938010028 1.1968364534400067 L4.216730162010009 1.2016785754400203 L4.219901506010018 1.19548126343998 Z M3.541753429010015 0.8549522894399857 L3.548806377010038 0.8488893844400209 L3.5552513270100405 0.8510112794399802 L3.558318803009996 0.8501019274399724 L3.558934481010027 0.8531330894399858 L3.5567885150100267 0.8555579784399825 L3.559553759010015 0.861619851440004 L3.564157284010008 0.8646504464399882 L3.5702933120100226 0.8667714634400241 L3.5709092300100167 0.8722258954399891 L3.568765023010002 0.8779836384399928 L3.5641651340100395 0.8794995864400121 L3.56078842701001 0.874348505440004 L3.556798408009996 0.87071226943997 L3.5494364940099956 0.8722284884400224 L3.5429922730100145 0.8704108994399817 L3.5405333430100256 0.8643492664399801 L3.541753429010015 0.8549522894399857 Z M1.5438773330100446 0.5452787904400012 L1.5466531550100342 0.5480321354399749 L1.5522208610099995 0.5495622864399721 L1.554398946010025 0.5474220114399841 L1.5590437390100362 0.5477288764400114 L1.5649250550100362 0.5507877074399872 L1.5701983860100484 0.5544577804400106 L1.574234643010044 0.5584342124400123 L1.5754765320100148 0.5621044164400146 L1.5782740800100044 0.5648585694399699 L1.5776541840100151 0.5676109944400096 L1.5733050120100245 0.5676080624399802 L1.568334718009993 0.5651585234399832 L1.5599566260100062 0.5639314074399877 L1.5497323130100256 0.5627053684399712 L1.5451019180100332 0.5627056534399699 L1.5404746730100385 0.5639297454399994 L1.5392183200100078 0.5575073514399733 L1.537047322010011 0.5529216714399823 L1.5348873920100061 0.5489469144400019 L1.5367498440100178 0.5458896334400052 L1.5438773330100446 0.5452787904400012 Z M1.0649076310100156 0.48095947144000917 L1.0597363230100143 0.47586725043996836 L1.06030570801002 0.47133544943998373 L1.0666232270100124 0.4741601164400109 L1.0706477300099948 0.4803860574399792 L1.0763903490100404 0.48377796143999063 L1.083279095009999 0.4843361204399699 L1.0867311640100468 0.49282810143999 L1.0890327610100314 0.49962255244000886 L1.0959220890100312 0.5024464164400015 L1.1033853600100372 0.5058360234399757 L1.1016688710100482 0.512068984439999 L1.0924901390100388 0.5160455454400008 L1.0850334130099952 0.5205867854399813 L1.0792923670100265 0.5188949374399741 L1.0701027660100237 0.5126757354400198 L1.0620620660100428 0.5075876284400138 L1.056888402010003 0.49966328843996877 L1.057455123010044 0.49173143843999156 L1.0649076310100156 0.48095947144000917 Z" fill="black" stroke="black" stroke-width="0.5" vector-effect="non-scaling-stroke"/></svg>