<svg xmlns="http://www.w3.org/2000/svg" viewBox="0 0 8.573169727199996 8.466115796519986"><path d="M0.08405068359999746 3.0307281862600135 L0.1068916675999958 2.9808087522599536 L0.13500364560002254 2.8861375292599334 L0.16156533260004835 2.797047359260013 L0.20518024059998652 2.661345048259953 L0.24161212559999967 2.548070308259973 L0.2882242675999578 2.403169592259907 L0.322434065599964 2.2971295532599854 L0.3589176265999754 2.1807542282599783 L0.39400592460000894 2.0691331342599497 L0.4265104006000229 1.965573564260005 L0.4587048176000792 1.8628408162599968 L0.4625288746000251 1.7972117482599614 L0.46252212859999986 1.7966961712599314 L0.4606168456000148 1.6510707962599511 L0.45937661159996424 1.5549526332600365 L0.4582397296000522 1.466999345260028 L0.45710284860004435 1.3760488242599322 L0.46557778360005386 1.349383785259981 L0.5020096676000492 1.2972939412600297 L0.5238348006000138 1.2675779812599686 L0.5447460776000526 1.2391062792599215 L0.5894461916000182 1.178334794260003 L0.6341979816000674 1.1174599572599746 L0.6788980956000046 1.0566884722599568 L0.7235982096000555 0.9958136352599283 L0.7402380215999926 0.9719391232600216 L0.7568261555999811 0.9480646122599481 L0.7734659666000141 0.9242934532599847 L0.7901574546000347 0.9004189412599928 L0.8030248856000242 0.8745807252599818 L0.8096681035999893 0.861400157259915 L0.8159956706000457 0.848845862259985 L0.828863102600053 0.8230076462599598 L0.8418338866000852 0.7971694292599452 L0.8699975426000321 0.7236855432599825 L0.898109521599963 0.6500983032599876 L0.926221501599997 0.5766144162599218 L0.9543334806000416 0.503233882259984 L0.9731953776000637 0.4540379192600099 L0.9812052246000462 0.4421523402599874 L0.9971732426000699 0.43584781525996874 L1.0861858966000568 0.42303206025999174 L1.1076832926000009 0.4199314732599433 L1.1548638756000287 0.4131101852599883 L1.2021219725999686 0.40628889626002973 L1.2235676916000955 0.4031883092599955 L1.5620483236000666 0.3337351852600179 L1.9004772786000217 0.2641787072599371 L2.238932072600079 0.19472558225995584 L2.5774127036000323 0.1252724572599888 L2.7280236656000625 0.0943699502599813 L2.810085839600049 0.09333642225991667 L2.9985497885999735 0.09106265925998258 L3.186910384600054 0.08868554325994893 L3.375322656600048 0.08641178025992957 L3.563683252600015 0.08403466425998118 L3.644866927600077 0.0830011352599982 L3.664762353600082 0.08775536725999444 L3.6947346846000357 0.1079091762599731 L3.7233117515999936 0.12723616226001155 L3.7737479495999935 0.15679508025994693 L3.8669722336000234 0.21157209926003162 L3.960299869599993 0.26634911725992794 L4.053575830600039 0.3210227822599663 L4.146903467600083 0.3756964482599372 L4.24012775060001 0.43047346626000405 L4.333403711600056 0.48514713125997133 L4.426627994599983 0.5399241502599565 L4.519955631600055 0.5945978152599096 L4.559126367599987 0.6176455032599719 L4.569978418600044 0.6292210252599162 L4.573234033600016 0.6434837202599866 L4.570185123599998 0.6765566362599671 L4.572200504600033 0.7085960252599719 L4.589253726599992 0.7658535112599409 L4.592561018600065 0.7971694292599452 L4.5899255206000475 0.8193902962599751 L4.591269108600017 0.8615582652599372 L4.589667139600095 0.8824355432599233 L4.574887678599993 0.9353522102599854 L4.575611149599979 0.9613971312599645 L4.576076237600006 0.9774168262600185 L4.5820707036000385 0.9809308232599747 L4.590338932600076 0.9797939422599669 L4.597366927599978 0.9818609982599256 L4.604498275600008 0.9887856402599979 L4.613903385600082 1.0001544562599989 L4.615867089600016 1.0106964482599565 L4.579125146600035 1.0226853802599223 L4.571735416600006 1.0394285442599696 L4.578091617600052 1.0579287062599079 L4.597366927599978 1.0706411092599453 L4.603464746600025 1.069090817260026 L4.6081673016000195 1.0633030562599615 L4.6143684735999955 1.0576186482600107 L4.624652083600012 1.056998531260028 L4.631318342599997 1.060719234259956 L4.639328189600064 1.0684706992599544 L4.644082421600075 1.077979163259947 L4.634470605599972 1.1054710252599236 L4.6366926926000644 1.13089582925992 L4.643617333600048 1.155700517259966 L4.651420474600059 1.1724436802600096 L4.667285139599983 1.1898069622600147 L4.688782535600012 1.2056199502600222 L4.711261783600037 1.21698876525992 L4.730227034599977 1.2214329392600192 L4.7450064946000055 1.229391110259975 L4.742267643600059 1.2471678022600017 L4.726506331599978 1.2761066042599722 L4.724387597599986 1.2963637652599758 L4.725472802599995 1.321995275259944 L4.729658593600021 1.3460764932599787 L4.741079085600035 1.370054358259999 L4.74185423160003 1.381319820259968 L4.740769026600049 1.4030239222599548 L4.7434562016000825 1.4168732052599253 L4.756582014600042 1.4364068972599355 L4.761284570600026 1.4474656542599362 L4.760819482599999 1.4582143512599615 L4.753326399600041 1.4774379842599714 L4.753791487599983 1.4890135052599263 L4.7599926595999875 1.5002789672599803 L4.769397770600023 1.507306962259996 L4.778027734599988 1.5061700802599844 L4.787226139599966 1.4713401652600098 L4.800403629600055 1.4636920532599405 L4.816319971599967 1.4660691692599883 L4.83011757860001 1.4752675742599806 L4.834200016600022 1.4814687462599707 L4.839936100599999 1.4962482062599847 L4.843760156600041 1.5026560832600282 L4.850064680600042 1.5082371382599504 L4.865464257600024 1.5184690712600215 L4.874197575599993 1.5265305952599206 L4.8767297196000925 1.536142411259938 L4.869133284600025 1.5436871702599788 L4.8574027346000435 1.5486481082599326 L4.835646956600016 1.552885575259971 L4.827740462600076 1.5584666302599928 L4.816474999600018 1.5703522092600153 L4.801333805599995 1.5808942022599908 L4.793995751600022 1.5898859012599402 L4.800455306600071 1.5959837202599871 L4.826396875600011 1.5982574832600065 L4.846757389600043 1.6021848922599773 L4.863707258599959 1.6127268842600344 L4.874766016600063 1.6279197552599598 L4.8772981606000485 1.6460065062599725 L4.867014550600032 1.6563417932599904 L4.825725081600041 1.6778391892599345 L4.816474999600018 1.690654944260011 L4.819575586599967 1.7019204072599692 L4.826396875600011 1.7067779912599903 L4.833269840600082 1.7086383422599951 L4.8363187506000145 1.711118811259972 L4.841383040599993 1.711118811259972 L4.8644824065999615 1.7289988572600166 L4.887375065600082 1.7522532512599511 L4.894093001599998 1.7522532512599511 L4.898382145600067 1.7347866172599922 L4.9168306326000675 1.7498761352600027 L4.918380924600001 1.7716835892600145 L4.909027490600067 1.7948346322599278 L4.881949039600016 1.8341087202599837 L4.882672510600003 1.8482680622599403 L4.898382145600067 1.878757157259919 L4.904531640600027 1.9233022422600143 L4.9004492026000435 1.9701210902599442 L4.886548241600053 2.0124957642599597 L4.863707258599959 2.0439150352599924 L4.8353885745999605 2.0634487262599137 L4.83011757860001 2.0712001912599973 L4.829497460600038 2.083705888260006 L4.834458398599992 2.0913539992599866 L4.840762922600021 2.0966249962599264 L4.843760156600041 2.1022060502599302 L4.852080061599992 2.1126446902599625 L4.8680997566000315 2.117192216260001 L4.878848454599961 2.127010738259976 L4.871096988599959 2.153159013259973 L4.804486067600067 2.24938053025992 L4.789138167599987 2.283486975259983 L4.7852624346000425 2.3045709592599266 L4.7862959636000255 2.3267918262599565 L4.794615869599994 2.3444651652599546 L4.812805973600007 2.351699865259924 L4.822314437599999 2.3602781542599516 L4.81507973660004 2.380225256259969 L4.802263981600049 2.402962887259953 L4.795391015599989 2.420016109259983 L4.799576806600015 2.4369659792599876 L4.81006712260006 2.4549493772599718 L4.822624495600081 2.469315426259975 L4.833269840600082 2.475206539259979 L4.838799219600077 2.484715003259957 L4.795391015599989 2.551584306259933 L4.7959594566000305 2.570911291259982 L4.799628482600042 2.5892047482599523 L4.798698307599977 2.608325028259948 L4.785469141600089 2.6301324832599775 L4.778492822599986 2.6473924122599684 L4.787742903600019 2.6617584602599678 L4.8016438646000665 2.678191565260029 L4.809033593599992 2.7012392542599954 L4.804486067600067 2.7136415982599615 L4.78117999760002 2.7544659792599546 L4.77177488660007 2.76325097325995 L4.7695527996000635 2.772966142259982 L4.747590316599997 2.831567216260005 L4.746040022599971 2.8453131472599367 L4.746401757599983 2.8604026652600325 L4.7481587566000485 2.870737952259951 L4.761274238600066 2.877321012260005 L4.761542952599996 2.8774558882599663 L4.773015120600007 2.8863442342599868 L4.781955143600044 2.9022605752600086 L4.794409163600022 2.9146629192599747 L4.828153873600087 2.925204911260032 L4.838902571600016 2.925204911260032 L4.8562141766000195 2.918383622259988 L4.863035465600063 2.9174534472599376 L4.871562076599986 2.922104325260001 L4.885721419600031 2.936573726259944 L4.89052732760004 2.9399843712599605 L4.902619612600034 2.937400549259955 L4.918639307599989 2.9245847952599817 L4.928922917600062 2.924894853259964 L4.939103174600035 2.9272719692599978 L4.9469063146000565 2.925928382259947 L4.95899860060004 2.9202439742599964 L4.956621484599992 2.9185903282599455 L4.956983219600005 2.9133193322600093 L4.958791894599983 2.9074282182600157 L4.96075559960002 2.9040175742599885 L4.964476302600019 2.9037075152600025 L4.974139795600053 2.907014807260005 L4.9782222326000465 2.9069114542599763 L4.998065983600043 2.899986812259989 L5.011140120600004 2.901020341259972 L5.02447263960002 2.9047410442599855 L5.044781478600044 2.905567867260011 L5.055891910600053 2.902673987260023 L5.063591699600067 2.8986432252599386 L5.070723046599994 2.8968862272600475 L5.07992145259999 2.9008136352600147 L5.095476057600024 2.940811194259986 L5.1072066076000056 2.9613784142599755 L5.120332421599983 2.9732639932599128 L5.137695703600087 2.9772947552599973 L5.161673568600008 2.973987463259995 L5.170406884599998 2.9706801722599963 L5.1744376465999835 2.967889644259948 L5.179708642600019 2.9665460572599827 L5.192110986599971 2.967786291260005 L5.199810774600053 2.9706801722599963 L5.223220198600018 2.9850462202599957 L5.261925846600036 2.9765712852600004 L5.2704524575999585 2.976674638260029 L5.291226383600019 2.9842193972599844 L5.302130110600075 2.9849428672599814 L5.316547835600005 2.9901105102599743 L5.349414046600032 3.009540849259956 L5.355770247600049 3.0096442022599845 L5.359387598600023 3.0035463832599376 L5.367759180600018 3.005406735259946 L5.3831587565999826 3.0134682572599374 L5.394475895600067 3.0132615522599693 L5.399591862600062 3.007990556260033 L5.401348860600024 3.0016860312600144 L5.402640771599977 2.998688798259913 L5.418092024599986 2.9999290322599492 L5.46274046260001 3.0100576132599954 L5.481964094600045 3.00685367525994 L5.506923811600018 2.9875266892599726 L5.520618066600036 2.984426103260027 L5.524958886600018 2.9883535112599944 L5.528007796600036 3.003753088259991 L5.5348807616000215 3.009127438259945 L5.544440902600002 3.0098509072599526 L5.550797102600029 3.0071637332600076 L5.556481510600065 3.0036497352599625 L5.564026269600021 3.0019960902600005 L5.580252669600043 3.00426985326002 L5.610225000600082 3.0148118452599917 L5.619371728599987 3.0191526652599734 L5.619785140599987 3.021323076259968 L5.621128727600052 3.025663895260031 L5.625934635600061 3.029798011259963 L5.643659651600075 3.0326918902599473 L5.6493440596000255 3.034345537260002 L5.655183496599989 3.034862301260027 L5.66277993259996 3.031968421259954 L5.6749238936000665 3.0289711872599483 L5.706756575600025 3.031348303259982 L5.7232413575999885 3.0301080692599456 L5.747942691600002 3.0376528282600006 L5.758691389600017 3.0379628872599866 L5.76985349960006 3.031141598260028 L5.768923323600006 3.0471612912599753 L5.77388426159996 3.0510887002600455 L5.782307519600039 3.049848466260009 L5.791815983600031 3.0502618782600237 L5.80946348460003 3.0586334602599905 L5.819617903599976 3.0591502242599447 L5.830728336600004 3.0332086552599904 L5.842407210599987 3.0485048792599443 L5.85269082060006 3.073516272259944 L5.854861230600051 3.0862286752599957 L5.878348169600031 3.089432613259966 L5.891551497600034 3.085298499260041 L5.914754215600027 3.0617340452600317 L5.921265446599989 3.0524322882600146 L5.92250568060004 3.045921057259953 L5.926123030600024 3.044267412259991 L5.939843123600042 3.04881493826003 L5.9474137216000145 3.048091467259944 L5.980047387600052 3.0388930622599375 L5.987617985600025 3.0402366492600024 L5.988806543600049 3.044680823260002 L5.990873600599997 3.04664452725995 L6.001208886600011 3.0403400032600203 L6.005859766600082 3.0337254192599303 L6.013869612600047 3.015742021259946 L6.019037255600068 3.0117112592600463 L6.035806258600019 3.019772782259942 L6.06983518960007 3.056256344259957 L6.085596500600047 3.059770341259913 L6.090273217600014 3.0517088182600176 L6.079705387600029 3.0336220662600013 L6.086061588600074 3.0276276002599687 L6.097223697600015 3.024527014259938 L6.105233545599987 3.021013016259978 L6.138668196600065 2.9977586222599584 L6.149442733599983 2.9868032192599756 L6.166495955600027 2.958587887260016 L6.169105615600046 2.9562107712599683 L6.176391992600003 2.9526967732600085 L6.179802636600044 2.9483559532600268 L6.185332015600039 2.9325429652600334 L6.188432601599999 2.926341793259958 L6.203728824600034 2.9053611622599576 L6.2127722006 2.8961627562599617 L6.223107487600004 2.887687822259956 L6.2405741206000584 2.882830237259931 L6.312611067600017 2.870737952259951 L6.326770410599977 2.8720815392600016 L6.337105696599991 2.882520179260034 L6.363564029599985 2.9436017212599452 L6.387076806599964 2.976674638260029 L6.417565902600046 3.0039597942599485 L6.47332477160009 3.034862301260027 L6.502883691600033 3.061630692259918 L6.52014361960002 3.0716559202599356 L6.537610254600054 3.0755833302599953 L6.709692773600011 3.0836448522599866 L6.7230511316000445 3.080130856260034 L6.735841048600008 3.073516272259944 L6.749173567600025 3.0795107382599767 L6.7635396156000525 3.090156083259963 L6.7791458986000634 3.0975974892599893 L6.841467676600018 3.103075192259972 L6.860019515599959 3.1136171832600255 L6.8623966316000065 3.1064858352599956 L6.8733778726000025 3.085815263259981 L6.923633203600048 3.1493772752599583 L6.964250878600069 3.1776959592599567 L6.9741727545999765 3.1882379522600033 L6.982828556600026 3.212525875260006 L6.986110009600026 3.2971718712599127 L6.993138004600013 3.33344872725997 L7.010475448600033 3.3659015252599787 L7.0364945306000095 3.3918430952599365 L7.06972247660002 3.4089996702599947 L7.0900571535999575 3.415820960259957 L7.103208805600019 3.4230556602599265 L7.1107277265999755 3.4349412402599526 L7.113931664600045 3.455611812259967 L7.112898136600052 3.4633632772599654 L7.1073945966000736 3.4798997362599593 L7.1066194496000605 3.488374670259965 L7.108738183600025 3.497056311259932 L7.115223576599988 3.513179358259997 L7.116076236600037 3.5219643522599924 L7.105818465600038 3.5552439742599304 L7.088481022600035 3.5841827762599863 L7.075406884600085 3.6145685182599507 L7.077835677600035 3.651982255260016 L7.100108219600003 3.729083492259967 L7.100056542599987 3.7463434202599544 L7.094423812600041 3.7800364542600065 L7.096594222600032 3.796986324259926 L7.122949202600097 3.8254083622599424 L7.133723738600025 3.8408079382600206 L7.139175602600005 3.8603416302599314 L7.134266340600078 3.8968251912599428 L7.135015649600064 3.9133616502599367 L7.145738509599994 3.926384110259967 L7.1735404296000524 3.9421970982599746 L7.1772611326000515 3.9509820932599595 L7.1991719396000065 4.0253961542599725 L7.1987585285999955 4.042139319259924 L7.175400781600047 4.087614579259984 L7.172248518599986 4.104151038259978 L7.178811425599974 4.1265786092599726 L7.209533065600027 4.156757645259965 L7.220540144600022 4.175671220260007 L7.218860660600058 4.206470374259972 L7.191937239600037 4.262074215259979 L7.194495223600029 4.296800778260014 L7.200612281600087 4.326716655259908 L7.201342350599987 4.330287105260005 L7.2005155275999755 4.3662539022599915 L7.20387449559999 4.399740230259987 L7.223098128600014 4.425681799259941 L7.267436506600063 4.469503414260039 L7.289088932600038 4.531721838259948 L7.304230127599965 4.724836666259925 L7.313738590600025 4.750778234259961 L7.3363728685999945 4.77310245426002 L7.367223698599986 4.7859182092599255 L7.4300622396000335 4.790362382260021 L7.461688216600038 4.796666907260025 L7.461739893600054 4.796770260259969 L7.461843245600079 4.796770260259969 L7.461998274600006 4.796873613259983 L7.497577498599981 4.808965898259977 L7.533544295600052 4.8157871862600174 L7.568968489599996 4.813100012260001 L7.603126611599976 4.796873613259983 L7.603333317600033 4.796873613259983 L7.603333317600033 4.796666907260025 L7.6288356366000585 4.784781328260003 L7.692113428600038 4.785298092259943 L7.7229125816000135 4.7768231572599475 L7.7398366126000155 4.7693817512600205 L7.773348779600013 4.768038163259952 L7.790763737600031 4.76545434225995 L7.807661930600034 4.7561525842599295 L7.829521061599991 4.7292808392599355 L7.842491845599994 4.716878495259955 L7.906984033600025 4.6832888152600205 L8.037570378600009 4.6414309042599555 L8.054623600600024 4.63295596925996 L8.079815861599997 4.607737870260003 L8.095189599599962 4.600709875259987 L8.121854638600013 4.607427812260006 L8.29124998360004 4.696207922259937 L8.311507145600046 4.71005720726 L8.366800927599968 4.780957272259961 L8.460800358600096 4.832737056259937 L8.488658054600052 4.84666590426 L8.489119043599999 4.8468963992599825 L8.468190087600021 4.862192623259936 L8.433360172600032 4.886170488259957 L8.409640690600014 4.914489172259955 L8.399770491600009 4.945184973259991 L8.402561019600057 4.96130802025997 L8.41542845059999 4.9930373492599855 L8.420286035599986 5.030451086259951 L8.428140853600013 5.04295678325996 L8.451756982600045 5.071585527260019 L8.460076888600014 5.094529863259972 L8.473357731600004 5.125742427260043 L8.472220850599996 5.154784583260032 L8.462712386600032 5.185687089259936 L8.450310042600051 5.2075978962599905 L8.411501042600008 5.260617916259996 L8.399873844600052 5.292967362259979 L8.399615462599968 5.32355981125999 L8.413723128599997 5.392186112259942 L8.413103011600043 5.424638912259958 L8.375978437600025 5.527694265260017 L8.363286930599998 5.562925045259938 L8.334658186600024 5.601062252259986 L8.327113427600068 5.617495357259962 L8.281121403599997 5.799086340259997 L8.272129704600047 5.833502844259947 L8.270217676600026 5.852209713260031 L8.271096175600064 5.869056230260007 L8.279209375600061 5.888383215259957 L8.304685856599974 5.926830481260005 L8.30778644160003 5.945744055260043 L8.298743066599968 5.963314042260016 L8.264998356599989 5.9917360802599475 L8.252957747600021 6.009512772259974 L8.23084023460001 6.0749351362599455 L8.205932193600034 6.110591874259946 L8.187328678600096 6.13291609326 L8.158751611600024 6.156583899259935 L8.13642739260007 6.193790930260029 L8.124593489600045 6.229034257260018 L8.1225781096 6.240299719259973 L8.121957991600027 6.261797115260016 L8.125885400599998 6.283914628259929 L8.135910628600016 6.30210473225997 L8.142938623600031 6.321018307260012 L8.140251448599997 6.344892819259989 L8.134463687600032 6.368974035259946 L8.134205289600061 6.371217402259937 L8.132189925600017 6.388714433259999 L8.14815794260005 6.420960527259972 L8.151051823600028 6.441114335259947 L8.135910628600016 6.450106035259985 L8.100693139599969 6.4483490352600015 L8.091520572599961 6.457857499259994 L8.09126219160001 6.484212480259949 L8.10947813360005 6.5365090292599675 L8.11234617560001 6.556249427259935 L8.117255436600061 6.569788652259994 L8.139889713600013 6.595006751259952 L8.146504297600018 6.607099036259946 L8.144850651600052 6.629216548259954 L8.135187158600019 6.646993241259985 L8.12433510759999 6.6628062302599815 L8.119167464599968 6.679135983260004 L8.127073958600022 6.724197831259964 L8.12800413459999 6.742904700259949 L8.119167464599968 6.757994218259945 L8.110718368599976 6.760578039259947 L8.086456282600068 6.761921627259916 L8.078213891600058 6.765435624259958 L8.0721419116 6.7761843222599865 L8.07281370459998 6.786209550260004 L8.076146834599996 6.7966481892599475 L8.081081933600018 6.827033931259997 L8.091882307599974 6.859073320259917 L8.09126219160001 6.88150089226 L8.070591618599991 6.945476315259974 L8.074467350600031 6.960669185260009 L8.09255410160003 6.980306229259945 L8.096119775600016 6.993225338259954 L8.089711897600068 7.004490800259923 L8.078213891600058 7.019270260259937 L8.070074853600033 7.032499427259928 L8.069434084600033 7.035135732260009 L8.068266178600055 7.039940833259955 L8.070746647600032 7.059577877259976 L8.070746647600032 7.104639726260025 L8.055347070600021 7.136162350259987 L8.053977644599968 7.1415366982600474 L8.05100625060004 7.14711775325997 L8.041342757600034 7.20819929625997 L8.03674355459998 7.224425696259978 L8.027932723600003 7.23806827425998 L7.9972369216000345 7.269487545259928 L7.969099104599991 7.2903648242599886 L7.954061262600021 7.306694576259936 L7.944578637600046 7.324781327260034 L7.945638004600028 7.338837317259966 L7.950909000600063 7.352996660259997 L7.954061262600021 7.371496822259935 L7.953131087599957 7.394441158259973 L7.949462060600069 7.419039140259947 L7.941348860600044 7.441260006259988 L7.927396223600056 7.457486405259992 L7.917086775600069 7.462033932259935 L7.911583235600062 7.459553463259958 L7.906984033600025 7.454385820259951 L7.89943927460007 7.450665117259952 L7.855049218600016 7.450665117259952 L7.831071353600095 7.456142818259941 L7.814509057599992 7.470405514259916 L7.803682845600065 7.49024926325999 L7.790531193599975 7.536241289259998 L7.783270654600017 7.553811275259967 L7.773400456600029 7.568590735259981 L7.759137760600055 7.5840936642599885 L7.742627140600064 7.590914954259951 L7.693663720600057 7.5947390102599925 L7.673509912599997 7.601456946259923 L7.608630151600067 7.659851314259974 L7.60173134759998 7.676904537259922 L7.615528955600041 7.71628197926001 L7.6120924726000965 7.7379860802599225 L7.596046939600029 7.7499750122599735 L7.572844222600025 7.753592363259948 L7.533208398600067 7.7517320112599535 L7.517757145600058 7.747494544259986 L7.4992311446000315 7.738502844260047 L7.477862939600016 7.730854732259978 L7.453807560600097 7.730544674259981 L7.4049991706000355 7.754729244259956 L7.35818032260002 7.76010359325992 L7.338078190599958 7.765581295259999 L7.320404850600056 7.776123287259971 L7.303558333600051 7.792659745259961 L7.29164691560004 7.8117800252599565 L7.285574935599982 7.832140540259992 L7.283094466600005 7.87833927025995 L7.2725524736000295 7.894255611259972 L7.248006168600057 7.896322668260019 L7.2204109535999805 7.893738847259932 L7.200567203600002 7.895702552259969 L7.189043359599964 7.911515540259963 L7.184883406600022 7.932082760259952 L7.17906980760003 7.950066158260022 L7.162662540599996 7.957817623259949 L7.136126692599987 7.963812089259967 L7.135429060599989 7.978901608259967 L7.159536116600037 8.019829342259989 L7.163825260599992 8.031611568259983 L7.165737288600013 8.042256913259983 L7.163696069600064 8.052695553260016 L7.150337711600031 8.073056067260048 L7.151164534599957 8.079774003259978 L7.153645003600047 8.087938879259987 L7.1527665046000095 8.101788164259965 L7.143077173599977 8.12462914625997 L7.126928287599981 8.141785722259932 L7.105689273600007 8.152637773259976 L7.080781234600039 8.156358476259989 L7.052695092600004 8.175685462259942 L7.0169091635999905 8.213615963259947 L6.979676294600068 8.239970943259998 L6.91924070660005 8.210412024259973 L6.892317285600029 8.203694088259944 L6.8802508386000625 8.197492916259968 L6.871620874600012 8.187364335259922 L6.856557193600025 8.149847245259927 L6.841571028599958 8.131140377259932 L6.821313867600026 8.124112382260016 L6.798033634600017 8.124525793260027 L6.773745711600014 8.127833085259944 L6.76831348660005 8.127995587259967 L6.749561141600054 8.12855655525994 L6.727514357600029 8.124523423260008 L6.660651839600092 8.101168046259993 L6.6601619246000325 8.101083630259929 L6.6354595786000345 8.096827225260007 L6.609853906599994 8.09517358025996 L6.584429102599984 8.108092688259966 L6.565515527600041 8.121011796259985 L6.528980289600014 8.158425533259951 L6.506397689599993 8.167520585260014 L6.477639754600062 8.174548580260016 L6.454566227599997 8.185917395259928 L6.449088525600018 8.207621496259925 L6.452938419600059 8.234906653259934 L6.449088525600018 8.257230871259985 L6.437409651600035 8.27717797526001 L6.417927636600041 8.296711666260016 L6.398419783600048 8.321929765259974 L6.384751367600018 8.35262556626001 L6.366871321600058 8.376913489260012 L6.33467690460003 8.383114661259988 L6.334109272600045 8.382908759260012 L6.303050927600026 8.371642495259984 L6.2729235676000314 8.350145096259944 L6.24708535160002 8.323480057259907 L6.228197615599981 8.296401607259945 L6.187967513600057 8.251339759259984 L6.187474557600041 8.251275460259912 L6.121408268599993 8.242658117259943 L6.096392027600018 8.249184093259977 L6.051283349600027 8.260951575260002 L6.000175358600046 8.296711666260016 L5.963252547600007 8.303016190259932 L5.9628972526000155 8.302820967259954 L5.926949853600036 8.283069088259914 L5.865144840600038 8.22777530525999 L5.830056543600023 8.214959550259998 L5.829960749599991 8.214968467259943 L5.793417952600066 8.21837019425994 L5.757089420599982 8.231599361259931 L5.658180728600001 8.280278561259955 L5.625417871600007 8.286893144259956 L5.586247135600075 8.285239498260005 L5.577720524600039 8.283999264259968 L5.554311100599989 8.283585852259954 L5.553955395600042 8.283486585259915 L5.543200667600075 8.280485266260008 L5.534002262600069 8.275214270259973 L5.507337223600018 8.25495710925997 L5.4973119956000005 8.250512936259973 L5.496820278600097 8.250392759259974 L5.451381585600046 8.23928740725993 L5.441914860600036 8.236973711259985 L5.431424544599992 8.231806067259988 L5.42429215260006 8.225480220259989 L5.4081184726000515 8.21113549425997 L5.399178451600051 8.20576114525992 L5.377941805599988 8.200615510259958 L5.374012027600003 8.199663326259959 L5.347708724600039 8.199766679259973 L5.246732975600025 8.212685787259993 L5.221049788600027 8.210412024259973 L5.214469997599991 8.20837107025995 L5.198725569599986 8.203487382259986 L5.036616601600031 8.129796790259967 L5.036224446599988 8.129670740259932 L5.025041080599976 8.126076087259953 L4.922825098600015 8.106955807259958 L4.922494972599964 8.106855506259926 L4.87962360060007 8.09382999325991 L4.879319431600038 8.093771520259956 L4.834904380600051 8.085233177259944 L4.821022526599961 8.08256453125994 L4.790378401600037 8.070885657259957 L4.790051468600069 8.070823652259982 L4.730743768600007 8.059575640259958 L4.71245034260005 8.056106197259943 L4.712361689599987 8.056103875260028 L4.680876041599987 8.055279374259932 L4.620414616600044 8.065201249259921 L4.605583479600028 8.065924719260003 L4.4961844736000955 8.053315670259984 L4.223642969600036 8.074709713259999 L4.134242741600048 8.109229570259977 L4.1302119796000625 8.112536861259976 L4.130273268600064 8.111820596259953 L4.134501122600028 8.062410722259962 L4.132847477599967 8.04194685526 L4.120393457599988 8.022929928259934 L4.09569212260007 8.00639346925994 L4.082049544600068 7.99430118425996 L4.076003402600037 7.981382076259941 L4.081119368600014 7.9525466272599985 L4.095588769600056 7.932186113259981 L4.118274723600024 7.920093828259986 L4.168917627599967 7.912239009259956 L4.173878564600017 7.901800371260016 L4.1720182126000225 7.886400794259934 L4.172224919600069 7.8684173952599465 L4.174705387600028 7.859632402259969 L4.178012678600027 7.851777584259928 L4.1827152346000105 7.84443953025994 L4.188968082600013 7.837308183259999 L4.198149305600026 7.832566232259957 L4.1983731936000765 7.832450598259975 L4.203902571600082 7.83679141925996 L4.206383040600059 7.844026119260015 L4.206383040600059 7.8479535282599855 L4.207364892600026 7.850433997259962 L4.214375808600039 7.854640546259937 L4.214599593599985 7.854774817259944 L4.222867822600023 7.856428463259995 L4.22684690760002 7.851364173260016 L4.227673730600031 7.834724361259909 L4.229534082600026 7.827799719259922 L4.233048079599996 7.819944902259984 L4.242039778600031 7.805992265259981 L4.259868147600088 7.78635522125996 L4.2677746416000275 7.7721958782599145 L4.25278847659996 7.76010359325992 L4.250721419600012 7.746874426260014 L4.258937971600034 7.734265377259909 L4.274595931600089 7.724446855259934 L4.318882633600026 7.713801510259948 L4.3405350596000005 7.705946692260007 L4.349733463599989 7.693337643259973 L4.359707015600009 7.683829179259909 L4.405492334600041 7.680418534259964 L4.418618148600018 7.67039330725995 L4.412261946599983 7.653030025260016 L4.39402016560004 7.640731034259979 L4.382031234600078 7.626778398259994 L4.394381900600024 7.60486759025995 L4.4110733896000625 7.600113358259954 L4.428901758600006 7.605384355259979 L4.445851627600007 7.607761471259927 L4.459597558600052 7.594635657259964 L4.455928532600041 7.586470780259951 L4.4478670086000704 7.574998613259929 L4.4464717445999895 7.564870032259968 L4.463008203600083 7.560529212259986 L4.4751521655999795 7.560735917259954 L4.482645247600004 7.559495683260003 L4.486469303599961 7.554431393259939 L4.489208154599993 7.476503333259963 L4.493755680600032 7.457486405259992 L4.498871647600026 7.446117591259998 L4.502127262599998 7.444877356259973 L4.507243229599993 7.448288001259989 L4.5387141766000525 7.453765702259979 L4.550548079600048 7.4530422332599855 L4.555767399599972 7.446944413259935 L4.553028548600025 7.437849361259957 L4.54724078760006 7.429891190260001 L4.542331526600037 7.420899492259956 L4.5421248206000655 7.409117265259958 L4.545897200599995 7.406016679260013 L4.5628987476000304 7.394854569259984 L4.569461653600001 7.388550045259969 L4.563880599600083 7.383072343259975 L4.555095605600002 7.3689130012599335 L4.54899778660004 7.36126488825996 L4.526415185600001 7.3464854292599355 L4.5210408366000365 7.340801021259985 L4.5170617516000675 7.32385115125998 L4.520214013600025 7.308658281259959 L4.525691715600004 7.293155351259948 L4.528482242600063 7.275688716259914 L4.531686182600026 7.267833899259962 L4.54574217160004 7.258325435259984 L4.54899778660004 7.247990149259969 L4.524813215599977 7.2275262812599195 L4.521350895600023 7.214917232259985 L4.528223860600093 7.1990008912599635 L4.561710188599989 7.145567461259951 L4.56677447960007 7.131304765259976 L4.569461653600001 7.114871659259997 L4.564397363600023 7.082832271259996 L4.564449039600049 7.066605872259991 L4.572562239600046 7.059577877259976 L4.588426904600055 7.056373938260002 L4.611112858600023 7.047795650259978 L4.628424463600027 7.035806718259927 L4.627804345600055 7.022370845259978 L4.6131799155999715 7.012965735260018 L4.597263574600049 7.005731035259949 L4.5854813476000515 6.995602454260002 L4.5831042326000215 6.977722408260028 L4.593232812600064 6.9810297002599455 L4.60119098360002 6.985267168259988 L4.606772037600024 6.990951574259945 L4.610389387600009 6.998186275260004 L4.619174381600004 6.987230871259932 L4.628114404600041 6.966560299260003 L4.637726221600047 6.932970618259979 L4.647906478600021 6.923462154260001 L4.71281207659996 6.9019647582599575 L4.746195052600029 6.884808183259999 L4.8616918785999985 6.806570064260036 L4.874714339600047 6.790550370259986 L4.874817691599986 6.7772178512599694 L4.828567284600098 6.764918860260018 L4.836163720600069 6.749829341259932 L4.871096988599959 6.723887773259968 L4.8772981606000485 6.716136307259966 L4.883034245600015 6.704664140259958 L4.882000716600032 6.694225500260011 L4.859056380600066 6.686474036259916 L4.8562141766000195 6.67944604126 L4.859056380600066 6.672418046259985 L4.880192041600026 6.665183345259926 L4.90117267260004 6.655054765259969 L4.91474593660007 6.646051739259967 L4.921584862599985 6.641515540259995 L4.932540267599961 6.6276662562599356 L4.917347395600018 6.593766516260011 L4.913781722600049 6.574542883259987 L4.92881956360003 6.566171301259921 L4.947164697600016 6.560383541259945 L4.966491682600065 6.546947668259996 L4.983338199600041 6.531134680260003 L4.994035221600058 6.518422278259955 L4.983286523600043 6.515838456259949 L4.9738297366000666 6.511911047259979 L4.965923242600013 6.5062266402600315 L4.959825423599966 6.49795841025999 L4.980702702600041 6.469019608259934 L4.99315672160003 6.458167557259976 L5.014499089600008 6.450106035259985 L5.02571287460006 6.449175859260031 L5.03620319060002 6.449899329259928 L5.046073388600092 6.4489691532599736 L5.055426822600026 6.443284745260023 L5.059147526600043 6.435533281259929 L5.064366845599977 6.413209062259959 L5.066330550600014 6.408558183259991 L5.095631087600054 6.412072180259948 L5.111340722600033 6.411658769259937 L5.118110335599965 6.405457597259961 L5.122761214600047 6.382203202260023 L5.133716618600005 6.375071855259911 L5.147255843599993 6.3719712692599515 L5.159089745599999 6.360705807259997 L5.164360742600024 6.342929114259967 L5.177486556600002 6.25611270825997 L5.176297997599988 6.2397829552599475 L5.169114974600035 6.22665714125997 L5.155679102600061 6.213014563259968 L5.093615706600019 6.168882890259972 L5.093202294600019 6.156790605259992 L5.062919905599983 6.086407304259971 L5.062432348600055 6.08610349925997 L5.032069075599992 6.067183671259947 L5.012638737600014 6.042378984260004 L4.9803409676000285 5.977163326259976 L4.9684037106000005 5.964140865259942 L4.937087792599982 5.950188228259954 L4.921998274599986 5.939956295259968 L4.877918278600021 5.893034094260024 L4.863707258599959 5.881561926259998 L4.843915186600071 5.874947343260011 L4.7646435386000405 5.874740638259958 L4.750639225600025 5.870503170260001 L4.7445414065999785 5.860374589259955 L4.740769026600049 5.8490057742599575 L4.733947737600005 5.840634192259991 L4.724594303600043 5.838773841259986 L4.7022700855999915 5.841357662259988 L4.692348209599999 5.840634192259991 L4.622895084600032 5.808594804259975 L4.610389387600009 5.809214921259958 L4.60051918960005 5.794125403259947 L4.5103438146000485 5.737488033259957 L4.491895329600027 5.738004797259997 L4.475255517600004 5.749270260259969 L4.44714353859996 5.776038652259935 L4.435102929599992 5.783996822260001 L4.422442203600042 5.789887935259991 L4.411125065600061 5.791541582260045 L4.398412663600027 5.788130937259929 L4.3930899906000604 5.782446529259978 L4.39004108160006 5.774591712259941 L4.383839909600056 5.764876542260005 L4.319606103600023 5.699350826259995 L4.2958866216000615 5.669068437259973 L4.283639306600037 5.658009680259973 L4.2610050296 5.64757104125993 L4.040191634600006 5.608296953259959 L4.035023990599996 5.603542721259963 L4.032491846600095 5.595584550260007 L4.026290674600006 5.591347083259954 L4.018435856599979 5.5881431442599805 L4.011149478600004 5.582975501259973 L3.9969384606000347 5.579048091260013 L3.9459338215999935 5.577911210260005 L3.9252115726000625 5.5730536252599805 L3.733492008599967 5.440451900259951 L3.7017110026000353 5.433320553259925 L3.691995833600089 5.426809322259949 L3.671945377600025 5.408619218260007 L3.6622302085999934 5.4030381632599855 L3.6560807126000157 5.401901281259974 L3.637218814600004 5.401694576259935 L3.6174267416000134 5.395079993260019 L3.5800130046000618 5.372549068260007 L3.556500227600054 5.365004309259952 L3.527923160600011 5.346504147260028 L3.486323632600005 5.333481686259994 L3.4767634936000036 5.326453691259978 L3.4712857906000067 5.319735754259959 L3.463947737600023 5.314464758259923 L3.4488065426000105 5.312397701259961 L3.439349756600052 5.309193763259991 L3.4263272956000037 5.295034420260031 L3.39343524559996 5.283872311260005 L3.3770021406000126 5.2652687952599635 L3.3566416256000764 5.229818762260017 L3.347314030600046 5.220103593259985 L3.308375837600039 5.188787675259981 L3.284139591599967 5.178659094259935 L3.280599755600008 5.1708042772599825 L3.2781192876000205 5.16170922425993 L3.2746828045999905 5.154784583260032 L3.2685074706000137 5.149823645259993 L3.246751693600004 5.141038651259997 L3.2239882246000207 5.128946366260017 L3.213265364600005 5.121298255259937 L3.2023874756000623 5.110342851259965 L3.1944293045999927 5.10507185425994 L3.1759808196000847 5.101661210259998 L3.159005110600077 5.092152747259924 L3.1338903646000347 5.089155513260003 L3.123890974600016 5.0858482222600045 L3.116682112599989 5.079750403259958 L3.099086287599988 5.057736243259974 L3.0607682136000847 5.021666093259974 L2.7007385096000576 4.803281490259941 L2.6826775956000404 4.799147376260002 L2.6620328616000393 4.80111108025995 L2.615110660600095 4.816510657260018 L2.5911586346000774 4.821471594259968 L2.5162794836000444 4.823642005259963 L2.437989689600073 4.8126866012599905 L2.4063895516000855 4.814236894259999 L2.3970361166000487 4.8126866012599905 L2.386364933600049 4.807105546259969 L2.3668312426000284 4.790982499259989 L2.356056705599997 4.784781328260003 L2.346987491600032 4.783437740259949 L2.3113565916000596 4.784781328260003 L2.2495257406000633 4.773619218259974 L2.216685368600025 4.752018470260005 L2.1984435875999964 4.743853593259978 L2.1626576586000397 4.7423033002599695 L2.1568698975999894 4.740442949259965 L2.140824365600025 4.708506913259974 L2.139790836600042 4.702822506259942 L2.1305665936000366 4.700962154260019 L2.1132549886000334 4.692073808260012 L2.1022479086000487 4.688559811259957 L2.0906982255999935 4.687629635260002 L2.0447320396000066 4.689903398259936 L2.0349910316000717 4.687526282259974 L2.014553003600014 4.671299882259966 L2.005122053599962 4.668406002259978 L1.9466317646000562 4.669717675259982 L1.9175563395999689 4.670369706260011 L1.8967824146000112 4.668095943259992 L1.868050317600023 4.65217960225997 L1.8344606366000846 4.626754798259974 L1.7977445316000171 4.610114986259951 L1.7595814856000231 4.620346920260026 L1.7280588626000792 4.60174340425997 L1.7186020756000175 4.592958411259978 L1.7041843515999915 4.570892574259993 L1.6981640466000556 4.565104814259918 L1.6963553715999637 4.551668941259969 L1.6844181156000104 4.5309983692599545 L1.6681917156000168 4.511981441259984 L1.641888411600064 4.498132157259924 L1.624757674600005 4.4718805302599876 L1.6155592695999985 4.462682125259981 L1.6246543215999907 4.44624901925993 L1.628168318600018 4.423511390259954 L1.6245509686000332 4.403254228260032 L1.6121744625999952 4.394469234259951 L1.594914534600008 4.388991532259972 L1.579954207600025 4.376589189259995 L1.5665958506000095 4.362843257259961 L1.55416766860003 4.35343814726 L1.5466745855999875 4.35250797225995 L1.5267274816000622 4.353851559260015 L1.5200095466000505 4.35343814726 L1.5108369795999579 4.347547034259996 L1.4914841556000908 4.329356930259969 L1.4824666186000286 4.325532873259924 L1.461796045600039 4.319848466259977 L1.4514607586000068 4.306205888259974 L1.4454404535999856 4.290392899259977 L1.43745644560002 4.277680498259933 L1.3726283615999932 4.251015459259982 L1.3495548346000419 4.249981930259999 L1.3357313885999815 4.246364580260014 L1.32568032260005 4.239853349259953 L1.3138980956000523 4.229931474259949 L1.2987052246000133 4.22000959925996 L1.2824788246000196 4.213705074259941 L1.2641078536000236 4.210397783259943 L1.2425587806000635 4.209467607259988 L1.2333345386000474 4.204093258259938 L1.2240327796000372 4.180632157259957 L1.208064762600003 4.171020341260039 L1.2089432626000303 4.160995113260007 L1.2136199786000077 4.149522945259996 L1.2183483725999906 4.141254716259958 L1.2004424886000038 4.1408413042599435 L1.188634423600007 4.138877601259914 L1.1797719166000036 4.134640133259957 L1.129258202600056 4.085547522260008 L1.1147888016000422 4.079139644259975 L1.0675565426000162 4.079139644259975 L1.054094832599958 4.07552229425999 L1.0456457356000612 4.070768062259994 L1.0299877776000983 4.054645016259933 L1.015880110600051 4.045549963259951 L1.0014107096000373 4.039658850259947 L0.990145247599969 4.031080562259923 L0.985597721600044 4.013613929259968 L0.9849259276000453 3.9951137652599513 L0.9821354006000149 3.983331539259943 L0.9759342286000106 3.97371972325994 L0.9651338535999798 3.961834143259999 L0.9543851556000504 3.9531525032599504 L0.9317508796000027 3.9412669232599242 L0.9201236826000354 3.9314484012599493 L0.8974377275999927 3.9009593062599706 L0.8894278806000102 3.893517900259944 L0.7779618166000262 3.830679358259964 L0.7423567546000527 3.7944025032600095 L0.7285074715999826 3.7751788702599853 L0.7283524416000375 3.770631343259957 L0.7254585615999645 3.7659804642599894 L0.7306262045999574 3.742622717259941 L0.7283524416000375 3.7331142542599665 L0.7172420086000386 3.718024736259956 L0.6985868166000557 3.681127763259944 L0.6839623866000863 3.6607672492599974 L0.6627750486000252 3.640200029260008 L0.6535766436000188 3.628624507259964 L0.6498042645999931 3.6164288692599555 L0.645050032600011 3.6162221642600016 L0.6351798336000343 3.6100209922599262 L0.6265498706000869 3.6027862922599567 L0.625619694600033 3.599272294259997 L0.6185400226000013 3.5960683552599235 L0.6146642906000466 3.5884202432599537 L0.6118737625999984 3.5794285452599084 L0.6082564126000136 3.5719871382599777 L0.5809195795999926 3.5440818642600007 L0.5746667326000932 3.5334365192600004 L0.5703259116000083 3.5221710572600315 L0.563607975600064 3.5135927692600077 L0.5502237796000315 3.5099754192599377 L0.5461413416000482 3.5046010712599767 L0.5584920086000977 3.4811399702599957 L0.5393717286000026 3.469874508260027 L0.5397851396000135 3.4568520472599076 L0.5467614586000025 3.4348378872600094 L0.5414387856000644 3.4245026002600056 L0.5378214356000797 3.4227456022600293 L0.5318786456000453 3.4234690712599374 L0.5194763025999976 3.4205751912599496 L0.49467161460003695 3.4100331992599777 L0.4815974775999905 3.3999046192600204 L0.4814424476000454 3.387398921259937 L0.4955501135999896 3.3693121702599242 L0.5011828456000273 3.3525690062599622 L0.4932246745999578 3.334688961259907 L0.47105548560003285 3.310711096259986 L0.46557778360005386 3.309264157259996 L0.4588081706000082 3.3097809202600317 L0.4530204106000326 3.3083339812600414 L0.4505916175999687 3.301099280259983 L0.4507983236000257 3.2900405242599717 L0.44986814860007485 3.2849762332599894 L0.44718097360004094 3.2802220012600074 L0.4398945965999701 3.2760878872599832 L0.42868081060001373 3.272987300259949 L0.39305093560003 3.2685335662600394 L0.38568601860004037 3.2676129522599737 L0.3661523276000196 3.260688310260001 L0.2963374676000683 3.215936519259948 L0.27943927460006535 3.20012353126004 L0.2724629555999911 3.1850340122599405 L0.26383299160002593 3.178109371259957 L0.22368040360001373 3.166430497259988 L0.21101967760006346 3.1611595012599523 L0.18678343159999145 3.1316005822600133 L0.16973020859995813 3.118268062259993 L0.1461140796000393 3.1126870072599857 L0.13479694060006864 3.1114467732599493 L0.12125771559999521 3.107726070259936 L0.10911375360009856 3.101318193259992 L0.10172402360007027 3.092223141260014 L0.10358437560009293 3.0839549122599763 L0.11019895859999451 3.0751699172599913 L0.1141263675999653 3.064731279259952 L0.10797687159998759 3.051295406260003 L0.1147981616000493 3.051295406260003 L0.10957884160001186 3.0435439412599905 L0.10260252360001232 3.0370327112599327 L0.09402423459999909 3.032485185259908 L0.08405068359999746 3.0307281862600135 Z" fill="black" stroke="black" stroke-width="0.5" vector-effect="non-scaling-stroke"/></svg>