<svg xmlns="http://www.w3.org/2000/svg" viewBox="0 0 12.906371146920009 18.674826564255532"><path d="M11.954001827459976 17.660582020943707 L11.82576676146003 17.780057932943762 L11.780188148460056 17.810030262943712 L11.735048784459977 17.817264962943682 L11.688281613459978 17.810960438943667 L11.64603613045999 17.813130848943658 L11.614255124459973 17.845583648943673 L11.606529497460045 17.888165028943646 L11.618001665459971 17.92309829694372 L11.635054888460004 17.95782485994367 L11.643994911460041 18.000096180943657 L11.645932777459976 18.02541763294373 L11.65130712645994 18.042264149943705 L11.67347631545995 18.078747710943716 L11.68171870645999 18.097867990943712 L11.684199175460051 18.116574859943697 L11.680995236459992 18.135591785943674 L11.62050797246006 18.267159983943714 L11.598752194460033 18.29857925494366 L11.580639604460018 18.31759618094371 L11.541288001460046 18.350462392943655 L11.493745684460023 18.404619293943668 L11.476304887459989 18.41826187194367 L11.454084022459952 18.426633453943737 L11.42473180945997 18.427046864943748 L11.400857297459979 18.434694975943728 L11.32993139346 18.472935536943723 L11.305023352460026 18.479963531943724 L11.25321773045998 18.48523452694367 L11.146195839459992 18.475209299943742 L11.094700273459992 18.4787232969437 L11.069387832681244 18.49174002931185 L11.044351458460014 18.470409342943668 L10.994687442460005 18.440087640943688 L10.932838962459968 18.39725255594371 L10.901895923460003 18.378471110943707 L10.866284401459993 18.359699055943707 L10.829684800460015 18.340861402943716 L10.780834488460002 18.315691660943713 L10.730702754460012 18.269486268943666 L10.727406856459979 18.26509173794372 L10.721913692460006 18.25434954994367 L10.716420528459977 18.248408794943686 L10.711741166459987 18.245723247943687 L10.701650020460008 18.244421164943702 L10.695912715459983 18.242142518943666 L10.637929317460006 18.190710226943708 L10.620595333460003 18.18061908094367 L10.585194942460006 18.170690695943705 L10.572418249459972 18.15962298794372 L10.559193965459983 18.12056048794372 L10.549469030459974 18.10054095594367 L10.535227494459988 18.09191465394369 L10.519195593459969 18.085566997943687 L10.477040645460008 18.05480527894369 L10.456939734460022 18.044225851943708 L10.39777632245999 18.025752544943686 L10.377512650459991 18.023066997943687 L10.325998978459992 17.97472715394369 L10.304514603459992 17.962194601943708 L10.291005489460005 17.950313091943684 L10.260569291459987 17.91662168594368 L10.244862911460004 17.905553976943708 L10.19627892646001 17.88520892494367 L10.159535762459981 17.85998106094368 L10.138295528459977 17.849238872943687 L10.117177364460005 17.845007101943708 L10.084055619459988 17.849238872943687 L10.079661088459986 17.851843039943702 L10.078928666459987 17.84126361294372 L10.085439083460003 17.829707622943687 L10.100087520460008 17.810176372943687 L10.10448205146001 17.787064393943666 L10.10130822346001 17.767207622943687 L10.095692989460005 17.747188091943684 L10.086415645460008 17.646358013943683 L10.08214318445998 17.627803325943688 L10.068267859460022 17.588171164943702 L10.063832637459981 17.554316997943687 L10.059641556459994 17.550085226943708 L10.053334590459983 17.54829486294372 L10.045481400459991 17.543330669943686 L10.018178340459983 17.50915098194369 L9.982777950459976 17.485225200943688 L9.98021447346001 17.482376893943666 L9.966379838459986 17.451126893943666 L9.949574825459976 17.438594341943684 L9.933502234460022 17.43371152894369 L9.89464318445998 17.42720111294372 L9.871002234460022 17.419551372943687 L9.861562129460012 17.41352923794372 L9.844106075459976 17.398311138943683 L9.827260372459975 17.38765033094367 L9.822621700459976 17.385615825943688 L9.656484004460012 17.345332622943687 L9.618398067460006 17.32856829994367 L9.586171504460012 17.303096294943686 L9.539662715459983 17.249629497943687 L9.515492793459984 17.22749408094367 L9.461008744459988 17.196569601943708 L9.439524369459988 17.18761777894369 L9.416819291459987 17.18175840394369 L9.354156530459974 17.17711973194369 L9.345937129460012 17.17329486294372 L9.340566036460004 17.163366476943708 L9.34190880945998 17.142207622943687 L9.339711543459984 17.131709575943688 L9.326039668459984 17.118770122943687 L9.285553015459968 17.09614642494367 L9.27708947346001 17.08735736294372 L9.266835567460006 17.07043027894369 L9.242991166459987 17.05993223194369 L9.195139603459992 17.049190044943686 L9.170725541459987 17.03462298794372 L9.16612755945998 17.01696348194369 L9.166737911460004 16.99751361294372 L9.157582637459981 16.978145122943687 L9.101877885459984 16.915319601943708 L9.07901004645997 16.899694601943708 L9.067738887459981 16.896358013943683 L9.058461543459984 16.896358013943683 L9.05012007245999 16.895300070943705 L9.041168249459972 16.88878965394369 L9.030832963459986 16.874303976943708 L9.023997025459991 16.868444601943708 L9.013905879460012 16.866084575943688 L9.007639603459992 16.863154888943683 L8.985992468459969 16.84907611294372 L8.976064083460003 16.84435606094368 L8.934438106459979 16.837520122943687 L8.876332637459981 16.813350200943688 L8.771737548459996 16.814647732943712 L8.682769812460023 16.78332090394369 L8.575754838459986 16.708613872943687 L8.403844154459975 16.648874842943684 L8.370269812460023 16.614131450943688 L8.326161739460005 16.592565695943705 L8.288930293459984 16.567256450943688 L8.271555619459988 16.56115293594368 L8.232411739460005 16.56196673794372 L8.213694291459987 16.557002544943686 L8.198354122459975 16.547725200943688 L8.183949825459976 16.54235410694369 L8.167877234460022 16.549596945943705 L8.159413692460006 16.535925070943705 L8.146799760459984 16.494421164943702 L8.138092077459973 16.484736919943686 L8.128041622459975 16.48026100794371 L8.098988887459981 16.473913351943708 L8.043772416459987 16.447139263943683 L7.982289668459984 16.432897726943708 L7.865181244460004 16.39384308894367 L7.787888180460001 16.381866757943698 L7.76340367345999 16.39858820894372 L7.763812849459995 16.374690180943702 L7.7455953334600025 16.360225200943688 L7.736155228459992 16.35005267494367 L7.729075150459991 16.344111919943686 L7.692732633460011 16.332195709943704 L7.621449825459976 16.300654888943683 L7.59190880945998 16.28266986294372 L7.529669652460015 16.240435292943715 L7.4600135274600206 16.19105322294368 L7.431264278459977 16.166296164943702 L7.43092588746002 16.1547765289437 L7.436186333459986 16.142796366943713 L7.428332525459993 16.127235734943696 L7.4174703334600025 16.114131450943688 L7.386986228459975 16.100028310943713 L7.302398718459969 16.055049419943686 L7.286692338459986 16.05089902894369 L7.24347944745999 16.045283794943686 L7.227162715459983 16.035029888943683 L7.213917048460004 16.02014383094368 L7.210727506459975 16.00972743294372 L7.198351957460019 16.001655321943673 L7.174139173459977 15.99359354894372 L7.136153936459991 16.002049291943678 L7.100972210459972 15.993248621943705 L7.066078697459986 15.980856867943684 L7.02236942145997 15.952022075943686 L7.01769005945998 15.94624408094367 L7.0151265834600025 15.92671283094367 L7.012563106459979 15.91662168594368 L7.007395463459986 15.908565044943684 L7.006443545459987 15.89481518794369 L7.001022303459976 15.880717349943692 L6.97557580146001 15.87169981094368 L6.9257725894599815 15.856633601943683 L6.783111609460022 15.796016216943682 L6.71286734345999 15.758636606943666 L6.616530589459998 15.7202875569437 L6.595445652459986 15.692044577943674 L6.484975215459983 15.636348247943685 L6.457672155459974 15.615189393943664 L6.444203731459979 15.611120382943708 L6.429311153459977 15.613236268943664 L6.422475215459983 15.61616595594367 L6.415395137459981 15.614701112943719 L6.399525997459975 15.603633403943688 L6.369211869459988 15.571162700943686 L6.357981400459991 15.562617778943688 L6.338368770460008 15.556595643943664 L6.318593379460012 15.553503195943703 L6.303293900459991 15.547318299943667 L6.297109004460012 15.531611919943684 L6.29198205146001 15.5276242899437 L6.274674576460015 15.52353879694371 L6.2731008184600086 15.516094800943703 L6.27462959746002 15.51236497594371 L6.288498623459972 15.505608098943666 L6.308668221459968 15.500413485943708 L6.31244974645999 15.48698190294371 L6.297231075459976 15.465287049943667 L6.268137650459991 15.447627544943684 L6.227650997459975 15.430781841943682 L6.200917598460009 15.404414653943688 L6.220286088459986 15.405391216943682 L6.231313106459979 15.399775981943689 L6.23566694745999 15.389766216943682 L6.234446244459988 15.377721945943703 L6.2299703334600025 15.368525981943689 L6.222971635459984 15.359330018943664 L6.174469030459974 15.31505918594368 L6.154530879460012 15.306025981943689 L6.102284786460004 15.298783143943664 L6.087636348460009 15.28804095594367 L6.078847286460004 15.270951112943719 L6.069936153459977 15.247920513943681 L6.023061153459977 15.181758403943688 L6.015981075459976 15.161983013943681 L6.008290645460008 15.152136007943708 L5.972483353459992 15.128535747943685 L5.961334265459968 15.117630799943667 L5.959706661460004 15.110957622943685 L5.961334265459968 15.079463481943689 L5.957509395460008 15.072220643943664 L5.913442012459981 15.038936138943681 L5.831207312460023 14.999792257943708 L5.804176792459984 14.985712066943703 L5.783558011459988 14.975020440943664 L5.759348588459986 14.959753195943703 L5.7157584834600215 14.924973466943667 L5.665883418459984 14.90132220594367 L5.662424760459984 14.896439393943664 L5.654123978459992 14.890986919943684 L5.644195593459969 14.886185487943719 L5.635813431459994 14.884232362943719 L5.624664343459969 14.880326112943719 L5.617177364460005 14.871048768943664 L5.611155228459992 14.85998106094368 L5.60440067145997 14.850052674943667 L5.597320593459969 14.843542257943708 L5.589914994459988 14.838252544943684 L5.548207637459981 14.817826112943719 L5.533437129460012 14.80334043594368 L5.5368002704599775 14.780824716943668 L5.533673746459996 14.757416433943687 L5.531321137459983 14.73400894794369 L5.518015727459996 14.712883618943719 L5.5008154914599885 14.688753833943705 L5.490656198459973 14.682735293943692 L5.487579973460001 14.671380005943687 L5.492242138460014 14.662336118943669 L5.499258545459995 14.646484208943688 L5.495151575459985 14.637753510943666 L5.4834544534599985 14.615092620943669 L5.460683223460009 14.6037961649437 L5.426910437460023 14.583288351943706 L5.41494754645997 14.572057882943708 L5.395660437460023 14.545365174943667 L5.382232702459973 14.531693299943667 L5.371938106459979 14.527136007943708 L5.347483353459992 14.524694601943706 L5.337514278459977 14.521113872943685 L5.330881791459987 14.513626893943664 L5.320538000460019 14.481888935943713 L5.347977311459985 14.478867632943688 L5.355813454460005 14.4697341139437 L5.35738162346 14.459853351943677 L5.350328519459978 14.446920990943708 L5.340927940459991 14.427901966943663 L5.334788041459987 14.417435487943719 L5.327016231459979 14.395869731943689 L5.314931270460008 14.37788470594367 L5.299387650459991 14.370397726943706 L5.282948848460009 14.364619731943689 L5.274566687460023 14.350947856943689 L5.269195593459969 14.335078716943682 L5.26183068445998 14.3225461649437 L5.248647090459983 14.315221945943703 L5.214150955459999 14.301800025943718 L5.2125239154599825 14.32380120494369 L5.192897124459975 14.354924224943685 L5.173655228459992 14.321406841943682 L5.182034397460015 14.294918260943716 L5.181284636460006 14.25768862494371 L5.172353145460008 14.23498106094368 L5.1828904874599715 14.227308049943671 L5.183217403459977 14.211380799943667 L5.196183341460014 14.203709235943704 L5.189909865460024 14.193033853943716 L5.1922708454600155 14.184677896943667 L5.194641185459986 14.174053278943715 L5.185227071460005 14.162596003943717 L5.179514603459992 14.145625591943682 L5.191285597460009 14.141391400943716 L5.193651753460003 14.116493923943692 L5.186661541459998 14.09909708194371 L5.16878047246 14.088496294943665 L5.166249629460012 14.076126893943664 L5.1672261924600065 14.06896543594368 L5.170318640459968 14.06147845594367 L5.1713765834600025 14.054479757943708 L5.166249629460012 14.048213481943689 L5.155629512459981 14.045772075943686 L5.149037715459983 14.050654888943681 L5.146246921460019 14.066695918943678 L5.139230647459996 14.074994197943708 L5.126789775459983 14.070447077943667 L5.1096911594599845 14.07343091894367 L5.091063905460018 14.062825278943675 L5.070130890459993 14.062014243943706 L5.070546504460012 14.035925070943703 L5.072987911460004 14.021846294943684 L5.0864890234599756 13.98988194694371 L5.09737712446001 13.976017382943693 L5.092729516459983 13.963172130943716 L5.102075053459984 13.95563602094367 L5.119958505460019 13.95944074594368 L5.138336218459969 13.945186138943681 L5.155995723460009 13.945755799943667 L5.168187065460003 13.947429600943705 L5.173617081459994 13.958764275943706 L5.163489032459992 13.97309534094367 L5.161138673460002 13.98668275394371 L5.17048080045997 13.994249958943696 L5.183502234460022 14.000850200943686 L5.202317363459983 14.01542210794369 L5.210105948459997 14.0048617739437 L5.21090766346002 13.983725764943669 L5.216373463459988 13.962595653943678 L5.231191198459996 13.918066558943705 L5.2397735214599805 13.887865262943675 L5.23916629645997 13.867630799943667 L5.242747025459991 13.840612570943703 L5.254384395460008 13.807979106943689 L5.265940385459984 13.776484966943682 L5.282826778459977 13.693477153943688 L5.276234981459979 13.618932882943708 L5.268056270460008 13.582149028943688 L5.242989052460004 13.511549741943695 L5.189809200459976 13.441279888943681 L5.15713606145998 13.41103852994368 L5.093129512459981 13.327591737943719 L5.013140136460024 13.225704377943684 L4.9807433864599915 13.190289798943665 L4.973142262459973 13.166072846943704 L4.958608028459977 13.144160747943685 L4.947616136459985 13.100146823943673 L4.952417699459986 13.06481409294369 L4.947857492459988 13.023912650943684 L4.932118770460008 12.997920513943681 L4.921783484460022 12.985957622943685 L4.8530172084600025 12.92834043594368 L4.834055619459988 12.904658794943684 L4.791615840459983 12.8225461649437 L4.782297806459994 12.809362570943703 L4.783437129460012 12.782669862943719 L4.782623327459973 12.773311138943681 L4.774770137459981 12.763626893943664 L4.759323638459975 12.748404733943714 L4.727910116459995 12.70640907894372 L4.684073894460013 12.677382641943693 L4.665011292459994 12.663335915943689 L4.652333614460005 12.636673768943664 L4.672963497459975 12.610713481943689 L4.681660723460013 12.573206771943687 L4.673204992459986 12.535040796943717 L4.638661739460005 12.50646543594368 L4.610444543459991 12.456637947943674 L4.5151265834600025 12.404089132943708 L4.457834916459987 12.380326112943719 L4.446889278459977 12.379756450943686 L4.443227168459984 12.374629497943685 L4.425771114460005 12.35835345594367 L4.419545528459977 12.348750591943682 L4.417144812460023 12.334753195943703 L4.419911739460005 12.326045513943681 L4.423980749459972 12.318477153943688 L4.425771114460005 12.307734966943682 L4.410146114460005 12.26818418594368 L4.37511193445998 12.242956320943703 L4.349680619459988 12.23530658094367 L4.331207312460023 12.229772726943706 L4.28917443445998 12.225866476943706 L4.297597286460004 12.2073117899437 L4.308990515459968 12.192988872943685 L4.319000280459974 12.177038351943706 L4.323354122459975 12.153193950943686 L4.318186478459992 12.086055278943688 L4.309722937460023 12.06343158094367 L4.3022359584600025 12.0334836649437 L4.297719356459979 12.023555278943688 L4.282379187460023 11.999873638943681 L4.2768453334600025 11.979284445943703 L4.282649922459981 11.954571846943706 L4.267716837459986 11.930815992943705 L4.267754260460023 11.921828881943695 L4.286112495460017 11.924364343943664 L4.2970308204599945 11.91052995494371 L4.293004958460003 11.8901318859437 L4.268666622459975 11.845332622943685 L4.264272090459983 11.824092388943681 L4.2531636924600065 11.800410747943685 L4.238637325459976 11.781205018943664 L4.224029577459973 11.773392518943664 L4.211090124459972 11.768835226943706 L4.199859655459974 11.758255799943667 L4.182729122459975 11.736120382943708 L4.179351843459969 11.729365825943686 L4.186350541459987 11.719844341943682 L4.186147090459983 11.711299419943684 L4.182200150459991 11.703486919943684 L4.165110306459994 11.683955669943684 L4.15135705146001 11.65880918594368 L4.143625931459994 11.647741476943706 L4.134633418459984 11.643021424943667 L4.123769161460004 11.639928976943706 L4.116078731459979 11.632279237943719 L4.10362755945998 11.615108013943681 L4.086293575459976 11.603877544943684 L4.043284135459984 11.584753195943703 L4.01073205146001 11.557734966943682 L3.85558068445998 11.476436138943681 L3.8299052284599924 11.457393169943684 L3.81683387345997 11.446310109943708 L3.819240640459995 11.433896587943677 L3.8170734414600105 11.410757261943699 L3.8120008164599852 11.39098596894368 L3.8189564034599783 11.384817629943681 L3.81612303846002 11.376339940943664 L3.8242407894600063 11.367923612943711 L3.8334598884600126 11.36741189394368 L3.845533454459982 11.370299579943689 L3.854757726460022 11.364713495943674 L3.866291280460004 11.360830339943702 L3.870413534459985 11.345062552943686 L3.8694064624599918 11.319110904943697 L3.855759932459975 11.295915400943697 L3.8454902634600074 11.281187459943707 L3.851328803460021 11.269390049943665 L3.830722322460005 11.24668335694369 L3.8354010554599967 11.236565707943695 L3.8251081484599894 11.218972818943682 L3.829774116459973 11.210551688943694 L3.8212250584600014 11.191276268943708 L3.802783902460007 11.168454067943712 L3.8068691864599913 11.160008605943714 L3.8172844644599735 11.150471197943686 L3.808209219460011 11.130112558943692 L3.799709286460015 11.11425996394368 L3.8009482364599734 11.101292234943712 L3.793551812459995 11.081513515943668 L3.7827418114600135 11.06396057194368 L3.767934867459971 11.044691737943678 L3.7525362724600058 11.022028061943699 L3.754920765459971 11.006240731943675 L3.7291565304599743 10.986283143943664 L3.710935344459969 10.969762639943694 L3.7110387554600237 10.955085141943668 L3.7162871964600157 10.946066033943707 L3.699213135459999 10.922844865943686 L3.700414379460014 10.915517879943677 L3.671620723460009 10.8889524149437 L3.656408438459991 10.87803743894372 L3.6506246294600118 10.86616595594367 L3.644887325459976 10.855342388943681 L3.637196895460008 10.846797466943682 L3.615590450459976 10.827754497943685 L3.5521176734600175 10.720383491943691 L3.554519991459969 10.709108208943716 L3.541498486459986 10.68477914194372 L3.522043900459991 10.669795513943681 L3.4955953334600025 10.647904237943719 L3.497791844459968 10.63206684694367 L3.48693114745997 10.609975135943698 L3.468626087459981 10.586112277943668 L3.453114864460005 10.566768169943684 L3.451161739460005 10.55724668594368 L3.4592598264600127 10.547739720943666 L3.4576640084600143 10.53647579894371 L3.4462789264600104 10.525752544943684 L3.4082861134599938 10.501517868943692 L3.4067539874600214 10.482344794943712 L3.4059177894600197 10.45590211394372 L3.387196895460008 10.440547466943682 L3.378542378459983 10.431420137943716 L3.3764223014600105 10.415587656943698 L3.368579405460011 10.394660977943685 L3.3733588244599986 10.382838273943689 L3.3636743224599712 10.368686726943706 L3.3591562344599737 10.355126075943671 L3.339749002459982 10.333548430943692 L3.2974942864599797 10.295404719943717 L3.288527818459997 10.275037834943673 L3.2817555044600084 10.26484009294367 L3.2812550114600043 10.254678004943711 L3.2898582654599835 10.25304717694368 L3.296121651459984 10.24740934294371 L3.2944765784600207 10.234967435943672 L3.2853825674600188 10.223037734943686 L3.288280615459982 10.216839217943713 L3.2866635574600167 10.204978631943701 L3.2861477374599843 10.196500922943668 L3.270186752459992 10.174872378943716 L3.2661141464599694 10.151380109943686 L3.260551469459969 10.140612219943675 L3.2518248544599686 10.127030789943687 L3.2490224004600208 10.116851862943717 L3.2386075014600095 10.1128239339437 L3.235195871459993 10.108280734943689 L3.2294604944599854 10.106542977943688 L3.227782288459977 10.100883121943665 L3.2295487644599774 10.095814580943708 L3.2353497654599863 10.08964860694371 L3.2342468634599726 10.078888375943704 L3.235106705459984 10.067161732943672 L3.2341671504599816 10.054720787943692 L3.22961016445997 10.039077410943689 L3.222489052459977 10.029971103943664 L3.2208320124599794 10.012933328943715 L3.2251987244600144 9.992719816943717 L3.2341994484599894 9.979037535943716 L3.234668152460003 9.947777953943698 L3.1951777174599982 9.912599238943669 L3.162967242459999 9.875911294943675 L3.1565538224599976 9.852400780943666 L3.139658372460005 9.834975357943703 L3.131627632460024 9.816949903943707 L3.121571916460013 9.806892398943686 L3.1096171684600193 9.786194361943698 L3.094186792459979 9.769426083943669 L3.0896551964599865 9.738774406943689 L3.0960191604599885 9.710923167943717 L3.0770562944600073 9.700706971943672 L3.0731895374599816 9.684066986943689 L3.074073111459981 9.670162384943664 L3.0646871294600118 9.655879497943685 L3.0581767134599858 9.631709575943686 L3.06639525145998 9.617897018943692 L3.0790126894599865 9.605424317943713 L3.070877229459981 9.589376459943677 L3.0577955344599985 9.58921370294368 L3.036975224460022 9.573733510943695 L3.032477022459986 9.54641647894371 L3.0354140484599696 9.529842800943667 L3.0430781464599903 9.521993909943687 L3.049336819459981 9.516121170943704 L3.038363358459989 9.511949873943676 L3.0294971864599773 9.50048745394369 L3.0211080284599774 9.494909445943703 L3.015492793459984 9.482214132943708 L3.002756791459987 9.47749408094367 L2.9889221554599743 9.478877544943684 L2.980133093459969 9.484248638943681 L2.95760487246001 9.45903227794369 L2.9563381454599806 9.449721837943711 L2.9544160314600134 9.438413261943678 L2.9450412854600216 9.432354646943706 L2.937367793459984 9.423620382943708 L2.9465154814599686 9.417087165943682 L2.9553342114599985 9.40985664794371 L2.9668067564600022 9.407300632943672 L2.9743874514600037 9.387444382943697 L2.9759021594600057 9.367530754943713 L2.9666795934600003 9.343532300943677 L2.9479363054600043 9.332080517943693 L2.928430581460006 9.326559905943695 L2.913563981460001 9.332406802943664 L2.905525391459989 9.337721289943685 L2.9021668454599734 9.345715909943719 L2.906742682459978 9.353678678943679 L2.9072118724599676 9.36624363794371 L2.9118216504599985 9.3862522479437 L2.910983703460019 9.398175509943682 L2.8996436174600007 9.394785268943705 L2.886424894459978 9.367441813943712 L2.8670665164599853 9.345333691943692 L2.8529355864600205 9.330516175943698 L2.853696143459999 9.31988230994372 L2.849695499459969 9.314523844943691 L2.8544513514599856 9.30991272294372 L2.8699082294599947 9.315378378943675 L2.8935234774599934 9.322320799943695 L2.8995610264599776 9.31432193194368 L2.904399883460016 9.302422806943666 L2.904639703460006 9.282180497943697 L2.8960604444600193 9.25821778794372 L2.885417390460006 9.243511913943705 L2.87206402946002 9.231437714943665 L2.858596208460014 9.230661720943685 L2.8403654854599694 9.233172090943667 L2.8316645374600142 9.226452551943707 L2.8223689734600015 9.21042180894372 L2.8238692424600202 9.193816764943703 L2.830760256459982 9.177259475943712 L2.8355796004599796 9.167332240943692 L2.8269050694599827 9.158616269943677 L2.802712187460017 9.149759222943684 L2.802127865460008 9.139117161943686 L2.810217239460016 9.141186882943684 L2.8149988574599973 9.134584045943681 L2.81517916645997 9.112647936943715 L2.8093188504599738 9.087326961943715 L2.8013452344600154 9.071951129943697 L2.790059595460022 9.051226359943682 L2.782093694459988 9.036515501943681 L2.7673788704599787 9.019058396943676 L2.746816036460004 8.99084043594368 L2.6997906774599727 8.92910567694369 L2.701905242459972 8.919810596943675 L2.701996640460024 8.910502471943714 L2.7094826394600062 8.90192303994368 L2.721038993459999 8.894012998943678 L2.723344536459976 8.865451794943707 L2.718832483459991 8.84217178594369 L2.721008351459986 8.826905782943667 L2.7138157454599963 8.800940120943691 L2.7047625274599767 8.762321175943695 L2.674631791459987 8.720820903943688 L2.6443583534599924 8.68224668594368 L2.6048482624599814 8.645300070943703 L2.58214318445998 8.628535747943685 L2.550771114460005 8.616491476943706 L2.5362447474599747 8.604609966943682 L2.523828887459999 8.589519385943701 L2.5292969514600117 8.576945814943683 L2.539449133459968 8.578404517943708 L2.544763595459969 8.581099890943703 L2.5575331164600215 8.571892885943695 L2.562427980460015 8.551342904943708 L2.5619654974599797 8.530755177943687 L2.500402971459991 8.440693508943665 L2.498605386459971 8.418757661943713 L2.4741343864600225 8.385972403943667 L2.4783505674599695 8.371414376943703 L2.4457346984599866 8.334559028943685 L2.339867272460012 8.243644298943677 L2.3394343294599906 8.219066356943669 L2.2803446814599937 8.179642518943664 L2.1643778854599844 8.092647075943686 L2.1123774734600005 8.034704587943706 L2.0800099354599837 7.987782162943715 L2.068391141459969 7.946426042943669 L2.0193733584600153 7.8914085109437035 L2.007558223460009 7.8803261129437185 L1.9981484834599854 7.869923034943694 L2.0029245524599872 7.862663571943669 L2.0150438384600164 7.858801652943695 L2.02724954645997 7.847628017943718 L2.0288037274599873 7.828380469943708 L2.0156474184599773 7.804330332943691 L1.9798401114600068 7.747478782943714 L1.9085250904599746 7.6497029659437015 L1.8815816614600038 7.617630799943667 L1.879656139459982 7.593568953943672 L1.8744933274600015 7.57490431594371 L1.875356075459976 7.565303325943686 L1.8861517484599943 7.553773601943673 L1.8903292904599738 7.540533247943669 L1.8792271254600195 7.511158467943714 L1.8674064674599862 7.485082019943688 L1.8683108434599802 7.466494267943714 L1.851330897459988 7.420385916943671 L1.8193857904599753 7.38574414794371 L1.7803147954600007 7.346105485943694 L1.767078526459997 7.332003012943714 L1.773360648460013 7.310803403943707 L1.7750050664599684 7.284904837943683 L1.7558502294599947 7.260771177943665 L1.649624994459984 7.154925042943686 L1.5978276114599765 7.103741815943719 L1.586614099459993 7.082968831943701 L1.5325419474599897 7.037471294943684 L1.5187090424599745 7.0060190379436715 L1.5150745594599897 6.974084650943693 L1.499411013460005 6.941348928943709 L1.4756851084600129 6.911840521943672 L1.459543900459991 6.894893169943684 L1.3451742184599738 6.804604924943673 L1.2946607644599766 6.772706190943692 L1.1659947334600105 6.6984416349436895 L1.0038836484600182 6.616646484943685 L0.7364300374600106 6.483444411943678 L0.673562517460013 6.453685577943672 L0.6109621254599773 6.3934913959436965 L0.5380222664600041 6.343379748943702 L0.4501962664599972 6.293064742943697 L0.3626335434599781 6.226061883943684 L0.33327944945999377 6.188555129943692 L0.3126705984599738 6.129867049943668 L0.31505150546000493 6.090001532943715 L0.3147045224600191 6.046384348943688 L0.3138748584599824 6.037067135943714 L0.3346784974599899 6.01980379094371 L0.34049932146000117 6.000347832943673 L0.34523670245998517 5.993901095943697 L0.3677462434600187 5.992557514943682 L0.3783040204599928 5.969503540943689 L0.37941819545999067 5.953678525943671 L0.38889658345998157 5.940779220943709 L0.4065924934600247 5.941967819943697 L0.4258115694599809 5.972096941943702 L0.4545282654599845 5.9855737399437015 L0.4924977314599772 5.999951045943673 L0.5241597864600038 6.00483783094367 L0.5606994994599717 5.968623638943681 L0.6000782834599789 5.897930262943673 L0.6078787634599934 5.804455430943703 L0.5828745114600196 5.727862088943679 L0.5322664414600098 5.617809228943683 L0.5020239024599817 5.584040556943675 L0.4088033404599827 5.493932882943708 L0.39189473745999237 5.472914559943687 L0.3696352554600111 5.4670370019436785 L0.3564970654600046 5.471452887943682 L0.33248435846000746 5.454395698943669 L0.3115946814599937 5.421667257943708 L0.28587853646000383 5.392533143943664 L0.26561486446000515 5.362096945943703 L0.27055169646000365 5.352289524943698 L0.27721294745997227 5.344018700943677 L0.29038218546001815 5.338596826943698 L0.2981030334599808 5.318321540943684 L0.29450836945999015 5.307165786943669 L0.2862682514599868 5.296854814943712 L0.28740105045999087 5.2838799369436895 L0.30147432445998845 5.280335852943692 L0.29704684845999907 5.2626736699436645 L0.2926902884599798 5.24129285094372 L0.301318500459999 5.226566044943665 L0.3171523224599895 5.22862605794367 L0.33496441046001735 5.218684940943687 L0.3515172124599957 5.235577872943706 L0.3813332274599901 5.233207709943683 L0.3965004854600096 5.211195461943673 L0.40073583545999725 5.176036633943708 L0.3790692824600086 5.128479538943706 L0.34601379446000635 5.094648471943712 L0.3146831934599703 5.0710269329436795 L0.290950804459996 5.03545034494371 L0.2745890794599717 5.005531902943714 L0.2406902064599734 4.960481914943697 L0.16060488146000296 4.874711946943675 L0.1265330504599973 4.832298120943703 L0.13140275345999441 4.8184409459437045 L0.14370179145997497 4.812186836943708 L0.15883783745998414 4.797561389943693 L0.15617728345999637 4.777890611943716 L0.14757287245997475 4.755244731943689 L0.1561584844600219 4.70405658094367 L0.15660607545997607 4.688268820943703 L0.15095015045999105 4.670283794943684 L0.14142866645998708 4.6498573629437185 L0.13516239046002454 4.630651632943708 L0.13927209045998268 4.615596294943684 L0.14977013745998136 4.606318950943686 L0.1567281454600078 4.601354757943708 L0.1627502804599743 4.595658143943664 L0.17027795045997607 4.584427674943667 L0.18456017646001044 4.550410747943685 L0.18492638745998136 4.5276242899437005 L0.17027795045997607 4.471553325943686 L0.17512007245998973 4.45177793594368 L0.18643192145997034 4.428096294943684 L0.2000631064599787 4.406367778943688 L0.21129357545997607 4.392695903943688 L0.2984517784599774 4.333369731943689 L0.3211161664599871 4.310176372943685 L0.3397522344600219 4.277217388943681 L0.35374962946001176 4.261592388943681 L0.3726705284599774 4.255000591943682 L0.39077762445997166 4.250768820943703 L0.4016011924600065 4.2397011129437185 L0.41734826245998136 4.207149028943688 L0.4711812704600078 4.126094341943682 L0.502512650459991 4.093379497943685 L0.5402730674600065 4.063838481943689 L0.5811666224599747 4.040889263943681 L0.5963033404599827 4.026729106943689 L0.6022847864600038 4.005733013943681 L0.6049703334600025 3.9832720759436864 L0.6117248904600245 3.962275981943689 L0.6296285364600038 3.9272011129437185 L0.6564840044600118 3.8934283259436864 L0.6923726764600104 3.8641314509436864 L0.850982702459973 3.7696490289436877 L0.8795064654599827 3.742061138943681 L0.9217834844600219 3.680130799943667 L0.92784630945998 3.6592974669436824 L0.9359029504599761 3.6560422579437084 L0.9459127154599827 3.6544146539436877 L0.9548238484600091 3.649206320943703 L0.970367468459969 3.6431841859436798 L1.0399068564599787 3.6454628309436696 L1.0590718954600078 3.6412310609436798 L1.0795797084600025 3.632686138943681 L1.0958557494599717 3.6195025449436837 L1.1026103064599937 3.6016802789436877 L1.105377234460022 3.5906939509436864 L1.1186422084600025 3.5681516329437084 L1.1230367394600052 3.5572466859436798 L1.1233619127894912 3.547491476459127 L1.130187421460036 3.5510463329436828 L1.1464654974599426 3.559521267943678 L1.1843443224599497 3.56954649594371 L1.1984261504600653 3.5803985469436537 L1.1963074164599874 3.597865180943698 L1.1902095974600257 3.6186391059436556 L1.1924575224600318 3.63951638594372 L1.1985295034599943 3.6450974399436387 L1.2150142854600716 3.6519187289436825 L1.2214221624600015 3.6591534299436557 L1.2237992784600493 3.668041775943676 L1.2238251164600484 3.6778602989436404 L1.221964764459969 3.696980577943732 L1.214187462460032 3.723955675943669 L1.2141099474600168 3.7317071409436675 L1.2205436634600773 3.73863178294374 L1.230413862460054 3.7418357219437137 L1.2390955024600174 3.7458664829437094 L1.2418085154600504 3.7552715939436734 L1.2419635444600061 3.766433702943699 L1.247699628459955 3.7855539829436946 L1.248888186459979 3.796509386943681 L1.2473120554599433 3.80643126194367 L1.2408008254599707 3.8258615999436483 L1.2391471784600157 3.834646593943644 L1.2391471784600157 3.8446718219436615 L1.2401031934600013 3.8524232859436705 L1.246226850459962 3.871130154943655 L1.2472345404600134 3.8809486769437154 L1.2439014104600261 3.8887001419437137 L1.2396381054600596 3.895624783943701 L1.2377777534600654 3.903272895943685 L1.2424544704600322 3.92342670394366 L1.2625307644599815 3.9554660929436647 L1.2713674344599752 3.9756199019436433 L1.2726335074600144 3.9846115999436886 L1.2726335074600144 4.003111762943702 L1.2753206814600588 4.011690049943651 L1.2840281604600108 4.021818631943686 L1.2929940214599611 4.027606391943662 L1.299040163459992 4.03349750594367 L1.2990167854600116 4.034689759943644 L1.2988334574600486 4.044039496943638 L1.2829429554600296 4.0619195429436825 L1.205014895460053 4.097679633943612 L1.1908038764600093 4.115249620943684 L1.1762827984600364 4.138400662943665 L1.159462120460077 4.1591745889436265 L1.138584841460002 4.1694065219436975 L1.1198262964600048 4.165582465943656 L1.0776324894600435 4.142948188943704 L1.0569877554600424 4.136436958943646 L1.0366272404599925 4.13530007694372 L1.0163959174600024 4.136747016943714 L0.9979474314599912 4.142121365943678 L0.9830129424600358 4.152766710943679 L0.9721092154599802 4.168889757943658 L0.9605078554600226 4.193074327943718 L0.95187789245999 4.21818907494365 L0.9517967234600206 4.219027819943689 L0.9500175404599673 4.237412706943671 L0.955030154460033 4.249815050943651 L0.9714890974600081 4.272449328943692 L0.9769151234599889 4.285265082943679 L0.977251020459974 4.294670193943629 L0.973401125460029 4.313687120943696 L0.9733236114600032 4.322988878943631 L0.9944851104599621 4.367223904943641 L1.0293667014600345 4.370944607943654 L1.072671552459994 4.358128852943677 L1.1188186064600387 4.3524444449437265 L1.1077856874600371 4.374561957943724 L0.9755456974600207 4.5499517699436876 L0.9717991564599942 4.567004991943717 L0.9805583114599727 4.587985622943718 L0.9941233754599494 4.600077908943701 L1.0389785184600413 4.625502712943712 L1.0555924914599615 4.631497178943645 L1.0733433454599748 4.630980414943705 L1.0812240014600292 4.630256944943708 L1.090835818460036 4.621575304943745 L1.1317893904600425 4.599664496943701 L1.2086839224600539 4.540753364943695 L1.2244193964600214 4.5238034949436905 L1.2318866404599618 4.507990506943683 L1.2421444124599503 4.4729538859436655 L1.2506451854600442 4.4588978959436485 L1.2590426054600385 4.452179959943718 L1.2693262154600262 4.44711566994374 L1.2802557814600135 4.443394965943638 L1.3210026474600767 4.438123969943701 L1.3238448514600378 4.437090440943718 L1.3302268914600717 4.447942491943676 L1.3468667014600015 4.453110135943673 L1.367227216460023 4.456830838943686 L1.384435468460012 4.463032010943676 L1.4024705434600122 4.478431587943659 L1.4348199894599958 4.513674913943644 L1.4549996364599878 4.527834255943686 L1.482078086460021 4.5426137159437 L1.5080713324600055 4.545714301943731 L1.5337545194599755 4.5460243609436315 L1.5600061474600153 4.552638943943718 L1.5853534374600002 4.575996690943667 L1.606359906460014 4.607312608943671 L1.6312162704600581 4.632944119943643 L1.6683457874599554 4.638731879943704 L1.7354993104599856 4.6180613069437 L1.769967491460065 4.5975974399437245 L1.8061151564599953 4.592739854943714 L1.833762046459995 4.606485786943649 L1.884249921460011 4.656301866943691 L1.8920530634600397 4.66002256994369 L1.906315757460007 4.670564562943666 L1.91246525346007 4.673871854943668 L1.9365464714600051 4.673665147943707 L1.956881147460038 4.685550727943733 L1.9624622024600598 4.694955838943683 L1.9599558944599806 4.709631944943679 L1.9369082064600178 4.75055967994369 L1.936236412460019 4.772057075943733 L1.9653819204599614 4.814638455943706 L1.9768799264599721 4.873963000943631 L2.0030540394599967 4.9231589629436865 L2.0032674354600744 4.9244494209437 L2.0063354934599857 4.943002713943683 L2.0135185164600244 4.964190050943641 L2.0307784444600117 4.977935981943672 L2.0513973414600315 4.98878803294363 L2.0687606224599477 5.001603787943706 L2.0741608104600147 5.010492133943712 L2.080672040459987 5.030232530943691 L2.086020551460038 5.038810818943714 L2.09472803045999 5.045115342943729 L2.1142358834600117 5.0524533979437205 L2.1230467154600063 5.0582411569436925 L2.136250043459981 5.077258084943663 L2.1469212264599804 5.098393744943705 L2.160873863459969 5.115240261943681 L2.183818199459992 5.121338080943643 L2.2304018854600116 5.119641661943701 L2.2547699414599975 5.118754259943641 L2.272339927459953 5.121648139943629 L2.3057745804600387 5.133327013943697 L2.32324121345998 5.137254421943664 L2.333421470459953 5.1368410109436535 L2.3495703554600453 5.132810249943658 L2.3599314814600376 5.134050483943694 L2.3707060164599767 5.139114773943673 L2.3816355824600492 5.147072944943643 L2.4001615834599903 5.1653664019436984 L2.428997032460032 5.1414918899437065 L2.4548094104600438 5.114103380943673 L2.4619924344599866 5.093122749943673 L2.4730770294599864 5.044391873943637 L2.483748212459986 5.027958767943671 L2.503824506460049 5.022894477943693 L2.5301278104600016 5.022687771943636 L2.5532788524599965 5.017520128943643 L2.563872520459981 4.99767637894365 L2.5587565544599755 4.973801866943743 L2.5361997914600494 4.928843370943637 L2.5354763214600524 4.901454861943689 L2.546741783460007 4.873963000943631 L2.565448651459988 4.848228136943645 L2.6110272644599917 4.806266872943636 L2.6528076614600167 4.7827024209437194 L2.744378299460024 4.746218859943708 L2.7551558034600276 4.739102192943646 L2.7824121524599406 4.721104113943694 L2.7914296904599922 4.704981065943711 L2.7926440864600153 4.685757432943687 L2.791713910460075 4.665810330943669 L2.794297732459981 4.647413520943671 L2.808741294460006 4.624159125943661 L2.8241925484600046 4.6052455519437085 L2.8268797234600385 4.589122504943644 L2.803108563459986 4.574653103943701 L2.790938764459966 4.555532823943706 L2.782877240460053 4.518429145943726 L2.7816628444600298 4.480912055943731 L2.78995691146001 4.459931423943642 L2.8083537224599837 4.444635199943674 L2.8169836854600447 4.425101508943667 L2.8265179874600364 4.381383246943683 L2.8874703394599948 4.254052517943689 L2.898167361460011 4.20971413994374 L2.897185509460016 4.150182888943673 L2.902017255460052 4.133749783943612 L2.912197512459997 4.12320779194374 L2.9233337844600413 4.1203139119436525 L2.935451906460017 4.119383735943698 L2.94837101546004 4.115352973943699 L2.9623236524600287 4.107704861943629 L2.9664577664599534 4.103570747943705 L2.9663802524600413 4.096646105943632 L2.9762504504600003 4.022645454943627 L2.9834076364600577 4.003525174943716 L2.993717084459959 3.9841981889436777 L2.99976322645999 3.979650662943639 L3.0120880554600404 3.9738629019436598 L3.020020388459997 3.968798611943681 L3.0444116644600427 3.9450274529437177 L3.050509484459994 3.9258038199437078 L3.0377195664600123 3.861208279943652 L3.037667890460014 3.8485992299436287 L3.0382363304599522 3.843431586943721 L3.042990562460048 3.8417779419436737 L3.0557288034600134 3.839607531943683 L3.063351077459984 3.8338197709436184 L3.063997032460051 3.824104601943672 L3.0598370794600243 3.8037440869436505 L3.0593719914599973 3.7677772899436643 L3.0616974314600185 3.7483469519436863 L3.068415367460048 3.7277797319436967 L3.086838015459975 3.6876788209437006 L3.0882187314599747 3.6833422769437174 L3.1011523874599476 3.6427203239436903 L3.108800499460031 3.5995188269436493 L3.1093947784599862 3.5885634239436808 L3.1032969594600246 3.568926378943642 L3.1023667834599706 3.5625185009436944 L3.1132963484599685 3.5436049269436563 L3.130117027460031 3.5385406369436776 L3.151071820460018 3.5414345169436654 L3.1944025094599766 3.553526801943745 L3.2069082064599996 3.5635520299436774 L3.2144012884600244 3.5785381949437447 L3.2282247334599816 3.642823677943708 L3.2377848744600755 3.661013781943664 L3.2514016134599757 3.654502550943688 L3.267240440459986 3.6415834429436824 L3.28496545646 3.63775938694374 L3.3003650334599826 3.6312481559436787 L3.3095634384600743 3.610784288943618 L3.3074447054600142 3.5832924269436415 L3.294887332459993 3.568926378943642 L3.279126020459998 3.5577642699437018 L3.267576337459971 3.5395741659436606 L3.2676796904599854 3.517663357943702 L3.2794877554600106 3.50350401594366 L3.3159196404599953 3.476425565943698 L3.3282703064600554 3.458648872943682 L3.359172813460063 3.3994276809436865 L3.3732288034599804 3.384028103943704 L3.421546267460016 3.343927192943708 L3.522625369459959 3.208534939943716 L3.5962642854599807 3.1442494579436566 L3.615074506459976 3.1346376419436393 L3.653721167460006 3.121142938943704 L3.6813753694600138 3.1114865999436585 L3.807104128460068 3.067561632943706 L3.932884565460043 3.0236366649436786 L4.058613325460001 2.9796083459437153 L4.184342084460056 2.935683377943688 L4.310070844460014 2.891655057943721 L4.435902957460016 2.8477300899436795 L4.561631717459974 2.803805122943741 L4.687412152460055 2.7597768019436852 L4.779499554459974 2.727634061943659 L4.794429021460061 2.718582747943655 L4.838824099459984 2.6916672649436872 L4.8954614694600735 2.6482590619436888 L4.955147749459982 2.6025770949436815 L5.014834028460015 2.5568951289436637 L5.074468630460004 2.5113165159436743 L5.134206586459939 2.4655311969437275 L5.193841189459945 2.41984922994372 L5.25357914546008 2.3742706179437345 L5.313213747459983 2.3285886509437272 L5.372848350459989 2.2829066849437094 L5.422819460459962 2.224719021943711 L5.472738894460022 2.1666347119437273 L5.522710004459995 2.1084470499437185 L5.572629437460066 2.050259386943706 L5.62254887246003 1.9920717239436936 L5.672545819460012 1.9338840609436811 L5.722465253460072 1.8756963989436723 L5.772358848459945 1.8176120889436884 L5.812614789459971 1.7706898879436448 L5.8675468374600115 1.719736925943705 L5.883350482460017 1.700633618943682 L5.891059613460001 1.6913148879436743 L5.904056236460022 1.6565883249436535 L5.9187581814600065 1.5988140739437409 L5.948782189459976 1.4809918089436405 L5.978806195460024 1.3630661899436927 L6.008830202459976 1.2451405719437485 L6.038854210459945 1.1273183059437297 L6.051514936459981 1.0779156359437092 L6.057690269459968 1.069130642943632 L6.086034792459955 1.0951755649437 L6.0996773714599755 1.1108852009436685 L6.10549096945995 1.1209104279436968 L6.115361168460041 1.1289719519436812 L6.1381504744600335 1.1294887159437206 L6.180602664460039 1.124424425943742 L6.227886599460007 1.124424425943742 L6.236826621460025 1.1238043079436846 L6.236594078460072 1.1170863729436586 L6.229333539460001 1.1071644979436694 L6.219747561459982 1.0987929159436884 L6.212021934459997 1.0874240999437017 L6.210187421459992 1.0781223429436704 L6.2117893904600265 1.0608624139436795 L6.211479332459945 1.05187071494373 L6.16706343946008 0.9009755329437308 L6.167476850460005 0.8884698359437362 L6.173833051460022 0.8704864369436631 L6.175951785459986 0.8602545039436773 L6.175435021460046 0.85012592394372 L6.171145876459988 0.8317291129437177 L6.170112348459995 0.8219105909436575 L6.174659873460044 0.810025011943635 L6.185331057460033 0.8028936639436903 L6.197449181460044 0.7966924919437002 L6.206440879459976 0.7871840279437219 L6.208507937460027 0.7782956819437015 L6.20711267346006 0.7707509239437496 L6.204787234460028 0.7635162229436911 L6.203960411460017 0.7552479939436534 L6.207060997460033 0.7159739049436791 L6.203391970460032 0.6974737419436519 L6.192048994460052 0.6796970489437069 L6.18755314346005 0.6781467569436881 L6.178173871460004 0.6830043409437092 L6.173109581460025 0.6819708129437299 L6.169233848459967 0.6772165809436483 L6.16406620546006 0.6657444129436367 L6.159802900460008 0.661093533943669 L6.1208130324600205 0.6308111449436336 L6.116730593459991 0.6249200319436437 L6.111020347459956 0.6217160919436662 L6.098695518459991 0.6227496209437344 L6.088437746460002 0.6209926219436692 L6.077094769460032 0.6139646279436572 L6.058465416460066 0.596394640943684 L6.029862510460006 0.5570171989436812 L6.0113623484599685 0.5146425249436657 L5.979322959460049 0.4016778439436717 L5.967902468459968 0.38710508994362947 L5.951934451460019 0.377079861943697 L5.930566246460032 0.3700518669436814 L5.9181897404600505 0.36374734194367697 L5.897260785459977 0.3440069459437023 L5.885116824459985 0.3366688919436154 L5.875375816460021 0.33532530494373525 L5.853955935460007 0.3369789509437009 L5.844524986459945 0.3349118929437349 L5.83545577245998 0.3244732539436921 L5.825688927460035 0.3049395619436961 L5.820883018460009 0.28282204994368776 L5.826489911459944 0.26545876894367204 L5.84108850346 0.2606011839436473 L5.859071902460002 0.26535541594364354 L5.8773136834599455 0.27269346894364155 L5.8929199654599955 0.2756907019437431 L5.91080001146004 0.2738303509437383 L5.924830161460065 0.2740370559436922 L5.938343549460043 0.27724099494366605 L6.008830202459976 0.31517149594367133 L6.034590904459989 0.3176519649436482 L6.06151432546001 0.29977191894368893 L6.069860069459978 0.299048448943692 L6.104069867459955 0.3039060339437025 L6.1200378854600075 0.3030792109436913 L6.133344566460025 0.29863503794368107 L6.1461344834599885 0.2923305129436624 L6.168742923460044 0.27631081894371157 L6.180602664460039 0.2610145949436582 L6.195743858459977 0.25574359894363674 L6.21155684645997 0.24354796094371345 L6.223959190460036 0.2287685009436995 L6.228971804459988 0.21595274694371192 L6.232382449460019 0.19662576094365924 L6.241994265460036 0.186393826943684 L6.2573421654600025 0.18308653494368166 L6.277392622460056 0.1852569449436725 L6.32240279346 0.19745258294368107 L6.343435101460003 0.20809792794368143 L6.362452029460073 0.22308409294364928 L6.401777793459971 0.277137641943737 L6.413353315459986 0.28829975194366675 L6.421854088459995 0.2912969839436794 L6.439398236459979 0.29171039594369397 L6.448725833460017 0.2945009239436569 L6.45497868146002 0.2992551549437348 L6.495880577460028 0.34369688694371625 L6.509213097460034 0.35403217294373057 L6.530632977460058 0.36343728394368036 L6.564765261460039 0.37077533694367837 L6.581379234460044 0.3767698039437004 L6.591378624459978 0.37594297994368553 L6.602618248460018 0.3671579869436936 L6.627552126460003 0.3272637809436656 L6.639437706460015 0.3244732539436921 L6.6603924994600305 0.3429734169437193 L6.6746293574599775 0.36302387294366945 L6.708761640459969 0.43227029194369315 L6.681243940460078 0.4531475699436651 L6.673389122460051 0.46658344194371004 L6.691088300460066 0.4726812609436717 L6.701397748459968 0.4738181429436832 L6.721086469460019 0.47888243394365126 L6.745968671459977 0.4812595499436991 L6.752247358459968 0.48425678294361596 L6.7564331494600225 0.48859760294369714 L6.763357791459995 0.4937652459436901 L6.768447919459973 0.4986228309436296 L6.771574343460017 0.5036871209436935 L6.7775171334600515 0.5074078239437068 L6.791340578460009 0.5080279419436788 L6.796379031459978 0.505547472943702 L6.802683556459996 0.5007932409437057 L6.811003461460032 0.4959356569436846 L6.821777997459961 0.4937652459436901 L6.831363975459979 0.5014133579436741 L6.859630984460054 0.5489556759436862 L6.901695600459973 0.5933974079436677 L6.927740521459967 0.6139646279436572 L6.988460329459954 0.6504481889436686 L7.000320070459978 0.660783474943683 L7.013523400460073 0.6755629349436969 L7.022205040460037 0.6895155709436818 L7.027553550459984 0.6917893349437048 L7.041170290459988 0.6923060989436447 L7.046131228460027 0.6966469189436264 L7.048275800460019 0.7066721479436477 L7.049373642459997 0.717750378943661 L7.049412681460026 0.7181443149436699 L7.051428062459976 0.7271360149437083 L7.0992029244600445 0.8301788199436952 L7.096825808459997 0.8372068149437109 L7.083958377460007 0.8482655719437115 L7.079333335460049 0.8568438589436465 L7.078945763460027 0.8759641389437416 L7.085896242460038 0.8905368929436985 L7.11977014446002 0.9280539829436929 L7.12653975745998 0.9326015089436321 L7.136229088460013 0.9354953889436199 L7.153514854459999 0.9360121539437483 L7.161292157460011 0.9394227989436796 L7.15348901646 0.9554424919436411 L7.1592509384599765 0.9671213659437097 L7.169482872460051 0.9776633579436815 L7.174960573460041 0.9902724079437046 L7.168966107460008 1.0013311639437017 L7.155039309460008 1.0013311639437017 L7.138942100459943 0.9985406369437424 L7.12653975745998 1.0008143989436729 L7.119666791460006 1.0125966259436705 L7.125764610459967 1.0216916789437374 L7.150724327460054 1.0384348429436852 L7.160697879460045 1.0517673619437016 L7.174960573460041 1.0970359169436232 L7.197336469460012 1.126284777943665 L7.22389815546002 1.140857531943622 L7.283558596460026 1.1517095819436616 L7.344459272459986 1.174963976943685 L7.371718590459992 1.1741371539436596 L7.38719568146 1.144888292943703 L7.398642011460012 1.1554302859436785 L7.422051435459977 1.2250901159436989 L7.426883181459985 1.2336684039437227 L7.434996381459982 1.240386339943667 L7.447295372460033 1.24555398294366 L7.452979779459966 1.2440036899436517 L7.458199099460003 1.2388360469437298 L7.469128664460058 1.2336684039437227 L7.472746015460032 1.229327582943652 L7.476260012460003 1.2229197059436228 L7.481298465459972 1.2202325309436883 L7.489618370460036 1.2273638789437182 L7.490755252460033 1.2356321079436707 L7.481401818459986 1.253202094943644 L7.4827970814600775 1.2614703249436854 L7.496465497459994 1.2688083779436834 L7.5276780624599695 1.2617803829436678 L7.544188682459961 1.2677748489437004 L7.549976443460011 1.2770766069437212 L7.565324343460006 1.3167641069437064 L7.583333580459978 1.34497943894368 L7.593074588460027 1.3554180789437122 L7.606923871460012 1.3645131299436866 L7.633614748459948 1.3739182409437358 L7.6496086054599886 1.3773288859436672 L7.661545860460038 1.3776389439436496 L7.678237347460069 1.3682338329436998 L7.69430871846005 1.342912380943714 L7.709372398460019 1.337331326943696 L7.717718142460015 1.35531472494368 L7.731722455460002 1.3705075959436197 L7.750687705459953 1.3811529419436095 L7.773890424460049 1.3850803499436761 L7.784975019460077 1.3882842889437352 L7.804017784460044 1.4023402779436633 L7.827530561460023 1.4091615679437108 L7.832698204460044 1.4180499139436318 L7.835282025460046 1.4291086709436467 L7.842542564460004 1.4446116009437429 L7.8440670194600415 1.4555670039436261 L7.84587569446002 1.4601145299436649 L7.849906456460005 1.4610447059437046 L7.863213137460022 1.4591843549436998 L7.866959679460038 1.4601145299436649 L7.870111941459996 1.4673492299437196 L7.872023969460017 1.4757208119437006 L7.873212527459955 1.4974249139437017 L7.875124555459976 1.5042462029436603 L7.879827110459942 1.5123077269436447 L7.885511518460007 1.5189223099436457 L7.901169476459941 1.5261570099437005 L7.896337730460019 1.536699002943676 L7.880653933459982 1.5557159299437284 L7.8898781764599875 1.570908800943668 L7.926956016459954 1.5882720819436837 L7.9381181254599795 1.605738715943728 L7.959202110460026 1.6212416459436394 L7.966927737460011 1.6319903439436683 L7.968813927460033 1.6419122189436575 L7.968633059459975 1.6524542109437146 L7.970028323459971 1.6655800249436918 L7.980544477460015 1.7073345819436394 L7.979562625460048 1.7264548619437203 L7.955274702460045 1.7408209099437197 L7.946670576460022 1.7560137819437482 L7.935275922460008 1.7890866979436435 L7.933105512460017 1.8277406689436457 L7.953155967459978 1.8525453569436916 L8.017803184460021 1.8921295039437336 L8.019250125460033 1.8958502069437468 L8.022557416460032 1.909286079943696 L8.024004357460015 1.9126967239437231 L8.028655235459993 1.9135235469436633 L8.039662315459978 1.9120766069436694 L8.053873334460022 1.9137302529437061 L8.06493209146005 1.9132134879436773 L8.077024376460017 1.9148671349437176 L8.089530072460022 1.922825304943684 L8.11355961345997 1.94463275894371 L8.123791547460044 1.946183051943633 L8.131387983459987 1.9351242949436323 L8.147511029459977 1.9194146599436532 L8.162858930460047 1.917554308943748 L8.196396935460044 1.9262359489437113 L8.202753135459986 1.922825304943684 L8.206835573459998 1.8963669709436868 L8.217067508459976 1.8963669709436868 L8.243784222460036 1.9263393019436403 L8.253396039460043 1.9332639439436274 L8.262697797459978 1.937294705943712 L8.271069379460059 1.9426690549436767 L8.27783899245999 1.9536244589437484 L8.270449261459973 1.9908314899436572 L8.275771934460025 2.0046807739437167 L8.299388063460029 2.0324826939436758 L8.305175824460022 2.049225857943723 L8.302953738460005 2.058424263943719 L8.292928510459987 2.0835390089436583 L8.29153324646002 2.0975949989436753 L8.295357302459948 2.11330463394364 L8.302126915459993 2.1264304479437026 L8.319490196459995 2.1521653109436993 L8.326259809459955 2.170872179943684 L8.33173751046003 2.193816515943622 L8.339540652460059 2.2147971469437078 L8.35302820146002 2.2274061969436456 L8.323572635460025 2.275878689943708 L8.314167524459961 2.297582791943709 L8.27783899245999 2.330345649943622 L8.268795616460025 2.341197700943665 L8.265540001460053 2.347812283943652 L8.264248090459986 2.3577341589437406 L8.266315147460048 2.3675526809437155 L8.275771934460025 2.3827455529436445 L8.27783899245999 2.388740018943677 L8.280991254459948 2.3937009559436273 L8.294633833460054 2.404139594943656 L8.297786095460012 2.40951394394372 L8.302695355460045 2.439382921943645 L8.305175824460022 2.4470310339437145 L8.321608930459988 2.4580897899436263 L8.365223839459944 2.4689418409436694 L8.37411218546005 2.4778301869436756 L8.38026168046001 2.4991208779436658 L8.393387494459986 2.4872352979436396 L8.40522139746001 2.4646010209436877 L8.407650190459961 2.453852322943673 L8.476534873459983 2.4916794719436535 L8.479790489460058 2.497363878943686 L8.494311566460013 2.510076280943734 L8.51131311346002 2.5562750109436916 L8.520821577460012 2.573018175943643 L8.52867639446005 2.579322700943747 L8.537926475459969 2.5792193469436295 L8.58030114945997 2.5707444119437195 L8.594098757460031 2.565783474943684 L8.60603601346007 2.554311307943662 L8.634613080460028 2.544182725943612 L8.65941776845996 2.531780382943735 L8.676109255459991 2.5375681429437105 L8.702412559460058 2.5562750109436916 L8.705048058460065 2.543976020943658 L8.709905642459987 2.534674263943627 L8.718018842459983 2.527439562943668 L8.730369509459948 2.521548449943664 L8.735330447459987 2.52867979694369 L8.739516238460041 2.5374647909436856 L8.742358442460002 2.5476967239436714 L8.745769086460015 2.5738449989436685 L8.751660200460023 2.576118761943688 L8.76824833446004 2.570537706943666 L8.780909060460075 2.558755480943672 L8.807264041460044 2.5041851679436444 L8.819769737460021 2.488062120943665 L8.838114871460007 2.4908526479436244 L8.855684857459991 2.500361111943702 L8.901108441460039 2.537051378943671 L8.919970340459955 2.5430458449437037 L9.022496381460016 2.559168891943683 L9.031436404460052 2.5669203569436814 L9.03655237046003 2.5790126419436756 L9.049833214460037 2.5911049269436557 L9.067506553460035 2.6005100379436197 L9.086058392460004 2.604747505943662 L9.108485964459973 2.6028871539436675 L9.148431847460031 2.592345160943692 L9.171686241460051 2.5898646929436335 L9.18026452945999 2.587177517943685 L9.183106733460065 2.5801495229436835 L9.182228234460027 2.5596856559437224 L9.18739587746002 2.5555515419436983 L9.213130739460027 2.550280544943673 L9.223155968459949 2.5494537229436514 L9.287699832459978 2.56433653494369 L9.30263432046003 2.5596856559437224 L9.346714318460002 2.509146104943694 L9.374671267460016 2.4849615349437197 L9.402576540460004 2.4740061309437333 L9.435132693460034 2.4735927199437224 L9.497816205460069 2.4824810659436434 L9.515437869460058 2.4781402469436653 L9.527736859460006 2.4658412549436246 L9.532336062459947 2.4436203889436836 L9.539674116459949 2.4358689249436747 L9.586906375459975 2.3992820099436454 L9.623028200459984 2.3440915799436493 L9.627885785460009 2.3337562939437344 L9.637962690460043 2.333032823943638 L9.696150352459952 2.296239204943644 L9.717957806459978 2.286317329943655 L9.725605919459966 2.2916916779437013 L9.724107302460041 2.3269350049436763 L9.73268559045998 2.343884874943681 L9.752064252460045 2.3407842889436505 L9.78555058045994 2.323524359943745 L9.809166710460048 2.327761827943702 L9.828855430460024 2.339544054943614 L9.84745894645998 2.3539101029436136 L9.868129519459998 2.3650722119436534 L9.925697065460028 2.3769577919436795 L9.936962527459983 2.3855360799437033 L9.941820111460018 2.4043462999437093 L9.94311202345996 2.4461008579436605 L9.950036664460029 2.461397081943714 L9.96595300645997 2.469045193943698 L9.973652793460062 2.457262966943686 L9.983522992460038 2.4197458779436953 L9.99742395246001 2.405483181943721 L10.007604210459974 2.4091005319437055 L10.025122520460044 2.4402097449436564 L10.048842002459978 2.47028542794372 L10.05245935345998 2.4806207149436386 L10.049720502460033 2.4890956499437333 L10.035922895460075 2.501497993943614 L10.031943810459993 2.509146104943694 L10.043260948459974 2.530023384943659 L10.077109011459967 2.5228920369437144 L10.148629194459986 2.488062120943665 L10.156484011460023 2.501808051943696 L10.175035850459963 2.497363878943686 L10.195913129459953 2.486408475943703 L10.21074426545998 2.4806207149436386 L10.221647993460024 2.483101183943715 L10.233636925460004 2.491989529943721 L10.244230593460074 2.4955035269436774 L10.255030967460002 2.4932297639436722 L10.273841189460015 2.478553657943676 L10.302159873460013 2.464187608943673 L10.321280154460013 2.4168519979436223 L10.344121137460021 2.406103299943693 L10.371871381459968 2.401245714943668 L10.384971357460003 2.4015557729436647 L10.410163617459958 2.4166452919436647 L10.422669314459952 2.419332465943681 L10.434399864460048 2.4179888789437154 L10.443469078460012 2.4129245889436515 L10.434296511460005 2.387499783943637 L10.432100263460015 2.3647621539436567 L10.442642255459972 2.3507061639436397 L10.47137435146 2.3514296349436403 L10.513774864460018 2.3694130319437203 L10.538837934460005 2.3742706179437345 L10.559534345460051 2.3650722119436534 L10.589894249459988 2.3835723749436664 L10.641725711460069 2.4387628049436625 L10.676219729460044 2.461397081943714 L10.71303918746004 2.474522895943677 L10.731616864460008 2.478967068943687 L10.757506757460035 2.4822743609436895 L10.76264856246003 2.4872352979436396 L10.765025678459992 2.4950901159436665 L10.765051516459991 2.5241322709436655 L10.768849734460005 2.526095974943699 L10.800372357459977 2.552244249943696 L10.80654769146004 2.563096300943654 L10.80786544046002 2.5732248819437 L10.807839602460021 2.5870741649436706 L10.80962243946 2.5993731559437077 L10.816495404459957 2.604747505943662 L10.857733198459968 2.604747505943662 L10.865458824459964 2.6006133909437334 L10.866337324459991 2.5911049269436557 L10.86551050145998 2.579839464943701 L10.868016808460041 2.570537706943666 L10.88548344146001 2.559478950943669 L10.898557578459972 2.567747179943707 L10.910882408460012 2.5821132279437062 L10.92635950046001 2.5898646929436335 L10.943180178459997 2.5920351029437096 L10.962093752460007 2.5978228629436853 L10.97963790145998 2.6065045039436523 L10.992169436460003 2.6171498489436384 L10.997983035459967 2.6280018999436816 L11.001497032460023 2.6382338329436674 L11.007103925459958 2.6467087679436627 L11.01883447545994 2.6524965289437272 L11.02924727645997 2.651669705943716 L11.052760053460062 2.6414377719437265 L11.063844647460073 2.6388539509436395 L11.08531620545999 2.638647244943682 L11.106555218459974 2.640921007943687 L11.119164268460011 2.650636176943733 L11.114461713460017 2.67234027894372 L11.109552452460079 2.6755442169437043 L11.092525068460063 2.681952094943652 L11.087744998459968 2.686602973943705 L11.088365114460018 2.6950779089437003 L11.093171023460044 2.7042763139437067 L11.099475548460035 2.7116143669437047 L11.104488162460015 2.7146116009437105 L11.128982790459972 2.70799701694372 L11.149007408460008 2.695801378943697 L11.168205202460015 2.689393501943668 L11.190141848459987 2.7002455519437074 L11.202699221460009 2.7187457149437346 L11.21678104946001 2.761223741943679 L11.22802067346008 2.7791037879436384 L11.24657251246002 2.786131782943654 L11.26318648545994 2.778380317943741 L11.280213869459956 2.7735227339436346 L11.300005943460022 2.789025661943638 L11.30295150045994 2.7990508909436596 L11.30261560346004 2.809179470943702 L11.30437260246002 2.8179644649436977 L11.31362268345994 2.823235460943719 L11.32225264745999 2.820961697943714 L11.327652835460029 2.812590115943733 L11.332148684460051 2.8019447709437326 L11.337884768460029 2.7927463659437404 L11.358296959459963 2.7792071399436633 L11.369123172460021 2.786545193943665 L11.381964765460012 2.830573513943632 L11.38829512846003 2.845352973943646 L11.396615034459998 2.857445258943626 L11.408087201459992 2.8664369589436642 L11.413642418460014 2.868297309943669 L11.413461551459974 2.8691241329436945 L11.391033979460062 2.904677517943666 L11.312589155459946 3.0270473099437094 L11.23414433046004 3.149313748943639 L11.155725345459942 3.271786892943707 L11.077254682460008 3.394156684943651 L10.998809858460007 3.516526476943694 L10.920365034459977 3.638999620943677 L10.841971885459984 3.761266059943692 L10.763527061460067 3.883635850943646 L10.729963219459947 3.936035753943683 L10.773448936459957 3.9407899859436792 L10.909125409460032 4.011896756943697 L10.91979659346002 4.019234809943695 L10.973204185460034 4.032463976943687 L10.999843386459972 4.032774034943669 L11.025578250459986 4.021715278943672 L11.064878176460056 3.9858518349437144 L11.086401410459999 3.9728293739436804 L11.114513389460043 3.969832140943664 L11.152986494459995 3.9832680129436238 L11.190529422459988 4.010553168943643 L11.223214764459968 4.044866319943663 L11.247115115460062 4.078972765943716 L11.25951745845994 4.114112738943673 L11.265150190460062 4.149976183943705 L11.27569218246002 4.1829457469436715 L11.302383059459984 4.209610786943626 L11.40359135245997 4.261183865943719 L11.433589520460018 4.285575141943665 L11.453872520459939 4.309139594943657 L11.47133915546 4.334874457943654 L11.499141075459946 4.3904782999436645 L11.501518191460079 4.418280219943709 L11.492268109459971 4.44494525894366 L11.474698123459987 4.468613064943694 L11.44118595645999 4.492900988943687 L11.427052452460046 4.49486469294372 L11.413125653459971 4.4912473419437315 L11.400749148460008 4.482462348943654 L11.388475996459974 4.470163357943617 L11.382998293459977 4.462825304943719 L11.37834741446001 4.437917264943648 L11.367469525460066 4.419727159943703 L11.347574099460061 4.41228575394369 L11.32519820446008 4.414456163943681 L11.30682723245998 4.4241713339437165 L11.293830610460063 4.442464790943687 L11.277526695460026 4.4802919389436635 L11.258458092459946 4.496931749943682 L11.247347659460033 4.482875759943665 L11.239363650459964 4.467062771943672 L11.232774905460062 4.457657660943708 L11.224920087460035 4.455797309943703 L11.21610925546004 4.456107368943689 L11.206497439460023 4.453213488943701 L11.157094769460016 4.414249457943624 L11.147379600459956 4.401020290943718 L11.14570011646002 4.382933539943705 L11.154743492459957 4.3452097449436575 L11.152986494459995 4.324849229943636 L11.145390058460023 4.3102764769436686 L11.133478640459984 4.2971506629437055 L11.121024619460016 4.293429959943692 L11.10265364846002 4.322162055943691 L11.090406333459995 4.318544705943706 L11.065420778459995 4.29632383994368 L11.04875513045998 4.2896059039436505 L11.034156537459992 4.288158963943657 L11.019868003460019 4.291362901943726 L11.004080854460014 4.298597602943699 L10.963204796460033 4.3313604609436975 L10.948115277460019 4.336321398943651 L10.93770247645999 4.330016872943643 L10.934705244459977 4.315340766943647 L10.929976850459994 4.30076801294369 L10.914396405460067 4.294670193943629 L10.898454226460032 4.302835070943656 L10.891762128460002 4.319888292943686 L10.887524661460063 4.337871691943674 L10.878817182459997 4.34851703694366 L10.83155908446004 4.320818468943726 L10.830913129459972 4.305832302943669 L10.834504641459958 4.28743549294367 L10.83303186346005 4.272966091943642 L10.817322227459996 4.269658800943644 L10.801199181460007 4.276170031943705 L10.792052452460027 4.28743549294367 L10.781019533460025 4.317821235943624 L10.77003829146004 4.32629616994363 L10.75197737946003 4.325882758943704 L10.689836469460047 4.309036241943643 L10.679527021459947 4.3102764769436686 L10.631855512460007 4.33342751794366 L10.618910565459984 4.3450030389437 L10.615784141460026 4.358438911943663 L10.624284915460024 4.382726834943652 L10.62133935846002 4.392131944943712 L10.605836428460023 4.397299587943705 L10.590385175460014 4.404740994943635 L10.582969607460015 4.419623807943678 L10.577517744460025 4.437503852943733 L10.567699221460046 4.45383360494368 L10.537752728460035 4.482979112943694 L10.52524703246003 4.499102160943677 L10.515996951460025 4.518222440943672 L10.495403892460004 4.539306424943701 L10.474371584460002 4.520186144943706 L10.458636111460024 4.50158262894365 L10.454114423460013 4.5238034949436905 L10.434761599459947 4.539823188943641 L10.38251672645994 4.51811908694364 L10.358047935459993 4.527834255943686 L10.344534549460022 4.5503651809436985 L10.335594526459985 4.555842882943692 L10.319988243459974 4.55325906194369 L10.31161666145998 4.545714301943731 L10.300971316459979 4.5230800249436935 L10.294408409460019 4.516775499943675 L10.277923627460027 4.526180610943639 L10.263402549459997 4.5496417109437015 L10.250018354459954 4.564834581943726 L10.222423139460048 4.534035428943666 L10.199272098460042 4.5294879029437265 L10.175604291460033 4.534758897943659 L10.159481245460043 4.548918240943705 L10.156845746460036 4.5608038209436454 L10.15896448046 4.570622342943706 L10.15870609746004 4.581060981943649 L10.148939252459982 4.5939800899436545 L10.14563196046008 4.593359972943686 L10.139999229459946 4.590569445943727 L10.133332970460046 4.589122504943644 L10.12708012145994 4.592326443943703 L10.118191775460033 4.604108670943701 L10.114522748460033 4.607519315943632 L10.100828493460014 4.613203722943679 L10.092921999460046 4.607209255943657 L10.086462446460004 4.596667264943688 L10.077109011459967 4.588915798943672 L10.06331140346002 4.587365506943653 L10.017112673460062 4.594290148943726 L9.986675254459996 4.594600206943623 L9.97174076546004 4.596770617943703 L9.957943158459997 4.602558376943689 L9.951225222459968 4.611136665943716 L9.945024051459981 4.6331508259437 L9.939494672459986 4.639145291943718 L9.931743207459974 4.638628526943689 L9.906525108460002 4.633357530943654 L9.892520795460015 4.634701118943708 L9.846942181460022 4.654338162943658 L9.850662884460021 4.633254178943714 L9.840585981459995 4.6362514109436415 L9.820277142459972 4.656301866943691 L9.807564741460013 4.660746040943691 L9.798883100459975 4.6615728629437125 L9.791028282460033 4.6576454539436565 L9.780744672460045 4.647516873943699 L9.764776654459993 4.635631293943673 L9.754441368460007 4.638731879943704 L9.743020877459983 4.646793403943702 L9.723900597460002 4.6495839309436615 L9.71263513446003 4.646069933943705 L9.689742475460022 4.635527941943733 L9.679252159460063 4.634494412943665 L9.671035606460023 4.638628526943689 L9.668348432460007 4.645139757943651 L9.667108197459967 4.651961046943709 L9.66343917146007 4.656405219943705 L9.656462852459967 4.658472277943671 L9.573935590459953 4.667670681943674 L9.556882367460005 4.67242491394367 L9.53094079845998 4.690718371943644 L9.483811892459968 4.73629698394363 L9.454252973460015 4.745598741943651 L9.437923220460007 4.759654731943668 L9.42856978645996 4.765855903943658 L9.420508263460064 4.767819608943681 L9.41053471145996 4.764202257943706 L9.40138798345997 4.759654731943668 L9.392964724459986 4.759137966943724 L9.385368289460004 4.76740619694368 L9.36748824345996 4.803786404943663 L9.35606775246005 4.818255805943691 L9.336999147459963 4.834068793943684 L9.281653689460043 4.864661241943692 L9.23095910945996 4.902385037943658 L9.213027387460002 4.912823676943686 L9.19478560746002 4.918921495943648 L9.181711469459984 4.919438259943687 L9.144297732460004 4.914167264943655 L9.132153771460011 4.917267849943697 L9.12724450945997 4.923882433943687 L9.124660688459969 4.931323839943714 L9.119389692460047 4.93659483594365 L9.077996870460012 4.947963650943732 L9.06724817245997 4.9596425249437015 L9.059961794459994 5.0142128369437255 L9.049419802460037 5.030335883943705 L9.032986697459975 5.041808051943731 L9.011489301460031 5.053176866943714 L9.006114952459981 5.054417101943654 L8.992317345460023 5.054727159943651 L8.98761478946004 5.056484158943631 L8.984617556460037 5.062065213943638 L8.98415246846001 5.068163032943685 L8.98441085145997 5.073640733943675 L8.983428998460013 5.077361436943688 L8.978209678459976 5.086559842943684 L8.975160769459976 5.095189806943635 L8.968959597459971 5.100977566943611 L8.954335167460002 5.101494331943739 L8.935576622460005 5.104181505943684 L8.917644900460019 5.112243029943668 L8.901883588460052 5.124231961943719 L8.877492312460006 5.150690294943713 L8.849742068459975 5.163712755943662 L8.836822960459969 5.17642515794361 L8.832482140459987 5.187173855943724 L8.831655317459976 5.196785672943731 L8.829019818459969 5.205777371943681 L8.819304649460022 5.2145623649436725 L8.809899538459959 5.217146186943678 L8.75610437246003 5.217146186943678 L8.73527877045997 5.211255073943674 L8.716520225459973 5.209084663943683 L8.703911176459954 5.218696479943686 L8.69114709745999 5.235129585943666 L8.67378381545997 5.242777696943731 L8.632959435459995 5.250632514943673 L8.627740115460043 5.250219103943662 L8.615079389460007 5.246084988943634 L8.610118452460071 5.246498400943649 L8.607069542460053 5.251562690943713 L8.606397749460044 5.266135444943684 L8.605157514460032 5.270062853943655 L8.591256554460031 5.2776076129436955 L8.583401736460004 5.279261257943743 L8.570275922459942 5.279881375943715 L8.54614302845998 5.286082547943705 L8.542112266459995 5.30086200694363 L8.54914026146001 5.318431994943692 L8.55849369546003 5.333108100943674 L8.56376469245997 5.348611030943685 L8.56919071745996 5.4096925729436816 L8.56743371845998 5.425608914943707 L8.55870040245999 5.439664903943635 L8.547848351459962 5.453100776943684 L8.540096885460045 5.467570177943712 L8.533585655459987 5.510461616943671 L8.529296512460022 5.5261712519436355 L8.499892621460035 5.587769558943675 L8.490590863459985 5.620119005943662 L8.494983360459983 5.653191921943742 L8.503768353460075 5.685231310943662 L8.503613324460034 5.713239936943664 L8.487180219459972 5.805740750943697 L8.47689660946007 5.835092963943678 L8.462737266460024 5.862791531943698 L8.358454226459983 6.000974311943649 L8.32408939946005 6.032496935943611 L8.266986941460047 6.159000841943678 L8.24523116346002 6.194244168943653 L8.229314821459994 6.23155455294369 L8.228798057459969 6.277649929943719 L8.238099816460007 6.301937852943622 L8.286417279460025 6.356404812943621 L8.29205001045996 6.373664741943697 L8.302540327459994 6.453763211943665 L8.308379763459996 6.4767075469436985 L8.330290570460036 6.5220794549436345 L8.337111860459984 6.545333849943743 L8.337060183459997 6.567037950943655 L8.332305951459986 6.589258817943685 L8.316286257460021 6.630186550943703 L8.292618451460001 6.6714243449437 L8.265126590460042 6.69963967594367 L8.230503380460036 6.718036485943669 L8.185596560460013 6.729715359943652 L8.114903200460006 6.730438830943738 L8.093405805459994 6.737880236943665 L8.057800743459993 6.76960956594368 L8.018681684460077 6.793587429943697 L7.950882204460058 6.85177509294371 L7.8702152944600385 6.897973823943671 L7.820037478460009 6.937971382943642 L7.792132205460021 6.954714546943675 L7.779006391460044 6.965876655943616 L7.767120811460032 6.991198107943687 L7.757302289460043 7.003600450943663 L7.7154960564599975 7.0295420209437065 L7.704669843460053 7.041427599943729 L7.698597862460005 7.058170762943687 L7.696375776460016 7.113257840943659 L7.671829470460025 7.204001654943708 L7.657515099460042 7.232216987943685 L7.65175317745998 7.256918321943685 L7.657328429459952 7.271873115943647 L7.660538170460072 7.280482775943694 L7.729552045460011 7.379081408943689 L7.739551435459944 7.421559435943719 L7.748000531460022 7.440369656943728 L7.750997765460042 7.4586631139436985 L7.739344729459972 7.478816921943688 L7.722834109459981 7.4884287389436945 L7.703326255459999 7.491425971943711 L7.663819623460043 7.489668972943631 L7.638239789460002 7.491425971943711 L7.620669803460018 7.497110378943658 L7.584341270460058 7.519021186943702 L7.562068728460005 7.527392768943683 L7.543620241460005 7.526152534943646 L7.503028404459982 7.510442899943682 L7.481195111460025 7.510442899943682 L7.484657433460072 7.528529650943694 L7.513544558460026 7.577208849943629 L7.51977156846003 7.602737006943654 L7.514216351460007 7.619170112943719 L7.506309857459954 7.634362983943644 L7.505379681460013 7.655963731943627 L7.492667279460036 7.677977891943696 L7.479604179460026 7.683401122943705 L7.445615888459983 7.697511583943706 L7.45442671945996 7.7150815709436795 L7.494708499460003 7.738646023943685 L7.625294843459997 7.874555040943703 L7.652941734460015 7.893261909943687 L7.684490196459976 7.9069044869437 L7.721852257460014 7.918066597943634 L7.751927940459993 7.942147814943679 L7.76153975646001 7.981835313943746 L7.75037764746007 8.020282579943695 L7.71797652446007 8.040436388943673 L7.684490196459976 8.028447455943633 L7.6694523544599775 8.028137397943736 L7.66831547345997 8.046224148943649 L7.67914168546001 8.094386583943729 L7.685291181459988 8.108132514943675 L7.715599408460022 8.130973497943684 L7.758180788459995 8.14782001494366 L7.796059613460002 8.167767117943681 L7.812441042460037 8.200013210943636 L7.81936568446001 8.22233743094361 L7.8522318954600365 8.266572456943718 L7.862980593459966 8.290136909943724 L7.863549034460036 8.309463894943674 L7.857916303459987 8.34677427894371 L7.860810183459975 8.365584500943724 L7.873470909460011 8.388735542943705 L7.902358035459983 8.42666604294372 L7.911375572460017 8.453124376943704 L7.916414024459996 8.494155463943654 L7.9232611524599434 8.513069038943696 L7.937549685460041 8.526401557943627 L8.016821332459969 8.570119819943697 L8.027570030459984 8.579214871943675 L8.043848106460004 8.600195502943675 L8.053873334460022 8.609497260943696 L8.063588503459968 8.613424669943667 L8.084672488460015 8.61590513894373 L8.093560834460007 8.619212429943728 L8.107668500460036 8.633785183943699 L8.114799847459992 8.65207864094367 L8.115833376459975 8.672335802943676 L8.106428265460025 8.716984239943697 L8.107100060460013 8.73579446194371 L8.113507937459943 8.7523309199437 L8.155985964459987 8.80721129094371 L8.174227745460044 8.824471218943613 L8.194949994459975 8.835633327943638 L8.25308598145996 8.847932319943679 L8.272102908460042 8.857854194943682 L8.28951786646006 8.874700711943659 L8.300628299459973 8.893614285943697 L8.318249962459973 8.93619566594367 L8.395454552460038 9.04771340694367 L8.410285687460075 9.060012397943607 L8.447389366460058 9.084403673943639 L8.460411827459993 9.09814960494367 L8.488007042459984 9.139387397943677 L8.494053184460043 9.155923855943668 L8.504698529460015 9.239639676943709 L8.500409385459974 9.26950865394363 L8.492089480459995 9.288422228943672 L8.481702517459993 9.30113463094372 L8.436227257460033 9.337101427943692 L8.435555463459949 9.364593289943668 L8.42971602746006 9.37658222194372 L8.416176801459969 9.384333686943632 L8.399898724459959 9.388777859943728 L8.38568770645999 9.390844917943694 L8.373853803459994 9.398182970943692 L8.362898400459997 9.413995958943685 L8.346516971460048 9.445931994943662 L8.32326257546002 9.476834500943665 L8.270552615460005 9.529647814943614 L8.249106895459974 9.56303078994368 L8.650787804460023 9.564891140943685 L8.772382448459965 9.589075710943744 L8.777291710460005 9.591452826943693 L8.786076703459983 9.598997586943652 L8.791812787460046 9.600651232943703 L8.796308637460058 9.599307644943734 L8.804266807460024 9.593829942943655 L8.808142540459968 9.593003120943633 L8.827572878459975 9.59693052994369 L8.868035525460058 9.609539578943709 L8.909635053460036 9.63000344594367 L8.92844527546005 9.635584500943692 L8.97330041845997 9.640442084943713 L9.033865196460013 9.63620461794366 L9.054587446460047 9.640338732943688 L9.07386275446008 9.650467312943645 L9.101612999460016 9.674651882943705 L9.119544721460002 9.686847520943713 L9.129569948460002 9.68798440294364 L9.141145469460056 9.68612405194372 L9.151429079459959 9.686537462943646 L9.157320193460052 9.694909044943612 L9.158457074459974 9.704624213943658 L9.157165163460022 9.733976427943714 L9.15995569146007 9.75485370694369 L9.169205772460074 9.771493517943709 L9.196439252459996 9.803532905943625 L9.20243371846 9.82141295094368 L9.19897139845996 9.840533230943675 L9.187085818459948 9.878257026943727 L9.198868044460042 9.916187527943732 L9.269354698459992 9.959802436943688 L9.290231977459982 9.99979999594366 L9.292970828460014 10.010858751943656 L9.301187380460036 10.031219265943689 L9.303667849460012 10.04165790594372 L9.301394086460007 10.054060249943687 L9.285736127459941 10.072663764943739 L9.280155072460033 10.082999051943657 L9.278553103459998 10.103669623943672 L9.280568484459948 10.121032904943688 L9.279483279460052 10.138602892943664 L9.268424522460023 10.159583523943665 L9.322116335460024 10.159686876943693 L9.500451704460076 10.159893582943651 L9.67873539446002 10.160100288943708 L9.857070763459987 10.160513699943719 L10.035406130460032 10.160720404943673 L10.072664838460057 10.160823757943701 L10.090699913460057 10.156276232943666 L10.10046675946002 10.148524766943664 L10.104497520460015 10.140876655943684 L10.11002689946001 10.135295600943662 L10.124444624460025 10.13374530794374 L10.135141645460024 10.137362657943639 L10.142376345459994 10.143460476943686 L10.15064457546005 10.148214708943682 L10.164390505459991 10.147387885943656 L10.183769168460046 10.137466010943653 L10.218960817460001 10.110077501943705 L10.267588340460023 10.093851101943612 L10.28097253745996 10.074627469943676 L10.290170941460062 10.051269721943639 L10.303038374460058 10.029565620943727 L10.319833214460019 10.017059923943732 L10.38662500245998 9.98781106294369 L10.448662559460004 9.971481309943654 L10.466878502460062 9.957528673943669 L10.474526614459947 9.946056505943657 L10.486489708459985 9.920735053943671 L10.49504215746002 9.908849474943734 L10.506617678460046 9.89934101194366 L10.532533409460015 9.883734728943706 L10.543824710459987 9.874122911943699 L10.57250512945997 9.832575059943705 L10.588602338460035 9.814488308943693 L10.638909344460004 9.787616564943702 L10.658701418459984 9.772010281943663 L10.696296023459993 9.7338730749437 L10.716811566459981 9.718576850943732 L10.783241621460022 9.681679877943706 L10.80200016546003 9.663179715943683 L10.836959271460032 9.62059833494372 L10.857707359459951 9.602821642943693 L10.877215212459973 9.593519884943658 L10.897110639459967 9.589282417943705 L10.939097740459985 9.58494159694372 L10.940337975459997 9.597964057943669 L10.938736005459972 9.600754584943727 L10.928426557459986 9.618427925943633 L10.925791059459968 9.63496438294372 L10.920830121460014 9.647470079943714 L10.902149091460032 9.65573830994367 L10.904293663460024 9.658942247943726 L10.906903323460014 9.666590360943628 L10.90897038045999 9.670001003943652 L10.896232139460025 9.673204942943626 L10.887938072460074 9.6831268179437 L10.886026044459967 9.695839220943666 L10.89956527046003 9.719403673943672 L10.890211835459993 9.721780788943617 L10.876646771460017 9.719610379943715 L10.87142745145998 9.717750027943707 L10.844865765459971 9.718473497943618 L10.839672284459951 9.719817085943673 L10.84941329246 9.738110542943657 L10.85680302246 9.770770047943627 L10.863288413459983 9.78927020994365 L10.874476362460015 9.804256375943721 L10.903880251459995 9.827304064943688 L10.91545577246005 9.841670112943687 L10.922225385459981 9.862237332943677 L10.920675092459973 9.880944200943658 L10.912846112459945 9.89810077694372 L10.900727989459952 9.914740587943639 L10.897420698459953 9.921045112943657 L10.894940228460072 9.933137397943637 L10.889927615460024 9.938925157943713 L10.884527428459947 9.93964862794371 L10.874011274459988 9.933034044943708 L10.868843630459978 9.933034044943708 L10.858637535460005 9.939028511943645 L10.84899988046 9.9462632119437 L10.840860842459975 9.955048204943692 L10.83507308246 9.965590197943653 L10.82564213346005 10.005794461943678 L10.825538780460008 10.065635770943727 L10.82543094145997 10.109885464943629 L10.825228721460022 10.192863146943706 L10.824918663459968 10.3201938759437 L10.824608605459971 10.447524604943693 L10.82424686945997 10.5748553339437 L10.823885134459985 10.702082709943666 L10.823575076459989 10.829413439943663 L10.823239179460003 10.956640814943723 L10.822954958460016 11.083868191943692 L10.822748253460063 11.164793484943685 L10.908531130459963 11.096787300943701 L10.929976850459994 11.092136421943648 L10.956900271460015 11.115287462943725 L11.001600385459952 11.16789407094363 L11.026818484460009 11.190735054943728 L11.072784670459995 11.213059272943694 L11.12306583946004 11.221224148943717 L11.174690595459978 11.218743680943644 L11.224610028460049 11.209131863943638 L11.265356896460005 11.19517922694365 L11.50797774545994 11.073326199943635 L11.549887332460017 11.075393256943697 L11.56895593546001 11.08087095994368 L11.588386273459989 11.082007839943698 L11.629003950460017 11.079320665943667 L11.655772341460008 11.081181017943676 L11.673032269459995 11.088312365943706 L11.710652712460003 11.112290229943623 L11.743880659459947 11.118904812943624 L11.86785242046001 11.105985704943704 L11.886455935459978 11.10629576394369 L11.890073285459962 11.11249693594368 L11.893587283460008 11.118594754943727 L11.897256310460008 11.124692573943689 L11.900821983459977 11.130893745943679 L11.90436181946005 11.137094916943665 L11.907979169460035 11.14339944194367 L11.91159651946002 11.149600614943664 L11.915136355459978 11.155698432943707 L12.019522748460034 11.336669298943688 L12.123754112460048 11.517743517943684 L12.228140506460008 11.698921088943704 L12.332501060459961 11.879995307943714 L12.43680993946002 12.061069525943706 L12.541222170459989 12.242143745943705 L12.645531049460018 12.423217964943701 L12.749865765459973 12.604292182943707 L12.774627341460004 12.647411478943694 L12.779838096460011 12.656485379943687 L12.769709516459969 12.660826199943669 L12.763870079459977 12.670024604943675 L12.757823936460042 12.689971707943682 L12.749555707459976 12.705164578943622 L12.738031863460051 12.719944038943636 L12.723820844460008 12.732553087943655 L12.693977704459982 12.748366075943748 L12.680205935460052 12.75973489194365 L12.67067163346006 12.774204292943677 L12.669483075460036 12.79053404494371 L12.678758995459944 12.799939155943674 L12.711108441460041 12.808724148943652 L12.721133669460059 12.819782905943667 L12.697956790459969 12.864534695943716 L12.690360354459997 12.873423041943722 L12.607884768459982 12.895437201943706 L12.58752425345996 12.908976427943697 L12.572098839459969 12.92975035394373 L12.559463951460046 12.957965685943703 L12.537475629459962 12.954968452943687 L12.525357505460065 12.973675320943668 L12.514660484460066 12.997859890943742 L12.483137861460008 13.021941108943691 L12.477505130460074 13.0444720329437 L12.477866864459983 13.087363472943663 L12.49015433346004 13.185753405943712 L12.491948692459985 13.200121446943696 L12.484429771459943 13.318563829943683 L12.487065269459961 13.358923123943653 L12.501302126460033 13.437574652943708 L12.489649091460066 13.632808214943664 L12.493343956460066 13.655442491943715 L12.487271975460018 13.680247179943661 L12.478435305460025 13.704225044943668 L12.469831180459991 13.71704079894374 L12.448695519459946 13.739468370943653 L12.440892377460031 13.750940538943665 L12.438566937459981 13.764686469943696 L12.440478965460002 13.777295519943719 L12.440246421460031 13.788974392943699 L12.431461428460054 13.79992979694367 L12.420066775459972 13.801996854943637 L12.389551842460051 13.796622504943668 L12.376503542460014 13.797862739943623 L12.362499229460028 13.820600369943689 L12.383040611460004 13.849435818943716 L12.43704248345999 13.892223904943647 L12.44812707845999 13.90710671794369 L12.44812707845999 13.918578884943711 L12.44326949346005 13.930361111943709 L12.439807172460021 13.946484158943688 L12.440995730460045 13.960023384943666 L12.45394067646005 13.998367296943682 L12.471097251460023 14.023792101943696 L12.474895470460055 14.057691841943706 L12.475050498459993 14.094072049943689 L12.481122480459945 14.126214790943719 L12.49437748446006 14.144508247943689 L12.547914269460009 14.178924750943734 L12.558327070460038 14.193290798943748 L12.564114830460014 14.20879372894366 L12.570367678459988 14.243210233943712 L12.595198204460033 14.310182888943713 L12.599642377459972 14.34521950994373 L12.580367068460006 14.365476671943723 L12.512774295460034 14.373951606943647 L12.47918461446001 14.382323188943714 L12.45394067646005 14.399893175943687 L12.448385460460045 14.417153103943674 L12.446861005459951 14.436480089943627 L12.447920372460018 14.475134060943729 L12.455775190460045 14.493014106943688 L12.469469444459989 14.51296120994371 L12.473836103460073 14.53301166594366 L12.45394067646005 14.551098416943672 L12.38895756346001 14.586445095943672 L12.369527224460015 14.60039773294376 L12.33007226846 14.644736112943702 L12.32294092045997 14.648146755943726 L12.30588769846004 14.652487576943711 L12.299815717459992 14.65703510294365 L12.296663454460017 14.674295030943652 L12.299583173460022 14.72039040894367 L12.293692060460032 14.7315525189437 L12.271858767459989 14.730932400943727 L12.249146975460022 14.726281521943674 L12.229432416459971 14.728245226943697 L12.216590823459981 14.747675564943675 L12.210260460459963 14.875833116943694 L12.196462852460016 14.904668565943735 L12.180572349459979 14.913660265943674 L12.125046023460001 14.928749783943685 L12.10267012846002 14.941978950943676 L12.093549237460039 14.95551817594365 L12.092102297460045 14.972674751943712 L12.096339765460002 15.054530219943656 L12.094246869460036 15.062281684943668 L12.077865440459973 15.099798774943663 L12.073421267459977 15.1184022899437 L12.079777468459994 15.135765571943635 L12.101274864459938 15.155299262943727 L12.117992190459987 15.17049213494367 L12.17550805946 15.255964952943684 L12.191889488459978 15.272191352943691 L12.251420738460027 15.315289497943708 L12.267595462460022 15.330585720943658 L12.29232263445995 15.364795519943653 L12.315990440459998 15.387326443943676 L12.313665001459967 15.405619901943735 L12.297955365459998 15.417918891943684 L12.274365074460079 15.416368598943675 L12.254960573459996 15.417608833943701 L12.241498863459938 15.456159451943675 L12.208193402459997 15.467321561943704 L12.188892255460033 15.48427143094372 L12.172924237460009 15.504838650943709 L12.167136477460033 15.520961697943688 L12.178686160459975 15.55072732294367 L12.178169396460035 15.559408963943723 L12.171167239460019 15.563853136943733 L12.143830406459998 15.572844835943682 L12.133727664460068 15.578219184943732 L12.120679364460003 15.596202583943635 L12.115563398460026 15.61583962794367 L12.112979576460035 15.635890083943705 L12.107682741459982 15.655423774943626 L12.04290633446 15.750405057943722 L12.034069663459988 15.780274034943643 L12.039754071459939 15.810246365943682 L12.051872195460007 15.83980528594371 L12.094479413460007 15.94295144394374 L12.136957440460023 16.045994249943647 L12.179512983460015 16.14903705594365 L12.221965171460042 16.25218321494367 L12.244444419460038 16.306753527943698 L12.27922265945999 16.349024848943685 L12.297826174459956 16.364424425943668 L12.319401084460011 16.3774468869437 L12.343275596460003 16.3851983519437 L12.36890710746006 16.3851983519437 L12.380198407460014 16.380547472943647 L12.399577069459994 16.366078071943704 L12.410532473460066 16.362357368943705 L12.42135868546002 16.36328754494366 L12.45394067646005 16.373106066943635 L12.48205265546001 16.364011013943653 L12.504583580460022 16.377343533943673 L12.545330447459989 16.42064838394373 L12.59742029146004 16.440905545943735 L12.620442141460003 16.455995063943647 L12.630596560459978 16.48297016194367 L12.608246503459995 16.51717995894367 L12.495721072460029 16.560381456943702 L12.462363935460061 16.576814562943667 L12.43621566045995 16.608130480943686 L12.427275637460028 16.6254937619437 L12.425208580460051 16.64585427594372 L12.426448814459988 16.70424864494369 L12.423968345460011 16.73535785694365 L12.428955121460078 16.75199766794367 L12.455749351459971 16.7881711709437 L12.443579552459951 16.803467394943652 L12.427017255459944 16.824241319943695 L12.41027409146001 16.83633360594368 L12.352034752459971 16.865479112943703 L12.333508751459945 16.86981993394369 L12.297722821460027 16.873127225943676 L12.28172896646008 16.882739041943694 L12.272427208459945 16.897001736943665 L12.253436119459977 16.951055284943664 L12.239638512460047 16.97224262294371 L12.13814599945998 17.076215603943666 L12.111635988460066 17.131716092943734 L12.099776247460042 17.145151964943693 L12.056936485459985 17.169646593943654 L12.050502769460039 17.17626117694374 L12.04753137445995 17.185976345943686 L12.050786990460026 17.191764106943666 L12.058073367460011 17.194864691943692 L12.062827598460004 17.201169217943715 L12.058073367460011 17.216982205943708 L12.036653486459997 17.2408567179437 L12.009936770460016 17.250571886943646 L11.981282188460042 17.25573952994364 L11.953997032460038 17.26607481594374 L11.92309452546003 17.286228624943632 L11.869040977460045 17.333667589943715 L11.862943158459998 17.33552794194371 L11.845734907459999 17.33821511594374 L11.841290733460013 17.339558702943705 L11.830257815460001 17.361262803943703 L11.81467737045999 17.416763292943685 L11.797598309460042 17.442291450943728 L11.799674857459976 17.442556285943695 L11.85108341746006 17.449112739943686 L11.866818891460028 17.45448708894365 L11.907152346459995 17.48549294794367 L11.926996096460002 17.505129992943694 L11.941491335460015 17.523113390943692 L11.95270512145997 17.552672309943716 L11.955754031460017 17.58801898894363 L11.953997032460038 17.65943581894372 L11.954001827459976 17.660582020943707 Z M5.268859040460015 14.417288174943705 L5.27511861445997 14.428686514943676 L5.2782459514599935 14.4370441029437 L5.288430625460009 14.442368669943702 L5.284505495459982 14.449201974943689 L5.272749909459989 14.446914344943677 L5.257084086459983 14.435508054943709 L5.243766244459991 14.428660249943702 L5.243779442459967 14.417269510943667 L5.251620181459984 14.413475793943716 L5.268859040460015 14.417288174943705 Z M5.02042191946002 13.984481694943694 L5.0274015754600185 13.987515436943708 L5.027350823459969 13.99808946394367 L5.022649754460005 14.007900038943687 L5.013359347459968 14.010138657943711 L5.002461854460009 14.010120257943667 L4.993841025460014 14.007849551943677 L4.9963911924599955 13.995749459943708 L5.004962245460021 13.98746367494371 L5.007259191460022 13.976906038943666 L5.018110616460021 13.977683000943697 L5.02042191946002 13.984481694943694 Z M4.231376974460019 12.219437057943678 L4.2702511814600115 12.25403494894371 L4.2787740974600155 12.263376243943666 L4.2825497754599695 12.269906042943687 L4.272089163459995 12.26707098494367 L4.259697420459972 12.268881434943664 L4.246410339459985 12.259519244943673 L4.227422630459998 12.247338406943667 L4.216073498459977 12.231467291943686 L4.210430930459992 12.217481918943717 L4.219982665459995 12.212871477943706 L4.231376974460019 12.219437057943678 Z M0.6211204354599857 6.535605768943666 L0.6154222754599772 6.542939782943703 L0.6086627434599876 6.559521776943681 L0.6140683144599706 6.573493511943665 L0.6223397084599895 6.5828761489437095 L0.6231081664599714 6.594932724943673 L0.621948788460017 6.611596827943712 L0.6245066964599886 6.629239361943716 L0.6132915234600063 6.6309389329436765 L0.6002497854599795 6.629832956943714 L0.5966468234599773 6.620516278943709 L0.6005134474599885 6.61037304794368 L0.5969988874600034 6.594571622943674 L0.5887108604600115 6.587046417943695 L0.596279162459993 6.578808480943705 L0.5992789634599802 6.564026313943684 L0.6109555004600082 6.528982292943708 L0.6211204354599857 6.535605768943666 Z" fill="black" stroke="black" stroke-width="0.5" vector-effect="non-scaling-stroke"/></svg>