<svg xmlns="http://www.w3.org/2000/svg" viewBox="0 0 6.094516601520013 1.1757226564199783"><path d="M0.6924812827600135 1.155406900709984 L0.7023689777599884 1.151500650709984 L0.7116870117600342 1.151500650709984 L0.7198250327600135 1.1550813797100048 L0.7265795897600356 1.1622428387099788 L0.7168953447600188 1.1641959637099788 L0.7074959307599897 1.1638704427099995 L0.6991544597599955 1.1609407547100048 L0.6924812827600135 1.155406900709984 Z M6.0266691077600285 0.75167968670997 L6.015723469760019 0.7542024737100022 L6.026302896760001 0.7511100257099841 L6.027320149759987 0.7511100257099841 L6.03224365276003 0.7517610677099995 L6.033911946759986 0.7545279947099814 L6.034766438760016 0.7596549477099828 L6.0340340167600175 0.755830077709966 L6.03224365276003 0.7537141927099995 L6.027442219760019 0.7515983067099867 L6.0266691077600285 0.75167968670997 Z M2.482642415759983 0.41142903571000744 L2.50913167276002 0.42176432270998276 L2.521989745760038 0.45277018170998673 L2.5226814777599884 0.4854850257099841 L2.5127124027600303 0.5007845047100048 L2.492163899759987 0.4877636717099634 L2.4706388347599955 0.45887369770998276 L2.4625821937599994 0.42835611970998144 L2.482642415759983 0.41142903571000744 Z M0.06756266275999678 0.011526692709999509 L0.07146891275999678 0.011526692709999509 L0.0707364907599981 0.01494466071000744 L0.06585367875999282 0.019908853709985408 L0.061988118759984445 0.021780598710002153 L0.05975016275999678 0.016735025709984086 L0.061988118759984445 0.014293619709981442 L0.06479573576001485 0.014456379710004796 L0.06756266275999678 0.011526692709999509 Z" fill="black" stroke="black" stroke-width="0.5" vector-effect="non-scaling-stroke"/></svg>