<svg xmlns="http://www.w3.org/2000/svg" viewBox="0 0 10.21961806698009 5.961197344439952"><path d="M4.809465609990063 5.386506675220005 L4.8137030769900875 5.369815187219956 L4.8108091969901 5.349144615219956 L4.7964431489901 5.306511558219967 L4.791998974990086 5.297468182220001 L4.780216747990089 5.280001548219957 L4.775565868990036 5.270389731220035 L4.768847933990109 5.23597322821999 L4.7647138189900815 5.228170086219961 L4.749727653990099 5.220935386219992 L4.7341213709900885 5.222692384219982 L4.718515087990049 5.22708488121998 L4.703942334990067 5.227860028219993 L4.691333284990058 5.2229507672200555 L4.671696240990109 5.207912925219972 L4.658673778990071 5.200988283219999 L4.644411084990104 5.198197756220026 L4.613611930990025 5.1964407572199605 L4.600279410990019 5.190394614219997 L4.593974886990104 5.182901531219983 L4.583949658990086 5.153807700219971 L4.56038520599008 5.122388430219928 L4.54302192499005 5.092002687219974 L4.54260851299005 5.065182619219996 L4.570100374990027 5.044563722219976 L4.543538688990104 5.035313641219972 L4.539197867990019 5.023066326219947 L4.541678336990081 5.007718426219981 L4.53547716499002 4.989579999219956 L4.520697705990095 4.983792238219962 L4.481320263990078 5.0000703142199825 L4.458065869990058 5.000121990220009 L4.383755160990084 4.973611981220017 L4.345101187990075 4.964723634219979 L4.304793571990039 4.967927573219953 L4.3069639819901155 4.967927573219953 L4.308720979989992 4.9684960142200225 L4.310064566990057 4.96963289622002 L4.3112014489900545 4.971338218219984 L4.283192822990053 4.987099529219961 L4.268723421990039 4.988959881219984 L4.248879671990032 4.978469566219928 L4.24329861699001 4.971699953219996 L4.2363739749900375 4.956197023219971 L4.23213650799007 4.950719321219992 L4.220250927990058 4.945034914219946 L4.196789827990067 4.9418826512199985 L4.185007601990087 4.938472007219957 L4.153484977990011 4.92095369722 L4.138292106990086 4.915527671220019 L4.0744200359900375 4.907724530220008 L4.061397574990103 4.898009361219977 L4.067908805990065 4.879560874219948 L4.009514436990081 4.854962892219959 L3.995343259990129 4.8526802872199255 L3.97871528399002 4.850001955220023 L3.9831594569900446 4.872636232219975 L3.9884304529900803 4.874083172220054 L3.9963886229900467 4.87248120222003 L4.0049669109900705 4.872636232219975 L4.011994905990058 4.879560874219948 L4.013751904990038 4.889534426219967 L4.00868761399007 4.893926922219947 L3.9761314619901142 4.90017977021995 L3.936030550990033 4.900954917219963 L3.9178404459900875 4.904003827219981 L3.8883848799900917 4.92095369722 L3.8520046719900947 4.928085044219955 L3.815624462990108 4.923124106220001 L3.7508222179900983 4.881576255220011 L3.7395567549900406 4.871551027219965 L3.731701937990117 4.8596137712199265 L3.726120882990095 4.847263103219973 L3.7192995929900334 4.836204347219962 L3.7082408369900506 4.827677736219954 L3.6988357259900724 4.821631593220019 L3.6957351409900454 4.815895509219956 L3.6989390799901045 4.810417807219977 L3.7082408369900506 4.805301841219972 L3.708654248990051 4.804578371219975 L3.7088609549900227 4.803803224219962 L3.708654248990051 4.802873048220022 L3.7082408369900506 4.801891196220055 L3.6941848479901225 4.799979169220023 L3.6670030439900287 4.791297528219985 L3.65387722999008 4.789023765219952 L3.6432318849900795 4.7906257342199865 L3.63475694999007 4.793777997219962 L3.6246283699900275 4.794966554219968 L3.6090220869900733 4.790419028220015 L3.5604462409900677 4.750886558220003 L3.5583791839900343 4.7436001812200175 L3.5657172369901033 4.733523277219973 L3.5766726399901003 4.729957602219997 L3.6249384279901093 4.728769045219991 L3.6516034669900463 4.722051108219972 L3.6941848479901225 4.705669679219994 L3.7144420089900265 4.6944042172199545 L3.72384711999009 4.679263023220017 L3.7082408369900506 4.66076285922 L3.6976988449900645 4.654044924219988 L3.6954250819900594 4.643968019219955 L3.6973887859900785 4.6348212912200495 L3.7082408369900506 4.616114422219965 L3.7105145999900557 4.612962160219922 L3.7112380699900527 4.609964927220005 L3.7107213059900275 4.6072777522199715 L3.7082408369900506 4.605003990219956 L3.6898440269900377 4.589087648220016 L3.684262971990016 4.5857286802199155 L3.6673131019900254 4.581697919220005 L3.660801871990053 4.58438509322005 L3.658218050990051 4.591206382220008 L3.6526369959901146 4.599371258220032 L3.622974723990062 4.625674562219984 L3.6058181479900995 4.634666261220019 L3.5826671069901224 4.638541994219963 L3.4932668789900205 4.6284134132200165 L3.4456212079900794 4.6312039412199795 L3.416268994990098 4.654044924219988 L3.411101351990105 4.6562670102199775 L3.40583035499008 4.656990480219974 L3.400456005990115 4.656215334219979 L3.3953917159900513 4.654044924219988 L3.386089957990116 4.635441408220032 L3.36428250399009 4.624124269219948 L3.342164990990078 4.625209474220043 L3.3313129399900205 4.643502931220013 L3.3179804209900894 4.637043377219953 L3.3110557789901165 4.626759767219966 L3.3090920739900795 4.614099041220015 L3.3103323079900164 4.6010765802199955 L3.305784782990081 4.598544435219992 L3.301650667990053 4.595650555220004 L3.298136669990093 4.592291587219989 L3.295346142990063 4.588519207219974 L3.3137429529900473 4.583764975219992 L3.293072379990029 4.578132244219944 L3.2461501799900745 4.57901074422 L3.222379019990022 4.574618247220002 L3.187135693990051 4.560355552220017 L3.17731717199009 4.553534263219973 L3.1713227059900575 4.54485262222002 L3.1651215339900816 4.531933514219986 L3.1617108889900507 4.5210814632200425 L3.1638812999901162 4.518290936219984 L3.1522024259900476 4.5160171732199785 L3.121713330990069 4.520047934219974 L3.1079673989900343 4.519944582219949 L3.095151644990061 4.515603761219978 L3.0718972499900516 4.503098065219973 L3.0609418459900652 4.4988089212199895 L2.9582090989900607 4.480412111220005 L2.9350580569900657 4.482169110219985 L2.9202739899901005 4.476500700220015 L2.892063264990064 4.465684328219993 L2.8692222819900834 4.463823976219999 L2.842040478990093 4.474365968219956 L2.842143831990022 4.488318605219945 L2.8741832199901225 4.518549318219954 L2.885552034990006 4.5368427752200375 L2.8929934409900326 4.55813346522001 L2.9028119629899933 4.57751212721999 L2.9215188319900776 4.589862795219943 L2.9459101079900947 4.599009523220019 L2.9641002119900506 4.61182527822001 L2.974642203990122 4.629757001219986 L2.976089143990116 4.654044924219988 L2.9891116049900504 4.665103680219971 L2.9910753099900873 4.678281170219975 L2.9846674319900544 4.686807782219972 L2.97257514699006 4.683862225219968 L2.9619298019900597 4.673630291220007 L2.957278923989996 4.667584149219948 L2.9512844569900594 4.664948650220026 L2.936608349990074 4.664793622220003 L2.933817822990129 4.6675324722199605 L2.9340245279900827 4.679624757219926 L2.9315440599900953 4.683293784219927 L2.9225523609900605 4.683707195219938 L2.9040521979900333 4.679469728219999 L2.895267203990038 4.679676434220028 L2.8832782719900862 4.684999107219994 L2.8666384609900817 4.6998302432200205 L2.8572333509900076 4.705204591219967 L2.8460314429900606 4.707038532220025 L2.8338756029900694 4.709028647220009 L2.813825146990034 4.708150148219971 L2.793981396990027 4.710010500219994 L2.771553824990029 4.722361167220043 L2.753570426990045 4.739827801219974 L2.7427183769900907 4.753367026219962 L2.7305227379900927 4.764477459219989 L2.708301871990038 4.774812745220004 L2.6775027179900732 4.801839520220028 L2.636885042990052 4.803751547219946 L2.594923779990033 4.789747234219959 L2.5605072759900835 4.769335044220014 L2.5429372889901103 4.7545555852199755 L2.5335321779900752 4.742049887219991 L2.5221633639900674 4.707943442220028 L2.5113113129901237 4.68902986821999 L2.4810289239900882 4.668772706219983 L2.4683165209900366 4.654044924219988 L2.453847119990023 4.641435874219951 L2.428422314990023 4.611773602219984 L2.414056266989995 4.598802817219962 L2.391835400990054 4.58882926621996 L2.347290316990062 4.578390627220017 L2.329513623990117 4.563249432220005 L2.3269298019900404 4.55451611521994 L2.3277566249900516 4.545421063219976 L2.3270331549900547 4.536119305219955 L2.320005159990039 4.52681754722002 L2.310496695990075 4.524905519219999 L2.2649180829900715 4.524905519219999 L2.253239209990106 4.527334312219949 L2.246107861990076 4.531313396220014 L2.238769808990064 4.532346925219997 L2.225954052990083 4.52573234222001 L2.221199820990101 4.519944582219949 L2.2082807129900957 4.494158042220022 L2.1758279139900694 4.490489016220039 L2.1664228039900237 4.472608970219994 L2.174277620990061 4.456744305219985 L2.1942247239900823 4.459638186219962 L2.1923643719900596 4.456589275219926 L2.1875067879900527 4.445478843219917 L2.1936046069900996 4.445117108220018 L2.202803011990106 4.44139640521999 L2.2082807129900957 4.440001141220023 L2.223680289990078 4.431784588219983 L2.2412502779900407 4.42511832921997 L2.256236442990023 4.416901776220044 L2.2639879079900354 4.4039826682200385 L2.2796975429900996 4.400727053219953 L2.3117369309900866 4.406411460219999 L2.3288935059900595 4.4039826682200385 L2.338298616990123 4.395559409220027 L2.3588658369900983 4.3825886252200235 L2.367444124990122 4.37494051321994 L2.3646535979900634 4.37550895422001 L2.364550244990049 4.369617840220002 L2.3658938319900287 4.361918052220005 L2.367444124990122 4.356853762220027 L2.371784944990104 4.351066001219948 L2.3745754719900773 4.348275474220003 L2.3745754719900773 4.344968182219986 L2.370751416990025 4.337423423219946 L2.4021706869900683 4.32920687022002 L2.393075635990094 4.310138267219941 L2.3079128749900732 4.252725750220037 L2.277217074990112 4.241666994220026 L2.2445575689900394 4.236344321219974 L2.2082807129900957 4.2358792332199755 L2.1953616059900796 4.2376362322199554 L2.188023551990078 4.247661460219973 L2.180788851990023 4.260425539220023 L2.1685932129901104 4.270192384219996 L2.1517466959900204 4.272672853219973 L2.1365538259900845 4.2681253272200195 L2.104927848990023 4.252725750220037 L2.062759879990061 4.249986899220005 L2.000748160990092 4.28817578321997 L1.9582701339900481 4.293136720220019 L1.9562030759900821 4.290139487219989 L1.9554796069900178 4.286987225219946 L1.9563064289900396 4.283783286219972 L1.9582701339900481 4.28052767122 L1.972636181990076 4.273086265219973 L1.974909944990081 4.261200685219933 L1.969432242990102 4.247403078220003 L1.960750602990025 4.233863853220015 L1.9477281419900905 4.218154217219961 L1.9342922689901272 4.209885988220009 L1.9177558109900517 4.208387371219999 L1.8585346189900562 4.222546714220044 L1.8308360519900404 4.223063478219984 L1.8244281739900927 4.22161653821999 L1.773888623990068 4.16699454922005 L1.7706846839900763 4.160896730219974 L1.768514274990018 4.154075441220016 L1.7437095869900574 4.152576825220024 L1.660613883990088 4.165340903219999 L1.6500718909900272 4.163222170220024 L1.6427338379901286 4.158674644219985 L1.6295046709900234 4.145807212219978 L1.6181358569901292 4.14100130321998 L1.418044710990067 4.096559572220002 L1.3763935059900732 4.098781659220009 L1.3670917489900418 4.106119712219993 L1.3575832849900493 4.116765057219993 L1.346524528990038 4.124154787219993 L1.3448481459900776 4.123818287219962 L1.3323651859901062 4.121312583220032 L1.3259573089900627 4.113044354219994 L1.3267841309900845 4.103535891219991 L1.3295746589900475 4.093510662219984 L1.3292645999900614 4.0837954932200375 L1.317275666990092 4.065036948219955 L1.3020827969900708 4.057078778219989 L1.283996045990044 4.052014487219992 L1.2640489419900334 4.04188590721995 L1.253403596990033 4.031033856220006 L1.2416213709900532 4.014497397219998 L1.2323196129901177 3.9968757342200263 L1.2293223799900872 3.982664715219954 L1.2363503749900175 3.964267906219959 L1.2450320159900556 3.9537775902199996 L1.2460655439900492 3.9441140972199946 L1.2300458499900842 3.927732668220017 L1.2033808109900619 3.91936108622005 L1.1464333829900895 3.918792645220009 L1.1370282719901113 3.9041165382200234 L1.1323773929900582 3.8889236672199843 L1.1206985189900749 3.8852029642199852 L1.1077794119900872 3.890939048219934 L1.0987877119900347 3.9040131852199806 L1.0987877119900347 3.9041165382200234 L1.0954804199900465 3.9142967952199967 L1.0842149579900635 3.9157437352199906 L1.0701589679900607 3.9113512392199823 L1.0583767419900525 3.9040131852199806 L1.049901806990043 3.8941429872199933 L0.9992589039900892 3.887114992220006 L0.9802419769900368 3.876082074219994 L0.9774514489900739 3.8843244652200326 L0.9728005699901061 3.8889236672199843 L0.958331168990064 3.895589927219987 L0.9526467619900174 3.896365073220011 L0.9469623539900667 3.8980703952199747 L0.9418980639900028 3.900705894219982 L0.9373505369900599 3.9041165382200234 L0.937247184990035 3.9041165382200234 L0.9414846519900877 3.915433677219994 L0.9577110519899961 3.923546877219991 L0.9729039229900351 3.937551190220006 L0.9740408049900324 3.966593345219991 L0.9709402179900835 3.9716576352199695 L0.9611216959901228 3.978685630219985 L0.958331168990064 3.982096274219998 L0.9574009929901237 3.98767732922002 L0.958021109990078 3.9915013852199763 L0.95915799198999 3.9943435892200227 L0.9603982259900405 4.029070151219969 L0.958331168990064 4.037700115220019 L0.8441262539900478 4.032377443219957 L0.8079527509901183 4.038785321220018 L0.7866620609901176 4.0383202332199915 L0.7867654139900466 4.0197167172199215 L0.8009247559900174 4.0049372582199965 L0.8364781419900496 3.979925864219922 L0.8869143399900778 3.9041165382200234 L0.9315627779901021 3.8327255472199226 L0.9345600099900295 3.8212533792199963 L0.9347667159900581 3.802029746219972 L0.9365237149900381 3.7921853862200123 L0.9418980639900028 3.785260744220011 L0.9496495289901006 3.780635703219957 L0.9562641119900022 3.773969443219954 L0.958331168990064 3.761127850219964 L0.9594680509900897 3.7358580742200047 L0.9676329269900847 3.707797772219976 L0.9811721529900623 3.6811585712200383 L0.9983287279900352 3.659997072219994 L0.9941946129900074 3.6572065452199354 L0.9905772619900333 3.6541059582199864 L0.9957449059901293 3.62508964221999 L0.9811721529900623 3.6054784362199825 L0.9585378749900357 3.5887611102199344 L0.9400377129899979 3.5683747582199885 L0.937247184990035 3.5614759542200147 L0.9329063649900533 3.5435442322199435 L0.9329063649900533 3.5426140562200032 L0.9269172069900193 3.500228020220021 L0.9231911959901069 3.4738585632200056 L0.9316661299900417 3.4613528672200005 L0.9213308439901127 3.4475810972199668 L0.9028306809900855 3.4354371362199743 L0.8872243989900639 3.4277890242200044 L0.8645901209900941 3.4210194102200546 L0.8176679199900647 3.412337770220006 L0.7948269369900558 3.404172893219993 L0.7948269369900558 3.404069541219968 L0.7737429529901121 3.394664431220008 L0.7084239429900592 3.3809443382199618 L0.6863064289900578 3.3665266132199463 L0.6830393209900976 3.3559393332199647 L0.6808287279900682 3.3487757592200182 L0.6889936039900917 3.3293454202200508 L0.7084239429900592 3.3101476252200257 L0.7202061689900674 3.2901230072199894 L0.7185525229901017 3.2637938652200376 L0.7087340009900558 3.2384207382199577 L0.6958148929900503 3.221134971220039 L0.6472390469901299 3.1959943862199225 L0.6247081219901176 3.1795612812199465 L0.614372835990018 3.1541364762199464 L0.6104454269900472 3.127755658219968 L0.596596142990073 3.1162318132199402 L0.5785093919900746 3.1084545102199286 L0.5620762859900239 3.092874065220002 L0.5590790539900965 3.0716867292200334 L0.5722048679900453 3.054349285219928 L0.6295657069900571 3.0181499442199993 L0.6479625169900416 3.002879559219963 L0.663362093990024 2.984870323219951 L0.6718370279901293 2.965310793219942 L0.6753510259900892 2.9042550882199407 L0.6807253749900539 2.8945399192199943 L0.7023261229900228 2.8703295102200173 L0.7065635909900649 2.8608727232199556 L0.7084239429900592 2.8517001562199766 L0.7116278809901289 2.8427342952200263 L0.7192759939900313 2.8342335222200177 L0.737672803990101 2.820100018219989 L0.6726638519900447 2.7900760112199237 L0.6626386239901123 2.7757358012199234 L0.668736442990074 2.7497942322199833 L0.6794851409900033 2.731604127220038 L0.6833091969901304 2.7173155942199685 L0.6688397959900314 2.7033887962199685 L0.6688397959900314 2.6971876242199926 L0.6883734869900238 2.681322959219983 L0.6886835449901056 2.660859092220022 L0.6731806159900984 2.643289104219946 L0.6451719889900787 2.635770184220007 L0.616749950990048 2.6317135842199946 L0.5828502119900563 2.621016562219978 L0.5604226409900477 2.6055394712199984 L0.5664171069900803 2.5873493672199572 L0.5454364749900762 2.5582555362199457 L0.5216653169900312 2.5146147892199906 L0.5160842619900947 2.4749014502199884 L0.5678640469900742 2.4469703382200123 L0.5920486169900627 2.4234834002200216 L0.6085850759900424 2.4000222992199554 L0.6039341969900747 2.3893511172199453 L0.5853306809901184 2.3789641542200286 L0.5930821459900457 2.3557355972200185 L0.6210907719900476 2.319846315219962 L0.5899815599900862 2.304240033220026 L0.5842341889900737 2.3003044342199814 L0.526212841990052 2.2605734472199686 L0.4663715339900918 2.2461298852200287 L0.43763943698998986 2.2222036962199354 L0.4186225099900227 2.216803509220057 L0.40818387099007936 2.210679851219993 L0.37397407299010155 2.1696487642200566 L0.35847114299007643 2.1586158462200444 L0.252224397990112 2.1110476912200227 L0.2249392429900965 2.102185182220012 L0.19227973599003434 2.0787757582199617 L0.17222928099007362 2.0734014102199865 L0.15000841499004736 2.0724195582200196 L0.12902778399003267 2.0684404722199474 L0.11166450299003117 2.060172243219995 L0.10019233399000171 2.046116253219992 L0.1267540209901128 2.032137778219976 L0.13708930699004185 2.0200196552199827 L0.14122342199006965 2.001106080219955 L0.13894965899003608 1.98860038421995 L0.1267540209901128 1.9531245132200183 L0.12075955399009075 1.9430734472200015 L0.12075955399009075 1.936846437219998 L0.1691286949900288 1.9151164972199979 L0.23000353299007514 1.8958928642199737 L0.28891466599008453 1.8675483422199761 L0.3196104659900172 1.8481438422199972 L0.3330463379900763 1.83008292821998 L0.3358368659901245 1.8217113462200132 L0.36580919599008865 1.7650998142199512 L0.3637421399901015 1.7506304132199944 L0.3577476729900795 1.736471071220052 L0.3541303229900947 1.7202188332199455 L0.35692084999006823 1.7069121522200135 L0.36405219799009814 1.694690675219988 L0.37397407299010155 1.6857764912199684 L0.3845160649900592 1.6823658462200513 L0.391854117990043 1.6757771012199782 L0.4178990409900436 1.6449262712199868 L0.40487657999008064 1.6376915702199994 L0.4009491709900246 1.6321105162199956 L0.3856529469900565 1.624333213219984 L0.37955512799000957 1.6179770122200523 L0.3764545409900606 1.6081584892199885 L0.3758344249900958 1.5900200622199634 L0.37428413099006974 1.5815451272199539 L0.36752987199007947 1.5627503942199894 L0.3465855629900645 1.5044697282200161 L0.3361469249900253 1.4526899432199514 L0.31516629299010646 1.4315542822199916 L0.30472765399007784 1.410677003219945 L0.280439730990075 1.3882494322199364 L0.2732050299900308 1.367630535219945 L0.27248155999011914 1.34546134622002 L0.27516873399004993 1.308874432219966 L0.2733083829901304 1.2990042332199891 L0.252327750990041 1.26014355621993 L0.23723823299012992 1.2405581882200067 L0.2413723469900546 1.2250035822199834 L0.24013211299011772 1.1968916032200525 L0.2401700812473777 1.196791237539287 L0.2499616149900632 1.1961384242199955 L0.26794664099002574 1.1914997522199968 L0.2811302339900337 1.184216223219991 L0.2824323179900645 1.1760782022200118 L0.2648541929900645 1.1687946742199955 L0.2746198179900645 1.1653360152200065 L0.2778750259900491 1.1619180462200092 L0.2746198179900645 1.1585000772200118 L0.2648541929900645 1.1551227992199955 L0.2704694269900685 1.1476765102199664 L0.28031643199005174 1.1528848432200078 L0.29431382799003103 1.1570352332200144 L0.30668361999004645 1.1625690882199677 L0.3183209899900632 1.1818561972199717 L0.33248114599006584 1.1883259242199955 L0.35982489599006584 1.1961384242199955 L0.3798444269900685 1.2089558062199757 L0.3908307549900698 1.2144082802200131 L0.43493882799003103 1.2188841922199884 L0.48864976599002574 1.2303181112200008 L0.5072858329900711 1.2389851032199743 L0.5225039319900517 1.2520059372200052 L0.5553815359900725 1.2895222132199677 L0.5668561459900658 1.2983926552200131 L0.5721458589900337 1.2954629682200078 L0.5732851819900517 1.2794310672199884 L0.5778424739900672 1.2701130332199995 L0.5863060159900257 1.2640095172200034 L0.6000592709900658 1.257539791219969 L0.5993268489900672 1.2537556112200008 L0.5990827079900711 1.2498086712200092 L0.6000592709900658 1.2439492962200092 L0.5893170829900711 1.2420775512199924 L0.5636823179900645 1.2406940882199677 L0.5522077079900711 1.2371133582200144 L0.5212018489900672 1.1927204552199981 L0.5277122659900257 1.1706257282199743 L0.5522077079900711 1.1272500772200118 L0.5636823179900645 1.1332722132199677 L0.573610702990031 1.1315632282199743 L0.5845156509900491 1.1277383582200144 L0.6000592709900658 1.1272500772200118 L0.5929791929900645 1.1020222132199677 L0.5966413019900685 1.0819213012199924 L0.6035586199900465 1.0640583452200048 L0.6068952079900711 1.0452595172200034 L0.6000592709900658 1.0452595172200034 L0.5976178649900632 1.0572224082199995 L0.5898053649900632 1.0651569782199743 L0.5658795829900711 1.0794392052199981 L0.5721458589900337 1.0862751422200034 L0.5633567969900284 1.0841185672199884 L0.5563580989900672 1.0814330202199898 L0.5507428649900632 1.0776895302200131 L0.5453717709900658 1.0726032672200034 L0.5504987239900672 1.0696735802199981 L0.5595319269900685 1.0625528122200052 L0.5658795829900711 1.0589313922200034 L0.552126327990031 1.0419636192199704 L0.5283633069900517 1.0339883582200144 L0.41744208299007113 1.0271524212200092 L0.40181708299007113 1.0169392052199981 L0.41443101599002574 0.9974486452199898 L0.41117580699005174 0.9954548302199981 L0.4103620049900698 0.9951699992200105 L0.4100364839900337 0.9943561972199717 L0.4081647399900632 0.9906127072199951 L0.3983177339900337 1.000622473219991 L0.3905052339900337 1.0020466272199968 L0.3820416929900645 0.9993610802199981 L0.3700788019900685 0.9974486452199898 L0.36137111999004645 0.999483150219973 L0.35453518199005174 1.0044473432200078 L0.3478620049900698 1.0108763792199937 L0.33931708299007113 1.0173867962200092 L0.36918361999004645 1.0208047652200065 L0.38545966099007245 1.0251992962200092 L0.39392320299003103 1.031628332219995 L0.39197007799003103 1.0437539832200144 L0.38155341099007245 1.0525837362200008 L0.36885809899006716 1.0560423952199898 L0.35982489599006584 1.0520954552199981 L0.33248114599006584 1.0623086712200092 L0.3188906509900491 1.0649128382199677 L0.3045677339900337 1.0657673302199981 L0.3045677339900337 1.0726032672200034 L0.3183209899900632 1.0757770952200048 L0.3175885679900645 1.077852291219969 L0.3045677339900337 1.0794392052199981 L0.2951276299900698 1.0785847132199677 L0.27933986999004645 1.073701900219973 L0.26762111999004645 1.0726032672200034 L0.2509381769900685 1.0659707802200131 L0.20284247399006716 1.0247923952199898 L0.17940497399006716 1.0184447392199871 L0.17708809799011505 1.0186101042200164 L0.16902534199009978 1.0030016292199662 L0.1515587089900734 0.9902892272200177 L0.16106717199004805 0.988635581220052 L0.16933540099008582 0.985276613219952 L0.18632229199004513 0.9583047652200065 L0.20284247399006716 0.9627399862200008 L0.21374742199002839 0.9681110802199981 L0.2443463799900698 0.9749470172200034 L0.3433047129900544 0.9797891402200065 L0.3830182549900698 0.9749470172200034 L0.4218366149900632 0.9627399862200008 L0.49361395799007113 0.9315306762199924 L0.7581810159900257 0.8621540492199955 L0.9863711199900465 0.8269571082200144 L1.2646100519900685 0.7579060022199968 L1.4447858329900711 0.7296263792199937 L1.6420514579900711 0.6983356892200021 L1.8359804949900465 0.6467813272200118 L1.9971133069900517 0.6349811972199717 L2.1077903909900257 0.6132526812199757 L2.095176457990071 0.6207396612199858 L2.0456159109900725 0.6337604942199704 L2.0673444269900685 0.6427936972199717 L2.1554791929900645 0.6337604942199704 L2.1554791929900645 0.6275755982199911 L2.14864325499007 0.6275755982199911 L2.14864325499007 0.6201699992200105 L2.1963320569900517 0.6201699992200105 L2.195843775990049 0.6152871872200052 L2.194785832990071 0.6143920042199937 L2.1929140879900544 0.614717525219973 L2.1894961199900465 0.6132526812199757 L2.1914492449900465 0.597139400219973 L2.168418645990066 0.5964883582200144 L2.1139752859900725 0.6064981242200105 L2.148399114990063 0.5965290492199955 L2.1898216409900257 0.5806599082199995 L2.251670598990067 0.5381794392200021 L2.2391380469900284 0.5530720172200034 L2.216758489990063 0.5667438922200034 L2.2080508069900517 0.5741901812199757 L2.2171653909900257 0.5722370562199757 L2.2353131769900685 0.5700397912199691 L2.2511823179900645 0.5662963012199924 L2.265098332990071 0.5565306762199924 L2.300173202990031 0.5468464312199757 L2.313031275990049 0.5381794392200021 L2.3011497659900257 0.5236530722199717 L2.2812929949900465 0.5232868612200008 L2.2725039319900517 0.5295124472199717 L2.2578554949900465 0.5381794392200021 L2.300254582990071 0.49545483021999814 L2.4160586199900465 0.4085000772200118 L2.4160586199900465 0.41464428321999947 L2.410687525990049 0.42440990821999947 L2.4207786719900284 0.42689200421999374 L2.436891952990031 0.423311275219973 L2.449668645990066 0.41464428321999947 L2.4560163019900685 0.4012165492199955 L2.4501569269900685 0.3971068482199911 L2.437217473990067 0.4002806762199924 L2.422324895990066 0.4085000772200118 L2.442832707990071 0.3846149862200008 L2.4775820569900517 0.3643513142200021 L2.5458600519900685 0.33957104121996906 L2.7547630469900284 0.32162670521999814 L2.835899114990063 0.3028278772199968 L2.8784609629900544 0.29863679622000916 L2.91622137999007 0.29074291621996906 L3.0120872659900257 0.22970776021996642 L3.3136823179900645 0.14775789022000652 L3.691937525990049 0.10633536421998713 L3.8616966409900257 0.07264395721999506 L4.128623723990067 0.05844311122000079 L4.29317450499007 0.05844311122000079 L4.315798202990031 0.06328523322001445 L4.352093775990049 0.08163647022000475 L4.36544012999007 0.08566479121996906 L4.386436223990067 0.08847240821999947 L4.727988957990071 0.2066771612199858 L4.7902448179900645 0.2535521612199858 L4.800335962990054 0.2645384892199871 L4.8105898699900465 0.28008210822001445 L4.811566431990052 0.29367260321997435 L4.7939069269900685 0.29863679622000916 L4.789512395990066 0.2952188272200118 L4.784629582990071 0.2879352992199955 L4.7785260679900645 0.280733150219973 L4.760296900990049 0.27324617122000916 L4.7480898699900465 0.25448803321999947 L4.7316510679900645 0.24228100221999682 L4.684043645990066 0.1955280722199717 L4.6747663019900685 0.19296459522000475 L4.639691431990052 0.18877351522000652 L4.630820989990063 0.1866169392200021 L4.62129950499007 0.17721752521997303 L4.5929791929900645 0.1715209112199858 L4.5332461199900465 0.14775789022000652 L4.474489608990034 0.13140046822000784 L4.46504950499007 0.12358796822000784 L4.4325788019900685 0.10910229121996906 L4.42403387999007 0.10678295521999814 L4.411826848990067 0.10995678321999947 L4.4054791929900645 0.11508373622000079 L4.3913190359900725 0.1436481892200021 L4.3893659109900725 0.1502399862200008 L4.3893659109900725 0.16484773322001445 L4.39473700499007 0.16855053321999947 L4.4186627859900725 0.17477611921997038 L4.42403387999007 0.17851960822001445 L4.436078150990049 0.19072664022000652 L4.450726587990054 0.2091999472199717 L4.4501569269900685 0.2168496872200052 L4.446332056990052 0.2234821742199955 L4.446657577990031 0.23003328022001313 L4.4582135679900645 0.2371540492199955 L4.452191431990052 0.2566852992199955 L4.4635846609900725 0.26498608021999814 L4.48262762999007 0.2626667442199704 L4.4992291929900645 0.2502155722199717 L4.4933698179900645 0.2668171352199664 L4.501426457990071 0.28008210822001445 L4.51387762999007 0.2913125772200118 L4.5391054949900465 0.3367634242199955 L4.5469179949900465 0.34640697821997435 L4.5430117449900465 0.3693561972199717 L4.543825546990028 0.40890697821997435 L4.550335962990054 0.4463825642200021 L4.564333358990034 0.4631061972199717 L4.580039739990063 0.46615795521999814 L4.6105573179900645 0.47982983021999814 L4.6261823179900645 0.48296296822000784 L4.6396100519900685 0.48377677021998977 L4.6562929949900465 0.48678783821996774 L4.6706159109900725 0.4922403122200052 L4.6767194269900685 0.5009479942199704 L4.69356512999007 0.5147419392200021 L4.862184921990028 0.5466022912199691 L4.899457056990052 0.5482298952199898 L4.9306256769900685 0.5381794392200021 L4.939170598990067 0.5432657022200118 L4.950889348990067 0.5470091922199884 L4.978395858990034 0.5518513142200021 L5.353477239990063 0.5191364702200048 L5.4362409109900725 0.4957396612199858 L5.4755475519900685 0.49036856721998845 L5.507285832990071 0.48182364521998977 L5.568809270990066 0.4443887492200105 L5.585817733990034 0.44003490821999947 L5.607039664990047 0.45011548022003467 L5.656545686990107 0.46008903222005415 L5.734525334990074 0.4625117282200506 L5.9409727709900935 0.4689257012199448 L6.328339306990124 0.48101798622002434 L6.61710721049004 0.48998384772002623 L6.905875113990071 0.4989497092199997 L7.26368273199008 0.510008465220011 L7.697041292990029 0.5234960142199725 L7.975215527990024 0.5321001397199723 L8.253389762990075 0.5407042652200573 L8.486657177990075 0.5479906432199471 L8.674656038990058 0.5538300792200062 L8.743489046990042 0.5404975602199897 L8.762299267990066 0.5315575372199817 L8.787613268990036 0.5041340362199662 L8.788964306990088 0.5026704122200272 L8.813872346990074 0.49584912221996547 L8.835163037990064 0.4975544452199472 L8.895107698990039 0.5156411962199456 L8.905959749990096 0.5164680192199853 L8.928697379990062 0.5136774922200118 L8.938929313990052 0.5150727552199896 L8.949574658990052 0.5213772802200083 L8.955259066990088 0.5291804212200191 L8.959703238990095 0.5369835622199446 L8.966007764990017 0.5433914412199954 L8.977273226990057 0.547887290220018 L9.011586376990088 0.5502644062199522 L9.017890902990096 0.5557937842199578 L9.014273551990122 0.5653022482200356 L9.008485791990061 0.576619387219921 L9.008382438990019 0.5872130552199906 L9.026365836990117 0.6019408382200027 L9.049310172990054 0.601889162219976 L9.073184684990046 0.59594637221997 L9.093338492990021 0.5933108742199522 L9.111528596990063 0.5984785172199452 L9.173540316990106 0.6289159362199257 L9.211677522990065 0.6426101902200401 L9.292292757990076 0.6604902362199994 L9.312259486990108 0.6704736012200101 L9.330740022990021 0.6797138692200235 L9.340351839990028 0.6884988622200012 L9.358541943990069 0.7089110532199641 L9.367740348990075 0.7166625182199766 L9.378075634990061 0.7207966322199866 L9.399573030990005 0.7242589542199482 L9.408771435990097 0.7274628922199895 L9.425307894990105 0.7418289402199889 L9.439260530990104 0.7618277192199514 L9.450215934990062 0.784203615220008 L9.45786404699006 0.8055459822200248 L9.472436800990117 0.8522098002199812 L9.472746858990085 0.8747924012200201 L9.45786404699006 0.8901403012199864 L9.445771761990066 0.8960830912200208 L9.440397412990016 0.9000105002199916 L9.435539827990077 0.9044546732199876 L9.434919710990123 0.9151516942199862 L9.439157177990062 0.9242467472199678 L9.44721870199006 0.9314814472199373 L9.45786404699006 0.9366490902199303 L9.46375515999005 0.9411449402199707 L9.466649039990038 0.946157554220008 L9.466028922990056 0.9516352552199976 L9.461894808990046 0.9574746932200071 L9.463135042990068 0.9867752292199725 L9.473470328990082 1.0112181822200057 L9.486699495990074 1.0342658702199685 L9.496931429990063 1.059432294219988 L9.50612983499007 1.1126073422199454 L9.516671826990027 1.1331745622200344 L9.540959749990115 1.1543618992199924 L9.541063102990044 1.1543618992199924 L9.54333686499006 1.2157535012199787 L9.567211376990052 1.2855166852199318 L9.652064079990105 1.441062746219984 L9.699192985990116 1.4996638202200074 L9.719243440990077 1.531289797220012 L9.759240999990048 1.6258318292200045 L9.776914339990121 1.6543055432200333 L9.79489773799002 1.6688007832199787 L9.804716259990094 1.6829342872200073 L9.812467725990096 1.6974812022199615 L9.824353303990044 1.712958294219959 L9.842233349990089 1.7247663592199842 L9.859389925990051 1.732776206220052 L9.869931917990094 1.7448168152200196 L9.867658154990089 1.7690530612200064 L9.858666455990054 1.7834707862200219 L9.84657417099006 1.7955113952199895 L9.836962353990053 1.8092831642200338 L9.835618766989988 1.8287910172199418 L9.844197054990012 1.845740887220046 L9.874479443990047 1.8692278262200261 L9.885951611990059 1.8840331232199503 L9.88760525799011 1.891707073220033 L9.885228141990062 1.9037218442200015 L9.885331494990105 1.9101038832200175 L9.893806429990086 1.9379574802200068 L9.894219840990097 1.9459673272199893 L9.891222607990095 1.9521426622199556 L9.880163851990083 1.965630210220013 L9.87737332399012 1.9735108652200495 L9.87830349999009 1.9842337262199692 L9.881714143990102 1.9902281922200018 L9.885744905990116 1.9952666442199813 L9.888328727990022 2.002914756219951 L9.896694999990096 2.1241428672199447 L9.89876736699005 2.154171673219963 L9.885021435990005 2.1969080822199487 L9.84523058299009 2.226725384219975 L9.712422152990023 2.2818641382199587 L9.545300569990097 2.310880454220012 L9.456727165990053 2.3423514022199754 L9.368567170990097 2.3871290302200237 L9.246817497990001 2.501644003219951 L9.206716585990101 2.531693850220023 L9.188319775990117 2.549263836220007 L9.141914339990016 2.6073739842199757 L9.145014925990061 2.6078390722199174 L9.152368742990113 2.6116316872199263 L9.159794384990072 2.6154613462199734 L9.17074978899003 2.625305707219951 L9.173953727990117 2.6384573582200233 L9.165995556990048 2.6562340512199683 L9.18852648199006 2.665096560219979 L9.260460075990117 2.6770338152199997 L9.2758596529901 2.6733389512200176 L9.28898546599006 2.6814779892200136 L9.351100537990128 2.6958181982200244 L9.372081168990057 2.6971876242199926 L9.372081168990057 2.7033887962199685 L9.364743115990045 2.712613039219974 L9.367636995990033 2.714266685220025 L9.38200304499005 2.710856040219994 L9.394508740990027 2.714266685220025 L9.40350043999009 2.7199769302199854 L9.413008902990065 2.721087973219994 L9.4267548349901 2.710856040219994 L9.430682242990052 2.7153002132200186 L9.440604117990055 2.720416180219985 L9.44721870199006 2.7251445732199784 L9.463961865990022 2.7151451842199776 L9.467785921990036 2.7226641052200193 L9.464995393990073 2.734627198219954 L9.460964632990077 2.738141196219999 L9.48876655299005 2.772325156220006 L9.508196891990018 2.776123374219935 L9.5556358569901 2.775219036219994 L9.57444607799004 2.7822470312200096 L9.58106066199013 2.7899984962199937 L9.586124951989994 2.7981375352200075 L9.592119417990027 2.8044678972199506 L9.60152452899009 2.807051719219942 L9.613720166990099 2.8122968762199605 L9.617750927990095 2.8238465592199873 L9.618784456990078 2.8353704032200255 L9.627052685990115 2.847824424220022 L9.641212028990076 2.8855998962199862 L9.65268419599007 2.9026789572200187 L9.636974560990033 2.909887819219989 L9.623848746990056 2.9226777362199527 L9.604935172990103 2.9504279802199846 L9.598423942990046 2.9688247902199976 L9.59770047199006 3.001200075219998 L9.591189241990087 3.0125172132199793 L9.595116650990057 3.0134990652200315 L9.596873649990123 3.0135507422199623 L9.597597118990102 3.014739300219958 L9.59811388399006 3.0193385032200126 L9.586124951989994 3.02349845522005 L9.58199083699008 3.0451767192200236 L9.570828727990055 3.0534707862200037 L9.586538362990005 3.071583376220019 L9.604935172990103 3.0870087912200006 L9.593773063990078 3.1102631852200204 L9.574549430990054 3.1220970882200447 L9.553568799990067 3.1300810972199997 L9.536618929990048 3.14222505922001 L9.532588166990045 3.149408083219953 L9.52855740599005 3.160130942219979 L9.522872997990099 3.1831786312200165 L9.526490348990016 3.188346275219942 L9.533208284990017 3.1953742702199577 L9.535482047990051 3.2016012792200286 L9.526283642990045 3.2043401302199754 L9.522356233990074 3.2071306582200236 L9.525560172990048 3.213564374219999 L9.531657991990095 3.220463177219955 L9.536618929990048 3.22480399722005 L9.523803173990068 3.234700034220026 L9.51770535499002 3.237025474219962 L9.508713655990071 3.2378006202199856 L9.508713655990071 3.2452678642200112 L9.520082470990069 3.252967653219997 L9.52142605799002 3.2626569842199444 L9.516155062990087 3.2896579192199624 L9.519669059990058 3.3040239682199797 L9.528350699990021 3.317950766219951 L9.55026150799005 3.341463543220044 L9.543440217990103 3.3418769552200445 L9.536618929990048 3.341463543220044 L9.54902127299001 3.3570956642199974 L9.564937613990047 3.3608680442200125 L9.578580192990039 3.3659840102199894 L9.582507601990123 3.379368206220022 L9.584367952990128 3.385543540220027 L9.591085888990044 3.3995478532199286 L9.606795524990012 3.4063433042199733 L9.62488227599004 3.4105549332199985 L9.639041618990085 3.416575238219963 L9.623435335990045 3.436574017219982 L9.624985628990053 3.4428010272199856 L9.665706657990022 3.480343955219979 L9.673871533990045 3.4923328882200337 L9.662296012990105 3.4957176942199624 L9.655164664990046 3.502694012219962 L9.65392443099011 3.5129776222199496 L9.66012560299 3.526491009220024 L9.64183214599003 3.530961021219923 L9.62405545299 3.542769085220044 L9.610309521990068 3.5574710302199435 L9.604935172990103 3.57080354921996 L9.611446403990065 3.592068401219933 L9.627156038990044 3.597158530220014 L9.646483024990083 3.597391074219985 L9.663536246990127 3.6043673922199844 L9.71893338299008 3.6805126162200565 L9.741464306990103 3.697746705220027 L9.792313916990018 3.7179780292199496 L9.839856233990126 3.7484929632199453 L9.851018343990084 3.760636924220023 L9.834481884990076 3.766037111219987 L9.830761181990077 3.7752355162199933 L9.845540641990077 3.7950275902199735 L9.871792269990117 3.820659100219956 L9.88047390999008 3.8340432962199884 L9.892256136990078 3.8759012062200497 L9.892256136990078 3.8821023782199404 L9.88801866899012 3.8899571962199673 L9.89535672199002 3.894039634219979 L9.908069124990071 3.8972952492199795 L9.92026476299008 3.9025662462200046 L9.93132351899009 3.913211590219987 L9.934114045990064 3.9214281432200266 L9.935147574990047 3.930419842219976 L9.940625276990026 3.9435456562200386 L9.955611441990094 3.959255291219989 L10.023204215990056 3.9987360862200205 L10.106506624990082 4.027829917220032 L10.119425732990088 4.040335614220027 L10.107126741990065 4.057698895220028 L10.0767409999901 4.061781333219955 L10.043564729990088 4.061936363219985 L10.023204215990056 4.067672446219973 L9.996745881990073 4.058215660219986 L9.969150667990071 4.060541099220018 L9.946206331990048 4.071599855219944 L9.933907340990082 4.0887564302199735 L9.935767692990105 4.107876710219983 L9.950547151990115 4.12058911321995 L9.97421495899004 4.127565431219949 L10.002120231990027 4.129735842220015 L10.002120231990027 4.135937013220001 L9.989097770990092 4.153455324219976 L10.003153760990095 4.168751548219916 L10.030438915990025 4.179603599219973 L10.057310661990122 4.183789390219999 L10.051212842990076 4.206578696219992 L10.05906765999 4.227611004220023 L10.08443478399004 4.266479986220048 L10.084699169990067 4.266885093219997 L10.061548128990061 4.292361574219996 L10.071676709990122 4.3399038922199225 L10.078808056990077 4.353133059220028 L10.08397570099006 4.355923586219973 L10.082735465990048 4.35814567221999 L10.070229768990025 4.369617840220002 L10.05131619599009 4.382485272219981 L9.986927359989998 4.4039826682200385 L9.984136832990053 4.416023276220017 L9.985687125990061 4.435298586219943 L9.984033480990028 4.448269370219975 L9.979485953990086 4.459069745220006 L9.957575146990017 4.491987632219946 L9.904968538990026 4.505940269219934 L9.723790966990087 4.507387209219928 L9.689271109990038 4.514363527219928 L9.672011181990051 4.519996259220051 L9.658471956990063 4.528522869219984 L9.647516553990066 4.543198976220054 L9.63494676699002 4.569762470219956 L9.634287386990074 4.571155926219973 L9.620438101990025 4.584075034219978 L9.541579866990098 4.638955405219974 L9.512641064990127 4.653941571219946 L9.51253771199 4.653941571219946 L9.512434359990088 4.653993247219972 L9.512331006990046 4.653993247219972 L9.45786404699006 4.68081331521995 L9.412698844990068 4.703292563219975 L9.184185661990078 4.862817710220014 L9.15410997799011 4.892790041219939 L9.117523062990067 4.911290203219977 L9.077732210990057 4.939660565219981 L8.969315055990101 5.042341636219987 L8.92745714599004 5.070143556219932 L8.9221861489901 5.078411786219988 L8.914021273990095 5.098565594220048 L8.909370394990013 5.105696941220003 L8.900688752990071 5.111329672220023 L8.883015413990073 5.11556714021998 L8.874230420990067 5.119339520219995 L8.864515250990046 5.127039309219981 L8.802916943990105 5.19938631422005 L8.7860704269901 5.210445070219947 L8.775115022990057 5.213493980219994 L8.75361762699 5.216284507219939 L8.74245551799006 5.222537355220027 L8.7352208169901 5.231167319219992 L8.717960888990028 5.263103355219954 L8.642099886990017 5.329404217219974 L8.617191845990128 5.368006512219978 L8.636415478990067 5.403766603219992 L8.643133414990068 5.418391033220047 L8.649334586990072 5.460920737220022 L8.653055289990071 5.472289552219991 L8.655845816990045 5.477818930219996 L8.668868277990065 5.4912548032199595 L8.690469026990051 5.506137616220002 L8.696050081990073 5.513785727219982 L8.700494254990069 5.52970206821999 L8.714033480990047 5.621376059220012 L8.7102094239901 5.635897137219956 L8.693362907990029 5.666334556220022 L8.679203564990068 5.7017329122199385 L8.663390576990075 5.723385337220009 L8.65801622799011 5.735529299220019 L8.664114046990072 5.740851971219968 L8.66876492599004 5.738836590220018 L8.681994091990127 5.727932863219962 L8.697703727990096 5.735167564219921 L8.696463492990084 5.735580975219932 L8.692639437990117 5.736201092219915 L8.725092236990058 5.751187257219982 L8.7543410979901 5.7764570332200265 L8.772737906990095 5.785397055219988 L8.81759305099009 5.801881838220055 L8.829685335990057 5.812010418220012 L8.8297886889901 5.820485353219993 L8.820693636990022 5.84007072122003 L8.819453401990096 5.853661623219921 L8.823794222990067 5.863066733219966 L8.840020621990071 5.881411867219953 L8.841283380990028 5.8835300432199915 L8.843224560990045 5.886786216220031 L8.831545686990061 5.902754233219952 L8.811288525990072 5.897018149220003 L8.78917101299006 5.883892335220025 L8.771290966990101 5.877742841220055 L8.76023221099009 5.8754174012199485 L8.741732047990062 5.85836417822 L8.731603466990116 5.85205965422 L8.720751415990058 5.8512328302199705 L8.698220492990053 5.855728680219983 L8.662046989990124 5.853971681220003 L8.640652946990024 5.855315269219972 L8.61915555099008 5.853609946220018 L8.59455756899009 5.842551190220007 L8.557040478990096 5.81531771022 L8.53699002399005 5.811235272219989 L8.515906038990117 5.82456779121992 L8.4812828299901 5.8133540052199635 L8.403044710990052 5.811131919219974 L8.366354443990069 5.8037421892199745 L8.315711539990012 5.7703075372199635 L8.29442084999004 5.764778159219986 L8.239127067990118 5.7661734232199535 L8.19220486699006 5.756768312220004 L8.184763460990034 5.752582521219949 L8.182489697990029 5.7462779972199485 L8.185280224990088 5.739818443220003 L8.185176871990045 5.732790448219987 L8.174221468990076 5.724780601220004 L8.16595323899002 5.723747072220021 L8.141975374990118 5.725659100220042 L8.1319501469901 5.725245689220031 L8.120374625990046 5.721886720220027 L8.08781847399009 5.708140789219982 L8.017021761990058 5.699304119219988 L7.98870307699007 5.685713217219984 L7.982088493990084 5.6538805362200435 L7.969479443990046 5.618585532219953 L7.94074734699003 5.5881997902199885 L7.904677196990029 5.565978925219952 L7.850830355990091 5.548408937219989 L7.814140087990033 5.526343100219975 L7.795846630990063 5.519521811219931 L7.7756928219900985 5.521950604219995 L7.758432893990111 5.532285891219999 L7.744273551990055 5.543292970219994 L7.733834912990112 5.547840496219948 L7.718435335990129 5.5396756202200095 L7.684845654990106 5.505879233220014 L7.6679991379901296 5.494613771219974 L7.658077262990041 5.492701743219953 L7.6425743329901294 5.494975507219976 L7.63502957399006 5.494303713219978 L7.624900992990028 5.489704510220037 L7.606297477990061 5.477870607220012 L7.596168896990029 5.473426434220016 L7.577462028990048 5.470274171219955 L7.505838493990062 5.4755451682199805 L7.490691314990094 5.47955471521999 L7.472455517990106 5.484381837219985 L7.457779411990025 5.481539633220024 L7.420675732990041 5.486862306219962 L7.404139273990033 5.486965659219976 L7.306677523990054 5.468982261219992 L7.250660270990032 5.449500246219998 L7.236810986990086 5.447329836219922 L7.218724235990059 5.45549471222003 L7.187511670990084 5.485673748219938 L7.170355094990036 5.4961640642199825 L7.148857698990064 5.498489504220004 L7.133561474990124 5.491616538219944 L7.119298779990054 5.481229575220027 L7.1012120279901225 5.47311637522003 L7.08570909899003 5.472186199219976 L7.045091422990076 5.477560549220016 L7.029795198990023 5.482314781220026 L7.009538037990119 5.4970942402200365 L7.021733675990042 5.506189292219915 L7.04478136399009 5.515336021220008 L7.056977001990099 5.530425539220005 L7.048812126990093 5.539572267219995 L7.030311962990076 5.542001060219945 L7.009227978990047 5.542156089219986 L6.993518343990068 5.544326499219977 L6.972951123990093 5.557400636220024 L6.940291618990095 5.5886648782200155 L6.918690869990051 5.600912192219965 L6.89522976899007 5.6064415712199605 L6.876832959990075 5.604167808219927 L6.860606559990053 5.596468019220026 L6.844276806990017 5.585357586220027 L6.825569938990036 5.576262535219968 L6.809860303990057 5.574712241220027 L6.792807079990034 5.575384035219997 L6.770379508990054 5.573110271220003 L6.7545665209900605 5.565565513220037 L6.665786409990112 5.496267417220025 L6.650180126990072 5.494458742220019 L6.612352978990025 5.498437827220016 L6.590752230990027 5.496319094219928 L6.581553824990031 5.4967325052199385 L6.57132189199006 5.500504885219982 L6.555405549990034 5.5133723162199715 L6.543933382990097 5.520400311219987 L6.520265575990088 5.525929689219964 L6.498354768990048 5.522415692220022 L6.413812125990056 5.494252036219962 L6.3982058439901195 5.496577475219993 L6.398412548990073 5.513785727219982 L6.346736116990051 5.51507763922001 L6.305808381990111 5.505000734219976 L6.293922803990078 5.50515576421995 L6.283690869990004 5.510168377219998 L6.27997016699009 5.516369549219974 L6.277903108990124 5.52556795421998 L6.272735465990046 5.539830650219955 L6.265604117990101 5.553679933220025 L6.260643180990051 5.558124106220021 L6.183438590990072 5.562568280219949 L6.168245719990033 5.568149334219953 L6.146438264990017 5.58515088121996 L6.136619742990057 5.591145347219992 L6.114605582990059 5.589440024219925 L6.1121251149901 5.58788973222002 L6.1064407069900355 5.592850669219956 L6.087320426990054 5.620910972219974 L6.081636019990093 5.632796551219997 L6.07471137799012 5.643906984220024 L6.062309033990054 5.653725506219985 L6.056624625990018 5.688658774219988 L6.046289339990089 5.713670168219977 L6.026755647990079 5.723540366219964 L5.993579378990084 5.712895021219964 L5.9420062999900765 5.681114015219947 L5.914204378990114 5.67165722921996 L5.882164990990098 5.673982668219992 L5.864078238990082 5.682767661219998 L5.844561183990031 5.69597920621996 L5.8304885579900585 5.705505291219964 L5.808267692990022 5.710879641220032 L5.7621723149900035 5.708605877220009 L5.73695421599006 5.70255973421996 L5.724035107990055 5.690880861219995 L5.7280658689900505 5.677703371220019 L5.765893017990031 5.637292401220037 L5.770337190990112 5.634915285219989 L5.77674506899006 5.633726727219965 L5.782532829990053 5.6315046402199584 L5.784909945990073 5.625871909220024 L5.783049593990079 5.621531089220042 L5.782684556990084 5.621279830219947 L5.775091422990009 5.616053387219978 L5.774832548990098 5.6156866492200095 L5.773231071990004 5.61341788921996 L5.773128983989999 5.613368380219953 L5.759485139990083 5.606751629220042 L5.755971143990017 5.603392662220017 L5.755982566990092 5.603314605220049 L5.7565912599900955 5.599155194219975 L5.764239371990065 5.591662111219932 L5.765789665990091 5.587579672219931 L5.759898551990084 5.5392105322199825 L5.75483426199002 5.522570721219978 L5.745532503990084 5.503657147220025 L5.745325420990092 5.503554769219988 L5.736334098990078 5.499109621219986 L5.702847769990079 5.507894614219964 L5.682590609990079 5.509238201219944 L5.660783154990064 5.507687908220021 L5.6033131279900985 5.494899809220016 L5.603366839990024 5.49460194921997 L5.605489372990029 5.482831545219966 L5.6048692549900565 5.467173586220014 L5.606419547990093 5.461747561220022 L5.611070426990061 5.455443035220014 L5.57107286799009 5.4551846542199485 L5.550195589990004 5.451515627219948 L5.5330390149900595 5.4428856622200215 L5.527871370990049 5.435754315219981 L5.511748323990069 5.4039216322199195 L5.493558219990113 5.35348543421992 L5.481465934990119 5.333383302219971 L5.458004833990053 5.323254722220014 L5.450460074990097 5.3180354022199765 L5.433613557990036 5.298708416219938 L5.425159157990059 5.29645390922002 L5.419660921990037 5.294987713220024 L5.413873161990061 5.29664135921999 L5.410049105990048 5.301602296219926 L5.323336051990076 5.363769044220021 L5.315791291990017 5.368006512219978 L5.301631950990064 5.371727215219977 L5.29129666399006 5.3728124202199865 L5.260497510990085 5.372605714220015 L5.241273877990061 5.375292889220049 L5.224944124990053 5.380512208219955 L5.210371370990082 5.38955558421992 L5.196728792990079 5.403766603219992 L5.180709098990114 5.43621940221999 L5.182466097990094 5.437356284220016 L5.185670036990068 5.440353517220018 L5.187633740990087 5.445107749219915 L5.185256624990068 5.451774009220031 L5.180812451990043 5.453944419220022 L5.16851346099002 5.4541511252199655 L5.1656195809900325 5.454564536219976 L5.158591585990102 5.4740465512199705 L5.156007763990026 5.486500572219967 L5.148773063990056 5.494510419219949 L5.117973909990063 5.502571941220026 L5.092859163990049 5.505827557220016 L5.082523877990035 5.505362469219989 L5.072912060990113 5.502158530220015 L5.053068311990039 5.492701743219953 L5.043869905990043 5.490634686219977 L5.022062451990102 5.493993654219992 L4.9834084809901 5.508669760219988 L4.958087028990114 5.509961671220026 L4.938553337990122 5.507584556219996 L4.9329722829901 5.496319094219928 L4.937106396990025 5.463452882219997 L4.934522574990119 5.44862174721996 L4.929664990990027 5.435082521219982 L4.928631461990044 5.420819826220026 L4.937416455990011 5.403973309220021 L4.90847765399004 5.392449465220011 L4.809465609990063 5.386506675220005 Z" fill="black" stroke="black" stroke-width="0.5" vector-effect="non-scaling-stroke"/></svg>