<svg xmlns="http://www.w3.org/2000/svg" viewBox="0 0 0.8828710939200306 1.6322347111799829"><path d="M0.06554036496005011 1.4294544500899669 L0.08433919295999459 1.4274199450899836 L0.11046223996005011 1.406098330090007 L0.11729817796004482 1.3805042540900025 L0.10875325596004615 1.2852894110899946 L0.10045247395999723 1.2600208560899695 L0.057646484960010014 1.187348330090007 L0.05430989595999591 1.1724964420899973 L0.06505208396004747 1.1444609600899902 L0.06741210996001001 1.1248890200899986 L0.06627278696004879 1.1069446840899708 L0.06008789096001266 1.0991321840899708 L0.03339518296002808 1.0842396060899695 L0.026070963960030724 1.0503040590899708 L0.024606119960033368 1.013520205090007 L0.01549153696004879 0.9898792540900025 L0.022652994960033368 0.9718128480899999 L0.021106770959995913 0.9508167540900025 L0.016712239960050113 0.9285999580899933 L0.01549153696004879 0.9067493720899655 L0.0234667969600153 0.8525501530899682 L0.022815755960046147 0.8316354390899541 L0.008655598959997235 0.7564808170899973 L0.02013020896004747 0.7133899970899655 L0.0215136719600153 0.6936959860899528 L0.008655598959997235 0.6814075750899669 L0.03567382896000737 0.6490589420899973 L0.05476121810768575 0.6462076037871789 L0.0661523918835698 0.658864463538162 L0.06931660682131735 0.6772169101770835 L0.07817640864700337 0.6848110260276705 L0.0781542969600153 0.7042754130899915 L0.10484700596004615 0.7087513250899669 L0.08897786496005011 0.6683053610899528 L0.08555989595999591 0.6510527570899889 L0.08433919295999459 0.6329863510899862 L0.08629231795999459 0.6217558820899889 L0.0898730469600153 0.6099557520900056 L0.09052408896003072 0.5975859600899902 L0.08433919295999459 0.5852161690899642 L0.0762011719600153 0.5803333560899695 L0.05422851596001266 0.5765084860899528 L0.04267252596003601 0.5715442940899642 L0.05406575596004615 0.5588489810899695 L0.06724934895999723 0.5555123920899554 L0.08116536496005011 0.5539661690899642 L0.09459309895999723 0.5472929910899929 L0.09784830796002808 0.5415963770900056 L0.10419596396003072 0.5262562080899933 L0.10826497395999723 0.5231230700899836 L0.11485677095999591 0.5252796450899986 L0.12120442796004482 0.5346790590899708 L0.128610025960036 0.5367949450899836 L0.13381835996001 0.5443226140899959 L0.1319466149600501 0.5611683170899973 L0.1253548179599946 0.5882679260900012 L0.1253548179599946 0.6090605700899836 L0.12633138096004615 0.6165475490900043 L0.1343880209599959 0.6355091370899721 L0.13918945396000737 0.6409616110899528 L0.1463509119600488 0.6466175360899946 L0.15636067796004482 0.6438912990900043 L0.15839518296002808 0.6412464420899973 L0.15774414096001266 0.6363636290900025 L0.161813150960036 0.6129668200899836 L0.1624641929599946 0.5890410380899915 L0.16685872395999723 0.5783802310899695 L0.17825195396000737 0.5677601140899959 L0.1851692709599959 0.5709339420899973 L0.1933886719600153 0.5777698790900025 L0.20722330796002808 0.5783802310899695 L0.21357096396003072 0.5714222230899999 L0.22756835996001 0.5422474190899642 L0.23521809895999723 0.5299590070899889 L0.20754882896000737 0.5396432520900056 L0.1819954429599946 0.5437936420899554 L0.16083658896003072 0.5359811420899554 L0.1463509119600488 0.5094511950899836 L0.14521158896003072 0.4952096580900083 L0.15253580796002808 0.44800913708997214 L0.15497721396003072 0.44353322608998624 L0.16466145896004747 0.43616831708999726 L0.16685872395999723 0.4310006740900043 L0.1656380209599959 0.4268502830900083 L0.1605110679599946 0.4208281480899849 L0.15937174496003337 0.41663706708999726 L0.15937174496003337 0.38656708009000695 L0.17320638096004615 0.3896595280899682 L0.17792643296002808 0.3817249580899933 L0.1812630209599959 0.37094208009000695 L0.1905403649600501 0.3654896060899695 L0.19737630296004482 0.36890757508996685 L0.20323567796004482 0.3776152570899889 L0.2068977869600488 0.38908986608999285 L0.20722330796002808 0.40080861608999285 L0.22138346396003072 0.39222300409000255 L0.23066080796002808 0.3785918200899836 L0.23359049496003337 0.3623157780899682 L0.2283821619600488 0.3455921450899986 L0.22154622395999723 0.3524280830899933 L0.2070605469600153 0.3381458560899695 L0.2088509119600488 0.31682424108999285 L0.23497395896004747 0.2596546450899986 L0.23912434895999723 0.24024546508997346 L0.241891275960036 0.19475392908998757 L0.2501920579600281 0.20036916308999153 L0.25328450596004615 0.20325816108999462 L0.2562141929599946 0.209076846090003 L0.2623990889600307 0.209076846090003 L0.2850227869600488 0.14918101208997214 L0.3050423179599946 0.12305796508997346 L0.3336067709599959 0.1121937080899933 L0.3487434899600501 0.10914195008996685 L0.3908170579600281 0.0940052310899695 L0.3995247399600501 0.08830861608999285 L0.40489583396004747 0.07300913708997214 L0.42825195396000737 0.05152476208997214 L0.4337858079600281 0.03651011408999594 L0.45201497395999723 0.042572939089954076 L0.4725227869600488 0.03675425409000255 L0.5088997399600501 0.016002301090001225 L0.5884082039600074 0.0549427310899695 L0.60452148496001 0.07121877308998492 L0.6061490889600307 0.09046519208999726 L0.6040332039600074 0.11540822608998624 L0.6048470059600461 0.13709605109000123 L0.6153450529600448 0.14637339508999858 L0.6343066409600127 0.1532093330899933 L0.6401660159600127 0.16993296508997346 L0.6411425789600074 0.19052215809000828 L0.6461067709599959 0.209076846090003 L0.6616503909600127 0.2220162990900043 L0.6741829429599946 0.22401011408999594 L0.6819954429599946 0.22523081708999726 L0.7252083339600475 0.22205698908999594 L0.7496223959599959 0.22421356408995408 L0.7696419279600448 0.22999155908997082 L0.7871386719600153 0.23878062208996553 L0.80374023496001 0.25001109008997346 L0.8170865889600307 0.26234019208999726 L0.8279915369600488 0.2777210510900012 L0.8351529949600334 0.29525848608995275 L0.8524055989599972 0.4042265850899902 L0.8521614589600475 0.4178577700899986 L0.8492317709599959 0.42945445008996685 L0.8411751309600461 0.43433726208997214 L0.8353157559600461 0.43104136408999594 L0.8297005209599959 0.41659637709000563 L0.8209928389600307 0.4132190980899999 L0.8130989589600475 0.41741017908998757 L0.8060188809600461 0.4272571840899708 L0.8022753909600127 0.4387317940899642 L0.80374023496001 0.44800913708997214 L0.8126920579600281 0.4554554260900012 L0.82131835996001 0.45447886408999594 L0.8279915369600488 0.44861948908999594 L0.8316536459599959 0.44117320008996685 L0.8477669279600448 0.4642037990900043 L0.8345019539600074 0.4874378480899999 L0.8144824219600153 0.49447723608995275 L0.8105761719600153 0.46851695008996685 L0.7969856779600448 0.4721790590899708 L0.7628059899600501 0.4889433820899889 L0.7773730469600153 0.4943958560899695 L0.7925911459599959 0.5028593980899849 L0.8047981779600448 0.5129505440899642 L0.8105761719600153 0.5231230700899836 L0.8071582039600074 0.5449329650899735 L0.7935677089600475 0.5537220280899682 L0.7764778649600501 0.5573841370899721 L0.7628059899600501 0.5640980040900025 L0.7559700529600448 0.5601917540900025 L0.74905273496001 0.5578724190899642 L0.7513313809600461 0.6102812730899849 L0.7492154949600334 0.6254586820899739 L0.74905273496001 0.626801455090007 L0.7435188809600461 0.6355905170899554 L0.7352180989599972 0.6450306220899655 L0.7296028649600501 0.6547148660899929 L0.7319628909600127 0.6639922100899902 L0.7686653649600501 0.7218128480899999 L0.7746061199600334 0.7359323140899541 L0.7764778649600501 0.7498890200899986 L0.773385416960032 0.7932646710899611 L0.7696419279600448 0.8458769760899862 L0.7708626309600461 0.8678496320899889 L0.7764778649600501 0.8790394110899946 L0.7889290369600488 0.8839222230899999 L0.8476855469600153 0.8923450750899669 L0.8568001309600461 0.9012155170899554 L0.8652636719600153 0.9209909080900083 L0.8687630209599959 0.9385690330900083 L0.8722623699600334 0.9563099190899642 L0.8742154949600334 1.038910830090007 L0.8633919279600448 1.1418567940899642 L0.8686816409600127 1.1537383040899876 L0.8599739589600475 1.1622832260899862 L0.8445930989599972 1.2226673400899735 L0.831735025960036 1.2417103090899708 L0.7970670579600281 1.2772327700899986 L0.7864876309600461 1.301687523089985 L0.7785123699600334 1.3055123920899554 L0.7693977869600488 1.3082386290900025 L0.7628059899600501 1.3120228090899708 L0.7579231779600448 1.3207304910899929 L0.7318815109600294 1.4116321840899708 L0.7304980469600153 1.4166777570899889 L0.7252083339600475 1.4274199450899836 L0.7134895839600475 1.4354358950899986 L0.70803710996001 1.4544381740900043 L0.7012825529600448 1.4963489810899695 L0.6880989589600475 1.5116077700899986 L0.6476529949600334 1.5336211160899929 L0.6391894539600074 1.5410267150899735 L0.63381835996001 1.5642200750899669 L0.6212044279600448 1.5797636950899836 L0.6074511719600153 1.5922962470899655 L0.5982552089600475 1.6062122620899721 L0.5866178389600307 1.5913196840899708 L0.5903613289600074 1.5772409080900083 L0.599313150960036 1.5614124580899933 L0.60452148496001 1.5410267150899735 L0.5967903649600501 1.5299183170899973 L0.5788053389600307 1.5279245020900056 L0.5436490889600307 1.531098330090007 L0.5421028649600501 1.5136015850899902 L0.5357552089600475 1.5131133040899876 L0.5255826829600281 1.5199085510900012 L0.5122363289600074 1.5243030830899933 L0.49465820396000737 1.5260527570899889 L0.4786263029600448 1.5318714420899973 L0.47024414096001266 1.5424101790899876 L0.4725227869600488 1.548920596090003 L0.47292671896003213 1.5502535700899678 L0.4051196369600305 1.5998251420900154 L0.3531331459601077 1.6159223510899956 L0.2965474519600164 1.6162324100899816 L0.23655111496004366 1.60837759209004 L0.18626994596008473 1.588895577090046 L0.13867595196001758 1.539699613089983 L0.06554036496005011 1.4294544500899669 Z" fill="black" stroke="black" stroke-width="0.5" vector-effect="non-scaling-stroke"/></svg>