<svg xmlns="http://www.w3.org/2000/svg" viewBox="0 0 9.645863493299984 4.717277954159968"><path d="M2.729341866149973 0.3743414920799424 L2.7495990261499728 0.37010402407998555 L2.76758242515006 0.3618874720800491 L2.775954007150027 0.3483482470799757 L2.7674790721499605 0.32809108507996854 L2.7758506541500125 0.31625718308004735 L2.7910435261499558 0.31543035908001826 L2.808820218149968 0.32095973808004175 L2.8242197951499506 0.32819443808001125 L2.839929430150015 0.3347056680800691 L2.856155830150037 0.3380129600800572 L2.8720721711499593 0.33635931508002415 L2.9148602571499893 0.3136216840800401 L2.928296130150038 0.2965684620799962 L2.950723701150018 0.2498529670800238 L2.9703607461499573 0.22954412907999 L2.990824612150014 0.22295538408000226 L3.013458890149984 0.22517747008001976 L3.083118721150008 0.24135219307999733 L3.100378649149995 0.2498529670800238 L3.1415130891500596 0.2828742070799777 L3.1892621131500434 0.31021104007999867 L3.2117930371500663 0.32793605608001286 L3.219027738150025 0.3298739220799476 L3.2264691441499664 0.3305198770800146 L3.2339105501499645 0.32995143708007646 L3.241868721150034 0.3280135710799428 L3.243315661150028 0.32762599707994156 L3.244762601150022 0.3274968060800134 L3.246209541150016 0.32762599707994156 L3.247759834150024 0.3280135710799428 L3.312562080149938 0.3497435100799535 L3.333336006149999 0.34891668808001697 L3.3372168811500202 0.3468459220800142 L3.3402606481499717 0.3452218220800276 L3.3460484081500326 0.3405451060800502 L3.3511126981500112 0.3348606980800142 L3.3554535191500108 0.32819443808001125 L3.3662022171500254 0.3220966190800496 L3.3773643261499657 0.3199003700800418 L3.4149847691500597 0.3153270070799934 L3.4334849321500016 0.31951279808004784 L3.4978737661500006 0.3244737350799838 L3.539008206150065 0.3338271690800312 L3.562262601149989 0.33599757908002204 L3.6318190791499987 0.33356878808005064 L3.64825218415006 0.339098166079971 L3.7001353221500537 0.37142177408004073 L3.7069566111500123 0.38684718908002225 L3.7283506541500273 0.38664048307999366 L3.8290163451499595 0.3587868860800043 L3.860538968149932 0.35987209108001394 L3.876972073149993 0.3678302610799804 L3.926684802150014 0.3768994750800303 L3.946528551150003 0.3831523240800223 L3.9829087601499893 0.4065359100799881 L4.000478747150048 0.40896470207994895 L4.001925687150042 0.4081637170800221 L4.061043525150005 0.4234857790799893 L4.082747627150006 0.4240542200800306 L4.149616930149982 0.4012907510800474 L4.1989162461499845 0.40020554707997036 L4.2379836301499765 0.37739040207996055 L4.260927966150028 0.36901882007999376 L4.2802549511499635 0.3685537320799668 L4.337305732150064 0.37788132807998664 L4.393839749150025 0.3772612110800324 L4.413373441150036 0.380542664080032 L4.421549773150012 0.38379153808006805 L4.460192288149976 0.3991461790799704 L4.485410387150004 0.412788758080076 L4.5010166701499585 0.42586289508003716 L4.507734606149988 0.4417792360799595 L4.508664782150042 0.4548792120800229 L4.513212308150052 0.4672040410799596 L4.530885648149983 0.4809499720800048 L4.564578682150021 0.4951609910800485 L4.645400622149985 0.5166067100800049 L4.659973376150042 0.5253400270800697 L4.672479072150047 0.5369930630800255 L4.7061721061499995 0.5779466360800498 L4.729529853150034 0.6023379120799817 L4.748340075150047 0.6110195520800303 L4.780599276150035 0.6071423770799598 L4.794121558150032 0.6055171580799552 L4.869159573149993 0.59649847507999 L4.931688057149977 0.5781533410800037 L4.9317914091500015 0.5779983120800765 L4.9319981151500585 0.5779466360800498 L4.973649320149967 0.5507648320800698 L5.0706976591499355 0.44260605907999917 L5.113485746149983 0.4225039270800224 L5.604256823150017 0.38648545308002014 L5.670092598149999 0.368502055080036 L5.72269920614999 0.36405788208004 L5.752981595150025 0.35511786008002133 L5.769828112150002 0.3529216110800135 L5.817473782150039 0.35617722708000343 L5.881035794150016 0.34328395707999704 L5.954271769149976 0.342812985080009 L5.9774640171500195 0.34266383908002496 L6.024799629149975 0.32793605608001286 L6.034411445149992 0.31780747507998086 L6.056528958150004 0.28370103008001735 L6.068827950149959 0.273055685080017 L6.094976224150052 0.2581728720799745 L6.107068509150018 0.24874192408001505 L6.1224680861500005 0.22747707208004186 L6.1386944861500226 0.19636785907997734 L6.14923647814998 0.16474188308007598 L6.147892890150011 0.14208176708002185 L6.155230944150013 0.10903468907995517 L6.163499173150051 0.11136012807998696 L6.181999335150003 0.11257452408001001 L6.199052559150026 0.10898301208002437 L6.232228828149935 0.09787258008001487 L6.24917869815004 0.09487534607999493 L6.2964109571499804 0.09335089208000369 L6.313050768149985 0.0906895550799689 L6.439141263149956 0.07172430508001781 L6.469630358149935 0.06211248808001102 L6.517482735150047 0.046867941080058984 L6.54027204115004 0.04624782308000164 L6.563216377150063 0.05976121108006538 L6.574120104150033 0.06131150407998831 L6.584868802149963 0.0503302620800028 L6.595772529150018 0.06549729508001434 L6.615461250149956 0.06833949908000392 L6.656647367150036 0.06281012007998044 L6.673648913149968 0.06854620408004308 L6.696489896150062 0.08776983707998198 L6.707238594149992 0.08324814907994238 L6.74940656215005 0.11210943708000087 L6.755711087149983 0.11962835708002473 L6.759741849149968 0.1365523890800162 L6.769457019150018 0.13311590607998625 L6.780825833149997 0.12203131207997586 L6.789869209149963 0.11626939008002779 L6.802323229150026 0.12355576607999552 L6.807387519150005 0.13507961008003377 L6.814828926150021 0.1456991170800066 L6.849348783150013 0.1545099500800191 L6.849348783150013 0.1631399130800517 L6.8379799671500265 0.17065883507999757 L6.8183429231499915 0.1714856570800194 L6.8183429231499915 0.17771266708002287 L6.845731432150039 0.18866807107998085 L6.86443830015002 0.1929572150800496 L6.87684064514999 0.1860325730800767 L6.885418932150024 0.18869390908000838 L6.894513984149988 0.19378403807997557 L6.899784981150013 0.19884832807995423 L6.899696077150018 0.19967069207996957 L6.899164863149956 0.2045844130800063 L6.888622871149998 0.2137311410799967 L6.8860390491499786 0.21931219508000055 L6.8934804561499945 0.2438068250800498 L6.910947090150039 0.2630304580799887 L6.93492495514996 0.2774223430799978 L6.961073230149985 0.28757676208005734 L6.961073230149985 0.2949923310799889 L6.940712715149935 0.30127101708007586 L6.9417462441500035 0.30545680808001663 L6.943193184149997 0.30922918808003175 L6.945105212150018 0.3126398320799879 L6.947534004149979 0.31548203607994907 L6.973217191150063 0.3078856010799953 L6.98634300515004 0.3206238410799429 L6.9954897331500305 0.3342405810800315 L7.008925605150061 0.3291246140800368 L7.020501126150002 0.3380129600800572 L7.021534655149985 0.3472888800799936 L7.014610013150012 0.3560738730799713 L7.00272443315 0.3632827360800164 L7.023705066149994 0.3746515510800137 L7.030009590149994 0.37695115208004637 L7.030009590149994 0.37898441208006517 L7.030009590149994 0.3831523240800223 L7.012439603150021 0.39935288608001684 L7.023291653150061 0.40844793707999116 L7.04592593115003 0.4170262250800434 L7.064116035149958 0.431573141079987 L7.063289212150032 0.4360689910799991 L7.064942858149998 0.46694565907998964 L7.064116035149958 0.473146831079994 L7.074554675150004 0.47841782708000125 L7.086646960149999 0.48087245708007487 L7.097550687149969 0.48448980707997436 L7.105147122150008 0.4929905810799724 L7.07093732415003 0.5073049530800589 L7.082822904149957 0.5139970500799862 L7.09662051115 0.5284922900800169 L7.107937649150067 0.5435301310799971 L7.1125885281500345 0.5520050660800067 L7.116412584149991 0.5565267540800463 L7.134189277149993 0.5653892630799433 L7.1392535671499715 0.5687482300799687 L7.13985577914999 0.5704000120800359 L7.142870918149974 0.5786701050800573 L7.141320625150051 0.5893929650799592 L7.14679832715003 0.5966535040800309 L7.14679832715003 0.6029063520800335 L7.123750638149964 0.6061102910800074 L7.132845690149956 0.6280727750799784 L7.15579002614998 0.6545311080800573 L7.22090233115005 0.7127704470799827 L7.248807604150038 0.7319940800800069 L7.280123522150056 0.7400556040800055 L7.2811452101500365 0.742950387079965 L7.283083618150009 0.7484425440800138 L7.287564928149969 0.7611395880800345 L7.290717190149955 0.7673665980800095 L7.292009102149983 0.7709839480799943 L7.2918023961500396 0.7800531620799873 L7.2938694541500055 0.7844456590800704 L7.297796862150044 0.7862026570799472 L7.308648913150016 0.7871845100800172 L7.311232734150018 0.7878563040799875 L7.318467435150062 0.8147280480799921 L7.32487531215002 0.8293008020800485 L7.335417305149996 0.8356570030799801 L7.344305651149988 0.8365355030800075 L7.349266588150037 0.8386542360799822 L7.353193998149997 0.8411347050799591 L7.358981758149973 0.8430984090800067 L7.38471662114997 0.8436668500800479 L7.386266914150006 0.8430984090800067 L7.399909492150009 0.8468191130800236 L7.41489565814998 0.8527360640800126 L7.427608059150025 0.8606683970799693 L7.4347394071500545 0.8704094040800285 L7.426522855150033 0.8748277390800254 L7.421096829149967 0.8825275270800219 L7.417272774150028 0.8928111370800096 L7.414275540150008 0.904541688080009 L7.4320522331500385 0.9150836790800625 L7.424094063149987 0.9458828340800167 L7.43815005215 0.9523165490799741 L7.440465310149982 0.9536906810799977 L7.451689277149988 0.9603522350800588 L7.475770494150019 0.9996521610800428 L7.488689603150014 1.0144057830800435 L7.496441068150027 1.0170929570799743 L7.523467841149987 1.0212270710800126 L7.5340615111500355 1.0258262740799537 L7.541606270149991 1.0301929330800377 L7.5495644401499575 1.0335777390800516 L7.574575833149957 1.0377635300799923 L7.585014473150004 1.045463318080074 L7.605374987150036 1.069647889080052 L7.604134753149985 1.0821535850800572 L7.614780098149986 1.0947626350799808 L7.640049873149955 1.116802633080063 L7.652090482150008 1.1441136270799817 L7.653847480149999 1.1447337450799537 L7.656534655150033 1.1525885620799912 L7.65942853515002 1.1586088670800123 L7.657619860150014 1.1628463350799692 L7.646406074149972 1.1652492880800267 L7.658291654150013 1.1764630740800683 L7.7015965041499825 1.1925602830800486 L7.7015965041499825 1.199355734080008 L7.695498685150021 1.2066937880799813 L7.699942858150017 1.2096651820799948 L7.70945132115002 1.21175807807996 L7.7187530791499555 1.2164347940800226 L7.749345527150034 1.2396633510799475 L7.77766421215005 1.252324077079983 L7.790169909150045 1.2600238650799795 L7.790479967150013 1.274441590079995 L7.814871244149963 1.2776972050799955 L7.838332344150011 1.2878516240799414 L7.860036445150023 1.294776266080028 L7.879776842149987 1.288110006080025 L7.888768542150039 1.3046206260799877 L7.889887657149977 1.3055971440799752 L7.920807929150037 1.3325775760799914 L7.934450508150029 1.3495532840800095 L7.95403587614998 1.3859593310799951 L7.956735420150032 1.400895336080005 L7.957188138150023 1.4034001260800224 L7.948609851149989 1.4184638060800197 L7.96530133815002 1.4263186250800644 L7.966076484150044 1.4376874390799586 L7.964836250149993 1.4496505330799963 L7.975998359150019 1.4594432180799757 L7.975998359150019 1.4668846240800022 L7.9743566071499785 1.4788105600799852 L7.973259508149987 1.4867800500800072 L7.989537584150007 1.5148403530800252 L8.02989687814999 1.5624343470800355 L8.02984520215005 1.581244568079974 L8.085862454149996 1.6586558640799822 L8.095991035150028 1.6857084760800447 L8.096826629149966 1.6896288070800338 L8.099091621149988 1.7002553920799883 L8.098884915150016 1.7139238090800077 L8.09227033215003 1.724698344080032 L8.082245104150012 1.7371782030800276 L8.077180814150033 1.7515184130800279 L8.085862454149996 1.7679515190799933 L8.076509020150034 1.7723440150799732 L8.072839994150051 1.7798887740800424 L8.070772936149972 1.8173541880800101 L8.072839994150051 1.8253123580799766 L8.085862454149996 1.843011537079981 L8.089841540149955 1.8454920050799686 L8.094079007150007 1.8445618290799999 L8.097541328149951 1.845569520080069 L8.098884915150016 1.8538894250800482 L8.098988268149945 1.88489528508007 L8.097799710150035 1.8932151900800207 L8.091960273150043 1.900811625080003 L8.077800931149987 1.9057208870800153 L8.085035632149975 1.9193117890800195 L8.080384753150007 1.9249703580799533 L8.078537668150027 1.925531830080054 L8.071289700150025 1.927735047080013 L8.06467511715001 1.9323859260799807 L8.058887357150034 1.9629266980799756 L8.054133125149967 1.9671641650800282 L8.042092517149989 1.97000636808 L8.039663724150039 1.977292746079975 L8.043694485150034 1.9975757450799918 L8.04462466115006 2.0098488980800155 L8.043074369149956 2.0133112190799594 L8.029535144149968 2.0340334680799756 L8.01749453415001 2.042250021080015 L8.008037748150024 2.045712341080055 L7.996668932150037 2.048141134080005 L7.986953763150005 2.05175848407999 L7.982819649149995 2.0586831270799806 L7.986230293150008 2.0757363490800245 L7.98385317714996 2.0811623750800052 L7.972587714150016 2.0832294320799534 L7.960702136149983 2.086950135079981 L7.962717516150029 2.095476746080074 L7.981062649149997 2.116405701080062 L7.9873671751500055 2.1222451380799683 L7.993258288150024 2.129118104080028 L7.99646222614998 2.13785142007999 L7.984990059149986 2.161105815079999 L7.979098945149978 2.185755474080004 L7.962247790150052 2.2195889220800282 L7.959564132149971 2.224977123079988 L7.952537259150056 2.2390855520799917 L7.944579088149986 2.2427029020799765 L7.941891914150055 2.247715515079939 L7.942201972149967 2.253089865080007 L7.9482997911500135 2.256035421079993 L7.948609851149989 2.2614097700799576 L7.936207506150019 2.296498068079991 L7.934450508150029 2.3063682670799963 L7.937861153149974 2.3205276080800346 L7.962252429149991 2.3706537480799525 L7.964112780149996 2.381867534079994 L7.966593248149984 2.387862000080027 L7.972587714150016 2.3947866420799997 L7.9767218301500336 2.402693136079968 L7.974551419150025 2.410289571080007 L7.970520658150029 2.4179376840799947 L7.969177071149993 2.425844178080048 L7.971967598150023 2.433233907079945 L7.9808559441500435 2.4459463100799965 L7.982819649149995 2.449718689080022 L7.979925769150007 2.454679627079976 L7.966696602150016 2.461345887079979 L7.962252429149991 2.4667719130799597 L7.96504295615005 2.4957107150800155 L7.9806492381499865 2.526044780079964 L7.998219226150063 2.549919292080041 L8.006694160150055 2.5592727260800032 L8.01547915415005 2.659576681080047 L8.013515449150013 2.675648052080028 L8.019716622150007 2.6886188360799466 L8.005453926150032 2.693579773079996 L7.972587714150016 2.6933730680800423 L7.9594619011500285 2.6966803600800304 L7.942925443150038 2.705103618080024 L7.926492337149988 2.716214051080023 L7.913883288149968 2.727479513080006 L7.969745511150016 2.748356792079967 L7.9926898471499825 2.7608624880799724 L8.009484687150028 2.7821531790800478 L8.013308743149985 2.7883543500800343 L8.015789212149961 2.790473084080027 L8.017132799149998 2.792798523079945 L8.017649564149956 2.8264915570800113 L8.024677559150057 2.8367234910799723 L8.05123924514998 2.8593060920800113 L8.06467511715001 2.8708816130799804 L8.066887407150027 2.870714997080036 L8.089376452149956 2.8690212610799577 L8.118625313149998 2.880596782080012 L8.13815900414999 2.899355327080009 L8.132939684150067 2.9192507530800142 L8.162550280150008 2.9732526250799722 L8.181980618149986 2.998160666079947 L8.205028307149966 3.0086509810800024 L8.221978177149957 3.0118549200800615 L8.25691144514996 3.026014262080004 L8.345898262150023 3.04218898508001 L8.428787259150049 3.0729881400799925 L8.561802396149993 3.0941238000800197 L8.599112780150044 3.090609803079964 L8.630428698150034 3.089989685079992 L8.64314110115 3.086113953080037 L8.654406563149955 3.0769155480799455 L8.626036201150036 3.067717143079939 L8.619008206150049 3.063324646080055 L8.614305651150055 3.0559349170800445 L8.611411771150067 3.046891541080079 L8.613272123149976 3.0392434290799955 L8.641900865149971 3.029011496080024 L8.640350573150037 3.0139736540799404 L8.64148745414996 2.9996592820799677 L8.668049140150053 2.99500840308 L8.683552070149993 2.9987807820800256 L8.709855374150031 3.012009949080017 L8.732593004149997 3.0149038300799944 L8.745357083149962 3.021260030080022 L8.761790189149956 3.0337140510800182 L8.78163393815003 3.041982280080056 L8.804578274150053 3.0359878140800234 L8.809125801149996 3.0290631720800505 L8.812174710150025 3.0097878630799997 L8.81822085314996 3.001209575079976 L8.825403877150016 2.9973855190800194 L8.834188870149994 2.995576844080041 L8.856358060150022 2.99500840308 L8.86989728615 2.9902024950799913 L8.921263659149979 2.9602818410799685 L8.962036363150041 2.952013611079998 L8.97924461615002 2.946535909080019 L8.993610664150019 2.935993918080051 L9.001878893149971 2.9332033900800027 L9.02606346314996 2.932118185079993 L9.031127754150013 2.9292243050800053 L9.034848457149927 2.9220929570799754 L9.043323392150022 2.9149099330800325 L9.058412910150018 2.9056598520799994 L9.07991030614999 2.8973399460799456 L9.096343411150023 2.8968748580800323 L9.11256981114996 2.8990452690800126 L9.13355044215006 2.8987868860799395 L9.142232083150013 2.8964614460800036 L9.151017077150009 2.8921723020800485 L9.158768542150021 2.8869529840800183 L9.164556302150054 2.8817336640800093 L9.173858060149989 2.8772378140799972 L9.184710111149961 2.8789431360800464 L9.195665515150033 2.882973898079946 L9.205484037149965 2.8851443080800223 L9.282378568149959 2.890673687080046 L9.42143984714999 2.926123719080074 L9.46810366615005 2.9557343140800256 L9.479885892149973 2.9602818410799685 L9.502003405150042 2.97495794708005 L9.518849922149961 3.0092194220800437 L9.524017565149954 3.0481317760800337 L9.51099510415002 3.0769155480799455 L9.516731189150043 3.0832200730800494 L9.518229804149989 3.090454773080019 L9.51595604115004 3.097896180080035 L9.510768860149987 3.1051923170799896 L9.50189841715001 3.103849543080024 L9.475612610149987 3.1045819650800226 L9.475612610149987 3.1108075510799935 L9.490586568149972 3.125455988079999 L9.50149151614999 3.143278254079995 L9.518744120149954 3.1568687490800116 L9.551296204149985 3.1592694650800226 L9.528265605150004 3.176481379079995 L9.516139954149985 3.204150650080031 L9.508001933150005 3.2921226550800142 L9.502468079149985 3.3089683580800155 L9.489284485149987 3.3373700510799935 L9.486680318149972 3.351530207079996 L9.485378235149987 3.3677248690800283 L9.482611308150005 3.3824139960800252 L9.475612610149987 3.3919761710800103 L9.482123027150003 3.4134198560800186 L9.45689516214997 3.441048436080017 L9.469590475149964 3.4596031240800116 L9.462917297149993 3.4717694650800226 L9.45494203714997 3.4756757150800226 L9.445501933150005 3.476774348079992 L9.435248027150003 3.480802668080024 L9.421087870149954 3.496183527080028 L9.413519511150007 3.5008221990800266 L9.393744120149954 3.4932538400800226 L9.382839172149993 3.494840754079995 L9.372259745149954 3.4985842440800283 L9.362738261150007 3.50057805908002 L9.167669902150003 3.5223065740800266 L9.043809225149964 3.528206639080018 L9.007839172149993 3.5366701810800336 L8.907578756149967 3.585905207079996 L8.878119120149954 3.606413020079991 L8.852484355150004 3.6321698560800186 L8.84564841715001 3.6247235670799896 L8.846624980150004 3.60995305908002 L8.833034485149987 3.5916425120800213 L8.826686829149985 3.576139582079996 L8.849066386150007 3.5694664050800142 L8.873236308150005 3.566373957079996 L8.91002016214997 3.5527834620800363 L8.949896464150008 3.545703384080035 L8.972357402150003 3.5345136060800186 L8.990423808150005 3.5170575510799935 L8.996445943149972 3.4944338530800323 L8.990586568149972 3.4819013010799935 L8.977728495149954 3.4685956370800213 L8.948106100149964 3.446012629079995 L8.953558574150001 3.461963150080031 L8.955104797149993 3.469775650080031 L8.955511699150001 3.480802668080024 L8.939642558150005 3.4783612620800213 L8.925238261150007 3.4856447900799807 L8.91205466715001 3.488737238079999 L8.90033591715001 3.4739260400799807 L8.895860006149967 3.455534113079999 L8.893499980150004 3.395394139080018 L8.90383526614999 3.3764325510799935 L8.950547506149967 3.3641034490800266 L8.962347636150007 3.3510419260799935 L8.953477193149972 3.340788020079991 L8.91002016214997 3.3201174470800296 L8.896917949150001 3.3162518870800213 L8.866156230150004 3.3162518870800213 L8.834987610149987 3.308805598079992 L8.824570943149972 3.3101076810800336 L8.820990214150008 3.315234634080035 L8.817816386150007 3.3245119780800323 L8.811957011150007 3.3333824210800103 L8.800970683150005 3.3373700510799935 L8.778753886150007 3.33846868408002 L8.768581360149987 3.3413983710800252 L8.731797506149967 3.3663007150800226 L8.721136699150001 3.377734634080035 L8.715277324150001 3.398771418080024 L8.716823547149993 3.404508723079992 L8.72610089114999 3.4095136060800186 L8.72837953714997 3.416227473079992 L8.72642641214997 3.421964777080028 L8.721869120149954 3.4246503240800266 L8.717230449150001 3.4263999990800116 L8.715277324150001 3.4295331370800213 L8.718207011150007 3.438444270079991 L8.725287089150008 3.446094009080035 L8.733262350149964 3.451383723079992 L8.75580466715001 3.4583417310800186 L8.804144511150007 3.4944338530800323 L8.791449199150001 3.5041994780800323 L8.785833964150008 3.506885025080031 L8.776719381149967 3.508024348079992 L8.786159485149987 3.513558202080013 L8.790472636150007 3.5148602850799975 L8.790472636150007 3.5223065740800266 L8.778021464150008 3.528125259080035 L8.77720766214997 3.5374026030800323 L8.78469464114999 3.547575129079995 L8.797878235149987 3.5558759100799975 L8.788112610149987 3.56112493408002 L8.775580058150005 3.563281509080035 L8.731146464150008 3.5645022120800363 L8.72056703714997 3.5675132800800142 L8.660182922149993 3.594205988079999 L8.650091777150003 3.6008791650799807 L8.64057029215001 3.6148358710800252 L8.638861308150005 3.6277753240800266 L8.645453105150004 3.6331871080800155 L8.66010154215001 3.6247235670799896 L8.655951152150003 3.636849218080009 L8.637152324150001 3.641406509080035 L8.63275779215001 3.6558108060800336 L8.635768860149987 3.671842707079996 L8.644232402150003 3.67635930908002 L8.697292297149993 3.6695233710800252 L8.721218079149985 3.6592694650800226 L8.743109355150004 3.6438886060800186 L8.763698547149993 3.6247235670799896 L8.749457011150007 3.604297134080035 L8.819199850149964 3.620084895079991 L8.835150370149954 3.6284670560800336 L8.839300761150007 3.6458010400799807 L8.831081360149987 3.6657391920799896 L8.813828756149967 3.6816897120800363 L8.790472636150007 3.6868166650799807 L8.80813214114999 3.6699709620800363 L8.824408183150005 3.650846613079999 L8.827093730150004 3.6342450510799935 L8.804144511150007 3.6247235670799896 L8.804144511150007 3.6321698560800186 L8.811712870149954 3.639127863079999 L8.809515605150004 3.6423016920799896 L8.790472636150007 3.6458417310800186 L8.775905579149985 3.639005793080024 L8.769964824150001 3.6383954420799896 L8.76557029215001 3.6411623690800283 L8.761175761150007 3.6458824210800103 L8.756292949150001 3.652677668080024 L8.737168600149964 3.662972264080018 L8.705918600149964 3.6867352850799975 L8.688014954149985 3.6936526030800323 L8.639593730150004 3.7114748690800283 L8.625921855150004 3.7203046210800252 L8.643255839150008 3.697233332079996 L8.64642966715001 3.6868166650799807 L8.631537089150008 3.6852704420799896 L8.61867901614999 3.6873456370800213 L8.609564433150005 3.694303645079991 L8.60541404215001 3.7073244780800323 L8.618516256149967 3.7073244780800323 L8.612331360149987 3.71737493408002 L8.616156230150004 3.72518743408002 L8.626165995149954 3.730924738079999 L8.639593730150004 3.734586848079992 L8.599798808150005 3.7432945300800142 L8.584417949150001 3.7532229150799807 L8.584417949150001 3.7687665350799975 L8.588893860149987 3.764005793080024 L8.59564841715001 3.7590822900799807 L8.598659485149987 3.7550946600799975 L8.61281964114999 3.7608726550800142 L8.625921855150004 3.7687665350799975 L8.617376933150005 3.782194270079991 L8.605169902150003 3.807584895079991 L8.597357402150003 3.834928645079991 L8.601996074150001 3.854378514080018 L8.610215475149964 3.855802668080024 L8.618109355150004 3.8484784490800266 L8.623724589150008 3.8373700510799935 L8.630072245149954 3.8136884100799975 L8.639837870149954 3.805713150080031 L8.66010154215001 3.7960289050800142 L8.689886699150001 3.7670575510799935 L8.707383443149972 3.7533856760799935 L8.725287089150008 3.7476483710800252 L8.744167297149993 3.744026952080013 L8.758001933150005 3.733366145079991 L8.766628235149987 3.719694270079991 L8.776719381149967 3.7005292310800186 L8.770208964150008 3.7200604810800186 L8.761419902150003 3.7368654940800283 L8.695746074150001 3.8273602850799975 L8.648464172149993 3.853157811080017 L8.558294902150003 3.94003118408002 L8.548040995149954 3.9627362620800213 L8.54486716715001 3.974943293080024 L8.531927714150008 3.967741145079991 L8.516139954149985 3.9727053370800363 L8.502956360149987 3.98104680908002 L8.492621074150001 3.992521418080024 L8.486843079149985 4.004687759080035 L8.484076152150003 4.018644465080023 L8.482774068149972 4.056730402080028 L8.487005839150008 4.069059504079995 L8.502956360149987 4.090299738079999 L8.516953756149967 4.121793879079995 L8.519883443149972 4.136767837080036 L8.516628235149987 4.145475520079991 L8.523464172149993 4.152392837080036 L8.510117818149972 4.146614843080009 L8.49758526614999 4.149056249080012 L8.487982402150003 4.156787369080028 L8.482611308150005 4.16659368408002 L8.489203105150004 4.185189061080017 L8.505886047149993 4.266162369080028 L8.52297589114999 4.31775742108001 L8.523464172149993 4.3236981760799935 L8.520860006149967 4.331917577080013 L8.511745422149993 4.3412763010799935 L8.506699850149964 4.359708918080024 L8.492621074150001 4.388883723079992 L8.489447245149954 4.402433527080028 L8.465521464150008 4.43689804608001 L8.461126933150005 4.446582290079981 L8.44525779215001 4.501554621080025 L8.43939841715001 4.510831965080023 L8.436224589150008 4.520231379079995 L8.44094464114999 4.529752863079999 L8.436550110149987 4.538663996080025 L8.434271464150008 4.548714452080013 L8.433620422149993 4.559375259080035 L8.434759745149954 4.5700360670799896 L8.430121074150001 4.5798016920799896 L8.286315335150043 4.585867372080038 L8.072995023149979 4.559098979079955 L7.866547675149995 4.491041118079984 L7.832751289150018 4.47173997008003 L7.787586087150025 4.35668239408006 L7.763814928149991 4.327846945080019 L7.763814928149991 4.3277435920800045 L7.708211087150055 4.3324461470799704 L7.639068021149988 4.360661479079944 L7.57343895114996 4.372340353080013 L7.534256296149998 4.333824069080045 L7.527860339149974 4.327536886080033 L7.508016588149978 4.29720282008001 L7.485175605150054 4.291311707079991 L7.42626447214996 4.3047992560800665 L7.235578437149961 4.305987814080005 L7.224623034149992 4.300355083079957 L7.205296048150011 4.275808777079995 L7.193410469149988 4.268005636079984 L7.1370831581499985 4.248626974080004 L7.116050850149968 4.231315369080001 L7.120753405149962 4.208681092080049 L7.104403778150065 4.199561213079967 L7.102873359150003 4.198707540079944 L7.078482083149986 4.200361186079995 L7.057294746149999 4.1918345750800725 L6.9519781771500035 4.176590027080017 L6.879217761150038 4.144033875079977 L6.853276191149995 4.155971130080026 L6.7358673371500615 4.164549419080068 L6.641196113149952 4.205115418079977 L6.605436022150023 4.212970236080004 L6.560425850150004 4.212970236080004 L6.548953681150003 4.21498561608005 L6.529058255149998 4.224028992080015 L6.5195497911500055 4.225992697079967 L6.499499336150045 4.227698019080016 L6.465909655150021 4.2362246310800415 L6.26753199314998 4.257291285080051 L6.184076818150025 4.266153781080057 L6.162258939150028 4.268470724080011 L6.083193998149959 4.293585470080025 L6.002475411150009 4.308674989080011 L5.967955553150027 4.322214214079999 L5.931058580150015 4.352031515080007 L5.913385241150017 4.3713068250800475 L5.906047188150005 4.386758078080028 L5.785744453150009 4.450759339080015 L5.776235990150035 4.462464051079998 L5.768174466150036 4.476700908079984 L5.721045560150053 4.520186626079983 L5.691073229150014 4.53264064607999 L5.658000313150005 4.557419495080019 L5.656139961150011 4.561166037080035 L5.6328855661500015 4.589071310079994 L5.591337715150011 4.602145448079973 L5.584689257150039 4.60229906808005 L5.523124824149981 4.603721579079981 L5.505244778150022 4.612945822079986 L5.489638496150057 4.623797872080026 L5.46824445415006 4.633332175080035 L5.445610176150005 4.6404118450800595 L5.426799954149992 4.643693299080049 L5.4082997921499825 4.6507212940799505 L5.385562161149998 4.6524007780800005 L5.340500313150038 4.650540426080006 L5.334191355150033 4.651365326080061 L5.319157946149964 4.653330954079969 L5.277816800150013 4.666689312080003 L5.25487246414999 4.6710301310799665 L5.211360908149963 4.6667926640800275 L5.174773994150023 4.6513672490800175 L5.140460843150002 4.632117778079994 L5.137146095149994 4.63068876407997 L5.104080635150005 4.616433981080043 L5.063049547150051 4.60919928007997 L4.93334170215001 4.602145448079973 L4.8154160841499944 4.571475485080022 L4.6043695351500205 4.582275859079978 L4.557343981149977 4.577314921080024 L4.513504544150003 4.565423363080022 L4.351878486150035 4.521581889079961 L4.31808209915004 4.518662171079974 L4.282942126149997 4.526904562080013 L4.227234932149962 4.557212789080047 L4.20997500415006 4.561062684079992 L4.188446707149971 4.5618291540799945 L4.011124092150048 4.568142355080006 L4.001347152150053 4.566360130080007 L3.651662829149977 4.50261663908001 L3.5946120471499725 4.478380392080034 L3.5724945351499784 4.47525396807999 L3.4878485391499723 4.4889223840799914 L3.4725948361499874 4.487070149080047 L3.444440336149988 4.483651388079956 L3.336436592150015 4.440475729080028 L3.1768920521499737 4.434487798080006 L3.086219307149939 4.443783020080026 L3.0487022161500406 4.458329936079998 L3.013665595150023 4.463755962079951 L2.9835899121499594 4.473135234079997 L2.9042925351500273 4.478260223080021 L2.771303128149974 4.486855327080043 L2.7405039751499984 4.481558492079991 L2.7151825231499274 4.465667990079972 L2.7027801791500607 4.44672857708003 L2.702263415150007 4.424094300080078 L2.7264479851499956 4.349034282079977 L2.737610094150021 4.3265550340799805 L2.7575571971500423 4.317098247080004 L2.7782277701500604 4.314927836080024 L2.81801862315006 4.305522726079978 L2.8398260771500006 4.303403992079986 L2.8747593451500038 4.2894513560799865 L2.8918125681500086 4.258755555079951 L2.8827175161499596 4.228008077080013 L2.8600480291500148 4.220633666080012 L2.8398260771500006 4.2140554410800135 L2.7943508171499545 4.2096112680800175 L2.7581773151500144 4.198190776080004 L2.5433816931500175 4.092645540080078 L2.542479886149998 4.092202414079999 L2.5371055371500333 4.077422954079999 L2.541239652150061 4.0293638710800295 L2.53328148115002 4.015772970080043 L2.514264554149939 4.009416769079998 L2.4729234081500167 4.005179301079956 L2.4345794951499826 3.992673605079979 L2.4010931671500018 3.972106385079975 L2.3744281281500363 3.946009787079994 L2.356858141149978 3.9170193080800075 L2.3557212601500552 3.9093711960800377 L2.358098376150018 3.893558208080016 L2.357168200150049 3.886065125080002 L2.3527240261500353 3.8791404830800005 L2.331743395150049 3.8652911990800547 L2.3287461621499332 3.8571263230800312 L2.3289528681499903 3.844103862079983 L2.3315366901499814 3.830667989080048 L2.335877509150059 3.8213145550800007 L2.3428021521500497 3.8168703820800047 L2.352103910149985 3.814699972080014 L2.3872438831500276 3.813563091080006 L2.4001629921500225 3.8093773000799516 L2.4084312201499856 3.7996104540800175 L2.41153180715002 3.7822988490800142 L2.4173195671499954 3.7656590380799813 L2.4322023791500484 3.7555821330800327 L2.4520461301500447 3.7512929890800777 L2.4729234081500167 3.7518614300800337 L2.493904039150003 3.7579592490799953 L2.5302842481499894 3.775529236080054 L2.5518849961499583 3.7792499390799676 L2.5711086291499825 3.776717794080078 L2.593432848149966 3.769224712079968 L2.6110028351500247 3.7564089560800724 L2.6168939481500146 3.7382705290800473 L2.5664577511500326 3.6980145880799924 L2.5518849961499583 3.6904698280800474 L2.4729234081500167 3.683648540079993 L2.4392303741499504 3.6717112840800397 L2.4050205761499726 3.651919210079974 L2.335464098150048 3.5970905160799944 L2.3206846391500378 3.5908893430800006 L2.3022878281500354 3.588098816080027 L2.2777932001499934 3.5874270230800462 L2.267251207150018 3.5932664590800485 L2.2324212931499616 3.6205516160799576 L2.2128876011499514 3.629026551079967 L2.1714431021499863 3.6357444870799966 L2.156663643150061 3.6437026570800484 L2.150772529149968 3.659412293080017 L2.036877672150034 3.8059666550800344 L2.0238552121500035 3.815733500079979 L1.9999807001500116 3.820177674079993 L1.9783799511500249 3.8184206760800024 L1.9560557321499843 3.8114443570800134 L1.9386924511500396 3.799300396080021 L1.9280471061500677 3.770361593080061 L1.9188487011500612 3.7638503620799852 L1.9074798861499787 3.7589411020799517 L1.896937894150021 3.7518614300800337 L1.8915635451500563 3.74421331807995 L1.887914937150036 3.731591109080007 L1.8859842241500004 3.7249118840799795 L1.8839154331499728 3.7177549850799565 L1.8560101591499958 3.6695408740799635 L1.8460882841499924 3.6625128790800616 L1.8141522501500091 3.658792176080034 L1.723718493150038 3.6250991420799963 L1.7071820351499625 3.622618674080009 L1.6900254591500001 3.6258742890800093 L1.653438545149946 3.6371914270799905 L1.6085834011499784 3.6438060100799774 L1.5569069691500133 3.6440127160800344 L1.5080210651500394 3.6334190470800323 L1.471434150149996 3.6071674200800103 L1.4620290401500355 3.58913234508001 L1.456034574150003 3.57109727008001 L1.4473529321500607 3.5551292530799756 L1.4297829461499916 3.5433987020800046 L1.4101459021499565 3.5394196180799966 L1.3489610061500272 3.5430369680799814 L1.2639015981500208 3.5362673550800494 L1.2476751991499881 3.530841330079973 L1.2303119171499972 3.5044346720800164 L1.2123285191499846 3.4946678270800433 L1.211540955150035 3.4944228580800214 L1.194551826150068 3.4891384480800482 L1.198169177149957 3.475444194080019 L1.2072642281500165 3.4644887910800506 L1.220286689149951 3.456220562080013 L1.247055081150016 3.449450949079967 L1.3051393921500036 3.451518006080029 L1.333251371149963 3.448469096080011 L1.3738690471500021 3.4403042200800726 L1.388028388149955 3.4317776090799796 L1.3908189161500033 3.412605653080057 L1.3827573931499941 3.3964309290800614 L1.3680812861500087 3.387180847080039 L1.333251371149963 3.3775173550800233 L1.3082399771499738 3.368732362080017 L1.2601808951499933 3.362737896080013 L1.2369265011499735 3.3515757860799695 L1.2363063831500014 3.3461497600799888 L1.2387868521499783 3.339535177080002 L1.235686266149962 3.334419210080007 L1.218736397150046 3.3337990930799393 L1.2051971721500578 3.3312669480800494 L1.2031301141500066 3.322843690080056 L1.2078843461499886 3.312508403079967 L1.2151190461500434 3.3045502320799827 L1.2250409211499615 3.300984559080014 L1.2505690781499865 3.2996926480799758 L1.261007718150033 3.2971088260799846 L1.2736167671499672 3.2896674200800433 L1.2768207061500263 3.2848615120800346 L1.2773374701499662 3.277833517080019 L1.2812648801500117 3.2637775270800162 L1.2842621121499391 3.25959173607999 L1.292737047150034 3.2523570360800207 L1.2955275751499968 3.2481712450799662 L1.2961476921499795 3.2432103070800125 L1.2961476921499795 3.2358205770800126 L1.2955275751499968 3.2296194050800366 L1.2941839871500278 3.228172466079947 L1.3017287471500012 3.2200592660800353 L1.310307035150025 3.2137547410800167 L1.3207456731499505 3.2100340380800176 L1.333251371149963 3.2095172730799746 L1.3458604201500677 3.20176580907998 L1.3495811231499815 3.1892084360799586 L1.3450335971500564 3.175979269079967 L1.3361297091499793 3.168378389079983 L1.3111338571499616 3.1470404670799965 L1.2855023471499791 3.132261008079986 L1.2572870151500055 3.1214089570800425 L1.1510402701499558 3.097896180080035 L1.1088723021499831 3.096966004079981 L1.0909922561500238 3.0916950080799737 L1.0578159861500112 3.0751585500800687 L1.0414862341499926 3.061515971079963 L1.0073797891500007 3.0259109090799896 L0.9911533891500071 3.017384298080067 L0.9809214551500176 3.019192974080063 L0.9647984081500383 3.0317503470799707 L0.9550832391500066 3.0350059620800565 L0.9433010121500089 3.0329905810800213 L0.9345160191500028 3.0274095260799996 L0.9260410841500217 3.0205365610800143 L0.9157057981500074 3.01480047707998 L0.8684097221500267 2.9995981670799736 L0.8332302111500027 2.9882904670800556 L0.8179339871500346 2.9795054740799927 L0.7793833701500645 2.9435903530800047 L0.7147878291500191 2.9023525600800113 L0.6821283241499358 2.868556173080016 L0.6677622751500323 2.85822088708003 L0.6512258171499568 2.8525364790800793 L0.6333457711499975 2.8485057180799984 L0.6188763701499553 2.841736105080038 L0.6124684931499971 2.8277317910800335 L0.6348960651499951 2.8150193890799997 L0.6493654661500372 2.8045807500800564 L0.651949287150039 2.790576437080041 L0.6391335321499625 2.7674253950800463 L0.6097813181499916 2.7318203330800728 L0.6061639681500068 2.7154905800800364 L0.613915433149991 2.690479188079941 L0.6249741891500022 2.6721857300800664 L0.6290049511500158 2.663555767080034 L0.6316921261500212 2.6493964240800736 L0.6308653021500206 2.597409933079952 L0.6333457711499975 2.587126323079964 L0.6372731811499577 2.5776695360799877 L0.6374798861499968 2.568522807080008 L0.6292116571500443 2.5587559620800633 L0.6169126661500215 2.5543117880800494 L0.6058539101500102 2.5575157270800233 L0.5970689161500147 2.566094015080047 L0.5911778021500353 2.5776695360799877 L0.5785687531499875 2.584904237079975 L0.5651328811499567 2.587746440080032 L0.5518003611500362 2.5856793830799703 L0.5398114291500562 2.5779795950799738 L0.5303029661499963 2.564440370080014 L0.5073586301500583 2.543769796079978 L0.4976434601500088 2.5323493040800784 L0.4952308801500678 2.525938734079979 L0.49402611015002407 2.522737489079965 L0.4918557001500332 2.502376974080029 L0.48844505515000236 2.494057068079975 L0.4814170601500152 2.4878042210800757 L0.46405377914998525 2.4795876670800467 L0.45702578414996964 2.474936788080079 L0.4238495151499748 2.4333889370800037 L0.4084499381499924 2.4226402390800743 L0.38974306914999346 2.4173692430800386 L0.3516058631500343 2.414423687080024 L0.3334157591499931 2.408377544080004 L0.28080915014998453 2.3743744510799516 L0.2619989291499891 2.365486105080045 L0.22272484115000424 2.3532904670800363 L0.20567161814997093 2.3444021200800265 L0.19037539415003124 2.3282790740800365 L0.16939476315001656 2.2824937550800044 L0.1574058301499619 2.267507589080033 L0.09456728914999957 2.2129889530800213 L0.1349782581499639 2.1772805390799945 L0.29589866914999874 2.1741799530800634 L0.32028994515001585 2.1469464730800567 L0.36111432615000894 2.153406027080031 L0.40069847314997986 2.164929871080041 L0.429843981149979 2.183533387079997 L0.4397658561500677 2.1882359420799915 L0.45185814115006195 2.1914398810800506 L0.4592995471500032 2.1915949100800063 L0.5157302121500251 2.1833266810799685 L0.5352639031500175 2.176402039079967 L0.5505601271499856 2.164619813079959 L0.5559344761500356 2.1547496140799822 L0.5561088761499988 2.1525537630800287 L0.5570713571500434 2.1404352420800095 L0.5620322951499972 2.132993836080068 L0.5695770541499527 2.1310818080800473 L0.5788788121499735 2.133355571079967 L0.5883872751500618 2.1343891000800355 L0.5964487991499752 2.128808045080042 L0.5965521521499895 2.1207981980799744 L0.5872503941499687 2.0985773320800334 L0.5867336301500288 2.08917222107997 L0.5910744501500105 2.0835911660800335 L0.6302451861500273 2.0610085660800124 L0.6391106531500199 2.057689699080022 L0.6503989951500202 2.053463807080057 L0.6713796261500065 2.04938136907996 L0.6914300821499566 2.05000148508001 L0.7007318391499879 2.0533087770800265 L0.7187152371499721 2.063954122080027 L0.726880114149985 2.0666929740800484 L0.7368019891499884 2.066072856079991 L0.7514780951499844 2.0603884490800297 L0.7582993851500177 2.058889832080048 L0.7761794301499876 2.06152533107997 L0.813489815150028 2.072739116079994 L0.8332302111500027 2.0722223520799687 L0.8423252641499559 2.069483501080022 L0.8509035521500081 2.069483501080022 L0.8587583691500171 2.0722223520799687 L0.8656830111500184 2.0780101120800296 L0.8852167021500108 2.089740662080011 L0.9032001011500128 2.084986430080029 L0.9509491241499788 2.044730490079992 L0.9573570021500117 2.042405050080056 L0.9866058621499789 2.042560079080012 L0.9962176791499857 2.0373407590799744 L1.0076898471499973 2.022147889079953 L1.0162681351500211 2.00282090308 L1.0204022491499458 1.9583274940800166 L1.0305308301500062 1.936623393080005 L1.0473773471500678 1.9229808150800025 L1.066911038149975 1.9181749070799938 L1.109285713149994 1.9169088340800684 L1.1324367541499996 1.904687358079947 L1.1261322301499703 1.882724874079976 L1.0968833691499285 1.8442000940800156 L1.0993638381499906 1.8236070360800127 L1.1134198281500218 1.8077423720799928 L1.130679756150009 1.792678691080006 L1.1430820991499715 1.7743593960800368 L1.147009508150056 1.7360413210800303 L1.1526939161500067 1.7171535850799913 L1.1679901401499464 1.7044411830800428 L1.1893841831499614 1.700668804080017 L1.226177803150044 1.7026325080800362 L1.2477785511499278 1.6947260130799933 L1.2685524771499885 1.6758641160799712 L1.27528023415001 1.6628491100800105 L1.2772341171500372 1.659069276080011 L1.2879828151499666 1.6473387260800294 L1.315267972149961 1.6440314340800128 L1.3353184281500248 1.636228293080002 L1.3535085321499523 1.6175731000800297 L1.3569191761499937 1.5978327030799804 L1.3299440791499464 1.585146139080031 L1.3269468461500296 1.58323411108001 L1.3243630241500384 1.5808828330800466 L1.3221926141499623 1.5780664680799887 L1.3231227891499984 1.5720461640800423 L1.3253965521500035 1.566206726079976 L1.3288071971500344 1.5608582160800282 L1.333251371149963 1.5561039840800177 L1.3546454141500632 1.5157705280800613 L1.3674611681500366 1.499492452080041 L1.3883384481500158 1.4860565800800103 L1.4248220091500272 1.4793128060799816 L1.4351572951499563 1.4731374720799764 L1.4435288771500083 1.4603733930800118 L1.4432188181500223 1.4495471800800672 L1.4398081741500093 1.438875998079972 L1.4388779981499553 1.4266803600800486 L1.4404282911499635 1.4148981330799657 L1.4416685261500035 1.412210959080035 L1.44611269815001 1.4110740770800092 L1.491794664150028 1.3853908900800391 L1.5002695991500374 1.3781045130799683 L1.519286527149994 1.3287018440800367 L1.5231105821499327 1.3277199920800697 L1.5224904661499679 1.3266864630800015 L1.513498766150029 1.3150075890800181 L1.5065741251500455 1.3111318570800634 L1.4969623081500387 1.3098399460800252 L1.488384020150015 1.3069977420800356 L1.486010858150017 1.3016581280800281 L1.4845599641499732 1.2983936160800127 L1.523627347150061 1.2663542280799973 L1.5459515661500447 1.2519106660799721 L1.5952508821499336 1.2294830940799741 L1.6155080441499408 1.2158663530799814 L1.6222259791500662 1.2070555220800046 L1.6271869181500094 1.1894080210800055 L1.631631090150016 1.180338807080041 L1.6411395541500085 1.1707786660800323 L1.6632570671500204 1.1563867810800232 L1.6716286491499872 1.1483510950800238 L1.6777264681500341 1.1360262660800018 L1.677416409150048 1.1268020230799962 L1.6750392931500286 1.1177586470800307 L1.675349353150004 1.1061572880799773 L1.679483467150014 1.0950726930800627 L1.6910589881499831 1.0802415570800363 L1.6963299841499904 1.0711465060799767 L1.7078021511500125 1.0353347380800315 L1.713899971149992 1.0236558640800482 L1.7525539421499943 0.9853377900800311 L1.770744046150007 0.9714109910800701 L1.788727445150009 0.9639179080800275 L1.833272530150019 0.954977885079991 L1.8533229851499513 0.9272534800799761 L1.8519793981500001 0.8938963430800086 L1.8431944041500046 0.8592731330800021 L1.8406105831500028 0.8281380820800237 L1.8596275091500658 0.8036692920799808 L1.8891864291500085 0.7817584850800259 L1.9513015001499738 0.7501325070799467 L2.00029075814998 0.7417350880799702 L2.0059186541499727 0.7388674390800034 L2.0138299831500532 0.7348362840799965 L2.019100980149993 0.7272915250800409 L2.019349331150032 0.7262177720799983 L2.0208579781499836 0.7196950890800693 L2.02158144914997 0.7123053590800694 L2.0245786811499826 0.7056907760799689 L2.0493833691500285 0.681764588080064 L2.052483955149988 0.6731346240800136 L2.055894599150001 0.654789490079942 L2.05961530215 0.6473480840800008 L2.0669533561500018 0.6411469130800143 L2.0839032261500208 0.632827006079971 L2.0915513381499906 0.6276076870800367 L2.113462145150031 0.60523179107998 L2.124830960150028 0.5973252970800118 L2.1433311231500554 0.5903748180800292 L2.1611078151499825 0.5860339970800581 L2.173820218150034 0.5852071740800184 L2.220018948149992 0.5899097300800022 L2.234384997150009 0.589057068079974 L2.247614163149983 0.5853880420800763 L2.2590863321500123 0.5779983120800765 L2.275416084150031 0.5385175170800451 L2.3061118851500666 0.5336857710800373 L2.38021588915003 0.5600407520800061 L2.4147357461499936 0.5638648070800301 L2.4529763051499955 0.560144104080031 L2.4894598671499963 0.5495245980800192 L2.518708727150049 0.5322905080800595 L2.5434100611499773 0.5103797000800014 L2.5556057001500605 0.5038943080799427 L2.5759662141500073 0.4975897840800272 L2.5975669631499656 0.4960911670800172 L2.603561429149998 0.49340399308000116 L2.6120363641500077 0.4821643680800278 L2.6100726601499886 0.47485215308004314 L2.60500837015001 0.46839259907998354 L2.604594957149992 0.45984014907995885 L2.6153436551500064 0.4463267620799982 L2.6313633491499715 0.4387820040800321 L2.6714642611500423 0.42875677508002497 L2.687794013150004 0.4186281950799824 L2.7129087601500075 0.387260601080051 L2.729341866149973 0.3743414920799424 Z" fill="black" stroke="black" stroke-width="0.5" vector-effect="non-scaling-stroke"/></svg>