<svg xmlns="http://www.w3.org/2000/svg" viewBox="0 0 2.071185204599985 1.8035240241600192"><path d="M0.17843562030004279 1.679699024080083 L0.16319107230001606 1.6626458010800498 L0.14267552930002836 1.6525172200800888 L0.11280655130003225 1.6493132810800297 L0.09947403129999799 1.6440422850800935 L0.06216364730006063 1.6196510100800658 L0.05441218230004807 1.6116928390800958 L0.061130119300067065 1.5353150720800564 L0.05441218230004807 1.5120606770800329 L0.0441285723000604 1.5016220380800895 L0.032914787300008186 1.4962476890800396 L0.024026440299998342 1.490149870080078 L0.020305737299999294 1.4773341150800867 L0.023923087299984047 1.4642083010800384 L0.0412863693000034 1.4487053710801128 L0.03777237130004352 1.4365097330800047 L0.027643790299983095 1.418422982079992 L0.023923087299984047 1.3985792320799995 L0.021907706300034135 1.377185189080084 L0.029400789300048302 1.3509335610800584 L0.043456778299976406 1.338841276080064 L0.07032852429998826 1.3295395180800433 L0.09120580229996023 1.3234416990800817 L0.10851740730004877 1.3132097660800959 L0.12272842630000724 1.298740365080068 L0.13430394730006157 1.2806536140800553 L0.1418487063000171 1.2657708010800128 L0.14525935030003012 1.2550221030799982 L0.14644790830005405 1.2463404620800311 L0.15673151829995646 1.2367286460801132 L0.16520645329996597 1.2337314130800117 L0.19399022630006613 1.234661588080062 L0.23848363430006003 1.2228793620800538 L0.2729001383000096 1.1956975590800774 L0.29791153130000936 1.156733529080089 L0.3136211662999884 1.1093979170800345 L0.3194089273000671 1.0676433600799875 L0.3173418692999874 1.0316765630801008 L0.2907801833000647 0.874683561080051 L0.28860977430000645 0.8380966480800147 L0.29357071130002765 0.8023365560800961 L0.3123809322999662 0.7583082350800403 L0.34971021729996465 0.6986058980800216 L0.3753228272999607 0.6576425460799875 L0.39640681129998967 0.6176449870800163 L0.40849909629998393 0.5999716470800998 L0.45676488429996454 0.5599740890800469 L0.46689346430003553 0.5468482750800696 L0.4942819743000726 0.49041761108005133 L0.5058574953000132 0.47553479808009413 L0.5215671302999638 0.4689202150800078 L0.5979965743000619 0.46581962908006247 L0.6004770433000388 0.46519951207999455 L0.6026991293000563 0.46375257208000065 L0.604766186299976 0.46158216108002037 L0.6081354082999795 0.4562744830800547 L0.627400464300031 0.4259254240800239 L0.6618169673000196 0.3900619790800768 L0.701711173300005 0.36132988308006375 L0.7409852623000077 0.3473772470800789 L0.7811895263000181 0.3495476560800661 L0.8021701583000507 0.3479973630800437 L0.8207736732999891 0.34293307308006504 L0.8413925703000089 0.33135755208002493 L0.8568438232999895 0.32019544307999936 L0.8735869873000368 0.3115138020800323 L0.8978749103000112 0.3071729820800506 L0.9097604902999663 0.3098601560800809 L0.9310511793000344 0.3227792640800864 L0.9379758213000358 0.3252597330800633 L0.9462440512999777 0.32040214808005274 L0.9522385172999819 0.30066175208007806 L0.9612818933000611 0.2899130540800634 L0.9705319743000658 0.2841252930799989 L0.9792136143000292 0.2815414720800824 L0.9880942963000123 0.2828684700800217 L0.9882053142999965 0.282885059080062 L0.9991607183000681 0.2884661140800695 L1.0272726962999812 0.3292904950800626 L1.031716870299995 0.35027112608006306 L1.034093986300043 0.3914055660800422 L1.0438091552999893 0.4125929040800891 L1.0609657303000475 0.42861259808005414 L1.0804994222999724 0.43419365307997637 L1.10153173030006 0.4319198900800565 L1.123494214300031 0.4237550130800294 L1.1913970453000005 0.3861345710801096 L1.2017323322999758 0.38396416008002987 L1.2108273843000532 0.3621567060800892 L1.2238498452999877 0.3487208340800443 L1.2290545253000644 0.34593261308009815 L1.258576408300037 0.33011731808008804 L1.2994007893000301 0.3142009770800662 L1.3102528403000022 0.30407239608002 L1.3154204832999952 0.28887952507999515 L1.321518302300042 0.2501222010800497 L1.328649650300072 0.23647962308004722 L1.3365044683000136 0.23182874408007947 L1.3444626383000653 0.2304851570800288 L1.3524208093000496 0.22986503908005673 L1.35981053830006 0.22769462908006588 L1.37526179230003 0.21849622408005942 L1.419755200300024 0.17622490308007244 L1.432829338300003 0.15948173908002516 L1.4435780352999998 0.14139498708010834 L1.4454900643000386 0.134780404080022 L1.4477121502999992 0.12041435508001896 L1.450606030299987 0.11441988907998635 L1.4540198403000275 0.1116085160800857 L1.457634025300031 0.10863212908001074 L1.4743771892999646 0.1010873700800552 L1.4804750083000116 0.09602307908008711 L1.4856426513000045 0.08083020908005167 L1.4921022053000073 0.039489062080026116 L1.5005254642999901 0.025226367080055212 L1.515821687300054 0.019748666080065647 L1.5323581463000053 0.022229134080038904 L1.549411368299964 0.027190072080077954 L1.566257885300054 0.029360482080068806 L1.581967521299994 0.025433073080012747 L1.5950933352999712 0.019541960080008636 L1.6086842363000713 0.01768160808000019 L1.623898805300037 0.02241520908006933 L1.63485602530006 0.02582425108004216 L1.6269260173000433 0.034114714080065056 L1.6192262293000184 0.04507011708004782 L1.6160739673000606 0.056335579080101894 L1.6193812583000593 0.06708427708003128 L1.633954011300041 0.07710950508004899 L1.6372613033000292 0.09075208408005508 L1.6351425703000544 0.0966431970800592 L1.6313701903000108 0.1023276040800063 L1.6286830162999948 0.1083220700800247 L1.630336661299971 0.11431653608005732 L1.6391216553000234 0.12020765008005085 L1.6470798253000183 0.11896741508002506 L1.6535910563000655 0.11545341808006881 L1.657725171300008 0.11431653608005732 L1.6700241613000415 0.12320488308006716 L1.67426162929997 0.12940605508005731 L1.6781890383000544 0.15524427108006833 L1.6842868572999876 0.16981702508003949 L1.702476961299972 0.1999960610800322 L1.7083680743000471 0.22035657508006423 L1.7176698322999826 0.23244886108004792 L1.7196852133000178 0.2406137370800714 L1.7187033612999656 0.24371432308001673 L1.7164295982999604 0.24805514307999843 L1.7140524822999694 0.25394625708009144 L1.7130189532999864 0.2613876630800185 L1.7183933023000648 0.2774073570800688 L1.7313124103000703 0.2871225270801041 L1.7607679772999703 0.29931816408002376 L1.7713099693000416 0.3067595710800397 L1.7862961343000237 0.3210222660800248 L1.7954945393000301 0.3266033200800429 L1.8615370193000516 0.35109795008009215 L1.8811740633000298 0.35388847708005144 L1.9006044022999689 0.36567070308004546 L1.9062888103000049 0.3918189780800567 L1.9044284593 0.4178639000800395 L1.9013278722999942 0.42964612708003713 L1.8960052002999603 0.43543388708001274 L1.9019479902999663 0.4484563470800431 L1.9184844483000418 0.4705738610800587 L1.9308867922999937 0.48380302808005027 L1.9353309653000181 0.4914511390800307 L1.9450461342999645 0.5274179360800879 L1.954657950299982 0.5499488610801144 L1.9703159103000374 0.5622478520800662 L1.9940870693000718 0.5531527990799994 L2.0013734452999827 0.5743401370800463 L2.0005466223000283 0.600075000080043 L1.9876275153000122 0.6789332360800593 L1.9873174553000652 0.6896819330799993 L1.9895912193000598 0.6948495770800811 L1.998479565299995 0.7084921550799983 L2.000960034299972 0.71769056008009 L1.9894878662999602 0.7451824220800667 L1.9930018632999875 0.7557244140800385 L2.000960034299972 0.7958253260800241 L1.9954823322999644 0.8127751960800289 L1.9853020753000195 0.8277613610800962 L1.979669344299971 0.8431609380799934 L1.9873174553000652 0.8610409840800521 L1.9710910563000041 0.8737533850800112 L1.964993237300071 0.8802646160800727 L1.9600323003000497 0.8883261390800534 L1.9900046313000601 0.8930803710800497 L1.9930018632999875 0.9195387040800433 L1.979824373300012 0.9777263670800558 L1.9985312412999932 0.9736956060800601 L2.016566317299983 0.9826873040800059 L2.0318108643000485 0.9979835290800487 L2.042507885300047 1.0124529300800766 L2.0508794672999855 1.0414950850800757 L2.016462964300054 1.1528061200800188 L2.0077813232999873 1.1968344400799857 L2.01201879030004 1.265254037080073 L2.0077813232999873 1.2856145510800054 L1.9974460373000014 1.304321419080086 L1.9844235763000668 1.31372653008005 L1.967628735299975 1.3211679360800623 L1.9521774822999944 1.330056283079987 L1.938224845300006 1.3334669270800994 L1.9309901453000364 1.3376010420800277 L1.9218950922999696 1.3400815110800046 L1.9137302163000598 1.3381178060800671 L1.8615370193000516 1.3123829430800704 L1.8507883213000653 1.3089722980800538 L1.8378692133000598 1.3107292970800337 L1.8263970463000376 1.3197209960800684 L1.8121343503000347 1.3465927410800766 L1.800920564299993 1.3559978520800264 L1.779991609300005 1.3571347330800343 L1.758287507300004 1.3509335610800584 L1.7369968183000495 1.3482463870801134 L1.7176698322999826 1.3596152020800112 L1.6848036222999738 1.358374968079989 L1.6515239993000321 1.3427686850800349 L1.5972120683000597 1.2982236000800391 L1.5914759842999686 1.290368783080087 L1.5863083412999757 1.27631279308007 L1.5815541092999936 1.2708350910799915 L1.5781434653000659 1.2720753250800279 L1.5465174882999762 1.2645305660800723 L1.5416599043000545 1.2620500980800138 L1.5255885332999881 1.2668043300800953 L1.515821687300054 1.275899382080059 L1.5116802643000327 1.281339595080059 L1.5070883712999787 1.2873715500800849 L1.494220938299982 1.2992571290801074 L1.479854891299972 1.306595182080006 L1.4610446693000725 1.312693001080067 L1.4419243892999773 1.3166204100800378 L1.4258013433000727 1.3173438800800348 L1.4133989983000177 1.3145533530800613 L1.3821864343000314 1.2993604820800364 L1.3705592362999894 1.2982236000800391 L1.3669935633000208 1.3049415370800581 L1.3664767992999671 1.314346648080022 L1.3644097413000011 1.3213746420800199 L1.319244539300037 1.37801201208001 L1.3021913162999752 1.3897942380800181 L1.2798670983000378 1.3905177090800187 L1.2569227623000714 1.3816293620800941 L1.2360454833000247 1.3677800780800347 L1.2196123783000488 1.3534140300800352 L1.1886065182999985 1.3167237640800558 L1.1764108803000184 1.3073186530800065 L1.1649903892999944 1.3032878900800178 L1.1553785722999876 1.3029778320800212 L1.1469553133000048 1.3038046550800466 L1.1392038492999816 1.3026677740800388 L1.1215898973000051 1.2875204690800537 L1.1198512832999725 1.2860253300800686 L1.1130038983000716 1.2801368490800265 L1.1049940513000323 1.275589323080073 L1.0947621173000428 1.275899382080059 L1.091868237300055 1.2814804360800771 L1.091971590299984 1.2907821940800126 L1.0854603592999936 1.3419418620800094 L1.092643384300068 1.418836393080003 L1.0709909583000652 1.4943873380800348 L1.0667958602999832 1.596934187080027 L1.0663400803000016 1.608075488080022 L1.0609657303000475 1.6300896480800056 L1.0514572673000728 1.6518971030800351 L1.0392616293000358 1.672567676080039 L1.02592910930003 1.6906544280800553 L1.0054652422999837 1.711428353080013 L0.9866550212999599 1.7224871100800137 L0.966449536300054 1.7263111650800518 L0.9415931723000384 1.7255876960800443 L0.9192689533000546 1.7188697590800253 L0.907796785300043 1.7189731120800538 L0.9003553792999881 1.7282748700800745 L0.8970480873 1.749255501080075 L0.8927072673000183 1.7585572590800105 L0.8829920983000719 1.7644483730800182 L0.8606162033000331 1.7672389000800628 L0.8417543042999753 1.764345020080075 L0.8001570712999708 1.7506162880800424 L0.7894577552999706 1.7470850910799989 L0.7823264073000544 1.7466716800800732 L0.7525607823000726 1.7574203780800879 L0.7451193763000177 1.7619679040800413 L0.737161206299966 1.7650684890800683 L0.7268259193000475 1.7646550780800574 L0.7049151123000073 1.7675489580800452 L0.6862082433000367 1.779434538079986 L0.6671913172999737 1.785842416080019 L0.6439369223000497 1.772716602080056 L0.6077449823000123 1.7659769480800982 L0.5884364333000534 1.7623813150800522 L0.5705047122999716 1.7644483730800182 L0.5273548912999857 1.7831552410799993 L0.5027569092999968 1.7854290040800187 L0.4939202393000599 1.7664120770800373 L0.49273168129997913 1.7539063800800427 L0.48342992330004364 1.7331324550799998 L0.48115616029998165 1.7215569340800592 L0.4845668053000125 1.7111182950800163 L0.49841608930001513 1.6941684250800115 L0.5005864982999881 1.6827996090800248 L0.4944886793000549 1.6703972660800481 L0.4727845783000433 1.6500367520800303 L0.47255072630003525 1.6491145170800117 L0.4691155523000319 1.6355673500799988 L0.4704074622999954 1.62378512408009 L0.46968399229997004 1.6191342450800228 L0.4574883542999899 1.610039193080059 L0.43919489830000913 1.599600553080112 L0.4180592363000599 1.5945362630800481 L0.3758395913000143 1.5892652680801014 L0.3535153723000306 1.5824439780800539 L0.2927955653000325 1.555985645079975 L0.2765174893000122 1.5536085290800266 L0.21832982530001033 1.557432585080054 L0.19564387230003177 1.5796534510800946 L0.17843562030004279 1.679699024080083 Z" fill="black" stroke="black" stroke-width="0.5" vector-effect="non-scaling-stroke"/></svg>