<svg xmlns="http://www.w3.org/2000/svg" viewBox="0 0 12.084650878799991 5.610332030400045"><path d="M10.952583414400031 5.540843098200007 L10.955513102400026 5.52928710920002 L10.962104899400025 5.523264973200007 L10.974189860399996 5.520823567200004 L11.068672282399994 5.519765624200026 L11.068672282399994 5.526601562200021 L11.059150797400001 5.535309244200043 L11.057319743400022 5.545563150200046 L11.052559000400002 5.553375650200046 L10.991279703400004 5.554433593200024 L10.97089396140003 5.550527343200024 L10.952583414400031 5.540843098200007 Z M10.876899821400023 5.519765624200026 L10.882270914400031 5.529938150200046 L10.884061279400008 5.540354817200004 L10.889025472399986 5.549143880199999 L10.904162190399994 5.554514973200007 L10.893379313399997 5.555328775200046 L10.882881266399998 5.554433593200024 L10.872749430400027 5.551748046200025 L10.863227946400023 5.547109374200026 L10.83409383139999 5.538401692200004 L10.806261800399987 5.526194661200002 L10.798286539400031 5.514313150200046 L10.828437907399994 5.506093749200026 L10.874580485399996 5.507151692200004 L10.875557047400001 5.510081380199999 L10.874539795400004 5.514394531200018 L10.876899821400023 5.519765624200026 Z M11.575752360399996 5.088531900200046 L11.610461019399985 5.084462890200022 L11.642850341400013 5.090485025200046 L11.706123453400004 5.115712890200022 L11.683418375400002 5.129222005199999 L11.66026570639999 5.139801432200038 L11.6360550944 5.146718749200026 L11.609932047400001 5.149892578200017 L11.575711670400004 5.145335286200002 L11.551826578400004 5.128164062200021 L11.548449300399987 5.106272786200002 L11.575752360399996 5.088531900200046 Z M11.945666097399986 4.519277343200024 L11.950386149400025 4.527496744200043 L11.963488362399993 4.543772786200002 L11.966173909399991 4.550283203200017 L11.959826253399989 4.571116536200002 L11.959297282399994 4.581289062200021 L11.956123453400004 4.577301432200038 L11.952949625400002 4.57616210920002 L11.949490966400013 4.575673828200017 L11.90448771140003 4.559804687200021 L11.775215250400002 4.534983723200007 L11.747668050399987 4.509267578200017 L11.750801188399997 4.504059244200043 L11.757637125400002 4.496409505199999 L11.764473063399997 4.486562499200026 L11.767524821400023 4.474843749200026 L11.774604899400025 4.467600911200002 L11.790962321400023 4.4645084632000405 L11.893135172400001 4.464671223200007 L11.928657633400029 4.469472656200018 L11.959297282399994 4.485097656200018 L11.945666097399986 4.519277343200024 Z M11.781196696400023 3.8953352862000017 L11.753120524400025 3.894358723200007 L11.72675333640003 3.8852441402000224 L11.705513102400026 3.8710839842000198 L11.692451578400004 3.8551334632000405 L11.7278519694 3.8274641922000043 L11.746772868400022 3.8210351562000184 L11.767524821400023 3.827138671200025 L11.772285563399997 3.833486328200017 L11.780708414400031 3.8531803382000405 L11.788642985399996 3.8613183592000198 L11.802314860399996 3.8669335932000237 L11.817329508400029 3.868968098200007 L11.849474690399994 3.8688053382000405 L11.833564860399996 3.8796289062000184 L11.816841227400026 3.8860579422000043 L11.781196696400023 3.8953352862000017 Z M11.472684326400007 3.1419173172000043 L11.49229695639999 3.131012369200043 L11.515164795400004 3.133128255199999 L11.537381591400013 3.1450097652000224 L11.555244547400001 3.1623437492000264 L11.550483805400027 3.1625878902000224 L11.547676188399997 3.164378255199999 L11.545234782399994 3.1668196612000017 L11.541613362399993 3.1692610672000043 L11.534777425399987 3.1623437492000264 L11.522285563399997 3.163889973200007 L11.50596883139999 3.1584374992000264 L11.472684326400007 3.1419173172000043 Z M11.055000407399994 2.7582910152000224 L11.070584716400013 2.761220703200017 L11.093289795400004 2.768544921200025 L11.111274821400023 2.778473307200038 L11.11306518540001 2.7890527342000198 L11.098416748400005 2.7973535152000224 L11.041328532399994 2.806793619200043 L11.009224039400031 2.8020735672000043 L10.997912190399994 2.7957259112000017 L10.993517659399991 2.782216796200025 L11.000923258400029 2.7727766922000043 L11.018135172400001 2.765126953200017 L11.038520914400031 2.760081380199999 L11.055000407399994 2.7582910152000224 Z M10.595731201400007 2.3747460932000237 L10.612170003399989 2.3598535152000224 L10.63300333640003 2.3551334632000405 L10.655627034399991 2.3581445312000184 L10.677599690399994 2.367340494200043 L10.677599690399994 2.3747460932000237 L10.662381591400013 2.3797102862000017 L10.649035237399993 2.3933821612000017 L10.63650268540001 2.4031477862000017 L10.622993571400023 2.3958235672000043 L10.603340250400002 2.3791406242000264 L10.595731201400007 2.3747460932000237 Z M1.1224239093999913 0.5484928382000405 L1.1372351074000093 0.5468652342000198 L1.1567663574000093 0.5571191402000224 L1.1873246254000023 0.579091796200025 L1.1873246254000023 0.5859277342000198 L1.1800004073999943 0.5854394532000171 L1.1755651854000106 0.5875553382000405 L1.1718216964000234 0.5906477862000017 L1.166816813399997 0.5934147132000405 L1.142443440399994 0.5965071612000017 L1.1309281413999983 0.5959374992000264 L1.119005940399994 0.5934147132000405 L1.119005940399994 0.5859277342000198 L1.13886271140003 0.5859277342000198 L1.0979284664000133 0.5722558592000198 L1.0955277504000023 0.559560546200025 L1.102567138400012 0.5543522132000405 L1.11339070639999 0.5520735672000043 L1.1224239093999913 0.5484928382000405 Z M0.11847696939999963 0.08625325519999905 L0.12751017240000095 0.07453450519999905 L0.14313517240000095 0.07062825519999905 L0.1793086753999873 0.07201171820002372 L0.1397172034000036 0.08495117120002504 L0.1291784664000133 0.0864160152000224 L0.11847696939999963 0.08625325519999905 Z M2.2966996254000023 0.769847005199999 L2.26972208640003 0.7716373692000431 L2.2907181804000274 0.797841796200025 L2.3340124514000067 0.8194889322000378 L2.3830847164000133 0.8341373692000431 L2.4212113443999996 0.8398339842000198 L2.4212113443999996 0.8473209632000405 L2.40831258139999 0.8492740882000405 L2.3945593264000067 0.8546451822000378 L2.383491618400022 0.8620507812000184 L2.3789750163999983 0.8702701822000378 L2.370389404400008 0.8732812492000264 L2.3508988443999996 0.8723046872000211 L2.3181840004000023 0.867014973200007 L2.2981644693999996 0.8871972652000224 L2.268135172400001 0.8925683592000198 L2.2356644693999996 0.8886621092000198 L2.2083207193999996 0.880686848200007 L2.158638102400026 0.8585514322000378 L2.1299515784000036 0.8492740882000405 L2.0990677894000314 0.8473209632000405 L2.108914795400004 0.857737630199999 L2.121528727400026 0.8659570312000184 L2.135566813399997 0.8713281242000264 L2.149686279400008 0.8732812492000264 L2.1624222823999943 0.8766992182000237 L2.1824825033999886 0.8937076822000378 L2.1946488443999996 0.9011946612000017 L2.205431722399986 0.9047753902000224 L2.216336670400004 0.906565755199999 L2.2424597164000133 0.9074609372000211 L2.2520218913999983 0.9103906242000264 L2.27167521140003 0.924143880199999 L2.2834753414000133 0.9285384112000017 L2.2834753414000133 0.9348046872000211 L2.2723262533999886 0.9356998692000431 L2.2616654464000234 0.9352929682000237 L2.2516556804000274 0.9330957032000171 L2.2424597164000133 0.9285384112000017 L2.244494222399986 0.9332584632000405 L2.2474239093999913 0.9444889322000378 L2.2493363443999996 0.949046223200007 L2.2203243003999873 0.949534505199999 L2.2092972823999943 0.945628255199999 L2.2014847823999943 0.9348046872000211 L2.1977819824000093 0.9479069002000458 L2.1980261234000054 0.9533593742000264 L2.2014847823999943 0.9620670572000378 L2.1888301593999913 0.9622298172000043 L2.1676713054000274 0.9572656242000264 L2.1565222164000133 0.9558821612000017 L2.1503373214000234 0.958811848200007 L2.1428910323999943 0.9648339842000198 L2.1328812663999983 0.9698795572000378 L2.10370646140003 0.9700423172000043 L2.0895463054000274 0.967112630199999 L2.0781937663999983 0.9601953122000211 L2.071113688399997 0.949046223200007 L2.0803503414000133 0.9484765622000211 L2.0865352373999926 0.9467675782000171 L2.0990677894000314 0.9416406242000264 L2.058133545400004 0.9285384112000017 L2.0131302894000314 0.8937890622000211 L1.9937211103999957 0.888987630199999 L1.9704870604000106 0.8776757812000184 L1.933947347399986 0.8535058592000198 L1.932441813399997 0.8391829422000043 L1.92206583640003 0.8410546872000211 L1.906684977400026 0.8261621092000198 L1.910509847399986 0.8110253902000224 L1.9016800943999996 0.7936100252000458 L1.8931758623999926 0.7729394532000171 L1.8590775554000274 0.7368066402000224 L1.783760172400001 0.6759342442000431 L1.7698441573999943 0.6684472652000224 L1.7570267744000247 0.6674707032000171 L1.741035563399997 0.6642968742000264 L1.7274857584000287 0.6589257812000184 L1.7217484534000036 0.6511132812000184 L1.725044352400026 0.6401269532000171 L1.7392045084000287 0.627919921200025 L1.7422155764000067 0.620107421200025 L1.7310664873999926 0.606435546200025 L1.7064896644000314 0.5930891922000043 L1.6802038574000093 0.5831608072000378 L1.6636836753999873 0.579091796200025 L1.6353633623999926 0.5792545572000378 L1.6248246254000023 0.5821842442000431 L1.6046830244000247 0.5963444002000458 L1.590848388400012 0.598623046200025 L1.57636271140003 0.597483723200007 L1.5640336103999957 0.5934147132000405 L1.54698445639999 0.5813704422000043 L1.5354691573999943 0.5698144532000171 L1.5211869304000274 0.559560546200025 L1.4199906413999983 0.5312402342000198 L1.4128698734000054 0.5309147132000405 L1.403592529400008 0.5318912752000458 L1.395535888400012 0.531565755199999 L1.392117920400004 0.5275781242000264 L1.393257243400022 0.5231022132000405 L1.3982621254000023 0.5118717442000431 L1.3995235193999847 0.5102441402000224 L1.3996048994000247 0.5051985672000043 L1.4050573734000054 0.497874348200007 L1.40644083640003 0.49347981720000433 L1.4052201334000287 0.4858300782000171 L1.4021276854000106 0.48534179620002504 L1.3975703943999847 0.48631835920001976 L1.392117920400004 0.4835514322000378 L1.3772660323999943 0.47264648420001976 L1.358223063399997 0.46613606720000433 L1.3373490394000314 0.46312499920002637 L1.3170039873999926 0.4623925782000171 L1.3244909664000133 0.4555566402000224 L1.3040238443999996 0.4493717442000431 L1.309842529400008 0.4391992182000237 L1.319364013400012 0.43456054620002504 L1.3313675943999996 0.43382812420002637 L1.344998779400008 0.43521158820004047 L1.320991618400022 0.41893554620002504 L1.281929118400022 0.41828450519999905 L1.2040482584000287 0.42837565020004575 L1.1910274253999873 0.42601562420002637 L1.15253458640003 0.4138085932000237 L1.1324336753999873 0.40428710920001976 L1.1230749514000067 0.398264973200007 L1.119005940399994 0.39419596320004047 L1.119819743400022 0.38736002520004575 L1.1243363443999996 0.3780826822000378 L1.1252722164000133 0.36986328120001843 L1.115587972399986 0.36620117120002504 L1.1024857584000287 0.3637597652000224 L1.0865352373999926 0.35773763019999905 L1.0712357584000287 0.3500878902000224 L1.060086670400004 0.3426009112000017 L1.0521114093999913 0.34007812420002637 L1.0332312014000067 0.3442285152000224 L1.0225297034000036 0.3426009112000017 L1.0054398603999957 0.335764973200007 L0.9818802894000314 0.33202148420001976 L0.9639359534000036 0.33299804620002504 L0.9351273603999957 0.3432519532000171 L0.8743363443999996 0.34732096320004047 L0.8553340653999939 0.351389973200007 L0.8372269693999996 0.36001627520004575 L0.8312455244000247 0.3530175782000171 L0.8229447434000221 0.3491113282000171 L0.813301188399997 0.34862304620002504 L0.8030472823999943 0.35252929620002504 L0.791816813399997 0.33788085920001976 L0.7958451334000287 0.33104492120002504 L0.8709183754000023 0.3122460932000237 L0.8862992353999957 0.3116764322000378 L0.8670121254000023 0.2963769532000171 L0.811103922400001 0.28351888019999905 L0.7962520343999913 0.26439453120001843 L0.8379593913999983 0.26496419220000433 L0.884305420400004 0.2563378902000224 L0.9682084144000314 0.23029622320000698 L0.9433874514000067 0.22362304620002504 L0.8520788574000093 0.22378580720003782 L0.817410888400012 0.23029622320000698 L0.8047155764000067 0.22769205720003782 L0.7811966964000234 0.21808919220000433 L0.7692338054000274 0.21605468720002108 L0.6764603684000221 0.21605468720002108 L0.6522904464000234 0.2202050782000171 L0.6435013834000287 0.22948242120002504 L0.6503373214000234 0.23900390620001843 L0.6727982584000287 0.24388671820002372 L0.6543656413999983 0.2485253902000224 L0.5757930503999873 0.25804687420002637 L0.5367305503999873 0.255686848200007 L0.5156937663999983 0.2569889322000378 L0.5204545084000287 0.25259440020004575 L0.5250931804000274 0.24681640620001843 L0.5293656413999983 0.24388671820002372 L0.5160599774000261 0.2387597652000224 L0.4809851074000093 0.21605468720002108 L0.5173620604000106 0.20287109320002372 L0.5354284664000133 0.1938378902000224 L0.5498734534000036 0.18187499920002637 L0.533760172400001 0.17870117120002504 L0.49921427440002475 0.18089843720002108 L0.4809851074000093 0.17503906220002108 L0.544217529400008 0.1557519532000171 L0.5739213054000274 0.14159179620002504 L0.590848388400012 0.12043294220000433 L0.47101603239999434 0.12043294220000433 L0.41266642240000095 0.12661783820004047 L0.39765177440002475 0.12376953120001843 L0.37633015939999126 0.11473632820001711 L0.3648555503999873 0.11302734320002372 L0.30890665739999434 0.1258040362000017 L0.27777872740002607 0.12816406220002108 L0.2518998214000234 0.11668945320001711 L0.2322871903999939 0.11066731720000433 L0.1932246903999939 0.13459309820000698 L0.173123779400008 0.13402343720002108 L0.17560587540000228 0.12450195320001711 L0.18028523739999258 0.11546874920002637 L0.1881791184000221 0.10871419220000433 L0.20038614940002475 0.10619140620001843 L0.1955847164000133 0.09829752520004575 L0.19094604540000404 0.09374023420001976 L0.18411010740000933 0.09203124920002637 L0.173123779400008 0.09251953120001843 L0.18964396140003004 0.08666015620001843 L0.24132039439998465 0.08625325519999905 L0.2930375163999983 0.07355794220000433 L0.31366739940002475 0.07201171820002372 L0.33507039439998465 0.07518554620002504 L0.3682328284000036 0.08934570320001711 L0.3853633623999926 0.09251953120001843 L0.40656290739999434 0.09048502520004575 L0.4286576334000287 0.08495117120002504 L0.44965372740002607 0.07632486920004311 L0.4673132324000093 0.06517578120001843 L0.46723185240002607 0.05581705720003782 L0.48883829740000095 0.055003255199999046 L0.5167110193999847 0.05939778620000169 L0.5355912274000261 0.06517578120001843 L0.526395263400012 0.06753580720003782 L0.5212683104000106 0.07054687420002637 L0.5183386234000054 0.07632486920004311 L0.5156937663999983 0.08625325519999905 L0.71308146140003 0.08299804620002504 L0.7838822434000221 0.06851236920004311 L0.8235550943999996 0.06517578120001843 L0.8235550943999996 0.07201171820002372 L0.7621537274000261 0.09251953120001843 L0.7689896644000314 0.09992513019999905 L0.7621537274000261 0.11302734320002372 L0.7416459144000314 0.11302734320002372 L0.762723388400012 0.1254785152000224 L0.7791621903999939 0.1316634112000017 L0.7966589354000106 0.13394205720003782 L0.82050333640003 0.13402343720002108 L0.8292110193999847 0.1329654942000431 L0.846260172400001 0.1277571612000017 L0.8549271644000314 0.12661783820004047 L0.9129512533999886 0.12661783820004047 L0.9726843264000067 0.15013671820002372 L0.9818802894000314 0.15111328120001843 L0.9881058754000023 0.13499999920002637 L1.0031205244000247 0.13150065020004575 L1.0209427894000314 0.13158203120001843 L1.035835368400022 0.12661783820004047 L1.0341263834000287 0.11668945320001711 L1.049507243400022 0.11400390620001843 L1.0701371254000023 0.11441080720003782 L1.0842972823999943 0.11302734320002372 L1.0657832843999913 0.12857096320004047 L1.0720495604000106 0.1329654942000431 L1.0879187014000067 0.13263997320000698 L1.0979284664000133 0.13402343720002108 L1.0973588054000274 0.14476562420002637 L1.0877152504000023 0.1524967442000431 L1.0637894693999996 0.16136718720002108 L1.0679398603999957 0.17056315020004575 L1.066963297400001 0.17935221320004047 L1.0625687663999983 0.18781575519999905 L1.0563431804000274 0.1961165362000017 L1.0830765784000036 0.19448893220003782 L1.10370646140003 0.18138671820002372 L1.122912190399994 0.1635644532000171 L1.1456986494000247 0.14769531220002108 L1.1682409664000133 0.14037109320002372 L1.2002640784000036 0.13459309820000698 L1.227363688399997 0.13736002520004575 L1.2351354984000054 0.15453124920002637 L1.192207438399997 0.17902669220000433 L1.17401896140003 0.19310546820002372 L1.1873246254000023 0.20238281220002108 L1.20917521140003 0.19953450519999905 L1.289741618400022 0.16820312420002637 L1.2843705244000247 0.16502929620002504 L1.2744828284000036 0.15746093720002108 L1.2692338054000274 0.15453124920002637 L1.2907181804000274 0.1505436192000431 L1.3140743003999873 0.15208984320002372 L1.36542521140003 0.16136718720002108 L1.3928503414000133 0.17105143220003782 L1.3995235193999847 0.17503906220002108 L1.4014359534000036 0.1856998692000431 L1.389228922400001 0.19823242120002504 L1.392117920400004 0.20921874920002637 L1.387275797400001 0.21792643220003782 L1.3922806804000274 0.22386718720002108 L1.40253458640003 0.2260644532000171 L1.4138464354000106 0.22289062420002637 L1.4174271644000314 0.21556640620001843 L1.4212520343999913 0.19066406220002108 L1.4268672693999847 0.18187499920002637 L1.451973063399997 0.17650390620001843 L1.5504024253999873 0.18871093720002108 L1.5429154464000234 0.1961165362000017 L1.5625687663999983 0.19660481720000433 L1.5739213054000274 0.19823242120002504 L1.5839310714000234 0.20238281220002108 L1.5839310714000234 0.20921874920002637 L1.575711670400004 0.21776367120002504 L1.5731888834000287 0.22199544220000433 L1.5702591964000234 0.23029622320000698 L1.553413493400022 0.22386718720002108 L1.5354284664000133 0.2228092442000431 L1.51776896140003 0.2270410152000224 L1.5020218913999983 0.2364811192000431 L1.530098063399997 0.2407128902000224 L1.541369222399986 0.24437499920002637 L1.5367305503999873 0.2508040362000017 L1.5250118003999873 0.25357096320004047 L1.5003129073999943 0.2530826822000378 L1.4883500163999983 0.2569889322000378 L1.5139440914000133 0.2667545572000378 L1.5463334144000314 0.26463867120002504 L1.60565958640003 0.2508040362000017 L1.6636836753999873 0.24388671820002372 L1.6721472164000133 0.2495019532000171 L1.6810990394000314 0.259593098200007 L1.6924515784000036 0.26528971320004047 L1.708035888400012 0.2569889322000378 L1.7128373214000234 0.26398763019999905 L1.714383545400004 0.26756835920001976 L1.7128373214000234 0.27114908820004047 L1.708035888400012 0.27806640620001843 L1.6929398603999957 0.2707421872000211 L1.6766231283999886 0.2703352862000017 L1.6465531413999983 0.27806640620001843 L1.6323929853999957 0.2849023432000237 L1.5480423994000247 0.3220117182000237 L1.54120646140003 0.3237207032000171 L1.535509847399986 0.32616210920001976 L1.529853922400001 0.33202148420001976 L1.53135945639999 0.33657877520004575 L1.5365677894000314 0.34251953120001843 L1.5384395343999913 0.35025065020004575 L1.529853922400001 0.36001627520004575 L1.555041097399986 0.36164388019999905 L1.574653727400026 0.36034179620002504 L1.592231852400026 0.355296223200007 L1.6604284664000133 0.32030273420001976 L1.6864701334000287 0.31444335920001976 L1.7012406413999983 0.3253483072000378 L1.7136511234000054 0.3172102862000017 L1.7280961103999957 0.3214420572000378 L1.7366410323999943 0.3334863282000171 L1.7316361494000247 0.3491113282000171 L1.7238236494000247 0.35228515620001843 L1.7136511234000054 0.3526920572000378 L1.704943440399994 0.3547265622000211 L1.7012406413999983 0.363108723200007 L1.7044144693999996 0.3688867182000237 L1.7103145343999913 0.37181640620001843 L1.7134069824000093 0.3764550782000171 L1.708035888400012 0.38736002520004575 L1.717801513400012 0.39680013019999905 L1.7196732584000287 0.4074609372000211 L1.7157670084000287 0.41820312420002637 L1.708035888400012 0.42837565020004575 L1.7473832193999996 0.4008691402000224 L1.7688675943999996 0.3927311192000431 L1.7865677894000314 0.39720703120001843 L1.81269083640003 0.42577148420001976 L1.830431722399986 0.4386295572000378 L1.851427815399994 0.4418847652000224 L1.8689652504000023 0.4340722652000224 L1.8670121254000023 0.4207259112000017 L1.8572465004000023 0.40331054620002504 L1.851427815399994 0.3836165362000017 L1.848009847399986 0.3761295572000378 L1.824775797400001 0.36001627520004575 L1.8176957193999996 0.35187825519999905 L1.8135860193999847 0.3454492182000237 L1.8117142744000247 0.33755533820004047 L1.8110632324000093 0.3253483072000378 L1.8762894693999996 0.33983398420001976 L1.906603597399986 0.3507389322000378 L1.9135209144000314 0.36620117120002504 L1.9251582843999913 0.3647363282000171 L1.9364701334000287 0.3647363282000171 L1.9448929853999957 0.3679915362000017 L1.948270263400012 0.376780598200007 L1.950019938399997 0.38768554620002504 L1.9524613443999996 0.39549804620002504 L1.9508744304000274 0.40168294220000433 L1.9407832843999913 0.40786783820004047 L1.97081258139999 0.4213769532000171 L1.9701615394000314 0.42609700519999905 L1.9566524253999873 0.4328515622000211 L1.948270263400012 0.45246419220000433 L1.961616618400022 0.4578352862000017 L2.0438106283999886 0.4555566402000224 L2.0410437014000067 0.46874023420001976 L2.0402298994000247 0.4819238282000171 L2.0344925943999996 0.4923404942000431 L2.0165482584000287 0.4972233072000378 L2.0215531413999983 0.5065006502000458 L2.0292435714000234 0.5128483072000378 L2.0391312663999983 0.5164290362000017 L2.050646565399994 0.5177311192000431 L2.0504838054000274 0.5265201822000378 L2.059150797400001 0.5323795572000378 L2.0720902504000023 0.5359602862000017 L2.084785563399997 0.5382389322000378 L2.0906856283999886 0.537425130199999 L2.1052933754000023 0.5312402342000198 L2.112576904400008 0.5343326822000378 L2.129463297400001 0.5450748692000431 L2.1539994304000274 0.5437727862000017 L2.1635209144000314 0.5465397132000405 L2.1673457843999913 0.5551660152000224 L2.1704382324000093 0.5666406242000264 L2.1782507324000093 0.574046223200007 L2.1892777504000023 0.577952473200007 L2.17198445639999 0.5870670572000378 L2.149116618400022 0.5974023432000237 L2.1052933754000023 0.6275944002000458 L2.117052815399994 0.6341048172000043 L2.1356888834000287 0.6492415362000017 L2.1462683104000106 0.6542871092000198 L2.16221883139999 0.656077473200007 L2.254910888400012 0.6531477862000017 L2.26972208640003 0.6481022132000405 L2.295356852400026 0.634593098200007 L2.307197672400001 0.631175130199999 L2.3181840004000023 0.633779296200025 L2.3142777504000023 0.6450097652000224 L2.29706583640003 0.6752832032000171 L2.2737097164000133 0.700185546200025 L2.26972208640003 0.7026269532000171 L2.2935664873999926 0.7473860672000043 L2.2966996254000023 0.769847005199999 Z M9.992215576400007 2.7965397132000405 L10.012397868400022 2.786611328200017 L10.034045003399989 2.787425130199999 L10.036934000400002 2.7985742182000237 L10.018379313399997 2.8088281242000264 L9.995389404400008 2.807607421200025 L9.992215576400007 2.7965397132000405 Z" fill="black" stroke="black" stroke-width="0.5" vector-effect="non-scaling-stroke"/></svg>