<svg xmlns="http://www.w3.org/2000/svg" viewBox="0 0 0.1994677728000056 0.4051611329399982"><path d="M0.1936873373999788 0.10577880797000638 L0.1975122064000061 0.13523844397001916 L0.19743082640002285 0.1614428709700011 L0.18538655539998672 0.23850992797002313 L0.1882755533999898 0.2826586909700328 L0.17586507139998275 0.33160888696999713 L0.17317952439998407 0.3385262039699857 L0.1701684564000061 0.339746906969987 L0.15763590440002417 0.34316487596998435 L0.1533634433999964 0.34593180297002313 L0.14872477239998716 0.3555346679699998 L0.1396915683999964 0.3937426759700262 L0.13346598340001492 0.3995613599699883 L0.13037353539999685 0.40118896496999845 L0.12540934240001889 0.40118896496999845 L0.10709879540002021 0.376856281969987 L0.03231038440003431 0.34853596997003855 L0.015546061400016242 0.32892333996999845 L0.01237223340001492 0.3236743159700328 L0.006268717400018886 0.31712320897002577 L0.002362467400018886 0.3095548499700218 L0.009320475399988482 0.2938891599700302 L0.01041910840001492 0.2837573239700024 L0.009320475399988482 0.2640633139700359 L0.007733561400016242 0.25763427697000374 L0.004885253400004785 0.2525887039699857 L0.002362467400018886 0.24624104797003987 L0.0019555663999994977 0.23606852197002048 L0.00455973340001492 0.22548909497003855 L0.013592936400016242 0.20685302697000374 L0.015546061400016242 0.1985522459700011 L0.020998535399996854 0.18463622997000506 L0.0449243163999995 0.15094482397000242 L0.053876139400017564 0.12848388696999713 L0.07820882139998275 0.09271728497003018 L0.08341715440002417 0.08868896496999845 L0.09318277940002417 0.0833178709700011 L0.09814697240000214 0.0785164389700359 L0.10050699840002153 0.07233154296999977 L0.10441324840002153 0.05467203797001652 L0.10840087840000479 0.04775471997003855 L0.13285563139999113 0.013575031969986995 L0.14701578739999377 0.003972167969999774 L0.1663435873999788 0.010157063970035907 L0.16186767540000346 0.027409667969999774 L0.1685408523999854 0.03636149097001784 L0.17944580040000346 0.04246500597002445 L0.1875024413999995 0.05117268897003591 L0.19026936839998143 0.06362385996998832 L0.1936873373999788 0.10577880797000638 Z" fill="black" stroke="black" stroke-width="0.5" vector-effect="non-scaling-stroke"/></svg>