<svg xmlns="http://www.w3.org/2000/svg" viewBox="0 0 8.942680663680004 33.17041992162001"><path d="M4.57900634683998 32.79614746031001 L4.5990258788399725 32.81152832031 L4.605373534839975 32.81950358031003 L4.610012206839974 32.83374511631001 L4.580227049839982 32.845219726310006 L4.540310057840008 32.83008300731001 L4.466009927839968 32.78597493430999 L4.466009927839968 32.779138997309985 L4.4753686518400055 32.76107259030999 L4.4831811518400055 32.754562174310024 L4.496730956839974 32.751795247309985 L4.542629393839979 32.74919108031003 L4.5554467768400055 32.751795247309985 L4.56228271484 32.759607747309985 L4.5730249018400055 32.78638183531001 L4.57900634683998 32.79614746031001 Z M2.1980249018400055 29.517420247309982 L2.2087670898400003 29.50651529931002 L2.213487141839982 29.503097330310023 L2.260402831839974 29.50651529931002 L2.27745198483999 29.515467122309982 L2.292263182840008 29.527348632310005 L2.314113768839979 29.537846679310004 L2.309678547839985 29.54590332031 L2.305080565839978 29.55143717431002 L2.299912922839985 29.55534342431002 L2.2936466468399654 29.55835449131001 L2.260606281839989 29.585209960310006 L2.2416040038399725 29.59635904931002 L2.228786620840003 29.596521809309987 L2.20128010983999 29.57292154931002 L2.1700707998399817 29.551599934309987 L2.17979573483999 29.54199707031 L2.1980249018400055 29.517420247309982 Z M8.783555500839986 8.356287434309987 L8.79580322183998 8.354334309309987 L8.825710448840004 8.354659830310023 L8.838731281839989 8.349451497310039 L8.847683104840007 8.366866861310026 L8.853420409839975 8.38184082031 L8.855007323840004 8.39624511631001 L8.851833495840003 8.410893554310004 L8.842637531839989 8.426925455310023 L8.831447753839972 8.435551757310005 L8.81846760983999 8.442143554310004 L8.803412271839965 8.45247884030999 L8.801052245840003 8.446782226310003 L8.797634276840006 8.443689778309984 L8.793728026840006 8.441655273310001 L8.789740396839965 8.438237304310004 L8.77549885983999 8.45215332031 L8.758897297839985 8.461186523310001 L8.741644693839964 8.463058267310029 L8.725205891839982 8.455571288310008 L8.715847167840002 8.442631835310006 L8.718207193839964 8.431808267310029 L8.725002440839978 8.420740559309987 L8.728868000839986 8.407475585310006 L8.73525634683998 8.392583007310005 L8.750270995840003 8.377283528309984 L8.768337401840006 8.364506835310006 L8.783555500839986 8.356287434309987 Z M0.14911539683996544 0.33203613231000517 L0.15798583984000025 0.34717285131000253 L0.1949731438399791 0.37484212231003866 L0.2105981438399791 0.3928271483100012 L0.20014078683997205 0.3994189453099999 L0.17690673783997646 0.40967285131000253 L0.16592040983997514 0.41732259030998975 L0.15505615184000554 0.4220426423100285 L0.12685790983997514 0.42334472631000253 L0.11436604783998483 0.4270068353100065 L0.09898518783999144 0.42122884030998975 L0.09438720683997381 0.4104052733100012 L0.09312581283999144 0.3977099603100065 L0.08767333984000025 0.38656087231003866 L0.09878173783997646 0.37142415330998446 L0.11477294884000422 0.33667480431000385 L0.12868896484000025 0.3252001953099999 L0.13174072183998042 0.3326871743100206 L0.13540283183997381 0.33667480431000385 L0.1408146158399628 0.33667480431000385 L0.14911539683996544 0.33203613231000517 Z" fill="black" stroke="black" stroke-width="0.5" vector-effect="non-scaling-stroke"/></svg>