<svg xmlns="http://www.w3.org/2000/svg" viewBox="0 0 1.371787109459973 0.6018066402000244"><path d="M0.594991862229989 0.13562011709998245 L0.598450521229978 0.14619954410002123 L0.6003629562299864 0.15694173210001594 L0.6011360682299767 0.17997233109999655 L0.6057747402299754 0.199096680100034 L0.6146451832299817 0.21073404910000448 L0.620382487229989 0.22334798210001594 L0.6154182952300005 0.2454833980999851 L0.6053678392299844 0.26102701810000184 L0.593893229229991 0.2732340491000045 L0.584534505229982 0.28763834610000316 L0.5807096362299831 0.31075032510002387 L0.58368001322998 0.33369954410002123 L0.583069662229974 0.34403483109999655 L0.576966146229978 0.3484293620999992 L0.5532438152299903 0.34818522110000316 L0.5427864592299727 0.34598795609999655 L0.5322477222299824 0.34110514310000184 L0.5165006512299897 0.3279215491000045 L0.5083219402299903 0.31807454410002123 L0.49847493522997866 0.3128662110999798 L0.47760091222997403 0.314331055100034 L0.42738932322998835 0.3320719401000005 L0.27284830822998174 0.3484293620999992 L0.26312337322997337 0.341674805100034 L0.2528694662299813 0.32832845010002387 L0.24489420622998637 0.32059733109999655 L0.228658854229991 0.3118896480999851 L0.22088704523000047 0.3058675131000186 L0.21755045622998637 0.29707845010002387 L0.21547526122998306 0.2878824870999992 L0.2060758472299824 0.26786295609999655 L0.203919271229978 0.255737305100034 L0.19891438822997998 0.24369303409999787 L0.18707356822997667 0.23612467410000448 L0.17348307322998835 0.2308349610999798 L0.16298502622998967 0.2249755860999798 L0.14150065122998967 0.19226074209998245 L0.12856119822998835 0.17696126310001858 L0.1026822922299857 0.16719563810001858 L0.09255045622998637 0.15970865909999787 L0.0772916672299857 0.1458740230999851 L0.07415852922997601 0.14090983109999655 L0.07301920622998637 0.13041178409999787 L0.070455729229991 0.12504069010000052 L0.06475911522997535 0.12194824209998245 L0.051534831229986366 0.12308756510000052 L0.04628580822998174 0.12137858109999655 L0.03485188822997998 0.10811360710001594 L0.01955240922998769 0.08516438810001858 L0.013448893229991654 0.06335449209998245 L0.029480795230000467 0.05358886709998245 L0.06366048222997733 0.05358886709998245 L0.10089192722998064 0.06726074209998245 L0.13482747422997932 0.06823730510003401 L0.157044271229978 0.06514485710001594 L0.1806852222299824 0.05244954410002123 L0.19203776122998306 0.04951985710001594 L0.21417317722998064 0.04756673210001594 L0.22682780022998372 0.044474284099997874 L0.2538053392299844 0.030965169100021228 L0.26540201822999165 0.027058919100021228 L0.34417806022997866 0.027058919100021228 L0.36456380222998064 0.02396647110000316 L0.40680013022998196 0.010050456099996552 L0.42987142023000047 0.005900065100000518 L0.45159993522997866 0.006062825100023872 L0.4736539722299824 0.009969075100023872 L0.4952604172299857 0.019571940100000518 L0.5155240892299844 0.036661784099997874 L0.5732633472299824 0.10144043010003401 L0.574158529229976 0.10567220010002387 L0.5724495452300005 0.11698404910000448 L0.5732633472299824 0.12137858109999655 L0.578512370229987 0.12585449209998245 L0.5907194012299897 0.130737305100034 L0.594991862229989 0.13562011709998245 Z M1.2317513022299806 0.49247233109999655 L1.2765511072299773 0.4878336590999979 L1.3266813152299903 0.5124918620999992 L1.3583382162299813 0.5491943360999798 L1.3478401702300005 0.5806070961000032 L1.3507291672299857 0.5845133461000032 L1.3552864592299727 0.5949300131000186 L1.3298551432299917 0.5959065751000239 L1.2590950522299806 0.5887451170999825 L1.2168180342299877 0.5925699870999992 L1.197205404229976 0.5908610030999952 L1.1765348312299864 0.5806070961000032 L1.1602180992299793 0.5892333980999851 L1.143616537229974 0.5882568360999798 L1.1120003262299747 0.5806070961000032 L1.0958870452300005 0.5820719401000005 L1.0530403652299754 0.5949300131000186 L1.0427457682299917 0.5946044920999825 L1.033997396229978 0.5918375651000005 L1.027975261229983 0.5863037110999798 L1.0256966152299754 0.5779215491000045 L1.0215055342299877 0.5693766280999952 L1.011658529229976 0.5653076170999825 L0.9915983082299817 0.5608317060999966 L0.9738167322299773 0.5515543620999992 L0.958069662229974 0.5462646480999851 L0.941956380229982 0.5449625651000005 L0.9025276702300005 0.5500895181000018 L0.884908854229991 0.5495198571000159 L0.8694059252299837 0.5442301431000018 L0.8550423182299767 0.5334879560999966 L0.834127604229991 0.5011800131000186 L0.8236295582299817 0.48929850309999523 L0.8140266932299767 0.49247233109999655 L0.807190755229982 0.49247233109999655 L0.7897347012299747 0.46805826810000184 L0.7780159512299747 0.4609781901000005 L0.755392253229985 0.45829264310000184 L0.7350065112299831 0.4492594401000005 L0.732361654229976 0.4281005860999798 L0.7404182952300005 0.40498860710001594 L0.7519742842299877 0.3894449870999992 L0.8308317062299864 0.36161295609999655 L0.9158333342299727 0.3484293620999992 L0.961487630229982 0.35046386709998245 L1.0037239592299727 0.35957845010002387 L1.1458138022299806 0.41434733109999655 L1.1891080732299883 0.41923014310000184 L1.210877279229976 0.4269612631000186 L1.228455404229976 0.4398193360999798 L1.2385872402299754 0.45829264310000184 L1.236959636229983 0.46846516910002123 L1.2302864592299727 0.474487305100034 L1.2260139982299734 0.4812418620999992 L1.2317513022299806 0.49247233109999655 Z" fill="black" stroke="black" stroke-width="0.5" vector-effect="non-scaling-stroke"/></svg>