<svg xmlns="http://www.w3.org/2000/svg" viewBox="0 0 1.021079100839989 1.7091723625800364"><path d="M0.22973714142000556 1.309399820790021 L0.2521980794200003 1.324699299789985 L0.27539143842000424 1.349601643790039 L0.2944344074200016 1.378450927790028 L0.3048510744199602 1.405672606790007 L0.3092456054199628 1.4323653157900378 L0.3088387044200003 1.4482344557899876 L0.3048510744199602 1.466463622790003 L0.29687581342000424 1.4858321127900365 L0.2884122714199888 1.497957763789999 L0.2639168294200003 1.5210697427900197 L0.2514656574200016 1.5361250807899876 L0.22290120442000028 1.5831628417900003 L0.21679768842000424 1.5855228677900197 L0.20752034442000689 1.5876794427900347 L0.20166096942000689 1.5919519037900056 L0.20833414641998882 1.6092045077900263 L0.20092854841999763 1.6133142087900307 L0.18977945941998353 1.6155114747900268 L0.18196695941998353 1.6179528807900294 L0.16650471942000689 1.635327554790025 L0.16455159442000689 1.6384200027899862 L0.13118570941998353 1.6391931147900334 L0.12670979841999763 1.6384200027899862 L0.11604899041998618 1.674390054790025 L0.10563232441996018 1.6882653807900294 L0.09253011042000292 1.6725996907900378 L0.08528727141998882 1.6900964357899977 L0.07495198542000292 1.692415770790036 L0.06469807942000028 1.682894286790032 L0.05843180341998089 1.665112711790017 L0.0600594074200016 1.6638106277899862 L0.06494221942000689 1.6465580237900224 L0.06526774041998618 1.6384200027899862 L0.0620125324200016 1.6282474767900237 L0.05794352141998882 1.623852945790021 L0.05403727141998882 1.621655679790025 L0.051026204420000276 1.6179528807900294 L0.015625813420004242 1.5040612787900056 L0.010010579420000276 1.4943770337899889 L0.014649251419998954 1.4855065917900003 L0.016439615419986175 1.4767175287900056 L0.016846516420005564 1.456575927790028 L0.01920654241996811 1.448641356790007 L0.0385750324200016 1.4255700677900347 L0.04264404241996811 1.4165368647900334 L0.04370198542000292 1.410148518790039 L0.046143391420005564 1.403841552790028 L0.08138102141998882 1.3684004717899836 L0.08911214142000556 1.364656981790007 L0.1266284174199681 1.3519616697900017 L0.1578784174199681 1.326164143790039 L0.19018636042000292 1.305737711790017 L0.22973714142000556 1.309399820790021 Z M1.0110685214199888 0.04198445578998755 L1.0056974284199809 0.046541747790002974 L0.9944669594199835 0.05105834979002677 L0.9831551104200029 0.05765014579003602 L0.9770515944200069 0.0686771647900184 L0.9918627924199681 0.07107788079002941 L1.0050463864199655 0.07819864879002236 L1.0100919594199835 0.0857263177900347 L1.000977376419999 0.08918497679002368 L0.9865730794200003 0.09260294579002104 L0.9827482094199835 0.10131062778998623 L0.9838875324200016 0.1239343257900043 L0.9788419594199835 0.14379109678998359 L0.9738777664200056 0.15380086279003646 L0.9665535484199976 0.15803263279002633 L0.954102376419999 0.160067138789999 L0.9504402664200056 0.1658044427900347 L0.9508471674199681 0.1744714357899977 L0.9497078444200069 0.1853356927900347 L0.9471036784199809 0.181551513789999 L0.9440112304199628 0.1741459147900184 L0.942383626419999 0.17113484678998359 L0.9357104494199602 0.17406453378998887 L0.9293627924199681 0.17854044579002104 L0.9205737304199628 0.16238647479002677 L0.9067390944200069 0.15762573179000694 L0.8920906574200016 0.15664916979000165 L0.8808601884200042 0.15119669579002104 L0.8776863604200029 0.12027221679000033 L0.8784187824200016 0.1018802897900184 L0.887696126419999 0.10342651378999901 L0.9042976884200042 0.09650919579002104 L0.9123543294200003 0.08715047178998359 L0.9147957354200029 0.07473998979003338 L0.9148771154199862 0.05842325779002633 L0.9201668294200003 0.03933959979002677 L0.9335945634200042 0.024202880790029413 L0.9513354494199602 0.01675659179000033 L0.9695646154199862 0.020825601790023685 L0.997071126419999 0.02334838878999901 L1.0080574544200003 0.028231200790004296 L1.0110685214199888 0.04198445578998755 Z" fill="black" stroke="black" stroke-width="0.5" vector-effect="non-scaling-stroke"/></svg>