<svg xmlns="http://www.w3.org/2000/svg" viewBox="0 0 21.486096223379946 16.06539801725999"><path d="M16.445755424189997 7.5322023831299845 L16.518891011189965 7.6424475461300005 L16.56648500519003 7.6916435101300635 L16.61676617418999 7.711125525130058 L16.676762511189963 7.718980343129999 L16.733348205190055 7.718670284130013 L16.785334696189977 7.702573075130033 L16.85314177818998 7.653001503129985 L16.855504773189978 7.661190013130025 L16.906692924189997 7.654354075129973 L16.916051648189978 7.659969310130023 L16.924271049189997 7.670467357130022 L16.93306011218999 7.676245352129982 L16.944290580189943 7.668025950129973 L16.945348523189978 7.67575707012999 L16.94420920018996 7.684790273129991 L16.94030295018996 7.69223656213002 L16.933792533189944 7.69528832012999 L16.928177299189997 7.700333893130008 L16.930130424189997 7.711035391130011 L16.934769096189996 7.720760325129973 L16.937454643189994 7.72263207012999 L16.93444357518996 7.756933828130016 L16.94030295018996 7.76169457012999 L16.957962455189943 7.756160716130026 L16.97155295018996 7.746801992129988 L16.998978080189943 7.702734609130019 L17.013056856189962 7.689754466130026 L17.025833549189997 7.6817792061300025 L17.03372742918998 7.6705080471300136 L17.033157768189994 7.647518138130025 L17.047887585189983 7.654516836129986 L17.066279513189954 7.655981680129983 L17.08174175218994 7.6591555081299845 L17.088333549189997 7.67144391912997 L17.09321636218999 7.684668203130016 L17.105423393189994 7.6864992581299845 L17.120967013189954 7.686662018130008 L17.13618511218999 7.69528832012999 L17.13618511218999 7.702734609130019 L17.11999045018996 7.709611237130005 L17.09931987718994 7.715389232130022 L17.081578992189975 7.724096914129987 L17.074092013189954 7.740047435130023 L17.070185763189954 7.740088125130015 L17.04739930418998 7.762996654130021 L17.04267925218994 7.771093984130019 L17.03763367918998 7.784277578130016 L17.033157768189994 7.7909100651300065 L16.97407573718999 7.83090843713002 L16.964798393189994 7.8427492581299845 L16.962112846189996 7.8475506901300065 L16.949254773189978 7.863989492129988 L16.944290580189943 7.872859935130023 L16.94225607518996 7.882666250130015 L16.940140190189993 7.904842357130022 L16.937454643189994 7.9144045311300175 L16.93696636218999 7.920141836129986 L16.937861544189957 7.926855703130016 L16.937536023189978 7.932511628130001 L16.933792533189944 7.934912344130012 L16.923050346189996 7.934383372129972 L16.918330294189957 7.935278555129983 L16.916458549189997 7.93833031213002 L16.91572612718994 7.959855378130001 L16.916702690189993 7.971085846130009 L16.920120658189944 7.975887279130021 L16.982864799189997 7.9810549221300136 L17.005732638189954 7.975887279130021 L17.018021049189997 7.9688885811300025 L17.026403210189983 7.962296784130004 L17.03568055418998 7.957332591130026 L17.050735893189994 7.955379466130026 L17.11689800218994 7.967993398129991 L17.134801648189978 7.980566641130011 L17.164017143189994 8.01059593713002 L17.207230033189944 8.022680898129948 L17.213422261189976 8.061130001129953 L17.21311220219002 8.086916540130062 L17.21104514519004 8.151021155129996 L17.216419494190006 8.177014400129963 L17.231405660189978 8.200527177129942 L17.288353088190036 8.268249141129957 L17.34044293119001 8.33026086113 L17.392636128189963 8.392298418130025 L17.444725972190042 8.454361813129992 L17.496919168189947 8.51632185513003 L17.549112365190012 8.57833357413 L17.601305561189974 8.640293616130009 L17.653395406190043 8.702357011129976 L17.705588602190005 8.76436873013003 L17.75767844618997 8.826328772130069 L17.809871642190046 8.888366329130037 L17.861961486190012 8.950429724130004 L17.914154683189963 9.01244144313003 L17.96619284918995 9.074401486129972 L18.018386047190006 9.136439042130036 L18.07052756718997 9.198476599129975 L18.122720764189978 9.260514156130029 L18.176360900190048 9.324102006130005 L18.19635967918998 9.34027673013 L18.22095766118997 9.34774397412994 L18.381671366190005 9.367510210130007 L18.520680968189993 9.384615108129964 L18.65969057218996 9.401720007129995 L18.798803527190046 9.418799068130056 L18.937813130190023 9.435878129130003 L19.07682273319 9.452983029130024 L19.215935689189962 9.470087927129981 L19.35494529118995 9.487166988129928 L19.49395489419004 9.504271887129988 L19.633171203190045 9.521402624129934 L19.772180805190033 9.538533362129982 L19.91119040919 9.555586585130015 L20.050303364189972 9.572691484129962 L20.18920961419002 9.58984805913002 L20.328219217189996 9.606901282129968 L20.467332173190016 9.623954504129983 L20.60644512918998 9.641111080129946 L20.74318096818996 9.65790592113001 L20.758270487189975 9.655425452129947 L20.824726378190007 9.575275305129963 L20.888288390189985 9.673357174130018 L20.96900697819001 9.798259110130033 L21.049932271190016 9.92316104712998 L21.13065085819005 10.048062984129928 L21.211472798190016 10.172913245129962 L21.264596170190032 10.255078772129963 L21.274931456190018 10.276937903130005 L21.275448221189947 10.299882239130028 L21.23805488019002 10.412791890130023 L21.233073547189974 10.427833085130004 L21.22645896318994 10.447625159129984 L21.207958801190046 10.503435706130034 L21.179123351190015 10.590200436130033 L21.14170961418995 10.702700028129982 L21.09747458819004 10.835818518130054 L21.048071919189965 10.984388261130022 L20.99536195818996 11.143293291129993 L20.982507082189954 11.181943130130009 L20.94079164518996 11.307365963129996 L20.886221333190008 11.47143863612996 L20.83340801918996 11.63029198913003 L20.784108702190053 11.778861731130007 L20.739770324190033 11.912006059129965 L20.702356587189968 12.02458316713006 L20.67362449118997 12.111296220130015 L20.655020975189984 12.16710676712998 L20.648406392189997 12.186847164129944 L20.616263651189968 12.283430416129988 L20.46578187918999 12.333582393130001 L20.294629536189973 12.390659013130033 L20.123477193189956 12.447658118130022 L19.952531555190035 12.50465722313001 L19.78137921119003 12.561708004129997 L19.61012351418998 12.618732947129985 L19.438971170189973 12.67578372813 L19.26792217919001 12.732860348130004 L19.096769836189992 12.789859453129992 L18.92572084519003 12.846910234129979 L18.75446514818998 12.903935177129995 L18.583416157190015 12.960985958129982 L18.412263813189952 13.018062578129985 L18.241008116190017 13.075061683129974 L18.07001080219004 13.132112463129971 L17.898961811189963 13.189163244129986 L17.727809467189957 13.24621402612999 L17.61649843319003 13.283214351129942 L17.458575256189988 13.30447920313 L17.29837831518995 13.32602827612996 L17.13818137518996 13.34760318612993 L16.977984435190024 13.369152258129986 L16.817787495189975 13.390701331130032 L16.65769390818997 13.412276242129991 L16.49760032119002 13.433825313130058 L16.337248352190045 13.455322709130002 L16.177206440190048 13.476949297129977 L16.01700950118999 13.498498369130033 L15.856812561189997 13.519995765129977 L15.69661562018996 13.541596513130031 L15.536418680190025 13.563145585130002 L15.376325093189962 13.584694657130058 L15.216128152190038 13.606243730130018 L15.05593121218999 13.62779280212996 L14.895734273190044 13.649341875130006 L14.766698221189984 13.666756832129948 L14.673732320190027 13.699132117129949 L14.629187235190045 13.720965410129992 L14.485423400189973 13.791142004130052 L14.313857645189955 13.874831987129994 L14.122241434190016 13.968443844130007 L13.950468973190027 14.052263017130002 L13.822311420189976 14.11492069113001 L13.799832173189998 14.129932695130009 L13.722265848190034 14.222950273129982 L13.63147035719004 14.331264075130008 L13.473392150190023 14.520658200129958 L13.324150613189943 14.699200273129975 L13.226895568189946 14.81557559913 L13.209997375190028 14.846529781129988 L13.162713439189986 14.971276689130008 L13.09584413619001 15.147958411129991 L13.066452074189954 15.185748205130011 L13.065458394190046 15.187025794130022 L12.951460184190012 15.250949540129994 L12.828780333189968 15.319937578130038 L12.799221414190015 15.331409745129946 L12.766665262189974 15.335802243130047 L12.634909857189996 15.330337733129994 L12.62088604718997 15.329756100129998 L12.608225321190048 15.322004635129986 L12.523682677189981 15.209298336129962 L12.449682026189976 15.110389645129999 L12.385086486190005 15.024090003129942 L12.347982808190011 15.003471106130036 L12.125774148190033 15.032874996130033 L11.960512918190034 15.054785804129978 L11.717840392189999 15.030859615129998 L11.528704650190036 15.012204423130015 L11.280192687189981 14.987761470130067 L11.068267638190036 14.966832516129983 L11.022585673190008 14.95236311512997 L10.860011616190036 14.861464270130057 L10.803270894190007 14.850457190129958 L10.63521913518997 14.849320308129961 L10.610349851189994 14.84915566813001 L10.486907775190048 14.848338457129984 L10.284336160190037 14.847046545129956 L10.262528706189983 14.851645748129982 L10.199845194189948 14.874383378130062 L10.17168153819 14.875985347130012 L10.10305523618996 14.862394446129997 L10.042025370190004 14.860120683129992 L9.945235412189959 14.86988752813005 L9.868444233190019 14.886992428129986 L9.849427307189956 14.888232662130036 L9.807259338189965 14.876502112129941 L9.786898823189972 14.874021644129982 L9.77217104018996 14.884150224130025 L9.757546609190001 14.90890323512994 L9.742353739190037 14.926886633130039 L9.723233459190055 14.935413245130036 L9.697240213190014 14.931795895129966 L9.658844624189953 14.912830644130025 L9.641791401189948 14.91102196813003 L9.62019065318998 14.922029049130003 L9.604997782190026 14.93928897712999 L9.59218202618996 14.958822668130011 L9.576575743190006 14.973653804130038 L9.55301129118999 14.977012773129957 L9.541177388189965 14.97453230412998 L9.535234598189959 14.971483394129962 L9.53192730618997 14.966677486130038 L9.527948221190002 14.95866763912997 L9.530532043190021 14.938772213129965 L9.530532043190021 14.927816809129979 L9.524589253189959 14.925181311129961 L9.501128153189995 14.931899248130009 L9.483661518190047 14.932674394130004 L9.44407737119002 14.929263749129973 L9.406663634189954 14.933346188130002 L9.388525207190014 14.933191158130029 L9.368526428189966 14.926421545130012 L9.327185282190044 14.895002275129968 L9.257422098189977 14.820019771130006 L9.214944070189972 14.795886878130034 L9.141253478190038 14.76539778312997 L9.125027079190033 14.761367021129956 L9.09102398619001 14.760075110130003 L9.072833882190025 14.755992672129992 L9.050768045189955 14.75888655212998 L9.028908914190026 14.766896399129962 L8.940955626190032 14.819813066130024 L8.853829162190038 14.891643307129954 L8.805770080189973 14.948332353129956 L8.802927876189983 14.952931556130011 L8.860082010189956 14.97101830713001 L8.87971905418999 14.985436031130035 L8.890054341189966 15.006881750129963 L8.886488667190008 15.026932206130027 L8.864061095190038 15.037577552130017 L8.84122011318999 15.042538489129953 L8.814761779190007 15.053338863129994 L8.794039530189991 15.069151851129988 L8.787941711189944 15.08889224912997 L8.788871887189998 15.111991613130016 L8.783187479189962 15.132300452130039 L8.762206848190033 15.17188459913001 L8.756315734190025 15.192606848130026 L8.760346496190039 15.208729895130006 L8.76820131318999 15.225369707130028 L8.773885721190027 15.247435543130024 L8.773782368189984 15.26924299713005 L8.769441548190002 15.288414954129962 L8.753318501189995 15.327017248130034 L8.746600565190022 15.351873612129992 L8.75052797419005 15.368823482130011 L8.771611958190022 15.407839189130016 L8.783704243189959 15.44437442612994 L8.795228087190026 15.453469479130007 L8.83233176619001 15.46339135413001 L8.842615376189997 15.471142818130005 L8.849384988190025 15.481994869130062 L8.850728575189976 15.494965654129999 L8.846491108190037 15.50545597012993 L8.838946350189985 15.510726965130061 L8.82974794418999 15.514602698130005 L8.820756245189955 15.520855547130026 L8.806390197189955 15.541629472129955 L8.808560607190032 15.55537540313 L8.817655659189995 15.570619950130038 L8.823562393189945 15.594004807130005 L8.823960184190014 15.595579668130028 L8.817862365189967 15.614234860129983 L8.800809142190019 15.617335445130038 L8.760656554190007 15.605553218129927 L8.73564516118995 15.601057369130018 L8.722829406190044 15.606276689130027 L8.717868469189966 15.620022620129959 L8.716524881190026 15.641158280130014 L8.712494119189955 15.660071855129956 L8.686655903190001 15.725390865129981 L8.674150206190006 15.74254744013004 L8.652549458190038 15.758153723129993 L8.608831196189954 15.783061764129968 L8.594155089189996 15.788126054130032 L8.555294412189994 15.795050696130005 L8.54464906719005 15.79949486913003 L8.540825011190009 15.81256900712998 L8.543512186190014 15.82776187813002 L8.54464906719005 15.843936601129997 L8.536070780190016 15.859956295129962 L8.510335917189991 15.877216223130034 L8.475195942190055 15.891633948129964 L8.427363497189958 15.907894115129992 L8.425980033189944 15.905167878130001 L8.426142794189957 15.868994375130015 L8.419144096189996 15.858618398129991 L8.432815971189996 15.826025625130015 L8.426142794189957 15.806982656130018 L8.377640190189993 15.75428897113001 L8.366572481189962 15.731665273129991 L8.362828992189975 15.712500234130019 L8.36380555418998 15.668676992129988 L8.37552430418998 15.626033763130025 L8.375198783189944 15.607723216129969 L8.357132377189998 15.60349144512999 L8.36380555418998 15.596045156130018 L8.351761283189944 15.585180898129991 L8.341751518189994 15.569800039129987 L8.339391492189975 15.55551781213002 L8.350296440189993 15.548234284130004 L8.344192924189997 15.538224518130008 L8.316116752189998 15.514135977129982 L8.309769096189996 15.506933828130016 L8.297073783189944 15.488867422130014 L8.273636283189944 15.463680247129972 L8.266800346189996 15.45896019512999 L8.234817924189997 15.442033112130005 L8.224808158189944 15.440893789129987 L8.21374045018996 15.446509023129991 L8.179642143189994 15.400854727129982 L8.193558158189944 15.356787344130012 L8.18639670018996 15.340714753130001 L8.186478080189943 15.291601797130014 L8.182083549189997 15.274511953130016 L8.17239930418998 15.268530508129984 L8.162796440189993 15.263891836129986 L8.158564669189957 15.250626862130005 L8.150589408189944 15.24183779913001 L8.132360242189975 15.240454336129986 L8.11185242918998 15.241593659130004 L8.097610893189994 15.240372956130003 L8.085403862189992 15.229834219130012 L8.075394096189996 15.21372093713002 L8.062942924189997 15.185766836129986 L8.058467013189954 15.171118398129991 L8.053421440189993 15.136816641130011 L8.048701388189954 15.123104075129973 L8.03958680418998 15.115332266130011 L7.994583549189997 15.096411367129988 L7.997106335189983 15.11366397113001 L8.004349174189997 15.129533112130005 L8.021927299189997 15.15785342413001 L8.001663627189998 15.170141836129986 L8.011754773189978 15.235571523129991 L8.00084982518996 15.254044831130003 L7.995153210189983 15.23325218713002 L7.994583549189997 15.164689362130005 L7.990433158189944 15.14418154913001 L7.977005424189997 15.105281810130023 L7.95950867918998 14.96958031213002 L7.953079643189994 14.945613841129969 L7.948603731189962 14.927872956130003 L7.954544487189992 14.878027578130016 L7.953079643189994 14.856787344130012 L7.945755424189997 14.834529857130022 L7.939407768189994 14.825252513130025 L7.929560763189954 14.821427643130008 L7.919306856189962 14.820939362130005 L7.911494356189962 14.818904857130022 L7.906448783189944 14.81402204412997 L7.904658419189957 14.805273672130014 L7.898473523189978 14.79379906213002 L7.790726127189998 14.70505394512999 L7.781692924189997 14.702246328130016 L7.778763237189992 14.707658112130005 L7.771927299189997 14.699031810130023 L7.761185112189992 14.678076406130018 L7.741409721189996 14.651343008129984 L7.735550346189996 14.634497305129983 L7.731399955189943 14.626766185130023 L7.724075737189992 14.62342959613001 L7.701370658189944 14.627986888130025 L7.691116752189998 14.625626862130005 L7.686722221189996 14.613175690130007 L7.681676648189978 14.604549388130025 L7.638382377189998 14.56137718713002 L7.636592013189954 14.563371003130001 L7.630325737189992 14.566137930129983 L7.622757377189998 14.568213125130015 L7.617223523189978 14.568213125130015 L7.607620658189944 14.559057852129982 L7.576858940189993 14.516984284130004 L7.566605033189944 14.51169457012999 L7.507360242189975 14.458349844130012 L7.485713106189962 14.466894766130011 L7.448278210189983 14.441951732130022 L7.425491752189998 14.44528832012999 L7.416214408189944 14.419043203130016 L7.398636283189944 14.40231957012999 L7.377151908189944 14.388159414129987 L7.357132377189998 14.369604727129982 L7.315140190189993 14.318253815130007 L7.308792533189944 14.301326732130022 L7.310257377189998 14.28871279913001 L7.313187065189993 14.277563711129986 L7.311559460189983 14.269588450129973 L7.298782768189994 14.266496003130001 L7.291458549189997 14.263525625130015 L7.289993705189943 14.256201406130018 L7.290481987189992 14.247412344130012 L7.288935763189954 14.239843984130019 L7.246780815189993 14.203670482130022 L7.231399955189943 14.182959219130012 L7.240433158189944 14.164160391130011 L7.223017794189957 14.143449128130001 L7.215856335189983 14.13246279913001 L7.213089408189944 14.119441966129969 L7.208694877189998 14.11366397113001 L7.199905815189993 14.110693594130012 L7.194290580189943 14.104549388130025 L7.198929252189998 14.089005768130008 L7.17858420018996 14.086971263130025 L7.159215710189983 14.082169831130003 L7.162064018189994 14.077856680129983 L7.163610242189975 14.074560781130018 L7.165970268189994 14.071671784130004 L7.171585502189998 14.068497956130003 L7.165400606189962 14.056535065130007 L7.156448783189944 14.050879141130011 L7.14505555418998 14.050594310130023 L7.131220919189957 14.054907461129986 L7.137649955189943 14.045508047130014 L7.142532768189994 14.035864492129988 L7.143509330189943 14.027075430129983 L7.138056856189962 14.020117422130014 L7.144241752189998 14.006648997129972 L7.138382377189998 13.999853750130015 L7.12552430418998 13.99802269512999 L7.110062065189993 13.99965029913001 L7.113235893189994 13.98597842413001 L7.10989930418998 13.966894766130011 L7.102493705189943 13.947892487130005 L7.093297742189975 13.934790273129991 L7.08874045018996 13.922827383129984 L7.08255555418998 13.884863516130011 L7.079788627189998 13.876766185130023 L7.077591362189992 13.868261953130016 L7.076045138189954 13.814673086129986 L7.073685112189992 13.808895091129969 L7.07083680418998 13.804581940130007 L7.066279513189954 13.801977773129991 L7.058955294189957 13.801082591129969 L7.053665580189943 13.797339102129982 L7.051793835189983 13.788875560130023 L7.051224174189997 13.779516836129986 L7.04935242918998 13.77308779913001 L7.013138237189992 13.749365469130012 L7.007685763189954 13.74301781213002 L7.006058158189944 13.732560456130003 L7.001175346189996 13.720190664129987 L6.993606987189992 13.70981468713002 L6.978063367189975 13.703222891130011 L6.972203992189975 13.698299388130025 L6.967728080189943 13.693416575129973 L6.966181856189962 13.691219310130023 L6.959996960189983 13.693213125130015 L6.949580294189957 13.70350772113001 L6.945674044189957 13.705420156130018 L6.934769096189996 13.701513906130018 L6.923701388189954 13.695044180129983 L6.913284721189996 13.68682477913002 L6.905228080189943 13.677547435130023 L6.878453992189975 13.620906810130023 L6.867142143189994 13.605525950129973 L6.854446830189943 13.592505117129988 L6.848099174189997 13.58090843713002 L6.847122612189992 13.56723656213002 L6.850052299189997 13.547827383129984 L6.87389670018996 13.482234935130023 L6.877396049189997 13.461808503130001 L6.880407117189975 13.45395531213002 L6.885696830189943 13.450415273129991 L6.886917533189944 13.444677969130012 L6.877396049189997 13.43051781213002 L6.873245658189944 13.429744700129973 L6.851110242189975 13.418432852129982 L6.850052299189997 13.41684593713002 L6.80911805418998 13.407202383129984 L6.798782768189994 13.375871003130001 L6.798213106189962 13.36997093713002 L6.778844617189975 13.345556875130015 L6.774368705189943 13.342342357130022 L6.773636283189944 13.331925690130007 L6.775101127189998 13.32114281213002 L6.781204643189994 13.301367422130014 L6.786087455189943 13.290381094130012 L6.790970268189994 13.282812734130019 L6.794632377189998 13.275000234130019 L6.796748263189954 13.25668968713002 L6.80163107518996 13.23589704412997 L6.814407768189994 13.211482982130022 L6.805700085189983 13.196631094130012 L6.787308158189944 13.18511579412997 L6.767532768189994 13.177221914129987 L6.724319877189998 13.165259023129991 L6.706497612189992 13.153458893130008 L6.696243705189943 13.125871003130001 L6.682083549189997 13.104712148129991 L6.678095919189957 13.095312734130019 L6.67858420018996 13.084204336129986 L6.68607117918998 13.061133047130014 L6.685420138189954 13.051408112130005 L6.679560763189954 13.033097565130007 L6.678095919189957 13.02300641912997 L6.674026908189944 13.014298737130005 L6.655716362189992 13.004858633129984 L6.651403210189983 12.995988190130007 L6.64700867918998 12.974829336129986 L6.636185112189992 12.963924388130025 L6.620804252189998 12.956152578130016 L6.593786023189978 12.93552269512999 L6.595576388189954 12.932430247129972 L6.596878471189996 12.920263906130018 L6.59459982518996 12.910213450129973 L6.58483420018996 12.894669831130003 L6.58255555418998 12.886124909130004 L6.581009330189943 12.875545482130022 L6.575556856189962 12.859472891130011 L6.576207898189978 12.848283112130005 L6.582962455189943 12.838191966130026 L6.592239799189997 12.830176016130011 L6.597122612189992 12.822851797130014 L6.590042533189944 12.814795156130018 L6.592483940189993 12.804052969130012 L6.59036805418998 12.793595612130005 L6.58483420018996 12.78513207012999 L6.58255555418998 12.773169180129983 L6.497024955189943 12.744360586129986 L6.473343315189993 12.732234935130023 L6.422562065189993 12.682511628130001 L6.398310763189954 12.670141836129986 L6.398310763189954 12.663916250130015 L6.409134330189943 12.66534040413002 L6.432327690189993 12.677588125130015 L6.438512585189983 12.636613190130007 L6.435908419189957 12.586523672130014 L6.428746960189983 12.564795156130018 L6.382767143189994 12.501847565130007 L6.363317273189978 12.489599844130012 L6.311884981189962 12.483862539129987 L6.291946830189943 12.484513581130003 L6.282913627189998 12.49411644512999 L6.294469617189975 12.519344310130023 L6.279495658189944 12.507625560130023 L6.266556205189943 12.48671084613001 L6.258255424189997 12.46677269512999 L6.257360242189975 12.45786156213002 L6.24303732518996 12.449316641130011 L6.202347221189996 12.39296084613001 L6.171422742189975 12.374853750130015 L6.16491232518996 12.368506094130012 L6.165888888189954 12.36130394512999 L6.178421440189993 12.334936758129984 L6.17239930418998 12.317033112130005 L6.160517794189957 12.306372305129983 L6.130081596189996 12.294002513130025 L6.092483940189993 12.272273997129972 L6.083450737189992 12.269140859130019 L6.074254773189978 12.25550967413001 L6.065465710189983 12.252417227129982 L6.056351127189998 12.247656484130019 L6.031448783189944 12.214575430129983 L6.023392143189994 12.210750560130023 L5.998733940189993 12.204931875130015 L5.990107638189954 12.203996003130001 L5.971634330189943 12.199316641130011 L5.951370658189944 12.188126862130005 L5.905716362189992 12.153540273129991 L5.86999045018996 12.115291575129973 L5.876663627189998 12.100805898129991 L5.859736544189957 12.08981957012999 L5.833532117189975 12.08286156213002 L5.802689018189994 12.078467031130018 L5.796829643189994 12.073462148129991 L5.787470919189957 12.060644766130011 L5.771845919189957 12.047339102129982 L5.762894096189996 12.037736237130005 L5.763870658189944 12.033301016130011 L5.753453992189975 12.027197500130015 L5.721715710189983 11.999609609130019 L5.705521049189997 11.992326081130003 L5.683060112189992 11.992732982130022 L5.658239148189978 11.996801992129988 L5.638219617189975 12.003719310130023 L5.629837455189943 12.012182852129982 L5.605911674189997 12.003760000130015 L5.563187065189993 11.979468008129984 L5.540970268189994 11.970597565130007 L5.542190971189996 11.983292878130001 L5.548050346189996 11.990372956130003 L5.556188367189975 11.995337148129991 L5.564489148189978 12.002010325129973 L5.569290580189943 12.004126211129986 L5.57897482518996 12.010311107130022 L5.584996960189983 12.016699453130016 L5.578567924189997 12.019669831130003 L5.56107117918998 12.01527529913001 L5.463252169189957 11.958797435130023 L5.449173393189994 11.947363516130011 L5.43607117918998 11.941463450129973 L5.416214408189944 11.936133047130014 L5.397985242189975 11.928035716130026 L5.382523002189998 11.897680898129991 L5.365270398189978 11.881933828130016 L5.311478080189943 11.84262718713002 L5.284378471189996 11.817277253130001 L5.224970919189957 11.726701081130003 L5.205276908189944 11.711157461129986 L5.205276908189944 11.703711172130014 L5.215286674189997 11.704321523129991 L5.22318055418998 11.702978750130015 L5.228958549189997 11.698584219130012 L5.232620658189944 11.690079987130005 L5.217239799189997 11.68747582012999 L5.204544487189992 11.680558503130001 L5.181351127189998 11.659643789129987 L5.174840710189983 11.648576081130003 L5.168899955189943 11.619360586129986 L5.164261283189944 11.608130117129988 L5.130814018189994 11.572607656130018 L5.12780295018996 11.55596540413002 L5.143916231189962 11.532446523129991 L5.109248263189954 11.521378815130007 L5.095413627189998 11.519385000130015 L5.097855033189944 11.527197500130015 L5.102493705189943 11.532812734130019 L5.108597221189996 11.536841055129983 L5.11575867918998 11.53989281213002 L5.096146049189997 11.533992747129972 L5.074173393189994 11.522192617129988 L5.06107117918998 11.50713727913002 L5.068069877189998 11.491430898129991 L5.058792533189944 11.48715843713002 L5.054642143189994 11.481095612130005 L5.05553732518996 11.473527253130001 L5.061233940189993 11.464738190130007 L5.065628471189996 11.472469310130023 L5.073278210189983 11.47808454412997 L5.083450737189992 11.48199079412997 L5.095413627189998 11.484594961129986 L5.090530815189993 11.472713450129973 L5.089065971189996 11.467260977129982 L5.088577690189993 11.461035391130011 L5.086624565189993 11.45155459613001 L5.081904513189954 11.451229075129973 L5.075149955189943 11.45310082012999 L5.068069877189998 11.45049665413002 L5.054642143189994 11.432348867129988 L5.049189669189957 11.431982656130018 L5.047562065189993 11.45049665413002 L5.02624045018996 11.437719961129986 L4.997594617189975 11.416235586129986 L4.977005424189997 11.391414622129972 L4.978714408189944 11.368546784130004 L4.982864799189997 11.373673737130005 L4.990433158189944 11.379940013130025 L4.997513237189992 11.38213727913002 L4.999710502189998 11.375342031130018 L4.996292533189944 11.363501211129986 L4.990677299189997 11.358984609130019 L4.983353080189943 11.356665273129991 L4.975296440189993 11.351456940130007 L4.96569357518996 11.347021719130012 L4.955276908189944 11.348730703130016 L4.944697481189962 11.352759023129991 L4.935013237189992 11.354874909130004 L4.934769096189996 11.35088727913002 L4.906611544189957 11.310278555129983 L4.900263888189954 11.295792878130001 L4.897415580189943 11.279028555129983 L4.896845919189957 11.254980703130016 L4.893590710189983 11.245906810130023 L4.879918835189983 11.23715843713002 L4.876907768189994 11.227921784130004 L4.875687065189993 11.215958893130008 L4.87194357518996 11.211645742129988 L4.865433158189944 11.209570547130014 L4.823278210189983 11.18161644512999 L4.812210502189998 11.169979075129973 L4.805862846189996 11.14255394512999 L4.796585502189998 11.122941315130007 L4.794388237189992 11.11130394512999 L4.796585502189998 11.106258372129972 L4.806106987189992 11.093563060130023 L4.808060112189992 11.087378164129987 L4.801142794189957 11.072973867129988 L4.763626518189994 11.018449128130001 L4.749873263189954 11.010636628130001 L4.718623263189954 10.963843008129984 L4.797806205189943 10.899023672130014 L4.808955294189957 10.874731680129983 L4.810257377189998 10.842830638130025 L4.802607638189954 10.813940664129987 L4.787552299189997 10.798722565130007 L4.787552299189997 10.793188711129986 L4.798294487189992 10.784399648129991 L4.796829643189994 10.77105329412997 L4.780634981189962 10.73793154913001 L4.767939669189957 10.759253164129987 L4.757685763189954 10.761938711129986 L4.748245658189944 10.750708242129988 L4.73913107518996 10.73044457012999 L4.746536674189997 10.72425967413001 L4.730179252189998 10.702287018130008 L4.726598523189978 10.672990143130008 L4.728063367189975 10.641821523129991 L4.726028862189992 10.614396393130008 L4.715286674189997 10.587296784130004 L4.717239799189997 10.572485586129986 L4.736038627189998 10.566015859130019 L4.741409721189996 10.560278555129983 L4.746455294189957 10.546728750130015 L4.74694357518996 10.531063060130023 L4.73913107518996 10.51885602913002 L4.731481335189983 10.539689362130005 L4.726273002189998 10.54839704412997 L4.718623263189954 10.553035716130026 L4.704625867189975 10.553605378130001 L4.701370658189944 10.54880394512999 L4.701614799189997 10.540910065130007 L4.698196830189943 10.532446523129991 L4.691767794189957 10.52699404913001 L4.687373263189954 10.524023672130014 L4.683304252189998 10.520117422130014 L4.67825867918998 10.512020091130026 L4.675247612189992 10.50278343713002 L4.673782768189994 10.486222565130007 L4.670853080189943 10.477881094130012 L4.668899955189943 10.47739281213002 L4.657181205189943 10.471045156130018 L4.65514670018996 10.467667878130001 L4.652379773189978 10.460099518130008 L4.650345268189994 10.456762930129983 L4.616437808189971 10.416778167129976 L4.587481962189997 10.35693610013 L4.5691370171899734 10.272778678130024 L4.57053824018999 10.253665554130023 L4.597027906189965 10.244408377129972 L4.624097162189969 10.27661283913001 L4.643576416189944 10.27684657112998 L4.647903862189992 10.25473656213002 L4.647903862189992 10.235246003130001 L4.650345268189994 10.22458519512999 L4.654495658189944 10.220760325129973 L4.667923393189994 10.21176781213002 L4.670853080189943 10.206640859130019 L4.672887585189983 10.187719961129986 L4.682327690189993 10.148047109130019 L4.684524955189943 10.12778343713002 L4.67825867918998 10.12778343713002 L4.664017143189994 10.161963125130015 L4.657181205189943 10.147273997129972 L4.660599174189997 10.13636904913001 L4.667190971189996 10.125626862130005 L4.670853080189943 10.111059805129983 L4.670853080189943 10.070044180129983 L4.67825867918998 10.043066641130011 L4.711136283189944 10.007706940130007 L4.721390190189993 9.965307852129982 L4.728470268189994 9.95546084613001 L4.737503471189996 9.947119375130015 L4.746536674189997 9.936621328130016 L4.760208549189997 9.908667227129982 L4.777379773189978 9.892472565130007 L4.780634981189962 9.88824079412997 L4.780634981189962 9.875626862130005 L4.775263888189954 9.864152253130001 L4.765498263189954 9.857641836129986 L4.75280295018996 9.860246003130001 L4.746048393189994 9.869930247129972 L4.73913107518996 9.89841332012999 L4.732683702189945 9.908668443130026 L4.708139902189998 9.913023970129998 L4.707110192189987 9.884362205130017 L4.719954576189991 9.842566874130014 L4.712103152189968 9.787879145129992 L4.719400877189969 9.73205937513002 L4.711871225189952 9.704676462130024 L4.704137585189983 9.691300690130007 L4.676468315189993 9.656144440130007 L4.650345268189994 9.600195547130014 L4.630895398189978 9.57028832012999 L4.62357117918998 9.554581940130007 L4.626175346189996 9.542456289129987 L4.652542533189944 9.519873281130018 L4.65091492918998 9.512060781130018 L4.602900606189962 9.46254092413001 L4.583369356189962 9.44764834613001 L4.574661674189997 9.452490469130012 L4.578323783189944 9.458065013130025 L4.595901908189944 9.475236237130005 L4.602575085189983 9.484188060130023 L4.605830294189957 9.494848867129988 L4.606888237189992 9.505021393130008 L4.609329643189994 9.514990469130012 L4.616165580189943 9.525122305129983 L4.608759981189962 9.531958242129988 L4.595597864189983 9.50389110212997 L4.567735770189984 9.463834094130007 L4.540481987189992 9.435685456130003 L4.488884073189979 9.34913110813001 L4.48905894718996 9.335576442130005 L4.518289984189948 9.350357912130008 L4.550735893189994 9.416886628130001 L4.568395398189978 9.422094961129986 L4.579300346189996 9.428320547130014 L4.588903210189983 9.426896393130008 L4.596715710189983 9.419734935130023 L4.602575085189983 9.408423086129986 L4.592158419189957 9.396948477129982 L4.575231335189983 9.36675641912997 L4.564814669189957 9.36065290413002 L4.55749045018996 9.357763906130018 L4.54935242918998 9.350398997129972 L4.543167533189944 9.340389232130022 L4.540481987189992 9.329565664129987 L4.53177430418998 9.313696523129991 L4.511754773189978 9.306046784130004 L4.488968315189993 9.300879141130011 L4.472203992189975 9.292334219130012 L4.452103080189943 9.296118398129991 L4.437454643189994 9.280167878130001 L4.416946830189943 9.237687409130004 L4.428095919189957 9.227514883129984 L4.436559460189983 9.214209219130012 L4.44225607518996 9.19960147113001 L4.444290580189943 9.185604075129973 L4.441811914189998 9.156996335129989 L4.437096962189969 9.14158848212999 L4.436233940189993 9.129248281130018 L4.424543272189965 9.12429399012997 L4.415502790189976 9.13955972913 L4.402998748189987 9.117751307130007 L4.385572656189993 9.095894586130001 L4.367142143189994 9.062597891130011 L4.349319877189998 9.043107331130003 L4.341832898189978 9.021093984130019 L4.3295960101899595 9.005892338129982 L4.3268013841899915 8.99231181413002 L4.318137289189963 8.975057100129973 L4.3183004091899875 8.960600698130023 L4.310751986189985 8.93070069313002 L4.297214620189948 8.907061562129982 L4.2844207721899465 8.87812634013001 L4.2787537691899615 8.838777867129991 L4.274996220189962 8.810682880130017 L4.269127731189997 8.788804436129979 L4.266800346189996 8.770971914129987 L4.250036023189978 8.754533112130005 L4.242630424189997 8.74346540413002 L4.239456596189996 8.726904531130018 L4.2380587891899495 8.710603353130026 L4.215774955189943 8.72222516912997 L4.20592795018996 8.71636579412997 L4.19778992918998 8.71636579412997 L4.198766492189975 8.733130117129988 L4.208206596189996 8.741919180129983 L4.233353080189943 8.750464102129982 L4.233353080189943 8.75738141912997 L4.199905815189993 8.754492422130014 L4.177947946189988 8.735606466129994 L4.177106313189995 8.686983025129976 L4.132732840189988 8.634217002129972 L4.109248263189954 8.565527578130016 L4.102249565189993 8.542781810130023 L4.097855033189944 8.518042227129982 L4.090530815189993 8.494848867129988 L4.074905815189993 8.476782461129986 L4.06497742918998 8.472143789129987 L4.054153862189992 8.469946523129991 L4.037454696189968 8.464765657130002 L4.028009152189952 8.454720405130004 L4.023376880189971 8.440347592129982 L4.015364735189962 8.422834599130013 L4.003231846189976 8.408403957129977 L3.986771049189997 8.403662344130012 L3.970590649189944 8.39942548513001 L3.957016881189986 8.392466403129973 L3.9472202681899944 8.385473867129988 L3.937446155189946 8.368630299129975 L3.921221168189959 8.351051949130024 L3.9132847211899957 8.34502790413002 L3.896789450189999 8.334033315130014 L3.87635253118998 8.32826920813001 L3.8599732401899587 8.326277396129981 L3.8361649821899846 8.311754076130015 L3.8232398221899757 8.302923185130012 L3.8035242081899696 8.28592872113002 L3.7845194551899795 8.26394335212997 L3.7640625481899974 8.249424298130023 L3.7470006311899624 8.234960111129979 L3.717018788189989 8.20846362112998 L3.708952661189983 8.204771817130009 L3.700764050189946 8.20284632812998 L3.691851568189975 8.20652839412999 L3.683612081189949 8.21146187912997 L3.6610874551899997 8.19724144512999 L3.6454624551899997 8.185766836129986 L3.604299894189978 8.161758183129976 L3.5732041881899477 8.13984478212997 L3.5790071591899846 8.127901286130012 L3.5963040981899894 8.116776183129971 L3.6209555231899913 8.113187596130004 L3.6111430421899513 8.104142632130007 L3.5963401311899474 8.108543152129997 L3.577413566189989 8.117410577130002 L3.5700832091899883 8.104641275130021 L3.5816556341899854 8.087495715130004 L3.585832989189953 8.071805027129997 L3.5751756531899446 8.068001663129976 L3.5685735031899526 8.075445861130007 L3.556249540189981 8.077619716129973 L3.5504600251899774 8.087313754129994 L3.5561821831899465 8.092584880130019 L3.559425094189976 8.101584349130022 L3.5610090931899663 8.11431763213001 L3.5617888861899587 8.123304706130014 L3.5560160621899968 8.129258673129996 L3.5338936021899485 8.121643480130004 L3.503517676189972 8.128963882130009 L3.458043835189983 8.097143789129987 L3.4442905801899997 8.08558779913001 L3.4054721931899508 8.057458771129987 L3.3965447361899805 8.037240298129987 L3.3834687641899563 8.02896805812999 L3.3662905201899775 8.021429978129973 L3.348296820189944 8.012395206130023 L3.333595945189984 7.9996385231300025 L3.313974341189976 7.9876161231300244 L3.290205308189968 7.988286315129997 L3.278844617189975 7.98715843713002 L3.263870658189944 7.997412344130012 L3.260618496189977 8.01061443112998 L3.2662778641899877 8.030811947129976 L3.2236589261899553 8.032190297130015 L3.213057524189992 8.017215339129976 L3.183589824189994 8.004440807129996 L3.1606037571899606 8.011120159129987 L3.1385190961899525 7.990151826130003 L3.1246336331899442 7.9677045921299765 L3.1025448621899727 7.939264153130026 L3.0672869201899857 7.91154492812997 L3.055841867189997 7.877885905129986 L3.065737343189994 7.857719823129983 L3.0731296031899547 7.859977402129985 L3.092837900189977 7.8719812861300085 L3.1010916071899715 7.856305572130012 L3.094552442189979 7.837603132129985 L2.957113002189999 7.65461301613 L2.895543835189983 7.5765139061300175 L2.8664097211899957 7.5411542061300025 L2.8649448771899984 7.513484935130023 L2.8683628461899957 7.506160716130026 L2.8691766481899776 7.4962323311300025 L2.868200085189983 7.48630394512999 L2.8649448771899984 7.479305247129972 L2.857620658189944 7.476050039129987 L2.8446812051899997 7.48785016912997 L2.834183158189944 7.4892336331299845 L2.816605033189944 7.4794680081299845 L2.8036655801899997 7.463354727129982 L2.786494356189962 7.427832266130011 L2.8119663621899917 7.428279857130022 L2.834427299189997 7.43161644512999 L2.856806856189962 7.4322267971300136 L2.8820347211899957 7.4244142971300136 L2.8944858931899944 7.407609284130004 L2.8959507371899917 7.3570721741300105 L2.9178420131899543 7.314754466130026 L2.9149123251899596 7.292212148129991 L2.8957065961899957 7.250301341130026 L2.889358940189993 7.226294180129983 L2.8957065961899957 7.167374909130004 L2.893916231189962 7.144751211129986 L2.8886265181899944 7.1233889061300175 L2.8800815961899957 7.103572825129973 L2.8683628461899957 7.085180898129991 L2.8495640181899944 7.0645917061300025 L2.838089408189944 7.05466332012999 L2.8273472211899957 7.047664622129972 L2.817907117189975 7.039770742129988 L2.8085483931899944 7.02105329412997 L2.800166231189962 7.013159414129987 L2.7802280801899997 6.999080638130025 L2.760452690189993 6.979305247129972 L2.743200085189983 6.9566815491300105 L2.731155815189993 6.934383372129972 L2.728877169189957 6.924454987130005 L2.726761283189944 6.902075430129983 L2.7243198771899984 6.89340843713002 L2.7177280801899997 6.884253164129987 L2.702509981189962 6.86911644512999 L2.697708549189997 6.859228750130015 L2.715286674189997 6.8477948311300025 L2.700556856189962 6.8251711331299845 L2.6561232631899543 6.7841555081299845 L2.6484735231899776 6.77146019512999 L2.632360242189975 6.728898346130009 L2.627151908189944 6.721899648129991 L2.613480033189944 6.71372093713002 L2.6082717001899596 6.708390534130004 L2.6068882371899917 6.70269391912997 L2.607864799189997 6.69028343713002 L2.604853731189962 6.6845461331299845 L2.596146049189997 6.672501862130005 L2.5819858931899944 6.643652578130016 L2.5741733931899944 6.6327069401300065 L2.5613967001899596 6.624080638130025 L2.5321812051899997 6.61325707012999 L2.5194858931899944 6.606014232130022 L2.4801792521899984 6.549048086129986 L2.455276908189944 6.520890534130004 L2.4335483931899944 6.519385000130015 L2.4315952681899944 6.530574779130021 L2.4383498251899596 6.542130768130008 L2.441849174189997 6.552059154130021 L2.430130424189997 6.5582440491300105 L2.4174351121899917 6.554785391130011 L2.3867547731899776 6.534969310130023 L2.371780815189993 6.530330638130025 L2.362828992189975 6.52495954412997 L2.340205294189957 6.49887718713002 L2.3339390181899944 6.489315013130025 L2.332718315189993 6.48325218713002 L2.3339390181899944 6.461727122129972 L2.3317417521899984 6.455949128130001 L2.319697481189962 6.4532635811300025 L2.313512585189983 6.448340078130016 L2.3013055541899803 6.423193594130012 L2.3000034711899957 6.399756094130012 L2.3095249551899997 6.377417227129982 L2.330521049189997 6.355566641130011 L2.3437046431899944 6.335099518130008 L2.3473667521899984 6.307715078130016 L2.3434605021899984 6.279516836129986 L2.3339390181899944 6.256567617129988 L2.3102573771899984 6.233618398129991 L2.2785190961899957 6.2186444401300065 L2.243525606189962 6.2105877991300105 L2.2104038621899917 6.208146393130008 L2.174515190189993 6.196427643130008 L2.150589408189944 6.1678631901300065 L2.0871128461899957 6.031958242129988 L2.0641636271899984 5.9970461331299845 L2.0207065961899957 5.9443117581299845 L1.946813367189975 5.780615469130012 L1.8677118041899803 5.6532961331299845 L1.8200230021899984 5.5986086331299845 L1.762080294189957 5.552099844130012 L1.7355503461899957 5.524878164129987 L1.719762585189983 5.481583893130008 L1.6896519081899442 5.4341799221300136 L1.6698765181899944 5.3720461331299845 L1.6518101121899917 5.37652204412997 L1.6381382371899917 5.365332266130011 L1.6146193561899622 5.331111888130025 L1.5497593301899997 5.27927269512999 L1.4695998251899596 5.1861330471300136 L1.440953992189975 5.136775950129973 L1.4376987831899442 5.128760000130015 L1.4364780801899997 5.118872305129983 L1.4386753461899957 5.110693594130012 L1.4484409711899957 5.096411367129988 L1.450719617189975 5.0877850651300065 L1.4458368041899803 5.075781484130019 L1.4219110231899776 5.043351471130009 L1.3378452681899944 4.9540773831299845 L1.2904819871899917 4.925024648129991 L1.2782749551899997 4.915381094130012 L1.254593315189993 4.889217357130022 L1.2277378461899957 4.8499514061300175 L1.1974644081899442 4.8232180081299845 L1.1593784711899957 4.760392487130005 L1.1483921431899944 4.734676341130026 L1.1447300331899442 4.71441266912997 L1.144078992189975 4.6783205471300136 L1.1381382371899917 4.659521719130012 L1.1298374551899997 4.64646019512999 L1.0968784711899957 4.615454336129986 L1.0786493041899803 4.588598867129988 L1.0529331581899442 4.5274823311300025 L1.032262585189983 4.5018475651300065 L1.0228224811899622 4.4962323311300025 L1.002640190189993 4.489152253130001 L0.9948276901899931 4.484472891130011 L0.9892124551899997 4.477433503130001 L0.9847365441899569 4.4638430081299845 L0.9746453981899776 4.445166250130015 L0.970250867189975 4.416642487130005 L0.9606480021899984 4.402563711129986 L0.9088901901899931 4.351050039129987 L0.8931024291899803 4.3260663151300065 L0.8834995651899931 4.316504141130011 L0.8678745651899931 4.31011579412997 L0.8193719601899829 4.275936107130022 L0.8193719601899829 4.282812734130019 L0.8125360231899776 4.282812734130019 L0.8014683151899931 4.26950707012999 L0.8144077681899944 4.259375234130019 L0.8369500851899829 4.250626862130005 L0.8542026901899931 4.2411867581299845 L0.864782117189975 4.245703359130019 L0.863724174189997 4.240088125130015 L0.8542026901899931 4.224463125130015 L0.8481805541899803 4.222265859130019 L0.8205112831899442 4.2169354561300025 L0.8125360231899776 4.2138430081299845 L0.8057000851899829 4.2138430081299845 L0.8057000851899829 4.22067894512999 L0.7996779501899596 4.22067894512999 L0.7956089401899931 4.2144940491300105 L0.7897495651899931 4.207820872129972 L0.7826694871899917 4.202449779130021 L0.7751011271899984 4.200252513130025 L0.7572788621899917 4.200903555129983 L0.7482456581899442 4.199926992129988 L0.7365269081899442 4.1891034241300105 L0.6898146691899569 4.159277578130016 L0.6798862831899442 4.165828685130023 L0.6681675331899442 4.165381094130012 L0.6575881061899622 4.165381094130012 L0.6603550331899442 4.170996328130016 L0.6640985231899776 4.175879141130011 L0.6686558151899931 4.179744700129973 L0.6585646691899569 4.175106029130021 L0.6474155801899997 4.1683107811300175 L0.6357782101899829 4.1646486721300136 L0.6238967001899596 4.169531484130019 L0.613724174189997 4.1754315491300105 L0.5833693561899622 4.1834881901300065 L0.5751499551899997 4.187597891130011 L0.5692092001899596 4.192846914129987 L0.5656284711899957 4.200252513130025 L0.5587925331899442 4.200252513130025 L0.5587925331899442 4.193416575129973 L0.5519565961899957 4.193416575129973 L0.5387730021899984 4.196590404130021 L0.5185093301899997 4.193213125130015 L0.49808289818997764 4.193457266130011 L0.4843296431899944 4.207658112130005 L0.4816440961899957 4.202531159130004 L0.48083029418995693 4.202449779130021 L0.47676128318994415 4.200252513130025 L0.47676128318994415 4.193416575129973 L0.4843296431899944 4.193416575129973 L0.4843296431899944 4.185929596130009 L0.48050477318997764 4.179012279130021 L0.4855503461899957 4.173315664129987 L0.49482769018999306 4.169002513130025 L0.5041050331899442 4.166072825129973 L0.49458354918999703 4.162410716130026 L0.4848993041899803 4.161230703130016 L0.47464539818997764 4.162573477129982 L0.46325216918995693 4.166072825129973 L0.46325216918995693 4.172949453130016 L0.4706577681899944 4.172949453130016 L0.4706577681899944 4.179744700129973 L0.4595086791899803 4.183081289129987 L0.45218446018998293 4.189917227129982 L0.4427443561899622 4.207658112130005 L0.43965190818994415 4.2034670311300175 L0.43655946018998293 4.202042878130001 L0.433141492189975 4.201554596130009 L0.4296421431899944 4.200252513130025 L0.43362977318997764 4.194230378130001 L0.43948914818997764 4.1884523831299845 L0.44730164818997764 4.183447500130015 L0.4569858931899944 4.179744700129973 L0.4564162311899622 4.1759198311300025 L0.4562534711899957 4.171728750130015 L0.4569858931899944 4.166072825129973 L0.44282573718999174 4.165503164129987 L0.4315952681899944 4.167781810130023 L0.4243524291899803 4.174129466130026 L0.42231792418999703 4.185929596130009 L0.4168654501899596 4.183081289129987 L0.4152378461899957 4.182674388130025 L0.41377300218999835 4.183895091130026 L0.40864604918999703 4.185929596130009 L0.40823914818997764 4.182715078130016 L0.4087274291899803 4.1761232811300175 L0.40864604918999703 4.172949453130016 L0.4028680541899803 4.172949453130016 L0.4028680541899803 4.179744700129973 L0.39489279418995693 4.179744700129973 L0.3898472211899957 4.171240469130012 L0.38520854918999703 4.16684593713002 L0.38032573718999174 4.167293529130021 L0.37446636218999174 4.172949453130016 L0.36527039818997764 4.166723867129988 L0.36299175218999835 4.163794180129983 L0.3568068561899622 4.15581891912997 L0.35322612718999835 4.15122093713002 L0.34712261218999174 4.138769766130011 L0.34419292418999703 4.141251862130005 L0.3403680541899803 4.143856029130021 L0.33638042418999703 4.14731468713002 L0.3328810751899596 4.152400950129973 L0.319860242189975 4.143693268130008 L0.3162795131899543 4.1480877991300105 L0.3156284711899957 4.158056875130015 L0.3124546431899944 4.166072825129973 L0.30488628318994415 4.170141836129986 L0.29145854918999703 4.175268789129987 L0.2850295131899543 4.179744700129973 L0.2850295131899543 4.185929596130009 L0.306188367189975 4.200252513130025 L0.306188367189975 4.207658112130005 L0.2996779501899596 4.208065013130025 L0.2968296431899944 4.209692617129988 L0.29536479918999703 4.2118898831299845 L0.29316753318994415 4.2138430081299845 L0.2850295131899543 4.207658112130005 L0.2802280801899997 4.2242596741300105 L0.27933289818997764 4.23715843713002 L0.27290386218999174 4.245581289129987 L0.2509312051899997 4.2486330471300136 L0.25264019018999306 4.243872305129983 L0.25361675218999835 4.2431398831299845 L0.2552443561899622 4.243384023129991 L0.2583368041899803 4.2411867581299845 L0.2509312051899997 4.23435082012999 L0.24653667418999703 4.220027904130021 L0.24458354918999703 4.20700707012999 L0.24409526818999439 4.182837148129991 L0.23677104918999703 4.175594310130023 L0.21227560618996222 4.184790273129991 L0.21675151818999439 4.172949453130016 L0.21064800218999835 4.166072825129973 L0.22529644018999306 4.147029857130022 L0.23481792418999703 4.139949779130021 L0.24352560618996222 4.13628766912997 L0.24409526818999439 4.131323477129982 L0.25036154418995693 4.128515859130019 L0.25882508518998293 4.121476471130009 L0.2646030801899997 4.118302643130008 L0.2583368041899803 4.1114667061300025 L0.261266492189975 4.106176992129988 L0.2650099811899622 4.102189362130005 L0.2703810751899596 4.099463125130015 L0.2781935751899596 4.0977948311300025 L0.2781935751899596 4.102433503130001 L0.2759149291899803 4.1034100651300065 L0.27314800218999835 4.103125234130019 L0.2713576381899543 4.103979727129982 L0.28128602318997764 4.108618398129991 L0.2895868041899803 4.111059805129983 L0.29560894018999306 4.108292878130001 L0.2987827681899944 4.0977948311300025 L0.29316753318994415 4.0977948311300025 L0.29316753318994415 4.090958893130008 L0.2860060751899596 4.084611237130005 L0.28747091918995693 4.077978750130015 L0.29512065818994415 4.072566966130026 L0.306188367189975 4.06988141912997 L0.306188367189975 4.0630861721300136 L0.30277039818997764 4.0543377991300105 L0.3124546431899944 4.0083986721300136 L0.3162795131899543 4.010392487130005 L0.3231968301899997 4.012915273129991 L0.32661479918999703 4.015234609130019 L0.3261265181899944 4.0120607811300175 L0.32661479918999703 4.001562734130019 L0.3208368041899803 4.005021393130008 L0.3183140181899944 4.007177969130012 L0.3124546431899944 4.0016034241300105 L0.3325555541899803 3.984432200129973 L0.3529006061899622 3.951391836129986 L0.3683628461899957 3.915259023129991 L0.37894227318997764 3.868261953130016 L0.39847352318997764 3.842260977129982 L0.405797742189975 3.8123944401300065 L0.4129592001899596 3.7955080471300136 L0.4416581871899439 3.7517190661299793 L0.4340562131899901 3.706666844129998 L0.43131556818997296 3.6594175191300025 L0.4163530071899686 3.6143517841300223 L0.4347690961899957 3.553035716130026 L0.44770854918999703 3.520890534130004 L0.46325216918995693 3.4944826561300175 L0.46325216918995693 3.4882570701299898 L0.4569858931899944 3.4882570701299898 L0.4739943561899622 3.462378164129987 L0.4764357631899543 3.450293203130016 L0.4706577681899944 3.4392661851300232 L0.4706577681899944 3.432999909130004 L0.481969617189975 3.402441641130011 L0.4798537311899622 3.389217357130022 L0.46325216918995693 3.384619375130015 L0.46325216918995693 3.3784751691299704 L0.47798198718999174 3.3564211331299845 L0.49417664818997764 3.3150392971300136 L0.5016636271899984 3.272599518130008 L0.49043315818994415 3.247453034130004 L0.49043315818994415 3.233781159130004 L0.5019077681899944 3.2151857811300175 L0.5114292521899984 3.193579336129986 L0.5314487831899442 3.1041017971300136 L0.5360874551899997 3.0911216541300206 L0.5472365441899569 3.0687014061300175 L0.5457717001899596 3.0624758201299898 L0.5472365441899569 3.0481935941300122 L0.5568394081899442 3.0397707421299884 L0.5799513881899543 3.0283775131300246 L0.5731154501899596 3.011572500130015 L0.5705112831899442 2.9895998441300122 L0.5742547731899776 2.974992096130009 L0.5859735231899776 2.980566641130011 L0.5871128461899957 2.9773521221299717 L0.5872756061899622 2.9745851951299898 L0.5885776901899931 2.973120352129982 L0.5934605021899984 2.973730703130016 L0.5858921431899944 2.9588788151300065 L0.5832065961899957 2.941951732130022 L0.587268599985407 2.9271660376142847 L0.6982029411900044 2.9441555141300455 L0.816955382189974 2.9621905891300457 L0.9725014431900263 2.9857033651300355 L1.1115110471899925 3.0067873491299792 L1.259925760190015 3.029163245130036 L1.3781341051899858 3.047121150130039 L1.4351088651899886 3.0557766071299852 L1.550347310190034 3.0731657271300037 L1.654320291190004 3.088901200130067 L1.681708801190041 3.087971024129928 L1.7073403111899665 3.0788242961300227 L1.815860819189993 3.0004828251300353 L1.9215907991899712 2.9240017051299674 L2.03786277219001 2.83994998813003 L2.1149640091900324 2.7842427941299945 L2.179146138189992 2.6894423791299573 L2.2414679151900145 2.597380815130009 L2.28745994018999 2.5294521441300617 L2.342753722190025 2.447700028129958 L2.3666282341899887 2.425324133129976 L2.3941200961899654 2.4133352011300246 L2.480833149189948 2.397625565130056 L2.569819966190039 2.3816058721299953 L2.713687153189994 2.355560949130023 L2.85641745918997 2.3297227341300015 L2.990259419189954 2.3055381631300236 L3.108081684189983 2.2842991501299537 L3.1295790801900125 2.267659338130045 L3.174020812190008 2.1735565551300624 L3.207093729189978 2.1038967251299425 L3.2430605251899465 2.028139075129957 L3.272412739190031 1.9660756801299897 L3.285435201189955 1.9479889281299734 L3.3085862421899606 1.9312457641300398 L3.417210103189973 1.878432450129992 L3.538029601189976 1.819779700129942 L3.61120343018996 1.784329668129999 L3.61792136519 1.7807639931300514 L3.618851541190054 1.7804539351299695 L3.619264952189951 1.7800405241299586 L3.618954894189983 1.7793687301299599 L3.569448872190037 1.72919091412993 L3.459791483190031 1.6179832321300012 L3.3499273881899967 1.5068272261300137 L3.2401666451899587 1.3956195431300102 L3.130509256189953 1.2843601851299695 L3.1273053171900074 1.2811562461299957 L3.1242047321899804 1.2779523071300218 L3.1210007921899887 1.2747483691300374 L3.1179002071899617 1.271596106130005 L2.987778950189977 1.1506215781300284 L2.859605492189985 1.031559735129946 L2.8576576941900385 1.029750403129981 L2.727536437189997 0.9087758751300044 L2.5974151811899446 0.7878530241299586 L2.6357950021899796 0.7780379091300063 L2.845151997190044 0.7244977171299638 L3.092888814189962 0.6611424121300331 L3.3406256301899475 0.5977354291300117 L3.39929565619002 0.5827313711299666 L3.58836244618999 0.5343801231300063 L3.62440594318997 0.5254934801299385 L3.813258279189995 0.4789313121300154 L4.038050760189947 0.4234824991299604 L4.262739888190026 0.36798201112998186 L4.487635721190031 0.3125332001300194 L4.601220519189951 0.28447289713000146 L4.601323872189994 0.2845245731299997 L4.601323872189994 0.28436954412995874 L4.63594708219 0.2719155231299908 L4.75469952318997 0.17595238913000344 L4.7741298611899765 0.16349836813000707 L4.784258443190026 0.16070784112997671 L4.787152323190014 0.15993269513003838 L4.790046202189956 0.15910587213002714 L4.792836730189947 0.1582790491300159 L4.795627257190006 0.15750390213000287 L4.9934446401900345 0.18628767513001776 L5.191158670189964 0.21512312413003087 L5.3888727001900065 0.24395857312998714 L5.58648337718995 0.27274234712999146 L5.666685200189988 0.28436954412995874 L5.666891906190017 0.28436954412995874 L5.666995259189946 0.2844212201299854 L5.667201965190031 0.28447289713000146 L6.008163065190047 0.3403867961299909 L6.0620099071899745 0.35831851912996626 L6.11771710119001 0.3860170861299821 L6.220553202190047 0.4384169881300295 L6.30819643018998 0.48316877812999337 L6.396046365190045 0.527765540129991 L6.4837929481900005 0.5725173301299549 L6.57143617718998 0.6172174441300058 L6.6591827581899565 0.661917558129943 L6.7469293411899685 0.7065659961299673 L6.834572570190005 0.7512661091300288 L6.922422505189957 0.7960179001299821 L7.010065734189993 0.840718014130033 L7.097708963189973 0.8854181281299702 L7.1854555451899955 0.9301182411300033 L7.273305480190004 0.9748183561299584 L7.360948709189984 1.0194667931299932 L7.44859193819002 1.064166906129941 L7.536441873189972 1.1088670211299814 L7.624085103189998 1.1535671351300323 L7.713278625189957 1.1989907191299665 L7.779527811189951 1.24844506413001 L7.864173807189957 1.3113869591300045 L7.948613097189991 1.374328854129999 L8.033052388190015 1.437270748130004 L8.117595031189978 1.500212642130009 L8.212369608190045 1.5712160611300021 L8.307040832189955 1.6421678021299897 L8.401815409190021 1.713222897129981 L8.421296062189981 1.7278068321299997 L8.496589985189985 1.7841746381299686 L8.49669333818997 1.7842263151299846 L8.496796691190013 1.7842779911300113 L8.496900043189953 1.784329668129999 L8.602630024189978 1.8588470821300405 L8.690790018189944 1.9210655071299811 L8.778846658190048 1.983180579129936 L8.866954976190016 2.045347327130031 L8.95511496919005 2.1075140751300125 L9.069629943189966 2.188284338129961 L9.184248270189983 2.269054602130012 L9.298866597189942 2.3498248661300636 L9.413381571189973 2.430646806130028 L9.461896446189996 2.464872005129962 L9.527948221190002 2.5114687461299923 L9.64251487119003 2.59223901012993 L9.757029845189948 2.6730351121299805 L9.871544819189978 2.75385705213003 L9.966836160190041 2.8210622511300016 L10.062179178190036 2.8883191281299787 L10.15762554818997 2.955524329129929 L10.252761861190038 3.022781205130002 L10.32970806819003 3.0770156211300446 L10.336115945189988 3.0791343541300193 L10.342523824190039 3.0813564421299304 L10.348776671190024 3.083578528130033 L10.355339578190012 3.085748938130024 L10.446806864189966 3.092957800129966 L10.526595275189948 3.09933984013 L10.606176981189947 3.1055926881300024 L10.685707010189958 3.111948889129934 L10.765340392190012 3.118227576130039 L10.867866434189978 3.1263924521300623 L10.970289123190014 3.134479814129975 L11.072815164190047 3.14264469012997 L11.175289530190014 3.1507320521299675 L11.277763895190049 3.1588194141299653 L11.380289936189968 3.1669842891299993 L11.482815978190047 3.1750974901299855 L11.58523866718997 3.183210690130011 L11.66151308118998 3.1892568321299564 L11.737580790189952 3.195277136129988 L11.813803527189975 3.201374955130035 L11.890026265189988 3.207395260129971 L11.995342833190023 3.2157151651300353 L12.039061096189982 3.207576127130011 L12.065205803190054 3.2027087611299976 L12.082779357189963 3.199437089130015 L12.126497619190047 3.191272212130002 L12.170319233189957 3.183107337129968 L12.282043680189986 3.1952254601299614 L12.393664774190029 3.207317745130041 L12.50523419118997 3.2194358681300344 L12.61711366719004 3.2316315061299576 L12.716642475189985 3.2431036741299692 L12.816274637189963 3.254627519129997 L12.915906799189997 3.266151363130035 L13.01543560719 3.2776493691299606 L13.071246154190021 3.2841347621300088 L13.07134950718995 3.2841347621300088 L13.071866271190004 3.2842381141300336 L13.071969624190046 3.2842639531300506 L13.08420671719 3.302609125130033 L13.132379374189952 3.3748269011300636 L13.187828185190028 3.508255448130001 L13.192479064189968 3.5334735471299723 L13.19630312019001 3.5873720661300013 L13.205914936190027 3.617861162129998 L13.219557515190047 3.6473684051300097 L13.234698710189946 3.6700285201299607 L13.256041076189945 3.6873659631299915 L13.278985412189968 3.7016028201300344 L13.297692280189949 3.7188110721300234 L13.306012186189946 3.7453469201300322 L13.359703999190003 3.7448818321300053 L13.537470926189997 3.7432281861300396 L13.715289529190045 3.741574540130017 L13.893108133190026 3.7399725711300675 L14.070664710190044 3.738372141129986 L14.09427430418998 3.760392487130005 L14.106644096189996 3.768204987130005 L14.132523002189998 3.778703034130004 L14.136429252189998 3.7859458721299717 L14.145543835189983 3.829687734130019 L14.145706596189996 3.863135000130015 L14.136917533189944 3.8854738671299884 L14.113968315189993 3.878068268130008 L14.109085502189998 3.8846600651300065 L14.107864799189997 3.88754906213002 L14.106644096189996 3.891740143130008 L14.126175346189996 3.892960846130009 L14.142776908189944 3.889217357130022 L14.155228080189943 3.8798586331299845 L14.161819877189998 3.864396393130008 L14.173375867189975 3.8712323311300025 L14.172806205189943 3.8801841541300206 L14.161819877189998 3.898535391130011 L14.155716362189992 3.92465843713002 L14.154983940189993 3.936417878130001 L14.160110893189994 3.9600181381300246 L14.172806205189943 3.9800376691299704 L14.256302299189997 4.061580638130025 L14.261429252189998 4.073584219130012 L14.247024955189943 4.0927492581299845 L14.239619356189962 4.1114667061300025 L14.238724174189997 4.131079336129986 L14.244339408189944 4.152400950129973 L14.254349174189997 4.1683107811300175 L14.28600607518996 4.206885000130015 L14.292679252189998 4.217260977129982 L14.291214408189944 4.228979727129982 L14.289993705189943 4.2327639061300175 L14.305700085189983 4.2411867581299845 L14.339879773189978 4.2548586331299845 L14.350784721189996 4.255957266130011 L14.384964408189944 4.2548586331299845 L14.393753471189996 4.257137279130021 L14.413773002189998 4.266902904130021 L14.425817273189978 4.269140859130019 L14.429886283189944 4.2718264061300175 L14.429398002189998 4.278051992129988 L14.426142794189957 4.284969310130023 L14.42239930418998 4.289607982130022 L14.415970268189994 4.292212148129991 L14.409215710189983 4.29184593713002 L14.401891492189975 4.289607982130022 L14.384720268189994 4.2972170311300175 L14.380244356189962 4.303605378130001 L14.381546440189993 4.317521393130008 L14.39114930418998 4.330867747129972 L14.411168835189983 4.349096914129987 L14.43411805418998 4.36521019512999 L14.452591362189992 4.372168203130016 L14.453079643189994 4.3766034241300105 L14.475540580189943 4.406551341130026 L14.515823783189944 4.442033112130005 L14.520543835189983 4.4521242581299845 L14.511673393189994 4.472265859130019 L14.510452690189993 4.4849611721300136 L14.511266492189975 4.496720612130005 L14.514603080189943 4.5018475651300065 L14.512405815189993 4.508927643130008 L14.503372612189992 4.524796784130004 L14.490677299189997 4.5413576561300175 L14.47708680418998 4.550268789129987 L14.484085502189998 4.538550039129987 L14.485550346189996 4.53012718713002 L14.483353080189943 4.505591055129983 L14.486364148189978 4.491552969130012 L14.492142143189994 4.483496328130016 L14.495478731189962 4.475317617129988 L14.49075867918998 4.46091332012999 L14.475947481189962 4.474829336129986 L14.459671440189993 4.512020091130026 L14.442907117189975 4.522355378130001 L14.461299044189957 4.479223867129988 L14.46341492918998 4.4677492581299845 L14.458450737189992 4.448828359130019 L14.450394096189996 4.450252513130025 L14.44193055418998 4.4638430081299845 L14.423050346189996 4.5341555081299845 L14.42239930418998 4.550268789129987 L14.420120658189944 4.55271019512999 L14.416702690189993 4.559301992129988 L14.417923393189994 4.564754466130026 L14.429235242189975 4.563940664129987 L14.434769096189996 4.559139232130022 L14.441849174189997 4.542374909130004 L14.449173393189994 4.536027253130001 L14.449173393189994 4.5806642971300136 L14.453161023189978 4.591284414129987 L14.462438367189975 4.589900950129973 L14.471878471189996 4.581396719130012 L14.47708680418998 4.570776602129982 L14.484085502189998 4.581762930129983 L14.48522482518996 4.595027904130021 L14.483353080189943 4.611710846130009 L14.495967013189954 4.616023997129972 L14.505569877189998 4.611059805129983 L14.512894096189996 4.601375560130023 L14.518021049189997 4.591284414129987 L14.51842795018996 4.608537018130008 L14.516312065189993 4.614640534130004 L14.511185112189992 4.619197825129973 L14.516067924189997 4.628271719130012 L14.515009981189962 4.634375234130019 L14.508499565189993 4.6376711331299845 L14.497513237189992 4.638403555129983 L14.507685763189954 4.6602948311300025 L14.511185112189992 4.6663576561300175 L14.48685242918998 4.655493398129991 L14.476761283189944 4.655656159130004 L14.469681205189943 4.6663576561300175 L14.490677299189997 4.674210846130009 L14.50866232518996 4.673234284130004 L14.522659721189996 4.663794180129983 L14.531692924189997 4.645890534130004 L14.538528862189992 4.645890534130004 L14.545364799189997 4.66013207012999 L14.533157768189994 4.671118398129991 L14.529007377189998 4.690731029130021 L14.534622612189992 4.706844310130023 L14.552200737189992 4.707332591130026 L14.559524955189943 4.700008372129972 L14.555130424189997 4.6930096741300105 L14.54739930418998 4.686173737130005 L14.545364799189997 4.679419180129983 L14.553177299189997 4.670223216130026 L14.563919487189992 4.6650148831299845 L14.586950085189983 4.66013207012999 L14.606399955189943 4.658504466130026 L14.619583549189997 4.664282461129986 L14.655228080189943 4.693660716130026 L14.692093315189993 4.7105877991300105 L14.701858940189993 4.722510000130015 L14.682571830189943 4.734676341130026 L14.696813367189975 4.740698477129982 L14.70950867918998 4.739355703130016 L14.715530815189993 4.7323163151300065 L14.709915580189943 4.721004466130026 L14.726761283189944 4.727759023129991 L14.744176648189978 4.73199079412997 L14.782181205189943 4.734676341130026 L14.790563367189975 4.732519766130011 L14.808304252189998 4.723120352129982 L14.816360893189994 4.721004466130026 L14.826858940189993 4.722143789129987 L14.846634330189943 4.727270742129988 L14.857457898189978 4.7284100651300065 L14.877640190189993 4.733740469130012 L14.893021049189997 4.746476471130009 L14.915970268189994 4.775610586129986 L14.923213106189962 4.78122582012999 L14.930374565189993 4.78472516912997 L14.936966362189992 4.7889569401300065 L14.943232638189954 4.796728750130015 L14.945755424189997 4.8043377991300105 L14.947708549189997 4.8221600651300065 L14.950638237189992 4.8302167061300025 L14.93802430418998 4.830786367129988 L14.93053732518996 4.825903555129983 L14.927770398189978 4.816504141130011 L14.929642143189994 4.803523997129972 L14.922806205189943 4.803523997129972 L14.901810112189992 4.825984935130023 L14.846715710189983 4.820776602129982 L14.827103080189943 4.837703685130023 L14.819778862189992 4.837703685130023 L14.812942924189997 4.820532461129986 L14.795608940189993 4.820369700129973 L14.757685763189954 4.837703685130023 L14.765986544189957 4.8419354561300025 L14.78795920018996 4.847510000130015 L14.799271049189997 4.851945221130009 L14.808141492189975 4.857804596130009 L14.814000867189975 4.863012930129983 L14.820999565189993 4.867732982130022 L14.833369356189962 4.872412344130012 L14.839879773189978 4.880184154130021 L14.844925346189996 4.883683503130001 L14.85045920018996 4.882055898129991 L14.867386283189944 4.867041250130015 L14.867549044189957 4.864966055129983 L14.872920138189954 4.860693594130012 L14.875198783189944 4.854874909130004 L14.878128471189996 4.851660391130011 L14.884801648189978 4.855078359130019 L14.892451388189954 4.861059805129983 L14.901728731189962 4.864966055129983 L14.894730033189944 4.8788006901300065 L14.885208549189997 4.8857180081299845 L14.875361544189957 4.890722891130011 L14.867549044189957 4.899145742129988 L14.864619356189962 4.91013207012999 L14.863968315189993 4.936092357130022 L14.861282768189994 4.947566966130026 L14.87194357518996 4.9449627991300105 L14.88366232518996 4.93942894512999 L14.895218315189993 4.931941966130026 L14.905309460189983 4.923641185130023 L14.916702690189993 4.9200604561300025 L14.930049044189957 4.92339704412997 L14.950638237189992 4.933895091130026 L14.942744356189962 4.953344961129986 L14.945755424189997 4.9725506901300065 L14.952998263189954 4.992041250130015 L14.956904513189954 5.012426992129988 L14.954951388189954 5.055151602129982 L14.960485242189975 5.073136628130001 L14.97741232518996 5.071020742129988 L14.976273002189998 5.089249909130004 L14.983108940189993 5.0960451561300175 L14.993851127189998 5.093847891130011 L15.00475607518996 5.084692617129988 L14.999710502189998 5.069718659130004 L15.008743705189943 5.06011579412997 L15.02428732518996 5.059220612130005 L15.038773002189998 5.071020742129988 L15.044957898189978 5.063574453130016 L15.050247612189992 5.074845612130005 L15.047317924189997 5.0849367581299845 L15.04186545018996 5.095556875130015 L15.038773002189998 5.108618398129991 L15.035355033189944 5.116268138130025 L15.026728731189962 5.119523346130009 L15.015579643189994 5.119686107130022 L15.00475607518996 5.118221263130025 L15.012731335189983 5.129777253130001 L15.036982638189954 5.134131094130012 L15.044957898189978 5.1461346741300105 L15.055049044189957 5.140722891130011 L15.061478080189943 5.13238141912997 L15.072952690189993 5.112036367129988 L15.073766492189975 5.116512279130021 L15.074661674189997 5.1170819401300065 L15.076370658189944 5.116797109130019 L15.079788627189998 5.118221263130025 L15.069778862189992 5.136084219130012 L15.078079643189994 5.139054596130009 L15.103551648189978 5.131893138130025 L15.119176648189978 5.1344159241300105 L15.146194877189998 5.1448732811300175 L15.162308158189944 5.1461346741300105 L15.135208549189997 5.119767487130005 L15.126989148189978 5.1041017971300136 L15.141963106189962 5.090918203130016 L15.154332898189978 5.090470612130005 L15.164017143189994 5.0960451561300175 L15.172806205189943 5.102677643130008 L15.182815971189996 5.105200430129983 L15.190628471189996 5.102107982130022 L15.209996960189983 5.084692617129988 L15.206497612189992 5.1005617581299845 L15.197301648189978 5.124853750130015 L15.196487846189996 5.139298737130005 L15.202509981189962 5.162166575129973 L15.207962455189943 5.1747805081299845 L15.21341492918998 5.1802736721300136 L15.232132377189998 5.188126862130005 L15.250361544189957 5.206885000130015 L15.308060112189992 5.28793968713002 L15.337356987189992 5.320613841130026 L15.346146049189997 5.326717357130022 L15.374547742189975 5.337947825129973 L15.383743705189943 5.34458031213002 L15.398392143189994 5.358211497129972 L15.40872742918998 5.365291575129973 L15.470901908189944 5.390844961129986 L15.509720268189994 5.4163576561300175 L15.531937065189993 5.4185549221300136 L15.555130424189997 5.417374909130004 L15.580032768189994 5.4205080471300136 L15.610875867189975 5.4364992581299845 L15.639847221189996 5.4618898831299845 L15.689896049189997 5.522925039129987 L15.706985893189994 5.550268789129987 L15.77982117918998 5.597510000130015 L15.796341362189992 5.613989492129988 L15.799759330189943 5.6396242581299845 L15.754593315189993 5.60349144512999 L15.730423393189994 5.5897381901300065 L15.675735893189994 5.5836346741300105 L15.661575737189992 5.579321523129991 L15.651891492189975 5.568091055129983 L15.644241752189942 5.53122582012999 L15.635452690189993 5.537492096130009 L15.626338106189962 5.554419180129983 L15.62161805418998 5.5706545311300175 L15.620804252189942 5.583146393130008 L15.621129773189978 5.595109284130004 L15.624384981189962 5.606095612130005 L15.631546440189993 5.615698477129982 L15.641556205189943 5.625219961129986 L15.644241752189942 5.630265534130004 L15.640091362189992 5.691463450129973 L15.641556205189943 5.708146393130008 L15.66849305418998 5.784236888130025 L15.679723523189978 5.800390859130019 L15.69616232518996 5.814917227129982 L15.714391492189975 5.825089753130001 L15.800166231189962 5.851782461129986 L15.829463106189962 5.875301341130026 L15.847122612189992 5.909318268130008 L15.854446830189943 5.954931875130015 L15.853877169189957 6.063777904130021 L15.85013367918998 6.0875409241300105 L15.839879773189978 6.107479075129973 L15.820267143189994 6.118750234130019 L15.819778862189992 6.103369375130015 L15.811966362189992 6.098120352129982 L15.80130555418998 6.101619700129973 L15.792435112189992 6.112606029130021 L15.798864148189978 6.137752513130025 L15.796259981189962 6.1763674221300136 L15.788284721189996 6.215633372129972 L15.779251518189994 6.242895742129988 L15.763707898189978 6.23239769512999 L15.759313367189975 6.218115469130012 L15.759720268189994 6.202368398129991 L15.758174044189957 6.1876385811300025 L15.751175346189996 6.175594310130023 L15.742223523189978 6.1676190491300105 L15.732783419189957 6.161230703130016 L15.724645398189978 6.153540273129991 L15.719192924189997 6.149756094130012 L15.714554252189942 6.149756094130012 L15.71146180418998 6.14731468713002 L15.70950867918998 6.119604727129982 L15.707474174189997 6.112890859130019 L15.703567924189997 6.1051190491300105 L15.695755424189997 6.09527204412997 L15.683548393189994 6.0843264061300175 L15.670283419189957 6.0777752991300105 L15.658890190189993 6.081193268130008 L15.632767143189994 6.126684805129983 L15.624710502189942 6.133032461129986 L15.613724174189997 6.1392580471300136 L15.618851127189942 6.152726471130009 L15.62943055418998 6.165747305129983 L15.635208549189997 6.170630117129988 L15.637405815189993 6.177954336129986 L15.646683158189944 6.1923586331299845 L15.648310763189954 6.201961497129972 L15.644974174189997 6.204443594130012 L15.638056856189962 6.2066815491300105 L15.631058158189944 6.210791250130015 L15.627884330189943 6.2184002991300105 L15.630244356189962 6.232967357130022 L15.633987846189996 6.247127513130025 L15.634801648189978 6.261572500130015 L15.627884330189943 6.277075430129983 L15.644730033189944 6.282324453130016 L15.658890190189993 6.2743898831299845 L15.666051648189978 6.259375234130019 L15.661982638189954 6.242895742129988 L15.671585502189942 6.245499909130004 L15.678421440189993 6.2505861721300136 L15.689896049189997 6.263403555129983 L15.695267143189994 6.265682200129973 L15.699580294189957 6.264705638130025 L15.702509981189962 6.265478750130015 L15.703567924189997 6.2733319401300065 L15.70364930418998 6.279394766130011 L15.704788627189942 6.282568594130012 L15.707718315189993 6.283748607130022 L15.713821830189943 6.283829987130005 L15.739212455189943 6.289363841130026 L15.749384981189962 6.302832266130011 L15.754593315189993 6.320613841130026 L15.765579643189994 6.3384767971300136 L15.765579643189994 6.345312734130019 L15.745641492189975 6.36411156213002 L15.756220919189957 6.41098656213002 L15.77982117918998 6.462744375130015 L15.799759330189943 6.496150950129973 L15.85989930418998 6.5614992581299845 L15.885127169189957 6.599422435130023 L15.89538107518996 6.646948477129982 L15.889114799189997 6.646948477129982 L15.87161805418998 6.599341055129983 L15.864619356189962 6.5916913151300065 L15.852493705189943 6.589209219130012 L15.837845268189994 6.5829836331299845 L15.825394096189996 6.575293203130016 L15.812861544189957 6.558406810130023 L15.797073783189944 6.547094961129986 L15.782588106189962 6.5455080471300136 L15.779251518189994 6.5650392971300136 L15.786575737189992 6.578996003130001 L15.812210502189942 6.5958417061300025 L15.820267143189994 6.606014232130022 L15.825556856189962 6.595923086129986 L15.827103080189943 6.5916913151300065 L15.833939018189994 6.5916913151300065 L15.87194357518996 6.663672109130019 L15.985875867189975 6.796728750130015 L16.012161674189997 6.817684154130021 L16.00923198718999 6.8043377991300105 L16.002640190189993 6.788794180129983 L15.999873263189954 6.775854727129982 L16.00866232518996 6.7704836331299845 L16.01924175218994 6.7659670311300175 L16.023799044189957 6.768204987130005 L16.02786805418998 6.790177643130008 L16.03291362718994 6.795548737130005 L16.037796440189993 6.7984784241300105 L16.039993705189943 6.800879141130011 L16.048050346189996 6.814754466130026 L16.066605033189944 6.822648346130009 L16.100784721189996 6.8319256901300065 L16.109411023189978 6.841650625130015 L16.128779513189954 6.886572500130015 L16.121292533189944 6.89340843713002 L16.133499565189993 6.9087892971300136 L16.14700867918998 6.935278555129983 L16.158239148189978 6.964087148129991 L16.16295920018996 6.986181875130015 L16.16181987718994 6.9986330471300136 L16.156611544189957 7.020849844130012 L16.155472221189996 7.033992747129972 L16.15766948718999 7.046728750130015 L16.162308158189944 7.055761953130016 L16.166946830189943 7.062557200129973 L16.172562065189993 7.079809805129983 L16.18696636218999 7.104061107130022 L16.189489148189978 7.119360586129986 L16.18330425218994 7.160254141130011 L16.191360893189994 7.200903555129983 L16.20006857518996 7.224015534130004 L16.21064800218994 7.2359784241300105 L16.218297742189975 7.2166913151300065 L16.244176648189978 7.236141185130023 L16.271357638189954 7.267431875130015 L16.28266948718999 7.2837892971300136 L16.299515190189993 7.298885325129973 L16.319290580189943 7.364966055129983 L16.344437065189993 7.379980703130016 L16.364293835189983 7.397192617129988 L16.372920138189954 7.4354413151300065 L16.375198783189944 7.4966799221300136 L16.379349174189997 7.508276602129982 L16.387894096189996 7.5257326561300175 L16.398473523189978 7.542456289129987 L16.409215710189983 7.551896393130008 L16.424026908189944 7.55161156213002 L16.445755424189997 7.5322023831299845 Z M7.8243217261899645 15.573323712130005 L7.824190510189965 15.587455444130015 L7.82134421718996 15.605418333130004 L7.814439823189957 15.627207371130012 L7.81696834718997 15.643939562129972 L7.826082571189943 15.673587628130022 L7.816116752189998 15.69374209613001 L7.816442273189978 15.695369700129973 L7.79371957818995 15.693875207129977 L7.765858951189955 15.661495200130005 L7.743136515189974 15.653594868129986 L7.721698741189982 15.65213365113 L7.711053741189971 15.643050505129978 L7.739311781189997 15.63171398712997 L7.755516433189996 15.618996509130014 L7.7489974411899425 15.598382024130004 L7.723636919189971 15.585327062129991 L7.698125899189961 15.588974199130021 L7.668604976189954 15.591311038129973 L7.648443312189954 15.59629509012997 L7.6295772061899925 15.606432676130012 L7.613415239189976 15.61529856013 L7.593340980189964 15.608736883130021 L7.570717954189945 15.588007023130004 L7.554746565189987 15.57375267913001 L7.531970302189961 15.56845755013002 L7.505279160189957 15.550283303129973 L7.481251560189946 15.532131702129973 L7.469304153189967 15.51149833113 L7.462824239189956 15.480614540129991 L7.44544486018998 15.468931853129973 L7.4279723531899435 15.46881450512997 L7.416051648189978 15.466162344130012 L7.418655815189993 15.459529857130022 L7.417443550189944 15.437899890129998 L7.402782531189985 15.419807968130002 L7.393497423189956 15.400464698130023 L7.394968123189983 15.382479562129973 L7.409740262189985 15.386437922129986 L7.415065001189987 15.394186154130026 L7.427101741189972 15.403265640129987 L7.465967836189975 15.420243867129969 L7.487307786189945 15.443522352130017 L7.497943058189946 15.457729557130008 L7.501799796189971 15.482164552129987 L7.501175346189996 15.49370954412997 L7.519020609189965 15.513114352130017 L7.536350195189982 15.527368170130003 L7.5430262561899895 15.531270375129978 L7.579274185189945 15.527683130129972 L7.591204064189981 15.545753639130012 L7.611310774189974 15.547190504129972 L7.631482996189959 15.540921264129977 L7.648931589189999 15.539771598129974 L7.660903505189992 15.551424948129991 L7.660804021189961 15.562984628129996 L7.672873888189997 15.563078883130018 L7.702489614189972 15.550469522129973 L7.674371032189981 15.545107655129996 L7.659622612189992 15.523047109130019 L7.671748263189954 15.505021393130008 L7.679235242189975 15.47653832012999 L7.685745658189944 15.46677269512999 L7.70006857518996 15.464656810130023 L7.706416231189962 15.467098216129969 L7.714391492189975 15.470190664129987 L7.741959156189978 15.486568635129984 L7.743150226189982 15.503275363130015 L7.75637700618995 15.523935712129983 L7.75443055418998 15.534684479129979 L7.779048594189987 15.53825591813002 L7.785577822189964 15.557579235130007 L7.8243217261899645 15.573323712130005 Z M7.55677614318995 15.487697014130006 L7.542106082189946 15.47603112113002 L7.527478742189999 15.457940087130012 L7.502196593189979 15.42692503312999 L7.480913196189988 15.398505163129997 L7.472855033189944 15.387182852129982 L7.472855033189944 15.38710147113001 L7.484085502189998 15.377579987130005 L7.508255424189997 15.376196523129991 L7.525833549189997 15.37106957012999 L7.538773002189998 15.360490143130008 L7.548864148189978 15.342830638130025 L7.55911805418998 15.343644440130007 L7.560989799189997 15.343807200129973 L7.566360893189994 15.323950430129983 L7.558792533189944 15.299902578130016 L7.545364799189997 15.294043203130016 L7.531937065189993 15.288183828130016 L7.518997612189992 15.287166575129973 L7.496455294189957 15.282446523129991 L7.484085502189998 15.281388581130003 L7.481644096189996 15.276953359130019 L7.489293835189983 15.268937409130004 L7.498733940189993 15.265234609130019 L7.501175346189996 15.273901602129982 L7.533564669189957 15.276953359130019 L7.559036674189997 15.286841055129983 L7.576045138189954 15.30596540413002 L7.576940320189976 15.310034414129987 L7.583043835189983 15.336564362130005 L7.583350998189985 15.355579710129987 L7.577802780189984 15.377378672129979 L7.581685093189947 15.395393259130017 L7.61384651218998 15.403346990130004 L7.623064252189977 15.42525557513001 L7.581985893189994 15.425838450129973 L7.570185763189954 15.440486888130025 L7.576045138189954 15.457495352129982 L7.600540580189943 15.465714753130001 L7.614456596189996 15.473852773129991 L7.633325153189958 15.481850328130022 L7.639841949189986 15.506295495129976 L7.639728258189962 15.517864393129983 L7.610353108189997 15.500942048129971 L7.574206169189949 15.49039608612999 L7.55677614318995 15.487697014130006 Z M15.203323783189944 4.927099844130012 L15.223017794189957 4.9345461331299845 L15.276321830189943 4.9482180081299845 L15.32669617918998 4.961157461129986 L15.308304252189942 4.967423737130005 L15.293004773189978 4.964249909130004 L15.278274955189943 4.95786156213002 L15.261673393189994 4.954402904130021 L15.245153210189983 4.956396719130012 L15.229690971189996 4.962052643130008 L15.215530815189993 4.970556875130015 L15.203323783189944 4.9810549221300136 L15.195348523189978 4.973364492129988 L15.194290580189943 4.974015534130004 L15.189651908189944 4.974829336129986 L15.181513888189954 4.96958031213002 L15.176142794189957 4.967423737130005 L15.175980033189944 4.9673830471300136 L15.175980033189944 4.961157461129986 L15.189326388189954 4.9560305081299845 L15.19193055418998 4.950578034130004 L15.187698783189944 4.944393138130025 L15.183385632189982 4.940527578130016 L15.179398002189998 4.936987539129987 L15.169144096189996 4.932674388130025 L15.158157768189994 4.934220612130005 L15.147496960189983 4.937964102129982 L15.138138237189992 4.940079987130005 L15.125442924189997 4.944718659130004 L15.112828992189975 4.956518789129987 L15.101761283189944 4.97222516912997 L15.094111544189957 4.988501211129986 L15.091507377189998 4.96245954412997 L15.110062065189993 4.936824779130021 L15.139114799189997 4.9183107811300175 L15.169144096189996 4.913387279130021 L15.180374565189993 4.915136953130016 L15.188919487189992 4.91879906213002 L15.203323783189944 4.927099844130012 Z M2.664749565189993 6.859228750130015 L2.6752476121899917 6.867041250130015 L2.6802118041899803 6.871476471130009 L2.677933158189944 6.872412344130012 L2.6735386271899984 6.87066266912997 L2.6659702681899944 6.869523346130009 L2.665075085189983 6.873673737130005 L2.6691440961899957 6.880102773129991 L2.661168835189983 6.879004141130011 L2.6414748251899596 6.8673260811300025 L2.6364292521899984 6.8564211331299845 L2.6381382371899917 6.849666575129973 L2.628453992189975 6.848730703130016 L2.6161655801899997 6.8519045311300175 L2.6093296431899944 6.843563060130023 L2.6044468301899997 6.829891185130023 L2.5954136271899984 6.829891185130023 L2.584427299189997 6.836971263130025 L2.582230033189944 6.83005394512999 L2.5897170131899543 6.811336497129972 L2.5993198771899984 6.801082591130026 L2.611526908189944 6.801001211129986 L2.625361544189957 6.802832266130011 L2.637161674189997 6.80942406213002 L2.646845919189957 6.828996003130001 L2.6532749551899997 6.8282635811300025 L2.6554722211899957 6.82114281213002 L2.6596226121899917 6.8260663151300065 L2.664749565189993 6.859228750130015 Z M2.5800327681899944 6.860490143130008 L2.5962274291899803 6.859839102129982 L2.5993198771899984 6.864355703130016 L2.5810093301899997 6.873348216130026 L2.573278210189983 6.87888207012999 L2.562698783189944 6.889746328130016 L2.5526890181899944 6.907934805129983 L2.5376336791899803 6.917822500130015 L2.5165562051899997 6.90512718713002 L2.497594617189975 6.885962148129991 L2.4793654501899596 6.872900625130015 L2.4391636271899984 6.83396019512999 L2.436559460189983 6.831437409130004 L2.432978731189962 6.825578034130004 L2.432978731189962 6.821875234130019 L2.434931856189962 6.82224144512999 L2.4369663621899917 6.820166250130015 L2.435094617189975 6.8143475651300065 L2.4254917521899984 6.804419180129983 L2.4140171431899944 6.789689362130005 L2.414424044189957 6.782446523129991 L2.4250034711899957 6.784765859130019 L2.4347690961899957 6.792293529130021 L2.4530796431899944 6.812964102129982 L2.461624565189993 6.818986237130005 L2.4799351121899917 6.82810082012999 L2.515009981189962 6.841894766130011 L2.5317743041899803 6.845923086129986 L2.544306856189962 6.84722516912997 L2.5535842001899596 6.8521486721300136 L2.558141492189975 6.8592694401300065 L2.537308158189944 6.860001862130005 L2.534215710189983 6.872900625130015 L2.5421909711899957 6.88474144512999 L2.5541538621899917 6.881974518130008 L2.5663608931899944 6.8697267971300136 L2.5800327681899944 6.860490143130008 Z M2.4872593301899997 6.745825430129983 L2.4777378461899957 6.74301781213002 L2.4648797731899776 6.731665273129991 L2.4668328981899776 6.717505117129988 L2.479202690189993 6.708838125130015 L2.493525606189962 6.710547109130019 L2.5044305541899803 6.721329987130005 L2.5039422731899776 6.732967357130022 L2.4933628461899957 6.74216332012999 L2.4872593301899997 6.745825430129983 Z M2.428095919189957 6.780981680129983 L2.4184930541899803 6.774471263130025 L2.4137730021899984 6.7733319401300065 L2.409215710189983 6.771785716130026 L2.403844617189975 6.7646242581299845 L2.4032749551899997 6.754614492129988 L2.3944045131899543 6.7518475651300065 L2.380407117189975 6.7496502991300105 L2.3778029501899596 6.746150950129973 L2.381871960189983 6.747412344130012 L2.3808140181899944 6.742977122129972 L2.3722690961899957 6.732234935130023 L2.3571323771899984 6.723201732130022 L2.339228731189962 6.72417829412997 L2.331090710189983 6.7286542061300025 L2.3266961791899803 6.732479075129973 L2.319046440189993 6.7347170311300175 L2.3192905801899997 6.725398997129972 L2.329137585189983 6.711645742129988 L2.3446812051899997 6.7076174221300136 L2.363480033189944 6.713680247129972 L2.4129592001899596 6.743465404130021 L2.4184930541899803 6.751115143130008 L2.4237013881899543 6.762833893130008 L2.4389194871899917 6.771216055129983 L2.4545444871899917 6.776465078130016 L2.476924044189957 6.788916250130015 L2.512405815189993 6.815527578130016 L2.5211948771899984 6.824520091130026 L2.519730033189944 6.82810082012999 L2.515823783189944 6.831152578130016 L2.5170444871899917 6.83550641912997 L2.5116733931899944 6.832902253130001 L2.496292533189944 6.821997305129983 L2.4829461791899803 6.81442894512999 L2.4726922731899776 6.812109609130019 L2.4686232631899543 6.805761953130016 L2.463333549189997 6.794734935130023 L2.4540562051899997 6.79058454412997 L2.447627169189957 6.793066641130011 L2.438512585189983 6.790381094130012 L2.428095919189957 6.780981680129983 Z M2.538610242189975 6.729549388130025 L2.537308158189944 6.7010663151300065 L2.5360060751899596 6.694800039129987 L2.5360874551899997 6.683406810130023 L2.542516492189975 6.6756756901300065 L2.552282117189975 6.6722170311300175 L2.560908419189957 6.676001211129986 L2.5656284711899957 6.685766836129986 L2.5662795131899543 6.695044180129983 L2.5636753461899957 6.702287018130008 L2.559036674189997 6.702612539129987 L2.552933158189944 6.698299388130025 L2.551793835189983 6.70004906213002 L2.5543980021899984 6.707413971130009 L2.553746960189983 6.7108319401300065 L2.551468315189993 6.709692617129988 L2.5583042521899984 6.723730703130016 L2.565465710189983 6.7503420311300175 L2.5610711791899803 6.7594159241300105 L2.549840710189983 6.743872305129983 L2.543330294189957 6.739721914129987 L2.538610242189975 6.729549388130025 Z M2.320999565189993 6.706518789129987 L2.319860242189975 6.712500234130019 L2.3139194871899917 6.724096914129987 L2.3055373251899596 6.7291017971300136 L2.2988641481899776 6.726050039129987 L2.2856805541899803 6.7173830471300136 L2.2056024291899803 6.680395742129988 L2.183955294189957 6.675635000130015 L2.177282117189975 6.689673086129986 L2.167353731189962 6.685034414129987 L2.1483921431899944 6.668432852129982 L2.1356154501899596 6.6548830471300136 L2.129349174189997 6.6337648831299845 L2.1375685751899596 6.616308828130016 L2.162308158189944 6.593074779130021 L2.173213106189962 6.580704987130005 L2.1815138881899543 6.575984935130023 L2.183141492189975 6.5823732811300175 L2.177282117189975 6.5938885811300025 L2.160517794189957 6.616675039129987 L2.1618198771899984 6.6259523831299845 L2.1688999551899997 6.634253164129987 L2.1758172731899776 6.6390139061300175 L2.181839408189944 6.639217357130022 L2.1867222211899957 6.641007721130009 L2.191849174189997 6.647518138130025 L2.199905815189993 6.651668529130021 L2.2082065961899957 6.654394766130011 L2.2340855021899984 6.678605378130001 L2.2472690961899957 6.687313060130023 L2.260778210189983 6.68833031213002 L2.2689976121899917 6.686417878130001 L2.271683158189944 6.688859284130004 L2.2724155801899997 6.695939362130005 L2.275833549189997 6.704240143130008 L2.2850295131899543 6.707902253130001 L2.2938185751899596 6.70700707012999 L2.295283419189957 6.706274648129991 L2.292028210189983 6.705135325129973 L2.2926792521899984 6.700781484130019 L2.297317924189997 6.696753164129987 L2.3056187051899997 6.6978517971300136 L2.320999565189993 6.706518789129987 Z M2.1821649291899803 6.547501862130005 L2.1806187051899997 6.539526602129982 L2.177933158189944 6.518367747129972 L2.180374565189993 6.4769045311300175 L2.196325085189983 6.442480703130016 L2.2215529501899596 6.420955638130025 L2.228714408189944 6.4183107811300175 L2.2153680541899803 6.4302736721300136 L2.204463106189962 6.445857982130022 L2.1962437051899997 6.4630292061300025 L2.1933140181899944 6.482519766130011 L2.2020217001899596 6.500057200129973 L2.221146049189997 6.5165773831299845 L2.228714408189944 6.51950707012999 L2.235713106189962 6.5204836331299845 L2.2352248251899596 6.527156810130023 L2.2265985231899776 6.540340404130021 L2.223343315189993 6.553361237130005 L2.2245640181899944 6.559057852129982 L2.2262730021899984 6.5645917061300025 L2.233922742189975 6.5699627991300105 L2.245478731189962 6.567602773129991 L2.2489780801899997 6.569393138130025 L2.243525606189962 6.577734609130019 L2.233434460189983 6.582251211129986 L2.220901908189944 6.580176016130011 L2.2008823771899984 6.565568268130008 L2.189651908189944 6.559057852129982 L2.1821649291899803 6.547501862130005 Z" fill="black" stroke="black" stroke-width="0.5" vector-effect="non-scaling-stroke"/></svg>