<svg xmlns="http://www.w3.org/2000/svg" viewBox="0 0 6.281429865479986 4.47349438517996"><path d="M5.333493052740035 1.960304118090015 L5.341115326740034 1.9894496260900283 L5.3610107527400395 2.0067870690899454 L5.367134410740075 2.0206880300899357 L5.374808360739987 2.0319534920899898 L5.389975392740009 2.038645590090006 L5.406201792740003 2.041797852089964 L5.4173122267400196 2.0424179690899322 L5.4117828477400245 2.0544327390899966 L5.4073386747400285 2.0615899260900292 L5.405426646740008 2.0683595380899717 L5.407803762740027 2.0792891030899554 L5.414831757740043 2.084999350089994 L5.425012014740016 2.0873247890899407 L5.432608449739998 2.093370932089975 L5.431678274740019 2.110062419089921 L5.426097219740026 2.1188215750899886 L5.406615203740014 2.1372442230899864 L5.399225474740003 2.1476828610900256 L5.397158417740055 2.1578889570900017 L5.396176565740088 2.170058757090011 L5.393437714740028 2.1809883230899842 L5.386151336740053 2.187267009089986 L5.367237763740032 2.198558309089954 L5.361191620740069 2.2157924000899456 L5.3634395447400856 2.236669678090003 L5.375195933739999 2.280310425089972 L5.377753917740076 2.300645101089991 L5.3758935657400535 2.344001628089977 L5.38878683574006 2.346482097089954 L5.482011118740015 2.38012345408999 L5.488935760740073 2.3932234300899538 L5.484594940740006 2.405651612089933 L5.469815480740007 2.410948446089968 L5.478032033740018 2.4246685390899856 L5.487643849740035 2.437096721089965 L5.499839488739948 2.447173625089995 L5.539268606740048 2.461152100089997 L5.553324595739976 2.47032466708999 L5.56314311874004 2.4849749360899764 L5.6000400907400625 2.569078329089926 L5.602210500740053 2.5912216800899515 L5.5948724477400695 2.631787680089964 L5.57239319973996 2.708501343089914 L5.572289846740031 2.7499975180899767 L5.582315074740048 2.7759390880899346 L5.598593150740069 2.7916745610899127 L5.6172483427400515 2.8056013590899838 L5.634714975740078 2.8260910650899618 L5.6408127947400395 2.844901287089975 L5.640657766740016 2.8652359630899937 L5.634714975740078 2.90577612309 L5.618798634739985 2.950424561089939 L5.585312306740061 2.984065918089975 L5.499994517740074 3.030833090089992 L5.513740448740034 3.0422794190900007 L5.527227996740006 3.0619939780899514 L5.547795216740067 3.100880494089928 L5.560300914739994 3.1369764820899277 L5.582470103740004 3.1707987070900074 L5.600815236740086 3.191081706089939 L5.6585894877399845 3.2322936610899333 L5.664894012740003 3.239192464090003 L5.673782359740013 3.2541011160899487 L5.679466767740049 3.260534831089906 L5.689905405740003 3.2655991220899736 L5.699155487739997 3.2667360030899815 L5.707217010740006 3.2700949710899962 L5.714141652739979 3.28169633008995 L5.7119712427400735 3.2994730230899805 L5.697656871740005 3.353061483089938 L5.700033987740053 3.364068563089937 L5.7088189807400305 3.3663681640899554 L5.735277313740024 3.3791580810900186 L5.743028778740037 3.384687459090024 L5.74685283474005 3.392103028089956 L5.753054006740054 3.4114041750899915 L5.757601532739979 3.4183546560899813 L5.769487111740002 3.4279664720899845 L5.775068166740024 3.42853491309004 L5.780545867740013 3.422902181089917 L5.822507131740021 3.391896322089984 L5.825090952740023 3.3725693370900345 L5.831033742740029 3.352079631089971 L5.841110647740063 3.3354398200899524 L5.856406870740042 3.32742997308997 L5.870721242740014 3.3294453530899304 L5.877852590740044 3.3373518480899733 L5.883588674740022 3.34714453209002 L5.893613902740039 3.3548701580899305 L5.903122365740014 3.356058717089958 L5.922656056740035 3.352027954089955 L5.94782247973998 3.351123617089918 L5.952370005740018 3.355490276090002 L5.951026418740039 3.369727133089974 L5.953661916740057 3.379649008089963 L5.964720672740068 3.3808634030899967 L5.977278045740061 3.3777111410900247 L5.984512746740048 3.3744296880900393 L5.984616099740062 3.3961854660899533 L5.991799123740005 3.4155899660899323 L6.01644878274001 3.4491021330899443 L6.039083058740058 3.468739177089965 L6.043372202740041 3.4783768320899853 L6.041821909740005 3.489332235089968 L6.02905783174003 3.5073414710899655 L6.0252854517400145 3.5181418460899962 L6.028282684740017 3.5360477290899652 L6.037894501740052 3.5483208830899926 L6.049780080740074 3.5590437420899192 L6.05908183874001 3.572272909089996 L6.059546925740019 3.607232016090002 L6.064559540740074 3.623432577089993 L6.082232880740005 3.627489177089906 L6.096082163740046 3.6356540530900148 L6.107916066739985 3.6444648850900094 L6.12052511674008 3.651957967089949 L6.136803192740015 3.6560662440899634 L6.147345185740075 3.660148682089975 L6.146208303739964 3.667176676089987 L6.140678925739987 3.6747989510899615 L6.138663543740019 3.6805608730899237 L6.152461151740052 3.700017050090004 L6.158093882740015 3.712238526090026 L6.161969614740055 3.7185172120899423 L6.165948700740042 3.721772827090014 L6.174630340740006 3.725829428090016 L6.173080048739987 3.7300410560899664 L6.16749899374005 3.7342526860900094 L6.164191702740052 3.738283447090005 L6.1640883487400195 3.7468875730899427 L6.161659556740059 3.766395427090039 L6.158920705740027 3.7763431400899563 L6.174526987739963 3.779237020089944 L6.186102509740007 3.774534465089964 L6.193388885740003 3.7631398120899675 L6.195817678740038 3.745750692089935 L6.2041892607400335 3.754432333089987 L6.208788462739985 3.7646901050899757 L6.21106222573999 3.776136435089988 L6.213180959740068 3.802129680089955 L6.2098219917400534 3.8081241460899875 L6.20341411474001 3.811922364090016 L6.194732472740039 3.818847006089989 L6.190339976740059 3.818950359089932 L6.184035451740041 3.8155397140900007 L6.176955780740027 3.813214275089969 L6.170392873740038 3.816624919089996 L6.169669403740041 3.822748576089957 L6.174526987739963 3.828174601089934 L6.180314748740042 3.833290568090014 L6.1824851587400325 3.838587403089967 L6.178299367740006 3.8487418210899236 L6.172718312739985 3.859077108090027 L6.168997609739957 3.8694382330899444 L6.172149872740018 3.885690470089962 L6.17059957974001 3.890005453090019 L6.16760234573999 3.894191244089974 L6.1651218777400025 3.8997206220899656 L6.165535289740031 3.9058959560899567 L6.169462697739984 3.9082213950899742 L6.174165252739979 3.9088415130899463 L6.176645721740041 3.909668335089968 L6.177937632740079 3.9105726730899235 L6.181606658740005 3.915171876089964 L6.1859474797400615 3.9223548990899317 L6.189151418740035 3.9307523200900008 L6.191270152740028 3.9409584150899732 L6.1922003287400535 3.952895671090012 L6.190029917740073 3.963773560089969 L6.183053599740074 3.971034098090037 L6.183053599740074 3.9755299490899674 L6.193595591740031 3.994030111089991 L6.195455943740054 4.0035127360899665 L6.187291066740041 4.016431845089976 L6.173441783740056 4.018860636089947 L6.160264292740006 4.022994752089964 L6.149670624740022 4.049298055090013 L6.1418674827400785 4.054620728089965 L6.135717987740033 4.0621138110899935 L6.136648163740059 4.076841593089988 L6.140472218740026 4.079270386089952 L6.148068654739969 4.082060913090011 L6.155871795740008 4.087486939089992 L6.160781057740021 4.097770549089979 L6.160987762740003 4.108157511090006 L6.155820119740067 4.139731812089984 L6.156698619740009 4.15037715708997 L6.159024058740041 4.157250122089941 L6.160264292740006 4.16448482309 L6.157783823740029 4.175956991090025 L6.137009898739986 4.185413778089988 L6.129826874740015 4.191718303090006 L6.140937306740025 4.195490683089936 L6.148172007740012 4.200038209089975 L6.159747528740038 4.219881958089964 L6.167809052740036 4.226909953089965 L6.16724061174008 4.219520223089965 L6.172873342740015 4.208874878089965 L6.18062480674001 4.205929321089975 L6.1867743027399875 4.221897339089999 L6.1889447137400815 4.230320598089996 L6.195249237739997 4.246702027089945 L6.197109588740002 4.255693726089994 L6.205016082740055 4.243394735089957 L6.207186493740036 4.2377103270900065 L6.219847219739986 4.25502193208991 L6.217831838740036 4.278379680089962 L6.21106222573999 4.304786337089929 L6.209201873739996 4.3313480230899515 L6.181606658740005 4.330262818089956 L6.115977590740041 4.307008423090032 L6.082232880740005 4.303597778090001 L5.996088267740074 4.3100056570899525 L5.954540415740009 4.317602092090006 L5.877594208740074 4.345765747089963 L5.839818736740025 4.351915243090026 L5.758014944740008 4.3485562750900115 L5.737447724740004 4.3441637780899285 L5.676986297739997 4.319204061089955 L5.675642710740018 4.3175504150899044 L5.673679006739999 4.316465211089998 L5.666754364739997 4.316516887089925 L5.662413543740026 4.318222209089974 L5.651354787740015 4.325818645089946 L5.613320933740081 4.34623083508999 L5.6000400907400625 4.348866333090008 L5.578749400740005 4.346799276089946 L5.518443003740085 4.327110555089995 L5.493638315740068 4.327885702090008 L5.475706594739986 4.336515666089959 L5.442582001740075 4.366229614090024 L5.4055816757400486 4.3864867760899315 L5.236703094740047 4.42963659708996 L5.220502533740042 4.421575074089965 L5.192106333740039 4.378786987090031 L5.174226288740069 4.366126261089995 L5.130869761739998 4.3507783610899295 L5.10986329174008 4.345765747089963 L5.092551687739981 4.344990601089954 L5.0757051707400045 4.348349569089969 L5.056171478739994 4.355790976089985 L5.026974294740054 4.371552287089976 L5.019493741740003 4.373714806090014 L5.018215138740086 4.3740844320899654 L5.003952443740015 4.3736710210899545 L5.0003092557400315 4.3697952890899 L4.999559946740018 4.362818970089997 L4.99421143674007 4.353310507090008 L4.966073618740008 4.32256303008996 L4.949614675739948 4.309488892090009 L4.93010682274004 4.3015823980899555 L4.909565439740074 4.299256959089938 L4.844969900740008 4.302822632089992 L4.824351003740016 4.300187135089978 L4.818459889740009 4.291970581089949 L4.814144907740026 4.282152059089974 L4.798202728740019 4.274607300090018 L4.768566295739955 4.272488567089958 L4.75900615474006 4.268871217089973 L4.748490000740016 4.259414429089993 L4.746371267740013 4.250887818089986 L4.747973236740048 4.244169881089967 L4.748412486740076 4.2402424730899 L4.723581960740031 4.2188484300899844 L4.684488739740001 4.198901327089963 L4.648134369740031 4.199314738089974 L4.631391205740069 4.23915726808999 L4.62810975174008 4.258432577090026 L4.61658590774007 4.268251099090001 L4.600204478740007 4.269387980089924 L4.582376109740064 4.262566691089965 L4.56299744674001 4.264685425089944 L4.545634166740083 4.262980103089966 L4.530880544740082 4.255125285090024 L4.5193566997400545 4.2390022380899595 L4.514912527740048 4.219571900089981 L4.518529877740033 4.203087118089989 L4.533412689740057 4.1690840250899655 L4.537210907739986 4.15187577408998 L4.538296112740081 4.131773641090014 L4.533981130740013 4.112963420089919 L4.521165374740033 4.099320842090002 L4.505920827740081 4.0970470790899824 L4.488635061740009 4.099837606089942 L4.470315765740022 4.100406047089997 L4.452306528740021 4.09131099408993 L4.4429272567400595 4.102421428089947 L4.4349949237400175 4.097098755089995 L4.428406179740019 4.096478638090026 L4.421352345740015 4.097512167090009 L4.412412323740082 4.097460490089993 L4.399751597740046 4.101181193090007 L4.395720835739947 4.101852987089991 L4.391173309740022 4.099579224089972 L4.381613169740032 4.089502319090023 L4.376083791740026 4.086866822089924 L4.3685390317400525 4.087435263089979 L4.351615000739965 4.092086142089947 L4.342933360740002 4.093429729089998 L4.33422588174005 4.092034465089931 L4.3219010527399995 4.084179648089993 L4.313477793740017 4.081905885089974 L4.3046928007400105 4.082526001090038 L4.274746307739999 4.088727173089929 L4.269914561740077 4.090329143089967 L4.267589121740027 4.093171346090024 L4.264850271739984 4.095600138089985 L4.259010833740003 4.0960135500899995 L4.254179087740081 4.0942565510900195 L4.245574961740058 4.088262085090001 L4.240975759740021 4.08635005708998 L4.23782207474002 4.0855065900899135 L4.192865000740024 4.073482626089977 L3.8693446967400256 4.06185542809002 L3.5148702087400316 4.06040848908993 L3.2545158167399926 4.059345973089954 L3.1603182077400014 4.058961549089936 L2.805895396739995 4.057462932090026 L2.725463776739982 4.057134640089949 L2.451395070740059 4.056015992089947 L2.402509165739982 4.055809285089985 L2.3738287457399814 4.060046753089942 L2.3478871777400308 4.071622275089972 L2.289802866740043 4.112550009089993 L2.2289797067400308 4.139886841090025 L2.1758926827399954 4.178121262089952 L2.1730141307400253 4.180194458089979 L1.9205747587400275 4.295949667090021 L1.8861065787400797 4.303029338089949 L1.7136592737400314 4.293060721089994 L1.7037404487400316 4.292487346089992 L1.6243654487400612 4.298016724089983 L1.605141815740037 4.294554403089954 L1.5426133327400429 4.274038859089977 L1.5071116237400837 4.270938273090032 L1.4315606797399845 4.283805706090028 L1.424791067740042 4.2866995850900125 L1.4204502467400424 4.290006877090015 L1.4157476917399912 4.29186722809002 L1.4075311387400369 4.290471965089942 L1.3859303897400785 4.282100383089961 L1.3752333687400515 4.280188355089955 L1.3647430527400068 4.2823587650899455 L1.2957033397400401 4.31904903209 L1.2156048687400833 4.361423707089919 L1.1853224797399626 4.373515992089914 L1.1349379587399788 4.3739294030899245 L1.0827447617400843 4.386693481089985 L1.0642962757400731 4.3874169520899855 L0.9287489937400402 4.378528606089965 L0.8920070507400588 4.3872102460899285 L0.8691866878254437 4.402712347999547 L0.8626080357400063 4.390082962089998 L0.8578879837400244 4.376858678090009 L0.8534934527400218 4.356391555090006 L0.8471457967400191 4.349596308089993 L0.8321311477399966 4.3392610210899605 L0.8091412387400077 4.317288365089958 L0.798887332740005 4.3043489120899565 L0.7946555617400257 4.291450149090004 L0.7946555617400257 4.249824173089969 L0.7968528277400218 4.2407909690899785 L0.806699832740005 4.232001907089973 L0.8089377887399927 4.222846633090008 L0.81626200773999 4.2123078960899605 L0.8659446247400204 4.183173782089973 L0.8877545207399997 4.182441360089975 L0.9188010697399953 4.185004837089998 L0.9522483357399913 4.164497024090004 L0.962949832740005 4.15574865208999 L0.9686464477399817 4.147610631090011 L0.9730002887399927 4.1392284690899785 L0.9795920857399913 4.129788365089958 L1.017881473740001 4.102444615089958 L1.036273400739983 4.123440709090012 L1.0504335567399856 4.161363886089994 L1.06430888273999 4.169908808089993 L1.0649192337400244 4.154365188089976 L1.075173139740027 4.142158157089973 L1.0928733357399913 4.137193964089995 L1.112526655740023 4.141507115089958 L1.1460553017400024 4.160224563089976 L1.1761659787399843 4.168362584090012 L1.209287723740001 4.183662063089976 L1.2266623977399966 4.185004837089998 L1.2463157187400178 4.175727493090001 L1.2703635697399953 4.146552688089976 L1.288063764740027 4.137193964089995 L1.3113385047400037 4.13817052708999 L1.3311545857399913 4.14520991509 L1.350929975739998 4.147285110089975 L1.3737571247400204 4.13349116509 L1.3853944947399803 4.128893183089993 L1.3931663037399993 4.137641555090006 L1.3990256787399993 4.150336868090001 L1.4047629837400244 4.157661087089998 L1.4826438437400178 4.129137324089989 L1.5005474887400077 4.124986933089993 L1.5245139607399913 4.123522089089995 L1.540016889740027 4.119046178090009 L1.5529563437400178 4.109768834090012 L1.567848921740019 4.102281855089991 L1.5897401977399817 4.103095657089973 L1.60727763273999 4.112373001089971 L1.633766889740027 4.133002883090008 L1.649636030740023 4.145413365089958 L1.658018191740009 4.154609329089972 L1.6696555617400257 4.156643834090012 L1.733742475739998 4.157661087089998 L1.7398866817399856 4.162055618090001 L1.752826134739987 4.175361282089973 L1.757627566740009 4.178168899090004 L1.7664573197399953 4.176988886089994 L1.7920920857399913 4.170722610089975 L1.8035666947399953 4.163764602090005 L1.8146750937400178 4.150581008090008 L1.8288352497400204 4.142646438089976 L1.8497499627399883 4.151516881090011 L1.8552024367400257 4.146918899090004 L1.8615500937400178 4.143867141089977 L1.8680198197399953 4.143745071090002 L1.8816916947399953 4.153470006090011 L1.8875103797400037 4.152493443089959 L1.892637332740005 4.1500520370899565 L1.8981711867400257 4.151516881090011 L1.9059836867400257 4.160346633090008 L1.9126975537399993 4.177314407089973 L1.9180686477399966 4.185004837089998 L1.9245383747400204 4.1908235210899605 L1.931699832740005 4.195055292089997 L1.9407330357400063 4.197659459090012 L1.9528586867400257 4.197984980089991 L1.964211225739998 4.195706334090012 L2.0099062127399883 4.17723302708999 L2.028216759739987 4.158922480089991 L2.0589377887399927 4.11981929009 L2.070371707740005 4.111518508090008 L2.0805442337400244 4.106391555090006 L2.0877870727399817 4.099433548089969 L2.0905539997400204 4.085680292089997 L2.0848166947399953 4.07957677708999 L2.0738710567399856 4.07489741509 L2.0677675407399896 4.069485631090011 L2.0763124627399883 4.061469680090006 L2.0665468377399883 4.038805292089997 L2.0574322547400037 4.0083690940899785 L2.054177046740019 3.977200475090008 L2.062721968740018 3.9522167510899706 L2.074277957740005 3.945380813089976 L2.0886008747400204 3.9448925320899733 L2.1036155227399966 3.946194615089958 L2.1172873977399966 3.9447704620899984 L2.1312034137399927 3.9387890160899772 L2.140684207740005 3.931586868090001 L2.1469504837400244 3.9224315940899785 L2.1514670857399913 3.9106314640899953 L2.1720155877399883 3.9302440940899785 L2.1908144157399896 3.9355338080899926 L2.2035911087400244 3.9249950710900023 L2.206032514740027 3.8970409690899785 L2.190570275739983 3.9129101100899746 L2.175840457740005 3.912421829089972 L2.1607444287399993 3.905952102090005 L2.144590457740005 3.90379552708999 L2.1294944287399993 3.9103466330900076 L2.104836225739998 3.928128209090012 L2.086891889740027 3.931790318089959 L2.0767600537399993 3.9318310080900076 L2.061745405740023 3.933906204089972 L2.0481549107400063 3.94090490208999 L2.042214155740023 3.9556347190899785 L2.042214155740023 4.013658808089993 L2.0535260047400037 4.051175084090012 L2.0552756787399993 4.061469680090006 L2.055886030740023 4.0777864120899565 L2.0551536087400244 4.085843053090009 L2.0521425407399896 4.092516230089991 L2.0279319287399993 4.112983352090005 L2.0202414997400204 4.122748977090005 L1.969867150739983 4.1676301620899565 L1.9566021767400024 4.175768183089993 L1.9447206657399896 4.1763378440899785 L1.9343039997400204 4.171780553090009 L1.9255149367400257 4.164497024090004 L1.9312115517400024 4.134589798089969 L1.9008567337400244 4.121080683089993 L1.82993388273999 4.109850214089995 L1.7817974887400077 4.139879511089994 L1.7641379837400244 4.143989212089998 L1.760720014740027 4.140815383090008 L1.7563254837400244 4.133775995089998 L1.7491233357399913 4.126695917089997 L1.7371604447399953 4.123522089089995 L1.7249534137399927 4.12567866509 L1.7080670207399997 4.135078079089972 L1.6959006787399993 4.137193964089995 L1.6843039997400204 4.134020136089994 L1.6692486607400063 4.1263703960899605 L1.644346316740009 4.109850214089995 L1.6431663037399993 4.104926712089998 L1.6444276977399817 4.097846633090008 L1.6449159787399843 4.091498977090005 L1.6411724887400077 4.088813430090006 L1.627907514740027 4.087063756090011 L1.62094950773999 4.085029251089971 L1.616432905740023 4.0825878440899785 L1.6101666297400037 4.074287063089976 L1.5965354447399953 4.047797805090006 L1.5928733357399913 4.04442052708999 L1.5882753537399843 4.042548782089973 L1.5844504837400244 4.039049433089993 L1.5806663037399993 4.017727818089959 L1.5754986607400063 4.006253209090012 L1.569313764740027 4.006253209090012 L1.569313764740027 4.013658808089993 L1.567848921740019 4.017768508090008 L1.5571067337400244 4.038276321090002 L1.5524680617400257 4.044746048089969 L1.5487245727399817 4.078844355089991 L1.5208111607400063 4.0962597190899785 L1.4798769157399896 4.103095657089973 L1.4692974887400077 4.107571568089959 L1.448708296740019 4.120795852090005 L1.442604780740023 4.123522089089995 L1.4320253537399843 4.122382766089977 L1.407814741739994 4.116116490089958 L1.370013634739987 4.116116490089958 L1.3587831657399896 4.118720657089973 L1.33969950773999 4.127021438089976 L1.328998009739987 4.129788365089958 L1.3169537387400077 4.129788365089958 L1.284645796740019 4.123522089089995 L1.2737815387399927 4.12567866509 L1.2598655227399966 4.135078079089972 L1.2508323197399953 4.137193964089995 L1.247414350739998 4.141914016089977 L1.242490848740001 4.152656204089972 L1.2356549107400063 4.164008743090001 L1.2266623977399966 4.170722610089975 L1.1856467727399966 4.157661087089998 L1.1524436477399966 4.139106399090004 L1.1369407187400178 4.1263703960899605 L1.1304303017400024 4.112983352090005 L1.126442671740019 4.110664016089977 L1.1172873977399966 4.107856399090004 L1.1080507447399803 4.103421178090009 L1.103127241739994 4.0962597190899785 L1.1047955357400063 4.086331334090012 L1.111143191740009 4.077460891089977 L1.120339155740023 4.071113235089975 L1.1304303017400024 4.0689159690899785 L1.1304303017400024 4.061469680090006 L1.115049441740009 4.0611034690899785 L1.10532450773999 4.053535110089975 L1.0997092727399966 4.041409459090012 L1.0962913037399993 4.027330683089993 L1.089455366739994 4.109850214089995 L1.0819276977399817 4.109850214089995 L1.0687034137399927 4.09247554009 L1.0319602497400204 4.061347610089975 L1.027402957740005 4.041653600090008 L1.015684207740005 4.050849563089976 L1.0079530877399883 4.061957962089998 L0.9988385047400037 4.071235305090006 L0.9830100537399993 4.075141555090006 L0.9710471637399927 4.072700149090004 L0.962949832740005 4.065864212089998 L0.9589622027400218 4.0552440940899785 L0.9596946247400204 4.041653600090008 L0.9738547807400231 4.015530553090009 L0.9937929317399856 3.9959179230899693 L1.0068951457399997 3.9732128440899785 L1.0007102497400204 3.9379345240900037 L0.9962343377399883 3.9650341330900076 L0.9938743117400257 3.972724563089976 L0.9885032187400178 3.9815136260899706 L0.9838645467400191 3.98582677708999 L0.9791038037399993 3.9887157740900037 L0.9592063437400178 4.006741490089958 L0.9507428017400024 4.017036087089998 L0.9465924107400063 4.02997554009 L0.945371707740005 4.051215774090004 L0.9525331657399896 4.086656855089991 L0.9504172807400231 4.10301427708999 L0.9203066037399843 4.115668899090004 L0.876564741739994 4.151516881090011 L0.8429954057400231 4.163032180090006 L0.824522098740001 4.152289993090001 L0.8167502887399927 4.126411087089998 L0.8150819947399803 4.092516230089991 L0.8205344687400178 4.0571972190899785 L0.8364036087400244 4.0220409690899785 L0.8621604447399953 4.002346959090012 L0.8970725537399993 4.013658808089993 L0.8986594687400178 3.9988476100899746 L0.884377241739994 3.9879426620899565 L0.8636659787399843 3.98387365208999 L0.8460878537399843 3.9898144070899733 L0.8254986607400063 4.014594680090006 L0.814064741739994 4.022651321090002 L0.8014101197399803 4.019925084090012 L0.8073508747400204 4.011787063089976 L0.8093853797400037 4.003160761089994 L0.8073508747400204 3.9946972190899785 L0.8014101197399803 3.986396438089976 L0.8231386347399869 3.9566926620899565 L0.827492475739998 3.9418814640899953 L0.822568973740001 3.9243033390899953 L0.8150819947399803 3.9243033390899953 L0.81040263273999 3.9353710480899693 L0.8035666947399953 3.9402538600899746 L0.7973411087400244 3.936428990089958 L0.7946555617400257 3.9212108910899772 L0.7970969687400178 3.9092480010899706 L0.8030784137399927 3.8964713080899926 L0.8387636347399869 3.8444693550899913 L0.8423850537399993 3.8317740420899966 L0.8413678017400024 3.818997350090008 L0.8366477497400204 3.795559850090008 L0.835549116739994 3.784085240089958 L0.8377870727399817 3.76317052708999 L0.8476340777400218 3.7216259300900063 L0.8498313437400178 3.6949739120899565 L0.8482851197399803 3.678616490089958 L0.8439719687400178 3.670234329089972 L0.8454982607400403 3.6472037360899563 L0.8491156107400251 3.6360157880900132 L0.8554718127400314 3.627850912090004 L0.8712848007400247 3.612606364089963 L0.8744370627400109 3.6029945480899457 L0.8892165227400106 3.5785515950899978 L0.9240981147399872 3.5709293220899454 L0.9676096707400141 3.5713427330899563 L1.1324058127399859 3.5728155110899493 L1.2843345237399681 3.574159098090014 L1.5055613307399902 3.5761228030899517 L1.6358892927399857 3.577259685089963 L1.7001822657399508 3.577844167089914 L1.7268398137400105 3.5780865080899744 L1.7643052267399888 3.578396566089971 L1.7710231637400078 3.573564820089949 L1.7728835147400126 3.5023288580899887 L1.7732562177400233 3.4867312370899626 L1.7749505727399786 3.4158225100899884 L1.7789296577400613 3.401714844089959 L1.7905051777400125 3.3954619960899564 L1.8602166857400242 3.388899089089982 L1.905123504740029 3.374894776089967 L1.9177325547400663 3.3745847170899808 L1.9851702987400834 3.381018433090027 L2.0015000517400345 3.379416464089907 L2.031575734740013 3.3695721030899293 L2.054675099740077 3.3572472740899784 L2.078084523740042 3.3486431480899412 L2.1092970887400178 3.349986735090006 L2.218386037740057 3.3727243650899865 L2.2552313337399674 3.372672689089974 L2.287787485740008 3.3668074150899727 L2.3205503437400203 3.3549476720899563 L2.3492824407400086 3.336266643089978 L2.3698496607400124 3.310066692089954 L2.375895803740061 3.282419800089947 L2.379668182739973 3.220563110089948 L2.3936724967399776 3.1983422450899965 L2.4162920227400626 3.175399967089966 L2.4371323757399885 3.1542622480900135 L2.4599733587400827 3.145270549089979 L2.4874652207400594 3.1627630220899405 L2.5323720407399684 3.203974976089931 L2.582033091739955 3.239192464090003 L2.582188120739996 3.2392441410899195 L2.582394826740053 3.239399171089964 L2.5825498567399983 3.239502523089989 L2.6479205427400494 3.2721620290899622 L2.6817169297400447 3.2808178310899123 L2.720009166740052 3.283866740089941 L2.7350470077400324 3.288181722090009 L2.768481659740015 3.308232178089959 L2.7868267937400013 3.3140716150899507 L2.8072906607399624 3.3178956710899783 L2.8179876817399894 3.3243552250899384 L2.838141490740039 3.3518729250900137 L2.8660467637400266 3.3762383630899464 L2.8994814157400093 3.3900618090899926 L2.9360166527400473 3.394325114089959 L2.9730686547400147 3.3900618090899926 L3.0054697777400143 3.382103638089937 L3.01689026874001 3.3860827230900057 L3.0455143247400507 3.412148968089973 L3.054769093740017 3.4205767420899846 L3.0680499377400245 3.4279664720899845 L3.0825193387400383 3.4320747480900096 L3.1139902857400124 3.4333149820899465 L3.127296967740019 3.4369840090900325 L3.1384849147400438 3.4483269860899313 L3.146133026740042 3.4583780530899517 L3.15558981373999 3.466697958090016 L3.1661834827400774 3.473803467089944 L3.2026412047399866 3.492277792089972 L3.2287894797399836 3.4995383300899405 L3.2558420927400356 3.5016053880899065 L3.3127120067399822 3.496696127089969 L3.3669980977400336 3.5066696780899704 L3.395936899740004 3.5056878260900035 L3.4177960317400355 3.4951199950899436 L3.465829274739999 3.4596699630900005 L3.480815439739981 3.453081217089924 L3.4981270447400696 3.4532879240899703 L3.5410443227400172 3.4380692140899427 L3.5813519397400704 3.437604126090001 L3.6215045277400826 3.4270362960899448 L3.6970554717400113 3.4206800950899137 L3.74658733174007 3.399492757089952 L3.7750610457400136 3.357040568090021 L3.7789109397400544 3.305880901089928 L3.7549330757400377 3.2585969650899713 L3.7448303327400048 3.250432089089962 L3.722144379740026 3.237332113089998 L3.7151197577400374 3.231461678090021 L3.7130234887399602 3.229709839090013 L3.7078300077400534 3.221286581090034 L3.701447968740009 3.2023213300899798 L3.6962803247399982 3.1936138520900172 L3.6795371607400646 3.180255494089984 L3.655533457740031 3.1683182370899416 L3.6301344917400478 3.1596624350899916 L3.609128021740016 3.156096762090023 L3.5957179877399845 3.1582154950899977 L3.5753574737400378 3.16992020708998 L3.563601084739954 3.175036174089975 L3.5531624457400106 3.1766381430899955 L3.535773325739992 3.1751912030900016 L3.5250246277399775 3.17555293809 L3.5047416287399606 3.180513876089954 L3.458491221740015 3.203690756089962 L3.400794484740029 3.2164548350899267 L3.381829234740078 3.224490520090008 L3.3264062607400113 3.258286907089989 L3.26767599574006 3.2788024500899624 L3.2503385517400396 3.282884888089974 L3.2320709337399727 3.2804044190899972 L3.2080413917400357 3.269371501089914 L3.135488868740051 3.2185870570899553 L3.1273486437400173 3.2128891600899507 L3.117245901739974 3.202114624089937 L3.110760508740011 3.1887045900899764 L3.097402150740006 3.145270549089979 L3.0878936867400135 3.1261502680899795 L3.0743803007400423 3.10958797208999 L3.0550274767399763 3.0944209390899644 L3.012084361740019 3.0747838950899293 L2.97094992174004 3.071734986089915 L2.9304355977400256 3.082354493089987 L2.8690439967400287 3.115918335090008 L2.8566933297399792 3.1197940680899663 L2.8426890157400884 3.1148589680900116 L2.8016062527400116 3.0905452070900097 L2.7946816107400387 3.082922933090039 L2.775251271740043 3.0180431730899144 L2.766311249740024 2.999620525090002 L2.7536505237399886 2.9825673020899686 L2.737309652740006 2.9696477270900132 L2.7183555197400118 2.954662029089995 L2.6818202827399737 2.942802287089968 L2.580844533740045 2.938358114089958 L2.521313283740053 2.9162922770899726 L2.499919240740038 2.915258749089979 L2.427003794740042 2.9414587000900028 L2.3516595567400564 2.988510091089985 L2.330368866740084 2.993445190089936 L2.3218939317399894 2.9871923430900225 L2.3025152697400095 2.962051758089906 L2.2931618357399906 2.9533701180899428 L2.2498569847400027 2.9466005050899966 L2.2035549017400307 2.963731242089956 L2.161283579740026 2.9940653080899935 L2.130122691740066 3.0269573570900334 L2.1190122577400494 3.0439847410899645 L2.108676972740053 3.064913696090038 L2.1008221537400082 3.0869020190899263 L2.099593374740035 3.093720880089954 L2.0971531277400253 3.1072625330899584 L2.0951377467399617 3.1469758710899427 L2.0794281107399932 3.1521435150899535 L2.0304905297400886 3.1519884850900084 L1.9684271347400362 3.151730103089939 L1.9062603867400547 3.1515233970899814 L1.8441969907399844 3.151265015089912 L1.7820302427400883 3.1510583090899544 L1.7199151717400092 3.1507999270899845 L1.6578517767399568 3.150593221090027 L1.5956850287400606 3.150334840089961 L1.5335699567400773 3.15012813309 L1.51224052073999 3.1500748540899437 L1.471506561740025 3.149973104089959 L1.4093914907400311 3.149714722089989 L1.3473280947399893 3.149508016089932 L1.2851613467400078 3.149249634089962 L1.2230462747400246 3.1490429280899193 L1.1609828797400574 3.148784546089935 L1.0988678087399784 3.1485778400899775 L1.0362242947399771 3.1483290260900034 L1.036110639740027 3.148139602090005 L1.026263634739987 3.133450475090008 L1.0212180617400257 3.122993118090001 L1.0218691037399843 3.0949169460900023 L1.0389589477399817 3.079332636089994 L1.0641054317399856 3.0666373240899887 L1.089455366739994 3.047268834090012 L1.0841249627399883 3.0443798370899984 L1.073830366739994 3.0368521670899966 L1.0683372027400218 3.0342480010899706 L1.081032514740027 3.0224071800900063 L1.0903912387400077 3.0071483910899772 L1.0887229447399953 2.995022740089958 L1.0683372027400218 2.9926220240900037 L1.0710227497400204 3.0086132350899746 L1.0661399367400257 3.027981725090008 L1.0555198197399953 3.0415722190899785 L1.041074832740005 3.0404735870899984 L1.0339133747400204 3.0614696800900063 L1.0183697547400037 3.07567052708999 L0.9987571247400204 3.081041620089998 L0.9795920857399913 3.075182245089998 L0.962054650739983 3.0571972190899785 L0.9576194287399993 3.038764602090005 L0.9659202107399913 2.9994579620899984 L0.9678733357399913 2.974759068089959 L0.970518191740009 2.964789993090001 L0.9795920857399913 2.9516470890899953 L1.015114546740019 2.910550084090012 L1.0212180617400257 2.896430618090001 L1.0270774367400257 2.9001334170899966 L1.0427024367400257 2.9072948760899706 L1.0484804317399856 2.9107128440899785 L1.046242475739998 2.9061555530900094 L1.041074832740005 2.8895946800900063 L1.075783491739994 2.883450475090008 L1.077492475739998 2.903225865089958 L1.0846946247400204 2.921943313089976 L1.0960471637399927 2.9332551620899565 L1.110573530740023 2.9306103050900063 L1.103005171740019 2.9077831570899733 L1.1012961867400257 2.882514602090005 L1.097023725739998 2.862535761089994 L1.0819276977399817 2.8554556830899926 L1.087258100739998 2.841946568089959 L1.1089459267400024 2.7488476100899746 L1.110573530740023 2.7326122580900076 L1.0887229447399953 2.7638622580900076 L1.079567671740019 2.7833935080900076 L1.0716737907399896 2.8247753440899785 L1.061419884739987 2.8495149280900094 L1.048195600739998 2.8659537300899913 L1.0348085567399856 2.862291620089998 L1.027402957740005 2.862291620089998 L1.017393191740009 2.8757193550899913 L0.9997336867400257 2.880927688089976 L0.9789817337400244 2.8836132350899746 L0.9596946247400204 2.8895946800900063 L0.9489524367400257 2.898383743090001 L0.945371707740005 2.9066845240900037 L0.9437034137399927 2.9151887560900107 L0.938617150739983 2.9243847190899785 L0.9331646767400024 2.9292675320899733 L0.921690066740009 2.935696568089959 L0.9150982707399997 2.9411490420899966 L0.9051291947399953 2.9595409690899785 L0.8975608357399913 2.9662141460899605 L0.8874289997400204 2.9616161650899997 L0.8842551717400191 2.9518912300899913 L0.8841737907399896 2.939521438089976 L0.8823020467400191 2.9289013210900023 L0.8731467727399966 2.9243847190899785 L0.8604107707399997 2.9155956570899733 L0.8552024367400257 2.8958202660899772 L0.8565452107399913 2.8748241730899693 L0.8635032187400178 2.862291620089998 L0.8573997027400218 2.848619745089998 L0.8531679317399856 2.8330761260899706 L0.8498313437400178 2.800849563089976 L0.8508079057400231 2.7838817900899997 L0.8542258747400204 2.7741568550899913 L0.8604107707399997 2.7675650580899926 L0.8834006787399993 2.7496614120899565 L0.8951194287399993 2.7452668810900107 L0.9079368117400257 2.7446972190899785 L0.93735575773999 2.747993118090001 L0.9513124627399883 2.752265579089972 L0.9608339477399817 2.7603222190899785 L0.9596946247400204 2.773587193089959 L0.9736920207399997 2.7612987820899733 L0.9847190387399927 2.7465282740900037 L0.9986350537399993 2.738430943089959 L1.0212180617400257 2.7462841330900076 L1.020851850739998 2.7242707870899565 L1.0287050407399896 2.7144237820899733 L1.0413596637399927 2.7083202660899772 L1.0552756787399993 2.697903600090008 L1.04282450773999 2.702135370089998 L1.0292747027400218 2.7049022980899693 L1.0166607707399997 2.7024608910899772 L1.0068951457399997 2.6916373240899887 L1.052101850739998 2.6642528830900076 L1.0683372027400218 2.6500520370899565 L1.0942974887400077 2.6189647980899693 L1.1084983357399913 2.6070019070899733 L1.1406028277400218 2.5978873240899887 L1.1561464477399817 2.5786815940899785 L1.168272098740001 2.574287063089976 L1.1766135697399953 2.5781119330899926 L1.1846295207399997 2.58543615208999 L1.1929303017400024 2.5898306830899926 L1.202736616739994 2.584866490089958 L1.208799441740009 2.580390579089972 L1.2249941037399843 2.5728222190899785 L1.2328879837400244 2.5674511260899706 L1.1698997027400218 2.5651317900899997 L1.142881473740001 2.555081334090012 L1.1446718377399883 2.5333935080900076 L1.1288840777400218 2.541409459090012 L1.1230247027400218 2.5558544460900023 L1.126117150739983 2.5709911650899997 L1.1372662387400077 2.5811230010899706 L1.12485575773999 2.5878775580899926 L1.1145611607400063 2.5871044460900023 L1.1045513957399997 2.5834016460899605 L1.0928733357399913 2.5811230010899706 L1.0844504837400244 2.5842154490899887 L1.0808697547400037 2.5917838080899926 L1.0788352497400204 2.6009797710899605 L1.075783491739994 2.609077102090005 L1.0501080357400063 2.6533886260899706 L1.041074832740005 2.6637239120899565 L1.0308209267400024 2.668281204089972 L1.0091737907399896 2.6732860870899984 L0.9972922807400231 2.6810578960899605 L0.9885032187400178 2.692044225090008 L0.9760520467400191 2.7152782740900037 L0.9659202107399913 2.7251659690899785 L0.9434592727399966 2.732490188089976 L0.9222190387399927 2.7283397980899693 L0.9006125937400178 2.721015579089972 L0.876564741739994 2.7189403830900076 L0.9000429317399856 2.677802688089976 L0.9007753537399843 2.670559850090008 L0.9176210567399856 2.6658397980899693 L0.945371707740005 2.635729120089998 L0.9319846637399927 2.6395946800900063 L0.9190452107399913 2.6591259300900063 L0.9079368117400257 2.6637239120899565 L0.8858420857399913 2.664374954089972 L0.8770937127399883 2.666328079089972 L0.8697288037399993 2.670559850090008 L0.8814882447399803 2.683906204089972 L0.8805116817399856 2.69285802708999 L0.8635032187400178 2.7121044460900023 L0.8605735307400231 2.7197948760899706 L0.8580100537399993 2.7341177920899966 L0.8529237907399896 2.742499954089972 L0.8330670207399997 2.764635370089998 L0.8287538697399803 2.773587193089959 L0.8241965777400218 2.801663365089958 L0.8287538697399803 2.896430618090001 L0.822568973740001 2.896430618090001 L0.8166282187400178 2.7044953960899605 L0.8116233357399913 2.6755240420899966 L0.7950624627399883 2.6273876490900037 L0.7768332967400191 2.5917838080899926 L0.7679221637399927 2.5811230010899706 L0.754860639740027 2.575182245089998 L0.728818973740001 2.5694856310900107 L0.7188905877399883 2.560696568089959 L0.7137229447399953 2.5462922710899605 L0.7052187127399883 2.4923778830900076 L0.6987082967400191 2.4752880400899997 L0.6906516557400231 2.4627147980899693 L0.67173075773999 2.443997350090008 L0.663063764740027 2.4393586780900094 L0.6564719687400178 2.4379752140899953 L0.652158816740009 2.4338248240899887 L0.6506125937400178 2.4207226100899746 L0.6518332967400191 2.410468704089972 L0.6568788697399803 2.3908153830900076 L0.65805888273999 2.3793814640899953 L0.6531760697399953 2.3628612820899733 L0.6410911087400244 2.3451203960899605 L0.609678348740001 2.3141959170899966 L0.5381451457399997 2.281318313089976 L0.527158816740009 2.269843704089972 L0.5214622027400218 2.2566601100899746 L0.486143191740009 2.205024368090001 L0.4597760047400037 2.13621740208999 L0.4194114217400191 2.082099563089976 L0.390684207740005 2.056342727090005 L0.3735129837400244 2.0448274280900094 L0.35385966373999267 2.0359569850899746 L0.33217183773998826 2.0324169460900023 L0.31597717674000236 2.027981725090008 L0.27357808773998826 2.0063345890899953 L0.2670676717400191 1.9989289900899578 L0.23402730673998562 1.9993358910899772 L0.20530009374001779 1.9959179230899693 L0.18023498874000765 1.99754552708999 L0.157814741739994 2.01317052708999 L0.16623759374001779 2.0227733910899772 L0.17828186374000765 2.026272740089958 L0.17079488473998694 2.0408397980899693 L0.157814741739994 2.0467805530900094 L0.16123271073999135 2.0499543810900107 L0.16737691573998958 2.0571972190899785 L0.17079488473998694 2.0603710480899693 L0.16460998874000765 2.0746939640899953 L0.16123271073999135 2.07567052708999 L0.157814741739994 2.0814892120899984 L0.14467183773998826 2.0731884300900063 L0.07745178574000633 1.9921744330899926 L0.06158264573999972 1.9778515160899772 L0.22666239773999663 1.9349641460899605 L0.27549052273999663 1.8962271670899966 L0.4246604447399953 1.8344188990900037 L0.45896220274002175 1.8075227400899578 L0.6178977497400204 1.623359329089972 L0.6497174107400063 1.577379511089994 L0.7193788697399803 1.5021435080900076 L0.8584576457399997 1.2628450060900107 L0.9279563437400178 1.1734081570899733 L1.0586936477399966 0.960883743090001 L1.0633323197399953 0.950873977090005 L1.0616233357399913 0.9405793810900107 L1.0552756787399993 0.9264192250900081 L1.0778871767399743 0.888870809090001 L1.087705699740038 0.8337320560899215 L1.090082815740086 0.7248498130899392 L1.0960256047400172 0.713377646089917 L1.10982321274005 0.6691942950900156 L1.1271864937400515 0.6288866780899625 L1.1316306667399907 0.5611905520899754 L1.1388653667400455 0.5410884200899986 L1.1534381207400166 0.5289444580900167 L1.1903350937400283 0.5204178470899805 L1.2059413767400677 0.5104959720900055 L1.2122459007399833 0.5003157150900321 L1.216535044740052 0.48858516509002214 L1.2574627797399636 0.3193448490899513 L1.2626820997400863 0.27945064309002277 L1.270226857740024 0.2606920980900256 L1.2840761417400834 0.24193355308994313 L1.3025246277400093 0.22462194809002511 L1.3238153187400847 0.21206457509000387 L1.3466046247400776 0.2076204030899973 L1.3796775417399907 0.21371822208995894 L1.3908913267400145 0.21449336808998254 L1.4022601427400012 0.21252966309003085 L1.4124403997399746 0.2079304610899939 L1.4418442897400574 0.18772497609000283 L1.4533164577399837 0.18255733208999203 L1.4653570667399514 0.18049027609003332 L1.4779661157400845 0.1828673920899675 L1.4871645207399773 0.1882934170900441 L1.4945542507399772 0.19568314609005455 L1.5066465357400567 0.21304642808998864 L1.5235964057399904 0.23035803208997407 L1.5438535667399798 0.23981482008993993 L1.5664361687400081 0.24234696508994347 L1.5903106797400106 0.23909134908995355 L1.597442026740051 0.23418208909000526 L1.6045216987400543 0.2306164150899619 L1.6120147807399938 0.22937618009000715 L1.6203346867399624 0.23128820808994277 L1.633253794739968 0.23624914608998182 L1.6395583197400718 0.2368175860899484 L1.6469480487400823 0.23542232308997058 L1.6865838737400587 0.21836910109001195 L1.700691538739985 0.2168188070899859 L1.7356248077399776 0.22498368409002723 L1.7440480657400563 0.22498368409002723 L1.7686977237400718 0.22069454009004374 L1.7846657417400102 0.22146968608995365 L1.829882619740001 0.23578405808995484 L1.8623354197400168 0.23754105708993478 L1.8708103537400085 0.23996984908998087 L1.8944264837400304 0.2508218990900204 L1.9100844427399828 0.25469763208999296 L1.9254323437400522 0.2538708090899817 L1.9402118027399773 0.24906490108997303 L1.9540094097400207 0.2405899660900488 L1.9761269227400327 0.2210045980899551 L1.9879608267400464 0.2139249270899981 L2.0032053737400837 0.2115994870899769 L2.0461484887399557 0.22012609909000247 L2.060927948739984 0.21873083508992153 L2.0728135277400064 0.21304642808998864 L2.082425344740013 0.20431311109000916 L2.106713267740016 0.17072343008998558 L2.1191156107399785 0.16007808508998522 L2.1336366887400366 0.15377356008996657 L2.148777883740049 0.1550654710900048 L2.158182994740084 0.1625585530899727 L2.1639190777400437 0.17273881009003134 L2.17074036774002 0.18209224408996505 L2.1830910337399665 0.18720821108995978 L2.197818817739968 0.18689815308996316 L2.2118748077400845 0.18348750808996073 L2.2539910997400305 0.16653763909004482 L2.269597381739967 0.16328202409004433 L2.3016884467400835 0.16219681808996 L2.3490240587400386 0.16943151909003262 L2.365147105740018 0.16886307808996293 L2.4725307317400187 0.1525333260899444 L2.4936147157400477 0.14488521408994615 L2.5001259467400097 0.14075109909003203 L2.5044150907400784 0.13506669108999603 L2.5047768257399774 0.12762528509005477 L2.5014695337399893 0.12126908409003789 L2.4852948107399833 0.10602453608998275 L2.4793520207399773 0.0926403410899681 L2.4813674017400125 0.07972123208994475 L2.4900490427400506 0.06985103408995741 L2.5043117377400357 0.0660786550900454 L2.5187294617399765 0.07026444608998617 L2.5277728377400273 0.07997961509001783 L2.535627655740054 0.09145178208995475 L2.5460662947400827 0.10106359908996154 L2.5532493187400256 0.10333736208996669 L2.560690724740052 0.10266556808999638 L2.5677703957399807 0.09977168809000858 L2.5739715687400597 0.09527583808996809 L2.5788808297399974 0.08912634309000822 L2.5811029167400044 0.08266678908994862 L2.584255178739962 0.0686624760899619 L2.5907147327400217 0.05941239508992879 L2.6009983427400094 0.05279781109003778 L2.6233225607399753 0.04385778809000129 L2.634691375740058 0.049438843090023 L2.6477655137400085 0.06292639208998452 L2.64868944174 0.06469025508999238 L2.6562921247400446 0.07920446809000481 L2.666679088739979 0.09186519408995508 L2.6851275737399725 0.09460404508998721 L2.7156166697400543 0.08757605108998945 L2.886407278739963 0.09946162909002254 L2.897931122740001 0.09811804209004293 L2.931727509739968 0.08959143108994994 L2.941649383739982 0.08933304908995154 L2.9504343777399775 0.09171016508999941 L2.9785463567399937 0.10457759608998884 L2.9895534367399783 0.1064379480900115 L3.0006121927399896 0.10607621308999882 L3.0424959417399826 0.09465572109001386 L3.0531671257400568 0.09439733909004389 L3.0937072867399955 0.10256221608997151 L3.104533498740036 0.10276892109001068 L3.1152305197400345 0.10158036408997617 L3.1256691597399673 0.09884151308994404 L3.135565196740057 0.09444901608994627 L3.1617909857399944 0.07925614409003146 L3.1713769637399842 0.07563879408993301 L3.19098816974002 0.0744502370900122 L3.2543693147400425 0.09858313008998465 L3.262094940740038 0.10369909708997938 L3.266280731740064 0.11114050308997747 L3.2658673207400533 0.12209590708996387 L3.2605963247400176 0.1411128340900163 L3.262301645739992 0.14876094609001456 L3.271655080740029 0.1528433840900263 L3.30997315573995 0.14953609209000973 L3.3196624867399827 0.15398026609002358 L3.3230472927399965 0.16173173108995087 L3.324365041739977 0.17961177608997758 L3.3295585227400544 0.18736324108999014 L3.3399713237399986 0.19206579608998453 L3.363949188740005 0.1936677660900088 L3.3753438417400012 0.19563147008994264 L3.383457042740016 0.20028234908999565 L3.400432750740034 0.2217797450899397 L3.407538259740047 0.228135946089985 L3.4312319037400094 0.24436234608997864 L3.4651833197400173 0.28260290508998054 L3.5245853787400527 0.3345893960899886 L3.5577874867399792 0.35314123509004247 L3.564557099740025 0.35918737808997747 L3.582023732739966 0.37939286308996856 L3.5909120787399864 0.38497391808999026 L3.610574962740028 0.39236364808999014 L3.6197733667400165 0.39727290908992785 L3.625767832740049 0.4040425220899735 L3.626465464740047 0.411018840089973 L3.6201609407400177 0.4264184170899554 L3.6183005887400235 0.4348933520900502 L3.6203418077399725 0.4414045830900122 L3.630186167740046 0.4538586020900013 L3.6345786647400438 0.46285030208994016 L3.634940399740028 0.4712735600899336 L3.629824432739948 0.4892052820900048 L3.6335451357399755 0.5051732990899538 L3.6505725207399813 0.5141133220899903 L3.689794932740053 0.5252237550899892 L3.698037323739978 0.5299263100899836 L3.713798634740069 0.5415018310900095 L3.720387380739961 0.5483747970899842 L3.7253483177400106 0.5564879960899916 L3.7337974147399926 0.5834114180900016 L3.738551645739985 0.5929715580899924 L3.7448561717400217 0.6017565510899985 L3.7527885027400565 0.6091979580900144 L3.761857717740039 0.6146756600899934 L3.770306814740021 0.6167427160899521 L3.7784200147400178 0.6159675700900422 L3.7863006697400543 0.6131770430899834 L3.802682098740032 0.604030315089993 L3.8188051457400114 0.5920413820899668 L3.8256264347400553 0.5848066820899973 L3.8433772897399727 0.5598986410900224 L3.850922047740024 0.5528706460900068 L3.8593969827400336 0.5481164150900142 L3.8682078147400283 0.5457392990899663 L3.87748373474005 0.5452742110899393 L3.8870438747400406 0.546359416089949 L3.885002655739978 0.5591751720900149 L3.8793177547400113 0.5759550330899899 L3.874848236740032 0.589147502089979 L3.878052174739988 0.5996378180900237 L3.882780569739989 0.6024800220899849 L3.8931416937400876 0.6064074310899557 L3.8976633817400135 0.6096113690900253 L3.8987744247400222 0.6113166910899892 L3.900324717740059 0.6148823650899473 L3.901616628740012 0.6163293050900549 L3.904045420740058 0.6177245690900222 L3.9101690777400187 0.619998332089942 L3.9129337677399825 0.6214452720900212 L3.9194966747400564 0.6270263260900535 L3.9216929227400463 0.6283182380899959 L3.92866924173995 0.6295067950900304 L3.9352063097400354 0.6278014740899707 L3.9625948187400546 0.6136421310900104 L3.968356740740031 0.6124535730899865 L3.9871411237400274 0.6123502200899722 L3.990655120739998 0.6119884850899595 L3.9982257187400556 0.609766398089981 L4.028559784739993 0.5970539970900219 L4.081218068740011 0.5862019460899646 L4.094834809740004 0.5808275960900104 L4.100364187740009 0.579173951089949 L4.106074432740055 0.5789672450900056 L4.11268901674006 0.5802591560900439 L4.1145235287400475 0.5942117930900324 L4.0977545277399905 0.6245975350899968 L4.095920013740081 0.6401004640900041 L4.106074432740055 0.6468184000899484 L4.1425321557399535 0.6330207930899903 L4.157595835740036 0.6333825280899745 L4.16255677373999 0.6387052000900368 L4.17059245874 0.6521927500899878 L4.175527557740022 0.65803218608999 L4.203045257739998 0.6759639090900507 L4.209065562740047 0.6831469320900041 L4.211571869740023 0.69084672108999 L4.212579559740075 0.7083650310899472 L4.213948985740071 0.7160648200899615 L4.227849945740044 0.7497578540899994 L4.234283661740076 0.7601448170899445 L4.241828420740031 0.7697049560900311 L4.250613414740027 0.7784899500899982 L4.2758573507399795 0.7970934660899545 L4.281696788739989 0.804793254089951 L4.283893036740064 0.8131131590900154 L4.283272919740082 0.8216397710899273 L4.27944886274005 0.8385379640900155 L4.27944886274005 0.846754517090055 L4.281593435740032 0.8534724530899709 L4.285856740739998 0.8594669190900035 L4.3039693307400135 0.8799307860899646 L4.312857676740034 0.895330363089947 L4.317663584740043 0.9123835860899803 L4.31794780574003 0.9317105720899335 L4.315725718740023 0.9401338300899269 L4.312392588740007 0.9486087650900217 L4.310170502740018 0.9570837000900312 L4.311488251740055 0.9656103110899537 L4.316655894740077 0.9724316000899975 L4.323658050740075 0.9777542730900493 L4.338954274740015 0.9864359130900127 L4.3469641217399975 0.9924820560899477 L4.3536820587400165 0.9994583750900503 L4.365076711740013 1.0156330980899426 L4.369365855740082 1.023953003090007 L4.370502736740004 1.0312910570900087 L4.368745738740014 1.0386291100899925 L4.353630381740029 1.0615217700900175 L4.349961355740017 1.0696349690900249 L4.348876149740018 1.0785233150899316 L4.35032309074003 1.0869465740899145 L4.359779877739978 1.111802938089987 L4.374817719739976 1.111389527089976 L4.404815887740025 1.1062735600899813 L4.419388642740071 1.1070487060899765 L4.426571665740024 1.109890910089966 L4.445071828740051 1.1228358560899707 L4.452384044740054 1.1257038980899594 L4.4754058947400175 1.1317500420899975 L4.487911590739994 1.138829712090022 L4.498608612740011 1.1483640140900135 L4.505817474739981 1.160120403090012 L4.508168752740087 1.1742022300900246 L4.5025360217399815 1.211822673089948 L4.502665212740023 1.2205301520900136 L4.504525563740028 1.2290309250900222 L4.508039561739988 1.2382034920899159 L4.513778450740087 1.2424931660899503 L4.544393931740043 1.250140747089965 L4.558734141740043 1.2483579110899754 L4.573849497740039 1.2392886960900213 L4.58707866474003 1.2289534110899965 L4.601780609740043 1.2210210780899544 L4.617438568740081 1.2189540200899884 L4.633303233740005 1.2260853680900183 L4.639607757740006 1.233500936089932 L4.642682505740051 1.2421825770899986 L4.6467132677400365 1.2698294680900162 L4.650020558740035 1.2766249190899472 L4.66007162474008 1.2894665120899376 L4.664567475740082 1.2969595950899802 L4.666453664740001 1.3047110600899927 L4.666608694740059 1.3381973880899878 L4.670406911739999 1.3545013020900072 L4.6786493027400375 1.3698750410899905 L4.6907932647400195 1.3825616050899399 L4.750350352740011 1.4219648850900413 L4.763088592739987 1.4350131840899891 L4.769573985740035 1.4513687750899393 L4.764173797740053 1.465243897089998 L4.747585662740047 1.4678535560899277 L4.713427541739971 1.4644170740899867 L4.7032472837400086 1.4718843190899165 L4.70926758874003 1.4843641770899083 L4.732134410740056 1.5065592050899355 L4.740841888740018 1.5132513030899517 L4.7497302347400385 1.5163002120899804 L4.759290375740047 1.5164810790900205 L4.780658580740035 1.5121660970899526 L4.79122641074002 1.5121660970899526 L4.801303314740036 1.5149566250899156 L4.810398367740017 1.5210802820899758 L4.815643524740036 1.5279532480900357 L4.81814983174004 1.5356271980899336 L4.818356537740069 1.5438437500899695 L4.81295635074002 1.5692168790899572 L4.813628143740086 1.5770975350899974 L4.8167028917400465 1.586166749089962 L4.817865611740043 1.5888539230899923 L4.843057872739987 1.5966829030899206 L4.850984447740014 1.604107243089949 L4.880574961739992 1.6318228770899665 L4.907317515740058 1.6428557950899645 L4.908038007740057 1.6427646790899715 L4.918350434740059 1.641460531089983 L4.949976410740046 1.632081258089947 L4.965350149740029 1.6298074960900166 L4.97467774474006 1.6329855960899877 L4.98255840173999 1.6406337080899576 L4.995477508740006 1.6564725350899678 L5.050564585740059 1.6880726730900406 L5.068031219740018 1.7008884280899323 L5.078650727740008 1.7069604090899801 L5.102060150740069 1.7122314050900158 L5.112731333740069 1.717967489089979 L5.121361298740023 1.727501790089967 L5.126115530740005 1.7372427980900014 L5.149421600740023 1.8170312090899827 L5.149990041740008 1.827805746089929 L5.163787648740051 1.8358155930899969 L5.19753235974002 1.8748571380900003 L5.215128184739992 1.8892231860899997 L5.278044240739998 1.918058635090027 L5.333493052740035 1.960304118090015 Z" fill="black" stroke="black" stroke-width="0.5" vector-effect="non-scaling-stroke"/></svg>