<svg xmlns="http://www.w3.org/2000/svg" viewBox="0 0 4.22238413070005 4.017709012080019"><path d="M1.4392434168500188 0.10517340204008008 L1.502081957849981 0.1596920380400917 L1.5140708908500358 0.17467820404006318 L1.5350515218500504 0.2204635230400953 L1.5503477458499901 0.23658656904008524 L1.5674009688500234 0.24547491604009508 L1.6066750568500083 0.25767055404010364 L1.6254852778500037 0.26655890004001037 L1.6780918868500123 0.3005619930400627 L1.6962819908500535 0.30660813604008297 L1.7344191968500127 0.3095536920400974 L1.7531260658500116 0.3148246880401331 L1.768525642849994 0.3255733860400625 L1.8017019118499888 0.36712123704013777 L1.8087299068500045 0.3717721160401055 L1.8260931878500344 0.3799886700401345 L1.8331211828500216 0.38624151704003395 L1.8365318278500524 0.3945614230400878 L1.8387022378500433 0.414921938040024 L1.839907007850087 0.4181231830400378 L1.842319587850028 0.4245337530401372 L1.8520347578500775 0.4359542450400369 L1.8749790938500155 0.4566248190400728 L1.8844875568500754 0.47016404404003254 L1.8964764888500554 0.477863832040029 L1.909809008849976 0.47993088904009085 L1.9232448808500067 0.47708868604003385 L1.9358539298500546 0.4698539850400465 L1.9417450438500339 0.45827846404010586 L1.9505300378500294 0.44970017604008206 L1.9615887938500407 0.4464962370401082 L1.9738877848500636 0.45094041104012206 L1.982156013850016 0.4607072560400667 L1.9819493088499769 0.4698539850400465 L1.9780218988500167 0.4793107720400229 L1.9755414298500398 0.4895943820400106 L1.9763682538500404 0.5415808730401324 L1.973681078850035 0.5557402160400926 L1.9696503168500215 0.5643701790401252 L1.9585915608500102 0.5826636370399996 L1.950840095850026 0.6076750290400952 L1.9544574458500108 0.6240047820401315 L1.9838096598499817 0.659609844040105 L1.9966254148500582 0.6827608860401 L1.9940415938500564 0.6967651990401151 L1.9795721928500143 0.7072038380400585 L1.9571446208500163 0.7199162400400922 L1.9635524978499745 0.7339205540400968 L1.9780218988500167 0.7406901670400572 L1.995901944849976 0.7447209280401381 L2.0124384028500515 0.7504053360400889 L2.026804451849955 0.7607406220400748 L2.0594639568500384 0.7945370090400701 L2.1240594978500837 0.8357748020400635 L2.162610114850054 0.8716899230400514 L2.177906338850022 0.8804749160401144 L2.213085849850046 0.8917826160400324 L2.2603819258500266 0.9069849260400389 L2.270717211850041 0.9127210100400731 L2.279192146850022 0.9195939750400584 L2.287977139850028 0.9251750300400801 L2.299759366850026 0.9271904110401152 L2.3094745358500575 0.9239347960400295 L2.325597582850037 0.9113774230401219 L2.3358295168500263 0.9095687470401259 L2.35205591685002 0.9180953580400484 L2.386162361850012 0.9537004200400219 L2.4024921138500304 0.9673429990401274 L2.435668383850043 0.9838794570400324 L2.4535484298500023 0.9891504530400397 L2.495716397849975 0.9900806290400936 L2.6019631428500247 1.0135934060401013 L2.6301784748499983 1.024445457040045 L2.6558099848499808 1.0392249160400553 L2.6808058368499985 1.0605628380400418 L2.6897097248500756 1.0681637180400259 L2.6942572508500007 1.0813928850400174 L2.690536547850087 1.0939502580400386 L2.677927498849982 1.1017017220400334 L2.6654218008499697 1.1022184870400764 L2.654983162850044 1.1059391900400755 L2.6464048748500204 1.1122437150400941 L2.638860114850047 1.1203569150400057 L2.640203702850016 1.1218038540400954 L2.6408238198499987 1.1280050260400714 L2.6408238198499987 1.1353947560400712 L2.640203702850016 1.140355694040025 L2.637413174850053 1.1445414850400795 L2.6289382398499583 1.151776185040049 L2.625941007850031 1.155961976040075 L2.6220135978499854 1.1700179660400778 L2.6214968338500455 1.1770459610400934 L2.6182928948499864 1.181851869040102 L2.605683845850052 1.1892932750400433 L2.5952452058500057 1.1918770970400345 L2.5697170488499808 1.1931690080400728 L2.5597951738500626 1.1967346810400414 L2.552560473850008 1.2046928520400257 L2.547806241850026 1.2150281390401148 L2.549873299850077 1.2234513970401082 L2.563412524850065 1.225983542039998 L2.580362393849981 1.226603659040066 L2.5834629798499975 1.2317196260400607 L2.5809825108500206 1.2383342090400475 L2.5816026288499927 1.2437602350400283 L2.6048570228500125 1.2549223450400717 L2.652916104849993 1.260916811040076 L2.677927498849982 1.269701804040082 L2.712757413850028 1.2793652960400976 L2.7274335208500133 1.2886153780401202 L2.7354950438500225 1.3047901020401156 L2.7327045158499743 1.3239620580400384 L2.7185451748500213 1.3324886690401314 L2.677927498849982 1.3406535450400696 L2.649815519850023 1.3437024550400878 L2.5917312088500353 1.341635398040026 L2.5649628168499703 1.3484050110400716 L2.5519403558500358 1.3566732400401094 L2.542845304849976 1.367628643040078 L2.5392279538500873 1.381322897040107 L2.556217082850054 1.3866073070400802 L2.557004646850004 1.386852276040102 L2.5749880448500164 1.3966191210400751 L2.5923513268500074 1.4230257790400316 L2.60857772585004 1.4284518040401082 L2.6936371338500464 1.4352214170400401 L2.7548220298499757 1.4316040670400554 L2.774459073850011 1.4355831510400634 L2.79202905985008 1.4473137020400344 L2.800710701850022 1.4632817190400687 L2.8067051678500547 1.4813167940400689 L2.816110277850015 1.4993518690400691 L2.8526971928500586 1.525603496040091 L2.9015830968500325 1.5361971650400932 L2.9532595288499977 1.5359904590400362 L2.9981146728499652 1.5293758760400493 L3.0347015868500193 1.518058738040068 L3.0518581628499817 1.5148031230400676 L3.068394620850057 1.517283591040055 L3.1588283778500283 1.550976625040093 L3.1907644118500116 1.5546973280401204 L3.200686286850015 1.5617253230400223 L3.228591560849992 1.6099394340400153 L3.2306603518500197 1.6170963330400383 L3.2325910648500553 1.623775558040066 L3.2362396728500755 1.636397767040009 L3.24161402185004 1.6440458790400925 L3.252156013849998 1.6511255510400105 L3.2635248288500804 1.656034811040044 L3.272723233850087 1.6625460420401197 L3.283368578850059 1.6914848450400797 L3.3007318598500035 1.7036288060400722 L3.323056078850044 1.7106051250400611 L3.344656827850031 1.7123621230400516 L3.3685313398500227 1.7079179490400378 L3.381553799850053 1.6981511040400932 L3.4954486568499874 1.5515967420400756 L3.5013397708500804 1.5358871060401071 L3.5161192298500055 1.5279289360400554 L3.5575637288499706 1.5212110000400259 L3.577097420849981 1.5127360650400163 L3.611927334850037 1.4854509080401073 L3.6224693278500126 1.479611472040105 L3.6469639558500546 1.480283265040086 L3.665360766850057 1.4830737920400594 L3.6801402258500673 1.4892749650400532 L3.7496967038499918 1.544103659040033 L3.7839065018499696 1.5638957330400984 L3.817599535850036 1.5758329890400518 L3.8965611238499775 1.5826542770401062 L3.911133878850052 1.5901990370400512 L3.961570075850034 1.630454978040106 L3.955678962850044 1.6485934050401312 L3.9381089758499854 1.6614091610400266 L3.9157847568500017 1.6689022430401366 L3.8965611238499775 1.6714343880400264 L3.8749603758500086 1.6677136850401126 L3.838580166850022 1.6501436980400541 L3.817599535850036 1.6440458790400925 L3.796722257850064 1.6434774380401365 L3.7768785068500677 1.6477665820400915 L3.7619956948500146 1.65784348704004 L3.756207934850039 1.674483298040073 L3.7531073478500048 1.6917949030400763 L3.7448391198500417 1.7015617490400103 L3.7319200108500468 1.7057475400400648 L3.6967800378500044 1.7068844210400727 L3.687478279850069 1.7090548310400635 L3.680553636850078 1.7134990040400595 L3.6762128178500006 1.722852438040107 L3.6736289958500095 1.7362883110400418 L3.6734222898499524 1.74931077204009 L3.6764195228500682 1.7574756480401135 L3.6974001538500545 1.7713249320400593 L3.7018443278500683 1.7782495740400606 L3.702774503850037 1.7857426570400747 L3.7003973878500744 1.8015556450400965 L3.701534268849997 1.8092037570400663 L3.7191042558500556 1.838194236040053 L3.745769294850021 1.864290834040034 L3.779255622850002 1.8848580540400377 L3.817599535850036 1.8973637500400145 L3.8589406818499583 1.9016012180400566 L3.877957608850039 1.9079574190401019 L3.8859157798500803 1.9215483200400882 L3.8817816648500525 1.969607403040058 L3.887156013850017 1.9843868630400578 L3.8880578208500367 1.9848299890401364 L3.845194750850027 1.9992696750400256 L3.836409757850049 2.005935935040114 L3.8212168858500206 2.0238676560399966 L3.8049904868500164 2.0374068820400595 L3.802613370850054 2.038698793040126 L3.8012697828500848 2.044796612040088 L3.802406664849997 2.0501192840400364 L3.8043703688500443 2.053271547040069 L3.805817308850038 2.0533232230400955 L3.795482022850024 2.0829338190400364 L3.7935183188499764 2.0941992810401047 L3.794551846850055 2.103966127040067 L3.8010630778500456 2.1251017880399985 L3.801166429849957 2.13388678104009 L3.7893842048500517 2.1493380340400705 L3.7716075118500214 2.1518701800400635 L3.751040291850046 2.1508366510400805 L3.730576423850067 2.156107647040031 L3.7190009028500413 2.1685616670400094 L3.7113527908499577 2.182979392040025 L3.7000873298499926 2.1933663550400553 L3.677866462850062 2.1938314430400823 L3.6623027048500774 2.1956403880400757 L3.6307375568500504 2.199309144040072 L3.608206631850038 2.206337139040059 L3.5960109938500295 2.2199280410400632 L3.593737230849996 2.2323303840400257 L3.593220466850056 2.2613208630400976 L3.590946703850051 2.276927146040137 L3.588362882850049 2.2813971570400753 L3.5784410078500457 2.294703838040064 L3.5754437738500258 2.2997681290400607 L3.5734800698500067 2.3297404600400995 L3.5639716068500036 2.3605137750400473 L3.551155850850023 2.383561463040124 L3.5458848548500157 2.405343080040055 L3.5590106688499645 2.4324215300400027 L3.5849522378500183 2.4549782930400426 L3.5859857668500865 2.4627555960400542 L3.582265063850002 2.479447084040075 L3.5824717688500414 2.4877669900400434 L3.586915942850055 2.500815288040073 L3.593323819849985 2.5138635880400244 L3.6012819908500546 2.5260850640400605 L3.6103770428500184 2.5366012180401043 L3.6228827388500235 2.5450503150400863 L3.652338305850037 2.5568583790400083 L3.662673591850023 2.564144756040079 L3.6692881758500278 2.5773222460400547 L3.6702183508499786 2.6002665820401063 L3.677866462850062 2.61261725004006 L3.678176521850048 2.613289043040041 L3.6783832278499915 2.613805808040084 L3.678176521850048 2.614322572040109 L3.677866462850062 2.6147359830400347 L3.6745591708500456 2.618353334040009 L3.6735256418499773 2.6219706840401074 L3.6745591708500456 2.6256913870401064 L3.677866462850062 2.6291278700401364 L3.6791066978499884 2.631530824040098 L3.6795201088499994 2.633985455040076 L3.6791066978499884 2.6365692760400776 L3.677866462850062 2.639153098040069 L3.6750759358500034 2.644088197040091 L3.6740424068500204 2.6491008110400713 L3.6748692308500495 2.654035911040026 L3.6870648678500686 2.6723810430400903 L3.7057717358500497 2.71992336204012 L3.715280199850014 2.7390178030400847 L3.7290261318500484 2.748422914040063 L3.7622024008499864 2.7599209200400736 L3.7691270428500445 2.765114401040094 L3.783183031850058 2.778834495040016 L3.7926914958500504 2.784105490040062 L3.8033368408500507 2.7858624900400315 L3.8249375888500197 2.7850098280400033 L3.8342393478500583 2.7868960170400072 L3.841784105849996 2.792967999040073 L3.8529462158500394 2.8100728970400013 L3.8553435138500447 2.811969494040099 L3.8611110918500344 2.816532451040061 L3.870619555850027 2.819116273040052 L3.889636482849994 2.818392803040055 L3.8993516518500257 2.819219626040095 L3.9157847568500017 2.8245939750400595 L3.9207605798500254 2.8272043970400347 L3.929427335850022 2.8317511610400032 L4.000947517850051 2.884280254040064 L4.013556566849985 2.8977678040400434 L4.017173916850055 2.905725974040095 L4.020274503850004 2.923967755040067 L4.023375089850049 2.931874249040092 L4.029576261850025 2.9386180230400356 L4.053760831849985 2.956317201040136 L4.080219164849979 2.9826721810400016 L4.094171800849978 2.9929299540400933 L4.111948493850008 3.001017315040073 L4.161144457849986 3.0088462940401115 L4.177784269850008 3.0142723200400923 L4.179319382850082 3.025946609040048 L4.180988207850049 3.038637757040007 L4.170446215850006 3.072072410040093 L4.1520494058499935 3.1049902960401283 L4.131688890850057 3.1277020890401133 L4.123524015850052 3.132120423040007 L4.106574145850033 3.137985699040101 L4.098099210850052 3.1435150770401066 L4.093138272849984 3.150543071040019 L4.085903571850025 3.1688882050400906 L4.0806325758499895 3.176613832040104 L4.038671312850084 3.205759340040103 L4.025442146849997 3.219608623040088 L4.025442146849997 3.2197636530401184 L4.025338793850068 3.219815330040049 L4.025235440850054 3.219815330040049 L4.0122129798500055 3.2235618710400473 L3.9845144118500855 3.228367779040056 L3.9728355388500063 3.2335354220400774 L3.9658075438499907 3.2419845190400594 L3.9596063718500147 3.254619407040096 L3.9419330318499988 3.3031952530401014 L3.9359960658500484 3.314406985040037 L3.9352150958499976 3.315881817040136 L3.9234328698500747 3.3263721330400955 L3.893047127850025 3.335854758040071 L3.862661384849986 3.34133246004005 L3.7873171468500857 3.3263721330400955 L3.7600319898499777 3.328981793040086 L3.746389412849993 3.335906435040087 L3.7412026098500064 3.341558090040067 L3.740911709849996 3.3418750620401028 L3.7339870688500127 3.3449239720400357 L3.7162103758500677 3.3429085910400858 L3.702464444850051 3.3431411350400566 L3.6934727458500163 3.3488513810400917 L3.677866462850062 3.3665247210401077 L3.667324470849991 3.3731393040400945 L3.6418996658499907 3.383087017040097 L3.6332180258500273 3.3889781300400017 L3.6268636218499637 3.396187935040061 L3.6238129148499922 3.3996493140401043 L3.622262621850041 3.40342169304013 L3.6257766198500008 3.407142397040033 L3.6495477788500637 3.4496721000400754 L3.662983650850009 3.4647357800400727 L3.677866462850062 3.473443259040053 L3.679003344849974 3.476440492040055 L3.679313402850056 3.4794894020401017 L3.679003344849974 3.4825899870401287 L3.677866462850062 3.4855872210400634 L3.6645339438500457 3.494940655039997 L3.638489020850045 3.531579246040039 L3.6456203688499897 3.545299338040067 L3.640969489850022 3.5699748340400816 L3.637735666849977 3.580373065040064 L3.625259854849986 3.6204885470400967 L3.6217458578500157 3.6404098120401187 L3.6260866778499974 3.6418567520401126 L3.677866462850062 3.6776426820400303 L3.7085622638500126 3.694075786040102 L3.7212746658500464 3.70559963104013 L3.7289227778500447 3.719707297040074 L3.7289227778500447 3.719862326040001 L3.7329535398500298 3.7348743300400855 L3.7295428958500167 3.7556740940400317 L3.715900317849986 3.792338523040101 L3.705254972850014 3.8083323780401344 L3.6939895098500415 3.814068463040101 L3.681483812850047 3.81610968204005 L3.666187588850079 3.8215615450400406 L3.650788012850086 3.836496034039996 L3.634871670849975 3.8732121400400814 L3.6204022698500467 3.8873714810400344 L3.6022121658500055 3.8917123020400908 L3.5605609618500864 3.892280743040047 L3.5414406818499913 3.8998255020400023 L3.521700284850027 3.8989470030400497 L3.5040269448500396 3.8939343880401083 L3.4880072508500746 3.88486517404003 L3.473331143850004 3.8720235810400396 L3.470437263850016 3.86478888104007 L3.469713793850019 3.8477873340400635 L3.46526962085008 3.8429297490400387 L3.456174567850013 3.8441699840400787 L3.429819587850062 3.864375470040059 L3.2919468668499974 3.9074477760400583 L3.257323656849991 3.912176169040052 L3.2418249298500825 3.9108404870401188 L3.2240440348499533 3.909308127040063 L3.191384529850069 3.900652325040042 L3.137951097850049 3.880162619040064 L3.1254454018499587 3.8781472390401035 L3.1146967038500293 3.881919618040129 L3.0807969648500375 3.903752910040069 L3.073768969850022 3.905044822040125 L3.0337714108500506 3.904708925040026 L3.013617601850086 3.9081195690400676 L2.915938147850028 3.9523078930400146 L2.902926683850012 3.958194032040055 L2.88845728284997 3.971242331040102 L2.873303899850015 3.9783197080400186 L2.8561078368499864 3.977701885040048 L2.821071215850054 3.970493023040106 L2.771461839849991 3.971242331040102 L2.7604831578500466 3.966975226040077 L2.7502745038500223 3.939280458040102 L2.711310473850034 3.89543300504009 L2.712447354850042 3.87132594904007 L2.7337380448500426 3.8546344620401243 L2.793062588850063 3.8411727510400766 L2.8138365158499994 3.8266258360400087 L2.818280687850006 3.811097068040098 L2.8133197508500416 3.779341900040052 L2.815386807850018 3.7640198370400952 L2.8242751538500386 3.7528835670400866 L2.86427271285001 3.723169618040103 L2.914088793850027 3.662113913040102 L2.9241140218499595 3.639117901040052 L2.9231838458500192 3.635319683040123 L2.9161558508500036 3.6265863660400584 L2.9147089108500097 3.6222455460400766 L2.916569262850004 3.6193775040400027 L2.9233905508500584 3.616871197040112 L2.9252509028500526 3.614959169040091 L2.9264911378500074 3.612246156040058 L2.9319688398499864 3.591988994040051 L2.931142016849975 3.5890176000400658 L2.9409605388500495 3.583617412040084 L2.9529494708500863 3.5796383280401045 L2.9634914638499765 3.574548199040109 L2.9691758698500053 3.565763205040028 L2.9608042878500385 3.54364569204013 L2.9406672358500145 3.5338400000400583 L2.9350694248500417 3.5311141580401255 L2.9053037998499462 3.526075705040043 L2.88380640485002 3.5264374400400555 L2.84050155485005 3.5409585180400853 L2.8258254468500468 3.5410618710400144 L2.8090822838500173 3.5328711560400023 L2.7769395428499877 3.503053855040079 L2.76164331785003 3.493080303040088 L2.7389056878500355 3.487447572040068 L2.638239997849979 3.477163962040052 L2.6142178538500502 3.477694366040069 L2.6019631428500247 3.477964947040064 L2.5851166258500484 3.474218405040048 L2.57509139885002 3.4691282770400704 L2.575608161850056 3.4662602350399965 L2.580362393849981 3.4632888400400788 L2.5835663328500402 3.4583020640400406 L2.5869769768500532 3.4428508110400315 L2.600516202850031 3.409286969040025 L2.6047536698499982 3.3925179660400744 L2.6048363338499883 3.3715213200400598 L2.6048570228500125 3.3662663380400346 L2.59534855885002 3.35869574104008 L2.575194750850045 3.357972271040083 L2.543155362850058 3.3524170550400783 L2.5328200758500543 3.3477920140400244 L2.513389737850048 3.335648052040014 L2.502744392850076 3.3308163060400915 L2.4913755778499933 3.3288784400400715 L2.4680178308500444 3.328981793040086 L2.4569590738500438 3.326708029040091 L2.428847094849999 3.3023684300400618 L2.423162687850038 3.2707424530400857 L2.4217157468500545 3.239710756040054 L2.4062128168500294 3.2173865370400705 L2.38946965385 3.2153711560400353 L2.3758270748499797 3.22268337104002 L2.3617710858499663 3.2281610730401127 L2.344304450850018 3.220642152040071 L2.3357261638499835 3.207438824040068 L2.320429938850026 3.154987245040118 L2.3049270098500187 3.131707012039996 L2.289010668850011 3.1225861220401185 L2.2222447188500496 3.119898948040074 L2.2015741458500315 3.114137026040126 L2.189848744850025 3.1091162710400084 L2.108911580850048 3.074459399040066 L2.034969327850064 3.042797711040137 L2.0284580968500165 3.0346586730400276 L2.032488858850087 3.0338318500401016 L2.0354860918500037 3.020809388040064 L2.0370363848500403 3.006288311040109 L2.0364162678500577 3.001172344040029 L2.0478884358500693 2.993446717040129 L2.0580170168500445 2.995746319040066 L2.061117601849986 2.995927186040106 L2.051505785850054 2.9818195200400766 L2.044891202849982 2.975127422040046 L2.0348659748500495 2.9674017960400505 L2.0158490478500823 2.955852113040109 L2.0061346858500144 2.953654339040085 L1.9908376548500826 2.95019354404009 L1.9659296138500224 2.952415630040079 L1.9417450438500339 2.960399640040052 L1.863403571850057 3.003601136040075 L1.8412860598499492 3.0099573380400244 L1.8087299068500045 3.0109908660401032 L1.800461677850052 3.0153058490400753 L1.7939504478499941 3.0283024710401065 L1.7965342688500812 3.0394387420400193 L1.8085232018500506 3.0583264780400583 L1.81699813685006 3.0799272270401303 L1.8224758378500496 3.089539043040034 L1.8284703038500538 3.0959985980399978 L1.8373586508499784 3.0979881400401297 L1.848107348849993 3.096954612040051 L1.858235928850064 3.0973163460400457 L1.8655739828500373 3.1034658420401087 L1.861336515850013 3.1278571180400405 L1.8402525308499662 3.1610075490400646 L1.8136908448500435 3.191134909040059 L1.7928135658500821 3.206172751040029 L1.7807212808500026 3.2063536190400868 L1.7692491128500762 3.203924826040108 L1.7588104738500476 3.203769797040067 L1.7498187738500803 3.210668601040041 L1.7403103108500204 3.2260165010400357 L1.734832608850013 3.232605247040098 L1.7268744378500571 3.2381087860400015 L1.707547452850008 3.243069724040069 L1.6898741128500205 3.243069724040069 L1.6728208898499872 3.246893780039997 L1.6558710198500535 3.2632493700401284 L1.6473960848499871 3.2912321590400353 L1.6631057208500408 3.3037636940400574 L1.6853265868499818 3.314073142040044 L1.690783973850074 3.3257979970399987 L1.6952484618500705 3.3353896700401293 L1.6727175368500582 3.357739727040112 L1.6244517498500386 3.3726225400400693 L1.5417694578499663 3.385825868040044 L1.5515879798500407 3.347094382040112 L1.550037686850004 3.322289694040066 L1.5335012288500138 3.3062958390400325 L1.4720062748500027 3.2833773410400084 L1.4196063718499943 3.2556012590400627 L1.3909776288500098 3.2464286920400554 L1.337337491850036 3.242449606040097 L1.325881743850033 3.2396597370400997 L1.3133596268500014 3.2366101700400947 L1.2527617028500515 3.19246855004009 L1.2508058718500479 3.191043855040064 L1.2163112878500328 3.1659168100400876 L1.1561599198500119 3.134704246040016 L1.1462380458500832 3.1273403540400153 L1.138693285850053 3.117625185040069 L1.1330088788500063 3.107367412040091 L1.1255674718500757 3.0993575650401084 L1.1130617758500705 3.0962053030400654 L1.1035533118499927 3.1000035210400796 L1.0801955648500439 3.117573508040053 L1.068620043850018 3.1228961800400015 L1.0347203038500083 3.124911561040065 L1.0015440348500704 3.1233095920400302 L0.9781862868500468 3.1167983620400577 L0.957619066850043 3.104525209040119 L0.939222257850048 3.086748516040089 L0.9099733968500061 3.047655295040059 L0.9019118728500075 3.0470868550400922 L0.8937469968500125 3.053055482040108 L0.8810345948500355 3.0565436410400793 L0.8594338458500772 3.0547608050400896 L0.815095466850039 3.045019797040041 L0.7945282468500352 3.037061626040085 L0.777268318850048 3.0254602670400317 L0.7463658118500405 2.995746319040066 L0.7442621838499974 2.9944496620400542 L0.7088487218500461 2.97262111504007 L0.6987201408500141 2.9613298150400027 L0.6815635658500412 2.9331661590400557 L0.6694712808500469 2.9199886690400803 L0.6104567948500232 2.8748751440401037 L0.5687022378499762 2.8290381490400733 L0.5520624268500569 2.820201479040051 L0.4148098228500601 2.775062115040086 L0.38866154784997775 2.7587323630400675 L0.37233179485002665 2.7323773820400987 L0.3716083248500297 2.703645285039997 L0.39176213384999414 2.6804684060400774 L0.4138796468500061 2.6804684060400774 L0.42586857885007134 2.663518536040087 L0.43527368985002113 2.641142641040105 L0.4491229728500059 2.6246320210401137 L0.460078377850067 2.6223065810400925 L0.4856065348500067 2.6253296530400263 L0.4972854078499722 2.6249679170401095 L0.5090676348500836 2.6201103330401025 L0.5322186758499754 2.606751975040069 L0.5429673738500753 2.6044265360400374 L0.5598138908500516 2.6116870740400913 L0.5768671138499997 2.627680930040057 L0.5910264568500452 2.6468012100400387 L0.5992946858500829 2.663621889040016 L0.6071495038500245 2.6725102350400363 L0.6157277918500483 2.6640094610401235 L0.6282334878500535 2.642124493040072 L0.6403257728500478 2.6414010220400854 L0.6781529208500103 2.652433941040087 L0.6860077388500372 2.6488165910401023 L0.6881781498500459 2.6446566380400753 L0.685387621850083 2.6400832730400197 L0.6781529208500103 2.6351481750400723 L0.6732953368500034 2.6245803440400977 L0.6720551018500487 2.610705222040039 L0.6739154538500713 2.5962874980401267 L0.6781529208500103 2.5843502410400703 L0.7037844318499822 2.5660826230400318 L0.702130785850045 2.5396242890400202 L0.6781529208500103 2.4840462860400265 L0.658102465850078 2.451128399040087 L0.5558864828500134 2.3710557670401187 L0.502349698850054 2.3085272840401245 L0.47186060384996154 2.280001894040069 L0.437444099850012 2.2609074510400973 L0.42576522585002863 2.255584780040053 L0.4371340418500438 2.247523256040054 L0.4393044508500168 2.240443584040136 L0.43455021885003475 2.2278862120401044 L0.4344468668500099 2.2207548640400745 L0.4399245688499889 2.2112464000399967 L0.4485028568500127 2.205768698040103 L0.4691734288500413 2.2008594380400694 L0.4837461828500125 2.2002393200400974 L0.496975349850004 2.2037533180400573 L0.5222968018499898 2.2166724260400628 L0.5481350178500008 2.2341390600400217 L0.5610541258500064 2.2399784970400987 L0.5755235268500201 2.2394100560400574 L0.5904063398499773 2.2362061170400835 L0.6435297118500216 2.2334672660401367 L0.700477139849994 2.237601381040051 L0.7249717688500255 2.236051087040053 L0.7486395748499888 2.2298499160400667 L0.7897740148500532 2.207680726040124 L0.8068272378499728 2.1939864710401054 L0.8153021728499823 2.177553367040062 L0.8078607668499558 2.1587431450400487 L0.7953550698499612 2.1506816220400395 L0.7863633708500117 2.1529553840400553 L0.7802655518500501 2.158949850040088 L0.7766482008500759 2.161740378040051 L0.7673464428500552 2.156366029040086 L0.7510166908500082 2.1419999810400867 L0.7184605388499676 2.1282540500400415 L0.7126069348500721 2.1220710220400605 L0.6945860268499757 2.1030359510400984 L0.6790830968500643 2.092597311040052 L0.6727785728499782 2.086241111040053 L0.6706081618500548 2.0683610650400652 L0.66213322684996 2.0604545710401254 L0.6561387608500411 2.0605579240400544 L0.6448732988499728 2.068826153040092 L0.6389821858499829 2.070066388040132 L0.6319541908500526 2.0671725070400697 L0.6213088458499669 2.0594727180400554 L0.5775905838500819 2.0361666480400373 L0.5587803628500012 2.0220589810401037 L0.5524758378499826 2.0092432270400167 L0.550408780850006 1.9889343880401071 L0.5380064368500257 1.9674369930400673 L0.5207465088500385 1.9492985650401096 L0.5037966388500479 1.939066632040138 L0.4923244708500363 1.9374646620401137 L0.460078377850067 1.9430973930400484 L0.4459190348500215 1.9425289520400923 L0.4371340418500438 1.9405652480400448 L0.4164634678500079 1.933020489040004 L0.37357202985006666 1.9263025520400703 L0.35341822084998853 1.9196879690400834 L0.33533146984999007 1.903926657040003 L0.31311060385002065 1.8695618300400696 L0.3053591388500365 1.8496147270400485 L0.303602140850046 1.8305461240400547 L0.3121804278499951 1.8096688450400933 L0.3260297118500546 1.797111472040072 L0.3378119378500344 1.7824353650400866 L0.33977564285007134 1.755046856040039 L0.3237559478500316 1.710708477040086 L0.3263397708500406 1.6949471650401193 L0.3616864498500263 1.6865755830400389 L0.36954126785005315 1.6818213510400568 L0.37605249885004355 1.6750000630400876 L0.38173690584997644 1.6670418920401318 L0.38370060985002397 1.6599622210400327 L0.382667080850041 1.6439425260400498 L0.38473413885000696 1.637224591040038 L0.38969507585002816 1.6326770640400952 L0.40054712685000027 1.6281295380400564 L0.405094652850039 1.6248739230400844 L0.45212020684999743 1.567616436040126 L0.46648625484999684 1.5376441060400765 L0.4740310138500661 1.528394024040054 L0.484676358850038 1.520229148040059 L0.5048301678500309 1.5081368630400647 L0.5144419838500482 1.497801576040061 L0.5247772698500341 1.479301413040119 L0.5601239508500555 1.3586369440400432 L0.5642580648500655 1.3539860650400755 L0.5695290608500159 1.3530042130401085 L0.5730430578500432 1.3502653620400764 L0.5721128818500176 1.340136781040016 L0.5692190018500298 1.3318168750400474 L0.5650848878499914 1.3261324680401145 L0.5591937748500015 1.3221533830400318 L0.5533997518500371 1.3173873320400418 L0.5495819578499948 1.314246889040092 L0.5493752528500409 1.3151770650400323 L0.5466880768499891 1.3162622690401093 L0.5365594968500318 1.317037416040037 L0.5266376218500568 1.3145569470400602 L0.506587165849993 1.3009143690400577 L0.497698819850001 1.3009143690400577 L0.4894305908500485 1.3038599260400616 L0.480232185850042 1.3048934550400446 L0.4358938068500038 1.2981238410400948 L0.4259719318500004 1.2995191050400905 L0.4082985918500128 1.3048934550400446 L0.3982733638499667 1.3048934550400446 L0.39331242685003076 1.3000875460401318 L0.3895917238500033 1.2917159640400513 L0.38328719885001306 1.2857214980401324 L0.37067814884997574 1.2878402310401071 L0.280967862849991 1.3342973440401096 L0.26484481585001163 1.3384314590400521 L0.24417424284999356 1.340550192040027 L0.2122382078500209 1.3476298640400586 L0.19074081185007685 1.3184326800400328 L0.18784693185000378 1.298330548040056 L0.2148220298500405 1.2875818500401266 L0.22836125485000025 1.29063075904007 L0.24851506284997527 1.3062887180400224 L0.2630878168500317 1.3075806290400607 L0.2750767498500011 1.3024129860400677 L0.28427515485000754 1.2939380510400582 L0.2999847898500718 1.2750244770401054 L0.30949325384995063 1.2708386860400793 L0.3209654208500581 1.2673246880400342 L0.3280967688500027 1.2600899880400647 L0.32406600785000705 1.244845440040038 L0.31497095485002546 1.2377140920400933 L0.2945070878500644 1.2432434710400884 L0.28365503685003546 1.2361638000400745 L0.28158798084996306 1.225983542039998 L0.2848952718499618 1.2137879050400926 L0.2896495028499544 1.2017472950401071 L0.29181991385004835 1.1923421850400615 L0.29068303185005107 1.181851869040102 L0.2824148028499849 1.1523446260400902 L0.2786940998500711 1.1283150850400574 L0.2755935138500263 1.1186515920401376 L0.26794540185005644 1.1061975720400454 L0.2605039958500299 1.0996863420400729 L0.25058212085005493 1.0926583470400857 L0.24262394985007063 1.0849068820400731 L0.24128036285000576 1.0760185350400633 L0.25647323385004483 1.0664067190401312 L0.3124904868500664 1.070385804040015 L0.33409123485003533 1.0672335420400572 L0.3381219968500204 1.0511104960400957 L0.3252028888500149 1.0321969210400397 L0.318278246850042 1.017469138040056 L0.3402924068500113 1.0137484350400285 L0.35217798685005164 1.0182959610400673 L0.37098820785004705 1.0374679170400753 L0.38173690584997644 1.045219382040088 L0.4009605388500006 1.0503870250400809 L0.4223545808500262 1.0513172010400496 L0.46421249185007696 1.0474414690400948 L0.4691734288500413 1.0449093230401019 L0.47217066285006126 1.0404134740400792 L0.4758913658500603 1.0360209770400814 L0.4831260658500298 1.0337472140400763 L0.4877769448500828 1.0355558890400545 L0.4958384678499783 1.044289206040034 L0.5006960528500031 1.04671799804008 L0.5870990478499891 1.0439274710400497 L0.5903468478500429 1.0416402880400568 L0.6017751548500598 1.0335921850401206 L0.6042556228500473 1.0101310840400544 L0.593713630849976 0.9899772750400615 L0.5744899978500371 0.9836727510400607 L0.48616727589636355 0.976954397119222 L0.45632439459573604 0.970291529596409 L0.3935965342078269 0.9483417123175926 L0.35489978058361515 0.9370931486626048 L0.30056453884883894 0.9145388763773212 L0.2952305578499761 0.8933940240400347 L0.2926467368500596 0.8841439430401152 L0.27937379457226896 0.8740401706245962 L0.26361657446918585 0.8698391325394539 L0.2493600856821736 0.8678692965424659 L0.22665720979648896 0.8681277186714595 L0.21057986716817823 0.8598418700533301 L0.2039401605070701 0.8537303863758154 L0.19285150260728656 0.851176687692373 L0.1921057138121256 0.8510049379630402 L0.17390883497028042 0.8420557778483229 L0.17194485583477004 0.8221348936917963 L0.19376972801805437 0.8134897467930813 L0.2190370944980593 0.8108726311916641 L0.22773610764097185 0.797063483290529 L0.21285015569182875 0.7797066864954871 L0.19869978950666223 0.7695780996541828 L0.1935614641194725 0.7577475868174801 L0.19280786985004283 0.7394499320401025 L0.20603703585004496 0.7145935690400478 L0.2143435948500496 0.7154572480400105 L0.2736298098500072 0.721621563040074 L0.30267196484999204 0.7016227830400368 L0.29150985484997705 0.6872050590400107 L0.2786940998500711 0.682089092040016 L0.2642246988500574 0.6798670060400269 L0.2473781818499674 0.6743376280401066 L0.2373529538499497 0.6682398090400596 L0.23290878085003897 0.6637956350400458 L0.22980819484999415 0.6586279920401381 L0.2236070228500182 0.6506698210400685 L0.21451197085005447 0.6458639140400777 L0.20562362485003405 0.6477759420400986 L0.19704533685001024 0.6520650850400642 L0.17957870285005129 0.658524640040028 L0.16955347485003358 0.6669995740401049 L0.15663436685002807 0.6741309210400601 L0.13813420484999028 0.6743376280401066 L0.1284190338500366 0.6677230440400166 L0.10847193185003334 0.6450370900400486 L0.09999699685002383 0.640179506040127 L0.10340764185005469 0.6316012180401032 L0.10464787585007684 0.612842673040106 L0.10878198985002996 0.5940324520400821 L0.12087427585001365 0.5855575170401011 L0.1318296788499822 0.5798731090400366 L0.15932154085004413 0.553156394040073 L0.16490259585006584 0.544526430040051 L0.15911483585000497 0.5302120580400498 L0.1445420818500338 0.5212203580400256 L0.1274888588500005 0.5143473930400404 L0.11374292784998374 0.5066992810400706 L0.10537134584998853 0.4938318490400633 L0.10123723184997857 0.4634977840400296 L0.09658635184999298 0.4483565890400172 L0.06754419785002597 0.4232935190400866 L0.06041284984996764 0.4147152310400628 L0.04511662585002796 0.4037081520400676 L0.04139592285000049 0.3975586560400046 L0.04315292184998043 0.39326951204004956 L0.04677027185005045 0.38903204504008215 L0.048837328850027006 0.3831926080400052 L0.05173120885001481 0.3559074520400003 L0.08356389085005844 0.35378871804012135 L0.09617294084998207 0.35187669004010047 L0.10340764185005469 0.3453137830400266 L0.10041040785003474 0.3375623180400993 L0.08986841685006652 0.3293974420400758 L0.06930119584998806 0.3180286270401069 L0.07839624785006549 0.31063889704007863 L0.0862510668499965 0.3053679010400714 L0.10340764185005469 0.2975647600400322 L0.09772323385001869 0.28206183004012075 L0.15911483585000497 0.28531744504012124 L0.17823511585007168 0.2914152640400829 L0.18391952385002241 0.2894515590401312 L0.185159757850073 0.2862476210400615 L0.18288599485003942 0.2820101530401047 L0.17523788184996647 0.27348354204009695 L0.1741010008500723 0.2697628390400979 L0.17513452885003744 0.2660938120400971 L0.17823511585007168 0.26247646204002706 L0.2020062748500493 0.2506942350401147 L0.2273277268500351 0.2532263810400792 L0.24500106585003323 0.24981573604007679 L0.24613794785003051 0.22015346404010927 L0.26184758285000953 0.20123989004007115 L0.2848952718499618 0.19441860104002728 L0.30742619584998465 0.20030971404001718 L0.3222056558500128 0.21999843504006833 L0.3222056558500128 0.22015346404010927 L0.3444265218500391 0.2291968400400748 L0.4320697508500473 0.23555304104009167 L0.45987167085002056 0.23183233804009262 L0.4712404868500073 0.22165208004001613 L0.4758913658500603 0.20945644204009284 L0.48333277185000156 0.19710577504004334 L0.4947320148500012 0.1911417380400593 L0.5033832268500191 0.18661545903999865 L0.5215733318500781 0.1837732550400375 L0.5585736568500295 0.18361822704007125 L0.5753168208500767 0.17958746404009673 L0.5855487548500662 0.1717326470400593 L0.5929901608500643 0.16170742004003102 L0.6011550378499919 0.15302577804006035 L0.6136607338500824 0.1489433400400486 L0.624719490850083 0.1477547820400531 L0.6332977778500322 0.14527431404006563 L0.6501442948500085 0.13571417304005706 L0.6572756428500384 0.1287895320400736 L0.662339932850017 0.12129644904005943 L0.6693679278500326 0.1145785120401257 L0.6957229088500014 0.10465663804002645 L0.6931390868499818 0.09638840804008453 L0.6856976808499837 0.08724168004009414 L0.6839406818500038 0.0790251270400546 L0.6984100828500175 0.06765631304007513 L0.7216644768500373 0.05685593804004441 L0.7463658118500405 0.04910447304003185 L0.7648659748499824 0.0468307100400267 L0.7861566648499831 0.04729579804005368 L0.8442409748500381 0.039389304040000184 L0.8657383708499822 0.04016445104009847 L0.8865122958500251 0.04486700604009286 L0.9083061258500038 0.05455466204004722 L0.9694012938500407 0.0817123020400885 L0.9868679278499997 0.08419277004007597 L1.0700663198500422 0.060272142040091126 L1.0853632078500652 0.055874086040077486 L1.1255674718500757 0.04972459004009977 L1.1895428948500637 0.053858705040127575 L1.2314008048500398 0.07029181004007512 L1.2598228438500598 0.06796637104007175 L1.285040942850003 0.059129701040049554 L1.2948594648500773 0.05830287804003831 L1.3111892168500106 0.061041729040070436 L1.3165635658499752 0.06403896204010096 L1.3267954988499753 0.07390916004005987 L1.3344436118500482 0.07680304104006552 L1.341781664850032 0.07618292404008287 L1.3668964118499503 0.06775966604008943 L1.3848798088500303 0.07287563204009473 L1.4392434168500188 0.10517340204008008 Z" fill="black" stroke="black" stroke-width="0.5" vector-effect="non-scaling-stroke"/></svg>