<svg xmlns="http://www.w3.org/2000/svg" viewBox="0 0 1.043455484460054 0.5481045286200157"><path d="M0.2818502027299843 0.5427309548100183 L0.14604007923004758 0.27489609630998046 L0.010229955729997187 0.007061237809942611 L0.01571657672998583 0.0074406318099633495 L0.057471133730032875 0.005373573809997367 L0.0758679437300458 0.011884803809969924 L0.08982057973004487 0.024597206810021532 L0.11338503373004016 0.052502479810009106 L0.1293013747299625 0.0635612368100098 L0.147904890730004 0.07002079080998413 L0.1686788167299511 0.07353478780992617 L0.20929649172997244 0.07451663981000678 L0.2504309327299694 0.06857385080999023 L0.2719283277300093 0.06816043980997932 L0.29104860772999075 0.07306969981001288 L0.30396771572999626 0.08216475280996605 L0.3251550537300574 0.1053674698099698 L0.3381775137300025 0.11518599280994835 L0.37414431072996024 0.1277950418099678 L0.4104211657300567 0.13001712880997474 L0.48369834772996967 0.12247236980993392 L0.5139807367300051 0.12515954380994998 L0.5382686597299795 0.13533980081000863 L0.5848808017300513 0.16712080680996877 L0.616610130729967 0.18117679680997156 L0.6456522857300371 0.18376061880999117 L0.7093176507300569 0.1760091538099786 L0.7450777417299861 0.17471724281002565 L0.752487392730032 0.17573374781000695 L0.8934924557299979 0.1950777568099724 L0.9225346107300112 0.19047855480999232 L0.9496130607300444 0.17776615180996913 L0.9803088617299665 0.15885257781001627 L0.993227969729972 0.15508019880999058 L1.006457136729992 0.15420169881004853 L1.033225528730057 0.15776737280992137 L0.6575378657299922 0.3502491638099272 L0.2818502027299843 0.5427309548100183 Z" fill="black" stroke="black" stroke-width="0.5" vector-effect="non-scaling-stroke"/></svg>