<svg xmlns="http://www.w3.org/2000/svg" viewBox="0 0 3.079237483560064 3.1381180229399774"><path d="M3.049048880780063 1.5421464779699647 L3.0483770867800644 1.593822909970001 L3.0176296097800304 1.716425245970001 L3.000007945780041 1.7544849389699522 L2.997992564780006 1.7770158619699714 L3.0052789417800767 1.805231194970034 L3.0131337587800857 1.825126620970039 L3.0103432317800554 1.84365262196998 L2.985745250780056 1.8674237809699434 L2.9663665877800867 1.87856005196997 L2.9467295437800516 1.8846578709699315 L2.9262139997800745 1.8875000749699922 L2.845547089780055 1.887913485970003 L2.825548310780036 1.8909365579700221 L2.8020355337800567 1.90248623996996 L2.7873077507800446 1.9207021819700145 L2.7641050317800335 1.9635677829699603 L2.753459687780051 1.9736188489699913 L2.728138235780065 1.9875456479699807 L2.7191465357800126 1.9949095399699814 L2.7150640977800293 2.0042629739700146 L2.7136171577800354 2.015993523969996 L2.7160976267800123 2.2577358739699918 L2.693153290780046 2.2612498719699516 L2.685866914780078 2.263730340970014 L2.6386863317800504 2.289206820970037 L2.600704153780029 2.3212978849699653 L2.467259617780016 2.4830880149699937 L2.4566819367801003 2.4959125509700044 L2.445571503780073 2.504594190969968 L2.432290660780083 2.510278598970004 L2.394256806780035 2.5190119149699797 L2.3533807487800544 2.541852898969978 L2.2049660347800994 2.6587449879699534 L2.1870717347800195 2.6815783379699383 L2.1220253607800004 2.764578321969992 L2.113395396780035 2.7726915219700032 L2.0310748407800787 2.8096918469699546 L2.0140732937800436 2.813205844970014 L1.9792433787800832 2.8675177749699685 L1.9611566277800563 2.8841575859699873 L1.95805604178004 2.887929965969917 L1.9606915397800577 2.8983686059699494 L1.9748508817800001 2.9214162939700117 L1.9781581737800735 2.9339736669700187 L1.9761427927800383 2.942706983969998 L1.9708201197801003 2.9481330089699753 L1.9633787137800738 2.950820183969995 L1.9415712597800479 2.9532489759700553 L1.938367320780074 2.959915235969973 L1.9419846707800588 2.980069044970037 L1.9397625847800697 2.9950035339700065 L1.9335614127800653 3.0139687839699576 L1.9240012727800746 3.030401889969937 L1.896612763780027 3.0459564959699605 L1.892426972780001 3.0629063659700506 L1.8945457067800788 3.0882278169699475 L1.8867942407800768 3.092827019969988 L1.855099084780008 3.1073521599699774 L1.8384975217800132 3.0940058059700135 L1.7973598267800384 3.084647081969976 L1.7773402957800357 3.074230415970007 L1.7583787067800216 3.0609654419700263 L1.7432826787800053 3.0478225379700206 L1.7523158817800066 3.046357693970023 L1.756995243779997 3.0441604289700166 L1.7600063107800423 3.0404576289699747 L1.7637904907800106 3.0341506629700206 L1.7357550087800035 3.0334589309700135 L1.723547977780001 3.035371365970022 L1.7154099567800216 3.0409866009700153 L1.7091436807800022 3.0409866009700153 L1.7000697877800093 3.0185256629700206 L1.6861130817800216 3.00399929596999 L1.633134566780015 2.9597284629700056 L1.491695764780033 2.877778592969989 L1.2575649047800397 2.793183865970022 L1.0164353477800177 2.6977655719700095 L0.8247035767800384 2.636933865970022 L0.855099084780008 2.611665311969986 L0.8916794877800243 2.610281847969972 L0.9291143837800035 2.6221633579699954 L0.9618292277800009 2.636933865970022 L0.960201623780037 2.6281448039700166 L0.955400191780015 2.621756456969976 L0.9478725217800132 2.617768826969993 L0.9379848267800384 2.6164260539700166 L0.9302537067800216 2.6142287879700206 L0.9221156857800423 2.6020624469700095 L0.9140590457800357 2.5959589309700135 L0.8953822877800093 2.5885940219700245 L0.8847621707800357 2.587658149970011 L0.8670212847800229 2.597138943970023 L0.8585170537800053 2.592785102970012 L0.8503383427800344 2.5855422649699875 L0.8420375607800423 2.5817173949700276 L0.838863732780041 2.573172472969972 L0.8476527957800357 2.5544143349700192 L0.8605108687799969 2.535615506970018 L0.8793096967799983 2.5192580849700192 L0.8897670537800053 2.503917915970007 L0.9029506467800132 2.493175727970012 L0.920894982780041 2.4991164829699954 L0.9318813107800423 2.493908149970011 L0.9434779907800106 2.492199165970007 L0.9686244747800146 2.4923619259699734 L0.9737514287800053 2.491222602970012 L0.9858363897800331 2.4870315219700245 L0.9925502567800066 2.486095649970011 L0.9998337847800229 2.4882115349699774 L1.0119594357800423 2.497244738970025 L1.0164760377800093 2.4991164829699954 L1.0362107377800243 2.493664008970015 L1.0532192017800384 2.4833694129700206 L1.0724249307800022 2.474376899970011 L1.0990362587800035 2.4730748169700263 L1.0970017537800203 2.469656847969972 L1.094723107780041 2.4622512489699915 L1.0928513627800243 2.458751899970011 L1.1110805297800397 2.4532994259699734 L1.1295131467800132 2.4507766399699875 L1.1431850217800132 2.443696561969986 L1.147457482780041 2.424043240970022 L1.140011193780012 2.424043240970022 L1.133785607780041 2.425548774970011 L1.127031050780019 2.4259556759699734 L1.1199916627800093 2.4270136189700082 L1.1132777957800357 2.4308791789700166 L1.1074184207800357 2.4218052849699774 L1.1058315067800066 2.417817654969994 L1.0959438107800423 2.419689399970011 L1.0845505817800216 2.42001492096999 L1.0750290977800177 2.4216018349700192 L1.0711228477800177 2.4274612099700192 L1.0685186807800022 2.436128201969993 L1.062008264780033 2.4404006629700206 L1.044430139780033 2.445161404969994 L1.0326300087800035 2.4507766399699875 L1.0134242797800397 2.4513463009699734 L1.0035772747799996 2.453584256970018 L0.9830287717800132 2.463349881970018 L0.961259566780015 2.4675002719700245 L0.9399379517800384 2.4762893349700192 L0.9277309207800357 2.4792597129700056 L0.9212611937800119 2.47860867096999 L0.9012009727800177 2.474092068970023 L0.8902146447800163 2.4730748169700263 L0.8675502567800066 2.4647740349699774 L0.8602260377800093 2.445649686969986 L0.8549770147800331 2.4245722129700056 L0.8382940717799983 2.410371365970022 L0.8382940717799983 2.4042271599699774 L0.8432582647800331 2.3996291789700166 L0.8460658817800066 2.3937698039700166 L0.8467983037800053 2.3860793739699915 L0.845781050780019 2.3762323689700082 L0.8382533817800066 2.383027615970022 L0.8309291627800093 2.3876662879700206 L0.824296675780019 2.388195258970015 L0.8184779907800106 2.3824986449700276 L0.8116420537800053 2.3824986449700276 L0.8116420537800053 2.396699490970022 L0.7873500607800423 2.3732213009699734 L0.7998826127800243 2.339692654969994 L0.8382940717799983 2.2868362099700192 L0.8546514937799969 2.295503201969993 L0.8600225867800049 2.3005080849700192 L0.8662888627800243 2.2936721469700245 L0.860348107780041 2.2806106239699915 L0.8594936157800106 2.2668166789700166 L0.8653529907800106 2.256196561969986 L0.8793096967799983 2.2526972129700056 L0.8591274047800397 2.239106717969989 L0.8411423787800203 2.2548537879700206 L0.8116420537800053 2.3005080849700192 L0.761796675780019 2.331229113970025 L0.7294073527800009 2.3429885539700166 L0.7148402957800357 2.331554633970015 L0.707109175780019 2.3320022259700153 L0.642900191780015 2.319835883970015 L0.6364711547800397 2.3196731239699915 L0.6300421187799969 2.318696561969986 L0.6198695927800344 2.314790311969986 L0.5800746707800357 2.2867955199700276 L0.5655483037800053 2.280203722970029 L0.5532192017800384 2.270967068970023 L0.5441046187799969 2.2526972129700056 L0.5407680297800397 2.234386665970007 L0.5437790977800177 2.222179633970015 L0.5538295537800053 2.213349881970018 L0.5714483687799969 2.204927029969994 L0.5533819617800049 2.2077753379700056 L0.5025600217800132 2.2284866009700153 L0.455400191780015 2.198091092969989 L0.4419724567800216 2.17196804596999 L0.43269511278002426 2.161063097970029 L0.41755839478001633 2.1565058059700135 L0.40665344677999826 2.151826443970023 L0.3934291627800093 2.140392524970011 L0.3721889287800053 2.115571561969986 L0.39184224878003704 2.111665311969986 L0.4257777957800357 2.092622342969989 L0.44457662378003704 2.088227811969986 L0.4602830037800203 2.0902623169700263 L0.4768031857800423 2.095185818970023 L0.5100063107800423 2.1093459759700153 L0.48982401978001633 2.088797472970029 L0.46443339478001633 2.071300727970012 L0.4428676397800331 2.0514846469700245 L0.4260219357800423 2.0026972129700056 L0.4240688107800423 1.9994826939700232 L0.41951151978001633 1.996105415970007 L0.4212205037800203 1.9884963659700219 L0.4274867797800397 1.975272081969976 L0.4298061157800106 1.9611119259699734 L0.4361130817800216 1.9471959099699774 L0.4449835247799996 1.9344192179699888 L0.455400191780015 1.9237584099699774 L0.4232143187800119 1.9193638789699747 L0.40978658478000796 1.9068313269699928 L0.4018520147800331 1.8874221469700245 L0.3864711547800397 1.8622756629700206 L0.375077925780019 1.8545852329699954 L0.3615688107800423 1.8489699989699915 L0.35021627178001324 1.8405471469700245 L0.34557759978001457 1.8244338659700219 L0.34618795178003836 1.8100702589700148 L0.34830383678000487 1.7969680459699902 L0.352535607780041 1.7847610149699875 L0.35920878478002294 1.7729201939700232 L0.3501755817800216 1.7746698689700082 L0.34439758678000487 1.7785354289700166 L0.3392299437800119 1.7829299599700192 L0.33186503478002294 1.7865920689700232 L0.3249477177800344 1.7880569129700206 L0.32067525678000663 1.7878534629700056 L0.3159145147800331 1.7870803509700153 L0.30769511278002426 1.7865920689700232 L0.2635870407799956 1.793428006970018 L0.24084127178001324 1.8021763789699747 L0.21337545178003836 1.8179641399699875 L0.18855448778002426 1.8370071079699954 L0.17358052978003968 1.855480415970007 L0.16735494378001192 1.855480415970007 L0.16955220978000796 1.8396112749700109 L0.16735494378001192 1.7971308059700135 L0.1630011027800009 1.776053331969976 L0.16247213178000663 1.7637649209699902 L0.16735494378001192 1.752412381970018 L0.15563619378001192 1.7430129679699888 L0.12100891577999562 1.6877151159700219 L0.11901509978001457 1.6872675249700109 L0.11681783478000796 1.6836867959699902 L0.11213847278001765 1.6830764439700232 L0.10741842078003572 1.6811233189700232 L0.10534322478001457 1.6735956499700109 L0.10025696178000487 1.6629348429699888 L0.07486633678000487 1.629568956969976 L0.06762349878003704 1.6250930459699902 L0.0632289677800344 1.6153274209699902 L0.05712545178003836 1.6058873169700263 L0.04451151978001633 1.6022658969700245 L0.05834615478003968 1.584891222970029 L0.06274068578004233 1.5768752719700245 L0.06432759978001457 1.5640578899699875 L0.06160136278002426 1.5546584759700153 L0.04858052978003968 1.535818956969976 L0.04451151978001633 1.526541613970025 L0.06579244378001192 1.529756131970018 L0.07177388978003307 1.5333775509699734 L0.07860982678003836 1.5292271599699774 L0.08092916278000928 1.5316685669700263 L0.08544576478003307 1.540213488970025 L0.10237284778001765 1.5330520299699941 L0.12052063378000355 1.5333775509699734 L0.13830220978000796 1.5389927849699774 L0.15372375878000355 1.5476190879700056 L0.16641907177999826 1.5617792439700082 L0.18688619378001192 1.5955520299699941 L0.22126933178002162 1.6135370559700135 L0.24560201478003307 1.6363235149699875 L0.27091125878000355 1.6540643999700109 L0.2888555947800313 1.6513788529700122 L0.2977260377800093 1.6500767699700276 L0.2977260377800093 1.643240831969976 L0.28551900678000663 1.6405552849699774 L0.27502095978000796 1.6355910929699888 L0.26745259978001457 1.627615831969976 L0.2635870407799956 1.615897081969976 L0.27721822478001457 1.615897081969976 L0.27721822478001457 1.6091018349700192 L0.24792134978001457 1.6023879679699888 L0.22033345978000796 1.592947863970025 L0.20568502178001324 1.5777297649699875 L0.215165816780015 1.5538039829699954 L0.22692525678000663 1.5451369909700219 L0.2569545537800053 1.5336216919700263 L0.2697719357800423 1.526541613970025 L0.2772589157799956 1.5165725379700206 L0.28336243078000223 1.5057082799699941 L0.291337691780015 1.500011665970007 L0.30456197478001457 1.5060744909700219 L0.3041957647800331 1.4945591919700263 L0.30712545178003836 1.483572863970025 L0.31213033478000796 1.4736444779700122 L0.31823384978001457 1.4650588659700219 L0.32799947478001457 1.467703722970029 L0.39416158478000796 1.4724237749700109 L0.4129604127800093 1.4775507279700122 L0.4240688107800423 1.4787307409700219 L0.43228821178000487 1.4758010539700166 L0.45230774377999694 1.4619257279700122 L0.46158508678000487 1.4576125769699928 L0.44323384978001457 1.4537063269699928 L0.421952925780019 1.4562698039700166 L0.4031947877800093 1.4546015089700148 L0.4009568317800216 1.4433303509700153 L0.4001430297800397 1.4439407019699928 L0.41934875878000355 1.419933540970007 L0.455400191780015 1.3415643999700109 L0.4304164677800344 1.3719192179699888 L0.414384566780015 1.3991408969700245 L0.394853316780015 1.4197707799699941 L0.35920878478002294 1.430350206969976 L0.34142720978000796 1.4294550249700109 L0.3264125607800423 1.4266067179699888 L0.3132289677800344 1.4266067179699888 L0.2873500607800423 1.442068956969976 L0.2694464157799956 1.4435744909700219 L0.2528041627800093 1.4377558059700135 L0.242509566780015 1.4240839309700135 L0.2650111937800119 1.419933540970007 L0.2768520147800331 1.4078078899699875 L0.28694315978002294 1.3934035929699888 L0.30456197478001457 1.3825393349700192 L0.30456197478001457 1.3757033969700245 L0.2956508427800344 1.3742792439700082 L0.29019836877999694 1.3724888789699747 L0.2866176397800331 1.3687453899699875 L0.2834438107800423 1.3620315219700245 L0.27721822478001457 1.3620315219700245 L0.26773743078000223 1.3928339309700135 L0.2606573527800009 1.4047968219700095 L0.2493455037800203 1.4098423949700276 L0.23327291278000928 1.4048782019699928 L0.21911275678000663 1.3928339309700135 L0.20092427978003968 1.3688674599700192 L0.19067037378003704 1.3745233839700148 L0.18285787378003704 1.3733840619699862 L0.17724263978003307 1.3666701939700232 L0.17358052978003968 1.3558059369699862 L0.1686977177800344 1.3727737099700192 L0.17699849878003704 1.383719347970029 L0.1921352177800344 1.3907180459699902 L0.20837056878001192 1.3962112099700192 L0.19469869378001192 1.403006456969976 L0.22224589478001633 1.4234328899699875 L0.22379211877999694 1.445771756970018 L0.20914368078000223 1.4672154419700263 L0.18786275678000663 1.4849563269699928 L0.19205383678000487 1.4933791789700166 L0.19201314678001324 1.5022903119699862 L0.18717102477999958 1.5093703899699875 L0.17699849878003704 1.5122186969700095 L0.1688604777800009 1.5091262489699915 L0.16275696178000487 1.5015578899699875 L0.13622701478003307 1.4576125769699928 L0.12878072478001457 1.4418248169700263 L0.12243306878001192 1.4124465619699862 L0.11437642878000531 1.3942173949700276 L0.10412252178001324 1.3771275509699734 L0.094723107780041 1.3654494909700219 L0.09008443578004233 1.3545852329699954 L0.08927063378000355 1.3381464309700135 L0.09106099878003704 1.3073847129700056 L0.09606588178000663 1.3068557409700219 L0.09106099878003704 1.2009393999700109 L0.11901509978001457 1.1696487099700192 L0.13036763978003307 1.1669631629700206 L0.13476217078003572 1.1704218219700095 L0.13809875878000355 1.1769729289700166 L0.14631815978002294 1.1832798949700276 L0.22314107678003836 1.1827102329699954 L0.23909159778001765 1.180146756970018 L0.2594366497799996 1.1712356239699915 L0.2882045537800053 1.168428006970018 L0.34557759978001457 1.1696487099700192 L0.30431783478000796 1.1570754679699888 L0.2977260377800093 1.1600051549699941 L0.29019836877999694 1.1655390089700148 L0.27306783478000796 1.1656203899699875 L0.25451314678001324 1.1620396599699774 L0.242509566780015 1.1565871869699862 L0.231441857780041 1.1613479289700166 L0.21545064678001324 1.1643996869699862 L0.20092427978003968 1.1626907019699928 L0.19469869378001192 1.1528436969700095 L0.1915248657800106 1.1453567179699888 L0.184566857780041 1.1433222129700056 L0.17736470978000796 1.143484972970029 L0.17358052978003968 1.1423049599700192 L0.172848107780041 1.1344924599700192 L0.17541158478000796 1.1314407019699928 L0.178707482780041 1.1296503379700056 L0.18863586877999694 1.110037706969976 L0.20865539977999958 1.100760363970025 L0.2335170537800053 1.0962844519699928 L0.256181441780015 1.0951451289699747 L0.256181441780015 1.0876581499700109 L0.23876607678003836 1.0821242959699902 L0.21618306878001192 1.0861526159700219 L0.17358052978003968 1.1013300249700109 L0.15030579077999562 1.1037307409700219 L0.12515930578000223 1.0984003379700056 L0.10554667578001897 1.0842401809700135 L0.09846659778001765 1.0603957799699941 L0.09460103778000928 1.0648716919700263 L0.09236308178002162 1.0654006629700206 L0.09130513978003307 1.0669875769699928 L0.09106099878003704 1.074678006970018 L0.07641256078004233 1.0603957799699941 L0.07079732678003836 1.0614944129700206 L0.06896627178001324 1.0655227329699954 L0.066728316780015 1.0688593219700095 L0.06432759978001457 1.074678006970018 L0.042843224780014566 1.057303331969976 L0.04626119378001192 1.0097366009700153 L0.030188602780000906 0.9914667439700082 L0.030188602780000906 0.9852818479700289 L0.05390870278004911 0.9681763449700043 L0.09765280278004695 0.9547146339699566 L0.12374940078002794 0.9500637549699888 L0.13951071278002303 0.9537844579699879 L0.1774412137800283 0.9774522639700223 L0.20023052078001058 0.9853070819699639 L0.21537171478003359 0.982826612969987 L0.24570578078005667 0.9607866149699902 L0.28428223778006156 0.9422347749699611 L0.3024206657799908 0.9307884449699486 L0.31603740578007944 0.9140194439699911 L0.32924073377996876 0.8826518489699708 L0.3374831247800074 0.8680790949699997 L0.34712077978004174 0.8544623549700106 L0.3528051867800599 0.8515684749700227 L0.3684889847800292 0.8500698579700128 L0.37213217178002367 0.8489329769700049 L0.371072805780031 0.8406905859699663 L0.35735271278001335 0.8239732599699323 L0.3529343777801017 0.8139221939699866 L0.3575335807800428 0.7851900969699841 L0.3733724077800531 0.7543392669700069 L0.394275524780042 0.7396889989699247 L0.41375753878004673 0.7597652929699734 L0.435642508779992 0.7482672869699627 L0.4551761997800696 0.7469236999699831 L0.4743998327800085 0.7482672869699627 L0.4954579787800384 0.7448049659699194 L0.5121494657800696 0.7309815199699585 L0.5360239777800615 0.6916815929699851 L0.5533614207800639 0.6829224379699923 L0.5671331897800229 0.6790983819699647 L0.5677274687800633 0.6714244319699816 L0.5637225457800668 0.6623810569699202 L0.5634900017800106 0.6544487239699635 L0.5715256867799923 0.6439325699700049 L0.5772100937800388 0.6389716329699553 L0.5940566107800151 0.6295406829699886 L0.5983457547800839 0.6302641539699891 L0.6034358837800795 0.633648959970003 L0.6083451447801025 0.634682488969986 L0.6122467147800563 0.6284038019699807 L0.6148305377800654 0.6223576599700351 L0.6181636667800632 0.6186111179700191 L0.6250883087800645 0.6128233579699582 L0.6296875107801014 0.6065446719700418 L0.6637681187800553 0.49807583996997096 L0.6639748237800092 0.49306322596991947 L0.6620111197800753 0.488541538969983 L0.6626570747800571 0.4844074239699694 L0.6703310257800439 0.48073839696996856 L0.6760154327800905 0.4790330749700047 L0.6792193717800643 0.4773277529700266 L0.681363943780056 0.47466641597000603 L0.6839994417800455 0.47014472796998064 L0.6927327587800249 0.4373560319699834 L0.6974353137800193 0.4289069349699872 L0.7066853957800134 0.42549629096996 L0.7164264027800726 0.42668484896998393 L0.7244620887800437 0.42606473097001185 L0.7285186877800669 0.4174089289699623 L0.7297330837800899 0.3750600919699565 L0.7327044787800077 0.3719078299699987 L0.749034231780044 0.34340827796995654 L0.7582067977800335 0.3342098729699501 L0.7892643337800536 0.3154513279700524 L0.7925199497800435 0.3148570489699978 L0.793811859780007 0.31105883196995876 L0.7936309927800522 0.2988373549700327 L0.7955946967800713 0.29397977096992634 L0.8005556347800251 0.29392809397000974 L0.8057232777800465 0.2947032399700191 L0.8088238637800629 0.2923002869699616 L0.8084104517800625 0.2873393489700078 L0.8046380727800369 0.2761514009699795 L0.8040179557799689 0.27315416796996317 L0.8176605337800851 0.1989468109699999 L0.8175571807800424 0.18843065696994188 L0.8162911077800885 0.18166104496999935 L0.816962901780002 0.1754598729700092 L0.8229573677800062 0.1663906589699593 L0.8589500027799915 0.14551338096998734 L0.9042960727800136 0.12915778996993765 L1.054545299780031 0.09750597497003355 L1.0776963407800366 0.09835863596997285 L1.0956797397800102 0.11001167197002815 L1.1138956817800505 0.12621223297003326 L1.137641002780029 0.14070747296997865 L1.1564512237800244 0.14758043797003495 L1.1729360057801017 0.1511719499700206 L1.1899375517800337 0.15189541997001754 L1.221477709780018 0.14509598796999512 L1.40951071278009 0.104559807969963 L1.4163320017800487 0.09528388797002663 L1.4211895857800556 0.034254021969957194 L1.8464098377800582 0.031927117969985375 L2.0586183787800536 0.030765862970000057 L2.0839915067800376 0.03337552297000457 L2.117839569780031 0.04340074997003285 L2.1316888537800054 0.04461514696997426 L2.142747610780006 0.05417528596996135 L2.150033987780077 0.07639615197000182 L2.163624888779978 0.14230944097000986 L2.1710146187800063 0.15401415396999596 L2.2453253287800834 0.20060045797004022 L2.28635641578002 0.23964200196995478 L2.3211863317800834 0.2840320579700091 L2.344957489780043 0.3290163919699438 L2.3566880407800426 0.3629936459699792 L2.3627858597800895 0.3725279479699708 L2.368366913780008 0.37599026796999624 L2.3846449897800284 0.3819330589699206 L2.3911562207800188 0.38707486297001026 L2.3954970407800005 0.3948780049699394 L2.4022149767800016 0.4210779559699631 L2.40960470678003 0.43087063997000996 L2.4352362177800018 0.44846646496999654 L2.4449513867800334 0.458362500969983 L2.4484653837800607 0.4666048929699258 L2.4535813507800555 0.4940967539699983 L2.4607126977800107 0.5033726739700057 L2.471099660780041 0.5082302589699452 L2.4786960967799843 0.5146898129699906 L2.4776108917800883 0.5289008309700449 L2.4721848667800117 0.5537830339700065 L2.4764223337800644 0.5715080509700243 L2.4873260607800347 0.5865200539700055 L2.502208873780077 0.6028239689700285 L2.5178668327800295 0.6128750349699743 L2.519830536780077 0.6185077659699942 L2.50913351578005 0.6258716569699914 L2.4995216987800433 0.6346308119699842 L2.5119240427800236 0.6387132499699817 L2.529597382780011 0.6394883969699947 L2.5360569367800707 0.6382481619699689 L2.5458754587800314 0.6395400739700108 L2.5565208037800318 0.6394367209699823 L2.565822560780063 0.6415554539699571 L2.5778114937800325 0.6592029559699597 L2.589748749780071 0.6697191099700035 L2.603081269780077 0.6785816179699253 L2.6135199087800203 0.6834392019700317 L2.65615296478002 0.720310336969959 L2.657444875780058 0.7327901959700398 L2.6536208207800343 0.7438747899699649 L2.647833059780041 0.7549593849699789 L2.643233857780089 0.7674909199699727 L2.643337210780018 0.776069206970007 L2.647367971780014 0.7930190769700118 L2.6460760617800787 0.8022691579699313 L2.6381178907800944 0.8139221939699866 L2.6275242217800354 0.8204592629699761 L2.616310435779994 0.8254201999700115 L2.6065435897800313 0.8322673279699728 L2.588715220780088 0.8634798929699627 L2.5778114937800325 0.9066555519699904 L2.5849428417800624 0.942958245970047 L2.620857962780022 0.9537844579699879 L2.66219910778004 0.952337517969994 L2.701938283780052 0.9564199569700094 L2.7252960317799904 0.9630087009699935 L2.7371816117800307 0.9726721939700269 L2.738184102780096 0.9791549679700324 L2.7391056497800577 0.9851143109700047 L2.7395070507800625 0.9877100359700108 L2.7241591507800678 1.0469312269700026 L2.7194049187800005 1.081631951969939 L2.7211619167800762 1.1544698829700195 L2.7228155637800313 1.1644692719699492 L2.7319106147800056 1.1927362809699247 L2.7321689977800503 1.197154615970021 L2.731083792780069 1.2077482839699911 L2.7316005567800943 1.2113914729699928 L2.735011200780022 1.2155255869699175 L2.7421942247799933 1.2201764659699705 L2.7449847527800415 1.2226827729699608 L2.7859641627800755 1.2767363219700343 L2.8010536817800613 1.2876142109699913 L2.8065313827799656 1.2972260269700087 L2.849422822780028 1.3543026469700123 L2.841619680779999 1.3757225279700265 L2.827977102780082 1.3952045429700206 L2.8091668817800013 1.4082011649699666 L2.7861191927800206 1.4100098409699626 L2.7658620307800987 1.4139889259699459 L2.746638398780007 1.4299311049699668 L2.730773733780083 1.4511184419700243 L2.714805716780049 1.4802639499700376 L2.6994061397800664 1.4947591889699794 L2.692429820780049 1.5068773129699764 L2.6901043817800456 1.5201323179699813 L2.6902077337800705 1.5319920589699905 L2.6874172067800117 1.5398985529699445 L2.6766168317800663 1.541267978970012 L2.66219910778004 1.6276968109699936 L2.6474713247800565 1.651907219969985 L2.6292812207801006 1.6731979099700567 L2.6062852087800508 1.7069167819699373 L2.596001598780063 1.739472933969978 L2.61610373078004 1.7571721129699824 L2.623390106780093 1.723634108969975 L2.643130504780075 1.7027051529699833 L2.671500865780061 1.6935067479699768 L2.7045737827800593 1.6952637469699567 L2.7194049187800005 1.7015165949699593 L2.7480336627800597 1.7198617289699456 L2.758627330780044 1.7221871679699774 L2.776920787780014 1.7149266299699946 L2.8120090857800477 1.6919822939699714 L2.871075246779995 1.6346214539699844 L2.8833225617800196 1.6191443619699726 L2.9075071317800933 1.5702067809699827 L2.917222301780029 1.5565900409699793 L2.9289011757800125 1.5457638279699495 L2.941510224780032 1.5376764669700407 L2.9565480657800407 1.5319920589699905 L2.986985484779993 1.527702914969936 L2.9937034207800224 1.5282196789699753 L3.0210402537800434 1.5364103939700016 L3.029050100780026 1.5409062439700136 L3.0375767117800336 1.543696770969973 L3.049048880780063 1.5421464779699647 Z M0.8382940717799983 2.458751899970011 L0.8269008427800344 2.465750597969972 L0.8259242797800397 2.477225206969976 L0.8321498657800106 2.5065627719700245 L0.8294643187800119 2.5243850379700206 L0.8226283817800066 2.534923774970011 L0.813717248780037 2.54501492096999 L0.8048468057800022 2.561209581969976 L0.8038295537800053 2.577078722969972 L0.8124151657799956 2.610200467969989 L0.8116420537800053 2.6226516399699875 L0.7989467407800106 2.634289008970015 L0.7816127567800066 2.6371373169700263 L0.7654994747800146 2.6311151809700135 L0.7564255817800216 2.6164260539700166 L0.7768520147800331 2.6164260539700166 L0.7632615197800163 2.5914016399699875 L0.745724084780008 2.566865506970018 L0.7257452437799969 2.5481073689700082 L0.7051967407800106 2.5407424599700192 L0.690670373780037 2.5394810669700263 L0.5994838497800146 2.515473904969994 L0.5668910767800384 2.4987909629700056 L0.48205220978000796 2.486095649970011 L0.3796352177800344 2.458751899970011 L0.3796352177800344 2.4513463009699734 L0.416988732780041 2.4423537879700206 L0.42097636278002426 2.4286819129700206 L0.43322408478000796 2.416027290970007 L0.4479945927800344 2.410371365970022 L0.48648743078000223 2.4042678509700153 L0.5956182907799956 2.4042271599699774 L0.6123826127800243 2.401867133970015 L0.6501430297800397 2.392101508970015 L0.7098761027800009 2.387055936969986 L0.7305873657800106 2.3886021599699774 L0.7501593057800022 2.396699490970022 L0.7354294877800243 2.4140334759700153 L0.7452358037800053 2.4191604289700166 L0.7837693317800216 2.417817654969994 L0.8016322877800093 2.4229446079699954 L0.8159145147800331 2.4318964309700135 L0.827755334780008 2.444184842969989 L0.8382940717799983 2.458751899970011 Z" fill="black" stroke="black" stroke-width="0.5" vector-effect="non-scaling-stroke"/></svg>