<svg xmlns="http://www.w3.org/2000/svg" viewBox="0 0 0.37029785219999667 0.18801269543999855"><path d="M0.32402425110004174 0.05937906871996512 L0.3489265951000391 0.06503499272001756 L0.36276123109999503 0.0701619467200083 L0.36666748109999503 0.07630615172000654 L0.3551114911000184 0.0955525717200083 L0.33810302810005055 0.11601969371996512 L0.317595215099999 0.13237711572002064 L0.29513427810005055 0.13900960272001095 L0.27047607410000296 0.14173583972000126 L0.25094482410000296 0.14922281871996512 L0.21595133510001574 0.17318928972001624 L0.210173340099999 0.1785603837200136 L0.2073250331000338 0.18197835272001095 L0.20211669910000296 0.1842163087199986 L0.18925862610004174 0.1861694337199986 L0.16484456410003645 0.18568115172000654 L0.15280029310000032 0.18258870371998848 L0.147673340099999 0.1766072587200136 L0.13912841810000032 0.16289469371996512 L0.118376465099999 0.153373209720018 L0.09339274110001838 0.14755452472000963 L0.07198974610000164 0.14523518871998187 L0.028532715099998995 0.14637451171999993 L0.01087321010001574 0.14206136071998055 L0.003630371100001639 0.12822672471996777 L0.007943522100021028 0.11243896472000126 L0.03781005909999635 0.0701619467200083 L0.04212321010001574 0.05124104771998583 L0.04708740310005055 0.040580240720020644 L0.05831787110000164 0.029146321720008306 L0.0715828451000391 0.02108968072001227 L0.08118571010001574 0.01950276671998319 L0.10299560609999503 0.02235107372000522 L0.12545654310000032 0.01950276671998319 L0.15328857410000296 0.00619710272001095 L0.16818115310005055 0.0018432617199999335 L0.19479248109999503 0.003389485719980545 L0.22042724610000164 0.011771646719966444 L0.29570393910003645 0.04936930271996909 L0.32402425110004174 0.05937906871996512 Z" fill="black" stroke="black" stroke-width="0.5" vector-effect="non-scaling-stroke"/></svg>