<svg xmlns="http://www.w3.org/2000/svg" viewBox="0 0 3.2130410886599794 1.4691320314200311"><path d="M0.3091595024551026 1.4189354025532808 L0.3090594666280104 1.418917775423722 L0.29034605659215984 1.4156203197749448 L0.25576797382995586 1.389528575209951 L0.2578838588299792 1.3852561142099802 L0.2553610728299933 1.3767518822099731 L0.26219701082998803 1.3664572862099789 L0.26219701082998803 1.360231700209951 L0.25243138582998803 1.3588889262099855 L0.24486302582999464 1.3549826762099855 L0.23900365082999464 1.3483908792099868 L0.23485326082998803 1.3391135362099789 L0.25584935382999596 1.3425721952099678 L0.3413799528299766 1.3336203722099498 L0.4191794318299973 1.3254823512099705 L0.4191794318299973 1.3192974552099912 L0.4086000048299585 1.3085959582099775 L0.39362604682997393 1.2971620382099758 L0.37800104682997393 1.2851584582099775 L0.42729019782995614 1.2821294922100321 L0.4667709918300549 1.2971156572100142 L0.5140032508299957 1.2937050132099728 L0.5341648378299855 1.2761962672099116 L0.5532773398300552 1.259598568209924 L0.5609254518299398 1.2465244312099628 L0.5598796618300188 1.2446071502099585 L0.5593751588300169 1.2436822272100017 L0.5503834588299927 1.2432171392099747 L0.5353972948300001 1.237222672210038 L0.5246485968299854 1.2290061202100162 L0.4449635378299437 1.1349550132099466 L0.3757171178300158 1.1130442052100022 L0.36614754783004777 1.1078418202099556 L0.3265728308300542 1.0863274902099533 L0.30982966682992163 1.0827101402099686 L0.2754131638299615 1.0797645832099647 L0.2475078898299845 1.0691192382099644 L0.24041133382999114 1.0593374992099314 L0.2322116658300164 1.0480352532100312 L0.23551895783003296 1.0138254552099397 L0.2655453738300029 0.9660380572099996 L0.27448298783002123 0.9518137372099886 L0.2815643078299903 0.9324531082100123 L0.2890557418299924 0.911971207209973 L0.27210587182997337 0.8929542802100059 L0.26697400382999525 0.8937915032099966 L0.23789607382996714 0.8985353352099992 L0.20564997983000843 0.9093357092099552 L0.17567764883005488 0.9109376792099795 L0.14849584482998957 0.8891302242099641 L0.14808243382997865 0.8879933432099563 L0.14746231783001384 0.8870114912099893 L0.14663549382998475 0.8860813152099354 L0.14570531783001606 0.8852544922100094 L0.1410544388300483 0.8826189942099916 L0.12803197782994324 0.8719736492099059 L0.14332820182999662 0.8623101562099862 L0.14849584482998957 0.8599330412099278 L0.15624731082999155 0.8528016932099831 L0.15903783783005032 0.8458770512100102 L0.15655736882998816 0.8394174972099506 L0.14849584482998957 0.8335263832099429 L0.1713368288299879 0.8123390462098996 L0.18882442882999761 0.8030675332099975 L0.2826478638300447 0.7533245612099506 L0.31127660682991554 0.7166342932099781 L0.307310582830036 0.706960411209991 L0.30362849483003096 0.6979791012099383 L0.2936054558299137 0.696632393209967 L0.28016739582997197 0.6948268392099806 L0.2507118288300436 0.6970489252099696 L0.2252870238300435 0.6942583982099109 L0.1952113398299904 0.6735361492099798 L0.1764011198299844 0.66438942021 L0.14849584482998957 0.660462011209944 L0.1345432088299905 0.6549326332099383 L0.10457087783003693 0.6534856932099444 L0.08906794782995497 0.649764990209917 L0.1036407018300114 0.6674383302099329 L0.0763555468299959 0.6703838862100326 L0.06788061182998639 0.6617022462099555 L0.06436661383002651 0.6478529622100098 L0.051137447830024385 0.6352439122099725 L0.05103409483001009 0.6351405602099476 L0.050930741829967374 0.6350372072099333 L0.044832921830016303 0.6099741372099174 L0.039251867830012444 0.5980885582099802 L0.031500402829999885 0.5880633302099625 L0.05754532482998265 0.5767978682100079 L0.06187677982998174 0.5716376282099702 L0.07604548682999202 0.5547578692099933 L0.08948136082994473 0.5335188562099518 L0.10033341083001268 0.5245013182099854 L0.11356257682998638 0.5235194662099332 L0.1259649218299561 0.5193336752099924 L0.1499427858299729 0.507215552209999 L0.19624486882997338 0.4900331382099239 L0.2206361448299905 0.4724114752099524 L0.2419268348299628 0.45168922521000354 L0.26642146383002263 0.43572120720997987 L0.30032120383003225 0.43264645920993416 L0.32502253882995014 0.4332407392099924 L0.3437294068300165 0.4262902592099067 L0.35209200882996505 0.4143183252099334 L0.3546848098300135 0.4106064612099374 L0.3561317508299968 0.38502662820999944 L0.3617128048299154 0.37972979420996467 L0.3654335078299429 0.3735286212099709 L0.3672938598300224 0.36647478820995616 L0.3671905068300081 0.35861997021001457 L0.3823317018300205 0.3594984692099672 L0.44837418282997454 0.370583064209967 L0.462016760829977 0.370479711210038 L0.526922359830019 0.3631158202099414 L0.5571013958300117 0.36657814120997045 L0.6485686808299764 0.396447119209995 L0.6650017858300092 0.3978423822099728 L0.6811607408299611 0.3958349042099769 L0.6986948198299903 0.39365659121003205 L0.7162648078300382 0.3939666512100075 L0.7325945598299999 0.39732561821003287 L0.7472706668299853 0.40241574721000006 L0.8034946248299608 0.4359279132099232 L0.8141722158299505 0.4379409022099594 L0.8161036748299697 0.43830502920997105 L0.9085623538300016 0.4401280942099959 L1.0283904588299553 0.4424908202099118 L1.0620834928300216 0.43737485420993494 L1.072728836830004 0.439028499209968 L1.0774830688299861 0.443731054209934 L1.08068700782996 0.44936378620997175 L1.0862680628299817 0.45401466420995007 L1.1033838838299577 0.45948142321000773 L1.1171705688299713 0.46388486320992683 L1.1339137328300186 0.465693538209905 L1.1684335898300109 0.46000913020995426 L1.1820761678300133 0.4730057532100034 L1.193341629829968 0.4901364912099666 L1.206570796829988 0.49972246920995644 L1.2239340778299894 0.49442563521000693 L1.228347329830024 0.48662889020999955 L1.2332358358300102 0.4779925292099563 L1.2416074178300054 0.45863970521000397 L1.2563868778300051 0.44393776121000883 L1.2661020468300368 0.4411989102099483 L1.2878061488300379 0.43985532220997925 L1.2979347288299952 0.43778826520994585 L1.308270015829999 0.4331373862099781 L1.3283204708299596 0.418667985209936 L1.3328679968299983 0.41784116221001 L1.3387849718299893 0.41857505020996655 L1.3462005168300042 0.4194948082099472 L1.3533318648299488 0.40714414020999357 L1.3650107388300174 0.3974031332099628 L1.3699716758299818 0.3906076822100033 L1.375966141829986 0.38585345021002126 L1.392605952830019 0.3806599692100008 L1.4014942988299541 0.38502662820999944 L1.4271258098300112 0.38208107120999557 L1.4492433228299948 0.3751047522100066 L1.454824376830027 0.3717199462099643 L1.462901635829974 0.3589646092099201 L1.4734278938299727 0.3423418942099943 L1.480758440829982 0.32702808020999896 L1.4885174108299797 0.31081927121002195 L1.4998862268299664 0.2939727542099604 L1.5166293908300137 0.27722958921000895 L1.529238439829948 0.27353472520999844 L1.543294429829979 0.2747232822100045 L1.5603018538300208 0.2731500952099566 L1.5639650028299688 0.2728112542098984 L1.5857459008300285 0.2633488042099259 L1.599828446830026 0.2572308102099612 L1.6141944938300359 0.25909116220998385 L1.6334181268299464 0.278108089209951 L1.6706251588299725 0.2415211752100106 L1.7281927038300129 0.2288087732099484 L1.751961635829952 0.23057038920995865 L1.7718305738299822 0.2320429602099523 L1.8387958828299933 0.23700604320998764 L1.8711297168299499 0.2394024412099327 L1.9990228658300229 0.234785881209973 L2.054374345829922 0.23278785820994585 L2.0838299118300316 0.24041013221000185 L2.1016200058299948 0.25117026920997887 L2.1062574838299444 0.2539751952099891 L2.1288917598299637 0.26371620320992406 L2.1588640908300025 0.26007301420995077 L2.177467606829987 0.24999611020990642 L2.180178581830029 0.24582033520999858 L2.18387548483002 0.24012591121001492 L2.18654726983001 0.2306453852099537 L2.187079423829994 0.22875709620993234 L2.1968979458299547 0.21452023920997476 L2.2121941688300186 0.20648455420999312 L2.23358821182992 0.20260882121002055 L2.2548789028299954 0.2024021162099814 L2.2699684198300023 0.2053476722099674 L2.2828875288300257 0.20281552820998172 L2.2879844028300287 0.20019063820996053 L2.293222815829944 0.19749285520992998 L2.2992172818299483 0.18873369920996197 L2.29911392783003 0.17589210620997164 L2.302214513829961 0.16080258820997528 L2.318337560830054 0.16754636320990812 L2.3949220338299657 0.1753753412099286 L2.4213803668299594 0.17434181320996345 L2.4508490418299633 0.16616605320993472 L2.4891798458299608 0.15553159220993962 L2.5169817668300087 0.15387794520998455 L2.544783686829982 0.15765032520999966 L2.6125831658299834 0.18121477921002338 L2.6532008418300226 0.18617571620995932 L2.664156245830009 0.19144671220999498 L2.6828321908300214 0.20760858720998954 L2.682961710829966 0.20767421421001586 L2.6807960568300135 0.18465126120995023 L2.6695305948299737 0.16917417020994208 L2.648239904829973 0.15982073621000836 L2.636767737829979 0.13535194520994764 L2.6359409138300354 0.11783363421000104 L2.637223796829966 0.10331567720993462 L2.6374912068299583 0.10028948620993106 L2.6444158488299596 0.06923194920997844 L2.64358902582992 0.06215227920995403 L2.639144852830009 0.05993019220997553 L2.6382146768299553 0.057733944209957144 L2.6479298468300048 0.050680110210038265 L2.6538209598299947 0.04835467121000647 L2.6946800768300196 0.04141812321000771 L2.6982626918299903 0.04080991220996566 L2.7191746778299777 0.03230570420993217 L2.7602744098300267 0.015591813210022565 L2.7964848278299943 0.02165705820993935 L2.801615555829949 0.022516455209995456 L2.8457255268300177 0.019897217210001372 L2.9382480428299917 0.014403255209998633 L2.9484799768299528 0.018434017209983722 L2.9636313408300285 0.03133261320999736 L2.968117020829988 0.03515134320994662 L2.9769020148299834 0.03835528120998788 L2.9915781208299794 0.03892372220994389 L2.9960222938299754 0.04396217420992343 L2.9937485318299597 0.05290219720995992 L2.988064123830009 0.06509783520996848 L2.981139481830036 0.07636329720992308 L2.9773364948299506 0.0808464942099647 L2.968427079829974 0.09134946321000825 L2.9657290158300444 0.09885561420995259 L2.964396317829989 0.10256324820994678 L2.966670080829994 0.10628395120994583 L2.980416010829936 0.1350418862099616 L2.9917848268300364 0.14509295221000684 L3.000363114829975 0.15661679721003452 L3.0096648728299957 0.16418739420998918 L3.023514155829952 0.16253374820993827 L3.023824213830034 0.17935442721000072 L3.031622204829967 0.18165308820994142 L3.032455504830006 0.18189872520994754 L3.0376734988299976 0.1834368652099272 L3.0562770138299644 0.18421201120992237 L3.071263179830021 0.19111081521000983 L3.0767408808300107 0.20999855120993516 L3.0688461888299745 0.2152567702099759 L3.0628915978300544 0.21922279420994073 L3.0438746708299735 0.22550148120996028 L3.0346762648299777 0.2353716802100223 L3.03848482382997 0.24202429320996544 L3.0426344358300472 0.24927264020999473 L3.0608245398299747 0.2593495442099538 L3.0964812788299643 0.2739739742099232 L3.1333782508299866 0.3136614742099937 L3.167071284830053 0.3335569012100166 L3.1815406858299813 0.37665504620991896 L3.157356115830021 0.36321917320995567 L3.147537593829947 0.35934344121000095 L3.1369956008299713 0.35810320620998937 L3.115291499829988 0.3600152342099818 L3.1066098588300353 0.35934344121000095 L3.09823827683004 0.3551576502099749 L3.0813917598299785 0.34280698221002126 L3.072503413829958 0.3388795742099546 L3.0611345988299608 0.33825945620998255 L3.0484221968300123 0.3389829262099795 L3.035709793830046 0.33779436820995556 L3.0241342738300094 0.33138649120991204 L3.0179331018299482 0.3388795742099546 L3.017493613829993 0.3384430962099998 L3.010388341829975 0.33138649120991204 L3.006515562829998 0.3345384242099385 L2.996228999829947 0.3429103352099503 L2.9769020148299834 0.34738034720996325 L2.9616057908300153 0.3539174152099349 L2.9301865198299826 0.36244402620997107 L2.927170215830012 0.3647894442099471 L2.9011443648299977 0.38502662820999944 L2.900426778829962 0.39347322020995534 L2.8999041308299756 0.3996252202099697 L2.9037281858299995 0.4132936362099713 L2.915613765829926 0.44083717420994617 L2.916337234830019 0.4489245362099439 L2.914476883830014 0.4650217452099241 L2.917164058830048 0.47336748820998764 L2.9232618778300097 0.47845761720998325 L2.940315099830025 0.48626075820999404 L2.944965978829993 0.4910149902099761 L2.9461756128299843 0.49970419420995427 L2.9465162718300295 0.5021512622099351 L2.941865393829966 0.5052001712099354 L2.9190244108300423 0.5049417892099655 L2.8833676718300527 0.5110137692099386 L2.874892736829958 0.5112721522099832 L2.8580462198299816 0.5085849772099778 L2.843783524830025 0.5027713782099852 L2.8198056598299903 0.48693255220999276 L2.8100904908299587 0.4836510982099753 L2.797791499830021 0.4853047452099304 L2.789419917830026 0.4914800782099178 L2.7817718058299707 0.4990765142099747 L2.772263342829996 0.5046317302099794 L2.7605844688300127 0.5061045092099903 L2.754893436830054 0.5052799562099892 L2.7242042598300262 0.5008335122099652 L2.7236874968299905 0.5187135582100098 L2.725961258830006 0.53305376821001 L2.7258579058299635 0.546050390209956 L2.7186232048300045 0.5597704832099737 L2.716161529829998 0.5616309412099838 L2.705187332829974 0.5699249022100332 L2.6854469358299813 0.5795367192099548 L2.6646730108299668 0.5868230962099403 L2.6599073718299966 0.5877522452099697 L2.648239904829973 0.5900270342099816 L2.614960281829946 0.5941611492100094 L2.5851424428299996 0.6055383852099965 L2.549951330829993 0.6189658362099522 L2.5471337908299976 0.619024657209934 L2.545562455829918 0.6190574622099803 L2.500445307830029 0.6199993652099351 L2.484528966829993 0.62284156921001 L2.469336096829972 0.627854183209962 L2.4657653248300395 0.629758595209978 L2.4553834598299833 0.6352955892099885 L2.435126297829976 0.6590150722099395 L2.4160060178299947 0.6675933592099739 L2.3442144238299765 0.6639031372098998 L2.327535965829947 0.6630458332099352 L2.3060385698300028 0.6706939462100081 L2.2928104438300014 0.683155808209932 L2.289088699830012 0.6866619622099392 L2.2705885378299744 0.7113632982099602 L2.256222489829975 0.7396819822099587 L2.2561191368299607 0.7648484052099889 L2.2700717728299313 0.7873793292099265 L2.2898439698299686 0.8019502582098994 L2.297770340829965 0.8077915202099746 L2.3099659788299736 0.8128558102099532 L2.3379746058299933 0.8209690102099501 L2.350170243830002 0.8272218592099421 L2.35911897883002 0.8367298902099947 L2.364226232830015 0.8421563482099828 L2.3598854128299482 0.8525949862099367 L2.348206538829965 0.8648423012099613 L2.340558426829995 0.8850477862099524 L2.3404550748300554 0.8852028162099828 L2.3416199388299734 0.905879162209942 L2.3433489538300254 0.9365691902099513 L2.3417986618299214 0.9532090002099665 L2.3366310188300137 0.9657146972099611 L2.329603023829998 0.9775486002099854 L2.325675614829942 0.9895375322099369 L2.3299130818299947 1.0023016112100152 L2.3416953088299923 1.0224037432099635 L2.342315425829975 1.036666439209938 L2.3322901978300425 1.0466916662099663 L2.311826330829968 1.0542364262099397 L2.2922926398299754 1.0581638352099958 L2.2535353148300263 1.0591456862099449 L2.215987210829974 1.0546727762099692 L2.18976659783001 1.051549251209991 L2.1801547808300032 1.054959895210004 L2.161551264830047 1.0657085932099335 L2.1516293908299478 1.0681890622099104 L2.1401572228300214 1.0667937992099326 L2.1287884068300347 1.06415830121 L2.117522944829995 1.0632281252099745 L2.106567541829998 1.0668971522099753 L2.101813309830016 1.0762505862099943 L2.1057407188299866 1.0866892262099555 L2.1072910108300054 1.096197688210026 L2.0959936338299716 1.102674202209954 L2.095302078830054 1.1030706542100006 L1.9972704148299787 1.1258800022099535 L1.970038407829998 1.1322161622099998 L1.9297307898299554 1.147977473209977 L1.9212558548299743 1.1549021162099677 L1.9161521208300147 1.1646338132099459 L1.9151580358300127 1.166529313209935 L1.9171217408300212 1.170715104209961 L1.9244597948300228 1.1732472492099646 L1.934071610829955 1.1799135092099675 L1.9439934858300436 1.1933493812100266 L1.9492644818299656 1.1982586432099538 L1.958152827829986 1.2028061682099747 L1.9711752898300237 1.2062168132100055 L1.9753094038299484 1.2042014322099703 L1.9766529908300132 1.2001706712099747 L1.9812005168299383 1.1974834962099408 L1.9932928018300178 1.1952097332100209 L1.99701350482996 1.19381446920994 L2.0001140918299942 1.1957264972099608 L2.0162735948299773 1.2087464402099783 L2.0182008428299927 1.210299251209932 L2.0345305948299544 1.2293161782098991 L2.0400082968300186 1.2381528482099782 L2.0193377238300005 1.2380494962099533 L2.005385086830012 1.2414601392099769 L1.9929827438300496 1.2461110182099446 L1.963630529829965 1.2526739252099333 L1.95784276883 1.2601153322099492 L1.954122065830001 1.2680218262100027 L1.9473007778300317 1.2722076172099435 L1.9347950798300193 1.2767034672099555 L1.9358286088300023 1.2849200192100056 L1.942959956829947 1.2956687172100203 L1.9484177138299916 1.3068714822099423 L1.9488510698299653 1.307761003210004 L1.9548455368299873 1.333805924209969 L1.962907059829968 1.3554066732099557 L1.9772731088299853 1.372459896209989 L2.027605952829953 1.396334407209963 L2.0179941358299462 1.4022255202099814 L2.0001140918299942 1.4198471842099707 L1.9914324498300235 1.4255315922100067 L1.980270340829998 1.4278570312099532 L1.9478175418299717 1.427391944210001 L1.8920882838299864 1.4419158632100277 L1.8504591428299424 1.4527650712099103 L1.8055006468300068 1.4483208982099995 L1.7323673658300098 1.4044318332099124 L1.7224049438300373 1.3984531412099557 L1.6736223918299746 1.397522965209987 L1.6637005168299712 1.39116676420997 L1.6525384068300415 1.3874977382099587 L1.6435799538299936 1.386637101209999 L1.6288706018300108 1.3852239752099536 L1.6116106728299204 1.3738551592099668 L1.5888730428299542 1.3634165202099382 L1.5706829388299983 1.3639332842099634 L1.5670655878300241 1.3852239752099536 L1.54784195483 1.4085817222099877 L1.5050538698299878 1.4193820962099437 L1.4634026648299656 1.4131809242099393 L1.4476930298299866 1.3852239752099536 L1.4475896768299723 1.3851722982099375 L1.4474863238300149 1.3850172682099924 L1.4473829708300006 1.3850172682099924 L1.3545720988299994 1.3563368492100096 L1.3347283488299926 1.344399593209971 L1.3344182898300065 1.3392319492099602 L1.3379322878299664 1.3215586102099621 L1.3360719358299722 1.3138071452099496 L1.3302841758299966 1.3083294432099706 L1.32991400583 1.3081785282099077 L1.3235662388299776 1.30559059220991 L1.3165382448300367 1.303523535209962 L1.2822250938300161 1.2842999022099377 L1.2693059848300212 1.274791439209963 L1.2601075808300042 1.2621823892099258 L1.2591774048299786 1.2486948402099642 L1.260314286829976 1.2303497072099674 L1.2581438758299957 1.215001806209898 L1.2471884728299987 1.210557634210005 L1.2353341108299905 1.2141139432099806 L1.2301352498299654 1.2156736012099714 L1.2223837858299706 1.2216680662100146 L1.2098780878299866 1.2419252272100039 L1.1993360958300006 1.2526739252099333 L1.1741179978299616 1.2725176762099295 L1.1648162398300261 1.282181168209945 L1.1585117148300075 1.294945247209938 L1.1577409608300062 1.299200792209973 L1.1536541308300006 1.3217653162099054 L1.1483831338299755 1.3359246582099615 L1.135153966829984 1.3527711752099378 L1.0959832318300133 1.372976660209929 L1.0774830688299861 1.3851722982099375 L1.0390358028299662 1.4005201982099038 L0.9930437778300476 1.403465755209993 L0.9466383428300507 1.3972645832099317 L0.9068474898300227 1.3850172682099924 L0.8849366828299825 1.3811932122099506 L0.8593051718300107 1.3864642092099757 L0.8117628538299986 1.4021221682099565 L0.7859246378299876 1.4054811362099713 L0.7835598438299716 1.405389831209959 L0.7829861478300248 1.405367681209981 L0.7591562458300078 1.4044476082099777 L0.7329046188299859 1.398091406209943 L0.7077898728299434 1.3851722982099375 L0.6945607058299519 1.375715511209961 L0.6801946578300377 1.3703928392099272 L0.6537156218300257 1.36645676620995 L0.6381300418300331 1.3641399902100204 L0.6312053998300318 1.3673956052099925 L0.6276914018299866 1.374475277209939 L0.6276914018299866 1.3852239752099536 L0.6488787398299625 1.403052344209982 L0.6360629838299534 1.4154030112099463 L0.5892441358299383 1.4294073242099614 L0.574671382829985 1.4394842292099952 L0.5658863888299894 1.4491477212099255 L0.5552410438299891 1.4547287762100325 L0.5018076128299871 1.4492510742099398 L0.4860979778300081 1.44573707620998 L0.47276545882999166 1.4362286132100053 L0.4255331998300509 1.415196305210003 L0.3262089248299791 1.4183876052100004 L0.3091595024551026 1.4189354025532808 Z" fill="black" stroke="black" stroke-width="0.5" vector-effect="non-scaling-stroke"/></svg>