<svg xmlns="http://www.w3.org/2000/svg" viewBox="0 0 5.809059375000025 1.8888087404999396"><path d="M5.752107812500025 0.5480978107498942 L5.744459700499942 0.5645825927499715 L5.737224999499983 0.5874235757499804 L5.73257412049993 0.6104712647499326 L5.73298753249993 0.627369458749925 L5.717484603500008 0.6360510987499737 L5.67903733749996 0.6397718017500011 L5.661467350499986 0.6488668547499827 L5.639763248499985 0.6908281167499837 L5.627360905499938 0.7086048097499003 L5.626120670499983 0.7135140707499517 L5.626224023500026 0.7264331787499572 L5.624260318499989 0.7325309977500041 L5.614855208499943 0.7414710207499269 L5.590877344499926 0.7548552167499594 L5.5832698395000016 0.7620492697499373 L5.581368880500019 0.7638469157499941 L5.574754296499929 0.7760425547499352 L5.57403082749995 0.7838456947499566 L5.57599453049998 0.7920105717499695 L5.57816494149996 0.8259103107499612 L5.575891178499955 0.8326799237499216 L5.568966536499953 0.8441520917499332 L5.560284895500001 0.852420320749971 L5.550879784499937 0.857329581749994 L5.543231673499957 0.8638924887499826 L5.540131087500026 0.8772766847499298 L5.5413713214999625 0.8987224037499715 L5.5349634434999295 0.9199614177499456 L5.522767805500006 0.9386166097499 L5.506748112499945 0.9526725997500165 L5.494655826499962 0.9578919197499403 L5.467990788500014 0.9635246507499602 L5.455691797499991 0.9691057057499819 L5.448147037500018 0.9761336997498944 L5.437708398499989 0.9920758787500148 L5.431507226500013 0.9993622557500004 L5.366188215499971 1.0344247157499211 L5.351202050499989 1.0507027917499414 L5.349134993499927 1.0709599537499486 L5.360813867499996 1.1114742757499556 L5.357299869500036 1.1271839107499346 L5.346241113499939 1.1434619877499443 L5.345310937499999 1.2154989337500268 L5.326397363499961 1.23164781874992 L5.308930729500002 1.2408720627500287 L5.29032721349996 1.2444894127498998 L5.2304859055 1.240562003749929 L5.212399153499984 1.2413371497499526 L5.194002344499989 1.2455746177499947 L5.141809146499991 1.2473832927500013 L5.127236393500038 1.2512073487499293 L5.096747298499945 1.2628345457499819 L5.053649153499958 1.2671236897499654 L5.001869368499978 1.2847711917499538 L4.971483626500014 1.2865281907499337 L4.94016770849991 1.279396842749989 L4.913709374500012 1.2663485437499418 L4.890041568499992 1.2479517337499573 L4.83402431649996 1.1906425707499722 L4.825859439499947 1.1799455487499557 L4.8128369785000125 1.138656079749964 L4.804155338499964 1.127287263749949 L4.7871021154999305 1.1247292807499747 L4.750205142500004 1.1250651777499598 L4.734288801499968 1.120207592749935 L4.727570866499956 1.1131795977499195 L4.718475813499975 1.0938009367499575 L4.711861230499988 1.0852226477499443 L4.7032829434999535 1.0800291667499238 L4.685196191499937 1.0753007727500261 L4.651606510499999 1.0619682537500097 L4.637033756499942 1.0590226967499206 L4.585150618499949 1.069952262749993 L4.551044172499996 1.070443188749934 L4.534301008499948 1.072716951749939 L4.514767317500013 1.0803909017500217 L4.506395735499961 1.0897184987499458 L4.5007113284999996 1.1003638427499567 L4.489032454499931 1.1115776287499983 L4.474252995500006 1.117107006750004 L4.462884179500019 1.1137997157500052 L4.450481836499971 1.1068492347500154 L4.432395084499955 1.1015782397499692 L4.3992188144999425 1.1065908527499317 L4.321807519500009 1.1311888347499206 L4.296486067499938 1.127287263749949 L4.27633225850003 1.1140580977499752 L4.2484269854999575 1.105660677749981 L4.218971419499962 1.102146679750021 L4.1939600254999725 1.103438590749974 L4.158303288499962 1.1013198567500098 L4.103836327499987 1.079202344749902 L4.072417056499955 1.0769802567499909 L4.057947655499998 1.0744739507500043 L4.028285384499963 1.0564905527499349 L4.012782454499938 1.051064526749954 L3.996556054499944 1.0512453937499942 L3.7849927404999555 1.0837240317499237 L3.7229810225000044 1.0865145587499825 L3.694145573499963 1.0942143477499684 L3.6930086914999656 1.101759106749924 L3.6926986324999795 1.1100790127499778 L3.694662337499988 1.1274164547499907 L3.6952824544999707 1.1309304527499506 L3.695385807499985 1.134470288749995 L3.6949723954999847 1.138035961749992 L3.694145573499963 1.1415499597499519 L3.6807097004999996 1.1549083177499568 L3.6784391774999783 1.1565070247498994 L3.648050194499927 1.1779043297499214 L3.633064029499973 1.191055981749983 L3.621488508500004 1.206584749749922 L3.5826278314999733 1.2859597497499777 L3.561750553499973 1.3148210367499331 L3.5367391605000016 1.340349193749958 L3.5076970054999883 1.3598828857499683 L3.4848560224999794 1.3678410567499242 L3.4727637364999957 1.3644045737498942 L3.461498274499956 1.3561105067500279 L3.44155117150002 1.3493925697500089 L3.43028570949998 1.3526998617499117 L3.400106673499959 1.3713033777499533 L3.3833635094999117 1.3762643147500029 L3.365793521499949 1.3750240807499807 L3.3555615884999774 1.3724919357499772 L3.3469833015000283 1.3736288167498998 L3.3344776034999306 1.3835506917499885 L3.3305501954999777 1.390578686750004 L3.3250724934999702 1.4085620847499882 L3.317734439499997 1.417502107749911 L3.309466211500034 1.4218687657499203 L3.2905526365000064 1.4267521887499441 L3.250773836500013 1.4430643597499255 L3.2474544914999903 1.4444255297499211 L3.20942063849996 1.4523836997500013 L3.1863729494999795 1.4619180017499929 L3.141104394500001 1.4902108487499817 L3.1175399404999773 1.4959986087499573 L3.0967660154999628 1.490675936749895 L3.0587321615 1.467628247750028 L3.034134179499926 1.4623830897499062 L2.9980640294999255 1.4716073327499117 L2.988555566499951 1.4707805097499858 L2.979150455500001 1.4612978847500102 L2.981630924499978 1.4528487877499998 L2.987315331499996 1.4442188237499778 L2.986798567499971 1.4344003007499992 L2.969021874500026 1.4199825767499732 L2.9455607744999774 1.417398754749982 L2.899465397500034 1.4233932217499188 L2.8894401684999984 1.4199050627499759 L2.867736067500015 1.401947501749973 L2.8563672524999326 1.395487947750027 L2.8463420254999896 1.3935242437498943 L2.8356966795 1.3932916997499518 L2.7437126295000205 1.4096472897499694 L2.7264527015000333 1.41633938775 L2.715497298499951 1.4308863047499614 L2.7060921875000012 1.4695919517499618 L2.694206607499961 1.4854049397499551 L2.6938965494999927 1.4858700277499821 L2.693689843500021 1.486335115750009 L2.6938965494999927 1.4869552337499812 L2.694206607499961 1.487627026749962 L2.695756901499987 1.4931047287499695 L2.696273665499927 1.4985307537499324 L2.695756901499987 1.5038017507499575 L2.694206607499961 1.5089693937499788 L2.640669824499934 1.5344458737499878 L2.5056909834999423 1.5325338457499669 L2.445953027500007 1.558217032749937 L2.4349976234999353 1.559715649749947 L2.3109741864999584 1.549561230750001 L2.2511328774999804 1.5554265057499919 L2.2314876454999926 1.5548005547499741 L2.208964908499933 1.554082918749927 L2.1942888025000222 1.558682120749964 L2.146066304499964 1.5659485247499987 L2.050938378499989 1.5802828697499507 L2.033471744499945 1.5898430097499414 L2.006703352499965 1.627153393749964 L1.9971948884999726 1.6326827717499697 L1.9777645504999946 1.6349048587499766 L1.9686694984999455 1.6384705317499453 L1.9556470374999826 1.649245068749977 L1.9569906244999622 1.6529399337499768 L1.963915267499953 1.6569448567499734 L1.9672225584999516 1.6684945397500002 L1.957197330499934 1.7097840087500202 L1.954716861499957 1.7308421547499648 L1.9612280925000043 1.7495748617499345 L1.990476953499961 1.7688501717499747 L2.0289242195000092 1.7877379077499285 L2.027387514499946 1.7881038617500025 L2.002775944500012 1.7939649177499888 L1.9801416664999572 1.7979956787498992 L1.9627783854999272 1.8066773197499657 L1.9297054684999573 1.8321796387499916 L1.9053141924999402 1.8423340577499374 L1.8761686844999979 1.8444011157499887 L1.8462997064999733 1.8404737057499432 L1.8099194985000047 1.829647493749988 L1.7650643554999128 1.8274512447500086 L1.5603223304999965 1.8435226157499613 L1.485494856499951 1.8640381597499385 L1.4483911784999854 1.8664152757499863 L1.3250912104999593 1.8578111497499634 L1.0960029825000213 1.8677759917499515 L1.0381836584999284 1.870291007749941 L0.9544678384999763 1.8549172687499578 L0.9317160554999866 1.8466283477499843 L0.889148827499934 1.831120271749981 L0.8787101884999906 1.8232654537499542 L0.8708553704999638 1.8129818437499665 L0.8523552085000112 1.801096264749944 L0.8315812824999789 1.7910710367499263 L0.8166984695000217 1.7860584237499637 L0.8054330074999818 1.7871953047499716 L0.7954077804999535 1.7905025957499703 L0.785072493500035 1.7907609787499297 L0.7728768554999412 1.7823118817499477 L0.7390804684999459 1.7481795987499567 L0.7297787105000104 1.7440454837499288 L0.7046639644999964 1.7404798097499707 L0.694328678499982 1.7375859287499935 L0.6845101564999361 1.7314881097499182 L0.5818807625000311 1.6390906497499174 L0.5503581374999662 1.6215723397499602 L0.485142480499956 1.6149577557499555 L0.4747875185000048 1.6130149087499746 L0.4333626944999871 1.6052425867499238 L0.39729254549997606 1.60002326675 L0.3608089844999647 1.6148544027500265 L0.33745123749993056 1.6007725757499287 L0.30510179049992914 1.5930469487500005 L0.2821574544999912 1.5846236907499218 L0.2875318034999559 1.5682164227499555 L0.27554287150000434 1.5615243247499535 L0.27161546149993043 1.5598706797500057 L0.27729986949996643 1.5412671627499464 L0.2824675124999878 1.531138582749989 L0.29269944649997726 1.5226894857498934 L0.27967698549992903 1.5133618897499588 L0.27492643049997056 1.5075729287499797 L0.2599365884999649 1.4893065107499268 L0.24939459650000728 1.484784822750001 L0.23337490249995696 1.48313117674995 L0.21962897149999705 1.4774984457500153 L0.1944108724999687 1.458998282749988 L0.18727952450002405 1.4434178387499657 L0.18717617149998134 1.4217395747499637 L0.1824219394999993 1.4036528237499653 L0.1668156574999493 1.3677377037499951 L0.1664022464999384 1.3629576327499962 L0.16774583350000327 1.351511303749973 L0.1668156574999493 1.3471704837499061 L0.16309495450003553 1.3437081627499623 L0.15689378249997432 1.3422870607499675 L0.14583502649996305 1.3355691247499664 L0.13673997349998146 1.3327785967500034 L0.12909186150001162 1.3294971437500038 L0.12578456949999506 1.3236060307499002 L0.1245443354999729 1.3190585047499752 L0.12134039749990322 1.3133224207499126 L0.11792975249998605 1.3083098067499606 L0.11524257849994157 1.306191072749968 L0.11090175749997044 1.304124015749906 L0.11276210949996468 1.2990597257499275 L0.11668951849993547 1.2932719647499624 L0.11896328149996904 1.2888277917499664 L0.11441575549993033 1.2808954587499812 L0.10418382149994088 1.2732731857500283 L0.09364182949998323 1.2674854247499496 L0.08795742149994723 1.2652633387499606 L0.06780361349997222 1.2638422367499658 L0.06005214849995966 1.2607158127499218 L0.05695156250000011 1.254695507749986 L0.057571679499982764 1.2437142657500004 L0.059328678499962706 1.2391667407499511 L0.06180914650003544 1.2361953457499482 L0.06439296849994136 1.2298908207499295 L0.07328131550003647 1.1765090657499258 L0.07741542949996116 1.162220531749952 L0.08754401049993632 1.1487588217498939 L0.11369228450002922 1.1236957517499917 L0.11896328149996904 1.1103890707499744 L0.12640468749996714 1.1009581217499118 L0.14294114649997525 1.0920956137500042 L0.15937425150003648 1.080571769749966 L0.16152601349999074 1.075461333749999 L0.1668156574999493 1.0628984297499784 L0.15751390050003167 1.016131258749951 L0.1599943684999907 0.9971401697499829 L0.17580735650001245 0.9843502527499339 L0.18727952450002405 0.9704234537499445 L0.23781907549995296 0.8739693927500269 L0.2624170574999418 0.8462708247499933 L0.2968335604999872 0.82658210474996 L0.31119960949997605 0.8145414957499924 L0.31709072249999437 0.7956795987499703 L0.32618577549997596 0.7863778407499495 L0.37992926449997455 0.7605396247499954 L0.4246810545000237 0.7542350987499873 L0.4727401364999757 0.7625033287499576 L0.5868416994999954 0.8006922117499329 L0.6042049804999969 0.7985218027499315 L0.6236958535000205 0.7900810827499214 L0.6420321284999879 0.7821403737499821 L0.6658032875000224 0.7775411697499379 L0.6803760414999935 0.7821920497498951 L0.7109684894999297 0.803534415749894 L0.7475554034999554 0.8073067957500228 L0.9396883784999481 0.7573873627499523 L0.9573617184999641 0.7477238687499295 L0.991881575499928 0.7085531337499873 L1.0080046224999357 0.6997164637499935 L1.032602603499992 0.6969259357499453 L1.0536865884999251 0.6993030517499648 L1.072806868499935 0.6985795817499678 L1.0912036784999195 0.6867456787499719 L1.0993685545000282 0.6730514247499428 L1.1071200194999555 0.6420972407499477 L1.1133211915000167 0.627266105749996 L1.1265503574999336 0.6097994707499623 L1.147530989500023 0.6009111247499419 L1.171715560500001 0.5984306567499544 L1.2253556964999852 0.6011695067499119 L1.2585319664999979 0.5911442787498942 L1.2879875324999936 0.573109204749997 L1.3087614574999513 0.5500098387500003 L1.3153760414999276 0.528047354749944 L1.3141008205000269 0.4833690847499241 L1.3139291014999337 0.4773527757499636 L1.3175464524999363 0.4505327067499678 L1.3302588534999806 0.41771817174996784 L1.3489657224999512 0.3872290777499785 L1.3730469405 0.3615975667499214 L1.4025025064999959 0.3433557857499494 L1.5370679364999766 0.3090426357499467 L1.5740575004999293 0.2901059987499508 L1.5976327144999338 0.2780367757500102 L1.600113183499996 0.2305461347499289 L1.6292586915000236 0.23483527874996923 L1.6516862634999079 0.22522346174996244 L1.6942676434999662 0.19122036974992795 L1.7271338535000034 0.1796965257498897 L1.7354020834999453 0.1742188227499213 L1.740466373499924 0.16543382975000043 L1.7429468424999008 0.14683031474997676 L1.7481144855000075 0.1386137617500225 L1.7686817054999828 0.13013882674992772 L1.8129167325000246 0.13432461774995375 L1.8414421224999664 0.12450609574999305 L1.8483667644999393 0.12357591974993909 L1.8552914064999406 0.12450609574999305 L1.8880542644999245 0.13525479374992244 L1.9169930664999804 0.1410425537499833 L1.9450016925000106 0.14000902575001817 L1.986032779499947 0.11541104375002931 L2.004739648499946 0.1107601647499763 L2.0456673834999712 0.11003669474997935 L2.1446794274999483 0.11597948474998532 L2.173618229499919 0.12750332874999515 L2.1648332354999518 0.14434984574999987 L2.1658667644999348 0.15861254074995657 L2.170724348500027 0.17215176674993415 L2.173308170499933 0.18698290174997112 L2.169174056500008 0.2198491137499019 L2.17475511150003 0.23111457574997019 L2.1942888025000222 0.2334916907500002 L2.219610254500008 0.23219977974996198 L2.2582642255000103 0.21752367374996595 L2.280071679499951 0.21416470574995117 L2.289270085499947 0.21623176274992773 L2.309113834500021 0.22568854974998942 L2.3187256514999426 0.22889248874996326 L2.329060937499957 0.22935757674999024 L2.354175683499971 0.22610196075000033 L2.384974837499964 0.21804043874992374 L2.3922095374999337 0.2100305917499412 L2.39479335950001 0.19757657074994484 L2.4018213544999405 0.1780945557499507 L2.4047152344999283 0.1776811447499398 L2.417014225499951 0.17747443874999647 L2.4214583984999756 0.1753040287500056 L2.423835514499995 0.168637768749889 L2.421871810499976 0.16388353674999223 L2.418667871500002 0.16088630374999013 L2.416910872500022 0.15974942174996443 L2.432930566499987 0.12729662274996656 L2.4465731444999896 0.1130856037498944 L2.461145898499961 0.10404222774992888 L2.4774756514999687 0.09882290875002298 L2.496699284499993 0.09613573374998907 L2.5274984374999683 0.09634243974996082 L2.537833724499972 0.09525723474995118 L2.551993065499925 0.09153653174995213 L2.5595378254999837 0.0872990637499953 L2.6462508794999557 0.025132315749900158 L2.650074935499969 0.02017137874996422 L2.6558626954999447 0.018517732749998572 L2.661360931499967 0.019983928749994107 L2.6698153314999438 0.022238435749912355 L2.6866618485000053 0.041565421749950815 L2.694206607499961 0.04678474174998826 L2.717667708500027 0.05691332174994557 L2.7297599935000214 0.07701545374989394 L2.7479500974999773 0.1274516517498938 L2.7640731444999567 0.1592843347499553 L2.7692407884999675 0.16641568174999577 L2.786397363499912 0.17504564674992196 L2.8072746414999976 0.17871467374992278 L2.847272200499969 0.1789730547499886 L2.842621321500001 0.18527758074999667 L2.8410710284999645 0.19070360574998801 L2.8416911464999366 0.20636156474994038 L2.8395686134999316 0.2181319687499439 L2.8395149015000065 0.21842982874998995 L2.896984928499972 0.23121792774999506 L2.918792383499987 0.232768220749918 L2.939049543499987 0.23142463374993838 L2.9725358724999857 0.22263964074996068 L2.9815271945 0.22708478874996274 L2.981734277499992 0.2271871667499994 L2.9910360354999277 0.24610074074995225 L2.9961003254999916 0.2627405517499568 L3.0019914394999994 0.31110969174990544 L3.0004411454999733 0.3151921307499066 L2.9927930335000035 0.3226852137499492 L2.9921843404999997 0.3268446247500236 L2.992172917499925 0.3269226817499913 L2.9956869134999913 0.33028164875001664 L3.0093307574999066 0.3368983997499271 L3.009432845499912 0.3369479087499343 L3.011034322500006 0.3392166687499838 L3.011293196499917 0.33958340674995213 L3.018886330499992 0.3448098497499217 L3.0192513674999866 0.3450611087500164 L3.021111719499981 0.3494019287499981 L3.0187346034999614 0.35503465974993276 L3.012946842499968 0.3572567467499397 L3.0065389645000202 0.3584453047499636 L3.002094791499939 0.3608224207500115 L2.9642676424999586 0.40123339074999365 L2.960236881499963 0.4144108807499691 L2.9731559894999684 0.42608975374993463 L2.9983740884999115 0.4321358967499833 L3.0444694664999297 0.4344096607500063 L3.0666903314999665 0.4290353107499385 L3.080762957499939 0.419509225749934 L3.10028001249999 0.4062976807499723 L3.1183667645000064 0.3975126877499662 L3.1504061525000218 0.3951872487499344 L3.1782080734999845 0.4046440347499214 L3.229781152499992 0.4364250407499384 L3.262957421499987 0.44707038574993874 L3.2824911134999972 0.4372001877499514 L3.2928263994999263 0.4121887937499622 L3.2985108074999623 0.377255525749959 L3.310913151500028 0.3674370037499983 L3.3178377935000007 0.356326570749971 L3.323522200499962 0.34444099174994847 L3.3426424804999435 0.3163806887499305 L3.348326888500008 0.3114197517499946 L3.350807356499967 0.3129700437498997 L3.3728215164999646 0.31467536674996666 L3.3826400384999253 0.30868090074993404 L3.4044474934999407 0.2916793537499274 L3.4196403644999798 0.2860982997499235 L3.4968449544999594 0.28165412574999493 L3.501805891500009 0.27720995274999893 L3.5089372394999536 0.2633606697499289 L3.514104882500032 0.24909797374995435 L3.516171940499998 0.2398995687499479 L3.5198926434999116 0.23369839674997195 L3.5301245774999863 0.2286857837499241 L3.5420101555000194 0.22853075374995058 L3.5829378904999594 0.23860765874998435 L3.6346143224999814 0.2373157467499567 L3.6344076175000275 0.2201074947499677 L3.650013899499964 0.21778205574993592 L3.7345565424999556 0.24594571174999658 L3.756467349499996 0.2494597087499386 L3.7801351565000054 0.2439303307499614 L3.7916073234999423 0.2369023357499458 L3.807523665499968 0.22403490474995635 L3.8177555984999394 0.2202625247499128 L3.8269540044999353 0.2198491137499019 L3.8485547524999326 0.22196784674999037 L3.8863819004999804 0.21798876174999293 L3.90198818350002 0.21979743674999952 L3.9907682944999685 0.2890955327500109 L4.006581282499962 0.296640290749977 L4.029008853499942 0.29891405474997157 L4.046062077499965 0.29824226075000126 L4.061771712499944 0.29979255474994204 L4.080478580499925 0.3088876057500016 L4.096808333499961 0.31999803875000055 L4.113034733499983 0.3276978277499012 L4.131431542499978 0.32997159074993476 L4.154892643499959 0.3244422117499397 L4.176493392500003 0.31219489774998976 L4.209152897500001 0.280930655749998 L4.229720117499976 0.26785651874995153 L4.245429752499955 0.2656861087499607 L4.266513736499984 0.26553107974991974 L4.285013900500001 0.2631022867499695 L4.293178775500007 0.2539555587499791 L4.280983137499998 0.23886604074998274 L4.25793544949995 0.22971931174988924 L4.245739811500027 0.22062425975001076 L4.265996972499931 0.20584480075000045 L4.281293196499984 0.20109056874998998 L4.321910872499938 0.1957162187499506 L4.3374138015000305 0.19664639475000456 L4.355500553499962 0.20475959475000138 L4.369763248500032 0.2151465577499181 L4.385059472499972 0.22201952374997802 L4.406556868499944 0.2196940837499568 L4.423713444499992 0.20920376774991212 L4.454926009499967 0.17902473175000466 L4.473012760499994 0.17085985574989593 L4.48686204449994 0.17303026574997205 L4.542879297499962 0.19251228074996618 L4.640341047499941 0.21049567874995034 L4.656877506499949 0.21039232574993605 L4.693981185499933 0.205069652749998 L4.708657291500014 0.20791185674995916 L4.7268930885000024 0.20308473474996447 L4.74204026749997 0.1990751877499548 L4.813663802499956 0.19380419074992972 L4.832370670499937 0.1969564537499906 L4.842499251499969 0.2014006267499866 L4.861102766499936 0.2132345297500109 L4.871231347499968 0.217833732749952 L4.8787761065000375 0.21850552674995072 L4.894279036499949 0.21623176274992773 L4.904200911500038 0.2181437907499486 L4.921047428500014 0.22940925274998847 L4.954637109500037 0.2632056397499838 L4.97003668650002 0.271370515749922 L4.980475325499963 0.26682298974996854 L4.994634667500019 0.25581591074997334 L5.0118945955000065 0.2454806237499696 L5.032048404499971 0.24305183074990566 L5.050341861499941 0.24987311974994952 L5.087032129499999 0.27193895674996327 L5.140878970499937 0.28950894474992594 L5.176949120499938 0.3117298097499628 L5.205681217499954 0.34211555174992725 L5.218290267499992 0.3774105557500178 L5.224904850499978 0.40924323674995833 L5.253223535499966 0.42283413874996256 L5.324020247499998 0.43167080874995634 L5.356576399499954 0.4454167397500015 L5.368151920500008 0.4487757087500057 L5.378177148500026 0.44918911975001663 L5.402155012499929 0.44727709174999575 L5.410423242499984 0.44831062074997874 L5.421378645499953 0.45632046774996127 L5.421481998499996 0.4633484627499769 L5.418691471499937 0.4698080167499228 L5.420965234499942 0.4761125407499236 L5.4284066404999685 0.48029833174997805 L5.475328841500026 0.48970344274992783 L5.530622623499948 0.4883081787499606 L5.55191331349992 0.4938375567499378 L5.602556217499977 0.5272722087499488 L5.63924648449996 0.5346619387499487 L5.717484603500008 0.5368840247499378 L5.752107812500025 0.5480978107498942 Z" fill="black" stroke="black" stroke-width="0.5" vector-effect="non-scaling-stroke"/></svg>