<svg xmlns="http://www.w3.org/2000/svg" viewBox="0 0 13.58422851588 5.804570312160042"><path d="M5.128865559939982 5.193056640080025 L5.189656575940035 5.230084635080042 L5.207397460940001 5.251894531080021 L5.184041341939974 5.26825195308002 L5.172078450940035 5.268333333080003 L5.16328938794004 5.265403646080054 L5.154825846939957 5.263857422080017 L5.143025716939974 5.26825195308002 L5.137654622939976 5.275169271080054 L5.129760742939993 5.2953515620800236 L5.122517903939979 5.302919922080017 L5.108357747939976 5.3020247390800055 L5.096150716939974 5.288759765080025 L5.085327148939996 5.272076823080036 L5.074747721939957 5.261416015080025 L5.059529622939976 5.2680078120800236 L5.053670247939976 5.26825195308002 L5.047810872939976 5.265566406080021 L5.010457356940037 5.240826823080036 L5.005249023939996 5.234072265080025 L4.994099934939982 5.191591797080017 L4.985310872939976 5.173932291080044 L4.964884439939965 5.158388672080017 L4.954549153939979 5.155377604080039 L4.933308919940032 5.154075521080054 L4.923299153939979 5.151552734080022 L4.911010742939993 5.143984375080018 L4.908569335940001 5.137880859080022 L4.910359700940035 5.131777344080016 L4.910359700940035 5.124208984080022 L4.909138997939976 5.114361979080039 L4.9100341799399985 5.106549479080039 L4.90726725293996 5.0988997390800055 L4.895955403939979 5.090029297080017 L4.887654622939976 5.08620442708 L4.876993814939965 5.083193359080022 L4.865763346939957 5.081728515080025 L4.855672200940035 5.083193359080022 L4.851033528939979 5.088076172080017 L4.841512044940032 5.105084635080042 L4.83516438794004 5.110537109080022 L4.826212564939965 5.112246094080016 L4.814493814939965 5.112408854080039 L4.793660481940037 5.110537109080022 L4.77640787793996 5.10418945308002 L4.737670898939996 5.083111979080039 L4.71781412793996 5.07643880208 L4.722859700940035 5.066103515080025 L4.725952148939996 5.062115885080042 L4.707722981940037 5.0492578120800236 L4.691609700940035 5.050559896080054 L4.677937825940035 5.057802734080022 L4.666544596939957 5.062115885080042 L4.648885091939974 5.057721354080039 L4.63578287793996 5.046490885080042 L4.607137044940032 5.011334635080042 L4.602986653939979 4.997255859080022 L4.598103841939974 4.990419922080017 L4.590698242939993 4.9828515620800236 L4.588582356940037 4.977643229080039 L4.594441731940037 4.9602278640800055 L4.601277669940032 4.948427734080022 L4.621297200940035 4.9301171870800236 L4.628458658939962 4.918154297080017 L4.63187662793996 4.92214192708 L4.635294596939957 4.923525390080025 L4.638875325940035 4.9242578120800236 L4.642781575940035 4.925559896080054 L4.657185872939976 4.940615234080022 L4.666951497939976 4.94753255208 L4.6776123049399985 4.952252604080039 L4.68868001294004 4.953066406080021 L4.712361653939979 4.95184570308002 L4.72188313794004 4.956240234080022 L4.741902669940032 4.973736979080039 L4.762573242939993 4.986920573080036 L4.818562825940035 5.013369140080025 L4.848185221939957 5.03542317708 L4.883666992939993 5.052513021080054 L4.912638346939957 5.074404297080017 L4.933308919940032 5.083681640080025 L4.977986653939979 5.096865234080022 L5.019083658939962 5.114850260080042 L5.128865559939982 5.193056640080025 Z M4.429890950940035 4.747500000080018 L4.447469075940035 4.749697265080025 L4.464558919940032 4.754661458080003 L4.476277669940032 4.764752604080039 L4.4783935549399985 4.78151692708 L4.455118814939965 4.772402344080016 L4.435750325940035 4.767519531080021 L4.418497721939957 4.759462890080025 L4.402547200940035 4.7406640620800236 L4.410522460940001 4.739850260080042 L4.41719563794004 4.740989583080003 L4.423543294940032 4.743593750080018 L4.429890950940035 4.747500000080018 Z M6.366170247939976 3.729596354080039 L6.371053059939982 3.7203190100800416 L6.367146809939982 3.7160872390800055 L6.360229492939993 3.7144596350800416 L6.355834960940001 3.7126692710800544 L6.342488606940037 3.6884179690800156 L6.342244466939974 3.6752343750800183 L6.355834960940001 3.663759765080025 L6.377644856940037 3.6812565100800416 L6.394002278939979 3.70925130208 L6.39571126294004 3.735455729080039 L6.373006184939982 3.746848958080003 L6.365926106940037 3.7455468750800183 L6.362182617939993 3.7416406250800183 L6.361857096939957 3.736269531080021 L6.366170247939976 3.729596354080039 Z M7.000040689939965 4.280703125080018 L7.010701497939976 4.2758203120800236 L7.017781575940035 4.283958333080003 L7.01680501294004 4.295839844080016 L7.003458658939962 4.301861979080039 L6.990193684939982 4.299583333080003 L6.978474934939982 4.296002604080039 L6.966349283939962 4.29518880208 L6.95235188794004 4.301861979080039 L6.944864908939962 4.2973046870800236 L6.934448242939993 4.295514323080036 L6.917521158939962 4.295026041080044 L6.903849283939962 4.292584635080042 L6.832234700940035 4.265078125080018 L6.809122721939957 4.2680078120800236 L6.787150064939965 4.288190104080039 L6.775919596939957 4.282167969080016 L6.763224283939962 4.280214844080016 L6.736043294940032 4.280703125080018 L6.726277669940032 4.278505859080022 L6.719116210940001 4.272890625080018 L6.712849934939982 4.266380208080003 L6.705281575940035 4.260846354080039 L6.661092122939976 4.243593750080018 L6.645060221939957 4.230410156080021 L6.636433919940032 4.226666666080044 L6.623738606940037 4.228701172080017 L6.594604492939993 4.238385416080044 L6.585327148939996 4.23659505208 L6.575887044940032 4.23114257808002 L6.534057617939993 4.2191796870800236 L6.535522460940001 4.2211328120800236 L6.529825846939957 4.223736979080039 L6.516967773939996 4.226666666080044 L6.510457356940037 4.224388021080054 L6.500203450940035 4.214622396080054 L6.496541341939974 4.212343750080018 L6.486694335940001 4.20965820308002 L6.480021158939962 4.202740885080042 L6.472045898939996 4.185162760080042 L6.466512044940032 4.199811198080036 L6.465698242939993 4.206240234080022 L6.443806966939974 4.190208333080003 L6.432169596939957 4.187115885080042 L6.417358398939996 4.191998698080036 L6.414754231940037 4.185732422080017 L6.40743001294004 4.177431640080025 L6.403686523939996 4.172060547080017 L6.3944091799399985 4.175885416080044 L6.386189778939979 4.169375000080018 L6.381551106940037 4.159121094080016 L6.383260091939974 4.151552734080022 L6.373901367939993 4.139833984080022 L6.362019856940037 4.138857422080017 L6.34867350293996 4.140729166080044 L6.335408528939979 4.137311198080036 L6.328165689939965 4.127708333080003 L6.32539876294004 4.116396484080022 L6.320027669940032 4.107037760080042 L6.304646809939982 4.103212890080025 L6.299519856940037 4.0969466140800055 L6.28633626294004 4.08465820308002 L6.27266438794004 4.075625000080018 L6.266560872939976 4.079287109080022 L6.261759439939965 4.088076172080017 L6.25101725293996 4.081484375080018 L6.232381184939982 4.06276692708 L6.232625325940035 4.054303385080042 L6.228230794940032 4.048281250080018 L6.220906575940035 4.044537760080042 L6.211873372939976 4.04168945308002 L6.21390787793996 4.034121094080016 L6.211873372939976 4.027041015080025 L6.206502278939979 4.02020507808002 L6.198201497939976 4.013857422080017 L6.189900716939974 4.02370442708 L6.177937825940035 4.027041015080025 L6.1639404299399985 4.025494791080044 L6.149861653939979 4.021263021080054 L6.170369466939974 3.959169922080017 L6.15938313794004 3.952252604080039 L6.158162434939982 3.9426497390800055 L6.158650716939974 3.9320703120800236 L6.15352376294004 3.921572265080025 L6.147338867939993 3.920107422080017 L6.127156575940035 3.9245019530800196 L6.115600585940001 3.9249902340800222 L6.1248779299399985 3.9133528640800055 L6.1326904299399985 3.8970768230800363 L6.13187662793996 3.882753906080021 L6.115600585940001 3.87722005208 L6.125854492939993 3.8521549480800363 L6.1326904299399985 3.8405175780800196 L6.13985188794004 3.835634765080025 L6.145222981940037 3.8334375000800183 L6.143269856940037 3.8287174480800363 L6.136189778939979 3.821962890080025 L6.1307373049399985 3.82057942708 L6.114949544940032 3.822451172080017 L6.108846028939979 3.821962890080025 L6.102010091939974 3.816591797080017 L6.0975341799399985 3.8097558590800222 L6.091186523939996 3.8039778640800055 L6.077840169940032 3.801536458080003 L6.0506591799399985 3.801536458080003 L6.0389404299399985 3.7986067710800544 L6.03438313794004 3.79128255208 L6.028035481940037 3.787050781080021 L6.014038085940001 3.786236979080039 L5.992716471939957 3.787864583080003 L5.986531575940035 3.7907942710800544 L5.982137044940032 3.7955143230800363 L5.976928710940001 3.799583333080003 L5.969197591939974 3.801536458080003 L5.96211751294004 3.800478515080025 L5.955281575940035 3.7958398440800156 L5.929077148939996 3.7924218750800183 L5.918334960940001 3.7882714840800222 L5.910115559939982 3.780947265080025 L5.905965169940032 3.76589192708 L5.914591471939957 3.744082031080021 L5.910115559939982 3.733177083080003 L5.914998372939976 3.728457031080021 L5.917439778939979 3.7252018230800363 L5.919637044940032 3.7224348960800544 L5.924519856940037 3.7201562500800183 L5.917521158939962 3.7045312500800183 L5.91703287793996 3.6828027340800222 L5.925252278939979 3.6641666660800443 L5.944295247939976 3.6574934890800055 L5.949666341939974 3.660341797080017 L5.955281575940035 3.66237630208 L5.960896809939982 3.665712890080025 L5.96602376294004 3.6710839840800222 L6.021199544940032 3.6610742190800156 L6.127400716939974 3.707786458080003 L6.234741210940001 3.7738671870800236 L6.293823242939993 3.821962890080025 L6.312459309939982 3.814638672080017 L6.32539876294004 3.82253255208 L6.3455810549399985 3.8531315100800416 L6.360310872939976 3.862408854080039 L6.37601725293996 3.864036458080003 L6.391072591939974 3.8628971350800416 L6.403686523939996 3.86354817708 L6.416219075940035 3.868837890080025 L6.445760091939974 3.8868229160800443 L6.451375325940035 3.894228515080025 L6.460896809939982 3.903994140080025 L6.482462564939965 3.9049707030800196 L6.5057373049399985 3.8998437500800183 L6.520385742939993 3.890810547080017 L6.55765787793996 3.9030175780800196 L6.574666341939974 3.903994140080025 L6.588745117939993 3.8976464840800222 L6.5975341799399985 3.9055403640800055 L6.612263997939976 3.9242578120800236 L6.622762044940032 3.931826172080017 L6.634480794940032 3.935488281080021 L6.66703287793996 3.931826172080017 L6.684041341939974 3.9353255210800544 L6.689168294940032 3.9328841140800055 L6.693725585940001 3.911806640080025 L6.70039876294004 3.9066796870800236 L6.709431966939974 3.9047265620800236 L6.718953450940035 3.90456380208 L6.738810221939957 3.9135156250800183 L6.765584309939982 3.9507877600800416 L6.776896158939962 3.959169922080017 L6.78828938794004 3.9657617190800156 L6.796590169940032 3.9810611980800363 L6.816935221939957 4.034934896080054 L6.82149251294004 4.04168945308002 L6.828816731940037 4.047467448080036 L6.835408528939979 4.04950195308002 L6.840535481940037 4.053815104080039 L6.845662434939982 4.08661132808002 L6.854044596939957 4.101666666080044 L6.867146809939982 4.113222656080021 L6.902709960940001 4.136660156080021 L6.912963867939993 4.149029948080036 L6.916951497939976 4.16473632808002 L6.91719563794004 4.221783854080039 L6.914103189939965 4.226666666080044 L6.907755533939962 4.22878255208 L6.900431314939965 4.233990885080042 L6.894002278939979 4.240419922080017 L6.890177408939962 4.2465234370800236 L6.896931966939974 4.271425781080021 L6.928670247939976 4.276471354080039 L6.9686279299399985 4.275087890080025 L7.000040689939965 4.280703125080018 Z M11.798543294940032 3.343447265080025 L11.790974934939982 3.3253808590800222 L11.795369466939974 3.3161848960800544 L11.806030273939996 3.317161458080003 L11.81742350293996 3.330019531080021 L11.821166992939993 3.3429589840800222 L11.818562825940035 3.3507714840800222 L11.810506184939982 3.3516666660800443 L11.798543294940032 3.343447265080025 Z M11.717000325940035 3.2603580730800363 L11.72969563794004 3.258893229080039 L11.73343912793996 3.261660156080021 L11.729207356940037 3.263613281080021 L11.717000325940035 3.2603580730800363 Z M6.602986653939979 3.3080468750800183 L6.588826497939976 3.2963281250800183 L6.57523600293996 3.2738671870800236 L6.565388997939976 3.247174479080039 L6.553670247939976 3.1771875000800183 L6.555135091939974 3.164003906080021 L6.565388997939976 3.149192708080003 L6.57735188794004 3.1474023440800156 L6.590291341939974 3.1488671870800236 L6.602986653939979 3.143658854080039 L6.603719075940035 3.1517968750800183 L6.602010091939974 3.157005208080003 L6.596069335940001 3.164003906080021 L6.594278971939957 3.171572265080025 L6.592732747939976 3.1747460940800156 L6.588745117939993 3.177675781080021 L6.59493001294004 3.1919986980800363 L6.607625325940035 3.2745996090800222 L6.607625325940035 3.291201172080017 L6.602986653939979 3.3080468750800183 Z M6.019978841939974 2.8698144530800196 L6.015584309939982 2.8717675780800196 L6.004435221939957 2.874697265080025 L6.000203450940035 2.876650390080025 L6.000203450940035 2.85573567708 L5.993611653939979 2.8366113280800196 L5.972208658939962 2.800966797080017 L5.97953287793996 2.7955957030800196 L5.984334309939982 2.7963281250800183 L5.992716471939957 2.8083723960800544 L6.006062825940035 2.822207031080021 L6.040405273939996 2.8430403640800055 L6.047403971939957 2.8528059890800055 L6.051472981940037 2.8687565100800416 L6.081502278939979 2.9108300780800196 L6.106892903939979 2.961692708080003 L6.119099934939982 2.9760156250800183 L6.124471028939979 2.984316406080021 L6.13187662793996 3.0065332030800196 L6.13985188794004 3.017275390080025 L6.14945475293996 3.027529297080017 L6.15726725293996 3.0385156250800183 L6.170369466939974 3.0617089840800222 L6.177124023939996 3.080019531080021 L6.179158528939979 3.097353515080025 L6.177693684939982 3.1334049480800363 L6.181111653939979 3.150087890080025 L6.195678710940001 3.1833723960800544 L6.198201497939976 3.2056705730800363 L6.193400064939965 3.228212890080025 L6.183797200940035 3.246035156080021 L6.174357096939957 3.2496158850800416 L6.170369466939974 3.229270833080003 L6.129272460940001 3.1845117190800156 L6.119832356940037 3.160097656080021 L6.113484700940035 3.1491113280800196 L6.10257975293996 3.143658854080039 L6.0916748049399985 3.1469140620800236 L6.084513346939957 3.174908854080039 L6.0740966799399985 3.1919986980800363 L6.05782063794004 3.1749902340800222 L6.04024251294004 3.1516341140800055 L6.025919596939957 3.1270572910800443 L6.019978841939974 3.1060611980800363 L6.019978841939974 3.044863281080021 L6.019978841939974 2.986513672080017 L6.017537434939982 2.9646223960800544 L6.018107096939957 2.951927083080003 L6.03438313794004 2.9230371090800222 L6.031290689939965 2.907005208080003 L6.023396809939982 2.890566406080021 L6.019978841939974 2.8698144530800196 Z M5.451538085940001 3.2943750000800183 L5.449910481940037 3.3243229160800443 L5.4237060549399985 3.3410872390800055 L5.348510742939993 3.356549479080039 L5.309448242939993 3.3689192710800544 L5.28812662793996 3.379986979080039 L5.269978841939974 3.3941471350800416 L5.197713216939974 3.3762434890800055 L5.13382975293996 3.3462955730800363 L5.112019856940037 3.3422265620800236 L5.071004231940037 3.3497135410800443 L5.058064778939979 3.3461328120800236 L5.049357096939957 3.3371809890800055 L5.041951497939976 3.326113281080021 L5.033162434939982 3.315533854080039 L5.028849283939962 3.3145572910800443 L5.017130533939962 3.316347656080021 L5.01273600293996 3.315533854080039 L5.010213216939974 3.3119531250800183 L5.003621419940032 3.29909505208 L4.998982747939976 3.2943750000800183 L4.969441731940037 3.2826562500800183 L4.961140950940035 3.277285156080021 L4.945515950940035 3.2721582030800196 L4.833455403939979 3.2671940100800416 L4.74906412793996 3.2802148440800156 L4.70430501294004 3.2808658850800416 L4.676717122939976 3.277529297080017 L4.665568033939962 3.27761067708 L4.656453450940035 3.2808658850800416 L4.649780273939996 3.277285156080021 L4.628458658939962 3.2738671870800236 L4.606323242939993 3.2680078120800236 L4.584187825940035 3.266380208080003 L4.562459309939982 3.2626367190800156 L4.528279622939976 3.244895833080003 L4.512410481940037 3.2398502600800416 L4.493041992939993 3.2427799480800363 L4.477010091939974 3.2497786460800544 L4.4608154299399985 3.2509179690800156 L4.440144856940037 3.236025390080025 L4.393920898939996 3.1892317710800544 L4.375935872939976 3.177675781080021 L4.348592122939976 3.164003906080021 L4.3475341799399985 3.159853515080025 L4.349161783939962 3.148134765080025 L4.348592122939976 3.143658854080039 L4.344604492939993 3.139427083080003 L4.336303710940001 3.1373111980800363 L4.33109537793996 3.1334049480800363 L4.32735188794004 3.1246158850800416 L4.326375325940035 3.1144433590800222 L4.324259439939965 3.1061425780800196 L4.317260742939993 3.102643229080039 L4.300496419940032 3.1002832030800196 L4.297322591939974 3.09401692708 L4.30000813794004 3.0851464840800222 L4.300170898939996 3.0746484370800236 L4.2908935549399985 3.0521875000800183 L4.2791748049399985 3.0318424480800363 L4.26485188794004 3.0134505210800544 L4.248575846939957 2.9967675780800196 L4.23360188794004 2.9859440100800416 L4.227010091939974 2.9789453120800236 L4.224324544940032 2.9694238280800196 L4.23734537793996 2.962832031080021 L4.246948242939993 2.955263672080017 L4.252400716939974 2.945009765080025 L4.250447591939974 2.934674479080039 L4.236287434939982 2.9141666660800443 L4.231892903939979 2.90456380208 L4.23148600293996 2.89284505208 L4.238728841939974 2.8663964840800222 L4.237670898939996 2.8558984370800236 L4.232950846939957 2.842552083080003 L4.231892903939979 2.831972656080021 L4.221232096939957 2.8214746090800222 L4.217325846939957 2.818544922080017 L4.221638997939976 2.8119531250800183 L4.231892903939979 2.800966797080017 L4.234741210940001 2.7668684890800055 L4.241170247939976 2.7523828120800236 L4.255818684939982 2.746279297080017 L4.2713623049399985 2.7418033850800416 L4.334187825940035 2.704775390080025 L4.368855794940032 2.7165755210800544 L4.4041748049399985 2.739036458080003 L4.457885742939993 2.787294922080017 L4.498494466939974 2.8165104160800443 L4.50492350293996 2.8251367190800156 L4.509318033939962 2.8394596350800416 L4.519897460940001 2.8566308590800222 L4.533406575940035 2.8726627600800416 L4.546590169940032 2.8834863280800196 L4.564900716939974 2.8899153640800055 L4.586140950940035 2.891705729080039 L4.625040689939965 2.890322265080025 L4.635457356940037 2.888857422080017 L4.644978841939974 2.884707031080021 L4.653198242939993 2.87917317708 L4.659871419940032 2.873232422080017 L4.668660481940037 2.8711979160800443 L4.681355794940032 2.8744531250800183 L4.70430501294004 2.8834863280800196 L4.724324544940032 2.88893880208 L4.735066731940037 2.890566406080021 L4.745808919940032 2.890322265080025 L4.755574544940032 2.8863346350800416 L4.773152669940032 2.872744140080025 L4.782918294940032 2.8698144530800196 L4.804239908939962 2.8720117190800156 L4.836385091939974 2.8812890620800236 L4.855672200940035 2.8834863280800196 L4.86234537793996 2.881614583080003 L4.870808919940032 2.872744140080025 L4.87618001294004 2.8698144530800196 L4.881713867939993 2.8703027340800222 L4.890340169940032 2.875755208080003 L4.895955403939979 2.876650390080025 L4.971150716939974 2.876650390080025 L4.975056966939974 2.8755924480800363 L4.985310872939976 2.8705468750800183 L4.991577148939996 2.8698144530800196 L4.993123372939976 2.8720117190800156 L4.997517903939979 2.876650390080025 L5.003377278939979 2.8812890620800236 L5.023640950940035 2.8899153640800055 L5.044392903939979 2.918154297080017 L5.084513346939957 2.9320703120800236 L5.10078938794004 2.950299479080039 L5.128865559939982 2.9933496090800222 L5.165974934939982 2.988466797080017 L5.211629231940037 3.0084049480800363 L5.253621419940032 3.03932942708 L5.279663085940001 3.0678125000800183 L5.286661783939962 3.0846582030800196 L5.2908935549399985 3.105166015080025 L5.293172200940035 3.1470768230800363 L5.298217773939996 3.155052083080003 L5.309122721939957 3.155377604080039 L5.325154622939976 3.1504947910800443 L5.337849934939982 3.1524479160800443 L5.348185221939957 3.1574934890800055 L5.3690185549399985 3.171002604080039 L5.402303059939982 3.179873047080017 L5.410603841939974 3.1845117190800156 L5.413045247939976 3.1946028640800055 L5.412150064939965 3.2086002600800416 L5.414754231940037 3.220888672080017 L5.427286783939962 3.2261783850800416 L5.43070475293996 3.2310611980800363 L5.431681314939965 3.2419661460800544 L5.431030273939996 3.263369140080025 L5.4334716799399985 3.2730533850800416 L5.438842773939996 3.2790755210800544 L5.445515950940035 3.2849348960800544 L5.451538085940001 3.2943750000800183 Z M4.454060872939976 2.629661458080003 L4.439900716939974 2.623232422080017 L4.431355794940032 2.607363281080021 L4.429646809939982 2.5871809890800055 L4.43672688794004 2.5681380210800544 L4.442830403939979 2.5668359370800236 L4.447713216939974 2.5669986980800363 L4.452514648939996 2.5656966140800055 L4.457885742939993 2.560732422080017 L4.465291341939974 2.579775390080025 L4.46993001294004 2.6024804690800156 L4.467732747939976 2.6216861980800363 L4.454060872939976 2.629661458080003 Z M4.879272460940001 2.615989583080003 L4.890340169940032 2.6127343750800183 L4.901814778939979 2.6049218750800183 L4.91117350293996 2.59597005208 L4.91719563794004 2.588645833080003 L4.929890950940035 2.5396549480800363 L4.940144856940037 2.5187402340800222 L4.957478841939974 2.5204492190800156 L4.984415689939965 2.5679752600800416 L4.99532063794004 2.574973958080003 L5.010457356940037 2.5754622390800055 L5.022420247939976 2.577252604080039 L5.031616210940001 2.5814843750800183 L5.039428710940001 2.588645833080003 L5.0272216799399985 2.6011783850800416 L5.012410481940037 2.6278710940800156 L4.998982747939976 2.636416015080025 L4.991577148939996 2.6432519530800196 L4.970174153939979 2.6363346350800416 L4.949910481940037 2.6244531250800183 L4.930135091939974 2.616884765080025 L4.910359700940035 2.6228255210800544 L4.914510091939974 2.63503255208 L4.89961751294004 2.6434960940800156 L4.876668294940032 2.648378906080021 L4.855672200940035 2.650087890080025 L4.86055501294004 2.6421940100800416 L4.859822591939974 2.635846354080039 L4.853474934939982 2.6315332030800196 L4.841349283939962 2.629661458080003 L4.847127278939979 2.6198144530800196 L4.855672200940035 2.6159082030800196 L4.879272460940001 2.615989583080003 Z M3.820353189939965 2.513613281080021 L3.830525716939974 2.5121484370800236 L3.851033528939979 2.488466797080017 L3.8612874349399817 2.4800846350800416 L3.861043294940032 2.484560547080017 L3.859415689939965 2.4872460940800156 L3.856892903939979 2.4896875000800183 L3.8544514979399764 2.4931054690800156 L3.8544514979399764 2.5031152340800222 L3.8525797529399597 2.5056380210800544 L3.8544514979399764 2.513613281080021 L3.8446858729399764 2.5232161460800544 L3.842325846939957 2.5321679690800156 L3.847696939939965 2.5367252600800416 L3.8612874349399817 2.533388672080017 L3.8584391279399597 2.5580468750800183 L3.8439534509400346 2.574404297080017 L3.799275716939974 2.5954817710800544 L3.800170898939996 2.5684635410800443 L3.803588867939993 2.5497460940800156 L3.820353189939965 2.513613281080021 Z M4.72188313794004 2.513613281080021 L4.714558919940032 2.5123925780800196 L4.708943684939982 2.5090559890800055 L4.705525716939974 2.5036848960800544 L4.70430501294004 2.4965234370800236 L4.712361653939979 2.494082031080021 L4.7303466799399985 2.492128906080021 L4.74906412793996 2.4864322910800443 L4.759480794940032 2.472597656080021 L4.766316731940037 2.4800846350800416 L4.771036783939962 2.4721093750800183 L4.772827148939996 2.4657617190800156 L4.771199544940032 2.4595768230800363 L4.766316731940037 2.45143880208 L4.770222981940037 2.4470442710800544 L4.772908528939979 2.4467187500800183 L4.779825846939957 2.45143880208 L4.797729492939993 2.45925130208 L4.816121419940032 2.4574609370800236 L4.833699544940032 2.459739583080003 L4.848185221939957 2.4800846350800416 L4.855672200940035 2.4800846350800416 L4.865437825940035 2.4633203120800236 L4.883178710940001 2.4660872390800055 L4.903198242939993 2.4800846350800416 L4.920288085940001 2.4965234370800236 L4.926635742939993 2.518658854080039 L4.919881184939982 2.5469791660800443 L4.905721028939979 2.573020833080003 L4.88968912793996 2.588645833080003 L4.886271158939962 2.5809960940800156 L4.882771809939982 2.577822265080025 L4.877482096939957 2.5782291660800443 L4.869344075940035 2.5812402340800222 L4.868123372939976 2.569440104080039 L4.86250813794004 2.560488281080021 L4.8533935549399985 2.5553613280800196 L4.841349283939962 2.554628906080021 L4.843790689939965 2.5600000000800183 L4.848185221939957 2.574973958080003 L4.841349283939962 2.574973958080003 L4.825073242939993 2.548769531080021 L4.812703450940035 2.5388411460800544 L4.797078450940035 2.544049479080039 L4.781941731940037 2.55104817708 L4.763387044940032 2.551861979080039 L4.74515787793996 2.547630208080003 L4.73148600293996 2.5407942710800544 L4.729451497939976 2.5349348960800544 L4.729044596939957 2.5258203120800236 L4.727498372939976 2.517275390080025 L4.72188313794004 2.513613281080021 Z M3.792358398939996 2.4750390620800236 L3.80000813794004 2.4735742190800156 L3.820353189939965 2.4800846350800416 L3.786824544940032 2.547060547080017 L3.7725016279399597 2.560732422080017 L3.7248128259400346 2.574973958080003 L3.716186523939996 2.5690332030800196 L3.7091878259400346 2.558779297080017 L3.7013753259400346 2.55300130208 L3.689982096939957 2.560732422080017 L3.664510091939974 2.525576172080017 L3.6662190759400346 2.5143457030800196 L3.6974690759400346 2.513613281080021 L3.6912841799399985 2.50026692708 L3.69453938794004 2.4908268230800363 L3.7040608729399764 2.4875716140800055 L3.717325846939957 2.4931054690800156 L3.717325846939957 2.4800846350800416 L3.722127278939979 2.4818750000800183 L3.737752278939979 2.486269531080021 L3.736368814939965 2.4757714840800222 L3.732462564939965 2.4665755210800544 L3.726033528939979 2.4584375000800183 L3.717325846939957 2.45143880208 L3.73164876294004 2.45143880208 L3.74141438794004 2.4563216140800055 L3.74922688794004 2.456972656080021 L3.75508626294004 2.45339192708 L3.7588297529399597 2.4454166660800443 L3.7655843099399817 2.458925781080021 L3.7671305339399623 2.4694238280800196 L3.769571939939965 2.4779687500800183 L3.7795003259400346 2.486269531080021 L3.784545898939996 2.4861067710800544 L3.792358398939996 2.4750390620800236 Z M4.70430501294004 2.4800846350800416 L4.691853841939974 2.470644531080021 L4.6932373049399985 2.4603906250800183 L4.700154622939976 2.4488346350800416 L4.70430501294004 2.4347558590800222 L4.699584960940001 2.408388672080017 L4.702840169940032 2.4001692710800544 L4.71781412793996 2.397565104080039 L4.73360188794004 2.41823567708 L4.738972981940037 2.431337890080025 L4.738321939939965 2.45143880208 L4.724324544940032 2.445498047080017 L4.71602376294004 2.452822265080025 L4.70430501294004 2.4800846350800416 Z M2.240681966939974 2.1915104160800443 L2.2607014979399764 2.201113281080021 L2.275105794940032 2.2222721350800416 L2.2741292319400372 2.243268229080039 L2.247517903939979 2.2528710940800156 L2.238728841939974 2.2501041660800443 L2.202840169940032 2.2317122390800055 L2.1549886069400372 2.2188541660800443 L2.101928710940001 2.1965559890800055 L2.077596028939979 2.1788964840800222 L2.080525716939974 2.1635156250800183 L2.1178792319400372 2.169049479080039 L2.13399251294004 2.169619140080025 L2.148885091939974 2.1635156250800183 L2.1549886069400372 2.171002604080039 L2.163452148939996 2.157900390080025 L2.1689860029399597 2.1519596350800416 L2.1748453779399597 2.149192708080003 L2.184041341939974 2.1508203120800236 L2.189819335940001 2.1558658850800416 L2.1940511069400372 2.1610742190800156 L2.1990966799399985 2.1635156250800183 L2.2157796229399764 2.167910156080021 L2.2261149089399623 2.177431640080025 L2.2334391279399597 2.1871158850800416 L2.240681966939974 2.1915104160800443 Z M2.853963216939974 2.2317122390800055 L2.8818766279399597 2.2426171870800236 L2.8808186849399817 2.251894531080021 L2.877400716939974 2.259707031080021 L2.871948242939993 2.2650781250800183 L2.8491617839399623 2.2707747390800055 L2.8283284509400346 2.2880273440800156 L2.8123779299399985 2.2938867190800156 L2.793416341939974 2.2642643230800363 L2.788777669940032 2.2590559890800055 L2.7788492839399623 2.253603515080025 L2.7788492839399623 2.2411523440800156 L2.785685221939957 2.2154361980800363 L2.790405273939996 2.2062402340800222 L2.819783528939979 2.1840234370800236 L2.8251546229399764 2.1750716140800055 L2.829467773939996 2.1636783850800416 L2.832397460940001 2.1504947910800443 L2.833455403939979 2.1361718750800183 L2.840291341939974 2.1361718750800183 L2.840291341939974 2.157330729080039 L2.8485921229399764 2.1719791660800443 L2.8554280599399817 2.195009765080025 L2.857869466939974 2.217877604080039 L2.853963216939974 2.2317122390800055 Z M2.682088216939974 1.9852929690800156 L2.702840169940032 1.9805729160800443 L2.727986653939979 1.980654297080017 L2.7489827479399764 1.987408854080039 L2.7576904299399985 2.0025455730800363 L2.760213216939974 2.0238671870800236 L2.758666992939993 2.031191406080021 L2.7509358729399764 2.0399804690800156 L2.741577148939996 2.042666015080025 L2.7303466799399985 2.0416894530800196 L2.720743814939965 2.0425846350800416 L2.7167561849399817 2.0505598960800544 L2.71211751294004 2.0541406250800183 L2.692749023939996 2.0617089840800222 L2.6901448569400372 2.0679752600800416 L2.696166992939993 2.073916015080025 L2.7157796229399764 2.0768457030800196 L2.7235921229399764 2.0816471350800416 L2.7292073569400372 2.078066406080021 L2.7334391279399597 2.0766015620800236 L2.7440999349399817 2.0748111980800363 L2.7314046229399764 2.0915755210800544 L2.7248128259400346 2.0972721350800416 L2.7167561849399817 2.1021549480800363 L2.73946126294004 2.1247786460800544 L2.730916341939974 2.148134765080025 L2.6901448569400372 2.1840234370800236 L2.6776936849399817 2.202822265080025 L2.6728108729399764 2.2084375000800183 L2.663777669940032 2.2138085940800156 L2.6463623049399985 2.217877604080039 L2.6385498049399985 2.2222721350800416 L2.62422688794004 2.224306640080025 L2.602091471939957 2.2196679690800156 L2.5822347009400346 2.2129947910800443 L2.57344563794004 2.2084375000800183 L2.570760091939974 2.2017643230800363 L2.5646565759400346 2.197207031080021 L2.5529378259400346 2.1915104160800443 L2.548543294940032 2.1864648440800156 L2.542683919940032 2.17604817708 L2.538533528939979 2.171002604080039 L2.5093180339399623 2.145286458080003 L2.504435221939957 2.1395898440800156 L2.504435221939957 2.0884830730800363 L2.5112711589399623 2.0536523440800156 L2.515340169940032 2.047630208080003 L2.521199544940032 2.041770833080003 L2.5255940759400346 2.03347005208 L2.5249430339399623 2.019472656080021 L2.55196126294004 2.035911458080003 L2.562866210940001 2.0363997390800055 L2.5666097009400346 2.019472656080021 L2.57344563794004 2.0204492190800156 L2.5768636069400372 2.023378906080021 L2.5802815759400346 2.0337955730800363 L2.588338216939974 2.0207747390800055 L2.585652669940032 2.0111718750800183 L2.5802815759400346 2.000755208080003 L2.5802815759400346 1.9852929690800156 L2.586385091939974 1.9786197910800443 L2.621134439939965 1.9649479160800443 L2.6287841799399985 1.9634830730800363 L2.631713867939993 1.9620996090800222 L2.634806314939965 1.958111979080039 L2.642293294940032 1.9649479160800443 L2.642293294940032 1.971783854080039 L2.6338297529399597 1.9779687500800183 L2.6304117839399623 1.9855371090800222 L2.63203938794004 1.9939192710800544 L2.6385498049399985 2.0025455730800363 L2.65157063794004 2.007998047080017 L2.662475585940001 2.0025455730800363 L2.672241210940001 1.9928613280800196 L2.682088216939974 1.9852929690800156 Z M1.983846028939979 2.0337955730800363 L1.9794514979399764 2.0337955730800363 L1.9750569669399738 2.030947265080025 L1.9699300129400399 2.02956380208 L1.963256835940001 2.0337955730800363 L1.9618733729399764 2.0388411460800544 L1.963256835940001 2.0611393230800363 L1.9557698569400372 2.0899479160800443 L1.954549153939979 2.1061425780800196 L1.9598388679399932 2.11940755208 L1.9960530599399817 2.157900390080025 L2.0163167319400372 2.172060547080017 L2.0390218099399817 2.1778385410800443 L2.0390218099399817 2.1840234370800236 L2.0233968099399817 2.1876041660800443 L2.004760742939993 2.1867903640800055 L1.986857096939957 2.1823144530800196 L1.9735107429399932 2.1744205730800363 L1.9618733729399764 2.1630273440800156 L1.954793294940032 2.1588769530800196 L1.945841471939957 2.157330729080039 L1.9374593099399817 2.1532617190800156 L1.935913085940001 2.143658854080039 L1.9367268879400399 2.1322656250800183 L1.9359944669399738 2.123232422080017 L1.929402669940032 2.1117578120800236 L1.9030354819400372 2.0756250000800183 L1.8913167319400372 2.0679752600800416 L1.8752034509400346 2.06276692708 L1.853556314939965 2.050478515080025 L1.834350585940001 2.03542317708 L1.8261311849399817 2.0228906250800183 L1.8288167319400372 2.008567708080003 L1.8353271489399958 1.996279297080017 L1.844116210940001 1.986269531080021 L1.8533935549399985 1.9786197910800443 L1.8800862629400399 1.9645410150800249 L1.8952229819400372 1.9535546870800236 L1.9142659509400346 1.916201172080017 L1.9424235029399597 1.8887760410800443 L1.972696939939965 1.8695703120800236 L1.9911702479399764 1.8698958330800028 L2.009236653939979 1.8820214840800222 L2.0244547529399597 1.9010644530800196 L2.0351155599399817 1.925966797080017 L2.0390218099399817 1.955019531080021 L2.035603841939974 1.9613671870800236 L2.0210367839399623 1.9782128900800249 L2.010620117939993 2.011660156080021 L2.0080159509400346 2.016380208080003 L2.005249023939996 2.019716797080017 L2.003377278939979 2.0263085940800156 L2.00118001294004 2.030052083080003 L1.9949951179399932 2.0349348960800544 L1.9904378259400346 2.0352604160800443 L1.9867757169399738 2.0337955730800363 L1.983846028939979 2.0337955730800363 Z M4.313842773939996 1.9649479160800443 L4.325561523939996 1.9755273440800156 L4.324666341939974 1.9820377600800416 L4.313842773939996 1.9922916660800443 L4.304728189939965 1.997174479080039 L4.295450846939957 1.9984765620800236 L4.285115559939982 1.9966861980800363 L4.272908528939979 1.9922916660800443 L4.261433919940032 1.986269531080021 L4.25313313794004 1.9796777340800222 L4.238728841939974 1.9649479160800443 L4.226603189939965 1.9459049480800363 L4.218221028939979 1.9423242190800156 L4.204549153939979 1.9518457030800196 L4.19047037793996 1.9361393230800363 L4.17500813794004 1.9278385410800443 L4.164021809939982 1.915957031080021 L4.163045247939976 1.8898339840800222 L4.170369466939974 1.863466797080017 L4.1834716799399985 1.8464583330800028 L4.203491210940001 1.8371809890800055 L4.231892903939979 1.8345768230800363 L4.261108398939996 1.8412500000800183 L4.269246419940032 1.857363281080021 L4.266072591939974 1.9040755210800544 L4.272176106940037 1.9254785150800249 L4.283732096939957 1.9395572910800443 L4.313842773939996 1.9649479160800443 Z M7.363810221939957 1.8454003900800249 L7.355672200940035 1.8352278640800055 L7.360066731940037 1.8308333330800028 L7.370808919940032 1.8313216140800055 L7.382771809939982 1.8355533850800416 L7.379272460940001 1.8395410150800249 L7.375040689939965 1.8422265620800236 L7.369669596939957 1.8440169270800002 L7.363810221939957 1.8454003900800249 Z M5.985880533939962 3.0746484370800236 L5.934122721939957 3.0386783850800416 L5.924519856940037 3.0377832030800196 L5.9217529299399985 3.0207747390800055 L5.914591471939957 3.0056380210800544 L5.874959309939982 2.954205729080039 L5.869832356940037 2.945009765080025 L5.867390950940035 2.9351627600800416 L5.865681966939974 2.915712890080025 L5.86234537793996 2.90456380208 L5.851521809939982 2.887473958080003 L5.804402669940032 2.8388085940800156 L5.735880533939962 2.8043033850800416 L5.71195475293996 2.7766341140800055 L5.66524251294004 2.770286458080003 L5.670613606940037 2.7531152340800222 L5.642618814939965 2.721783854080039 L5.629109700940035 2.7121809890800055 L5.621459960940001 2.7107161460800544 L5.6053466799399985 2.7121809890800055 L5.598347981940037 2.7084375000800183 L5.595174153939979 2.701113281080021 L5.59672037793996 2.684674479080039 L5.59493001294004 2.677431640080025 L5.571655273939996 2.6571679690800156 L5.515096028939979 2.6320214840800222 L5.493123372939976 2.6091536460800544 L5.420450846939957 2.4763411460800544 L5.402872721939957 2.4273502600800416 L5.389526367939993 2.4037500000800183 L5.394897460940001 2.3961002600800416 L5.396525064939965 2.3904036460800544 L5.394897460940001 2.384707031080021 L5.389526367939993 2.3770572910800443 L5.388875325940035 2.3624902340800222 L5.373413085940001 2.312197265080025 L5.359578450940035 2.290712890080025 L5.318318684939982 2.2082747390800055 L5.314493814939965 2.1946028640800055 L5.313924153939979 2.1407291660800443 L5.312052408939962 2.131614583080003 L5.279663085940001 2.0611393230800363 L5.297241210940001 2.0494205730800363 L5.326700846939957 2.024192708080003 L5.345092773939996 2.019472656080021 L5.345174153939979 2.0104394530800196 L5.321166992939993 1.958111979080039 L5.281616210940001 1.9063541660800443 L5.27657063794004 1.896669922080017 L5.263631184939982 1.8903222650800249 L5.22953287793996 1.8570377600800416 L5.218709309939982 1.841982422080017 L5.20625813794004 1.7975488280800196 L5.226521809939982 1.7824934890800055 L5.263631184939982 1.7868066400800249 L5.300740559939982 1.8003971350800416 L5.320515950940035 1.8186263020800002 L5.3280029299399985 1.8215559890800055 L5.338338216939974 1.819440104080039 L5.349161783939962 1.8139062500800183 L5.355428059939982 1.8060937500800183 L5.352010091939974 1.7973046870800236 L5.321166992939993 1.7771223960800544 L5.323933919940032 1.7701236980800363 L5.330932617939993 1.7632877600800416 L5.339803059939982 1.7590559890800055 L5.348510742939993 1.7600325520800002 L5.348510742939993 1.7662988280800196 L5.371785481940037 1.766705729080039 L5.384155273939996 1.7737044270800002 L5.403035481940037 1.8003971350800416 L5.41524251294004 1.8102441400800249 L5.4256591799399985 1.8158593750800183 L5.435017903939979 1.8243229160800443 L5.444702148939996 1.841982422080017 L5.449178059939982 1.8541894530800196 L5.450887044940032 1.8625716140800055 L5.451538085940001 1.872988281080021 L5.45430501294004 1.8778710940800156 L5.468139648939996 1.8863346350800416 L5.472615559939982 1.8898339840800222 L5.506225585940001 1.9410221350800416 L5.558064778939979 1.9963606770800002 L5.598347981940037 2.030052083080003 L5.622029622939976 2.06081380208 L5.631795247939976 2.0798567710800544 L5.63578287793996 2.0985742190800156 L5.627888997939976 2.11940755208 L5.608927408939962 2.13112630208 L5.586385091939974 2.1392643230800363 L5.56758626294004 2.149192708080003 L5.574259439939965 2.16237630208 L5.578572591939974 2.1755598960800544 L5.578165689939965 2.1886621090800222 L5.562215169940032 2.215924479080039 L5.561971028939979 2.228701172080017 L5.565388997939976 2.2414778640800055 L5.56758626294004 2.256044922080017 L5.571818033939962 2.2707747390800055 L5.590535481940037 2.2882714840800222 L5.59493001294004 2.2975488280800196 L5.601114908939962 2.3073144530800196 L5.615275064939965 2.304873047080017 L5.639200846939957 2.2938867190800156 L5.648152669940032 2.2977929690800156 L5.675496419940032 2.318300781080021 L5.684285481940037 2.328066406080021 L5.684936523939996 2.335065104080039 L5.68070475293996 2.3405175780800196 L5.678263346939957 2.346783854080039 L5.684285481940037 2.3558984370800236 L5.692342122939976 2.3605371090800222 L5.698933919940032 2.3600488280800196 L5.703328450940035 2.3575260410800443 L5.704793294940032 2.3558984370800236 L5.728230794940032 2.366884765080025 L5.753295898939996 2.384462890080025 L5.776326497939976 2.4066796870800236 L5.79414876294004 2.431582031080021 L5.7811279299399985 2.426536458080003 L5.770955403939979 2.434348958080003 L5.768025716939974 2.4457421870800236 L5.776733398939996 2.45143880208 L5.788777669940032 2.4564843750800183 L5.800333658939962 2.468691406080021 L5.806111653939979 2.484560547080017 L5.800984700940035 2.499941406080021 L5.80977376294004 2.5048242190800156 L5.81368001294004 2.5111718750800183 L5.814819335940001 2.5193098960800544 L5.814656575940035 2.5299707030800196 L5.816446939939965 2.5404687500800183 L5.82149251294004 2.5430729160800443 L5.828084309939982 2.54323567708 L5.83516438794004 2.547060547080017 L5.84102376294004 2.5512109370800236 L5.848022460940001 2.5547916660800443 L5.853881835940001 2.560732422080017 L5.856160481940037 2.5715559890800055 L5.85274251294004 2.576113281080021 L5.827677408939962 2.5954817710800544 L5.845906575940035 2.603701172080017 L5.852254231940037 2.6088281250800183 L5.856160481940037 2.615989583080003 L5.869181314939965 2.6109440100800416 L5.880900064939965 2.6139550780800196 L5.886922200940035 2.622988281080021 L5.883504231940037 2.636416015080025 L5.891072591939974 2.6373925780800196 L5.910115559939982 2.6432519530800196 L5.910115559939982 2.650087890080025 L5.883015950940035 2.6563541660800443 L5.873006184939982 2.6569238280800196 L5.869506835940001 2.662294922080017 L5.87032063794004 2.674013672080017 L5.874471028939979 2.685732422080017 L5.879842122939976 2.691103515080025 L5.886189778939979 2.698916015080025 L5.892049153939979 2.7350488280800196 L5.904012044940032 2.746279297080017 L5.8905029299399985 2.753603515080025 L5.884236653939979 2.7473372390800055 L5.879353841939974 2.737408854080039 L5.869832356940037 2.73268880208 L5.86055501294004 2.738222656080021 L5.862752278939979 2.7489648440800156 L5.871053059939982 2.7609277340800222 L5.910522460940001 2.8014550780800196 L5.921834309939982 2.8173242190800156 L5.953328450940035 2.895611979080039 L5.962361653939979 2.90456380208 L5.972859700940035 2.912864583080003 L5.987019856940037 2.93190755208 L6.006306966939974 2.9660872390800055 L6.018269856940037 3.0447005210800544 L6.017781575940035 3.066103515080025 L6.0115966799399985 3.0787988280800196 L6.000854492939993 3.081972656080021 L5.985880533939962 3.0746484370800236 Z M1.750366210940001 1.7321191400800249 L1.7558186849399817 1.7653222650800249 L1.7632242839399623 1.7794010410800443 L1.777709960940001 1.7868066400800249 L1.777709960940001 1.7942122390800055 L1.7487386069400372 1.7774479160800443 L1.7342529299399985 1.7403385410800443 L1.7157796229399764 1.706158854080039 L1.675252278939979 1.6979394530800196 L1.6787516279399597 1.6950097650800249 L1.685262044940032 1.6876041660800443 L1.688924153939979 1.6843489580800028 L1.6725667319400372 1.6769433590800222 L1.6551513679399932 1.6633528640800055 L1.6478271489399958 1.6498437500800183 L1.661580403939979 1.642763672080017 L1.6751708989399958 1.6537500000800183 L1.7010498049399985 1.6555403640800055 L1.726033528939979 1.6605859370800236 L1.7372639979399764 1.6809309890800055 L1.738810221939957 1.6937890620800236 L1.750366210940001 1.7321191400800249 Z M1.8328857429399932 1.7457910150800249 L1.8261311849399817 1.7457910150800249 L1.8241780599399817 1.7316308590800222 L1.8166097009400346 1.7289453120800236 L1.807006835940001 1.729596354080039 L1.7982177739399958 1.7258528640800055 L1.7943115239399958 1.7184472650800249 L1.7851155599399817 1.690533854080039 L1.7755940759400346 1.672955729080039 L1.7643636069400372 1.6579817710800544 L1.749715169940032 1.6456933590800222 L1.7298583989399958 1.6359277340800222 L1.7372639979399764 1.6296614580800028 L1.7270100919399738 1.6286848960800544 L1.722371419940032 1.6261621090800222 L1.7216389979399764 1.6220117190800156 L1.723022460940001 1.6159895830800028 L1.747517903939979 1.6244531250800183 L1.7708740239399958 1.6227441400800249 L1.7925211589399623 1.6244531250800183 L1.8124593099399817 1.642763672080017 L1.821980794940032 1.6637597650800249 L1.8293050129400399 1.6898828120800236 L1.833455403939979 1.7183658850800416 L1.8328857429399932 1.7457910150800249 Z M1.4357503259400346 1.5123925780800196 L1.4394124349399817 1.5290755210800544 L1.4499104819400372 1.5266341140800055 L1.466512044940032 1.5700097650800249 L1.4406331379400399 1.5690332030800196 L1.4108479819400372 1.5432356770800002 L1.4150797529399597 1.5123925780800196 L1.4357503259400346 1.5123925780800196 Z M2.4225667319400372 2.019472656080021 L2.4362386069400372 2.0277734370800236 L2.445678710940001 2.0402246090800222 L2.4487711589399623 2.0562565100800416 L2.443074544940032 2.0748111980800363 L2.4362386069400372 2.0748111980800363 L2.434041341939974 2.0583723960800544 L2.4267171229399764 2.047955729080039 L2.418823242939993 2.04128255208 L2.4150797529399597 2.0368880210800544 L2.4116617839399623 2.022565104080039 L2.4030354819400372 2.008567708080003 L2.380900064939965 1.9852929690800156 L2.3545328779399597 1.9709700520800002 L2.30000813794004 1.9662500000800183 L2.274861653939979 1.955019531080021 L2.230834960940001 1.9245019530800196 L2.2072347009400346 1.896425781080021 L2.202840169940032 1.8932519530800196 L2.201212564939965 1.8786035150800249 L2.193074544940032 1.8558984370800236 L2.189819335940001 1.841982422080017 L2.189819335940001 1.7805403640800055 L2.1972249349399817 1.792096354080039 L2.2011311849399817 1.8038964840800222 L2.202840169940032 1.8314843750800183 L2.20821126294004 1.8435286460800544 L2.23164876294004 1.8500390620800236 L2.2370198569400372 1.8590722650800249 L2.2401936849399817 1.8694075520800002 L2.24727376294004 1.8677799480800363 L2.254272460940001 1.8581770830800028 L2.257527669940032 1.8454003900800249 L2.2521565759400346 1.835065104080039 L2.228556314939965 1.8127669270800002 L2.2189534509400346 1.780377604080039 L2.207885742939993 1.7564518230800363 L2.192260742939993 1.7333398440800156 L2.1748453779399597 1.7184472650800249 L2.162556966939974 1.7154361980800363 L2.1533610029399597 1.7180403640800055 L2.1432698569400372 1.722841797080017 L2.127807617939993 1.7258528640800055 L2.1212972009400346 1.721783854080039 L2.114135742939993 1.7144596350800416 L2.1069742839399623 1.7129947910800443 L2.101033528939979 1.7258528640800055 L2.0900472009400346 1.7193424480800363 L2.081746419940032 1.7193424480800363 L2.0662841799399985 1.7258528640800055 L2.065307617939993 1.726748047080017 L2.0573323569400372 1.730654297080017 L2.0526936849399817 1.7321191400800249 L2.0185953779399597 1.732607422080017 L1.9816487629400399 1.7291080730800363 L1.9700927739399958 1.7321191400800249 L1.9613850919399738 1.7463606770800002 L1.954793294940032 1.7650781250800183 L1.9440511069400372 1.7829003900800249 L1.9223225919399738 1.7942122390800055 L1.9047444669399738 1.7904687500800183 L1.870564778939979 1.7706933590800222 L1.8602294929399932 1.7737044270800002 L1.8533935549399985 1.7737044270800002 L1.847127278939979 1.6809309890800055 L1.8500569669399738 1.6747460940800156 L1.8644612629400399 1.6545638020800002 L1.870564778939979 1.6501692710800544 L1.884806314939965 1.6500878900800249 L1.8964436849399817 1.6487044270800002 L1.9062093099399817 1.6446354160800443 L1.915486653939979 1.6359277340800222 L1.920288085940001 1.6488671870800236 L1.927205403939979 1.6527734370800236 L1.9350992839399623 1.6500065100800416 L1.9420979819400372 1.642763672080017 L1.9451904299399985 1.6335677080800028 L1.9452718099399817 1.6120019530800196 L1.949584960940001 1.6018294270800002 L1.9461669929399932 1.590029297080017 L1.951700846939957 1.5764388020800002 L1.9735107429399932 1.5502343750800183 L1.9834391279399597 1.5352604160800443 L1.998413085940001 1.5016503900800249 L2.0080159509400346 1.4885481770800002 L2.0506591799399985 1.4468815100800416 L2.0662841799399985 1.4367089840800222 L2.082397460940001 1.4306054690800156 L2.112670898939996 1.4226302080800028 L2.127807617939993 1.4167708330800028 L2.127319335940001 1.4214908850800416 L2.128621419940032 1.4226302080800028 L2.131306966939974 1.4227929690800156 L2.1346435549399985 1.4236067710800544 L2.2040608729399764 1.4625878900800249 L2.230834960940001 1.4646223960800544 L2.22383626294004 1.482607422080017 L2.226928710940001 1.4953027340800222 L2.2333577479399764 1.5074283850800416 L2.2370198569400372 1.5232161460800544 L2.235717773939996 1.5612207030800196 L2.237670898939996 1.5797753900800249 L2.244506835940001 1.5949934890800055 L2.2350667319400372 1.6133854160800443 L2.238321939939965 1.6261621090800222 L2.261189778939979 1.646425781080021 L2.269897460940001 1.6622135410800443 L2.266967773939996 1.6747460940800156 L2.262166341939974 1.6861393230800363 L2.26485188794004 1.6979394530800196 L2.2716878259400346 1.6906966140800055 L2.2775472009400346 1.6921614580800028 L2.2838948569400372 1.6965559890800055 L2.29219563794004 1.6979394530800196 L2.298543294940032 1.695498047080017 L2.310587564939965 1.6876041660800443 L2.31953938794004 1.6843489580800028 L2.33907063794004 1.6806054690800156 L2.3553466799399985 1.6804427080800028 L2.3710530599399817 1.685732422080017 L2.399780273939996 1.7063216140800055 L2.403686523939996 1.7103906250800183 L2.4088948569400372 1.7184472650800249 L2.4110921229399764 1.724794922080017 L2.4150797529399597 1.7457910150800249 L2.427449544940032 1.7623925780800196 L2.4533284509400346 1.7798893230800363 L2.4635823569400372 1.7942122390800055 L2.4619547529399597 1.8192773440800156 L2.4635823569400372 1.828310547080017 L2.469197591939974 1.8373437500800183 L2.484741210940001 1.849550781080021 L2.490763346939957 1.855654297080017 L2.4990641279399597 1.8725000000800183 L2.505574544940032 1.907330729080039 L2.5112711589399623 1.9245019530800196 L2.5158284509400346 1.9278385410800443 L2.522338867939993 1.9284082030800196 L2.52852376294004 1.9306054690800156 L2.53243001294004 1.9381738280800196 L2.532104492939993 1.9479394530800196 L2.52852376294004 1.956158854080039 L2.5087483729399764 1.9890364580800028 L2.506306966939974 1.9948144530800196 L2.504435221939957 2.0059635410800443 L2.5041097009400346 2.0152408850800416 L2.505330403939979 2.0240299480800363 L2.5077718099399817 2.0321679690800156 L2.5112711589399623 2.0399804690800156 L2.449666341939974 2.01589192708 L2.4225667319400372 2.013369140080025 L2.4225667319400372 2.019472656080021 Z M1.236368814939965 1.5297265620800236 L1.2411702479399764 1.5556054690800156 L1.241658528939979 1.5695214840800222 L1.236368814939965 1.581972656080021 L1.244181314939965 1.6032128900800249 L1.2411702479399764 1.6277083330800028 L1.2298583989399958 1.6480533850800416 L1.212605794940032 1.656435547080017 L1.2035725919399738 1.6441471350800416 L1.1784261069400372 1.5710677080800028 L1.1636149089399623 1.5485253900800249 L1.1611735029399597 1.5263085940800156 L1.1681722009400346 1.4782128900800249 L1.1572672529399597 1.427675781080021 L1.1575927739399958 1.4059472650800249 L1.1750081379400399 1.3962630210800544 L1.1899007169399738 1.4091210940800156 L1.2023518879400399 1.4236067710800544 L1.206746419940032 1.4341861980800363 L1.2128499349399817 1.4577050780800196 L1.226277669940032 1.480410156080021 L1.2316487629400399 1.4976627600800416 L1.2352294929399932 1.515566406080021 L1.236368814939965 1.5297265620800236 Z M1.7298583989399958 1.581972656080021 L1.679402669940032 1.586123047080017 L1.627482096939957 1.5438867190800156 L1.587361653939979 1.4844791660800443 L1.5722249349399817 1.4367089840800222 L1.573933919940032 1.4240950520800002 L1.5773518879400399 1.412050781080021 L1.586466471939957 1.3895898440800156 L1.6103108729399764 1.3531315100800416 L1.6137288419399738 1.3451562500800183 L1.6271565759400346 1.332216797080017 L1.657918294940032 1.3200097650800249 L1.6922607429399932 1.3111393230800363 L1.716267903939979 1.3075585940800156 L1.7627360029399597 1.3318098960800544 L1.7956136069400372 1.3669661460800544 L1.816446939939965 1.4099348960800544 L1.8261311849399817 1.4577864580800028 L1.8275146489399958 1.5053125000800183 L1.8246663419399738 1.5222395830800028 L1.8095296229399764 1.5637434890800055 L1.792439778939979 1.5925520830800028 L1.7714436849399817 1.605654297080017 L1.750366210940001 1.581972656080021 L1.741902669940032 1.5851464840800222 L1.737752278939979 1.5856347650800249 L1.7298583989399958 1.581972656080021 Z M1.4323323569400372 1.1771875000800183 L1.4399007169399738 1.191591797080017 L1.4246826179399932 1.2235742190800156 L1.3878987629400399 1.2735416660800443 L1.369181314939965 1.289003906080021 L1.3449300129400399 1.3140690100800416 L1.3293050129400399 1.3420638020800002 L1.3363850919399738 1.3659082030800196 L1.345743814939965 1.3781152340800222 L1.3459065759400346 1.388857422080017 L1.3385823569400372 1.3974023440800156 L1.325887044940032 1.402529297080017 L1.3227132169399738 1.3990299480800363 L1.3144124349399817 1.3922753900800249 L1.303263346939957 1.3893457030800196 L1.291544596939957 1.3962630210800544 L1.284871419940032 1.3962630210800544 L1.282674153939979 1.3761621090800222 L1.2869873049399985 1.3561425780800196 L1.2841389979399764 1.3410058590800222 L1.2370198569400372 1.3282291660800443 L1.2336018879400399 1.311627604080039 L1.243855794940032 1.2701236980800363 L1.239949544940032 1.2621484370800236 L1.230997721939957 1.2554752600800416 L1.2215576179399932 1.2497786460800544 L1.2160237629400399 1.2455468750800183 L1.2030029299399985 1.218691406080021 L1.1961669929399932 1.2113671870800236 L1.1792399089399623 1.2056705730800363 L1.1784261069400372 1.2045312500800183 L1.1703694669399738 1.2035546870800236 L1.169392903939979 1.2006250000800183 L1.170450846939957 1.196393229080039 L1.1600341799399985 1.1736067710800544 L1.154012044940032 1.1703515620800236 L1.1408284509400346 1.1771875000800183 L1.1222737629400399 1.1320214840800222 L1.1293538419399738 1.0870996090800222 L1.155965169940032 1.0495019530800196 L1.1961669929399932 1.026471354080039 L1.2091878259400346 1.029482422080017 L1.218465169940032 1.0338769530800196 L1.2267659509400346 1.0346093750800183 L1.236368814939965 1.026471354080039 L1.2392985029399597 1.0348535150800249 L1.2445882169399738 1.0421777340800222 L1.2568766279399597 1.053815104080039 L1.2593180339399623 1.0588606770800002 L1.2582600919399738 1.0632552080800028 L1.2591552739399958 1.066347656080021 L1.2747802739399958 1.068300781080021 L1.2777913419399738 1.0712304690800156 L1.2782796229399764 1.0764388020800002 L1.2780354819400372 1.0844140620800236 L1.2822672529399597 1.0884830730800363 L1.2919514979399764 1.0924707030800196 L1.3016357429399932 1.0993066400800249 L1.310017903939979 1.1227441400800249 L1.319783528939979 1.1293359370800236 L1.3400472009400346 1.1356835940800156 L1.3327229819400372 1.1431705730800363 L1.346232096939957 1.1574121090800222 L1.368855794940032 1.1488671870800236 L1.3913167319400372 1.1569238280800196 L1.4128011069400372 1.1701888020800002 L1.4323323569400372 1.1771875000800183 Z M0.1955159509400346 0.7799707030800196 L0.21146647193995705 0.7882714840800222 L0.22261555993998172 0.7990950520800002 L0.23189290393997908 0.810732422080017 L0.2433675129400399 0.8209863280800196 L0.22261555993998172 0.8399479160800443 L0.2013753259400346 0.8449121090800222 L0.15043131493996498 0.840924479080039 L0.1331787109400011 0.8327864580800028 L0.13960774793997643 0.8145572910800443 L0.16752115893996233 0.7799707030800196 L0.17451985694003724 0.782330729080039 L0.1801350919399738 0.7821679690800156 L0.1955159509400346 0.7799707030800196 Z M0.44193522193995705 0.47772460908002223 L0.4718831379400399 0.48496744808003633 L0.47945149793997643 0.4885481770800002 L0.4932047529399597 0.5055566400800249 L0.49312337293997643 0.5189843750800183 L0.48726399793997643 0.5328190100800416 L0.4834391279399597 0.5499902340800222 L0.47611490893996233 0.5563378900800249 L0.4593505859400011 0.5612207030800196 L0.4407958989399958 0.5629296870800236 L0.42826334693995705 0.5602441400800249 L0.41182454494003196 0.5748925780800196 L0.39522298194003724 0.5746484370800236 L0.3781331379400399 0.5725325520800002 L0.36006673194003724 0.5813216140800055 L0.3507893879400399 0.5766015620800236 L0.3393147789399791 0.5656152340800222 L0.332071939939965 0.5602441400800249 L0.3037516279399597 0.5515364580800028 L0.2980550129400399 0.5465722650800249 L0.2996826179399932 0.5329817710800544 L0.32588704494003196 0.47772460908002223 L0.334025064939965 0.48252604108004427 L0.3371175129400399 0.4677148440800156 L0.3431396489399958 0.4494856770800002 L0.36006673194003724 0.44354492208001695 L0.3566487629400399 0.43565104108004427 L0.35713704494003196 0.4294661460800544 L0.36006673194003724 0.4231184890800055 L0.37259928393996233 0.42791992208001695 L0.40775553393996233 0.45778645808000284 L0.44193522193995705 0.47772460908002223 Z M0.7436116539399791 0.3752669270800002 L0.7515055339399623 0.37949869808003633 L0.7704671229399764 0.38495117208001695 L0.7777913419399738 0.3883691400800249 L0.7679443359400011 0.3943098960800544 L0.7572835289399791 0.3957747390800055 L0.746622721939957 0.3934960940800156 L0.7367757169399738 0.3883691400800249 L0.7343343099399817 0.4039127600800416 L0.7295328779399597 0.41913085908002223 L0.7215576179399932 0.43280273408002223 L0.7088623049399985 0.44354492208001695 L0.7077229819400372 0.4358138020800002 L0.7059326179399932 0.43182617208001695 L0.7038167319400372 0.42848958308000284 L0.7020263679399932 0.4231184890800055 L0.6952718099399817 0.43109375008001827 L0.6874593099399817 0.43613932308003633 L0.6781819669399738 0.4381738280800196 L0.6679280599399817 0.4374414060800209 L0.6837972009400346 0.4264550780800196 L0.6986083989399958 0.4127832030800196 L0.7018636069400372 0.4045638020800002 L0.6972249349399817 0.3977278640800055 L0.6908772789399791 0.39081054708001695 L0.6889241539399791 0.3821028640800055 L0.6923421229399764 0.36794270808000284 L0.6966552739399958 0.36346679708001695 L0.7054443359400011 0.3615950520800002 L0.7123616539399791 0.3586653640800055 L0.7069905599399817 0.35272460908002223 L0.6984456379400399 0.34784179708001695 L0.6951904299399985 0.3479231770800002 L0.6823323569400372 0.3290429690800156 L0.6720784509400346 0.30869791608004427 L0.6748453779399597 0.2887597650800249 L0.7020263679399932 0.27223958308000284 L0.7231038419399738 0.27223958308000284 L0.7231038419399738 0.2790755210800544 L0.7093505859400011 0.2824934890800055 L0.6986083989399958 0.29022460908002223 L0.6916097009400346 0.30194335908002223 L0.6889241539399791 0.3166731770800002 L0.6977132169399738 0.32497395808000284 L0.714884439939965 0.3293684890800055 L0.7277425129400399 0.3352278640800055 L0.7231038419399738 0.3479231770800002 L0.737996419940032 0.36973307308003633 L0.7436116539399791 0.3752669270800002 Z M11.549112668939983 5.098011637080029 L11.550389810940032 5.111939160080036 L11.549209252940045 5.131328714080022 L11.603641020940017 5.127527518080038 L11.609341696939964 5.166903415080052 L11.53447019993996 5.171976648080014 L11.513434012940024 5.174462201080056 L11.496716825939984 5.173905898080003 L11.468213676939968 5.170355927080019 L11.453298878940018 5.150393178080018 L11.441365559939982 5.13934570308002 L11.427693684939982 5.134218750080018 L11.42226801994002 5.126833424080056 L11.40487174594 5.105658106080037 L11.392441094939954 5.09053027108005 L11.392396241939991 5.074159617080037 L11.400418104939945 5.0638333370800215 L11.410318140940035 5.058356108080014 L11.43072480694002 5.04860841908002 L11.44930210994005 5.048566395080039 L11.47220605294001 5.049720718080019 L11.495076497939976 5.046002604080039 L11.518638066939957 5.05082408708004 L11.560752346940035 5.065853109080004 L11.549112668939983 5.098011637080029 Z M11.18244444593995 4.740683764080055 L11.159356192939981 4.765134117080018 L11.15171371793997 4.765935906080054 L11.14164478993996 4.768319414080034 L11.134019517940033 4.76635918808004 L11.125674692940038 4.761643515080019 L11.12539955794 4.754953669080047 L11.125957081939987 4.745916336080009 L11.132040402939992 4.738444005080035 L11.135511882940023 4.731720563080026 L11.134320086939965 4.717954860080036 L11.120158887939965 4.726310997080001 L11.108642061940031 4.735702541080039 L11.102886526939983 4.727023447080038 L11.104952726940041 4.704461689080043 L11.119459152939953 4.686316988080003 L11.137048507939994 4.670464144080009 L11.150302254940016 4.666091786080054 L11.165616911939992 4.671604073080042 L11.18095269694004 4.683830809080044 L11.189092903940036 4.698066183080053 L11.189904388940022 4.716974548080012 L11.18244444593995 4.740683764080055 Z M10.773097423940044 4.151086508080008 L10.762208075939952 4.162360566080034 L10.758178710940001 4.181826172080017 L10.72088047093996 4.196270148080012 L10.708912792939941 4.206876916080015 L10.690579670939997 4.215325809080051 L10.679694297940046 4.223772156080011 L10.660196939939965 4.222434896080054 L10.65336100293996 4.224306640080025 L10.62756898893997 4.214255846080031 L10.614976249940014 4.223849798080019 L10.605997721939957 4.230410156080021 L10.59476725293996 4.22723632808002 L10.559412491939952 4.232781416080039 L10.516997765940005 4.281145473080054 L10.487157409939982 4.325580250080046 L10.47455108993995 4.31319122808001 L10.477585253939992 4.285658351080011 L10.465610578939959 4.271607641080019 L10.45356245994003 4.269340651080009 L10.425273240939987 4.29458339008003 L10.395428165939961 4.2928632790800325 L10.381667178940006 4.269201218080051 L10.378820557940003 4.229781827080027 L10.378223225940019 4.208927827080041 L10.397342891939957 4.195538633080028 L10.406363817940019 4.181941789080023 L10.417826890939978 4.166176814080055 L10.42700574594005 4.165628200080031 L10.42260990794 4.200104748080017 L10.437362717940005 4.21635824008005 L10.44714269194003 4.219204664080033 L10.452286719940048 4.2062524280800435 L10.453402934939959 4.191027554080032 L10.456411135940016 4.164691326080041 L10.473033641939992 4.141647962080052 L10.503255198939996 4.113886616080018 L10.548536259939965 4.11057938508001 L10.619719377939987 4.118179592080006 L10.651856583940003 4.104056170080051 L10.686367165939942 4.111072698080003 L10.703328450940035 4.120058594080016 L10.70609537793996 4.124697265080025 L10.71016438794004 4.129091797080017 L10.739862728940011 4.12519568508001 L10.767950155939957 4.126291325080027 L10.773097423940044 4.151086508080008 Z M3.1112874349399817 1.0673242190800156 L3.125854492939993 1.0735091140800055 L3.14180501294004 1.0879947910800443 L3.151733398939996 1.1041080730800363 L3.148803710940001 1.115175781080021 L3.1330159509400346 1.1168847650800249 L3.1181233729399764 1.1080957030800196 L3.10664876294004 1.0943424480800363 L3.1003011069400372 1.0809960940800156 L3.0898030599399817 1.0944238280800196 L3.070760091939974 1.0901106770800002 L3.032104492939993 1.0673242190800156 L3.034057617939993 1.0768457030800196 L3.046346028939979 1.1008528640800055 L3.036580403939979 1.100690104080039 L3.0116780599399817 1.0946679690800156 L2.9873453779399597 1.0946679690800156 L2.988810221939957 1.0883203120800236 L2.9845784509400346 1.074160156080021 L2.973103841939974 1.0601627600800416 L2.953165689939965 1.053815104080039 L2.9494222009400346 1.0504785150800249 L2.9443766279399597 1.0435611980800363 L2.9420979819400372 1.0363997390800055 L2.9463297529399597 1.0333072910800443 L2.955932617939993 1.0343652340800222 L2.97188313794004 1.0388411460800544 L2.977416992939993 1.0394921870800236 L2.9792073569400372 1.0414453120800236 L2.987670898939996 1.0432356770800002 L2.99336751294004 1.0407128900800249 L2.9873453779399597 1.0298893230800363 L2.9873453779399597 1.0241113280800196 L2.9943440759400346 1.0197981770800002 L3.003946939939965 1.019716797080017 L3.0116780599399817 1.026471354080039 L3.023152669940032 1.0316796870800236 L3.0478108729399764 1.0367252600800416 L3.0595296229399764 1.0521875000800183 L3.076212564939965 1.0601627600800416 L3.0956624349399817 1.065533854080039 L3.1112874349399817 1.0673242190800156 Z M4.484578450940035 1.9683658850800416 L4.514038085940001 1.9908268230800363 L4.525594075940035 2.007753906080021 L4.512410481940037 2.019472656080021 L4.503458658939962 2.017763672080017 L4.471557617939993 1.999127604080039 L4.466756184939982 1.9981510410800443 L4.455118814939965 1.9997786460800544 L4.45023600293996 1.999127604080039 L4.445271809939982 1.9938378900800249 L4.442911783939962 1.9870019530800196 L4.439900716939974 1.9810611980800363 L4.422566731940037 1.9743066400800249 L4.410685221939957 1.9559960940800156 L4.390014648939996 1.9493229160800443 L4.383015950940035 1.9425683590800222 L4.369099934939982 1.9245019530800196 L4.337605794940032 1.9001692710800544 L4.328084309939982 1.8898339840800222 L4.325887044940032 1.8800683590800222 L4.3280029299399985 1.871279297080017 L4.325561523939996 1.8649316400800249 L4.3104248049399985 1.8624902340800222 L4.299031575940035 1.8557356770800002 L4.252400716939974 1.814638672080017 L4.16914876294004 1.797060547080017 L4.133504231940037 1.775576172080017 L4.10860188794004 1.7653222650800249 L4.086303710940001 1.7467675780800196 L4.070027669940032 1.738222656080021 L4.052937825940035 1.734316406080021 L4.039510091939974 1.7389550780800196 L4.005818684939982 1.718691406080021 L3.98750813794004 1.7133203120800236 L3.9705810549399985 1.7184472650800249 L3.9604899089399623 1.6954166660800443 L3.9513753259400346 1.6828841140800055 L3.939900716939974 1.6775130210800544 L3.9259847009400346 1.6763736980800363 L3.9128011069400372 1.6719791660800443 L3.903686523939996 1.6636783850800416 L3.9023030599399817 1.6501692710800544 L3.880574544940032 1.6574121090800222 L3.859090169940032 1.6532617190800156 L3.8388264979399764 1.6423567710800544 L3.7451578779399597 1.5744856770800002 L3.7389729819400372 1.5734277340800222 L3.7235921229399764 1.5756250000800183 L3.717325846939957 1.5744856770800002 L3.7130940759400346 1.5680566400800249 L3.712280273939996 1.5591861980800363 L3.7124430339399623 1.550966797080017 L3.7111409509400346 1.5465722650800249 L3.703165689939965 1.5451888020800002 L3.6990966799399985 1.5489322910800443 L3.695678710940001 1.5533268230800363 L3.689982096939957 1.5539778640800055 L3.662638346939957 1.5403059890800055 L3.6562093099399817 1.5393294270800002 L3.64180501294004 1.541201172080017 L3.635294596939957 1.5403059890800055 L3.635131835940001 1.5375390620800236 L3.6307373049399985 1.5238671870800236 L3.6284586589399623 1.5197981770800002 L3.617228189939965 1.5145898440800156 L3.608764648939996 1.5121484370800236 L3.603230794940032 1.5066145830800028 L3.601277669940032 1.4919661460800544 L3.594604492939993 1.4970117190800156 L3.5732828779399597 1.5061263020800002 L3.57149251294004 1.486269531080021 L3.562540689939965 1.4709700520800002 L3.54805501294004 1.4612044270800002 L3.5292561849399817 1.4577864580800028 L3.4709065759400346 1.4304427080800028 L3.4655354819400372 1.3922753900800249 L3.4572347009400346 1.374941406080021 L3.4401448569400372 1.3795800780800196 L3.409627278939979 1.3722558590800222 L3.395060221939957 1.3628971350800416 L3.4025472009400346 1.3485742190800156 L3.3915608729399764 1.3363671870800236 L3.3815511069400372 1.328066406080021 L3.374715169940032 1.328066406080021 L3.3642171229399764 1.3415755210800544 L3.3537190759400346 1.3290429690800156 L3.3400472009400346 1.2932356770800002 L3.3288167319400372 1.2799707030800196 L3.31368001294004 1.2682519530800196 L3.296346028939979 1.2621484370800236 L3.2791748049399985 1.266705729080039 L3.2694905599399817 1.2488020830800028 L3.225952148939996 1.224794922080017 L3.21016438794004 1.2113671870800236 L3.2052815759400346 1.1978580730800363 L3.2057698569400372 1.1872786460800544 L3.208455403939979 1.177675781080021 L3.21016438794004 1.167096354080039 L3.21016438794004 1.1256738280800196 L3.13203938794004 1.0606510410800443 L3.080525716939974 1.0333072910800443 L3.071736653939979 1.017763672080017 L3.0702718099399817 1.0005924480800363 L3.0771891279399597 0.9890364580800028 L3.094116210940001 0.9916406250800183 L3.114705403939979 1.0040104160800443 L3.212931314939965 1.0373763020800002 L3.221150716939974 1.042910156080021 L3.230916341939974 1.0432356770800002 L3.2397867839399623 1.0313541660800443 L3.250447591939974 1.0211816400800249 L3.26485188794004 1.026471354080039 L3.2685139979399764 1.0226464840800222 L3.2713623049399985 1.020611979080039 L3.2744547529399597 1.019472656080021 L3.2791748049399985 1.0183333330800028 L3.286499023939996 1.0380273440800156 L3.3009847009400346 1.0508854160800443 L3.3400472009400346 1.0673242190800156 L3.3439534509400346 1.0614648440800156 L3.35078938794004 1.0544661460800544 L3.358276367939993 1.0486067710800544 L3.36446126294004 1.0463281250800183 L3.3769124349399817 1.0504785150800249 L3.382202148939996 1.0606510410800443 L3.3854573569400372 1.0730208330800028 L3.39180501294004 1.0844140620800236 L3.41133626294004 1.1027246090800222 L3.4233805339399623 1.111513672080017 L3.433308919940032 1.115175781080021 L3.4396565759400346 1.1217675780800196 L3.455444335940001 1.1508203120800236 L3.4735921229399764 1.1613997390800055 L3.4889729819400372 1.1819075520800002 L3.497517903939979 1.1908593750800183 L3.5099690759400346 1.198346354080039 L3.5459391279399597 1.2113671870800236 L3.563842773939996 1.2221093750800183 L3.5939534509400346 1.2477441400800249 L3.614949544940032 1.2592187500800183 L3.60469563794004 1.2789941400800249 L3.6122639979399764 1.2966536460800544 L3.6278889979399764 1.3059309890800055 L3.6421305339399623 1.300722656080021 L3.682088216939974 1.3169986980800363 L3.693806966939974 1.3246484370800236 L3.700642903939979 1.3373437500800183 L3.704549153939979 1.3519921870800236 L3.7108968099399817 1.3606184890800055 L3.7248128259400346 1.355410156080021 L3.751993814939965 1.3765690100800416 L3.77461751294004 1.3659082030800196 L3.7931722009400346 1.3619205730800363 L3.8114827479399764 1.363222656080021 L3.833455403939979 1.3689192710800544 L3.820760091939974 1.3746972650800249 L3.823933919940032 1.383893229080039 L3.834431966939974 1.392519531080021 L3.8439534509400346 1.3962630210800544 L3.8608805339399623 1.3978906250800183 L3.87032063794004 1.4026106770800002 L3.8759358729399764 1.411236979080039 L3.8810628259400346 1.4236067710800544 L3.898152669940032 1.4110742190800156 L3.908243814939965 1.4197005210800544 L3.9162190759400346 1.435732422080017 L3.9264729819400372 1.4441145830800028 L3.959025064939965 1.4468815100800416 L3.972371419940032 1.4431380210800544 L3.977986653939979 1.4304427080800028 L3.996541341939974 1.4389062500800183 L4.004109700940035 1.4437890620800236 L4.012166341939974 1.4509505210800544 L4.027791341939974 1.439394531080021 L4.03812662793996 1.4504622390800055 L4.0467529299399985 1.4712955730800363 L4.056844075940035 1.4885481770800002 L4.073120117939993 1.5009179690800156 L4.101521809939982 1.5165429690800156 L4.114624023939996 1.5266341140800055 L4.117228189939965 1.5280989580800028 L4.128865559939982 1.5329003900800249 L4.131062825940035 1.5360742190800156 L4.133504231940037 1.5441308590800222 L4.135131835940001 1.5465722650800249 L4.181599934939982 1.5834375000800183 L4.274129231940037 1.6382877600800416 L4.467244466939974 1.7826562500800183 L4.471638997939976 1.7924218750800183 L4.45023600293996 1.814638672080017 L4.429402669940032 1.8432031250800183 L4.421834309939982 1.8488183590800222 L4.413045247939976 1.8438541660800443 L4.401814778939979 1.8410872390800055 L4.390584309939982 1.8423893230800363 L4.38203938794004 1.8488183590800222 L4.382771809939982 1.854596354080039 L4.398478189939965 1.8656640620800236 L4.406778971939957 1.8824283850800416 L4.416219075940035 1.8824283850800416 L4.4256591799399985 1.8777083330800028 L4.433797200940035 1.8688378900800249 L4.443074544940032 1.877138672080017 L4.473103841939974 1.9186425780800196 L4.481160481940037 1.9336979160800443 L4.483927408939962 1.9480208330800028 L4.484578450940035 1.9683658850800416 Z M2.9904378259400346 1.0053125000800183 L2.9822998049399985 0.9967675780800196 L2.97383626294004 0.985455729080039 L2.9628499349399817 0.9753645830800028 L2.932983398939996 0.9679589840800222 L2.911824544940032 0.9538802080800028 L2.8983968099399817 0.9507877600800416 L2.890991210940001 0.9452539060800209 L2.8896077479399764 0.9338606770800002 L2.89375813794004 0.924013672080017 L2.901814778939979 0.9234440100800416 L2.911499023939996 0.929873047080017 L2.9218343099399817 0.9338606770800002 L2.93086751294004 0.9395572910800443 L2.9364827479399764 0.9507877600800416 L2.949584960940001 0.9467187500800183 L2.961303710940001 0.9516015620800236 L2.9842529299399985 0.9711328120800236 L2.996541341939974 0.9612044270800002 L3.0182698569400372 0.9628320310800209 L3.0419514979399764 0.9719466140800055 L3.060017903939979 0.9848046870800236 L3.0503336589399623 0.9898502600800416 L3.0436604819400372 0.9967675780800196 L3.041870117939993 1.0061263020800002 L3.046346028939979 1.0183333330800028 L3.0019124349399817 1.0095442710800544 L2.9904378259400346 1.0053125000800183 Z M2.236775716939974 0.8612695310800209 L2.244181314939965 0.8688378900800249 L2.237996419940032 0.8764062500800183 L2.235799153939979 0.8868229160800443 L2.237996419940032 0.8983789060800209 L2.244181314939965 0.9091210940800156 L2.216837564939965 0.8892643230800363 L2.2157796229399764 0.9042382810800209 L2.205607096939957 0.9098535150800249 L2.174682617939993 0.9091210940800156 L2.174682617939993 0.9029361980800363 L2.1807047529399597 0.8995996090800222 L2.1894124349399817 0.8926822910800443 L2.1951904299399985 0.8892643230800363 L2.155721028939979 0.8777083330800028 L2.144571939939965 0.8718489580800028 L2.1365966799399985 0.8705468750800183 L2.111043294940032 0.8717675780800196 L2.10078938794004 0.8688378900800249 L2.1171468099399817 0.8571191400800249 L2.1343180339399623 0.8475976560800209 L2.160603841939974 0.852643229080039 L2.188924153939979 0.8493066400800249 L2.21407063794004 0.8503645830800028 L2.2304280599399817 0.8688378900800249 L2.236775716939974 0.8612695310800209 Z M2.9084065759400346 0.8688378900800249 L2.9045003259400346 0.8778710940800156 L2.901814778939979 0.887799479080039 L2.900838216939974 0.8983789060800209 L2.9014078779399597 0.9091210940800156 L2.8865966799399985 0.900576172080017 L2.8815511069400372 0.8954492190800156 L2.87422688794004 0.9302799480800363 L2.8603922529399597 0.9203515620800236 L2.8517659509400346 0.9068424480800363 L2.8405354819400372 0.8961816400800249 L2.81953938794004 0.8954492190800156 L2.81953938794004 0.8892643230800363 L2.83321126294004 0.8749414060800209 L2.8400472009400346 0.8749414060800209 L2.8494873049399985 0.8766503900800249 L2.875447591939974 0.8519921870800236 L2.894571939939965 0.8475976560800209 L2.894571939939965 0.8749414060800209 L2.8983968099399817 0.8731510410800443 L2.9049886069400372 0.8707910150800249 L2.9084065759400346 0.8688378900800249 Z M2.4014078779399597 0.8650130210800544 L2.4032796229399764 0.879986979080039 L2.4150797529399597 0.9166894530800196 L2.4225667319400372 0.9302799480800363 L2.3954671229399764 0.931826172080017 L2.381225585940001 0.9309309890800055 L2.36446126294004 0.9239322910800443 L2.357950846939957 0.9254785150800249 L2.351033528939979 0.9284895830800028 L2.343465169940032 0.9302799480800363 L2.3358968099399817 0.9280013020800002 L2.329549153939979 0.9186425780800196 L2.3229573569400372 0.9166080730800363 L2.3037516279399597 0.9052148440800156 L2.314168294940032 0.8800683590800222 L2.34688313794004 0.840924479080039 L2.3944905599399817 0.8578515620800236 L2.4014078779399597 0.8650130210800544 Z M2.1549886069400372 0.7902246090800222 L2.1549886069400372 0.814638672080017 L2.15157063794004 0.8279036460800544 L2.1386311849399817 0.8336002600800416 L2.110717773939996 0.8346582030800196 L2.0986735029399597 0.8417382810800209 L2.073120117939993 0.8892643230800363 L2.0712483729399764 0.8775455730800363 L2.066935221939957 0.871279297080017 L2.0607503259400346 0.8705468750800183 L2.0526936849399817 0.8749414060800209 L2.039591471939957 0.8645247390800055 L2.015340169940032 0.8590722650800249 L1.9700927739399958 0.8550846350800416 L1.950642903939979 0.8488183590800222 L1.937215169940032 0.8358789060800209 L1.9331461589399623 0.8173242190800156 L1.9420979819400372 0.7936425780800196 L1.933634439939965 0.7966536460800544 L1.9276936849399817 0.8013736980800363 L1.915486653939979 0.8141503900800249 L1.9077555339399623 0.8104882810800209 L1.9031982429399932 0.813580729080039 L1.901814778939979 0.8278222650800249 L1.8827718099399817 0.8168359370800236 L1.847127278939979 0.804873047080017 L1.8261311849399817 0.7936425780800196 L1.773152669940032 0.7893294270800002 L1.7641194669399738 0.7902246090800222 L1.7576904299399985 0.7999902340800222 L1.7435302739399958 0.7995019530800196 L1.7294514979399764 0.789248047080017 L1.7186279299399985 0.7590559890800055 L1.7078857429399932 0.7445703120800236 L1.6942952479399764 0.7313867190800156 L1.6820882169399738 0.7253645830800028 L1.6732177739399958 0.7301660150800249 L1.6536865239399958 0.7380598960800544 L1.6398518879400399 0.7396875000800183 L1.6479899089399623 0.7253645830800028 L1.638712564939965 0.7089257810800209 L1.6237386069400372 0.6957421870800236 L1.6044514979399764 0.6869531250800183 L1.5827229819400372 0.683779297080017 L1.5690511069400372 0.6786523440800156 L1.5529378259400346 0.6657942710800544 L1.459513346939957 0.556826172080017 L1.4552815759400346 0.5475488280800196 L1.452840169940032 0.5350976560800209 L1.4484456379400399 0.5241113280800196 L1.439168294940032 0.5193098960800544 L1.425821939939965 0.515810547080017 L1.4184163419399738 0.5072656250800183 L1.408243814939965 0.48513020808000284 L1.3690999349399817 0.4309309890800055 L1.356892903939979 0.4231184890800055 L1.3472086589399623 0.41351562508001827 L1.312215169940032 0.3541894530800196 L1.2957763679399932 0.3427148440800156 L1.2482503259400346 0.3179752600800416 L1.2333577479399764 0.31325520808000284 L1.2213948569400372 0.30780273408002223 L1.1098225919399738 0.2108789060800209 L1.1073811849399817 0.20746093708002356 L1.086303710940001 0.19037109408001562 L1.0796305339399623 0.1764550780800196 L1.0718180339399623 0.12201171908001562 L1.0721435549399985 0.1018294270800002 L1.0796305339399623 0.08783203108002091 L1.112996419940032 0.06000000008001827 L1.1300862629400399 0.0569075520800002 L1.1531982429399932 0.06016276008004162 L1.1732177739399958 0.06756835908002223 L1.185017903939979 0.08050781208002356 L1.191935221939957 0.0837630210800544 L1.1991780599399817 0.08897135408003898 L1.2023518879400399 0.09784179708001695 L1.206746419940032 0.10671223908000549 L1.216267903939979 0.10687500008001827 L1.226033528939979 0.1032942710800544 L1.2303466799399985 0.10101562508001827 L1.2682698569400372 0.11208333308000284 L1.2947998049399985 0.13202148408002223 L1.346232096939957 0.19037109408001562 L1.3603108729399764 0.20257812508001827 L1.4054768879400399 0.23285156208002356 L1.4482828779399597 0.24432617208001695 L1.5107014979399764 0.28656250008001827 L1.552449544940032 0.3064192710800544 L1.5885823569400372 0.31309244808003633 L1.6056722009400346 0.32171875008001827 L1.6180419929399932 0.3258691400800249 L1.628946939939965 0.3322981770800002 L1.6336669929399932 0.34434244808003633 L1.6375732429399932 0.35166666608004427 L1.6466878259400346 0.3528059890800055 L1.657918294940032 0.3522363280800196 L1.6678466799399985 0.3541894530800196 L1.6776936849399817 0.36249023408002223 L1.6991780599399817 0.39203125008001827 L1.7372639979399764 0.4231184890800055 L1.7456461589399623 0.4377669270800002 L1.7484944669399738 0.45526367208001695 L1.750366210940001 0.49823242208001695 L1.761433919940032 0.543154297080017 L1.777709960940001 0.5813216140800055 L1.787475585940001 0.5940169270800002 L1.7978922529399597 0.6046777340800222 L1.8070882169399738 0.6174544270800002 L1.8124593099399817 0.6359277340800222 L1.827840169940032 0.6267317710800544 L1.8328857429399932 0.6217675780800196 L1.8407796229399764 0.6392643230800363 L1.8539632169399738 0.6522851560800209 L1.8712972009400346 0.6605859370800236 L1.8913167319400372 0.6632714840800222 L1.904825846939957 0.6695377600800416 L1.9145100919399738 0.6838606770800002 L1.9203694669399738 0.7009505210800544 L1.9223225919399738 0.7147851560800209 L1.9279378259400346 0.7234114580800028 L1.941121419940032 0.7296777340800222 L1.9700927739399958 0.7390364580800028 L1.9814046229399764 0.7455468750800183 L1.9936930339399623 0.7553125000800183 L2.0045979819400372 0.7672753900800249 L2.0116780599399817 0.7799707030800196 L2.017944335940001 0.7799707030800196 L2.020385742939993 0.7633691400800249 L2.027791341939974 0.762799479080039 L2.03828938794004 0.7689843750800183 L2.049275716939974 0.7731347650800249 L2.070760091939974 0.7732161460800544 L2.0807698569400372 0.7712630210800544 L2.1170654299399985 0.757998047080017 L2.1365966799399985 0.7572656250800183 L2.150105794940032 0.7670312500800183 L2.1549886069400372 0.7902246090800222 Z M13.437459309939982 5.72333007808002 L13.448120117939993 5.724306640080025 L13.451049804939998 5.73854817708 L13.443806966939974 5.741966146080054 L13.427612304939998 5.747662760080042 L13.42305501294004 5.73895507808002 L13.43086751294004 5.73114257808002 L13.437459309939982 5.72333007808002 Z M10.370483398939996 3.8786848960800544 L10.360799153939979 3.881614583080003 L10.352986653939979 3.8794986980800363 L10.348103841939974 3.869895833080003 L10.348999023939996 3.8585839840800222 L10.351440429939998 3.8516666660800443 L10.357381184939982 3.8469466140800055 L10.371541341939974 3.8505273440800156 L10.380249023939996 3.8639550780800196 L10.37813313794004 3.873802083080003 L10.370483398939996 3.8786848960800544 Z M5.26094563794004 1.3480859370800236 L5.273152669940032 1.383893229080039 L5.266072591939974 1.3854394530800196 L5.257202148939996 1.3840559890800055 L5.238240559939982 1.3581770830800028 L5.232788085940001 1.345888672080017 L5.237263997939976 1.3337630210800544 L5.248494466939974 1.3314843750800183 L5.25508626294004 1.3373437500800183 L5.26094563794004 1.3480859370800236 Z M11.610066731940037 5.071393229080039 L11.610717773939996 5.08034505208 L11.604858398939996 5.095644531080021 L11.588419596939957 5.107363281080021 L11.570841471939957 5.110292969080016 L11.564168294940032 5.099062500080018 L11.56953938794004 5.0824609370800236 L11.582885742939993 5.0696028640800055 L11.601033528939979 5.068056640080025 L11.610066731940037 5.071393229080039 Z M10.877644856940037 3.7219466140800055 L10.892293294940032 3.7212955730800363 L10.905151367939993 3.7300846350800416 L10.895222981940037 3.7489648440800156 L10.876668294940032 3.7662174480800363 L10.86250813794004 3.7681705730800363 L10.861287434939982 3.753603515080025 L10.863240559939982 3.74050130208 L10.85664876294004 3.739931640080025 L10.853881835940001 3.7330957030800196 L10.861043294940032 3.7123437500800183 L10.86446126294004 3.691347656080021 L10.863728841939974 3.672060547080017 L10.867716471939957 3.6778385410800443 L10.867635091939974 3.7260156250800183 L10.87422688794004 3.723736979080039 L10.877644856940037 3.7219466140800055 Z M1.1706136069400372 1.2487207030800196 L1.1742757169399738 1.2520572910800443 L1.1846110029399597 1.2594628900800249 L1.1806233729399764 1.2743554690800156 L1.1600341799399985 1.2844466140800055 L1.142049153939979 1.2751692710800544 L1.143107096939957 1.2662988280800196 L1.1510823569400372 1.2564518230800363 L1.161580403939979 1.2481510410800443 L1.1706136069400372 1.2487207030800196 Z" fill="black" stroke="black" stroke-width="0.5" vector-effect="non-scaling-stroke"/></svg>