<svg xmlns="http://www.w3.org/2000/svg" viewBox="0 0 6.417702768096632 3.572460772439971"><path d="M6.354784113507449 0.28482227605261734 L6.354782668589124 0.3972148862199507 L6.354782668589124 0.5095852882199754 L6.354782668589124 0.6219298512199973 L6.354782668589124 0.7343519302199528 L6.354782668589124 0.8466189802199526 L6.354782668589124 0.9590152202199906 L6.354782668589124 1.0713856212199264 L6.354782668589124 1.1838335392199841 L6.354782668589124 1.2961522642199927 L6.354782668589124 1.4085226662200174 L6.354782668589124 1.5209189062199702 L6.354782668589124 1.6332376322199824 L6.354782668589124 1.745530519219992 L6.354782668589124 1.8579525972199438 L6.354782668589124 1.9703488382199854 L6.354782668589124 1.9712512592199491 L6.354782668589124 2.08271924022001 L6.294786330589105 2.173643923219922 L6.234996698589171 2.264568605220015 L6.174897008589099 2.3554416112200105 L6.114900669589147 2.4462629412199934 L6.055007684589171 2.537290977220019 L5.994856317589111 2.6281123062199985 L5.934859979589092 2.7190369892199957 L5.874915318589117 2.810065025219936 L5.814970657589143 2.9008346782200025 L5.7548192895890935 2.9918627132199394 L5.69477127558919 3.082787396220036 L5.634826613589169 3.1736345632200145 L5.574675246589166 3.2645334082199273 L5.514730585589135 3.3554322532200107 L5.454785923589171 3.446460288220047 L5.394841262589196 3.537384971219959 L5.25236933858919 3.5374366472199714 L5.069589797589188 3.5374366472199714 L4.939261834589118 3.5374366472199714 L4.781752069589189 3.5374366472199714 L4.6262576845891346 3.5374366472199714 L4.483785761589118 3.5374366472199714 L4.394902297589184 3.537384971219959 L4.3361978705891175 3.5083428152199705 L4.273049270589198 3.4872071552200143 L4.1892300965891 3.4590435002199715 L4.105204218589179 3.4309831972199536 L4.021385044589195 3.4028195412199924 L3.9373591655891715 3.3747075622200473 L3.8533849635891357 3.3465955822200133 L3.7695141135891532 3.3184836042199723 L3.685488235589119 3.2903974622199517 L3.601565708589149 3.2623113222200093 L3.5175915065891132 3.2342251802199886 L3.43372065758912 3.2060615262199352 L3.34979813058915 3.1779495462199865 L3.265875605589102 3.149837567219956 L3.1820564315891744 3.121725588220011 L3.098030552589094 3.0936394472199797 L3.0141080265891134 3.0655274682199494 L2.93008214758909 3.0374154882200006 L2.8418188015891275 3.008476686219945 L2.7537621605890905 2.9795378842199884 L2.6655504905891263 2.950676597219948 L2.5774421745891942 2.921815309220003 L2.489230503589127 2.8927989932199214 L2.4012255405891807 2.8639118672199633 L2.3129621925891257 2.83502474121992 L2.224905552589192 2.8061117782199663 L2.136745558589112 2.7771729762199957 L2.0486889185891215 2.74823417421994 L1.9604255725891022 2.7193470472199923 L1.872368931589122 2.6904082452200218 L1.7842089385891455 2.6614952822199687 L1.6960489445891795 2.632556480219998 L1.6078889515891461 2.6036693532199653 L1.5197289585891696 2.5747305512199947 L1.4395271345891985 2.548427248219946 L1.4004597525891 2.525637941219964 L1.3305932155891043 2.462463503219988 L1.2032624865891108 2.347250897219988 L1.1141206405890927 2.266790692219937 L1.0371744325891683 2.197053346219983 L1.022911737589098 2.189327720219973 L1.0068920435891329 2.190361249219956 L0.9825007675891158 2.199637168219974 L0.9638972525891774 2.197880169219909 L0.8868993685891411 2.151939821219921 L0.8347061705890866 2.120933962219988 L0.8219937685891097 2.1053018412199496 L0.817652948589128 2.0865432962199524 L0.8151208035891528 2.05300529222003 L0.8090229845891059 2.0350218932200423 L0.7863370305891095 1.9897275002200363 L0.7771903015891581 1.9807874782200177 L0.7570364935891263 1.967558311220012 L0.7474246775891658 1.9588766702199596 L0.7407584175891344 1.948050457220015 L0.7312499545891598 1.9262946802200052 L0.721638137589153 1.9163986422199262 L0.7133699085890868 1.9124195572200282 L0.6863431345891655 1.9055982682199843 L0.6644840025891909 1.8816204042199676 L0.6509447775891459 1.8421654482199532 L0.6220059755891754 1.6827436542199425 L0.6028856955891939 1.6506267512200115 L0.5655236355891162 1.6339611022199794 L0.5199450225891411 1.6260287702200262 L0.483358108589087 1.611430177219967 L0.4555561865891633 1.5839641542199931 L0.4364359075891713 1.5375328792199756 L0.4282710315891478 1.5046666692199526 L0.41555862858918147 1.471981325219966 L0.39757523058911204 1.4423190532200127 L0.37390742458917714 1.4183928652200084 L0.2779959655891986 1.3567945582199687 L0.2519510445891484 1.3258662122199727 L0.22383906458919967 1.2648363462199885 L0.20513219658910486 1.2006283792200296 L0.19231644158919892 1.109341962219938 L0.18146439058916997 1.082005129219917 L0.16606481358918757 1.0623164082199654 L0.11087438458919507 1.0092447122199477 L0.08420934558911597 0.9677226982199674 L0.06426224258912328 0.9229192322199911 L0.06291865458918267 0.9017318942200294 L0.07594111658910663 0.8923267832199802 L0.0958882185891099 0.8862806412199351 L0.11531855658911638 0.8754027522199781 L0.12730748958917104 0.8587887792199584 L0.13464554258912642 0.8391000582200068 L0.14425735958913322 0.7984565452199721 L0.1537658225891647 0.7741686222199693 L0.16554804958913394 0.7581230902200051 L0.2013081405891768 0.7295460222200436 L0.21691442358918778 0.7131645932199948 L0.22332230058914604 0.6978425312199423 L0.22724970958911683 0.6813319112199512 L0.23510452758911526 0.6613848082199301 L0.25050410358910824 0.6455459822199234 L0.29246536658912703 0.6282085382200027 L0.3092085315891637 0.6142817402200169 L0.31685664258914414 0.5973577082200254 L0.326985224589194 0.5565850042199489 L0.3393875675890996 0.5351651222200307 L0.6044867965891427 0.12618825822002044 L0.656405382589142 0.0460918332199558 L0.6683682735891381 0.06086234122001066 L0.682609809589124 0.07160452922000538 L0.7040128045891407 0.073598344219997 L0.6983975705891368 0.03502412521999965 L0.7128018675891354 0.051707068219977614 L0.7357510855890865 0.0878398802199829 L0.7552823355890865 0.10777803122000229 L0.7680590285891213 0.11420706821997761 L0.7916592885890879 0.1423646202200164 L0.8098884555891033 0.14875296622001066 L0.8295010855890865 0.15302542721998158 L0.8590421015891394 0.1743877322200067 L0.8753995235891381 0.18289196321996748 L0.8819913205891368 0.16604626021996616 L0.8938728305891033 0.1540019902199763 L0.9051032995891006 0.15302542721998158 L0.9100674925891354 0.16922008821996748 L0.894686632589142 0.26215628621998555 L0.9038012155891266 0.2950338912199957 L0.922030382589142 0.32498180721996484 L0.9449796015891394 0.3473613652199763 L0.951327257589142 0.3502096722199983 L0.9676032995891006 0.3541159222199983 L0.974764757589142 0.35794079222001507 L0.978671007589142 0.3636374062200023 L0.9838793405891266 0.3785299842200036 L0.9988532995891006 0.3987936562200023 L1.0073168405891266 0.4264629272199816 L1.0331143675891354 0.46316540122001904 L1.074618273589138 0.5459697632200093 L1.1712979605890865 0.6397197632200093 L1.2452725705891368 0.7309876672200151 L1.3378018675891354 0.8097637082199842 L1.4438402785891213 0.8817851932199776 L1.5131762155891266 0.944692094219997 L1.5652595495891006 0.9748027712199789 L1.6899340285891213 1.0772197632200093 L1.7193936635890879 1.0941061562200023 L1.7632264045891048 1.1194408382199956 L1.804871716589119 1.1367457442199882 L1.8809300985891042 1.1324716822200092 L1.957095355589118 1.1412088542200056 L2.0018209625890933 1.1503676002199743 L2.043001083589118 1.143339706219999 L2.0775293895890883 1.1315410902199776 L2.136735400589103 1.1145681862199783 L2.166334542589098 1.1060867562200176 L2.205996468589106 1.1104681772199658 L2.2704565505890884 1.119423156219975 L2.3150377565891205 1.1221385402199733 L2.377680801589136 1.1181528202199704 L2.4098233515891394 1.0912578492199803 L2.4036384555891033 1.0735576542200054 L2.4171475705891368 1.0735576542200054 L2.5270108515891394 1.0083721072200067 L2.5423917105890865 1.0019837602199662 L2.572909288589088 0.9928691772199816 L2.6679613725891187 0.933420935220008 L2.7362393675891354 0.8718568072199648 L2.752922309589124 0.863108435220008 L2.7704190545891407 0.8651022502199996 L2.788892361589106 0.8715312862199855 L2.8080980905891266 0.8755596072200067 L2.824862413589088 0.8744609742199803 L2.8609952265891394 0.8661601932199776 L2.902743273589138 0.8492331092200036 L2.932284288589088 0.8319805052199829 L2.9586514765891394 0.8122864952200164 L2.988680773589138 0.7758281612199855 L3.001782986589106 0.7680970422200151 L3.077954861589106 0.7433574582199842 L3.0887784295891407 0.7377422242199803 L3.100578559589124 0.7250469112199855 L3.1102628045891407 0.7117005572199648 L3.122062934589124 0.7011211302199829 L3.1402921015891394 0.6968079792199635 L3.1536384555891033 0.6903789432199776 L3.1692634555891033 0.6622213912199957 L3.1849698355890865 0.655833044220012 L3.2030362425891354 0.6561992552199829 L3.2184171015891394 0.6586406612199855 L3.232577257589142 0.6647441772199816 L3.2469815545891407 0.6763408572200067 L3.2558519975891187 0.689280310220008 L3.262362413589088 0.7016907922200151 L3.271314236589106 0.7099915732200177 L3.2879971795891407 0.7104798542199635 L3.283846788589088 0.6925762082199842 L3.3001228305891033 0.692738969219997 L3.393221788589088 0.7348125362199855 L3.4282152785891213 0.7392070682199776 L3.463290148589138 0.7486471722199983 L3.4794034295891407 0.7551575882199675 L3.517896268589098 0.7632956092200036 L3.552889757589142 0.757639685220008 L3.6230394975891187 0.7377422242199803 L3.6532315545891407 0.7415264042200054 L3.6788663205891368 0.7571107132199675 L3.722811632589142 0.8029277712199789 L3.7508064245891006 0.8242493852199662 L3.785799913589088 0.8371074582199842 L3.824374132589142 0.8423564822200067 L3.863436632589142 0.8408509482200177 L3.8981046015891394 0.8325908572200067 L3.9155199655891266 0.8254700882199675 L3.9433519975891187 0.807729203220001 L3.976392361589106 0.8022767292199635 L4.004387153589121 0.7906393592200036 L4.044833117589135 0.788889685220008 L4.0619229605890865 0.7862041382200093 L4.075350695589137 0.7796123412200107 L4.109774523589138 0.7520244502200146 L4.197909288589088 0.7122295292200054 L4.237622830589103 0.6813457402199763 L4.281649523589138 0.6620586302199829 L4.287508898589138 0.6558737342200036 L4.297030382589142 0.6408183962199789 L4.3021573355890865 0.6353659222199983 L4.309237413589088 0.632395544220012 L4.323072049589101 0.6308086302199829 L4.3295010855890865 0.628489294220012 L4.423739367589135 0.5950013382199675 L4.498446398589138 0.5386862342200036 L4.548006945589137 0.4981588912199957 L4.583325955589103 0.4618633182199776 L4.596346788589088 0.4534811562200023 L4.642407986589106 0.4401348022199816 L4.654452257589142 0.43268851322000934 L4.679029080589103 0.41315726322000934 L4.782544705589103 0.361155310220008 L4.801913195589137 0.35383109122001066 L4.821607205589103 0.3493144902199763 L4.852694445589137 0.3541159222199983 L4.905184679589141 0.3411357792200054 L4.938387804589141 0.3469951542200054 L5.093417101589139 0.42597464621997894 L5.126131945589137 0.43268851322000934 L5.1830167105890865 0.40375784921998026 L5.308504992589135 0.4013978232200177 L5.363924913589088 0.4088034222199983 L5.546053820589137 0.3972881222200133 L5.576490018589098 0.3882956092200036 L5.589185330589103 0.37682100021999965 L5.611483507589142 0.34711722421998026 L5.631258898589138 0.337717810220008 L5.632967882589142 0.33027152121997894 L5.635572049589101 0.3228252322200067 L5.645012153589121 0.31944795322000097 L5.662264757589142 0.319692094219997 L5.670809679589141 0.31887829222001507 L5.689282986589106 0.31354788822000934 L5.709872179589141 0.3113506222200133 L5.719881945589137 0.3064271202200164 L5.726229601589139 0.2991842812200023 L5.728996528589121 0.2919414432199776 L5.730624132589142 0.2849427452200164 L5.734042101589139 0.27843232822000097 L5.746981554589141 0.2652487342200036 L5.758456163589088 0.2584941772199816 L5.788729601589139 0.251780310220008 L5.860018663589088 0.2447002322200067 L5.894198351589139 0.23762015422000538 L5.922518663589088 0.2204082402199763 L5.937655382589142 0.21467093522000802 L6.001620226589139 0.21699027121997894 L6.052564236589106 0.20453909921998026 L6.070467882589142 0.20331839621997894 L6.139559679589141 0.2186992552199829 L6.178133898589138 0.23294079222001507 L6.216301215589127 0.2549134482200177 L6.304517361589106 0.28339652121997894 L6.3197354605890865 0.28620413822000934 L6.336825304589141 0.28591930721996484 L6.354784113507449 0.28482227605261734 Z" fill="black" stroke="black" stroke-width="0.5" vector-effect="non-scaling-stroke"/></svg>