<svg xmlns="http://www.w3.org/2000/svg" viewBox="0 0 21.93796875 25.336086956759996"><path d="M3.72654338299996 2.8744342683800035 L3.7315043200000098 2.8907640213799546 L3.738015551 2.897792016379956 L3.7555855380000587 2.9099876543799787 L3.774395758999969 2.937169457379955 L3.8261755440000336 2.9745831943800205 L3.8529439370000027 3.0022817623799547 L3.864002693000014 3.009309757379956 L3.8735111570000065 3.0116868723800003 L3.8941817290000067 3.0129271073800403 L3.9044136620000067 3.015614281379971 L3.9807914299999645 3.0579889553799866 L4.109982510999952 3.1551406493799767 L4.1206278559999525 3.1680597573799965 L4.151943773999971 3.2297614173800504 L4.179022224000004 3.2687254473800387 L4.189874274999976 3.2903261953800076 L4.188323982000025 3.305002302379993 L4.179538988000058 3.321745466379955 L4.1889440990000075 3.3352846913800285 L4.207547614999964 3.3456199783800322 L4.226771247999988 3.352441267379991 L4.228631598999993 3.3785895413799985 L4.23059530400003 3.3851007723799604 L4.2368998280000305 3.390991886379968 L4.254986579000057 3.3994668213799635 L4.261497810000019 3.4055646403800246 L4.26366822000001 3.4149697513799744 L4.259947517000011 3.421067569380032 L4.255503342999997 3.426648624379954 L4.2556066970000295 3.434193383379995 L4.259740811000039 3.441221377380007 L4.270179450999972 3.454140486380016 L4.274313565000011 3.461995304380043 L4.280928148999987 3.4931045153800007 L4.28733602600003 3.504163273380005 L4.303872484999953 3.51398179537998 L4.3331213450000625 3.525970727380031 L4.3387023990000095 3.5351691313799485 L4.342009690999998 3.554806176379973 L4.3570992099999835 3.5529458243799645 L4.356479092000011 3.561317406380031 L4.3510013909999365 3.573719750380011 L4.351724860000029 3.5839516843799863 L4.361646736000022 3.5880857983800105 L4.370741788000014 3.5846751543799833 L4.379526780999992 3.579610863380015 L4.388621832999956 3.5793008053800186 L4.401644294999993 3.589739444379962 L4.371982021999951 3.6066893143799668 L4.365470791999979 3.6225023033799637 L4.363610439999956 3.6504075763800365 L4.408465582999963 3.686684431380005 L4.4165271070000465 3.713142765379988 L4.410325934999957 3.722961287379963 L4.388415128000002 3.7351569253799717 L4.3830407779999625 3.742288272380012 L4.386141364999997 3.7531403233800553 L4.396476650999983 3.7565509683799867 L4.408155525000051 3.7582046133799487 L4.4159069899999785 3.764199079379967 L4.4165271070000465 3.775257836379968 L4.40784546599998 3.79685858538004 L4.407948819000023 3.8071938713799547 L4.416113696000036 3.8174258053800294 L4.441641852999975 3.8290013263800695 L4.45197713899999 3.836752790379979 L4.461795662000025 3.8545294833800092 L4.482879645999969 3.920882022380031 L4.472234300999968 3.940105655380055 L4.471614184000014 3.949304060379962 L4.485153409000002 3.9450665923800052 L4.495075283999977 3.9404157133799522 L4.500863043999953 3.940932478379981 L4.512025152999978 3.952611351379961 L4.51223185899995 3.9563320553799777 L4.539206956999987 4.0158633053799555 L4.547888598000025 4.102473006379984 L4.54561483500002 4.174406599380024 L4.549025479000033 4.193216820379934 L4.586542569000027 4.253264835379955 L4.5830285719999715 4.268767765379966 L4.539827073999941 4.3238548413800295 L4.521326912000017 4.362508812380032 L4.498382575999994 4.398165551380021 L4.440608323999992 4.463897972379986 L4.411049405000039 4.5137140543800065 L4.39720012099998 4.529733748379972 L4.367641200999952 4.5494741443800315 L4.363300381999988 4.561669783380044 L4.3503812729999645 4.615206567379989 L4.347384040999952 4.6441453693799595 L4.3503812729999645 4.6696735263799845 L4.356582444999969 4.681869164380007 L4.3728088449999625 4.702746443379983 L4.3774597240000155 4.717215844380011 L4.375806077999993 4.740263533379977 L4.353998624000052 4.808063012379993 L4.354308681999935 4.838138696379961 L4.359786384000028 4.875139021380011 L4.369914964999975 4.9113125233799515 L4.383764249000034 4.938907738380042 L4.389965420999925 4.946452498379987 L4.395649828000057 4.951620141379994 L4.410739345999968 4.961025252380043 L4.420557867999957 4.971980655379941 L4.430789802000003 5.003709984380041 L4.435854091999982 5.013735212380059 L4.438644618999955 5.010944685380014 L4.46003866299996 4.996992049380015 L4.524530850999991 4.970016951379993 L4.571142992000045 4.940768090380036 L4.596981208999988 4.928469099379999 L4.652791754999935 4.921957868380037 L4.695269781999979 4.937977563379992 L4.735474047000007 4.9605084873800145 L4.867559007999983 4.98727687937998 L4.898564867000015 4.986450056380054 L4.985691331999998 4.963919132380031 L4.999954026999955 4.963712426379988 L5.027962653999975 4.966916365379962 L5.042018642999988 4.966399600380004 L5.125941168999997 4.945935733379958 L5.171726488000029 4.944592146379993 L5.194567471000038 4.948312849379992 L5.243763435000016 4.968363305380041 L5.329029548000062 4.970327009379975 L5.388457445000011 4.984693057379989 L5.409644782999987 4.985003116379975 L5.432279060000024 4.977148298379934 L5.48891642900001 4.942421736380002 L5.507416592999942 4.926402042380037 L5.518475349000038 4.908728702380035 L5.522609462999963 4.8904352453799795 L5.521575934999998 4.871108259380012 L5.512584235999963 4.8262531163799345 L5.513824469999985 4.8106468333799945 L5.525710050000026 4.800104841380023 L5.552375088999963 4.791526553379999 L5.58389771200002 4.786462263379935 L5.680946052000007 4.785842146379952 L5.744094651999955 4.772199568380035 L5.80279908000001 4.73954006337998 L5.85323527800001 4.693858096379959 L5.891269130999955 4.6411481353799395 L5.923411872999974 4.561876489380001 L5.942532152999984 4.526013044380054 L5.982839770000009 4.488702660380017 L5.993381761999995 4.468858911380028 L6.00237346100003 4.462864445379996 L6.048262132999991 4.455526390380005 L6.0638684149999555 4.450772159380012 L6.087949633000061 4.43929999138 L6.140142828999966 4.393824730380036 L6.173939215999962 4.348452823380004 L6.195953377000034 4.332019718380042 L6.22768270599995 4.326748722380007 L6.273054614000056 4.335637068379942 L6.290211189000029 4.3293325433800085 L6.30891805700001 4.303080915379983 L6.325351162999976 4.26845770637998 L6.336616625000044 4.25512518637996 L6.356253669999983 4.242516137380026 L6.365959911999976 4.233473569380042 L6.368345955000063 4.231250674380053 L6.410100511000007 4.173373070380041 L6.4109273349999505 4.16179755037999 L6.407206631999923 4.151772322379973 L6.406689866999994 4.142883975380048 L6.417335211999966 4.134822452379968 L6.445757249999996 4.12521063638005 L6.455575771999957 4.118802758380017 L6.464464117999977 4.106193709379983 L6.469321703000002 4.089450544379947 L6.472318936000004 4.065886091379941 L6.471905524999993 4.043561873379975 L6.466737881000011 4.030952823380037 L6.453922127000009 4.012969424379964 L6.46456747100002 3.9962262613800057 L6.4846179270000555 3.9804132723800087 L6.499810797999981 3.9653237543800124 L6.5105594959999955 3.948477237380036 L6.509215909000044 3.9422760653799607 L6.503014736999955 3.927910017379947 L6.495986742999957 3.917988142380043 L6.4900956290000344 3.91602443838001 L6.486271572999993 3.912820498379947 L6.485548102999996 3.8989712153799907 L6.491542569000028 3.8772671133799896 L6.504875089000063 3.8568032463800286 L6.549523525999984 3.809157575379988 L6.5553112870000625 3.799339053380013 L6.557895107999979 3.7890037673799988 L6.5600655190000445 3.7747410723799426 L6.558515224999933 3.7638890213799847 L6.554691169000005 3.7552073813800213 L6.555931403000027 3.747249210379966 L6.5694706280000155 3.7377407463799734 L6.578462327999954 3.728025577379942 L6.573811448999987 3.7174835843799805 L6.564302986000012 3.7068382403799838 L6.558515224999933 3.6970197173800052 L6.559135342999991 3.68854478238001 L6.561925870000049 3.68037990737999 L6.569780687999991 3.6649803303800077 L6.589727790000023 3.603071964379982 L6.596445726999956 3.5932534413800177 L6.621870530999967 3.5839516843799863 L6.632722581999996 3.5721694573799887 L6.648742275999961 3.533308780380029 L6.657010504999999 3.521009789379992 L6.665588793000023 3.512431501379968 L6.676027431999966 3.506230329379978 L6.689876716000025 3.50064927537996 L6.701245531000023 3.4940346913800546 L6.705379646000022 3.4862832273799604 L6.707653409000056 3.4777049393799366 L6.713131110999949 3.468816592380012 L6.752095141000023 3.432746443380001 L6.775762946999958 3.421377628380018 L6.79963745799996 3.4244782133799596 L6.80625204200005 3.4326430903799867 L6.810592862000032 3.442771671380033 L6.816794034000008 3.447939314380026 L6.8289896720000165 3.441634790380025 L6.838498136000009 3.4344000893799667 L6.913635668000023 3.401947289380036 L6.96117798499996 3.3891315343799597 L7.0107873600000055 3.385927595379986 L7.065461025999991 3.39533270637995 L7.111039639999955 3.4112490473799717 L7.126542568999962 3.4145563383799704 L7.144319261999993 3.4133161043800193 L7.177082119000016 3.402257348379937 L7.1900012280000105 3.4000869373800278 L7.20436727600001 3.4041177003800307 L7.21325562200003 3.4121792233800115 L7.2285518459999984 3.433469913379998 L7.241677660000061 3.4461823153799607 L7.251702887999993 3.4529002513799902 L7.280951748999922 3.4651992423800273 L7.306169846999989 3.4792552323800443 L7.411796474999971 3.5545994703800154 L7.419341233999926 3.5645213463800083 L7.431846930999921 3.576303571380013 L7.487760831000013 3.591909854379953 L7.497165941999963 3.5995579673800258 L7.5073978750000485 3.6204352453799977 L7.514115810999993 3.629323591380018 L7.523417569000014 3.6344912353800147 L7.543674730000003 3.640485701379962 L7.552563077000013 3.645549991380026 L7.590493578000018 3.691025251379987 L7.635762133000025 3.720790876380068 L7.650851651000021 3.7404279203800037 L7.6698685779999884 3.7511766183800184 L7.721545011000028 3.7394977453799534 L7.733120531999997 3.7414614493799867 L7.743352465000054 3.747249210379966 L7.753791104999987 3.755104028379993 L7.754721279999966 3.7632689033800126 L7.749346931000002 3.771847192379955 L7.7507938709999955 3.7766014233799474 L7.7721879140000105 3.7737075433799596 L7.876057543000012 3.7481793863800057 L7.928560798999978 3.7478693273800197 L7.972795824000013 3.770917016379986 L8.041835538000054 3.8454344323799496 L8.084003507000016 3.8737531163800334 L8.134336350999984 3.8814012283800032 L8.161828213999978 3.8749933503799703 L8.181878670000014 3.8672418863799614 L8.201825771999932 3.864968123379956 L8.245947926000024 3.879789518379969 L8.321818448000027 3.905275740379995 L8.374735115000004 3.938038597380004 L8.410081794000018 3.9452732983800622 L8.48304891600004 3.9378318923800357 L8.515811775000042 3.944549828379966 L8.54371704800003 3.951164411379967 L8.573999438000055 3.9479604733799967 L8.633634039999958 3.9335944253799973 L8.653477790999954 3.926049665379953 L8.713009040000014 3.8848118723800305 L8.75838094799995 3.864968123379956 L8.796828213999998 3.8598004793800307 L8.835378831999986 3.8655882393800063 L8.881060798999993 3.8785073483800154 L8.922918707999951 3.8852252843799597 L9.131588141999952 3.8654848873799814 L9.20352173600001 3.833135440379994 L9.332351080999995 3.7414614493799867 L9.353951829999982 3.681206729380012 L9.397934510999999 3.5852596343800265 L9.408625496000024 3.5619375233800135 L9.440561530999997 3.4319196203799898 L9.527998053999976 3.2533258693799674 L9.55001221400003 3.1867666253799776 L9.58029460399997 3.1382941323800004 L9.582154954999975 3.1010871003799885 L9.611300463000003 3.0401089113800204 L9.621842455000046 3.007966169379987 L9.622359220000003 2.9676585533799518 L9.612023933 2.894588077379982 L9.613470872999994 2.8700934483799365 L9.61915528100003 2.865339217379944 L9.62680339200001 2.8640989823800034 L9.659772956999984 2.8537636953799996 L9.71113933000002 2.855520695379969 L9.726228848000016 2.84828599438001 L9.758681648000032 2.826478540379984 L9.911007426000008 2.7827872793800204 L10.023885098999994 2.7504108303800088 L10.070807299000034 2.7443130123800508 L10.089617520000058 2.745966658380002 L10.108634447000025 2.749997419379998 L10.126721199000041 2.7514443593799918 L10.149097900999987 2.7546991523800024 L10.149458829000007 2.754751651379994 L10.214571134000021 2.6933600503800115 L10.221909187000005 2.68188788238 L10.251158047000057 2.610781111379982 L10.276272793999976 2.580602075379975 L10.303454597000052 2.5601382073800103 L10.368566901999952 2.5213808833799796 L10.42918335600002 2.463399926380024 L10.438020027000032 2.4485171133799817 L10.459104010999948 2.4378717683799955 L10.547367358000042 2.4116201403800552 L10.568347989000028 2.4007680903800157 L10.584264331000053 2.38753892338001 L10.594806322000021 2.37007228937998 L10.614029955000046 2.2823257073799432 L10.615993659999969 2.2377806223800185 L10.686273606999986 1.9721637613799636 L10.690097663 1.9451886633800264 L10.683224697999957 1.9248281493799944 L10.711698411999986 1.8771308023800266 L10.709639173999943 1.8690810543799508 L10.707150886000033 1.8593541093800106 L10.712266853000028 1.8406472403800258 L10.731645515000007 1.8089179113799965 L10.749267178999997 1.7677834713800173 L10.758930671000012 1.7604454183800335 L10.769369311000059 1.7644761793800292 L10.774950366000052 1.7766718173800378 L10.78270182999999 1.7876272203800205 L10.799858404999934 1.788350691380007 L10.815154630000006 1.7780154043800032 L10.814534512000034 1.7636493573800074 L10.808229987000015 1.7461827223800448 L10.80662801799998 1.726338972379967 L10.81350098400004 1.7292328523799547 L10.820322272999999 1.7331602613800108 L10.823422858999958 1.7239618573800222 L10.829210620000008 1.717967390379986 L10.847607429000004 1.7057717523799774 L10.840889492999974 1.7057717523799774 L10.848847663999958 1.6936794673799973 L10.858459479999976 1.6862380603799672 L10.869518235999958 1.6851011793800588 L10.88181722700001 1.692129174379975 L10.886261400000006 1.6802435943799487 L10.880783698000027 1.6738357173800047 L10.872515469999978 1.6672211343800036 L10.868174649000007 1.654922142379963 L10.872515469999978 1.6469639723799965 L10.88274740299995 1.645310326380045 L10.89421957099999 1.6494444413799734 L10.902281094000056 1.6586428463799798 L10.906621914999942 1.6518215573800212 L10.914063320999968 1.6435533283799693 L10.91654379000003 1.6375588613800325 L10.92377849 1.6455170323800026 L10.931736660999984 1.6492377353800158 L10.94072836000002 1.6490310303799625 L10.950753587999952 1.6450002683799632 L10.93659424599998 1.6257766353800385 L10.947601325000061 1.6139944083800408 L10.984808357000002 1.6033490643799588 L11.023203946000006 1.5855723713800138 L11.04067058000005 1.5736867913799877 L11.05710368599993 1.5590106843800022 L11.080668139000021 1.5243874753799993 L11.095085863999952 1.513432071380013 L11.106299649000004 1.5444379313800347 L11.11642822999995 1.538960228380052 L11.125936694000028 1.527281355379987 L11.128830574000016 1.5214935953800115 L11.14092285900001 1.516015893379933 L11.155598965000006 1.511261661380022 L11.163557135999962 1.51322536537997 L11.156219082999979 1.527694766379998 L11.170275071999992 1.5346194093799745 L11.180093594999942 1.528521590380013 L11.188258470000061 1.5170494213799977 L11.197766933999969 1.5072308993799375 L11.210789394999988 1.5023733153800158 L11.252337246999968 1.501029728379951 L11.27393799500005 1.4950352613800142 L11.293988451 1.4827362713799808 L11.308767911 1.464752872379993 L11.314452317999962 1.442325300379995 L11.312850349000012 1.435710717379994 L11.310008145000051 1.427752546380038 L11.308406176000016 1.4211379633799517 L11.310989998000007 1.418450788380003 L11.314710701000035 1.41679714337997 L11.31817302099996 1.4124563223799846 L11.32034343199997 1.406771915379938 L11.32117025499998 1.4010875073799873 L11.325511074999962 1.3857912833800334 L11.344321295999986 1.3665676503800093 L11.353106289999953 1.3386623773800217 L11.364268398999979 1.3389724353800183 L11.37853109400005 1.345380314380055 L11.392225348999983 1.3495144283799796 L11.40385254599995 1.345380314380055 L11.44354004600002 1.315407983380016 L11.470825202999958 1.343623314379986 L11.484261074999988 1.3495144283799796 L11.49873047600003 1.3426931383800174 L11.504518236999996 1.3333913813800002 L11.519297696000006 1.2949441153800514 L11.520847988999929 1.294427351380012 L11.528392747999998 1.288846297379994 L11.529684658999951 1.2875027093800249 L11.534387214000002 1.285745710380045 L11.532475185999981 1.281714949379964 L11.528134366 1.2773741283799787 L11.52611898500005 1.2744802483799909 L11.52415528100003 1.2696226643799697 L11.519711107000017 1.2626980213799932 L11.516817227000029 1.2549465573799843 L11.519297696000006 1.2470917393799574 L11.53004639400002 1.2489520913799659 L11.551543789999965 1.2502956783800165 L11.567356777999986 1.2449213293800518 L11.560845546999996 1.2266278723799964 L11.598879402000033 1.2175328203799332 L11.640633958999995 1.201409773380039 L11.675153816000044 1.1789822023799452 L11.69117350900002 1.150973575380025 L11.683008633999986 1.10859890038002 L11.682595221999986 1.0857579173800112 L11.694274095999969 1.075836042380022 L11.713497728999993 1.0729421623800341 L11.73447835999998 1.0657074623799652 L11.753391934000017 1.0567157623800263 L11.766931159000006 1.0485508873800065 L11.782537442000045 1.033358015379978 L11.794836432999983 1.0133075593800278 L11.79907389999995 0.991086694379991 L11.790495613000001 0.9696926503799865 L11.792252610999991 0.9588406003799328 L11.810856127000033 0.9507790763800337 L11.833903815999985 0.9445779043800435 L11.848786628000038 0.9386867913800536 L11.852817390000023 0.9325889723799925 L11.85829509200003 0.9172927483800386 L11.862532559999988 0.9114016353800345 L11.870697434999993 0.9074742263799784 L11.880722664 0.9053038163799876 L11.890954597 0.9016864663800028 L11.90004964900005 0.8939350003800008 L11.907594408000005 0.8809125403799563 L11.907801114000062 0.8729543693800004 L11.904803880999975 0.8652029043799878 L11.902840176000023 0.8530072663799793 L11.904803880999975 0.8400881593799632 L11.909764819000014 0.8305796953799849 L11.941287441999986 0.7935793693800299 L11.950589200000007 0.7878949613799797 L11.96144125099995 0.7851044343800204 L11.985780849999951 0.7828306713800011 L11.995651048999957 0.7775596753799796 L12.031927903999996 0.7377688233799695 L12.046914069999968 0.7257798903800001 L12.083656012999949 0.7065562573799902 L12.121948249999956 0.6969444413800581 L12.20447551199997 0.6915700913800045 L12.267572435000016 0.706762963380033 L12.28359212999997 0.7022154373800085 L12.30493449599997 0.684955509380007 L12.322659511999984 0.681958276380005 L12.342296556000019 0.684645450380021 L12.368961595999973 0.6847488033799642 L12.404101570000005 0.6738967523800063 L12.476448574999988 0.635862898380072 L12.519856777999973 0.623357201379978 L12.541870938000056 0.6201532623800041 L12.561921394000006 0.6148822663799827 L12.576287442999995 0.6042369213799823 L12.581868497000027 0.5851166413799866 L12.591687018999988 0.5718874753799987 L12.61447632599997 0.5708539463800157 L12.657626147000013 0.5756081783799978 L12.675506191999954 0.5627924233800208 L12.69855388100002 0.522691511380021 L12.708475756000023 0.5141132233799972 L12.713023282000062 0.502330997379989 L12.70532349399998 0.43215440138002137 L12.728836270000055 0.4039390703799661 L12.747853197000023 0.3853355553799993 L12.76314942099999 0.3769639723800289 L12.762942715000019 0.37231309337997587 L12.783819994999998 0.3458547603799822 L12.792915045999973 0.34223741037999744 L12.91394125100005 0.3359328853799788 L12.931717942999978 0.32962836037997434 L12.947892666999973 0.3163991933799828 L12.967167975999995 0.304100202380031 L12.993316250000031 0.30120632337994735 L13.04798991599996 0.3121617263800154 L13.076618658999973 0.3147455483800208 L13.09517049799997 0.30864772938005913 L13.102043464999962 0.31288519638001233 L13.108347988999991 0.31422878437998136 L13.123127448999991 0.31484890038004565 L13.14462484500002 0.304100202380031 L13.181211757999971 0.28508327537996436 L13.201985684000032 0.28074245537998266 L13.252008471000021 0.29200791737995146 L13.276916511999968 0.29438503337999933 L13.287613532999966 0.2844631583799959 L13.296140144000002 0.26792670038000566 L13.315260423999984 0.26389593838000636 L13.34905680999999 0.2669965243799517 L13.386160488999973 0.2511835363799584 L13.406521002999977 0.24839300937999909 L13.424711107000018 0.2602785883800216 L13.436545010000042 0.2560411203799795 L13.503982755000049 0.2528371823800093 L13.524343268999996 0.25831488337999886 L13.582427578999965 0.29438503337999933 L13.616585700999973 0.30120632337994735 L13.641132006000031 0.3132986083800269 L13.677202156000032 0.31629584038003955 L13.691774910000003 0.320223250380014 L13.719060066000008 0.3359328853799788 L13.728878588000054 0.33965358837999204 L13.750375984000026 0.34420111438003076 L13.760607918000016 0.3489553453800234 L13.779624843999965 0.36807562638000846 L13.78096843200002 0.3725197993799334 L13.783242194000035 0.3757237383799925 L13.81300781999995 0.3790310293799912 L13.82768392600003 0.38481879037997047 L13.85620931699999 0.4042491283800338 L13.880187181999997 0.41551459138000624 L13.897757167999952 0.4167548253800426 L13.942095547000019 0.411070418379996 L13.966796881999993 0.4128274163800718 L13.98550375100002 0.418098412380008 L14.00038656399995 0.4266767003800318 L14.014442553000048 0.4383555733800115 L14.045861823000006 0.4589227943800047 L14.080071622000002 0.46667425938000306 L14.117175299999996 0.4654340243799773 L14.157792976000007 0.4588194403799726 L14.17680990300006 0.4531350343800291 L14.214326993000054 0.4370119863800461 L14.23355062600002 0.43215440138002137 L14.25246420000003 0.4315342853799571 L14.31726644600003 0.4385622803799727 L14.346205248 0.4383555733800115 L14.355403653000007 0.4406293363800309 L14.370648199999959 0.4505512123800237 L14.377521166000019 0.45261826937998606 L14.39250733199999 0.4483808023799476 L14.419379075999995 0.4305007563799741 L14.43901612000003 0.42471299538000906 L14.55037883199999 0.4164447663799571 L14.58298666099996 0.4042491283800338 L14.612183844999958 0.4115871813800318 L14.67228353600002 0.41768500037999345 L14.781217455 0.44155951237998536 L14.815427253000006 0.45561550238000237 L14.832738857999981 0.4588194403799726 L14.842144775999952 0.45686347038004627 L14.849637052000002 0.45530544438001996 L14.882813321000025 0.4404226313799775 L14.897696133999954 0.4383555733800115 L14.908444832000054 0.4445567463799911 L14.928753669000013 0.4675010823800285 L14.935781664 0.4725653723800072 L14.942964687999972 0.4745290763800405 L14.958570970999983 0.483830834379976 L14.966632493999963 0.4868280673799781 L14.97469401799999 0.48589789137993833 L14.990817065000055 0.4794900143799943 L15.00073893900004 0.4799034253800052 L15.01071249100006 0.487448184380046 L15.034018561999982 0.5192808673799938 L15.024200039999993 0.5372642663799816 L15.06843506599996 0.6648017003800284 L15.120008145000053 0.8135264723799516 L15.171477872000036 0.9620445393800061 L15.21271566500003 1.0809003323800006 L15.28144532 1.2789244223800047 L15.28754313899999 1.309206811380026 L15.26656250800006 1.5375132883800582 L15.272712002000059 1.5787510813799663 L15.291367195000031 1.6143044673800269 L15.387382006000006 1.7098025143799767 L15.40712240299997 1.745976016380002 L15.44572469800006 1.8710329833799797 L15.48629069699997 1.9587278883800003 L15.500295011000059 1.9797085193800008 L15.519156908000024 1.9960382723800372 L15.583752449000041 2.0397565343800217 L15.595534674999964 2.0525722893799987 L15.600909023999986 2.0684886303800205 L15.601587945999949 2.0848991373799954 L15.608143725000001 2.243361677379955 L15.614551602000017 2.285736352380045 L15.67140757599999 2.398680839379967 L15.706432298999982 2.46825751037996 L15.731650397999953 2.545048689380014 L15.737024746999975 2.6223566313800184 L15.728859871000008 2.6910862863799885 L15.72968669400002 2.8304059483800366 L15.730720222000013 2.9988711173800233 L15.731392015999983 3.1182436753799614 L15.73232219099999 3.2773037343799736 L15.73382080800003 3.494551456379998 L15.716767584999968 3.54343736137999 L15.712736824 3.5687588133799615 L15.711496589999978 3.6016250233799987 L15.715217292999977 3.6328375883800597 L15.725655931000016 3.6535081613799925 L15.731495368999969 3.674385441380057 L15.74074545000003 3.737120629380005 L15.74084880299996 3.758824731380006 L15.736714689000006 3.7721572503800225 L15.729893399000058 3.778255069379984 L15.720178229999998 3.783629418379949 L15.707362475000036 3.794791528379978 L15.69950765699998 3.8068838133799723 L15.657029628999975 3.9072394443800285 L15.650931809999985 3.9349380123799627 L15.655065925000041 3.9649103433800015 L15.694340012999998 4.080045434379986 L15.636979173999986 4.105780297379983 L15.60845378299997 4.11187811638003 L15.57967001100003 4.104023298380003 L15.49206312900004 4.052730602379999 L15.475697029000013 4.043148462379964 L15.383868009000036 3.989404972379962 L15.277931321999983 3.927496606379936 L15.171994635999976 3.8655882393800063 L15.146569830999976 3.857940128380026 L15.117114264999952 3.858353539380037 L15.082491055000059 3.8666217683799893 L15.054379077000032 3.8793341713799556 L14.953506679999986 3.960569522380016 L14.864933276000055 4.0319863513800165 L14.851962490999949 4.052863631379996 L14.836717943000007 4.105573591380011 L14.782871100999966 4.222052270379965 L14.714968269000007 4.331089542379988 L14.642414557999995 4.413668481380032 L14.549655361999964 4.519398461379968 L14.528002937000007 4.594329288380013 L14.52924317100003 4.7007827393799495 L14.530793463999952 4.838862165380053 L14.540767015999972 4.907488467380009 L14.547536628 4.930846215379962 L14.564899910000019 4.929916039379993 L14.581539720999967 4.927022159380005 L14.598489591000043 4.91854722438001 L14.613837491000037 4.90686835138003 L14.625309659000049 4.894155948379979 L14.630391253000038 4.907581684379995 L14.64768555400003 4.953273786380041 L14.660914720000005 4.971360538379958 L14.689543464000007 4.998542341380034 L14.700188809000007 5.013321801380048 L14.706079922999958 5.033165551380041 L14.70483968800006 5.058073591380012 L14.69450440199996 5.097347680379986 L14.698741869000013 5.1222557203799575 L14.721169440999983 5.156982282379989 L14.82385051199999 5.240181338380001 L14.871599535999973 5.304570174379993 L14.887050788999954 5.318419457379964 L14.902140306000046 5.3275145103800305 L14.989803421000044 5.354527408379983 L15.025233567999987 5.365445010379947 L15.101766363999968 5.3890094643800275 L15.204550788000017 5.420635440380028 L15.271626797999954 5.432831078379952 L15.382007657000042 5.434174665380002 L15.527631843000005 5.435931665379986 L15.623698331000025 5.437171899380022 L15.713356940999983 5.438205427380002 L15.712840177000043 5.42497626038001 L15.709946295999952 5.413607445380013 L15.704882006000059 5.4029621003800266 L15.698060715999997 5.392110049379983 L15.692479661999993 5.377433943379987 L15.689947517000018 5.303329939379967 L15.689301118000014 5.284279473380057 L15.687208665999957 5.222611352380017 L15.70477865299996 5.130730655379967 L15.72038493599997 5.048565127380034 L15.737334805 4.960198429380018 L15.73516439499998 4.930226098379979 L15.802240405000031 4.930536156379976 L15.81826009799995 4.933326684380024 L15.842858081000042 4.955444197380036 L15.858981127000003 4.961955427380008 L15.888281663999987 4.967639835379959 L15.939182950000042 4.962265486379994 L15.968121752000012 4.963299015379977 L16.040933844999994 4.973944359380059 L16.097312833 4.982212588380012 L16.213998216999993 4.9793187093800135 L16.34318929699999 4.975908064379997 L16.483542488000023 4.972187361379984 L16.638173828000003 4.968065040380001 L16.625641275999964 5.008836525379994 L16.610341797 5.139288999379975 L16.59203125 5.202928322379993 L16.589671223999982 5.2246568373799995 L16.584462890999998 5.245571551380014 L16.54881835899995 5.2901679053799775 L16.546132812999996 5.298794207380016 L16.541982422 5.327684181379997 L16.539785156000004 5.336229103379996 L16.530507812999996 5.3516099623799995 L16.526113281000004 5.377895769380022 L16.421621094 5.6426255873799995 L16.352285156000004 5.935675717379983 L16.350820312999996 5.958055275379994 L16.348867187999996 5.968309181379997 L16.33950846399996 5.991990822379993 L16.336578775999964 6.002733009379998 L16.336416015999998 6.014940040380001 L16.34203125 6.033738868380002 L16.34341471399996 6.044399676380014 L16.295644531000004 6.293504493380002 L16.28905273399995 6.312059181379997 L16.20506835899995 6.428677019380022 L16.19937174499996 6.444627540380001 L16.19546549499996 6.467576759379998 L16.184316406000004 6.488572853379996 L16.167145181999967 6.503872332380016 L16.144765625 6.5098130873799995 L16.14842773399995 6.519497332380016 L16.152089844 6.522264259379998 L16.157216797 6.5206366553799775 L16.165273437999996 6.516649025379994 L16.173330078000003 6.551316993380002 L16.16234375 6.588426368380002 L16.14582356799998 6.62464056137998 L16.137197265999998 6.657274025379994 L16.124501953000003 6.674770769380022 L16.038238931999967 6.752895769380022 L16.025136719 6.762010353379996 L15.992991535999987 6.775844988380019 L15.980214843999999 6.783494728379996 L15.970530598999982 6.79456243637998 L15.951894531000004 6.823289650379994 L15.938710937999996 6.838182228379996 L15.828847656000004 6.921434181379997 L15.801422525999964 6.901414650379994 L15.761953125000002 6.906867124379975 L15.739085285999987 6.928188738380019 L15.761220703000003 6.955532488380019 L15.769195963999959 6.94690618637998 L15.782460937999996 6.9366522803799775 L15.798492838999959 6.929002540380001 L15.815175781000004 6.927537697379993 L15.796132812999996 6.959764259379998 L15.75715169299998 6.988410092379983 L15.633453775999964 7.046678322379993 L15.597158203000003 7.053270118380002 L15.558828125000002 7.052049415380001 L15.514150390999998 7.044236915380001 L15.515452473999982 7.0527818373799995 L15.517405598999982 7.058559832380016 L15.521149088999959 7.062466082380016 L15.527822265999998 7.065395769380022 L15.527822265999998 7.071580665380001 L15.497223306999967 7.088182228379996 L15.302561848999982 7.283820249379975 L15.255361328000003 7.320929624379975 L15.23957356799998 7.327602801380014 L15.233551431999967 7.331590431379997 L15.231191406000004 7.337693947379993 L15.227285156000004 7.355272072379993 L15.223297525999964 7.358934181379997 L15.210439453000003 7.36682806137998 L15.172109375000002 7.4141099623799995 L15.157705078000003 7.425096290380001 L15.123688150999964 7.443813738380019 L15.110097656000004 7.454555926380014 L15.105133463999959 7.464402931379997 L15.099762369999961 7.485317644380022 L15.08722981799998 7.491990822379993 L15.079091797 7.498338478379996 L15.07160481799998 7.506150978379996 L15.063710937999996 7.523973243380002 L14.931956379999985 7.682257749379975 L14.800608723999982 7.91174993637998 L14.79035481799998 7.951463478379996 L14.800934244999961 7.990200457380016 L14.760895181999967 7.990037697379993 L14.751210937999996 7.9980943373799995 L14.746328125000002 8.024380144380022 L14.761464843999999 8.017137306379997 L14.795563150999964 8.00712754038 L14.808421223999982 7.996385353379996 L14.808421223999982 8.003872332380016 L14.806630858999949 8.010871030379977 L14.803375650999964 8.017869728379996 L14.794667968999999 8.03056504038 L14.76887044299998 8.057746030379977 L14.665029297 8.140428322379993 L14.635732422 8.172003842379983 L14.587636718999999 8.245246030379977 L14.531565754999985 8.35942246238 L14.386708983999949 8.581509051380014 L14.36652669299998 8.622036394380022 L14.362783203000003 8.637254493380002 L14.354645181999967 8.651496030379977 L14.307444660999987 8.695848243380002 L14.137441406000004 8.969041603379996 L14.109121093999999 9.004197853379996 L14.093251953000003 9.018520769380022 L14.078847656000004 9.024217384379998 L14.065419922 9.034227150379994 L14.033844400999964 9.09306504038 L13.941070963999959 9.199835874379975 L13.86847981799998 9.283494728379996 L13.840159504999985 9.300584572379993 L13.807851562999996 9.36064316538 L13.755035806999967 9.414191342379983 L13.609202473999982 9.533494728379996 L13.591298828000003 9.541551368380002 L13.529612629999985 9.55668808738 L13.506826172 9.565884051380014 L13.487132160999987 9.57939316538 L13.478831379999985 9.596808530379977 L13.417470703000003 9.661668556379997 L13.395498047 9.669725197379993 L13.386464843999999 9.675259051380014 L13.379710285999987 9.694383400379994 L13.372792968999999 9.702195900379994 L13.364980468999999 9.707973894380022 L13.359527994999961 9.710089780379977 L13.337148437999996 9.714972592379983 L13.319163410999987 9.727342384379998 L13.287099608999949 9.75785996238 L13.271149088999959 9.765916603379996 L13.23176106799998 9.778367775379994 L13.205882160999987 9.79423691538 L13.197255858999949 9.795945900379994 L13.187815754999985 9.796678322379993 L13.177236328000003 9.799445249379975 L13.172353515999998 9.799933530379977 L13.161285806999967 9.79846868637998 L13.156728515999998 9.799445249379975 L13.150625000000002 9.806118426380014 L13.152008463999959 9.811326759379998 L13.155751953000003 9.81572129038 L13.156728515999998 9.81995306137998 L13.136953125000002 9.85746933738 L13.107574869999961 9.871710874379975 L13.102041015999998 9.877733009379998 L13.097972004999985 9.902309832380016 L13.087148437999996 9.915493426380014 L13.054352213999959 9.936001238380019 L13.021800129999985 9.966600197379993 L13.006337890999998 9.985480405379977 L12.999664713999959 10.001512306379997 L12.997060547 10.01103379038 L12.979238281000004 10.038540301380014 L12.968496093999999 10.043911394380022 L12.965566406000004 10.045945900379994 L12.963857422 10.049852150379994 L12.960602213999959 10.062059181379997 L12.958730468999999 10.06572129038 L12.892731119999961 10.091762957380016 L12.883046875000002 10.103969988380019 L12.878896483999949 10.12040879038 L12.868886718999999 10.138963478379996 L12.841461588999959 10.175584572379993 L12.718414713999959 10.288621681379997 L12.615468750000002 10.408983009379998 L12.562246093999999 10.437059181379997 L12.553457031000004 10.446824806379997 L12.419179687999996 10.552537697379993 L12.396311848999982 10.581020769380022 L12.387848306999967 10.587449806379997 L12.371328125000002 10.594285743380002 L12.362294922 10.600145118380002 L12.325429687999996 10.633104103379996 L12.307770181999967 10.65393743637998 L12.30012044299998 10.672410743380002 L12.293691406000004 10.684373634379998 L12.182607422 10.757941342379983 L12.157054035999987 10.76957871238 L12.124501953000003 10.792934832380016 L12.108388672 10.80009629038 L12.105214843999999 10.815884051380014 L12.082021483999949 10.83134629038 L12.032705078000003 10.854051368380002 L11.98566731799998 10.88285996238 L11.955882160999987 10.896613217379983 L11.900625000000002 10.910447853379996 L11.875234375000002 10.930792905379977 L11.855947265999998 10.958462176380014 L11.848378906000004 10.988084572379993 L11.839101562999996 11.00940618637998 L11.817373047 11.030239519380022 L11.714996744999961 11.102505144380022 L11.684723306999967 11.111782488380019 L11.675771483999949 11.119594988380019 L11.662750650999964 11.135789650379994 L11.649078775999964 11.14262558738 L11.647451172 11.146287697379993 L11.647207031000004 11.151414650379994 L11.646230468999999 11.156867124379975 L11.642242838999959 11.161912697379993 L11.594391275999964 11.180467384379998 L11.574941406000004 11.199184832380016 L11.56379231799998 11.203579363380019 L11.544423828000003 11.206183530379977 L11.494944660999987 11.221727150379994 L11.477773437999996 11.230760353379996 L11.388336588999959 11.31059433738 L11.354970703000003 11.333787697379993 L11.284332681999967 11.356492775379994 L11.272939453000003 11.36487493637998 L11.268382160999987 11.366339780379977 L11.245107422 11.395311134379998 L11.237457681999967 11.398973243380002 L11.22980794299998 11.400926368380002 L11.221425781000004 11.40003118637998 L11.210764973999982 11.395311134379998 L11.203603515999998 11.420864519380022 L11.179677733999949 11.44267441538 L11.125315754999985 11.479295509379998 L11.10090169299998 11.49150254038 L11.096832681999967 11.49150254038 L11.092600910999987 11.489061134379998 L11.089345703000003 11.48637558738 L11.087392578000003 11.485317644380022 L11.083974609000006 11.48832871238 L11.079905598999982 11.498989519380022 L10.973378906000004 11.560838478379996 L10.963857422 11.570604103379996 L10.888173828000003 11.601365822379993 L10.872548828000003 11.611782488380019 L10.864899088999959 11.618699806379997 L10.861481119999961 11.625535743380002 L10.859527994999961 11.633104103379996 L10.853994140999998 11.641079363380019 L10.846018879999985 11.647264259379998 L10.836904297 11.64970566538 L10.816396484000006 11.652798113380019 L10.729726562999996 11.692186134379998 L10.710439453000003 11.696255144380022 L10.686350910999987 11.697557228379996 L10.664215494999961 11.703416603379996 L10.608144531000004 11.744676368380002 L10.587880859000006 11.74931504038 L10.539703775999964 11.754197853379996 L10.506337890999998 11.770962176380014 L10.410472004999985 11.805630144380022 L10.398427734000006 11.806769467379983 L10.390615234000006 11.811082618380002 L10.384023437999996 11.82971868637998 L10.377675781000004 11.834113217379983 L10.355947265999998 11.836880144380022 L10.260244140999998 11.877244728379996 L10.221181640999998 11.886196551380014 L10.179921875000002 11.88798691538 L10.094960937999996 11.877488868380002 L10.068512369999961 11.878384051380014 L10.049306640999998 11.885708269380022 L10.031728515999998 11.88831243637998 L10.008291015999998 11.879930275379994 L9.970693359000006 11.86137558738 L9.837636718999999 11.838996030379977 L9.700348306999967 11.832811134379998 L9.612539062999996 11.84379746238 L9.530507812999996 11.865525978379996 L9.456207681999967 11.89612493637998 L9.424143879999985 11.917121030379977 L9.398183593999999 11.94462754038 L9.379140625000002 11.977098243380002 L9.36262044299998 12.033331967379983 L9.360016275999964 12.056932228379996 L9.364492187999996 12.067837176380014 L9.384023437999996 12.075731056379997 L9.388499348999982 12.084520118380002 L9.393300781000004 12.090623634379998 L9.422109375000002 12.108445900379994 L9.44074544299998 12.133755144380022 L9.449453125000002 12.14262558738 L9.447988281000004 12.15043808738 L9.446116535999987 12.15361191538 L9.442617187999996 12.156867124379975 L9.411123047 12.14848496238 L9.389394531000004 12.154425717379983 L9.369293619999961 12.165005144380022 L9.343251953000003 12.170457618380002 L9.312001953000003 12.167446551380014 L9.259023437999996 12.153449155379977 L9.230296223999982 12.149461525379994 L9.180491535999987 12.154832618380002 L9.15558919299998 12.154913999379975 L9.128652343999999 12.141567644380022 L9.09308919299998 12.13635931137998 L9.058909504999985 12.11528183738 L9.022613931999967 12.103074806379997 L8.937734375000002 12.084113217379983 L8.846181640999998 12.082485613380019 L8.756582031000004 12.092902280379977 L8.697988281000004 12.10706243637998 L8.674143879999985 12.117804624379975 L8.658437500000002 12.133266863380019 L8.672516275999964 12.174282488380019 L8.66144856799998 12.194302019380022 L8.644358723999982 12.211554624379975 L8.633779297 12.218309181379997 L8.586171875000002 12.254441993380002 L8.579254556999967 12.26957871238 L8.58332356799998 12.281704363380019 L8.592763672 12.288214780379977 L8.602203775999964 12.293097592379983 L8.606435547 12.300259051380014 L8.603017578000003 12.308885353379996 L8.585927734000006 12.31995306137998 L8.579254556999967 12.327602801380014 L8.572418619999961 12.327602801380014 L8.559804687999996 12.312628842379983 L8.538808593999999 12.30668808738 L8.470449218999999 12.305223243380002 L8.41535481799998 12.292772072379993 L8.392324218999999 12.290167905379977 L8.329091797 12.300259051380014 L8.310048828000003 12.29887558738 L8.223623047 12.279751238380019 L8.180328775999964 12.260871030379977 L8.145253906000004 12.234503842379983 L8.125966797 12.228318947379993 L8.004222004999985 12.21611191538 L7.986806640999998 12.208055275379994 L7.972972004999985 12.199835874379975 L7.9081933590000055 12.176723894380022 L7.7293196609999875 12.163052019380022 L7.707753906000004 12.158820249379975 L7.664703775999964 12.145473894380022 L7.558095703000003 12.13635931137998 L7.380605468999999 12.10160996238 L7.333649088999959 12.10315618637998 L7.1726790359999875 12.134324806379997 L7.1511946609999875 12.142381447379993 L7.131988931999967 12.153123634379998 L7.115957031000004 12.166795509379998 L7.1062727859999875 12.188605405379977 L7.113027343999999 12.208543556379997 L7.130686848999982 12.222215431379997 L7.153473306999967 12.225145118380002 L7.153473306999967 12.231981056379997 L6.8079329429999795 12.204637306379997 L6.802561848999982 12.198208269380022 L6.796621093999999 12.16956243637998 L6.794098306999967 12.163052019380022 L6.763987629999985 12.161098894380022 L6.751617838999959 12.157029884379998 L6.743154297 12.149461525379994 L6.746735025999964 12.164516863380019 L6.754140625000002 12.170457618380002 L6.7638248699999615 12.173631447379993 L6.773916015999998 12.180467384379998 L6.783844400999964 12.194383400379994 L6.7840071609999875 12.201707618380002 L6.7773339840000055 12.208055275379994 L6.771311848999982 12.202928322379993 L6.757314453000003 12.199347592379983 L6.729645181999967 12.197231707380016 L6.7167871090000055 12.199673113380019 L6.7071842449999615 12.203253842379983 L6.6966048179999795 12.205858009379998 L6.681142578000003 12.204637306379997 L6.601308593999999 12.183722592379983 L6.569326172 12.167121030379977 L6.556468098999982 12.16370306137998 L6.545237629999985 12.15751816538 L6.5370996090000055 12.14262558738 L6.534902343999999 12.133266863380019 L6.535634765999998 12.12626816538 L6.5423079429999795 12.122524676380014 L6.557607422 12.12268743637998 L6.5418196609999875 12.111456967379983 L6.5196842449999615 12.10551621238 L6.475576172 12.10160996238 L6.485016275999964 12.116665301380014 L6.498281250000002 12.131476499379975 L6.513987629999985 12.143358009379998 L6.530263672 12.149461525379994 L6.5118717449999615 12.154832618380002 L6.4876204429999795 12.150844988380019 L6.3749902340000055 12.117723243380002 L6.354970703000003 12.11528183738 L6.328766275999964 12.116014259379998 L6.309072265999998 12.11918808738 L6.292796223999982 12.125535743380002 L6.240957031000004 12.161180275379994 L6.2005110679999795 12.17900254038 L6.1555891929999795 12.18754746238 L6.062164713999959 12.178839780379977 L6.020253906000004 12.179653582380016 L5.934316406000004 12.197231707380016 L5.914296875000002 12.20512558738 L5.897939453000003 12.215623634379998 L5.868642578000003 12.242479103379996 L5.856110025999964 12.263475197379993 L5.860504556999967 12.279751238380019 L5.8749902340000055 12.291632749379975 L5.892812500000002 12.300259051380014 L5.879140625000002 12.310024676380014 L5.859202473999982 12.315884051380014 L5.729156900999964 12.33207871238 L5.692047525999964 12.345669207380016 L5.6668196609999875 12.368618426380014 L5.663808593999999 12.384894467379983 L5.668935547 12.41760931137998 L5.659414062999996 12.428758400379994 L5.639638672 12.457973894380022 L5.633779297 12.461554624379975 L5.574697265999998 12.490525978379996 L5.533844400999964 12.50322129038 L5.491201172 12.510301368380002 L5.447744140999998 12.512498634379998 L5.342275390999998 12.494594988380019 L5.3048404949999615 12.475389259379998 L5.282705078000003 12.470831967379983 L5.260976562999996 12.474168556379997 L5.219228515999998 12.488735613380019 L5.184072265999998 12.494269467379983 L5.176992187999996 12.499803322379993 L5.172597656000004 12.506476499379975 L5.167226562999996 12.512498634379998 L5.160634765999998 12.51689316538 L5.094065754999985 12.541144467379983 L5.051015625000002 12.54651556137998 L5.007558593999999 12.543504493380002 L4.843496093999999 12.492723243380002 L4.803457031000004 12.485317644380022 L4.7063704429999795 12.477993426380014 L4.658518879999985 12.482387957380016 L4.618642578000003 12.498826759379998 L4.625966797 12.498826759379998 L4.568837890999998 12.512254493380002 L4.550283203000003 12.519985613380019 L4.577301431999967 12.523729103379996 L4.601227213999959 12.538865822379993 L4.6132714840000055 12.55986191538 L4.604970703000003 12.580695249379975 L4.586171875000002 12.586961525379994 L4.409414062999996 12.560350197379993 L4.2695214840000055 12.57621933738 L4.227773437999996 12.592413999379975 L4.193105468999999 12.61528183738 L4.138336588999959 12.676723894380022 L4.119619140999998 12.691697853379996 L4.100576172 12.698045509379998 L4.086253254999985 12.700649676380014 L4.0794173179999795 12.707160092379983 L4.073964843999999 12.715949155379977 L4.063710937999996 12.725389259379998 L4.055166015999998 12.729132749379975 L4.022695312999996 12.739712176380014 L4.006582031000004 12.748989519380022 L3.9884342449999615 12.76298691538 L3.9736230470000002 12.779751238380019 L3.967519531000004 12.797003842379983 L3.956777343999999 12.793992775379994 L3.932363281000004 12.799363868380002 L3.8917545569999668 12.81409368637998 L3.8176985679999795 12.858852801380014 L3.7895410159999976 12.89026556137998 L3.8029687500000016 12.917121030379977 L3.8029687500000016 12.923387306379997 L3.786855468999999 12.92704941538 L3.7607324220000002 12.940884051380014 L3.7443750000000016 12.943895118380002 L3.7286686199999615 12.942023374379975 L3.7130436199999615 12.93714056137998 L3.6985579429999795 12.930630144380022 L3.6355696609999875 12.891649025379994 L3.6210839840000055 12.879360613380019 L3.6035058590000055 12.871629493380002 L3.443186848999982 12.875617124379975 L3.4287011720000002 12.87854681137998 L3.4120996090000055 12.892381447379993 L3.398264973999982 12.896043556379997 L3.3875227859999875 12.894009051380014 L3.3808496090000055 12.887824155379977 L3.3762109379999963 12.880825457380016 L3.3715722659999976 12.875617124379975 L3.3211165359999875 12.849900978379996 L3.244781900999964 12.786180275379994 L3.1935937500000016 12.762010353379996 L3.178050129999985 12.751919207380016 L3.162425129999985 12.73596868637998 L3.1437890629999963 12.723761655379977 L3.119863281000004 12.721238868380002 L3.0958561199999615 12.726854103379996 L3.076813150999964 12.739712176380014 L3.068105468999999 12.73442246238 L3.059316406000004 12.732876238380019 L3.050608723999982 12.734666603379996 L3.0419824220000002 12.739712176380014 L3.0457259109999875 12.72856308738 L3.105214843999999 12.660610613380019 L3.1101790359999875 12.64970566538 L3.105296223999982 12.62236191538 L3.089508463999959 12.590379493380002 L3.069000650999964 12.56059433738 L3.049469400999964 12.539842384379998 L3.035472004999985 12.531053322379993 L3.0227766929999795 12.528449155379977 L2.952871093999999 12.540493426380014 L2.8915917970000002 12.536912697379993 L2.8781640629999963 12.533657488380019 L2.8644108069999668 12.522508400379994 L2.8461816409999976 12.494269467379983 L2.8303125000000016 12.485317644380022 L2.8303125000000016 12.478481707380016 L2.856110025999964 12.474575457380016 L2.8679915359999875 12.459927019380022 L2.874664713999959 12.439012306379997 L2.8850000000000016 12.416307228379996 L2.8676660159999976 12.424608009379998 L2.844065754999985 12.457485613380019 L2.833486328000003 12.464647072379993 L2.7570703129999963 12.460496681379997 L2.7441308590000055 12.461229103379996 L2.7153222659999976 12.470180926380014 L2.6179915359999875 12.483852801380014 L2.5969954429999795 12.49540879038 L2.5930078129999963 12.50354681137998 L2.5833235679999795 12.505825457380016 L2.572093098999982 12.503709572379993 L2.5627343750000016 12.498826759379998 L2.553375650999964 12.486619728379996 L2.554514973999982 12.476854103379996 L2.5627343750000016 12.464647072379993 L2.5559798179999795 12.43168808738 L2.555410156000004 12.423794207380016 L2.5588281250000016 12.412726499379975 L2.5634667970000002 12.408006447379993 L2.5693261720000002 12.40434433738 L2.576487629999985 12.39579941538 L2.5847884109999875 12.37626816538 L2.5833235679999795 12.361619728379996 L2.569000650999964 12.327602801380014 L2.5676171879999963 12.306932228379996 L2.576487629999985 12.297817644380022 L2.590159504999985 12.289598243380002 L2.603261718999999 12.272264259379998 L2.561269531000004 12.219041603379996 L2.5451562500000016 12.211473243380002 L2.485830078000003 12.199347592379983 L2.392324218999999 12.191941993380002 L2.3001204429999795 12.195766863380019 L2.2853906250000016 12.200975197379993 L2.276845703000003 12.205858009379998 L2.2407128909999976 12.218309181379997 L2.2234602859999875 12.228807228379996 L2.215159504999985 12.23596868637998 L2.2058821609999875 12.246222592379983 L2.191152343999999 12.25908066538 L2.1867578129999963 12.266160743380002 L2.185374348999982 12.279751238380019 L2.187815754999985 12.290086525379994 L2.192861328000003 12.295538999379975 L2.1994531250000016 12.299852150379994 L2.2058821609999875 12.306443947379993 L2.2195540359999875 12.348110613380019 L2.221018879999985 12.357876238380019 L2.2216699220000002 12.366990822379993 L2.212718098999982 12.43323431137998 L2.2167871090000055 12.453660743380002 L2.233876953000003 12.464647072379993 L2.215159504999985 12.469367124379975 L2.1902571609999875 12.458462176380014 L2.1664941409999976 12.440395769380022 L2.1513574220000002 12.423794207380016 L2.127268879999985 12.38408066538 L2.1240136720000002 12.372199155379977 L2.1251529949999615 12.365851499379975 L2.1297102859999875 12.352098243380002 L2.1308496090000055 12.344285743380002 L2.1288964840000055 12.340623634379998 L2.124664713999959 12.338344988380019 L2.119863281000004 12.336473243380002 L2.1171777340000055 12.334438738380019 L2.1075748699999615 12.308152931379997 L2.099436848999982 12.297329363380019 L2.0705468750000016 12.28910996238 L2.0613509109999875 12.279425717379983 L2.058909504999985 12.266567644380022 L2.062001953000003 12.252488868380002 L2.0693261720000002 12.244594988380019 L2.0786035159999976 12.24182806137998 L2.0864160159999976 12.236619728379996 L2.0898339840000055 12.221727150379994 L2.0903222659999976 12.208055275379994 L2.0922753909999976 12.197394467379983 L2.0965071609999875 12.18754746238 L2.1035058590000055 12.176723894380022 L2.0888574220000002 12.178514259379998 L2.0829980470000002 12.180223243380002 L2.0755110679999795 12.184129493380002 L2.061269531000004 12.165493426380014 L2.0598860679999795 12.151007749379975 L2.068186848999982 12.137824155379977 L2.0829980470000002 12.12268743637998 L2.0969140629999963 12.104132749379975 L2.1076562500000016 12.06840683738 L2.1171777340000055 12.047003842379983 L2.1496484379999963 12.025193947379993 L2.188141275999964 12.026007749379975 L2.220449218999999 12.021775978379996 L2.233876953000003 11.984910743380002 L2.2294824220000002 11.965867775379994 L2.2101953129999963 11.939907488380019 L2.2058821609999875 11.926886655379977 L2.203440754999985 11.907192644380022 L2.1769108069999668 11.818650978379996 L2.150706379999985 11.774868426380014 L2.145172525999964 11.755337176380014 L2.1360579429999795 11.751430926380014 L2.0898339840000055 11.70439316538 L2.0733951819999668 11.69535996238 L2.0654199220000002 11.689419207380016 L2.062001953000003 11.680467384379998 L2.062001953000003 11.639207618380002 L2.0593977859999875 11.61845566538 L2.052480468999999 11.60120306137998 L2.0278222659999976 11.567186134379998 L1.9992578129999963 11.541307228379996 L1.891266275999964 11.47783066538 L1.9011132810000042 11.46098496238 L1.8952539060000042 11.441209572379993 L1.8701074220000002 11.40198431137998 L1.8570865889999588 11.375454363380019 L1.8328352859999875 11.347785092379983 L1.829824218999999 11.33720566538 L1.8203027340000055 11.324184832380016 L1.7744042970000002 11.286912697379993 L1.7574772139999588 11.279262957380016 L1.7368066409999976 11.272264259379998 L1.7228906250000016 11.256150978379996 L1.7117415359999875 11.237759051380014 L1.7000227859999875 11.22392441538 L1.7255761720000002 11.213182228379996 L1.7403873699999615 11.210089780379977 L1.7509667970000002 11.213670509379998 L1.7587792970000002 11.225145118380002 L1.764313150999964 11.23596868637998 L1.7711490889999588 11.24540879038 L1.7825423179999795 11.251919207380016 L1.7780664060000042 11.262824155379977 L1.7853092449999615 11.271043556379997 L1.8127343750000016 11.289516863380019 L1.8312076819999668 11.311326759379998 L1.8442285159999976 11.322882749379975 L1.8570865889999588 11.326951759379998 L1.8725488280000029 11.319302019380022 L1.8684798179999795 11.308071551380014 L1.8469140629999963 11.289516863380019 L1.8416243489999822 11.281053322379993 L1.839589843999999 11.264207618380002 L1.8366601560000042 11.25745306137998 L1.8322656250000016 11.255011655379977 L1.8210351560000042 11.25395371238 L1.816152343999999 11.251919207380016 L1.7941796879999963 11.233364519380022 L1.7859602859999875 11.223598894380022 L1.7825423179999795 11.213670509379998 L1.7856347659999976 11.170457618380002 L1.7825423179999795 11.155727801380014 L1.7683007810000042 11.136277931379997 L1.7446191409999976 11.126430926380014 L1.7156477859999875 11.12431504038 L1.6857812500000016 11.128384051380014 L1.6948144530000029 11.14417181137998 L1.7000227859999875 11.149461525379994 L1.6878157549999848 11.151902931379997 L1.6773990889999588 11.15629746238 L1.6578678389999588 11.169399676380014 L1.6469628909999976 11.158820249379975 L1.6409407549999848 11.148403582380016 L1.6384993489999822 11.139126238380019 L1.6379296879999963 11.13212754038 L1.6341048179999795 11.123501238380019 L1.6271875000000016 11.11454941538 L1.623688150999964 11.103481707380016 L1.630605468999999 11.088019467379983 L1.6258040359999875 11.08012558738 L1.6135970049999848 11.051235613380019 L1.6075748699999615 11.029100197379993 L1.6067610679999795 11.020962176380014 L1.6101790359999875 11.012498634379998 L1.6203515629999963 11.001756447379993 L1.6261295569999668 10.98954941538 L1.6205957030000029 10.97783066538 L1.5974837239999822 10.951626238380019 L1.5919498699999615 10.949022072379993 L1.5881250000000016 10.945278582380016 L1.5890201819999668 10.936570900379994 L1.5929264319999668 10.935350197379993 L1.600250650999964 10.936652280379977 L1.6069238280000029 10.93714056137998 L1.6100976560000042 10.933152931379997 L1.6132714840000055 10.930141863380019 L1.628652343999999 10.918585874379975 L1.6342675780000029 10.91606308738 L1.6424055989999822 10.914679624379975 L1.6441959639999588 10.911180275379994 L1.6445214840000055 10.90589056137998 L1.6479394530000029 10.898973243380002 L1.6486718750000016 10.891160743380002 L1.6477766929999795 10.860317644380022 L1.651031900999964 10.847785092379983 L1.6647851560000042 10.838507749379975 L1.6884667970000002 10.830206967379983 L1.7125553389999588 10.82548691538 L1.7273665359999875 10.826707618380002 L1.7199609379999963 10.834113217379983 L1.7316796879999963 10.84892441538 L1.7825423179999795 10.88871933738 L1.8256738280000029 10.903286394380022 L1.863922525999964 10.894985613380019 L1.8972070310000042 10.873175717379983 L2.018219400999964 10.769497332380016 L2.0414941409999976 10.73051621238 L2.0558984379999963 10.694790301380014 L2.0792545569999668 10.613247332380016 L2.0829980470000002 10.57353379038 L2.0782779949999615 10.50395371238 L2.0725000000000016 10.488084572379993 L2.0605371090000055 10.465623634379998 L2.066152343999999 10.44926621238 L2.0898339840000055 10.422654884379998 L2.094472656000004 10.382290301380014 L2.0558170569999668 10.251430926380014 L2.044586588999959 10.14457871238 L2.026845703000003 10.101121681379997 L2.020986328000003 10.07939316538 L2.0234277340000055 10.035691993380002 L2.0219628909999976 10.014614519380022 L2.0107324220000002 9.994269467379983 L1.9981998699999615 9.980272072379993 L1.9868066409999976 9.963344988380019 L1.9807845049999848 9.949998634379998 L1.9799707030000029 9.94104681137998 L1.9809472659999976 9.933071551380014 L1.9799707030000029 9.922410743380002 L1.9588118489999822 9.852586525379994 L1.9418847659999976 9.819302019380022 L1.9179589840000055 9.78520371238 L1.8713281250000016 9.734178322379993 L1.863922525999964 9.72001816538 L1.8618066409999976 9.71253118637998 L1.816152343999999 9.655402280379977 L1.7683821609999875 9.612352150379994 L1.7608951819999668 9.596808530379977 L1.754547525999964 9.578579363380019 L1.7392480470000002 9.563279884379998 L1.7062890629999963 9.538133400379994 L1.6673079429999795 9.485887306379997 L1.6388248699999615 9.466762957380016 L1.6288964840000055 9.442023374379975 L1.616933593999999 9.394822853379996 L1.6044824220000002 9.382290301380014 L1.5637109379999963 9.354051368380002 L1.5548404949999615 9.343553322379993 L1.549469400999964 9.330532488380019 L1.4953515629999963 9.253872332380016 L1.4903873699999615 9.250779884379998 L1.4801334639999588 9.22620306137998 L1.476308593999999 9.219774025379994 L1.4633691409999976 9.202602801380014 L1.4422102859999875 9.157762306379997 L1.4318750000000016 9.140916603379996 L1.3622949220000002 9.05595566538 L1.3067936199999615 8.960008400379994 L1.3015852859999875 8.945766863380019 L1.2932845049999848 8.909145769380022 L1.2810774739999822 8.874070900379994 L1.2223209639999588 8.80432806137998 L1.1954654949999615 8.76103379038 L1.1992089840000055 8.723191993380002 L1.1746321609999875 8.698696551380014 L1.1186425780000029 8.609178322379993 L1.1096907549999848 8.58598496238 L1.0912988280000029 8.56645371238 L1.027089843999999 8.469692644380022 L1.0226139319999668 8.459520118380002 L1.0195214840000055 8.43364121238 L1.0109765629999963 8.401902931379997 L1.0068261720000002 8.393602150379994 L1.004547525999964 8.366990822379993 L0.9519759109999875 8.287238217379983 L0.9384667970000002 8.25395371238 L0.9347233069999668 8.214972592379983 L0.9114485679999795 8.13481308738 L0.8487858069999668 8.006883400379994 L0.8422753909999976 7.972785092379983 L0.8400781250000016 7.967820900379994 L0.8354394530000029 7.962693947379993 L0.8308007810000042 7.955695249379975 L0.8286035159999976 7.945278582380016 L0.8278710939999989 7.9346991553799775 L0.8014225259999641 7.852342384379998 L0.8076074220000002 7.852342384379998 L0.8027246090000055 7.839402931379997 L0.8028873699999615 7.8125474623799995 L0.8014225259999641 7.798387306379997 L0.7766829429999795 7.740770118380002 L0.7771712239999822 7.73010931137998 L0.7639062500000016 7.720669207380016 L0.7570703129999963 7.699022072379993 L0.7529199220000002 7.661180275379994 L0.7233789060000042 7.589809832380016 L0.7159733069999668 7.578660743380002 L0.6790266929999795 7.4796210303799775 L0.6747949220000002 7.473191993380002 L0.6554264319999668 7.45471868637998 L0.6511132810000042 7.444871681379997 L0.6482649739999822 7.440233009379998 L0.6300358069999668 7.420945900379994 L0.6088769530000029 7.360643165380001 L0.6031803389999588 7.351528582380016 L0.5927636720000002 7.3418443373799995 L0.5883691409999976 7.333299415380001 L0.5893457030000029 7.310350197379993 L0.5856835939999989 7.3008287123799995 L0.5763248699999615 7.285773374379975 L0.5680240889999588 7.262661394380022 L0.5642805989999822 7.239223894380022 L0.5691634109999875 7.222947853379996 L0.5538639319999668 7.200242775379994 L0.4900618489999822 7.150682228379996 L0.4807845049999848 7.138149676380014 L0.4655664060000042 7.099575457380016 L0.45783528599998746 7.085903582380016 L0.4128320310000042 7.030565040380001 L0.3454492189999989 6.979458269380022 L0.3346256509999641 6.957811134379998 L0.3245345049999848 6.922329363380019 L0.3190006509999641 6.887010353379996 L0.3220930989999822 6.866177019380022 L0.3180240889999588 6.859503842379983 L0.30939778599998746 6.842251238380019 L0.3078515629999963 6.834764259379998 L0.30402669299997953 6.829555926380014 L0.2956445310000042 6.82776556137998 L0.28628580699996675 6.827195900379994 L0.2799381509999641 6.825161394380022 L0.25861653599998746 6.78284368637998 L0.24217773400000553 6.771287697379993 L0.21694986999996146 6.747361915380001 L0.21507812500000156 6.741990822379993 L0.22541341099998746 6.7354804053799775 L0.23176106799997953 6.7207505873799995 L0.23403971399995882 6.704881447379993 L0.23216796899999892 6.694871681379997 L0.2504764879999861 6.687328148379994 L0.2766247630000116 6.671618513380029 L0.30421997800000256 6.659009464380009 L0.34246053700000445 6.648157413379966 L0.41821818699999014 6.581701521380001 L0.4285534739999939 6.5781875243799455 L0.4374418199999859 6.583045108380052 L0.4418859939999997 6.594413923379964 L0.44477987399998753 6.607126326380001 L0.44891398900001533 6.616428084380036 L0.46555379900003047 6.617978377379959 L0.4855009019999663 6.6028888583800445 L0.5034843009999399 6.581598168380058 L0.5144397040000221 6.564544946380028 L0.5172302319999851 6.547698429379967 L0.5184704660000072 6.524857446379958 L0.523638110000018 6.504910343380036 L0.5383142160000141 6.496228702379984 L0.5489595620000038 6.48806382637996 L0.5419315669999882 6.46977036937999 L0.5206408759999981 6.441038272379988 L0.5135095280000535 6.425638695379991 L0.5094787669999725 6.405174828379945 L0.5138195869999542 6.387294783379975 L0.5315962799999845 6.379543318379977 L0.5402779200000332 6.383160668380047 L0.550199796000026 6.389671899380023 L0.5603283759999833 6.3927724843799645 L0.5697334869999615 6.386467960379964 L0.5716971909999806 6.373858910380026 L0.565909431000005 6.361973331380003 L0.5583646720000495 6.351844750379957 L0.5553674389999337 6.344816755380027 L0.559398200000043 6.335411645379981 L0.5648759030000114 6.3316909413799785 L0.5861665919999943 6.331794295379996 L0.6014628160000477 6.3285903563800225 L0.6010494050000368 6.321355655379964 L0.5834794179999783 6.3014085523800425 L0.5807922429999444 6.296137556380007 L0.5827559479999813 6.290143090379988 L0.5888537670000282 6.285802269380003 L0.592884528999928 6.287352563380015 L0.5971219969999986 6.290246443380003 L0.6137618070000137 6.289833032379992 L0.6189294509999961 6.293450382379977 L0.6232702709999778 6.293967146380016 L0.63060832399999 6.283941918379998 L0.6380497300000165 6.204566918380028 L0.6415637280000617 6.201879744379998 L0.6586169509999813 6.184619815380007 L0.6647147700000566 6.18027899537994 L0.6725695869999804 6.1821393463799446 L0.6825948149999981 6.192991397379988 L0.6926200430000158 6.194645043379939 L0.7046089759999852 6.190510928380011 L0.7188716710000556 6.176971703380023 L0.7304471910000068 6.174181176379978 L0.7571122299999722 6.18027899537994 L0.7904952060000134 6.1582648353800415 L0.8017606679999965 6.153097191380045 L0.8215010649999606 6.148756371379964 L0.8316296459999926 6.148963077380021 L0.8428951080000608 6.153097191380045 L0.8568477450000493 6.167980004379988 L0.8683199119999863 6.188443872379953 L0.8814457260000204 6.206633976379994 L0.9008760650000163 6.214488793380017 L0.9259908110000303 6.221413435380004 L0.9350858630000225 6.23877671638002 L0.9348791579999549 6.261307641379947 L0.9321919830000347 6.283941918379998 L0.9370495670000416 6.330760766380013 L0.958236904999989 6.354015160380033 L0.9902762930000044 6.359389509379998 L1.0537349519999673 6.346056989379978 L1.0795731679999783 6.344816755380027 L1.0908386300000181 6.349570987380023 L1.0948693920000316 6.360629743380034 L1.0963163320000255 6.373342146379986 L1.1001403879999536 6.382953962380004 L1.109235440000031 6.395252953380041 L1.1121293210000083 6.405484887380016 L1.1131628490000018 6.415716820380002 L1.1170902579999726 6.428015811380039 L1.1240148990000414 6.438247745380014 L1.1399312409999816 6.457057966379939 L1.1450988840000598 6.468323429379996 L1.1471659420000258 6.489717471380008 L1.1447888259999779 6.517209333379984 L1.136417244000011 6.54077378737998 L1.1205009030000035 6.550902367380022 L1.1036543859999988 6.554726423379979 L1.0862911040000078 6.564751651379996 L1.0732686429999596 6.578084171380016 L1.0693412339999888 6.592450219380016 L1.0775061110000017 6.6105369703800285 L1.104584560999978 6.641749536380008 L1.1103723209999536 6.664487165379999 L1.1181237869999556 6.681333682379975 L1.1547107009999813 6.693322614380026 L1.1656661039999783 6.715336775380013 L1.1593615800000343 6.754610863379984 L1.146855881999965 6.796158715379978 L1.1487162339999593 6.8262343993799455 L1.1860266189999997 6.831505395379981 L1.2302616450000237 6.822100284380017 L1.271706142999971 6.817759464380035 L1.2920666579999924 6.81331529137994 L1.311083584999988 6.805460473379998 L1.3280334549999786 6.80215318238 L1.3431229719999855 6.811558291379956 L1.348497322000025 6.832745629380003 L1.3476704990000137 6.857343611379992 L1.3522180249999671 6.877600772379996 L1.3738187740000107 6.886075707380005 L1.40606486699998 6.894240584380018 L1.4188806219999712 6.893517113379932 L1.428492438999978 6.889486352380022 L1.4483361880000523 6.877497419379967 L1.4591882390000244 6.873053246379971 L1.491434332999983 6.870572777379994 L1.6583492100000221 6.903232282379964 L1.6946260649999765 6.9166681553800125 L1.7284224519999718 6.93568508237998 L1.789193935999986 6.9803335193800145 L1.8275378489999916 6.997903507379991 L1.911563728000015 7.023845075380027 L1.9301672429999819 7.024155135380017 L1.9658239819999714 7.013199731379945 L2.0537772699999657 7.001934268379987 L2.0761014879999315 7.003381208379981 L2.1181661039999646 7.017127140380001 L2.1426607330000245 7.0208478433800146 L2.1620910710000025 7.013613142379956 L2.1698425370000045 7.009168969380045 L2.180797939999973 7.006171736380029 L2.200331630999994 7.003381208379981 L2.2058093339999907 7.001830915380044 L2.214490973999954 6.996869978380008 L2.220072027999958 6.99593980238004 L2.224516201999972 6.998213565379974 L2.2367118399999804 7.0082387933799914 L2.241259366000019 7.010202497380025 L2.2627567620000484 7.004208031379992 L2.2990336170000027 6.9866380453800225 L2.4907531809999846 6.961833357379991 L2.699629320000053 6.988601749379956 L2.7162691319999617 7.002451033380016 L2.7414872310000185 7.037487654380033 L2.752029222999976 7.048236352379963 L2.7590572170000023 7.05040676137995 L2.794093839000009 7.05433417138001 L2.8051525950000205 7.057641462380008 L2.809803473999988 7.061775577379951 L2.826753343999979 7.0813092683799574 L2.865303962999956 7.079448917379953 L2.906645108000003 7.067356632379958 L2.9635925359999753 7.040794945380032 L2.971757412999988 7.033456892380034 L2.9827128159999567 7.017540551380012 L2.988810635000032 7.013819848380013 L3.0216768460000587 7.011442732379965 L3.033459072999971 7.005034854379932 L3.0339758369999963 6.992942569379938 L2.9966654540000484 6.936201847380023 L2.9900508699999584 6.914394392379993 L2.9936682200000284 6.893517113379932 L3.0110315010000583 6.864578311379962 L3.02240031699996 6.85134914437997 L3.035112718000004 6.8416339753799384 L3.049582119000018 6.8406004463799555 L3.0734566310000098 6.857757023380007 L3.0841019769999996 6.859410668380054 L3.0985713780000417 6.853829613380032 L3.1797033760000026 6.835432803380034 L3.2001672429999637 6.827164574379996 L3.217530524999983 6.814658878379991 L3.2279691640000117 6.800189477379963 L3.2568046130000248 6.719987653379977 L3.2629024319999864 6.711306013380014 L3.272514248000004 6.707895368379983 L3.278818774000012 6.704381371380027 L3.2872937090000214 6.685984561380028 L3.2926680569999967 6.677819685380019 L3.3015564029999886 6.668104515379984 L3.3074475169999964 6.660042993379992 L3.3138553950000293 6.6531183503800015 L3.324294034000058 6.647123884379983 L3.3330790280000535 6.644643416379996 L3.433434658999925 6.637925479379977 L3.450694587000026 6.62996730938001 L3.47043498399999 6.616118025379951 L3.493172613999956 6.609090030380035 L3.541438401999965 6.606092797379933 L3.570687263000007 6.598651391380006 L3.6154390539999888 6.562787947379963 L3.641794034000025 6.54966213338 L3.6529561429999653 6.548421898380045 L3.685305590000052 6.552142601379973 L3.695640875999981 6.551212425380019 L3.726750089000017 6.544287784380035 L3.7283003809999506 6.5146255123799826 L3.7283003809999506 6.475144717379951 L3.7283003809999506 6.419127465379933 L3.7283003809999506 6.363006859379983 L3.7283003809999506 6.306989607379965 L3.7281970280000216 6.250972354380028 L3.7280936759999967 6.194851749379996 L3.7280936759999967 6.138731143380031 L3.7280936759999967 6.082713891380013 L3.7280936759999967 6.0265932853799775 L3.7280936759999967 5.970472680380016 L3.7280936759999967 5.914558780380023 L3.7280936759999967 5.858438175379991 L3.7280936759999967 5.802317569380026 L3.727990322999954 5.746300317380008 L3.727990322999954 5.690179711379972 L3.727990322999954 5.634059106380011 L3.727990322999954 5.578041853380004 L3.727990322999954 5.522127953380011 L3.727990322999954 5.466007347380046 L3.727990322999954 5.409886742380014 L3.727886970000025 5.353869490379996 L3.7277836170000107 5.297748884379946 L3.7277836170000107 5.241628278379995 L3.7277836170000107 5.185611026379977 L3.7277836170000107 5.129593774379959 L3.7277836170000107 5.0734731683800085 L3.7277836170000107 5.0174559163799906 L3.727680264999986 4.9613353103799405 L3.727680264999986 4.905318058380008 L3.727680264999986 4.849197452379972 L3.727680264999986 4.793180200379954 L3.727680264999986 4.737059594380003 L3.727576911999943 4.681042342379985 L3.727473559000014 4.625025089380049 L3.727473559000014 4.568904484380003 L3.727473559000014 4.512887231379995 L3.727473559000014 4.456766626379949 L3.727473559000014 4.400749372380023 L3.727473559000014 4.344628767379977 L3.727370204999982 4.28861151438004 L3.727370204999982 4.232490909380008 L3.727370204999982 4.1764736563799865 L3.727370204999982 4.1204564043799685 L3.727370204999982 4.064335798380018 L3.727266852999957 4.0082151933799715 L3.727163500000028 3.952197940380035 L3.727163500000028 3.896077335380003 L3.727163500000028 3.8400600823799813 L3.727163500000028 3.7840428303799634 L3.727163500000028 3.7409291563799947 L3.727163500000028 3.728025577379942 L3.727163500000028 3.671904972379995 L3.727163500000028 3.61578436638003 L3.727163500000028 3.559767114380012 L3.7270601470000138 3.503646508379976 L3.7270601470000138 3.4476292563800435 L3.7270601470000138 3.3916120033799366 L3.7270601470000138 3.3354913983799896 L3.7270601470000138 3.279370792380025 L3.7270601470000138 3.223353540380007 L3.7270601470000138 3.167336286379996 L3.726956793999971 3.1112156813799494 L3.7268534409999567 3.0551984283800273 L3.7268534409999567 2.999077823379981 L3.7268534409999567 2.9429572173800302 L3.7268534409999567 2.8869399653800123 L3.72654338299996 2.8744342683800035 Z M12.725942389999982 7.030976423380057 L12.670958666000029 6.981470401380012 L12.63075440199999 6.919148624379989 L12.61793864600001 6.905506045379983 L12.604110438000031 6.894931532379989 L12.603882656999996 6.894757347379969 L12.588793139 6.886695825379977 L12.57303339500005 6.881475409380048 L12.57225668000002 6.88121812237998 L12.541044115000016 6.876257185379945 L12.532775885999978 6.870676130380009 L12.503733730999993 6.8224103423799995 L12.488954270999965 6.811454939380017 L12.444615891999927 6.810421410380034 L12.434073900999959 6.79636542138002 L12.4268392 6.7553343343799845 L12.420741381000038 6.735697289380031 L12.41164632899996 6.719160831380041 L12.398313808999955 6.705001488379995 L12.379400235000002 6.692702498380047 L12.364517422999977 6.694356143380009 L12.307569993999987 6.728462588379973 L12.287726244000009 6.732700056380029 L12.148509935999964 6.740864933380042 L12.128046069000003 6.748409692379997 L12.10861572999995 6.765566267379956 L12.081537278999985 6.806597354380006 L12.06231364599996 6.821996931379989 L12.042159837999986 6.8288182203800325 L12.01900879599999 6.831505395379981 L11.99596110700001 6.829334984379987 L11.97580729899995 6.821480167380049 L11.963212902999981 6.822593160380027 L11.909144700999956 6.827371280380039 L11.90004964900005 6.824270694380008 L11.89012777399996 6.836673038379974 L11.876795253999955 6.851245792379945 L11.849200040000039 6.887005883380045 L11.84599610099998 6.892793644380024 L11.801657722000026 6.934444848380043 L11.76383057399995 6.978783227379996 L11.759593105999993 6.986741398379952 L11.75990316399999 6.994492862380046 L11.758662929999968 7.000383975379965 L11.749774584000033 7.002657739380073 L11.722592780999957 7.002657739380073 L11.711327317999984 6.997593448380005 L11.702025560000049 6.987051456380033 L11.69013998199993 6.977439640380016 L11.671329760000031 6.975372582379965 L11.656757005999975 6.982710635379963 L11.648695482000061 6.99593980238004 L11.642390957999975 7.011752790380047 L11.63308920000004 7.026842309380047 L11.606424160999989 7.037384301380005 L11.492529304000026 7.030563012380046 L11.499867358000028 7.047409529380037 L11.489170336000011 7.055160993380031 L11.473409024000045 7.059915225380028 L11.465244148000021 7.067873396379998 L11.465140795000007 7.081722679379968 L11.464107266000024 7.089784203380038 L11.461781826999992 7.095158553380006 L11.459559739999985 7.0983624913799765 L11.458474534999976 7.101463077380021 L11.458422857999988 7.108801130380019 L11.456769213000012 7.112935245380033 L11.452738451000027 7.112625186379962 L11.447984220000034 7.111281599379996 L11.444160163999992 7.112521834380022 L11.42483317800004 7.137016462379979 L11.412585863000015 7.148591983380019 L11.40013184299995 7.153449568379958 L11.384267178000027 7.157273624379986 L11.388866380999968 7.166472029379992 L11.401372076999973 7.1777374913800465 L11.41005371800004 7.18765936637995 L11.403697516999994 7.188692895379933 L11.394447435 7.192827010379947 L11.38948649799995 7.194480655379994 L11.382613532999965 7.18765936637995 L11.375843920000033 7.194480655379994 L11.379575876 7.212981625379999 L11.380701505000058 7.218561873380029 L11.358067227000003 7.255768904379952 L11.300809741000034 7.317367211379992 L11.29357503999999 7.320881209379952 L11.283343106 7.324291853379965 L11.273266201999956 7.32956284938 L11.266599942000038 7.3384511953800065 L11.266083178000013 7.3480630123800275 L11.272336026000016 7.3713174073799514 L11.273989671999953 7.382892927379988 L11.264016119999962 7.390334333380014 L11.255783187000002 7.392694036380025 L11.214975186000014 7.404390323379932 L11.198387052000026 7.413588728379938 L11.195389818000006 7.421650251380019 L11.193426113999987 7.444904646380028 L11.190945646 7.453896345379977 L11.18123047599995 7.465471866379932 L11.17192871799993 7.469916039380028 L11.162730312999951 7.472603214379962 L11.153738614000002 7.479011091380006 L11.151361498000039 7.485935734379982 L11.155392260000024 7.491723493379968 L11.161283372999957 7.497924666380033 L11.16417725300003 7.505779483379985 L11.162730312999951 7.518491886380023 L11.15880290399998 7.52448635237997 L11.15218832100005 7.528827172379952 L11.110640468999986 7.568618025379951 L11.099581712999974 7.584224307379987 L11.095344245000017 7.602207706379975 L11.089969896999957 7.606445174380031 L11.066508795999976 7.605514998379977 L11.061134447000011 7.609132348379962 L11.059170742999992 7.620604515379984 L11.054209805000038 7.631146508380031 L11.047595222000052 7.640034854380051 L11.04540333600006 7.642060688379974 L11.040773933000008 7.64633937937997 L11.008217781000052 7.663082544380021 L10.986927090000062 7.6709373613800445 L10.958815111000018 7.676001651379938 L10.940935065999962 7.684579939379962 L10.930806485000016 7.68788723037996 L10.901454272000034 7.690574405379994 L10.873238938999986 7.7004962803799835 L10.86786459100001 7.703700219379957 L10.835515143999924 7.733569197379968 L10.830967617999999 7.736359724380026 L10.822802740999986 7.733259138379982 L10.820218919999984 7.727057967379995 L10.817118334000025 7.7218903233799985 L10.807299810999961 7.722097029379956 L10.801925462999986 7.726334496380009 L10.794277351000016 7.742457543379988 L10.787456062000057 7.750002303379947 L10.778050951000022 7.738116723380006 L10.76750895899995 7.738116723380006 L10.759964199999995 7.74752183437997 L10.759550788999984 7.763644880380031 L10.747251798000047 7.788449568379978 L10.755313321000028 7.791860212380005 L10.769627693000029 7.801988793380051 L10.782753506999978 7.808396671379999 L10.796086026000022 7.818731958380003 L10.825231534000022 7.857075870380019 L10.83375814500003 7.871958683379976 L10.83375814500003 7.872062035380001 L10.833861498999976 7.872062035380001 L10.916446874000012 8.043436382379983 L10.943932298999993 8.100471866380051 L10.963052578999974 8.120005557379972 L11.011008307999997 8.155248885379951 L11.025271002999983 8.175402692380022 L11.038810228000056 8.222841658380009 L11.04552816499999 8.236897647379937 L11.05787883200004 8.253537458379956 L11.067128913000044 8.256741397380015 L11.079531257000024 8.254157576380013 L11.10175212300005 8.254157576380013 L11.117048347000019 8.257878279380026 L11.126453457999968 8.264596215379957 L11.125626633999968 8.274518090380045 L11.110640468999986 8.287747257379952 L11.088781338000029 8.334876163379949 L11.090641690000052 8.363504906380019 L11.112914233000009 8.417351749379964 L11.111260586999958 8.43295803138 L11.122112637999987 8.434094913380012 L11.122804538000036 8.434264853380032 L11.142731533999989 8.43915920337999 L11.152911790999962 8.440502790379956 L11.159939785999978 8.439469261379973 L11.18112712300002 8.431821150379992 L11.197198492999984 8.432027855380046 L11.204484870999988 8.438539086380008 L11.211822924000057 8.463033715379968 L11.222571621999986 8.478226586379993 L11.23828125700005 8.48959540137999 L11.274764818000062 8.504168155380047 L11.278460632999963 8.515365924379996 L11.28168945999995 8.525148786379948 L11.307837734999975 8.547473005380017 L11.331918952999995 8.576928571380012 L11.335226243999994 8.585816918379937 L11.335743008999952 8.594808617379972 L11.337396653999985 8.60380031738001 L11.343701179000004 8.61227525238002 L11.404627691999973 8.652479516380044 L11.458629565000034 8.705706241380003 L11.488705248000013 8.722242699379994 L11.523535162999973 8.731647810380043 L11.565496426000049 8.736505395379982 L11.575521655 8.735058455379988 L11.594641933999991 8.726893578379961 L11.60332357500003 8.725653344380024 L11.614899095999998 8.729063989379956 L11.62337402999999 8.734851748380027 L11.631228849000035 8.741673038379975 L11.64073731200001 8.748184268379948 L11.66068441500003 8.75686590938 L11.681665047000035 8.762757023380008 L11.799797371000022 8.771645369380014 L11.823878587999967 8.780740420379988 L11.824085294000025 8.761206729379982 L11.821604824999962 8.745187035380031 L11.820933031999981 8.728960636380027 L11.826669115000026 8.708806827379949 L11.83312866999999 8.699505069380013 L11.84144857499994 8.69433742638002 L11.849975187000052 8.69030666438002 L11.857933357000018 8.684415551380017 L11.865943203000011 8.675320499380039 L11.869353848000014 8.669222680379992 L11.886303718000033 8.62271389037996 L11.887543952000055 8.614549015380039 L11.884340013999985 8.604627139380032 L11.87266114000003 8.587057153379977 L11.87049073000004 8.579202335380035 L11.87834554799998 8.56731675538001 L11.963301601999955 8.509335798379954 L11.976530769000032 8.49579657337998 L11.983558763999962 8.474195824380008 L11.980871589000014 8.451354841379999 L11.969192715999963 8.442466495379978 L11.954516608999977 8.436575382379988 L11.943561204999991 8.42303615738 L11.945731615999971 8.404432640379955 L11.96113119200005 8.389343123380048 L11.982111823999968 8.378284366380033 L12.000405281000024 8.37187648838 L12.029809171000021 8.368155785379987 L12.039472663000037 8.364435082379988 L12.046397305000038 8.358440616379955 L12.05879964899999 8.342730980379987 L12.068101407000011 8.336633161380025 L12.083759365999992 8.322990584380012 L12.100692856999967 8.295181111379964 L12.109184170999992 8.281236026379975 L12.128976245000057 8.266146508379979 L12.153057462000003 8.262839216379977 L12.201323250000012 8.268937035380024 L12.226024584000026 8.261288924379958 L12.269432787000039 8.238654646380002 L12.285659186000043 8.235244001379986 L12.302402350999994 8.236897647379937 L12.35097819799999 8.253227400379973 L12.384774583999967 8.253434105380013 L12.474588222999966 8.223771834379964 L12.540734056999963 8.211369489379994 L12.605122890999933 8.188321801380031 L12.721394864000029 8.12186590937998 L12.760882838000025 8.10052854738004 L12.839217129999962 8.058200544379975 L12.851412768000056 8.053446312379979 L12.87787110100005 8.046625024379939 L12.889343269000062 8.041664087379989 L12.895751145999991 8.033085798379961 L12.893374029999972 8.023267276379986 L12.882418626999975 8.004043643379962 L12.880248216999984 7.989987654380034 L12.880868333999967 7.981099307380024 L12.878077806999993 7.973967959379994 L12.865468756999984 7.965389672380045 L12.850896003000013 7.9475096263800005 L12.851412768000056 7.923531762379984 L12.857407233999975 7.89707342937999 L12.858696252999959 7.874791819379997 L12.858854173999969 7.872062035380001 L12.877509366000037 7.8421930573799905 L12.890170091999988 7.813874373379992 L12.906396490999992 7.788862979379989 L12.935438645999977 7.7688125233800385 L13.012436530000013 7.7480385983799955 L13.023701992999985 7.735532902380005 L13.023495287000014 7.718996443380011 L13.02504558000005 7.7033901603800565 L13.041375332999973 7.693571638379996 L13.02711263699997 7.6780687083799855 L13.020239671999956 7.654194197379997 L13.020295534000024 7.650235976379964 L13.020601407000026 7.6285626863800395 L13.027836106999995 7.607582055380039 L13.048920091000024 7.5887718343800294 L13.077135424000016 7.577919783379986 L13.106901048999998 7.569858259379988 L13.133256028999948 7.559729679379945 L13.14462484500002 7.552288273380018 L13.152996427000016 7.543399926379994 L13.157647305999955 7.5322378173799684 L13.156975511999985 7.517768415379937 L13.15883586299999 7.502058780380057 L13.177336025999988 7.478907739379981 L13.18100505299999 7.46433498538001 L13.177904465999983 7.458547224380045 L13.164571946999967 7.4469717033800045 L13.160127774000056 7.440873884379943 L13.159094245999949 7.433639183379984 L13.160024422000003 7.41834296038002 L13.159094245999949 7.412245141380058 L13.148965664000013 7.3906443923800005 L13.121060391000025 7.357468122379988 L13.110104986999954 7.322224796380002 L13.102560229000016 7.305274926379997 L13.088814298000056 7.2917357013800235 L13.07315633899999 7.281297061379991 L13.061942553000062 7.2693081293800255 L13.056878262000009 7.2117405833799815 L13.026492520000044 7.200578474379956 L12.986494961999949 7.199648298380001 L12.953525398000021 7.1908633053800095 L12.871049812000006 7.114382185380027 L12.836633308000028 7.100532901379967 L12.814102384000005 7.095261905380031 L12.800873217000014 7.087303734379976 L12.795085456000049 7.074591333380017 L12.794775397999967 7.054954288379992 L12.785628669999976 7.04492906038006 L12.764079597000016 7.0359373603800215 L12.74051514400001 7.030252953379975 L12.725942389999982 7.030976423380057 Z M21.40754231799998 24.95048691538 L21.439931640999998 24.943976499379975 L21.473623047 24.947231707380016 L21.566152344 24.96611191538 L21.613515625 25.004035092379983 L21.640859375 25.011847592379983 L21.630035806999967 25.03837754038 L21.608876953000003 25.062791603379996 L21.581533203000003 25.080613868380002 L21.551585285999987 25.087693947379993 L21.543203125 25.086473243380002 L21.526194660999987 25.08134629038 L21.415273437999996 25.077928322379993 L21.400136719 25.080206967379983 L21.363922525999964 25.076300717379983 L21.347158203000003 25.070604103379996 L21.332509765999998 25.060350197379993 L21.327626953000003 25.052700457380016 L21.321767578000003 25.03870306137998 L21.32046549499996 25.02543808738 L21.338694660999987 25.013963478379996 L21.360504556999967 24.99068873838002 L21.369944660999987 24.98531764438002 L21.376210937999996 24.98051621238 L21.397451172 24.958055275379994 L21.40754231799998 24.95048691538 Z M21.606191406000004 24.758104103379996 L21.610016275999964 24.736131447379993 L21.645498047 24.72164576938002 L21.690664062999996 24.720262306379997 L21.722890625 24.73759629038 L21.721507160999987 24.766649025379994 L21.68374674499996 24.77633326938002 L21.636220703000003 24.771613217379983 L21.606191406000004 24.758104103379996 Z" fill="black" stroke="black" stroke-width="0.5" vector-effect="non-scaling-stroke"/></svg>