<svg xmlns="http://www.w3.org/2000/svg" viewBox="0 0 0.5412245849110917 0.49694951207997917"><path d="M0.12824435638150078 0.4920774580399794 L0.100726656381525 0.45993471704003497 L0.09707684589342591 0.45746046804295304 L0.06855807738149622 0.4381272630399238 L0.0538302933814947 0.4247947420399072 L0.04695732838142419 0.4088784020399743 L0.05261589738144323 0.39161847303998343 L0.06525078538147966 0.37652895503997996 L0.07514682238148396 0.36061261403995815 L0.0722271033814792 0.3410789230399516 L0.0603932003814549 0.3260927580399766 L0.031144340381516145 0.3038718910399467 L0.017785982381482768 0.29136619503994865 L0.005306123381487282 0.2726593260399639 L0.00675306438149903 0.26211733403999204 L0.03739718838151873 0.24020652604003345 L0.050755545381448997 0.22315330404000377 L0.04899854738145848 0.20971743203995885 L0.04261650738153833 0.1953513830399558 L0.042203096381527416 0.17612775003993875 L0.052900117381526 0.15990135103992742 L0.07106438438147222 0.14884259503992325 L0.10953748738141655 0.13282290003996877 L0.12661654838144898 0.11969708603999862 L0.13129326638151895 0.10708803703997205 L0.12287000738145082 0.07432517903997393 L0.12222405238146905 0.04931378603997416 L0.1354790573814597 0.039805322039988766 L0.4483281773814696 0.0357745610399931 L0.4520488803814686 0.017687809039983904 L0.46269422638148683 0.010866520039932936 L0.49509534938148647 0.004872054039999796 L0.48441603800580424 0.04263659223912697 L0.47469046513481317 0.1245455948195513 L0.5090066678988165 0.15473340682316206 L0.5359184615296044 0.20803831717609 L0.5335972977918431 0.287089245454645 L0.45982540811280614 0.3531330063314613 L0.3965923598164949 0.4145416648132283 L0.12824435638150078 0.4920774580399794 Z" fill="black" stroke="black" stroke-width="0.5" vector-effect="non-scaling-stroke"/></svg>