<svg xmlns="http://www.w3.org/2000/svg" viewBox="0 0 1.857548828040052 1.4672460942599947"><path d="M1.3577294920200842 0.8948779296300291 L1.356508789020026 0.8932096356300168 L1.358461914020026 0.8932096356300168 L1.3577294920200842 0.8948779296300291 Z M0.3637516270200507 1.4447233076300154 L0.36521647102004806 1.4426074216300027 L0.3692041010200313 1.4396777346299974 L0.3715641270200507 1.44016601563 L0.3723779290200895 1.4422005206299833 L0.3723779290200895 1.4427294926300238 L0.3714013670200842 1.4461474606300317 L0.36700683602008155 1.4522509766300278 L0.36391438802000664 1.4528613286299947 L0.36114746102008155 1.4509895836300348 L0.3613916010200313 1.448222656629996 L0.3637516270200507 1.4447233076300154 Z M0.02016438802000664 1.1205045576300154 L0.01821126302000664 1.1172493486299846 L0.019838867020084194 1.1149707036299947 L0.028302409020042774 1.1113085936300013 L0.030581054020089482 1.1128955076300304 L0.02447753902002603 1.1199755856300317 L0.02016438802000664 1.1205045576300154 Z M0.3559391270200507 0.9568896486300265 L0.3508935540200895 0.9561165366300362 L0.3491845700200287 0.9530240886300181 L0.34942871102008155 0.9489550786299947 L0.3535791010200313 0.9452929686300013 L0.35650878902002603 0.9451708986300265 L0.3603336590200428 0.9484667966300027 L0.3617985020200507 0.95188476563 L0.3559391270200507 0.9568896486300265 Z M0.45473470002001193 0.7649951176300238 L0.45221191402002603 0.7603564456300251 L0.4551416010200313 0.7543750006299934 L0.4575016270200507 0.7540087896300225 L0.4602685540200895 0.7557177736300265 L0.4614892580200234 0.7600716146299806 L0.45896647102004806 0.764628906629996 L0.45473470002001193 0.7649951176300238 Z M0.35431152302008684 0.7645068356300317 L0.34942871102008155 0.7598274736299846 L0.34869628902002603 0.7549446616300362 L0.3508935540200895 0.7538053386300181 L0.3569156900200454 0.7583626306300335 L0.3583805340200428 0.7615364586300348 L0.3574853510200313 0.7643033856300168 L0.35431152302008684 0.7645068356300317 Z M0.4453759760200313 0.7440397136300181 L0.4407373040200895 0.7425748696300207 L0.44049316402002603 0.737936197630022 L0.44244628902002603 0.7357389326300154 L0.44545735602001457 0.7351692706299833 L0.44887532502001193 0.7365527346299974 L0.4503401690200093 0.7396451826300154 L0.4453759760200313 0.7440397136300181 Z M1.8211083980200868 0.3977669276300322 L1.821922200020012 0.39817382862999473 L1.8245263670200842 0.40293457063002514 L1.8232242840200428 0.4046435546300291 L1.8209456380200066 0.40492838563001676 L1.815493164020026 0.4056201176300238 L1.8089013670200842 0.41152018263001544 L1.8051578770200507 0.40903808563003174 L1.8033675130200066 0.40468424463002073 L1.8051578770200507 0.3980517576300304 L1.8084130860200816 0.3972786456299833 L1.8186669920200842 0.3963834636300181 L1.8211083980200868 0.3977669276300322 Z M1.8308740230200868 0.30918457063002514 L1.8242822260200313 0.30833007862999473 L1.8207828770200507 0.30466796863000134 L1.8201318360200816 0.30059895863003483 L1.8217594400200454 0.2989306646300225 L1.832013346020048 0.29966308563003174 L1.8352685540200895 0.30108723962998063 L1.8357568360200816 0.30116861963002073 L1.8393375650200454 0.3059700526300322 L1.8374658200200287 0.30898111963002073 L1.8362451170200842 0.30995768263001544 L1.8308740230200868 0.30918457063002514 Z M0.2691064450200287 0.09194010463001412 L0.2621891270200507 0.08884765662999605 L0.26275878902002603 0.08652832063002514 L0.2691064450200287 0.08233723962998063 L0.27325683602008155 0.08168619763002205 L0.2774072260200313 0.08575520863003483 L0.27358235602001457 0.09137044262998195 L0.2691064450200287 0.09194010463001412 Z M1.0089339190200093 0.025249023630026457 L1.0043766270200507 0.024720052630032185 L0.9996565750200119 0.019145507630030423 L1.0006331380200066 0.016459960630031745 L1.0029117840200428 0.017070312629998696 L1.0112939450200287 0.014384765630000018 L1.0121891270200507 0.017802734629997374 L1.0108870440200093 0.02309244763002205 L1.0089339190200093 0.025249023630026457 Z M0.3518701170200842 1.365255533629993 L0.3504866530200701 1.3623258466299877 L0.35333496102008155 1.3632617186300013 L0.3518701170200842 1.365255533629993 Z" fill="black" stroke="black" stroke-width="0.5" vector-effect="non-scaling-stroke"/></svg>