<svg xmlns="http://www.w3.org/2000/svg" viewBox="0 0 2.279228515199975 3.9839599609800374"><path d="M2.2425602205999553 2.776688639990031 L2.245001627600004 2.7925170899900458 L2.25525553359995 2.82787679099005 L2.2568831375999707 2.8487101239900348 L2.251186522599994 2.888464355990042 L2.2051253255999654 3.047196451990036 L2.20252115859995 3.0635538739900348 L2.2015445955999553 3.0852010099900475 L2.198126627600004 3.10326741599005 L2.1837223306000055 3.1311401369900445 L2.180548502600004 3.143591308990043 L2.1748518875999707 3.1606811529900405 L2.155483397599994 3.190832519990014 L2.1463688145999527 3.2050333659900083 L2.153204752600004 3.2293660489900198 L2.142218424600003 3.2582153329900088 L2.048061522599994 3.406490071989996 L2.0166487625999707 3.4377807619900445 L1.958624674600003 3.478755696989996 L1.9396630855999888 3.484411621990038 L1.9142724605999888 3.4979614259900167 L1.7286442056000055 3.6432250979900154 L1.6915348306000055 3.663244628990018 L1.5710107415999914 3.705887858990028 L1.5709293615999513 3.705887858990028 L1.5693017575999875 3.691442871990038 L1.5692203776000042 3.690588378990018 L1.5620589185999734 3.684973144990014 L1.56189615859995 3.6850138349900057 L1.5602685545999861 3.685420735990025 L1.5542464185999734 3.6870483399900458 L1.550421549600003 3.69506429099005 L1.548468424600003 3.7119099939899947 L1.5430159505999654 3.7182576499899973 L1.5342268875999707 3.7206176759900167 L1.522589517599954 3.725744628990018 L1.5008610026000042 3.7388061529900405 L1.4791324865999513 3.7483276369900445 L1.3750472005999654 3.7705851239900348 L1.3245914705999553 3.7878377279899986 L1.2692529295999861 3.7978474939899947 L1.2440250645999527 3.8075317389900114 L1.2288883455999553 3.8287719729900154 L1.2017887365999513 3.8234822599900475 L1.1851057935999734 3.829870605990042 L1.1756656895999527 3.8335327149900458 L1.1371728515999848 3.861893717990032 L1.0986800125999707 3.8902140299900374 L1.0809391276000042 3.910721842990032 L1.0400048825999875 3.908321126990021 L1.0399235026000042 3.9082804369900295 L1.02283365859995 3.910721842990032 L1.0094873045999861 3.91576741599005 L0.9957340496000029 3.92357991599005 L0.9714013665999914 3.941727701990036 L0.9644026685999734 3.94335530599 L0.9574039705999553 3.9449015299900374 L0.94080240859995 3.938513183990043 L0.92322428359995 3.929479980990042 L0.9131331375999707 3.9264282229900154 L0.9061344395999527 3.9243530279900405 L0.8482731115999513 3.9311889649900458 L0.8317529295999861 3.927974446989996 L0.823370767599954 3.919714355990042 L0.8179996746000029 3.9088500979900154 L0.8137679035999668 3.9025024419900127 L0.8105940755999654 3.897741699990039 L0.7936669915999914 3.907548014990031 L0.7785302725999941 3.908687337990049 L0.7515934246000029 3.9048217779900405 L0.7451643875999707 3.9038859049900374 L0.7403629556000055 3.901770019990014 L0.7370263665999914 3.897049967990032 L0.7327945955999553 3.892370605990042 L0.7249820955999553 3.8902140299900374 L0.7203434246000029 3.8918416349900475 L0.7166813145999527 3.895096842990032 L0.7127750645999527 3.897863769990014 L0.7075667315999681 3.8977010099900475 L0.7057763665999914 3.89623616599005 L0.7041487625999707 3.8948120119900445 L0.6978011065999681 3.8858194989900348 L0.69470865859995 3.883947753990018 L0.6938948565999681 3.8834594729900154 L0.6938948565999681 3.883378092990032 L0.6868147785999668 3.880895996990038 L0.6440901685999734 3.8656372079900088 L0.6265934246000029 3.8620564779899986 L0.6141422526000042 3.8594523119900295 L0.5924137365999513 3.8420776369900445 L0.5875309246000029 3.839717610990025 L0.5779280595999694 3.8350789389900264 L0.5777652996000029 3.834997558990043 L0.5704410806000055 3.8424438479900154 L0.5518050125999707 3.827469889990031 L0.4703434246000029 3.741491699990039 L0.4636702465999747 3.7362833659900083 L0.46358886659999143 3.7362426759900167 L0.46285644459999276 3.735306803990003 L0.4605777996000029 3.7325805669900127 L0.4593570955999553 3.728389485990025 L0.45968261659999143 3.719885253990018 L0.45715983060000553 3.7154907229900154 L0.45374186159995133 3.711055501990021 L0.44470865859995 3.6992960619900295 L0.39856608060000553 3.6022908529899986 L0.39661295560000553 3.5930135099900475 L0.39661295560000553 3.592932128990018 L0.3968570955999553 3.5846313479900154 L0.39710123659995133 3.5763305669900127 L0.39710123659995133 3.5762491869900295 L0.3953922526000042 3.5712036139900114 L0.3870914705999553 3.553991699990039 L0.37862792959998615 3.5073201499899973 L0.3602360026000042 3.4745239259900167 L0.3486800125999707 3.427608235990025 L0.34444824159999143 3.4104370119900445 L0.3423323565999681 3.408768717990032 L0.33801920560000553 3.4061645509900167 L0.33354329359997337 3.4022583009900167 L0.33077636659999143 3.3967651369900445 L0.33191568959995266 3.3909057619900445 L0.3367985026000042 3.389481608990028 L0.34192545560000553 3.390051269990014 L0.3420068355999888 3.390051269990014 L0.34444824159999143 3.389929199990039 L0.3367985026000042 3.3374796549900374 L0.3361474605999888 3.333288574990039 L0.3153141276000042 3.280065917990047 L0.22962076759995398 3.0614379889900114 L0.21603027259999408 2.9859171549900374 L0.21472818959995266 2.9784301759900167 L0.21472818959995266 2.906490071989996 L0.21586751259997072 2.9036824549900224 L0.22579589759999408 2.8799601239900348 L0.22840006459995266 2.868566894990014 L0.2281559246000029 2.8569702149900458 L0.2281559246000029 2.856766764990031 L0.18030436159995133 2.6879028329900088 L0.18689615859995 2.663122558990043 L0.18657063759997072 2.6783813479900154 L0.1903141276000042 2.687984212990049 L0.1956852205999553 2.6953898119900295 L0.20040527259999408 2.704138183990043 L0.21000813759997072 2.737626139990031 L0.21472818959995266 2.7456827799900374 L0.2209130855999888 2.7456827799900374 L0.22237792959998615 2.736120605990042 L0.22522623659995133 2.73209228599001 L0.22774902259999408 2.7314412439899947 L0.22783040359996676 2.7314412439899947 L0.22840006459995266 2.7320109049900374 L0.2281559246000029 2.701411946989996 L0.2281559246000029 2.701208496990038 L0.22595865859995 2.687821451990036 L0.2209130855999888 2.676794433990043 L0.21619303359995 2.67357991599005 L0.20300943959995266 2.670731608990028 L0.19715006459995266 2.666825358990028 L0.19649902259999408 2.665441894990014 L0.19291829359997337 2.658239746990038 L0.19454589759999408 2.6503051759900167 L0.19837076759995398 2.642899576990036 L0.20040527259999408 2.6358194989900348 L0.1512516276000042 2.2788452149900458 L0.14514811159995133 2.2659057619900445 L0.1492985026000042 2.261511230990042 L0.15239095059996544 2.261063639990031 L0.15955240859995 2.2659057619900445 L0.16118001259997072 2.248612467990032 L0.16614420560000553 2.228552246990038 L0.16736490859995 2.2189493819900044 L0.16858561159995133 2.209305826990036 L0.1629703776000042 2.1942504889900114 L0.15540201759995398 2.180456542990047 L0.1539371746000029 2.171301269990014 L0.15247233060000553 2.162145996990038 L0.1525537105999888 2.1252807619900445 L0.12952311159995133 2.0131795249899973 L0.12683756459995266 2.000240071989996 L0.11495605459998615 1.9756225589900431 L0.10486490859995001 1.9239054369900295 L0.08850748659995133 1.8830932619900445 L0.06336100260000421 1.7703409839900281 L0.06336100260000421 1.7383178719900378 L0.06743001259997072 1.7401489259900167 L0.06767415359996676 1.7404337569900044 L0.06799967460000289 1.7407185879900489 L0.06799967460000289 1.7417358399900458 L0.07019693959995266 1.7451538089900431 L0.07377766859997337 1.72655843099 L0.06848795560000553 1.6674763999899973 L0.06336100260000421 1.649572753990018 L0.07979980459998615 1.6388305669900127 L0.09534342460000289 1.6189331059900418 L0.10657389259995398 1.5962687179900321 L0.11104980459998615 1.5772257489900348 L0.1156070955999553 1.564774576990036 L0.14514811159995133 1.5185913089900431 L0.14482259059997205 1.5193644209900334 L0.12993001259997072 1.5542358399900458 L0.11104980459998615 1.5874796549900374 L0.11520019459999276 1.595576985990025 L0.11625813759997072 1.5975708009900167 L0.12366373659995133 1.604895019990014 L0.13334798159996808 1.6087198899900308 L0.14514811159995133 1.6086385099900475 L0.13546386659999143 1.6358194989900348 L0.1253727205999553 1.6557576499899973 L0.12097818959995266 1.6592163089900431 L0.11633951759995398 1.6597045899900458 L0.11267740859995001 1.6625122079900088 L0.11104980459998615 1.6731323249900392 L0.11194498659995133 1.6967732749899973 L0.11104980459998615 1.7041381839900431 L0.0941227205999553 1.7577270509900167 L0.09477376259997072 1.7676554369900295 L0.0960758455999553 1.7875122079900088 L0.11357259059997205 1.8081420899900458 L0.11853678359995001 1.8140014649900458 L0.09851725260000421 1.8555053719900378 L0.13041829359997337 1.8784952799900374 L0.17680501259997072 1.8821166999900392 L0.20040527259999408 1.865555826990036 L0.19592936159995133 1.8477335619900295 L0.1883610026000042 1.8337768559900418 L0.18543131459995266 1.828446451990036 L0.1818505855999888 1.8240519209900334 L0.17298014259995398 1.8129842129900489 L0.1629703776000042 1.80663655599 L0.16004068959995266 1.7958129889900114 L0.1937320955999553 1.73209228599001 L0.19243001259997072 1.7205362959900334 L0.18811686159995133 1.7119913739900348 L0.18315266859997337 1.7048299159900502 L0.1800602205999553 1.6973429369900295 L0.17924641859997337 1.6852986659900502 L0.18038574159999143 1.6645467129900489 L0.1800602205999553 1.6560017909900502 L0.1800602205999553 1.6557576499899973 L0.1794905595999694 1.6541300459900334 L0.17680501259997072 1.6470092779900405 L0.17517740859995 1.6455444339900431 L0.17322428359995 1.643713378990018 L0.17127115859995 1.6396443689900515 L0.17322428359995 1.6284545899900458 L0.1779443355999888 1.6189737959900334 L0.1910465496000029 1.6019653329900088 L0.1937320955999553 1.5908976239900348 L0.19584798159996808 1.56998291099001 L0.20520670560000553 1.528112792990047 L0.21472818959995266 1.430456542990047 L0.22083170560000553 1.419348144990014 L0.2274235026000042 1.4138549809900418 L0.23246907559996544 1.4072224939900515 L0.2345849605999888 1.3926147469900378 L0.2345849605999888 1.350988769990014 L0.24036295560000553 1.3305623379900489 L0.25395345059996544 1.3174194339900431 L0.2700667315999681 1.3065551759900167 L0.28308756459995266 1.29263916099001 L0.28471516859997337 1.2877156579900237 L0.29464355459998615 1.2571166999900392 L0.296027017599954 1.2558146159900083 L0.29675943959995266 1.2551228849900475 L0.29895670560000553 1.2461710619900295 L0.3082340496000029 1.2261515299900374 L0.31710449159999143 1.1288208009900167 L0.29301595059996544 1.066727701990036 L0.29496907559996544 1.0559448249900392 L0.29675943959995266 0.9851440429900471 L0.29675943959995266 0.9841674809900418 L0.29431803359995 0.9605265299900374 L0.2913883455999553 0.9488891609900101 L0.2861800125999707 0.9401000979900154 L0.2821110026000042 0.9300903329900088 L0.2913883455999553 0.9251261399900308 L0.30481608060000553 0.9226440429900471 L0.3136865225999941 0.9199584969900378 L0.37171061159995133 0.8680786139900114 L0.4019840496000029 0.8533081059900418 L0.4145979815999681 0.8423624679900321 L0.42127115859995 0.8180297859900101 L0.4332340496000029 0.7930053719900378 L0.44006998659995133 0.7582153329900088 L0.47221516859997337 0.67577718099 L0.47335449159999143 0.6712198899900308 L0.4763655595999694 0.6591756189900515 L0.48255045560000553 0.6348022469900378 L0.48255045560000553 0.5766967779900405 L0.4847477205999553 0.5681925459900334 L0.4827945955999553 0.5624552409900083 L0.4710758455999553 0.5602172859900101 L0.44348795560000553 0.5459757489900348 L0.432745767599954 0.5360473639900114 L0.4259912105999888 0.5172485359900101 L0.4248518875999707 0.5138305669900127 L0.42005045560000553 0.4903930669900127 L0.4195621746000029 0.4770874029900405 L0.43152506459995266 0.4645955409900502 L0.4536604815999681 0.4536499029900405 L0.47823730459998615 0.4458780929900321 L0.4984195955999553 0.4429077149900458 L0.5074527996000029 0.43830973399002815 L0.5294254556000055 0.40941975999004754 L0.5319482415999914 0.4075480149900308 L0.5357731115999513 0.4046183269900361 L0.5430973306000055 0.4003051759900167 L0.55213053359995 0.39696858799004886 L0.563605142599954 0.39517822299001537 L0.55408365859995 0.37776285899002815 L0.5483870435999734 0.3701131189900515 L0.5426090496000029 0.362463378990018 L0.5278792315999681 0.34805908299000876 L0.5084293615999513 0.3336547859900101 L0.4344547526000042 0.2906046549900374 L0.4195621746000029 0.2722534179900471 L0.45178873659995133 0.27327067099003344 L0.48230631459995266 0.285396321989996 L0.5425276685999734 0.3200642909900502 L0.5999820955999553 0.33438720799000876 L0.6151188145999527 0.343990071989996 L0.6388004556000055 0.36449788499004754 L0.6446598306000055 0.3753214519900361 L0.6324527996000029 0.38150634799001537 L0.6351383455999553 0.3883422859900101 L0.6387190755999654 0.39517822299001537 L0.6324527996000029 0.4019327799900374 L0.6325341795999861 0.40197347099001846 L0.653448892599954 0.4159301759900167 L0.7028466795999861 0.4039672859900101 L0.7931787105999888 0.36844482499003917 L0.817511392599954 0.3707641609900101 L0.8708154295999861 0.3853312179900321 L0.9337223306000055 0.4134073899900308 L0.9811669915999914 0.4224405929900321 L0.9813297526000042 0.4224405929900321 L0.9132958975999941 0.37621663499004754 L0.8898583975999941 0.365474446989996 L0.8690250645999527 0.3609985359900101 L0.8659326165999914 0.35957438199000435 L0.8629215496000029 0.3581502279899986 L0.844855142599954 0.34455973399002815 L0.8380192056000055 0.3405721029899986 L0.831183267599954 0.3395141609900101 L0.8229638665999914 0.33992106199002947 L0.8105940755999654 0.3405721029899986 L0.8027815755999654 0.3435424809900418 L0.8016422526000042 0.3452514649900458 L0.7994449865999513 0.34887288499004754 L0.7955387365999513 0.35086669999003917 L0.7822737625999707 0.3411417649900308 L0.7769840496000029 0.34024658299000876 L0.7445133455999553 0.34110107499003917 L0.7352360026000042 0.3384155279900405 L0.6641097005999654 0.27738037199003784 L0.6335921215999747 0.25780843098999995 L0.6335107415999914 0.25780843098999995 L0.6226057935999734 0.2530476889900264 L0.5711735026000042 0.23074951199004445 L0.5526188145999527 0.22012939499001405 L0.540167642599954 0.21996663499004754 L0.5425276685999734 0.24429931699001273 L0.5494449865999513 0.2514607749899973 L0.5601871746000029 0.2595581059900418 L0.5665348306000055 0.2694458009900167 L0.5601871746000029 0.2822224939900515 L0.5526188145999527 0.2845011399900308 L0.5452945955999553 0.2805948899900308 L0.5386214185999734 0.2750610359900101 L0.5194156895999527 0.2651733399900458 L0.4820621746000029 0.23290608799004886 L0.4605777996000029 0.22379150399001801 L0.46065917959998615 0.22387288499004754 L0.4715641276000042 0.23575439499001405 L0.4912581375999707 0.25260009799001537 L0.5021630855999888 0.264807128990018 L0.47791178359995 0.26016845799000876 L0.4539860026000042 0.25028076199004445 L0.4058902996000029 0.22379150399001801 L0.3675602205999553 0.19392496799003212 L0.3447737625999707 0.18594970799000876 L0.34249511659999143 0.1845662439900515 L0.33386881459995266 0.1790323899900308 L0.3258121746000029 0.17581787199003784 L0.3245914705999553 0.18289794999003917 L0.313605142599954 0.17545166099001008 L0.3094547526000042 0.1658081059900418 L0.3075016276000042 0.15429280598999995 L0.3035953776000042 0.14127197299001537 L0.29700358060000553 0.13016357499003917 L0.29309733060000553 0.1251180019900211 L0.2828434246000029 0.11185302799004049 L0.2762516276000042 0.10033772798999863 L0.2978987625999707 0.08959554099005018 L0.33728678359995 0.0535034179900471 L0.35502766859997337 0.0456909179900471 L0.3551090496000029 0.0456909179900471 L0.4332340496000029 0.05252685599004181 L0.47400553359995 0.048010253990018015 L0.48889811159995133 0.049719238990011405 L0.49475748659995133 0.06306559299003212 L0.4937809246000029 0.08402099699003784 L0.49671061159995133 0.0913045249899973 L0.50525553359995 0.09407145199003608 L0.5135563145999527 0.09525146499004578 L0.5374820955999553 0.10135498099004181 L0.5425276685999734 0.10404052799004049 L0.5470035806000055 0.11282958999004578 L0.557745767599954 0.11246337899001801 L0.5662093095999694 0.10989990299004049 L0.569464517599954 0.10892333999004578 L0.5743473306000055 0.10823160899002815 L0.5777652996000029 0.10774332699003608 L0.5778466795999861 0.10778401699002771 L0.5855777996000029 0.11225992899000303 L0.5889143875999707 0.1141723639900114 L0.6169091795999861 0.14436442099003344 L0.7051253255999654 0.23941650399001801 L0.7362125645999527 0.2587849939900515 L0.8083154295999861 0.2917439779899986 L0.8105940755999654 0.2927205409900502 L0.8105940755999654 0.2853149419900127 L0.7742985026000042 0.2671264649900458 L0.6864078776000042 0.19587809299003212 L0.614386392599954 0.11356201199004445 L0.5777652996000029 0.09411214199002771 L0.5203922526000042 0.08064371799003212 L0.50525553359995 0.0699015299900374 L0.50330240859995 0.054724121990037844 L0.5242985026000042 0.0456909179900471 L0.5311344395999527 0.044551595990018455 L0.5519677725999941 0.04109293699002947 L0.5933902996000029 0.03905843098999995 L0.6133284505999654 0.04276123099004181 L0.6271630855999888 0.05240478599001008 L0.6363590496000029 0.08511962899001801 L0.6455550125999707 0.09879150399001801 L0.776495767599954 0.251135253990018 L0.7957828776000042 0.2651733399900458 L0.8348453776000042 0.2872680669900127 L1.110968424600003 0.508947753990018 L1.1120263665999914 0.5107381189900515 L1.1190250645999527 0.5223754889900114 L1.13025553359995 0.5362101239900348 L1.15173990859995 0.5562296549900374 L1.16541178359995 0.5737670899900458 L1.1532861325999875 0.58007405599 L1.1532047526000042 0.5801147469900378 L1.1463688145999527 0.5770629889900114 L1.1455550125999707 0.5766967779900405 L1.1453922526000042 0.5766560879900489 L1.1348942056000055 0.5632283529899986 L1.1291162105999888 0.5602986659900502 L1.1290348306000055 0.5602172859900101 L1.110968424600003 0.5572875979900154 L1.1030745435999734 0.5596476239900348 L1.1069807935999734 0.5676228849900475 L1.1082828776000042 0.5701456709900334 L1.1602034505999654 0.6180786139900114 L1.1804671215999747 0.6291056319900044 L1.1805485026000042 0.629146321989996 L1.1724918615999513 0.6167358399900458 L1.167609049600003 0.6053833009900167 L1.1701318355999888 0.5970011399900308 L1.1839664705999553 0.5937866219900378 L1.1904768875999707 0.5981404629900489 L1.2010563145999527 0.629146321989996 L1.2107405595999694 0.6482299809900418 L1.2487451165999914 0.7234659839900281 L1.2410953776000042 0.7206583659900083 L1.219936522599994 0.71288655599 L1.206671549600003 0.7126424159900502 L1.2010563145999527 0.7268839519900361 L1.2088688145999527 0.7305053719900378 L1.225144856599968 0.7331502279899986 L1.23963053359995 0.74218343099 L1.2397932935999734 0.7434041349900475 L1.2419091795999861 0.765051269990014 L1.2420719395999527 0.765051269990014 L1.2487451165999914 0.765051269990014 L1.2520817056000055 0.7593139649900458 L1.255092772599994 0.7568318689900515 L1.2585107415999914 0.7552042649900308 L1.26306803359995 0.7520304369900295 L1.26306803359995 0.7521118169900127 L1.2681949865999513 0.7719685879900489 L1.268764647599994 0.7744506839900431 L1.2829248045999861 0.8064737959900334 L1.301886392599954 0.8352010099900475 L1.3211735026000042 0.84765218099 L1.3226383455999553 0.8488321939900096 L1.3249169915999914 0.850744628990018 L1.3248356115999513 0.8577433269900361 L1.3201969395999527 0.8647827149900458 L1.3109195955999553 0.8680786139900114 L1.308234049600003 0.8651489259900167 L1.2972477205999553 0.84765218099 L1.2852848306000055 0.8413859049900374 L1.2578597005999654 0.8343872079900088 L1.2419091795999861 0.8271443689900515 L1.249233397599994 0.8372355149900308 L1.25330240859995 0.8428507489900348 L1.2894352205999553 0.876379394990014 L1.2897607415999914 0.8954223639900114 L1.3016422526000042 0.903723144990014 L1.3015608715999747 0.9038045249899973 L1.2909000645999527 0.9136108399900458 L1.2814599605999888 0.9247192389900114 L1.281541340599972 0.924759928990003 L1.2972477205999553 0.9370076499899973 L1.3141748045999861 0.9357055669900127 L1.3280094395999527 0.9228881839900431 L1.3382633455999553 0.9050659179900471 L1.344936522599994 0.8885864259900167 L1.34509928359995 0.88866780599 L1.3812320955999553 0.9319213869900445 L1.413295897599994 0.9864868169900127 L1.4263981115999513 0.99999593099 L1.44470865859995 1.005285644990014 L1.4593570955999553 1.017004394990014 L1.4808414705999553 1.0686401369900445 L1.4862939445999928 1.0742960619900295 L1.4920719395999527 1.0803588869900445 L1.4921533195999928 1.080399576990036 L1.516730142599954 1.09146728599001 L1.5290185545999861 1.1174682619900445 L1.5430973306000055 1.1697550459900334 L1.5456201165999914 1.16015218099 L1.5488753255999654 1.1564086919900127 L1.554327799600003 1.157629394990014 L1.5544091795999861 1.1576700849900057 L1.564093424600003 1.1629191089900281 L1.5611637365999513 1.1725219729900154 L1.588995767599954 1.2026326499899973 L1.5982731115999513 1.217565917990047 L1.598191731599968 1.2355916349900475 L1.5908675125999707 1.2428344729900154 L1.5804508455999553 1.2475952149900458 L1.5709293615999513 1.2585408529899986 L1.5710921215999747 1.2584594729900154 L1.5783349605999888 1.256628417990047 L1.5858219395999527 1.2547159839900281 L1.5876936845999694 1.2536987309900418 L1.591437174600003 1.2517049159900502 L1.5915185545999861 1.2517862959900334 L1.6131656895999527 1.29849853599001 L1.616339517599954 1.3228312179900321 L1.5915185545999861 1.3268188479900154 L1.591437174600003 1.3268188479900154 L1.5965641276000042 1.3107055669900127 L1.5898909505999654 1.2977661139900114 L1.5788232415999914 1.2959350589900431 L1.5709293615999513 1.3131469729900154 L1.57361490859995 1.326493326990036 L1.5806949865999513 1.3359741219900378 L1.5846012365999513 1.3461059579900088 L1.5771956375999707 1.361568196989996 L1.5713362625999707 1.35709228599001 L1.5604313145999527 1.3486694339900431 L1.5430973306000055 1.3380493169900127 L1.5256005855999888 1.3340616869900295 L1.508917642599954 1.3410603849900475 L1.4959781895999527 1.3583129889900114 L1.500535481599968 1.3673461919900127 L1.5159977205999553 1.3649861659900502 L1.5368310545999861 1.3479370119900445 L1.5511539705999553 1.3630330409900502 L1.564093424600003 1.3811401369900445 L1.579718424600003 1.3962361659900502 L1.6016910806000055 1.4025024419900127 L1.647670897599994 1.4016072599900475 L1.663214517599954 1.3918416349900475 L1.6529606115999513 1.3684041349900475 L1.6792464185999734 1.3564819339900431 L1.6896630855999888 1.3533081059900418 L1.7007307935999734 1.3540812179900321 L1.700812174600003 1.3541625979900154 L1.7129378255999654 1.3610799159900502 L1.72400553359995 1.3727986659900502 L1.7323063145999527 1.3864705409900502 L1.739386392599954 1.4265096029899986 L1.755011392599954 1.4780232749899973 L1.755499674600003 1.4914510099900475 L1.7559879556000055 1.5049194339900431 L1.743292642599954 1.49608968099 L1.7300276685999734 1.4695597339900281 L1.718390299600003 1.4639444989900348 L1.717983397599994 1.4711873379900489 L1.7227848306000055 1.5036580409900502 L1.723191731599968 1.5061401369900445 L1.7286442056000055 1.5185913089900431 L1.7353173825999875 1.521724446989996 L1.741420897599994 1.524572753990018 L1.74158365859995 1.524572753990018 L1.755092772599994 1.524572753990018 L1.7658349605999888 1.5293741869900295 L1.7721826165999914 1.5676228849900475 L1.779832356599968 1.5941528329900088 L1.7811344395999527 1.5985473639900114 L1.7832503255999654 1.6147827149900458 L1.7832503255999654 1.6148640959900185 L1.786342772599994 1.625240071989996 L1.807176106599968 1.6951049809900418 L1.8150699865999513 1.7406372079900088 L1.7969222005999654 1.765498860990025 L1.7969222005999654 1.76562093099 L1.7868310545999861 1.7244018559900418 L1.7853662105999888 1.7185831709900334 L1.7701481115999513 1.6768351239900348 L1.762823892599954 1.6768351239900348 L1.7616031895999527 1.7085327149900458 L1.762823892599954 1.7185017909900502 L1.7620914705999553 1.718176269990014 L1.761359049600003 1.721024576990036 L1.761359049600003 1.7211059579900088 L1.761359049600003 1.7260701499899973 L1.762823892599954 1.73209228599001 L1.766160481599968 1.73599853599001 L1.774624022599994 1.7385620119900445 L1.7747054035999668 1.738602701990036 L1.7764143875999707 1.7417358399900458 L1.78455240859995 1.7626912439900515 L1.80213053359995 1.7754679369900295 L1.8022119135999901 1.7754679369900295 L1.8189762365999513 1.7740844729900154 L1.8248356115999513 1.7526000979900154 L1.8309391276000042 1.7526000979900154 L1.83728678359995 1.7640747079900088 L1.838995767599954 1.7671671549900374 L1.8472151685999734 1.8032592779900405 L1.8555973306000055 1.8171346029899986 L1.8667464185999734 1.829260253990018 L1.8739078776000042 1.8410603849900475 L1.8862776685999734 1.8692993169900127 L1.891160481599968 1.864416503990018 L1.897589517599954 1.859615071989996 L1.9005192056000055 1.8550170899900458 L1.9049137365999513 1.8643351239900348 L1.9005192056000055 1.8692993169900127 L1.9027164705999553 1.8728800459900334 L1.9046695955999553 1.875240071989996 L1.9049951165999914 1.8758504239900198 L1.9061344395999527 1.8778442389900114 L1.906785481599968 1.8823201499899973 L1.9068668615999513 1.882238769990014 L1.9118310545999861 1.8781697599900475 L1.9220849605999888 1.873286946989996 L1.9272932935999734 1.8692993169900127 L1.9272932935999734 1.869380696989996 L1.9296533195999928 1.87499593099 L1.9325016276000042 1.8818318689900515 L1.9303857415999914 1.8899291999900392 L1.926886392599954 1.8979858399900458 L1.9270491535999668 1.9042114259900167 L1.9272932935999734 1.9102335619900295 L1.9342919915999914 1.9236612959900334 L1.94666178359995 1.9330607099900057 L1.954718424600003 1.9392049159900502 L1.962042642599954 1.9512084969900378 L1.9574039705999553 1.951493326990036 L1.9550439445999928 1.9530802409900083 L1.9520328776000042 1.9551147469900378 L1.9501611325999875 1.9562947599900475 L1.9482893875999707 1.9574340829900088 L1.9453597005999654 1.9683390299900374 L1.9424300125999707 1.9792439779899986 L1.9541487625999707 2.01334228599001 L1.9604964185999734 2.0205851239900348 L1.9748193355999888 2.0369425459900334 L1.9749820955999553 2.0369425459900334 L1.9961409505999654 2.0331176759900167 L2.0029768875999707 2.0331176759900167 L2.0098942056000055 2.053991699990039 L2.017788085599989 2.066890462990049 L2.0202294915999914 2.070878092990032 L2.063361002600004 2.1156372079900088 L2.077277017599954 2.137487792990047 L2.079718424600003 2.156815592990032 L2.0575830075999875 2.1634480799900224 L2.057501627600004 2.163488769990014 L2.0472477205999553 2.156571451990036 L2.022670897599994 2.1255249029900405 L2.0098128255999654 2.1144978849900475 L1.9932112625999707 2.108435058990043 L1.9930485026000042 2.108435058990043 L1.991339517599954 2.1085978189900096 L1.9795393875999707 2.109615071989996 L1.9691227205999553 2.1201944989900348 L1.962042642599954 2.142370605990042 L1.97400553359995 2.147782389990031 L1.985561522599994 2.1494099939900515 L1.99548990859995 2.1457478849900475 L2.0029768875999707 2.135534667990047 L2.014777017599954 2.139929199990039 L2.025600585599989 2.145300292990047 L2.0293440755999654 2.149694824990039 L2.0318668615999513 2.1527465829900088 L2.0303206375999707 2.163488769990014 L2.0435856115999513 2.175817871990038 L2.056850585599989 2.1881469729900154 L2.067267252600004 2.200028483990028 L2.0781722005999654 2.218094889990031 L2.0780908195999928 2.2181355799900224 L2.0729638665999914 2.224035644990014 L2.07166178359995 2.229772949990039 L2.073370767599954 2.236649576990036 L2.0781722005999654 2.24608968099 L2.0843570955999553 2.2385620119900445 L2.080613606599968 2.2249715169900277 L2.080613606599968 2.2248901369900445 L2.0924137365999513 2.2290405279900405 L2.1156070955999553 2.24608968099 L2.1211409505999654 2.2540649419900127 L2.139532877600004 2.300655110990025 L2.138393554599986 2.3026489259900167 L2.1326969395999527 2.3279581709900334 L2.1335107415999914 2.3307250979900154 L2.133673502600004 2.3311319989900348 L2.138393554599986 2.3408162439899947 L2.139532877600004 2.3447224939899947 L2.135626627600004 2.351599121990038 L2.1284651685999734 2.35709228599001 L2.124152017599954 2.3631958009900167 L2.1292789705999553 2.3720662439899947 L2.13416178359995 2.3784545899900458 L2.135870767599954 2.3834594729900154 L2.13611490859995 2.384110514990031 L2.1390445955999553 2.389807128990018 L2.1463688145999527 2.396276855990042 L2.135626627600004 2.4040079759900017 L2.1366031895999527 2.4077921549900374 L2.137579752600004 2.4116577149900458 L2.145636392599954 2.4133260099900475 L2.15369303359995 2.4030721029899986 L2.159877929599986 2.4030721029899986 L2.1599593095999694 2.403112792990047 L2.167609049600003 2.4434366869900295 L2.16736490859995 2.458288574990039 L2.1675276685999734 2.458288574990039 L2.174363606599968 2.458288574990039 L2.174363606599968 2.4579223639900114 L2.17517740859995 2.443924967990032 L2.1776188145999527 2.4300903329900088 L2.181850585599989 2.418290201990036 L2.188035481599968 2.40990804099005 L2.188035481599968 2.403112792990047 L2.1874658195999928 2.401525878990018 L2.185268554599986 2.3952596029899986 L2.1870589185999734 2.3921264649900458 L2.192592772599994 2.3944458009900167 L2.2015445955999553 2.4030721029899986 L2.2046370435999734 2.410965983990028 L2.2069156895999527 2.4321655279900405 L2.222296549600003 2.456457519990014 L2.247280272599994 2.5415405279900405 L2.2425602205999553 2.776688639990031 Z M2.1053531895999527 2.208166503990018 L2.1036442056000055 2.1976684579900088 L2.0997379556000055 2.1895304369900295 L2.094936522599994 2.1795206709900334 L2.0916813145999527 2.169714355990042 L2.0921695955999553 2.159338378990018 L2.0952620435999734 2.15014241599005 L2.096564127600004 2.1404581709900334 L2.0916813145999527 2.1288208009900167 L2.0916813145999527 2.128698730990042 L2.1045393875999707 2.1411499029900405 L2.116827799600003 2.1699991869900295 L2.125861002600004 2.18334554099005 L2.128058267599954 2.18912353599001 L2.1373356115999513 2.2139444989900348 L2.1616682935999734 2.2523559579900088 L2.1728987625999707 2.2700561529900405 L2.1898258455999553 2.3572550459900334 L2.1898258455999553 2.3573364259900167 L2.189174804599986 2.377274576990036 L2.174363606599968 2.389440917990047 L2.1602848306000055 2.3784138999899973 L2.155971679599986 2.3738972989900198 L2.153937174600003 2.3718221029899986 L2.1532861325999875 2.36685791099001 L2.152553710599989 2.361893717990032 L2.1527164705999553 2.359859212990049 L2.1568668615999513 2.296911621990038 L2.153937174600003 2.275183105990042 L2.1429508455999553 2.2659057619900445 L2.1388004556000055 2.256994628990018 L2.1053531895999527 2.208166503990018 Z M0.08069498659995133 0.7930053719900378 L0.06954589759999408 0.7886515299900374 L0.06458170560000553 0.7790486659900502 L0.06775553359995001 0.7694458009900167 L0.08069498659995133 0.765051269990014 L0.1253727205999553 0.765051269990014 L0.14514811159995133 0.7700968429900321 L0.16557454359997337 0.7753051759900167 L0.20821777259999408 0.7914184579900088 L0.2489078776000042 0.8148559579900088 L0.28308756459995266 0.84765218099 L0.2830061845999694 0.8476114909900083 L0.2666487625999707 0.8442342129900489 L0.23784016859997337 0.83007405599 L0.2209130855999888 0.8271443689900515 L0.2468733715999747 0.8564412439900515 L0.26729980459998615 0.8795532229900154 L0.2762516276000042 0.8954223639900114 L0.2523258455999553 0.8924112959900334 L0.2367008455999553 0.8804484049900374 L0.22595865859995 0.867427571989996 L0.21790201759995398 0.8612426759900167 L0.20756673159996808 0.8560343429900321 L0.1663883455999553 0.8196573899900308 L0.1459619135999901 0.8106241869900295 L0.12553548159996808 0.8015909839900281 L0.11056152259999408 0.797562662990007 L0.10258626259997072 0.7954060879900489 L0.08069498659995133 0.7930053719900378 Z M0.09737792959998615 0.36844482499003917 L0.08940266859997337 0.37601318399004313 L0.08126464759999408 0.3835815429900471 L0.05603678359995001 0.38504638699004445 L0.03259928359995001 0.37735595799000876 L0.022345377600004213 0.3647420249899973 L0.022345377600004213 0.3237670899900458 L0.025275064599952657 0.3132690429900471 L0.031866861599951335 0.3146118169900127 L0.03870279960000289 0.3230346679900471 L0.04285318959995266 0.3336547859900101 L0.06010579359997337 0.339025878990018 L0.08069498659995133 0.3405721029899986 L0.08582193959995266 0.3442749029900405 L0.09737792959998615 0.36844482499003917 Z M0.26241699159999143 0.251135253990018 L0.2469547526000042 0.2400268559900418 L0.23149251259997072 0.21711832699003608 L0.2072412105999888 0.16922607499003917 L0.21830891859997337 0.15209554099005018 L0.22083170560000553 0.13016357499003917 L0.22709798159996808 0.11238199899003476 L0.2489078776000042 0.10774332699003608 L0.26046386659999143 0.11120198599002507 L0.2606266276000042 0.11124267599001669 L0.26160318959995266 0.11966552799004049 L0.25769693959995266 0.13142496799003212 L0.255011392599954 0.14501546299004886 L0.25541829359997337 0.1587280279900405 L0.2568831375999707 0.16967366599005018 L0.256964517599954 0.17032470799000876 L0.25785970059996544 0.17252197299001537 L0.26127766859997337 0.1804565429900471 L0.2658349605999888 0.18562418699002947 L0.26941568959995266 0.18969319698999598 L0.2736474605999888 0.1907511399900308 L0.29301595059996544 0.18969319698999598 L0.29627115859995 0.19266357499003917 L0.2977360026000042 0.20767822299001537 L0.30017740859995 0.21390380899004313 L0.3115706375999707 0.22102457699003608 L0.3270328776000042 0.22757568399004313 L0.33997233060000553 0.23485921299004886 L0.3410302725999941 0.23713785899002815 L0.34444824159999143 0.24429931699001273 L0.3375309246000029 0.25137939499001405 L0.32434733060000553 0.2514607749899973 L0.3101871746000029 0.24710693399004313 L0.30017740859995 0.24088134799001537 L0.29309733060000553 0.2391723639900114 L0.27511230459998615 0.24967041099001008 L0.2624983715999747 0.251135253990018 L0.26241699159999143 0.251135253990018 Z" fill="black" stroke="black" stroke-width="0.5" vector-effect="non-scaling-stroke"/></svg>