<svg xmlns="http://www.w3.org/2000/svg" viewBox="0 0 0.33078613259998235 0.3216137693400327"><path d="M0.26508382129997443 0.21604370117000116 L0.2858764642999674 0.21645060217002055 L0.30394287029997 0.22226928717002892 L0.31781819629997443 0.23520874017003024 L0.32587483629998104 0.25705932617000116 L0.32705484929999074 0.2660925291700025 L0.3275431312999828 0.28928588817000644 L0.32587483629998104 0.2979935701700285 L0.3207478832999797 0.310119221169991 L0.31671956330000484 0.31435099217002715 L0.29857177730001894 0.31846069317003156 L0.2521443682999731 0.3148392741700192 L0.2379435212999894 0.2782995601700051 L0.24567464130000616 0.23618530217003553 L0.26508382129997443 0.21604370117000116 Z M0.21385498029996342 0.15338094016998838 L0.2274861652999718 0.16078653917002583 L0.23948974529997002 0.1771439611700245 L0.23957112629999955 0.19370483317003817 L0.21727294829997135 0.20180216417002583 L0.20457763629996606 0.1935013831700232 L0.19383544829997135 0.15582234616999102 L0.1740193682999731 0.14402221617000777 L0.16095784430000748 0.12986206017000512 L0.1517618812999828 0.1266882321700038 L0.12026774029998677 0.12839721617000777 L0.10736897729997708 0.1266882321700038 L0.0755900062999828 0.11431844016998838 L0.03270263629996606 0.08884643517000512 L0.0032430012999995483 0.056701253170039934 L0.011177571299974431 0.02427124017003024 L0.015083821299974431 0.020853271170032883 L0.01776936829997311 0.019022216170007766 L0.020739745299970025 0.01792358317003817 L0.025459797300008802 0.016824951170001157 L0.03766682930000087 0.011820068170031561 L0.041979980299963415 0.008890380170036849 L0.04474690730000219 0.0031530761700011567 L0.1443562823000022 0.060444742170027155 L0.16885172429999074 0.08575398716998706 L0.18618570929998413 0.12676961216998706 L0.1974568682999731 0.14548706017000512 L0.21385498029996342 0.15338094016998838 Z" fill="black" stroke="black" stroke-width="0.5" vector-effect="non-scaling-stroke"/></svg>