<svg xmlns="http://www.w3.org/2000/svg" viewBox="0 0 0.2568676750800307 0.39627929627998526"><path d="M0.24816446853999707 0.35150065014001797 L0.2426306145400332 0.35589518214001004 L0.23831746354001382 0.3607779941400153 L0.23530639654002528 0.36627115813998756 L0.23392293254001117 0.37261881513997963 L0.24889689053999575 0.3782340491399836 L0.2543493645400332 0.3794547521399849 L0.23103393553999751 0.3878776041400087 L0.2033239745400266 0.39239420513998624 L0.17720092754002792 0.39052246014002634 L0.15880900053998914 0.3794547521399849 L0.18021199454001646 0.3568717441400153 L0.1916052245400266 0.34730957014001973 L0.2072302245400266 0.338520507140025 L0.21886759353999707 0.33559082014001973 L0.23774780254002792 0.33355631513997963 L0.25158243753999443 0.3372998041400237 L0.24816446853999707 0.35150065014001797 Z M0.12532104454000148 0.24969401014001136 L0.16361043254001117 0.27313151014001136 L0.14985717754002792 0.3028759761400224 L0.10981811454003321 0.3313590491399836 L0.052851968539997074 0.36155110614000563 L0.0406042475400028 0.3643994131399708 L0.028437906539991786 0.35894694013997963 L0.02119506754003453 0.34612955714001004 L0.024043375539989142 0.3381949861399889 L0.024002685539997515 0.3311962881399708 L0.008011474540026597 0.32110514313998095 L0.0027624505400041244 0.308776041140014 L0.01924194254003453 0.29363932214001665 L0.05635131754003453 0.2695914711399823 L0.07083699454001646 0.23020345014000299 L0.06233276353999884 0.19089680914000695 L0.014114989540033207 0.10951660114002237 L0.010941161540031885 0.09332194013997963 L0.008011474540026597 0.057311197140016645 L0.0025183105399975148 0.041157226140022374 L0.0032100415400151405 0.031554361139988885 L0.011429442540034529 0.01975423114000563 L0.021683349540026597 0.010883788139970818 L0.03283243753999443 0.004943033139987563 L0.044469807540011175 0.0038850911399990196 L0.05635131754003453 0.009500325140002985 L0.03779663054002924 0.01918457014001973 L0.027420653540005446 0.028990885140011358 L0.027949625539989142 0.039244791140014 L0.042109781539991786 0.05047526014001136 L0.0587927245400266 0.05609049414001532 L0.09431518553999751 0.06199055914000695 L0.14578816654001514 0.09145019514001973 L0.14741577154002528 0.10125651014001136 L0.14680541954000148 0.11492838514001136 L0.14310261954001646 0.127135416140014 L0.12975626553999575 0.13669759113999902 L0.12532104454000148 0.14605631513997963 L0.11876993753999443 0.1554557291400087 L0.10725463853999884 0.15972819013997963 L0.10151733354003056 0.1576123041400237 L0.09883178654003189 0.15289225213998492 L0.09712280254002792 0.14817220014000299 L0.0939489745400266 0.14605631513997963 L0.08695027654000853 0.14678873613998888 L0.06941284154000016 0.15289225213998492 L0.05553751553999575 0.14923014313998095 L0.048905028540005446 0.15053222614002237 L0.048945718539997074 0.15972819013997963 L0.05334025053998914 0.1652213541400087 L0.059403075540004124 0.16607584613998227 L0.06526245054000412 0.16558756513997963 L0.07319702154002528 0.16868001214000827 L0.07905639654002528 0.16876139313998095 L0.08540405254002792 0.16949381513997963 L0.09053100554002924 0.17340006513997963 L0.09236206053999751 0.18015462214000166 L0.0894323725400028 0.18499674414001532 L0.08524129154001514 0.1884554031400043 L0.08308471654000016 0.19134440014001797 L0.08308471654000016 0.23236002514001797 L0.08735717754002792 0.24501464814002105 L0.09793660454000985 0.24883951813998095 L0.12532104454000148 0.24969401014001136 Z" fill="black" stroke="black" stroke-width="0.5" vector-effect="non-scaling-stroke"/></svg>