<svg xmlns="http://www.w3.org/2000/svg" viewBox="0 0 0.3426147462000131 0.8115258791400066"><path d="M0.26918741810001734 0.35186889707001257 L0.2548645021000482 0.36545939206997247 L0.23675740510000765 0.39557006907001124 L0.22076619410003673 0.40647501706997247 L0.22821248310000897 0.40647501706997247 L0.22076619410003673 0.41392130607000155 L0.2156392411000354 0.4065970870700042 L0.20770467110000368 0.40199910506999714 L0.19757283510003276 0.4000052900700055 L0.18597615510000765 0.40024943107000155 L0.18597615510000765 0.39280314206997247 L0.20086873310000897 0.39736043306999846 L0.2235738111000103 0.3929252120700042 L0.22361450210004818 0.38486857107000816 L0.21698201510000104 0.37750366206996233 L0.21393025710003144 0.372376709069961 L0.22223103810003408 0.36448282906997775 L0.25006306910003673 0.34690470406997775 L0.26170043909999663 0.33754598006999714 L0.26312459310000236 0.3414115400700055 L0.2635721841000134 0.345032959069961 L0.26495564710003805 0.34849161807000684 L0.26918741810001734 0.35186889707001257 Z M0.2958394361000103 0.24265665706997908 L0.27797648110001205 0.2562064620700042 L0.25299275710003144 0.24452840206999582 L0.19183553010000765 0.20221069407001124 L0.18381958009999266 0.17283243906997114 L0.18650512710004818 0.1388155110699998 L0.20025838210003144 0.11228556406997114 L0.19765421510001602 0.10850138407000287 L0.19281209310000236 0.09861368906997114 L0.21978963210003144 0.09434122807000023 L0.23134562110001866 0.07175822006997379 L0.238222249100005 0.04294962606997643 L0.2511617021000063 0.019837647070012565 L0.264060465100016 0.011699626069976432 L0.2760640461000037 0.008281657069979076 L0.28680623310000897 0.007956136069999786 L0.31195271810000236 0.011943767069972466 L0.3191548661000354 0.014629314069971144 L0.32314249610001866 0.02134318107000155 L0.32940877210003805 0.035950928069958366 L0.33925577810001073 0.08046590206999582 L0.33876749610001866 0.1417451990699945 L0.3251770021000482 0.20180379306999185 L0.2958394361000103 0.24265665706997908 Z M0.021791585100032762 0.7808239750700139 L0.03383585610001205 0.7882295740699945 L0.03656209310000236 0.7968558760699764 L0.030458577100006323 0.8008841960700082 L0.019960530100007645 0.8035697430700068 L0.0072652181000023575 0.8026338710699932 L0.0033589681000023575 0.7972627770699958 L0.007509358100008967 0.7921358240699945 L0.008526611099995307 0.7879447430700068 L0.006410726100028796 0.7842826340700029 L0.007631429100030118 0.7816377770699958 L0.014874267099997951 0.7787894700699738 L0.021791585100032762 0.7808239750700139 Z M0.14378051709999795 0.6549287930699919 L0.14687296510001602 0.6586722820699791 L0.14882609010001602 0.6678275560700015 L0.1434956861000103 0.6747855640699711 L0.13767700210004818 0.6805228680700068 L0.13482869410003673 0.6892712410700099 L0.12929484010001602 0.6951306160700099 L0.119081624100005 0.6956595870700042 L0.11008911109999531 0.6922416180700068 L0.11253051709999795 0.6891898600699804 L0.12392374610001866 0.6867484540699778 L0.12921346010003276 0.6801566570699791 L0.12734171510001602 0.6712862150699905 L0.12782999610001866 0.6615205900699905 L0.13686319910001998 0.655579834069961 L0.14378051709999795 0.6549287930699919 Z M0.271425374100005 0.5204886890699711 L0.2800109860999953 0.5052298990700095 L0.2882303871000147 0.5069388840700029 L0.27960408510003276 0.5267142740700095 L0.27557576510000104 0.5323295090700029 L0.27236124610001866 0.5328584800699971 L0.271425374100005 0.5204886890699711 Z" fill="black" stroke="black" stroke-width="0.5" vector-effect="non-scaling-stroke"/></svg>