<svg xmlns="http://www.w3.org/2000/svg" viewBox="0 0 4.16296042398001 4.261628330820024"><path d="M4.027699983490017 2.744040406909992 L3.994215436490073 2.7679724569099484 L3.968480573489991 2.8083317509100034 L3.9319453354899636 2.852773482909985 L3.918044375489991 2.8752527309099953 L3.8973221264899465 2.9259473109100647 L3.9205248444900533 2.922381636909993 L3.931428572490013 2.9367993619100083 L3.933805687489958 2.9594336389099745 L3.931480247490022 2.9805692999100053 L3.9290514564899652 2.9830497679099786 L3.9245039294900224 2.985375207910014 L3.9200080804899997 2.9887341759100288 L3.917837670490009 2.9942118779100078 L3.9199564034899836 2.995038700910033 L3.929309837489946 3.0017566369099633 L3.931480247490022 3.0044438109099936 L3.9376297434899996 3.028525028909943 L3.939335066489953 3.0426326949099725 L3.9348908924900527 3.0488338669099626 L3.9233670484900145 3.055551802909978 L3.9287413964899898 3.069607792909995 L3.939748477489964 3.0819584599100445 L3.945071149490026 3.08361210591001 L3.945536237490053 3.097358036910041 L3.93830153748997 3.127950484909963 L3.9352526274899517 3.1338415989099566 L3.9214550204899936 3.1540470829100435 L3.917837670490009 3.16551925090997 L3.9171658764900386 3.176009565910011 L3.9188711984900024 3.18272750291003 L3.925124046490005 3.189497115909976 L3.93830153748997 3.200297489910003 L3.926312604490029 3.2068087199099757 L3.9195946684899994 3.215076949910017 L3.903781680490006 3.261585737910057 L3.8959785384899774 3.2769336389100268 L3.8231664454899956 3.3753772429099804 L3.78807814848998 3.4466907189100517 L3.749062442489965 3.5453410279099593 L3.7328877184899696 3.5695772749099497 L3.685035342490046 3.6174296519100473 L3.67304640949002 3.6222355599099565 L3.657956892490013 3.6244059699100326 L3.6358910554899992 3.624664351910017 L3.6251940344900007 3.6305037889099943 L3.615117129490052 3.6362915499099735 L3.5881937084899462 3.7044527639099876 L3.5769282464899916 3.713186079910063 L3.5573428784900685 3.715253137910029 L3.523753197490045 3.705021204909958 L3.5092837964900028 3.7075533489100287 L3.49321242549005 3.7270870399100353 L3.474376366489942 3.733236535910013 L3.455126895490004 3.736853885909998 L3.4356448804900097 3.7373706509100266 L3.416007835489985 3.7343734179100245 L3.404380638490018 3.728533980910033 L3.401951846490057 3.720472456909949 L3.403062889489952 3.710808963910015 L3.401770978489999 3.7001636199100183 L3.3928051174899636 3.677425989910038 L3.3985412024900157 3.6585640919100264 L3.4012283764899465 3.6574788859100273 L3.406473534489983 3.6576339159099724 L3.4112536044899926 3.6560319459100334 L3.412907250490015 3.649830774910047 L3.411667016489993 3.644249719910025 L3.407403709490019 3.633449345909998 L3.4059567694900252 3.627609907910017 L3.405310814489958 3.607507775909955 L3.4008408024899452 3.603011926910032 L3.387327416489974 3.5953638149099625 L3.365468284490028 3.5868372029100364 L3.348699283489971 3.5875606739099375 L3.3330101884900287 3.596019141909995 L3.3160139394900128 3.6051823369100227 L3.2665854324900536 3.619858443910008 L3.228215680489946 3.6060091599099486 L3.1299271064900225 3.510304406909942 L3.1256896394899982 3.50100264991001 L3.1289452544899703 3.4872567179099754 L3.1482722404900088 3.467671349909967 L3.1548351474899974 3.4542871549100234 L3.1494091224900345 3.44436527991002 L3.131632429490004 3.4464323369099823 L3.0907563704900056 3.4627620899100187 L3.070757591489958 3.475422815909969 L3.0322069734899983 3.5081339969100505 L2.9960334704900404 3.5255489549099828 L2.9876102124900754 3.528546187909999 L2.979652041490006 3.527667688909961 L2.9719005764899933 3.5195544879099607 L2.975414574489953 3.500485884909981 L2.9707120184899694 3.4911841269100456 L2.9365538974900076 3.494026330910021 L2.8565846184900536 3.5554696089100055 L2.833252708490029 3.5540226689100116 L2.8215221584900476 3.5394499149099694 L2.8057091704899406 3.533662154909994 L2.78798415449004 3.535057417910057 L2.770750063490034 3.542085412909973 L2.7539810624900056 3.558466841910022 L2.748425845489983 3.5771220339099905 L2.7457386714900522 3.595415490909975 L2.7374446034899975 3.6108150679100426 L2.7089192124899526 3.6231657359100105 L2.67295241549008 3.622493941910026 L2.634195091490035 3.6175330049099763 L2.5971947664899986 3.6169645639100203 L2.5402990144900244 3.6220805299100114 L2.521178734490043 3.6194967089100096 L2.500198103489943 3.619393355909981 L2.4631202634899765 3.6367049609099844 L2.384210350490015 3.6564453579099485 L2.364392438490036 3.65231124291002 L2.3539021234899806 3.643939660909954 L2.342378278489953 3.6220805299100114 L2.33493687249004 3.6132955369100195 L2.325376732490021 3.6081795699100248 L2.25473504949003 3.5907129359099947 L2.23783685648997 3.5824447069099428 L2.183473249489971 3.537692916909979 L2.161304060489961 3.5251872199099843 L2.137481224490081 3.5230168099099934 L2.125492291489941 3.526892541909948 L2.1192652824900406 3.532525273910071 L2.111591331490054 3.5500952599099556 L2.1009976634900696 3.5926766409100175 L2.1003258694899856 3.637066695909983 L2.0951582264899926 3.654533329910027 L2.065935203490035 3.6982515919100116 L2.0582612534899525 3.7063131149099924 L2.046349836490016 3.7117908169099856 L2.0350843734899584 3.71096399390996 L2.026221866489955 3.705641320910008 L2.017049299489976 3.701455529909982 L2.004724470490011 3.7042977339100425 L1.9917020094900764 3.720265751909995 L1.9765091374900479 3.748997847909994 L1.9646235594900148 3.7786084439100343 L1.9617296784900375 3.7971602829099886 L1.9732535224900474 3.804808394910058 L2.017049299489976 3.8074438929099763 L2.0355753004900023 3.811836389909974 L2.0544888744900405 3.8293030239100183 L2.06366144049003 3.868628788910005 L2.0771748284900085 3.8898678019099755 L2.1040982494900007 3.9083679649100027 L2.112728213489966 3.91596440090996 L2.1485399814899964 3.962369836909975 L2.1826981024899865 3.991670373910029 L2.1902428624900168 4.002961674910001 L2.1933692864899754 4.015699914909963 L2.1917414784900373 4.024846642910038 L2.1881241274900347 4.033967533910019 L2.184920189489965 4.046757450909997 L2.186160424490005 4.09119918191006 L2.1917414784900373 4.131119225910016 L2.1864704824900016 4.167137699910004 L2.1546894764900415 4.200081424910056 L2.088853702490077 4.219847660910023 L2.0258601314899707 4.20679936190999 L1.9632282954900475 4.181581262910033 L1.8987361074900164 4.164812259910068 L1.8505736724900217 4.16770614090996 L1.8347090084900302 4.165845788910051 L1.8157954334899742 4.157887618909999 L1.7798803134900325 4.134891605910045 L1.7605533274899656 4.126752567909936 L1.7413296944899699 4.124478804910016 L1.7119774814899884 4.131687666909972 L1.6933222894900055 4.133651371910009 L1.6786978584900183 4.130654137909989 L1.626685529490011 4.1117405649099545 L1.6234040764900115 4.100139204909997 L1.6173062574900499 4.090449873909979 L1.6085212634900543 4.0833702039100395 L1.587540631489965 4.076626428910007 L1.5791173734899715 4.071562137910039 L1.5720118644900438 4.064715010909982 L1.5664308094900221 4.05618839990996 L1.5287328524899877 4.036551355910024 L1.430702660489949 4.034949385909986 L1.4033141514900151 4.02370976191003 L1.3070409584899565 3.8873873329099986 L1.2997545804899815 3.85757003190999 L1.2921581444900099 3.8357625779100637 L1.2823137844900216 3.7916825809099954 L1.2696272214899764 3.7722522429100174 L1.2607130364899675 3.767498010910021 L1.2376395094899877 3.763208866910052 L1.228363589489966 3.758557987909999 L1.2240744464900004 3.7496179649099624 L1.2246170484900532 3.713599491909978 L1.2134549394900276 3.6912752729100085 L1.1776690094899962 3.6600627079100327 L1.170046736490015 3.6419242809100076 L1.1764804514899723 3.6275582319100046 L1.178263288490065 3.617171268909974 L1.1734315424899435 3.6074560999099425 L1.15686924549005 3.592108199909976 L1.1521408514899818 3.5833232059099807 L1.1489110754899983 3.5695772749099497 L1.1509781314900422 3.5598621059100033 L1.1558873934899978 3.5488033499100062 L1.157230980489949 3.5378996219100323 L1.1489110754899983 3.5286495409100276 L1.1284988844899502 3.5436357059099954 L1.114391218490006 3.5484932899100166 L1.10793166449006 3.5391915329099852 L1.1132026594899926 3.5054984989100326 L1.111393984489986 3.498212121909962 L1.0861242094900163 3.4688082319100637 L1.0812666254900094 3.459764855910013 L1.0805948314900107 3.442763310909985 L1.0853490634900211 3.4296891729100345 L1.0880362374900372 3.4179069469100263 L1.0812666254900094 3.4051428679099764 L1.060492699489977 3.4168734179100433 L1.0525345284899927 3.4109823049100534 L1.0465400624899885 3.3716048629100506 L1.0366181874900704 3.353259728909979 L1.0107799714900594 3.3259745739099635 L1.0055606524900398 3.3129004359099987 L1.0094880604899927 3.3029785609100095 L1.016361025489978 3.290317834909974 L1.018634789490001 3.279465783910016 L1.0089712964899675 3.2747632289099506 L0.9747614974899719 3.279930871910043 L0.9714542064899732 3.282204634909963 L0.9648396234900716 3.2633427379100404 L0.9820995514900588 3.2273242649099565 L0.975123233489974 3.220761357909968 L0.9632893304899497 3.2229317669099693 L0.9432388744899995 3.232285201910006 L0.9338854404900658 3.234403934909981 L0.9218965084900006 3.2301147919100153 L0.9174523344899868 3.220761357909968 L0.9142483954900129 3.211356246910018 L0.9062385484900588 3.2071187789099618 L0.9021561104900471 3.196783492910047 L0.8888752674899436 3.1450553839099946 L0.8981770254900496 3.1351335089100054 L0.9137833084900038 3.122731164910025 L0.9246870354900594 3.108675174910008 L0.9198811274900507 3.0938440389099817 L0.8866531814900398 3.0903300419100255 L0.8738891024899615 3.082991987910038 L0.882053978489985 3.0699695279099934 L0.8873249754900101 3.060771122910001 L0.886704857490038 3.0529163049099743 L0.8838109774900502 3.044182987909995 L0.882053978489985 3.0320907029100006 L0.8852579174900441 3.0285767059100444 L0.8992622304900593 3.0293001749100377 L0.9025178454900313 3.02521773691004 L0.9014843164900483 3.017672977909985 L0.896730084489981 3.0050122519099496 L0.8956448804899892 2.9973124639100526 L0.8862914464900271 2.975091597910012 L0.8690315174900505 2.9592269329100027 L0.859936465489973 2.9409851529099633 L0.8751810134899998 2.9116846159099943 L0.8717703684900826 2.909875940910002 L0.8710985744899986 2.9093591759100583 L0.8708918694900447 2.9084806769100204 L0.8690315174900505 2.905483443910004 L0.8622619044900048 2.9117362919100067 L0.8535285884900148 2.9175240519099823 L0.843606712490022 2.920727991910045 L0.8335814854900221 2.9190743449100047 L0.8224710514900053 2.9109611449099937 L0.8243314034899996 2.9043982389100087 L0.8307909574900592 2.8964400679100386 L0.8335814854900221 2.8843477829100586 L0.822832787489979 2.8612484179099944 L0.8205590234900697 2.850241336909992 L0.8213858474899851 2.83799402391006 L0.8267601954899604 2.817426803909985 L0.8280521064899986 2.805541223910044 L0.8244864334899447 2.7936039679100055 L0.8182335844900379 2.78538741490998 L0.8160114984900204 2.7770675099100153 L0.8242797264899835 2.7645618129100207 L0.8257266674899668 2.758308964910018 L0.8280521064899986 2.723582401909983 L0.8249515204899822 2.7095522509099688 L0.8000951564900234 2.6584442589099844 L0.7684691804900083 2.683197269910014 L0.74175246448997 2.6877447969100423 L0.7150357494900064 2.6795282429100133 L0.683461449490018 2.6658598269099976 L0.6845466534900098 2.683972416910013 L0.6775703354900102 2.692731571910006 L0.6493033274900384 2.700017948909977 L0.6468228584899762 2.7033769179099956 L0.6397431874900477 2.7101723679099514 L0.6322501044900051 2.71440983490999 L0.6287877844900507 2.7099656619099797 L0.6264623444899442 2.7047980189099867 L0.6205195544900235 2.7018266239099695 L0.6126647364900819 2.7003796839099756 L0.6046032134899875 2.700017948909977 L0.5988671294900385 2.6956771289099954 L0.5861030504899603 2.688106531910041 L0.5732356194899708 2.6855743859099626 L0.5634687734900083 2.7052114299099976 L0.5542703684900303 2.7066066939100644 L0.54336664149006 2.703531945910033 L0.5123119464899801 2.6862337119099813 L0.5121023994899545 2.6861169889100047 L0.4952558824899782 2.6767118779100407 L0.46704055149002244 2.670924117910065 L0.45856561649001293 2.6674101209100236 L0.4536563544899721 2.6632243289099797 L0.45029738748997516 2.658134200910002 L0.44595656649000404 2.6462744599099786 L0.44388950849003805 2.6358099819100325 L0.44450962649001013 2.6275159149099814 L0.4495739164899888 2.6094550009100637 L0.45014235749003007 2.602737064909949 L0.4479719474900392 2.590360558909982 L0.4478169184899983 2.5838493289100093 L0.4630097884900195 2.55436792491 L0.4644567284900134 2.5366945849099984 L0.4480752994900641 2.5181685839100574 L0.4272496984899945 2.506050459909975 L0.42337396549005035 2.5041901089099703 L0.4212552324899903 2.5011928759100535 L0.4105065344900609 2.4997459359100596 L0.40564894949003616 2.4976788779100083 L0.4011530994900241 2.492692101909956 L0.39986118849007113 2.4892297819100015 L0.39898268949003324 2.48566410691004 L0.39102451849004893 2.4709104859100286 L0.38601190449001166 2.453392175910057 L0.3823945544900269 2.446157474909999 L0.3442573474900499 2.4217661999099853 L0.29537144248997294 2.401509037909978 L0.27873163149005364 2.390915369909994 L0.26751784649000143 2.372363529909965 L0.26157505549000604 2.3512537069100183 L0.25888788148996156 2.3058817999099865 L0.2546504134900047 2.2866840059099793 L0.23335972449002185 2.241157067909999 L0.1826651434899489 2.166949711910039 L0.16638706749001386 2.14790694590997 L0.10060296948996239 2.096075484909992 L0.07636672348997564 2.0656380659100115 L0.06649652448999888 2.0303172249100108 L0.05342238749003769 1.945283655910007 L0.04081333749000038 1.9022113489100043 L0.04257033648998032 1.8815149379099871 L0.056471296490066436 1.860250085910014 L0.14354608449003337 1.7713149459100386 L0.15465651749003229 1.7543392379100347 L0.16111607149000662 1.734598840909971 L0.16323480548997082 1.7094324179100262 L0.16044427849002574 1.6928701219100226 L0.15501825249004497 1.677651411909995 L0.1518659904899735 1.6619159389100169 L0.15584507649004564 1.6436224819100467 L0.16571527349004356 1.6282487429099781 L0.1771874424900446 1.6155105029100163 L0.18664422949002102 1.6024105269100524 L0.1940339594900493 1.5692859339099563 L0.2124307694900338 1.5248442019099748 L0.22938063848994972 1.4965255179099906 L0.24519362648994303 1.445624231910049 L0.2630736724899876 1.419837691909951 L0.2710835194899701 1.4024744109100205 L0.27247878349005106 1.3835091599100657 L0.2641588774899972 1.3658358199099787 L0.2373388094900193 1.331626021910072 L0.22395461349007206 1.2904915819100076 L0.20736647849006573 1.2794328249099927 L0.19067499049001668 1.27098372891 L0.18313023148997587 1.2572119599100553 L0.19000319748995054 1.223596439910029 L0.20607456748999908 1.2006262659099924 L0.22431634848997106 1.1810925749099859 L0.23780389648994316 1.1644269249099501 L0.25816441149004987 1.1305530239100428 L0.2657091704900054 1.1234733529100147 L0.2782665444900161 1.1202952519100542 L0.2879300364900601 1.1230599409100144 L0.29754185249004905 1.1278141729099964 L0.31004754949004365 1.1302946409099839 L0.3345421784900182 1.1269098349099558 L0.34616937549007076 1.117814782909992 L0.3612072174899552 1.0893410689100484 L0.388027286489951 1.063554529909954 L0.42156529049004376 1.047095584910057 L0.45913405748996894 1.0449251759099845 L0.4984081454900391 1.0620042369100169 L0.5422814364900503 1.0462687629100351 L0.5652257724899883 1.0422638389099639 L0.590908959490072 1.0409202519099985 L0.5962833074900189 1.0442017049099839 L0.6116312084900031 1.0586969449100145 L0.6182457914899899 1.0620042369100169 L0.6311649004900133 1.0608673549100054 L0.6480114174899896 1.0557255499100116 L0.7271280344900006 1.0476123499100147 L0.7522944564900129 1.0409202519099985 L0.7629914794900188 1.0367344609099582 L0.7704328854900453 1.032600346909934 L0.7790628484899926 1.0292672159100285 L0.7932738684900542 1.0272518359099827 L0.8020071844900158 1.02890548091003 L0.8098103254899698 1.032238611910035 L0.8180268794899987 1.0330654349100463 L0.8280521064899986 1.0272518359099827 L0.7915685454899872 0.9943856249100413 L0.7870726964900783 0.983197676910013 L0.7883129304900152 0.9699426719100082 L0.79141351649006 0.9585996949100242 L0.8062963284899993 0.9248808239100619 L0.8129625884900022 0.8961487269100452 L0.8195254954899909 0.8823252809099991 L0.8307909574900592 0.876434167909995 L0.8485676504899757 0.877054285909967 L0.8612283764900113 0.8809816939100337 L0.8697549874900474 0.8913428189099513 L0.8751810134899998 0.9112382449099563 L0.8907356184899484 0.9048045289100095 L0.9064969314900182 0.8957353149100449 L0.9186925684900373 0.8841339559099914 L0.9236018304900497 0.8702071579100057 L0.9161087474900356 0.8501825399099694 L0.882777448489982 0.8097457319099881 L0.8759828384899961 0.7927823159100065 L0.8751810134899998 0.7907804819100228 L0.8708918694900447 0.7846309859100451 L0.860866641490027 0.7815820759100269 L0.8494978264899444 0.7821505169099829 L0.8410745674900468 0.7870597789100096 L0.8393175684899816 0.7966457569100136 L0.8444852124900777 0.8063092499099476 L0.8547171454900493 0.8184273729100404 L0.8520816474900315 0.8250677949100442 L0.8454670644900446 0.8293569389100135 L0.8368371004899942 0.8304938199100214 L0.8280521064899986 0.828013350909945 L0.8230394924900466 0.822535648909966 L0.8212308174899547 0.8146549939100147 L0.8196805244900318 0.7448142949100323 L0.816476585490058 0.742023767910073 L0.8101720614899435 0.7423338259099701 L0.8000951564900234 0.739879195909996 L0.7856774324899973 0.7457444709099867 L0.7767890854899875 0.7457444709099867 L0.7728100014900079 0.7364685509099793 L0.7762206454900209 0.7254873089099938 L0.7843855214900444 0.7147644489099783 L0.8330130444900377 0.665956058910016 L0.8432966544900538 0.6499880409099781 L0.8472757394900228 0.6266044559100159 L0.8484126214900485 0.6051587369099884 L0.8515648834900063 0.58926823390998 L0.8608344894899815 0.5684237049100069 L0.8745063644899815 0.554385618910036 L0.883417497490008 0.5458406969100373 L0.9154812994899899 0.5336336659100347 L0.9289904134899771 0.5227694079100083 L0.9383491374900146 0.5105623769100056 L0.9448188644899815 0.49628014991003866 L0.9688667154900159 0.3882479239100043 L0.9736274584899789 0.2934399809100263 L0.9805040854899758 0.2601961659100347 L0.9827346274899824 0.23520923391004445 L0.994657587489975 0.19451015691004514 L1.0062211844899949 0.16693857890999553 L1.0327094894899815 0.12335534491001354 L1.0368598794899881 0.11212487691000561 L1.0424751144899815 0.10325443391002764 L1.0508165854899758 0.0974764389100109 L1.07368442448999 0.09344811891003602 L1.0806017414899785 0.08893151691001222 L1.0858100754900093 0.0844149159100347 L1.0910590984899855 0.08242110091004307 L1.0956977704899842 0.07949141290999151 L1.108393083489979 0.06537194691003734 L1.1140083174899829 0.06069258490999019 L1.1238146324899745 0.057071165910034694 L1.1339057784900106 0.05524011091000958 L1.1446327924900075 0.044202487910016686 L1.1519672574899928 0.04178066991000051 L1.1796609234899975 0.04909205890999502 L1.2415322204899795 0.06371792090999762 L1.2781485614899921 0.06779759790999051 L1.3277801154900217 0.06784596790999231 L1.405873505490014 0.07116423091003199 L1.4489928554899976 0.07363886591003066 L1.466072486489999 0.0801316789099964 L1.4970828004900127 0.09970752491000567 L1.5154003524899977 0.10760179891002863 L1.5345543094900123 0.11259812091003951 L1.5816455074899878 0.1168058599100199 L1.6901901334900131 0.14200524691000638 L1.753480555489979 0.15868419891001295 L1.8046979404900085 0.16084650690999425 L1.8517385664900203 0.17294862391003463 L1.8856705734899961 0.18260131791004497 L1.9168647624900146 0.19073815791000825 L1.9842475754900093 0.2053052149100303 L2.0254682564899795 0.21898847891003825 L2.049909987490004 0.2256171239100162 L2.0705105964899886 0.2291903059100413 L2.1093224674899957 0.2426418869100111 L2.1724985894900115 0.24869380491003668 L2.190627783489994 0.2686190169100122 L2.2049507004900093 0.2770011789100444 L2.2108100754900093 0.29034753291000825 L2.2108100754900093 0.376651243910036 L2.2112576664900203 0.376651243910036 L2.2182563644899815 0.376651243910036 L2.2235053874900146 0.3609041739100043 L2.225214372490008 0.3452791739100043 L2.2244819504900093 0.3114250069100457 L2.2212267414899785 0.29388757191003734 L2.2039741374900146 0.25616784491001354 L2.1931429474899815 0.23158344691001176 L2.2085419094899876 0.21139088791000304 L2.1985016884899906 0.20243661491003095 L2.1862592434900208 0.2030016129100467 L2.174545854489999 0.20352730390999696 L2.1606326084899834 0.19183361591001713 L2.15733574648997 0.17184363591002594 L2.1618359194900236 0.15686179491001795 L2.1780714764899827 0.13577414091003348 L2.1848919874899835 0.1255094949100375 L2.1981095174900034 0.11173888291000722 L2.2078507134899965 0.10140926490999291 L2.22245260548997 0.09040016191000078 L2.240514094490017 0.0835415579099994 L2.264122561489991 0.07739272891001647 L2.288410011490022 0.07607964191004513 L2.37941600848999 0.07213799690999068 L2.42992628648998 0.06809818391002764 L2.471186051489987 0.06744714191001222 L2.7135166594900184 0.0794784329100402 L2.7725372044899714 0.09064623691000762 L2.8006337254899805 0.11000489191002671 L2.8164591664899845 0.11662748391001188 L2.837681820489969 0.12335534491001354 L2.844721208489979 0.12693607491002368 L2.8553006354900177 0.1355623769100056 L2.865595231490012 0.14398522791003998 L2.875604997490008 0.15008874391003602 L2.8787381354900177 0.15094323591000958 L2.887079606490012 0.1531405019100056 L2.8956245284900106 0.1531405019100056 L2.9060716464900125 0.15459339290999097 L2.9201439984899835 0.15595942791003736 L2.9315968734900153 0.1520644349100202 L2.9444526534900106 0.14667077491003866 L2.9606640544899747 0.14517696091002463 L2.977777647490008 0.1574989999099934 L2.9976753094900133 0.17218346991001354 L3.0053973274899946 0.1869421449100095 L2.993403328490025 0.21622624291001458 L2.978632340490016 0.23260827491003866 L2.9798937344899983 0.2319979239100043 L3.007465181490012 0.22285511091002164 L3.016792262489993 0.20056305291001664 L3.01775569749001 0.17823776691000504 L3.022984554489973 0.17055586590999283 L3.045081117490021 0.17047162091001056 L3.078119645489984 0.1935864649100303 L3.098383317489983 0.19781823591000958 L3.111444840490016 0.1948885489100043 L3.119582861489995 0.1896802149100303 L3.127313981490012 0.18788985091004307 L3.149693538489977 0.20156172591004307 L3.158197770489984 0.20306725891004263 L3.1667020024899912 0.20123620491000693 L3.1765490074899745 0.19781823591000958 L3.1843615074899745 0.1929354239100043 L3.189813981490012 0.18626224591003293 L3.1965278484899855 0.1804842519100056 L3.2082465984899855 0.1779614649100303 L3.217727392489998 0.17999596991001354 L3.2277778484899855 0.18500085291003998 L3.2454780444900067 0.19781823591000958 L3.240961442489983 0.1896802149100303 L3.234166195489969 0.1817863349099902 L3.226313004489988 0.17499108791003337 L3.21821567448999 0.17055586590999283 L3.2050320804899926 0.16795169991002368 L3.195924145490018 0.16932946791002124 L3.1866539334899713 0.17672909191003683 L3.1751860334900144 0.1836825669100257 L3.152297044489991 0.18577970091002172 L3.13693903648997 0.17608774691001727 L3.122870894489985 0.17296697991003285 L3.106987780490023 0.18209545691002305 L3.091913590490016 0.18137943391002764 L3.076776872490008 0.16888757191003734 L3.0612332524899912 0.16107507191003734 L3.003209163489977 0.14443281890999415 L2.982864111489995 0.13470788391004263 L2.9655301274899912 0.12323327491003866 L2.9581245284900106 0.11249108791003337 L2.954381038489977 0.1019930409100347 L2.9485389204900017 0.0952404619100129 L2.955181099489984 0.0847623949100047 L2.9640049814899854 0.07910653891002895 L2.99165317448999 0.06809818391002764 L3.02320339848999 0.06270540191002638 L3.0637055354900227 0.06024949491001408 L3.0945991374900146 0.05996016290999151 L3.334914892489998 0.06809818391002764 L3.3531440594900133 0.07241133490999019 L3.395949430489999 0.0771705649100376 L3.4349485304900114 0.08416280790999409 L3.6367236174899986 0.11238458591003919 L3.7598744144899925 0.1395992769100225 L3.855805096490009 0.15854609691001897 L3.9391629394899965 0.18544844390999415 L4.011108913490013 0.20601505491004346 L4.034048230490022 0.2084669479100434 L4.046472770490006 0.21279591791000385 L4.071773095489995 0.21100364591001508 L4.0775608784900115 0.21917017391001892 L4.088042271489975 0.22310422991001033 L4.093817063489986 0.23320603291000808 L4.092197678490017 0.2436504929100387 L4.116419530489999 0.2898570499100437 L4.12214708649001 0.3076898649100066 L4.112584163489977 0.3188306059100263 L4.088751613490025 0.3643752419100146 L4.077356906490003 0.38404469391003104 L4.0720657654900165 0.42385209391000345 L4.058140804489973 0.5012850329100083 L4.0473986164899785 0.54046960291004 L4.034906754489988 0.5635408919100122 L4.016718278490011 0.5854321679100316 L3.9993842944900067 0.6005281969100373 L3.990025570489969 0.610578652910025 L3.9859565594900133 0.6199373769100056 L3.9799751144899815 0.6390617259100431 L3.937535335489976 0.7049796939099942 L3.918044375489991 0.7276060429099722 L3.839341169489991 0.7842692509100466 L3.797173200490029 0.8275482629100175 L3.787852597490037 0.8409000259100345 L3.776502627490011 0.8571588589099726 L3.7649271074899744 0.8969755499099854 L3.7584675534900285 0.9037709999100265 L3.7430679764900177 0.91459721391006 L3.7386238024900322 0.9209792529100049 L3.7361950104899577 0.9322963909100714 L3.7328877184899696 0.9384717249100483 L3.678265729490029 0.9999666789100594 L3.659868920490034 1.0290605109100603 L3.653719424490056 1.0448218229100412 L3.6509288974899974 1.0620042369100169 L3.659662214489977 1.101872603909957 L3.657698509490025 1.1166262249100534 L3.652995954489974 1.1219230589100029 L3.626382591490035 1.1405524139100613 L3.62178338948997 1.1503967739100354 L3.6235403874900456 1.1606028689100079 L3.6298449134900537 1.1746846969099387 L3.6298449134900537 1.2981655319099907 L3.633100528489969 1.3116272419099495 L3.6412137274900616 1.3171566209099588 L3.651497337489964 1.3200246629099333 L3.661160831489987 1.3255023649100117 L3.67304640949002 1.3439508509100229 L3.6733564694899954 1.3609782359099576 L3.6699458244899645 1.3800726769100358 L3.6707726464899864 1.4046189829100122 L3.6832266674899827 1.4373043259099951 L3.685035342490046 1.4490090379099776 L3.685035342490046 1.489962610910002 L3.680332787489995 1.5071966999099864 L3.6605407134900148 1.543809452910029 L3.657698509490025 1.5691309039100112 L3.6750617914899593 1.6769796189100141 L3.7055508864900233 1.7404124389100453 L3.7143875564900455 1.7835364229099646 L3.7153177314899963 1.8089612269099753 L3.708909854489953 1.8260919639100202 L3.69795445049008 1.8447729949100058 L3.7019335364899533 1.8618262169100355 L3.713612410490022 1.8754429569100388 L3.7260147534900128 1.8837887009100065 L3.7596044344900363 1.892832076909972 L3.7699397204900222 1.9010227909099946 L3.773815453489995 1.921641687909986 L3.770921573490007 1.9367053679099833 L3.7574857004899584 1.9712769009099738 L3.7533515864900338 1.986831506909997 L3.7546434974899867 2.011636194910043 L3.764151959489972 2.028405196910004 L3.7983100814899515 2.0591526739100523 L3.8046146064900555 2.068893680909998 L3.815363304489985 2.1035427289100177 L3.8220295644899878 2.1126377809099814 L3.8359822014899763 2.123825728910024 L3.842700137490006 2.1308278849100226 L3.8674531484900356 2.1770007779099707 L3.8862633694899458 2.1871551969100302 L3.890500837489988 2.195707646910055 L3.893963158490017 2.1951392059099994 L3.9014562414899743 2.2068697559099952 L3.9110163804899756 2.2264551239100037 L3.9211449624900254 2.2386765989099366 L3.926881045489985 2.2423456259100227 L3.93830153748997 2.2475391079100326 L3.972407982490047 2.2576160119099775 L3.9830016504900314 2.26461816890998 L4.003723900489952 2.295313968910012 L4.014059187490069 2.3062952109099975 L4.034471377490014 2.3772469529099887 L4.057829124489963 2.4128003379100313 L4.058397565490004 2.4188206429099814 L4.069094587490021 2.416908614910046 L4.0801016674900055 2.413523808910032 L4.090643659489963 2.4118960009099943 L4.099687035490014 2.415435836910053 L4.113691348490029 2.429750207909951 L4.119685814490062 2.442359257909974 L4.118238874490068 2.4576554809100237 L4.11022902749 2.4803155969099926 L4.102219180490017 2.5223285359099954 L4.1054747954899895 2.5979569949100387 L4.089145042490067 2.6379803919100233 L4.0528165114900006 2.675678349909976 L4.048165632490033 2.68914005991002 L4.045788516489985 2.7066583699099915 L4.039018903490053 2.726269576910017 L4.02827020549001 2.7436328579100326 L4.027699983490017 2.744040406909992 Z" fill="black" stroke="black" stroke-width="0.5" vector-effect="non-scaling-stroke"/></svg>