<svg xmlns="http://www.w3.org/2000/svg" viewBox="0 0 4.602053979539883 2.020056542820086"><path d="M4.544120048270007 0.9565431639100197 L4.538849052269971 0.9887375819100654 L4.535231702269987 0.9977292809100149 L4.529340588269979 1.0040854819100318 L4.507533134269953 1.0221205559100426 L4.509393485269958 1.0370033699099892 L4.516524833269902 1.0515502849100287 L4.519005302269879 1.0653220539099877 L4.506913016269981 1.0779569419099957 L4.48996314726998 1.0854241859100213 L4.485932385269995 1.0945709139100117 L4.4868625602699455 1.1059655689100154 L4.484692151269944 1.1201507489100706 L4.475080335269955 1.131958813909982 L4.464228284269983 1.139064322909995 L4.459474052270001 1.1485727869099875 L4.467845634269968 1.1676930669100827 L4.485932385269995 1.1821624679100111 L4.528513765269968 1.1853147299100542 L4.549391044269929 1.1974070149100484 L4.556935803269885 1.2166823239099855 L4.556212333269973 1.2424947019099974 L4.548254162270017 1.2672735519100442 L4.542141651269991 1.2742689809100156 L4.534301526270018 1.2832415689099932 L4.5162147752700195 1.2856445229100402 L4.4445912392699585 1.272647899909991 L4.409761323269895 1.274921663910014 L4.396945569270007 1.2734747239100201 L4.385680107269967 1.2698832119099492 L4.37937558126993 1.2652840089100081 L4.374104586269913 1.2602455569100286 L4.366249767269982 1.2554396479100305 L4.325011975269978 1.2456728029099722 L4.320567802269953 1.2348207519100285 L4.326045503269943 1.2142793699100523 L4.324081799269924 1.2029880689100807 L4.308165458270001 1.1939963709100354 L4.282430595269919 1.1941513989099732 L4.187759370269963 1.2129357829099874 L4.178147554269974 1.2165789709099712 L4.173806734269992 1.223968701909989 L4.161507743269941 1.2565765299100278 L4.1532395142699885 1.264224641910026 L4.131638765269945 1.2791074549099548 L4.123060478269996 1.2879958009099752 L4.121716891269931 1.2951788249100318 L4.12151018426997 1.317141307909985 L4.117169364269988 1.3277866529099853 L4.118409599269943 1.3370367349100079 L4.120786715269991 1.344297273909966 L4.125644299269912 1.3499041669099867 L4.13432594026995 1.3539866049099984 L4.116652599269945 1.3747088539100432 L4.132362235269942 1.388248078910003 L4.161714449269913 1.3961545729100564 L4.206466239269962 1.4021490389100038 L4.223726167269949 1.4069549479100019 L4.231064221269951 1.4180653809100008 L4.223519462269995 1.4398728359100446 L4.216284761269923 1.4465907709100563 L4.195304130269936 1.4596132319099908 L4.187759370269963 1.4693284019100403 L4.182695080269984 1.4828676269100285 L4.182074963269945 1.4920143549100189 L4.18610572526993 1.5004376139100017 L4.195200777270007 1.5115997229100273 L4.236438570270001 1.5406935549100282 L4.249254325269992 1.5585219239099715 L4.236128511269929 1.5776422039099813 L4.208223238269942 1.5898378419100752 L4.16605526926998 1.6009482749100172 L4.132982352269981 1.6004831869100755 L4.13215552926997 1.5779005859100366 L4.122026949270013 1.5608990399100193 L4.0825461542699815 1.5366111169100165 L4.067870048269985 1.5228651859099998 L4.061358818269928 1.500954377910027 L4.0609454062700125 1.4811623039100468 L4.05433082326994 1.4648842279100265 L4.029319429269923 1.4535154129100292 L4.0087522092699475 1.449820548910047 L3.9893218712699694 1.4488128579100632 L3.9457069622700134 1.4540063399099878 L3.8791477172699205 1.4776741449100186 L3.8583737912699734 1.4823508629099749 L3.845558036269897 1.480438834909954 L3.821166760269965 1.470258577910009 L3.8104180622699504 1.4700777099100364 L3.7995660112700067 1.4785784829099597 L3.797602307269959 1.4899989739100405 L3.799152600269996 1.5013419519100282 L3.798739189269985 1.5092226069099794 L3.7834429642699137 1.523898713909965 L3.7646327432699183 1.52916971090999 L3.6500144162699586 1.5282395349100497 L3.6267600222699388 1.522348420910042 L3.6055726852699808 1.5123748699100403 L3.592860282269929 1.50023090791003 L3.5729131792699365 1.4641607589100474 L3.5640248332700013 1.4590964679099656 L3.5419073202699893 1.4505956949100423 L3.53467262027002 1.4456864339100193 L3.532708915269983 1.4400795409099985 L3.5341558552699768 1.4248349939100464 L3.5281613892699726 1.3289235349099826 L3.524957450269885 1.322644848909981 L3.5171026322699435 1.323859244910004 L3.500979586269982 1.332075796910054 L3.4941582962700055 1.3384578369099742 L3.490644299269978 1.3455633459100156 L3.4857867142699535 1.3515578129100376 L3.474934663269896 1.3545550449100503 L3.4673899052699584 1.3522812829100346 L3.441861747270001 1.3354864419099712 L3.4411382772699186 1.3231099369100079 L3.42129452726994 1.3194667479100346 L3.3726153272699877 1.3236008619100446 L3.3534950482699957 1.3358481769100692 L3.3361317662699763 1.3599293949100044 L3.328276949269939 1.3844240229100748 L3.337888766269974 1.3979374109100533 L3.3512212852699905 1.4043194499100693 L3.3531849892699244 1.4143446779100017 L3.3506011672700184 1.4269537269100212 L3.3507045202699475 1.4412422609100233 L3.364140392269978 1.476718131909955 L3.365483980269947 1.4895855629100296 L3.3592828082699713 1.5115997229100273 L3.3300339472699294 1.5539743979100464 L3.31515113526999 1.589786165910077 L3.3060560832699126 1.5999147459100342 L3.294480562269972 1.6074078289100484 L3.282491630269992 1.6113352379100192 L3.271639579269963 1.616916292910041 L3.2660585242699414 1.6268381679100443 L3.2614076452699736 1.6383620119100542 L3.2540969972699303 1.6479812859100704 L3.253552828269936 1.6486972979100685 L3.1808957642699953 1.6828037439100498 L3.162395601269968 1.702079052909987 L3.158468192269912 1.7149981609099925 L3.1606386032699207 1.7375290859100048 L3.157434664269947 1.749828075909953 L3.1494764932699626 1.7591815099100856 L3.139968029269885 1.7630572429100582 L3.11805722226993 1.7678631509099532 L3.092425712269976 1.7816607579099966 L3.0880848912699763 1.7930295739099833 L3.1058615842700066 1.8278594889100575 L3.07299537326998 1.8489951499099888 L3.070824963269989 1.8514756189099657 L3.070101493269992 1.8540594399100812 L3.070824963269989 1.8565915849100563 L3.07299537326998 1.8591237309100492 L3.0837440712699946 1.866720165910003 L3.092012301269965 1.884910269909959 L3.1011073522699393 1.8943153809100224 L3.110822521269971 1.8981911129100624 L3.1326299762699863 1.9012400229099953 L3.142035087269936 1.9054258139100213 L3.1534039022700187 1.9220139489100276 L3.1495798462698916 1.9390154949099596 L3.12467180627002 1.9728635579099532 L3.092735770269944 2.000252066910086 L3.0626600872698804 1.99632465791003 L3.0298972292699817 1.9861444009100566 L2.990313081269936 1.9945676599099542 L2.994033784269935 1.9791680829099718 L3.000028251269957 1.9672825029100451 L3.0040590132699707 1.9548801599100543 L3.002405366269902 1.9375685549099657 L2.9968243122699834 1.9244944179100045 L2.9884527302699313 1.911420279910054 L2.971089448269912 1.889871207909998 L2.961270926269923 1.8739031899099743 L2.9547596962699503 1.8675469889100427 L2.948041760269949 1.8638779619100418 L2.890680920269948 1.8424322429100286 L2.87538469626998 1.838659862909985 L2.85822812126995 1.8378847169100752 L2.859881766269983 1.835197542910059 L2.8637058222699396 1.8303916339099473 L2.8812758102699876 1.8022796549100164 L2.909904553269972 1.7780434079100118 L2.9246840132698866 1.7545823079100487 L2.8992592082699717 1.7312245599099967 L2.884169689269986 1.7275555339100137 L2.8534738892699396 1.728072297910039 L2.8374541952699746 1.7265220049100307 L2.8298060832699194 1.722904654910046 L2.822468029269918 1.7135512209099986 L2.8192923402699863 1.7127374499100014 L2.8141998002699653 1.7114324869100344 L2.8079986282699894 1.7134478679100695 L2.792495699269982 1.723008007909975 L2.785364351269952 1.7257985349100338 L2.7677943642699505 1.725178417910051 L2.7211822222699924 1.706264843910013 L2.701855236269954 1.70161396490996 L2.6921400672700075 1.6981516439100162 L2.6289914672699455 1.6333493979100169 L2.6005694292699433 1.6130922359100097 L2.572974214269924 1.6034287439099941 L2.5468259402699163 1.5961423659099907 L2.5284291302699318 1.5856003749100225 L2.5174737262699454 1.5695290039100698 L2.5135463172699746 1.5451377279100242 L2.51695696226992 1.519402864910056 L2.5331833612699244 1.4675972409099742 L2.5365940062699552 1.4387876299100455 L2.536077242269987 1.4086085939100528 L2.5319431272699875 1.3860259929100138 L2.5181971962699423 1.372280061910054 L2.4894651002699435 1.3687919029100257 L2.4762158972699853 1.3707645349099877 L2.433757906269908 1.3770859699099773 L2.406576102270013 1.387317903910052 L2.385285413269945 1.4029241869100062 L2.37691383126995 1.4156107499100514 L2.380737886270002 1.4198482179100083 L2.387352469269989 1.4233363769100364 L2.387765881269904 1.4334649569099938 L2.381771415269985 1.4426116869100767 L2.3718495402699817 1.45085407791003 L2.36037737226997 1.4569260579099748 L2.3320586872699822 1.4668479329100634 L2.2828627242699087 1.511806428909999 L2.2621921502699864 1.521779979910086 L2.218783947270002 1.5284979169100197 L2.1971831992699196 1.5354225579100031 L2.1776495072699094 1.5491684899100377 L2.1676242792698917 1.5589353349099824 L2.1633868122699527 1.5673585939099937 L2.16690080926998 1.571234326910023 L2.1902585572699467 1.585341991910063 L2.219817476269985 1.6249261399100234 L2.222608004269948 1.6616164059099887 L2.200903902269947 1.6940175299100062 L2.1571856402699483 1.7203725099100424 L2.1463335892699194 1.722904654910046 L2.1256630162699865 1.7244549479100542 L2.1156377892699583 1.7298292969100189 L2.1085064412700136 1.7401129069100065 L2.1063360312699375 1.7515850749100181 L2.1062326782700085 1.7627988609099745 L2.100961682269973 1.7912725749100034 L2.0991013302699786 1.7932879559099817 L2.089386161269947 1.8081707689099957 L2.08866269126995 1.8103411779099972 L2.0761569942699554 1.821658316910053 L2.069025646269897 1.8257924319099956 L2.059413830269908 1.8278594889100575 L1.9885137662699366 1.8390215989099872 L1.974090958454637 1.8471018782880648 L1.9632264036919054 1.8615879513050473 L1.960510265001222 1.880600922139827 L1.9399290882699107 1.881258490909964 L1.9386976842699868 1.8828948899099984 L1.9355970992699598 1.8931784999100145 L1.9364239212699816 1.8983978199100235 L1.934046805270019 1.9017567869100205 L1.9215411092700139 1.906511018910031 L1.9157533482699636 1.906304313910077 L1.8978733032699084 1.9024802569100174 L1.8703814412699318 1.9028419919100301 L1.8223223592699798 1.890594677909995 L1.8125038372699906 1.891369824910008 L1.8049590772699604 1.8938502929100807 L1.79658749526988 1.8952455559099732 L1.7842885052699318 1.8922999999099588 L1.7828415652699379 1.889767854910069 L1.7640313432699246 1.8706475749099738 L1.749045178269971 1.8609324059100274 L1.733335543269992 1.8546278809100372 L1.6314296182700092 1.836851187910007 L1.614686454269962 1.8428973299100377 L1.6049712842699124 1.8542661459100245 L1.5940158812699439 1.864239697910044 L1.5730352502699292 1.8661000489100488 L1.543269624269958 1.8750917479099982 L1.4841517862699094 1.9052707849099804 L1.4521123982699793 1.9131256019100178 L1.3769748652699763 1.907544547910014 L1.3638490512699137 1.910696809910057 L1.3357370722699544 1.9228407709099642 L1.2740354122699147 1.9405141109099802 L1.2438563762698935 1.9444415199100362 L1.2111968712700092 1.9448549319100366 L1.180501069269984 1.9404624349099535 L1.1572466752699642 1.9307472649100177 L1.112391532269986 1.8957106439100855 L1.1054668902699847 1.8876491219100089 L1.10009254127002 1.8775722169099751 L1.093064547269937 1.859278759910005 L1.0815923782699928 1.8385048339100578 L1.0779750282699228 1.8278594889100575 L1.0731174432699264 1.8255857259100239 L1.005421317269911 1.7723589999099758 L0.9826836872699447 1.7653826819099763 L0.9743121052699495 1.7677597979100241 L0.9671807582699374 1.7728757649100189 L0.9595326452699497 1.776906526910004 L0.9500241822699751 1.7759763509100637 L0.9412391882699795 1.7713254719100107 L0.9406190712699969 1.7682248859100511 L0.9426861282699734 1.764039094910025 L0.9422727172699625 1.756287630910002 L0.9437196572699564 1.7553057779100456 L0.9434095992699598 1.744867138910017 L0.9416526002699799 1.7349452629100242 L0.9388620722699317 1.7359271159099805 L0.9434095992699598 1.7307594719099697 L0.951471122269969 1.723938183910029 L0.9584991162699668 1.7162900709100413 L0.9595326452699497 1.7086419599099756 L0.9442364212699816 1.698358349909988 L0.8646547152699542 1.6861627119100646 L0.8559730752699055 1.6693678719099907 L0.8651714802699972 1.635106396910082 L0.8825347612699419 1.5992946289100516 L0.9179847942699597 1.5514939289100695 L0.8952471642699651 1.5243638019099919 L0.8597971312699473 1.49829304191001 L0.8406768512699658 1.475452058910001 L0.8460512002700158 1.4639023759099743 L0.8724061812699846 1.4425083329099593 L0.8795375282699966 1.4257651699100151 L0.8784157052699912 1.4159625749100186 L0.8773671182699205 1.4067999179100568 L0.8680245262699815 1.396864059910051 L0.8529758422699887 1.3917104009100498 L0.7039926882700103 1.3650711989100088 L0.6373300902699883 1.3635984209100158 L0.573251314269986 1.3723834149100114 L0.4879852012699404 1.4127943849099935 L0.45553240226999936 1.4185304689100278 L0.4226661902699833 1.4195898359100383 L0.39186703726992267 1.4264886389099942 L0.3594142372699922 1.4459448159099892 L0.3308888462699473 1.4720155759099711 L0.3098048622700036 1.4918593259100632 L0.30443051326995363 1.5055019039099804 L0.30856462826998143 1.5154754559099715 L0.31776303226997005 1.5324770019099887 L0.31827979726992783 1.5365077639100022 L0.32789161426993463 1.5530442219099925 L0.3321290812699873 1.5572816889100451 L0.3425677202700159 1.561054068909975 L0.3593108842699495 1.5557313969100264 L0.3663388792699651 1.5578501299100864 L0.3715065222699865 1.5808978189099534 L0.3456683072699649 1.5998630689100182 L0.281692883269959 1.6292669589099873 L0.2306365682700049 1.6707631349100538 L0.19818376826998918 1.6823386559100229 L0.1641806762699547 1.6717966629100474 L0.11860206226996173 1.673036897910002 L0.0732301552700152 1.6805299809100163 L0.04914893826998412 1.6905035319100463 L0.062481457269915275 1.6687994309100347 L0.0701295692699988 1.658722525910001 L0.0732301552700152 1.6501442389099665 L0.05555681526994238 1.6347446619099841 L0.04511817626999903 1.6210504069099656 L0.04883887926999808 1.6090097989099874 L0.0732301552700152 1.5982611009099728 L0.13317481626993288 1.5779005859100366 L0.13482846326997322 1.5775388509100523 L0.13648210826992102 1.5774354979100096 L0.13834246026991526 1.5775388509100523 L0.14619727726995269 1.5792958489100144 L0.15219174426997473 1.5798126139100575 L0.15797950426995033 1.5793475259100305 L0.179993664269948 1.5745932939100484 L0.1843344852700044 1.567927034910035 L0.18340430926997886 1.5586769529100124 L0.18392107327000407 1.5478765789099995 L0.19105242026995928 1.5195578939099832 L0.19435971226994742 1.5117547529099724 L0.20891600926996023 1.489199467909991 L0.22670915926994883 1.4616286129100544 L0.22536557226996923 1.4505698569100431 L0.21316993426996067 1.4354286619100307 L0.19849382726997522 1.4244732589099485 L0.14932833326995354 1.40358734190999 L0.14454363227000488 1.401554760910038 L0.1560157992699418 1.3939583249099812 L0.1578761512700213 1.387369579909965 L0.15580909426995948 1.380599966910033 L0.15580909426995948 1.3729776939099665 L0.15508562426996253 1.3699029459100345 L0.1527085082699431 1.3657688309100067 L0.15053809826995224 1.3610662759100123 L0.15053809826995224 1.355950308910046 L0.15446550726992303 1.3498524899099706 L0.16583432126998776 1.3413775549100748 L0.20066423726996607 1.3001397629100708 L0.2360109172699696 1.2693406089099923 L0.21182634726998106 1.25068541591002 L0.20872576126993625 1.2375079269099487 L0.22216163326991012 1.225363964910052 L0.35662371026993345 1.1406146159100317 L0.4282472452699766 1.1135620029099798 L0.43816912026998 1.1078000809100033 L0.4645241002699594 1.0873620519100413 L0.49770037026997205 1.0752697669100755 L0.508242362270015 1.069869579909998 L0.5195078252699874 1.0601544109099663 L0.523331880269926 1.0518603429100253 L0.5229184692699151 1.0349879879100214 L0.5154770622699845 1.0293552569100015 L0.5102060672699666 1.0244459959100638 L0.5074155402699931 1.0188132649100439 L0.5088624792699976 1.0139556809100085 L0.524572115269966 0.9814253659099776 L0.531496757269939 0.97282123991004 L0.5334266342699197 0.9695154319099899 L0.5370778112699712 0.9632610999100493 L0.5387314582700116 0.9494118159100751 L0.5355275182699346 0.9383530599100638 L0.5221949992700035 0.9209381019100462 L0.5180608852699935 0.9118947259100807 L0.5329436972699328 0.8768064289100366 L0.5814161902700095 0.8575827959100124 L0.6890065222699535 0.8344317549100353 L0.7557207962699737 0.7996793539099869 L0.7785617792699826 0.7771225919100502 L0.7665728472700026 0.7585707519100353 L0.7800087192699765 0.7426802489099984 L0.7894138302699263 0.7363498859099806 L0.8145285762699404 0.7302003909100208 L0.8182492792699678 0.7238441899100039 L0.8219699832699563 0.7220871899100061 L0.8363360312699841 0.7170228999100274 L0.8350957962699441 0.6999180019099853 L0.865068127269983 0.6927866539099554 L0.9283852282699501 0.6528389559100205 L0.9305938432699792 0.6514455079100046 L0.9496107702699463 0.630051464910018 L0.9786529252699312 0.6096651119100542 L1.0465557572699753 0.5757395349099497 L1.0425249962698944 0.5509348479100069 L1.048932873269938 0.5304193029100404 L1.0677430952699511 0.5172418139100543 L1.0768381462699255 0.5164666659100519 L1.0822124962699649 0.515019725910058 L1.0967852502700213 0.5016096929100158 L1.1072238892699646 0.49744973990998886 L1.1174558222699646 0.49553771191005325 L1.1268609332699144 0.4914552739100415 L1.134612398269927 0.480474031910056 L1.1241737592699836 0.47031961290999647 L1.1091875932699269 0.4610695319099918 L1.0943047812699591 0.45282713991004897 L1.0759079712699746 0.45884744490998486 L0.956948824269948 0.46680561591005443 L0.9619097612699976 0.45401569790998764 L0.9743121052699495 0.4383835769100344 L0.9890915652699777 0.4252577629100571 L1.0148264282699744 0.41497415291006945 L1.0163767212699826 0.3961122559100474 L1.0426283482699192 0.39213316990997527 L1.058854749270016 0.3857769699100331 L1.0737375612699838 0.37717284391001016 L1.0812823202699393 0.3687495849099989 L1.0764247352699146 0.35683816790997724 L1.0660894492699855 0.34301472191000215 L1.0636089802700086 0.3318784499099863 L1.0822124962699649 0.32802855591003066 L1.0911008422699853 0.3233001629100656 L1.10009254127002 0.3217240309100404 L1.1091875932699269 0.3233001629100656 L1.1182826462699653 0.32802855591003066 L1.1442242142699444 0.33058653991002274 L1.1940402952699616 0.32469542691003284 L1.2176047482699675 0.32802855591003066 L1.2306272092699873 0.3331186849100263 L1.2324783612699592 0.3333195849100363 L1.2439597292700215 0.3345656249100202 L1.2711415322699269 0.33270527291002594 L1.252951428269971 0.3610756349100299 L1.2586358352699323 0.3774053879100663 L1.280339937269905 0.3862420569100422 L1.3096921512699895 0.3924949059099774 L1.3138262652699142 0.39474282990996556 L1.316616792269973 0.39833434191003647 L1.320647555269976 0.4019516919100212 L1.3283990192699706 0.40417377991001757 L1.3351169562699896 0.4032436039100773 L1.3729441042699806 0.3920814939099486 L1.3994024372699743 0.3883091149100082 L1.4272390202699556 0.3891168729099874 L1.4688555622699413 0.39032449491005394 L1.4785278592699784 0.3876816929099718 L1.4966574832699893 0.3827280599100149 L1.5108720922699819 0.37011352490997496 L1.5163978802699534 0.3652097499100293 L1.5196018192699272 0.3558563149099925 L1.5179481722699721 0.35022358390997255 L1.5130905882699652 0.3455468669100057 L1.5097832972699665 0.34311807491004487 L1.50471900626997 0.3369427409099828 L1.5046156532699557 0.3307932459099945 L1.516294527269939 0.32846780591005853 L1.531797457270021 0.33213683291005935 L1.536304769270008 0.334086423909973 L1.544819918269984 0.337769563909994 L1.5577390252699717 0.33906147491003225 L1.5730352502699292 0.32970804091001327 L1.5747922482699197 0.32802855591003066 L1.576135836269974 0.32518635290997366 L1.5762391892700167 0.32257669290995494 L1.5760851062699475 0.32220304191005056 L1.57520566026992 0.32007038590997894 L1.5680743122699754 0.31327493491001945 L1.5659039022698993 0.3092441739100238 L1.5672474892699642 0.3060919099099735 L1.5730352502699292 0.3039731769099987 L1.5833705362699435 0.30547179391000867 L1.5914320592699527 0.3036631189100305 L1.595772880270009 0.2979528719100628 L1.5954628222699272 0.2879534829099484 L1.59205217727001 0.288005158909975 L1.575412366269977 0.2793751959100277 L1.5730352502699292 0.27870340191002896 L1.6111755682699753 0.257554504909983 L1.616650158269981 0.2545188319099836 L1.6406280232699872 0.24547545591001807 L1.6757918082699677 0.23649141791008077 L1.6763374602699956 0.23635200891001062 L1.72734107626997 0.22599344091002393 L1.7499753542699112 0.22439147090999967 L1.7368495402699624 0.24942870290998798 L1.726204195269962 0.2563791829099884 L1.7026462532699655 0.2562395119099605 L1.700055920269965 0.2562241539100327 L1.7372100072699412 0.2695253169100269 L1.751732352269987 0.27472431691005994 L1.7737465122699847 0.2767138589099929 L1.8176294192699958 0.27054792891001256 L1.857048921269926 0.26500914691001043 L1.8758591432699108 0.25777444690995566 L1.8917754842699468 0.24488117690994926 L1.909965588269988 0.22563170591001125 L1.9240215782699908 0.23048928991004658 L1.9885137662699366 0.23312478891005384 L1.9946115852699835 0.23741393191001947 L1.997815523269968 0.2467932049100554 L1.9997792282699764 0.25617247691001666 L2.002466402270021 0.2604099449099735 L2.1325876582699594 0.2604099449099735 L2.1775461542699803 0.2535886559100149 L2.187261323270012 0.24911864391000194 L2.1917054972699406 0.24477782391002023 L2.1957362582699362 0.23971353391004158 L2.2042111932699457 0.23312478891005384 L2.2123760702699586 0.2288356449099851 L2.234080171269942 0.22090331191002832 L2.252373628269912 0.2172084479100178 L2.2591949182699738 0.21232502490999394 L2.264155855269938 0.20744160191008376 L2.269323498269931 0.2051678379099755 L2.3232736932699867 0.1990183429099872 L2.341360445270003 0.198966666909989 L2.367302014269943 0.20434101591003895 L2.3788775342699795 0.2051678379099755 L2.384251884269962 0.2095086589100319 L2.389626232269909 0.21914631391006623 L2.3966542272699245 0.2287839679100827 L2.406472749269885 0.23312478891005384 L2.4444032512699083 0.23994607791001243 L2.5083786742699816 0.24020445890999298 L2.511409298269915 0.23985868290997558 L2.5391778282699464 0.23669046191002252 L2.5404180622699686 0.23193622991004048 L2.552096936269952 0.21483133191008363 L2.5826893832699556 0.2011370769100651 L2.612661714269909 0.19907001891001386 L2.6280612912698915 0.20883686490997633 L2.639946871269932 0.22237609091003918 L2.642028121269907 0.22410722391000348 L2.651005627269943 0.23157449591004564 L2.664441499269974 0.22852558590999905 L2.6666143382699135 0.22594749491002375 L2.6709527302699643 0.22079995891001403 L2.672089611269972 0.21330687590997144 L2.6715728472699185 0.20620136691004376 L2.6728130822699585 0.1993800779099999 L2.672399670269958 0.19594359591004462 L2.670022555269985 0.19204202390999825 L2.6683689082699447 0.18749449890997738 L2.6706426712699782 0.181965120910057 L2.6742600222699524 0.17984638690997912 L2.679531018269988 0.17850279891001009 L2.68387183826997 0.17839944690998522 L2.68480201426991 0.18000141591002006 L2.685422131269978 0.18615091191008304 L2.69193336226994 0.18837299790998685 L2.6976177692699865 0.16467935391005284 L2.6885227172699375 0.16408507491001245 L2.6838976552699636 0.1628019929100546 L2.6725030232699725 0.15964090190998803 L2.658550386269984 0.15803893191004903 L2.6099745402699783 0.16361998691007074 L2.594988374270007 0.16871011591003793 L2.581139091269937 0.17540221390998312 L2.566359631269937 0.18056985690997607 L2.548582938269992 0.1810866209100297 L2.527912366269992 0.17312845090994955 L2.50228085527002 0.15992512291006022 L2.497319917269981 0.15940835791001717 L2.481610282270002 0.15550678790997807 L2.4880181602699496 0.14468057391001565 L2.4855376912699727 0.13615396291000792 L2.4813002232699306 0.12884174791002323 L2.482437105270013 0.12145201791002336 L2.4922556272700023 0.11388142090995501 L2.517577079269988 0.10450214891002219 L2.52822242426996 0.09778421190997477 L2.5357671832699156 0.07778543290995543 L2.5404180622699686 0.07049905591005512 L2.5539572872699567 0.05706318291000656 L2.5618121052699836 0.05391092091004879 L2.572974214269924 0.05411762691002053 L2.6268210572699546 0.046882926910051026 L2.641910575269951 0.041715282909954965 L2.632608818269948 0.025953971909977724 L2.6485251592699557 0.019804475910000008 L2.673433199269941 0.02073465191005397 L2.69193336226994 0.026367382909988635 L2.6934836542699587 0.03365375991005948 L2.6944138302700127 0.046572867910064986 L2.6979278282699726 0.05871682990996163 L2.7077463502699617 0.06365192891001215 L2.720148693269924 0.058174226910033155 L2.72531633727002 0.03636677291000723 L2.734411389269984 0.02995889491005954 L2.7473304972699895 0.032852774910047344 L2.756942314269911 0.042697135910025 L2.7647971312699484 0.05427265590997621 L2.772238537269975 0.062230826910017356 L2.7825738242699787 0.06380695791005309 L2.79363258026999 0.062256665910034314 L2.8034511022699506 0.06354857591008312 L2.8100656862699553 0.07365131891003074 L2.807378512269911 0.07742369791005643 L2.7940459922699903 0.09093708491001706 L2.790738700270002 0.09747415391000658 L2.794976167269941 0.10563902991003005 L2.8029343382699254 0.11227945191003386 L2.8054148072699876 0.11990172591000459 L2.807378512269911 0.12641295590997714 L2.860191825269969 0.12589619191000878 L2.8520269492699457 0.11972085791003195 L2.8610186482699804 0.10010965191002441 L2.887890392269985 0.10093647391004623 L2.9205498982699725 0.11377806791002598 L2.9463881142699835 0.13028868891000656 L2.9279913052699884 0.13318256791000493 L2.9280946572700133 0.14013304890999478 L2.942244091269946 0.14968882990998367 L2.9429774702699705 0.1501841149100116 L2.972019624269966 0.16483438291000851 L2.996514253269912 0.16917520390997964 L3.0356849892699573 0.16666889691000364 L3.072065197269926 0.15881407890997679 L3.087981538269962 0.14713520490999343 L3.1068951132699896 0.14207091391002535 L3.2184128532700003 0.15054584891000644 L3.2737066362699396 0.15054584891000644 L3.2872458622700025 0.16483438291000851 L3.324659599269954 0.1648085449100094 L3.3635202762700134 0.17088052591002878 L3.6377906462699388 0.2864234509100285 L3.643367563269952 0.3040792149099829 L3.6452601842699766 0.31007099590996035 L3.674819104269919 0.3402500319099815 L3.712026135270013 0.35177387691000916 L3.7406548792699867 0.3688787759100407 L3.7398280562699755 0.411253449910042 L3.730112886269926 0.4264463219099852 L3.6913555622699947 0.45970010591002364 L3.6867046832699417 0.46866596691005924 L3.6815370402699488 0.4862876299100307 L3.6777129842699923 0.4931605959100054 L3.6436065392699435 0.5211175449100196 L3.6114637972699812 0.5581695479099764 L3.594927340270009 0.5772381509100555 L3.5776674112699185 0.610957023910025 L3.575290295269956 0.6446242189099607 L3.582938407269954 0.6611606769100646 L3.593790458269983 0.6755784019099664 L3.6021620402699783 0.6915980959100168 L3.6026788042699183 0.7129404619100157 L3.593170340270011 0.7262729809099469 L3.5778741172699755 0.7370216789100752 L3.566195243269992 0.747744538909977 L3.5673321252699894 0.7570721359100148 L3.5898630492700123 0.7616196619100535 L3.6509445922700126 0.7685701409100361 L3.6715118122699026 0.7641001299100125 L3.690218681269987 0.7674849369100443 L3.7426185832699206 0.7630407629100304 L3.759361747269968 0.7647719239100113 L3.9482907842699193 0.8054929529100647 L3.9466371372699642 0.8168876059099759 L3.9508746052700063 0.819368074910038 L3.957075777269897 0.8190321779100529 L3.9608998332699388 0.8221327629099946 L3.9608998332699388 0.8280238769100023 L3.956765718269911 0.8375840169099931 L3.954285250269952 0.8610451169100699 L3.951081311269978 0.8718196539099878 L3.952734956270011 0.8811989259099491 L3.9654473592699775 0.8935495929099986 L3.9902520472699097 0.9065720539100468 L4.097222261269967 0.9302140219099542 L4.135876232269969 0.955406281909994 L4.158407157269896 0.9643463049100305 L4.201608655269955 0.973854768910023 L4.215496480269995 0.9742193239099706 L4.222279227269955 0.9743973709100473 L4.248117443269966 0.9693589189100109 L4.29173235326994 0.954140209910058 L4.301964286269912 0.9439341149100002 L4.304651460269928 0.936286002910002 L4.305478283269967 0.9278627439100191 L4.310232515269949 0.9152020179099836 L4.325425387269978 0.8976578689100094 L4.341651786269982 0.8955908129100507 L4.36108212426996 0.8990789719099936 L4.385990165269935 0.8982779869099815 L4.386506929269989 0.8795969559100101 L4.403973564269937 0.8566526199099869 L4.4291916632699655 0.8368605469099961 L4.458233818269979 0.8254658939099997 L4.463711519269968 0.8247165859100036 L4.469292574269962 0.8254658939099997 L4.474563570269912 0.8278171709100306 L4.474666922269937 0.8278171709100306 L4.474666922269937 0.8279722009099757 L4.485002209269941 0.8355686369100326 L4.5058794882699305 0.8585646479100077 L4.539882580269965 0.8770648109100065 L4.548770927269975 0.8843511879099921 L4.554145275269922 0.9012235439099854 L4.541742932269959 0.9352007969100029 L4.544120048270007 0.9565431639100197 Z" fill="black" stroke="black" stroke-width="0.5" vector-effect="non-scaling-stroke"/></svg>