<svg xmlns="http://www.w3.org/2000/svg" viewBox="0 0 6.7868619454199575 5.112101916480057"><path d="M0.10072892621002438 4.630678099240008 L0.12734149821000074 4.597076247240032 L0.1773642852099897 4.54707929924006 L0.18501239720995954 4.5214477882400885 L0.18118834121003147 4.508993768239996 L0.19286721521001482 4.479202304240111 L0.21002379020995932 4.454242588240042 L0.21715513820998922 4.452692295240006 L0.231211127210031 4.430083856240053 L0.20775002720995417 4.397295160240041 L0.20216897221001773 4.384815301240074 L0.18893980621004403 4.289601475239998 L0.19204039220994673 4.276346470240007 L0.15462665520999508 4.263117303240101 L0.15462665520999508 4.2482603282400575 L0.16558205820996363 4.233455031240048 L0.1765374622100353 4.213895501240039 L0.1733335232099762 4.185034214240083 L0.15080259920995331 4.173303663240084 L0.1467718372100535 4.126562331240102 L0.11876321120996636 4.110129225240023 L0.11173521621003601 4.102326084240012 L0.14522154420996003 4.0625352312400125 L0.10698098421005398 4.0406244242400575 L0.12889179221002678 4.032149489240048 L0.13664325620999307 4.0250956552400154 L0.15307636220995846 4.014992913240086 L0.15545347820994948 4.001660394240069 L0.15855406420996587 3.9961568532400733 L0.16010435621001307 3.9798271012400264 L0.16558205820996363 3.9736517672400495 L0.16423847121001245 3.968303257240102 L0.18825466420997827 3.956282494240064 L0.21322772921001842 3.943782790240043 L0.23162453921003134 3.9346102232400355 L0.2626303982100353 3.9126735772399783 L0.2785467402099471 3.880763380240005 L0.2650075142099695 3.860454543240074 L0.2763763292099952 3.847199537240094 L0.2999407822100011 3.8408174992400674 L0.32340188320995367 3.8410758802400196 L0.34241881020994924 3.833763665240035 L0.36298603020998144 3.8223948512400554 L0.3783856062099744 3.807227817240026 L0.3815895452099767 3.788675978240086 L0.37280455220997055 3.7773846782400184 L0.35606138821003697 3.7669977152401017 L0.33766457821002405 3.759323765240019 L0.32340188320995367 3.756016473240031 L0.30004413520998696 3.7450869072400437 L0.277926622209975 3.7416245862401 L0.26469745521001187 3.7347257832400302 L0.26852151121005363 3.7133575782400143 L0.27255227421005657 3.709946933240012 L0.2855747342100585 3.705812819240059 L0.2903289662099837 3.7019370862400294 L0.2930161412099892 3.692325270240012 L0.290122260210012 3.674186843239987 L0.2915692002100059 3.66581526124002 L0.29901060721005024 3.656901076240068 L0.31730406421002044 3.642870925240082 L0.32340188320995367 3.631476271240068 L0.337147813209981 3.6143196952401055 L0.3702207312099972 3.5907294042401006 L0.3836566032099995 3.5694128762400155 L0.39357847821003134 3.558586663240071 L0.4095981712099501 3.5530314462400483 L0.4282016882100379 3.5489748472400535 L0.4455649682099647 3.5427478362400606 L0.48142841320998286 3.5244027042400816 L0.4880429962099697 3.527606642240066 L0.5007553982100603 3.5409650002399857 L0.5088169222100305 3.5452283052400375 L0.5296942002100309 3.5448148942400266 L0.5458172472099818 3.5367275332400467 L0.5597698842099703 3.5272707452400525 L0.574962755209981 3.5224906762400607 L0.5923260362100109 3.5252812032400342 L0.6436924102100079 3.5463393492400357 L0.6814162062100309 3.553832431240089 L0.700639839210055 3.551248610240087 L0.7127321242100493 3.538019443240067 L0.7107684192100123 3.5174780612400056 L0.6935084912100251 3.5086155532400127 L0.6542344022099655 3.5030344992399804 L0.624778836210055 3.4839142192400843 L0.6184743112100364 3.4778164002400374 L0.612066433209975 3.468256259240029 L0.6103094352100129 3.464638909240044 L0.6317034782099995 3.4285170832400453 L0.6454494092099594 3.4106370382400755 L0.6611590442100237 3.394513991240096 L0.7009498972100232 3.3654718362399976 L0.7342295202099649 3.330306024240052 L0.7553135042099939 3.3213918392400146 L0.7667856722099486 3.3222186622400542 L0.7882830672099885 3.3288849212400677 L0.8020289992099947 3.328316481240101 L0.8183587512100416 3.3215210302400564 L0.8238364532100491 3.3122709492400517 L0.8258001572099829 3.300514560240053 L0.8315879182099479 3.2863810562400246 L0.851121609210054 3.26583967424002 L0.8958734002100073 3.234032830240089 L0.9190244412100128 3.2017608982400176 L0.947239773209958 3.1759226822400066 L0.9466924682099602 3.1749240912400793 L0.9413486602100534 3.1651739852399814 L0.9171640892099617 3.145278558240072 L0.9106528592100176 3.1308866722400737 L0.905898628210025 3.1120764502400604 L0.9134433862099627 3.099157342240055 L0.9230552032099695 3.0881244242400427 L0.9251222602100597 3.0751278012401073 L0.9199546172099531 3.0673504982400956 L0.9134433862099627 3.0660585872400574 L0.9061053332100073 3.0665236752400844 L0.8989739852100342 3.0639398532399795 L0.8883286402100339 3.054302198240059 L0.8667278912099619 3.029135776240018 L0.8617669542100543 3.0213843122401087 L0.8590797802099814 3.013374464240023 L0.8599066032100495 3.0051579122400867 L0.8631105412100055 2.9999644302399915 L0.8667278912099619 2.995236037239998 L0.8694150672100136 2.988337233240024 L0.8729290642099841 2.9719299662400758 L0.8737558862100059 2.9608453712400475 L0.8682781852099879 2.952086216240069 L0.8523618442099519 2.9426035902400187 L0.8450237902100071 2.944722324240068 L0.8377890892099913 2.940769077240013 L0.823319688210006 2.925886264240056 L0.8063698192099764 2.919788445240009 L0.7929339462100415 2.910486688240063 L0.7830120712099529 2.8975675802400573 L0.7766041942099946 2.8808502542400376 L0.7766041942099946 2.880695224239979 L0.7628582632099778 2.876690301240096 L0.7354697542099871 2.874881626240004 L0.7062208932100589 2.875992669240013 L0.6867905542100061 2.8808502542400376 L0.6841033802100469 2.881547886240007 L0.6813128532099881 2.8817287532400755 L0.6785223252100536 2.881547886240007 L0.6758351512100376 2.8808502542400376 L0.6729898242100489 2.8764216412400785 L0.6630193952100285 2.8609031512401017 L0.6797625592099621 2.8461753672401002 L0.7071510692099992 2.8339280532399798 L0.7266847602100484 2.8212156512400313 L0.7312322862100586 2.805506015240063 L0.7299920522100365 2.79077823324004 L0.732059109210013 2.778789300240014 L0.7468385692100128 2.7711928652400317 L0.7616180282100231 2.7747068622400874 L0.7722633732100235 2.781838210240032 L0.7793947212100534 2.7771873312400643 L0.7833221302100242 2.7456647072401026 L0.7591375602100356 2.752124260240059 L0.7343328732100076 2.752537673240049 L0.7106650662099696 2.74581973624003 L0.6905112572100052 2.7308852472400744 L0.6669468052099887 2.695538568239975 L0.65206399221006 2.68747704424009 L0.6312900662099992 2.6994659762400417 L0.627982774210011 2.7071140892401147 L0.6275693632100001 2.7266994562400484 L0.6238486602100011 2.735897861240055 L0.6146502552099946 2.7440627382400677 L0.6047283802100196 2.747783441240067 L0.5443703072099879 2.7505739682400403 L0.5382724882100547 2.7488169692400604 L0.5264902612100286 2.741530592240075 L0.5214259712099647 2.739721917240068 L0.5153281522099746 2.7409621512400335 L0.5033392202099662 2.7469566182400555 L0.49899839921005196 2.7480934992400634 L0.4552784902100484 2.7454926912400808 L0.43037209821000033 2.7440110612400517 L0.4039137652099498 2.7471116472400965 L0.38107278121003674 2.7465948822400534 L0.3593686802100251 2.741375563240034 L0.34190204520996303 2.7296450132400523 L0.33456399221000765 2.7268028092400627 L0.32577899921000153 2.7247874282401128 L0.3130382324532093 2.7251760018208913 L0.30880674220998117 2.7065818562400707 L0.29057757520996574 2.6754946162400373 L0.2840671592099966 2.6488019082400527 L0.2743015342099966 2.634072090240018 L0.27210426821000055 2.6252016482400293 L0.27210426821000055 2.584308093240061 L0.26917458120999527 2.5780825072400333 L0.25159645620999527 2.553261543240019 L0.24769020620999527 2.5432517782400694 L0.2422377322099578 2.522255684240072 L0.2100111692099631 2.450803861240054 L0.21603330420998645 2.4481183142400553 L0.21668434621000188 2.4433982622400734 L0.2227064822099578 2.4369692262400307 L0.22449684621000188 2.4300519082400527 L0.2227064822099578 2.423134590240018 L0.21668434621000188 2.416705554240032 L0.21668434621000188 2.4098696162400373 L0.2217299192099631 2.4054750852400346 L0.22205544020999923 2.404864734240057 L0.2197767942099631 2.403359200240068 L0.21668434621000188 2.3961977412400373 L0.2247409872099979 2.3821596552400663 L0.2305189822099578 2.3748354372400584 L0.23849424220998117 2.3682436402400597 L0.24370257520996574 2.3531069212400624 L0.24044736720998117 2.338458484240057 L0.23458799220998117 2.3250714392400553 L0.23100726320996046 2.3136782102400346 L0.23100726320996046 2.2658266482400293 L0.2373549192099631 2.2539451372400734 L0.28439267920998645 2.1944562052400514 L0.3055515342099966 2.1770815302400663 L0.29643695020996574 2.1502260622400584 L0.25843239321000055 2.0871157102400346 L0.27210426821000055 2.0535463742400637 L0.26722145620999527 2.0364972212400474 L0.2598158572099578 1.971718575240068 L0.2620945022099477 1.957354968240061 L0.2520033572099578 1.949298327240065 L0.20374489321000055 1.8959536012400307 L0.18323708120999527 1.887652820240028 L0.17322731520999923 1.881549304240032 L0.1689955442099631 1.8717022992400487 L0.16150856520999923 1.8660870642400553 L0.1453952842099966 1.868121570240028 L0.1299330442099631 1.8728416222400668 L0.12439919020999923 1.875445788240036 L0.11365700220994768 1.8708071162400373 L0.11512184621000188 1.8595766482400293 L0.1202487992100032 1.8459047732400293 L0.12122536220999791 1.83386050224005 L0.11512184621000188 1.828692859240057 L0.08020973720999791 1.8133526892400553 L0.08191872121000188 1.8084291872400584 L0.08403460720995781 1.7985414912400373 L0.08647601320996046 1.7929262572400333 L0.08020973720999791 1.7929262572400333 L0.06653786220999791 1.7991111532400694 L0.06653786220999791 1.7929262572400333 L0.08655739321000055 1.7870668822400333 L0.1064955442099631 1.7767315962400474 L0.12163226320996046 1.762286609240057 L0.12749163820996046 1.744464343240061 L0.12521299220998117 1.7332745642400553 L0.1163425492100032 1.7195619992400637 L0.1143080442099631 1.7072328982400293 L0.11976051821000055 1.699908679240032 L0.14319801821000055 1.6935610232400293 L0.1816908572099578 1.6329327672400566 L0.18348122121000188 1.6275616742400487 L0.18323708120999527 1.604205554240032 L0.17908669020999923 1.5850405152400597 L0.16850726320996046 1.561562325240068 L0.1549981482099838 1.539630359240057 L0.1417331742100032 1.5253481322400333 L0.18999163820996046 1.527789538240036 L0.2139987992100032 1.5232322472400668 L0.22417132520996574 1.5083396682400192 L0.22840309621000188 1.489052559240072 L0.25444399613530777 1.4572745244793097 L0.26397398621003276 1.4599033952400404 L0.2837143832100537 1.4566477802400684 L0.3038681922099613 1.4506533142400357 L0.32340188320995367 1.4481728452400588 L0.33590757920995884 1.4597483662399995 L0.3362176372100407 1.472667474240005 L0.3332204052099996 1.4857416112400514 L0.33549416820994793 1.4976788672400048 L0.34706968821001283 1.5058437432400282 L0.3625726182099811 1.5088409762400303 L0.39388853620999953 1.5096161232400434 L0.42344745621005586 1.5208299092399997 L0.4816351182099652 1.5552464122400451 L0.4984461342100417 1.5527929132400047 L0.5007553982100603 1.5524558852399863 L0.51191750820999 1.5229486422400598 L0.5180153262100475 1.4523586362399996 L0.5400294862100168 1.4233164812400148 L0.5721722282100359 1.4138596942400383 L0.5962534452099817 1.419389072240044 L0.6121697862100177 1.4162884862399991 L0.6205413682100129 1.380993483240097 L0.6206447212099988 1.3808384532400666 L0.6404884712100056 1.374275546240078 L0.6798659122100048 1.3867812442399767 L0.701156603209995 1.38104515924001 L0.6986761342100181 1.3526231222400824 L0.7017767202099776 1.208032464240027 L0.7036370712099824 1.1933563572400132 L0.7094248322099475 1.1858115992400755 L0.7175897082099709 1.1791453382400547 L0.7189332962100252 1.1705153742400327 L0.7045672472100364 1.156872797240105 L0.716142768209977 1.1474160092400538 L0.7287518182100143 1.1595599712400357 L0.7412575142099627 1.1667946712400052 L0.7550034452100363 1.170567050240031 L0.7823919542099702 1.173615960240049 L0.7883864202099744 1.175114577240059 L0.7938641222099818 1.175114577240059 L0.8023390572099629 1.1719106372400958 L0.8070932892100586 1.1662262312400387 L0.808436876209953 1.1590948832400088 L0.812054226210023 1.1526353292400628 L0.823319688210006 1.1494830662400872 L0.8417164992100084 1.147157626240066 L0.9175775022100083 1.1566660902400585 L0.9365944282099576 1.1569244722401137 L1.007391140210018 1.1460207462400476 L1.013178901209983 1.1377008402399937 L1.0122487252100427 1.1151699152399814 L1.0086313752100295 1.101010573240039 L1.0016033802100424 1.084525791240047 L0.991899739210055 1.0693063962400444 L0.9917848582100532 1.0691262142400646 L0.9802093382099883 1.058222487240009 L0.9638795842099626 1.0530031672400852 L0.9309100212100248 1.0502126402400265 L0.9207814402099643 1.0421511162400279 L0.9253289662099746 1.0419444102400846 L0.9309100212100248 1.0329010352400232 L0.9374212512099689 1.0179148702400411 L0.9376279572100543 1.0090782002400474 L0.9364910752100286 1.0015334412400065 L0.9337005482099698 0.9946604752400319 L0.9288429632100588 0.9879942152401142 L0.9239853792100234 0.9851520122400572 L0.9081723912100301 0.9794159272400904 L0.9011443962100429 0.9744033142400426 L0.8958734002100073 0.9668585542400692 L0.8769598252099513 0.9125466242401146 L0.874376004209978 0.896010166240039 L0.8786134712100306 0.881024001240057 L0.9084824492099983 0.8425250582399926 L0.9131333282099945 0.7993235612400653 L0.9124098582099691 0.7548818302400875 L0.9259490842099467 0.7126105082400827 L0.9378346622099798 0.6892010842400325 L0.9412453072099538 0.669564039240008 L0.942072130209965 0.6502370542400442 L0.9464129512100499 0.6280678642400446 L0.9588152942100123 0.6084308202400095 L0.9751450462100593 0.5907058042400806 L0.9864105092099749 0.5713788182400421 L0.9829998652099903 0.5469358662400836 L0.9923016232099826 0.5464707782400566 L1.0017067332099714 0.5475043062400502 L1.0027012022100052 0.5477819352400033 L1.1868117142099663 0.5991807392399764 L1.2499603132100106 0.6024363542400621 L1.2690805942099814 0.6060537042400469 L1.289027697210031 0.6123582292400656 L1.3078379182100548 0.6211948992400593 L1.3232374952100372 0.63277042024 L1.353726589209998 0.6555080502400799 L1.3615814082100428 0.6683754822400871 L1.3626149362100364 0.6892010842400325 L1.3539332952099699 0.7212921482400461 L1.3576539992099583 0.7327643162400861 L1.3764642202099822 0.7463035422400637 L1.39620461721006 0.7550885352400414 L1.4055063752100523 0.7529181252400505 L1.4132578402099512 0.7435130142400155 L1.4287607702099763 0.7308522882400652 L1.44757099121 0.7240310002400108 L1.4641074492100188 0.7251162042400878 L1.4805405542100516 0.7291469662399876 L1.4992474232099653 0.7311106702400352 L1.5628094352099993 0.717881504240033 L1.585030301210054 0.7164345642400392 L1.7476043572100366 0.7405674572400969 L1.789255561210041 0.7408258402400563 L1.9365333932099702 0.6644997492400293 L1.9972015252099595 0.642899000240071 L2.162876166209969 0.6144769632400298 L2.3231764592100035 0.555359124240077 L2.3510817332099805 0.5492613062400196 L2.36914374621 0.5400193322400568 L2.466113471209951 0.4904018492400368 L2.5331894802099555 0.4694987322400479 L2.567399279209951 0.4666306902400592 L2.6330283472099723 0.4733227882400044 L2.8230942662100347 0.519288975240066 L2.8724969352100516 0.5413031352400637 L2.9783302402100276 0.6309854982400438 L3.0072690712099757 0.6555080502400799 L3.0681439072100147 0.6810878842400356 L3.1385272082099505 0.6883742612400212 L3.30110126420999 0.6821214122401145 L3.3231154252100055 0.676850417239983 L3.3753086212099674 0.6738531832400767 L3.5289943302100255 0.7155043882400705 L3.5827378202099567 0.7137473902400231 L3.7848462102100484 0.6826522632400653 L4.108390490209956 0.6328737732400427 L4.322951037209975 0.5680715262400255 L4.422376492209992 0.5201674742401039 L4.4583432892099495 0.5102972752400419 L4.4958603792100575 0.5046645442399935 L4.533274116210009 0.490608554240076 L4.604547583209978 0.4522402742400047 L4.7368792592100135 0.3810028422400009 L4.757033068209978 0.3710034522399823 L4.778323757209989 0.3644147072399946 L4.800131212210033 0.36090071024005255 L4.8229721952100135 0.35986718124006956 L4.868860867210003 0.349144321240054 L5.002599474210001 0.2897681002401029 L5.052105496210004 0.2745493912400647 L5.23958759221 0.25232852524003846 L5.478229357209955 0.2907757912400868 L5.52287779420999 0.30540022124005617 L5.544478543209948 0.3100511002400239 L5.822911160210026 0.2994574312400502 L6.239503644209947 0.22074153724008028 L6.352387886209954 0.1994118582400617 L6.396106147210048 0.17837955124004878 L6.471450386209995 0.12174218124004454 L6.521679877209976 0.0687221622400429 L6.536149278210019 0.061797520240070014 L6.554339382209946 0.0501186462400014 L6.565708198210018 0.06107404924008364 L6.566948432209983 0.07264957024010954 L6.565294786210018 0.08262312224004376 L6.566328315210001 0.08688642723998186 L6.579970893210032 0.0887209412400054 L6.6103566362099855 0.10050316724007047 L6.616041042209986 0.09828108024009197 L6.622345568209994 0.09275170224008633 L6.628960151210038 0.08846255824001759 L6.6351613232100135 0.08996117524002756 L6.639502143209995 0.09533552424007752 L6.644566433210059 0.10510237024003999 L6.64890725421003 0.11047671824001526 L6.683013699209994 0.1323875262400449 L6.6898349892100555 0.1352555682400336 L6.69634621921 0.14799380824000963 L6.6784661732099835 0.20385603224007554 L6.6898349892100555 0.21659427224002314 L6.697689806210008 0.22261457624005487 L6.699653511210045 0.236748081240016 L6.700376980210024 0.2650409282400048 L6.706784858209971 0.27687483024001125 L6.714329617210012 0.28708092624008685 L6.720014025210048 0.2982688742400157 L6.7203240832099596 0.31278995124005604 L6.719944301209978 0.31302433824004794 L6.689008165210055 0.33211693724000924 L6.625032742209953 0.3808994892400719 L6.625032742209953 0.3810028422400009 L6.624722684209985 0.38105451824002756 L6.521576525210037 0.46970543724008706 L6.321692084210042 0.6414003842400504 L6.186919950209983 0.7571555932400074 L6.16046161621 0.7752940202400325 L6.133073107210009 0.7857326602400789 L5.822911160210026 0.8389077082400078 L5.758005561209984 0.8476410252399873 L5.7285499942099705 0.858648106240075 L5.708499539210038 0.8808689712400266 L5.708499539210038 0.8809723242400409 L5.7083961862099954 0.881024001240057 L5.7083961862099954 0.8811273542400713 L5.620132839209987 1.0202403092399877 L5.6119679642100095 1.0470603772400793 L5.579721870210051 1.2980011332400565 L5.579825222210047 1.3146926202400877 L5.583752631210018 1.332004225240091 L5.60938414220999 1.3807351012400417 L5.609487495210033 1.380683425240015 L5.609487495210033 1.38078677724004 L5.6867954382100265 1.5173675872400665 L5.697647488209952 1.5494586532400874 L5.702401720210048 1.58227318624008 L5.706639187209987 1.7197841732400647 L5.701161486210026 1.7511000912400547 L5.685348498210033 1.7813308042400635 L5.651596411209994 1.8227773322400296 L5.604423204210036 1.8807045832400817 L5.604423204210036 1.8808596132400268 L5.604319851209993 1.8808596132400268 L5.604216498210008 1.8808596132400268 L5.5950180942099905 1.9109352962400905 L5.586233100209995 2.008500400240102 L5.544478543209948 2.132007073240054 L5.534660021210016 2.192881911240015 L5.535464434210041 2.2161205202400467 L5.54117125120996 2.3809841242401077 L5.549646186210055 2.555702142239987 L5.547372423210049 2.581902093240096 L5.538794135210026 2.606551751239998 L5.367125028209955 2.880695224239979 L5.367125028209955 2.8808502542400376 L5.331158230210008 2.9465051612400757 L5.308420600210013 2.9731702002400127 L5.279171740209961 2.988957350240007 L5.033605333209948 3.0435276632400345 L4.886947618210002 3.1170373872399963 L4.776360053210055 3.1724862002400513 L4.665772488209996 3.2278574972401017 L4.555184923210049 3.283228794240067 L4.516249402209951 3.3027420402400693 L4.44459735820999 3.3386517682400196 L4.334009793209987 3.394048903240069 L4.223525580210037 3.449420200240006 L4.112834662209991 3.5047914972400562 L4.0023504512099635 3.560214471240009 L3.891762885210028 3.6155340922400327 L3.781175320209968 3.670931227239997 L3.670587755210022 3.726302525240037 L3.560000190209962 3.7816996602400863 L3.449412625210016 3.83709679624004 L3.338825060209956 3.8925456072400024 L3.22823749521001 3.947916904240053 L3.1176499292099606 4.003339878240006 L2.872703640210034 4.130773960240042 L2.658880640210043 4.24384489424002 L2.5740138622100517 4.288722975240056 L2.399864285209958 4.380681187240036 L2.2725335562099644 4.449695061240099 L2.1011745062099862 4.542505934240005 L1.9298154572099975 4.635187615240078 L1.8377442512100401 4.684969334240115 L1.758353055209966 4.727895135240082 L1.5872007112099595 4.820628493240086 L1.4765097932099707 4.880443963240019 L1.476303087209999 4.880495639240046 L1.3232374952100372 4.964986606240011 L1.1625237902100594 5.05823672824004 L1.1497080352099829 5.061983270240056 L1.1356520452099517 5.061492343240012 L1.0717799752100063 5.047229648240055 L1.0500758732100053 5.046687046240002 L1.0327125922099754 5.055368686240051 L0.9966424422099749 5.032165969240047 L0.8598225042100012 5.018010775240093 L0.823319688210006 5.014234246240072 L0.8070932892100586 5.005630120240049 L0.7507659772099942 5.000798374240041 L0.7310255812100195 4.995708245240046 L0.7162461212100197 4.988602736240033 L0.6283961862100114 4.918090244240055 L0.5639039982099803 4.880443963240019 L0.5313478462100534 4.852745396240003 L0.5204957952100244 4.847706943240034 L0.5153281522099746 4.84910220724003 L0.5039593372100057 4.857809686240067 L0.49899839921005196 4.8598250662400275 L0.49300393321004776 4.858894890240059 L0.4826686472099482 4.855484247240035 L0.47636412321003263 4.854915806240079 L0.4393637972099782 4.859153273240047 L0.42504412620996845 4.858760184240019 L0.413008816209981 4.85842980324005 L0.40939146621002465 4.857706333240053 L0.4091847602100529 4.853417189239984 L0.4036037052100596 4.841764154240018 L0.35854185721001386 4.783860711240088 L0.34913674621003565 4.767117547240041 L0.34841327620995344 4.748333164240044 L0.35141050920998396 4.73130577924001 L0.3467596302099878 4.719936965240031 L0.32340188320995367 4.718412509240004 L0.3089324822100252 4.72066043424001 L0.2984938422100072 4.717585686240078 L0.28970884921000106 4.710583530240079 L0.2806137962100479 4.701023390240088 L0.28433449921004694 4.701488478240002 L0.2875384392099818 4.69740604023999 L0.2888820262099898 4.690920647240027 L0.2873317332099532 4.684254388240014 L0.2835076772100251 4.682523228240051 L0.2705885692100196 4.682652418239989 L0.26562763120995214 4.6812571552400115 L0.24836770320996493 4.666451857239984 L0.23885924020999028 4.66174930124 L0.13137226121000367 4.640613640240069 L0.12217385521000779 4.630743443239986 L0.12227720820999366 4.630510899240015 L0.11803974121005467 4.62774620924008 L0.11287209720995861 4.626971063240056 L0.10698098421005398 4.628056267240048 L0.10072892621002438 4.630678099240008 Z" fill="black" stroke="black" stroke-width="0.5" vector-effect="non-scaling-stroke"/></svg>