<svg xmlns="http://www.w3.org/2000/svg" viewBox="0 0 3.8003466795600502 3.450468749999999"><path d="M3.663479003780054 0.37114908900001353 L3.5924340817799987 0.44972168000002455 L3.5812036127800013 0.46632324300001926 L3.5723331697800234 0.4895166020000232 L3.566555175779996 0.5160872400000329 L3.5645206697800234 0.5424951180000193 L3.565497232780018 0.5681298830000259 L3.578029784780057 0.6215966800000245 L3.5772973627800013 0.6352685550000245 L3.571926268780004 0.6489404300000245 L3.5726586907800595 0.6768945319999915 L3.585679523779987 0.6984602870000316 L3.610419107780018 0.7123763019999814 L3.639553221780062 0.7172591150000329 L3.639553221780062 0.7234440110000122 L3.6271834307799793 0.7223046879999941 L3.6154646807799793 0.7234033210000206 L3.605617675779996 0.7263330080000259 L3.598537596780062 0.7309309900000329 L3.6085473627800013 0.74826497399998 L3.6136743157800595 0.7707259120000316 L3.6105004877800013 0.7902571620000316 L3.587795409780057 0.8020166020000232 L3.586086425779996 0.8105208340000303 L3.5890161127800013 0.8208561200000162 L3.595445148779987 0.8302148439999968 L3.5977237947800234 0.8398990890000135 L3.5881209307799793 0.8481184900000329 L3.5645206697800234 0.8606103520000232 L3.5377465817799987 0.8885644539999902 L3.536851398779987 0.8994694010000188 L3.538479003780054 0.9236393230000175 L3.534084471780062 0.9329166670000149 L3.529201659780057 0.9406884770000232 L3.526109211779982 0.951878256000029 L3.524156086779982 0.9738916020000232 L3.5220402017800154 0.9795475260000188 L3.5182153317799987 0.9841455080000259 L3.5162622067799987 0.9889062499999994 L3.520249836779982 0.9946435550000245 L3.5210636387800207 0.9954573570000065 L3.523586425779996 0.9980615240000219 L3.527004393780004 1.0031884770000232 L3.5296899407800595 1.0083154300000245 L3.5304223627800013 1.0120182300000096 L3.525132648779987 1.0203190110000122 L3.502997232780018 1.0400130209999787 L3.4791528317799987 1.0700830080000259 L3.4615747067799987 1.0829003909999955 L3.455959471780062 1.0897363289999902 L3.458645018780004 1.097060546999998 L3.4554711907800595 1.102268881000029 L3.4300805657800595 1.1197656249999994 L3.4205590817799987 1.1281477870000316 L3.409898273779987 1.1490624999999994 L3.3989933267800154 1.1913802090000303 L3.370754393780004 1.2291406249999994 L3.365139159780057 1.2443994140000285 L3.3658715817799987 1.2607568360000272 L3.372707518780004 1.2789453129999941 L3.3784855137800207 1.2866357430000193 L3.3834497067799987 1.2902978520000232 L3.386623534780057 1.2950585939999968 L3.386867675779996 1.3062890629999941 L3.382717284780057 1.3188623050000245 L3.368801268780004 1.3387597659999955 L3.3658715817799987 1.3508854170000149 L3.3644067377800013 1.3731835939999968 L3.3521997067799987 1.4297428390000135 L3.328029784780057 1.4891503909999955 L3.2975122067799987 1.6284326180000193 L3.279201659780057 1.662571615000033 L3.237209471780062 1.8860416670000149 L3.2198754877800013 1.9782454430000342 L3.2113305657800595 1.9952539069999915 L3.184475096780062 2.028131511000012 L3.1744653317799987 2.0451806640000285 L3.1665714517800154 2.0666650390000285 L3.161037596780062 2.106500651000019 L3.161525878780054 2.141982421999998 L3.1577823887800207 2.1757552090000303 L3.1393090817799987 2.210585937999994 L3.1314152017800154 2.2180322270000232 L3.113186034780057 2.230239258000026 L3.105129393780004 2.237929687999994 L3.1011417637800207 2.245864258000026 L3.094794107780018 2.266168620000016 L3.0765649407800595 2.295709636000012 L3.065334471780062 2.341445312999994 L3.0572778317799987 2.3620751960000206 L3.0182153317799987 2.41395507899999 L3.013332518780004 2.423476562999994 L2.9605167637800207 2.46473632899999 L2.947984211779982 2.478082683000011 L2.946193846780062 2.487319336000027 L2.948635253780054 2.5092919930000193 L2.947984211779982 2.519098308000011 L2.943264159780057 2.530288086000027 L2.9351261387800207 2.542617187999994 L2.917059732780018 2.563776042000015 L2.899156086779982 2.579482421999998 L2.8379581697800234 2.6171614590000303 L2.796779784780057 2.6588281249999994 L2.786770018780004 2.663710937999994 L2.778713378780054 2.6733544930000193 L2.758856607780018 2.720473633000026 L2.748928221780062 2.73817382899999 L2.7183292637800207 2.773452149000022 L2.705959471780062 2.7944482430000193 L2.6987980137800207 2.8376204430000342 L2.680568846780062 2.896499024000022 L2.644273273779987 2.95529622399998 L2.6390649407800595 2.975315756000029 L2.632717284780057 3.0319970710000206 L2.633693846780062 3.083551433000011 L2.6369490557799793 3.2654361980000175 L2.631008300779996 3.2912744140000285 L2.6213240557799793 3.3123111980000175 L2.6085473627800013 3.321018881000029 L2.593410643780004 3.333999024000022 L2.593898925779996 3.3635400390000285 L2.599270018780004 3.3957666020000232 L2.5980493157800595 3.4166406249999994 L2.580796711779982 3.3926334640000135 L2.5550805657800595 3.3744856769999814 L2.525132648779987 3.3619531249999994 L2.495021971780062 3.355117187999994 L2.493801268780004 3.3784326180000193 L2.4850122067799987 3.3867740890000135 L2.472072753780054 3.3837630209999787 L2.458075357780018 3.372817383000026 L2.4572615557799793 3.364557292000015 L2.4620629877800013 3.339858399000022 L2.441066893780004 3.3073876960000206 L2.439357909780057 3.29872070399999 L2.439602050779996 3.2916406249999994 L2.441066893780004 3.2800439460000206 L2.441066893780004 3.242202149000022 L2.443264159780057 3.2310937499999994 L2.452541503780054 3.21864257899999 L2.4546573887800207 3.208022461000027 L2.3789737947800234 3.026178386000012 L2.372707518780004 3.0162499999999994 L2.3516300447800234 2.99208007899999 L2.335028482780018 2.957412109999993 L2.3273787427799846 2.947402343999997 L2.2964542637800207 2.924819336000027 L2.284084471780062 2.9182275390000285 L2.2799340817799987 2.9169661459999787 L2.2757836907800595 2.91428059899998 L2.2721215817799987 2.901178386000012 L2.269680175779996 2.896499024000022 L2.252997232780018 2.886489258000026 L2.2149112947800234 2.8696435550000245 L2.1976586907800595 2.8586572270000232 L2.179429523779987 2.843886718999997 L2.170965982780018 2.838922526000019 L2.159816893780004 2.834446615000033 L2.153713378780054 2.834772136000012 L2.1467146807799793 2.8371728520000232 L2.138576659780057 2.8373763019999814 L2.088934732780018 2.8015283210000206 L2.042873534780057 2.7411848959999787 L2.0913761387800207 2.795302734999993 L2.085679523779987 2.769545899000022 L2.0776228837800375 2.755426433000011 L2.071193846780062 2.7441959640000135 L2.0510115557799793 2.7229557300000096 L2.016669107780018 2.6936588550000096 L2.0034855137800207 2.678725586000027 L1.9973006177799846 2.6621647140000135 L2.005520018780004 2.6460107430000193 L2.0098331697800234 2.6316064460000206 L2.004055175779996 2.611342774000022 L1.9938826487799872 2.591363933000011 L1.9752465817799987 2.5645084640000135 L1.9576684567799987 2.5287825519999814 L1.9537622067799987 2.5129134120000316 L1.954169107780018 2.502659506000029 L1.9598657217800621 2.490004883000026 L1.9611678057799793 2.4815820319999915 L1.9590519197800234 2.477106120000016 L1.954169107780018 2.4737695319999915 L1.9491235347800568 2.469212240000033 L1.946926268780004 2.461074218999997 L1.9361840817799987 2.443902995000016 L1.933254393780004 2.437148437999994 L1.9251977537800542 2.389378256000029 L1.921535643780004 2.36740559899998 L1.9146183267800154 2.3547102870000316 L1.8998071287800542 2.3409570319999915 L1.9178735347800568 2.329116211000027 L1.9279646807799793 2.3078759770000232 L1.9238956697800234 2.289524740000033 L1.8998071287800542 2.2863509120000316 L1.8951684567799987 2.29286132899999 L1.8911808267800154 2.304702149000022 L1.884426268780004 2.314101562999994 L1.871812336779982 2.3136132819999915 L1.866848143780004 2.3058007819999915 L1.8687198887800207 2.281264649000022 L1.8656274407800595 2.2726790370000316 L1.8501652017800154 2.2664941409999955 L1.841457518780004 2.2736962890000285 L1.8343774407800595 2.2838281249999994 L1.8239607737799872 2.2863509120000316 L1.8128930657800595 2.27756184899998 L1.8101261387800207 2.2654361980000175 L1.812648925779996 2.253473308000011 L1.817124836779982 2.2453759770000232 L1.828273925779996 2.2400455730000175 L1.8424340817799987 2.238295899000022 L1.8541528317799987 2.234837240000033 L1.858140461779982 2.224257812999994 L1.8526879877800013 2.218764649000022 L1.817124836779982 2.210585937999994 L1.817124836779982 2.2037499999999994 L1.8469099927799846 2.203505859999993 L1.8439803057799793 2.1943098959999787 L1.827785643780004 2.1814518230000175 L1.817124836779982 2.1702213550000096 L1.8197290037800542 2.1562239590000303 L1.8292504877800013 2.1512597659999955 L1.8395857737799872 2.148085937999994 L1.8446313467800621 2.139215495000016 L1.8415388987799872 2.1255029300000245 L1.8363305657800595 2.114272461000027 L1.8398655887799862 2.1039567119999987 L1.8451503847800552 2.0909612679999867 L1.8538041757799704 2.0817581990000207 L1.8519555657800595 2.0737451180000193 L1.8537459307799793 2.0658919269999814 L1.8666040037800542 2.034560546999998 L1.8726261387800207 2.0285384120000316 L1.8823917637800207 2.0262597659999955 L1.8682002097799852 2.0175503770000063 L1.874233888779969 2.0033516870000057 L1.8888863827800435 2.002439013 L1.9012719717800621 1.9973697920000149 L1.9066430657800595 1.9989973959999787 L1.9034692377800013 1.9879296879999941 L1.8950481537799817 1.9935150310000012 L1.8879911087799712 1.9919142739999955 L1.8786482737799872 1.9915104170000149 L1.8784855137800207 1.9799951180000193 L1.8878558317800582 1.960288847000001 L1.9018709527800013 1.9593947190000307 L1.922284060780072 1.9595376349999896 L1.908352050779996 1.9231103520000232 L1.8924829097800568 1.894993490000033 L1.8998071287800542 1.8822981769999814 L1.8998071287800542 1.875462240000033 L1.8882511387800207 1.8702539069999915 L1.8897973627800013 1.8642724610000272 L1.8963891597800568 1.8569889330000109 L1.8998071287800542 1.8481591800000245 L1.9152502757799823 1.829773376000034 L1.8827359187800141 1.8316376810000037 L1.8819682047800654 1.8012285409999862 L1.899395802779992 1.7833025010000227 L1.8985742057800792 1.725986572999986 L1.9013156797799695 1.683213388999988 L1.9119365857800688 1.6490372279999832 L1.9285116327800154 1.6223475710000201 L1.933254393780004 1.5874169930000193 L1.942124836779982 1.55685872399998 L1.946926268780004 1.5464420580000109 L1.970363768780004 1.5180810550000245 L1.974270018780004 1.5086002610000122 L1.9771997067799987 1.503310546999998 L1.9984399407800595 1.4884179689999968 L2.0044620767800154 1.4778385420000149 L2.010646971780062 1.4531803390000135 L2.0152042637800207 1.4428450519999814 L2.0421411127800013 1.4192447920000149 L2.0499536127800013 1.4093164069999915 L2.060207518780004 1.3823795580000109 L2.075832518780004 1.3554427090000303 L2.097805175779996 1.2994531249999994 L2.1080590817799987 1.2831770840000303 L2.1195336907800595 1.2727197270000232 L2.1289737947800234 1.2669010420000149 L2.1372745767800154 1.2632389330000109 L2.1432153317799987 1.2581933599999928 L2.145575357780018 1.2479394539999902 L2.150051268780004 1.2383365890000135 L2.169582518780004 1.2243391930000342 L2.1740584307799793 1.2137597659999955 L2.1763370767800154 1.1787255860000272 L2.1797550447800234 1.1690820319999915 L2.1900089517800154 1.160170899000022 L2.233140461779982 1.1141503909999955 L2.2355004877800013 1.1115869140000285 L2.2383487947800234 1.1001529950000162 L2.250881346780062 1.0905908210000206 L2.2593448887800207 1.068374024000022 L2.269680175779996 1.0256901050000096 L2.3050805657800595 0.9697005209999787 L2.315822753780054 0.9353580730000175 L2.3285180657800595 0.9163151050000096 L2.379055175779996 0.8652490240000219 L2.4066430657800595 0.8373763019999814 L2.413723143780004 0.8233789069999915 L2.417059732780018 0.8005517580000259 L2.425441893780004 0.7812239590000303 L2.4479028317799987 0.7451318360000272 L2.454006346780062 0.7235253909999955 L2.459865721780062 0.7142480469999981 L2.4855818677799846 0.7073307300000096 L2.4928247067799987 0.7000065110000122 L2.497137857780018 0.6908919269999814 L2.5023461907800595 0.6824283860000122 L2.518296711779982 0.6672916670000149 L2.5357934567799987 0.6555322270000232 L2.5570336907800595 0.6504459640000135 L2.5843774407800595 0.6551660159999955 L2.5807153317799987 0.6362044269999814 L2.5910506177799846 0.6234277349999928 L2.605210773779987 0.6104069010000188 L2.612209471780062 0.5905908210000206 L2.615383300779996 0.5842431640000285 L2.629055175779996 0.5780175789999902 L2.634670409780057 0.5593408210000206 L2.6558292637800207 0.5200748700000162 L2.6641300447800234 0.5097802740000219 L2.666896971780062 0.5043684900000329 L2.666734211779982 0.4985091150000329 L2.664211425779996 0.4921614590000303 L2.660061034780057 0.48443033900001353 L2.665757648779987 0.4741764330000109 L2.6723494457800427 0.4678287760000188 L2.672593586779982 0.4675439460000206 L2.6782902017800154 0.45985351599999547 L2.680568846780062 0.44658854200001485 L2.683742675779996 0.4365380860000272 L2.6916365557799793 0.42665039099999547 L2.7017277017800154 0.4192041020000232 L2.7113305657800595 0.41623372399998004 L2.7105167637800207 0.4120019539999902 L2.713039550779996 0.40187011800001926 L2.721584471780062 0.3808333340000303 L2.729396971780062 0.3694807950000012 L2.7632511387800207 0.3205712890000285 L2.7896997067799987 0.2920068360000272 L2.8170434567799987 0.27101074300001926 L2.8871118157800595 0.2501367189999968 L2.9034692377800013 0.24085937499999943 L2.9175480137800207 0.2296289069999915 L2.934637857780018 0.22120605500002455 L2.968654784780057 0.2100976569999915 L3.0451521807799793 0.19756510500000957 L3.0879581697800234 0.1905664069999915 L3.1060245767800154 0.18413737000001618 L3.1294620767800154 0.16647786500003292 L3.136460773779987 0.1633040370000316 L3.1450870767800154 0.1619205730000175 L3.1566430657800595 0.16175781299999414 L3.1699894197800234 0.16578613300002587 L3.177150878780054 0.17486002600001882 L3.181789550779996 0.18434082100002058 L3.1877303057799793 0.18967122399998004 L3.200913898779987 0.18482910200002323 L3.187160643780004 0.1652571620000316 L3.165106607780018 0.14503418000002455 L3.1534692377800013 0.13844238300002587 L3.1568058267800154 0.12912434899998004 L3.163723143780004 0.12391601599999547 L3.170965982780018 0.12082356800003424 L3.173977050779996 0.11764974000003292 L3.1818709307799793 0.09990885500000957 L3.1939965817799987 0.07980794300003424 L3.2189803057799793 0.05934082100002058 L3.255520018780004 0.04249511800001926 L3.2974308267800154 0.03382812499999943 L3.3385278317799987 0.0382226569999915 L3.355617675779996 0.04981933600002719 L3.3937036127800013 0.09844401100001221 L3.4073754877800013 0.1241601569999915 L3.411851398779987 0.12245117199999811 L3.4221053057799793 0.11988769600002058 L3.4338240557799793 0.11866699300001926 L3.442124836779982 0.12074218799999414 L3.4416365557799793 0.12379394600002058 L3.437648925779996 0.12822916700001485 L3.4338240557799793 0.1343326830000109 L3.4341495767800154 0.14186035200002323 L3.438218586779982 0.14621419300003424 L3.4522973627800013 0.15516601599999547 L3.455227050779996 0.15866536500003292 L3.4615747067799987 0.16436198000000957 L3.476223143780004 0.16924479200001485 L3.650539550779996 0.20757487000001618 L3.662827961779982 0.2146549480000175 L3.6566430657800595 0.22726888100002895 L3.6549340817799987 0.23736002600001882 L3.657619628780054 0.2552636719999981 L3.666896971780062 0.28521158900001353 L3.6769067377800013 0.2992089849999928 L3.684963378780054 0.3025455730000175 L3.7115747067799987 0.29888346400001353 L3.7252465817799987 0.3001855469999981 L3.741278482780018 0.3040917969999981 L3.7554386387800207 0.3105615240000219 L3.763088378780054 0.3193505860000272 L3.684475096780062 0.3546289069999915 L3.663479003780054 0.37114908900001353 Z M3.321193846780062 3.2766259770000232 L3.338771971780062 3.2890364590000303 L3.346584471780062 3.2977441409999955 L3.345363768780004 3.3073876960000206 L3.3246118157800595 3.313491211000027 L3.296617023779987 3.3030338550000096 L3.270900878780054 3.286188151000019 L3.256008300779996 3.273208008000026 L3.260484211779982 3.263686524000022 L3.2603214517800154 3.254694011000012 L3.2564965817799987 3.246474609999993 L3.249742023779987 3.239069011000012 L3.3242862947800234 3.239069011000012 L3.3242862947800234 3.2452539069999915 L3.3223331697800234 3.249078776000019 L3.319077961779982 3.257583008000026 L3.317775878780054 3.267714843999997 L3.321193846780062 3.2766259770000232 Z M0.1519230137800207 0.7985579430000342 L0.18030328477996704 0.7932807690000203 L0.2072966107799914 0.8157212579999822 L0.22506142078000835 0.8594214810000125 L0.22106221777997348 0.8897260070000215 L0.2064917107800568 0.905735646000025 L0.18060720077997416 0.8909454810000028 L0.1613308837800389 0.885239253999984 L0.13056277678006722 0.8880478239999974 L0.10346693978002008 0.9036699040000116 L0.08870055078003247 0.9247666369999905 L0.07592431778007835 0.9307047409999853 L0.06093994078005949 0.9242089849999928 L0.05068603478005684 0.9235986330000259 L0.04165283177999868 0.9199772140000135 L0.037258300779996034 0.912815756000029 L0.03880452377998722 0.9102115890000135 L0.04710530577997929 0.9006494140000285 L0.04970947178006213 0.8962548830000259 L0.050441893780003966 0.8891748050000245 L0.05003499277998458 0.8806298830000259 L0.04726806578005949 0.8656152349999928 L0.040676268780003966 0.8512109379999941 L0.03978108677998193 0.8438867189999968 L0.04555908177999868 0.8407942709999787 L0.07436348678007221 0.8279003319999987 L0.11251529678000338 0.8506873730000137 L0.13912081777996832 0.8477380600000259 L0.143099383779969 0.8174320460000075 L0.1519230137800207 0.7985579430000342 Z M1.4056665037800542 1.7177880860000272 L1.423488768780004 1.7479394539999902 L1.4283715817799987 1.7620182300000096 L1.4261743157800595 1.7724348959999787 L1.4188500967800621 1.7655175789999902 L1.4090844717800621 1.7596582039999902 L1.3983422847800568 1.7577050789999902 L1.3833683267800154 1.7654361980000175 L1.372707518780004 1.7666162110000272 L1.3674178057799793 1.7693017580000259 L1.3644881177799846 1.7744287110000272 L1.360419107780018 1.7886295580000109 L1.3578149407800595 1.7928613289999902 L1.3400740557799793 1.8023014330000109 L1.3216821287800542 1.8046614590000303 L1.3032902017800154 1.7981510420000149 L1.284816893780004 1.781264649000022 L1.2896997067799987 1.7724348959999787 L1.299872232780018 1.783665365000033 L1.3150903317799987 1.7866357430000193 L1.3314477537800542 1.7824853520000232 L1.3448754877800013 1.7724348959999787 L1.335598143780004 1.7692610680000342 L1.328273925779996 1.7651920580000109 L1.3223331697800234 1.7595768230000175 L1.3169620767800154 1.7519270840000303 L1.3148461907800595 1.7551416020000232 L1.3148461907800595 1.7562402349999928 L1.314113768780004 1.7568505860000272 L1.3101261387800207 1.7587630209999787 L1.3092309567799987 1.7447656249999994 L1.3101261387800207 1.7308496099999928 L1.3169620767800154 1.7308496099999928 L1.324937336779982 1.7327213550000096 L1.353176268780004 1.7165266930000342 L1.3708357737799872 1.710952149000022 L1.3661157217800621 1.7263736980000175 L1.363999836779982 1.7308496099999928 L1.3792993157800595 1.726577149000022 L1.3910180657800595 1.7277571620000316 L1.3995629877800013 1.7271874999999994 L1.4056665037800542 1.7177880860000272 Z M1.2347680657800595 1.7177880860000272 L1.247137857780018 1.6816145840000303 L1.2590193677799846 1.6708723959999787 L1.275051268780004 1.6836490890000135 L1.2655297847800568 1.688857421999998 L1.2589379877800013 1.7014306640000285 L1.2484399407800595 1.7308496099999928 L1.2479516597800568 1.7387841800000245 L1.2505558267800154 1.745498046999998 L1.2494165037800542 1.75021809899998 L1.237941893780004 1.7519270840000303 L1.2296411127800013 1.7522119140000285 L1.2237817377800013 1.7531884770000232 L1.218898925779996 1.755263671999998 L1.2142602537800542 1.7587630209999787 L1.2001000967800621 1.7587630209999787 L1.2025415037800542 1.7514794930000193 L1.207180175779996 1.7471256510000188 L1.2142602537800542 1.7450911459999787 L1.2238631177799846 1.7444401050000096 L1.2321638987799872 1.7415104170000149 L1.234523925779996 1.7344303390000135 L1.2347680657800595 1.7177880860000272 Z M1.3303084307799793 1.69357747399998 L1.3270532217800621 1.6815332039999902 L1.3194848627800013 1.6714013680000193 L1.3029646807799793 1.6563053390000135 L1.3241235347800568 1.6420638019999814 L1.3365747067799987 1.6481673180000342 L1.3487817377800013 1.6577294930000193 L1.3539086907800595 1.667983399000022 L1.3446313467800621 1.676243490000033 L1.348374836779982 1.6884505209999787 L1.342840982780018 1.6965071620000316 L1.3345402017800154 1.6987451180000193 L1.3303084307799793 1.69357747399998 Z M3.218410643780004 2.662246093999997 L3.2131209307799793 2.6474348959999787 L3.2152368157800595 2.645319011000012 L3.2534855137800207 2.642714843999997 L3.257717284780057 2.644993490000033 L3.260484211779982 2.651748046999998 L3.257473143780004 2.665582683000011 L3.254055175779996 2.671197917000015 L3.252671711779982 2.677057292000015 L3.254055175779996 2.6827539069999915 L3.253811034780057 2.686578776000019 L3.250881346780062 2.6858463550000096 L3.244289550779996 2.6858463550000096 L3.2408715817799987 2.685113933000011 L3.239162596780062 2.683160808000011 L3.2291528317799987 2.679458008000026 L3.218410643780004 2.662246093999997 Z M1.7795674607799867 1.8696046840000093 L1.8326385117800612 1.820430920000021 L1.8729579017799836 1.773337536000028 L1.8824766037800202 1.770795294000024 L1.8480075807799778 1.8218531410000054 L1.831156644780009 1.837434775999995 L1.8199787357799835 1.8499700010000169 L1.8056186917799835 1.8631643780000076 L1.794302056780026 1.870440309999978 L1.7772485347800568 1.8828678390000135 L1.7653629567800238 1.8886553779999957 L1.7795674607799867 1.8696046840000093 Z" fill="black" stroke="black" stroke-width="0.5" vector-effect="non-scaling-stroke"/></svg>