<svg xmlns="http://www.w3.org/2000/svg" viewBox="0 0 7.97786342867991 4.4485625731200145"><path d="M3.301428459339931 0.06521410756007384 L3.3289719973399627 0.07420580656002329 L3.3521747163399453 0.09007047156011794 L3.3660239993399017 0.10717536956007478 L3.378943107339907 0.13130826356012193 L3.3805967533399865 0.14841316356005763 L3.3607530033399797 0.14489916556001248 L3.3439064863398897 0.13265185156009096 L3.314657626339951 0.10273119756006821 L3.2980178153399464 0.08981208856004486 L3.2969842863399634 0.08898526556003361 L3.28530541233998 0.06836636956011688 L3.301428459339931 0.06521410756007384 Z M3.694479403339969 0.8452181755599995 L3.715046623339944 0.8695060995601054 L3.6984068123399965 0.8938973755601225 L3.664817131339973 0.9129659785600879 L3.634069654339939 0.9209758255600704 L3.5806878993399067 0.9117774215600818 L3.567355379339901 0.9153947715600665 L3.5604307373398996 0.9200456505600343 L3.542240633339972 0.9274353795600447 L3.541568840339991 0.92593676256012 L3.538209872339891 0.9234562945600473 L3.5332489343399374 0.9216476195600691 L3.527667879339944 0.922216059560121 L3.5242572353399026 0.9245931755600552 L3.5180560633399267 0.9310010535600881 L3.4789886803398957 0.9564775345600296 L3.465346103339911 0.9628854125600625 L3.4014740323399195 0.9794218705600528 L3.374964022339938 0.998645503560077 L3.370261467339944 1.0242770135600594 L3.371501701339909 1.0550761675601095 L3.3629234143399316 1.089699377560116 L3.3494875413399967 1.1078378045600559 L3.33212426033991 1.1216354125600887 L3.3121254803399296 1.131350581560035 L3.290576408339902 1.1373450475600677 L3.248098380339954 1.1384302535600668 L3.236419507339903 1.1430294555600184 L3.2297015713399873 1.1519178015600389 L3.2214850183399193 1.1739836385600242 L3.2127517013399682 1.1826652785599876 L3.191150952339896 1.176774165560083 L3.183554517339914 1.1635966755600222 L3.186396720339914 1.1461817175600615 L3.195750155339951 1.127474849559995 L3.208720940339944 1.1134705355600758 L3.2240171633398944 1.1050472775600824 L3.2405536223399025 1.0984843705600937 L3.2564699633399385 1.0898544065600717 L3.2711460703399524 1.0676335405600454 L3.261017489339892 1.0499085245601165 L3.2376597423399147 1.0376095335600652 L3.2127517013399682 1.031563390560045 L3.1331699953399124 1.0223649855600385 L3.0950327893399816 1.0095492305600473 L3.0597894613398893 1.0060869095601035 L3.0418060633399335 0.9988005325600327 L3.0257863693399685 0.9854163365600854 L3.0133323493399615 0.9715153765600277 L2.9990179773399035 0.9593197385601044 L2.9770554933399325 0.9508448035600949 L2.954059481339968 0.949449539560014 L2.9043467533399365 0.9519300085600761 L2.88269432833998 0.9466073365600423 L2.7401190513399314 0.8748287725600434 L2.705082430339914 0.8719865685600823 L2.31099795733995 0.9799903115601225 L2.2943581463399454 0.9818506635601167 L2.278545158339952 0.9805070765600519 L2.2721372803398907 0.9757011675600538 L2.261595288339933 0.9604049445599898 L2.2535337653399523 0.9584929155600648 L2.248986239339999 0.9628854125600625 L2.2447487713399568 0.9801453405600498 L2.241854891339969 0.9866565705600223 L2.221235994339949 1.0098592895600333 L2.2051646253399753 1.032596919560028 L2.198653394339928 1.058176753560069 L2.2067149173399088 1.08990608256007 L2.2106423263399932 1.0958488725601043 L2.2128127363399557 1.1019983685600536 L2.2136395603398995 1.1085612755600422 L2.2128127363399557 1.1154342405600275 L2.2359637783399506 1.1478870395600254 L2.237100659339987 1.1611162065600453 L2.1408791423399265 1.1874711875600994 L2.0928200603399745 1.1241158805600762 L2.0633644943399503 1.0988461055600212 L2.049515210339891 1.0966756955601156 L2.045846184339993 1.0987944285600904 L2.04558780133992 1.104943924560068 L2.04119530533994 1.1149691525600858 L2.021971672339916 1.1478353635600271 L1.9762380303398999 1.2546505495600329 L1.9650759193399807 1.2930461385600651 L1.9618203043399802 1.33257860856002 L1.9688482993399674 1.3509237425600062 L1.9838861413399371 1.3642045855601097 L2.0014561293399282 1.3758317835600664 L2.0156154703399096 1.3893193315600385 L2.023056877339897 1.4058041135601158 L2.0266742283398997 1.4247176875600402 L2.0217132893399565 1.5438835405600386 L2.0358726323399168 1.5679647585600591 L2.0752500743399054 1.5555107375600912 L2.081451245339892 1.5482243605600203 L2.0839317143399256 1.5404212205600842 L2.087549064339939 1.5339616655600352 L2.0971608813399456 1.5307060495600453 L2.102741936339939 1.5336516065600492 L2.1269781823399256 1.553081945560045 L2.147700432339988 1.5585596475601093 L2.1907985763399864 1.5531336215600433 L2.2128127363399557 1.5531852985600594 L2.2316229573399795 1.5510148885600685 L2.249916415339939 1.546002274560088 L2.266969638340001 1.5379407505600327 L2.3004559663399817 1.5154615025600933 L2.317819247339898 1.510035477560045 L2.4049457113398915 1.5057980105600777 L2.4458734463399168 1.5095187135600767 L2.485354240339902 1.5197506465600767 L2.5271087983399383 1.538199132560088 L2.5659694753399407 1.5473458615600677 L2.643277417339945 1.5350985475600325 L2.684153475339926 1.538509191560074 L2.7142808353399204 1.5491545365600743 L2.722652418339905 1.543986893560053 L2.7382587003399266 1.5267269655600657 L2.7552085703399456 1.5149964145600663 L2.7758791433399637 1.5099838015600184 L2.79778995033989 1.51013882956007 L2.8182538173399934 1.5138078575600602 L2.8517918213399724 1.5289490515600832 L2.867966545339968 1.5335482535601201 L2.8845030033399865 1.5293107865600675 L2.892874585339925 1.51969897056005 L2.9207281823399143 1.4732418575600477 L2.936179436339998 1.4640951295600573 L2.9457912523399017 1.4738619745600872 L2.950338778339969 1.4924654905600718 L2.9505454843399974 1.5095187135600767 L2.93990013933994 1.5454338335600468 L2.9415537843399733 1.559489823560078 L2.95881371333995 1.5645024365601259 L2.9765904053399908 1.561195145560042 L3.0657839273399503 1.510500565560072 L3.0787030363399452 1.5067281865600464 L3.088986646339933 1.5076583615600825 L3.109812248339992 1.5125676225600202 L3.119837476339896 1.5127226525600506 L3.125935295339943 1.5095703895601034 L3.130896232339907 1.5040926875600107 L3.1369940513398973 1.4988216925600781 L3.146605868339904 1.4961345165600548 L3.1631423263399796 1.4934990195600548 L3.195491773339981 1.4840422315600605 L3.2127517013399682 1.4823885865600275 L3.2264976333399176 1.4867294065600944 L3.249028556339894 1.5020773075600786 L3.2616376063399315 1.5079684205600685 L3.2791042403398905 1.5093120075600481 L3.3157945073399304 1.5040410105601083 L3.333364494339932 1.5057980105600777 L3.3576524173399065 1.5200607055600628 L3.371501701339909 1.5410930135600651 L3.39112271633995 1.588925590560045 L3.391448804339902 1.589720535560069 L3.3915004813399463 1.5898755655600425 L3.4022491793399325 1.5966968545600864 L3.425658602339908 1.6043966435600723 L3.435270419339915 1.61142463756007 L3.4409548263399614 1.6250672155599872 L3.4385777103399136 1.6388648235600485 L3.434133537339889 1.652197342560065 L3.4336167723399598 1.6645996865600452 L3.448809644339903 1.6851669065600205 L3.4752679773398967 1.697362544560029 L3.505653719339918 1.701496659560057 L3.5331455813398946 1.698241043560067 L3.5635830003399036 1.6850118765600755 L3.5756236093399565 1.6821696735601037 L3.590816480339967 1.6818596145600324 L3.5997048263399023 1.6829964965600297 L3.607766350339986 1.680619380560067 L3.6200136643399077 1.6697156535600115 L3.638875562339919 1.6627393345600225 L3.660683017339963 1.6706458295600655 L3.68533267533995 1.6828414675599888 L3.7126695073398963 1.6886809035600763 L3.744812248339926 1.675968501560014 L3.763105705339896 1.6483732875600126 L3.7778334883399083 1.6157137815600535 L3.798452385339985 1.5879635375600216 L3.8314219483399796 1.5712203735600596 L3.8729698003399307 1.562435379560064 L3.9154995033400013 1.5605750275600698 L3.972446933339981 1.569101639560067 L3.984797599339956 1.5692049925601097 L3.9955979743399865 1.562952143560004 L4.0274823333399326 1.534633459560034 L4.041434969339932 1.5264169065600797 L4.076109856339926 1.5118958295600393 L4.083396232339894 1.5073483025600964 L4.097142164339957 1.49603116456003 L4.104066805339912 1.4921037555600591 L4.1138336513399025 1.489416581560043 L4.142255688340001 1.4854374955600562 L4.176775545339908 1.472931799560051 L4.195069002339935 1.4714848585600677 L4.228555331339962 1.487349523560077 L4.245178767339937 1.498591963560095 L4.246435376339932 1.499441808560043 L4.260904777339974 1.514427973560025 L4.266899244339967 1.5304993445600914 L4.2615248943399 1.5454338335600468 L4.236100090340003 1.5743726355600174 L4.227625155339908 1.5899272425600302 L4.248399081339969 1.6247571565600865 L4.289843579340001 1.6394332645600898 L4.338316073339897 1.641241939560068 L4.44011864533995 1.624602127560074 L4.459962395339957 1.6241887155600452 L4.4757753833399505 1.6352474735600637 L4.484767082339985 1.6580884565600726 L4.487350904339891 1.6839266725600837 L4.483630201339892 1.704028804560032 L4.472158032339948 1.719014969560014 L4.4587221603400025 1.7296086385599878 L4.448490226339899 1.74206265856008 L4.44642316933998 1.7626298785600554 L4.453864576339967 1.7825253055600783 L4.468437329339949 1.7984933225600273 L4.486730786339919 1.8093453735600562 L4.505954419339943 1.8140479285600506 L4.5425413333399405 1.810740636560034 L4.579024895339998 1.7985449985600255 L4.677830233339918 1.744543127560057 L4.6946767503398945 1.7377218375600805 L4.731987134339917 1.7317273715600763 L4.767023756339981 1.7168962355600499 L4.785317212339962 1.7147258265600485 L4.802473788339896 1.725112788560061 L4.81363589733995 1.746971919560103 L4.819630363339954 1.772345047560087 L4.821284009339919 1.7934807085600468 L4.830275708339954 1.808518550560045 L4.851049634339901 1.8154431925600178 L4.894147779340003 1.8209725705601087 L4.902622713339994 1.8248483025600635 L4.91791893833998 1.8342534135600417 L4.938796216339924 1.8427800255600388 L4.941896802339997 1.8489811965600254 L4.942000155339926 1.8567068235600388 L4.944687329339942 1.8662928015600286 L4.954092440339977 1.882700069559995 L4.964192529339911 1.8940879195600573 L4.964427726339906 1.8943531045600466 L4.975796542339978 1.8936813105600763 L5.016930982339986 1.8238664505600966 L5.039771965339966 1.7700196075600658 L5.0518642503399604 1.7547750605600285 L5.069640943339991 1.749762447560066 L5.091448397339931 1.7474886845600608 L5.128758782339943 1.7327609005600593 L5.146225415339913 1.7322441365600056 L5.179091626339911 1.7388070435599943 L5.195938143340001 1.7394788375600783 L5.212267896339924 1.7374634555600252 L5.243583814339942 1.7116252395600142 L5.254539217339911 1.7079045365600152 L5.269628735339936 1.7112635045601152 L5.294950187339893 1.7240275835600798 L5.311279940339929 1.7242859655600498 L5.322545402339912 1.718704910560028 L5.341665682339894 1.7001013955600612 L5.351897616339997 1.6931767535600883 L5.369260897339913 1.6890943155600766 L5.3860040613399605 1.6898177855599883 L5.570798983339941 1.727386552560084 L5.585991854339895 1.726869787560041 L5.629193352339925 1.719686763560098 L5.649863925339943 1.720875321560122 L5.712289055339895 1.7313656365600636 L5.729859042339896 1.7357581345600508 L5.744845207339935 1.7349829865600483 L5.7939378173399945 1.714777502560075 L5.806650220339961 1.7128654745600542 L5.818949211339984 1.7157593535600242 L5.8365191983399285 1.7224256135600555 L5.871555819339889 1.7301254025600414 L5.903388501339904 1.7282133745600206 L6.00488101434 1.70103157156003 L6.061931795339987 1.6927116655600614 L6.0688564373399885 1.6824797325600898 L6.07102684833994 1.6684237425600585 L6.078674959339921 1.6529208125600618 L6.103169589339913 1.6397949985600846 L6.2124135663399755 1.6188143675600983 L6.247760246339894 1.6161788695600805 L6.339847648339898 1.6239820105600913 L6.36816633334 1.6352474735600637 L6.367442863339917 1.654781164560056 L6.378088209339907 1.7118319455600712 L6.379328443339929 1.7322958125600323 L6.376847974339952 1.7483155065600826 L6.345635409339977 1.818130366560034 L6.337780591339921 1.8478184765601142 L6.343361646339972 1.8762663535600481 L6.366926099339977 1.908486609560093 L6.409300774339997 1.940965246560033 L6.4184991783399 1.9548403675600738 L6.427387525339995 1.9891276815599994 L6.4336920503399 2.0051732135600773 L6.444854159339954 2.018118159560082 L6.504178703339889 2.0536715445600393 L6.53714826733993 2.082145259560086 L6.551514316339919 2.089819209560055 L6.56164289633999 2.106691564560059 L6.564640129339907 2.1234347285599924 L6.5594724863399705 2.1386534375600306 L6.545106437339982 2.1509265905600543 L6.52340233633997 2.1565076445600866 L6.475446606339958 2.1566626745600317 L6.452708977339896 2.1650084185599994 L6.438446281339893 2.176558101560026 L6.424493644339904 2.1925002805600613 L6.416328768339994 2.2106128705600767 L6.4192226493399716 2.2286479445600875 L6.431314934339966 2.243479080560114 L6.4604604413399755 2.2690330765600706 L6.4714158453399335 2.283166580560014 L6.474516431339893 2.3024935665600523 L6.468211906339988 2.3464185335600902 L6.47193261033992 2.361921463560087 L6.507796053339959 2.4089728555599876 L6.514617342339918 2.4233905805600884 L6.524125806339995 2.465015945560019 L6.532910799339945 2.4807514195599865 L6.55192772733993 2.497003657560093 L6.569084302339988 2.505633621560058 L6.605257805339917 2.516795731560073 L6.622621085339958 2.5245471965600856 L6.652800123339929 2.546509679560039 L6.668406405339894 2.5539252485600556 L6.764421216339983 2.556354039560027 L6.781061027339987 2.55317593956007 L6.794290194339894 2.5365619665600363 L6.786332023339909 2.5209298465600156 L6.773619621339989 2.5043675495600937 L6.772792798339921 2.485118077560081 L6.780440910339948 2.4801313025600322 L6.819921704339933 2.469563472560047 L6.826949699339977 2.463155594560014 L6.828396639339971 2.4548356885600455 L6.8281899343399886 2.445895665560009 L6.830567050339923 2.4378341435600177 L6.8446230393399645 2.421297684560038 L6.858885734339921 2.4141146605600667 L6.875938957339983 2.4143730425600367 L6.9375372653399126 2.431271236560029 L6.956967603339976 2.4338808955600584 L6.97929182133997 2.4333899695600323 L7.048951652339994 2.4143730425600367 L7.069725578339941 2.4165951295600436 L7.212145825339903 2.471527176560066 L7.3816445233399435 2.5224801385601197 L7.399834628339917 2.5345724245601033 L7.415130852339971 2.5486800895600297 L7.431977369339947 2.5596096555601022 L7.454611645339909 2.56206428656008 L7.477555981339933 2.5605139935600434 L7.495849439339892 2.5636145785600135 L7.511869133339971 2.5729163365601195 L7.527682121339964 2.5895561485600567 L7.527785474339893 2.5897370155600967 L7.5367771743399175 2.6007699335600805 L7.544011874340001 2.6059375775600913 L7.561685213339999 2.613947424560074 L7.568403150339904 2.619941890560021 L7.571297030339892 2.6284168255600875 L7.572640617339957 2.6378477735600754 L7.579875317339926 2.6663473265600928 L7.579668612340001 2.685829341560087 L7.573777498339993 2.704174475559988 L7.562201978339928 2.720375036559993 L7.519827304339898 2.7579179645599865 L7.510318840339934 2.7739634965600644 L7.506598137339935 2.792050247560063 L7.506804843339907 2.8873157515600596 L7.52623518133997 3.0021407835600584 L7.5454588143399945 3.030381953560031 L7.615945467339927 3.061930415559992 L7.628347812339925 3.0895773065600096 L7.624317049339922 3.152674230560045 L7.62669416533997 3.1793392695600957 L7.626280754339959 3.185876338560057 L7.629484692339915 3.1913282015600473 L7.640750155339944 3.1966508745600137 L7.649225090339982 3.2027486935600606 L7.647158032339902 3.2098283645600745 L7.630104810340001 3.2314807895600595 L7.622870109339928 3.2346588905601195 L7.618735995339918 3.239723180560013 L7.621629875339906 3.25302986156003 L7.62669416533997 3.2605487835600613 L7.633928866339929 3.266000647560041 L7.6847784753399395 3.288273189560094 L7.6969741133399765 3.2981175485600644 L7.700694817339965 3.3161267855600656 L7.697284172339934 3.3255060585601015 L7.689946119339922 3.335867183560019 L7.674133131339929 3.3527653765601073 L7.66741519433991 3.3620154575600267 L7.664314608339893 3.3711621865601202 L7.662454257339945 3.379998856560114 L7.6591469653399 3.3882670855600665 L7.646434563339923 3.403356603560063 L7.6325852793399775 3.416017329560013 L7.621629875339906 3.4301249955600426 L7.617702466339935 3.449167760560009 L7.627417636339928 3.484385249560084 L7.650568677339933 3.512858963560113 L7.680747714339915 3.5350281535600274 L7.771388176339983 3.577196122560103 L7.788958163339927 3.5897534955600108 L7.83949771433997 3.6429802205600694 L7.86802310433994 3.6650977335600814 L7.899649081339916 3.6829519405600237 L7.850763176339953 3.695793534560032 L7.827302076339933 3.705146968560051 L7.8151064373399635 3.722355220560125 L7.812625968339987 3.7593813845600934 L7.8039443283399095 3.7714478305600707 L7.710926750339965 3.7993014285600495 L7.687052238339945 3.802298660560062 L7.668448723339893 3.8110836545600577 L7.65925031834 3.828395258560043 L7.648191561339999 3.8445958205600377 L7.627831047339939 3.852476476560092 L7.59816877534 3.83898892856012 L7.552383456339939 3.7766671505600797 L7.524064771339894 3.7524309035600183 L7.395907219339946 3.689618200560055 L7.366968417339976 3.702511470560033 L7.265372551339894 3.7078341425600954 L7.256690910339941 3.7079891725601257 L7.248215975339903 3.706361364560074 L7.212145825339903 3.6974988555600916 L7.190338371339905 3.6899540975601255 L7.171424797339952 3.6912460085600785 L7.153854810339894 3.6943982705600362 L7.124916008339923 3.6901866415600963 L7.11365054633994 3.6898249055600942 L7.103728670339976 3.6872152455599903 L7.089155916339891 3.667681554560083 L7.079337394339959 3.6625914265599917 L7.067968580339922 3.6632373825600766 L7.056393058339992 3.6696969355601183 L7.051122063339889 3.656674475560088 L7.039339836339977 3.6834170285600507 L7.01494856033996 3.6860783645600677 L6.9859064053399464 3.6799030315601087 L6.959448072339953 3.6802389275599907 L6.943221672339959 3.6936748005600393 L6.9415680263399935 3.7279362745600437 L6.923171216339924 3.745196202560031 L6.898779941339896 3.7535161095601026 L6.787675610339974 3.7713444775600564 L6.712228020339907 3.7933069615601127 L6.691144035339889 3.7968209595600726 L6.634816724339927 3.8181116485600555 L6.5919252853399115 3.8220132205600166 L6.571771476339947 3.8268449665600244 L6.533737623340002 3.855060298559998 L6.519474927339999 3.857695796560101 L6.504178703339889 3.8546985635600137 L6.481647779339923 3.853044917560048 L6.471725903339959 3.855938797560036 L6.455499504339954 3.8660415395600793 L6.444750806339911 3.8665841435600257 L6.437929517339953 3.8624241895600946 L6.423563468339964 3.846688716560031 L6.416018709339923 3.8411335005600264 L6.395451489339948 3.8398415885600556 L6.353180168339961 3.8504094195600302 L6.337160474339996 3.8427096315600338 L6.332819653339911 3.8217806765600457 L6.345428703339948 3.8021953075600194 L6.366512687339977 3.787596715560049 L6.387493319339953 3.7815247355600192 L6.425940584339898 3.7783724725600436 L6.440513338339983 3.772636389559999 L6.4577732673399595 3.761138382560084 L6.474619784339936 3.745247879560047 L6.481234367339923 3.7307268015600172 L6.481441073339894 3.6886880245600864 L6.4825779543399875 3.680471471560047 L6.488985832339935 3.655201696559992 L6.453329094339935 3.651765213560047 L6.410024243339976 3.65254036056006 L6.340571119339913 3.6378125765600586 L6.220785148339971 3.6026209265600855 L6.176136711339936 3.6036544555600685 L6.113918287339899 3.631042964560031 L6.097381828339948 3.627193069560086 L6.080535311339972 3.6191057085600775 L6.056764152339994 3.6165735635601024 L6.0318561123399235 3.6186406205600505 L6.011598951339906 3.624118322560058 L5.995785963339912 3.633549271560092 L5.947003410339946 3.675329667560071 L5.936151359339917 3.6794121045600647 L5.914550610339958 3.672849197559991 L5.905765617339895 3.675329667560071 L5.867628410339918 3.699204178560045 L5.8519187743399215 3.7145262405600974 L5.834762199339977 3.7437234255600558 L5.823290032339955 3.7575210325599855 L5.803032870339948 3.768528112560084 L5.7310992763399184 3.7742900345600603 L5.659785799339929 3.808758214560008 L5.637771640339949 3.829790522560124 L5.6129669523399315 3.836715165560115 L5.566044751339959 3.8438206745600425 L5.526253898339959 3.8633285275600358 L5.496488274339967 3.896091385560048 L5.449876132339895 3.9736060345600137 L5.4082249273399015 4.025980098560034 L5.402127108339911 4.045255407560056 L5.393238762339919 4.0547638715600485 L5.244203931339925 4.072514725560062 L5.210510897339972 4.086105627560066 L5.141471183339988 4.075925370560093 L5.096512688339985 4.083315099560018 L4.995330233339914 4.116284663560059 L4.9558494393399855 4.138040441560086 L4.945927564339897 4.146980464560009 L4.931458163339968 4.164602127560094 L4.922363110339958 4.172198563560066 L4.888360018339924 4.1878823605600175 L4.862211744339945 4.210852534560068 L4.572100253339997 4.384433671560025 L4.533136223339895 4.397507808559986 L4.484043612339903 4.404949214560013 L4.435467766339897 4.404949214560013 L4.388545565339925 4.396577632560017 L4.346584302339906 4.378749263560074 L4.3128912683398966 4.350327225560072 L4.299455396339951 4.332912267560026 L4.28839664033994 4.313998693560073 L4.280851880339966 4.2935865025600535 L4.274030591339894 4.247491125560025 L4.26400536333999 4.227440669560075 L4.207264640339972 4.153543371559998 L4.1985830003398945 4.135508296559998 L4.195482414339992 4.113804195560014 L4.195482414339992 4.072850622560075 L4.191968417339908 4.06104255756005 L4.174708488339931 4.039493485560108 L4.168714022339984 4.028848139560118 L4.16664696533995 4.016600826559987 L4.168714022339984 3.9562427525600796 L4.176568840339925 3.9151599895600313 L4.182356600339901 3.8999929565600198 L4.189281242339902 3.8909754185600534 L4.1856638913399 3.8669200395601067 L4.222560864339911 3.8165355175600197 L4.223387688339969 3.788604406560033 L4.229382154339973 3.7760470335601255 L4.232069328339932 3.755066401560036 L4.230208976339995 3.712898432560074 L4.222664217339954 3.674502844560031 L4.225764804339903 3.6602143105600575 L4.237030266339943 3.6378125765600586 L4.246745435339889 3.5977116655600625 L4.232689445339972 3.517044754560054 L4.237030266339943 3.4732489785600578 L4.240647616339956 3.467590408560106 L4.25273990133995 3.4543612425600188 L4.257597486339975 3.445963822560053 L4.260284660339991 3.4358610795599915 L4.265038892339973 3.4050102495601138 L4.276407707339942 3.37387519856005 L4.278061353339908 3.364030838560062 L4.2757875903399025 3.3530754345600187 L4.266692538339939 3.3318364215601193 L4.265038892339973 3.3224571485600833 L4.273307121339926 3.3045512655601144 L4.310204094339937 3.28558601456006 L4.3258103773398915 3.267860998560046 L4.32973778533993 3.2498259235600457 L4.330564608339998 3.2260547645600965 L4.3289109623399185 3.2042473105600706 L4.3258103773398915 3.1921550255600764 L4.33325178333989 3.1852303825600856 L4.302866041339925 3.15551643456012 L4.2725836513399 3.139135005560057 L4.236720207339985 3.1373780065599917 L4.114712150339912 3.170657629560047 L4.0965220463399845 3.1815613565601026 L4.07667829733991 3.190294673560082 L4.055284253339991 3.1830082965600965 L4.017353752339986 3.158591182560052 L4.0067084073399855 3.157402624560028 L3.999060295339902 3.1592371375600337 L3.99378929933998 3.157118404560059 L3.990068596339981 3.1443026485600782 L3.9913088303398894 3.133708980560094 L4.00143741133995 3.11104886456004 L4.008155347339979 3.085598221560126 L4.037920972339961 3.0412598425600876 L4.051563550339992 3.0003062705600527 L4.070063713339991 2.9719100705600496 L4.076471590339949 2.942661209560093 L4.094610018339935 2.899485550560051 L4.100036044339944 2.876773758560084 L4.093679842339995 2.832332026560003 L4.0699086833399605 2.8029281365601193 L4.035647209339956 2.7848930625600232 L3.953223300339957 2.7577629355600592 L3.8914699633399863 2.7073784135600576 L3.8529193443398952 2.6849508425600774 L3.8249107183399786 2.673737056560121 L3.8125083753399025 2.671411616559986 L3.8004677663399633 2.671773351560084 L3.7926646243399063 2.674563879560047 L3.785326571339951 2.674925613560042 L3.7749912843399187 2.6682593545600284 L3.7684800543399746 2.65993944856006 L3.7601084723399794 2.6416718305600213 L3.754165683339963 2.633765336560053 L3.7440887783399006 2.625006180560085 L3.7337534913399253 2.617926509560043 L3.7223330003399013 2.61268135156012 L3.7095689213399368 2.6099166615599856 L3.686262850339901 2.610536779560043 L3.6789764733399437 2.6176422885600843 L3.682283765339932 2.6403540805600514 L3.671741773339974 2.650586014560041 L3.647763908339968 2.645935135560073 L3.6065261153399746 2.6303805295600498 L3.5948472413399912 2.631930822560058 L3.5891111583399464 2.6361682895600254 L3.585338778339903 2.6407674925600517 L3.5785691653399425 2.6434288285600687 L3.569629142339906 2.6429895795600586 L3.5535060963399445 2.638597082560061 L3.5444110433399914 2.6372276565600927 L3.512785067339891 2.637124304560068 L3.4966103443399987 2.6400698605600823 L3.489737378339939 2.647123693560097 L3.4773350353399195 2.6641510785600175 L3.4188373133399494 2.6690086625600244 L3.4003888273399383 2.678181229560032 L3.4003888273399383 2.6849508425600774 L3.4202842533399433 2.6969397745601142 L3.4122227303399626 2.7086703245600106 L3.3768760503399307 2.7293925745600447 L3.367625969339926 2.7334750115600386 L3.3448366623399437 2.7323898065600574 L3.3355349043398945 2.736523921560085 L3.331297436339966 2.745412267559992 L3.331090731339927 2.7557992305601076 L3.3322276123399064 2.766005326560098 L3.33212426033991 2.7744027455600744 L3.3185850353399218 2.8085091915600273 L3.308559807339904 2.812539953560041 L3.2949172283399975 2.815407995560115 L3.2827215903399605 2.8209373735601204 L3.273471509339956 2.845535355560081 L3.2440676193399867 2.8910881305600853 L3.218126050339933 2.946226883560051 L3.205827059339967 2.9630734005600274 L3.19559512633991 2.971341629560065 L3.1614886813399465 2.982942989560023 L3.150895011339955 2.9890666455600794 L3.1067116623399187 3.0252918255600534 L3.0618048423399244 3.0723173785601077 L3.0534849373399737 3.077278315560072 L3.0341074413399127 3.0854557845600468 L3.0293003673399284 3.087484411560034 L3.024236076339932 3.0927812455600687 L3.0192751393399107 3.10172126856002 L3.0082163833398994 3.10541613356002 L2.996434156339987 3.107121455560069 L2.989457837339998 3.1101962035601147 L2.985943840339914 3.1194462845601194 L2.985685458339944 3.1279728965600313 L2.9891994553399144 3.1361894485600814 L2.9970542733399697 3.1443026485600782 L2.973644849339891 3.151227290560051 L2.950235425339926 3.154327876560096 L2.9277561773399015 3.150710525560008 L2.9076540453399815 3.1375071975601188 L2.896026848339986 3.1629320025600336 L2.90072940333998 3.193679479560096 L2.9146820403399687 3.222799149560096 L2.931528557339945 3.243676427560068 L2.943000724339967 3.2479655715600515 L2.975866936339898 3.2560270955600217 L2.982688224339924 3.264424515560016 L2.9853753993399863 3.2787130485600855 L2.992041659339904 3.2917871855600467 L3.0010850353399263 3.3023808555600382 L3.010645174339956 3.3094088505600254 L3.0051157963399504 3.320958532560063 L3.007286207339959 3.3348853305600628 L3.0174147873399733 3.364030838560062 L3.018603345339997 3.378758621560074 L3.0160712003399084 3.3875436155600696 L3.0125572023398917 3.3956051385600503 L3.010645174339956 3.408110835560045 L2.9980878013399064 3.422709427560015 L2.993230217339928 3.4254999555600634 L2.9890961023399854 3.429013952560034 L2.989406161339943 3.4369979615601025 L2.990749748339951 3.4461188515600654 L2.989457837339998 3.4527851115600967 L2.9838251063399497 3.460252355560037 L2.981603020339932 3.4623194135600883 L2.9764870533399375 3.466453527560013 L2.9731797613398925 3.465471675560046 L2.9539561293399146 3.4661434685601122 L2.9519924243399913 3.466453527560013 L2.9374713463399615 3.4955990345600227 L2.9349392013399864 3.5043065135600884 L2.928221265339957 3.5075621295600783 L2.8933913493399785 3.5421595015600857 L2.8646592533399797 3.5513062295600477 L2.834583570339916 3.5470170855600927 L2.8047145923398915 3.538387121560042 L2.777222730339915 3.534743932560069 L2.783527254339944 3.5421595015600857 L2.7524180423398974 3.537611974560029 L2.7431162853399513 3.534743932560069 L2.739711746339921 3.5322195445600855 L2.734021232339998 3.5280001585601255 L2.7301971763399564 3.521333898560009 L2.7250295333399635 3.5162696085600302 L2.712110425339958 3.5142542275600803 L2.690923088339943 3.5081047325601205 L2.680071037339914 3.4938937135600483 L2.6707692803399112 3.4779256955600246 L2.654336174339946 3.466453527560013 L2.6307717203399505 3.46541999856003 L2.588810458339921 3.4823698695600385 L2.568449943339985 3.4869173945600593 L2.5585280693399994 3.490638097560087 L2.5481927823399104 3.497743607560004 L2.5377541423399492 3.5020844275599856 L2.527367179339919 3.497485225560034 L2.5199774503399084 3.4931702435600513 L2.4977565843399105 3.4877958945600867 L2.4897984143399157 3.4869173945600593 L2.4650970793399978 3.489501215560061 L2.4228257573399077 3.5039964555600918 L2.4005015393399702 3.5074329385600365 L2.2641791103399527 3.4975627395600597 L2.2441803303399155 3.504616573560064 L2.226972079339916 3.5466036735600923 L2.2052679783399043 3.5634501905600686 L2.160929598339962 3.5893400835600957 L2.157312248339892 3.5940943155599925 L2.151111076339916 3.6060832475600577 L2.147235344339933 3.611070023560096 L2.1395355553399753 3.6167285925600297 L2.125169507339976 3.6247901165600283 L2.120001864339926 3.630319494560119 L2.113904045339993 3.646184158560054 L2.111836987339913 3.6647359985600687 L2.112560458339928 3.702924881560044 L2.1144724863399205 3.7064647175600314 L2.123825920339911 3.708480097560077 L2.126719800339899 3.712898432560074 L2.126409741339998 3.718272782560028 L2.12403262533995 3.7198230755600363 L2.121345451339934 3.7204431915600296 L2.120001864339926 3.723440425560021 L2.120415275339937 3.732690506560054 L2.121965569339906 3.74206977956009 L2.1249628013398905 3.7506739055600278 L2.130130444339997 3.7575210325599855 L2.1386053793399213 3.7724296835600555 L2.1452199633398976 3.806846186560101 L2.1534365153399193 3.815915401560055 L2.1453749923399386 3.8379295605600348 L2.162376538339956 3.8441307325601244 L2.1807216723399705 3.8471796425600573 L2.1776727633399418 3.859969559560021 L2.1432562583399744 3.906116613560066 L2.126719800339899 3.9189323695600464 L2.0863605073399043 3.9394479125601194 L2.0702891363399516 3.9545374305600305 L2.059437086339912 3.9625989535600965 L2.0476031823398984 3.9661129515600564 L2.044140962339938 3.966708020560013 L2.0211448493399047 3.970660477560095 L2.001301099339898 3.9781793975600337 L1.981198967339921 3.9797038535600606 L1.8865277433398973 3.928544185560064 L1.8812567473399753 3.9266321565600535 L1.8591392343399633 3.9143848425600183 L1.849837476339971 3.906116613560066 L1.831957430339898 3.8705632275600905 L1.8139223563400009 3.8584192665600128 L1.791133049339905 3.8464820105600595 L1.771289299339898 3.8320126095600457 L1.7565615163399997 3.7956324005600592 L1.7410069103399763 3.7780624145600754 L1.7207497483399692 3.763231278560049 L1.7009576753398932 3.754446285560043 L1.6326931083399217 3.747624995560095 L1.629179110339905 3.746436438560089 L1.6233913503399293 3.7454545855600188 L1.620600822339938 3.748761877560092 L1.6258201423399754 3.7606474565600294 L1.6322796963399213 3.767107010560089 L1.648506096339915 3.776822180560025 L1.6531569753399111 3.781162999560017 L1.6566709723399384 3.7956324005600592 L1.6513483003399045 3.804520747560069 L1.6402378663399162 3.8068978635600033 L1.6258201423399754 3.8016268675600813 L1.6125392993399572 3.787493362560035 L1.6035476003399225 3.7714478305600707 L1.5922821373398932 3.7586837525600103 L1.5713531823399052 3.754446285560043 L1.5493390223399928 3.760182368560031 L1.5457216723399227 3.771499507560087 L1.5575555743399576 3.8016268675600813 L1.5601393973399098 3.8229692335600802 L1.5559019293399814 3.832684403560016 L1.5440163493399695 3.831960933560019 L1.5068093183399327 3.8128664915600368 L1.4951304453399388 3.808344803559997 L1.482056307339903 3.8073629515600302 L1.4614374113399293 3.8090682735600794 L1.4224733803399516 3.8045724235600673 L1.4043866293398963 3.805295894560082 L1.393069491339915 3.815915401560055 L1.3981854573399204 3.819868648560025 L1.4009759853399117 3.824209468560092 L1.4067637453399442 3.836405106560015 L1.3841294683399923 3.839221472560091 L1.3719338303398985 3.8536650345600307 L1.3663010993399638 3.8697622435600962 L1.3624253673399238 3.8773328415600403 L1.3443386163399822 3.8795032505600417 L1.3069248793399169 3.8888825225600883 L1.2869777753399347 3.8909754185600534 L1.2820685143399686 3.895367915560051 L1.2682709073399536 3.9145915485600753 L1.2593825603399154 3.9189323695600464 L1.2488405683399577 3.9196041625600273 L1.201298251339935 3.9282341265600778 L1.1392348553398932 3.9319548295599915 L1.1535492273399512 3.9553125775600435 L1.1469863203399626 3.9702212275600672 L1.127400953339972 3.9781535605600524 L1.1013560303399998 3.9803756465600415 L1.0816156343399115 3.976680782560031 L1.0621852953399156 3.970557124560081 L1.0428066333399642 3.969368566560057 L1.02384138233991 3.9803756465600415 L1.0162966233399828 3.996937942560031 L1.017123446339994 4.017117590560041 L1.02384138233991 4.059182206560045 L1.0132993903399523 4.073522415560056 L0.9892698493399479 4.073367386560101 L0.9480837323399527 4.062334468560003 L0.9219354573399272 4.065280025560092 L0.9034869723399055 4.077501501560043 L0.8875189543399955 4.09080818256006 L0.8689154383398972 4.097061031560052 L0.856616447339988 4.103313878560037 L0.7904706143399238 4.148944169560046 L0.7802386803399344 4.154370194560009 L0.7682497483399828 4.158349279560092 L0.7603439763399109 4.1580715975600455 L0.7557440523399777 4.157910029560064 L0.7466489993399108 4.152716547560054 L0.7415847093399037 4.144913406560043 L0.7375539473399471 4.136102575560066 L0.731714510339927 4.127808508560086 L0.6973496833399935 4.093650386560022 L0.6884613373400015 4.087345861560003 L0.6647935303399635 4.077346471559984 L0.6539414803399239 4.06977587456003 L0.6380251393400016 4.049208654560054 L0.6274831463399408 4.031561152560037 L0.6136338633399845 4.019158809560075 L0.5684169853399652 4.010503006560036 L0.5435606213399495 4.000348587560062 L0.5208746663399637 3.9870419065600444 L0.5085756763399303 3.9736060345600137 L0.5074904713399491 3.958619868560042 L0.5160687593399729 3.8947219605600694 L0.5206162853399832 3.880020015560085 L0.5394781833399946 3.8501510375600603 L0.5509503503399031 3.8162512975600507 L0.5561696703399406 3.7802845005600645 L0.5527073493399115 3.738168208560033 L0.5328635993399047 3.6591549435600754 L0.5367393313399447 3.6171420035600406 L0.5647479583399644 3.5556470495600294 L0.607381014339964 3.496787593560036 L0.6589024173399451 3.4448011025601133 L0.7128526133399049 3.403847529560089 L0.7857163823399986 3.3231806195600697 L0.8151719493398986 3.2773177845601182 L0.8577533293399 3.175256831560084 L0.8754783453399995 3.1608907835600846 L0.906639234339977 3.1525192005601 L0.9532513753399456 3.147506587560052 L0.9685476003399884 3.1437858845600246 L0.9735487913398941 3.140874007560079 L0.984257235339939 3.1346391565600626 L0.9917503183399816 3.1220301065600253 L0.9962978433399456 3.106811397559987 L1.0037909263399882 3.0897581745600675 L1.0038942793399173 3.089680659560024 L1.0039976323399031 3.0896031455600266 L1.0039976323399031 3.0894739535600806 L1.0041009853399459 3.089396439560055 L1.0160899173398974 3.0703536735599855 L1.0550539473399994 3.0233797975600325 L1.0798586343399137 2.968137691560109 L1.0961883873398932 2.9095366165600964 L1.0917442143399825 2.8709859985601085 L1.067559644339994 2.8406002565600588 L0.9881846443399098 2.7848413855600924 L0.9363531823399711 2.761897049560069 L0.9192482833399112 2.748099442560026 L0.8822479573399704 2.694846878560064 L0.8430772223399998 2.6653137975600245 L0.8335687583399221 2.651154455560082 L0.8301581143399943 2.636607539560025 L0.8280910573399041 2.604800695560094 L0.8224066493399818 2.5895561485600567 L0.7981187263398937 2.5605139935600434 L0.790677319339963 2.547284826560052 L0.7880418223399346 2.525322342560081 L0.7914007903399778 2.4678581495600653 L0.7892303793399691 2.447652665560092 L0.7758461843399544 2.4102389285600267 L0.7731590093398921 2.3919454715600565 L0.7810138273399474 2.37688179056007 L0.8062836023399171 2.3628516395600556 L0.8114512463398995 2.356727982560095 L0.8121747153399923 2.3454883585600257 L0.8077305433399005 2.336238277560021 L0.8018394293398927 2.3273757685600103 L0.7988421963399759 2.3172730255600626 L0.8022528403399036 2.295620601560067 L0.813414950339947 2.2901945755601147 L0.8311399673399791 2.290659663560028 L0.8545493903398977 2.286887283560013 L0.8714992603399168 2.2790841425600874 L0.8867954843399701 2.268464635560086 L0.8991978273399326 2.2549512495600297 L0.9080861743399709 2.2383114375600925 L0.9092230553398934 2.216271439560039 L0.8992495043399771 2.196117630560046 L0.8889106913399445 2.1841875235600625 L0.8702073493399638 2.1626054645600377 L0.8364626383399099 2.104314448560096 L0.8211664153399596 2.089819209560055 L0.8209597093399879 2.089793371560056 L0.8208046803399469 2.089638342560015 L0.8205979743399183 2.089638342560015 L0.8127948333399644 2.088062210560075 L0.8046299563399515 2.087493770560023 L0.796465080339928 2.088062210560075 L0.788610263339919 2.089638342560015 L0.7719704513399819 2.099198481560016 L0.7553306403399773 2.1039010375600853 L0.7388975353400014 2.1014722445600214 L0.7234979583399053 2.089819209560055 L0.7156431403399637 2.086201858560081 L0.6987966233399874 2.081680171560059 L0.6844305743399985 2.0815768185600163 L0.6703745863399462 2.0845223745600308 L0.6570420663399403 2.089715856560126 L0.6567836843399704 2.089715856560126 L0.6566803313399276 2.089793371560056 L0.58076765133994 2.1098179885601027 L0.5538959073399354 2.110179723560087 L0.42604841333989896 2.093979162560082 L0.40877848333995814 2.0806120415600375 L0.40775495633992875 2.0798198195600364 L0.4077097013398969 2.0795977415600575 L0.40274234233997674 2.055221837560076 L0.41411115833993506 1.9776555135599878 L0.4122508063399408 1.9639612585600545 L0.4121056793399447 1.9637685755600316 L0.4031040773399326 1.9518172965600726 L0.3966962003399175 1.9502153275600378 L0.3800563893399129 1.952980016560069 L0.3732350993399649 1.9520498405600435 L0.3676540453399042 1.947373124560066 L0.35969587433997674 1.9362110145600226 L0.35535505433999504 1.932335282560068 L0.31587426033995314 1.9199846145601143 L0.23453555533994574 1.9176074995600842 L0.11371605733994272 1.884095332560058 L0.0856040783399834 1.8637606565600535 L0.08556158033995587 1.863532117560048 L0.0782143473399941 1.8240214805600417 L0.0799196703399474 1.8097587845600671 L0.08198672733992396 1.8027824665600676 L0.086740959339906 1.7983382935600716 L0.09614606933995162 1.791827063560099 L0.10679141433995198 1.789088212560067 L0.11578311433997612 1.7912586225600577 L0.12239769733990613 1.789398270560035 L0.12994245733993637 1.7562220005600224 L0.1426031833399719 1.722580643560086 L0.1436883873399637 1.6856836705600458 L0.1503029703398937 1.6454794065600353 L0.16280866733994515 1.606980464560074 L0.17200707233989476 1.5978854125601103 L0.18719994333990542 1.5964384725601164 L0.2129348063399874 1.5991773235600633 L0.2178957443399412 1.5982988245601106 L0.2225466233399942 1.5964384725601164 L0.22668073833993674 1.5934929155600273 L0.23009138233992132 1.5898755655600425 L0.22316674033997685 1.5455888635600772 L0.2429588143399286 1.530654373560047 L0.3229022553399403 1.5209392045600154 L0.41597150933993987 1.4694694775600041 L0.45312686433992155 1.4602193965599994 L0.5000490643399047 1.4609945435600125 L0.841733635339935 1.5294658155601084 L0.9913885833399121 1.5330314895600665 L1.0730890223399996 1.5556657675601215 L1.122129956339947 1.558404617560079 L1.1717910083399232 1.5547872675600942 L1.2332342853398899 1.5421782185600748 L1.2529746833399003 1.5351502235600591 L1.2527919923399367 1.534825243559986 L1.2456825903399675 1.5221787125600699 L1.2422259853399709 1.5160299435600493 L1.255765210339959 1.5010437785600956 L1.2984499443399358 1.4800114705600649 L1.3225311613399953 1.4604261025600564 L1.335863681340001 1.4407373815600053 L1.3413413823399054 1.4167078405600861 L1.3513666103399231 1.2554773715600547 L1.361701896339909 1.2339799755600254 L1.3732774183399528 1.2346517695601094 L1.3866099373399692 1.2388892375600662 L1.4206130293399468 1.2155831665600303 L1.4370461353399122 1.225143306560021 L1.4637111743399345 1.2586296345601156 L1.4771470463399936 1.2639523065600642 L1.4838649823399095 1.2574410765600064 L1.4860353923399856 1.2475192015600882 L1.4861387453399146 1.242506587560051 L1.4859320403399892 1.2411113235600553 L1.493063387339916 1.2260734815600856 L1.4964740323399468 1.2244715135600401 L1.5069643483399062 1.2230762495600729 L1.5107367273399035 1.221060868560123 L1.522880689339999 1.2018889115600118 L1.523139071339969 1.1878329225600837 L1.5007631763399871 1.1511426545600258 L1.491099683339982 1.129541906560057 L1.4875340093399103 1.1108350385600758 L1.4944069743399808 1.1030318965600472 L1.5152842533399706 1.114142330560064 L1.5356447673399742 1.148455480560095 L1.5508893153399157 1.1917086545600384 L1.5737819753399407 1.2189421335600557 L1.6163116793400008 1.205247880560016 L1.6129527103399681 1.1830270135600855 L1.5248960693399312 1.0895960245600165 L1.51993513233991 1.079570796560084 L1.5184365163399178 1.0701656865601237 L1.5205552503399957 1.0496501425600329 L1.5171446053399649 1.0420537065600897 L1.4993679123399346 1.0310983025601033 L1.4972491783399704 1.022106604560058 L1.5102199633399636 1.0037097935600556 L1.5259295983399142 1.0134249625600873 L1.5486672283399088 1.0446892045599938 L1.5615863373399037 1.041536942560036 L1.597036369339932 1.0177657835600868 L1.6172935313399392 1.0127531695600211 L1.6900539473399334 1.0215381635600167 L1.712791577339928 1.0186959595600271 L1.720956454339941 1.0064486445600878 L1.7225067463399313 0.9918758905600598 L1.7193028083399753 0.9765796665600917 L1.712791577339928 0.9625753535600765 L1.6661794363399594 0.9367888135600637 L1.4320692643399724 0.9718507115600445 L1.422576734339927 0.9732723755600929 L1.3872300543399518 0.9628337355600465 L1.342478264339988 0.9412846635601042 L1.316640048339977 0.9193738555600461 L1.3375173263399205 0.9081600705599939 L1.3782565973399272 0.8998985655599867 L1.43384219633991 0.8886263785600974 L1.4560630623399646 0.8870760855600608 L1.5139923433398934 0.8948275515600628 L1.5374017663399258 0.8924504355600433 L1.5721800053399164 0.8771542115600752 L1.592075432339911 0.8708496865600566 L1.75475284033989 0.8515227005601034 L1.777542147339986 0.8544165805600912 L1.809164101339931 0.8666493495600704 L1.8435329513399523 0.8799447385600487 L1.9334499433399372 0.9006153115600384 L1.9832143483398994 0.901855545560089 L2.020783114339892 0.8886263785600974 L2.020783114339892 0.8649585735600667 L1.9480226973399084 0.814832433560035 L1.9438885833398984 0.7852735145601102 L1.9701402113399098 0.7827413695600214 L2.00863915233991 0.7940068325600791 L2.040833569339938 0.7897693645601223 L2.0482233003399273 0.7407801055600132 L2.041867098339921 0.7186109165600882 L2.031015047339892 0.699645665560034 L2.0049701263398987 0.6637822225599948 L1.9952549563399629 0.6459538525600621 L1.9738609143399657 0.5896265425600618 L1.973757561339923 0.5896265425600618 L1.93355329633998 0.5377434035600501 L1.9339667083399235 0.5170728305600321 L1.9697784753399077 0.4983142855600349 L2.030498283339952 0.4944385535599949 L2.044864332339941 0.48777229456006665 L2.048998446339951 0.47423306856008907 L2.042125481339994 0.42105801956005706 L2.042693921339932 0.38426439956005964 L2.0497219163399762 0.3542920685600208 L2.0651214923399124 0.3282471475600275 L2.090597974339957 0.3032357545600277 L2.1048089933399154 0.2941923785600906 L2.1207770103399497 0.2874744415600432 L2.1532814873399815 0.2793612425600642 L2.1713682373399905 0.280911534560083 L2.184700758339929 0.28912808856011196 L2.197206454339934 0.29925666856006927 L2.2128127363399557 0.30654304556002643 L2.2447487713399568 0.308920161559989 L2.267383049339898 0.3249915325600554 L2.306347078339897 0.3711385855600824 L2.31812930533998 0.379200109560081 L2.3433474043399514 0.3918091585600152 L2.3544061603399626 0.4019377395600472 L2.372699617339933 0.4256572225600834 L2.383034904339908 0.4361475375600534 L2.395643953339956 0.4448808555600223 L2.426443107339921 0.453562495560071 L2.453211499339986 0.447309646560079 L2.4770860113398925 0.43113492456009084 L2.519047274339968 0.39062060156006595 L2.5388393483399767 0.3779598755600304 L2.560853508339946 0.3695882935600636 L2.7451833413399385 0.3255599735600967 L2.839751213339909 0.27026619056007206 L2.9435174893398965 0.23900194856008028 L3.0159161703399917 0.20587735556008369 L3.071416658339942 0.15662971556002248 L3.099063550339892 0.051158117560042626 L3.136683993339986 0.043613358560001814 L3.181229077339978 0.05766934756001518 L3.193530642339894 0.06785343056002802 L3.2127517013399682 0.08376594656009928 L3.2152838473399328 0.0871249145600288 L3.2184361093398905 0.09007047156011794 L3.2499587323398913 0.11099942656010597 L3.4323765383399376 0.26737230956009483 L3.44064476733989 0.2761573035600904 L3.4386810633399563 0.2946574665600892 L3.41899234333998 0.2890764115600959 L3.384214103339943 0.26608039956004603 L3.3642670013399396 0.26773404556009694 L3.3548618903399614 0.28039477056002937 L3.35729068333994 0.2976030235600078 L3.372948641339903 0.3130026005599902 L3.464415927339914 0.3291256465600654 L3.5026564873399337 0.3459721635600417 L3.494026522339979 0.3796651975600227 L3.491817070339934 0.38801201256006124 L3.4917010823399295 0.3884501905600857 L3.4761981533399506 0.3958915965600269 L3.47268415633998 0.4000257115600263 L3.4710305093399114 0.4047282665600207 L3.467619865339927 0.40860399956007853 L3.451186760339951 0.4114462035600397 L3.442763501339968 0.41459846556008273 L3.4284491303399562 0.42317675356002127 L3.4134629653399173 0.43366706956006595 L3.352691480339999 0.4716492465600979 L3.3176031833399264 0.5048255165601105 L3.304839104339905 0.5131454215600613 L3.289749585339891 0.518571447560042 L3.2749701263399373 0.5217237095599998 L3.261017489339892 0.5264779415600955 L3.247478264339904 0.5368132285600993 L3.2233970463399686 0.5680257935599897 L3.213320142339896 0.5781026975600341 L3.2037083253400027 0.5810999305600362 L3.1348753183399225 0.5933989215600874 L3.105161369339939 0.608075027560055 L3.0893483813399456 0.6274536905600243 L3.09095035133997 0.6484859985600551 L3.0925523193399016 0.653188553560021 L3.094309318339967 0.6558757275600655 L3.1074868083399423 0.670603511560067 L3.106918367339901 0.6702417755600649 L3.1090887783399097 0.6717920695600625 L3.117667065339944 0.6796468865600147 L3.1204575933399923 0.6838843545600568 L3.106918367339901 0.7186625935601043 L3.1567344493399645 0.7356124635601233 L3.1777150803399508 0.7402633425600911 L3.199625887339991 0.7387647255600811 L3.2184361093398905 0.7343205525600567 L3.237453036339943 0.7327702595600485 L3.259570549339898 0.7398499305600623 L3.2861322353399913 0.7731295525600146 L3.299464754339894 0.8193799595600737 L3.317344800339967 0.8618579865600324 L3.3576524173399065 0.884027176560032 L3.399820386339897 0.8860942345601117 L3.442711825339913 0.8834070595600778 L3.585235425339974 0.8498173785600542 L3.673860506339949 0.8436678825600765 L3.694479403339969 0.8452181755599995 Z M3.2342490973399975 1.20168220556004 L3.355430331339946 1.2328947715600336 L3.390518629339951 1.2338249475600875 L3.4221446053399376 1.2227145135600708 L3.4344435963399036 1.225143306560021 L3.441936679339946 1.2435917925600322 L3.4403347093399788 1.2615235145601034 L3.430051099339991 1.2687582155600623 L3.397133212339938 1.2737708285600533 L3.3685044683399923 1.28513964456004 L3.317138095339928 1.3170240035600997 L3.311402010339961 1.3135100055600262 L3.2828249433398895 1.2759412385600442 L3.2729030683399145 1.2662777465600001 L3.2390033293399796 1.2480876425600727 L3.2256708093399737 1.2334115345600694 L3.218126050339933 1.2168234005600524 L3.219262932339902 1.2013721475600718 L3.2342490973399975 1.20168220556004 Z" fill="black" stroke="black" stroke-width="0.5" vector-effect="non-scaling-stroke"/></svg>