<svg xmlns="http://www.w3.org/2000/svg" viewBox="0 0 11.350927799759962 10.960351148040104"><path d="M3.71111555588001 8.529524329020035 L3.6957159788800276 8.519809159020085 L3.620991856880007 8.491800533020083 L3.57458642188001 8.46131143802009 L3.5672483678800084 8.459864498020096 L3.5498850868799785 8.461621496019987 L3.542547032879977 8.459037674020081 L3.5367592738799907 8.451596268020054 L3.533658686879985 8.436610103019987 L3.529937983879986 8.428961991020103 L3.516088699879983 8.414182531020089 L3.503479650879992 8.407464596020063 L3.4318561158800343 8.40147012902004 L3.345866531879974 8.382866613020084 L3.308297765880038 8.379869381020072 L3.2947068638799486 8.370877681020033 L3.280340815879949 8.348966874020064 L3.2609104778800564 8.303491613020014 L3.2499550738799847 8.289642330020058 L3.213678218880059 8.265457760019984 L3.1732672478799735 8.25553588502008 L3.042990962880051 8.258119706020082 L3.0217002728799933 8.255432531020062 L3.001546463879972 8.24840453702005 L2.9818577428799493 8.233831783019994 L2.9450641238799697 8.19683145702004 L2.93582654988003 8.191889355020038 L2.9243935508799517 8.185772701020028 L2.9152984978800554 8.185359289020028 L2.896074864880031 8.189906815020052 L2.8866697548799856 8.190733638020077 L2.876282791879955 8.187736405020061 L2.8474990188799687 8.171199947020071 L2.821970861880029 8.167582597020086 L2.806054520879993 8.174300533020016 L2.791636795879949 8.184945878020017 L2.7708111928800143 8.193524165020037 L2.7283331658800556 8.18339558502008 L2.707972651880052 8.14412149602002 L2.708076004879981 8.094718827020003 L2.726886225879948 8.054204504020078 L2.5778513948799535 8.013793534020095 L2.554597000879962 8.015757239020033 L2.5204905558799986 8.034050696020017 L2.5000266888799523 8.041285396020072 L2.4798728798800447 8.041182043020044 L2.462923009879969 8.034670812020067 L2.366701492880022 7.961290279020033 L2.343602127879958 7.930697831020026 L2.336109044879972 7.887909745020095 L2.336212397880015 7.850599361020058 L2.3292877558799567 7.825174556020058 L2.3093406538800103 7.808638098020054 L2.270893387879962 7.79778604702001 L2.2549770468800396 7.787760820019996 L2.2334796508800103 7.763162837020004 L2.2177700158800597 7.755101314020108 L2.2026804968800455 7.753964433020015 L2.189089594879956 7.755411373020009 L2.176222163880052 7.754171138019969 L2.162889643880046 7.745489498020006 L2.159478998880015 7.73846150302009 L2.1561717078800164 7.720271399020048 L2.1524510048800174 7.713966874020044 L2.143562657879979 7.708799231020037 L2.1403587188800337 7.710142818020002 L2.1377748978800035 7.714070227020058 L2.1306435498799736 7.716860754020032 L2.1190680298800224 7.719341223020009 L2.067339920879956 7.737634680020064 L2.059640132879988 7.742698970020043 L2.05116519787995 7.745592851020034 L2.0382977658799994 7.743525793020068 L2.0276007448800577 7.735567622020013 L2.0086871698800017 7.710349523020056 L1.997008296879951 7.702391353020089 L1.9729270788800157 7.702391353020089 L1.9516363888799582 7.713346757019976 L1.9312758748800114 7.727816158020089 L1.9100885378800534 7.738254797020033 L1.868075597880047 7.737944738020047 L1.8238922478800212 7.721925044020096 L1.7826027788800296 7.697533769020068 L1.7497882448799622 7.672108964020068 L1.6821437948800302 7.600795488019997 L1.618530106879998 7.509741613020053 L1.5685073198799522 7.410729569020048 L1.5423590458800298 7.315748286020038 L1.5183811808800236 7.225727942020071 L1.445207352880029 7.048994543020057 L1.2318870398799753 6.717955318020016 L1.2049636188800399 6.623594152019989 L1.1951967728799922 6.557655024020064 L1.159850092880017 6.431874589019997 L1.084712560879975 6.271057532020079 L1.0249229288800414 6.178763423020015 L0.8811074168799813 6.011641842020011 L0.8029726518800224 5.946839595020008 L0.7593648758800349 5.924664509020032 L0.6633429318800061 5.875836177020104 L0.5288808548799828 5.77403360602004 L0.49725487888005304 5.7409606890200555 L0.474620600879998 5.703133541020079 L0.42418440287999815 5.568568111020027 L0.35628157087998247 5.4811315880200615 L0.3279628858800514 5.43400268202005 L0.3157672478799576 5.39472859301999 L0.29907576088001164 5.2753560340200485 L0.2689484008799603 5.163424881020034 L0.2663645788800544 5.123737381020049 L0.2863116818800471 5.060278723020018 L0.3611391558800072 4.959613033020061 L0.3932818968800369 4.903285722020057 L0.40268700687996883 4.825977778020046 L0.38377343387994856 4.741951900020111 L0.2866217398799584 4.513335363020004 L0.24590071187995122 4.351588130020061 L0.1680760048800174 4.209167883020057 L0.13448632387999382 4.12762247302001 L0.13304505188002835 4.121577138020043 L0.1140224568799475 4.04178791902008 L0.11128360588000064 3.957968746020014 L0.13107567887996296 3.8733227500201073 L0.19158878188002504 3.7084749300200164 L0.20114892087999792 3.623932287020053 L0.19753157088004158 3.5842447870200678 L0.19443098588001462 3.5714290320200766 L0.4285252238799693 3.5684317990200602 L0.477721187879947 3.580007320020015 L0.5185455688800538 3.5832112580199853 L0.523093093879961 3.584968258020054 L0.534616938880017 3.5760799110200443 L0.5376658478800458 3.5648144490200755 L0.5381826128799752 3.5518953400200663 L0.5419033158799742 3.537735999020028 L0.5482078408799929 3.5318448850200346 L0.5652610628799515 3.5238867140200645 L0.5704287068800475 3.51530842702003 L0.5725474408800117 3.498978674020093 L0.5743561158800183 3.495464676020048 L0.5905825148800226 3.4855428010200447 L0.6012278598800229 3.4868863890200137 L0.6120799108800519 3.492364091020007 L0.6288230748799855 3.4951546180200515 L0.6376080678799916 3.4921573850200494 L0.6907314408800538 3.467249345020078 L0.7265948848799688 3.433659663020051 L0.7609080358800178 3.4142293250199733 L0.7710366168799645 3.4060644480200457 L0.7932574818799729 3.3935587520200547 L0.8058665318800102 3.377642411020033 L0.831394689880053 3.316664221020061 L0.8417299768799715 3.3017814090201076 L0.9098395138799695 3.2451440390200323 L0.9400185498799623 3.20845377102006 L0.9634796498800391 3.1679394490200528 L0.9661043778800398 3.161616240020094 L0.9816697548800128 3.1241178350200434 L0.9990330358799859 3.052080888020071 L1.0110219688799837 3.0316170210200104 L1.0635252228800276 2.9778735310201077 L1.1019724888799622 2.9115209920199865 L1.127242264880035 2.895397945020007 L1.1718390248799686 2.9099706990200636 L1.1752496698799995 2.8924007110200867 L1.1721490848800293 2.876794429020051 L1.1664646768799933 2.861394853020058 L1.1622272088799512 2.8445483360200816 L1.1633204488799969 2.825963261020049 L1.163364090879977 2.825221350020029 L1.1703920858799641 2.807237952020045 L1.2116298778799681 2.742435705020042 L1.2191229608800107 2.723832190020075 L1.2194846958800234 2.705538732020016 L1.217107580879965 2.6854882770200694 L1.2225336058800416 2.6734993450200184 L1.2503872018799846 2.653552241020079 L1.2528676708799615 2.649521480019998 L1.2565883748800069 2.6377392530200003 L1.2591721968799696 2.6346386680200444 L1.275812007880031 2.6321581990200675 L1.2777757118799649 2.6323649050200393 L1.278292476880008 2.634225256020044 L1.2974127558800568 2.632674963020107 L1.2984979608799812 2.630504553020031 L1.3002032838800481 2.621822912020064 L1.3017535758800385 2.6193424440200905 L1.328366939879995 2.6132446250200436 L1.335239904879952 2.6107641560200667 L1.3431980748800036 2.6038395140199944 L1.3562205358800519 2.5883365840200687 L1.4031427368800244 2.566529130020043 L1.4293943638800464 2.5411043250200427 L1.4306862748799993 2.514439286019992 L1.4005022248799968 2.497982891020057 L1.3935309198800176 2.494182124019999 L1.4119277298799737 2.472064612020076 L1.4307896278799852 2.454494624020014 L1.4528554638800095 2.440852047020001 L1.4801922978800484 2.4305167600200823 L1.492491287879968 2.4289664670199747 L1.502258133879959 2.423488765020081 L1.5086660118799635 2.414497066020032 L1.5117149208799923 2.402611486020006 L1.5381732548799754 2.4157373000200684 L1.5659234978800463 2.4126367140200378 L1.5900047158799815 2.396203609020062 L1.6050942338799494 2.369331865020057 L1.6045774698799526 2.3635441040199927 L1.6001332958799956 2.345767411020062 L1.5996165318799989 2.338429358020064 L1.613775874879959 2.31827554902 L1.6224575148799794 2.2944010370200933 L1.6242145138799877 2.2818953410201024 L1.6231809858799942 2.269286292020083 L1.6190468708800516 2.262154944020039 L1.6060760858800585 2.2526464800200605 L1.6025104118799867 2.2451017210200197 L1.603337234879998 2.239313961020044 L1.60809146687998 2.225981441020024 L1.6079364368799496 2.2207104450199884 L1.5980662388799622 2.2068611610200284 L1.5734682568799734 2.183710120020037 L1.5685073198799522 2.169034012020048 L1.5751219038800421 2.153117671020026 L1.6060760858800585 2.117460933020026 L1.6090666948800525 2.1121194180200282 L1.6157395788799498 2.100201004020035 L1.5923818318800294 2.0999942990200813 L1.5456663368800285 2.11301676002003 L1.5223085898799944 2.1150838170200776 L1.509131099880019 2.111156408020107 L1.486238439879994 2.0961702430200395 L1.473939448880028 2.091622717020015 L1.4615887818800068 2.0924495400200405 L1.4516152298799874 2.0963769490200965 L1.4411765908799588 2.098960770020013 L1.4278440718799992 2.096066890020025 L1.4251568958800043 2.0917260700200435 L1.4223663688800023 2.075396317020007 L1.419782547880029 2.0692984980200455 L1.4154417268800579 2.0664046180200577 L1.4022125608799705 2.0608235640200396 L1.337255285879987 2.0219628860200762 L1.3291420858800187 2.0206192990200256 L1.3151894488800302 2.025786943020022 L1.3033038688799614 2.0356054650200823 L1.283511795879999 2.0628906200200126 L1.2787058878800188 2.0651643830200177 L1.278577149880018 2.064784301020011 L1.2743650668799908 2.0523486290200443 L1.2656834268799706 2.0437703410200063 L1.2598956658800056 2.0358121700200504 L1.2644431918800159 2.0248567670200677 L1.2462530878799747 2.0198958290200286 L1.231060216879964 2.0056331340200435 L1.2060488238799643 1.9732836870200563 L1.2038784138800587 1.9560237590199696 L1.2153505808799672 1.933802892020025 L1.237158035880011 1.9043473260200292 L1.2375197708800236 1.8789225220200185 L1.2407753858799673 1.8634195920200076 L1.2488369098799943 1.8502937780200446 L1.3063527788799796 1.7899357050200413 L1.3128123328799823 1.7710221310200884 L1.289867996880016 1.7794970660200127 L1.2540045528799872 1.7958268190200348 L1.2329205688799583 1.802751461020022 L1.2134902298799624 1.8025447550200644 L1.2023797968799634 1.7917960570200497 L1.2062555298799928 1.7671980750200609 L1.2144204058800163 1.7547957310200806 L1.2382949168799904 1.7321614540200434 L1.2479067338799972 1.7196557580200382 L1.2522475538799789 1.709113765020077 L1.2604124308799918 1.6773844360200618 L1.298342931879997 1.5850903270200822 L1.311727127880058 1.5639029910200284 L1.3448517208799693 1.5222517860200062 L1.3641787068800362 1.5108829710201084 L1.3854693958799906 1.5135701450200534 L1.4071734978799917 1.5197713170200293 L1.4281024528799797 1.5186344360200215 L1.4393162388800214 1.5092293250200717 L1.4535789348800243 1.4823575800200635 L1.4650511018800465 1.4733658810200287 L1.477970209880052 1.4716088820200488 L1.4887189078800382 1.4750195270200654 L1.5409121048800465 1.5007543900200622 L1.5490769808799563 1.5027180950199996 L1.5581720338800231 1.5002376260200228 L1.5654067338799926 1.4961035110200944 L1.5793593708799811 1.492692867019982 L1.5948106238799618 1.4838045200200574 L1.6116054648800535 1.476363114020045 L1.624627925879988 1.466958003020081 L1.634963211879974 1.4482511350200005 L1.6392006788800266 1.427890621020068 L1.634963211879974 1.3594710240199808 L1.6436448528800405 1.3154427040200138 L1.6780613558799722 1.2041316690200707 L1.6696897738800338 1.1750895140200717 L1.6589927528800352 1.1606201130200438 L1.6437482058799695 1.145323888020001 L1.6257131298799798 1.1363321900200551 L1.6070062618799987 1.1403629510200508 L1.6201837518799742 1.0821752880200384 L1.6171865198800468 1.0557169550200447 L1.5872141888800364 1.0509627230200485 L1.5921751258800576 1.0429012000200677 L1.5982729448799908 1.0363899690200062 L1.614499343880052 1.0236775680200472 L1.6068512328799578 1.0057975220199884 L1.6124839638800061 0.9903979450200913 L1.622664220879951 0.9754117800200239 L1.6281419228799585 0.9584619100200191 L1.6201837518799742 0.9183609980200336 L1.616669754879947 0.9078190060200617 L1.6281419228799585 0.880327144020085 L1.6256614538799816 0.8711287390199933 L1.6167731078800465 0.8574861610200761 L1.614499343880052 0.8523185170199943 L1.614809403879999 0.8415698200200543 L1.627728510880015 0.762711584020038 L1.6285553338799694 0.7369767210200413 L1.6212689578800585 0.7157893830199944 L1.597497798880024 0.7248844360200613 L1.5818398388799686 0.7125854450201095 L1.5722280228799512 0.6900545200200829 L1.5625128538800048 0.6540877230200257 L1.5580686808799804 0.6464396120200453 L1.5456663368800285 0.6332104450200537 L1.529129878879953 0.6110929310200381 L1.523187088879947 0.5980704710200078 L1.528509760879981 0.5922827110200322 L1.5316103478799867 0.5805004840200345 L1.5334706988799915 0.5544555620200518 L1.5277862908799555 0.5283072870200405 L1.5083559518800165 0.5165250610200465 L1.4887189078800382 0.5137345340200872 L1.4226764278800168 0.4892399040200379 L1.4134780228800103 0.48365885002001985 L1.3984918578800283 0.46939615502003473 L1.387949865879957 0.4619547480200188 L1.358494298880057 0.44975911102009913 L1.3455751908800515 0.44004394102006383 L1.3402008418799731 0.4240242470200135 L1.3412343708799561 0.41658284102008647 L1.3436114868799471 0.41069172701999346 L1.3458852498799523 0.40635090702001175 L1.3468671018800045 0.4032503210200664 L1.3448517208799693 0.39508544502004295 L1.3355499628800338 0.38299315902005926 L1.3296588498799586 0.36263264502002723 L1.3114687458799743 0.3324536090200345 L1.305370926880041 0.31788085502006336 L1.3014435178799566 0.29204263902005234 L1.2972060498800282 0.2858414670200622 L1.2849070598799948 0.27695312002005235 L1.2807729448800522 0.27809000202006384 L1.274261713880005 0.2816039990200201 L1.26630354388001 0.2828442340200459 L1.2575185498799577 0.27695312002005235 L1.2558649048799815 0.27095865402001973 L1.2585520788799975 0.2649641880200013 L1.262324458880041 0.2592797810200542 L1.2644431918800159 0.2533886680200501 L1.2611358998800277 0.23974608902004402 L1.246563146880046 0.2297208610200263 L1.2432558558800473 0.21897216302009692 L1.246408117880005 0.20770670102004285 L1.25410790588003 0.19675129802006008 L1.2620379138800466 0.1884608350200372 L1.2632029578799937 0.18724283401998232 L1.2712644818799639 0.18073160402000976 L1.28366682488004 0.18186848502001762 L1.2911082308799813 0.1868294230199714 L1.2962758738799742 0.19241047701998948 L1.301908605880012 0.19499429902008014 L1.3139492138799618 0.19406412402002982 L1.3325527308799927 0.18972330302004448 L1.3829889278799463 0.18507242402007673 L1.4047963818800575 0.18744954002003933 L1.4288775998799927 0.19499429902008014 L1.4415900018799697 0.18445230702002302 L1.4773500938800588 0.1466251580200426 L1.4918194948799872 0.1390803990200018 L1.5297499958799925 0.12709146702003604 L1.5673704378800402 0.10745442302000097 L1.6027171188799478 0.11634276902002139 L1.6186334588800513 0.12419758702004824 L1.683228998880022 0.12419758702004824 L1.86637027487998 0.12419758702004824 L2.0494081988799984 0.12419758702004824 L2.0707447618799755 0.12419758702004824 L2.2324977978799687 0.12419758702004824 L2.4155873978799853 0.12419758702004824 L2.598625321879947 0.12419758702004824 L2.7764447318799874 0.12419758702004824 L2.7816632438800433 0.12419758702004824 L2.9648045198800013 0.12419758702004824 L3.1478941208799505 0.12419758702004824 L3.3310870728799635 0.12419758702004824 L3.512519788880038 0.12419758702004824 L3.5141249958799925 0.12419758702004824 L3.6374774468799522 0.12419758702004824 L3.6972145948800197 0.12419758702004824 L3.8802008418800504 0.12419758702004824 L4.063342117880008 0.12419758702004824 L4.216666916880026 0.12419758702004824 L4.246380040880037 0.12419758702004824 L4.422029041880048 0.12419758702004824 L4.429521316879995 0.12419758702004824 L4.612507563880026 0.12419758702004824 L4.694466385879959 0.12419758702004824 L4.770637446879984 0.12419758702004824 L4.774771561879984 0.12368082202000519 L4.790274491880009 0.12419758702004824 L4.792238194879953 0.15034586102005587 L4.805674067880002 0.1591308550200372 L4.842777745879996 0.162024735020025 L4.917708572880056 0.20388264602000472 L5.132372472879947 0.32377196802006747 L5.347139724880005 0.4435579380200201 L5.509145415880052 0.5340377660200764 L5.561803624879953 0.5634472610200012 L5.776467524879958 0.6832332310200391 L5.991234777880006 0.8031225540200202 L6.036618621879963 0.8284474820201089 L6.205898677879954 0.9229085240200581 L6.42045922488003 1.0427978470200392 L6.635123123879989 1.1626871700200203 L6.849787023879994 1.2825764930199872 L7.064347570880013 1.4024658160200536 L7.279114823879947 1.5222517860200062 L7.493778722879963 1.6420377560200583 L7.708442622879968 1.7619270790200252 L7.92310652288003 1.8817130490200773 L8.137873774879974 2.001602372020044 L8.214463945879995 2.0443778160200017 L8.35253767487998 2.1214916950200253 L8.435116612879963 2.167587072020054 L8.450412837880005 2.1921850550200324 L8.468086177879993 2.300602210020002 L8.470247613880044 2.313771889020045 L8.490307042880001 2.4359944620200755 L8.472116938880017 2.437338049020041 L8.462195063879985 2.4459163370200647 L8.458681066879958 2.4598689740200674 L8.460128006879952 2.477749019020023 L8.44121443188001 2.479195959020017 L8.417443273880021 2.491908361020065 L8.39511905487998 2.5095817010200667 L8.38054630088001 2.525704748020046 L8.375482010879946 2.53459309502007 L8.370727778879964 2.5457552040200957 L8.368143957880047 2.557434078020065 L8.36969424987998 2.5679760700200367 L8.376928950879996 2.5753141230200347 L8.393362056880019 2.577381180019997 L8.398426346879969 2.5852359990200275 L8.394395584879955 2.6017724560200284 L8.386437413880028 2.6213061480200244 L8.389331293880016 2.6350520790200553 L8.437183670879985 2.632261552020096 L8.458577713880029 2.634121903020101 L8.479661697880058 2.639702958020023 L8.49857527288 2.648798010020001 L8.512527909879989 2.6616137650200775 L8.52007266888003 2.67701334202006 L8.537435948879956 2.73861164902 L8.547461176879974 2.7590755170200643 L8.56120710887998 2.7770589150200484 L8.615674067880004 2.816126298020065 L8.701043533879979 2.877621252020062 L8.786309647879957 2.9391162060200733 L8.871782465879985 3.000611161020088 L8.957048579879963 3.062002763019975 L9.042314692880009 3.1234977170200713 L9.127787511880026 3.1848893190200576 L9.206426929879992 3.241605020020045 L9.213053624880015 3.2463842730200687 L9.298526443880032 3.307775875020041 L9.38379255788001 3.3691674760200234 L9.469058670880056 3.430662431020038 L9.554531489880016 3.4921573850200494 L9.639900955879991 3.5535489870200214 L9.725270421879966 3.6150439410200326 L9.810639887879997 3.6765388960200474 L9.896009354879961 3.73793049702003 L9.98085513187996 3.7991284080200804 L9.987691068879965 3.805394684020043 L10.005350574879994 3.8102774960200483 L10.01177961087998 3.838353668020047 L10.00632713688 3.870742991020065 L9.987691068879965 3.8879142150200456 L9.960428699879994 3.9015860900200456 L9.98248273587998 3.9104565330200804 L9.997538074879994 3.911758616020065 L10.00624575687996 3.917292470020029 L10.008768542879945 3.9394278870200443 L10.00754783988 3.9606681210200483 L10.003804350879957 3.9780021060200417 L9.997293933879998 3.9939526260200315 L9.965392891879983 4.048070465020046 L9.952534818879965 4.060277496020048 L9.946756824879994 4.045629059020043 L9.950174792879945 4.025853668020047 L9.956603829879977 4.00648517802007 L9.959859037879962 3.9875235900200456 L9.95359276188 3.9699454650200456 L9.93593325687996 4.021459137020044 L9.920633777879996 4.039769684020043 L9.89890526188 4.038223460020062 L9.916239245879947 4.06507892802007 L9.918924792879945 4.075007314020026 L9.922424141879983 4.13181069902005 L9.919413074879994 4.141820465020046 L9.91257713688 4.146133616020065 L9.897033516879983 4.14125080302007 L9.88840721488 4.144994293020047 L9.884663725879957 4.150039866020065 L9.87473533988 4.169408356020042 L9.873026355879997 4.183080231020042 L9.887430652879996 4.18226642802007 L9.919413074879994 4.169164215020046 L9.920145495879947 4.18421955302007 L9.931131824879994 4.208226715020046 L9.933003568879965 4.217504059020043 L9.928934558879998 4.224828277020051 L9.890848620879947 4.258031402020051 L9.884338204879977 4.26657632402005 L9.864481433879998 4.307917470020029 L9.833882475879957 4.3538159080200804 L9.830627266879983 4.360977366020065 L9.838439766879983 4.368301585020062 L9.84934471488 4.36000080302007 L9.864806954879977 4.34046955302007 L9.87082908988 4.352757965020046 L9.827534818879965 4.478164866020065 L9.816629870879947 4.500137522020068 L9.802713855879997 4.518692210020062 L9.792215808879998 4.525609527020051 L9.780659818879965 4.531224762020044 L9.77154523587998 4.539037262020044 L9.768534167879945 4.552709137020044 L9.772847318879965 4.56117267802007 L9.780741199879994 4.564916168020047 L9.787658516879983 4.571019684020043 L9.789041980879997 4.58688882402005 L9.775614245879947 4.626602366020065 L9.746805652879996 4.685277496020048 L9.711893542879945 4.737930491020065 L9.679178699879994 4.75876382402005 L9.692850574879994 4.764948720020029 L9.686258777879996 4.785619293020047 L9.685444975879957 4.832168772020068 L9.675760730879997 4.850723460020062 L9.663065417879945 4.866673981020042 L9.64491763187996 4.903783356020042 L9.62278221488 4.937230621020048 L9.61562075687996 4.9587963760200315 L9.611877266879983 4.982152496020048 L9.611551745879947 5.046605621020048 L9.607319975879957 5.056371246020048 L9.600809558879998 5.063288564020026 L9.595194324879994 5.071996246020048 L9.591288074879994 5.081354970020029 L9.590555652879996 5.084691559020043 L9.585184558879998 5.110163564020026 L9.575663074879994 5.130508616020065 L9.568257475879957 5.152318512020044 L9.569315417879945 5.176488434020043 L9.572977527879996 5.182917470020029 L9.585428699879994 5.197240387020044 L9.589823230879997 5.203832184020043 L9.59934471488 5.242325022020068 L9.603495105879997 5.2522534080200804 L9.609354480879997 5.258031402020051 L9.631408516879983 5.27211017802007 L9.647033516879983 5.285293772020068 L9.64882388187996 5.291478668020047 L9.65273013187996 5.329239085020062 L9.650288725879957 5.353246246020048 L9.643290027879996 5.3748120010200315 L9.631408516879983 5.389379059020043 L9.63905825687996 5.414281402020051 L9.642476225879957 5.470352366020065 L9.655008777879996 5.495254710020062 L9.665913725879957 5.503148590020046 L9.67820213688 5.509496246020048 L9.688537422879985 5.516332184020043 L9.692850574879994 5.52601642802007 L9.694396797879985 5.536758616020065 L9.698791329879977 5.547989085020062 L9.705301745879947 5.558324371020048 L9.71335838688 5.566869293020047 L9.71913638187996 5.571019684020043 L9.724181954879977 5.573054189020026 L9.737284167879945 5.573705231020042 L9.744120105879997 5.576634918020047 L9.747538074879994 5.583145335020062 L9.75038638187996 5.5901440330200804 L9.754943672879985 5.594864085020062 L9.767557605879997 5.597142731020042 L9.79530825687996 5.59860757402005 L9.806131824879994 5.604792470020029 L9.816304350879957 5.608617340020046 L9.827127917879945 5.604792470020029 L9.826151355879997 5.596817210020062 L9.817443672879985 5.592992340020046 L9.801330391879983 5.586726064020026 L9.78163638187996 5.573705231020042 L9.81028221488 5.582494293020047 L9.831115547879985 5.591771637020044 L9.88645408988 5.644017731020042 L9.919413074879994 5.683568512020044 L9.94578026188 5.702367340020046 L9.95359276188 5.710912262020044 L9.968648100879957 5.7366284080200804 L9.977518542879945 5.745824371020048 L9.99452700687996 5.755996897020068 L10.002990547879985 5.763402496020048 L10.009663725879957 5.774714345020029 L10.013651355879997 5.78773517802007 L10.015034818879965 5.800430491020065 L10.02121971488 5.825332835020062 L10.036112292879945 5.852676585020062 L10.054178699879994 5.866022939020026 L10.070291980879997 5.848770335020062 L10.07468651188 5.877741689020026 L10.07004783988 5.916722809020043 L10.070536120879947 5.95212319902005 L10.090718412879962 5.9710034080200804 L10.090067370879947 5.952774241020065 L10.088439766879983 5.945043121020048 L10.083963855879997 5.936823720020029 L10.102274402879996 5.937963043020047 L10.116760079879977 5.943578277020051 L10.145243152879996 5.9607495010200315 L10.16054263187996 5.964818512020044 L10.190816068879965 5.967504059020043 L10.203348620879947 5.9744213760200315 L10.218159818879965 5.979711090020046 L10.254780912879962 5.979304189020026 L10.261942370879947 5.98500080302007 L10.266174141879983 5.998754059020043 L10.284566068879965 6.022923981020042 L10.292948230879997 6.052464996020048 L10.340799792879945 6.115453277020051 L10.343973620879947 6.122370595020029 L10.342834297879985 6.132054840020046 L10.33795148587998 6.138158356020042 L10.332743152879996 6.143366689020026 L10.330301745879947 6.149714345020029 L10.338846667879945 6.21351642802007 L10.337788725879957 6.239883616020065 L10.322814766879983 6.238500152020051 L10.312723620879947 6.251195465020046 L10.30515526188 6.27829507402005 L10.29929588688 6.29001382402005 L10.288146797879985 6.298802887020044 L10.278706693879965 6.298558746020048 L10.27154523587998 6.28968830302007 L10.268127266879983 6.272679840020046 L10.226135079879977 6.301895335020062 L10.22499575687996 6.30336017802007 L10.217020495879947 6.313939606020042 L10.21140526188 6.331761871020048 L10.20904523587998 6.347793772020068 L10.204650704879977 6.362523590020046 L10.19309471488 6.376276845020029 L10.18015526188 6.386449371020048 L10.17388898587998 6.3889721580200804 L10.165506824879994 6.389948720020029 L10.157694324879994 6.393041168020047 L10.15867088688 6.400528147020068 L10.163146797879985 6.409398590020046 L10.165913725879957 6.417211090020046 L10.160054350879957 6.428522939020026 L10.14621971488 6.431127106020042 L10.130350574879994 6.430150543020047 L10.118062162879962 6.430882965020046 L10.127827787879962 6.446996246020048 L10.137756172879985 6.458145335020062 L10.144510730879997 6.470922027020051 L10.14459211087998 6.492406402020051 L10.140197579879977 6.507054840020046 L10.13132713688 6.527562652020051 L10.120666329879977 6.54587319902005 L10.09421776188 6.5701245010200315 L10.082580391879983 6.607884918020047 L10.065002266879983 6.718073720020029 L10.06614158988 6.7385815330200804 L10.070291980879997 6.759252106020042 L10.083068672879985 6.7913159080200804 L10.086486641879983 6.810033356020042 L10.08054588688 6.825007314020026 L10.077127917879945 6.839167470020029 L10.09226463688 6.875707184020043 L10.087381824879994 6.893285309020043 L10.042866850879957 6.944961741020065 L10.073465808879998 6.938207184020043 L10.095275704879977 6.913386220020029 L10.109598620879947 6.880183095020029 L10.118062162879962 6.8479565330200804 L10.133524402879996 6.860570465020046 L10.145487292879945 6.874160960020062 L10.14695213688 6.8884838760200315 L10.131082995879947 6.90329507402005 L10.168680652879996 6.899632965020046 L10.185770495879947 6.901504710020062 L10.203348620879947 6.913793121020048 L10.23052961087998 6.940160309020043 L10.233784818879965 6.954239085020062 L10.227274402879996 6.978978668020047 L10.212463204879977 7.011367991020065 L10.211161120879947 7.023656402020051 L10.221903308879998 7.058568512020044 L10.222879870879947 7.097631012020044 L10.227274402879996 7.1155346580200804 L10.24265526188 7.10609455302007 L10.24778221488 7.101293121020048 L10.24460838688 7.132054840020046 L10.23215721488 7.160293772020068 L10.199930652879996 7.211156402020051 L10.166727527879996 7.3010815330200804 L10.15207908988 7.3284252830200804 L10.145243152879996 7.32517007402005 L10.142150704879977 7.325414215020046 L10.138895495879947 7.32712319902005 L10.131082995879947 7.3284252830200804 L10.138081693879965 7.343236481020042 L10.135803047879985 7.379043772020068 L10.138569975879957 7.396703277020051 L10.124247058879998 7.3904370010200315 L10.124084297879985 7.398412262020044 L10.118062162879962 7.417211090020046 L10.101786120879947 7.39938882402005 L10.09348533988 7.393285309020043 L10.083963855879997 7.3904370010200315 L10.09185773587998 7.405004059020043 L10.092346016879983 7.416722809020043 L10.085184558879998 7.425430491020065 L10.070291980879997 7.430882965020046 L10.082987292879945 7.456517731020042 L10.091206693879965 7.4827221580200804 L10.095601225879957 7.510554189020026 L10.096903308879998 7.540990387020044 L10.09023013187996 7.598933095020029 L10.093322579879977 7.627090647020068 L10.12668846488 7.66110757402005 L10.139221016879983 7.68421955302007 L10.147928699879994 7.70993569902005 L10.15207908988 7.732559397020068 L10.150288725879957 7.816055491020065 L10.14459211087998 7.835586741020065 L10.179585600879957 7.845433746020048 L10.185526355879997 7.851700022020068 L10.188374662879962 7.8596752830200804 L10.192443672879985 7.866673981020042 L10.203348620879947 7.86976642802007 L10.223368152879996 7.871231272020068 L10.229390287879962 7.877090647020068 L10.229878568879965 7.889460439020026 L10.23411033988 7.910619293020047 L10.242899402879996 7.926976715020046 L10.253885730879997 7.934382314020026 L10.265848620879947 7.939590647020068 L10.278788074879994 7.948542470020029 L10.287332995879947 7.962539866020065 L10.298807605879997 7.997533356020042 L10.309793933879998 8.013646637020045 L10.33795148587998 8.034805491020066 L10.343973620879947 8.04392007402005 L10.329976225879957 8.04782632402005 L10.31809471488 8.047093902020052 L10.31093325687996 8.04465249602005 L10.296284818879965 8.033503408020081 L10.294331693879965 8.031387522020069 L10.27512596488 8.013646637020045 L10.254862292879945 7.989069814020026 L10.239644193879965 7.9802807510200315 L10.22043846488 7.982884918020047 L10.209207995879947 7.987442210020062 L10.203348620879947 7.988988434020043 L10.199198230879997 7.991836741020065 L10.178934558879998 8.02048257402005 L10.194071277879996 8.026179189020027 L10.254455391879983 8.02048257402005 L10.241190417879945 8.036758616020066 L10.237853829879977 8.047175283020081 L10.245584949879994 8.052953277020052 L10.265116199879994 8.054662262020045 L10.282124662879962 8.060033356020043 L10.282287422879985 8.07394937102005 L10.276428047879985 8.093724762020045 L10.27512596488 8.116022939020027 L10.277567370879947 8.119766428020071 L10.286519193879965 8.126602366020066 L10.28879783988 8.130345856020043 L10.289041980879997 8.149226064020027 L10.28879783988 8.150853668020048 L10.283426745879947 8.160944814020027 L10.282612943879965 8.164525543020048 L10.284728829879977 8.16696694902005 L10.28944888187996 8.168757314020027 L10.294006172879985 8.171849762020045 L10.296284818879965 8.177871897020069 L10.29335513187996 8.187474762020045 L10.28757713688 8.193985178020071 L10.28358950687996 8.201146637020045 L10.28562401188 8.21221434502003 L10.292948230879997 8.22824624602005 L10.292948230879997 8.235814606020043 L10.28879783988 8.24582437102005 L10.302957995879947 8.242813303020071 L10.320210600879957 8.234675283020081 L10.33632388187996 8.224584137020045 L10.34739158988 8.215469553020071 L10.35943586087998 8.214655751020032 L10.373921537879962 8.22783934502003 L10.416971667879945 8.281957184020044 L10.43406151188 8.310684397020069 L10.438862943879965 8.34152749602005 L10.423075183879998 8.373021637020045 L10.42234276188 8.380101715020047 L10.42820213688 8.388321116020066 L10.435770495879947 8.396621897020069 L10.440165027879996 8.404108876020032 L10.440165027879996 8.415257965020047 L10.434631172879985 8.435358876020032 L10.43332908988 8.44504312102005 L10.436502917879945 8.47824624602005 L10.433084949879994 8.490209137020045 L10.41965721488 8.50713622002003 L10.406229480879997 8.518773590020047 L10.397440417879945 8.520726715020047 L10.387674792879945 8.51926187102005 L10.371805652879996 8.52080809502003 L10.359354480879997 8.526586090020047 L10.354227527879996 8.535863434020044 L10.354471667879945 8.54977944902005 L10.357645495879947 8.569147939020027 L10.366597318879965 8.564753408020081 L10.377990547879985 8.562718902020052 L10.398661120879947 8.561742340020047 L10.401102527879996 8.550756012020045 L10.406148100879957 8.546524241020066 L10.415995105879997 8.551488434020044 L10.42234276188 8.558080231020043 L10.425760730879997 8.560765777020052 L10.429911120879947 8.561742340020047 L10.440978829879977 8.566381012020045 L10.442606433879998 8.576797678020071 L10.440409167879945 8.588190908020081 L10.440165027879996 8.595922027020052 L10.44700096488 8.605117991020066 L10.470926745879947 8.626927887020045 L10.479390287879962 8.646621897020069 L10.491190417879945 8.701146637020045 L10.50168846488 8.716283356020043 L10.515197579879977 8.725723460020063 L10.512593412879962 8.73215249602005 L10.504618152879996 8.738418772020069 L10.50233950687996 8.746719553020071 L10.507303699879994 8.75754312102005 L10.51218651188 8.764460439020027 L10.52545148587998 8.777481272020069 L10.531148100879957 8.78838622002003 L10.52773013187996 8.808731272020069 L10.53684471488 8.828099762020045 L10.528706693879965 8.834610178020071 L10.508524402879996 8.842259918020048 L10.491678699879994 8.858047678020071 L10.487202787879962 8.86651122002003 L10.495340808879998 8.870254710020063 L10.535054350879957 8.869359527020052 L10.542541329879977 8.870254710020063 L10.545796537879962 8.877416168020048 L10.553690417879945 8.904434397020069 L10.559956693879965 8.914688303020071 L10.576395495879947 8.926569814020027 L10.584207995879947 8.934056793020048 L10.590881172879985 8.945450022020069 L10.597554350879957 8.973851715020047 L10.59031151188 8.994278147020069 L10.571512683879998 9.004043772020069 L10.542541329879977 9.000625803020071 L10.551004870879947 9.014134918020048 L10.579487943879965 9.035863434020044 L10.58046450687996 9.04465249602005 L10.569722318879965 9.05173257402005 L10.53521711087998 9.066218251020032 L10.504455391879983 9.073705231020043 L10.50396711087998 9.085179840020047 L10.516581042879945 9.110489085020063 L10.514627917879945 9.129125152020052 L10.507303699879994 9.143203928020071 L10.495666329879977 9.154515777020052 L10.481017891879983 9.16501382402005 L10.506734037879962 9.160375152020052 L10.553446277879996 9.10446694902005 L10.57395408988 9.106664215020047 L10.587300443879965 9.114069814020027 L10.617166980879997 9.111953928020071 L10.63840721488 9.133031402020052 L10.651590808879998 9.134740387020045 L10.666239245879947 9.13408934502003 L10.679666980879997 9.136530751020032 L10.704569324879994 9.155492340020047 L10.765197579879977 9.255020335020063 L10.767069324879994 9.312637522020069 L10.775370105879997 9.342585439020027 L10.78562401188 9.330703928020071 L10.79075096488 9.314265126020032 L10.790913725879957 9.296849762020045 L10.785868152879996 9.281468902020052 L10.776834949879994 9.261367991020066 L10.77903221488 9.25290444902005 L10.790913725879957 9.251765126020032 L10.810038074879994 9.254532053020071 L10.82460513187996 9.25876382402005 L10.85552961087998 9.272110178020071 L10.87506086087998 9.27666747002003 L10.915018542879945 9.290990387020045 L10.919901355879997 9.289851064020027 L10.922912422879985 9.291315908020081 L10.92616763187996 9.302220856020043 L10.92429588688 9.315160309020044 L10.91770408988 9.328588043020048 L10.91453026188 9.343236481020043 L10.922749662879962 9.360000803020071 L10.925760730879997 9.369278147020069 L10.91835513187996 9.37432372002003 L10.90867088688 9.378555491020066 L10.905659818879965 9.384740387020045 L10.910868152879996 9.392797027020052 L10.91607648587998 9.393366689020027 L10.921366199879994 9.391088043020048 L10.92616763187996 9.39035562102005 L10.942850574879994 9.400528147020069 L10.950663074879994 9.40207437102005 L10.954081042879945 9.394180491020066 L10.95481346488 9.38376382402005 L10.957905912879962 9.37790444902005 L10.964090808879998 9.376765126020032 L10.974588855879997 9.381078277020052 L10.98679588688 9.389379059020044 L11.009989245879947 9.409805491020066 L11.022359037879962 9.418269033020081 L11.022196277879996 9.40915444902005 L11.02390526188 9.402806793020048 L11.026590808879998 9.39743569902005 L11.029194975879957 9.39035562102005 L11.037088855879997 9.395726715020047 L11.04302961087998 9.397191559020044 L11.049051745879947 9.395319814020027 L11.05710838688 9.39035562102005 L11.040099922879985 9.385472809020044 L10.988260730879997 9.363744293020048 L11.022359037879962 9.322077626020032 L11.03562401188 9.326309397020069 L11.04140200687996 9.33762124602005 L11.044413074879994 9.351537262020045 L11.049702787879962 9.363744293020048 L11.058491850879957 9.37082437102005 L11.080952787879962 9.381566559020044 L11.091288074879994 9.39035562102005 L11.096740547879985 9.399226064020027 L11.12896711087998 9.47043374602005 L11.13905825687996 9.479711090020047 L11.141581042879945 9.478002106020043 L11.175272449879994 9.484675283020081 L11.18007388187996 9.486547027020052 L11.212381824879994 9.477269684020044 L11.217020495879947 9.457494293020048 L11.205057605879997 9.442032053020071 L11.187479480879997 9.445531402020052 L11.182840808879998 9.433731272020069 L11.186258777879996 9.42510497002003 L11.19537336087998 9.420059397020069 L11.207987292879945 9.418269033020081 L11.21726463688 9.421687001020032 L11.221659167879945 9.429906402020052 L11.22507713688 9.440078928020071 L11.23093651188 9.44894937102005 L11.239644193879965 9.467015777020052 L11.230448230879997 9.483047678020071 L11.213928047879985 9.498184397020069 L11.201151355879997 9.513890777020052 L11.20749901188 9.513321116020066 L11.22076398587998 9.514379059020044 L11.227111641879983 9.513890777020052 L11.216288074879994 9.54782632402005 L11.214823230879997 9.558812652020052 L11.217508777879996 9.566381012020045 L11.22312401188 9.57394937102005 L11.227762683879998 9.583226715020047 L11.227111641879983 9.596410309020044 L11.21127790987995 9.625374752020079 L11.179445226880002 9.656897375020051 L11.143581781880041 9.682322180020051 L11.078779536880031 9.704646398020017 L11.040952387879965 9.732551672020094 L10.981834549880002 9.790429276020035 L10.963024328879978 9.814717200020027 L10.951345454879995 9.825982662020081 L10.923440180880018 9.836214595020067 L10.798383214879973 9.93274617102 L10.779366287879977 9.94256469302006 L10.676220128879972 9.986076249019987 L10.576071203880044 10.05418578602 L10.550749751879973 10.06472777902006 L10.383008052879998 10.101004634020015 L10.305906815880032 10.10668904202005 L10.288750239879985 10.112270096020069 L10.272937250880002 10.120848385020096 L10.076876867880028 10.275774328020006 L10.053519119879947 10.288383377020025 L10.028404373879962 10.295824784020041 L10.001842687880039 10.295514725020055 L9.98075870288002 10.287866613019986 L9.940037674879957 10.265955806020031 L9.91647322187995 10.261304927020063 L9.885674067879986 10.275050858020094 L9.851050858879969 10.281768795020028 L9.720309484880001 10.28166544202 L9.68651309787995 10.28931355302008 L9.659744705879998 10.312361242020046 L9.642174718879996 10.324453527020026 L9.62129743987995 10.329621171020037 L9.608068273880033 10.337889400020075 L9.568277420880033 10.37530313702004 L9.54998396387995 10.38481160002003 L9.538925207880052 10.384398189020018 L9.51732445887998 10.37933389902004 L9.505335526880028 10.37809366402 L9.494483475880056 10.380160722020065 L9.474226313879992 10.389462479020082 L9.44446068888001 10.397420650020052 L9.428440994880045 10.410856522020012 L9.405910069880033 10.438865148020014 L9.307414790879957 10.50470092402 L9.282506749879953 10.53508666602005 L9.28193995887997 10.534761104020035 L9.252637771879986 10.517930090020087 L9.173366125880047 10.498293046020052 L9.137916092879973 10.480413000020093 L9.08272566287999 10.423258866020063 L9.046862218879962 10.398764237020018 L9.000663487880015 10.391632889020073 L8.99074161388003 10.394320064020107 L8.968624100880017 10.403415116019985 L8.95715193187996 10.405378820020019 L8.94526635288005 10.402174882020049 L8.925629308880016 10.388015539020088 L8.915914139879956 10.38481160002003 L8.91271020088001 10.382847896020081 L8.907439204879974 10.373649491020089 L8.905682205879966 10.371169022020027 L8.899584387880022 10.371272375020041 L8.89452009587998 10.373649491020089 L8.89141951088001 10.376543372019981 L8.89141951088001 10.37809366402 L8.88360933988005 10.377934273020045 L8.861033768880045 10.377473547020031 L8.803879633880026 10.387085363020049 L8.79447452387998 10.39690388502001 L8.785586176880056 10.399177648020029 L8.744865148879992 10.401658117020006 L8.728328689879984 10.405585527020065 L8.665490147880032 10.440725500020022 L8.658668859880006 10.449407141020075 L8.656085038879976 10.464083247020056 L8.640685460880004 10.509248450020038 L8.631280350879958 10.521444088020047 L8.632727290879952 10.539427486020031 L8.608749425880003 10.581492102020064 L8.603478429879967 10.603919673020059 L8.60750919187998 10.617252193019993 L8.613503657879985 10.629551183020027 L8.615364009880036 10.641850175020068 L8.607199132879966 10.655182695019988 L8.594693436880018 10.666138098020056 L8.573919509879968 10.68050414602007 L8.501159093879973 10.712026770020032 L8.456614008879992 10.747166744020078 L8.438010493879997 10.757605383020106 L8.41661645088001 10.761326086020034 L8.38488712187998 10.76163614502002 L8.36318301987998 10.76577025902003 L8.327009517879983 10.784580481020043 L8.306132237880004 10.788921301020025 L8.29403995288001 10.794295650020075 L8.286288488879986 10.806697993020052 L8.28060408087995 10.820547278020015 L8.275023026879946 10.830469153020019 L8.266651444879951 10.837600500020045 L8.259933507880046 10.841114498020005 L8.240916580879993 10.844215083020046 L8.218075597879956 10.844215083020046 L8.16856957588001 10.830469153020019 L8.160404698879997 10.82643839102002 L8.142628006879956 10.807938228019992 L8.131052485880016 10.802563879020028 L8.12164737487998 10.80318399602001 L8.113895910879958 10.80690469902001 L8.106041091880027 10.811865637020063 L8.096325922879966 10.816206457020044 L8.06046247988004 10.820030513019987 L8.01684756988001 10.815379634020019 L7.931891515879979 10.796362708020041 L7.896751541879976 10.779722896020033 L7.861818273880058 10.750784094020062 L7.834636469879992 10.717297766020067 L7.822647537880041 10.686498613020007 L7.806937901880044 10.695593664020066 L7.798049555880052 10.702208248020057 L7.788644445880006 10.706239009020052 L7.696143630879956 10.71440388601998 L7.681364171880059 10.711613358020017 L7.656559484879974 10.695800370020024 L7.6368190868800205 10.69435343002003 L7.627310623880046 10.689599198020034 L7.61036075387997 10.695180253020055 L7.5650921998799525 10.747890214020074 L7.537290278880018 10.78809447802 L7.52829857988004 10.796362708020041 L7.516826411880029 10.802357174019988 L7.479929438880017 10.816206457020044 L7.470214269879957 10.824061275020071 L7.464839920879992 10.830469153020019 L7.457501867880037 10.835016679020043 L7.430836827879968 10.837910559020031 L7.415954015880029 10.84297484902001 L7.353218826880006 10.852896725020102 L7.335958898879962 10.851036373020094 L7.310844152879977 10.838737382020057 L7.30526309788004 10.836670324020005 L7.2989585728800215 10.831399329020059 L7.292964106880017 10.807938228019992 L7.285109289879951 10.802563879020028 L7.168320552880029 10.802563879020028 L7.163566320880047 10.804734290020022 L7.158398677880054 10.809385169020075 L7.151474035880053 10.814036047020053 L7.120054764880049 10.818686926020106 L7.083674556879966 10.828918860020082 L7.068998448879963 10.830469153020019 L7.058663162880034 10.827575273020031 L7.043160232879952 10.818273515020095 L7.031171300880057 10.816206457020044 L6.98993350787995 10.823131099020017 L6.978461339880052 10.81527628101999 L6.969469640880018 10.797189530020063 L6.966472407879987 10.776622310020073 L6.9728802858800485 10.76163614502002 L6.9661623488800295 10.741689042019999 L6.9638885858799675 10.719054765020047 L6.958307531879964 10.700347896020062 L6.942184484880013 10.692699784019993 L6.933089432880049 10.690632727020017 L6.926268143879977 10.685465084020024 L6.919756912879986 10.67874714701999 L6.911385330880048 10.672235917020018 L6.9017735148800305 10.668205155020033 L6.879656000880029 10.662520748019986 L6.86983747888004 10.658593338020111 L6.833353917880029 10.636475826020003 L6.812476639879971 10.627277420020008 L6.798110591879972 10.628207596020061 L6.778783605880019 10.633788651020069 L6.760076736879991 10.624073482020037 L6.751085037879957 10.60515990802 L6.760593501879978 10.58283568902003 L6.743333572880058 10.56226846902004 L6.730001053880041 10.555757238019979 L6.6922772578800185 10.556170650019993 L6.6858693808799465 10.554413651020013 L6.657550695879959 10.542528072020076 L6.616622960880047 10.53508666602005 L6.60339379387997 10.54397501202007 L6.572181228880051 10.58283568902003 L6.554507889880053 10.596478267020032 L6.504278396880036 10.605469966020081 L6.485881587880012 10.61621866402001 L6.493633051880035 10.63812947102005 L6.481540766880041 10.645880936020063 L6.47048201088003 10.659213456020083 L6.462110428879978 10.67306273902004 L6.455082433880047 10.693629960020033 L6.44505720588003 10.699934485020052 L6.391107010879946 10.713887121020036 L6.389970128879977 10.713783768020008 L6.366509028879957 10.726806229020042 L6.3500759228799915 10.722672115020032 L6.33395287688003 10.716367590020013 L6.322997472879958 10.717194413020039 L6.321757238879993 10.734350988019997 L6.310388422880035 10.730733638020013 L6.305840896880024 10.725152584020094 L6.303257075879994 10.718227942020107 L6.2978827268800295 10.710683183020066 L6.2889943808800375 10.703965246020047 L6.284343501880041 10.703448482020093 L6.280416091879967 10.705722245020027 L6.273904861880023 10.707582596020032 L6.273698156879984 10.708512772019986 L6.260365636880035 10.713783768020008 L6.256024816880053 10.714197180020022 L6.231426834880008 10.713060299020015 L6.2221250768799585 10.710063065020094 L6.215510493879972 10.70365518802005 L6.213753494879963 10.698177486020072 L6.1719989368800405 10.69931436702008 L5.7548667768799895 10.695180253020055 L5.753213129880034 10.686498613020007 L5.753213129880034 10.634718827020023 L5.750939366880029 10.62014607402007 L5.745978429880008 10.608363847020058 L5.741224197879969 10.59937214702002 L5.738950434879964 10.593377681020087 L5.734712967880025 10.586039628020004 L5.725307856880047 10.578081458020037 L5.715902745880012 10.567539465020076 L5.707324458879977 10.540461014020025 L5.688617590879996 10.52516479102006 L5.684380122879954 10.51762003202002 L5.67683536387997 10.497052811020026 L5.65812849488 10.480413000020093 L5.633943924879954 10.467907303020013 L5.590742426879981 10.45354125502 L5.582577550879957 10.45250772702002 L5.57513614387997 10.455091549020025 L5.562423742879982 10.466046952020093 L5.555809158880006 10.466770422020005 L5.549401280880058 10.459122310020106 L5.527283768879979 10.418401281020053 L5.533278234879983 10.415300696020012 L5.541856522880007 10.408686112020106 L5.547747635880025 10.405378820020019 L5.547747635880025 10.399177648020029 L5.531934647880032 10.390289302020022 L5.518912186879984 10.375613196020026 L5.510023839880059 10.356182857020045 L5.5068199018799895 10.333341874020036 L5.504339432880013 10.324350174019997 L5.498138260880037 10.316598710020088 L5.4901800898799955 10.311121008020095 L5.472093338880054 10.30667683502 L5.467339106879958 10.30037231002008 L5.464238521880045 10.291587317020088 L5.45896752488002 10.281768795020028 L5.411321854879954 10.241357824020042 L5.403777094879981 10.223787838020073 L5.400883214879993 10.199293209020027 L5.387550695879977 10.158262122020062 L5.383209874880006 10.137798255020016 L5.38817081187997 10.112580155020055 L5.408090352880006 10.08736286402008 L5.417316320879959 10.075683182020029 L5.4357131308799715 10.034858801020036 L5.437883540879991 10.024523515020036 L5.437883540879991 9.980185136020083 L5.450802647880007 9.917656653020089 L5.446978592879955 9.891508378019992 L5.4530764118800015 9.883033443020082 L5.465272048879992 9.874041744020047 L5.462688227880019 9.861122636020042 L5.456693761879958 9.853991288019998 L5.450182531880014 9.84934040902003 L5.445945063879972 9.843656002020083 L5.4441880658800095 9.839211828020083 L5.437883540879991 9.830013423020077 L5.451112707879954 9.808929439020048 L5.450285884880056 9.787121985020036 L5.440777420879979 9.766968176020058 L5.419280024880006 9.74185343002003 L5.41659285087999 9.735962316020036 L5.417419673880001 9.716738683020012 L5.414629145879953 9.705059810020032 L5.4111109938799835 9.704047009019988 L5.4078078568799945 9.703096106019999 L5.399126216880031 9.703612870020038 L5.39065128188005 9.699685461020067 L5.382589757879966 9.688316646020084 L5.375975174880036 9.675190832020107 L5.371324295879983 9.661341548020047 L5.370340233879997 9.653469055020068 L5.369670649879961 9.648112381020056 L5.3717377078799835 9.635296627020068 L5.381039465880033 9.612869055020084 L5.383209874880006 9.603360591020007 L5.378972407879953 9.58475707602004 L5.3597487748800425 9.553027747020025 L5.355304601880018 9.531426998020052 L5.375561762880036 9.422286372020011 L5.3758718218799935 9.41164102702001 L5.373701410880042 9.399238684020034 L5.365329829879979 9.377431229020019 L5.3558213668799475 9.324307857019988 L5.3226450968800485 9.250513912020025 L5.314996984879965 9.216407466020058 L5.317064041880055 9.20648559102007 L5.32595238887998 9.186951900020063 L5.328019445880013 9.175479732020037 L5.326675857879959 9.164627681019994 L5.314996984879965 9.130417883020002 L5.2849213008800255 9.088353267020068 L5.27355248588 9.067786047020078 L5.173713618879983 8.945416256020039 L5.172576737880004 8.941282141020011 L5.154489985879959 8.92402221202002 L5.149942459879949 8.921541744020047 L5.127721593880008 8.898804113020063 L5.121933833880032 8.890845943020096 L5.116972896879954 8.871932369020058 L5.114492426879988 8.854052323020014 L5.108187901879969 8.840823156020107 L5.078318923880058 8.830074459020082 L4.981063878879947 8.728375240020057 L4.952125076879977 8.715249426019994 L4.9348651488799895 8.69654255702001 L4.927320388879959 8.692201737020028 L4.893420649880024 8.651480709020063 L4.879571366879954 8.643832597019994 L4.87006290287999 8.63267048702005 L4.868742758880014 8.631810074020095 L4.837713455879989 8.611586503020035 L4.802986892880053 8.599080806020027 L4.786760493880049 8.61344685402004 L4.774564855879955 8.62719278602006 L4.751000402879949 8.646519771020024 L4.7361175898800205 8.671634517020038 L4.754721105879948 8.716282955020077 L4.752860754880057 8.733749589020022 L4.745832759879956 8.763928625020029 L4.745109288880055 8.782222082020084 L4.741595291879971 8.795244543020033 L4.733327062879962 8.805476477020008 L4.718547602880019 8.815088294020029 L4.718547602880019 8.82190958202007 L4.7021144968800535 8.839582922020071 L4.690435623880003 8.831211340020005 L4.679583572880031 8.811367590020012 L4.655502355879971 8.791213782020037 L4.627183670879983 8.774470617019986 L4.60372257088002 8.764962154020097 L4.577781000879977 8.748115637020021 L4.552252843880037 8.722587479019992 L4.5248643348799895 8.70574096302002 L4.492773269879958 8.714525956020097 L4.466314936879964 8.729305415020107 L4.440890131879964 8.73261270702001 L4.440387484880059 8.732525375020074 L4.414121739880013 8.727961828020042 L4.383632645879995 8.718453364020064 L4.349732905880014 8.714939368020012 L4.325444982879983 8.72496459502004 L4.301880529880034 8.738607173020043 L4.2707713168800545 8.746048579020055 L4.229223465879979 8.743154699020067 L4.209896479880026 8.737263586020077 L4.194496902880044 8.726514888020048 L4.18245629487998 8.707808020020067 L4.165248042879991 8.670704341020084 L4.146747879880049 8.653444413020097 L4.09052392187996 8.61386026602004 L4.072643875880001 8.607659094020065 L4.063755529880009 8.609312740020016 L4.047942540880026 8.61964802702002 L4.039364252880002 8.62233520102005 L4.027375320879994 8.621198319020039 L4.00660139487999 8.614997148020052 L3.992648758879991 8.615100500020077 L3.9860341748800145 8.61830443902005 L3.972288244880044 8.62956990102002 L3.963193191879977 8.63267048702005 L3.959472488879978 8.63050007702006 L3.930171951879995 8.619027909020048 L3.9032485308800027 8.613136796020044 L3.894153478880039 8.60951944502007 L3.832555171879985 8.56228718602003 L3.782532384879996 8.51298787002004 L3.7649623978799944 8.502859290019998 L3.745532059880045 8.50368611202002 L3.7265151328799924 8.513297928020023 L3.71111555588001 8.529524329020035 Z M10.68593325687996 6.759252106020042 L10.70123273587998 6.776097809020043 L10.69960513187996 6.808324371020048 L10.68365461087998 6.875707184020043 L10.655171537879962 6.940648590020046 L10.641825183879998 6.958714996020048 L10.639872058879998 6.966120595020029 L10.640034818879965 6.9724682510200315 L10.63873273587998 6.978978668020047 L10.631896797879985 6.999486481020042 L10.628885730879997 7.00485757402005 L10.620178047879985 7.01657632402005 L10.618387683879998 7.023656402020051 L10.613504870879947 7.035619293020047 L10.60162336087998 7.035619293020047 L10.57395408988 7.027481272020068 L10.544901355879997 7.0369213760200315 L10.532206042879945 7.058568512020044 L10.526102527879996 7.081517731020042 L10.516581042879945 7.095026845020029 L10.47703026188 7.110489085020062 L10.45676658988 7.1150463760200315 L10.440165027879996 7.1155346580200804 L10.41998273587998 7.107396637020044 L10.393534167879945 7.079320465020046 L10.37742088688 7.067113434020043 L10.38677961087998 7.064916168020047 L10.403706693879965 7.0642651260200315 L10.41217023587998 7.0608471580200804 L10.412332995879947 7.058080231020042 L10.414937162879962 7.050918772020068 L10.418192370879947 7.044408356020042 L10.41965721488 7.044164215020046 L10.42193586087998 7.036595856020042 L10.427632475879957 7.034805491020065 L10.434468412879962 7.035293772020068 L10.440165027879996 7.0335034080200804 L10.483296537879962 6.991918121020048 L10.49778221488 6.9690502830200804 L10.488504870879947 6.957819814020026 L10.494120105879997 6.941055491020065 L10.50559471488 6.933242991020065 L10.52121971488 6.931127106020042 L10.53953026188 6.931289866020065 L10.556213204879977 6.927953277020051 L10.587463204879977 6.913548981020042 L10.604553047879985 6.910131012020044 L10.599019193879965 6.902074371020048 L10.58957908988 6.900609527020051 L10.563700183879998 6.90329507402005 L10.563700183879998 6.89711017802007 L10.575744454879977 6.894180491020065 L10.58632388187996 6.888646637020044 L10.604553047879985 6.87595132402005 L10.625956042879945 6.867162262020044 L10.63515200687996 6.859349762020044 L10.642069324879994 6.833714996020048 L10.65012596488 6.818822418020047 L10.660054350879957 6.805801585020062 L10.668924792879945 6.800267731020042 L10.673807605879997 6.795059397020068 L10.68398013187996 6.769261871020048 L10.68593325687996 6.759252106020042 Z M10.33371971488 5.442845856020042 L10.337381824879994 5.451879059020043 L10.364318672879985 5.499242340020046 L10.35976138187996 5.542455231020042 L10.334533516879983 5.572484527020051 L10.298726225879957 5.584447418020047 L10.261942370879947 5.573705231020042 L10.247456693879965 5.560765777020051 L10.233947579879977 5.543187652020051 L10.224181954879977 5.523168121020048 L10.204487943879965 5.437963043020047 L10.20676658988 5.422989085020062 L10.184305652879996 5.429825022020068 L10.184468412879962 5.440648590020046 L10.19382713688 5.453832184020043 L10.199930652879996 5.46742267802007 L10.198709949879994 5.489883616020065 L10.19382713688 5.495336090020046 L10.165913725879957 5.48500080302007 L10.17030825687996 5.46579507402005 L10.164611641879983 5.450414215020046 L10.138569975879957 5.422989085020062 L10.10715721488 5.374649241020065 L10.098368152879996 5.367325022020068 L10.090718412879962 5.360977366020065 L10.077127917879945 5.368382965020046 L10.077127917879945 5.375707184020043 L10.082987292879945 5.376602366020065 L10.08371971488 5.37953205302007 L10.082905912879962 5.383926585020062 L10.083963855879997 5.389379059020043 L10.070536120879947 5.380101715020046 L10.066304350879957 5.395726715020046 L10.069803699879994 5.4182690330200804 L10.08054588688 5.429825022020068 L10.078104480879997 5.431127106020042 L10.07655825687996 5.433324371020048 L10.07273338688 5.433812652020051 L10.063456042879945 5.429825022020068 L10.05442283988 5.424047027020051 L10.051004870879947 5.4202221580200804 L10.048726225879957 5.416153147020068 L9.998270495879947 5.358129059020043 L9.988830391879983 5.34242267802007 L9.976053699879994 5.29750080302007 L9.96726463688 5.279515777020051 L10.003153308879998 5.235814606020042 L9.995015287879962 5.1780346580200804 L9.976460600879957 5.115941559020043 L9.98085513187996 5.059789215020046 L9.979715808879998 5.047582184020043 L9.980692370879947 5.035863434020043 L9.983459297879985 5.0256909080200804 L9.987691068879965 5.018285309020043 L9.99070213688 5.023575022020068 L9.99843325687996 5.03382892802007 L10.001362943879965 5.0393627830200804 L10.01804588688 5.01234455302007 L10.053771797879985 4.9827221580200804 L10.070291980879997 4.963597809020043 L10.07851138187996 4.932103668020047 L10.085510079879977 4.858129059020043 L10.103739245879947 4.840062652020051 L10.115457995879947 4.870580231020042 L10.145975574879994 4.925430491020065 L10.15207908988 4.960586741020065 L10.14499901188 5.002660309020043 L10.14459211087998 5.018285309020043 L10.147684558879998 5.033666168020047 L10.156473620879947 5.062149241020065 L10.15826398587998 5.076879059020043 L10.162821277879996 5.09242267802007 L10.18202700687996 5.123835439020026 L10.19309471488 5.169652496020048 L10.199198230879997 5.173151845020029 L10.22043846488 5.176488434020043 L10.222635730879997 5.189916168020047 L10.220112943879965 5.20212319902005 L10.215799792879945 5.214492991020065 L10.213602527879996 5.228002106020042 L10.214090808879998 5.2439526260200315 L10.216043933879998 5.256078277020051 L10.220112943879965 5.267227366020065 L10.227274402879996 5.279515777020051 L10.21531151188 5.294245595020029 L10.210184558879998 5.302383616020065 L10.20676658988 5.313695465020046 L10.221252266879983 5.30759194902005 L10.23020408988 5.313695465020046 L10.237772449879994 5.324925934020043 L10.24778221488 5.333633616020065 L10.24851463688 5.318822418020047 L10.255106433879998 5.309056793020047 L10.263163074879994 5.308324371020048 L10.268127266879983 5.320531402020051 L10.272684558879998 5.319961741020065 L10.27390526188 5.31931069902005 L10.27390526188 5.317601715020046 L10.27512596488 5.313695465020046 L10.291239245879947 5.317845856020042 L10.29140200687996 5.297012522020068 L10.286681954879977 5.267308746020048 L10.28879783988 5.245417470020029 L10.306213204879977 5.268285309020043 L10.315165027879996 5.2966870010200315 L10.33371971488 5.442845856020042 Z M10.43332908988 4.535619293020047 L10.433817370879947 4.50062580302007 L10.437723620879947 4.4846752830200804 L10.44700096488 4.470840647020068 L10.440816068879965 4.460098460020062 L10.453348620879947 4.45798257402005 L10.488504870879947 4.464004710020062 L10.480448230879997 4.44984455302007 L10.459533516879983 4.424291168020047 L10.453836902879996 4.40882892802007 L10.469461902879996 4.412816559020043 L10.489155912879962 4.414281402020051 L10.506815417879945 4.411270335020062 L10.516581042879945 4.401992991020065 L10.505106433879998 4.39938882402005 L10.495340808879998 4.395726715020046 L10.487284167879945 4.390111481020042 L10.481017891879983 4.38148517802007 L10.496642891879983 4.381647939020026 L10.520568672879985 4.375463043020047 L10.536356433879998 4.374649241020065 L10.55442283988 4.384007965020046 L10.564351225879957 4.3811596580200804 L10.571187162879962 4.360977366020065 L10.551004870879947 4.368464345020029 L10.526590808879998 4.3616284080200804 L10.481017891879983 4.33298257402005 L10.47117088688 4.339330231020042 L10.458963855879997 4.335586741020065 L10.44765200687996 4.325414215020046 L10.440165027879996 4.312474762020044 L10.45090721488 4.316869293020047 L10.457987292879945 4.321996246020048 L10.464741850879957 4.323949371020048 L10.474181954879977 4.31931069902005 L10.483784818879965 4.322240387020044 L10.517801745879947 4.327367340020046 L10.536356433879998 4.32679767802007 L10.528869454879977 4.31931069902005 L10.536519193879965 4.299942210020062 L10.532775704879977 4.283422027020051 L10.522033516879983 4.278132314020026 L10.508524402879996 4.292129710020062 L10.51373273587998 4.2717846580200804 L10.516581042879945 4.265355621020048 L10.510721667879945 4.257950022020068 L10.502909167879945 4.253067210020062 L10.492899402879996 4.252660309020043 L10.481017891879983 4.259089345020029 L10.483296537879962 4.248021637020044 L10.48484276188 4.243464345020029 L10.488504870879947 4.237442210020062 L10.48443586087998 4.22556069902005 L10.485737943879965 4.211400543020047 L10.490946277879996 4.200821116020065 L10.49851463688 4.199925934020043 L10.510314766879983 4.205541168020047 L10.51568586087998 4.20212319902005 L10.514872058879998 4.193496897020068 L10.508524402879996 4.1834057510200315 L10.499898100879957 4.17836017802007 L10.467508777879996 4.165990387020044 L10.47043846488 4.156468902020051 L10.484273100879957 4.145319814020026 L10.488504870879947 4.134984527020051 L10.474181954879977 4.141820465020046 L10.466043933879998 4.1233471580200804 L10.471415027879996 4.108861481020042 L10.484924141879983 4.10414142802007 L10.50233950687996 4.114476715020046 L10.50624575687996 4.098444814020026 L10.495015287879962 4.089086090020046 L10.478739245879947 4.0803784080200804 L10.467508777879996 4.0667065330200804 L10.467020495879947 4.055150543020047 L10.47312401188 4.0271557510200315 L10.47434471488 4.011937652020051 L10.47662336087998 4.017064606020042 L10.47898338688 4.021214996020048 L10.481831693879965 4.024144684020043 L10.48484276188 4.025121246020048 L10.49257388187996 4.029515777020051 L10.498026355879997 4.039037262020044 L10.501362943879965 4.0486401260200315 L10.50233950687996 4.0530346580200804 L10.51340721488 4.051488434020043 L10.517150704879977 4.044082835020062 L10.51926658988 4.035863434020043 L10.52545148587998 4.031957184020043 L10.530497058879998 4.0354565330200804 L10.54661033988 4.051488434020043 L10.550028308879998 4.056127106020042 L10.59617088688 4.082494293020047 L10.604553047879985 4.090306793020047 L10.60520408988 4.101781402020051 L10.607645495879947 4.111791168020047 L10.61179588688 4.115453277020051 L10.618387683879998 4.107640777020051 L10.61765526188 4.099584137020044 L10.613830391879983 4.089981272020068 L10.613993152879996 4.078832184020043 L10.625874662879962 4.0667065330200804 L10.626932605879997 4.0740307510200315 L10.630431954879977 4.081517731020042 L10.631896797879985 4.087214345020029 L10.640116199879994 4.070775543020047 L10.645975574879994 4.050756012020044 L10.64817283988 4.03187580302007 L10.64621971488 4.018854970020029 L10.659728829879977 4.0276440330200804 L10.659728829879977 4.048070465020046 L10.657124662879962 4.071914866020065 L10.66843651188 4.109349762020044 L10.657206042879945 4.127416168020047 L10.639383777879996 4.141413564020026 L10.625874662879962 4.148086741020065 L10.630838855879997 4.1658276260200315 L10.627665027879996 4.185196116020065 L10.62156151188 4.204808746020048 L10.618387683879998 4.223770335020062 L10.627990547879985 4.2537182510200315 L10.628885730879997 4.259089345020029 L10.638081693879965 4.25485757402005 L10.638895495879947 4.245336090020046 L10.63710513187996 4.235570465020046 L10.63873273587998 4.230606272020068 L10.651428047879985 4.2361401260200315 L10.653055652879996 4.2537182510200315 L10.64621971488 4.292129710020062 L10.645894193879965 4.351048981020042 L10.63873273587998 4.367162262020044 L10.64621971488 4.374649241020065 L10.634256824879994 4.388646637020044 L10.604553047879985 4.477025543020047 L10.596903308879998 4.487767731020042 L10.592752917879945 4.4919995010200315 L10.591288074879994 4.4983471580200804 L10.590881172879985 4.515274241020065 L10.58632388187996 4.528457835020062 L10.577534818879965 4.530736481020042 L10.571756824879994 4.522679840020046 L10.57663963688 4.50485757402005 L10.571187162879962 4.50485757402005 L10.564432605879997 4.521133616020065 L10.56093325687996 4.527074371020048 L10.556213204879977 4.53220132402005 L10.559549792879945 4.5427807510200315 L10.554260079879977 4.553929840020046 L10.54302961087998 4.5642651260200315 L10.528869454879977 4.57321694902005 L10.51926658988 4.575821116020065 L10.516581042879945 4.5720776260200315 L10.51999901188 4.565729970020029 L10.528869454879977 4.560196116020065 L10.528869454879977 4.552709137020044 L10.514627917879945 4.556289866020065 L10.503885730879997 4.562963043020047 L10.495666329879977 4.564590647020068 L10.488504870879947 4.552709137020044 L10.453674141879983 4.553848460020062 L10.43918846488 4.5491284080200804 L10.43332908988 4.535619293020047 Z M10.532291652879987 7.116449602020068 L10.56439635987996 7.112906994020036 L10.586989427879953 7.114077547020044 L10.591744468879963 7.128211740020062 L10.581038322880001 7.141174662020048 L10.53941661688 7.187116676020039 L10.50969156387995 7.214196223020067 L10.493047976879975 7.213017044020048 L10.48710481587997 7.196532153020043 L10.493052060879986 7.170628703020056 L10.504943985879972 7.149433515020077 L10.532291652879987 7.116449602020068 Z M10.016355843879946 4.8907934240200595 L10.015678269879995 4.9044782890200755 L10.02051104387996 4.922266611020077 L10.02877299287999 4.934579307020058 L10.02190014487999 4.944840986020053 L10.028100508879984 4.957836100020031 L10.02811428987999 4.977671660020078 L10.015731517879967 4.980411179020066 L10.004721734879947 4.979730682020047 L10.002648495879978 4.965366287020074 L10.00470098587996 4.947580068020058 L10.00743296787996 4.919530810020048 L10.004663804879979 4.899004212020045 L10.016355843879946 4.8907934240200595 Z M10.365709635879991 4.516172301020062 L10.37449540987998 4.520822276020069 L10.389139374879985 4.5301251930200825 L10.399689488879996 4.544670960020041 L10.411413421879981 4.562707523020051 L10.427219176879955 4.568510405020063 L10.442433129879955 4.572567363020041 L10.452390404879988 4.585363747020053 L10.450062954879993 4.59759381702004 L10.423151625879964 4.599375989020031 L10.405583047879954 4.585423498020034 L10.390349334879968 4.567390744020044 L10.381555961879965 4.554590153020071 L10.369836880879998 4.542372138020041 L10.359280807879966 4.527825311020037 L10.365709635879991 4.516172301020062 Z" fill="black" stroke="black" stroke-width="0.5" vector-effect="non-scaling-stroke"/></svg>