<svg xmlns="http://www.w3.org/2000/svg" viewBox="0 0 3.348867187499991 1.393528106520062"><path d="M0.45332356724998135 1.0588280552600065 L0.45429606925011967 1.079212583259972 L0.4394132552499741 1.1345063662599966 L0.43460734824998326 1.1694396342599855 L0.4307316152500107 1.1781212742600484 L0.4275793532500529 1.1821520362599482 L0.4237036202500235 1.1855626812600644 L0.404479987250113 1.2104707212600356 L0.3746626862500193 1.235688820259993 L0.36541260525007146 1.240649758260032 L0.36086507925006117 1.24085646326 L0.3573510812501013 1.2428201682600228 L0.35068482125006994 1.2532588072599662 L0.34820435325002563 1.2828177262599905 L0.3445353262500248 1.2904658382599745 L0.3348718332500198 1.304108416259977 L0.33140951225004756 1.3116531762600214 L0.3316162182500193 1.3184744642599906 L0.3361637442500296 1.3358377462599957 L0.33513021625003603 1.3452428562600556 L0.32634522224998364 1.3589887882599907 L0.3128576732501074 1.367360370260057 L0.29585612724997645 1.371701189260035 L0.276632494250066 1.3735615412600435 L0.26438518025003077 1.3765587742599745 L0.26030274225001904 1.3798660662600621 L0.25937256625007876 1.3780057152600573 L0.25616862725001965 1.3650866062600482 L0.25616862725001965 1.359195493260044 L0.2596826242499901 1.3415221532600423 L0.26030274225001904 1.3340807472600158 L0.2567887442500023 1.317337583260068 L0.24965739625002925 1.3001810072600062 L0.23994222725008285 1.2838512552599735 L0.22857341225011396 1.2702086772600563 L0.21348389425003234 1.2574962752600083 L0.20025472725001237 1.2518118672599723 L0.186405444250056 1.2525353372600545 L0.17002401424997515 1.2592532732599988 L0.1565881422500297 1.270518736259957 L0.1365376862499943 1.297907244260001 L0.12387696025007244 1.3055553572599745 L0.09307780624999396 1.3001810072600062 L0.06548259124997458 1.276513201259986 L0.03283203124999545 1.2206119102600166 L0.051142578250050974 1.2156477172600386 L0.1319531252499928 1.1835839152599998 L0.1495312502499928 1.1815494102600166 L0.16214518225001484 1.1751203732600413 L0.18411783825001748 1.144033134260054 L0.19355794224998135 1.1337792272600051 L0.22399414025005626 1.1197818322600153 L0.2905631512500122 1.099436779260044 L0.3885449212500589 1.0809634722600219 L0.39961263024997606 1.0751040972600219 L0.4080761712500589 1.063955009260054 L0.42793294224998135 1.0602115192600206 L0.4529980462500589 1.058909436260036 L0.45332356724998135 1.0588280552600065 Z M0.9222993280865808 0.8406538443576732 L0.9565787762500122 0.8212792272600051 L0.9775748692500201 0.8007714152599998 L1.0259960932500007 0.7276919882600179 L1.0303906252499928 0.7123111282600245 L1.0396679682500007 0.703440686260036 L1.0845084632500175 0.687001884260054 L1.0992382812499955 0.6744693322600153 L1.1031445312499955 0.6568912072600153 L1.109248046250059 0.5673729772600051 L1.1177929682500007 0.5445865192600206 L1.130732421250059 0.5242414672600386 L1.1470898432500007 0.510081311260036 L1.1671093752499928 0.503408134260054 L1.2129264322500148 0.496409436260036 L1.2320507812499955 0.4861555292600439 L1.240107421250059 0.4842024042600439 L1.2767285152500563 0.48957349826004126 L1.2879589842500536 0.4864810502600232 L1.317581380249976 0.469065686260036 L1.3838248692500201 0.4501040972600219 L1.4039257812499955 0.44790683226001526 L1.4697623692500201 0.4523013632600179 L1.4902701822500148 0.44790683226001526 L1.5443066402500563 0.4236555292600439 L1.568720703250051 0.4207258422600386 L1.5945996092500536 0.4282128212600025 L1.6063183592500536 0.4275617792600439 L1.6336621092500536 0.4002180292600439 L1.6520540362499787 0.40819329025999984 L1.6816764322500148 0.4090070922600386 L1.7359570312499955 0.4002180292600439 L1.853388671250059 0.3624576132600179 L1.900507812249998 0.35977206626001923 L2.005000000249993 0.3780826132600179 L2.045039062249998 0.39745110226000513 L2.0718945312499955 0.4002180292600439 L2.093867187249998 0.39582349826004126 L2.136266276250012 0.3826399042600439 L2.144648437249998 0.38150058226001526 L2.1578320312499955 0.3797102172600386 L2.2028352862499787 0.3790591752600232 L2.2430371092500536 0.37344394126001923 L2.263707682250015 0.3631900352600166 L2.307815755249976 0.3321841752600232 L2.339716796250059 0.3230695922600386 L2.372919921250059 0.3045962852600166 L2.383987630249976 0.30272454025999984 L2.4039257812499955 0.30239901926002055 L2.414423828250051 0.2977603472600219 L2.4324902342500536 0.310862561260036 L2.4537304682500007 0.31932610226000513 L2.4767610672499814 0.3241275352600166 L2.500117187249998 0.32567375926005404 L2.514765625249993 0.33071933226001526 L2.5516308592500536 0.3653873002600232 L2.592890625249993 0.35155266525999984 L2.6696321612499787 0.3155826132600179 L2.6959179682500007 0.3085025352600166 L2.714879557250015 0.295237561260036 L2.723017578250051 0.2914940712600025 L2.7340852862499787 0.29141269126001923 L2.751093750249993 0.2967024042600439 L2.7583365882500175 0.2977603472600219 L2.8021191402500563 0.28872714426002055 L2.844925130249976 0.2696841752600232 L2.947382812249998 0.19725579025999984 L2.969843750249993 0.1876529252600232 L2.986689453250051 0.1915591752600232 L3.002070312249998 0.20278964426002055 L3.072382812249998 0.23623691026001659 L3.091669921250059 0.2413638632600179 L3.116409505249976 0.24364250926005404 L3.140742187249998 0.2413638632600179 L3.158320312249998 0.23281894126001923 L3.1890820312499955 0.2110904252600232 L3.1959179682500007 0.20840487826002452 L3.208857421250059 0.21125318626003597 L3.2137402342500536 0.21768222226002187 L3.2164257812499955 0.22647128526001659 L3.2231803382500175 0.23623691026001659 L3.2443391922499814 0.24885084226003862 L3.2896679682500007 0.26105787326004126 L3.3087923172499814 0.27383456626001923 L3.3160351562499955 0.2938540972600219 L3.3060253902500563 0.31094394126001923 L3.2329459632500175 0.36522454025999984 L3.1871289062499955 0.4109602172600386 L3.0954134112499787 0.48176099826004126 L3.030797526250012 0.5440982382600179 L3.0239615882500175 0.5543521442600206 L3.012080078250051 0.5553287072600153 L2.9420117182500007 0.5707909462600025 L2.877639973249984 0.6170962852600166 L2.8489941402500563 0.631175061260036 L2.6969759112499787 0.642080009260054 L2.6751660152500563 0.6472883422600386 L2.6634472652500563 0.6528221962600025 L2.6341503902500563 0.6744693322600153 L2.626826171250059 0.6776431602600166 L2.618281250249993 0.6795149042600439 L2.5963085932500007 0.6806542272600051 L2.586054687249998 0.6844790972600219 L2.546910807250015 0.7289126912600192 L2.5106152342500536 0.790517509260054 L2.4752148432500007 0.8214419882600179 L2.4329785152500563 0.8333234982600413 L2.168655598249984 0.8670149042600439 L2.140742187249998 0.8785708942600206 L2.1247102862499787 0.8851626912600192 L2.050328776250012 0.9359439412600192 L1.949905598249984 1.0043846962600025 L1.9312695312499955 1.0102440712600025 L1.8724316402500563 1.0012922482600413 L1.8526562502499928 1.0028384722600219 L1.8415071612499787 1.0086978472600219 L1.8196972652500563 1.026845634260054 L1.8079785152500563 1.030751884260054 L1.7664746092500536 1.030751884260054 L1.7454785152500563 1.0359602172600386 L1.6813509112499787 1.0716861282600245 L1.6629589842500536 1.0721744102600166 L1.6121777342500536 1.0648501912600192 L1.595820312249998 1.0682681602600166 L1.575393880249976 1.0843814412600192 L1.5548860672499814 1.0958560502600232 L1.4907584632500175 1.119456311260036 L1.381546223249984 1.159658134260054 L1.345576171250059 1.1815494102600166 L1.2940625002499928 1.224111259260054 L1.2664746092500536 1.2359927692600206 L1.254267578250051 1.2501529252600232 L1.2357128902500563 1.2778221962600025 L1.2248079422499814 1.2897037072600153 L1.2139029942500201 1.2982486282600245 L1.1994173172499814 1.3033755822600153 L1.152705078250051 1.3067935502600232 L1.1333365882500175 1.3124087852600166 L1.116409505249976 1.3230695922600386 L1.0992382812499955 1.3398339152599998 L1.0644075522500316 1.364410738260018 L1.0537228752500596 1.3033351872600445 L1.0490918042500539 1.288502133260037 L1.0265608792500416 1.2533621602599947 L1.0255790272500462 1.246334165259979 L1.0275944082500246 1.2306245292600106 L1.026199145250132 1.2242166522599813 L1.0206697662500233 1.2176020692599803 L0.9994824292500653 1.204476255260003 L0.9756079172501018 1.1832889172600414 L0.9687866282500295 1.172023456259991 L0.9629471912500662 1.1546601742599716 L0.9569010492500638 1.1201403182600824 L0.9607251052500487 1.0905813982600545 L0.9772615632501243 1.0705309432600085 L1.0100244222500123 1.0647431822600435 L1.0304882892500018 1.064949888260001 L1.037309577249971 1.0668102402600095 L1.0442342192500291 1.0718745302599881 L1.0561714752500393 1.085310402260033 L1.062476000250058 1.0891344582599753 L1.0767386952500715 1.0899612812600008 L1.0853686592499798 1.0841735212600252 L1.0942570052500287 1.0753885272600296 L1.1097599352500538 1.0671202982599919 L1.1207153392501255 1.0661901222600374 L1.1453133212500006 1.0677404152599603 L1.1534265212500827 1.0640197122600465 L1.1566821362499695 1.0544078952600255 L1.1554458532501144 1.0494627632600508 L1.1539949622500671 1.0436591972600109 L1.149757494250025 1.0331172062599574 L1.1477937902500344 1.023815448260022 L1.1647953352500053 0.9609769062600417 L1.1651570712500643 0.9392728052600443 L1.156785489250126 0.9194290542600481 L1.142212735250041 0.903409360260012 L1.1241259832500532 0.8904902522599922 L1.1053157632500188 0.8799482602600346 L1.0980810622500599 0.8734370292599731 L1.0943086822500163 0.8672358582599866 L1.0896061272500788 0.864858742260024 L1.0792708402500466 0.8694062682600627 L1.075808520250007 0.8750906762600135 L1.071364346249993 0.8945210142599915 L1.0681087312501063 0.9018590682599932 L1.0546211822500595 0.9136412942599872 L1.0072338942500778 0.934208514260062 L0.981705736250035 0.950641619260038 L0.9686832752499868 0.9559126162600631 L0.9506482012500896 0.9571528502600142 L0.9358170642500454 0.9531220882600149 L0.924086514250007 0.9441303892599802 L0.91576660825001 0.9314179862600138 L0.9107023182500598 0.9161217632600493 L0.9119425522500819 0.8989651872600017 L0.9252750722500309 0.8649620952600525 L0.9222993280865808 0.8406538443576732 Z M1.572138671250059 0.07502271726003862 L1.5830436192500201 0.05760735226000513 L1.6079459632500175 0.03164706626001923 L1.6352897132500175 0.013662040259999841 L1.6534375002499928 0.02147454025999984 L1.644892578250051 0.053375582260015264 L1.6063183592500536 0.14745110226000513 L1.599482421250059 0.1778873002600232 L1.5950878902500563 0.18594394126001923 L1.585810546250059 0.19302401926002055 L1.5763704422499814 0.19595370726001526 L1.572138671250059 0.1915591752600232 L1.5655468752499928 0.18781568626003597 L1.533320312249998 0.17813144126001923 L1.5203808592500536 0.17080722226002187 L1.509882812249998 0.15900709226003862 L1.5064648432500007 0.14940422726000513 L1.5091503902500563 0.13963860226000513 L1.5169628902500563 0.12637362826002452 L1.529414062249998 0.11441073826001791 L1.564814453250051 0.08779941026001659 L1.572138671250059 0.07502271726003862 Z" fill="black" stroke="black" stroke-width="0.5" vector-effect="non-scaling-stroke"/></svg>