<svg xmlns="http://www.w3.org/2000/svg" viewBox="0 0 1.9874290765800993 5.13517953480007"><path d="M0.019484598790000973 0.05034489740000048 L0.07053154979007559 0.060666985400066764 L0.12247572779006077 0.07117049940005948 L0.24518141579002872 0.09592351040007507 L0.47315199679005104 0.14188969740006563 L0.5603729847900354 0.1595173034000137 L0.6722096137900451 0.1821197994000041 L0.6743800237900359 0.18354090140008417 L0.675723611790005 0.18581466440000405 L0.6762403757900302 0.18896692740006493 L0.674896788790079 0.1934110994000715 L0.674173318790082 0.19757105239999895 L0.6727263787900881 0.20165349040001068 L0.6692123817900324 0.2056325764000828 L0.6853354277900223 0.2096375004000688 L0.6732431427900281 0.25208968840001056 L0.7981967567900767 0.20875900040004147 L0.86093194479011 0.19679590640008904 L0.9571534617900568 0.1949613924000797 L1.0870680127900698 0.19258427740004969 L1.061436501790098 0.254156746400076 L1.0585426227900996 0.27402633440006774 L1.0609197377900443 0.2848008704000957 L1.069291320790029 0.30510970840001583 L1.0707382597900335 0.31593592040005625 L1.0551319777900687 0.3454173264000726 L1.0531682727900602 0.3561143474000712 L1.0516179797901088 0.37895533039999485 L1.0485173947900819 0.3892389404000678 L1.0355982867900764 0.40763575039998123 L0.9812346797901057 0.45884709440008997 L0.9668686317901063 0.49228174540006897 L0.9748268017900728 0.582379605400055 L0.9741033317900758 0.6214728264000708 L0.9594272257900798 0.6771800214000105 L0.9454745877900734 0.7801711503999993 L0.9463014117900173 0.8031671624000492 L0.9543629337900086 0.8182308434000358 L1.0300172317900547 0.8681502764000069 L1.1251018667900041 0.9308079504000286 L1.182699674790058 0.9687720384000524 L1.2678321727900652 1.024884895400083 L1.4110792427900094 1.1192718994000384 L1.5166025177900622 1.188854215400033 L1.5294182727900534 1.2228831454000808 L1.5295354627900508 1.230568844400059 L1.5306585067900755 1.304221850400074 L1.5325188587900982 1.413491666400068 L1.5337590937901098 1.4911613444000746 L1.541613910790062 1.5378510004000585 L1.540166970790068 1.550020800400068 L1.5377898547900202 1.5599685134000705 L1.5380999137900915 1.5800448084000234 L1.5368596797900693 1.5902509024000917 L1.5306585067900755 1.6029374674000447 L1.5128818147900631 1.6300159184000957 L1.5087476997900353 1.6430125404000417 L1.5119516387900092 1.6633730554000632 L1.5220802197900412 1.687816007400107 L1.5368596797900693 1.7027763344000757 L1.5540162547900422 1.694482266400021 L1.5654884227900538 1.722852628400025 L1.5723097117900977 1.824190112400066 L1.5867791127900261 1.864058479400006 L1.6057397887900606 1.8930080954000683 L1.610860330790075 1.9008262614000753 L1.6907520947900707 1.983870287400043 L1.752867166790054 2.0485950194000306 L1.7734343867900577 2.0844326254000745 L1.7813925567901094 2.1085138424001055 L1.7867669057900741 2.135798998400025 L1.7884205517900114 2.2609334794000286 L1.7898674917900053 2.370099943400083 L1.7911077257900558 2.462833300399998 L1.7927977957900794 2.596707962400094 L1.7931747837900218 2.6265700764000766 L1.7946217237900157 2.638352303400074 L1.799686014790069 2.6495402504000136 L1.8255242307899948 2.682070564400055 L1.8297616977900475 2.691837409400014 L1.8260409937900306 2.7095107504000193 L1.7931747837900218 2.7634609454000607 L1.791624490790099 2.77193588040007 L1.791624490790099 2.789299161400086 L1.7866635537900493 2.813690437400103 L1.789538642789978 2.8178490494000297 L1.795448546790027 2.8198399334000808 L1.8005128367900909 2.8290641754000827 L1.8111581817900912 2.9148470544000045 L1.8094011837900155 3.0294395424000324 L1.8069207147900386 3.188757983400029 L1.8075408317900212 3.347042895400028 L1.8083676547900325 3.5452736893999965 L1.8084486817900824 3.5628655654000934 L1.808845136790012 3.6489405074000185 L1.809297829790097 3.7472251864000636 L1.809917947790069 3.896518399400028 L1.8105380657900412 4.041677497400064 L1.8112615347900203 4.188541918400068 L1.7930714307900928 4.193916268400036 L1.7175204867900504 4.193399503400093 L1.7369508247900285 4.264454598400098 L1.7482162877900862 4.2810427324000155 L1.7498172127900489 4.282235875400053 L1.7646493927900622 4.29329004740004 L1.773641092790001 4.304090421400067 L1.7757081497900629 4.31799138140004 L1.7681633897900326 4.359978483400047 L1.7687835077900047 4.377057544400094 L1.7731243277900717 4.394291633400078 L1.7807724397900415 4.414755501400043 L1.7866635537900493 4.438888395400005 L1.7826327907900463 4.454365486400098 L1.7747760597900424 4.464864936400096 L1.7598951617900696 4.484751228400048 L1.7516269327900318 4.507178799400043 L1.7580348097900753 4.518418424400002 L1.7709539177900808 4.528882901400044 L1.7819093217900388 4.54890751940008 L1.7821160267900211 4.556684821400088 L1.7803590277900412 4.565056404400073 L1.7797389107900585 4.574280647400078 L1.7829428507900218 4.584512580400064 L1.7889373167900544 4.592729134400093 L1.7967921337900918 4.600635628400047 L1.8051637157900586 4.60732772540006 L1.8130185337900002 4.6119786044000275 L1.8224236437900458 4.6130638104000266 L1.8322421667901096 4.612133634400058 L1.8394768677900117 4.614665779400047 L1.8408204547900482 4.626112108400056 L1.84340427579005 4.633062589400046 L1.8600440877900724 4.646731005400062 L1.866348611789988 4.655257616400084 L1.867588846790028 4.665308683400104 L1.865108377790051 4.686754402400046 L1.8672787877900419 4.6954877194000115 L1.8738933707900571 4.7008879063999895 L1.8953907667900864 4.711920824400073 L1.9039690547901102 4.718328703400024 L1.9297039177900217 4.759592334400031 L1.949134255790085 4.834678189400028 L1.9679444777900983 4.908058723400066 L1.947170551790066 4.909298958400006 L1.8187029407900468 4.9396330244000435 L1.7980323677900287 4.950562589400027 L1.805233288790049 4.971431317400038 L1.804907767790013 4.971512697400078 L1.6151291217900337 5.003373048400055 L1.4566004767900438 5.051590822400078 L1.3851486537900257 5.082800132400086 L1.377173392790013 5.083451173400055 L1.3709884967900337 5.0848346374000695 L1.3735621537900045 5.049677986400047 L1.361779926790092 5.033813322400041 L1.2789942827900234 5.024408211400077 L1.265248350790074 5.01740605439999 L1.2544996527900594 5.0049778724000955 L1.2413738397900715 4.984694872400089 L1.2337257277900164 4.975935717400011 L1.2261809687900609 4.971853279400014 L1.2187395627900344 4.968778531400067 L1.2107813917900785 4.962990771400092 L1.1952784617900534 4.94087325840008 L1.1691301877900457 4.860723111400011 L1.0928557727900454 4.860413053400029 L1.0723919057899707 4.8549353514000355 L1.0594727977900504 4.845194343400001 L1.0269166457900099 4.8061011224000705 L1.001801899790081 4.790262296400064 L0.9523992307900642 4.765974373400061 L0.9313152457900458 4.7444253014001045 L0.9155022577900525 4.720240730400041 L0.9035133247900831 4.696495410400081 L0.8973121527899934 4.671949104400019 L0.8986694797900441 4.651389612400044 L0.8990691527900765 4.645335741399995 L0.9053736767900773 4.632597501400033 L0.9124016717900929 4.623218229400072 L0.9130217887900756 4.613890632400048 L0.9002060337899991 4.6014107744000565 L0.8911109817900069 4.599550422400048 L0.8632057077900299 4.60042892239999 L0.8538005977900696 4.599498746400036 L0.8450156037899887 4.583608243400013 L0.8309596137900712 4.573298795400012 L0.8178338007899981 4.5613357014000595 L0.8122527457900048 4.540432584400085 L0.8209343867900429 4.489944710400058 L0.81990085779006 4.47371831040005 L0.8114259227900504 4.457569425400072 L0.7968531687900224 4.443797655400024 L0.7793865347900635 4.43421167740002 L0.7622299597900053 4.430594327400035 L0.7556153767900184 4.4218093344000575 L0.7266765747900479 4.368143358400067 L0.7144809367900393 4.358789924400034 L0.7048691197900041 4.353079679400073 L0.7016651807900303 4.343519539399983 L0.7083831167900598 4.322487231400066 L0.7294671017900782 4.287398934400036 L0.7318442177900408 4.27055241740006 L0.7200619907900432 4.249416756400015 L0.6916399527900126 4.227505948400056 L0.6801677847900862 4.212209724400102 L0.6947405387900574 4.20771387540008 L0.7094166457900428 4.206628669399995 L0.7515846137900155 4.1956732664000125 L0.7645037227900104 4.188541918400068 L0.7836240027901056 4.1541254154000224 L0.7843474717899994 4.11061385940001 L0.7799032997901065 4.065603686400072 L0.7833139437900343 4.026432950400027 L0.8073951617900548 3.966488289400038 L0.8166969187900861 3.920082852400034 L0.8300294377901025 3.8833925864000545 L0.8312696727900573 3.86174016040008 L0.8152499787900922 3.796162768400057 L0.8086353957901053 3.7874294514000777 L0.7718417757900227 3.800968676400066 L0.7519980257900158 3.804534350400038 L0.7338079217900599 3.8020538814000613 L0.7022852977900982 3.7743036374000294 L0.6861622507900336 3.7302753174000625 L0.6812013137900692 3.6810276774000723 L0.685025369790111 3.622943367400003 L0.6886427197900105 3.6106443764000513 L0.6948438917900717 3.599947354400049 L0.7049724727900468 3.590128832400074 L0.7180982867900241 3.584289396400086 L0.734117980790046 3.5799485754000155 L0.7476572057900341 3.5730239334000284 L0.7533416127900807 3.5595880613999835 L0.7530315547899988 3.5324062584000924 L0.7561321407900436 3.5014003984000706 L0.7689478957900349 3.4810398844000385 L0.7978866977900054 3.4858974684000597 L0.7950961697900425 3.466363777400053 L0.7972665807900228 3.4140672274000448 L0.788171528790059 3.3569130934000153 L0.7889983507900808 3.2970201094000426 L0.788281681790096 3.2921931324000635 L0.7784563597899989 3.2260166904000496 L0.7792831817900208 3.188757983400029 L0.7787664177900808 3.1695860264001023 L0.7695680127899891 3.1322756424000797 L0.7658473097900753 3.085250089400011 L0.7605763137900396 3.060703783400035 L0.765537250790004 3.0536241124000068 L0.7733920687900309 3.0476038084000745 L0.7788697707900099 3.0346588624000557 L0.7771127717900299 3.0208354164000095 L0.770188129790057 3.012257128400071 L0.7624366647900445 3.004841561400047 L0.7583025507900345 2.9943254074000887 L0.7594394317900424 2.9813804604000804 L0.7646070747900353 2.9775047274000226 L0.7722551867900336 2.9765745524000717 L0.7806267687900856 2.9725954674000885 L0.8139063917900273 2.942855680400106 L0.8306495557900746 2.931900276400034 L0.874781228789999 2.912469938400056 L0.8908009227900209 2.902573901400066 L0.8983456817899764 2.887355192400028 L0.8944182737900235 2.8627572094000495 L0.890697570789996 2.8593465654000223 L0.878708637790055 2.857434538400005 L0.874781228789999 2.8540238934000737 L0.8741611117900163 2.8492954993999913 L0.8749879347900276 2.839270271400059 L0.8725074667900685 2.8245941644000734 L0.8728175247900367 2.8131219974000654 L0.8706471147900459 2.8027608724000483 L0.8323032017900402 2.771160734400061 L0.8193840937900347 2.733307747400067 L0.8019174597900758 2.6965658044000858 L0.7363917437900795 2.6659991943999923 L0.7103468217900115 2.6472923254000076 L0.6861622507900336 2.6251489744000818 L0.6691090287899897 2.60553776840006 L0.6291114697900184 2.578459317400009 L0.5893206167901042 2.523243050400003 L0.5600200797900641 2.460559537400064 L0.5536773017900884 2.4238442394000597 L0.5514676307900288 2.4110535154000186 L0.5582630807899989 2.4015708894000394 L0.570872130790093 2.3992454504000076 L0.582706033790032 2.40379297740005 L0.5934030557900201 2.426272225400046 L0.6038933707900753 2.4147225424000194 L0.6105596307900782 2.3980052164000707 L0.6051852817900283 2.3940778074001 L0.6157272737900996 2.390589647400054 L0.6250031937900076 2.3918815594000105 L0.635105935790051 2.394956307400042 L0.6480767207900726 2.397023363400015 L0.659083800789972 2.3917782064000814 L0.6625977987900171 2.378574878399993 L0.664044738790011 2.362994432400063 L0.6691090287899897 2.3505145754000605 L0.6692230397900119 2.3503520824000272 L0.6912265407900975 2.3189919514000987 L0.6787208447900923 2.270106046400022 L0.6304808957901002 2.188870694400043 L0.6304808957901002 2.188767342400018 L0.6302741887900538 2.188767342400018 L0.6168641557900116 2.1577356444000824 L0.6271477657899993 2.127143196400075 L0.6440717967900866 2.096085660400041 L0.649342792790037 2.0638654053999854 L0.6492394407900122 2.048233284400032 L0.6555698037900299 2.0385956294001115 L0.6782040797900777 2.018571011400075 L0.6902963647900435 1.9981588214000308 L0.6899863067900753 1.982216642400095 L0.6775839637899992 1.9464307134000673 L0.6785141397900532 1.9267161534000277 L0.6866790147900588 1.9171301754000236 L0.6979444777900312 1.9106189444000474 L0.7080730577900738 1.900257820400034 L0.7122071727900163 1.88767460840001 L0.7138608187900672 1.8583740714000552 L0.723162576790088 1.8076794924000747 L0.7169614047899984 1.7842183914000938 L0.6988746537899999 1.7685345944000428 L0.6691090287899897 1.7584835284000118 L0.6683855577900033 1.7574499994000288 L0.6681788527900494 1.7564681474000619 L0.6683855577900033 1.755486295400095 L0.6750001417900933 1.744298348400056 L0.6772739047900984 1.7340405754000638 L0.6755169057900332 1.7241962154000046 L0.6691090287899897 1.7153078694000694 L0.6160373317900678 1.6961359134000613 L0.5972529497900609 1.6930870034000431 L0.5570228467900336 1.6953090894000464 L0.5345435987900373 1.6992881754000333 L0.519376565790111 1.7058510824001072 L0.5143897907900623 1.7137575764000612 L0.5113408807900441 1.7339888994000514 L0.5074134717900733 1.7424896734000637 L0.4998170367900059 1.7488458733999916 L0.454083393789972 1.7646847004000872 L0.4354798787900336 1.7683795654000871 L0.41695387778997883 1.766364184400052 L0.41240635079003596 1.7529799884000195 L0.4205712277900773 1.7415594974000097 L0.41354323279006167 1.7255914794000713 L0.41364658579007596 1.7113546224000995 L0.45532362779002256 1.7029830404000332 L0.470904071790045 1.6969627353999979 L0.4836939887900087 1.688229419400022 L0.48751804479005045 1.6778682934000155 L0.47873305179007275 1.6670420814000604 L0.4645995477900442 1.6663186114000634 L0.43909722879001833 1.671072842400056 L0.4287102657900732 1.6666286704000495 L0.41881422878998364 1.6597298664000757 L0.41150201378999895 1.653399503400058 L0.40899570679002295 1.6505314614000692 L0.4086598097900378 1.644149422400039 L0.41333652679000465 1.6159857663999926 L0.4157911577900677 1.609577888400045 L0.4661240027900533 1.6151589434000666 L0.49015354378997245 1.6137636794000851 L0.5080335887900276 1.6021881594000487 L0.5217536817900452 1.611128182400071 L0.5402021677899711 1.6142287674001121 L0.5564027297900793 1.6096812414000734 L0.5633273717900522 1.5959094724000433 L0.5547490837900284 1.5751872234000128 L0.5349570107900377 1.571414843400083 L0.4943910107901104 1.5816467764000546 L0.46323012179004763 1.5783394854000559 L0.4472879427900409 1.5573846924000687 L0.44656447279004396 1.5281616704000296 L0.46087884479001673 1.4997396314000095 L0.48751804479005045 1.527489876400045 L0.5043128857900285 1.5367141194000506 L0.5222446077900997 1.5344920334000474 L0.5326832477900325 1.5221672034000928 L0.535473774790006 1.5046747304000458 L0.5332000117900577 1.4864846264000047 L0.5285491327900047 1.4717826814001054 L0.521882872790087 1.4618349684000176 L0.5147256877900475 1.4540318273999926 L0.5094805287900215 1.443257291400064 L0.5080335887900276 1.4246537754000084 L0.5294793077900692 1.3469324214000888 L0.5297893667900553 1.3355636064000063 L0.5252676787900157 1.2954885334000092 L0.5273088977900784 1.2815358964000207 L0.5353704217900486 1.2663688643999986 L0.5481861767900398 1.2526487714000663 L0.5551624957900287 1.2464992754000033 L0.555782611790022 1.2383085613999807 L0.5489871617900519 1.2185423264001027 L0.53702406679011 1.1948745193999795 L0.5353704217900486 1.1881565834000494 L0.5373341267900003 1.178906501400041 L0.5407189327900994 1.1727053304000545 L0.5413132107900651 1.1663491284000198 L0.5353704217900486 1.1565047684000458 L0.5528887317900342 1.153197477400047 L0.5683399847900148 1.1557296214000328 L0.5795020947900582 1.1528357424000486 L0.5801640297900974 1.149768237400087 L0.5837395617900825 1.1331986984000135 L0.5807423297899845 1.1129673744000197 L0.5726808057900996 1.106378629400032 L0.5616737257900013 1.1037431314000994 L0.5489871617900519 1.0956557694000164 L0.5391944777900051 1.0698175534000054 L0.5444396357900132 0.9989950034000454 L0.542785989790076 0.9653278074000067 L0.5500206897900455 0.9519177734000603 L0.5528887317900342 0.9355105054000941 L0.5576429637900162 0.9201884434000416 L0.5821892697899784 0.9021016924000289 L0.5617770777900262 0.8853843664000802 L0.5521910997900363 0.8808368404000415 L0.5083436477900989 0.8880715414000999 L0.4943910107901104 0.8882265704000556 L0.5031760047901059 0.8679952474000512 L0.49265985079006214 0.8520530684000303 L0.47563246579002794 0.8368343584000879 L0.4644186807900894 0.8186959314000628 L0.46581394379006724 0.8101434804000345 L0.4691470737900545 0.7995498124000644 L0.46870782379005504 0.7885168944000664 L0.4588376257900677 0.7787242104000054 L0.44860569179007825 0.7763987714000731 L0.43953647779002836 0.7792409744000448 L0.4301572057900671 0.783788501400073 L0.41881422878998364 0.7867082194000741 L0.40920241178997685 0.7853646324000945 L0.3826665647900711 0.7750551834000046 L0.38003106579006385 0.7779490633999924 L0.37734389179010464 0.7844861324000671 L0.37310642379006254 0.7903772454000713 L0.3654583117900927 0.7911523924000701 L0.3625644327900943 0.7876383954001138 L0.3116114697900514 0.6937164784000114 L0.29577264379005896 0.6770766684000815 L0.2428559767900822 0.6442104564000513 L0.23461358579004354 0.6343660964000772 L0.2229347117900602 0.6121452304000368 L0.21502821779003511 0.6027917964000036 L0.20593316579004295 0.5972882564000113 L0.1746689247900406 0.5870563234000254 L0.1656255487899898 0.5809843424000771 L0.15937269979008306 0.5749640384000454 L0.152241352790071 0.5702614824000616 L0.12914198778997843 0.5673159264000613 L0.11723056979005264 0.564267016400029 L0.10624932779006713 0.5590735344000191 L0.097464334790061 0.5518388344000495 L0.08725823879009909 0.5311682614000457 L0.08790419379008085 0.5103168214000728 L0.09402928979008607 0.48507149640008684 L0.097464334790061 0.4709135414000709 L0.10278700679003805 0.4291073074001073 L0.11038344279009493 0.41166651140006216 L0.12449110879001068 0.3939673334000613 L0.14490329879006936 0.3802989174000455 L0.15353326379002397 0.37215987940003536 L0.15539361479002878 0.3615403724000483 L0.15027764879002348 0.34187749040001414 L0.14950250179001046 0.3321881593999816 L0.17115492678999544 0.231729174400078 L0.17601251179010546 0.22232406340002875 L0.184022358790088 0.21402999640006293 L0.19278151379006658 0.20852645640007061 L0.19978367079008308 0.20165349040001068 L0.20216078679001726 0.1891219564000064 L0.20500299079000683 0.1536977624000766 L0.201799051790033 0.12274357840006722 L0.18670953279001878 0.09933415440001703 L0.15332655779005222 0.08675094440008557 L0.1345163367900568 0.08706100240006798 L0.10056491979003113 0.09592351040007507 L0.08224562479003339 0.09778386140007989 L0.06384881479004889 0.09313298240011214 L0.04351413879001598 0.08199671240008932 L0.02692600479002749 0.06688135639999437 L0.019484598790000973 0.05034489740000048 Z" fill="black" stroke="black" stroke-width="0.5" vector-effect="non-scaling-stroke"/></svg>