<svg xmlns="http://www.w3.org/2000/svg" viewBox="0 0 2.351154785220018 6.914882812499998"><path d="M2.28598999111 3.07560546875 L2.3010860191100164 3.081139322750021 L2.308084717110006 3.0875683587500067 L2.314391683110017 3.0949739577499873 L2.326964925110019 3.103600259750026 L2.3281042481100087 3.114423827750004 L2.327209066110015 3.1351757807500054 L2.319396566110015 3.1452669267499846 L2.300272217110006 3.124108072750021 L2.289407959110008 3.128990884750026 L2.2837520351100125 3.135013020750039 L2.2847285971100177 3.1424999997500027 L2.293395590110009 3.151451822750021 L2.2851354981100087 3.161298827750004 L2.279764405110001 3.1717968747500027 L2.2657263191100014 3.168867186750008 L2.2564082851100125 3.1792838537500234 L2.251769613110014 3.196373697750021 L2.2518103031100054 3.2134635407500287 L2.239318441110015 3.20679036374999 L2.2324011231100087 3.195397134750026 L2.2251582851100125 3.1717968747500027 L2.2411901861100034 3.1656933587500067 L2.242003988110014 3.1539746087500067 L2.2359004721100177 3.142662759750026 L2.231383871110012 3.137779947750021 L2.220031332110011 3.1471386717500014 L2.216735433110017 3.1620312497500027 L2.212218832110011 3.17163411374999 L2.197204183110017 3.165123697750021 L2.196227621110012 3.1706575517499846 L2.193297933110017 3.1717968747500027 L2.188781332110011 3.1714713537500234 L2.182921957110011 3.1717968747500027 L2.169860433110017 3.1422558587500067 L2.188781332110011 3.1273632807500054 L2.2168981941100014 3.1132031247500027 L2.231383871110012 3.086184895750039 L2.238219808110017 3.079267577750004 L2.254251709110008 3.07560546875 L2.272521566110015 3.074466145750039 L2.28598999111 3.07560546875 Z M1.327615967110006 5.800458983750007 L1.3338415531100054 5.83764973874999 L1.3333125821100111 5.852786457749987 L1.327615967110006 5.889733072750021 L1.3284297691100164 5.952395832749987 L1.3220821131100138 5.962486978750023 L1.3064978031100054 5.953779296750001 L1.3001501471100028 5.938561197750021 L1.287454834110008 5.926354165750029 L1.2587276211100118 5.90600911374999 L1.2587276211100118 5.899173176749985 L1.2626745611100034 5.897708332749987 L1.2723994961100118 5.892255858750007 L1.2665401211100118 5.881432290750029 L1.2654821781100054 5.867841796750001 L1.2706091311100067 5.856204426749985 L1.290506592110006 5.848066405750005 L1.2968542481100087 5.840416665750029 L1.3064978031100054 5.82397786374999 L1.3088171391100047 5.81779296875 L1.3162227381100138 5.802900389750009 L1.323953858110002 5.79272786374999 L1.327615967110006 5.800458983750007 Z M1.176818441110015 5.63224609375 L1.1877233891100047 5.639814452750004 L1.1914668791100098 5.647626952750004 L1.190490316110015 5.663251952750004 L1.1818640141100047 5.672041014750009 L1.1249792481100087 5.711347655750005 L1.1213985191100164 5.719973957749987 L1.1230261231100087 5.730634764750009 L1.126444092110006 5.741865233750007 L1.128397217110006 5.752363280750005 L1.124735108110002 5.764244790750029 L1.115823975110004 5.771080728750023 L1.104552816110015 5.774498697750021 L1.0936071781100054 5.776289061750008 L1.072000733110002 5.771650389750009 L1.0618688971100028 5.763349608750007 L1.0458369961100118 5.734622395750039 L1.032694092110006 5.722740884750026 L0.9850459801100158 5.700442707749987 L0.9775183111100034 5.707929686750008 L0.9527380371100094 5.694257811750008 L0.9385778811100067 5.689049478750023 L0.9260860191100164 5.68693359375 L0.9166052251100041 5.681888020750039 L0.8919063321100111 5.649335936750008 L0.8775427251100041 5.622236327750004 L0.887064209110008 5.597903645750039 L0.9102168791100098 5.57951171875 L0.9365840661100151 5.570885415750029 L0.9241328941100164 5.585126952750004 L0.9083044441100014 5.597903645750039 L0.9015498861100184 5.610924478750023 L0.9161169441100014 5.625410155750005 L0.9269405111100184 5.629641926749985 L0.9358516441100164 5.629967447750021 L0.992532959110008 5.619550780750005 L1.0017696131100138 5.621992186750008 L1.009256592110006 5.627607421750001 L1.0171504721100177 5.632083332749987 L1.0234981291100098 5.638349608750007 L1.025980225110004 5.649335936750008 L1.0110469571100111 5.658369139750009 L1.0041296391100047 5.666669921750001 L1.0082800301100008 5.676923827750004 L1.0187780771100279 5.680830077750004 L1.028787842110006 5.676679686750008 L1.038797608110002 5.669843749750003 L1.0492549651100092 5.666425780750005 L1.061584066110015 5.668378905750005 L1.0792842611100184 5.677656249750003 L1.087381592110006 5.680097655750005 L1.1022334801100158 5.676679686750008 L1.1081335451100074 5.666181639750009 L1.1139522301100158 5.652428384750026 L1.128397217110006 5.639082030750005 L1.1386511231100087 5.63452473874999 L1.1515498861100184 5.631025389750009 L1.1649776211100118 5.629804686750008 L1.176818441110015 5.63224609375 Z M1.8812862151100092 4.309654947750021 L1.8948360191100164 4.305097655750005 L1.9053747561100067 4.296064452750004 L1.912698975110004 4.283287759750026 L1.9166866051100158 4.267988280750005 L1.921610108110002 4.26896484375 L1.9325557461100118 4.273033853750023 L1.9365026861100034 4.275475259750026 L1.9285681161100001 4.293053384750026 L1.927225342110006 4.312747395750039 L1.9221797691100164 4.32755859375 L1.9030147301100158 4.330162759750026 L1.8953649911100001 4.326419270750039 L1.8892207851100125 4.32202473874999 L1.884500733110002 4.316653645750039 L1.8812862151100092 4.309654947750021 Z M1.1730749521100279 4.220299478750023 L1.1890254721100177 4.232099608750007 L1.196349691110015 4.259443358750007 L1.1945186361100184 4.289472655750005 L1.1830440271100144 4.309654947750021 L1.1830440271100144 4.30216796875 L1.176818441110015 4.309654947750021 L1.1718542481100087 4.303876952750004 L1.166605225110004 4.30054036374999 L1.155089925110019 4.295983072750021 L1.1558630371100094 4.295576171750001 L1.1547237151100092 4.293053384750026 L1.155089925110019 4.289147134750026 L1.1428828941100164 4.258059895750039 L1.1420284021100144 4.248131509750026 L1.1456905111100184 4.229088540750029 L1.1517126471100028 4.220950520750039 L1.1607051601100125 4.219648436750008 L1.1730749521100279 4.220299478750023 Z M1.9365433761100235 4.241295572750021 L1.954162191110015 4.232018228750023 L1.9641719571100111 4.218916014750009 L1.972391358110002 4.205162759750026 L1.9849239101100125 4.192955728750023 L1.990172933110017 4.207604165750029 L1.9871618661100001 4.22046223874999 L1.9813024911100001 4.232587889750009 L1.9780879721100177 4.244713540750029 L1.9706823731100087 4.257408853750023 L1.954813233110002 4.258873697750021 L1.9401647951100074 4.252363280750005 L1.9365433761100235 4.241295572750021 Z M1.981505941110015 4.138837889750009 L1.9943640141100047 4.144208983750007 L1.9983516441100164 4.154544270750039 L1.9931026211100118 4.162031249750003 L1.9780879721100177 4.158776040750029 L1.967142334110008 4.14396484375 L1.953918050110019 4.119388020750039 L1.9493200691100014 4.10099609375 L1.9644567871100094 4.104169921750001 L1.9695837411100001 4.112552082749987 L1.9745886231100087 4.134443358750007 L1.981505941110015 4.138837889750009 Z M0.6110225431100105 0.06779296875000007 L0.6297399911100001 0.08162760375002343 L0.6245723471100177 0.10978515575000536 L0.6032100431100105 0.13257161374998994 L0.5734655771100279 0.129804686750008 L0.5560909021100144 0.11059895774998729 L0.5590205901100092 0.09041666575002871 L0.5785925301100008 0.07430338475002607 L0.6110225431100105 0.06779296875000007 Z M0.028869222110017745 6.832197264750009 L0.0381465661100151 6.835208332749987 L0.044250082110011135 6.840253905750005 L0.04050659211000607 6.844404296750001 L0.03533894911001312 6.84708984375 L0.032165121110011796 6.84708984375 L0.02646850611000673 6.843427733750007 L0.023050537110009373 6.838138020750039 L0.024108480110015762 6.833173827750004 L0.028869222110017745 6.832197264750009 Z M1.5885616051100158 3.3257682287500234 L1.5782263191100014 3.309654947750021 L1.581115316110015 3.295169270750039 L1.5927526861100034 3.2878450517499846 L1.6084997561100067 3.2936230467500014 L1.6155391441100164 3.305830077750004 L1.612121175110019 3.317304686750008 L1.601907959110008 3.3248730467500014 L1.5885616051100158 3.3257682287500234 Z" fill="black" stroke="black" stroke-width="0.5" vector-effect="non-scaling-stroke"/></svg>