<svg xmlns="http://www.w3.org/2000/svg" viewBox="0 0 1.434748535219967 1.33518066504001"><path d="M0.9404984541099566 0.6647827155200314 L0.9219030761099702 0.6614461265200173 L0.9100622561099954 0.6806111655200464 L0.904691162109998 0.7105183925200134 L0.9057897951099676 0.739245605520038 L0.9251989751099927 0.8000366215200341 L0.9292272951099676 0.8296590175200134 L0.9002966311099954 0.8541951505200398 L0.9009069831099623 0.8822713225200385 L0.9043249511099702 0.9005004885200076 L0.9146195481099539 0.9556355795200187 L0.9197465011099553 0.9693074545200187 L0.926419678109994 0.9820027675200134 L0.9443233241099733 1.0082071945200521 L0.981473389109965 1.0341267905200464 L0.9525427251099927 1.0648885095200438 L0.9399694831099623 1.1166056315200006 L0.9394405111099786 1.175036621520034 L0.946764730109976 1.2258992515200173 L0.925280355109976 1.2212605795200187 L0.9011918131099605 1.2285034185200328 L0.8784460451099676 1.2423380535199993 L0.8607458501099927 1.2572713225200385 L0.8430863451099526 1.2689493815200006 L0.8203812671100081 1.2773315435200328 L0.7754187011099702 1.287992350519998 L0.765124105109976 1.2889689135200495 L0.7511267091099967 1.2903523765200173 L0.6897660321099579 1.280505371520034 L0.6677526861099636 1.2824178065200424 L0.6040726731099539 1.2948282885200495 L0.5252966311099954 1.287992350519998 L0.43968465210997465 1.2948282885200495 L0.4386267091099967 1.294624837520045 L0.39866902710997465 1.287992350519998 L0.38931030310999404 1.290270996520034 L0.36082723010997597 1.3015828455200147 L0.34963745110997024 1.3027221685200328 L0.32998413110999536 1.3073608405200314 L0.3198522951099676 1.3085001635200495 L0.3057328291099566 1.306343587520045 L0.2958044441099901 1.3011759445200521 L0.2866898601099592 1.2945027675200134 L0.27517456110996363 1.287992350519998 L0.2565791831099773 1.2825398765200173 L0.236071371109972 1.280179850519998 L0.14944213910996496 1.2800170905200314 L0.1257198081099773 1.2827840175200134 L0.1075720221099914 1.2914103195200521 L0.09292358410999668 1.3026814785200411 L0.07347371410997994 1.3141153975199966 L0.05300659210996628 1.3218465175200134 L0.035550537109998004 1.3220906585200094 L0.014066162109998004 1.3076863615200107 L0.023831787109998004 1.2941365565200424 L0.056058350109992716 1.277412923520016 L0.06081909210996628 1.2736694345200288 L0.0718054201099676 1.2703328455200147 L0.1042354331099773 1.2643107105200482 L0.11082723010997597 1.2580037435200477 L0.1212438971099914 1.2429890955200147 L0.1368688971099914 1.2312703455200147 L0.153592530109961 1.2232137045200187 L0.23070027710997465 1.2005086265200173 L0.23537963910996496 1.198270671520019 L0.2737097171099663 1.1801228845200438 L0.3034541831099773 1.1540812175200283 L0.303983155109961 1.1536336265200173 L0.303128662109998 1.1234822595200438 L0.3158239751099927 1.116890462520045 L0.3309606941099901 1.1166463225200385 L0.38263712610995526 1.1254353845200438 L0.42198445710999977 1.124011230520038 L0.4249548341099967 1.1238891605200063 L0.43618530310999404 1.1234822595200438 L0.44749715210997465 1.1191284185200328 L0.46084350610999536 1.1084676115200107 L0.4729284671099663 1.0948771165200508 L0.4806188971099914 1.0819376635200495 L0.48440307610997024 1.0619588225200385 L0.4831416831099773 1.0544311525200367 L0.4815140791099566 1.0451538095200288 L0.47646850610999536 1.0289591475199966 L0.4737829591099967 1.0102010095200438 L0.471951905109961 1.004789225519998 L0.4632035321099579 0.9975463875200301 L0.4601110841099967 0.993151855520038 L0.4597041831099773 0.9876993815200006 L0.4624304201099676 0.9862345385200495 L0.46584838910996496 0.9855428065200424 L0.4675573731099689 0.9826131185200477 L0.46658081110996363 0.9748413095200288 L0.46076212610995526 0.9552693685200477 L0.4570186361099786 0.9484334315200424 L0.454821371109972 0.9340291345200438 L0.4605179851099592 0.9142944345200288 L0.4737829591099967 0.8832885745200354 L0.4804561361099786 0.8452840175200134 L0.4806188971099914 0.8059773765200173 L0.47048706110996363 0.7692749025200367 L0.44652058910997994 0.739245605520038 L0.4538854981099689 0.7331014005200398 L0.41396850610999536 0.7062459315200424 L0.3937048341099967 0.6970906585200094 L0.36514038110999536 0.6842325855200482 L0.3437373861099786 0.679756673520016 L0.29275268610996363 0.6763387045200187 L0.286405030109961 0.6743855795200187 L0.28148152710997465 0.6690144865200107 L0.27517456110996363 0.6573771165200508 L0.3271358241099733 0.6219767255199979 L0.34064493810996055 0.6164021815200424 L0.3816198731099689 0.6198201505200398 L0.42764038110999536 0.6092000335200094 L0.4526647951099676 0.6095255535199993 L0.4570186361099786 0.6095662435200477 L0.46955118810996055 0.6039103195200521 L0.47720092810999404 0.5939005535199993 L0.48232788110999536 0.5897908535200411 L0.4874548341099967 0.6021199545200187 L0.4949011231099689 0.6021199545200187 L0.4951859541099566 0.5987833665200508 L0.4949011231099689 0.5884480795200187 L0.5010453291099566 0.5884480795200187 L0.5017370611099636 0.5934936525200367 L0.503405355109976 0.5961385095200438 L0.5057653811099954 0.5982950855200482 L0.5085323081099773 0.6021199545200187 L0.5010453291099566 0.6095662435200477 L0.5093461101099592 0.6076131185200477 L0.5152054851099592 0.6029744475200385 L0.5191117351099592 0.5982137045200187 L0.5215531421100081 0.5958943685200477 L0.5408402511099553 0.5952840175200134 L0.542711996109972 0.5958943685200477 L0.5509313971099914 0.5885294605200482 L0.5698522951099676 0.5666381845200288 L0.5761999511099702 0.5611857105200482 L0.5901566571099579 0.5600463875200301 L0.5936560061099954 0.5597615565200424 L0.6466345221099914 0.5661092125200451 L0.7626826991099733 0.5665974935200477 L0.7711869311099804 0.5602091475199966 L0.7879105631099605 0.5476765955200147 L0.8462194831099623 0.5407185875200451 L0.8642451991099733 0.5331909185200328 L0.9939245611099636 0.5188680015200173 L1.035469157109958 0.5270060225199966 L0.9929886881099605 0.6006551115200107 L0.9404984541099566 0.6647827155200314 Z M1.4122595221099914 0.013090006520000586 L1.4197058111099636 0.02049560552003804 L1.420682373109969 0.04531656952005214 L1.41722371410998 0.0759969085200094 L1.4097367351099592 0.09764404352003275 L1.3985876471099914 0.09503987652001733 L1.3924027511099553 0.09503987652001733 L1.3862585451099676 0.1100545255200398 L1.3774694831099623 0.11172281952005214 L1.367500407109958 0.10838623052003804 L1.3576534021099746 0.10863037152003407 L1.3557002771099746 0.11302490252003672 L1.34072631910999 0.1327189135200495 L1.337186280109961 0.1334920255200398 L1.3139929201099676 0.14761149152005082 L1.3067093921100081 0.15338948652001072 L1.2956416831099773 0.1599812835200094 L1.2829870611099636 0.1598592125200451 L1.2709021001099927 0.15741780652004245 L1.261461996109972 0.1570515955200147 L1.2009965011099553 0.18708089252001336 L1.1832556161099888 0.1912312835200094 L1.1563187671100081 0.21418050152001733 L1.139432373109969 0.22089436852004773 L1.1323522951099676 0.2049031585200094 L1.1173376471099914 0.21234944752003848 L1.1034216311099954 0.21003011152001072 L1.0952429201099676 0.20018310552003804 L1.0975622561099954 0.18500569752003848 L1.106025798109954 0.18081461652005082 L1.119901123109969 0.17861735051999794 L1.1328405761099702 0.17349039751999662 L1.1384965011099553 0.16046956452001204 L1.1484248861099786 0.14753011152001072 L1.233060303109994 0.09284261152001072 L1.2511267091099967 0.07526448652001072 L1.261461996109972 0.06769612652001733 L1.2741573081099773 0.0612264005200398 L1.306953532109958 0.0493041995200354 L1.33519246410998 0.0434448245200354 L1.346951905109961 0.03685302752003672 L1.359118246109972 0.03461507252003848 L1.3750280761099702 0.04385172551999794 L1.3823929851099592 0.04295654352003275 L1.4014359541099566 0.020739746520034075 L1.4122595221099914 0.013090006520000586 Z" fill="black" stroke="black" stroke-width="0.5" vector-effect="non-scaling-stroke"/></svg>