<svg xmlns="http://www.w3.org/2000/svg" viewBox="0 0 4.165984472040054 7.258621490580012"><path d="M4.066122390020078 4.235138554790041 L4.0670571770199695 4.279987424790022 L4.03842843402007 4.375149574789987 L4.035947965020008 4.390523313790055 L4.035431200019965 4.446488889790061 L4.017551154020006 4.514262530789978 L4.024785855019993 4.617899615790037 L4.010213101020022 4.7233453757899895 L4.010936572020008 4.778406614790043 L4.031400439019969 4.817086423789959 L4.098373095019988 4.872845294790011 L4.121627490019997 4.908786253790083 L4.125141487020053 4.950876706790012 L4.107364794020023 4.982089271789988 L4.087096024020021 4.998501166789993 L4.074911995019996 5.008366738790045 L4.005045458020001 5.047873370789972 L3.743351841020009 5.154140500790049 L3.4342275870200263 5.279668007790036 L3.406942431019993 5.304576047790022 L3.3666348140200535 5.3840027247900935 L3.333871956020041 5.411856320790065 L3.2975951000199837 5.430976600790046 L3.264108772020003 5.454179319789972 L3.2445750800199926 5.459346962789965 L3.2262816230200224 5.453145790789989 L3.2082982250200383 5.44441247379001 L3.1894880040200144 5.442242063790019 L3.166957079020002 5.462757606790092 L3.1585854970200353 5.542856077790049 L3.145563036019987 5.576084023790088 L3.103395067020025 5.6097253807900245 L3.0865485500200487 5.644296913790015 L3.0745596180199835 5.659334755790013 L3.059883511019998 5.672047158790065 L3.0435537590200648 5.683260944790021 L2.988776741019998 5.7017611067900305 L2.8764321770200434 5.700520872790094 L2.8249624500199753 5.735867551789994 L2.7574730290200273 5.837773476790005 L2.6936009600200714 5.898803342790075 L2.6778913240200177 5.9219543847900695 L2.6672459790200174 5.98717004179008 L2.66910633102004 6.004533322789996 L2.74372709902 6.175582313790073 L2.7742161940199788 6.281002236790016 L2.8058421710199832 6.338208046789958 L2.807185758020048 6.356811562790028 L2.8016047030200264 6.3952071507899575 L2.8060488760200224 6.430657183789975 L2.8311636230200543 6.500730426790028 L2.830750211020054 6.534216754790009 L2.8149372230200607 6.574576048789993 L2.7532355630200778 6.685111936790008 L2.6621816880200493 6.774667193790037 L2.556658414020071 6.921841673790027 L2.4323249180199946 7.061213010789999 L2.406796761020055 7.074080442790006 L2.3339329910199718 7.078266233790032 L2.3044774250200613 7.0850358457899745 L2.0807184720200462 7.187458534790011 L2.0523997880199625 7.077387734789994 L2.02408110302006 6.967316932789998 L1.995762418020072 6.857297809789998 L1.9673403800200413 6.747278684790018 L1.9389183430200285 6.637207884790001 L1.9105996570200228 6.527188759790022 L1.882280973019939 6.417117958790016 L1.8539622880200364 6.307047157790009 L1.8254368980200093 6.197028033790019 L1.7972215650200178 6.086957232790013 L1.768799528020005 5.976938108789994 L1.7404808420200277 5.866867307789988 L1.7121621580200292 5.756796506789982 L1.6837401200199986 5.646829059790008 L1.655524788020025 5.536758258790002 L1.6269993970200654 5.4266874577899955 L1.6243144090200383 5.416172356790042 L1.606018766020079 5.344521929789977 L1.5947533030200214 5.325608355790024 L1.5809040200199513 5.311500689789995 L1.4125422030200037 5.208121987790008 L1.203356006019967 5.079706052790016 L1.0436758290199828 4.981572507790048 L0.9209959790200424 4.915349160790072 L0.8936378670200407 4.890008462790092 L0.8922638830200436 4.888735797790019 L0.8805850090200602 4.8557662337899785 L0.8709731930199576 4.752490883790017 L0.8574339680199978 4.611956826790021 L0.8438947430200097 4.579994952790031 L0.7424022290200378 4.446540566790077 L0.6478343580200283 4.322077878790054 L0.625510139020073 4.3105798727900435 L0.6046328610199874 4.314533120790031 L0.5836522290200117 4.31331872378999 L0.5631883620200222 4.307996050790052 L0.5437580240200441 4.299546954790031 L0.432963753020041 4.232238401790056 L0.3964801910200402 4.2218256007900266 L0.3485244620200172 4.218053220790011 L0.31173084202001977 4.208699786790049 L0.28599597902002305 4.184954465790014 L0.27069975502005494 4.138213132790014 L0.2692968100200597 4.00565988579001 L0.26925281502006104 4.001503131790059 L0.25416329601999 3.962254880789999 L0.17757882402006775 3.850401243790003 L0.11401681202000535 3.7576162087900116 L0.10543852502005624 3.732113889790071 L0.09520659102006679 3.6801273987900345 L0.06647449502006797 3.6335152567900764 L0.05954985302000981 3.6163845197900173 L0.04590727501997893 3.5613491197900657 L0.04084298502000028 3.5224626047900074 L0.061616910020043214 3.4221069717900434 L0.06471749602000276 3.3483905417900246 L0.07846342702001952 3.321337929789962 L0.10023880601998147 3.302606030790031 L0.14057849802001332 3.2679044977900276 L0.16507312802006258 3.2408777247900957 L0.1924616360200071 3.2172615947899885 L0.23132231402005576 3.2010610337900687 L0.29488432502004347 3.192586098789974 L0.31379790001998575 3.184214516790007 L0.3263035960199909 3.171657143789986 L0.33529529602001507 3.1554049057900784 L0.3729157380200343 3.0370917137900335 L0.3925527820199841 3.001977577790001 L0.4316201660200045 2.9784648017900963 L0.518333219020044 2.946942177790021 L0.5600877760200058 2.9221891667900195 L0.6550690590200157 2.8862223697900333 L0.663493747020035 2.880009161790042 L0.7046784330200717 2.8496354557900077 L0.728242887020067 2.8378015527900686 L0.7362010570200335 2.831083616790039 L0.740541878020033 2.824210650789979 L0.7475698730200202 2.8067956937900647 L0.7538743970200494 2.7986308167900233 L0.7898411940200072 2.779923947790053 L0.7974893060200055 2.768710161790011 L0.7716510900200797 2.735172157790089 L0.7744416170200248 2.7196175517900656 L0.7862238440200224 2.704683062790025 L0.8183665840199774 2.6766227597899785 L0.8197250470200084 2.6750658697900462 L0.8275649900199733 2.666080767790021 L0.8303555170200321 2.6524898667900345 L0.8117520010199906 2.5516174707900348 L0.8098916490200532 2.5144104387900086 L0.8200202310200178 2.4757047907899903 L0.8438947430200097 2.4223230367900896 L0.8614647290200788 2.348684120790068 L0.874693896019985 2.3132857647900664 L0.9219261550200111 2.2704460017900203 L0.9823875800200392 2.1942749407900237 L0.9923094560200321 2.1746378967899886 L0.9578929520199972 2.1526754127900176 L0.9162417480200498 2.1420300677900457 L0.8784145990199841 2.1268888737900227 L0.8553669100200318 2.091283811790049 L0.8489590330200736 2.0503044007900257 L0.8510260890200323 2.0137691637899877 L0.8618781400200044 1.9788875707900218 L0.8977415840200331 1.9079875067900502 L0.8980516430200192 1.8784285867900223 L0.8882360680200145 1.794958441790044 L0.8846157710200737 1.7641719957900648 L0.8675625480200404 1.731460813790079 L0.8186766440199529 1.6660384507900972 L0.8067910640200262 1.6310535057899926 L0.8024502430200551 1.5886271547899753 L0.8082380040200201 1.509045448790033 L0.8294339880199937 1.446499921790064 L0.8334561030199632 1.4346313867900164 L0.8366600420200507 1.3795443097899636 L0.8577440260200513 1.3059570697899687 L0.8690094880200343 1.2893689357900655 L0.878104540019998 1.2704553607900095 L0.8755207190199963 1.2524202867900271 L0.8680793130199698 1.2338684467900691 L0.863325081020073 1.2140246977900802 L0.8680793130199698 1.1727352277899854 L0.9154149250200385 1.0654549547900274 L0.9164337000200442 1.0602478837900549 L0.9191356280200376 1.0464380267899571 L0.9206859200199711 1.0051485577900223 L0.9187222160200372 0.9859766017900142 L0.9102472820200456 0.9675797917900297 L0.8948477050200347 0.9599833557900581 L0.8759341300200072 0.955745887790016 L0.856607144020054 0.9476843657900247 L0.7697907380199718 0.9385376367900449 L0.7288630040200497 0.9249984107900673 L0.7289007560200753 0.9243688907900207 L0.7309300610200262 0.8905302307900911 L0.7544945140200037 0.8673791887900961 L0.7833299630200452 0.8525997297900858 L0.8479255040200053 0.8329626857900507 L0.9689517080199801 0.7737414937900553 L0.9913792800199781 0.753742714790036 L1.0142202630200723 0.7187060937900185 L1.0227985510200108 0.6835661197899583 L1.0026447420200464 0.6631539287900239 L0.9677114740200432 0.6483744697900136 L0.9741193520199909 0.6324581277900734 L1.0050218580199806 0.6201591367900221 L1.0436758290199828 0.616386756790007 L1.0810895660200481 0.6184538147900582 L1.1155060700199977 0.612717730790024 L1.1848558420200357 0.590290158790026 L1.202735888019995 0.5800065487900099 L1.2035627110200346 0.5678625877900174 L1.1692495600200141 0.5256429427900571 L1.1658389160199727 0.5153851707900685 L1.1666657380199945 0.5033187237899881 L1.1635210156411597 0.4768531061902195 L1.1821149500200159 0.47057701879005265 L1.2531598720200146 0.4469767587900293 L1.2775739340200198 0.4432739587900443 L1.3630231530200172 0.4432739587900443 L1.3854027100199824 0.43688561279005 L1.4267438560200185 0.4087280607900112 L1.4570172940200132 0.39749759179001387 L1.4646670330200005 0.3946899747900403 L1.4868024500200159 0.3774780607900112 L1.517889689020003 0.34708255279004163 L1.5486514080200005 0.2995158207900346 L1.5619977620200212 0.29239505279004163 L1.5717633870200212 0.28852949279003326 L1.5997581790199797 0.2645223307900011 L1.6103376060200185 0.25939537778999977 L1.6404482830200005 0.24954837279001651 L1.7202008870200212 0.223547396790039 L1.7324079190200132 0.21756595079001784 L1.7534040120200212 0.19022220079001784 L1.7717145590200198 0.182531771790039 L1.9035504970200146 0.18102623779005 L1.941717814020003 0.16890058679003062 L1.9661318770199978 0.14786380279004163 L1.980129273019977 0.14053958379004428 L1.9936383870200212 0.14497480479003855 L2.0038922940200132 0.14981692779004163 L2.0148786220200146 0.14806725278999977 L2.0255394290199797 0.14391686279005 L2.05491768402002 0.13822024779001651 L2.07835518402002 0.12967532579001784 L2.0995954190200132 0.11836347679003723 L2.113755575020016 0.10684817779004163 L2.134100627019998 0.11612552179003899 L2.1524925540199797 0.11343997479004031 L2.1894391690200132 0.09321699279003326 L2.210272502019998 0.08450931079001123 L2.227280966020012 0.08092858079000109 L2.2713076580200005 0.08019615979004868 L2.293443075020016 0.07303470079001784 L2.3056501060200185 0.07116295579000109 L2.316148153020017 0.07645266979001519 L2.3242047940200132 0.08271894579003458 L2.334458700020016 0.08585208379004428 L2.4199079190200132 0.08756106779004824 L2.4200706790199797 0.09049075579004295 L2.422186564020003 0.10001223979004692 L2.422674846019995 0.14517825579004295 L2.3917503670199745 0.16515709679005397 L2.35374580902002 0.17834069079005133 L2.332831096019995 0.20303958379004428 L2.3360863040199797 0.21056725278999977 L2.3517113040199797 0.23795169279004824 L2.3566754970200146 0.24401451879005265 L2.3625348720200146 0.2472290367900456 L2.368801148019977 0.26134850278999977 L2.3769391690200132 0.2645223307900011 L2.420721721019995 0.26932376379001255 L2.440904012020021 0.26627200579004295 L2.46312080902002 0.2515014977900165 L2.475327841020012 0.23807376379001255 L2.4863141690200132 0.2196004557900011 L2.485988648019977 0.20324303479004868 L2.422186564020003 0.182531771790039 L2.412583700020016 0.18350833379004428 L2.392075887020021 0.1886352867900456 L2.380601278020017 0.1887573577900099 L2.380601278020017 0.182531771790039 L2.4049339600199824 0.16890058679003062 L2.414536825020016 0.1668660807900011 L2.420640341020012 0.16222740979004868 L2.4249534920199745 0.15734459679005397 L2.428452841020012 0.1546590497900553 L2.4435081790199797 0.15278730479003855 L2.5408389080200005 0.17032473979004692 L2.55882393402002 0.16890058679003062 L2.6122907310200185 0.14977623779005 L2.620835653020017 0.1515259117900456 L2.6368675540199797 0.17142337279001651 L2.70726143402002 0.1798462247900403 L2.739732137020021 0.20364993579001123 L2.814113648019977 0.2249715497900553 L2.8331566170199745 0.23782962279001651 L2.801092814020003 0.24458417979003855 L2.7862816170199745 0.24962975278999977 L2.772284221019995 0.25768639379005265 L2.7668317470200146 0.24124759179001387 L2.738999716020012 0.23839928479004868 L2.7070172940200132 0.24515384179001387 L2.689113648019977 0.25768639379005265 L2.6964378670199745 0.2740438157900513 L2.7226422940200132 0.28201907579001784 L2.7529157310200185 0.2831177087900443 L2.772284221019995 0.27876386779003326 L2.7792015380199837 0.2874308597900068 L2.7880719810200185 0.29870201879005265 L2.791327189020003 0.30826419279004824 L2.78538643402002 0.3204305347900487 L2.7785504970200146 0.30606692779004163 L2.7353376060200185 0.3401245447900152 L2.7433942470200146 0.38931888079004295 L2.7810732830200005 0.4397339197900152 L2.826890341020012 0.477453646790039 L2.8642438560200185 0.49198001379001255 L2.874741903020017 0.49792076879005265 L2.898016643019994 0.524532096790054 L2.9081891690200132 0.5360880867900306 L2.9029808350199824 0.547766146790039 L2.8800316170199745 0.5661173837900293 L2.8703473720200146 0.586584505790043 L2.859849325020016 0.5946004557900011 L2.846177450020016 0.5963908207900346 L2.8331566170199745 0.58727623779005 L2.840562216020012 0.5720581387900125 L2.8312034920199745 0.5679077477900165 L2.813950887020021 0.5700236337900293 L2.78148018402002 0.5785685547900385 L2.77171455902002 0.5845093107900112 L2.754624716020012 0.6040405607900112 L2.749497762020021 0.6187703777899998 L2.76390205902002 0.6237345707900346 L2.795233439020003 0.6244669927900333 L2.808254273019977 0.6300822267900372 L2.814927450020016 0.6249145837900443 L2.818019898019977 0.6225138677900333 L2.8331566170199745 0.6002970707900346 L2.8546409920199745 0.6386271487900359 L2.88108955902002 0.6675985027899998 L2.916327189020003 0.6851766277899998 L2.9640159920199745 0.6896525397900319 L2.9777692470200146 0.6868042327900099 L2.9980059140200206 0.687524457790019 L3.048737861019995 0.6667123267900052 L3.0797240760199793 0.6605671437900043 L3.0992434550200096 0.6443379597900076 L3.1070605360199943 0.6164427107900252 L3.1136090420199958 0.5934432157900034 L3.1279157310200185 0.5531372397900469 L3.145982137020021 0.5401977867900456 L3.1671409920199745 0.5366577477900165 L3.213609091020012 0.5394653647900469 L3.2556826580200005 0.5329142587900293 L3.2944762540200054 0.5205516187900372 L3.3442156230200135 0.49194594379004286 L3.3749860440200132 0.4659790367900456 L3.384100627019998 0.4624389977900165 L3.3879254970200146 0.45316165379001916 L3.391099325020016 0.4481160807900011 L3.448553752019998 0.41035566479003194 L3.4568545330200005 0.4022583337900443 L3.459458700020016 0.3911499357900112 L3.4557152100199824 0.38419192779004163 L3.453924846019995 0.37772220079001784 L3.46312080902002 0.3675496747900553 L3.484686564020003 0.3593302737900359 L3.5351422940200132 0.35509850278999977 L3.573716512020021 0.3315796227900165 L3.5943870850199824 0.32889407579001784 L3.612046591020012 0.3360555347900487 L3.62132393402002 0.3538777997900553 L3.619940471019995 0.3624634117900456 L3.60960518402002 0.37438561279005 L3.607082398019977 0.3849243497900403 L3.6093610440200132 0.3960327477900165 L3.6191266690200132 0.41035566479003194 L3.62132393402002 0.41934817779004163 L3.6249860440200132 0.4263061857900112 L3.642320028020017 0.4469767587900293 L3.648749064020003 0.4569458337900443 L3.651109091020012 0.4667521487900359 L3.652818075020016 0.48815514379005265 L3.6555036220200146 0.49792076879005265 L3.6601422940200132 0.5057739587900443 L3.6669782310200185 0.514766471790054 L3.674139689020003 0.522131380790043 L3.679429403020017 0.5251831387900125 L3.685288778020017 0.5306763027900416 L3.6972371650199785 0.5458337487900309 L3.6915557360199864 0.5623250717900561 L3.6777774990199896 0.5779519927900338 L3.6377458130199694 0.5911754717900095 L3.583150120020016 0.6280877947900336 L3.5535584160199756 0.6722994137900429 L3.5109404020200055 0.7224861287900382 L3.4405299470200044 0.8278888757900091 L3.386672945019975 0.9365530867900276 L3.360939162020011 0.9644786347900123 L3.27816412102002 0.9818126337900281 L3.181451494019975 1.0260834727900061 L3.1465749560199834 1.0182318537900557 L3.111938876019999 1.0391080737900467 L3.0800957020199826 1.078891410790007 L3.065855499019997 1.1170091477900002 L3.052078516019983 1.158298227790013 L3.0402774820200102 1.199401872790034 L3.037866294020014 1.25084200979002 L3.035705464019977 1.3038779117900532 L3.040538119020007 1.3370365657900294 L3.05340404102001 1.3710230557900474 L3.060858439020003 1.389074739790047 L3.065741252019998 1.395422396790039 L3.0701357830200005 1.405188021790039 L3.075832398019977 1.4272827477900165 L3.079575887020021 1.436397330790001 L3.1015485440200132 1.463537630790043 L3.117499064020003 1.4783895187900526 L3.131333700020016 1.484777864790047 L3.143296591020012 1.494543489790047 L3.169582398019977 1.560502148790036 L3.183091512020021 1.5737671227900165 L3.2523460700199758 1.6267456387900125 L3.254706096019995 1.6285766927900482 L3.2740745850199824 1.637121614790047 L3.304630250019991 1.6466917937900263 L3.364732137020021 1.6294311857900112 L3.3748232830200005 1.6313843107900112 L3.384100627019998 1.6359009117900456 L3.4024310260199764 1.6498162527900178 L3.3913502770200035 1.6631303257900214 L3.385532942019986 1.6829747357900402 L3.3906110440200132 1.7032430347900487 L3.4021670330200005 1.7175659507900178 L3.4425316170199745 1.7333537117900306 L3.5328264810200176 1.7622257557900554 L3.572984091020012 1.758459505790043 L3.6020086370199715 1.7786334867900138 L3.6160322110199923 1.8018875477900025 L3.5781110440200132 1.8140828777899998 L3.572984091020012 1.8373169277900416 L3.574937216020012 1.853470898790036 L3.575913778020017 1.8612020187900526 L3.5849469810200185 1.8826050137900125 L3.6002464600199824 1.8978638027900416 L3.6460679980199666 1.9095784487900147 L3.618700318019969 1.9296303977900067 L3.6116766010199877 1.9565821237899996 L3.6065409020199946 1.9816092057900079 L3.6104227680199665 2.025108597790009 L3.5981983670199975 2.0455424777900504 L3.6032432540199943 2.081928475790008 L3.6269011390199717 2.113095503790035 L3.66233955902002 2.149532096790054 L3.683091512020021 2.1627156907900513 L3.7081145150200223 2.1723584687900512 L3.721792349019986 2.178131729790053 L3.7201701930199897 2.197606782790004 L3.692362748019982 2.198404826790025 L3.672588363019977 2.2107691997900503 L3.6533261170199944 2.242425084790014 L3.6239227880200042 2.262724944790037 L3.6098408510199897 2.2851405107900433 L3.5960008610199816 2.309308293790039 L3.576890341020012 2.32352298279001 L3.5834631270200044 2.351861561790045 L3.5791158400199743 2.3821729557900113 L3.5453766020200215 2.416949900790044 L3.5068735620199982 2.432832670790006 L3.4786644290199797 2.458939648790036 L3.4859617240199805 2.4822418807900277 L3.4775251060200185 2.503047721790054 L3.477346228019976 2.5427947297900033 L3.4365094810200185 2.567297396790039 L3.4277204190200132 2.575109896790039 L3.421372762020021 2.5795451177900333 L3.417303752019998 2.5854858727900165 L3.428368215020023 2.6053307327900512 L3.4324315880199743 2.6189968987900016 L3.395895492020011 2.6329657097900423 L3.372272877019989 2.6474837467900016 L3.3400527220199843 2.676862494790001 L3.324479493020001 2.702915709790048 L3.304999064020003 2.717688021790039 L3.295721721019995 2.7355102867900456 L3.2783063560200185 2.7516235677900482 L3.262193075020016 2.760412630790043 L3.1952985440200132 2.7784790367900456 L3.186265341020012 2.7831177087900443 L3.182440471019995 2.790075716790014 L3.1808942470200146 2.8004923837900293 L3.17601143402002 2.812780794790015 L3.168443075020016 2.823034700790018 L3.166720126020018 2.842695617790028 L3.1597624230200063 2.8539104047899997 L3.1580338530199947 2.8716506357900045 L3.1426251860200205 2.8836847107900354 L3.12038694902001 2.89287338079005 L3.027004273019977 2.9044149097900487 L2.992905966020012 2.9200399097900487 L2.939734198019985 2.9932835547900396 L2.891424846019995 3.0037801437900526 L2.8814964600199824 3.0031291017900372 L2.8723004970200146 2.9995483727900165 L2.861070028020017 2.9986531907900513 L2.849107137020021 3.002355989790047 L2.8430036220200146 3.0074829427900482 L2.8390159920199745 3.013627148790036 L2.8176129970200146 3.0372680997900403 L2.808254273019977 3.04422610779001 L2.795233439020003 3.0470337247900403 L2.747788778020017 3.064408398790036 L2.7276878670199745 3.0775513027900416 L2.68773018402002 3.090734896790039 L2.6631719630200132 3.112288925790054 L2.650788990020012 3.143389366790032 L2.6150444210199817 3.203200634790008 L2.5937877280199837 3.2317089477900396 L2.579820028020017 3.2357951177900333 L2.5712751060200185 3.243200716790014 L2.571112346019995 3.243282096790054 L2.5662295330200005 3.2457235027899998 L2.575669637020021 3.26297610779001 L2.579413127019998 3.2828735677900482 L2.5792503670199745 3.3248250657900513 L2.582505575020016 3.34305423279001 L2.597154012020021 3.381872591790014 L2.600327841020012 3.4002645187900526 L2.609849325020016 3.43289798279001 L2.632310262020021 3.4701294277900416 L2.724107137020021 3.580114778790019 L2.733710002019998 3.588293489790047 L2.7478701580200005 3.594600455790001 L2.8912620850199824 3.713537630790043 L2.9286969810200185 3.7322957687900526 L3.0070661220200146 3.7609416017900372 L3.021226278020017 3.7636678387900275 L3.050279012020021 3.7692423837900293 L3.1193834560199685 3.7606427497900228 L3.195082314019978 3.742736211790046 L3.258629012020017 3.7137671267900174 L3.277655314020003 3.7094279297900385 L3.3010025500200095 3.744785443790036 L3.2979341830199838 3.81351355579001 L3.2685407310200185 3.8346720707900346 L3.252427450020016 3.840246614790047 L3.2400576580200005 3.853796419790015 L3.235093466020012 3.8707641927900482 L3.240952841020012 3.8865112637900125 L3.2646344810200185 3.920324739790047 L3.278143596019995 3.9328166017900372 L3.299139689020003 3.938350455790001 L3.341538778020017 3.9306193367900306 L3.4172223720200146 3.8920451177900333 L3.4532738040199797 3.883093294790015 L3.470445028020017 3.8767456387900125 L3.4861514080200005 3.861283398790036 L3.493801148019977 3.8423218107900112 L3.4872907310200185 3.825109896790039 L3.470200887020021 3.8085083337900443 L3.467515341020012 3.799922721790054 L3.4972191170199745 3.780065950790018 L3.5089378670199745 3.7869018887900125 L3.5216331790199797 3.7886922527899998 L3.5324567470200146 3.78446048279001 L3.5388857830200005 3.7732300137900125 L3.545640341020012 3.7732300137900125 L3.5616722420199745 3.7821818367900306 L3.603827189020003 3.7984985677900482 L3.62132393402002 3.8080200527900416 L3.6345889080200005 3.8218953777899998 L3.6691754970200146 3.8667358727900165 L3.672593466020012 3.87633873779005 L3.6776317650199895 3.9263910397900332 L3.6509399410199785 3.962215157790027 L3.67179401102002 4.023393401790045 L3.6630842620199724 4.052282994790019 L3.692124716020012 4.044836458790044 L3.7119001060200185 4.062414583790044 L3.7316754970200146 4.084590690790051 L3.7548688560200185 4.095373567790048 L3.778794637020021 4.1000529297900385 L3.8300641690200132 4.122106966790014 L3.8547223720200146 4.129553255790043 L3.848374716020012 4.1343139977900165 L3.845445028020017 4.135534700790018 L3.8410504970200146 4.13634850279 L3.742905966020012 4.109574414790032 L3.694647502019998 4.104935742790033 L3.6828473720200146 4.13634850279 L3.6925316170199745 4.148311393790053 L3.708726278020017 4.15946048279001 L3.724351278020017 4.173742708790044 L3.731187216020012 4.195349153790019 L3.740545939020003 4.205277539790032 L3.762518596019995 4.205196159790049 L3.806382528020017 4.198441601790037 L3.8488629970200146 4.206254101790037 L3.933254273019977 4.23258059979004 L3.9777692470200146 4.23258059979004 L3.9941266690200132 4.22281497479004 L3.988592814020003 4.209346549790055 L3.9716657310200185 4.19742434979004 L3.9537620850199824 4.192256705790001 L3.9423688560200185 4.185664909790049 L3.928452841020012 4.171097851790037 L3.912909221019995 4.15750735779001 L4.003404012020021 4.211706575790018 L4.05882393402002 4.23367923279001 L4.0655784920199745 4.235022005790043 L4.066122390020078 4.235138554790041 Z M3.552476278020017 3.5746623047900385 L3.572007528020017 3.584753450790018 L3.592108439020003 3.5924845707900346 L3.6095238040199797 3.601599153790019 L3.62132393402002 3.615637239790047 L3.554999064020003 3.6666219407900513 L3.5383161220200146 3.67321373779005 L3.532049846019995 3.6776489587900443 L3.5274925540199797 3.685949739790047 L3.5177269290199797 3.7186238937900526 L3.511460653020017 3.7186238937900526 L3.5146344810200185 3.692175325790018 L3.5177269290199797 3.683874544790015 L3.5021019290199797 3.688147005790043 L3.4894950030199903 3.719733535790013 L3.4715402040199956 3.742485069790021 L3.454719936019992 3.75811640079003 L3.4487962360200095 3.7762223597900544 L3.432066676020022 3.7620304327900413 L3.4317567580199944 3.744523634790042 L3.4379313800199975 3.7281460797900223 L3.420005236019997 3.7053030677900125 L3.403143596019995 3.6984009117900456 L3.387193075020016 3.686560091790014 L3.369940471019995 3.682043489790047 L3.351359785019988 3.697791804790043 L3.342932244019985 3.712667626790008 L3.3244302110199806 3.716201158790014 L3.301164385019981 3.7008861777900535 L3.2948017420199927 3.68569811679005 L3.2888144350199946 3.6581831507900375 L3.2893248320200223 3.6317956667900404 L3.3086033230199883 3.6036154677900214 L3.296490073020018 3.5626094697900186 L3.2970238040199797 3.5316121747900553 L3.3339704190200132 3.5200561857900112 L3.4152692470200146 3.5347046227900165 L3.4588076580200005 3.5370239587900443 L3.490952841020012 3.5200561857900112 L3.5207379970200146 3.5502482427900333 L3.552476278020017 3.5746623047900385 Z M3.525132528020017 2.7596802087900443 L3.534847835019982 2.7533535507900098 L3.548163127019998 2.7445841797900385 L3.66233955902002 2.74539798279001 L3.6718524420199765 2.7568581847900333 L3.6568999870200196 2.7693831187900315 L3.6167189870200014 2.795401554790047 L3.5975091360199736 2.7920533047900022 L3.577622762020021 2.783850130790043 L3.544509373019971 2.770446451790022 L3.525132528020017 2.7596802087900443 Z M3.8268089600199824 2.642980989790047 L3.8358592890199725 2.6459880867900125 L3.841538778020017 2.6534790367900456 L3.8658060980199958 2.6740694227900264 L3.858045881019998 2.687670704790051 L3.7606677180199677 2.7216438817900013 L3.71010702801997 2.747077159790038 L3.691756421019968 2.753072590790012 L3.6833169850200216 2.735938101790012 L3.697165988019983 2.722476197790016 L3.7136972330199933 2.7094864997900032 L3.7316571760199873 2.687771600790043 L3.7341303030200175 2.6739310907900204 L3.7332624910199934 2.667562510790006 L3.734035523019977 2.6583618497900403 L3.741958672019998 2.654582117790042 L3.7441266690200132 2.6641805347900487 L3.7591993620199924 2.6723440657900284 L3.783121168019968 2.6687188597900473 L3.7853140600200073 2.6463064937900214 L3.7785123540199743 2.634748504790039 L3.786262899019996 2.6211419077900047 L3.798135166019997 2.6121742837900257 L3.8062752830199793 2.6013976517900375 L3.81528065401998 2.590541447790045 L3.831773153020017 2.598506705790001 L3.860494763020008 2.602185281790028 L3.865181770019981 2.61107489979004 L3.8390973720200146 2.6186889977900165 L3.835435262020021 2.6246297527899998 L3.8292503670199745 2.6310180997900403 L3.8268089600199824 2.642980989790047 Z" fill="black" stroke="black" stroke-width="0.5" vector-effect="non-scaling-stroke"/></svg>