<svg xmlns="http://www.w3.org/2000/svg" viewBox="0 0 14.49227330225736 7.803551587439998"><path d="M8.97408623445098 7.2491942107199705 L8.949798311450891 7.218395055720016 L8.936155732450985 7.195812455719967 L8.933571911450898 7.169095739720014 L8.937499319450936 7.163101273719981 L8.951141898450956 7.152197546720011 L8.954139131450987 7.145221228720011 L8.953415661450904 7.127496211720008 L8.954139131450987 7.121915157720004 L8.960753714450973 7.098195675719957 L8.960547008450945 7.08832547671998 L8.954139131450987 7.0809874227199785 L8.960547008450945 7.0585598507199805 L8.959926891450962 7.042333451719976 L8.956309541450892 7.027295609719978 L8.951762015450939 6.991483842720051 L8.94545749045092 6.9738105027199495 L8.936569144450985 6.95701566172 L8.926233857450896 6.943166377720026 L8.91021416445092 6.927198360719991 L8.892747529450915 6.914124222719927 L8.872490367450908 6.905339229719949 L8.847995739450951 6.902186967719992 L8.834249808450991 6.897174353720011 L8.845825328450942 6.885340450720015 L8.866185843450992 6.871749548720011 L8.878381481450916 6.861207556719968 L8.879001598450955 6.851854122720006 L8.875487601450928 6.831751990719944 L8.878381481450916 6.819659705719978 L8.884686006450991 6.814905473719968 L8.89409111645098 6.811908239719976 L8.902566051450961 6.806895626719985 L8.906390108450992 6.796095251719954 L8.90680351945089 6.7869485237199925 L8.908560517450908 6.777130001719918 L8.911661104450914 6.768189978719995 L8.916622041450992 6.761317012720021 L8.92716403345095 6.750154902719977 L8.929127737450884 6.744005407720017 L8.927474092450908 6.738889440720023 L8.924890270450945 6.7087620817200175 L8.909904104450973 6.646595333719951 L8.895331351450992 6.627061641719941 L8.892024060450993 6.617346471720005 L8.89161064745089 6.594143754720001 L8.889853649450927 6.583705114719955 L8.885822887450914 6.573214799720013 L8.881688773450904 6.567323685720005 L8.875487601450928 6.561277542719957 L8.867529430450944 6.556109899720049 L8.857917614450926 6.552750932719938 L8.860604789450932 6.545826289719976 L8.862155081450979 6.543035762720002 L8.86535902145097 6.539056677720033 L8.851096325450968 6.510427933719946 L8.856884085450943 6.461386999720027 L8.878381481450916 6.380875117719945 L8.872387015450968 6.365888952719963 L8.870733369450889 6.3538483437199105 L8.875074190450917 6.3432546757200114 L8.881275362450893 6.335658239719955 L8.886649710450925 6.326046423720051 L8.890577119450896 6.314884314719912 L8.892024060450993 6.302585323719974 L8.890370413450924 6.290027950719953 L8.886649710450925 6.280777869719948 L8.878381481450916 6.265378291719976 L8.870216605450892 6.231375199720027 L8.829598929450938 6.226931026719917 L8.779886201450907 6.2199030317200155 L8.677360160450988 6.221349971720009 L8.558814423450954 6.223055293719973 L8.34549411145089 6.226207555720016 L8.205657685450902 6.228222937719984 L8.046700980450922 6.230548376719987 L8.013628063450952 6.215717240719961 L7.99306084345092 6.186623409719978 L7.964018688450963 6.12528348371999 L7.942934704450934 6.097946651719987 L7.836998018450927 5.9942837287200135 L7.79079928745098 5.937672196719923 L7.753282197450986 5.873670935719936 L7.723619925450933 5.841889929720004 L7.685999482450896 5.8288674677199666 L7.603937308450909 5.817136918719974 L7.567247041450926 5.799876989719998 L7.501617972450916 5.755486934720018 L7.357647431450985 5.71802152172004 L7.347002086450928 5.717453080719999 L7.337596976450939 5.721432165719968 L7.325918102450899 5.736185786719979 L7.318890107450969 5.74220609172 L7.309381644450994 5.7438080607199495 L7.2959457714509455 5.735358964719957 L7.289021129450944 5.71879666771995 L7.284266897450962 5.699883092719922 L7.277135550450922 5.684302648719985 L7.260392386450988 5.6699107627199865 L7.2456129264509315 5.66784370572001 L7.213883597450959 5.677868933720028 L7.205615368450893 5.677481360719931 L7.197140433450912 5.674096554720002 L7.189078909450885 5.668928910719991 L7.1825676794509405 5.663554561719941 L7.166134573450975 5.660092240719912 L7.163240693450987 5.652935054719968 L7.166237926450904 5.644692663720015 L7.167478160450926 5.637974727719985 L7.16892510145091 5.635235876719953 L7.172542451450923 5.63185106971995 L7.173782686450934 5.62699348572 L7.167891572450927 5.620249711719971 L7.149081351450903 5.603506547719924 L7.086449515450923 5.562010371719971 L7.074770642450929 5.548264441720029 L7.055133597450904 5.479328080720002 L7.05275648145097 5.458399125720014 L7.056063773450958 5.44726285371997 L7.062264944450945 5.43741849372001 L7.066399060450934 5.428478470719973 L7.0636085324508855 5.420184403720022 L7.057614065450892 5.409254837719949 L7.060714652450898 5.38705981071994 L7.056063773450958 5.373856482719937 L7.0367367874508915 5.352565791719947 L7.01668633145097 5.337347083720012 L6.993638642450904 5.332515335719997 L6.937518037450971 5.3529792037199755 L6.916123994450928 5.351377233719923 L6.782695446450887 5.274947791719974 L6.750035940450928 5.248076045719962 L6.738977184450917 5.243166785720014 L6.709935029450904 5.239678625719968 L6.696602510450887 5.236242142720023 L6.68254652045097 5.228180619719957 L6.643065726450928 5.213762894720027 L6.565447724450976 5.199603552719999 L6.505503063450888 5.173041866719963 L6.500025361450994 5.179966508719964 L6.497544893450893 5.194849320719989 L6.484212373450887 5.208052648719992 L6.47367038145093 5.210894852719953 L6.46343844845093 5.211540807719935 L6.44214775745094 5.208285192719963 L6.430778942450971 5.208311031719951 L6.42364759545093 5.212910233719988 L6.417343069450922 5.218878861720022 L6.408661429450959 5.223064653719952 L6.386130504450946 5.224976680719983 L6.3634962274509945 5.222289505719949 L6.320294730450954 5.208181839720005 L6.270065237450993 5.17283516072002 L6.253735485450946 5.166117223720001 L6.234201793450964 5.167305782720014 L6.2186988644509285 5.1762199667200335 L6.206709932450977 5.19030179471995 L6.1975115274509704 5.207019119720009 L6.184075654450922 5.223581416719988 L6.166712373450892 5.230195999720003 L6.076175263450935 5.237327347720033 L6.062222627450936 5.234381790719944 L6.035867646450882 5.219395625719962 L6.023258597450948 5.214641394719969 L5.945330537450971 5.205365474719947 L5.928277315450956 5.2002236697199535 L5.911224092450894 5.188958207719999 L5.906366507450983 5.177589392720002 L5.9062631554509295 5.163740108719942 L5.9036793324509205 5.145498327719999 L5.900165335450893 5.138056921719972 L5.8843523474509 5.114647497720007 L5.883525524450889 5.1069218717200116 L5.885695934450965 5.09976468472005 L5.885592581450922 5.092840043719981 L5.877944469450952 5.086070430719936 L5.861097952450976 5.079507523719947 L5.844974906450901 5.076561967720046 L5.811281872450948 5.074262365719939 L5.745342744450923 5.06198921272 L5.588556448450916 5.002354610719983 L5.553933239450899 4.994964880719984 L5.537706839450905 4.9959467327199505 L5.520860322450929 4.999047318719995 L5.5044272164509636 5.000055008719961 L5.489441052450914 4.995119909719939 L5.483549938450906 4.988918738719953 L5.474454886450943 4.973803381719939 L5.467426892450888 4.968299841720047 L5.459158662450889 4.966672034719984 L5.44282890945091 4.969695105720014 L5.439237643450966 4.969421381720004 L5.434353974450929 4.969049150719947 L5.421538220450955 4.96261543472 L5.409032523450961 4.953985469720045 L5.395596650450912 4.9474225627199715 L5.380507132450887 4.947215857720018 L5.365520967450905 4.950264766720046 L5.316738415450985 4.951091589719972 L5.265785452450942 4.939464391720016 L5.2490422884508945 4.93770739371994 L5.232092418450989 4.939851965720017 L5.216486136450911 4.943624345719947 L5.200673147450928 4.9453813437200225 L5.056805960450916 4.900164465719946 L5.0314845084509585 4.873576940720007 L5.051224905450923 4.820763626720044 L5.0537053744508995 4.804123816720029 L5.048744436450946 4.786631343719968 L5.027350394450949 4.762575964719936 L5.015774873450894 4.732681148719941 L4.983012015450882 4.704750036719936 L4.9713331414508986 4.690797399720033 L4.9532463904509 4.656174189720026 L4.930198701450948 4.62532335971995 L4.925961234450895 4.616538366719972 L4.925547822450895 4.6090969607199455 L4.92275729545095 4.602611568719972 L4.9116985394509385 4.596952998719935 L4.890304495450906 4.591216914719986 L4.879349092450937 4.590131710719994 L4.868393688450922 4.591216914719986 L4.85103040645096 4.597883174719989 L4.842324732450962 4.605328818720018 L4.8392481814509125 4.607960079719938 L4.819094372450948 4.635581132720041 L4.807208792450936 4.645683874719971 L4.774859345450935 4.66263374471999 L4.760906709450936 4.672452266719951 L4.742819958450937 4.68041043772002 L4.722459443450887 4.6778782917200274 L4.6827719434509305 4.664959184719926 L4.532290172450942 4.642738317719996 L4.516787243450906 4.638733394719999 L4.4825774454509 4.623204626719975 L4.443406709450883 4.598089880720046 L4.43379489245099 4.596642940719967 L4.385942516450953 4.603076656719914 L4.305740693450971 4.630826900719946 L4.289617647450896 4.633126501719978 L4.276181774450961 4.628191402720013 L4.263572724450924 4.620310746719987 L4.249620088450925 4.6135928107199575 L4.232566865450977 4.610285518719969 L4.140892874450984 4.612610958719991 L4.104512666450901 4.623566361719988 L4.070819632450949 4.642169876720011 L4.007774385450901 4.688265254719944 L4.001469860450882 4.7019078337199645 L4.028651663450901 4.7265574917199515 L4.033405895450883 4.7439207727199815 L4.0298918974509235 4.762472611720007 L4.019866670450895 4.778233923720002 L4.004157034450955 4.787458166720008 L3.9184775104509555 4.798852819720004 L3.902251110450962 4.797044144719912 L3.8711511184509533 4.786900900719992 L3.8662843134508904 4.785313594720016 L3.8258733434509082 4.781231156719919 L3.6828329794509074 4.801798376720008 L3.667433402450925 4.80117825971994 L3.6534807654509365 4.797612585719953 L3.6262989624509743 4.7862437707199845 L3.6094524454508843 4.782109655719957 L3.558499482450955 4.781696244719946 L3.5438233754508843 4.777768835719975 L3.5047559934509565 4.75988879071992 L3.442847627450945 4.749088415719974 L3.4130820024509063 4.749036739719976 L3.2153679724509203 4.781851274719976 L3.151805960450943 4.784021683719978 L3.127518037450969 4.791798987719979 L3.0532073274509486 4.837196732719924 L3.0325367544509305 4.845568314720005 L3.0118661814509124 4.858900834720011 L3.000497367450933 4.8601410687199476 L2.9549187534509684 4.872285030719958 L2.933214652450957 4.881896846719975 L2.92411959945089 4.897709835719958 L2.911820608450924 4.90153389072001 L2.854046357450912 4.910215531719963 L2.834719371450902 4.915383174719956 L2.826141084450981 4.922979610720013 L2.8151856804509663 4.941221391719985 L2.80795098045094 4.948895341719982 L2.797202282450897 4.952150956719954 L2.7831462924509793 4.953985469720045 L2.771054007450985 4.959256465719996 L2.7657830114509494 4.972847367719972 L2.7579281944509404 4.983286007720018 L2.7112126994509396 5.024601314719952 L2.5610409864509194 5.106560135720009 L2.531068655450909 5.132424190719952 L2.518046195450964 5.149064001719957 L2.5125684934509565 5.16487698971995 L2.5081243194509426 5.184772416719973 L2.49169121445091 5.215829952719993 L2.492724743450893 5.236888098720023 L2.4962387414509095 5.242339961719985 L2.5080209664509 5.250763219719978 L2.5125684934509565 5.257351965719984 L2.5138087274509786 5.2643541217199825 L2.5125684934509565 5.2884095007200145 L2.509467906450894 5.30264635871999 L2.495825329450909 5.327761104720004 L2.492724743450893 5.343057328719972 L2.4880738644508966 5.35024035272 L2.4627524124509392 5.367138545720003 L2.415210094450927 5.391994909719962 L2.402704398450922 5.401400020719912 L2.382964001450958 5.40770454571993 L2.358366019450969 5.428788529719959 L2.343379854450987 5.434421260719979 L2.3212623404509856 5.434679643719967 L2.260387503450957 5.424085973719976 L2.2377532264508915 5.4268765017199385 L2.068564587450922 5.505011266719983 L2.0329078484509324 5.514416377720018 L2.0107903354509205 5.514468054720034 L1.9877426474509576 5.51203926171997 L1.9659351924509139 5.512866085719999 L1.947435029450915 5.522736283719986 L1.9289348664509731 5.536947302719945 L1.9108481154509747 5.543096797720018 L1.8910043664509004 5.5439494597200465 L1.6181580854509008 5.524933543720003 L1.6181580854509008 5.524689402720007 L1.6040793094509382 5.399282501719988 L1.5942323044508981 5.359568959719972 L1.575514856450937 5.319896108719995 L1.569655481450937 5.300405548719986 L1.5650168094509382 5.256378855720008 L1.5292908984508955 5.122833933719953 L1.5115500124508827 4.835724558719953 L1.514723840450884 4.819285756719971 L1.528395715450884 4.786164011719954 L1.5385682414509034 4.737417267719984 L1.5633078254509343 4.661204702719992 L1.5594015754509343 4.633983022719967 L1.5708761844509382 4.602610952719992 L1.5725851684508854 4.559682892719984 L1.567458215450884 4.486277944719966 L1.5659119914509034 4.478343373720001 L1.5569601684508854 4.464386668720003 L1.5525656374508827 4.455190704719989 L1.5499614704509241 4.445384389719997 L1.5478455854509008 4.424998647719967 L1.5327088664509034 4.364126251719988 L1.5314067834509189 4.342234975719968 L1.5405213664509034 4.261546498720001 L1.551833215450884 4.221385366719964 L1.567458215450884 4.188304311719996 L1.6142518354509008 4.129995392719984 L1.6313416794508981 4.094025340720002 L1.6214132934508854 4.06415880371997 L1.6363872524509162 4.054637319719966 L1.6441997524509162 4.036652293720003 L1.649977747450933 4.016388621720004 L1.6590109504509343 3.9999498197199657 L1.6699972784509356 3.985789663719963 L1.6819601684508854 3.9659328927199837 L1.6871685024509162 3.9516913557200084 L1.677321497450933 3.954295522719967 L1.6757752734508955 3.9334214987200014 L1.6624289184508854 3.9231675927199987 L1.6275981894509215 3.913361277720007 L1.6272726684508854 3.911652293720003 L1.6232036584509189 3.90290392072 L1.6214132934508854 3.9003404447199657 L1.6166932414509034 3.8980211087199947 L1.6041606894509215 3.8948472807199934 L1.6010682414509034 3.893504506719971 L1.5961854294508981 3.8871568507199683 L1.5916281374508827 3.8791002097199723 L1.5884543094509382 3.8695787257199683 L1.5867453254509343 3.8587144677199987 L1.5753520954509241 3.839305288719963 L1.5641216274509162 3.8324693507199683 L1.5252218874508827 3.8314114077199903 L1.501051965450884 3.8260403147199824 L1.491774622450933 3.825226511719954 L1.4812765754509343 3.8285631007199683 L1.4765565234508955 3.8345852357199917 L1.4716737104509008 3.8367011217200044 L1.4607687624508827 3.8283189597199723 L1.452223840450884 3.8132636217200044 L1.4324484504509343 3.7663072417199643 L1.4262635544508981 3.7562974757199683 L1.4165793094509382 3.7633775537199696 L1.4195903774509162 3.7791246237200014 L1.4285422004509343 3.7956041167199643 L1.4365174604509008 3.8047593897199974 L1.4365174604509008 3.8109849757199683 L1.4204041794508981 3.8042711087199947 L1.4059185024509162 3.789175079719989 L1.3990825644509215 3.770579702719992 L1.409743372450933 3.7434800927199987 L1.401686731450937 3.7252102357199917 L1.4024191534509356 3.7153632307200084 L1.4083599084509189 3.7090562647199974 L1.4365174604509008 3.6948961087199947 L1.4068136844509382 3.692576772719967 L1.4065695434508854 3.6714586087199947 L1.429030481450937 3.626007761719954 L1.4083599084509189 3.6349595847199723 L1.3806906374508827 3.6514797677199837 L1.3644145954509241 3.6673082177199987 L1.378493372450933 3.67438829572 L1.3881776164509034 3.784251577719992 L1.376540247450933 3.7691148587199947 L1.3517192834509189 3.7437242337199947 L1.3404074344509382 3.7290351057200084 L1.3357687624508827 3.711050079719989 L1.3346294394509215 3.690949168720003 L1.3277935024509162 3.676056590720002 L1.3061463664509034 3.67438829572 L1.3113547004509343 3.6618150537199696 L1.3147726684508854 3.645783152720007 L1.3129823044508981 3.631907827719992 L1.3027283984508955 3.626007761719954 L1.2971945434508854 3.6326402487200014 L1.2810812624508827 3.6642564597199723 L1.2720480594509382 3.67438829572 L1.2683859504509343 3.6509914857199917 L1.2731060024509162 3.621369090720002 L1.292555872450933 3.5645250147199974 L1.265212122450933 3.585032827719992 L1.2817323044508981 3.5509752097199723 L1.2857199344509382 3.537221954719989 L1.2789653774509162 3.5398261217200044 L1.2583761844509382 3.544017202719992 L1.2693625124508827 3.522532827719992 L1.2664328254509343 3.5143541167199643 L1.2542257934508854 3.5193589987200014 L1.237868372450933 3.537221954719989 L1.2305441534509356 3.5298163557200084 L1.2192323044508981 3.5349839987200014 L1.1758566534509356 3.537221954719989 L1.1568950644509215 3.549632436719996 L1.147780481450937 3.5489000147199974 L1.1485129034509356 3.5298163557200084 L1.141676965450884 3.5298163557200084 L1.134108606450937 3.5398261217200044 L1.1232036584509189 3.549632436719996 L1.1095317834509189 3.556427683719953 L1.0938254034509356 3.5570787257199683 L1.098708215450884 3.5506496897199824 L1.1075786584509189 3.5298163557200084 L1.1005799604509008 3.5294908347199723 L1.0864198044508981 3.5305894677199987 L1.0795838664509034 3.5298163557200084 L1.0782004034509356 3.531037058719953 L1.069899622450933 3.536082631719971 L1.065993372450933 3.537221954719989 L1.0629823044508981 3.5349839987200014 L1.055983606450937 3.5254625147199974 L1.052321497450933 3.523550079719989 L1.0390565234508955 3.5271714987200014 L1.0135031374508827 3.5369371237200014 L0.9977153774509162 3.537221954719989 L0.9977153774509162 3.5298163557200084 L1.0039002734508955 3.522532827719992 L1.001296106450937 3.518626577719992 L0.9926698044508981 3.517039663719963 L0.9805441534509356 3.5167141427199837 L0.9690695434508854 3.514842397719967 L0.9539328254509343 3.5058905747200058 L0.9430278774509162 3.5030422677199837 L0.922926965450884 3.5038560697199657 L0.874587122450933 3.5152086087199947 L0.8543234504509343 3.523550079719989 L0.8902935024509162 3.5413316557199934 L0.9021750124508827 3.544017202719992 L0.8839458454509241 3.5664374497200058 L0.8774354294508981 3.579376902720007 L0.8746685024509162 3.5955308737200014 L0.876540247450933 3.612254506719971 L0.8885031374508827 3.6538804837199947 L0.8858989704509241 3.6783352357199917 L0.8762961064509369 3.6902167467200044 L0.8658794394509215 3.6881008607199917 L0.8413026164509034 3.5462551577199903 L0.8349549604509008 3.534210886719954 L0.7931255334509189 3.4844468897199974 L0.7896261844509382 3.4672349757199683 L0.7991476684508854 3.44782579572 L0.8084250124508827 3.4383450017199877 L0.8372336064509369 3.4171047677199837 L0.8418722784509356 3.407746043720003 L0.845290247450933 3.3950507307200084 L0.8497661584509189 3.383738881719971 L0.8699484504509343 3.3709621897199824 L0.8826437624508827 3.3520006007199683 L0.919020715450884 3.2742011217200044 L0.9461203254509343 3.231395131719971 L0.9803000124508827 3.2028306787199696 L1.0181418094509382 3.2088528147199824 L0.997145715450884 3.217845327719992 L0.9817648564509369 3.2284654447199657 L0.9529562624508827 3.2597968247200058 L0.948805872450933 3.2680162257199683 L0.9396099084509189 3.296987579719989 L0.9368429814509369 3.3001614077199903 L0.9156841274509162 3.3174953927199837 L0.9213807414509034 3.3426418767199877 L0.9584901164509034 3.346507436719996 L1.067946497450933 3.329621043720003 L1.1311789184508854 3.3317369287199696 L1.1511984504509343 3.337108022719967 L1.163161340450884 3.349884715720002 L1.1719504034509356 3.365346954719989 L1.182692590450884 3.3789781397199974 L1.196608606450937 3.3869127097199723 L1.2135356894509215 3.39118517072 L1.254958215450884 3.3931789857199917 L1.2722922004509343 3.3999742337199947 L1.2815695434508854 3.399852163719963 L1.2857199344509382 3.3897610177199837 L1.2849875124508827 3.379710561719996 L1.2818136844509382 3.3724270327199903 L1.2757101684508854 3.3678697417199643 L1.265212122450933 3.3659166167199643 L1.2781515754509343 3.34040392072 L1.2905213664509034 3.3438218897199974 L1.3038677204509241 3.35993517072 L1.3198182414509034 3.3727525537199696 L1.3388612104509008 3.3723863427199987 L1.3679953254509343 3.3503729967200044 L1.3881776164509034 3.345490183719953 L1.3972922004509343 3.34821642072 L1.4204041794508981 3.358429636719954 L1.429030481450937 3.3590806787199696 L1.4405864704509241 3.3498033347199723 L1.4375754034509356 3.3397121897199824 L1.4269145954509241 3.33063829572 L1.4160096484508955 3.3242906397199974 L1.3937114704509241 3.3172512517199877 L1.3515565234508955 3.3094387517199877 L1.333571497450933 3.296987579719989 L1.3496847784509356 3.2927964987200014 L1.3590435024509162 3.2855943507199683 L1.3599386844509382 3.2747707827199903 L1.350905481450937 3.2597968247200058 L1.337477747450933 3.2493801577199903 L1.3240500124508827 3.2471828927199837 L1.2760356894509215 3.2512925927199987 L1.2726177204509241 3.245067006719971 L1.2720480594509382 3.2252916167199643 L1.268874231450937 3.2150377097199723 L1.2608989704509241 3.2031968897199974 L1.2500754034509356 3.192820913719963 L1.237868372450933 3.1872056787199696 L1.2441346484508955 3.2213853667199643 L1.2441346484508955 3.235545522719967 L1.237868372450933 3.235545522719967 L1.2014914184508854 3.1912339987200014 L1.1754497524509162 3.171336538719963 L1.1485129034509356 3.1666164857199917 L1.1521750124508827 3.17243517072 L1.1621847784509356 3.194611277720007 L1.1560812624508827 3.1910305487199864 L1.1402935024509162 3.1843573717200044 L1.1342713664509034 3.1809800927199987 L1.1348410284509356 3.1999823717200044 L1.153639856450937 3.219106720719985 L1.155348840450884 3.235545522719967 L1.1211691534509356 3.217723256719971 L1.1172629034509356 3.181997345719985 L1.1342713664509034 3.1051744287199696 L1.122633997450933 3.110301381719971 L1.1101828254509343 3.11188829572 L1.0978130334509189 3.110179311719996 L1.0864198044508981 3.1051744287199696 L1.0864198044508981 3.0984198717200044 L1.1196229294508981 3.0856431787199696 L1.1719504034509356 3.0290025537199696 L1.2036886844509382 3.0021470847199723 L1.1982362104509008 2.997020131719971 L1.192702356450937 2.9866441557199934 L1.1894471484508955 2.9822903147199824 L1.1982362104509008 2.9783433737200014 L1.2071066534509356 2.9761461087199947 L1.2271261844509382 2.974884715720002 L1.241530481450937 2.9713853667199643 L1.2413677204509241 2.963939077719992 L1.2351828254509343 2.9569810697199657 L1.2305441534509356 2.9550279447199657 L1.2416932414509034 2.942820913719963 L1.257155481450937 2.9314683737200014 L1.2714783984508955 2.9181627097199723 L1.278883997450933 2.8997707827199903 L1.2735129034509356 2.902130808719953 L1.270827356450937 2.9028632307200084 L1.268630090450884 2.903758413719963 L1.265212122450933 2.906606720719985 L1.2480408984508955 2.893382436719996 L1.2332297004509343 2.890737579719989 L1.1962830854509008 2.892934845719985 L1.1793560024509162 2.888458933719953 L1.1564067834509189 2.8721828927199837 L1.141676965450884 2.865021433719953 L1.1240174604509008 2.8611965647199824 L1.106520715450884 2.8609117337199947 L1.0896750124508827 2.8646145327199903 L1.073317590450884 2.8724270327199903 L1.0312440234508955 2.909007436719996 L1.014723840450884 2.9140936997200058 L1.0100851684508854 2.9162095847199723 L0.9944601684508854 2.9256089987200014 L0.9871359504509343 2.9276841947199657 L0.9793234504509343 2.9256089987200014 L0.9615011844509382 2.9162095847199723 L0.9529562624508827 2.9140936997200058 L0.9419699344509382 2.909943308719953 L0.8767843874508827 2.8702297677199837 L0.8596945434508854 2.8753160307199934 L0.844801965450884 2.8866685697199657 L0.8301535284509356 2.892934845719985 L0.7579692834509189 2.8997707827199903 L0.7636658984508955 2.8906561997200058 L0.7695252734508955 2.8836575017199877 L0.7768494914509034 2.877879506719971 L0.7861268354509008 2.8724270327199903 L0.7168722784509356 2.889679636719954 L0.679274622450933 2.893382436719996 L0.6481060024509162 2.8860989077199903 L0.631911340450884 2.856517202719992 L0.6179953254509343 2.8460191557199934 L0.6004172004509343 2.858836538719963 L0.6002544394509215 2.869415965720002 L0.6074972784509356 2.8827623197199657 L0.6243429814509369 2.903148061719996 L0.628005090450884 2.915110952719992 L0.6345968874508827 2.971751577719992 L0.6404562624508827 2.9800930487199864 L0.6689393354509008 3.0094713037199696 L0.679274622450933 3.0158189597199723 L0.7169536584509189 3.070425079719989 L0.7481222784509356 3.093048777720007 L0.7579692834509189 3.0984198717200044 L0.7579692834509189 3.1051744287199696 L0.7102804814509369 3.0847479967200044 L0.7237895954509241 3.09235704572 L0.7512961064509369 3.1194566557199934 L0.7444601684508854 3.1256822417199643 L0.712477747450933 3.101349558719953 L0.6992941534509356 3.0874742337199947 L0.6707297004509343 3.0347398587199947 L0.6570578254509343 3.0211900537199696 L0.6215760544508981 3.0093492337199947 L0.6096945434508854 2.993113881719971 L0.6028586064509369 2.972199168720003 L0.597243372450933 2.9334621897199824 L0.5885356894509215 2.922801381719971 L0.4922629034509356 2.8633531397199974 L0.4576763144509215 2.835724558719953 L0.44286511645090343 2.8140774237199864 L0.4505148564509369 2.770701772719967 L0.45816459545092414 2.7466132307200084 L0.46638399745093295 2.731883413719963 L0.4727316534509356 2.713898386719954 L0.46247774745093295 2.6951809397199824 L0.4353781374508827 2.667023386719954 L0.44782930945093824 2.6581529447199657 L0.4433533984508955 2.6483059397199824 L0.42219454345088536 2.632274038719963 L0.40339571545088404 2.5938218897199974 L0.40640678345091885 2.5552883607199917 L0.44099337245093295 2.3831285307199934 L0.45466524745093295 2.3500474757199683 L0.47688204345088536 2.31696642072 L0.5369406374508827 2.253123647719967 L0.5675395954509241 2.2095852357199917 L0.5725851684508854 2.1735338037199696 L0.5636333454509241 2.1676744287199696 L0.5375916794508981 2.1627916167199643 L0.5320578254509343 2.1561998197199657 L0.534255090450884 2.14704454572 L0.5419862104509008 2.1286119287199696 L0.5416606894509215 2.1251939597199723 L0.5369406374508827 2.122142202719992 L0.5496359504509343 2.116038686719996 L0.565993372450933 2.1111965647199824 L0.5725851684508854 2.112132436719996 L0.5747824344509382 2.102610952719992 L0.5732362104509008 2.091909454719989 L0.5696554814509369 2.08259142072 L0.5664002734508955 2.077342397719967 L0.5899191534509356 2.0022691557199934 L0.6277609504509343 1.9265448717200044 L0.6357362104509008 1.892039663719963 L0.6214132934508854 1.8227037257199683 L0.6209250124508827 1.7825425927199987 L0.6316672004509343 1.7886461087199947 L0.655837122450933 1.7989000147199974 L0.665602747450933 1.8067125147199974 L0.6699158984508955 1.8183091947199657 L0.6674744914509034 1.8299058737200014 L0.663161340450884 1.8411770327199903 L0.6625916794508981 1.8514309397199824 L0.6728455854509008 1.8706773587199947 L0.7164653774509162 1.912913686719996 L0.7242778774509162 1.9297593897199974 L0.7361593874508827 1.9678860177199837 L0.7444601684508854 1.9817613427199987 L0.776442590450884 1.9987291167199643 L0.778883997450933 2.0022691557199934 L0.8041932414509034 2.00251329572 L0.8157492314509369 2.0006008607199917 L0.8263286584509189 1.9954332177199987 L0.8107036584509189 2.0093899237199864 L0.7862895954509241 2.01618517072 L0.769118372450933 2.023712840720002 L0.7752218874508827 2.0398261217200044 L0.7823833454509241 2.04548204572 L0.798415247450933 2.0552883607199917 L0.8064718874508827 2.063751902720007 L0.8086691534509356 2.0727851057200084 L0.8086691534509356 2.084096954719989 L0.8118429814509369 2.0937811997200058 L0.823317590450884 2.0978502097199723 L0.8676698044508981 2.100657827719992 L0.8867127734508955 2.0992336737199864 L0.9090109504509343 2.0916246237200014 L0.954176965450884 2.0551256007199683 L0.970290247450933 2.0506496897199824 L0.9537700644509215 2.077342397719967 L0.9492941534509356 2.092723256719971 L0.9604432414509034 2.0987453927199837 L1.0352316534509356 2.0916246237200014 L1.0439393354509008 2.086863881719971 L1.0455669394509215 2.075714793720003 L1.0455669394509215 2.0631008607199917 L1.0489035284509356 2.053782827719992 L1.0636333454509241 2.037913686719996 L1.0743755334509189 2.032501902720007 L1.0864198044508981 2.036408152720007 L1.087477747450933 2.0421047677199837 L1.0803976684508854 2.0606187647199974 L1.0795838664509034 2.0698961087199947 L1.0882101684508854 2.089386668720003 L1.103102747450933 2.104930288719963 L1.1227153774509162 2.1152655747200058 L1.1450949344509382 2.1189683737200014 L1.1513612104509008 2.1211656397199974 L1.1656841274509162 2.1308091947199657 L1.1758566534509356 2.1326402487200014 L1.1874940234508955 2.130646433719953 L1.1962830854509008 2.1268215647199824 L1.2099549604509008 2.1189683737200014 L1.2460877734508955 2.1060696107199917 L1.2597596484508955 2.0941881007199683 L1.265212122450933 2.073680288719963 L1.2635031374508827 2.0308742987199864 L1.267165247450933 2.014720327719992 L1.2918234504509343 1.9761054187200031 L1.2971945434508854 1.9743150537199696 L1.309889856450937 1.9743150537199696 L1.3191672004509343 1.9761461087199947 L1.3290955854509008 1.9806627097199723 L1.336989465450884 1.9864000147199974 L1.3404074344509382 1.991649038719963 L1.343337122450933 1.9956773587199947 L1.3572531374508827 1.9998277487200014 L1.3614035284509356 2.0022691557199934 L1.3618918094509382 2.008616811719996 L1.358962122450933 2.0147610177199837 L1.3553000124508827 2.0198472807199934 L1.3539979294508981 2.0227769677199987 L1.3595317834509189 2.0438137517199877 L1.3647401164509034 2.0514634917199643 L1.3750754034509356 2.056915965720002 L1.366530481450937 2.0710761217200044 L1.3611593874508827 2.0779527487200014 L1.3539979294508981 2.0841783347199723 L1.3653911584509189 2.1015123197199657 L1.3808533984508955 2.141795522719967 L1.395583215450884 2.1598619287199696 L1.405592981450937 2.1645819807200084 L1.415602747450933 2.1660468247200058 L1.4239035284509356 2.169383413719963 L1.429030481450937 2.1797593897199974 L1.4264263144509215 2.186961538719963 L1.4124289184508854 2.2086900537199696 L1.4091737104509008 2.217601186719996 L1.4254497524509162 2.2420152487200014 L1.463942590450884 2.2420152487200014 L1.5092713664509034 2.2350572417199643 L1.5670513144509215 2.2415269677199987 L1.583571497450933 2.229767527720007 L1.599196497450933 2.214630808719953 L1.642165247450933 2.1960761217200044 L1.6521750124508827 2.1940416167199643 L1.6622661584509189 2.195587840720002 L1.6897726684508854 2.2071031397199974 L1.7151632934508854 2.2098293767199877 L1.7349386844509382 2.204865183719953 L1.753493372450933 2.1977037257199683 L1.784743372450933 2.1916002097199723 L1.792555872450933 2.1854966947199657 L1.7976828254509343 2.1776028147199824 L1.7996359504509343 2.1698716947199657 L1.794020715450884 2.168773061719996 L1.7676535284509356 2.159210886719954 L1.7586203254509343 2.1524156397199974 L1.8164816534509356 2.1542466947199657 L1.8457785284509356 2.1508287257199683 L1.8754823044508981 2.1380113427199987 L1.936598840450884 2.1393541167199643 L1.9394471484508955 2.1419582827199903 L1.934889856450937 2.1483059397199824 L1.925124231450937 2.1723131007199683 L1.9219504034509356 2.1774400537199696 L1.9261007934508854 2.180613881719971 L1.9571066534509356 2.1911119287199696 L2.1079855594509382 2.1940416167199643 L2.088372929450898 2.1849270327199903 L2.0670513144509215 2.1797593897199974 L2.0795838664509034 2.1667792467200044 L2.119297408450919 2.1589667467200044 L2.1348410284509356 2.146271433719953 L2.0354757934508854 2.147492136719954 L2.022617720450924 2.1460679837199947 L2.014967981450937 2.1370347807199934 L2.0125265754509343 2.1155504057199934 L2.008294804450898 2.0976060697199657 L1.9894145954509241 2.0702623197199657 L1.9829855594509382 2.0440578927199837 L1.9732199344509382 2.0277818507199683 L1.9708599084509189 2.0193589987200014 L1.9727316534509356 2.012645131719971 L1.9763937624508827 2.0078436997200058 L1.9789979294508981 2.0027981267199877 L1.9776958454509241 1.9954332177199987 L1.9715109504509343 1.9935207827199903 L1.9615011844509382 1.9945787257199683 L1.952712122450933 1.9927069807200084 L1.9503520954509241 1.9817613427199987 L1.954421106450937 1.9770819807200084 L1.9619080854509008 1.9762681787199696 L1.9705343874508827 1.9763495587200097 L1.9776958454509241 1.9743150537199696 L2.0034119914509034 1.9516099757199683 L2.016921106450937 1.9437974757199683 L2.036126835450901 1.9407864077199903 L2.064935429450898 1.950633413719963 L2.1255636844509382 1.9878241687200031 L2.142246627450916 1.9879869287199696 L2.1702414184508854 2.0017401837200097 L2.173171106450937 2.0160631007199683 L2.1607199344509382 2.032054311719996 L2.142246627450916 2.0506496897199824 L2.179356002450916 2.057811147719967 L2.295078658450919 2.0409654447199657 L2.3287700644509215 2.0311998197199657 L2.3443136844509382 2.0289211737199864 L2.3619731894509215 2.0056871237200014 L2.403965377450916 1.9885972807199934 L2.413405481450937 1.9826972157200018 L2.4510031374508827 1.935008413719963 L2.4604432414509034 1.9192613427199987 L2.464430872450933 1.9026597807199934 L2.460606002450916 1.8860989077199903 L2.4512472784509356 1.872020131719971 L2.4264263144509215 1.8477281397199974 L2.3945252734508955 1.8084621897199824 L2.382399622450933 1.8030504057199934 L2.382399622450933 1.7968248197199657 L2.4049419394509215 1.79938829572 L2.428786340450884 1.8084214987200014 L2.471836470450924 1.8309231267199877 L2.465326054450898 1.8222154447199657 L2.4453879034509356 1.809845652720007 L2.4370057414509034 1.8030504057199934 L2.4282980594509382 1.7928371897199824 L2.4244731894509215 1.787221954719989 L2.422845585450901 1.7825425927199987 L2.424310429450898 1.7757066557199934 L2.428704960450901 1.769643829719989 L2.4336691534509356 1.7667141427199837 L2.4370057414509034 1.7695624497200058 L2.4204855594509382 1.75251329572 L2.3931418094509382 1.746450470719985 L2.363763554450898 1.743235952719992 L2.340814335450901 1.734731720719985 L2.339430872450933 1.7050279447199657 L2.304844283450919 1.6753648587199947 L2.104811731450937 1.5586656397199974 L2.0161886844509382 1.529409454719989 L1.9991802204509241 1.5202134917199643 L1.962477747450933 1.4917304187200031 L1.9158468874508827 1.471873647719967 L1.8951763144509215 1.460399038719963 L1.8904562624508827 1.4551500147199974 L1.8793885544508981 1.438304311719996 L1.8572531374508827 1.4134426577199903 L1.849196497450933 1.4079088037199696 L1.8130636844509382 1.4022121897199824 L1.7937765754509343 1.3928941557199934 L1.778395715450884 1.379710561719996 L1.7654562624508827 1.3648179837199947 L1.7457622524509162 1.3331203927199837 L1.7346945434508854 1.2982082827199903 L1.7303000124508827 1.2589016427199837 L1.7299744914509034 1.1724758607199917 L1.7241151164509034 1.136180288719963 L1.7129660284509356 1.1028550927199987 L1.696608606450937 1.0706285307199934 L1.6490011844509382 1.0093492337199947 L1.6412700644509215 0.9914862777200071 L1.6367127734508955 0.9834296367199542 L1.6261333454509241 0.9802558087200097 L1.6147401164509034 0.9783840647199824 L1.6072531374508827 0.9743964337200097 L1.6031841274509162 0.962352163719963 L1.6060324344509382 0.9530748197199657 L1.6113221484508955 0.9441636867199961 L1.614577356450937 0.9334214987200014 L1.6137635544508981 0.9270738427199987 L1.608473840450884 0.907176381719971 L1.6072531374508827 0.8955797027199921 L1.6192160284509356 0.8721422027199921 L1.6214132934508854 0.860789663719963 L1.620680872450933 0.8441881007199683 L1.6176698044508981 0.8242906397199974 L1.6113221484508955 0.8047593897199974 L1.6010682414509034 0.7888495587200097 L1.5699810024509162 0.7659410307199934 L1.5231060024509162 0.7432766427199837 L1.4723247524509162 0.7315578927199837 L1.429030481450937 0.741649038719963 L1.3862244914509034 0.7237453927199837 L1.0795838664509034 0.7621568507199683 L1.0209901164509034 0.7854315907200018 L1.0011333454509241 0.7888495587200097 L0.9241476684508854 0.7862453927199837 L0.868239465450884 0.7639879057199934 L0.8263286584509189 0.777700470719985 L0.7888937624508827 0.8031724757199683 L0.7648052204509241 0.8235582177199987 L0.6647075644509215 0.8833319807200084 L0.6414328254509343 0.9123033347199723 L0.5258729294508981 1.102814402720007 L0.5084575644509215 1.1228339337200097 L0.4939718874508827 1.13141954572 L0.48648490845091885 1.1421617337199947 L0.4781841274509162 1.166372345719985 L0.4736268354509008 1.1920884917199643 L0.47688204345088536 1.207143829719989 L0.4890890754509343 1.2046210437200031 L0.5200949344509382 1.1738593247200058 L0.5352316534509356 1.1662095847199723 L0.5849549604509008 1.1697903147199824 L0.6082297004509343 1.1779283347199723 L0.6209250124508827 1.193471954719989 L0.6197856894509215 1.2068996897199824 L0.6043234504509343 1.227366811719996 L0.6004172004509343 1.2381496897199824 L0.6015565234508955 1.2482408347199723 L0.6062765754509343 1.2678534657200018 L0.6072531374508827 1.2791653147199824 L0.6033468874508827 1.301707631719971 L0.5371033984508955 1.4302069807200084 L0.5320578254509343 1.4505113427199987 L0.5200949344509382 1.4789537257199683 L0.5178976684508854 1.4883531397199974 L0.5198507934508854 1.498159454719989 L0.5320578254509343 1.5230617987199864 L0.5416606894509215 1.5647691557199934 L0.548415247450933 1.62751329572 L0.555739465450884 1.6441148587199947 L0.6083924604509008 1.727488881719971 L0.6140890754509343 1.7449856267199877 L0.6087179814509369 1.7656968897199974 L0.587477747450933 1.7951972157200018 L0.5867453254509343 1.8172512517199877 L0.5799093874508827 1.8172512517199877 L0.5743755334509189 1.807689077719992 L0.5584250124508827 1.7971910307199934 L0.5527283984508955 1.789988881719971 L0.5511007934508854 1.7790025537199696 L0.5589132934508854 1.7483629057199934 L0.5590760544508981 1.72516954572 L0.5554953254509343 1.704376902720007 L0.5484966274509162 1.6851304837199947 L0.5382427204509241 1.6664537257199683 L0.5336854294508981 1.661204702719992 L0.521071497450933 1.649852163719963 L0.5178976684508854 1.645945913719963 L0.5154562624508827 1.633983022719967 L0.5181418094509382 1.6150214337200097 L0.5178976684508854 1.6050523587199947 L0.49568087245093295 1.5464179187200031 L0.4939718874508827 1.5366929837199947 L0.48152071545088404 1.528148061719996 L0.46540743445093824 1.4901028147199824 L0.44970105445089814 1.481517202719992 L0.4363547004509343 1.479442006719971 L0.4278097784509356 1.473460561719996 L0.4234966274509162 1.4637356267199877 L0.42219454345088536 1.4505113427199987 L0.42024141845088536 1.4412746897199824 L0.4147075644509215 1.4354153147199824 L0.39802462245093295 1.4231675927199987 L0.3867941534509356 1.4173489077199903 L0.3603455854509008 1.4143378407200018 L0.35066134045088404 1.4094957177199987 L0.3160747524509162 1.3753160307199934 L0.29833386645090343 1.3650621237200014 L0.27977917945089814 1.3589586087199947 L0.2665955854509008 1.34821642072 L0.2646424604509008 1.3238430487199864 L0.26789766845088536 1.321483022719967 L0.28856824145090343 1.293081329719989 L0.29214897045092414 1.2849839987200014 L0.2930441534509356 1.2735093897199974 L0.2919862104509008 1.2515367337199947 L0.29353243445093824 1.244497345719985 L0.2996359504509343 1.2339586087199947 L0.29996147045092414 1.2276516427199837 L0.2969504034509356 1.221955027720007 L0.29214897045092414 1.2181301577199903 L0.28742891845088536 1.2156887517199877 L0.2851502734508955 1.2139797677199837 L0.27693087245093295 1.19391954572 L0.2715597784509356 1.1859849757199683 L0.2646424604509008 1.1798814597199723 L0.25731824145090343 1.1780504057199934 L0.24104220045093427 1.1797593897199974 L0.23396212245093295 1.1764634917199643 L0.2242778774509162 1.1655992337199947 L0.21890678345091885 1.1607571107199917 L0.2032004034509356 1.1555894677199987 L0.18798230445089814 1.141429311719996 L0.17903048145093692 1.1382554837199947 L0.15461641845088536 1.1328843897199974 L0.14208111080644414 1.1188173092946059 L0.18325330745098256 1.0873480997199536 L0.33585381245093515 0.9734532437200087 L0.46876559645092186 0.8742086557199471 L0.4690756544509469 0.8741053027200181 L0.4690756544509469 0.8739244347199602 L0.6831194374509693 0.7410643277199611 L0.839492321450976 0.6998523727199668 L0.8961296914509518 0.6746601117200228 L1.1166847034509857 0.6095219687200384 L1.1828305374509824 0.5990316527199937 L1.3588404654509674 0.5752088177200179 L1.512009410450915 0.554615759720015 L1.7515813514509802 0.5222921517199453 L1.8270289424509798 0.530095292719956 L1.8996860064509207 0.5496289837199484 L2.054922009450891 0.626781897720015 L2.2233871774509026 0.7104202037199414 L2.32405286845092 0.7604946657199676 L2.4427019564509607 0.8194833137199922 L2.6114771844509193 0.9355485797200132 L2.635248343450897 0.9584670777200373 L2.6451702184509855 0.9780782837199595 L2.644963512450957 0.9949764767199625 L2.6408293974509007 1.0124172727200076 L2.639382457450907 1.0339663447199499 L2.644653454450932 1.0540943157199436 L2.6550920934509037 1.0721293907199438 L2.7591684284509626 1.1776785037199105 L2.80443698245098 1.2235413367199683 L2.8693425814509084 1.3102285527200266 L2.932801241450946 1.3948745487200043 L2.9636003944509213 1.4230382047199797 L2.998533662450896 1.4461892457199568 L3.061165498450933 1.4786420457199725 L3.076978486450926 1.4921295937199446 L3.0890707714509205 1.5091311407199512 L3.117079397450894 1.5597740437200187 L3.133925914450984 1.5768789437199828 L3.1546998414509204 1.5888161987200036 L3.1827084674509507 1.6009084837199978 L3.2137143274508873 1.6088149777199376 L3.3399081744509687 1.603337276719948 L3.3988193074509496 1.5861290247199875 L3.4917335324509082 1.576000443719927 L3.5810304074509673 1.5431859097199165 L3.6145167354508914 1.5410671747200198 L3.6828329794509074 1.5459764367199753 L3.8450969764509324 1.5525393437200492 L4.031235485450978 1.5602391317199604 L4.238131809450991 1.5687242557199923 L4.274424775450953 1.5702126837199515 L4.497873669450897 1.5793594117199419 L4.592338187450949 1.5943455767200092 L4.714604625450889 1.613569209719948 L4.733931611450899 1.6050942747199386 L4.764730765450977 1.5627712767200208 L4.7844711624509415 1.5456663787199787 L4.8310833044509 1.528096390720016 L4.8523739944509 1.5166242237199938 L4.863639456450883 1.50654731871996 L4.865809867450949 1.4997260297200015 L4.85816175445099 1.4953335327200037 L4.808035615450947 1.486083451719999 L4.792739391450894 1.4803990437200483 L4.778580048450934 1.4726992557199665 L4.7566692414508935 1.4540957397200103 L4.737445608450983 1.4294460817199948 L4.724009736450924 1.4017475137199895 L4.7194622104509705 1.3740489467199737 L4.720185680450882 1.3387022667199702 L4.716464977450883 1.309866817720014 L4.704992809450928 1.2836668667199902 L4.6827719434509305 1.256226680719955 L4.664891898450961 1.2204924277199396 L4.666028779450883 1.1889698037199778 L4.673883597450995 1.1568012257200238 L4.676364066450972 1.1191549447199876 L4.654246552450971 1.0401933557199428 L4.6545566114509285 1.0016427367199654 L4.6827719434509305 0.9725747447199709 L4.7787867544509055 0.9389075477199427 L4.8199211954509025 0.9156014777199815 L4.857334932450968 0.8742086557199471 L4.857334932450968 0.8739502727199877 L4.912215303450935 0.7971332567200093 L4.992623831450899 0.7382737997199982 L5.086674938450884 0.7040640017200204 L5.182689749450972 0.7011701207200147 L5.324179821450983 0.7195152547199157 L5.370688610450955 0.7125906127199428 L5.425982392450933 0.6923592897200379 L5.445309378450887 0.6889486457199112 L5.513625622450959 0.6912999227199421 L5.532849255450984 0.6881476607199843 L5.554863415450896 0.6762620817199618 L5.5517628294509365 0.6667794557199969 L5.538947074450917 0.6560565967199707 L5.531712373450901 0.6403211227200032 L5.539877250450914 0.6272469847199389 L5.578117809450887 0.6180485807199503 L5.592483857450887 0.6061113237200075 L5.6332048864508835 0.536761552719959 L5.641886526450904 0.5134554807199336 L5.640129528450942 0.49787503671999644 L5.618735485450898 0.4637427537200054 L5.613051077450976 0.4372585817200232 L5.630000947450995 0.4265873977199206 L5.65718275145089 0.4176215377199881 L5.682710908450886 0.39591743571998705 L5.691495901450892 0.38426440072002066 L5.702141246450893 0.3742650107199168 L5.720434703450977 0.36798632472000037 L5.742655570450907 0.3649115767199831 L5.765289847450916 0.36542834171991245 L5.784306774450911 0.3703892787199621 L5.7987761754509535 0.38098294672003163 L5.821617158450934 0.4061752077199756 L5.8376368534508885 0.41312568871996547 L5.853863252450893 0.4120146447199673 L5.890140107450989 0.40043912372002666 L5.908226859450977 0.39819119972001005 L5.93013766645096 0.4011109177199117 L6.0294597694509235 0.43583748072004624 L6.063359509450905 0.4542859657199543 L6.08909437245093 0.4798657997199953 L6.099326306450919 0.5154450237199697 L6.0959156614508885 0.533712642720026 L6.090541311450934 0.5508433797199999 L6.090231253450909 0.5663721477199957 L6.102013480450935 0.5798338587199581 L6.118343232450982 0.5829344437200135 L6.182628714450928 0.575699743720044 L6.1950310584509936 0.5701186897200117 L6.198545055450964 0.5619796517200157 L6.193997529450954 0.5531688197200211 L6.182628714450928 0.5453656787200103 L6.1423210974509885 0.5099931607199792 L6.068113740450897 0.4206187707199902 L6.041448701450989 0.373980790720033 L6.01064954745091 0.3390216837199276 L5.9754062214509105 0.31866116972000924 L5.850142549450894 0.2751237747199653 L5.831435680450923 0.26269559372000373 L5.82575127345099 0.24344612271998045 L5.835053030450993 0.22884753072001018 L5.853243135450967 0.21869311171995065 L5.890966930450887 0.2064974727200095 L5.943986950450906 0.18254544672002027 L5.962693818450887 0.17817878872003945 L5.987085095450894 0.17877306771999457 L6.094985485450948 0.21101916072004911 L6.146248506450959 0.21985583071995762 L6.19761487945091 0.2222329467200055 L6.238956025450946 0.2131895707199547 L6.260143363450894 0.1840957407200463 L6.273785940450992 0.09919136171996712 L6.292286104450923 0.07650540771999914 L6.316677380450884 0.08684069471991762 L6.531858043450953 0.2739352177200445 L6.598830700450904 0.3198497277200332 L6.669110648450911 0.3433108277199963 L6.713655732450903 0.3492277797200032 L6.743007946450987 0.34796170671996407 L6.771843395450915 0.34212227071999024 L6.8008855504509285 0.3317094687199429 L6.826413708450971 0.3296940887200108 L6.850494925450917 0.34093371171994846 L6.914056937450894 0.3899746457199811 L6.928216279450922 0.4068211627199574 L6.937724743450886 0.4259672817199558 L6.9496103224509085 0.50234504772002 L6.9628394894509285 0.5201475797200388 L6.991571586450917 0.5317489377199891 L7.04252454845097 0.5358830527200169 L7.065985647450944 0.5419033567200486 L7.105879853450986 0.5737877157200231 L7.130891247450975 0.5809190637199677 L7.1825676794509405 0.5820559447199756 L7.393924287450957 0.5578972127200146 L7.480740693450926 0.5637366497199778 L7.525389131450893 0.5597058887199822 L7.570761038450897 0.5634782677199226 L7.602283662450887 0.5891614547200064 L7.630085583450935 0.6214075487200503 L7.665122204450952 0.6449720017199709 L7.709460583450905 0.6579169477199756 L7.732611624450968 0.6681747187199747 L7.744807262450891 0.6812230187200115 L7.741396617450974 0.697992021719962 L7.724963513450987 0.7069062057199815 L7.704499645450952 0.7131848917199832 L7.688066539450986 0.7220990767200206 L7.678868135450969 0.7684528357200193 L7.6985051794508905 0.817597122719981 L7.701605765450964 0.8570779177199839 L7.642281220450926 0.8742861697199729 L7.641971162450957 0.8742861697199729 L7.641661104450989 0.8742861697199729 L7.641351044450985 0.8742086557199471 L7.623677705450987 0.8780327107199994 L7.612412242450901 0.8878770717199771 L7.610861950450911 0.9010803997199517 L7.621920706450922 0.9152655797200069 L7.636183401450992 0.9200456507200059 L7.688066539450986 0.918650387720028 L7.793176403450914 0.9483384977199947 L7.822631970450928 0.9672520717200328 L7.845554609450929 0.9934715667199683 L7.856945120450931 1.0065003217199902 L7.871931286450959 1.0181016807200436 L7.919266898450886 1.0391081507199615 L7.933322888450917 1.0480740117199971 L7.945518526450954 1.0596236937199208 L7.955233695450957 1.0734213007199642 L7.957094046450962 1.0876323207199405 L7.945518526450954 1.1006289437199612 L7.929808890450957 1.1022309127199108 L7.910275198450975 1.0956680057199222 L7.875755342450887 1.0792865767199729 L7.838134899450964 1.0703982297200483 L7.806818981450945 1.0724136107199982 L7.7793271194509686 1.0866504677199842 L7.753592256450887 1.1141940067199485 L7.762687308450964 1.1491014367200378 L7.793486462450929 1.1935690067200042 L7.86004570645089 1.2643657187199508 L7.869140758450968 1.28273669072005 L7.855394827450951 1.2953457397199841 L7.814053682450904 1.310900346719997 L7.797000459450899 1.3222174847199781 L7.783977998450908 1.3362217987199827 L7.7761231804509094 1.3533266967200248 L7.763617484450904 1.4335285197199212 L7.770542126450906 1.4571963257199414 L7.798654105450922 1.4781769577199455 L7.9081047894508885 1.5206033087199913 L8.004326305450903 1.5578620157199978 L8.064684379450924 1.5913483447199965 L8.118944633450965 1.6324311077199596 L8.147676728450975 1.648037390719999 L8.182506644450896 1.6555821487199651 L8.242554658450914 1.6544452687199467 L8.36327080445092 1.6239044967200371 L8.564705537450962 1.6147060917199454 L8.634675426450897 1.6274701707200236 L8.682424450450938 1.6648839067199859 L8.689039033450925 1.6606981157199598 L8.695550264450915 1.6552204147199703 L8.708728561450883 1.638159862719938 L8.714670544450897 1.6304674037200257 L8.718494600450938 1.6327928427199723 L8.721595185450909 1.6417328657199803 L8.727176240450902 1.6508279177199725 L8.786294079450968 1.6431798057199742 L8.804070772450885 1.643593217720003 L8.907010224450985 1.6988869997200098 L8.947627901450929 1.7113926967200044 L8.985765107450973 1.710410843720048 L9.020284964450937 1.6972333537199589 L9.048396943450896 1.67387560672001 L9.067413870450949 1.642508011720004 L9.091908499450895 1.6319143437200196 L9.101623668450955 1.5967226927199718 L9.115162894450933 1.575690384719941 L9.137590465450913 1.5673704797199903 L9.174487438450925 1.570522741719948 L9.271742484450968 1.5899014037200132 L9.358765596450908 1.6182717657200172 L9.582317842450962 1.7427086147200228 L9.601851533450954 1.7588833377199151 L9.67523206745092 1.8522626517200038 L9.683707002450902 1.8688507857199923 L9.687117646450943 1.8892629757199373 L9.689804821450949 1.959801305719914 L9.694662405450984 1.9745290897199155 L9.687117646450943 1.9820221727200433 L9.698279756450987 2.0018142467200235 L9.729750703450932 2.085736771720015 L9.741222871450944 2.1313670617199207 L9.749181042450985 2.152709428720023 L9.760136445450897 2.165938594720025 L9.793106009450938 2.193327103719959 L9.804474824450907 2.2072797407199474 L9.825093720450937 2.2687230187199603 L9.838581269450984 2.2898586787199875 L9.875788301450896 2.3277375037199945 L9.881679414450915 2.3370392617200153 L9.889740938450885 2.3598285687199976 L9.891471750450947 2.362177528720032 L9.896252168450943 2.3686652387199914 L9.917852917450901 2.3811192587199983 L9.965343558450925 2.391971309719942 L10.048025849450894 2.4282998417199977 L10.057689343450946 2.437291540719947 L10.060789928450973 2.479511185720021 L10.066991101450938 2.4980113487200484 L10.092725964450963 2.537543818719975 L10.100942516450985 2.555682247719922 L10.104611543450986 2.575577673719927 L10.105386689450896 2.602087682719919 L10.109469128450897 2.6224481977199687 L10.140164928450943 2.6735045127200365 L10.144092337450914 2.694795202720009 L10.138511283450967 2.7128819537200357 L10.130191376450924 2.731020381719965 L10.126005585450983 2.7526211307200086 L10.128796113450917 2.775565466719975 L10.14636610045092 2.831737748720009 L10.157218151450948 2.8584544647199905 L10.22899671545089 2.927959265719956 L10.23979709045092 2.9327134977199663 L10.29757134145099 2.9774652877200154 L10.414566784450884 3.0419574747199434 L10.550889212450912 3.1170950077199464 L10.713359916450955 3.2065985887199773 L11.043055553450941 3.3882412477199253 L11.181961803450989 3.46477404372002 L11.245420462450923 3.511592891720035 L11.35290744145091 3.6281749227200137 L11.413678925450952 3.6768024457200355 L11.524473196450927 3.738555782720006 L11.66410291745099 3.816328812719952 L11.825023327450893 3.9060132617200125 L11.85499565745097 3.9182347367199455 L11.884554577450913 3.922575557720002 L11.910392793450924 3.9182347367199455 L11.987804089450961 3.8880040247200114 L12.017983125450954 3.8852134977199526 L12.041754284450988 3.896737341719991 L12.071976796450954 3.9273190047199833 L12.12872571945094 3.9847423057200118 L12.339307181450934 4.123545202720017 L12.467774792450953 4.181681189720003 L12.614949271450953 4.222350541719955 L12.682128632450897 4.255423458719953 L12.815247123450959 4.350430578719973 L12.909711641450954 4.418049190720019 L13.044587129450989 4.489879430720045 L13.144012584450891 4.542744421720023 L13.30855034545091 4.630284297719989 L13.376039766450916 4.648009314720021 L13.444614391450969 4.643616816720005 L13.470400931450982 4.632144649720011 L13.518770071450902 4.601500524719974 L13.547295462450975 4.5923537967199834 L13.58109184945097 4.594730912719946 L13.681860892450928 4.633126501719978 L13.747903372450892 4.641498083719945 L13.776015351450908 4.6531511187199115 L13.837975393450918 4.692399369719972 L13.902829317450895 4.706972123720028 L13.935488822450921 4.718909378719992 L13.964841035450902 4.7409493777199785 L14.011349824450932 4.787303136719977 L14.112738985450918 4.82484606571996 L14.143848197450964 4.83223579571996 L14.220329316450957 4.832597530719973 L14.25856987745091 4.840839921720011 L14.294795055450962 4.854715043719985 L14.328436413450916 4.873680293719936 L14.328643119450888 4.8738094847199775 L14.328746471450884 4.873861161719994 L14.340934163450882 4.901099917719968 L14.350192191450915 4.921791052719989 L14.313450247450945 4.978505936720019 L14.25805311245098 5.035685908719962 L14.223223196450945 5.08498522572004 L14.219399140450903 5.124207637719998 L14.227357311450945 5.20265246172 L14.223533256450892 5.242443314720028 L14.20162244745093 5.309803544720019 L14.197901744450931 5.345486121720008 L14.211544323450951 5.373856482719937 L14.231233044450917 5.387318192719995 L14.247097708450909 5.4009349327199985 L14.251025117450993 5.416902950720022 L14.235212129450886 5.437547684720023 L14.216505261450905 5.452869747720008 L14.201415742450891 5.469948808720041 L14.199245332450928 5.488268102720021 L14.223998343450958 5.503512650719962 L14.20730685545091 5.51203926171997 L14.189633516450911 5.5242865767199945 L14.174337292450915 5.537929154719912 L14.165862357450933 5.543251827719963 L14.155475394450903 5.5447504437199555 L14.143073050450951 5.53978950672002 L14.128035208450981 5.522012813719989 L14.11790662845091 5.518059566720019 L14.094032116450947 5.520514196719979 L14.025095755450891 5.538549272719969 L13.998844127450937 5.536482214719918 L13.978793672450891 5.524415767719951 L13.962153861450886 5.510850704719964 L13.955258209450918 5.508043028719989 L13.946289196450962 5.504391150719989 L13.936935762450915 5.50227241671994 L13.92287977245094 5.492893144719979 L13.912131074450897 5.490800248720014 L13.879058158450917 5.492195512719981 L13.867482636450987 5.490800248720014 L13.847328828450898 5.482635371720001 L13.83001722345098 5.46899279371997 L13.80226697945092 5.439278845720004 L13.784076875450992 5.42682482571994 L13.559594453450885 5.359748815720003 L13.540474173450903 5.348535030719951 L13.533497855450904 5.342075476720005 L13.525488008450921 5.332515335719997 L13.508744844450987 5.30238797672002 L13.500890026450932 5.298357214720006 L13.48094292345094 5.294791540719963 L13.465853405450915 5.289313838719956 L13.463269583450952 5.303576533719941 L13.457068411450976 5.3298281617199805 L13.443839245450945 5.338638993719975 L13.402704805450881 5.3382772587199625 L13.385444877450894 5.341300330719982 L13.373249238450981 5.347139766719984 L13.36312065745092 5.3574233767199715 L13.352733695450993 5.373546423719951 L13.352682018450892 5.37375312871999 L13.352578665450963 5.373856482719937 L13.340176322450887 5.393596879719986 L13.330151094450983 5.414887569719987 L13.325396862450887 5.437289302719968 L13.33330335645094 5.480154903720013 L13.333871797450982 5.50227241671994 L13.328497448450904 5.522555415719928 L13.31568169345094 5.5366372447199765 L13.287569713450992 5.5596332557200085 L13.241267630450935 5.610586217719948 L13.205817598450906 5.625417354719993 L13.19233227245094 5.625695582720006 L12.767498099450975 5.63446072971994 L12.69349744845097 5.65402025971995 L12.512319876450945 5.732180863719982 L12.483174368450946 5.749647497719941 L12.464570853450894 5.775072302719941 L12.46002332745094 5.814062170719957 L12.479040254450936 5.890104040719997 L12.483174368450946 5.9292231007199305 L12.469635143450958 5.96307116272002 L12.432959122450896 6.017123503720008 L12.325767956450889 6.17509956571994 L12.309231497450881 6.2071389527200225 L12.296415742450918 6.2466197477199685 L12.293211804450905 6.2672386437199705 L12.293418509450888 6.287444128719962 L12.298121064450882 6.30785631972001 L12.31217705445097 6.346045202719985 L12.314915905450917 6.366767452720019 L12.310265026450978 6.406609981720045 L12.298792858450966 6.443506953719954 L12.281067842450923 6.478078486719973 L12.202571341450906 6.576263708719928 L12.182107474450916 6.596055782720022 L12.148982881450948 6.617708207720007 L12.115289847450882 6.627836788720039 L12.041650931450889 6.641737748720011 L12.023357474450918 6.647938920720016 L12.008061250450922 6.656155472720037 L11.996279024450942 6.668247758720021 L11.98046603545096 6.708452022719946 L11.970544160450928 6.715221634720002 L11.958141816450976 6.712844519719944 L11.941553682450902 6.707263464719922 L11.900315888450976 6.701785762719943 L11.863108858450985 6.707418494719981 L11.827762177450964 6.72162951271995 L11.761668021450888 6.762453894720018 L11.749058972450896 6.775373001719949 L11.74063571345097 6.791289343719974 L11.740790742450955 6.809117712720003 L11.749989147450904 6.856401648720045 L11.749524059450906 6.868959020719963 L11.65438774745094 6.838831661719986 L11.626379121450967 6.8339740767199615 L11.610737554450921 6.835960706720023 L11.594236380450994 6.838056514719973 L11.564264049450983 6.845601273720014 L11.470316295450928 6.890404740719994 L11.430112031450918 6.898827998719987 L11.306708711450895 6.905029170719963 L11.286503225450886 6.908646520719948 L11.267848033450903 6.917069779720016 L11.25399875045089 6.9286452997199675 L11.230330944450955 6.9550002807200215 L11.2154998084509 6.965852331719994 L11.134626191450948 6.996651485719958 L11.047344697450924 7.011430944719969 L10.829683565450992 7.00745185972 L10.80849622745093 7.011224239720015 L10.793044974450893 7.024298376719976 L10.788807506450965 7.041609981719979 L10.795732148450966 7.0543740597199545 L10.805705700450929 7.067138138720004 L10.810098197450955 7.08481147872002 L10.816454398450972 7.097782263719928 L10.867665743450985 7.135402705719947 L10.881670056450915 7.1508022827200435 L10.8883363154509 7.1553498087199685 L10.9137611204509 7.16320462671991 L10.918825410450907 7.168423945720015 L10.917998587450896 7.175400264720032 L10.912107474450991 7.184495316719996 L10.884305553450943 7.201238480720043 L10.807566051450934 7.221650671719978 L10.781056042450885 7.242993038719995 L10.779350720450921 7.257875850719934 L10.781779511450978 7.308932165720002 L10.784983450450923 7.321179480720026 L10.801623262450974 7.332238236720038 L10.805137259450888 7.342728551719979 L10.794905325450898 7.374147822719927 L10.79066785845096 7.412026647720019 L10.78462171545091 7.430630163719975 L10.771237520450896 7.442102331719987 L10.751497122450942 7.446339799719944 L10.709949271450924 7.449285355720043 L10.689692109450917 7.453109411719971 L10.622616100450912 7.479516068719967 L10.531975638450902 7.53837552571995 L10.527473922450909 7.540178986719958 L10.464899629450954 7.565247269719954 L10.438648001450943 7.586951371719955 L10.426038951450906 7.601265742719939 L10.41301649145096 7.611652705719969 L10.39803032545099 7.619300818719928 L10.325476615450967 7.644984005720012 L10.308940156450902 7.648291296720011 L10.300051810450967 7.647102738719987 L10.270596243450953 7.636922481719928 L10.259847545450967 7.637284216720026 L10.249925670450935 7.63966133271996 L10.239900443450907 7.640333126720044 L10.22899671545089 7.635527217719961 L10.163315970450938 7.585814489720043 L10.13628919645096 7.58705472471997 L10.10373304445092 7.611756058719983 L10.006426321450888 7.720173213719939 L9.990613333450895 7.7270461797199985 L9.980123018450925 7.716659215719979 L9.961261120450914 7.680537390719969 L9.955370006450906 7.665344518719941 L9.957023652450985 7.6248818727199605 L9.955628389450979 7.607311885719987 L9.948755423450919 7.589638545719971 L9.938110078450919 7.573928910719992 L9.923433971450962 7.5614232147200156 L9.868295218450967 7.541527787719993 L9.840751680450992 7.526334916719982 L9.738225638450913 7.443704300720022 L9.711870657450973 7.428769811719981 L9.682156709450979 7.416780879719916 L9.623762340450938 7.41585070472005 L9.503459606450932 7.450215531719984 L9.444031709450897 7.453936234720011 L9.30915622145092 7.437089718719939 L9.243113740450909 7.415385616720023 L9.19712171645098 7.373527706719962 L9.132112764450952 7.324848507720027 L9.123719581450942 7.321801666719985 L9.117023245450937 7.319370804719945 L9.105654430450969 7.317872188720038 L9.097592907450931 7.3140998097200125 L9.091288382450912 7.308157018719989 L9.084673798450936 7.300353877719978 L9.084363740450968 7.2963747927199805 L9.088291149450939 7.285574418719968 L9.087877738450928 7.281233597719968 L9.072064749450945 7.2697097537200435 L9.069894339450926 7.269192989720018 L9.068344046450889 7.269451371719988 L9.055941703450927 7.260563024719978 L9.064519990450961 7.24929756271991 L9.065346813450915 7.2466620647199775 L9.055941703450927 7.23989245171996 L9.048603649450925 7.23679186671999 L9.040128714450944 7.23679186671999 L8.987728812450896 7.245060094719953 L8.97408623445098 7.2491942107199705 Z M0.7343690234508955 3.8063463037199696 L0.7447043094509382 3.7866929837199947 L0.7620382934508854 3.7732652487200014 L0.7861268354509008 3.7699693507199683 L0.7910096484508955 3.776398386719954 L0.7923117314509369 3.779572215720002 L0.7923117314509369 3.784251577719992 L0.763258997450933 3.8006089987200014 L0.7583761844509382 3.840892202719992 L0.7718039184508854 3.920848256719971 L0.7838481894509215 4.004222280719993 L0.8064718874508827 4.085968699720006 L0.8024028774509162 4.098460561719996 L0.8028097784509356 4.103790965720002 L0.8064718874508827 4.112620717719999 L0.7991476684508854 4.112620717719999 L0.7965435024509162 4.088898386719954 L0.7674093874508827 4.003001577719992 L0.7512961064509369 3.976024038719963 L0.7446229294508981 3.9610093897199974 L0.7428325644509215 3.9507554837199947 L0.7444601684508854 3.9242662257199683 L0.7422629034509356 3.897532827719992 L0.7329855594509382 3.8513902487200014 L0.7307882934508854 3.8283189597199723 L0.7343690234508955 3.8063463037199696 Z M1.172926965450884 3.282746043720003 L1.1844015754509343 3.274363881719971 L1.1962830854509008 3.2697252097199723 L1.202712122450933 3.2766832177199987 L1.2081645954509241 3.2815660307199934 L1.2130474084509189 3.282176381719971 L1.2173605594509382 3.2764797677199837 L1.221755090450884 3.298289663719963 L1.223708215450884 3.3038235177199837 L1.2441346484508955 3.3280748197199657 L1.2388449344509382 3.3400377097199723 L1.2263937624508827 3.3515936997200058 L1.2106060024509162 3.3590806787199696 L1.1962830854509008 3.3590806787199696 L1.190993372450933 3.351349558719953 L1.1796815234508955 3.319611277720007 L1.1726828254509343 3.3072414857199917 L1.167311731450937 3.293895131719971 L1.172926965450884 3.282746043720003 Z" fill="black" stroke="black" stroke-width="0.5" vector-effect="non-scaling-stroke"/></svg>