<svg xmlns="http://www.w3.org/2000/svg" viewBox="0 0 350.92279052693993 29.176166991719988"><path d="M11.29975382396998 11.741159667859993 L11.309193928969961 11.738758951859982 L11.312611896969969 11.738921711859948 L11.306508381969962 11.742868651859997 L11.301625568969968 11.745310058859989 L11.296742756969962 11.746571451859982 L11.29084269196997 11.746896972859961 L11.29279581696997 11.744862467859978 L11.29743448796998 11.742868651859997 L11.29975382396998 11.741159667859993 Z M20.800038654969967 28.877512206859965 L20.821116128969976 28.87385009785996 L20.817576089969975 28.88345296185995 L20.80524698796998 28.890126138859987 L20.800038654969967 28.877512206859965 Z M4.344187417969977 28.304839680859946 L4.347890217969962 28.30467692085998 L4.350901284969979 28.303456217859978 L4.353139240969966 28.30390380885999 L4.354726154969967 28.30825764986 L4.350697834969964 28.31102457685998 L4.348744709969964 28.309885253859964 L4.347117105969971 28.30703694686 L4.344187417969977 28.304839680859946 Z M4.37047322496997 28.275461425859962 L4.37083943596997 28.282134602859944 L4.366078693969968 28.279489745859994 L4.37047322496997 28.275461425859962 Z M4.193837482969968 27.711171060859986 L4.189524331969977 27.699370930859946 L4.189971922969988 27.697824706859965 L4.190378823969979 27.69640055285996 L4.190989175969975 27.694406737859968 L4.19391886296998 27.697946776859997 L4.193837482969968 27.711171060859986 Z M347.4494120279699 9.219715982859984 L347.4597473139699 9.218942870859994 L347.46821085596997 9.214914550859962 L347.4708964029699 9.207346191859958 L347.46479288697 9.195627441859958 L347.47813924096994 9.203602701859982 L347.48237101197 9.217111816859958 L347.47423299096994 9.225778808859989 L347.4494120279699 9.219715982859984 Z M3.5010884599699637 0.2902726238599804 L3.5071512849699786 0.2936905928599778 L3.508860269969972 0.295480956859965 L3.505116779969967 0.29637613885998704 L3.4947408039699894 0.2970678708599941 L3.5010884599699637 0.2902726238599804 Z M3.472361245969978 0.2869360348599663 L3.4655659989699643 0.29377197285996104 L3.457834878969976 0.2990209958599941 L3.4492899569699773 0.30243896485999144 L3.4404195149699888 0.3037003578599844 L3.4447733559699714 0.2943823238599954 L3.4520161939699676 0.2885229488599954 L3.4613749179699767 0.28604085286000114 L3.472361245969978 0.2869360348599663 Z M11.297678628969976 11.768299967859978 L11.30760701496996 11.76919514986 L11.288319904969967 11.779449055859946 L11.282663980969971 11.780344237859968 L11.280507404969967 11.777902831859965 L11.282338459969964 11.773996581859965 L11.297678628969976 11.768299967859978 Z M11.316355386969974 11.75739501985996 L11.316355386969974 11.75576741485995 L11.317250568969968 11.757028808859989 L11.316355386969974 11.75739501985996 Z M105.80569457996995 10.084095865859954 L105.80894978796994 10.085723469859975 L105.81928507396998 10.085723469859975 L105.81977335596997 10.086211750859977 L105.82302856396996 10.086211750859977 L105.82628377196994 10.090565592859978 L105.82738240496997 10.091135253859964 L105.82738240496997 10.094919433859989 L105.82738240496997 10.096587727860001 L105.82685343396997 10.097645670859979 L105.82685343396997 10.103627115859954 L105.82469685796997 10.105254719859975 L105.82302856396996 10.105254719859975 L105.82197062096998 10.106353352860001 L105.81928507396998 10.106353352860001 L105.81818644196994 10.105254719859975 L105.81493123296997 10.105254719859975 L105.81383259996994 10.104685058859989 L105.81220499596998 10.104685058859989 L105.81110636296995 10.103627115859954 L105.81110636296995 10.102528482859984 L105.80951944896998 10.100941568859955 L105.80951944896998 10.09874430285996 L105.80626424096994 10.094919433859989 L105.80626424096994 10.094390461859948 L105.80406697496994 10.09333251985996 L105.79918416296994 10.087880045859979 L105.79975382396998 10.084095865859954 L105.80569457996995 10.084095865859954 Z M18.769154865969966 22.614165852859944 L18.772410073970008 22.61888590485987 L18.768910724970027 22.62791910785987 L18.756947834969992 22.631988118860054 L18.73888142896996 22.62970947285996 L18.735666909970007 22.626006672860033 L18.73924763996999 22.626535644859903 L18.742950438970013 22.62311767586002 L18.754954019969944 22.615834146859957 L18.751820881969962 22.615956217859864 L18.747304279970024 22.617176920859865 L18.74270629796999 22.6175024418599 L18.73615519197 22.615549316859845 L18.729726154969995 22.61493896485999 L18.72638956696997 22.612782388859873 L18.728302000970018 22.61111409485986 L18.758656818969996 22.611195474859844 L18.769154865969966 22.614165852859944 Z M18.42984008696996 22.05622314485996 L18.44473266596998 22.05622314485996 L18.44473266596998 22.07111572285996 L18.42984008696996 22.07111572285996 L18.42984008696996 22.05622314485996 Z" fill="black" stroke="black" stroke-width="0.5" vector-effect="non-scaling-stroke"/></svg>