<svg xmlns="http://www.w3.org/2000/svg" viewBox="0 0 0.491738433059993 0.7179092479199838"><path d="M0.48691746802998637 0.6420232659599812 L0.4611199420300238 0.6446681229599882 L0.4396355670300238 0.6513819899599618 L0.3975213090299974 0.6699366779599565 L0.37579279303000135 0.6764064039599909 L0.16994155603001104 0.7045232659599812 L0.15114272803000972 0.7108709219599838 L0.15846694703000708 0.6937403879599948 L0.1596876500300084 0.6792140209599644 L0.15862970703003043 0.6383611569599772 L0.16168146503000003 0.6257472239599657 L0.1698601760300278 0.6177719639599992 L0.20762059302998637 0.6287989819599922 L0.22886082702999033 0.6195216379599948 L0.250833483029993 0.6060939039599909 L0.27467788403001236 0.6010076409599812 L0.27715998102999606 0.6036118079599966 L0.315530749029989 0.6283513909599812 L0.33660822303002647 0.6354314689599825 L0.34726903002999165 0.6408025629599798 L0.356546374029989 0.6488592039599759 L0.3794142130300031 0.6307521069599922 L0.4153435750299934 0.6233058179599631 L0.45452814503002514 0.6253403229599463 L0.48691746802998637 0.6351873289599759 L0.48691746802998637 0.6420232659599812 Z M0.34532089902998564 0.05066087195999458 L0.33815377303002947 0.05349190595999076 L0.34889129103001437 0.06709695695994711 L0.3423093350300235 0.09032687595996336 L0.31008398603003684 0.0738837499599505 L0.2599472520300026 0.07841516795994963 L0.24502938903000882 0.0653839309599995 L0.2599489890299935 0.04386488795998744 L0.27666550903003895 0.03704789395996855 L0.294578078030014 0.03194778595994663 L0.2904009570300161 0.024580180959990372 L0.29935900103001245 0.020046977959996326 L0.3327958410299914 0.028553707959961372 L0.34891753803000825 0.03139302295997837 L0.36384210003004114 0.03763387695997622 L0.381752949030016 0.046709718959991875 L0.3859241460300211 0.05691377195998726 L0.3721844310300355 0.05917403795999476 L0.34532089902998564 0.05066087195999458 Z M0.17467744103001337 0.07901389495996014 L0.16747523403003584 0.08919642695994767 L0.13581649403002416 0.07787919095997964 L0.12445551403001787 0.07108225395998957 L0.1154805700300301 0.05408657595998889 L0.11129142902998979 0.063150877959945 L0.10172862903002056 0.056922656959986995 L0.08021931503000701 0.06090164995996261 L0.06467130203000693 0.058078590959983245 L0.05269338402999324 0.04561292995996169 L0.021005477030001884 0.0547108019599456 L0.004820965030006619 0.039978883959950196 L0.034443509030012365 0.025039216959985566 L0.05967137402998901 0.018813630959957806 L0.09631207703003497 0.02008296095997153 L0.11133444303001738 0.030316917959996914 L0.12029504202999419 0.02748338095998193 L0.10406352403001051 0.015537789959953585 L0.09628606203003187 0.00703832595999998 L0.11780956303002199 0.013267349959992458 L0.1548779520300343 0.03366869395998506 L0.1913306240300301 0.05350750595997411 L0.20623481503000107 0.0761477269599915 L0.1949062130300092 0.07785512595998867 L0.18600233602998628 0.07504599996000039 L0.17467744103001337 0.07901389495996014 Z" fill="black" stroke="black" stroke-width="0.5" vector-effect="non-scaling-stroke"/></svg>