<svg xmlns="http://www.w3.org/2000/svg" viewBox="0 0 5.5671733640399985 5.808795826379944"><path d="M0.9779064610200656 5.34347744569001 L0.9669492410200426 5.340068403690037 L0.951734672020077 5.335334802689968 L0.9381437710199769 5.337195154689977 L0.9250179570199997 5.343086267689981 L0.9093083210200597 5.347013676690037 L0.8924618040199697 5.344843266690046 L0.875408582020011 5.339882328690007 L0.8588721230200598 5.337401860690034 L0.8435759000199958 5.342879561690023 L0.835152641020013 5.357142256689994 L0.8286930870200102 5.39848340369002 L0.8235254440200173 5.413676273690055 L0.8174276250199703 5.418740564690023 L0.8006844610200368 5.426285323689979 L0.7970702760200332 5.429261710690054 L0.7936564660199927 5.4320730836899545 L0.7907625860200049 5.438067549689987 L0.7885405000200443 5.45243359868999 L0.7866284710200055 5.459048181690076 L0.7758797740200087 5.477134933689993 L0.7628056360200297 5.4938780976900405 L0.7183122280200358 5.5361494186900275 L0.7028609740200658 5.545347823690034 L0.6954712450200553 5.547518233690025 L0.687513074020071 5.548138351689997 L0.6795549040200193 5.549481938690048 L0.6717000860200777 5.554132817690015 L0.6645687380200478 5.567775395690018 L0.6584709190200009 5.606532719689963 L0.6533032760200079 5.621725590689988 L0.6424512250200358 5.631854171690034 L0.6016268440200427 5.647770512690056 L0.5721049610200701 5.663585807690066 L0.5669002810199935 5.666374028690012 L0.5538778200200589 5.679809900690057 L0.5447827680199815 5.701617354689998 L0.5344474810200062 5.703787765690078 L0.46654465002003676 5.7414082076899975 L0.4445821660200657 5.749573084690025 L0.42354985801997813 5.7518468476899445 L0.4040161660200532 5.746265792690022 L0.386859591019995 5.730246098690057 L0.3771444220200486 5.70905876069001 L0.37476730602000075 5.667924320690031 L0.3703231320199869 5.646943689690031 L0.34221115402007385 5.606119308690038 L0.3312557500200022 5.60053825369003 L0.33114473202001804 5.60052166468999 L0.3222640500200349 5.5991946666900505 L0.3135824100200715 5.601778487689967 L0.3043323290200668 5.6075662486900315 L0.2952889530199876 5.618314946690046 L0.2892944870199834 5.638055342690021 L0.28102625702004147 5.642912927690031 L0.27410161502004016 5.6404324586900545 L0.252810926019972 5.627513350690049 L0.24092534602001692 5.624826176690019 L0.21663742302004252 5.62916699669 L0.19989425901999525 5.6378486376899675 L0.18444300602001462 5.649010746689993 L0.16382410901999478 5.660586267690033 L0.14522059402005638 5.665650557690012 L0.12423996202002385 5.667200850690034 L0.08403569802001343 5.665030441690047 L0.09344080901999163 5.606326013690006 L0.09323410202003046 5.58720573369001 L0.0893066940200491 5.575940271690041 L0.07762782002006574 5.555889815689992 L0.07711105602001211 5.5452444706900055 L0.08656784301998854 5.51992301869002 L0.08754969501998389 5.511448083690024 L0.08165858201996556 5.489847334690052 L0.07137497201997789 5.474551111690002 L0.06315841901996677 5.4584280646900085 L0.06305506602003774 5.434346846689974 L0.0752507050200073 5.372541833690076 L0.07618088002007184 5.3545584356899925 L0.07204676602006188 5.335231449690039 L0.05731898202006036 5.296784184689995 L0.05458013101999981 5.279214197690021 L0.05747401201997704 5.26722526568997 L0.05763819002001114 5.266946162690059 L0.06264165502002683 5.258440271689975 L0.06646571102001175 5.248725101690039 L0.06527715301998782 5.233945642690014 L0.061401420020072095 5.215135421690005 L0.06078130402007886 5.205213545690012 L0.062124891019973205 5.196118494690038 L0.07328700001997035 5.178548507690064 L0.10284591902003726 5.168523279690047 L0.11411138202006654 5.155087407690002 L0.11690190902001163 5.140618006690059 L0.11948573002004181 5.080466638690024 L0.11721196702003667 5.059382653689991 L0.10832362101998783 5.020418624690007 L0.10915044402005591 4.999541345690031 L0.12165614002000424 4.920786462690029 L0.12496343202004923 4.915618819690022 L0.13054448602005309 4.911484705690012 L0.13540207102007784 4.90642041469003 L0.1366939820200308 4.898668949690017 L0.1343685430199706 4.892674483689999 L0.12661707802007172 4.882029138689998 L0.12496343202004923 4.876034672690065 L0.1289941940200059 4.8650792686899935 L0.13829595202005507 4.8623920946899775 L0.14894129702005543 4.861668624690066 L0.15700282002003618 4.856190922689987 L0.1591732300199986 4.842238285689999 L0.15586593802001047 4.780950036690041 L0.15121506002006058 4.765550460690048 L0.140735543020039 4.743608972690038 L0.13798589301998376 4.737851892690029 L0.13550542402000687 4.719041671690019 L0.15710136302001487 4.593095606690011 L0.16010340601999573 4.575587895690032 L0.17668984302005342 4.477508283689997 L0.18273768402005075 4.441745935689977 L0.2001526410200789 4.339736658690055 L0.21513880602000413 4.302943038689972 L0.2204614790199706 4.284132816690044 L0.21958298002001797 4.265012537690052 L0.20774907602000425 4.221397627690007 L0.20919601702004442 4.20413769969002 L0.21792933302000606 4.177059249689958 L0.26190597702006 4.115771000690001 L0.26738368002 4.104505538690046 L0.27916590602003666 4.109156417690014 L0.2865039600200383 4.115460942690018 L0.2933252480200643 4.118148116690048 L0.3032471240199719 4.111843592690033 L0.30676112002000977 4.10419547969006 L0.33874883302004477 3.9396577196899587 L0.34572515101998746 3.9181603236900147 L0.3571973190200559 3.89945345469003 L0.4100292730199975 3.838411644690038 L0.4290275600200424 3.816461105689979 L0.4322034740199818 3.8095675026899984 L0.4465975460199978 3.7783238976900124 L0.44411707802006717 3.739359868690028 L0.42561691502001153 3.658537928689978 L0.42613367902006516 3.637970708690074 L0.4384326710200206 3.55347974069002 L0.43295496802002376 3.501751632689971 L0.43440190802001766 3.4916230516900244 L0.4534188360200595 3.452038903690064 L0.46633794402000817 3.444545821690025 L0.48831465802006946 3.4276237516900183 L0.5025114470199945 3.4166922246899647 L0.5444727100200133 3.3977269746900136 L0.651236218020042 3.3734907276900232 L0.6609513880199778 3.367961348690014 L0.6718034380200173 3.355197270690053 L0.6898901900200052 3.321504236690001 L0.6929907760200784 3.3178868856900126 L0.6976416550200177 3.301763839690037 L0.7201725790200406 3.2780960336900025 L0.7270972210200419 3.2595441936900587 L0.7217228730200667 3.218874841690007 L0.7214128130200059 3.199547856689972 L0.7341252160199723 3.187610600690019 L0.737639214019989 3.1788772836900394 L0.7402230350200192 3.1685419966900357 L0.7422900930199852 3.1471479536900206 L0.7449772670200012 3.140636723690048 L0.7754663620200652 3.1093724826899605 L0.7840963260200304 3.1050316616899893 L0.7926229370200097 3.1023444876900443 L0.8018213420200162 3.1039981326900064 L0.8126733930199883 3.1127314496899716 L0.8299333210199755 3.1207929736900555 L0.8421806360200002 3.1077705126900215 L0.8543245980199821 3.087616703690043 L0.8710677610200399 3.074594242690009 L0.8827466350200233 3.073560713690026 L0.9053809130200783 3.0760411836900063 L0.9188167850200237 3.074594242690009 L0.9377303590199766 3.0696333056899734 L0.9516829960200788 3.063845544689994 L0.9643953980199989 3.054957198690073 L0.984394178020036 3.038007328689969 L1.0598250710200112 2.941008375690001 L1.1034050010199756 2.884967574689992 L1.18784429102001 2.7762920376900526 L1.3231331910199877 2.6671255746900018 L1.4605408250200433 2.55596956869 L1.5319576540200295 2.4984020226900556 L1.6021381650200759 2.410277852690041 L1.6252336140200576 2.381277389690024 L1.6894157430200174 2.3004296106899718 L1.7489469940199704 2.225472945689998 L1.7775757370199834 2.173641483690017 L1.7862162990199657 2.1251997096900057 L1.786567436020018 2.1232311246900197 L1.78486048701998 2.120619697690043 L1.773596651019968 2.103387374690027 L1.71701095801998 2.0712963106900135 L1.6962370330199654 2.055121586690018 L1.688588920020063 2.037913334690029 L1.6851782760200216 2.016881026690027 L1.68367965902004 1.9737312056899983 L1.6353621950200043 1.9919729856900519 L1.6187223840199998 1.9945568086899614 L1.6051831580200222 1.9939366906899894 L1.5613615440199986 1.9863919316900338 L1.5467887900199706 1.9787438206899681 L1.5416211470200345 1.9697004446900026 L1.5449284380200332 1.9656696826900033 L1.5505094930199697 1.9627241256900136 L1.5520597860200063 1.9569880416900505 L1.5496826700200153 1.9495983116900364 L1.54740890702001 1.9454125206900104 L1.4909782440199955 1.8820055386899783 L1.4741317270200192 1.8712051646900365 L1.4370280480200357 1.8710501346900061 L1.4205949420200703 1.898490319690052 L1.4066939820200695 1.9306847376899983 L1.3779102100200724 1.9445856986899885 L1.3610636930199824 1.9369375856900009 L1.3424601770200546 1.9202977756899857 L1.325923719020036 1.900660730689947 L1.3157951380199755 1.8842793016899977 L1.31310796301997 1.869654871690014 L1.3132629930200004 1.8544620006899892 L1.3110409060199935 1.8422663626899807 L1.3011190310200185 1.8365302786900175 L1.2310457890199835 1.835858484690033 L1.216679741019984 1.8315176646900513 L1.2137858610199963 1.8143610886900037 L1.2228809120199706 1.79353548669003 L1.2354899620200648 1.7731749716900085 L1.2431380740200346 1.757103601690031 L1.243964897019989 1.739171879689974 L1.240140841020004 1.702171553690019 L1.2413810760200725 1.683568038689967 L1.2455151900199688 1.6733361046899775 L1.265048881020018 1.6428470096899987 L1.2673743210200108 1.6350438686899738 L1.268133917019977 1.630859655689986 L1.2704232310199721 1.6182490286900135 L1.3038062050200345 1.5282803586900657 L1.3050464400199893 1.5231127156899733 L1.3052531460200179 1.5131908416899735 L1.3077336150199947 1.5075581106900389 L1.3119710820200474 1.5047675826899765 L1.3240633670200417 1.5024421436900441 L1.327990775020023 1.5004784386900072 L1.334812065019971 1.490556563690018 L1.3595134000200595 1.4232738486900276 L1.3609603400200534 1.3834313196900156 L1.3501082890200244 1.3438471726899595 L1.3270606000200722 1.3034878786899897 L1.3097489950200405 1.2875715376900532 L1.2631885300200132 1.2551704146900535 L1.2511995980200616 1.2403392786900271 L1.2499593630199932 1.221167322690019 L1.2539901250200067 1.199928308690045 L1.2695364010200159 1.1532039036900246 L1.310317436020025 1.0306363166899617 L1.3282491580199824 0.995237960690031 L1.3318665080200525 0.9929641976900117 L1.3439071170200485 0.9902253466899795 L1.3485579950199984 0.987899907690033 L1.351761935020047 0.98273226469004 L1.3530021690200122 0.9722419476899917 L1.3548108440200757 0.9673843636900559 L1.3746029180199706 0.9333037566900062 L1.4034383670200121 0.9016261036900035 L1.4110535490200071 0.890605759689973 L1.4161507700199785 0.8832292936900048 L1.4224552940200645 0.8618352506899898 L1.4205949420200703 0.8501563766900206 L1.410569715020042 0.8291757456900202 L1.4090194220200054 0.8177294156900077 L1.415737358020035 0.789462406690018 L1.4154272990200774 0.780496546689986 L1.4025081910200718 0.7566737106900208 L1.3862817920200108 0.7622289266900255 L1.3673682170200117 0.77842948869002 L1.34566411602 0.7864393356900026 L1.3499015840200421 0.7707297006900378 L1.3718123910200255 0.7276832326900378 L1.437854871020047 0.6315392296900173 L1.4424023970200004 0.6197828416900224 L1.4455029830200168 0.6082331586900809 L1.4505672730200239 0.597355270690028 L1.4616260300200246 0.5876401006899927 L1.4721163450200514 0.584022750690008 L1.49190841902006 0.5845136766900341 L1.502088676020005 0.5831184136900562 L1.5156795780199808 0.57686556469005 L1.5464787320200593 0.5524226116900168 L1.5557804890200053 0.5486502326899911 L1.5747974160200577 0.5449036916899788 L1.583789116020025 0.5413380176900064 L1.6105291050200456 0.5204656696899947 L1.6476095100199721 0.491521936689975 L1.67370610802001 0.48423555968998944 L1.7209383670200644 0.4842872366900055 L1.7618661010199865 0.4899716436900521 L1.801140190020046 0.5024515016900439 L1.8838224810200153 0.5473324836900391 L2.011566622020009 0.6167856086900061 L2.0298600790199792 0.6205579876900318 L2.0406404460199745 0.6110778856899914 L2.0416423060200053 0.6101968636900184 L2.0533211800199886 0.5956499476899753 L2.070891167020047 0.5868391166900695 L2.1746574430200347 0.5716204066900277 L2.192950900020005 0.5638172646900133 L2.2022526570200647 0.5553681686900207 L2.2818343630200637 0.46594210269001923 L2.2840047730199693 0.46020601869005606 L2.2871053590199857 0.4608261356900245 L2.3072272150199886 0.4701684256900309 L2.3131502810199684 0.47291842069001877 L2.336818087020017 0.4927621706900114 L2.4080282110200777 0.5723438766900246 L2.422394259020077 0.5963734176900575 L2.426166639020007 0.6153386686900122 L2.4292155480200357 0.6613565306900115 L2.43614019001998 0.6782805636900209 L2.449782768020011 0.6853860726899486 L2.528356525020026 0.6902206586900208 L2.536289115020022 0.6907087446899967 L2.5476579310199803 0.6967807256900445 L2.560346596020022 0.7170690186900375 L2.566984917020047 0.7276832326900378 L2.582281141019987 0.743470382690032 L2.599127658020077 0.7521778606899945 L2.661966199020039 0.7648644256900328 L2.674110160019975 0.76439933769002 L2.6806730670200203 0.7557435356900557 L2.6820491760200547 0.7494070356899813 L2.685117241020034 0.7352796686900094 L2.6853239460200165 0.7197767386899985 L2.6809831260200347 0.6839908086899671 L2.682068331020016 0.6710458626899625 L2.6939022340200403 0.6574807996899752 L2.8779220090200077 0.5455754846899596 L2.9216919480200225 0.5353435506899844 L3.105401665020022 0.5203573856900023 L3.262549695020052 0.5076191456900405 L3.346472221020033 0.48234936969006714 L3.4250203990199815 0.44248100269004187 L3.4856885300199814 0.3974449916900058 L3.5033618690199795 0.39111462868998803 L3.5233606490200167 0.3994603726900552 L3.649606173020029 0.502554854689973 L3.670586804020015 0.5135877736899745 L3.701540987020021 0.519582239689993 L3.792646537019973 0.5241039276900183 L3.9534635950200503 0.5322688026900382 L3.9967684450200203 0.5268944546899919 L4.033836967020047 0.5052102816900375 L4.038729708020039 0.5023481486900154 L4.1123169470200445 0.4285542036899672 L4.208021700020051 0.33256523068999133 L4.319797823020078 0.22060823969006282 L4.4021700560199655 0.13828768368999267 L4.483198703020005 0.056948978689999485 L4.512137505019975 0.07092745468999073 L4.534668429019998 0.08862663269000581 L4.547174126019993 0.11182935069001321 L4.545830539019985 0.14260266669006416 L4.547070773020064 0.15621940569006387 L4.555855766020013 0.16717480969003606 L4.567017875020067 0.17738090469002277 L4.575389457020062 0.18862052869006352 L4.578490044020068 0.20022188769001747 L4.578800102019979 0.211978276690016 L4.575906221020002 0.2352843476900519 L4.571978813020021 0.24921114569003766 L4.567637993020039 0.2587196086900123 L4.567224581020039 0.268874028689976 L4.57507939901998 0.2847645306899951 L4.586964979019992 0.2958491256900091 L4.6016410850200735 0.30564180969005594 L4.613216606020014 0.31713981668999924 L4.615697074020002 0.3332887016900772 L4.605051730019991 0.3589202116900454 L4.5923393270199675 0.38196790069001185 L4.590892387019974 0.39930534369001425 L4.614146782020068 0.40770276269000494 L4.629856417020019 0.404602177690049 L4.669543917020032 0.3904428346900035 L4.688974255019982 0.390546187690032 L4.71109176902004 0.40209587068997354 L4.713675591020003 0.4157642866899893 L4.702823540019974 0.4292518356900503 L4.65507451601999 0.4539531706899682 L4.6569348680199845 0.4594308726900467 L4.672644503019992 0.4653219856900508 L4.6851502000199865 0.4805406946899895 L4.665203097020051 0.4932789346900508 L4.6585885130200175 0.50100456169005 L4.671300916019984 0.5058104706899629 L4.679775851020022 0.5052420296900069 L4.697035779020009 0.5007978566900819 L4.716672823020044 0.4995059456900437 L4.73651657402004 0.4938990526900229 L4.747058565020009 0.49302055369007025 L4.747678683019981 0.4979039756900052 L4.769899548019989 0.5265843966899952 L4.784989067020003 0.5669178516899622 L4.796564587020011 0.5734807586900361 L4.8012154660200075 0.5692949676900101 L4.805556287019979 0.559708989690006 L4.815994927019997 0.5499421436900436 L4.843176730020016 0.5420614876900034 L4.861160128019971 0.5492703496899738 L4.893612928020016 0.5838935596899804 L4.912423149020039 0.5937120816900405 L4.9311300170200205 0.5994481656900037 L4.9458061240199775 0.6089049526899659 L4.9525240610199965 0.6299372606900677 L4.95004359202002 0.7103457886900317 L4.940638481019985 0.7504208626900182 L4.921621554019989 0.779618046690044 L4.912319796019997 0.7843464396900375 L4.902087862020007 0.7870336146900572 L4.8929928100200435 0.791012700690044 L4.88741175602004 0.7997718556900226 L4.8882385780200615 0.810598067690063 L4.900537570020074 0.8320179496899955 L4.904671684020027 0.842999191689981 L4.90312139101999 0.8524818166900419 L4.893096164020076 0.8769764446899986 L4.890098930020056 0.8882935836900687 L4.892682752020075 0.9002566776900212 L4.900537570020074 0.9109795376900367 L4.9099426800200625 0.9212373096900253 L4.917280734020007 0.9319343306900381 L4.9301998410199666 0.9718285366899808 L4.940121717020045 1.094611739690035 L4.950973768020074 1.1175043986900564 L4.971851046020074 1.130785242690064 L5.018979952019972 1.1442727906900219 L5.039960584020061 1.1581737516900121 L5.051676961020032 1.1791399006900578 L5.051742810019984 1.179257735690027 L5.0807849650200545 1.3305146536900283 L5.090810193020072 1.3479296106900565 L5.122539523020034 1.3832246146899623 L5.137525688020073 1.4070991256900358 L5.146620740020037 1.4165042366899998 L5.160263318020068 1.4201215866899846 L5.166464490020044 1.4180028526900061 L5.177626599019984 1.4088561246900158 L5.181760714019983 1.4068407436899806 L5.184241183020074 1.4050837446900006 L5.188685356019985 1.397280603690061 L5.191165825020075 1.3956786336900366 L5.194989881020003 1.397487308690029 L5.197160291019966 1.4009496306900617 L5.198813937020045 1.4044119506900161 L5.200777641019979 1.406220626689998 L5.202637992019984 1.4089078006900282 L5.230956678020075 1.4224987026900182 L5.236227674019997 1.4237906136899854 L5.243048963020069 1.4322655486899807 L5.247079724020036 1.4411022186899887 L5.267440239019972 1.504147465690008 L5.282633110019983 1.5910155476900174 L5.324801079019974 1.6786587776900292 L5.334206189020019 1.6878571826900215 L5.3479521210199685 1.6888907116900045 L5.356013643020017 1.6815009816900046 L5.36262822702005 1.673181075690036 L5.371723279020014 1.6717858116900546 L5.381748507020031 1.6854283896899718 L5.387432914020078 1.7351927946899908 L5.393220675020043 1.7542613976899704 L5.420505831019991 1.7822700246900753 L5.429704237019987 1.7993232466900055 L5.427017061020049 1.8220092006899735 L5.4122376020200385 1.8397342166899877 L5.392083793020017 1.8512063846900135 L5.373997042020019 1.865159021690002 L5.365212049020013 1.8898603566900052 L5.371723279020014 1.92913444468999 L5.410404692020077 2.0223855376900106 L5.428464001020043 2.06592196068996 L5.473629204019996 2.174726689690016 L5.47373255602005 2.1940795136900677 L5.464327446020061 2.238676273689987 L5.462777153019967 2.2581324506900673 L5.4640173870199895 2.278803023689986 L5.4681515010199995 2.298827641690022 L5.4752828490199725 2.316345951690079 L5.484067843020025 2.3267329146900098 L5.507528943019988 2.3486437216899647 L5.512593233019995 2.35977999369008 L5.508872530019996 2.3705028526900067 L5.490165662020015 2.3941706596900305 L5.485824842020033 2.4063404586900363 L5.48479131302005 2.60069552069005 L5.478796847019989 2.622399622690037 L5.4470675170199705 2.689604822690012 L5.439832817020001 2.700947799689996 L5.4296008830200115 2.7105337776900003 L5.4196790080200365 2.7150813036900248 L5.39869837702005 2.719370447689994 L5.388673148020043 2.7244088996899736 L5.365625460019967 2.7587220506900794 L5.344541476020051 2.8394664756900285 L5.285113579020074 2.888093998690036 L5.28686729502007 2.9048517316900417 L5.288834282020073 2.923647384689997 L5.306197563019989 2.9643167366900487 L5.316636203020064 3.004107589690048 L5.3040271530200265 3.044725265690002 L5.272194471020068 3.059142989690014 L5.189925591019996 3.0675662476900074 L5.16915166402006 3.0802786506899595 L5.1350452190199825 3.1130415086899577 L5.0865727260200195 3.124100264690054 L5.0797514360200715 3.142393722690028 L5.078097791020038 3.1649246466899656 L5.073003536020078 3.173619167690018 L5.067349093019995 3.1832697796900336 L5.066185550020034 3.1834915436899935 L5.046471815020052 3.1872488656900204 L5.0301420620200155 3.1779987846900015 L5.013605603020007 3.174123051689958 L4.993141736020018 3.194173506690004 L4.983323214019972 3.212053552689963 L4.9749516320200335 3.232414066689995 L4.969783989019984 3.2537047576899853 L4.969163872020058 3.2985599006899635 L4.96327275902004 3.319023767690024 L4.9373311890199965 3.3831025436900264 L4.908495740020069 3.4205679576900083 L4.894129692020069 3.460823898690049 L4.876973116020078 3.476430180690085 L4.812790988020051 3.508572921690029 L4.804522758019996 3.5173579156900106 L4.8023724940199735 3.529895046690041 L4.798424939020062 3.5529113006900674 L4.782301893019987 3.5958027396900265 L4.758220675019995 3.6216409556899523 L4.72587122902004 3.6380740606900135 L4.685253552019983 3.652750167689999 L4.655694634020076 3.673007329690006 L4.638538057019982 3.7038064826900667 L4.637708366020004 3.7072078706900387 L4.6136300180200145 3.8059191126900176 L4.610529431020009 3.814394047690013 L4.603501436020078 3.82483268768996 L4.586241508019977 3.8452965536900168 L4.581797335020067 3.854391606689984 L4.58283086402005 3.8727884156899934 L4.594096326020033 3.9092719776899942 L4.5913057980199845 3.9296324916900263 L4.582727511020007 3.9428616576900284 L4.546760714020049 3.970766932690009 L4.466386542020043 4.077963647689981 L4.45787725101999 4.089312667690021 L4.399689587019989 4.166827315689983 L4.396589002020075 4.186567713690036 L4.427698214020008 4.289610518690037 L4.458600720020026 4.3923432666900455 L4.459634249020009 4.430997237690048 L4.4412374390199965 4.589747237689989 L4.417466280020019 4.7959362026900125 L4.400929822020057 4.939389978689985 L4.404650525020056 5.075712407690031 L4.410334933019978 5.279214197690021 L4.328376111020045 5.279214197690021 L4.145389864020014 5.279214197690021 L4.137897589020067 5.279214197690021 L3.9622485880200564 5.279214197690021 L3.932535464020045 5.279214197690021 L3.7792106650200274 5.279214197690021 L3.5960693890200695 5.279214197690021 L3.4130831420200387 5.279214197690021 L3.3533459940199712 5.279214197690021 L3.2299935430200115 5.279214197690021 L3.228388336020057 5.279214197690021 L3.0469556200199825 5.279214197690021 L2.8637626680199695 5.279214197690021 L2.6806730670200203 5.279214197690021 L2.4975317910200623 5.279214197690021 L2.4923132790200064 5.279214197690021 L2.314493869019966 5.279214197690021 L2.1314559450200043 5.279214197690021 L1.9483663450199877 5.279214197690021 L1.7866133090199945 5.279214197690021 L1.7652767460200174 5.279214197690021 L1.582238822019999 5.279214197690021 L1.399097546020041 5.279214197690021 L1.3345020060200703 5.279214197690021 L1.3185856660199669 5.2713593796899945 L1.2832389850200592 5.262471033689974 L1.2456185430200115 5.282108077690009 L1.2076880420200062 5.294097009689975 L1.1932186410200778 5.301641768690016 L1.1574585490199887 5.339468917689996 L1.1447461470200118 5.350010909690053 L1.1206649290200765 5.342466150690012 L1.0988574750199653 5.34008903469005 L1.0484212780200117 5.3447399136900176 L1.0298177610199808 5.349080734690003 L1.017777153020031 5.350010909690053 L1.0121444210199932 5.3474270876899626 L1.0069767780200003 5.3418460336899445 L0.999535372020059 5.336885095689991 L0.9871330290199829 5.335748214689983 L0.9790715050200127 5.342259444689955 L0.9779064610200656 5.34347744569001 Z" fill="black" stroke="black" stroke-width="0.5" vector-effect="non-scaling-stroke"/></svg>