<svg xmlns="http://www.w3.org/2000/svg" viewBox="0 0 4.91057617230004 3.5229229495800354"><path d="M4.757851588494148 0.4818847344373509 L4.779099935650052 0.49317411529003863 L4.802049153650003 0.5015155862900329 L4.818813476650021 0.5047707952900069 L4.826788737650034 0.5162454042900109 L4.848761393650037 0.5836282162900162 L4.8425764976500005 0.6760761332900316 L4.843797200650002 0.6861672792900109 L4.847133789650016 0.7130227482900082 L4.845750325650002 0.7204690372900373 L4.838019205650042 0.732920209290036 L4.838995768650037 0.7420754822900122 L4.848761393650037 0.7580260032900483 L4.853481445650019 0.7681171492900276 L4.857957357650051 0.7747089462900263 L4.861293945650019 0.7824807552900452 L4.861782226650021 0.788055300290047 L4.862433268650037 0.795867800290047 L4.861456705650042 0.8070982682899981 L4.857224935650052 0.8267108992900276 L4.854051107650051 0.8565774352900135 L4.844773763650053 0.9001158472900457 L4.84103027365002 1.0410663672900355 L4.840786133650013 1.0520526962900263 L4.8621077476500005 1.13111356829004 L4.807791755650001 1.1366417312900623 L4.803247212650049 1.1413917462899619 L4.798076586650055 1.1467961502900081 L4.794849596650025 1.1794180852899885 L4.793073950650026 1.197368256289984 L4.792392179650008 1.2042603432900236 L4.787121182650097 1.214156380290028 L4.7591125566500665 1.2323464842899554 L4.75347915965007 1.2373811452899801 L4.720458585650093 1.266892179290032 L4.702475186650091 1.2748503492899985 L4.665061449650025 1.2790878172899554 L4.650162620650079 1.2852616472900067 L4.649971930650011 1.285340666290061 L4.633642178650078 1.3226252112899815 L4.612144782650049 1.3464997232899734 L4.606046963650002 1.3636304602900324 L4.597055265650013 1.37391407029002 L4.577934985650032 1.378823332290061 L4.556747647650084 1.379572640290057 L4.555065875650101 1.3793582972899898 L4.540934659650091 1.3775572592900218 L4.510342211650098 1.3551813642900399 L4.480886644650084 1.286322518290028 L4.443576260650062 1.2554716882900365 L4.436444912650089 1.2406663902900092 L4.439648851650091 1.2280831782899995 L4.457218839650025 1.2232255942900778 L4.471171475650024 1.2263261802900374 L4.48409058365003 1.2323464842899554 L4.508068448650036 1.2481594732900518 L4.504048587650075 1.2267680672900028 L4.495769457650013 1.1827112702899782 L4.484400642650044 1.1531523522900429 L4.457218839650025 1.1375719072900026 L4.454669266650015 1.1372179702900311 L4.41422404765008 1.131603280289987 L4.375776781650032 1.1407241702900635 L4.340946866650043 1.1608779782900385 L4.33662205465005 1.1644797142900742 L4.308184008650031 1.1881631342900434 L4.277901618650006 1.2232255942900778 L4.267462979650091 1.2541281002899822 L4.275834561650086 1.3309709552900628 L4.275834561650086 1.3497811772899624 L4.271493741650104 1.3870398842900826 L4.273560798650024 1.4054108552899933 L4.278777738650049 1.4160721392900584 L4.293714607650102 1.4465969722899885 L4.297021899650034 1.465949796290026 L4.269013272650014 1.4894625732900337 L4.262812100650038 1.5230005772900412 L4.24875611165011 1.5369273762900306 L4.238627530650049 1.5508024982900892 L4.239971117650001 1.5718864832900223 L4.252476814650109 1.6140802892899941 L4.250203051650104 1.668237190289993 L4.253406990650049 1.6834300612900321 L4.259814867650007 1.6904580562900193 L4.279865322650053 1.7028604002899996 L4.287410082650027 1.7116970702899934 L4.289683845650032 1.7200944912900908 L4.2861698486500615 1.7685411452900368 L4.279761970650057 1.7830622232900097 L4.2409012936500545 1.8463658532899885 L4.232943123650003 1.8638583252900318 L4.23449341565005 1.8789995202900442 L4.246482348650105 1.8844513832900347 L4.309114184650028 1.8970604322900542 L4.325960701650004 1.897913094289997 L4.381977953650008 1.8770874922900518 L4.411950284650018 1.8886113362900616 L4.427763272650068 1.9245006182900326 L4.439545499650038 1.9669011312900508 L4.476649177650032 2.0280601882900484 L4.46559042165002 2.0439506922899895 L4.4023384676500115 2.0581875492900323 L4.285859789650104 2.1018541332900256 L4.2672562736500055 2.09976123829005 L4.24121135165008 2.081183561289997 L4.223227953650067 2.084051603290071 L4.206794848650091 2.0897360112900216 L4.191395271650109 2.0900977452900165 L4.158839118650079 2.085059293290037 L4.125662849650055 2.084309985290041 L4.097137458650096 2.0891934072900753 L4.069852302650091 2.0993219892900115 L4.040500088650006 2.11410144829005 L4.021069750650057 2.123894133290001 L3.978591723650098 2.138725268290038 L3.935596931650039 2.1461666742900363 L3.9315661696500257 2.1607652662900065 L3.9403511636500212 2.1787745032900077 L3.9570943276500685 2.1927529782900237 L3.993371182650108 2.2127259202900333 L4.009390876650073 2.2346625652899874 L4.013938402650027 2.2634463382900307 L4.017142341650086 2.3392815022900137 L4.012904873650044 2.352562345290032 L3.966189378650043 2.416072680289993 L3.9570943276500685 2.432970873290081 L3.924124762650095 2.557071825289988 L3.910275479650025 2.5763988122900443 L3.8729650956500024 2.6140450922899774 L3.8727583896500306 2.6141484462900095 L3.85405152065006 2.639986661290031 L3.842889411650006 2.6733179602899995 L3.8220121336500625 2.7730534752900766 L3.799894619650061 2.834238371290006 L3.704706632650087 2.988079110290009 L3.6735974196500507 3.084248950290025 L3.6700834226500803 3.1138595462899943 L3.6700834226500803 3.113962898290019 L3.6763879466501095 3.259871305290055 L3.6656392486500664 3.4057538732899886 L3.599183357650034 3.485904020289972 L3.58409383865002 3.488384489290034 L3.4473579996500376 3.471589648289971 L3.308245043650075 3.4544330722900085 L3.1691320876500555 3.437379850289993 L3.0301224846500787 3.420326627290045 L2.891216234650031 3.403170052289987 L2.7521032796500577 3.3860651532900405 L2.6130936756500915 3.3690119302900072 L2.474084073650104 3.3518811922899587 L2.334867764650099 3.3347504552900133 L2.1958581616500084 3.3176455562899534 L2.056848559650021 3.3005664952900062 L1.9177356036500584 3.2834615972900494 L1.7787260006500816 3.2663566972900284 L1.6397163976501048 3.2492776362900813 L1.5006034426500179 3.2321985752900204 L1.3615938386500517 3.215093676289989 L1.2225842366500643 3.197988778290032 L1.0618705316500296 3.1782225422899657 L1.0372725496500408 3.1707552982900253 L1.0172737706501067 3.15458057429003 L0.9636336346500372 3.0909927242900537 L0.9114404376500289 3.0289551672900004 L0.8592989176500652 2.9669176102900607 L0.8071057196500107 2.904880054289997 L0.7550675536500222 2.8429200112900546 L0.7028743566500708 2.780908292290029 L0.6507845126501053 2.7188448972900616 L0.5985913166500296 2.6568073402900936 L0.5465014726500641 2.5948472982900554 L0.49430827665010213 2.5328355792900012 L0.4422184316500335 2.470772184290034 L0.3900252356500715 2.4088121422900244 L0.33783203865000644 2.3468004232900554 L0.2856388426501013 2.2848403812900173 L0.2335489986500221 2.22277698629005 L0.1813558016500707 2.1607394292900253 L0.1292659586500946 2.0987277092899816 L0.0723185306500369 2.031005745289967 L0.057332364650065415 2.007492968289988 L0.05195801565010072 1.981499723290021 L0.05402507265007728 1.917395108290087 L0.054335131650034896 1.8916085692899784 L0.04814290365000318 1.8531594662899735 L0.06946451865003667 1.824920534290051 L0.07044108065004195 1.7807310812900496 L0.052781575650001855 1.7448830992900426 L0.07255696665005473 1.724415977290029 L0.08118326865003667 1.7414244402899968 L0.10258626365005341 1.769988893289998 L0.10673665365000318 1.7896015242900276 L0.10673665365000318 1.8473000912900162 L0.1132470706500186 1.8824563412900162 L0.12748860765005077 1.8907571232900082 L0.14173014365003667 1.876515586290033 L0.1514143886500534 1.8312681902899968 L0.1581689456500186 1.843556602290029 L0.16809733065004195 1.8746438412900162 L0.1747705086500133 1.8849791282900483 L0.1794905606500521 1.887420534290051 L0.18860514365003667 1.888234336290033 L0.1970686856500521 1.8862405212900413 L0.20243977865000318 1.881561159290051 L0.20366048265005077 1.876759727290029 L0.19967285165002124 1.8746438412900162 L0.21887858065004195 1.8317971622900373 L0.23759602865000318 1.818817018289998 L0.25826660165002124 1.8473000912900162 L0.2610335286500032 1.868947227290029 L0.25077962265000053 1.9329934512900095 L0.25224446665005473 1.9561054302900303 L0.26445149765000053 2.0055845972900457 L0.2655908206500186 2.016326784290051 L0.26445149765000053 2.0500181902899968 L0.2665673836500133 2.0607603782900483 L0.27592610765005077 2.0811054302900303 L0.277960612650034 2.0909524352900135 L0.28821451865003667 2.1086526302900452 L0.31205891965005605 2.1143899352900135 L0.3606429036500032 2.1154478782900483 L0.3723616536500032 2.118947227290029 L0.38131347665002124 2.123667279290011 L0.39848470065000186 2.1389667582900316 L0.4075179036500032 2.1445819922900355 L0.41516764365003667 2.1445819922900355 L0.4179345706500186 2.1401467712900413 L0.41215657565000186 2.1322122012900095 L0.41020345065000186 2.12134794329004 L0.43168782565000186 2.1184182552900452 L0.48881673265005077 2.121470013290015 L0.4957340496500393 2.119638959290036 L0.5027327476500005 2.121470013290015 L0.515183919650056 2.1322122012900095 L0.5461897786500032 2.1458840762900095 L0.5544905606500521 2.1455178652900386 L0.5967268886500534 2.1384377872900373 L0.6143863936500367 2.1427916282900483 L0.6243147786500032 2.137339154290011 L0.634324544650056 2.1427916282900483 L0.649868164650016 2.1359556902899968 L0.6670393886500534 2.1350605082900316 L0.685105794650056 2.1361998312900496 L0.7031722006500019 2.1353046492900276 L0.7197737636500534 2.129689414290034 L0.7578597006500019 2.1079608992900276 L0.7747054036500032 2.1056008732900082 L0.8066064456500186 2.105478802290044 L0.819871419650056 2.10181669329004 L0.8313460286500032 2.0929869402899968 L0.8435530606500521 2.0814309512900095 L0.856899414650016 2.0713398052900303 L0.8711409506500019 2.067026654290011 L0.8876611336500133 2.064096966290016 L0.906866862650034 2.0566913672900355 L0.9229801436500367 2.0466409122900373 L0.9297347006500019 2.036020795290007 L0.9353499356500521 2.0246682552900452 L0.9657861336500133 2.0127053652900386 L0.980597330650042 2.001841107290012 L0.9937809246500393 1.9895120052900452 L1.011277669650056 1.977508425290047 L1.028855794650056 1.9682717712900413 L1.042446289650016 1.9646096622900373 L1.053351237650034 1.9572447532900483 L1.056443685650052 1.940317670290007 L1.056769205650042 1.921885052290044 L1.0595361336500133 1.909962852290029 L1.0790673836500133 1.8997903262900095 L1.097215169650056 1.9056497012900095 L1.1129215496500393 1.9194436462900413 L1.1488916016500212 1.9646096622900373 L1.1601220706500186 1.9685159122900373 L1.164191080650042 1.9658710552900303 L1.167446289650016 1.960744102290029 L1.1762353516500212 1.9571633732900082 L1.1988590496500393 1.9578144142900342 L1.239793294650056 1.9687193622899954 L1.261521810650052 1.9714455992900426 L1.2742171226500005 1.969451784290051 L1.2957014976500005 1.9600116802900303 L1.306443685650052 1.9571633732900082 L1.3179996746500393 1.9573261332900316 L1.3266259766500212 1.9597268492900426 L1.333543294650056 1.9626565372900373 L1.3407861336500133 1.9646096622900373 L1.425909830650042 1.9714455992900426 L1.4355126956500186 1.969695925290047 L1.4709944666500547 1.9571633732900082 L1.4757145186500367 1.9534198832900316 L1.4770979826500508 1.947967409290051 L1.4785628256500019 1.9436542582900316 L1.4846663416500547 1.9434914982900082 L1.489793294650056 1.9465432552900452 L1.493618164650016 1.9508970972900457 L1.4963850916500547 1.9549661072900122 L1.4983382166500547 1.9571633732900082 L1.5276350916500547 1.979380170290007 L1.5460270186500367 1.9874368102900135 L1.5859847006500019 1.9714455992900426 L1.6064925136500534 1.9786477482900082 L1.6252913416500547 1.9880064722900457 L1.6422184246500393 1.9845071232900082 L1.628465169650056 1.9771015242900276 L1.624558919650056 1.9675800392900342 L1.6241520186500367 1.9562681902899968 L1.621222330650042 1.9434914982900082 L1.644090169650056 1.939015586290033 L1.6703759766500212 1.949920534290051 L1.6943831386500534 1.9677834902900386 L1.7105777996500393 1.9845071232900082 L1.724412435650052 2.0051776962900263 L1.732550455650042 2.010548789290034 L1.7878889976500005 2.013559857290012 L1.915818685650052 1.9895120052900452 L1.9246077476500005 1.9895120052900452 L1.933396810650052 1.9949237892900342 L1.947068685650052 2.0090025652899968 L1.9575667326500508 2.015635052290044 L1.9718082686500367 2.0186868102900135 L1.9866194666500547 2.0177916282900483 L1.9980940756500019 2.0124612242900426 L2.016241862650034 2.025034466290016 L2.0269840496500393 2.0305683212900263 L2.0361800136500534 2.0329283472900457 L2.040330403650003 2.036753216290016 L2.0531884766500212 2.05494169329004 L2.060105794650056 2.06080106829004 L2.068406575650002 2.0622659122900373 L2.079881185650052 2.062143841290016 L2.0908675136500534 2.060353477290029 L2.1079573576500508 2.052296836290033 L2.1182112636500534 2.054575482290012 L2.1277327476500005 2.058970013290015 L2.1357893886500534 2.06080106829004 L2.166632487650034 2.047251263290015 L2.173387044650056 2.042856732290012 L2.1816064456500186 2.0388284122900373 L2.191209310650052 2.0404967062900496 L2.201219075650002 2.0442401962900263 L2.2109033206500186 2.0466002222900457 L2.3325667326500508 2.047332643289998 L2.3577132166500547 2.044484336290033 L2.368618164650016 2.036020795290007 L2.4299788416500547 2.0055845972900457 L2.4931298836500133 1.9960631122899954 L2.512986653650003 1.98658231829004 L2.5339827476500005 1.982920209290036 L2.560349935650052 1.9714455992900426 L2.5908675136500534 1.9675393492900426 L2.601365560650052 1.9646096622900373 L2.6142236336500133 1.95728544329004 L2.6324527996500393 1.944061159290051 L2.6488916016500212 1.928232709290036 L2.6558902996500393 1.9131366802900303 L2.665818685650052 1.9057310812900496 L2.7315738936500367 1.888234336290033 L2.784715169650056 1.8525491152900386 L2.7937483726500005 1.8510842712900413 L2.8018050136500534 1.8386737892900342 L2.8207666016500212 1.8395689722900457 L2.861375325650002 1.8547463802900452 L2.868943685650052 1.8434752222900457 L2.906053060650052 1.8171894142900342 L2.9247705086500133 1.7931822532900483 L2.964402669650056 1.7209980082900316 L2.958787435650052 1.6959329042900109 L2.9619612636500534 1.6842141542900109 L2.978074544650056 1.676645795290007 L2.968797200650002 1.6709491802900303 L2.964402669650056 1.6698098572900122 L2.964402669650056 1.66236356829004 L2.979946289650016 1.6637063412900162 L3.004523112650034 1.6741230082900316 L3.019090169650056 1.676645795290007 L3.0127425136500534 1.664072552290044 L2.995652669650056 1.646942018289998 L2.992234700650002 1.63501981829004 L3.007127278650003 1.6413674742900426 L3.0230777996500393 1.6457620052900452 L3.0374007166500547 1.6516213802900452 L3.046922200650002 1.66236356829004 L3.0531884766500212 1.66236356829004 L3.050096028650003 1.6359963802900452 L3.031297200650002 1.6276955992900426 L3.0048486336500133 1.6264748962900413 L2.978074544650056 1.6213886332900316 L2.919480794650056 1.5854185812900496 L2.8961246746500393 1.5803730082900316 L2.8961246746500393 1.574228802290044 L2.9081689456500186 1.5710549742900426 L2.9204573576500508 1.5636086852900135 L2.9307112636500534 1.5527851172900355 L2.9324202476500005 1.5591327742900276 L2.9358382166500547 1.5674335552900303 L2.9438948576500508 1.574228802290044 L2.941209310650052 1.5639748962900413 L2.944627278650003 1.5549823832900316 L2.9575667326500508 1.5394387632900148 L2.964402669650056 1.5394387632900148 L2.9722965496500393 1.5670266542900109 L2.991665039650016 1.5940448832900316 L3.016241862650034 1.610890586290033 L3.0400862636500534 1.6077167582900316 L3.0339827476500005 1.6047463802900452 L3.019090169650056 1.5934752222900457 L3.030564778650003 1.59400419329004 L3.052049153650003 1.6003518492900426 L3.060594075650002 1.6008808212900263 L3.063930664650016 1.5973814722900457 L3.0725569666500547 1.5835061462900413 L3.077683919650056 1.5803730082900316 L3.1152001956500186 1.511525352290029 L3.0985986336500133 1.5050149352900135 L3.0909488936500367 1.496103802290044 L3.0946923836500133 1.4881692322900122 L3.1117822266500212 1.484832643289998 L3.1221988936500367 1.47876981829004 L3.125128580650042 1.46509794329004 L3.130906575650002 1.4509377872900373 L3.1493798836500133 1.4432473572900122 L3.1493798836500133 1.4370217712900413 L3.140672200650002 1.431203086290033 L3.136521810650052 1.4209491802900303 L3.1335921226500005 1.4083352482900082 L3.128953450650002 1.395477175290047 L3.134324544650056 1.388234336290033 L3.127081705650042 1.3840025652899968 L3.119269205650042 1.3767190372900373 L3.1221175136500534 1.3606464462900263 L3.1313134766500212 1.3513284122900373 L3.1704573576500508 1.3271584902900386 L3.175340169650056 1.3204446232900082 L3.1801416016500212 1.311045209290036 L3.1858382166500547 1.3054299742900426 L3.216599935650052 1.3184101172900355 L3.218227539650016 1.3197122012900095 L3.2329573576500508 1.316904584290036 L3.247361653650003 1.3078713802900452 L3.2524072266500212 1.2945657162900162 L3.2388167326500508 1.2787779562900496 L3.3476220706500186 1.2206724872899954 L3.396531575650002 1.188445925290047 L3.4268863936500367 1.1628925392900342 L3.4469059246500393 1.1506855082900316 L3.4716455086500133 1.1433205992900426 L3.4737613936500367 1.1426695582900166 L3.4781559246500393 1.1413674742900426 L3.4821435546500226 1.140187461290033 L3.4846663416500547 1.1394143492900426 L3.489549153650003 1.136728802290044 L3.492804362650034 1.1349791282900483 L3.4945947266500212 1.1340025652899968 L3.4967919926500173 1.132822552290044 L3.5010237636500534 1.1305032162900162 L3.528774414650016 1.115936159290051 L3.5234033206500186 1.0954283472900457 L3.556443685650052 1.0890806902899968 L3.5610823576500508 1.092498659290051 L3.6357080086500133 1.012583295290007 L3.737840169650056 0.8940530212900413 L3.7429671226500005 0.8781431902899968 L3.7421533206500186 0.8643899352900135 L3.761196289650016 0.8486428652900386 L3.777146810650052 0.8508401302900452 L3.7921207686500367 0.8704120712900263 L3.7971663416500547 0.8840432552900452 L3.793015950650002 0.8972675392900342 L3.779913737650034 0.9156594662900162 L3.8076643886500534 0.9078469662900162 L3.8130354826500508 0.8901060812900496 L3.805304362650034 0.868133425290047 L3.785203450650002 0.8342792582900316 L3.782517903650003 0.8263039982900082 L3.7880517586500133 0.8175963152899968 L3.818162435650052 0.7878925392900342 L3.8269514976500005 0.7845559512900095 L3.8420882166500547 0.7852883732900082 L3.837449544650056 0.7727558212900263 L3.8381819666500547 0.7607522402900386 L3.8442854826500508 0.7507424742900426 L3.8557600916500547 0.7443541282900483 L3.865851237650034 0.7522480082900316 L3.886033528650003 0.73658231829004 L3.917771810650052 0.6965432552900452 L3.923956705650042 0.6965432552900452 L3.928351237650034 0.7087095972900457 L3.9341292326500508 0.7094420182899981 L3.9399886076500508 0.7019550392900342 L3.9444645186500367 0.68970731829004 L3.951300455650042 0.6965432552900452 L3.964890950650002 0.6593931902899968 L3.974412435650052 0.6431985292900109 L3.9853987636500534 0.6344908472900457 L3.9729475916500547 0.6285500912900162 L3.9792952476500005 0.6163430602900135 L3.9921533206500186 0.6004739202900069 L3.9990706386500534 0.5836282162900162 L4.003465169650056 0.5667011332900316 L4.0144514976500005 0.5469257422900355 L4.029832357650051 0.5307310812900496 L4.046922200650002 0.5246682552900452 L4.038377278650003 0.5410256772900439 L4.027390950650002 0.5544534122900373 L4.021043294650056 0.5667825132900148 L4.026984049650039 0.5798440372900373 L4.042527669650056 0.5855813412900162 L4.062140299650039 0.5824888932899981 L4.083950195650019 0.5763853782900483 L4.105109049650039 0.5730080992900426 L4.111375325650002 0.565154909290051 L4.126918945650019 0.5261737892900342 L4.135708008650013 0.5116067322900122 L4.162237955650042 0.48580920629004964 L4.178269857650051 0.4746194272900439 L4.212693685650052 0.46253446629001616 L4.238328450650002 0.42965686228999544 L4.249314778650003 0.4221698832900316 L4.258347982650051 0.42090849029003863 L4.271043294650056 0.4172870712900263 L4.282273763650053 0.41191597729002893 L4.287156575650002 0.4051614202900069 L4.291632487650034 0.4028013932899981 L4.321254883650013 0.39551786529003863 L4.356899414650016 0.3692727482900082 L4.411261393650037 0.3067727482900082 L4.438523763650053 0.285654584290036 L4.432583008650013 0.29472847729002893 L4.426235351650021 0.3152362892900342 L4.415981445650019 0.33265165429001087 L4.420050455650042 0.3386330992900426 L4.427293294650056 0.3403827742900276 L4.431118164650016 0.3372089462900263 L4.433234049650039 0.32223498728999544 L4.442511393650037 0.29395536529003863 L4.444790039650016 0.2751158472900457 L4.451137695650019 0.2664895452900069 L4.493211263650053 0.23047880229004392 L4.502000325650002 0.22010282629000955 L4.509568685650052 0.20846545629004964 L4.515672200650002 0.1942239202900069 L4.519822591650055 0.17579130229004392 L4.512986653650003 0.17579130229004392 L4.509405924650039 0.18506864629004127 L4.503465169650056 0.19288114629004127 L4.495734049650039 0.19886259129001616 L4.486375325650002 0.2024433212900263 L4.5124983726500005 0.16289253929003422 L4.534145508650013 0.12057483129004964 L4.552049153650003 0.05701688829001483 L4.556193026426129 0.04828225696754629 L4.579381924650036 0.04647571629003977 L4.630128181650107 0.03453846029000118 L4.6414969966500195 0.035778695290041185 L4.657206631650084 0.07432931329002912 L4.66227092265008 0.09479318028999018 L4.660100512650061 0.11308663729004564 L4.653485928650085 0.14280058629002923 L4.649351814650075 0.232510872290014 L4.642633877650113 0.2468769202900134 L4.623306892650092 0.2714232262899756 L4.618449307650067 0.2863577152900163 L4.622893480650035 0.3034109372900602 L4.6461478756500725 0.3316262692900338 L4.650798754650069 0.34408028929001233 L4.643667406650096 0.35715442728996294 L4.63074829865009 0.3661978032900137 L4.619999601650093 0.3766364412900529 L4.619172777650036 0.39379301729001526 L4.623927009650018 0.4384931312900662 L4.629611417650054 0.4504820632900177 L4.631292412650069 0.4513692552900679 L4.635192471650001 0.4534276202900216 L4.658653572650067 0.45725167629006336 L4.667645271650102 0.4639179362900663 L4.6775671456500305 0.48407174529005914 L4.684595140650018 0.49156482828998804 L4.700304776650015 0.4954922362900547 L4.7163244706500365 0.49275338529002255 L4.757851588494148 0.4818847344373509 Z M4.739420934650028 0.7782550132899857 L4.712420934650098 0.7968041742900809 L4.714464118650042 0.8130439132900378 L4.717676805650015 0.823083530289999 L4.72368351565008 0.831342756290006 L4.7139226116500055 0.8418544992900578 L4.687171772650075 0.8539566902900546 L4.684919256650019 0.8787343692899796 L4.68642093465003 0.888495272290065 L4.698754483650092 0.894072558289956 L4.714567471650085 0.8981549972899572 L4.73100057765005 0.8916954422899934 L4.76055949665006 0.8724201332900563 L4.7719460966500975 0.8634840442899971 L4.79522209765004 0.8559756572900525 L4.823171772650042 0.8428024962900551 L4.827919256650105 0.8153058512899563 L4.788165062650037 0.8080024962899799 L4.769484678650102 0.7817873992900601 L4.739420934650028 0.7782550132899857 Z M4.741822611650107 0.8601075292899552 L4.738374657650084 0.8333485402900678 L4.743871772650053 0.8281550132900506 L4.752608066650012 0.8280411672900456 L4.767124289650113 0.8374041742900644 L4.761775346650111 0.8538542982900239 L4.741822611650107 0.8601075292899552 Z M2.1357893886500534 1.9509377872900373 L2.1182926436500367 1.9488625912900162 L2.106980794650056 1.945119102290029 L2.1065738936500367 1.9373879822900122 L2.1221175136500534 1.9230650652899968 L2.133429362650034 1.916717409290051 L2.134894205650042 1.9159036072900122 L2.134894205650042 1.915822227290029 L2.159471028650003 1.9074807552900452 L2.169969075650002 1.90259794329004 L2.189012044650056 1.8870136332900316 L2.194627278650003 1.8836363542900258 L2.2016259766500212 1.8794452742900276 L2.2059391276500406 1.8781838802900452 L2.2177392586500133 1.8746438412900162 L2.2270979826500508 1.8748879822900122 L2.241746419650056 1.8806252872900373 L2.243943685650052 1.8810728782900483 L2.2490706386500534 1.8820901302900452 L2.255906575650002 1.8794452742900276 L2.2798323576500508 1.86158231829004 L2.3074202476500005 1.8508808212900263 L2.318406575650002 1.8449807552900452 L2.3269514976500005 1.8342792582900316 L2.3323225916500547 1.846649050290047 L2.3311018886500534 1.8495787372899954 L2.3269514976500005 1.8547463802900452 L2.337205403650003 1.8701272402900386 L2.341844075650002 1.8746438412900162 L2.3673974616500146 1.889373659290051 L2.371140950650002 1.891489545290007 L2.4054020186500367 1.8979592712900413 L2.412726237650034 1.9006855082900316 L2.433396810650052 1.9083352482900082 L2.4436507166500547 1.9367369402899968 L2.429816080650042 1.9596047792900109 L2.3992171226500005 1.9694924742900426 L2.363409830650042 1.9681497012900095 L2.333787435650052 1.9571633732900082 L2.3359033206500186 1.9478860292900109 L2.328172200650002 1.935109336290033 L2.316209310650052 1.93189481829004 L2.3057926436500367 1.9509377872900373 L2.3132796226500005 1.9571633732900082 L2.2860986336500133 1.973358034290051 L2.253465169650056 1.979217409290051 L2.220262044650056 1.9758401302900452 L2.1903955086500133 1.9646096622900373 L2.173142903650003 1.9557392192900025 L2.1729801436500367 1.9556985292900109 L2.1630517586500133 1.9526060812900496 L2.1357893886500534 1.9509377872900373 Z M2.6695621746500393 1.8820901302900452 L2.659633789650016 1.8642678652900386 L2.638149414650016 1.8555194922900355 L2.6129215496500393 1.8489276962900263 L2.591355794650056 1.8376565372900373 L2.5803694666500547 1.8116555602900135 L2.5803694666500547 1.8115741802900303 L2.5940413416500547 1.790822227290029 L2.6157698576500508 1.7824400652899968 L2.620896810650052 1.7866311462900413 L2.6291975916500547 1.7933450132900148 L2.654669596650038 1.8191832292900258 L2.6671207686500367 1.831837852290029 L2.6777001956500186 1.8562112242900426 L2.6776188156500353 1.8562519142900342 L2.6695621746500393 1.8820901302900452 Z M1.0532698576500508 1.7653909122900373 L1.065965169650056 1.7488300392900342 L1.0898909506500019 1.7360940372900373 L1.1132575166500516 1.7427307182900122 L1.1241710836500403 1.7586114642900057 L1.1296511846500294 1.7844312862900225 L1.127569987650034 1.7998147402900386 L1.1060042326500508 1.825734336290033 L1.087449544650056 1.8410745052900452 L1.0709506076500048 1.855962631290005 L1.0578612036500346 1.843071170290024 L1.0469356496500524 1.8262030872900041 L1.0349006806500398 1.802384100290034 L1.0370357176500562 1.7825175602900245 L1.0532698576500508 1.7653909122900373 Z M1.8015555176500158 1.846639795290038 L1.7874627996500436 1.8307074042900027 L1.773300701650001 1.8296635292900092 L1.7548043466500332 1.8206641072900211 L1.744938758650008 1.8355209272899984 L1.7067977896500253 1.8304330762900136 L1.6926338916500328 1.8284047642900205 L1.6715152996500393 1.8323261332900316 L1.6679345706500186 1.8334654562900496 L1.6653304036500032 1.8333840762900095 L1.6628889976500005 1.8280943622899954 L1.6633772786500032 1.8223163672900355 L1.6664697266500212 1.8150735292900109 L1.670050455650042 1.8089700132900148 L1.6731429036500032 1.8063658472900457 L1.7105777996500393 1.8137714462900263 L1.7206689456500186 1.8115334902900386 L1.7463850916500547 1.8010761332900316 L1.751512044650056 1.7967629822900122 L1.7568831386500534 1.7931822532900483 L1.7898424036500415 1.7810847772900402 L1.8084029456500303 1.773215106290003 L1.817123423650017 1.7732499372899966 L1.8268613076500202 1.7891686732899998 L1.836645669650025 1.794169803290039 L1.845506185650052 1.7900898052900303 L1.8477034506500019 1.7791848572900122 L1.8464827476500005 1.768442670290007 L1.8403792326500508 1.7585956642900342 L1.8778955086500133 1.707895795290007 L1.8955550136500534 1.6965025652899968 L1.8964501956500186 1.7022805602900135 L1.9009261076500508 1.7121682552900452 L1.9023909506500019 1.7175800392900342 L1.925584310650052 1.729380170290007 L1.9258284506500019 1.7295022402900386 L1.9192366536500032 1.768076459290036 L1.9064284646500056 1.780571008290032 L1.867136207650006 1.7972739322900466 L1.848569358650039 1.808112792290025 L1.824589228650055 1.810995359289997 L1.8103855946500431 1.820867367289999 L1.8103380386500163 1.8317844452900331 L1.8015555176500158 1.846639795290038 Z M2.861375325650002 1.6698098572900122 L2.8136051436500367 1.6561379822900122 L2.8136051436500367 1.6403909122900373 L2.854132487650034 1.60572294329004 L2.8682112636500534 1.586639284290051 L2.875047200650002 1.586639284290051 L2.8682112636500534 1.6077574482900232 L2.8754541016500212 1.625864545290007 L2.8931136076500508 1.6387226172900355 L2.9302229826500508 1.6561379822900122 L2.948533528650003 1.6728616152900386 L2.949347330650042 1.684295534290051 L2.9355126956500186 1.6885273052900303 L2.9092268886500534 1.684092084290036 L2.861375325650002 1.6698098572900122 Z M2.7451643886500534 1.8148293882900148 L2.736131185650052 1.8215839462900263 L2.726609700650002 1.8261412372899954 L2.718064778650003 1.828135052290044 L2.707078450650002 1.827931602290029 L2.700974935650052 1.8248391542900109 L2.6838850916500547 1.8064065372900373 L2.671189778650003 1.7982278262900095 L2.661912435650052 1.7943215762900095 L2.658250325650002 1.7878925392900342 L2.663377278650003 1.7722675392900342 L2.6707014976500005 1.7631529562900496 L2.6825830086500133 1.7555845972900457 L2.696824544650056 1.7513528262900095 L2.7112288416500547 1.751759727290029 L2.720017903650003 1.7685647402900386 L2.729946289650016 1.782765586290033 L2.7522444666500547 1.8064065372900373 L2.7451643886500534 1.8148293882900148 Z M2.8046533206500186 1.7362974872899954 L2.8140934246500393 1.7453306902899968 L2.8149072266500212 1.7590025652899968 L2.804246419650056 1.788055300290047 L2.787726237650034 1.7954608992900276 L2.760382487650034 1.7518411072900122 L2.757859700650002 1.7448830992900426 L2.764939778650003 1.7437844662900162 L2.776007487650034 1.7464700132900148 L2.7856917326500508 1.7520852482900082 L2.7901676436500367 1.7540383732900082 L2.7914697266500212 1.7494810812900496 L2.7887027996500393 1.744150677290044 L2.7739729826500508 1.7341002222900457 L2.770799153650003 1.7248228782900483 L2.7836572266500212 1.7233987242900426 L2.8046533206500186 1.7362974872899954 Z M0.788540039650016 1.5698342712900413 L0.8113610476500099 1.5839163742900055 L0.8180347756500197 1.6077784112900204 L0.8050200056500358 1.6286843462900507 L0.7930239916500028 1.633679690290002 L0.7784488936500367 1.6264342062900496 L0.7732405606500521 1.6203306902899968 L0.7683577476500005 1.6177265242900276 L0.7620100916500547 1.6123147402900386 L0.7611339136500561 1.5989280022900303 L0.769823856650035 1.5879664512900504 L0.7774173636500024 1.576013031289996 L0.788540039650016 1.5698342712900413 Z" fill="black" stroke="black" stroke-width="0.5" vector-effect="non-scaling-stroke"/></svg>