<svg xmlns="http://www.w3.org/2000/svg" viewBox="0 0 5.435095489800034 4.97406344579997"><path d="M0.8898538333348256 0.14241246978538769 L0.9058043809000651 0.15594224790001476 L0.9251830429000165 0.2082387979000231 L0.95665399089998 0.22632554989995413 L0.9816653838999798 0.22859931289997348 L1.0254353218999768 0.22177802290001125 L1.0495165389000078 0.22136461190000034 L1.062849058900042 0.22735907789993348 L1.0778352249000136 0.24761623890002227 L1.093389830900037 0.25102688389996786 L1.1032600289000243 0.24678941690000045 L1.1260493359000066 0.2291160768999987 L1.1388134138999817 0.22384508089997723 L1.1583471059000772 0.22456854989997055 L1.1709044788999847 0.23169989790000045 L1.1816531769000278 0.24017483290000996 L1.1961742549000576 0.24523912289998862 L1.2040290719000097 0.24265530189998685 L1.2164314158999616 0.22963284089995284 L1.2222708529000386 0.2270490189000327 L1.2301773469000068 0.2305630168999926 L1.2425796899000545 0.2423452429000008 L1.2475923049000244 0.24523912289998862 L1.2800451039000507 0.239244656899956 L1.3089322289000052 0.2194009068999634 L1.3288276558999996 0.1911855758999934 L1.334305357900007 0.15976630389997126 L1.3417984399000318 0.13423814690001734 L1.363089130900022 0.10188869989994487 L1.3903742869000268 0.07305325190000644 L1.4155407088999823 0.05796373290000645 L1.4254109079000443 0.0586872029000034 L1.4441177759000254 0.06643866790000175 L1.4547631209000258 0.06654202090003025 L1.474348488899949 0.05765367490000983 L1.4813764839000498 0.05537991090000105 L1.518066750900033 0.049385444899968434 L1.538117206899983 0.04876532789999999 L1.5862796418999494 0.06044420189998334 L1.6234349969000448 0.0548631469000469 L1.6613654968999754 0.05393297090000715 L1.6974873239000772 0.0757404259000225 L1.7160391629000173 0.10281887589998462 L1.7256509799000241 0.11325751590001687 L1.7878694039000322 0.1502578408999824 L1.818901101899968 0.1631769488999879 L1.8358251329000552 0.1732021769000056 L1.8508629749000534 0.1858112258999398 L1.8600613799000314 0.19935045090001324 L1.863368671900048 0.2196076129000204 L1.860216408899987 0.23004625289996739 L1.8613016148999861 0.23655748289993994 L1.8772437939000213 0.24523912289998862 L1.8874498888999938 0.24751288590000797 L1.8970358679000014 0.2473061808999546 L1.9068285509000589 0.24844306189996246 L1.917628925899976 0.25433417590005547 L1.9230291129000534 0.2599152308999777 L1.931865782899962 0.27242092689996866 L1.968891945900026 0.30921454589997666 L1.981345966899994 0.3178961879000184 L1.998089130899956 0.331228706900049 L2.051367531900013 0.3606842728999595 L2.068007342900046 0.3754637328999735 L2.092191913900024 0.410810412899977 L2.1066613149000375 0.4276569298999533 L2.1200455108999847 0.4377855098999959 L2.1661150499000144 0.4602130818999939 L2.22469028590001 0.5030011679000239 L2.257556496900037 0.5172638628999948 L2.2775552768999887 0.5338003218999887 L2.3091295758999593 0.5664598268999725 L2.3148139838999953 0.5774152299000406 L2.317475319900012 0.5879572229000019 L2.321841978900011 0.5976723919000335 L2.3330040879000364 0.6058372678999717 L2.3523310738999896 0.616689317899926 L2.36096103790004 0.6238206658999559 L2.367601459900044 0.6321922479000222 L2.4007518908999543 0.6880027958999904 L2.4157897329000377 0.7042291948999946 L2.481289610900035 0.75011786689997 L2.497335142899999 0.7777130819000604 L2.5036423547503404 0.8074544071452188 L2.503691343900016 0.8076854128999997 L2.5036299183199944 0.8080565527112498 L2.498782082899993 0.8373476838999636 L2.481289610900035 0.8645294878999579 L2.477129657900008 0.8862335898999589 L2.476302834900082 0.9517593059000404 L2.4702566929000227 0.997441271899973 L2.470463397900005 1.0190420208999456 L2.4756285079000406 1.0261918148999882 L2.481289610900035 1.0340281858999987 L2.482772360900043 1.0338410138999734 L2.5074895619000586 1.0307208949 L2.573299497900024 1.0343382448999847 L2.604460387899991 1.0288605429000057 L2.6283865748999915 1.028653836900034 L2.638050067900025 1.0264834268999579 L2.646059915899997 1.0212124309000217 L2.6505040879000035 1.015838080899968 L2.6542506299000195 1.010050321899996 L2.660167580900037 1.0036424439000484 L2.6759185072566396 0.9945648772776643 L2.676124532544762 0.9944461408785159 L2.7145053499000085 0.9723265258999447 L2.729052264900048 0.9603375928999895 L2.7371396268999604 0.9448346638999681 L2.7477591339000185 0.910521512900047 L2.7607557568999823 0.897292345899956 L2.779901874900048 0.8953286419000221 L2.8043448269000066 0.8996694619000039 L2.8268240759000207 0.9012197548999268 L2.839898212899982 0.8908844689000119 L2.841577696900032 0.8718675408999559 L2.8380636988999868 0.8306297488999519 L2.842972960899999 0.8128530559000069 L2.8586050809000483 0.7995205358999868 L2.879740741900008 0.7952830689000336 L2.9007730499000104 0.8002440068999874 L2.92878167690003 0.8283559859000178 L2.9651618848999988 0.8464427368999452 L2.9813366079000048 0.8580182578999853 L3.003557473900031 0.8815827108999912 L3.05006626290006 0.9174461549000199 L3.1240669138999806 0.9892763949000454 L3.1387946968999927 1.0081899698999877 L3.1442207229000587 1.024623075899953 L3.1476830428999847 1.0603831658999638 L3.154607684899986 1.0775397418999404 L3.1657181189000028 1.0868414999000464 L3.1989460649000137 1.1055483679000275 L3.210418231900036 1.1209479458999283 L3.2239057808999974 1.1624957969000036 L3.232664935899976 1.1805825479000163 L3.248297056900043 1.1964988888999528 L3.265091896900003 1.2053872358999627 L3.3043659858999774 1.2184096959000073 L3.3230211779000456 1.2283315719 L3.3704084669000167 1.2654352488999763 L3.390200539899979 1.2761839469000051 L3.405393410900018 1.278664415899982 L3.4183900338999536 1.2724632438999919 L3.431541685900015 1.2567536089000129 L3.4503002309000124 1.224507514899969 L3.4632710149000445 1.2206834589000124 L3.481151060900004 1.2397003858999938 L3.4972999458999823 1.2636782509 L3.52300897089998 1.292720405899999 L3.551844420900011 1.3175250938999454 L3.592358742900018 1.3339581988999925 L3.6048386019000134 1.3451203089000217 L3.6164916368999798 1.3582461218999953 L3.629281553900057 1.3695115848999677 L3.6427432649000195 1.37695299089998 L3.6728706248999856 1.3871849238999658 L3.838519428900014 1.4076487909000122 L3.872961770900048 1.4075454378999979 L3.8881029648999856 1.411679553900015 L3.9011254259000054 1.4229450148999803 L3.9187987659000214 1.454364285900013 L3.930270933900033 1.4678001578999726 L3.9829808948999528 1.5041803668999592 L3.997605324900036 1.5175128858999756 L4.009490903900058 1.5358063439000347 L4.013676694899999 1.5533763299000185 L4.015278664900023 1.5939940058999582 L4.02542567590001 1.6161329388999661 L4.028921242900026 1.623759631900029 L4.056154723900022 1.646187202899938 L4.088969256899958 1.66654771689997 L4.119148293900054 1.6908356398999729 L4.149689064900031 1.7212213819000226 L4.218418719900029 1.7752749309000109 L4.273867532899999 1.808554552899949 L4.323063495899959 1.847828640900019 L4.346369566899995 1.8617812789000112 L4.357583352900036 1.8608511028999573 L4.367143491900038 1.850412463900014 L4.385333596899983 1.835839708899968 L4.404195494899994 1.8300519488999925 L4.4238325389000295 1.8318089478999724 L4.442901141900023 1.8390436479000272 L4.460006041899959 1.8499990519000136 L4.466000507899992 1.8567169878999437 L4.474940530900028 1.8714964478999576 L4.483932228900045 1.8784210898999447 L4.493750750900034 1.8816250279000002 L4.5266686388999915 1.8844155558999631 L4.543876890899952 1.8888597288999733 L4.558294614899978 1.8944407838999808 L4.586820005900023 1.911183947900028 L4.598498879900006 1.922035998899986 L4.602891376899976 1.9322679318999718 L4.605371845899953 1.942396512900018 L4.61121128190004 1.9531452109000327 L4.621546568899959 1.9633771439000185 L4.634569029900007 1.973092312899965 L4.662215920899996 1.9883368608999916 L4.720816994900019 1.998982205899992 L4.7353380718999745 2.006940376899962 L4.741280862899998 2.020686307899993 L4.742624449900035 2.055929634899968 L4.771201516900021 2.1143240029000197 L4.8220511258999466 2.1782994259000077 L4.834091734899999 2.206204699899999 L4.840809670900029 2.2402077919000334 L4.843961932899987 2.2905406369000048 L4.848767841899985 2.3074905069000096 L4.8578628929000445 2.320616320899987 L4.883339374899975 2.3397366008999825 L4.893726337900006 2.3518288858999625 L4.910676206900007 2.3776671018999878 L4.931346779900025 2.401438260899951 L4.955014585900045 2.422108833899955 L5.0180081578999705 2.460142687899989 L5.077022642900005 2.516056587899982 L5.1335566599000515 2.532179633899972 L5.1766031279000515 2.5546072058999556 L5.193552997899985 2.5590513798999694 L5.225747414900013 2.559258084900023 L5.258923683900036 2.5765180128999248 L5.291169777899995 2.589127062900033 L5.306517677899961 2.598635526899926 L5.372870216899997 2.659303657899997 L5.381810239900034 2.674289822899979 L5.378606301899964 2.6924799269000204 L5.365790546900058 2.706742622899995 L5.329565367900017 2.730617134899987 L5.3098100698999815 2.7517996208999875 L5.2887926619000325 2.7743353958999677 L5.2218200068999465 2.8156765428999933 L5.1938113799000405 2.8409979938999754 L5.185646503900017 2.8590847458999917 L5.183062681900026 2.8962917758999964 L5.176344745899996 2.9145852338999703 L5.165337664899994 2.925540637900042 L5.043536314900024 2.993960232899937 L5.009326516900018 3.0191783318999796 L4.981111184899959 3.05111436789997 L4.981059508900046 3.0512177208999844 L4.98100783190003 3.051321072899924 L4.971984621900049 3.0768745079000013 L4.955789732900058 3.1227379029000133 L4.95651320289997 3.1965318478999762 L4.978630715899982 3.346806912900007 L4.955841409899989 3.511758084899924 L4.952999205899999 3.6011583129000115 L4.981111184899959 3.642189399899962 L5.001575051900005 3.642189399899962 L5.019455097899964 3.6392955198999744 L5.035939878900052 3.639398872900003 L5.0522179549000725 3.6490106899000097 L5.061829771900079 3.665340441899957 L5.069012795900022 3.6829104288999304 L5.081363462899986 3.6941758908999844 L5.113551812460855 3.692571488214341 L5.096294689899992 3.702479107900004 L5.077862072900018 3.7163137428999704 L5.041729260900013 3.7534231178999704 L5.019593843899997 3.786463482900004 L5.0070612919000155 3.8212128318999845 L4.987123140899996 3.90422064389999 L4.9679987919000155 3.954269471899991 L4.962709077900001 4.000005148899973 L4.953187593899997 4.0143280658999885 L4.918194103900021 4.034591737899987 L4.901429780900003 4.047368430899965 L4.852683036899975 4.09953314389999 L4.799053478900021 4.133631450900012 L4.781638114899977 4.150721294900009 L4.745993582899985 4.209315044900009 L4.736675549899985 4.219568950900012 L4.734356213900014 4.23039251889999 L4.712749767899993 4.287928325900012 L4.728985119900017 4.324386659899986 L4.7277644169000155 4.342290305899965 L4.68687086189999 4.352869732900004 L4.594341564899992 4.395838482900004 L4.520407645899979 4.439132753899983 L4.368023205899988 4.5623423889000065 L4.355856864899977 4.575851503899983 L4.351706473899981 4.592941346899991 L4.352154064899992 4.6083222068999845 L4.346742280900003 4.619471294900009 L4.255840588900014 4.636398378899983 L4.2329727499 4.637863221899991 L4.237041760900013 4.629399680899965 L4.243145275900019 4.6228892639000065 L4.2603164999 4.6100311908999885 L4.253317801899982 4.60498561789997 L4.246970145899979 4.598800721899991 L4.242168713900014 4.591232362899987 L4.239808687899995 4.5826874408999885 L4.2414362919000155 4.57023626889999 L4.251568127899986 4.545903586899968 L4.254050223899981 4.5416718158999885 L4.239361095899994 4.529464784899986 L4.212302176899982 4.519861919900009 L4.183697033899989 4.514083924899992 L4.164043713900014 4.513677023899973 L4.175274181900022 4.520512961899968 L4.212505627899986 4.534184836899968 L4.204489676899982 4.5467173889000065 L4.188213635900013 4.56047064389999 L4.169536877899986 4.571294211899968 L4.154156017899993 4.575851503899983 L4.148011812899995 4.582524680899965 L4.147849051899982 4.596115174899992 L4.155254650900019 4.606613221899991 L4.171490002899986 4.6044159568999845 L4.170065848899981 4.5966034568999845 L4.184958426899982 4.599289003899983 L4.203431733900004 4.612147075900012 L4.212505627899986 4.634201112899987 L4.204571056900022 4.646896424899992 L4.186179129899983 4.659591737899987 L3.961854585900028 4.758794211899968 L3.950583426899982 4.763677023899973 L3.8884903279000014 4.778325461899968 L3.856182385900013 4.80070501889999 L3.8357559529000014 4.80851751889999 L3.7931941039000208 4.819341086899968 L3.619935640899996 4.888107362899987 L3.5989395468999987 4.891118430899965 L3.578920015899996 4.8971405658999885 L3.5533259398999917 4.92179876889999 L3.5340388308999877 4.92529811789997 L3.5386775028999864 4.915206971899991 L3.5408340779000014 4.9088593158999885 L3.540874767899993 4.904790305899965 L3.5304174118999754 4.8915253318999845 L3.5169082968999987 4.88037624289997 L3.4990860309000027 4.8728892639000065 L3.4595759398999917 4.86865749289997 L3.4571752238999807 4.86475124289997 L3.4581110958999943 4.858403586899968 L3.451519299899985 4.84953314389999 L3.441387463900014 4.84326686789997 L3.4322728798999833 4.8396861389000065 L3.410503674899985 4.83586126889999 L3.3628555628999948 4.83781439389999 L3.270895926899982 4.855636659899986 L3.232403088900014 4.84953314389999 L3.2061579708999943 4.828130148899973 L3.1543594688999974 4.770675721899991 L3.115703869900017 4.753341737899987 L3.0907201458999793 4.75187689389999 L3.0244427738999775 4.7472976689000035 L2.9830105598999808 4.750960047899994 L2.9314733269000044 4.739729689900017 L2.8908519179000223 4.72431016489999 L2.845915537899998 4.732995493899992 L2.7991987058999825 4.716636662900001 L2.7361433669000235 4.734561874899967 L2.7005955688999848 4.726029370900008 L2.6338598989000275 4.744956185899994 L2.6035449438999763 4.7553703338999895 L2.53821485589998 4.791297807899994 L2.4885945619000154 4.820997273900005 L2.423011888900021 4.852898049899991 L2.3874479639000015 4.850311644900003 L2.357013691900022 4.86472425289999 L2.3427546509000194 4.872238221899991 L2.336558030899994 4.893083778900021 L2.315356515900021 4.868220018900004 L2.2981364538999856 4.865404203899985 L2.279644737900014 4.859588746900002 L2.2879857708999793 4.850591086899968 L2.289191724899979 4.83939814190002 L2.2780572179000274 4.831483401899973 L2.2620954229000176 4.829645514900008 L2.2561379109000086 4.844779726899972 L2.236309338900014 4.8580780658999885 L2.226822713899992 4.858161667900006 L2.2046703428999876 4.855384711900015 L2.181377697900018 4.8580780658999885 L2.149883556900022 4.83586126889999 L2.089702892899993 4.806645773899973 L2.074199963900014 4.794927023899973 L2.0718806278999864 4.780115825900012 L2.0888958259000105 4.767946936900003 L2.1057988479000187 4.753765750899973 L2.1313647959000264 4.748531565899967 L2.1165267209000262 4.73462476189998 L2.0969080438999868 4.727775581900019 L2.0442143489000273 4.710167977899985 L2.0075586268999928 4.7054453798999845 L1.9722019929000112 4.706716400900021 L1.9507461878999948 4.718917909899986 L1.9346329059000027 4.716964784899986 L1.9190485958999943 4.71086126889999 L1.8816950808999877 4.69133001889999 L1.8641169558999877 4.6844940818999845 L1.8462843039000063 4.674537033899995 L1.7791018889000156 4.658932769900005 L1.6973569369000074 4.650387869900001 L1.6187556278999864 4.622075461899968 L1.6019506148999767 4.6119843158999885 L1.5884821898999917 4.58740749289997 L1.5728978798999833 4.5751190818999845 L1.5397761359000128 4.5553436908999885 L1.5160692049000204 4.532941089899978 L1.4952293109000152 4.51596433089999 L1.4768588498999975 4.503987000900011 L1.449929278900015 4.49002036589998 L1.4352209959000106 4.4790225878999905 L1.4367487919000155 4.465337180899965 L1.4302383749 4.458419862899987 L1.4156306278999864 4.450037700900012 L1.4094864218999987 4.445480409899986 L1.3906875938999974 4.427739523899973 L1.3726211878999948 4.414881450900012 L1.3406822238999894 4.402827718899985 L1.289448367899979 4.393969008900015 L1.200487952900005 4.392228164899976 L1.1457047198999817 4.395354842899977 L1.1274464598999998 4.382335926900012 L1.0812181228999975 4.383401135900002 L1.0556725678999896 4.3964710789000065 L1.0435161989000221 4.383433587899972 L1.0179834969000012 4.3814367659000055 L0.9900110999000162 4.39247799890002 L0.9547326818999977 4.4055092038999675 L0.9231709279000029 4.378399490900009 L0.8976491569000018 4.377368485899993 L0.8684689259000038 4.382347477900012 L0.8283228038999937 4.3973332439000075 L0.7723462678999908 4.415268718900009 L0.7541109899000276 4.413213184899988 L0.7285315588999879 4.426190100900001 L0.6993443379000155 4.4240922338999695 L0.6701368258999878 4.427004087900016 L0.6372922199000186 4.42286260089999 L0.6470616979000283 4.414874602900014 L0.6385987108999984 4.399777161899991 L0.6106271779000281 4.392619685900016 L0.5924565628999972 4.368420196900004 L0.5950468218999845 4.3282343278999775 L0.5698868128999948 4.3055878318999845 L0.5499079708999943 4.278162700900012 L0.4757299119000322 4.20500189389999 L0.4428523069000221 4.191899680899965 L0.4312556278999864 4.176600200900012 L0.415671317899978 4.143885357900004 L0.3980525028999864 4.129725200900012 L0.37327222890002076 4.121098898899973 L0.3467422809000027 4.1170298889000065 L0.32354892189999873 4.1158905658999885 L0.29644931289999477 4.111333273899973 L0.28391676090001283 4.09953314389999 L0.2723200808999877 4.061935487899987 L0.2608047809000027 4.040695253899983 L0.17612867489998507 3.9384003318999845 L0.1578181278999864 3.925216737899987 L0.12022047089999433 3.906255148899973 L0.10382235890000402 3.893966737899987 L0.08994703389998904 3.874679628899983 L0.08262281489999168 3.8541718158999885 L0.05800530189998199 3.736821555899965 L0.05328524990000005 3.650395773899973 L0.0668757449000168 3.564783794900009 L0.06362053690003222 3.5439504618999678 L0.05759840090001944 3.524256450900012 L0.05430250289998639 3.503341737899987 L0.059429455899987715 3.479660096899991 L0.07306064089999609 3.460128846899991 L0.107281017899993 3.422205669900009 L0.11407626589999609 3.400558534899986 L0.10776929989998507 3.381027284899986 L0.08005933890001415 3.361496034899986 L0.07371168190002209 3.341802023899973 L0.08005933890001415 3.323572857900004 L0.09544019790001812 3.3075409568999845 L0.13145093989999168 3.277674419900009 L0.14190829689999873 3.2576548889000065 L0.14341383089998772 3.234705669900009 L0.12660881789997802 3.1479543678999704 L0.12571363590001283 3.105636659899986 L0.1412572548999833 3.073572857900004 L0.18235426090001283 3.060714784899986 L0.27529045789998463 3.0654348368999678 L0.318218517899993 3.0623423889000065 L0.354880301899982 3.047042909899986 L0.39247795789998463 3.01750189389999 L0.40891676090001283 2.999435487899987 L0.415671317899978 2.982589784899986 L0.41733961189999036 2.9593964248999924 L0.42197828389998904 2.941411398899973 L0.43683017189999873 2.903732362899987 L0.4441543908999961 2.863611919900009 L0.43552808890001415 2.833664003899983 L0.415427176899982 2.809738221899991 L0.3721735958999943 2.771164003899983 L0.36187899990000005 2.7545624408999885 L0.3565079059000027 2.73625189389999 L0.354880301899982 2.715337180899965 L0.35679273689999036 2.670252544900009 L0.3549616819000221 2.6474660868999678 L0.3474747029000014 2.630050721899991 L0.354880301899982 2.6225637428999704 L0.34641676090001283 2.596847596899991 L0.3354304319000221 2.527023378899983 L0.32354892189999873 2.5127004618999678 L0.3155329708999943 2.496912700900012 L0.295228608900004 2.4217173889000065 L0.29252276189995996 2.3990965578999948 L0.2929218939000293 2.396684028899955 L0.3026887398999918 2.385831977899997 L0.32770013289999156 2.3413902458999303 L0.39105543889999694 2.2632554809 L0.3961197288999756 2.23286973889995 L0.38573276689996305 2.203724230900022 L0.3174165229000039 2.126002876900003 L0.30609938490002264 2.1048155398999455 L0.31178379189998395 2.084351671899981 L0.3338496288999693 2.0534491648999875 L0.34433994390002454 2.0147951938999853 L0.34733717790001606 1.9697850218999662 L0.343616474900017 1.9271002888999647 L0.3338496288999693 1.8957843709000457 L0.3023270049000075 1.865191922899939 L0.29002801389995625 1.8450381138999603 L0.2966425969000568 1.8244708938999707 L0.3240311069000086 1.7979092078999628 L0.3397924179000711 1.787883980900034 L0.3618065789000582 1.7797191039000069 L0.4091938669000399 1.7716575798999372 L0.43337843790001784 1.7633893508999847 L0.4437653999000304 1.749023302899971 L0.5040201209000088 1.5947174768999588 L0.5130634958999565 1.5506891558999882 L0.505828795899987 1.5060407188999534 L0.4793187848999878 1.477515327900008 L0.4536683709000613 1.4605329848999702 L0.44185337289999893 1.4527106408999657 L0.417410419900051 1.4270791298999939 L0.4300711459000013 1.3961766239000042 L0.44908807289996844 1.3825340459000017 L0.4867085159000055 1.362897000899963 L0.5024181508999561 1.3512181278999833 L0.5121333199000162 1.3324079058999843 L0.5170942579000553 1.2870359978999488 L0.5262926629000333 1.2664687779000587 L0.5331656279000185 1.2598541948999724 L0.5496504099000106 1.2486920858999326 L0.5570401399000104 1.2421808548999707 L0.5778140658999575 1.2043537068999797 L0.5875292348999892 1.192881538899968 L0.5876325879000035 1.1669399699000138 L0.5809146508999845 1.1224982379000323 L0.5936270538999509 1.0783665648999516 L0.6188968289000059 1.044983589899985 L0.6373969919000331 1.010877143900018 L0.6293354678999492 0.9641616499000207 L0.5871674999000049 0.9107282179000009 L0.5809146508999845 0.8992560508999929 L0.5886661158999971 0.8815827108999912 L0.6073213088999694 0.8707306599000333 L0.6498510119000116 0.8611188429000265 L0.6730020539000066 0.8634959588999749 L0.6854043969000827 0.8594651978999792 L0.6907787468999516 0.8443756788999792 L0.6965148309000142 0.8202944619000334 L0.6976517119000221 0.8098558228999906 L0.6966181829000391 0.7681012649000394 L0.6932492798999874 0.7433562228999762 L0.6907787468999516 0.725209825899995 L0.6839872128999787 0.6992267328999873 L0.6747590519000823 0.6639215779000409 L0.6664391469000179 0.6415973588999861 L0.6441149278999774 0.5998428018999391 L0.6293354678999492 0.5805158158999859 L0.6068562209000277 0.5417584919000404 L0.6028771348999555 0.5026911088999384 L0.6155378608999911 0.46672431189996644 L0.6430297228999677 0.43716539390003106 L0.8399169299000562 0.2809992149000067 L0.8615693559000306 0.24895982590000187 L0.8689074089000428 0.20999579690000303 L0.8546963899000843 0.16700100490002967 L0.8501805355520204 0.1449876186620962 L0.8898538333348256 0.14241246978538769 Z" fill="black" stroke="black" stroke-width="0.5" vector-effect="non-scaling-stroke"/></svg>