<svg xmlns="http://www.w3.org/2000/svg" viewBox="0 0 0.14066673324003887 0.082050283079937"><path d="M0.13923212787372563 0.07516214194120607 L0.12657681861999492 0.07479583853994143 L0.09681304561998161 0.07983437253993486 L0.07231836761998522 0.08124586853993776 L0.06894185962001131 0.07537571453995895 L0.06986026561999381 0.05866881053991335 L0.07657477962000314 0.05368394453994085 L0.08776417662001279 0.04898081053993053 L0.11160001762000604 0.031927443539913725 L0.11639737662001437 0.028304467539939537 L0.12984945261997893 0.0296308515399204 L0.13319639461998634 0.019238286539959404 L0.12963578161999578 0.013029301539958738 L0.11747958861998598 0.00533387053995682 L0.10437601861998758 0.016775538539931745 L0.10043234062000295 0.014313705539947819 L0.09460011362001808 0.007395524539944631 L0.09720215818684608 0.0008374943680955482 L0.1392876476200371 0.0008044145399992431 L0.13923212787372563 0.07516214194120607 Z M0.07404549462002308 0.0017401095399662836 L0.06588507561998824 0.005823354539913339 L0.06302419361999512 0.01486410753993539 L0.07083709362002821 0.02200327153995829 L0.07750458661998039 0.03348837953994632 L0.06204803061997666 0.036611019539961376 L0.050282830620020036 0.03879394053994645 L0.04111138662001679 0.04529302353994069 L0.03820197862002317 0.050477634539944916 L0.0325933026200147 0.04953275953992886 L0.03084987962002117 0.044036842539910026 L0.0252864616200128 0.043140598539920916 L0.019737180619998185 0.04610698753991471 L0.016127956619996553 0.04838245253993989 L0.016379085619988132 0.05292900953996593 L0.028487086619989554 0.060853106539966006 L0.042023934619990655 0.06241885353993837 L0.04323575761999621 0.0660713095399359 L0.02674465961997896 0.066611494539913 L0.0031694496199889954 0.07193002953992789 L0.0013790856200017743 0.07233693053994728 L0.005268659620057292 0.034947613539884514 L0.05537587562004376 0.0016563115399605977 L0.07404549462002308 0.0017401095399662836 Z" fill="black" stroke="black" stroke-width="0.5" vector-effect="non-scaling-stroke"/></svg>