<svg xmlns="http://www.w3.org/2000/svg" viewBox="0 0 17.516257959420095 8.541043005479949"><path d="M15.98140901021005 5.65274979473994 L15.98564647720999 5.66313675773997 L15.963012199210048 5.727008827739915 L15.95319367721006 5.739359495739983 L15.937690747210034 5.741684934739901 L15.912059237209995 5.735690468739982 L15.892732252210031 5.728610797739968 L15.871234856210002 5.716673540739912 L15.861416334210013 5.702255816739999 L15.877642734210006 5.687373003739957 L15.90275747921006 5.686339475739878 L15.920017408210036 5.679776568739889 L15.956500969210047 5.658744260739972 L15.98140901021005 5.65274979473994 Z M15.154844475210062 5.404082801739882 L15.134225578210042 5.402532508739959 L15.045600497210067 5.408682004739937 L14.903076897210006 5.442271685739961 L14.86018545820999 5.444958860739995 L14.81801748921 5.442891802739915 L14.77770987221006 5.420722612739915 L14.759829826209987 5.378244585739957 L14.746497307210085 5.3319941787398974 L14.719935621209991 5.298714556739945 L14.697818108210036 5.291634885739931 L14.678801181209984 5.2931851787399395 L14.659990959210084 5.297629351739964 L14.638080152210044 5.299127968739974 L14.617099521210058 5.294477089740006 L14.567283439209994 5.277527219739987 L14.580822665210086 5.24274898073994 L14.578032137210037 5.238511512739898 L14.569453850210003 5.230656695739945 L14.567283439209994 5.229106401739948 L14.567851880210036 5.22946813773995 L14.55467439021006 5.214740353739948 L14.552917391209995 5.212053179739904 L14.551315423210063 5.207350624739938 L14.549713453210039 5.186318316739907 L14.565526441210032 5.166939653739938 L14.595240390210016 5.15226354773997 L14.664073397210096 5.139964556739919 L14.67368521420999 5.136967323739917 L14.683762118210062 5.126890419739873 L14.707843336209997 5.095677854739982 L14.721382561209985 5.085342567739978 L14.73533519821003 5.080588335739883 L14.750114657209984 5.077436073739925 L14.765204176209998 5.072010047739944 L14.77796825521002 5.063690142739993 L14.813056552210092 5.030513872739981 L14.87382803721001 4.992531695739949 L14.88881420221005 4.982041379739904 L14.903128573210061 4.973463091739966 L14.911551832210044 4.9703108297399226 L14.92798493721002 4.967468625739961 L14.931395581210005 4.963592892739904 L14.933049228210074 4.958890337739909 L14.936563225210044 4.95475622273991 L14.952066154210023 4.9473148167399685 L14.952182142210027 4.946876638739944 L14.954391594210072 4.938529823739906 L14.963021559210027 4.9048367897399245 L14.924780999210007 4.887990272739948 L14.833313713209996 4.871867226739873 L14.817655755210033 4.856467649739891 L14.815226962210055 4.839259396739912 L14.824632073210033 4.82659867173998 L14.844579175210036 4.824945025739929 L14.879357415210073 4.847941037739979 L14.89904613521005 4.853522092739972 L14.901009839209983 4.835021929739973 L14.892741610210031 4.826236935739978 L14.710323804209985 4.669864052739989 L14.678801181209984 4.648935097740001 L14.675648919210026 4.645989540739912 L14.673116773210062 4.642630572739982 L14.653895714209987 4.626718056739911 L14.641594149210071 4.616533973739898 L14.59704906521008 4.602477984739885 L14.559428622209985 4.6100227437399255 L14.531781730210035 4.715494341739905 L14.476281242210085 4.7647419817399665 L14.40388256120999 4.797866574739963 L14.300116285210002 4.829130816739955 L14.205548413210032 4.8844245997399796 L14.02121858021004 4.9284529197399465 L13.99920442021007 4.936824501739913 L13.979412346210061 4.949485227739949 L13.937451083209986 4.989999550739974 L13.91357657121008 5.006174272739962 L13.886808179210014 5.012427121739954 L13.85600902521005 5.003745481739905 L13.843399976210002 4.995012163739936 L13.833064689210026 4.984521848739966 L13.814771232210056 4.96080236573993 L13.803712476210045 4.950673784739898 L13.778494377210073 4.938064735739964 L13.76671215020999 4.930003211739965 L13.727748121209991 4.883856158739938 L13.70511384321005 4.867784787739872 L13.673177808210049 4.865407671739909 L13.657571526210027 4.858121294739952 L13.645065830210022 4.847992714739995 L13.631733309210084 4.839776160739966 L13.613646559210075 4.838225868739947 L13.581142082210043 4.846339067739926 L13.565174065210009 4.8530570047399735 L13.55096304621005 4.862100380739911 L13.525486564210006 4.88711177373991 L13.51008698821007 4.913156694739904 L13.503058993210026 4.9431290257399425 L13.502490553210087 4.97992264573994 L13.509363518210044 5.033097694739972 L13.505229404210034 5.0466369207399495 L13.490863355210045 5.053303179739878 L13.430143547210001 5.057178911739918 L13.394331780210017 5.075937456739915 L13.393918368210073 5.096608029739933 L13.434122633210016 5.148491168739945 L13.434225986210059 5.148491168739945 L13.455620028210056 5.204818478739945 L13.465335198209992 5.222646848739878 L13.491380119209985 5.258510291739917 L13.502232170210014 5.277475542739971 L13.50858837221002 5.299644731739896 L13.501198641210031 5.348633990740005 L13.469004224210003 5.352871458739962 L13.430505283210003 5.341605995739904 L13.404253655209992 5.344138140739993 L13.408387769210002 5.373697059739918 L13.481148186209985 5.4238231997399495 L13.481148186209985 5.44749100473998 L13.443579420209993 5.460720171739972 L13.39381501521003 5.459479937739921 L13.303898023210046 5.438809364739932 L13.269529173210024 5.425513975739953 L13.23790721921008 5.413281206739974 L13.215117912209983 5.410387326739986 L13.052440504210004 5.429714312739939 L13.03254507721001 5.436018837739958 L12.997766838210019 5.451315061739926 L12.974357415209987 5.453692177739946 L12.916428134210058 5.445940711739944 L12.894207268210003 5.44749100473998 L12.83862166921002 5.45876319173987 L12.797882398210014 5.467024696739877 L12.77700512021007 5.478238481739929 L12.802843336210081 5.500149289739987 L12.847595126210045 5.521698361739929 L12.88294180621002 5.532137001739976 L12.892434336210066 5.530715337739927 L13.126544508210053 5.495653439739947 L13.173156649210021 5.521439979739959 L13.179667880210069 5.5354442927399745 L13.182871818210025 5.550740516739943 L13.181321526210034 5.565313270739971 L13.173156649210021 5.57756058573991 L13.150419019210027 5.5804027897399 L13.077658603210033 5.571617795739904 L13.057401441210025 5.57663040973997 L13.021951409209997 5.600401568739919 L13.009032300210002 5.603553830739877 L12.986294670210007 5.57228958873997 L12.970585035210057 5.5625744197399385 L12.957614250210064 5.580971230739941 L12.959732984210028 5.589962928739986 L12.977509677210058 5.6009183327399725 L12.980920322210089 5.608514768739916 L12.978801588210011 5.6290303127400065 L12.980300204210003 5.638435422739967 L12.985261141210025 5.648460650739899 L13.073317782210061 5.741891639739968 L13.076676751210094 5.764112506739899 L13.034147047210034 5.7778067597399385 L13.011254387210009 5.750573280739921 L12.996009839210068 5.707320106739978 L12.975649325210064 5.673006956739947 L12.954772046210074 5.66189652273993 L12.947899081210004 5.669699664739959 L12.951464755210075 5.68840653273994 L12.96112824821008 5.710007280739909 L12.983504143210062 5.7466975487399665 L12.983245761210092 5.760753537739895 L12.971101799209997 5.779925494740006 L12.96732942021 5.781940875739956 L12.95683910421004 5.783336139739923 L12.95342845921001 5.784938107739968 L12.946297112210083 5.799975949739938 L12.946503817210008 5.801371213739934 L12.946400464210079 5.806383827739971 L12.944230054210003 5.816305702739889 L12.937512118210087 5.822816932739947 L12.924076246210028 5.817494260739998 L12.897411207210006 5.784007932739904 L12.88097810121004 5.774447792739913 L12.846975009210063 5.797753863739949 L12.833642490210046 5.793516395739992 L12.822066968210002 5.792844601739908 L12.811731682210016 5.8143419977399375 L12.801706454209999 5.975572466739969 L12.796228753210094 5.999602007739888 L12.782896233210089 6.019290728739939 L12.75881501621003 6.038876096739948 L12.716130282210052 6.0599084047399785 L12.702591057210064 6.074894569739932 L12.70604766221006 6.081043338739953 L12.71315706421003 6.093689869739869 L12.713339755209994 6.094014849739942 L12.693599357209983 6.101042844739958 L12.632156080210017 6.113651893739977 L12.58249502821004 6.117269243739962 L12.533454094210093 6.114530393740004 L12.451753655210005 6.091896115739949 L12.302098707210028 6.088330441739991 L11.960414136209998 6.019859169739895 L11.913491936210015 6.019084022739882 L11.876336581210033 6.028334103739887 L11.783267327210034 6.079803830739898 L11.703323886210022 6.08951899973993 L11.68353181221007 6.10445348973996 L11.690456454210015 6.148740191739925 L11.68704581021003 6.15235754173991 L11.682911695210088 6.155303098739999 L11.678260816210035 6.1571634507399935 L11.67329987821008 6.158041949739946 L11.647565015209999 6.155303098739999 L11.632372144209988 6.156750038739993 L11.623173739210038 6.165845090739957 L11.610668042209987 6.204344032739918 L11.604053459210057 6.244548296739929 L11.602968255210065 6.281445269739969 L11.59030752921003 6.315086626739905 L11.58276276921 6.348262896739918 L11.57614818621007 6.350123248739941 L11.567156486210045 6.34795283873995 L11.556511141210045 6.350691689739982 L11.54710603121 6.357202919739954 L11.542351799210017 6.36164709273995 L11.54028474221004 6.36862341073995 L11.538579419210087 6.3828861067399245 L11.54592665221005 6.422396743739931 L11.545969150210077 6.422625282739936 L11.574081129210036 6.442959958739941 L11.694900627210039 6.476472125739967 L11.776239332210046 6.478849240739997 L11.815720126210088 6.491199908739951 L11.82006094621007 6.4950756407399055 L11.828019117209998 6.506237750739949 L11.833600171210058 6.510914466739926 L11.840421461210006 6.511844642739952 L11.85706127221001 6.509079953739921 L11.863469149210026 6.5106819227399555 L11.872470751210038 6.5226332017399145 L11.872615878210034 6.522825884739937 L11.874476230210028 6.536520139739871 L11.86310741421007 6.614086463739959 L11.86807477320999 6.63846236773994 L11.868120028210022 6.638684445739919 L11.869143555210051 6.63947666773992 L11.886413485209992 6.652843788739965 L12.014260979210029 6.66904434973997 L12.041132723210033 6.668682614739986 L12.117045403210021 6.648657997739939 L12.117148756210064 6.648580482740009 L12.117407138210034 6.648580482740009 L12.13073965821004 6.643387000739914 L12.144795646210092 6.640441444739899 L12.15916169521008 6.640544797739942 L12.176008212210057 6.645066484739964 L12.183863030209999 6.648683835739938 L12.199262607210095 6.660336870739904 L12.21569571221007 6.662765663739968 L12.232335523210075 6.658063107739899 L12.248975335210012 6.648502968739898 L12.256830152210021 6.646926836739958 L12.264995028210045 6.646358396739906 L12.273159905210058 6.646926836739958 L12.280963046210012 6.648502968739898 L12.28116975221004 6.648502968739898 L12.281324781210081 6.648657997739939 L12.281531487210053 6.648683835739938 L12.296827710210003 6.663179074739979 L12.330572421210057 6.7214700907399205 L12.349275763210038 6.743052149739945 L12.35961457621007 6.754982256739929 L12.369588127209987 6.775136065739922 L12.368451246210064 6.797176063739975 L12.359562899210026 6.8138158757399125 L12.347160556210063 6.827329261739969 L12.33186433221001 6.83794876873997 L12.314914462209991 6.845751909739896 L12.291505039210072 6.849524289739911 L12.27378002221004 6.849059201739998 L12.262617912209997 6.85448522773995 L12.25920726821007 6.8761376517399455 L12.262204501209986 6.886240394739893 L12.268095615209994 6.895102903739904 L12.272539787210086 6.9043529847399085 L12.271816318209993 6.915592608739978 L12.26664867421001 6.9217162657399385 L12.24137889921004 6.935746416739953 L12.233524081209985 6.950810097739939 L12.236211256210048 6.96910355473991 L12.249595451210062 7.006517291739975 L12.251765862210071 7.026722775739948 L12.248406894210028 7.084186968739964 L12.251042391210056 7.106149452739935 L12.258483798209987 7.119378619739926 L12.282771721210075 7.1484207747399395 L12.288456129209997 7.163665321739977 L12.290523186210088 7.195472165739908 L12.293933830210015 7.210019081739965 L12.303442294210093 7.224178423739907 L12.342613029210064 7.253711504739947 L12.379613355210004 7.306964068739909 L12.396718254210064 7.320761675739952 L12.448549716210003 7.343706011739975 L12.527924716210087 7.399464882739942 L12.552109286210076 7.429850624739991 L12.556553459209987 7.468401242739979 L12.540223706210007 7.527002317739992 L12.515419019210093 7.582244423739915 L12.47645498920999 7.629218299739868 L12.46446605721004 7.648261065739938 L12.464362704209996 7.6483385797399634 L12.464362704209996 7.648467771739909 L12.46425935121001 7.648545285739907 L12.464155998210082 7.64862280073995 L12.456662915210039 7.66567602373987 L12.452115390210075 7.680894732739908 L12.444622307210032 7.6935037827399455 L12.433913863209987 7.699738633739962 L12.428912672210082 7.7026505107399075 L12.413616447210039 7.706371213739935 L12.36700430621007 7.711383826739983 L12.335843417210093 7.719755409739967 L12.318118401209993 7.734121457739967 L12.275537021209992 7.836182410740001 L12.246081454210092 7.882045245739953 L12.173217685209998 7.962712155739972 L12.119267489210038 8.003665728739996 L12.067746086210057 8.055652219739919 L12.025113030210058 8.114511675739912 L11.997104403210038 8.176006629739923 L11.993228671209998 8.218019569739958 L12.013072421210005 8.297032834739916 L12.016534742210034 8.339149126739947 L12.011315422209996 8.375115923739934 L11.999843255210088 8.409015663739943 L11.980981357210077 8.438884641739968 L11.976433831210066 8.453586586739952 L11.97188630421001 8.434905555739896 L11.960155754210028 8.421573036739964 L11.94248241421004 8.413046424739939 L11.921760165210081 8.408912310739929 L11.886051750210093 8.410204221739967 L11.873391024210058 8.408912310739929 L11.862332268210046 8.404442298740001 L11.840524813210003 8.391238970739913 L11.829052646210094 8.388396766739952 L11.817683830210022 8.389533648739949 L11.798615227210028 8.394184527740002 L11.78817658721001 8.395269732739898 L11.781923739210093 8.399843096739936 L11.775825920210046 8.409790809739938 L11.768074455210034 8.41929927373993 L11.757274081209992 8.422554888739931 L11.740892652210071 8.410927691739964 L11.722030754210003 8.369560707739929 L11.699034742210095 8.360491493739964 L11.678260816210035 8.365090696739905 L11.659864006210022 8.376175291739933 L11.626997795210023 8.402685300739925 L11.607154045210017 8.414545041739949 L11.58705191321004 8.422864947740003 L11.565399488210083 8.42777420873994 L11.541111565210052 8.429427853739973 L11.515480054210023 8.434027056739943 L11.477342847210046 8.453793291739906 L11.455018628210063 8.457307289739951 L11.43264273321008 8.450046750739908 L11.421170566210002 8.43475052673994 L11.413884188209998 8.416198686739897 L11.403858961210084 8.398990435739925 L11.383705152210005 8.384210975739897 L11.339366773210052 8.370594236739997 L11.319212965210077 8.360491493739964 L11.309807854210042 8.345272784739926 L11.293271395210034 8.301864581739942 L11.28097240521 8.292821205739976 L11.259991773210082 8.287886106739926 L11.219994214209997 8.264967608739902 L11.20180411021007 8.258068804739928 L11.153538322210032 8.257241981740002 L11.06165762621 8.274527748739892 L10.930864576210034 8.279152789739946 L10.920322583210087 8.282305051739904 L10.900633863210054 8.295921790739918 L10.889988518210053 8.299048215739951 L10.862910067210088 8.298143878739914 L10.85055940021001 8.296309364739919 L10.78446524321 8.273985146739953 L10.760487378210051 8.271763058739957 L10.73490754521 8.273365028739896 L10.71547720621006 8.278274289739919 L10.69072419521003 8.263029741739977 L10.692894605209993 8.244710447739998 L10.707984124210007 8.227631386739965 L10.726690992209988 8.21230932373998 L10.742503980210095 8.191664589739979 L10.738576571210011 8.175696571739955 L10.72271190721002 8.162079831739952 L10.703023186210054 8.148618121739894 L10.689380607210033 8.120247760739964 L10.693101310210032 8.084565183739976 L10.715012119209995 8.017204953739984 L10.718836174210047 7.977414100739956 L10.710878003210006 7.898969276739955 L10.714702059210047 7.859746864739996 L10.749531975210083 7.810447547739919 L10.804929110210047 7.753267575739976 L10.841671054210018 7.696552691739946 L10.832413026209984 7.675861556739925 L10.820225334209987 7.64862280073995 L10.82012198220999 7.648571123739934 L10.819915276210018 7.6484419327398925 L10.786273918210064 7.629476682739941 L10.750048740210012 7.615601560739968 L10.71180817921006 7.607359169739929 L10.635327060210066 7.606997434739917 L10.60421784821002 7.599607704739917 L10.502828687210034 7.562064775739934 L10.456319898210005 7.515711016739935 L10.426967685210023 7.493671017739949 L10.394308180209997 7.481733762739985 L10.32945425621002 7.467161008739929 L10.26749421421001 7.427912757739868 L10.239382235209995 7.416259722739902 L10.17333975521003 7.407888140739935 L10.072570712210073 7.369492551739903 L10.038774325210078 7.36711543573994 L10.010248934210004 7.376262163739931 L9.961879794210084 7.406906288739968 L9.936093254210071 7.418378455739962 L9.867518629210018 7.4227709537399775 L9.800029208210013 7.4050459367399455 L9.635491447209994 7.31750606073998 L9.53606599221009 7.2646410697400015 L9.401190504210057 7.192810829739976 L9.306725986210061 7.125192217739929 L9.17360749521 7.03018509773991 L9.106428134210056 6.9971121807399115 L8.959253655210055 6.956442828739959 L8.830786044210036 6.8983068417399735 L8.620204582210043 6.7595039447399685 L8.563455659210057 6.70208064373994 L8.53323314721009 6.671498980739948 L8.509461988210056 6.659975136739909 L8.479282952210063 6.662765663739968 L8.401871656210027 6.692996375739902 L8.376033440210016 6.697337196739959 L8.346474520210073 6.692996375739902 L8.316502190209995 6.680774900739969 L8.155581780210092 6.591090451739909 L8.01595205921003 6.513317421739963 L7.9051577882100545 6.451564084739992 L7.844386304210012 6.4029365617399705 L7.736899325210025 6.286354530739992 L7.673440666210091 6.239535682739977 L7.534534416210043 6.163002886739882 L7.204838779210057 5.981360227739934 L7.042368075210014 5.891856646739903 L6.906045647209986 5.8167191137399 L6.789050204210092 5.752226926739972 L6.731275953210023 5.707475136739923 L6.720475578209992 5.7027209047399126 L6.64869701421005 5.633216103739947 L6.637844963210021 5.606499387739966 L6.62027497621002 5.550327105739932 L6.617484448210085 5.527382769739965 L6.621670239210026 5.505782020739922 L6.629990146210069 5.4876435927399925 L6.635571200210016 5.469556841739966 L6.631643791210045 5.448266151739993 L6.600947991209999 5.3972098367399255 L6.596865552209998 5.376849321739876 L6.596090406210088 5.350339312739884 L6.592421379210087 5.330443886739879 L6.5842048272100655 5.312305457739932 L6.55846996421004 5.272772987740005 L6.552268791210075 5.254272824739978 L6.549168206210048 5.212053179739904 L6.539504712209997 5.2030614807399544 L6.456822421210028 5.166732948739899 L6.409331780210003 5.155880897739955 L6.387731031210045 5.143426877739948 L6.382950613210049 5.136939167739989 L6.381219801209987 5.134590207739954 L6.373158277210017 5.111800900739972 L6.3672671642099985 5.102499142739951 L6.330060132210086 5.064620317739944 L6.316572583210039 5.043484657739917 L6.295953687210009 4.982041379739904 L6.28458487221004 4.968088742739916 L6.251615308209999 4.940700233739982 L6.240659905210087 4.92747106773998 L6.232701734210046 4.9061287007398775 L6.2212295662100345 4.860498410739972 L6.189758619210089 4.77657588573998 L6.178596509210045 4.75678381174 L6.186141268210086 4.749290728739872 L6.181283684210051 4.734562944739871 L6.178596509210045 4.664024614739894 L6.175185865210004 4.643612424739949 L6.166710930210023 4.627024290739961 L6.093330396210057 4.533644976739872 L6.073796705210064 4.51747025373998 L5.8502444592100105 4.393033404739974 L5.76322134721007 4.36466304273997 L5.665966301210027 4.345284380739905 L5.629069328210015 4.342132118739947 L5.606641757210035 4.350452023739898 L5.593102531210057 4.371484331739929 L5.583387362209997 4.406675982739976 L5.558892733210051 4.417269650739961 L5.539875806209999 4.448637245739967 L5.511763827210039 4.471994992739916 L5.4772439702100755 4.485172482740005 L5.439106764210031 4.486154335739961 L5.398489087210088 4.4736486387399665 L5.295549635209987 4.41835485673996 L5.2777729422100705 4.417941444739931 L5.218655103210004 4.425589556739929 L5.213074048210011 4.416494504739937 L5.209973463210041 4.407554481739929 L5.206149407209999 4.4052290427399825 L5.200207424209985 4.412921501739895 L5.1870291272100175 4.429982053739927 L5.180517896210027 4.435459754739917 L5.17390331321004 4.439645545739943 L5.12615428921 4.40223180973998 L5.056184400210064 4.389467730739902 L4.854749667210022 4.398666135739994 L4.734033521210016 4.429206907739903 L4.6739855072099985 4.430343787739922 L4.639155591210077 4.422799029739956 L4.610423496210068 4.407192746739916 L4.556163242210026 4.366109983739953 L4.495805168210005 4.332623654739955 L4.399583652209991 4.295364947739948 L4.290132968210024 4.252938596739902 L4.262020989210008 4.231957964739898 L4.2550963472100065 4.208290158739878 L4.267602043210012 4.128088335739982 L4.27545686121001 4.1109834377399395 L4.2884793222100015 4.096979123739935 L4.305532545210006 4.085661985739954 L4.346873690210053 4.070107378739941 L4.36061962121007 4.057498329740007 L4.351524569209992 4.039127357739908 L4.284965325210031 3.968330645739961 L4.254166171210066 3.9238630757399946 L4.245071119209989 3.8889556457399053 L4.270805982210071 3.861412106739941 L4.2982978442100475 3.847175249739955 L4.329613762210066 3.845159868740005 L4.367234205209989 3.8540482157399296 L4.401754061210077 3.870429644739879 L4.421287753210059 3.8769925517398676 L4.436997389210056 3.875390582739918 L4.448572909210064 3.8623939597398973 L4.446712558210059 3.848182939739921 L4.436997389210056 3.8343853327398776 L4.424801751210019 3.822835650739954 L4.410745761209988 3.8138697897399183 L4.363410149210061 3.7928633197400003 L4.348423983210033 3.781261960739947 L4.337033472210031 3.768233205739925 L4.31411083321003 3.7420137107399896 L4.284655266210017 3.7231001367399514 L4.179545402210088 3.693412026739985 L4.127662264210095 3.6948072897399626 L4.113399569210024 3.6900272187399636 L4.102340813210013 3.6758420387399084 L4.103891105210003 3.662638710739934 L4.1151565682100895 3.652794349739956 L4.132829907210088 3.648970294739904 L4.1331399672100915 3.6490478087399296 L4.13345002521006 3.6490478087399296 L4.133760083210028 3.6490478087399296 L4.193084628210066 3.6318395567399406 L4.189984042209993 3.5923587617399377 L4.170346998210071 3.543214474739976 L4.179545402210088 3.4968607157399774 L4.195978508210054 3.48794653073994 L4.2164423762100895 3.4816678447399383 L4.232875480210076 3.4727536607399188 L4.236286125209993 3.455984657739968 L4.22409048721007 3.4429363577399315 L4.200939446210008 3.4326785867399323 L4.156601067210055 3.4197336407399277 L4.121564446210037 3.396169187740007 L4.093762525209989 3.363923093739963 L4.062239901209999 3.3382399067398794 L4.016867994209996 3.334467527739939 L3.972219556210028 3.3384982887399346 L3.8854031502100597 3.3326588517399713 L3.674046542210043 3.3568175837399323 L3.6223701102100776 3.3556807027399245 L3.5973587162100884 3.34854935473998 L3.557464510210046 3.3166649957400054 L3.5340034112100724 3.3106446917399737 L3.483050449210019 3.306510576739946 L3.4543183522100307 3.2949092187399955 L3.4410891852100107 3.2771066867399767 L3.429203606209988 3.2007289207399126 L3.419695142210024 3.181582801739914 L3.4055358002099965 3.164736284739938 L3.3419737882100193 3.1156953507399052 L3.3178925712100735 3.1044557277399676 L3.2923644132100307 3.1064711077398997 L3.2633222582100174 3.116883909739947 L3.2344868092100896 3.122723345739921 L3.205134595210005 3.12398941873996 L3.160589511210013 3.118072466739953 L3.090309563210006 3.09461136673999 L3.023336906210055 3.0486968567400012 L2.808156243209986 2.8616023337398744 L2.7837649672100255 2.851267046739956 L2.765264803210094 2.873953000739924 L2.751622226209996 2.958857379740003 L2.7304348882100484 2.9879512097399115 L2.6890937422100123 2.9969945857399622 L2.6377273692100616 2.9946174697399144 L2.5864643482100504 2.985780799740006 L2.478563958209996 2.9535347067399513 L2.4541726812099895 2.952940427739996 L2.4354658132100084 2.957307085739977 L2.382445793209989 2.9812591117399663 L2.344721998210069 2.9934547507399074 L2.3265318932100953 3.003609169739967 L2.3172301362100924 3.018207761739937 L2.3229145432100253 3.0374572327399605 L2.341621412209996 3.049885413739922 L2.4668850842100127 3.093422808739966 L2.5021284102100125 3.1137833227398843 L2.532927564210091 3.1487424297399897 L2.5595926032099996 3.195380409739947 L2.6337999602100908 3.284754799739936 L2.6741075772100302 3.320127317739967 L2.685476392210056 3.327930458739978 L2.6900239182100663 3.3367412907399725 L2.686509921210096 3.3448803287399684 L2.6741075772100302 3.3504613827400007 L2.6098220952100846 3.3576960827399702 L2.5934923432100376 3.354595497739915 L2.5817101162100116 3.3411337867399524 L2.5820201742100366 3.3256050187399566 L2.5873945242099907 3.308474281739983 L2.5908051692100216 3.2902066627399265 L2.580573235210032 3.254627438739952 L2.554838372210007 3.229047604739911 L2.520938632210026 3.210599119740003 L2.4216165292100627 3.1758725567398685 L2.3997057222100793 3.172952838739967 L2.3816189702100914 3.1752007627399834 L2.345342115209995 3.186776283739924 L2.3291157162099907 3.1878873277399222 L2.313096021210036 3.1809368467399324 L2.2902550382100557 3.1557445857399884 L2.2757856372100136 3.145150917739919 L2.256768710210018 3.140189980739869 L2.2341344332100093 3.13967321573994 L2.211913566210079 3.142747963739957 L2.193620109209995 3.1490266497398736 L2.1829747642099946 3.1590260397399774 L2.1741897712099885 3.170679074739944 L2.148661614209992 3.192383176739945 L2.121479810210097 3.2013490367398774 L2.104529940210078 3.21202022073998 L2.1102143482100004 3.238504392739962 L2.131608391210044 3.272636675739953 L2.133365389210006 3.2882171197398904 L2.1246837492099857 3.3115231917399157 L2.083962720209989 3.3808729627399643 L2.0695966722099897 3.392810219739907 L2.031356113210016 3.4020086237398957 L2.0231912362100033 3.41508276173996 L2.030425937210019 3.4308182357399275 L2.0432416922100387 3.4415410947399536 L2.0463422782099983 3.4510237207399186 L2.024328118210086 3.462909299739941 L2.0051044852100617 3.466061561739899 L1.9367882412099888 3.463710284739868 L1.9174612552100356 3.4671209287399947 L1.8621674732100573 3.4873522517398996 L1.815658684210085 3.4942768937398725 L1.6741686122100745 3.4759317597399715 L1.5781538012099858 3.478825640739977 L1.4841026942100015 3.513035438739955 L1.4036941662100375 3.571894895739966 L1.34881379521007 3.6487119117399445 L1.34881379521007 3.648970294739904 L1.3114000582100047 3.690363116739938 L1.2702656172100077 3.7136691867398994 L1.1742508062100327 3.7473363837399276 L1.1460354742100307 3.776404375739922 L1.145725415210073 3.8149549947398995 L1.1678429292100745 3.8939165837399443 L1.1653624602100976 3.9315628647399805 L1.1575076422099855 3.9637314427399346 L1.1563707612100629 3.9952540667398964 L1.1742508062100327 4.030988319739912 L1.1964716722100306 4.058428505739947 L1.2079438402099854 4.084628456739971 L1.2116645432099844 4.113463905739927 L1.2109410732100727 4.1488105857399304 L1.2154885992100262 4.176509152739946 L1.2289244712100853 4.2042077207399515 L1.2481481042099958 4.228857378739967 L1.270058911210036 4.247460894739923 L1.2842182542099962 4.255160682740005 L1.2995144782100496 4.260845090739956 L1.3496406172100919 4.2700951717399604 L1.3572887302100511 4.274487668739958 L1.3551183192099856 4.281308957739917 L1.3438528572100026 4.291385862739951 L1.3225621672100019 4.302858029739973 L1.2759500252100437 4.3204280177399355 L1.2562096282100796 4.337532915739978 L1.2254104742100012 4.379855913739895 L1.2060834882099911 4.388330848739905 L1.083817050210051 4.369107215739966 L0.989352532209999 4.354121050739899 L0.7659036382100552 4.344974322739908 L0.729610672210093 4.343485894739949 L0.52271434821008 4.335000770739917 L0.33657583921003464 4.327300982740006 L0.17431184221000962 4.320738075739932 L0.1741051352099916 4.091191363739959 L0.17389843021000928 3.861773841739925 L0.17379507721008025 3.6323046447399676 L0.17358837121005166 3.4028354467399353 L0.17348501920999837 3.1733662497399777 L0.17327831321002662 2.943922890739934 L0.17317496021004075 2.7144536927399017 L0.172968254210069 2.484984495739944 L0.1728649012100263 2.2555411347400067 L0.1726581952099977 2.026071937739964 L0.1725548432100581 1.7966027397399031 L0.17234813721008635 1.567159380739973 L0.1722447842099868 1.3376126687398866 L0.17203807921000447 1.1081693087399387 L0.17193472621007544 0.8786742737398967 L0.17172801921000058 0.6491792377399506 L0.17172801921000058 0.6490758857399257 L0.17172801921000058 0.648972532739883 L0.17172801921000058 0.6488691787399645 L0.17172801921000058 0.6487141497400088 L0.17172801921000058 0.6485591207399679 L0.17172801921000058 0.648404091739927 L0.17172801921000058 0.6482490617398966 L0.17172801921000058 0.648145709739957 L0.17172801921000058 0.6480423567399427 L0.17183137321003272 0.6479906797399266 L0.17193472621007544 0.6478873267399976 L0.17193472621007544 0.6477839737398696 L0.17193472621007544 0.64768062173993 L0.17203807921000447 0.647628944739914 L0.17203807921000447 0.6474739157399867 L0.17203807921000447 0.647370562739944 L0.17214143121005776 0.6473188857399279 L0.1722447842099868 0.647215533739903 L0.17234813721008635 0.647112180739974 L0.17245149021001538 0.6470605037399579 L0.1725548432100581 0.6470088277399597 L0.1726581952099977 0.6469571507399436 L0.1726581952099977 0.6468537977399009 L0.17276154821009726 0.6468537977399009 L0.1728649012100263 0.6467504457398761 L0.172968254210069 0.6466987697399631 L0.17307160720999804 0.646647092739947 L0.17317496021004075 0.6465954167399488 L0.17327831321002662 0.6465954167399488 L0.17338166621006934 0.6465437397399327 L0.17348501920999837 0.6465437397399327 L0.17358837121005166 0.6464920627400019 L0.17369172421003753 0.6463887097399024 L0.17379507721008025 0.6463887097399024 L0.17389843021000928 0.6463887097399024 L0.174001783210052 0.6462853577399628 L0.1741051352099916 0.6462853577399628 L0.17420848821009116 0.6462336817399361 L0.17431184221000962 0.6462336817399361 L0.2679495372099936 0.6248913147399477 L0.3616905852100203 0.6036523007399737 L0.4553282812099937 0.5823616107398877 L0.5492760352099921 0.5610192447398887 L0.6430170822100862 0.5397285537398986 L0.7367581302100561 0.5184378637399263 L0.8303958262100863 0.4971471747399434 L0.9034990662099958 0.4805437917398976 L0.9241368742100562 0.47585648373995326 L1.0179812752100688 0.45456579373995254 L1.111618970209996 0.4333267797398932 L1.2053600192100689 0.4120360907399103 L1.2991010662100493 0.3906937227399041 L1.3929454682100513 0.3694547097399479 L1.4866865162100211 0.3481123427399311 L1.580427564209991 0.3268216527399588 L1.6741686122100745 0.3055309637399759 L1.7991222262100095 0.27855586473994975 L1.9240758392100688 0.2515290907399148 L2.049132805210057 0.22455399373995277 L2.1741897712099885 0.19752721973991783 L2.2319640222100006 0.18538325873992534 L2.289738274210002 0.17334264873993988 L2.347512525210014 0.16125036373997403 L2.405493482210055 0.1491064017399637 L2.465644849210001 0.13691076373995514 L2.5258995702100933 0.12461177373992172 L2.5861542902100254 0.11231278273987044 L2.6463056572100854 0.10006546773993108 L2.7273343032100215 0.08373571573999783 L2.750795402209995 0.08528600873992076 L2.7780805592099895 0.09376094373993027 L2.8548717382100435 0.13019282873994342 L2.876679192209984 0.14063146673986893 L2.9390009692100065 0.17019038673989684 L3.0363593672099896 0.21644079373987068 L3.163793450210015 0.277005572739931 L3.2510215222100314 0.3184315147399488 L3.316238925209994 0.34940425473998715 L3.488321444210065 0.4312080467399184 L3.675286776210065 0.5199881577399523 L3.871657219210043 0.6133157937398934 L4.0724718352099885 0.708658811739916 L4.272562980210033 0.8037951237399383 L4.466763013209992 0.8959858777399958 L4.649904289210063 0.983008990739954 L4.817025872209989 1.0623839897399066 L4.962753411209995 1.1316304097399197 L5.082125969210004 1.1883194557399221 L5.169872551210027 1.230022336739971 L5.232194328209992 1.2596329317400077 L5.258032545209993 1.2804585347399708 L5.276119296210048 1.3069685447399522 L5.282527174210053 1.3312564677398697 L5.289038404210054 1.3830362527399345 L5.29875357321 1.4063939997399686 L5.357561353210052 1.4743485087399435 L5.472283033209997 1.563593707739976 L5.527060051210093 1.6062784407399917 L5.581940422210003 1.6490148497399204 L5.652013664210038 1.7072800267399302 L5.7093745042100394 1.755209917739954 L5.766942050210069 1.8031656467398918 L5.82440624221001 1.851095537740001 L5.881870435209997 1.8990254287399395 L5.937991040209987 1.9459217907399804 L5.994214999210008 1.9928698297399237 L6.05043895821003 2.0397661927398687 L6.106559563210077 2.0866367167399105 L6.181593742210019 2.1491135237399916 L6.201850904210026 2.1554697247400085 L6.2220047132100476 2.1618259247399507 L6.224209872210075 2.1615323067399785 L6.306805738210038 2.1505346247399686 L6.341945712210041 2.145780392739873 L6.377292391210027 2.141026160739891 L6.412639072210048 2.1362977677398973 L6.447779045210062 2.1315952127399314 L6.504313062210052 2.124050453739976 L6.560743726210056 2.1164540187399083 L6.617174390210003 2.1088575827399367 L6.673605054210007 2.1013386607399056 L6.764865634210047 2.0905641257398813 L6.85612621321004 2.079737913739926 L6.947386793210022 2.068963376740008 L7.038750725210058 2.0581630017399775 L7.13001130521004 2.047388466739953 L7.221271884210033 2.0366139297400068 L7.312532463210026 2.0258393937399077 L7.403896396210051 2.0149873427399356 L7.556238518210044 2.025038408739981 L7.708580640210037 2.0351928287399446 L7.861026116210063 2.045166379739946 L8.013264885210013 2.055217445739963 L8.151809400209991 2.0643900117399525 L8.290560621210055 2.0735367407399607 L8.429053459209989 2.082735145739939 L8.567546298210026 2.09185603573993 L8.62263337421009 2.0954217107399913 L8.640100009210038 2.0917785217399043 L8.657463290210067 2.088135332739931 L8.758025628209985 2.0476468477399052 L8.85424714421 2.0088636867399643 L8.953517570210089 1.9688402897399087 L9.050927646209992 1.9295403617399174 L9.06896272021006 1.9246311017399975 L9.086894442210017 1.919670164739948 L9.102914137210085 1.921478839739926 L9.118830478210008 1.9233391907399309 L9.135470289210012 1.934165402739886 L9.152420159210031 1.9450949687399586 L9.26011384321 2.046897539739909 L9.367807528210072 2.148777626739893 L9.41762360921009 2.187173215739925 L9.467336337210007 2.2254396137399155 L9.570379143210026 2.272542681739928 L9.673266919210072 2.3196457497399123 L9.693058993210023 2.3324356667399897 L9.712799390209987 2.345225583739868 L9.797755445210008 2.4734348127400025 L9.85201569921005 2.555238604739934 L9.926946526209996 2.668229123739927 L9.991128654210023 2.7652516247398964 L9.999913648210018 2.7659750957399964 L10.008491936210042 2.7666985657398797 L10.152824211210053 2.7094410787399212 L10.297156487209996 2.6521319147399467 L10.275607415210025 2.900514686739932 L10.254058342210065 3.1488457827399188 L10.251577873210088 3.1752007627399834 L10.249097404209998 3.2015815807399335 L10.244033114210048 3.2101857067398996 L10.239072177210083 3.218789833739912 L10.22728995021 3.2222004777399533 L10.215507723210088 3.225611122739984 L10.212613843209986 3.232509926739958 L10.209616610210013 3.239434568739931 L10.20904872021 3.269584743739948 L10.205947584210001 3.434228879739969 L10.202381909209997 3.6290231907399786 L10.203415438210094 3.6343975407399327 L10.204552320210006 3.639797727739925 L10.208789788209991 3.6423815487399267 L10.21313060721004 3.6448361797399897 L10.333536695210078 3.645223752739973 L10.443245761210072 3.645533811739874 L10.55248973821002 3.6458180317399567 L10.673257561210072 3.6462314427399676 L10.67708161721 3.6458180317399567 L10.68069896721007 3.645430458739945 L10.684523023209998 3.645559649739873 L10.688295403210041 3.645663002740001 L10.691654371210085 3.646283118739966 L10.695065015210012 3.646851559739922 L10.69754548420999 3.647936765739921 L10.700025953210023 3.648970294739904 L10.717337558210055 3.7753450097399295 L10.734752515210083 3.9016938857399666 L10.766585197210041 4.025148882740005 L10.798521233210089 4.148655555739872 L10.841412671210058 4.295985064739902 L10.884097405210035 4.443262896739917 L10.90662833020999 4.463830116740006 L10.928849195209999 4.484397336739896 L10.953779800210064 4.489314553739966 L10.969983635210006 4.492510536740006 L11.011169752210002 4.500572059739987 L11.12728669521001 4.4953010637399515 L11.224851799210022 4.490960243739885 L11.370682691210071 4.484345660739983 L11.477601230210006 4.479488075739958 L11.605190341210083 4.473751991739896 L11.686425692210058 4.470031287739992 L11.816133538210089 4.464088498739976 L11.94403270721002 4.458352414739913 L11.955453199210034 4.460781206739988 L11.96682201421006 4.463158322739922 L11.987905998210032 4.47147822873989 L12.008886630210064 4.479746457739928 L12.019842034210022 4.482692013739943 L12.03079743720999 4.48558589473992 L12.040409254210054 4.484552365739937 L12.050021070210015 4.483467161739945 L12.078959872209985 4.468997760739903 L12.10789867421007 4.454476682739873 L12.120559400209991 4.4482755107399825 L12.13332347921007 4.442074338739978 L12.139421298210003 4.456337034739867 L12.14536408721002 4.470548052739922 L12.146655998210086 4.471219846740006 L12.147792880209998 4.471891639739901 L12.151306878210072 4.477472694739923 L12.154820875210042 4.483002073739918 L12.176835035210011 4.5049645567399 L12.198952548210023 4.526823687739913 L12.204016838210087 4.535712033739934 L12.209081129210027 4.5446003807399435 L12.213008538209998 4.563927366739897 L12.217039299210022 4.583306027739972 L12.223550530210012 4.591522580739898 L12.230268466210042 4.599739133739938 L12.236211256210048 4.596018430739939 L12.242257398209993 4.592246050739895 L12.248665276209998 4.589920611739977 L12.254969801210017 4.58769852473997 L12.261067620210007 4.5883703187399405 L12.267268791209993 4.5891454657399535 L12.272746493210057 4.594468137739902 L12.278017489210093 4.599739133739938 L12.284942132210084 4.588525347739981 L12.291866773210039 4.57731156173994 L12.30251211821004 4.576536415739945 L12.313260816210082 4.575709592739905 L12.315224521210006 4.586354937739905 L12.31708487221001 4.596948606739879 L12.317188225210053 4.598085487739972 L12.317343254210094 4.599170692739982 L12.316051343210027 4.6037698947399335 L12.314811109210005 4.6084207737399865 L12.319565341209987 4.609609332739915 L12.324371249210081 4.610797889739949 L12.325869866210006 4.611831418739932 L12.32721345321007 4.612813270739899 L12.31574128521006 4.619221148739932 L12.304114088210063 4.625629026739965 L12.299928297210066 4.62723099574 L12.295587476210038 4.628832965739939 L12.299669914209993 4.6305382867399985 L12.303752352210005 4.632191932739964 L12.306232821210038 4.634569048739898 L12.308558261210088 4.636946164739946 L12.312640699209986 4.642785601739938 L12.316774813209996 4.648625037739912 L12.31667146121 4.662939410739902 L12.316464755210028 4.677150428739871 L12.311607171209992 4.693945269739935 L12.306646233210039 4.710791786739911 L12.299204826210051 4.727121538739958 L12.291866773210039 4.7435029677399925 L12.284115308210026 4.756525428739927 L12.276467197209989 4.769496213739949 L12.271041171210094 4.776059120739937 L12.265408439210056 4.782622027739926 L12.258018710210045 4.788926551739927 L12.250628980210045 4.795231077739963 L12.242412428210024 4.800192014739899 L12.234092521210037 4.805256304739878 L12.216522535210082 4.811302446739909 L12.198952548210023 4.817296912739941 L12.194508375209999 4.82039749973989 L12.189960849209989 4.823498084739946 L12.188410556210066 4.827425494739906 L12.186808587210088 4.831352902739972 L12.190115878210086 4.833109901739952 L12.193371493210087 4.8349185767399305 L12.213215243210094 4.83817419273992 L12.232955640210058 4.841378130739905 L12.248148511210069 4.847941037739979 L12.26339305921001 4.854452268739941 L12.309126702210015 4.888920448739917 L12.354808668210033 4.923336952739952 L12.388294996210071 4.9434390847399285 L12.421988029210091 4.963592892739904 L12.462385934210054 4.97975205473994 L12.539810295209996 5.010721799739905 L12.657632561210015 5.05779902973989 L12.659286207210094 5.055266883739897 L12.660939852210014 5.052734739739911 L12.667037671210004 5.047980507739929 L12.673238844210083 5.043226275739947 L12.68078360321001 5.043536333739915 L12.688328362209994 5.043846392739901 L12.692204094210034 5.040332394739941 L12.695769768209992 5.036818397739999 L12.69856029621004 5.032477577739904 L12.701350823209985 5.028136756739933 L12.706001702210095 5.0257079657399615 L12.710704257210033 5.023330849739942 L12.71644034021002 5.024105995739937 L12.722228101209986 5.024881141739961 L12.742226880210033 5.032425900739916 L12.762122307210028 5.039970660739947 L12.775558179210087 5.041520953739955 L12.788890699210093 5.042967893739949 L12.79943269121005 5.038161985739968 L12.810129713210038 5.033356076739942 L12.813281975209996 5.026793169739953 L12.816279208210027 5.020230262739993 L12.80656403921008 5.016354530739925 L12.797003899210004 5.012427121739954 L12.809147860209997 4.997285926739941 L12.821343498210034 4.982041379739904 L12.822273674210088 4.978682411739889 L12.82330720321007 4.97532344273997 L12.819018059210087 4.9697423887399665 L12.81472891520999 4.964213010739961 L12.811318270210073 4.9580118387399 L12.808010979210074 4.95191401873992 L12.806253980210009 4.945506141739877 L12.804393628210015 4.939098264739947 L12.804910393210058 4.932845415739955 L12.805323804210069 4.926644244739968 L12.792818108210064 4.924370480739945 L12.780105705209984 4.922096717739912 L12.775248121210005 4.920029661739868 L12.77049388921008 4.917962603739902 L12.76635977521007 4.913983518739933 L12.762225659210024 4.909952756739919 L12.758918368210026 4.9006509987398985 L12.755662753210082 4.891142534739906 L12.750546786210087 4.84928462473993 L12.74558584921001 4.807426715739972 L12.747342847210028 4.799726926739872 L12.749306552210065 4.792027138739989 L12.75204540221008 4.789546669739899 L12.754887606210069 4.7869628477399075 L12.757988192210085 4.785102495739999 L12.761295484210017 4.783293820739907 L12.764602775210015 4.777609412739871 L12.767755038210076 4.771976681739936 L12.768426832210046 4.767170774739917 L12.769046949210086 4.762313189740006 L12.767703362210021 4.751099403739964 L12.76646312721001 4.7399372947399385 L12.766566480210052 4.734459592739931 L12.76677318621008 4.7289302147399255 L12.768891919210056 4.729912065739903 L12.771217359209992 4.730842241739957 L12.775868238210045 4.732237505739924 L12.780622470210027 4.733632769740005 L12.782792879210056 4.734769650739928 L12.785066643210051 4.735854856739927 L12.790544345210058 4.724072629739929 L12.79602204621002 4.712393755739946 L12.809871330210079 4.705159054739987 L12.82382396721001 4.697924354739904 L12.845413807210058 4.690764087739971 L12.854519768210046 4.687744097739959 L12.88526724521008 4.677512164739873 L12.895447502210025 4.668055377739897 L12.905421054210045 4.658701942739945 L12.923766187210013 4.618652707739976 L12.942162997210026 4.578655148740005 L12.955753898210013 4.566924598739909 L12.969654859210003 4.555194048739928 L13.004071363210038 4.543773557739932 L13.038332838210088 4.532353065739919 L13.050786858210039 4.516074989739899 L13.063240878210046 4.499900266740006 L13.069545403210064 4.493389035739931 L13.076108310210053 4.4869294817398995 L13.08639192021004 4.484345660739983 L13.096727206210026 4.481813514739905 L13.11812124921007 4.47969478173993 L13.139670321209984 4.477576047739937 L13.157602043209998 4.470858111739908 L13.175637118209998 4.464243528739921 L13.192897047210089 4.455355181739911 L13.20995026920999 4.44641515873996 L13.218476880210027 4.440058958739961 L13.227106845210038 4.433702756739926 L13.23103425321002 4.427966671739959 L13.235065016210022 4.422178912739973 L13.242816480210045 4.374584918739963 L13.250671297210054 4.327042599739933 L13.250257886210044 4.318826047739911 L13.249844475210033 4.310557818739959 L13.248397535210039 4.304666704739951 L13.247053947209984 4.298827268739977 L13.24560700720999 4.297018593739885 L13.244211744209984 4.295209917739889 L13.241886304209991 4.293918006739936 L13.239405836210004 4.292574419739871 L13.234754956210018 4.2881302477399785 L13.23015575421001 4.283737749739878 L13.228863843210057 4.279603635739953 L13.22746858021005 4.275469521739943 L13.229794019209997 4.271955523739983 L13.232067782210002 4.268441526739927 L13.236201896210012 4.265806027740005 L13.240336011210069 4.263273882739917 L13.263435377210008 4.254695594739978 L13.286534742210016 4.24616898373997 L13.29593985321005 4.243946896739963 L13.30534496321004 4.241776487739962 L13.31469839721003 4.244515337739919 L13.323948479210081 4.247305865739968 L13.329012769210031 4.236918902739966 L13.334077060210028 4.226531938739946 L13.346272698210065 4.21748856373997 L13.358571689210088 4.208393511740006 L13.385753492209993 4.1953710507398725 L13.413038648209998 4.182400266739954 L13.42120352521001 4.181056679739974 L13.42921337121006 4.179816444739934 L13.444044508209991 4.183898883739936 L13.458823967210002 4.187877967739944 L13.466162020210014 4.18710282173992 L13.473448398210017 4.186275999739898 L13.49272370721004 4.176974240739973 L13.512050692210003 4.167620806739926 L13.519440422210003 4.166070513739918 L13.527036858210032 4.164520220739966 L13.556699130210028 4.168654334740005 L13.586568108210052 4.172736773740006 L13.592355868210085 4.170101275739903 L13.598246982210092 4.167620806739926 L13.597626864210007 4.162453163739933 L13.59700674721008 4.1572855207399115 L13.588635165210086 4.1457099987399815 L13.58036693621002 4.134237831739959 L13.578609937210068 4.128966835739924 L13.576697909210019 4.123644163739975 L13.583260816210007 4.110570025739939 L13.589668694210069 4.09749588773996 L13.603001214210018 4.090209510739889 L13.616230380209991 4.082923134740007 L13.64470409421002 4.076101844739945 L13.673177808210049 4.069332232739917 L13.72407909420999 4.039256548739949 L13.774877027210003 4.009077512739957 L13.789088045210029 3.9966234917399603 L13.803454094210075 3.984169471739982 L13.811877353210058 3.979182696739933 L13.820455640210092 3.974144243739964 L13.887893384209995 3.960062416739923 L13.955331129210002 3.9460064267400057 L14.011038323210038 3.944404457739971 L14.066745516210084 3.9428800027399618 L14.087622796210063 3.936239580739958 L14.108293368210092 3.9295991597399436 L14.123537916210033 3.916137448739896 L14.138782463209985 3.9027274147399496 L14.145603753210047 3.8950017877399645 L14.152425041210073 3.8872761617399405 L14.160176506210085 3.8825477677398723 L14.167927971209984 3.8778710507399055 L14.195884921210073 3.870119585739978 L14.223841871209991 3.862471473739923 L14.265338046210069 3.8395271377399 L14.306989250210073 3.8164794497399086 L14.319546623210009 3.805394854739909 L14.332259025210043 3.794361936739925 L14.366262118210066 3.750462806739982 L14.400058505210062 3.7066411927398732 L14.40729320621002 3.7010601377399652 L14.414476229210003 3.6955307597399596 L14.423002841210085 3.691810056739932 L14.431684482210038 3.688166867739959 L14.440779533210012 3.6857380757399127 L14.449771233210036 3.683335121739951 L14.458039462209989 3.680131182739977 L14.466204339210059 3.6769014057398905 L14.47256053921003 3.671578733739942 L14.478865065210094 3.666204383739988 L14.482637444210091 3.657471066739923 L14.486151441210062 3.648686073739917 L14.498553785210014 3.6283255587398955 L14.51095612921008 3.6078616917399344 L14.53224681821009 3.594038246739977 L14.55379589121005 3.580214800739917 L14.602630120210016 3.56445348873995 L14.651309319210007 3.548718015739972 L14.65864737221002 3.549803220739868 L14.666088778210018 3.5508367497399362 L14.675287183210024 3.55574600973997 L14.684382235209988 3.5605777567399954 L14.692392083210073 3.5673215307399104 L14.700350253210068 3.5739877907399418 L14.704122633209998 3.58047318373999 L14.707739983210068 3.5870360907399785 L14.711253980210095 3.59641536273994 L14.714767978210055 3.6057687967398735 L14.722519442210078 3.6116340717399495 L14.73011587821005 3.6174735087399412 L14.740709546210006 3.6205999327399 L14.751148186210024 3.6237521957399608 L14.762982089209991 3.624940752739967 L14.774919345210002 3.6262068257399207 L14.790422274210037 3.6205999327399 L14.806131909209988 3.6150447167399804 L14.816725579210093 3.6002910947399798 L14.827370924210037 3.585589149739967 L14.836621005209985 3.5673215307399104 L14.845716057210062 3.549053912739957 L14.85734325421 3.532775836739937 L14.869073805210085 3.5164719217398996 L14.883129794210014 3.503992062739904 L14.897030754210014 3.4915122047399265 L14.90230175121004 3.484820106739896 L14.907727776210002 3.4781280087399793 L14.911758537210083 3.468800413739949 L14.915789299209983 3.459550330739937 L14.923023999210066 3.4523156307399674 L14.930155347209983 3.445158445739928 L14.942144279210048 3.4447967097399257 L14.954029859210003 3.4444349747399414 L14.977284253209994 3.4492408837399395 L15.000435296210092 3.4540209527399313 L15.019348869209999 3.4519538967399725 L15.038262444210055 3.4499126767399204 L15.057072665210079 3.4427554907399767 L15.075882886209989 3.435520790740007 L15.109782626210084 3.414901893739902 L15.143682365210019 3.3943088357399276 L15.165489820210006 3.3789867737399604 L15.209931551210012 3.3547505267399558 L15.24166088221002 3.3514949117399837 L15.273493563209989 3.3612875957399453 L15.413743400209988 3.436089231739963 L15.445757584210035 3.4440693747399607 L15.44909008121001 3.4449000627399684 L15.434103915210038 3.4822104467399058 L15.396896883210012 3.501666623739901 L15.314317945210085 3.5195466697399453 L15.17303457920999 3.598224037739918 L15.131796787209986 3.6055879287399293 L15.082600823210008 3.6039601217399806 L15.041363030210015 3.6120991597398913 L15.023948072209997 3.6487119117399445 L15.021002516210068 3.706124427739944 L15.00989208221008 3.722919268739979 L14.975217197210007 3.732789466739966 L14.875585035210086 3.7413419167399056 L14.844837558209996 3.755062009739923 L14.745980543210031 3.8183914777399295 L14.70236563321 3.8568645817398917 L14.673116773210062 3.9040193247399984 L14.649552320210056 3.930374305739967 L14.619373284210063 3.9455413387399787 L14.58671377820999 3.957401079739917 L14.527079175209984 3.9928252747399355 L14.365176913210085 4.0641129127399935 L14.344144605210055 4.090002805739935 L14.362438062210025 4.122248899739979 L14.399335035210036 4.136821652739961 L14.54030834221006 4.148655555739872 L14.54041169520999 4.14875890874 L14.540618401210075 4.1488105857399304 L14.54082510621 4.148965614739943 L14.578135490210023 4.166018837739891 L14.594878654210014 4.1774910047399985 L14.609503085210086 4.191753700739973 L14.633946038210091 4.22637691073998 L14.64908723221 4.236970578739964 L14.666671065210004 4.237575613739942 L14.673116773210062 4.23779740173989 L14.707223218210025 4.227978879739929 L14.829696363209983 4.1749588607399275 L14.863699455210018 4.171083127739955 L14.882613030210074 4.179971473739975 L14.89945954721005 4.196973020739897 L14.955580152209983 4.2699401427399195 L14.965088615210071 4.290352333739968 L14.966948967210008 4.311436317739911 L14.952169508209998 4.372827918739965 L14.953926506210074 4.390294553739942 L14.966328850210026 4.403937131739944 L14.98245189721009 4.402025103739923 L15.001882236210086 4.394997108739908 L15.024413159210006 4.393343462739942 L15.04363679221003 4.399389605739906 L15.061620191210032 4.409259803739978 L15.078053297209998 4.4219722067399445 L15.091850904210013 4.436338254739944 L15.110092685209985 4.44941239273998 L15.130039787209988 4.451014361739929 L15.17303457920999 4.446105100739906 L15.220576897210002 4.45266800773998 L15.242901116209985 4.460419471739975 L15.263468336210074 4.47271846373993 L15.281658440210002 4.480418250739909 L15.318968824210025 4.48424230773994 L15.33498851820999 4.494060829739929 L15.36030997021006 4.526255246739872 L15.376019605210011 4.534316770739956 L15.38583812721 4.514989784739917 L15.383771070210024 4.494009152739999 L15.37891348521 4.476077430739927 L15.381600660210061 4.462228146739982 L15.40227123321008 4.453701535739945 L15.42604239221 4.455200152739955 L15.437411207210026 4.46729243773995 L15.44971019721006 4.5049645567399 L15.459270338210068 4.518968869739972 L15.472034417210033 4.52930415673989 L15.485366936210049 4.528580685739904 L15.496115634210035 4.509408729739896 L15.521127027210035 4.485120806739978 L15.589546623210047 4.529717567739901 L15.611974195210017 4.515093137739932 L15.617348544210095 4.480366574739911 L15.60846019820999 4.3077672917399 L15.61466137021008 4.295054888739962 L15.628355624209995 4.297638709739964 L15.67651805920999 4.331693478739901 L15.71971955721002 4.34580114473993 L15.753826002209983 4.340736854739951 L15.781421217210003 4.3189294007399255 L15.814700839210012 4.264669146739912 L15.828963534210025 4.23113114273999 L15.833304355209997 4.211184038739951 L15.829583652209998 4.192838905739983 L15.801471672210049 4.165605425739976 L15.791446444210031 4.148965614739943 L15.791446444210031 4.14875890874 L15.791343092210091 4.148707232739973 L15.811186841209995 4.110311643739941 L15.823279126210046 4.09925288673994 L15.84539664020999 4.092534950739939 L15.867307447210031 4.095067095739914 L15.880019850209997 4.10839961473993 L15.885290845209987 4.127829954739916 L15.88539419821003 4.148655555739872 L15.866997389210063 4.204827837739934 L15.867824211210085 4.2169717997399445 L15.877332675210049 4.219607297739962 L15.883223788210067 4.211442421739939 L15.887357903210066 4.200538693739979 L15.892008781210016 4.1950093157399735 L15.90275747921006 4.198368284739978 L15.908131829210014 4.2144396537399516 L15.91753693921006 4.2176952697399415 L15.925598462209983 4.212372597739879 L15.926321933210055 4.191288612739946 L15.932729810210013 4.187051145740007 L15.941101392210065 4.1896349667399235 L15.94905956321005 4.195164345739919 L16.042903964210005 4.300635943739955 L16.058923658210084 4.330246539739925 L16.06471141921005 4.363216102739976 L16.062230950210072 4.405849159739965 L16.067501946209994 4.447965452739901 L16.09354686821009 4.457525591739987 L16.17292186721007 4.4472419817399995 L16.197106437210003 4.462434853739943 L16.21240266220999 4.478919634739917 L16.22966259021009 4.48584427673989 L16.25953156821 4.472253375739989 L16.281132317210073 4.457577268739918 L16.304386711210064 4.446053423739976 L16.328777988210014 4.443159543739988 L16.354306145210067 4.454580035740001 L16.36577831321008 4.473803667739922 L16.37053254421007 4.501037147739929 L16.372289544210012 4.529562538739974 L16.38148794821003 4.581807411739952 L16.38148794821003 4.601392778739971 L16.37466665921007 4.61927282473993 L16.361024081209983 4.643095659739906 L16.391375853210057 4.636096898739929 L16.44887401621005 4.622838498739917 L16.485667636210017 4.618911089739946 L16.49321239521 4.614311887739994 L16.504684563210013 4.588008583739956 L16.50995555921005 4.580773882739884 L16.52824901621002 4.569611772739954 L16.541581535210035 4.576484739739918 L16.570210279210094 4.6104878317399525 L16.591087557210095 4.620409706739956 L16.619406243210072 4.626714230739871 L16.672632968210017 4.630641640739945 L16.67780061121001 4.633638872739958 L16.680591138210012 4.637772987739872 L16.681107903210055 4.642888954739952 L16.67945425721009 4.648935097740001 L16.679247551210004 4.671879433739939 L16.69733430221006 4.678959103739963 L16.722138990210077 4.6802510157399055 L16.74146597621003 4.685935422739952 L16.78435741520999 4.736630002739922 L16.815363274209993 4.762364865739919 L16.854120598210066 4.775283973739924 L16.89711539021001 4.779211382739895 L17.02599641221004 4.770374712739901 L17.06454703021003 4.778332883739971 L17.06888785021001 4.807633420739926 L17.066200676209995 4.82427323173993 L17.07901643121007 4.822826291739936 L17.125318514210015 4.798279986739878 L17.19931916621001 4.7722867417399115 L17.21533886021009 4.78055496973996 L17.229188143210045 4.795231077739963 L17.249445305210052 4.806134803739916 L17.308356438210033 4.8032925997399545 L17.330930911210054 4.807180845739957 L17.339181350210048 4.8086019077399484 L17.339258945209984 4.808615272739978 L17.344529940210087 4.828769081739971 L17.313937493210084 4.859516558739919 L17.26649852721001 4.879980425739966 L17.172654127209988 4.906387082739961 L17.08687124921007 4.947366493739899 L17.014834303209987 4.96137080674 L16.979797682210084 4.9727912987398994 L16.955923170210006 5.000696571739972 L16.944244296210023 5.067359168739976 L16.915098788210024 5.077591103739955 L16.878305168209998 5.064775347739889 L16.86011506421007 5.06467199473996 L16.852363599210058 5.081311806739983 L16.851020012209993 5.096091265739993 L16.846369133210054 5.1103022847399515 L16.836757317210036 5.1226012757399175 L16.821357740210054 5.1319547097399365 L16.781670240209984 5.133711707739927 L16.711183586210005 5.096814735739905 L16.672632968210017 5.092887326739934 L16.64379751921009 5.081983599739964 L16.610724602210006 5.052579709739966 L16.577444980209997 5.030307167739913 L16.54778270721001 5.040487424739972 L16.544398611210077 5.05694643273997 L16.544372062210094 5.057075558739903 L16.565817631210017 5.084523834739905 L16.565972811210052 5.0847224507399105 L16.56586945821001 5.102602495739966 L16.559151523210083 5.118880571739986 L16.559356363210007 5.130044374739974 L16.559358228210066 5.130146034739958 L16.56814322221006 5.139189410739924 L16.61147440821005 5.163124731739963 L16.611551425210017 5.163167274739912 L16.615917272210048 5.171428143739881 L16.621985130210042 5.182909482739966 L16.62209341721009 5.183114377739933 L16.62105988821005 5.2064721257399 L16.610311190210005 5.231741900739955 L16.58995067621006 5.253032590739927 L16.566386223210053 5.256804969739953 L16.53930777221003 5.249053505739958 L16.480189934210067 5.222595171739975 L16.465513827210053 5.218409380739921 L16.420245273210035 5.2200113507399735 L16.407532870210012 5.216859088739902 L16.407657819210065 5.216618494739997 L16.412390455210037 5.207505653739979 L16.42396597621009 5.204921831739959 L16.441019198209993 5.203733274739953 L16.455488600210025 5.200064247739952 L16.45951936121005 5.189935666739977 L16.45930463121001 5.1898035247398795 L16.45011425021007 5.184147906739916 L16.431820793209987 5.182545936739977 L16.424217156210055 5.182848605739899 L16.37859406821004 5.18466467073997 L16.361747551210065 5.188023638739871 L16.29518830621 5.216083941739917 L16.285989901209994 5.226419227739903 L16.279995435210047 5.2450744197399715 L16.265526034210005 5.273031369739975 L16.23906770121001 5.2931335017399235 L16.15256135421 5.326774858739974 L16.146980299210007 5.340934201739934 L16.154111646210048 5.355920367739905 L16.17292186721007 5.366359006739934 L16.201860669210042 5.376694293739938 L16.209128285210078 5.38038233773991 L16.21570995421009 5.383722288739953 L16.221291009210084 5.391577105739877 L16.214779778210037 5.4024291567399345 L16.200723788210006 5.405168007739967 L16.184910799210023 5.4031526267399315 L16.17292186721007 5.399380246739916 L16.165067050210006 5.398036659739937 L16.15927928921004 5.3987084537399355 L16.14770376921009 5.4015506567399925 L16.10822297520999 5.399018511739904 L16.068845533210002 5.391680458740005 L16.03236197220999 5.393282427739955 L16.001356112210054 5.417156939739947 L15.982649244210073 5.448937945739964 L15.971797193209987 5.46252884673995 L15.955674146210036 5.474362750739878 L15.903067538210017 5.4981855857399395 L15.889218254210071 5.501337847739897 L15.868961092210064 5.494568234739965 L15.862759921210078 5.479323687739928 L15.863069979209989 5.438292600739878 L15.856041985210048 5.417983762739958 L15.841882642210031 5.395349485740006 L15.824209302209987 5.383567258739923 L15.806019198210059 5.3960729547399 L15.799921379210012 5.41519323473991 L15.797544263210078 5.432504839739998 L15.788862623210001 5.444028684739941 L15.764161288210083 5.445889036739935 L15.71713573421001 5.438706011739889 L15.69429475221002 5.431936398739957 L15.673004062210019 5.421652788739941 L15.654813958210092 5.408320269739924 L15.64685578721005 5.393540810739914 L15.637243970209987 5.381551877739945 L15.592440504210025 5.370906532739973 L15.561021232210088 5.348323931739934 L15.540815748210001 5.347238726739924 L15.509448154209984 5.349770871739928 L15.49296337221002 5.348633990740005 L15.479114088210018 5.34403478773995 L15.468727125210044 5.33473302973993 L15.459838779209996 5.324242714739988 L15.44971019721006 5.318041542739898 L15.435447502209989 5.321348833739897 L15.419841219210035 5.339590614739954 L15.41100455021003 5.361708127739966 L15.396896883210012 5.378606320739969 L15.365270907210025 5.38103511273993 L15.249102288210075 5.368219358739928 L15.191017978209992 5.375867469739909 L15.154844475210062 5.404082801739882 Z M14.761793531210024 4.624078733739957 L14.745670484210073 4.62723099574 L14.757349358210057 4.6478498917399165 L14.75838288721004 4.648676714739928 L14.775022698210044 4.661595823739951 L14.804271558209983 4.691516477739974 L14.821118075210073 4.703763791739895 L14.84096182521008 4.7072777897399405 L14.83930817921 4.690172889740005 L14.826389071209995 4.666039995739958 L14.812539788210039 4.648935097740001 L14.789337069210056 4.633070432739906 L14.761793531210024 4.624078733739957 Z M15.372815666210066 5.6004532447399455 L15.37777660421002 5.599057981739968 L15.38883536121002 5.592185015739993 L15.394106356210067 5.589859576739961 L15.419634514209996 5.584588580739926 L15.432243564210033 5.586397255739932 L15.439891675210013 5.595699012739935 L15.433173739209984 5.611356972739905 L15.386871656209983 5.63621333573996 L15.370593580210048 5.648460650739899 L15.372919019209995 5.67429886673991 L15.416947340210037 5.710730751739895 L15.41498363521 5.7415299047398705 L15.404338290210056 5.753673866739966 L15.390489006210053 5.757652951739935 L15.35689932521003 5.758221392740005 L15.30956371320999 5.767988237739949 L15.294784254210036 5.766954709739871 L15.283105380209996 5.75863480373993 L15.280676587210017 5.747627723739917 L15.275870679210037 5.739049435739894 L15.256853752209985 5.73832596674 L15.245691643210044 5.74447546173996 L15.231945712210084 5.754914100739903 L15.217786370210057 5.761632037739922 L15.20517732021002 5.756722776739899 L15.203523674210054 5.731297971739899 L15.246260084210085 5.679569862739946 L15.241712557210029 5.650424354740004 L15.230188713210019 5.643344683739905 L15.203523674210054 5.638952186739992 L15.19039786021002 5.633577837739942 L15.17902904621004 5.621072141739937 L15.15432771021002 5.579369260739917 L15.148850009210001 5.563246213739937 L15.149935214210096 5.546658078739931 L15.155774650210013 5.529036415739931 L15.17303457920999 5.4978755267399535 L15.204453850209994 5.484698036739978 L15.227088128209992 5.495550086739932 L15.243831291209993 5.519941363739967 L15.257628898210065 5.547278196739988 L15.27473379821 5.563814653739875 L15.301863925210078 5.577508908739894 L15.357932854210013 5.595543983739894 L15.361343498210054 5.597817746739928 L15.365270907210025 5.599626422739924 L15.372815666210066 5.6004532447399455 Z" fill="black" stroke="black" stroke-width="0.5" vector-effect="non-scaling-stroke"/></svg>