<svg xmlns="http://www.w3.org/2000/svg" viewBox="0 0 3.445986328380002 7.331997070439998"><path d="M3.3536083986899996 7.147810059219994 L3.373790690689958 7.162539876219983 L3.389415690689958 7.171166178220021 L3.4021110026899635 7.180931803220021 L3.4122021486899996 7.199323731219993 L3.401704101689944 7.224470215219997 L3.394868164689939 7.236595866220016 L3.3848583986899996 7.246442871219999 L3.373790690689958 7.251407064219977 L3.351411133689936 7.255638835220013 L3.343354492689997 7.260114746219999 L3.3337516276899635 7.251407064219977 L3.3211376956899414 7.245954590219997 L3.2955029296900022 7.239688314219977 L3.2650667316899273 7.226016439219977 L3.251232096689961 7.215925293219998 L3.249604492689997 7.192813314219977 L3.2566845706899414 7.167585449220001 L3.268810221689961 7.150821126219983 L3.281668294689922 7.147240397220019 L3.3072216796900022 7.143008626219983 L3.334402669689922 7.142032064219977 L3.3536083986899996 7.147810059219994 Z M2.946056315689958 6.499860840219997 L2.9784456386899194 6.516381022220019 L2.9939078776899635 6.527123210220013 L3.014985351689944 6.534528809219994 L3.0088818366899943 6.54681722021998 L2.973400065689958 6.589216309219994 L2.9665641276899635 6.633161621219999 L2.9589143886899194 6.655052897220019 L2.9494742846899555 6.664330241220016 L2.930105794689922 6.662458496219999 L2.887462565689958 6.650739746219999 L2.870942383689936 6.643171387219995 L2.829682617689997 6.596784668219998 L2.8194287116899943 6.589216309219994 L2.7994091796900022 6.588239746219999 L2.7915966796900022 6.585310059219994 L2.788341471689961 6.579206543219998 L2.7852490236899996 6.567976074220001 L2.7781689456899414 6.560000814219977 L2.771088867689997 6.554792481219993 L2.767915039689939 6.551374512219995 L2.7653922526899635 6.543562012219995 L2.731782226689944 6.497175293219998 L2.7276318366899943 6.486758626219983 L2.7264925136899194 6.471784668219998 L2.727794596689961 6.446149902220002 L2.7332470706899414 6.42181722021998 L2.7443961596899555 6.410993652220002 L2.7522086596899555 6.405541178220021 L2.7522086596899555 6.392683106219993 L2.7479768886899194 6.369489746219999 L2.7520458986899996 6.357689616220016 L2.7566845706899414 6.348981934219994 L2.7637646486899996 6.342064616220016 L2.774750976689944 6.335310059219994 L2.794770508689936 6.329938965219997 L2.833344726689944 6.329450684219994 L2.8498649096899555 6.321638184219994 L2.8661409506899247 6.335065918219998 L2.867036133689936 6.3485750332200315 L2.861176758689936 6.36517659521998 L2.857270508689936 6.387149251219983 L2.870942383689936 6.462263184219994 L2.8797314456899414 6.476667481219993 L2.900727539689939 6.484968262219995 L2.9255485026899635 6.4911531582200315 L2.946056315689958 6.499860840219997 Z M2.8498649096899555 5.941836751219983 L2.841075846689961 5.967390137219995 L2.8211376956899414 5.979841309219994 L2.8002229816899273 5.989362793219998 L2.788341471689961 6.006289876219983 L2.7681591796900022 5.991804199220001 L2.6797802736899996 5.9462312832200315 L2.6677360026899635 5.943220215219997 L2.655528971689961 5.948347168219998 L2.6473909506899247 5.947858887219995 L2.6160595706899414 5.939232585220013 L2.6071891276899635 5.935000814219977 L2.5967724616899943 5.925642090219997 L2.5725211596899555 5.908959147220019 L2.5557568366899943 5.901146647220019 L2.5005810546900022 5.883568522220019 L2.498790690689958 5.866641439219977 L2.515229492689997 5.822045085220013 L2.515473633689936 5.808698731219993 L2.5118115236899996 5.797224121219999 L2.5056266276899635 5.786888835220013 L2.497325846689961 5.776960449220001 L2.4955354816899273 5.769636231219993 L2.5020458986899996 5.697614746219999 L2.508149414689939 5.6767000332200315 L2.5214143886899194 5.657006022220019 L2.5516878256899247 5.636172689219977 L2.591075846689961 5.625267741220016 L2.6316845706899414 5.626407064219977 L2.665620117689997 5.643334147220019 L2.6757112636899194 5.659284668219998 L2.6797802736899996 5.679060059219994 L2.6797802736899996 5.715274251219983 L2.685395508689936 5.733503418219998 L2.7000439456899414 5.741966960220013 L2.740571289689939 5.746361491220016 L2.7401643886899194 5.744978027220002 L2.7449658206899414 5.742618001219983 L2.7518831386899194 5.740502116220016 L2.7572542316899273 5.739525553220021 L2.761323242689997 5.741478678220021 L2.7606722006899247 5.750430501219983 L2.769379883689936 5.755231934219994 L2.7748323566899273 5.761823731219993 L2.7795524096899555 5.769961751219983 L2.781586914689939 5.776960449220001 L2.769868164689939 5.777692871219999 L2.7064729816899273 5.794050293219998 L2.7307242846899555 5.822370606219993 L2.733735351689944 5.83197347021998 L2.7403271486899996 5.833845215219997 L2.771333008689936 5.848981934219994 L2.781586914689939 5.856224772220019 L2.811860351689944 5.871198731219993 L2.8331005866899943 5.889020996219999 L2.8456331386899194 5.911888835220013 L2.8498649096899555 5.941836751219983 Z M2.062836914689939 4.698021647220019 L2.073009440689958 4.7001375332200315 L2.0831005866899943 4.698591309219994 L2.091645508689936 4.695173340219997 L2.097016601689944 4.691185710220013 L2.0987255866899943 4.708275553220021 L2.0689404296900022 4.766218262219995 L2.060883789689939 4.791608887219995 L2.053478190689958 4.8036531582200315 L2.0401318366899943 4.808942871219999 L2.014415690689958 4.814069824220001 L2.0122998046900022 4.81634847021998 L2.0095328776899635 4.821068522220019 L2.0048128256899247 4.825625814219977 L1.997407226689944 4.827741699220001 L1.9922802736899996 4.825544434219994 L1.985932617689997 4.820905762219995 L1.9810498046900022 4.816267090219997 L1.9802360026899635 4.814069824220001 L1.9092724616899943 4.830508626219983 L1.9016227216899608 4.830671387219995 L1.884125976689944 4.820905762219995 L1.880219726689944 4.8134187832200315 L1.8780224616899943 4.8036531582200315 L1.8736279296900022 4.80072347021998 L1.862885742689997 4.814069824220001 L1.8620719406899582 4.805769043219998 L1.857840169689922 4.795677897220019 L1.856782226689944 4.787377116220016 L1.8523876956899414 4.788841960220013 L1.8518180346899555 4.789330241220016 L1.8518180346899555 4.790469564219977 L1.8499462896899388 4.793562012219995 L1.8417268886899194 4.791283366220016 L1.8339143886899194 4.791608887219995 L1.827485351689944 4.79486409521998 L1.8226025396899388 4.801048991220016 L1.8288688156899582 4.766218262219995 L1.8226025396899388 4.766218262219995 L1.8123486336899362 4.778913574220001 L1.7963167316899273 4.785586751219983 L1.7605908206899414 4.793562012219995 L1.7605908206899414 4.787377116220016 L1.7779248046900022 4.774844564219977 L1.800141601689944 4.768334147220019 L1.817963867689997 4.759056803220021 L1.8226025396899388 4.73822347021998 L1.8143017586899362 4.743269043219998 L1.8074658206899414 4.743757324220001 L1.8030712896899388 4.739037272220019 L1.7998974616899943 4.717878418219998 L1.7955029296900022 4.714623210220013 L1.7889111336899362 4.7138094082200315 L1.7810986336899362 4.711042481219993 L1.764985351689944 4.702578939219977 L1.7517203776899635 4.700788574220001 L1.7395133466899608 4.703962402220002 L1.7264111336899362 4.711042481219993 L1.7193310546900022 4.718366699220001 L1.7058219406899582 4.739606934219994 L1.6990673836899362 4.745710449220001 L1.6880810546900022 4.74798909521998 L1.6814078776899635 4.744001465219997 L1.6784781906899582 4.733828939219977 L1.6643994146899388 4.725202637219995 L1.6674104816899273 4.71283284521998 L1.6922314456899414 4.663190918219998 L1.7039501956899414 4.650983887219995 L1.7297477216899608 4.633243001219983 L1.7400830086899362 4.622175293219998 L1.7798779296900022 4.565534668219998 L1.806000976689944 4.544701335220013 L1.8362744146899388 4.539655762219995 L1.841401367689997 4.5458406582200315 L1.8449820966899608 4.556257324220001 L1.8499462896899388 4.562604981219993 L1.8674430346899555 4.552351074220001 L1.9363720706899414 4.541283366220016 L1.952485351689944 4.544050293219998 L1.9666455086899362 4.553327637219995 L1.9690055346899555 4.5595125332200315 L1.9724235026899635 4.577578939219977 L1.9764925136899194 4.581322428220021 L1.9849560546900022 4.582868652220002 L1.9908154296900022 4.587181803220021 L2.000743815689958 4.601830241220016 L2.0088818366899943 4.620384928220021 L2.014415690689958 4.639997559219994 L2.0236930346899555 4.655866699220001 L2.042329101689944 4.663190918219998 L2.048432617689997 4.673119303220021 L2.0564078776899635 4.691999512219995 L2.062836914689939 4.698021647220019 Z M1.7186800136899194 4.588158366220016 L1.721121419689922 4.557396647220019 L1.7522086596899555 4.528913574220001 L1.7889111336899362 4.516381022220019 L1.8086865236899996 4.533470866220016 L1.7959912116899943 4.537702637219995 L1.7736930346899555 4.549909668219998 L1.7603466796900022 4.553327637219995 L1.7370719406899582 4.568464356219993 L1.7266552736899996 4.5770906582200315 L1.7186800136899194 4.588158366220016 Z M1.8360302736899996 4.454369303220021 L1.8406689456899414 4.426374512219995 L1.8518180346899555 4.421491699220001 L1.8653271486899996 4.431989746219999 L1.8770458986899996 4.450951335220013 L1.8853466796900022 4.486107585220013 L1.869558919689922 4.4911531582200315 L1.8474235026899635 4.476993001219983 L1.8360302736899996 4.454369303220021 Z M1.9043896486899996 4.07416097021998 L1.8990185546900022 4.080345866220016 L1.8951123046900022 4.087019043219998 L1.8897412116899943 4.092390137219995 L1.8565380866899943 4.100446777220002 L1.8462841796900022 4.101423340219997 L1.8360302736899996 4.096459147220019 L1.8410758466899608 4.085065918219998 L1.8527945966899608 4.0731844082200315 L1.862641601689944 4.066673991220016 L1.9016227216899608 4.048200684219994 L1.9152945966899608 4.047956543219998 L1.9384065756899247 4.0536531582200315 L1.9300244146899388 4.060163574220001 L1.9043896486899996 4.07416097021998 Z M2.0725211596899555 3.9506258142199773 L2.056245117689997 3.9493237312199927 L2.0459912116899943 3.9449291992200006 L2.0430615236899996 3.9364656582200315 L2.0482698566899273 3.922712402220002 L2.047211914689939 3.901472168219998 L2.066010742689997 3.886091309219994 L2.091645508689936 3.883894043219998 L2.1102815756899247 3.9022045902199967 L2.083588867689997 3.9446036782200213 L2.0725211596899555 3.9506258142199773 Z M1.7053336596899555 3.8209057622199953 L1.6926383466899608 3.813337402220002 L1.6631787116899943 3.7855867512199826 L1.6574820966899608 3.776228027220002 L1.659760742689997 3.7486401372199953 L1.6574820966899608 3.7383862312199927 L1.6416943366899943 3.7253653972200187 L1.6336376956899414 3.716169434219994 L1.6338818366899943 3.7076245122199953 L1.6381136066899273 3.6956616212199993 L1.639985351689944 3.6586336262199826 L1.6443798836899362 3.642845866220016 L1.6507275396899388 3.635603027220002 L1.6570751956899414 3.6307202152199967 L1.6623649096899555 3.6239656582200315 L1.6643994146899388 3.6114331062199927 L1.6639111336899362 3.601830241220016 L1.6624462896899388 3.595075684219994 L1.6574820966899608 3.58002034521998 L1.667329101689944 3.586205241220016 L1.673432617689997 3.5855541992200006 L1.6795361336899362 3.5821362312199927 L1.6885693366899943 3.58002034521998 L1.6983349616899943 3.5823803712199993 L1.7032177736899996 3.587263184219994 L1.7059033206899414 3.5921459962199993 L1.7090771486899996 3.5943432622199953 L1.7160758466899608 3.602888184219994 L1.7334912116899943 3.6404858402199967 L1.743500976689944 3.6490307622199953 L1.745454101689944 3.6561108402199967 L1.7478141276899635 3.6717358402199967 L1.7522086596899555 3.6882560222200187 L1.7605908206899414 3.6973706062199927 L1.7684033206899414 3.696394043219998 L1.7849235026899635 3.6861401372199953 L1.7947705086899362 3.683861491220016 L1.8034781906899582 3.6854077152199967 L1.8113720706899414 3.6890698242200006 L1.817963867689997 3.6934643562199927 L1.8226025396899388 3.6973706062199927 L1.8331005866899943 3.7125073242200006 L1.8396110026899635 3.7279695642199773 L1.8484814456899414 3.74017659521998 L1.8666292316899273 3.745222168219998 L1.8698844406899582 3.7505932622199953 L1.8741162116899943 3.7623120122199953 L1.8835563156899582 3.7740307622199953 L1.9014599616899943 3.77923909521998 L1.954438476689944 3.7774487312199927 L1.9773876956899414 3.7850170902199967 L1.9939892586899362 3.8072338872199953 L1.9808056646899388 3.8129305012199826 L1.9832470706899414 3.8265209962199993 L1.9891878256899247 3.8422273762199826 L1.9871533206899414 3.8550854492200006 L1.9766552736899996 3.8505281582200315 L1.9666455086899362 3.8550854492200006 L1.913666992689997 3.82611409521998 L1.8973909506899247 3.8095125332200315 L1.8809521486899996 3.801862793219998 L1.8615836596899555 3.796003418219998 L1.8465283206899414 3.7937247722200187 L1.8049430346899555 3.8023510742200006 L1.7753206386899194 3.8191153972200187 L1.7461865236899996 3.8299389652199967 L1.7053336596899555 3.8209057622199953 Z M1.8428662116899943 3.5466544602200134 L1.8291943366899943 3.5428295902199967 L1.8208935546900022 3.5315991212199993 L1.8086865236899996 3.504987793219998 L1.8377392586899362 3.4992911782200213 L1.8505159506899247 3.498884277220002 L1.862641601689944 3.504987793219998 L1.8744417316899273 3.5212638352200134 L1.874604492689997 3.5364005532200213 L1.863699544689922 3.546247559219994 L1.8428662116899943 3.5466544602200134 Z M1.7264111336899362 3.4851310222200187 L1.735932617689997 3.4476147462199993 L1.747407226689944 3.4393139652199967 L1.7742626956899414 3.4367911782200213 L1.764985351689944 3.4517651372199953 L1.764090169689922 3.486595866220016 L1.7570914716899608 3.5015698242200006 L1.7395133466899608 3.5118237312199927 L1.7234000656899582 3.51166097021998 L1.716401367689997 3.5023836262199826 L1.7264111336899362 3.4851310222200187 Z M1.6956494146899388 3.354841309219994 L1.6818961596899555 3.358259277220002 L1.667329101689944 3.3648510742200006 L1.6532503256899247 3.3689200852200134 L1.6407177736899996 3.364362793219998 L1.6291617846899555 3.354841309219994 L1.6158154296900022 3.3469474282200213 L1.6023876956899414 3.3435294602200134 L1.5897737636899194 3.3474357102200134 L1.5633251956899414 3.329450684219994 L1.5498974616899943 3.3270906582200315 L1.5352490236899996 3.3336010742200006 L1.5256461596899555 3.3217195642199773 L1.4924430346899555 3.3021883142199773 L1.4766552736899996 3.2896557622199953 L1.462250976689944 3.2813549812199927 L1.444916992689997 3.274519043219998 L1.4341748046900022 3.265892741220016 L1.4397086596899555 3.2518139652199967 L1.4261181646899388 3.2400952152199967 L1.439057617689997 3.226830241220016 L1.4636344406899582 3.215925293219998 L1.4929313156899582 3.209252116220016 L1.5077425136899194 3.1993237312199927 L1.5175081386899194 3.1971264652199967 L1.5619417316899273 3.1971264652199967 L1.5827750656899582 3.1867911782200213 L1.6202099616899943 3.1500073242200006 L1.6338818366899943 3.141950684219994 L1.6387646486899996 3.136091309219994 L1.6542268886899194 3.096784668219998 L1.6631787116899943 3.0927156582200315 L1.684907226689944 3.087263184219994 L1.704682617689997 3.108259277220002 L1.7205517586899362 3.141462402220002 L1.7400830086899362 3.203962402220002 L1.7439892586899362 3.2347241212199993 L1.7629508466899608 3.2531974282200213 L1.8345654296900022 3.289899902220002 L1.8418896486899996 3.2984448242200006 L1.843110351689944 3.3132560222200187 L1.835541992689997 3.325300293219998 L1.8015250656899582 3.3510164392199773 L1.6956494146899388 3.354841309219994 Z M1.325776367689997 3.4265372722200187 L1.3360302736899996 3.426048991220016 L1.3438427736899996 3.4384187832200315 L1.3504345706899414 3.4543693032200213 L1.3571891276899635 3.4647045902199967 L1.333588867689997 3.4880607102200134 L1.325776367689997 3.491315918219998 L1.3128369146899388 3.4940014652199967 L1.3067333986899996 3.501081543219998 L1.3016878256899247 3.510847168219998 L1.2912711596899555 3.5220776372199953 L1.2849235026899635 3.531517741220016 L1.2857373046900022 3.5399812832200315 L1.2852490236899996 3.5474682622199953 L1.273855794689922 3.5533276372199953 L1.2576611336899362 3.5534903972200187 L1.2505810546900022 3.545189616220016 L1.2466748046900022 3.5337963872199953 L1.239838867689997 3.5248445642199773 L1.2305615236899996 3.522321777220002 L1.2041943366899943 3.5180086262199826 L1.198823242689997 3.515892741220016 L1.1926383466899608 3.506940918219998 L1.1783154296900022 3.5067781582200315 L1.1631787116899943 3.5093823242200006 L1.1541455086899362 3.508649902220002 L1.135183919689922 3.5012443032200213 L1.1130485026899635 3.509138184219994 L1.093110351689944 3.522810059219994 L1.081391601689944 3.5329825852200134 L1.0881461596899555 3.5389233402199967 L1.0907503256899247 3.5427482102200134 L1.0943310546900022 3.5450268562199927 L1.1032828776899635 3.5466544602200134 L1.0935172526899635 3.5591870122199953 L1.081635742689997 3.563825684219994 L1.0554313156899582 3.5671622722200187 L1.0342724616899943 3.5875073242200006 L1.0284130866899943 3.5863680012199826 L1.0215771486899996 3.5814851892199773 L1.0162060546900022 3.581403809219994 L1.0139274096899555 3.5943432622199953 L1.0076611336899362 3.5943432622199953 L0.9994417316899273 3.5840893562199927 L0.9720166016899441 3.5749747722200187 L0.9598095706899414 3.5520255532200213 L0.9463818366899943 3.5413647462199993 L0.9343375656899582 3.5272045902199967 L0.9319775396899388 3.504987793219998 L0.9387320966899608 3.504987793219998 L0.9427197266899441 3.5115795902199967 L0.9489860026899635 3.5173575852200134 L0.9568798836899362 3.5219148762199826 L0.9660758466899608 3.5248445642199773 L0.9634716796900022 3.508894043219998 L0.9576123046900022 3.4888745122199953 L0.9489860026899635 3.469831543219998 L0.9240836596899555 3.4378491212199993 L0.9197705086899362 3.4270255532200213 L0.9183056646899388 3.4122143562199927 L0.9190380866899943 3.3938224282200213 L0.9183056646899388 3.3882885742200006 L0.913666992689997 3.381940918219998 L0.9070751956899414 3.3785229492200006 L0.900808919689922 3.3767325852200134 L0.8977978516899441 3.375267741220016 L0.8947867846899555 3.353783366220016 L0.8958447266899441 3.2924226892199773 L0.9009716796900022 3.2796459962199993 L0.8903922526899635 3.231306152220002 L0.8897412116899943 3.225446777220002 L0.8903922526899635 3.2076245122199953 L0.8881136066899273 3.1999747722200187 L0.8835563156899582 3.1976147462199993 L0.8788362636899194 3.1968823242200006 L0.8767203776899635 3.1937084962199993 L0.8714306646899388 3.1761303712199993 L0.8357047526899635 3.1220125332200315 L0.8197542316899273 3.1312898762199826 L0.8145458986899996 3.1356844082200315 L0.8084423836899362 3.128278809219994 L0.7923291016899441 3.1470776372199953 L0.7463492846899555 3.176618652220002 L0.7225862636899194 3.1558666992200006 L0.7092399096899555 3.150658366220016 L0.6985791016899441 3.1561108402199967 L0.691824544689922 3.1459383142199773 L0.6893831386899194 3.136091309219994 L0.6880810546900022 3.1259187832200315 L0.6849072266899441 3.11517659521998 L0.6771761066899273 3.1050854492200006 L0.6683056646899388 3.0980053712199993 L0.6607373046900022 3.0899487312199927 L0.6574820966899608 3.077009277220002 L0.661713867689997 3.0533276372199953 L0.6917431646899388 2.9979077152199967 L0.6874300136899194 2.931908366220016 L0.6883251956899414 2.919050293219998 L0.6934521486899996 2.9109122722200187 L0.6950797526899635 2.9032625332200315 L0.6985791016899441 2.8977286782200213 L0.7088330086899362 2.8954500332200315 L0.7395133466899608 2.874372559219994 L0.8493766276899635 2.91595784521998 L0.848074544689922 2.95111409521998 L0.9079703776899635 3.0250073242200006 L0.8903922526899635 3.059919434219994 L0.9032503256899247 3.0648022462199993 L0.913666992689997 3.0717195642199773 L0.917573242689997 3.081403809219994 L0.9109000656899582 3.0940991212199993 L0.9197705086899362 3.1013419602200134 L0.9284781906899582 3.1106193032200213 L0.9377555346899555 3.1185945642199773 L0.9576123046900022 3.1251049812199927 L0.9729117846899555 3.1387768562199927 L0.9832470706899414 3.141950684219994 L0.9866650396899388 3.138044434219994 L0.9851188156899582 3.1290112312199927 L0.9797477216899608 3.1114331062199927 L0.983979492689997 3.1098055012199826 L0.9934195966899608 3.120222168219998 L1.0076611336899362 3.141950684219994 L1.0066845706899414 3.1508211262199826 L0.9989534506899247 3.1618888352200134 L1.0002555346899555 3.1697827152199967 L1.022797851689944 3.1800366212199993 L1.0281689456899414 3.1834545902199967 L1.0342724616899943 3.1834545902199967 L1.0374462896899388 3.178002116220016 L1.0404573566899273 3.175153809219994 L1.0438753256899247 3.1731193032200213 L1.0479443366899943 3.1697827152199967 L1.0507112636899194 3.1812573242200006 L1.0550244146899388 3.192487793219998 L1.0608837896899388 3.2029044602200134 L1.0684521486899996 3.2113680012199826 L1.0799267586899362 3.2185294602200134 L1.103120117689997 3.2249584962199993 L1.1163037116899943 3.231306152220002 L1.1387646486899996 3.25189534521998 L1.151704101689944 3.26947347021998 L1.1659456386899194 3.276716309219994 L1.1926383466899608 3.2659741212199993 L1.2019970706899414 3.270856934219994 L1.2056591796900022 3.2722403972200187 L1.2056591796900022 3.2796459962199993 L1.1989860026899635 3.294050293219998 L1.2168896486899996 3.3132560222200187 L1.260183919689922 3.3474357102200134 L1.2857373046900022 3.3430411782200213 L1.2994091796900022 3.3655834962199993 L1.307954101689944 3.4149812832200315 L1.2891552736899996 3.4481844082200315 L1.2872021486899996 3.4665763352200134 L1.3025016276899635 3.477644043219998 L1.3036409506899247 3.458356934219994 L1.3077099616899943 3.4456616212199993 L1.3147900396899388 3.4361401372199953 L1.325776367689997 3.4265372722200187 Z M0.7190055346899555 2.7582430012199826 L0.6991487636899194 2.75775472021998 L0.6853141276899635 2.7512443032200213 L0.6574820966899608 2.7310620122199953 L0.6426708986899996 2.7253653972200187 L0.6146761066899273 2.7182039392199773 L0.6023876956899414 2.7105541992200006 L0.585541992689997 2.6832104492200006 L0.5889599616899943 2.6565991212199993 L0.6082470706899414 2.6365795902199967 L0.640229492689997 2.6285229492200006 L0.7110302736899996 2.636986491220016 L0.7468375656899582 2.6485424812199927 L0.7500927736899996 2.6663647462199993 L0.7382112636899194 2.6970450852200134 L0.7453727216899608 2.7260164392199773 L0.7470003256899247 2.7483959962199993 L0.7190055346899555 2.7582430012199826 Z M0.6706656906899582 2.546003418219998 L0.6897086596899555 2.5385164392199773 L0.7034619146899388 2.5386791992200006 L0.7059847006899247 2.5424226892199773 L0.6917431646899388 2.546003418219998 L0.6917431646899388 2.5528393562199927 L0.7019970706899414 2.555524902220002 L0.7059033206899414 2.5608959962199993 L0.7043570966899608 2.567487793219998 L0.6985791016899441 2.5739982102200134 L0.7216097006899247 2.5860424812199927 L0.7227490236899996 2.6033764652199967 L0.7081005866899943 2.6145255532200213 L0.6849072266899441 2.6080151372199953 L0.6815706386899194 2.6120841472200187 L0.6783154296900022 2.613548991220016 L0.6706656906899582 2.6150138352200134 L0.6560986336899362 2.6128979492200006 L0.6456005866899943 2.6092358402199967 L0.6228141276899635 2.5945060222200187 L0.6706656906899582 2.546003418219998 Z M1.6990673836899362 2.5248445642199773 L1.7058219406899582 2.5339591472200187 L1.7121695966899608 2.5365633142199773 L1.7170524096899555 2.5414461262199826 L1.7190055346899555 2.55658284521998 L1.7111930346899555 2.6179435222200187 L1.7127392586899362 2.63470784521998 L1.7264111336899362 2.6663647462199993 L1.7264111336899362 2.6968823242200006 L1.7293408206899414 2.7107983402199967 L1.7527783206899414 2.7751700852200134 L1.7605908206899414 2.8265209962199993 L1.7653922526899635 2.8412508142199773 L1.7772737636899194 2.864118652220002 L1.7810986336899362 2.8817781582200315 L1.783621419689922 2.921247559219994 L1.7810172526899635 2.956159668219998 L1.7681591796900022 2.9827709962199993 L1.7400830086899362 2.9979077152199967 L1.7175406906899582 2.9994539392199773 L1.7056591796900022 2.9925366212199993 L1.700776367689997 2.9781323242200006 L1.6971142586899362 2.9378491212199993 L1.679291992689997 2.8773836262199826 L1.6683056646899388 2.8006420902199967 L1.6443798836899362 2.7445711262199826 L1.6355094406899582 2.7090893562199927 L1.6329052736899996 2.6697827152199967 L1.6377880866899943 2.6283601892199773 L1.6622021486899996 2.5502351892199773 L1.6678173836899362 2.4703198242200006 L1.6897900396899388 2.4686108402199967 L1.6961376956899414 2.514997559219994 L1.6990673836899362 2.5248445642199773 Z M1.452729492689997 2.3988680012199826 L1.4494742846899555 2.4172599282200213 L1.4411735026899635 2.4306062832200315 L1.3748486336899362 2.483747559219994 L1.3518180346899555 2.4918041992200006 L1.247407226689944 2.491315918219998 L1.226166992689997 2.484642741220016 L1.1919873046900022 2.4680411782200213 L1.1861279296900022 2.4568107102200134 L1.1956494146899388 2.4395581062199927 L1.317719726689944 2.327009277220002 L1.339448242689997 2.3200919602200134 L1.3563753256899247 2.3173250332200315 L1.4048779296900022 2.2989331062199927 L1.4901643886899194 2.2847729492200006 L1.5157177736899996 2.2888419602200134 L1.5165315756899247 2.2986075852200134 L1.4935823566899273 2.3200919602200134 L1.4805615236899996 2.335310059219994 L1.467215169689922 2.3558178712199993 L1.4568798836899362 2.3781974282200213 L1.452729492689997 2.3988680012199826 Z M0.6364860026899635 1.97064534521998 L0.6143505866899943 1.946638184219994 L0.6097119146899388 1.9358959962199993 L0.627371419689922 1.9408601892199773 L0.6530875656899582 1.960310059219994 L0.6706656906899582 1.9632397462199993 L0.6618766276899635 1.97259847021998 L0.6529248046900022 1.9766674812199927 L0.6442985026899635 1.975935059219994 L0.6364860026899635 1.97064534521998 Z M1.6097119146899388 1.987409668219998 L1.6114208986899996 1.979597168219998 L1.6141064456899414 1.97455159521998 L1.613699544689922 1.9690991212199993 L1.6065380866899943 1.960065918219998 L1.6037711596899555 1.950544434219994 L1.6073518886899194 1.9384187832200315 L1.6150016276899635 1.9278393562199927 L1.6239534506899247 1.9227937832200315 L1.6361604816899273 1.9297924812199927 L1.646902669689922 1.9473706062199927 L1.6546337896899388 1.9671459962199993 L1.6574820966899608 1.9805737312199927 L1.6591097006899247 2.0036857102200134 L1.671235351689944 2.059431152220002 L1.6716422526899635 2.069685059219994 L1.6702587896899388 2.090681152220002 L1.671235351689944 2.100935059219994 L1.6830354816899273 2.1335685222200187 L1.684907226689944 2.1449617512199826 L1.684907226689944 2.1797924812199927 L1.6880810546900022 2.1884187832200315 L1.7020784506899247 2.2045320642199773 L1.7053336596899555 2.2133211262199826 L1.7022412116899943 2.2815991212199993 L1.7076123046900022 2.2961661782200213 L1.7058219406899582 2.3150463872199953 L1.6990673836899362 2.3433666992200006 L1.6981722006899247 2.3725008142199773 L1.6922314456899414 2.4021232102200134 L1.679291992689997 2.397321777220002 L1.6685498046900022 2.397321777220002 L1.6443798836899362 2.4021232102200134 L1.6501578776899635 2.37884847021998 L1.6486930346899555 2.3538647462199993 L1.6370556646899388 2.3064200852200134 L1.6438102216899608 2.271752116220016 L1.6434033206899414 2.1646557622199953 L1.6338818366899943 2.141950684219994 L1.6097119146899388 1.987409668219998 Z M0.653901367689997 2.5425854492200006 L0.6159781906899582 2.587019043219998 L0.6073518886899194 2.5933666992200006 L0.5989697266899441 2.5975170902199967 L0.5896923836899362 2.599877116220016 L0.5784619146899388 2.600690918219998 L0.5664990236899996 2.5989005532200213 L0.5496533206899414 2.5901928712199993 L0.5403759766899441 2.587019043219998 L0.502371419689922 2.5826245122199953 L0.45956542969000225 2.5837638352200134 L0.4212353516899441 2.5933666992200006 L0.39673990968995554 2.6150138352200134 L0.40650553468995554 2.6247794602200134 L0.3983675136899194 2.6259187832200315 L0.3770458986899996 2.6218497722200187 L0.36467610668992734 2.6296622722200187 L0.3597119146899388 2.6379630532200213 L0.3562125656899582 2.646752116220016 L0.34905110668992734 2.6558666992200006 L0.3288688156899582 2.6653068032200213 L0.30640787768996347 2.6633536782200213 L0.28476074268999696 2.6522045902199967 L0.26718261768999696 2.63470784521998 L0.27971516968992205 2.6158276372199953 L0.2800406906899582 2.590925293219998 L0.2694612636899194 2.569440918219998 L0.23495605469000225 2.5543041992200006 L0.22047037768996347 2.5398185222200187 L0.19833496168999432 2.5051505532200213 L0.18734863368993615 2.4750398762199826 L0.18108235668992734 2.4671459962199993 L0.1546337896899388 2.4417553712199993 L0.1504833986899996 2.432722168219998 L0.14730957068994144 2.420189616220016 L0.13266113368993615 2.4016349282200213 L0.12932454468992205 2.3920320642199773 L0.13160319068995818 2.383080241220016 L0.14088053468995554 2.362653809219994 L0.14608886768999696 2.333356934219994 L0.15943522168996083 2.2925854492200006 L0.16334147168996083 2.271752116220016 L0.1624462896899388 2.2253653972200187 L0.15707519568994144 2.202253418219998 L0.13306803468995554 2.1685620122199953 L0.12720865968995554 2.1488680012199826 L0.1231396486899996 2.1072827152199967 L0.11288574268999696 2.0691153972200187 L0.1136181646899388 2.0554435222200187 L0.1231396486899996 2.0389233402199967 L0.10588704468992205 2.0333081062199927 L0.09530761768999696 2.018415527220002 L0.0899365236899996 1.9992911782200213 L0.08847167969000225 1.9805737312199927 L0.0840771486899996 1.9632397462199993 L0.0625927736899996 1.9320711262199826 L0.05429199268999696 1.915388184219994 L0.03590006568995818 1.8391349282200213 L0.0372021486899996 1.8228588872199953 L0.04436360668992734 1.8065014652199967 L0.047944336689994316 1.782331543219998 L0.0469677736899996 1.758649902220002 L0.04062011768999696 1.74408284521998 L0.06780110668992734 1.68939534521998 L0.06584798168992734 1.6646557622199953 L0.06942871168999432 1.6529370122199953 L0.10092285168994408 1.643415527220002 L0.10702636768999696 1.635603027220002 L0.1116650396899388 1.6322664392199773 L0.1231396486899996 1.641706543219998 L0.12720865968995554 1.6498445642199773 L0.13697428468995554 1.6763745122199953 L0.13998535168994408 1.6819897462199993 L0.14828613368993615 1.6864656582200315 L0.15357584668996083 1.6970450852200134 L0.15650553468995554 1.7095776372199953 L0.15731933668999432 1.7201570642199773 L0.16122558668999432 1.722028809219994 L0.1845003256899247 1.7509187832200315 L0.1932893886899194 1.7754956062199927 L0.19947428468995554 1.7869702152199967 L0.2196565756899247 1.7967358402199967 L0.26034667969000225 1.8266023762199826 L0.25058105469000225 1.8365307622199953 L0.2552197266899441 1.8597241212199993 L0.27328613368993615 1.9085522462199993 L0.2831331386899194 1.9549389652199967 L0.28752766968992205 2.004743652220002 L0.2862255866899943 2.016706543219998 L0.2913525396899388 2.0232983402199967 L0.2979443366899943 2.028425293219998 L0.30136230469000225 2.0355053712199993 L0.31503417969000225 2.159284668219998 L0.32642740968995554 2.1674226892199773 L0.35214355469000225 2.16791097021998 L0.39673990968995554 2.1630281582200315 L0.42245605469000225 2.1639233402199967 L0.43303548168992734 2.162946777220002 L0.4393831386899194 2.155134277220002 L0.4520784506899247 2.1351147462199993 L0.4602164716899608 2.12689534521998 L0.46916829468992205 2.119978027220002 L0.4764925136899194 2.1111889652199967 L0.4794222006899247 2.0972729492200006 L0.48520019568994144 1.9869213872199953 L0.4831656906899582 1.9740633142199773 L0.4777945966899608 1.958356934219994 L0.4891878256899247 1.9442781582200315 L0.5071728516899441 1.933861491220016 L0.5209261066899273 1.929060059219994 L0.596121419689922 1.9358959962199993 L0.596121419689922 1.94330159521998 L0.5779736336899362 1.9462312832200315 L0.5694287116899943 1.9546948242200006 L0.5673128256899247 1.9673901372199953 L0.5700797526899635 2.0090568032200213 L0.5661735026899635 2.0193107102200134 L0.5545361336899362 2.032087402220002 L0.5711376956899414 2.0339591472200187 L0.5778922526899635 2.0458406582200315 L0.5818798836899362 2.0799389652199967 L0.5989697266899441 2.1290112312199927 L0.6023876956899414 2.1482169602200134 L0.626557617689997 2.1312084962199993 L0.6390087896899388 2.1283601892199773 L0.6574820966899608 2.1351147462199993 L0.6526806646899388 2.153425293219998 L0.6706656906899582 2.2338289392199773 L0.6658642586899362 2.2497794602200134 L0.6574820966899608 2.2533601892199773 L0.6540641276899635 2.2567781582200315 L0.6643994146899388 2.271752116220016 L0.6688753256899247 2.2741935222200187 L0.6849072266899441 2.2798901372199953 L0.6917431646899388 2.2847729492200006 L0.6954052736899996 2.2903068032200213 L0.7050081386899194 2.3126049812199927 L0.702729492689997 2.3316479492200006 L0.6983349616899943 2.3480053712199993 L0.6921500656899582 2.3536206062199927 L0.6849072266899441 2.3399487312199927 L0.6780712896899388 2.3399487312199927 L0.6849886066899273 2.3733959962199993 L0.702729492689997 2.4241772462199993 L0.726166992689997 2.4705639652199967 L0.7500927736899996 2.4908276372199953 L0.7586376956899414 2.4950594082200315 L0.7605094406899582 2.505231934219994 L0.7579052736899996 2.5165437832200315 L0.7538362636899194 2.5248445642199773 L0.7466748046900022 2.530622559219994 L0.7408154296900022 2.5300528972200187 L0.7336539716899608 2.5267976892199773 L0.7224235026899635 2.5248445642199773 L0.6849886066899273 2.5248445642199773 L0.6706656906899582 2.5298901372199953 L0.653901367689997 2.5425854492200006 Z M1.0281689456899414 1.147565918219998 L1.0383414716899608 1.15033284521998 L1.0997021486899996 1.1794669602200134 L1.1086539716899608 1.186384277220002 L1.1163037116899943 1.1960685222200187 L1.1097119146899388 1.2488028972200187 L1.1067008466899608 1.2574291992200006 L1.1010042316899273 1.2635327152199967 L1.0752880866899943 1.3059318032200213 L1.0612906906899582 1.3200919602200134 L1.050385742689997 1.3259513352200134 L1.0393994146899388 1.3269278972200187 L0.972260742689997 1.321394043219998 L0.958588867689997 1.326439616220016 L0.9441845706899414 1.3254630532200213 L0.9318961596899555 1.3204174812199927 L0.9217236336899362 1.314720866220016 L0.914480794689922 1.3121166992200006 L0.9100862636899194 1.30658284521998 L0.9143180346899555 1.2945385742200006 L0.9244091796900022 1.2748445642199773 L0.9183056646899388 1.2199943032200213 L0.9207470706899414 1.2019278972200187 L0.9275016276899635 1.1932202152199967 L0.9373486336899362 1.1876049812199927 L0.9611930346899555 1.1683992512199826 L0.968354492689997 1.167097168219998 L0.9771435546900022 1.1688875332200315 L0.9939892586899362 1.1680737312199927 L1.0027783206899414 1.1639233402199967 L1.0181591796900022 1.150658366220016 L1.0281689456899414 1.147565918219998 Z M0.9660758466899608 0.9256420902199967 L0.9654248046900022 0.9048901372199953 L0.9616813156899582 0.8920320642199773 L0.9515087896899388 0.8814526372199953 L0.9319775396899388 0.8670483402199967 L0.9082958986899996 0.8319734702199799 L0.9024365236899996 0.8113028972200187 L0.9040641276899635 0.784528809219994 L0.9118766276899635 0.763044434219994 L0.9255485026899635 0.7465242512199826 L0.943777669689922 0.733747559219994 L0.9870719406899582 0.7154370122199953 L1.0022086596899555 0.7151928712199993 L1.0163688156899582 0.7239005532200213 L1.0342724616899943 0.743513184219994 L1.062918294689922 0.7964916992200006 L1.0752880866899943 0.8050366212199993 L1.0628369146899388 0.8210685222200187 L1.0554313156899582 0.825544434219994 L1.061860351689944 0.8397859702199799 L1.0700797526899635 0.845075684219994 L1.079438476689944 0.8475170902199967 L1.0889599616899943 0.8533764652199967 L1.0943310546900022 0.855736491220016 L1.098969726689944 0.854597168219998 L1.101980794689922 0.8554109702199799 L1.1032828776899635 0.8636303712199993 L1.1004345706899414 0.8675366212199993 L1.0943310546900022 0.8672924812199927 L1.0870068366899943 0.866071777220002 L1.081391601689944 0.8670483402199967 L1.0650341796900022 0.8788484702199799 L1.0469677736899996 0.8874747722200187 L1.0257275396899388 0.8925203452199799 L1.0002555346899555 0.8943920902199967 L1.0036735026899635 0.8972403972200187 L1.0069287116899943 0.8988680012199826 L1.0066845706899414 0.9019604492200006 L1.0002555346899555 0.9080639652199967 L1.0118115236899996 0.9315014652199967 L0.9981396486899996 0.9491609702199799 L0.9771435546900022 0.9509513352200134 L0.9660758466899608 0.9256420902199967 Z M1.2159130866899943 0.6268139652199967 L1.225027669689922 0.6329174812199927 L1.2297477216899608 0.6472403972200187 L1.2299104816899273 0.6633536782200213 L1.226166992689997 0.6752351892199773 L1.2175406906899582 0.6795483402199967 L1.200776367689997 0.6850008142199773 L1.1809195966899608 0.6890698242200006 L1.1639925136899194 0.6889070642199773 L1.1568310546900022 0.6998120122199953 L1.1482861336899362 0.700544434219994 L1.1467399096899555 0.6912670902199967 L1.183198242689997 0.6434969082200315 L1.1971956386899194 0.631696777220002 L1.2159130866899943 0.6268139652199967 Z M0.8425406906899582 0.5175203452199799 L0.850027669689922 0.5305411782200213 L0.8602001956899414 0.5350170902199967 L0.8719189456899414 0.532575684219994 L0.8841259766899441 0.5243562832200315 L0.8819287116899943 0.5503979492200006 L0.8699658206899414 0.5604077152199967 L0.8513297526899635 0.5609773762199826 L0.8288688156899582 0.5585359702199799 L0.8184521486899996 0.5437247722200187 L0.8103141276899635 0.527611491220016 L0.8099072266899441 0.5114982102200134 L0.8221142586899362 0.497175293219998 L0.848074544689922 0.4905834962199993 L0.8645947266899441 0.4999422202199799 L0.8646761066899273 0.5129630532200213 L0.8425406906899582 0.5175203452199799 Z M0.08847167969000225 0.24326904321999798 L0.10393391968992205 0.22975992822002134 L0.12484863368993615 0.22227294922000063 L0.14478678468995554 0.22373779321999798 L0.15731933668999432 0.2370841472200187 L0.15609863368993615 0.25474365222000195 L0.14381022168996083 0.268659668219998 L0.12631347668994408 0.27525146521999666 L0.10897949268999696 0.2712638352200134 L0.10141113368993615 0.26548584021999666 L0.0960400396899388 0.2595450852200134 L0.09205240968995554 0.2523022462199993 L0.08847167969000225 0.24326904321999798 Z M0.08847167969000225 0.16140055322002134 L0.08261230469000225 0.1641674812199927 L0.08139160168994408 0.1683178712199993 L0.08187988368993615 0.1741772462199993 L0.08163574268999696 0.18190836622001605 L0.07968261768999696 0.18597737621998256 L0.0770784506899247 0.1895581062199927 L0.07333496168999432 0.19265055322002134 L0.06780110668992734 0.1954174812199927 L0.051687825689924694 0.18695393921997727 L0.042898763689919406 0.17686279321999798 L0.03988769568994144 0.16237711622001605 L0.04062011768999696 0.14089274122001605 L0.04647949268999696 0.1133862312199927 L0.04745605469000225 0.10264404321999798 L0.0450146486899996 0.09515706421997727 L0.03964355469000225 0.0901928712199993 L0.03492350268996347 0.0837638352200134 L0.03378417969000225 0.07188232422000063 L0.06771972668994408 0.08099690822003147 L0.07463704468992205 0.0857169602200134 L0.07992675868993615 0.09613362621998256 L0.0840771486899996 0.11875732422000063 L0.08847167969000225 0.12722086622001605 L0.08847167969000225 0.13340576221999534 L0.08358886768999696 0.13910237621998256 L0.08163574268999696 0.1452872722200187 L0.0829378256899247 0.15228597021997992 L0.08847167969000225 0.16140055322002134 Z M0.18596516968992205 0.462019043219998 L0.17172363368993615 0.42246826221999534 L0.18710449268999696 0.41465576221999534 L0.20199707068994144 0.4304435222200187 L0.18596516968992205 0.462019043219998 Z" fill="black" stroke="black" stroke-width="0.5" vector-effect="non-scaling-stroke"/></svg>