<svg xmlns="http://www.w3.org/2000/svg" viewBox="0 0 8.592311958060051 7.032443035919918"><path d="M8.371847907530018 0.06894665795990207 L8.372345456529978 0.06894551995999976 L8.43632087953005 0.0689713579599136 L8.506497474530043 0.0689713579599136 L8.506497474530043 0.16299662695995565 L8.506497474530043 0.2569443809599825 L8.506497474530043 0.35094381095992233 L8.506497474530043 0.4449949179598782 L8.506600826530068 0.45874084795990555 L8.50665250352997 0.49770487895991167 L8.50665250352997 0.5582696569599541 L8.506807532530011 0.6367144809598706 L8.506962562530042 0.7295770309599057 L8.507065914529981 0.8332399539599642 L8.50722094453004 0.944085900959994 L8.507324297530054 1.058497521959982 L8.507427650530069 1.172960818959968 L8.507582678530035 1.2838067669599873 L8.50773770852998 1.3874180129599445 L8.50784106153008 1.4802288859599635 L8.507944414530037 1.5587770629598943 L8.508021929530052 1.6192901649599385 L8.508021929530052 1.6582025189599285 L8.50807360553005 1.672000125959972 L8.50807360553005 1.717268679959961 L8.501226478530008 1.7303944939599383 L8.481666948529998 1.7354071089599934 L8.396840084530048 1.7354071089599934 L8.296019365530036 1.7354587849599064 L8.195301998529992 1.7354587849599064 L8.09463630853002 1.7354587849599064 L7.993867265530035 1.7354587849599064 L7.8931498995299805 1.7354587849599064 L7.792432532530022 1.7354587849599064 L7.691715166530052 1.7354587849599064 L7.59099779952998 1.7354587849599064 L7.490228756529994 1.7354587849599064 L7.3895113895300355 1.7354587849599064 L7.288845700530082 1.7354587849599064 L7.188076656530022 1.7354587849599064 L7.087359290530053 1.7354587849599064 L6.986590247529982 1.7354587849599064 L6.885924557530011 1.7354587849599064 L6.785207190530052 1.7354587849599064 L6.684438147529981 1.7354587849599064 L6.583720781530012 1.7354587849599064 L6.483003414530025 1.7354587849599064 L6.3822860475299805 1.7354587849599064 L6.281568681530011 1.7354587849599064 L6.180799639530015 1.7354587849599064 L6.0801339485300545 1.7354587849599064 L5.979364905529984 1.7354587849599064 L5.878647539530014 1.7354587849599064 L5.777930172530056 1.7354587849599064 L5.67716112953007 1.7354587849599064 L5.5764437635300155 1.7354587849599064 L5.47567472053003 1.7354587849599064 L5.37506070653 1.7354587849599064 L5.274291663530015 1.7354587849599064 L5.173574297530045 1.735510460959933 L5.173574297530045 1.8111647589598938 L5.173574297530045 1.8867157019599183 L5.173574297530045 1.962318321959959 L5.173574297530045 2.0379209429599037 L5.173574297530045 2.1134718869599176 L5.173574297530045 2.189074506959958 L5.173574297530045 2.264677127959903 L5.173574297530045 2.340228071959917 L5.173574297530045 2.4158306919599575 L5.173574297530045 2.491484988959929 L5.173574297530045 2.5670876089599695 L5.173574297530045 2.6426127149599843 L5.173574297530045 2.718163659959931 L5.173574297530045 2.7937921179599705 L5.173574297530045 2.8693947379598974 L5.173574297530045 2.944945682959929 L5.173574297530045 3.02054830295997 L5.173574297530045 3.096150922959925 L5.173574297530045 3.171779381959869 L5.173574297530045 3.2473303259599966 L5.173574297530045 3.3229329469599413 L5.173574297530045 3.398509727959965 L5.173574297530045 3.4741123499599276 L5.173574297530045 3.5497149699599397 L5.173574297530045 3.625317589959895 L5.173574297530045 3.7008685339599374 L5.173574297530045 3.7764711549599674 L5.173574297530045 3.852099612959922 L5.173574297530045 3.927676394959935 L5.173574297530045 4.003304853959907 L5.173574297530045 4.078933312959936 L5.173574297530045 4.154484256959979 L5.173574297530045 4.235228682959917 L5.16954353553006 4.2694126419599066 L5.156159339530028 4.285432335959957 L5.054305091530033 4.311063846959929 L4.83499031253006 4.4079313189599425 L4.79897183952999 4.417879031959945 L4.63050666953 4.440125735959885 L4.569450965530017 4.459581912959965 L4.5066641005300525 4.499656985959962 L4.398944577530067 4.568541670959963 L4.273784258529979 4.648355919959972 L4.173635332530061 4.712408857959861 L4.154540890530079 4.735198164959957 L4.068990556530018 4.846870934959913 L4.036589433530018 4.910407108959863 L4.023386105530044 4.977715660959962 L4.033902259530002 5.0416135699599245 L4.082529782530024 5.170184533959958 L4.095552242530054 5.234935102959941 L4.112049944030069 5.484971520459926 L4.128547645530027 5.73500793795991 L4.156789803529982 6.1484714279599935 L4.162705766529989 6.235080772959993 L4.173635332530061 6.396983035959966 L4.027158484529984 6.396983035959966 L3.985791500530034 6.397034712959982 L3.8690286015300828 6.397034712959982 L3.6874634575299794 6.397034712959982 L3.4519739555300006 6.397086388959895 L3.173386308530006 6.397138065959911 L2.89328512253001 6.397184609959954 L2.862397538529983 6.397189741959938 L2.5299113745300517 6.397241417959936 L2.186624833529997 6.397241417959936 L1.8433382945300067 6.397344770959894 L1.5108004525300416 6.397344770959894 L1.1998633595300632 6.397396446959892 L0.9211723605300435 6.397499800959924 L0.6857345345299777 6.397499800959924 L0.5042469045300706 6.397499800959924 L0.3874581675300348 6.397551476959922 L0.3460653445299826 6.397551476959922 L0.23005175452995985 6.397551476959922 L0.22054329153007046 6.40581970595996 L0.20318000952996584 6.492584435959959 L0.1839563775300448 6.588495893959919 L0.14150418753001048 6.703010867959922 L0.1348637665299961 6.734946902959894 L0.11145434253003117 6.825897423959919 L0.10770780153003301 6.855663048959901 L0.13200853453002281 6.963497515959919 L0.12053392553001885 6.937944129959906 L0.08867357352999505 6.892818804959948 L0.08423835253000078 6.86791646095995 L0.08749356052998536 6.85424458595995 L0.0966081445300162 6.830522254959906 L0.09847988852998668 6.816402788959952 L0.09847988852998668 6.768591916959938 L0.10258958952999109 6.751095171959921 L0.12102220653002149 6.699500119959939 L0.16211921153000475 6.401485796959921 L0.17143724552999373 6.365352984959916 L0.17363451152998977 6.350582476959946 L0.17513936213676828 6.310439571376566 L0.23873339553002637 6.30065816595992 L0.458926673530037 6.260608931959911 L0.6088400035299841 6.249860233959897 L0.9989970665299879 6.249860233959897 L1.1488587215300115 6.23032654196 L1.2690064265299767 6.23032654196 L1.4389185355300285 6.240093387959934 L1.579065019530013 6.260608931959911 L1.728952511530018 6.280142622959932 L1.8988904595300014 6.280142622959932 L2.039011105529987 6.289909467959877 L2.2187158985300854 6.289909467959877 L2.3490696985300232 6.280142622959932 L2.4389091765300392 6.23032654196 L2.5190076465300066 6.130746056959925 L2.5487732715300737 6.050647586959872 L2.5790556615300133 5.980341800959867 L2.5687978895300247 5.910036014959889 L2.5590310435300623 5.869986779959891 L2.608847123530005 5.820170698959959 L2.6688951385300115 5.740072228959907 L2.7289689915300457 5.690307824959962 L2.7489677705299798 5.650258589959879 L2.809041622529996 5.61020935395992 L2.878830644530062 5.53990356796 L2.9188798805300493 5.490113325959971 L2.968695960529992 5.420763553959933 L2.9789278935300487 5.36022461395989 L2.998978349529999 5.280151981959921 L2.998978349529999 5.140496422959888 L3.0189771285300466 4.970558475959923 L3.0487944305300445 4.860229292959918 L3.0687932095299786 4.770363976959903 L3.0888178265300255 4.630734256959972 L3.1488916795300312 4.390490522959897 L3.1688904595300684 4.320158897959988 L3.2089396945299526 4.2108115679599685 L3.2587557745299804 4.110223391959938 L3.2987533335299517 4.039917605959932 L3.3490861785300226 3.9803346799599417 L3.4189010385300023 3.9402854449599722 L3.5287651335299515 3.900287886959905 L3.608837765530005 3.8602128129599187 L3.7089350155300096 3.8201894159599483 L3.7987744925300078 3.789907026959913 L3.8788729625300604 3.7498577919599434 L3.9091295135300115 3.7108162479599294 L3.9589197555300117 3.6405104619599236 L4.028760453529991 3.510595910959939 L4.068783850529989 3.43054911695997 L4.128857703529995 3.32993510295994 L4.198698401530059 3.260611168959901 L4.242002439529976 3.2336624159599303 L4.278745195530028 3.2108209269599577 L4.369101437529984 3.1600229939599735 L4.47893969453002 3.10044006695988 L4.559038163530083 3.050649824959965 L4.628853024530052 2.9998777299599517 L4.688901038529984 2.960810346959949 L4.758741737530038 2.900245567959889 L4.788998287530056 2.8504553259599454 L4.829047523530043 2.760615847959958 L4.878863603530071 2.6199784389599365 L4.918912838529955 2.470607710959957 L4.9589362355300395 2.310410769959919 L4.98872769853002 2.2108302849599575 L5.019010087530056 2.0906825809599248 L5.059033484530026 1.9998612499599524 L5.088824948530025 1.9002549269599918 L5.108823727530044 1.860205692959898 L5.108823727530044 1.8104412879599643 L5.128874182530005 1.7401096639599594 L5.13305935752998 1.7345810989599393 L5.159130734530031 1.7000604279598868 L5.22897143253001 1.6805267369599797 L5.30901822652995 1.6600111939599067 L5.435005367530003 1.6444049109599526 L5.471643958530045 1.626834923959894 L5.490660885530012 1.5682338499598707 L5.505336992530083 1.5174359169599718 L5.552672603530048 1.4354254189598983 L5.605899330530029 1.370003054959927 L5.6366726445299875 1.329953819959929 L5.678194658530053 1.2606040489599941 L5.719174068530002 1.2108138059599476 L5.789970781530023 1.1473293089599004 L5.851982500530077 1.0975132279599684 L5.8730148085299945 1.046766971959972 L5.8730148085299945 0.98620219295994 L5.828573076530027 0.9373679639599466 L5.797308834530035 0.8475026479599315 L5.926241533530053 0.8201916539599274 L6.039516273530033 0.789909264959892 L6.143024166529976 0.7606087279599372 L6.267047604530056 0.7205853309599668 L6.359806800530059 0.7205853309599668 L6.432102129530016 0.7108184849599191 L6.535610022530015 0.7303521769599293 L6.638601152530008 0.7401190219599592 L6.710896480529975 0.7703755739598996 L6.834919918530055 0.8299326619599761 L6.938427813529977 0.8699818959599561 L7.000439531530013 0.8699818959599561 L7.066843747530065 0.8504482049599353 L7.123016029530042 0.8221295209599369 L7.157174150530004 0.8201916539599274 L7.208953935530069 0.8406813599599054 L7.289517493530063 0.8807305939599708 L7.372018917529992 0.8807305939599708 L7.4545203415300065 0.8699818959599561 L7.51653206153005 0.8201916539599274 L7.620039954529993 0.7401190219599592 L7.702567217530081 0.6805360959598836 L7.776826250529972 0.6424505649599332 L7.836874264530074 0.6326837199599602 L7.904260332530008 0.6326837199599602 L7.981413245530057 0.6307200149599517 L8.105436683530051 0.6404868609599994 L8.18796394552998 0.6404868609599994 L8.300773597530046 0.6268442829598833 L8.394979733530043 0.6102303099598778 L8.43601082052998 0.5799479199599382 L8.43601082052998 0.5399245229599678 L8.415495276530002 0.4803415969598923 L8.393041867529995 0.42272237495992115 L8.387176592530004 0.36998657695990644 L8.400870846530033 0.3143568969599819 L8.415495276530002 0.27038025295992796 L8.40526334353003 0.20004862895992304 L8.375962806530048 0.11705627795989315 L8.37043342853007 0.07101257695997631 L8.371847907530018 0.06894665795990207 Z" fill="black" stroke="black" stroke-width="0.5" vector-effect="non-scaling-stroke"/></svg>