<svg xmlns="http://www.w3.org/2000/svg" viewBox="0 0 2.101342773480013 1.1327246094600198"><path d="M0.06401774174000252 1.0457731122299982 L0.09819742874000781 1.0811735022300049 L0.10124918674000583 1.0874397782300242 L0.11386311873999944 1.091183268230001 L0.1595987957400098 1.1147835282300242 L0.1595987957400098 1.121619466230019 L0.10629475973999547 1.1182014972300216 L0.09750569674000076 1.121619466230019 L0.08489176474000715 1.1160856122299982 L0.05941975973999547 1.1123421222300216 L0.04973551474000715 1.1072965492300035 L0.031099446740000758 1.0792203772300049 L0.02060139974000208 1.050411784229997 L0.028291829739998775 1.034786784229997 L0.06401774174000252 1.0457731122299982 Z M2.050874837739997 0.011105143230000891 L2.0633260097399955 0.03291503922998018 L2.075777181739994 0.0498421222300216 L2.080741373740011 0.06628092423000354 L2.0707316087400045 0.0869514972300216 L2.0741902677399935 0.09069498722999825 L2.075777181739994 0.09338053422999693 L2.078177897740005 0.10046061222999825 L2.061861165739998 0.10306477823002425 L2.058687337739997 0.11266764323000089 L2.064506022740005 0.1380582682300009 L2.0591756187399994 0.14993977823002425 L2.0468465177399935 0.15246256522999957 L2.0331339517400124 0.14863769522998282 L2.023531087739997 0.14147623722999825 L2.0224324547399988 0.1260139972300216 L2.0115681967400008 0.10892415323002425 L2.006766764740007 0.0928108722300216 L2.023531087739997 0.08011556023001631 L2.016166178740008 0.05920084623000221 L2.0223103847399955 0.0400764972300216 L2.035941569740004 0.023637695229982825 L2.050874837739997 0.011105143230000891 Z" fill="black" stroke="black" stroke-width="0.5" vector-effect="non-scaling-stroke"/></svg>