<svg xmlns="http://www.w3.org/2000/svg" viewBox="0 0 12.234438476520026 7.021877717820056"><path d="M9.552814135260057 0.06884193840999941 L9.559887934260011 0.08474764541002955 L9.588160814260043 0.14832029141009784 L9.630948900260073 0.2448518674101159 L9.67373698625999 0.3414351194100469 L9.71652507226002 0.4379666944100755 L9.759209805260006 0.5345499474100244 L9.801997891260037 0.6310556844100539 L9.844889330259996 0.727613098410071 L9.887522387259985 0.824196349410041 L9.930362149260013 0.92070208741006 L9.973201911259984 1.017207824410061 L10.015938321260073 1.1138427524100187 L10.05872640725999 1.2103226524100386 L10.101617845260073 1.3068542274100672 L10.144405932259978 1.40338580341 L10.187038988259978 1.4999173784100286 L10.229827074260008 1.5965006304100733 L10.272615160260038 1.693032205410102 L10.304344490260057 1.7646040644100331 L10.302484138260006 1.7651208294100762 L10.29721314225997 1.765792622410057 L10.29566284925999 1.7663093864100254 L10.31044230925999 1.7753010864100496 L10.348062751260038 1.7773681434100261 L10.365219326259982 1.783259256410016 L10.375761319260043 1.7970568644100489 L10.41451864326006 1.8807726844101147 L10.476943773260011 2.0162166134100197 L10.539472257259995 2.151557189410081 L10.602104093260031 2.287001118409986 L10.664541829259967 2.4220780174100405 L10.664216308259988 2.422240777410064 L10.643382975260003 2.4326574444100793 L10.59601969426 2.4450272354100484 L10.559073079259967 2.4363195534100264 L10.548086751260023 2.4461665584100665 L10.536368001260023 2.448201064410039 L10.524730631260006 2.448852105410065 L10.514476725260003 2.4543045794100458 L10.495352376260023 2.473347548410043 L10.484121907259969 2.481404189410039 L10.459463704259967 2.4890539284100264 L10.425284017260019 2.5083410374100303 L10.383291829259967 2.5161535374100303 L10.363028157259969 2.5247798404100585 L10.326325683259988 2.546182834410029 L10.311026204259967 2.552530491410078 L10.171866048260021 2.587768121410061 L10.106761881260006 2.6172277564100277 L9.994619954259967 2.693236871410061 L9.892813314260017 2.773314996410061 L9.866934407259969 2.800658746410061 L9.853669433259988 2.8205968974100806 L9.835603027259985 2.8555090064100277 L9.802888183259988 2.8925370014100444 L9.79564534526002 2.903604709410029 L9.791250814260017 2.916096571410076 L9.791250814260017 2.92639116841006 L9.793773600260003 2.9385168194100793 L9.796866048260021 2.948078993410075 L9.798575032259969 2.9508866104100484 L9.791006673260021 2.9693192284100682 L9.76854573525997 2.9941808814100277 L9.758291829259967 3.035033746410061 L9.734203287260009 3.062377496410061 L9.729727376260023 3.0806066624100303 L9.737621256260006 3.099690321410076 L9.751618652259985 3.1221105694100793 L9.76073323525997 3.1453853084100665 L9.749665527259985 3.1865636944100793 L9.765778808259988 3.201496962410072 L9.798575032259969 3.217732314410039 L9.79947021525998 3.232543511410068 L9.791250814260017 3.3037511944100793 L9.79564534526002 3.3474930564100696 L9.80541097026002 3.389729384410071 L9.812491048260021 3.3958328994100775 L9.81704834025998 3.40100054341006 L9.81908284526002 3.4067785374100303 L9.818024902259985 3.412922743410075 L9.812735189260017 3.421955946410076 L9.811677246259983 3.4269608294100458 L9.810782064260017 3.4351395404100735 L9.807770996259983 3.4427078994100775 L9.802562662260009 3.4483638244100625 L9.794912923260021 3.4505203994100775 L9.773184407259969 3.453002496410061 L9.621328939260017 3.494465712410072 L9.612946777259985 3.5013423404100585 L9.605703939260017 3.5086665584100665 L9.59992594426 3.5132645404100735 L9.591136881260006 3.5158280174100405 L9.575837402259985 3.517211480410065 L9.565909017260019 3.519408746410061 L9.48729573525997 3.549153212410072 L9.448395996259983 3.572956923410043 L9.449209798260021 3.5950923404100585 L9.448395996259983 3.5994461814100696 L9.44603597026002 3.6007075744100625 L9.443594564260017 3.6007075744100625 L9.44237386025997 3.601358616410078 L9.442862142260019 3.612914605410065 L9.439606933259988 3.6143794494100625 L9.434073079259967 3.6111649314100696 L9.42805094426 3.6087642154100585 L9.420726725260003 3.604939345410042 L9.412914225260003 3.5981847874100303 L9.403474121259983 3.595784071410076 L9.390860189260017 3.6050614154100735 L9.383617350260003 3.6087235244100775 L9.33299886025997 3.6188553604100484 L9.254141439260017 3.6610103084100665 L9.241446126260023 3.6730545794100458 L9.236319173260021 3.6873368064100696 L9.241934407259969 3.706827366410078 L9.25072347026002 3.717488173410043 L9.25064209025998 3.7242020404100735 L9.22948323525997 3.731729709410029 L9.12368896525998 3.741495334410029 L9.104727376260023 3.7476395404100735 L9.087637532259969 3.7564286034100682 L9.072500814260017 3.766438368410075 L9.048493652259985 3.793782118410075 L9.028474121259983 3.7949621314100277 L9.020743001260023 3.7980545794100458 L9.017813314260017 3.8042801654100735 L9.006664225260003 3.804809136410068 L8.956208496259983 3.8264562724100806 L8.94204834025998 3.8347570534100264 L8.91665771525998 3.82678179341006 L8.888662923260021 3.837768121410061 L8.862621256260006 3.854206923410043 L8.843008626260023 3.8626704654100585 L8.644034017260019 3.9148351784100264 L8.425528157259969 3.954548720410042 L8.235668131260006 4.005981011410068 L8.128246256260006 4.015909397410081 L8.033682454259967 4.0540360244100775 L8.00658284526002 4.069050673410043 L7.932445475260003 4.131143772410081 L7.917227376260023 4.139729384410071 L7.876455892260019 4.14701291241003 L7.818024902259985 4.1773270404100735 L7.753734537260009 4.221150282410047 L7.73924886025997 4.2220047744100775 L7.7204500322599685 4.21468055641007 L7.695629069260001 4.220255100410082 L7.653555501260023 4.23880978741003 L7.634593912260009 4.244262261410068 L7.62596761025997 4.245727105410065 L7.616039225260003 4.246215386410068 L7.61001709025998 4.225544814410039 L7.603994954259967 4.2141922744100775 L7.595205892260019 4.215209527410064 L7.580231933259988 4.2200923404100585 L7.51634847026002 4.2257075744100625 L7.3727937822599685 4.272297743410075 L7.152334798260021 4.327188694410079 L7.034659017260019 4.390909397410081 L6.992015787260009 4.4075516494100775 L6.946605631260006 4.41467241841006 L6.926260579260024 4.4246821834100665 L6.886953939260017 4.45170041241003 L6.803050944260001 4.489216689410039 L6.76439534526002 4.515909397410081 L6.756094564260017 4.547891819410079 L6.746084798260021 4.5462235244100775 L6.730948079260024 4.538370334410029 L6.711254069260001 4.531819228410068 L6.687735189260017 4.534260634410071 L6.66698323525997 4.544880751410044 L6.652172037260009 4.558389866410078 L6.60228597026002 4.628132704410046 L6.584138183259988 4.663370334410029 L6.574453939260017 4.70491493141007 L6.582185058259988 4.710041884410071 L6.58275472026002 4.721475803410026 L6.580231933259988 4.7332759334100665 L6.5778719072599685 4.739704970410042 L6.565746256260006 4.747598850410082 L6.524730631260006 4.7638748924100405 L6.515860189260017 4.770100478410068 L6.510000814260017 4.794026259410071 L6.495759277259985 4.802611871410061 L6.477692871259983 4.8059891494100775 L6.461172689260017 4.814167860410048 L6.456534017260019 4.821247939410039 L6.454580892260019 4.829874241410078 L6.454336751260023 4.852375868410075 L6.451162923260021 4.857746962410072 L6.44408284526002 4.86311805641007 L6.437165527259985 4.869831923410043 L6.42674886025997 4.897501194410079 L6.409496256260006 4.908243381410028 L6.37181722026002 4.9240311424100405 L6.312491048260021 4.9962967674100405 L6.29369222026002 5.0072017154100585 L6.287914225260003 5.009073459410029 L6.27603271525998 5.0177811424100405 L6.270010579260024 5.0208735904100585 L6.263500162260009 5.022053603410068 L6.255687662260009 5.0208735904100585 L6.138988444260001 5.0184321834100665 L6.122305501260023 5.02396603741003 L6.077627767260019 5.0618485244100775 L6.068024902259985 5.065510634410071 L6.059724121259983 5.0659989154100735 L6.05174886025997 5.0677485904100585 L6.042959798260021 5.0755203994100775 L6.024649251260023 5.0538325744100625 L5.989574381260006 5.047647678410026 L5.912425944260001 5.0481766494100775 L5.915355631260006 5.0520828994100775 L5.919912923260021 5.0618485244100775 L5.878409017260019 5.062580946410076 L5.762930501260023 5.095336480410065 L5.767813314260017 5.071085178410026 L5.751781412260009 5.05529741841006 L5.72948323525997 5.0442703994100775 L5.7145906572599685 5.033894423410043 L5.70775472026002 5.041340712410072 L5.680166829260024 5.0284419494100625 L5.591055501260023 5.0072017154100585 L5.575837402259985 5.015339735410048 L5.522777506260006 5.03108680641007 L5.505362142260019 5.033894423410043 L5.491527506260006 5.043090386410068 L5.440746256260006 5.102823459410029 L5.39517334025998 5.126016819410079 L5.241446126260023 5.177286350410082 L5.219880371259983 5.191283746410061 L5.1384187822599685 5.275349501410044 L5.010244954260024 5.386433485410048 L4.9724031572599685 5.409626845410042 L4.741039225260003 5.478881402410064 L4.4860750322599685 5.531208876410044 L4.398428548260021 5.588175022410081 L4.274893392260019 5.6341548404100585 L4.258047689260017 5.63724728741003 L4.238109537260009 5.634398980410065 L4.202465006260006 5.62365679341006 L4.178946126260023 5.62357541241003 L4.157705892260019 5.629353407410047 L4.114411621259983 5.6475825744100625 L4.094229329260024 5.651448134410071 L3.887198079260024 5.65091916241003 L3.8437410482600214 5.644001845410042 L3.8220125322599685 5.632364475410082 L3.808747558259988 5.628132704410046 L3.802888183259988 5.63342241841006 L3.7983308922600187 5.635782444410079 L3.7717195642600174 5.644001845410042 L3.6855379232600214 5.657673720410042 L3.5148022462599826 5.665120009410071 L3.497386881260006 5.669026259410071 L3.4646720372600086 5.68216916241003 L3.44994222026002 5.685017470410042 L3.4079500322599685 5.683145725410082 L3.38963948525997 5.6849360904100585 L3.37767659526002 5.692463759410071 L3.2399812822599685 5.72249305641007 L3.2062898762600227 5.7395828994100775 L3.11009847026002 5.835814996410061 L3.08267334025998 5.855793837410072 L3.0683504232600214 5.869831923410043 L3.05565511025997 5.906941298410043 L3.008291829260024 5.9661453994100775 L2.97720459025998 5.9943436424100405 L2.9394441732600214 6.010782444410079 L2.767731933259988 6.051798069410079 L2.7282625322599685 6.072346571410076 L2.69237386025997 6.102742079410046 L2.67870198525997 6.119587782410047 L2.6736564122600086 6.1282954654100585 L2.6679597982600214 6.138223850410082 L2.667390136259989 6.1397700744100625 L2.66079834025998 6.157185439410039 L2.6581941732600214 6.175007704410046 L2.6564851892600174 6.177856011410068 L2.632966308259988 6.237344944410079 L2.6308504232600214 6.247354709410029 L2.6362215172600187 6.287922743410075 L2.6328035482600214 6.302449110410048 L2.6135164392600174 6.3081864154100735 L2.591950683259988 6.304646376410044 L2.568838704260024 6.295287652410064 L2.5535392252600033 6.282185439410039 L2.555166829260024 6.2671707904100735 L2.571605631260006 6.261026584410029 L2.591950683259988 6.262735569410079 L2.6093660482600214 6.260823134410071 L2.6166902672600187 6.243611220410042 L2.6127840172600187 6.243245009410071 L2.5974845372600086 6.223428928410026 L2.596182454260024 6.21935991841006 L2.594229329260024 6.215535048410043 L2.5956941732600214 6.211018446410076 L2.5956941732600214 6.207315647410081 L2.5893465172600187 6.205769423410043 L2.5834871422600187 6.207803928410026 L2.58267334025998 6.2122391494100775 L2.5834871422600187 6.216918511410068 L2.582510579260024 6.21935991841006 L2.5754305012600227 6.23099728741003 L2.5722566732600214 6.23303179341006 L2.5672111002600033 6.2320145404100735 L2.5578523762600227 6.227335178410026 L2.55174886025997 6.226277235410048 L2.5292879232600214 6.2274165584100665 L2.5187898762600227 6.230509006410028 L2.51431396525998 6.236449761410068 L2.5073152672600187 6.251830621410061 L2.49095784526002 6.2650142154100585 L2.4724845372600086 6.268269423410043 L2.4589754232600214 6.253539605410065 L2.445791829260024 6.260945204410046 L2.4416414392600174 6.269652886410068 L2.44603597026002 6.2945145404100735 L2.453604329260024 6.288044814410039 L2.45962646525998 6.2864985904100585 L2.4904695642600174 6.28959103741003 L2.49510823525997 6.293090386410068 L2.49315511025997 6.305053277410064 L2.48697021525998 6.316283746410061 L2.4724845372600086 6.3277176654100735 L2.455557454260024 6.33459429341006 L2.4425366212599826 6.332356337410072 L2.4138094072599685 6.321003798410043 L2.40502034526002 6.315632704410046 L2.39907959025998 6.307453993410075 L2.39916097026002 6.302856011410068 L2.3968009442600007 6.299397353410068 L2.3839428712599826 6.2945145404100735 L2.3593660482600214 6.292195204410046 L2.3391023762600227 6.298909071410076 L2.3019930012600227 6.3224686424100405 L2.300935058259988 6.3179520404100735 L2.2971101892600174 6.312133355410065 L2.2951570642600174 6.3081864154100735 L2.29979573525997 6.2979731994100625 L2.293448079260024 6.284382704410046 L2.2810782872600086 6.2708328994100775 L2.2678133142600174 6.261026584410029 L2.2265535482600214 6.246540907410047 L2.1848055012600227 6.244913303410026 L2.146963704260024 6.252888564410039 L2.1170157872600086 6.2671707904100735 L2.0641186522599853 6.310994032410047 L2.007152506260006 6.370889866410078 L2.0050366212599826 6.3763016494100775 L1.9977124022599853 6.38850868141007 L1.9897371422600187 6.394327366410078 L1.9859936522599853 6.3804520404100735 L1.98119222026002 6.379231337410072 L1.95767334025998 6.388142470410042 L1.9285392252600033 6.39514116841006 L1.863760579260024 6.425495985410048 L1.8415437822599685 6.427693251410044 L1.8215242512600227 6.425495985410048 L1.8027254232600214 6.425821506410028 L1.7653719072599685 6.445352756410028 L1.7433178712599826 6.446329319410079 L1.7236238602599698 6.439493381410028 L1.712230631260006 6.425495985410048 L1.7258211262600227 6.426594618410075 L1.7503165692600007 6.4312332904100735 L1.764151204260024 6.432331923410043 L1.7726147462599826 6.425414605410065 L1.77220784526002 6.412231011410068 L1.7653719072599685 6.404011610410048 L1.7538972982600214 6.411824110410048 L1.7276928712599826 6.408528212410072 L1.6955476892600174 6.421101454410046 L1.6365470372600086 6.452758355410065 L1.607901204260024 6.460163954410046 L1.5912996422600187 6.46077430641007 L1.5659090172600187 6.452351454410046 L1.535635579260024 6.464884006410028 L1.5204988602599698 6.466430230410065 L1.501293131260006 6.454304579410046 L1.4836336262600227 6.419148329410046 L1.4689851892600174 6.411824110410048 L1.4483959962599826 6.409016493410075 L1.4319571942600007 6.4019364154100735 L1.4037996422600187 6.383870009410071 L1.3876863602599698 6.3760981994100625 L1.3688875322599685 6.369587782410047 L1.3479728192600007 6.36507118141007 L1.3256746422600187 6.363362196410076 L1.3120027672600187 6.3587235244100775 L1.2736726892600174 6.336628798410043 L1.2536531572599685 6.3292231994100625 L1.2182527672600187 6.32991493141007 L1.2088126622600086 6.325805230410065 L1.1935945642600174 6.314900282410047 L1.1838289392600174 6.3101395404100735 L1.1747957352599698 6.3081864154100735 L1.1619376622600086 6.31310991841006 L1.1049715172600187 6.36897743141007 L1.099763183259988 6.374104384410071 L1.0859285482600214 6.381306532410047 L1.064932454260024 6.383870009410071 L1.0422273762600227 6.380574110410048 L1.036449381260006 6.371134006410028 L1.05541097026002 6.291055881410028 L1.0561433922600187 6.252400282410047 L1.047354329260024 6.217854384410071 L1.0270906572599685 6.185871962410072 L0.9968172202600201 6.158284071410076 L0.9929109702600201 6.1480301654100735 L0.9897371422600187 6.135578993410075 L0.9826570642600174 6.127522353410068 L0.9755769852599698 6.121052626410044 L0.9724031572599685 6.113321506410028 L0.9710196942600007 6.093627496410061 L0.9671134442600007 6.074787978410068 L0.9606030272599853 6.057209853410068 L0.9513256832599879 6.041300022410081 L0.9160066732600214 6.001830621410061 L0.9103914392600174 5.99007118141007 L0.9089265952600201 5.982299371410061 L0.8967195642600174 5.958699110410048 L0.887198079260024 5.933227105410065 L0.8830476892600174 5.9251704654100585 L0.8230704752600033 5.8517655174100405 L0.8005281572599685 5.7805985244100775 L0.813793131260006 5.7493485244100775 L0.8225008142600174 5.715535048410043 L0.8284415692600007 5.537922743410075 L0.8488680012600227 5.506876194410079 L0.8526928712599826 5.49788368141007 L0.8544832352599698 5.490356011410068 L0.858715006260006 5.484089735410048 L0.8693758142600174 5.478881402410064 L0.8561922202600201 5.447346571410076 L0.8595288082599879 5.377888564410039 L0.8551342772599853 5.342366103410068 L0.8220939122600086 5.280801975410082 L0.817699381260006 5.27014116841006 L0.8073640952600201 5.18810991841006 L0.8015047202600201 5.1790360244100775 L0.7359159322600064 5.110489067410054 L0.7133920502599764 5.057131002410056 L0.6922663142599887 5.011987687410038 L0.6697191862600036 4.980523743410043 L0.6584525762599966 4.905292401410048 L0.649991418260008 4.869720159410047 L0.6401157832599935 4.839614380410051 L0.6217620562600175 4.788971867410037 L0.5932527672600187 4.696125868410075 L0.5851961262600227 4.676065647410081 L0.5803133142600174 4.64505978741003 L0.567699381260006 4.616169814410039 L0.5641186522599853 4.584268772410081 L0.5615144852599698 4.575235569410079 L0.5558992512600227 4.5697017154100585 L0.537588704260024 4.556721571410076 L0.5335196942600007 4.5509842674100405 L0.5353914392600174 4.539102756410028 L0.5401928712599826 4.534219944410079 L0.5476798502600033 4.5360103084100665 L0.5578523762600227 4.544148329410046 L0.5683504232600214 4.564005100410082 L0.5803133142600174 4.609700087410072 L0.5956941732600214 4.6223953994100775 L0.596182454260024 4.593383355410065 L0.594229329260024 4.579874241410078 L0.5882071942600007 4.5677078994100775 L0.602855631260006 4.5264888244100625 L0.5917879232600214 4.493245009410071 L0.5722566732600214 4.462971571410076 L0.5615144852599698 4.430622939410039 L0.5637117512600227 4.4234207904100735 L0.5729890952600201 4.4132075744100625 L0.5751863602599698 4.407307509410071 L0.5740470372600086 4.401163303410026 L0.5715242512600227 4.39827430641007 L0.56900146525998 4.396565321410076 L0.5646883142600174 4.384398980410065 L0.5578523762600227 4.379353407410047 L0.5510164392600174 4.3760981994100625 L0.5480053712599826 4.372598850410082 L0.5456453452600201 4.367471897410081 L0.5407625322599685 4.3626297744100775 L0.5358797202600201 4.355915907410047 L0.5283113602599698 4.321817600410082 L0.5273347982600214 4.3107498924100405 L0.5164298502600033 4.2755936424100405 L0.4687410482600214 4.2169998924100405 L0.4578361002600033 4.1807856994100625 L0.45580159526002006 4.159870985410048 L0.45751057926002403 4.14896603741003 L0.46532307926002403 4.150675022410081 L0.4699617512600227 4.158487522410081 L0.46825276726001874 4.1651606994100625 L0.4651603192600007 4.173054579410046 L0.46532307926002403 4.184162978410068 L0.4724845372600086 4.2027176654100735 L0.4846101892600174 4.223103407410047 L0.5008048502600033 4.241251194410079 L0.5198478192600007 4.2530513244100625 L0.5209871422600187 4.238606337410072 L0.5273347982600214 4.2052811424100405 L0.5265209962599826 4.1849360904100585 L0.5158601892600174 4.149128798410043 L0.5114656572599685 4.116007053410026 L0.506338704260024 4.103637261410068 L0.4977937822599685 4.093057834410029 L0.47232177725998525 4.0692134334100665 L0.46141682926002403 4.056273980410065 L0.4543367512600227 4.039631728410068 L0.45165120426002403 4.015950087410072 L0.45653401726001874 3.961995009410071 L0.45165120426002403 3.944620334410029 L0.43822347026002006 3.928059462410072 L0.4031486002600033 3.91271929341006 L0.3710847982600214 3.8857824444100793 L0.35090250626000596 3.8730871314100277 L0.3289298502600033 3.8626704654100585 L0.30760823525996983 3.8551834854100484 L0.2854728192600007 3.85021929341006 L0.2656160482600214 3.85021929341006 L0.2511303712599826 3.858682834410029 L0.24559651726001874 3.8791092674100405 L0.23461018926001742 3.881916884410071 L0.21190511025996983 3.8736161034100682 L0.19221110026000332 3.856973850410082 L0.19090901726001874 3.8347570534100264 L0.18431722026002006 3.8208817284100682 L0.19554768926001742 3.819783095410042 L0.22883219426000068 3.8272700744100625 L0.2459220372600086 3.82482866841006 L0.25682698525996983 3.817992730410065 L0.2629305012600227 3.807453993410075 L0.26610432926002403 3.793782118410075 L0.26512776726001874 3.7832433814100277 L0.25487386025996983 3.7684321834100665 L0.25243245426002403 3.756184462410072 L0.2784741212599826 3.7090246314100277 L0.28661214226001874 3.698201064410039 L0.2918204752600033 3.711018446410076 L0.2892976892600174 3.727497939410039 L0.2820548502600033 3.7429601784100264 L0.2735913082599879 3.7528071834100665 L0.2927156572599685 3.761352105410065 L0.30793375626000596 3.770588759410071 L0.3484611002600033 3.8040360244100775 L0.3533439122600086 3.81115679341006 L0.3554597982600214 3.8241776264100444 L0.3527742512600227 3.842854384410071 L0.35619222026002006 3.849405491410078 L0.3691316732600214 3.8551834854100484 L0.37010823525996983 3.847126845410042 L0.36880615225998525 3.841877821410076 L0.36587646525997997 3.8381750224100806 L0.36229573525996983 3.8347570534100264 L0.3772696942600007 3.819294814410039 L0.38329182926002403 3.7967118064100696 L0.3810945642600174 3.720173720410042 L0.37157307926002403 3.6847733294100458 L0.3554597982600214 3.656575087410072 L0.3513907872600086 3.6425370014100444 L0.3518790692600007 3.631672743410075 L0.35415771525997997 3.6212967674100405 L0.3554597982600214 3.6087642154100585 L0.3547273762600227 3.5970047744100775 L0.35253011025996983 3.585489475410082 L0.3484611002600033 3.5734452044100458 L0.3341381832599879 3.5484207904100735 L0.29344807926002403 3.494465712410072 L0.29556396525997997 3.4862870014100444 L0.30760823525996983 3.4722489154100735 L0.2980867512600227 3.4622798404100585 L0.2890535482600214 3.4505203994100775 L0.2824617512600227 3.4366450744100625 L0.27977620426002403 3.4201248924100405 L0.2902742512600227 3.384643121410061 L0.28783284526002006 3.36975054341006 L0.26610432926002403 3.362385634410071 L0.2734285482600214 3.3470454654100585 L0.2834383142600174 3.338581923410043 L0.2952384442600007 3.331664605410065 L0.30760823525996983 3.3214106994100625 L0.31590901726001874 3.311238173410043 L0.31997802725998525 3.302530491410078 L0.3211173502600033 3.291828993410075 L0.3214428712599826 3.276081923410043 L0.32665120426002403 3.2480871314100277 L0.3399975582599879 3.2287186424100405 L0.3576570642600174 3.2150467674100405 L0.37596761025996983 3.2041418194100793 L0.39419677725998525 3.189534071410076 L0.4045320642600174 3.171955946410076 L0.4090079752600033 3.149128798410043 L0.41747151726001874 3.0122879784100682 L0.4142976892600174 2.966674371410061 L0.3869539392600174 2.8262121314100277 L0.3830476892600174 2.751830621410061 L0.38182698525996983 2.7449133034100264 L0.37596761025996983 2.7243241104100484 L0.3767814122600086 2.725056532410047 L0.3772696942600007 2.722126845410042 L0.3771883142600174 2.717121962410072 L0.37596761025996983 2.711262587410072 L0.3730379232600214 2.706013564410039 L0.36489990225998525 2.6958410374100303 L0.36367919925998393 2.693521702410049 L0.4115116442600808 2.6772615354100218 L0.44665161926001673 2.6628438104100915 L0.4723864822600419 2.645583882410019 L0.48096476926007625 2.629564188410054 L0.47982788826003997 2.6133894654100764 L0.4771407132600345 2.5981965944100374 L0.48096476926007625 2.5851224564100868 L0.49161011426001977 2.5806782834100623 L0.5304707912600222 2.5737536414100894 L0.5451468982599792 2.5686893514100255 L0.5888651602600632 2.5437813104100506 L0.6104659082600321 2.5281750274100965 L0.6229716052600267 2.5110184524100383 L0.6488098212599809 2.445699442410014 L0.6528405832600512 2.4267858674100715 L0.6541841712599918 2.405650207410016 L0.6591451082600699 2.3919042764100844 L0.6719608632599758 2.3866849564100754 L0.6969722562600325 2.3911808054099843 L0.7371248442600447 2.4029630324100957 L0.7541780672599927 2.3998624474100403 L0.7602758862600396 2.381207255410086 L0.7598780952599711 2.379632394410063 L0.753971361260021 2.356247537410095 L0.7448763092600572 2.3410029904100575 L0.7427058992599811 2.3272570594100124 L0.7570719472599805 2.306483134410083 L0.7660636462600152 2.3002302854100627 L0.7752620522600111 2.2963545524101185 L0.7828068102600625 2.291083557409987 L0.7870442772600015 2.280593241410056 L0.7857006902600503 2.2676224564101197 L0.7789310782600225 2.2567704054100624 L0.7686474682600348 2.2490189414100676 L0.7315437892600514 2.2390970664100642 L0.7200199452599847 2.2300020134099974 L0.7079276602600473 2.193466776410073 L0.6868436762600751 2.1544510694100687 L0.6829162672600475 2.1375011994100497 L0.6896342032600202 2.112644835410091 L0.705757250260028 2.0740425414100194 L0.7100980702600097 2.054870584410107 L0.7102014232600524 2.0330631304100812 L0.7045170152600164 2.0109972944100853 L0.6966621982600643 1.994357482410063 L0.6926314362600507 1.9782344354100836 L0.6985225502600585 1.9575121864100673 L0.7195031812599879 1.9179280394100964 L0.7251875892600239 1.8976192004100731 L0.72425741325997 1.8745198364100268 L0.7303552322600169 1.854779438410045 L0.7510774812600332 1.8389664504100516 L0.7775358152600162 1.8281660764100103 L0.8003767972600642 1.8232051394100743 L0.8228043692600338 1.8125597934100846 L0.8263700432599919 1.7925093374100207 L0.8160347562600165 1.7710636184100927 L0.7963977122599815 1.7566458944100667 L0.7392435782600089 1.7385591434100682 L0.7420857822599984 1.7339599404100134 L0.7901448642600641 1.677270894410011 L0.8772713282600577 1.6054406534100814 L0.965224616260052 1.5525239864100193 L0.9870837472599803 1.5445141394100368 L1.0091495842600509 1.541620259410049 L1.0273396882600352 1.5457026974100607 L1.061342781260059 1.5469946084100137 L1.0775691802600633 1.5510253704100272 L1.1512597722599978 1.5815144654100912 L1.1937378002600028 1.6056473584100637 L1.2635009842600695 1.6806298624100258 L1.304842130259992 1.712049132410069 L1.3248409092600397 1.7188187454100863 L1.3429793362599796 1.7189737754100598 L1.380393073260045 1.7148913364100302 L1.4199772202600727 1.718301981410061 L1.437443855260021 1.717526835410066 L1.4609049552599842 1.7108088984100185 L1.466847745260047 1.7134443964100363 L1.466847745260047 1.7243998004100227 L1.4642639232600274 1.7442952264100278 L1.4682430082599964 1.7523050734100956 L1.4715503002599846 1.757110981410019 L1.4774930902599905 1.7601598914100371 L1.4893269932600148 1.762640360410014 L1.5128914452600313 1.759281391410095 L1.5284977282599854 1.7444502554100687 L1.5413134842600513 1.724916564410048 L1.5565063552600051 1.7076566364100607 L1.578107103259974 1.6966495554100867 L1.595160326259979 1.6984582314100827 L1.6335559152600396 1.7174234824100232 L1.659549161260081 1.7210408324100932 L1.6786694412600625 1.712514220410096 L1.6938623112600268 1.6945308224099982 L1.7084867422599856 1.669777811410082 L1.7232145252599977 1.6596492314100395 L1.7435750402599908 1.6621296994099986 L1.7857430092599813 1.6738602494100938 L1.8047599352600443 1.6726200154100432 L1.8815511142599846 1.6555151154101075 L1.9783410722600294 1.6457482704100492 L2.039370938259985 1.6480220334100544 L2.107997240260026 1.6616129344100692 L2.136160896259973 1.6600109654101196 L2.1988444082600083 1.6372733354100397 L2.2206518622600626 1.6326741324100134 L2.4232234772600734 1.633966044410041 L2.54666555326002 1.634783255410067 L2.571534837259996 1.6349478954100185 L2.7395865962600325 1.6360847774100158 L2.7963273182600616 1.647091857410114 L2.9589013752600337 1.737990702410027 L3.004583340260062 1.7524601034100407 L3.2165083892600066 1.7733890574101245 L3.465020352260062 1.7978320104100725 L3.654156094260024 1.8164872024100553 L3.8968286202600595 1.840413391410035 L4.062089850260058 1.8185025834100905 L4.284298510260037 1.789098693410093 L4.321402188260031 1.8097175904099991 L4.385997728260001 1.8960172324100562 L4.459998379260007 1.994925923410019 L4.544541023260074 2.107632222410043 L4.557201749259995 2.1153836874100556 L4.5712255592600215 2.1159653204100515 L4.70298096426 2.1214298304101042 L4.735537116260041 2.1170373324100034 L4.765096035259994 2.105565165410095 L4.887775886260037 2.0365771274100517 L5.001774096260071 1.9726533814100797 L5.002767776259979 1.9713757924100683 L5.032159838260036 1.9335859984100487 L5.0990291412600115 1.756904276410065 L5.146313077260054 1.632157368410045 L5.163211270259971 1.601203186410057 L5.260466315259968 1.4848278604100322 L5.409707852260048 1.3062857874100153 L5.567786059260065 1.1168916624100653 L5.65858155026006 1.008577860410039 L5.7361478752600235 0.9155602824100662 L5.758627122260002 0.9005482784100671 L5.886784675260053 0.8378906044100596 L6.058557136260042 0.7540714314100647 L6.250173347259981 0.6604595744100514 L6.421739102259998 0.576769591410109 L6.565502937260071 0.5065929974100492 L6.610048022260052 0.48475970441000626 L6.703013923260009 0.45238441941000573 L6.83204997526007 0.43496946241006285 L6.992246914260015 0.41342038941001746 L7.1524438542600635 0.3918713174100752 L7.312640795259988 0.3703222444101151 L7.47273438226005 0.3487731724100591 L7.632931322259985 0.3272241004100884 L7.793128263260023 0.30562335241003424 L7.953325203260015 0.2841259564100902 L8.113522142260074 0.26257688441003424 L8.27356405426007 0.24095029641005894 L8.433916023260046 0.2194529004101149 L8.594009610259995 0.19790382941004836 L8.754103197260001 0.17632891841008913 L8.91430013726005 0.15477984541004375 L9.074497077259984 0.1332307734099878 L9.234694017259976 0.11165586341001799 L9.394890958260014 0.09010679041005787 L9.552814135260057 0.06884193840999941 Z M10.822525327259989 6.943176998410063 L10.842270306259984 6.935647892410071 L10.861083035259973 6.937142116410069 L10.872265644259976 6.942606365410068 L10.882438642260006 6.946084914410033 L10.884466492259996 6.953035779410055 L10.85169433125997 6.9506503614100374 L10.837274760260009 6.949610060410048 L10.822525327259989 6.943176998410063 Z M10.627267257260023 6.889559587410059 L10.642564891260001 6.88953942541006 L10.657116971259988 6.899685073410051 L10.661273068260009 6.9159246594100345 L10.660577632260008 6.930135061410038 L10.64602791125997 6.934196543410035 L10.630788836260017 6.936228316410034 L10.60097364926002 6.924737790410045 L10.58090245926001 6.9078352244100465 L10.559464223260015 6.901752198410048 L10.56291917726002 6.8922818204100444 L10.57815238125999 6.887537211410045 L10.59124959425997 6.888903123410028 L10.60165891026002 6.884831784410078 L10.612749040259978 6.884146732410027 L10.627267257260023 6.889559587410059 Z M9.863397864259973 6.863664400410055 L9.89357299025999 6.876215798410026 L9.948884277259985 6.86389116841006 L9.963695475260003 6.867227756410028 L9.963776855259987 6.867227756410028 L9.968903808259988 6.8771561424100405 L9.955681426260007 6.8819342324100425 L9.945328285260011 6.892914180410042 L9.953139212259991 6.89878815141007 L9.962662779260022 6.915611608410057 L9.934180165259981 6.910625530410055 L9.922103286259976 6.913183044410044 L9.904776204259967 6.918293837410072 L9.858877767260019 6.90999305641007 L9.814429220260017 6.907602124410044 L9.80923321526 6.899196336410039 L9.798575032259969 6.8841548404100585 L9.792308756260006 6.883870009410071 L9.785961100260003 6.883585178410026 L9.764883626260023 6.889851454410046 L9.754060058259988 6.891641819410079 L9.749991048260021 6.888142470410042 L9.738760579259967 6.8719478084100665 L9.736563314260017 6.867064996410061 L9.73119222026002 6.868245009410071 L9.710890683259997 6.85993890441004 L9.697952103259972 6.862501176410074 L9.68651448525997 6.86584429341006 L9.68000406926 6.8606766494100775 L9.676016439260017 6.857462131410028 L9.642685837259982 6.84247155841005 L9.638317608260017 6.82900614841007 L9.652962138260015 6.824742654410027 L9.66828531926 6.822712782410047 L9.692633819259974 6.822930655410044 L9.721976409259973 6.829581722410051 L9.753075406259988 6.850536003410053 L9.774632705259982 6.858036593410059 L9.791002814260018 6.8571448694100745 L9.820313649260008 6.862108763410031 L9.863397864259973 6.863664400410055 Z M1.0031648762600227 6.390705946410076 L1.0164298502600033 6.397257053410026 L1.018057454260024 6.400675022410081 L1.0231844072599685 6.4114985904100585 L1.021638183259988 6.425821506410028 L1.0100008142600174 6.432331923410043 L1.0030834962599826 6.429809136410068 L0.9913647462599826 6.417764866410078 L0.9855867512600227 6.411824110410048 L0.973949381260006 6.414631728410068 L0.9669506832599879 6.411417209410029 L0.9643465172600187 6.398152235410048 L0.9718334962599826 6.3936763244100625 L0.9806225582599879 6.391438368410075 L1.0031648762600227 6.390705946410076 Z M12.044861275260011 6.520913853410075 L12.071131661259976 6.51756555041008 L12.09029157826 6.506045406410049 L12.101032321259986 6.507265535410038 L12.114493001260023 6.514241103410068 L12.102126027259992 6.527033350410061 L12.07223759125997 6.535007848410071 L12.05072330026001 6.541866301410078 L12.03162191626 6.54525105141003 L12.020852989259986 6.553329862410049 L12.018882748260005 6.579758461410034 L11.976539447259988 6.597255273410081 L11.942860230260003 6.604910862410048 L11.90236799126 6.6210228164100435 L11.857535697259998 6.617188498410069 L11.820140787260009 6.630940321410076 L11.811677246259983 6.63928179341006 L11.792959798260021 6.665079319410079 L11.78392659526002 6.670694553410026 L11.758047689260017 6.681965712410072 L11.72915771525998 6.7046707904100735 L11.71469707326002 6.713135151410068 L11.684910588259974 6.7106688184100385 L11.638428574259983 6.713931832410065 L11.621745666259976 6.711517402410077 L11.605085168260011 6.716118640410041 L11.582443126259982 6.734622377410044 L11.560131022260002 6.727335178410026 L11.559886881260006 6.727335178410026 L11.544180501260023 6.722615126410044 L11.51348000026001 6.729722391410046 L11.470670125260021 6.736571269410074 L11.350551205259983 6.759510865410032 L11.305363965260021 6.7640658154100315 L11.247123222260022 6.7581375424100365 L11.19246416726002 6.741773113410073 L11.146345860259991 6.7298652984100436 L11.126199328259979 6.71009622541008 L11.110179850260003 6.690714084410029 L11.093741048260021 6.670938694410079 L11.079825032259969 6.648152235410048 L11.053573800259976 6.639309250410047 L11.012074263259983 6.612523121410032 L10.908438314260017 6.548949761410068 L10.883942871259983 6.526814345410042 L10.881094564260017 6.5210770404100735 L10.889883626260023 6.51420041241003 L10.916692894259988 6.521870419410032 L10.937201380259971 6.519566611410067 L10.958731282259969 6.5071610244100775 L10.96361409526002 6.503702366410078 L10.965323079259967 6.494831923410043 L10.973786621259983 6.476887587410072 L10.977367350260003 6.466430230410065 L10.970226283259983 6.408011695410078 L10.984936856259985 6.4023437144100335 L11.00222360326 6.399089435410058 L11.044276291260012 6.393055564410059 L11.053777174259999 6.377944393410058 L11.06452589425998 6.362858847410035 L11.074068430260006 6.352414938410032 L11.09314504925998 6.350128778410049 L11.147961308259987 6.360707487410064 L11.180397511260018 6.364494478410034 L11.204133734259976 6.362175376410033 L11.22895402825997 6.359721452410081 L11.268208632259977 6.394700883410035 L11.33709313525997 6.444776234410067 L11.382264503259982 6.4564833224100475 L11.420303112259994 6.46587452841008 L11.440600292259994 6.441546377410059 L11.45019466626001 6.417185767410029 L11.477590182260023 6.411448047410072 L11.496625785259987 6.4138241344100315 L11.514382820259975 6.422053373410034 L11.547740574259983 6.417491182410043 L11.58229576626001 6.418735416410055 L11.61933056226001 6.397923887410041 L11.63245772426 6.3933164144100765 L11.656365410259973 6.37827914941003 L11.667227376260023 6.365600152410064 L11.693594564260017 6.363362196410076 L11.706445321259984 6.376113523410066 L11.720709815260015 6.386618936410041 L11.742089649259974 6.39948468241003 L11.757659239260015 6.396035409410029 L11.769690433259989 6.389079327410041 L11.774730631260006 6.3914790584100665 L11.784903157259969 6.402790907410047 L11.792959798260021 6.411824110410048 L11.81151448525997 6.412434462410072 L11.834219564260017 6.416951064410039 L11.843540089259982 6.432360243410056 L11.859053404260003 6.438230920410074 L11.89366710126 6.453485691410076 L11.93434378125999 6.4617908604100585 L11.974974035259997 6.484075554410065 L11.99610833425998 6.490451618410059 L12.044861275260011 6.520913853410075 Z M0.29344807926002403 5.3218582904100735 L0.3359285482600214 5.2923172744100775 L0.35676188126000596 5.2845454654100585 L0.3691316732600214 5.294555230410065 L0.3660392252600033 5.313760959410029 L0.3356844072599685 5.345173720410042 L0.3282788082599879 5.3665767154100585 L0.3181062822599685 5.376057509410071 L0.26276774125999935 5.400675022410081 L0.26268636025996983 5.400715712410072 L0.26048909526002006 5.38850868141007 L0.2600008142600174 5.386026584410029 L0.2600008142600174 5.385945204410046 L0.2677319332599879 5.365274631410028 L0.29344807926002403 5.3218582904100735 Z M0.33446370426002403 4.999796116410078 L0.3417879232600214 4.992960178410026 L0.3699454752600033 5.027302626410044 L0.37596761025996983 5.041340712410072 L0.3758048502600033 5.052204970410042 L0.36229573525996983 5.089151584410029 L0.36083089226001874 5.1204829654100585 L0.36278401726001874 5.137776259410071 L0.35594807926002403 5.144490126410044 L0.3282788082599879 5.143757704410046 L0.3417879232600214 5.115803603410068 L0.32079182926002403 5.10795041241003 L0.2957267252600033 5.0950923404100585 L0.286693522260002 5.0870356994100625 L0.27489339226001874 5.076537652410064 L0.2734285482600214 5.072224501410044 L0.26610432926002403 5.05130978741003 L0.27505615225998525 5.036213759410071 L0.2952384442600007 5.018513564410039 L0.3181876622600086 5.004353407410047 L0.33446370426002403 4.999796116410078 Z M0.2101961262600227 3.618936741410078 L0.18456136025996983 3.635090712410072 L0.1813875322599685 3.641560439410039 L0.1857006832599879 3.64318804341006 L0.18618896525997997 3.647908095410042 L0.18228271525997997 3.654092991410078 L0.17316813126000596 3.660847548410043 L0.15892659526002006 3.667846246410061 L0.15575276726001874 3.6728918194100793 L0.16673909526002006 3.6750077044100458 L0.1798413082599879 3.6714676654100735 L0.19269938126000596 3.664387587410072 L0.2023836262600227 3.665811741410078 L0.2023022462599826 3.6780187724100806 L0.19042073525996983 3.7163895404100735 L0.1876538082599879 3.729776584410029 L0.18968831426001742 3.7381180564100696 L0.1874910482600214 3.7459305564100696 L0.18260823525996983 3.750447157410047 L0.1835847982600214 3.752278212410072 L0.1894441732600214 3.750447157410047 L0.18830485026000332 3.7564286034100682 L0.1681225582599879 3.78576616841006 L0.1564038082599879 3.7962642154100585 L0.1425691732600214 3.795613173410043 L0.13158284526002006 3.786905491410078 L0.11994547526000332 3.7700597874100303 L0.12010823525996983 3.747517470410042 L0.13036214226001874 3.723022027410064 L0.13312906926000068 3.671508355410065 L0.14517334025997997 3.654377821410076 L0.1579500322599685 3.641682509410071 L0.16763427725998525 3.633747939410039 L0.1717032872600086 3.625325087410072 L0.17609781926000068 3.6182043194100793 L0.19807047526000332 3.6071366104100484 L0.2052319332599879 3.6102290584100665 L0.2101961262600227 3.618936741410078 Z" fill="black" stroke="black" stroke-width="0.5" vector-effect="non-scaling-stroke"/></svg>