<svg xmlns="http://www.w3.org/2000/svg" viewBox="0 0 11.928211451039985 10.07260998558003"><path d="M11.057929171520037 1.312527121289996 L11.06009958152 1.3709214892899624 L11.064853813519981 1.3844607142899505 L11.074568982520042 1.392418885290006 L11.080666801519975 1.39035182729004 L11.087333061520006 1.3854942422900152 L11.098960258520059 1.3849774792899794 L11.105678194519975 1.389008240289975 L11.120147595520017 1.4023407592899915 L11.129035941520065 1.406474875290023 L11.129449353520066 1.4337600302900242 L11.111776013520021 1.5059003302900251 L11.123971651520058 1.5330821342900194 L11.137200818520078 1.5374229532899975 L11.148259574519976 1.532462016289962 L11.159318331519977 1.5249172572900065 L11.172805880520023 1.5216099652900041 L11.183812960520036 1.526674255290068 L11.187843722519993 1.5373196012899726 L11.190117485520055 1.549411886290052 L11.195388480519988 1.5589203492899415 L11.21750599352 1.5668785202899969 L11.226290987520052 1.5485850632900267 L11.229598279519983 1.5190261442900024 L11.235386039520016 1.4930845752899629 L11.25853708152001 1.5041433322899636 L11.312487276519981 1.5069338592900081 L11.332486055520029 1.5208864962900108 L11.346903780520016 1.546001241289936 L11.35134795352004 1.559333761289956 L11.352846570520022 1.574526632289981 L11.350056043520077 1.5852753302899956 L11.344888400520084 1.5933368542899942 L11.34163278451998 1.6027419642900398 L11.344319959520043 1.6175214242899685 L11.353776746520019 1.6316807662900104 L11.378839815520017 1.6469769902900637 L11.389795219519975 1.6586558642900329 L11.404264620520017 1.6858376672900235 L11.412842907520051 1.6979299522900035 L11.424831840519992 1.7084719442899754 L11.43702747852003 1.7148798222900083 L11.47402780351998 1.728315695290057 L11.480539034520028 1.7360671592899806 L11.496248670520025 1.7755479542899977 L11.502656547519983 1.8034532272899853 L11.49552519952001 1.8245372112900142 L11.465862927520071 1.870115825289993 L11.447052706520047 1.917348084290019 L11.441781709520022 1.9425661832899763 L11.441161593520029 1.9684043992900015 L11.454597465519974 1.9866978562899718 L11.536246228520007 2.0225613002900147 L11.557226859519993 2.0402346402900164 L11.57355661252003 2.057907980290018 L11.591643364520017 2.0726874392900285 L11.617584932520082 2.0816791392899816 L11.63618844852001 2.105863709289956 L11.656032198520016 2.119609640289987 L11.670346570520017 2.1358360402899947 L11.67267200952002 2.1673586642899565 L11.666367485520048 2.2232725632900454 L11.669984835520005 2.2472504282899664 L11.696236462520027 2.3089520882900203 L11.704711398520054 2.3206309622900037 L11.732616671520042 2.345228943289989 L11.740264783520011 2.3538072312900127 L11.759798474520004 2.3986623752900087 L11.77524972852003 2.4162323612899783 L11.802483208520037 2.4197463592900235 L11.802638236519975 2.4459979862899743 L11.809717908520007 2.4641880902900013 L11.810588260520056 2.4739940602900035 L11.810914979519985 2.4776750942900136 L11.811268201519987 2.4816547242899603 L11.794835095520021 2.505942648290052 L11.779332165520053 2.519895284290037 L11.740161430520082 2.5479039102899534 L11.727345674520016 2.5535883182900037 L11.71401315552 2.562269959290056 L11.665333956520065 2.616220154290012 L11.649055880520017 2.6564244182900367 L11.638048799520014 2.673787700290056 L11.617584932520082 2.686190044290022 L11.60239206252006 2.6889805712899815 L11.584201958520019 2.7068606162900366 L11.571076144520042 2.7127517302900443 L11.55572824352 2.7119249062900153 L11.522603650519976 2.705517029289986 L11.508806043520018 2.7078941452900196 L11.494905083520074 2.713371847290013 L11.469686984519988 2.7182294322900233 L11.45614775852001 2.722776957289973 L11.44395212052003 2.7332155972900054 L11.425193575520005 2.761327576290036 L11.410465792519993 2.7702159232899604 L11.39827015352008 2.7699058632899707 L11.387831515519984 2.7671153362900114 L11.378478080520004 2.770319276289989 L11.36964141152 2.7878892622899585 L11.368762911520001 2.802255310289972 L11.376669405519998 2.8077330122900506 L11.38917510252005 2.8077330122900506 L11.402921032520076 2.8057693082900172 L11.417390433520005 2.817964946290026 L11.424935193520035 2.849487569289998 L11.428025885519979 2.879713488290058 L11.431033012520082 2.909122173289994 L11.440748181520028 2.9391978562899723 L11.455165906520072 2.966896424289992 L11.473666068520082 2.99201117029002 L11.495938610520021 3.0140253302900035 L11.527977999520054 3.0694224662900425 L11.519296358519988 3.0992914442899675 L11.505550427520028 3.127300070290069 L11.435373832520064 3.23385687329003 L11.433875215520082 3.240368104290006 L11.437337537519987 3.2516335662899607 L11.435993950520036 3.257731385290022 L11.430412895520043 3.2623822642899896 L11.415116670520057 3.268893494289962 L11.410569145520036 3.274267843290012 L11.40891549952007 3.2883238322900255 L11.410879203520004 3.3012429412899493 L11.410672498520078 3.314058696290026 L11.402249239519982 3.3277012742900283 L11.37677275852004 3.30703070129001 L11.367367647520005 3.3211900442900557 L11.372018527520048 3.4063528042900018 L11.370881645520022 3.418651794290035 L11.364370414519975 3.43735866329002 L11.349694307520018 3.468467876289985 L11.353001599520006 3.4762193402899797 L11.369744763520053 3.482317159290041 L11.38638457551999 3.48242051228997 L11.40395456152006 3.4802501032899826 L11.420284314519982 3.483040630289942 L11.433823539520027 3.498233500289963 L11.439714653519978 3.5143565482900456 L11.451083467520014 3.6768272512899856 L11.44767282352003 3.7134141652900254 L11.43444365652001 3.751137960289988 L11.434547009520053 3.767157654290024 L11.445812472520025 3.7890684622899826 L11.449739880520063 3.803331156289964 L11.446380912520077 3.8189374392900035 L11.440644829520032 3.834853781290029 L11.431291394520052 3.8859100962899973 L11.391965629519994 3.9772740282900187 L11.388348279519981 4.010450297290028 L11.389795219519975 4.044143331289995 L11.397339978520016 4.0603697312900024 L11.425451957519975 4.0868280652899855 L11.43702747852003 4.100573995290027 L11.449533175520024 4.13323350129 L11.467206515520012 4.202893331290021 L11.486533500519975 4.232555603289988 L11.521673474520036 4.244647888289968 L11.595364067520016 4.222737081290013 L11.634431449520058 4.236172953290058 L11.651174613519991 4.235656189289934 L11.66264678252005 4.239893657289976 L11.66419707452004 4.260254171290008 L11.655205375520005 4.276377218289987 L11.65095282952003 4.278908495290004 L11.62481963352004 4.294463970290003 L11.617584932520082 4.311000427290004 L11.60239206252006 4.313687602290024 L11.597844535520004 4.321129008289951 L11.597017712519992 4.34572699028994 L11.588181042519999 4.357612569289962 L11.557846977520022 4.369601502290017 L11.546478161520064 4.379833436290006 L11.530820203519987 4.402881125289973 L11.51030465952001 4.423138285290058 L11.48746367652003 4.437297628290018 L11.465346163520017 4.442258565290054 L11.457387992519976 4.439674744289967 L11.449016410519981 4.4345071012899595 L11.439301241520035 4.429752869289963 L11.42679554452004 4.428822693290009 L11.400233858520004 4.433163514289994 L11.392172334520033 4.436574158290021 L11.380700167520011 4.449389913289998 L11.364060356520007 4.4837030652900225 L11.350056043520077 4.493211528290011 L11.339979138520071 4.496415466289982 L11.333881319520081 4.500032817290055 L11.32943714652 4.50365016729004 L11.324372855520004 4.506957459290042 L11.31837838952 4.512848572289947 L11.315071097520011 4.5196698622899945 L11.310316866520019 4.524630799290044 L11.30008493252003 4.525044210290055 L11.295847465519977 4.519979920289977 L11.28396188652001 4.4978624062899755 L11.276985567520022 4.490937765289992 L11.26742542752006 4.48835394428999 L11.259880668520076 4.489180766290012 L11.244067680520082 4.493314881290026 L11.236109509520041 4.4978624062899755 L11.227014457520077 4.50540716629002 L11.218332816520011 4.509437928290019 L11.21130482152008 4.502926697290043 L11.207067354520028 4.495071879290016 L11.201693005520006 4.489594178290027 L11.194768364519994 4.488043884290001 L11.186603487519982 4.491454529290031 L11.17244414552001 4.5037535202900685 L11.161902152520064 4.517292746289961 L11.131206352520017 4.577134054290006 L11.095136202520017 4.6298440152900255 L11.081700330520071 4.657025818290016 L11.078186332519998 4.67449245229006 L11.084077446520006 4.747872986289998 L11.090588676520007 4.758725037290041 L11.117563774520043 4.7753648492899785 L11.142110078519998 4.797585714290001 L11.150636690520024 4.821873637290004 L11.145985811520028 4.849675558289967 L11.11859730251998 4.910757101289967 L11.102991020520072 5.021448019290027 L11.104179578519982 5.0388113002900425 L11.108365369520037 5.0555544642900045 L11.116116833520003 5.072504334290009 L11.132136528520071 5.095500347290049 L11.135237113520041 5.10707586729 L11.129862765520066 5.121028504289988 L11.099787081520013 5.129606792290012 L11.074930717520054 5.160509298290016 L11.056688936520082 5.199473328290004 L11.042552866520019 5.256017609290019 L11.029197074519992 5.309440776289982 L11.011317028519976 5.347784689290002 L10.982894991520048 5.362667501290041 L10.964498181520035 5.36545802829 L10.956126599519983 5.376310079289958 L10.953956189520078 5.392019714290022 L10.95457630652006 5.410209819290053 L10.950132133520036 5.432844096290005 L10.937109672519988 5.441732443290029 L10.900264376520077 5.44710679128999 L10.886880180520016 5.45547837428996 L10.859905082520037 5.478009298289983 L10.84729603252 5.479973002290016 L10.82869251752006 5.473771830290026 L10.814326469520005 5.472428243289976 L10.804714652519998 5.4801797092899776 L10.800373833520062 5.5009536342900205 L10.812156058520053 5.532682963290036 L10.843782036520018 5.539710958289952 L10.880472302520012 5.540021017290023 L10.906930636519995 5.551493185290049 L10.94486113652001 5.603789734290054 L10.950442192519994 5.615778667290009 L10.941915580520082 5.626630717289963 L10.905173636519997 5.643683940289996 L10.89442493952 5.654846049290022 L10.900109346520047 5.681821147289959 L10.928944796520078 5.694430196289993 L10.965841769519976 5.701664897289952 L10.996485893520024 5.712723653289963 L11.011213676520036 5.725229350289958 L11.060978080520066 5.785070658290017 L11.064957166520024 5.800263530289946 L11.067127576520043 5.81514634229007 L11.073225395519977 5.830855977289964 L11.081493624520043 5.837573914289983 L11.099580375520041 5.836643738290029 L11.107641898520022 5.840674500290014 L11.113326306520058 5.849149435290023 L11.113739717520069 5.8544204312899595 L11.111879366520064 5.8601048392899955 L11.108365369520037 5.910541036290006 L11.11353301252003 5.9257339072899455 L11.136890760519996 5.955086121290002 L11.155235892519975 5.9508486542900485 L11.186500134520053 5.901239279290074 L11.20003935952004 5.886356466289946 L11.213991997520019 5.8791217652900585 L11.248666882520034 5.86919989028997 L11.25771025852 5.860518250290006 L11.267322075520006 5.835196798290035 L11.277347302520035 5.829615743290013 L11.291609998520038 5.841191264290053 L11.322719210520084 5.898448751290012 L11.339772433519975 5.918499207289976 L11.267115369519978 5.942683777290036 L11.179988903520005 5.9717259322900205 L11.054208468520038 6.013687195290025 L10.882022595520048 6.071048035290012 L10.713867485520062 6.1271686402900585 L10.562558890520016 6.177604838290058 L10.457449027520077 6.212641460289994 L10.364431449520076 6.243647319290012 L10.284126273519995 6.258013367290012 L10.245834037519977 6.269485535290023 L10.170334770519979 6.303385274290044 L10.069979138519976 6.3357347212899455 L9.938410942520044 6.378212748289975 L9.795473930519982 6.4242047732900645 L9.726744275520012 6.4594481002900395 L9.633726697520068 6.50719712329002 L9.547943819520036 6.5382029832900415 L9.44386748552008 6.562800964290027 L9.31508981551999 6.593186707289981 L9.21153024552003 6.61768133629004 L9.193650199520071 6.619024923290006 L9.05216012852005 6.650650899289992 L8.952838025519974 6.6728717662900365 L8.814035127520036 6.722274435290053 L8.728872368520022 6.752763530290032 L8.622625623520058 6.790590678290023 L8.529556368520069 6.835652528290062 L8.455504041520008 6.871619325290034 L8.367964164520025 6.88185125829002 L8.351531059519992 6.886088726289977 L8.351486583520021 6.8865927862900165 L8.35091094152002 6.893116720289974 L8.35804228952005 6.922985698289999 L8.35804228952005 6.9676341352900195 L8.362899874520075 7.010938986289993 L8.400210258519984 7.135892599290038 L8.425014946520058 7.18353826928999 L8.457571098519985 7.204105489289979 L8.471937146519984 7.2093764862900045 L8.484546195520032 7.222502300289982 L8.49498483552005 7.240278992290008 L8.502012829520048 7.258779155290021 L8.506250297520033 7.279346375290011 L8.508834118520006 7.3444586802900105 L8.511986381520067 7.3559308472900184 L8.52671416452008 7.375774598290015 L8.529918103520025 7.385386414290032 L8.52723092852002 7.3954116422899645 L8.508834118520006 7.430034852289971 L8.502322888520062 7.45204901229004 L8.504493299520014 7.46589829529001 L8.533018689519984 7.495250509289981 L8.53828968552002 7.503105327290008 L8.549761853520032 7.532560893290018 L8.547436414520085 7.535041362289995 L8.533328747520066 7.540622416290013 L8.493744601520028 7.556125346290024 L8.465115857520026 7.557055522290064 L8.43326189851998 7.543668621289989 L8.417160128520003 7.53690171329 L8.391942029519974 7.533491069290058 L8.383157035519979 7.536695008290032 L8.368067517520068 7.5493040582899695 L8.360212699520012 7.5543683482900335 L8.344296358520033 7.557778992289975 L8.33261748452005 7.553748230289976 L8.306985974520067 7.536798360290057 L8.267195121520068 7.528323426290065 L8.227094209520054 7.534007833290012 L8.187303356520054 7.544756531290027 L8.147719210520016 7.550854350289988 L8.104569388519984 7.546100119289996 L8.018838188519986 7.52346584129004 L7.97439645651999 7.519435080289959 L7.951348767520038 7.52429266428998 L7.910317680520016 7.542689474290064 L7.867116182520043 7.5493040582899695 L7.809858695520084 7.567907573290022 L7.785570772519996 7.571214865290024 L7.765055229520009 7.568217631290004 L7.7456248905200695 7.563049988289997 L7.724282524520071 7.560362814289981 L7.700511365519979 7.56677069129001 L7.663304333520067 7.597466492290046 L7.645527641520026 7.608215190289975 L7.559124646520068 7.615656597289991 L7.544035128519987 7.618860535289976 L7.323376762520006 7.717459168289956 L7.288030082520002 7.7534259652900275 L7.278935030520039 7.759110373289978 L7.258781221520074 7.763967957289999 L7.239247530520053 7.7755434782900394 L7.223227836520003 7.789186055290038 L7.213409314520042 7.800038106289996 L7.192118624520042 7.839002137289988 L7.179406222520008 7.850887716290011 L7.155118298520016 7.855228536289992 L7.109849744519998 7.856055359290018 L7.088352348520054 7.859879415290045 L7.083927285520041 7.861862230290065 L7.069438773520027 7.868354350289955 L7.035952446520035 7.900083679289985 L7.014248344520034 7.926645365289993 L7.0111477585200745 7.933570008289983 L6.997401827520058 7.954033875289944 L6.994301241520013 7.965092631290041 L6.996368298520075 7.974187684290008 L7.000915825520018 7.981215679290024 L7.005566703520053 7.986796733290028 L7.00804717252003 7.99186102429001 L7.0024661175200364 8.025864116290045 L6.9895470095200025 8.06741196728995 L6.984172661520056 8.107306173290077 L7.001225883519986 8.135831564290022 L6.977351371519994 8.189368347289978 L6.973837374520052 8.210969096290036 L6.977558077520051 8.228229025290027 L6.994094535520041 8.270086935290003 L6.994301241520013 8.292824565290083 L6.9701166715200245 8.331065125289975 L6.966189262520054 8.339230002290002 L6.959574678519964 8.375403504290027 L6.9459321005200465 8.390906433289949 L6.906347953520019 8.419845235290005 L6.8981830775200805 8.436898459290028 L6.878442680520031 8.455295268290023 L6.869916068520006 8.46273667429005 L6.855860079519992 8.464907085290044 L6.827799776519974 8.464907085290044 L6.780360812519994 8.473382020290039 L6.4171788465200095 8.611151388289976 L6.349586071520029 8.653216004290009 L6.250987439520053 8.732177593289968 L6.160058229520011 8.770020078289967 L6.005627738520069 8.83429022229 L5.953951306520047 8.864262553289954 L5.914367159520076 8.905810405290033 L5.778251437519991 9.103111023289948 L5.761921684519955 9.137940939290011 L5.741561169520018 9.21741929229001 L5.714379366520028 9.267752137289982 L5.661359347520026 9.319738628290004 L5.559143363520057 9.409448914289989 L5.2941466185199815 9.67392889529004 L5.284018038520024 9.688501649289996 L5.2823643925200585 9.698733582290068 L5.283604626520081 9.723538270290014 L5.286085095520058 9.747102722290016 L5.252495414520034 9.786790222290001 L5.21523670652001 9.82162013828998 L5.185522758520044 9.848905295289988 L5.158340955520053 9.863167989290055 L5.143354789520082 9.867302104289983 L5.09622588352007 9.86936916228995 L5.085735567520025 9.873503276289973 L5.049096977519973 9.896654317289965 L5.025325818520024 9.889212911290038 L4.931068005520011 9.93086411628996 L4.906780082520008 9.933654643290005 L4.890657036520018 9.937582052290075 L4.877634575520084 9.94512681129003 L4.849005831520024 9.970448263290002 L4.837068575520071 9.97385890729003 L4.82275420352007 9.971378439290056 L4.7659101285200265 9.953808452289984 L4.749787081520047 9.945850281290028 L4.735937797519988 9.934584819289974 L4.720434867520076 9.917841655290012 L4.707309053520014 9.907506368290008 L4.690669243520084 9.901098491290064 L4.6642109095200155 9.896654317289965 L4.622559704519993 9.883941916290006 L4.54566517352 9.843634298290048 L4.499776501520039 9.835262716290067 L4.46256947152002 9.840637065290032 L4.455334770520061 9.838983419289995 L4.449030245520042 9.832988953290048 L4.440865369520019 9.827407899290044 L4.431356905520026 9.823170431289988 L4.385364880520051 9.818002788289995 L4.3762698285200585 9.814798849290021 L4.370998832520023 9.808597677290031 L4.365314425520005 9.79929591929001 L4.35818307752006 9.790924338290033 L4.348984672520054 9.787410340289973 L4.340096326520033 9.791854513289984 L4.304542940519973 9.818209493290034 L4.295654594520066 9.82296372529003 L4.272503552520071 9.827201193289987 L4.255657035520009 9.836192892290022 L4.238293754520065 9.840430360289979 L4.2322992885200605 9.842704122289994 L4.2312657595200776 9.84652817929004 L4.233229463520011 9.859240580289999 L4.2322992885200605 9.863167989290055 L4.218243298520029 9.866992046290001 L4.199536429520059 9.86750881029004 L4.183620088520023 9.870919454290053 L4.17762562251999 9.883115092289977 L4.170804334520049 9.876190450290004 L4.115613904520039 9.90357896029004 L4.104038383520013 9.90512925228996 L4.061560356520054 9.90357896029004 L4.000685518520008 9.876190450290004 L3.990556938520051 9.864614930290053 L3.9832188845200776 9.848285177290016 L3.9845624715200287 9.834022481290042 L4.000685518520008 9.828441427290024 L3.9867328825200374 9.811284851290061 L3.9414643275200305 9.792784689290038 L3.931749157519981 9.777281759290027 L3.9230675175200176 9.766843120289984 L3.903017061519982 9.754440776290018 L3.8808995485200555 9.74400213728999 L3.8434858115200186 9.734493673289997 L3.83129017352001 9.724055034289968 L3.818474418520019 9.716096863289998 L3.7940831425200017 9.718577332289975 L3.741063122519982 9.740798198290015 L3.6738837605200203 9.753303894290006 L3.66799264852002 9.755577657290026 L3.659207653520035 9.764776063290022 L3.653523247520006 9.766946473290012 L3.6472187215200833 9.765809591290001 L3.6378136115200377 9.760641947290004 L3.632645967520027 9.759505066289996 L3.557353405519983 9.759505066289996 L3.5466047075200535 9.757644715289992 L3.5135317915200446 9.745862488289994 L3.4823192265199836 9.74720607528996 L3.472604057520037 9.745862488289994 L3.452967013520002 9.736767436290016 L3.4224779175200055 9.713926453290007 L3.4037710495200244 9.705554871290026 L3.3968464075200515 9.698733582290068 L3.390541882520033 9.686124533289963 L3.3794831265200216 9.674962423290019 L3.365943901520062 9.667107606289996 L3.3521979695200272 9.663903666290018 L3.335248100520026 9.663076844289996 L3.32780669352001 9.659976258290051 L3.314887585519976 9.643439799290057 L3.3095132375200293 9.639719096290044 L3.298247774520057 9.634034688290008 L3.29390695451999 9.62979722129004 L3.292356661520067 9.62400946128998 L3.2934935425199896 9.611297059290017 L3.2903929575200195 9.60561265128998 L3.2756134975200197 9.590729839290027 L3.26848214951999 9.591143250290038 L3.2596971555199943 9.602512065290036 L3.257113334520078 9.595690776289992 L3.2521523965200387 9.588869487290033 L3.2450210495200835 9.583495138290068 L3.235822644519992 9.581428081290007 L3.233962292520083 9.576777202290039 L3.2255907105200308 9.547321636290043 L3.222283418520014 9.545564637290063 L3.204093314519973 9.529958354290024 L3.201302787520028 9.526134298290081 L3.1896239135200446 9.526030945289968 L3.18238921351999 9.524584005289974 L3.1771182175200394 9.520759949290017 L3.170917045519978 9.513111837289948 L3.170917045519978 9.506187195289975 L3.177634981520008 9.489133972290027 L3.174017631520023 9.485826681290028 L3.1637856975200336 9.48737697429005 L3.1450788285200346 9.49316473529003 L3.1355703665200494 9.492647970289987 L3.119654024520024 9.481175802289975 L3.1081818565200123 9.465362814289982 L3.107053016519977 9.464589514290033 L3.09505604251995 9.456371114290029 L3.0746955285200315 9.465362814289982 L3.061983125520065 9.447586121290037 L3.0353180865200144 9.435700542290014 L2.9665884315200444 9.422368022289994 L2.934445691520004 9.42371160928996 L2.9239036995200465 9.421541199290054 L2.917082409520013 9.416890320290001 L2.912121472520049 9.412239441289948 L2.906850476520013 9.410069031290043 L2.82148101052001 9.397046570290009 L2.7765225145200176 9.397046570290009 L2.766807345519986 9.400147156289954 L2.7598827035199847 9.406968445290012 L2.75450835452002 9.413789734290056 L2.7435529505200336 9.419784201289993 L2.728360079520023 9.43301336728998 L2.7178180875199516 9.43745754028999 L2.7083096235200728 9.438077658289963 L2.6995246305199814 9.436837423290022 L2.683608289520059 9.431153015289986 L2.6749266485199925 9.42495184429 L2.6687254765200166 9.418027201290009 L2.660663953520036 9.412446147289991 L2.6352391485200073 9.40810532729001 L2.6163255745199976 9.399113628289975 L2.586353243520044 9.393739278290006 L2.544081921520039 9.379166525290053 L2.5259951705200407 9.37596258528999 L2.5083218305200248 9.378339701290024 L2.4664639205200487 9.38970851729001 L2.458402397520068 9.393325867289995 L2.4473436405200673 9.387228048289948 L2.394426973520005 9.385471049290054 L2.3758234575200206 9.382783875290038 L2.3575300005200504 9.384127462290003 L2.3279710825200297 9.389915223289982 L2.2851829955200103 9.398390157289974 L2.242394910519998 9.406865092289983 L2.19960682351995 9.415340027289979 L2.156715385520009 9.42371160928996 L2.114030651520004 9.432186544290055 L2.0712425665199916 9.44066147929005 L2.028454480520047 9.44903306129003 L1.9855630415200025 9.45750799629004 L1.9426716025200435 9.465982931290036 L1.8998835175200313 9.474354513290017 L1.8570954305199834 9.482829448290012 L1.8143073455200565 9.491304383290021 L1.7716226115200513 9.499675965290002 L1.728834526520039 9.508150900289998 L1.6858397345199805 9.516625835290007 L1.6430516485200357 9.525100769289999 L1.613286023520054 9.530991883290007 L1.5944758015200406 9.531405294290018 L1.5594391805200232 9.538123230289948 L1.5187181525200444 9.545771342290017 L1.5130337445200084 9.532852235290015 L1.5122069215199971 9.52003647929002 L1.519338269520027 9.50567043129002 L1.4964972865200181 9.48748032728998 L1.4776870655199943 9.465362814289982 L1.4572231985200332 9.450996766289968 L1.4424437375200156 9.44417547729001 L1.4278709845200623 9.440041362289996 L1.3954181845200466 9.43745754028999 L1.3783649615200133 9.43973130329001 L1.3613117395199978 9.443968771289967 L1.3440518115200106 9.445829122289972 L1.3267918825200056 9.441178243290004 L1.314596244519997 9.428672547289999 L1.3139761275200144 9.414409851290024 L1.316146538520023 9.398803569289989 L1.3132526575200174 9.382783875290038 L1.302814018520074 9.372035177290009 L1.2585789925199649 9.355498718290015 L1.2347044805200866 9.336791850289949 L1.2101064985200125 9.309713399289983 L1.1911929245199744 9.27994777528999 L1.183441459520047 9.253076029289993 L1.1774469935200145 9.241707215289999 L1.1356924365200811 9.19840236429004 L1.121223035520039 9.190444194289974 L1.0735773645200126 9.17793849728998 L1.0132192915200093 9.152720398290022 L0.9862441935200579 9.135667176289992 L0.9464533415200478 9.101043966289986 L0.9153441285200117 9.085024272290035 L0.9022183145200344 9.074275574290006 L0.8929165575200315 9.059496115289996 L0.8818578005200024 9.012883972290034 L0.867801811519989 8.986218933289983 L0.8475446495199819 8.96007065928999 L0.8026895065200037 8.91325181128996 L0.7887368695200152 8.903329936290056 L0.7291022675199983 8.880075541289948 L0.7163898645199751 8.879972189290022 L0.7104987505200526 8.875631368290037 L0.7062612835200852 8.867053080290013 L0.7063646365200427 8.849586447290058 L0.7042975795199808 8.841524923289974 L0.6915851775200039 8.828812521290011 L0.6599592005200279 8.819304057290033 L0.6455931525200285 8.810829123290027 L0.6368081585200329 8.798116720289975 L0.6261628135200326 8.77000474129003 L0.5537124555200634 8.659107117290013 L0.5459609905200509 8.65042547728995 L0.5366592325200301 8.645051127289996 L0.5206395395200545 8.642157247290008 L0.5150584845199475 8.639470073290063 L0.5096841355199828 8.633475607290045 L0.5028628465200242 8.621486675289994 L0.4871532105200558 8.600919455290004 L0.48053862752006893 8.587793641290027 L0.47072010551999455 8.578285177289949 L0.4440550655200681 8.573841004290038 L0.44012765752008676 8.571567241290019 L0.432686251519975 8.56381577629002 L0.4278286665200355 8.561025249289962 L0.42441802152003305 8.562885600289967 L0.4208006715200483 8.565986186290012 L0.4111888555200309 8.56825995029002 L0.39609933752003457 8.573841004290038 L0.388347872520022 8.574667827290064 L0.37480864752003384 8.570120301290025 L0.28871571151994857 8.50232082229001 L0.2822044805199866 8.488678244290007 L0.2795173055199527 8.471728374290002 L0.275176485519971 8.457258973289974 L0.2643244345200273 8.45105780028998 L0.24520415552003527 8.448577332290007 L0.24107004052000747 8.441342631289949 L0.24365386152000923 8.43059393329002 L0.2443773325199956 8.416951355290017 L0.23879627752008759 8.402585307290003 L0.22163970152003998 8.374783387290044 L0.21698882251995855 8.362381043289993 L0.2178156455199982 8.345637879290031 L0.22308664152003388 8.326931010289961 L0.23135487051998638 8.309361023289988 L0.24065662952008182 8.296545268289996 L0.24262033252002624 8.284039572290006 L0.22618722851998285 8.276598166290064 L0.19290760552001274 8.269260112289992 L0.1912539595200755 8.263265646290044 L0.19073719452003246 8.241148132290043 L0.1890835495199994 8.231432963290011 L0.1856729045200538 8.226988791290005 L0.17368397251998857 8.216860209289955 L0.16923979951999257 8.210969096290036 L0.16479562652008184 8.19629298929005 L0.16303862752001663 8.183580588290006 L0.15942127652001403 8.170971538289983 L0.14877593252003152 8.156915548290051 L0.156940808520055 8.157742371289991 L0.1822622605200408 8.156915548290051 L0.14743234452006249 8.102758647290038 L0.12087065852005452 8.070512554289984 L0.1185968965200388 8.048911805290011 L0.1185968965200388 8.032788757290028 L0.1185968965200388 7.972120626290042 L0.1185968965200388 7.908661968290012 L0.1176667205200701 7.90587144028995 L0.117873425520024 7.8607062382899855 L0.11797677851998145 7.758593608290035 L0.11828683652003491 7.656584331290013 L0.11849354252000666 7.554575053290002 L0.1185968965200388 7.452462423290051 L0.1185968965200388 7.4084341032899985 L0.1185968965200388 7.378151714289963 L0.1185968965200388 7.356964376290001 L0.1185968965200388 7.317173523290002 L0.11849354252000666 7.166485047290045 L0.11839018951999236 7.015796570290014 L0.11828683652003491 6.865108094290058 L0.11818348452001004 6.714419617290027 L0.11808013152008101 6.563731140289981 L0.11797677851998145 6.413042664290039 L0.117873425520024 6.2622508342900645 L0.1177700725200097 6.111562358290023 L0.1176667205200701 5.960977234290006 L0.1175633675200558 5.810185405290035 L0.11746001452001309 5.659600281290018 L0.11741878651999826 5.599449090290001 L0.11735666052000937 5.508808451290044 L0.11725330852006977 5.358119975290002 L0.11714995552002705 5.2073281452900275 L0.11704660252001275 5.05679469929003 L0.11694324951999846 4.906106222289999 L0.24127674552004663 4.906106222289999 L0.36561024152003796 4.906106222289999 L0.489840384520015 4.906106222289999 L0.614070528519953 4.906106222289999 L0.7383006715200153 4.906106222289999 L0.8625308145200492 4.906106222289999 L0.98686431152003 4.906106222289999 L1.111094454520007 4.906106222289999 L1.2354279505199983 4.906106222289999 L1.3597614465200465 4.906106222289999 L1.4839915895200235 4.906106222289999 L1.6083250855200149 4.906106222289999 L1.7326585815199778 4.906106222289999 L1.8568887255200295 4.906106222289999 L1.9812222215200208 4.906106222289999 L2.1053490115200404 4.906106222289999 L2.137698458520042 4.906106222289999 L2.125916231520044 4.869726014290002 L2.108863008520011 4.837996685289987 L2.0866421435200593 4.8092645882899845 L2.032175183520046 4.754384217289974 L2.0118146695200423 4.726375590290054 L2.00271961752005 4.694336202290053 L2.0093342005199517 4.65475205629 L2.028764539520033 4.609690206290047 L2.0477814655200106 4.535896261289999 L2.065764864519984 4.466236430289975 L2.0778571495199785 4.437400981289947 L2.1231257045199854 4.372288676290047 L2.1569220915199523 4.323816183289985 L2.165086967520061 4.3067629602899515 L2.1678774945200345 4.289709738290007 L2.158058972520074 4.244647888289968 L2.153924857520046 4.183566346289972 L2.143692924520046 4.158348247290014 L2.118371472519975 4.132303325289946 L2.0966673715199917 4.1012974662900135 L2.0913963755200413 4.056545675289961 L2.098114310519996 3.9162958382899618 L2.1041087775200182 3.787518168289971 L2.1256061735200475 3.738838969290036 L2.1272598185199953 3.7287103892899935 L2.1226089395200276 3.7041124072900047 L2.118371472519975 3.629388286290002 L2.109793184519951 3.605203715290024 L2.0993545455200078 3.5861867882899716 L2.091706433520038 3.566859802290004 L2.091706433520038 3.541538351290022 L2.0969774295200736 3.5217979542899727 L2.11475412251999 3.48190374829003 L2.142452690520024 3.439839132289997 L2.1467935105200056 3.428056905289999 L2.14689686352002 3.411830506289995 L2.1443130415200287 3.387749288289946 L2.1446231005200147 3.375140239290012 L2.1470002165200626 3.364081482290011 L2.1578522675200063 3.3491986702899723 L2.1891681855200247 3.325117452290023 L2.198780001520042 3.311578227290049 L2.1981598835199563 3.299589295289998 L2.1540282115199645 3.2030577202899693 L2.1482404505200847 3.1775295612900223 L2.1523745645200094 3.0351093142900325 L2.132840873520017 3.0320087292899913 L2.1271564655200663 3.0181594442900277 L2.13160063952008 2.9796088262899545 L2.1307738165200405 2.924211690290001 L2.1343911665200253 2.906331645290031 L2.140799044520058 2.8871080132900104 L2.1370783405199845 2.8724319052900213 L2.117648002519978 2.8429763392900256 L2.111343477520073 2.8260264692900208 L2.104522188520029 2.7769338582899863 L2.138525281520053 2.778070740289998 L2.185447482519997 2.7869590872900076 L2.228545625520006 2.802462016290015 L2.25128325651999 2.82385605929003 L2.2513866095200328 2.8325376992899933 L2.245805554520011 2.8504177452899526 L2.245082084520014 2.8596161502900443 L2.247562553519991 2.8705715542900165 L2.2545905485200066 2.890725363289995 L2.2564508995200114 2.9021975302900174 L2.254797253520046 2.935477153289959 L2.2613084835200183 2.9478794972900246 L2.281462292520011 2.944985617290037 L2.301616101520061 2.938577739290004 L2.318359265520023 2.9390945032900433 L2.3553595905200595 2.9498432012899727 L2.3750999885200414 2.9526337282900172 L2.412203666520007 2.9525303762899924 L2.4309105345200166 2.9549074922900402 L2.453441459520029 2.964726014290001 L2.4823802615200847 2.982916118290042 L2.507598360520028 3.004826925289997 L2.518863822520011 3.025187439290029 L2.5153498255200404 3.036762960289984 L2.5069782435200736 3.0455479542899653 L2.499536837520047 3.055159770290068 L2.4988133665200607 3.069319113290028 L2.5044977745200114 3.0808946332899794 L2.521447644520002 3.095880799290036 L2.528372286519975 3.1044590872899747 L2.5336432825200106 3.1220290732900438 L2.534883516520061 3.1429063522900194 L2.5331265185199854 3.164300395289935 L2.529302462520029 3.183730734290016 L2.5215509975200163 3.1998537812899954 L2.4895116095200294 3.249669861290023 L2.4770059125200348 3.262692322289972 L2.435354708520002 3.275198018289963 L2.4225389525200214 3.285843364289967 L2.431013887520031 3.3038267622900364 L2.4471369355199997 3.3112681682899634 L2.4887881395200324 3.311681580289978 L2.507288301520042 3.3147821662900228 L2.5296125205200255 3.3280113322900107 L2.563512260520035 3.35870713429005 L2.5835627165199853 3.368215597290039 L2.6067137575199624 3.370179301289973 L2.6280044485199525 3.366148540289977 L2.66975900452001 3.3507489632899947 L2.679577526520056 3.3500254932899978 L2.6912564005200394 3.350955668290048 L2.701798393520015 3.349302023290001 L2.7083096235200728 3.3410337932899594 L2.7115135625200466 3.3297683322899942 L2.7156476765200566 3.3202598682900017 L2.721642142520004 3.3119916392900492 L2.730323783520042 3.304240174290051 L2.7393154835200093 3.300312765289995 L2.7617430555200073 3.29545518028997 L2.772285046520061 3.29049424329002 L2.7821035685200215 3.280675721290045 L2.8003970265200095 3.256284445290028 L2.8111457235200064 3.2462592162900066 L2.8495929895200547 3.2306529352899602 L2.9250405805200543 3.230446228289999 L2.9637979045199856 3.2221779992899613 L3.0381086145199774 3.1859011432900033 L3.0799665245200387 3.173188742290044 L3.1183104375200728 3.176496033290043 L3.2613508025200346 3.163783631289995 L3.321088757520066 3.1512779342900004 L3.4158633345200187 3.1045624392899995 L3.4473859585199804 3.0993947962899924 L3.459581596519989 3.1100401412899927 L3.461648653520051 3.1324677132899907 L3.4604084195200286 3.158099223290044 L3.462475476519977 3.1785630902900053 L3.4619587115200474 3.1882782592899517 L3.4542072475200243 3.195099549289999 L3.4333299685199776 3.2030577202899693 L3.4217544475200086 3.2119460662899755 L3.427232149520016 3.22052435329001 L3.438394259520031 3.2291026412899484 L3.4435619025200523 3.237680929289972 L3.435086967520043 3.256077739289971 L3.4234080935200595 3.2652761442900626 L3.4150365115200074 3.276438253290003 L3.4160700405199904 3.3009328822900486 L3.423718151520056 3.3211900442900557 L3.4463524295199974 3.3600507212900155 L3.453793835520024 3.3776207072899993 L3.4524502485200443 3.3871291712899776 L3.438807670520042 3.4030455122899994 L3.434776909520046 3.4125539752899883 L3.43457020252 3.4218557342900127 L3.4374640835200054 3.439632426289954 L3.4644391805200243 3.5212811902900185 L3.4738442915200594 3.538127707290009 L3.482009168519987 3.5468093472899724 L3.4890371635200026 3.5507367562900285 L3.4975120975199943 3.5518736372900364 L3.5102244995200564 3.5517702852900115 L3.523453666520048 3.5544574592900418 L3.5298615445199957 3.5610720432900322 L3.5346157755199883 3.5695469782899423 L3.543400769519984 3.5777118532900474 L3.6006582565200276 3.6046869512899846 L3.618228243520001 3.6198798222900095 L3.6198818895200517 3.6250474662900203 L3.6203469775200787 3.6304218142899813 L3.6198818895200517 3.6357961642899497 L3.6112002485199852 3.660807556290031 L3.617504773520004 3.674450135290037 L3.632645967520027 3.6811680712899673 L3.6522830125200514 3.6804446012899703 L3.6615847695200827 3.6755870172899634 L3.6676825885200444 3.6688690802900297 L3.67471058352006 3.6629779672900256 L3.6873196335199836 3.6612209682899604 L3.6980683315200835 3.6579136762900433 L3.7019957405200543 3.6486119182900225 L3.704889620520042 3.6383799852900367 L3.7127444385199837 3.6319721072900037 L3.758529757520016 3.6335224012900156 L3.7928429085200364 3.6551231492899987 L3.8244688845200514 3.683338481289958 L3.8627094445200427 3.705145935289984 L3.881106254520027 3.7084532272899864 L3.938673800520057 3.7088666382899973 L3.949732556519983 3.707626404289961 L3.9695763065199614 3.698427999290054 L3.9769143605200483 3.696567648290049 L3.9877664105200026 3.698427999290054 L3.9928307015200843 3.7018386442899853 L3.996654756520023 3.706592875289978 L4.051225069520051 3.750207784289934 L4.072619112520066 3.758269308290018 L4.086881807520051 3.7686045952900216 L4.100627738519982 3.7997138062899793 L4.118197725520041 3.8076719772900347 L4.131116834519979 3.8094289762900146 L4.303716117520047 3.807051860289981 L4.326143689520045 3.8155267952899763 L4.346400850519949 3.8282391972900243 L4.366658012519956 3.8377476612900168 L4.402624809520027 3.8354738982899974 L4.423295382520045 3.845189067290029 L4.435077608520054 3.8458091842899975 L4.446239718519983 3.8411583052900298 L4.465876762520018 3.827929139290042 L4.476212048520033 3.8235883182899713 L4.5134190805200305 3.8174904992900096 L4.551659639520032 3.8164569702900266 L4.575430798519982 3.8236916712899998 L4.592484021520015 3.8366107792900053 L4.607780245519983 3.8515969442900726 L4.6261770555199675 3.8654462282899473 L4.661937146519982 3.876918396289959 L4.742965792520003 3.8823960982900374 L4.7805862345200225 3.89014756329005 L4.799809867520047 3.9012063202900507 L4.816863090519995 3.9142287802899958 L4.834123019520057 3.9220835982900226 L4.854483533520003 3.9176394252900124 L4.869624728520016 3.902963318290027 L4.881251925519983 3.8858067432900683 L4.896444795520004 3.873301046289974 L4.922076306519976 3.872990987289988 L4.968791801519977 3.877951925290027 L5.01126982952001 3.8689602262899925 L5.049820447520084 3.8471527722899665 L5.084753715520058 3.8137697962899963 L5.104390759520008 3.7750124722899656 L5.108421521519993 3.6931570032900183 L5.118136690520025 3.653676209290005 L5.133432914519993 3.6316620492900213 L5.148212374520021 3.617812765289962 L5.158547661520025 3.6025165412899938 L5.160304659519987 3.5757481492900283 L5.147902315520035 3.533476828289942 L5.147333875519983 3.514459900289971 L5.16082142452003 3.50019720529 L5.1695030645199935 3.498956971290049 L5.1915172245200765 3.502160910290023 L5.201439099519966 3.5017474982900225 L5.23926624852006 3.4895518602899998 L5.282054333519987 3.4859345092900256 L5.310683077520046 3.4751858112899967 L5.317194307520019 3.4742556362899606 L5.334247530520052 3.4983368542899953 L5.344686169520081 3.5440188192900095 L5.349026990519967 3.5929047252899906 L5.3470632855200435 3.626597758289954 L5.371247855520004 3.713724223290008 L5.5577997765199925 3.826585552289977 L5.604618624520008 3.9062706102900293 L5.608856091519975 3.9462681692900006 L5.657535291520013 4.084244242289991 L5.673141573520034 4.104708110290041 L5.726901902520005 4.147585021289949 L5.73236276552003 4.1519403692899814 L5.775254203519999 4.198242452290053 L5.8032628295200865 4.207337505289935 L5.847807914520011 4.210954855290019 L5.893799938519997 4.208887798290043 L5.925374239519975 4.201136332290041 L5.9443394895200115 4.186046814289959 L5.955346570520014 4.172404237290031 L5.9684723845200764 4.1645494192900046 L5.993742159520046 4.167029887289978 L6.014102673519993 4.174574646289933 L6.070946748520036 4.207957622290003 L6.085519502519979 4.226044373290016 L6.089291882520023 4.25115911929003 L6.095751436520054 4.27244981029002 L6.1180756555200375 4.279167745289961 L6.136059053520022 4.276067160290005 L6.151096895519991 4.27513698429005 L6.224735811520013 4.282164979289966 L6.233934217520009 4.287642680290041 L6.237499890520063 4.296117615289965 L6.239515271520013 4.305832784289997 L6.244062797520051 4.314824484290035 L6.268350720520054 4.333841410289999 L6.28302682752004 4.327743591289952 L6.2978062875199825 4.313377543289953 L6.322817680519954 4.307073019290023 L6.342041312520074 4.315444601290004 L6.357130831519974 4.330017355289975 L6.374597465520019 4.34169622829004 L6.400952445519998 4.341592876290015 L6.4208995495200085 4.338698995290024 L6.4407432985199975 4.340042583289993 L6.459553520520011 4.34572699028994 L6.476813448519998 4.355132101289989 L6.559805798520038 4.425928813290021 L6.573500053520057 4.447426209289965 L6.592982068520051 4.496725525290053 L6.605332735520015 4.51925645028998 L6.639077446519984 4.554189718289983 L6.64936105652 4.572999940290082 L6.648689261520012 4.599044861290061 L6.637217094520075 4.615581320290055 L6.62104237052008 4.62684678129002 L6.611068819519993 4.641109477289994 L6.617993461520051 4.666740987290048 L6.638664034520069 4.693095968290017 L6.660678194519953 4.714800069290014 L6.676491183520049 4.738467876290038 L6.679901827519977 4.790247661290017 L6.690443819520048 4.799549419290038 L6.705533338520034 4.8001695362900065 L6.7210362675200415 4.793348246289959 L6.730751437520006 4.781359315289997 L6.745220838520019 4.752523865289966 L6.7582432985199645 4.74404893128996 L6.804958793520051 4.75397080528996 L6.845059704520047 4.794381775290027 L6.912755830520034 4.881198181290024 L6.930429171520039 4.896184347289996 L6.937663871520009 4.907036398289954 L6.946500541520031 4.943003195290011 L6.950686332520057 4.947447367290017 L6.964122204520002 4.952201599290014 L6.967946260520044 4.9564390672899705 L6.967326144519994 4.961503357290034 L6.962571912520069 4.972458761290021 L6.96236520652004 4.97700628728996 L6.963088676520037 4.98145046028997 L6.961693413520031 4.991889099289999 L6.96288197051998 4.997470154290021 L6.966809379520036 5.001810974290002 L6.972493787519987 5.003567973289982 L6.977971489519966 5.0047048552899795 L6.981278780519965 5.006978618289999 L6.9907355675200264 5.04170518029003 L7.000295707520046 5.047286235289953 L7.01977772252004 5.0482164112900065 L7.0289244515200195 5.05193711429002 L7.040499971520056 5.066923279289988 L7.0711957725200065 5.214252788290018 L7.08742217252 5.255593933289951 L7.117911267520007 5.284842795289997 L7.1310370815200415 5.300552430290061 L7.147366833520003 5.304066427290017 L7.165556937520044 5.3001390182900465 L7.183747042520075 5.29352443528996 L7.202451833520051 5.2933035132899775 L7.209998669520012 5.293214377289978 L7.2351134165200435 5.289286967290003 L7.2591946335200745 5.288976909290021 L7.28151885152004 5.299105489289978 L7.290458874519992 5.311611186290058 L7.297228487520009 5.326700704289969 L7.306013481520004 5.338482931290066 L7.321206351520026 5.341480164289983 L7.331851697520015 5.335589051289993 L7.35107533052004 5.312954773290038 L7.364511202519985 5.305410015289986 L7.38724883251998 5.2962116092899905 L7.445333142520063 5.258281108289985 L7.586616508520045 5.2049510302899975 L7.607080375519978 5.192445333289989 L7.665061332520075 5.1387018432899865 L7.688109021520027 5.128779969290001 L7.7114667685200615 5.130020203290023 L7.729863578520074 5.1402521372900125 L7.746916801520079 5.154101420289983 L7.766140434520047 5.1660903532900235 L7.778129366519998 5.167433940290003 L7.7868110065200185 5.164540060290015 L7.79456247252002 5.164746766289973 L7.803657523519995 5.17580552228997 L7.806241345520014 5.185830749289998 L7.804587699519992 5.196579447290013 L7.8006602915200105 5.206501323290006 L7.795957735520027 5.21414943528999 L7.788568005520027 5.219213725290054 L7.770687960520057 5.223554546289954 L7.76365996552007 5.230995952289966 L7.762109672520033 5.239470887290061 L7.76407337752007 5.259521343290011 L7.762213025520076 5.268823100290042 L7.756011853519986 5.271923686289988 L7.746503389520079 5.273680685290053 L7.738751925519999 5.2790550342900175 L7.738751925519999 5.293007670290017 L7.742575981520041 5.3045831912899715 L7.747743624520034 5.315641948289972 L7.754461560520063 5.325873882289947 L7.763143201520016 5.334452169289982 L7.7785427785199985 5.343133810290034 L7.800143526520081 5.351505392290015 L7.839934379520081 5.36225409029003 L7.904219861520026 5.362977559290023 L7.919309379520051 5.360290385289993 L7.9347089565200335 5.3288711142900596 L7.934812309520019 5.218386902290042 L7.935019014520002 5.0689903362900495 L7.935277397520075 4.927396912289986 L7.935535779520045 4.777638611289994 L7.9357424855200165 4.6029722702900315 L7.936052543519985 4.453317322289969 L7.936207573520015 4.286919211289963 L7.936465954519996 4.170440532290009 L7.9366726615200704 4.064090434290016 L7.936648000520073 4.063662973289986 L7.936462469520073 4.060447114290007 L7.936362601520067 4.0587160852899515 L7.893161105520015 4.062230082290007 L7.871973767520068 4.06946478328998 L7.838332410520046 4.09364935329004 L7.785984184519997 4.117420512290003 L7.768930961519992 4.120624451289977 L7.758182263520062 4.114836691290002 L7.740250541519991 4.097473409289982 L7.727383109519984 4.092719177289986 L7.7137922085199975 4.092719177289986 L7.704645479519989 4.096336527289971 L7.690124402520063 4.109772401290023 L7.670539034520026 4.121347921289974 L7.626614067520016 4.1361273802899845 L7.611317843520077 4.147289490290014 L7.605013318520058 4.159898539290033 L7.592972709520062 4.198965923289968 L7.58889027152005 4.222427023290031 L7.585221245519982 4.231418721289977 L7.5836192755200145 4.239686951290018 L7.587443331520056 4.24754176928996 L7.617519014520063 4.285162211289979 L7.633125297520074 4.2909499722900435 L7.6485248745200565 4.2919835012900265 L7.660513806520008 4.297151144289948 L7.66526803851999 4.315134542290018 L7.661754041520076 4.333841410289999 L7.6517288125200125 4.348517518289988 L7.636742647519974 4.357715922289991 L7.617519014520063 4.359576274289999 L7.610077608520008 4.357095806290026 L7.60584014052008 4.353065043290023 L7.602326143519996 4.348827576289985 L7.596951794519974 4.345933695289993 L7.590388888519975 4.345416932290043 L7.576281222520059 4.346657166289994 L7.569666638520026 4.345933695289993 L7.543001599520004 4.336321879289976 L7.501453748519985 4.313894308289981 L7.493598930519987 4.31224066229003 L7.4534980185200865 4.31131048628999 L7.441922497520032 4.309450135289985 L7.432569063519985 4.305626079290029 L7.420115043519978 4.295084086289982 L7.402131644520033 4.275550395290061 L7.392054740520074 4.27079616328998 L7.310457653520011 4.2722431032899735 L7.28601470252007 4.27834092229002 L7.265189099520022 4.287435975290002 L7.248135877520063 4.298081320289988 L7.237283826520034 4.278650981290006 L7.221470838520041 4.281028097290054 L7.204314262519965 4.289399679290021 L7.1898448615200365 4.288469503290067 L7.179716280519976 4.283405213290003 L7.172171521520021 4.283508566290031 L7.1674172895200385 4.280821391289997 L7.165660290520059 4.267695578290024 L7.163179822519986 4.257670349290002 L7.081737765519982 4.110702576289974 L7.055796195520024 4.078973247289959 L6.996575004520018 4.046417094290014 L6.987479952520054 4.034634867290002 L6.98303577952003 4.015927999290021 L6.972080375519987 3.9968077192900253 L6.958541149519981 3.980374614289964 L6.9459321005200465 3.9692125042900344 L6.910688774520075 3.9505056362899538 L6.8969428425200405 3.9398602912899676 L6.891258435520022 3.9247707732900565 L6.888157849520063 3.89686549928998 L6.879062797519985 3.88890732829001 L6.844129529520011 3.8940749722900208 L6.82309722151998 3.888700623290056 L6.773952933520029 3.8622422892899735 L6.760930473519998 3.8524237672899986 L6.743257133520011 3.814906678290008 L6.729717908520023 3.805088156290033 L6.706256807520042 3.818317322290035 L6.703156222520015 3.8091189172900286 L6.691270642519974 3.7896885792900505 L6.686516410519992 3.784210877289972 L6.677628063520068 3.776666117290013 L6.6686363655200225 3.771085063289995 L6.658197725519976 3.770361593289998 L6.644916882519986 3.7773895882900135 L6.634219861519988 3.761990011290031 L6.625951632520035 3.713310812289997 L6.613859347520041 3.7028721722899647 L6.597736299520044 3.698014588290043 L6.589571423520049 3.6854055392900236 L6.579752901519974 3.6162624722900247 L6.576652315520015 3.6061338912899785 L6.562182914520086 3.592698019290033 L6.555464978520057 3.5834996142900266 L6.559185681519999 3.5793655002900024 L6.559805798520038 3.569340271289981 L6.542545869520062 3.5098090212900033 L6.536654757519976 3.50071396928994 L6.521978649520058 3.4859345092900256 L6.514485567520033 3.4757025762899545 L6.502651664520009 3.4462470092900404 L6.497380668520087 3.4381854872899495 L6.492729789520034 3.422785910289967 L6.491489555519983 3.3693524792900362 L6.494073376519985 3.35157578629002 L6.545646456520011 3.2770583702899714 L6.549057100520024 3.2730276092899757 L6.571277966519965 3.2558710332900134 L6.576652315520015 3.252873800289997 L6.569055880519976 3.2156667692899887 L6.573241671520087 3.193755962290034 L6.582646782520065 3.1791832082899774 L6.59215524552004 3.1683311572900195 L6.610758760520007 3.1302973022899963 L6.609518526520041 3.0966042682900294 L6.610758760520007 3.085855570290015 L6.61329090652 3.080067811290043 L6.621817517520007 3.0674587612900197 L6.624401338520009 3.0580536502900557 L6.623987927519998 3.0455479542899653 L6.613239229520069 2.992321229290006 L6.613859347520041 2.982606059290056 L6.628018689520069 2.963279074290007 L6.641144502520056 2.9389911512900184 L6.644916882519986 2.9282424532899896 L6.645692029519999 2.918113871289954 L6.643728324520048 2.896719829290028 L6.644916882519986 2.88669460129001 L6.650859672519992 2.8774961962900036 L6.668429659520051 2.8597195032899734 L6.672150362519993 2.8490741582899872 L6.674424125519998 2.838738872289973 L6.684242647519959 2.8183783582900404 L6.686516410519992 2.807526307289997 L6.686516410519992 2.7631879282900442 L6.691477348520031 2.7396234742900347 L6.70057240052008 2.7165757862899866 L6.7135948605200255 2.69528509629 L6.7305447305200445 2.677508403290055 L6.737986137519975 2.6677932342900235 L6.745117484520016 2.6459857802899975 L6.760310356520016 2.6214911502899483 L6.7646511765199975 2.6163235072899553 L6.770542290520005 2.613532980289982 L6.78325469152005 2.6144631562899505 L6.78893909952 2.6130162152900382 L6.802943412520015 2.6020608122900555 L6.818601371520053 2.5865578822899593 L6.831417126520044 2.567954366290003 L6.83668812252008 2.547800558290028 L6.831313774520019 2.541392680289981 L6.807956027520071 2.523719340289979 L6.802581677520003 2.5135907602899366 L6.804235323520054 2.5020152392899817 L6.809764702520049 2.480724549289995 L6.809402966520075 2.4689423222899975 L6.785115043519987 2.442277283289961 L6.77198922952001 2.424087179290005 L6.771782524520056 2.410341248289974 L6.7758132855200515 2.400832784289996 L6.767545056519985 2.3856399142899747 L6.771782524520056 2.3762348032900107 L6.777673636520056 2.3672431032899723 L6.7816010465200165 2.355667583290021 L6.783151339520025 2.343058533289998 L6.782014457520027 2.3311729542899755 L6.774779757520058 2.3116392622900506 L6.7656847055199805 2.2957229212900288 L6.757933240520082 2.2779462282899985 L6.754832654520037 2.252934835290013 L6.757778210520051 2.231954203290009 L6.76351429551999 2.216037862289987 L6.766304822520048 2.2005349332899797 L6.760930473519998 2.181001241290055 L6.7591734745200185 2.1804844772900154 L6.750388481520041 2.1753168342900224 L6.747908012520064 2.1734564832900176 L6.745117484520016 2.1681854862899783 L6.743050427520039 2.157540142289996 L6.74108672352002 2.1529926152899534 L6.706980278520028 2.12426051929004 L6.7163853885199885 2.1057603562900127 L6.74108672352002 2.0773383182899963 L6.756693005520042 2.046539165290021 L6.765581351520062 2.00736842928999 L6.768320202520009 1.9276833702900333 L6.760930473519998 1.8556464242900503 L6.765012910520021 1.8340456752899925 L6.795760388519959 1.7694501352899508 L6.805527234520007 1.7262486372900057 L6.815139050520024 1.7084719442899754 L6.833587537520025 1.7011338912899774 L6.835551241519987 1.6965863652900381 L6.809402966520075 1.670128031290055 L6.807025851520017 1.6555552782900023 L6.800721326519998 1.6496641642899945 L6.792039685520045 1.6465635792900528 L6.782014457520027 1.6397422892900053 L6.768320202520009 1.6202085982899987 L6.762222383520047 1.600261495290063 L6.760930473519998 1.5537527062900338 L6.758863416520022 1.5429006562899943 L6.749975069520012 1.522126730290033 L6.747908012520064 1.5125149142900298 L6.743567191519979 1.4989756882900522 L6.724653617520026 1.4777883512899948 L6.720622855520041 1.4683832402900308 L6.725687146520009 1.462905539289956 L6.748166394520034 1.4556708382899828 L6.754832654520037 1.4479193732900697 L6.723361707520006 1.4486428432899814 L6.7111660695200825 1.4437852592900455 L6.706256807520042 1.4305560922899687 L6.705791719520015 1.413606222289964 L6.70393136852001 1.4005837612900152 L6.699848930519998 1.389525005290018 L6.6926659055200375 1.3790863652899858 L6.6686363655200225 1.3615163782899984 L6.656750785519982 1.3502509162900438 L6.651789848520046 1.3346446332900044 L6.65334014051998 1.3201752322899765 L6.655200492519974 1.3020884812899638 L6.653030082520068 1.2829682012899681 L6.632462862520008 1.2578534552900393 L6.5975295945200045 1.2396633502899945 L6.5484369835200695 1.2295347702900372 L6.505597221520013 1.2132050172900009 L6.48952585152005 1.1766181032899752 L6.5093696005200385 1.1397211302899493 L6.552157686520069 1.1117125042900327 L6.6432632375200384 1.0690277722900348 L6.736125785519953 1.0010215862900438 L6.902472220520046 0.8386542362900329 L7.030164685520042 0.6703957722900142 L7.067526745520006 0.584509542289986 L7.072539359519958 0.49541937328998387 L7.02985462751996 0.4065359092900209 L7.026237276519986 0.3877256882900113 L7.05233387552007 0.3774937542899508 L7.172171521520021 0.3594070032900234 L7.345184216520032 0.33315537628998726 L7.5030040405200324 0.30917751128998106 L7.712910010519998 0.27735614928997876 L7.729346814520021 0.2748643602900458 L7.995170381520062 0.23445339028997836 L8.260683890520077 0.19414577229002106 L8.46201527152001 0.16355332529000322 L8.718847139520072 0.12458929529001495 L8.889172661520057 0.0987510782900003 L8.91532093551998 0.19373236129001015 L8.965343722520025 0.29274440529001566 L9.028957410520057 0.3837982802899589 L9.09660186051999 0.4551117562900302 L9.129416394520057 0.4805365612900303 L9.170705863520048 0.504927836290058 L9.214889213520074 0.5209475302900088 L9.25690215352008 0.5212575892899949 L9.278089490520038 0.5108189502900515 L9.298450004519985 0.49634954928993835 L9.319740694520043 0.4853941452900514 L9.343821912519978 0.4853941452900514 L9.355500785520029 0.4933523152900179 L9.374414360520085 0.5185704142899752 L9.385111381520026 0.5265285852900305 L9.397978813519977 0.5285956432899965 L9.406453748520015 0.5257017622900051 L9.414153536519983 0.5206374722900264 L9.46588164552005 0.502344015289971 L9.47745716552 0.4998635462899941 L9.48458851352003 0.49707301929002057 L9.48717233452006 0.4931456102899645 L9.490376273520006 0.4918020232899991 L9.499264620520044 0.4969696662900063 L9.502985323520043 0.5032741912900107 L9.506292614520042 0.5214642952900519 L9.509703259520073 0.528492290289968 L9.523035779520079 0.5371739302899314 L9.535903210519983 0.5384141652899714 L9.549494112520073 0.5369672252899775 L9.564583631520087 0.5381041062900707 L9.580293266520037 0.5461656292899661 L9.601790662520067 0.5707636122899586 L9.617707003519989 0.5807888392899727 L9.656154269520037 0.5916408902900159 L9.676101371519984 0.6081773482900203 L9.683026013520042 0.6336021532900205 L9.68292266052 0.6709125372900573 L9.690415743519985 0.7137006232899878 L9.713515108520049 0.7442930712899951 L9.809736625519996 0.8176736042900288 L9.826686495520072 0.824184835290005 L9.84684030451998 0.8242881882900335 L9.867304171520026 0.8170534882899787 L9.901410616519989 0.7987600312899943 L9.92466501051998 0.7967963262900568 L10.073699841519975 0.837207296290039 L10.054889620520008 0.8777216192899644 L10.054786267520079 0.9271242882899813 L10.075146781520083 0.9663983772900409 L10.117624808520041 0.9765269572899982 L10.138450411519976 0.967948670289978 L10.15286813652002 0.9573033252899776 L10.168784477520056 0.9505853892900475 L10.194312634519996 0.9542027392900323 L10.223096407519982 0.9707391972900226 L10.233483370520013 0.9737364302900389 L10.242888480520058 0.9729096072900134 L10.262112113520082 0.9683620812899889 L10.271207166519979 0.9687754932899892 L10.282640165520057 0.9748921472899994 L10.291877739519997 0.9798342492900005 L10.328671358519976 1.0168345752899555 L10.348360079519999 1.0314073292900119 L10.36851388852002 1.0384353232900239 L10.389804578520078 1.0411224982900436 L10.52008086352 1.0385386772900418 L10.560491834520086 1.0484605522899457 L10.596768689520012 1.0726451222900195 L10.607724093520083 1.0864944052899759 L10.627154431519976 1.1319696662900256 L10.641520479519976 1.1538804732899948 L10.655111381520065 1.1628721732900331 L10.69268014752 1.1658694052900458 L10.778669731520061 1.184472921290002 L10.85029326652002 1.190467388290024 L10.86290231552001 1.19718532329005 L10.876751599520013 1.211964783290064 L10.880472302520012 1.2196128952899485 L10.883572889520018 1.2345990602900159 L10.889360648520004 1.2420404662900424 L10.896698702520005 1.2446242882899483 L10.914061983520035 1.2428672902900573 L10.921400037520037 1.2443142302900512 L10.967805472520034 1.2748033252900441 L11.042529594520055 1.302811951290046 L11.057929171520037 1.312527121289996 Z" fill="black" stroke="black" stroke-width="0.5" vector-effect="non-scaling-stroke"/></svg>