<svg xmlns="http://www.w3.org/2000/svg" viewBox="0 0 7.979866406760085 6.918182372760045"><path d="M0.11864495438006983 2.247123819380109 L0.12556959638004273 2.2539451083800675 L0.14427646438002384 2.2623166903800485 L0.17476556038002045 2.2851576733800574 L0.19440260438005552 2.2942527253800353 L0.20411777338000192 2.2955963123800007 L0.2353303383800629 2.2942527253800353 L0.26840325438007184 2.306034952380033 L0.27915195238000123 2.307895303380038 L0.3544445143800452 2.307895303380038 L0.359612158380056 2.3090321843800456 L0.3690172683801016 2.3141998283800422 L0.37532179438002444 2.3153367103800537 L0.3810062003800532 2.313166300380063 L0.38979119538003815 2.303967894380067 L0.3956823073800386 2.3016941313800476 L0.4628616693800005 2.2891884353800567 L0.51588168938002 2.266967569380016 L0.5402729653800371 2.2644871003800393 L0.5530887203800283 2.2724452713800094 L0.5652843583800369 2.282883910380038 L0.6026980953800738 2.2923923743800305 L0.6248156083800005 2.302831013380059 L0.6448660643800359 2.3152333573800252 L0.6535477043799993 2.325671996380068 L0.6632628743800488 2.341174926380079 L0.7085314293800558 2.3596750883801025 L0.7224840653800264 2.376831664380065 L0.7063610183800471 2.382412718380083 L0.7050174313800959 2.3966754143800575 L0.7123554853800691 2.413005167380094 L0.7224840653800264 2.424580687380045 L0.7833589033800727 2.451969197380082 L0.8258369303800315 2.4535194893800014 L0.8374124513800574 2.451969197380082 L0.8926028813800677 2.424580687380045 L0.8994241693800085 2.431505329380018 L0.9054186353800411 2.4193096913800947 L0.9213349763800771 2.4158990473800817 L0.9400418453800476 2.4153822833800422 L0.9540978353800789 2.4115582263800963 L0.9550280103800297 2.4076308173800403 L0.9530643063800959 2.394918416380081 L0.9540978353800789 2.391094359380036 L0.9600923013800831 2.38882059738002 L0.9774555823800277 2.3845831293800632 L0.9943020993800893 2.3755914303800285 L1.0174531413800842 2.3713539623800717 L1.026341487379991 2.3665997303800754 L1.0618948733800515 2.340244750380025 L1.070783219380072 2.335800577380015 L1.0799816243800784 2.339314575380074 L1.087112972380023 2.3476861563800515 L1.0927973793800412 2.3569879143800723 L1.0980683753800768 2.3631890863800624 L1.107163427380069 2.3663930253800363 L1.1531554523800445 2.371560668380029 L1.162663916380037 2.3757981363800855 L1.1708287923800604 2.3813791903800894 L1.177133317380079 2.3873736563800367 L1.184368018380038 2.3890273023800734 L1.221575048380057 2.3836529533801087 L1.267463720380018 2.3920245353800897 L1.3443582513800116 2.432332153380047 L1.3860094563800338 2.445044554380006 L1.4124677903801022 2.4494887283801052 L1.429107600380032 2.4558966053800493 L1.4422334143800946 2.466231892380053 L1.457736344380006 2.482975056380015 L1.4715856283800655 2.494240518380069 L1.4877086753800448 2.502198689380025 L1.5445527503800882 2.5197686763800977 L1.5588671223800894 2.522249144380071 L1.5708043783800427 2.5188385003800438 L1.599433122380102 2.493517048380072 L1.6124555833800365 2.4859722893801166 L1.6285786293800264 2.4820448803800463 L1.6528665523800292 2.4792543533800018 L1.7471243653800421 2.437603148380079 L1.7708955243799913 2.445044554380006 L1.8075341143800436 2.421893513380015 L1.8180244303800883 2.4177593993799906 L1.8651533363801 2.4156923413800246 L1.8801395023800715 2.4115582263800963 L1.9073213053800622 2.3972955323800296 L1.937035253380028 2.370010375380021 L1.9742939613800523 2.3351804593800427 L2.007883642380076 2.2954929593800575 L2.005403173380099 2.2719285073800553 L2.004162939380077 2.247123819380109 L2.0058165853800425 2.2368918863800378 L2.01594516538 2.222319132380081 L2.2809419103800757 1.9578391513800302 L2.3831578943800444 1.8681288653800454 L2.436177913380046 1.8161423743800231 L2.4633597163800367 1.7658095293800518 L2.483720231379973 1.6863311763800528 L2.5000499843800092 1.6515012603799892 L2.636165706380094 1.4542006423800746 L2.675749853380065 1.4126527903799957 L2.727426285380087 1.3826804593800421 L2.8818567763800296 1.3184103153800084 L2.972785986380071 1.2805678303800097 L3.0713846183800477 1.2016062413800501 L3.138977393380028 1.159541625380017 L3.5021593593800127 1.0217722573800803 L3.5495983233799926 1.013297322380085 L3.5776586263800105 1.013297322380085 L3.591714615380024 1.0111269113800905 L3.6002412273800495 1.003685505380064 L3.619981624380099 0.9852886963800689 L3.628146500380037 0.9682354723800461 L3.667730647380065 0.9392966703799903 L3.681373225379982 0.9237937413800683 L3.687987809380072 0.887620239380043 L3.6919152183800428 0.8794553623800159 L3.7160997883800313 0.841214802380124 L3.7158930823800596 0.8184771723800441 L3.6993566243800693 0.7766192623800681 L3.6956359213800702 0.7593593333800772 L3.6991499183800123 0.7377585843800194 L3.723024430380004 0.6842218013800636 L3.705971208380074 0.6556964103801182 L3.711345556380021 0.6158022043799907 L3.7242646643800548 0.5742543533800859 L3.729845719380048 0.5402512613800514 L3.727365250380071 0.5351869703800691 L3.722714372380036 0.5296059163800653 L3.718166845380093 0.5225779213800497 L3.7160997883800313 0.5134828683800823 L3.719200374380076 0.5024241123799857 L3.732946305380093 0.4819602453800247 L3.7360468913800524 0.47503560238003395 L3.7577509933800535 0.448473916380026 L3.791237320380045 0.41674458737999664 L3.805725832380059 0.410252467380106 L3.8101508953800725 0.4082696523800866 L3.8316482913800165 0.40444559638005906 L3.876916845380034 0.4036187733800336 L3.9012047693800262 0.3992779533800519 L3.91391717138006 0.3873923743800294 L3.9352078613800607 0.3484283433800375 L3.9450263833800214 0.3375762923800796 L3.9610460773800718 0.32393371538008076 L3.9805797683800925 0.31235819438004064 L4.000733577380057 0.3075006103800195 L4.009828629380021 0.3018162023800688 L4.045175309380024 0.26584940537999735 L4.265833675380005 0.16725077238001695 L4.280923193380087 0.16404683438003254 L4.367326188380044 0.1566054273800166 L4.385102880380085 0.1458567293800872 L4.422309912379998 0.11516092838005143 L4.446081071380089 0.10875305138002211 L4.467423437380088 0.11144022538003817 L4.486853776380027 0.11660786838004533 L4.507369319380015 0.11960510238006528 L4.531657242380103 0.11629781038006293 L4.588914729380061 0.09769429538001084 L4.632116227380035 0.09107971138010562 L4.673147314380056 0.07268290138002165 L4.696195003380009 0.06782531738000053 L4.740636735380004 0.07185607838008146 L4.826367935380002 0.094490356380037 L4.869517757380034 0.09924458738002961 L4.909101903380073 0.09314676838006797 L4.948892756380072 0.08239807038005331 L4.988993668380086 0.07671366338010621 L5.028784521380086 0.08518859738009787 L5.054416031380068 0.10213846738001742 L5.0660949053800515 0.10616922938001672 L5.082011246380031 0.10275858538007476 L5.089866064380086 0.09769429538001084 L5.104955582379997 0.085085245380073 L5.113740576379993 0.08188130638009916 L5.138958675380021 0.08529195038004111 L5.155060445379998 0.09205885838002992 L5.186914404380044 0.10544575938010503 L5.215543148380046 0.10451558338006528 L5.255127294380085 0.08901265338005437 L5.256574235380068 0.16983459338010398 L5.258124528380105 0.2650225823799861 L5.260191585380081 0.3847052003799991 L5.261431820380093 0.454261677379991 L5.373673030380015 0.45343485538006867 L5.445451595380003 0.4530214423800505 L5.608594092380027 0.4518845613800426 L5.716287776379996 0.4511610913800457 L5.760729508379992 0.4601527903800804 L5.801037125380102 0.4875413003800322 L5.817160173380099 0.5040777583800224 L5.831939632379996 0.5150331623800941 L5.848631119380055 0.5173069253800282 L5.870903662380098 0.5079018143800642 L5.882582536380081 0.49818664538003254 L5.90108269838009 0.47792948338011065 L5.915758805380104 0.4705914303800274 L5.924285416380027 0.4726584873800892 L5.932191910380023 0.4785496003800791 L5.939736669380007 0.47896301238009364 L5.94790154638002 0.4649070223799914 L5.972964615380018 0.4499208573800093 L6.017354671380016 0.453228148380008 L6.118847184380055 0.4764825433800315 L6.137760758380008 0.48330383238007535 L6.154193863380041 0.49467264738007266 L6.168456559380044 0.5120359283800884 L6.187215104380069 0.5458323153800695 L6.199772477380062 0.5596815993800295 L6.219202815380012 0.5699135323800153 L6.2291246903800435 0.5767348223800628 L6.233465511380015 0.5859332263800656 L6.236617773380086 0.5952349843800864 L6.242870622379993 0.6018495683799916 L6.246591325379992 0.6025730373800844 L6.254446142380001 0.6007126863800796 L6.258476904380014 0.600299274380065 L6.263179459380009 0.6028830963800704 L6.262921077380096 0.6075339753800382 L6.261577490380031 0.6123915593800593 L6.263437842380025 0.6152854403800365 L6.282971533380074 0.6177659093801129 L6.3045722823800325 0.6179726153800704 L6.324519384380036 0.6207631423800297 L6.339505550380007 0.6309950763800192 L6.378056168379995 0.6494952383800427 L6.544971044380073 0.6602439363800574 L6.5695690273800516 0.6708892813800436 L6.597060888380096 0.692800088380098 L6.657625667380042 0.7566721593800612 L6.676952653379995 0.772588500380083 L6.718913915380025 0.793775837380041 L6.730799495380037 0.8033876543800478 L6.739584489380032 0.8210609933800459 L6.744493749380066 0.8593015533800372 L6.753227067380006 0.8744944253800657 L6.769143408380042 0.8819358313800922 L6.873013037380073 0.8979555243800394 L7.070623714380073 0.8932012933800468 L7.149326920380073 0.904776814380087 L7.252524756380009 0.9447743723800688 L7.410964697380049 1.0063726803800979 L7.530647314380072 1.0527781163800984 L7.5419644523800535 1.0629066973800594 L7.546770361380023 1.0772727453800588 L7.547493831380049 1.1003204343801247 L7.557519059380066 1.139801228380053 L7.584080745380103 1.1594382723800027 L7.589814572380018 1.1616734933801087 L7.590178564380036 1.1618153883800364 L7.59875685238006 1.156234333380029 L7.612709489380048 1.1509633373800785 L7.628212418380084 1.1484828683800163 L7.659528336380102 1.15034322038011 L7.7208682613800725 1.1634690333800837 L7.752235855380089 1.1654327383800211 L7.768462256380072 1.1610919183800394 L7.798434586380036 1.1427984613800692 L7.815074397380041 1.1360805253800397 L7.827373389379996 1.1346335843800563 L7.820448746380006 1.1633656813800588 L7.79223341538005 1.2687856033800973 L7.775076839380002 1.300928343380038 L7.759367203380005 1.3207720943800343 L7.687640316379994 1.388158162380039 L7.688983903380002 1.3945660393800683 L7.745621273380092 1.4912009673800402 L7.787375829380036 1.5625144443800156 L7.8130073403800075 1.6201853423800703 L7.826649918380095 1.681887002380039 L7.827953908380035 1.7191322003800185 L7.828303564380061 1.7291192623800686 L7.832075944380048 1.7509267163800093 L7.842462906380089 1.770770466380002 L7.851247900380084 1.7776951083800743 L7.873520442380023 1.7896840413800295 L7.880496761380012 1.7985723873800499 L7.881323583380034 1.8144887283800717 L7.875122411380058 1.8301983633800365 L7.8705152233800355 1.8370078883800876 L7.856312191380024 1.858000283380095 L7.817038102380078 1.9314841703800614 L7.81052687238002 1.9392356363800634 L7.801845230380021 1.9446099843800244 L7.795437353380006 1.9513279213800576 L7.795540706380049 1.9623866773800547 L7.806082698380006 1.9961830643800358 L7.81052687238002 2.0044512933800878 L7.8279935053800465 2.017577107380051 L7.865510595380041 2.0340102123800268 L7.879256527380104 2.0515801993800853 L7.88339064138 2.0722507723801034 L7.879463232380029 2.091474405380028 L7.8629267743800675 2.128578083380022 L7.859102718380026 2.1669219963800277 L7.862048274380012 2.2107436113800407 L7.85796583638 2.247330524380077 L7.83243767938006 2.263660277380014 L7.815901220379995 2.2709983313800155 L7.804945817380084 2.2877414953800628 L7.798537939380022 2.30851542138001 L7.795747411380088 2.3280491123800164 L7.79729770538 2.3475828033801083 L7.809131608380024 2.3755914303800285 L7.810991960380019 2.3932647693800266 L7.80701287438006 2.4062872303800606 L7.799261409380048 2.413005167380094 L7.791303239379996 2.417966104380044 L7.7862389493801025 2.4259242743800957 L7.787840917380034 2.4353293853800597 L7.800088232380059 2.449282022380048 L7.799158056380005 2.457860310380072 L7.79378370738004 2.4776007073800503 L7.795954118380049 2.5001316323800626 L7.831145768379994 2.6032777903800923 L7.834401383379994 2.6363507073800765 L7.833729589380024 2.643792113380089 L7.8247895673800905 2.6651861563800185 L7.817038102380078 2.6784153233800954 L7.81114698838007 2.6860634353800794 L7.809389990379994 2.694331664380032 L7.813834163380019 2.709317829380014 L7.8290270343800294 2.730505167380061 L7.87574252938003 2.766678669380001 L7.893829280380029 2.7859023023801104 L7.901632422380086 2.8050225823800066 L7.896929866380102 2.8160813393800215 L7.86809441738006 2.8369586173800787 L7.84706210938003 2.8662074783800353 L7.844219906380086 2.8654840083800384 L7.845666845380034 2.8753025303800133 L7.858379247380011 2.8896685783800127 L7.8618932453800845 2.8999005113800838 L7.855278662380041 2.920157673380091 L7.837450293380012 2.9330767813800964 L7.815487809380041 2.9428953033800713 L7.796005794380047 2.9540574123800116 L7.778177425380019 2.96304911238005 L7.759160498380023 2.9683201083800714 L7.742003922380089 2.97514139738003 L7.729601579380013 2.9887839753800325 L7.727121110380036 3.0056304923801083 L7.730531754380078 3.0261977123800126 L7.74334750938004 3.0620611563800413 L7.773423193380037 3.118905232380003 L7.78117465738006 3.146190388380008 L7.779107601380073 3.1792633053800916 L7.772131282380084 3.2060316963800677 L7.761382584380041 3.2275290923800117 L7.744070980380055 3.240861612380032 L7.717715999380001 3.243032022380108 L7.676788265380079 3.2400347893800063 L7.6465058763800435 3.244272256380059 L7.550284358379994 3.2872670483800324 L7.548734066380003 3.2962587473800813 L7.555658707380072 3.350208943380041 L7.56206658538002 3.364885049380023 L7.574623958380013 3.372843220380078 L7.563926936380025 3.3804913323800623 L7.551111182380051 3.387312621380021 L7.541396012380002 3.395684203380002 L7.539949072380008 3.407983194380039 L7.547493831380049 3.430307412380005 L7.549147477380014 3.4412628163800765 L7.547493831380049 3.4539752193800286 L7.549922623380095 3.4673077383800592 L7.5578291173800345 3.475265909380015 L7.569146256380005 3.4789866123800284 L7.582737158380038 3.4796067293800963 L7.6448522293800885 3.470718383380076 L7.662215511379994 3.4725787343800807 L7.67306756238008 3.4768162023800375 L7.678855321380009 3.4813637283800762 L7.681852555380029 3.488185017380035 L7.684126318380034 3.4998638913800892 L7.689087255379999 3.5121628813800374 L7.696993750380042 3.5199143473800536 L7.706347184380089 3.5269423413800514 L7.714770443380015 3.53676086438003 L7.721126644380032 3.571074014380047 L7.692084488380029 3.694994099380027 L7.691050960380036 3.719695433380126 L7.687536963380008 3.7375754793800002 L7.679578792380024 3.7543186433800333 L7.665006038379996 3.7764361563800453 L7.62769565438003 3.8166404213800735 L7.625318538380096 3.8264589433800342 L7.627385595380073 3.855811156380101 L7.621081071380043 3.896428832380055 L7.622217952380023 3.9169960523800444 L7.632811621380025 3.9288816323800706 L7.651983577380005 3.929708454379993 L7.670173681380046 3.927538045380091 L7.684229671380077 3.9321889243800587 L7.691050960380036 3.953893025380056 L7.69136101938005 3.972289835380055 L7.684229671380077 4.044636840380024 L7.684539729380045 4.053835244380112 L7.687020198380022 4.063653767380076 L7.688467138380016 4.0766762273800214 L7.684229671380077 4.0862880443800425 L7.6783385573800125 4.094969685380095 L7.67513461838001 4.1050982663800415 L7.678493587380043 4.127319131379993 L7.689914079380056 4.138171182380036 L7.708000830380055 4.142098591380007 L7.731048519380007 4.1432354733800185 L7.75357944338003 4.137344360380014 L7.783448421380054 4.108302205380015 L7.802051937380096 4.102307739380082 L7.819828629380023 4.111816202380071 L7.821275570380006 4.132073363380075 L7.8130073403800075 4.170830687380006 L7.821275570380006 4.188400674379993 L7.8379153803800214 4.204420368380029 L7.859464453380095 4.217339477380039 L7.881633642380049 4.2261244703800305 L7.891658870380066 4.237183226380042 L7.888506608379995 4.256406859380052 L7.8817369953800345 4.279867960380033 L7.880186702380055 4.321105752380037 L7.8608597163801015 4.380016885380046 L7.857242366380088 4.453914183380023 L7.863236832380036 4.477271931380061 L7.866130713380013 4.485023396379988 L7.812593928380064 4.483266397380094 L7.798951350380033 4.4945318593800625 L7.793163590380001 4.52512430738007 L7.785412125380102 4.539490355380069 L7.769547460380064 4.544141234380037 L7.753269384380072 4.547035114380025 L7.744174333380098 4.556026814380063 L7.7367329263800535 4.604706013380083 L7.7317719883801 4.620208943380094 L7.718129410380012 4.643876749380043 L7.715959000379993 4.653591918380075 L7.717199234380072 4.660516560380062 L7.723917171380091 4.673952433380096 L7.724433935380031 4.681910603380063 L7.717302587380001 4.712503051380084 L7.7118248863800964 4.7268690993800835 L7.7040734203800945 4.7396848543800605 L7.659631689380031 4.7915679923800685 L7.594726090380046 4.867222289380026 L7.563306820380031 4.924789835380055 L7.530647314380072 4.984837849379987 L7.505325863380104 5.01098612338008 L7.462537776380028 5.0178074133800425 L7.415408870380073 5.012329711380049 L7.37200066738006 5.017600707380071 L7.340478043380013 5.056047973380034 L7.329936051380056 5.098526000380064 L7.327972346380019 5.13986714638 L7.342338394380018 5.247250772379987 L7.356084326380024 5.351120401380088 L7.3498831543800485 5.3893609613800795 L7.326525406380025 5.433182575380004 L7.275985855380039 5.493954060380107 L7.198677913380035 5.587074991380108 L7.20420729138004 5.595859984380086 L7.218728369380013 5.604438272380024 L7.227720068380048 5.6160137933800645 L7.232215918380003 5.616633910380047 L7.236608415380086 5.616427204380075 L7.239502294380028 5.618494262380041 L7.239398942380031 5.625212198380071 L7.2357299153800305 5.631516723380075 L7.231854183380047 5.636994424380065 L7.230613948380036 5.640921834380039 L7.303477718380062 5.757710570379986 L7.304713494380049 5.762011072380092 L7.306061539380035 5.766702270380025 L7.267407568380062 5.7433445233800615 L7.231854183380047 5.780964965380081 L7.183381689380095 5.831194457380038 L7.131085139380101 5.885558063380104 L7.078581885380057 5.939921671379993 L7.02618198238002 5.994285278380049 L6.973678727380044 6.048648884380031 L6.921278824380007 6.1030124913800865 L6.868878922380073 6.157479450379997 L6.816479019380036 6.211843057380067 L6.764079118380092 6.266206664380038 L6.711575862380013 6.3205702713800935 L6.659175960380079 6.375037230380004 L6.606672704379999 6.429400838380078 L6.554376155379995 6.483764444380045 L6.5019762523800715 6.538231404380044 L6.449576350380024 6.592595011380114 L6.397073095380048 6.646958617380081 L6.34467319338 6.701322224380052 L6.292686702380021 6.755065714380054 L6.227574397380007 6.798060505380038 L6.1477859863800255 6.850357055380046 L6.124479915380103 6.818524372380098 L6.114506363380084 6.8109796133800575 L6.104584489380098 6.810566202380047 L6.088461442380034 6.816974079379991 L6.080399918380007 6.81790425538003 L6.072338395380026 6.814907022380028 L6.056732112380015 6.805605264380093 L6.049549088380044 6.8036415603800595 L6.042521093380056 6.798577270380081 L6.022212256380097 6.775632934380043 L6.011463558379997 6.769431761380064 L5.996580745380069 6.77149881938003 L5.963404476380045 6.786381632380072 L5.955912200379995 6.787939658380099 L5.9465062823800245 6.789895628380025 L5.92919467738005 6.786691690380055 L5.8949848793800435 6.772635700380038 L5.786050960380063 6.748761188380046 L5.725951269380001 6.742663369380084 L5.696754085380004 6.735325316380086 L5.664146256380032 6.747520954380009 L5.552783544380073 6.755789183380061 L5.533146500380038 6.761576944380026 L5.506274756380034 6.77945699038 L5.491288590380062 6.783694457380038 L5.484415624380002 6.781627400380076 L5.46917107738005 6.771705524380083 L5.459972672380044 6.769431761380064 L5.431033870380073 6.769638468380025 L5.366231624380074 6.762610473380009 L5.347318050380064 6.763230589380074 L5.328094417380097 6.7680881743800985 L5.2905773273801024 6.7842112223800815 L5.27156040038005 6.789895628380025 L5.230942724380039 6.79651021238003 L5.193839046380045 6.797750447380055 L5.15962924738005 6.789998982380057 L5.1282099773800915 6.769431761380064 L5.114153988379993 6.757752888380084 L5.099271175380064 6.74917460038006 L5.080564306380037 6.743903604380124 L5.055862971380062 6.742146606380048 L5.011524592379995 6.747831013380095 L4.99395460638004 6.746590779380059 L4.969976741380034 6.735325316380086 L4.941451350380074 6.715894978380023 L4.926775244379993 6.710107217380044 L4.897009618380078 6.706799926380045 L4.894735856380063 6.703595987379986 L4.893392268380008 6.699151814380061 L4.874375342380059 6.680031533380076 L4.86414340838007 6.675277302380083 L4.842646012380097 6.670729776380044 L4.832827490380051 6.667009073380031 L4.805542334380046 6.651299438380066 L4.790969580380075 6.647372028380092 L4.754899430380075 6.644374796380079 L4.730353125380017 6.63228251138 L4.696195003380009 6.625461221380052 L4.638110693380039 6.589391071380051 L4.617750179380092 6.583913370380062 L4.550312434380086 6.587117308380032 L4.538478531380061 6.591354776380074 L4.52028842738002 6.579469197380051 L4.4999279133800165 6.582259724380011 L4.462824234380033 6.598072712380004 L4.429027848380027 6.594972126380059 L4.409907568380046 6.599002888380058 L4.40138095738001 6.615539346380048 L4.390683936380011 6.625461221380052 L4.3657758953800645 6.623084105380004 L4.3157531083800755 6.611818643380035 L4.294979182380015 6.616159463380017 L4.258392269380064 6.635176390380083 L4.2368948733800345 6.645925088380098 L4.222115413380035 6.645304972380034 L4.2158108893800055 6.643961384380065 L4.208937922380013 6.6397239173801115 L4.132508479380075 6.578125609379997 L4.126203954380056 6.568823851380062 L4.118452490380033 6.549083455380087 L4.1129747883800825 6.540091755380049 L4.103259619380022 6.5287229403800655 L4.098195328380026 6.525622354380021 L4.003730810380059 6.528309529380055 L3.9668338373800474 6.522211709380004 L3.929626806380039 6.504021605380048 L3.8993960943800197 6.47394592138008 L3.8804308423800613 6.435808715380022 L3.8726793783800666 6.393434041380006 L3.8768134923800766 6.3511627193800155 L3.887768896380063 6.329665323379986 L3.904305354380053 6.30558410638004 L3.9165009923800618 6.282226358380088 L3.9141238763800423 6.263002726380067 L3.8975874193800415 6.2509104403800695 L3.8575898593800524 6.239024861380047 L3.8397098143800257 6.227862751380018 L3.810771012380055 6.221351521380045 L3.749896175379998 6.217940876380029 L3.719717138380016 6.210396117380073 L3.5730594233800694 6.1465240473801135 L3.5272741053800267 6.13298482238004 L3.4885684573800937 6.104356078380052 L3.4745641443799933 6.10011861038001 L3.444798518380022 6.097431436380079 L3.412862484380039 6.089576619380042 L3.4018037263800203 6.091333617380018 L3.3913650883800948 6.096087849380099 L3.3561734373800185 6.104562784380024 L3.340257096380011 6.110453897380113 L3.3234622563800507 6.113347777380101 L3.301964860379993 6.108800252380066 L3.220626155380099 6.069319457380034 L3.180783626380073 6.056503702380057 L3.1437316243800204 6.049889119380056 L3.024565771380022 6.048235472380016 L2.949634944380076 6.034282836380017 L2.8917573403800496 6.030872191380086 L2.8754275883800027 6.02591125438005 L2.861423274379998 6.017229614379987 L2.849279312380016 6.004930622380046 L2.8435949063800443 5.995938923380011 L2.8346032063801054 5.975578409380065 L2.829435563380027 5.967413532380052 L2.822562598380042 5.9634861243800845 L2.816929866380004 5.964519652380064 L2.812072281380093 5.9634861243800845 L2.808144872380037 5.953770954380049 L2.81331251538003 5.9408518463800295 L2.8092817543800344 5.935064086380054 L2.8022020833800205 5.932893676380063 L2.7987397623800767 5.931033324380069 L2.800806819380025 5.921524860379991 L2.808506608380039 5.9095359283801105 L2.8118655763800255 5.901681111380087 L2.8090750483799773 5.891345824380084 L2.77941277638001 5.834191690380054 L2.7630830243800766 5.817758584380089 L2.7566751463800436 5.808456827380057 L2.7550215003799927 5.800912067380098 L2.7555382653800358 5.785409138380006 L2.7532645023800306 5.777347615380011 L2.7438593913800524 5.763188272380065 L2.7079959473800237 5.722673949380054 L2.682467789380066 5.684743448380049 L2.652702164379999 5.65043029638011 L2.5832490403800215 5.602681273380044 L2.568056168379993 5.587488402380119 L2.5336396643800434 5.54315002438007 L2.525474788380105 5.524236449380043 L2.525681494380077 5.506769815379998 L2.5378254553800694 5.453749795380078 L2.539220719380065 5.4326658113800494 L2.5315209303799655 5.376545205380099 L2.5314692543800525 5.366726683380039 L2.5339497233800294 5.344299112380044 L2.5336396643800434 5.332930297380061 L2.5348798993800834 5.319701130380055 L2.540667659380059 5.310606078379992 L2.5479023593800285 5.302027791380057 L2.553276709380068 5.29076232838 L2.568469579380004 5.2097336823799925 L2.5661958163799987 5.169736124380025 L2.54133945238004 5.090361124380054 L2.549245946380065 5.054497679380093 L2.5614932613800043 5.019151000380093 L2.5644388183800935 4.979670205380076 L2.5569974123800954 4.962100219380007 L2.5426313643800675 4.949077758380058 L2.5248546713800657 4.942153116380071 L2.484650407380027 4.941636352380046 L2.4497171383800342 4.926340128380078 L2.3929764163800336 4.936055297380024 L2.312774592380034 4.926340128380078 L2.199603206380001 4.9260300693800065 L2.1648766443800547 4.9303708893800735 L2.127256200380028 4.948767700380076 L2.1428624833800676 4.804487100380074 L2.1248790853800834 4.687181599380013 L2.0737710943800742 4.56346822038009 L2.06064528038004 4.546001586380045 L2.042610204380022 4.535356241380045 L2.021784603380066 4.52956848038008 L2.000752295380064 4.526364541380106 L1.9885566563800374 4.525951130380095 L1.978634781380034 4.52688130638005 L1.9685062013800767 4.526261189380081 L1.9562072103800539 4.52192036938 L1.9453551593799965 4.513548787380033 L1.928095230380105 4.490397744380035 L1.9190001793800455 4.48057922238006 L1.8855138503800468 4.463112589380019 L1.8531644043800632 4.459805297380031 L1.819936458380024 4.460218708380042 L1.7839179853800395 4.453914183380023 L1.6707465983800738 4.399447224380113 L1.6333328613800369 4.392832641380027 L1.6096650553800735 4.392625935380069 L1.5898213053800951 4.388905231380052 L1.5727680833800513 4.380430297380061 L1.5574718583800937 4.365547484380018 L1.5436225743800343 4.347564086380034 L1.5360342023800477 4.339832537380078 L1.5326671703800763 4.336401977379994 L1.5183011223800769 4.328753864380106 L1.472929215380045 4.316454873380069 L1.4544290523800179 4.308600056380046 L1.4407864743801007 4.295164184380001 L1.4336551263800708 4.272529906380045 L1.4251801913800612 4.2538230373800605 L1.4081269693800458 4.2370798733800985 L1.3677159993800636 4.2122751863800705 L1.3485957193800537 4.2049371333800725 L1.3091149253800403 4.196358845380049 L1.2907181153800273 4.18953755638009 L1.2717011883800602 4.172587686380085 L1.2441059733800692 4.132073363380075 L1.221575048380057 4.120601195380063 L1.1911893063800072 4.115433552380056 L1.1832311363800407 4.112126261380057 L1.1710354973800996 4.104374795380055 L1.1713455563800004 4.102617797380065 L1.177960139380101 4.0993105053800765 L1.1851948403800598 4.0869081623800145 L1.1923261883800897 4.066030883380039 L1.1898457193800276 4.05796935938004 L1.1799238443800242 4.045050251380035 L1.1720690263800826 4.037195434380097 L1.162353857380051 4.0302707923800245 L1.151501806380022 4.025516560380028 L1.0979650223800625 4.024483031380045 L1.0533165853800277 4.0132175693800765 L1.0143525553800394 3.9901698813800284 L0.9891344563800963 3.954099731380028 L0.893222998380022 3.696751097380089 L0.870278662380084 3.652826130380065 L0.8399962723800591 3.6147922763800313 L0.8153982913800029 3.575104776380046 L0.8074401203800186 3.5562945553800365 L0.8037194173800195 3.5322133373800018 L0.8069233563800786 3.5117494703800265 L0.8232531083800119 3.4746457923800467 L0.8266637533800427 3.4539752193800286 L0.8263128153800459 3.4529424983801125 L0.799585302380077 3.374290160380072 L0.6741149243800884 3.267009887380029 L0.6383548343800634 3.1917690013800826 L0.6322570153800164 3.1185951733801023 L0.6207848463801007 3.0833518473800314 L0.5957734533801009 3.061751098380059 L0.5571194823800134 3.0432509353800317 L0.5283873863800146 3.019066364380068 L0.4809484213801021 2.954160765380026 L0.46730584338001435 2.9407248933800805 L0.43330275138006513 2.918710733380097 L0.36736362338004014 2.8521514883800183 L0.3544445143800452 2.831894327380015 L0.34938022438006655 2.8185618073799947 L0.34002679038001915 2.7763938383800326 L0.33206861938006327 2.7564467353800115 L0.29971917238006185 2.706217244380058 L0.2676797853800643 2.6290126543800785 L0.24638909438007417 2.5920123283800383 L0.21631341138009574 2.5688612863800433 L0.18231031938006126 2.5496376543800228 L0.1552318683800955 2.521629028380106 L0.11389072237997411 2.454139607380073 L0.08495192038003196 2.38489318738006 L0.0782339843800024 2.3610186763800716 L0.0782339843800024 2.332803344380098 L0.11864495438006983 2.247123819380109 Z" fill="black" stroke="black" stroke-width="0.5" vector-effect="non-scaling-stroke"/></svg>