<svg xmlns="http://www.w3.org/2000/svg" viewBox="0 0 2754 1200"><g xmlns="http://www.w3.org/2000/svg" id="bs">
		<title>Bahamas</title>
		<g id="bs-" class="landxx coastxx bs">
			<path id="path6100" d="m 738.819,496.062 c -0.24,-0.1 -0.48,-0.192 -0.72,-0.288 0.267,0.03 0.506,0.129 0.72,0.288"/>
			<path id="path6086" d="m 721.251,480.51 c 0.938,0.813 1.575,-0.101 1.648,1.525 0.05,1.19 1.271,2.221 1.051,3.432 -0.271,1.49 -3.508,3.908 -3.131,1.307 -0.888,0.273 -1.663,-0.366 -2.088,-1.08 0.529,-0.592 1.068,-0.472 1.296,0.288 0.688,-0.818 -0.372,-1.306 0.332,-2.071 0.949,-1.033 0.792,-2.11 0.892,-3.401"/>
			<path id="path6088" d="m 721.755,489.654 c -0.237,-0.536 0,-0.704 0.72,-0.504 -0.24,0.168 -0.481,0.336 -0.72,0.504"/>
			<path id="path6084" d="m 719.595,469.35 c -0.56,-0.237 -1.02,-0.685 -1.296,-1.224 1.074,1.167 1.65,-0.136 2.547,-0.686 1.336,-0.817 3.427,0.56 5.084,-0.539 0.227,1.328 -5.436,2.095 -6.335,2.449"/>
			<path id="path6090" d="m 723.339,493.325 c -0.264,-0.07 -0.528,-0.144 -0.792,-0.216 0.607,-0.02 1.111,-0.263 1.512,-0.72 -1.192,0.842 -1.496,-0.491 -1.747,-1.401 -0.09,-0.311 -0.188,-0.78 -0.485,-0.975 0.731,-0.537 1.282,-1.331 2.16,-1.656 -0.03,0.829 -1.012,1.28 -0.72,2.16 0.458,-0.385 0.771,-0.864 0.937,-1.439 1.199,1.151 0.505,3.533 -0.865,4.247"/>
			<path id="path6092" d="m 726.434,482.382 c -0.05,-1.034 1.042,-0.828 1.656,-0.576 -0.527,0.262 -1.079,0.454 -1.656,0.576"/>
			<path id="path6094" d="m 729.675,474.678 c -0.163,-0.556 -0.589,-1 -1.152,-1.152 0.817,-0.653 1.396,-1.559 1.809,-2.509 0.214,-0.498 0.39,-1.008 0.528,-1.532 0.349,-1.305 -0.125,-0.527 -0.809,-1.332 -1.104,-1.299 -1.788,-3.062 -4.048,-2.259 2.212,-1.303 3.936,1.037 5.112,2.521 0.868,1.095 0.744,1.908 -0.168,2.922 -0.849,0.943 -0.612,2.308 -1.272,3.341"/>
			<path id="path6096" d="m 733.635,478.71 c -0.584,-0.02 -0.965,-0.438 -1.008,-1.008 1.17,0.895 2.76,1.554 3.528,2.88 0.899,1.554 -0.654,2.885 -0.432,4.464 -1.066,-0.859 0.541,-2.569 0.63,-3.539 0.12,-1.323 -2.003,-2 -2.718,-2.797"/>
			<path id="path6098" d="m 735.507,493.686 c 0.992,0.121 1.238,1.215 1.872,1.8 -0.705,-0.392 -1.737,-0.892 -1.872,-1.8"/>
			<path id="path6102" d="m 740.259,489.87 c -0.339,-0.86 0.91,-0.789 0.198,-1.596 -0.595,-0.675 -1.074,-2.265 -1.063,-3.156 0.356,0.858 2.965,4.473 0.865,4.752"/>
			<path id="path6104" d="m 740.835,493.758 c 0.957,1.355 0.643,2.791 1.173,4.187 0.342,0.9 2.009,1.308 1.059,2.438 -0.166,-1.337 -1.618,-1.408 -2.088,-2.52 1.654,1.306 -0.315,-3.272 -0.144,-4.105"/>
			<path id="path6106" d="m 744.434,494.046 c -0.24,-0.07 -0.48,-0.144 -0.72,-0.216 0.666,-0.679 0.905,-0.607 0.72,0.216"/>
			<path id="path6108" d="m 747.027,506.43 c 1.107,-0.834 1.942,-1.98 3.168,-2.664 -1.481,-0.863 -0.249,-1.933 0.203,-1.157 1.043,1.795 -2.35,3.155 -3.371,3.821"/>
			<path id="path6110" d="m 747.098,490.23 c 0.264,-0.05 0.528,-0.1 0.792,-0.144 -0.122,0.584 -0.542,1.055 -1.08,1.296 0.165,-0.367 0.262,-0.751 0.288,-1.152"/>
			<path id="path6112" d="m 748.682,502.542 c -0.761,-0.116 -1.64,-0.689 -1.44,-1.584 0.603,0.339 1.596,0.694 1.44,1.584"/>
			<path id="path6122" d="m 749.907,517.59 c -0.67,-1.133 0.968,-2.188 1.861,-2.432 0.615,-0.168 0.784,0.236 1.312,0.344 0.885,0.181 1.562,-1.005 2.155,-1.44 -0.166,0.925 -0.447,2.088 -1.176,2.744 -1.018,0.915 -2.929,0.301 -4.152,0.784"/>
			<path id="path6124" d="m 755.163,513.126 c -0.156,-0.604 0.08,-0.941 0.72,-0.792 -0.219,0.284 -0.458,0.548 -0.72,0.792"/>
			<path id="path6126" d="m 757.971,505.782 c -0.523,-0.905 -2.402,-0.197 -2.448,-1.297 0.527,-0.07 2.943,0.32 2.448,1.297"/>
		</g>
			</g></svg>