<svg xmlns="http://www.w3.org/2000/svg" viewBox="0 0 2754 1200"><path xmlns="http://www.w3.org/2000/svg" id="ca" class="landxx ca" d="m 814.53,95.73 c -0.9,0.08 -1.814,0.358 -2.318,0.706 0.839,0.552 2.213,0.594 3.124,0.201 -0.908,0.511 -1.937,0.399 -2.923,0.504 -0.803,0.09 -1.286,0.552 -2.015,0.806 -1.337,0.466 -2.908,0.09 -4.133,0.908 0.696,0.518 1.495,0.527 2.318,0.403 -0.872,0.18 -1.752,1.676 -2.62,1.512 -0.859,-0.162 -0.809,-0.988 -1.915,-0.807 -1.534,0.252 -2.507,0.866 -3.629,1.815 -0.841,0.712 -3.097,1.567 -3.125,2.721 -0.03,1.386 2.235,0.616 2.923,0.403 -0.482,0.266 -0.987,0.439 -1.512,0.605 0.256,0.18 0.536,0.348 0.807,0.504 -1.835,-0.189 -3.784,0.501 -5.241,1.613 -0.758,0.579 -2.588,2.327 -0.605,2.62 -0.243,0.211 -0.469,0.486 -0.706,0.706 0.537,0.698 1.352,0.605 2.117,0.605 0.493,0 0.738,0.766 1.209,0.907 1.131,0.339 2.396,1.083 3.327,-0.101 0.497,0.651 0.695,1.574 1.612,1.713 1.294,0.196 2.278,-0.552 3.528,-0.604 0.04,0.601 -0.346,1.007 -0.907,1.108 0.383,0.04 0.726,0.04 1.109,0 -1.169,0.612 -2.423,0.887 -3.629,1.411 0.443,-1.052 1.864,-1.395 2.822,-1.713 -1.341,-0.192 -4.49,0.03 -5.241,1.411 0.284,0.179 0.51,0.347 0.806,0.504 -1.094,0.228 -2.225,1.219 -3.326,1.21 -0.42,0 -2.331,1.241 -1.915,1.512 1.357,0.878 3.773,-0.353 4.939,-0.807 -0.499,0.159 -1.004,0.274 -1.512,0.403 0.35,-0.455 2.173,-2.135 2.722,-1.31 0.767,1.153 -1.815,2.216 -2.419,2.721 0.497,0.23 0.994,0.284 1.511,0.101 -2.669,0.485 -5.011,1.822 -7.458,2.923 -2.416,1.087 -4.293,1.243 -6.854,1.411 -0.721,0.05 -3.942,1.623 -4.032,2.419 -0.11,0.981 0.874,0.919 0,1.714 -0.48,0.436 -0.783,0.94 -0.302,1.512 -1.853,0.301 -2.223,2.63 -4.133,2.721 -0.237,0.01 -0.922,-0.121 -1.512,-0.201 -0.899,-0.123 -1.761,-0.164 -1.814,0.403 -0.06,0.596 0.494,1.202 1.109,1.108 -0.536,0.51 -1.246,0.912 -1.915,1.21 1.679,-0.831 0.01,-2.33 -0.504,-3.326 0.861,-0.738 1.543,0.699 2.419,0.101 -0.07,0.327 0.252,0.472 0.705,0.504 0.604,0.04 1.434,-0.03 1.815,-0.101 1.034,-0.208 1.219,-0.907 1.713,-1.714 -0.744,-0.216 -1.53,-0.164 -2.217,0.202 0.686,-0.516 1.518,-0.828 2.318,-1.109 -1.052,-1.019 -2.724,0.469 -3.83,0.605 0,-0.971 1.09,-1.08 1.713,-1.512 -0.593,0.1 -1.098,-0.07 -1.512,-0.504 1.335,-0.99 2.308,-1.167 3.528,-2.318 1.301,-1.226 2.803,-2.858 4.536,-3.427 -1.217,0.213 -2.72,0.445 -3.83,1.008 -0.653,0.332 -1.33,0.853 -2.117,0.806 0.836,-0.905 2.121,-1.102 3.024,-1.915 -1.243,0.15 -2.374,0.617 -3.629,0.202 1.474,-0.183 0.127,-1.28 -0.504,-1.613 -0.417,-0.22 -1.653,-0.481 -2.116,-0.504 -0.78,-0.04 -1.336,1.464 -2.319,1.613 -1.099,0.167 -2.25,-0.259 -3.326,-0.403 -0.189,0.936 1.103,1.564 -0.101,2.217 0.464,-1.535 -0.883,-0.461 -0.705,0.302 0.115,0.49 0.4,0.99 0.302,1.512 1.006,-0.757 3.302,-1.662 4.435,-0.907 1.518,1.012 -0.05,1.335 0.403,1.915 -1.803,0.09 -4.268,1.514 -5.039,-1.008 -0.832,-2.724 -3.093,-1.168 -1.512,0.303 -1.508,-0.04 -3.105,1.013 -4.536,0.705 -1.253,-0.27 -2.434,-0.841 -3.729,-1.008 -3.049,-0.393 -5.686,0.617 -8.669,0.706 -1.343,0.04 -3.489,-0.396 -4.737,0 -0.955,0.304 -1.261,-0.424 -2.217,-0.504 -0.801,-0.07 -3.048,-1.338 -1.915,-2.218 0.08,0.05 -9.361,1.169 -6.048,-1.008 -0.51,-0.1 -1.013,-0.04 -1.512,0.101 0.242,-0.213 0.468,-0.386 0.706,-0.605 -1.574,-0.02 -1.554,0.383 -3.024,-0.705 0.921,-0.869 1.212,-0.05 1.613,-1.411 0.231,-0.785 0.879,-1.572 -0.101,-2.117 -1.672,-0.931 -4.57,0.05 -6.249,0.504 -4.994,1.364 -10.142,0.974 -14.615,3.931 0.504,0.244 1.007,0.244 1.511,0 -0.605,0.811 -0.441,0.925 0.404,0.403 -1.975,0.952 1.052,0.585 1.511,0.504 0.726,-0.128 1.494,-0.346 2.218,-0.101 -0.255,-0.225 -0.481,-0.45 -0.706,-0.705 1.334,-1.303 2.631,0.408 4.032,-0.101 0.721,-0.262 1.724,-0.714 2.52,-0.605 0.391,0.05 1.417,0.422 1.713,-0.1 0.975,-1.721 5.098,-1.378 6.955,-1.916 -1.504,0.712 -1.833,1.681 -3.628,1.815 -1.493,0.112 -3.491,0.302 -4.738,1.209 -1.283,0.934 -2.709,0.479 -4.132,0.907 -1.392,0.42 -2.908,0.565 -4.334,0.807 1.708,-0.501 0.109,-0.507 -0.101,-0.202 -0.365,0.567 -0.18,0.793 0.605,0.605 -1.005,0.703 -2.853,0.283 -3.427,1.613 -0.443,1.027 0.576,1.367 -0.504,2.419 -0.778,0.757 0.175,1.827 -0.403,2.217 -0.659,0.443 -0.431,1.037 -0.706,1.714 -0.819,-1.892 -1.968,1.654 -2.52,-0.303 0.599,-0.05 1.151,-0.325 1.512,-0.806 -0.433,0.204 -1.283,-0.1 -1.613,0.302 -0.333,0.408 -0.648,1.244 -1.209,1.411 -1.061,0.316 -0.218,2.496 0,3.125 -0.963,-0.327 -1.025,-2.03 -1.008,-2.822 -0.249,0.181 -0.474,0.401 -0.706,0.604 0.564,-0.746 -0.199,-1.106 -0.806,-1.31 0.624,0.107 1.177,-0.307 1.31,-0.907 -0.658,-0.05 -1.892,-0.427 -1.209,-1.31 0.819,0.846 3.012,1.225 3.83,0.201 0.965,-1.209 -0.314,-3.04 -1.613,-1.814 0.336,-0.479 0.672,-0.932 1.008,-1.411 -0.954,-0.697 -2.154,1.081 -2.923,1.411 -0.679,-1.022 1.117,-1.718 1.21,-2.721 -1.014,-0.09 -2.04,-0.162 -3.024,0.201 0.302,-0.637 -0.24,-1.667 -1.008,-1.209 0.41,-0.215 0.693,-0.498 0.907,-0.907 -0.706,-0.32 -2.988,0.439 -3.729,0.604 -1.475,0.329 -3.138,0.392 -4.536,1.008 1.909,-1.209 -1.678,0.152 -2.318,0.202 -0.945,0.07 -1.319,-0.172 -2.117,0.302 -0.37,0.219 -1.913,-0.327 -2.419,-0.302 -1.04,0.05 -2.092,0.283 -3.124,0.403 -2.226,0.259 -4.735,0.06 -6.955,-0.202 -2.014,-0.243 -4.459,-1.429 -6.451,-1.31 0.821,-0.591 2.073,-0.266 2.923,-0.806 1.219,-0.773 0.714,-1.04 2.318,-1.109 1.506,-0.06 2.487,-1.057 4.133,-0.806 1.089,0.166 2.191,-0.136 3.024,-0.907 1.062,-0.982 -0.945,-3.156 -2.016,-3.327 -1.256,-0.201 -2.431,-1.649 -3.83,-1.108 -0.89,0.345 -1.719,-0.08 -2.621,0.201 0.123,0.239 0.286,0.464 0.403,0.706 -1.024,0.758 -4.692,-0.213 -5.745,-0.403 -1.481,-0.269 -3.245,-0.358 -4.536,-1.21 -1.689,-1.115 -2.751,-1.576 -4.838,-1.713 -1.705,-0.111 -2.811,-0.545 -4.132,-1.613 -1.658,-1.341 -3.131,-1.758 -5.242,-1.814 -1.986,-0.05 -3.762,-0.657 -5.745,-0.101 -1.91,0.536 -3.548,1.957 -5.443,2.62 -1.978,0.691 -4.191,1.02 -6.249,0.504 1.08,-1.236 3.083,-1.8 4.637,-2.116 -0.501,-0.24 -1.058,-0.403 -1.613,-0.403 0.691,-0.922 1.706,-1.928 2.822,-2.319 -1.667,0.695 -3.693,-0.959 -5.14,0.807 1.599,-0.723 2.355,-0.326 3.628,-0.504 -1.347,0.467 -4.387,0.531 -5.342,1.713 0.573,-0.08 1.13,-0.01 1.613,0.303 -1.021,-0.5 -3.077,-0.03 -3.83,0.806 2.048,0.409 -2.147,1.062 -2.621,1.31 0.774,-0.162 1.605,-0.386 2.318,0.101 -1.645,0.466 -3.953,0.953 -5.039,-0.806 -1.043,-1.689 0.639,-2.584 1.108,-4.032 0.381,-1.176 -0.06,-2.84 -1.31,-3.326 -1.059,-0.413 -3.534,1.316 -1.814,1.31 -0.24,0.192 -0.466,0.413 -0.706,0.605 0.516,0.07 1.02,0.132 1.512,0.302 -1.55,0.382 -3.167,0.08 -4.636,0.807 -0.968,0.482 -1.927,1.078 -2.923,1.511 -0.988,0.428 -4.36,2.263 -5.342,1.21 0.728,-1.065 2.218,-0.783 3.124,-1.613 -3.291,1.495 -7.01,1.017 -10.381,2.117 -2.791,0.91 -5.394,3.203 -8.266,3.729 0.306,-0.2 3.423,-2.051 1.512,-1.31 0.572,-0.203 1.076,-0.586 1.512,-1.008 -0.479,0.293 -0.983,0.618 -1.512,0.806 0.82,-0.318 1.349,-1.555 2.117,-1.713 0.496,-0.102 1.041,0.01 1.512,-0.202 1.411,-0.642 3.02,-0.997 4.536,-1.31 2.386,-0.493 6.029,-0.404 7.761,-2.419 -1.355,0.112 -0.634,-0.516 -0.101,-0.907 -1.051,0.544 -2.396,1.32 -3.629,1.209 -0.622,-0.06 -3.278,0.04 -1.612,-0.504 -1.525,0.528 -3.121,0.73 -4.637,1.311 -0.865,0.331 -2.598,1.707 -2.318,0.302 -1.305,0.813 -3.053,1.195 -4.536,1.512 -0.717,0.154 -1.38,0.323 -2.116,0.302 -0.214,0 -0.698,-0.106 -0.908,-0.201 -0.994,0.212 -2.627,0.556 -0.907,0.605 -1.363,0.264 -2.522,-0.35 -3.83,0.403 -1.046,0.603 -1.818,1.16 -3.024,1.411 -2.384,0.495 -4.787,0.722 -7.156,1.31 -1.198,0.296 -2.482,0.631 -3.528,1.31 -0.802,0.52 -0.637,1.463 -1.008,2.218 -0.891,1.816 -1.493,-0.524 -1.411,-1.31 -1.386,0.104 -3.448,-0.566 -4.636,0.403 1.695,0.03 -0.346,0.383 0.302,1.411 -1.047,0.151 -1.79,-0.872 -2.621,-1.31 -1.329,-0.7 -3.011,-0.119 -4.434,-0.303 -0.962,-0.124 -5.847,-1.294 -5.242,-2.923 -0.863,0.922 -1.823,-0.395 -1.915,-1.31 -0.06,-0.542 -2.114,-0.754 -2.419,-0.807 -1.831,-0.317 -4.682,-0.524 -6.551,-0.503 l -85.775,71.16 c 1.953,0.907 2.927,-0.218 4.636,0.705 2.356,-0.308 4.515,-1.681 6.955,-1.109 -0.814,0.62 -2.16,1.107 -2.722,2.016 -0.578,0.933 1.015,1.088 0.908,2.117 -0.142,1.372 0.549,2.671 1.007,3.931 0.44,1.209 -0.649,2.301 -1.209,3.225 1.496,-0.522 3.036,-0.799 4.536,-1.31 1.149,-0.392 2.552,-0.567 3.628,-1.109 1.211,-0.61 1.764,-1.811 3.226,-1.915 1.254,-0.09 0.77,-1.114 1.713,-1.31 0.955,-0.199 1.769,0.07 3.629,-0.706 0.596,-0.249 1.701,-0.838 2.318,-0.403 2.114,1.49 -0.488,2.025 -0.605,3.326 -0.08,0.868 1.623,1.193 1.21,2.117 -0.354,0.79 -0.827,1.367 -0.303,2.016 0.67,0.829 1.393,2.016 0.706,3.528 -0.112,0.246 -0.586,2.738 -0.706,3.225 -0.291,1.182 -0.389,2.517 -0.504,3.729 -0.08,0.889 -0.143,1.829 -0.806,2.52 -0.505,0.526 -1.238,1.226 -0.101,1.613 -1.243,0.543 -1.253,2.206 -1.512,3.326 0.941,-0.142 4.426,1.609 4.536,2.52 0.1,0.818 0.804,0.475 0.806,1.109 0,0.573 1.247,0.535 1.512,0.504 -0.806,2.065 -3.033,2.181 -4.233,4.535 -0.545,1.068 -1.004,1.858 -2.016,2.52 -0.672,0.439 -1.67,0.602 -1.613,1.613 0.359,-0.301 0.809,-0.563 1.21,-0.807 -0.363,0.348 -0.723,0.727 -0.907,1.008 0.742,-0.123 1.474,0.02 2.217,-0.1 -1.449,0.777 -2.793,0.33 -4.233,1.411 -0.792,0.593 -2.139,1.69 -0.303,1.814 -1.059,0.267 -1.489,-0.917 -2.62,-0.403 -0.836,0.38 0.217,1.878 1.109,1.209 -0.652,0.416 -1.384,0.875 -1.512,1.714 -0.321,-0.84 -0.06,-1.785 -0.404,-2.621 -0.619,0.477 -2.852,2.597 -1.108,2.419 -0.335,0.341 -0.617,0.628 -0.907,1.008 0.42,0.358 1.604,0.363 2.822,0.202 -0.751,0.185 -1.283,0.628 -1.21,1.814 -0.02,-1.722 -1.304,-1.505 -2.016,-0.302 -0.783,1.324 -0.08,3.956 0.706,5.14 1.225,-0.833 2.069,-2.076 3.427,-2.721 0.734,-0.349 1.804,-0.627 2.217,-1.411 -0.876,1.542 2.305,-0.564 2.823,-1.008 -0.138,0.859 -1.623,1.066 0,1.411 -1.253,-0.495 -4.398,1.127 -3.528,2.721 0.327,0.601 2.01,0.175 2.822,0.403 -0.994,-0.03 -2.099,0 -2.822,0.807 -0.17,-0.368 -0.79,-1.682 -1.31,-1.714 -0.364,-0.02 -0.351,0.735 -0.504,0.907 -0.443,0.499 -1.354,2.967 -0.202,1.815 1.088,1.264 -1.466,1.646 -1.31,2.822 0.2,1.502 1.895,0.24 2.62,0 -1.235,0.671 -1.946,1.87 -3.124,2.62 -0.88,0.56 -2.171,1.703 -2.923,2.419 1.096,0.06 2.067,-0.576 3.023,-1.209 -0.168,0.199 -0.28,0.46 -0.302,0.806 0.293,-0.06 0.594,-0.226 0.806,-0.403 -0.396,0.46 -0.717,0.971 -0.705,1.411 1.502,-0.977 4,-1.536 6.148,-2.419 -0.228,0.363 -0.334,0.944 -0.1,1.21 0.144,0.164 0.774,0.106 1.31,0 -1.326,0.501 -0.261,1.569 -1.008,2.62 -0.165,-0.829 0.07,-2.266 -0.907,-2.217 -0.654,0.03 -1.172,0.268 -1.714,0.605 -0.418,0.259 -2.288,1.055 -2.62,1.108 -0.565,0.302 -1.14,0.684 -1.613,1.109 -0.52,0.467 -1.286,0.227 -1.814,0.706 -0.917,0.834 -2.007,2.197 -1.815,3.527 0.493,-0.1 0.958,-0.242 1.311,-0.504 1.058,-0.784 1.643,-2.061 3.225,-2.318 -0.543,0.163 -0.975,0.494 -1.209,1.008 1.648,-1.067 4.653,1.322 5.745,-0.907 -0.297,1.748 -3.064,1.065 -4.234,1.008 -1.284,-0.06 -2.446,0.507 -3.527,1.209 -0.759,0.494 -1.456,1.078 -2.117,1.613 1.248,-0.201 2.483,0.148 3.729,-0.101 -0.234,0.111 -6.521,0.742 -4.838,1.815 0.197,0.125 0.353,0.232 0.605,0.302 -2.764,1.43 4.098,2.035 1.31,1.31 1.874,0.44 3.826,0.643 5.141,-1.008 -0.338,0.596 -0.21,0.911 0.101,1.008 -0.63,0 -1.234,0.109 -1.411,0.807 0.429,-0.158 1.83,-0.723 2.217,-0.303 0.709,0.771 -0.921,1.297 -1.31,1.613 2.848,-0.582 4.717,-0.802 6.652,-3.225 -0.797,2.981 -4.939,3.346 -7.358,3.527 0.375,0.562 1.201,0.08 1.714,0.202 -0.837,0.153 -1.665,0.148 -2.218,0.907 0.923,-0.07 3.195,-0.51 3.226,0.504 0.831,-0.613 1.847,-2.152 3.023,-2.016 -0.956,0.154 -1.427,1.107 -1.915,1.814 0.93,-0.148 1.841,0.61 2.722,0.101 0.708,-0.409 1.308,-0.9 2.016,-1.31 0.862,-0.5 0.872,-1.008 1.411,-1.714 0.35,-0.457 0.878,-0.647 1.31,-1.007 0.261,0.394 -2.211,2.921 -2.822,3.225 -0.488,0.243 -0.971,0.37 -1.411,0.705 -0.203,0.155 -0.563,0.811 -0.605,1.008 0.109,-0.06 0.345,-0.241 0.705,-0.604 -1.029,1.458 0.959,0.608 1.412,0.302 0.815,-0.55 1.783,-0.579 2.721,-0.706 -0.452,0.181 -3.309,0.587 -3.024,1.412 0.208,0.603 -1.512,2.493 -2.116,2.62 -0.659,0.138 0.458,1.632 0.907,1.714 0.711,0.13 1.47,0.01 2.116,-0.303 0.637,-0.314 1.339,-1.662 1.21,-0.1 0.115,-0.603 0.3,-1.522 1.008,-1.714 0.693,-0.189 1.765,-0.687 0.907,-1.512 1.957,0.554 -1.007,1.554 -1.109,2.218 -0.133,0.866 -1.341,1.398 -0.605,2.318 0.185,0.23 0.482,0.197 0.807,0.101 -0.754,0.295 -1.531,0.561 -2.016,1.31 0.924,-2.173 -1.258,-1.451 -0.806,-0.302 0.407,1.035 1.732,1.53 2.519,0.705 0.889,-0.933 2.246,-1.153 3.327,-1.814 -1.636,1.232 -2.424,3.696 -0.605,2.923 -1.103,0.417 -2.439,0.605 -2.318,1.814 0.27,-0.08 0.548,-0.189 0.806,-0.302 -0.554,0.246 -1.036,0.668 -1.31,1.209 0.762,0 1.865,-0.502 2.419,0.605 l 185.358,-0.202 0.303,-3.83 c 0.609,-0.651 2.086,0.484 1.814,1.815 -0.209,1.021 -1.066,2.368 -0.907,3.427 0.179,1.191 5.153,0.48 4.435,2.015 1.714,0.536 2.941,-0.883 4.536,-0.907 1.199,-0.02 2.289,0.753 3.427,1.008 -0.367,0.584 -0.03,0.968 0.604,1.008 -0.498,0.543 0.05,1.875 0.504,1.21 0.45,-0.657 0.707,-0.829 1.512,-0.303 0.619,0.404 1.02,0.943 1.814,1.008 -0.135,0.342 -0.1,0.773 0.303,0.907 1.944,0.651 4.051,-1.29 5.947,-1.31 -0.764,1.392 1.641,1.162 2.318,1.109 1.626,-0.127 2.545,0.894 4.132,0.806 3.688,-0.206 4.93,-4.818 8.669,-4.536 -0.799,0.518 -1.217,1.397 -2.016,1.915 2.19,-0.486 2.801,-2.812 4.535,-3.93 1.371,-0.884 1.666,0.411 0.504,1.108 -0.757,0.454 -1.741,0.882 -2.015,1.815 0.747,-0.261 1.114,-1.064 1.915,-1.21 0.87,-0.158 1.765,-0.461 2.217,-1.31 0.475,-0.893 -0.237,-2.533 1.613,-2.218 0.831,0.142 3.285,1.131 3.83,1.714 0.35,0.374 1.397,0.06 1.814,0 0.744,-0.109 1.126,0.193 1.815,0.302 1.704,0.273 3.092,-0.285 2.822,2.218 -0.128,1.194 -1,3.111 0,4.132 1.587,1.623 4.733,0 6.652,0.302 -0.543,0.966 -2.9,2.665 -1.915,3.831 0.854,1.012 1.463,1.309 0.504,2.519 -0.311,0.394 -2.144,1.576 -1.31,2.016 0.432,0.229 1.723,0.401 1.612,1.109 -1.205,-0.232 -2.466,2.012 -1.108,0.806 -0.249,0.83 -1.162,1.085 -1.411,1.915 0.834,0.218 4.402,-0.318 2.318,1.311 0.986,0.721 2.276,0.28 3.326,0.806 1.236,0.618 2.662,0.806 4.032,0.806 1.652,0 3.297,-0.295 4.939,0.101 0.877,0.211 3.4,0.05 2.318,1.21 0.464,-0.325 0.968,-0.551 1.512,-0.706 -0.27,0.209 -0.549,0.381 -0.807,0.605 1.746,-0.35 0.208,0.548 -0.201,0.706 1.156,-0.639 2.599,0.47 3.628,-0.504 -0.91,1.232 0.691,0.346 1.512,0.604 0.471,0.148 0.943,0.477 1.008,1.008 0.08,0.689 -0.246,2.487 1.008,1.714 0,0.566 -0.816,2.005 0.101,2.318 0.45,0.154 1.072,-0.156 1.31,-0.504 0.268,0.722 -0.804,0.918 -0.605,1.411 0.254,0.632 0.42,1.047 -0.504,0.907 0.371,0.892 1.097,1.596 1.109,2.621 0.268,-0.137 0.548,-0.252 0.807,-0.403 -0.679,1.726 -2.491,-0.615 -2.923,0.604 -0.387,1.089 0.02,2.413 -1.512,2.722 -1.969,0.399 -2.938,-3.136 -4.939,-1.109 0.223,-0.512 0.549,-1.016 0.806,-1.512 -0.521,-0.199 -1.073,-0.141 -1.512,0.202 0.516,-0.33 0.91,-0.776 1.21,-1.31 -1.686,0.461 -0.907,-1.182 -1.109,-1.815 -0.275,-0.865 -1.686,-1.032 -2.419,-1.108 2.151,2.207 0.829,5.426 -1.31,7.055 -2.144,1.632 -3.766,3.732 -4.738,6.249 -1.22,3.161 -3.136,4.474 -6.35,5.645 -1.93,0.703 -2.249,3.979 -4.233,4.132 2.891,2.557 -1.32,1.713 -3.024,1.915 -1.111,0.132 -2.594,2.03 -1.108,2.722 0.987,0.46 2.262,-0.744 2.923,0.504 1.102,-1.381 2.972,-2.447 4.737,-2.621 1.559,-0.155 2.672,-1.642 3.931,-2.419 3.339,-2.062 7.148,0.457 10.684,-0.101 -0.775,-0.07 -1.574,-0.152 -2.318,-0.403 1.663,-1.496 3.695,-1.913 5.846,-2.217 1.845,-0.261 3.788,0.422 5.543,-0.404 -1.224,-0.958 0.09,-2.036 0.303,-3.124 -1.215,0.173 -6.464,1.499 -3.831,-1.109 1.653,-1.637 3.897,-3.113 6.149,-3.729 2.889,-0.789 5.94,-0.856 8.87,-1.411 0.738,-0.139 4.43,0.192 3.931,1.31 0.742,-0.291 1.526,-0.496 2.318,-0.605 -1.831,-0.01 0.242,-1.159 0.705,-1.512 -0.5,0.156 -1.004,0.371 -1.511,0.504 0.472,-1.348 -2.788,-0.614 -3.327,-0.504 0.865,-0.258 1.727,-0.559 2.621,-0.705 0.481,-0.08 2.986,-0.234 1.109,0.604 1.087,0.156 1.928,-0.663 2.923,-0.907 0.949,-0.233 1.919,-0.294 2.822,-0.705 1.912,-0.869 3.752,-1.597 5.544,-2.722 1.803,-1.133 5.656,-2.856 7.761,-3.326 l 21.267,0.202 c 1.787,0 0.901,0.138 1.915,-1.512 0.784,-1.278 2.211,-0.794 3.427,-1.512 0.122,0.239 0.184,0.465 0.302,0.706 0.176,-0.08 0.989,-0.576 1.008,-0.807 0.06,-0.741 0.522,-0.08 0.807,-0.504 0.669,-0.987 0.898,-1.549 2.016,-2.217 1.759,-1.051 2.391,-1.89 3.225,-3.73 0.543,-1.198 1.613,-1.545 2.52,-2.419 1.151,-1.109 1.785,-2.706 3.024,-3.83 1.107,-1.005 2.179,-1.855 3.427,-2.923 0.368,-0.315 2.89,-2.859 3.326,-2.116 0.323,0.551 -0.01,1.346 0.504,1.915 1.046,1.151 4.328,-1.553 5.745,-0.605 2.88,1.926 0.132,5.881 -0.806,8.366 -0.496,1.315 -2.824,4.504 -1.21,5.543 0.81,0.522 1.404,0.453 0.806,1.311 -0.528,0.758 -1.21,2.132 -0.302,3.023 0.757,-0.484 1.737,-1.166 1.613,0.101 1.173,-0.76 0.831,0.498 1.713,0.706 0.959,0.227 1.824,-1.123 2.722,-0.605 0.468,0.27 1.401,-0.727 2.015,-0.806 0.765,-0.1 0.857,-0.449 0.303,-1.008 0.679,-0.203 1.267,-0.678 1.814,-1.109 -0.255,0.579 -0.644,1.083 -1.109,1.512 1.259,1.56 4.724,-0.897 5.947,-1.512 1.079,-0.543 3.204,-0.666 4.032,-1.411 1.507,-1.355 1.678,-1.585 1.814,-3.427 0.106,0.781 0.405,1.597 0.706,2.318 0.396,-0.401 0.949,-0.622 1.512,-0.605 -1.565,0.705 -2.833,1.934 -4.334,2.722 -0.355,0.186 -1.146,0.484 -1.311,0.907 -0.262,0.673 0.346,1.11 0.907,0.605 1.104,-0.994 3.005,-0.616 4.335,-0.504 1.717,0.145 3.444,-0.09 5.14,0.302 -1.543,0.989 -6.994,-0.06 -6.249,3.125 -0.555,0 -0.208,-1.81 -1.411,-0.907 0.358,-0.465 0.419,-0.968 0.201,-1.512 -3.272,1.929 -7.974,1.775 -10.482,4.939 0.48,-0.145 1.032,-0.259 1.512,-0.404 -0.841,0.365 -2.13,1.835 -2.419,0.504 -1.242,0.824 -2.618,1.382 -3.629,2.52 0.94,-0.535 1.801,-1.741 3.024,-1.512 -1.734,1.286 -5.99,4.839 -3.931,7.459 0.433,-0.279 0.776,-0.615 1.109,-1.008 0.167,0.348 0.197,2.096 0.504,2.218 0.625,0.25 1.405,-0.292 1.512,0.705 0.26,-1.111 1.544,-0.976 1.511,-2.318 0.238,0.149 0.463,0.264 0.706,0.403 0.153,-0.259 0.269,-0.537 0.403,-0.806 0.437,2.051 2.722,-0.814 3.326,-1.311 0.933,-0.767 3.928,-2.081 3.931,-3.326 0.264,0.1 0.544,0.206 0.807,0.303 0.111,-0.924 1.994,-3.357 1.814,-1.512 0.706,-0.07 0.547,-0.303 0.504,-0.807 -0.05,-0.612 1.123,-0.88 1.512,-1.008 -1.532,1.361 2.945,3.281 2.016,-0.1 0.768,1.632 3.096,-0.07 4.233,-0.101 1.867,-0.05 4.003,-1.093 5.644,-1.915 1.681,-0.841 3.967,-1.815 5.846,-2.016 1.068,-0.114 3.484,-0.04 3.831,-1.411 -0.845,-0.265 -1.74,0.316 -2.319,-0.605 1.688,0.06 1.215,-2.241 0,-2.318 -0.625,-0.04 -1.04,1.023 -1.713,0.403 -0.506,-0.466 -0.593,-1.331 -0.907,-1.915 -1.496,1.215 -4.009,2.106 -5.947,2.016 0.234,-0.436 0.623,-0.714 1.109,-0.807 -0.994,-0.64 -2.134,-0.36 -3.226,-0.403 -0.88,-0.04 -1.327,-0.672 -2.116,-0.806 -1.551,-0.264 -2.318,-0.18 -3.629,-1.512 0.816,-0.168 1.698,-0.163 2.318,-0.806 -1.207,-0.537 -2.529,-0.676 -3.83,-0.807 -1.721,-0.174 -0.152,-1.257 -1.613,-0.907 1.489,-0.616 0.234,-3.744 0.605,-5.04 0.08,-0.267 1.365,-1.384 0,-1.411 -1.017,-0.02 -1.792,0.419 -2.822,0.101 3.159,-1.141 4.17,-3.819 6.753,-5.543 -1.294,0.589 -0.422,-0.519 -1.411,-0.706 -0.563,-0.106 -1.172,0.06 -1.714,0.202 -1.254,0.334 -2.527,0.809 -3.628,1.511 -0.07,-2.294 -0.436,-2.264 -2.52,-3.023 -0.758,-0.275 -1.278,-0.607 -2.117,-0.504 -0.794,0.1 -1.378,0.6 -2.217,0.302 1.272,-0.162 2.203,-1.05 3.528,-1.008 0.969,0.03 2.178,-0.397 3.024,-0.302 1.672,0.188 2.97,1.893 4.737,1.008 2.392,-1.196 4.428,-2.461 6.955,-3.326 0.721,-0.247 1.618,-1.283 1.411,-2.117 -0.216,-0.41 -0.55,-0.736 -1.008,-0.806 1.139,-0.223 -1.195,-0.617 0.504,-0.504 0.433,0.08 0.896,0.15 1.31,0.302 0.921,-2.103 -3.939,-3.536 -5.241,-3.729 -2.291,-0.34 -4.699,-0.05 -6.955,0.403 -2.438,0.487 -4.621,1.397 -6.955,2.217 -2.281,0.803 -4.594,0.86 -6.854,1.814 -4.837,2.042 -10.523,4.7 -14.413,8.266 -2.059,1.888 -4.518,3.707 -6.854,5.241 -2.341,1.537 -5.056,2.183 -7.66,3.124 1.491,-0.909 3.002,-1.72 4.435,-2.721 1.204,-0.842 2.517,-2.698 3.83,-3.225 2.892,-1.16 5.258,-2.989 7.055,-5.645 -0.329,-0.07 -0.497,-0.276 -0.705,-0.504 0.263,0.154 0.589,0.383 0.705,0.403 0.815,0.143 2.03,-1.005 2.621,-1.411 2.026,-1.393 3.341,-3.506 5.644,-4.535 1.114,-0.498 4.099,-1.539 4.234,-3.024 0.238,0.462 0.129,0.903 -0.303,1.209 0.46,-0.302 0.965,-0.466 1.512,-0.403 -0.968,-1.364 3.186,-1.627 4.133,-1.713 1.485,-0.134 2.671,-0.519 3.628,-1.714 1.286,-1.61 5.034,-6.414 7.56,-5.14 -0.842,-1.694 1.765,-0.48 2.318,-0.706 1.697,-0.691 3.33,-0.641 5.14,-0.806 2.784,-0.254 6.24,0.943 8.971,0.201 1.655,-0.448 3.049,0.952 4.637,0.404 1.494,-0.515 2.833,-0.598 4.434,-0.504 1.544,0.09 3.09,0.422 4.637,0.504 0.61,0.03 0.59,0.81 1.109,0.806 0.425,-0.08 0.809,-0.242 1.209,-0.403 -0.431,0.288 -0.828,0.514 -1.31,0.705 2.466,-0.25 4.428,-0.992 6.955,-0.907 0.98,0.03 1.843,-0.333 2.822,-0.201 0.763,0.103 1.471,0.194 2.217,-0.101 0.909,-0.359 1.265,-1.405 2.218,-1.613 0.491,-0.107 1.169,-0.05 1.512,-0.504 1.133,-1.487 3.149,-1.855 4.535,-3.024 -0.13,1.33 0.456,0.512 0.706,-0.101 0.466,-1.141 -0.144,-0.825 1.008,-1.209 0.688,-0.229 1.481,-0.762 2.116,-1.109 0.492,-0.269 -0.291,-0.583 0,-0.806 1.076,-0.823 2.705,0 3.931,-0.302 1.404,-0.34 2.619,-1.196 4.032,-1.512 1.443,-0.322 2.693,0.654 4.133,0.201 1.523,-0.478 2.692,-1.671 4.132,-2.318 1.513,-0.681 3.003,-1.209 4.334,-2.218 0.543,-0.412 1.108,-0.929 1.815,-1.007 -0.278,-0.533 -0.223,-0.985 0.201,-1.412 -0.792,-0.321 -1.484,-0.778 -2.217,-1.209 0.974,0.396 2.062,0.178 3.023,0.605 0.364,-1.707 -3.685,-1.66 -4.636,-1.915 1.093,0.06 3.277,0.711 3.024,-0.504 0.697,0.15 1.636,0.88 1.814,-0.303 -0.734,0.07 -1.577,-0.02 -1.713,-0.907 2.272,0.12 2.693,-1.111 0.504,-2.016 1.126,-0.04 2.416,0.06 3.023,-1.108 0.399,-0.765 0.102,-2.069 -1.008,-1.714 0.449,-0.99 -1.248,-1.608 0.303,-1.713 -1.114,0.145 -2.735,-0.09 -3.629,-0.807 0.605,0.221 1.076,-0.127 1.311,-0.705 -0.91,0.862 -2.137,-0.09 -3.125,0.504 -0.902,0.54 -1.524,1.794 -2.721,1.713 0.584,-1.029 -0.384,-0.827 -1.109,-0.806 1.171,-0.752 2.544,-1.086 3.729,-1.814 -0.894,-0.647 -0.35,-2.434 -1.109,-2.823 -0.624,-0.32 -1.454,-0.09 -2.116,-0.201 -0.969,-0.167 -3.789,-1.089 -3.931,0.604 0.997,-0.08 1.95,-0.261 2.923,0.101 -0.917,0.433 -1.96,0.196 -2.923,0.403 -1.054,0.227 -2.109,0.552 -3.125,0.908 -1.133,0.397 -2.781,2.211 -3.83,2.116 -0.931,-0.08 -1.611,0.701 -2.419,1.008 -0.839,0.318 -2.092,0.03 -2.721,0.807 -0.773,0.959 -3,2.009 -4.234,1.612 0.51,-0.09 1.015,-0.255 1.512,-0.403 -2.035,-0.178 0.882,-1.134 1.411,-1.109 -0.305,-1.01 -1.504,-1.441 -2.419,-1.713 -0.892,-0.266 -2.224,-0.172 -1.411,-1.411 0.271,0.469 3.075,2.23 3.528,2.116 1.529,-0.386 2.069,-2.13 4.032,-2.015 2.803,0.162 7.569,-1.517 9.777,-3.226 -0.889,0.229 -8.044,2.63 -8.165,1.31 2.853,0.452 5.526,-1.037 8.265,-1.511 1.094,-0.19 1.877,-1.063 3.024,-1.21 1.305,-0.167 2.587,0.118 3.73,-0.706 -0.482,-0.01 -0.934,0.04 -1.412,0.101 0.901,-0.419 2.073,0.07 2.52,-1.108 -0.69,-0.808 -1.932,-0.368 -2.721,-1.008 -0.496,-0.403 -2.781,-0.661 -3.427,-0.706 -0.866,-0.06 -2.384,-1.185 -3.125,-0.907 1.451,-0.153 -0.05,-0.894 0.807,-1.714 -1.074,0.04 -1.862,0.927 -2.923,1.008 0.826,-0.354 1.617,-0.952 2.116,-1.713 -2.332,-0.169 -4.242,3.967 -6.45,3.628 1.023,-0.476 1.664,-1.492 2.721,-1.915 0.707,-0.283 1.994,-0.776 1.613,-1.814 -0.65,0.582 -2.186,1.281 -2.923,0.504 0.787,0.152 1.647,-0.402 1.31,-1.31 -1.352,0.883 -2.704,1.668 -4.133,2.419 0.61,-0.682 1.604,-0.941 2.016,-1.815 -1.553,-0.43 -3.461,1.218 -4.636,2.016 0.749,-0.989 2.016,-1.452 3.024,-2.116 -0.526,0.131 -1.032,0.352 -1.512,0.604 0.73,-0.927 2.99,-1.171 3.124,-2.519 -0.54,0.129 -1.045,0.302 -1.512,0.604 0.792,-0.317 0.92,-1.043 0.706,-1.814 -0.07,-0.266 0.975,-0.782 1.008,-1.209 -0.925,-0.222 -1.406,0.88 -2.117,1.209 0.444,-0.407 0.717,-0.91 0.706,-1.512 -0.468,0.52 -1.212,0.89 -1.915,0.706 0.681,0.04 1.095,-0.976 0.504,-0.907 -0.451,0.05 -1.562,-0.02 -1.915,-0.303 0.231,-0.226 0.456,-0.399 0.705,-0.605 -0.495,0.08 -2.623,-0.339 -0.705,-0.806 -1.773,0.811 -0.1,-0.933 0.201,-1.31 -1.191,0.358 -3.013,0.416 -3.931,-0.605 0.247,0 3.588,0.372 1.512,0 2.205,0.17 -1.263,-1.139 -1.512,-1.31 0.901,-0.596 2.428,0.202 3.024,-0.907 -0.96,-0.288 -2.05,-0.104 -3.024,-0.303 0.551,0.01 1.166,-0.04 1.714,-0.101 -1.007,-0.233 -2.304,-0.732 -2.822,-1.713 1.007,0.03 2.019,0 3.023,0.101 -0.793,0.124 -1.646,-0.154 -2.217,0.604 0.565,0.268 4.363,1.606 3.528,-0.1 -0.254,0.148 -0.48,0.316 -0.706,0.504 0.511,-0.948 3.141,-2.417 4.233,-2.117 0.838,0.23 0.158,-1.297 0,-1.512 -0.552,-0.749 -1.667,-0.166 -2.318,-0.806 2.838,-1.174 -1.883,-1.428 -2.318,-1.915 0.659,0.393 3.445,-0.571 3.83,-1.21 0.34,-0.564 -0.484,-0.805 -0.302,-1.31 0.166,-0.463 0.653,-0.862 0.403,-1.411 -0.737,0.458 -1.653,-0.03 -2.117,0.907 0.79,-1.16 -0.535,-0.917 -1.209,-0.806 0.73,-0.337 1.546,-0.344 2.318,-0.504 0.08,-0.797 -0.142,-0.965 -0.806,-0.504 0.197,-0.237 0.314,-0.464 0.504,-0.706 -0.885,0.04 -2.137,-0.07 -2.923,0.403 -0.727,0.436 -1.913,1.308 -2.823,1.008 0.779,-0.626 1.783,-0.86 2.722,-1.109 0.438,-0.116 3.151,-0.879 1.31,-1.108 1.404,0.203 1.348,-0.84 2.016,-1.714 -1.224,0.08 -2.562,0.136 -3.629,0.807 2.155,-1.242 -1.95,0.219 -2.318,0.201 0.505,-0.08 2.289,-1.078 0.605,-0.907 0.921,-0.243 4.48,-0.349 4.536,-1.713 0.03,-0.621 0.873,-1.114 -0.101,-1.412 -0.601,-0.183 -1.184,0.273 -1.814,0.101 0.696,-0.03 2.177,-1.58 0.503,-0.705 0.425,-0.444 0.924,-0.828 1.512,-1.008 -1.413,-0.141 -3.926,-0.299 -5.039,0.806 -0.1,-0.254 -0.101,-0.533 -0.101,-0.806 1.827,-0.09 3.163,-0.09 4.334,-1.714 -0.446,0.339 -0.951,0.507 -1.512,0.504 0.578,-0.07 0.906,-0.432 0.907,-1.008 -0.586,0.02 -1.091,0.197 -1.512,0.605 0.331,-0.79 -0.231,-1.013 -0.907,-1.109 0.84,-0.09 1.717,-0.08 2.218,-0.907 -0.503,-0.402 -1.008,-0.402 -1.512,0 0.69,-0.867 0.58,-1.035 -0.303,-0.504 0.228,-0.23 0.399,-0.455 0.605,-0.705 -1.529,0.231 -0.123,-2.522 0.605,-2.621 -0.954,-0.08 -1.6,0.75 -2.52,0.806 0.417,-0.591 0.556,-0.995 1.21,-1.411 -0.878,0.304 -1.785,0.564 -2.722,0.605 0.605,-0.18 4.185,-1.682 2.318,-1.31 1.826,-0.831 -0.351,-0.774 -0.806,-0.605 0.489,-0.209 0.987,-0.324 1.512,-0.403 -1.552,-1.252 -3.071,1.106 -4.133,1.915 -0.543,0.414 -2.393,1.702 -1.511,2.217 -1.2,-0.208 -2.73,-0.704 -3.125,1.008 -0.233,1.008 1.41,1.239 1.613,2.117 -0.823,-0.618 -1.68,-0.525 -2.621,-0.806 0.428,0.595 0.216,1.818 -0.706,1.108 0.201,0.937 -0.877,1.389 -1.511,0.706 -0.986,1.341 0.803,1.289 1.511,1.814 -0.628,-0.195 -1.467,-0.03 -2.116,0 -0.419,0.02 -3.378,1.32 -1.411,1.512 -0.475,0.153 -1.443,-0.188 -1.815,0.202 -0.699,0.732 0.479,0.877 0.303,1.512 -0.243,0.875 -1.586,2.096 -2.419,2.419 0.494,-0.959 2.873,-3.717 0.101,-4.032 -1.057,-0.12 -1.92,1.582 -2.52,2.217 -0.622,0.656 -1.198,0.283 -2.016,0.504 -0.997,0.27 -1.965,0.836 -2.923,1.21 -2.075,0.808 -3.186,1.622 -4.637,3.326 0.531,-1.375 2.391,-2.566 1.815,-4.233 -0.962,1.017 -1.834,2.479 -3.327,2.721 0.903,-0.715 2.457,-1.364 2.722,-2.621 0.443,-2.106 -1.991,0.111 -2.419,0.605 -0.342,0.394 -0.69,0.682 -1.008,1.008 -0.86,0.882 -1.733,1.617 -3.125,2.016 -1.898,0.544 -3.807,0.978 -5.644,1.713 2.374,-1.568 6.598,-1.682 8.769,-3.729 0.724,-0.682 1.291,-1.588 1.411,-2.822 0.275,-2.811 -0.951,-2.602 -3.528,-2.52 -2.201,0.07 -3.783,2.153 -5.947,2.318 0.216,-0.241 0.489,-0.566 0.706,-0.806 -0.757,0.27 -1.401,-0.41 -2.117,-0.504 1.242,0.112 3.447,-0.297 3.226,-2.016 1.04,0.262 0.434,1.198 0.604,1.915 0.683,-0.449 3.777,-2.53 2.117,-2.923 0.615,-0.465 1.344,-0.777 2.117,-0.504 0.275,-1.44 -1.568,-0.763 -2.318,-1.008 0.645,-0.231 0.502,-0.575 0.604,-1.108 0.09,-0.463 0.89,-0.604 1.21,-0.807 0.287,-0.182 0.878,-2.123 0.806,-2.52 -0.132,-0.731 -2.535,-0.607 -3.024,-0.604 -1.633,0.01 -2.848,-0.32 -4.435,-0.605 1.248,-0.248 2.483,0.419 3.73,0.403 0.714,0 3.906,0.19 3.427,-0.302 2.733,0.31 2.082,-4.273 4.435,-5.342 0.707,-0.322 1.718,-0.316 2.116,-1.109 0.378,-0.754 -0.236,-2.19 -1.108,-1.008 -0.683,0.925 -2.01,1.609 -3.327,0.907 2.542,-1.712 -2.062,-1.272 -2.318,-1.411 -0.698,-0.378 -1.538,-0.586 -2.318,-0.706 -1.01,-0.155 -1.714,0.55 -1.714,-0.604 -0.94,0.678 -1.362,-0.472 -1.411,-1.21 0.55,0.148 1.055,0.04 1.512,-0.302 -0.519,0.04 -1.025,-0.02 -1.512,-0.202 0.801,-0.509 1.634,-0.707 2.52,-1.008 -0.515,-1.691 -1.833,-0.661 -3.024,-0.403 0.634,-0.32 0.971,-1.172 0,-1.209 0.191,-0.242 0.309,-0.468 0.504,-0.706 -1.761,-0.177 -1.981,-0.345 -3.628,0.202 0.765,-0.419 2.236,-1.139 2.116,-2.218 -1.505,0.681 -1.641,-1.221 -2.721,-1.613 -1.695,-0.617 -2.328,-1.087 -4.132,-0.403 -0.808,0.305 -5.947,1.028 -4.939,2.218 -2.133,-2.013 -4.395,-1.575 -6.854,-0.504 0.456,-0.497 1.105,-0.578 1.612,-1.008 -2.332,0.03 -4.452,-1.331 -6.652,-1.915 -2.318,-0.615 -3.557,0.226 -5.644,1.008 -1.876,0.703 -2.972,1.274 -3.931,3.124 -0.737,1.422 0,2.978 1.512,3.629 -0.875,-0.406 -2.57,1.752 -3.125,2.52 -1.104,1.527 -3.656,1.436 -4.435,3.326 0.474,-0.111 0.925,-0.168 1.411,-0.202 -1.702,0.752 1.194,0.123 1.613,0.101 -0.683,0.574 -1.554,0.894 -2.016,1.714 0.458,0.216 0.91,0.331 1.411,0.403 -0.622,0.28 -1.825,0.372 -2.217,1.008 -0.235,0.383 0.537,1.142 0.403,1.713 -0.165,0.52 -0.449,0.902 -0.907,1.21 0.56,-0.208 1.066,-0.1 1.512,0.302 -0.73,0.281 -1.158,1.745 -1.915,1.814 -0.707,0.06 -1.507,0.187 -1.412,1.109 -0.469,-0.2 -0.92,-0.368 -1.411,-0.504 0.08,0.883 -3.043,2.457 -1.31,2.52 -2.448,0.511 -3.826,2.663 -6.048,3.427 -1.953,0.671 -1.392,1.268 -2.62,2.721 0.711,-0.08 1.636,1.054 1.915,1.613 0.379,0.757 1.171,0.963 1.814,1.411 1.547,1.079 1.98,3.314 1.915,5.04 -0.177,4.732 -3.218,9.445 -6.753,12.397 -3.943,3.293 -8.872,5.761 -13.607,7.661 -2.263,0.909 -4.888,1.881 -7.257,2.419 -1.609,0.366 -3.921,0.272 -5.04,1.713 0.982,0.256 0.491,1.083 0.202,1.714 -0.494,1.078 0.846,1.518 -0.303,1.814 0.497,0.207 1.003,0.428 1.512,0.605 -1.185,0.247 -0.666,0.645 0,1.008 -0.699,0.279 -1.362,1.407 -0.201,1.612 -0.88,-0.331 -1.214,0.739 -2.016,0.807 1.233,0.133 0.575,0.683 0,1.008 1.97,-0.353 -0.82,0.802 -0.605,1.511 0.306,1.009 -0.881,2.417 -1.411,3.226 0.241,0.118 0.467,0.181 0.706,0.302 -0.709,0.426 -0.368,0.842 0.302,0.907 -0.204,0.558 -0.713,0.901 -1.31,0.807 0.247,0.596 0.355,1.265 -0.101,1.814 0.8,-0.113 0.814,0.661 0.605,1.21 -0.268,0.701 -1.188,1.061 -0.303,1.31 -1.403,0.195 -2.257,1.77 -3.528,2.318 -0.465,0.2 -0.871,0.145 -0.705,0.706 0.147,0.495 -1.34,1.098 -1.613,1.31 0.887,0.859 -0.277,1.858 0.907,1.915 -0.883,-0.02 -2.755,1.745 -2.318,2.721 -0.557,-0.194 -0.124,-1.541 -0.101,-2.015 0.07,-1.339 -1.748,-0.823 -0.705,-1.916 -1.753,-0.246 -3.529,1.765 -4.435,3.024 -1.242,1.723 0.767,2.725 0.101,4.536 0.136,-2.178 -1.905,-5.173 -4.334,-4.838 -1.887,0.26 -3.494,2.484 -5.443,2.318 2.446,-1.488 6.516,-2.366 5.644,-5.947 -0.404,-1.657 -1.728,-2.017 -2.822,-3.023 -1.177,-1.081 -1.652,-1.165 -3.326,-0.605 0.666,-0.745 1.692,-0.701 2.52,-1.109 1.17,-0.577 0.19,-2.279 -0.202,-3.024 -0.503,-0.956 -0.93,-1.457 -1.512,-2.318 0.789,-1.154 2.045,-1.962 2.822,-3.125 0.761,-1.138 1.042,-2.327 1.915,-3.427 1.121,-1.414 0.02,-2.757 0.706,-4.132 0.765,-1.527 2.395,-2.586 3.528,-3.83 0.796,-0.874 0.898,-2.228 1.713,-3.024 -0.793,0.354 -1.136,-0.431 -1.814,-0.605 -0.597,-0.153 -2.038,0.123 -2.52,0.504 0.26,-0.221 0.485,-0.446 0.706,-0.705 -0.703,-0.47 -2.094,-0.142 -2.923,-0.303 -0.653,-0.127 -2.01,-1.053 -1.311,0.303 -1.34,-0.342 -1.127,-1.119 -2.721,-0.706 -0.919,0.238 -2.544,0.239 -3.528,0.302 -1.323,0.08 -2.309,-0.525 -3.628,0.101 -1.093,0.519 -1.988,1.399 -3.024,2.016 0.912,-1.249 2.714,-1.703 3.427,-3.124 -1.1,-0.172 -1.404,-1.155 -2.016,-1.916 -0.789,-0.98 -2.302,-1.056 -3.427,-1.411 -1.333,-0.421 -5.436,-2.597 -6.652,-1.814 1.645,-2.076 -0.905,-3.811 -2.218,-5.14 -0.789,-0.8 -0.951,-1.512 -2.117,-1.815 -1.023,-0.266 -2.102,-0.433 -3.124,-0.705 -3.31,-0.882 -5.389,-2.839 -9.072,-2.218 -3.056,0.516 -5.881,1.969 -8.97,2.319 0.82,-0.202 1.593,-0.586 2.318,-1.008 -1.8,-0.124 -3.248,1.332 -5.04,1.209 2.646,-0.692 5.134,-2.439 5.746,-5.241 0.565,-2.59 1.113,-6.046 2.419,-8.366 0.991,-1.761 -0.783,-0.664 -1.714,-1.209 -0.833,-0.487 -2.108,-0.327 -3.024,-0.202 -0.574,0.08 -1.16,0.266 -1.612,0.605 0.09,-0.134 0.213,-0.266 0.302,-0.403 -0.995,0.637 -1.25,-1.255 -2.117,-0.908 0.307,-0.293 0.518,-0.714 0.706,-1.108 -0.447,-0.175 -0.844,-0.29 -1.31,-0.403 0.448,-0.165 1.299,-0.06 1.612,-0.504 0.458,-0.653 1.002,-1.225 1.714,-1.613 1.077,-0.586 1.071,-2.382 1.915,-3.226 0.639,-0.638 5.73,-5.042 4.737,-6.047 0.707,0.29 0.928,0.128 0.605,-0.403 2.322,0.824 4.859,-3.463 6.955,-4.032 0.279,-0.08 1.649,-1.403 1.612,-1.512 -0.345,-1.017 0.867,-0.309 1.411,-0.504 -1.102,-2.35 5.565,-2.241 6.048,-3.931 -0.577,-0.07 -0.843,-0.432 -0.705,-1.008 0.938,0.112 2.36,0.9 2.318,-0.705 1.438,0.961 1.724,-0.812 2.62,-1.109 0.882,-0.291 1.93,-0.75 0.404,-1.21 0.751,0.02 1.967,-0.01 2.015,1.008 0.31,-0.189 0.59,-0.414 0.807,-0.705 -0.259,-0.153 -0.539,-0.266 -0.807,-0.403 0.872,-0.09 2.654,-1.955 3.125,-1.613 0.782,0.568 1.358,-0.747 2.217,0 0.409,0.356 1.281,-0.208 1.613,-0.403 -0.617,-0.41 -3.728,-1.526 -1.008,-1.814 1.636,-0.174 2.777,-0.01 4.435,0.201 1.13,0.146 2,-0.432 3.024,-0.806 0.942,-0.342 1.841,0.02 2.721,-0.605 0.618,-0.44 1.294,-0.902 1.613,-1.613 0.466,-1.035 -1.011,-1.512 0.403,-1.512 -0.723,-0.718 -1.747,-0.264 -2.52,-0.806 -0.439,-0.307 -0.665,-0.918 -1.008,-1.31 -0.513,-0.589 -1.981,-0.162 -3.427,0.302 0.248,-0.106 0.497,-0.325 0.706,-0.504 -1.661,-0.651 -4.321,-0.879 -5.644,-2.117 -0.08,1.851 -2.793,0.494 -2.016,-0.201 0.766,-0.685 2.163,0.267 1.411,-1.512 0.574,3.188 6.947,2.873 9.172,3.528 0.771,0.227 6.356,2.344 6.048,0.302 0.765,0.09 1.516,0.638 2.318,0.504 0.671,-0.111 1.106,-0.746 1.713,-1.008 0.832,-0.359 0.784,-2.562 2.319,-1.31 0.337,-0.488 0.337,-0.939 0,-1.411 0.424,-0.271 0.916,-0.247 1.31,-0.403 -0.112,0.124 -0.203,0.267 -0.302,0.403 0.503,0.254 0.985,0.722 1.007,1.31 0.06,-1.378 1.795,-0.32 2.42,-0.101 -0.08,-0.479 -0.08,-0.932 0,-1.411 0.568,3.26 7.373,-0.333 8.769,-1.209 1.709,-1.072 3.679,-2.866 5.644,-3.327 1.522,-0.357 3.57,-1.477 4.536,-2.721 1.242,-1.6 -2.774,-1.434 -3.427,-1.411 -2.212,0.08 -4.252,-0.201 -6.451,-0.403 -0.388,-0.04 -1.351,-1.391 -1.512,-1.714 -0.644,-1.294 -1.482,-1.839 -2.923,-2.116 -1.194,-0.23 -2.71,-0.778 -3.931,-0.605 -1.14,0.162 -0.158,0.917 -2.016,0.201 1.216,-1.465 4.462,0.09 6.048,-0.1 -1.697,0.338 0.711,0.465 1.209,0.504 0.496,0.04 1.471,0.123 1.915,-0.202 -0.306,-0.263 -0.641,-0.437 -1.008,-0.605 2.587,-0.07 4.547,2.057 7.157,2.319 -0.744,0 -1.478,0.09 -2.218,0 1.59,0.794 2.205,2.4 4.133,2.318 2.009,-0.09 3.503,-0.145 5.241,-1.21 1.718,-1.052 3.738,-1.336 5.342,-2.62 1.414,-1.13 3.362,-1.286 4.838,-2.319 -0.648,-1.281 -2.894,-0.573 -3.225,-2.015 0.575,-0.02 0.881,-0.333 0.806,-0.908 1.248,0.423 4.474,0.42 5.745,0 2.331,-0.77 1.78,0.111 1.311,1.915 1.551,-0.222 2.945,0.56 4.435,0.807 -0.304,-0.609 -0.312,-1.647 0.705,-1.512 0,1.201 0.131,0.422 1.008,0.806 0.462,0.203 1.069,0.62 1.613,0.504 1.438,-0.306 0.795,-2.292 0.101,-2.923 0.234,-0.154 0.459,-0.268 0.705,-0.403 -1.084,-0.05 -0.838,-0.52 -0.302,-1.008 -0.51,-0.09 -1.016,-0.153 -1.512,-0.302 2.52,0.294 -1.72,-0.713 0.806,-0.605 -1.266,-0.908 -2.421,0.485 -3.729,0.302 1.011,-0.873 2.449,-1.11 3.729,-0.907 -1.949,-0.388 1.262,-0.06 1.613,0 -0.383,0.02 -0.827,0.02 -1.21,0 0.567,0.108 1.075,0.543 1.21,1.109 -1.191,-0.225 -0.974,1.082 0,0.806 0.708,-0.201 1.461,-0.628 2.016,-1.108 -0.218,0.26 -1.854,2.14 -1.915,2.015 0.34,0.701 1.854,0.984 0.705,1.915 2.784,0.1 6.426,-1.505 8.87,-2.62 1.032,-0.471 1.578,-0.285 2.621,-1.008 1.091,-0.756 1.836,-1.275 3.225,-1.31 1.64,-0.04 5.795,-2.433 4.637,-4.536 -0.868,-1.578 -2.668,-2.705 -0.101,-3.83 -0.519,0.116 -1.024,0.111 -1.512,-0.101 0.635,-0.339 1.104,-0.737 0,-1.008 1.295,-0.204 0.64,-0.618 0,-0.907 0.29,-0.179 2.797,-0.852 3.024,-0.706 1.023,0.659 0.594,0.269 1.915,-0.1 1.673,-0.469 4.118,-0.193 4.535,-2.419 -1.291,-0.149 -2.424,-0.472 -3.729,-0.202 1.371,-0.413 5.381,-0.495 5.745,-2.318 -0.864,0.06 -1.677,-0.53 -2.52,-0.605 -0.73,-0.06 -1.289,0.32 -2.015,0.302 1.842,-0.538 -1.041,-1.409 0.907,-1.209 -1.457,-0.647 -3.099,-0.684 -4.637,-1.008 1.03,-0.07 2.469,0.443 3.427,0 0.493,-0.228 0.917,-0.619 1.411,-0.706 -3.061,-0.655 -6.075,-0.473 -9.071,-1.512 -1.309,-0.454 -2.826,0.213 -4.133,0.404 -0.893,0.13 -1.681,-0.338 -2.519,-0.303 0.462,0.213 -1.697,0.737 -1.008,1.915 -0.61,0 -2.198,1.392 -0.605,0.706 -0.6,0.1 -0.915,0.507 -0.605,1.109 -0.266,-0.03 -0.539,-0.08 -0.806,-0.101 -0.162,0.934 0.76,1.301 1.512,1.108 -1.299,0.54 0.54,0.595 1.411,1.109 -0.319,0 -3.453,-0.215 -1.411,0.504 -0.439,0.161 -1.45,-0.316 -1.714,0.202 -0.221,0.434 -0.16,0.623 -0.806,0.403 0.4,0.461 0.844,0.625 1.411,0.403 -1.922,1.949 -4.758,-0.759 -6.451,2.016 -1.665,2.727 -4.915,3.887 -7.66,5.14 -0.79,0.36 -4.119,4.007 -4.637,3.629 -1.292,-0.941 -2.123,0.606 -3.225,1.008 -0.677,0.247 -2.268,1.084 -2.822,0.605 2.14,-1.242 0.01,-2.716 -0.403,-4.234 -0.527,-1.932 2.123,-4.082 3.628,-4.737 -0.18,0.233 -0.344,0.459 -0.504,0.706 2.288,0.537 3.269,-1.396 4.133,-3.125 0.672,-1.346 -1.532,-3.211 -2.52,-3.931 -1.504,-1.094 -3.57,0.917 -4.939,1.411 -0.897,0.324 -1.268,1.125 -1.814,1.815 -0.665,0.84 -1.664,0.557 -2.419,1.209 0.617,0.862 -0.732,1.251 -1.512,1.714 -0.713,0.422 -1.652,1.105 -2.52,1.108 0.387,-0.576 0.531,-1.054 -0.504,-0.806 0.975,-0.108 0.975,-0.229 0,-0.504 0.445,-0.323 0.814,-0.727 1.21,-1.109 0.526,-0.5 2.583,-1.873 1.007,-1.713 2.138,-0.474 0.186,-3.038 -0.705,-3.629 0.52,-0.01 1.025,-0.12 1.512,-0.302 -1.263,1.09 1.357,0.149 1.713,-0.101 0.807,-0.568 2.14,-0.906 3.125,-0.706 -1.416,-1.088 -4.385,-0.5 -6.048,-0.604 0.771,-0.106 1.507,-0.395 2.218,-0.706 -1.54,-1.105 -2.95,1.165 -4.536,0.806 -0.739,-0.167 -0.834,-0.844 -1.512,-1.108 -0.777,-0.302 -1.531,0.06 -2.318,0 0.487,-0.183 0.992,-0.292 1.512,-0.303 -0.504,-0.08 -1.009,-0.08 -1.512,0 2.189,-0.682 4.259,-1.788 6.551,-2.116 -0.596,-0.815 -1.625,-0.725 -2.419,-0.303 1.653,-1.635 4.036,-0.603 6.048,-0.806 -0.364,-0.544 -0.309,-0.996 0.202,-1.411 -0.813,-0.254 -1.406,0.454 -2.218,0.302 0.842,-0.17 1.266,-1.331 0.101,-1.31 1.239,-0.534 0.279,-1.539 -0.706,-1.411 0.141,-0.241 0.258,-0.467 0.404,-0.706 -0.376,-0.138 -0.712,-0.247 -1.109,-0.302 1.258,-0.07 2.511,-1.697 3.024,-2.722 0.72,-1.441 -0.386,-2.274 -1.512,-2.923 0.259,-0.245 0.437,-0.471 0.705,-0.705 -1.433,-0.376 -2.471,-0.294 -3.83,0.302 0.492,-0.379 1.146,-0.929 -0.201,-0.705 0.473,-0.362 0.977,-0.644 1.511,-0.907 -0.436,-0.593 -1.317,-0.785 -2.217,-0.706 z m -222.048,16.228 c 0.244,-0.05 0.621,-0.197 0.706,-0.202 -0.862,0.03 -0.915,0.107 -0.706,0.202 z m 45.861,19.957 c 0.989,-0.16 2.075,0.616 3.024,0.201 -1.977,0.471 0.978,0.436 1.512,0.706 -1.763,1.099 -4.039,0.919 -5.947,1.613 -1.818,0.663 -4.256,1.571 -6.148,1.915 0.624,0.632 3.069,0.815 3.83,0.403 -1.998,0.42 0.283,0.5 0.706,0.403 0.928,-0.213 1.788,-0.07 2.721,0 1.862,0.14 3.817,-0.428 5.644,-0.907 -0.08,-0.137 1.438,-0.907 1.714,-1.008 1.131,-0.411 2.341,-0.635 3.528,-0.806 -1.034,0.246 -0.986,0.409 0,0.403 -1.051,0.209 -2.054,0.786 -3.024,1.209 0.766,0.387 1.532,-0.09 2.318,0 -1.412,0.314 -1.874,1.296 -3.024,1.915 -0.545,0.293 -4.061,0.678 -2.217,1.21 -1.167,0.313 -2.604,1.17 -3.729,1.31 0.662,0.702 1.55,0.367 2.318,0.101 -0.487,0.219 -0.991,0.387 -1.512,0.504 1.995,0.305 -1.535,0.926 -2.117,1.008 -0.766,0.107 -1.859,0.438 -2.62,0.202 -0.783,-0.242 -1.26,-1.189 -2.117,-1.21 -0.78,-0.02 -1.519,0.09 -2.318,0 -0.374,-0.04 -2.662,0.322 -0.807,0.504 -0.964,0.468 -2.079,0.717 -3.124,0.907 -0.782,0.643 0.488,1.164 1.008,1.109 -0.02,1 -1.334,0.964 -2.016,1.008 -1.337,0.08 -2.588,0.755 -3.83,1.209 -1.658,0.606 -3.344,1.13 -5.04,1.613 -1,0.285 -3.102,1.477 -4.133,1.109 -0.934,-0.333 1.046,-1.185 1.21,-1.21 1.252,-0.195 2.325,-0.749 3.528,-1.109 2.285,-0.684 5.373,-1.244 6.753,-3.426 -4.529,-0.791 -7.611,1.726 -11.289,3.729 -2.511,1.368 -7.688,0.8 -10.079,-0.504 1.296,-0.722 2.93,-0.514 4.334,-0.907 1.549,-0.434 0.888,-0.833 1.713,-1.613 0.699,-0.661 2.029,-0.768 2.923,-0.907 1.437,-0.223 2.616,-0.836 3.931,-1.411 -0.276,-0.897 -1.235,-0.904 -1.915,-1.31 2.976,-0.7 6.319,1.212 9.072,-0.605 -0.85,-0.352 -1.156,-1.275 -2.016,-1.613 -0.938,-0.368 -1.961,0 -2.923,0 -2.38,0 -3.374,0.212 -5.342,1.512 0.271,-1.578 -4.466,-0.184 -5.242,-0.806 -0.526,-0.421 -2.22,-0.208 -2.721,0.201 -0.438,0.357 -0.79,0.858 -1.31,1.109 -0.719,0.348 -0.913,-0.678 -1.512,0.302 -1.351,-1.217 0.877,-2.561 2.016,-2.52 1.708,0.06 3.991,0.147 5.644,-0.302 3.356,-0.916 6.607,-1.316 9.878,-1.613 1.227,-0.111 2.417,-0.715 3.729,-0.806 1.942,-0.135 3.682,-0.775 5.544,-1.31 2.228,-0.64 4.553,-0.798 6.854,-1.008 0.879,-0.08 1.751,-0.364 2.62,-0.504 z m 24.292,31.347 c 2.592,-0.123 5.59,0.217 7.66,1.108 -0.51,0.178 -1.014,0.399 -1.512,0.605 0.491,-0.165 0.995,-0.275 1.512,-0.302 -1.067,0.735 -2.453,1.13 -3.73,1.31 0.519,-0.226 1.07,-0.456 1.512,-0.806 -5.358,-2.27 -12.441,-0.814 -17.034,2.519 2.208,-1.065 4.768,-2.229 7.257,-2.318 1.918,-0.07 4.445,-1.626 6.25,-0.504 -0.982,-0.08 -2.77,-0.581 -3.528,0.303 1.229,-0.03 2.552,-0.142 3.729,0.302 -2.259,0.984 -4.775,0.714 -7.156,1.008 0.741,0.426 1.541,0.04 2.318,0 -0.802,0.108 -1.6,0.33 -2.318,0.705 1.686,-0.516 3.398,-0.601 5.14,-0.806 -1.371,0.704 -2.897,0.708 -4.334,1.21 0.504,-0.08 1.008,-0.08 1.512,0 -1.463,0.361 -2.956,-0.172 -4.435,0 -0.588,0.07 -4.217,1.265 -2.419,0.907 -1.481,0.613 -3.044,0.892 -4.435,1.713 0.5,-0.105 1.003,-0.162 1.512,-0.201 -3.033,1.512 -6.201,3.04 -9.374,4.233 -2.625,0.987 -4.854,0.587 -7.458,1.109 -1.615,0.324 -2.172,0.87 -3.125,2.116 -0.916,1.199 -2.761,0.691 -4.032,0.807 -2.913,0.265 -7.224,2.351 -10.079,1.209 -1.974,0.197 -3.304,-1.224 -5.14,-1.31 -0.727,-0.03 -1.668,0.243 -2.319,-0.202 -0.761,-0.521 -0.315,-1.683 -1.411,-1.915 1.008,-0.06 1.544,1.285 2.52,1.109 0.863,-0.156 1.837,-0.06 2.621,-0.504 0.992,-0.559 1.033,-0.962 2.318,-0.605 1.253,0.348 2.307,0.532 3.528,0 -0.118,-0.241 -0.181,-0.566 -0.303,-0.806 0.842,-0.326 1.784,0 2.52,-0.605 0.69,-0.563 1.116,-1.076 1.915,-1.512 1.635,-0.892 2.916,-0.285 4.637,-0.705 1.028,-0.251 3.412,-0.465 2.419,-1.815 -0.526,-0.717 0.457,-2.208 -0.907,-2.015 0.833,-0.251 1.295,-1.092 1.411,-1.915 -0.794,0.339 -2.026,-0.539 -2.218,-1.311 -0.153,-0.615 0.286,-0.838 0.807,-0.806 0.922,0.06 0.253,0.611 0.806,0.907 0.945,0.501 1.982,0.635 2.923,1.31 1.699,1.218 2.008,0.406 3.83,0.605 -0.178,0.232 -0.346,0.459 -0.504,0.706 1.264,0.228 0.854,2.253 2.016,2.217 1.317,-0.04 2.37,0.25 3.729,0 3.265,-0.601 5.961,-0.944 8.971,-2.52 3.212,-1.682 6.37,-3.626 9.979,-4.334 0.732,-0.144 1.554,-0.161 2.419,-0.201 z m -173.264,57.855 c -0.432,0.521 -0.812,1.676 0.302,1.512 -0.596,-0.109 -1.391,0.198 -2.217,0.605 0.668,-0.671 1.265,-1.43 1.915,-2.117 z m 186.669,14.313 c 0.886,-0.05 2.111,-0.13 2.923,0.302 0.644,0.342 1.737,1.505 2.52,0.806 -0.239,0.617 -0.718,6.156 -0.907,6.149 -0.301,0 -2.529,7.118 -2.419,7.862 0.119,0.798 0.42,2.165 -0.303,2.519 -0.825,0.405 0.382,3.413 0.202,4.032 -0.428,1.467 -3.975,3.435 -3.125,5.342 -0.56,0.113 -1.06,-0.578 -1.512,-0.403 -0.589,0.227 -0.825,1.031 -1.108,1.512 -0.558,0.949 -2.172,1.419 -2.117,-0.101 0.06,-1.579 2.064,-3.892 3.225,-4.838 0.882,-0.719 2.347,-1.093 2.823,-2.217 -1.16,-0.09 -1.846,1.095 -2.923,1.31 0.601,-1.068 4.428,-2.587 3.527,-4.133 -0.688,-1.181 -2.862,1.934 -3.729,1.512 0.372,-1.704 2.822,-2.447 1.814,-4.435 -0.437,0.289 -0.989,0.404 -1.512,0.403 0.525,-0.171 0.915,-0.661 1.008,-1.209 -1.262,-0.488 -1.927,1.439 -2.822,1.915 -1.438,0.764 -0.719,-2.762 -0.907,-3.225 -0.258,-0.265 -0.418,-0.556 -0.504,-0.907 0.18,-0.15 0.291,-0.371 0.302,-0.605 -0.252,-0.793 -0.851,-1.438 -0.907,-2.318 -0.13,-2.04 2.617,-1.433 3.629,-2.42 -1.39,-0.22 -2.859,0.02 -3.931,-1.108 1.651,-1.491 4.461,-5.604 6.753,-5.745 z m -192.011,3.527 c 0.411,0.159 0.525,0.604 -0.101,1.512 -0.337,-0.521 -0.284,-1.025 0.101,-1.512 z m 3.024,4.838 c 0.07,1.135 -0.774,1.611 -1.714,2.016 0.778,-0.538 1.382,-1.16 1.714,-2.016 z m -9.072,14.212 c -1.328,0.688 -2.864,0.878 -4.334,0.907 -0.04,0 -0.39,-0.05 -0.705,-0.1 1.716,0.06 3.841,-0.536 5.039,-0.807 z m 356.204,22.578 c 1.732,-0.169 3.685,0.94 5.14,1.613 -0.436,-0.104 -0.883,-0.191 -1.31,-0.404 -1.041,-0.518 -2.49,-0.596 -3.528,0 0.206,-0.253 0.33,-0.531 0.504,-0.806 -0.476,-0.242 -0.981,-0.352 -1.512,-0.302 0.238,-0.08 0.458,-0.08 0.706,-0.101 z"/></svg>