<svg xmlns="http://www.w3.org/2000/svg" viewBox="0 0 2754 1200"><path xmlns="http://www.w3.org/2000/svg" id="cl" class="landxx cl" d="m 771.58,857.29 c 1.585,-0.898 3.479,-0.09 4.11,-2.311 0.291,-1.023 -1.113,-2.525 -0.309,-3.389 0.191,-0.124 0.397,-0.157 0.62,-0.1 0.644,0 1.21,-1.069 1.559,-1.481 0,1.25 1.333,1.804 1.673,2.913 0.331,1.077 0.998,1.482 2.067,1.696 -0.991,0.944 0.461,3.587 0.803,4.579 0.889,2.583 1.406,4.099 3.608,5.88 1.991,1.61 1.111,2.125 0.252,4.159 -0.149,0.354 1.46,1.369 1.454,2.055 0,0.858 -1.326,0.93 -1.867,1.257 1.079,1 0.203,2.076 0.87,3.17 0.332,0.544 1.173,0.395 1.51,0.93 0.46,0.732 -0.08,0.799 0,1.521 0.257,2.19 3.241,3.234 3.485,5.76 0.297,3.059 2.346,5.617 3.205,8.49 0.659,2.198 0.647,4.998 3.787,3.998 3.246,-1.03 3.436,0.99 3.116,3.65 -0.245,2.04 -0.09,5.89 -1.831,7.4 -3.704,1.07 -6.287,2.72 -7.108,5.1 -0.3,0.87 1.247,2.56 1.605,3.47 -2.273,0.1 -0.715,3.7 -0.236,4.75 0.419,0.93 1.065,2.23 1.401,3.19 0.517,1.48 -0.869,1.81 -0.78,3.15 0.124,1.87 3.224,3.3 2.779,4.88 -0.269,0.96 -1.908,1.8 -2.7,1.41 -0.959,-0.48 -1.381,2.27 -1.419,2.74 -0.201,2.51 -1.098,5.65 -3.045,8.36 -1.44,2 0.43,3.51 -0.355,5.73 -0.391,1.1 -1.603,1.18 -1.199,2.58 0.339,1.17 1.171,2.13 1.509,3.29 0.197,0.67 0.423,1.17 0.622,1.84 0.181,0.62 0.529,1.11 0.71,1.66 0.396,1.23 -0.873,3.07 -2.037,1.64 0.839,0.96 0.07,2.86 0.07,3.95 0,0.75 0.469,1.89 -0.27,2.54 -0.542,0.47 -0.588,0.36 -0.647,1.35 -0.101,1.67 1.159,3.37 1.968,4.75 0.394,0.67 0.808,0.45 1.251,1.07 0.384,0.55 0.322,1.37 -0.424,1.03 0.546,1.9 2.468,2.89 2.815,4.83 0.139,0.77 0.519,1.34 1.324,1.74 1.069,0.54 -0.03,1.72 0.181,2.57 0.569,2.25 2.899,0.3 2.871,2.86 -0.02,2.02 -0.271,3.65 0.836,5.41 0.172,0.28 1.071,1.8 0.04,1.87 -0.715,0 -0.79,0.44 -0.936,0.95 -0.237,0.82 -0.381,1.65 -0.517,2.49 -0.165,1.01 0.183,1.93 0.291,2.93 0.147,1.39 -0.6,1.7 -1,1.56 -0.804,-0.27 0.192,0.56 0.593,1.13 1.332,1.9 2.048,3.9 2.298,5.98 0.08,0.68 -0.03,1.07 -0.673,1.15 -0.596,0.1 -0.83,1 -0.846,1.46 -0.06,1.65 -1.478,0.13 -1.896,2.13 -0.185,0.88 -0.106,1.64 0.201,2.53 0.292,0.85 0.326,1.67 0.787,2.47 1.219,2.12 0.983,2.96 1.161,4.34 0.213,1.63 1.676,2.51 2.338,3.93 0.435,0.94 0.835,1.81 1.5,2.63 0.315,0.39 1.033,1.41 0.763,2.04 -0.587,1.37 -2.813,1.27 -2.356,3.19 0.285,1.19 -0.277,4.05 0.589,4.89 -0.996,0.32 -1.706,0.58 -0.825,0.79 0.355,0.1 2.406,4.12 0.32,3.46 0.208,1.11 1.003,1.15 1.278,1.97 0.22,0.65 -0.213,1.61 -0.339,2.21 -0.405,1.91 0.325,3.2 1.651,4.54 1.061,1.07 1.274,3.09 1.378,4.8 0.09,1.47 1.729,2.38 2.511,3.62 -0.577,0.55 -1.735,0.3 -1.943,1.24 -0.183,0.82 1.003,2.13 1.119,3.11 0.131,1.11 0.683,3.4 1.656,4.06 0.879,0.61 2.62,0.19 2.695,1.67 0.06,1.29 -1.88,0.34 0.06,1.92 0.389,0.32 0.968,0.76 1.32,1.15 0.785,0.87 -0.112,0.58 0.139,1.17 0.241,0.57 0.714,0.79 1.048,1.32 0.521,0.82 -0.333,1.35 0.07,2.08 0.518,0.93 0.564,1.7 1.602,1.9 1.4,0.27 3.104,-0.27 4.176,0.85 0.283,0.29 0.1,1.99 -0.172,2.23 -1.026,0.93 -2.766,0.49 -3.918,0.53 -2.507,0.1 0.187,1.06 1.293,1.15 2.513,0.21 6.054,2.75 3.241,4.99 -0.295,0.24 -0.76,-0.1 -0.995,0.31 -0.411,0.63 0.782,1.28 0.92,1.86 0.127,0.53 0.682,0.62 0.976,1.01 0.481,0.63 -0.324,1.9 -1.041,1.93 1.018,0.75 3.861,3.33 3.034,4.79 -0.388,0.69 -0.972,0.86 -0.496,1.81 0.135,0.27 0.01,1.14 0.324,1.28 0.535,0.24 0.702,0.64 0.947,1.19 -1.103,-0.16 -2.018,2.76 -1.963,3.58 0.06,0.95 -0.217,1.85 0.416,2.67 0.547,0.71 3.147,2.1 2.869,3.15 -0.171,0.65 -1.074,0.72 -1.254,1.32 -0.302,1 1.555,2.15 0.693,3.54 -0.45,0.73 -1.375,0.28 -1.682,1.09 -0.396,1.03 -0.08,2.68 -1.959,2.37 0.156,1.02 -0.187,2.38 0.717,2.95 1.17,0.74 1.732,2.26 1.812,3.1 0.113,1.18 2.005,2.02 2.662,2.95 0.637,0.91 1.056,2.2 2.146,2.69 0.749,0.34 1.148,-0.19 1.706,-0.58 0.661,-0.47 1.179,-0.17 1.903,-0.16 1.557,0 1.839,0.16 2.828,1.68 0.688,1.05 -0.252,2.34 0.743,2.92 0.869,0.5 1.536,2.41 0.969,3.24 1.496,0.19 3.482,1.87 4.346,3 1,1.31 5.501,0.51 6.762,0.39 5.592,-0.53 11.252,0.84 17.399,2.96 -1.476,0 -2.815,-0.61 -4.24,-0.87 -2.598,-0.49 -1.282,0.93 -2.09,2.02 -0.712,0.95 -2.142,0 -2.978,0.97 -1.009,1.12 -2.835,0.9 -4.152,1.33 0.873,1.15 0.945,2.6 1.239,3.96 0.287,1.33 1.11,2.07 1.733,3.21 1.659,3.02 -2.296,1.99 -3.803,1.68 -1.809,-0.37 -5.922,-1.51 -6.616,-3.5 -0.697,-2 3.181,-0.85 1.547,0.48 0.93,0 0.641,-1.11 1,-1.6 0.258,-0.35 2.295,1.44 1.3,2.4 1.575,-0.54 -1.296,-2.97 1.665,-3.5 0.511,-0.1 0.624,-1.48 0.625,-1.85 0,-1.02 -1.719,-0.8 -2.29,-1.35 0.04,1.06 -1.492,2.04 -2.23,2.59 -1.253,0.92 -2.372,-0.51 -3.6,0.29 0.894,-0.17 1.593,0.6 2.229,1.08 -0.52,0.11 -1.023,0.1 -1.51,-0.15 0.195,0.54 0.122,1.05 -0.22,1.52 0.909,0.12 1.615,0.76 2.24,1.37 -2.175,0.55 -5.865,-1.81 -7.42,-3.17 1.073,0.51 2.579,0.46 3.74,0.43 -0.187,-0.97 -2.469,-1.04 -2.55,-2.93 -0.05,-1.13 1.932,-1.59 1.55,-0.17 1.261,-0.37 1.449,-0.25 2.331,-1.32 0.894,-1.07 3.255,0.52 4.499,-0.33 -0.798,-1.04 -6.075,-1.79 -6.33,0 -0.709,-0.25 -1.217,-0.56 -0.07,-1.01 -0.678,0 -3.406,0.1 -2.81,1.37 0.482,-0.47 0.986,-0.49 1.51,-0.1 -0.205,0.55 -0.661,0.97 -1.22,1.15 0.374,0.62 1.521,2.15 0.06,2.28 -0.907,0.1 -2.921,-1.07 -1.137,-1.56 -0.894,0.28 -1.586,-0.47 -2.23,-0.94 0.503,0.1 1.007,0.1 1.51,0 -0.275,-0.13 -0.542,-0.27 -0.8,-0.43 0.993,-0.61 -0.117,-1.79 1.23,-1.44 -1.058,-0.39 -1.058,-0.56 0,-0.5 -0.503,-0.17 -1.006,-0.17 -1.51,0 0.53,0.37 0.662,0.97 0.28,1.51 -0.246,-0.51 -0.721,-0.88 -1.29,-0.94 0.03,0.6 -0.321,1.12 -0.86,1.37 0.311,-0.7 0.09,-0.96 -0.65,-0.79 1.633,-1.34 -2.303,-3.8 -2.6,-5.04 0.685,0.77 1.894,1.53 2.962,1.48 0.493,0 2.396,-1.73 1.868,0.25 0.758,-0.45 2.197,0.31 1.08,-1.01 0.391,1.7 -0.65,-0.54 -0.65,-1.37 0.847,0.1 1.589,0.94 2.207,1.44 1.147,0.92 0.426,1.74 -0.267,2.66 0.703,-0.46 1.493,-0.13 2.24,-0.1 -0.982,-0.49 -0.242,-1.67 -1.126,-2.2 -0.54,-0.32 -2.345,-1.69 -0.743,-1.9 -0.974,-0.77 -1.407,-1.98 -2.497,-2.63 -1.167,-0.7 -2.608,-0.72 -3.633,-1.69 -0.189,0.21 -0.332,0.45 -0.43,0.72 0.91,-0.1 5.346,1.06 5.225,2.3 -0.1,1.02 -4.649,-1.35 -5.295,-1.29 0.459,0.63 1.137,0.49 1.697,0.94 0.599,0.47 0.214,1.35 1.184,1.36 -0.37,0.42 -0.61,0.9 -0.721,1.44 -0.676,-0.99 -1.183,-2.2 -2.16,-2.95 0.772,0.99 1.919,2.33 1.87,3.67 -1.114,-0.98 -2.577,-1.38 -3.16,-2.88 0.495,0.37 0.998,0.73 1.51,1.08 -0.39,-0.69 -1.596,-1.13 -1.37,-2.09 -0.467,0 -0.977,0.47 -1.44,0.36 -0.463,-0.11 -0.36,-0.79 -0.945,-0.9 -0.613,-0.1 -1.401,-1.65 -1.505,-2.19 1.264,0.31 2.036,1.41 3.02,2.16 -0.985,-1.12 -1.594,-2.54 -2.73,-3.53 1.564,1.41 0.373,-0.36 -0.36,-0.51 -0.07,0.24 -0.146,0.48 -0.22,0.72 -0.6,-0.15 -1.126,-0.44 -1.58,-0.86 1.011,1.63 -1.391,-1.06 -1.768,-1.39 -0.462,-0.42 0.687,-0.62 0.847,-0.65 0.323,-0.1 0.647,-0.1 0.974,-0.1 1.243,0.1 -1.185,-1.42 0.667,-0.36 -0.648,-0.55 -0.6,-1.68 0.43,-1.66 -0.844,0 -1.775,-0.8 -1.149,-1.65 -0.808,0.72 -0.07,2.24 -0.585,3.1 -0.611,1.01 -3.142,-2.44 -3.665,-2.74 0.545,0.18 1.048,0.45 1.51,0.79 -1.509,-1.36 0.127,-0.36 0.87,-0.43 -0.939,-0.83 -3.007,-0.76 -3.39,-1.94 0,1.67 -1.873,-0.8 -2.88,-0.87 1.022,-2.03 4.292,1.1 5.91,0.87 -1.429,-0.33 -4.382,-1.19 -4.61,-2.96 1.184,-0.1 2.011,1.17 3.24,0.72 -0.773,0 -0.946,-0.54 -0.649,-1.15 -0.706,1.73 -4.189,-0.92 -1.73,-1.37 -0.557,0.14 -2.543,-0.48 -1.407,-1.15 1.496,-0.87 2.629,0.73 3.928,1.15 -0.947,-0.58 -1.995,-1.21 -2.8,-1.72 -0.42,-0.27 -1.116,-0.33 -1.08,-1.01 0.03,-0.66 0.749,-0.8 1.22,-0.51 -0.781,-0.37 -2.175,-3.26 -0.58,-2.44 -0.539,-0.35 -1.042,-0.3 -1.51,0.14 0.378,0.36 0.426,3.28 0.149,3.74 -1.104,-1.08 -2.856,-3 -2.768,-4.64 0.02,-0.38 -1.31,-1.08 -0.694,-1.56 0.459,-0.36 1.562,-0.39 2.092,-0.2 -0.233,-0.17 -3.927,-0.56 -2.579,-1.81 0.563,-0.52 2,0.23 2.579,0.44 -0.604,-0.32 -0.851,-0.92 -0.43,-1.51 -0.497,0.1 -3.338,-0.18 -1.52,-0.8 -1.772,0.81 -2.724,-2.48 -4.46,-1.94 -0.267,-1.93 2.612,0.33 3.09,0.79 -0.33,-0.5 -0.687,-0.98 -1.07,-1.44 1.348,-0.21 2.352,0.46 3.578,0.85 0.521,0.17 1.089,0 1.562,0.33 0.66,0.48 1.493,0.22 2.05,0.69 0.256,-0.44 0.209,-0.85 -0.14,-1.22 -0.309,1.59 -2.715,-0.58 -2.81,-1.44 0.914,0.72 1.982,0.5 3.03,0.79 -0.388,-0.15 -0.789,-0.21 -1.204,-0.2 -0.822,-0.1 -1.211,-0.95 -1.826,-1.38 -0.547,-0.39 -1.051,-0.2 -1.51,-0.79 -0.364,-0.47 -0.111,-1.07 -0.57,-1.52 0.633,0.85 0.838,2.85 -0.802,2.46 -1.397,-0.33 -4.301,-0.1 -5.318,-1.09 0.624,-0.16 0.843,-0.62 0.43,-1.15 1.431,-0.38 2.048,1.31 3.311,1.58 -1.117,-0.21 -0.449,-1.35 0.43,-1.01 -0.159,-1.32 -0.91,0 -1.717,-0.47 -0.554,-0.3 -0.809,-1.04 -1.522,-1.04 -0.734,0 0.304,-3.38 1.51,-1.44 -0.211,-0.59 0,-0.96 0.65,-0.93 -0.09,-0.36 -0.229,-0.7 -0.43,-1.01 -0.126,0.92 -1,1.2 -1.44,0.29 0.47,-0.16 0.95,-0.28 1.44,-0.36 -0.475,-0.66 -1.477,-0.79 -2.126,-1.22 -1.355,-0.88 -1.669,-1.33 -3.274,-0.44 0.577,-0.19 1.154,0 1.51,0.51 -1.201,-0.3 -2.437,-0.52 -3.535,-1.12 -1.928,-1.05 -0.56,-1.52 -1.285,-2.77 -0.699,1.38 -3.512,1.57 -3.601,2.81 1.31,-2.1 3.414,3.17 0.455,0.86 -1.944,-1.53 -0.202,-5.5 2.136,-4.54 -0.696,-0.1 -0.923,-0.57 -0.5,-1.15 1.191,0.93 0.592,-1.28 1.79,0 -0.96,-0.73 0.334,-1.64 -0.79,-2.3 0.653,2.75 -2.789,0.48 -0.72,0.57 -0.743,-0.1 -1.602,-0.3 -1.8,-1.15 0.964,0.35 1.866,-0.61 2.918,-0.41 0.908,0.17 1.082,1.14 1.982,1.2 -1.299,-0.89 0.09,-1.25 0.823,-1.34 0.876,-0.12 0.61,0.99 1.557,1.06 -0.52,0.7 0.594,2.02 0.28,0.5 2.145,0.97 -1.073,2.38 -2.3,1.8 0.825,0.5 3.494,0.93 4.46,0.86 -0.543,-0.25 -0.89,-0.77 -0.859,-1.37 0.621,0.41 1.37,0.61 1.654,1.38 0.306,0.84 -0.585,1.53 -0.145,2.37 1.422,-0.19 1.84,-3.63 1.59,-4.68 -0.236,0.77 -0.423,1.58 -0.94,2.23 0.107,-1.53 -2,-5.39 1.01,-5.33 -0.852,-0.47 -1.715,0.19 -2.16,0.87 -0.152,-0.7 -0.63,-1.59 -0.43,-2.31 0.229,-0.83 1.158,-0.84 1.43,-1.65 0.54,0.65 1.33,0.9 2.054,1.27 0.933,0.48 1.182,-0.53 0.412,-0.46 -0.621,0 -1.006,-0.24 -1.499,-0.55 -0.916,-0.57 -1.941,-0.1 -2.837,-0.55 1.577,-1.18 -2.183,-2.4 0.771,-2.74 2.121,-0.24 3.054,-3.23 1.97,-4.89 -0.748,1.23 -5.327,-1.23 -5.224,-2.42 0.194,-0.24 0.449,-0.26 0.764,0 -1.327,-1.4 1.35,-2.31 0.5,-3.46 -0.238,0.87 -1.031,0.89 -1.066,0 -0.04,-1.19 -0.817,-0.74 -1.348,-1.84 -0.459,-0.96 0.04,-1.34 0.25,-2.17 0.119,-0.48 -0.85,-1.89 0.584,-1.55 0,-0.88 -0.573,-1 -1.052,-1.58 -0.395,-0.48 -0.255,-1.11 -0.562,-1.62 -1.14,-1.88 0.295,-0.79 1.463,-1.05 -1.125,-0.15 -2.283,-1.4 -2.59,-2.45 1.606,-0.57 2.397,0.79 3.17,1.94 -0.162,-1.51 -1.216,-3.03 -1.95,-4.31 -1.462,1.37 -3.563,-0.63 -1.773,-1.81 1.133,-0.75 2.686,-1.3 1.204,-2.73 0.893,3.94 -2.192,1.07 -3.96,0.64 -1.351,-0.32 -0.417,1.82 -1.162,2.31 -1.112,0.73 -5.268,-0.5 -3.019,-1.51 -3.951,-0.1 -4.495,-6.27 -4.926,-8.99 -0.191,-1.2 -0.98,-3.95 -0.427,-5.15 0.554,-1.19 1.377,-0.14 1.134,-1.67 -0.169,-1.06 0.268,-2.07 0,-3.15 -0.406,-1.61 -0.855,-2.49 -1.996,-4.16 -1.161,-1.7 -2.578,-3.26 -3.159,-5.28 -0.358,-1.25 0,-2.13 -0.961,-3.2 -0.642,-0.72 -1.274,-1.38 -1.743,-2.24 -0.39,-0.71 0.149,-1.09 -0.111,-1.63 -0.467,-0.96 -0.985,-1.63 -0.839,-2.76 0.83,0.61 2.326,1.01 2.766,-0.28 0.547,-1.6 -1.098,-2.82 -0.536,-4.4 0.03,0.57 0.37,0.88 0.94,0.86 -0.02,-0.4 -0.109,-0.79 -0.266,-1.16 -0.19,-0.73 0.415,-1.53 0.406,-2.29 -0.02,-1.52 -0.875,-2.52 0.05,-3.96 0.746,-1.16 -0.608,-1.84 -0.05,-3.22 0.424,-1.05 1.227,-2.82 1.373,-3.91 0.355,-2.66 -0.773,-5.46 -0.65,-8.07 0.07,-1.45 1.416,-2.69 1.349,-3.98 -0.06,-1.13 -0.953,-2.45 -1.382,-3.49 -0.363,-0.88 0.205,-2.06 0.539,-2.86 0.361,-0.87 -0.258,-2.28 -0.365,-3.13 -0.08,-0.62 0.299,-1.13 -0.148,-1.7 -0.469,-0.59 -0.894,-1.18 -1.142,-1.9 -0.55,-1.6 -0.774,-3.08 -1.449,-4.67 -1.224,-2.9 -2.579,-6.04 -3.11,-9.15 -0.27,-1.58 0.05,-1.73 1.152,-2.53 0.858,-0.62 0,-2.01 0.59,-2.82 0.552,-0.76 -1.233,-4.95 -1.854,-5.46 -0.781,-0.65 -1.771,-2.51 -1.224,-3.53 0.763,-1.43 0.868,-2.71 1.355,-4.24 0.31,-0.97 -0.401,-2.68 -0.384,-3.75 0.03,-1.73 1.338,-2.78 0.663,-4.54 -1.011,-2.64 0.389,-5.91 0.409,-8.7 0.02,-2.44 -1.5,-4.46 -1.384,-6.77 0.07,-1.33 1.485,-1.56 1.436,-2.84 -0.07,-1.7 -1.292,-3.36 -1.651,-5.04 -0.375,-1.76 -0.08,-3.49 -0.333,-5.24 -0.127,-0.88 -0.452,-1.47 -0.211,-2.39 0.197,-0.74 0.511,-1.5 0.348,-2.29 -0.193,-0.94 -1.609,-0.37 -1.841,-1.4 -0.245,-1.09 0.119,-2.26 0.219,-3.34 1.697,1.52 1.609,-3.44 1.593,-4.173 -0.09,-4.222 0.765,-9.078 -0.806,-13.042 -1.683,-4.246 -0.571,-8.913 -2.157,-13.238 -0.661,-1.801 -1.386,-3.97 -1.714,-5.854 -0.216,-1.184 0.345,-3.592 -1.035,-4.23"/></svg>