<svg xmlns="http://www.w3.org/2000/svg" viewBox="0 0 2754 1200"><path xmlns="http://www.w3.org/2000/svg" id="dk" class="landxx eu dk" d="m 1365.22,213.39 c 0.1,-0.24 0.19,-0.479 0.29,-0.72 0.42,0.462 1.67,1.209 2.31,0.792 0.27,1.211 1.08,0.771 1.28,-0.104 0.48,-2.109 3.45,-1.16 1.88,-0.399 0.65,0.06 1.64,-0.122 1.59,0.863 0.23,-0.906 0.24,-1.321 -0.72,-1.224 0,-0.738 -0.25,-1.836 0.41,-2.394 0.43,-0.276 0.9,-0.386 1.41,-0.331 0.81,0.05 1.27,-0.298 1.98,-0.298 0.86,0 1.4,0.04 2.21,0.361 0.99,0.394 0.69,1.625 1.19,2.373 -1.01,-0.09 -1.96,0.214 -2.88,0.576 0.93,0.02 1.58,-0.694 2.54,-0.284 0.56,0.243 -0.57,1.316 -0.6,1.724 0.25,-1.354 3.85,-0.642 4.56,-0.08 0.6,0.48 -0.6,2.341 -1.21,2.339 -0.62,0 -0.88,-0.06 -1.12,0.691 -0.75,-0.17 -0.89,-0.68 -0.36,-1.225 -1.38,-0.457 -1.32,0.708 -1.38,1.682 -0.1,1.574 -1.3,1.268 -2.43,1.559 0.42,0.04 1.25,0.506 0.76,1.055 -0.61,0.694 -1.88,0.104 -2.64,0.241 0.53,0.19 1.06,0.382 1.59,0.576 -1.26,1.286 -1.82,0.544 -0.97,2.469 0.52,1.166 -1.59,1.133 -1.55,2.283 0.99,-0.111 2.19,0.484 1.94,1.657 -0.73,-0.05 -0.65,-0.786 -1.34,-0.25 -0.74,0.575 -1.55,0.413 -2.35,0.163 -1.1,-0.344 -3.83,-0.112 -3.22,-2.002 -0.58,0.219 -1.03,-0.104 -1.22,-0.647 3.37,0 -0.74,-2.789 -0.94,-3.313 -0.16,1.577 -0.99,0.07 -1.07,-0.632 -0.1,-0.885 0.1,-1.803 -0.1,-2.679 0.1,0.661 1.28,1.855 1.66,0.72 0.18,-0.538 -1.9,-2.831 -1.59,-0.936 -0.61,-1.188 -0.31,-3.385 0.1,-4.609"/></svg>