<svg xmlns="http://www.w3.org/2000/svg" viewBox="0 0 2754 1200"><path xmlns="http://www.w3.org/2000/svg" id="ec" class="landxx ec" d="m 681.94,717.53 c 1.541,0.497 1.571,-1.807 1.484,-2.736 -0.07,-0.747 -0.391,-1.307 -0.644,-2 -0.428,-1.174 0.886,-2.051 0.418,-3.184 -0.511,-1.242 -1.892,-2.9 0.397,-3.124 0.955,-0.09 1.326,-0.477 1.512,-1.405 0.241,-1.207 0.883,-0.93 1.872,-1.08 -1.672,-0.162 -1.842,-2.333 -0.829,-3.347 1.541,-1.542 2.577,-2.628 2.706,-4.928 0.04,-0.656 -0.941,-3.636 -0.322,-4.007 0.692,-0.414 3.387,-2.436 3.414,-0.458 -0.429,-1.188 1.045,-1.728 1.9,-2.02 0.899,-0.308 2.825,-1.511 2.996,-0.361 0.369,-0.936 0.748,-1.932 1.368,-2.736 2.029,1.854 5.128,5.262 8.123,5.242 0.932,0 0.971,1.128 1.864,1.41 1.196,0.378 0.145,2.767 2.224,2.742 1.56,-0.02 2.783,0.739 4.421,0.763 0.541,0 1.725,0.699 1.959,-0.257 0.07,-0.303 -0.48,-0.602 -0.07,-0.802 1.511,-0.742 2.648,0.552 3.516,1.603 1.342,1.624 3.158,1.668 4.822,2.765 -0.87,0.21 -1.729,0.07 -2.592,-0.08 -0.104,0.599 1.778,2.401 2.137,2.883 1.076,1.442 0.297,2.897 1.031,4.607 -0.566,0.08 -1.046,-0.08 -1.439,-0.5 -1.053,5.736 -4.405,10.769 -9.248,14.131 -2.322,1.612 -5.317,2.068 -7.877,3.196 -1.295,0.571 -2.033,1.416 -2.864,2.513 -0.315,0.314 -0.588,0.661 -0.819,1.042 -0.169,0.604 0.198,0.941 -0.289,1.509 -0.49,-2.327 -1.502,2.202 -1.632,2.432 -0.787,1.389 -1.557,3.356 -1.47,4.978 0.104,1.945 -1.316,1.872 -1.8,3.397 -0.496,1.561 -0.391,1.849 -1.877,1.809 -1.797,-0.05 -2.241,-2.039 -2.807,-3.35 -0.73,-1.692 -1.542,-0.376 -2.654,-0.986 -0.778,-0.426 -1.636,-2.032 -2.621,-1.047 -1.337,1.339 -2.74,0.97 -1.338,-0.893 -1.027,-0.146 -1.245,-1.455 -0.493,-2.072 0.448,-0.367 1.256,-0.135 1.752,-0.53 0.788,-0.627 -0.357,-4.5 -1.259,-4.888 1.125,-0.584 2.049,-0.272 2.737,-1.562 0.596,-1.116 0.72,-2.399 1.084,-3.594 0.449,-1.471 0.478,-1.539 0,-2.905 -0.463,-1.309 -0.627,-2.588 0.288,-3.75 -1.617,0.781 -0.587,2.574 -0.827,3.903 -0.393,2.175 -1.892,0.237 -0.325,0.127 -0.784,-0.05 -0.852,-0.709 -0.576,-1.29 -0.523,0.528 -2.34,2.731 -1.944,3.53 -1.187,-0.814 -2.054,-2.102 -3.324,-2.785 -0.888,-0.478 -1.897,-0.749 -2.076,-1.904"/></svg>