<svg xmlns="http://www.w3.org/2000/svg" viewBox="0 0 2754 1200"><g xmlns="http://www.w3.org/2000/svg" id="fj">
		<title>Fiji</title>
		<g id="fj-" class="landxx coastxx fj">
			<path id="path5538" d="m 2638.11,847.14 c 0.24,-0.216 0.48,-0.433 0.72,-0.649 -0.58,0 -0.56,0.199 -0.72,0.649"/>
			<path id="path5544" d="m 2640.49,844.33 c 0.54,-0.339 1.02,-0.749 1.44,-1.23 -0.55,0.329 -1.03,0.739 -1.44,1.23"/>
			<path id="path5536" d="m 2638.54,855.63 c 1.5,0.628 2.85,1.304 4.5,0.74 1.09,-0.375 3.54,-0.768 4.38,-1.486 0.58,-0.498 0.26,-0.629 -0.13,-1.007 -0.19,-0.188 0,-1.335 0.1,-1.691 0.1,-0.928 -0.74,-3.116 -1.84,-2.456 1.35,-1.849 -4.23,-0.253 -4.75,-0.04 -1.61,0.648 -5.97,5.306 -2.24,5.945"/>
			<path id="path5542" d="m 2640.70,864.34 c 0.48,-0.336 0.95,-0.693 1.4,-1.07 0.46,-0.369 1.16,0.217 1.7,-0.08 -0.35,-1.674 -3.5,0.108 -3.82,1.08 0.24,0.02 0.48,0.05 0.72,0.07"/>
			<path id="path5546" d="m 2648.77,852.18 c 0.28,-0.167 0.55,-0.36 0.79,-0.58 -0.73,-0.56 -0.99,-0.367 -0.79,0.58"/>
			<path id="path5548" d="m 2661.15,838.50 c -2.53,-0.134 -4.45,1.764 -6.81,2.121 -1.29,0.195 -2.18,0.967 -3.22,1.694 -0.83,0.585 -2.51,0.253 -2.35,1.725 1.04,-0.18 0.97,0.893 0.93,1.579 1.34,-0.173 4.6,-3.41 5.13,-1.834 0.28,0.841 2.31,-0.227 2.78,-0.363 1.68,-0.487 1.96,-0.658 2.53,-2.413 -0.94,0.419 -2.57,2.812 -3.74,1.95 1.75,-1.308 2.88,-3.288 4.75,-4.459"/>
			<path id="path5550" d="m 2652.29,855.34 c 0.49,-0.57 0.38,-1.341 -0.43,-1.51 0.1,0.527 0.2,1.03 0.43,1.51"/>
			<path id="path5552" d="m 2655.46,859.88 c 0.23,-0.222 0.45,-0.462 0.65,-0.72 -0.59,-0.143 -0.89,0.157 -0.65,0.72"/>
		</g>
			</g></svg>