<svg xmlns="http://www.w3.org/2000/svg" viewBox="0 0 2754 1200"><g xmlns="http://www.w3.org/2000/svg" id="ma">
		<path id="ma-" class="landxx ma" d="m 1207.6,456.891 c 1.42,-0.515 2.97,-0.581 4.43,-0.903 2.71,-0.598 5.47,-1.456 7.52,-3.42 2.01,-1.926 4.1,-3.439 6.2,-5.224 2.01,-1.709 3.55,-3.989 5.17,-6.064 1.09,-1.408 3.6,-5.462 1.48,-6.998 -0.82,-0.594 -1.39,-0.614 -0.87,-1.715 0.52,-1.093 0.47,-2.186 0.53,-3.378 0.16,-3.319 1.36,-4.8 3.39,-7.273 1.16,-1.414 0.84,-2.853 1.33,-4.479 0.35,-1.177 1.32,-2.089 2.2,-2.89 1.88,-1.713 3.37,-3.822 5.73,-4.888 2.57,-1.161 5.3,-2.068 7.75,-3.465 4.86,-2.765 7.19,-9.5 9.03,-14.457 0.18,-0.479 0.82,-2.923 1.56,-2.848 0.91,0.09 1.83,-0.275 2.6,-0.69 0.98,-0.524 1.17,0.773 1.45,1.471 0.55,1.348 1.28,2.264 2.47,3.108 2.48,1.762 4.54,1.269 7.38,0.929 2.35,-0.281 5.34,1.149 6.77,-1.614 0,0.9 0.22,1.124 0.35,1.807 0.13,0.732 1.46,1.102 0.3,-0.08 0.63,0.872 1.75,1.317 2.76,0.814 1.03,-0.513 1.65,0.544 2.28,1.13 0.68,0.629 1.89,0.985 2.3,1.872 0.46,1.014 -0.54,1.943 0.87,2.52 -0.76,0.599 -0.52,1.699 -0.37,2.505 0.23,1.276 -0.2,2.398 0,3.629 0.12,0.989 0.76,1.62 0.51,2.682 -0.37,1.597 -0.19,2.164 0.57,3.569 0.39,0.715 0,1.352 0.43,2.007 0.57,0.974 1.47,1.361 2.32,2.032 1.57,1.237 -3.12,3.291 -0.61,4.24 -2.59,0.664 -11.65,-2.445 -12.98,1.065 -0.69,1.833 -2.5,2.531 -4.46,2.367 -1.48,-0.125 -3.3,1.99 -1.28,2.544 -1.71,1.562 1.43,2.719 0.68,3.46 -0.86,0.847 -2.35,0.541 -3.28,1.214 -0.96,0.706 -2.02,1.764 -3.17,2.159 -0.86,0.298 -1.84,0.272 -2.65,0.726 -1.57,0.879 -2.21,2.722 -3.36,4.012 -1.32,1.479 -3.77,2.057 -5.69,2.133 -1.44,0.06 -3,-0.549 -3.58,1.172 -0.62,1.836 -2.43,0.461 -3.87,0.568 -1.02,0.07 -1.62,0.584 -2.27,1.292 -0.67,0.72 -1.45,0.568 -2.28,0.9 -0.96,0.383 -1.55,1.331 -2.32,1.969 -0.81,0.678 -1.82,1.1 -2.65,1.773 -1.62,1.313 -3.04,1.504 -2.88,3.776 0.16,2.26 -0.1,4.765 -0.33,7.012 l -33.295,0.2355 c 0.325,-0.3805 1.445,-2.1625 1.835,-2.3065 z">
			<title>Morocco</title>
		</path>
	</g></svg>