<svg xmlns="http://www.w3.org/2000/svg" viewBox="0 0 2754 1200"><path xmlns="http://www.w3.org/2000/svg" id="ru" class="landxx eaeu ru" d="m 1537.45,177.43 c -0.37,0.08 -1.21,0.802 -1.36,1.098 -0.17,0.342 -0.17,0.477 -0.44,0.616 -0.43,0.213 -0.49,0.263 -1.01,0.263 -0.28,0 -0.55,0 -0.84,0 -0.24,0 -0.58,0.05 -0.79,-0.09 -0.18,-0.123 -0.49,-0.18 -0.61,-0.307 -0.1,-0.09 -0.1,-0.579 0,-0.659 0.22,-0.219 0.56,-0.301 0.74,-0.484 0.14,-0.132 0.14,-0.528 0.18,-0.571 0,-0.05 0.17,-0.364 0.1,-0.527 -0.19,-0.369 -0.69,-0.609 -0.93,-0.966 -0.23,-0.359 -0.56,-0.918 -0.87,-1.23 -0.24,-0.232 -2.03,-0.179 -2.38,-0.352 -0.1,-0.05 -0.28,0.04 -0.39,0 -0.28,-0.09 -0.57,-0.141 -0.88,-0.22 -0.1,-0.03 -0.26,0.05 -0.35,0 -0.43,-0.216 -0.61,-0.383 -0.92,-0.703 -0.1,-0.08 -0.23,-0.05 -0.31,-0.131 0,-0.02 0,-0.07 0,-0.09 -0.1,-0.08 -0.29,-0.03 -0.35,-0.09 -0.1,-0.07 -0.25,-0.116 -0.36,-0.22 -0.1,-0.07 -0.1,-0.159 -0.17,-0.263 -0.25,-0.629 -0.21,-1.26 -0.62,-1.67 -0.1,-0.1 0,-0.314 -0.17,-0.395 -0.19,-0.09 -0.19,-0.378 -0.27,-0.527 0,-0.03 -0.14,-0.176 -0.13,-0.176 0.52,0 0.78,0.74 1.19,-0.09 0.14,-0.283 -0.23,-0.532 -0.31,-0.615 0,-0.03 0,-0.964 0,-0.967 0.13,-0.131 0.37,0.297 0.39,0.308 0.24,0.116 0.56,0.259 0.84,0.351 0.24,0.08 0.48,-0.135 0.74,0.04 0.16,0.106 0.47,0.42 0.58,0.528 0,0.05 2.53,0.1 2.54,0.09 0,-0.03 0.41,-0.175 0.49,-0.175 0.33,-0.418 0.22,-1.011 0,-1.406 -0.18,-0.273 -0.22,-0.619 -0.44,-0.835 -0.1,-0.09 -0.8,0 -0.92,0 -0.3,0 -0.68,-0.04 -0.97,-0.132 -0.44,-0.147 -0.81,0.143 -1.27,-0.09 -0.1,-0.03 -0.19,0.04 -0.26,0 -0.25,-0.125 -0.92,-0.826 -1.15,-1.054 -0.2,-0.206 -0.55,-0.112 -0.74,-0.307 -0.32,-0.323 -0.92,-0.868 -0.92,-1.45 0,-0.163 -0.45,-0.649 -0.27,-0.835 0.1,-0.07 1.29,0.615 1.54,0.615 0.13,0 0.73,0.391 0.97,0.439 0.5,0.1 2.66,0.819 2.9,1.055 0.1,0.09 0.84,0.177 1.01,0.219 0.38,0.1 0.67,0.288 1.05,0.44 0.15,0.06 0.39,0.02 0.53,0.09 0.1,0.04 0.22,0.155 0.26,0.175 0.28,0.14 0.62,0.09 0.88,0.264 0.14,0.09 0.17,0.211 0.22,0.308 0,0.09 0.36,0.404 0.44,0.483 0.1,0.1 -0.19,1.338 -0.22,1.493 0,0.208 0.1,0.808 0,0.923 -0.16,0.328 -0.45,0.742 -0.3,1.186 0.1,0.274 0.23,0.387 0.35,0.615 0,0.05 0,0.129 0,0.176 0.12,0.247 0.42,0.601 0.66,0.835 0.31,0.311 0.75,0.377 1.14,0.571 0.57,0.287 1.29,1.069 1.71,1.494 0.1,0.09 0.14,0.269 0.22,0.351 0.19,0.187 0.58,0.371 0.75,0.703 0.1,0.212 0.1,1.04 -0.1,1.186 -0.16,0.165 0,0.485 -0.39,0.703 z m -24.68,-0.934 c -0.29,-0.19 -1.7,-0.134 -1.93,-0.249 -0.38,-0.191 -0.7,-0.342 -1.24,-0.559 -0.54,-0.214 -1.08,-0.456 -1.43,-0.807 -0.1,-0.05 -0.2,-0.01 -0.25,-0.06 -0.24,-0.24 -0.53,-0.671 -0.8,-0.808 -0.42,-0.209 -0.82,-0.505 -1.19,-0.87 0,-0.01 -1.37,-0.272 -1.49,-0.311 -0.22,-0.07 -1.08,-0.452 -1.24,-0.372 -0.15,0.08 -0.1,0.32 -0.12,0.435 -0.27,0.53 -0.72,1.009 -1.12,1.615 -0.1,0.132 -0.15,0.06 -0.25,0.124 -0.23,0.152 -0.4,0.387 -0.62,0.497 -0.46,0.232 -1.25,0.25 -1.55,0.559 0,0.04 0,0.218 -0.1,0.249 -0.3,0.303 -0.1,0.353 -0.25,0.683 -0.33,0.672 0.52,1.057 1.12,1.057 0.33,0.238 1.89,0.982 1.93,1.056 0.12,0.237 0.32,0.399 0.43,0.621 0,0.07 0,0.18 0,0.249 0.17,0.248 0.11,-0.145 0.19,0.186 0.22,0.871 0.12,1.358 0.68,1.926 0.23,0.227 0.53,0.263 0.87,0.435 0.17,0.08 0.45,-0.06 0.63,0 0.15,0.05 0.45,0.392 0.62,0.559 0.19,0.196 0.37,1.235 0.49,1.491 0.2,0.395 0.63,0.685 0.81,1.056 0.12,0.231 0.19,1.064 0.25,1.181 0.1,0.172 0.45,0.571 0.56,0.683 0,0.05 0.41,0.06 0.5,0.06 0.47,0 0.92,-0.304 1.24,-0.621 0.1,-0.08 0.1,-0.255 0.12,-0.311 0.1,-0.07 0.39,-0.269 0.44,-0.372 0.1,-0.1 0.1,-0.488 0.12,-0.56 0.25,-0.244 0.46,-0.694 0.69,-0.807 0.19,-0.1 0.52,-0.06 0.8,-0.06 0.21,0 0.83,-0.171 1,0 0.33,0.335 0.73,0.974 1.3,1.118 0.28,0.07 0.59,0.03 0.87,0.124 0.31,0.103 0.72,0.08 1,-0.06 0.38,-0.19 0.65,-1.378 0.87,-1.802 0.11,-0.224 0,-1.037 0.18,-1.366 0.21,-0.425 0.59,-0.265 0.93,-0.435 0.1,-0.05 0.14,-0.196 0.19,-0.249 0.34,-0.343 -0.1,-1.28 -0.25,-1.553 -0.19,-0.296 -0.85,-0.703 -1.12,-0.808 -0.11,-0.05 -0.26,0 -0.37,-0.06 -0.14,-0.07 -0.36,-0.302 -0.5,-0.435 -0.1,-0.07 -0.91,-0.521 -0.99,-0.559 -0.35,-0.173 -0.78,-1.262 -0.93,-1.491 -0.14,-0.204 -0.48,-0.164 -0.56,-0.249 -0.2,-0.195 -0.17,-0.201 -0.56,-0.124 z m 328.04,-119.06 c -1.33,0 -2.55,0.277 -3.93,0.504 -1.53,0.251 -2.82,1.788 -4.44,1.512 0.44,0.07 0.88,0.183 1.31,0.302 -0.66,0.493 -1.35,0.912 -2.01,1.411 0.23,0.25 0.45,0.477 0.7,0.706 -1.46,-0.421 -1.09,1.126 0.2,1.411 0.73,0.16 1.7,0.242 1.52,1.21 -0.1,0.23 1.91,0.623 3.93,0.907 -0.42,-0.04 -0.8,-0.02 -1.21,0 -0.96,0.05 -2.41,-0.626 -3.23,-0.403 -2.96,0.812 -6.16,0.402 -9.17,0.1 2.1,1.946 5.5,0.982 7.56,3.024 -3.73,-0.254 -6.11,-1.698 -9.88,-0.705 2.44,0.436 -1.22,0.4 -1.51,0.504 0.52,0.07 1.02,0.235 1.51,0.403 -0.8,0.306 -1.87,0.471 -2.72,0.302 -0.98,-0.197 -1.66,0.576 -2.62,0.504 -0.94,-0.07 -1.52,-0.866 -2.52,-0.504 -0.78,0.281 -1.6,0.51 -2.42,0.605 0.44,-0.501 0.95,-0.948 1.51,-1.31 -4.18,-1.304 -8.55,0.226 -12.8,-0.303 0.5,0.239 1.06,0.302 1.61,0.303 -1.45,0.583 -3.08,-0.459 -4.33,0.1 -1.16,0.517 0.44,1.195 1.01,1.109 -2.05,-0.313 1.3,-0.35 1.81,-0.302 1.05,0.1 2.09,0.104 3.13,-0.101 -2.62,1.275 -5.82,1.349 -8.67,1.512 -3.31,0.19 -6.67,0.574 -9.98,0.907 0.77,0.708 -1.45,0.926 -2.12,1.008 -0.31,0.04 -3.71,-0.09 -1.71,0.101 -1.59,-0.05 -2.35,1.559 -3.73,2.016 -1.76,0.584 -3.63,-0.728 -5.44,-0.202 0.75,0.692 4.4,0.08 4.33,1.411 -0.82,-0.07 -1.56,-0.634 -2.42,-0.403 1.47,0.203 -0.31,0.96 0.81,1.814 -1.29,-0.455 -0.73,0.174 -0.3,0.605 -1.83,0.933 -3.5,-1.552 -5.34,-1.21 1.99,0.617 -1.17,0.418 0.4,1.21 0.47,0.239 1.09,0.326 1.61,0.403 1.08,0.159 2.14,0.116 3.23,0.202 -2.06,0.09 0.83,0.553 1.21,0.604 0.57,0.08 1.27,0.158 1.71,0.605 -0.45,-0.02 -1.3,0.743 -1.71,0.403 -0.3,-0.262 -0.63,-0.496 -1.01,-0.604 -0.98,-0.359 -1.92,0.02 -2.92,-0.101 0.6,0.07 1.06,0.298 1.51,0.705 -0.54,-0.17 -1.05,-0.281 -1.62,-0.302 0.99,1.116 2.64,0.692 3.94,0.907 1.62,0.27 3.04,1.054 4.73,1.21 -0.5,0 -1.01,0 -1.51,0 0.34,0.423 0.83,0.759 1.31,1.008 -1.13,0.854 -4.4,0.09 -5.84,0.201 -1.25,0.09 -2.01,1.134 -3.13,1.21 -1.41,0.1 -2.69,-0.567 -4.13,-0.303 -3.54,0.645 -7.49,0.605 -11.09,0.605 -1.99,0 -7.03,-0.566 -8.47,1.21 1.66,-0.329 -0.22,0.833 -0.7,1.108 0.52,0 2.68,0.984 0.8,1.008 1.93,-0.109 3.93,1.08 4.44,2.823 0.56,1.923 2.88,2.593 4.64,2.822 2.27,0.297 4.74,-0.06 6.75,1.31 0.77,0.523 1.2,0.89 2.12,1.31 0.78,0.358 1.57,0.735 2.01,1.512 -2.28,0.502 -4.68,0.654 -6.95,0 -1.82,-0.523 -3.49,-1.403 -5.34,-1.814 2.04,0.406 -0.19,-0.682 -0.61,-0.806 -0.91,-0.267 -1.88,-0.288 -2.82,-0.404 -1.78,-0.222 -3.47,-0.947 -5.24,-1.209 -1.74,-0.256 -3.8,-0.238 -5.04,-0.101 -1.19,0.132 -2.85,1.874 -4.03,1.21 -0.53,1.368 1.2,0.935 1.91,0.806 1.19,-0.216 2.55,0.295 3.23,1.31 -1.96,1.524 -4.16,0.07 -6.15,-0.504 -1.94,-0.556 -3.66,0.154 -5.55,0.504 1.19,0.937 2.24,2.262 3.73,2.722 1.04,0.32 2.09,0.421 3.13,0.705 1.43,0.39 4.92,2.019 6.15,0.504 0.21,1.182 1.41,0.413 2.11,0.907 0.83,0.578 1.2,1.695 2.42,1.21 0,0.264 0,0.542 0,0.806 1.05,-0.214 2.04,0.08 3.03,-0.504 -1.22,3.646 -11.57,-3.463 -11.7,-0.403 -0.98,-1.695 -3.78,-0.839 -5.34,-1.008 -1.68,-0.183 -4.31,-0.152 -5.54,-1.512 1.69,0.178 0.44,-0.925 -0.2,-1.411 -1.39,-1.043 -1.5,-1.326 -1.21,-3.225 0.41,-2.78 -4.59,-6.495 -7.26,-5.141 1.16,0.795 6.17,3.888 3.23,5.342 -1.48,0.727 -3.47,0.379 -4.74,1.512 -0.38,0.34 -0.24,1.067 -0.41,1.512 -0.24,0.647 -0.81,1.069 -1.31,1.512 3.1,0.831 5.65,2.709 8.37,4.334 0.65,0.392 2.42,1.118 2.52,2.016 0.1,0.562 -0.94,1.51 -1.11,2.117 -0.19,0.709 0,1.409 0.1,2.116 0.21,1.937 1.3,2.174 2.62,3.327 0.87,0.758 1.01,2.721 2.32,2.822 1.8,0.139 3.98,-0.01 5.75,-0.403 1.8,-0.401 2.94,-1.085 4.83,-0.605 1.62,0.408 3.65,0.253 5.14,0.806 1.7,0.628 3.19,1.054 4.94,1.512 1.81,0.472 2.1,1.842 3.43,2.923 0.69,0.565 1.55,0.887 2.12,1.613 0.48,0.622 -1.69,0.483 -1.82,1.31 -0.15,0.955 0.83,2.596 1.82,2.721 1.73,0.219 3.38,0.596 5.14,0.706 0.58,0.04 0.58,0.654 1.21,0.202 0.6,-0.429 1.41,0.194 1.91,0.504 -3.37,-0.681 -9,1.115 -11.59,-2.117 1.42,0.413 0.38,-0.762 0.1,-1.411 -0.34,-0.794 -0.68,-1.566 -1.11,-2.318 -0.92,-1.613 -1.91,-1.586 -3.52,-2.218 -1.33,-0.519 -2.48,-1.975 -3.73,-2.318 -2.07,-0.566 -4.75,0.442 -6.76,0.907 -1,0.232 -3.75,0.116 -3.02,1.714 0.53,1.169 0.11,1.597 1.41,2.318 1.71,0.949 6.05,3.791 2.62,5.443 -2.13,1.027 -0.83,2.267 -1.21,4.031 -0.38,1.77 -2.65,1.532 -3.83,2.419 -1.12,0.843 -2.69,0.208 -2.12,2.016 0.21,0.664 -0.85,1.489 -1.51,1.512 -1.08,0.04 -2.08,-0.618 -3.12,-0.806 -2.06,-0.375 -3.99,-0.03 -6.05,-0.202 -1.95,-0.166 -3.9,-0.781 -5.85,-1.008 -2.02,-0.236 -2.53,-1.772 -4.23,-2.318 1.54,-0.666 3.34,-0.05 4.94,0 1.49,0.05 2.45,1.196 4.03,0.806 1.56,-0.385 3.06,-1.423 4.64,-1.612 0.55,-0.07 3.98,-1.154 1.81,-1.613 0.49,-0.202 1,-0.307 1.51,-0.202 -0.27,-0.226 -0.55,-0.45 -0.8,-0.705 1.74,-0.723 1.09,-3.16 3.63,-3.528 -0.67,-0.653 -0.32,-1.838 -1.11,-2.721 -0.52,-0.572 -0.53,-0.751 -0.2,-1.512 0.41,-0.955 1.32,-1.23 0.2,-2.117 -0.65,-0.514 -1.56,-0.628 -2.32,-0.907 -0.95,-0.352 -6.48,-1.846 -5.64,-3.729 0.46,-1.042 -0.62,-0.748 -0.51,-1.915 -0.58,-0.864 -1.05,-0.971 -1.11,-2.117 -0.1,-1.338 -2.55,-2.411 -2.92,-3.629 -0.26,-0.869 1.26,-0.914 0.5,-1.713 -0.64,-0.681 -0.46,-0.969 -0.8,-1.814 -1.44,-3.575 -6.5,-2.332 -8.47,-5.342 0.47,-0.206 1.29,-0.238 1.61,-0.706 0.39,-0.554 -0.37,-1.096 0,-1.512 0.55,-0.613 0.64,-1.952 0.61,-2.721 -0.1,-1.931 -2.84,-3.811 -4.54,-4.133 -1.16,-0.22 -2.41,0.112 -3.53,-0.302 -1.33,-0.498 -2.71,-0.486 -4.13,-0.403 -2.67,0.156 -5.17,0.641 -7.86,0.201 1.68,-0.375 -0.44,-0.622 -1.01,-0.201 -0.66,0.493 -1.04,1.304 -1.11,2.116 -0.16,1.922 1.54,4.83 0.2,6.552 -1.01,1.304 -2.88,2.047 -4.43,2.419 -1.21,0.29 -2.55,2.736 -0.71,2.318 -1.65,1.032 0.73,1.653 1.62,1.411 2.09,-0.57 1.9,1.118 2.52,2.419 0.17,0.355 0.21,1.481 0.6,1.714 0.46,0.273 0.9,0.416 1.21,0.907 0.58,0.906 -1.55,0.846 -1.91,0.806 0.25,1.079 0.25,2.619 1.61,2.923 0.14,-1.424 2.48,-0.108 3.53,0.202 0.89,0.262 2.38,0.781 3.22,0.101 0.59,0.788 0.43,1.7 1.31,2.318 0.66,0.457 1.33,0.812 2.02,1.209 0.77,0.445 1.58,1.089 2.52,1.109 0.79,0.02 1.47,-0.607 2.22,0 -1.24,0.122 0.35,0.762 -0.11,2.016 -0.21,0.597 -0.78,1.457 -0.5,2.117 1.07,2.514 -3.54,-0.559 -3.73,-0.605 -3.02,-0.753 -5.76,-3.024 -8.77,-3.427 -1.33,-0.179 -2.61,-0.445 -3.93,-0.706 -0.5,-0.1 -4.35,-1.046 -2.32,-1.008 -0.94,-0.103 -4.44,-1.457 -4.83,-0.504 -0.42,1.01 -1.84,-0.451 -0.31,-0.806 -2.95,-0.612 -5.71,-1.834 -8.67,-2.419 -2.83,-0.562 -5.79,-0.625 -8.66,-0.706 -1.62,-0.05 -3.26,-0.1 -4.84,-0.503 -0.95,-0.243 -1.97,-0.597 -2.82,0.1 -0.13,0.287 -0.25,0.601 -0.31,0.907 -0.26,0.02 -0.54,0.08 -0.8,0.101 -0.64,0.371 -1.06,-0.22 -1.51,0.605 1.21,0.72 2.67,1.332 3.52,2.52 0.81,1.122 1.8,0.13 2.42,1.109 2.04,3.235 -4.23,2.281 -4.94,3.326 0.45,0.166 1.8,0.978 1.52,1.612 -0.4,0.903 -2.38,0.31 -3.03,0.202 -1.63,-0.271 -3.15,-2.123 -0.8,-2.721 -0.56,-0.365 -4.06,-1.643 -2.12,-1.815 -1.55,0.254 -3.37,-0.161 -4.64,1.008 0.18,0.256 0.39,0.481 0.61,0.706 -0.12,-0.05 -2.49,-1.326 -2.32,-0.403 0.11,0.647 -0.69,0.699 -1.21,0.705 -0.83,0.01 -1.25,0.863 -2.02,1.109 -0.75,0.24 -1.59,-0.01 -2.32,-0.202 -2.23,-0.583 -10.4,-0.851 -9.67,3.024 -0.93,0.39 -1.73,-1.149 -2.42,-0.806 -0.58,0.29 -1.67,1.182 -1.61,-0.101 -0.99,1.217 -4.03,0.747 -5.35,0.504 0,-1.7 2.55,-0.542 3.33,-1.411 -0.28,-0.465 -2.69,-2.833 -0.6,-3.024 -0.78,-0.267 -1.65,-0.234 -2.42,-0.504 1.47,-0.433 3.17,0.287 4.53,-0.605 -3.04,-0.11 -8.55,0.415 -10.68,3.024 0.93,-0.05 1.68,0.501 2.32,1.109 -0.49,0.1 -2.37,1.463 -2.72,0.705 -0.32,-0.691 0.56,-1.081 -0.41,-1.411 -1.03,-0.35 -2.35,0.149 -3.22,0.706 -0.92,0.586 -2.21,0.33 -3.23,0.403 -1.93,0.137 -3.52,1.988 -5.14,2.419 -2.29,0.609 -3.92,1.741 -6.45,1.21 1.06,0.389 2.09,1.179 2.92,1.915 -0.92,-0.537 -3.83,-0.769 -4.73,-0.101 -0.87,0.636 -1.65,-0.146 -2.32,0.504 1.34,0.651 0.57,1.591 0.3,2.62 -0.25,0.954 1.29,1.65 -0.1,2.419 -0.54,0.3 -2.05,0.09 -2.72,0.202 -1.05,0.176 -2.56,0.1 -3.43,0.806 0.23,-0.23 0.4,-0.455 0.61,-0.705 -1.4,-0.09 -3.18,0.433 -4.44,-0.403 -0.89,-0.592 -1.34,-1.642 -2.32,-2.117 -1.05,-0.506 -2.59,-0.159 -3.42,-1.109 -1.03,-1.164 0.58,-1.787 1.51,-2.016 -0.1,-0.264 -0.21,-0.542 -0.3,-0.806 2.44,-0.851 5.09,-0.09 7.55,-0.806 -0.8,-1.898 -2.93,-2.407 -4.53,-3.427 -1.75,-1.116 -2.86,-1.816 -5.04,-2.016 -2.28,-0.208 -4.76,0.678 -6.96,0.101 -1.06,-0.28 -3.28,-1.472 -4.23,-0.403 1.73,0.53 3.89,1.174 5.44,2.116 0.94,0.566 0,1.966 1.21,2.117 -1.08,0.176 -0.68,0.616 -0.1,1.008 -1.23,0.06 -0.33,0.483 -0.4,1.209 -0.1,0.588 -0.29,1.17 -0.5,1.714 -0.28,0.702 -0.89,1.912 0.1,2.318 1.41,0.582 2.74,0.338 3.93,1.613 0.67,0.718 0.25,2.116 1.41,2.419 -2.58,0.815 -1.55,4.509 -0.4,5.947 -0.95,-0.749 -1.41,-2.095 -2.73,-2.319 -0.69,-0.119 -1.99,0 -1.91,1.008 -0.3,-0.117 -0.58,-0.285 -0.81,-0.504 0.43,-0.411 0.93,-0.689 1.51,-0.806 -0.26,-1.245 -2.41,-1.569 -3.42,-1.613 -1.59,-0.07 -2.3,-0.06 -3.83,-0.504 -1.51,-0.442 -2.42,0.614 -3.33,1.613 -1.12,1.227 -2.36,1.558 -3.93,1.915 -1.59,0.363 -2.5,1.369 -3.83,2.217 -0.73,0.464 -2.86,1.032 -2.72,2.218 0.14,1.14 2.71,2.301 3.53,3.024 1.22,1.075 2.28,2.327 2.92,3.83 -0.94,-0.283 -3.1,-0.923 -4.03,-0.706 -1.42,0.33 -2.03,0.38 -3.43,-0.201 -1.47,-0.61 -3.13,-1.051 -4.74,-0.907 -1.01,0.09 -2.2,1.39 -2.52,0 0.6,0.05 1.22,-0.268 1.62,-0.706 -2.4,0.702 -4,-1.687 -6.15,-2.117 -0.82,-0.163 -2.38,-0.987 -2.92,0.101 -0.59,1.172 -0.66,1.597 -2.32,1.512 1.25,1.694 3.22,2.643 4.83,3.931 0.76,0.603 1.77,0.459 2.63,0.202 1.11,-0.332 1.83,0.404 2.82,0.705 -0.81,1.041 2.31,3.378 -1.21,3.024 -0.96,-0.1 -1.25,0.921 -2.62,0.504 -1.45,-0.438 -3.01,-0.553 -4.44,-1.008 -1.17,-0.373 -1.78,-1.428 -2.82,-2.016 -0.55,-0.315 -0.5,0.728 -1.11,-0.101 -0.26,-0.338 -0.59,-0.592 -1.01,-0.705 -1.19,-0.581 -1.88,0.452 -3.02,-0.101 -0.92,-0.448 -1.85,-1.091 -2.82,-1.411 0.22,-0.238 0.39,-0.463 0.6,-0.706 -0.26,-0.172 -0.54,-0.34 -0.8,-0.504 0.28,-0.181 0.61,-0.349 0.9,-0.504 -1.02,-0.07 -1.05,-1.469 -2.11,-1.612 1.04,-1.156 -1.53,-2.108 -2.12,-2.722 -0.59,-0.619 2.34,-1.388 1.31,-2.822 2.05,0.489 -1.11,-2.405 -1.61,-2.721 -2.16,-1.349 -5.08,-1.687 -7.56,-1.815 0.73,-0.251 1.94,-0.111 1.61,-1.31 -0.91,0.179 -3.01,0 -3.93,-0.202 0.85,-0.443 1.92,-0.449 2.82,-0.201 -0.92,-0.946 -2.41,-0.128 -3.53,-0.403 0.85,0.146 1.57,-0.657 2.42,-0.303 -0.87,-0.705 -2.12,-0.473 -3.12,-0.806 1.88,0.198 -1.47,-1.234 -2.22,-1.109 0.25,-0.255 0.48,-0.432 0.71,-0.705 -1.27,-0.885 -2.77,-0.734 -4.14,-1.311 0.98,0.152 1.98,-0.379 2.93,0 1.01,0.402 2.25,0.546 3.32,0.504 -2.15,0.08 2.17,2.227 2.73,2.419 0.66,0.229 1.95,-0.271 2.41,0.101 0.69,0.548 1.48,0.628 2.02,-0.201 -0.27,1.29 1.55,0.546 2.22,1.713 0.1,0.13 2.55,-0.265 3.12,0 2.67,1.239 5.22,1.786 8.17,1.915 3.48,0.152 6.64,1.263 10.08,1.613 3.08,0.315 5.78,-0.1 8.76,-0.806 2.73,-0.645 4.41,-1.663 6.46,-3.528 1.35,-1.237 2.88,-3.702 0.4,-4.334 -0.51,-0.129 -1.14,-1.717 -1.31,-2.218 -0.44,-1.263 -0.9,-1 -1.92,-1.512 -1.13,-0.566 -2.34,-0.412 -3.32,-1.31 -0.88,-0.795 -2,-1.541 -3.13,-1.915 0.2,0.255 0.33,0.534 0.51,0.806 -2.49,0.302 -5.27,-1.144 -7.36,-2.318 0.27,0.209 0.55,0.381 0.8,0.605 -2.68,-0.477 -4.78,-2.453 -7.35,-3.226 -3.01,-0.901 -6.06,-1.77 -8.97,-2.923 -2.61,-1.029 -4.89,-0.285 -7.46,-0.705 -1.11,-0.18 -2.21,-0.677 -3.33,-0.706 -1.01,-0.03 -2.13,0.354 -3.12,0 0,0.67 -0.33,0.959 -0.71,1.21 -0.68,0.456 -1.68,0.602 -2.12,1.512 -0.59,-1.188 1.53,-1.103 2.12,-1.512 -0.54,-0.166 -1.45,-0.51 -0.1,-0.706 -1.02,-0.203 -0.69,-0.326 0,-0.705 -0.83,-0.982 -2.24,-0.483 -3.12,0.1 0.18,-0.254 0.35,-0.432 0.5,-0.705 -0.85,-0.02 -1.68,-0.328 -2.52,-0.403 -0.37,-0.03 -0.67,0.09 -1.01,0.201 0.14,-0.04 0.26,-0.161 0.41,-0.201 -0.92,-0.48 -1.87,-0.725 -2.83,-1.109 0.1,-0.269 0.22,-0.495 0.41,-0.706 0.82,0.996 5.37,2.168 5.64,0.202 -1.24,-0.532 -2.58,-0.268 -3.83,-0.907 -0.85,-0.432 -2.15,-1.081 -3.12,-0.706 0.24,0.216 0.46,0.39 0.7,0.605 -0.42,0.05 -1.49,-0.139 -1.61,0.504 -0.1,0.405 -1.14,0.964 -1.41,0.806 -0.92,-0.526 -2.3,-0.614 -3.33,-0.806 0.74,0.524 1.15,1.418 0,1.714 -1.17,0.304 -2.28,-0.256 -3.32,-0.706 0.91,2.062 -2.21,2.07 -3.43,2.318 -1.42,0.286 -0.41,0.989 -1.21,1.714 -1.09,0.977 -3,1.033 -4.34,1.512 0.79,0.103 2.96,0.279 1.62,1.512 -1.16,1.092 -0.98,2.115 0.4,3.023 1.34,0.878 3.01,0.909 4.33,1.815 1.04,0.711 2.94,1.481 3.73,2.419 1.77,2.08 -5.76,3.735 -3.42,6.652 2.25,2.82 5.61,4.624 6.85,8.265 -0.76,0.04 -1.47,0.269 -2.22,0.403 0.98,0.276 0.45,1.775 0,2.52 -0.42,0.703 1.08,0.902 1.31,1.411 -1.56,0.335 -1.25,2.08 0.1,2.52 0.9,0.291 1.9,-0.25 2.42,0.806 -2.76,1.247 1.22,2.673 2.32,3.226 2.45,1.225 -1.28,3.557 -2.42,4.132 2.97,1.652 5.99,3.21 8.87,4.939 1.21,0.721 1.69,1 1.11,2.318 -0.67,1.536 -1.13,2.582 -2.52,3.629 -2.98,2.253 -5.29,5.164 -8.16,7.559 -2.78,2.314 -6.28,3.799 -8.77,6.451 1.41,0.02 2.11,0 3.32,-0.806 0.46,-0.301 1.59,-0.965 2.12,-0.403 -0.72,0.422 -0.18,1.266 0,1.814 -0.51,-0.247 -1.02,-0.525 -1.51,-0.806 0.86,0.957 2.93,2.593 4.13,3.023 1.72,0.613 3.15,-0.553 4.84,0.605 0.1,0.05 3.55,1.915 2.02,1.915 -1.68,0 -3.23,-1.06 -4.94,-1.108 -1.49,-0.04 -1.8,1.624 -3.13,1.713 -0.75,0.05 -1.71,-1.013 -2.22,0 -0.15,0.302 -0.18,0.804 -0.6,0.806 -0.71,0 -2.06,-1.393 -1.81,0 0.11,0.658 0.71,0.933 0.2,1.613 0.5,0.194 1.01,0.465 1.21,1.008 -1.72,-0.02 -1.61,1.203 -2.22,2.419 -0.44,0.872 -1.74,1.251 -1.71,2.318 0,1.068 0.9,1.951 0.7,3.024 -0.12,0.617 -0.26,1.235 0.3,1.714 0.69,0.584 1.2,2.209 2.02,2.318 -2.14,1.692 -3.28,2.722 -0.1,4.132 1.38,0.612 0.91,2.979 0.1,4.032 1.59,-0.193 2.91,1.966 3.63,3.225 0.27,0.479 0.59,3.722 1.51,3.327 1.59,-0.683 2.39,0.86 4.03,0.504 0.77,-0.167 1.69,-0.237 2.42,0.1 0.78,0.36 0.4,0.865 0.5,1.512 0.27,1.602 4.29,-0.823 5.35,-0.504 0.65,0.198 4.69,1.98 4.73,2.52 0.1,1.117 -0.42,1.634 0.31,2.722 0.36,0.539 0.84,1.623 0.1,2.116 -1.29,0.856 1.94,3.061 2.52,4.032 0.59,1.005 1.23,2.1 2.32,2.621 0.79,0.381 2.16,0.229 2.41,1.31 0.16,0.645 -0.93,1.934 0.61,1.613 1.09,-0.228 1.45,-0.06 2.52,0.201 1.84,0.457 0.23,0.603 1.21,1.31 0.63,0.451 1.89,0.889 2.12,1.714 0.15,0.563 -2.97,2.362 -3.63,2.419 -1.85,0.16 -3.33,-1.701 -5.14,-0.202 -0.87,0.718 0.48,1.688 1,2.117 1.05,0.851 0.69,0.896 0.91,2.117 0.34,1.831 0.87,3.77 2.82,4.435 1.58,0.536 2.94,-0.31 2.83,-2.016 1.82,0.127 2.87,0.807 4.63,0.101 1.61,-0.644 2.74,0.484 4.13,-0.101 1.47,-0.618 2.48,1.544 2.93,2.52 0.48,1.046 2.05,1.174 2.52,2.217 -0.64,0.396 -1.61,0.14 -2.02,0.907 -0.2,0.376 2.23,2.568 1.11,3.226 0.95,0.316 3.29,1.076 4.23,0.604 1.49,-0.743 2.12,1.286 3.53,1.21 -0.42,0.791 0.8,3.11 1.11,3.931 0.53,1.381 1.58,2.053 2.92,1.31 1.23,-0.676 1.91,0.164 2.93,0.706 0.14,0.08 2.05,0.91 2.11,0.907 1.73,-0.08 3.29,-1.91 5.24,-1.714 1.13,0.114 1.67,1.795 2.32,2.52 0.72,0.799 1.96,0.835 2.42,1.915 1.68,-0.967 0.89,-1.67 2.92,-0.605 1.06,0.552 3.97,1.729 4.84,0.706 0.76,1.504 1.87,0.595 2.72,1.613 0.61,0.717 1.6,1.067 2.52,1.008 0.64,-0.04 0.78,-0.555 1.52,-0.202 -1.11,1.056 1.53,3.403 -1.01,4.435 -0.66,0.267 -1.22,0.332 -0.71,1.209 0.66,1.128 1.67,-0.422 1.82,1.109 -0.86,-0.256 -2.3,0.534 -1.82,1.613 0.17,0.369 2.82,1.29 1.41,2.318 0.3,0.242 0.64,0.301 1.01,0.202 0.19,0.909 -0.47,3.838 -1.51,3.931 -1.1,0.1 -2.35,-0.315 -3.43,-0.101 -0.94,0.188 -1.98,-0.614 -2.62,0.504 -0.31,0.559 -0.66,1.023 -1.31,1.209 -1.27,0.367 -2.71,2.603 -1.11,2.923 -1.04,0.913 -0.16,1.791 0.91,1.311 0.27,-0.121 0.47,-0.262 0.71,-0.403 -0.14,0.131 -0.33,0.322 -0.41,0.503 1.37,0.156 2.63,-0.778 3.93,-1.007 1.66,-0.289 0.91,1.508 2.22,1.108 -1.01,0.888 -2.83,1.915 -4.33,2.117 -3.02,0.405 -0.76,0.496 -1.11,1.915 -0.92,0.06 -1.59,-0.483 -2.52,-0.202 -0.85,0.253 -1.54,0.562 -2.42,0.202 0.65,2.077 1.82,1.713 3.33,2.621 0.59,0.358 2.85,1.609 2.62,2.519 -0.74,0.05 -1.52,-1.107 -2.22,-0.806 -0.6,0.258 -0.53,1.633 -0.91,2.117 -0.1,-0.479 -0.21,-0.93 -0.3,-1.411 -0.9,0.563 -0.95,4.349 -2.42,3.427 -0.1,0.482 0.33,2.461 0.81,0.705 0.1,0.739 0.7,1.449 0.3,2.218 -0.52,-0.155 -3.83,-0.509 -3.53,0.1 -1,-0.816 -3.04,-2.143 -3.53,-0.403 0.23,-0.186 0.46,-0.354 0.71,-0.504 0,0.604 0.4,1.008 1.01,1.008 -0.66,0.385 -1.49,0.509 -1.82,1.311 2.04,0.897 4.15,0.6 5.44,2.721 0.65,1.052 3.97,1.92 2.93,0.605 1.49,0.417 2.22,2.101 3.53,2.822 1.41,0.784 3.08,1.009 4.53,1.814 3.32,1.839 5.49,5.161 8.87,6.854 -0.16,-3.457 7.55,-0.277 9.07,0.403 1.22,0.542 2.52,0.908 3.83,1.109 1.23,0.188 2.17,-0.249 3.33,-0.202 0.83,0.03 1.46,0.574 2.32,0.605 0.78,0.03 1.63,-0.07 2.32,0.403 0.84,0.574 6.67,3.026 5.84,3.931 2.22,1.645 5.87,-2.782 7.36,0.303 0.11,-1.601 2.45,-1.028 3.12,-0.202 1.14,1.401 1.85,0.275 3.23,1.008 0.88,0.471 0.22,1.648 0.3,2.419 0.1,0.768 1.82,1.373 2.42,1.613 2.27,0.908 4.93,1.093 6.65,2.822 0.74,0.742 1.36,1.056 2.22,1.512 0.92,0.487 0.91,1.764 1.92,2.217 0.82,0.374 2.52,1.118 3.42,0.706 0.5,-0.229 0.91,-1.474 1.31,-1.915 0.82,-0.895 1.8,-1.549 2.42,-2.621 0.66,-1.136 -0.31,-1.389 -1.11,-2.217 -0.93,-0.962 -1.58,-2.124 -2.62,-3.024 -0.9,-0.785 -2.07,-1.493 -2.72,-2.52 -0.69,-1.105 -1.04,-2.204 -2.22,-2.923 -0.84,-0.512 -0.57,-2.285 0.1,-2.822 -1.83,-0.328 -0.66,-3.875 -0.1,-4.838 -1.35,-0.843 -1.22,2.083 -1.1,2.822 -1.31,-0.194 -0.36,-0.845 -0.41,-1.713 -0.1,-0.913 -0.71,-1.712 -1.21,-2.419 -0.83,-1.177 -1.44,-1.747 -2.72,-2.42 -0.95,-0.503 -2.64,-0.807 -2.52,-2.217 0.1,-0.985 2.21,-1.781 1.41,-2.822 0.18,0.254 0.4,0.479 0.61,0.705 0.79,-2.751 3.18,-5.291 0.9,-7.861 0.93,0 1.39,0.933 1.82,1.612 -0.2,-0.617 -0.26,-1.373 -0.81,-1.814 0.84,0.236 1.56,0.811 2.32,1.209 -0.31,-1.598 1.17,-0.503 2.12,-1.007 0.46,-0.248 0.69,-0.77 1.31,-0.706 -1.24,-1.542 1.99,-0.276 2.32,-0.101 0.1,-0.612 -0.21,-0.904 -0.81,-0.907 0.36,-0.507 0.26,-0.974 -0.4,-1.109 0.51,-0.261 1.02,-0.209 1.51,0.101 0,-0.982 1.13,-0.986 1.71,-0.605 -0.1,-0.5 -0.15,-1.004 -0.2,-1.512 0.27,0.14 0.54,0.255 0.81,0.404 -0.24,-1.478 -6.05,-2.837 -5.65,-3.629 0.52,-1.008 3.51,0.671 3.13,-0.706 -0.28,-0.983 -1.47,-1.797 -2.12,-2.519 -2.21,-2.432 -3.72,-5.303 -7.16,-5.947 -0.84,-0.158 -2.59,-0.543 -3.22,0.302 -0.74,0.992 -1.77,-1.784 -2.22,-2.217 0.24,-0.17 0.47,-0.338 0.71,-0.504 -1.05,-0.945 -0.87,-1.618 -2.42,-2.016 -0.86,-0.22 -1.93,-0.478 -2.42,-1.31 -0.91,-1.55 0.29,-3.838 1.51,-4.738 1.68,-1.248 -1.4,-2.306 -1.61,-3.427 -0.47,-2.436 0.1,-3.367 1.81,-4.636 1.08,-0.776 -1.05,-3.759 1.61,-3.729 2.31,0.03 3.89,3.813 5.85,4.737 1.03,0.483 2.57,-0.149 3.33,-0.907 0.64,-0.646 -0.41,-1.264 -0.71,-1.815 -0.55,-1.003 -0.97,-3.435 -2.22,-3.83 1.75,0.459 3.35,-0.387 4.74,-1.512 0.5,-0.405 -0.3,-1.213 -0.2,-1.713 0.15,-0.775 1.28,-0.504 1.81,-0.504 0.96,0 1.27,-0.968 2.12,-1.21 0.78,-0.223 1.77,-0.175 2.22,-1.008 0.69,-1.287 0.15,-2.691 2.01,-1.814 -0.19,-0.479 -0.31,-1.033 -0.5,-1.512 1.12,0.239 3.85,0.453 4.13,1.613 0.43,1.741 1.74,-0.398 2.52,0.907 0.39,-0.481 0.38,-1.432 1.01,-1.713 0.88,-0.397 1.68,-0.385 2.62,-0.908 1.11,3.57 4.31,2.083 7.06,2.42 1.59,0.196 1.79,1.687 3.02,2.217 1.11,0.476 2.05,0.174 2.92,1.209 0.64,0.751 3.12,1.715 3.03,2.218 -0.13,0.706 0,1.729 0.6,2.217 0.98,0.836 1.22,-1.018 0.91,-1.612 -0.41,-0.76 -1.24,-1.399 -1.51,-2.218 1.28,-0.883 3.11,0.842 4.03,1.512 1,0.732 2.5,0.881 3.32,1.613 0.99,0.875 2.91,0.507 3.33,-1.008 0.3,-1.083 1.89,-1.345 1.81,-2.52 0.57,0.03 1.07,0.256 1.52,0.605 0,-0.974 3.08,-1.221 3.32,-0.605 0.24,0.6 1.63,1.335 2.22,1.512 0.66,0.198 0.99,-0.632 1.71,-0.302 -0.1,-3.308 0.78,-0.37 2.62,-1.714 1.46,-1.061 2.68,1.163 3.23,2.016 0.78,1.199 2.61,1.489 3.93,1.613 0.55,0.05 3.55,0.23 2.82,1.411 0.83,-0.06 2.12,-0.238 2.22,-1.311 0.1,-0.509 -0.11,-1.443 0.61,-1.612 0.65,-0.157 1.28,0.775 1.71,1.108 0.64,0.491 1.65,0.566 2.42,0.605 1.07,0.05 5.12,-0.434 5.14,-1.915 0,-0.877 -1.13,-2.944 0.4,-3.124 -1.43,-0.473 -1.71,-1.446 -3.43,-1.613 -1.33,-0.129 -1.8,-1.14 -2.92,-1.411 -1.33,-0.322 -2.13,0.156 -3.02,-1.109 -0.54,-0.766 -3.32,-0.518 -3.33,-1.613 0,0 2.53,-1.436 2.72,-1.512 0.75,-0.292 1.28,-0.03 1.92,-0.604 0.38,-0.343 0.75,-0.865 1.21,-1.109 -0.44,-0.282 -3.16,-2.971 -3.03,-3.225 0.33,-0.618 1.75,-1.265 1.01,-2.117 0.8,-0.09 1.93,-0.244 2.72,-0.202 0.63,0.03 1.17,0.404 1.82,0.404 0.36,0 4.05,-0.143 2.21,-1.21 -1.81,-1.056 -3.81,-0.972 -5.74,-1.512 -2.79,-0.781 1.01,-1.384 1.31,-1.814 -0.55,-0.815 -1.14,-0.5 -1.92,-0.403 -0.83,0.104 -1.81,-0.423 -2.52,-0.807 2.45,-0.202 0.51,-1.841 -0.2,-2.419 0.49,-0.09 0.94,-0.04 1.41,0.101 -0.45,-1.647 3.32,-0.222 3.94,-0.101 0.93,0.184 1.69,-0.604 2.62,-0.604 0.95,0 1.22,0.944 2.11,1.007 -0.44,-2.729 3.12,-0.645 3.23,-1.915 0.1,-1.225 4.27,-0.558 5.14,-0.806 0.1,-0.238 0.11,-0.463 0.2,-0.706 0.42,0.06 0.91,0.03 1.31,-0.1 1.07,-0.144 1.73,-0.4 2.82,-0.202 0.72,0.131 1.27,-0.619 1.92,0 0.83,0.799 0.81,-0.428 0.8,-0.907 0,-1.946 6.5,-1.662 8.07,-2.016 1.74,-0.394 3.38,-0.664 5.14,-1.008 1.33,-0.261 3.97,-0.873 4.84,-1.915 -1.55,-0.277 -0.26,-0.813 0.1,-1.008 0.7,-0.383 1.93,-0.179 1.51,-1.411 0.59,0.168 1.2,0.173 1.81,0.101 -0.21,-0.244 -0.48,-0.47 -0.7,-0.706 0.94,0.05 2.06,0.955 2.72,0.403 0.95,0.136 1.94,0.169 2.82,0.605 0.89,0.442 3.29,1.966 4.23,1.008 1.26,-1.273 2.13,-1.203 3.73,0.101 0.92,0.746 0.96,1.893 1.72,2.721 0.59,0.646 1.36,0.915 2.11,1.311 -0.95,0.993 1.56,3.169 -0.5,3.326 1.27,1.567 2.38,0.577 3.63,1.209 0.74,0.379 1.36,-0.359 1.81,-0.806 0.46,-0.456 1.69,0.294 2.32,0.202 -0.55,-0.276 -0.85,-0.794 -0.7,-1.411 1.05,0.467 1.8,1.841 3.02,1.915 -1.01,0.75 0.1,1.055 0.5,2.015 0.41,-0.441 0.92,-0.715 1.51,-0.705 -0.32,-0.498 -0.93,-0.772 -1.51,-0.504 1.06,-2.982 5.96,3.212 7.26,-0.302 0.53,0.42 1.01,1.01 1.01,1.713 -0.99,-0.137 -2.7,0.542 -2.32,1.814 0.29,0.953 1.6,0.857 1.91,1.815 0.79,-0.73 2.19,-2.434 3.43,-1.412 0.65,0.53 1.1,-0.254 1.72,0.303 0.38,0.346 0.52,0.702 1.1,0.705 -0.12,-1.975 0.97,-2.169 2.52,-2.721 0.74,-0.261 2.96,-1.123 2.02,-2.217 1.21,-0.106 2.32,-0.516 3.43,-1.008 0.12,-0.06 1.32,-1.122 1.41,-1.109 1.16,0.168 2.23,-0.597 3.32,-1.008 -0.2,0.252 -0.43,0.53 -0.6,0.806 1.02,0.263 0.68,1.115 0.2,1.714 -0.32,0.393 -1.18,0.02 -1.61,0.302 3.35,2.544 7.3,3.908 10.88,6.048 3.33,1.985 5.96,4.639 8.77,7.257 2.91,2.712 5.99,5.319 8.87,8.063 1.81,1.721 4.44,5.8 6.96,6.35 -0.95,-1.002 0.76,-0.492 1.41,-1.713 0.45,-0.86 -0.53,-1.152 -0.2,-2.016 0.11,-0.293 1.55,-0.611 1.71,-0.605 0.79,0.02 1.25,0.873 1.92,0.807 1.37,-0.139 0.57,0.814 0.8,1.612 0.19,0.653 1.26,0.28 1.72,0.303 0.83,0.04 1.33,1.253 1.91,1.713 0.8,0.631 2.2,-0.234 3.13,-0.101 0.76,0.11 1.1,0.687 1.91,0.303 0.38,-0.191 0.79,-0.232 1.21,-0.202 1.16,-0.03 1.38,-1.063 2.22,-1.209 1.12,-0.196 0.7,0.03 1.51,-0.807 0.27,-0.281 0.78,-0.156 1.11,-0.101 3.18,0.533 6.43,2.644 8.16,5.242 1.33,2.005 4.75,0.962 6.15,2.62 0.96,1.134 1.66,2.476 2.82,3.427 1.13,0.924 3.94,0.623 5.34,0.807 0.68,0.09 1.88,1.236 2.32,-0.202 0.15,-0.478 0.76,-0.988 1.11,-1.31 0.66,-0.597 1.41,-0.375 1.11,0.605 -0.39,1.266 1,0.977 1.71,1.511 0.91,0.676 1.5,1.972 2.73,2.117 1.24,0.149 1.06,0.954 2.01,1.31 1.28,0.478 4.34,-0.551 4.44,-2.015 0.1,-1.149 1,-1.589 2.11,-1.412 0.95,0.15 2.15,1.077 2.02,-0.302 0.71,0.302 1.62,0.646 2.32,0.101 -0.14,-0.243 -0.36,-0.469 -0.51,-0.706 1.16,-0.183 2.04,-0.504 3.13,-0.907 -0.58,-0.348 -0.9,-0.993 -1.11,-1.613 0.86,-0.604 2.18,-0.05 2.01,-1.31 0,-0.232 1.81,-0.934 2.02,-1.008 0.86,-0.308 1.46,-0.1 2.12,-0.806 0.58,-0.632 1.07,-1.14 1.91,-1.411 1.28,-0.41 1.55,-0.103 2.32,-1.311 0.37,-0.57 0.89,-0.656 1.51,-0.705 0.85,-0.07 2.89,0.01 2.22,-1.411 1.51,-0.03 1.94,2.118 3.53,1.008 1.39,-0.976 0.86,0.621 1.91,1.008 2.37,0.871 5.43,-0.469 7.86,0.504 1.27,0.504 1.98,1.718 2.93,2.62 1.25,1.192 2.86,1.755 4.53,2.016 0.59,0.09 3.93,1.095 4.34,0.806 0.97,-0.681 1.75,-0.945 2.92,-0.806 1.8,0.222 3.51,0.8 5.34,1.008 1.32,0.149 2.95,1.279 4.24,1.008 1.14,-0.242 1.3,-1.459 2.52,-1.613 1.28,-0.163 1.56,-1.899 1.41,-2.923 -0.24,-1.571 -0.83,-1.773 -2.12,-2.318 -1.26,-0.535 -1.4,-2.052 -2.52,-2.621 -1.2,-0.611 -2.78,-5.462 -0.6,-4.737 -0.62,-1.299 -0.45,-2.184 1,-2.621 1.05,-0.315 0.7,-2.2 0.51,-2.923 2.69,0.842 5.25,1.977 7.96,2.823 2.84,0.887 5.73,0.823 8.57,1.915 2.23,0.858 4.51,0.886 6.85,1.31 2.02,0.369 2.77,2.998 3.93,4.435 0.6,0.74 1.4,1.202 1.92,2.016 0.53,0.83 1.5,0.804 2.21,1.411 0.71,0.595 2.23,1.024 3.13,1.109 1.25,0.118 1.63,0.625 2.72,1.008 3.89,1.379 7.58,-0.961 11.29,-1.815 1.92,-0.442 4.48,-0.223 6.35,0.404 1.54,0.517 2.51,0 4.03,0.201 1.39,0.179 2.51,1.268 3.63,2.016 1.42,0.95 2.76,1.066 4.43,1.109 1.93,0.05 2.29,0.502 3.43,1.915 0.86,1.067 2.03,1.37 3.13,2.116 2.97,2.025 5.76,0.749 8.97,1.815 2.07,0.687 4.01,0.561 6.15,0.604 1.21,0.02 2.56,0.664 3.72,0.101 0.69,-0.331 1.15,-0.872 1.82,-1.209 0.74,-0.371 1.64,-0.11 2.42,-0.504 1.07,-0.542 3.02,-0.51 4.23,-0.807 1.34,-0.329 3.05,0.545 3.73,-1.108 0.47,-1.153 0.58,-1.99 1.61,-2.823 2.71,-2.17 5.53,-3.489 8.87,-1.713 1.63,0.864 2.89,1.954 4.74,2.318 1.59,0.313 2.5,-0.718 4.03,-0.907 1.94,-0.238 3.08,0.921 4.64,1.814 1.41,0.807 3.07,0.939 4.64,1.21 1.19,0.207 3.63,1.612 4.63,0.504 0.83,-0.911 1.29,-2.367 2.52,-2.822 0.84,-0.311 4.45,-0.629 3.63,-2.218 -0.41,-0.799 -2.19,-1.003 -2.32,-1.612 -0.23,-1.051 -0.13,-1.805 0.1,-2.823 0.17,-0.718 -0.65,-1.22 -0.3,-1.915 0.31,-0.628 0.26,-1.447 0.2,-2.116 -0.1,-1.223 -0.77,-2.844 -0.3,-4.032 0.63,-1.609 2.19,-1.58 1.51,-3.528 -0.39,-1.128 -1.92,-1.93 -2.52,-3.125 -0.51,-1.016 -2.15,-1.17 -3.12,-1.108 -1.43,0.09 -1.87,-0.148 -2.83,-1.21 2.41,-0.812 1.39,-4.084 4.24,-4.334 2.76,-0.244 5.28,-1.794 8.06,-1.512 3.16,0.321 6.5,-1.222 9.48,0.403 0.69,0.381 1.51,0.255 2.21,0.605 0.63,0.315 1.19,0.795 1.82,1.109 1.23,0.616 2.7,0.38 3.93,1.008 0,-1.281 1.4,-0.79 2.12,-0.504 0.79,0.317 3.04,0.686 3.42,1.31 0.6,0.977 2.21,1.266 3.23,1.814 0.86,0.465 0.85,0.418 1.21,1.21 0.33,0.739 1.35,0.66 1.91,1.109 1.16,0.926 2.44,1.625 3.63,2.52 1.15,0.868 1.35,2.172 2.62,3.023 0.89,0.593 2.09,2.078 3.03,2.419 0.69,0.251 2.09,1.526 2.51,2.117 1.83,2.545 5.36,3.478 6.96,6.148 0.92,1.536 1.55,1.766 3.02,2.621 0.83,0.477 1.09,2.105 1.82,2.822 1.15,1.139 2.44,2.143 4.03,2.52 1.71,0.405 2.55,0.218 4.23,0.101 1.22,-0.08 1.86,0.105 2.93,0.806 1.2,0.791 2.64,0.68 3.93,1.21 -1.08,-1.919 1.55,0.456 1.71,0.504 1.02,0.307 1.56,0.337 2.42,1.108 1.51,1.354 3.38,2.39 5.44,2.218 2.89,-0.24 0.92,1.643 2.72,2.62 1.64,0.887 3.09,1.688 3.03,3.629 0,1.081 4.4,4.01 5.44,3.83 0.63,-0.109 1.82,-0.661 2.42,-0.201 0.7,0.542 1,0.517 1.91,0.403 1.18,-0.147 4.94,0.212 4.94,-1.311 0,-2.145 2.7,-2.773 4.34,-2.116 -0.19,-0.07 1.69,-1.576 1.91,-1.714 1.27,-0.8 2.87,-1.123 4.24,-0.403 0.98,0.517 1.18,0.16 1.31,1.31 0.1,0.704 0.35,1.281 0.8,1.815 0.83,0.969 2.01,1.308 2.32,2.62 0.43,1.818 -0.79,1.13 -1.41,2.419 -0.39,0.798 0.43,1.296 0.71,1.915 0.25,0.571 0.14,1.22 0.3,1.815 0.22,0.85 0.78,1.468 1.01,2.318 0.12,0.486 -0.1,1.167 0.2,1.613 0.46,0.723 1.87,1.836 0.3,2.62 1.47,1.074 -0.27,1.67 0.3,2.923 0.32,0.691 1.3,1.568 0.2,2.117 -1.37,0.689 0,2.274 0.41,3.125 1.11,2.116 -4.19,0.482 -4.84,0.302 -0.99,-0.274 -3.25,-1.505 -4.23,-1.31 -0.49,0.1 -0.86,1.81 -1.11,2.217 -0.63,1.026 -1.51,0.785 -2.42,1.109 -0.71,0.25 1.58,2.157 1.81,2.419 2.02,2.27 3.62,4.626 4.94,7.358 1.12,2.319 3.03,3.267 3.02,6.047 0,0.486 0.43,1.554 -0.4,1.613 -1.25,0.09 -2.39,-0.01 -3.12,1.31 1.79,0.496 2.9,2.19 4.03,3.629 0.19,-1.596 -0.33,-2.302 -1.72,-3.024 0.82,-0.846 2.88,0 3.73,0.403 0.19,-0.766 0.37,-2.555 -0.3,-2.923 1.94,0.328 -0.19,-3.371 1.72,-3.225 1.44,0.11 0.11,2.131 1.51,2.117 0.57,0 1.31,-1.643 1.21,-2.117 0.34,0.407 1.96,3.646 2.31,3.427 0.72,-0.443 1.94,0.545 2.83,0.504 0.24,-0.01 2.59,0.626 2.72,0.806 0.69,0.998 1.45,0.435 2.32,0 2.82,-1.419 4.98,-2.849 7.25,-5.14 0.82,-0.818 2.88,-4.21 1.41,-4.939 0.92,-0.553 0.45,-2.07 0.61,-2.923 0.2,-1.094 0.15,-1.007 1.01,-1.714 0.7,-0.579 -0.7,-2.303 0.5,-2.419 0.42,-0.04 0.39,-1.66 0.51,-2.016 0.33,-1.013 0.1,-1.675 0.7,-2.62 0.47,-0.716 0.73,-1.368 1.11,-2.117 0.9,-1.766 1.76,-4.682 1.21,-6.652 -0.24,-0.866 0.12,-1.072 0.1,-1.814 -0.18,-0.39 -0.34,-0.812 -0.5,-1.21 -0.26,-1.083 -0.72,-2.805 -0.1,-3.83 1.32,-2.212 -0.61,-4.581 0.5,-6.854 0.94,-1.932 2.64,-3.568 1.21,-5.644 -0.56,-0.815 -0.84,-3.558 -2.02,-3.125 0.73,-0.29 -0.21,-2.039 -0.9,-2.218 0.34,-0.893 0,-1.957 -0.51,-2.721 -0.99,-1.606 -2.99,-2.011 -1.91,-4.132 -1.65,0.542 -4.14,-3.453 -4.84,-4.536 -0.66,-1.018 -0.37,-2.509 -1.11,-3.427 -0.54,-0.675 -2.23,-2 -0.91,-2.822 -0.8,-0.169 -1.41,-1.653 -0.7,-2.218 0.77,-0.618 -0.27,-1.773 0.7,-2.419 -1.81,-0.483 -0.44,-2.152 -2.11,-2.52 -0.97,-0.211 -3.04,-0.692 -3.13,-1.915 -0.25,-3.338 -5,-3.724 -7.26,-5.342 1.26,-0.236 2.63,0.651 3.73,1.109 -0.18,-1.897 0.46,0.244 0.71,-0.706 0.46,-1.774 -3.94,-2.388 -4.64,-2.721 -1.32,-0.628 -2.39,-1.513 -3.83,-2.016 -1.17,-0.412 -2.37,-0.828 -3.42,-1.512 -1.8,-1.163 -4.45,-3.976 -6.86,-3.729 -1.35,0.138 -2.09,0.909 -3.53,0.504 -1.02,-0.288 -2.34,-0.886 -3.42,-0.605 1.12,0.187 0.97,1.139 1.61,1.814 0.69,0.727 0.92,0.678 1.41,1.613 0.91,1.749 1.68,2.661 -0.5,3.125 0.16,-0.803 0.52,-3.543 -0.71,-3.73 -1.21,-0.184 -0.11,1.863 -1.21,2.621 -1.04,0.719 -3.46,1.404 -4.63,0.806 -0.33,-0.167 0.77,-2.99 1.21,-3.326 -1.44,-0.354 -3.48,-0.175 -4.54,-1.411 1,0.09 1.26,-0.97 1.41,-1.714 -0.9,0.264 -3.29,-0.06 -2.62,1.613 0.33,0.824 1.12,0.308 1.61,0.807 0.36,0.361 0.4,1.048 0.51,1.511 -1.28,0.249 -3.1,1.156 -3.63,-0.705 -0.27,-0.917 -0.64,-1.644 -1.21,-2.419 -0.25,-0.344 -1.27,-0.989 -1.31,-1.411 -0.21,-2.173 -3.26,-1.94 -4.74,-1.815 -2.14,0.18 -3.89,-0.09 -5.95,-0.705 -1.43,-0.431 -4.25,-1.614 -1.91,-3.427 0.74,-0.571 1.63,-0.862 2.12,-1.714 0.34,-0.607 -0.1,-1.472 0.4,-2.015 0.43,-0.518 1.23,-0.415 1.51,-1.109 0.27,-0.676 0.98,-1.335 1.51,-1.814 1,-0.894 0.41,-3.947 2.12,-4.032 -0.76,-0.332 -1.3,-0.72 -1.11,-1.613 0.15,-0.69 -0.2,-2.163 0.3,-2.62 0.74,-0.668 0.66,-1.768 1.41,-2.42 0.74,-0.636 1.28,-0.902 1.62,-1.915 0.26,-0.797 -0.2,-1.915 1,-2.015 1.17,-0.1 1.09,-0.713 0.61,-1.512 -0.49,-0.814 -1.39,-2.135 -1.11,-3.125 0.32,-1.12 1.93,-1.378 2.52,-2.318 0.7,-1.109 -0.2,-2.306 0.2,-3.427 0.52,-1.442 2.03,-1.825 3.33,-2.218 1.18,-0.358 1.93,-0.07 3.12,-0.201 1.32,-0.139 2.26,-0.566 3.63,-0.403 3.11,0.37 6.18,-0.37 9.27,-0.101 1.23,0.107 1.42,0.866 2.32,1.512 0.97,0.693 2.02,-0.117 3.03,0.302 -2.72,-3.012 0.53,-1.245 2.31,-1.411 1.15,-0.107 2.49,0.116 3.53,0.605 0.89,0.419 1.62,-0.341 2.42,0.201 -0.18,-0.254 -0.35,-0.533 -0.5,-0.806 1.7,-0.576 3.21,-0.493 4.63,0.605 0.82,0.627 2.07,-0.232 3.03,0.302 -0.46,-1.263 -3.04,-0.649 -2.82,-2.217 0.71,0.399 1.56,0.1 2.31,0.201 -0.94,-0.392 -2.27,-0.812 -1,-1.713 1.52,-1.085 4.19,0.04 5.84,0.403 0.5,0.111 6.78,2.538 5.95,0.706 2.25,-0.413 4.27,0.634 6.15,1.713 1.41,0.813 3.21,0.234 4.43,1.21 -0.86,0.71 -2.11,0.428 -3.12,0.403 -1.05,-0.03 -1.99,0.441 -3.03,0.504 2.4,1.649 4.85,1.761 7.66,1.512 -0.17,-0.239 -0.34,-0.464 -0.5,-0.706 1.22,-0.458 4.4,0.07 5.54,0.706 -1.1,-0.693 -0.41,-1.326 0.31,-1.916 0.87,-0.721 0.5,-0.726 2.01,-0.403 0.57,0.121 5.69,1.788 4.24,0 1.75,-0.443 2.91,1.038 4.73,-0.403 -1.43,-0.403 -5.05,-3.842 -6.75,-1.915 0.25,0.189 0.53,0.357 0.81,0.504 -0.71,-0.303 -1.49,-0.113 -2.22,-0.302 -0.8,-0.207 -1.42,-1.939 -0.1,-1.21 -0.56,-0.253 -3.87,-2.676 -1.72,-2.318 -0.66,-0.759 -1.05,-1.802 -1,-2.822 0.1,-1.279 0.82,-1.298 1.51,-2.117 0.38,-0.454 0.99,-1.374 0.8,-1.915 -0.28,-0.814 -1.52,-2.71 -0.2,-3.427 1.08,-0.583 -0.69,-1.721 -1.11,-2.217 1.16,-0.274 0.7,-2.219 2.22,-1.714 0,-0.264 0,-0.542 -0.1,-0.806 1.2,0.137 2.45,0.236 3.63,0.504 0.66,0.15 1.84,-0.512 2.62,-0.504 1.09,0.01 1.96,-0.682 3.02,-0.807 1.07,-0.125 1.96,0.741 2.93,1.008 1.01,0.279 1.44,1.599 2.31,0.101 0.53,-0.909 1.16,-1.666 2.22,-0.806 0.68,0.548 1.3,1.549 1.72,2.318 0.37,0.689 -0.61,0.969 0.5,1.411 -0.87,0 1.83,1.256 -0.4,0.706 1,0.594 1.97,1.216 2.62,2.217 0.89,1.376 1.37,-0.576 2.72,-0.101 1.15,0.405 0.63,1.762 1.31,2.016 0.73,0.273 0.67,1.138 1.41,1.512 0.45,-1.062 1.53,-1.591 2.62,-1.109 -1.38,-1.446 0.71,-3.381 0.71,-4.939 0,-1.891 1.45,-2.415 2.92,-2.015 -1.83,-0.54 0.19,-0.794 0.81,-0.504 0.74,0.35 1.33,0.935 2.11,1.209 -0.16,-0.232 -0.27,-0.457 -0.4,-0.705 0.24,-0.127 0.46,-0.19 0.7,-0.303 -1.16,-1.191 -2.86,-0.834 -4.03,-2.318 -0.58,-0.734 -3.2,-2.258 -2.01,-3.225 -0.86,-0.08 -1.79,-0.432 -2.12,-1.311 2.29,-0.711 5.1,-1.883 7.46,-0.806 2.4,1.093 5.01,1.008 7.56,1.411 -1.02,0.243 -2,-0.101 -3.03,-0.101 0.68,0.508 1.49,0.711 2.22,1.109 -1.2,-0.521 -4.2,-1.877 -5.44,-1.008 -2.14,1.495 0.72,3.433 1.91,4.334 1.02,0.771 1.07,1.438 1.52,2.52 0.57,1.394 1.85,0.841 2.82,1.613 1.22,0.979 0.1,0.998 0.3,2.116 0.2,1.041 1.38,1.205 2.22,1.411 -0.28,0.114 -1.15,1.242 -1.41,1.109 -0.6,-0.299 -1.54,-0.395 -2.12,0 -0.35,0.238 -0.26,0.927 -0.6,1.21 -0.79,0.633 -1.68,1.063 -2.52,1.612 0.43,0.66 1.32,0.936 1.61,1.714 0.2,0.559 -0.8,1.117 -0.91,1.613 -0.22,0.991 0.28,1.873 -0.3,2.822 -0.57,0.92 -1.42,0.02 -1.01,1.411 0.47,1.606 -1.52,2.996 0.1,4.435 1.2,1.06 -0.33,2.552 0.91,3.528 -1.14,-0.689 -0.61,0 -1.01,0.705 -0.25,0.434 -0.53,0.895 -0.81,1.31 -0.45,0.673 -0.89,1.522 0.21,1.815 -1.23,-0.597 -2.59,0.429 -3.83,-0.202 -0.29,0.494 0.42,1.752 -0.21,2.016 -1.01,0.427 -2.32,-0.567 -3.42,-0.302 0.74,1.288 2.36,1.766 3.42,2.721 0.93,0.831 0.85,2.192 1.62,3.125 -1.04,-0.378 -1.26,1.988 -1.21,2.923 -0.43,-1.685 -0.37,0.178 -0.2,0.604 0.3,0.76 0.83,1.361 1.31,2.016 1,1.364 1.97,2.81 3.02,4.133 2.78,3.494 5.46,6.55 8.87,9.474 3.98,3.415 8,6.872 11.89,10.382 2.46,2.211 6.23,7.729 9.88,7.761 -1.46,0.149 0,0.872 0.61,1.411 0.65,0.616 1.33,1.125 2.01,1.714 1.37,1.183 2.67,2.435 3.83,3.83 1.03,1.235 2.04,2.567 3.43,3.427 1.2,0.74 2.74,1.241 3.22,2.721 0.92,-0.957 1.13,-2.152 1.82,-3.225 0.47,-0.737 -0.35,-0.986 0.3,-1.714 1.61,-1.776 0.69,-4.458 -0.2,-6.45 -0.38,-0.85 -1.37,-1.262 -2.02,-1.915 -0.46,-0.475 -0.27,-0.965 -0.7,-1.412 -0.43,-0.444 -0.94,-1.717 -1.51,-1.814 -0.6,-0.101 -1.24,0 -1.31,-0.806 0.87,-0.379 1.63,0.396 2.21,0.907 0.76,-0.912 2.14,-2.621 3.53,-2.621 0.62,0 1.11,-0.526 1.51,0.202 0.34,0.604 1.41,0.817 2.02,0.907 -0.89,-1.637 -2.84,-2.156 -4.23,-3.225 1.71,0.838 -1.8,-1.983 -2.12,-2.419 -0.83,-1.124 -2.14,-2.481 -1.11,-3.831 0.92,-1.206 0.97,-2.844 2.92,-2.721 0.94,0.06 1.69,0.891 2.62,0.806 0.71,-0.06 1.42,-0.32 2.12,-0.1 -0.17,-0.749 0.65,-1.743 0.1,-2.419 -0.7,-0.867 -1.97,-1.378 -2.92,-1.916 -1.82,-1.033 -3.59,-1.977 -5.04,-3.527 -1.26,-1.342 -1.67,-2.872 -2.52,-4.435 -0.65,-1.198 2.14,-2.431 -0.51,-2.923 0.28,-0.894 1.28,-1.07 2.02,-0.605 -0.16,-0.664 0.72,-0.906 0.81,-0.302 0.12,0.838 -0.92,0.839 -0.31,1.814 0.66,1.044 3.35,2.606 4.24,1.209 0.88,-1.379 -3.96,-4.789 -5.34,-5.039 -1.56,-0.282 -2.06,0 -3.43,-1.21 -0.91,-0.801 -1.68,-1.659 -2.62,-2.419 -0.48,-0.381 -1.46,-0.952 -1.31,-1.713 0.22,-1.121 0.8,-1.637 -0.2,-2.621 -1.15,-1.128 -3.16,-1.25 -4.64,-1.713 -2.35,-0.734 -1.16,0.564 -0.81,1.612 -0.63,-0.827 -2.42,-0.853 -3.22,-1.209 -1.58,-0.701 -2.54,-1.533 -3.43,-3.024 -0.23,-0.383 -2.51,-6.564 -0.2,-5.644 -0.45,-0.466 -1.09,-0.821 -1.71,-1.008 0.52,-0.245 1.08,-0.245 1.61,0 -0.19,-0.216 -3.3,-1.958 -1.11,-1.613 -0.31,-0.526 -3.07,-1.749 -2.72,-2.217 0.78,-1.048 -1.43,-1.243 -1.31,-2.52 0.59,0.176 0.97,-0.197 1.01,-0.807 -0.36,-0.04 -0.75,-0.04 -1.11,-0.1 1.48,-1.103 3.22,0.875 4.43,0 -1.64,-0.57 0.76,-0.772 1.62,-0.202 0.76,0.506 1.37,1.243 2.21,1.613 0.99,0.433 2.01,-0.43 1.31,-1.411 -0.43,-0.62 -1.66,-0.677 -2.32,-0.908 0.91,-0.07 1.36,0.06 2.12,-0.504 0.85,-0.625 0.84,-1.856 1.51,-2.318 0.86,-0.587 2.29,1.225 2.83,1.714 0.66,0.601 2.41,4.579 3.72,3.225 0.89,-0.912 0.24,-3.058 0,-4.132 0.52,0.1 1.02,0.145 1.52,0 -0.21,-0.25 -0.38,-0.476 -0.61,-0.706 1.63,0.924 3.54,-0.791 5.14,-1.008 1.72,-0.233 4.05,-0.236 5.75,0.101 4.15,0.823 8.04,3.541 11.89,5.241 0.77,-1.053 -1.96,-3.777 -2.82,-4.132 1.01,0.201 0.79,0.01 0.3,-0.605 0.96,0.229 3.81,-0.648 2.02,-1.714 0.78,0.3 1.54,-1.056 1.51,-1.411 0.94,0.79 1.31,-0.264 0.6,-0.705 -0.43,-0.268 -0.96,-0.386 -1.41,-0.605 0.79,0.09 1.52,0.496 2.32,0.504 -0.36,-0.48 -0.9,-0.78 -1.51,-0.806 0.99,-0.04 1.04,-0.258 0,-0.605 0.32,0 1.27,0.273 1.51,0 0.48,-0.547 -0.27,-0.972 -0.7,-1.008 0.52,0.1 0.98,0.206 1.51,0.302 -0.63,-0.726 -1.55,-0.864 -2.42,-1.109 1.01,-0.65 2.08,0.708 3.02,-0.1 -0.52,-0.466 -0.83,-0.955 0.3,-0.907 -0.54,-0.359 -1.05,-0.773 -1.41,-1.311 0.66,-0.05 1.27,0.277 1.92,0.303 0.77,0.03 1.38,-0.657 0.2,-1.008 1.16,-0.229 2.45,0.417 3.53,-0.303 -0.41,-0.459 -0.91,-0.79 -1.51,-0.907 1.07,0.06 1.94,0.125 2.92,-0.403 -0.16,-0.271 -0.33,-0.548 -0.5,-0.806 0.96,0.296 2.91,-0.726 3.62,-1.311 1.47,-1.204 1.66,-2.005 3.83,-2.116 -1.08,-0.236 -2.16,-0.188 -3.02,-1.008 -0.49,-0.466 -0.87,-1.028 -1.51,-1.311 1.1,0.265 1.96,1.177 3.12,1.21 -1.47,-1.684 1.4,0.39 1.72,0.605 1.08,0.75 2.97,0.436 4.23,0.604 2.85,0.381 6.02,0.643 8.67,1.815 -0.11,-0.564 -0.55,-0.967 -1.11,-1.109 0.95,-0.06 0.91,-1.615 0.3,-2.117 -1.24,-1.023 -3.07,-0.995 -4.43,-1.814 -1.14,-0.679 -1.24,-1.719 -2.72,-2.117 -1.29,-0.344 -2.61,-0.734 -3.94,-0.907 0.27,-0.04 0.56,-0.05 0.81,0 -1.19,-0.578 -2.42,-1.167 -3.53,-1.915 0.49,0.397 1.05,0.733 1.62,1.008 -1.25,0.585 -2.29,-1.391 -3.73,-0.504 0,-1.09 1.23,-0.676 1.81,-0.403 -1.06,-0.376 -1.06,-0.486 0,-0.302 -0.49,-0.382 -1,-0.752 -1.51,-1.109 -0.65,-0.446 -1.35,-0.894 -2.12,-1.109 -0.57,-0.159 -1.16,-0.281 -1.71,-0.504 -0.35,-0.142 -1.65,-1.07 -0.1,-0.403 -1.49,-0.985 -3.16,-1.597 -4.74,-2.419 -0.35,0.542 -0.11,0.9 0.5,1.008 -2.27,0.159 -6.56,-0.713 -7.96,-2.721 -0.83,-1.196 -2.61,-2.266 -3.63,-0.605 -0.39,0.642 -1.43,0.03 -1.91,-0.101 -0.82,-0.223 -1.35,0.429 -2.12,0.504 0.25,-0.227 0.48,-0.453 0.71,-0.706 -1.52,-0.747 -3.08,-1.399 -4.74,-1.713 1.38,-0.229 2.81,1.102 4.13,0.504 1.38,-0.622 2.65,1 4.03,0.504 -0.61,-1.168 -2.51,-1.79 -3.73,-1.915 -0.72,-0.08 -1.4,0.237 -2.11,0.302 -0.62,0.06 -1.09,-0.494 -1.72,-0.403 2.72,-0.917 6.74,0.309 9.08,1.713 2.57,1.545 5.81,1.164 8.66,1.008 -0.16,0.241 -0.33,0.467 -0.5,0.706 0.53,0.06 2.56,-1.187 2.92,-1.613 0.37,-0.428 0.24,-0.914 0.41,-1.411 0.21,-0.622 0.88,-0.471 1.31,-0.806 0.72,-0.564 -0.69,-2.054 -1.21,-2.218 -0.47,-0.146 -2.46,-0.08 -2.02,0.404 -2.12,-0.98 2,0 1.71,-1.311 -0.25,-1.174 -4.29,-1.651 -5.24,-2.016 -1.44,-0.559 -3.35,-1.498 -3.83,-3.124 0.61,0.811 1.66,0.616 2.32,0 -0.79,-0.298 -1.55,-0.665 -2.32,-1.008 0.5,0.124 1,0.127 1.52,0.101 -0.26,-0.23 -0.43,-0.403 -0.71,-0.605 1.33,0.456 2.28,1.847 3.83,1.613 0,-0.542 -0.16,-0.995 -0.5,-1.412 1.39,-0.07 3.68,2.882 2.11,2.722 1.51,0.595 2.92,1.518 4.54,1.814 1.4,0.256 2.09,1.723 3.43,2.117 1.41,0.419 3.82,0.488 5.24,0.101 0.72,-0.197 1.22,-1.008 2.01,-1.008 0.82,0 1.61,0.228 2.42,0.302 3.54,0.322 7.27,1.757 10.28,3.629 1.41,0.877 2.85,1.331 4.44,1.814 0.55,0.17 4.42,1.191 2.42,0 2.87,1.61 6.58,1.579 9.67,2.822 2.18,0.875 6.03,1.347 2.22,-1.008 2.09,0.446 3.64,3.637 6.05,2.52 -0.34,-0.78 -1.03,-1.399 -1.92,-1.411 1.23,-0.684 2.5,0.971 3.83,0.403 -1.1,-0.893 -4.79,-2.421 -6.25,-1.814 0.98,-1.13 -1.22,-1.703 -1.91,-1.008 0,-0.995 1.2,-0.724 2.22,-0.907 0.59,-0.106 0.49,-0.526 0.2,-0.907 -1.13,-1.492 -2.67,-1.305 -4.34,-1.512 0.74,-0.368 1.56,-0.385 2.32,-0.101 -0.77,-0.445 -1.42,-0.958 -2.01,-1.613 -0.34,-0.365 -1.43,0.155 -1.92,-0.201 -1.36,-0.982 -2.95,-1.222 -4.54,-1.613 1.61,-0.261 3.13,0.249 4.64,0.705 0.84,0.253 4.12,0.317 2.22,0.807 1.03,0.06 2,-0.448 3.02,-0.403 0.81,0.04 1.61,0.484 2.42,0.504 -1,-1.946 -4.34,-1.709 -6.05,-2.621 2.42,0.356 4.59,1.553 7.06,1.613 -0.15,-1.324 -3.28,-2.19 -0.91,-3.327 -1.08,-0.745 -2.21,-0.667 -3.42,-1.007 1.86,0.237 0,-0.577 -0.41,-0.706 -0.65,-0.222 -1.49,-0.232 -2.01,0.302 0.31,-1.575 -7.04,-2.772 -8.07,-3.023 -1.62,-0.397 -3,-1.158 -4.53,-1.815 -2.15,-0.921 -4.71,-0.753 -7.06,-0.907 -0.2,-0.09 -2.25,-0.316 -2.52,-0.302 1.3,0.459 2.72,0.285 4.03,0.705 -1.34,0.215 -2.9,0.467 -4.13,-0.302 0.2,0.254 0.43,0.533 0.61,0.806 -0.8,0.25 -3.33,-1.31 -1.52,-1.31 -0.75,-0.178 -1.56,0.1 -2.31,0 -0.57,-0.07 -0.95,-0.383 -1.52,-0.403 -1.43,-0.05 -3.5,0.02 -4.94,0.201 0.51,0.07 9.16,2.074 7.26,3.629 1.1,0.735 2.63,0.447 3.83,1.008 0.89,0.416 1.31,1.118 1.82,1.915 -0.46,-0.132 -4.27,-2.931 -3.63,-1.21 -1.63,0.06 -2.93,-1.512 -4.54,-1.713 -0.72,-0.09 -3.57,-1.461 -1.71,-1.008 -1.71,-1.196 -3.76,-1.797 -5.44,-3.024 -1.39,-1.004 -2.66,-2.204 -4.44,-2.419 0.25,0.177 0.48,0.297 0.71,0.504 -0.7,0.631 -4.85,-2.258 -5.65,-2.52 -2.53,-0.833 -5.27,-1.144 -7.86,-1.713 -1.32,-0.289 -2.52,-0.696 -3.83,-1.008 -0.88,-0.21 -1.89,-0.03 -2.72,-0.303 -0.92,-0.3 -1.81,-0.904 -2.82,-0.604 -0.45,0.132 -2.24,-0.749 -0.51,-0.403 -0.54,-0.147 -1.07,-0.249 -1.61,-0.404 -1.1,0.764 -3.19,-0.556 -4.23,-0.907 -1.77,-0.594 -3.56,-0.485 -5.25,-1.411 0.71,0.12 1.44,0.288 2.12,0.504 -4.48,-1.695 -9.24,-2.367 -13.91,-3.326 -1.66,-0.698 -3.44,-0.901 -5.14,-1.512 -1.6,-0.577 -3.82,0.358 -5.14,-1.008 0.81,0.04 1.63,0.378 2.42,0.504 -2.91,-1.627 -6.45,-0.793 -9.58,-1.512 -3.29,-0.758 -6.7,-1.102 -9.97,-1.915 -3.35,-0.831 -6.09,-0.421 -9.48,-0.504 -1.56,-0.04 -3.18,0.05 -4.74,0 -1.56,-0.05 -2.95,-0.806 -4.53,-0.605 0.77,0.209 1.45,0.473 2.22,0.706 -0.74,0.936 -2.93,-0.203 -3.73,-0.504 -1.29,-0.481 -2.46,-0.562 -3.83,-0.605 -4,-0.125 -8.13,-1.275 -12.1,-1.008 1.65,0.423 2.98,1.55 4.34,2.52 -1.11,0.06 -1.18,1.341 0,1.411 1.22,0.07 2.16,-0.05 3.32,0.504 2.3,1.088 4.7,1.87 6.75,3.427 -0.24,0.26 -0.47,0.536 -0.7,0.806 0.51,0.297 0.96,0.633 1.41,1.008 -0.46,-0.297 -0.91,-0.575 -1.41,-0.806 0.26,0.591 0.79,0.965 1.41,1.109 -2.11,-0.667 -4.27,0.307 -6.35,-0.202 -1.49,-0.366 -2.5,-1.603 -3.93,-2.116 -3.09,-1.109 -6.83,-0.228 -9.58,-2.319 -0.85,-0.654 -6.11,-3.917 -6.85,-2.116 -0.89,2.169 -4.59,1.549 -6.35,1.209 -3.84,-0.744 -7.71,-0.04 -11.49,-1.209 -1.93,-0.597 -4.06,0.13 -6.05,0.1 -1.96,-0.03 -3.88,0.09 -5.84,0.101 -2.02,0.02 -3.65,1.177 -5.65,0.504 -1.63,-0.548 -3.33,-0.791 -5.04,-1.008 -1.59,-0.202 -2.98,-0.322 -4.43,-1.108 -0.45,-0.241 -0.35,-1.055 -0.71,-1.412 -0.2,-0.204 -0.5,-0.272 -0.8,-0.302 0.26,0.01 0.54,-0.03 0.8,0 -1.97,-1.181 -3.34,-2.665 -5.64,-3.427 -2.13,-0.703 -4.25,-1.512 -6.45,-1.915 -4.84,-0.884 -9.84,-1.13 -14.72,-1.613 -4.76,-0.472 -9.48,0.382 -14.11,1.411 -4.21,0.935 -8.88,0.452 -13,-0.705 0.76,0.07 1.56,0.221 2.32,0 -1.65,-1.498 -4.33,-2.05 -6.46,-2.419 -1.36,-0.237 -3.02,-0.655 -4.33,0 -0.73,0.366 -1.8,0.66 -2.62,0.705 1.51,-0.968 1.74,-1.651 -0.3,-1.915 -1.84,-0.236 -2.33,0.576 -3.63,-0.604 -1.79,-1.632 -6.25,1.096 -7.46,-1.311 0.96,-0.03 1.51,0.471 1.51,-0.705 1.03,0 1.98,0.686 3.03,0.604 1.67,-0.131 -0.93,-1.595 -1.31,-1.713 -3.41,-1.036 -6.74,-1.595 -10.29,-1.915 -1.95,-0.175 -3.98,-0.276 -5.94,-0.202 -1.94,0.07 -1.68,1.173 -1.82,2.722 -0.17,2.032 -5.37,2.08 -6.55,1.209 1.74,-0.177 -0.9,-0.931 -1.41,-1.31 1.55,0.285 3.08,0.145 4.64,0.302 -0.43,-0.807 -1.29,-0.679 -2.02,-1.008 -0.65,-0.296 -0.48,-1.119 -1.31,-1.209 0.96,-0.201 2.48,0.524 3.13,1.209 0,-0.265 0,-0.543 0.1,-0.806 1.22,-0.03 1.03,1.772 2.01,2.217 1.25,-2.697 -0.46,-3.225 -2.52,-3.225 -0.68,0 -1.45,0.06 -2.11,0.101 -1.72,0.113 -4.03,0.05 -5.65,0.605 -1.12,0.387 -2.16,0.322 -3.22,-0.404 0.58,-0.125 1.18,0.03 1.71,0.303 -0.41,-2.329 3.23,-1.229 4.54,-1.008 1.52,0.258 3.12,0.409 4.73,0.403 0.79,0 1.57,-0.07 2.32,-0.101 -5.67,-2.431 -13.11,-1.814 -19.15,-2.318 -3.31,-0.276 -6.66,-0.403 -9.98,-0.403 -2.87,0 -5.99,-0.897 -8.87,-1.21 0.72,0.638 1.74,0.742 2.62,1.008 0.91,0.272 1.72,1.298 2.72,1.21 -1.37,-0.02 -2.63,0.729 -4.03,0.705 -1,-0.02 -2.14,-0.332 -3.12,0 -1.55,0.525 0,1.594 1.11,2.117 0.1,-0.194 1.83,-0.112 2.31,-0.202 0.87,-0.159 1.77,-0.169 2.63,0.101 -0.55,0.298 -1.15,0.351 -1.72,0.101 -0.19,0.622 0.2,1.177 0.71,1.512 -0.5,0.06 -1.01,0.115 -1.51,0.101 2.63,0.579 5.33,1.862 7.66,3.326 -1.9,-0.591 -3.53,0.721 -5.45,-0.202 -0.62,-0.298 -3.26,-1.747 -3.32,-0.201 -0.64,-0.792 -1.58,-0.449 -2.42,-0.403 1.1,2.062 1.6,1.366 3.73,1.915 -0.55,-0.05 -1.1,0 -1.62,0.201 0.29,0.178 0.62,0.346 0.91,0.504 -0.53,-0.08 -1.08,-0.08 -1.61,0 0.77,0.286 1.64,0.07 2.32,0.605 -4.45,-0.714 -8.65,-2.421 -13.11,-3.225 -1.1,-0.199 -2.3,-0.414 -3.42,-0.303 -1.01,0.1 -2.07,1.086 -3.03,1.008 -1.2,-0.1 -0.44,0.977 -0.1,1.512 -0.91,-1.578 -4.16,-0.884 -5.64,-1.008 -2.73,-0.229 -4.83,-1.253 -7.36,-2.117 -0.87,-0.296 -4.2,-2.585 -3.63,-0.1 0.29,1.254 1.81,3.469 3.23,3.628 -1.61,0.428 0.95,4.593 -2.22,3.326 -2.1,-0.84 -4.31,-1.017 -6.35,-1.915 -2.53,-1.114 -5.36,-1.242 -7.76,-2.721 -1.03,-0.633 -1.9,-1.24 -3.13,-1.31 -0.61,-0.03 -1.52,0 -1.61,-0.807 0.84,0 1.68,-0.61 2.52,-0.201 -1.36,-0.857 -2.95,-1.565 -4.53,-1.915 0.8,0.457 1.71,0.853 2.52,1.31 -1.33,1.624 -7.79,-1.634 -8.77,-2.923 2.39,0.325 5.1,2.175 7.45,0.705 -1.38,0.09 -0.62,-0.414 -0.1,-0.705 -1.54,-0.275 -2.67,-1.458 -4.23,-1.714 -1.57,-0.258 -3.3,0.301 -4.74,-0.604 0.96,0.02 1.99,0.484 2.83,-0.202 -0.31,-0.141 -0.64,-0.309 -0.91,-0.504 0.48,0.09 1.16,0.152 1.51,-0.302 -1.05,-0.106 -2.06,-0.339 -3.12,-0.403 0.66,-0.249 1.39,-0.02 2.01,-0.404 -1.61,-0.338 -3.37,-0.181 -4.94,-0.705 0.83,-0.06 1.77,-0.272 2.12,-1.109 -0.71,-0.502 -1.24,0.404 -1.71,0.101 -0.27,-0.171 -0.1,-0.669 -0.41,-0.807 -1.51,-0.589 -3.06,-0.24 -4.53,-0.907 -1.25,-0.565 -2.38,-0.986 -3.23,-1.008 -1.52,-0.04 -3.95,-0.923 -5.34,-0.302 0.26,0.197 0.54,0.317 0.81,0.504 -0.93,0.01 -1.8,0.374 -2.73,0.302 -0.58,-0.05 -2.5,-0.348 -0.7,-0.806 -1.39,-0.615 -2.38,0.593 -3.73,0.504 -0.41,-0.03 -0.54,-0.659 -1.01,-0.706 -0.53,-0.04 -1,-0.129 -1.51,-0.302 -1.63,-0.66 -3.23,-0.685 -4.94,-1.008 -1.3,-0.245 -2.67,0.236 -3.93,-0.302 0.3,0.222 0.64,0.447 0.91,0.705 -0.73,0.71 -1.57,0.148 -2.22,-0.302 -0.27,1.847 2.71,3.151 4.13,3.427 -1.62,0.433 1.47,1.43 -0.7,1.814 -1.16,0.203 -2.46,-0.268 -3.63,-0.201 -2.71,0.158 -5.56,0.347 -8.27,0.201 -3.24,-0.176 -6.42,-0.603 -9.67,-0.806 -2.25,-0.14 -5.14,-0.473 -6.76,-2.218 0.63,-0.706 1.44,-0.35 2.22,-0.403 -1.91,-2.353 -8.4,-0.843 -11.09,-1.109 -5.9,-0.585 -11.82,-0.64 -17.63,0.706 0.95,0.695 2.44,1.271 3.62,1.008 -1.55,0.515 -1.88,0.189 -3.42,-0.202 -1.59,-0.401 -0.63,-0.994 -1.31,-1.612 -1.34,-1.202 -3.68,-1.834 -5.35,-2.419 0.47,0.484 1.03,0.886 1.62,1.209 -1.06,1.336 -3.93,0.921 -5.34,0.706 -0.77,-0.117 -6.08,-1.972 -3.73,-2.218 -0.56,-0.32 -1.56,-0.557 -1.62,0.303 -0.1,0.933 -2.42,-0.03 -2.82,-0.101 -0.81,-0.151 -2.72,-0.507 -3.43,0.101 -0.5,0.429 -0.16,0.807 -1,1.008 1.62,3.066 5.71,-1.089 7.86,0.907 -2.53,0.875 -4.84,1.86 -7.56,1.209 0.48,0.252 0.98,0.473 1.51,0.605 -0.94,-0.31 -2,0.622 -2.92,0.706 -0.84,0.08 -1.68,0.23 -2.52,0.302 1.89,0.377 -1.63,0.752 -2.12,0.806 -1.3,0.143 -2.64,-0.11 -3.93,0 -0.98,0.08 -1.87,-0.13 -2.82,-0.101 -0.98,0.03 -0.47,1.111 0.1,1.311 -1.33,1.304 -2.9,1.841 -4.74,1.512 0.8,-0.02 2.75,-0.6 2.62,-1.714 -0.1,-0.715 -0.53,-1.752 0.71,-1.915 0.47,-0.06 2.01,0.349 2.01,-0.504 0,-0.802 0.98,-1.389 1.62,-1.613 1.06,-0.372 2.4,-0.291 3.52,-0.503 1.07,-0.203 0.71,-0.723 1.21,-1.311 1.04,-1.209 3.85,-0.838 4.24,-2.62 -0.72,-0.438 -1.56,-0.182 -2.32,-0.404 1.08,-0.286 2.21,-0.05 3.22,-0.604 -0.26,-0.175 -0.53,-0.343 -0.8,-0.504 1.78,-0.291 2.68,-0.436 4.23,-1.311 0.65,-0.369 1.47,0.332 2.02,0 0.4,-0.245 0.24,-0.841 0.4,-1.209 0.21,-0.48 1.4,-0.381 1.81,-0.504 1.02,-0.305 1.51,-0.998 2.22,-1.714 1.48,-1.48 -2.46,-2.607 -3.32,-2.822 -1.13,-0.279 -2.07,0.583 -3.03,-0.302 -1,-0.922 -2.42,-0.751 -3.63,-1.21 2.86,-0.523 5.8,1.617 8.57,1.613 -0.59,-0.653 -0.79,-1.693 -1.71,-2.016 -0.98,-0.339 -1.35,0.187 -2.32,-0.302 -1.48,-0.748 -2.66,-2.629 -4.54,-2.117 0.7,0.416 1.49,0.577 2.22,0.907 -0.83,-0.176 -1.7,-0.386 -2.22,0.504 -0.19,-0.651 -2.03,-1.597 -2.62,-1.915 -0.89,-0.481 -2.78,-1.295 -3.63,-0.302 -0.1,-2.143 -8.55,-2.482 -10.08,-2.419 -2.04,0.08 -4.12,-0.234 -6.14,0 -2.24,0.258 -4.44,-0.124 -6.66,0.101 1.61,1.125 -0.79,1.382 -1.61,1.411 -1.68,0.06 -3.62,0.55 -5.24,0 1.2,0.126 3.14,-2.407 1.11,-3.024 -2.86,-0.869 -6.37,-0.151 -9.27,0.101 0.59,-0.07 1.07,-0.391 1.1,-1.008 -2.88,0.457 -5.86,0.216 -8.76,0.302 1.64,-0.616 3.38,-0.323 5.03,-0.806 1.16,-0.338 2.17,-1.072 3.43,-0.907 -1.93,-1.195 -4.12,-0.894 -6.25,-1.311 -1.86,-0.365 -3.6,-0.536 -5.44,-0.806 -0.46,-0.07 -0.97,-0.103 -1.41,-0.101 z m 500.74,64.709 c -1.63,-0.468 -3.26,-1.048 -4.94,-1.31 1.63,0.444 3.32,0.853 4.94,1.31 z m -332.72,97.871 c 0,-0.08 1.36,0.08 1.71,0.403 0.62,0.557 0.93,1.463 1.21,2.217 0.72,1.919 1.51,3.812 2.42,5.645 0.47,0.936 0.38,1.95 0.91,2.923 0.4,0.722 1.12,1.226 1.51,1.915 0.78,1.345 -0.87,2.729 0.41,4.032 -1.2,1.195 -1.46,-1.683 -2.52,-1.613 -0.88,0.06 -0.7,2.164 -0.91,2.721 1.12,-0.132 3.27,-0.743 3.43,1.008 0.15,1.755 -2.88,0.595 -2.63,2.621 0.48,3.824 -4.43,2.557 -5.84,5.039 -0.3,0.525 0,1.551 -1.01,1.311 -0.7,-0.173 -1.17,-0.52 -1.91,-0.303 -1.18,0.342 0,2.115 0.1,2.823 0.35,3.191 -3.47,3.178 -5.55,4.031 -2.74,1.437 -6.48,0.06 -9.07,-1.108 0.99,-0.832 2.6,-0.959 3.83,-1.008 1.08,-0.04 1.84,-0.664 2.82,-0.605 1.92,0.115 3.49,-1.687 3.83,-3.528 0.22,-1.169 0.6,-1.923 1.72,-2.419 0.62,-0.276 1.33,-0.634 1.41,-1.411 0.1,-0.887 1.17,-1.399 0.2,-1.915 -0.76,-0.407 0.5,-2.036 0.81,-2.318 1.49,-1.361 1.44,-2.78 2.82,-4.334 1.45,-1.641 0,-3.818 0.3,-5.645 0.29,-1.836 0.42,-4.849 -0.4,-6.652 -0.38,-0.835 -1.65,-1.608 -0.91,-2.621 0.41,-0.559 0.74,-1.144 1.31,-1.209 z"/></svg>