<svg xmlns="http://www.w3.org/2000/svg" viewBox="0 0 2754 1200"><g xmlns="http://www.w3.org/2000/svg" id="tw" class="landxx coastxx cn tw">
			<title>Taiwan</title>
			<path id="path2738" d="m 2183.73,486.335 c -0.26,0.216 -0.54,0.384 -0.86,0.504 0.45,0.267 0.93,0.339 1.44,0.217 -0.17,-0.26 -0.36,-0.5 -0.58,-0.721"/>
			<path id="path2746" d="m 2197.91,494.903 c 0.19,0.717 0.58,1.315 0.34,2.076 -0.19,0.624 -0.39,1.169 0.15,1.7 1,0.976 1.33,2.582 1.97,3.848 0.74,1.471 2.34,1.896 3.29,3.167 0.3,0.408 0.94,3.044 1.69,2.651 0.98,-0.507 0.4,-2.174 0.29,-2.985 -0.18,-1.308 0.19,-2.287 0.93,-3.354 1.77,-2.551 2.09,-7.293 1.89,-10.309 -0.1,-0.624 -0.46,-1.561 -0.25,-2.175 0.2,-0.617 0.53,-0.972 0.6,-1.652 0.16,-1.583 -0.38,-2.74 -0.38,-4.271 0,-0.792 0.79,-1.433 0.1,-2.078 -0.44,-0.394 -2.71,-2.193 -3.28,-1.623 -0.91,0.903 -2.71,1.127 -3.22,2.396 -0.52,1.309 -0.37,2.075 -1.3,3.197 -0.86,1.024 -1.05,2.491 -1.39,3.733 -0.5,1.832 -1.83,3.698 -1.4,5.679"/>
			<g id="tw" class="limitxx cn tw">
				<path id="path2738-" d="m 2183.73,486.335 c -0.26,0.216 -0.54,0.384 -0.86,0.504 0.45,0.267 0.93,0.339 1.44,0.217 -0.17,-0.26 -0.36,-0.5 -0.58,-0.721"/>
				<path id="path2746-" d="m 2197.91,494.903 c 0.19,0.717 0.58,1.315 0.34,2.076 -0.19,0.624 -0.39,1.169 0.15,1.7 1,0.976 1.33,2.582 1.97,3.848 0.74,1.471 2.34,1.896 3.29,3.167 0.3,0.408 0.94,3.044 1.69,2.651 0.98,-0.507 0.4,-2.174 0.29,-2.985 -0.18,-1.308 0.19,-2.287 0.93,-3.354 1.77,-2.551 2.09,-7.293 1.89,-10.309 -0.1,-0.624 -0.46,-1.561 -0.25,-2.175 0.2,-0.617 0.53,-0.972 0.6,-1.652 0.16,-1.583 -0.38,-2.74 -0.38,-4.271 0,-0.792 0.79,-1.433 0.1,-2.078 -0.44,-0.394 -2.71,-2.193 -3.28,-1.623 -0.91,0.903 -2.71,1.127 -3.22,2.396 -0.52,1.309 -0.37,2.075 -1.3,3.197 -0.86,1.024 -1.05,2.491 -1.39,3.733 -0.5,1.832 -1.83,3.698 -1.4,5.679"/>
			</g>
		</g></svg>