<svg xmlns="http://www.w3.org/2000/svg" viewBox="0 0 2754 1200"><g xmlns="http://www.w3.org/2000/svg" id="vu">
		<title>Vanuatu</title>
		<g id="vu-" class="landxx coastxx vu">
			<path id="path6058" d="m 2569.86,822.51 c 0.9,-0.485 0.95,-2.087 -0.26,-1.235 -0.54,0.385 -0.74,1.482 0.26,1.235"/>
			<path id="path6062" d="m 2570.00,819.27 c 0.87,-0.414 1.08,-1.368 0.43,-2.09 -0.99,0.428 -0.71,1.292 -0.43,2.09"/>
			<path id="path6048" d="m 2565.53,829.42 c -0.32,-0.525 -0.37,-1.075 -0.14,-1.65 -1.19,0.476 -2.12,3.483 -2.23,0.43 0,-1.177 -1.45,-4.02 -1.6,-1.214 -0.1,1.271 0.6,2.455 0.14,3.712 -0.45,1.205 0.3,1.93 0.31,3.122 2.52,0 4.61,-1.787 3.52,-4.4"/>
			<path id="path6052" d="m 2565.97,842.17 c 0.66,-0.423 3.39,-0.618 2.67,-1.974 -0.55,-1.031 -1.65,-1.551 -2.2,-2.623 -2.07,-4.024 -2.52,1.751 -1.05,0.486 0.88,1.222 -0.24,2.868 0.58,4.111"/>
			<path id="path6054" d="m 2565.10,834.90 c 0.3,-0.339 0.32,-0.699 0.1,-1.08 -0.31,0.162 -0.57,0.376 -0.79,0.641 0.24,0.146 0.48,0.292 0.72,0.439"/>
			<path id="path6056" d="m 2570.36,852.82 c 1.26,0.147 1.96,-1.662 0.93,-2.434 -0.73,-0.543 -2.22,1.054 -2.44,1.644 1.32,-0.926 0.1,0.54 1.51,0.79"/>
			<path id="path6064" d="m 2570.50,832.59 c 0.54,-0.529 1.01,-1.13 1.37,-1.8 -0.72,0.115 -1.48,0.208 -1.92,0.864 -0.37,0.559 -0.2,1.048 0.55,0.936"/>
			<path id="path6066" d="m 2571.29,840.15 c 0.52,-0.06 1,-0.227 1.45,-0.5 -0.47,-0.327 -0.77,-0.854 -0.65,-1.439 -0.82,-0.03 -1.44,0.572 -2.23,0.64 0.1,0.758 0.83,1.036 1.43,1.299"/>
			<path id="path6068" d="m 2572.88,844.33 c 0.1,-0.745 -1.58,-1.563 -2.09,-1.87 -1.14,1.948 1.25,1.049 2.09,1.87"/>
			<path id="path6072" d="m 2572.37,836.98 c 1.01,-0.778 1.07,-3.456 0.44,-4.46 -0.35,1.492 -0.64,2.919 -0.44,4.46"/>
			<path id="path6074" d="m 2572.81,831.80 c 0.99,-0.868 0.99,-2.646 0.43,-3.74 -0.1,1.252 -0.42,2.48 -0.43,3.74"/>
			<path id="path6076" d="m 2574.68,862.97 c 0.66,-0.405 0.33,-3.557 -0.94,-3.229 -0.48,0.124 -0.84,1.513 -0.92,1.918 -0.15,0.741 1.42,0.996 1.86,1.311"/>
			<path id="path6078" d="m 2574.53,868.66 c 0.95,-0.986 -0.45,-1.887 0,-2.95 -1.77,0.184 -1.16,2.364 0,2.95"/>
			<path id="path6080" d="m 2576.19,873.77 c 0.24,-0.213 0.46,-0.45 0.65,-0.71 -0.64,-0.416 -1.55,0.273 -0.65,0.71"/>
		</g>
		<circle id="vu_" class="circlexxxx vu" r="6" cy="840.727" cx="2568.45"/>
	</g></svg>