<svg xmlns="http://www.w3.org/2000/svg" viewBox="0 0 2754 1200"><g xmlns="http://www.w3.org/2000/svg" id="xk">
			<title>Kosovo</title>
			<path id="xk" class="limitxxxx rs xk" d="m 1446.36,328.948 c 0.39,-0.288 1.2,-0.809 1.61,-0.628 0.1,-0.687 0.17,0.1 0.44,-0.361 0.44,-0.743 0.98,-0.639 1.46,-0.848 1,-0.429 0.97,-0.884 0.5,-1.977 0.47,-0.06 1.07,-0.392 1.46,-0.664 0.3,1.962 5.13,1.273 4.79,3.224 -0.17,0.986 1.74,1.337 1.95,2.147 0.31,1.186 -1.92,2.399 -1.04,3.357 -0.8,0.366 -2.02,0.417 -1.72,1.379 -1.2,-0.149 -1,-0.82 -2.75,-0.113 -1.4,0.564 -1.31,2.199 -2.03,2.417 -0.48,-0.132 0.2,-2.393 -0.79,-3.162 -0.24,-0.864 -1.1,-0.557 -1.96,-1.212 -0.57,-0.914 -0.16,-1.38 -1.21,-1.713 -0.22,-0.493 -1.18,-1.451 -0.71,-1.846"/>
			<circle id="xk_" class="unxx rs xk" r="4" cy="328.555" cx="1453.13"/>
		</g></svg>